<svg width="122" height="109" viewBox="0 0 122 109" fill="none" xmlns="http://www.w3.org/2000/svg">
<path d="M99.8845 89.9497C97.764 87.6011 95.9654 84.9805 94.5362 82.1572C92.2785 77.7319 89.1577 73.8033 85.3581 70.6029C81.5584 67.4025 77.1565 64.9947 72.412 63.5219C68.2632 62.2391 63.9217 61.6947 59.5846 61.9132C62.7413 61.7329 65.8496 62.752 68.2864 64.7668C70.7234 66.7814 72.309 69.6425 72.7254 72.7769C73.8667 79.5493 76.8682 85.8711 81.395 91.0359C85.9216 96.2009 91.7953 100.005 98.3594 102.025C105.866 104.332 113.909 104.208 121.34 101.67C113.062 100.32 105.493 96.1855 99.8845 89.9497Z" fill="#414042"/>
<path d="M46.3184 62.3312C47.283 66.5688 48.9798 70.6057 51.3324 74.2603C49.6145 71.6066 48.9533 68.4056 49.4793 65.2886C50.0052 62.1713 51.6803 59.3645 54.1737 57.4216C59.4695 53.0411 63.4454 47.2765 65.6586 40.7698C67.8717 34.2631 68.2352 27.2698 66.7086 20.5688C64.9661 12.9031 60.8327 5.98965 54.9049 0.826294C57.856 8.71517 58.0257 17.3754 55.3854 25.3739C54.3746 28.3936 52.9697 31.2666 51.2071 33.9186C48.5008 38.0846 46.6571 42.7511 45.7851 47.6421C44.913 52.533 45.0305 57.5491 46.1304 62.3938L46.3184 62.3312Z" fill="#414042"/>
<path d="M66.2699 75.1168C64.8486 77.9426 62.4116 80.1268 59.4475 81.231C56.4836 82.3353 53.2116 82.278 50.2878 81.0709C43.8446 78.6563 36.8568 78.0809 30.1055 79.409C23.354 80.7371 17.1049 83.9166 12.0564 88.5919C6.30014 93.9468 2.39342 100.992 0.900085 108.711C6.25648 102.209 13.6703 97.7278 21.917 96.0084C25.0152 95.3744 28.1803 95.1287 31.3391 95.2772C36.294 95.534 41.2499 94.7955 45.9146 93.1055C50.579 91.4154 54.8579 88.8081 58.4982 85.4373C61.6842 82.4786 64.3284 78.9859 66.3117 75.1168H66.2699Z" fill="#414042"/>
</svg>
