<svg width="127" height="123" viewBox="0 0 127 123" fill="none" xmlns="http://www.w3.org/2000/svg">
<path d="M39.8357 50.2152L20.101 38.7419L0.340149 50.2152V73.1095L20.101 84.5568L39.8357 73.1095V50.2152ZM35.5863 70.6472L20.101 79.6059L4.61562 70.6472V52.6776L20.101 43.6928L35.5863 52.6776V70.6472Z" fill="#414042"/>
<path d="M82.4909 50.1892L63.5206 38.7419L44.5752 50.1892V73.0835L63.5206 84.5568L82.4909 73.0835V50.1892Z" fill="#414042"/>
<path d="M106.965 38.7419L87.2304 50.2152V73.1095L106.965 84.5568L126.726 73.1095V50.2152L106.965 38.7419ZM122.451 70.6472L106.965 79.6059L91.4798 70.6472V52.6776L106.965 43.6928L122.451 52.6776V70.6472Z" fill="#414042"/>
<path d="M22.4577 88.1311V111.026L42.2445 122.473L61.9533 111.026V88.1311L42.2445 76.6578L22.4577 88.1311ZM57.6313 108.642L42.2445 117.522L26.6234 108.642V90.5934L42.2445 81.6087L57.6835 90.5934L57.6313 108.642Z" fill="#414042"/>
<path d="M65.1129 88.1311V111.026L84.8476 122.473L104.608 111.026V88.1311L84.8476 76.6578L65.1129 88.1311ZM100.333 108.642L84.8476 117.6L69.3884 108.642V90.5934L84.8476 81.6087L100.333 90.5934V108.642Z" fill="#414042"/>
<path d="M61.9533 35.1939V12.2211L42.2707 0.826294L22.4577 12.2211V35.1154L42.2707 46.6411L61.9533 35.1939ZM26.6289 14.8406L42.2707 5.77714L57.6779 14.8406V32.8103L42.2707 41.6903L26.6289 32.7316V14.8406Z" fill="#414042"/>
<path d="M104.608 35.2726V12.2996L84.8476 0.826294L65.1129 12.2996V35.1939L84.8476 46.6411L104.608 35.2726ZM69.3884 14.9191L84.8476 5.93433L100.333 14.9191V32.8888L84.8476 41.8475L69.3884 32.8888V14.9191Z" fill="#414042"/>
</svg>
