<svg width="121" height="119" viewBox="0 0 121 119" fill="none" xmlns="http://www.w3.org/2000/svg">
<path d="M22.3206 33.6433L30.6825 37.8242C32.2217 38.4965 33.8965 38.7994 35.5735 38.7087C37.2505 38.618 38.8829 38.1361 40.3404 37.3016L48.2426 32.159C49.6022 31.1721 50.7089 29.8771 51.4719 28.3801C52.235 26.8831 52.6328 25.2266 52.6323 23.5463L52.1308 14.1183C51.9477 12.4516 51.3758 10.8509 50.4608 9.4457C49.5456 8.04049 48.3132 6.86983 46.8627 6.0282L38.5008 1.74275C36.9647 1.06251 35.2898 0.753542 33.612 0.840714C31.9342 0.927887 30.3003 1.40869 28.8428 2.24446L20.9411 7.38701C19.5837 8.37643 18.4787 9.67189 17.7161 11.1685C16.9533 12.6648 16.554 14.3202 16.5509 15.9997L17.0526 25.4277C17.215 27.1173 17.7776 28.7436 18.6936 30.1723C19.6097 31.6011 20.8531 32.791 22.3206 33.6433Z" fill="#414042"/>
<path d="M72.7635 45.8519L64.4017 41.5664C62.8662 40.8943 61.1947 40.5916 59.521 40.6824C57.8474 40.7731 56.2185 41.2549 54.7646 42.089L46.779 47.2316C45.4267 48.2256 44.3252 49.5221 43.563 51.0176C42.8009 52.5129 42.3987 54.1659 42.389 55.8443L42.891 65.2723C43.0739 66.9392 43.6458 68.5399 44.5608 69.9451C45.476 71.3503 46.7084 72.521 48.1587 73.3624L56.5206 77.5433C58.0533 78.2234 59.7246 78.5325 61.3993 78.4454C63.0738 78.3582 64.7039 77.8772 66.1576 77.0416L74.0805 71.8991C75.4335 70.9007 76.5347 69.6004 77.2967 68.1015C78.0589 66.6029 78.4609 64.9468 78.4705 63.2654L77.9688 53.8584C77.7771 52.2129 77.2074 50.634 76.3046 49.2451C75.4015 47.8562 74.1896 46.695 72.7635 45.8519Z" fill="#414042"/>
<path d="M98.5597 85.6127L90.1978 81.4318C88.6615 80.7514 86.9869 80.4424 85.3091 80.5296C83.6312 80.6167 81.9974 81.0975 80.5399 81.9335L72.6381 87.0761C71.2831 88.0676 70.1799 89.3637 69.4175 90.8596C68.6549 92.3555 68.2544 94.0097 68.2479 95.6888L68.7499 105.117C68.9499 106.757 69.5256 108.329 70.432 109.71C71.3383 111.091 72.5512 112.245 73.976 113.081L82.3379 117.262C83.8769 117.934 85.5518 118.237 87.2287 118.147C88.9057 118.056 90.5382 117.574 91.9958 116.74L99.9185 111.597C101.272 110.606 102.373 109.309 103.132 107.813C103.891 106.316 104.287 104.662 104.288 102.985L103.849 93.7237C103.668 92.0507 103.095 90.444 102.176 89.0344C101.257 87.625 100.018 86.4525 98.5597 85.6127Z" fill="#414042"/>
<path d="M36.9539 62.1991L36.5567 54.8615C36.5663 53.1831 36.9683 51.5302 37.7307 50.0349C38.4929 48.5393 39.5941 47.2428 40.9466 46.2488L56.3534 36.2355C57.8071 35.4014 59.4362 34.9195 61.1098 34.8288C62.7835 34.7381 64.455 35.041 65.9904 35.7129L72.5545 39.0576C74.0908 39.7378 75.7655 40.047 77.4433 39.9599C79.1213 39.8727 80.755 39.3917 82.2124 38.5559L90.1144 33.3924C91.4705 32.402 92.5745 31.1063 93.3371 29.61C94.0997 28.1138 94.4996 26.4592 94.5044 24.7797L94.0027 15.3726C93.8229 13.7021 93.2522 12.0973 92.337 10.6883C91.4218 9.27913 90.1878 8.10533 88.7347 7.26162L80.3728 2.97616C78.8338 2.30408 77.159 2.00117 75.4818 2.09189C73.8048 2.18262 72.1724 2.66447 70.7149 3.49878L62.6457 8.55771C61.2921 9.54942 60.1913 10.8459 59.4322 12.3423C58.6732 13.8386 58.2772 15.4926 58.2766 17.1704L58.6529 24.508C58.6523 26.186 58.2561 27.84 57.4971 29.3363C56.738 30.8327 55.6372 32.1292 54.2838 33.1207L38.8771 43.134C37.4196 43.9698 35.7859 44.4508 34.1081 44.538C32.4301 44.6252 30.7554 44.316 29.2191 43.6357L22.676 40.3119C21.1397 39.6317 19.465 39.3227 17.787 39.4099C16.1092 39.497 14.4755 39.9778 13.018 40.8136L5.11605 45.9562C3.75871 46.9456 2.6539 48.241 1.89109 49.7376C1.12828 51.2342 0.72921 52.8894 0.726074 54.5689L1.22778 63.9969C1.40589 65.668 1.97596 67.2735 2.89117 68.6829C3.80658 70.0923 5.04142 71.2656 6.49576 72.1079L14.8576 76.2888C16.3966 76.9611 18.0715 77.264 19.7485 77.1733C21.4255 77.0826 23.0581 76.6007 24.5156 75.7662L32.4175 70.6237C33.7755 69.6677 34.892 68.4088 35.6795 66.9465C36.4668 65.4845 36.9031 63.8591 36.9539 62.1991Z" fill="#414042"/>
<path d="M119.716 55.1338C119.529 53.4649 118.956 51.8628 118.042 50.4547C117.127 49.0465 115.896 47.8713 114.448 47.0227L106.086 42.8418C104.546 42.1712 102.871 41.8691 101.195 41.9598C99.5181 42.0506 97.8857 42.5316 96.4278 43.3644L88.5256 48.507C87.1708 49.4987 86.0678 50.7946 85.3052 52.2905C84.5428 53.7864 84.1421 55.4406 84.1358 57.1197L84.533 64.4781C84.5265 66.157 84.126 67.8112 83.3634 69.3071C82.601 70.8031 81.4979 72.0991 80.1428 73.0909L64.757 83.0833C63.2995 83.9176 61.6671 84.3994 59.9901 84.4902C58.3131 84.5809 56.6383 84.278 55.099 83.6059L48.535 80.2612C46.9995 79.5891 45.328 79.2862 43.6544 79.3769C41.9807 79.4678 40.3519 79.9495 38.8979 80.7838L30.9124 85.9054C29.56 86.8994 28.4588 88.1957 27.6964 89.6913C26.9342 91.1866 26.5322 92.8395 26.5226 94.5182L27.0241 103.946C27.2072 105.613 27.7792 107.214 28.6942 108.619C29.6094 110.024 30.8417 111.195 32.2923 112.036L40.6541 116.322C42.1867 117.002 43.858 117.311 45.5325 117.224C47.2071 117.136 48.8373 116.655 50.2912 115.82L58.2138 110.677C59.5651 109.682 60.6658 108.385 61.4277 106.89C62.1899 105.395 62.5925 103.743 62.604 102.065L62.2068 94.7061C62.2114 93.0268 62.6114 91.3722 63.374 89.8761C64.1366 88.3797 65.2405 87.084 66.5966 86.0933L81.9824 76.0802C83.4399 75.2445 85.0738 74.7634 86.7516 74.6763C88.4294 74.5891 90.1041 74.8981 91.6404 75.5783L98.1836 78.9024C99.7198 79.5826 101.395 79.8916 103.073 79.8044C104.75 79.7172 106.384 79.2364 107.842 78.4006L115.765 73.2581C117.117 72.2651 118.217 70.9684 118.976 69.4725C119.735 67.9763 120.131 66.3228 120.133 64.6454L119.716 55.1338Z" fill="#414042"/>
</svg>
