<svg width="15" height="36" viewBox="0 0 15 36" fill="none" xmlns="http://www.w3.org/2000/svg">
<path d="M14.9772 0.405762C14.9772 0.530897 14.9772 0.637495 14.9772 0.739457C14.9772 12.0017 14.9772 23.2631 14.9772 34.5238C14.9772 34.7926 14.9888 35.0614 15.0004 35.3279C15.0004 35.4692 14.9471 35.5341 14.8034 35.5225C14.7478 35.5225 14.6922 35.5225 14.6366 35.5225H0.987516C0.649187 35.5225 0.649187 35.5225 0.781275 35.2027C3.21601 29.2086 5.64998 23.2152 8.08317 17.2226C10.3372 11.6749 12.5927 6.12802 14.8498 0.581881C14.8567 0.544944 14.8717 0.510001 14.8938 0.479554C14.9158 0.449106 14.9443 0.423906 14.9772 0.405762Z" fill="#55B4ED"/>
</svg>
