<svg width="60" height="73" viewBox="0 0 60 73" fill="none" xmlns="http://www.w3.org/2000/svg">
<path d="M21.322 72.5128C18.6895 72.5128 16.057 72.5337 13.4246 72.5128C10.6438 72.485 7.86298 72.4989 5.08219 72.4966C3.4786 72.4966 1.87501 72.5128 0.273733 72.5337C0.0188272 72.5337 -0.0205674 72.4897 0.081395 72.251C2.52077 66.4901 4.95628 60.7277 7.38793 54.9637C9.52604 49.8996 11.6634 44.8347 13.8 39.769C16.1482 34.2074 18.4972 28.6459 20.847 23.0843C22.9279 18.1561 25.0081 13.2279 27.0875 8.29973C28.2292 5.61627 29.3654 2.92817 30.4963 0.235434C30.5198 0.159106 30.5699 0.0937447 30.6375 0.0512231C30.7052 0.00870157 30.7858 -0.00816009 30.8648 0.00370091C40.477 0.00370091 50.0893 0.00370091 59.7016 0.00370091C59.9565 0.00370091 59.9657 0.068586 59.8777 0.277145C57.4198 6.14771 54.9642 12.0121 52.5109 17.8703C50.1719 23.4628 47.8338 29.0553 45.4964 34.6477C43.0879 40.4055 40.6794 46.1602 38.2709 51.9118C36.0247 57.2818 33.7792 62.6526 31.5345 68.0242C30.9412 69.4424 30.3434 70.856 29.7594 72.2765C29.7356 72.3585 29.6827 72.4289 29.6105 72.4746C29.5384 72.5203 29.4521 72.538 29.3678 72.5244C26.6889 72.5244 24.0101 72.5244 21.3313 72.5244L21.322 72.5128Z" fill="#55B4ED"/>
</svg>
