<svg width="60" height="89" viewBox="0 0 60 89" fill="none" xmlns="http://www.w3.org/2000/svg">
<path d="M1.96655 85.0417H7.05078V86H0.581055V85.1211L5.45166 78.0776H0.6604V77.1133H6.85547V77.9739L1.96655 85.0417ZM10.7434 82.6858H7.76489V81.7642H10.7434V82.6858ZM13.2825 86H12.1106V77.1133H13.2825V86ZM21.3879 78.0776H18.5315V86H17.3657V78.0776H14.5154V77.1133H21.3879V78.0776ZM32.124 84.8342C31.8229 85.2655 31.4018 85.589 30.8606 85.8047C30.3235 86.0163 29.6969 86.1221 28.9807 86.1221C28.2564 86.1221 27.6135 85.9532 27.052 85.6155C26.4905 85.2737 26.0551 84.7895 25.7458 84.1628C25.4407 83.5362 25.284 82.8099 25.2759 81.9839V81.2087C25.2759 79.87 25.5872 78.8324 26.2097 78.0959C26.8363 77.3595 27.7153 76.9912 28.8464 76.9912C29.7742 76.9912 30.5208 77.2292 31.0864 77.7053C31.652 78.1773 31.9979 78.8487 32.124 79.7195H30.9521C30.7324 78.5435 30.0326 77.9556 28.8525 77.9556C28.0672 77.9556 27.4711 78.2323 27.0642 78.7856C26.6614 79.335 26.4579 80.1325 26.4539 81.1782V81.9045C26.4539 82.9014 26.6817 83.6949 27.1375 84.2849C27.5932 84.8708 28.2096 85.1638 28.9868 85.1638C29.4263 85.1638 29.8108 85.115 30.1404 85.0173C30.47 84.9197 30.7426 84.7549 30.9583 84.5229V82.5271H28.9014V81.575H32.124V84.8342ZM34.9683 79.396L34.9988 80.1284C35.483 79.5588 36.1361 79.2739 36.958 79.2739C37.8817 79.2739 38.5103 79.6279 38.844 80.3359C39.0637 80.0186 39.3486 79.7622 39.6985 79.5669C40.0525 79.3716 40.4696 79.2739 40.9497 79.2739C42.3983 79.2739 43.1348 80.0409 43.1592 81.575V86H42.03V81.6421C42.03 81.1701 41.9222 80.8181 41.7065 80.5862C41.4909 80.3502 41.1287 80.2322 40.6201 80.2322C40.201 80.2322 39.8531 80.3583 39.5764 80.6106C39.2997 80.8588 39.139 81.1945 39.0942 81.6177V86H37.959V81.6726C37.959 80.7123 37.489 80.2322 36.5491 80.2322C35.8085 80.2322 35.3019 80.5475 35.0293 81.1782V86H33.9001V79.396H34.9683ZM50.459 82.7712C50.459 83.7804 50.2271 84.5921 49.7632 85.2065C49.2993 85.8169 48.6768 86.1221 47.8955 86.1221C47.0614 86.1221 46.4164 85.8271 45.9607 85.2371L45.9058 86H44.8682V76.625H45.9973V80.1223C46.453 79.5567 47.0817 79.2739 47.8833 79.2739C48.6849 79.2739 49.3136 79.5771 49.7693 80.1833C50.2291 80.7896 50.459 81.6197 50.459 82.6736V82.7712ZM49.3298 82.6431C49.3298 81.874 49.1813 81.2799 48.8843 80.8608C48.5872 80.4417 48.16 80.2322 47.6025 80.2322C46.8579 80.2322 46.3228 80.578 45.9973 81.2698V84.1262C46.3432 84.818 46.8823 85.1638 47.6147 85.1638C48.1559 85.1638 48.5771 84.9543 48.8782 84.5352C49.1793 84.116 49.3298 83.4854 49.3298 82.6431ZM58.894 86H57.7161V81.8923H53.2361V86H52.0642V77.1133H53.2361V80.9341H57.7161V77.1133H58.894V86Z" fill="white"/>
<path d="M21.9655 69.9803C19.377 69.9803 16.7884 70.0002 14.1998 69.9803C11.4654 69.9538 8.73102 69.9671 5.99661 69.9649C4.41977 69.9649 2.84293 69.9803 1.26837 70.0002C1.01772 70.0002 0.978983 69.9582 1.07924 69.7308C3.47792 64.2415 5.87281 58.7507 8.26389 53.2585C10.3663 48.4331 12.468 43.6069 14.569 38.78C16.878 33.4806 19.1878 28.1812 21.4984 22.8818C23.5446 18.186 25.5901 13.4901 27.6349 8.79422C28.7575 6.23726 29.8748 3.67587 30.9868 1.11008C31.0099 1.03735 31.0592 0.975068 31.1257 0.934551C31.1921 0.894034 31.2714 0.877967 31.3491 0.889269C40.801 0.889269 50.2529 0.889269 59.7048 0.889269C59.9555 0.889269 59.9646 0.951095 59.878 1.14982C57.4611 6.74364 55.0465 12.3316 52.6341 17.9136C50.3342 23.2425 48.035 28.5713 45.7366 33.9002C43.3683 39.3865 41 44.87 38.6317 50.3504C36.4229 55.4673 34.2149 60.5849 32.0076 65.7033C31.4243 67.0546 30.8364 68.4015 30.2622 69.7551C30.2388 69.8332 30.1867 69.9004 30.1158 69.9439C30.0448 69.9874 29.9599 70.0043 29.8771 69.9914C27.2429 69.9914 24.6088 69.9914 21.9746 69.9914L21.9655 69.9803Z" fill="white"/>
<path d="M1.00207 34.3766C1.00207 34.2794 1.00207 34.183 1.00207 34.0873C1.00207 23.1426 1.00207 12.2015 1.00207 1.26413C1.00207 0.831344 0.947377 0.888754 1.40083 0.888754H14.7698C15.0956 0.888754 15.0956 0.888754 14.9771 1.17581L4.79377 25.4648C3.57848 28.3559 2.36699 31.2477 1.15929 34.1403C1.12511 34.2198 1.08865 34.2993 1.0522 34.3788L1.00207 34.3766Z" fill="white"/>
<path d="M59.978 36.5271C59.978 36.6463 59.978 36.7479 59.978 36.8451C59.978 47.5764 59.978 58.3069 59.978 69.0368C59.978 69.2929 59.9894 69.549 60.0008 69.803C60.0008 69.9377 59.9484 69.9995 59.8071 69.9885C59.7525 69.9885 59.6978 69.9885 59.6431 69.9885H46.2217C45.889 69.9885 45.889 69.9884 46.0189 69.6837C48.413 63.9721 50.8064 58.2613 53.199 52.5512C55.4154 47.265 57.6333 41.9796 59.8527 36.6949C59.8596 36.6597 59.8743 36.6264 59.896 36.5974C59.9177 36.5684 59.9457 36.5444 59.978 36.5271Z" fill="white"/>
</svg>
