<svg width="49" height="46" viewBox="0 0 49 46" fill="none" xmlns="http://www.w3.org/2000/svg">
<g filter="url(#filter0_f_4451_14990)">
<path d="M24.5749 15.1035C23.1119 15.1035 21.6489 15.1095 20.186 15.1035C19.8991 15.0941 19.6138 15.1492 19.351 15.2648C19.0882 15.3805 18.8545 15.5537 18.6671 15.7718C17.8323 16.7008 16.9821 17.616 16.1413 18.5398C15.495 19.2495 15.4718 19.9212 16.0699 20.6568C18.6355 23.8266 21.202 26.9952 23.7694 30.1627C24.2926 30.8094 24.8881 30.8094 25.4131 30.1627C27.9798 26.997 30.546 23.8283 33.1117 20.6568C33.7141 19.9143 33.6908 19.2503 33.0437 18.5406C32.2029 17.6168 31.3527 16.7016 30.5179 15.7726C30.331 15.5542 30.0977 15.3806 29.8352 15.2645C29.5726 15.1484 29.2875 15.0928 29.0007 15.1018C27.5275 15.1095 26.0516 15.1035 24.5749 15.1035ZM25.6204 28.8789L25.5619 28.8443C25.6007 28.7243 25.6385 28.6043 25.679 28.4852C26.4541 26.2024 27.2286 23.9198 28.0025 21.6376C28.049 21.5021 28.1333 21.3596 28.1212 21.2284C28.1066 21.0833 28.0016 20.946 27.9362 20.8062C27.7937 20.8678 27.6581 20.9445 27.5318 21.035C27.4664 21.0911 27.4612 21.218 27.4285 21.313C26.541 23.9216 25.6537 26.5296 24.7668 29.137C24.7237 29.2631 24.6678 29.384 24.5766 29.6058C23.4622 26.325 22.3847 23.1537 21.3004 19.9635H32.8415L25.6204 28.8789ZM16.3134 19.9186C17.7084 19.9186 18.9657 19.929 20.223 19.9108C20.5182 19.9065 20.6395 19.9972 20.7324 20.2795C21.5233 22.6469 22.3314 25.0074 23.1343 27.3705C23.3004 27.8601 23.4639 28.3505 23.6291 28.8383L23.5628 28.8702L16.3134 19.9186ZM16.3711 19.2529L19.2832 16.0662C19.3538 16.2639 19.3986 16.3839 19.4399 16.5048C19.612 17.0064 19.7841 17.5089 19.9562 18.0105C20.0311 18.2272 20.1386 18.4319 20.414 18.3257C20.6894 18.2195 20.6481 18.0097 20.5638 17.7843C20.4588 17.5028 20.3727 17.2136 20.2763 16.9287C20.1516 16.5583 20.025 16.1888 19.8951 15.8063H23.8124C22.7685 16.952 21.7763 18.0433 20.778 19.1286C20.7098 19.1993 20.6178 19.2421 20.5199 19.2486C19.1739 19.2555 17.8366 19.2529 16.3711 19.2529ZM24.5955 15.9151L27.6195 19.227H21.5706L24.5955 15.9151ZM32.7976 19.2296H28.8235C29.1823 18.1754 29.5291 17.1575 29.9018 16.0601L32.7976 19.2296ZM29.3045 15.7916C28.9457 16.8467 28.5997 17.8637 28.234 18.9343L25.3631 15.7916H29.3045Z" fill="#7C2BFF"/>
</g>
<g filter="url(#filter1_f_4451_14990)">
<path d="M24.5749 15.1035C23.1119 15.1035 21.6489 15.1095 20.186 15.1035C19.8991 15.0941 19.6138 15.1492 19.351 15.2648C19.0882 15.3805 18.8545 15.5537 18.6671 15.7718C17.8323 16.7008 16.9821 17.616 16.1413 18.5398C15.495 19.2495 15.4718 19.9212 16.0699 20.6568C18.6355 23.8266 21.202 26.9952 23.7694 30.1627C24.2926 30.8094 24.8881 30.8094 25.4131 30.1627C27.9798 26.997 30.546 23.8283 33.1117 20.6568C33.7141 19.9143 33.6908 19.2503 33.0437 18.5406C32.2029 17.6168 31.3527 16.7016 30.5179 15.7726C30.331 15.5542 30.0977 15.3806 29.8352 15.2645C29.5726 15.1484 29.2875 15.0928 29.0007 15.1018C27.5275 15.1095 26.0516 15.1035 24.5749 15.1035ZM25.6204 28.8789L25.5619 28.8443C25.6007 28.7243 25.6385 28.6043 25.679 28.4852C26.4541 26.2024 27.2286 23.9198 28.0025 21.6376C28.049 21.5021 28.1333 21.3596 28.1212 21.2284C28.1066 21.0833 28.0016 20.946 27.9362 20.8062C27.7937 20.8678 27.6581 20.9445 27.5318 21.035C27.4664 21.0911 27.4612 21.218 27.4285 21.313C26.541 23.9216 25.6537 26.5296 24.7668 29.137C24.7237 29.2631 24.6678 29.384 24.5766 29.6058C23.4622 26.325 22.3847 23.1537 21.3004 19.9635H32.8415L25.6204 28.8789ZM16.3134 19.9186C17.7084 19.9186 18.9657 19.929 20.223 19.9108C20.5182 19.9065 20.6395 19.9972 20.7324 20.2795C21.5233 22.6469 22.3314 25.0074 23.1343 27.3705C23.3004 27.8601 23.4639 28.3505 23.6291 28.8383L23.5628 28.8702L16.3134 19.9186ZM16.3711 19.2529L19.2832 16.0662C19.3538 16.2639 19.3986 16.3839 19.4399 16.5048C19.612 17.0064 19.7841 17.5089 19.9562 18.0105C20.0311 18.2272 20.1386 18.4319 20.414 18.3257C20.6894 18.2195 20.6481 18.0097 20.5638 17.7843C20.4588 17.5028 20.3727 17.2136 20.2763 16.9287C20.1516 16.5583 20.025 16.1888 19.8951 15.8063H23.8124C22.7685 16.952 21.7763 18.0433 20.778 19.1286C20.7098 19.1993 20.6178 19.2421 20.5199 19.2486C19.1739 19.2555 17.8366 19.2529 16.3711 19.2529ZM24.5955 15.9151L27.6195 19.227H21.5706L24.5955 15.9151ZM32.7976 19.2296H28.8235C29.1823 18.1754 29.5291 17.1575 29.9018 16.0601L32.7976 19.2296ZM29.3045 15.7916C28.9457 16.8467 28.5997 17.8637 28.234 18.9343L25.3631 15.7916H29.3045Z" fill="#7C2BFF"/>
</g>
<g filter="url(#filter2_f_4451_14990)">
<path d="M24.5749 15.1035C23.1119 15.1035 21.6489 15.1095 20.186 15.1035C19.8991 15.0941 19.6138 15.1492 19.351 15.2648C19.0882 15.3805 18.8545 15.5537 18.6671 15.7718C17.8323 16.7008 16.9821 17.616 16.1413 18.5398C15.495 19.2495 15.4718 19.9212 16.0699 20.6568C18.6355 23.8266 21.202 26.9952 23.7694 30.1627C24.2926 30.8094 24.8881 30.8094 25.4131 30.1627C27.9798 26.997 30.546 23.8283 33.1117 20.6568C33.7141 19.9143 33.6908 19.2503 33.0437 18.5406C32.2029 17.6168 31.3527 16.7016 30.5179 15.7726C30.331 15.5542 30.0977 15.3806 29.8352 15.2645C29.5726 15.1484 29.2875 15.0928 29.0007 15.1018C27.5275 15.1095 26.0516 15.1035 24.5749 15.1035ZM25.6204 28.8789L25.5619 28.8443C25.6007 28.7243 25.6385 28.6043 25.679 28.4852C26.4541 26.2024 27.2286 23.9198 28.0025 21.6376C28.049 21.5021 28.1333 21.3596 28.1212 21.2284C28.1066 21.0833 28.0016 20.946 27.9362 20.8062C27.7937 20.8678 27.6581 20.9445 27.5318 21.035C27.4664 21.0911 27.4612 21.218 27.4285 21.313C26.541 23.9216 25.6537 26.5296 24.7668 29.137C24.7237 29.2631 24.6678 29.384 24.5766 29.6058C23.4622 26.325 22.3847 23.1537 21.3004 19.9635H32.8415L25.6204 28.8789ZM16.3134 19.9186C17.7084 19.9186 18.9657 19.929 20.223 19.9108C20.5182 19.9065 20.6395 19.9972 20.7324 20.2795C21.5233 22.6469 22.3314 25.0074 23.1343 27.3705C23.3004 27.8601 23.4639 28.3505 23.6291 28.8383L23.5628 28.8702L16.3134 19.9186ZM16.3711 19.2529L19.2832 16.0662C19.3538 16.2639 19.3986 16.3839 19.4399 16.5048C19.612 17.0064 19.7841 17.5089 19.9562 18.0105C20.0311 18.2272 20.1386 18.4319 20.414 18.3257C20.6894 18.2195 20.6481 18.0097 20.5638 17.7843C20.4588 17.5028 20.3727 17.2136 20.2763 16.9287C20.1516 16.5583 20.025 16.1888 19.8951 15.8063H23.8124C22.7685 16.952 21.7763 18.0433 20.778 19.1286C20.7098 19.1993 20.6178 19.2421 20.5199 19.2486C19.1739 19.2555 17.8366 19.2529 16.3711 19.2529ZM24.5955 15.9151L27.6195 19.227H21.5706L24.5955 15.9151ZM32.7976 19.2296H28.8235C29.1823 18.1754 29.5291 17.1575 29.9018 16.0601L32.7976 19.2296ZM29.3045 15.7916C28.9457 16.8467 28.5997 17.8637 28.234 18.9343L25.3631 15.7916H29.3045Z" fill="#7C2BFF"/>
</g>
<g filter="url(#filter3_d_4451_14990)">
<path d="M24.5749 15.1035C23.1119 15.1035 21.6489 15.1095 20.186 15.1035C19.8991 15.0941 19.6138 15.1492 19.351 15.2648C19.0882 15.3805 18.8545 15.5537 18.6671 15.7718C17.8323 16.7008 16.9821 17.616 16.1413 18.5398C15.495 19.2495 15.4718 19.9212 16.0699 20.6568C18.6355 23.8266 21.202 26.9952 23.7694 30.1627C24.2926 30.8094 24.8881 30.8094 25.4131 30.1627C27.9798 26.997 30.546 23.8283 33.1117 20.6568C33.7141 19.9143 33.6908 19.2503 33.0437 18.5406C32.2029 17.6168 31.3527 16.7016 30.5179 15.7726C30.331 15.5542 30.0977 15.3806 29.8352 15.2645C29.5726 15.1484 29.2875 15.0928 29.0007 15.1018C27.5275 15.1095 26.0516 15.1035 24.5749 15.1035ZM25.6204 28.8789L25.5619 28.8443C25.6007 28.7243 25.6385 28.6043 25.679 28.4852C26.4541 26.2024 27.2286 23.9198 28.0025 21.6376C28.049 21.5021 28.1333 21.3596 28.1212 21.2284C28.1066 21.0833 28.0016 20.946 27.9362 20.8062C27.7937 20.8678 27.6581 20.9445 27.5318 21.035C27.4664 21.0911 27.4612 21.218 27.4285 21.313C26.541 23.9216 25.6537 26.5296 24.7668 29.137C24.7237 29.2631 24.6678 29.384 24.5766 29.6058C23.4622 26.325 22.3847 23.1537 21.3004 19.9635H32.8415L25.6204 28.8789ZM16.3134 19.9186C17.7084 19.9186 18.9657 19.929 20.223 19.9108C20.5182 19.9065 20.6395 19.9972 20.7324 20.2795C21.5233 22.6469 22.3314 25.0074 23.1343 27.3705C23.3004 27.8601 23.4639 28.3505 23.6291 28.8383L23.5628 28.8702L16.3134 19.9186ZM16.3711 19.2529L19.2832 16.0662C19.3538 16.2639 19.3986 16.3839 19.4399 16.5048C19.612 17.0064 19.7841 17.5089 19.9562 18.0105C20.0311 18.2272 20.1386 18.4319 20.414 18.3257C20.6894 18.2195 20.6481 18.0097 20.5638 17.7843C20.4588 17.5028 20.3727 17.2136 20.2763 16.9287C20.1516 16.5583 20.025 16.1888 19.8951 15.8063H23.8124C22.7685 16.952 21.7763 18.0433 20.778 19.1286C20.7098 19.1993 20.6178 19.2421 20.5199 19.2486C19.1739 19.2555 17.8366 19.2529 16.3711 19.2529ZM24.5955 15.9151L27.6195 19.227H21.5706L24.5955 15.9151ZM32.7976 19.2296H28.8235C29.1823 18.1754 29.5291 17.1575 29.9018 16.0601L32.7976 19.2296ZM29.3045 15.7916C28.9457 16.8467 28.5997 17.8637 28.234 18.9343L25.3631 15.7916H29.3045Z" fill="white"/>
</g>
<defs>
<filter id="filter0_f_4451_14990" x="0.638184" y="0.10083" width="47.9087" height="45.5469" filterUnits="userSpaceOnUse" color-interpolation-filters="sRGB">
<feFlood flood-opacity="0" result="BackgroundImageFix"/>
<feBlend mode="normal" in="SourceGraphic" in2="BackgroundImageFix" result="shape"/>
<feGaussianBlur stdDeviation="7.5" result="effect1_foregroundBlur_4451_14990"/>
</filter>
<filter id="filter1_f_4451_14990" x="5.63818" y="5.10083" width="37.9087" height="35.5469" filterUnits="userSpaceOnUse" color-interpolation-filters="sRGB">
<feFlood flood-opacity="0" result="BackgroundImageFix"/>
<feBlend mode="normal" in="SourceGraphic" in2="BackgroundImageFix" result="shape"/>
<feGaussianBlur stdDeviation="5" result="effect1_foregroundBlur_4451_14990"/>
</filter>
<filter id="filter2_f_4451_14990" x="10.6382" y="10.1008" width="27.9087" height="25.5469" filterUnits="userSpaceOnUse" color-interpolation-filters="sRGB">
<feFlood flood-opacity="0" result="BackgroundImageFix"/>
<feBlend mode="normal" in="SourceGraphic" in2="BackgroundImageFix" result="shape"/>
<feGaussianBlur stdDeviation="2.5" result="effect1_foregroundBlur_4451_14990"/>
</filter>
<filter id="filter3_d_4451_14990" x="11.6382" y="15.1008" width="25.9087" height="23.5469" filterUnits="userSpaceOnUse" color-interpolation-filters="sRGB">
<feFlood flood-opacity="0" result="BackgroundImageFix"/>
<feColorMatrix in="SourceAlpha" type="matrix" values="0 0 0 0 0 0 0 0 0 0 0 0 0 0 0 0 0 0 127 0" result="hardAlpha"/>
<feOffset dy="4"/>
<feGaussianBlur stdDeviation="2"/>
<feComposite in2="hardAlpha" operator="out"/>
<feColorMatrix type="matrix" values="0 0 0 0 0 0 0 0 0 0 0 0 0 0 0 0 0 0 0.75 0"/>
<feBlend mode="normal" in2="BackgroundImageFix" result="effect1_dropShadow_4451_14990"/>
<feBlend mode="normal" in="SourceGraphic" in2="effect1_dropShadow_4451_14990" result="shape"/>
</filter>
</defs>
</svg>
