<svg width="21" height="16" viewBox="0 0 21 16" fill="none" xmlns="http://www.w3.org/2000/svg">
<path d="M18.6836 0.0305176L2.43359 0.0305176C1.91276 0.0305176 1.47005 0.212809 1.10547 0.577393C0.740885 0.941976 0.558594 1.38468 0.558594 1.90552L0.558594 13.1555C0.558594 13.6764 0.740885 14.1191 1.10547 14.4836C1.47005 14.8482 1.91276 15.0305 2.43359 15.0305H18.6836C19.2044 15.0305 19.6471 14.8482 20.0117 14.4836C20.3763 14.1191 20.5586 13.6764 20.5586 13.1555V1.90552C20.5586 1.38468 20.3763 0.941976 20.0117 0.577393C19.6471 0.212809 19.2044 0.0305176 18.6836 0.0305176ZM2.43359 1.28052L18.6836 1.28052C18.8659 1.28052 19.0091 1.34562 19.1133 1.47583C19.2435 1.58 19.3086 1.72323 19.3086 1.90552V3.50708C18.3971 4.28833 16.431 5.87687 13.4102 8.27271L13.0195 8.58521C12.4987 9.02791 12.0951 9.34041 11.8086 9.52271C11.3138 9.86125 10.8971 10.0305 10.5586 10.0305C10.2201 10.0305 9.80339 9.86125 9.30859 9.52271C8.99609 9.34041 8.57943 9.02791 8.05859 8.58521L7.70703 8.27271C4.6862 5.87687 2.72005 4.28833 1.80859 3.50708V1.90552C1.80859 1.72323 1.86068 1.58 1.96484 1.47583C2.09505 1.34562 2.2513 1.28052 2.43359 1.28052ZM18.6836 13.7805H2.43359C2.2513 13.7805 2.09505 13.7284 1.96484 13.6243C1.86068 13.4941 1.80859 13.3378 1.80859 13.1555L1.80859 5.14771C2.72005 5.87687 4.42578 7.24406 6.92578 9.24927L7.31641 9.56177C7.91536 10.0826 8.41016 10.4602 8.80078 10.6946C9.45182 11.0852 10.0378 11.2805 10.5586 11.2805C11.0794 11.2805 11.6654 11.0852 12.3164 10.6946C12.681 10.4602 13.1758 10.0826 13.8008 9.56177L14.1914 9.24927C16.6914 7.24406 18.3971 5.87687 19.3086 5.14771V13.1555C19.3086 13.3378 19.2435 13.4941 19.1133 13.6243C19.0091 13.7284 18.8659 13.7805 18.6836 13.7805Z" fill="#7C2BFF"/>
</svg>
