<svg width="16" height="21" viewBox="0 0 16 21" fill="none" xmlns="http://www.w3.org/2000/svg">
<path d="M8.05859 4.28052C7.01693 4.28052 6.13151 4.6451 5.40234 5.37427C4.67318 6.10343 4.30859 6.98885 4.30859 8.03052C4.30859 9.07218 4.67318 9.9576 5.40234 10.6868C6.13151 11.4159 7.01693 11.7805 8.05859 11.7805C9.10026 11.7805 9.98568 11.4159 10.7148 10.6868C11.444 9.9576 11.8086 9.07218 11.8086 8.03052C11.8086 6.98885 11.444 6.10343 10.7148 5.37427C9.98568 4.6451 9.10026 4.28052 8.05859 4.28052ZM8.05859 10.5305C7.38151 10.5305 6.79557 10.2831 6.30078 9.78833C5.80599 9.29354 5.55859 8.7076 5.55859 8.03052C5.55859 7.35343 5.80599 6.7675 6.30078 6.27271C6.79557 5.77791 7.38151 5.53052 8.05859 5.53052C8.73568 5.53052 9.32161 5.77791 9.81641 6.27271C10.3112 6.7675 10.5586 7.35343 10.5586 8.03052C10.5586 8.7076 10.3112 9.29354 9.81641 9.78833C9.32161 10.2831 8.73568 10.5305 8.05859 10.5305ZM8.05859 0.530518C6.70443 0.530518 5.45443 0.869059 4.30859 1.54614C3.16276 2.22323 2.2513 3.13468 1.57422 4.28052C0.897135 5.42635 0.558594 6.67635 0.558594 8.03052C0.558594 8.86385 0.66276 9.60604 0.871094 10.2571C1.07943 10.8821 1.48307 11.6633 2.08203 12.6008C2.4987 13.2519 3.35807 14.5149 4.66016 16.3899L7.27734 20.1399C7.45964 20.4003 7.72005 20.5305 8.05859 20.5305C8.39714 20.5305 8.65755 20.4003 8.83984 20.1399L11.457 16.3899C12.7591 14.5149 13.6185 13.2519 14.0352 12.6008C14.6341 11.6633 15.0378 10.8821 15.2461 10.2571C15.4544 9.60604 15.5586 8.86385 15.5586 8.03052C15.5586 6.67635 15.2201 5.42635 14.543 4.28052C13.8659 3.13468 12.9544 2.22323 11.8086 1.54614C10.6628 0.869059 9.41276 0.530518 8.05859 0.530518ZM8.05859 19.0461C7.43359 18.1347 6.6263 16.9758 5.63672 15.5696C4.38672 13.7727 3.56641 12.5878 3.17578 12.0149C2.62891 11.1295 2.26432 10.4264 2.08203 9.90552C1.89974 9.35864 1.80859 8.73364 1.80859 8.03052C1.80859 7.19718 1.96484 6.40291 2.27734 5.64771C2.58984 4.8925 3.04557 4.21541 3.64453 3.61646C4.24349 3.0175 4.92057 2.56177 5.67578 2.24927C6.43099 1.93677 7.22526 1.78052 8.05859 1.78052C8.89193 1.78052 9.6862 1.93677 10.4414 2.24927C11.1966 2.56177 11.8737 3.0175 12.4727 3.61646C13.0716 4.21541 13.5273 4.8925 13.8398 5.64771C14.1523 6.40291 14.3086 7.19718 14.3086 8.03052C14.3086 8.73364 14.2174 9.35864 14.0352 9.90552C13.8529 10.4264 13.4883 11.1295 12.9414 12.0149C12.5508 12.5878 11.7305 13.7727 10.4805 15.5696L8.05859 19.0461Z" fill="#7C2BFF"/>
</svg>
