<svg width="17" height="17" viewBox="0 0 17 17" fill="none" xmlns="http://www.w3.org/2000/svg">
<path fill-rule="evenodd" clip-rule="evenodd" d="M8.55926 0.0305176C6.38659 0.0305176 6.11393 0.0400176 5.26059 0.0788509C4.40893 0.117851 3.82759 0.252684 3.31893 0.450518C2.79276 0.654851 2.34643 0.928184 1.90176 1.37302C1.45676 1.81768 1.18343 2.26402 0.978427 2.79002C0.780094 3.29885 0.645094 3.88035 0.60676 4.73168C0.568594 5.58502 0.558594 5.85785 0.558594 8.03052C0.558594 10.2032 0.56826 10.475 0.606927 11.3284C0.646094 12.18 0.780927 12.7614 0.978594 13.27C1.18309 13.7962 1.45643 14.2425 1.90126 14.6872C2.34576 15.1322 2.79209 15.4062 3.31793 15.6105C3.82693 15.8084 4.40843 15.9432 5.25993 15.9822C6.11326 16.021 6.38576 16.0305 8.55826 16.0305C10.7311 16.0305 11.0029 16.021 11.8563 15.9822C12.7079 15.9432 13.2899 15.8084 13.7989 15.6105C14.3249 15.4062 14.7706 15.1322 15.2151 14.6872C15.6601 14.2425 15.9334 13.7962 16.1384 13.2702C16.3351 12.7614 16.4701 12.1799 16.5101 11.3285C16.5484 10.4752 16.5584 10.2032 16.5584 8.03052C16.5584 5.85785 16.5484 5.58518 16.5101 4.73185C16.4701 3.88018 16.3351 3.29885 16.1384 2.79018C15.9334 2.26402 15.6601 1.81768 15.2151 1.37302C14.7701 0.928018 14.3251 0.654684 13.7984 0.450518C13.2884 0.252684 12.7068 0.117851 11.8551 0.0788509C11.0018 0.0400176 10.7301 0.0305176 8.55676 0.0305176H8.55926ZM7.84177 1.47218C8.05477 1.47185 8.29244 1.47218 8.55944 1.47218C10.6954 1.47218 10.9486 1.47985 11.7921 1.51818C12.5721 1.55385 12.9954 1.68418 13.2774 1.79368C13.6508 1.93868 13.9169 2.11202 14.1968 2.39202C14.4768 2.67202 14.6501 2.93868 14.7954 3.31202C14.9049 3.59368 15.0354 4.01702 15.0709 4.79702C15.1093 5.64035 15.1176 5.89368 15.1176 8.02868C15.1176 10.1637 15.1093 10.417 15.0709 11.2604C15.0353 12.0403 14.9049 12.4637 14.7954 12.7453C14.6504 13.1187 14.4768 13.3845 14.1968 13.6643C13.9168 13.9443 13.6509 14.1177 13.2774 14.2627C12.9958 14.3727 12.5721 14.5027 11.7921 14.5383C10.9488 14.5767 10.6954 14.585 8.55944 14.585C6.42327 14.585 6.17011 14.5767 5.32677 14.5383C4.54677 14.5023 4.12344 14.372 3.84127 14.2625C3.46794 14.1175 3.20127 13.9442 2.92127 13.6642C2.64127 13.3842 2.46794 13.1182 2.32261 12.7447C2.21311 12.463 2.08261 12.0397 2.04711 11.2597C2.00877 10.4164 2.00111 10.163 2.00111 8.02668C2.00111 5.89035 2.00877 5.63835 2.04711 4.79502C2.08277 4.01502 2.21311 3.59168 2.32261 3.30968C2.46761 2.93635 2.64127 2.66968 2.92127 2.38968C3.20127 2.10968 3.46794 1.93635 3.84127 1.79102C4.12327 1.68102 4.54677 1.55102 5.32677 1.51518C6.06477 1.48185 6.35077 1.47185 7.84177 1.47018V1.47218ZM12.8298 2.80052C12.2998 2.80052 11.8698 3.23002 11.8698 3.76019C11.8698 4.29019 12.2998 4.72019 12.8298 4.72019C13.3598 4.72019 13.7898 4.29019 13.7898 3.76019C13.7898 3.23019 13.3598 2.80019 12.8298 2.80019V2.80052ZM8.55937 3.92217C6.29053 3.92217 4.45103 5.76167 4.45103 8.0305C4.45103 10.2993 6.29053 12.138 8.55937 12.138C10.8282 12.138 12.667 10.2993 12.667 8.0305C12.667 5.76167 10.828 3.92217 8.5592 3.92217H8.55937ZM8.5593 5.36384C10.032 5.36384 11.226 6.55767 11.226 8.0305C11.226 9.50317 10.032 10.6972 8.5593 10.6972C7.08646 10.6972 5.89263 9.50317 5.89263 8.0305C5.89263 6.55767 7.08646 5.36384 8.5593 5.36384Z" fill="#7C2BFF"/>
</svg>
