<svg width="226" height="276" viewBox="0 0 226 276" fill="none" xmlns="http://www.w3.org/2000/svg">
<path d="M68.2952 164.971L70.1551 161.333H66.0693H9.66648H9.65603L9.64558 161.333C8.54428 161.343 7.46094 161.054 6.51014 160.498C5.55936 159.942 4.77647 159.14 4.24427 158.176C3.71206 157.211 3.45033 156.121 3.48674 155.021C3.52316 153.92 3.85637 152.849 4.45114 151.922L4.45759 151.912L4.46395 151.902L96.4187 5.5321C96.4206 5.52916 96.4224 5.52622 96.4243 5.52329C96.9589 4.69216 97.687 4.00302 98.5464 3.51499C99.3982 3.03125 100.354 2.75945 101.332 2.72227H216.936H216.995L217.054 2.71948C218.274 2.66175 219.484 2.97106 220.527 3.60752C221.569 4.24396 222.397 5.17832 222.904 6.29001C223.41 7.4017 223.572 8.63967 223.368 9.84413C223.164 11.0486 222.604 12.1643 221.76 13.0473L221.723 13.0853L221.689 13.1248L143.672 101.905L140.025 106.056H145.55H191.849C193.005 106.085 194.128 106.441 195.09 107.083C196.058 107.729 196.822 108.639 197.29 109.705C197.759 110.771 197.913 111.948 197.736 113.099C197.559 114.24 197.063 115.308 196.305 116.178L53.1247 271.154L53.1033 271.177L53.0826 271.2C52.5168 271.844 51.8217 272.362 51.0426 272.72C50.2672 273.077 49.4259 273.266 48.5728 273.278H22.7799C21.7587 273.256 20.7592 272.979 19.8727 272.471C18.9804 271.96 18.2314 271.232 17.6952 270.355C17.1589 269.477 16.8528 268.479 16.8051 267.451C16.7577 266.431 16.9671 265.414 17.414 264.495C17.4168 264.49 17.4196 264.484 17.4224 264.478L68.2952 164.971ZM34.8231 257.419L32.9671 261.056H37.0498H44.8859H45.9805L46.7229 260.251L173.909 122.474L177.782 118.278H172.072H126.691H126.632L126.573 118.281C125.353 118.338 124.144 118.029 123.101 117.393C122.058 116.756 121.23 115.822 120.723 114.71C120.217 113.598 120.055 112.36 120.259 111.156C120.463 109.951 121.023 108.836 121.868 107.953L121.904 107.915L121.939 107.875L199.956 19.0947L203.603 14.9445H198.078H106.025H104.643L103.908 16.1149L22.791 145.282L20.386 149.111H24.9081H80.253C81.2742 149.133 82.2737 149.41 83.1602 149.918C84.0526 150.429 84.8016 151.157 85.3378 152.034C85.874 152.912 86.1801 153.91 86.2278 154.938C86.2752 155.959 86.0658 156.975 85.6187 157.894C85.616 157.9 85.6133 157.905 85.6106 157.911L34.8231 257.419Z" stroke="url(#paint0_linear_4643_15513)" stroke-width="5"/>
<defs>
<linearGradient id="paint0_linear_4643_15513" x1="113.469" y1="0.212646" x2="113.469" y2="275.778" gradientUnits="userSpaceOnUse">
<stop stop-color="#FAB2FF"/>
<stop offset="1" stop-color="#1904E5"/>
</linearGradient>
</defs>
</svg>
