<svg width="42" height="47" viewBox="0 0 42 47" fill="none" xmlns="http://www.w3.org/2000/svg">
<g filter="url(#filter0_f_5308_19044)">
<path d="M26.2905 14.917L16.5117 20.9458C17.0454 22.3299 17.0454 23.8616 16.5117 25.2458L26.2763 31.2647C26.6279 30.9815 26.9481 30.6771 27.3024 30.4265C28.2848 29.7342 29.4562 29.357 30.66 29.3451C31.8638 29.3332 33.0425 29.6872 34.0385 30.3599C35.0378 31.0286 35.8095 31.9832 36.2516 33.0976C36.6938 34.212 36.7856 35.4337 36.5149 36.6011C36.2439 37.7741 35.6197 38.837 34.7255 39.6478C33.8314 40.4586 32.71 40.9788 31.5109 41.1389C30.5155 41.2731 29.5022 41.1542 28.5655 40.7933C27.6288 40.4323 26.7993 39.8412 26.1545 39.075C25.5097 38.3087 25.0705 37.3925 24.878 36.4117C24.6855 35.4309 24.746 34.4176 25.0538 33.4663C25.1463 33.1832 25.0837 33.0628 24.8403 32.9141C21.7851 31.048 18.7366 29.1711 15.6947 27.2832C15.4528 27.1331 15.3219 27.1246 15.1041 27.337C14.2422 28.182 13.1405 28.7436 11.9477 28.9461C10.7549 29.1487 9.52836 28.9824 8.43353 28.4697C6.19482 27.4248 4.78726 25.0801 5.02636 22.6462C5.26546 20.2124 6.55346 18.4482 8.86903 17.5774C11.1846 16.7067 13.2682 17.1966 15.0813 18.8418C15.3204 19.0584 15.4585 19.074 15.7289 18.9055C18.7651 17.0177 21.8122 15.1388 24.8702 13.2689C25.0808 13.1387 25.1548 13.0339 25.0652 12.7705C24.7627 11.8554 24.6893 10.8806 24.8513 9.93078C25.0132 8.98097 25.4057 8.08483 25.9946 7.3201C26.5836 6.55536 27.3512 5.94513 28.2309 5.54235C29.1105 5.13957 30.0757 4.9564 31.0426 5.00875C34.0485 5.13901 36.4508 7.57006 36.6601 10.6722C36.8437 13.504 34.6946 16.2239 31.8567 16.7336C29.8016 17.1017 28.0141 16.5495 26.5083 15.1166C26.4414 15.0515 26.3717 14.9906 26.2905 14.917ZM26.9367 35.2588C26.9326 35.7523 27.0265 36.2417 27.2131 36.6989C27.3997 37.1561 27.6753 37.5722 28.0241 37.9231C28.3729 38.274 28.7879 38.5529 29.2453 38.7437C29.7028 38.9345 30.1937 39.0335 30.6897 39.0349C31.6904 39.0414 32.6527 38.6523 33.3652 37.9533C34.0777 37.2543 34.4821 36.3025 34.4897 35.307C34.4927 34.8112 34.3973 34.3198 34.209 33.8608C34.0208 33.4018 33.7433 32.9843 33.3925 32.6322C33.0418 32.2801 32.6246 32.0003 32.1649 31.8089C31.7053 31.6175 31.2122 31.5182 30.7139 31.5167C29.7146 31.5159 28.7558 31.9094 28.0477 32.6109C27.3396 33.3125 26.9401 34.2647 26.9367 35.2588V35.2588ZM26.9367 10.8903C26.9279 11.8853 27.3162 12.8432 28.0162 13.554C28.7162 14.2648 29.671 14.6704 30.6712 14.682C31.6713 14.6896 32.6338 14.3036 33.3491 13.6082C34.0643 12.9128 34.4743 11.9644 34.4897 10.9696C34.4964 10.4737 34.4044 9.98149 34.2189 9.52123C34.0334 9.06097 33.7582 8.64182 33.409 8.28798C33.0598 7.93413 32.6436 7.6526 32.1844 7.45964C31.7253 7.26667 31.2322 7.16609 30.7338 7.16371C30.2382 7.15904 29.7465 7.25187 29.287 7.43686C28.8276 7.62186 28.4094 7.89537 28.0565 8.24167C27.7037 8.58798 27.4231 9.00024 27.2309 9.45478C27.0387 9.90932 26.9387 10.3972 26.9367 10.8903V10.8903ZM7.18252 23.1007C7.18177 23.5937 7.27881 24.0819 7.46808 24.5375C7.65735 24.993 7.93513 25.407 8.2855 25.7555C8.63586 26.1041 9.05193 26.3804 9.50985 26.5687C9.96777 26.757 10.4585 26.8535 10.954 26.8528C11.9543 26.8543 12.9144 26.461 13.6236 25.7592C14.3328 25.0574 14.7332 24.1044 14.7369 23.1092C14.7384 22.6135 14.6413 22.1224 14.4512 21.6641C14.2611 21.2059 13.9817 20.7896 13.6291 20.4393C13.2766 20.0889 12.8578 19.8114 12.397 19.6228C11.9362 19.4342 11.4424 19.3381 10.9441 19.3402C10.4486 19.3406 9.95815 19.4382 9.50074 19.6276C9.04333 19.8169 8.62799 20.0942 8.27853 20.4436C7.92907 20.7929 7.65237 21.2075 7.46429 21.6635C7.27622 22.1194 7.18046 22.6079 7.18252 23.1007V23.1007Z" fill="#15F2FD"/>
</g>
<path d="M26.2905 14.917L16.5117 20.9458C17.0454 22.3299 17.0454 23.8616 16.5117 25.2458L26.2763 31.2647C26.6279 30.9815 26.9481 30.6771 27.3024 30.4265C28.2848 29.7342 29.4562 29.357 30.66 29.3451C31.8638 29.3332 33.0425 29.6872 34.0385 30.3599C35.0378 31.0286 35.8095 31.9832 36.2516 33.0976C36.6938 34.212 36.7856 35.4337 36.5149 36.6011C36.2439 37.7741 35.6197 38.837 34.7255 39.6478C33.8314 40.4586 32.71 40.9788 31.5109 41.1389C30.5155 41.2731 29.5022 41.1542 28.5655 40.7933C27.6288 40.4323 26.7993 39.8412 26.1545 39.075C25.5097 38.3087 25.0705 37.3925 24.878 36.4117C24.6855 35.4309 24.746 34.4176 25.0538 33.4663C25.1463 33.1832 25.0837 33.0628 24.8403 32.9141C21.7851 31.048 18.7366 29.1711 15.6947 27.2832C15.4528 27.1331 15.3219 27.1246 15.1041 27.337C14.2422 28.182 13.1405 28.7436 11.9477 28.9461C10.7549 29.1487 9.52836 28.9824 8.43353 28.4697C6.19482 27.4248 4.78726 25.0801 5.02636 22.6462C5.26546 20.2124 6.55346 18.4482 8.86903 17.5774C11.1846 16.7067 13.2682 17.1966 15.0813 18.8418C15.3204 19.0584 15.4585 19.074 15.7289 18.9055C18.7651 17.0177 21.8122 15.1388 24.8702 13.2689C25.0808 13.1387 25.1548 13.0339 25.0652 12.7705C24.7627 11.8554 24.6893 10.8806 24.8513 9.93078C25.0132 8.98097 25.4057 8.08483 25.9946 7.3201C26.5836 6.55536 27.3512 5.94513 28.2309 5.54235C29.1105 5.13957 30.0757 4.9564 31.0426 5.00875C34.0485 5.13901 36.4508 7.57006 36.6601 10.6722C36.8437 13.504 34.6946 16.2239 31.8567 16.7336C29.8016 17.1017 28.0141 16.5495 26.5083 15.1166C26.4414 15.0515 26.3717 14.9906 26.2905 14.917ZM26.9367 35.2588C26.9326 35.7523 27.0265 36.2417 27.2131 36.6989C27.3997 37.1561 27.6753 37.5722 28.0241 37.9231C28.3729 38.274 28.7879 38.5529 29.2453 38.7437C29.7028 38.9345 30.1937 39.0335 30.6897 39.0349C31.6904 39.0414 32.6527 38.6523 33.3652 37.9533C34.0777 37.2543 34.4821 36.3025 34.4897 35.307C34.4927 34.8112 34.3973 34.3198 34.209 33.8608C34.0208 33.4018 33.7433 32.9843 33.3925 32.6322C33.0418 32.2801 32.6246 32.0003 32.1649 31.8089C31.7053 31.6175 31.2122 31.5182 30.7139 31.5167C29.7146 31.5159 28.7558 31.9094 28.0477 32.6109C27.3396 33.3125 26.9401 34.2647 26.9367 35.2588ZM26.9367 10.8903C26.9279 11.8853 27.3162 12.8432 28.0162 13.554C28.7162 14.2648 29.671 14.6704 30.6712 14.682C31.6713 14.6896 32.6338 14.3036 33.3491 13.6082C34.0643 12.9128 34.4743 11.9644 34.4897 10.9696C34.4964 10.4737 34.4044 9.98149 34.2189 9.52123C34.0334 9.06097 33.7582 8.64182 33.409 8.28798C33.0598 7.93413 32.6436 7.6526 32.1844 7.45964C31.7253 7.26667 31.2322 7.16609 30.7338 7.16371C30.2382 7.15904 29.7465 7.25187 29.287 7.43686C28.8276 7.62186 28.4094 7.89537 28.0565 8.24167C27.7037 8.58798 27.4231 9.00024 27.2309 9.45478C27.0387 9.90932 26.9387 10.3972 26.9367 10.8903ZM7.18252 23.1007C7.18177 23.5937 7.27881 24.0819 7.46808 24.5375C7.65735 24.993 7.93513 25.407 8.2855 25.7555C8.63586 26.1041 9.05193 26.3804 9.50985 26.5687C9.96777 26.757 10.4585 26.8535 10.954 26.8528C11.9543 26.8543 12.9144 26.461 13.6236 25.7592C14.3328 25.0574 14.7332 24.1044 14.7369 23.1092C14.7384 22.6135 14.6413 22.1224 14.4512 21.6641C14.2611 21.2059 13.9817 20.7896 13.6291 20.4393C13.2766 20.0889 12.8578 19.8114 12.397 19.6228C11.9362 19.4342 11.4424 19.3381 10.9441 19.3402C10.4486 19.3406 9.95815 19.4382 9.50074 19.6276C9.04333 19.8169 8.62799 20.0942 8.27853 20.4436C7.92907 20.7929 7.65237 21.2075 7.46429 21.6635C7.27622 22.1194 7.18046 22.6079 7.18252 23.1007Z" fill="white"/>
<defs>
<filter id="filter0_f_5308_19044" x="0" y="0" width="41.6719" height="46.1924" filterUnits="userSpaceOnUse" color-interpolation-filters="sRGB">
<feFlood flood-opacity="0" result="BackgroundImageFix"/>
<feBlend mode="normal" in="SourceGraphic" in2="BackgroundImageFix" result="shape"/>
<feGaussianBlur stdDeviation="2.5" result="effect1_foregroundBlur_5308_19044"/>
</filter>
</defs>
</svg>
