<svg width="40" height="40" viewBox="0 0 40 40" fill="none" xmlns="http://www.w3.org/2000/svg">
<path d="M33.3994 0.93042H6.15605C3.04403 0.93042 0.511719 3.46273 0.511719 6.57476V33.8181C0.511719 36.9301 3.04403 39.4624 6.15605 39.4624H33.3994C36.5114 39.4624 39.0437 36.9301 39.0437 33.8181V6.57476C39.0437 3.46273 36.5114 0.93042 33.3994 0.93042ZM14.1334 31.4851H9.61791V15.681H14.1334V31.4851ZM14.1334 13.4232H9.61791V8.90775H14.1334V13.4232ZM29.9375 31.4851H25.4221V22.4542C25.4221 21.2095 24.409 20.1964 23.1643 20.1964C21.9196 20.1964 20.9066 21.2095 20.9066 22.4542V31.4851H16.3911V15.681H20.9066V16.532C22.0895 16.1642 22.858 15.681 24.2932 15.681C27.3555 15.6842 29.9375 18.4314 29.9375 21.6781V31.4851Z" fill="white"/>
</svg>
