<svg width="21" height="22" viewBox="0 0 21 22" fill="none" xmlns="http://www.w3.org/2000/svg">
<path d="M19.1211 20.093L20.0195 16.1477C20.0977 15.8612 20.0586 15.5878 19.9023 15.3274C19.7721 15.067 19.5768 14.8717 19.3164 14.7415L15.0977 12.9446C14.8372 12.8404 14.5768 12.8144 14.3164 12.8665C14.056 12.9446 13.8346 13.0878 13.6523 13.2961L11.9336 15.4055C10.5794 14.7284 9.36849 13.856 8.30078 12.7883C7.23307 11.7206 6.36068 10.5097 5.68359 9.15552L7.79297 7.43677C8.0013 7.25448 8.13151 7.03312 8.18359 6.77271C8.26172 6.51229 8.2487 6.25187 8.14453 5.99146L6.34766 1.77271C6.21745 1.51229 6.02214 1.30396 5.76172 1.14771C5.5013 1.0175 5.22786 0.991455 4.94141 1.06958L0.996094 1.96802C0.735677 2.04614 0.514323 2.18937 0.332031 2.39771C0.14974 2.63208 0.0585938 2.8925 0.0585938 3.17896C0.0585938 6.40812 0.865885 9.40291 2.48047 12.1633C4.06901 14.8717 6.20443 17.0071 8.88672 18.5696C11.6732 20.2102 14.694 21.0305 17.9492 21.0305C18.2096 21.0305 18.444 20.9394 18.6523 20.7571C18.8867 20.5748 19.043 20.3534 19.1211 20.093ZM1.30859 3.17896L5.21484 2.28052L7.01172 6.49927L4.16016 8.80396C5.09766 10.8352 6.17839 12.4628 7.40234 13.6868C8.6263 14.9107 10.2539 15.9915 12.2852 16.929L14.5898 14.0774L18.8086 15.8743L17.9102 19.7805C14.9154 19.7805 12.1289 19.0253 9.55078 17.5149C7.02474 16.0305 5.03255 14.0383 3.57422 11.5383C2.0638 8.96021 1.30859 6.17375 1.30859 3.17896Z" fill="#7C2BFF"/>
</svg>
