<svg width="53" height="52" viewBox="0 0 53 52" fill="none" xmlns="http://www.w3.org/2000/svg">
<g filter="url(#filter0_f_4451_14991)">
<path d="M26.7473 15.241C29.6069 15.2447 32.3478 16.3838 34.3672 18.4079C36.3866 20.432 37.519 23.1752 37.5153 26.0339C37.5116 28.8927 36.3721 31.6329 34.3475 33.6518C32.3229 35.6706 29.579 36.8027 26.7194 36.799C20.7658 36.7957 15.9552 31.9534 15.9619 25.9862C15.9746 20.052 20.8039 15.2401 26.7473 15.241ZM26.7295 16.0855C21.26 16.0855 16.805 20.5612 16.8083 26.0344C16.8117 31.5075 21.2853 35.9596 26.7574 35.9554C32.2295 35.9512 36.6837 31.4796 36.6786 26.0056C36.6736 20.5317 32.2067 16.0804 26.7295 16.0855Z" fill="#7C2BFF"/>
<path d="M34.5812 26.0149C34.5802 24.6338 34.2129 23.2777 33.5169 22.0847C33.4324 21.9437 33.3353 21.7672 33.3572 21.6253C33.3792 21.4834 33.5574 21.2833 33.6554 21.2875C33.8311 21.2985 34.0668 21.4015 34.1572 21.5408C34.7014 22.3942 35.0725 23.3463 35.2494 24.3428C36.1448 29.2257 33.0599 33.6803 28.1698 34.5755C23.4183 35.4445 18.6659 31.9061 18.1447 27.1094C17.6294 22.3684 20.6298 18.309 25.318 17.4662C27.3656 17.098 29.3059 17.4915 31.1136 18.5226C31.3856 18.6772 31.6543 18.8604 31.4448 19.2109C31.2353 19.5614 30.9515 19.4043 30.6845 19.2506C26.0749 16.6327 20.3857 19.0656 19.1338 24.19C18.0298 28.7055 21.1519 33.215 25.7699 33.7766C30.4691 34.3517 34.5829 30.7272 34.5812 26.0149Z" fill="#7C2BFF"/>
<path d="M23.9808 25.9491C23.9808 25.1648 23.9808 24.3803 23.9808 23.5955C23.9808 23.0499 24.1743 22.6057 24.6701 22.3397C25.1474 22.0864 25.612 22.1489 26.0597 22.4368C27.3082 23.2399 28.5643 24.0304 29.806 24.8436C30.6989 25.428 30.7014 26.5106 29.806 27.0959C28.5525 27.9167 27.2907 28.7246 26.0208 29.5196C25.0823 30.1107 24.0163 29.5381 23.9842 28.4293C23.9622 27.6034 23.9817 26.7758 23.9808 25.9491ZM24.8256 25.9372C24.8256 26.7218 24.8112 27.5071 24.8357 28.2917C24.8416 28.4783 24.932 28.7578 25.0646 28.8195C25.2226 28.8929 25.5047 28.8355 25.6694 28.735C26.8715 27.9893 28.0591 27.22 29.2485 26.4549C29.768 26.1171 29.7612 25.8199 29.2308 25.4787C28.0532 24.7186 26.8774 23.9586 25.688 23.2197C25.5191 23.115 25.231 23.0364 25.0857 23.1133C24.9404 23.1901 24.8441 23.473 24.8323 23.6698C24.8078 24.4222 24.8247 25.1797 24.8247 25.9372H24.8256Z" fill="#7C2BFF"/>
<path d="M33.0548 20.28C32.8918 20.3881 32.7211 20.5883 32.5666 20.5773C32.412 20.5663 32.2084 20.3467 32.1797 20.1897C32.1676 20.1338 32.17 20.0757 32.1865 20.021C32.203 19.9663 32.2332 19.9166 32.2741 19.8767C32.315 19.8368 32.3654 19.8079 32.4206 19.7928C32.4757 19.7777 32.5338 19.7768 32.5894 19.7902C32.7583 19.8198 32.8968 19.9853 33.0489 20.09L33.0548 20.28Z" fill="#7C2BFF"/>
</g>
<g filter="url(#filter1_f_4451_14991)">
<path d="M26.7473 15.241C29.6069 15.2447 32.3478 16.3838 34.3672 18.4079C36.3866 20.432 37.519 23.1752 37.5153 26.0339C37.5116 28.8927 36.3721 31.6329 34.3475 33.6518C32.3229 35.6706 29.579 36.8027 26.7194 36.799C20.7658 36.7957 15.9552 31.9534 15.9619 25.9862C15.9746 20.052 20.8039 15.2401 26.7473 15.241ZM26.7295 16.0855C21.26 16.0855 16.805 20.5612 16.8083 26.0344C16.8117 31.5075 21.2853 35.9596 26.7574 35.9554C32.2295 35.9512 36.6837 31.4796 36.6786 26.0056C36.6736 20.5317 32.2067 16.0804 26.7295 16.0855Z" fill="#7C2BFF"/>
<path d="M34.5812 26.0149C34.5802 24.6338 34.2129 23.2777 33.5169 22.0847C33.4324 21.9437 33.3353 21.7672 33.3572 21.6253C33.3792 21.4834 33.5574 21.2833 33.6554 21.2875C33.8311 21.2985 34.0668 21.4015 34.1572 21.5408C34.7014 22.3942 35.0725 23.3463 35.2494 24.3428C36.1448 29.2257 33.0599 33.6803 28.1698 34.5755C23.4183 35.4445 18.6659 31.9061 18.1447 27.1094C17.6294 22.3684 20.6298 18.309 25.318 17.4662C27.3656 17.098 29.3059 17.4915 31.1136 18.5226C31.3856 18.6772 31.6543 18.8604 31.4448 19.2109C31.2353 19.5614 30.9515 19.4043 30.6845 19.2506C26.0749 16.6327 20.3857 19.0656 19.1338 24.19C18.0298 28.7055 21.1519 33.215 25.7699 33.7766C30.4691 34.3517 34.5829 30.7272 34.5812 26.0149Z" fill="#7C2BFF"/>
<path d="M23.9808 25.9491C23.9808 25.1648 23.9808 24.3803 23.9808 23.5955C23.9808 23.0499 24.1743 22.6057 24.6701 22.3397C25.1474 22.0864 25.612 22.1489 26.0597 22.4368C27.3082 23.2399 28.5643 24.0304 29.806 24.8436C30.6989 25.428 30.7014 26.5106 29.806 27.0959C28.5525 27.9167 27.2907 28.7246 26.0208 29.5196C25.0823 30.1107 24.0163 29.5381 23.9842 28.4293C23.9622 27.6034 23.9817 26.7758 23.9808 25.9491ZM24.8256 25.9372C24.8256 26.7218 24.8112 27.5071 24.8357 28.2917C24.8416 28.4783 24.932 28.7578 25.0646 28.8195C25.2226 28.8929 25.5047 28.8355 25.6694 28.735C26.8715 27.9893 28.0591 27.22 29.2485 26.4549C29.768 26.1171 29.7612 25.8199 29.2308 25.4787C28.0532 24.7186 26.8774 23.9586 25.688 23.2197C25.5191 23.115 25.231 23.0364 25.0857 23.1133C24.9404 23.1901 24.8441 23.473 24.8323 23.6698C24.8078 24.4222 24.8247 25.1797 24.8247 25.9372H24.8256Z" fill="#7C2BFF"/>
<path d="M33.0548 20.28C32.8918 20.3881 32.7211 20.5883 32.5666 20.5773C32.412 20.5663 32.2084 20.3467 32.1797 20.1897C32.1676 20.1338 32.17 20.0757 32.1865 20.021C32.203 19.9663 32.2332 19.9166 32.2741 19.8767C32.315 19.8368 32.3654 19.8079 32.4206 19.7928C32.4757 19.7777 32.5338 19.7768 32.5894 19.7902C32.7583 19.8198 32.8968 19.9853 33.0489 20.09L33.0548 20.28Z" fill="#7C2BFF"/>
</g>
<g filter="url(#filter2_f_4451_14991)">
<path d="M26.7473 15.241C29.6069 15.2447 32.3478 16.3838 34.3672 18.4079C36.3866 20.432 37.519 23.1752 37.5153 26.0339C37.5116 28.8927 36.3721 31.6329 34.3475 33.6518C32.3229 35.6706 29.579 36.8027 26.7194 36.799C20.7658 36.7957 15.9552 31.9534 15.9619 25.9862C15.9746 20.052 20.8039 15.2401 26.7473 15.241ZM26.7295 16.0855C21.26 16.0855 16.805 20.5612 16.8083 26.0344C16.8117 31.5075 21.2853 35.9596 26.7574 35.9554C32.2295 35.9512 36.6837 31.4796 36.6786 26.0056C36.6736 20.5317 32.2067 16.0804 26.7295 16.0855Z" fill="#7C2BFF"/>
<path d="M34.5812 26.0149C34.5802 24.6338 34.2129 23.2777 33.5169 22.0847C33.4324 21.9437 33.3353 21.7672 33.3572 21.6253C33.3792 21.4834 33.5574 21.2833 33.6554 21.2875C33.8311 21.2985 34.0668 21.4015 34.1572 21.5408C34.7014 22.3942 35.0725 23.3463 35.2494 24.3428C36.1448 29.2257 33.0599 33.6803 28.1698 34.5755C23.4183 35.4445 18.6659 31.9061 18.1447 27.1094C17.6294 22.3684 20.6298 18.309 25.318 17.4662C27.3656 17.098 29.3059 17.4915 31.1136 18.5226C31.3856 18.6772 31.6543 18.8604 31.4448 19.2109C31.2353 19.5614 30.9515 19.4043 30.6845 19.2506C26.0749 16.6327 20.3857 19.0656 19.1338 24.19C18.0298 28.7055 21.1519 33.215 25.7699 33.7766C30.4691 34.3517 34.5829 30.7272 34.5812 26.0149Z" fill="#7C2BFF"/>
<path d="M23.9808 25.9491C23.9808 25.1648 23.9808 24.3803 23.9808 23.5955C23.9808 23.0499 24.1743 22.6057 24.6701 22.3397C25.1474 22.0864 25.612 22.1489 26.0597 22.4368C27.3082 23.2399 28.5643 24.0304 29.806 24.8436C30.6989 25.428 30.7014 26.5106 29.806 27.0959C28.5525 27.9167 27.2907 28.7246 26.0208 29.5196C25.0823 30.1107 24.0163 29.5381 23.9842 28.4293C23.9622 27.6034 23.9817 26.7758 23.9808 25.9491ZM24.8256 25.9372C24.8256 26.7218 24.8112 27.5071 24.8357 28.2917C24.8416 28.4783 24.932 28.7578 25.0646 28.8195C25.2226 28.8929 25.5047 28.8355 25.6694 28.735C26.8715 27.9893 28.0591 27.22 29.2485 26.4549C29.768 26.1171 29.7612 25.8199 29.2308 25.4787C28.0532 24.7186 26.8774 23.9586 25.688 23.2197C25.5191 23.115 25.231 23.0364 25.0857 23.1133C24.9404 23.1901 24.8441 23.473 24.8323 23.6698C24.8078 24.4222 24.8247 25.1797 24.8247 25.9372H24.8256Z" fill="#7C2BFF"/>
<path d="M33.0548 20.28C32.8918 20.3881 32.7211 20.5883 32.5666 20.5773C32.412 20.5663 32.2084 20.3467 32.1797 20.1897C32.1676 20.1338 32.17 20.0757 32.1865 20.021C32.203 19.9663 32.2332 19.9166 32.2741 19.8767C32.315 19.8368 32.3654 19.8079 32.4206 19.7928C32.4757 19.7777 32.5338 19.7768 32.5894 19.7902C32.7583 19.8198 32.8968 19.9853 33.0489 20.09L33.0548 20.28Z" fill="#7C2BFF"/>
</g>
<g filter="url(#filter3_d_4451_14991)">
<path d="M26.7473 15.241C29.6069 15.2447 32.3478 16.3838 34.3672 18.4079C36.3866 20.432 37.519 23.1752 37.5153 26.0339C37.5116 28.8927 36.3721 31.6329 34.3475 33.6518C32.3229 35.6706 29.579 36.8027 26.7194 36.799C20.7658 36.7957 15.9552 31.9534 15.9619 25.9862C15.9746 20.052 20.8039 15.2401 26.7473 15.241ZM26.7295 16.0855C21.26 16.0855 16.805 20.5612 16.8083 26.0344C16.8117 31.5075 21.2853 35.9596 26.7574 35.9554C32.2295 35.9512 36.6837 31.4796 36.6786 26.0056C36.6736 20.5317 32.2067 16.0804 26.7295 16.0855Z" fill="white"/>
<path d="M34.5812 26.0149C34.5802 24.6338 34.2129 23.2777 33.5169 22.0847C33.4324 21.9437 33.3353 21.7672 33.3572 21.6253C33.3792 21.4834 33.5574 21.2833 33.6554 21.2875C33.8311 21.2985 34.0668 21.4015 34.1572 21.5408C34.7014 22.3942 35.0725 23.3463 35.2494 24.3428C36.1448 29.2257 33.0599 33.6803 28.1698 34.5755C23.4183 35.4445 18.6659 31.9061 18.1447 27.1094C17.6294 22.3684 20.6298 18.309 25.318 17.4662C27.3656 17.098 29.3059 17.4915 31.1136 18.5226C31.3856 18.6772 31.6543 18.8604 31.4448 19.2109C31.2353 19.5614 30.9515 19.4043 30.6845 19.2506C26.0749 16.6327 20.3857 19.0656 19.1338 24.19C18.0298 28.7055 21.1519 33.215 25.7699 33.7766C30.4691 34.3517 34.5829 30.7272 34.5812 26.0149Z" fill="white"/>
<path d="M23.9808 25.9491C23.9808 25.1648 23.9808 24.3803 23.9808 23.5955C23.9808 23.0499 24.1743 22.6057 24.6701 22.3397C25.1474 22.0864 25.612 22.1489 26.0597 22.4368C27.3082 23.2399 28.5643 24.0304 29.806 24.8436C30.6989 25.428 30.7014 26.5106 29.806 27.0959C28.5525 27.9167 27.2907 28.7246 26.0208 29.5196C25.0823 30.1107 24.0163 29.5381 23.9842 28.4293C23.9622 27.6034 23.9817 26.7758 23.9808 25.9491ZM24.8256 25.9372C24.8256 26.7218 24.8112 27.5071 24.8357 28.2917C24.8416 28.4783 24.932 28.7578 25.0646 28.8195C25.2226 28.8929 25.5047 28.8355 25.6694 28.735C26.8715 27.9893 28.0591 27.22 29.2485 26.4549C29.768 26.1171 29.7612 25.8199 29.2308 25.4787C28.0532 24.7186 26.8774 23.9586 25.688 23.2197C25.5191 23.115 25.231 23.0364 25.0857 23.1133C24.9404 23.1901 24.8441 23.473 24.8323 23.6698C24.8078 24.4222 24.8247 25.1797 24.8247 25.9372H24.8256Z" fill="white"/>
<path d="M33.0548 20.28C32.8918 20.3881 32.7211 20.5883 32.5666 20.5773C32.412 20.5663 32.2084 20.3467 32.1797 20.1897C32.1676 20.1338 32.17 20.0757 32.1865 20.021C32.203 19.9663 32.2332 19.9166 32.2741 19.8767C32.315 19.8368 32.3654 19.8079 32.4206 19.7928C32.4757 19.7777 32.5338 19.7768 32.5894 19.7902C32.7583 19.8198 32.8968 19.9853 33.0489 20.09L33.0548 20.28Z" fill="white"/>
</g>
<defs>
<filter id="filter0_f_4451_14991" x="0.961914" y="0.240967" width="51.5535" height="51.5581" filterUnits="userSpaceOnUse" color-interpolation-filters="sRGB">
<feFlood flood-opacity="0" result="BackgroundImageFix"/>
<feBlend mode="normal" in="SourceGraphic" in2="BackgroundImageFix" result="shape"/>
<feGaussianBlur stdDeviation="7.5" result="effect1_foregroundBlur_4451_14991"/>
</filter>
<filter id="filter1_f_4451_14991" x="5.96191" y="5.24097" width="41.5535" height="41.5581" filterUnits="userSpaceOnUse" color-interpolation-filters="sRGB">
<feFlood flood-opacity="0" result="BackgroundImageFix"/>
<feBlend mode="normal" in="SourceGraphic" in2="BackgroundImageFix" result="shape"/>
<feGaussianBlur stdDeviation="5" result="effect1_foregroundBlur_4451_14991"/>
</filter>
<filter id="filter2_f_4451_14991" x="10.9619" y="10.241" width="31.5535" height="31.5581" filterUnits="userSpaceOnUse" color-interpolation-filters="sRGB">
<feFlood flood-opacity="0" result="BackgroundImageFix"/>
<feBlend mode="normal" in="SourceGraphic" in2="BackgroundImageFix" result="shape"/>
<feGaussianBlur stdDeviation="2.5" result="effect1_foregroundBlur_4451_14991"/>
</filter>
<filter id="filter3_d_4451_14991" x="11.9619" y="15.241" width="29.5535" height="29.5581" filterUnits="userSpaceOnUse" color-interpolation-filters="sRGB">
<feFlood flood-opacity="0" result="BackgroundImageFix"/>
<feColorMatrix in="SourceAlpha" type="matrix" values="0 0 0 0 0 0 0 0 0 0 0 0 0 0 0 0 0 0 127 0" result="hardAlpha"/>
<feOffset dy="4"/>
<feGaussianBlur stdDeviation="2"/>
<feComposite in2="hardAlpha" operator="out"/>
<feColorMatrix type="matrix" values="0 0 0 0 0 0 0 0 0 0 0 0 0 0 0 0 0 0 0.75 0"/>
<feBlend mode="normal" in2="BackgroundImageFix" result="effect1_dropShadow_4451_14991"/>
<feBlend mode="normal" in="SourceGraphic" in2="effect1_dropShadow_4451_14991" result="shape"/>
</filter>
</defs>
</svg>
