<svg width="51" height="50" viewBox="0 0 51 50" fill="none" xmlns="http://www.w3.org/2000/svg">
<g filter="url(#filter0_f_4203_12370)">
<path fill-rule="evenodd" clip-rule="evenodd" d="M32.1917 15.6766L32.1917 15.6767C32.1284 15.9148 32.0721 16.1269 31.9838 16.3245C31.9401 16.4221 31.7176 16.5204 31.6154 16.4892C31.5524 16.4563 31.4989 16.408 31.4599 16.3487C31.4208 16.2895 31.3975 16.2212 31.3921 16.1504C31.4275 15.8559 31.5051 15.5681 31.6224 15.2957C31.6653 15.195 31.8675 15.0982 31.983 15.1122C32.064 15.1221 32.1323 15.2029 32.1963 15.2785L32.1963 15.2785L32.1963 15.2785C32.2236 15.3108 32.2502 15.3422 32.2765 15.3667C32.2452 15.475 32.2179 15.578 32.1917 15.6766ZM32.4163 19.1776C31.9401 18.3158 31.1221 18.0036 29.8942 18.2151C29.8739 18.2006 29.8557 18.1832 29.8404 18.1636C29.6531 17.8432 29.4676 17.5224 29.2821 17.2018L29.2818 17.2012C29.0771 16.8472 28.8724 16.4933 28.6656 16.1403C28.0364 15.0654 26.821 15.0256 26.1474 16.0693C24.5978 18.4886 22.5573 20.5555 20.158 22.136C19.8465 22.3413 19.7724 22.5333 19.9714 22.8689C20.5043 23.767 21.0238 24.6729 21.5433 25.5789L21.5434 25.579C21.6768 25.8117 21.8103 26.0444 21.9439 26.277C22.0712 26.4908 22.2148 26.7133 22.4904 26.5556C22.7659 26.398 22.6558 26.1614 22.5317 25.9468C21.965 24.9679 21.3996 23.9888 20.8355 23.0094C20.7923 22.9334 20.7522 22.8554 20.7114 22.7762L20.7114 22.7761L20.7114 22.7761C20.6882 22.7309 20.6647 22.6854 20.6404 22.6394C20.6749 22.6138 20.7061 22.5904 20.735 22.5686L20.735 22.5686L20.735 22.5686L20.7351 22.5685C20.7898 22.5274 20.8368 22.492 20.8847 22.4583C23.1837 20.8724 25.1467 18.8478 26.661 16.5009C27.1216 15.789 27.6992 15.8039 28.1231 16.5361C29.5942 19.0776 31.0635 21.6205 32.531 24.1647C32.9455 24.8836 32.6856 25.4004 31.8683 25.4456C29.2495 25.5877 26.7063 26.1185 24.3318 27.241C23.2963 27.7302 22.2991 28.3004 21.302 28.8706C20.8544 29.1266 20.4068 29.3825 19.9558 29.6311C19.2556 30.0175 18.6319 29.8552 18.2276 29.1667C17.6947 28.2591 17.1681 27.3485 16.6477 26.4346C16.2465 25.7321 16.4252 25.0952 17.1277 24.6815C17.689 24.3512 18.2536 24.0277 18.8184 23.7041L18.9504 23.6284C19.1541 23.5137 19.2923 23.3576 19.1604 23.1234C19.0285 22.8892 18.8263 22.9259 18.6218 23.0453C18.4014 23.1734 18.1799 23.3 17.9584 23.4265L17.9583 23.4266L17.9582 23.4267L17.9581 23.4267L17.9581 23.4267C17.5248 23.6744 17.0915 23.9221 16.6664 24.1803C15.7836 24.7205 15.5072 25.7516 16.0115 26.6595C16.561 27.6446 17.1301 28.625 17.7085 29.596C18.105 30.2603 18.7154 30.5663 19.4835 30.4882C19.6581 30.4717 19.8302 30.4159 20.0107 30.3574L20.0107 30.3574L20.0107 30.3574C20.1022 30.3278 20.1959 30.2975 20.293 30.2712C20.3196 30.3148 20.3486 30.3596 20.3784 30.4056C20.4211 30.4717 20.4655 30.5403 20.5069 30.6116C20.7459 31.0242 20.9841 31.4374 21.2222 31.8505C21.5813 32.4736 21.9404 33.0965 22.3022 33.7175C22.698 34.3927 23.267 34.5434 23.9547 34.1585L23.9733 34.1481L23.9734 34.148C24.171 34.0368 24.369 33.9252 24.5605 33.8041C25.1108 33.4568 25.2763 32.8862 24.964 32.321C24.6886 31.8244 24.4026 31.3323 24.1168 30.8407L24.1167 30.8406L24.1167 30.8405L24.1166 30.8404C23.9254 30.5114 23.7342 30.1826 23.5465 29.8528C23.4271 29.6444 23.2702 29.5211 23.0368 29.6592C22.8034 29.7974 22.8557 30.0004 22.9728 30.201C23.2333 30.6478 23.4915 31.0958 23.7496 31.5436C23.8549 31.7263 23.9602 31.909 24.0656 32.0915C24.3376 32.5619 24.473 32.7961 24.4225 32.9788C24.3723 33.1599 24.1393 33.2905 23.6753 33.5505C23.2514 33.7878 23.0969 33.7511 22.8557 33.3374C22.4248 32.5958 21.9952 31.8535 21.5669 31.1104C21.4094 30.8358 21.2529 30.561 21.0916 30.2775L21.0916 30.2775L20.8644 29.8786C21.1741 29.7023 21.4782 29.524 21.78 29.347C22.4353 28.9628 23.0794 28.5851 23.7448 28.2495C26.2928 26.9614 29.088 26.2365 31.9409 26.124C32.3468 26.1068 32.7082 25.9936 32.9986 25.7001C33.4615 25.2271 33.5356 24.5964 33.1883 23.9781C32.9243 23.5119 32.6569 23.0485 32.3912 22.5881L32.391 22.5878L32.39 22.5861L32.3896 22.5853C32.2386 22.3237 32.0882 22.063 31.9393 21.8034C32.7394 20.9136 32.8924 20.0393 32.4163 19.1776ZM31.5842 21.1852L30.2291 18.8497H30.2306C30.9597 18.7178 31.5061 18.9356 31.8183 19.4679C32.1306 20.0003 32.065 20.6084 31.5842 21.1852ZM33.9351 18.5108L33.9351 18.5108L33.9351 18.5109C33.9759 18.5429 34.0204 18.5778 34.0648 18.6186C34.1583 18.5572 34.2509 18.4972 34.3426 18.4378L34.3426 18.4378C34.6392 18.2455 34.9259 18.0597 35.199 17.8552C35.249 17.8185 35.224 17.5898 35.1576 17.5125C35.0913 17.4353 34.9024 17.3736 34.8197 17.4142C34.4812 17.5783 34.1558 17.768 33.8462 17.9817C33.7705 18.034 33.7315 18.2213 33.762 18.3228C33.7824 18.3911 33.851 18.4449 33.9351 18.5108ZM34.9181 20.9919C34.8214 20.969 34.7195 20.9448 34.6113 20.9158C34.5904 20.9336 34.5611 20.9529 34.5295 20.9738C34.4487 21.0271 34.3527 21.0903 34.3443 21.1633C34.3303 21.2929 34.4185 21.5114 34.5246 21.5614C34.7823 21.6806 35.0584 21.7551 35.3411 21.7815C35.4645 21.7893 35.6799 21.6621 35.7111 21.5551C35.7424 21.4482 35.619 21.2234 35.5082 21.1719C35.3318 21.0899 35.1388 21.0442 34.9181 20.9919Z" fill="#7C2BFF"/>
</g>
<g filter="url(#filter1_f_4203_12370)">
<path fill-rule="evenodd" clip-rule="evenodd" d="M32.1917 15.6765L32.1917 15.6767C32.1284 15.9148 32.0721 16.1268 31.9838 16.3245C31.9401 16.422 31.7176 16.5204 31.6154 16.4892C31.5524 16.4563 31.4989 16.408 31.4599 16.3487C31.4208 16.2894 31.3975 16.2212 31.3921 16.1504C31.4275 15.8559 31.5051 15.568 31.6224 15.2956C31.6653 15.1949 31.8675 15.0982 31.983 15.1122C32.064 15.1221 32.1323 15.2028 32.1963 15.2785L32.1963 15.2785L32.1963 15.2785C32.2236 15.3108 32.2502 15.3422 32.2765 15.3667C32.2452 15.475 32.2179 15.578 32.1917 15.6765ZM32.4163 19.1775C31.9401 18.3158 31.1221 18.0035 29.8942 18.2151C29.8739 18.2006 29.8557 18.1832 29.8404 18.1635C29.6531 17.8431 29.4676 17.5223 29.2821 17.2017L29.2818 17.2012C29.0771 16.8472 28.8724 16.4933 28.6656 16.1403C28.0364 15.0654 26.821 15.0256 26.1474 16.0692C24.5978 18.4886 22.5573 20.5555 20.158 22.1359C19.8465 22.3412 19.7724 22.5333 19.9714 22.8689C20.5043 23.7669 21.0238 24.6729 21.5433 25.5788L21.5434 25.5789C21.6768 25.8116 21.8103 26.0444 21.9439 26.2769C22.0712 26.4908 22.2148 26.7133 22.4904 26.5556C22.7659 26.3979 22.6558 26.1614 22.5317 25.9468C21.965 24.9679 21.3996 23.9888 20.8355 23.0094C20.7923 22.9334 20.7522 22.8554 20.7114 22.7761L20.7114 22.7761L20.7114 22.7761C20.6882 22.7309 20.6647 22.6853 20.6404 22.6394C20.6749 22.6138 20.7061 22.5903 20.735 22.5685L20.735 22.5685L20.735 22.5685L20.7351 22.5685C20.7898 22.5273 20.8368 22.492 20.8847 22.4583C23.1837 20.8723 25.1467 18.8478 26.661 16.5009C27.1216 15.789 27.6992 15.8038 28.1231 16.536C29.5942 19.0776 31.0635 21.6205 32.531 24.1647C32.9455 24.8836 32.6856 25.4003 31.8683 25.4456C29.2495 25.5877 26.7063 26.1185 24.3318 27.241C23.2963 27.7301 22.2991 28.3004 21.302 28.8706C20.8544 29.1265 20.4068 29.3825 19.9558 29.6311C19.2556 30.0175 18.6319 29.8551 18.2276 29.1667C17.6947 28.2591 17.1681 27.3484 16.6477 26.4346C16.2465 25.7321 16.4252 25.0951 17.1277 24.6814C17.689 24.3512 18.2536 24.0277 18.8184 23.7041L18.9504 23.6284C19.1541 23.5137 19.2923 23.3575 19.1604 23.1234C19.0285 22.8892 18.8263 22.9259 18.6218 23.0453C18.4014 23.1733 18.1799 23.2999 17.9584 23.4265L17.9583 23.4266L17.9582 23.4266L17.9581 23.4267L17.9581 23.4267C17.5248 23.6744 17.0915 23.922 16.6664 24.1803C15.7836 24.7205 15.5072 25.7516 16.0115 26.6594C16.561 27.6445 17.1301 28.6249 17.7085 29.596C18.105 30.2603 18.7154 30.5663 19.4835 30.4882C19.6581 30.4716 19.8302 30.4159 20.0107 30.3574L20.0107 30.3574L20.0107 30.3574C20.1022 30.3278 20.1959 30.2974 20.293 30.2712C20.3196 30.3148 20.3486 30.3596 20.3784 30.4056C20.4211 30.4716 20.4655 30.5402 20.5069 30.6115C20.7459 31.0242 20.9841 31.4374 21.2222 31.8505C21.5813 32.4735 21.9404 33.0965 22.3022 33.7175C22.698 34.3927 23.267 34.5433 23.9547 34.1585L23.9733 34.148L23.9734 34.148C24.171 34.0367 24.369 33.9252 24.5605 33.8041C25.1108 33.4568 25.2763 32.8861 24.964 32.321C24.6886 31.8244 24.4026 31.3323 24.1168 30.8406L24.1167 30.8406L24.1167 30.8405L24.1166 30.8404C23.9254 30.5114 23.7342 30.1826 23.5465 29.8528C23.4271 29.6444 23.2702 29.521 23.0368 29.6592C22.8034 29.7974 22.8557 30.0003 22.9728 30.2009C23.2333 30.6478 23.4915 31.0958 23.7496 31.5435C23.8549 31.7263 23.9602 31.909 24.0656 32.0915C24.3376 32.5618 24.473 32.796 24.4225 32.9787C24.3723 33.1599 24.1393 33.2904 23.6753 33.5504C23.2514 33.7877 23.0969 33.751 22.8557 33.3373C22.4248 32.5958 21.9952 31.8534 21.5669 31.1103C21.4094 30.8358 21.2529 30.5609 21.0916 30.2775L21.0916 30.2774L20.8644 29.8786C21.1741 29.7023 21.4782 29.524 21.78 29.347C22.4353 28.9628 23.0794 28.5851 23.7448 28.2495C26.2928 26.9614 29.088 26.2364 31.9409 26.1239C32.3468 26.1068 32.7082 25.9936 32.9986 25.7001C33.4615 25.2271 33.5356 24.5963 33.1883 23.9781C32.9243 23.5119 32.6569 23.0484 32.3912 22.5881L32.391 22.5877L32.39 22.586L32.3896 22.5852C32.2386 22.3236 32.0882 22.063 31.9393 21.8034C32.7394 20.9135 32.8924 20.0393 32.4163 19.1775ZM31.5842 21.1852L30.2291 18.8497H30.2306C30.9597 18.7178 31.5061 18.9355 31.8183 19.4679C32.1306 20.0003 32.065 20.6083 31.5842 21.1852ZM33.9351 18.5108L33.9351 18.5108L33.9351 18.5108C33.9759 18.5429 34.0204 18.5778 34.0648 18.6186C34.1583 18.5572 34.2509 18.4972 34.3426 18.4377L34.3426 18.4377C34.6392 18.2455 34.9259 18.0597 35.199 17.8552C35.249 17.8185 35.224 17.5898 35.1576 17.5125C35.0913 17.4352 34.9024 17.3736 34.8197 17.4141C34.4812 17.5783 34.1558 17.768 33.8462 17.9816C33.7705 18.0339 33.7315 18.2213 33.762 18.3227C33.7824 18.391 33.851 18.4448 33.9351 18.5108ZM34.9181 20.9919C34.8214 20.969 34.7195 20.9448 34.6113 20.9158C34.5904 20.9336 34.5611 20.9529 34.5295 20.9737C34.4487 21.027 34.3527 21.0903 34.3443 21.1632C34.3303 21.2928 34.4185 21.5114 34.5246 21.5613C34.7823 21.6806 35.0584 21.755 35.3411 21.7815C35.4645 21.7893 35.6799 21.662 35.7111 21.5551C35.7424 21.4482 35.619 21.2234 35.5082 21.1718C35.3318 21.0899 35.1388 21.0441 34.9181 20.9919Z" fill="#7C2BFF"/>
</g>
<g filter="url(#filter2_f_4203_12370)">
<path fill-rule="evenodd" clip-rule="evenodd" d="M32.1917 15.6765L32.1917 15.6767C32.1284 15.9148 32.0721 16.1268 31.9838 16.3245C31.9401 16.422 31.7176 16.5204 31.6154 16.4892C31.5524 16.4563 31.4989 16.408 31.4599 16.3487C31.4208 16.2894 31.3975 16.2212 31.3921 16.1504C31.4275 15.8559 31.5051 15.568 31.6224 15.2956C31.6653 15.1949 31.8675 15.0982 31.983 15.1122C32.064 15.1221 32.1323 15.2028 32.1963 15.2785L32.1963 15.2785L32.1963 15.2785C32.2236 15.3108 32.2502 15.3422 32.2765 15.3667C32.2452 15.475 32.2179 15.578 32.1917 15.6765ZM32.4163 19.1775C31.9401 18.3158 31.1221 18.0035 29.8942 18.2151C29.8739 18.2006 29.8557 18.1832 29.8404 18.1635C29.6531 17.8431 29.4676 17.5223 29.2821 17.2017L29.2818 17.2012C29.0771 16.8472 28.8724 16.4933 28.6656 16.1403C28.0364 15.0654 26.821 15.0256 26.1474 16.0692C24.5978 18.4886 22.5573 20.5555 20.158 22.1359C19.8465 22.3412 19.7724 22.5333 19.9714 22.8689C20.5043 23.7669 21.0238 24.6729 21.5433 25.5788L21.5434 25.5789C21.6768 25.8116 21.8103 26.0444 21.9439 26.2769C22.0712 26.4908 22.2148 26.7133 22.4904 26.5556C22.7659 26.3979 22.6558 26.1614 22.5317 25.9468C21.965 24.9679 21.3996 23.9888 20.8355 23.0094C20.7923 22.9334 20.7522 22.8554 20.7114 22.7761L20.7114 22.7761L20.7114 22.7761C20.6882 22.7309 20.6647 22.6853 20.6404 22.6394C20.6749 22.6138 20.7061 22.5903 20.735 22.5685L20.735 22.5685L20.735 22.5685L20.7351 22.5685C20.7898 22.5273 20.8368 22.492 20.8847 22.4583C23.1837 20.8723 25.1467 18.8478 26.661 16.5009C27.1216 15.789 27.6992 15.8038 28.1231 16.536C29.5942 19.0776 31.0635 21.6205 32.531 24.1647C32.9455 24.8836 32.6856 25.4003 31.8683 25.4456C29.2495 25.5877 26.7063 26.1185 24.3318 27.241C23.2963 27.7301 22.2991 28.3004 21.302 28.8706C20.8544 29.1265 20.4068 29.3825 19.9558 29.6311C19.2556 30.0175 18.6319 29.8551 18.2276 29.1667C17.6947 28.2591 17.1681 27.3484 16.6477 26.4346C16.2465 25.7321 16.4252 25.0951 17.1277 24.6814C17.689 24.3512 18.2536 24.0277 18.8184 23.7041L18.9504 23.6284C19.1541 23.5137 19.2923 23.3575 19.1604 23.1234C19.0285 22.8892 18.8263 22.9259 18.6218 23.0453C18.4014 23.1733 18.1799 23.2999 17.9584 23.4265L17.9583 23.4266L17.9582 23.4266L17.9581 23.4267L17.9581 23.4267C17.5248 23.6744 17.0915 23.922 16.6664 24.1803C15.7836 24.7205 15.5072 25.7516 16.0115 26.6594C16.561 27.6445 17.1301 28.6249 17.7085 29.596C18.105 30.2603 18.7154 30.5663 19.4835 30.4882C19.6581 30.4716 19.8302 30.4159 20.0107 30.3574L20.0107 30.3574L20.0107 30.3574C20.1022 30.3278 20.1959 30.2974 20.293 30.2712C20.3196 30.3148 20.3486 30.3596 20.3784 30.4056C20.4211 30.4716 20.4655 30.5402 20.5069 30.6115C20.7459 31.0242 20.9841 31.4374 21.2222 31.8505C21.5813 32.4735 21.9404 33.0965 22.3022 33.7175C22.698 34.3927 23.267 34.5433 23.9547 34.1585L23.9733 34.148L23.9734 34.148C24.171 34.0367 24.369 33.9252 24.5605 33.8041C25.1108 33.4568 25.2763 32.8861 24.964 32.321C24.6886 31.8244 24.4026 31.3323 24.1168 30.8406L24.1167 30.8406L24.1167 30.8405L24.1166 30.8404C23.9254 30.5114 23.7342 30.1826 23.5465 29.8528C23.4271 29.6444 23.2702 29.521 23.0368 29.6592C22.8034 29.7974 22.8557 30.0003 22.9728 30.2009C23.2333 30.6478 23.4915 31.0958 23.7496 31.5435C23.8549 31.7263 23.9602 31.909 24.0656 32.0915C24.3376 32.5618 24.473 32.796 24.4225 32.9787C24.3723 33.1599 24.1393 33.2904 23.6753 33.5504C23.2514 33.7877 23.0969 33.751 22.8557 33.3373C22.4248 32.5958 21.9952 31.8534 21.5669 31.1103C21.4094 30.8358 21.2529 30.5609 21.0916 30.2775L21.0916 30.2774L20.8644 29.8786C21.1741 29.7023 21.4782 29.524 21.78 29.347C22.4353 28.9628 23.0794 28.5851 23.7448 28.2495C26.2928 26.9614 29.088 26.2364 31.9409 26.1239C32.3468 26.1068 32.7082 25.9936 32.9986 25.7001C33.4615 25.2271 33.5356 24.5963 33.1883 23.9781C32.9243 23.5119 32.6569 23.0484 32.3912 22.5881L32.391 22.5877L32.39 22.586L32.3896 22.5852C32.2386 22.3236 32.0882 22.063 31.9393 21.8034C32.7394 20.9135 32.8924 20.0393 32.4163 19.1775ZM31.5842 21.1852L30.2291 18.8497H30.2306C30.9597 18.7178 31.5061 18.9355 31.8183 19.4679C32.1306 20.0003 32.065 20.6083 31.5842 21.1852ZM33.9351 18.5108L33.9351 18.5108L33.9351 18.5108C33.9759 18.5429 34.0204 18.5778 34.0648 18.6186C34.1583 18.5572 34.2509 18.4972 34.3426 18.4377L34.3426 18.4377C34.6392 18.2455 34.9259 18.0597 35.199 17.8552C35.249 17.8185 35.224 17.5898 35.1576 17.5125C35.0913 17.4352 34.9024 17.3736 34.8197 17.4141C34.4812 17.5783 34.1558 17.768 33.8462 17.9816C33.7705 18.0339 33.7315 18.2213 33.762 18.3227C33.7824 18.391 33.851 18.4448 33.9351 18.5108ZM34.9181 20.9919C34.8214 20.969 34.7195 20.9448 34.6113 20.9158C34.5904 20.9336 34.5611 20.9529 34.5295 20.9737C34.4487 21.027 34.3527 21.0903 34.3443 21.1632C34.3303 21.2928 34.4185 21.5114 34.5246 21.5613C34.7823 21.6806 35.0584 21.755 35.3411 21.7815C35.4645 21.7893 35.6799 21.662 35.7111 21.5551C35.7424 21.4482 35.619 21.2234 35.5082 21.1718C35.3318 21.0899 35.1388 21.0441 34.9181 20.9919Z" fill="#7C2BFF"/>
</g>
<g filter="url(#filter3_d_4203_12370)">
<path fill-rule="evenodd" clip-rule="evenodd" d="M32.1917 15.6765L32.1917 15.6767C32.1284 15.9148 32.0721 16.1268 31.9838 16.3245C31.9401 16.422 31.7176 16.5204 31.6154 16.4892C31.5524 16.4563 31.4989 16.408 31.4599 16.3487C31.4208 16.2894 31.3975 16.2212 31.3921 16.1504C31.4275 15.8559 31.5051 15.568 31.6224 15.2956C31.6653 15.1949 31.8675 15.0982 31.983 15.1122C32.064 15.1221 32.1323 15.2028 32.1963 15.2785L32.1963 15.2785L32.1963 15.2785C32.2236 15.3108 32.2502 15.3422 32.2765 15.3667C32.2452 15.475 32.2179 15.578 32.1917 15.6765ZM32.4163 19.1775C31.9401 18.3158 31.1221 18.0035 29.8942 18.2151C29.8739 18.2006 29.8557 18.1832 29.8404 18.1635C29.6531 17.8431 29.4676 17.5223 29.2821 17.2017L29.2818 17.2012C29.0771 16.8472 28.8724 16.4933 28.6656 16.1403C28.0364 15.0654 26.821 15.0256 26.1474 16.0692C24.5978 18.4886 22.5573 20.5555 20.158 22.1359C19.8465 22.3412 19.7724 22.5333 19.9714 22.8689C20.5043 23.7669 21.0238 24.6729 21.5433 25.5788L21.5434 25.5789C21.6768 25.8116 21.8103 26.0444 21.9439 26.2769C22.0712 26.4908 22.2148 26.7133 22.4904 26.5556C22.7659 26.3979 22.6558 26.1614 22.5317 25.9468C21.965 24.9679 21.3996 23.9888 20.8355 23.0094C20.7923 22.9334 20.7522 22.8554 20.7114 22.7761L20.7114 22.7761L20.7114 22.7761C20.6882 22.7309 20.6647 22.6853 20.6404 22.6394C20.6749 22.6138 20.7061 22.5903 20.735 22.5685L20.735 22.5685L20.735 22.5685L20.7351 22.5685C20.7898 22.5273 20.8368 22.492 20.8847 22.4583C23.1837 20.8723 25.1467 18.8478 26.661 16.5009C27.1216 15.789 27.6992 15.8038 28.1231 16.536C29.5942 19.0776 31.0635 21.6205 32.531 24.1647C32.9455 24.8836 32.6856 25.4003 31.8683 25.4456C29.2495 25.5877 26.7063 26.1185 24.3318 27.241C23.2963 27.7301 22.2991 28.3004 21.302 28.8706C20.8544 29.1265 20.4068 29.3825 19.9558 29.6311C19.2556 30.0175 18.6319 29.8551 18.2276 29.1667C17.6947 28.2591 17.1681 27.3484 16.6477 26.4346C16.2465 25.7321 16.4252 25.0951 17.1277 24.6814C17.689 24.3512 18.2536 24.0277 18.8184 23.7041L18.9504 23.6284C19.1541 23.5137 19.2923 23.3575 19.1604 23.1234C19.0285 22.8892 18.8263 22.9259 18.6218 23.0453C18.4014 23.1733 18.1799 23.2999 17.9584 23.4265L17.9583 23.4266L17.9582 23.4266L17.9581 23.4267L17.9581 23.4267C17.5248 23.6744 17.0915 23.922 16.6664 24.1803C15.7836 24.7205 15.5072 25.7516 16.0115 26.6594C16.561 27.6445 17.1301 28.6249 17.7085 29.596C18.105 30.2603 18.7154 30.5663 19.4835 30.4882C19.6581 30.4716 19.8302 30.4159 20.0107 30.3574L20.0107 30.3574L20.0107 30.3574C20.1022 30.3278 20.1959 30.2974 20.293 30.2712C20.3196 30.3148 20.3486 30.3596 20.3784 30.4056C20.4211 30.4716 20.4655 30.5402 20.5069 30.6115C20.7459 31.0242 20.9841 31.4374 21.2222 31.8505C21.5813 32.4735 21.9404 33.0965 22.3022 33.7175C22.698 34.3927 23.267 34.5433 23.9547 34.1585L23.9733 34.148L23.9734 34.148C24.171 34.0367 24.369 33.9252 24.5605 33.8041C25.1108 33.4568 25.2763 32.8861 24.964 32.321C24.6886 31.8244 24.4026 31.3323 24.1168 30.8406L24.1167 30.8406L24.1167 30.8405L24.1166 30.8404C23.9254 30.5114 23.7342 30.1826 23.5465 29.8528C23.4271 29.6444 23.2702 29.521 23.0368 29.6592C22.8034 29.7974 22.8557 30.0003 22.9728 30.2009C23.2333 30.6478 23.4915 31.0958 23.7496 31.5435C23.8549 31.7263 23.9602 31.909 24.0656 32.0915C24.3376 32.5618 24.473 32.796 24.4225 32.9787C24.3723 33.1599 24.1393 33.2904 23.6753 33.5504C23.2514 33.7877 23.0969 33.751 22.8557 33.3373C22.4248 32.5958 21.9952 31.8534 21.5669 31.1103C21.4094 30.8358 21.2529 30.5609 21.0916 30.2775L21.0916 30.2774L20.8644 29.8786C21.1741 29.7023 21.4782 29.524 21.78 29.347C22.4353 28.9628 23.0794 28.5851 23.7448 28.2495C26.2928 26.9614 29.088 26.2364 31.9409 26.1239C32.3468 26.1068 32.7082 25.9936 32.9986 25.7001C33.4615 25.2271 33.5356 24.5963 33.1883 23.9781C32.9243 23.5119 32.6569 23.0484 32.3912 22.5881L32.391 22.5877L32.39 22.586L32.3896 22.5852C32.2386 22.3236 32.0882 22.063 31.9393 21.8034C32.7394 20.9135 32.8924 20.0393 32.4163 19.1775ZM31.5842 21.1852L30.2291 18.8497H30.2306C30.9597 18.7178 31.5061 18.9355 31.8183 19.4679C32.1306 20.0003 32.065 20.6083 31.5842 21.1852ZM33.9351 18.5108L33.9351 18.5108L33.9351 18.5108C33.9759 18.5429 34.0204 18.5778 34.0648 18.6186C34.1583 18.5572 34.2509 18.4972 34.3426 18.4377L34.3426 18.4377C34.6392 18.2455 34.9259 18.0597 35.199 17.8552C35.249 17.8185 35.224 17.5898 35.1576 17.5125C35.0913 17.4352 34.9024 17.3736 34.8197 17.4141C34.4812 17.5783 34.1558 17.768 33.8462 17.9816C33.7705 18.0339 33.7315 18.2213 33.762 18.3227C33.7824 18.391 33.851 18.4448 33.9351 18.5108ZM34.9181 20.9919C34.8214 20.969 34.7195 20.9448 34.6113 20.9158C34.5904 20.9336 34.5611 20.9529 34.5295 20.9737C34.4487 21.027 34.3527 21.0903 34.3443 21.1632C34.3303 21.2928 34.4185 21.5114 34.5246 21.5613C34.7823 21.6806 35.0584 21.755 35.3411 21.7815C35.4645 21.7893 35.6799 21.662 35.7111 21.5551C35.7424 21.4482 35.619 21.2234 35.5082 21.1718C35.3318 21.0899 35.1388 21.0441 34.9181 20.9919Z" fill="white"/>
</g>
<defs>
<filter id="filter0_f_4203_12370" x="0.760986" y="0.11084" width="49.9551" height="49.2556" filterUnits="userSpaceOnUse" color-interpolation-filters="sRGB">
<feFlood flood-opacity="0" result="BackgroundImageFix"/>
<feBlend mode="normal" in="SourceGraphic" in2="BackgroundImageFix" result="shape"/>
<feGaussianBlur stdDeviation="7.5" result="effect1_foregroundBlur_4203_12370"/>
</filter>
<filter id="filter1_f_4203_12370" x="5.76099" y="5.11084" width="39.9551" height="39.2556" filterUnits="userSpaceOnUse" color-interpolation-filters="sRGB">
<feFlood flood-opacity="0" result="BackgroundImageFix"/>
<feBlend mode="normal" in="SourceGraphic" in2="BackgroundImageFix" result="shape"/>
<feGaussianBlur stdDeviation="5" result="effect1_foregroundBlur_4203_12370"/>
</filter>
<filter id="filter2_f_4203_12370" x="10.761" y="10.1108" width="29.9551" height="29.2556" filterUnits="userSpaceOnUse" color-interpolation-filters="sRGB">
<feFlood flood-opacity="0" result="BackgroundImageFix"/>
<feBlend mode="normal" in="SourceGraphic" in2="BackgroundImageFix" result="shape"/>
<feGaussianBlur stdDeviation="2.5" result="effect1_foregroundBlur_4203_12370"/>
</filter>
<filter id="filter3_d_4203_12370" x="11.761" y="15.1108" width="27.9551" height="27.2556" filterUnits="userSpaceOnUse" color-interpolation-filters="sRGB">
<feFlood flood-opacity="0" result="BackgroundImageFix"/>
<feColorMatrix in="SourceAlpha" type="matrix" values="0 0 0 0 0 0 0 0 0 0 0 0 0 0 0 0 0 0 127 0" result="hardAlpha"/>
<feOffset dy="4"/>
<feGaussianBlur stdDeviation="2"/>
<feComposite in2="hardAlpha" operator="out"/>
<feColorMatrix type="matrix" values="0 0 0 0 0 0 0 0 0 0 0 0 0 0 0 0 0 0 0.75 0"/>
<feBlend mode="normal" in2="BackgroundImageFix" result="effect1_dropShadow_4203_12370"/>
<feBlend mode="normal" in="SourceGraphic" in2="effect1_dropShadow_4203_12370" result="shape"/>
</filter>
</defs>
</svg>
