<svg width="46" height="40" viewBox="0 0 46 40" fill="none" xmlns="http://www.w3.org/2000/svg">
<path d="M40.7721 7.06626L45.3755 5.77964L45.6009 6.01022C44.3317 7.32682 43.1211 8.69646 41.7685 9.93006C41.1869 10.4696 40.9344 10.9492 40.9367 11.7609C40.9682 24.0069 33.2381 34.9478 22.0746 38.2474C14.3805 40.5232 6.99973 39.5917 0.0585938 35.4067C2.38959 35.0816 4.71834 34.9017 6.9772 34.4014C9.29241 33.8872 11.3844 32.7435 13.4246 31.0857C11.3303 30.8551 9.54264 30.2694 8.01419 29.0404C6.46874 27.8515 5.3308 26.1929 4.76342 24.302H8.41322C4.16377 22.4989 1.7381 19.4599 1.42474 14.6869L5.14216 15.7337L5.34054 15.5031C1.56676 11.8969 0.326858 7.78798 2.7886 2.74983C7.95331 8.84403 14.2858 12.2981 22.176 12.8215C22.176 11.5118 22.0227 10.2851 22.2053 9.10458C22.7779 5.41532 24.8519 2.84437 28.2515 1.56697C31.651 0.289559 34.859 0.893678 37.6363 3.29861C38.3126 3.88198 38.8627 4.03647 39.6359 3.7321C41.1621 3.13029 42.6973 2.54923 44.3024 1.93128C43.7095 4.07336 42.3208 5.57211 40.7721 7.06626Z" fill="white"/>
</svg>
