<svg width="20" height="17" viewBox="0 0 20 17" fill="none" xmlns="http://www.w3.org/2000/svg">
<path fill-rule="evenodd" clip-rule="evenodd" d="M9.49475 4.28677L9.53672 4.97881L8.83724 4.89407C6.29114 4.56924 4.06679 3.46761 2.1782 1.61745L1.25489 0.699432L1.01706 1.37735C0.513438 2.88855 0.835198 4.4845 1.88442 5.55787C2.444 6.15105 2.31809 6.23579 1.35281 5.88271C1.01706 5.76972 0.723281 5.68498 0.695302 5.72735C0.597375 5.82622 0.933125 7.11144 1.19893 7.61988C1.56266 8.32605 2.3041 9.0181 3.1155 9.42768L3.80099 9.75251L2.98959 9.76664C2.20618 9.76664 2.1782 9.78076 2.26214 10.0774C2.54193 10.9954 3.64711 11.9699 4.87819 12.3936L5.74554 12.6902L4.99011 13.1421C3.87094 13.7918 2.55592 14.159 1.2409 14.1873C0.611365 14.2014 0.09375 14.2579 0.09375 14.3002C0.09375 14.4415 1.80048 15.2324 2.79374 15.5431C5.77352 16.4611 9.31289 16.0657 11.9709 14.498C13.8595 13.3822 15.7481 11.1648 16.6294 9.0181C17.1051 7.8741 17.5807 5.78385 17.5807 4.78109C17.5807 4.13141 17.6227 4.04667 18.4061 3.26989C18.8678 2.81794 19.3015 2.32362 19.3854 2.18239C19.5253 1.91404 19.5113 1.91404 18.7978 2.15414C17.6087 2.57784 17.4408 2.52135 18.0284 1.8858C18.4621 1.43385 18.9797 0.614692 18.9797 0.374595C18.9797 0.332225 18.7698 0.402841 18.532 0.529952C18.2802 0.671185 17.7206 0.883036 17.3009 1.01015L16.5455 1.25024L15.86 0.784172C15.4823 0.529952 14.9507 0.247484 14.6709 0.162744C13.9574 -0.0349831 12.8662 -0.00673634 12.2227 0.219238C10.474 0.854789 9.36885 2.4931 9.49475 4.28677Z" fill="#7C2BFF"/>
</svg>
