<svg width="51" height="47" viewBox="0 0 51 47" fill="none" xmlns="http://www.w3.org/2000/svg">
<g filter="url(#filter0_f_4203_12371)">
<path fill-rule="evenodd" clip-rule="evenodd" d="M27.5965 15.8553L27.4158 17.0451C27.291 17.8674 27.1655 18.6944 27.0393 19.5196L25.4291 30.0552C25.3275 30.7226 25.0355 31.057 24.5633 30.9996C24.0589 30.9421 23.8299 30.5534 23.9337 29.8695C24.439 26.5247 24.9485 23.1804 25.4621 19.8367C25.6589 18.546 25.8564 17.2551 26.0547 15.9639C26.0717 15.8341 26.098 15.7058 26.1334 15.5798C26.1819 15.4013 26.2955 15.2474 26.4518 15.1485C26.6081 15.0496 26.7958 15.0128 26.9779 15.0454C27.1617 15.0823 27.3259 15.1848 27.4398 15.3338C27.5536 15.4828 27.6093 15.6682 27.5965 15.8553ZM33.987 23.0132C32.6491 21.5966 31.3411 20.2091 30.0331 18.82C29.9304 18.72 29.8368 18.611 29.7537 18.4942C29.6616 18.3495 29.6222 18.1775 29.6421 18.0071C29.6621 17.8368 29.7402 17.6785 29.8632 17.559C29.9863 17.4396 30.1468 17.3662 30.3177 17.3513C30.4886 17.3365 30.6594 17.381 30.8012 17.4774C30.916 17.5644 31.0215 17.663 31.116 17.7717C32.5437 19.2812 33.97 20.7922 35.395 22.3049C35.9286 22.8715 35.927 23.1706 35.3863 23.7404C33.9618 25.253 32.5358 26.7643 31.1082 28.2743C31.0304 28.3622 30.9462 28.4443 30.8563 28.5198C30.7155 28.6367 30.5367 28.6978 30.3539 28.6915C30.171 28.6853 29.9968 28.6121 29.8643 28.4859C29.7318 28.3597 29.6502 28.1893 29.6351 28.007C29.6199 27.8246 29.6722 27.6431 29.7821 27.4967C29.8798 27.374 29.985 27.2573 30.0969 27.1473L33.7029 23.328C33.7692 23.2574 33.8351 23.1835 33.9139 23.0951L33.987 23.0132ZM21.4516 27.2228C20.1428 25.8337 18.8333 24.4446 17.4954 23.028C17.52 22.9997 17.5426 22.9732 17.564 22.9482C17.6205 22.8822 17.6682 22.8263 17.7212 22.7738C18.9799 21.4459 20.2349 20.1143 21.4863 18.779C21.6169 18.6397 21.7538 18.4768 21.8066 18.2997C21.9081 17.9542 21.7861 17.6496 21.4737 17.4576C21.1612 17.2656 20.7882 17.3309 20.486 17.6496C18.9749 19.2425 17.4686 20.8396 15.967 22.4409C15.5829 22.8462 15.5916 23.2051 15.9764 23.6151C17.4728 25.2038 18.9702 26.7915 20.4687 28.3781C20.5298 28.4463 20.5978 28.5081 20.6717 28.5622C20.8145 28.6563 20.9848 28.6996 21.1552 28.6853C21.3255 28.6711 21.4862 28.6 21.6114 28.4835C21.7342 28.3645 21.8128 28.2073 21.8343 28.0376C21.8558 27.8679 21.8188 27.696 21.7294 27.5502C21.6471 27.4327 21.5541 27.3231 21.4516 27.2228Z" fill="#7C2BFF"/>
</g>
<g filter="url(#filter1_f_4203_12371)">
<path fill-rule="evenodd" clip-rule="evenodd" d="M27.5965 15.8554L27.4158 17.0452C27.291 17.8675 27.1655 18.6945 27.0393 19.5197L25.4291 30.0553C25.3275 30.7227 25.0355 31.0571 24.5633 30.9997C24.0589 30.9422 23.8299 30.5535 23.9337 29.8696C24.439 26.5248 24.9485 23.1805 25.4621 19.8368C25.6589 18.5461 25.8564 17.2552 26.0547 15.964C26.0717 15.8342 26.098 15.7059 26.1334 15.5799C26.1819 15.4014 26.2955 15.2475 26.4518 15.1486C26.6081 15.0497 26.7958 15.0129 26.9779 15.0455C27.1617 15.0824 27.3259 15.1849 27.4398 15.3339C27.5536 15.4829 27.6093 15.6683 27.5965 15.8554ZM33.987 23.0133C32.6491 21.5967 31.3411 20.2092 30.0331 18.8201C29.9304 18.7201 29.8368 18.6111 29.7537 18.4943C29.6616 18.3496 29.6222 18.1776 29.6421 18.0072C29.6621 17.8369 29.7402 17.6786 29.8632 17.5591C29.9863 17.4397 30.1468 17.3663 30.3177 17.3514C30.4886 17.3366 30.6594 17.3811 30.8012 17.4775C30.916 17.5645 31.0215 17.6631 31.116 17.7718C32.5437 19.2813 33.97 20.7923 35.395 22.305C35.9286 22.8716 35.927 23.1707 35.3863 23.7405C33.9618 25.2531 32.5358 26.7644 31.1082 28.2744C31.0304 28.3623 30.9462 28.4444 30.8563 28.5199C30.7155 28.6368 30.5367 28.6979 30.3539 28.6916C30.171 28.6854 29.9968 28.6122 29.8643 28.486C29.7318 28.3598 29.6502 28.1894 29.6351 28.0071C29.6199 27.8247 29.6722 27.6432 29.7821 27.4968C29.8798 27.3741 29.985 27.2574 30.0969 27.1474L33.7029 23.3281C33.7692 23.2575 33.8351 23.1836 33.9139 23.0952L33.987 23.0133ZM21.4516 27.2229C20.1428 25.8338 18.8333 24.4447 17.4954 23.0281C17.52 22.9998 17.5426 22.9733 17.564 22.9483C17.6205 22.8823 17.6682 22.8264 17.7212 22.7739C18.9799 21.446 20.2349 20.1144 21.4863 18.7791C21.6169 18.6398 21.7538 18.4769 21.8066 18.2998C21.9081 17.9543 21.7861 17.6497 21.4737 17.4577C21.1612 17.2657 20.7882 17.331 20.486 17.6497C18.9749 19.2426 17.4686 20.8397 15.967 22.441C15.5829 22.8463 15.5916 23.2052 15.9764 23.6152C17.4728 25.2039 18.9702 26.7916 20.4687 28.3782C20.5298 28.4464 20.5978 28.5082 20.6717 28.5623C20.8145 28.6564 20.9848 28.6997 21.1552 28.6854C21.3255 28.6712 21.4862 28.6001 21.6114 28.4836C21.7342 28.3646 21.8128 28.2074 21.8343 28.0377C21.8558 27.868 21.8188 27.6961 21.7294 27.5503C21.6471 27.4328 21.5541 27.3232 21.4516 27.2229Z" fill="#7C2BFF"/>
</g>
<g filter="url(#filter2_f_4203_12371)">
<path fill-rule="evenodd" clip-rule="evenodd" d="M27.5965 15.8554L27.4158 17.0452C27.291 17.8675 27.1655 18.6945 27.0393 19.5197L25.4291 30.0553C25.3275 30.7227 25.0355 31.0571 24.5633 30.9997C24.0589 30.9422 23.8299 30.5535 23.9337 29.8696C24.439 26.5248 24.9485 23.1805 25.4621 19.8368C25.6589 18.5461 25.8564 17.2552 26.0547 15.964C26.0717 15.8342 26.098 15.7059 26.1334 15.5799C26.1819 15.4014 26.2955 15.2475 26.4518 15.1486C26.6081 15.0497 26.7958 15.0129 26.9779 15.0455C27.1617 15.0824 27.3259 15.1849 27.4398 15.3339C27.5536 15.4829 27.6093 15.6683 27.5965 15.8554ZM33.987 23.0133C32.6491 21.5967 31.3411 20.2092 30.0331 18.8201C29.9304 18.7201 29.8368 18.6111 29.7537 18.4943C29.6616 18.3496 29.6222 18.1776 29.6421 18.0072C29.6621 17.8369 29.7402 17.6786 29.8632 17.5591C29.9863 17.4397 30.1468 17.3663 30.3177 17.3514C30.4886 17.3366 30.6594 17.3811 30.8012 17.4775C30.916 17.5645 31.0215 17.6631 31.116 17.7718C32.5437 19.2813 33.97 20.7923 35.395 22.305C35.9286 22.8716 35.927 23.1707 35.3863 23.7405C33.9618 25.2531 32.5358 26.7644 31.1082 28.2744C31.0304 28.3623 30.9462 28.4444 30.8563 28.5199C30.7155 28.6368 30.5367 28.6979 30.3539 28.6916C30.171 28.6854 29.9968 28.6122 29.8643 28.486C29.7318 28.3598 29.6502 28.1894 29.6351 28.0071C29.6199 27.8247 29.6722 27.6432 29.7821 27.4968C29.8798 27.3741 29.985 27.2574 30.0969 27.1474L33.7029 23.3281C33.7692 23.2575 33.8351 23.1836 33.9139 23.0952L33.987 23.0133ZM21.4516 27.2229C20.1428 25.8338 18.8333 24.4447 17.4954 23.0281C17.52 22.9998 17.5426 22.9733 17.564 22.9483C17.6205 22.8823 17.6682 22.8264 17.7212 22.7739C18.9799 21.446 20.2349 20.1144 21.4863 18.7791C21.6169 18.6398 21.7538 18.4769 21.8066 18.2998C21.9081 17.9543 21.7861 17.6497 21.4737 17.4577C21.1612 17.2657 20.7882 17.331 20.486 17.6497C18.9749 19.2426 17.4686 20.8397 15.967 22.441C15.5829 22.8463 15.5916 23.2052 15.9764 23.6152C17.4728 25.2039 18.9702 26.7916 20.4687 28.3782C20.5298 28.4464 20.5978 28.5082 20.6717 28.5623C20.8145 28.6564 20.9848 28.6997 21.1552 28.6854C21.3255 28.6712 21.4862 28.6001 21.6114 28.4836C21.7342 28.3646 21.8128 28.2074 21.8343 28.0377C21.8558 27.868 21.8188 27.6961 21.7294 27.5503C21.6471 27.4328 21.5541 27.3232 21.4516 27.2229Z" fill="#7C2BFF"/>
</g>
<g filter="url(#filter3_d_4203_12371)">
<path fill-rule="evenodd" clip-rule="evenodd" d="M27.5965 15.8553L27.4158 17.0451C27.291 17.8674 27.1655 18.6944 27.0393 19.5196L25.4291 30.0552C25.3275 30.7226 25.0355 31.057 24.5633 30.9996C24.0589 30.9421 23.8299 30.5534 23.9337 29.8695C24.439 26.5247 24.9485 23.1804 25.4621 19.8367C25.6589 18.546 25.8564 17.2551 26.0547 15.9639C26.0717 15.8341 26.098 15.7058 26.1334 15.5798C26.1819 15.4013 26.2955 15.2474 26.4518 15.1485C26.6081 15.0496 26.7958 15.0128 26.9779 15.0454C27.1617 15.0823 27.3259 15.1848 27.4398 15.3338C27.5536 15.4828 27.6093 15.6682 27.5965 15.8553ZM33.987 23.0132C32.6491 21.5966 31.3411 20.2091 30.0331 18.82C29.9304 18.72 29.8368 18.611 29.7537 18.4942C29.6616 18.3495 29.6222 18.1775 29.6421 18.0071C29.6621 17.8368 29.7402 17.6785 29.8632 17.559C29.9863 17.4396 30.1468 17.3662 30.3177 17.3513C30.4886 17.3365 30.6594 17.381 30.8012 17.4774C30.916 17.5644 31.0215 17.663 31.116 17.7717C32.5437 19.2812 33.97 20.7922 35.395 22.3049C35.9286 22.8715 35.927 23.1706 35.3863 23.7404C33.9618 25.253 32.5358 26.7643 31.1082 28.2743C31.0304 28.3622 30.9462 28.4443 30.8563 28.5198C30.7155 28.6367 30.5367 28.6978 30.3539 28.6915C30.171 28.6853 29.9968 28.6121 29.8643 28.4859C29.7318 28.3597 29.6502 28.1893 29.6351 28.007C29.6199 27.8246 29.6722 27.6431 29.7821 27.4967C29.8798 27.374 29.985 27.2573 30.0969 27.1473L33.7029 23.328C33.7692 23.2574 33.8351 23.1835 33.9139 23.0951L33.987 23.0132ZM21.4516 27.2228C20.1428 25.8337 18.8333 24.4446 17.4954 23.028C17.52 22.9997 17.5426 22.9732 17.564 22.9482C17.6205 22.8822 17.6682 22.8263 17.7212 22.7738C18.9799 21.4459 20.2349 20.1143 21.4863 18.779C21.6169 18.6397 21.7538 18.4768 21.8066 18.2997C21.9081 17.9542 21.7861 17.6496 21.4737 17.4576C21.1612 17.2656 20.7882 17.3309 20.486 17.6496C18.9749 19.2425 17.4686 20.8396 15.967 22.4409C15.5829 22.8462 15.5916 23.2051 15.9764 23.6151C17.4728 25.2038 18.9702 26.7915 20.4687 28.3781C20.5298 28.4463 20.5978 28.5081 20.6717 28.5622C20.8145 28.6563 20.9848 28.6996 21.1552 28.6853C21.3255 28.6711 21.4862 28.6 21.6114 28.4835C21.7342 28.3645 21.8128 28.2073 21.8343 28.0376C21.8558 27.8679 21.8188 27.696 21.7294 27.5502C21.6471 27.4327 21.5541 27.3231 21.4516 27.2228Z" fill="white"/>
</g>
<defs>
<filter id="filter0_f_4203_12371" x="0.68335" y="0.0339355" width="50.1101" height="45.9719" filterUnits="userSpaceOnUse" color-interpolation-filters="sRGB">
<feFlood flood-opacity="0" result="BackgroundImageFix"/>
<feBlend mode="normal" in="SourceGraphic" in2="BackgroundImageFix" result="shape"/>
<feGaussianBlur stdDeviation="7.5" result="effect1_foregroundBlur_4203_12371"/>
</filter>
<filter id="filter1_f_4203_12371" x="5.68335" y="5.03394" width="40.1101" height="35.9722" filterUnits="userSpaceOnUse" color-interpolation-filters="sRGB">
<feFlood flood-opacity="0" result="BackgroundImageFix"/>
<feBlend mode="normal" in="SourceGraphic" in2="BackgroundImageFix" result="shape"/>
<feGaussianBlur stdDeviation="5" result="effect1_foregroundBlur_4203_12371"/>
</filter>
<filter id="filter2_f_4203_12371" x="10.6833" y="10.0339" width="30.1101" height="25.9722" filterUnits="userSpaceOnUse" color-interpolation-filters="sRGB">
<feFlood flood-opacity="0" result="BackgroundImageFix"/>
<feBlend mode="normal" in="SourceGraphic" in2="BackgroundImageFix" result="shape"/>
<feGaussianBlur stdDeviation="2.5" result="effect1_foregroundBlur_4203_12371"/>
</filter>
<filter id="filter3_d_4203_12371" x="11.6833" y="15.0339" width="28.1101" height="23.9719" filterUnits="userSpaceOnUse" color-interpolation-filters="sRGB">
<feFlood flood-opacity="0" result="BackgroundImageFix"/>
<feColorMatrix in="SourceAlpha" type="matrix" values="0 0 0 0 0 0 0 0 0 0 0 0 0 0 0 0 0 0 127 0" result="hardAlpha"/>
<feOffset dy="4"/>
<feGaussianBlur stdDeviation="2"/>
<feComposite in2="hardAlpha" operator="out"/>
<feColorMatrix type="matrix" values="0 0 0 0 0 0 0 0 0 0 0 0 0 0 0 0 0 0 0.75 0"/>
<feBlend mode="normal" in2="BackgroundImageFix" result="effect1_dropShadow_4203_12371"/>
<feBlend mode="normal" in="SourceGraphic" in2="effect1_dropShadow_4203_12371" result="shape"/>
</filter>
</defs>
</svg>
