<svg width="23" height="17" viewBox="0 0 23 17" fill="none" xmlns="http://www.w3.org/2000/svg">
<path fill-rule="evenodd" clip-rule="evenodd" d="M22.3543 2.52897C22.0983 1.54549 21.3439 0.771034 20.3861 0.508195C18.6502 0.0305176 11.689 0.0305176 11.689 0.0305176C11.689 0.0305176 4.72783 0.0305176 2.99186 0.508195C2.03401 0.771034 1.27967 1.54549 1.02367 2.52897C0.558594 4.31142 0.558594 8.03052 0.558594 8.03052C0.558594 8.03052 0.558594 11.7495 1.02367 13.5321C1.27967 14.5156 2.03401 15.29 2.99186 15.553C4.72783 16.0305 11.689 16.0305 11.689 16.0305C11.689 16.0305 18.6502 16.0305 20.3861 15.553C21.3439 15.29 22.0983 14.5156 22.3543 13.5321C22.8195 11.7495 22.8195 8.03052 22.8195 8.03052C22.8195 8.03052 22.8195 4.31142 22.3543 2.52897Z" fill="#7C2BFF"/>
<path fill-rule="evenodd" clip-rule="evenodd" d="M9.60156 11.8567V4.90015L15.1668 8.37854L9.60156 11.8567Z" fill="#1B1B1B"/>
</svg>
