<svg width="104" height="15" fill="none" xmlns="http://www.w3.org/2000/svg"><g clip-path="url(#clip0_163_99)" fill="#FCF1EA"><path d="M72.662 2.762l.002.007c0 .008.002.016.004.023l.002.007a.296.296 0 00.009.025v.003l.014.027v.001l6.384 11.155a.057.057 0 00.004.006l.008.012.006.01.008.009.009.01.007.007.01.01a.179.179 0 01.008.006l.01.007.009.007a.377.377 0 01.01.006l.011.006.009.004a.205.205 0 00.013.006l.008.003a.167.167 0 00.023.006l.014.003.01.002a.222.222 0 00.026.002h.007l1.822-.014h.003a.3.3 0 00.025-.002h.006a.237.237 0 00.055-.016l.006-.003a.204.204 0 00.022-.01l.004-.003a.253.253 0 00.046-.037l.005-.005a.178.178 0 00.02-.023.244.244 0 00.015-.024v-.001l6.27-11.25a.25.25 0 00-.002-.246L86.661.899V.898a.207.207 0 00-.036-.047L86.62.846a.233.233 0 00-.018-.016l-.005-.003a.225.225 0 00-.05-.03h-.003a.235.235 0 00-.092-.019h-.001L73.799.874a.24.24 0 00-.208.124l-.899 1.613-.001.001a.255.255 0 00-.022.055l-.001.007a.23.23 0 00-.005.022v.008a.232.232 0 00-.003.028v.001l.002.03zm13.795-1.247l.64 1.11-5.994 10.757-5.092-8.823 1.264-.01 3.6 6.237.001.003a.107.107 0 00.008.013.089.089 0 00.005.007l.01.011.006.008.008.008.01.01.006.005a.258.258 0 00.012.01l.007.004a.186.186 0 00.014.01h.002l.005.004.014.006a.123.123 0 00.01.005l.01.004.013.004.01.002a.226.226 0 00.07.007l.011-.001a.167.167 0 00.023-.004l.013-.002a.31.31 0 00.021-.007l.012-.005a.404.404 0 00.023-.011l.006-.003.002-.002a.374.374 0 00.014-.009l.006-.004a.193.193 0 00.012-.01l.007-.006a.802.802 0 01.009-.01l.007-.008a.101.101 0 00.007-.008l.009-.01.005-.008.008-.014.001-.002 5.165-9.268zm-8.625 3.03l4.587-.034-2.263 4.061-2.324-4.026zm-3.89-3.181l12.096-.092-4.959 8.899-.64-1.11 3.505-6.29a.249.249 0 00.031-.123.244.244 0 00-.243-.244l-1.596.012a.243.243 0 00-.24.248c.001.135.11.244.243.243l1.179-.008-.624 1.119-5.283.04h-.001l-1.681.012-.64-1.11 6.085-.045a.243.243 0 00.24-.248.244.244 0 00-.243-.243l-6.504.049-1.35.01.624-1.12zm.59 1.6l6.155 10.666-1.263.01L73.32 2.974l1.211-.01zM1.518.99H4.18v13.083H1.518V.99zm6.051 0h2.646l4.74 4.77L19.698.99h2.645v13.083h-2.645V4.664l-4.741 4.579-4.741-4.579v9.409H7.569V.99zm18.487 0h6.878c1.002 0 1.87.108 2.604.326.735.218 1.344.533 1.828.946.484.407.843.907 1.077 1.498.239.592.359 1.259.359 2 0 .698-.117 1.343-.35 1.934a4.053 4.053 0 01-1.078 1.54c-.478.43-1.085.768-1.82 1.013-.734.24-1.602.36-2.603.36l-4.249-.008v3.474h-2.646V.99zm6.945 7.315c.5 0 .937-.058 1.31-.175.379-.123.693-.293.943-.511a2.04 2.04 0 00.568-.804 2.8 2.8 0 00.192-1.054c0-.776-.253-1.379-.76-1.808-.5-.436-1.252-.653-2.253-.653h-4.299v5.005h4.299zM41.698.99h6.635c1.002 0 1.87.106 2.604.318.735.206 1.344.507 1.828.904a3.63 3.63 0 011.077 1.448c.24.569.359 1.213.359 1.933a5.4 5.4 0 01-.175 1.39 4.07 4.07 0 01-.543 1.205c-.24.368-.542.698-.91.988a5.037 5.037 0 01-1.294.711l2.838 4.186H50.88l-2.454-3.717h-.075l-4.007-.008v3.725h-2.645V.99zM48.4 8.054c.5 0 .938-.058 1.31-.176.379-.117.693-.281.944-.493.255-.212.445-.47.567-.77a2.63 2.63 0 00.192-1.022c0-.73-.25-1.294-.751-1.69C50.161 3.5 49.407 3.3 48.4 3.3h-4.056v4.754H48.4zm8.171-.56c0-.988.181-1.892.543-2.713a6.124 6.124 0 011.519-2.109c.656-.592 1.44-1.05 2.353-1.373.919-.323 1.934-.485 3.047-.485 1.107 0 2.12.162 3.038.485.918.324 1.703.781 2.354 1.373a6.075 6.075 0 011.527 2.11c.362.82.543 1.724.543 2.711 0 .994-.181 1.906-.543 2.738a6.223 6.223 0 01-1.527 2.134c-.651.597-1.436 1.063-2.354 1.398-.918.33-1.93.494-3.038.494-1.113 0-2.128-.165-3.047-.494-.912-.335-1.697-.8-2.353-1.398a6.275 6.275 0 01-1.52-2.134c-.361-.832-.542-1.744-.542-2.738zm2.646 0c0 .675.12 1.283.359 1.824a4.134 4.134 0 001.01 1.39c.434.38.943.672 1.527.879.59.206 1.23.31 1.92.31a5.7 5.7 0 001.911-.31c.59-.207 1.1-.5 1.528-.88a4.14 4.14 0 001.01-1.389c.244-.541.367-1.15.367-1.825s-.123-1.28-.367-1.816a3.903 3.903 0 00-1.01-1.356 4.393 4.393 0 00-1.528-.854 5.997 5.997 0 00-1.911-.293c-.69 0-1.33.098-1.92.293a4.494 4.494 0 00-1.527.854c-.428.368-.765.82-1.01 1.356-.24.536-.359 1.141-.359 1.816zM89.71 10.18c.474.268.952.51 1.436.729.49.212.996.393 1.52.544.523.145 1.07.256 1.644.334.578.079 1.193.118 1.844.118.785 0 1.453-.05 2.004-.151.55-.106.998-.248 1.343-.427.351-.184.604-.402.76-.653.161-.251.242-.524.242-.82 0-.474-.198-.848-.593-1.122-.395-.279-1.004-.418-1.828-.418-.361 0-.742.025-1.143.075-.4.045-.807.095-1.219.15-.406.056-.81.11-1.21.16a9.99 9.99 0 01-1.118.067 6.238 6.238 0 01-1.686-.226 4.504 4.504 0 01-1.428-.678 3.378 3.378 0 01-.985-1.13c-.244-.452-.367-.98-.367-1.582 0-.358.048-.712.142-1.063.1-.352.256-.687.468-1.005.216-.324.495-.622.834-.896a4.91 4.91 0 011.227-.72c.484-.2 1.04-.357 1.67-.468a11.98 11.98 0 012.161-.176 15.6 15.6 0 011.761.1 16.752 16.752 0 013.339.695c.517.162.999.343 1.444.544l-1.16 2.143c-.367-.162-.763-.31-1.185-.443-.423-.14-.866-.26-1.328-.36-.462-.1-.94-.179-1.435-.235-.49-.061-.99-.092-1.503-.092-.729 0-1.33.053-1.802.16-.468.105-.84.242-1.119.41-.278.161-.473.345-.584.552-.106.2-.159.402-.159.602 0 .391.175.712.526.963.35.246.885.368 1.603.368.289 0 .62-.02.993-.058l1.185-.142c.417-.05.84-.095 1.269-.134.434-.045.854-.067 1.26-.067.768 0 1.447.086 2.037.26.595.172 1.093.42 1.494.744.4.318.703.706.909 1.164.206.452.309.96.309 1.523 0 .753-.175 1.426-.526 2.017-.345.586-.84 1.083-1.485 1.49-.64.402-1.414.709-2.32.921-.908.207-1.917.31-3.03.31-.735 0-1.453-.048-2.154-.143a16.16 16.16 0 01-2.02-.385 16.455 16.455 0 01-1.836-.61 13.974 13.974 0 01-1.61-.787l1.41-2.152z"/></g><defs><clipPath id="clip0_163_99"><path fill="#fff" transform="translate(0 .43)" d="M0 0h104v14H0z"/></clipPath></defs></svg>