<svg width="31" height="30" fill="none" xmlns="http://www.w3.org/2000/svg"><path d="M24.5 5h-18a2.99 2.99 0 00-2.12.886 3.038 3.038 0 00-.88 2.137v12.954c0 .802.317 1.57.88 2.137A2.992 2.992 0 006.5 24h18a2.99 2.99 0 002.12-.886 3.038 3.038 0 00.88-2.137V8.023c0-.802-.317-1.57-.88-2.137A2.992 2.992 0 0024.5 5zm-.76 5l-7.714 6.045a.854.854 0 01-1.052 0L7.26 10a.862.862 0 01-.311-.915.866.866 0 01.406-.526.853.853 0 01.957.077L15.5 14.27l7.188-5.634a.852.852 0 011.193.16.868.868 0 01-.14 1.204z" fill="url(#paint0_linear_163_77)"/><defs><linearGradient id="paint0_linear_163_77" x1="15.5" y1="5" x2="15.5" y2="24" gradientUnits="userSpaceOnUse"><stop stop-color="#D8B242"/><stop offset="1" stop-color="#FFED79"/></linearGradient></defs></svg>