<svg width="74" height="73" viewBox="0 0 74 73" fill="none" xmlns="http://www.w3.org/2000/svg">
<path d="M62.9111 47.1683C63.6407 45.776 63.2021 43.9268 61.6075 41.6721C60.2629 39.7706 58.0844 37.5929 55.2939 35.3553C55.9626 32.5323 55.8522 29.5806 54.9743 26.8155C53.6762 22.7141 50.8316 19.3392 46.965 17.3129C43.0983 15.2866 38.7044 14.868 34.5932 16.1347C31.8199 16.9862 29.3299 18.5749 27.389 20.7312C23.9595 19.7099 20.9281 19.1579 18.5986 19.1349C15.8393 19.1075 14.0701 19.7992 13.3408 21.191C12.1958 23.3758 14.0114 26.5044 17.3474 29.8053L4.26573 39.2625C3.95238 39.4883 3.73241 39.8209 3.64723 40.1976C3.56204 40.5744 3.61753 40.9692 3.80323 41.3079C3.98894 41.6466 4.29205 41.9057 4.65549 42.0364C5.01894 42.1671 5.41764 42.1605 5.77652 42.0177L23.5625 34.9705C25.631 36.4657 27.8604 37.9134 30.1158 39.2404L23.7923 57.232C23.6393 57.6739 23.6494 58.1559 23.8207 58.591C23.992 59.0262 24.3133 59.3857 24.7264 59.6046C25.1387 59.8232 25.6161 59.8858 26.0708 59.7806C26.5255 59.6755 26.927 59.4099 27.2015 59.0324L38.5124 43.6413C40.8898 44.7425 43.3535 45.7539 45.7643 46.6051L50.0904 65.2404C50.1772 65.6168 50.3986 65.9484 50.713 66.1728C51.0273 66.3973 51.4128 66.4991 51.797 66.4591C52.1812 66.419 52.5374 66.2399 52.7987 65.9555C53.06 65.6711 53.2083 65.3009 53.2157 64.9148L53.547 48.7752C58.1601 49.64 61.7664 49.3526 62.9111 47.1683ZM34.9828 17.411C38.7546 16.2492 42.79 16.6355 46.3419 18.4968C49.7974 20.276 52.4168 23.3401 53.6369 27.0304C54.8569 30.7206 54.5802 34.7422 52.8662 38.2305C48.6872 37.4842 44.6216 36.203 40.7698 34.4185L41.9 32.2618L44.8873 31.2482C45.8862 30.9067 46.7842 30.3215 47.5001 29.5457C48.216 28.7699 48.7273 27.8278 48.9876 26.8048C49.5164 24.7911 49.0296 22.6984 47.6892 21.2081C46.5619 19.9563 45.0233 19.15 43.3525 18.9354C41.3639 18.6822 39.3677 19.4737 38.0133 21.0536C37.3196 21.8492 36.8353 22.8051 36.604 23.8349C36.3727 24.8648 36.4018 25.936 36.6887 26.9518L37.5552 29.9849L36.425 32.1416C32.7653 29.9896 29.3979 27.3754 26.4058 24.3635C28.2624 21.0276 31.3349 18.537 34.9828 17.411ZM39.6216 31.604C39.5987 31.6118 39.5745 31.6148 39.5504 31.6129C39.5263 31.611 39.5028 31.6043 39.4814 31.5931C39.46 31.5819 39.4411 31.5664 39.4259 31.5477C39.4106 31.5289 39.3993 31.5073 39.3927 31.484L37.9823 26.5858C37.7557 25.783 37.7328 24.9364 37.9155 24.1225C38.0982 23.3086 38.4809 22.5531 39.0289 21.9242C40.1053 20.6684 41.6193 20.0627 43.1829 20.2622C44.5351 20.4358 45.7802 21.0884 46.6925 22.1015C47.7464 23.2735 48.1099 24.8631 47.6899 26.463C47.4846 27.2715 47.0811 28.0161 46.5159 28.6295C45.9506 29.2429 45.2414 29.7058 44.4523 29.9764L39.6216 31.604ZM40.0657 32.8799L39.5622 33.8408C39.2622 33.6926 38.8926 33.5049 38.5685 33.3351C38.2445 33.1652 37.8797 32.9682 37.5872 32.8058L38.0907 31.845L38.0991 31.8502C38.1546 32.0494 38.2493 32.2356 38.3777 32.3978C38.506 32.56 38.6654 32.6949 38.8465 32.7948C39.2113 32.9859 39.6712 32.9743 40.0267 32.9089L40.0357 32.9136L40.0657 32.8799ZM5.28371 40.7739C5.22797 40.7967 5.1658 40.7981 5.10906 40.778C5.05232 40.7579 5.00496 40.7176 4.97601 40.6648C4.94705 40.612 4.93853 40.5504 4.95205 40.4917C4.96558 40.4331 5.00021 40.3814 5.04936 40.3467L18.3325 30.744C19.5209 31.8388 20.8592 32.9441 22.2962 34.0328L5.28371 40.7739ZM26.1229 58.2397C26.0369 58.358 25.911 58.4413 25.7684 58.4743C25.6258 58.5073 25.4761 58.4877 25.3468 58.4191C25.2173 58.3505 25.1166 58.2377 25.0629 58.1013C25.0092 57.9649 25.0061 57.8138 25.0541 57.6753L31.8966 38.2082C33.1994 37.9247 34.5603 38.1083 35.7414 38.7269C36.9225 39.3454 37.8484 40.3596 38.3573 41.5919L26.1229 58.2397ZM51.8783 64.887C51.8777 64.9472 51.8549 65.005 51.8144 65.0495C51.7739 65.094 51.7184 65.1221 51.6586 65.1283C51.5987 65.1346 51.5386 65.1186 51.4898 65.0834C51.4409 65.0483 51.4067 64.9964 51.3937 64.9376L47.2549 47.1125C48.9677 47.6742 50.6381 48.1458 52.2146 48.4998L51.8783 64.887ZM54.2193 47.5407C50.0581 46.8272 44.7918 45.0577 39.3203 42.5405L39.65 42.0919C39.714 42.0049 39.7559 41.9036 39.7722 41.7968C39.7885 41.69 39.7787 41.5808 39.7436 41.4787C39.1608 39.7833 37.9514 38.3751 36.3634 37.5429C34.7755 36.7107 32.9293 36.5176 31.2035 37.0032C31.1002 37.0323 31.0054 37.0858 30.9271 37.1593C30.8488 37.2327 30.7894 37.3239 30.7538 37.4252L30.5681 37.9537C25.3897 34.8897 20.9411 31.5696 17.9866 28.5557C13.8725 24.359 14.1957 22.4416 14.5257 21.8119C15.4733 20.0038 20.1098 20.0356 26.4634 21.8541C25.9123 22.586 25.4217 23.3616 24.9964 24.1731C24.931 24.2981 24.9068 24.4405 24.9272 24.58C24.9476 24.7196 25.0116 24.8491 25.11 24.9501C28.8569 28.7981 33.1898 32.0281 37.9476 34.52C42.704 37.0141 47.8255 38.7389 53.1218 39.6302C53.2608 39.6536 53.4037 39.6325 53.5301 39.5699C53.6564 39.5072 53.7597 39.4063 53.8252 39.2814C54.2505 38.4699 54.609 37.6251 54.8973 36.7554C60.0093 40.9449 62.6736 44.7393 61.7261 46.5473C61.0292 47.8772 58.2931 48.2392 54.2193 47.5407Z" fill="white"/>
<path d="M21.6861 24.8515C21.2616 24.6296 20.7663 24.5851 20.309 24.7279C19.8517 24.8707 19.4697 25.1891 19.2468 25.6132C19.1645 25.7703 19.1479 25.9537 19.2008 26.123C19.2537 26.2924 19.3717 26.4338 19.5288 26.5161C19.686 26.5985 19.8694 26.615 20.0387 26.5621C20.2081 26.5093 20.3494 26.3913 20.4318 26.2341C20.4907 26.1259 20.5897 26.0452 20.7076 26.0094C20.8255 25.9735 20.9527 25.9855 21.0618 26.0427C21.1709 26.0999 21.2532 26.1977 21.2908 26.315C21.3284 26.4323 21.3184 26.5597 21.2629 26.6697C21.1806 26.8268 21.164 27.0102 21.2169 27.1796C21.2698 27.3489 21.3878 27.4903 21.5449 27.5727C21.7021 27.655 21.8855 27.6716 22.0548 27.6187C22.2241 27.5658 22.3655 27.4478 22.4479 27.2907C22.6697 26.8661 22.7142 26.3708 22.5713 25.9136C22.4285 25.4563 22.1102 25.0743 21.6861 24.8515Z" fill="white"/>
<path d="M25.516 26.859C25.0914 26.6371 24.5962 26.5927 24.1389 26.7355C23.6816 26.8783 23.2997 27.1967 23.0768 27.6207C22.9945 27.7779 22.9779 27.9613 23.0308 28.1306C23.0837 28.3 23.2017 28.4413 23.3588 28.5237C23.5159 28.606 23.6993 28.6226 23.8687 28.5697C24.038 28.5168 24.1794 28.3988 24.2617 28.2417C24.3206 28.1335 24.4197 28.0527 24.5375 28.0169C24.6554 27.9811 24.7826 27.9931 24.8918 28.0503C25.0009 28.1075 25.0831 28.2053 25.1208 28.3226C25.1584 28.4399 25.1484 28.5673 25.0929 28.6773C25.0105 28.8344 24.994 29.0178 25.0469 29.1871C25.0998 29.3565 25.2177 29.4979 25.3749 29.5802C25.532 29.6626 25.7154 29.6791 25.8848 29.6262C26.0541 29.5734 26.1955 29.4554 26.2778 29.2982C26.4997 28.8736 26.5441 28.3784 26.4013 27.9211C26.2585 27.4638 25.9401 27.0818 25.516 26.859Z" fill="white"/>
<path d="M56.1391 23.4196C56.4448 23.7549 56.6686 24.1566 56.7928 24.5929C56.9171 25.0293 56.9384 25.4886 56.8552 25.9346C56.829 26.0724 56.8469 26.215 56.9062 26.3421C56.9655 26.4692 57.0633 26.5745 57.1857 26.643C57.1912 26.6458 57.1966 26.6487 57.202 26.6515C57.3235 26.7152 57.4617 26.7399 57.5977 26.7225C57.7338 26.705 57.8611 26.6461 57.9626 26.5538C58.2998 26.2489 58.7029 26.0262 59.1404 25.903C59.578 25.7798 60.0381 25.7595 60.4848 25.8436C60.6228 25.8699 60.7656 25.852 60.8928 25.7926C61.0201 25.7332 61.1255 25.6352 61.1939 25.5125C61.2624 25.3898 61.2905 25.2487 61.2742 25.1092C61.258 24.9697 61.1983 24.8388 61.1035 24.7351C60.7978 24.3998 60.5741 23.9982 60.4498 23.5618C60.3256 23.1255 60.3042 22.6662 60.3874 22.2202C60.4136 22.0823 60.3957 21.9397 60.3363 21.8125C60.2769 21.6853 60.179 21.5801 60.0564 21.5116C59.9339 21.4432 59.793 21.415 59.6535 21.4311C59.5141 21.4472 59.3833 21.5068 59.2795 21.6013C58.9424 21.9062 58.5394 22.1289 58.1019 22.2521C57.6644 22.3753 57.2043 22.3956 56.7577 22.3114C56.6197 22.2852 56.4769 22.303 56.3496 22.3625C56.2223 22.4219 56.117 22.5199 56.0485 22.6426C55.9801 22.7652 55.952 22.9063 55.9682 23.0459C55.9844 23.1854 56.0442 23.3163 56.139 23.4199L56.1391 23.4196ZM59.0386 23.3324C59.0934 23.7331 59.2045 24.1241 59.3684 24.4938C58.9667 24.5481 58.5746 24.6588 58.2038 24.8226C58.1489 24.4219 58.0378 24.0309 57.8739 23.6611C58.2756 23.6068 58.6677 23.4962 59.0386 23.3324Z" fill="white"/>
<path d="M39.9341 59.9423C39.5761 59.6635 39.2877 59.3055 39.0915 58.8963C38.8953 58.4872 38.7967 58.0382 38.8035 57.5845C38.806 57.4442 38.7643 57.3066 38.6844 57.1913C38.6044 57.076 38.4902 56.9887 38.3579 56.9419C38.2257 56.895 38.082 56.891 37.9473 56.9303C37.8126 56.9696 37.6936 57.0503 37.6073 57.1609C37.3266 57.5185 36.9669 57.8062 36.5564 58.0016C36.1459 58.197 35.6958 58.2947 35.2413 58.2872C35.1008 58.2847 34.9631 58.3264 34.8477 58.4065C34.7323 58.4866 34.645 58.601 34.5983 58.7334C34.5515 58.8659 34.5477 59.0097 34.5873 59.1445C34.6269 59.2793 34.7079 59.3982 34.8188 59.4843C35.1768 59.7632 35.4652 60.1212 35.6613 60.5304C35.8575 60.9395 35.9561 61.3886 35.9494 61.8423C35.9469 61.9826 35.9886 62.1201 36.0685 62.2354C36.1485 62.3507 36.2627 62.4379 36.3949 62.4847C36.5272 62.5315 36.6708 62.5356 36.8055 62.4963C36.9402 62.457 37.0591 62.3763 37.1455 62.2657C37.4262 61.9082 37.786 61.6204 38.1964 61.4251C38.6069 61.2297 39.0571 61.1319 39.5116 61.1394C39.6521 61.142 39.7898 61.1003 39.9053 61.0203C40.0207 60.9402 40.108 60.8258 40.1548 60.6933C40.2015 60.5608 40.2054 60.4169 40.1658 60.2821C40.1262 60.1473 40.0451 60.0284 39.9341 59.9422L39.9341 59.9423ZM37.091 60.5181C36.9693 60.1324 36.7938 59.7658 36.5697 59.4291C36.9565 59.3077 37.3243 59.1324 37.6622 58.9084C37.784 59.294 37.9595 59.6607 38.1835 59.9974C37.7967 60.1188 37.4289 60.2941 37.091 60.5181Z" fill="white"/>
<path d="M24.4665 9.88594C24.3285 9.85968 24.1858 9.87753 24.0585 9.93697C23.9312 9.9964 23.8258 10.0944 23.7574 10.2171C23.6889 10.3397 23.6608 10.4808 23.6771 10.6204C23.6933 10.7599 23.753 10.8908 23.8478 10.9944C24.1535 11.3297 24.3773 11.7313 24.5016 12.1677C24.6258 12.6041 24.6472 13.0634 24.564 13.5094C24.5379 13.6472 24.5559 13.7898 24.6153 13.9168C24.6746 14.0439 24.7725 14.1491 24.8949 14.2175L24.9111 14.226C25.0326 14.2897 25.1708 14.3144 25.3068 14.297C25.4429 14.2795 25.5702 14.2206 25.6717 14.1283C26.0088 13.8234 26.4119 13.6006 26.8494 13.4774C27.2869 13.3542 27.747 13.3339 28.1936 13.4181C28.3316 13.4444 28.4744 13.4265 28.6017 13.3671C28.729 13.3076 28.8343 13.2096 28.9028 13.087C28.9712 12.9643 28.9993 12.8232 28.9831 12.6837C28.9669 12.5442 28.9071 12.4133 28.8123 12.3096C28.5067 11.9743 28.283 11.5727 28.1587 11.1363C28.0345 10.6999 28.0131 10.2407 28.0963 9.79469C28.1224 9.65685 28.1046 9.51427 28.0452 9.38714C27.9859 9.26001 27.8881 9.15475 27.7656 9.08627C27.6432 9.01778 27.5023 8.98954 27.3629 9.00552C27.2235 9.02151 27.0927 9.08092 26.9889 9.17535C26.6518 9.48036 26.2487 9.70323 25.8111 9.82651C25.3735 9.94978 24.9133 9.97012 24.4665 9.88594ZM26.7474 10.9072C26.8023 11.3079 26.9134 11.6989 27.0773 12.0686C26.6756 12.1229 26.2835 12.2335 25.9126 12.3973C25.8577 11.9966 25.7466 11.6057 25.5827 11.236C25.9844 11.1816 26.3765 11.0709 26.7474 10.9072Z" fill="white"/>
<path d="M26.8057 5.27485C27.0225 5.38846 27.2681 5.43523 27.5114 5.40925C27.7548 5.38327 27.985 5.28571 28.1729 5.1289C28.3608 4.9721 28.498 4.76309 28.5672 4.52831C28.6363 4.29352 28.6342 4.04352 28.5613 3.8099C28.4883 3.57628 28.3477 3.36954 28.1573 3.21582C27.9668 3.06211 27.7351 2.96832 27.4913 2.94632C27.2475 2.92432 27.0027 2.9751 26.7878 3.09223C26.5729 3.20937 26.3976 3.38759 26.284 3.60438C26.1322 3.89517 26.1018 4.2343 26.1996 4.54742C26.2974 4.86055 26.5153 5.12214 26.8057 5.27485ZM27.4266 4.08991C27.4442 4.09912 27.4587 4.11333 27.4682 4.13076C27.4777 4.14818 27.4818 4.16803 27.48 4.18779C27.4782 4.20756 27.4706 4.22635 27.4582 4.24179C27.4457 4.25723 27.4289 4.26863 27.41 4.27455C27.391 4.28047 27.3708 4.28063 27.3517 4.27503C27.3327 4.26942 27.3158 4.2583 27.303 4.24306C27.2903 4.22782 27.2824 4.20916 27.2803 4.18943C27.2782 4.16969 27.282 4.14978 27.2912 4.1322C27.3036 4.10863 27.3248 4.09094 27.3502 4.083C27.3756 4.07507 27.4031 4.07755 27.4266 4.08991Z" fill="white"/>
<path d="M24.6833 7.11807C24.8204 7.18993 24.9758 7.21951 25.1297 7.20308C25.2837 7.18665 25.4293 7.12494 25.5481 7.02575C25.667 6.92657 25.7538 6.79437 25.7975 6.64586C25.8412 6.49736 25.8399 6.33922 25.7938 6.19145C25.7476 6.04368 25.6587 5.91291 25.5382 5.81569C25.4178 5.71846 25.2712 5.65914 25.117 5.64522C24.9628 5.63131 24.808 5.66343 24.672 5.73751C24.5361 5.8116 24.4252 5.92434 24.3534 6.06146C24.2572 6.24537 24.238 6.45991 24.2998 6.65801C24.3617 6.8561 24.4996 7.02156 24.6833 7.11807Z" fill="white"/>
<path d="M17.285 44.7688C17.1219 44.482 16.8523 44.271 16.5346 44.1817C16.217 44.0924 15.8769 44.1319 15.5882 44.2917C15.302 44.4519 15.0911 44.7192 15.0018 45.0348C14.9124 45.3504 14.952 45.6885 15.1117 45.975C15.2351 46.1868 15.4158 46.3594 15.6331 46.4729C15.9924 46.6612 16.3697 46.6342 16.8353 46.4661C17.1126 46.2939 17.3135 46.0223 17.3971 45.7068C17.4807 45.3912 17.4406 45.0557 17.285 44.7688ZM16.234 45.4515C16.2113 45.4611 16.1858 45.4621 16.1624 45.4541C16.1391 45.4461 16.1194 45.4298 16.1074 45.4083C16.0953 45.3867 16.0915 45.3615 16.0969 45.3374C16.1022 45.3133 16.1163 45.292 16.1364 45.2776L16.2341 45.4514L16.234 45.4515Z" fill="white"/>
<path d="M20.3984 42.693C20.3226 42.5582 20.2084 42.4488 20.0704 42.3788C19.9325 42.3088 19.7768 42.2812 19.6232 42.2996C19.4695 42.3181 19.3248 42.3816 19.2073 42.4823C19.0898 42.583 19.0047 42.7162 18.9629 42.8652C18.9211 43.0142 18.9245 43.1722 18.9725 43.3193C19.0205 43.4664 19.111 43.596 19.2326 43.6916C19.3542 43.7873 19.5015 43.8447 19.6558 43.8567C19.81 43.8687 19.9644 43.8347 20.0993 43.7589C20.2802 43.6572 20.4133 43.4878 20.4692 43.288C20.5252 43.0881 20.4995 42.8743 20.3979 42.6934L20.3984 42.693Z" fill="white"/>
<path d="M42.2833 56.6504C42.2061 56.5136 42.0982 56.3967 41.9679 56.309C41.8377 56.2212 41.6889 56.165 41.5332 56.1448C41.3774 56.1247 41.2192 56.1411 41.0709 56.1927C40.9226 56.2444 40.7884 56.3299 40.679 56.4425C40.5695 56.5551 40.4878 56.6916 40.4403 56.8413C40.3929 56.991 40.3809 57.1497 40.4055 57.3047C40.43 57.4598 40.4904 57.6071 40.5818 57.7347C40.6732 57.8624 40.7931 57.967 40.932 58.0403C40.9953 58.0735 41.0618 58.0999 41.1306 58.1192C41.3231 58.173 41.5271 58.1686 41.717 58.1064C41.9069 58.0442 42.0741 57.9271 42.1975 57.7699C42.3209 57.6127 42.3948 57.4225 42.4101 57.2233C42.4253 57.024 42.3812 56.8247 42.2832 56.6506L42.2833 56.6504Z" fill="white"/>
<path d="M44.1345 55.2602C44.0585 55.1253 43.9443 55.016 43.8062 54.946C43.6682 54.876 43.5125 54.8486 43.3588 54.8671C43.2051 54.8857 43.0604 54.9494 42.9429 55.0501C42.8254 55.1509 42.7405 55.2843 42.6988 55.4334C42.6571 55.5824 42.6606 55.7405 42.7087 55.8876C42.7569 56.0347 42.8476 56.1643 42.9694 56.2598C43.0912 56.3554 43.2385 56.4127 43.3929 56.4244C43.5472 56.4362 43.7016 56.402 43.8365 56.3261C43.9265 56.2761 44.0057 56.2088 44.0695 56.128C44.1334 56.0472 44.1805 55.9546 44.2082 55.8554C44.2359 55.7563 44.2437 55.6526 44.231 55.5504C44.2184 55.4482 44.1856 55.3496 44.1345 55.2602Z" fill="white"/>
<path d="M70.1533 27.2243C70.2528 27.3529 70.3767 27.4606 70.5178 27.5413C70.6589 27.622 70.8145 27.6742 70.9758 27.6947C71.137 27.7153 71.3008 27.7039 71.4576 27.6612C71.6145 27.6184 71.7614 27.5453 71.8899 27.4458C72.0185 27.3463 72.1262 27.2224 72.2069 27.0813C72.2876 26.9402 72.3398 26.7846 72.3603 26.6233C72.3809 26.462 72.3695 26.2983 72.3268 26.1415C72.284 25.9846 72.2109 25.8377 72.1114 25.7091C71.9104 25.4495 71.6146 25.2803 71.2889 25.2388C70.9632 25.1972 70.6344 25.2868 70.3747 25.4877C70.1151 25.6887 69.9459 25.9845 69.9044 26.3102C69.8628 26.6359 69.9524 26.9647 70.1533 27.2243ZM71.2116 26.4058C71.2212 26.416 71.2285 26.428 71.2332 26.4412C71.2378 26.4544 71.2397 26.4685 71.2386 26.4824C71.2375 26.4963 71.2335 26.5099 71.2268 26.5222C71.2202 26.5345 71.211 26.5453 71.1999 26.5539C71.1889 26.5624 71.1761 26.5686 71.1626 26.5719C71.149 26.5753 71.1349 26.5758 71.1211 26.5733C71.1073 26.5709 71.0942 26.5656 71.0826 26.5578C71.071 26.55 71.0611 26.5399 71.0537 26.528L71.2116 26.4058Z" fill="white"/>
<path d="M67.1388 30.8284C67.2497 30.9715 67.4067 31.0718 67.5832 31.1121C67.7597 31.1525 67.9447 31.1303 68.1067 31.0495C68.2687 30.9687 68.3977 30.8342 68.4717 30.669C68.5457 30.5038 68.5601 30.318 68.5124 30.1433C68.4647 29.9687 68.358 29.8159 68.2104 29.7111C68.0627 29.6064 67.8833 29.556 67.7027 29.5687C67.5221 29.5814 67.3515 29.6563 67.2199 29.7807C67.0884 29.905 67.004 30.0712 66.9812 30.2508C66.9682 30.3527 66.9754 30.4562 67.0024 30.5553C67.0295 30.6544 67.0758 30.7472 67.1388 30.8284Z" fill="white"/>
<path d="M59.8695 37.4326C60.3652 37.8844 60.8344 38.3342 61.2641 38.7697C61.823 39.3363 62.3302 39.8931 62.7704 40.4241C62.8264 40.4917 62.8953 40.5476 62.9729 40.5887C63.0506 40.6297 63.1356 40.655 63.2231 40.6632C63.3105 40.6714 63.3987 40.6623 63.4827 40.6364C63.5666 40.6105 63.6446 40.5683 63.7123 40.5122C63.7799 40.4562 63.8358 40.3873 63.8769 40.3097C63.9179 40.232 63.9432 40.147 63.9514 40.0595C63.9596 39.9721 63.9505 39.8838 63.9246 39.7999C63.8987 39.716 63.8565 39.6379 63.8004 39.5703C63.3355 39.0096 62.8026 38.4241 62.2164 37.8301C61.7701 37.3778 61.2837 36.9115 60.771 36.4433C60.6398 36.3238 60.4666 36.2613 60.2894 36.2695C60.1121 36.2777 59.9454 36.356 59.8259 36.4871C59.7064 36.6182 59.6439 36.7915 59.6521 36.9687C59.6603 37.1459 59.7386 37.3126 59.8697 37.4322L59.8695 37.4326Z" fill="white"/>
<path d="M57.6624 35.5446C57.798 35.6541 57.9323 35.7634 58.0652 35.8727C58.2024 35.9833 58.3777 36.0353 58.553 36.0174C58.7284 35.9995 58.8895 35.9131 59.0015 35.777C59.1135 35.641 59.1673 35.4662 59.1511 35.2906C59.135 35.1151 59.0502 34.9531 58.9152 34.8398C58.7794 34.728 58.6419 34.6159 58.5027 34.5036C58.3645 34.3935 58.1884 34.3426 58.0128 34.3618C57.8372 34.3811 57.6763 34.4691 57.5653 34.6066C57.4544 34.7441 57.4023 34.9199 57.4205 35.0956C57.4387 35.2713 57.5256 35.4327 57.6624 35.5446Z" fill="white"/>
<path d="M35.6294 19.8204C35.5665 19.6545 35.4402 19.5204 35.2784 19.4476C35.1167 19.3748 34.9326 19.3693 34.7667 19.4322C33.591 19.8784 32.4871 20.4946 31.4902 21.261C31.4202 21.3144 31.3615 21.3811 31.3174 21.4573C31.2732 21.5334 31.2446 21.6175 31.233 21.7048C31.2214 21.792 31.2272 21.8807 31.25 21.9657C31.2728 22.0508 31.3121 22.1304 31.3657 22.2002C31.4193 22.27 31.4862 22.3285 31.5625 22.3724C31.6388 22.4163 31.723 22.4447 31.8103 22.456C31.8976 22.4673 31.9862 22.4613 32.0712 22.4382C32.1561 22.4152 32.2357 22.3756 32.3053 22.3218C33.1986 21.635 34.1876 21.0828 35.241 20.6828C35.4068 20.6199 35.5409 20.4937 35.6138 20.332C35.6866 20.1703 35.6922 19.9862 35.6294 19.8204Z" fill="white"/>
<path d="M37.3101 18.7565C37.1063 18.7888 36.9008 18.8264 36.6994 18.8684C36.6128 18.8857 36.5304 18.9199 36.457 18.9692C36.3836 19.0184 36.3208 19.0817 36.272 19.1555C36.2233 19.2292 36.1896 19.3118 36.173 19.3986C36.1563 19.4854 36.157 19.5746 36.1751 19.6611C36.1931 19.7476 36.2282 19.8297 36.2781 19.9026C36.328 19.9755 36.3919 20.0377 36.4661 20.0858C36.5402 20.1339 36.6232 20.1668 36.7101 20.1826C36.7971 20.1984 36.8863 20.1968 36.9726 20.178C37.1529 20.1404 37.3371 20.1068 37.5194 20.0778C37.6069 20.0649 37.691 20.0348 37.7668 19.9892C37.8426 19.9436 37.9086 19.8834 37.961 19.8121C38.0134 19.7408 38.0511 19.6599 38.072 19.5739C38.0929 19.4879 38.0965 19.3987 38.0827 19.3113C38.0688 19.224 38.0378 19.1402 37.9914 19.0649C37.9449 18.9896 37.884 18.9243 37.8122 18.8727C37.7403 18.8211 37.659 18.7842 37.5728 18.7643C37.4866 18.7444 37.3973 18.7417 37.3101 18.7565Z" fill="white"/>
<path d="M47.1979 26.5864C47.2494 26.45 47.2548 26.3004 47.2134 26.1605C47.172 26.0207 47.086 25.8982 46.9686 25.8117C46.908 25.7674 45.4759 24.7308 44.0612 25.2616C42.7248 25.7631 42.0701 27.4088 41.9997 27.5948C41.9482 27.7313 41.9428 27.8808 41.9842 28.0207C42.0256 28.1605 42.1116 28.283 42.2291 28.3695C42.3674 28.4674 42.5124 28.5555 42.663 28.633C43.2045 28.9168 44.1741 29.2802 45.1365 28.9196C46.4729 28.4181 47.1277 26.7724 47.1979 26.5864ZM44.6665 27.667C44.2907 27.8078 43.8466 27.7002 43.5031 27.5548C43.7363 27.1536 44.0993 26.676 44.5314 26.5139C44.9072 26.3731 45.3509 26.4805 45.6948 26.6263C45.4615 27.0275 45.0981 27.5046 44.6665 27.667Z" fill="white"/>
<path d="M41.2353 27.1942C41.3483 27.0305 42.3289 25.5556 41.9807 24.1713C41.6124 22.7061 39.9449 22.1181 39.8739 22.0937C39.736 22.0464 39.5863 22.0454 39.4478 22.091C39.3092 22.1365 39.1894 22.2261 39.1064 22.3461C38.9935 22.5097 38.0128 23.9845 38.361 25.3688C38.6115 26.3652 39.4628 26.9559 40.0041 27.2396C40.1536 27.3193 40.3086 27.3884 40.4678 27.4464C40.6057 27.4938 40.7554 27.4948 40.8939 27.4493C41.0325 27.4038 41.1524 27.3142 41.2353 27.1942ZM39.6582 25.0428C39.5454 24.5946 39.7294 24.0283 39.9278 23.6066C40.2309 23.7967 40.5822 24.0955 40.6833 24.4976C40.7961 24.9458 40.6122 25.5121 40.4139 25.9338C40.1104 25.7435 39.7593 25.4448 39.6582 25.0428Z" fill="white"/>
<path d="M40.959 29.4957L40.3652 29.1845C40.208 29.1022 40.0246 29.0856 39.8553 29.1385C39.686 29.1914 39.5446 29.3094 39.4622 29.4665C39.3799 29.6236 39.3633 29.807 39.4162 29.9764C39.4691 30.1457 39.5871 30.2871 39.7442 30.3695L40.3381 30.6807C40.4952 30.763 40.6786 30.7796 40.8479 30.7267C41.0173 30.6738 41.1587 30.5558 41.241 30.3987C41.3234 30.2415 41.3399 30.0581 41.287 29.8888C41.2342 29.7195 41.1162 29.5781 40.959 29.4957Z" fill="white"/>
</svg>
