<svg width="81" height="75" viewBox="0 0 81 75" fill="none" xmlns="http://www.w3.org/2000/svg">
<path d="M3.86266 27.216C5.21381 26.8176 6.66716 26.9629 7.91266 27.621L12.1382 29.619C11.9012 27.2839 13.1999 25.0631 15.3512 24.1245L16.5797 23.598C12.9834 16.5562 14.996 7.94699 21.3414 3.22932C27.6868 -1.48836 36.5108 -0.936053 42.2184 4.53603C47.926 10.0081 48.8494 18.8011 44.4032 25.3395L48.3452 26.217L51.8687 19.1835C52.5027 17.9007 53.6268 16.9274 54.9872 16.4835C55.1022 16.4487 55.2195 16.4217 55.3382 16.4025V1.35C55.3382 0.604416 55.9426 0 56.6882 0H69.9047C70.7231 0.000719915 71.4607 0.494087 71.7738 1.25031C72.087 2.00653 71.9141 2.87689 71.3357 3.456L68.0417 6.75L71.3357 10.044C71.9141 10.6231 72.087 11.4935 71.7738 12.2497C71.4607 13.0059 70.7231 13.4993 69.9047 13.5H58.0382V16.3755C59.6144 16.7858 60.9213 17.8857 61.5947 19.3688C62.2681 20.8519 62.2361 22.5597 61.5077 24.0165L56.1077 34.8165C55.0051 37.0428 52.5257 38.2296 50.1002 37.692L49.4252 37.53C49.8842 38.6235 50.2892 39.69 50.6537 40.743C57.1324 39.5047 63.8312 41.102 69.0542 45.1305C70.7732 41.8288 74.7569 40.4241 78.1667 41.9175C79.2328 42.3265 80.0767 43.1666 80.4906 44.2309C80.9045 45.2951 80.8499 46.4847 80.3402 47.5065L76.5197 55.161C75.604 56.9908 73.7328 58.146 71.6867 58.1445C70.1508 58.0415 68.6844 57.4662 67.4882 56.4975C63.9477 54.044 59.55 53.1645 55.3382 54.0675C57.1597 56.099 58.4329 58.5617 59.0372 61.2225C62.6957 59.373 66.2732 60.048 68.6087 63.7335C69.2292 64.6886 69.4189 65.8609 69.1311 66.963C68.8434 68.0651 68.1049 68.9951 67.0967 69.525C58.9967 73.7775 58.8077 74.142 57.0122 74.142C54.8599 74.1418 52.9132 72.8635 52.0577 70.8885L51.3692 69.309C48.3587 60.885 38.2202 60.75 37.7882 60.75C36.9026 60.7096 36.0305 60.5179 35.2097 60.183C32.7122 61.4385 31.3217 62.478 28.8512 61.7895C22.6817 66.6765 15.5807 66.8385 10.3832 60.642C8.29933 58.2559 7.41054 55.0532 7.96666 51.9345C8.69566 47.8845 11.6387 44.2665 14.7167 41.553C12.6711 41.4704 10.6716 40.9209 8.87116 39.9465L2.82316 37.1385C0.904121 36.0967 -0.198654 34.0018 0.028862 31.8301C0.256371 29.6584 1.76938 27.8374 3.86266 27.216ZM16.4852 26.6085C15.8241 26.9029 15.3089 27.4503 15.0551 28.128C14.8013 28.8056 14.8302 29.5568 15.1352 30.213L15.3782 30.753C16.5527 30.753 16.9847 30.1185 19.7792 27.81C19.1694 27.2318 18.6136 26.5992 18.1187 25.92L16.4852 26.6085ZM20.3867 7.8975C16.2173 13.3318 16.7783 21.0273 21.6918 25.7994C26.6053 30.5715 34.3138 30.9077 39.6242 26.5815C26.0162 29.511 16.1882 17.388 24.7067 9.45C28.5137 5.8725 34.4672 4.7385 39.6512 5.859C36.8475 3.5225 33.2172 2.42072 29.5879 2.80476C25.9585 3.18881 22.6392 5.02597 20.3867 7.8975ZM42.9587 22.4505C43.1207 22.1535 43.2962 21.8565 43.4312 21.546C45.0364 17.8165 44.8777 13.5626 42.9992 9.963C35.5337 5.562 24.2882 9.45 24.2882 16.2C24.2882 22.95 35.3177 26.8785 42.9587 22.4505ZM68.2847 10.8L65.6657 8.181C65.2831 7.80309 65.0678 7.28774 65.0678 6.75C65.0678 6.21226 65.2831 5.69691 65.6657 5.319L68.2847 2.7H58.0382V10.8H68.2847ZM50.7347 35.1C51.9436 35.3665 53.1788 34.7767 53.7317 33.669L59.1317 22.869C59.6093 21.8939 59.4564 20.7275 58.7434 19.9085C58.0305 19.0895 56.8963 18.7773 55.8647 19.116C55.1842 19.3404 54.6209 19.826 54.2987 20.466L50.2487 28.431C49.9723 28.9848 49.3546 29.2797 48.7502 29.1465L44.6192 28.2285C45.6317 29.9025 46.8467 32.0625 48.0347 34.5195L50.7347 35.1ZM68.8382 54.189C70.4042 55.134 71.0927 55.7145 72.4157 55.3365C73.1391 55.1442 73.7503 54.6602 74.1032 54L77.9237 46.305C78.0947 45.9673 78.1161 45.5733 77.9826 45.219C77.8491 44.8648 77.573 44.5829 77.2217 44.442C76.0485 43.9204 74.7093 43.9204 73.5362 44.442C72.2778 45.1771 71.3211 46.3347 70.8362 47.709C70.6918 48.1377 70.3422 48.4656 69.9051 48.5823C69.4681 48.6991 69.0016 48.5891 68.6627 48.2895C64.002 44.0712 57.6541 42.2426 51.4637 43.335C52.2348 46.0284 52.6568 48.8096 52.7192 51.6105L53.0972 51.921C55.6892 50.976 61.6697 49.707 68.8382 54.189ZM31.4432 59.0355L32.3882 58.5495C30.0393 56.3472 28.5953 53.3486 28.3382 50.139C27.7442 45.981 25.1117 42.039 22.7222 39.339C21.8434 39.8995 20.9007 40.3527 19.9142 40.689L27.8117 57.7395C28.1156 58.405 28.6765 58.9188 29.3662 59.1631C30.0558 59.4074 30.8151 59.3613 31.4702 59.0355H31.4432ZM15.9182 53.3385C15.7795 54.1106 16.0264 54.9018 16.5797 55.458C17.9297 57.0915 18.9557 57.2805 19.6442 57.2805C21.1498 57.0958 22.5629 56.4551 23.6942 55.4445L20.0627 47.574C17.7002 49.7475 16.1882 51.7725 15.9452 53.3385H15.9182ZM12.4217 58.914C16.3097 63.558 21.3587 63.774 26.2997 60.264C25.706 59.5728 25.2481 58.7759 24.9497 57.915C21.0482 60.75 17.5382 60.75 14.5277 57.186C11.1257 53.136 14.9057 48.465 18.9692 45.036L17.7812 42.4845C12.0707 47.088 7.83166 53.352 12.4487 58.914H12.4217ZM2.76916 33.156C2.95071 33.8184 3.38769 34.3816 3.98416 34.722L10.0592 37.53C13.9074 39.6426 18.6515 39.2157 22.0607 36.45C22.6176 35.9888 23.439 36.0483 23.9237 36.585C26.7452 39.6765 30.2687 44.4825 31.0247 49.8015C31.7267 54.6885 33.9542 56.6865 35.7092 57.51C36.3619 57.8196 37.0673 58.0028 37.7882 58.05C38.3012 58.05 50.2622 58.1715 53.8802 68.31L54.5282 69.822C54.8202 70.5189 55.3909 71.0614 56.1015 71.318C56.8122 71.5746 57.5979 71.5216 58.2677 71.172L65.8277 67.122C66.167 66.9448 66.4151 66.632 66.5104 66.2613C66.6056 65.8905 66.539 65.4968 66.3272 65.178C65.7371 64.0532 64.6793 63.2475 63.4382 62.9775C61.8015 62.9178 60.199 63.4552 58.9292 64.4895C58.5459 64.829 58.0035 64.9225 57.5287 64.7309C57.0539 64.5392 56.7284 64.0954 56.6882 63.585C55.4597 51.3 39.1382 48.6 38.9357 48.6C38.4534 48.5277 38.0463 48.2035 37.8678 47.7496C37.6893 47.2958 37.7665 46.7811 38.0703 46.3996C38.3741 46.0181 38.8584 45.8277 39.3407 45.9C43.0649 46.5682 46.6484 47.8647 49.9382 49.734C49.3037 42.5115 45.5507 34.614 41.6492 28.431C36.0903 33.2781 27.9506 33.734 21.8852 29.538L18.6992 32.238C17.5275 33.2341 15.9789 33.6681 14.4602 33.426C13.6232 33.426 11.7602 32.4405 6.68416 30.0915C5.73758 29.5837 4.58002 29.6853 3.73638 30.3502C2.89275 31.0152 2.52353 32.117 2.79616 33.156H2.76916Z" fill="white"/>
<path d="M33.7384 10.8C33.7384 10.0544 34.3428 9.44995 35.0884 9.44995C37.8964 9.44995 43.1884 10.8 43.1884 16.1999C43.1884 16.9455 42.5839 17.5499 41.8384 17.5499C41.0928 17.5499 40.4884 16.9455 40.4884 16.1999C40.4884 12.2309 35.3314 12.1499 35.0884 12.1499C34.3428 12.1499 33.7384 11.5455 33.7384 10.8Z" fill="white"/>
<path d="M71.5381 24.3C72.2837 24.3 72.8881 24.9045 72.8881 25.65V27H74.2381C74.9837 27 75.5881 27.6045 75.5881 28.35C75.5881 29.0956 74.9837 29.7 74.2381 29.7H72.8881V31.05C72.8881 31.7956 72.2837 32.4 71.5381 32.4C70.7926 32.4 70.1881 31.7956 70.1881 31.05V29.7H68.8381C68.0926 29.7 67.4881 29.0956 67.4881 28.35C67.4881 27.6045 68.0926 27 68.8381 27H70.1881V25.65C70.1881 24.9045 70.7926 24.3 71.5381 24.3Z" fill="white"/>
<path d="M35.0883 68.8499H36.4383V67.4999C36.4383 66.7543 37.0427 66.1499 37.7883 66.1499C38.5338 66.1499 39.1383 66.7543 39.1383 67.4999V68.8499H40.4883C41.2338 68.8499 41.8383 69.4543 41.8383 70.1999C41.8383 70.9455 41.2338 71.5499 40.4883 71.5499H39.1383V72.8999C39.1383 73.6455 38.5338 74.2499 37.7883 74.2499C37.0427 74.2499 36.4383 73.6455 36.4383 72.8999V71.5499H35.0883C34.3427 71.5499 33.7383 70.9455 33.7383 70.1999C33.7383 69.4543 34.3427 68.8499 35.0883 68.8499Z" fill="white"/>
<path d="M9.43853 8.1C8.69295 8.1 8.08853 7.49558 8.08853 6.75V5.4H6.73853C5.99295 5.4 5.38853 4.79558 5.38853 4.05C5.38853 3.30442 5.99295 2.7 6.73853 2.7H8.08853V1.35C8.08853 0.604416 8.69295 0 9.43853 0C10.1841 0 10.7885 0.604416 10.7885 1.35V2.7H12.1385C12.8841 2.7 13.4885 3.30442 13.4885 4.05C13.4885 4.79558 12.8841 5.4 12.1385 5.4H10.7885V6.75C10.7885 7.49558 10.1841 8.1 9.43853 8.1Z" fill="white"/>
</svg>
