<svg width="77" height="85" viewBox="0 0 77 85" fill="none" xmlns="http://www.w3.org/2000/svg">
<path d="M52.2265 28.4799L52.3005 28.5087C52.3007 28.5087 52.2994 28.3415 52.2265 28.4799Z" fill="white"/>
<path d="M34.3471 21.5189L34.4211 21.5478C34.4611 21.3965 34.3471 21.5189 34.3471 21.5189Z" fill="white"/>
<path d="M68.3092 39.9904C68.152 39.1654 67.683 38.4511 66.9886 37.9789L63.3309 35.492L65.3878 35.6949C67.092 35.8631 68.6569 34.5822 68.8255 32.8748C68.9936 31.1706 67.7128 29.606 66.0053 29.4371L56.4148 28.4906C56.3492 27.9933 56.1655 27.5181 55.8814 27.107C58.9081 24.524 63.5947 19.9657 64.523 17.5811C64.7495 16.9996 64.3749 16.3355 63.7597 16.2284C60.0577 15.5856 56.7332 14.6597 53.5998 13.4003C50.3792 12.1056 46.5101 10.1367 44.191 8.61236C43.474 8.1411 42.5058 8.77183 42.6506 9.61976C42.867 10.887 42.8218 12.1201 42.6031 13.2956C39.3908 12.157 36.2486 10.4907 34.242 8.27476C33.7015 7.67781 32.6807 7.95665 32.5159 8.74295C31.4692 13.7495 31.9771 17.1215 32.7513 19.8211L32.7162 19.8075C31.1007 19.1785 29.2746 19.9812 28.6456 21.5967C28.0672 23.0825 28.7003 24.7455 30.0622 25.4925C28.3338 26.8374 26.1925 27.9183 23.9435 29.0517C19.1608 31.462 13.7399 34.1939 9.8235 40.4879C7.94955 43.4994 6.78641 46.5471 6.3665 49.5465C5.97442 52.3467 6.22543 55.1171 7.11237 57.7807C8.28972 61.3164 10.5294 64.5761 13.769 67.4695C16.6873 70.0758 20.3359 72.2733 24.3207 73.8246C28.3054 75.3759 32.4795 76.224 36.3917 76.277C40.7349 76.3357 44.5891 75.4484 47.8472 73.6396C50.3017 72.2768 52.3598 70.4055 53.9643 68.0773C55.6829 65.5834 56.8868 62.5515 57.5424 59.0658C58.9126 51.7807 56.766 46.1026 54.872 41.0929C54.2291 39.3922 53.6184 37.7715 53.1889 36.2007L63.453 43.1792C64.5403 43.9185 66.0163 43.8915 67.0777 43.1164C68.0493 42.4066 68.5344 41.171 68.3092 39.9904ZM52.8513 15.2623C55.7181 16.4146 58.7301 17.2973 62.0215 17.9471C60.5589 20.0347 57.1489 23.4329 54.2128 25.8899C52.9867 25.5158 51.6791 25.9335 50.8857 26.8811L48.2896 25.8704C48.2802 25.7212 48.2691 25.5574 48.2566 25.3753C48.1182 23.3564 47.83 19.1552 49.0061 16.1343C49.2322 15.5536 48.8591 14.8899 48.2446 14.782C47.0717 14.5761 45.806 14.2862 44.5173 13.9116C44.6905 13.0805 44.7921 12.2202 44.7968 11.337C47.1578 12.704 50.2183 14.2038 52.8513 15.2623ZM54.3576 29.3094L52.8043 33.299C52.5768 33.8833 51.9163 34.1737 51.3319 33.9462C50.7475 33.7187 50.4572 33.0582 50.6847 32.4738L52.238 28.4842C52.4655 27.8997 53.1259 27.6094 53.7104 27.837C54.2948 28.0645 54.585 28.7251 54.3576 29.3094ZM34.1593 10.9692C36.1864 12.6772 38.9243 14.1506 42.0724 15.2505L43.9712 15.8549C44.8766 16.1151 45.8084 16.3449 46.7607 16.5416C45.9261 19.548 46.0903 23.0351 46.2242 25.0663L39.998 22.6423L38.0309 21.8765L35.1378 20.7501C35.1296 20.7092 35.1197 20.6682 35.1062 20.6276C34.2748 18.1372 33.535 15.3429 34.1593 10.9692ZM52.9949 41.8023C54.7957 46.565 56.8363 51.963 55.5704 58.6945C54.4051 64.8899 51.4789 69.3276 46.8732 71.8845C41.1942 75.0374 33.0355 75.0635 25.049 71.9542C17.0625 68.8449 11.069 63.3092 9.01674 57.1463C7.35229 52.1484 8.19711 46.9003 11.5274 41.5479C15.1463 35.7323 20.2999 33.135 24.8468 30.8437C27.5655 29.4735 30.135 28.1766 32.1719 26.3434L34.4556 27.2324C34.9722 27.4336 35.5537 27.1778 35.7547 26.6614C35.9558 26.145 35.7002 25.5634 35.1837 25.3624L31.1628 23.797C30.5784 23.5694 30.2881 22.909 30.5156 22.3246C30.7432 21.7402 31.4036 21.4498 31.988 21.6774L50.0037 28.6912L49.1785 30.8107L39.6408 27.0974C39.1242 26.8963 38.5427 27.1521 38.3417 27.6684C38.1407 28.1848 38.3962 28.7664 38.9127 28.9675L48.6043 32.7407C48.5446 34.0511 49.3151 35.3146 50.6037 35.8163C50.7526 35.8742 50.9031 35.9197 51.0545 35.954C51.5104 37.8698 52.2309 39.7818 52.9949 41.8023ZM56.0585 30.4721L65.8081 31.4343C66.4255 31.495 66.889 32.0616 66.8282 32.6777C66.7671 33.2952 66.2011 33.7587 65.5848 33.6977L60.013 33.1479C59.9675 33.1434 59.9226 33.143 59.8782 33.1447L56.0353 30.5319L56.0585 30.4721ZM66.1613 41.2182C65.8086 41.7368 65.1008 41.8724 64.5814 41.5193L54.3881 34.5889C54.5 34.4149 54.5965 34.2272 54.6744 34.027L55.2882 32.4504L65.8601 39.6382C66.3725 39.9867 66.5099 40.7053 66.1613 41.2182Z" fill="white"/>
<path d="M40.0131 51.2193C41.3536 51.7411 42.869 51.0752 43.3909 49.7346L43.9733 48.2385C45.3354 44.7399 43.8551 40.8237 40.6582 39.0521L41.2895 37.4306C41.8114 36.0901 41.1454 34.5748 39.8048 34.0529C38.4643 33.531 36.949 34.197 36.427 35.5376L35.7476 37.2828C31.9816 36.7067 28.2629 38.8062 26.8507 42.4337C25.2046 46.6616 27.3052 51.4404 31.5331 53.0864L33.0292 53.6689C34.5758 54.271 35.3445 56.0193 34.7423 57.5663C34.14 59.1132 32.3917 59.8816 30.8449 59.2794L28.6007 58.4056C27.4662 57.964 26.9028 56.6818 27.3444 55.5475C27.8662 54.207 27.2003 52.6917 25.8597 52.1698C24.5192 51.6479 23.0038 52.3139 22.4819 53.6545C21.1198 57.153 22.6002 61.0692 25.797 62.8409L25.1658 64.4623C24.6439 65.8028 25.3099 67.3182 26.6505 67.8401C27.991 68.362 29.5063 67.696 30.0282 66.3554L30.7077 64.6102C34.4736 65.1863 38.1923 63.0868 39.6046 59.4593C41.2506 55.2313 39.1501 50.4525 34.9222 48.8065L33.4261 48.2241C31.8794 47.6219 31.1107 45.8736 31.713 44.3267C32.3152 42.7798 34.0636 42.0114 35.6104 42.6136L37.8546 43.4873C38.989 43.929 39.5525 45.2111 39.1109 46.3454L38.5284 47.8415C38.0066 49.182 38.6727 50.6974 40.0131 51.2193ZM38.5828 41.6173L36.3385 40.7436C33.7605 39.7399 30.8467 41.0207 29.843 43.5987C28.8394 46.1767 30.1201 49.0906 32.6982 50.0942L34.1942 50.6767C37.3911 51.9213 38.9792 55.5345 37.7346 58.7312C36.5831 61.6891 33.4037 63.3031 30.3394 62.4859C29.8454 62.3541 29.3312 62.6149 29.1457 63.0914L28.1584 65.6274C28.038 65.9367 27.6882 66.0904 27.379 65.97C27.0697 65.8496 26.9159 65.4999 27.0363 65.1906L28.0071 62.6971C28.2082 62.1806 27.9526 61.5991 27.4361 61.398C24.6518 60.314 23.2686 57.1671 24.3526 54.3829C24.473 54.0736 24.8227 53.9199 25.132 54.0403C25.4413 54.1607 25.595 54.5104 25.4746 54.8197C24.6315 56.9852 25.7074 59.4329 27.8729 60.276L30.1172 61.1497C32.6952 62.1534 35.609 60.8726 36.6127 58.2946C37.6163 55.7166 36.3356 52.8027 33.7575 51.7991L32.2615 51.2166C29.0646 49.972 27.4765 46.3587 28.7211 43.162C29.8726 40.2042 33.052 38.5902 36.1163 39.4074C36.6103 39.5392 37.1245 39.2784 37.31 38.8019L38.2973 36.2659C38.4177 35.9566 38.7675 35.8028 39.0767 35.9232C39.386 36.0437 39.5398 36.3934 39.4194 36.7027L38.4486 39.1962C38.2475 39.7126 38.5031 40.2942 39.0196 40.4952C41.8039 41.5792 43.1871 44.7262 42.1031 47.5104L41.5207 49.0065C41.4003 49.3157 41.0505 49.4695 40.7413 49.3491C40.432 49.2286 40.2782 48.8789 40.3986 48.5696L40.9811 47.0736C41.8242 44.908 40.7483 42.4604 38.5828 41.6173Z" fill="white"/>
</svg>
