<svg width="56" height="56" viewBox="0 0 56 56" fill="none" xmlns="http://www.w3.org/2000/svg">
<path d="M47.7991 8.20118C42.5105 2.91279 35.4791 0.000244141 28 0.000244141C22.5813 0.000244141 17.324 1.55063 12.7962 4.48374C12.4159 4.73006 12.3074 5.23799 12.5537 5.61818C12.8 5.99848 13.3081 6.10698 13.6882 5.86067C17.9498 3.10004 22.8986 1.64087 28 1.64087C35.0409 1.64087 41.6603 4.38268 46.6389 9.36132C51.6176 14.34 54.3594 20.9593 54.3594 28.0002C54.3594 35.0411 51.6176 41.6605 46.6389 46.6392C41.6603 51.6178 35.0409 54.3596 28 54.3596C20.9591 54.3596 14.3397 51.6178 9.36108 46.6392C4.38244 41.6605 1.64062 35.0411 1.64062 28.0002C1.64062 20.3059 4.99122 13.0148 10.8334 7.99643C11.177 7.70123 11.2163 7.18323 10.9212 6.83968C10.6259 6.49603 10.1081 6.45676 9.76445 6.75196C3.55906 12.0824 0 19.827 0 28.0002C0 35.4793 2.91255 42.5107 8.20094 47.7993C13.4895 53.0877 20.5209 56.0002 28 56.0002C35.4791 56.0002 42.5105 53.0877 47.7991 47.7993C53.0875 42.5107 56 35.4793 56 28.0002C56 20.5212 53.0875 13.4898 47.7991 8.20118Z" fill="white"/>
<path d="M40.8941 48.8218C44.3712 46.664 47.2779 43.6446 49.2998 40.0898C51.3851 36.4233 52.4874 32.2428 52.4874 28.0004C52.4874 21.4595 49.9403 15.3102 45.3153 10.6851C40.6901 6.06007 34.5408 3.51294 28 3.51294C21.4592 3.51294 15.3099 6.06007 10.6847 10.6851C6.0597 15.3102 3.51257 21.4595 3.51257 28.0004C3.51257 34.5412 6.0597 40.6905 10.6847 45.3156C15.3099 49.9407 21.4592 52.4878 28 52.4878C31.3155 52.4878 34.5313 51.8365 37.5585 50.5517C37.9755 50.3748 38.1701 49.8932 37.9932 49.4763C37.8162 49.0592 37.3347 48.865 36.9177 49.0415C34.0944 50.2397 31.094 50.8472 28 50.8472C15.4023 50.8472 5.1532 40.5981 5.1532 28.0004C5.1532 15.4027 15.4023 5.15356 28 5.15356C40.5977 5.15356 50.8468 15.4027 50.8468 28.0004C50.8468 31.959 49.8188 35.859 47.8737 39.2787C45.9868 42.5961 43.2741 45.4141 40.0291 47.4278C39.6441 47.6666 39.5257 48.1724 39.7646 48.5573C40.0035 48.9423 40.5092 49.0607 40.8941 48.8218Z" fill="white"/>
<path d="M24.603 24.8313L33.2222 27.1854C33.5295 27.2693 33.8413 27.3107 34.1514 27.3107C34.7598 27.3107 35.3608 27.1508 35.9032 26.8377C36.7315 26.3595 37.3224 25.5842 37.5668 24.6541C38.0677 22.7497 36.942 20.7817 35.0575 20.2671L26.4385 17.913C26.2272 17.8553 26.0018 17.8846 25.8122 17.9939C25.6226 18.1032 25.4846 18.2839 25.4289 18.4957L24.0258 23.8313C23.9115 24.2666 24.1689 24.7128 24.603 24.8313ZM26.8051 19.714L34.6254 21.8499C35.6454 22.1285 36.2532 23.1993 35.9803 24.2371C35.848 24.7404 35.5294 25.1594 35.0831 25.417C34.6463 25.6691 34.139 25.7352 33.6546 25.603L25.8193 23.463L26.8051 19.714Z" fill="white"/>
<path d="M27.0949 42.0323C27.2958 42.0872 27.5 42.1144 27.7032 42.1144C28.1048 42.1144 28.5022 42.0084 28.8617 41.8008C29.4228 41.4769 29.8241 40.9479 29.9916 40.3112L30.201 39.5146L31.2667 39.8057C33.0438 40.291 34.9089 40.0466 36.5184 39.1175C38.1795 38.1587 39.3664 36.5959 39.8605 34.7171C40.4243 32.5729 39.9986 30.3398 38.7247 28.5904C39.5942 27.7379 40.2122 26.6709 40.5298 25.4633C41.4608 21.9231 39.4624 18.2772 36.0596 17.2364L36.3483 16.1384C36.686 14.8544 35.9445 13.532 34.6955 13.191C34.0977 13.0278 33.4702 13.1099 32.9287 13.4224C32.3675 13.7463 31.9662 14.2754 31.7988 14.912L31.5147 15.992L29.8294 15.5317L30.1174 14.4368C30.455 13.1526 29.7137 11.8304 28.4645 11.4892C27.8666 11.3259 27.2392 11.4082 26.6976 11.7208C26.1365 12.0446 25.7353 12.5737 25.5678 13.2104L25.2839 14.2903L21.8779 13.3601C21.2801 13.1967 20.6526 13.2792 20.1111 13.5916C19.55 13.9155 19.1487 14.4446 18.9812 15.0812C18.6436 16.3653 19.385 17.6876 20.6341 18.0287L22.2594 18.4726L18.8578 31.4084L17.2474 30.9686C16.6496 30.8052 16.0221 30.8876 15.4806 31.2002C14.9194 31.524 14.5182 32.0531 14.3507 32.6897C14.0131 33.9738 14.7545 35.2961 16.0036 35.6372L19.4245 36.5714L19.2111 37.3831C18.8735 38.6672 19.615 39.9895 20.864 40.3306C21.462 40.494 22.0895 40.4116 22.6309 40.099C23.192 39.7751 23.5933 39.2461 23.7607 38.6094L23.9702 37.8129L25.6555 38.2731L25.4421 39.0847C25.1044 40.3689 25.8458 41.6912 27.0949 42.0323ZM23.6035 36.0121C23.5324 35.9926 23.4598 35.9831 23.3874 35.9831C23.2447 35.9831 23.1031 36.0204 22.9773 36.0929C22.7877 36.2023 22.6497 36.383 22.594 36.5947L22.1739 38.1922C22.1187 38.4021 21.9896 38.5746 21.8105 38.678C21.6511 38.77 21.4683 38.7947 21.2962 38.7478C20.9115 38.6428 20.6878 38.2176 20.7976 37.8002L21.2177 36.2027C21.3321 35.7675 21.0747 35.3214 20.6406 35.2028L16.4358 34.0544C16.0511 33.9494 15.8274 33.5243 15.9372 33.1068C15.9925 32.8968 16.1215 32.7242 16.3006 32.6208C16.46 32.5288 16.6427 32.5042 16.815 32.551L19.2242 33.209C19.4353 33.2667 19.6607 33.2376 19.8504 33.1282C20.04 33.0188 20.178 32.8381 20.2337 32.6264L24.0527 18.1037C24.1671 17.6685 23.9096 17.2224 23.4756 17.1038L21.0664 16.4458C20.6817 16.3408 20.458 15.9156 20.5678 15.4982C20.6231 15.2883 20.7521 15.1157 20.9312 15.0123C21.0906 14.9202 21.2733 14.8956 21.4456 14.9425L25.6504 16.091C25.8616 16.1486 26.0869 16.1196 26.2767 16.0101C26.4662 15.9008 26.6042 15.7201 26.6599 15.5083L27.1545 13.6275C27.2097 13.4176 27.3388 13.245 27.5178 13.1417C27.6773 13.0497 27.86 13.025 28.0322 13.0719C28.4169 13.1769 28.6405 13.602 28.5307 14.0195L28.0361 15.9003C27.9217 16.3355 28.1792 16.7817 28.6132 16.9002L31.8814 17.7929C32.0926 17.8505 32.318 17.8215 32.5076 17.712C32.6972 17.6026 32.8352 17.4219 32.8909 17.2102L33.3855 15.3294C33.4407 15.1194 33.5698 14.9468 33.7488 14.8434C33.9083 14.7515 34.091 14.7269 34.2632 14.7738C34.6479 14.8788 34.8716 15.3039 34.7617 15.7214L34.2672 17.6022C34.1528 18.0374 34.4103 18.4836 34.8443 18.6021L35.4368 18.7639C38.0905 19.4887 39.6634 22.3069 38.943 25.0462C38.646 26.1758 38.0045 27.1423 37.0879 27.8412C36.9043 27.9812 36.7881 28.1922 36.7681 28.4224C36.7481 28.6525 36.826 28.8804 36.9826 29.0501C38.2847 30.4603 38.7674 32.4229 38.2738 34.3001C37.8918 35.7522 36.9773 36.9585 35.6982 37.6968C34.4708 38.4053 33.0505 38.5923 31.699 38.2232L29.8345 37.714C29.6233 37.6561 29.398 37.6854 29.2082 37.7948C29.0187 37.9042 28.8807 38.0849 28.825 38.2966L28.4049 39.894C28.3496 40.1039 28.2206 40.2765 28.0415 40.3799C27.8821 40.472 27.6994 40.4965 27.5271 40.4497C27.1425 40.3447 26.9189 39.9195 27.0287 39.502L27.4488 37.9046C27.5632 37.4694 27.3058 37.0233 26.8717 36.9047L23.6035 36.0121Z" fill="white"/>
<path d="M33.1075 36.8589C33.7819 36.8589 34.4481 36.6816 35.0497 36.3344C35.9696 35.8034 36.6259 34.9417 36.8977 33.908C37.454 31.7926 36.2056 29.6071 34.115 29.0361L24.2239 26.3347C24.0127 26.2769 23.7873 26.3061 23.5976 26.4155C23.408 26.5249 23.27 26.7057 23.2143 26.9173L21.6099 33.0185C21.4955 33.4537 21.7531 33.8998 22.1871 34.0184L32.0782 36.7198C32.4185 36.8129 32.7641 36.8589 33.1075 36.8589ZM24.5905 28.1355L33.6827 30.6188C34.9089 30.9537 35.6394 32.2421 35.3111 33.4909C35.1515 34.0978 34.7674 34.6031 34.2295 34.9135C33.7037 35.217 33.0932 35.2964 32.5106 35.1373L23.4033 32.6499L24.5905 28.1355Z" fill="white"/>
</svg>
