<svg width="108" height="111" viewBox="0 0 108 111" fill="none" xmlns="http://www.w3.org/2000/svg">
<path d="M16.8539 64.7137C16.0476 65.0786 15.0994 64.7213 14.7345 63.915C10.7311 55.0696 14.6697 44.618 23.5151 40.6147L25.823 39.5701C26.6294 39.2052 27.5767 39.5629 27.9416 40.3692C28.3066 41.1755 27.9501 42.1233 27.1438 42.4882L24.8358 43.5328C17.5989 46.8082 14.3767 55.3586 17.6517 62.5946C18.0167 63.401 17.6602 64.3488 16.8539 64.7137Z" fill="white"/>
<path d="M31.7526 48.6042C31.1516 48.8762 30.4202 48.7577 29.9374 48.2531C28.4289 46.6822 27.2056 44.8704 26.3 42.8696C21.931 33.2163 26.2292 21.8105 35.8817 17.4418C45.5351 13.0727 56.9409 17.371 61.31 27.0243C62.1558 28.8932 62.6943 30.865 62.9126 32.8872C63.0069 33.7667 62.3687 34.5564 61.4916 34.6517C60.6129 34.7457 59.824 34.1091 59.728 33.2304C59.5462 31.5466 59.0968 29.9026 58.3919 28.345C54.7515 20.3019 45.2453 16.7188 37.2021 20.3591C29.1589 23.9994 25.577 33.5061 29.2173 41.5493C29.9729 43.2187 30.9926 44.7273 32.2472 46.0371C32.8597 46.6751 32.8386 47.6883 32.2003 48.3C32.0657 48.4293 31.9137 48.5313 31.7526 48.6042Z" fill="white"/>
<path d="M41.1638 29.1118C40.3575 29.4768 39.4102 29.1191 39.0452 28.3128L37.7249 25.3955C37.3599 24.5892 37.7168 23.6422 38.5231 23.2773C39.3294 22.9123 40.2772 23.2688 40.6422 24.0751L41.9625 26.9924C42.3274 27.7987 41.9701 28.7469 41.1638 29.1118Z" fill="white"/>
<path d="M99.5697 81.7675L43.6354 107.083C39.3509 109.022 34.2855 107.114 32.346 102.829L14.2929 62.9407C12.3533 58.6554 14.2624 53.5896 18.5469 51.6504L74.4811 26.3349C78.7665 24.3953 83.8314 26.3047 85.771 30.5901L103.824 70.4772C105.764 74.763 103.855 79.8279 99.5697 81.7675ZM19.8676 54.5686C17.1915 55.7797 15.9986 58.9435 17.2102 61.6204L35.2629 101.507C36.4744 104.184 39.639 105.377 42.3151 104.166L98.2493 78.8502C100.926 77.6386 102.118 74.4744 100.907 71.7984L82.8537 31.9104C81.6421 29.2335 78.4779 28.0418 75.8019 29.253L19.8676 54.5686Z" fill="white"/>
<path d="M98.6208 62.8636L81.8449 70.4563C76.6172 72.8224 70.4384 70.4939 68.0723 65.2662C65.7059 60.0376 68.0343 53.8588 73.2621 51.4927L90.0379 43.9C90.8443 43.5351 91.7924 43.8924 92.1574 44.6987L99.4199 60.7451C99.7848 61.5514 99.4271 62.4987 98.6208 62.8636ZM74.5824 54.41C70.9632 56.0481 69.3512 60.3257 70.9896 63.9458C72.6277 67.5651 76.9053 69.1771 80.5246 67.539L95.8422 60.6063L89.9001 47.4773L74.5824 54.41Z" fill="white"/>
<path d="M79.8649 66.0801C77.0503 67.354 73.7232 66.1002 72.4493 63.2856C71.1751 60.4701 72.4289 57.1431 75.2435 55.8692C78.0589 54.5949 81.386 55.8487 82.6602 58.6642C83.9341 61.4788 82.6803 64.8058 79.8649 66.0801ZM76.5638 58.7865C75.3577 59.3324 74.8203 60.7582 75.3666 61.9652C75.9125 63.1714 77.3384 63.7087 78.5445 63.1628C79.7515 62.6165 80.2888 61.1906 79.743 59.9845C79.1967 58.7775 77.7708 58.2402 76.5638 58.7865Z" fill="white"/>
<path d="M19.7738 63.399L16.8565 64.7193C16.0502 65.0843 15.102 64.727 14.7371 63.9206C14.3721 63.1143 14.7298 62.167 15.5361 61.802L18.4534 60.4817C19.2598 60.1168 20.2075 60.4732 20.5725 61.2796C20.9374 62.0859 20.5801 63.034 19.7738 63.399Z" fill="white"/>
<path d="M76.7972 37.5904L71.0945 40.1714C70.2882 40.5363 69.34 40.179 68.9751 39.3727C68.6102 38.5664 68.9679 37.6191 69.7742 37.2541L75.4769 34.6731C76.2832 34.3082 77.231 34.6646 77.5959 35.471C77.9609 36.2773 77.6035 37.2255 76.7972 37.5904ZM65.3927 42.752L59.69 45.333C58.8837 45.698 57.9355 45.3407 57.5706 44.5343C57.2056 43.728 57.5633 42.7807 58.3696 42.4158L64.0723 39.8347C64.8787 39.4698 65.8256 39.8267 66.1905 40.633C66.5555 41.4393 66.199 42.3871 65.3927 42.752ZM53.989 47.9133L48.2863 50.4943C47.48 50.8592 46.5318 50.5019 46.1669 49.6956C45.8019 48.8893 46.1596 47.942 46.9659 47.577L52.6686 44.996C53.4749 44.6311 54.4219 44.9879 54.7868 45.7942C55.1518 46.6006 54.7953 47.5484 53.989 47.9133ZM42.5836 53.0753L36.8809 55.6563C36.0746 56.0213 35.1273 55.6636 34.7623 54.8572C34.3974 54.0509 34.7542 53.104 35.5606 52.739L41.2632 50.158C42.0696 49.7931 43.0174 50.1496 43.3823 50.9559C43.7472 51.7622 43.3899 52.7104 42.5836 53.0753ZM31.1782 58.2373L25.4764 60.818C24.67 61.1829 23.7219 60.8256 23.3569 60.0193C22.992 59.2129 23.3497 58.2656 24.156 57.9007L29.8587 55.3197C30.665 54.9547 31.612 55.3116 31.9769 56.1179C32.3419 56.9242 31.9845 57.8724 31.1782 58.2373Z" fill="white"/>
<path d="M85.4169 33.689L82.4996 35.0094C81.6933 35.3743 80.7451 35.017 80.3802 34.2107C80.0153 33.4043 80.373 32.457 81.1793 32.0921L84.0966 30.7717C84.9029 30.4068 85.8507 30.7633 86.2156 31.5696C86.5805 32.3759 86.2232 33.3241 85.4169 33.689Z" fill="white"/>
<path d="M44.7363 41.5554L42.8686 37.4286C42.8221 37.3259 42.8508 37.2516 42.9518 37.2059L46.5744 35.5663C48.258 34.8043 49.6402 35.3474 50.287 36.7764C50.6519 37.5827 50.6453 38.3681 50.2904 39.0416L53.8479 37.4315C53.7767 36.7829 53.6109 36.1077 53.2852 35.3882C52.3271 33.2714 50.4543 32.4597 49.1982 32.5354L49.1748 32.4836C50.006 31.4004 50.416 29.8642 49.5271 27.9002C48.2683 25.1189 45.7035 24.0673 42.03 25.7299L35.5769 28.6505C35.4241 28.7196 35.3672 28.8671 35.4371 29.0215L41.7264 42.9177L44.7363 41.5554ZM39.6011 30.2093C39.5554 30.1083 39.5838 30.0331 39.6848 29.9874L43.1546 28.4169C44.6846 27.7245 46.0454 28.2158 46.6688 29.5931C47.2808 30.9453 46.7511 32.2903 45.2211 32.9828L41.7512 34.5532C41.6502 34.5989 41.575 34.5706 41.5293 34.4696L39.6011 30.2093Z" fill="white"/>
</svg>
