<svg width="97" height="97" viewBox="0 0 97 97" fill="none" xmlns="http://www.w3.org/2000/svg">
<path d="M53.6948 45.1164C54.1155 44.2286 54.225 43.225 54.006 42.2674L53.9066 41.842C53.3759 39.6358 51.2689 38.1833 49.0183 38.472L48.7046 37.1283C48.5374 36.4122 47.8214 35.9673 47.1054 36.1345C46.3895 36.3016 45.9444 37.0175 46.1116 37.7336L46.4143 39.0301L43.8211 39.6355L43.5184 38.339C43.3513 37.6229 42.6354 37.178 41.9193 37.3452C41.2032 37.5123 40.7583 38.2282 40.9254 38.9443L41.2281 40.2408L39.9316 40.5435C39.2155 40.7107 38.7706 41.4266 38.9378 42.1427C39.105 42.8588 39.821 43.3036 40.537 43.1365L49.1417 41.1277C50.1057 40.8934 51.0773 41.4837 51.3136 42.4472L51.4129 42.8726C51.6277 43.8412 51.0177 44.8007 50.0498 45.0174L45.3346 46.1181C45.1675 45.402 44.4516 44.9571 43.7355 45.1243C43.0194 45.2914 42.5745 46.0073 42.7416 46.7234L43.6497 50.6131C43.8169 51.3292 44.5328 51.7741 45.2488 51.6069C45.9649 51.4397 46.4099 50.7238 46.2427 50.0077L45.94 48.7113L51.1807 47.4878C52.5601 47.1483 53.9539 47.9893 54.2966 49.368L54.3527 49.6085C54.6559 50.9964 53.7785 52.3676 52.3914 52.674L43.2611 54.8054C42.545 54.9726 42.1001 55.6885 42.2672 56.4046C42.4344 57.1207 43.1505 57.5656 43.8664 57.3984L45.1629 57.0958L45.4656 58.3923C45.6327 59.1084 46.3486 59.5533 47.0647 59.3861C47.7808 59.2189 48.2257 58.503 48.0586 57.7869L47.7559 56.4904L50.349 55.8851L50.6517 57.1816C50.8189 57.8976 51.5348 58.3426 52.2509 58.1754C52.967 58.0082 53.4119 57.2923 53.2447 56.5762L52.942 55.2797L52.9964 55.267C55.8146 54.6248 57.5812 51.8227 56.9455 49.0031L56.8894 48.7625C56.4944 47.0931 55.2981 45.7276 53.6948 45.1164Z" fill="white"/>
<path d="M44.195 33.6831C44.4988 33.8618 44.8589 33.9192 45.2034 33.8442C45.2852 33.8226 45.3653 33.7947 45.443 33.7609C45.5261 33.7284 45.6034 33.6826 45.6717 33.6255C45.7453 33.5809 45.8106 33.5238 45.8647 33.4569C45.9299 33.3875 45.9837 33.3203 46.0362 33.2533C46.1211 33.1005 46.1794 32.9342 46.2085 32.7617C46.2385 32.5903 46.2347 32.4148 46.1973 32.2449C46.1143 31.9018 45.9028 31.6037 45.6064 31.4121C45.5297 31.3753 45.4518 31.3387 45.3623 31.3048C45.2842 31.2688 45.2003 31.2465 45.1146 31.2391C45.028 31.218 44.9385 31.2113 44.8497 31.2196C44.409 31.2395 44.0048 31.4713 43.7653 31.8419C43.7238 31.9165 43.6869 31.9935 43.6549 32.0726C43.6225 32.1561 43.6016 32.2436 43.5928 32.3327C43.5726 32.4151 43.5645 32.5 43.5687 32.5846C43.574 32.6738 43.5858 32.7626 43.604 32.8501C43.6457 33.0191 43.72 33.1781 43.8227 33.3185C43.9252 33.4604 44.0511 33.5836 44.195 33.6831Z" fill="white"/>
<path d="M52.8708 62.5291C52.7941 62.4924 52.7162 62.4558 52.6268 62.4219C52.5486 62.3858 52.4648 62.3636 52.3791 62.3562C52.2925 62.3351 52.2029 62.3284 52.1142 62.3366C51.6714 62.3501 51.2646 62.5835 51.0298 62.9589C50.9448 63.1116 50.8864 63.2776 50.8573 63.4499C50.8272 63.6215 50.831 63.7973 50.8686 63.9673C50.891 64.0536 50.9197 64.1382 50.9544 64.2203C50.988 64.2982 51.033 64.3707 51.0875 64.4355C51.1348 64.5118 51.1923 64.5812 51.2586 64.642C51.3226 64.6985 51.3897 64.7512 51.4597 64.7999C51.7635 64.9786 52.1237 65.036 52.4681 64.9611C52.5499 64.9394 52.6301 64.9116 52.7077 64.8777C52.7908 64.8452 52.8681 64.7995 52.9364 64.7422C53.01 64.6976 53.0753 64.6405 53.1294 64.5736C53.1946 64.5042 53.2484 64.437 53.3009 64.37C53.4818 64.0669 53.5395 63.7061 53.462 63.3617C53.4205 63.1926 53.3461 63.0333 53.2431 62.8928C53.1403 62.7514 53.0146 62.6284 52.8708 62.5291Z" fill="white"/>
<path d="M40.1049 36.0183C40.4468 35.9422 40.743 35.7298 40.9249 35.4303C40.9703 35.3549 41.0113 35.2769 41.0479 35.1967C41.0689 35.1096 41.0932 35.0359 41.113 34.9492C41.1214 34.865 41.1255 34.7687 41.1341 34.6846C41.1288 34.5953 41.1169 34.5066 41.0989 34.4191C41.0178 34.0767 40.801 33.7821 40.4984 33.6026C40.4275 33.5495 40.3489 33.5078 40.2652 33.4789C40.1904 33.4557 40.1039 33.4344 40.0177 33.4138C39.9331 33.4061 39.8359 33.4016 39.7526 33.3935C39.3086 33.4124 38.9028 33.6507 38.6701 34.0294C38.3853 34.4859 38.4049 35.0695 38.7197 35.5058C39.0342 35.9422 39.5818 36.1448 40.1049 36.0183Z" fill="white"/>
<path d="M57.9679 60.3546C57.8948 60.3055 57.8166 60.2643 57.7349 60.2315C57.6472 60.2106 57.5736 60.187 57.4872 60.1658C57.4002 60.1573 57.3126 60.1551 57.2252 60.1589C57.05 60.1591 56.8773 60.1994 56.72 60.2768C56.6399 60.3118 56.5625 60.3528 56.4882 60.399C56.4202 60.4562 56.3507 60.5133 56.2953 60.5676C56.2327 60.6306 56.1804 60.7027 56.1396 60.7814C56.0418 60.9257 55.9775 61.0902 55.9515 61.2626C55.9239 61.4387 55.9287 61.6183 55.9658 61.7926C56.0475 62.1349 56.2642 62.4295 56.5664 62.6097C56.6378 62.6623 56.7169 62.7037 56.8007 62.7326C56.8743 62.7561 56.962 62.7771 57.0482 62.7977C57.1359 62.8109 57.2245 62.8177 57.3133 62.818C57.3978 62.8143 57.482 62.8037 57.565 62.7866C57.6516 62.7643 57.7363 62.7352 57.8185 62.7C57.8978 62.6604 57.9743 62.6151 58.0472 62.5645C58.1154 62.5078 58.1708 62.4534 58.2403 62.3965C58.299 62.3309 58.3509 62.2593 58.3947 62.1829C58.5829 61.8873 58.6421 61.5277 58.5588 61.1873C58.52 61.0142 58.4496 60.8497 58.3508 60.7025C58.2462 60.5633 58.1163 60.4453 57.9679 60.3546Z" fill="white"/>
<path d="M34.6632 39.2989C34.7206 39.3677 34.7781 39.4363 34.8324 39.4917C34.8989 39.5549 34.9715 39.6113 35.0492 39.6601C35.1957 39.7488 35.3578 39.8084 35.5268 39.8358C35.703 39.8662 35.8833 39.8613 36.0575 39.8213C36.395 39.7353 36.6877 39.5253 36.8775 39.2333C36.9256 39.1553 36.9657 39.0725 36.9974 38.9863C37.0203 38.9129 37.0413 38.8259 37.0625 38.7388C37.0696 38.6549 37.0779 38.571 37.0822 38.4745C37.0789 38.3897 37.0686 38.3051 37.0512 38.222C37.0289 38.1354 36.9998 38.0505 36.9641 37.9687C36.9205 37.8967 36.8728 37.8123 36.8294 37.7403C36.772 37.6715 36.7175 37.6161 36.6614 37.5471C36.5931 37.4913 36.5217 37.4394 36.4475 37.3915C36.2979 37.3037 36.1352 37.2403 35.9658 37.2036C35.6152 37.1486 35.2568 37.2323 34.9668 37.4368C34.8314 37.5446 34.7141 37.6735 34.6192 37.8183C34.574 37.8941 34.5329 37.9723 34.4964 38.0526C34.4754 38.1397 34.4511 38.2134 34.4301 38.3004C34.4229 38.3842 34.4176 38.4808 34.4104 38.5647C34.4157 38.654 34.4274 38.7427 34.4456 38.8301C34.467 38.9123 34.4948 38.9926 34.5283 39.0705C34.5749 39.1553 34.6196 39.2269 34.6632 39.2989Z" fill="white"/>
<path d="M61.785 56.442C61.7042 56.4142 61.6216 56.3925 61.5375 56.3769C61.4501 56.3636 61.362 56.3567 61.2736 56.3563C60.8748 56.3699 60.5029 56.5607 60.2593 56.8768C60.0157 57.1928 59.9258 57.601 60.0141 57.9903C60.0579 58.1628 60.133 58.3259 60.2358 58.4712C60.3353 58.6146 60.4658 58.7338 60.6176 58.82C60.9133 59.0078 61.2729 59.0671 61.6133 58.9841C61.7016 58.9679 61.7871 58.9389 61.8667 58.8975C61.9464 58.8622 62.0234 58.8214 62.0972 58.775C62.1648 58.7193 62.2282 58.659 62.2873 58.5944C62.348 58.5339 62.4013 58.4662 62.4459 58.3932C62.5392 58.2463 62.6028 58.0825 62.6339 57.9114C62.6576 57.7357 62.6486 57.5572 62.6071 57.3849C62.5274 57.0403 62.3151 56.7411 62.0161 56.5521C61.9396 56.5155 61.8617 56.4789 61.785 56.442Z" fill="white"/>
<path d="M32.1097 42.7662C31.9253 43.068 31.8674 43.4303 31.9486 43.7746C31.9856 43.9436 32.0557 44.1038 32.1547 44.2459C32.2619 44.387 32.392 44.5092 32.5395 44.6074C32.8426 44.7882 33.2035 44.8457 33.5479 44.7685C34.0714 44.6442 34.4684 44.2168 34.5542 43.6857C34.5839 43.5144 34.5796 43.339 34.5416 43.1694C34.4575 42.8242 34.2405 42.5261 33.938 42.3395C33.3111 41.9797 32.5126 42.1661 32.1097 42.7662Z" fill="white"/>
<path d="M64.5256 51.6052C64.1487 51.3726 63.6807 51.3434 63.2777 51.5274C63.1944 51.5592 63.117 51.6048 63.0488 51.6622C62.9753 51.7068 62.9099 51.7639 62.8559 51.8308C62.7927 51.8891 62.7392 51.9571 62.6973 52.0321C62.5098 52.3331 62.4497 52.6963 62.5303 53.0416C62.611 53.387 62.8256 53.6862 63.127 53.8729C63.1978 53.9215 63.276 53.9583 63.3582 53.9826C63.4363 54.0186 63.5202 54.0409 63.6059 54.0483C63.6925 54.0695 63.7821 54.0764 63.871 54.0686C63.9556 54.0645 64.0396 54.054 64.1227 54.0372C64.466 53.9545 64.7641 53.743 64.9555 53.4462C65.0405 53.2934 65.0988 53.1271 65.1279 52.9547C65.193 52.6083 65.1095 52.2506 64.8978 51.969C64.7952 51.8275 64.6694 51.7045 64.5256 51.6052Z" fill="white"/>
<path d="M32.8801 50.2835C33.2266 50.2016 33.5255 49.9838 33.7098 49.6793C33.8917 49.3814 33.9505 49.0247 33.8741 48.6843C33.8382 48.5087 33.7623 48.3439 33.6522 48.2027C33.5533 48.0627 33.4279 47.9434 33.2831 47.8516C32.6562 47.492 31.8578 47.6784 31.4548 48.2784C31.3568 48.4227 31.2925 48.5871 31.2668 48.7596C31.2377 48.9355 31.2425 49.1155 31.2811 49.2896C31.4637 49.9942 32.1672 50.4316 32.8801 50.2835Z" fill="white"/>
<path d="M65.5657 46.4536C65.5208 46.3801 65.4634 46.3148 65.3965 46.2608C65.3337 46.1984 65.2615 46.146 65.1828 46.1057C64.8054 45.8737 64.3388 45.8397 63.9318 46.0145C63.8593 46.0589 63.7755 46.1056 63.7031 46.1501C63.6351 46.2073 63.5782 46.2615 63.5101 46.3187C63.4545 46.3871 63.4024 46.4586 63.3545 46.5326C63.167 46.8282 63.1077 47.1873 63.1902 47.5276C63.2062 47.616 63.2356 47.7014 63.2774 47.7809C63.3124 47.8608 63.3533 47.938 63.3995 48.0121C63.4533 48.0816 63.5143 48.1452 63.5813 48.202C63.6381 48.2663 63.7058 48.32 63.7813 48.3608C63.8573 48.4057 63.9355 48.4468 64.0155 48.4837C64.1017 48.5043 64.1769 48.5282 64.2631 48.5488C64.3502 48.5576 64.4378 48.5601 64.5252 48.5563C64.6145 48.5576 64.7034 48.5458 64.7894 48.5214C65.1314 48.4456 65.4276 48.2335 65.6096 47.934C65.6588 47.8605 65.6999 47.7821 65.7324 47.6998C65.7655 47.6206 65.7879 47.5372 65.7987 47.452C65.8176 47.3652 65.8244 47.2763 65.8184 47.1877C65.8131 47.0984 65.8014 47.0096 65.7832 46.9222C65.7618 46.8401 65.7341 46.7597 65.7004 46.6819C65.6664 46.5997 65.621 46.523 65.5657 46.4536Z" fill="white"/>
<path d="M34.9723 55.0863C35.0613 54.9396 35.1209 54.777 35.1476 54.6075C35.1838 54.4321 35.1789 54.2506 35.1333 54.0774C35.0511 53.7384 34.8403 53.4446 34.5455 53.258C33.9195 52.8914 33.116 53.079 32.7172 53.6848C32.5259 53.9799 32.4622 54.3399 32.5403 54.6828C32.5828 54.856 32.6582 55.0194 32.7622 55.1644C32.8618 55.3076 32.9923 55.4267 33.144 55.5131C33.44 55.7005 33.7992 55.7596 34.1395 55.6766C34.2278 55.6603 34.3132 55.6314 34.3931 55.5906C34.4686 55.5564 34.5414 55.5163 34.6108 55.4711C34.6803 55.4142 34.7483 55.3568 34.8179 55.2999C34.8734 55.2316 34.9249 55.1603 34.9723 55.0863Z" fill="white"/>
<path d="M62.0923 41.1261C61.9056 41.427 61.8475 41.7903 61.9312 42.1345C61.9461 42.2185 61.9746 42.2995 62.0153 42.3746C62.0488 42.4552 62.0896 42.5327 62.1373 42.6058C62.1912 42.6753 62.2522 42.7389 62.3191 42.7957C62.3731 42.8627 62.4414 42.9168 62.519 42.9539C62.5949 42.9992 62.6732 43.0405 62.7534 43.0774C62.8396 43.098 62.9147 43.1219 63.0009 43.1425C63.0855 43.1501 63.1814 43.155 63.266 43.1628C63.3549 43.1577 63.4432 43.1463 63.5304 43.1285C63.873 43.0474 64.168 42.8303 64.3473 42.5273C64.4001 42.4561 64.4416 42.3774 64.4703 42.2936C64.5064 42.2155 64.5289 42.1316 64.5366 42.0458C64.5575 41.9594 64.5642 41.8701 64.5563 41.7815C64.5521 41.6968 64.5412 41.6125 64.5242 41.5293C64.5017 41.4427 64.473 41.358 64.4382 41.2757C64.4042 41.1938 64.3589 41.1169 64.3036 41.0474C64.2561 40.9759 64.1991 40.911 64.1344 40.8546C64.0687 40.7956 63.9971 40.7437 63.9207 40.6996C63.5437 40.467 63.0757 40.4378 62.6728 40.6218C62.5925 40.6567 62.515 40.6975 62.441 40.744C62.3729 40.8012 62.316 40.8552 62.2479 40.9119C62.1922 40.9802 62.1403 41.0518 62.0923 41.1261Z" fill="white"/>
<path d="M35.7418 58.3247C35.3598 58.953 35.5509 59.7715 36.1716 60.1657C36.4748 60.3465 36.8356 60.4041 37.18 60.3269C37.7065 60.2056 38.1071 59.7772 38.1927 59.2437C38.2784 58.7102 38.0322 58.178 37.5703 57.8978C36.9431 57.5381 36.1447 57.7245 35.7418 58.3247Z" fill="white"/>
<path d="M59.6453 35.9688C59.562 36.0006 59.4846 36.0463 59.4164 36.1037C59.3429 36.1482 59.2775 36.2053 59.2235 36.2722C59.1644 36.3341 59.1112 36.4015 59.0649 36.4735C59.0193 36.5488 58.9783 36.627 58.9419 36.7071C58.9102 36.7908 58.8892 36.8782 58.8797 36.9672C58.8653 37.0504 58.8579 37.1345 58.8571 37.219C58.8621 37.3082 58.8733 37.397 58.8911 37.4847C58.976 37.8297 59.1926 38.1276 59.4947 38.3145C59.5679 38.3585 59.6454 38.3952 59.7258 38.4242C59.8039 38.4602 59.8878 38.4825 59.9735 38.4899C60.0602 38.5111 60.1497 38.5179 60.2386 38.5102C60.3232 38.5061 60.4073 38.4956 60.4903 38.4788C60.5768 38.456 60.6616 38.4271 60.7438 38.3922C60.8214 38.3589 60.8938 38.3143 60.9585 38.2599C61.0348 38.2121 61.1043 38.1543 61.1654 38.0881C61.218 38.0216 61.2705 37.9548 61.323 37.8877C61.3642 37.8131 61.4009 37.7359 61.4333 37.657C61.4659 37.5733 61.4866 37.4857 61.4953 37.3961C61.5155 37.3137 61.5235 37.2289 61.5193 37.1441C61.5131 36.965 61.472 36.7889 61.3983 36.6257C61.3647 36.5478 61.3199 36.4753 61.2652 36.4104C61.2178 36.3344 61.1603 36.2652 61.0943 36.2046C61.0305 36.1479 60.9634 36.0952 60.8932 36.0467C60.5141 35.8205 60.0493 35.7915 59.6453 35.9688Z" fill="white"/>
<path d="M42.396 61.584C42.3386 61.5152 42.2811 61.4466 42.2279 61.3903C42.1651 61.3279 42.093 61.2755 42.0142 61.2353C41.8696 61.1375 41.7049 61.0732 41.5324 61.0473C41.1818 60.9923 40.8234 61.076 40.5334 61.2805C40.3905 61.3801 40.2716 61.5105 40.1859 61.6621C40.1331 61.7332 40.0916 61.8119 40.0629 61.8957C40.0389 61.97 40.0178 62.0572 39.9967 62.1441C39.9894 62.2272 39.9811 62.3113 39.977 62.4084C39.9813 62.4932 39.9922 62.5775 40.0092 62.6606C40.091 63.007 40.3085 63.306 40.6127 63.4905C40.7594 63.5835 40.9225 63.6473 41.0933 63.6787C41.2693 63.7051 41.4487 63.6959 41.621 63.6517C41.7902 63.6149 41.9504 63.5448 42.0923 63.4455C42.2318 63.3417 42.3502 63.2121 42.441 63.0637C42.6316 62.7633 42.6941 62.3991 42.6148 62.0524C42.5935 61.9702 42.5653 61.8899 42.5307 61.8123C42.484 61.727 42.4392 61.6553 42.396 61.584Z" fill="white"/>
<path d="M55.0514 34.9763C55.3466 35.1681 55.707 35.2322 56.0502 35.1537C56.1366 35.1309 56.2214 35.102 56.3036 35.0671C56.3854 35.033 56.4619 34.9874 56.5311 34.9318C56.603 34.8851 56.6679 34.8283 56.7241 34.7632C56.7801 34.695 56.8321 34.6236 56.8797 34.5494C56.9728 34.4027 57.0367 34.2392 57.0678 34.0682C57.1439 33.5376 56.9037 33.0113 56.4529 32.7211C56.3807 32.6753 56.303 32.6385 56.2217 32.6115C56.1401 32.5794 56.0564 32.5533 55.9711 32.5331C55.8844 32.5242 55.7973 32.5216 55.7102 32.5253C55.2165 32.534 54.7689 32.8175 54.55 33.26C54.3309 33.7026 54.3772 34.2303 54.6697 34.6281C54.7693 34.7713 54.8998 34.8903 55.0514 34.9763Z" fill="white"/>
<path d="M47.3237 62.8396C46.6968 62.48 45.8984 62.6664 45.4955 63.2664C45.4024 63.4133 45.3386 63.5766 45.3074 63.7476C45.2826 63.9234 45.2916 64.1023 45.3343 64.2747C45.3713 64.4437 45.4414 64.6039 45.5404 64.746C45.6442 64.8857 45.7737 65.0041 45.9223 65.0947C46.2196 65.2873 46.5823 65.3505 46.9272 65.27C47.2721 65.1894 47.5694 64.972 47.7507 64.6679C47.8438 64.5209 47.9075 64.3573 47.9387 64.1861C47.9695 64.0149 47.9657 63.8392 47.9274 63.6693C47.8842 63.4963 47.8089 63.333 47.7056 63.1877C47.6019 63.0482 47.4722 62.9299 47.3237 62.8396Z" fill="white"/>
<path d="M49.9754 33.4958C50.049 33.5193 50.1366 33.5395 50.2229 33.5609C50.3099 33.5697 50.3975 33.572 50.4849 33.5678C50.57 33.5705 50.6548 33.56 50.7367 33.5364C50.825 33.5203 50.9105 33.4912 50.9901 33.4499C51.0702 33.4148 51.1477 33.374 51.2219 33.3276C51.29 33.2704 51.3455 33.2166 51.415 33.1597C51.474 33.094 51.5257 33.0222 51.5693 32.9455C51.9526 32.3223 51.7622 31.5069 51.1426 31.1178C51.0696 31.0684 50.9915 31.0269 50.9095 30.9941C50.8285 30.9672 50.7458 30.9455 50.662 30.929C50.5742 30.9163 50.4856 30.9094 50.3969 30.9087C50.2234 30.9218 50.053 30.9615 49.8917 31.0266C49.8124 31.0664 49.7359 31.1117 49.663 31.1622C49.5948 31.2188 49.5254 31.2765 49.4699 31.3302C49.4072 31.3932 49.3547 31.4657 49.3144 31.5446C49.1218 31.8418 49.0585 32.2044 49.1391 32.5493C49.2195 32.894 49.437 33.1913 49.7411 33.3725C49.8122 33.4254 49.8913 33.467 49.9754 33.4958Z" fill="white"/>
<path d="M81.5521 43.1323C82.9831 42.7965 83.8724 41.3658 83.5398 39.9338L82.5888 35.86C84.9654 34.6215 86.0479 31.8072 85.1142 29.2952C84.1804 26.7832 81.5223 25.3597 78.9139 25.9744C76.3029 26.5782 74.5499 29.0316 74.8248 31.6973C75.0998 34.3631 77.3165 36.407 79.9958 36.4653L80.9468 40.5391L70.5744 42.9606C69.2249 37.108 65.59 32.0387 60.4798 28.8826C59.477 28.2692 58.4286 27.7338 57.3435 27.2815L56.9583 25.6311L75.11 21.3936C76.541 21.0578 77.4303 19.6271 77.0978 18.1951L76.4494 15.4179C78.8258 14.1747 79.9068 11.3585 78.9729 8.84462C78.039 6.33059 75.3815 4.90322 72.7698 5.51292C70.1581 6.12261 68.4074 8.57908 68.6831 11.2466C68.9588 13.9142 71.1751 15.9606 73.8563 16.0232L74.5046 18.8003L56.3529 23.0378C54.9263 23.373 54.0378 24.7966 54.3638 26.2253C51.2095 25.3912 47.9112 25.2545 44.6987 25.8252L44.0786 23.1691L49.2648 21.9584C50.6958 21.6226 51.585 20.1917 51.2525 18.7599L50.9069 17.2792C53.2832 16.036 54.3643 13.2198 53.4304 10.7059C52.4965 8.19188 49.8389 6.76451 47.2274 7.37417C44.6159 7.98384 42.865 10.4403 43.1407 13.1079C43.4164 15.7754 45.6327 17.8219 48.3139 17.8844L48.6595 19.3651L43.4734 20.5758C42.0423 20.9116 41.1531 22.3425 41.4856 23.7743L42.1057 26.4305C40.3687 26.9341 38.6985 27.6439 37.1306 28.5452L34.7861 18.5024C34.4502 17.0713 33.0194 16.1821 31.5876 16.5146L18.438 19.5844C17.1948 17.2081 14.3785 16.127 11.8646 17.0609C9.35061 17.9948 7.92324 20.6523 8.53294 23.264C9.14264 25.8757 11.5991 27.6264 14.2667 27.3507C16.9342 27.075 18.9806 24.8587 19.0432 22.1775L32.1928 19.1078L34.771 30.1518C29.6108 34.0938 26.3956 40.0651 25.9453 46.5432L14.606 49.1903L13.0496 42.5235C15.4259 41.2803 16.507 38.4641 15.5731 35.9502C14.6392 33.4362 11.9816 32.0088 9.36995 32.6185C6.75841 33.2282 5.00758 35.6847 5.28328 38.3522C5.55898 41.0198 7.77527 43.0662 10.4564 43.1288L12.0128 49.7956C12.3486 51.2266 13.7795 52.1158 15.2113 51.7833L25.9414 49.2784C26.008 50.6164 26.1921 51.9459 26.4916 53.2516L23.8986 53.8569C22.4676 54.1927 21.5784 55.6236 21.9108 57.0554L26.1484 75.2072L24.6677 75.5528C23.4245 73.1765 20.6083 72.0954 18.0944 73.0293C15.5805 73.9632 14.1531 76.6207 14.7628 79.2323C15.3725 81.8438 17.829 83.5946 20.4965 83.3189C23.1641 83.0432 25.2105 80.8269 25.2731 78.1458L26.7537 77.8002C28.1847 77.4643 29.074 76.0334 28.7415 74.6016L24.504 56.4502L27.2634 55.806C29.9467 63.2714 36.3579 68.7756 44.1433 70.2981L47.0242 82.6386L39.0608 84.4976C37.8176 82.1213 35.0013 81.0402 32.4875 81.9741C29.9736 82.908 28.5462 85.5656 29.1559 88.1771C29.7655 90.7886 32.222 92.5395 34.8896 92.2638C37.5571 91.9881 39.6036 89.7718 39.6661 87.0906L47.6296 85.2316C49.0606 84.8957 49.9499 83.465 49.6173 82.033L46.9701 70.6934C48.775 70.8073 50.587 70.7042 52.3673 70.3867L52.9874 73.0429C53.3232 74.4739 54.7541 75.3632 56.1859 75.0307L65.2617 72.9119L65.6073 74.3926C63.231 75.6358 62.1499 78.452 63.0838 80.9659C64.0177 83.4798 66.6753 84.9071 69.2868 84.2975C71.8983 83.6878 73.6492 81.2313 73.3735 78.5638C73.0978 75.8962 70.8815 73.8498 68.2003 73.7872L67.8547 72.3066C67.5188 70.8756 66.088 69.9863 64.6561 70.3188L55.5804 72.4376L54.9603 69.7814C60.2802 68.2291 64.838 64.7638 67.7565 60.0527C68.9385 58.1554 69.8341 56.0941 70.414 53.9354L80.7751 51.5166L83.8448 64.6662C81.4685 65.9094 80.3874 68.7257 81.3213 71.2396C82.2553 73.7534 84.9128 75.1808 87.5243 74.5711C90.1358 73.9615 91.8867 71.505 91.611 68.8374C91.3353 66.1699 89.119 64.1234 86.4378 64.0609L83.3681 50.9113C83.0322 49.4803 81.6014 48.591 80.1696 48.9235L70.9594 51.0736C71.2011 49.2556 71.2191 47.4148 71.0132 45.5923L81.552 43.132L81.5521 43.1323ZM77.5314 31.7661C77.1971 30.3339 78.087 28.9019 79.5192 28.5675C80.9514 28.2332 82.3834 29.1231 82.7177 30.5553C83.0502 31.9871 82.1611 33.418 80.73 33.7538C79.2978 34.088 77.8658 33.1981 77.5314 31.7661ZM71.392 11.3238C71.0577 9.89166 71.9476 8.45967 73.3798 8.12532C74.812 7.79098 76.244 8.68092 76.5783 10.1131C76.9127 11.5453 76.0227 12.9773 74.5906 13.3116C73.1586 13.6441 71.7277 12.7549 71.392 11.3238ZM45.8495 13.1851C45.5151 11.753 46.4051 10.321 47.8373 9.98662C49.2694 9.65227 50.7014 10.5422 51.0358 11.9744C51.3701 13.4066 50.4802 14.8386 49.048 15.1729C47.6162 15.5054 46.1853 14.6162 45.8495 13.1851ZM14.3439 24.6418C12.9117 24.9761 11.4797 24.0862 11.1453 22.654C10.811 21.2218 11.7009 19.7898 13.1331 19.4555C14.5653 19.1211 15.9973 20.0111 16.3316 21.4432C16.6642 22.8752 15.7749 24.3059 14.3439 24.6418ZM11.1906 40.4173C9.75875 40.7498 8.32788 39.8605 7.99204 38.4295C7.6577 36.9973 8.54764 35.5653 9.97982 35.231C11.412 34.8966 12.844 35.7866 13.1783 37.2187C13.5127 38.6509 12.6227 40.0829 11.1906 40.4173ZM20.5736 80.6102C19.1414 80.9446 17.7094 80.0546 17.3751 78.6224C17.0408 77.1903 17.9307 75.7583 19.3629 75.4239C20.7951 75.0896 22.2271 75.9795 22.5614 77.4117C22.8939 78.8437 22.0047 80.2744 20.5736 80.6102ZM34.9667 89.555C33.5345 89.8894 32.1025 88.9994 31.7682 87.5672C31.4338 86.1351 32.3238 84.7031 33.7559 84.3687C35.1881 84.0344 36.6201 84.9243 36.9545 86.3565C37.287 87.7885 36.3979 89.2192 34.9667 89.555ZM67.4663 76.4992C68.8981 76.1667 70.3289 77.0558 70.6648 78.487C70.9991 79.9192 70.1092 81.3512 68.677 81.6855C67.2448 82.0198 65.8128 81.1299 65.4785 79.6977C65.1442 78.2655 66.0341 76.8335 67.4663 76.4992ZM65.4951 58.6475C60.466 66.7392 50.4213 70.1516 41.504 66.7978C32.5867 63.444 27.2802 54.2582 28.8297 44.8579C30.3792 35.4575 38.3532 28.4609 47.8753 28.1467C57.3973 27.8324 65.8152 34.2883 67.9811 43.566C69.2 48.7235 68.3049 54.1542 65.4951 58.6475ZM85.7038 66.7729C87.1356 66.4404 88.5665 67.3296 88.9023 68.7606C89.2367 70.1928 88.3467 71.6248 86.9145 71.9592C85.4824 72.2935 84.0504 71.4036 83.716 69.9714C83.3817 68.5392 84.2716 67.1072 85.7038 66.7729Z" fill="white"/>
</svg>
