<svg width="74" height="74" viewBox="0 0 74 74" fill="none" xmlns="http://www.w3.org/2000/svg">
<path d="M31.7121 25.8883C34.5657 21.6052 39.561 18.9583 44.7602 18.5234C52.4132 17.8834 60.2841 22.0462 63.6249 29.0378C64.5373 30.9473 65.0663 33.0121 65.1657 35.0996C65.2287 36.4211 63.4905 36.9399 62.8316 35.7924C61.8579 34.0964 60.7654 32.4906 59.3196 31.0502C56.5931 28.334 53.1561 26.3465 49.4161 25.4081C45.9445 24.5372 42.2839 24.5295 38.816 25.4145C36.8552 25.9151 35.0795 26.716 33.3676 27.6665C32.2229 28.3022 30.986 26.9785 31.7121 25.8883ZM57.4156 37.994C55.4185 33.1055 51.3237 29.0922 46.3081 27.684C45.0451 27.3294 44.1652 28.9137 45.1254 29.8075C46.5583 31.1417 47.8688 32.5831 48.9508 34.2934C50.8641 37.318 51.9881 40.8017 52.2327 44.3725C52.496 48.2193 51.6677 52.1024 49.9269 55.5349C49.0036 57.3554 47.8138 58.8905 46.5017 60.3407C45.6141 61.322 46.6445 62.8148 47.8818 62.3464C49.8364 61.6066 51.6366 60.4655 53.1711 59.0074C58.7377 53.7176 60.2949 45.0413 57.4156 37.994ZM46.7259 41.6377C45.8689 43.477 44.8636 45.2268 43.5068 46.8349C41.1256 49.6568 37.9825 51.8611 34.5105 53.1252C30.9458 54.4229 27.0669 54.7741 23.3344 54.0942C21.4603 53.7528 19.7587 53.133 18.0966 52.3891C16.9003 51.8535 15.8064 53.3009 16.6256 54.3238C17.8974 55.9126 19.4854 57.2463 21.2852 58.2478C28.0928 62.0362 36.9735 60.7937 42.8321 55.7863C46.8155 52.3815 49.3241 47.2742 49.1089 42.1066C49.0547 40.7994 47.2785 40.4517 46.7259 41.6377ZM21.1296 47.3872C25.6252 50.2044 31.3307 51.0606 36.2406 49.2438C37.4717 48.7882 37.2532 46.9888 35.9502 46.8301C34.007 46.5934 32.0993 46.1979 30.2207 45.449C26.6523 44.0266 23.4631 41.6388 21.1283 38.5819C18.949 35.7287 17.514 32.38 16.9455 28.8379C16.6223 26.8229 16.6825 24.8818 16.8917 22.9374C17.033 21.622 15.3218 21.0198 14.5962 22.1259C13.4499 23.8734 12.6642 25.8544 12.2799 27.9357C10.8892 35.4666 14.6994 43.3576 21.1296 47.3872ZM25.4965 39.2128C26.3088 40.2404 27.9501 39.4731 27.6992 38.1875C27.3246 36.2659 27.1116 34.3294 27.2405 32.3088C27.4767 28.6103 28.69 24.9762 30.7294 21.8783C32.7756 18.7702 35.6294 16.2432 38.9362 14.5503C40.7527 13.6203 42.6176 13.0779 44.5318 12.6757C45.8265 12.4037 45.8703 10.5902 44.594 10.2418C42.5779 9.69129 40.4507 9.55622 38.3526 9.83392C30.6705 10.851 24.2802 17.049 22.5236 24.5266C21.3305 29.6055 22.3042 35.1755 25.4965 39.2128Z" fill="white"/>
</svg>
