<svg width="70" height="70" viewBox="0 0 70 70" fill="none" xmlns="http://www.w3.org/2000/svg">
<path d="M40.9542 70.0006C34.6966 70.0006 28.7368 68.0419 23.7189 64.336L22.0701 63.1184L38.9034 40.2997V11.9097H40.9542C56.9699 11.9097 69.9996 24.9394 69.9996 40.9552C69.9996 56.9709 56.9699 70.0006 40.9542 70.0006ZM27.8535 62.1876C31.7811 64.6216 36.2702 65.8991 40.9542 65.8991C54.7083 65.8991 65.898 54.7092 65.898 40.9552C65.898 27.8911 55.8039 17.1407 43.005 16.0948V41.649L27.8535 62.1876Z" fill="white"/>
<path d="M13.4604 61.3395L11.8099 60.1212C8.2276 57.4769 5.25711 53.9926 3.21945 50.045C1.11289 45.9637 -0.000549316 41.363 -0.000549316 36.7402C-0.000549316 29.7782 2.50004 23.045 7.04047 17.7809L8.37976 16.228L31.8233 36.4476L13.4604 61.3395ZM8.87099 22.068C5.78252 26.3121 4.10101 31.4491 4.10101 36.7402C4.10101 43.939 7.26181 50.8227 12.6459 55.5344L26.2665 37.0711L8.87099 22.068Z" fill="white"/>
<path d="M32.7315 28.6819L11.0164 9.9532L12.3554 8.40035C16.9584 3.06217 23.6377 0.000488281 30.6807 0.000488281H32.7315V28.6819ZM16.8798 9.59391L28.63 19.7282V4.20678C24.2271 4.65754 20.098 6.55055 16.8798 9.59391Z" fill="white"/>
</svg>
