<svg width="72" height="72" viewBox="0 0 72 72" fill="none" xmlns="http://www.w3.org/2000/svg">
<path d="M68.5399 55.8867L59.3745 20.7281C59.2377 20.2033 58.7013 19.8888 58.1766 20.0256L48.6742 22.5027C48.1495 22.6395 47.8349 23.1759 47.9717 23.7006L57.1371 58.8593L55.2366 59.3547L49.5392 37.4993C49.4024 36.9746 48.866 36.66 48.3413 36.7968L38.8389 39.2739C38.3142 39.4107 37.9996 39.9471 38.1364 40.4719L43.8338 62.3272L41.9333 62.8227L33.7588 31.465C33.622 30.9402 33.0856 30.6256 32.5609 30.7624L23.0585 33.2396C22.5338 33.3764 22.2192 33.9127 22.356 34.4375L30.5305 65.7952L28.6301 66.2906L23.9235 48.2362C23.7867 47.7114 23.2504 47.3969 22.7256 47.5337L13.2233 50.0108C12.6985 50.1476 12.3839 50.684 12.5207 51.2088L17.2273 69.2632L14.3766 70.0063L14.872 71.9068L71.886 57.044L71.3906 55.1436L68.5399 55.8867ZM26.7296 66.7861L19.1277 68.7678L14.6689 51.6636L22.2708 49.6819L26.7296 66.7861ZM40.0329 63.3181L32.431 65.2998L24.5042 34.8923L32.1061 32.9106L40.0329 63.3181ZM53.3361 59.8501L45.7343 61.8318L40.2846 40.9267L47.8865 38.945L53.3361 59.8501ZM66.6394 56.3821L59.0375 58.3638L50.1199 24.1554L57.7217 22.1737L66.6394 56.3821Z" fill="white"/>
<path d="M12.6718 39.1651C13.583 39.4763 14.5657 39.5128 15.4975 39.2697C18.1214 38.5856 19.694 35.9039 19.0098 33.2798C18.767 32.3484 18.2556 31.5087 17.5394 30.8656L22.5116 22.3856C23.417 22.7005 24.3952 22.7406 25.3233 22.501C25.6031 22.4282 25.8758 22.331 26.1385 22.2103C27.0013 21.8162 27.7302 21.1789 28.2361 20.3767L35.0037 23.2411C34.7012 25.9358 36.6406 28.3656 39.3353 28.668C42.0301 28.9705 44.4599 27.0311 44.7623 24.3364C44.9397 22.756 44.3407 21.1876 43.1549 20.1277L48.1259 11.6511C50.6993 12.5316 53.4992 11.1592 54.3796 8.58589C55.2602 6.01252 53.8878 3.21258 51.3144 2.33215C48.7411 1.4516 45.9411 2.82401 45.0607 5.39735C44.4209 7.26711 44.9608 9.33826 46.432 10.6577L41.461 19.1344C39.2532 18.3805 36.8198 19.2842 35.6394 21.2964C35.6261 21.3192 35.621 21.3428 35.6084 21.3643L28.9392 18.5424C29.3815 15.867 27.5712 13.3396 24.8958 12.8973C22.2204 12.455 19.693 14.2652 19.2507 16.9407C18.9772 18.5954 19.5673 20.2755 20.8156 21.3957L15.8455 29.8721C13.2793 28.9956 10.4886 30.3655 9.61214 32.9317C8.73581 35.4979 10.1056 38.2887 12.6718 39.1651ZM48.9668 4.15976C50.5412 3.74934 52.1502 4.69291 52.5606 6.26733C52.9711 7.84174 52.0275 9.45073 50.4531 9.86116C48.8786 10.2716 47.2697 9.32802 46.8592 7.7536C46.4488 6.17918 47.3924 4.57019 48.9668 4.15976ZM37.3326 22.2924C37.7278 21.6179 38.375 21.1281 39.1315 20.931C40.7059 20.5203 42.3149 21.4638 42.7256 23.0381C42.9229 23.7946 42.8114 24.5985 42.4157 25.2727C41.5677 26.6424 39.7936 27.1049 38.3848 26.3235C36.981 25.5009 36.51 23.696 37.3326 22.2924ZM21.3331 16.721C21.3332 16.7209 21.3331 16.7208 21.3332 16.7206C21.6035 15.9872 22.1557 15.3923 22.8672 15.0685C23.0252 14.9969 23.189 14.939 23.3568 14.8952C23.9403 14.7437 24.5562 14.7756 25.121 14.9863C26.646 15.5533 27.4227 17.2492 26.8557 18.7742C26.2887 20.2992 24.5928 21.0758 23.0678 20.5089C21.5428 19.9419 20.766 18.2461 21.3331 16.721ZM11.7169 33.0292C11.7172 33.0286 11.7175 33.0282 11.7179 33.0276C12.5414 31.6242 14.3466 31.154 15.75 31.9775C17.1533 32.801 17.6236 34.6062 16.8 36.0096C15.952 37.3793 14.1779 37.8418 12.7692 37.0604C11.3653 36.2377 10.8943 34.4329 11.7169 33.0292Z" fill="white"/>
</svg>
