<svg width="73" height="68" viewBox="0 0 73 68" fill="none" xmlns="http://www.w3.org/2000/svg">
<path d="M37.9417 11.3745C38.1256 11.379 38.306 11.3237 38.4558 11.2169L40.8127 9.54173C40.905 9.47724 40.9836 9.3951 41.044 9.30007C41.1044 9.20504 41.1454 9.09899 41.1646 8.98804C41.1839 8.87709 41.1809 8.76343 41.156 8.65362C41.1311 8.54381 41.0846 8.44002 41.0194 8.34824C40.9542 8.25646 40.8714 8.1785 40.7759 8.11887C40.6804 8.05923 40.574 8.01909 40.4629 8.00077C40.3518 7.98245 40.2382 7.9863 40.1286 8.01211C40.019 8.03792 39.9155 8.08518 39.8243 8.15115L37.4674 9.82636C37.3216 9.9303 37.2122 10.0775 37.1547 10.247C37.0972 10.4166 37.0946 10.5999 37.1471 10.7711C37.1996 10.9423 37.3046 11.0926 37.4473 11.2008C37.5899 11.3089 37.763 11.3695 37.942 11.3738L37.9417 11.3745Z" fill="white"/>
<path d="M30.9534 16.3415C31.1374 16.3459 31.3179 16.2903 31.4675 16.1832L34.807 13.8097C34.8993 13.7452 34.9779 13.663 35.0383 13.568C35.0987 13.473 35.1397 13.3669 35.1589 13.256C35.1781 13.145 35.1752 13.0314 35.1502 12.9216C35.1253 12.8118 35.0789 12.708 35.0137 12.6162C34.9484 12.5244 34.8657 12.4464 34.7701 12.3868C34.6746 12.3272 34.5683 12.287 34.4572 12.2687C34.3461 12.2504 34.2324 12.2542 34.1228 12.2801C34.0132 12.3059 33.9098 12.3531 33.8185 12.4191L30.4791 14.7926C30.333 14.8965 30.2234 15.0437 30.1657 15.2134C30.108 15.3831 30.1053 15.5666 30.1578 15.738C30.2103 15.9093 30.3155 16.0598 30.4584 16.168C30.6012 16.2762 30.7746 16.3366 30.9537 16.3408L30.9534 16.3415Z" fill="white"/>
<path d="M44.8688 51.2263L30.8572 61.1848C26.9308 63.9756 22.0565 65.0922 17.3067 64.2891C12.5569 63.486 8.32072 60.829 5.52999 56.9025C2.73925 52.9761 1.62261 48.1018 2.42569 43.352C3.22878 38.6022 5.88582 34.366 9.81228 31.5753L27.5722 18.9517C27.7546 18.8199 27.8775 18.6213 27.9141 18.3992C27.9508 18.1772 27.8981 17.9496 27.7677 17.7662C27.6374 17.5827 27.4398 17.4583 27.218 17.4199C26.9962 17.3815 26.7683 17.4322 26.5838 17.5612L8.82371 30.1848C-0.10654 36.532 -2.20786 48.9611 4.13933 57.8912C7.19534 62.1824 11.8291 65.0858 17.0236 65.964C22.218 66.8423 27.5487 65.6237 31.8456 62.5757L45.8572 52.6172C45.9495 52.5527 46.0282 52.4706 46.0886 52.3755C46.149 52.2805 46.19 52.1744 46.2092 52.0635C46.2284 51.9525 46.2254 51.8389 46.2005 51.7291C46.1756 51.6193 46.1292 51.5155 46.0639 51.4237C45.9987 51.3319 45.9159 51.254 45.8204 51.1943C45.7249 51.1347 45.6185 51.0945 45.5074 51.0762C45.3963 51.0579 45.2827 51.0618 45.1731 51.0876C45.0635 51.1134 44.9601 51.1606 44.8688 51.2266L44.8688 51.2263Z" fill="white"/>
<path d="M50.9896 48.9688C51.0819 48.9043 51.1605 48.8222 51.2209 48.7271C51.2814 48.6321 51.3223 48.5261 51.3416 48.4151C51.3608 48.3042 51.3578 48.1905 51.3329 48.0807C51.308 47.9709 51.2616 47.8671 51.1963 47.7753C51.1311 47.6835 51.0483 47.6056 50.9528 47.5459C50.8573 47.4863 50.7509 47.4462 50.6398 47.4278C50.5287 47.4095 50.4151 47.4134 50.3055 47.4392C50.1959 47.465 50.0925 47.5122 50.0012 47.5782L48.1117 48.9217C48.0194 48.9862 47.9407 49.0683 47.8803 49.1633C47.8199 49.2584 47.779 49.3644 47.7597 49.4754C47.7405 49.5863 47.7435 49.7 47.7684 49.8098C47.7933 49.9196 47.8397 50.0234 47.905 50.1152C47.9702 50.2069 48.053 50.2849 48.1485 50.3445C48.244 50.4042 48.3504 50.4443 48.4615 50.4626C48.5726 50.481 48.6862 50.4771 48.7958 50.4513C48.9054 50.4255 49.0088 50.3782 49.1001 50.3123L50.9896 48.9688Z" fill="white"/>
<path d="M54.9982 44.0265L53.0773 45.3918C52.985 45.4563 52.9064 45.5384 52.846 45.6334C52.7856 45.7285 52.7446 45.8345 52.7254 45.9455C52.7061 46.0564 52.7091 46.1701 52.734 46.2799C52.7589 46.3897 52.8054 46.4935 52.8706 46.5853C52.9358 46.6771 53.0186 46.755 53.1141 46.8147C53.2096 46.8743 53.316 46.9144 53.4271 46.9327C53.5382 46.9511 53.6518 46.9472 53.7614 46.9214C53.871 46.8956 53.9745 46.8483 54.0657 46.7824L55.9866 45.4172C56.171 45.2861 56.2958 45.0872 56.3336 44.8641C56.3713 44.641 56.3188 44.4121 56.1878 44.2276C56.0567 44.0432 55.8577 43.9184 55.6346 43.8807C55.4116 43.843 55.1826 43.8954 54.9982 44.0265Z" fill="white"/>
<path d="M61.8577 39.1515L59.9503 40.5072C59.7658 40.6383 59.641 40.8372 59.6033 41.0603C59.5656 41.2834 59.618 41.5123 59.7491 41.6968C59.8802 41.8812 60.0792 42.006 60.3022 42.0437C60.5253 42.0814 60.7543 42.029 60.9387 41.8979L62.8461 40.5421C62.9384 40.4776 63.0171 40.3955 63.0775 40.3004C63.1379 40.2054 63.1789 40.0993 63.1981 39.9884C63.2173 39.8774 63.2143 39.7638 63.1894 39.654C63.1645 39.5442 63.1181 39.4404 63.0528 39.3486C62.9876 39.2568 62.9048 39.1789 62.8093 39.1192C62.7138 39.0596 62.6074 39.0194 62.4963 39.0011C62.3852 38.9828 62.2716 38.9867 62.162 39.0125C62.0524 39.0383 61.949 39.0855 61.8577 39.1515Z" fill="white"/>
<path d="M55.8131 7.88675C56.0088 7.89166 56.2001 7.82886 56.3548 7.70897L59.635 5.174C59.814 5.03565 59.9308 4.83184 59.9596 4.60742C59.9883 4.38299 59.9268 4.15633 59.7884 3.9773C59.6501 3.79827 59.4463 3.68152 59.2218 3.65276C58.9974 3.62399 58.7707 3.68555 58.5917 3.8239L55.3114 6.35901C55.1719 6.46681 55.0693 6.61516 55.0176 6.78367C54.9659 6.95217 54.9677 7.13255 55.0226 7.30001C55.0776 7.46748 55.1831 7.6138 55.3246 7.71886C55.4662 7.82393 55.6368 7.88258 55.813 7.88675L55.8131 7.88675Z" fill="white"/>
<path d="M45.3284 15.9897C45.524 15.9945 45.7153 15.9317 45.87 15.8118L51.8343 11.2032C52.0124 11.0645 52.1284 10.8609 52.1567 10.6369C52.185 10.413 52.1234 10.1869 51.9854 10.0083C51.8473 9.82962 51.6441 9.713 51.4202 9.68394C51.1963 9.65488 50.97 9.71576 50.7909 9.85323L44.8267 14.4615C44.6872 14.5693 44.5845 14.7177 44.5328 14.8862C44.481 15.0548 44.4828 15.2352 44.5378 15.4027C44.5928 15.5702 44.6983 15.7166 44.8399 15.8216C44.9815 15.9267 45.1521 15.9853 45.3284 15.9894L45.3284 15.9897Z" fill="white"/>
<path d="M35.8418 23.3213C36.0375 23.3262 36.2289 23.2634 36.3836 23.1435L40.6991 19.8089C40.8772 19.6703 40.9932 19.4667 41.0215 19.2427C41.0498 19.0187 40.9882 18.7926 40.8502 18.614C40.7121 18.4354 40.5089 18.3187 40.285 18.2897C40.0611 18.2606 39.8348 18.3215 39.6557 18.459L35.3402 21.7941C35.2008 21.9019 35.0982 22.0503 35.0465 22.2188C34.9948 22.3873 34.9965 22.5676 35.0515 22.7351C35.1065 22.9026 35.212 23.0489 35.3535 23.154C35.495 23.259 35.6656 23.3177 35.8418 23.3218L35.8418 23.3213Z" fill="white"/>
<path d="M29.7909 27.9979C29.9866 28.0028 30.1779 27.94 30.3326 27.8201L32.9789 25.775C33.1571 25.6364 33.273 25.4328 33.3014 25.2088C33.3297 24.9848 33.2681 24.7587 33.13 24.5801C32.992 24.4015 32.7887 24.2848 32.5648 24.2558C32.341 24.2267 32.1147 24.2876 31.9356 24.4251L29.2893 26.4702C29.1499 26.578 29.0472 26.7263 28.9955 26.8948C28.9438 27.0633 28.9456 27.2437 29.0006 27.4112C29.0556 27.5786 29.1611 27.725 29.3026 27.83C29.4441 27.9351 29.6147 27.9937 29.7909 27.9979Z" fill="white"/>
<path d="M70.2493 18.5803L66.1385 21.8737C65.9619 22.0152 65.8487 22.221 65.8239 22.4458C65.799 22.6707 65.8645 22.8963 66.006 23.0728C66.1474 23.2494 66.3532 23.3626 66.5781 23.3874C66.803 23.4123 67.0285 23.3468 67.2051 23.2053L71.3159 19.9123C71.4048 19.8428 71.4789 19.7563 71.5341 19.6579C71.5893 19.5594 71.6244 19.4511 71.6374 19.339C71.6505 19.2269 71.6411 19.1134 71.6099 19.0049C71.5788 18.8965 71.5264 18.7953 71.4558 18.7072C71.3853 18.6192 71.298 18.546 71.199 18.4919C71.0999 18.4378 70.9912 18.4039 70.8789 18.3922C70.7667 18.3804 70.6533 18.391 70.5452 18.4234C70.4371 18.4558 70.3365 18.5093 70.2493 18.5809L70.2493 18.5803Z" fill="white"/>
<path d="M63.2336 25.2935C63.1636 25.2061 63.077 25.1333 62.9788 25.0793C62.8807 25.0253 62.7728 24.9912 62.6615 24.9789C62.5501 24.9666 62.4375 24.9764 62.3299 25.0076C62.2223 25.0388 62.1219 25.091 62.0345 25.161L51.9207 33.2635C51.747 33.4059 51.6365 33.611 51.6131 33.8344C51.5897 34.0577 51.6553 34.2813 51.7957 34.4566C51.9362 34.6319 52.14 34.7447 52.3631 34.7706C52.5862 34.7965 52.8105 34.7334 52.9874 34.595L63.1011 26.4933C63.1887 26.4233 63.2615 26.3367 63.3156 26.2384C63.3696 26.1402 63.4038 26.0323 63.4161 25.9209C63.4284 25.8094 63.4186 25.6967 63.3873 25.589C63.356 25.4814 63.3038 25.3809 63.2336 25.2935Z" fill="white"/>
<path d="M41.6169 43.4459C41.8177 43.451 42.0138 43.3847 42.1704 43.2589L48.4556 38.225C48.6322 38.0835 48.7454 37.8777 48.7702 37.6528C48.7951 37.428 48.7296 37.2024 48.5881 37.0258C48.4467 36.8493 48.2409 36.7361 48.016 36.7113C47.7911 36.6864 47.5656 36.7519 47.389 36.8934L41.1049 41.9273C40.9683 42.0367 40.8686 42.1855 40.8195 42.3534C40.7703 42.5214 40.774 42.7004 40.83 42.8662C40.886 43.032 40.9917 43.1765 41.1327 43.2802C41.2736 43.3839 41.4431 43.4418 41.618 43.4459L41.6169 43.4459Z" fill="white"/>
<path d="M71.4302 6.73895L59.2401 15.8345C59.1497 15.9013 59.0733 15.9852 59.0155 16.0816C58.9576 16.1779 58.9193 16.2848 58.9029 16.396C58.8864 16.5072 58.8921 16.6205 58.9196 16.7295C58.9471 16.8385 58.9959 16.9409 59.0631 17.031C59.1303 17.1211 59.2147 17.197 59.3113 17.2544C59.408 17.3117 59.515 17.3494 59.6263 17.3653C59.7376 17.3812 59.8509 17.3749 59.9597 17.3469C60.0686 17.3188 60.1708 17.2695 60.2605 17.2018L72.4497 8.10625C72.5409 8.0398 72.618 7.95591 72.6765 7.85945C72.7351 7.76299 72.7739 7.65587 72.7908 7.54429C72.8076 7.43271 72.8022 7.3189 72.7748 7.20944C72.7474 7.09998 72.6985 6.99705 72.631 6.90661C72.5635 6.81617 72.4788 6.74002 72.3816 6.68256C72.2845 6.62511 72.177 6.58749 72.0652 6.5719C71.9534 6.5563 71.8397 6.56304 71.7305 6.59171C71.6214 6.62038 71.519 6.67042 71.4294 6.73893L71.4302 6.73895Z" fill="white"/>
<path d="M52.0638 22.253C52.1308 22.3428 52.2148 22.4185 52.311 22.4759C52.4073 22.5332 52.5139 22.571 52.6247 22.5871C52.7356 22.6032 52.8486 22.5973 52.9571 22.5698C53.0657 22.5423 53.1678 22.4936 53.2576 22.4266L55.158 21.0086C55.2478 20.9416 55.3236 20.8576 55.3809 20.7614C55.4382 20.6651 55.476 20.5585 55.4921 20.4477C55.5082 20.3368 55.5023 20.2238 55.4748 20.1153C55.4473 20.0067 55.3986 19.9046 55.3316 19.8148C55.2646 19.725 55.1806 19.6493 55.0844 19.592C54.9881 19.5346 54.8815 19.4968 54.7707 19.4807C54.6598 19.4646 54.5468 19.4705 54.4383 19.498C54.3297 19.5255 54.2276 19.5742 54.1378 19.6412L52.2374 21.0592C52.1476 21.1262 52.0719 21.2102 52.0145 21.3064C51.9572 21.4027 51.9194 21.5093 51.9033 21.6202C51.8872 21.731 51.8931 21.844 51.9206 21.9526C51.9481 22.0612 51.9968 22.1633 52.0638 22.253Z" fill="white"/>
<path d="M42.2808 30.3909C42.4716 30.3957 42.6584 30.3361 42.8111 30.2217L48.0747 26.2944C48.1645 26.2274 48.2402 26.1433 48.2975 26.0471C48.3548 25.9508 48.3926 25.8442 48.4087 25.7334C48.4249 25.6225 48.419 25.5096 48.3915 25.401C48.3639 25.2924 48.3153 25.1903 48.2483 25.1005C48.1813 25.0107 48.0973 24.935 48.001 24.8777C47.9048 24.8203 47.7982 24.7826 47.6873 24.7664C47.5764 24.7503 47.4635 24.7562 47.3549 24.7837C47.2463 24.8112 47.1442 24.8599 47.0544 24.9269L41.791 28.8544C41.6487 28.9605 41.5431 29.1084 41.4888 29.2775C41.4346 29.4465 41.4344 29.6282 41.4884 29.7974C41.5423 29.9665 41.6477 30.1146 41.7898 30.221C41.9319 30.3274 42.1036 30.3868 42.2811 30.391L42.2808 30.3909Z" fill="white"/>
<path d="M7.00747 23.8042C7.89656 23.8256 8.63471 23.1223 8.65617 22.2332C8.67762 21.3441 7.97427 20.606 7.08518 20.5845C6.19609 20.563 5.45795 21.2664 5.43649 22.1555C5.41503 23.0446 6.11839 23.7827 7.00747 23.8042Z" fill="white"/>
<path d="M11.1725 20.7233C11.4011 20.7289 11.6262 20.6665 11.8194 20.5441C12.0125 20.4218 12.165 20.2448 12.2576 20.0358C12.3502 19.8267 12.3787 19.5949 12.3395 19.3696C12.3004 19.1443 12.1953 18.9357 12.0376 18.7702C11.8798 18.6047 11.6766 18.4896 11.4535 18.4396C11.2303 18.3896 10.9974 18.4068 10.7841 18.4892C10.5708 18.5716 10.3867 18.7154 10.2551 18.9024C10.1236 19.0893 10.0504 19.3112 10.0449 19.5397C10.0378 19.8461 10.1526 20.1428 10.364 20.3647C10.5754 20.5865 10.8662 20.7155 11.1725 20.7233Z" fill="white"/>
<path d="M50.3414 54.9571C50.023 54.9494 49.7095 55.0363 49.4405 55.2068C49.1715 55.3773 48.9591 55.6237 48.8301 55.9149C48.7012 56.2062 48.6615 56.5291 48.7161 56.8429C48.7706 57.1566 48.917 57.4472 49.1368 57.6778C49.3565 57.9083 49.6396 58.0686 49.9504 58.1382C50.2612 58.2079 50.5856 58.1838 50.8827 58.0691C51.1798 57.9543 51.4362 57.7541 51.6195 57.4936C51.8028 57.2331 51.9047 56.9242 51.9124 56.6058C51.9222 56.1789 51.7624 55.7656 51.4678 55.4565C51.1733 55.1474 50.7682 54.9678 50.3414 54.9571Z" fill="white"/>
<path d="M54.2763 55.0922C54.8309 55.1056 55.2913 54.6668 55.3047 54.1122C55.3181 53.5576 54.8794 53.0972 54.3248 53.0838C53.7702 53.0704 53.3097 53.5092 53.2963 54.0638C53.2829 54.6184 53.7217 55.0788 54.2763 55.0922Z" fill="white"/>
<path d="M48.0381 6.00893C48.2968 6.01518 48.5515 5.94457 48.77 5.80604C48.9885 5.66751 49.1611 5.46729 49.2658 5.23069C49.3705 4.99409 49.4027 4.73176 49.3583 4.47686C49.3139 4.22196 49.1949 3.98595 49.0164 3.79868C48.8379 3.61142 48.6078 3.48131 48.3553 3.42481C48.1028 3.36831 47.8392 3.38796 47.5979 3.48128C47.3566 3.57459 47.1484 3.73738 46.9996 3.94905C46.8508 4.16072 46.7681 4.41176 46.762 4.67043C46.7541 5.01706 46.884 5.35268 47.1232 5.60363C47.3625 5.85458 47.6915 6.00034 48.0381 6.00893Z" fill="white"/>
<path d="M52.0434 3.22721C52.242 3.232 52.4376 3.17779 52.6054 3.07143C52.7732 2.96508 52.9057 2.81135 52.9861 2.62969C53.0665 2.44803 53.0913 2.2466 53.0572 2.05087C53.0232 1.85514 52.9319 1.6739 52.7948 1.53008C52.6578 1.38625 52.4811 1.28629 52.2873 1.24284C52.0934 1.19939 51.891 1.2144 51.7057 1.28598C51.5204 1.35756 51.3604 1.48248 51.2461 1.64496C51.1318 1.80744 51.0682 2.00016 51.0634 2.19878C51.0573 2.46502 51.157 2.72282 51.3407 2.91562C51.5245 3.10842 51.7771 3.22048 52.0434 3.22721Z" fill="white"/>
<path d="M19.4867 31.4542C18.0218 32.7616 16.1169 33.4669 14.1538 33.4286C13.0014 33.4046 11.8856 33.8337 11.0462 34.6237C9.06678 36.4753 7.4788 38.705 6.37615 41.181C6.24273 41.4798 6.15667 41.7974 6.12104 42.1226L5.64552 46.4631C5.39921 48.6938 5.99769 50.9358 7.32294 52.747L7.82943 53.4403L8.4053 54.2762L10.6176 57.686C11.3511 58.8257 12.3529 59.7683 13.5351 60.4312C14.7173 61.0941 16.0439 61.4572 17.399 61.4886C17.7874 61.4979 18.176 61.4806 18.562 61.4368C18.5892 61.4335 18.6161 61.4292 18.6428 61.4236L18.6623 61.4193C18.6781 61.4157 18.6939 61.4115 18.7095 61.4069L19.8388 61.0753C20.7712 60.8013 21.5086 60.5544 22.1593 60.3365C23.9865 59.7244 24.9035 59.417 27.0605 59.5969C27.5787 59.6404 28.1001 59.5655 28.5851 59.3778C29.0701 59.19 29.5061 58.8944 29.8599 58.5133C30.4972 57.8346 31.283 57.3126 32.1557 56.9883L32.9546 56.6927C34.5539 56.1005 35.9116 54.9946 36.815 53.5481L37.9062 51.8004C38.3882 51.0459 38.6365 50.1657 38.6196 49.2706C38.6027 48.3754 38.3215 47.5052 37.8113 46.7695L35.9828 44.1253L33.8639 37.4904L33.8389 37.1899C33.7059 35.5904 33.13 34.0596 32.1756 32.7692C31.2213 31.4788 29.9263 30.4798 28.436 29.8842C26.9456 29.2886 25.3187 29.1201 23.7379 29.3974C22.1571 29.6747 20.6848 30.387 19.4862 31.4543L19.4867 31.4542ZM27.6347 31.4034C28.8699 31.8633 29.9491 32.6646 30.7466 33.7141C31.544 34.7635 32.027 36.0179 32.1392 37.3312L32.1723 37.7302C32.1781 37.7943 32.1909 37.8577 32.2104 37.9191L34.3959 44.7627C34.4224 44.8446 34.4606 44.9221 34.5094 44.993L36.4085 47.7397C36.7277 48.2007 36.9034 48.7458 36.9132 49.3065C36.923 49.8672 36.7666 50.4182 36.4637 50.89L35.3682 52.6443C34.6649 53.7704 33.608 54.6314 32.3629 55.0925L31.5639 55.3882C30.443 55.8048 29.4338 56.4752 28.6154 57.347C28.437 57.5399 28.2171 57.6897 27.9722 57.785C27.7273 57.8802 27.4639 57.9184 27.2021 57.8967C24.6947 57.688 23.5365 58.0759 21.6172 58.7186C20.9809 58.9318 20.2596 59.1734 19.3578 59.4383L18.2997 59.749C17.0828 59.8785 15.8539 59.6673 14.7501 59.1389C13.6463 58.6105 12.7111 57.7858 12.0488 56.7567L9.83012 53.3367L9.81708 53.317L9.22775 52.4616L9.21399 52.4422L8.70076 51.7396C7.62693 50.2722 7.14198 48.4556 7.34157 46.6482L7.81709 42.3078C7.83336 42.1588 7.87281 42.0132 7.93402 41.8764C8.94438 39.6081 10.3994 37.5653 12.2129 35.8691C12.7285 35.3836 13.4141 35.1199 14.1221 35.1347C16.5147 35.1814 18.8365 34.322 20.6219 32.7286C21.5602 31.8913 22.7089 31.3255 23.9446 31.092C25.1802 30.8586 26.4562 30.9663 27.6353 31.4036L27.6347 31.4034Z" fill="white"/>
<path d="M28.1998 40.4469C28.7944 40.4615 29.3817 40.3129 29.8978 40.0174C30.0929 39.9045 30.2353 39.719 30.2941 39.5014C30.3528 39.2838 30.323 39.0518 30.2113 38.8561C30.0995 38.6603 29.9148 38.5168 29.6976 38.4568C29.4803 38.3968 29.2482 38.4252 29.0518 38.5358C28.6904 38.7422 28.2618 38.7965 27.8602 38.6869C27.4587 38.5773 27.1172 38.3127 26.9108 37.9512C26.7045 37.5898 26.6501 37.1612 26.7597 36.7597C26.8694 36.3582 27.134 36.0167 27.4954 35.8103C27.5934 35.7551 27.6795 35.6811 27.7487 35.5925C27.818 35.5039 27.8691 35.4025 27.899 35.2942C27.929 35.1858 27.9372 35.0725 27.9232 34.961C27.9092 34.8494 27.8733 34.7417 27.8175 34.644C27.7618 34.5464 27.6873 34.4607 27.5983 34.392C27.5093 34.3232 27.4076 34.2727 27.2991 34.2434C27.1905 34.2141 27.0772 34.2066 26.9657 34.2212C26.8542 34.2359 26.7467 34.2724 26.6494 34.3287C26.0277 34.6837 25.5394 35.2327 25.2593 35.8916C24.9793 36.5505 24.9229 37.2831 25.0988 37.9771C25.2748 38.6711 25.6733 39.2884 26.2334 39.7343C26.7935 40.1803 27.4844 40.4304 28.2001 40.4463L28.1998 40.4469Z" fill="white"/>
<path d="M29.0088 48.6215C29.0211 49.4678 29.3604 50.2764 29.9557 50.878C30.551 51.4795 31.356 51.8273 32.202 51.8485C32.2446 51.8495 32.2882 51.8497 32.3314 51.849C32.4437 51.8478 32.5546 51.8244 32.6578 51.7802C32.761 51.736 32.8544 51.6718 32.9328 51.5915C33.0111 51.5111 33.0728 51.416 33.1144 51.3117C33.1559 51.2074 33.1765 51.0959 33.1749 50.9837C33.1732 50.8714 33.1495 50.7606 33.1049 50.6576C33.0604 50.5545 32.9959 50.4613 32.9153 50.3832C32.8346 50.3051 32.7394 50.2437 32.6349 50.2025C32.5305 50.1613 32.419 50.1411 32.3067 50.1431C31.8926 50.146 31.4941 49.9851 31.1981 49.6955C30.9021 49.4058 30.7326 49.0108 30.7266 48.5967C30.7207 48.1826 30.8786 47.7829 31.1662 47.4848C31.4537 47.1867 31.8474 47.0144 32.2614 47.0054C32.3738 47.0042 32.4847 46.9809 32.588 46.9367C32.6913 46.8926 32.7849 46.8285 32.8633 46.7481C32.9417 46.6677 33.0035 46.5726 33.0451 46.4682C33.0867 46.3639 33.1073 46.2524 33.1057 46.1401C33.1041 46.0278 33.0803 45.9169 33.0357 45.8138C32.9911 45.7107 32.9266 45.6174 32.8459 45.5393C32.7652 45.4612 32.6698 45.3998 32.5653 45.3586C32.4608 45.3174 32.3492 45.2973 32.2369 45.2994C31.8068 45.3056 31.3822 45.3965 30.9873 45.5668C30.5923 45.7371 30.2348 45.9835 29.935 46.292C29.6353 46.6005 29.3993 46.965 29.2405 47.3647C29.0816 47.7644 29.0031 48.1915 29.0093 48.6216L29.0088 48.6215Z" fill="white"/>
<path d="M20.396 39.7063C20.4082 39.5949 20.3983 39.4822 20.367 39.3747C20.3356 39.2671 20.2834 39.1668 20.2133 39.0794C20.1432 38.992 20.0565 38.9193 19.9583 38.8654C19.8601 38.8116 19.7522 38.7775 19.6409 38.7653C19.5295 38.7531 19.4168 38.763 19.3093 38.7943C19.2017 38.8257 19.1014 38.8779 19.014 38.948C18.9266 39.0181 18.8539 39.1048 18.8 39.203C18.7461 39.3012 18.7121 39.4091 18.6999 39.5204C18.6764 39.7199 18.575 39.9021 18.4178 40.0272C18.2606 40.1523 18.0603 40.2102 17.8606 40.1884C17.6609 40.1665 17.4779 40.0666 17.3515 39.9104C17.2251 39.7543 17.1655 39.5545 17.1857 39.3546C17.1979 39.2432 17.1881 39.1306 17.1567 39.023C17.1254 38.9155 17.0731 38.8151 17.003 38.7278C16.9329 38.6404 16.8462 38.5677 16.748 38.5138C16.6498 38.4599 16.5419 38.4259 16.4306 38.4137C16.3192 38.4015 16.2065 38.4114 16.099 38.4427C15.9914 38.4741 15.8911 38.5263 15.8037 38.5964C15.7164 38.6666 15.6437 38.7532 15.5898 38.8514C15.5359 38.9497 15.5019 39.0575 15.4897 39.1689C15.4185 39.8195 15.6086 40.4717 16.0182 40.9821C16.4278 41.4926 17.0235 41.8194 17.6741 41.8906C17.7454 41.8985 17.8164 41.9033 17.887 41.9049C18.5044 41.9187 19.1045 41.7005 19.5689 41.2935C20.0332 40.8864 20.3282 40.3201 20.3954 39.7063L20.396 39.7063Z" fill="white"/>
<path d="M18.5998 46.6564C18.4033 47.2807 18.4627 47.9575 18.7651 48.5379C19.0676 49.1183 19.5881 49.5549 20.2124 49.7515C20.3196 49.7864 20.4326 49.7997 20.545 49.7906C20.6573 49.7816 20.7668 49.7503 20.867 49.6987C20.9672 49.6471 21.0562 49.5762 21.1288 49.49C21.2014 49.4038 21.2562 49.3041 21.2901 49.1965C21.3239 49.089 21.3362 48.9759 21.326 48.8636C21.3159 48.7514 21.2836 48.6422 21.2311 48.5425C21.1785 48.4428 21.1067 48.3545 21.0198 48.2827C20.9329 48.2109 20.8327 48.157 20.7248 48.1242C20.5322 48.0635 20.3715 47.9288 20.2781 47.7497C20.1848 47.5705 20.1665 47.3616 20.2272 47.1689C20.2878 46.9763 20.4226 46.8156 20.6017 46.7223C20.7809 46.6289 20.9898 46.6106 21.1824 46.6713C21.3982 46.7392 21.6322 46.7187 21.8329 46.6142C22.0335 46.5096 22.1845 46.3297 22.2524 46.1138C22.3204 45.898 22.2999 45.6641 22.1953 45.4634C22.0908 45.2627 21.9108 45.1118 21.695 45.0438C21.0707 44.8473 20.3939 44.9068 19.8135 45.2092C19.233 45.5116 18.7965 46.0322 18.5998 46.6564Z" fill="white"/>
<path d="M12.9551 46.9624C13.3914 46.9735 13.8228 46.8689 14.2054 46.659C14.588 46.4492 14.9082 46.1418 15.1335 45.768C15.2501 45.5742 15.2849 45.3419 15.2303 45.1224C15.1757 44.9028 15.0361 44.7139 14.8422 44.5973C14.7462 44.5396 14.6398 44.5013 14.529 44.4847C14.4182 44.468 14.3052 44.4734 14.1965 44.5005C13.977 44.5551 13.7881 44.6947 13.6715 44.8885C13.6203 44.975 13.5525 45.0504 13.472 45.1105C13.3915 45.1706 13.2999 45.2142 13.2025 45.2388C13.1051 45.2633 13.0039 45.2684 12.9045 45.2537C12.8051 45.2389 12.7097 45.2047 12.6236 45.1529C12.5375 45.1011 12.4625 45.0328 12.403 44.9519C12.3434 44.8711 12.3004 44.7792 12.2765 44.6816C12.2526 44.5841 12.2482 44.4828 12.2636 44.3835C12.279 44.2842 12.3139 44.189 12.3662 44.1033C12.4829 43.9094 12.5177 43.6771 12.4631 43.4576C12.4085 43.238 12.2689 43.0491 12.0751 42.9325C11.8812 42.8158 11.6489 42.781 11.4293 42.8356C11.2098 42.8902 11.0209 43.0298 10.9042 43.2236C10.6816 43.5934 10.5599 44.0151 10.5512 44.4466C10.5425 44.878 10.6472 45.3043 10.8548 45.6827C11.0623 46.0611 11.3655 46.3784 11.7341 46.603C12.1027 46.8275 12.5237 46.9515 12.9551 46.9624Z" fill="white"/>
<path d="M15.6201 52.3172C15.4263 52.2006 15.194 52.1658 14.9745 52.2204C14.7549 52.275 14.5661 52.4146 14.4494 52.6084C14.3979 52.6941 14.3299 52.7688 14.2495 52.8283C14.1691 52.8878 14.0777 52.9308 13.9806 52.9549C13.7846 53.0037 13.5772 52.9726 13.4041 52.8685C13.231 52.7643 13.1064 52.5957 13.0576 52.3997C13.0088 52.2036 13.0399 51.9963 13.144 51.8231C13.2052 51.7271 13.2465 51.6198 13.2656 51.5076C13.2846 51.3954 13.281 51.2804 13.255 51.1696C13.2289 51.0588 13.181 50.9543 13.1139 50.8623C13.0468 50.7703 12.962 50.6927 12.8645 50.634C12.767 50.5753 12.6587 50.5367 12.546 50.5205C12.4333 50.5043 12.3185 50.5108 12.2084 50.5396C12.0983 50.5685 11.995 50.6191 11.9047 50.6884C11.8145 50.7578 11.739 50.8445 11.6828 50.9435C11.3454 51.5044 11.2446 52.1762 11.4026 52.8114C11.5605 53.4465 11.9644 53.9929 12.5252 54.3303C13.086 54.6677 13.7579 54.7685 14.3931 54.6106C15.0282 54.4526 15.5746 54.0488 15.912 53.4879C15.9697 53.3919 16.0079 53.2854 16.0245 53.1746C16.0411 53.0638 16.0356 52.9508 16.0085 52.8421C15.9814 52.7334 15.9332 52.6311 15.8665 52.541C15.7999 52.451 15.7161 52.3749 15.6201 52.3172Z" fill="white"/>
<path d="M23.6466 55.6726C23.8642 55.7399 24.09 55.7768 24.3176 55.7825C24.8546 55.794 25.3807 55.6303 25.8163 55.3161C26.2519 55.0019 26.5733 54.5544 26.7319 54.0413C26.7649 53.9342 26.7765 53.8217 26.766 53.7101C26.7555 53.5986 26.7231 53.4902 26.6708 53.3912C26.6184 53.2921 26.547 53.2044 26.4608 53.1329C26.3745 53.0615 26.275 53.0077 26.1679 52.9747C25.9517 52.9081 25.7178 52.9301 25.5178 53.0358C25.4188 53.0882 25.331 53.1596 25.2596 53.2458C25.1881 53.3321 25.1344 53.4316 25.1014 53.5387C25.0418 53.7317 24.9081 53.8932 24.7295 53.9876C24.5509 54.0821 24.3421 54.1017 24.1491 54.0421C23.956 53.9826 23.7945 53.8488 23.7001 53.6703C23.6057 53.4917 23.5861 53.2829 23.6456 53.0898C23.6798 52.9825 23.6924 52.8694 23.6827 52.7571C23.6729 52.6448 23.641 52.5356 23.5888 52.4357C23.5366 52.3359 23.4651 52.2473 23.3785 52.1752C23.2918 52.1031 23.1918 52.0489 23.0841 52.0157C22.9764 51.9825 22.8632 51.971 22.751 51.9818C22.6388 51.9926 22.5299 52.0255 22.4305 52.0787C22.3311 52.1318 22.2433 52.2041 22.172 52.2914C22.1007 52.3787 22.0475 52.4793 22.0153 52.5873C21.8232 53.2127 21.8872 53.8888 22.193 54.4672C22.4988 55.0456 23.0216 55.4791 23.6466 55.6726Z" fill="white"/>
</svg>
