<svg width="118" height="117" viewBox="0 0 118 117" fill="none" xmlns="http://www.w3.org/2000/svg">
<path d="M95.245 53.4052C95.244 53.405 95.2429 53.4046 95.242 53.4043L19.3001 30.259C18.5823 30.0394 17.8222 30.4431 17.6026 31.1609C17.6023 31.1619 17.602 31.163 17.6017 31.164L6.49196 67.6161C6.27236 68.3339 6.67606 69.0939 7.39386 69.3135C7.3948 69.3138 7.39594 69.3141 7.39689 69.3144L59.0374 85.0532C59.7562 85.2723 60.5167 84.8671 60.7357 84.1483C60.9548 83.4295 60.5496 82.669 59.8308 82.4499L9.49196 67.1078L19.8083 33.259L93.1469 55.6109L92.1549 58.8658C91.9353 59.5836 92.339 60.3436 93.0568 60.5632C93.0577 60.5635 93.0589 60.5638 93.0598 60.5641C93.7776 60.7837 94.5376 60.38 94.7572 59.6622C94.7575 59.6613 94.7579 59.6601 94.7582 59.6592L96.1469 55.1027C96.3665 54.3849 95.9627 53.625 95.245 53.4052Z" fill="white"/>
<path d="M88.2564 44.6706L31.669 12.4848C31.3548 12.3066 30.9829 12.2601 30.6345 12.3554C30.2861 12.4523 29.9902 12.6831 29.8113 12.9976L22.6075 25.7413C22.2375 26.3958 22.4682 27.2264 23.1227 27.5964C23.7772 27.9664 24.6078 27.7357 24.9778 27.0812L31.5093 15.5252L86.9113 47.036C86.9988 47.0865 87.0918 47.1267 87.1887 47.1554C87.9079 47.3731 88.6675 46.9666 88.8854 46.2475C89.0695 45.6394 88.8083 44.9851 88.2564 44.6706Z" fill="white"/>
<path d="M83.175 34.8902L51.352 8.59209C50.7989 8.13492 49.9862 8.18374 49.4919 8.7041L44.6026 13.8536C44.0662 14.3836 44.0608 15.2482 44.5909 15.7847C45.1208 16.3212 45.9855 16.3266 46.522 15.7964C46.543 15.7757 46.5635 15.7541 46.5831 15.7319L46.5822 15.7349L50.5948 11.5067L81.4354 36.9925C82.0161 37.4728 82.8761 37.3917 83.3565 36.8111C83.8367 36.2308 83.7556 35.3707 83.175 34.8902Z" fill="white"/>
<path d="M78.1063 54.8215L66.0513 51.1474C65.3325 50.9284 64.572 51.3336 64.3529 52.0524C64.1339 52.7712 64.5391 53.5317 65.2579 53.7507L77.3129 57.4248C78.0317 57.6439 78.7922 57.2387 79.0112 56.5199C79.2303 55.8011 78.8251 55.0406 78.1063 54.8215Z" fill="white"/>
<path d="M53.8742 47.5308C46.4925 45.2811 38.6846 49.4413 36.4349 56.823C34.1936 64.2039 38.3509 72.006 45.7271 74.2624C53.1088 76.5122 60.9166 72.3519 63.1664 64.9702C65.4162 57.5884 61.2559 49.7806 53.8742 47.5308ZM46.4677 71.8323C40.428 69.9915 37.0242 63.6034 38.865 57.5637C40.7115 51.5289 47.0947 48.1278 53.1335 49.961C59.1732 51.8017 62.577 58.1899 60.7363 64.2295C58.8955 70.2692 52.5074 73.673 46.4677 71.8323Z" fill="white"/>
<path d="M89.0302 62.8932C80.9804 60.4398 71.7434 59.7029 70.4714 63.8766L59.3616 100.329C58.0896 104.502 66.1674 109.043 74.2172 111.496C82.2671 113.949 91.504 114.686 92.7761 110.513L103.886 74.0606C105.158 69.8868 97.0801 65.3466 89.0302 62.8932ZM89.7453 109.564C89.2591 110.337 84.0282 111.166 75.143 108.458C66.2578 105.75 62.3787 102.145 62.3993 101.255L63.127 98.8669C65.8628 101.48 70.9701 103.867 76.0688 105.421C81.1676 106.975 86.7416 107.835 90.4665 107.198L89.7453 109.564ZM91.597 103.489C91.1107 104.262 85.8799 105.091 76.9947 102.383C68.1095 99.675 64.2303 96.0693 64.2509 95.1792L64.9786 92.7916C67.7145 95.4048 72.8217 97.7914 77.9205 99.3453C83.0192 100.899 88.5932 101.76 92.3182 101.122L91.597 103.489ZM93.4486 97.4134C92.9623 98.1864 87.7315 99.0157 78.8463 96.3077C69.9611 93.5997 66.0819 89.9939 66.1026 89.1038L66.8302 86.7162C69.5661 89.3295 74.6734 91.716 79.7721 93.27C84.8708 94.824 90.4448 95.6845 94.1698 95.047L93.4486 97.4134ZM95.3002 91.338C94.8139 92.1111 89.5831 92.9403 80.6979 90.2323C71.8127 87.5243 67.9336 83.9186 67.9542 83.0285L68.6819 80.6409C71.4177 83.2541 76.525 85.6407 81.6237 87.1946C86.7225 88.7486 92.2965 89.6092 96.0214 88.9717L95.3002 91.338ZM97.1518 85.2627C96.6656 86.0357 91.4347 86.865 82.5495 84.157C73.6643 81.449 69.7852 77.8432 69.8058 76.9531L70.5335 74.5655C73.2717 77.1712 78.3766 79.5653 83.4753 81.1193C88.5741 82.6733 94.1481 83.5338 97.873 82.8963L97.1518 85.2627ZM99.0035 79.1873C98.5172 79.9604 93.2864 80.7896 84.4012 78.0816C75.516 75.3736 71.6368 71.7679 71.6574 70.8778L72.3851 68.4902C75.1233 71.0958 80.2282 73.49 85.327 75.0439C90.4257 76.5979 95.9997 77.4585 99.7247 76.821L99.0035 79.1873ZM86.2528 72.0063C77.3812 69.3024 73.5018 65.7032 73.5007 64.8298L73.5035 64.8207C74.0059 64.0492 79.2329 63.2271 88.1044 65.9309C96.9137 68.6158 100.806 72.1825 100.848 73.1347C100.282 73.9018 95.062 74.6911 86.2528 72.0063Z" fill="white"/>
<path d="M34.3439 68.0408L22.863 64.5416L19.2341 56.9287L22.243 47.0563L30.0436 43.0182L40.9565 46.3442C41.6753 46.5632 42.4358 46.158 42.6549 45.4392C42.8739 44.7204 42.4687 43.9599 41.7499 43.7409L30.3085 40.2538C29.9685 40.1493 29.601 40.1822 29.2847 40.3451L20.4832 44.8949C20.1395 45.1138 19.8855 45.4487 19.7673 45.8387L16.4751 56.6406C16.3761 56.9655 16.402 57.3155 16.5478 57.6222L20.6617 66.2527C20.826 66.5979 21.128 66.8582 21.4939 66.9695L33.5505 70.644C34.2693 70.8631 35.0298 70.4579 35.2488 69.7391C35.4679 69.0203 35.0629 68.2599 34.3439 68.0408Z" fill="white"/>
<path d="M51.023 59.6092L49.5042 59.1463C49.0318 59.0023 48.8253 58.6506 48.8605 58.5351C48.8957 58.4197 49.2633 58.2429 49.7356 58.3869L53.5327 59.5441C54.3715 59.7998 55.2588 59.327 55.5145 58.4882C55.7701 57.6494 55.2973 56.7621 54.4586 56.5065L52.9397 56.0436C53.1954 55.2048 52.7226 54.3175 51.8838 54.0618C51.045 53.8062 50.1577 54.279 49.902 55.1177L49.8812 55.1861C48.1241 54.9106 46.42 55.9256 45.8251 57.6017C45.327 59.6263 46.5568 61.6733 48.5784 62.184L50.0972 62.6469C50.5696 62.7908 50.7761 63.1426 50.7409 63.258C50.7057 63.3735 50.3381 63.5503 49.8658 63.4063L46.0687 62.249C45.2299 61.9934 44.3426 62.4662 44.0869 63.305C43.8313 64.1437 44.3041 65.0311 45.1429 65.2867L46.6617 65.7496C46.4061 66.5884 46.8789 67.4757 47.7176 67.7314C48.5564 67.987 49.4437 67.5142 49.6994 66.6754L49.7202 66.6071C51.4773 66.8826 53.1814 65.8676 53.7763 64.1914C54.2744 62.1669 53.0446 60.1199 51.023 59.6092Z" fill="white"/>
</svg>
