<svg width="115" height="113" viewBox="0 0 115 113" fill="none" xmlns="http://www.w3.org/2000/svg">
<path d="M98.3888 69.2159L80.9505 62.4868L87.1621 46.3899L89.8449 47.4252C90.0998 47.5237 90.3775 47.5474 90.6455 47.4937C90.9135 47.44 91.1606 47.3111 91.3579 47.122C91.5552 46.9329 91.6945 46.6915 91.7595 46.426C91.8246 46.1606 91.8126 45.8821 91.725 45.6232L88.1237 34.9866C88.0561 34.7869 87.9453 34.6044 87.7993 34.4522C87.6533 34.3 87.4757 34.1817 87.2789 34.1058C87.0821 34.0298 86.8711 33.9981 86.6607 34.0128C86.4503 34.0275 86.2456 34.0882 86.0613 34.1908L76.2485 39.6511C76.0098 39.784 75.8138 39.9822 75.6837 40.2226C75.5535 40.4629 75.4945 40.7353 75.5137 41.0079C75.5328 41.2806 75.6292 41.5421 75.7917 41.7619C75.9541 41.9817 76.1758 42.1506 76.4308 42.2489L79.1136 43.2841L72.9021 59.381L17.9045 38.1582C17.5488 38.021 17.1531 38.0306 16.8044 38.1851C16.4558 38.3396 16.1828 38.6263 16.0455 38.982L0.516672 79.2241C0.379389 79.5799 0.389053 79.9756 0.543543 80.3243C0.69803 80.6729 0.984686 80.9459 1.34045 81.0832L81.8247 112.141C82.1805 112.278 82.5762 112.268 82.9248 112.114C83.2735 111.96 83.5464 111.673 83.6837 111.317L99.2126 71.075C99.3499 70.7192 99.3402 70.3235 99.1857 69.9748C99.0312 69.6262 98.7446 69.3532 98.3888 69.2159ZM85.9525 37.5431L88.0162 43.6372L86.8559 43.1895C86.5002 43.0522 86.1044 43.0619 85.7558 43.2163C85.4072 43.3708 85.1342 43.6575 84.9969 44.0133L78.2677 61.4515L75.5849 60.4162L82.3141 42.978C82.4514 42.6222 82.4417 42.2265 82.2872 41.8779C82.1327 41.5292 81.8461 41.2562 81.4903 41.119L80.33 40.6712L85.9525 37.5431ZM18.2107 41.3587L24.8037 43.9028C23.8875 45.4408 22.5163 46.6564 20.8796 47.3816C19.2429 48.1069 17.4213 48.3061 15.6665 47.9517L18.2107 41.3587ZM3.71711 78.918L6.26125 72.325C7.79924 73.2412 9.0148 74.6124 9.74007 76.2491C10.4653 77.8858 10.6645 79.7074 10.3101 81.4621L3.71711 78.918ZM81.5185 108.94L74.9255 106.396C75.8418 104.858 77.2129 103.643 78.8496 102.917C80.4864 102.192 82.3079 101.993 84.0627 102.347L81.5185 108.94ZM85.1083 99.6378C82.6301 99.0274 80.0194 99.2573 77.6859 100.291C75.3525 101.325 73.4285 103.105 72.2159 105.351L13.0197 82.5077C13.6301 80.0295 13.4003 77.4188 12.3663 75.0854C11.3323 72.7519 9.55269 70.8279 7.30686 69.6154L14.6209 50.6613C17.0991 51.2717 19.7099 51.0418 22.0433 50.0079C24.3768 48.9739 26.3008 47.1943 27.5133 44.9484L86.7095 67.7914C86.0991 70.2696 86.329 72.8803 87.363 75.2137C88.397 77.5472 90.1766 79.4712 92.4224 80.6837L85.1083 99.6378ZM93.468 77.9741C91.93 77.0579 90.7144 75.6867 89.9892 74.05C89.2639 72.4133 89.0647 70.5917 89.4191 68.837L96.0121 71.3811L93.468 77.9741Z" fill="white"/>
<path d="M44.6889 88.5635C47.342 89.5872 50.239 89.8013 53.0137 89.1786C55.7884 88.5558 58.3162 87.1243 60.2773 85.065C62.2384 83.0057 63.5448 80.4111 64.0313 77.6093C64.5179 74.8075 64.1626 71.9243 63.0105 69.3244C61.8585 66.7245 59.9613 64.5246 57.559 63.003C55.1566 61.4813 52.357 60.7061 49.5141 60.7756C46.6713 60.845 43.9128 61.7559 41.5876 63.393C39.2624 65.0302 37.4749 67.3201 36.4512 69.9731C35.0828 73.5311 35.1817 77.4865 36.726 80.9716C38.2704 84.4568 41.1341 87.1871 44.6889 88.5635ZM54.0062 64.4182C56.1287 65.2372 57.9606 66.6672 59.2703 68.5273C60.58 70.3875 61.3087 72.5943 61.3643 74.8686C61.4198 77.1429 60.7997 79.3826 59.5824 81.3044C58.365 83.2263 56.6051 84.744 54.5252 85.6657C52.4453 86.5873 50.1387 86.8715 47.8973 86.4823C45.6559 86.0931 43.5802 85.048 41.9327 83.4791C40.2853 81.9102 39.1401 79.888 38.6419 77.6682C38.1437 75.4485 38.315 73.1308 39.134 71.0084C40.2351 68.1645 42.4193 65.8735 45.2074 64.638C47.9955 63.4025 51.1599 63.3235 54.0062 64.4182Z" fill="white"/>
<path d="M61.7919 24.2708L64.4747 25.306L55.1574 49.4513C55.0201 49.8071 55.0298 50.2028 55.1843 50.5515C55.3388 50.9001 55.6254 51.1731 55.9812 51.3104L61.3468 53.3809C61.7026 53.5182 62.0983 53.5085 62.4469 53.354C62.7956 53.1995 63.0686 52.9129 63.2058 52.5571L72.5232 28.4118L75.206 29.4471C75.4609 29.5454 75.7386 29.5691 76.0065 29.5153C76.2745 29.4616 76.5215 29.3325 76.7187 29.1434C76.916 28.9543 77.0552 28.7128 77.1202 28.4474C77.1851 28.182 77.1731 27.9035 77.0855 27.6447L73.4842 17.0081C73.4166 16.8084 73.306 16.6261 73.1601 16.474C73.0142 16.3218 72.8366 16.2036 72.64 16.1277C72.4433 16.0518 72.2324 16.0201 72.0221 16.0348C71.8118 16.0495 71.6073 16.1103 71.4231 16.2128L61.6104 21.6731C61.3716 21.8059 61.1756 22.0041 61.0454 22.2444C60.9152 22.4847 60.8562 22.757 60.8753 23.0296C60.8943 23.3022 60.9907 23.5638 61.153 23.7836C61.3153 24.0034 61.537 24.1724 61.7919 24.2708ZM71.3135 19.565L73.3773 25.6591L72.217 25.2114C71.8612 25.0741 71.4655 25.0838 71.1169 25.2382C70.7682 25.3927 70.4953 25.6794 70.358 26.0352L61.0407 50.1804L58.3579 49.1452L67.6752 24.9999C67.8124 24.6441 67.8028 24.2484 67.6483 23.8998C67.4938 23.5511 67.2072 23.2782 66.8514 23.1409L65.6911 22.6931L71.3135 19.565Z" fill="white"/>
<path d="M38.8717 27.7552L41.5545 28.7904L38.4487 36.8388C38.3115 37.1946 38.3211 37.5903 38.4756 37.939C38.6301 38.2876 38.9167 38.5606 39.2725 38.6979L44.6381 40.7684C44.9939 40.9057 45.3896 40.896 45.7383 40.7415C46.0869 40.587 46.3599 40.3004 46.4972 39.9446L49.6029 31.8962L52.2857 32.9314C52.5407 33.0298 52.8184 33.0535 53.0863 32.9997C53.3542 32.9459 53.6013 32.8169 53.7985 32.6278C53.9957 32.4386 54.135 32.1972 54.1999 31.9318C54.2649 31.6663 54.2529 31.3879 54.1652 31.129L50.564 20.4925C50.4964 20.2928 50.3857 20.1105 50.2398 19.9583C50.0939 19.8062 49.9164 19.688 49.7197 19.6121C49.5231 19.5362 49.3121 19.5045 49.1019 19.5192C48.8916 19.5339 48.6871 19.5946 48.5029 19.6971L38.6901 25.1574C38.4514 25.2903 38.2554 25.4885 38.1252 25.7288C37.995 25.969 37.936 26.2414 37.955 26.514C37.9741 26.7866 38.0704 27.0481 38.2328 27.268C38.3951 27.4878 38.6168 27.6568 38.8717 27.7552ZM48.3933 23.0494L50.4571 29.1435L49.2968 28.6958C48.941 28.5585 48.5453 28.5681 48.1967 28.7226C47.848 28.8771 47.575 29.1638 47.4377 29.5195L44.332 37.568L41.6492 36.5327L44.7549 28.4843C44.8922 28.1285 44.8826 27.7328 44.7281 27.3841C44.5736 27.0355 44.2869 26.7625 43.9312 26.6252L42.7708 26.1775L48.3933 23.0494Z" fill="white"/>
</svg>
