<svg width="76" height="76" viewBox="0 0 76 76" fill="none" xmlns="http://www.w3.org/2000/svg">
<path d="M23.1751 61.5943C20.093 62.3743 18.22 65.5163 18.9999 68.5984C19.7798 71.6804 22.9219 73.5534 26.004 72.7735C29.0861 71.9935 30.9592 68.8515 30.1793 65.7694C29.3994 62.6874 26.2573 60.8144 23.1751 61.5943ZM25.5573 71.0083C23.4485 71.542 21.2986 70.2604 20.765 68.1517C20.2314 66.043 21.5129 63.8931 23.6218 63.3595C25.7307 62.8258 27.8805 64.1074 28.4141 66.2161C28.9477 68.3248 27.6662 70.4747 25.5573 71.0083Z" fill="white"/>
<path d="M64.8176 19.0451C64.8121 19.0369 64.8059 19.0296 64.8001 19.0217C64.7995 19.0208 64.799 19.0199 64.7983 19.019C64.7965 19.0166 64.7945 19.0145 64.7928 19.012C64.7793 18.9938 64.7655 18.9759 64.7509 18.9589C63.7127 17.5845 61.969 16.9916 59.5635 17.1996C57.7286 17.3582 55.4394 17.9946 52.7539 19.0911C52.0703 18.542 51.3557 18.0293 50.6122 17.5559C51.9821 15.6348 52.5338 13.1482 51.911 10.687C50.7863 6.24231 46.2552 3.5413 41.8104 4.66606C37.6558 5.71738 35.0255 9.74473 35.6181 13.8959C34.362 14.0093 33.1064 14.2222 31.8729 14.5343C26.5932 15.8703 21.8862 18.9981 18.6188 23.3414C15.4001 27.6201 13.6891 32.9076 13.8008 38.2302C13.8113 38.7329 14.2274 39.1318 14.7301 39.1213C14.8007 39.1198 14.8694 39.1103 14.9351 39.0937C15.3368 38.992 15.6301 38.6241 15.6211 38.1921C15.5179 33.2755 17.0993 28.3902 20.0738 24.4361C23.136 20.3655 27.3705 17.5519 32.3195 16.2996C33.5581 15.9862 34.8202 15.7806 36.0804 15.6844C37.5581 19.5741 41.7605 21.8325 45.89 20.7875C47.2326 20.4478 48.4146 19.7957 49.3816 18.9306C52.3582 20.7703 54.856 23.2856 56.6622 26.2617C56.1614 26.8112 55.5892 27.4117 54.9307 28.069C47.3014 35.7937 32.4963 46.0526 22.595 50.4736C21.7722 50.848 21.0294 51.1642 20.3554 51.434C19.6804 50.5781 19.0755 49.68 18.5398 48.7439C18.5249 48.7135 18.5079 48.6839 18.4896 48.6549C17.5243 46.9497 16.7895 45.1182 16.298 43.1758C16.1938 42.7641 16.1004 42.3454 16.0203 41.9313C15.9247 41.4377 15.4471 41.115 14.9534 41.2105C14.4605 41.3063 14.1369 41.7836 14.2325 42.2773C14.3192 42.725 14.4203 43.1776 14.5329 43.6224C14.6776 44.1944 14.8438 44.7565 15.027 45.3106C12.8303 47.6841 11.3878 49.677 10.6261 51.3908C9.74602 53.3714 9.75818 55.0652 10.6602 56.4266C10.6653 56.4347 10.6696 56.4432 10.6749 56.4513C11.5493 57.7658 13.5324 59.0787 18.021 57.9429C18.0883 57.9259 18.1566 57.9082 18.225 57.89C19.5854 57.5284 21.0776 57.0184 22.6898 56.367C25.4518 58.5958 28.7121 60.2069 32.155 61.0365C35.8987 61.9387 39.8637 61.9129 43.6215 60.962C50.4373 59.2372 56.1288 54.6272 59.2368 48.314C59.4588 47.8629 59.2732 47.3172 58.822 47.0951C58.3709 46.873 57.8252 47.0588 57.6031 47.5098C54.7314 53.3434 49.4724 57.6033 43.1748 59.1969C36.7483 60.8231 29.9181 59.4572 24.6106 55.5495C26.0131 54.923 27.4948 54.201 29.0511 53.3851C29.4964 53.1516 29.6683 52.6013 29.4348 52.1559C29.2012 51.7106 28.6502 51.539 28.2058 51.7724C26.1706 52.8395 24.2721 53.7399 22.5224 54.4691C22.5175 54.4709 22.5127 54.473 22.5079 54.475C20.7743 55.1969 19.1868 55.7505 17.7581 56.1303C14.1664 57.0839 12.7492 56.2818 12.1912 55.443C12.1912 55.4429 12.1912 55.4428 12.191 55.4428C12.1902 55.4414 12.1894 55.4399 12.1884 55.4385C11.1005 53.825 12.2672 51.1304 15.7508 47.2221C16.0153 47.8394 16.3052 48.4438 16.6205 49.0346C15.227 50.7022 14.2564 52.1853 13.7331 53.4493C13.7309 53.4543 13.7288 53.4594 13.7266 53.4645C13.7243 53.4701 13.7216 53.4758 13.7193 53.4814C13.7169 53.4875 13.7152 53.4937 13.7129 53.4999C13.7057 53.5189 13.6987 53.5379 13.6927 53.5575C13.6889 53.5697 13.6858 53.5819 13.6825 53.5941C13.6783 53.6102 13.6741 53.6263 13.6708 53.6427C13.6674 53.6588 13.6649 53.675 13.6625 53.6912C13.6611 53.7003 13.6589 53.7092 13.6579 53.7184C13.6574 53.7228 13.6574 53.7271 13.657 53.7314C13.6552 53.7485 13.6543 53.7657 13.6535 53.7828C13.6528 53.7965 13.652 53.8103 13.652 53.8238C13.6519 53.8384 13.6528 53.8528 13.6535 53.8673C13.6542 53.8836 13.6549 53.9 13.6565 53.9162C13.6576 53.927 13.6592 53.9376 13.6607 53.9482C13.6634 53.9677 13.666 53.9871 13.6699 54.0061C13.6714 54.0135 13.6735 54.0206 13.6751 54.028C13.6801 54.0497 13.6853 54.0713 13.6918 54.0925C13.6934 54.098 13.6956 54.1032 13.6974 54.1086C13.7047 54.1309 13.7125 54.1531 13.7215 54.1747C13.7238 54.1803 13.7267 54.1857 13.7291 54.1912C13.7382 54.2121 13.7477 54.2328 13.7584 54.2528C13.7622 54.26 13.7666 54.2669 13.7707 54.274C13.7808 54.2918 13.7909 54.3096 13.8023 54.3266C13.8082 54.3356 13.8148 54.3442 13.8211 54.3531C13.8315 54.3678 13.8418 54.3825 13.8531 54.3964C13.861 54.4062 13.8695 54.4153 13.8777 54.4247C13.8886 54.4372 13.8994 54.4498 13.911 54.4617C13.9198 54.4708 13.9293 54.4793 13.9385 54.4881C13.9509 54.4997 13.9631 54.5114 13.9761 54.5224C13.9847 54.5297 13.994 54.5364 14.0029 54.5434C14.0177 54.5551 14.0326 54.5666 14.0482 54.5773C14.056 54.5826 14.064 54.5873 14.072 54.5924C14.0899 54.6039 14.108 54.6151 14.1269 54.6252C14.1337 54.629 14.1408 54.6323 14.1478 54.6358C14.1682 54.6462 14.1888 54.6561 14.2101 54.665C14.2126 54.666 14.2148 54.6675 14.2174 54.6684C14.2202 54.6696 14.2231 54.67 14.2259 54.671C14.2686 54.688 14.3126 54.7028 14.3586 54.7132C14.359 54.7132 14.3594 54.7134 14.3598 54.7135C14.3906 54.7205 14.4221 54.7261 14.4542 54.7299C14.8566 54.778 15.7167 54.7804 17.2946 54.3811C18.6901 54.0279 20.647 53.3606 23.344 52.1333C33.4087 47.6393 48.467 37.205 56.2221 29.3528C60.7282 24.8549 61.6374 22.6356 61.8191 21.8903C61.8256 21.8638 61.8303 21.8373 61.8343 21.8107C61.8346 21.8085 61.8352 21.8065 61.8356 21.8043C61.8429 21.7536 61.845 21.7032 61.844 21.6534C61.8439 21.6509 61.8445 21.6485 61.8443 21.646C61.8442 21.6436 61.8439 21.6413 61.8438 21.6388C61.8429 21.6151 61.8407 21.5916 61.8379 21.5683C61.8372 21.5612 61.8366 21.554 61.8356 21.547C61.8324 21.5251 61.8282 21.5036 61.8235 21.4822C61.8216 21.4736 61.8202 21.465 61.818 21.4565C61.8134 21.4376 61.8077 21.4192 61.8018 21.4008C61.7985 21.3903 61.7955 21.3798 61.7919 21.3696C61.7862 21.3533 61.7793 21.3374 61.7726 21.3214C61.7678 21.3099 61.7633 21.2984 61.7581 21.2872C61.7509 21.272 61.7428 21.2574 61.7349 21.2426C61.729 21.2317 61.7234 21.2205 61.7171 21.21C61.7079 21.1945 61.6978 21.1797 61.6876 21.1648C61.6815 21.1559 61.6758 21.1465 61.6694 21.1378C61.6574 21.1214 61.6444 21.1057 61.6313 21.0901C61.6259 21.0837 61.6208 21.0769 61.6154 21.0707C61.6005 21.0539 61.5846 21.038 61.5684 21.0223C61.5638 21.0179 61.5596 21.0132 61.5549 21.0089C61.5382 20.9932 61.5204 20.9785 61.5024 20.964C61.4975 20.9601 61.4929 20.956 61.488 20.9523C61.4709 20.9392 61.4531 20.9272 61.435 20.9152C61.4281 20.9107 61.4215 20.9059 61.4145 20.9015C61.3988 20.8917 61.3824 20.8828 61.3659 20.8741C61.3555 20.8685 61.3454 20.8627 61.3348 20.8575C61.3212 20.8508 61.3071 20.8449 61.2931 20.8389C61.2788 20.8328 61.2645 20.8265 61.2498 20.8211C61.2381 20.8168 61.226 20.8131 61.214 20.8093C61.1966 20.8037 61.1792 20.7982 61.1612 20.7936C61.1575 20.7926 61.154 20.7911 61.1501 20.7902C61.1417 20.7882 61.1334 20.7872 61.1251 20.7854C61.1079 20.7818 61.0906 20.7781 61.073 20.7754C61.0577 20.773 61.0426 20.7715 61.0274 20.77C61.0134 20.7685 60.9995 20.767 60.9853 20.7662C60.9662 20.7652 60.9474 20.765 60.9285 20.7652C60.9208 20.7653 60.9133 20.7645 60.9055 20.7647C60.8988 20.7649 60.8918 20.7655 60.8851 20.7658C60.8812 20.766 60.8772 20.766 60.8732 20.7664C59.5014 20.8148 57.7704 21.2037 55.7213 21.9227C55.2674 21.4081 54.7917 20.9134 54.2949 20.4393C59.0422 18.62 62.1498 18.4913 63.3194 20.0813C64.519 21.8974 62.891 25.0741 58.3389 29.7957C52.3961 36.0197 41.4101 44.2847 31.6229 49.8949C31.1867 50.145 31.0358 50.7012 31.2859 51.1375C31.4935 51.4999 31.9126 51.6653 32.2986 51.5676C32.3772 51.5477 32.4545 51.5169 32.5283 51.4746C42.1186 45.9772 52.8605 37.9481 59.0288 31.6983C59.0873 31.9047 59.1439 32.1118 59.1967 32.3202C60.1681 36.159 60.0952 40.1847 58.986 43.9619C58.8444 44.4442 59.1206 44.9503 59.6032 45.0919C59.7651 45.1394 59.9296 45.1399 60.0822 45.1012C60.384 45.0249 60.6391 44.7953 60.7332 44.4749C61.9337 40.3856 62.0129 36.0281 60.9616 31.8737C60.8177 31.3049 60.6529 30.7407 60.4704 30.1899C62.5932 27.8954 64.0122 25.9558 64.7914 24.2837C65.7563 22.213 65.7652 20.4505 64.8176 19.0451ZM37.5544 14.3199C36.676 10.8485 38.7855 7.30965 42.2572 6.43115C45.7286 5.55272 49.2676 7.66223 50.146 11.1337C51.0245 14.6051 48.9149 18.1439 45.4434 19.0224C41.9718 19.9009 38.4329 17.7914 37.5544 14.3199ZM16.1251 52.7805C16.5145 52.1429 17.0075 51.4507 17.6032 50.7068C17.9085 51.1806 18.2299 51.6452 18.5702 52.0987C17.5216 52.4555 16.7205 52.6623 16.1251 52.7805ZM59.4062 22.773C59.0868 23.2892 58.6117 23.9672 57.9093 24.8245C57.6037 24.3477 57.2821 23.8824 56.9441 23.4296C57.8495 23.133 58.6711 22.9142 59.4062 22.773Z" fill="white"/>
</svg>
