<svg width="147" height="147" viewBox="0 0 147 147" fill="none" xmlns="http://www.w3.org/2000/svg">
<path d="M76.7968 69.6854C75.7175 68.5679 73.9393 68.5369 72.8218 69.6162C71.7071 70.6927 71.6761 72.471 72.7526 73.5884C73.8319 74.7032 75.6102 74.7341 76.7276 73.6576C77.8424 72.5783 77.8733 70.8001 76.7968 69.6854Z" fill="white"/>
<path d="M113.178 34.5477C107.783 28.9625 98.8961 28.8075 93.3104 34.2018C87.7395 39.582 87.584 48.4939 92.9653 54.0693C98.3475 59.6388 107.259 59.7963 112.832 54.4147C118.417 49.0209 118.572 40.1334 113.178 34.5477ZM108.928 50.3719C105.585 53.6002 100.237 53.5071 97.0078 50.1649C93.7792 46.82 93.872 41.4722 97.2148 38.2442C100.566 35.0079 105.898 35.1002 109.135 38.4518C112.371 41.8025 112.279 47.1353 108.928 50.3719Z" fill="white"/>
<path d="M145.517 3.31332C144.975 2.75219 144.227 2.44014 143.444 2.45602C142.808 2.46771 127.672 2.81234 109.582 8.85423C95.086 13.6904 82.9502 20.7645 73.5118 29.8802C71.3968 31.9228 69.3355 34.0919 67.3601 36.3483C58.2815 30.7892 50.9016 32.3542 46.2116 34.7601C35.4128 40.2997 28.5197 55.7313 28.326 66.8516C28.3071 67.9878 28.9739 69.0244 30.016 69.4773C30.3611 69.6275 30.7251 69.7038 31.087 69.7101C31.8183 69.7228 32.5417 69.4496 33.0885 68.9218C38.8292 63.3776 45.7826 63.8516 48.0509 64.1901L49.0177 65.1912C47.0011 69.7652 45.3615 74.3198 44.1398 78.7562C43.6987 80.3617 43.8084 82.0706 44.3951 83.6423C41.6683 84.8418 39.0267 86.6268 36.7147 88.8596C29.3567 95.9661 27.5812 113.566 27.5092 114.312C27.4303 115.13 27.7135 115.942 28.2847 116.534C28.8045 117.072 29.515 117.378 30.2567 117.391C30.3304 117.392 30.4043 117.391 30.4783 117.386C31.2261 117.341 48.8777 116.179 56.2358 109.073C58.5469 106.841 60.4224 104.263 61.7161 101.58C63.3574 102.259 65.0569 102.369 66.5933 102.003C71.0675 100.937 75.6759 99.4576 80.3179 97.6012L81.2846 98.6023C81.5437 100.881 81.7754 107.847 76.035 113.391C75.2178 114.18 74.9562 115.384 75.3729 116.442C75.7892 117.499 76.8017 118.201 77.9381 118.221C89.0584 118.415 104.72 112.063 110.633 101.464C113.2 96.8608 115.021 89.5399 109.782 80.2729C112.104 78.3781 114.344 76.3936 116.46 74.3502C125.899 65.2345 133.391 53.3524 138.729 39.0347C145.397 21.1647 146.268 6.04968 146.302 5.41512C146.343 4.63595 146.059 3.87472 145.517 3.31332ZM34.7129 60.9179C36.6053 52.5019 41.8359 43.3217 48.7778 39.7603C53.4168 37.3809 58.4364 37.7094 63.727 40.7263C59.0722 46.632 55.0038 53.0111 51.5876 59.7627C51.5462 59.7361 51.0516 59.0915 50.1157 58.8633C49.7309 58.7692 42.325 57.0408 34.7129 60.9179ZM52.3317 105.03C48.4013 108.826 39.3035 110.706 33.5612 111.438C34.4931 105.724 36.6887 96.6977 40.6188 92.9021C42.8198 90.7764 45.3568 89.1798 47.8942 88.2999L57.1843 97.9193C56.2166 100.425 54.533 102.904 52.3317 105.03ZM65.2923 96.5358C64.4756 96.7299 63.5391 96.4078 62.8511 95.6966C59.2797 91.9986 57.8825 90.5519 57.4441 90.0982C56.6402 89.2658 54.6689 87.2246 50.3145 82.7156C49.626 82.0013 49.3367 81.0545 49.5585 80.2464C50.5194 76.7575 51.7589 73.1823 53.2533 69.577L76.0825 93.2152C72.4268 94.5834 68.8112 95.6975 65.2923 96.5358ZM105.725 98.726C101.924 105.539 92.5679 110.448 84.0914 112.046C86.8726 107.025 87.5786 100.584 86.6628 96.6553C86.4502 95.7427 85.8654 95.2755 85.8332 95.2213C92.699 92.0423 99.2155 88.1984 105.28 83.7519C108.111 89.145 108.264 94.1735 105.725 98.726ZM112.556 70.3077C109.981 72.795 107.212 75.1933 104.327 77.4355C97.3921 82.8232 89.7835 87.3566 81.688 90.9298L55.7324 64.0549C59.5854 56.0882 64.3809 48.642 70.0062 41.8997C72.3495 39.0927 74.8424 36.4089 77.417 33.9226C85.8853 25.744 96.7427 19.3066 109.697 14.7623L132.829 38.7141C127.837 51.502 121.026 62.1287 112.556 70.3077ZM134.954 32.8237L115.658 12.844C126.415 9.70716 135.744 8.62487 140.398 8.25848C139.869 12.8974 138.463 22.1836 134.954 32.8237Z" fill="white"/>
<path d="M68.0187 117.225C66.9401 116.108 65.161 116.078 64.0451 117.156L55.9612 124.966C54.8453 126.044 54.8146 127.823 55.8926 128.939C56.9712 130.055 58.7502 130.086 59.8662 129.008L67.95 121.198C69.066 120.12 69.0967 118.341 68.0187 117.225Z" fill="white"/>
<path d="M28.9778 76.8004C27.9 75.6839 26.1213 75.6529 25.0045 76.7307L16.9179 84.5377C15.8014 85.6155 15.7701 87.3945 16.8479 88.511C17.9254 89.6269 19.7041 89.659 20.8212 88.5807L28.9078 80.7737C30.0243 79.6959 30.0555 77.9169 28.9778 76.8004Z" fill="white"/>
<path d="M48.0839 120.855C47.0064 119.738 45.2271 119.708 44.1106 120.785L24.7473 139.483C23.6308 140.561 23.5998 142.34 24.6778 143.456C25.7553 144.573 27.5346 144.604 28.6511 143.526L48.0144 124.828C49.1309 123.75 49.1619 121.971 48.0839 120.855Z" fill="white"/>
<path d="M25.6069 120.463C24.5291 119.347 22.7498 119.316 21.6336 120.394L2.27029 139.092C1.15377 140.17 1.12279 141.949 2.20082 143.065C3.27829 144.181 5.05758 144.213 6.1741 143.134L25.5374 124.437C26.6539 123.359 26.6849 121.58 25.6069 120.463Z" fill="white"/>
<path d="M24.6556 96.5968C23.5778 95.4809 21.7985 95.4499 20.6823 96.5279L1.32171 115.229C0.205467 116.307 0.174496 118.086 1.2528 119.202C2.33084 120.318 4.10985 120.349 5.22609 119.271L24.5867 100.57C25.7029 99.4921 25.7339 97.7133 24.6556 96.5968Z" fill="white"/>
<path d="M88.9223 57.9714C87.844 56.8551 86.0655 56.8242 84.9487 57.9022L80.9068 61.8058C79.7906 62.8838 79.7596 64.6628 80.8376 65.7793C81.916 66.8956 83.6947 66.9265 84.8112 65.8485L88.8531 61.945C89.9693 60.8669 90.0003 59.0879 88.9223 57.9714Z" fill="white"/>
</svg>
