<svg width="125" height="125" viewBox="0 0 125 125" fill="none" xmlns="http://www.w3.org/2000/svg">
<path d="M69.9016 100.386L72.4496 97.8735C73.1643 97.1689 73.1727 96.0184 72.4682 95.304C71.7636 94.5895 70.6131 94.5811 69.8986 95.2857L68.7036 96.4636C65.8237 92.951 64.2734 88.5837 64.3062 83.9851C64.3432 78.776 66.4067 73.8927 70.1163 70.2355C77.3384 63.1155 88.7526 62.7878 96.3614 69.1968L76.1232 89.1489C75.4087 89.8532 75.4005 91.0037 76.1049 91.7184C76.8097 92.4331 77.96 92.4413 78.6747 91.7367L80.0902 90.3411L92.6465 95.4675C94.0939 96.0585 95.5974 94.5793 95.0252 93.1225L90.0777 80.495L100.266 70.4505C100.971 69.7562 100.979 68.5855 100.284 67.881C91.3276 58.7957 76.6498 58.6913 67.5643 67.6482C63.1637 71.9868 60.7158 77.7797 60.6718 83.9597C60.6278 90.1398 62.9931 95.9669 67.3318 100.368C68.0368 101.082 69.1871 101.09 69.9016 100.386ZM90.0951 90.5006L82.9059 87.5655L83.9753 86.5111L87.2628 83.2703L90.0951 90.5006Z" fill="white"/>
<path d="M112.132 112.855C116.533 108.516 118.981 102.723 119.025 96.5434C119.032 95.5399 118.224 94.7205 117.221 94.7134C116.217 94.7062 115.398 95.5143 115.391 96.5178C115.354 101.727 113.29 106.61 109.58 110.267C105.871 113.925 100.959 115.918 95.7496 115.881C94.7459 115.874 93.9267 116.682 93.9196 117.685C93.9125 118.689 94.7203 119.508 95.7237 119.515C101.904 119.559 107.731 117.194 112.132 112.855Z" fill="white"/>
<path d="M106.689 107.335C109.615 104.45 111.243 100.598 111.273 96.4887C111.28 95.4852 110.472 94.6658 109.468 94.6587C108.465 94.6516 107.646 95.4594 107.638 96.4628C107.616 99.6015 106.373 102.543 104.138 104.747C101.903 106.95 98.9436 108.151 95.8049 108.129C94.8012 108.122 93.9821 108.93 93.9749 109.933C93.9678 110.937 94.7753 111.756 95.779 111.763C99.8882 111.792 103.763 110.22 106.689 107.335Z" fill="white"/>
<path d="M101.247 101.814C102.698 100.383 103.506 98.472 103.52 96.4335C103.527 95.4301 102.72 94.6107 101.716 94.6035C100.713 94.5964 99.8935 95.4037 99.8862 96.4072C99.8783 97.4751 99.4551 98.4761 98.6949 99.2256C97.9348 99.9751 96.9279 100.384 95.8602 100.376C94.8565 100.369 94.0374 101.177 94.0302 102.181C94.0231 103.184 94.8307 104.003 95.8344 104.011C97.8731 104.025 99.7951 103.245 101.247 101.814Z" fill="white"/>
<path d="M22.2849 122.833L55.4103 90.1759C56.1149 89.4814 56.1232 88.3109 55.4286 87.6064L47.1792 79.2387L56.4954 70.0542L59.3018 72.9008C59.9969 73.6056 61.1669 73.6139 61.8716 72.9191L72.9134 62.0334C73.6276 61.329 73.6362 60.1785 72.9316 59.4638L70.1252 56.6169L79.4417 47.4324L87.6908 55.7998C88.3957 56.5145 89.5459 56.5226 90.2606 55.818L123.386 23.1609C124.09 22.4665 124.098 21.2958 123.404 20.5913L104.354 1.26845C103.649 0.553756 102.499 0.545572 101.784 1.25017L68.6588 33.9074C67.9545 34.6017 67.9462 35.7724 68.6405 36.4769L76.8899 44.8445L67.5737 54.0291L64.7673 51.1825C64.0723 50.4777 62.9023 50.4694 62.1975 51.1642L60.731 52.6099L57.9246 49.7633C57.2296 49.0585 56.0596 49.0502 55.3548 49.745L49.8338 55.1877C49.1296 55.882 49.1212 57.0527 49.8156 57.7573L52.622 60.6039L51.1555 62.0497C50.4505 62.7449 50.4422 63.9142 51.1372 64.6192L53.9437 67.4661L44.6272 76.6507L36.3781 68.2833C35.6732 67.5686 34.523 67.5604 33.8083 68.265L0.683038 100.922C-0.0212299 101.616 -0.0295596 102.787 0.664756 103.492L19.7148 122.815C20.4202 123.53 21.5704 123.538 22.2849 122.833ZM100.045 41.0686L93.0712 33.9951L101.525 25.6609L108.498 32.7344L100.045 41.0686ZM119.54 21.8487L111.087 30.1829L104.113 23.1094L112.567 14.7752L119.54 21.8487ZM94.5836 13.4524L103.042 5.11386L110.015 12.1874L101.561 20.5216L94.673 13.5344C94.6441 13.505 94.6137 13.4791 94.5836 13.4524ZM83.5418 24.3379L92.0045 15.9948C92.0307 16.0253 92.0563 16.0563 92.0849 16.0851L98.9737 23.0726L90.52 31.4068L83.6315 24.4194C83.6023 24.3908 83.572 24.3646 83.5418 24.3379ZM72.5042 35.2195L80.9625 26.881C80.9887 26.9115 81.0143 26.9425 81.0429 26.9716L87.9317 33.959L79.478 42.2933L72.5042 35.2195ZM90.4832 36.5466L97.4567 43.6201L89.003 51.9544L82.0295 44.8809L90.4832 36.5466ZM53.6795 56.4999L56.6124 53.6084L58.143 55.1612L55.2101 58.0527L53.6795 56.4999ZM55.0012 63.3621L63.4549 55.0279L69.0677 60.7214L60.614 69.0556L55.0012 63.3621ZM32.0693 108.084L25.0957 101.01L33.5494 92.676L40.5229 99.7497L32.0693 108.084ZM51.5649 88.8637L43.1113 97.198L36.1377 90.1242L44.5914 81.79L51.5649 88.8637ZM26.6081 80.4674L35.0661 72.1289L42.0396 79.2024L33.586 87.5366L26.6975 80.5494C26.6686 80.5201 26.6382 80.4941 26.6081 80.4674ZM15.5663 91.3529L24.029 83.0099C24.0552 83.0404 24.0807 83.0713 24.1094 83.1004L30.9981 90.0879L22.5445 98.4221L15.656 91.4349C15.6271 91.4058 15.5967 91.3796 15.5663 91.3529ZM4.52893 102.235L12.9872 93.8961C13.0135 93.9266 13.039 93.9576 13.0677 93.9866L19.9564 100.974L11.5027 109.308L4.52893 102.235ZM14.054 111.896L22.5077 103.562L29.4814 110.635L21.0278 118.97L14.054 111.896Z" fill="white"/>
</svg>
