<svg width="84" height="84" viewBox="0 0 84 84" fill="none" xmlns="http://www.w3.org/2000/svg">
<path d="M9.13875 6.82602C5.82007 9.93952 3.64957 14.0821 2.97877 18.583C2.30796 23.0838 3.17612 27.6793 5.44265 31.6252C5.32315 32.049 5.25525 32.4856 5.24042 32.9257L5.23857 32.9796C5.21861 33.7017 5.34403 34.4205 5.60738 35.0931C5.87073 35.7658 6.26663 36.3787 6.77155 36.8953C7.41991 37.5576 8.22641 38.0436 9.11486 38.3075C10.0033 38.5714 10.9444 38.6043 11.8491 38.4033C13.298 39.3546 14.8639 40.1144 16.5077 40.6639L44.6991 81.2777C44.9772 81.6811 45.3985 81.9634 45.8773 82.0673C46.3561 82.1713 46.8565 82.089 47.2769 81.8373C47.6972 81.5855 48.0059 81.1832 48.1403 80.712C48.2747 80.2409 48.2246 79.7362 48.0003 79.3006L28.3973 40.931C29.3836 40.651 30.3471 40.296 31.2794 39.8692L66.8601 71.641C67.218 71.9635 67.6841 72.1396 68.1658 72.1343C68.6475 72.129 69.1097 71.9428 69.4604 71.6125L69.4908 71.5841C69.8442 71.257 70.0617 70.809 70.1002 70.3289C70.1387 69.8489 69.9953 69.372 69.6984 68.9927L40.496 31.3441C41.025 30.3926 41.4756 29.3995 41.8434 28.3749L78.7818 50.5598C79.201 50.8124 79.7006 50.8961 80.1793 50.794C80.6579 50.6919 81.0799 50.4116 81.3595 50.0099C81.6391 49.6082 81.7555 49.1152 81.6851 48.6309C81.6146 48.1465 81.3626 47.7071 80.9802 47.4017L42.3866 16.4904C41.9299 14.7248 41.2343 13.0298 40.3192 11.4523C40.3768 11.1624 40.4111 10.8683 40.4218 10.5728C40.4756 9.14336 39.9613 7.75073 38.9912 6.69946C38.0211 5.6482 36.6742 5.02383 35.245 4.96289C34.951 4.95024 34.6564 4.96116 34.3641 4.99554C30.5816 2.37666 26.0172 1.13023 21.4287 1.4632C16.8401 1.79617 12.5035 3.6885 9.13875 6.82602ZM45.6155 79.0629L19.4807 41.4124C21.7617 41.803 24.0929 41.7976 26.372 41.3966L45.6155 79.0629ZM67.66 69.6529L30.3274 36.3167C30.5931 34.6908 31.3903 33.1988 32.5943 32.0743C33.7982 30.9497 35.3409 30.2559 36.9812 30.1014L67.66 69.6529ZM78.7082 48.1643L42.4431 26.3831C42.7781 25.0259 42.9714 23.6376 43.0199 22.2406C43.0279 22.0076 43.0319 21.774 43.032 21.54C43.0317 20.8607 42.9971 20.1818 42.9284 19.506L78.7082 48.1643ZM39.1386 29.5941L38.2465 28.4441C38.1489 28.3184 38.0229 28.2175 37.8788 28.1498C37.7347 28.0821 37.5767 28.0495 37.4175 28.0547C35.1384 28.1287 32.9616 29.0183 31.283 30.5617C29.6045 32.1051 28.5357 34.1998 28.2711 36.4647L28.2558 36.5951C28.2372 36.7557 28.2574 36.9184 28.3148 37.0695C28.3722 37.2206 28.465 37.3558 28.5855 37.4635L29.6193 38.3869C27.1099 39.392 24.4074 39.8228 21.71 39.6476C19.0125 39.4725 16.3884 38.6959 14.0301 37.3748C14.1475 37.2823 14.2626 37.1856 14.3736 37.082L38.7117 14.3572C38.9102 14.1718 39.0944 13.9716 39.2626 13.7583C40.4474 16.2335 41.0521 18.9464 41.0306 21.6905C41.0091 24.4346 40.362 27.1377 39.1386 29.5941ZM37.5468 8.10702C38.1397 8.77434 38.4494 9.64641 38.4101 10.5382C38.3707 11.43 37.9855 12.2715 37.3361 12.884L12.998 35.6086C12.3505 36.2143 11.491 36.5415 10.6046 36.5199C9.7182 36.4983 8.87572 36.1295 8.25846 35.493C7.94478 35.1675 7.701 34.7813 7.54209 34.3581C7.38318 33.9349 7.31251 33.4836 7.33442 33.0321L7.33561 32.9975C7.34218 32.5515 7.43773 32.1113 7.61664 31.7027C7.79556 31.2941 8.05424 30.9253 8.37753 30.6179L32.6953 7.89295C33.0252 7.58307 33.4137 7.34236 33.8381 7.18502C34.2625 7.02768 34.714 6.9569 35.1662 6.97685C35.6184 6.9968 36.0619 7.10707 36.4708 7.30118C36.8797 7.49528 37.2455 7.76928 37.5468 8.10702ZM31.9915 5.87068C31.7466 6.03447 31.5153 6.21762 31.2996 6.41839L6.96152 29.1435C6.83419 29.2624 6.71312 29.3867 6.59831 29.5164C4.89067 26.0232 4.35117 22.0735 5.05941 18.2502C5.76766 14.4269 7.68614 10.9326 10.5318 8.28278C13.3774 5.63298 16.9994 3.96809 20.8634 3.53377C24.7274 3.09946 28.6287 3.91872 31.9915 5.87068Z" fill="white"/>
<path d="M6.22828 19.7548C6.15866 20.3843 6.12377 21.0171 6.1238 21.6504C6.12386 21.9177 6.23011 22.174 6.41915 22.363C6.6082 22.552 6.86457 22.6581 7.13186 22.658C7.39915 22.6579 7.65547 22.5517 7.84443 22.3627C8.03339 22.1736 8.13951 21.9172 8.13945 21.6499C8.13944 21.0912 8.1702 20.533 8.23157 19.9776C8.23465 19.9517 8.23637 19.9259 8.23726 19.9C8.24609 19.6395 8.15362 19.3857 7.97927 19.1918C7.80493 18.998 7.56226 18.8793 7.30225 18.8607C7.04223 18.842 6.78509 18.9248 6.58483 19.0917C6.38456 19.2586 6.25676 19.4966 6.22826 19.7557L6.22828 19.7548Z" fill="white"/>
<path d="M7.0139 16.19C6.96974 16.316 6.95105 16.4495 6.95891 16.5828C6.96677 16.716 7.00103 16.8464 7.05969 16.9663C7.11836 17.0862 7.20026 17.1933 7.30064 17.2813C7.40103 17.3693 7.51789 17.4364 7.64445 17.4789C7.77102 17.5213 7.90475 17.5382 8.03789 17.5286C8.17104 17.5189 8.30093 17.4829 8.42004 17.4226C8.53915 17.3623 8.6451 17.279 8.73173 17.1774C8.81836 17.0759 8.88395 16.9581 8.9247 16.831C9.68597 14.5441 11.0034 12.4821 12.7587 10.8303C12.9515 10.6473 13.0642 10.3955 13.0722 10.1298C13.0803 9.86402 12.983 9.60587 12.8015 9.41154C12.6201 9.21721 12.3692 9.10246 12.1035 9.09226C11.8379 9.08207 11.5789 9.17727 11.3831 9.35713C9.38327 11.2377 7.88191 13.5857 7.0139 16.19Z" fill="white"/>
<path d="M65.9533 28.033C65.8704 28.1364 65.8088 28.255 65.7718 28.3821C65.7349 28.5092 65.7233 28.6424 65.7379 28.774C65.7524 28.9056 65.7927 29.0331 65.8565 29.1491C65.9203 29.2651 66.0064 29.3674 66.1097 29.4502L70.9596 33.3334C71.0627 33.4179 71.1816 33.4811 71.3093 33.5194C71.437 33.5577 71.571 33.5702 71.7036 33.5563C71.8361 33.5424 71.9646 33.5023 72.0816 33.4384C72.1986 33.3745 72.3018 33.2881 72.3851 33.184C72.4684 33.08 72.5303 32.9604 72.5671 32.8323C72.6039 32.7042 72.615 32.57 72.5996 32.4376C72.5842 32.3052 72.5427 32.1772 72.4775 32.0609C72.4122 31.9446 72.3246 31.8425 72.2196 31.7603L67.3699 27.8761C67.2666 27.7934 67.148 27.7318 67.0209 27.6949C66.8938 27.658 66.7606 27.6466 66.6291 27.6611C66.4975 27.6757 66.3701 27.7161 66.2542 27.7799C66.1382 27.8437 66.036 27.9297 65.9533 28.033Z" fill="white"/>
<path d="M58.305 21.908C58.2222 22.0113 58.1605 22.1299 58.1236 22.2571C58.0866 22.3842 58.0751 22.5174 58.0896 22.649C58.1041 22.7806 58.1445 22.908 58.2083 23.0241C58.2721 23.1401 58.3581 23.2424 58.4615 23.3251L62.3374 26.4283C62.4406 26.5118 62.5593 26.5742 62.6867 26.6117C62.8141 26.6493 62.9476 26.6613 63.0797 26.647C63.2117 26.6328 63.3396 26.5926 63.456 26.5288C63.5725 26.465 63.6752 26.3788 63.7582 26.2751C63.8412 26.1715 63.903 26.0525 63.9398 25.9249C63.9767 25.7973 63.988 25.6637 63.9731 25.5318C63.9581 25.3998 63.9173 25.2721 63.8529 25.156C63.7884 25.0399 63.7017 24.9376 63.5976 24.8552L59.7213 21.7507C59.5126 21.5838 59.2462 21.5066 58.9806 21.5361C58.715 21.5656 58.472 21.6994 58.305 21.908Z" fill="white"/>
<path d="M20.9724 19.4996C20.5804 19.866 20.3058 20.3404 20.1834 20.8628C20.0609 21.3852 20.0961 21.9322 20.2845 22.4347C20.4728 22.9371 20.8059 23.3724 21.2416 23.6855C21.6773 23.9987 22.1961 24.1757 22.7323 24.1941C23.2686 24.2124 23.7983 24.0714 24.2544 23.7888C24.7105 23.5063 25.0726 23.0948 25.295 22.6064C25.5173 22.1181 25.5898 21.5748 25.5034 21.0452C25.4171 20.5156 25.1756 20.0236 24.8096 19.6312C24.3178 19.1056 23.6376 18.7966 22.9182 18.7719C22.1988 18.7472 21.4991 19.009 20.9724 19.4996ZM23.3362 21.0066C23.4305 21.1076 23.4927 21.2344 23.515 21.3708C23.5372 21.5072 23.5186 21.6471 23.4613 21.7729C23.404 21.8987 23.3108 22.0047 23.1933 22.0775C23.0758 22.1503 22.9394 22.1866 22.8012 22.1819C22.6631 22.1771 22.5295 22.1315 22.4173 22.0509C22.305 21.9702 22.2192 21.8581 22.1707 21.7287C22.1222 21.5993 22.1132 21.4584 22.1447 21.3238C22.1763 21.1892 22.247 21.0671 22.348 20.9727C22.4836 20.8464 22.6639 20.779 22.8491 20.7854C23.0344 20.7917 23.2095 20.8713 23.3362 21.0066Z" fill="white"/>
<path d="M15.9017 24.2346C15.5096 24.601 15.235 25.0754 15.1125 25.5979C14.99 26.1203 15.0252 26.6673 15.2135 27.1698C15.4019 27.6723 15.735 28.1077 16.1707 28.4208C16.6065 28.734 17.1253 28.911 17.6616 28.9294C18.1979 28.9478 18.7276 28.8068 19.1838 28.5241C19.6399 28.2415 20.0021 27.83 20.2244 27.3416C20.4467 26.8532 20.5193 26.3099 20.4328 25.7803C20.3464 25.2506 20.1049 24.7585 19.7389 24.3662C19.2471 23.8406 18.5669 23.5315 17.8475 23.5069C17.1281 23.4822 16.4283 23.7439 15.9017 24.2346ZM18.2657 25.7415C18.36 25.8426 18.4222 25.9694 18.4445 26.1058C18.4668 26.2423 18.4482 26.3823 18.3909 26.5081C18.3336 26.6339 18.2403 26.74 18.1228 26.8128C18.0053 26.8856 17.8688 26.922 17.7306 26.9172C17.5925 26.9125 17.4588 26.8669 17.3465 26.7862C17.2343 26.7055 17.1485 26.5933 17.1 26.4638C17.0514 26.3344 17.0424 26.1934 17.074 26.0588C17.1056 25.9242 17.1764 25.802 17.2774 25.7077C17.4131 25.5814 17.5933 25.5141 17.7785 25.5204C17.9638 25.5268 18.1389 25.6063 18.2657 25.7415Z" fill="white"/>
<path d="M26.0432 14.7655C25.6512 15.1319 25.3766 15.6063 25.2542 16.1287C25.1317 16.6511 25.1669 17.1981 25.3553 17.7005C25.5436 18.203 25.8767 18.6383 26.3124 18.9514C26.7481 19.2646 27.2669 19.4415 27.8031 19.4599C28.3394 19.4783 28.8691 19.3373 29.3252 19.0547C29.7813 18.7721 30.1434 18.3607 30.3658 17.8723C30.5881 17.384 30.6606 16.8407 30.5742 16.3111C30.4879 15.7815 30.2464 15.2895 29.8804 14.8971C29.3886 14.3715 28.7084 14.0625 27.989 14.0379C27.2697 14.0132 26.5699 14.2749 26.0432 14.7655ZM28.4072 16.2726C28.5014 16.3737 28.5636 16.5004 28.5859 16.6368C28.6081 16.7732 28.5894 16.9132 28.5321 17.0389C28.4749 17.1647 28.3816 17.2707 28.2641 17.3435C28.1466 17.4162 28.0102 17.4526 27.8721 17.4478C27.734 17.4431 27.6004 17.3975 27.4882 17.3169C27.3759 17.2362 27.2901 17.1241 27.2416 16.9947C27.1931 16.8653 27.184 16.7244 27.2156 16.5899C27.2471 16.4553 27.3178 16.3331 27.4188 16.2387C27.5545 16.1124 27.7347 16.045 27.92 16.0514C28.1053 16.0577 28.2805 16.1373 28.4072 16.2726Z" fill="white"/>
<path d="M30.9831 13.8679C31.3496 14.2604 31.8242 14.5354 32.3469 14.6582C32.8696 14.7809 33.417 14.7459 33.9199 14.5576C34.4227 14.3692 34.8584 14.036 35.1719 13.6C35.4853 13.164 35.6624 12.6449 35.6808 12.1082C35.6992 11.5716 35.5581 11.0415 35.2752 10.5851C34.9924 10.1287 34.5805 9.76637 34.0918 9.54402C33.603 9.32167 33.0593 9.24924 32.5294 9.33591C31.9994 9.42257 31.5071 9.66443 31.1147 10.0309C30.5891 10.5227 30.28 11.2029 30.2554 11.9222C30.2307 12.6416 30.4924 13.3413 30.9831 13.8679ZM33.4786 11.5378C33.573 11.6389 33.6352 11.7657 33.6575 11.9021C33.6798 12.0386 33.6611 12.1786 33.6039 12.3044C33.5466 12.4302 33.4533 12.5363 33.3358 12.6091C33.2183 12.6819 33.0818 12.7183 32.9436 12.7135C32.8054 12.7088 32.6718 12.6632 32.5595 12.5825C32.4473 12.5018 32.3614 12.3896 32.3129 12.2601C32.2644 12.1307 32.2554 11.9897 32.287 11.8551C32.3186 11.7205 32.3893 11.5983 32.4904 11.504C32.626 11.378 32.806 11.3108 32.9911 11.3171C33.1761 11.3235 33.3511 11.4028 33.4778 11.5378L33.4786 11.5378Z" fill="white"/>
<path d="M10.8311 28.9701C10.4386 29.3365 10.1636 29.8111 10.0409 30.3339C9.91813 30.8566 9.95316 31.404 10.1415 31.9068C10.3299 32.4097 10.6631 32.8453 11.0991 33.1588C11.5351 33.4722 12.0542 33.6493 12.5908 33.6677C13.1275 33.6861 13.6575 33.545 14.1139 33.2621C14.5704 32.9793 14.9327 32.5675 15.155 32.0787C15.3774 31.59 15.4498 31.0463 15.3632 30.5163C15.2765 29.9864 15.0347 29.4941 14.6682 29.1016C14.1764 28.5762 13.4962 28.2672 12.7768 28.2425C12.0575 28.2179 11.3578 28.4795 10.8311 28.9701ZM13.1951 30.4763C13.2893 30.5774 13.3515 30.7042 13.3737 30.8406C13.396 30.977 13.3773 31.1169 13.32 31.2427C13.2627 31.3684 13.1695 31.4744 13.052 31.5472C12.9345 31.62 12.7981 31.6563 12.66 31.6515C12.5219 31.6468 12.3882 31.6012 12.276 31.5206C12.1638 31.4399 12.078 31.3278 12.0295 31.1984C11.981 31.069 11.9719 30.9281 12.0034 30.7936C12.035 30.659 12.1057 30.5368 12.2066 30.4425C12.2735 30.3792 12.3522 30.3299 12.4383 30.2973C12.5243 30.2647 12.616 30.2496 12.708 30.2528C12.7999 30.2559 12.8903 30.2774 12.974 30.3158C13.0576 30.3542 13.1327 30.4088 13.195 30.4765L13.1951 30.4763Z" fill="white"/>
</svg>
