<svg width="105" height="85" viewBox="0 0 105 85" fill="none" xmlns="http://www.w3.org/2000/svg">
<path d="M85.6361 59.4468L85.0676 59.872C84.9293 59.9737 84.8124 60.1018 84.7238 60.2489C84.6353 60.396 84.5767 60.5592 84.5515 60.7291C84.5262 60.8989 84.5349 61.0721 84.577 61.2386C84.619 61.4051 84.6936 61.5616 84.7964 61.6991C84.8993 61.8367 85.0283 61.9525 85.1761 62.0399C85.3239 62.1273 85.4876 62.1846 85.6576 62.2084C85.8277 62.2322 86.0008 62.2222 86.167 62.1788C86.3331 62.1354 86.489 62.0596 86.6257 61.9556L87.1942 61.5304C87.3326 61.4287 87.4494 61.3006 87.538 61.1535C87.6266 61.0064 87.6852 60.8432 87.7104 60.6733C87.7356 60.5035 87.727 60.3303 87.6849 60.1638C87.6429 59.9973 87.5683 59.8408 87.4654 59.7033C87.3626 59.5657 87.2336 59.4499 87.0857 59.3625C86.9379 59.2751 86.7743 59.2178 86.6042 59.194C86.4342 59.1702 86.2611 59.1802 86.0949 59.2236C85.9287 59.267 85.7728 59.3428 85.6361 59.4468Z" fill="white"/>
<path d="M77.0108 6.84907C77.3093 6.84927 77.5988 6.74642 77.8302 6.55788L83.0632 2.30812C83.3298 2.09019 83.4991 1.7755 83.534 1.43298C83.569 1.09047 83.4667 0.748066 83.2497 0.480807C83.0326 0.213549 82.7185 0.0432268 82.3761 0.00716151C82.0337 -0.0289038 81.6909 0.0722291 81.423 0.2884L76.1899 4.53816C75.9812 4.70762 75.8301 4.93758 75.7574 5.19642C75.6847 5.45526 75.694 5.73026 75.784 5.9836C75.874 6.23694 76.0403 6.45617 76.26 6.61116C76.4797 6.76614 76.742 6.84926 77.0108 6.84907Z" fill="white"/>
<path d="M68.9779 10.3951L59.463 18.1223C59.1952 18.3398 59.0247 18.6549 58.9891 18.9981C58.9535 19.3413 59.0558 19.6846 59.2733 19.9525C59.4908 20.2204 59.8059 20.3908 60.1491 20.4264C60.4924 20.462 60.8357 20.3598 61.1035 20.1422L70.6182 12.4148C70.7515 12.3073 70.8622 12.1746 70.944 12.0242C71.0259 11.8738 71.0773 11.7088 71.0952 11.5385C71.1131 11.3683 71.0973 11.1962 71.0486 11.032C70.9998 10.8679 70.9192 10.715 70.8113 10.5821C70.7033 10.4492 70.5702 10.3389 70.4196 10.2576C70.269 10.1762 70.1037 10.1254 69.9334 10.108C69.7631 10.0907 69.591 10.1071 69.4271 10.1563C69.2631 10.2056 69.1105 10.2867 68.9779 10.3951Z" fill="white"/>
<path d="M45.1495 32.7239C45.448 32.7243 45.7375 32.6215 45.9689 32.433L52.8535 26.8419C52.9861 26.7342 53.0963 26.6015 53.1776 26.4512C53.2589 26.301 53.3098 26.1362 53.3275 25.9663C53.3451 25.7963 53.3291 25.6246 53.2804 25.4609C53.2316 25.2971 53.1511 25.1446 53.0434 25.0119C52.9358 24.8793 52.803 24.7692 52.6528 24.6879C52.5025 24.6065 52.3377 24.5556 52.1678 24.538C51.9979 24.5203 51.8261 24.5363 51.6624 24.5851C51.4986 24.6338 51.3461 24.7143 51.2134 24.822L44.3288 30.413C44.1201 30.5825 43.969 30.8124 43.8964 31.0712C43.8237 31.3301 43.8329 31.605 43.9229 31.8584C44.0129 32.1117 44.1791 32.3309 44.3988 32.4859C44.6184 32.6409 44.8807 32.7241 45.1495 32.7239Z" fill="white"/>
<path d="M100.954 23.8186L96.2135 27.8082C95.9531 28.0315 95.7914 28.3486 95.7637 28.6905C95.7359 29.0324 95.8443 29.3714 96.0653 29.6338C96.2863 29.8961 96.6019 30.0606 96.9436 30.0914C97.2852 30.1222 97.6252 30.0168 97.8895 29.7982L102.63 25.8086C102.894 25.5865 103.059 25.2685 103.089 24.9248C103.118 24.581 103.01 24.2396 102.788 23.9756C102.566 23.7116 102.248 23.5466 101.904 23.517C101.56 23.4874 101.219 23.5956 100.955 23.8177L100.954 23.8186Z" fill="white"/>
<path d="M87.8571 34.8393L71.7334 48.4068C71.6019 48.5166 71.4933 48.6512 71.4139 48.8031C71.3346 48.9549 71.2859 49.1209 71.2709 49.2915C71.2558 49.4622 71.2747 49.6341 71.3262 49.7975C71.3778 49.9609 71.4612 50.1125 71.5715 50.2435C71.6818 50.3746 71.8169 50.4826 71.9691 50.5613C72.1212 50.64 72.2874 50.6879 72.4582 50.7022C72.6289 50.7165 72.8007 50.697 72.9639 50.6447C73.127 50.5924 73.2782 50.5084 73.4088 50.3975L89.5326 36.8302C89.7966 36.608 89.9615 36.29 89.9911 35.9463C90.0207 35.6025 89.9125 35.261 89.6903 34.997C89.4681 34.733 89.1502 34.5681 88.8064 34.5385C88.4626 34.5089 88.1212 34.6171 87.8571 34.8393Z" fill="white"/>
<path d="M66.3408 54.6447C66.2308 54.514 66.0962 54.4063 65.9445 54.3276C65.7929 54.2489 65.6272 54.2009 65.457 54.1862C65.2868 54.1715 65.1154 54.1906 64.9525 54.2421C64.7896 54.2937 64.6385 54.3769 64.5078 54.4869L61.8491 56.7243C61.5851 56.9465 61.4201 57.2644 61.3905 57.6081C61.3609 57.9519 61.4691 58.2933 61.6913 58.5573C61.9134 58.8214 62.2313 58.9863 62.5751 59.0159C62.9188 59.0455 63.2603 58.9373 63.5243 58.7152L66.1832 56.4778C66.4472 56.2556 66.6121 55.9377 66.6416 55.5939C66.6712 55.2502 66.563 54.9087 66.3408 54.6447Z" fill="white"/>
<path d="M102.406 4.52461L82.9465 19.7891C82.8111 19.8942 82.6978 20.025 82.6131 20.174C82.5284 20.323 82.474 20.4873 82.453 20.6575C82.432 20.8276 82.4449 21.0002 82.4908 21.1653C82.5367 21.3305 82.6148 21.4849 82.7207 21.6198C82.8265 21.7546 82.9579 21.8672 83.1073 21.9511C83.2568 22.0351 83.4214 22.0886 83.5916 22.1087C83.7618 22.1288 83.9344 22.1151 84.0993 22.0683C84.2642 22.0215 84.4182 21.9426 84.5525 21.8361L104.012 6.57165C104.148 6.46698 104.263 6.33626 104.349 6.18704C104.434 6.03782 104.49 5.87308 104.511 5.70235C104.533 5.53162 104.52 5.3583 104.475 5.19243C104.429 5.02656 104.35 4.87143 104.244 4.73603C104.138 4.60063 104.006 4.48765 103.856 4.40363C103.706 4.31961 103.54 4.26622 103.369 4.24656C103.198 4.22689 103.025 4.24135 102.86 4.28907C102.694 4.3368 102.54 4.41686 102.406 4.52461Z" fill="white"/>
<path d="M72.5711 30.8824C72.8621 30.8826 73.1447 30.7849 73.3733 30.6048L76.4071 28.225C76.5416 28.1195 76.6539 27.9886 76.7378 27.8398C76.8216 27.6909 76.8753 27.527 76.8958 27.3574C76.9163 27.1878 76.9032 27.0158 76.8572 26.8513C76.8112 26.6867 76.7333 26.5329 76.6279 26.3984C76.5224 26.264 76.3915 26.1517 76.2427 26.0678C76.0938 25.984 75.9299 25.9303 75.7603 25.9098C75.5907 25.8893 75.4187 25.9024 75.2542 25.9484C75.0896 25.9943 74.9358 26.0723 74.8013 26.1777L71.7688 28.5576C71.5558 28.7245 71.4002 28.9538 71.3237 29.2134C71.2471 29.473 71.2534 29.75 71.3417 30.0058C71.43 30.2616 71.5958 30.4836 71.8162 30.6407C72.0366 30.7978 72.3004 30.8823 72.5711 30.8824Z" fill="white"/>
<path d="M44.1283 52.035C44.2344 52.169 44.3657 52.2807 44.515 52.3639C44.6642 52.4471 44.8284 52.5001 44.9981 52.5199C45.1678 52.5396 45.3397 52.5258 45.5041 52.479C45.6684 52.4323 45.822 52.3537 45.9559 52.2477L65.1035 37.0916C65.3741 36.8775 65.5485 36.5647 65.5884 36.222C65.6283 35.8792 65.5304 35.5347 65.3163 35.2641C65.1022 34.9936 64.7894 34.8192 64.4466 34.7792C64.1039 34.7393 63.7594 34.8372 63.4888 35.0513L44.341 50.2074C44.2071 50.3134 44.0953 50.4448 44.0121 50.594C43.9289 50.7432 43.8759 50.9074 43.8561 51.0771C43.8364 51.2468 43.8503 51.4188 43.897 51.5831C43.9437 51.7475 44.0223 51.901 44.1283 52.035Z" fill="white"/>
<path d="M2.6302 35.9827C2.11002 35.9827 1.60152 36.1369 1.16901 36.4259C0.736495 36.7149 0.399391 37.1257 0.200326 37.6063C0.00126162 38.0868 -0.0508227 38.6157 0.0506595 39.1258C0.152142 39.636 0.402633 40.1047 0.770456 40.4725C1.13828 40.8403 1.60692 41.0908 2.1171 41.1923C2.62729 41.2938 3.15611 41.2417 3.63669 41.0426C4.11728 40.8436 4.52804 40.5065 4.81704 40.0739C5.10603 39.6414 5.26029 39.1329 5.26029 38.6127C5.25954 37.9154 4.9822 37.2469 4.48913 36.7538C3.99605 36.2607 3.32752 35.9834 2.6302 35.9827Z" fill="white"/>
<path d="M14.5961 30.4299C14.9059 30.4299 15.2089 30.338 15.4665 30.1659C15.7242 29.9937 15.925 29.749 16.0436 29.4627C16.1622 29.1764 16.1932 28.8614 16.1327 28.5575C16.0723 28.2536 15.9231 27.9744 15.7039 27.7553C15.4848 27.5362 15.2057 27.3869 14.9017 27.3265C14.5978 27.266 14.2828 27.2971 13.9965 27.4156C13.7102 27.5342 13.4655 27.7351 13.2933 27.9927C13.1212 28.2504 13.0293 28.5533 13.0293 28.8632C13.0298 29.2785 13.195 29.6767 13.4888 29.9705C13.7825 30.2642 14.1807 30.4294 14.5961 30.4299Z" fill="white"/>
<path d="M67.793 79.5886C67.3255 79.5886 66.8686 79.7272 66.4799 79.9869C66.0913 80.2466 65.7883 80.6157 65.6095 81.0476C65.4306 81.4794 65.3838 81.9546 65.475 82.4131C65.5662 82.8715 65.7913 83.2926 66.1218 83.6232C66.4523 83.9537 66.8734 84.1788 67.3319 84.27C67.7903 84.3612 68.2655 84.3144 68.6974 84.1355C69.1292 83.9566 69.4984 83.6537 69.758 83.265C70.0177 82.8764 70.1564 82.4194 70.1564 81.952C70.1554 81.3255 69.9061 80.7249 69.4631 80.2819C69.0201 79.8388 68.4195 79.5895 67.793 79.5886Z" fill="white"/>
<path d="M64.2965 4.10174C64.6999 4.10174 65.0943 3.9821 65.4298 3.75795C65.7653 3.53379 66.0267 3.21519 66.1811 2.84244C66.3355 2.46969 66.3759 2.05952 66.2972 1.66382C66.2184 1.26811 66.0241 0.90464 65.7388 0.619365C65.4535 0.334091 65.09 0.139828 64.6943 0.061143C64.2986 -0.017542 63.8884 0.0228855 63.5157 0.177313C63.143 0.33174 62.8244 0.593231 62.6003 0.928717C62.3762 1.2642 62.2565 1.65862 62.2566 2.06208C62.2572 2.60287 62.4723 3.12134 62.8548 3.50372C63.2372 3.8861 63.7557 4.10117 64.2965 4.10174Z" fill="white"/>
<path d="M60.7597 63.0715L58.0871 61.3246L58.0112 58.1338C58.0055 57.8911 57.932 57.6548 57.799 57.4517C57.6659 57.2486 57.4787 57.0867 57.2585 56.9845C57.0383 56.8823 56.7939 56.8437 56.5529 56.8731C56.3119 56.9026 56.0839 56.9989 55.8948 57.1511L53.4083 59.1522L50.3511 58.2383C50.1185 58.1688 49.8711 58.1658 49.6368 58.2296C49.4026 58.2934 49.1909 58.4214 49.0257 58.5992C48.8604 58.7771 48.7482 58.9976 48.7018 59.2359C48.6553 59.4741 48.6765 59.7206 48.7628 59.9475L49.8977 62.9308L48.0835 65.557C47.9457 65.7567 47.8665 65.991 47.8549 66.2333C47.8432 66.4757 47.8996 66.7164 48.0176 66.9284C48.1356 67.1404 48.3105 67.3152 48.5227 67.433C48.7348 67.5508 48.9756 67.607 49.2179 67.5951L52.4053 67.4377L54.3421 69.9746C54.4895 70.1675 54.6878 70.3154 54.9148 70.4015C55.1418 70.4876 55.3883 70.5085 55.6266 70.4617C55.8648 70.415 56.0852 70.3026 56.2628 70.1371C56.4405 69.9717 56.5683 69.7598 56.6318 69.5255L57.4672 66.4451L60.4787 65.3868C60.7077 65.3063 60.9097 65.1634 61.0617 64.9741C61.2137 64.7848 61.3098 64.5568 61.339 64.3158C61.3682 64.0748 61.3294 63.8305 61.2269 63.6104C61.1245 63.3903 60.9625 63.2033 60.7593 63.0704L60.7597 63.0715ZM55.9599 64.2181C55.7609 64.2881 55.582 64.4053 55.4385 64.5598C55.2949 64.7143 55.1911 64.9014 55.1359 65.1049L54.8107 66.3015L54.0583 65.3161C53.9369 65.157 53.7804 65.0282 53.6011 64.9395C53.4218 64.8507 53.2244 64.8046 53.0243 64.8046C53.0026 64.8046 52.9809 64.8046 52.9592 64.8063L51.721 64.8675L52.4256 63.8484C52.5455 63.6748 52.6214 63.4747 52.6467 63.2653C52.6721 63.0559 52.6461 62.8435 52.5711 62.6463L52.1303 61.4876L53.3183 61.8426C53.5204 61.9029 53.7342 61.9133 53.9412 61.8727C54.1482 61.8321 54.3422 61.7417 54.5065 61.6095L55.4722 60.8324L55.5017 62.0717C55.5067 62.2826 55.563 62.489 55.6655 62.6733C55.7681 62.8576 55.9139 63.0142 56.0904 63.1296L57.1283 63.8081L55.9599 64.2181Z" fill="white"/>
<path d="M32.0037 40.054L35.191 39.8966L37.1281 42.4334C37.2754 42.6264 37.4738 42.7743 37.7008 42.8604C37.9277 42.9465 38.1743 42.9674 38.4125 42.9207C38.6507 42.874 38.8711 42.7616 39.0488 42.5961C39.2264 42.4307 39.3543 42.2189 39.4178 41.9846L40.2547 38.9048L43.2662 37.8465C43.4952 37.766 43.6971 37.623 43.849 37.4337C44.001 37.2445 44.097 37.0165 44.1261 36.7755C44.1553 36.5346 44.1165 36.2903 44.0141 36.0702C43.9117 35.8502 43.7497 35.6632 43.5466 35.5304L40.8751 33.7836L40.7992 30.5928C40.7934 30.3501 40.7199 30.1139 40.5869 29.9109C40.4539 29.7078 40.2667 29.546 40.0465 29.4438C39.8263 29.3415 39.582 29.3029 39.341 29.3323C39.1 29.3617 38.8721 29.458 38.683 29.6102L36.1962 31.6115L33.139 30.6976C32.9064 30.6281 32.659 30.625 32.4248 30.6888C32.1906 30.7525 31.9789 30.8805 31.8136 31.0583C31.6483 31.2362 31.5361 31.4567 31.4896 31.6949C31.4431 31.9332 31.4642 32.1797 31.5505 32.4066L32.6854 35.3899L30.8704 38.0158C30.7326 38.2155 30.6534 38.4498 30.6418 38.6921C30.6301 38.9345 30.6865 39.1753 30.8045 39.3873C30.9225 39.5993 31.0974 39.7741 31.3095 39.8919C31.5216 40.0097 31.7625 40.0658 32.0048 40.054H32.0037ZM35.3584 35.1032L34.9176 33.9445L36.1056 34.2994C36.3077 34.36 36.5216 34.3704 36.7286 34.3299C36.9357 34.2894 37.1298 34.1991 37.2942 34.0668L38.2602 33.2895L38.2897 34.5288C38.2947 34.7397 38.3509 34.9463 38.4535 35.1306C38.5561 35.3149 38.702 35.4715 38.8786 35.587L39.9163 36.2654L38.7454 36.6774C38.5465 36.7473 38.3676 36.8646 38.224 37.0191C38.0805 37.1736 37.9767 37.3607 37.9215 37.5642L37.5963 38.7608L36.8439 37.7754C36.7225 37.6163 36.566 37.4874 36.3867 37.3987C36.2073 37.31 36.0099 37.2639 35.8098 37.2639C35.7882 37.2639 35.7665 37.2639 35.7448 37.2654L34.5065 37.3265L35.2112 36.3064C35.3317 36.133 35.4081 35.9329 35.4339 35.7233C35.4598 35.5138 35.4342 35.3011 35.3595 35.1036L35.3584 35.1032Z" fill="white"/>
<path d="M45.2902 62.1684L35.9078 57.6568L34.3057 47.3702C34.2683 47.1303 34.1646 46.9056 34.0063 46.7216C33.8479 46.5376 33.6412 46.4016 33.4096 46.3289C33.1779 46.2563 32.9306 46.2499 32.6955 46.3105C32.4604 46.371 32.247 46.4962 32.0793 46.6718L24.8892 54.2008L14.6117 52.546C14.3721 52.5074 14.1264 52.5367 13.9025 52.6305C13.6786 52.7242 13.4854 52.8788 13.3448 53.0766C13.2041 53.2744 13.1216 53.5077 13.1066 53.75C13.0916 53.9922 13.1447 54.2339 13.2598 54.4476L18.1982 63.6123L13.4476 72.8763C13.3369 73.0923 13.2888 73.335 13.3088 73.5769C13.3288 73.8187 13.416 74.0502 13.5607 74.2451C13.7053 74.44 13.9016 74.5905 14.1274 74.6797C14.3531 74.7689 14.5993 74.7931 14.8381 74.7497L25.0804 72.885L32.4232 80.2653C32.5944 80.4374 32.8104 80.5582 33.0466 80.6139C33.2829 80.6697 33.5301 80.6583 33.7602 80.5809C33.9903 80.5035 34.1941 80.3633 34.3487 80.1761C34.5033 79.9889 34.6024 79.7622 34.6348 79.5216L36.0264 69.2044L45.3143 64.5017C45.5308 64.392 45.7124 64.224 45.8384 64.0165C45.9644 63.8091 46.0299 63.5705 46.0274 63.3278C46.025 63.085 45.9546 62.8479 45.8244 62.643C45.6941 62.4382 45.5092 62.2739 45.2904 62.1687L45.2902 62.1684ZM34.2406 67.1916C34.0524 67.2869 33.8902 67.4266 33.768 67.5985C33.6457 67.7704 33.5671 67.9695 33.539 68.1786L32.4084 76.5613L26.4425 70.565C26.3216 70.4435 26.1779 70.3471 26.0197 70.2813C25.8614 70.2155 25.6917 70.1816 25.5204 70.1816C25.4422 70.1818 25.3642 70.189 25.2873 70.2033L16.9653 71.7183L20.8248 64.1916C20.9211 64.0039 20.9702 63.7957 20.9681 63.5847C20.9659 63.3738 20.9125 63.1666 20.8125 62.9809L16.7997 55.5338L25.1509 56.8782C25.3591 56.9117 25.5724 56.8941 25.7724 56.8268C25.9723 56.7596 26.1529 56.6448 26.2985 56.4922L32.1404 50.3749L33.4414 58.7329C33.4738 58.9413 33.5565 59.1387 33.6822 59.3081C33.8079 59.4774 33.9729 59.6137 34.163 59.7051L41.7861 63.3694L34.2406 67.1916Z" fill="white"/>
</svg>
