<svg width="103" height="100" viewBox="0 0 103 100" fill="none" xmlns="http://www.w3.org/2000/svg">
<path d="M61.7164 62.9634C58.6461 65.3703 58.1 69.8181 60.4977 72.8768C62.8963 75.9365 67.3466 76.4691 70.4169 74.0622C73.4883 71.6545 74.0336 67.2058 71.635 64.1461C69.2373 61.0874 64.7872 60.5561 61.7164 62.9634Z" fill="white"/>
<path d="M69.3755 44.7538C62.9102 43.9725 56.52 45.759 51.385 49.7844C46.2698 53.7942 43.0121 59.5497 42.2103 65.991C41.8885 68.595 43.7463 70.9702 46.3504 71.2847C47.6165 71.439 48.8668 71.0888 49.872 70.3008C50.8726 69.5164 51.5092 68.3907 51.6655 67.1312C52.1528 63.2105 54.1358 59.7067 57.2497 57.2656C60.3752 54.8155 64.2653 53.7276 68.2008 54.2025C69.4653 54.3547 70.7159 54.0059 71.72 53.2187C72.7217 52.4335 73.3578 51.3083 73.5146 50.0484C73.8383 47.4426 71.9814 45.0686 69.3755 44.7538Z" fill="white"/>
<path d="M73.1924 13.679C58.4235 11.9085 43.8319 15.9981 32.1059 25.1903C20.3955 34.3702 12.9432 47.544 11.1235 62.2868C10.8017 64.8909 12.661 67.2649 15.2676 67.5774C16.5305 67.7285 17.778 67.378 18.7812 66.5916C19.7838 65.8056 20.4223 64.6801 20.5774 63.4182C22.0865 51.1987 28.2621 40.2781 37.9686 32.669C47.6893 25.0488 59.7836 21.6596 72.0258 23.1288C73.2891 23.2804 74.5393 22.9302 75.542 22.1442C76.5442 21.3586 77.181 20.2311 77.3364 18.9706C77.6579 16.365 75.7984 13.9897 73.1924 13.679Z" fill="white"/>
<path d="M71.2336 29.608C60.7201 28.3469 50.3343 31.2557 41.9887 37.7979C33.6583 44.3283 28.3576 53.7 27.0609 64.1858C26.9043 65.448 27.2497 66.693 28.0318 67.6939C28.8146 68.6925 29.9405 69.3273 31.2034 69.4784C32.4666 69.6301 33.7158 69.2807 34.719 68.4942C35.7207 67.709 36.3575 66.5816 36.5153 65.3209C37.5007 57.3556 41.527 50.2369 47.8526 45.2782C54.1914 40.3092 62.0803 38.1012 70.0655 39.0588C71.3305 39.2107 72.5793 38.8617 73.5829 38.0749C74.5851 37.2893 75.2225 36.1614 75.3774 34.9013C75.5329 33.6399 75.1886 32.394 74.4055 31.394C73.6229 30.3936 72.4968 29.7605 71.2336 29.608Z" fill="white"/>
</svg>
