<svg width="28" height="28" viewBox="0 0 28 28" fill="none" xmlns="http://www.w3.org/2000/svg">
<g id="vuesax/outline/arrow-right">
<g id="arrow-right">
<path id="Vector" d="M10.3955 24.115C10.1739 24.115 9.95219 24.0334 9.77719 23.8584C9.43885 23.52 9.43885 22.96 9.77719 22.6217L17.3839 15.015C17.9439 14.455 17.9439 13.545 17.3839 12.985L9.77719 5.37836C9.43885 5.04002 9.43885 4.48002 9.77719 4.14169C10.1155 3.80336 10.6755 3.80336 11.0139 4.14169L18.6205 11.7484C19.2155 12.3434 19.5539 13.1484 19.5539 14C19.5539 14.8517 19.2272 15.6567 18.6205 16.2517L11.0139 23.8584C10.8389 24.0217 10.6172 24.115 10.3955 24.115Z" fill="#5799FE"/>
</g>
</g>
</svg>
