<svg width="52" height="52" viewBox="0 0 52 52" fill="none" xmlns="http://www.w3.org/2000/svg">
<path d="M50.2328 25.3499C50.1719 25.1874 48.4453 21.3687 44.6266 17.5296C39.5281 12.4515 33.0891 9.74992 26 9.74992C24.5028 9.7472 23.0081 9.8695 21.5313 10.1155C21.2459 10.169 20.9798 10.297 20.7599 10.4866C20.54 10.6762 20.3742 10.9206 20.2793 11.1949C20.1844 11.4693 20.1638 11.7639 20.2196 12.0488C20.2754 12.3337 20.4055 12.5988 20.5969 12.8171L41.1734 35.4452C41.3256 35.6116 41.5108 35.7445 41.7171 35.8354C41.9234 35.9263 42.1464 35.9733 42.3719 35.9734C42.7733 35.968 43.1607 35.8246 43.4688 35.5671C48.1 31.403 50.1516 26.853 50.2328 26.6702C50.3228 26.4618 50.3692 26.2371 50.3692 26.0101C50.3692 25.783 50.3228 25.5584 50.2328 25.3499V25.3499Z" fill="white"/>
<path d="M10.9485 7.02805C10.6549 6.72091 10.2527 6.54097 9.82809 6.52679C9.40344 6.5126 8.99013 6.6653 8.6767 6.95216C8.36328 7.23903 8.17467 7.63724 8.1513 8.06148C8.12792 8.48572 8.27163 8.90224 8.55164 9.2218L12.4516 13.5077C5.07821 18.0374 1.90946 25.0249 1.76727 25.3499C1.67728 25.5584 1.63086 25.783 1.63086 26.0101C1.63086 26.2371 1.67728 26.4618 1.76727 26.6702C1.82821 26.8124 3.55477 30.6312 7.37352 34.4702C12.472 39.5484 18.911 42.2499 26.0001 42.2499C29.6431 42.2747 33.25 41.5271 36.5829 40.0562L41.0516 44.9718C41.2038 45.1382 41.389 45.271 41.5953 45.3619C41.8016 45.4529 42.0246 45.4999 42.2501 45.4999C42.6554 45.4959 43.0454 45.3443 43.347 45.0734C43.5067 44.9308 43.6363 44.7577 43.7281 44.5643C43.8199 44.3709 43.8721 44.161 43.8815 43.9471C43.891 43.7332 43.8576 43.5196 43.7832 43.3188C43.7088 43.118 43.595 42.9342 43.4485 42.7781L10.9485 7.02805ZM26.0001 33.3124C24.6638 33.3116 23.3532 32.9445 22.2109 32.2512C21.0685 31.5578 20.1379 30.5647 19.5203 29.3797C18.9026 28.1947 18.6215 26.8631 18.7075 25.5295C18.7935 24.196 19.2432 22.9115 20.0079 21.8156L29.5954 32.3577C28.5014 32.9858 27.2615 33.3151 26.0001 33.3124V33.3124Z" fill="white"/>
</svg>
