<svg width="27" height="27" viewBox="0 0 27 27" fill="none" xmlns="http://www.w3.org/2000/svg">
<path d="M15.3924 23.3003V16.8319H17.4144H17.8436L17.9086 16.4076L18.3885 13.2757L18.4768 12.7H17.8943H15.3924V11.1655V11.143L15.3904 11.1207C15.3614 10.7984 15.4804 10.4804 15.7139 10.2562C15.9474 10.032 16.2701 9.92599 16.5911 9.96803L16.6235 9.97226H16.6561H18.0254H18.5254V9.47226V6.80835V6.38341L18.106 6.31489C17.2841 6.18063 16.4538 6.10613 15.6213 6.09198C14.3455 6.00011 13.0942 6.47806 12.2045 7.39771C11.3178 8.31427 10.8814 9.57526 11.0113 10.843V12.7H8.75959H8.25959V13.2V16.3308V16.8308H8.75959H11.0081V23.2999C6.28445 22.2747 2.86917 18.0862 2.86792 13.2L15.3924 23.3003ZM15.3924 23.3003C20.5115 22.1938 24.0308 17.3953 23.4783 12.1244C22.9052 6.65741 18.1522 2.59595 12.6627 2.88244C7.17322 3.16893 2.8689 7.70297 2.86792 13.1998L15.3924 23.3003Z" fill="#EEB663" stroke="#EEB663"/>
</svg>
