<svg width="31" height="28" viewBox="0 0 31 28" fill="none" xmlns="http://www.w3.org/2000/svg">
<path d="M10.5215 0.394653C8.86399 0.394653 7.52148 1.73715 7.52148 3.39465V6.39465H4.52148C2.03598 6.39465 0.0214844 8.40915 0.0214844 10.8946V18.3946C0.0214844 20.8801 2.03598 22.8946 4.52148 22.8946H7.52148V24.3946C7.52148 26.0521 8.86399 27.3946 10.5215 27.3946H19.5215C21.179 27.3946 22.5215 26.0521 22.5215 24.3946V22.8946H25.5215C28.007 22.8946 30.0215 20.8801 30.0215 18.3946V10.8946C30.0215 8.40915 28.007 6.39465 25.5215 6.39465H22.5215V3.39465C22.5215 1.73715 21.179 0.394653 19.5215 0.394653H10.5215ZM10.5215 3.39465H19.5215V6.39465H10.5215V3.39465ZM4.52148 9.39465C5.34948 9.39465 6.02148 10.0666 6.02148 10.8946C6.02148 11.7226 5.34948 12.3946 4.52148 12.3946C3.69348 12.3946 3.02148 11.7226 3.02148 10.8946C3.02148 10.0666 3.69348 9.39465 4.52148 9.39465ZM10.5215 16.8946H19.5215V24.3946H10.5215V16.8946Z" fill="#EEB663"/>
</svg>
