<svg width="26" height="26" viewBox="0 0 26 26" fill="none" xmlns="http://www.w3.org/2000/svg">
<path d="M9.97852 10.8333C9.97852 9.16497 11.331 7.8125 12.9993 7.8125C14.6677 7.8125 16.0202 9.16497 16.0202 10.8333C16.0202 12.5017 14.6677 13.8542 12.9993 13.8542C11.331 13.8542 9.97852 12.5017 9.97852 10.8333Z" fill="#EEB663" stroke="#EEB663"/>
<path d="M19.4303 16.0356L19.4303 16.0357L14.2379 22.3859C13.5983 23.1681 12.4027 23.1681 11.7632 22.3859L6.57071 16.0357L6.18364 16.3522L6.57071 16.0357C5.10826 14.2471 4.39701 11.9608 4.5868 9.65825C4.9377 5.40123 8.49509 2.125 12.7666 2.125H13.2345C17.506 2.125 21.0634 5.40123 21.4142 9.65824C21.604 11.9608 20.8928 14.2471 19.4303 16.0356ZM13.0005 5.1875C9.88239 5.1875 7.35466 7.71523 7.35466 10.8333C7.35466 13.9515 9.88239 16.4792 13.0005 16.4792C16.1187 16.4792 18.6463 13.9515 18.6463 10.8333C18.6463 7.71523 16.1187 5.1875 13.0005 5.1875Z" fill="#EEB663" stroke="#EEB663"/>
</svg>
