<svg width="351" height="302" viewBox="0 0 351 302" fill="none" xmlns="http://www.w3.org/2000/svg">
<path d="M172.362 17.5624C34.4717 153.378 97.3792 249.776 146.069 280.998C31.5496 266.948 36.03 122.937 52.5852 52.6871L105.17 76.1036C123.673 50.7358 163.014 0 172.362 0C181.71 0 224.947 50.7358 245.398 76.1036L297.983 52.6871C328.365 240.019 246.371 282.949 201.577 280.998C323.107 206.065 232.738 74.1523 172.362 17.5624Z" fill="#F9F4EF"/>
<path d="M32.1354 178.544H0C44.4053 304.993 117.83 309.286 148.991 295.626C67.1922 295.626 37.0044 217.571 32.1354 178.544Z" fill="#F9F4EF"/>
<path d="M318.433 178.544H350.568C306.163 304.993 232.739 309.286 201.577 295.626C283.376 295.626 313.564 217.571 318.433 178.544Z" fill="#F9F4EF"/>
</svg>
