<svg width="277" height="238" viewBox="0 0 277 238" fill="none" xmlns="http://www.w3.org/2000/svg">
<path d="M136.191 13.8894C27.2375 121.301 76.9436 197.538 115.416 222.23C24.9287 211.118 28.4689 97.2256 41.5499 41.6681L83.0999 60.1873C97.7193 40.1249 128.805 0 136.191 0C143.577 0 177.741 40.1249 193.9 60.1873L235.45 41.6681C259.456 189.821 194.669 223.773 159.275 222.23C255.301 162.969 183.897 58.644 136.191 13.8894Z" fill="#FDFAF8"/>
<path d="M25.3917 141.203H0C35.0867 241.207 93.1027 244.602 117.725 233.799C53.0916 233.799 29.2389 172.068 25.3917 141.203Z" fill="#FDFAF8"/>
<path d="M251.608 141.203H277C241.913 241.207 183.897 244.602 159.275 233.799C223.908 233.799 247.761 172.068 251.608 141.203Z" fill="#FDFAF8"/>
</svg>
