<svg width="441" height="380" viewBox="0 0 441 380" fill="none" xmlns="http://www.w3.org/2000/svg">
<path d="M216.683 22.0984C43.3357 192.992 122.419 314.288 183.63 353.574C39.6622 335.895 45.2948 154.689 66.107 66.2951L132.214 95.7596C155.474 63.8397 204.932 0 216.683 0C228.435 0 282.791 63.8397 308.5 95.7596L374.607 66.2951C412.802 302.011 309.724 356.029 253.41 353.574C406.191 259.287 292.584 93.3042 216.683 22.0984Z" fill="#FDFAF8"/>
<path d="M40.3988 224.658H0C55.8238 383.766 148.129 389.168 187.303 371.98C84.4702 371.98 46.5198 273.765 40.3988 224.658Z" fill="#FDFAF8"/>
<path d="M400.316 224.658H440.714C384.891 383.766 292.585 389.168 253.411 371.98C356.244 371.98 394.195 273.765 400.316 224.658Z" fill="#FDFAF8"/>
</svg>
