<svg width="28" height="28" viewBox="0 0 28 28" fill="none" xmlns="http://www.w3.org/2000/svg">
<path fill-rule="evenodd" clip-rule="evenodd" d="M14 0C21.732 0 28 6.26801 28 14C28 21.732 21.732 28 14 28C6.26801 28 0 21.732 0 14C0 6.26801 6.26801 0 14 0ZM16.8068 10.8309C16.0814 10.1373 15.1586 9.7841 14.1309 9.7841C12.3077 9.7841 10.7648 11.0154 10.2144 12.67C10.0744 13.09 9.99481 13.5386 9.99481 14C9.99481 14.4613 10.0741 14.91 10.2141 15.33C10.7645 16.9845 12.3077 18.2159 14.1309 18.2159C15.0727 18.2159 15.8748 17.9678 16.5016 17.5478C17.243 17.0514 17.7362 16.31 17.8984 15.435H14.1312V12.7273H20.7239C20.8066 13.1855 20.8512 13.6627 20.8512 14.1591C20.8512 16.2909 20.0875 18.0855 18.7639 19.3041C17.6057 20.3732 16.0209 21 14.1309 21C11.3945 21 9.02725 19.4313 7.87543 17.1436C7.40134 16.1986 7.13116 15.1295 7.13116 14C7.13116 12.8704 7.40162 11.8013 7.87571 10.8563C9.02753 8.56859 11.3945 7 14.1309 7C16.0177 7 17.6023 7.69364 18.8145 8.82319L16.8068 10.8309Z" fill="#EEB663"/>
</svg>
