<svg width="17" height="17" viewBox="0 0 17 17" fill="none" xmlns="http://www.w3.org/2000/svg">
<path d="M1.45542 6.65214L1.45503 6.65132L1.45484 6.65089L0.937322 5.51253L0.482151 5.71946L0.937322 5.51253C0.329838 4.17629 0.778452 2.5967 1.9976 1.77925L1.9976 1.77925L3.33044 0.885548C3.33044 0.885548 3.33044 0.885547 3.33044 0.885547C3.54562 0.741265 3.83537 0.785245 3.99805 0.986884C3.99805 0.986886 3.99805 0.986889 3.99805 0.986891L6.42787 3.99882L6.42788 3.99883C6.60634 4.22004 6.56477 4.54528 6.33644 4.71448L6.33641 4.71449L5.07921 5.64621L4.74385 5.89475L4.92851 6.26911C6.15649 8.75862 8.17746 10.7795 10.6669 12.0075L11.0413 12.1922L11.2898 11.8568L12.2215 10.5996C12.3908 10.3712 12.7161 10.3297 12.9371 10.5081L12.9372 10.5081L15.9491 12.9379L15.9491 12.9379C16.1508 13.1006 16.1947 13.3904 16.0503 13.6056L16.0503 13.6057L15.1622 14.9294L15.1622 14.9294C14.3494 16.1409 12.7828 16.5921 11.45 15.9982L10.7704 15.6954L10.7704 15.6954L10.7622 15.6919C6.6376 13.9416 3.3199 10.7129 1.45542 6.65214Z" fill="#EEB663" stroke="#EEB663"/>
</svg>
