<svg width="19" height="18" viewBox="0 0 19 18" fill="none" xmlns="http://www.w3.org/2000/svg">
<path d="M9.04127 1.05787C9.21535 0.656427 9.78465 0.656426 9.95873 1.05787L12.0981 5.99152C12.1706 6.15859 12.3281 6.27307 12.5094 6.29034L17.8627 6.80045C18.2983 6.84196 18.4742 7.38339 18.1462 7.673L14.1152 11.2323C13.9786 11.3528 13.9185 11.538 13.9581 11.7158L15.1272 16.9647C15.2223 17.3918 14.7617 17.7264 14.3849 17.504L9.7542 14.7701C9.59738 14.6775 9.40262 14.6775 9.2458 14.7701L4.61506 17.504C4.23827 17.7264 3.7777 17.3918 3.87283 16.9647L5.04194 11.7158C5.08153 11.538 5.02135 11.3528 4.88484 11.2323L0.853771 7.673C0.525773 7.38339 0.701695 6.84196 1.13728 6.80045L6.49057 6.29034C6.67186 6.27307 6.82942 6.15859 6.90187 5.99152L9.04127 1.05787Z" fill="#EEB663"/>
</svg>
