<svg width="21" height="24" viewBox="0 0 21 24" fill="none" xmlns="http://www.w3.org/2000/svg">
<path d="M7.96474 20.0725C8.63595 20.0734 9.29564 19.8984 9.87875 19.5649C10.437 19.246 10.9085 18.7942 11.252 18.2495C11.5954 17.7049 11.8003 17.0839 11.8489 16.4412L11.8497 16.4299C11.852 16.4066 11.8526 16.3872 11.8528 16.3747C11.8531 16.3702 11.8535 16.3645 11.8543 16.3524C11.8551 16.3385 11.8563 16.3189 11.8566 16.2959C11.8655 16.0829 11.8654 15.8694 11.8654 15.6655V15.6604V0.512695H14.8497L14.9457 1.08283C15.0792 1.87538 15.4405 2.9977 16.3967 4.09778L16.3966 4.09791L16.4061 4.10826C16.7864 4.52168 17.2149 4.88767 17.6823 5.19832L17.6852 5.20024C17.8484 5.30708 18.0168 5.40564 18.1899 5.49555L18.1898 5.4956L7.9654 12.7005V12.2005C5.8084 12.2005 4.07022 13.9673 4.07022 16.1365C4.07022 18.3055 5.80805 20.0722 7.96474 20.0725ZM7.96474 20.0725L7.9654 19.5725V20.0725C7.96518 20.0725 7.96496 20.0725 7.96474 20.0725ZM3.91751 22.3204L3.93341 22.2977L4.19778 21.9209C3.92153 21.7271 3.65861 21.5154 3.41062 21.2875V21.9499C3.56784 22.0793 3.72995 22.2029 3.89666 22.3204C3.89938 22.3223 3.90211 22.3242 3.90483 22.3261L3.91062 22.3204H3.91751ZM3.91751 22.3204H3.92709M3.91751 22.3204L3.91466 22.3244L3.92038 22.3302M3.93025 22.3204H4.41062V22.3302V22.6343C4.24665 22.5422 4.08278 22.4411 3.92038 22.3302M3.93025 22.3204L4.2749 21.9776L4.26513 21.9678L4.24084 21.9433C4.22803 21.9347 4.21523 21.9261 4.20244 21.9173L3.96201 22.2693L3.92709 22.3204M3.93025 22.3204H3.92709M3.93025 22.3204L3.92038 22.3302M3.92709 22.3204L3.92038 22.3302M15.3904 7.89052H15.8904V8.22014C15.6949 8.09036 15.4214 7.90922 15.3904 7.89052ZM15.3904 7.89052L15.1322 8.31866C15.1308 8.3178 15.1313 8.31816 15.1346 8.32029C15.1388 8.32296 15.1472 8.32838 15.1614 8.33764L15.2452 8.39267C15.288 8.42081 15.338 8.45389 15.3904 8.48858V7.89052ZM8.51085 12.7447C8.68006 12.7725 8.84717 12.8133 9.0107 12.8669L9.01132 12.3445C8.84706 12.2983 8.68007 12.263 8.51145 12.239L8.51085 12.7447ZM20.95 9.68806V9.18751L20.9137 9.18568C20.875 9.18363 20.818 9.18037 20.746 9.17558C20.6645 9.17017 20.5642 9.16282 20.45 9.15311V9.65486C20.7523 9.67981 20.95 9.68806 20.95 9.68806ZM20.95 6.17305V5.67085C20.8301 5.68392 20.6803 5.68462 20.5075 5.67085H20.45V6.16775C20.6368 6.18342 20.8053 6.18481 20.95 6.17305ZM13.1653 20.7119L13.1652 20.712L13.1652 20.7121L13.5552 21.025C13.1652 20.7121 13.1653 20.712 13.1653 20.7119ZM14.437 18.5935L14.9046 18.7705L14.4385 18.5897C14.4382 18.5903 14.438 18.591 14.4377 18.5916C14.4375 18.5922 14.4372 18.5929 14.437 18.5935ZM8.02935 23.574C8.00915 23.0744 8.0093 23.0744 8.00944 23.0744L8.00903 23.0744L8.02935 23.574ZM3.57666 10.8234C3.57779 10.8224 3.57891 10.8215 3.58004 10.8205C3.58115 10.8195 3.58226 10.8186 3.58338 10.8176L3.25443 10.441L3.57666 10.8234ZM8.51558 8.74599L8.51505 9.19973C8.66064 9.20935 8.80609 9.22358 8.95119 9.24242L9.01558 8.74658L8.51558 8.74599ZM1.57447 18.663V18.5835C1.56305 18.5535 1.55352 18.5276 1.5459 18.5062C1.54581 18.5059 1.54572 18.5057 1.54563 18.5054L1.50814 18.5187L1.10211 18.663L1.07447 18.6728H1.57447V18.663ZM2.56065 20.368L2.16714 20.6765L2.56143 20.369C2.56129 20.3688 2.56116 20.3687 2.56102 20.3685C2.5609 20.3683 2.56077 20.3682 2.56065 20.368ZM16.3646 7.93481L16.3621 7.93316L16.3604 7.93211L16.3603 7.93203C16.3604 7.93208 16.3604 7.93213 16.0896 8.35242L16.3664 7.93607L16.3664 7.93605L16.3663 7.93599L16.366 7.93575L16.3646 7.93481ZM18.6182 8.86652C18.618 8.86649 18.6179 8.86647 18.6178 8.86644C18.6176 8.86638 18.6174 8.86632 18.6172 8.86626L18.4883 9.34936L18.6182 8.86652Z" fill="#EEB663" stroke="#EEB663"/>
</svg>
