<svg width="24" height="31" viewBox="0 0 24 31" fill="none" xmlns="http://www.w3.org/2000/svg">
<path d="M5.00781 0.92981C4.17981 0.92981 3.50781 1.60181 3.50781 2.42981C3.50781 3.25781 4.17981 3.92981 5.00781 3.92981H17.0078C17.8358 3.92981 18.5078 3.25781 18.5078 2.42981C18.5078 1.60181 17.8358 0.92981 17.0078 0.92981H5.00781ZM5.00781 5.42981C2.52231 5.42981 0.507812 7.44431 0.507812 9.92981V21.9298C0.507812 24.4153 2.52231 26.4298 5.00781 26.4298H17.0078C19.4933 26.4298 21.5078 24.4153 21.5078 21.9298V18.9298C22.3358 18.9298 23.0078 18.2578 23.0078 17.4298V14.4298C23.0078 13.6018 22.3358 12.9298 21.5078 12.9298V9.92981C21.5078 7.44431 19.4933 5.42981 17.0078 5.42981H5.00781ZM11.0078 9.92981C11.8358 9.92981 12.5078 10.6018 12.5078 11.4298V15.9298C12.5078 16.7578 11.8358 17.4298 11.0078 17.4298H6.50781C5.67981 17.4298 5.00781 16.7578 5.00781 15.9298C5.00781 15.1018 5.67981 14.4298 6.50781 14.4298H9.50781V11.4298C9.50781 10.6018 10.1798 9.92981 11.0078 9.92981ZM5.00781 27.9298C4.17981 27.9298 3.50781 28.6018 3.50781 29.4298C3.50781 30.2578 4.17981 30.9298 5.00781 30.9298H17.0078C17.8358 30.9298 18.5078 30.2578 18.5078 29.4298C18.5078 28.6018 17.8358 27.9298 17.0078 27.9298H5.00781Z" fill="#EEB663"/>
</svg>
