<svg width="23" height="17" viewBox="0 0 23 17" fill="none" xmlns="http://www.w3.org/2000/svg">
<path d="M5.8102 0.996648C9.39794 0.715961 13.002 0.715961 16.5897 0.996648L19.0171 1.18656C20.1403 1.27442 21.059 2.11615 21.2447 3.22727C21.7948 6.51964 21.7948 9.88057 21.2447 13.173C21.059 14.284 20.1403 15.1258 19.0171 15.2137C19.0171 15.2137 19.0171 15.2137 19.0171 15.2137L16.5897 15.4036C13.002 15.6842 9.39794 15.6842 5.81019 15.4036L3.3828 15.2137C3.38279 15.2137 3.38279 15.2137 3.38278 15.2137C2.25967 15.1258 1.34091 14.284 1.15526 13.173C0.605148 9.88057 0.605148 6.51964 1.15526 3.22727L0.662514 3.14494L1.15526 3.22727C1.34091 2.11615 2.25969 1.27442 3.38278 1.18656L3.34378 0.688079L3.38278 1.18656L5.8102 0.996648ZM8.53325 5.52412V10.876C8.53325 11.517 9.23263 11.9137 9.78275 11.5835L14.2427 8.90751C14.7768 8.5871 14.7768 7.81311 14.2427 7.49271L9.78272 4.81673C9.23278 4.48665 8.53325 4.88296 8.53325 5.52412Z" fill="#EEB663" stroke="#EEB663"/>
</svg>
