<svg width="74" height="73" fill="none" xmlns="http://www.w3.org/2000/svg"><path d="M62.911 47.168c.73-1.392.291-3.241-1.303-5.496-1.345-1.901-3.524-4.08-6.314-6.317a16.02 16.02 0 00-.32-8.54c-1.298-4.1-4.142-7.476-8.009-9.502-3.867-2.026-8.26-2.445-12.372-1.178a16.018 16.018 0 00-7.204 4.596c-3.43-1.021-6.46-1.573-8.79-1.596-2.76-.027-4.529.664-5.258 2.056-1.145 2.185.67 5.313 4.006 8.614L4.266 39.263a1.583 1.583 0 001.51 2.755l17.787-7.047a83.978 83.978 0 006.553 4.27l-6.324 17.991a1.96 1.96 0 00.934 2.373 1.938 1.938 0 002.476-.573l11.31-15.39a83.868 83.868 0 007.252 2.963L50.09 65.24a1.582 1.582 0 003.126-.325l.331-16.14c4.613.865 8.22.578 9.364-1.607zM34.983 17.411c3.772-1.162 7.807-.776 11.359 1.086a14.837 14.837 0 016.524 19.733 49.461 49.461 0 01-12.096-3.81l1.13-2.157 2.987-1.014a6.35 6.35 0 004.1-4.443c.53-2.014.043-4.107-1.298-5.597a7.044 7.044 0 00-4.337-2.273c-1.988-.253-3.984.539-5.339 2.119a6.35 6.35 0 00-1.324 5.898l.866 3.033-1.13 2.157a49.466 49.466 0 01-10.02-7.779 14.817 14.817 0 018.578-6.952zm4.639 14.193a.177.177 0 01-.196-.056.177.177 0 01-.033-.064l-1.41-4.898a5.02 5.02 0 011.046-4.662c1.076-1.256 2.59-1.861 4.154-1.662a5.7 5.7 0 013.51 1.84c1.053 1.171 1.417 2.761.997 4.361a5.02 5.02 0 01-3.238 3.513l-4.83 1.628zm.444 1.276l-.504.96a49.786 49.786 0 01-1.975-1.034l.504-.961.008.005a1.554 1.554 0 00.748.945c.364.19.824.18 1.18.114l.009.005.03-.034zM5.284 40.774a.245.245 0 01-.235-.427l13.284-9.603a54.093 54.093 0 003.963 3.289l-17.012 6.74zM26.123 58.24a.608.608 0 01-1.06-.139.614.614 0 01-.009-.426l6.843-19.467a5.682 5.682 0 016.46 3.384L26.123 58.24zm25.755 6.647a.245.245 0 01-.484.05l-4.14-17.825a54.128 54.128 0 004.96 1.388l-.336 16.387zm2.341-17.346c-4.16-.714-9.427-2.483-14.899-5l.33-.45a.668.668 0 00.094-.612 7.02 7.02 0 00-8.54-4.476.669.669 0 00-.45.422l-.186.529c-5.178-3.064-9.627-6.384-12.581-9.398-4.114-4.197-3.791-6.114-3.461-6.744.947-1.808 5.584-1.776 11.937.042a16.888 16.888 0 00-1.467 2.32.669.669 0 00.114.776 50.844 50.844 0 0012.838 9.57 50.845 50.845 0 0015.174 5.11.67.67 0 00.703-.349 16.89 16.89 0 001.072-2.526c5.112 4.19 7.777 7.984 6.83 9.792-.698 1.33-3.434 1.692-7.508.994z" fill="#fff"/><path d="M21.686 24.852a1.809 1.809 0 00-2.44.761.669.669 0 101.186.621.47.47 0 01.83.436.669.669 0 001.186.62 1.809 1.809 0 00-.762-2.438zm3.83 2.007a1.809 1.809 0 00-2.44.762.67.67 0 001.186.62.47.47 0 01.83.436.668.668 0 101.186.621 1.809 1.809 0 00-.762-2.439zM56.14 23.42a2.934 2.934 0 01.715 2.515.669.669 0 00.33.708l.017.008a.67.67 0 00.76-.097 2.947 2.947 0 012.523-.71.669.669 0 00.618-1.109 2.934 2.934 0 01-.716-2.515.669.669 0 00-1.108-.619 2.946 2.946 0 01-2.521.71.67.67 0 00-.619 1.109zm2.899-.088c.054.401.166.792.33 1.162a4.312 4.312 0 00-1.165.329 4.31 4.31 0 00-.33-1.162 4.313 4.313 0 001.165-.329zm-19.105 36.61a2.933 2.933 0 01-1.13-2.358.67.67 0 00-1.197-.423 2.945 2.945 0 01-2.366 1.126.67.67 0 00-.422 1.197 2.933 2.933 0 011.13 2.358.67.67 0 001.197.424 2.946 2.946 0 012.366-1.127.67.67 0 00.422-1.197zm-2.843.576a4.302 4.302 0 00-.521-1.089 4.317 4.317 0 001.092-.52c.122.385.297.752.522 1.088a4.317 4.317 0 00-1.093.521zM24.466 9.886a.669.669 0 00-.618 1.108 2.935 2.935 0 01.716 2.515.668.668 0 00.33.708l.017.009a.67.67 0 00.76-.098 2.946 2.946 0 012.523-.71.669.669 0 00.618-1.108 2.935 2.935 0 01-.716-2.515.669.669 0 00-1.107-.62 2.946 2.946 0 01-2.523.71zm2.281 1.021c.055.4.166.792.33 1.162a4.313 4.313 0 00-1.164.328 4.308 4.308 0 00-.33-1.161 4.32 4.32 0 001.164-.329zm.059-5.632a1.237 1.237 0 101.148-2.192 1.237 1.237 0 00-1.148 2.192zm.62-1.185a.1.1 0 11-.092.178.1.1 0 01.093-.178zm-2.743 3.028a.783.783 0 10.727-1.387.783.783 0 00-.727 1.387zm-7.398 37.651a1.253 1.253 0 00-1.697-.477 1.238 1.238 0 00-.476 1.683 1.3 1.3 0 00.521.498c.36.188.737.161 1.202-.007a1.28 1.28 0 00.45-1.697zm-1.051.683a.1.1 0 01-.098-.174l.098.173zm4.164-2.759a.782.782 0 10-1.363.766.782.782 0 001.363-.766zM42.283 56.65a1.01 1.01 0 10-1.758.992 1.01 1.01 0 001.758-.991zm1.852-1.39a.783.783 0 10-1.365.769.783.783 0 001.364-.769zm26.018-28.036a1.238 1.238 0 101.958-1.515 1.238 1.238 0 00-1.958 1.515zm1.059-.818a.1.1 0 01.015.116.1.1 0 01-.173.006l.158-.122zm-4.073 4.422a.783.783 0 101.237-.958.783.783 0 00-1.237.958zm-7.269 6.605c.495.451.964.901 1.394 1.337a26.132 26.132 0 011.506 1.654.67.67 0 001.181-.364.669.669 0 00-.15-.49 27.412 27.412 0 00-1.585-1.74 38.758 38.758 0 00-1.445-1.387.67.67 0 00-.901.99zm-2.208-1.888c.136.11.27.218.403.328a.669.669 0 00.85-1.033 53.62 53.62 0 00-.412-.336.67.67 0 00-.84 1.04zM35.63 19.82a.669.669 0 00-.863-.388 12.866 12.866 0 00-3.277 1.829.667.667 0 00.073 1.111.67.67 0 00.742-.05 11.534 11.534 0 012.936-1.64.67.67 0 00.388-.862zm1.68-1.064c-.204.033-.41.07-.61.112a.67.67 0 10.273 1.31c.18-.038.364-.071.546-.1a.67.67 0 10-.209-1.322zm9.888 7.83a.669.669 0 00-.23-.774c-.06-.045-1.492-1.081-2.907-.55-1.336.501-1.99 2.147-2.061 2.333a.669.669 0 00.23.774c.137.098.282.186.433.264.542.284 1.511.647 2.474.287 1.336-.502 1.99-2.148 2.06-2.334zm-2.532 1.081c-.375.14-.82.033-1.163-.112.233-.401.596-.879 1.028-1.041.376-.14.82-.034 1.164.112-.233.401-.597.879-1.029 1.041zm-3.431-.473c.113-.163 1.094-1.638.746-3.023-.369-1.465-2.036-2.053-2.107-2.077a.669.669 0 00-.768.252c-.113.164-1.093 1.639-.745 3.023.25.996 1.102 1.587 1.643 1.87.15.08.305.15.464.207a.669.669 0 00.767-.252zm-1.577-2.151c-.113-.448.071-1.015.27-1.436.303.19.654.489.755.89.113.449-.07 1.015-.27 1.437-.303-.19-.654-.49-.755-.891zm1.301 4.453l-.594-.311a.67.67 0 00-.62 1.184l.593.312a.669.669 0 10.621-1.185z" fill="#fff"/></svg>