<svg width="81" height="75" fill="none" xmlns="http://www.w3.org/2000/svg"><path d="M3.863 27.216a5.4 5.4 0 014.05.405l4.225 1.998a5.4 5.4 0 013.213-5.494l1.229-.527a16.2 16.2 0 1127.823 1.742l3.942.877 3.524-7.034a5.32 5.32 0 013.118-2.7 2.7 2.7 0 01.351-.08V1.35c0-.746.605-1.35 1.35-1.35h13.217a2.025 2.025 0 011.43 3.456L68.043 6.75l3.294 3.294a2.025 2.025 0 01-1.431 3.456H58.038v2.875a5.4 5.4 0 013.47 7.642l-5.4 10.8a5.4 5.4 0 01-6.008 2.875l-.675-.162c.46 1.093.864 2.16 1.229 3.213a23.045 23.045 0 0118.4 4.387 7.074 7.074 0 019.113-3.213 4.05 4.05 0 012.173 5.59l-3.82 7.654a5.4 5.4 0 01-4.833 2.983 7.465 7.465 0 01-4.199-1.646 15.593 15.593 0 00-12.15-2.43 16.04 16.04 0 013.7 7.154c3.658-1.849 7.235-1.174 9.57 2.511a4.05 4.05 0 01-1.511 5.792c-8.1 4.252-8.29 4.617-10.085 4.617a5.4 5.4 0 01-4.954-3.254l-.689-1.579c-3.01-8.424-13.149-8.559-13.58-8.559a7.761 7.761 0 01-2.58-.567c-2.497 1.255-3.887 2.295-6.358 1.606-6.17 4.888-13.27 5.05-18.468-1.147a10.449 10.449 0 01-2.416-8.708c.729-4.05 3.672-7.667 6.75-10.381a13.419 13.419 0 01-5.846-1.606l-6.048-2.809a5.4 5.4 0 011.04-9.922zm12.622-.608a2.7 2.7 0 00-1.35 3.605l.243.54c1.175 0 1.607-.634 4.401-2.943a13.82 13.82 0 01-1.66-1.89l-1.634.688zm3.902-18.71A13.5 13.5 0 0039.624 26.58c-13.608 2.93-23.436-9.193-14.917-17.131 3.807-3.577 9.76-4.711 14.944-3.591a13.5 13.5 0 00-19.264 2.038zM42.959 22.45c.162-.297.337-.595.472-.905A13.5 13.5 0 0043 9.963C35.534 5.562 24.29 9.45 24.29 16.2s11.029 10.678 18.67 6.25zM68.285 10.8l-2.62-2.619a2.011 2.011 0 010-2.862l2.62-2.619H58.038v8.1h10.247zm-17.55 24.3a2.7 2.7 0 002.997-1.431l5.4-10.8a2.7 2.7 0 00-4.833-2.403l-4.05 7.965a1.35 1.35 0 01-1.499.715l-4.13-.918a77.399 77.399 0 013.415 6.291l2.7.581zm18.103 19.089c1.566.945 2.255 1.526 3.578 1.148A2.7 2.7 0 0074.103 54l3.82-7.695a1.35 1.35 0 00-.701-1.863 4.536 4.536 0 00-3.686 0 6.155 6.155 0 00-2.7 3.267 1.35 1.35 0 01-2.173.58 20.358 20.358 0 00-17.2-4.954 32.714 32.714 0 011.256 8.276l.378.31c2.592-.945 8.573-2.214 15.741 2.268zm-37.395 4.846l.945-.485a12.946 12.946 0 01-4.05-8.411c-.594-4.158-3.226-8.1-5.616-10.8a13.056 13.056 0 01-2.808 1.35l7.898 17.05a2.7 2.7 0 003.658 1.297h-.027zM15.918 53.34a2.403 2.403 0 00.662 2.119c1.35 1.634 2.376 1.823 3.064 1.823a7.439 7.439 0 004.05-1.837l-3.631-7.87c-2.363 2.174-3.875 4.199-4.118 5.765h-.027zm-3.496 5.575c3.888 4.644 8.937 4.86 13.878 1.35a7.248 7.248 0 01-1.35-2.349c-3.902 2.835-7.412 2.835-10.422-.729-3.402-4.05.378-8.721 4.441-12.15l-1.188-2.552c-5.71 4.604-9.95 10.868-5.332 16.43h-.027zM2.769 33.156a2.592 2.592 0 001.215 1.566l6.075 2.808a10.8 10.8 0 0012.002-1.08 1.35 1.35 0 011.863.135c2.821 3.091 6.345 7.898 7.1 13.216.703 4.887 2.93 6.886 4.685 7.709.653.31 1.358.493 2.08.54.512 0 12.473.122 16.091 10.26l.648 1.512a2.7 2.7 0 003.74 1.35l7.56-4.05a1.35 1.35 0 00.5-1.944 4.293 4.293 0 00-2.89-2.2 6.75 6.75 0 00-4.509 1.512 1.35 1.35 0 01-2.24-.905C55.458 51.3 39.138 48.6 38.935 48.6a1.365 1.365 0 11.405-2.7 33.386 33.386 0 0110.597 3.834c-.634-7.223-4.387-15.12-8.289-21.303a16.12 16.12 0 01-19.764 1.107l-3.186 2.7a5.265 5.265 0 01-4.239 1.188c-.837 0-2.7-.986-7.776-3.335a2.7 2.7 0 00-3.888 3.065H2.77z" fill="#fff"/><path d="M33.738 10.8c0-.746.605-1.35 1.35-1.35 2.808 0 8.1 1.35 8.1 6.75a1.35 1.35 0 01-2.7 0c0-3.97-5.157-4.05-5.4-4.05a1.35 1.35 0 01-1.35-1.35zm37.8 13.5c.746 0 1.35.604 1.35 1.35V27h1.35a1.35 1.35 0 010 2.7h-1.35v1.35a1.35 1.35 0 11-2.7 0V29.7h-1.35a1.35 1.35 0 010-2.7h1.35v-1.35c0-.745.605-1.35 1.35-1.35zm-36.45 44.55h1.35V67.5a1.35 1.35 0 112.7 0v1.35h1.35a1.35 1.35 0 010 2.7h-1.35v1.35a1.35 1.35 0 01-2.7 0v-1.35h-1.35a1.35 1.35 0 110-2.7zM9.439 8.1a1.35 1.35 0 01-1.35-1.35V5.4h-1.35a1.35 1.35 0 010-2.7h1.35V1.35a1.35 1.35 0 012.7 0V2.7h1.35a1.35 1.35 0 110 2.7h-1.35v1.35a1.35 1.35 0 01-1.35 1.35z" fill="#fff"/></svg>