<svg width="77" height="85" fill="none" xmlns="http://www.w3.org/2000/svg"><path d="M52.227 28.48l.074.029s-.002-.168-.075-.03zm-17.88-6.961l.074.029c.04-.151-.074-.03-.074-.03z" fill="#fff"/><path d="M68.31 39.99a3.124 3.124 0 00-1.321-2.011l-3.658-2.487 2.057.203c1.704.168 3.269-1.113 3.438-2.82.168-1.704-1.113-3.269-2.82-3.438l-9.591-.946a3.165 3.165 0 00-.534-1.384c3.027-2.583 7.714-7.141 8.642-9.526a1.013 1.013 0 00-.763-1.353c-3.702-.642-7.027-1.568-10.16-2.828-3.22-1.294-7.09-3.263-9.409-4.788-.717-.47-1.685.16-1.54 1.008.216 1.267.17 2.5-.048 3.676-3.212-1.139-6.354-2.805-8.361-5.021-.54-.597-1.561-.318-1.726.468-1.047 5.006-.539 8.379.235 11.078l-.035-.014a3.148 3.148 0 00-4.07 1.79 3.148 3.148 0 001.416 3.895c-1.728 1.345-3.87 2.426-6.119 3.56-4.782 2.41-10.203 5.142-14.12 11.436-1.873 3.011-3.037 6.06-3.457 9.059-.392 2.8-.14 5.57.746 8.234 1.178 3.535 3.417 6.795 6.657 9.688 2.918 2.607 6.567 4.804 10.552 6.356 3.984 1.55 8.159 2.399 12.07 2.452 4.344.059 8.198-.829 11.456-2.637a17.958 17.958 0 006.117-5.563c1.719-2.494 2.923-5.526 3.578-9.011 1.37-7.285-.776-12.963-2.67-17.973-.643-1.7-1.254-3.322-1.683-4.892l10.264 6.978a3.176 3.176 0 003.625-.063 3.167 3.167 0 001.231-3.126zM52.85 15.262c2.867 1.153 5.88 2.035 9.17 2.685-1.462 2.088-4.872 5.486-7.808 7.943a3.15 3.15 0 00-3.327.991l-2.596-1.01-.033-.496c-.139-2.019-.427-6.22.75-9.24a1.013 1.013 0 00-.762-1.353 35.396 35.396 0 01-3.728-.87c.173-.832.275-1.692.28-2.575a67.565 67.565 0 008.054 3.925zm1.507 14.047l-1.554 3.99a1.139 1.139 0 01-1.472.647 1.139 1.139 0 01-.647-1.472l1.553-3.99a1.138 1.138 0 012.12.825zM34.159 10.97c2.027 1.708 4.765 3.182 7.913 4.282l1.9.604c.905.26 1.836.49 2.789.687-.835 3.006-.67 6.493-.537 8.524l-6.226-2.424-1.967-.765-2.893-1.127a1.026 1.026 0 00-.032-.122c-.831-2.49-1.571-5.285-.947-9.659zm18.836 30.833c1.8 4.763 3.841 10.161 2.575 16.892-1.165 6.196-4.091 10.634-8.697 13.19-5.679 3.153-13.837 3.18-21.824.07-7.986-3.11-13.98-8.645-16.032-14.808-1.665-4.998-.82-10.246 2.51-15.598 3.62-5.816 8.773-8.413 13.32-10.704 2.718-1.37 5.288-2.667 7.325-4.5l2.284.888a1.003 1.003 0 10.728-1.87l-4.021-1.565a1.139 1.139 0 01.825-2.12l18.016 7.014-.825 2.12-9.538-3.714a1.003 1.003 0 10-.728 1.87l9.691 3.774a3.15 3.15 0 002.45 3.213c.456 1.916 1.177 3.828 1.94 5.848zm3.064-11.33l9.75.962a1.15 1.15 0 011.02 1.244 1.148 1.148 0 01-1.244 1.02l-5.572-.55a.983.983 0 00-.135-.003l-3.843-2.613.024-.06zM66.16 41.218a1.138 1.138 0 01-1.58.301l-10.193-6.93a3.15 3.15 0 00.286-.562l.614-1.577 10.572 7.188c.513.349.65 1.067.301 1.58z" fill="#fff"/><path d="M40.013 51.22a2.612 2.612 0 003.378-1.485l.582-1.496c1.362-3.5-.118-7.415-3.315-9.187l.631-1.621a2.612 2.612 0 00-1.484-3.378 2.612 2.612 0 00-3.378 1.485l-.68 1.745a8.216 8.216 0 00-8.896 5.15c-1.646 4.229.454 9.007 4.682 10.653l1.496.583a3.014 3.014 0 011.713 3.897 3.014 3.014 0 01-3.897 1.713l-2.244-.873a2.21 2.21 0 01-1.257-2.858 2.612 2.612 0 00-1.484-3.378 2.612 2.612 0 00-3.378 1.484c-1.362 3.499.118 7.415 3.315 9.187l-.631 1.621a2.612 2.612 0 001.485 3.378 2.612 2.612 0 003.377-1.485l.68-1.745a8.216 8.216 0 008.897-5.15c1.646-4.229-.455-9.008-4.683-10.654l-1.496-.582a3.014 3.014 0 01-1.713-3.897 3.014 3.014 0 013.897-1.713l2.245.873a2.21 2.21 0 011.256 2.858l-.583 1.497a2.612 2.612 0 001.485 3.377zm-1.43-9.603l-2.244-.873a5.023 5.023 0 00-6.496 2.855 5.023 5.023 0 002.855 6.495l1.496.583a6.228 6.228 0 013.54 8.054 6.211 6.211 0 01-7.395 3.755 1.003 1.003 0 00-1.193.605l-.988 2.536a.603.603 0 01-1.122-.436l.971-2.494a1.003 1.003 0 00-.57-1.299 5.424 5.424 0 01-3.084-7.015.603.603 0 011.122.437 4.22 4.22 0 002.398 5.456l2.244.874a5.023 5.023 0 006.496-2.855 5.023 5.023 0 00-2.855-6.496l-1.497-.582a6.228 6.228 0 01-3.54-8.055 6.211 6.211 0 017.395-3.755 1.003 1.003 0 001.194-.605l.987-2.536a.603.603 0 011.122.437l-.97 2.493a1.003 1.003 0 00.57 1.3 5.425 5.425 0 013.084 7.014l-.582 1.497a.603.603 0 01-1.122-.437l.582-1.496a4.22 4.22 0 00-2.398-5.457z" fill="#fff"/></svg>