<svg width="97" height="97" fill="none" xmlns="http://www.w3.org/2000/svg"><path d="M53.695 45.116c.42-.887.53-1.891.311-2.849l-.1-.425a4.446 4.446 0 00-4.888-3.37l-.313-1.344a1.331 1.331 0 00-2.593.606l.302 1.296-2.593.605-.303-1.296a1.331 1.331 0 10-2.593.605l.303 1.297-1.296.303a1.331 1.331 0 10.605 2.593l8.605-2.01a1.799 1.799 0 012.172 1.32l.099.426a1.799 1.799 0 01-1.363 2.144l-4.715 1.101a1.331 1.331 0 10-2.593.605l.908 3.89a1.331 1.331 0 102.593-.605l-.303-1.297 5.24-1.223a2.576 2.576 0 013.117 1.88l.056.24a2.576 2.576 0 01-1.962 3.066l-9.13 2.131a1.331 1.331 0 00.605 2.593l1.297-.302.303 1.296a1.331 1.331 0 102.593-.605l-.303-1.297 2.593-.605.303 1.297a1.331 1.331 0 102.593-.606l-.303-1.296.054-.013a5.242 5.242 0 003.95-6.264l-.057-.24a5.178 5.178 0 00-3.194-3.647zm-9.5-11.433c.304.179.664.236 1.008.161.082-.021.162-.05.24-.083a.826.826 0 00.229-.136.745.745 0 00.193-.168c.065-.07.119-.137.171-.204a1.54 1.54 0 00.172-.491c.03-.172.027-.347-.01-.517a1.377 1.377 0 00-.592-.833 3.035 3.035 0 00-.244-.107.745.745 0 00-.247-.066.803.803 0 00-.265-.02c-.441.02-.845.252-1.085.623a2.076 2.076 0 00-.11.23.987.987 0 00-.062.26.876.876 0 00-.024.253c.005.089.017.178.035.265.042.17.116.328.219.468.102.142.228.266.372.365zM52.87 62.53a3.085 3.085 0 00-.243-.108.744.744 0 00-.248-.066.806.806 0 00-.265-.02c-.443.014-.85.248-1.084.623a1.535 1.535 0 00-.173.49 1.328 1.328 0 00.097.771.87.87 0 00.133.216.982.982 0 00.172.206c.064.056.13.11.2.158.304.179.665.236 1.01.161.08-.022.161-.05.239-.083a.821.821 0 00.228-.136.745.745 0 00.193-.168c.066-.07.12-.137.172-.204.18-.303.238-.664.161-1.008a1.329 1.329 0 00-.219-.47 1.548 1.548 0 00-.372-.363zM40.105 36.018c.342-.076.638-.288.82-.588a2.32 2.32 0 00.123-.233c.02-.087.045-.161.065-.248.008-.084.013-.18.021-.264a1.297 1.297 0 00-.636-1.082.854.854 0 00-.233-.124 4.03 4.03 0 00-.247-.065c-.085-.008-.182-.012-.265-.02-.444.018-.85.257-1.083.635a1.325 1.325 0 001.435 1.99zm17.863 24.337a1.26 1.26 0 00-.233-.123c-.088-.021-.161-.045-.248-.066a1.863 1.863 0 00-.262-.007c-.175 0-.348.04-.505.118a1.9 1.9 0 00-.232.122c-.068.057-.137.114-.193.169a.873.873 0 00-.155.213 1.168 1.168 0 00-.188.482 1.46 1.46 0 00.014.53c.081.342.298.636.6.817.072.052.15.094.235.123.073.023.161.044.247.065.088.013.176.02.265.02.085-.004.169-.014.252-.031.087-.023.171-.052.254-.087.079-.04.155-.085.228-.136.068-.056.124-.11.193-.167.059-.066.11-.138.155-.214.188-.296.247-.655.164-.996a1.432 1.432 0 00-.208-.484 1.377 1.377 0 00-.383-.348zM34.663 39.299c.058.069.115.137.17.193.066.063.139.12.216.168.147.089.309.148.478.176.176.03.356.025.53-.015.338-.086.63-.296.82-.588.049-.078.089-.16.12-.247.023-.073.044-.16.066-.247.007-.084.015-.168.02-.264a1.522 1.522 0 00-.032-.253 1.683 1.683 0 00-.087-.253c-.044-.072-.091-.157-.135-.229-.057-.069-.111-.124-.168-.193a2.367 2.367 0 00-.214-.155 1.636 1.636 0 00-.481-.188 1.366 1.366 0 00-1 .233 1.629 1.629 0 00-.347.381 2.383 2.383 0 00-.123.235c-.02.087-.045.16-.066.247-.007.084-.012.18-.02.265.006.089.017.178.036.265.021.082.049.163.082.24.047.085.092.157.135.229zm27.122 17.143a1.73 1.73 0 00-.247-.065 1.808 1.808 0 00-.264-.02 1.338 1.338 0 00-1.26 1.633c.044.173.119.336.222.481.1.144.23.263.382.349.295.188.655.247.995.164a.902.902 0 00.254-.087 1.81 1.81 0 00.23-.122c.068-.056.131-.116.19-.18a1.348 1.348 0 00.347-.683 1.431 1.431 0 00-.027-.527 1.343 1.343 0 00-.59-.833l-.232-.11zM32.11 42.766a1.343 1.343 0 00-.161 1.009c.037.169.107.329.206.47.107.142.237.264.384.362.304.181.664.239 1.009.162.523-.125.92-.552 1.006-1.083.03-.172.026-.347-.012-.517a1.351 1.351 0 00-.604-.83 1.377 1.377 0 00-1.828.427zm32.416 8.839a1.327 1.327 0 00-1.248-.078.797.797 0 00-.23.135.744.744 0 00-.192.169.814.814 0 00-.159.201 1.335 1.335 0 00.43 1.84c.07.05.149.086.231.11a.745.745 0 00.248.066.815.815 0 00.265.02 1.68 1.68 0 00.252-.03c.343-.083.641-.295.832-.592.085-.153.144-.319.173-.491a1.255 1.255 0 00-.23-.986 1.542 1.542 0 00-.372-.364zM32.88 50.283a1.344 1.344 0 00.994-1.6 1.161 1.161 0 00-.222-.48 1.312 1.312 0 00-.369-.351 1.377 1.377 0 00-1.828.426 1.16 1.16 0 00-.188.482c-.03.175-.024.355.014.53a1.365 1.365 0 001.6.993zm32.686-3.829a.752.752 0 00-.17-.193.859.859 0 00-.213-.155 1.362 1.362 0 00-1.251-.092c-.073.045-.157.092-.229.136-.068.057-.125.111-.193.169a2.33 2.33 0 00-.155.214 1.29 1.29 0 00-.165.995.882.882 0 00.087.253c.035.08.076.157.123.231.053.07.114.133.181.19a.73.73 0 00.2.159c.076.045.154.086.235.123.086.02.16.044.247.065.087.009.175.011.262.007.09.002.178-.01.264-.035a1.28 1.28 0 00.82-.587c.05-.073.09-.152.123-.234a.954.954 0 00.067-.248.943.943 0 00.02-.264 1.836 1.836 0 00-.036-.266 1.655 1.655 0 00-.083-.24.947.947 0 00-.134-.228zm-30.594 8.632c.09-.146.149-.309.176-.478a1.16 1.16 0 00-.015-.53 1.345 1.345 0 00-.588-.82 1.364 1.364 0 00-1.828.427 1.303 1.303 0 00-.177.998c.043.173.118.336.222.481.1.144.23.263.382.35.296.186.655.246.995.163a.928.928 0 00.254-.086c.076-.035.148-.075.218-.12l.207-.171a2.34 2.34 0 00.154-.214zm27.12-13.96a1.32 1.32 0 00-.16 1.009.796.796 0 00.083.24c.034.08.075.158.122.23.054.07.115.134.182.19a.576.576 0 00.2.159c.076.045.154.087.234.123.087.021.162.045.248.066.085.007.18.012.265.02.089-.005.177-.017.264-.034.343-.082.638-.299.817-.602a.86.86 0 00.123-.233.75.75 0 00.067-.248.816.816 0 00.02-.264 1.674 1.674 0 00-.033-.253 1.837 1.837 0 00-.086-.253.955.955 0 00-.134-.229.963.963 0 00-.17-.192 1.27 1.27 0 00-.213-.155 1.327 1.327 0 00-1.248-.078 1.71 1.71 0 00-.232.122c-.068.057-.125.111-.193.168a2.34 2.34 0 00-.156.214zm-26.35 17.199a1.35 1.35 0 00.43 1.84c.303.181.664.24 1.008.162a1.328 1.328 0 00.39-2.43 1.377 1.377 0 00-1.828.428zm23.903-22.356a.797.797 0 00-.229.135.742.742 0 00-.192.168c-.06.062-.113.13-.16.202a2.24 2.24 0 00-.122.233 1.049 1.049 0 00-.062.26 1.562 1.562 0 00-.023.252c.005.09.016.178.034.266.085.345.302.643.604.83.073.044.15.08.23.11a.745.745 0 00.248.065.818.818 0 00.266.02 1.64 1.64 0 00.251-.031c.087-.023.172-.052.254-.087a.862.862 0 00.215-.132c.076-.048.145-.106.206-.172a48.2 48.2 0 00.158-.2c.041-.075.078-.152.11-.231a.978.978 0 00.062-.26.876.876 0 00.024-.253 1.375 1.375 0 00-.12-.518.866.866 0 00-.134-.216.992.992 0 00-.17-.205 2.097 2.097 0 00-.202-.158 1.365 1.365 0 00-1.248-.078zM42.396 61.584a4.362 4.362 0 00-.168-.194.854.854 0 00-.214-.155 1.17 1.17 0 00-.482-.188 1.366 1.366 0 00-.999.234c-.142.1-.261.23-.347.381a.858.858 0 00-.123.234c-.024.074-.045.161-.066.248a4.624 4.624 0 00-.02.264c.004.085.015.17.032.253.082.346.3.645.604.83.146.093.31.156.48.188.176.026.356.017.528-.027a1.3 1.3 0 00.471-.206c.14-.104.258-.234.349-.382.19-.3.253-.665.174-1.012a1.536 1.536 0 00-.084-.24c-.047-.085-.092-.157-.135-.228zm12.655-26.608a1.301 1.301 0 001.48-.044.91.91 0 00.193-.169 2.26 2.26 0 00.156-.214c.093-.146.157-.31.188-.48a1.37 1.37 0 00-.615-1.348 1.049 1.049 0 00-.231-.11 1.847 1.847 0 00-.25-.078 1.804 1.804 0 00-.262-.008 1.32 1.32 0 00-1.04 2.103c.1.143.23.262.381.348zM47.324 62.84a1.377 1.377 0 00-1.828.426 1.35 1.35 0 00-.189.482c-.024.175-.015.354.027.527.037.169.107.329.206.471.104.14.234.258.382.349a1.303 1.303 0 001.829-.427 1.305 1.305 0 00.176-.999 1.428 1.428 0 00-.221-.481 1.35 1.35 0 00-.382-.348zm2.651-29.344c.074.023.162.043.248.065.087.009.175.011.262.007a.815.815 0 00.252-.032.901.901 0 00.253-.086 1.83 1.83 0 00.232-.122c.068-.058.123-.111.193-.168a1.29 1.29 0 00.154-.214 1.333 1.333 0 00-.426-1.828 1.233 1.233 0 00-.233-.124 2.029 2.029 0 00-.248-.065 1.96 1.96 0 00-.265-.02 1.69 1.69 0 00-.505.118c-.08.04-.156.085-.229.135a3.549 3.549 0 00-.193.168.856.856 0 00-.156.215 1.302 1.302 0 00.427 1.828c.071.052.15.094.234.123z" fill="#fff"/><path d="M81.552 43.132a2.666 2.666 0 001.988-3.198l-.951-4.074a5.315 5.315 0 00-3.675-9.886 5.314 5.314 0 001.082 10.491l.95 4.074-10.372 2.422A22.484 22.484 0 0060.48 28.883a22.882 22.882 0 00-3.136-1.601l-.386-1.65 18.152-4.238a2.666 2.666 0 001.988-3.199l-.649-2.777a5.325 5.325 0 10-2.593.605l.649 2.777-18.152 4.238a2.665 2.665 0 00-1.99 3.187 22.448 22.448 0 00-9.664-.4l-.62-2.656 5.186-1.21a2.666 2.666 0 001.987-3.2l-.345-1.48a5.325 5.325 0 10-2.593.605l.346 1.481-5.187 1.21a2.666 2.666 0 00-1.987 3.2l.62 2.655a22.622 22.622 0 00-4.975 2.115l-2.345-10.043a2.666 2.666 0 00-3.198-1.987l-13.15 3.07a5.326 5.326 0 10.605 2.592l13.15-3.07 2.578 11.045a22.599 22.599 0 00-8.826 16.391L14.606 49.19l-1.556-6.666a5.325 5.325 0 10-2.594.605l1.557 6.667a2.666 2.666 0 003.198 1.987l10.73-2.505c.067 1.338.251 2.668.55 3.974l-2.592.605a2.666 2.666 0 00-1.988 3.198l4.237 18.152-1.48.346a5.325 5.325 0 10.605 2.593l1.48-.346a2.666 2.666 0 001.988-3.198L24.505 56.45l2.76-.644a22.532 22.532 0 0016.88 14.492l2.88 12.34-7.963 1.86a5.326 5.326 0 10.605 2.593l7.964-1.86a2.666 2.666 0 001.987-3.198l-2.647-11.34c1.805.114 3.617.011 5.397-.306l.62 2.656a2.666 2.666 0 003.199 1.988l9.076-2.12.345 1.482a5.325 5.325 0 102.593-.606l-.345-1.48a2.666 2.666 0 00-3.199-1.988l-9.076 2.119-.62-2.657a22.45 22.45 0 0012.797-9.728 22.713 22.713 0 002.657-6.118l10.361-2.418 3.07 13.15a5.326 5.326 0 102.593-.606l-3.07-13.15a2.666 2.666 0 00-3.198-1.988l-9.21 2.15a22.46 22.46 0 00.053-5.48l10.539-2.461zm-4.02-11.366a2.663 2.663 0 115.186-1.21 2.663 2.663 0 01-5.187 1.21zm-6.14-20.442a2.663 2.663 0 115.186-1.21 2.663 2.663 0 01-5.186 1.21zM45.85 13.185a2.663 2.663 0 115.186-1.21 2.663 2.663 0 01-5.187 1.21zM14.343 24.642a2.663 2.663 0 11-1.21-5.187 2.663 2.663 0 011.21 5.187zM11.19 40.417a2.663 2.663 0 11-1.211-5.186 2.663 2.663 0 011.21 5.186zm9.383 40.193a2.663 2.663 0 11-1.211-5.186 2.663 2.663 0 011.21 5.186zm14.393 8.945a2.663 2.663 0 11-1.211-5.186 2.663 2.663 0 011.21 5.186zm32.5-13.056a2.663 2.663 0 111.21 5.186 2.663 2.663 0 01-1.21-5.186zm-1.972-17.851a19.97 19.97 0 112.486-15.082 19.839 19.839 0 01-2.486 15.081zm20.209 8.125a2.663 2.663 0 111.21 5.186 2.663 2.663 0 01-1.21-5.186z" fill="#fff"/></svg>