<svg width="56" height="56" fill="none" xmlns="http://www.w3.org/2000/svg"><path d="M47.8 8.201C42.51 2.913 35.48.001 28 .001a27.897 27.897 0 00-15.204 4.483.82.82 0 10.892 1.377A26.26 26.26 0 0128 1.64c7.04 0 13.66 2.742 18.639 7.72 4.979 4.979 7.72 11.598 7.72 18.64 0 7.04-2.741 13.66-7.72 18.638C41.66 51.618 35.04 54.36 28 54.36c-7.04 0-13.66-2.741-18.639-7.72-4.979-4.98-7.72-11.599-7.72-18.64 0-7.694 3.35-14.985 9.192-20.004a.82.82 0 00-1.069-1.244A27.985 27.985 0 000 28c0 7.48 2.913 14.51 8.2 19.8C13.49 53.087 20.52 56 28 56s14.51-2.912 19.8-8.2C53.087 42.51 56 35.48 56 28c0-7.479-2.913-14.51-8.2-19.799z" fill="#fff"/><path d="M40.894 48.822A24.653 24.653 0 0049.3 40.09 24.492 24.492 0 0052.487 28c0-6.54-2.547-12.69-7.172-17.315A24.328 24.328 0 0028 3.513c-6.54 0-12.69 2.547-17.315 7.172A24.327 24.327 0 003.513 28c0 6.541 2.547 12.69 7.172 17.316A24.327 24.327 0 0028 52.488a24.33 24.33 0 009.559-1.936.82.82 0 00-.641-1.51A22.7 22.7 0 0128 50.846C15.402 50.847 5.153 40.598 5.153 28 5.153 15.403 15.403 5.154 28 5.154c12.598 0 22.847 10.249 22.847 22.846a22.85 22.85 0 01-2.973 11.279 23.007 23.007 0 01-7.845 8.149.82.82 0 10.865 1.394z" fill="#fff"/><path d="M24.603 24.831l8.62 2.354a3.495 3.495 0 002.681-.348 3.54 3.54 0 001.663-2.183c.5-1.904-.625-3.872-2.51-4.387l-8.619-2.354a.82.82 0 00-1.01.583l-1.402 5.335a.82.82 0 00.577 1zm2.202-5.117l7.82 2.136c1.02.278 1.628 1.35 1.355 2.387a1.91 1.91 0 01-.897 1.18 1.859 1.859 0 01-1.428.186l-7.836-2.14.986-3.749z" fill="#fff"/><path d="M27.095 42.032a2.306 2.306 0 001.767-.231 2.412 2.412 0 001.13-1.49l.209-.796 1.066.29a6.833 6.833 0 005.251-.688 7.129 7.129 0 003.343-4.4 7.24 7.24 0 00-1.136-6.127 6.752 6.752 0 001.805-3.127c.93-3.54-1.068-7.186-4.47-8.227l.288-1.098c.338-1.284-.404-2.606-1.652-2.947a2.3 2.3 0 00-1.767.231 2.412 2.412 0 00-1.13 1.49l-.284 1.08-1.686-.46.288-1.095c.338-1.284-.403-2.607-1.652-2.948a2.299 2.299 0 00-1.767.232 2.412 2.412 0 00-1.13 1.49l-.284 1.08-3.406-.93a2.299 2.299 0 00-1.767.23 2.413 2.413 0 00-1.13 1.49c-.337 1.284.404 2.607 1.653 2.948l1.625.444-3.401 12.935-1.61-.44a2.298 2.298 0 00-1.767.232 2.412 2.412 0 00-1.13 1.49c-.338 1.284.403 2.606 1.653 2.947l3.42.934-.213.812c-.337 1.284.404 2.606 1.653 2.948a2.298 2.298 0 001.767-.232 2.412 2.412 0 001.13-1.49l.21-.796 1.684.46-.213.812c-.338 1.284.404 2.606 1.653 2.947zm-3.491-6.02a.816.816 0 00-.627.08.82.82 0 00-.383.503l-.42 1.597a.783.783 0 01-.363.486.67.67 0 01-.515.07c-.384-.105-.608-.53-.498-.948l.42-1.597a.82.82 0 00-.577-1l-4.205-1.149c-.385-.105-.609-.53-.499-.947a.784.784 0 01.364-.486.671.671 0 01.514-.07l2.41.658a.82.82 0 001.009-.583l3.819-14.522a.82.82 0 00-.577-1l-2.41-.658c-.384-.105-.608-.53-.498-.948a.784.784 0 01.363-.486.67.67 0 01.515-.07l4.204 1.149a.82.82 0 001.01-.583l.494-1.88a.783.783 0 01.364-.486.67.67 0 01.514-.07c.385.105.608.53.499.948l-.495 1.88a.82.82 0 00.577 1l3.268.893a.82.82 0 001.01-.583l.495-1.88a.783.783 0 01.363-.487.671.671 0 01.514-.07c.385.106.609.53.499.948l-.495 1.881a.82.82 0 00.577 1l.593.162c2.654.725 4.226 3.543 3.506 6.282a5.114 5.114 0 01-1.855 2.795.82.82 0 00-.105 1.21 5.6 5.6 0 011.29 5.25 5.5 5.5 0 01-2.575 3.396 5.204 5.204 0 01-3.999.526l-1.865-.509a.82.82 0 00-1.009.583l-.42 1.597a.784.784 0 01-.364.486.67.67 0 01-.514.07c-.385-.105-.608-.53-.498-.948l.42-1.597a.82.82 0 00-.577-1l-3.268-.893z" fill="#fff"/><path d="M33.108 36.859a3.87 3.87 0 001.942-.525 3.934 3.934 0 001.848-2.426c.556-2.115-.692-4.3-2.783-4.872l-9.891-2.701a.82.82 0 00-1.01.582L21.61 33.02a.82.82 0 00.577 1l9.891 2.7c.34.094.686.14 1.03.14zm-8.517-8.724l9.092 2.484c1.226.335 1.956 1.623 1.628 2.872a2.305 2.305 0 01-1.081 1.422 2.236 2.236 0 01-1.72.224l-9.107-2.487 1.188-4.514z" fill="#fff"/></svg>