<svg width="108" height="111" fill="none" xmlns="http://www.w3.org/2000/svg"><path d="M16.854 64.714a1.6 1.6 0 01-2.12-.799c-4.003-8.845-.064-19.297 8.781-23.3l2.308-1.045a1.6 1.6 0 012.119.8 1.6 1.6 0 01-.798 2.118l-2.308 1.045c-7.237 3.275-10.46 11.826-7.184 19.062a1.6 1.6 0 01-.798 2.119z" fill="#fff"/><path d="M31.753 48.604a1.599 1.599 0 01-1.816-.35A19.147 19.147 0 0126.3 42.87c-4.369-9.654-.07-21.06 9.582-25.428 9.653-4.37 21.059-.071 25.428 9.582a19.191 19.191 0 011.603 5.863c.094.88-.544 1.67-1.421 1.765a1.604 1.604 0 01-1.764-1.422 15.998 15.998 0 00-1.336-4.885c-3.64-8.043-13.147-11.626-21.19-7.986C29.16 24 25.577 33.506 29.217 41.55a16.013 16.013 0 003.03 4.488 1.6 1.6 0 01-.494 2.567z" fill="#fff"/><path d="M41.164 29.112a1.6 1.6 0 01-2.119-.8l-1.32-2.917a1.6 1.6 0 112.917-1.32l1.32 2.917a1.6 1.6 0 01-.798 2.12zM99.57 81.767l-55.935 25.316c-4.284 1.939-9.35.031-11.289-4.254L14.293 62.941c-1.94-4.286-.03-9.351 4.254-11.29L74.48 26.334c4.285-1.94 9.35-.03 11.29 4.255l18.053 39.887c1.94 4.286.031 9.35-4.254 11.29zM19.868 54.57a5.335 5.335 0 00-2.658 7.051l18.053 39.887a5.336 5.336 0 007.052 2.659L98.25 78.85a5.336 5.336 0 002.658-7.052L82.854 31.91a5.335 5.335 0 00-7.052-2.657L19.868 54.569z" fill="#fff"/><path d="M98.62 62.864l-16.775 7.592c-5.228 2.366-11.407.038-13.773-5.19-2.366-5.228-.038-11.407 5.19-13.773L90.038 43.9a1.601 1.601 0 012.12.799l7.262 16.046a1.6 1.6 0 01-.8 2.119zM74.583 54.41c-3.619 1.638-5.23 5.916-3.592 9.536 1.638 3.62 5.915 5.231 9.535 3.593l15.317-6.933L89.9 47.477 74.582 54.41z" fill="#fff"/><path d="M79.865 66.08a5.61 5.61 0 01-7.416-2.794 5.61 5.61 0 012.794-7.417 5.61 5.61 0 017.417 2.795 5.61 5.61 0 01-2.795 7.416zm-3.301-7.294a2.405 2.405 0 00-1.197 3.18 2.404 2.404 0 003.177 1.197 2.405 2.405 0 001.199-3.178 2.405 2.405 0 00-3.18-1.199zm-56.79 4.613l-2.918 1.32a1.6 1.6 0 11-1.32-2.917l2.917-1.32a1.6 1.6 0 111.32 2.917zM76.797 37.59l-5.703 2.581a1.6 1.6 0 11-1.32-2.917l5.703-2.58a1.6 1.6 0 111.32 2.916zm-11.404 5.162l-5.703 2.581a1.6 1.6 0 11-1.32-2.917l5.702-2.581a1.6 1.6 0 012.118.798 1.6 1.6 0 01-.797 2.119zm-11.404 5.161l-5.703 2.581a1.6 1.6 0 11-1.32-2.917l5.703-2.581a1.6 1.6 0 012.118.798 1.6 1.6 0 01-.798 2.12zm-11.405 5.162l-5.703 2.581a1.6 1.6 0 01-2.119-.799 1.6 1.6 0 01.799-2.118l5.702-2.581a1.6 1.6 0 111.32 2.917zm-11.406 5.162l-5.702 2.581a1.601 1.601 0 11-1.32-2.917l5.703-2.581a1.6 1.6 0 111.32 2.918zm54.239-24.548l-2.917 1.32a1.6 1.6 0 11-1.32-2.917l2.917-1.32a1.6 1.6 0 111.32 2.917zm-40.681 7.866L42.87 37.43c-.047-.103-.018-.177.083-.223l3.622-1.64c1.684-.762 3.066-.219 3.713 1.21.365.807.358 1.592.003 2.266l3.558-1.61a6.636 6.636 0 00-.563-2.044c-.958-2.117-2.83-2.928-4.087-2.853l-.023-.051c.831-1.084 1.241-2.62.352-4.584-1.259-2.781-3.824-3.833-7.497-2.17l-6.453 2.92c-.153.07-.21.217-.14.372l6.29 13.896 3.01-1.363zM39.601 30.21c-.046-.1-.017-.176.084-.222l3.47-1.57c1.53-.693 2.89-.201 3.514 1.176.612 1.352.082 2.697-1.448 3.39l-3.47 1.57c-.1.046-.176.018-.222-.083l-1.928-4.26z" fill="#fff"/></svg>