<svg width="74" height="74" fill="none" xmlns="http://www.w3.org/2000/svg"><path d="M31.712 25.888c2.854-4.283 7.849-6.93 13.048-7.365 7.653-.64 15.524 3.523 18.865 10.515a15.833 15.833 0 011.54 6.062c.064 1.321-1.675 1.84-2.333.692-.974-1.696-2.067-3.301-3.512-4.742-2.727-2.716-6.164-4.704-9.904-5.642a21.66 21.66 0 00-10.6.006c-1.96.501-3.736 1.302-5.448 2.252-1.145.636-2.382-.688-1.656-1.778zm25.704 12.106c-1.997-4.889-6.092-8.902-11.108-10.31-1.263-.355-2.143 1.23-1.183 2.123 1.433 1.335 2.744 2.776 3.826 4.486a21.66 21.66 0 013.282 10.08c.263 3.846-.565 7.73-2.306 11.162-.923 1.82-2.113 3.356-3.425 4.806-.888.981.142 2.474 1.38 2.005a15.838 15.838 0 005.29-3.339c5.566-5.29 7.123-13.966 4.244-21.013zm-10.69 3.644c-.857 1.839-1.862 3.589-3.22 5.197a21.478 21.478 0 01-8.995 6.29c-3.565 1.298-7.444 1.65-11.177.97-1.874-.342-3.575-.962-5.237-1.706-1.197-.536-2.29.912-1.471 1.935a15.82 15.82 0 004.66 3.924c6.807 3.788 15.688 2.546 21.546-2.462 3.983-3.404 6.492-8.512 6.277-13.68-.054-1.307-1.83-1.654-2.383-.468zm-25.596 5.75c4.495 2.816 10.2 3.673 15.11 1.856 1.232-.456 1.013-2.255-.29-2.414-1.943-.237-3.85-.632-5.73-1.381-3.568-1.422-6.757-3.81-9.092-6.867a21.722 21.722 0 01-4.183-9.744c-.323-2.015-.262-3.956-.053-5.9.141-1.316-1.57-1.918-2.296-.812a15.839 15.839 0 00-2.316 5.81c-1.39 7.53 2.42 15.422 8.85 19.451zm4.367-8.175c.812 1.027 2.453.26 2.202-1.026-.374-1.921-.587-3.858-.459-5.878a21.572 21.572 0 013.49-10.43c2.046-3.109 4.9-5.636 8.206-7.329 1.817-.93 3.682-1.472 5.596-1.874 1.295-.272 1.338-2.086.062-2.434a15.833 15.833 0 00-6.241-.408c-7.683 1.017-14.073 7.215-15.83 14.693-1.192 5.078-.219 10.648 2.974 14.686z" fill="#fff"/></svg>