<svg width="70" height="70" fill="none" xmlns="http://www.w3.org/2000/svg"><path d="M40.954 70c-6.257 0-12.217-1.958-17.235-5.664l-1.649-1.218L38.903 40.3V11.91h2.051C56.97 11.91 70 24.94 70 40.955c0 16.016-13.03 29.046-29.046 29.046zm-13.1-7.812c3.927 2.434 8.416 3.711 13.1 3.711 13.754 0 24.944-11.19 24.944-24.944 0-13.064-10.094-23.814-22.893-24.86v25.554L27.853 62.188z" fill="#fff"/><path d="M13.46 61.34l-1.65-1.219a29.296 29.296 0 01-8.59-10.076A29.128 29.128 0 010 36.74a29.04 29.04 0 017.04-18.96l1.34-1.552 23.443 20.22L13.46 61.34zM8.871 22.068a24.943 24.943 0 00-4.77 14.672c0 7.199 3.16 14.083 8.545 18.794l13.62-18.463L8.872 22.068zm23.86 6.614L11.016 9.953l1.34-1.553A24.18 24.18 0 0130.68 0h2.05v28.682zM16.88 9.594l11.75 10.134V4.207a20.074 20.074 0 00-11.75 5.387z" fill="#fff"/></svg>