<svg width="72" height="72" fill="none" xmlns="http://www.w3.org/2000/svg"><path d="M68.54 55.887l-9.166-35.159a.982.982 0 00-1.197-.702l-9.503 2.477a.982.982 0 00-.702 1.198l9.165 35.158-1.9.496-5.698-21.856a.982.982 0 00-1.198-.702l-9.502 2.477a.982.982 0 00-.703 1.198l5.698 21.855-1.9.496-8.175-31.358a.982.982 0 00-1.198-.703l-9.503 2.478a.982.982 0 00-.702 1.197l8.174 31.358-1.9.496-4.706-18.055a.982.982 0 00-1.198-.702l-9.503 2.477a.982.982 0 00-.702 1.198l4.706 18.054-2.85.743.495 1.9 57.014-14.862-.495-1.9-2.851.743zm-41.81 10.9l-7.602 1.98-4.46-17.103 7.603-1.982 4.459 17.104zm13.303-3.469L32.43 65.3l-7.927-30.408 7.602-1.981 7.927 30.407zm13.303-3.468l-7.602 1.982-5.45-20.905 7.602-1.982 5.45 20.905zm13.303-3.468l-7.601 1.982-8.918-34.209 7.602-1.981 8.917 34.208z" fill="#fff"/><path d="M12.672 39.165a4.909 4.909 0 004.867-8.3l4.973-8.48a4.86 4.86 0 003.627-.175 4.874 4.874 0 002.097-1.833l6.768 2.864a4.91 4.91 0 108.15-3.113l4.972-8.477a4.925 4.925 0 10-1.694-.993l-4.971 8.476a4.91 4.91 0 00-5.822 2.162c-.013.023-.018.047-.03.068l-6.67-2.822a4.91 4.91 0 10-8.123 2.854l-4.97 8.476a4.91 4.91 0 10-3.174 9.293zM48.967 4.16a2.946 2.946 0 111.486 5.701 2.946 2.946 0 01-1.486-5.701zM37.333 22.292a2.946 2.946 0 115.083 2.98 3.019 3.019 0 01-4.031 1.052 2.946 2.946 0 01-1.052-4.032zm-16-5.571a2.927 2.927 0 012.024-1.826 2.946 2.946 0 11-2.024 1.826zm-9.616 16.308v-.001A2.946 2.946 0 1116.8 36.01a3.019 3.019 0 01-4.03 1.05 2.946 2.946 0 01-1.053-4.03z" fill="#fff"/></svg>