<svg width="73" height="68" fill="none" xmlns="http://www.w3.org/2000/svg"><path d="M37.942 11.374a.85.85 0 00.514-.157l2.357-1.675a.853.853 0 10-.989-1.39l-2.357 1.674a.853.853 0 00.475 1.548zm-6.989 4.967a.848.848 0 00.515-.158l3.339-2.373a.854.854 0 10-.989-1.39l-3.339 2.373a.853.853 0 00.475 1.548zm13.916 34.885l-14.012 9.959a18.163 18.163 0 11-21.045-29.61l17.76-12.623a.853.853 0 00-.988-1.39L8.824 30.184C-.106 36.532-2.208 48.96 4.139 57.89a19.888 19.888 0 0027.707 4.685l14.011-9.959a.853.853 0 10-.988-1.39zm6.121-2.257a.852.852 0 10-.989-1.39l-1.89 1.343a.854.854 0 10.99 1.39l1.889-1.343zm4.008-4.943l-1.92 1.366a.853.853 0 10.988 1.39l1.92-1.365a.854.854 0 00-.988-1.39zm6.86-4.875l-1.908 1.356a.853.853 0 10.989 1.39l1.907-1.355a.853.853 0 10-.988-1.39zM55.813 7.887a.85.85 0 00.542-.178l3.28-2.535a.853.853 0 00-1.043-1.35l-3.28 2.535a.853.853 0 00.501 1.528zM45.328 15.99a.85.85 0 00.542-.178l5.964-4.609a.853.853 0 00-1.043-1.35l-5.964 4.608a.853.853 0 00.501 1.528zm-9.486 7.331a.85.85 0 00.542-.178l4.315-3.334a.853.853 0 00-1.043-1.35l-4.316 3.335a.853.853 0 00.502 1.528z" fill="#fff"/><path d="M29.79 27.998a.85.85 0 00.543-.178l2.646-2.045a.853.853 0 00-1.043-1.35l-2.647 2.045a.853.853 0 00.502 1.528zm40.46-9.418l-4.112 3.294a.853.853 0 101.067 1.331l4.11-3.293a.852.852 0 00-.77-1.489.851.851 0 00-.296.158zm-7.016 6.714a.853.853 0 00-1.2-.133l-10.113 8.102a.853.853 0 001.066 1.332l10.114-8.102a.852.852 0 00.133-1.2zM41.617 43.446a.85.85 0 00.553-.187l6.286-5.034a.853.853 0 00-1.067-1.332l-6.284 5.034a.853.853 0 00.513 1.519h-.001zM71.43 6.739l-12.19 9.095a.852.852 0 101.02 1.368l12.19-9.096a.852.852 0 10-1.02-1.367zM52.064 22.253a.855.855 0 001.194.174l1.9-1.418a.853.853 0 10-1.02-1.368l-1.9 1.418a.855.855 0 00-.174 1.194zM42.28 30.39a.849.849 0 00.531-.168l5.264-3.928a.854.854 0 00-1.02-1.367l-5.264 3.927a.853.853 0 00.49 1.537zM7.007 23.804a1.61 1.61 0 10.078-3.22 1.61 1.61 0 00-.078 3.22zm4.165-3.081a1.156 1.156 0 10.057-2.31 1.156 1.156 0 00-.056 2.31zm39.169 34.234a1.61 1.61 0 10-.077 3.22 1.61 1.61 0 00.077-3.22zm3.935.135a1.004 1.004 0 10.049-2.008 1.004 1.004 0 00-.049 2.008zM48.038 6.009a1.308 1.308 0 10.063-2.615 1.308 1.308 0 00-.063 2.615zm4.005-2.782a1.005 1.005 0 10.049-2.008 1.005 1.005 0 00-.049 2.008zM19.487 31.454a7.781 7.781 0 01-5.333 1.975 4.4 4.4 0 00-3.108 1.195 20.271 20.271 0 00-4.67 6.557 3.15 3.15 0 00-.255.942l-.475 4.34a8.974 8.974 0 001.677 6.284l.506.693.576.836 2.213 3.41a8.293 8.293 0 006.781 3.803c.388.009.777-.008 1.163-.052a.951.951 0 00.08-.013l.02-.005a.78.78 0 00.047-.012l1.13-.332c.932-.274 1.67-.52 2.32-.739 1.828-.612 2.745-.919 4.902-.74a3.43 3.43 0 002.799-1.083 6.031 6.031 0 012.296-1.525l.799-.295a7.706 7.706 0 003.86-3.145l1.091-1.748a4.54 4.54 0 00-.095-5.03l-1.828-2.645-2.12-6.635-.024-.3a8.638 8.638 0 00-14.353-5.736zm8.148-.05a6.957 6.957 0 014.504 5.927l.033.4a.89.89 0 00.038.188l2.186 6.844c.026.082.065.16.113.23l1.9 2.747a2.84 2.84 0 01.055 3.15l-1.096 1.754a6 6 0 01-3.005 2.449l-.8.295a7.745 7.745 0 00-2.948 1.959 1.731 1.731 0 01-1.413.55c-2.507-.209-3.666.179-5.585.822-.636.213-1.357.454-2.26.72l-1.057.31a6.603 6.603 0 01-6.251-2.992l-2.219-3.42-.013-.02-.59-.855-.013-.02-.513-.702a7.27 7.27 0 01-1.36-5.092l.476-4.34c.016-.15.056-.295.117-.432a18.573 18.573 0 014.279-6.007 2.703 2.703 0 011.91-.734 9.484 9.484 0 006.499-2.406 6.92 6.92 0 017.013-1.325z" fill="#fff"/><path d="M28.2 40.447a3.257 3.257 0 001.698-.43.853.853 0 00-.846-1.481 1.57 1.57 0 01-1.557-2.726.852.852 0 00-.196-1.567.854.854 0 00-.65.086 3.275 3.275 0 001.551 6.117zm.809 8.174a3.276 3.276 0 003.322 3.228.852.852 0 10-.024-1.706 1.57 1.57 0 01-.046-3.138.853.853 0 10-.024-1.706 3.275 3.275 0 00-3.228 3.323zm-8.613-8.915a.854.854 0 00-1.696-.186.762.762 0 01-1.514-.165.852.852 0 10-1.696-.186 2.468 2.468 0 004.905.537h.001zm-1.796 6.95a2.468 2.468 0 001.612 3.096.852.852 0 10.513-1.628.762.762 0 01.457-1.453.854.854 0 00.513-1.627 2.468 2.468 0 00-3.095 1.612zm-5.645.306a2.469 2.469 0 002.178-1.194.853.853 0 00-1.461-.88.76.76 0 01-1.408-.505.762.762 0 01.102-.28.853.853 0 10-1.462-.88 2.468 2.468 0 002.051 3.74zm2.665 5.355a.853.853 0 00-1.17.291.762.762 0 11-1.306-.785.853.853 0 10-1.461-.88 2.468 2.468 0 004.229 2.545.854.854 0 00-.292-1.17zm8.027 3.356a2.471 2.471 0 003.085-1.631.853.853 0 00-1.63-.503.762.762 0 01-1.456-.45.854.854 0 10-1.63-.502 2.47 2.47 0 001.63 3.086z" fill="#fff"/></svg>