<svg width="115" height="113" fill="none" xmlns="http://www.w3.org/2000/svg"><path d="M98.389 69.216l-17.438-6.73 6.211-16.096 2.683 1.035a1.437 1.437 0 001.88-1.802l-3.601-10.636a1.438 1.438 0 00-2.063-.796l-9.813 5.46a1.437 1.437 0 00.183 2.598l2.683 1.035-6.212 16.097-54.998-21.223a1.438 1.438 0 00-1.858.824L.516 79.224a1.438 1.438 0 00.824 1.86l80.485 31.057a1.441 1.441 0 001.859-.824l15.529-40.242a1.438 1.438 0 00-.824-1.86zM85.953 37.543l2.063 6.094-1.16-.447a1.438 1.438 0 00-1.86.823l-6.728 17.439-2.683-1.036 6.73-17.438a1.438 1.438 0 00-.825-1.859l-1.16-.448 5.623-3.128zM18.21 41.36l6.593 2.544a8.643 8.643 0 01-9.137 4.049l2.544-6.593zM3.717 78.918l2.544-6.593a8.644 8.644 0 014.05 9.137l-6.594-2.544zM81.52 108.94l-6.594-2.544a8.649 8.649 0 019.138-4.049l-2.544 6.593zm3.59-9.302a11.522 11.522 0 00-12.893 5.713L13.02 82.508a11.52 11.52 0 00-5.713-12.893l7.314-18.954a11.52 11.52 0 0012.892-5.713L86.71 67.791a11.52 11.52 0 005.712 12.893l-7.314 18.954zm8.359-21.664a8.643 8.643 0 01-4.049-9.137l6.593 2.544-2.544 6.593z" fill="#fff"/><path d="M44.689 88.564a14.379 14.379 0 10-8.238-18.59 14.394 14.394 0 008.238 18.59zm9.317-24.146a11.502 11.502 0 11-14.872 6.59 11.516 11.516 0 0114.872-6.59zm7.786-40.148l2.683 1.036-9.318 24.145a1.438 1.438 0 00.824 1.86l5.366 2.07a1.438 1.438 0 001.859-.824l9.317-24.145 2.683 1.035a1.438 1.438 0 001.88-1.802l-3.602-10.637a1.437 1.437 0 00-2.06-.795l-9.814 5.46a1.437 1.437 0 00.182 2.598zm9.522-4.705l2.063 6.094-1.16-.448a1.438 1.438 0 00-1.859.824L61.041 50.18l-2.683-1.035L67.675 25a1.438 1.438 0 00-.824-1.86l-1.16-.447 5.623-3.128zm-32.442 8.19l2.682 1.035-3.105 8.049a1.438 1.438 0 00.824 1.859l5.365 2.07a1.438 1.438 0 001.86-.823l3.105-8.049 2.683 1.035a1.438 1.438 0 001.88-1.802l-3.602-10.637a1.438 1.438 0 00-2.061-.795l-9.813 5.46a1.438 1.438 0 00.182 2.598zm9.521-4.706l2.064 6.095-1.16-.448a1.438 1.438 0 00-1.86.823l-3.105 8.049-2.683-1.035 3.106-8.049a1.438 1.438 0 00-.824-1.859l-1.16-.448 5.622-3.128z" fill="#fff"/></svg>