<svg width="118" height="117" fill="none" xmlns="http://www.w3.org/2000/svg"><path d="M95.245 53.405h-.003L19.3 30.258a1.36 1.36 0 00-1.697.902l-.001.003-11.11 36.452a1.36 1.36 0 00.902 1.698h.003l51.64 15.74a1.36 1.36 0 00.794-2.604L9.492 67.108l10.316-33.849 73.339 22.352-.992 3.255a1.36 1.36 0 00.902 1.697l.003.001a1.36 1.36 0 001.697-.902l.001-.003 1.389-4.556a1.36 1.36 0 00-.902-1.698zm-6.989-8.735L31.67 12.486a1.366 1.366 0 00-1.035-.13 1.37 1.37 0 00-.823.643L22.608 25.74a1.361 1.361 0 002.37 1.34l6.531-11.556 55.402 31.511a1.361 1.361 0 001.345-2.365zm-5.081-9.78L51.352 8.592a1.366 1.366 0 00-1.86.112l-4.89 5.15a1.366 1.366 0 101.981 1.878v.003l4.012-4.228 30.84 25.485a1.365 1.365 0 001.74-2.102z" fill="#fff"/><path d="M78.106 54.822l-12.055-3.675a1.361 1.361 0 00-.793 2.604l12.055 3.674a1.36 1.36 0 00.793-2.603zM53.874 47.53c-7.382-2.249-15.19 1.911-17.44 9.293-2.24 7.38 1.917 15.183 9.293 17.44 7.382 2.25 15.19-1.911 17.44-9.293 2.25-7.382-1.911-15.19-9.293-17.44zm-7.406 24.302c-6.04-1.84-9.444-8.229-7.603-14.268 1.846-6.035 8.23-9.436 14.268-7.603 6.04 1.84 9.444 8.229 7.603 14.269-1.84 6.04-8.229 9.443-14.268 7.602zm42.562-8.939c-8.05-2.453-17.287-3.19-18.559.984l-11.11 36.452c-1.271 4.173 6.806 8.714 14.856 11.167 8.05 2.453 17.287 3.19 18.56-.983l11.109-36.452c1.272-4.174-6.806-8.714-14.856-11.168zm.715 46.671c-.486.773-5.717 1.602-14.602-1.106-8.885-2.708-12.764-6.313-12.744-7.203l.728-2.388c2.736 2.613 7.843 5 12.942 6.554 5.099 1.554 10.673 2.414 14.397 1.777l-.72 2.366zm1.852-6.075c-.486.773-5.717 1.602-14.602-1.106-8.886-2.708-12.765-6.314-12.744-7.204l.728-2.387c2.736 2.613 7.843 5 12.942 6.553 5.098 1.554 10.672 2.415 14.397 1.777l-.721 2.367zm1.852-6.076c-.487.773-5.718 1.603-14.603-1.105s-12.764-6.314-12.743-7.204l.727-2.388c2.736 2.614 7.843 5 12.942 6.554 5.099 1.554 10.673 2.415 14.398 1.777l-.721 2.366zm1.851-6.075c-.486.773-5.717 1.602-14.602-1.106-8.885-2.708-12.764-6.313-12.744-7.204l.728-2.387c2.736 2.613 7.843 5 12.942 6.554 5.099 1.554 10.672 2.414 14.397 1.777l-.72 2.366zm1.852-6.075c-.486.773-5.717 1.602-14.603-1.106-8.885-2.708-12.764-6.314-12.743-7.204l.728-2.388c2.738 2.606 7.843 5 12.941 6.554 5.1 1.554 10.673 2.415 14.398 1.777l-.721 2.367zm1.852-6.076c-.487.773-5.718 1.603-14.603-1.105s-12.764-6.314-12.744-7.204l.728-2.388c2.738 2.606 7.843 5 12.942 6.554C90.426 76.598 96 77.459 99.725 76.82l-.721 2.366zm-12.751-7.18C77.38 69.301 73.502 65.702 73.5 64.83l.002-.01c.503-.77 5.73-1.593 14.601 1.11 8.81 2.686 12.702 6.252 12.744 7.205-.566.767-5.786 1.556-14.595-1.129z" fill="#fff"/><path d="M34.344 68.04l-11.481-3.498-3.629-7.613 3.009-9.873 7.8-4.038 10.913 3.326a1.361 1.361 0 00.794-2.603l-11.442-3.487a1.362 1.362 0 00-1.023.091l-8.802 4.55a1.706 1.706 0 00-.716.944L16.475 56.64c-.099.325-.073.675.073.981l4.114 8.63c.164.346.466.606.832.718l12.056 3.674a1.36 1.36 0 00.794-2.603zm16.679-8.43l-1.519-.464c-.472-.144-.679-.495-.643-.61.035-.116.402-.293.875-.15l3.797 1.158a1.588 1.588 0 00.926-3.037l-1.52-.463a1.588 1.588 0 00-3.037-.926l-.02.068a3.697 3.697 0 00-4.057 2.416 3.792 3.792 0 002.753 4.582l1.52.463c.472.144.678.496.643.611-.035.115-.403.292-.875.148l-3.797-1.157a1.588 1.588 0 00-.926 3.038l1.519.463a1.588 1.588 0 003.037.925l.021-.068a3.696 3.696 0 004.056-2.416 3.792 3.792 0 00-2.753-4.582z" fill="#fff"/></svg>