<svg width="76" height="76" fill="none" xmlns="http://www.w3.org/2000/svg"><path d="M23.175 61.594A5.772 5.772 0 0019 68.598a5.772 5.772 0 007.004 4.175 5.773 5.773 0 004.175-7.004 5.773 5.773 0 00-7.004-4.175zm2.382 9.414a3.95 3.95 0 01-4.792-2.856 3.95 3.95 0 012.857-4.793 3.95 3.95 0 014.792 2.857 3.95 3.95 0 01-2.857 4.792zm39.261-51.963l-.018-.023-.002-.003-.005-.007a.95.95 0 00-.042-.053c-1.038-1.375-2.782-1.967-5.188-1.76-1.834.16-4.124.796-6.81 1.892a24.022 24.022 0 00-2.14-1.535 8.298 8.298 0 001.298-6.869c-1.125-4.445-5.656-7.146-10.1-6.02-4.155 1.05-6.785 5.078-6.193 9.229a24.007 24.007 0 00-17 9.446C15.4 27.62 13.69 32.907 13.802 38.23a.91.91 0 001.82-.038c-.103-4.916 1.478-9.802 4.453-13.756 3.062-4.07 7.296-6.884 12.245-8.136 1.24-.314 2.501-.52 3.761-.616 1.478 3.89 5.68 6.149 9.81 5.104a8.26 8.26 0 003.492-1.857 22.12 22.12 0 017.28 7.33c-.5.55-1.073 1.15-1.731 1.808-7.63 7.725-22.435 17.984-32.336 22.405-.823.374-1.566.69-2.24.96a21.929 21.929 0 01-1.865-2.78 22.083 22.083 0 01-2.47-6.723.91.91 0 00-1.787.346 24.443 24.443 0 00.794 3.034c-2.197 2.373-3.64 4.366-4.4 6.08-.881 1.98-.869 3.674.033 5.036l.015.024c.874 1.315 2.857 2.628 7.346 1.492l.204-.053c1.36-.362 2.853-.872 4.465-1.523a24.154 24.154 0 009.465 4.67 24 24 0 0011.466-.075 23.923 23.923 0 0015.616-12.648.91.91 0 00-1.634-.804 22.104 22.104 0 01-14.428 11.687 22.191 22.191 0 01-18.564-3.648 79.006 79.006 0 004.44-2.164.91.91 0 00-.845-1.613 71.994 71.994 0 01-5.684 2.697l-.014.006c-1.734.722-3.321 1.276-4.75 1.655-3.592.954-5.009.152-5.567-.687 0-.002-.002-.003-.003-.005-1.088-1.613.08-4.308 3.563-8.216a23.2 23.2 0 00.87 1.813c-1.394 1.667-2.365 3.15-2.888 4.414l-.006.016-.008.016-.006.019a.933.933 0 00-.02.057l-.01.037a.805.805 0 00-.02.097l-.005.027-.001.013a.887.887 0 00-.004.052l-.001.04c0 .015 0 .03.002.044 0 .017 0 .033.002.05l.005.031c.002.02.005.04.009.058l.005.022c.005.022.01.043.017.065l.005.016a.899.899 0 00.025.066l.007.016c.01.021.019.042.03.062l.012.021.031.053.02.026c.01.015.02.03.031.043l.025.029.033.037.027.026.038.034.027.021c.015.012.03.024.045.034l.024.015a.795.795 0 00.055.033l.02.01.063.03.007.003.009.003a.907.907 0 00.228.059c.403.048 1.263.05 2.84-.349 1.396-.353 3.353-1.02 6.05-2.248 10.065-4.494 25.123-14.928 32.878-22.78 4.506-4.498 5.415-6.717 5.597-7.463a.885.885 0 00.015-.08l.002-.006a.926.926 0 00.008-.15v-.015a.866.866 0 00-.006-.07l-.002-.022a.925.925 0 00-.012-.065l-.006-.026a.808.808 0 00-.016-.055l-.01-.031-.02-.049-.014-.034-.023-.044-.018-.033a.834.834 0 00-.03-.045.915.915 0 00-.056-.075l-.016-.02a.893.893 0 00-.047-.048l-.013-.013a.906.906 0 00-.053-.045l-.014-.012a.946.946 0 00-.053-.037l-.02-.014a.768.768 0 00-.05-.027l-.03-.016-.042-.02-.043-.017-.036-.012a.896.896 0 00-.053-.015l-.01-.004-.026-.005-.052-.01a.797.797 0 00-.046-.005l-.042-.004a.9.9 0 00-.056 0l-.023-.001h-.02l-.013.001c-1.372.049-3.103.438-5.152 1.157a23.94 23.94 0 00-1.426-1.484c4.747-1.819 7.855-1.948 9.024-.358 1.2 1.816-.428 4.993-4.98 9.715-5.943 6.224-16.929 14.489-26.716 20.099a.91.91 0 00.905 1.58c9.59-5.498 20.333-13.527 26.5-19.777a22.102 22.102 0 01-.043 12.264.91.91 0 001.748.513 23.927 23.927 0 00-.263-14.285c2.123-2.295 3.542-4.234 4.321-5.906.965-2.071.974-3.833.027-5.239zM37.554 14.32a6.501 6.501 0 014.703-7.889 6.501 6.501 0 017.889 4.703 6.501 6.501 0 01-4.703 7.888 6.502 6.502 0 01-7.889-4.702zM16.125 52.78c.39-.637.883-1.33 1.478-2.073.305.474.627.938.967 1.392-1.048.357-1.85.563-2.445.682zm43.281-30.007c-.32.516-.794 1.194-1.497 2.052a23.807 23.807 0 00-.965-1.395 20.313 20.313 0 012.462-.657z" fill="#fff"/></svg>