<svg width="147" height="147" fill="none" xmlns="http://www.w3.org/2000/svg"><path d="M76.797 69.685a2.81 2.81 0 10-4.044 3.902 2.81 2.81 0 004.044-3.902zm36.381-35.137c-5.395-5.586-14.282-5.74-19.868-.346-5.57 5.38-5.726 14.292-.345 19.867 5.382 5.57 14.294 5.727 19.867.346 5.585-5.394 5.74-14.282.346-19.867zm-4.25 15.824c-3.343 3.228-8.691 3.135-11.92-.207-3.229-3.345-3.136-8.693.207-11.92a8.426 8.426 0 0111.92.207 8.427 8.427 0 01-.207 11.92z" fill="#fff"/><path d="M145.517 3.313a2.8 2.8 0 00-2.073-.857c-.636.012-15.772.356-33.862 6.398-14.496 4.836-26.632 11.91-36.07 21.026a106.926 106.926 0 00-6.152 6.468c-9.078-5.559-16.458-3.994-21.148-1.588-10.8 5.54-17.692 20.971-17.886 32.092a2.812 2.812 0 004.763 2.07c5.74-5.544 12.694-5.07 14.962-4.732l.967 1.001C47 69.765 45.36 74.32 44.14 78.756c-.441 1.606-.332 3.315.255 4.886-2.727 1.2-5.368 2.985-7.68 5.218-7.358 7.106-9.134 24.706-9.206 25.452a2.811 2.811 0 002.97 3.074c.747-.045 18.399-1.207 25.757-8.313 2.31-2.232 4.186-4.81 5.48-7.493 1.641.679 3.34.789 4.877.423 4.474-1.066 9.083-2.545 13.725-4.402l.967 1.001c.259 2.279.49 9.245-5.25 14.789a2.81 2.81 0 001.903 4.83c11.12.194 26.782-6.158 32.695-16.757 2.567-4.603 4.388-11.924-.851-21.191a107.192 107.192 0 006.678-5.923c9.439-9.115 16.931-20.998 22.269-35.315 6.668-17.87 7.539-32.985 7.573-33.62a2.813 2.813 0 00-.785-2.102zM34.713 60.918c1.892-8.416 7.123-17.596 14.065-21.158 4.639-2.38 9.658-2.05 14.949.966a113.623 113.623 0 00-12.14 19.037c-.04-.027-.535-.671-1.471-.9-.385-.094-7.791-1.822-15.403 2.055zm17.619 44.112c-3.93 3.796-13.029 5.676-18.77 6.408.931-5.714 3.127-14.74 7.057-18.536 2.2-2.126 4.738-3.722 7.275-4.602l9.29 9.62c-.967 2.505-2.651 4.984-4.852 7.11zm12.96-8.494c-.816.194-1.753-.128-2.44-.84a59488.302 59488.302 0 00-12.537-12.98c-.689-.715-.978-1.661-.756-2.47.96-3.489 2.2-7.064 3.694-10.669l22.83 23.638c-3.656 1.368-7.272 2.483-10.79 3.32zm40.433 2.19c-3.801 6.813-13.157 11.722-21.634 13.32 2.782-5.021 3.488-11.462 2.572-15.39-.213-.913-.798-1.38-.83-1.435a113.641 113.641 0 0019.447-11.47c2.831 5.394 2.984 10.422.445 14.975zm6.831-28.418a101.834 101.834 0 01-8.229 7.127A107.953 107.953 0 0181.688 90.93L55.732 64.055A107.943 107.943 0 0170.006 41.9a101.99 101.99 0 017.411-7.977c8.468-8.179 19.326-14.616 32.28-19.16l23.132 23.951c-4.992 12.788-11.803 23.415-20.273 31.594zm22.398-37.484l-19.296-19.98c10.757-3.137 20.086-4.22 24.74-4.586-.529 4.64-1.935 13.926-5.444 24.566z" fill="#fff"/><path d="M68.019 117.225a2.81 2.81 0 00-3.974-.069l-8.084 7.81a2.81 2.81 0 003.905 4.042l8.084-7.81a2.81 2.81 0 00.069-3.973zM28.978 76.8a2.81 2.81 0 00-3.974-.07l-8.086 7.808a2.81 2.81 0 103.903 4.043l8.087-7.807a2.81 2.81 0 00.07-3.974zm19.106 44.055a2.81 2.81 0 00-3.973-.07l-19.364 18.698a2.81 2.81 0 103.904 4.043l19.363-18.698a2.81 2.81 0 00.07-3.973zm-22.477-.392a2.81 2.81 0 00-3.973-.069L2.27 139.092a2.81 2.81 0 103.904 4.042l19.363-18.697a2.81 2.81 0 00.07-3.974zm-.951-23.866a2.81 2.81 0 00-3.974-.07L1.322 115.23a2.81 2.81 0 103.904 4.042l19.36-18.701a2.81 2.81 0 00.07-3.973zm64.266-38.626a2.81 2.81 0 00-3.973-.069l-4.042 3.904a2.81 2.81 0 003.904 4.043l4.042-3.904a2.81 2.81 0 00.07-3.974z" fill="#fff"/></svg>