<svg width="125" height="125" fill="none" xmlns="http://www.w3.org/2000/svg"><path d="M69.902 100.386l2.548-2.512a1.817 1.817 0 10-2.551-2.588l-1.195 1.178a19.356 19.356 0 01-4.398-12.479 19.375 19.375 0 015.81-13.75c7.222-7.12 18.637-7.447 26.245-1.038L76.123 89.149a1.817 1.817 0 002.552 2.588l1.415-1.396 12.556 5.127c1.448.59 2.951-.889 2.38-2.346l-4.948-12.627 10.188-10.044a1.835 1.835 0 00.018-2.57c-8.956-9.085-23.634-9.19-32.72-.233a22.986 22.986 0 00-6.892 16.312 22.986 22.986 0 006.66 16.408 1.818 1.818 0 002.57.018zm20.193-9.885l-7.19-2.936 1.07-1.054 3.288-3.24 2.832 7.23zm22.037 22.354a22.986 22.986 0 006.893-16.312 1.817 1.817 0 00-3.634-.025 19.373 19.373 0 01-5.811 13.749 19.37 19.37 0 01-13.83 5.614 1.817 1.817 0 00-.026 3.634 22.984 22.984 0 0016.408-6.66z" fill="#fff"/><path d="M106.689 107.335a15.29 15.29 0 004.584-10.846 1.818 1.818 0 00-3.635-.026 11.673 11.673 0 01-3.5 8.284 11.676 11.676 0 01-8.333 3.382 1.817 1.817 0 00-.026 3.634 15.283 15.283 0 0010.91-4.428zm-5.442-5.521a7.582 7.582 0 002.273-5.38 1.817 1.817 0 00-3.634-.027 3.974 3.974 0 01-1.191 2.819 3.969 3.969 0 01-2.835 1.15 1.818 1.818 0 00-.026 3.635 7.586 7.586 0 005.413-2.197zm-78.962 21.019L55.41 90.176a1.835 1.835 0 00.019-2.57l-8.25-8.367 9.316-9.185 2.807 2.847a1.835 1.835 0 002.57.018l11.041-10.886a1.817 1.817 0 00.019-2.57l-2.807-2.846 9.317-9.185L87.69 55.8a1.817 1.817 0 002.57.018l33.125-32.657a1.837 1.837 0 00.018-2.57l-19.05-19.323a1.817 1.817 0 00-2.57-.018L68.659 33.907a1.836 1.836 0 00-.019 2.57l8.25 8.367-9.316 9.185-2.807-2.847a1.835 1.835 0 00-2.57-.018l-1.466 1.446-2.806-2.847a1.835 1.835 0 00-2.57-.018l-5.521 5.443a1.836 1.836 0 00-.018 2.57l2.806 2.846-1.466 1.446a1.835 1.835 0 00-.019 2.57l2.807 2.846-9.317 9.185-8.249-8.368a1.817 1.817 0 00-2.57-.018L.683 100.922a1.836 1.836 0 00-.018 2.57l19.05 19.323a1.817 1.817 0 002.57.018zm77.76-81.764l-6.974-7.074 8.454-8.334 6.973 7.073-8.453 8.335zm19.495-19.22l-8.453 8.334-6.974-7.074 8.454-8.334 6.973 7.074zm-24.956-8.397l8.458-8.338 6.973 7.073-8.454 8.335-6.888-6.988c-.029-.029-.06-.055-.09-.082zM83.542 24.338l8.462-8.343c.027.03.052.061.08.09l6.89 6.988-8.454 8.334-6.888-6.988-.09-.081zM72.504 35.219l8.459-8.338c.026.03.051.061.08.09l6.889 6.988-8.454 8.334-6.974-7.074zm17.98 1.328l6.973 7.073-8.454 8.334-6.974-7.073 8.454-8.334zM53.68 56.5l2.932-2.892 1.531 1.553-2.933 2.892-1.53-1.553zM55 63.362l8.454-8.334 5.613 5.693-8.454 8.335L55 63.362zm-22.93 44.722l-6.973-7.074 8.453-8.334 6.974 7.074-8.454 8.334zm19.496-19.22l-8.454 8.334-6.973-7.074 8.453-8.334 6.974 7.074zm-24.957-8.397l8.458-8.338 6.974 7.073-8.454 8.335-6.888-6.988c-.03-.029-.06-.055-.09-.082zM15.566 91.353l8.463-8.343c.026.03.052.061.08.09L31 90.088l-8.454 8.334-6.889-6.987c-.029-.03-.06-.055-.09-.082zM4.53 102.235l8.458-8.339c.027.03.052.062.08.09l6.89 6.988-8.454 8.334-6.974-7.073zm9.525 9.661l8.454-8.334 6.973 7.073-8.453 8.335-6.974-7.074z" fill="#fff"/></svg>