<svg width="84" height="84" fill="none" xmlns="http://www.w3.org/2000/svg"><path d="M9.139 6.826a20.205 20.205 0 00-3.696 24.8 5.47 5.47 0 00-.203 1.3l-.001.054a5.389 5.389 0 001.533 3.915 5.451 5.451 0 005.077 1.508 20.097 20.097 0 004.659 2.26l28.191 40.615A1.927 1.927 0 0048 79.3L28.397 40.93c.987-.28 1.95-.635 2.882-1.062L66.86 71.641a1.919 1.919 0 002.6-.029l.03-.028a1.92 1.92 0 00.208-2.591L40.496 31.344c.529-.951.98-1.945 1.347-2.97L78.782 50.56a1.928 1.928 0 002.198-3.158L42.387 16.49a20.044 20.044 0 00-2.068-5.038c.058-.29.092-.584.103-.88a5.411 5.411 0 00-6.058-5.576A20.16 20.16 0 009.14 6.826zm36.476 72.237l-26.134-37.65c2.28.39 4.612.385 6.891-.016l19.243 37.666zm22.045-9.41L30.327 36.317a7.449 7.449 0 016.654-6.216L67.66 69.653zm11.048-21.489l-36.265-21.78a20.213 20.213 0 00.485-6.878l35.78 28.658zm-39.57-18.57l-.892-1.15a1.009 1.009 0 00-.829-.39 9.52 9.52 0 00-9.146 8.41l-.015.131a1.009 1.009 0 00.33.869l1.033.923a18.114 18.114 0 01-15.589-1.012c.118-.093.233-.19.344-.293l24.338-22.725c.198-.185.382-.385.55-.599a18.045 18.045 0 01-.123 15.836zm-1.59-21.487a3.433 3.433 0 01-.21 4.777L12.997 35.609a3.383 3.383 0 01-4.74-.116 3.315 3.315 0 01-.924-2.46l.002-.035a3.351 3.351 0 011.042-2.38L32.695 7.893a3.39 3.39 0 014.852.214zm-5.555-2.236a5.518 5.518 0 00-.692.547L6.962 29.144a5.476 5.476 0 00-.364.372A18.133 18.133 0 0131.991 5.871z" fill="#fff"/><path d="M6.228 19.755a17.15 17.15 0 00-.104 1.895 1.008 1.008 0 002.015 0c0-.559.031-1.117.093-1.672a1.008 1.008 0 10-2.003-.222v-.001zm.786-3.565a1.008 1.008 0 101.91.641 14.55 14.55 0 013.835-6 1.008 1.008 0 00-1.376-1.474c-2 1.88-3.501 4.229-4.37 6.833zm58.939 11.843a1.009 1.009 0 00.157 1.417l4.85 3.883a1.009 1.009 0 101.26-1.573l-4.85-3.884a1.008 1.008 0 00-1.417.157zm-7.648-6.125a1.007 1.007 0 00.157 1.417l3.875 3.103a1.008 1.008 0 101.26-1.573l-3.876-3.104a1.008 1.008 0 00-1.416.157zM20.972 19.5a2.713 2.713 0 103.706 3.964 2.713 2.713 0 00-3.706-3.964zm2.364 1.507a.699.699 0 11-1.022.953.699.699 0 011.022-.953zm-7.434 3.228a2.713 2.713 0 103.705 3.965 2.713 2.713 0 00-3.705-3.965zm2.364 1.506a.7.7 0 11-1.024.955.7.7 0 011.024-.955zm7.777-10.976a2.713 2.713 0 103.706 3.965 2.713 2.713 0 00-3.706-3.965zm2.364 1.508a.7.7 0 11-1.024.954.7.7 0 011.024-.954zm2.576-2.405a2.716 2.716 0 103.97-3.707 2.716 2.716 0 00-3.97 3.707zm2.496-2.33a.699.699 0 11-1.02.954.699.699 0 011.019-.954zM10.831 28.97a2.714 2.714 0 103.704 3.968 2.714 2.714 0 00-3.704-3.968zm2.364 1.506a.7.7 0 11-1.023.953.7.7 0 011.023-.952z" fill="#fff"/></svg>