<svg width="105" height="85" fill="none" xmlns="http://www.w3.org/2000/svg"><path d="M85.636 59.447l-.568.425a1.301 1.301 0 101.558 2.084l.568-.426a1.3 1.3 0 10-1.558-2.083zM77.01 6.85c.3 0 .589-.104.82-.292l5.233-4.25a1.3 1.3 0 00-1.64-2.02l-5.233 4.25a1.301 1.301 0 00.82 2.311zm-8.032 3.545l-9.515 7.727a1.301 1.301 0 001.64 2.02l9.515-7.727a1.3 1.3 0 00-.198-2.157 1.3 1.3 0 00-1.442.137zM45.15 32.724c.298 0 .587-.102.819-.291l6.884-5.591a1.3 1.3 0 10-1.64-2.02l-6.884 5.591a1.3 1.3 0 00.82 2.31zm55.804-8.905l-4.74 3.99a1.3 1.3 0 001.675 1.99l4.741-3.99a1.303 1.303 0 00.158-1.833 1.3 1.3 0 00-1.833-.158h-.001zM87.857 34.84L71.733 48.406a1.302 1.302 0 101.676 1.99L89.533 36.83a1.301 1.301 0 00-1.676-1.99zM66.34 54.645a1.3 1.3 0 00-1.832-.158l-2.659 2.237a1.301 1.301 0 001.675 1.991l2.66-2.237a1.3 1.3 0 00.157-1.833zm36.066-50.12l-19.46 15.264a1.301 1.301 0 101.606 2.047l19.46-15.264a1.302 1.302 0 10-1.606-2.047zM72.571 30.882c.291 0 .574-.097.802-.277l3.034-2.38a1.303 1.303 0 00-.164-2.157 1.302 1.302 0 00-1.442.11l-3.032 2.38a1.3 1.3 0 00.802 2.324zM44.128 52.035a1.3 1.3 0 001.828.213l19.147-15.156a1.3 1.3 0 10-1.614-2.04L44.34 50.206a1.302 1.302 0 00-.213 1.828zM2.63 35.983a2.63 2.63 0 100 5.26 2.63 2.63 0 000-5.26zm11.966-5.553a1.567 1.567 0 100-3.134 1.567 1.567 0 000 3.134zm53.197 49.159a2.364 2.364 0 100 4.727 2.364 2.364 0 000-4.727zM64.296 4.102a2.04 2.04 0 100-4.08 2.04 2.04 0 000 4.08zm-3.536 58.97l-2.673-1.747-.076-3.191a1.3 1.3 0 00-2.116-.983l-2.487 2.001-3.057-.914a1.301 1.301 0 00-1.588 1.71l1.135 2.983-1.815 2.626a1.3 1.3 0 001.135 2.038l3.187-.157 1.937 2.537a1.302 1.302 0 002.29-.45l.835-3.08 3.012-1.058a1.3 1.3 0 00.28-2.317v.002zm-4.8 1.146a1.3 1.3 0 00-.824.887l-.325 1.197-.753-.986a1.3 1.3 0 00-1.034-.511l-.065.001-1.238.062.705-1.02a1.3 1.3 0 00.145-1.202l-.44-1.158 1.187.355a1.302 1.302 0 001.189-.234l.965-.777.03 1.24a1.301 1.301 0 00.588 1.058l1.038.678-1.168.41zM32.004 40.054l3.187-.157 1.937 2.536a1.3 1.3 0 002.29-.448l.837-3.08 3.011-1.059a1.3 1.3 0 00.28-2.316l-2.67-1.746-.077-3.191a1.3 1.3 0 00-2.116-.983l-2.487 2.002-3.057-.914a1.3 1.3 0 00-1.589 1.709l1.135 2.983-1.815 2.626a1.3 1.3 0 001.135 2.038h-.001zm3.354-4.95l-.44-1.16 1.188.355a1.3 1.3 0 001.188-.232l.966-.778.03 1.24a1.3 1.3 0 00.589 1.058l1.037.678-1.17.412a1.3 1.3 0 00-.825.887l-.325 1.197-.752-.986a1.3 1.3 0 00-1.1-.51l-1.237.062.704-1.02a1.3 1.3 0 00.148-1.203zm9.932 27.064l-9.382-4.511-1.602-10.287a1.302 1.302 0 00-2.227-.698L24.89 54.2l-10.277-1.655a1.3 1.3 0 00-1.352 1.902l4.938 9.164-4.75 9.264a1.301 1.301 0 001.39 1.874l10.242-1.865 7.343 7.38a1.3 1.3 0 002.212-.743l1.391-10.318 9.288-4.702a1.301 1.301 0 00-.024-2.333zm-11.05 5.024a1.301 1.301 0 00-.701.987l-1.13 8.382-5.966-5.996a1.302 1.302 0 00-1.156-.362l-8.322 1.515 3.86-7.526a1.3 1.3 0 00-.012-1.211L16.8 55.534l8.35 1.344a1.3 1.3 0 001.149-.386l5.841-6.117 1.301 8.358a1.3 1.3 0 00.722.972l7.623 3.664-7.545 3.823z" fill="#fff"/></svg>