<svg width="103" height="100" fill="none" xmlns="http://www.w3.org/2000/svg"><path d="M61.716 62.963c-3.07 2.407-3.616 6.855-1.218 9.914 2.398 3.06 6.849 3.592 9.919 1.185 3.071-2.407 3.617-6.856 1.218-9.916-2.398-3.059-6.848-3.59-9.919-1.183zm7.66-18.209c-6.466-.782-12.856 1.005-17.991 5.03-5.115 4.01-8.373 9.766-9.175 16.207a4.749 4.749 0 004.14 5.294 4.741 4.741 0 003.522-.984c1-.785 1.637-1.91 1.794-3.17a14.775 14.775 0 015.584-9.865 14.77 14.77 0 0110.95-3.063 4.749 4.749 0 003.52-.984 4.746 4.746 0 001.795-3.17 4.745 4.745 0 00-4.14-5.295zm3.816-31.075c-14.768-1.77-29.36 2.32-41.086 11.511-11.71 9.18-19.163 22.354-20.983 37.097a4.746 4.746 0 004.145 5.29 4.747 4.747 0 003.513-.985 4.742 4.742 0 001.796-3.174c1.51-12.22 7.685-23.14 17.392-30.749 9.72-7.62 21.815-11.01 34.057-9.54a4.75 4.75 0 003.516-.985 4.746 4.746 0 001.794-3.173 4.746 4.746 0 00-4.144-5.292z" fill="#fff"/><path d="M71.234 29.608c-10.514-1.261-20.9 1.648-29.245 8.19-8.33 6.53-13.631 15.902-14.928 26.388a4.715 4.715 0 00.97 3.508 4.715 4.715 0 003.172 1.784 4.746 4.746 0 003.516-.984 4.757 4.757 0 001.796-3.173c.986-7.965 5.012-15.084 11.338-20.043 6.338-4.969 14.227-7.177 22.212-6.22a4.746 4.746 0 003.518-.983 4.745 4.745 0 001.794-3.174 4.714 4.714 0 00-.971-3.507 4.715 4.715 0 00-3.172-1.786z" fill="#fff"/></svg>