<svg width="46" height="46" viewBox="0 0 46 46" fill="none" xmlns="http://www.w3.org/2000/svg">
<g id="pause 1">
<g id="Layer 33">
<path id="Vector" d="M20.125 7.1875V38.8125C20.125 39.9562 19.6706 41.0531 18.8619 41.8619C18.0531 42.6707 16.9562 43.125 15.8125 43.125H11.5C10.3563 43.125 9.25935 42.6707 8.4506 41.8619C7.64185 41.0531 7.1875 39.9562 7.1875 38.8125V7.1875C7.1875 6.04375 7.64185 4.94685 8.4506 4.1381C9.25935 3.32935 10.3563 2.875 11.5 2.875H15.8125C16.9562 2.875 18.0531 3.32935 18.8619 4.1381C19.6706 4.94685 20.125 6.04375 20.125 7.1875ZM34.5 2.875H30.1875C29.0438 2.875 27.9469 3.32935 27.1381 4.1381C26.3294 4.94685 25.875 6.04375 25.875 7.1875V38.8125C25.875 39.9562 26.3294 41.0531 27.1381 41.8619C27.9469 42.6707 29.0438 43.125 30.1875 43.125H34.5C35.6437 43.125 36.7406 42.6707 37.5494 41.8619C38.3581 41.0531 38.8125 39.9562 38.8125 38.8125V7.1875C38.8125 6.04375 38.3581 4.94685 37.5494 4.1381C36.7406 3.32935 35.6437 2.875 34.5 2.875Z" fill="white"/>
</g>
</g>
</svg>
