<svg width="80" height="80" viewBox="0 0 80 80" fill="none" xmlns="http://www.w3.org/2000/svg">
<g id="play 1">
<g id="Play">
<path id="Vector" d="M59.3154 36.1681L32.0107 20.7633C31.119 20.2537 30.1082 19.9894 29.0812 19.9972C28.0542 20.0051 27.0476 20.2848 26.1638 20.808C25.3027 21.3004 24.5873 22.012 24.0903 22.8705C23.5933 23.7289 23.3324 24.7036 23.334 25.6955V56.5052C23.3324 57.4971 23.5933 58.4718 24.0903 59.3303C24.5873 60.1887 25.3027 60.9003 26.1638 61.3927C27.0477 61.9157 28.0542 62.1952 29.0812 62.2031C30.1082 62.2109 31.1189 61.9468 32.0107 61.4374L59.3154 46.0326C60.1961 45.5448 60.93 44.8301 61.4411 43.9627C61.9521 43.0954 62.2217 42.1071 62.2217 41.1004C62.2217 40.0937 61.9521 39.1053 61.4411 38.238C60.93 37.3706 60.1961 36.656 59.3154 36.1681Z" fill="white"/>
</g>
</g>
</svg>
