<svg width="20" height="20" fill="none" xmlns="http://www.w3.org/2000/svg"><path d="M9.693.22a9.54 9.54 0 00-1.219.112h-.03c-3.997.652-7.23 3.795-8.04 7.78-.247 1.133-.232 2.19-.075 3.233v.023c.24 1.755 2.531 2.531 3.818 1.237.922-.93 2.287-.93 3.21 0 .922.923.922 2.288 0 3.21-1.29 1.283-.525 3.57 1.237 3.818 0 0 .015-.008.023 0a8.766 8.766 0 003.21-.075h.022c3.99-.75 7.125-4.058 7.781-8.04v-.03C20.478 5.75 16.285.748 10.84.238c-.39-.045-.78-.06-1.177-.053l.03.034zm.022 1.5a7.468 7.468 0 011.005.022c4.643.42 8.175 4.657 7.448 9.562-.555 3.353-3.248 6.18-6.593 6.795h-.03a7.542 7.542 0 01-2.745.068c-.622-.083-.9-.765-.405-1.268a3.789 3.789 0 000-5.344 3.78 3.78 0 00-5.347 0c-.503.495-1.193.21-1.268-.405a7.38 7.38 0 01.068-2.745C2.53 5.038 5.283 2.338 8.643 1.79c.345-.06.69-.082 1.031-.093l.041.022zM8.497 3.241c-.833 0-1.5.667-1.5 1.5a1.5 1.5 0 101.5-1.5zm5.25 1.5c-.833 0-1.5.667-1.5 1.5a1.5 1.5 0 101.5-1.5zm-9 1.5c-.833 0-1.5.667-1.5 1.5a1.5 1.5 0 101.5-1.5zm10.5 3.75c-.833 0-1.5.667-1.5 1.5a1.5 1.5 0 101.5-1.5zm-3 3.75c-.833 0-1.5.667-1.5 1.5a1.5 1.5 0 101.5-1.5z" fill="#161613"/></svg>