<svg width="20" height="20" fill="none" xmlns="http://www.w3.org/2000/svg"><path d="M14.408 3.449l-.058 3.158c-.008.433.267 1.009.617 1.267l2.066 1.567c1.325 1 1.109 2.224-.475 2.724l-2.691.842c-.45.142-.925.633-1.042 1.092l-.642 2.45c-.508 1.933-1.775 2.125-2.825.425l-1.466-2.375c-.267-.434-.9-.758-1.4-.733l-2.784.141c-1.991.1-2.558-1.05-1.258-2.566L4.1 9.524c.308-.358.45-1.025.308-1.475l-.841-2.692c-.492-1.583.391-2.458 1.966-1.941l2.459.808c.416.133 1.041.042 1.391-.217l2.567-1.85c1.383-1 2.492-.416 2.458 1.292zm3.85 14.885l-2.525-2.525" stroke="#00091D" stroke-width="1.5" stroke-linecap="round" stroke-linejoin="round"/></svg>