<svg width="20" height="20" fill="none" xmlns="http://www.w3.org/2000/svg"><path d="M15.392 14.026l.325 2.634c.083.691-.659 1.175-1.25.816l-3.492-2.075c-.383 0-.758-.025-1.125-.075a4.05 4.05 0 00.983-2.633c0-2.367-2.05-4.283-4.583-4.283-.967 0-1.858.275-2.6.758a5.282 5.282 0 01-.033-.633c0-3.792 3.291-6.867 7.358-6.867s7.358 3.075 7.358 6.867c0 2.25-1.158 4.241-2.941 5.491z" stroke="#00091D" stroke-width="1.5" stroke-linecap="round" stroke-linejoin="round"/><path d="M10.833 12.694a4.05 4.05 0 01-.983 2.633c-.825 1-2.133 1.641-3.6 1.641L4.075 18.26c-.367.225-.834-.083-.784-.508L3.5 16.11c-1.117-.775-1.833-2.016-1.833-3.416 0-1.467.783-2.759 1.983-3.526a4.736 4.736 0 012.6-.758c2.533 0 4.583 1.917 4.583 4.284z" stroke="#00091D" stroke-width="1.5" stroke-linecap="round" stroke-linejoin="round"/></svg>