<svg width="13" height="14" fill="none" xmlns="http://www.w3.org/2000/svg"><g filter="url(#filter0_di)" fill-rule="evenodd" clip-rule="evenodd"><path d="M12-.001H1a1 1 0 00-1 1v7a1 1 0 001 1h5.25l3.75 3.75v-3.75h2a1 1 0 001-1v-7a1 1 0 00-1-1z" fill="#B3B3B3"/><path d="M12-.001H1a1 1 0 00-1 1v7a1 1 0 001 1h5.25l3.75 3.75v-3.75h2a1 1 0 001-1v-7a1 1 0 00-1-1z" fill="#73B4D5"/></g><defs><filter id="filter0_di" x="0" y="-.001" width="13" height="13.75" filterUnits="userSpaceOnUse" color-interpolation-filters="sRGB"><feFlood flood-opacity="0" result="BackgroundImageFix"/><feColorMatrix in="SourceAlpha" values="0 0 0 0 0 0 0 0 0 0 0 0 0 0 0 0 0 0 127 0"/><feOffset dy="1"/><feColorMatrix values="0 0 0 0 1 0 0 0 0 1 0 0 0 0 1 0 0 0 0.9 0"/><feBlend in2="BackgroundImageFix" result="effect1_dropShadow"/><feBlend in="SourceGraphic" in2="effect1_dropShadow" result="shape"/><feColorMatrix in="SourceAlpha" values="0 0 0 0 0 0 0 0 0 0 0 0 0 0 0 0 0 0 127 0" result="hardAlpha"/><feOffset dy="-1"/><feComposite in2="hardAlpha" operator="arithmetic" k2="-1" k3="1"/><feColorMatrix values="0 0 0 0 0 0 0 0 0 0 0 0 0 0 0 0 0 0 0.3 0"/><feBlend in2="shape" result="effect2_innerShadow"/></filter></defs></svg>