<svg width="12" height="12" fill="none" xmlns="http://www.w3.org/2000/svg"><g filter="url(#filter0_di)" fill-rule="evenodd" clip-rule="evenodd"><path d="M5.994 10.714l.036.032v-.065c.674-.628 5.98-5.63 5.959-7.698C11.965.776 10.562-.023 8.965 0 7.453.023 6.13 1.33 5.995 1.468 5.856 1.328 4.534.023 3.023 0 1.427-.023.024.776 0 2.983c-.022 2.067 5.285 7.07 5.96 7.698v.065l.034-.032z" fill="#333"/><path d="M5.994 10.714l.036.032v-.065c.674-.628 5.98-5.63 5.959-7.698C11.965.776 10.562-.023 8.965 0 7.453.023 6.13 1.33 5.995 1.468 5.856 1.328 4.534.023 3.023 0 1.427-.023.024.776 0 2.983c-.022 2.067 5.285 7.07 5.96 7.698v.065l.034-.032z" fill="#73B4D5"/></g><defs><filter id="filter0_di" x="0" y="0" width="11.989" height="11.746" filterUnits="userSpaceOnUse" color-interpolation-filters="sRGB"><feFlood flood-opacity="0" result="BackgroundImageFix"/><feColorMatrix in="SourceAlpha" values="0 0 0 0 0 0 0 0 0 0 0 0 0 0 0 0 0 0 127 0"/><feOffset dy="1"/><feColorMatrix values="0 0 0 0 1 0 0 0 0 1 0 0 0 0 1 0 0 0 0.9 0"/><feBlend in2="BackgroundImageFix" result="effect1_dropShadow"/><feBlend in="SourceGraphic" in2="effect1_dropShadow" result="shape"/><feColorMatrix in="SourceAlpha" values="0 0 0 0 0 0 0 0 0 0 0 0 0 0 0 0 0 0 127 0" result="hardAlpha"/><feOffset dy="-1"/><feComposite in2="hardAlpha" operator="arithmetic" k2="-1" k3="1"/><feColorMatrix values="0 0 0 0 0 0 0 0 0 0 0 0 0 0 0 0 0 0 0.3 0"/><feBlend in2="shape" result="effect2_innerShadow"/></filter></defs></svg>