<svg width="61" height="33" viewBox="0 0 61 33" fill="none" xmlns="http://www.w3.org/2000/svg">
<path d="M48.7712 10.1245C46.9515 10.1245 45.2351 10.5481 43.7048 11.2784L38.0511 2.28083H44.2712C44.8547 2.28083 45.3302 1.82247 45.3302 1.25813C45.3302 0.693468 44.8547 0.235107 44.2712 0.235107H36.3303C35.7468 0.235107 35.2714 0.693468 35.2714 1.25813C35.2714 1.30112 35.2924 1.33786 35.2962 1.38085C35.2652 1.60363 35.2962 1.83757 35.4286 2.04526L37.3437 5.09597H20.624C20.5836 5.09597 20.5516 5.1209 20.5092 5.12484L18.7265 2.2828H22.301C22.8831 2.2828 23.3599 1.82444 23.3599 1.25978C23.3599 0.695109 22.8834 0.236748 22.301 0.236748H13.3011C12.719 0.236748 12.2422 0.695109 12.2422 1.25978C12.2422 1.82444 12.7187 2.2828 13.3011 2.2828H16.251L19.0295 6.70827L16.34 11.0757C14.9235 10.4683 13.3582 10.1248 11.711 10.1248C5.38598 10.1245 0.239746 15.0953 0.239746 21.2065C0.239746 27.3181 5.38598 32.2886 11.7107 32.2886C17.5847 32.2886 22.4365 27.993 23.0991 22.4851H29.5369C29.7291 22.4851 29.9163 22.4313 30.0725 22.3391C30.0766 22.3372 30.0827 22.3391 30.0878 22.3352C30.2294 22.2512 30.335 22.1373 30.4196 22.0117C30.426 21.9995 30.4413 21.9956 30.4498 21.9838L39.1053 7.9088L41.899 12.3539C39.1135 14.3777 37.2979 17.5885 37.2979 21.2065C37.2979 27.3181 42.4427 32.2886 48.7688 32.2886C55.0949 32.2886 60.2397 27.3181 60.2397 21.2065C60.2401 15.0953 55.0952 10.1245 48.7712 10.1245ZM20.2745 8.68608L27.6561 20.4374H23.1436C22.8964 16.9674 20.9938 13.9315 18.1926 12.0705L20.2745 8.68608ZM20.9857 20.4394H13.0467L17.1021 13.8452C19.2859 15.3407 20.7469 17.7201 20.9857 20.4394ZM11.7131 30.2409C6.55461 30.2409 2.3593 26.1875 2.3593 21.2045C2.3593 16.2216 6.55427 12.1682 11.7131 12.1682C12.9663 12.1682 14.1563 12.416 15.2512 12.8494L10.2724 20.9368C10.0781 21.2521 10.0741 21.6439 10.2643 21.9634C10.4504 22.2834 10.8019 22.4809 11.1856 22.4809H20.933C20.2826 26.8588 16.4209 30.2409 11.7131 30.2409ZM29.5308 19.4745L21.7797 7.13972H37.1158L29.5308 19.4745ZM48.7712 30.2409C43.6134 30.2409 39.4178 26.1875 39.4178 21.2045C39.4178 18.3274 40.8425 15.7902 43.0201 14.1319L47.9564 21.9897C48.1568 22.3073 48.5042 22.4832 48.8622 22.4832C49.0503 22.4832 49.2426 22.4353 49.412 22.3332C49.9106 22.0415 50.0716 21.4122 49.768 20.9286L44.815 13.0433C46.0206 12.4957 47.3526 12.1663 48.7708 12.1663C53.9286 12.1663 58.1246 16.218 58.1246 21.2029C58.1246 26.1878 53.9286 30.2409 48.7712 30.2409Z" fill="white"/>
</svg>
