<svg width="81" height="65" viewBox="0 0 81 65" fill="none" xmlns="http://www.w3.org/2000/svg">
<path d="M2.28568 62.2743V53.8682C2.28568 48.3743 6.27362 44.44 11.8461 44.4245H13.1899V43.4672C13.1899 40.4037 13.1899 37.3402 13.1899 34.2767C13.1899 33.4738 13.6369 32.9889 14.3151 32.9735C14.9933 32.9581 15.4715 33.4367 15.5277 34.2088C15.5277 34.4126 15.5277 34.6195 15.5277 34.8264C15.5277 37.7087 15.5277 40.591 15.5277 43.4734C15.5277 43.7513 15.5277 44.0292 15.5277 44.3658H18.1686V23.1654H15.5714C15.5558 23.397 15.5246 23.641 15.5246 23.888C15.5246 25.3271 15.5246 26.7693 15.5246 28.2115C15.5246 29.3387 15.1589 29.8699 14.3619 29.8884C13.5649 29.9069 13.1743 29.3758 13.1712 28.2609C13.1712 26.8187 13.1712 25.3796 13.1712 23.9374C13.1712 23.6873 13.1462 23.4372 13.1305 23.1252C11.9117 23.0789 10.4741 23.3599 9.89901 22.0753C9.44896 21.0685 9.46771 19.8549 9.27394 18.6535C7.62064 18.0359 7.24561 17.4831 7.24561 15.5654C7.24561 14.151 7.24561 12.7335 7.24561 11.3191C7.24561 9.66072 8.24254 8.70337 9.93334 8.70337H11.5585C11.3491 7.49589 11.1522 6.38723 10.9616 5.27548C10.6491 3.43801 11.8992 1.95875 13.7744 1.92169C14.3994 1.92169 15.0245 1.92169 15.6214 1.92169C15.8089 0.664793 16.159 0.210845 16.8903 0.220109C17.6217 0.229374 17.9967 0.723469 18.0967 1.92169C18.6999 1.92169 19.3124 1.92169 19.925 1.92169C21.8471 1.94639 23.0785 3.36388 22.7879 5.22915C22.6128 6.34399 22.4128 7.45265 22.2003 8.70337C22.8409 8.70337 23.3973 8.70337 23.9567 8.70337C25.4881 8.73116 26.4945 9.71322 26.5101 11.2233C26.5257 12.7335 26.5101 14.3115 26.5101 15.8556C26.5101 17.4708 25.9538 18.1965 24.3036 18.6813C24.3036 19.265 24.3036 19.8734 24.3036 20.4848C24.3036 22.2111 23.3973 23.1067 21.6658 23.1191H20.6219V44.2701C22.0658 44.9804 23.4941 45.5424 24.7661 46.3454C26.2619 47.3223 27.3669 48.7832 27.8915 50.4774C28.104 51.095 28.4103 51.2278 29.0072 51.2124C30.6199 51.1753 32.2357 51.2124 33.8515 51.2124C35.1413 51.1875 36.3937 51.6415 37.3612 52.4847C38.2092 53.2135 39.0426 53.9547 39.8615 54.7082C40.5022 55.295 40.5709 55.9435 40.0896 56.4623C39.6083 56.9811 38.9301 56.9749 38.2926 56.4222C37.5081 55.7428 36.7299 55.051 35.9673 54.3562C35.3677 53.8096 34.5764 53.515 33.7608 53.5347C28.7603 53.5347 23.7598 53.5347 18.7593 53.5347C18.3415 53.52 17.9253 53.5912 17.5369 53.7438C17.1485 53.8964 16.7963 54.127 16.5028 54.421C13.9879 56.9595 11.4752 59.5001 8.96454 62.0427C8.90753 62.1179 8.85825 62.1986 8.81758 62.2835H44.8526C44.4401 61.9068 44.1151 61.6072 43.7838 61.3139C43.4525 61.0205 43.0743 60.6962 42.743 60.3874C42.1742 59.8284 42.143 59.1799 42.6306 58.6796C43.1181 58.1793 43.7306 58.1855 44.3057 58.6796C45.2569 59.4427 46.1656 60.2561 47.0278 61.1162C47.9654 62.0983 48.9843 62.3793 50.3282 62.3731C59.8886 62.3144 69.449 62.3422 79.0093 62.3422C79.2175 62.3299 79.4262 62.3299 79.6344 62.3422C79.9231 62.3611 80.1944 62.4854 80.3955 62.691C80.5966 62.8965 80.7132 63.1686 80.7225 63.4544C80.7319 63.7401 80.6333 64.0191 80.4461 64.2371C80.2589 64.455 79.9963 64.5964 79.7094 64.6337C79.4514 64.6667 79.1908 64.675 78.9312 64.6584H2.4263C2.24503 64.6584 2.06064 64.6584 1.87937 64.6584C1.57779 64.6552 1.28915 64.5369 1.07377 64.3283C0.858391 64.1197 0.732981 63.8369 0.723699 63.539C0.714417 63.2411 0.821962 62.9512 1.02395 62.7299C1.22593 62.5086 1.50669 62.373 1.80749 62.3515C1.93563 62.3052 2.0669 62.3052 2.28568 62.2743ZM4.66408 62.5244C5.17351 62.2156 5.60163 62.0859 5.86103 61.8141C8.75196 58.9236 11.6398 56.0269 14.487 53.0962C15.063 52.465 15.772 51.9662 16.5641 51.6349C17.3562 51.3036 18.2122 51.1477 19.0718 51.1784C21.022 51.2216 22.9753 51.1784 24.9287 51.1784C25.1474 51.1784 25.3662 51.1475 25.6881 51.1259C24.5505 48.7017 22.7941 47.0649 20.1844 46.8827C17.0344 46.6841 13.8749 46.6779 10.7241 46.8642C9.14263 46.9633 7.65297 47.6324 6.53768 48.7447C5.42239 49.857 4.75902 51.335 4.67339 52.8985C4.52025 55.9898 4.64844 59.1058 4.64844 62.5244H4.66408ZM24.1442 11.0628H9.65522V16.254H24.1442V11.0628ZM19.7875 8.66322C20.0157 7.3878 20.2688 6.1309 20.4376 4.86166C20.4118 4.72209 20.3495 4.59163 20.2568 4.48327C20.1642 4.3749 20.0443 4.29242 19.9094 4.24402C17.88 4.20078 15.8506 4.20078 13.8212 4.24402C13.6306 4.24402 13.2649 4.63005 13.2868 4.79373C13.4681 6.08459 13.7213 7.36619 13.9525 8.65088L19.7875 8.66322ZM21.9034 18.6968H11.8648V20.7288H21.9034V18.6968Z" fill="white"/>
<path d="M62.2925 35.6325C62.4003 36.085 62.4776 36.5441 62.5238 37.0068C62.534 37.5021 62.3797 37.987 62.0845 38.3875C61.7893 38.7879 61.3695 39.0818 60.8893 39.2241C59.1734 39.7429 57.4514 40.2339 55.7106 40.6755C54.3604 41.0183 53.2103 40.342 52.779 39.0295L52.5446 38.3254C51.207 38.7022 49.885 38.9925 48.6255 39.4464C45.2345 40.6817 41.7279 40.8639 38.1713 40.8052C36.0085 40.7744 33.8458 40.833 31.6831 40.8423C30.0267 40.8423 28.7859 39.9405 28.5233 38.5385C28.2358 36.9944 29.0359 35.7159 30.6611 35.1415C31.0955 34.9871 31.5331 34.8327 32.055 34.6597C31.4299 33.69 30.8892 32.8068 30.3267 31.9143C29.461 30.5401 28.5827 29.172 27.7264 27.7885C27.0607 26.7138 27.4139 25.8368 28.6046 25.46C28.9765 25.3426 29.3578 25.2562 29.7266 25.1357C31.4987 24.5552 33.0207 24.9134 34.4146 26.1734C36.2898 27.8781 38.2525 29.5024 40.1527 31.1855C40.3175 31.3588 40.5337 31.4758 40.7703 31.5197C41.0068 31.5635 41.2514 31.532 41.4685 31.4295C44.922 30.2096 48.388 29.033 51.8508 27.8441C51.9977 27.7947 52.1446 27.7391 52.2946 27.6928C53.0572 27.4673 53.6479 27.7144 53.8917 28.3567C54.1355 28.9991 53.8354 29.592 53.0791 29.8669C51.1726 30.5463 49.2568 31.204 47.3409 31.8649L31.6518 37.2693C31.6018 37.2878 31.5362 37.2693 31.5049 37.3156C31.283 37.5534 31.0705 37.8004 30.8548 38.0413C31.1361 38.2019 31.4175 38.4953 31.7019 38.4953C34.2552 38.5138 36.8149 38.3316 39.3589 38.4953C43.5093 38.7547 47.2878 37.3156 51.1757 36.3119C51.4421 36.2538 51.6909 36.1346 51.902 35.964C52.1132 35.7935 52.2809 35.5762 52.3915 35.3299C52.7271 34.7635 53.2488 34.3276 53.8698 34.0946C55.4856 33.5325 57.1576 33.1311 58.8078 32.6648C59.2086 32.5468 59.6327 32.5287 60.0423 32.6122C60.4519 32.6958 60.8342 32.8783 61.1549 33.1434C61.2739 33.2196 61.407 33.2714 61.5466 33.2958C61.6862 33.3202 61.8293 33.3167 61.9675 33.2855C66.5284 32.0502 71.0851 30.7892 75.6376 29.5025C76.6815 29.2122 77.0878 28.6625 76.8878 27.8812C76.6909 27.1523 75.5657 26.5594 74.7563 26.7725C73.6749 27.0566 72.5999 27.3561 71.5185 27.6403C70.6059 27.8781 69.9933 27.6403 69.7933 26.9454C69.5745 26.2135 69.9465 25.6947 70.8966 25.4013C71.0591 25.3519 71.2091 25.2747 71.4966 25.1604C69.6457 24.7192 67.7043 24.8266 65.9148 25.4693C63.7083 26.2382 61.4955 26.9948 59.2859 27.7576C59.114 27.8163 58.9453 27.8842 58.7703 27.9275C58.4837 28.0225 58.1709 28.0037 57.8981 27.8753C57.6252 27.7468 57.4135 27.5186 57.3076 27.2388C57.2501 27.1004 57.2216 26.952 57.2236 26.8024C57.2257 26.6529 57.2584 26.5053 57.3197 26.3685C57.381 26.2318 57.4697 26.1087 57.5804 26.0067C57.6911 25.9047 57.8216 25.8259 57.9639 25.775C61.0111 24.7466 64.0427 23.6472 67.1399 22.7887C69.237 22.2112 71.3873 22.5386 73.4187 23.3446C74.6688 23.8418 75.9189 24.3853 77.1347 24.9504C77.8108 25.2377 78.3804 25.7246 78.7654 26.3444C79.1504 26.9642 79.3319 27.6866 79.285 28.4123C79.2587 29.1544 78.9894 29.868 78.5177 30.446C78.0461 31.024 77.3974 31.4352 76.669 31.6179C72.1498 32.9118 67.6056 34.1594 63.0864 35.4256L62.2925 35.6325ZM30.2892 27.4611L34.3521 33.8784L38.1275 32.569C38.0291 32.4517 37.9248 32.3393 37.8149 32.2324C36.0741 30.7254 34.324 29.2307 32.5957 27.7113C31.8987 27.0998 31.1674 27.0535 30.2923 27.4611H30.2892ZM54.4448 36.3026L55.0699 38.4644L60.1861 37.0129C59.9642 36.2563 59.7704 35.6016 59.561 34.8697L54.4448 36.3026Z" fill="white"/>
<path d="M19.6877 61.0702C19.4547 61.0872 19.2207 61.0872 18.9876 61.0702C18.7105 61.0476 18.4525 60.9217 18.2657 60.7182C18.0788 60.5147 17.9772 60.2487 17.9813 59.9739C17.9657 59.837 17.9775 59.6984 18.0162 59.566C18.0549 59.4337 18.1197 59.3102 18.2068 59.2026C18.2939 59.095 18.4016 59.0054 18.5238 58.9391C18.646 58.8727 18.7803 58.8309 18.9189 58.8159C19.4567 58.7248 20.0062 58.7248 20.544 58.8159C20.6815 58.8348 20.8138 58.8804 20.9333 58.95C21.0529 59.0196 21.1573 59.1119 21.2407 59.2215C21.324 59.3311 21.3847 59.4559 21.4191 59.5888C21.4534 59.7216 21.4609 59.8599 21.441 59.9956C21.4368 60.2703 21.3273 60.5332 21.1348 60.7314C20.9423 60.9296 20.681 61.0485 20.4034 61.0641C20.1703 61.0795 19.9364 61.0795 19.7033 61.0641L19.6877 61.0702Z" fill="white"/>
<path d="M28.564 61.0703C28.33 61.0873 28.0949 61.0873 27.8608 61.0703C27.5819 61.037 27.3245 60.9051 27.1364 60.6989C26.9483 60.4926 26.8421 60.2261 26.8376 59.9485C26.833 59.6709 26.9303 59.401 27.1116 59.1888C27.2928 58.9767 27.5456 58.8365 27.8233 58.7943C28.2617 58.7377 28.7052 58.7304 29.1453 58.7727C29.4553 58.7776 29.7506 58.904 29.9663 59.1241C30.182 59.3442 30.3005 59.6399 30.2955 59.9462C30.2905 60.2525 30.1626 60.5443 29.9398 60.7575C29.7171 60.9706 29.4178 61.0876 29.1078 61.0826C28.9266 61.0826 28.7453 61.0826 28.564 61.0826V61.0703Z" fill="white"/>
<path d="M32.9523 61.1198C32.621 61.0704 32.1834 61.1199 31.9865 60.9438C31.6424 60.6381 31.4096 60.229 31.3239 59.7796C31.2708 59.2052 31.7428 58.8531 32.3116 58.779C32.6729 58.7419 33.0368 58.7357 33.3992 58.7605C34.2211 58.7852 34.7587 59.2669 34.7431 59.9494C34.7275 60.6319 34.2117 61.0488 33.4241 61.0766C33.2679 61.0766 33.1116 61.0766 32.9585 61.0766L32.9523 61.1198Z" fill="white"/>
<path d="M24.1635 55.1382C24.3979 55.1382 24.6323 55.1382 24.8636 55.1752C25.1265 55.1966 25.3721 55.3136 25.5528 55.5035C25.7335 55.6935 25.8365 55.943 25.8419 56.2036C25.8663 56.3382 25.8629 56.4763 25.8319 56.6095C25.8009 56.7428 25.7429 56.8684 25.6614 56.979C25.5799 57.0895 25.4766 57.1825 25.3578 57.2526C25.2389 57.3226 25.107 57.3681 24.9699 57.3864C24.4076 57.4728 23.8351 57.4728 23.2728 57.3864C22.6477 57.2876 22.3664 56.8182 22.4102 56.2005C22.4134 55.9395 22.5158 55.6893 22.697 55.4994C22.8782 55.3095 23.125 55.1938 23.3884 55.1752C23.6541 55.1382 23.9166 55.1505 24.1635 55.1382Z" fill="white"/>
<path d="M33.0309 55.135C33.2622 55.135 33.4997 55.135 33.731 55.1721C34.0082 55.1926 34.2665 55.3181 34.4523 55.5224C34.6381 55.7266 34.7368 55.9939 34.728 56.2684C34.7576 56.53 34.6832 56.7928 34.5205 57.0014C34.3579 57.2099 34.1196 57.3479 33.856 57.3863C33.3394 57.47 32.8138 57.4846 32.2933 57.4295C32.0047 57.3946 31.74 57.2536 31.5519 57.0345C31.3638 56.8154 31.2661 56.5344 31.2784 56.2473C31.2906 55.9603 31.4118 55.6883 31.6178 55.4856C31.8239 55.2829 32.0997 55.1644 32.3902 55.1535C32.5965 55.1381 32.8059 55.1535 33.0153 55.1535L33.0309 55.135Z" fill="white"/>
<path d="M14.8935 61.0706C14.6853 61.0815 14.4766 61.0815 14.2684 61.0706C13.9772 61.0673 13.6991 60.9501 13.4953 60.7446C13.2914 60.5391 13.1783 60.2621 13.1808 59.9743C13.168 59.8263 13.1855 59.6773 13.2323 59.5362C13.2791 59.3951 13.3542 59.2647 13.4531 59.1529C13.5519 59.0411 13.6726 58.9501 13.8079 58.8853C13.9431 58.8206 14.0902 58.7834 14.2403 58.7761C14.6809 58.7328 15.1248 58.7328 15.5654 58.7761C15.7159 58.7867 15.8628 58.8264 15.9976 58.8932C16.1325 58.9599 16.2528 59.0523 16.3515 59.1651C16.4502 59.2778 16.5254 59.4087 16.5729 59.5502C16.6203 59.6917 16.639 59.8411 16.628 59.9897C16.6184 60.2769 16.4977 60.5494 16.2906 60.7511C16.0836 60.9528 15.8061 61.0683 15.5154 61.0737C15.3123 61.0891 15.0998 61.0706 14.8935 61.0706Z" fill="white"/>
<path d="M24.1205 61.0704C23.8876 61.092 23.6532 61.092 23.4204 61.0704C23.1436 61.0469 22.8861 60.9202 22.7003 60.716C22.5146 60.5118 22.4145 60.2455 22.4202 59.971C22.4046 59.8342 22.4165 59.6958 22.4553 59.5636C22.494 59.4314 22.5588 59.3081 22.6459 59.2008C22.7331 59.0934 22.8409 59.0042 22.963 58.9381C23.0852 58.8721 23.2194 58.8306 23.3578 58.816C23.8752 58.7316 24.4031 58.7316 24.9205 58.816C25.0648 58.83 25.2048 58.8727 25.332 58.9414C25.4592 59.0101 25.5711 59.1035 25.661 59.216C25.7509 59.3284 25.8168 59.4576 25.855 59.5958C25.8931 59.734 25.9027 59.8784 25.8831 60.0204C25.878 60.295 25.7678 60.5576 25.5747 60.7553C25.3816 60.9529 25.12 61.071 24.8424 61.0858C24.6093 61.1013 24.3754 61.1013 24.1423 61.0858L24.1205 61.0704Z" fill="white"/>
<path d="M37.946 61.0708C37.7366 61.0708 37.5272 61.0708 37.321 61.0708C37.0181 61.0627 36.7307 60.9368 36.5212 60.7206C36.3117 60.5043 36.197 60.2151 36.2021 59.9158C36.1943 59.6279 36.3001 59.3483 36.4973 59.1361C36.6944 58.924 36.9674 58.7961 37.2584 58.7793C37.6467 58.7386 38.038 58.7335 38.4273 58.7639C39.1992 58.8009 39.6774 59.2827 39.6524 59.9714C39.6274 60.66 39.1618 61.0491 38.4023 61.08C38.246 61.08 38.0898 61.08 37.9335 61.08L37.946 61.0708Z" fill="white"/>
<path d="M19.6476 57.4912C19.3888 57.478 19.131 57.4492 18.8757 57.4048C18.6014 57.3598 18.3551 57.2122 18.1881 56.9925C18.021 56.7728 17.946 56.498 17.9787 56.2251C17.9745 55.9493 18.081 55.6831 18.2748 55.4846C18.4686 55.2861 18.7341 55.1715 19.0132 55.1658C19.4294 55.1378 19.8471 55.1378 20.2633 55.1658C20.5659 55.1607 20.8586 55.2723 21.0792 55.4771C21.2998 55.6818 21.4309 55.9634 21.4447 56.2621C21.4505 56.5602 21.3413 56.8492 21.1393 57.0706C20.9373 57.292 20.6577 57.4291 20.3571 57.4542C20.124 57.4696 19.8901 57.4696 19.657 57.4542L19.6476 57.4912Z" fill="white"/>
<path d="M28.6359 55.1382C28.87 55.1385 29.1038 55.153 29.336 55.1814C29.5846 55.2063 29.816 55.3184 29.988 55.4975C30.1601 55.6766 30.2614 55.9107 30.2736 56.1573C30.3361 56.7348 30.1079 57.2443 29.5329 57.3493C28.8992 57.4605 28.2507 57.4605 27.6171 57.3493C27.4876 57.3237 27.3646 57.2727 27.2553 57.1996C27.146 57.1264 27.0526 57.0325 26.9804 56.9232C26.9083 56.814 26.8588 56.6916 26.8351 56.5633C26.8113 56.435 26.8137 56.3032 26.842 56.1758C26.8562 55.9147 26.9673 55.6679 27.1542 55.4828C27.341 55.2976 27.5904 55.187 27.8546 55.1722C28.1138 55.1583 28.3736 55.1583 28.6328 55.1722L28.6359 55.1382Z" fill="white"/>
<path d="M54.6515 32.2484C54.6579 32.4027 54.6324 32.5566 54.5764 32.7008C54.5205 32.8449 54.4353 32.9763 54.3262 33.0867C54.217 33.1972 54.0861 33.2844 53.9416 33.3432C53.7971 33.4019 53.642 33.4308 53.4858 33.4281C53.1834 33.426 52.8933 33.3091 52.6757 33.1016C52.4582 32.8941 52.3297 32.6118 52.3169 32.3133C52.3168 32.0011 52.4403 31.7012 52.6611 31.4779C52.8819 31.2545 53.1824 31.1254 53.4983 31.1182C53.8006 31.1244 54.0888 31.2452 54.3035 31.4556C54.5182 31.6659 54.6428 31.9498 54.6515 32.2484Z" fill="white"/>
<path d="M57.189 29.954C57.3452 29.9502 57.5007 29.9777 57.6459 30.0347C57.791 30.0918 57.9231 30.1772 58.034 30.286C58.1449 30.3947 58.2325 30.5245 58.2914 30.6675C58.3503 30.8105 58.3792 30.9638 58.3767 31.1182C58.3754 31.3463 58.306 31.569 58.1771 31.7583C58.0483 31.9476 57.8658 32.095 57.6524 32.1822C57.4391 32.2693 57.2044 32.2922 56.9779 32.2481C56.7514 32.204 56.5431 32.0947 56.3792 31.934C56.2153 31.7734 56.1032 31.5685 56.0567 31.345C56.0102 31.1216 56.0316 30.8895 56.1181 30.678C56.2046 30.4665 56.3524 30.285 56.5429 30.1562C56.7334 30.0273 56.9582 29.957 57.189 29.954Z" fill="white"/>
<path d="M60.93 28.7771C61.2321 28.7784 61.5221 28.8946 61.7398 29.1016C61.9574 29.3087 62.086 29.5906 62.0988 29.8888C62.0989 30.2002 61.9757 30.4993 61.7555 30.722C61.5354 30.9448 61.2357 31.0736 60.9207 31.0809C60.7647 31.0785 60.6108 31.0454 60.468 30.9833C60.3253 30.9213 60.1965 30.8317 60.0893 30.7197C59.9822 30.6078 59.8987 30.4758 59.844 30.3315C59.7892 30.1872 59.7642 30.0335 59.7705 29.8796C59.7733 29.7319 59.8056 29.5863 59.8654 29.451C59.9252 29.3157 60.0114 29.1933 60.1191 29.091C60.2268 28.9886 60.3538 28.9082 60.493 28.8543C60.6321 28.8005 60.7806 28.7742 60.93 28.7771Z" fill="white"/>
<path d="M50.9294 33.4715C50.9265 33.769 50.8082 34.054 50.5988 34.2677C50.3895 34.4815 50.1051 34.6077 49.8044 34.6203C49.4894 34.6203 49.1873 34.4967 48.9646 34.2766C48.7419 34.0566 48.6167 33.7581 48.6167 33.4468C48.6159 33.2926 48.6473 33.1399 48.709 32.9983C48.7706 32.8566 48.8611 32.729 48.975 32.6235C49.0888 32.518 49.2234 32.4369 49.3704 32.3851C49.5174 32.3333 49.6737 32.3121 49.8294 32.3227C49.9785 32.3251 50.1256 32.3569 50.2621 32.4162C50.3986 32.4756 50.5216 32.5613 50.6241 32.6683C50.7266 32.7753 50.8065 32.9015 50.8589 33.0395C50.9114 33.1774 50.9353 33.3243 50.9294 33.4715Z" fill="white"/>
<path d="M47.234 34.6697C47.2278 34.824 47.1901 34.9755 47.1233 35.1152C47.0566 35.2549 46.9621 35.3799 46.8454 35.4827C46.7288 35.5856 46.5924 35.6642 46.4444 35.714C46.2964 35.7637 46.1398 35.7835 45.9839 35.7722C45.8345 35.7679 45.6874 35.7339 45.5515 35.6723C45.4156 35.6106 45.2938 35.5225 45.1931 35.4133C45.0925 35.304 45.0151 35.1759 44.9657 35.0364C44.9163 34.897 44.896 34.7491 44.9057 34.6017C44.909 34.3038 45.0308 34.0192 45.2448 33.8094C45.4589 33.5996 45.748 33.4815 46.0495 33.4807C46.3656 33.4848 46.6674 33.6119 46.8892 33.8346C47.1109 34.0572 47.2349 34.3573 47.234 34.6697Z" fill="white"/>
<path d="M64.63 29.8801C64.4743 29.8825 64.3197 29.8531 64.1761 29.7936C64.0325 29.7341 63.9029 29.6459 63.7954 29.5345C63.688 29.4231 63.605 29.291 63.5518 29.1463C63.4986 29.0017 63.4762 28.8478 63.4862 28.6942C63.487 28.5409 63.5189 28.3893 63.5803 28.2484C63.6416 28.1076 63.731 27.9803 63.8431 27.8743C63.9553 27.7684 64.0878 27.6857 64.233 27.6314C64.3781 27.5771 64.5328 27.5522 64.6879 27.5583C64.8429 27.5643 64.9952 27.6011 65.1355 27.6664C65.2759 27.7318 65.4015 27.8244 65.5049 27.9388C65.6083 28.0531 65.6873 28.1869 65.7373 28.3321C65.7873 28.4772 65.8071 28.6308 65.7958 28.7838C65.7921 28.9314 65.759 29.0769 65.6985 29.2119C65.6379 29.3469 65.551 29.4688 65.4428 29.5706C65.3345 29.6724 65.207 29.7521 65.0675 29.8052C64.9281 29.8583 64.7794 29.8838 64.63 29.8801Z" fill="white"/>
<path d="M17.0252 12.5273C17.1747 12.5301 17.3222 12.5623 17.4589 12.6222C17.5956 12.6821 17.7189 12.7683 17.8214 12.8759C17.9239 12.9835 18.0035 13.1103 18.0557 13.2488C18.1079 13.3873 18.1316 13.5346 18.1253 13.6823C18.1229 13.8368 18.0893 13.9892 18.0264 14.1307C17.9635 14.2721 17.8726 14.3997 17.759 14.5059C17.6454 14.6121 17.5114 14.6948 17.365 14.749C17.2186 14.8033 17.0627 14.828 16.9065 14.8218C16.605 14.8058 16.3217 14.6743 16.1168 14.4551C15.912 14.236 15.8017 13.9465 15.8095 13.6483C15.8077 13.4937 15.8385 13.3404 15.9 13.1982C15.9616 13.056 16.0524 12.9281 16.1669 12.8226C16.2813 12.7171 16.4168 12.6364 16.5645 12.5855C16.7123 12.5347 16.8692 12.5148 17.0252 12.5273Z" fill="white"/>
<path d="M22.1357 13.6854C22.1341 13.9836 22.0138 14.2692 21.801 14.4807C21.5882 14.6921 21.2999 14.8124 20.9981 14.8157C20.683 14.8141 20.3812 14.6901 20.1579 14.4706C19.9345 14.251 19.8075 13.9535 19.8042 13.6422C19.8098 13.4884 19.8463 13.3373 19.9116 13.1977C19.977 13.058 20.0699 12.9327 20.1848 12.8289C20.2997 12.7251 20.4344 12.645 20.581 12.5932C20.7276 12.5414 20.8832 12.519 21.0387 12.5273C21.1881 12.5309 21.3352 12.5638 21.4716 12.6242C21.608 12.6846 21.7309 12.7712 21.833 12.879C21.9351 12.9868 22.0145 13.1137 22.0665 13.2521C22.1184 13.3906 22.142 13.5379 22.1357 13.6854Z" fill="white"/>
<path d="M12.7946 12.5271C13.0963 12.5303 13.3845 12.6513 13.5964 12.8636C13.8084 13.0758 13.9268 13.3622 13.9259 13.6604C13.9243 13.8142 13.8919 13.9663 13.8306 14.1077C13.7693 14.2491 13.6804 14.3771 13.5689 14.4845C13.4574 14.5918 13.3254 14.6763 13.1808 14.7331C13.0361 14.7899 12.8814 14.8179 12.7258 14.8154C12.569 14.8109 12.4148 14.7749 12.2726 14.7095C12.1304 14.6441 12.0032 14.5508 11.8988 14.4351C11.7944 14.3195 11.7149 14.1841 11.6652 14.037C11.6156 13.89 11.5968 13.7346 11.6101 13.5801C11.6164 13.4337 11.6523 13.2899 11.7155 13.1573C11.7788 13.0247 11.8682 12.9059 11.9785 12.8078C12.0888 12.7098 12.2178 12.6344 12.3579 12.5862C12.498 12.538 12.6465 12.5179 12.7946 12.5271Z" fill="white"/>
</svg>
