<svg width="61" height="61" viewBox="0 0 61 61" fill="none" xmlns="http://www.w3.org/2000/svg">
<path d="M47.9693 33.1048C47.6818 33.1048 47.3968 33.0073 47.1643 32.8098C46.6868 32.4098 35.4692 22.8398 35.4692 13.1048C35.4692 6.21225 41.0768 0.604736 47.9693 0.604736C54.8618 0.604736 60.4693 6.21225 60.4693 13.1048C60.4693 22.8398 49.2518 32.4098 48.7743 32.8098C48.5418 33.0073 48.2568 33.1048 47.9693 33.1048ZM47.9693 3.10474C42.4543 3.10474 37.9692 7.58975 37.9692 13.1048C37.9692 20.2748 45.4618 27.8448 47.9693 30.1748C50.4768 27.8423 57.9693 20.2748 57.9693 13.1048C57.9693 7.58975 53.4843 3.10474 47.9693 3.10474Z" fill="white"/>
<path d="M47.9692 18.1048C45.2117 18.1048 42.9692 15.8623 42.9692 13.1047C42.9692 10.3472 45.2117 8.10474 47.9692 8.10474C50.7268 8.10474 52.9693 10.3472 52.9693 13.1047C52.9693 15.8623 50.7268 18.1048 47.9692 18.1048ZM47.9692 10.6047C46.5917 10.6047 45.4692 11.7247 45.4692 13.1047C45.4692 14.4847 46.5917 15.6048 47.9692 15.6048C49.3468 15.6048 50.4693 14.4847 50.4693 13.1047C50.4693 11.7247 49.3468 10.6047 47.9692 10.6047Z" fill="white"/>
<path d="M7.96877 58.105C7.67376 58.105 7.37626 58 7.13876 57.79C6.86876 57.55 0.46875 51.8175 0.46875 45.9175C0.46875 41.61 3.83376 38.105 7.96877 38.105C12.1038 38.105 15.4688 41.61 15.4688 45.9175C15.4688 51.8175 9.06877 57.55 8.79877 57.79C8.56127 58 8.26377 58.105 7.96877 58.105ZM7.96877 40.605C5.21126 40.605 2.96876 42.9875 2.96876 45.9175C2.96876 49.575 6.35876 53.47 7.96877 55.115C9.57877 53.4725 12.9688 49.575 12.9688 45.9175C12.9688 42.9875 10.7263 40.605 7.96877 40.605Z" fill="white"/>
<path d="M40.2533 60.6048H7.96826C7.27826 60.6048 6.71826 60.0448 6.71826 59.3548C6.71826 58.6648 7.27826 58.1048 7.96826 58.1048H40.2533C41.0483 58.1048 41.3458 57.4948 41.4183 57.3073C41.4908 57.1198 41.6808 56.4648 41.0933 55.9298L23.1633 39.6297C22.0083 38.5772 21.6258 36.9572 22.1883 35.5022C22.7508 34.0447 24.1233 33.1047 25.6833 33.1047H47.9684C48.6584 33.1047 49.2184 33.6647 49.2184 34.3547C49.2184 35.0447 48.6584 35.6047 47.9684 35.6047H25.6833C24.8883 35.6047 24.5908 36.2147 24.5183 36.4022C24.4458 36.5897 24.2558 37.2447 24.8433 37.7797L42.7733 54.0798C43.9283 55.1323 44.3108 56.7523 43.7483 58.2073C43.1858 59.6648 41.8133 60.6048 40.2533 60.6048Z" fill="white"/>
<path d="M7.96827 48.1045C6.59076 48.1045 5.46826 46.9845 5.46826 45.6045C5.46826 44.2245 6.59076 43.1045 7.96827 43.1045C9.34577 43.1045 10.4683 44.2245 10.4683 45.6045C10.4683 46.9845 9.34577 48.1045 7.96827 48.1045ZM7.96827 45.602C7.96827 45.602 7.96827 45.6045 7.96827 45.602L9.21827 45.6045L7.96827 45.602Z" fill="white"/>
</svg>
