<svg width="56" height="57" viewBox="0 0 56 57" fill="none" xmlns="http://www.w3.org/2000/svg">
<path d="M15.7229 25.4202H9.30715C8.80098 25.4202 8.39062 25.8361 8.39062 26.3492V35.6401C8.39062 36.1532 8.80098 36.5692 9.30715 36.5692H15.7229C16.2291 36.5692 16.6394 36.1532 16.6394 35.6401V26.3492C16.6394 25.8361 16.2291 25.4202 15.7229 25.4202ZM14.8064 34.7111H10.2237V27.2783H14.8064V34.7111Z" fill="white"/>
<path d="M31.3045 25.4202H24.8887C24.3825 25.4202 23.9722 25.8361 23.9722 26.3492V35.6401C23.9722 36.1532 24.3825 36.5692 24.8887 36.5692H31.3045C31.8106 36.5692 32.221 36.1532 32.221 35.6401V26.3492C32.221 25.8361 31.8106 25.4202 31.3045 25.4202ZM30.3879 34.7111H25.8053V27.2783H30.3879V34.7111Z" fill="white"/>
<path d="M31.3045 40.2856H24.8887C24.3825 40.2856 23.9722 40.7016 23.9722 41.2147V50.5056C23.9722 51.0187 24.3825 51.4347 24.8887 51.4347H31.3045C31.8106 51.4347 32.221 51.0187 32.221 50.5056V41.2147C32.221 40.7017 31.8106 40.2856 31.3045 40.2856ZM30.3879 49.5765H25.8053V42.1438H30.3879V49.5765Z" fill="white"/>
<path d="M45.9685 25.4202H39.5528C39.0466 25.4202 38.6362 25.8361 38.6362 26.3492V35.6401C38.6362 36.1532 39.0466 36.5692 39.5528 36.5692H45.9685C46.4747 36.5692 46.885 36.1532 46.885 35.6401V26.3492C46.885 25.8361 46.4747 25.4202 45.9685 25.4202ZM45.052 34.7111H40.4694V27.2783H45.052V34.7111Z" fill="white"/>
<path d="M15.7229 40.2856H9.30715C8.80098 40.2856 8.39062 40.7016 8.39062 41.2147V50.5056C8.39062 51.0187 8.80098 51.4347 9.30715 51.4347H15.7229C16.2291 51.4347 16.6394 51.0187 16.6394 50.5056V41.2147C16.6394 40.7017 16.2291 40.2856 15.7229 40.2856ZM14.8064 49.5765H10.2237V42.1438H14.8064V49.5765Z" fill="white"/>
<path d="M45.9685 40.2856H39.5528C39.0466 40.2856 38.6362 40.7016 38.6362 41.2147V50.5056C38.6362 51.0187 39.0466 51.4347 39.5528 51.4347H45.9685C46.4747 51.4347 46.885 51.0187 46.885 50.5056V41.2147C46.885 40.7017 46.4747 40.2856 45.9685 40.2856ZM45.052 49.5765H40.4694V42.1438H45.052V49.5765Z" fill="white"/>
<path d="M51.468 54.2222V22.6331H52.3846C52.8907 22.6331 53.3011 22.2171 53.3011 21.704V17.0586C53.3011 16.5455 52.8907 16.1295 52.3846 16.1295H51.468V12.4132C51.468 11.9001 51.0577 11.4841 50.5515 11.4841H48.7185V1.26404C48.7185 0.750934 48.3081 0.334961 47.802 0.334961H7.47439C6.96821 0.334961 6.55786 0.750934 6.55786 1.26404V11.484H4.72481C4.21864 11.484 3.80829 11.9 3.80829 12.4131V16.1294H2.89177C2.3856 16.1294 1.97524 16.5454 1.97524 17.0585V21.7039C1.97524 22.217 2.3856 22.633 2.89177 22.633H3.80829V54.222H0.14209V56.0801H4.72481H50.5515H55.1421V54.222H51.468V54.2222ZM8.39091 2.19312H46.8853V11.484H8.39091V2.19312ZM5.64134 13.3422H7.47439H47.8018H49.6349V16.1294H5.64134V13.3422ZM49.6349 54.2222H5.64134V22.6331H49.635V54.2222H49.6349ZM4.72481 20.7749H3.80829V17.9877H4.72481H50.5515H51.468V20.7749H50.5515H4.72481Z" fill="white"/>
<path d="M26.2301 5.37156C26.0843 4.99392 25.8796 4.66778 25.6155 4.39326C25.3516 4.11874 25.0339 3.90335 24.6628 3.7473C24.2916 3.59126 23.8806 3.51318 23.4296 3.51318C22.9786 3.51318 22.5669 3.5905 22.1944 3.74524C21.8218 3.89997 21.5029 4.11526 21.2376 4.39119C20.9722 4.66713 20.7667 4.99392 20.6209 5.37167C20.4752 5.74931 20.4023 6.15973 20.4023 6.60292C20.4023 7.04612 20.4752 7.45654 20.6209 7.83418C20.7667 8.21182 20.9722 8.53861 21.2376 8.81466C21.5029 9.09059 21.8218 9.30588 22.1944 9.46061C22.5669 9.61535 22.9786 9.69267 23.4296 9.69267C23.8806 9.69267 24.2916 9.61535 24.6628 9.46061C25.0341 9.30599 25.3516 9.09059 25.6155 8.81466C25.8795 8.53872 26.0843 8.21193 26.2301 7.83418C26.3759 7.45654 26.4487 7.04612 26.4487 6.60292C26.4487 6.15962 26.3758 5.7492 26.2301 5.37156ZM25.1804 7.49541C25.0938 7.75883 24.9693 7.98184 24.8071 8.16435C24.6449 8.34696 24.4475 8.487 24.2152 8.58457C23.9828 8.68214 23.7209 8.73092 23.4295 8.73092C23.1381 8.73092 22.8754 8.68214 22.6418 8.58457C22.408 8.487 22.2094 8.34696 22.0458 8.16435C21.8822 7.98173 21.7564 7.75883 21.6684 7.49541C21.5804 7.232 21.5364 6.9345 21.5364 6.60282C21.5364 6.27113 21.5804 5.97363 21.6684 5.71022C21.7564 5.4468 21.8822 5.22314 22.0458 5.03922C22.2094 4.85529 22.408 4.7145 22.6418 4.61693C22.8755 4.51936 23.1381 4.47057 23.4295 4.47057C23.7209 4.47057 23.9828 4.51936 24.2152 4.61693C24.4475 4.7145 24.6448 4.85529 24.8071 5.03922C24.9693 5.22314 25.0937 5.4468 25.1804 5.71022C25.2669 5.97363 25.3102 6.27113 25.3102 6.60282C25.3102 6.9345 25.2671 7.232 25.1804 7.49541Z" fill="white"/>
<path d="M18.4067 3.58008V6.18056H15.6104V3.58008H14.4927V9.62562H15.6104V6.98332H18.4067V9.62562H19.5244V3.58008H18.4067Z" fill="white"/>
<path d="M37.7414 8.69741V3.58008H36.6318V9.62562H40.1294V8.69741H37.7414Z" fill="white"/>
<path d="M26.4985 3.58008V4.50404H28.301V9.62562H29.4104V4.50404H31.2045V3.58008H26.4985Z" fill="white"/>
<path d="M35.6712 4.47475V3.58008H31.9097V9.62562H35.6712V8.72671H33.0274V7.01675H35.1102V6.15127H33.0274V4.47475H35.6712Z" fill="white"/>
</svg>
