<svg width="54" height="54" viewBox="0 0 54 54" fill="none" xmlns="http://www.w3.org/2000/svg">
<path d="M51.215 27.0833H40.1672V25.1365C40.1672 24.4081 39.5746 23.8154 38.8461 23.8154H29.9196C29.1911 23.8154 28.5986 24.4081 28.5986 25.1365V27.0833H27.1523V19.837C27.1523 18.4165 25.9966 17.2608 24.5761 17.2608H21.4269V3.23204C21.4269 2.38061 20.7343 1.68787 19.8828 1.68787H18.6791V1.33719C18.679 0.66765 18.1341 0.122803 17.4645 0.122803H11.4235C10.754 0.122803 10.2092 0.66765 10.2092 1.33719V1.68787H9.00548C8.15404 1.68787 7.46131 2.38061 7.46131 3.23204V17.2608H3.36981C1.94929 17.2608 0.793457 18.4165 0.793457 19.837V27.8545C0.793457 28.2852 1.14258 28.6345 1.57344 28.6345C2.00431 28.6345 2.35343 28.2852 2.35343 27.8545V19.837C2.35343 19.2767 2.80936 18.8208 3.36981 18.8208H24.576C25.1363 18.8208 25.5922 19.2767 25.5922 19.837V47.0763C25.5922 47.6366 25.1362 48.0926 24.576 48.0926H3.36981C2.80936 48.0926 2.35343 47.6366 2.35343 47.0763V30.9744C2.35343 30.5437 2.00431 30.1944 1.57344 30.1944C1.14258 30.1944 0.793457 30.5437 0.793457 30.9744V47.0762C0.793457 48.4967 1.94919 49.6524 3.36981 49.6524H4.95578V52.4689C4.95578 52.8997 5.30491 53.2489 5.73577 53.2489C6.16664 53.2489 6.51576 52.8997 6.51576 52.4689V49.6524H15.2893V50.99C15.2893 52.237 16.3038 53.2515 17.5507 53.2515H51.215C52.4619 53.2515 53.4764 52.237 53.4764 50.99V29.3448C53.4764 28.0978 52.462 27.0833 51.215 27.0833ZM11.7691 1.68278H17.1189V3.25295H11.7691V1.68278ZM9.02129 3.24785H10.2092V3.59853C10.2092 4.26818 10.7539 4.81292 11.4235 4.81292H17.4645C18.1341 4.81292 18.679 4.26818 18.679 3.59853V3.24785H19.8669V17.2608H9.02129V3.24785ZM45.5855 28.6433V51.5811H44.0248V28.6433H45.5855ZM27.1521 47.0763V28.6433H34.3828C34.8137 28.6433 35.1628 28.2941 35.1628 27.8633C35.1628 27.4326 34.8137 27.0833 34.3828 27.0833H30.1584V25.3754H38.6072V27.0833H37.5028C37.0719 27.0833 36.7228 27.4326 36.7228 27.8633C36.7228 28.2941 37.0719 28.6433 37.5028 28.6433H42.4649V51.6915H22.99V49.6524H24.576C25.9965 49.6525 27.1521 48.4968 27.1521 47.0763ZM16.8492 50.9901V49.6525H21.4301V51.6916H17.5507C17.1638 51.6916 16.8492 51.3768 16.8492 50.9901ZM51.9164 50.9901C51.9164 51.3769 51.6018 51.6916 51.215 51.6916H47.1455V28.6433H51.215C51.6018 28.6433 51.9164 28.958 51.9164 29.3449V50.9901Z" fill="white"/>
</svg>
