<svg width="76" height="76" viewBox="0 0 76 76" fill="none" xmlns="http://www.w3.org/2000/svg">
<path d="M74.8059 14.3543L71.7629 8.29371C71.3675 7.50583 70.5742 7.01656 69.6927 7.01656H41.9416V2.41126C41.9416 1.16321 40.9264 0.147949 39.6785 0.147949H33.411C32.1631 0.147949 31.1477 1.16321 31.1477 2.41126V7.01656H23.2539C22.6481 7.01656 22.1572 7.50759 22.1572 8.11326C22.1572 8.71894 22.6481 9.20997 23.2539 9.20997H69.6927C69.7395 9.20997 69.7815 9.23585 69.8027 9.27782L72.8458 15.3385C72.8632 15.3732 72.8632 15.4144 72.846 15.4491L69.8026 21.5099C69.7815 21.5517 69.7395 21.5776 69.6927 21.5776H6.02417C5.97825 21.5776 5.93614 21.5523 5.91508 21.5115L2.74998 15.4505C2.73141 15.415 2.73141 15.3724 2.75013 15.3368L5.91494 9.27621C5.93629 9.23527 5.97825 9.20997 6.02417 9.20997H18.58C19.1858 9.20997 19.6767 8.71894 19.6767 8.11326C19.6767 7.50759 19.1858 7.01656 18.58 7.01656H6.02417C5.1585 7.01656 4.37165 7.49326 3.97069 8.26081L0.806032 14.3214C0.455232 14.9928 0.455378 15.7948 0.805886 16.4661L3.97098 22.5271C4.37179 23.2945 5.15865 23.771 6.02431 23.771H31.1478V29.9913L14.2454 31.5565C13.7563 31.6018 13.3094 31.8778 13.0501 32.2942L9.66553 37.726C9.2792 38.3458 9.36606 39.1435 9.87654 39.6661L14.3508 44.2425C14.6485 44.5469 15.061 44.7176 15.4836 44.7176C15.5477 44.7176 15.6123 44.7136 15.6767 44.7056L31.1475 42.7691V49.7903L15.5097 48.9446C15.5095 48.9446 15.5095 48.9446 15.5095 48.9446C14.6971 48.9008 14.0022 49.5206 13.9456 50.3257L13.4641 57.1817C13.4078 57.9867 14.016 58.698 14.8198 58.7674L31.1475 60.1784V73.9809C31.1475 74.5866 31.6384 75.0777 32.2443 75.0777C32.8501 75.0777 33.341 74.5866 33.341 73.9809V60.3679L39.7481 60.9215V64.6113C39.7481 65.2169 40.239 65.708 40.8448 65.708C41.4506 65.708 41.9415 65.2169 41.9415 64.6113V61.111L54.038 62.1562C54.08 62.1599 54.1218 62.1616 54.1638 62.1616C54.581 62.1616 54.9866 61.984 55.2684 61.6727L58.7413 57.8371C59.2025 57.3275 59.2557 56.574 58.87 56.0044L55.9672 51.721C55.7081 51.3386 55.2779 51.0954 54.8164 51.0703L41.9415 50.3739V41.4178L63.9893 38.6582C64.8399 38.5517 65.4565 37.7717 65.3637 36.9194L64.4437 28.4686C64.3509 27.6162 63.5794 26.9869 62.7275 27.0663L51.0162 28.1508C50.4131 28.2067 49.9695 28.7409 50.0254 29.3441C50.0813 29.9473 50.6154 30.3896 51.2185 30.335L62.3287 29.306L63.1179 36.5566L15.7062 42.491L11.7819 38.4771L14.7507 33.7126L32.3564 32.0822H32.3567L46.5633 30.7666C47.1665 30.7107 47.61 30.1765 47.5542 29.5733C47.4983 28.9702 46.9646 28.5268 46.3611 28.5824L41.9416 28.9917V23.771H69.6926C70.5741 23.771 71.3673 23.2818 71.7626 22.494L74.806 16.4332C75.1328 15.7823 75.1328 15.0053 74.8059 14.3543ZM33.3411 2.41126C33.3411 2.37266 33.3724 2.34136 33.411 2.34136H39.6785C39.7171 2.34136 39.7484 2.37266 39.7484 2.41126V7.01656H33.3413V2.41126H33.3411ZM56.7432 56.7761L53.8776 59.9412L40.9572 58.8247C40.9571 58.8247 40.9569 58.8247 40.9568 58.8247L15.7008 56.6423L16.0849 51.1726L54.3482 53.2419L56.7432 56.7761ZM39.7482 50.2555L33.3411 49.9089V42.4945L39.7482 41.6926V50.2555ZM39.7482 29.1948L33.3411 29.7882V23.771H39.7482V29.1948Z" fill="#FCFCFC"/>
</svg>
