<svg width="62" height="48" viewBox="0 0 62 48" fill="none" xmlns="http://www.w3.org/2000/svg">
<path d="M61.2045 43.0146C61.2045 42.9949 61.2045 42.9752 61.2045 42.9555L57.5747 15.3953L60.0832 11.8754C60.1852 11.7323 60.2458 11.5639 60.2584 11.3887C60.2711 11.2135 60.2352 11.0381 60.1548 10.8819C60.0744 10.7257 59.9525 10.5947 59.8025 10.5031C59.6526 10.4116 59.4803 10.3631 59.3046 10.3631H53.4074L49.8536 0.665468C49.7862 0.481309 49.6639 0.322295 49.5032 0.209949C49.3425 0.0976041 49.1511 0.0373535 48.955 0.0373535C48.7589 0.0373535 48.5676 0.0976041 48.4068 0.209949C48.2461 0.322295 48.1238 0.481309 48.0564 0.665468L44.5026 10.3631H38.6087C38.433 10.3629 38.2607 10.4111 38.1106 10.5025C37.9605 10.5938 37.8385 10.7247 37.758 10.8809C37.6774 11.037 37.6414 11.2123 37.654 11.3876C37.6665 11.5628 37.7271 11.7312 37.829 11.8743L40.3331 15.3947L39.6831 20.3357H22.4546L21.8045 15.3953L24.3092 11.8748C24.4109 11.7316 24.4712 11.5632 24.4836 11.3881C24.4961 11.2129 24.46 11.0377 24.3795 10.8816C24.299 10.7255 24.1772 10.5946 24.0272 10.5031C23.8773 10.4117 23.7051 10.3632 23.5295 10.3631H17.5859L14.032 0.665468C13.9646 0.481493 13.8422 0.322669 13.6816 0.210469C13.5209 0.0982678 13.3297 0.0381002 13.1337 0.0381002C12.9378 0.0381002 12.7465 0.0982678 12.5859 0.210469C12.4252 0.322669 12.3029 0.481493 12.2354 0.665468L8.68159 10.3631H2.83526C2.65953 10.363 2.48718 10.4114 2.33713 10.5029C2.18707 10.5944 2.06512 10.7254 1.98463 10.8817C1.90415 11.0379 1.86824 11.2133 1.88086 11.3886C1.89348 11.5638 1.95413 11.7323 2.05616 11.8754L4.56571 15.3953L0.935331 42.9555V43.0102C0.935331 43.0102 0.928223 43.055 0.928223 43.0786V46.9058C0.928223 47.1595 1.02903 47.4029 1.20846 47.5823C1.3879 47.7618 1.63126 47.8626 1.88502 47.8626H10.1179C10.3717 47.8626 10.615 47.7618 10.7945 47.5823C10.9739 47.4029 11.0747 47.1595 11.0747 46.9058C11.0747 46.652 10.9739 46.4086 10.7945 46.2292C10.615 46.0498 10.3717 45.949 10.1179 45.949H2.84073V44.0354H59.2975V45.949H53.9449C53.6911 45.949 53.4477 46.0498 53.2683 46.2292C53.0889 46.4086 52.9881 46.652 52.9881 46.9058C52.9881 47.1595 53.0889 47.4029 53.2683 47.5823C53.4477 47.7618 53.6911 47.8626 53.9449 47.8626H60.2543C60.38 47.8626 60.5044 47.8379 60.6205 47.7899C60.7366 47.7418 60.8421 47.6713 60.931 47.5825C61.0199 47.4936 61.0903 47.3881 61.1384 47.272C61.1865 47.1559 61.2112 47.0314 61.2111 46.9058V43.0786C61.2111 43.0578 61.2062 43.037 61.2045 43.0146ZM56.0821 14.1903H53.6403V12.2767H57.4457L56.0821 14.1903ZM37.6021 42.1207H24.4869V38.7757C24.479 37.9095 24.6427 37.0504 24.9687 36.2479C25.2947 35.4453 25.7765 34.7154 26.3862 34.1001C26.9958 33.4848 27.7214 32.9964 28.5209 32.6631C29.3204 32.3298 30.178 32.1582 31.0442 32.1582C31.9104 32.1582 32.768 32.3298 33.5676 32.6631C34.3671 32.9964 35.0926 33.4848 35.7023 34.1001C36.312 34.7154 36.7938 35.4453 37.1197 36.2479C37.4457 37.0504 37.6095 37.9095 37.6016 38.7757L37.6021 42.1207ZM31.0445 30.3044C29.1259 30.307 27.2648 30.9601 25.7653 32.157C24.2657 33.3539 23.2164 35.024 22.7887 36.8943C22.778 36.9283 22.7691 36.9628 22.7619 36.9977C22.6357 37.582 22.5717 38.1779 22.5711 38.7757V42.1234H17.8193V26.3991H44.2691V42.1234H39.5125V38.7757C39.51 36.5303 38.6172 34.3775 37.0297 32.7895C35.4423 31.2014 33.2899 30.3078 31.0445 30.3044ZM44.2691 22.2493V24.4854H17.8193V22.2493H44.2691ZM46.1827 11.339L48.9547 3.7748L51.7267 11.3384V15.1307V15.1465C51.7267 15.1465 51.7267 15.1569 51.7267 15.1624V42.1207H46.1827V11.339ZM44.2691 12.2767V14.1903H41.8246L40.4638 12.2767H44.2691ZM42.1707 16.1039H44.2691V20.3357H41.6136L42.1707 16.1039ZM17.8193 20.3357V16.1039H19.9702L20.5279 20.3357H17.8193ZM20.313 14.1903H17.8193V12.2767H21.6744L20.313 14.1903ZM13.1359 3.7748L15.9079 11.3384V42.1201H10.3617V15.1657C10.3617 15.1591 10.3617 15.1536 10.3617 15.1471C10.3617 15.1405 10.3617 15.135 10.3617 15.1285V11.339L13.1359 3.7748ZM8.44814 12.2767V14.1903H6.05613L4.68927 12.2767H8.44814ZM6.40222 16.1039H8.44814V42.1234H2.97523L6.40222 16.1039ZM53.6409 42.1234V16.1039H55.736L59.1635 42.1234H53.6409ZM24.9915 47.8642H16.236C15.9822 47.8642 15.7388 47.7634 15.5594 47.584C15.38 47.4045 15.2792 47.1612 15.2792 46.9074C15.2792 46.6536 15.38 46.4103 15.5594 46.2308C15.7388 46.0514 15.9822 45.9506 16.236 45.9506H24.9893C25.2431 45.9506 25.4864 46.0514 25.6659 46.2308C25.8453 46.4103 25.9461 46.6536 25.9461 46.9074C25.9461 47.1612 25.8453 47.4045 25.6659 47.584C25.4864 47.7634 25.2431 47.8642 24.9893 47.8642H24.9915ZM47.829 47.8642H31.1074C30.8536 47.8642 30.6103 47.7634 30.4308 47.584C30.2514 47.4045 30.1506 47.1612 30.1506 46.9074C30.1506 46.6536 30.2514 46.4103 30.4308 46.2308C30.6103 46.0514 30.8536 45.9506 31.1074 45.9506H47.8268C48.0806 45.9506 48.3239 46.0514 48.5034 46.2308C48.6828 46.4103 48.7836 46.6536 48.7836 46.9074C48.7836 47.1612 48.6828 47.4045 48.5034 47.584C48.3239 47.7634 48.0806 47.8642 47.8268 47.8642H47.829Z" fill="white"/>
</svg>
