<svg width="35" height="39" fill="none" xmlns="http://www.w3.org/2000/svg"><g clip-path="url(#clip0_3345:8720)" fill="#000"><path d="M26.78 27.627a10.411 10.411 0 01-7.136 2.712c-6.048 0-10.49-4.553-10.49-10.8 0-6.249 4.3-10.608 10.49-10.608a10.66 10.66 0 017.183 2.664l1.323 1.162 5.86-6.006-1.466-1.404C29 2.1 24.396.337 19.644.407 8.776.406.884 8.446.884 19.49s8.081 19.326 18.76 19.326c4.798.066 9.44-1.735 12.995-5.038l1.417-1.356-5.953-6.006-1.324 1.211z"/><path d="M19.36 26.03c3.472 0 6.285-2.884 6.285-6.442 0-3.558-2.813-6.442-6.284-6.442-3.471 0-6.285 2.884-6.285 6.442 0 3.558 2.814 6.442 6.285 6.442z"/></g><defs><clipPath id="clip0_3345:8720"><path fill="#fff" transform="translate(.885 .408)" d="M0 0h33.172v38.409H0z"/></clipPath></defs></svg>