<svg width="39" height="39" fill="none" xmlns="http://www.w3.org/2000/svg"><path d="M33.34.408H6.185A5.633 5.633 0 00.558 6.034v27.157a5.633 5.633 0 005.626 5.626h27.157a5.633 5.633 0 005.626-5.626V6.034A5.633 5.633 0 0033.341.408zM14.137 30.865H9.635V15.111h4.5v15.754zm0-18.004H9.635V8.36h4.5v4.5zM29.89 30.865h-4.501v-9.002c0-1.24-1.01-2.25-2.25-2.25a2.253 2.253 0 00-2.251 2.25v9.002h-4.502V15.111h4.502v.849c1.179-.367 1.945-.849 3.375-.849 3.053.003 5.627 2.742 5.627 5.978v9.776z" fill="#000"/></svg>