<svg width="47" height="40" fill="none" xmlns="http://www.w3.org/2000/svg"><path d="M14.236 30.898c-4.307-.49-7.124-2.662-8.74-6.745h3.817l.072-.244c-2.028-.652-3.786-1.704-5.105-3.423a9.764 9.764 0 01-2.06-5.963l3.767 1.07.151-.26C4.294 13.79 2.987 11.91 2.511 9.506a9.822 9.822 0 011.064-6.86c5.105 6.099 11.48 9.524 19.403 10.067 0-1.4-.191-2.735.036-3.992.663-3.686 2.821-6.198 6.28-7.375C32.69.19 35.8.928 38.5 3.324c.465.414.86.585 1.442.37 1.651-.614 3.308-1.213 5.02-1.838-.594 1.998-1.898 3.512-3.554 4.776l.13.255 4.687-1.323a16.314 16.314 0 01-3.718 4.122c-.61.47-.838.95-.829 1.754.15 12.236-7.802 23.38-19.144 26.644-7.33 2.11-14.4 1.294-21.074-2.587a2.424 2.424 0 01-.63-.52c4.874.267 9.298-.94 13.406-4.08z" fill="#000"/></svg>