<svg width="47" height="40" viewBox="0 0 48 47" fill="none" xmlns="http://www.w3.org/2000/svg"><path d="M24.238.19H35.48c7.04.017 12.17 5.136 12.176 12.177.01 7.5.01 14.997 0 22.493 0 7.006-5.107 12.109-12.1 12.13-7.524.013-15.05.013-22.576 0C5.968 46.979.87 41.875.862 34.874V12.378C.862 5.308 5.952.208 13.004.19c3.738-.015 7.487 0 11.234 0zm1.175 17.51c.367-.152.505-.212.644-.267.917-.352 1.833-.598 2.675.11.841.708.872 1.691.654 2.693a2.753 2.753 0 01-.26.868c-1.034 1.682-2.017 3.41-3.174 4.998-.944 1.284-1.712 1.131-2.212-.408-.657-2.018-1.16-4.093-1.68-6.155-.518-2.062-.832-4.247-1.52-6.28-.687-2.033-2.128-2.55-4.084-1.737-3.21 1.33-5.5 3.808-7.808 6.31l1.117 1.46c.82-.38 1.545-.75 2.299-1.052.575-.231 1.006.013 1.25.576.134.306.27.613.367.93 1.273 3.936 2.543 7.873 3.809 11.81.427 1.32 1.038 2.532 2.092 3.486 1.584 1.425 3.237 1.609 4.89.407 4.855-3.526 8.828-7.841 11.494-13.259 1.12-2.277 1.974-4.662 1.833-7.269-.127-2.299-1.705-3.829-4-3.94-3.353-.164-6.695 2.041-7.935 5.246-.155.4-.258.84-.45 1.466v.008z" fill="#000"/></svg>