<svg width="14" height="15" fill="none" xmlns="http://www.w3.org/2000/svg"><path d="M6.688 0C3.98 0 1.779 2.466 1.779 5.497c0 1.393.784 3.36 2.329 5.848a38.883 38.883 0 002.287 3.285l.293.37.293-.37a38.936 38.936 0 002.287-3.285c1.545-2.488 2.328-4.455 2.328-5.848C11.596 2.467 9.394 0 6.688 0zm1.941 10.837a39.677 39.677 0 01-1.941 2.829 39.642 39.642 0 01-1.937-2.822C3.319 8.54 2.562 6.69 2.562 5.497c0-2.547 1.851-4.62 4.126-4.62 2.275 0 4.125 2.073 4.125 4.62 0 1.192-.755 3.039-2.184 5.34z" fill="#000"/><path d="M6.687 2.032c-1.597 0-2.897 1.455-2.897 3.244 0 1.79 1.3 3.245 2.897 3.245 1.597 0 2.897-1.456 2.897-3.245 0-1.789-1.3-3.244-2.897-3.244zm0 5.612c-1.166 0-2.114-1.062-2.114-2.368 0-1.305.948-2.367 2.114-2.367S8.8 3.97 8.8 5.276s-.948 2.368-2.114 2.368z" fill="#000"/></svg>