<svg width="242" height="63" fill="none" xmlns="http://www.w3.org/2000/svg"><path d="M6.14 41.209H.05v16.404h6.09c4.47 0 7.643-3.679 7.643-8.202S10.61 41.21 6.14 41.21zm0 15.233H1.277V42.38H6.14c3.822 0 6.439 3.14 6.439 7.03s-2.617 7.03-6.439 7.03zm15.715-10.804c-3.543 0-5.998 2.672-5.998 6.117 0 3.538 2.525 6.116 6.091 6.116 2.293 0 4.1-1.055 5.049-2.648l-1.02-.61c-.67 1.243-2.107 2.133-4.006 2.133-2.64 0-4.632-1.734-4.91-4.382h10.492c0-.188.023-.375.023-.563 0-3.21-2.2-6.163-5.72-6.163zm0 1.125c2.27 0 4.262 1.594 4.517 4.453h-9.31c.231-2.602 2.153-4.453 4.793-4.453zm8.762 2.203c0-1.406 1.274-2.203 2.78-2.203 1.273 0 2.478.563 2.964 1.781l.973-.562c-.626-1.43-2.061-2.344-3.937-2.344-2.363 0-3.937 1.477-3.937 3.328 0 4.218 7.017 2.39 7.017 5.577 0 1.477-1.366 2.203-2.988 2.203-1.737 0-2.987-.797-3.404-2.062l-.996.586c.556 1.5 2.084 2.601 4.4 2.601 2.478 0 4.146-1.406 4.146-3.328 0-4.288-7.017-2.437-7.017-5.577zm10.286-5.906c.51 0 .927-.421.927-.937a.93.93 0 00-.927-.914.93.93 0 00-.926.914c0 .516.417.937.926.937zm-.579 14.553h1.158V45.896h-1.158v11.717zm15.01-11.717v2.718c-.95-1.804-2.733-2.976-4.98-2.976-3.311 0-5.998 2.648-5.998 6.117 0 3.468 2.687 6.116 5.999 6.116 2.246 0 4.03-1.172 4.979-2.976v2.156c0 2.671-1.714 4.382-4.609 4.382-2.547 0-3.844-1.031-4.446-2.273l-1.02.586c.834 1.71 2.757 2.812 5.466 2.812 3.196 0 5.767-1.992 5.767-5.507V45.896h-1.158zm-4.91 10.85c-2.756 0-4.91-2.203-4.91-4.991 0-2.79 2.154-4.992 4.91-4.992 2.756 0 4.91 2.203 4.91 4.992 0 2.788-2.154 4.991-4.91 4.991zm14.948-11.108c-1.783 0-3.265.75-4.145 2.484v-2.226h-1.158v11.717h1.157v-6.187c0-3.163 1.784-4.663 4.053-4.663 2.177 0 3.405 1.406 3.405 3.562v7.288h1.181v-7.288c0-2.836-1.737-4.687-4.493-4.687zm26.704 11.53l-2.223-2.367c.602-1.031.996-2.25 1.204-3.538l-1.088-.633c-.162 1.289-.51 2.39-.973 3.257l-5.072-5.366c-.996-1.032-1.76-1.969-1.76-3.305 0-1.804 1.436-3.07 3.358-3.07 1.644 0 2.988.961 3.474 2.508l1.019-.61c-.695-1.944-2.478-3.093-4.516-3.093-2.409 0-4.586 1.617-4.586 4.312 0 1.383.556 2.344 1.297 3.21-2.107.938-3.219 2.743-3.219 4.781 0 2.836 2.084 4.617 5.28 4.617 2.154 0 3.752-.797 4.84-2.062l1.877 1.992 1.088-.633zm-7.85-.492c-2.433 0-3.984-1.289-3.984-3.445 0-1.5.787-3.07 2.825-3.843l5.211 5.53c-1.019 1.172-2.409 1.758-4.053 1.758zm22.762-15.467h-6.091v16.404h6.091c4.47 0 7.643-3.679 7.643-8.202s-3.173-8.202-7.643-8.202zm0 15.233h-4.864V42.38h4.864c3.821 0 6.438 3.14 6.438 7.03s-2.617 7.03-6.438 7.03zm15.715-10.804c-3.543 0-5.998 2.672-5.998 6.117 0 3.538 2.524 6.116 6.091 6.116 2.292 0 4.099-1.055 5.048-2.648l-1.019-.61c-.671 1.243-2.107 2.133-4.006 2.133-2.64 0-4.632-1.734-4.91-4.382H128.4c0-.188.023-.375.023-.563 0-3.21-2.2-6.163-5.72-6.163zm0 1.125c2.27 0 4.261 1.594 4.516 4.453h-9.31c.232-2.602 2.154-4.453 4.794-4.453zm16.474-.867L134.8 56.395l-4.354-10.499h-1.251l4.91 11.717h1.413l4.887-11.717h-1.228zm8.088-.258c-3.544 0-5.999 2.672-5.999 6.117 0 3.538 2.525 6.116 6.091 6.116 2.293 0 4.1-1.055 5.049-2.648l-1.019-.61c-.672 1.243-2.107 2.133-4.006 2.133-2.641 0-4.632-1.734-4.91-4.382h10.491c0-.188.023-.375.023-.563 0-3.21-2.2-6.163-5.72-6.163zm0 1.125c2.269 0 4.261 1.594 4.516 4.453h-9.31c.231-2.602 2.154-4.453 4.794-4.453zm8.427 10.85h1.158V40.506h-1.158v17.107zm10.03.258c3.358 0 6.068-2.648 6.068-6.116 0-3.469-2.71-6.117-6.068-6.117-3.381 0-6.091 2.648-6.091 6.117 0 3.468 2.71 6.116 6.091 6.116zm0-1.125c-2.756 0-4.91-2.203-4.91-4.991 0-2.79 2.154-4.992 4.91-4.992 2.756 0 4.887 2.203 4.887 4.992 0 2.788-2.131 4.991-4.887 4.991zm14.992-11.108c-2.247 0-4.03 1.172-4.979 2.976v-2.718h-1.158V62.3h1.158v-7.405c.949 1.804 2.732 2.976 4.979 2.976 3.312 0 5.998-2.648 5.998-6.116 0-3.469-2.686-6.117-5.998-6.117zm-.07 11.108c-2.756 0-4.909-2.203-4.909-4.991 0-2.79 2.153-4.992 4.909-4.992s4.91 2.203 4.91 4.992c0 2.788-2.154 4.991-4.91 4.991zm21.227-11.108c-1.552 0-3.034.75-3.868 2.39-.602-1.546-1.922-2.39-3.613-2.39-1.482 0-2.872.656-3.728 2.273v-2.015h-1.158v11.717h1.158v-6.538c0-3 1.69-4.312 3.589-4.312 1.784 0 2.965 1.195 2.965 3.422v7.428h1.158v-6.538c0-3 1.528-4.312 3.474-4.312 1.806 0 3.08 1.195 3.08 3.422v7.428h1.158v-7.428c0-2.93-1.76-4.547-4.215-4.547zm12.701 0c-3.544 0-5.998 2.672-5.998 6.117 0 3.538 2.524 6.116 6.09 6.116 2.293 0 4.1-1.055 5.049-2.648l-1.019-.61c-.671 1.243-2.107 2.133-4.006 2.133-2.641 0-4.632-1.734-4.91-4.382h10.491c0-.188.023-.375.023-.563 0-3.21-2.2-6.163-5.72-6.163zm0 1.125c2.269 0 4.261 1.594 4.516 4.453h-9.31c.231-2.602 2.154-4.453 4.794-4.453zm13.73-1.125c-1.783 0-3.265.75-4.145 2.484v-2.226h-1.158v11.717h1.158v-6.187c0-3.163 1.783-4.663 4.053-4.663 2.177 0 3.404 1.406 3.404 3.562v7.288h1.181v-7.288c0-2.836-1.737-4.687-4.493-4.687zM242 47.044v-1.148h-3.451v-3.28l-1.181.35v2.93h-2.547v1.148h2.547v7.617c0 2.671 1.598 3.421 4.632 2.952V56.56c-2.362.21-3.451.164-3.451-1.898v-7.617H242z" fill="#000"/><path d="M27.684 34.128h-9.546l-9.594-14.94v14.94H0V.716h8.544v14.033L17.661.716h9.546L16.611 16.945l11.073 17.183zm19.85 0l-5.823-10.787h-3.055v10.787h-8.544V.716h13.365c3.405 0 6.253 1.098 8.544 3.293 2.323 2.164 3.484 4.917 3.484 8.258 0 2.005-.509 3.85-1.527 5.537-1.018 1.655-2.403 2.975-4.153 3.962L56.7 34.128h-9.165zM38.656 8.592v7.494h4.725c1.05.031 1.91-.303 2.578-1.003.668-.7 1.002-1.607 1.002-2.72 0-1.114-.334-2.021-1.002-2.721-.668-.7-1.528-1.05-2.578-1.05h-4.725zm49.228 21.24c-3.373 3.342-7.51 5.012-12.41 5.012s-9.053-1.67-12.458-5.012c-3.373-3.373-5.06-7.51-5.06-12.41s1.687-9.021 5.06-12.362C66.421 1.687 70.573 0 75.474 0c4.9 0 9.037 1.687 12.41 5.06 3.405 3.34 5.108 7.462 5.108 12.362s-1.703 9.037-5.108 12.41zm-18.854-5.87c1.719 1.686 3.866 2.53 6.444 2.53s4.725-.844 6.444-2.53c1.718-1.719 2.577-3.899 2.577-6.54s-.859-4.805-2.577-6.491c-1.719-1.719-3.867-2.578-6.444-2.578-2.578 0-4.725.86-6.444 2.578-1.718 1.686-2.577 3.85-2.577 6.491 0 2.641.859 4.821 2.577 6.54zm44.058 10.882c-5.027 0-9.196-1.654-12.505-4.964-3.278-3.341-4.917-7.494-4.917-12.458s1.64-9.1 4.917-12.41C103.892 1.67 108.061 0 113.088 0c3.023 0 5.824.716 8.401 2.148 2.578 1.432 4.598 3.357 6.062 5.775l-7.398 4.249c-.637-1.178-1.591-2.1-2.864-2.769-1.241-.7-2.641-1.05-4.201-1.05-2.673 0-4.836.843-6.491 2.53-1.623 1.655-2.434 3.834-2.434 6.54 0 2.704.811 4.9 2.434 6.586 1.655 1.655 3.818 2.482 6.491 2.482 1.56 0 2.96-.334 4.201-1.002 1.273-.7 2.227-1.655 2.864-2.864l7.398 4.296c-1.464 2.45-3.484 4.391-6.062 5.823-2.545 1.4-5.346 2.1-8.401 2.1zm45.206-.716h-9.546l-9.594-14.94v14.94h-8.544V.716h8.544v14.033L148.27.716h9.547L147.22 16.945l11.074 17.183zm1.712 6.349h20.381v-2.292h-20.381v2.291zM198.517.716c4.615 0 8.465 1.607 11.552 4.82 3.118 3.183 4.677 7.145 4.677 11.886s-1.559 8.72-4.677 11.933c-3.087 3.182-6.937 4.773-11.552 4.773h-13.603V.716h13.603zm0 25.155c2.323 0 4.217-.764 5.681-2.291 1.463-1.56 2.195-3.612 2.195-6.158 0-2.546-.732-4.582-2.195-6.11-1.464-1.559-3.358-2.338-5.681-2.338h-4.82V25.87h4.82zm30.771 8.973c-3.532 0-6.459-.748-8.782-2.243-2.323-1.496-3.946-3.517-4.869-6.062l7.303-4.248c1.241 2.96 3.437 4.439 6.587 4.439 2.609 0 3.914-.748 3.914-2.244 0-.986-.748-1.782-2.243-2.386-.637-.255-2.037-.684-4.201-1.289-3.055-.891-5.473-2.132-7.255-3.723-1.782-1.623-2.673-3.866-2.673-6.73 0-3.087 1.098-5.585 3.294-7.494C222.59.954 225.358 0 228.668 0c2.8 0 5.282.652 7.446 1.957 2.164 1.305 3.819 3.198 4.964 5.68l-7.16 4.2c-1.05-2.482-2.784-3.723-5.202-3.723-1.019 0-1.798.207-2.339.62-.509.415-.764.94-.764 1.576 0 .732.382 1.352 1.146 1.862.795.509 2.323 1.097 4.582 1.766 1.623.477 2.927.922 3.914 1.336.986.414 2.068 1.018 3.246 1.814 1.177.764 2.052 1.766 2.625 3.007.573 1.21.859 2.641.859 4.296 0 3.278-1.161 5.84-3.484 7.685-2.323 1.845-5.394 2.768-9.213 2.768z" fill="#F15A24"/></svg>