<svg width="141" height="37" fill="none" xmlns="http://www.w3.org/2000/svg"><path d="M3.578 24.01H.028v9.558h3.55c2.604 0 4.453-2.144 4.453-4.779S6.18 24.01 3.578 24.01zm0 8.875H.744v-8.192h2.834c2.226 0 3.75 1.83 3.75 4.096 0 2.267-1.524 4.096-3.75 4.096zm9.156-6.295c-2.065 0-3.495 1.557-3.495 3.564 0 2.062 1.47 3.564 3.549 3.564 1.336 0 2.388-.614 2.942-1.543l-.594-.355c-.391.724-1.228 1.243-2.334 1.243-1.539 0-2.7-1.01-2.861-2.554h6.112c0-.109.014-.218.014-.327 0-1.87-1.282-3.591-3.333-3.591zm0 .656c1.322 0 2.483.929 2.631 2.595H9.941c.135-1.516 1.255-2.595 2.793-2.595zm5.106 1.284c0-.82.741-1.284 1.618-1.284.743 0 1.444.328 1.728 1.038l.566-.328c-.364-.833-1.2-1.365-2.294-1.365-1.376 0-2.293.86-2.293 1.939 0 2.457 4.088 1.392 4.088 3.25 0 .86-.796 1.283-1.74 1.283-1.013 0-1.741-.464-1.984-1.202l-.58.342c.323.873 1.214 1.515 2.563 1.515 1.444 0 2.416-.819 2.416-1.939 0-2.498-4.089-1.42-4.089-3.25zm5.992-3.441c.297 0 .54-.246.54-.546a.542.542 0 00-.54-.533.542.542 0 00-.54.533c0 .3.243.546.54.546zm-.337 8.479h.674v-6.827h-.674v6.827zm8.745-6.827v1.584c-.553-1.052-1.592-1.734-2.901-1.734-1.93 0-3.495 1.543-3.495 3.563 0 2.021 1.565 3.564 3.495 3.564 1.309 0 2.348-.683 2.901-1.734v1.256c0 1.557-.999 2.554-2.685 2.554-1.485 0-2.24-.601-2.591-1.325l-.594.342c.486.996 1.606 1.638 3.185 1.638 1.862 0 3.36-1.16 3.36-3.209v-6.499h-.675zm-2.86 6.322c-1.606 0-2.861-1.284-2.861-2.909 0-1.624 1.255-2.908 2.86-2.908 1.606 0 2.861 1.284 2.861 2.909 0 1.624-1.255 2.908-2.86 2.908zm8.709-6.473c-1.04 0-1.903.438-2.416 1.448v-1.297H35v6.827h.674v-3.605c0-1.843 1.04-2.717 2.362-2.717 1.268 0 1.983.82 1.983 2.076v4.246h.688v-4.246c0-1.652-1.012-2.731-2.617-2.731zm15.559 6.719l-1.296-1.38c.351-.6.58-1.31.702-2.061l-.634-.369c-.095.751-.297 1.393-.567 1.898l-2.955-3.127c-.58-.6-1.026-1.147-1.026-1.925 0-1.051.837-1.789 1.957-1.789.958 0 1.74.56 2.024 1.461l.594-.355c-.405-1.133-1.444-1.802-2.632-1.802-1.403 0-2.671.942-2.671 2.512 0 .806.324 1.366.755 1.871-1.228.546-1.875 1.598-1.875 2.785 0 1.653 1.214 2.69 3.076 2.69 1.255 0 2.186-.464 2.82-1.201l1.093 1.16.635-.368zm-4.575-.287c-1.416 0-2.32-.751-2.32-2.007 0-.874.458-1.789 1.646-2.24l3.036 3.223c-.594.683-1.404 1.024-2.362 1.024zm13.263-9.012h-3.549v9.558h3.549c2.604 0 4.453-2.144 4.453-4.779s-1.849-4.779-4.453-4.779zm0 8.875h-2.834v-8.192h2.834c2.226 0 3.751 1.83 3.751 4.096 0 2.267-1.525 4.096-3.751 4.096zm9.156-6.295c-2.064 0-3.495 1.557-3.495 3.564 0 2.062 1.471 3.564 3.55 3.564 1.335 0 2.388-.614 2.94-1.543l-.593-.355c-.391.724-1.228 1.243-2.334 1.243-1.538 0-2.699-1.01-2.86-2.554h6.112c0-.109.013-.218.013-.327 0-1.87-1.282-3.591-3.333-3.591zm0 .656c1.323 0 2.483.929 2.632 2.595h-5.425c.135-1.516 1.255-2.595 2.793-2.595zm9.598-.505l-2.55 6.117-2.536-6.117h-.729l2.86 6.827h.824l2.847-6.827h-.715zm4.713-.151c-2.064 0-3.495 1.557-3.495 3.564 0 2.062 1.471 3.564 3.549 3.564 1.336 0 2.388-.614 2.942-1.543l-.594-.355c-.391.724-1.228 1.243-2.334 1.243-1.539 0-2.7-1.01-2.861-2.554h6.112c0-.109.014-.218.014-.327 0-1.87-1.282-3.591-3.333-3.591zm0 .656c1.322 0 2.483.929 2.631 2.595H83.01c.135-1.516 1.255-2.595 2.793-2.595zm4.91 6.322h.675v-9.967h-.675v9.967zm5.844.15c1.957 0 3.535-1.543 3.535-3.564 0-2.02-1.578-3.563-3.535-3.563-1.97 0-3.549 1.543-3.549 3.563 0 2.021 1.579 3.564 3.55 3.564zm0-.655c-1.606 0-2.86-1.284-2.86-2.909 0-1.624 1.254-2.908 2.86-2.908 1.606 0 2.847 1.284 2.847 2.909 0 1.624-1.241 2.908-2.847 2.908zm8.735-6.473c-1.309 0-2.348.683-2.901 1.735V26.74h-.675v9.558h.675v-4.315c.553 1.051 1.592 1.734 2.901 1.734 1.93 0 3.495-1.543 3.495-3.564 0-2.02-1.565-3.563-3.495-3.563zm-.041 6.473c-1.605 0-2.86-1.284-2.86-2.909 0-1.624 1.255-2.908 2.86-2.908 1.606 0 2.861 1.284 2.861 2.909 0 1.624-1.255 2.908-2.861 2.908zm12.368-6.473c-.904 0-1.768.438-2.254 1.393-.35-.9-1.12-1.392-2.105-1.392-.863 0-1.673.382-2.172 1.324v-1.174h-.675v6.827h.675v-3.81c0-1.747.985-2.512 2.091-2.512 1.039 0 1.728.697 1.728 1.994v4.328h.674v-3.81c0-1.747.891-2.512 2.024-2.512 1.053 0 1.795.697 1.795 1.994v4.328h.675V29.24c0-1.707-1.026-2.65-2.456-2.65zm7.4 0c-2.064 0-3.495 1.557-3.495 3.564 0 2.062 1.471 3.564 3.549 3.564 1.336 0 2.389-.614 2.942-1.543l-.594-.355c-.391.724-1.228 1.243-2.334 1.243-1.539 0-2.699-1.01-2.861-2.554h6.113c0-.109.013-.218.013-.327 0-1.87-1.282-3.591-3.333-3.591zm0 .656c1.323 0 2.483.929 2.631 2.595h-5.424c.135-1.516 1.255-2.595 2.793-2.595zm8-.656c-1.039 0-1.902.438-2.415 1.448v-1.297h-.675v6.827h.675v-3.605c0-1.843 1.039-2.717 2.361-2.717 1.269 0 1.984.82 1.984 2.076v4.246h.688v-4.246c0-1.652-1.012-2.731-2.618-2.731zm7.981.82v-.669h-2.011v-1.912l-.688.205v1.707h-1.484v.67h1.484v4.437c0 1.556.931 1.993 2.699 1.72v-.614c-1.376.123-2.011.095-2.011-1.106V27.41H141zM16.13 19.885h-5.562l-5.59-8.705v8.705H0V.417h4.978v8.176L10.29.417h5.562L9.678 9.873l6.452 10.012zm11.565 0l-3.392-6.286h-1.78v6.286h-4.978V.417h7.787c1.983 0 3.643.64 4.978 1.92 1.353 1.26 2.03 2.864 2.03 4.81a6.126 6.126 0 01-.89 3.226 6.579 6.579 0 01-2.42 2.309l4.005 7.203h-5.34zm-5.172-14.88v4.367h2.753c.612.019 1.112-.176 1.502-.584.39-.408.584-.936.584-1.585 0-.649-.195-1.177-.584-1.585-.39-.408-.89-.612-1.502-.612h-2.753zm28.682 12.377c-1.965 1.946-4.375 2.92-7.23 2.92-2.856 0-5.275-.974-7.26-2.92-1.964-1.966-2.947-4.376-2.947-7.231 0-2.855.983-5.256 2.948-7.203C38.7.983 41.119 0 43.974 0c2.856 0 5.266.983 7.231 2.948 1.984 1.947 2.976 4.348 2.976 7.203 0 2.855-.992 5.265-2.976 7.23zM40.22 13.96c1.001.983 2.253 1.474 3.755 1.474 1.501 0 2.753-.491 3.754-1.474 1.001-1.001 1.502-2.271 1.502-3.81 0-1.539-.5-2.8-1.502-3.782-1.001-1.002-2.253-1.502-3.755-1.502-1.501 0-2.753.5-3.754 1.502-1.001.982-1.502 2.243-1.502 3.782 0 1.539.5 2.809 1.502 3.81zm25.67 6.342c-2.929 0-5.358-.964-7.286-2.892-1.91-1.947-2.864-4.367-2.864-7.26 0-2.891.954-5.302 2.864-7.23C60.532.973 62.961 0 65.89 0c1.762 0 3.393.417 4.895 1.251 1.502.835 2.68 1.957 3.532 3.366l-4.31 2.475c-.371-.686-.928-1.224-1.67-1.613-.722-.408-1.538-.612-2.447-.612-1.557 0-2.818.491-3.782 1.474-.945.964-1.418 2.234-1.418 3.81s.473 2.855 1.418 3.838c.964.964 2.225 1.446 3.782 1.446.909 0 1.725-.195 2.448-.584.741-.408 1.298-.964 1.668-1.669l4.311 2.503c-.853 1.428-2.03 2.559-3.532 3.393-1.483.816-3.115 1.224-4.895 1.224zm26.34-.417h-5.563l-5.59-8.705v8.705H76.1V.417h4.978v8.176L86.39.417h5.562l-6.174 9.456 6.452 10.012zm.997 3.698h11.875V22.25H93.226v1.334zM115.665.417c2.689 0 4.932.936 6.73 2.809 1.817 1.854 2.726 4.162 2.726 6.925 0 2.762-.909 5.08-2.726 6.953-1.798 1.854-4.041 2.78-6.73 2.78h-7.926V.418h7.926zm0 14.656c1.354 0 2.457-.445 3.31-1.335.852-.908 1.279-2.104 1.279-3.587s-.427-2.67-1.279-3.56c-.853-.908-1.956-1.363-3.31-1.363h-2.809v9.845h2.809zm17.929 5.229c-2.058 0-3.764-.436-5.117-1.307-1.354-.872-2.299-2.049-2.837-3.532l4.255-2.475c.723 1.724 2.002 2.586 3.838 2.586 1.52 0 2.28-.436 2.28-1.307 0-.575-.436-1.038-1.307-1.39-.371-.149-1.186-.4-2.447-.752-1.78-.519-3.189-1.242-4.227-2.169-1.039-.945-1.558-2.252-1.558-3.921 0-1.799.64-3.254 1.919-4.366C129.691.556 131.304 0 133.232 0c1.632 0 3.078.38 4.339 1.14 1.26.76 2.224 1.864 2.892 3.31l-4.172 2.447c-.612-1.446-1.622-2.17-3.031-2.17-.593 0-1.048.121-1.363.362a1.134 1.134 0 00-.445.918c0 .427.223.788.668 1.085.463.296 1.353.64 2.67 1.029.945.278 1.705.537 2.28.778.575.241 1.205.594 1.891 1.057a4.11 4.11 0 011.53 1.752c.333.705.5 1.54.5 2.503 0 1.91-.676 3.402-2.03 4.478-1.353 1.075-3.142 1.613-5.367 1.613z" fill="#fff"/></svg>