<svg width="32" height="35" fill="none" xmlns="http://www.w3.org/2000/svg"><path d="M23.242 27.07a.684.684 0 100 1.368.684.684 0 000-1.368z" fill="#000"/><path d="M24.925 24.86l-3.249-1.083-1.166-2.333a7.487 7.487 0 002.026-3.96l.146-.873h1.244c1.13 0 2.05-.92 2.05-2.05v-4.307C25.977 4.6 21.377 0 15.724 0A10.248 10.248 0 005.469 10.254v4.306c0 .892.571 1.652 1.367 1.934v.8c0 1.132.92 2.052 2.05 2.052h.601a7.419 7.419 0 001.448 2.1l-1.166 2.331-3.25 1.083C2.743 26.12 0 30.097 0 34.316c0 .378.306.684.684.684h30.078a.684.684 0 00.683-.684c0-4.22-2.742-8.196-6.52-9.456zm-.316-10.3a.684.684 0 01-.683.684h-1.043a44.63 44.63 0 00.336-4.189l.003-.117h1.387v3.622zm-17.09.684a.684.684 0 01-.683-.684v-3.623h1.387l.008.216v.007a44.36 44.36 0 00.332 4.084H7.52zm1.368 2.735a.684.684 0 01-.684-.684v-.684h.56l.146.872c.028.166.062.331.101.495h-.123zM8.204 9.57H6.862a8.882 8.882 0 018.86-8.203c4.67 0 8.511 3.621 8.861 8.203h-1.342c-.05-3.775-3.123-6.836-6.907-6.836h-1.223c-3.783 0-6.858 3.061-6.907 6.836zm6.907-5.468h1.223c3.064 0 5.543 2.505 5.541 5.565 0 .215-.002.402-.005.573v.006l-.855-.122a10.985 10.985 0 01-6.176-3.088.684.684 0 00-.484-.2 6.184 6.184 0 00-4.754 2.25c.286-2.784 2.639-4.984 5.51-4.984zm-4.684 13.877c-.342-1.139-.733-4.488-.82-6.635l.92-1.227a4.812 4.812 0 013.558-1.906 12.365 12.365 0 006.736 3.266l1.007.144a42.037 42.037 0 01-.402 4.178v.002c-.063.423-.112.696-.238 1.457-.362 2.172-1.983 4.135-4.121 4.67a5.56 5.56 0 01-2.688 0c-1.335-.334-2.56-1.258-3.35-2.582h1.393a2.054 2.054 0 001.933 1.367h1.368a2.05 2.05 0 100-4.102h-1.368c-.91 0-1.66.589-1.934 1.367h-1.993zm3.871 5.333a6.915 6.915 0 002.542.057l-1.207 1.277-1.335-1.334zm.395 2.328l-2.168 2.293a26.054 26.054 0 01-1.53-3.549l.813-1.628 2.885 2.884zm4.828-3.116l.93 1.86a26.043 26.043 0 01-1.53 3.55l-2.321-2.32 2.921-3.09zm-5.85-3.862c0-.377.307-.683.684-.683h1.368a.684.684 0 010 1.367h-1.368a.684.684 0 01-.683-.684zM1.396 33.632c.27-3.386 2.524-6.464 5.557-7.475l2.878-.96a27.41 27.41 0 001.945 4.221l.004.007c.56.984 1.19 1.945 1.871 2.858l.841 1.35H1.396zm14.328-.608l-.927-1.489a.673.673 0 00-.034-.049 26.095 26.095 0 01-1.54-2.3l2.438-2.579 2.569 2.57a26.042 26.042 0 01-1.546 2.31c-.033.044.014-.026-.96 1.537zm1.23.609l.842-1.35a27.422 27.422 0 001.884-2.88l.01-.018.001-.003a27.383 27.383 0 001.925-4.184l2.878.959c3.033 1.011 5.287 4.09 5.558 7.476H16.954z" fill="#000"/><path d="M27.996 30.866a6.832 6.832 0 00-1.935-2.349.683.683 0 10-.834 1.084 5.46 5.46 0 011.546 1.876.684.684 0 001.223-.61z" fill="#000"/></svg>