<svg width="65" height="72" fill="none" xmlns="http://www.w3.org/2000/svg"><path d="M47.642 55.506a1.383 1.383 0 100 2.766 1.383 1.383 0 000-2.766z" fill="#000"/><path d="M51.046 51.035l-6.571-2.19-2.359-4.72c2.125-2.163 3.6-5.025 4.098-8.01l.294-1.765h2.516a4.152 4.152 0 004.148-4.148v-8.711C53.172 10.054 43.869.75 32.435.75c-11.464 0-20.737 9.278-20.737 20.741v8.711a4.155 4.155 0 002.765 3.91v1.621a4.153 4.153 0 004.147 4.148h1.214a15.003 15.003 0 002.928 4.247l-2.357 4.717-6.571 2.19C6.184 53.583.638 61.628.638 70.163c0 .764.619 1.383 1.383 1.383h60.828c.763 0 1.383-.62 1.383-1.383 0-8.535-5.546-16.58-13.186-19.128zm-.64-20.833c0 .763-.62 1.383-1.382 1.383h-2.11c.352-2.723.586-5.62.68-8.473l.008-.238h2.805v7.328zm-34.56 1.383c-.763 0-1.383-.62-1.383-1.383v-7.328h2.806l.015.435v.016c.097 2.775.328 5.597.672 8.26h-2.11zm2.764 5.53c-.762 0-1.382-.62-1.382-1.382V34.35h1.133l.294 1.765c.056.335.125.669.205 1h-.25zm-1.38-17.007h-2.715c.7-9.267 8.433-16.593 17.92-16.593 9.444 0 17.21 7.325 17.92 16.593H47.64c-.1-7.636-6.317-13.827-13.968-13.827h-2.474c-7.65 0-13.869 6.19-13.968 13.827zM31.198 9.046h2.474c6.195 0 11.209 5.068 11.205 11.257 0 .435-.004.814-.01 1.159l-.001.014-1.73-.248a22.212 22.212 0 01-12.489-6.246 1.381 1.381 0 00-.977-.405 12.506 12.506 0 00-9.616 4.55c.579-5.63 5.338-10.08 11.144-10.08zm-9.472 28.07c-.692-2.303-1.484-9.078-1.659-13.42l1.86-2.481a9.73 9.73 0 017.197-3.857 25.004 25.004 0 0013.622 6.608l2.035.29a85.108 85.108 0 01-.812 8.452v.003c-.127.857-.227 1.408-.482 2.948-.732 4.392-4.009 8.364-8.334 9.446a11.23 11.23 0 01-5.435 0c-2.701-.675-5.178-2.544-6.776-5.224h2.818a4.154 4.154 0 003.91 2.766h2.765a4.147 4.147 0 004.147-4.148 4.153 4.153 0 00-4.147-4.149H29.67a4.15 4.15 0 00-3.912 2.766h-4.032zm7.828 10.787c.948.2 1.915.302 2.88.302.757 0 1.514-.063 2.262-.186l-2.443 2.584-2.7-2.7zm.798 4.71l-4.385 4.638a52.68 52.68 0 01-3.095-7.178l1.647-3.294 5.833 5.834zm9.765-6.303l1.88 3.762a52.678 52.678 0 01-3.095 7.181l-4.694-4.694 5.909-6.249zm-11.83-7.81c0-.764.62-1.383 1.383-1.383h2.765a1.383 1.383 0 010 2.765H29.67c-.763 0-1.383-.62-1.383-1.382zM3.458 68.78c.548-6.85 5.106-13.077 11.24-15.123l5.82-1.94a55.422 55.422 0 003.934 8.538l.008.014a55.46 55.46 0 003.784 5.78l1.7 2.73H3.459zm28.977-1.233l-1.875-3.01a1.469 1.469 0 00-.067-.099 52.687 52.687 0 01-3.115-4.655l4.93-5.214 5.195 5.196a52.652 52.652 0 01-3.126 4.673c-.068.09.029-.052-1.942 3.109zm2.49 1.233l1.7-2.731a55.448 55.448 0 003.81-5.826c.008-.012.014-.024.021-.037l.003-.004a55.391 55.391 0 003.893-8.464l5.82 1.94c6.134 2.045 10.691 8.272 11.24 15.122H34.924z" fill="#000"/><path d="M57.256 63.185a13.825 13.825 0 00-3.913-4.752 1.382 1.382 0 10-1.686 2.192 11.044 11.044 0 013.126 3.796 1.382 1.382 0 102.473-1.236z" fill="#000"/></svg>