<svg width="562" height="73" fill="none" xmlns="http://www.w3.org/2000/svg"><path d="M45.7 5.776l-.415.91.005.002.41-.912zm10.175 34.368l.84.544.004-.006-.843-.538zM45.7 48.592l.403.915.006-.003-.41-.912zm-28.993 2.88v-1h-1v1h1zm0 18.528v1h1v-1h-1zM1.155 70h-1v1h1v-1zm0-67.2v-1h-1v1h1zm38.88 33.024l.633.775.006-.005.006-.005-.645-.765zm0-17.28l-.644.765.006.005.006.005.633-.775zm-23.327-3.072v-1h-1v1h1zm0 23.328h-1v1h1v-1zm13.536-35c5.842 0 10.847.974 15.04 2.886l.83-1.82C41.604 2.81 36.304 1.8 30.244 1.8v2zM45.29 6.688c4.26 1.915 7.495 4.612 9.747 8.08l1.677-1.088C54.23 9.852 50.68 6.917 46.11 4.864l-.82 1.824zm9.747 8.08c2.248 3.463 3.39 7.588 3.39 12.416h2c0-5.156-1.225-9.671-3.713-13.505l-1.677 1.09zm3.39 12.416c0 4.76-1.141 8.89-3.395 12.422l1.687 1.076c2.482-3.892 3.709-8.403 3.709-13.498h-2zm-3.39 12.415c-2.252 3.47-5.486 6.166-9.747 8.08l.82 1.825c4.57-2.053 8.12-4.988 10.604-8.816L55.037 39.6zm-9.741 8.078c-4.197 1.852-9.206 2.795-15.052 2.795v2c6.057 0 11.352-.977 15.86-2.965l-.808-1.83zm-15.052 2.795H16.706v2h13.537v-2zm-14.537 1V70h2V51.472h-2zm1 17.528H1.155v2h15.553v-2zM2.155 70V2.8h-2V70h2zm-1-66.2h29.088v-2H1.157v2zm28.224 36c4.794 0 8.61-1.015 11.289-3.201l-1.265-1.55C37.22 36.831 33.93 37.8 29.38 37.8v2zm11.3-3.211c2.697-2.27 4.005-5.453 4.005-9.405h-2c0 3.472-1.125 6.05-3.293 7.875l1.289 1.53zm4.005-9.405c0-4.009-1.304-7.202-4.016-9.415l-1.265 1.55c2.152 1.755 3.28 4.322 3.28 7.865h2zm-4.004-9.405c-2.68-2.257-6.5-3.307-11.3-3.307v2c4.543 0 7.828.998 10.011 2.837l1.289-1.53zm-11.3-3.307H16.707v2H29.38v-2zm-13.672 1V38.8h2V15.472h-2zm1 24.328H29.38v-2H16.707v2zM113.346 70l-.823.57.299.43h.524v-1zm-12.96-18.72l.822-.57-.299-.43h-.523v1zm-14.305 0v-1h-1v1h1zm0 18.72v1h1v-1h-1zM70.53 70h-1v1h1v-1zm0-67.2v-1h-1v1h1zm44.544 2.976l-.415.91.005.002.41-.912zm10.079 34.368l-.832-.555-.002.004.834.551zM114.979 48.4l-.399-.917-1.121.487.699 1.002.821-.572zM130.051 70v1h1.917l-1.097-1.572-.82.572zm-20.64-51.456l-.645.765.006.005.006.005.633-.775zm-23.329-3.072v-1h-1v1h1zm0 23.424h-1v1h1v-1zm23.329-3.072l.644.765-.644-.765zm4.758 33.607l-12.96-18.72-1.645 1.138 12.96 18.72 1.645-1.138zM100.387 50.28h-.769v2h.769v-2zm-.769 0H86.084v2h13.535v-2zm-14.535 1V70h2V51.28h-2zm1 17.72H70.53v2h15.551v-2zM71.53 70V2.8h-2V70h2zm-1-66.2h29.087v-2H70.531v2zm29.087 0c5.843 0 10.848.974 15.042 2.886l.829-1.82C110.979 2.81 105.68 1.8 99.619 1.8v2zm15.047 2.888c4.261 1.915 7.495 4.612 9.747 8.08l1.677-1.088c-2.484-3.828-6.034-6.763-10.605-8.816l-.819 1.824zm9.747 8.08c2.248 3.463 3.391 7.588 3.391 12.416h2c0-5.156-1.226-9.671-3.714-13.505l-1.677 1.09zm3.391 12.416c0 4.823-1.173 8.944-3.481 12.405l1.665 1.11c2.556-3.835 3.816-8.354 3.816-13.515h-2zm-3.483 12.409c-2.248 3.403-5.48 6.037-9.74 7.89l.797 1.834c4.572-1.987 8.125-4.857 10.612-8.622l-1.669-1.102zm-10.162 9.38l15.072 21.6 1.641-1.145-15.072-21.6-1.641 1.144zM130.051 69h-16.704v2h16.704v-2zm-15.992-41.816c0-4.009-1.304-7.202-4.016-9.415l-1.265 1.55c2.152 1.755 3.281 4.322 3.281 7.865h2zm-4.004-9.405c-2.681-2.257-6.5-3.307-11.3-3.307v2c4.543 0 7.828.998 10.011 2.837l1.289-1.53zm-11.3-3.307H86.082v2h12.671v-2zm-13.672 1v23.424h2V15.472h-2zm1 24.424h12.671v-2H86.082v2zm12.671 0c4.801 0 8.62-1.05 11.301-3.307l-1.289-1.53c-2.183 1.839-5.468 2.837-10.012 2.837v2zm11.301-3.307c2.696-2.27 4.004-5.453 4.004-9.405h-2c0 3.472-1.125 6.05-3.293 7.875l1.289 1.53zm44.701 30.051l-.475.88.004.002.471-.882zm-13.152-12.384l-.861.508.004.006.003.007.854-.521zm0-35.616l-.856-.516-.002.003.858.513zm13.152-12.48l-.471-.882-.004.002.475.88zm50.88 12.48l-.856.516.002.005.854-.521zm0 35.616l.854.52.003-.004-.857-.516zM192.484 66.64l.476.88-.476-.88zm-8.064-11.424l.489.873.006-.004.007-.004-.502-.865zm7.488-7.68l-.869-.494-.004.006-.003.007.876.481zm0-22.272l-.876.481.003.007.004.006.869-.494zm-7.488-7.584l-.501.865.006.004.007.003.488-.872zm-21.504 0l.489.872.006-.003.007-.004-.502-.865zm-7.584 7.584l-.869-.494-.004.006-.003.007.876.481zm0 22.272l-.876.481.003.007.004.006.869-.494zm7.584 7.68l-.501.865.006.004.007.004.488-.873zm10.752 14.936c-6.827 0-12.967-1.47-18.441-4.394l-.942 1.764c5.79 3.093 12.258 4.63 19.383 4.63v-2zm-18.436-4.392c-5.418-2.926-9.669-6.932-12.774-12.025l-1.708 1.042c3.295 5.403 7.812 9.653 13.531 12.743l.951-1.76zm-12.767-12.012C139.427 48.6 137.9 42.826 137.9 36.4h-2c0 6.758 1.61 12.888 4.843 18.364l1.722-1.016zM137.9 36.4c0-6.426 1.527-12.166 4.563-17.247l-1.717-1.026C137.51 23.542 135.9 29.642 135.9 36.4h2zm4.561-17.244c3.106-5.155 7.357-9.191 12.771-12.116l-.951-1.76c-5.722 3.091-10.239 7.375-13.533 12.844l1.713 1.032zm12.766-12.114c5.474-2.923 11.614-4.394 18.441-4.394v-2c-7.125 0-13.593 1.537-19.383 4.63l.942 1.764zm18.441-4.394c6.828 0 12.933 1.47 18.341 4.392l.951-1.76C187.231 2.185 180.793.648 173.668.648v2zm18.341 4.392c5.414 2.925 9.665 6.96 12.771 12.116l1.713-1.032c-3.294-5.468-7.811-9.753-13.533-12.844l-.951 1.76zm12.773 12.12c3.098 5.08 4.654 10.818 4.654 17.24h2c0-6.762-1.643-12.864-4.946-18.28l-1.708 1.04zm4.654 17.24c0 6.422-1.556 12.194-4.656 17.34l1.713 1.032c3.3-5.478 4.943-11.61 4.943-18.372h-2zm-4.654 17.335c-3.105 5.093-7.356 9.099-12.773 12.025l.951 1.76c5.718-3.09 10.235-7.34 13.53-12.743l-1.708-1.042zM192.009 65.76c-5.408 2.921-11.513 4.392-18.341 4.392v2c7.125 0 13.563-1.537 19.292-4.632l-.951-1.76zm-18.341-6.856c4.125 0 7.879-.933 11.241-2.816l-.977-1.745c-3.039 1.702-6.452 2.561-10.264 2.561v2zm11.254-2.823c3.359-1.948 5.984-4.641 7.863-8.064l-1.753-.962c-1.705 3.105-4.072 5.532-7.113 7.296l1.003 1.73zm7.856-8.05c1.95-3.431 2.914-7.317 2.914-11.631h-2c0 4.006-.892 7.544-2.653 10.642l1.739.988zm2.914-11.631c0-4.314-.964-8.2-2.914-11.63l-1.739.988c1.761 3.098 2.653 6.636 2.653 10.642h2zm-2.907-11.617c-1.881-3.426-4.51-6.09-7.876-7.976l-.977 1.745c3.034 1.7 5.396 4.09 7.1 7.193l1.753-.962zm-7.863-7.968c-3.364-1.95-7.123-2.919-11.254-2.919v2c3.805 0 7.214.888 10.251 2.649l1.003-1.73zm-11.254-2.919c-4.131 0-7.89.968-11.253 2.919l1.003 1.73c3.036-1.761 6.445-2.649 10.25-2.649v-2zm-11.24 2.912c-3.363 1.883-6.021 4.543-7.965 7.962l1.739.988c1.768-3.11 4.166-5.505 7.203-7.206l-.977-1.744zm-7.972 7.975c-1.882 3.428-2.812 7.309-2.812 11.617h2c0-4.012.863-7.555 2.565-10.655l-1.753-.962zM151.644 36.4c0 4.308.93 8.19 2.812 11.617l1.753-.962c-1.702-3.1-2.565-6.643-2.565-10.655h-2zm2.819 11.63c1.942 3.416 4.596 6.105 7.952 8.051l1.003-1.73c-3.044-1.766-5.447-4.197-7.216-7.31l-1.739.99zm7.965 8.059c3.361 1.882 7.116 2.815 11.24 2.815v-2c-3.811 0-7.225-.859-10.263-2.56l-.977 1.745zm109.04-21.033l-.463-.886-2.131 1.113 2.292.726.302-.953zm9.024 6.144l-.798.603.007.008.791-.611zm-3.648 24.096l.568.823.003-.002-.571-.821zM222.124 70h-1v1h1v-1zm0-67.2v-1h-1v1h1zm51.648 4.704l-.584.811.005.004.579-.815zm4.224 21.504l-.848-.53-.005.008-.004.008.857.514zM237.58 14.512v-1h-1v1h1zm0 15.84h-1v1h1v-1zm24.192-13.824l-.561.828.01.006.009.006.542-.84zm3.168 39.744l-.537-.844-.011.008.548.836zM237.58 41.68v-1h-1v1h1zm0 16.608h-1v1h1v-1zm33.586-22.279c3.667 1.161 6.492 3.098 8.528 5.794l1.596-1.206c-2.315-3.064-5.506-5.223-9.52-6.494l-.604 1.906zm8.535 5.802c2.019 2.613 3.055 5.875 3.055 9.853h2c0-4.342-1.139-8.056-3.472-11.075l-1.583 1.222zm3.055 9.853c0 5.58-2.159 9.808-6.482 12.81l1.141 1.643c4.892-3.397 7.341-8.257 7.341-14.453h-2zm-6.48 12.809c-4.305 2.971-10.725 4.527-19.4 4.527v2c8.861 0 15.753-1.58 20.536-4.881l-1.136-1.646zM256.876 69h-34.752v2h34.752v-2zm-33.752 1V2.8h-2V70h2zm-1-66.2h32.832v-2h-32.832v2zm32.832 0c8.086 0 14.118 1.551 18.232 4.515l1.169-1.622C269.766 3.385 263.254 1.8 254.956 1.8v2zm18.237 4.52c4.155 2.95 6.203 6.903 6.203 11.952h2c0-5.703-2.367-10.261-7.045-13.583l-1.158 1.63zm6.203 11.952c0 3.092-.755 5.818-2.248 8.206l1.696 1.06c1.708-2.732 2.552-5.83 2.552-9.266h-2zm-2.257 8.222c-1.435 2.391-3.47 4.283-6.134 5.676l.927 1.772c2.968-1.551 5.285-3.691 6.922-6.42l-1.715-1.028zM236.58 14.512v15.84h2v-15.84h-2zm1 16.84h15.456v-2H237.58v2zm15.456 0c3.93 0 7.075-.683 9.297-2.188l-1.122-1.656c-1.746 1.183-4.424 1.844-8.175 1.844v2zm9.297-2.188c2.288-1.55 3.415-3.861 3.415-6.78h-2c0 2.33-.857 3.986-2.537 5.124l1.122 1.656zm3.415-6.78c0-2.919-1.128-5.21-3.434-6.696l-1.084 1.68c1.663 1.073 2.518 2.687 2.518 5.016h2zm-3.415-6.684c-2.222-1.505-5.367-2.188-9.297-2.188v2c3.751 0 6.429.661 8.175 1.844l1.122-1.656zm-9.297-2.188H237.58v2h15.456v-2zm2.688 45.776c4.174 0 7.478-.679 9.765-2.18l-1.097-1.672c-1.809 1.187-4.649 1.852-8.668 1.852v2zm9.753-2.172c2.441-1.553 3.631-3.977 3.631-7.084h-2c0 2.525-.921 4.262-2.705 5.396l1.074 1.688zm3.631-7.084c0-3.07-1.161-5.49-3.537-7.093-2.305-1.555-5.638-2.259-9.847-2.259v2c4.047 0 6.907.688 8.729 1.917 1.752 1.182 2.655 2.937 2.655 5.435h2zm-13.384-9.352H237.58v2h18.144v-2zm-19.144 1v16.608h2V41.68h-2zm1 17.608h18.144v-2H237.58v2zM295.53 2.8v-1h-1v1h1zm15.552 0h1v-1h-1v1zm0 54.528h-1v1h1v-1zm33.697 0h1v-1h-1v1zm0 12.672v1h1v-1h-1zm-49.249 0h-1v1h1v-1zm0-66.2h15.552v-2H295.53v2zm14.552-1v54.528h2V2.8h-2zm1 55.528h33.697v-2h-33.697v2zm32.697-1V70h2V57.328h-2zm1 11.672H295.53v2h49.249v-2zm-48.249 1V2.8h-2V70h2zM405.5 57.52h1v-1h-1v1zm0 12.48v1h1v-1h-1zm-52.032 0h-1v1h1v-1zm0-67.2v-1h-1v1h1zm50.784 0h1v-1h-1v1zm0 12.48v1h1v-1h-1zm-35.328 0v-1h-1v1h1zm0 14.592h-1v1h1v-1zm31.2 0h1v-1h-1v1zm0 12.096v1h1v-1h-1zm-31.2 0v-1h-1v1h1zm0 15.552h-1v1h1v-1zm35.576 0V70h2V57.52h-2zm1 11.48h-52.032v2H405.5v-2zm-51.032 1V2.8h-2V70h2zm-1-66.2h50.784v-2h-50.784v2zm49.784-1v12.48h2V2.8h-2zm1 11.48h-35.328v2h35.328v-2zm-36.328 1v14.592h2V15.28h-2zm1 15.592h31.2v-2h-31.2v2zm30.2-1v12.096h2V29.872h-2zm1 11.096h-31.2v2h31.2v-2zm-32.2 1V57.52h2V41.968h-2zm1 16.552H405.5v-2h-36.576v2zM479.026 70l-1 .002.003.998h.997v-1zm-.096-40.32l1-.002-.008-3.618-1.851 3.108.859.512zm-19.776 33.216v1h.569l.29-.488-.859-.512zm-7.008 0l-.854.52.292.48h.562v-1zm-19.68-32.352l.855-.52-1.855-3.048v3.568h1zm0 39.456v1h1v-1h-1zm-14.592 0h-1v1h1v-1zm0-67.2v-1h-1v1h1zm12.864 0l.857-.516-.292-.484h-.565v1zm25.152 41.76l-.856.516.863 1.433.853-1.439-.86-.51zM480.658 2.8v-1h-.569l-.291.49.86.51zm12.768 0l1-.003-.003-.997h-.997v1zm.192 67.2v1h1.003l-.003-1.003-1 .003zm-13.592-.002l-.096-40.32-2 .004.096 40.32 2-.004zm-1.955-40.83l-19.776 33.216 1.718 1.024 19.776-33.216-1.718-1.024zm-18.917 32.728h-7.008v2h7.008v-2zm-6.153.48l-19.68-32.352-1.709 1.04 19.68 32.352 1.709-1.04zm-21.535-31.832V70h2V30.544h-2zm1 38.456h-14.592v2h14.592v-2zm-13.592 1V2.8h-2V70h2zm-1-66.2h12.864v-2h-12.864v2zm12.008-.484l25.152 41.76 1.713-1.032-25.152-41.76-1.713 1.032zM456.75 45.07l24.768-41.76-1.72-1.02-24.768 41.76 1.72 1.02zM480.658 3.8h12.768v-2h-12.768v2zm11.768-.997l.192 67.2 2-.006-.192-67.2-2 .006zM493.618 69h-14.592v2h14.592v-2zm22.568.04l-.286.958.007.002.007.002.272-.962zm-11.904-5.664l-.912-.411-.326.723.63.482.608-.794zm5.28-11.712l.591-.806-.995-.73-.508 1.125.912.411zm10.272 5.088l.307-.952-.307.952zm21.696 0l.518.855.009-.005.01-.006-.537-.844zm1.248-9.216l-.667.745.021.019.021.017.625-.781zm-4.8-2.592l-.317.949.01.003.307-.952zm-7.872-2.112l-.231.973.006.001.225-.974zm-12.576-3.648l.349-.937-.349.937zm-8.448-5.856l-.76.65.009.011.751-.661zm-.288-21.312l.829.559.005-.008-.834-.551zm9.504-7.584l-.397-.918-.005.002.402.916zm28.224-1.248l.242-.97-.242.97zM557.274 7.6l.926.377.317-.78-.713-.445-.53.848zm-4.8 11.808l-.493.87.99.562.429-1.055-.926-.377zm-28.32-3.168l-.555-.832-.006.004-.006.004.567.824zm.48 10.752l-.438.9.015.006.014.007.409-.913zm11.04 3.264l.231-.973-.008-.002-.008-.002-.215.977zm12.576 3.648l.349-.937-.349.937zm8.352 5.76l-.752.66.009.01.743-.67zm.288 21.216l-.827-.562-.003.003.83.559zm-9.6 7.488l-.397-.918.397.918zm-15.648 1.784c-5.223 0-10.283-.692-15.185-2.074l-.543 1.924c5.083 1.434 10.326 2.15 15.728 2.15v-2zm-15.17-2.07c-4.851-1.449-8.698-3.29-11.582-5.5l-1.216 1.588c3.132 2.399 7.22 4.333 12.226 5.828l.572-1.916zm-11.279-4.295l5.28-11.712-1.823-.822-5.28 11.712 1.823.822zm3.777-11.317c2.98 2.185 6.503 3.926 10.557 5.234l.614-1.904c-3.883-1.252-7.207-2.903-9.988-4.942l-1.183 1.612zm10.557 5.234c4.062 1.31 8.133 1.968 12.211 1.968v-2c-3.859 0-7.723-.622-11.597-1.872l-.614 1.904zm12.211 1.968c4.474 0 7.962-.642 10.31-2.065l-1.037-1.71c-1.875 1.137-4.916 1.775-9.273 1.775v2zm10.329-2.076c2.349-1.495 3.631-3.55 3.631-6.124h-2c0 1.778-.831 3.243-2.705 4.436l1.074 1.688zm3.631-6.124c0-1.912-.785-3.508-2.296-4.717l-1.249 1.562c1.05.84 1.545 1.867 1.545 3.155h2zm-2.253-4.681c-1.345-1.203-3.079-2.127-5.16-2.799l-.614 1.904c1.886.608 3.353 1.413 4.44 2.385l1.334-1.49zm-5.151-2.796c-1.963-.654-4.622-1.366-7.963-2.137l-.45 1.948c3.315.765 5.904 1.461 7.78 2.087l.633-1.898zm-7.957-2.136c-5.098-1.21-9.247-2.416-12.458-3.612l-.698 1.874c3.316 1.236 7.552 2.463 12.694 3.684l.462-1.946zm-12.458-3.612c-3.105-1.157-5.785-3.012-8.047-5.58l-1.501 1.322c2.474 2.808 5.427 4.857 8.85 6.132l.698-1.874zm-8.038-5.57c-2.111-2.462-3.215-5.794-3.215-10.101h-2c0 4.654 1.199 8.49 3.697 11.403l1.518-1.302zm-3.215-10.101c0-3.712 1-7.036 2.997-10.001l-1.659-1.118c-2.227 3.307-3.338 7.023-3.338 11.119h2zm3.002-10.01c1.987-3.008 4.988-5.424 9.072-7.218l-.804-1.832c-4.365 1.918-7.699 4.558-9.937 7.95l1.669 1.1zm9.067-7.216c4.13-1.788 9.202-2.702 15.251-2.702v-2c-6.24 0-11.599.942-16.045 2.866l.794 1.836zm15.251-2.702c4.207 0 8.318.502 12.333 1.506l.485-1.94A52.65 52.65 0 00533.946.648v2zm12.333 1.506c4.011 1.003 7.495 2.438 10.465 4.294l1.06-1.696c-3.174-1.984-6.859-3.493-11.04-4.538l-.485 1.94zm10.068 3.07l-4.8 11.807 1.853.754 4.8-11.808-1.853-.754zm-3.38 11.314c-6.336-3.592-12.712-5.41-19.117-5.41v2c6.01 0 12.05 1.702 18.131 5.15l.986-1.74zm-19.117-5.41c-4.424 0-7.895.71-10.251 2.28l1.109 1.664c1.868-1.245 4.862-1.944 9.142-1.944v-2zm-10.263 2.288c-2.294 1.577-3.505 3.73-3.505 6.392h2c0-1.945.836-3.505 2.638-4.744l-1.133-1.648zm-3.505 6.392c0 1.333.345 2.542 1.063 3.59.712 1.039 1.751 1.86 3.051 2.493l.875-1.798c-1.067-.52-1.804-1.138-2.276-1.826-.467-.681-.713-1.488-.713-2.459h-2zm4.143 6.097c2.527 1.13 6.287 2.235 11.233 3.328l.431-1.954c-4.909-1.083-8.509-2.154-10.847-3.2l-.817 1.826zm11.218 3.324c5.098 1.21 9.246 2.416 12.458 3.612l.698-1.874c-3.317-1.236-7.552-2.463-12.694-3.684l-.462 1.946zm12.458 3.612a19.454 19.454 0 017.949 5.483l1.503-1.32a21.457 21.457 0 00-8.754-6.037l-.698 1.874zm7.958 5.493c2.162 2.395 3.295 5.685 3.295 9.986h2c0-4.659-1.235-8.473-3.81-11.326l-1.485 1.34zm3.295 9.986c0 3.638-1.027 6.962-3.091 9.998l1.654 1.124c2.288-3.364 3.437-7.08 3.437-11.122h-2zm-3.094 10.001c-1.982 2.944-5.013 5.331-9.167 7.13l.794 1.835c4.422-1.914 7.791-4.52 10.032-7.847l-1.659-1.118zm-9.167 7.13c-4.13 1.787-9.203 2.701-15.251 2.701v2c6.239 0 11.599-.942 16.045-2.866l-.794-1.836z" fill="#EB5B31"/></svg>