<svg width="81" height="80" fill="none" xmlns="http://www.w3.org/2000/svg"><rect x="3.765" y="3.265" width="73.469" height="73.469" rx="10" fill="#fff"/><path d="M13.213 11.125h-2.022v1.991h2.022v-1.991zm2.022 0h-2.022v1.991h2.022v-1.991zm2.021 0h-2.021v1.991h2.021v-1.991zm2.022 0h-2.022v1.991h2.022v-1.991zm2.022 0h-2.022v1.991h2.021v-1.991zm2.02 0H21.3v1.991h2.02v-1.991zm2.022 0h-2.021v1.991h2.021v-1.991zm4.043 0h-2.021v1.991h2.021v-1.991zm2.022 0h-2.022v1.991h2.022v-1.991zm4.043 0h-2.022v1.991h2.022v-1.991zm2.022 0H35.45v1.991h2.022v-1.991zm8.086 0h-2.022v1.991h2.022v-1.991zm2.022 0h-2.022v1.991h2.021v-1.991zm2.02 0h-2.02v1.991h2.02v-1.991zm2.022 0h-2.021v1.991h2.021v-1.991zm2.022 0h-2.022v1.991h2.022v-1.991zm4.043 0h-2.021v1.991h2.021v-1.991zm2.022 0h-2.022v1.991h2.022v-1.991zm2.021 0h-2.02v1.991h2.021v-1.991z" fill="#09101D"/><path d="M63.752 11.125H61.73v1.991h2.022v-1.991z" fill="#09101D"/><path d="M65.773 11.125h-2.021v1.991h2.021v-1.991zm2.022 0h-2.022v1.991h2.022v-1.991zm2.021 0h-2.021v1.991h2.021v-1.991zm-56.603 1.991h-2.022v1.992h2.022v-1.992zm12.129 0h-2.021v1.992h2.021v-1.992zm8.086 0h-2.021v1.992h2.021v-1.992zm4.044 0H35.45v1.992h2.022v-1.992zm2.021 0h-2.021v1.992h2.021v-1.992zm10.107 0h-2.02v1.992h2.02v-1.992zm2.022 0h-2.021v1.992h2.021v-1.992zm2.022 0h-2.022v1.992h2.022v-1.992zm4.043 0h-2.021v1.992h2.021v-1.992zm12.129 0h-2.021v1.992h2.021v-1.992zm-56.603 1.992h-2.022v1.991h2.022v-1.991zm4.043 0h-2.021v1.991h2.021v-1.991zm2.022 0h-2.022v1.991h2.022v-1.991zm2.022 0h-2.022v1.991h2.021v-1.991zm4.042 0h-2.021v1.991h2.021v-1.991zm6.065 0h-2.022v1.991h2.022v-1.991zm2.021 0h-2.021v1.991h2.021v-1.991zm6.065 0h-2.021v1.991h2.021v-1.991zm2.022 0h-2.022v1.991h2.022v-1.991zm2.021 0h-2.021v1.991h2.021v-1.991zm4.044 0h-2.022v1.991h2.021v-1.991zm4.042 0h-2.021v1.991h2.021v-1.991zm2.022 0h-2.022v1.991h2.022v-1.991zm4.043 0h-2.021v1.991h2.021v-1.991zm4.043 0h-2.02v1.991h2.021v-1.991z" fill="#09101D"/><path d="M63.752 15.108H61.73v1.991h2.022v-1.991z" fill="#09101D"/><path d="M65.773 15.108h-2.021v1.991h2.021v-1.991zm4.043 0h-2.021v1.991h2.021v-1.991zM13.213 17.1h-2.022v1.99h2.022V17.1zm4.043 0h-2.021v1.99h2.021V17.1zm2.022 0h-2.022v1.99h2.022V17.1zm2.022 0h-2.022v1.99h2.021V17.1zm4.042 0h-2.021v1.99h2.021V17.1zm4.043 0h-2.021v1.99h2.021V17.1zm2.022 0h-2.022v1.99h2.022V17.1zm14.151 0h-2.022v1.99h2.022V17.1zm8.086 0h-2.022v1.99h2.022V17.1zm4.043 0h-2.021v1.99h2.021V17.1zm4.043 0h-2.02v1.99h2.021V17.1z" fill="#09101D"/><path d="M63.752 17.1H61.73v1.99h2.022V17.1z" fill="#09101D"/><path d="M65.773 17.1h-2.021v1.99h2.021V17.1zm4.043 0h-2.021v1.99h2.021V17.1zm-56.603 1.99h-2.022v1.992h2.022V19.09zm4.043 0h-2.021v1.992h2.021V19.09zm2.022 0h-2.022v1.992h2.022V19.09zm2.022 0h-2.022v1.992h2.021V19.09zm4.042 0h-2.021v1.992h2.021V19.09zm4.043 0h-2.021v1.992h2.021V19.09zm2.022 0h-2.022v1.992h2.022V19.09zm4.043 0h-2.022v1.992h2.022V19.09zm2.022 0H35.45v1.992h2.022V19.09zm2.021 0h-2.021v1.992h2.021V19.09zm2.022 0h-2.022v1.992h2.022V19.09zm2.021 0h-2.021v1.992h2.021V19.09zm2.022 0h-2.022v1.992h2.022V19.09zm2.022 0h-2.022v1.992h2.021V19.09zm2.02 0h-2.02v1.992h2.02V19.09zm2.022 0h-2.021v1.992h2.021V19.09zm2.022 0h-2.022v1.992h2.022V19.09zm4.043 0h-2.021v1.992h2.021V19.09zm4.043 0h-2.02v1.992h2.021V19.09z" fill="#09101D"/><path d="M63.752 19.09H61.73v1.992h2.022V19.09z" fill="#09101D"/><path d="M65.773 19.09h-2.021v1.992h2.021V19.09zm4.043 0h-2.021v1.992h2.021V19.09zm-56.603 1.992h-2.022v1.991h2.022v-1.991zm12.129 0h-2.021v1.991h2.021v-1.991zm4.043 0h-2.021v1.991h2.021v-1.991zm2.022 0h-2.022v1.991h2.022v-1.991zm2.021 0h-2.021v1.991h2.021v-1.991zm4.044 0H35.45v1.991h2.022v-1.991zm2.021 0h-2.021v1.991h2.021v-1.991zm6.065 0h-2.022v1.991h2.022v-1.991zm2.022 0h-2.022v1.991h2.021v-1.991zm2.02 0h-2.02v1.991h2.02v-1.991zm2.022 0h-2.021v1.991h2.021v-1.991zm2.022 0h-2.022v1.991h2.022v-1.991zm4.043 0h-2.021v1.991h2.021v-1.991zm12.129 0h-2.021v1.991h2.021v-1.991zm-56.603 1.991h-2.022v1.992h2.022v-1.992zm2.022 0h-2.022v1.992h2.022v-1.992zm2.021 0h-2.021v1.992h2.021v-1.992zm2.022 0h-2.022v1.992h2.022v-1.992zm2.022 0h-2.022v1.992h2.021v-1.992zm2.02 0H21.3v1.992h2.02v-1.992zm2.022 0h-2.021v1.992h2.021v-1.992zm4.043 0h-2.021v1.992h2.021v-1.992zm4.043 0h-2.021v1.992h2.021v-1.992zm4.044 0H35.45v1.992h2.022v-1.992zm4.043 0h-2.022v1.992h2.022v-1.992zm4.043 0h-2.022v1.992h2.022v-1.992zm4.042 0h-2.02v1.992h2.02v-1.992zm4.044 0h-2.022v1.992h2.022v-1.992zm4.043 0h-2.021v1.992h2.021v-1.992zm2.022 0h-2.022v1.992h2.022v-1.992zm2.021 0h-2.02v1.992h2.021v-1.992z" fill="#09101D"/><path d="M63.752 23.073H61.73v1.992h2.022v-1.992z" fill="#09101D"/><path d="M65.773 23.073h-2.021v1.992h2.021v-1.992zm2.022 0h-2.022v1.992h2.022v-1.992zm2.021 0h-2.021v1.992h2.021v-1.992zm-40.431 1.992h-2.021v1.991h2.021v-1.991zm10.108 0h-2.021v1.991h2.021v-1.991zm2.022 0h-2.022v1.991h2.022v-1.991zm2.021 0h-2.021v1.991h2.021v-1.991zm8.086 0h-2.021v1.991h2.021v-1.991zm-38.409 1.991h-2.022v1.991h2.022v-1.991zm2.022 0h-2.022v1.991h2.022v-1.991zm2.021 0h-2.021v1.991h2.021v-1.991zm4.044 0h-2.022v1.991h2.021v-1.991zm4.042 0h-2.021v1.991h2.021v-1.991zm4.043 0h-2.021v1.991h2.021v-1.991zm2.022 0h-2.022v1.991h2.022v-1.991zm6.065 0H35.45v1.991h2.022v-1.991zm8.086 0h-2.022v1.991h2.022v-1.991zm6.064 0h-2.021v1.991h2.021v-1.991zm4.044 0h-2.022v1.991h2.022v-1.991zm2.021 0h-2.021v1.991h2.021v-1.991zm2.022 0h-2.022v1.991h2.022v-1.991zm2.021 0h-2.02v1.991h2.021v-1.991z" fill="#09101D"/><path d="M63.752 27.056H61.73v1.991h2.022v-1.991zm6.064 0h-2.021v1.991h2.021v-1.991zm-56.603 1.991h-2.022v1.992h2.022v-1.992zm2.022 0h-2.022v1.992h2.022v-1.992zm12.129 0h-2.022v1.992h2.022v-1.992zm6.064 0h-2.021v1.992h2.021v-1.992zm2.022 0h-2.022v1.992h2.022v-1.992zm2.022 0H35.45v1.992h2.022v-1.992zm8.086 0h-2.022v1.992h2.022v-1.992zm8.086 0h-2.022v1.992h2.022v-1.992zm4.043 0h-2.021v1.992h2.021v-1.992zm2.022 0h-2.022v1.992h2.022v-1.992zm6.064 0h-2.021v1.992h2.021v-1.992zm4.043 0h-2.021v1.992h2.021v-1.992zm-54.581 1.992h-2.022v1.991h2.022v-1.99zm2.021 0h-2.021v1.991h2.021v-1.99zm4.044 0h-2.022v1.991h2.021v-1.99zm4.042 0h-2.021v1.991h2.021v-1.99zm2.022 0h-2.022v1.991h2.022v-1.99zm2.021 0h-2.021v1.991h2.021v-1.99zm6.065 0h-2.022v1.991h2.022v-1.99zm4.043 0h-2.021v1.991h2.021v-1.99zm18.194 0h-2.021v1.991h2.021v-1.99zm6.065 0H61.73v1.991h2.022v-1.99zm2.021 0h-2.021v1.991h2.021v-1.99zm4.043 0h-2.021v1.991h2.021v-1.99zM13.213 33.03h-2.022v1.992h2.022V33.03zm8.087 0h-2.022v1.992h2.021V33.03zm6.064 0h-2.022v1.992h2.022V33.03zm10.108 0H35.45v1.992h2.022V33.03zm2.021 0h-2.021v1.992h2.021V33.03zm10.107 0h-2.02v1.992h2.02V33.03zm2.022 0h-2.021v1.992h2.021V33.03zm2.022 0h-2.022v1.992h2.022V33.03zm14.151 0h-2.022v1.992h2.022V33.03zm2.021 0h-2.021v1.992h2.021V33.03zm-52.56 1.992h-2.021v1.99h2.021v-1.99zm2.022 0h-2.022v1.99h2.022v-1.99zm6.064 0h-2.021v1.99h2.021v-1.99zm16.173 0h-2.022v1.99h2.022v-1.99zm2.021 0h-2.021v1.99h2.021v-1.99zm2.022 0h-2.022v1.99h2.022v-1.99zm4.042 0h-2.02v1.99h2.02v-1.99zm2.022 0h-2.021v1.99h2.021v-1.99zm2.022 0h-2.022v1.99h2.022v-1.99zm6.065 0h-2.022v1.99h2.022v-1.99zm4.043 0H61.73v1.99h2.022v-1.99zm2.021 0h-2.021v1.99h2.021v-1.99zm2.022 0h-2.022v1.99h2.022v-1.99zm-54.582 1.991h-2.022v1.991h2.022v-1.991zm2.022 0h-2.022v1.991h2.022v-1.991zm2.021 0h-2.021v1.991h2.021v-1.991zm4.044 0h-2.022v1.991h2.021v-1.991zm2.02 0H21.3v1.991h2.02v-1.991zm6.065 0h-2.021v1.991h2.021v-1.991zm8.087 0H35.45v1.991h2.022v-1.991zm6.064 0h-2.021v1.991h2.021v-1.991zm6.064 0h-2.02v1.991h2.02v-1.991zm2.022 0h-2.021v1.991h2.021v-1.991zm2.022 0h-2.022v1.991h2.022v-1.991zm2.022 0h-2.022v1.991h2.022v-1.991zm2.021 0h-2.021v1.991h2.021v-1.991zm2.022 0h-2.022v1.991h2.022v-1.991zm2.021 0h-2.02v1.991h2.021v-1.991zm4.043 0h-2.021v1.991h2.021v-1.991zm4.043 0h-2.021v1.991h2.021v-1.991zm-56.603 1.991h-2.022v1.992h2.022v-1.992zm2.022 0h-2.022v1.992h2.022v-1.992zm2.021 0h-2.021v1.992h2.021v-1.992zm2.022 0h-2.022v1.992h2.022v-1.992zm4.042 0H21.3v1.992h2.02v-1.992zm2.022 0h-2.021v1.992h2.021v-1.992zm2.022 0h-2.022v1.992h2.022v-1.992zm2.021 0h-2.021v1.992h2.021v-1.992zm2.022 0h-2.022v1.992h2.022v-1.992zm2.021 0h-2.021v1.992h2.021v-1.992zm2.022 0h-2.022v1.992h2.022v-1.992zm2.022 0H35.45v1.992h2.022v-1.992zm4.043 0h-2.022v1.992h2.022v-1.992zm2.021 0h-2.021v1.992h2.021v-1.992zm6.064 0h-2.02v1.992h2.02v-1.992zm14.152 0H61.73v1.992h2.022v-1.992zm6.064 0h-2.021v1.992h2.021v-1.992zm-56.603 1.992h-2.022v1.991h2.022v-1.991zm2.022 0h-2.022v1.991h2.022v-1.991zm4.043 0h-2.022v1.991h2.022v-1.991zm2.022 0h-2.022v1.991h2.021v-1.991zm8.085 0h-2.021v1.991h2.021v-1.991zm6.065 0h-2.022v1.991h2.022v-1.991zm6.065 0h-2.022v1.991h2.022v-1.991zm4.043 0h-2.022v1.991h2.022v-1.991zm6.064 0h-2.021v1.991h2.021v-1.991zm6.065 0h-2.021v1.991h2.021v-1.991zm6.065 0H61.73v1.991h2.022v-1.991zm2.021 0h-2.021v1.991h2.021v-1.991zm4.043 0h-2.021v1.991h2.021v-1.991zm-44.474 1.991h-2.021v1.991h2.021v-1.99zm4.043 0h-2.021v1.991h2.021v-1.99zm14.151 0h-2.021v1.991h2.021v-1.99zm6.064 0h-2.02v1.991h2.02v-1.99zm2.022 0h-2.021v1.991h2.021v-1.99zm2.022 0h-2.022v1.991h2.022v-1.99zm2.022 0h-2.022v1.991h2.022v-1.99zm4.043 0h-2.022v1.991h2.022v-1.99zm2.021 0h-2.02v1.991h2.021v-1.99z" fill="#09101D"/><path d="M63.752 42.987H61.73v1.991h2.022v-1.99z" fill="#09101D"/><path d="M65.773 42.987h-2.021v1.991h2.021v-1.99zm4.043 0h-2.021v1.991h2.021v-1.99zm-56.603 1.991h-2.022v1.992h2.022v-1.992zm6.065 0h-2.022v1.992h2.022v-1.992zm2.022 0h-2.022v1.992h2.021v-1.992zm2.02 0H21.3v1.992h2.02v-1.992zm6.065 0h-2.021v1.992h2.021v-1.992zm2.022 0h-2.022v1.992h2.022v-1.992z" fill="#09101D"/><path d="M33.428 44.978h-2.021v1.992h2.021v-1.992zm2.022 0h-2.022v1.992h2.022v-1.992zm10.108 0h-2.022v1.992h2.022v-1.992zm2.022 0h-2.022v1.992h2.021v-1.992zm6.064 0h-2.022v1.992h2.022v-1.992zm2.022 0h-2.022v1.992h2.022v-1.992zm2.021 0h-2.021v1.992h2.021v-1.992zm2.022 0h-2.022v1.992h2.022v-1.992zm4.043 0H61.73v1.992h2.022v-1.992zM13.213 46.97h-2.022v1.991h2.022V46.97zm4.043 0h-2.021v1.991h2.021V46.97zm4.044 0h-2.022v1.991h2.021V46.97zm2.02 0H21.3v1.991h2.02V46.97zm2.022 0h-2.021v1.991h2.021V46.97zm6.065 0h-2.022v1.991h2.022V46.97zm6.065 0H35.45v1.991h2.022V46.97zm2.021 0h-2.021v1.991h2.021V46.97zm2.022 0h-2.022v1.991h2.022V46.97zm2.021 0h-2.021v1.991h2.021V46.97zm6.064 0h-2.02v1.991h2.02V46.97zm6.066 0h-2.022v1.991h2.022V46.97zm8.086 0H61.73v1.991h2.022V46.97z" fill="#09101D"/><path d="M65.773 46.97h-2.021v1.991h2.021V46.97zm-50.538 1.991h-2.022v1.992h2.022V48.96zm2.021 0h-2.021v1.992h2.021V48.96zm10.108 0h-2.022v1.992h2.022V48.96zm2.021 0h-2.021v1.992h2.021V48.96zm2.022 0h-2.022v1.992h2.022V48.96zm4.043 0h-2.022v1.992h2.022V48.96zm6.065 0h-2.022v1.992h2.022V48.96zm2.021 0h-2.021v1.992h2.021V48.96zm4.044 0h-2.022v1.992h2.021V48.96zm2.02 0h-2.02v1.992h2.02V48.96zm4.044 0h-2.022v1.992h2.022V48.96zm2.022 0h-2.022v1.992h2.022V48.96zm2.021 0h-2.021v1.992h2.021V48.96zm4.043 0h-2.02v1.992h2.021V48.96z" fill="#09101D"/><path d="M63.752 48.961H61.73v1.992h2.022V48.96z" fill="#09101D"/><path d="M65.773 48.961h-2.021v1.992h2.021V48.96zm2.022 0h-2.022v1.992h2.022V48.96zm-48.517 1.992h-2.022v1.991h2.022v-1.991zm6.064 0h-2.021v1.991h2.021v-1.991zm2.022 0h-2.022v1.991h2.022v-1.991zm4.043 0h-2.022v1.991h2.022v-1.991zm2.021 0h-2.021v1.991h2.021v-1.991zm6.065 0h-2.021v1.991h2.021v-1.991zm4.043 0h-2.021v1.991h2.021v-1.991zm6.064 0h-2.02v1.991h2.02v-1.991zm2.022 0h-2.021v1.991h2.021v-1.991zm2.022 0h-2.022v1.991h2.022v-1.991zm2.022 0h-2.022v1.991h2.022v-1.991zm2.021 0h-2.021v1.991h2.021v-1.991zm2.022 0h-2.022v1.991h2.022v-1.991zm2.021 0h-2.02v1.991h2.021v-1.991z" fill="#09101D"/><path d="M63.752 50.953H61.73v1.991h2.022v-1.991zm6.064 0h-2.021v1.991h2.021v-1.991zm-40.431 1.991h-2.021v1.991h2.021v-1.991zm2.022 0h-2.022v1.991h2.022v-1.991z" fill="#09101D"/><path d="M33.428 52.944h-2.021v1.991h2.021v-1.991zm6.065 0h-2.021v1.991h2.021v-1.991zm6.065 0h-2.022v1.991h2.022v-1.991zm4.042 0h-2.02v1.991h2.02v-1.991zm4.044 0h-2.022v1.991h2.022v-1.991zm8.086 0h-2.02v1.991h2.021v-1.991zm8.086 0h-2.021v1.991h2.021v-1.991zm-56.603 1.991h-2.022v1.992h2.022v-1.992zm2.022 0h-2.022v1.992h2.022v-1.992zm2.021 0h-2.021v1.992h2.021v-1.992zm2.022 0h-2.022v1.992h2.022v-1.992zm2.022 0h-2.022v1.992h2.021v-1.992zm2.02 0H21.3v1.992h2.02v-1.992zm2.022 0h-2.021v1.992h2.021v-1.992zm12.13 0H35.45v1.992h2.022v-1.992zm2.021 0h-2.021v1.992h2.021v-1.992zm2.022 0h-2.022v1.992h2.022v-1.992zm2.021 0h-2.021v1.992h2.021v-1.992zm6.064 0h-2.02v1.992h2.02v-1.992zm4.044 0h-2.022v1.992h2.022v-1.992zm4.043 0h-2.021v1.992h2.021v-1.992zm4.043 0h-2.02v1.992h2.021v-1.992zm6.065 0h-2.022v1.992h2.022v-1.992zm2.021 0h-2.021v1.992h2.021v-1.992zm-56.603 1.992h-2.022v1.991h2.022v-1.991zm12.129 0h-2.021v1.991h2.021v-1.991zm6.065 0h-2.022v1.991h2.022v-1.991zm6.065 0H35.45v1.991h2.022v-1.991zm2.021 0h-2.021v1.991h2.021v-1.991zm2.022 0h-2.022v1.991h2.022v-1.991zm4.043 0h-2.022v1.991h2.022v-1.991zm4.042 0h-2.02v1.991h2.02v-1.991zm2.022 0h-2.021v1.991h2.021v-1.991zm2.022 0h-2.022v1.991h2.022v-1.991zm8.086 0h-2.02v1.991h2.021v-1.991zm4.043 0h-2.021v1.991h2.021v-1.991zm2.022 0h-2.022v1.991h2.022v-1.991zm-54.582 1.991h-2.022v1.992h2.022v-1.992zm4.043 0h-2.021v1.992h2.021v-1.992zm2.022 0h-2.022v1.992h2.022v-1.992zm2.022 0h-2.022v1.992h2.021v-1.992zm4.042 0h-2.021v1.992h2.021v-1.992zm4.043 0h-2.021v1.992h2.021v-1.992zm2.022 0h-2.022v1.992h2.022v-1.992zm2.021 0h-2.021v1.992h2.021v-1.992zm2.022 0h-2.022v1.992h2.022v-1.992zm4.043 0h-2.021v1.992h2.021v-1.992zm4.043 0h-2.021v1.992h2.021v-1.992zm4.044 0h-2.022v1.992h2.021v-1.992zm6.064 0h-2.022v1.992h2.022v-1.992zm2.022 0h-2.022v1.992h2.022v-1.992zm2.021 0h-2.021v1.992h2.021v-1.992zm2.022 0h-2.022v1.992h2.022v-1.992zm2.021 0h-2.02v1.992h2.021v-1.992zm4.043 0h-2.021v1.992h2.021v-1.992zm-52.56 1.992h-2.022v1.99h2.022v-1.99zm4.043 0h-2.021v1.99h2.021v-1.99zm2.022 0h-2.022v1.99h2.022v-1.99zm2.022 0h-2.022v1.99h2.021v-1.99zm4.042 0h-2.021v1.99h2.021v-1.99zm6.065 0h-2.022v1.99h2.022v-1.99zm4.043 0h-2.022v1.99h2.022v-1.99zm2.022 0H35.45v1.99h2.022v-1.99zm2.021 0h-2.021v1.99h2.021v-1.99zm4.043 0h-2.021v1.99h2.021v-1.99zm2.022 0h-2.022v1.99h2.022v-1.99zm2.022 0h-2.022v1.99h2.021v-1.99zm4.042 0h-2.021v1.99h2.021v-1.99zm2.022 0h-2.022v1.99h2.022v-1.99zm6.065 0h-2.022v1.99h2.022v-1.99zm2.021 0h-2.02v1.99h2.021v-1.99z" fill="#09101D"/><path d="M63.752 60.91H61.73v1.99h2.022v-1.99zm4.043 0h-2.022v1.99h2.022v-1.99zM13.213 62.9h-2.022v1.992h2.022v-1.991zm4.043 0h-2.021v1.992h2.021v-1.991zm2.022 0h-2.022v1.992h2.022v-1.991zm2.022 0h-2.022v1.992h2.021v-1.991zm4.042 0h-2.021v1.992h2.021v-1.991zm4.043 0h-2.021v1.992h2.021v-1.991zm2.022 0h-2.022v1.992h2.022v-1.991zm2.021 0h-2.021v1.992h2.021v-1.991zm6.065 0h-2.021v1.992h2.021v-1.991zm4.043 0h-2.021v1.992h2.021v-1.991zm6.064 0h-2.02v1.992h2.02v-1.991zm2.022 0h-2.021v1.992h2.021v-1.991zm2.022 0h-2.022v1.992h2.022v-1.991zm2.022 0h-2.022v1.992h2.022v-1.991zm2.021 0h-2.021v1.992h2.021v-1.991zm4.043 0h-2.02v1.992h2.021v-1.991z" fill="#09101D"/><path d="M63.752 62.9H61.73v1.992h2.022v-1.991z" fill="#09101D"/><path d="M65.773 62.9h-2.021v1.992h2.021v-1.991zm2.022 0h-2.022v1.992h2.022v-1.991zm-54.582 1.992h-2.022v1.992h2.022v-1.992zm12.129 0h-2.021v1.992h2.021v-1.992zm4.043 0h-2.021v1.992h2.021v-1.992zm2.022 0h-2.022v1.992h2.022v-1.992zm4.043 0h-2.022v1.992h2.022v-1.992zm2.022 0H35.45v1.992h2.022v-1.992zm2.021 0h-2.021v1.992h2.021v-1.992zm4.043 0h-2.021v1.992h2.021v-1.992zm2.022 0h-2.022v1.992h2.022v-1.992zm8.086 0h-2.022v1.992h2.022v-1.992zm6.065 0h-2.022v1.992h2.022v-1.992zm4.043 0H61.73v1.992h2.022v-1.992zm2.021 0h-2.021v1.992h2.021v-1.992zm-52.56 1.992h-2.022v1.991h2.022v-1.991zm2.022 0h-2.022v1.991h2.022v-1.991zm2.021 0h-2.021v1.991h2.021v-1.991zm2.022 0h-2.022v1.991h2.022v-1.991zm2.022 0h-2.022v1.991h2.021v-1.991zm2.02 0H21.3v1.991h2.02v-1.991zm2.022 0h-2.021v1.991h2.021v-1.991zm4.043 0h-2.021v1.991h2.021v-1.991zm8.087 0H35.45v1.991h2.022v-1.991zm2.021 0h-2.021v1.991h2.021v-1.991zm2.022 0h-2.022v1.991h2.022v-1.991zm2.021 0h-2.021v1.991h2.021v-1.991zm6.064 0h-2.02v1.991h2.02v-1.991zm2.022 0h-2.021v1.991h2.021v-1.991zm2.022 0h-2.022v1.991h2.022v-1.991zm2.022 0h-2.022v1.991h2.022v-1.991zm10.107 0h-2.021v1.991h2.021v-1.991zm2.022 0h-2.022v1.991h2.022v-1.991z" fill="#09101D"/><rect x="1" y=".5" width="79" height="79" rx="12.5" stroke="#fff"/></svg>