<svg width="82" height="82" fill="none" xmlns="http://www.w3.org/2000/svg"><rect x="4.265" y="4.265" width="73.469" height="73.469" rx="10" fill="#F6E9D0"/><path d="M14.213 12.125h-2.022v1.991h2.022v-1.991zm2.022 0h-2.022v1.991h2.022v-1.991zm2.021 0h-2.021v1.991h2.021v-1.991zm2.022 0h-2.022v1.991h2.022v-1.991zm2.022 0h-2.022v1.991h2.021v-1.991zm2.02 0H22.3v1.991h2.02v-1.991zm2.022 0h-2.021v1.991h2.021v-1.991zm4.043 0h-2.021v1.991h2.021v-1.991zm2.022 0h-2.022v1.991h2.022v-1.991zm4.043 0h-2.022v1.991h2.022v-1.991zm2.022 0H36.45v1.991h2.022v-1.991zm8.086 0h-2.022v1.991h2.022v-1.991zm2.022 0h-2.022v1.991h2.021v-1.991zm2.02 0h-2.02v1.991h2.02v-1.991zm2.022 0h-2.021v1.991h2.021v-1.991zm2.022 0h-2.022v1.991h2.022v-1.991zm4.043 0h-2.021v1.991h2.021v-1.991zm2.022 0h-2.022v1.991h2.022v-1.991zm2.021 0h-2.02v1.991h2.021v-1.991z" fill="#09101D"/><path d="M64.752 12.125H62.73v1.991h2.022v-1.991zm2.021 0h-2.021v1.991h2.021v-1.991zm2.022 0h-2.022v1.991h2.022v-1.991zm2.021 0h-2.021v1.991h2.021v-1.991zm-56.603 1.991h-2.022v1.992h2.022v-1.992zm12.129 0h-2.021v1.992h2.021v-1.992zm8.086 0h-2.021v1.992h2.022v-1.992zm4.044 0H36.45v1.992h2.022v-1.992zm2.021 0h-2.021v1.992h2.021v-1.992zm10.107 0h-2.02v1.992h2.02v-1.992zm2.022 0h-2.021v1.992h2.021v-1.992zm2.022 0h-2.022v1.992h2.022v-1.992zm4.043 0h-2.021v1.992h2.021v-1.992zm12.129 0h-2.021v1.992h2.021v-1.992zm-56.603 1.992h-2.022v1.991h2.022v-1.991zm4.043 0h-2.021v1.991h2.021v-1.991zm2.022 0h-2.022v1.991h2.022v-1.991zm2.022 0h-2.022v1.991h2.021v-1.991zm4.042 0h-2.021v1.991h2.021v-1.991zm6.065 0h-2.022v1.991h2.022v-1.991zm2.021 0h-2.021v1.991h2.022v-1.991zm6.065 0h-2.021v1.991h2.021v-1.991zm2.022 0h-2.022v1.991h2.022v-1.991zm2.021 0h-2.021v1.991h2.021v-1.991zm4.044 0h-2.022v1.991h2.021v-1.991zm4.042 0h-2.021v1.991h2.021v-1.991zm2.022 0h-2.022v1.991h2.022v-1.991zm4.043 0h-2.021v1.991h2.021v-1.991zm4.043 0h-2.02v1.991h2.021v-1.991z" fill="#09101D"/><path d="M64.752 16.108H62.73v1.991h2.022v-1.991zm2.021 0h-2.021v1.991h2.021v-1.991zm4.043 0h-2.021v1.991h2.021v-1.991zM14.213 18.1h-2.022v1.99h2.022V18.1zm4.043 0h-2.021v1.99h2.021V18.1zm2.022 0h-2.022v1.99h2.022V18.1zm2.022 0h-2.022v1.99h2.021V18.1zm4.042 0h-2.021v1.99h2.021V18.1zm4.043 0h-2.021v1.99h2.021V18.1zm2.022 0h-2.022v1.99h2.022V18.1zm14.151 0h-2.022v1.99h2.022V18.1zm8.086 0h-2.022v1.99h2.022V18.1zm4.043 0h-2.021v1.99h2.021V18.1zm4.043 0h-2.02v1.99h2.021V18.1z" fill="#09101D"/><path d="M64.752 18.1H62.73v1.99h2.022V18.1zm2.021 0h-2.021v1.99h2.021V18.1zm4.043 0h-2.021v1.99h2.021V18.1zm-56.603 1.99h-2.022v1.992h2.022V20.09zm4.043 0h-2.021v1.992h2.021V20.09zm2.022 0h-2.022v1.992h2.022V20.09zm2.022 0h-2.022v1.992h2.021V20.09zm4.042 0h-2.021v1.992h2.021V20.09zm4.043 0h-2.021v1.992h2.021V20.09zm2.022 0h-2.022v1.992h2.022V20.09zm4.043 0h-2.022v1.992h2.022V20.09zm2.022 0H36.45v1.992h2.022V20.09zm2.021 0h-2.021v1.992h2.021V20.09zm2.022 0h-2.022v1.992h2.022V20.09zm2.021 0h-2.021v1.992h2.021V20.09zm2.022 0h-2.022v1.992h2.022V20.09zm2.022 0h-2.022v1.992h2.021V20.09zm2.02 0h-2.02v1.992h2.02V20.09zm2.022 0h-2.021v1.992h2.021V20.09zm2.022 0h-2.022v1.992h2.022V20.09zm4.043 0h-2.021v1.992h2.021V20.09zm4.043 0h-2.02v1.992h2.021V20.09z" fill="#09101D"/><path d="M64.752 20.09H62.73v1.992h2.022V20.09zm2.021 0h-2.021v1.992h2.021V20.09zm4.043 0h-2.021v1.992h2.021V20.09zm-56.603 1.992h-2.022v1.991h2.022v-1.991zm12.129 0h-2.021v1.991h2.021v-1.991zm4.043 0h-2.021v1.991h2.021v-1.991zm2.022 0h-2.022v1.991h2.022v-1.991zm2.021 0h-2.021v1.991h2.022v-1.991zm4.044 0H36.45v1.991h2.022v-1.991zm2.021 0h-2.021v1.991h2.021v-1.991zm6.065 0h-2.022v1.991h2.022v-1.991zm2.022 0h-2.022v1.991h2.021v-1.991zm2.02 0h-2.02v1.991h2.02v-1.991zm2.022 0h-2.021v1.991h2.021v-1.991zm2.022 0h-2.022v1.991h2.022v-1.991zm4.043 0h-2.021v1.991h2.021v-1.991zm12.129 0h-2.021v1.991h2.021v-1.991zm-56.603 1.991h-2.022v1.992h2.022v-1.992zm2.022 0h-2.022v1.992h2.022v-1.992zm2.021 0h-2.021v1.992h2.021v-1.992zm2.022 0h-2.022v1.992h2.022v-1.992zm2.022 0h-2.022v1.992h2.021v-1.992zm2.02 0H22.3v1.992h2.02v-1.992zm2.022 0h-2.021v1.992h2.021v-1.992zm4.043 0h-2.021v1.992h2.021v-1.992zm4.043 0h-2.021v1.992h2.022v-1.992zm4.044 0H36.45v1.992h2.022v-1.992zm4.043 0h-2.022v1.992h2.022v-1.992zm4.043 0h-2.022v1.992h2.022v-1.992zm4.042 0h-2.02v1.992h2.02v-1.992zm4.044 0h-2.022v1.992h2.022v-1.992zm4.043 0h-2.021v1.992h2.021v-1.992zm2.022 0h-2.022v1.992h2.022v-1.992zm2.021 0h-2.02v1.992h2.021v-1.992z" fill="#09101D"/><path d="M64.752 24.073H62.73v1.992h2.022v-1.992zm2.021 0h-2.021v1.992h2.021v-1.992zm2.022 0h-2.022v1.992h2.022v-1.992zm2.021 0h-2.021v1.992h2.021v-1.992zm-40.431 1.992h-2.021v1.991h2.021v-1.991zm10.108 0h-2.021v1.991h2.021v-1.991zm2.022 0h-2.022v1.991h2.022v-1.991zm2.021 0h-2.021v1.991h2.021v-1.991zm8.086 0h-2.021v1.991h2.021v-1.991zm-38.409 1.991h-2.022v1.991h2.022v-1.991zm2.022 0h-2.022v1.991h2.022v-1.991zm2.021 0h-2.021v1.991h2.021v-1.991zm4.044 0h-2.022v1.991h2.021v-1.991zm4.042 0h-2.021v1.991h2.021v-1.991zm4.043 0h-2.021v1.991h2.021v-1.991z" fill="#09101D"/><path d="M32.407 28.056h-2.022v1.991h2.022v-1.991zm6.065 0H36.45v1.991h2.022v-1.991zm8.086 0h-2.022v1.991h2.022v-1.991zm6.064 0h-2.021v1.991h2.021v-1.991zm4.044 0h-2.022v1.991h2.022v-1.991zm2.021 0h-2.021v1.991h2.021v-1.991zm2.022 0h-2.022v1.991h2.022v-1.991zm2.021 0h-2.02v1.991h2.021v-1.991z" fill="#09101D"/><path d="M64.752 28.056H62.73v1.991h2.022v-1.991zm6.064 0h-2.021v1.991h2.021v-1.991zm-56.603 1.991h-2.022v1.992h2.022v-1.992zm2.022 0h-2.022v1.992h2.022v-1.992zm12.129 0h-2.022v1.992h2.022v-1.992zm6.064 0h-2.021v1.992h2.022v-1.992z" fill="#09101D"/><path d="M36.45 30.047h-2.022v1.992h2.022v-1.992zm2.022 0H36.45v1.992h2.022v-1.992zm8.086 0h-2.022v1.992h2.022v-1.992zm8.086 0h-2.022v1.992h2.022v-1.992zm4.043 0h-2.021v1.992h2.021v-1.992zm2.022 0h-2.022v1.992h2.022v-1.992zm6.064 0h-2.021v1.992h2.021v-1.992zm4.043 0h-2.021v1.992h2.021v-1.992zm-54.581 1.992h-2.022v1.991h2.022v-1.99zm2.021 0h-2.021v1.991h2.021v-1.99zm4.044 0h-2.022v1.991h2.021v-1.99zm4.042 0h-2.021v1.991h2.021v-1.99zm2.022 0h-2.022v1.991h2.022v-1.99zm2.021 0h-2.021v1.991h2.021v-1.99zm6.065 0h-2.022v1.991h2.022v-1.99zm4.043 0h-2.021v1.991h2.021v-1.99zm18.194 0h-2.021v1.991h2.021v-1.99zm6.065 0H62.73v1.991h2.022v-1.99zm2.021 0h-2.021v1.991h2.021v-1.99zm4.043 0h-2.021v1.991h2.021v-1.99zM14.213 34.03h-2.022v1.992h2.022V34.03zm8.087 0h-2.022v1.992h2.021V34.03zm6.064 0h-2.022v1.992h2.022V34.03zm10.108 0H36.45v1.992h2.022V34.03zm2.021 0h-2.021v1.992h2.021V34.03zm10.107 0h-2.02v1.992h2.02V34.03zm2.022 0h-2.021v1.992h2.021V34.03zm2.022 0h-2.022v1.992h2.022V34.03zm14.151 0h-2.022v1.992h2.022V34.03zm2.021 0h-2.021v1.992h2.021V34.03zm-52.56 1.992h-2.021v1.99h2.021v-1.99zm2.022 0h-2.022v1.99h2.022v-1.99zm6.064 0h-2.021v1.99h2.021v-1.99zm16.173 0h-2.022v1.99h2.022v-1.99zm2.021 0h-2.021v1.99h2.021v-1.99zm2.022 0h-2.022v1.99h2.022v-1.99zm4.042 0h-2.02v1.99h2.02v-1.99zm2.022 0h-2.021v1.99h2.021v-1.99zm2.022 0h-2.022v1.99h2.022v-1.99zm6.065 0h-2.022v1.99h2.022v-1.99zm4.043 0H62.73v1.99h2.022v-1.99zm2.021 0h-2.021v1.99h2.021v-1.99zm2.022 0h-2.022v1.99h2.022v-1.99zm-54.582 1.991h-2.022v1.991h2.022v-1.991zm2.022 0h-2.022v1.991h2.022v-1.991zm2.021 0h-2.021v1.991h2.021v-1.991zm4.044 0h-2.022v1.991h2.021v-1.991zm2.02 0H22.3v1.991h2.02v-1.991zm6.065 0h-2.021v1.991h2.021v-1.991zm8.087 0H36.45v1.991h2.022v-1.991zm6.064 0h-2.021v1.991h2.021v-1.991zm6.064 0h-2.02v1.991h2.02v-1.991zm2.022 0h-2.021v1.991h2.021v-1.991zm2.022 0h-2.022v1.991h2.022v-1.991zm2.022 0h-2.022v1.991h2.022v-1.991zm2.021 0h-2.021v1.991h2.021v-1.991zm2.022 0h-2.022v1.991h2.022v-1.991zm2.021 0h-2.02v1.991h2.021v-1.991zm4.043 0h-2.021v1.991h2.021v-1.991zm4.043 0h-2.021v1.991h2.021v-1.991zm-56.603 1.991h-2.022v1.992h2.022v-1.992zm2.022 0h-2.022v1.992h2.022v-1.992zm2.021 0h-2.021v1.992h2.021v-1.992zm2.022 0h-2.022v1.992h2.022v-1.992zm4.042 0H22.3v1.992h2.02v-1.992zm2.022 0h-2.021v1.992h2.021v-1.992zm2.022 0h-2.022v1.992h2.022v-1.992zm2.021 0h-2.021v1.992h2.021v-1.992zm2.022 0h-2.022v1.992h2.022v-1.992zm2.021 0h-2.021v1.992h2.022v-1.992z" fill="#09101D"/><path d="M36.45 40.004h-2.022v1.992h2.022v-1.992zm2.022 0H36.45v1.992h2.022v-1.992zm4.043 0h-2.022v1.992h2.022v-1.992zm2.021 0h-2.021v1.992h2.021v-1.992zm6.064 0h-2.02v1.992h2.02v-1.992zm14.152 0H62.73v1.992h2.022v-1.992zm6.064 0h-2.021v1.992h2.021v-1.992zm-56.603 1.992h-2.022v1.991h2.022v-1.991zm2.022 0h-2.022v1.991h2.022v-1.991zm4.043 0h-2.022v1.991h2.022v-1.991zm2.022 0h-2.022v1.991h2.021v-1.991zm8.085 0h-2.021v1.991h2.021v-1.991zm6.065 0h-2.022v1.991h2.022v-1.991zm6.065 0h-2.022v1.991h2.022v-1.991zm4.043 0h-2.022v1.991h2.022v-1.991zm6.064 0h-2.021v1.991h2.021v-1.991zm6.065 0h-2.021v1.991h2.021v-1.991zm6.065 0H62.73v1.991h2.022v-1.991zm2.021 0h-2.021v1.991h2.021v-1.991zm4.043 0h-2.021v1.991h2.021v-1.991zm-44.474 1.991h-2.021v1.991h2.021v-1.99zm4.043 0h-2.021v1.991h2.021v-1.99zm14.151 0h-2.021v1.991h2.021v-1.99zm6.064 0h-2.02v1.991h2.02v-1.99zm2.022 0h-2.021v1.991h2.021v-1.99zm2.022 0h-2.022v1.991h2.022v-1.99zm2.022 0h-2.022v1.991h2.022v-1.99zm4.043 0h-2.022v1.991h2.022v-1.99zm2.021 0h-2.02v1.991h2.021v-1.99z" fill="#09101D"/><path d="M64.752 43.987H62.73v1.991h2.022v-1.99zm2.021 0h-2.021v1.991h2.021v-1.99zm4.043 0h-2.021v1.991h2.021v-1.99zm-56.603 1.991h-2.022v1.992h2.022v-1.992zm6.065 0h-2.022v1.992h2.022v-1.992zm2.022 0h-2.022v1.992h2.021v-1.992zm2.02 0H22.3v1.992h2.02v-1.992zm6.065 0h-2.021v1.992h2.021v-1.992z" fill="#09101D"/><path d="M32.407 45.978h-2.022v1.992h2.022v-1.992zm2.021 0h-2.021v1.992h2.022v-1.992z" fill="#09101D"/><path d="M36.45 45.978h-2.022v1.992h2.022v-1.992zm10.108 0h-2.022v1.992h2.022v-1.992zm2.022 0h-2.022v1.992h2.021v-1.992zm6.064 0h-2.022v1.992h2.022v-1.992zm2.022 0h-2.022v1.992h2.022v-1.992zm2.021 0h-2.021v1.992h2.021v-1.992zm2.022 0h-2.022v1.992h2.022v-1.992zm4.043 0H62.73v1.992h2.022v-1.992zM14.213 47.97h-2.022v1.991h2.022V47.97zm4.043 0h-2.021v1.991h2.021V47.97zm4.044 0h-2.022v1.991h2.021V47.97zm2.02 0H22.3v1.991h2.02V47.97zm2.022 0h-2.021v1.991h2.021V47.97zm6.065 0h-2.022v1.991h2.022V47.97zm6.065 0H36.45v1.991h2.022V47.97zm2.021 0h-2.021v1.991h2.021V47.97zm2.022 0h-2.022v1.991h2.022V47.97zm2.021 0h-2.021v1.991h2.021V47.97zm6.064 0h-2.02v1.991h2.02V47.97zm6.066 0h-2.022v1.991h2.022V47.97zm8.086 0H62.73v1.991h2.022V47.97zm2.021 0h-2.021v1.991h2.021V47.97zm-50.538 1.991h-2.022v1.992h2.022V49.96z" fill="#09101D"/><path d="M18.256 49.961h-2.021v1.992h2.021V49.96zm10.108 0h-2.022v1.992h2.022V49.96zm2.021 0h-2.021v1.992h2.021V49.96z" fill="#09101D"/><path d="M32.407 49.961h-2.022v1.992h2.022V49.96zm4.043 0h-2.022v1.992h2.022V49.96zm6.065 0h-2.022v1.992h2.022V49.96zm2.021 0h-2.021v1.992h2.021V49.96zm4.044 0h-2.022v1.992h2.021V49.96zm2.02 0h-2.02v1.992h2.02V49.96zm4.044 0h-2.022v1.992h2.022V49.96zm2.022 0h-2.022v1.992h2.022V49.96zm2.021 0h-2.021v1.992h2.021V49.96zm4.043 0h-2.02v1.992h2.021V49.96z" fill="#09101D"/><path d="M64.752 49.961H62.73v1.992h2.022V49.96zm2.021 0h-2.021v1.992h2.021V49.96zm2.022 0h-2.022v1.992h2.022V49.96zm-48.517 1.992h-2.022v1.991h2.022v-1.991zm6.064 0h-2.021v1.991h2.021v-1.991zm2.022 0h-2.022v1.991h2.022v-1.991zm4.043 0h-2.022v1.991h2.022v-1.991zm2.021 0h-2.021v1.991h2.022v-1.991zm6.065 0h-2.021v1.991h2.021v-1.991zm4.043 0h-2.021v1.991h2.021v-1.991zm6.064 0h-2.02v1.991h2.02v-1.991zm2.022 0h-2.021v1.991h2.021v-1.991zm2.022 0h-2.022v1.991h2.022v-1.991zm2.022 0h-2.022v1.991h2.022v-1.991zm2.021 0h-2.021v1.991h2.021v-1.991zm2.022 0h-2.022v1.991h2.022v-1.991zm2.021 0h-2.02v1.991h2.021v-1.991z" fill="#09101D"/><path d="M64.752 51.953H62.73v1.991h2.022v-1.991zm6.064 0h-2.021v1.991h2.021v-1.991zm-40.431 1.991h-2.021v1.991h2.021v-1.991z" fill="#09101D"/><path d="M32.407 53.944h-2.022v1.991h2.022v-1.991zm2.021 0h-2.021v1.991h2.022v-1.991zm6.065 0h-2.021v1.991h2.021v-1.991zm6.065 0h-2.022v1.991h2.022v-1.991zm4.042 0h-2.02v1.991h2.02v-1.991zm4.044 0h-2.022v1.991h2.022v-1.991zm8.086 0h-2.02v1.991h2.021v-1.991zm8.086 0h-2.021v1.991h2.021v-1.991zm-56.603 1.991h-2.022v1.992h2.022v-1.992zm2.022 0h-2.022v1.992h2.022v-1.992zm2.021 0h-2.021v1.992h2.021v-1.992zm2.022 0h-2.022v1.992h2.022v-1.992zm2.022 0h-2.022v1.992h2.021v-1.992zm2.02 0H22.3v1.992h2.02v-1.992zm2.022 0h-2.021v1.992h2.021v-1.992zm12.13 0H36.45v1.992h2.022v-1.992zm2.021 0h-2.021v1.992h2.021v-1.992zm2.022 0h-2.022v1.992h2.022v-1.992zm2.021 0h-2.021v1.992h2.021v-1.992zm6.064 0h-2.02v1.992h2.02v-1.992zm4.044 0h-2.022v1.992h2.022v-1.992zm4.043 0h-2.021v1.992h2.021v-1.992zm4.043 0h-2.02v1.992h2.021v-1.992zm6.065 0h-2.022v1.992h2.022v-1.992zm2.021 0h-2.021v1.992h2.021v-1.992zm-56.603 1.992h-2.022v1.991h2.022v-1.991zm12.129 0h-2.021v1.991h2.021v-1.991zm6.065 0h-2.022v1.991h2.022v-1.991zm6.065 0H36.45v1.991h2.022v-1.991zm2.021 0h-2.021v1.991h2.021v-1.991zm2.022 0h-2.022v1.991h2.022v-1.991zm4.043 0h-2.022v1.991h2.022v-1.991zm4.042 0h-2.02v1.991h2.02v-1.991zm2.022 0h-2.021v1.991h2.021v-1.991zm2.022 0h-2.022v1.991h2.022v-1.991zm8.086 0h-2.02v1.991h2.021v-1.991zm4.043 0h-2.021v1.991h2.021v-1.991zm2.022 0h-2.022v1.991h2.022v-1.991zm-54.582 1.991h-2.022v1.992h2.022v-1.992zm4.043 0h-2.021v1.992h2.021v-1.992zm2.022 0h-2.022v1.992h2.022v-1.992zm2.022 0h-2.022v1.992h2.021v-1.992zm4.042 0h-2.021v1.992h2.021v-1.992zm4.043 0h-2.021v1.992h2.021v-1.992zm2.022 0h-2.022v1.992h2.022v-1.992zm2.021 0h-2.021v1.992h2.022v-1.992z" fill="#09101D"/><path d="M36.45 59.918h-2.022v1.992h2.022v-1.992zm4.043 0h-2.021v1.992h2.021v-1.992zm4.043 0h-2.021v1.992h2.021v-1.992zm4.044 0h-2.022v1.992h2.021v-1.992zm6.064 0h-2.022v1.992h2.022v-1.992zm2.022 0h-2.022v1.992h2.022v-1.992zm2.021 0h-2.021v1.992h2.021v-1.992zm2.022 0h-2.022v1.992h2.022v-1.992zm2.021 0h-2.02v1.992h2.021v-1.992zm4.043 0h-2.021v1.992h2.021v-1.992zm-52.56 1.992h-2.022v1.99h2.022v-1.99zm4.043 0h-2.021v1.99h2.021v-1.99zm2.022 0h-2.022v1.99h2.022v-1.99zm2.022 0h-2.022v1.99h2.021v-1.99zm4.042 0h-2.021v1.99h2.021v-1.99zm6.065 0h-2.022v1.99h2.022v-1.99zm4.043 0h-2.022v1.99h2.022v-1.99zm2.022 0H36.45v1.99h2.022v-1.99zm2.021 0h-2.021v1.99h2.021v-1.99zm4.043 0h-2.021v1.99h2.021v-1.99zm2.022 0h-2.022v1.99h2.022v-1.99zm2.022 0h-2.022v1.99h2.021v-1.99zm4.042 0h-2.021v1.99h2.021v-1.99zm2.022 0h-2.022v1.99h2.022v-1.99zm6.065 0h-2.022v1.99h2.022v-1.99zm2.021 0h-2.02v1.99h2.021v-1.99z" fill="#09101D"/><path d="M64.752 61.91H62.73v1.99h2.022v-1.99zm4.043 0h-2.022v1.99h2.022v-1.99zM14.213 63.9h-2.022v1.992h2.022v-1.991zm4.043 0h-2.021v1.992h2.021v-1.991zm2.022 0h-2.022v1.992h2.022v-1.991zm2.022 0h-2.022v1.992h2.021v-1.991zm4.042 0h-2.021v1.992h2.021v-1.991zm4.043 0h-2.021v1.992h2.021v-1.991zm2.022 0h-2.022v1.992h2.022v-1.991zm2.021 0h-2.021v1.992h2.022v-1.991zm6.065 0h-2.021v1.992h2.021v-1.991zm4.043 0h-2.021v1.992h2.021v-1.991zm6.064 0h-2.02v1.992h2.02v-1.991zm2.022 0h-2.021v1.992h2.021v-1.991zm2.022 0h-2.022v1.992h2.022v-1.991zm2.022 0h-2.022v1.992h2.022v-1.991zm2.021 0h-2.021v1.992h2.021v-1.991zm4.043 0h-2.02v1.992h2.021v-1.991z" fill="#09101D"/><path d="M64.752 63.9H62.73v1.992h2.022v-1.991zm2.021 0h-2.021v1.992h2.021v-1.991zm2.022 0h-2.022v1.992h2.022v-1.991zm-54.582 1.992h-2.022v1.992h2.022v-1.992zm12.129 0h-2.021v1.992h2.021v-1.992zm4.043 0h-2.021v1.992h2.021v-1.992zm2.022 0h-2.022v1.992h2.022v-1.992zm4.043 0h-2.022v1.992h2.022v-1.992zm2.022 0H36.45v1.992h2.022v-1.992zm2.021 0h-2.021v1.992h2.021v-1.992zm4.043 0h-2.021v1.992h2.021v-1.992zm2.022 0h-2.022v1.992h2.022v-1.992zm8.086 0h-2.022v1.992h2.022v-1.992zm6.065 0h-2.022v1.992h2.022v-1.992zm4.043 0H62.73v1.992h2.022v-1.992zm2.021 0h-2.021v1.992h2.021v-1.992zm-52.56 1.992h-2.022v1.991h2.022v-1.991zm2.022 0h-2.022v1.991h2.022v-1.991zm2.021 0h-2.021v1.991h2.021v-1.991zm2.022 0h-2.022v1.991h2.022v-1.991zm2.022 0h-2.022v1.991h2.021v-1.991zm2.02 0H22.3v1.991h2.02v-1.991zm2.022 0h-2.021v1.991h2.021v-1.991zm4.043 0h-2.021v1.991h2.021v-1.991zm8.087 0H36.45v1.991h2.022v-1.991zm2.021 0h-2.021v1.991h2.021v-1.991zm2.022 0h-2.022v1.991h2.022v-1.991zm2.021 0h-2.021v1.991h2.021v-1.991zm6.064 0h-2.02v1.991h2.02v-1.991zm2.022 0h-2.021v1.991h2.021v-1.991zm2.022 0h-2.022v1.991h2.022v-1.991zm2.022 0h-2.022v1.991h2.022v-1.991zm10.107 0h-2.021v1.991h2.021v-1.991zm2.022 0h-2.022v1.991h2.022v-1.991z" fill="#09101D"/><rect x="1" y="1" width="80" height="80" rx="10" stroke="#CF7C58" stroke-width="2" stroke-dasharray="4.35 4.35"/></svg>