<svg width="120" height="120" fill="none" xmlns="http://www.w3.org/2000/svg"><rect x="4.898" y="4.898" width="110.204" height="110.204" rx="12" fill="#fff"/><path d="M30.06 13.773a.943.943 0 110 1.887.943.943 0 010-1.887zm3.774 0a.943.943 0 110 1.887.943.943 0 010-1.887zm3.774 0a.943.943 0 110 1.887.943.943 0 010-1.887z" fill="#2A2827"/><path d="M39.494 13.773a.943.943 0 110 1.887.943.943 0 010-1.887z" fill="#2A2827"/><path d="M41.383 13.773a.943.943 0 110 1.887.943.943 0 010-1.887z" fill="#2A2827"/><path d="M43.27 13.773a.943.943 0 110 1.887.943.943 0 010-1.887z" fill="#2A2827"/><path d="M45.156 13.773a.943.943 0 110 1.887.943.943 0 010-1.887zm3.774 0a.943.943 0 110 1.887.943.943 0 010-1.887z" fill="#2A2827"/><path d="M50.817 13.773a.943.943 0 110 1.887.943.943 0 010-1.887z" fill="#2A2827"/><path d="M52.703 13.773a.943.943 0 110 1.887.943.943 0 010-1.887z" fill="#2A2827"/><path d="M54.59 13.773a.943.943 0 110 1.887.943.943 0 010-1.887zm3.773 0a.943.943 0 110 1.887.943.943 0 010-1.887zm7.547 0a.943.943 0 110 1.887.943.943 0 010-1.887z" fill="#2A2827"/><path d="M67.797 13.773a.943.943 0 110 1.887.943.943 0 010-1.887z" fill="#2A2827"/><path d="M69.684 13.773a.943.943 0 110 1.887.943.943 0 010-1.887z" fill="#2A2827"/><path d="M71.57 13.773a.943.943 0 110 1.887.943.943 0 010-1.887zm3.774 0a.943.943 0 110 1.887.943.943 0 010-1.887z" fill="#2A2827"/><path d="M77.23 13.773a.943.943 0 110 1.887.943.943 0 010-1.887z" fill="#2A2827"/><path d="M79.117 13.773a.943.943 0 110 1.887.943.943 0 010-1.887z" fill="#2A2827"/><path d="M81.004 13.773a.943.943 0 110 1.887.943.943 0 010-1.887zm3.774 0a.943.943 0 110 1.887.943.943 0 010-1.887zm5.662 0a.943.943 0 110 1.887.943.943 0 010-1.887zM30.06 15.66a.943.943 0 110 1.887.943.943 0 010-1.887zm5.66 0a.943.943 0 11.001 1.887.943.943 0 010-1.887z" fill="#2A2827"/><path d="M37.608 15.66a.943.943 0 110 1.887.943.943 0 010-1.887zm3.775 0a.943.943 0 110 1.887.943.943 0 010-1.887zm3.773 0a.943.943 0 110 1.887.943.943 0 010-1.887zm9.434 0a.943.943 0 110 1.887.943.943 0 010-1.887z" fill="#2A2827"/><path d="M56.477 15.66a.943.943 0 110 1.887.943.943 0 010-1.887z" fill="#2A2827"/><path d="M58.363 15.66a.943.943 0 110 1.887.943.943 0 010-1.887z" fill="#2A2827"/><path d="M60.25 15.66a.943.943 0 110 1.887.943.943 0 010-1.887z" fill="#2A2827"/><path d="M62.137 15.66a.943.943 0 110 1.887.943.943 0 010-1.887zm7.547 0a.943.943 0 110 1.887.943.943 0 010-1.887zm3.773 0a.943.943 0 110 1.887.943.943 0 010-1.887zm9.433 0a.943.943 0 110 1.887.943.943 0 010-1.887z" fill="#2A2827"/><path d="M84.778 15.66a.943.943 0 110 1.887.943.943 0 010-1.887z" fill="#2A2827"/><path d="M86.664 15.66a.943.943 0 110 1.887.943.943 0 010-1.887z" fill="#2A2827"/><path d="M88.55 15.66a.943.943 0 11.001 1.887.943.943 0 010-1.887z" fill="#2A2827"/><path d="M90.44 15.66a.943.943 0 110 1.887.943.943 0 010-1.887zm-56.606 1.887a.943.943 0 110 1.887.943.943 0 010-1.887zm11.322 0a.943.943 0 110 1.887.943.943 0 010-1.887zm3.774 0a.943.943 0 110 1.887.943.943 0 010-1.887z" fill="#2A2827"/><path d="M50.817 17.547a.943.943 0 110 1.887.943.943 0 010-1.887z" fill="#2A2827"/><path d="M52.703 17.547a.943.943 0 110 1.887.943.943 0 010-1.887zm3.774 0a.943.943 0 110 1.887.943.943 0 010-1.887z" fill="#2A2827"/><path d="M58.363 17.547a.943.943 0 110 1.887.943.943 0 010-1.887z" fill="#2A2827"/><path d="M60.25 17.547a.943.943 0 110 1.887.943.943 0 010-1.887z" fill="#2A2827"/><path d="M62.137 17.547a.943.943 0 110 1.887.943.943 0 010-1.887zm3.773 0a.943.943 0 110 1.887.943.943 0 010-1.887z" fill="#2A2827"/><path d="M67.797 17.547a.943.943 0 110 1.887.943.943 0 010-1.887z" fill="#2A2827"/><path d="M69.684 17.547a.943.943 0 110 1.887.943.943 0 010-1.887z" fill="#2A2827"/><path d="M71.57 17.547a.943.943 0 110 1.887.943.943 0 010-1.887zm5.66 0a.943.943 0 110 1.887.943.943 0 010-1.887z" fill="#2A2827"/><path d="M79.117 17.547a.943.943 0 110 1.887.943.943 0 010-1.887z" fill="#2A2827"/><path d="M81.004 17.547a.943.943 0 110 1.887.943.943 0 010-1.887zm7.546 0a.943.943 0 11.001 1.887.943.943 0 010-1.887z" fill="#2A2827"/><path d="M90.44 17.547a.943.943 0 110 1.887.943.943 0 010-1.887zm-60.38 1.887a.943.943 0 110 1.886.943.943 0 010-1.886z" fill="#2A2827"/><path d="M31.947 19.434a.943.943 0 110 1.886.943.943 0 010-1.886z" fill="#2A2827"/><path d="M33.834 19.434a.943.943 0 110 1.886.943.943 0 010-1.886zm5.66 0a.943.943 0 110 1.886.943.943 0 010-1.886zm3.776 0a.943.943 0 110 1.886.943.943 0 010-1.886z" fill="#2A2827"/><path d="M45.156 19.434a.943.943 0 110 1.886.943.943 0 010-1.886zm5.661 0a.943.943 0 110 1.886.943.943 0 010-1.886zm3.773 0a.943.943 0 110 1.886.943.943 0 010-1.886z" fill="#2A2827"/><path d="M56.477 19.434a.943.943 0 110 1.886.943.943 0 010-1.886zm16.98 0a.943.943 0 110 1.886.943.943 0 010-1.886zm3.773 0a.943.943 0 110 1.886.943.943 0 010-1.886zm7.548 0a.943.943 0 110 1.886.943.943 0 010-1.886zm3.772 0a.943.943 0 11.001 1.886.943.943 0 010-1.886zM30.06 21.32a.943.943 0 110 1.887.943.943 0 010-1.887z" fill="#2A2827"/><path d="M31.947 21.32a.943.943 0 110 1.887.943.943 0 010-1.887z" fill="#2A2827"/><path d="M33.834 21.32a.943.943 0 110 1.887.943.943 0 010-1.887zm7.549 0a.943.943 0 110 1.887.943.943 0 010-1.887z" fill="#2A2827"/><path d="M43.27 21.32a.943.943 0 110 1.887.943.943 0 010-1.887zm3.773 0a.943.943 0 110 1.887.943.943 0 010-1.887z" fill="#2A2827"/><path d="M48.93 21.32a.943.943 0 110 1.887.943.943 0 010-1.887zm3.773 0a.943.943 0 110 1.887.943.943 0 010-1.887zm3.774 0a.943.943 0 110 1.887.943.943 0 010-1.887z" fill="#2A2827"/><path d="M58.363 21.32a.943.943 0 110 1.887.943.943 0 010-1.887z" fill="#2A2827"/><path d="M60.25 21.32a.943.943 0 110 1.887.943.943 0 010-1.887z" fill="#2A2827"/><path d="M62.137 21.32a.943.943 0 110 1.887.943.943 0 010-1.887z" fill="#2A2827"/><path d="M64.024 21.32a.943.943 0 110 1.887.943.943 0 010-1.887z" fill="#2A2827"/><path d="M65.91 21.32a.943.943 0 110 1.887.943.943 0 010-1.887z" fill="#2A2827"/><path d="M67.797 21.32a.943.943 0 110 1.887.943.943 0 010-1.887zm9.433 0a.943.943 0 110 1.887.943.943 0 010-1.887zm5.66 0a.943.943 0 110 1.887.943.943 0 010-1.887zm-52.83 1.887a.943.943 0 110 1.887.943.943 0 010-1.887zm5.66 0a.943.943 0 110 1.887.943.943 0 010-1.887zm5.663 0a.943.943 0 110 1.887.943.943 0 010-1.887z" fill="#2A2827"/><path d="M43.27 23.207a.943.943 0 110 1.887.943.943 0 010-1.887zm3.773 0a.943.943 0 110 1.887.943.943 0 010-1.887z" fill="#2A2827"/><path d="M48.93 23.207a.943.943 0 110 1.887.943.943 0 010-1.887z" fill="#2A2827"/><path d="M50.817 23.207a.943.943 0 110 1.887.943.943 0 010-1.887zm3.773 0a.943.943 0 110 1.887.943.943 0 010-1.887z" fill="#2A2827"/><path d="M56.477 23.207a.943.943 0 110 1.887.943.943 0 010-1.887zm7.547 0a.943.943 0 110 1.887.943.943 0 010-1.887z" fill="#2A2827"/><path d="M65.91 23.207a.943.943 0 110 1.887.943.943 0 010-1.887z" fill="#2A2827"/><path d="M67.797 23.207a.943.943 0 110 1.887.943.943 0 010-1.887z" fill="#2A2827"/><path d="M69.684 23.207a.943.943 0 110 1.887.943.943 0 010-1.887zm3.773 0a.943.943 0 110 1.887.943.943 0 010-1.887z" fill="#2A2827"/><path d="M75.344 23.207a.943.943 0 110 1.887.943.943 0 010-1.887z" fill="#2A2827"/><path d="M77.23 23.207a.943.943 0 110 1.887.943.943 0 010-1.887z" fill="#2A2827"/><path d="M79.117 23.207a.943.943 0 110 1.887.943.943 0 010-1.887z" fill="#2A2827"/><path d="M81.004 23.207a.943.943 0 110 1.887.943.943 0 010-1.887z" fill="#2A2827"/><path d="M82.89 23.207a.943.943 0 110 1.887.943.943 0 010-1.887z" fill="#2A2827"/><path d="M84.778 23.207a.943.943 0 110 1.887.943.943 0 010-1.887z" fill="#2A2827"/><path d="M86.664 23.207a.943.943 0 110 1.887.943.943 0 010-1.887zM30.06 25.094a.943.943 0 110 1.886.943.943 0 010-1.886zm3.774 0a.943.943 0 110 1.886.943.943 0 010-1.886zm3.774 0a.943.943 0 110 1.886.943.943 0 010-1.886zm3.775 0a.943.943 0 110 1.886.943.943 0 010-1.886zm3.773 0a.943.943 0 110 1.886.943.943 0 010-1.886zm3.774 0a.943.943 0 110 1.886.943.943 0 010-1.886zm3.773 0a.943.943 0 110 1.886.943.943 0 010-1.886zm3.774 0a.943.943 0 110 1.886.943.943 0 010-1.886zm3.773 0a.943.943 0 110 1.886.943.943 0 010-1.886zm3.774 0a.943.943 0 110 1.886.943.943 0 010-1.886zm3.773 0a.943.943 0 110 1.886.943.943 0 010-1.886zm3.773 0a.943.943 0 110 1.886.943.943 0 010-1.886zm3.774 0a.943.943 0 110 1.886.943.943 0 010-1.886zm3.773 0a.943.943 0 110 1.886.943.943 0 010-1.886zm3.773 0a.943.943 0 110 1.886.943.943 0 010-1.886zm3.774 0a.943.943 0 110 1.886.943.943 0 010-1.886zm3.776 0a.943.943 0 110 1.886.943.943 0 010-1.886zM31.947 26.98a.943.943 0 110 1.887.943.943 0 010-1.887z" fill="#2A2827"/><path d="M33.834 26.98a.943.943 0 110 1.887.943.943 0 010-1.887z" fill="#2A2827"/><path d="M35.72 26.98a.943.943 0 11.001 1.887.943.943 0 010-1.887z" fill="#2A2827"/><path d="M37.608 26.98a.943.943 0 110 1.887.943.943 0 010-1.887zm3.775 0a.943.943 0 110 1.887.943.943 0 010-1.887zm5.66 0a.943.943 0 110 1.887.943.943 0 010-1.887z" fill="#2A2827"/><path d="M48.93 26.98a.943.943 0 110 1.887.943.943 0 010-1.887z" fill="#2A2827"/><path d="M50.817 26.98a.943.943 0 110 1.887.943.943 0 010-1.887z" fill="#2A2827"/><path d="M52.703 26.98a.943.943 0 110 1.887.943.943 0 010-1.887zm3.774 0a.943.943 0 110 1.887.943.943 0 010-1.887zm7.547 0a.943.943 0 110 1.887.943.943 0 010-1.887zm3.773 0a.943.943 0 110 1.887.943.943 0 010-1.887z" fill="#2A2827"/><path d="M69.684 26.98a.943.943 0 110 1.887.943.943 0 010-1.887z" fill="#2A2827"/><path d="M71.57 26.98a.943.943 0 110 1.887.943.943 0 010-1.887zm5.66 0a.943.943 0 110 1.887.943.943 0 010-1.887zm3.774 0a.943.943 0 110 1.887.943.943 0 010-1.887zm3.774 0a.943.943 0 110 1.887.943.943 0 010-1.887z" fill="#2A2827"/><path d="M86.664 26.98a.943.943 0 110 1.887.943.943 0 010-1.887z" fill="#2A2827"/><path d="M88.55 26.98a.943.943 0 11.001 1.887.943.943 0 010-1.887z" fill="#2A2827"/><path d="M90.44 26.98a.943.943 0 110 1.887.943.943 0 010-1.887zm-69.813 1.887a.943.943 0 110 1.887.943.943 0 010-1.887zm5.66 0a.943.943 0 110 1.887.943.943 0 010-1.887zm7.547 0a.943.943 0 110 1.887.943.943 0 010-1.887zm3.774 0a.943.943 0 110 1.887.943.943 0 010-1.887z" fill="#2A2827"/><path d="M39.494 28.867a.943.943 0 110 1.887.943.943 0 010-1.887zm3.776 0a.943.943 0 110 1.887.943.943 0 010-1.887z" fill="#2A2827"/><path d="M45.156 28.867a.943.943 0 110 1.887.943.943 0 010-1.887zm3.774 0a.943.943 0 110 1.887.943.943 0 010-1.887zm3.773 0a.943.943 0 110 1.887.943.943 0 010-1.887z" fill="#2A2827"/><path d="M54.59 28.867a.943.943 0 110 1.887.943.943 0 010-1.887z" fill="#2A2827"/><path d="M56.477 28.867a.943.943 0 110 1.887.943.943 0 010-1.887z" fill="#2A2827"/><path d="M58.363 28.867a.943.943 0 110 1.887.943.943 0 010-1.887z" fill="#2A2827"/><path d="M60.25 28.867a.943.943 0 110 1.887.943.943 0 010-1.887z" fill="#2A2827"/><path d="M62.137 28.867a.943.943 0 110 1.887.943.943 0 010-1.887z" fill="#2A2827"/><path d="M64.024 28.867a.943.943 0 110 1.887.943.943 0 010-1.887zm7.546 0a.943.943 0 110 1.887.943.943 0 010-1.887z" fill="#2A2827"/><path d="M73.457 28.867a.943.943 0 110 1.887.943.943 0 010-1.887zm3.773 0a.943.943 0 110 1.887.943.943 0 010-1.887z" fill="#2A2827"/><path d="M79.117 28.867a.943.943 0 110 1.887.943.943 0 010-1.887zm5.661 0a.943.943 0 110 1.887.943.943 0 010-1.887z" fill="#2A2827"/><path d="M86.664 28.867a.943.943 0 110 1.887.943.943 0 010-1.887zm9.436 0a.943.943 0 110 1.887.943.943 0 010-1.887z" fill="#2A2827"/><path d="M97.987 28.867a.943.943 0 110 1.887.943.943 0 010-1.887z" fill="#2A2827"/><path d="M99.873 28.867a.944.944 0 110 1.888.944.944 0 010-1.888zm3.774 0a.943.943 0 110 1.886.943.943 0 010-1.886z" fill="#2A2827"/><path d="M105.533 28.867a.944.944 0 110 1.888.944.944 0 010-1.888zM18.74 30.754a.943.943 0 110 1.887.943.943 0 010-1.887zm9.434 0a.943.943 0 110 1.887.943.943 0 010-1.887zm3.773 0a.943.943 0 110 1.887.943.943 0 010-1.887zm7.547 0a.943.943 0 110 1.887.943.943 0 010-1.887zm5.662 0a.943.943 0 110 1.887.943.943 0 010-1.887zm3.774 0a.943.943 0 110 1.887.943.943 0 010-1.887zm3.773 0a.943.943 0 110 1.887.943.943 0 010-1.887z" fill="#2A2827"/><path d="M54.59 30.754a.943.943 0 110 1.887.943.943 0 010-1.887zm3.773 0a.943.943 0 110 1.887.943.943 0 010-1.887zm3.774 0a.943.943 0 110 1.887.943.943 0 010-1.887z" fill="#2A2827"/><path d="M64.024 30.754a.943.943 0 110 1.887.943.943 0 010-1.887zm3.773 0a.943.943 0 110 1.887.943.943 0 010-1.887zm5.66 0a.943.943 0 110 1.887.943.943 0 010-1.887z" fill="#2A2827"/><path d="M75.344 30.754a.943.943 0 110 1.887.943.943 0 010-1.887zm5.66 0a.943.943 0 110 1.887.943.943 0 010-1.887z" fill="#2A2827"/><path d="M82.89 30.754a.943.943 0 110 1.887.943.943 0 010-1.887zm9.436 0a.943.943 0 110 1.887.943.943 0 010-1.887zm3.774 0a.943.943 0 110 1.887.943.943 0 010-1.887zm3.773 0a.944.944 0 110 1.888.944.944 0 010-1.888zm5.66 0a.944.944 0 110 1.888.944.944 0 010-1.888zM16.854 32.64a.943.943 0 110 1.887.943.943 0 010-1.886z" fill="#2A2827"/><path d="M18.74 32.64a.943.943 0 110 1.887.943.943 0 010-1.886zm3.774 0a.943.943 0 110 1.887.943.943 0 010-1.886z" fill="#2A2827"/><path d="M24.4 32.64a.943.943 0 110 1.887.943.943 0 010-1.886z" fill="#2A2827"/><path d="M26.287 32.64a.943.943 0 110 1.887.943.943 0 010-1.886zm9.433 0a.943.943 0 110 1.887.943.943 0 010-1.886zm3.774 0a.943.943 0 110 1.887.943.943 0 010-1.886zm5.662 0a.943.943 0 110 1.887.943.943 0 010-1.886zm5.661 0a.943.943 0 110 1.887.943.943 0 010-1.886zm7.546 0a.943.943 0 110 1.887.943.943 0 010-1.886zm7.547 0a.943.943 0 110 1.887.943.943 0 010-1.886zm5.66 0a.943.943 0 110 1.887.943.943 0 010-1.886z" fill="#2A2827"/><path d="M73.457 32.64a.943.943 0 110 1.887.943.943 0 010-1.886z" fill="#2A2827"/><path d="M75.344 32.64a.943.943 0 110 1.887.943.943 0 010-1.886zm3.773 0a.943.943 0 110 1.887.943.943 0 010-1.886z" fill="#2A2827"/><path d="M81.004 32.64a.943.943 0 110 1.887.943.943 0 010-1.886zm3.774 0a.943.943 0 110 1.887.943.943 0 010-1.886zm5.662 0a.943.943 0 110 1.887.943.943 0 010-1.886z" fill="#2A2827"/><path d="M92.326 32.64a.943.943 0 110 1.887.943.943 0 010-1.886zm5.661 0a.943.943 0 110 1.887.943.943 0 010-1.886z" fill="#2A2827"/><path d="M99.873 32.64a.944.944 0 110 1.888.944.944 0 010-1.887z" fill="#2A2827"/><path d="M101.76 32.64a.943.943 0 110 1.887.943.943 0 010-1.886zm3.773 0a.944.944 0 110 1.888.944.944 0 010-1.887zM18.74 34.527a.943.943 0 110 1.887.943.943 0 010-1.887zm9.434 0a.943.943 0 110 1.887.943.943 0 010-1.887z" fill="#2A2827"/><path d="M30.06 34.527a.943.943 0 110 1.887.943.943 0 010-1.887zm7.548 0a.943.943 0 110 1.887.943.943 0 010-1.887zm7.548 0a.943.943 0 110 1.887.943.943 0 010-1.887zm5.661 0a.943.943 0 110 1.887.943.943 0 010-1.887z" fill="#2A2827"/><path d="M52.703 34.527a.943.943 0 110 1.887.943.943 0 010-1.887zm3.774 0a.943.943 0 110 1.887.943.943 0 010-1.887zm3.773 0a.943.943 0 110 1.887.943.943 0 010-1.887z" fill="#2A2827"/><path d="M62.137 34.527a.943.943 0 110 1.887.943.943 0 010-1.887zm7.547 0a.943.943 0 110 1.887.943.943 0 010-1.887zm7.546 0a.943.943 0 110 1.887.943.943 0 010-1.887zm5.66 0a.943.943 0 110 1.887.943.943 0 010-1.887z" fill="#2A2827"/><path d="M84.778 34.527a.943.943 0 110 1.887.943.943 0 010-1.887zm5.662 0a.943.943 0 110 1.887.943.943 0 010-1.887zm13.207 0a.943.943 0 110 1.886.943.943 0 010-1.886z" fill="#2A2827"/><path d="M105.533 34.527a.944.944 0 110 1.888.944.944 0 010-1.888zm-90.566 1.887a.943.943 0 110 1.887.943.943 0 010-1.887z" fill="#2A2827"/><path d="M16.854 36.414a.943.943 0 110 1.887.943.943 0 010-1.887z" fill="#2A2827"/><path d="M18.74 36.414a.943.943 0 110 1.887.943.943 0 010-1.887z" fill="#2A2827"/><path d="M20.627 36.414a.943.943 0 110 1.887.943.943 0 010-1.887zm3.773 0a.943.943 0 110 1.887.943.943 0 010-1.887z" fill="#2A2827"/><path d="M26.287 36.414a.943.943 0 110 1.887.943.943 0 010-1.887z" fill="#2A2827"/><path d="M28.174 36.414a.943.943 0 110 1.887.943.943 0 010-1.887z" fill="#2A2827"/><path d="M30.06 36.414a.943.943 0 110 1.887.943.943 0 010-1.887zm3.774 0a.943.943 0 110 1.887.943.943 0 010-1.887zm3.774 0a.943.943 0 110 1.887.943.943 0 010-1.887z" fill="#2A2827"/><path d="M39.494 36.414a.943.943 0 110 1.887.943.943 0 010-1.887zm3.776 0a.943.943 0 110 1.887.943.943 0 010-1.887z" fill="#2A2827"/><path d="M45.156 36.414a.943.943 0 110 1.887.943.943 0 010-1.887zm3.774 0a.943.943 0 110 1.887.943.943 0 010-1.887zm5.66 0a.943.943 0 110 1.887.943.943 0 010-1.887zm3.773 0a.943.943 0 110 1.887.943.943 0 010-1.887zm3.774 0a.943.943 0 110 1.887.943.943 0 010-1.887z" fill="#2A2827"/><path d="M64.024 36.414a.943.943 0 110 1.887.943.943 0 010-1.887zm3.773 0a.943.943 0 110 1.887.943.943 0 010-1.887zm5.66 0a.943.943 0 110 1.887.943.943 0 010-1.887z" fill="#2A2827"/><path d="M75.344 36.414a.943.943 0 110 1.887.943.943 0 010-1.887z" fill="#2A2827"/><path d="M77.23 36.414a.943.943 0 110 1.887.943.943 0 010-1.887z" fill="#2A2827"/><path d="M79.117 36.414a.943.943 0 110 1.887.943.943 0 010-1.887z" fill="#2A2827"/><path d="M81.004 36.414a.943.943 0 110 1.887.943.943 0 010-1.887z" fill="#2A2827"/><path d="M82.89 36.414a.943.943 0 110 1.887.943.943 0 010-1.887z" fill="#2A2827"/><path d="M84.778 36.414a.943.943 0 110 1.887.943.943 0 010-1.887z" fill="#2A2827"/><path d="M86.664 36.414a.943.943 0 110 1.887.943.943 0 010-1.887zm7.549 0a.943.943 0 110 1.887.943.943 0 010-1.887z" fill="#2A2827"/><path d="M96.1 36.414a.943.943 0 110 1.887.943.943 0 010-1.887z" fill="#2A2827"/><path d="M97.987 36.414a.943.943 0 110 1.887.943.943 0 010-1.887zm7.546 0a.944.944 0 110 1.888.944.944 0 010-1.888zM18.74 38.3a.943.943 0 110 1.888.943.943 0 010-1.887z" fill="#2A2827"/><path d="M20.627 38.3a.943.943 0 110 1.888.943.943 0 010-1.887z" fill="#2A2827"/><path d="M22.514 38.3a.943.943 0 110 1.888.943.943 0 010-1.887z" fill="#2A2827"/><path d="M24.4 38.3a.943.943 0 110 1.888.943.943 0 010-1.887zm11.32 0a.943.943 0 110 1.888.943.943 0 010-1.887z" fill="#2A2827"/><path d="M37.608 38.3a.943.943 0 110 1.888.943.943 0 010-1.887z" fill="#2A2827"/><path d="M39.494 38.3a.943.943 0 110 1.888.943.943 0 010-1.887zm7.549 0a.943.943 0 110 1.888.943.943 0 010-1.887zm9.434 0a.943.943 0 110 1.888.943.943 0 010-1.887zm3.773 0a.943.943 0 110 1.888.943.943 0 010-1.887zm5.66 0a.943.943 0 110 1.888.943.943 0 010-1.887zm5.66 0a.943.943 0 110 1.888.943.943 0 010-1.887zm7.547 0a.943.943 0 110 1.888.943.943 0 010-1.887zm9.433 0a.943.943 0 11.001 1.888.943.943 0 010-1.887z" fill="#2A2827"/><path d="M90.44 38.3a.943.943 0 110 1.888.943.943 0 010-1.887zm5.66 0a.943.943 0 110 1.888.943.943 0 010-1.887zm3.773 0a.944.944 0 110 1.889.944.944 0 010-1.888z" fill="#2A2827"/><path d="M101.76 38.3a.943.943 0 110 1.887.943.943 0 010-1.886z" fill="#2A2827"/><path d="M103.647 38.3a.943.943 0 110 1.887.943.943 0 010-1.886z" fill="#2A2827"/><path d="M105.533 38.3a.944.944 0 110 1.889.944.944 0 010-1.888zM18.74 40.19a.943.943 0 110 1.886.943.943 0 010-1.886z" fill="#2A2827"/><path d="M20.627 40.19a.943.943 0 110 1.886.943.943 0 010-1.886z" fill="#2A2827"/><path d="M22.514 40.19a.943.943 0 110 1.886.943.943 0 010-1.886zm3.773 0a.943.943 0 110 1.886.943.943 0 010-1.886zm5.66 0a.943.943 0 110 1.886.943.943 0 010-1.886z" fill="#2A2827"/><path d="M33.834 40.19a.943.943 0 110 1.886.943.943 0 010-1.886z" fill="#2A2827"/><path d="M35.72 40.19a.943.943 0 11.001 1.886.943.943 0 010-1.886z" fill="#2A2827"/><path d="M37.608 40.19a.943.943 0 110 1.886.943.943 0 010-1.886zm3.775 0a.943.943 0 110 1.886.943.943 0 010-1.886z" fill="#2A2827"/><path d="M43.27 40.19a.943.943 0 110 1.886.943.943 0 010-1.886z" fill="#2A2827"/><path d="M45.156 40.19a.943.943 0 110 1.886.943.943 0 010-1.886z" fill="#2A2827"/><path d="M47.043 40.19a.943.943 0 110 1.886.943.943 0 010-1.886zm5.66 0a.943.943 0 110 1.886.943.943 0 010-1.886zm3.774 0a.943.943 0 110 1.886.943.943 0 010-1.886zm3.773 0a.943.943 0 110 1.886.943.943 0 010-1.886zm9.434 0a.943.943 0 110 1.886.943.943 0 010-1.886z" fill="#2A2827"/><path d="M71.57 40.19a.943.943 0 110 1.886.943.943 0 010-1.886zm3.774 0a.943.943 0 110 1.886.943.943 0 010-1.886zm5.66 0a.943.943 0 110 1.886.943.943 0 010-1.886zm5.66 0a.943.943 0 110 1.886.943.943 0 010-1.886zm5.662 0a.943.943 0 110 1.886.943.943 0 010-1.886zm7.547 0a.944.944 0 110 1.887.944.944 0 010-1.887z" fill="#2A2827"/><path d="M101.76 40.19a.943.943 0 110 1.886.943.943 0 010-1.886zm3.773 0a.944.944 0 110 1.887.944.944 0 010-1.887zm-84.906 1.886a.943.943 0 110 1.887.943.943 0 010-1.887z" fill="#2A2827"/><path d="M22.514 42.076a.943.943 0 110 1.887.943.943 0 010-1.887z" fill="#2A2827"/><path d="M24.4 42.076a.943.943 0 110 1.887.943.943 0 010-1.887zm5.66 0a.943.943 0 110 1.887.943.943 0 010-1.887z" fill="#2A2827"/><path d="M31.947 42.076a.943.943 0 110 1.887.943.943 0 010-1.887z" fill="#2A2827"/><path d="M33.834 42.076a.943.943 0 110 1.887.943.943 0 010-1.887z" fill="#2A2827"/><path d="M35.72 42.076a.943.943 0 11.001 1.887.943.943 0 010-1.887z" fill="#2A2827"/><path d="M37.608 42.076a.943.943 0 110 1.887.943.943 0 010-1.887z" fill="#2A2827"/><path d="M39.494 42.076a.943.943 0 110 1.887.943.943 0 010-1.887zm7.549 0a.943.943 0 110 1.887.943.943 0 010-1.887z" fill="#2A2827"/><path d="M48.93 42.076a.943.943 0 110 1.887.943.943 0 010-1.887zm3.773 0a.943.943 0 110 1.887.943.943 0 010-1.887z" fill="#2A2827"/><path d="M54.59 42.076a.943.943 0 110 1.887.943.943 0 010-1.887zm7.547 0a.943.943 0 110 1.887.943.943 0 010-1.887z" fill="#2A2827"/><path d="M64.024 42.076a.943.943 0 110 1.887.943.943 0 010-1.887zm5.66 0a.943.943 0 110 1.887.943.943 0 010-1.887zm3.773 0a.943.943 0 110 1.887.943.943 0 010-1.887z" fill="#2A2827"/><path d="M75.344 42.076a.943.943 0 110 1.887.943.943 0 010-1.887z" fill="#2A2827"/><path d="M77.23 42.076a.943.943 0 110 1.887.943.943 0 010-1.887zm5.66 0a.943.943 0 110 1.887.943.943 0 010-1.887z" fill="#2A2827"/><path d="M84.778 42.076a.943.943 0 110 1.887.943.943 0 010-1.887zm3.772 0a.943.943 0 11.001 1.887.943.943 0 010-1.887z" fill="#2A2827"/><path d="M90.44 42.076a.943.943 0 110 1.887.943.943 0 010-1.887zm3.773 0a.943.943 0 110 1.887.943.943 0 010-1.887z" fill="#2A2827"/><path d="M96.1 42.076a.943.943 0 110 1.887.943.943 0 010-1.887z" fill="#2A2827"/><path d="M97.987 42.076a.943.943 0 110 1.887.943.943 0 010-1.887z" fill="#2A2827"/><path d="M99.873 42.076a.944.944 0 110 1.888.944.944 0 010-1.888zm3.774 0a.943.943 0 110 1.886.943.943 0 010-1.886z" fill="#2A2827"/><path d="M105.533 42.076a.944.944 0 110 1.888.944.944 0 010-1.888zm-90.566 1.887a.943.943 0 110 1.887.943.943 0 010-1.887z" fill="#2A2827"/><path d="M16.854 43.963a.943.943 0 110 1.887.943.943 0 010-1.887z" fill="#2A2827"/><path d="M18.74 43.963a.943.943 0 110 1.887.943.943 0 010-1.887zm5.66 0a.943.943 0 110 1.887.943.943 0 010-1.887z" fill="#2A2827"/><path d="M26.287 43.963a.943.943 0 110 1.887.943.943 0 010-1.887z" fill="#2A2827"/><path d="M28.174 43.963a.943.943 0 110 1.887.943.943 0 010-1.887zm5.66 0a.943.943 0 110 1.887.943.943 0 010-1.887z" fill="#2A2827"/><path d="M35.72 43.963a.943.943 0 110 1.887.943.943 0 010-1.887zm5.663 0a.943.943 0 110 1.887.943.943 0 010-1.887z" fill="#2A2827"/><path d="M43.27 43.963a.943.943 0 110 1.887.943.943 0 010-1.887z" fill="#2A2827"/><path d="M45.156 43.963a.943.943 0 110 1.887.943.943 0 010-1.887zm9.434 0a.943.943 0 110 1.887.943.943 0 010-1.887z" fill="#2A2827"/><path d="M56.477 43.963a.943.943 0 110 1.887.943.943 0 010-1.887zm7.547 0a.943.943 0 110 1.887.943.943 0 010-1.887zm3.773 0a.943.943 0 110 1.887.943.943 0 010-1.887z" fill="#2A2827"/><path d="M69.684 43.963a.943.943 0 110 1.887.943.943 0 010-1.887z" fill="#2A2827"/><path d="M71.57 43.963a.943.943 0 110 1.887.943.943 0 010-1.887zm3.774 0a.943.943 0 110 1.887.943.943 0 010-1.887z" fill="#2A2827"/><path d="M77.23 43.963a.943.943 0 110 1.887.943.943 0 010-1.887zm3.774 0a.943.943 0 110 1.887.943.943 0 010-1.887z" fill="#2A2827"/><path d="M82.89 43.963a.943.943 0 110 1.887.943.943 0 010-1.887zm3.774 0a.943.943 0 110 1.887.943.943 0 010-1.887zm11.323 0a.943.943 0 110 1.887.943.943 0 010-1.887z" fill="#2A2827"/><path d="M99.873 43.963a.944.944 0 110 1.888.944.944 0 010-1.888zm5.66 0a.944.944 0 110 1.888.944.944 0 010-1.888zM39.494 45.85a.943.943 0 110 1.886.943.943 0 010-1.886zm3.776 0a.943.943 0 110 1.886.943.943 0 010-1.886z" fill="#2A2827"/><path d="M45.156 45.85a.943.943 0 110 1.886.943.943 0 010-1.886zm5.661 0a.943.943 0 110 1.886.943.943 0 010-1.886z" fill="#2A2827"/><path d="M52.703 45.85a.943.943 0 110 1.886.943.943 0 010-1.886zm5.66 0a.943.943 0 110 1.886.943.943 0 010-1.886z" fill="#2A2827"/><path d="M60.25 45.85a.943.943 0 110 1.886.943.943 0 010-1.886z" fill="#2A2827"/><path d="M62.137 45.85a.943.943 0 110 1.886.943.943 0 010-1.886z" fill="#2A2827"/><path d="M64.024 45.85a.943.943 0 110 1.886.943.943 0 010-1.886zm3.773 0a.943.943 0 110 1.886.943.943 0 010-1.886zm3.773 0a.943.943 0 110 1.886.943.943 0 010-1.886zm5.66 0a.943.943 0 110 1.886.943.943 0 010-1.886zm5.66 0a.943.943 0 110 1.886.943.943 0 010-1.886z" fill="#2A2827"/><path d="M84.778 45.85a.943.943 0 110 1.886.943.943 0 010-1.886z" fill="#2A2827"/><path d="M86.664 45.85a.943.943 0 110 1.886.943.943 0 010-1.886zm3.776 0a.943.943 0 110 1.886.943.943 0 010-1.886z" fill="#2A2827"/><path d="M92.326 45.85a.943.943 0 110 1.886.943.943 0 010-1.886z" fill="#2A2827"/><path d="M94.213 45.85a.943.943 0 110 1.886.943.943 0 010-1.886zm5.66 0a.944.944 0 110 1.887.944.944 0 010-1.887z" fill="#2A2827"/><path d="M101.76 45.85a.943.943 0 110 1.886.943.943 0 010-1.886zm3.773 0a.944.944 0 110 1.887.944.944 0 010-1.887zm-88.679 1.886a.943.943 0 110 1.887.943.943 0 010-1.887zm3.773 0a.943.943 0 110 1.887.943.943 0 010-1.887zm5.66 0a.943.943 0 110 1.887.943.943 0 010-1.887z" fill="#2A2827"/><path d="M28.174 47.736a.943.943 0 110 1.887.943.943 0 010-1.887z" fill="#2A2827"/><path d="M30.06 47.736a.943.943 0 110 1.887.943.943 0 010-1.887zm5.66 0a.943.943 0 110 1.887.943.943 0 010-1.887z" fill="#2A2827"/><path d="M37.608 47.736a.943.943 0 110 1.887.943.943 0 010-1.887z" fill="#2A2827"/><path d="M39.494 47.736a.943.943 0 110 1.887.943.943 0 010-1.887zm3.776 0a.943.943 0 110 1.887.943.943 0 010-1.887z" fill="#2A2827"/><path d="M45.156 47.736a.943.943 0 110 1.887.943.943 0 010-1.887zm3.774 0a.943.943 0 110 1.887.943.943 0 010-1.887z" fill="#2A2827"/><path d="M50.817 47.736a.943.943 0 110 1.887.943.943 0 010-1.887zm3.773 0a.943.943 0 110 1.887.943.943 0 010-1.887z" fill="#2A2827"/><path d="M56.477 47.736a.943.943 0 110 1.887.943.943 0 010-1.887z" fill="#2A2827"/><path d="M58.363 47.736a.943.943 0 110 1.887.943.943 0 010-1.887z" fill="#2A2827"/><path d="M60.25 47.736a.943.943 0 110 1.887.943.943 0 010-1.887z" fill="#2A2827"/><path d="M62.137 47.736a.943.943 0 110 1.887.943.943 0 010-1.887zm3.773 0a.943.943 0 110 1.887.943.943 0 010-1.887zm3.774 0a.943.943 0 110 1.887.943.943 0 010-1.887z" fill="#2A2827"/><path d="M71.57 47.736a.943.943 0 110 1.887.943.943 0 010-1.887z" fill="#2A2827"/><path d="M73.457 47.736a.943.943 0 110 1.887.943.943 0 010-1.887zm3.773 0a.943.943 0 110 1.887.943.943 0 010-1.887z" fill="#2A2827"/><path d="M79.117 47.736a.943.943 0 110 1.887.943.943 0 010-1.887zm3.773 0a.943.943 0 110 1.887.943.943 0 010-1.887z" fill="#2A2827"/><path d="M84.778 47.736a.943.943 0 110 1.887.943.943 0 010-1.887z" fill="#2A2827"/><path d="M86.664 47.736a.943.943 0 110 1.887.943.943 0 010-1.887zm7.549 0a.943.943 0 110 1.887.943.943 0 010-1.887z" fill="#2A2827"/><path d="M96.1 47.736a.943.943 0 110 1.887.943.943 0 010-1.887z" fill="#2A2827"/><path d="M97.987 47.736a.943.943 0 110 1.887.943.943 0 010-1.887zm3.773 0a.943.943 0 110 1.886.943.943 0 010-1.886z" fill="#2A2827"/><path d="M103.647 47.736a.943.943 0 110 1.886.943.943 0 010-1.886z" fill="#2A2827"/><path d="M105.533 47.736a.944.944 0 110 1.888.944.944 0 010-1.888zm-88.679 1.887a.943.943 0 110 1.887.943.943 0 010-1.887z" fill="#2A2827"/><path d="M18.74 49.623a.943.943 0 110 1.887.943.943 0 010-1.887z" fill="#2A2827"/><path d="M20.627 49.623a.943.943 0 110 1.887.943.943 0 010-1.887z" fill="#2A2827"/><path d="M22.514 49.623a.943.943 0 110 1.887.943.943 0 010-1.887z" fill="#2A2827"/><path d="M24.4 49.623a.943.943 0 110 1.887.943.943 0 010-1.887zm3.774 0a.943.943 0 110 1.887.943.943 0 010-1.887z" fill="#2A2827"/><path d="M30.06 49.623a.943.943 0 110 1.887.943.943 0 010-1.887zm3.774 0a.943.943 0 110 1.887.943.943 0 010-1.887zm5.66 0a.943.943 0 110 1.887.943.943 0 010-1.887z" fill="#2A2827"/><path d="M41.383 49.623a.943.943 0 110 1.887.943.943 0 010-1.887z" fill="#2A2827"/><path d="M43.27 49.623a.943.943 0 110 1.887.943.943 0 010-1.887z" fill="#2A2827"/><path d="M45.156 49.623a.943.943 0 110 1.887.943.943 0 010-1.887z" fill="#2A2827"/><path d="M47.043 49.623a.943.943 0 110 1.887.943.943 0 010-1.887zm3.774 0a.943.943 0 110 1.887.943.943 0 010-1.887z" fill="#2A2827"/><path d="M52.703 49.623a.943.943 0 110 1.887.943.943 0 010-1.887z" fill="#2A2827"/><path d="M54.59 49.623a.943.943 0 110 1.887.943.943 0 010-1.887zm9.434 0a.943.943 0 110 1.887.943.943 0 010-1.887z" fill="#2A2827"/><path d="M65.91 49.623a.943.943 0 110 1.887.943.943 0 010-1.887zm3.774 0a.943.943 0 110 1.887.943.943 0 010-1.887z" fill="#2A2827"/><path d="M71.57 49.623a.943.943 0 110 1.887.943.943 0 010-1.887z" fill="#2A2827"/><path d="M73.457 49.623a.943.943 0 110 1.887.943.943 0 010-1.887zm3.773 0a.943.943 0 110 1.887.943.943 0 010-1.887z" fill="#2A2827"/><path d="M79.117 49.623a.943.943 0 110 1.887.943.943 0 010-1.887zm3.773 0a.943.943 0 110 1.887.943.943 0 010-1.887z" fill="#2A2827"/><path d="M84.778 49.623a.943.943 0 110 1.887.943.943 0 010-1.887z" fill="#2A2827"/><path d="M86.664 49.623a.943.943 0 110 1.887.943.943 0 010-1.887zm5.662 0a.943.943 0 110 1.887.943.943 0 010-1.887zm3.774 0a.943.943 0 110 1.887.943.943 0 010-1.887z" fill="#2A2827"/><path d="M97.987 49.623a.943.943 0 110 1.887.943.943 0 010-1.887zm3.773 0a.943.943 0 110 1.886.943.943 0 010-1.886zm3.773 0a.944.944 0 110 1.888.944.944 0 010-1.888zM14.967 51.51a.943.943 0 110 1.887.943.943 0 010-1.887zm3.773 0a.943.943 0 110 1.887.943.943 0 010-1.887z" fill="#2A2827"/><path d="M20.627 51.51a.943.943 0 110 1.886.943.943 0 010-1.886zm3.773 0a.943.943 0 110 1.886.943.943 0 010-1.886z" fill="#2A2827"/><path d="M26.287 51.51a.943.943 0 110 1.887.943.943 0 010-1.887zm3.773 0a.943.943 0 110 1.886.943.943 0 010-1.886z" fill="#2A2827"/><path d="M31.947 51.51a.943.943 0 110 1.886.943.943 0 010-1.886z" fill="#2A2827"/><path d="M33.834 51.51a.943.943 0 110 1.886.943.943 0 010-1.886zm3.774 0a.943.943 0 110 1.887.943.943 0 010-1.887zm3.775 0a.943.943 0 110 1.887.943.943 0 010-1.887zm5.66 0a.943.943 0 110 1.886.943.943 0 010-1.886z" fill="#2A2827"/><path d="M48.93 51.51a.943.943 0 110 1.886.943.943 0 010-1.886zm7.547 0a.943.943 0 110 1.886.943.943 0 010-1.886z" fill="#2A2827"/><path d="M58.363 51.51a.943.943 0 110 1.886.943.943 0 010-1.886z" fill="#2A2827"/><path d="M60.25 51.51a.943.943 0 110 1.887.943.943 0 010-1.887z" fill="#2A2827"/><path d="M62.137 51.51a.943.943 0 110 1.887.943.943 0 010-1.887zm3.773 0a.943.943 0 110 1.886.943.943 0 010-1.886z" fill="#2A2827"/><path d="M67.797 51.51a.943.943 0 110 1.886.943.943 0 010-1.886z" fill="#2A2827"/><path d="M69.684 51.51a.943.943 0 110 1.886.943.943 0 010-1.886z" fill="#2A2827"/><path d="M71.57 51.51a.943.943 0 110 1.887.943.943 0 010-1.887zm3.774 0a.943.943 0 110 1.886.943.943 0 010-1.886z" fill="#2A2827"/><path d="M77.23 51.51a.943.943 0 110 1.886.943.943 0 010-1.886z" fill="#2A2827"/><path d="M79.117 51.51a.943.943 0 110 1.886.943.943 0 010-1.886zm3.773 0a.943.943 0 110 1.887.943.943 0 010-1.887z" fill="#2A2827"/><path d="M84.778 51.51a.943.943 0 110 1.887.943.943 0 010-1.887z" fill="#2A2827"/><path d="M86.664 51.51a.943.943 0 110 1.886.943.943 0 010-1.886z" fill="#2A2827"/><path d="M88.55 51.51a.943.943 0 11.001 1.886.943.943 0 010-1.886zm3.776 0a.943.943 0 110 1.886.943.943 0 010-1.886z" fill="#2A2827"/><path d="M94.213 51.51a.943.943 0 110 1.886.943.943 0 010-1.886z" fill="#2A2827"/><path d="M96.1 51.51a.943.943 0 110 1.887.943.943 0 010-1.887zm3.773 0a.944.944 0 110 1.887.944.944 0 010-1.887zm5.66 0a.944.944 0 110 1.888.944.944 0 010-1.888zM18.74 53.397a.943.943 0 110 1.886.943.943 0 010-1.886z" fill="#2A2827"/><path d="M20.627 53.397a.943.943 0 110 1.886.943.943 0 010-1.886zm3.773 0a.943.943 0 110 1.886.943.943 0 010-1.886zm3.774 0a.943.943 0 110 1.886.943.943 0 010-1.886z" fill="#2A2827"/><path d="M30.06 53.397a.943.943 0 110 1.886.943.943 0 010-1.886z" fill="#2A2827"/><path d="M31.947 53.397a.943.943 0 110 1.886.943.943 0 010-1.886zm3.773 0a.943.943 0 110 1.886.943.943 0 010-1.886zm7.55 0a.943.943 0 110 1.886.943.943 0 010-1.886z" fill="#2A2827"/><path d="M45.156 53.397a.943.943 0 110 1.886.943.943 0 010-1.886zm3.774 0a.943.943 0 110 1.886.943.943 0 010-1.886zm5.66 0a.943.943 0 110 1.886.943.943 0 010-1.886z" fill="#2A2827"/><path d="M56.477 53.397a.943.943 0 110 1.886.943.943 0 010-1.886z" fill="#2A2827"/><path d="M58.363 53.397a.943.943 0 110 1.886.943.943 0 010-1.886z" fill="#2A2827"/><path d="M60.25 53.397a.943.943 0 110 1.886.943.943 0 010-1.886zm5.66 0a.943.943 0 110 1.886.943.943 0 010-1.886z" fill="#2A2827"/><path d="M67.797 53.397a.943.943 0 110 1.886.943.943 0 010-1.886z" fill="#2A2827"/><path d="M69.684 53.397a.943.943 0 110 1.886.943.943 0 010-1.886zm5.66 0a.943.943 0 110 1.886.943.943 0 010-1.886zm9.434 0a.943.943 0 110 1.886.943.943 0 010-1.886zm11.322 0a.943.943 0 110 1.886.943.943 0 010-1.886zm5.66 0a.943.943 0 110 1.886.943.943 0 010-1.886z" fill="#2A2827"/><path d="M103.647 53.397a.943.943 0 110 1.886.943.943 0 010-1.886z" fill="#2A2827"/><path d="M105.533 53.397a.944.944 0 110 1.887.944.944 0 010-1.887zm-90.566 1.886a.943.943 0 110 1.887.943.943 0 010-1.887z" fill="#2A2827"/><path d="M16.854 55.283a.943.943 0 110 1.887.943.943 0 010-1.887z" fill="#2A2827"/><path d="M18.74 55.283a.943.943 0 110 1.887.943.943 0 010-1.887z" fill="#2A2827"/><path d="M20.627 55.283a.943.943 0 110 1.887.943.943 0 010-1.887z" fill="#2A2827"/><path d="M22.514 55.283a.943.943 0 110 1.887.943.943 0 010-1.887z" fill="#2A2827"/><path d="M24.4 55.283a.943.943 0 110 1.887.943.943 0 010-1.887z" fill="#2A2827"/><path d="M26.287 55.283a.943.943 0 110 1.887.943.943 0 010-1.887z" fill="#2A2827"/><path d="M28.174 55.283a.943.943 0 110 1.887.943.943 0 010-1.887z" fill="#2A2827"/><path d="M30.06 55.283a.943.943 0 110 1.887.943.943 0 010-1.887z" fill="#2A2827"/><path d="M31.947 55.283a.943.943 0 110 1.887.943.943 0 010-1.887z" fill="#2A2827"/><path d="M33.834 55.283a.943.943 0 110 1.887.943.943 0 010-1.887z" fill="#2A2827"/><path d="M35.72 55.283a.943.943 0 110 1.887.943.943 0 010-1.887z" fill="#2A2827"/><path d="M37.608 55.283a.943.943 0 110 1.887.943.943 0 010-1.887z" fill="#2A2827"/><path d="M39.494 55.283a.943.943 0 110 1.887.943.943 0 010-1.887zm3.776 0a.943.943 0 110 1.887.943.943 0 010-1.887z" fill="#2A2827"/><path d="M45.156 55.283a.943.943 0 110 1.887.943.943 0 010-1.887z" fill="#2A2827"/><path d="M47.043 55.283a.943.943 0 110 1.887.943.943 0 010-1.887z" fill="#2A2827"/><path d="M48.93 55.283a.943.943 0 110 1.887.943.943 0 010-1.887zm3.773 0a.943.943 0 110 1.887.943.943 0 010-1.887z" fill="#2A2827"/><path d="M54.59 55.283a.943.943 0 110 1.887.943.943 0 010-1.887z" fill="#2A2827"/><path d="M56.477 55.283a.943.943 0 110 1.887.943.943 0 010-1.887z" fill="#2A2827"/><path d="M58.363 55.283a.943.943 0 110 1.887.943.943 0 010-1.887z" fill="#2A2827"/><path d="M60.25 55.283a.943.943 0 110 1.887.943.943 0 010-1.887z" fill="#2A2827"/><path d="M62.137 55.283a.943.943 0 110 1.887.943.943 0 010-1.887z" fill="#2A2827"/><path d="M64.024 55.283a.943.943 0 110 1.887.943.943 0 010-1.887zm7.546 0a.943.943 0 110 1.887.943.943 0 010-1.887zm3.774 0a.943.943 0 110 1.887.943.943 0 010-1.887z" fill="#2A2827"/><path d="M77.23 55.283a.943.943 0 110 1.887.943.943 0 010-1.887z" fill="#2A2827"/><path d="M79.117 55.283a.943.943 0 110 1.887.943.943 0 010-1.887z" fill="#2A2827"/><path d="M81.004 55.283a.943.943 0 110 1.887.943.943 0 010-1.887z" fill="#2A2827"/><path d="M82.89 55.283a.943.943 0 110 1.887.943.943 0 010-1.887z" fill="#2A2827"/><path d="M84.778 55.283a.943.943 0 110 1.887.943.943 0 010-1.887zm5.662 0a.943.943 0 110 1.887.943.943 0 010-1.887z" fill="#2A2827"/><path d="M92.326 55.283a.943.943 0 110 1.887.943.943 0 010-1.887z" fill="#2A2827"/><path d="M94.213 55.283a.943.943 0 110 1.887.943.943 0 010-1.887z" fill="#2A2827"/><path d="M96.1 55.283a.943.943 0 110 1.887.943.943 0 010-1.887z" fill="#2A2827"/><path d="M97.987 55.283a.943.943 0 110 1.887.943.943 0 010-1.887z" fill="#2A2827"/><path d="M99.873 55.283a.944.944 0 110 1.888.944.944 0 010-1.888z" fill="#2A2827"/><path d="M101.76 55.283a.943.943 0 110 1.886.943.943 0 010-1.886z" fill="#2A2827"/><path d="M103.647 55.283a.943.943 0 110 1.886.943.943 0 010-1.886z" fill="#2A2827"/><path d="M105.533 55.283a.944.944 0 110 1.888.944.944 0 010-1.888zM16.854 57.17a.943.943 0 110 1.887.943.943 0 010-1.887z" fill="#2A2827"/><path d="M18.74 57.17a.943.943 0 110 1.887.943.943 0 010-1.887zm3.774 0a.943.943 0 110 1.887.943.943 0 010-1.887zm7.546 0a.943.943 0 110 1.887.943.943 0 010-1.887zm3.774 0a.943.943 0 110 1.887.943.943 0 010-1.887zm3.774 0a.943.943 0 110 1.887.943.943 0 010-1.887z" fill="#2A2827"/><path d="M39.494 57.17a.943.943 0 110 1.887.943.943 0 010-1.887z" fill="#2A2827"/><path d="M41.383 57.17a.943.943 0 110 1.887.943.943 0 010-1.887z" fill="#2A2827"/><path d="M43.27 57.17a.943.943 0 110 1.887.943.943 0 010-1.887z" fill="#2A2827"/><path d="M45.156 57.17a.943.943 0 110 1.887.943.943 0 010-1.887zm7.547 0a.943.943 0 110 1.887.943.943 0 010-1.887zm3.774 0a.943.943 0 110 1.887.943.943 0 010-1.887zm7.547 0a.943.943 0 110 1.887.943.943 0 010-1.887zm5.66 0a.943.943 0 110 1.887.943.943 0 010-1.887z" fill="#2A2827"/><path d="M71.57 57.17a.943.943 0 110 1.887.943.943 0 010-1.887z" fill="#2A2827"/><path d="M73.457 57.17a.943.943 0 110 1.887.943.943 0 010-1.887z" fill="#2A2827"/><path d="M75.344 57.17a.943.943 0 110 1.887.943.943 0 010-1.887z" fill="#2A2827"/><path d="M77.23 57.17a.943.943 0 110 1.887.943.943 0 010-1.887zm5.66 0a.943.943 0 110 1.887.943.943 0 010-1.887z" fill="#2A2827"/><path d="M84.778 57.17a.943.943 0 110 1.887.943.943 0 010-1.887z" fill="#2A2827"/><path d="M86.664 57.17a.943.943 0 110 1.887.943.943 0 010-1.887zm3.776 0a.943.943 0 110 1.887.943.943 0 010-1.887zm7.547 0a.943.943 0 110 1.887.943.943 0 010-1.887zm5.66 0a.943.943 0 110 1.886.943.943 0 010-1.886z" fill="#2A2827"/><path d="M105.533 57.17a.944.944 0 110 1.888.944.944 0 010-1.888zm-90.566 1.887a.943.943 0 110 1.886.943.943 0 010-1.886z" fill="#2A2827"/><path d="M16.854 59.057a.943.943 0 110 1.886.943.943 0 010-1.886z" fill="#2A2827"/><path d="M18.74 59.057a.943.943 0 110 1.886.943.943 0 010-1.886zm3.774 0a.943.943 0 110 1.886.943.943 0 010-1.886zm3.773 0a.943.943 0 110 1.886.943.943 0 010-1.886zm3.773 0a.943.943 0 110 1.886.943.943 0 010-1.886z" fill="#2A2827"/><path d="M31.947 59.057a.943.943 0 110 1.886.943.943 0 010-1.886zm3.773 0a.943.943 0 110 1.886.943.943 0 010-1.886zm3.774 0a.943.943 0 110 1.886.943.943 0 010-1.886z" fill="#2A2827"/><path d="M41.383 59.057a.943.943 0 110 1.886.943.943 0 010-1.886z" fill="#2A2827"/><path d="M43.27 59.057a.943.943 0 110 1.886.943.943 0 010-1.886zm7.547 0a.943.943 0 110 1.886.943.943 0 010-1.886zm5.66 0a.943.943 0 110 1.886.943.943 0 010-1.886zm3.773 0a.943.943 0 110 1.886.943.943 0 010-1.886zm3.773 0a.943.943 0 110 1.886.943.943 0 010-1.886zm5.661 0a.943.943 0 110 1.886.943.943 0 010-1.886z" fill="#2A2827"/><path d="M71.57 59.057a.943.943 0 110 1.886.943.943 0 010-1.886z" fill="#2A2827"/><path d="M73.457 59.057a.943.943 0 110 1.886.943.943 0 010-1.886zm3.773 0a.943.943 0 110 1.886.943.943 0 010-1.886zm5.66 0a.943.943 0 110 1.886.943.943 0 010-1.886z" fill="#2A2827"/><path d="M84.778 59.057a.943.943 0 110 1.886.943.943 0 010-1.886zm3.772 0a.943.943 0 11.001 1.886.943.943 0 010-1.886z" fill="#2A2827"/><path d="M90.44 59.057a.943.943 0 110 1.886.943.943 0 010-1.886zm3.773 0a.943.943 0 110 1.886.943.943 0 010-1.886zm3.774 0a.943.943 0 110 1.886.943.943 0 010-1.886zm7.546 0a.944.944 0 110 1.887.944.944 0 010-1.887zm-88.679 1.886a.943.943 0 110 1.887.943.943 0 010-1.887zm3.773 0a.943.943 0 110 1.887.943.943 0 010-1.887z" fill="#2A2827"/><path d="M22.514 60.943a.943.943 0 110 1.887.943.943 0 010-1.887zm7.546 0a.943.943 0 110 1.887.943.943 0 010-1.887z" fill="#2A2827"/><path d="M31.947 60.943a.943.943 0 110 1.887.943.943 0 010-1.887zm7.547 0a.943.943 0 110 1.887.943.943 0 010-1.887z" fill="#2A2827"/><path d="M41.383 60.943a.943.943 0 110 1.887.943.943 0 010-1.887z" fill="#2A2827"/><path d="M43.27 60.943a.943.943 0 110 1.887.943.943 0 010-1.887zm7.547 0a.943.943 0 110 1.887.943.943 0 010-1.887zm5.66 0a.943.943 0 110 1.887.943.943 0 010-1.887zm7.546 0a.943.943 0 110 1.887.943.943 0 010-1.887zm3.774 0a.943.943 0 110 1.887.943.943 0 010-1.887z" fill="#2A2827"/><path d="M69.684 60.943a.943.943 0 110 1.887.943.943 0 010-1.887z" fill="#2A2827"/><path d="M71.57 60.943a.943.943 0 110 1.887.943.943 0 010-1.887zm3.774 0a.943.943 0 110 1.887.943.943 0 010-1.887zm3.773 0a.943.943 0 110 1.887.943.943 0 010-1.887zm5.661 0a.943.943 0 110 1.887.943.943 0 010-1.887zm5.662 0a.943.943 0 110 1.887.943.943 0 010-1.887zm7.547 0a.943.943 0 110 1.887.943.943 0 010-1.887zm3.773 0a.943.943 0 110 1.886.943.943 0 010-1.886z" fill="#2A2827"/><path d="M103.647 60.943a.943.943 0 110 1.886.943.943 0 010-1.886zm-88.68 1.887a.943.943 0 110 1.887.943.943 0 010-1.887zm5.66 0a.943.943 0 110 1.887.943.943 0 010-1.887z" fill="#2A2827"/><path d="M22.514 62.83a.943.943 0 110 1.887.943.943 0 010-1.887z" fill="#2A2827"/><path d="M24.4 62.83a.943.943 0 110 1.887.943.943 0 010-1.887z" fill="#2A2827"/><path d="M26.287 62.83a.943.943 0 110 1.887.943.943 0 010-1.887z" fill="#2A2827"/><path d="M28.174 62.83a.943.943 0 110 1.887.943.943 0 010-1.887z" fill="#2A2827"/><path d="M30.06 62.83a.943.943 0 110 1.887.943.943 0 010-1.887z" fill="#2A2827"/><path d="M31.947 62.83a.943.943 0 110 1.887.943.943 0 010-1.887z" fill="#2A2827"/><path d="M33.834 62.83a.943.943 0 110 1.887.943.943 0 010-1.887z" fill="#2A2827"/><path d="M35.72 62.83a.943.943 0 110 1.887.943.943 0 010-1.887z" fill="#2A2827"/><path d="M37.608 62.83a.943.943 0 110 1.887.943.943 0 010-1.887zm3.775 0a.943.943 0 110 1.887.943.943 0 010-1.887zm5.66 0a.943.943 0 110 1.887.943.943 0 010-1.887z" fill="#2A2827"/><path d="M48.93 62.83a.943.943 0 110 1.887.943.943 0 010-1.887z" fill="#2A2827"/><path d="M50.817 62.83a.943.943 0 110 1.887.943.943 0 010-1.887z" fill="#2A2827"/><path d="M52.703 62.83a.943.943 0 110 1.887.943.943 0 010-1.887zm3.774 0a.943.943 0 110 1.887.943.943 0 010-1.887z" fill="#2A2827"/><path d="M58.363 62.83a.943.943 0 110 1.887.943.943 0 010-1.887z" fill="#2A2827"/><path d="M60.25 62.83a.943.943 0 110 1.887.943.943 0 010-1.887z" fill="#2A2827"/><path d="M62.137 62.83a.943.943 0 110 1.887.943.943 0 010-1.887z" fill="#2A2827"/><path d="M64.023 62.83a.943.943 0 110 1.887.943.943 0 010-1.887z" fill="#2A2827"/><path d="M65.91 62.83a.943.943 0 110 1.887.943.943 0 010-1.887zm3.774 0a.943.943 0 110 1.887.943.943 0 010-1.887zm3.773 0a.943.943 0 110 1.887.943.943 0 010-1.887z" fill="#2A2827"/><path d="M75.344 62.83a.943.943 0 110 1.887.943.943 0 010-1.887z" fill="#2A2827"/><path d="M77.23 62.83a.943.943 0 110 1.887.943.943 0 010-1.887zm9.434 0a.943.943 0 110 1.887.943.943 0 010-1.887zm3.776 0a.943.943 0 110 1.887.943.943 0 010-1.887z" fill="#2A2827"/><path d="M92.326 62.83a.943.943 0 110 1.887.943.943 0 010-1.887z" fill="#2A2827"/><path d="M94.213 62.83a.943.943 0 110 1.887.943.943 0 010-1.887z" fill="#2A2827"/><path d="M96.1 62.83a.943.943 0 110 1.887.943.943 0 010-1.887z" fill="#2A2827"/><path d="M97.987 62.83a.943.943 0 110 1.887.943.943 0 010-1.887z" fill="#2A2827"/><path d="M99.873 62.83a.944.944 0 110 1.888.944.944 0 010-1.888z" fill="#2A2827"/><path d="M101.76 62.83a.943.943 0 110 1.886.943.943 0 010-1.886zm-84.906 1.887a.943.943 0 110 1.887.943.943 0 010-1.887zm3.773 0a.943.943 0 110 1.887.943.943 0 010-1.887zm3.773 0a.943.943 0 110 1.887.943.943 0 010-1.887zm5.66 0a.943.943 0 110 1.887.943.943 0 010-1.887z" fill="#2A2827"/><path d="M31.947 64.717a.943.943 0 110 1.887.943.943 0 010-1.887zm5.661 0a.943.943 0 110 1.887.943.943 0 010-1.887z" fill="#2A2827"/><path d="M39.494 64.717a.943.943 0 110 1.887.943.943 0 010-1.887zm11.323 0a.943.943 0 110 1.887.943.943 0 010-1.887zm7.546 0a.943.943 0 110 1.887.943.943 0 010-1.887z" fill="#2A2827"/><path d="M60.25 64.717a.943.943 0 110 1.887.943.943 0 010-1.887z" fill="#2A2827"/><path d="M62.137 64.717a.943.943 0 110 1.887.943.943 0 010-1.887zm5.66 0a.943.943 0 110 1.887.943.943 0 010-1.887zm9.433 0a.943.943 0 110 1.887.943.943 0 010-1.887zm3.774 0a.943.943 0 110 1.887.943.943 0 010-1.887z" fill="#2A2827"/><path d="M82.89 64.717a.943.943 0 110 1.887.943.943 0 010-1.887zm3.774 0a.943.943 0 110 1.887.943.943 0 010-1.887zm3.776 0a.943.943 0 110 1.887.943.943 0 010-1.887zm3.773 0a.943.943 0 110 1.887.943.943 0 010-1.887zm5.66 0a.944.944 0 110 1.888.944.944 0 010-1.888zm3.774 0a.943.943 0 110 1.886.943.943 0 010-1.886z" fill="#2A2827"/><path d="M105.533 64.717a.944.944 0 110 1.888.944.944 0 010-1.888zM18.74 66.603a.943.943 0 110 1.887.943.943 0 010-1.886z" fill="#2A2827"/><path d="M20.627 66.603a.943.943 0 110 1.887.943.943 0 010-1.886zm3.773 0a.943.943 0 110 1.887.943.943 0 010-1.886z" fill="#2A2827"/><path d="M26.287 66.603a.943.943 0 110 1.887.943.943 0 010-1.886zm3.773 0a.943.943 0 110 1.887.943.943 0 010-1.886zm20.757 0a.943.943 0 110 1.887.943.943 0 010-1.886zm5.66 0a.943.943 0 110 1.887.943.943 0 010-1.886zm5.66 0a.943.943 0 110 1.887.943.943 0 010-1.886zm3.773 0a.943.943 0 110 1.887.943.943 0 010-1.886zm7.547 0a.943.943 0 110 1.887.943.943 0 010-1.886z" fill="#2A2827"/><path d="M75.344 66.603a.943.943 0 110 1.887.943.943 0 010-1.886z" fill="#2A2827"/><path d="M77.23 66.603a.943.943 0 110 1.887.943.943 0 010-1.886zm3.774 0a.943.943 0 110 1.887.943.943 0 010-1.886z" fill="#2A2827"/><path d="M82.89 66.603a.943.943 0 110 1.887.943.943 0 010-1.886zm7.55 0a.943.943 0 110 1.887.943.943 0 010-1.886z" fill="#2A2827"/><path d="M92.326 66.603a.943.943 0 110 1.887.943.943 0 010-1.886zm5.661 0a.943.943 0 110 1.887.943.943 0 010-1.886zm3.773 0a.943.943 0 110 1.887.943.943 0 010-1.886z" fill="#2A2827"/><path d="M103.647 66.603a.943.943 0 110 1.887.943.943 0 010-1.886zm-88.68 1.887a.943.943 0 110 1.887.943.943 0 010-1.887z" fill="#2A2827"/><path d="M16.854 68.49a.943.943 0 110 1.887.943.943 0 010-1.887z" fill="#2A2827"/><path d="M18.74 68.49a.943.943 0 110 1.887.943.943 0 010-1.887zm5.66 0a.943.943 0 110 1.887.943.943 0 010-1.887zm5.66 0a.943.943 0 110 1.887.943.943 0 010-1.887zm3.774 0a.943.943 0 110 1.887.943.943 0 010-1.887z" fill="#2A2827"/><path d="M35.72 68.49a.943.943 0 110 1.887.943.943 0 010-1.887zm3.774 0a.943.943 0 110 1.887.943.943 0 010-1.887z" fill="#2A2827"/><path d="M41.383 68.49a.943.943 0 110 1.887.943.943 0 010-1.887zm5.66 0a.943.943 0 110 1.887.943.943 0 010-1.887zm5.66 0a.943.943 0 110 1.887.943.943 0 010-1.887zm7.547 0a.943.943 0 110 1.887.943.943 0 010-1.887z" fill="#2A2827"/><path d="M62.137 68.49a.943.943 0 110 1.887.943.943 0 010-1.887zm9.433 0a.943.943 0 110 1.887.943.943 0 010-1.887zm3.774 0a.943.943 0 110 1.887.943.943 0 010-1.887zm11.32 0a.943.943 0 110 1.887.943.943 0 010-1.887zm9.436 0a.943.943 0 110 1.887.943.943 0 010-1.887z" fill="#2A2827"/><path d="M97.987 68.49a.943.943 0 110 1.887.943.943 0 010-1.887zm3.773 0a.943.943 0 110 1.886.943.943 0 010-1.886zm3.773 0a.944.944 0 110 1.888.944.944 0 010-1.888zm-90.566 1.887a.943.943 0 110 1.887.943.943 0 010-1.887z" fill="#2A2827"/><path d="M16.854 70.377a.943.943 0 110 1.887.943.943 0 010-1.887z" fill="#2A2827"/><path d="M18.74 70.377a.943.943 0 110 1.887.943.943 0 010-1.887z" fill="#2A2827"/><path d="M20.627 70.377a.943.943 0 110 1.887.943.943 0 010-1.887zm3.773 0a.943.943 0 110 1.887.943.943 0 010-1.887z" fill="#2A2827"/><path d="M26.287 70.377a.943.943 0 110 1.887.943.943 0 010-1.887zm5.66 0a.943.943 0 110 1.887.943.943 0 010-1.887zm3.773 0a.943.943 0 11.001 1.887.943.943 0 010-1.887z" fill="#2A2827"/><path d="M37.608 70.377a.943.943 0 110 1.887.943.943 0 010-1.887zm3.775 0a.943.943 0 110 1.887.943.943 0 010-1.887z" fill="#2A2827"/><path d="M43.27 70.377a.943.943 0 110 1.887.943.943 0 010-1.887z" fill="#2A2827"/><path d="M45.156 70.377a.943.943 0 110 1.887.943.943 0 010-1.887zm9.434 0a.943.943 0 110 1.887.943.943 0 010-1.887zm5.66 0a.943.943 0 110 1.887.943.943 0 010-1.887zm3.774 0a.943.943 0 110 1.887.943.943 0 010-1.887zm3.773 0a.943.943 0 110 1.887.943.943 0 010-1.887z" fill="#2A2827"/><path d="M69.684 70.377a.943.943 0 110 1.887.943.943 0 010-1.887z" fill="#2A2827"/><path d="M71.57 70.377a.943.943 0 110 1.887.943.943 0 010-1.887zm3.774 0a.943.943 0 110 1.887.943.943 0 010-1.887zm7.546 0a.943.943 0 110 1.887.943.943 0 010-1.887zm9.436 0a.943.943 0 110 1.887.943.943 0 010-1.887z" fill="#2A2827"/><path d="M94.213 70.377a.943.943 0 110 1.887.943.943 0 010-1.887z" fill="#2A2827"/><path d="M96.1 70.377a.943.943 0 110 1.887.943.943 0 010-1.887z" fill="#2A2827"/><path d="M97.987 70.377a.943.943 0 110 1.887.943.943 0 010-1.887z" fill="#2A2827"/><path d="M99.873 70.377a.944.944 0 110 1.888.944.944 0 010-1.888zm3.774 0a.943.943 0 110 1.886.943.943 0 010-1.886z" fill="#2A2827"/><path d="M105.533 70.377a.944.944 0 110 1.888.944.944 0 010-1.888zm-90.566 1.887a.943.943 0 110 1.886.943.943 0 010-1.886z" fill="#2A2827"/><path d="M16.854 72.264a.943.943 0 110 1.886.943.943 0 010-1.886z" fill="#2A2827"/><path d="M18.74 72.264a.943.943 0 110 1.886.943.943 0 010-1.886zm3.774 0a.943.943 0 110 1.886.943.943 0 010-1.886z" fill="#2A2827"/><path d="M24.4 72.264a.943.943 0 110 1.886.943.943 0 010-1.886zm5.66 0a.943.943 0 110 1.886.943.943 0 010-1.886z" fill="#2A2827"/><path d="M31.947 72.264a.943.943 0 110 1.886.943.943 0 010-1.886zm5.661 0a.943.943 0 110 1.886.943.943 0 010-1.886zm7.548 0a.943.943 0 110 1.886.943.943 0 010-1.886zm3.774 0a.943.943 0 110 1.886.943.943 0 010-1.886z" fill="#2A2827"/><path d="M50.817 72.264a.943.943 0 110 1.886.943.943 0 010-1.886z" fill="#2A2827"/><path d="M52.703 72.264a.943.943 0 110 1.886.943.943 0 010-1.886z" fill="#2A2827"/><path d="M54.59 72.264a.943.943 0 110 1.886.943.943 0 010-1.886zm7.547 0a.943.943 0 110 1.886.943.943 0 010-1.886z" fill="#2A2827"/><path d="M64.024 72.264a.943.943 0 110 1.886.943.943 0 010-1.886z" fill="#2A2827"/><path d="M65.91 72.264a.943.943 0 110 1.886.943.943 0 010-1.886zm7.547 0a.943.943 0 110 1.886.943.943 0 010-1.886zm3.773 0a.943.943 0 110 1.886.943.943 0 010-1.886z" fill="#2A2827"/><path d="M79.117 72.264a.943.943 0 110 1.886.943.943 0 010-1.886zm5.661 0a.943.943 0 110 1.886.943.943 0 010-1.886z" fill="#2A2827"/><path d="M86.664 72.264a.943.943 0 110 1.886.943.943 0 010-1.886zm5.662 0a.943.943 0 110 1.886.943.943 0 010-1.886z" fill="#2A2827"/><path d="M94.213 72.264a.943.943 0 110 1.886.943.943 0 010-1.886zm7.547 0a.943.943 0 110 1.886.943.943 0 010-1.886zm3.773 0a.944.944 0 110 1.887.944.944 0 010-1.887zM18.74 74.15a.943.943 0 110 1.887.943.943 0 010-1.887zm3.774 0a.943.943 0 110 1.887.943.943 0 010-1.887z" fill="#2A2827"/><path d="M24.4 74.15a.943.943 0 110 1.887.943.943 0 010-1.887z" fill="#2A2827"/><path d="M26.287 74.15a.943.943 0 110 1.887.943.943 0 010-1.887zm5.66 0a.943.943 0 110 1.887.943.943 0 010-1.887z" fill="#2A2827"/><path d="M33.834 74.15a.943.943 0 110 1.887.943.943 0 010-1.887zm3.774 0a.943.943 0 110 1.887.943.943 0 010-1.887z" fill="#2A2827"/><path d="M39.494 74.15a.943.943 0 110 1.887.943.943 0 010-1.887z" fill="#2A2827"/><path d="M41.383 74.15a.943.943 0 110 1.887.943.943 0 010-1.887z" fill="#2A2827"/><path d="M43.27 74.15a.943.943 0 110 1.887.943.943 0 010-1.887z" fill="#2A2827"/><path d="M45.156 74.15a.943.943 0 110 1.887.943.943 0 010-1.887zm3.774 0a.943.943 0 110 1.887.943.943 0 010-1.887z" fill="#2A2827"/><path d="M50.817 74.15a.943.943 0 110 1.887.943.943 0 010-1.887zm3.773 0a.943.943 0 110 1.887.943.943 0 010-1.887zm5.66 0a.943.943 0 110 1.887.943.943 0 010-1.887zm3.774 0a.943.943 0 110 1.887.943.943 0 010-1.887zm7.546 0a.943.943 0 110 1.887.943.943 0 010-1.887zm5.66 0a.943.943 0 110 1.887.943.943 0 010-1.887z" fill="#2A2827"/><path d="M79.117 74.15a.943.943 0 110 1.887.943.943 0 010-1.887z" fill="#2A2827"/><path d="M81.004 74.15a.943.943 0 110 1.887.943.943 0 010-1.887z" fill="#2A2827"/><path d="M82.89 74.15a.943.943 0 110 1.887.943.943 0 010-1.887z" fill="#2A2827"/><path d="M84.778 74.15a.943.943 0 110 1.887.943.943 0 010-1.887zm5.662 0a.943.943 0 110 1.887.943.943 0 010-1.887z" fill="#2A2827"/><path d="M92.326 74.15a.943.943 0 110 1.887.943.943 0 010-1.887z" fill="#2A2827"/><path d="M94.213 74.15a.943.943 0 110 1.887.943.943 0 010-1.887z" fill="#2A2827"/><path d="M96.1 74.15a.943.943 0 110 1.887.943.943 0 010-1.887z" fill="#2A2827"/><path d="M97.987 74.15a.943.943 0 110 1.887.943.943 0 010-1.887zm-81.133 1.887a.943.943 0 110 1.887.943.943 0 010-1.887zm3.773 0a.943.943 0 110 1.887.943.943 0 010-1.887zm3.773 0a.943.943 0 110 1.887.943.943 0 010-1.887zm3.774 0a.943.943 0 110 1.887.943.943 0 010-1.887zm7.546 0a.943.943 0 110 1.887.943.943 0 010-1.887zm5.663 0a.943.943 0 110 1.887.943.943 0 010-1.887z" fill="#2A2827"/><path d="M43.27 76.037a.943.943 0 110 1.887.943.943 0 010-1.887z" fill="#2A2827"/><path d="M45.156 76.037a.943.943 0 110 1.887.943.943 0 010-1.887zm5.661 0a.943.943 0 110 1.887.943.943 0 010-1.887zm3.773 0a.943.943 0 110 1.887.943.943 0 010-1.887z" fill="#2A2827"/><path d="M56.477 76.037a.943.943 0 110 1.887.943.943 0 010-1.887z" fill="#2A2827"/><path d="M58.363 76.037a.943.943 0 110 1.887.943.943 0 010-1.887z" fill="#2A2827"/><path d="M60.25 76.037a.943.943 0 110 1.887.943.943 0 010-1.887z" fill="#2A2827"/><path d="M62.137 76.037a.943.943 0 110 1.887.943.943 0 010-1.887zm3.773 0a.943.943 0 110 1.887.943.943 0 010-1.887z" fill="#2A2827"/><path d="M67.797 76.037a.943.943 0 110 1.887.943.943 0 010-1.887z" fill="#2A2827"/><path d="M69.684 76.037a.943.943 0 110 1.887.943.943 0 010-1.887z" fill="#2A2827"/><path d="M71.57 76.037a.943.943 0 110 1.887.943.943 0 010-1.887zm13.208 0a.943.943 0 110 1.887.943.943 0 010-1.887zm3.772 0a.943.943 0 11.001 1.887.943.943 0 010-1.887zm3.776 0a.943.943 0 110 1.887.943.943 0 010-1.887zm9.434 0a.943.943 0 110 1.886.943.943 0 010-1.886zm3.773 0a.944.944 0 110 1.888.944.944 0 010-1.888zm-88.679 1.887a.943.943 0 110 1.887.943.943 0 010-1.887z" fill="#2A2827"/><path d="M18.74 77.924a.943.943 0 110 1.887.943.943 0 010-1.887zm3.774 0a.943.943 0 110 1.887.943.943 0 010-1.887zm3.773 0a.943.943 0 110 1.887.943.943 0 010-1.887z" fill="#2A2827"/><path d="M28.174 77.924a.943.943 0 110 1.887.943.943 0 010-1.887z" fill="#2A2827"/><path d="M30.06 77.924a.943.943 0 110 1.887.943.943 0 010-1.887zm3.774 0a.943.943 0 110 1.887.943.943 0 010-1.887zm11.322 0a.943.943 0 110 1.887.943.943 0 010-1.887z" fill="#2A2827"/><path d="M47.043 77.924a.943.943 0 110 1.887.943.943 0 010-1.887zm9.434 0a.943.943 0 110 1.887.943.943 0 010-1.887zm13.207 0a.943.943 0 110 1.886.943.943 0 010-1.886zm3.773 0a.943.943 0 110 1.887.943.943 0 010-1.887z" fill="#2A2827"/><path d="M75.344 77.924a.943.943 0 110 1.887.943.943 0 010-1.887zm3.773 0a.943.943 0 110 1.887.943.943 0 010-1.887zm3.773 0a.943.943 0 110 1.887.943.943 0 010-1.887z" fill="#2A2827"/><path d="M84.778 77.924a.943.943 0 110 1.887.943.943 0 010-1.887zm7.548 0a.943.943 0 110 1.887.943.943 0 010-1.887z" fill="#2A2827"/><path d="M94.213 77.924a.943.943 0 110 1.887.943.943 0 010-1.887zm3.774 0a.943.943 0 110 1.887.943.943 0 010-1.887z" fill="#2A2827"/><path d="M99.873 77.924a.944.944 0 110 1.888.944.944 0 010-1.888z" fill="#2A2827"/><path d="M101.76 77.924a.943.943 0 110 1.886.943.943 0 010-1.886z" fill="#2A2827"/><path d="M103.647 77.924a.943.943 0 110 1.886.943.943 0 010-1.886z" fill="#2A2827"/><path d="M105.533 77.924a.944.944 0 110 1.888.944.944 0 010-1.888zM16.854 79.81a.943.943 0 110 1.887.943.943 0 010-1.886zm3.773 0a.943.943 0 110 1.887.943.943 0 010-1.886z" fill="#2A2827"/><path d="M22.514 79.81a.943.943 0 110 1.887.943.943 0 010-1.886z" fill="#2A2827"/><path d="M24.4 79.81a.943.943 0 110 1.887.943.943 0 010-1.886zm5.66 0a.943.943 0 110 1.887.943.943 0 010-1.886z" fill="#2A2827"/><path d="M31.947 79.81a.943.943 0 110 1.887.943.943 0 010-1.886zm3.773 0a.943.943 0 110 1.887.943.943 0 010-1.886zm5.663 0a.943.943 0 110 1.887.943.943 0 010-1.886zm3.773 0a.943.943 0 110 1.887.943.943 0 010-1.886z" fill="#2A2827"/><path d="M47.043 79.81a.943.943 0 110 1.887.943.943 0 010-1.886z" fill="#2A2827"/><path d="M48.93 79.81a.943.943 0 110 1.887.943.943 0 010-1.886zm7.547 0a.943.943 0 110 1.887.943.943 0 010-1.886zm3.773 0a.943.943 0 110 1.887.943.943 0 010-1.886z" fill="#2A2827"/><path d="M62.137 79.81a.943.943 0 110 1.887.943.943 0 010-1.886z" fill="#2A2827"/><path d="M64.024 79.81a.943.943 0 110 1.887.943.943 0 010-1.886zm9.433 0a.943.943 0 110 1.887.943.943 0 010-1.886z" fill="#2A2827"/><path d="M75.344 79.81a.943.943 0 110 1.887.943.943 0 010-1.886zm3.773 0a.943.943 0 110 1.887.943.943 0 010-1.886z" fill="#2A2827"/><path d="M81.004 79.81a.943.943 0 110 1.887.943.943 0 010-1.886z" fill="#2A2827"/><path d="M82.89 79.81a.943.943 0 110 1.887.943.943 0 010-1.886zm9.436 0a.943.943 0 110 1.887.943.943 0 010-1.886z" fill="#2A2827"/><path d="M94.213 79.81a.943.943 0 110 1.887.943.943 0 010-1.886zm-77.359 1.887a.943.943 0 110 1.887.943.943 0 010-1.887z" fill="#2A2827"/><path d="M18.74 81.697a.943.943 0 110 1.887.943.943 0 010-1.887zm3.774 0a.943.943 0 110 1.887.943.943 0 010-1.887z" fill="#2A2827"/><path d="M24.4 81.697a.943.943 0 110 1.887.943.943 0 010-1.887z" fill="#2A2827"/><path d="M26.287 81.697a.943.943 0 110 1.887.943.943 0 010-1.887z" fill="#2A2827"/><path d="M28.174 81.697a.943.943 0 110 1.887.943.943 0 010-1.887z" fill="#2A2827"/><path d="M30.06 81.697a.943.943 0 110 1.887.943.943 0 010-1.887z" fill="#2A2827"/><path d="M31.947 81.697a.943.943 0 110 1.887.943.943 0 010-1.887z" fill="#2A2827"/><path d="M33.834 81.697a.943.943 0 110 1.887.943.943 0 010-1.887z" fill="#2A2827"/><path d="M35.72 81.697a.943.943 0 11.001 1.887.943.943 0 010-1.887z" fill="#2A2827"/><path d="M37.608 81.697a.943.943 0 110 1.887.943.943 0 010-1.887zm3.775 0a.943.943 0 110 1.887.943.943 0 010-1.887zm3.773 0a.943.943 0 110 1.887.943.943 0 010-1.887zm15.094 0a.943.943 0 110 1.887.943.943 0 010-1.887zm5.66 0a.943.943 0 110 1.887.943.943 0 010-1.887z" fill="#2A2827"/><path d="M67.797 81.697a.943.943 0 110 1.887.943.943 0 010-1.887z" fill="#2A2827"/><path d="M69.684 81.697a.943.943 0 110 1.887.943.943 0 010-1.887zm3.773 0a.943.943 0 110 1.887.943.943 0 010-1.887zm7.547 0a.943.943 0 110 1.887.943.943 0 010-1.887z" fill="#2A2827"/><path d="M82.89 81.697a.943.943 0 110 1.887.943.943 0 010-1.887zm9.436 0a.943.943 0 110 1.887.943.943 0 010-1.887zm11.321 0a.943.943 0 110 1.886.943.943 0 010-1.886zm-88.68 1.887a.943.943 0 110 1.887.943.943 0 010-1.887z" fill="#2A2827"/><path d="M16.854 83.584a.943.943 0 110 1.887.943.943 0 010-1.887z" fill="#2A2827"/><path d="M18.74 83.584a.943.943 0 110 1.887.943.943 0 010-1.887z" fill="#2A2827"/><path d="M20.627 83.584a.943.943 0 110 1.887.943.943 0 010-1.887zm3.773 0a.943.943 0 110 1.887.943.943 0 010-1.887zm3.774 0a.943.943 0 110 1.887.943.943 0 010-1.887zm3.773 0a.943.943 0 110 1.887.943.943 0 010-1.887zm7.547 0a.943.943 0 110 1.887.943.943 0 010-1.887z" fill="#2A2827"/><path d="M41.383 83.584a.943.943 0 110 1.887.943.943 0 010-1.887z" fill="#2A2827"/><path d="M43.27 83.584a.943.943 0 110 1.887.943.943 0 010-1.887z" fill="#2A2827"/><path d="M45.156 83.584a.943.943 0 110 1.887.943.943 0 010-1.887z" fill="#2A2827"/><path d="M47.043 83.584a.943.943 0 110 1.887.943.943 0 010-1.887zm7.547 0a.943.943 0 110 1.887.943.943 0 010-1.887zm5.66 0a.943.943 0 110 1.887.943.943 0 010-1.887zm3.774 0a.943.943 0 110 1.887.943.943 0 010-1.887z" fill="#2A2827"/><path d="M65.91 83.584a.943.943 0 110 1.887.943.943 0 010-1.887z" fill="#2A2827"/><path d="M67.797 83.584a.943.943 0 110 1.887.943.943 0 010-1.887z" fill="#2A2827"/><path d="M69.684 83.584a.943.943 0 110 1.887.943.943 0 010-1.887z" fill="#2A2827"/><path d="M71.57 83.584a.943.943 0 110 1.887.943.943 0 010-1.887zm3.774 0a.943.943 0 110 1.887.943.943 0 010-1.887z" fill="#2A2827"/><path d="M77.23 83.584a.943.943 0 110 1.887.943.943 0 010-1.887z" fill="#2A2827"/><path d="M79.117 83.584a.943.943 0 110 1.887.943.943 0 010-1.887z" fill="#2A2827"/><path d="M81.004 83.584a.943.943 0 110 1.887.943.943 0 010-1.887z" fill="#2A2827"/><path d="M82.89 83.584a.943.943 0 110 1.887.943.943 0 010-1.887z" fill="#2A2827"/><path d="M84.778 83.584a.943.943 0 110 1.887.943.943 0 010-1.887zm3.772 0a.943.943 0 11.001 1.887.943.943 0 010-1.887zm7.55 0a.943.943 0 110 1.887.943.943 0 010-1.887zm9.433 0a.944.944 0 110 1.888.944.944 0 010-1.888zM16.854 85.47a.943.943 0 110 1.888.943.943 0 010-1.887zm7.546 0a.943.943 0 110 1.887.943.943 0 010-1.886z" fill="#2A2827"/><path d="M26.287 85.47a.943.943 0 110 1.888.943.943 0 010-1.887zm3.773 0a.943.943 0 110 1.887.943.943 0 010-1.886zm3.774 0a.943.943 0 110 1.887.943.943 0 010-1.886z" fill="#2A2827"/><path d="M35.72 85.47a.943.943 0 110 1.888.943.943 0 010-1.887z" fill="#2A2827"/><path d="M37.608 85.47a.943.943 0 110 1.888.943.943 0 010-1.887z" fill="#2A2827"/><path d="M39.494 85.47a.943.943 0 110 1.888.943.943 0 010-1.887zm9.436 0a.943.943 0 110 1.887.943.943 0 010-1.886zm3.773 0a.943.943 0 110 1.888.943.943 0 010-1.887z" fill="#2A2827"/><path d="M54.59 85.47a.943.943 0 110 1.888.943.943 0 010-1.887zm7.547 0a.943.943 0 110 1.888.943.943 0 010-1.887zm7.547 0a.943.943 0 110 1.887.943.943 0 010-1.886zm3.773 0a.943.943 0 110 1.888.943.943 0 010-1.887z" fill="#2A2827"/><path d="M75.344 85.47a.943.943 0 110 1.887.943.943 0 010-1.886zm3.773 0a.943.943 0 110 1.887.943.943 0 010-1.886z" fill="#2A2827"/><path d="M81.004 85.47a.943.943 0 110 1.888.943.943 0 010-1.887z" fill="#2A2827"/><path d="M82.89 85.47a.943.943 0 110 1.888.943.943 0 010-1.887z" fill="#2A2827"/><path d="M84.778 85.47a.943.943 0 110 1.888.943.943 0 010-1.887z" fill="#2A2827"/><path d="M86.664 85.47a.943.943 0 110 1.887.943.943 0 010-1.886zm7.549 0a.943.943 0 110 1.887.943.943 0 010-1.886z" fill="#2A2827"/><path d="M96.1 85.47a.943.943 0 110 1.888.943.943 0 010-1.887zm9.433 0a.944.944 0 110 1.889.944.944 0 010-1.888zm-88.679 1.887a.943.943 0 110 1.887.943.943 0 010-1.887z" fill="#2A2827"/><path d="M18.74 87.357a.943.943 0 110 1.887.943.943 0 010-1.887z" fill="#2A2827"/><path d="M20.627 87.357a.943.943 0 110 1.887.943.943 0 010-1.887zm9.433 0a.943.943 0 110 1.887.943.943 0 010-1.887zm7.548 0a.943.943 0 110 1.887.943.943 0 010-1.887zm3.775 0a.943.943 0 110 1.887.943.943 0 010-1.887zm5.66 0a.943.943 0 110 1.887.943.943 0 010-1.887zm3.774 0a.943.943 0 110 1.887.943.943 0 010-1.887z" fill="#2A2827"/><path d="M52.703 87.357a.943.943 0 110 1.887.943.943 0 010-1.887z" fill="#2A2827"/><path d="M54.59 87.357a.943.943 0 110 1.887.943.943 0 010-1.887zm5.66 0a.943.943 0 110 1.887.943.943 0 010-1.887zm5.66 0a.943.943 0 110 1.887.943.943 0 010-1.887zm13.207 0a.943.943 0 110 1.887.943.943 0 010-1.887zm3.773 0a.943.943 0 110 1.887.943.943 0 010-1.887zm3.774 0a.943.943 0 110 1.887.943.943 0 010-1.887zm5.662 0a.943.943 0 110 1.887.943.943 0 010-1.887z" fill="#2A2827"/><path d="M94.213 87.357a.943.943 0 110 1.887.943.943 0 010-1.887z" fill="#2A2827"/><path d="M96.1 87.357a.943.943 0 110 1.887.943.943 0 010-1.887z" fill="#2A2827"/><path d="M97.987 87.357a.943.943 0 110 1.887.943.943 0 010-1.887zm3.773 0a.943.943 0 110 1.887.943.943 0 010-1.887zm3.773 0a.944.944 0 110 1.888.944.944 0 010-1.888zm-90.566 1.889a.943.943 0 110 1.887.943.943 0 010-1.887z" fill="#2A2827"/><path d="M16.854 89.246a.943.943 0 110 1.887.943.943 0 010-1.887z" fill="#2A2827"/><path d="M18.74 89.246a.943.943 0 110 1.887.943.943 0 010-1.887zm7.547 0a.943.943 0 110 1.887.943.943 0 010-1.887z" fill="#2A2827"/><path d="M28.174 89.246a.943.943 0 110 1.887.943.943 0 010-1.887z" fill="#2A2827"/><path d="M30.06 89.246a.943.943 0 110 1.887.943.943 0 010-1.887zm9.434 0a.943.943 0 110 1.887.943.943 0 010-1.887z" fill="#2A2827"/><path d="M41.383 89.246a.943.943 0 110 1.887.943.943 0 010-1.887zm3.773 0a.943.943 0 110 1.887.943.943 0 010-1.887z" fill="#2A2827"/><path d="M47.043 89.246a.943.943 0 110 1.887.943.943 0 010-1.887zm3.774 0a.943.943 0 110 1.887.943.943 0 010-1.887z" fill="#2A2827"/><path d="M52.703 89.246a.943.943 0 110 1.887.943.943 0 010-1.887z" fill="#2A2827"/><path d="M54.59 89.246a.943.943 0 110 1.887.943.943 0 010-1.887z" fill="#2A2827"/><path d="M56.477 89.246a.943.943 0 110 1.887.943.943 0 010-1.887z" fill="#2A2827"/><path d="M58.363 89.246a.943.943 0 110 1.887.943.943 0 010-1.887z" fill="#2A2827"/><path d="M60.25 89.246a.943.943 0 110 1.887.943.943 0 010-1.887z" fill="#2A2827"/><path d="M62.137 89.246a.943.943 0 110 1.887.943.943 0 010-1.887z" fill="#2A2827"/><path d="M64.024 89.246a.943.943 0 110 1.887.943.943 0 010-1.887zm3.773 0a.943.943 0 110 1.887.943.943 0 010-1.887z" fill="#2A2827"/><path d="M69.684 89.246a.943.943 0 110 1.887.943.943 0 010-1.887zm5.66 0a.943.943 0 110 1.887.943.943 0 010-1.887zm3.773 0a.943.943 0 110 1.887.943.943 0 010-1.887z" fill="#2A2827"/><path d="M81.004 89.246a.943.943 0 110 1.887.943.943 0 010-1.887z" fill="#2A2827"/><path d="M82.89 89.246a.943.943 0 110 1.887.943.943 0 010-1.887z" fill="#2A2827"/><path d="M84.778 89.246a.943.943 0 110 1.887.943.943 0 010-1.887zm5.662 0a.943.943 0 110 1.887.943.943 0 010-1.887z" fill="#2A2827"/><path d="M92.326 89.246a.943.943 0 110 1.887.943.943 0 010-1.887z" fill="#2A2827"/><path d="M94.213 89.246a.943.943 0 110 1.887.943.943 0 010-1.887z" fill="#2A2827"/><path d="M96.1 89.246a.943.943 0 110 1.887.943.943 0 010-1.887z" fill="#2A2827"/><path d="M97.987 89.246a.943.943 0 110 1.887.943.943 0 010-1.887zm5.66 0a.943.943 0 110 1.886.943.943 0 010-1.886zM30.06 91.133a.943.943 0 110 1.887.943.943 0 010-1.887zm5.66 0a.943.943 0 110 1.887.943.943 0 010-1.887zm9.436 0a.943.943 0 110 1.887.943.943 0 010-1.887zm11.321 0a.943.943 0 110 1.887.943.943 0 010-1.887zm7.547 0a.943.943 0 110 1.887.943.943 0 010-1.887z" fill="#2A2827"/><path d="M65.91 91.133a.943.943 0 110 1.887.943.943 0 010-1.887zm3.774 0a.943.943 0 110 1.886.943.943 0 010-1.886zm3.773 0a.943.943 0 110 1.887.943.943 0 010-1.887zm5.66 0a.943.943 0 110 1.887.943.943 0 010-1.887zm3.773 0a.943.943 0 110 1.887.943.943 0 010-1.887zm7.55 0a.943.943 0 110 1.887.943.943 0 010-1.887zm7.547 0a.943.943 0 110 1.887.943.943 0 010-1.887zm7.546 0a.944.944 0 110 1.888.944.944 0 010-1.888zM35.72 93.02a.943.943 0 110 1.886.943.943 0 010-1.887zm9.436 0a.943.943 0 110 1.886.943.943 0 010-1.887zm5.661 0a.943.943 0 110 1.886.943.943 0 010-1.887z" fill="#2A2827"/><path d="M52.703 93.02a.943.943 0 110 1.886.943.943 0 010-1.887z" fill="#2A2827"/><path d="M54.59 93.02a.943.943 0 110 1.886.943.943 0 010-1.887z" fill="#2A2827"/><path d="M56.477 93.02a.943.943 0 110 1.886.943.943 0 010-1.887zm3.773 0a.943.943 0 110 1.886.943.943 0 010-1.887zm3.774 0a.943.943 0 110 1.886.943.943 0 010-1.887z" fill="#2A2827"/><path d="M65.91 93.02a.943.943 0 110 1.886.943.943 0 010-1.887z" fill="#2A2827"/><path d="M67.797 93.02a.943.943 0 110 1.886.943.943 0 010-1.887zm3.773 0a.943.943 0 110 1.886.943.943 0 010-1.887z" fill="#2A2827"/><path d="M73.457 93.02a.943.943 0 110 1.886.943.943 0 010-1.887zm5.66 0a.943.943 0 110 1.886.943.943 0 010-1.887z" fill="#2A2827"/><path d="M81.004 93.02a.943.943 0 110 1.886.943.943 0 010-1.887zm5.66 0a.943.943 0 110 1.886.943.943 0 010-1.887z" fill="#2A2827"/><path d="M88.55 93.02a.943.943 0 11.001 1.886.943.943 0 010-1.887z" fill="#2A2827"/><path d="M90.44 93.02a.943.943 0 110 1.886.943.943 0 010-1.887zm3.773 0a.943.943 0 110 1.886.943.943 0 010-1.887zm3.774 0a.943.943 0 110 1.886.943.943 0 010-1.887zm3.773 0a.943.943 0 110 1.886.943.943 0 010-1.887z" fill="#2A2827"/><path d="M103.647 93.02a.943.943 0 110 1.886.943.943 0 010-1.887z" fill="#2A2827"/><path d="M105.533 93.02a.944.944 0 110 1.887.944.944 0 010-1.888zm-73.586 1.886a.943.943 0 110 1.887.943.943 0 010-1.887z" fill="#2A2827"/><path d="M33.834 94.906a.943.943 0 110 1.887.943.943 0 010-1.887zm7.549 0a.943.943 0 110 1.887.943.943 0 010-1.887zm9.434 0a.943.943 0 110 1.887.943.943 0 010-1.887z" fill="#2A2827"/><path d="M52.703 94.906a.943.943 0 110 1.887.943.943 0 010-1.887zm3.774 0a.943.943 0 110 1.887.943.943 0 010-1.887zm7.547 0a.943.943 0 110 1.887.943.943 0 010-1.887zm3.773 0a.943.943 0 110 1.887.943.943 0 010-1.887zm3.773 0a.943.943 0 110 1.887.943.943 0 010-1.887zm3.774 0a.943.943 0 110 1.887.943.943 0 010-1.887z" fill="#2A2827"/><path d="M77.23 94.906a.943.943 0 110 1.887.943.943 0 010-1.887zm3.774 0a.943.943 0 110 1.887.943.943 0 010-1.887z" fill="#2A2827"/><path d="M82.89 94.906a.943.943 0 110 1.887.943.943 0 010-1.887z" fill="#2A2827"/><path d="M84.778 94.906a.943.943 0 110 1.887.943.943 0 010-1.887z" fill="#2A2827"/><path d="M86.664 94.906a.943.943 0 110 1.887.943.943 0 010-1.887z" fill="#2A2827"/><path d="M88.55 94.906a.943.943 0 11.001 1.887.943.943 0 010-1.887z" fill="#2A2827"/><path d="M90.44 94.906a.943.943 0 110 1.887.943.943 0 010-1.887zm7.547 0a.943.943 0 110 1.887.943.943 0 010-1.887zm3.773 0a.943.943 0 110 1.886.943.943 0 010-1.886z" fill="#2A2827"/><path d="M103.647 94.906a.943.943 0 110 1.886.943.943 0 010-1.886z" fill="#2A2827"/><path d="M105.533 94.906a.944.944 0 110 1.888.944.944 0 010-1.888zM43.27 96.793a.943.943 0 110 1.887.943.943 0 010-1.887zm3.773 0a.943.943 0 110 1.887.943.943 0 010-1.887zm3.774 0a.943.943 0 110 1.887.943.943 0 010-1.887z" fill="#2A2827"/><path d="M52.703 96.793a.943.943 0 110 1.887.943.943 0 010-1.887z" fill="#2A2827"/><path d="M54.59 96.793a.943.943 0 110 1.887.943.943 0 010-1.887z" fill="#2A2827"/><path d="M56.477 96.793a.943.943 0 110 1.887.943.943 0 010-1.887z" fill="#2A2827"/><path d="M58.363 96.793a.943.943 0 110 1.887.943.943 0 010-1.887z" fill="#2A2827"/><path d="M60.25 96.793a.943.943 0 110 1.887.943.943 0 010-1.887z" fill="#2A2827"/><path d="M62.137 96.793a.943.943 0 110 1.887.943.943 0 010-1.887z" fill="#2A2827"/><path d="M64.024 96.793a.943.943 0 110 1.887.943.943 0 010-1.887z" fill="#2A2827"/><path d="M65.91 96.793a.943.943 0 110 1.887.943.943 0 010-1.887z" fill="#2A2827"/><path d="M67.797 96.793a.943.943 0 110 1.887.943.943 0 010-1.887zm5.66 0a.943.943 0 110 1.887.943.943 0 010-1.887zm3.773 0a.943.943 0 110 1.887.943.943 0 010-1.887z" fill="#2A2827"/><path d="M79.117 96.793a.943.943 0 110 1.887.943.943 0 010-1.887zm3.773 0a.943.943 0 110 1.887.943.943 0 010-1.887z" fill="#2A2827"/><path d="M84.778 96.793a.943.943 0 110 1.887.943.943 0 010-1.887z" fill="#2A2827"/><path d="M86.664 96.793a.943.943 0 110 1.887.943.943 0 010-1.887zm3.776 0a.943.943 0 110 1.887.943.943 0 010-1.887z" fill="#2A2827"/><path d="M92.326 96.793a.943.943 0 110 1.887.943.943 0 010-1.887z" fill="#2A2827"/><path d="M94.213 96.793a.943.943 0 110 1.887.943.943 0 010-1.887z" fill="#2A2827"/><path d="M96.1 96.793a.943.943 0 110 1.887.943.943 0 010-1.887z" fill="#2A2827"/><path d="M97.987 96.793a.943.943 0 110 1.887.943.943 0 010-1.887z" fill="#2A2827"/><path d="M99.873 96.793a.944.944 0 110 1.888.944.944 0 010-1.888zM30.06 98.68a.943.943 0 110 1.886.943.943 0 010-1.886z" fill="#2A2827"/><path d="M31.947 98.68a.943.943 0 110 1.886.943.943 0 010-1.886zm3.773 0a.943.943 0 110 1.887.943.943 0 010-1.887zm3.774 0a.943.943 0 110 1.887.943.943 0 010-1.887z" fill="#2A2827"/><path d="M41.383 98.68a.943.943 0 110 1.887.943.943 0 010-1.887z" fill="#2A2827"/><path d="M43.27 98.68a.943.943 0 110 1.887.943.943 0 010-1.887zm5.66 0a.943.943 0 110 1.886.943.943 0 010-1.886z" fill="#2A2827"/><path d="M50.817 98.68a.943.943 0 110 1.887.943.943 0 010-1.887zm9.433 0a.943.943 0 110 1.887.943.943 0 010-1.887zm3.774 0a.943.943 0 110 1.887.943.943 0 010-1.887zm5.66 0a.943.943 0 110 1.886.943.943 0 010-1.886z" fill="#2A2827"/><path d="M71.57 98.68a.943.943 0 110 1.887.943.943 0 010-1.887zm5.66 0a.943.943 0 110 1.886.943.943 0 010-1.886zm3.774 0a.943.943 0 110 1.887.943.943 0 010-1.887zm11.322 0a.943.943 0 110 1.886.943.943 0 010-1.886zm3.774 0a.943.943 0 110 1.887.943.943 0 010-1.887z" fill="#2A2827"/><path d="M97.987 98.68a.943.943 0 110 1.887.943.943 0 010-1.887zm3.773 0a.943.943 0 110 1.886.943.943 0 010-1.886z" fill="#2A2827"/><path d="M103.647 98.68a.943.943 0 110 1.886.943.943 0 010-1.886zm-71.7 1.886a.944.944 0 110 1.888.944.944 0 010-1.888z" fill="#2A2827"/><path d="M33.834 100.566a.944.944 0 110 1.888.944.944 0 010-1.888zm3.774 0a.944.944 0 11-.001 1.888.944.944 0 010-1.888zm7.548 0a.944.944 0 110 1.888.944.944 0 010-1.888z" fill="#2A2827"/><path d="M47.043 100.566a.944.944 0 110 1.888.944.944 0 010-1.888zm3.774 0a.944.944 0 11-.001 1.888.944.944 0 010-1.888zm3.773 0a.944.944 0 11-.001 1.888.944.944 0 01.001-1.888z" fill="#2A2827"/><path d="M56.477 100.566a.944.944 0 11-.001 1.888.944.944 0 010-1.888zm5.66 0a.944.944 0 11-.001 1.888.944.944 0 010-1.888z" fill="#2A2827"/><path d="M64.024 100.566a.944.944 0 11-.001 1.888.944.944 0 010-1.888z" fill="#2A2827"/><path d="M65.91 100.566a.944.944 0 110 1.888.944.944 0 010-1.888zm5.66 0a.944.944 0 110 1.888.944.944 0 010-1.888z" fill="#2A2827"/><path d="M73.457 100.566a.944.944 0 110 1.888.944.944 0 010-1.888zm5.66 0a.944.944 0 110 1.888.944.944 0 010-1.888z" fill="#2A2827"/><path d="M81.004 100.566a.944.944 0 11-.001 1.888.944.944 0 01.001-1.888z" fill="#2A2827"/><path d="M82.89 100.566a.944.944 0 110 1.888.944.944 0 010-1.888zm9.436 0a.944.944 0 110 1.888.944.944 0 010-1.888z" fill="#2A2827"/><path d="M94.213 100.566a.944.944 0 11-.001 1.888.944.944 0 01.001-1.888zm3.774 0a.944.944 0 11-.002 1.888.944.944 0 01.002-1.888z" fill="#2A2827"/><path d="M99.873 100.566a.944.944 0 11-.001 1.889.944.944 0 01.001-1.889z" fill="#2A2827"/><path d="M101.76 100.566a.944.944 0 11-.001 1.887.944.944 0 01.001-1.887z" fill="#2A2827"/><path d="M103.647 100.566a.944.944 0 11-.001 1.887.944.944 0 01.001-1.887z" fill="#2A2827"/><path d="M105.533 100.566a.944.944 0 110 1.889.944.944 0 010-1.889zm-73.586 1.887a.944.944 0 110 1.888.944.944 0 010-1.888zm3.773 0a.944.944 0 110 1.888.944.944 0 010-1.888z" fill="#2A2827"/><path d="M37.608 102.453a.944.944 0 11-.001 1.888.944.944 0 010-1.888z" fill="#2A2827"/><path d="M39.494 102.453a.944.944 0 110 1.888.944.944 0 010-1.888z" fill="#2A2827"/><path d="M41.383 102.453a.944.944 0 11-.001 1.888.944.944 0 01.001-1.888zm3.773 0a.944.944 0 110 1.888.944.944 0 010-1.888z" fill="#2A2827"/><path d="M47.043 102.453a.944.944 0 110 1.888.944.944 0 010-1.888z" fill="#2A2827"/><path d="M48.93 102.453a.944.944 0 11-.001 1.888.944.944 0 010-1.888z" fill="#2A2827"/><path d="M50.817 102.453a.944.944 0 11-.001 1.888.944.944 0 010-1.888zm3.773 0a.944.944 0 11-.001 1.888.944.944 0 01.001-1.888zm5.66 0a.944.944 0 110 1.888.944.944 0 010-1.888zm11.32 0a.944.944 0 110 1.888.944.944 0 010-1.888z" fill="#2A2827"/><path d="M73.457 102.453a.944.944 0 110 1.888.944.944 0 010-1.888zm9.433 0a.944.944 0 110 1.888.944.944 0 010-1.888zm9.436 0a.944.944 0 110 1.888.944.944 0 010-1.888zm-60.379 1.887a.943.943 0 11.001 1.886.943.943 0 010-1.886zm5.661 0a.943.943 0 110 1.886.943.943 0 010-1.886zm3.775 0a.943.943 0 110 1.886.943.943 0 010-1.886zm3.773 0a.943.943 0 11.001 1.886.943.943 0 010-1.886zm5.661 0a.943.943 0 110 1.886.943.943 0 010-1.886z" fill="#2A2827"/><path d="M52.703 104.34a.943.943 0 110 1.886.943.943 0 010-1.886zm3.774 0a.943.943 0 110 1.886.943.943 0 010-1.886z" fill="#2A2827"/><path d="M58.363 104.34a.943.943 0 11.001 1.886.943.943 0 010-1.886zm3.774 0a.943.943 0 110 1.886.943.943 0 010-1.886z" fill="#2A2827"/><path d="M64.024 104.34a.943.943 0 110 1.886.943.943 0 010-1.886z" fill="#2A2827"/><path d="M65.91 104.34a.943.943 0 11.001 1.886.943.943 0 010-1.886z" fill="#2A2827"/><path d="M67.797 104.34a.943.943 0 110 1.886.943.943 0 010-1.886zm5.66 0a.943.943 0 110 1.886.943.943 0 010-1.886z" fill="#2A2827"/><path d="M75.344 104.34a.943.943 0 110 1.886.943.943 0 010-1.886zm3.773 0a.943.943 0 11.001 1.886.943.943 0 010-1.886z" fill="#2A2827"/><path d="M81.004 104.34a.943.943 0 110 1.886.943.943 0 010-1.886z" fill="#2A2827"/><path d="M82.89 104.34a.943.943 0 11.001 1.886.943.943 0 010-1.886z" fill="#2A2827"/><path d="M84.778 104.34a.943.943 0 110 1.886.943.943 0 010-1.886zm5.662 0a.943.943 0 110 1.886.943.943 0 010-1.886zm5.66 0a.943.943 0 110 1.886.943.943 0 010-1.886zm7.547 0a.943.943 0 110 1.885.943.943 0 010-1.885z" fill="#2A2827"/><path d="M105.533 104.34a.944.944 0 110 1.887.944.944 0 010-1.887zM22.722 13.775h-4.19a4.511 4.511 0 00-4.323 3.193 4.366 4.366 0 00-.185 1.265v4.289c0 2.459 2.023 4.458 4.509 4.458h4.189c2.486 0 4.51-2 4.51-4.459v-4.288c0-2.458-2.024-4.458-4.51-4.458zm2.528 8.747c0 1.366-1.134 2.477-2.529 2.477h-4.188c-1.394 0-2.528-1.111-2.528-2.477v-4.29c0-.426.11-.828.305-1.179a2.55 2.55 0 012.222-1.297h4.19c1.394 0 2.528 1.111 2.528 2.477v4.289zm76.718-8.747h-4.19a4.511 4.511 0 00-4.323 3.193 4.366 4.366 0 00-.185 1.265v4.289c0 2.459 2.023 4.458 4.509 4.458h4.189c2.486 0 4.509-2 4.509-4.459v-4.288c0-2.458-2.023-4.458-4.509-4.458zm2.528 8.747c0 1.366-1.134 2.477-2.529 2.477h-4.188c-1.394 0-2.528-1.111-2.528-2.477v-4.29c0-.426.11-.828.305-1.179a2.55 2.55 0 012.222-1.297h4.19c1.394 0 2.528 1.111 2.528 2.477v4.289zM22.722 93.02h-4.19a4.511 4.511 0 00-4.323 3.192 4.368 4.368 0 00-.185 1.265v4.289c0 2.459 2.023 4.459 4.509 4.459h2.094l2.095-.001c2.486 0 4.51-1.999 4.51-4.458v-4.289c0-2.458-2.024-4.458-4.51-4.458zm2.528 8.746c0 1.366-1.134 2.477-2.529 2.477l-2.094.001-2.094-.001c-1.394 0-2.528-1.111-2.528-2.477v-4.289c0-.427.11-.828.305-1.18A2.55 2.55 0 0118.532 95h4.19c1.394 0 2.528 1.112 2.528 2.477v4.289z" fill="#2A2827"/><path d="M19.346 23.207c-.854 0-1.549-.68-1.549-1.517v-2.627c0-.26.068-.507.187-.722a1.562 1.562 0 011.361-.794h2.566c.853 0 1.548.68 1.548 1.517v2.626c0 .836-.695 1.517-1.548 1.517h-2.565zm79.244 0c-.854 0-1.549-.68-1.549-1.517v-2.627c0-.26.068-.507.187-.722a1.563 1.563 0 011.361-.794h2.566c.853 0 1.548.68 1.548 1.517v2.626c0 .836-.695 1.517-1.548 1.517H98.59zm-79.244 79.246c-.854 0-1.549-.681-1.549-1.517V98.31c0-.262.068-.508.187-.723a1.562 1.562 0 011.361-.794h2.566c.853 0 1.548.68 1.548 1.517v2.626c0 .836-.695 1.517-1.548 1.517h-2.565z" fill="#2A2827"/><g clip-path="url(#clip0_3236_104405)"><path d="M70.864 45.85H49.637a3.538 3.538 0 00-3.537 3.537v21.227a3.538 3.538 0 003.538 3.537h21.226a3.538 3.538 0 003.538-3.537V49.387a3.538 3.538 0 00-3.538-3.537z" fill="#fff"/><path d="M51.513 51.261c-.223.228-.353.583-.353 1.043V68.7c0 .46.13.815.353 1.043l.056.05 9.433-9.184v-.217l-9.434-9.184-.055.053zm13.773 12.411l-3.141-3.063v-.217l3.144-3.063.07.04 3.725 2.064c1.063.586 1.063 1.55 0 2.139l-3.724 2.06-.074.04zm-.496.531l-3.215-3.132-9.489 9.243c.353.361.929.405 1.584.043l11.12-6.154zm0-7.403l-11.12-6.155c-.655-.357-1.23-.314-1.584.048l9.489 9.239L64.79 56.8z" fill="#2A2827"/></g><rect x=".6" y=".6" width="118.8" height="118.8" rx="15" stroke="#fff" stroke-width="1.2"/><defs><clipPath id="clip0_3236_104405"><path fill="#fff" transform="translate(46.1 45.85)" d="M0 0h28.302v28.302H0z"/></clipPath></defs></svg>