<svg width="120" height="120" fill="none" xmlns="http://www.w3.org/2000/svg"><rect x="4.898" y="4.898" width="110.204" height="110.204" rx="12" fill="#fff"/><rect x=".6" y=".6" width="118.8" height="118.8" rx="15" stroke="#fff" stroke-width="1.2"/><path d="M33.334 14.445a1.111 1.111 0 110 2.223 1.111 1.111 0 010-2.223zm11.111 0a1.111 1.111 0 110 2.223 1.111 1.111 0 010-2.223z" fill="#2A2827"/><path d="M46.667 14.445a1.111 1.111 0 110 2.222 1.111 1.111 0 010-2.222zm8.889 0a1.111 1.111 0 110 2.222 1.111 1.111 0 010-2.222zm6.666 0a1.111 1.111 0 110 2.223 1.111 1.111 0 010-2.223z" fill="#2A2827"/><path d="M64.445 14.445a1.111 1.111 0 110 2.223 1.111 1.111 0 010-2.223z" fill="#2A2827"/><path d="M66.668 14.445a1.111 1.111 0 110 2.222 1.111 1.111 0 010-2.222zm6.666 0a1.111 1.111 0 110 2.223 1.111 1.111 0 010-2.223zm6.668 0a1.111 1.111 0 110 2.222 1.111 1.111 0 010-2.222z" fill="#2A2827"/><path d="M82.222 14.445a1.111 1.111 0 110 2.223 1.111 1.111 0 010-2.223z" fill="#2A2827"/><path d="M84.445 14.445a1.111 1.111 0 110 2.223 1.111 1.111 0 010-2.223z" fill="#2A2827"/><path d="M86.668 14.445a1.111 1.111 0 110 2.222 1.111 1.111 0 010-2.222zm-53.334 2.223a1.111 1.111 0 110 2.222 1.111 1.111 0 010-2.222z" fill="#2A2827"/><path d="M35.556 16.668a1.111 1.111 0 110 2.222 1.111 1.111 0 010-2.222zm4.446 0a1.111 1.111 0 110 2.222 1.111 1.111 0 010-2.222z" fill="#2A2827"/><path d="M42.222 16.668a1.111 1.111 0 110 2.222 1.111 1.111 0 010-2.222zm4.446 0a1.111 1.111 0 110 2.222 1.111 1.111 0 010-2.222z" fill="#2A2827"/><path d="M48.89 16.668a1.111 1.111 0 110 2.222 1.111 1.111 0 010-2.222zm15.555 0a1.111 1.111 0 110 2.222 1.111 1.111 0 010-2.222z" fill="#2A2827"/><path d="M66.668 16.668a1.111 1.111 0 110 2.222 1.111 1.111 0 010-2.222zm8.888 0a1.111 1.111 0 110 2.222 1.111 1.111 0 010-2.222zm4.446 0a1.111 1.111 0 110 2.222 1.111 1.111 0 010-2.222zm6.666 0a1.111 1.111 0 110 2.222 1.111 1.111 0 010-2.222zM33.334 18.89a1.111 1.111 0 110 2.223 1.111 1.111 0 010-2.222z" fill="#2A2827"/><path d="M35.556 18.89a1.111 1.111 0 110 2.223 1.111 1.111 0 010-2.222z" fill="#2A2827"/><path d="M37.78 18.89a1.111 1.111 0 110 2.223 1.111 1.111 0 010-2.222zm4.442 0a1.111 1.111 0 110 2.223 1.111 1.111 0 010-2.222zm4.446 0a1.111 1.111 0 110 2.223 1.111 1.111 0 010-2.222zm4.443 0a1.111 1.111 0 110 2.223 1.111 1.111 0 010-2.222z" fill="#2A2827"/><path d="M53.334 18.89a1.111 1.111 0 110 2.223 1.111 1.111 0 010-2.222z" fill="#2A2827"/><path d="M55.556 18.89a1.111 1.111 0 110 2.223 1.111 1.111 0 010-2.222zm11.112 0a1.111 1.111 0 110 2.223 1.111 1.111 0 010-2.222z" fill="#2A2827"/><path d="M68.89 18.89a1.111 1.111 0 110 2.223 1.111 1.111 0 010-2.222zm4.444 0a1.111 1.111 0 110 2.223 1.111 1.111 0 010-2.222zm4.446 0a1.111 1.111 0 110 2.223 1.111 1.111 0 010-2.222z" fill="#2A2827"/><path d="M80.002 18.89a1.111 1.111 0 110 2.223 1.111 1.111 0 010-2.222z" fill="#2A2827"/><path d="M82.222 18.89a1.111 1.111 0 110 2.223 1.111 1.111 0 010-2.222z" fill="#2A2827"/><path d="M84.445 18.89a1.111 1.111 0 110 2.223 1.111 1.111 0 010-2.222z" fill="#2A2827"/><path d="M86.668 18.89a1.111 1.111 0 110 2.223 1.111 1.111 0 010-2.222zM37.78 21.111a1.111 1.111 0 110 2.222 1.111 1.111 0 010-2.222z" fill="#2A2827"/><path d="M40.002 21.111a1.111 1.111 0 110 2.222 1.111 1.111 0 010-2.222z" fill="#2A2827"/><path d="M42.222 21.111a1.111 1.111 0 110 2.223 1.111 1.111 0 010-2.223zm4.446 0a1.111 1.111 0 110 2.223 1.111 1.111 0 010-2.223zm4.443 0a1.111 1.111 0 110 2.222 1.111 1.111 0 010-2.222zm6.669 0a1.111 1.111 0 110 2.222 1.111 1.111 0 010-2.222z" fill="#2A2827"/><path d="M60.002 21.111a1.111 1.111 0 110 2.222 1.111 1.111 0 010-2.222zm15.554 0a1.111 1.111 0 110 2.222 1.111 1.111 0 010-2.222z" fill="#2A2827"/><path d="M77.78 21.111a1.111 1.111 0 110 2.222 1.111 1.111 0 010-2.222zm6.665 0a1.111 1.111 0 110 2.222 1.111 1.111 0 010-2.222z" fill="#2A2827"/><path d="M86.668 21.111a1.111 1.111 0 110 2.223 1.111 1.111 0 010-2.223zm-40.001 2.223a1.111 1.111 0 110 2.222 1.111 1.111 0 010-2.222z" fill="#2A2827"/><path d="M48.89 23.334a1.111 1.111 0 110 2.222 1.111 1.111 0 010-2.222z" fill="#2A2827"/><path d="M51.111 23.334a1.111 1.111 0 110 2.222 1.111 1.111 0 010-2.222z" fill="#2A2827"/><path d="M53.334 23.334a1.111 1.111 0 110 2.222 1.111 1.111 0 010-2.222z" fill="#2A2827"/><path d="M55.556 23.334a1.111 1.111 0 110 2.222 1.111 1.111 0 010-2.222z" fill="#2A2827"/><path d="M57.78 23.334a1.111 1.111 0 110 2.222 1.111 1.111 0 010-2.222zm4.442 0a1.111 1.111 0 110 2.222 1.111 1.111 0 010-2.222zm4.446 0a1.111 1.111 0 110 2.222 1.111 1.111 0 010-2.222zm6.666 0a1.111 1.111 0 110 2.222 1.111 1.111 0 010-2.222zm4.446 0a1.111 1.111 0 110 2.222 1.111 1.111 0 010-2.222zm4.442 0a1.111 1.111 0 110 2.222 1.111 1.111 0 010-2.222z" fill="#2A2827"/><path d="M84.445 23.334a1.111 1.111 0 110 2.222 1.111 1.111 0 010-2.222z" fill="#2A2827"/><path d="M86.668 23.334a1.111 1.111 0 110 2.222 1.111 1.111 0 010-2.222zm-53.334 2.223a1.111 1.111 0 110 2.222 1.111 1.111 0 010-2.222z" fill="#2A2827"/><path d="M35.556 25.557a1.111 1.111 0 110 2.222 1.111 1.111 0 010-2.222z" fill="#2A2827"/><path d="M37.78 25.557a1.111 1.111 0 110 2.222 1.111 1.111 0 010-2.222z" fill="#2A2827"/><path d="M40.002 25.557a1.111 1.111 0 110 2.222 1.111 1.111 0 010-2.222z" fill="#2A2827"/><path d="M42.222 25.557a1.111 1.111 0 110 2.222 1.111 1.111 0 010-2.222z" fill="#2A2827"/><path d="M44.445 25.557a1.111 1.111 0 110 2.222 1.111 1.111 0 010-2.222z" fill="#2A2827"/><path d="M46.667 25.557a1.111 1.111 0 110 2.222 1.111 1.111 0 010-2.222zm8.889 0a1.111 1.111 0 110 2.222 1.111 1.111 0 010-2.222z" fill="#2A2827"/><path d="M57.78 25.557a1.111 1.111 0 110 2.222 1.111 1.111 0 010-2.222z" fill="#2A2827"/><path d="M60.002 25.557a1.111 1.111 0 110 2.222 1.111 1.111 0 010-2.222z" fill="#2A2827"/><path d="M62.222 25.557a1.111 1.111 0 110 2.222 1.111 1.111 0 010-2.222z" fill="#2A2827"/><path d="M64.445 25.557a1.111 1.111 0 110 2.222 1.111 1.111 0 010-2.222z" fill="#2A2827"/><path d="M66.668 25.557a1.111 1.111 0 110 2.222 1.111 1.111 0 010-2.222z" fill="#2A2827"/><path d="M68.89 25.557a1.111 1.111 0 110 2.222 1.111 1.111 0 010-2.222zm4.444 0a1.111 1.111 0 110 2.222 1.111 1.111 0 010-2.222z" fill="#2A2827"/><path d="M75.556 25.557a1.111 1.111 0 110 2.222 1.111 1.111 0 010-2.222zm6.666 0a1.111 1.111 0 110 2.222 1.111 1.111 0 010-2.222zm4.446 0a1.111 1.111 0 110 2.222 1.111 1.111 0 010-2.222zM33.334 27.78a1.111 1.111 0 110 2.222 1.111 1.111 0 010-2.223zm4.446 0a1.111 1.111 0 110 2.221 1.111 1.111 0 010-2.222zm4.442 0a1.111 1.111 0 110 2.222 1.111 1.111 0 010-2.223zm4.446 0a1.111 1.111 0 110 2.222 1.111 1.111 0 010-2.223zm4.443 0a1.111 1.111 0 110 2.221 1.111 1.111 0 010-2.222zm4.445 0a1.111 1.111 0 110 2.221 1.111 1.111 0 010-2.222zm4.446 0a1.111 1.111 0 110 2.221 1.111 1.111 0 010-2.222zm4.443 0a1.111 1.111 0 110 2.221 1.111 1.111 0 010-2.222zm4.445 0a1.111 1.111 0 110 2.221 1.111 1.111 0 010-2.222zm4.444 0a1.111 1.111 0 110 2.222 1.111 1.111 0 010-2.223zm4.446 0a1.111 1.111 0 110 2.221 1.111 1.111 0 010-2.222zm4.442 0a1.111 1.111 0 110 2.222 1.111 1.111 0 010-2.223zm4.446 0a1.111 1.111 0 110 2.222 1.111 1.111 0 010-2.223z" fill="#2A2827"/><path d="M33.334 30a1.111 1.111 0 110 2.222 1.111 1.111 0 010-2.222z" fill="#2A2827"/><path d="M35.556 30a1.111 1.111 0 110 2.222 1.111 1.111 0 010-2.222z" fill="#2A2827"/><path d="M37.78 30a1.111 1.111 0 110 2.222 1.111 1.111 0 010-2.222z" fill="#2A2827"/><path d="M40.002 30a1.111 1.111 0 110 2.222 1.111 1.111 0 010-2.222z" fill="#2A2827"/><path d="M42.222 30a1.111 1.111 0 110 2.222 1.111 1.111 0 010-2.222zm6.668 0a1.111 1.111 0 110 2.222 1.111 1.111 0 010-2.222z" fill="#2A2827"/><path d="M51.111 30a1.111 1.111 0 110 2.222 1.111 1.111 0 010-2.222z" fill="#2A2827"/><path d="M53.334 30a1.111 1.111 0 110 2.222 1.111 1.111 0 010-2.222zm4.446 0a1.111 1.111 0 110 2.222 1.111 1.111 0 010-2.222z" fill="#2A2827"/><path d="M60.002 30a1.111 1.111 0 110 2.222 1.111 1.111 0 010-2.222z" fill="#2A2827"/><path d="M62.222 30a1.111 1.111 0 110 2.222 1.111 1.111 0 010-2.222z" fill="#2A2827"/><path d="M64.445 30a1.111 1.111 0 110 2.222 1.111 1.111 0 010-2.222z" fill="#2A2827"/><path d="M66.668 30a1.111 1.111 0 110 2.222 1.111 1.111 0 010-2.222zm4.443 0a1.111 1.111 0 110 2.222 1.111 1.111 0 010-2.222zm4.445 0a1.111 1.111 0 110 2.222 1.111 1.111 0 010-2.222zm8.889 0a1.111 1.111 0 110 2.222 1.111 1.111 0 010-2.222z" fill="#2A2827"/><path d="M86.668 30a1.111 1.111 0 110 2.222 1.111 1.111 0 010-2.222zm-66.666 2.223a1.111 1.111 0 110 2.222 1.111 1.111 0 010-2.222z" fill="#2A2827"/><path d="M22.222 32.223a1.111 1.111 0 110 2.222 1.111 1.111 0 010-2.222z" fill="#2A2827"/><path d="M24.445 32.223a1.111 1.111 0 110 2.222 1.111 1.111 0 010-2.222zm4.445 0a1.111 1.111 0 110 2.222 1.111 1.111 0 010-2.222zm4.444 0a1.111 1.111 0 110 2.222 1.111 1.111 0 010-2.222z" fill="#2A2827"/><path d="M35.556 32.223a1.111 1.111 0 110 2.222 1.111 1.111 0 010-2.222z" fill="#2A2827"/><path d="M37.78 32.223a1.111 1.111 0 110 2.222 1.111 1.111 0 010-2.222zm4.442 0a1.111 1.111 0 110 2.222 1.111 1.111 0 010-2.222zm8.889 0a1.111 1.111 0 110 2.222 1.111 1.111 0 010-2.222z" fill="#2A2827"/><path d="M53.334 32.223a1.111 1.111 0 110 2.222 1.111 1.111 0 010-2.222zm4.446 0a1.111 1.111 0 110 2.222 1.111 1.111 0 010-2.222zm6.665 0a1.111 1.111 0 110 2.222 1.111 1.111 0 010-2.222z" fill="#2A2827"/><path d="M66.668 32.223a1.111 1.111 0 110 2.222 1.111 1.111 0 010-2.222z" fill="#2A2827"/><path d="M68.89 32.223a1.111 1.111 0 110 2.222 1.111 1.111 0 010-2.222zm4.444 0a1.111 1.111 0 110 2.222 1.111 1.111 0 010-2.222z" fill="#2A2827"/><path d="M75.556 32.223a1.111 1.111 0 110 2.222 1.111 1.111 0 010-2.222zm4.446 0a1.111 1.111 0 110 2.222 1.111 1.111 0 010-2.222zm4.443 0a1.111 1.111 0 110 2.222 1.111 1.111 0 010-2.222zm4.445 0a1.111 1.111 0 110 2.222 1.111 1.111 0 010-2.222z" fill="#2A2827"/><path d="M91.111 32.223a1.111 1.111 0 110 2.222 1.111 1.111 0 010-2.222z" fill="#2A2827"/><path d="M93.334 32.223a1.111 1.111 0 110 2.222 1.111 1.111 0 010-2.222zm6.668 0a1.111 1.111 0 110 2.222 1.111 1.111 0 010-2.222z" fill="#2A2827"/><path d="M102.222 32.223a1.112 1.112 0 110 2.223 1.112 1.112 0 010-2.223z" fill="#2A2827"/><path d="M104.445 32.223a1.11 1.11 0 110 2.221 1.11 1.11 0 010-2.221zM17.78 34.445a1.111 1.111 0 110 2.222 1.111 1.111 0 010-2.222zm4.442 0a1.111 1.111 0 110 2.223 1.111 1.111 0 010-2.223zm4.446 0a1.111 1.111 0 110 2.222 1.111 1.111 0 010-2.222zm4.443 0a1.111 1.111 0 110 2.222 1.111 1.111 0 010-2.222z" fill="#2A2827"/><path d="M33.334 34.445a1.111 1.111 0 110 2.223 1.111 1.111 0 010-2.223zm4.446 0a1.111 1.111 0 110 2.222 1.111 1.111 0 010-2.222z" fill="#2A2827"/><path d="M40.002 34.445a1.111 1.111 0 110 2.222 1.111 1.111 0 010-2.222zm4.443 0a1.111 1.111 0 110 2.223 1.111 1.111 0 010-2.223z" fill="#2A2827"/><path d="M46.667 34.445a1.111 1.111 0 110 2.222 1.111 1.111 0 010-2.222zm6.667 0a1.111 1.111 0 110 2.223 1.111 1.111 0 010-2.223zm13.334 0a1.111 1.111 0 110 2.222 1.111 1.111 0 010-2.222zm11.112 0a1.111 1.111 0 110 2.222 1.111 1.111 0 010-2.222zm6.665 0a1.111 1.111 0 110 2.223 1.111 1.111 0 010-2.223z" fill="#2A2827"/><path d="M86.668 34.445a1.111 1.111 0 110 2.222 1.111 1.111 0 010-2.222z" fill="#2A2827"/><path d="M88.89 34.445a1.111 1.111 0 110 2.222 1.111 1.111 0 010-2.222z" fill="#2A2827"/><path d="M91.111 34.445a1.111 1.111 0 110 2.222 1.111 1.111 0 010-2.222zm4.445 0a1.111 1.111 0 110 2.222 1.111 1.111 0 010-2.222zm4.446 0a1.111 1.111 0 110 2.223 1.111 1.111 0 010-2.223zm4.443 0a1.11 1.11 0 110 2.222 1.11 1.11 0 010-2.222zM17.78 36.668a1.111 1.111 0 110 2.222 1.111 1.111 0 010-2.222zm8.888 0a1.111 1.111 0 110 2.222 1.111 1.111 0 010-2.222z" fill="#2A2827"/><path d="M28.89 36.668a1.111 1.111 0 110 2.222 1.111 1.111 0 010-2.222z" fill="#2A2827"/><path d="M31.111 36.668a1.111 1.111 0 110 2.222 1.111 1.111 0 010-2.222zm4.445 0a1.111 1.111 0 110 2.222 1.111 1.111 0 010-2.222z" fill="#2A2827"/><path d="M37.78 36.668a1.111 1.111 0 110 2.222 1.111 1.111 0 010-2.222z" fill="#2A2827"/><path d="M40.002 36.668a1.111 1.111 0 110 2.222 1.111 1.111 0 010-2.222z" fill="#2A2827"/><path d="M42.222 36.668a1.111 1.111 0 110 2.222 1.111 1.111 0 010-2.222zm11.112 0a1.111 1.111 0 110 2.222 1.111 1.111 0 010-2.222zm4.446 0a1.111 1.111 0 110 2.222 1.111 1.111 0 010-2.222z" fill="#2A2827"/><path d="M60.002 36.668a1.111 1.111 0 110 2.222 1.111 1.111 0 010-2.222zm4.443 0a1.111 1.111 0 110 2.222 1.111 1.111 0 010-2.222zm4.445 0a1.111 1.111 0 110 2.222 1.111 1.111 0 010-2.222z" fill="#2A2827"/><path d="M71.111 36.668a1.111 1.111 0 110 2.222 1.111 1.111 0 010-2.222z" fill="#2A2827"/><path d="M73.334 36.668a1.111 1.111 0 110 2.222 1.111 1.111 0 010-2.222z" fill="#2A2827"/><path d="M75.556 36.668a1.111 1.111 0 110 2.222 1.111 1.111 0 010-2.222zm11.112 0a1.111 1.111 0 110 2.222 1.111 1.111 0 010-2.222z" fill="#2A2827"/><path d="M88.89 36.668a1.111 1.111 0 110 2.222 1.111 1.111 0 010-2.222z" fill="#2A2827"/><path d="M91.111 36.668a1.111 1.111 0 110 2.222 1.111 1.111 0 010-2.222zm11.111 0a1.112 1.112 0 110 2.223 1.112 1.112 0 010-2.223zm-80 2.222a1.111 1.111 0 110 2.223 1.111 1.111 0 010-2.222zm20 0a1.111 1.111 0 110 2.223 1.111 1.111 0 010-2.222zm6.668 0a1.111 1.111 0 110 2.223 1.111 1.111 0 010-2.222z" fill="#2A2827"/><path d="M51.111 38.89a1.111 1.111 0 110 2.223 1.111 1.111 0 010-2.222zm4.445 0a1.111 1.111 0 110 2.223 1.111 1.111 0 010-2.222z" fill="#2A2827"/><path d="M57.78 38.89a1.111 1.111 0 110 2.223 1.111 1.111 0 010-2.222zm4.442 0a1.111 1.111 0 110 2.223 1.111 1.111 0 010-2.222z" fill="#2A2827"/><path d="M64.445 38.89a1.111 1.111 0 110 2.223 1.111 1.111 0 010-2.222zm4.445 0a1.111 1.111 0 110 2.223 1.111 1.111 0 010-2.222zm4.444 0a1.111 1.111 0 110 2.223 1.111 1.111 0 010-2.222zm4.446 0a1.111 1.111 0 110 2.223 1.111 1.111 0 010-2.222zm6.665 0a1.111 1.111 0 110 2.223 1.111 1.111 0 010-2.222z" fill="#2A2827"/><path d="M86.668 38.89a1.111 1.111 0 110 2.223 1.111 1.111 0 010-2.222zm6.666 0a1.111 1.111 0 110 2.223 1.111 1.111 0 010-2.222zm4.446 0a1.111 1.111 0 110 2.223 1.111 1.111 0 010-2.222zm-82.224 2.221a1.111 1.111 0 110 2.222 1.111 1.111 0 010-2.222zm4.446 0a1.111 1.111 0 110 2.222 1.111 1.111 0 010-2.222z" fill="#2A2827"/><path d="M22.222 41.111a1.111 1.111 0 110 2.223 1.111 1.111 0 010-2.223zm4.446 0a1.111 1.111 0 110 2.223 1.111 1.111 0 010-2.223z" fill="#2A2827"/><path d="M28.89 41.111a1.111 1.111 0 110 2.222 1.111 1.111 0 010-2.222z" fill="#2A2827"/><path d="M31.111 41.111a1.111 1.111 0 110 2.222 1.111 1.111 0 010-2.222z" fill="#2A2827"/><path d="M33.334 41.111a1.111 1.111 0 110 2.223 1.111 1.111 0 010-2.223z" fill="#2A2827"/><path d="M35.556 41.111a1.111 1.111 0 110 2.222 1.111 1.111 0 010-2.222zm4.446 0a1.111 1.111 0 110 2.222 1.111 1.111 0 010-2.222z" fill="#2A2827"/><path d="M42.222 41.111a1.111 1.111 0 110 2.223 1.111 1.111 0 010-2.223zm4.446 0a1.111 1.111 0 110 2.223 1.111 1.111 0 010-2.223zm8.888 0a1.111 1.111 0 110 2.222 1.111 1.111 0 010-2.222z" fill="#2A2827"/><path d="M57.78 41.111a1.111 1.111 0 110 2.222 1.111 1.111 0 010-2.222z" fill="#2A2827"/><path d="M60.002 41.111a1.111 1.111 0 110 2.222 1.111 1.111 0 010-2.222z" fill="#2A2827"/><path d="M62.222 41.111a1.111 1.111 0 110 2.223 1.111 1.111 0 010-2.223zm8.889 0a1.111 1.111 0 110 2.222 1.111 1.111 0 010-2.222z" fill="#2A2827"/><path d="M73.334 41.111a1.111 1.111 0 110 2.223 1.111 1.111 0 010-2.223zm6.668 0a1.111 1.111 0 110 2.222 1.111 1.111 0 010-2.222zm4.443 0a1.111 1.111 0 110 2.222 1.111 1.111 0 010-2.222z" fill="#2A2827"/><path d="M86.668 41.111a1.111 1.111 0 110 2.223 1.111 1.111 0 010-2.223z" fill="#2A2827"/><path d="M88.89 41.111a1.111 1.111 0 110 2.222 1.111 1.111 0 010-2.222zm8.89 0a1.111 1.111 0 110 2.222 1.111 1.111 0 010-2.222z" fill="#2A2827"/><path d="M100.002 41.111a1.111 1.111 0 110 2.223 1.111 1.111 0 010-2.223z" fill="#2A2827"/><path d="M102.222 41.111a1.112 1.112 0 110 2.224 1.112 1.112 0 010-2.224zm-86.666 2.223a1.111 1.111 0 110 2.222 1.111 1.111 0 010-2.222z" fill="#2A2827"/><path d="M17.78 43.334a1.111 1.111 0 110 2.222 1.111 1.111 0 010-2.222zm8.888 0a1.111 1.111 0 110 2.222 1.111 1.111 0 010-2.222zm8.888 0a1.111 1.111 0 110 2.222 1.111 1.111 0 010-2.222z" fill="#2A2827"/><path d="M37.78 43.334a1.111 1.111 0 110 2.222 1.111 1.111 0 010-2.222zm13.331 0a1.111 1.111 0 110 2.222 1.111 1.111 0 010-2.222zm17.779 0a1.111 1.111 0 110 2.222 1.111 1.111 0 010-2.222zm6.666 0a1.111 1.111 0 110 2.222 1.111 1.111 0 010-2.222z" fill="#2A2827"/><path d="M77.78 43.334a1.111 1.111 0 110 2.222 1.111 1.111 0 010-2.222z" fill="#2A2827"/><path d="M80.002 43.334a1.111 1.111 0 110 2.222 1.111 1.111 0 010-2.222zm11.109 0a1.111 1.111 0 110 2.222 1.111 1.111 0 010-2.222z" fill="#2A2827"/><path d="M93.334 43.334a1.111 1.111 0 110 2.222 1.111 1.111 0 010-2.222z" fill="#2A2827"/><path d="M95.556 43.334a1.111 1.111 0 110 2.222 1.111 1.111 0 010-2.222zm8.889 0a1.11 1.11 0 110 2.222 1.11 1.11 0 010-2.222zm-88.889 2.223a1.111 1.111 0 110 2.222 1.111 1.111 0 010-2.222z" fill="#2A2827"/><path d="M17.78 45.557a1.111 1.111 0 110 2.222 1.111 1.111 0 010-2.222zm4.442 0a1.111 1.111 0 110 2.222 1.111 1.111 0 010-2.222zm4.446 0a1.111 1.111 0 110 2.222 1.111 1.111 0 010-2.222z" fill="#2A2827"/><path d="M28.89 45.557a1.111 1.111 0 110 2.222 1.111 1.111 0 010-2.222z" fill="#2A2827"/><path d="M31.111 45.557a1.111 1.111 0 110 2.222 1.111 1.111 0 010-2.222z" fill="#2A2827"/><path d="M33.334 45.557a1.111 1.111 0 110 2.222 1.111 1.111 0 010-2.222z" fill="#2A2827"/><path d="M35.556 45.557a1.111 1.111 0 110 2.222 1.111 1.111 0 010-2.222z" fill="#2A2827"/><path d="M37.78 45.557a1.111 1.111 0 110 2.222 1.111 1.111 0 010-2.222z" fill="#2A2827"/><path d="M40.002 45.557a1.111 1.111 0 110 2.222 1.111 1.111 0 010-2.222zm4.443 0a1.111 1.111 0 110 2.222 1.111 1.111 0 010-2.222zm4.445 0a1.111 1.111 0 110 2.222 1.111 1.111 0 010-2.222z" fill="#2A2827"/><path d="M51.111 45.557a1.111 1.111 0 110 2.222 1.111 1.111 0 010-2.222zm11.111 0a1.111 1.111 0 110 2.222 1.111 1.111 0 010-2.222zm4.446 0a1.111 1.111 0 110 2.222 1.111 1.111 0 010-2.222z" fill="#2A2827"/><path d="M68.89 45.557a1.111 1.111 0 110 2.222 1.111 1.111 0 010-2.222z" fill="#2A2827"/><path d="M71.111 45.557a1.111 1.111 0 110 2.222 1.111 1.111 0 010-2.222zm11.111 0a1.111 1.111 0 110 2.222 1.111 1.111 0 010-2.222zm4.446 0a1.111 1.111 0 110 2.222 1.111 1.111 0 010-2.222z" fill="#2A2827"/><path d="M88.89 45.557a1.111 1.111 0 110 2.222 1.111 1.111 0 010-2.222zM17.78 47.78a1.111 1.111 0 110 2.221 1.111 1.111 0 010-2.222zm4.442 0a1.111 1.111 0 110 2.222 1.111 1.111 0 010-2.223zm4.446 0a1.111 1.111 0 110 2.222 1.111 1.111 0 010-2.223zm4.443 0a1.111 1.111 0 110 2.221 1.111 1.111 0 010-2.222zm4.445 0a1.111 1.111 0 110 2.221 1.111 1.111 0 010-2.222z" fill="#2A2827"/><path d="M37.78 47.78a1.111 1.111 0 110 2.221 1.111 1.111 0 010-2.222z" fill="#2A2827"/><path d="M40.002 47.78a1.111 1.111 0 110 2.221 1.111 1.111 0 010-2.222zm4.443 0a1.111 1.111 0 110 2.221 1.111 1.111 0 010-2.222zm11.111 0a1.111 1.111 0 110 2.221 1.111 1.111 0 010-2.222z" fill="#2A2827"/><path d="M57.78 47.78a1.111 1.111 0 110 2.221 1.111 1.111 0 010-2.222z" fill="#2A2827"/><path d="M60.002 47.78a1.111 1.111 0 110 2.221 1.111 1.111 0 010-2.222zm4.443 0a1.111 1.111 0 110 2.221 1.111 1.111 0 010-2.222z" fill="#2A2827"/><path d="M66.668 47.78a1.111 1.111 0 110 2.222 1.111 1.111 0 010-2.223zm6.666 0a1.111 1.111 0 110 2.222 1.111 1.111 0 010-2.223zm4.446 0a1.111 1.111 0 110 2.221 1.111 1.111 0 010-2.222zm13.331 0a1.111 1.111 0 110 2.221 1.111 1.111 0 010-2.222z" fill="#2A2827"/><path d="M93.334 47.78a1.111 1.111 0 110 2.222 1.111 1.111 0 010-2.223zm4.446 0a1.111 1.111 0 110 2.221 1.111 1.111 0 010-2.222zm6.665 0a1.11 1.11 0 110 2.22 1.11 1.11 0 010-2.22zM17.78 50a1.111 1.111 0 110 2.222 1.111 1.111 0 010-2.222z" fill="#2A2827"/><path d="M20.002 50a1.111 1.111 0 110 2.222 1.111 1.111 0 010-2.222zm8.888 0a1.111 1.111 0 110 2.222 1.111 1.111 0 010-2.222zm15.555 0a1.111 1.111 0 110 2.222 1.111 1.111 0 010-2.222zm13.335 0a1.111 1.111 0 110 2.222 1.111 1.111 0 010-2.222zm4.442 0a1.111 1.111 0 110 2.222 1.111 1.111 0 010-2.222z" fill="#2A2827"/><path d="M64.445 50a1.111 1.111 0 110 2.222 1.111 1.111 0 010-2.222zm4.445 0a1.111 1.111 0 110 2.222 1.111 1.111 0 010-2.222zm4.444 0a1.111 1.111 0 110 2.222 1.111 1.111 0 010-2.222zm4.446 0a1.111 1.111 0 110 2.222 1.111 1.111 0 010-2.222z" fill="#2A2827"/><path d="M80.002 50a1.111 1.111 0 110 2.222 1.111 1.111 0 010-2.222zm8.888 0a1.111 1.111 0 110 2.222 1.111 1.111 0 010-2.222zm4.444 0a1.111 1.111 0 110 2.222 1.111 1.111 0 010-2.222zm6.668 0a1.111 1.111 0 110 2.223 1.111 1.111 0 010-2.223zm4.443 0a1.11 1.11 0 110 2.222 1.11 1.11 0 010-2.222zm-88.889 2.223a1.111 1.111 0 110 2.222 1.111 1.111 0 010-2.222z" fill="#2A2827"/><path d="M17.78 52.223a1.111 1.111 0 110 2.222 1.111 1.111 0 010-2.222z" fill="#2A2827"/><path d="M20.002 52.223a1.111 1.111 0 110 2.222 1.111 1.111 0 010-2.222zm11.109 0a1.111 1.111 0 110 2.222 1.111 1.111 0 010-2.222z" fill="#2A2827"/><path d="M33.334 52.223a1.111 1.111 0 110 2.222 1.111 1.111 0 010-2.222z" fill="#2A2827"/><path d="M35.556 52.223a1.111 1.111 0 110 2.222 1.111 1.111 0 010-2.222z" fill="#2A2827"/><path d="M37.78 52.223a1.111 1.111 0 110 2.222 1.111 1.111 0 010-2.222z" fill="#2A2827"/><path d="M40.002 52.223a1.111 1.111 0 110 2.222 1.111 1.111 0 010-2.222zm6.666 0a1.111 1.111 0 110 2.222 1.111 1.111 0 010-2.222z" fill="#2A2827"/><path d="M48.89 52.223a1.111 1.111 0 110 2.222 1.111 1.111 0 010-2.222zm4.444 0a1.111 1.111 0 110 2.222 1.111 1.111 0 010-2.222zm13.334 0a1.111 1.111 0 110 2.222 1.111 1.111 0 010-2.222z" fill="#2A2827"/><path d="M68.89 52.223a1.111 1.111 0 110 2.222 1.111 1.111 0 010-2.222zm4.444 0a1.111 1.111 0 110 2.222 1.111 1.111 0 010-2.222zm8.888 0a1.111 1.111 0 110 2.222 1.111 1.111 0 010-2.222z" fill="#2A2827"/><path d="M84.445 52.223a1.111 1.111 0 110 2.222 1.111 1.111 0 010-2.222zm6.666 0a1.111 1.111 0 110 2.222 1.111 1.111 0 010-2.222z" fill="#2A2827"/><path d="M93.334 52.223a1.111 1.111 0 110 2.222 1.111 1.111 0 010-2.222z" fill="#2A2827"/><path d="M95.556 52.223a1.111 1.111 0 110 2.222 1.111 1.111 0 010-2.222zm8.889 0a1.11 1.11 0 110 2.221 1.11 1.11 0 010-2.221zm-88.889 2.222a1.111 1.111 0 110 2.222 1.111 1.111 0 010-2.222z" fill="#2A2827"/><path d="M17.78 54.445a1.111 1.111 0 110 2.222 1.111 1.111 0 010-2.222zm4.442 0a1.111 1.111 0 110 2.223 1.111 1.111 0 010-2.223z" fill="#2A2827"/><path d="M24.445 54.445a1.111 1.111 0 110 2.223 1.111 1.111 0 010-2.223zm4.445 0a1.111 1.111 0 110 2.222 1.111 1.111 0 010-2.222z" fill="#2A2827"/><path d="M31.111 54.445a1.111 1.111 0 110 2.222 1.111 1.111 0 010-2.222z" fill="#2A2827"/><path d="M33.334 54.445a1.111 1.111 0 110 2.223 1.111 1.111 0 010-2.223z" fill="#2A2827"/><path d="M35.556 54.445a1.111 1.111 0 110 2.222 1.111 1.111 0 010-2.222z" fill="#2A2827"/><path d="M37.78 54.445a1.111 1.111 0 110 2.222 1.111 1.111 0 010-2.222z" fill="#2A2827"/><path d="M40.002 54.445a1.111 1.111 0 110 2.222 1.111 1.111 0 010-2.222z" fill="#2A2827"/><path d="M42.222 54.445a1.111 1.111 0 110 2.223 1.111 1.111 0 010-2.223zm4.445 0a1.111 1.111 0 110 2.222 1.111 1.111 0 010-2.222z" fill="#2A2827"/><path d="M48.89 54.445a1.111 1.111 0 110 2.222 1.111 1.111 0 010-2.222z" fill="#2A2827"/><path d="M51.111 54.445a1.111 1.111 0 110 2.222 1.111 1.111 0 010-2.222z" fill="#2A2827"/><path d="M53.334 54.445a1.111 1.111 0 110 2.223 1.111 1.111 0 010-2.223z" fill="#2A2827"/><path d="M55.556 54.445a1.111 1.111 0 110 2.222 1.111 1.111 0 010-2.222z" fill="#2A2827"/><path d="M57.78 54.445a1.111 1.111 0 110 2.222 1.111 1.111 0 010-2.222zm4.442 0a1.111 1.111 0 110 2.223 1.111 1.111 0 010-2.223zm4.446 0a1.111 1.111 0 110 2.222 1.111 1.111 0 010-2.222z" fill="#2A2827"/><path d="M68.89 54.445a1.111 1.111 0 110 2.222 1.111 1.111 0 010-2.222z" fill="#2A2827"/><path d="M71.111 54.445a1.111 1.111 0 110 2.222 1.111 1.111 0 010-2.222zm4.445 0a1.111 1.111 0 110 2.222 1.111 1.111 0 010-2.222zm6.666 0a1.111 1.111 0 110 2.223 1.111 1.111 0 010-2.223zm4.446 0a1.111 1.111 0 110 2.222 1.111 1.111 0 010-2.222z" fill="#2A2827"/><path d="M88.89 54.445a1.111 1.111 0 110 2.222 1.111 1.111 0 010-2.222zm6.666 0a1.111 1.111 0 110 2.222 1.111 1.111 0 010-2.222zm4.446 0a1.111 1.111 0 110 2.223 1.111 1.111 0 010-2.223zm-75.557 2.223a1.111 1.111 0 110 2.222 1.111 1.111 0 010-2.222zm15.557 0a1.111 1.111 0 110 2.222 1.111 1.111 0 010-2.222z" fill="#2A2827"/><path d="M42.222 56.668a1.111 1.111 0 110 2.222 1.111 1.111 0 010-2.222z" fill="#2A2827"/><path d="M44.445 56.668a1.111 1.111 0 110 2.222 1.111 1.111 0 010-2.222zm4.445 0a1.111 1.111 0 110 2.222 1.111 1.111 0 010-2.222zm4.444 0a1.111 1.111 0 110 2.222 1.111 1.111 0 010-2.222zm4.446 0a1.111 1.111 0 110 2.222 1.111 1.111 0 010-2.222z" fill="#2A2827"/><path d="M60.002 56.668a1.111 1.111 0 110 2.222 1.111 1.111 0 010-2.222zm4.443 0a1.111 1.111 0 110 2.222 1.111 1.111 0 010-2.222zm11.111 0a1.111 1.111 0 110 2.222 1.111 1.111 0 010-2.222z" fill="#2A2827"/><path d="M77.78 56.668a1.111 1.111 0 110 2.222 1.111 1.111 0 010-2.222zm13.331 0a1.111 1.111 0 110 2.222 1.111 1.111 0 010-2.222zm4.445 0a1.111 1.111 0 110 2.222 1.111 1.111 0 010-2.222z" fill="#2A2827"/><path d="M97.78 56.668a1.111 1.111 0 110 2.222 1.111 1.111 0 010-2.222zm4.442 0a1.112 1.112 0 110 2.223 1.112 1.112 0 010-2.223zm-82.22 2.222a1.111 1.111 0 110 2.223 1.111 1.111 0 010-2.222zm4.443 0a1.111 1.111 0 110 2.223 1.111 1.111 0 010-2.222z" fill="#2A2827"/><path d="M26.668 58.89a1.111 1.111 0 110 2.223 1.111 1.111 0 010-2.222z" fill="#2A2827"/><path d="M28.89 58.89a1.111 1.111 0 110 2.223 1.111 1.111 0 010-2.222zm4.444 0a1.111 1.111 0 110 2.223 1.111 1.111 0 010-2.222z" fill="#2A2827"/><path d="M35.556 58.89a1.111 1.111 0 110 2.223 1.111 1.111 0 010-2.222z" fill="#2A2827"/><path d="M37.78 58.89a1.111 1.111 0 110 2.223 1.111 1.111 0 010-2.222zm4.442 0a1.111 1.111 0 110 2.223 1.111 1.111 0 010-2.222z" fill="#2A2827"/><path d="M44.445 58.89a1.111 1.111 0 110 2.223 1.111 1.111 0 010-2.222z" fill="#2A2827"/><path d="M46.668 58.89a1.111 1.111 0 110 2.223 1.111 1.111 0 010-2.222zm4.443 0a1.111 1.111 0 110 2.223 1.111 1.111 0 010-2.222z" fill="#2A2827"/><path d="M53.334 58.89a1.111 1.111 0 110 2.223 1.111 1.111 0 010-2.222zm15.556 0a1.111 1.111 0 110 2.223 1.111 1.111 0 010-2.222z" fill="#2A2827"/><path d="M71.111 58.89a1.111 1.111 0 110 2.223 1.111 1.111 0 010-2.222zm4.445 0a1.111 1.111 0 110 2.223 1.111 1.111 0 010-2.222z" fill="#2A2827"/><path d="M77.78 58.89a1.111 1.111 0 110 2.223 1.111 1.111 0 010-2.222zm4.442 0a1.111 1.111 0 110 2.223 1.111 1.111 0 010-2.222z" fill="#2A2827"/><path d="M84.445 58.89a1.111 1.111 0 110 2.223 1.111 1.111 0 010-2.222zm8.889 0a1.111 1.111 0 110 2.223 1.111 1.111 0 010-2.222zm4.446 0a1.111 1.111 0 110 2.223 1.111 1.111 0 010-2.222z" fill="#2A2827"/><path d="M100.002 58.89a1.111 1.111 0 110 2.224 1.111 1.111 0 010-2.223z" fill="#2A2827"/><path d="M102.222 58.89a1.112 1.112 0 110 2.224 1.112 1.112 0 010-2.223zm-82.22 2.221a1.111 1.111 0 110 2.222 1.111 1.111 0 010-2.222z" fill="#2A2827"/><path d="M22.222 61.111a1.111 1.111 0 110 2.223 1.111 1.111 0 010-2.223z" fill="#2A2827"/><path d="M24.445 61.111a1.111 1.111 0 110 2.222 1.111 1.111 0 010-2.222z" fill="#2A2827"/><path d="M26.668 61.111a1.111 1.111 0 110 2.223 1.111 1.111 0 010-2.223zm4.443 0a1.111 1.111 0 110 2.222 1.111 1.111 0 010-2.222z" fill="#2A2827"/><path d="M33.334 61.111a1.111 1.111 0 110 2.223 1.111 1.111 0 010-2.223z" fill="#2A2827"/><path d="M35.556 61.111a1.111 1.111 0 110 2.222 1.111 1.111 0 010-2.222zm8.889 0a1.111 1.111 0 110 2.222 1.111 1.111 0 010-2.222z" fill="#2A2827"/><path d="M46.668 61.111a1.111 1.111 0 110 2.223 1.111 1.111 0 010-2.223zm4.443 0a1.111 1.111 0 110 2.222 1.111 1.111 0 010-2.222z" fill="#2A2827"/><path d="M53.334 61.111a1.111 1.111 0 110 2.223 1.111 1.111 0 010-2.223zm8.888 0a1.111 1.111 0 110 2.223 1.111 1.111 0 010-2.223zm4.446 0a1.111 1.111 0 110 2.223 1.111 1.111 0 010-2.223zm11.112 0a1.111 1.111 0 110 2.222 1.111 1.111 0 010-2.222zm6.665 0a1.111 1.111 0 110 2.222 1.111 1.111 0 010-2.222zm4.445 0a1.111 1.111 0 110 2.222 1.111 1.111 0 010-2.222z" fill="#2A2827"/><path d="M91.111 61.111a1.111 1.111 0 110 2.222 1.111 1.111 0 010-2.222zm4.445 0a1.111 1.111 0 110 2.222 1.111 1.111 0 010-2.222zm6.666 0a1.112 1.112 0 110 2.224 1.112 1.112 0 010-2.224z" fill="#2A2827"/><path d="M104.445 61.111a1.11 1.11 0 110 2.222 1.11 1.11 0 010-2.222zM17.78 63.334a1.111 1.111 0 110 2.222 1.111 1.111 0 010-2.222zm11.11 0a1.111 1.111 0 110 2.222 1.111 1.111 0 010-2.222z" fill="#2A2827"/><path d="M31.111 63.334a1.111 1.111 0 110 2.222 1.111 1.111 0 010-2.222zm4.445 0a1.111 1.111 0 110 2.222 1.111 1.111 0 010-2.222zm8.889 0a1.111 1.111 0 110 2.222 1.111 1.111 0 010-2.222zm4.445 0a1.111 1.111 0 110 2.222 1.111 1.111 0 010-2.222zm4.444 0a1.111 1.111 0 110 2.222 1.111 1.111 0 010-2.222zm6.668 0a1.111 1.111 0 110 2.222 1.111 1.111 0 010-2.222z" fill="#2A2827"/><path d="M62.222 63.334a1.111 1.111 0 110 2.222 1.111 1.111 0 010-2.222z" fill="#2A2827"/><path d="M64.445 63.334a1.111 1.111 0 110 2.222 1.111 1.111 0 010-2.222z" fill="#2A2827"/><path d="M66.668 63.334a1.111 1.111 0 110 2.222 1.111 1.111 0 010-2.222zm4.443 0a1.111 1.111 0 110 2.222 1.111 1.111 0 010-2.222z" fill="#2A2827"/><path d="M73.334 63.334a1.111 1.111 0 110 2.222 1.111 1.111 0 010-2.222z" fill="#2A2827"/><path d="M75.556 63.334a1.111 1.111 0 110 2.222 1.111 1.111 0 010-2.222z" fill="#2A2827"/><path d="M77.78 63.334a1.111 1.111 0 110 2.222 1.111 1.111 0 010-2.222zm4.442 0a1.111 1.111 0 110 2.222 1.111 1.111 0 010-2.222zm4.446 0a1.111 1.111 0 110 2.222 1.111 1.111 0 010-2.222zm4.443 0a1.111 1.111 0 110 2.222 1.111 1.111 0 010-2.222z" fill="#2A2827"/><path d="M93.334 63.334a1.111 1.111 0 110 2.222 1.111 1.111 0 010-2.222zm4.446 0a1.111 1.111 0 110 2.222 1.111 1.111 0 010-2.222z" fill="#2A2827"/><path d="M100.002 63.334a1.111 1.111 0 110 2.223 1.111 1.111 0 010-2.223zM17.78 65.557a1.111 1.111 0 110 2.222 1.111 1.111 0 010-2.222z" fill="#2A2827"/><path d="M20.002 65.557a1.111 1.111 0 110 2.222 1.111 1.111 0 010-2.222z" fill="#2A2827"/><path d="M22.222 65.557a1.111 1.111 0 110 2.222 1.111 1.111 0 010-2.222z" fill="#2A2827"/><path d="M24.445 65.557a1.111 1.111 0 110 2.222 1.111 1.111 0 010-2.222z" fill="#2A2827"/><path d="M26.668 65.557a1.111 1.111 0 110 2.222 1.111 1.111 0 010-2.222zm6.666 0a1.111 1.111 0 110 2.222 1.111 1.111 0 010-2.222z" fill="#2A2827"/><path d="M35.556 65.557a1.111 1.111 0 110 2.222 1.111 1.111 0 010-2.222z" fill="#2A2827"/><path d="M37.78 65.557a1.111 1.111 0 110 2.222 1.111 1.111 0 010-2.222zm4.442 0a1.111 1.111 0 110 2.222 1.111 1.111 0 010-2.222z" fill="#2A2827"/><path d="M44.445 65.557a1.111 1.111 0 110 2.222 1.111 1.111 0 010-2.222z" fill="#2A2827"/><path d="M46.667 65.557a1.111 1.111 0 110 2.222 1.111 1.111 0 010-2.222z" fill="#2A2827"/><path d="M48.89 65.557a1.111 1.111 0 110 2.222 1.111 1.111 0 010-2.222z" fill="#2A2827"/><path d="M51.111 65.557a1.111 1.111 0 110 2.222 1.111 1.111 0 010-2.222zm6.669 0a1.111 1.111 0 110 2.222 1.111 1.111 0 010-2.222z" fill="#2A2827"/><path d="M60.002 65.557a1.111 1.111 0 110 2.222 1.111 1.111 0 010-2.222zm4.443 0a1.111 1.111 0 110 2.222 1.111 1.111 0 010-2.222z" fill="#2A2827"/><path d="M66.668 65.557a1.111 1.111 0 110 2.222 1.111 1.111 0 010-2.222zm6.666 0a1.111 1.111 0 110 2.222 1.111 1.111 0 010-2.222z" fill="#2A2827"/><path d="M75.556 65.557a1.111 1.111 0 110 2.222 1.111 1.111 0 010-2.222zm6.666 0a1.111 1.111 0 110 2.222 1.111 1.111 0 010-2.222zm4.446 0a1.111 1.111 0 110 2.222 1.111 1.111 0 010-2.222zm6.666 0a1.111 1.111 0 110 2.222 1.111 1.111 0 010-2.222z" fill="#2A2827"/><path d="M95.556 65.557a1.111 1.111 0 110 2.222 1.111 1.111 0 010-2.222zm6.666 0a1.112 1.112 0 110 2.223 1.112 1.112 0 010-2.223z" fill="#2A2827"/><path d="M104.445 65.557a1.11 1.11 0 110 2.221 1.11 1.11 0 010-2.221zM17.78 67.78a1.111 1.111 0 110 2.221 1.111 1.111 0 010-2.222z" fill="#2A2827"/><path d="M20.002 67.78a1.111 1.111 0 110 2.221 1.111 1.111 0 010-2.222z" fill="#2A2827"/><path d="M22.222 67.78a1.111 1.111 0 110 2.222 1.111 1.111 0 010-2.223z" fill="#2A2827"/><path d="M24.445 67.78a1.111 1.111 0 110 2.221 1.111 1.111 0 010-2.222zm4.445 0a1.111 1.111 0 110 2.221 1.111 1.111 0 010-2.222z" fill="#2A2827"/><path d="M31.111 67.78a1.111 1.111 0 110 2.221 1.111 1.111 0 010-2.222z" fill="#2A2827"/><path d="M33.334 67.78a1.111 1.111 0 110 2.222 1.111 1.111 0 010-2.223z" fill="#2A2827"/><path d="M35.556 67.78a1.111 1.111 0 110 2.221 1.111 1.111 0 010-2.222z" fill="#2A2827"/><path d="M37.78 67.78a1.111 1.111 0 110 2.221 1.111 1.111 0 010-2.222z" fill="#2A2827"/><path d="M40.002 67.78a1.111 1.111 0 110 2.221 1.111 1.111 0 010-2.222z" fill="#2A2827"/><path d="M42.222 67.78a1.111 1.111 0 110 2.222 1.111 1.111 0 010-2.223zm4.446 0a1.111 1.111 0 110 2.222 1.111 1.111 0 010-2.223zm4.443 0a1.111 1.111 0 110 2.221 1.111 1.111 0 010-2.222zm4.445 0a1.111 1.111 0 110 2.221 1.111 1.111 0 010-2.222z" fill="#2A2827"/><path d="M57.78 67.78a1.111 1.111 0 110 2.221 1.111 1.111 0 010-2.222zm4.442 0a1.111 1.111 0 110 2.222 1.111 1.111 0 010-2.223zm6.668 0a1.111 1.111 0 110 2.221 1.111 1.111 0 010-2.222z" fill="#2A2827"/><path d="M71.111 67.78a1.111 1.111 0 110 2.221 1.111 1.111 0 010-2.222zm4.445 0a1.111 1.111 0 110 2.221 1.111 1.111 0 010-2.222zm4.446 0a1.111 1.111 0 110 2.221 1.111 1.111 0 010-2.222zm4.443 0a1.111 1.111 0 110 2.221 1.111 1.111 0 010-2.222zm13.335 0a1.111 1.111 0 110 2.221 1.111 1.111 0 010-2.222z" fill="#2A2827"/><path d="M100.002 67.78a1.111 1.111 0 110 2.222 1.111 1.111 0 010-2.223z" fill="#2A2827"/><path d="M102.222 67.78a1.112 1.112 0 110 2.223 1.112 1.112 0 010-2.224zM20.002 70a1.111 1.111 0 110 2.222 1.111 1.111 0 010-2.222z" fill="#2A2827"/><path d="M22.222 70a1.111 1.111 0 110 2.222 1.111 1.111 0 010-2.222zm4.446 0a1.111 1.111 0 110 2.222 1.111 1.111 0 010-2.222zm4.443 0a1.111 1.111 0 110 2.222 1.111 1.111 0 010-2.222z" fill="#2A2827"/><path d="M33.334 70a1.111 1.111 0 110 2.222 1.111 1.111 0 010-2.222zm4.446 0a1.111 1.111 0 110 2.222 1.111 1.111 0 010-2.222zm6.665 0a1.111 1.111 0 110 2.222 1.111 1.111 0 010-2.222zm4.445 0a1.111 1.111 0 110 2.222 1.111 1.111 0 010-2.222zm17.778 0a1.111 1.111 0 110 2.222 1.111 1.111 0 010-2.222z" fill="#2A2827"/><path d="M68.89 70a1.111 1.111 0 110 2.222 1.111 1.111 0 010-2.222zm4.444 0a1.111 1.111 0 110 2.222 1.111 1.111 0 010-2.222zm11.111 0a1.111 1.111 0 110 2.222 1.111 1.111 0 010-2.222zm4.445 0a1.111 1.111 0 110 2.222 1.111 1.111 0 010-2.222z" fill="#2A2827"/><path d="M91.111 70a1.111 1.111 0 110 2.222 1.111 1.111 0 010-2.222z" fill="#2A2827"/><path d="M93.334 70a1.111 1.111 0 110 2.222 1.111 1.111 0 010-2.222z" fill="#2A2827"/><path d="M95.556 70a1.111 1.111 0 110 2.222 1.111 1.111 0 010-2.222z" fill="#2A2827"/><path d="M97.78 70a1.111 1.111 0 110 2.222 1.111 1.111 0 010-2.222zm6.665 0a1.11 1.11 0 110 2.222 1.11 1.11 0 010-2.222zm-88.889 2.223a1.111 1.111 0 110 2.222 1.111 1.111 0 010-2.222z" fill="#2A2827"/><path d="M17.78 72.223a1.111 1.111 0 110 2.222 1.111 1.111 0 010-2.222zm4.442 0a1.111 1.111 0 110 2.222 1.111 1.111 0 010-2.222z" fill="#2A2827"/><path d="M24.445 72.223a1.111 1.111 0 110 2.222 1.111 1.111 0 010-2.222z" fill="#2A2827"/><path d="M26.668 72.223a1.111 1.111 0 110 2.222 1.111 1.111 0 010-2.222z" fill="#2A2827"/><path d="M28.89 72.223a1.111 1.111 0 110 2.222 1.111 1.111 0 010-2.222zm4.444 0a1.111 1.111 0 110 2.222 1.111 1.111 0 010-2.222zm6.668 0a1.111 1.111 0 110 2.222 1.111 1.111 0 010-2.222z" fill="#2A2827"/><path d="M42.222 72.223a1.111 1.111 0 110 2.222 1.111 1.111 0 010-2.222z" fill="#2A2827"/><path d="M44.445 72.223a1.111 1.111 0 110 2.222 1.111 1.111 0 010-2.222zm6.666 0a1.111 1.111 0 110 2.222 1.111 1.111 0 010-2.222z" fill="#2A2827"/><path d="M53.334 72.223a1.111 1.111 0 110 2.222 1.111 1.111 0 010-2.222z" fill="#2A2827"/><path d="M55.556 72.223a1.111 1.111 0 110 2.222 1.111 1.111 0 010-2.222zm4.446 0a1.111 1.111 0 110 2.222 1.111 1.111 0 010-2.222zm6.666 0a1.111 1.111 0 110 2.222 1.111 1.111 0 010-2.222z" fill="#2A2827"/><path d="M68.89 72.223a1.111 1.111 0 110 2.222 1.111 1.111 0 010-2.222zm6.666 0a1.111 1.111 0 110 2.222 1.111 1.111 0 010-2.222z" fill="#2A2827"/><path d="M77.78 72.223a1.111 1.111 0 110 2.222 1.111 1.111 0 010-2.222z" fill="#2A2827"/><path d="M80.002 72.223a1.111 1.111 0 110 2.222 1.111 1.111 0 010-2.222z" fill="#2A2827"/><path d="M82.222 72.223a1.111 1.111 0 110 2.222 1.111 1.111 0 010-2.222zm4.446 0a1.111 1.111 0 110 2.222 1.111 1.111 0 010-2.222z" fill="#2A2827"/><path d="M88.89 72.223a1.111 1.111 0 110 2.222 1.111 1.111 0 010-2.222zm4.444 0a1.111 1.111 0 110 2.222 1.111 1.111 0 010-2.222z" fill="#2A2827"/><path d="M95.556 72.223a1.111 1.111 0 110 2.222 1.111 1.111 0 010-2.222zm6.666 0a1.112 1.112 0 110 2.223 1.112 1.112 0 010-2.223zm-86.666 2.222a1.111 1.111 0 110 2.222 1.111 1.111 0 010-2.222z" fill="#2A2827"/><path d="M17.78 74.445a1.111 1.111 0 110 2.222 1.111 1.111 0 010-2.222zm15.554 0a1.111 1.111 0 110 2.223 1.111 1.111 0 010-2.223z" fill="#2A2827"/><path d="M35.556 74.445a1.111 1.111 0 110 2.222 1.111 1.111 0 010-2.222zm4.446 0a1.111 1.111 0 110 2.222 1.111 1.111 0 010-2.222zm6.665 0a1.111 1.111 0 110 2.222 1.111 1.111 0 010-2.222zm4.444 0a1.111 1.111 0 110 2.222 1.111 1.111 0 010-2.222zm11.111 0a1.111 1.111 0 110 2.223 1.111 1.111 0 010-2.223zm11.112 0a1.111 1.111 0 110 2.223 1.111 1.111 0 010-2.223zm11.111 0a1.111 1.111 0 110 2.223 1.111 1.111 0 010-2.223z" fill="#2A2827"/><path d="M86.668 74.445a1.111 1.111 0 110 2.222 1.111 1.111 0 010-2.222z" fill="#2A2827"/><path d="M88.89 74.445a1.111 1.111 0 110 2.222 1.111 1.111 0 010-2.222zm6.666 0a1.111 1.111 0 110 2.222 1.111 1.111 0 010-2.222z" fill="#2A2827"/><path d="M97.78 74.445a1.111 1.111 0 110 2.222 1.111 1.111 0 010-2.222zm4.442 0a1.112 1.112 0 110 2.224 1.112 1.112 0 010-2.224zm-80 2.223a1.111 1.111 0 110 2.222 1.111 1.111 0 010-2.222zm6.668 0a1.111 1.111 0 110 2.222 1.111 1.111 0 010-2.222z" fill="#2A2827"/><path d="M31.111 76.668a1.111 1.111 0 110 2.222 1.111 1.111 0 010-2.222z" fill="#2A2827"/><path d="M33.334 76.668a1.111 1.111 0 110 2.222 1.111 1.111 0 010-2.222z" fill="#2A2827"/><path d="M35.556 76.668a1.111 1.111 0 110 2.222 1.111 1.111 0 010-2.222z" fill="#2A2827"/><path d="M37.78 76.668a1.111 1.111 0 110 2.222 1.111 1.111 0 010-2.222z" fill="#2A2827"/><path d="M40.002 76.668a1.111 1.111 0 110 2.222 1.111 1.111 0 010-2.222z" fill="#2A2827"/><path d="M42.222 76.668a1.111 1.111 0 110 2.222 1.111 1.111 0 010-2.222z" fill="#2A2827"/><path d="M44.445 76.668a1.111 1.111 0 110 2.222 1.111 1.111 0 010-2.222z" fill="#2A2827"/><path d="M46.668 76.668a1.111 1.111 0 110 2.222 1.111 1.111 0 010-2.222zm4.443 0a1.111 1.111 0 110 2.222 1.111 1.111 0 010-2.222zm4.445 0a1.111 1.111 0 110 2.222 1.111 1.111 0 010-2.222zm6.666 0a1.111 1.111 0 110 2.222 1.111 1.111 0 010-2.222zm4.446 0a1.111 1.111 0 110 2.222 1.111 1.111 0 010-2.222zm6.666 0a1.111 1.111 0 110 2.222 1.111 1.111 0 010-2.222z" fill="#2A2827"/><path d="M75.556 76.668a1.111 1.111 0 110 2.222 1.111 1.111 0 010-2.222z" fill="#2A2827"/><path d="M77.78 76.668a1.111 1.111 0 110 2.222 1.111 1.111 0 010-2.222z" fill="#2A2827"/><path d="M80.002 76.668a1.111 1.111 0 110 2.222 1.111 1.111 0 010-2.222z" fill="#2A2827"/><path d="M82.222 76.668a1.111 1.111 0 110 2.222 1.111 1.111 0 010-2.222z" fill="#2A2827"/><path d="M84.445 76.668a1.111 1.111 0 110 2.222 1.111 1.111 0 010-2.222zm4.445 0a1.111 1.111 0 110 2.222 1.111 1.111 0 010-2.222zm8.89 0a1.111 1.111 0 110 2.222 1.111 1.111 0 010-2.222z" fill="#2A2827"/><path d="M100.002 76.668a1.111 1.111 0 110 2.223 1.111 1.111 0 010-2.223z" fill="#2A2827"/><path d="M102.222 76.668a1.112 1.112 0 110 2.223 1.112 1.112 0 010-2.223z" fill="#2A2827"/><path d="M104.445 76.668a1.11 1.11 0 110 2.222 1.11 1.11 0 010-2.222zM15.556 78.89a1.111 1.111 0 110 2.223 1.111 1.111 0 010-2.222z" fill="#2A2827"/><path d="M17.78 78.89a1.111 1.111 0 110 2.223 1.111 1.111 0 010-2.222zm15.554 0a1.111 1.111 0 110 2.223 1.111 1.111 0 010-2.222zm8.888 0a1.111 1.111 0 110 2.223 1.111 1.111 0 010-2.222zm4.446 0a1.111 1.111 0 110 2.223 1.111 1.111 0 010-2.222z" fill="#2A2827"/><path d="M48.89 78.89a1.111 1.111 0 110 2.223 1.111 1.111 0 010-2.222z" fill="#2A2827"/><path d="M51.111 78.89a1.111 1.111 0 110 2.223 1.111 1.111 0 010-2.222z" fill="#2A2827"/><path d="M53.334 78.89a1.111 1.111 0 110 2.223 1.111 1.111 0 010-2.222z" fill="#2A2827"/><path d="M55.556 78.89a1.111 1.111 0 110 2.223 1.111 1.111 0 010-2.222z" fill="#2A2827"/><path d="M57.78 78.89a1.111 1.111 0 110 2.223 1.111 1.111 0 010-2.222zm4.442 0a1.111 1.111 0 110 2.223 1.111 1.111 0 010-2.222z" fill="#2A2827"/><path d="M64.445 78.89a1.111 1.111 0 110 2.223 1.111 1.111 0 010-2.222z" fill="#2A2827"/><path d="M66.668 78.89a1.111 1.111 0 110 2.223 1.111 1.111 0 010-2.222z" fill="#2A2827"/><path d="M68.89 78.89a1.111 1.111 0 110 2.223 1.111 1.111 0 010-2.222z" fill="#2A2827"/><path d="M71.111 78.89a1.111 1.111 0 110 2.223 1.111 1.111 0 010-2.222zm4.445 0a1.111 1.111 0 110 2.223 1.111 1.111 0 010-2.222zm6.666 0a1.111 1.111 0 110 2.223 1.111 1.111 0 010-2.222zm4.446 0a1.111 1.111 0 110 2.223 1.111 1.111 0 010-2.222z" fill="#2A2827"/><path d="M88.89 78.89a1.111 1.111 0 110 2.223 1.111 1.111 0 010-2.222zm6.666 0a1.111 1.111 0 110 2.223 1.111 1.111 0 010-2.222z" fill="#2A2827"/><path d="M97.78 78.89a1.111 1.111 0 110 2.223 1.111 1.111 0 010-2.222z" fill="#2A2827"/><path d="M100.002 78.89a1.111 1.111 0 110 2.224 1.111 1.111 0 010-2.223z" fill="#2A2827"/><path d="M102.222 78.89a1.112 1.112 0 110 2.224 1.112 1.112 0 010-2.223z" fill="#2A2827"/><path d="M104.445 78.89a1.11 1.11 0 110 2.222 1.11 1.11 0 010-2.221zm-88.889 2.221a1.111 1.111 0 110 2.222 1.111 1.111 0 010-2.222zm4.446 0a1.111 1.111 0 110 2.222 1.111 1.111 0 010-2.222zm4.443 0a1.111 1.111 0 110 2.222 1.111 1.111 0 010-2.222z" fill="#2A2827"/><path d="M26.668 81.111a1.111 1.111 0 110 2.223 1.111 1.111 0 010-2.223z" fill="#2A2827"/><path d="M28.89 81.111a1.111 1.111 0 110 2.222 1.111 1.111 0 010-2.222z" fill="#2A2827"/><path d="M31.111 81.111a1.111 1.111 0 110 2.222 1.111 1.111 0 010-2.222z" fill="#2A2827"/><path d="M33.334 81.111a1.111 1.111 0 110 2.223 1.111 1.111 0 010-2.223z" fill="#2A2827"/><path d="M35.556 81.111a1.111 1.111 0 110 2.222 1.111 1.111 0 010-2.222zm6.666 0a1.111 1.111 0 110 2.223 1.111 1.111 0 010-2.223z" fill="#2A2827"/><path d="M44.445 81.111a1.111 1.111 0 110 2.222 1.111 1.111 0 010-2.222zm11.111 0a1.111 1.111 0 110 2.222 1.111 1.111 0 010-2.222z" fill="#2A2827"/><path d="M57.78 81.111a1.111 1.111 0 110 2.222 1.111 1.111 0 010-2.222z" fill="#2A2827"/><path d="M60.002 81.111a1.111 1.111 0 110 2.222 1.111 1.111 0 010-2.222z" fill="#2A2827"/><path d="M62.222 81.111a1.111 1.111 0 110 2.223 1.111 1.111 0 010-2.223z" fill="#2A2827"/><path d="M64.445 81.111a1.111 1.111 0 110 2.222 1.111 1.111 0 010-2.222zm6.666 0a1.111 1.111 0 110 2.222 1.111 1.111 0 010-2.222zm4.445 0a1.111 1.111 0 110 2.222 1.111 1.111 0 010-2.222z" fill="#2A2827"/><path d="M77.78 81.111a1.111 1.111 0 110 2.222 1.111 1.111 0 010-2.222zm6.665 0a1.111 1.111 0 110 2.222 1.111 1.111 0 010-2.222zm4.445 0a1.111 1.111 0 110 2.222 1.111 1.111 0 010-2.222z" fill="#2A2827"/><path d="M91.111 81.111a1.111 1.111 0 110 2.222 1.111 1.111 0 010-2.222z" fill="#2A2827"/><path d="M93.334 81.111a1.111 1.111 0 110 2.223 1.111 1.111 0 010-2.223z" fill="#2A2827"/><path d="M95.556 81.111a1.111 1.111 0 110 2.222 1.111 1.111 0 010-2.222zm6.666 0a1.112 1.112 0 110 2.224 1.112 1.112 0 010-2.224zm-86.666 2.223a1.111 1.111 0 110 2.222 1.111 1.111 0 010-2.222zm24.446 0a1.111 1.111 0 110 2.222 1.111 1.111 0 010-2.222zm6.665 0a1.111 1.111 0 110 2.222 1.111 1.111 0 010-2.222zm4.444 0a1.111 1.111 0 110 2.222 1.111 1.111 0 010-2.222z" fill="#2A2827"/><path d="M53.334 83.334a1.111 1.111 0 110 2.222 1.111 1.111 0 010-2.222zm4.446 0a1.111 1.111 0 110 2.222 1.111 1.111 0 010-2.222z" fill="#2A2827"/><path d="M60.002 83.334a1.111 1.111 0 110 2.222 1.111 1.111 0 010-2.222zm6.666 0a1.111 1.111 0 110 2.222 1.111 1.111 0 010-2.222zm4.443 0a1.111 1.111 0 110 2.222 1.111 1.111 0 010-2.222zm4.445 0a1.111 1.111 0 110 2.222 1.111 1.111 0 010-2.222zm6.666 0a1.111 1.111 0 110 2.222 1.111 1.111 0 010-2.222z" fill="#2A2827"/><path d="M84.445 83.334a1.111 1.111 0 110 2.222 1.111 1.111 0 010-2.222z" fill="#2A2827"/><path d="M86.668 83.334a1.111 1.111 0 110 2.222 1.111 1.111 0 010-2.222z" fill="#2A2827"/><path d="M88.89 83.334a1.111 1.111 0 110 2.222 1.111 1.111 0 010-2.222z" fill="#2A2827"/><path d="M91.111 83.334a1.111 1.111 0 110 2.222 1.111 1.111 0 010-2.222z" fill="#2A2827"/><path d="M93.334 83.334a1.111 1.111 0 110 2.222 1.111 1.111 0 010-2.222z" fill="#2A2827"/><path d="M95.556 83.334a1.111 1.111 0 110 2.222 1.111 1.111 0 010-2.222z" fill="#2A2827"/><path d="M97.78 83.334a1.111 1.111 0 110 2.222 1.111 1.111 0 010-2.222zm4.442 0a1.112 1.112 0 110 2.223 1.112 1.112 0 010-2.223zm-86.666 2.223a1.111 1.111 0 110 2.222 1.111 1.111 0 010-2.222zm4.446 0a1.111 1.111 0 110 2.222 1.111 1.111 0 010-2.222zm8.888 0a1.111 1.111 0 110 2.222 1.111 1.111 0 010-2.222zm6.666 0a1.111 1.111 0 110 2.222 1.111 1.111 0 010-2.222z" fill="#2A2827"/><path d="M37.78 85.557a1.111 1.111 0 110 2.222 1.111 1.111 0 010-2.222zm6.665 0a1.111 1.111 0 110 2.222 1.111 1.111 0 010-2.222zm6.666 0a1.111 1.111 0 110 2.222 1.111 1.111 0 010-2.222zm4.445 0a1.111 1.111 0 110 2.222 1.111 1.111 0 010-2.222z" fill="#2A2827"/><path d="M57.78 85.557a1.111 1.111 0 110 2.222 1.111 1.111 0 010-2.222z" fill="#2A2827"/><path d="M60.002 85.557a1.111 1.111 0 110 2.222 1.111 1.111 0 010-2.222z" fill="#2A2827"/><path d="M62.222 85.557a1.111 1.111 0 110 2.222 1.111 1.111 0 010-2.222z" fill="#2A2827"/><path d="M64.445 85.557a1.111 1.111 0 110 2.222 1.111 1.111 0 010-2.222zm4.445 0a1.111 1.111 0 110 2.222 1.111 1.111 0 010-2.222zm4.444 0a1.111 1.111 0 110 2.222 1.111 1.111 0 010-2.222z" fill="#2A2827"/><path d="M75.556 85.557a1.111 1.111 0 110 2.222 1.111 1.111 0 010-2.222z" fill="#2A2827"/><path d="M77.78 85.557a1.111 1.111 0 110 2.222 1.111 1.111 0 010-2.222z" fill="#2A2827"/><path d="M80.002 85.557a1.111 1.111 0 110 2.222 1.111 1.111 0 010-2.222z" fill="#2A2827"/><path d="M82.222 85.557a1.111 1.111 0 110 2.222 1.111 1.111 0 010-2.222z" fill="#2A2827"/><path d="M84.445 85.557a1.111 1.111 0 110 2.222 1.111 1.111 0 010-2.222z" fill="#2A2827"/><path d="M86.668 85.557a1.111 1.111 0 110 2.222 1.111 1.111 0 010-2.222z" fill="#2A2827"/><path d="M88.89 85.557a1.111 1.111 0 110 2.222 1.111 1.111 0 010-2.222z" fill="#2A2827"/><path d="M91.111 85.557a1.111 1.111 0 110 2.222 1.111 1.111 0 010-2.222z" fill="#2A2827"/><path d="M93.334 85.557a1.111 1.111 0 110 2.222 1.111 1.111 0 010-2.222z" fill="#2A2827"/><path d="M95.556 85.557a1.111 1.111 0 110 2.222 1.111 1.111 0 010-2.222zm4.446 0a1.111 1.111 0 11-.001 2.223 1.111 1.111 0 01.001-2.223z" fill="#2A2827"/><path d="M102.222 85.557a1.112 1.112 0 110 2.223 1.112 1.112 0 010-2.223zM33.334 87.78a1.111 1.111 0 110 2.222 1.111 1.111 0 010-2.223z" fill="#2A2827"/><path d="M35.556 87.78a1.111 1.111 0 110 2.221 1.111 1.111 0 010-2.222z" fill="#2A2827"/><path d="M37.78 87.78a1.111 1.111 0 110 2.221 1.111 1.111 0 010-2.222zm4.442 0a1.111 1.111 0 110 2.222 1.111 1.111 0 010-2.223zm8.889 0a1.111 1.111 0 110 2.221 1.111 1.111 0 010-2.222z" fill="#2A2827"/><path d="M53.334 87.78a1.111 1.111 0 110 2.222 1.111 1.111 0 010-2.223zm8.888 0a1.111 1.111 0 110 2.222 1.111 1.111 0 010-2.223z" fill="#2A2827"/><path d="M64.445 87.78a1.111 1.111 0 110 2.221 1.111 1.111 0 010-2.222zm6.666 0a1.111 1.111 0 110 2.221 1.111 1.111 0 010-2.222z" fill="#2A2827"/><path d="M73.334 87.78a1.111 1.111 0 110 2.222 1.111 1.111 0 010-2.223zm6.668 0a1.111 1.111 0 110 2.221 1.111 1.111 0 010-2.222zm6.666 0a1.111 1.111 0 110 2.222 1.111 1.111 0 010-2.223zm8.888 0a1.111 1.111 0 110 2.221 1.111 1.111 0 010-2.222zm4.446 0a1.111 1.111 0 110 2.222 1.111 1.111 0 010-2.223zm4.443 0a1.11 1.11 0 110 2.22 1.11 1.11 0 010-2.22zM48.89 90a1.111 1.111 0 110 2.222 1.111 1.111 0 010-2.222z" fill="#2A2827"/><path d="M51.111 90a1.111 1.111 0 110 2.222 1.111 1.111 0 010-2.222z" fill="#2A2827"/><path d="M53.334 90a1.111 1.111 0 110 2.222 1.111 1.111 0 010-2.222zm4.446 0a1.111 1.111 0 110 2.222 1.111 1.111 0 010-2.222zm8.888 0a1.111 1.111 0 110 2.222 1.111 1.111 0 010-2.222zm6.666 0a1.111 1.111 0 110 2.222 1.111 1.111 0 010-2.222z" fill="#2A2827"/><path d="M75.556 90a1.111 1.111 0 110 2.222 1.111 1.111 0 010-2.222zm4.446 0a1.111 1.111 0 110 2.222 1.111 1.111 0 010-2.222zm4.443 0a1.111 1.111 0 110 2.222 1.111 1.111 0 010-2.222z" fill="#2A2827"/><path d="M86.668 90a1.111 1.111 0 110 2.222 1.111 1.111 0 010-2.222zm4.443 0a1.111 1.111 0 110 2.222 1.111 1.111 0 010-2.222zm4.445 0a1.111 1.111 0 110 2.222 1.111 1.111 0 010-2.222z" fill="#2A2827"/><path d="M97.78 90a1.111 1.111 0 110 2.222 1.111 1.111 0 010-2.222zm-51.112 2.223a1.111 1.111 0 110 2.222 1.111 1.111 0 010-2.222zm8.888 0a1.111 1.111 0 110 2.222 1.111 1.111 0 010-2.222z" fill="#2A2827"/><path d="M57.78 92.223a1.111 1.111 0 110 2.222 1.111 1.111 0 010-2.222z" fill="#2A2827"/><path d="M60.002 92.223a1.111 1.111 0 110 2.222 1.111 1.111 0 010-2.222z" fill="#2A2827"/><path d="M62.222 92.223a1.111 1.111 0 110 2.222 1.111 1.111 0 010-2.222zm4.446 0a1.111 1.111 0 110 2.222 1.111 1.111 0 010-2.222zm4.443 0a1.111 1.111 0 110 2.222 1.111 1.111 0 010-2.222z" fill="#2A2827"/><path d="M73.334 92.223a1.111 1.111 0 110 2.222 1.111 1.111 0 010-2.222zm4.446 0a1.111 1.111 0 110 2.222 1.111 1.111 0 010-2.222z" fill="#2A2827"/><path d="M80.002 92.223a1.111 1.111 0 110 2.222 1.111 1.111 0 010-2.222z" fill="#2A2827"/><path d="M82.222 92.223a1.111 1.111 0 110 2.222 1.111 1.111 0 010-2.222z" fill="#2A2827"/><path d="M84.445 92.223a1.111 1.111 0 110 2.222 1.111 1.111 0 010-2.222z" fill="#2A2827"/><path d="M86.668 92.223a1.111 1.111 0 110 2.222 1.111 1.111 0 010-2.222zm8.888 0a1.111 1.111 0 110 2.222 1.111 1.111 0 010-2.222z" fill="#2A2827"/><path d="M97.78 92.223a1.111 1.111 0 110 2.222 1.111 1.111 0 010-2.222zm-64.446 2.222a1.111 1.111 0 110 2.223 1.111 1.111 0 010-2.223z" fill="#2A2827"/><path d="M35.556 94.445a1.111 1.111 0 110 2.222 1.111 1.111 0 010-2.222zm4.446 0a1.111 1.111 0 110 2.222 1.111 1.111 0 010-2.222z" fill="#2A2827"/><path d="M42.222 94.445a1.111 1.111 0 110 2.223 1.111 1.111 0 010-2.223z" fill="#2A2827"/><path d="M44.445 94.445a1.111 1.111 0 110 2.223 1.111 1.111 0 010-2.223zm4.445 0a1.111 1.111 0 110 2.222 1.111 1.111 0 010-2.222zm6.666 0a1.111 1.111 0 110 2.222 1.111 1.111 0 010-2.222zm4.446 0a1.111 1.111 0 110 2.222 1.111 1.111 0 010-2.222z" fill="#2A2827"/><path d="M62.222 94.445a1.111 1.111 0 110 2.223 1.111 1.111 0 010-2.223zm4.446 0a1.111 1.111 0 110 2.222 1.111 1.111 0 010-2.222z" fill="#2A2827"/><path d="M68.89 94.445a1.111 1.111 0 110 2.222 1.111 1.111 0 010-2.222z" fill="#2A2827"/><path d="M71.111 94.445a1.111 1.111 0 110 2.222 1.111 1.111 0 010-2.222z" fill="#2A2827"/><path d="M73.334 94.445a1.111 1.111 0 110 2.223 1.111 1.111 0 010-2.223z" fill="#2A2827"/><path d="M75.556 94.445a1.111 1.111 0 110 2.222 1.111 1.111 0 010-2.222zm11.112 0a1.111 1.111 0 110 2.222 1.111 1.111 0 010-2.222z" fill="#2A2827"/><path d="M88.89 94.445a1.111 1.111 0 110 2.222 1.111 1.111 0 010-2.222z" fill="#2A2827"/><path d="M91.111 94.445a1.111 1.111 0 110 2.222 1.111 1.111 0 010-2.222z" fill="#2A2827"/><path d="M93.334 94.445a1.111 1.111 0 110 2.223 1.111 1.111 0 010-2.223z" fill="#2A2827"/><path d="M95.556 94.445a1.111 1.111 0 110 2.222 1.111 1.111 0 010-2.222zm4.446 0a1.111 1.111 0 110 2.223 1.111 1.111 0 010-2.223z" fill="#2A2827"/><path d="M102.222 94.445a1.112 1.112 0 110 2.224 1.112 1.112 0 010-2.224zm-68.888 2.223a1.111 1.111 0 110 2.222 1.111 1.111 0 010-2.222zm4.446 0a1.111 1.111 0 110 2.222 1.111 1.111 0 010-2.222z" fill="#2A2827"/><path d="M40.002 96.668a1.111 1.111 0 110 2.222 1.111 1.111 0 010-2.222z" fill="#2A2827"/><path d="M42.222 96.668a1.111 1.111 0 110 2.222 1.111 1.111 0 010-2.222zm4.446 0a1.111 1.111 0 110 2.222 1.111 1.111 0 010-2.222z" fill="#2A2827"/><path d="M48.89 96.668a1.111 1.111 0 110 2.222 1.111 1.111 0 010-2.222zm4.444 0a1.111 1.111 0 110 2.222 1.111 1.111 0 010-2.222zm4.446 0a1.111 1.111 0 110 2.222 1.111 1.111 0 010-2.222zm4.442 0a1.111 1.111 0 110 2.222 1.111 1.111 0 010-2.222zm4.446 0a1.111 1.111 0 110 2.222 1.111 1.111 0 010-2.222zm6.666 0a1.111 1.111 0 110 2.222 1.111 1.111 0 010-2.222zm4.446 0a1.111 1.111 0 110 2.222 1.111 1.111 0 010-2.222zm4.442 0a1.111 1.111 0 110 2.222 1.111 1.111 0 010-2.222z" fill="#2A2827"/><path d="M84.445 96.668a1.111 1.111 0 110 2.222 1.111 1.111 0 010-2.222zm4.445 0a1.111 1.111 0 110 2.222 1.111 1.111 0 010-2.222zm4.444 0a1.111 1.111 0 110 2.222 1.111 1.111 0 010-2.222zm11.111 0a1.11 1.11 0 110 2.222 1.11 1.11 0 010-2.222zM33.334 98.89a1.111 1.111 0 110 2.223 1.111 1.111 0 010-2.222z" fill="#2A2827"/><path d="M35.556 98.89a1.111 1.111 0 110 2.223 1.111 1.111 0 010-2.222zm4.446 0a1.111 1.111 0 110 2.223 1.111 1.111 0 010-2.222zm4.443 0a1.111 1.111 0 110 2.223 1.111 1.111 0 010-2.222z" fill="#2A2827"/><path d="M46.668 98.89a1.111 1.111 0 110 2.223 1.111 1.111 0 010-2.222z" fill="#2A2827"/><path d="M48.89 98.89a1.111 1.111 0 110 2.223 1.111 1.111 0 010-2.222zm8.89 0a1.111 1.111 0 11-.001 2.223 1.111 1.111 0 010-2.222z" fill="#2A2827"/><path d="M60.002 98.89a1.111 1.111 0 110 2.223 1.111 1.111 0 010-2.222zm6.666 0a1.111 1.111 0 110 2.223 1.111 1.111 0 010-2.222z" fill="#2A2827"/><path d="M68.89 98.89a1.111 1.111 0 110 2.223 1.111 1.111 0 010-2.222z" fill="#2A2827"/><path d="M71.111 98.89a1.111 1.111 0 110 2.223 1.111 1.111 0 010-2.222z" fill="#2A2827"/><path d="M73.334 98.89a1.111 1.111 0 110 2.223 1.111 1.111 0 010-2.222z" fill="#2A2827"/><path d="M75.556 98.89a1.111 1.111 0 110 2.223 1.111 1.111 0 010-2.222z" fill="#2A2827"/><path d="M77.78 98.89a1.111 1.111 0 11-.001 2.223 1.111 1.111 0 010-2.222zm4.442 0a1.111 1.111 0 110 2.223 1.111 1.111 0 010-2.222zm6.668 0a1.111 1.111 0 110 2.223 1.111 1.111 0 010-2.222z" fill="#2A2827"/><path d="M91.111 98.89a1.111 1.111 0 110 2.223 1.111 1.111 0 010-2.222z" fill="#2A2827"/><path d="M93.334 98.89a1.111 1.111 0 110 2.223 1.111 1.111 0 010-2.222z" fill="#2A2827"/><path d="M95.556 98.89a1.111 1.111 0 110 2.223 1.111 1.111 0 010-2.222zm4.446 0a1.112 1.112 0 11-.001 2.224 1.112 1.112 0 01.001-2.223z" fill="#2A2827"/><path d="M102.222 98.89a1.112 1.112 0 110 2.224 1.112 1.112 0 010-2.223zm-66.666 2.221a1.111 1.111 0 110 2.223 1.111 1.111 0 010-2.223z" fill="#2A2827"/><path d="M37.78 101.111a1.111 1.111 0 11-.001 2.223 1.111 1.111 0 010-2.223z" fill="#2A2827"/><path d="M40.002 101.111a1.111 1.111 0 110 2.223 1.111 1.111 0 010-2.223zm4.443 0a1.111 1.111 0 110 2.223 1.111 1.111 0 010-2.223z" fill="#2A2827"/><path d="M46.668 101.111a1.111 1.111 0 110 2.223 1.111 1.111 0 010-2.223zm6.666 0a1.111 1.111 0 110 2.223 1.111 1.111 0 010-2.223z" fill="#2A2827"/><path d="M55.556 101.111a1.111 1.111 0 110 2.223 1.111 1.111 0 010-2.223zm6.666 0a1.111 1.111 0 110 2.223 1.111 1.111 0 010-2.223zm11.112 0a1.111 1.111 0 110 2.223 1.111 1.111 0 010-2.223zm4.446 0a1.111 1.111 0 11-.001 2.223 1.111 1.111 0 010-2.223zm4.442 0a1.111 1.111 0 110 2.223 1.111 1.111 0 010-2.223zm4.446 0a1.111 1.111 0 110 2.223 1.111 1.111 0 010-2.223zm4.443 0a1.111 1.111 0 110 2.223 1.111 1.111 0 010-2.223zm4.445 0a1.111 1.111 0 110 2.223 1.111 1.111 0 010-2.223zm6.666 0a1.112 1.112 0 110 2.224 1.112 1.112 0 010-2.224zm-66.666 2.223a1.11 1.11 0 11.001 2.222 1.11 1.11 0 010-2.222zm4.446 0a1.11 1.11 0 110 2.222 1.11 1.11 0 010-2.222z" fill="#2A2827"/><path d="M42.222 103.334a1.11 1.11 0 11.001 2.222 1.11 1.11 0 010-2.222z" fill="#2A2827"/><path d="M44.445 103.334a1.11 1.11 0 11.001 2.222 1.11 1.11 0 010-2.222z" fill="#2A2827"/><path d="M46.667 103.334a1.11 1.11 0 11.001 2.222 1.11 1.11 0 010-2.222zm4.444 0a1.11 1.11 0 110 2.222 1.11 1.11 0 010-2.222z" fill="#2A2827"/><path d="M53.334 103.334a1.11 1.11 0 110 2.222 1.11 1.11 0 010-2.222z" fill="#2A2827"/><path d="M55.556 103.334a1.11 1.11 0 11.001 2.222 1.11 1.11 0 010-2.222zm11.112 0a1.11 1.11 0 110 2.222 1.11 1.11 0 010-2.222zm6.666 0a1.11 1.11 0 110 2.222 1.11 1.11 0 010-2.222zm4.446 0a1.11 1.11 0 110 2.222 1.11 1.11 0 010-2.222z" fill="#2A2827"/><path d="M80.002 103.334a1.11 1.11 0 110 2.222 1.11 1.11 0 010-2.222zm4.443 0a1.11 1.11 0 11.001 2.222 1.11 1.11 0 010-2.222zm6.666 0a1.11 1.11 0 110 2.222 1.11 1.11 0 010-2.222z" fill="#2A2827"/><path d="M93.334 103.334a1.11 1.11 0 110 2.222 1.11 1.11 0 010-2.222z" fill="#2A2827"/><path d="M95.556 103.334a1.11 1.11 0 11.001 2.222 1.11 1.11 0 010-2.222z" fill="#2A2827"/><path d="M97.78 103.334a1.11 1.11 0 110 2.222 1.11 1.11 0 010-2.222z" fill="#2A2827"/><path d="M100.002 103.334a1.111 1.111 0 110 2.222 1.111 1.111 0 010-2.222zM24.69 14.447h-4.934a5.313 5.313 0 00-5.093 3.76 5.151 5.151 0 00-.218 1.49v5.051c0 2.897 2.383 5.252 5.311 5.252h4.934c2.928 0 5.31-2.356 5.31-5.252v-5.05c0-2.896-2.382-5.25-5.31-5.25zm2.977 10.301c0 1.61-1.335 2.918-2.978 2.918l-2.466.001h-2.466c-1.643 0-2.978-1.31-2.978-2.919v-5.05c0-.503.13-.977.36-1.39.22-.398.533-.74.91-.999a3.003 3.003 0 011.707-.528h4.934c1.642 0 2.977 1.308 2.977 2.916v5.051zm72.578-10.301h-4.934a5.313 5.313 0 00-5.093 3.76 5.136 5.136 0 00-.218 1.49v5.051C90 27.645 92.383 30 95.31 30h4.936c2.927 0 5.311-2.356 5.311-5.252v-5.05c0-2.896-2.384-5.25-5.311-5.25zm2.977 10.301c0 1.61-1.335 2.918-2.978 2.918l-2.466.001H95.31c-1.642 0-2.978-1.31-2.978-2.919v-5.05c0-.503.13-.977.36-1.39.221-.398.534-.74.91-.999a3.003 3.003 0 011.708-.528h4.934c1.642 0 2.977 1.308 2.977 2.916v5.051zM24.69 90.002h-4.934a5.313 5.313 0 00-5.093 3.76 5.156 5.156 0 00-.218 1.49v5.051c0 2.896 2.383 5.252 5.311 5.252h2.467l2.467-.001c2.928 0 5.31-2.355 5.31-5.251v-5.051c0-2.895-2.382-5.25-5.31-5.25zm2.977 10.301c0 1.609-1.335 2.918-2.978 2.918l-2.466.001-2.466-.001c-1.643 0-2.978-1.309-2.978-2.918v-5.051c0-.503.13-.976.36-1.39.22-.397.533-.74.91-.998a3.003 3.003 0 011.707-.529h4.934c1.642 0 2.977 1.309 2.977 2.917v5.051z" fill="#2A2827"/><path d="M20.713 25.557c-1.006 0-1.824-.802-1.824-1.787v-3.093c0-.308.08-.597.22-.85a1.84 1.84 0 011.603-.936h3.022c1.005 0 1.823.8 1.823 1.786v3.093c0 .985-.818 1.787-1.823 1.787h-3.021zm75.557 0c-1.006 0-1.825-.802-1.825-1.787v-3.093c0-.308.08-.597.22-.85a1.84 1.84 0 011.603-.936h3.022c1.006 0 1.824.8 1.824 1.786v3.093c0 .985-.818 1.787-1.824 1.787h-3.02zm-75.557 75.555c-1.006 0-1.824-.802-1.824-1.787v-3.093c0-.308.08-.598.22-.851.135-.244.327-.454.557-.612a1.84 1.84 0 011.046-.324h3.022c1.005 0 1.823.802 1.823 1.787v3.093c0 .985-.818 1.787-1.823 1.787h-3.02z" fill="#2A2827"/><g clip-path="url(#clip0_3236_102046)" fill="#fff"><path d="M45.556 45.557h28.89v28.889h-28.89z"/><path d="M70.834 45.557H49.167a3.611 3.611 0 00-3.61 3.61v21.667a3.611 3.611 0 003.61 3.611h21.667a3.611 3.611 0 003.611-3.61V49.167a3.611 3.611 0 00-3.61-3.611z"/><path d="M59.38 52.61a.075.075 0 00-.03.006c-.413.208.867 2.857 1.29 3.854.424.994 2.077 4.81 2.41 4.978.33.166.46.072.682-.02.221-.09.62-.398.415-.767l-.017-.03c-.077-.143-.269-.514-.523-.995l-.008-.02c-.02-.037-.041-.073-.06-.11a1.661 1.661 0 01-.045-.085c-.013-.022-.024-.047-.037-.072-.023-.042-.045-.086-.07-.129-.005-.014-.013-.027-.02-.041l-.079-.148a.464.464 0 00-.023-.044c-.584-1.104-1.318-2.464-1.77-3.18-.766-1.213-1.784-3.207-2.115-3.198zm-.866 3.207a.322.322 0 00-.254.16l-1.27 2.213-1.4 2.44-1.17 2.036a.318.318 0 00.117.434l.83.475a.32.32 0 00.435-.116l1.624-2.83 1.05-1.829 1.165-2.03a.32.32 0 00-.118-.435l-.828-.475a.319.319 0 00-.181-.043zm-5.41 2.375a.288.288 0 00-.288.287v1.862c0 .159.128.288.288.288h1.821l1.4-2.437h-3.22zm6.386 0l-1.4 2.437h3.8a51.205 51.205 0 01-1.132-2.437H59.49zm4.003 0c.33.616.634 1.197.849 1.606.15.286.267.511.309.585.044.08.075.162.096.246h1.545c.16 0 .288-.129.288-.288h-.001v-1.862a.287.287 0 00-.287-.287h-2.799zm.868 3.485a.327.327 0 00-.132.037l-.475.244a.314.314 0 00-.118.455l.5.79a.358.358 0 00.483.115l.34-.203a.374.374 0 00.132-.488l-.394-.758a.358.358 0 00-.336-.192zm-10.23 1.75c-.091.005-.163.076-.176.196l-.145 1.248c-.019.174.083.236.228.137l1.072-.729c.144-.099.138-.251-.014-.338l-.83-.476a.242.242 0 00-.134-.037zm11.353.135c-.141-.001-.31.047-.515.162-.123.12-.42.377-.063.88.358.502 1.155.525 1.26.86 0 0 .185-1.888-.682-1.902z"/><path d="M59.927 48.717c-4.917.03-9.418 3.294-10.797 8.266l-.026.098c-1.603 5.98 1.913 12.136 7.88 13.791 6.003 1.667 12.222-1.85 13.888-7.853 1.667-6.004-1.852-12.223-7.855-13.89a11.288 11.288 0 00-3.09-.412zm.004.67c.96-.005 1.937.12 2.907.39 5.647 1.566 8.955 7.414 7.388 13.061-1.567 5.647-7.417 8.955-13.064 7.388-5.612-1.557-8.919-7.346-7.412-12.97l.026-.092c1.298-4.677 5.53-7.749 10.154-7.777z"/></g><path d="M66.378 60.691c-.023-2.503 2.124-3.721 2.222-3.778-1.216-1.711-3.1-1.945-3.763-1.964-1.583-.16-3.119.914-3.925.914-.823 0-2.065-.898-3.403-.872-1.722.026-3.334.988-4.217 2.483-1.824 3.047-.464 7.526 1.283 9.989.874 1.206 1.896 2.553 3.233 2.506 1.307-.052 1.796-.805 3.374-.805 1.564 0 2.023.805 3.386.775 1.404-.022 2.287-1.212 3.13-2.43 1.01-1.382 1.416-2.744 1.432-2.814-.033-.01-2.725-1.003-2.752-4.004zm-2.575-7.362c.703-.85 1.184-2.005 1.05-3.177-1.017.044-2.29.68-3.024 1.51-.648.732-1.228 1.932-1.078 3.06 1.143.082 2.318-.557 3.052-1.393z" fill="#2A2827"/><defs><clipPath id="clip0_3236_102046"><path fill="#fff" transform="translate(45.556 45.557)" d="M0 0h28.889v28.889H0z"/></clipPath></defs></svg>