<svg width="48" height="48" fill="none" xmlns="http://www.w3.org/2000/svg"><g clip-path="url(#clip0_3236_101953)"><path d="M41.671 2.777c-3.701-3.702-9.726-3.703-13.427 0a9.46 9.46 0 00-1.849 2.628l-.39-.39a1.582 1.582 0 00-2.238 0l-8.952 8.952a1.583 1.583 0 000 2.238l2.458 2.457L5.819 31.916c-1.449 1.488-1.705 3.691-.81 5.456-2.189 3.087-1.91 7.4.854 10.164A1.582 1.582 0 108.101 45.3c-1.547-1.547-1.782-3.899-.743-5.712a4.73 4.73 0 005.174-.958l13.255-11.453 2.457 2.457c.618.618 1.62.618 2.238 0l8.952-8.953a1.583 1.583 0 000-2.237l-.39-.39a9.472 9.472 0 002.627-1.849c3.702-3.701 3.702-9.725 0-13.427zM29.363 26.276l-11.191-11.19 6.714-6.714 11.19 11.19-6.713 6.714z" fill="#CF7C58"/></g><defs><clipPath id="clip0_3236_101953"><path fill="#fff" d="M0 0h48v48H0z"/></clipPath></defs></svg>