<svg width="48" height="48" fill="none" xmlns="http://www.w3.org/2000/svg"><g clip-path="url(#clip0_3236_101943)" fill="#CF7C58"><path d="M26.09 31.024h-2.916l-.774 2.814h2.917l.773-2.814z"/><path d="M24.001 48c10.084 0 18.289-8.298 18.289-18.382 0-8.853-4.215-14.773-8.166-17.366l-.006-.004v-.001a1.409 1.409 0 00-1.544 2.353 2.807 2.807 0 011.275 2.356 2.816 2.816 0 01-2.814 2.814 2.816 2.816 0 01-2.813-2.814c0-.381.074-.873.154-1.452.48-3.496 1.373-10.1-6.408-15.287a1.437 1.437 0 00-1.645.088c-.314.252-.542.607-.542 1.083 0 6.484-3.242 9.785-6.674 13.18-3.635 3.596-7.394 7.315-7.394 14.749v.3C5.713 39.703 13.917 48 24 48zm-6.366-14.162h1.846l.774-2.814h-1.07a1.406 1.406 0 110-2.813h1.843l.49-1.78a1.402 1.402 0 011.73-.983c.748.206 1.19.98.984 1.728l-.284 1.035h2.916l.49-1.78a1.402 1.402 0 011.73-.983c.748.206 1.19.98.984 1.728l-.284 1.035h1.073a1.406 1.406 0 110 2.814H29.01l-.773 2.813h1.073a1.406 1.406 0 110 2.814h-1.847l-.489 1.779a1.408 1.408 0 01-2.715-.745l.285-1.034h-2.917l-.49 1.779a1.408 1.408 0 01-2.714-.745l.285-1.034h-1.073a1.406 1.406 0 110-2.814zM12.747 8.516c.777 0 1.406-.63 1.406-1.407V4.295a1.406 1.406 0 10-2.813 0V7.11c0 .778.63 1.407 1.407 1.407zM33.849 7.11V4.294a1.406 1.406 0 10-2.814 0V7.11a1.406 1.406 0 102.814 0z"/></g><defs><clipPath id="clip0_3236_101943"><path fill="#fff" d="M0 0h48v48H0z"/></clipPath></defs></svg>