<svg width="48" height="48" fill="none" xmlns="http://www.w3.org/2000/svg"><path d="M34.545 3.012c-4.409 0-8.068 2.332-10.545 6.038-2.477-3.706-6.136-6.038-10.545-6.038C6.036 3.012 0 9.048 0 16.467 0 32.082 18.697 42.66 23.405 44.856c.377.175.813.175 1.19 0C29.303 42.658 48 32.081 48 16.466c0-7.42-6.036-13.455-13.455-13.455zm-16.67 22.493c-.075 1.866-2.74 1.865-2.813 0v-2.63l-.612.612c-.523.545-1.465.545-1.989 0l-.611-.612v2.63c-.075 1.866-2.74 1.865-2.813 0V19.48a1.406 1.406 0 012.4-.994l2.019 2.018 2.018-2.018a1.406 1.406 0 012.4.994v6.025zM24 26.912a4.424 4.424 0 01-4.42-4.42c.244-5.861 8.597-5.86 8.838 0A4.424 4.424 0 0124 26.913zm14.962-1.407c-.074 1.866-2.739 1.865-2.812 0v-2.63l-.612.612c-.524.545-1.465.545-1.989 0l-.612-.612v2.63c-.074 1.866-2.739 1.865-2.812 0V19.48a1.406 1.406 0 012.4-.994l2.018 2.018 2.019-2.018a1.406 1.406 0 012.4.994v6.025z" fill="#CF7C58"/><path d="M23.999 20.887c-.886 0-1.606.72-1.606 1.606.088 2.13 3.124 2.13 3.212 0 0-.886-.72-1.606-1.606-1.606z" fill="#CF7C58"/></svg>