<svg width="48" height="48" fill="none" xmlns="http://www.w3.org/2000/svg"><path d="M18.517 12.724a3.861 3.861 0 01-3.855-3.855C14.662 6.745 16.378 5 18.517 5a3.852 3.852 0 013.854 3.855c0 2.123-1.73 3.869-3.854 3.869zm-2.312 30.967a1.72 1.72 0 01-1.717-1.716V31.08h3.433v10.895a1.701 1.701 0 01-1.716 1.716zm4.553 0a1.72 1.72 0 01-1.717-1.716V31.08h3.433v10.895a1.72 1.72 0 01-1.716 1.716zm12.246-15.593a3.185 3.185 0 100-6.37 3.185 3.185 0 000 6.37z" fill="#CF7C58"/><path d="M27.2 23.691c-.364-1.236-.64-2.356-1.018-3.724-.32-1.12-.698-2.181-.99-3.17-.61-2.037-2.312-3.36-4.334-3.36h-4.727c-2.066 0-3.767 1.309-4.335 3.345-.334 1.207-.756 2.502-1.192 3.87-.553 1.73-1.135 3.505-1.586 5.22-.189.714.204 1.455.873 1.688a1.419 1.419 0 001.862-.96l2.182-7.17.305-1.164a.48.48 0 01.466-.364l.116.014.029.015c.247.073.393.32.334.567-.16.728-.523 2.313-.96 4.16-.712 3.084-1.614 6.91-2.007 8.757-.029.16 0 .334.102.45a.47.47 0 00.378.175h11.593a.49.49 0 00.378-.174.508.508 0 00.102-.451c-.393-1.848-1.28-5.673-1.993-8.742a390.3 390.3 0 01-.96-4.175.477.477 0 01.335-.567l.116-.015h.03a.48.48 0 01.465.364l.305 1.164 1.76 5.483a1.337 1.337 0 001.716.844 1.318 1.318 0 00.8-1.644c-.058-.174-.101-.32-.145-.436z" fill="#CF7C58"/><path d="M38.023 30.673a3.332 3.332 0 00-1.63-1.47c-.436-.188-.916-.247-1.396-.247-.785 0-2.414 0-3.142-.072-.058-.015-2.385 0-3.49-2.095-.277-.509-.83-.844-1.397-.713a1.24 1.24 0 00-.858 1.746c.596 1.222 1.643 2.676 3.724 3.2v11.243c0 .655.45 1.266 1.09 1.397.873.16 1.644-.495 1.644-1.338.015 0 0-6.066 0-6.066h.8v6.066a1.388 1.388 0 001.382 1.367c.756 0 1.367-.611 1.367-1.367.015 0 0-10.153 0-10.153.058-.175.218-.16.335.145.218.597.392 1.12.465 2.866.03.567.495.989 1.062.989h.058a1.048 1.048 0 00.99-1.12c-.074-1.615-.074-2.706-1.004-4.378z" fill="#CF7C58"/></svg>