<svg width="48" height="48" fill="none" xmlns="http://www.w3.org/2000/svg"><path d="M21.153 17.408C22.42 15.136 23.053 14 24 14c.947 0 1.58 1.136 2.847 3.408l.327.588c.36.646.54.969.82 1.182.282.213.631.292 1.33.45l.636.144c2.46.557 3.69.835 3.983 1.776.292.94-.546 1.921-2.223 3.882l-.434.507c-.477.557-.715.836-.822 1.18-.107.345-.071.717 0 1.46l.067.677c.253 2.617.38 3.925-.386 4.506-.766.582-1.918.052-4.22-1.009l-.597-.274c-.654-.301-.981-.452-1.328-.452-.347 0-.674.15-1.329.452l-.595.274c-2.303 1.06-3.455 1.59-4.221 1.01-.766-.582-.64-1.89-.386-4.507l.066-.676c.072-.744.108-1.116 0-1.46-.106-.345-.345-.624-.821-1.18l-.434-.508c-1.677-1.961-2.515-2.941-2.223-3.882.293-.941 1.523-1.22 3.982-1.776l.637-.144c.699-.158 1.048-.237 1.329-.45.28-.213.46-.536.82-1.182l.328-.588z" fill="#CF7C58"/><path fill-rule="evenodd" clip-rule="evenodd" d="M24 2.5A1.5 1.5 0 0125.5 4v4a1.5 1.5 0 01-3 0V4A1.5 1.5 0 0124 2.5zm13.06 8.44a1.5 1.5 0 010 2.12l-.686.687a1.5 1.5 0 01-2.121-2.121l.687-.687a1.5 1.5 0 012.12 0zm-26.12 0a1.5 1.5 0 012.12 0l.687.686a1.5 1.5 0 11-2.121 2.121l-.687-.686a1.5 1.5 0 010-2.122zM2.5 24A1.5 1.5 0 014 22.5h4a1.5 1.5 0 010 3H4A1.5 1.5 0 012.5 24zm36 0a1.5 1.5 0 011.5-1.5h4a1.5 1.5 0 010 3h-4a1.5 1.5 0 01-1.5-1.5zM13.747 34.253a1.5 1.5 0 010 2.121l-.686.686a1.5 1.5 0 01-2.121-2.12l.686-.687a1.5 1.5 0 012.12 0zm20.506 0a1.5 1.5 0 012.121 0l.686.687a1.5 1.5 0 01-2.121 2.121l-.686-.686a1.5 1.5 0 010-2.122zM24 38.5a1.5 1.5 0 011.5 1.5v4a1.5 1.5 0 01-3 0v-4a1.5 1.5 0 011.5-1.5z" fill="#CF7C58"/></svg>