<svg width="48" height="48" fill="none" xmlns="http://www.w3.org/2000/svg"><path d="M39 7.5h-4.5V6A4.513 4.513 0 0030 1.5H6A4.514 4.514 0 001.5 6v34.5a6 6 0 006 6h30a6 6 0 006-6V12A4.513 4.513 0 0039 7.5zm-19.5 33h-9a1.5 1.5 0 110-3h9a1.5 1.5 0 110 3zm6 0a1.5 1.5 0 110-3 1.5 1.5 0 010 3zm0-7.5h-15a1.5 1.5 0 110-3h15a1.5 1.5 0 110 3zm0-7.5h-15a1.5 1.5 0 110-3h15a1.5 1.5 0 110 3zM27 15a3.01 3.01 0 01-3 3H12a3.01 3.01 0 01-3-3v-3a3.01 3.01 0 013-3h12a3.01 3.01 0 013 3v3zm13.5 25.5a3 3 0 01-6 0v-30H39a1.5 1.5 0 011.5 1.5v28.5z" fill="#CF7C58"/></svg>