<svg width="89" height="18" fill="none" xmlns="http://www.w3.org/2000/svg"><g id="Vector" opacity=".8"><path d="M88.306 2.618C82.714 9.127 73.318 13.266 62.883 15.14c-15.591 2.8-33.495.551-44.363-6.236a.483.483 0 01-.151-.66.475.475 0 01.66-.152c10.7 6.681 28.333 8.864 43.686 6.104 10.199-1.83 19.4-5.838 24.863-12.203a.478.478 0 01.677-.052c.197.17.224.474.05.677zm-81.121 4c5.238 2.79 10.109 5.383 14.248 10.45a.479.479 0 01-.739.609c-4.069-4.98-8.863-7.52-14.013-10.25-1.818-.964-3.679-1.95-5.568-3.076-.39-.235-.295-.562-.266-.639A.464.464 0 011.25 3.4c.051-.007.153-.004.295.019.13.024.323.072.516.119.208.05.416.101.545.124.36.059.719.113 1.078.167.36.055.72.109 1.08.168 2.056.338 4.111.652 6.186.816l.205.016c7.67.618 13.957 1.125 20.164-3.91a.477.477 0 11.605.741C25.447 6.916 18.9 6.414 10.872 5.77c-2.101-.17-4.185-.485-6.262-.826a45.692 45.692 0 00-.74-.12h-.004c1.12.622 2.227 1.212 3.318 1.793z" fill="#fff"/><path d="M88.306 2.618C82.714 9.127 73.318 13.266 62.883 15.14c-15.591 2.8-33.495.551-44.363-6.236a.483.483 0 01-.151-.66.475.475 0 01.66-.152c10.7 6.681 28.333 8.864 43.686 6.104 10.199-1.83 19.4-5.838 24.863-12.203a.478.478 0 01.677-.052c.197.17.224.474.05.677zm-81.121 4h0c5.238 2.79 10.109 5.383 14.248 10.45a.479.479 0 01-.739.609c-4.069-4.98-8.863-7.52-14.013-10.25-1.818-.964-3.679-1.95-5.568-3.076-.39-.235-.295-.562-.266-.639A.464.464 0 011.25 3.4c.051-.007.153-.004.295.019.13.024.323.072.516.119h0c.208.05.416.101.545.124.36.059.719.113 1.078.167h0c.36.055.72.109 1.08.168 2.056.338 4.111.652 6.186.816l.205.016c7.67.618 13.957 1.125 20.164-3.91a.477.477 0 11.605.741C25.447 6.916 18.9 6.414 10.872 5.77c-2.101-.17-4.185-.485-6.262-.826a45.692 45.692 0 00-.74-.12h0-.004c1.12.622 2.227 1.212 3.318 1.793h0z" stroke="#fff"/></g></svg>