<svg width="85" height="35" fill="none" xmlns="http://www.w3.org/2000/svg"><g id="Vector" opacity=".8"><path d="M.114 33.508C3.735 25.73 11.66 19.201 21.198 14.572 35.45 7.657 53.293 4.975 65.593 8.568a.483.483 0 01.325.594.475.475 0 01-.595.324c-12.109-3.535-29.674-.863-43.708 5.95C12.293 19.958 4.52 26.307.984 33.913a.478.478 0 01-.638.233.483.483 0 01-.232-.638zM77.124 7.7C71.326 6.433 65.935 5.254 60.58 1.497a.479.479 0 01.546-.787C66.39 4.402 71.694 5.55 77.39 6.785c2.01.435 4.07.881 6.193 1.453.44.12.436.462.428.543a.464.464 0 01-.303.41c-.047.02-.146.046-.289.062-.132.011-.33.018-.53.025a9.869 9.869 0 00-.557.028c-.362.04-.723.086-1.083.13-.361.046-.722.09-1.084.131-2.072.232-4.135.485-6.178.89l-.2.039c-7.552 1.481-13.741 2.695-18.354 9.222a.477.477 0 01-.669.116.48.48 0 01-.113-.665c4.811-6.813 11.25-8.101 19.152-9.655 2.07-.405 4.16-.666 6.253-.9.25-.026.497-.055.744-.085h.005a209.89 209.89 0 00-3.68-.829z" fill="#fff"/><path d="M.114 33.508C3.735 25.73 11.66 19.201 21.198 14.572 35.45 7.657 53.293 4.975 65.593 8.568a.483.483 0 01.325.594.475.475 0 01-.595.324c-12.109-3.535-29.674-.863-43.708 5.95C12.293 19.958 4.52 26.307.984 33.913a.478.478 0 01-.638.233.483.483 0 01-.232-.638zM77.124 7.7h0C71.326 6.433 65.935 5.254 60.58 1.497a.479.479 0 01.546-.787C66.39 4.402 71.694 5.55 77.39 6.785c2.01.435 4.07.881 6.193 1.453.44.12.436.462.428.543a.464.464 0 01-.303.41c-.047.02-.146.046-.289.062-.132.011-.33.018-.53.025h0a9.869 9.869 0 00-.557.028c-.362.04-.723.086-1.083.13h0c-.361.046-.722.09-1.084.131-2.072.232-4.135.485-6.178.89l-.2.039c-7.552 1.481-13.741 2.695-18.354 9.222a.477.477 0 01-.669.116.48.48 0 01-.113-.665c4.811-6.813 11.25-8.101 19.152-9.655 2.07-.405 4.16-.666 6.253-.9.25-.026.497-.055.744-.085h.005a209.89 209.89 0 00-3.68-.829h0z" stroke="#fff"/></g></svg>