<svg width="97" height="98" fill="none" xmlns="http://www.w3.org/2000/svg"><g filter="url(#filter0_f_4183_12929)"><path d="M59.183 60.602H45.612c.564.54 1.33 1.105 1.877 1.841.574.775.64 1.75.39 2.718a3.679 3.679 0 01-1.288 2.017 3.537 3.537 0 01-2.233.766 3.54 3.54 0 01-2.216-.815 3.682 3.682 0 01-1.246-2.045c-.438-1.841.383-3.294 2.624-4.51-.62 0-1.137.017-1.65 0-1.8-.072-3.467-1.505-3.42-3.317.085-3.39-.96-6.549-1.609-9.788-.814-4.077-1.755-8.133-2.64-12.19-.306-1.366-.71-1.71-2.04-1.71a7.39 7.39 0 01-1.121-.02c-.612-.099-.992-.495-1.035-1.135-.043-.613.265-1.037.817-1.227 1.841-.663 4.08.124 5.06 1.841a7.84 7.84 0 01.7 1.923c.3 1.155.52 2.33.784 3.529h26.961c1.425 0 1.868.557 1.53 1.949-.95 3.918-1.903 7.831-2.858 11.74-.529 2.148-2.236 3.495-4.437 3.497h-17.75c-.019.45-.016.9.01 1.35.07.701.574 1.097 1.381 1.099 2.45.007 4.9 0 7.351 0H64.48c.623 0 1.145.125 1.422.767.353.807-.204 1.674-1.13 1.688-1.25.03-2.5.008-3.778.055.937.433 1.749.997 2.216 1.963a3.638 3.638 0 01.16 2.969 3.673 3.673 0 01-1.471 1.832 3.544 3.544 0 01-2.258.538 3.62 3.62 0 01-2.131-1.026 3.766 3.766 0 01-1.075-2.144c-.257-1.747.678-3.219 2.748-4.155zM40.56 53.211h17.79c1.39 0 2.05-.533 2.387-1.918l2.331-9.577c.059-.236.095-.479.15-.747H37.902c.89 4.09 1.767 8.137 2.658 12.242zm3.8 12.275a1.18 1.18 0 00.675-.184 1.22 1.22 0 00.46-.536 1.253 1.253 0 00-.22-1.348 1.175 1.175 0 00-1.302-.305 1.202 1.202 0 00-.55.437 1.245 1.245 0 00-.22.678c-.005.322.113.634.33.869.216.234.512.374.827.39zm15.58 0c.238.013.474-.047.678-.171.204-.124.368-.308.47-.528a1.253 1.253 0 00-.195-1.351 1.175 1.175 0 00-1.296-.33c-.223.082-.418.23-.56.426-.14.196-.221.43-.232.673-.01.322.103.636.315.875.212.239.506.385.82.406z" fill="#15F2FD"/></g><g filter="url(#filter1_f_4183_12929)"><path d="M59.183 60.602H45.612c.564.54 1.33 1.105 1.877 1.841.574.775.64 1.75.39 2.718a3.679 3.679 0 01-1.288 2.017 3.537 3.537 0 01-2.233.766 3.54 3.54 0 01-2.216-.815 3.682 3.682 0 01-1.246-2.045c-.438-1.841.383-3.294 2.624-4.51-.62 0-1.137.017-1.65 0-1.8-.072-3.467-1.505-3.42-3.317.085-3.39-.96-6.549-1.609-9.788-.814-4.077-1.755-8.133-2.64-12.19-.306-1.366-.71-1.71-2.04-1.71a7.39 7.39 0 01-1.121-.02c-.612-.099-.992-.495-1.035-1.135-.043-.613.265-1.037.817-1.227 1.841-.663 4.08.124 5.06 1.841a7.84 7.84 0 01.7 1.923c.3 1.155.52 2.33.784 3.529h26.961c1.425 0 1.868.557 1.53 1.949-.95 3.918-1.903 7.831-2.858 11.74-.529 2.148-2.236 3.495-4.437 3.497h-17.75c-.019.45-.016.9.01 1.35.07.701.574 1.097 1.381 1.099 2.45.007 4.9 0 7.351 0H64.48c.623 0 1.145.125 1.422.767.353.807-.204 1.674-1.13 1.688-1.25.03-2.5.008-3.778.055.937.433 1.749.997 2.216 1.963a3.638 3.638 0 01.16 2.969 3.673 3.673 0 01-1.471 1.832 3.544 3.544 0 01-2.258.538 3.62 3.62 0 01-2.131-1.026 3.766 3.766 0 01-1.075-2.144c-.257-1.747.678-3.219 2.748-4.155zM40.56 53.211h17.79c1.39 0 2.05-.533 2.387-1.918l2.331-9.577c.059-.236.095-.479.15-.747H37.902c.89 4.09 1.767 8.137 2.658 12.242zm3.8 12.275a1.18 1.18 0 00.675-.184 1.22 1.22 0 00.46-.536 1.253 1.253 0 00-.22-1.348 1.175 1.175 0 00-1.302-.305 1.202 1.202 0 00-.55.437 1.245 1.245 0 00-.22.678c-.005.322.113.634.33.869.216.234.512.374.827.39zm15.58 0c.238.013.474-.047.678-.171.204-.124.368-.308.47-.528a1.253 1.253 0 00-.195-1.351 1.175 1.175 0 00-1.296-.33c-.223.082-.418.23-.56.426-.14.196-.221.43-.232.673-.01.322.103.636.315.875.212.239.506.385.82.406z" fill="#15F2FD"/></g><g filter="url(#filter2_f_4183_12929)"><path d="M59.183 60.602H45.612c.564.54 1.33 1.105 1.877 1.841.574.775.64 1.75.39 2.718a3.679 3.679 0 01-1.288 2.017 3.537 3.537 0 01-2.233.766 3.54 3.54 0 01-2.216-.815 3.682 3.682 0 01-1.246-2.045c-.438-1.841.383-3.294 2.624-4.51-.62 0-1.137.017-1.65 0-1.8-.072-3.467-1.505-3.42-3.317.085-3.39-.96-6.549-1.609-9.788-.814-4.077-1.755-8.133-2.64-12.19-.306-1.366-.71-1.71-2.04-1.71a7.39 7.39 0 01-1.121-.02c-.612-.099-.992-.495-1.035-1.135-.043-.613.265-1.037.817-1.227 1.841-.663 4.08.124 5.06 1.841a7.84 7.84 0 01.7 1.923c.3 1.155.52 2.33.784 3.529h26.961c1.425 0 1.868.557 1.53 1.949-.95 3.918-1.903 7.831-2.858 11.74-.529 2.148-2.236 3.495-4.437 3.497h-17.75c-.019.45-.016.9.01 1.35.07.701.574 1.097 1.381 1.099 2.45.007 4.9 0 7.351 0H64.48c.623 0 1.145.125 1.422.767.353.807-.204 1.674-1.13 1.688-1.25.03-2.5.008-3.778.055.937.433 1.749.997 2.216 1.963a3.638 3.638 0 01.16 2.969 3.673 3.673 0 01-1.471 1.832 3.544 3.544 0 01-2.258.538 3.62 3.62 0 01-2.131-1.026 3.766 3.766 0 01-1.075-2.144c-.257-1.747.678-3.219 2.748-4.155zM40.56 53.211h17.79c1.39 0 2.05-.533 2.387-1.918l2.331-9.577c.059-.236.095-.479.15-.747H37.902c.89 4.09 1.767 8.137 2.658 12.242zm3.8 12.275a1.18 1.18 0 00.675-.184 1.22 1.22 0 00.46-.536 1.253 1.253 0 00-.22-1.348 1.175 1.175 0 00-1.302-.305 1.202 1.202 0 00-.55.437 1.245 1.245 0 00-.22.678c-.005.322.113.634.33.869.216.234.512.374.827.39zm15.58 0c.238.013.474-.047.678-.171.204-.124.368-.308.47-.528a1.253 1.253 0 00-.195-1.351 1.175 1.175 0 00-1.296-.33c-.223.082-.418.23-.56.426-.14.196-.221.43-.232.673-.01.322.103.636.315.875.212.239.506.385.82.406z" fill="#15F2FD"/></g><g filter="url(#filter3_d_4183_12929)"><path d="M59.183 60.602H45.612c.564.54 1.33 1.105 1.877 1.841.574.775.64 1.75.39 2.718a3.679 3.679 0 01-1.288 2.017 3.537 3.537 0 01-2.233.766 3.54 3.54 0 01-2.216-.815 3.682 3.682 0 01-1.246-2.045c-.438-1.841.383-3.294 2.624-4.51-.62 0-1.137.017-1.65 0-1.8-.072-3.467-1.505-3.42-3.317.085-3.39-.96-6.549-1.609-9.788-.814-4.077-1.755-8.133-2.64-12.19-.306-1.366-.71-1.71-2.04-1.71a7.39 7.39 0 01-1.121-.02c-.612-.099-.992-.495-1.035-1.135-.043-.613.265-1.037.817-1.227 1.841-.663 4.08.124 5.06 1.841a7.84 7.84 0 01.7 1.923c.3 1.155.52 2.33.784 3.529h26.961c1.425 0 1.868.557 1.53 1.949-.95 3.918-1.903 7.831-2.858 11.74-.529 2.148-2.236 3.495-4.437 3.497h-17.75c-.019.45-.016.9.01 1.35.07.701.574 1.097 1.381 1.099 2.45.007 4.9 0 7.351 0H64.48c.623 0 1.145.125 1.422.767.353.807-.204 1.674-1.13 1.688-1.25.03-2.5.008-3.778.055.937.433 1.749.997 2.216 1.963a3.638 3.638 0 01.16 2.969 3.673 3.673 0 01-1.471 1.832 3.544 3.544 0 01-2.258.538 3.62 3.62 0 01-2.131-1.026 3.766 3.766 0 01-1.075-2.144c-.257-1.747.678-3.219 2.748-4.155zM40.56 53.211h17.79c1.39 0 2.05-.533 2.387-1.918l2.331-9.577c.059-.236.095-.479.15-.747H37.902c.89 4.09 1.767 8.137 2.658 12.242zm3.8 12.275a1.18 1.18 0 00.675-.184 1.22 1.22 0 00.46-.536 1.253 1.253 0 00-.22-1.348 1.175 1.175 0 00-1.302-.305 1.202 1.202 0 00-.55.437 1.245 1.245 0 00-.22.678c-.005.322.113.634.33.869.216.234.512.374.827.39zm15.58 0c.238.013.474-.047.678-.171.204-.124.368-.308.47-.528a1.253 1.253 0 00-.195-1.351 1.175 1.175 0 00-1.296-.33c-.223.082-.418.23-.56.426-.14.196-.221.43-.232.673-.01.322.103.636.315.875.212.239.506.385.82.406z" fill="#fff"/></g><defs><filter id="filter0_f_4183_12929" x=".001" y=".953" width="96.009" height="96.992" filterUnits="userSpaceOnUse" color-interpolation-filters="sRGB"><feFlood flood-opacity="0" result="BackgroundImageFix"/><feBlend in="SourceGraphic" in2="BackgroundImageFix" result="shape"/><feGaussianBlur stdDeviation="15" result="effect1_foregroundBlur_4183_12929"/></filter><filter id="filter1_f_4183_12929" x="15.001" y="15.953" width="66.009" height="66.992" filterUnits="userSpaceOnUse" color-interpolation-filters="sRGB"><feFlood flood-opacity="0" result="BackgroundImageFix"/><feBlend in="SourceGraphic" in2="BackgroundImageFix" result="shape"/><feGaussianBlur stdDeviation="7.5" result="effect1_foregroundBlur_4183_12929"/></filter><filter id="filter2_f_4183_12929" x="25.001" y="25.953" width="46.009" height="46.992" filterUnits="userSpaceOnUse" color-interpolation-filters="sRGB"><feFlood flood-opacity="0" result="BackgroundImageFix"/><feBlend in="SourceGraphic" in2="BackgroundImageFix" result="shape"/><feGaussianBlur stdDeviation="2.5" result="effect1_foregroundBlur_4183_12929"/></filter><filter id="filter3_d_4183_12929" x="26.001" y="30.953" width="44.009" height="44.992" filterUnits="userSpaceOnUse" color-interpolation-filters="sRGB"><feFlood flood-opacity="0" result="BackgroundImageFix"/><feColorMatrix in="SourceAlpha" values="0 0 0 0 0 0 0 0 0 0 0 0 0 0 0 0 0 0 127 0" result="hardAlpha"/><feOffset dy="4"/><feGaussianBlur stdDeviation="2"/><feComposite in2="hardAlpha" operator="out"/><feColorMatrix values="0 0 0 0 0 0 0 0 0 0 0 0 0 0 0 0 0 0 0.25 0"/><feBlend in2="BackgroundImageFix" result="effect1_dropShadow_4183_12929"/><feBlend in="SourceGraphic" in2="effect1_dropShadow_4183_12929" result="shape"/></filter></defs></svg>