<svg width="101" height="87" fill="none" xmlns="http://www.w3.org/2000/svg"><g filter="url(#filter0_f_4183_12923)"><path d="M34.98 42.223a.755.755 0 00.366-.508.786.786 0 00-.129-.616c-1.723-2.347-1.664-4.746.182-6.539a4.509 4.509 0 013.192-1.273 4.515 4.515 0 013.158 1.357c1.752 1.778 1.777 4.224.12 6.424a.78.78 0 00-.151.618.784.784 0 00.354.524l1.343.816a.734.734 0 00.743.011l2.194-1.235a.785.785 0 00.147-1.238c-1.254-1.23-1.898-2.819-1.77-4.78.106-1.595.784-2.911 1.942-3.968 2.332-2.13 5.977-1.91 8.091.45 1.711 1.91 2.413 5.527-.313 8.309a.772.772 0 00-.222.652.78.78 0 00.379.572l2.225 1.256a.74.74 0 00.744-.013l1.329-.811a.76.76 0 00.357-.544.788.788 0 00-.18-.629 4.612 4.612 0 01-.926-1.634 4.69 4.69 0 01-.204-1.878c.042-.6.2-1.187.467-1.723a4.48 4.48 0 011.086-1.4 4.478 4.478 0 013.163-1.147 4.494 4.494 0 013.068 1.39c1.738 1.8 1.764 4.1.086 6.402a.776.776 0 00.257 1.124c2.714 1.502 4.2 3.827 4.424 7.076a.789.789 0 01-.2.58.753.753 0 01-.55.244h-8.17a.739.739 0 00-.532.228.771.771 0 00-.218.546v1.205c-.05 2.369-1.81 4.227-4.116 4.246-3.855.032-7.71.035-11.565.008a4.923 4.923 0 01-1.925-.404 5.025 5.025 0 01-1.626-1.13 5.168 5.168 0 01-1.08-1.682 5.269 5.269 0 01-.37-1.978v-.221a.784.784 0 00-.216-.55.752.752 0 00-.534-.227h-8.125a.732.732 0 01-.497-.19.767.767 0 01-.248-.48c-.268-2.567 1.581-5.565 4.45-7.24zm15.466 12.81c2.006 0 4.01.015 6.017 0 1.827-.018 3.046-1.23 3.074-3.099.02-.8-.05-1.598-.212-2.381-1.037-4.783-5.393-7.942-10.013-7.301-4.69.642-8.053 4.749-7.914 9.645.056 1.928 1.224 3.121 3.112 3.136 1.983.012 3.962.001 5.936 0zm0-23.39a4.377 4.377 0 00-1.725.346 4.466 4.466 0 00-1.462 1.002c-.417.43-.747.94-.971 1.502a4.682 4.682 0 00-.331 1.77c.001.64.133 1.274.385 1.86a4.627 4.627 0 001.083 1.544 4.495 4.495 0 001.597.967 4.414 4.414 0 001.841.228 4.506 4.506 0 002.933-1.507 4.723 4.723 0 001.178-3.139 4.672 4.672 0 00-1.342-3.245 4.448 4.448 0 00-3.186-1.329zm18.68 17.15c-.105-2.483-1.96-4.889-4.35-5.762-2.323-.847-5.236-.269-6.52 1.232.607 1.084 1.386 2.087 1.739 3.212.374 1.209.996 1.382 2.076 1.344 2.334-.087 4.673-.026 7.055-.026zm-37.322-.08c.085.03.17.053.259.069 2.313 0 4.626.003 6.939.01 1.346 0 1.33 0 1.88-1.305.238-.56.517-1.1.833-1.619.335-.558.728-1.079 1.096-1.605a6.511 6.511 0 00-3.262-1.55 6.434 6.434 0 00-3.57.438c-2.402 1.036-3.76 2.915-4.181 5.562h.006zm9.978-10.802a3.415 3.415 0 00-.972-2.37 3.25 3.25 0 00-2.319-.979 3.3 3.3 0 00-2.313 1.002 3.465 3.465 0 00-.978 2.37 3.397 3.397 0 00.982 2.404 3.235 3.235 0 002.361.969 3.192 3.192 0 001.254-.265 3.257 3.257 0 001.057-.74 3.35 3.35 0 00.698-1.1 3.43 3.43 0 00.23-1.291zm20.479 3.372a3.24 3.24 0 001.313-.182c.421-.15.808-.387 1.138-.695.33-.308.596-.681.781-1.097.186-.416.288-.866.3-1.323.04-1.836-1.505-3.438-3.308-3.434a3.238 3.238 0 00-1.29.285 3.307 3.307 0 00-1.077.78 3.394 3.394 0 00-.695 1.149 3.413 3.413 0 00.73 3.519c.56.587 1.31.945 2.108 1.006v-.008z" fill="#15F2FD"/></g><g filter="url(#filter1_f_4183_12923)"><path d="M34.98 42.223a.755.755 0 00.366-.508.786.786 0 00-.129-.616c-1.723-2.347-1.664-4.746.182-6.539a4.509 4.509 0 013.192-1.273 4.515 4.515 0 013.158 1.357c1.752 1.778 1.777 4.224.12 6.424a.78.78 0 00-.151.618.784.784 0 00.354.524l1.343.816a.734.734 0 00.743.011l2.194-1.235a.785.785 0 00.147-1.238c-1.254-1.23-1.898-2.819-1.77-4.78.106-1.595.784-2.911 1.942-3.968 2.332-2.13 5.977-1.91 8.091.45 1.711 1.91 2.413 5.527-.313 8.309a.772.772 0 00-.222.652.78.78 0 00.379.572l2.225 1.256a.74.74 0 00.744-.013l1.329-.811a.76.76 0 00.357-.544.788.788 0 00-.18-.629 4.612 4.612 0 01-.926-1.634 4.69 4.69 0 01-.204-1.878c.042-.6.2-1.187.467-1.723a4.48 4.48 0 011.086-1.4 4.478 4.478 0 013.163-1.147 4.494 4.494 0 013.068 1.39c1.738 1.8 1.764 4.1.086 6.402a.776.776 0 00.257 1.124c2.714 1.502 4.2 3.827 4.424 7.076a.789.789 0 01-.2.58.753.753 0 01-.55.244h-8.17a.739.739 0 00-.532.228.771.771 0 00-.218.546v1.205c-.05 2.369-1.81 4.227-4.116 4.246-3.855.032-7.71.035-11.565.008a4.923 4.923 0 01-1.925-.404 5.025 5.025 0 01-1.626-1.13 5.168 5.168 0 01-1.08-1.682 5.269 5.269 0 01-.37-1.978v-.221a.784.784 0 00-.216-.55.752.752 0 00-.534-.227h-8.125a.732.732 0 01-.497-.19.767.767 0 01-.248-.48c-.268-2.567 1.581-5.565 4.45-7.24zm15.466 12.81c2.006 0 4.01.015 6.017 0 1.827-.018 3.046-1.23 3.074-3.099.02-.8-.05-1.598-.212-2.381-1.037-4.783-5.393-7.942-10.013-7.301-4.69.642-8.053 4.749-7.914 9.645.056 1.928 1.224 3.121 3.112 3.136 1.983.012 3.962.001 5.936 0zm0-23.39a4.377 4.377 0 00-1.725.346 4.466 4.466 0 00-1.462 1.002c-.417.43-.747.94-.971 1.502a4.682 4.682 0 00-.331 1.77c.001.64.133 1.274.385 1.86a4.627 4.627 0 001.083 1.544 4.495 4.495 0 001.597.967 4.414 4.414 0 001.841.228 4.506 4.506 0 002.933-1.507 4.723 4.723 0 001.178-3.139 4.672 4.672 0 00-1.342-3.245 4.448 4.448 0 00-3.186-1.329zm18.68 17.15c-.105-2.483-1.96-4.889-4.35-5.762-2.323-.847-5.236-.269-6.52 1.232.607 1.084 1.386 2.087 1.739 3.212.374 1.209.996 1.382 2.076 1.344 2.334-.087 4.673-.026 7.055-.026zm-37.322-.08c.085.03.17.053.259.069 2.313 0 4.626.003 6.939.01 1.346 0 1.33 0 1.88-1.305.238-.56.517-1.1.833-1.619.335-.558.728-1.079 1.096-1.605a6.511 6.511 0 00-3.262-1.55 6.434 6.434 0 00-3.57.438c-2.402 1.036-3.76 2.915-4.181 5.562h.006zm9.978-10.802a3.415 3.415 0 00-.972-2.37 3.25 3.25 0 00-2.319-.979 3.3 3.3 0 00-2.313 1.002 3.465 3.465 0 00-.978 2.37 3.397 3.397 0 00.982 2.404 3.235 3.235 0 002.361.969 3.192 3.192 0 001.254-.265 3.257 3.257 0 001.057-.74 3.35 3.35 0 00.698-1.1 3.43 3.43 0 00.23-1.291zm20.479 3.372a3.24 3.24 0 001.313-.182c.421-.15.808-.387 1.138-.695.33-.308.596-.681.781-1.097.186-.416.288-.866.3-1.323.04-1.836-1.505-3.438-3.308-3.434a3.238 3.238 0 00-1.29.285 3.307 3.307 0 00-1.077.78 3.394 3.394 0 00-.695 1.149 3.413 3.413 0 00.73 3.519c.56.587 1.31.945 2.108 1.006v-.008z" fill="#15F2FD"/></g><g filter="url(#filter2_f_4183_12923)"><path d="M34.98 42.223a.755.755 0 00.366-.508.786.786 0 00-.129-.616c-1.723-2.347-1.664-4.746.182-6.539a4.509 4.509 0 013.192-1.273 4.515 4.515 0 013.158 1.357c1.752 1.778 1.777 4.224.12 6.424a.78.78 0 00-.151.618.784.784 0 00.354.524l1.343.816a.734.734 0 00.743.011l2.194-1.235a.785.785 0 00.147-1.238c-1.254-1.23-1.898-2.819-1.77-4.78.106-1.595.784-2.911 1.942-3.968 2.332-2.13 5.977-1.91 8.091.45 1.711 1.91 2.413 5.527-.313 8.309a.772.772 0 00-.222.652.78.78 0 00.379.572l2.225 1.256a.74.74 0 00.744-.013l1.329-.811a.76.76 0 00.357-.544.788.788 0 00-.18-.629 4.612 4.612 0 01-.926-1.634 4.69 4.69 0 01-.204-1.878c.042-.6.2-1.187.467-1.723a4.48 4.48 0 011.086-1.4 4.478 4.478 0 013.163-1.147 4.494 4.494 0 013.068 1.39c1.738 1.8 1.764 4.1.086 6.402a.776.776 0 00.257 1.124c2.714 1.502 4.2 3.827 4.424 7.076a.789.789 0 01-.2.58.753.753 0 01-.55.244h-8.17a.739.739 0 00-.532.228.771.771 0 00-.218.546v1.205c-.05 2.369-1.81 4.227-4.116 4.246-3.855.032-7.71.035-11.565.008a4.923 4.923 0 01-1.925-.404 5.025 5.025 0 01-1.626-1.13 5.168 5.168 0 01-1.08-1.682 5.269 5.269 0 01-.37-1.978v-.221a.784.784 0 00-.216-.55.752.752 0 00-.534-.227h-8.125a.732.732 0 01-.497-.19.767.767 0 01-.248-.48c-.268-2.567 1.581-5.565 4.45-7.24zm15.466 12.81c2.006 0 4.01.015 6.017 0 1.827-.018 3.046-1.23 3.074-3.099.02-.8-.05-1.598-.212-2.381-1.037-4.783-5.393-7.942-10.013-7.301-4.69.642-8.053 4.749-7.914 9.645.056 1.928 1.224 3.121 3.112 3.136 1.983.012 3.962.001 5.936 0zm0-23.39a4.377 4.377 0 00-1.725.346 4.466 4.466 0 00-1.462 1.002c-.417.43-.747.94-.971 1.502a4.682 4.682 0 00-.331 1.77c.001.64.133 1.274.385 1.86a4.627 4.627 0 001.083 1.544 4.495 4.495 0 001.597.967 4.414 4.414 0 001.841.228 4.506 4.506 0 002.933-1.507 4.723 4.723 0 001.178-3.139 4.672 4.672 0 00-1.342-3.245 4.448 4.448 0 00-3.186-1.329zm18.68 17.15c-.105-2.483-1.96-4.889-4.35-5.762-2.323-.847-5.236-.269-6.52 1.232.607 1.084 1.386 2.087 1.739 3.212.374 1.209.996 1.382 2.076 1.344 2.334-.087 4.673-.026 7.055-.026zm-37.322-.08c.085.03.17.053.259.069 2.313 0 4.626.003 6.939.01 1.346 0 1.33 0 1.88-1.305.238-.56.517-1.1.833-1.619.335-.558.728-1.079 1.096-1.605a6.511 6.511 0 00-3.262-1.55 6.434 6.434 0 00-3.57.438c-2.402 1.036-3.76 2.915-4.181 5.562h.006zm9.978-10.802a3.415 3.415 0 00-.972-2.37 3.25 3.25 0 00-2.319-.979 3.3 3.3 0 00-2.313 1.002 3.465 3.465 0 00-.978 2.37 3.397 3.397 0 00.982 2.404 3.235 3.235 0 002.361.969 3.192 3.192 0 001.254-.265 3.257 3.257 0 001.057-.74 3.35 3.35 0 00.698-1.1 3.43 3.43 0 00.23-1.291zm20.479 3.372a3.24 3.24 0 001.313-.182c.421-.15.808-.387 1.138-.695.33-.308.596-.681.781-1.097.186-.416.288-.866.3-1.323.04-1.836-1.505-3.438-3.308-3.434a3.238 3.238 0 00-1.29.285 3.307 3.307 0 00-1.077.78 3.394 3.394 0 00-.695 1.149 3.413 3.413 0 00.73 3.519c.56.587 1.31.945 2.108 1.006v-.008z" fill="#15F2FD"/></g><g filter="url(#filter3_d_4183_12923)"><path d="M34.98 42.223a.755.755 0 00.366-.508.786.786 0 00-.129-.616c-1.723-2.347-1.664-4.746.182-6.539a4.509 4.509 0 013.192-1.273 4.515 4.515 0 013.158 1.357c1.752 1.778 1.777 4.224.12 6.424a.78.78 0 00-.151.618.784.784 0 00.354.524l1.343.816a.734.734 0 00.743.011l2.194-1.235a.785.785 0 00.147-1.238c-1.254-1.23-1.898-2.819-1.77-4.78.106-1.595.784-2.911 1.942-3.968 2.332-2.13 5.977-1.91 8.091.45 1.711 1.91 2.413 5.527-.313 8.309a.772.772 0 00-.222.652.78.78 0 00.379.572l2.225 1.256a.74.74 0 00.744-.013l1.329-.811a.76.76 0 00.357-.544.788.788 0 00-.18-.629 4.612 4.612 0 01-.926-1.634 4.69 4.69 0 01-.204-1.878c.042-.6.2-1.187.467-1.723a4.48 4.48 0 011.086-1.4 4.478 4.478 0 013.163-1.147 4.494 4.494 0 013.068 1.39c1.738 1.8 1.764 4.1.086 6.402a.776.776 0 00.257 1.124c2.714 1.502 4.2 3.827 4.424 7.076a.789.789 0 01-.2.58.753.753 0 01-.55.244h-8.17a.739.739 0 00-.532.228.771.771 0 00-.218.546v1.205c-.05 2.369-1.81 4.227-4.116 4.246-3.855.032-7.71.035-11.565.008a4.923 4.923 0 01-1.925-.404 5.025 5.025 0 01-1.626-1.13 5.168 5.168 0 01-1.08-1.682 5.269 5.269 0 01-.37-1.978v-.221a.784.784 0 00-.216-.55.752.752 0 00-.534-.227h-8.125a.732.732 0 01-.497-.19.767.767 0 01-.248-.48c-.268-2.567 1.581-5.565 4.45-7.24zm15.466 12.81c2.006 0 4.01.015 6.017 0 1.827-.018 3.046-1.23 3.074-3.099.02-.8-.05-1.598-.212-2.381-1.037-4.783-5.393-7.942-10.013-7.301-4.69.642-8.053 4.749-7.914 9.645.056 1.928 1.224 3.121 3.112 3.136 1.983.012 3.962.001 5.936 0zm0-23.39a4.377 4.377 0 00-1.725.346 4.466 4.466 0 00-1.462 1.002c-.417.43-.747.94-.971 1.502a4.682 4.682 0 00-.331 1.77c.001.64.133 1.274.385 1.86a4.627 4.627 0 001.083 1.544 4.495 4.495 0 001.597.967 4.414 4.414 0 001.841.228 4.506 4.506 0 002.933-1.507 4.723 4.723 0 001.178-3.139 4.672 4.672 0 00-1.342-3.245 4.448 4.448 0 00-3.186-1.329zm18.68 17.15c-.105-2.483-1.96-4.889-4.35-5.762-2.323-.847-5.236-.269-6.52 1.232.607 1.084 1.386 2.087 1.739 3.212.374 1.209.996 1.382 2.076 1.344 2.334-.087 4.673-.026 7.055-.026zm-37.322-.08c.085.03.17.053.259.069 2.313 0 4.626.003 6.939.01 1.346 0 1.33 0 1.88-1.305.238-.56.517-1.1.833-1.619.335-.558.728-1.079 1.096-1.605a6.511 6.511 0 00-3.262-1.55 6.434 6.434 0 00-3.57.438c-2.402 1.036-3.76 2.915-4.181 5.562h.006zm9.978-10.802a3.415 3.415 0 00-.972-2.37 3.25 3.25 0 00-2.319-.979 3.3 3.3 0 00-2.313 1.002 3.465 3.465 0 00-.978 2.37 3.397 3.397 0 00.982 2.404 3.235 3.235 0 002.361.969 3.192 3.192 0 001.254-.265 3.257 3.257 0 001.057-.74 3.35 3.35 0 00.698-1.1 3.43 3.43 0 00.23-1.291zm20.479 3.372a3.24 3.24 0 001.313-.182c.421-.15.808-.387 1.138-.695.33-.308.596-.681.781-1.097.186-.416.288-.866.3-1.323.04-1.836-1.505-3.438-3.308-3.434a3.238 3.238 0 00-1.29.285 3.307 3.307 0 00-1.077.78 3.394 3.394 0 00-.695 1.149 3.413 3.413 0 00.73 3.519c.56.587 1.31.945 2.108 1.006v-.008z" fill="#fff"/></g><defs><filter id="filter0_f_4183_12923" x=".505" y=".348" width="99.999" height="85.996" filterUnits="userSpaceOnUse" color-interpolation-filters="sRGB"><feFlood flood-opacity="0" result="BackgroundImageFix"/><feBlend in="SourceGraphic" in2="BackgroundImageFix" result="shape"/><feGaussianBlur stdDeviation="15" result="effect1_foregroundBlur_4183_12923"/></filter><filter id="filter1_f_4183_12923" x="15.505" y="15.348" width="69.999" height="55.996" filterUnits="userSpaceOnUse" color-interpolation-filters="sRGB"><feFlood flood-opacity="0" result="BackgroundImageFix"/><feBlend in="SourceGraphic" in2="BackgroundImageFix" result="shape"/><feGaussianBlur stdDeviation="7.5" result="effect1_foregroundBlur_4183_12923"/></filter><filter id="filter2_f_4183_12923" x="25.505" y="25.348" width="49.999" height="35.996" filterUnits="userSpaceOnUse" color-interpolation-filters="sRGB"><feFlood flood-opacity="0" result="BackgroundImageFix"/><feBlend in="SourceGraphic" in2="BackgroundImageFix" result="shape"/><feGaussianBlur stdDeviation="2.5" result="effect1_foregroundBlur_4183_12923"/></filter><filter id="filter3_d_4183_12923" x="26.505" y="30.348" width="47.999" height="33.996" filterUnits="userSpaceOnUse" color-interpolation-filters="sRGB"><feFlood flood-opacity="0" result="BackgroundImageFix"/><feColorMatrix in="SourceAlpha" values="0 0 0 0 0 0 0 0 0 0 0 0 0 0 0 0 0 0 127 0" result="hardAlpha"/><feOffset dy="4"/><feGaussianBlur stdDeviation="2"/><feComposite in2="hardAlpha" operator="out"/><feColorMatrix values="0 0 0 0 0 0 0 0 0 0 0 0 0 0 0 0 0 0 0.25 0"/><feBlend in2="BackgroundImageFix" result="effect1_dropShadow_4183_12923"/><feBlend in="SourceGraphic" in2="effect1_dropShadow_4183_12923" result="shape"/></filter></defs></svg>