<svg width="88" height="88" fill="none" xmlns="http://www.w3.org/2000/svg"><g filter="url(#filter0_f_4183_12917)"><path d="M49.168 51.729c-5.782 4.14-12.846 2.634-16.572-2.002-3.638-4.526-3.438-11.208.506-15.469a11.959 11.959 0 0115.498-1.8c4.503 3.013 7.505 10.426 2.795 17.078l4.557 4.537c.195.194.398.381.58.587.643.727.633 1.65-.022 2.281-.63.6-1.546.632-2.224-.018-1.138-1.089-2.242-2.212-3.349-3.331-.603-.603-1.173-1.231-1.77-1.863zm-7.334-.772a8.653 8.653 0 008.05-5.294 8.635 8.635 0 00.675-3.314 8.68 8.68 0 00-5.334-8.086 8.699 8.699 0 00-3.337-.674c-4.764-.015-8.688 3.892-8.705 8.667a8.677 8.677 0 002.525 6.139 8.69 8.69 0 006.126 2.562z" fill="#15F2FD"/></g><g filter="url(#filter1_f_4183_12917)"><path d="M49.168 51.729c-5.782 4.14-12.846 2.634-16.572-2.002-3.638-4.526-3.438-11.208.506-15.469a11.959 11.959 0 0115.498-1.8c4.503 3.013 7.505 10.426 2.795 17.078l4.557 4.537c.195.194.398.381.58.587.643.727.633 1.65-.022 2.281-.63.6-1.546.632-2.224-.018-1.138-1.089-2.242-2.212-3.349-3.331-.603-.603-1.173-1.231-1.77-1.863zm-7.334-.772a8.653 8.653 0 008.05-5.294 8.635 8.635 0 00.675-3.314 8.68 8.68 0 00-5.334-8.086 8.699 8.699 0 00-3.337-.674c-4.764-.015-8.688 3.892-8.705 8.667a8.677 8.677 0 002.525 6.139 8.69 8.69 0 006.126 2.562z" fill="#15F2FD"/></g><g filter="url(#filter2_f_4183_12917)"><path d="M49.168 51.729c-5.782 4.14-12.846 2.634-16.572-2.002-3.638-4.526-3.438-11.208.506-15.469a11.959 11.959 0 0115.498-1.8c4.503 3.013 7.505 10.426 2.795 17.078l4.557 4.537c.195.194.398.381.58.587.643.727.633 1.65-.022 2.281-.63.6-1.546.632-2.224-.018-1.138-1.089-2.242-2.212-3.349-3.331-.603-.603-1.173-1.231-1.77-1.863zm-7.334-.772a8.653 8.653 0 008.05-5.294 8.635 8.635 0 00.675-3.314 8.68 8.68 0 00-5.334-8.086 8.699 8.699 0 00-3.337-.674c-4.764-.015-8.688 3.892-8.705 8.667a8.677 8.677 0 002.525 6.139 8.69 8.69 0 006.126 2.562z" fill="#15F2FD"/></g><g filter="url(#filter3_d_4183_12917)"><path d="M49.168 51.729c-5.782 4.14-12.846 2.634-16.572-2.002-3.638-4.526-3.438-11.208.506-15.469a11.959 11.959 0 0115.498-1.8c4.503 3.013 7.505 10.426 2.795 17.078l4.557 4.537c.195.194.398.381.58.587.643.727.633 1.65-.022 2.281-.63.6-1.546.632-2.224-.018-1.138-1.089-2.242-2.212-3.349-3.331-.603-.603-1.173-1.231-1.77-1.863zm-7.334-.772a8.653 8.653 0 008.05-5.294 8.635 8.635 0 00.675-3.314 8.68 8.68 0 00-5.334-8.086 8.699 8.699 0 00-3.337-.674c-4.764-.015-8.688 3.892-8.705 8.667a8.677 8.677 0 002.525 6.139 8.69 8.69 0 006.126 2.562z" fill="#fff"/></g><defs><filter id="filter0_f_4183_12917" x="0" y=".404" width="87.008" height="86.997" filterUnits="userSpaceOnUse" color-interpolation-filters="sRGB"><feFlood flood-opacity="0" result="BackgroundImageFix"/><feBlend in="SourceGraphic" in2="BackgroundImageFix" result="shape"/><feGaussianBlur stdDeviation="15" result="effect1_foregroundBlur_4183_12917"/></filter><filter id="filter1_f_4183_12917" x="14.999" y="15.404" width="57.008" height="56.997" filterUnits="userSpaceOnUse" color-interpolation-filters="sRGB"><feFlood flood-opacity="0" result="BackgroundImageFix"/><feBlend in="SourceGraphic" in2="BackgroundImageFix" result="shape"/><feGaussianBlur stdDeviation="7.5" result="effect1_foregroundBlur_4183_12917"/></filter><filter id="filter2_f_4183_12917" x="25" y="25.404" width="37.008" height="36.997" filterUnits="userSpaceOnUse" color-interpolation-filters="sRGB"><feFlood flood-opacity="0" result="BackgroundImageFix"/><feBlend in="SourceGraphic" in2="BackgroundImageFix" result="shape"/><feGaussianBlur stdDeviation="2.5" result="effect1_foregroundBlur_4183_12917"/></filter><filter id="filter3_d_4183_12917" x="26" y="30.404" width="35.008" height="34.997" filterUnits="userSpaceOnUse" color-interpolation-filters="sRGB"><feFlood flood-opacity="0" result="BackgroundImageFix"/><feColorMatrix in="SourceAlpha" values="0 0 0 0 0 0 0 0 0 0 0 0 0 0 0 0 0 0 127 0" result="hardAlpha"/><feOffset dy="4"/><feGaussianBlur stdDeviation="2"/><feComposite in2="hardAlpha" operator="out"/><feColorMatrix values="0 0 0 0 0 0 0 0 0 0 0 0 0 0 0 0 0 0 0.25 0"/><feBlend in2="BackgroundImageFix" result="effect1_dropShadow_4183_12917"/><feBlend in="SourceGraphic" in2="effect1_dropShadow_4183_12917" result="shape"/></filter></defs></svg>