<svg width="100" height="94" fill="none" xmlns="http://www.w3.org/2000/svg"><g filter="url(#filter0_f_4183_12909)"><path d="M39.758 56.337c-.77-.548-1.621-.952-2.202-1.608a20.352 20.352 0 01-2.349-3.288c-.538-.922-.437-1.04-.052-2.047-1.587-1.512-2.584-3.375-2.876-5.611-.13-.992-.234-2 .965-2.453-1.308-2.773-1.324-5.5-.012-8.214.667-1.381 1.551-1.478 2.542-.318 3.333 3.902 7.494 6.249 12.483 7.041.125.02.251.021.388.034.1-.776.136-1.544.301-2.282 1.415-6.31 8.966-9.127 13.939-5.128 1.315 1.057 2.543 1.035 3.936.545.337-.12.638-.39.978-.448.474-.078 1.092-.201 1.417.033.325.235.535.897.516 1.357-.063 1.55-.73 2.895-1.586 4.145-.087.163-.198.31-.328.438-1.328 1.027-1.422 2.489-1.541 4.045-.783 10.496-8.834 19.239-18.985 20.748-5.597.833-10.826-.159-15.686-3.16-.49-.303-.886-.652-.876-1.288.014-.841.675-1.32 1.63-1.218 2.427.266 4.754-.149 6.999-1.11a4.36 4.36 0 00.4-.213zm26.913-20.333l-.174-.15c-.795 0-1.607.112-2.376-.033-.724-.135-1.541-.374-2.073-.853-2.193-1.967-4.945-2.394-7.496-.994-2.465 1.355-3.8 4.045-3.236 6.824.26 1.27-.296 1.845-1.552 1.758-5.454-.377-10.17-2.506-14.198-6.306-.19-.181-.391-.351-.672-.599-.477 2.904.358 5.106 2.539 6.75.534.401.818.898.591 1.564-.24.708-.801.913-1.482.843-.495-.05-.988-.106-1.552-.167.86 2.36 2.427 3.773 4.711 4.352.661.166 1.031.565 1.026 1.279-.004.714-.433 1.1-1.07 1.252-.44.106-.893.158-1.364.254.016.081.044.16.083.233.107.148.223.289.348.42 1.15 1.19 2.526 1.892 4.16 1.987.665.04 1.234.205 1.462.922.239.762-.18 1.237-.744 1.652a16.502 16.502 0 01-5.457 2.676c-.278.076-.55.166-.827.25a18.457 18.457 0 0010.275.775c9.841-1.985 16.5-10.486 16.335-20.83-.01-.703.233-1.165.73-1.633.733-.682 1.35-1.482 2.013-2.226z" fill="#15F2FD"/></g><g filter="url(#filter1_f_4183_12909)"><path d="M39.758 56.337c-.77-.548-1.621-.952-2.202-1.608a20.352 20.352 0 01-2.349-3.288c-.538-.922-.437-1.04-.052-2.047-1.587-1.512-2.584-3.375-2.876-5.611-.13-.992-.234-2 .965-2.453-1.308-2.773-1.324-5.5-.012-8.214.667-1.381 1.551-1.478 2.542-.318 3.333 3.902 7.494 6.249 12.483 7.041.125.02.251.021.388.034.1-.776.136-1.544.301-2.282 1.415-6.31 8.966-9.127 13.939-5.128 1.315 1.057 2.543 1.035 3.936.545.337-.12.638-.39.978-.448.474-.078 1.092-.201 1.417.033.325.235.535.897.516 1.357-.063 1.55-.73 2.895-1.586 4.145-.087.163-.198.31-.328.438-1.328 1.027-1.422 2.489-1.541 4.045-.783 10.496-8.834 19.239-18.985 20.748-5.597.833-10.826-.159-15.686-3.16-.49-.303-.886-.652-.876-1.288.014-.841.675-1.32 1.63-1.218 2.427.266 4.754-.149 6.999-1.11a4.36 4.36 0 00.4-.213zm26.913-20.333l-.174-.15c-.795 0-1.607.112-2.376-.033-.724-.135-1.541-.374-2.073-.853-2.193-1.967-4.945-2.394-7.496-.994-2.465 1.355-3.8 4.045-3.236 6.824.26 1.27-.296 1.845-1.552 1.758-5.454-.377-10.17-2.506-14.198-6.306-.19-.181-.391-.351-.672-.599-.477 2.904.358 5.106 2.539 6.75.534.401.818.898.591 1.564-.24.708-.801.913-1.482.843-.495-.05-.988-.106-1.552-.167.86 2.36 2.427 3.773 4.711 4.352.661.166 1.031.565 1.026 1.279-.004.714-.433 1.1-1.07 1.252-.44.106-.893.158-1.364.254.016.081.044.16.083.233.107.148.223.289.348.42 1.15 1.19 2.526 1.892 4.16 1.987.665.04 1.234.205 1.462.922.239.762-.18 1.237-.744 1.652a16.502 16.502 0 01-5.457 2.676c-.278.076-.55.166-.827.25a18.457 18.457 0 0010.275.775c9.841-1.985 16.5-10.486 16.335-20.83-.01-.703.233-1.165.73-1.633.733-.682 1.35-1.482 2.013-2.226z" fill="#15F2FD"/></g><g filter="url(#filter2_f_4183_12909)"><path d="M39.758 56.337c-.77-.548-1.621-.952-2.202-1.608a20.352 20.352 0 01-2.349-3.288c-.538-.922-.437-1.04-.052-2.047-1.587-1.512-2.584-3.375-2.876-5.611-.13-.992-.234-2 .965-2.453-1.308-2.773-1.324-5.5-.012-8.214.667-1.381 1.551-1.478 2.542-.318 3.333 3.902 7.494 6.249 12.483 7.041.125.02.251.021.388.034.1-.776.136-1.544.301-2.282 1.415-6.31 8.966-9.127 13.939-5.128 1.315 1.057 2.543 1.035 3.936.545.337-.12.638-.39.978-.448.474-.078 1.092-.201 1.417.033.325.235.535.897.516 1.357-.063 1.55-.73 2.895-1.586 4.145-.087.163-.198.31-.328.438-1.328 1.027-1.422 2.489-1.541 4.045-.783 10.496-8.834 19.239-18.985 20.748-5.597.833-10.826-.159-15.686-3.16-.49-.303-.886-.652-.876-1.288.014-.841.675-1.32 1.63-1.218 2.427.266 4.754-.149 6.999-1.11a4.36 4.36 0 00.4-.213zm26.913-20.333l-.174-.15c-.795 0-1.607.112-2.376-.033-.724-.135-1.541-.374-2.073-.853-2.193-1.967-4.945-2.394-7.496-.994-2.465 1.355-3.8 4.045-3.236 6.824.26 1.27-.296 1.845-1.552 1.758-5.454-.377-10.17-2.506-14.198-6.306-.19-.181-.391-.351-.672-.599-.477 2.904.358 5.106 2.539 6.75.534.401.818.898.591 1.564-.24.708-.801.913-1.482.843-.495-.05-.988-.106-1.552-.167.86 2.36 2.427 3.773 4.711 4.352.661.166 1.031.565 1.026 1.279-.004.714-.433 1.1-1.07 1.252-.44.106-.893.158-1.364.254.016.081.044.16.083.233.107.148.223.289.348.42 1.15 1.19 2.526 1.892 4.16 1.987.665.04 1.234.205 1.462.922.239.762-.18 1.237-.744 1.652a16.502 16.502 0 01-5.457 2.676c-.278.076-.55.166-.827.25a18.457 18.457 0 0010.275.775c9.841-1.985 16.5-10.486 16.335-20.83-.01-.703.233-1.165.73-1.633.733-.682 1.35-1.482 2.013-2.226z" fill="#15F2FD"/></g><g filter="url(#filter3_d_4183_12909)"><path d="M39.758 56.337c-.77-.548-1.621-.952-2.202-1.608a20.352 20.352 0 01-2.349-3.288c-.538-.922-.437-1.04-.052-2.047-1.587-1.512-2.584-3.375-2.876-5.611-.13-.992-.234-2 .965-2.453-1.308-2.773-1.324-5.5-.012-8.214.667-1.381 1.551-1.478 2.542-.318 3.333 3.902 7.494 6.249 12.483 7.041.125.02.251.021.388.034.1-.776.136-1.544.301-2.282 1.415-6.31 8.966-9.127 13.939-5.128 1.315 1.057 2.543 1.035 3.936.545.337-.12.638-.39.978-.448.474-.078 1.092-.201 1.417.033.325.235.535.897.516 1.357-.063 1.55-.73 2.895-1.586 4.145-.087.163-.198.31-.328.438-1.328 1.027-1.422 2.489-1.541 4.045-.783 10.496-8.834 19.239-18.985 20.748-5.597.833-10.826-.159-15.686-3.16-.49-.303-.886-.652-.876-1.288.014-.841.675-1.32 1.63-1.218 2.427.266 4.754-.149 6.999-1.11a4.36 4.36 0 00.4-.213zm26.913-20.333l-.174-.15c-.795 0-1.607.112-2.376-.033-.724-.135-1.541-.374-2.073-.853-2.193-1.967-4.945-2.394-7.496-.994-2.465 1.355-3.8 4.045-3.236 6.824.26 1.27-.296 1.845-1.552 1.758-5.454-.377-10.17-2.506-14.198-6.306-.19-.181-.391-.351-.672-.599-.477 2.904.358 5.106 2.539 6.75.534.401.818.898.591 1.564-.24.708-.801.913-1.482.843-.495-.05-.988-.106-1.552-.167.86 2.36 2.427 3.773 4.711 4.352.661.166 1.031.565 1.026 1.279-.004.714-.433 1.1-1.07 1.252-.44.106-.893.158-1.364.254.016.081.044.16.083.233.107.148.223.289.348.42 1.15 1.19 2.526 1.892 4.16 1.987.665.04 1.234.205 1.462.922.239.762-.18 1.237-.744 1.652a16.502 16.502 0 01-5.457 2.676c-.278.076-.55.166-.827.25a18.457 18.457 0 0010.275.775c9.841-1.985 16.5-10.486 16.335-20.83-.01-.703.233-1.165.73-1.633.733-.682 1.35-1.482 2.013-2.226z" fill="#fff"/></g><defs><filter id="filter0_f_4183_12909" x=".73" y=".609" width="99.003" height="93" filterUnits="userSpaceOnUse" color-interpolation-filters="sRGB"><feFlood flood-opacity="0" result="BackgroundImageFix"/><feBlend in="SourceGraphic" in2="BackgroundImageFix" result="shape"/><feGaussianBlur stdDeviation="15" result="effect1_foregroundBlur_4183_12909"/></filter><filter id="filter1_f_4183_12909" x="15.73" y="15.609" width="69.003" height="63" filterUnits="userSpaceOnUse" color-interpolation-filters="sRGB"><feFlood flood-opacity="0" result="BackgroundImageFix"/><feBlend in="SourceGraphic" in2="BackgroundImageFix" result="shape"/><feGaussianBlur stdDeviation="7.5" result="effect1_foregroundBlur_4183_12909"/></filter><filter id="filter2_f_4183_12909" x="25.73" y="25.609" width="49.003" height="43" filterUnits="userSpaceOnUse" color-interpolation-filters="sRGB"><feFlood flood-opacity="0" result="BackgroundImageFix"/><feBlend in="SourceGraphic" in2="BackgroundImageFix" result="shape"/><feGaussianBlur stdDeviation="2.5" result="effect1_foregroundBlur_4183_12909"/></filter><filter id="filter3_d_4183_12909" x="26.73" y="30.609" width="47.003" height="41" filterUnits="userSpaceOnUse" color-interpolation-filters="sRGB"><feFlood flood-opacity="0" result="BackgroundImageFix"/><feColorMatrix in="SourceAlpha" values="0 0 0 0 0 0 0 0 0 0 0 0 0 0 0 0 0 0 127 0" result="hardAlpha"/><feOffset dy="4"/><feGaussianBlur stdDeviation="2"/><feComposite in2="hardAlpha" operator="out"/><feColorMatrix values="0 0 0 0 0 0 0 0 0 0 0 0 0 0 0 0 0 0 0.25 0"/><feBlend in2="BackgroundImageFix" result="effect1_dropShadow_4183_12909"/><feBlend in="SourceGraphic" in2="effect1_dropShadow_4183_12909" result="shape"/></filter></defs></svg>