<svg width="124" height="118" fill="none" xmlns="http://www.w3.org/2000/svg"><g filter="url(#filter0_f_4183_12822)" fill="#15F2FD"><path d="M52.327 65.51c-.582 2.385-1.139 4.68-1.703 6.973-.318 1.296-.496 1.436-1.781 1.438-.874 0-1.747.01-2.62 0-.956-.014-1.313-.37-1.319-1.346-.01-2.075 0-4.148 0-6.223v-.968c-.618 0-1.163.011-1.708 0-1.813-.042-3.144-1.367-3.175-3.2a192.725 192.725 0 010-5.69c.028-1.834 1.364-3.172 3.177-3.2 1.893-.024 3.79-.099 5.676.015 3.277.196 6.345-.572 9.348-1.789 4.03-1.634 7.805-3.698 10.93-6.826.299-.334.487-.755.54-1.204.184-1.536 1.396-2.69 2.89-2.647a2.77 2.77 0 011.883.82c.503.507.799 1.19.827 1.91.039.888.01 1.777.01 2.666v28.184c.017.442-.023.885-.118 1.317a2.796 2.796 0 01-1.071 1.586 2.71 2.71 0 01-1.825.505c-1.346-.103-2.396-1.202-2.599-2.582a2.467 2.467 0 00-.623-1.346c-4.511-4.301-9.926-6.835-15.873-8.305a6.539 6.539 0 00-.866-.087zm.299-2.227c6.33 1.333 11.983 3.993 17.02 8.163V47.23c-5.065 4.184-10.719 6.844-17.02 8.165v7.888zm20.57-18.849c0-.266.079-.584-.035-.787-.148-.265-.434-.571-.698-.608-.185-.027-.484.33-.625.578-.103.177-.035.462-.035.698v30.017c0 .236-.075.533.031.697.166.261.438.57.699.61.185.025.497-.327.625-.58.106-.212.037-.52.037-.788l.001-29.837zM47.047 55.47v7.723h3.382V55.47h-3.382zm-2.206 7.728v-7.77h-1.27c-1.124.01-1.454.338-1.46 1.469 0 1.27.022 2.542 0 3.814-.06 2.418-.033 2.695 2.73 2.487zm2.178 8.589c.338.026.678.021 1.015-.015.241-.05.613-.177.659-.355.524-1.967.988-3.948 1.477-5.957h-3.144l-.007 6.327zm33.963-22.96c.35.375.805.635.873.976.068.342-.117.976-.386 1.133a25.679 25.679 0 01-3.456 1.675c-.282.112-.901-.151-1.081-.43-.18-.28-.154-1.05.041-1.17 1.258-.772 2.584-1.427 4.009-2.184zm.048 20.916c-.38-.144-.602-.21-.808-.31-.945-.456-1.89-.91-2.822-1.388-.554-.285-.858-.74-.587-1.38.27-.64.808-.843 1.436-.553 1.056.49 2.13.959 3.115 1.574.311.192.524.84.474 1.244-.035.312-.543.566-.807.813zm.2-9.337c-.552 0-1.106.013-1.658 0-.68-.02-1.124-.368-1.12-1.08 0-.668.427-1.029 1.068-1.043a98.79 98.79 0 013.404 0c.646 0 1.065.372 1.076 1.033.01.712-.426 1.067-1.111 1.09-.55.013-1.102 0-1.66 0z"/></g><g filter="url(#filter1_f_4183_12822)" fill="#15F2FD"><path d="M52.327 65.51c-.582 2.385-1.139 4.68-1.703 6.973-.318 1.296-.496 1.436-1.781 1.438-.874 0-1.747.01-2.62 0-.956-.014-1.313-.37-1.319-1.346-.01-2.075 0-4.148 0-6.223v-.968c-.618 0-1.163.011-1.708 0-1.813-.042-3.144-1.367-3.175-3.2a192.725 192.725 0 010-5.69c.028-1.834 1.364-3.172 3.177-3.2 1.893-.024 3.79-.099 5.676.015 3.277.196 6.345-.572 9.348-1.789 4.03-1.634 7.805-3.698 10.93-6.826.299-.334.487-.755.54-1.204.184-1.536 1.396-2.69 2.89-2.647a2.77 2.77 0 011.883.82c.503.507.799 1.19.827 1.91.039.888.01 1.777.01 2.666v28.184c.017.442-.023.885-.118 1.317a2.796 2.796 0 01-1.071 1.586 2.71 2.71 0 01-1.825.505c-1.346-.103-2.396-1.202-2.599-2.582a2.467 2.467 0 00-.623-1.346c-4.511-4.301-9.926-6.835-15.873-8.305a6.539 6.539 0 00-.866-.087zm.299-2.227c6.33 1.333 11.983 3.993 17.02 8.163V47.23c-5.065 4.184-10.719 6.844-17.02 8.165v7.888zm20.57-18.849c0-.266.079-.584-.035-.787-.148-.265-.434-.571-.698-.608-.185-.027-.484.33-.625.578-.103.177-.035.462-.035.698v30.017c0 .236-.075.533.031.697.166.261.438.57.699.61.185.025.497-.327.625-.58.106-.212.037-.52.037-.788l.001-29.837zM47.047 55.47v7.723h3.382V55.47h-3.382zm-2.206 7.728v-7.77h-1.27c-1.124.01-1.454.338-1.46 1.469 0 1.27.022 2.542 0 3.814-.06 2.418-.033 2.695 2.73 2.487zm2.178 8.589c.338.026.678.021 1.015-.015.241-.05.613-.177.659-.355.524-1.967.988-3.948 1.477-5.957h-3.144l-.007 6.327zm33.963-22.96c.35.375.805.635.873.976.068.342-.117.976-.386 1.133a25.679 25.679 0 01-3.456 1.675c-.282.112-.901-.151-1.081-.43-.18-.28-.154-1.05.041-1.17 1.258-.772 2.584-1.427 4.009-2.184zm.048 20.916c-.38-.144-.602-.21-.808-.31-.945-.456-1.89-.91-2.822-1.388-.554-.285-.858-.74-.587-1.38.27-.64.808-.843 1.436-.553 1.056.49 2.13.959 3.115 1.574.311.192.524.84.474 1.244-.035.312-.543.566-.807.813zm.2-9.337c-.552 0-1.106.013-1.658 0-.68-.02-1.124-.368-1.12-1.08 0-.668.427-1.029 1.068-1.043a98.79 98.79 0 013.404 0c.646 0 1.065.372 1.076 1.033.01.712-.426 1.067-1.111 1.09-.55.013-1.102 0-1.66 0z"/></g><g filter="url(#filter2_f_4183_12822)" fill="#15F2FD"><path d="M52.327 65.51c-.582 2.385-1.139 4.68-1.703 6.973-.318 1.296-.496 1.436-1.781 1.438-.874 0-1.747.01-2.62 0-.956-.014-1.313-.37-1.319-1.346-.01-2.075 0-4.148 0-6.223v-.968c-.618 0-1.163.011-1.708 0-1.813-.042-3.144-1.367-3.175-3.2a192.725 192.725 0 010-5.69c.028-1.834 1.364-3.172 3.177-3.2 1.893-.024 3.79-.099 5.676.015 3.277.196 6.345-.572 9.348-1.789 4.03-1.634 7.805-3.698 10.93-6.826.299-.334.487-.755.54-1.204.184-1.536 1.396-2.69 2.89-2.647a2.77 2.77 0 011.883.82c.503.507.799 1.19.827 1.91.039.888.01 1.777.01 2.666v28.184c.017.442-.023.885-.118 1.317a2.796 2.796 0 01-1.071 1.586 2.71 2.71 0 01-1.825.505c-1.346-.103-2.396-1.202-2.599-2.582a2.467 2.467 0 00-.623-1.346c-4.511-4.301-9.926-6.835-15.873-8.305a6.539 6.539 0 00-.866-.087zm.299-2.227c6.33 1.333 11.983 3.993 17.02 8.163V47.23c-5.065 4.184-10.719 6.844-17.02 8.165v7.888zm20.57-18.849c0-.266.079-.584-.035-.787-.148-.265-.434-.571-.698-.608-.185-.027-.484.33-.625.578-.103.177-.035.462-.035.698v30.017c0 .236-.075.533.031.697.166.261.438.57.699.61.185.025.497-.327.625-.58.106-.212.037-.52.037-.788l.001-29.837zM47.047 55.47v7.723h3.382V55.47h-3.382zm-2.206 7.728v-7.77h-1.27c-1.124.01-1.454.338-1.46 1.469 0 1.27.022 2.542 0 3.814-.06 2.418-.033 2.695 2.73 2.487zm2.178 8.589c.338.026.678.021 1.015-.015.241-.05.613-.177.659-.355.524-1.967.988-3.948 1.477-5.957h-3.144l-.007 6.327zm33.963-22.96c.35.375.805.635.873.976.068.342-.117.976-.386 1.133a25.679 25.679 0 01-3.456 1.675c-.282.112-.901-.151-1.081-.43-.18-.28-.154-1.05.041-1.17 1.258-.772 2.584-1.427 4.009-2.184zm.048 20.916c-.38-.144-.602-.21-.808-.31-.945-.456-1.89-.91-2.822-1.388-.554-.285-.858-.74-.587-1.38.27-.64.808-.843 1.436-.553 1.056.49 2.13.959 3.115 1.574.311.192.524.84.474 1.244-.035.312-.543.566-.807.813zm.2-9.337c-.552 0-1.106.013-1.658 0-.68-.02-1.124-.368-1.12-1.08 0-.668.427-1.029 1.068-1.043a98.79 98.79 0 013.404 0c.646 0 1.065.372 1.076 1.033.01.712-.426 1.067-1.111 1.09-.55.013-1.102 0-1.66 0z"/></g><g filter="url(#filter3_d_4183_12822)" fill="#fff"><path d="M52.327 65.51c-.582 2.385-1.139 4.68-1.703 6.973-.318 1.296-.496 1.436-1.781 1.438-.874 0-1.747.01-2.62 0-.956-.014-1.313-.37-1.319-1.346-.01-2.075 0-4.148 0-6.223v-.968c-.618 0-1.163.011-1.708 0-1.813-.042-3.144-1.367-3.175-3.2a192.725 192.725 0 010-5.69c.028-1.834 1.364-3.172 3.177-3.2 1.893-.024 3.79-.099 5.676.015 3.277.196 6.345-.572 9.348-1.789 4.03-1.634 7.805-3.698 10.93-6.826.299-.334.487-.755.54-1.204.184-1.536 1.396-2.69 2.89-2.647a2.77 2.77 0 011.883.82c.503.507.799 1.19.827 1.91.039.888.01 1.777.01 2.666v28.184c.017.442-.023.885-.118 1.317a2.796 2.796 0 01-1.071 1.586 2.71 2.71 0 01-1.825.505c-1.346-.103-2.396-1.202-2.599-2.582a2.467 2.467 0 00-.623-1.346c-4.511-4.301-9.926-6.835-15.873-8.305a6.539 6.539 0 00-.866-.087zm.299-2.227c6.33 1.333 11.983 3.993 17.02 8.163V47.23c-5.065 4.184-10.719 6.844-17.02 8.165v7.888zm20.57-18.849c0-.266.079-.584-.035-.787-.148-.265-.434-.571-.698-.608-.185-.027-.484.33-.625.578-.103.177-.035.462-.035.698v30.017c0 .236-.075.533.031.697.166.261.438.57.699.61.185.025.497-.327.625-.58.106-.212.037-.52.037-.788l.001-29.837zM47.047 55.47v7.723h3.382V55.47h-3.382zm-2.206 7.728v-7.77h-1.27c-1.124.01-1.454.338-1.46 1.469 0 1.27.022 2.542 0 3.814-.06 2.418-.033 2.695 2.73 2.487zm2.178 8.589c.338.026.678.021 1.015-.015.241-.05.613-.177.659-.355.524-1.967.988-3.948 1.477-5.957h-3.144l-.007 6.327zm33.963-22.96c.35.375.805.635.873.976.068.342-.117.976-.386 1.133a25.679 25.679 0 01-3.456 1.675c-.282.112-.901-.151-1.081-.43-.18-.28-.154-1.05.041-1.17 1.258-.772 2.584-1.427 4.009-2.184zm.048 20.916c-.38-.144-.602-.21-.808-.31-.945-.456-1.89-.91-2.822-1.388-.554-.285-.858-.74-.587-1.38.27-.64.808-.843 1.436-.553 1.056.49 2.13.959 3.115 1.574.311.192.524.84.474 1.244-.035.312-.543.566-.807.813zm.2-9.337c-.552 0-1.106.013-1.658 0-.68-.02-1.124-.368-1.12-1.08 0-.668.427-1.029 1.068-1.043a98.79 98.79 0 013.404 0c.646 0 1.065.372 1.076 1.033.01.712-.426 1.067-1.111 1.09-.55.013-1.102 0-1.66 0z"/></g><defs><filter id="filter0_f_4183_12822" x="0" y=".842" width="124" height="117" filterUnits="userSpaceOnUse" color-interpolation-filters="sRGB"><feFlood flood-opacity="0" result="BackgroundImageFix"/><feBlend in="SourceGraphic" in2="BackgroundImageFix" result="shape"/><feGaussianBlur stdDeviation="20" result="effect1_foregroundBlur_4183_12822"/></filter><filter id="filter1_f_4183_12822" x="25" y="25.842" width="74" height="67" filterUnits="userSpaceOnUse" color-interpolation-filters="sRGB"><feFlood flood-opacity="0" result="BackgroundImageFix"/><feBlend in="SourceGraphic" in2="BackgroundImageFix" result="shape"/><feGaussianBlur stdDeviation="7.5" result="effect1_foregroundBlur_4183_12822"/></filter><filter id="filter2_f_4183_12822" x="35" y="35.842" width="54" height="47" filterUnits="userSpaceOnUse" color-interpolation-filters="sRGB"><feFlood flood-opacity="0" result="BackgroundImageFix"/><feBlend in="SourceGraphic" in2="BackgroundImageFix" result="shape"/><feGaussianBlur stdDeviation="2.5" result="effect1_foregroundBlur_4183_12822"/></filter><filter id="filter3_d_4183_12822" x="36" y="40.842" width="52" height="45" filterUnits="userSpaceOnUse" color-interpolation-filters="sRGB"><feFlood flood-opacity="0" result="BackgroundImageFix"/><feColorMatrix in="SourceAlpha" values="0 0 0 0 0 0 0 0 0 0 0 0 0 0 0 0 0 0 127 0" result="hardAlpha"/><feOffset dy="4"/><feGaussianBlur stdDeviation="2"/><feComposite in2="hardAlpha" operator="out"/><feColorMatrix values="0 0 0 0 0 0 0 0 0 0 0 0 0 0 0 0 0 0 0.25 0"/><feBlend in2="BackgroundImageFix" result="effect1_dropShadow_4183_12822"/><feBlend in="SourceGraphic" in2="effect1_dropShadow_4183_12822" result="shape"/></filter></defs></svg>