<svg width="147" height="125" fill="none" xmlns="http://www.w3.org/2000/svg"><g filter="url(#filter0_f_4183_12847)"><path fill-rule="evenodd" clip-rule="evenodd" d="M80.213 50.226a1 1 0 00-1.362.383L66.518 72.576a1 1 0 001.744.98l12.333-21.97a1 1 0 00-.382-1.36zM57.3 69.154l-6.364-6.364a1 1 0 010-1.415l6.364-6.364a1 1 0 011.414 1.415l-5.657 5.657 5.657 5.656a1 1 0 11-1.414 1.415zM89.813 55.01l6.363 6.364a1 1 0 010 1.415l-6.364 6.364a1 1 0 01-1.414-1.415l5.657-5.657-5.657-5.656a1 1 0 011.415-1.415z" fill="#15F2FD"/></g><g filter="url(#filter1_f_4183_12847)"><path fill-rule="evenodd" clip-rule="evenodd" d="M80.213 50.226a1 1 0 00-1.362.383L66.518 72.576a1 1 0 001.744.98l12.333-21.97a1 1 0 00-.382-1.36zM57.3 69.154l-6.364-6.364a1 1 0 010-1.415l6.364-6.364a1 1 0 011.414 1.415l-5.657 5.657 5.657 5.656a1 1 0 11-1.414 1.415zM89.813 55.01l6.363 6.364a1 1 0 010 1.415l-6.364 6.364a1 1 0 01-1.414-1.415l5.657-5.657-5.657-5.656a1 1 0 011.415-1.415z" fill="#15F2FD"/></g><g filter="url(#filter2_f_4183_12847)"><path fill-rule="evenodd" clip-rule="evenodd" d="M80.213 50.226a1 1 0 00-1.362.383L66.518 72.576a1 1 0 001.744.98l12.333-21.97a1 1 0 00-.382-1.36zM57.3 69.154l-6.364-6.364a1 1 0 010-1.415l6.364-6.364a1 1 0 011.414 1.415l-5.657 5.657 5.657 5.656a1 1 0 11-1.414 1.415zM89.813 55.01l6.363 6.364a1 1 0 010 1.415l-6.364 6.364a1 1 0 01-1.414-1.415l5.657-5.657-5.657-5.656a1 1 0 011.415-1.415z" fill="#15F2FD"/></g><g filter="url(#filter3_f_4183_12847)"><path fill-rule="evenodd" clip-rule="evenodd" d="M80.213 50.226a1 1 0 00-1.362.383L66.518 72.576a1 1 0 001.744.98l12.333-21.97a1 1 0 00-.382-1.36zM57.3 69.154l-6.364-6.364a1 1 0 010-1.415l6.364-6.364a1 1 0 011.414 1.415l-5.657 5.657 5.657 5.656a1 1 0 11-1.414 1.415zM89.813 55.01l6.363 6.364a1 1 0 010 1.415l-6.364 6.364a1 1 0 01-1.414-1.415l5.657-5.657-5.657-5.656a1 1 0 011.415-1.415z" fill="#15F2FD"/></g><g filter="url(#filter4_d_4183_12847)"><path fill-rule="evenodd" clip-rule="evenodd" d="M80.213 50.226a1 1 0 00-1.362.383L66.518 72.576a1 1 0 001.744.98l12.333-21.97a1 1 0 00-.382-1.36zM57.3 69.154l-6.364-6.364a1 1 0 010-1.415l6.364-6.364a1 1 0 011.414 1.415l-5.657 5.657 5.657 5.656a1 1 0 11-1.414 1.415zM89.813 55.01l6.363 6.364a1 1 0 010 1.415l-6.364 6.364a1 1 0 01-1.414-1.415l5.657-5.657-5.657-5.656a1 1 0 011.415-1.415z" fill="#fff"/></g><defs><filter id="filter0_f_4183_12847" x=".643" y=".098" width="145.826" height="123.969" filterUnits="userSpaceOnUse" color-interpolation-filters="sRGB"><feFlood flood-opacity="0" result="BackgroundImageFix"/><feBlend in="SourceGraphic" in2="BackgroundImageFix" result="shape"/><feGaussianBlur stdDeviation="25" result="effect1_foregroundBlur_4183_12847"/></filter><filter id="filter1_f_4183_12847" x="25.643" y="25.098" width="95.826" height="73.969" filterUnits="userSpaceOnUse" color-interpolation-filters="sRGB"><feFlood flood-opacity="0" result="BackgroundImageFix"/><feBlend in="SourceGraphic" in2="BackgroundImageFix" result="shape"/><feGaussianBlur stdDeviation="12.5" result="effect1_foregroundBlur_4183_12847"/></filter><filter id="filter2_f_4183_12847" x="40.643" y="40.098" width="65.826" height="43.969" filterUnits="userSpaceOnUse" color-interpolation-filters="sRGB"><feFlood flood-opacity="0" result="BackgroundImageFix"/><feBlend in="SourceGraphic" in2="BackgroundImageFix" result="shape"/><feGaussianBlur stdDeviation="5" result="effect1_foregroundBlur_4183_12847"/></filter><filter id="filter3_f_4183_12847" x="45.643" y="45.098" width="55.826" height="33.969" filterUnits="userSpaceOnUse" color-interpolation-filters="sRGB"><feFlood flood-opacity="0" result="BackgroundImageFix"/><feBlend in="SourceGraphic" in2="BackgroundImageFix" result="shape"/><feGaussianBlur stdDeviation="2.5" result="effect1_foregroundBlur_4183_12847"/></filter><filter id="filter4_d_4183_12847" x="46.643" y="50.098" width="53.826" height="31.969" filterUnits="userSpaceOnUse" color-interpolation-filters="sRGB"><feFlood flood-opacity="0" result="BackgroundImageFix"/><feColorMatrix in="SourceAlpha" values="0 0 0 0 0 0 0 0 0 0 0 0 0 0 0 0 0 0 127 0" result="hardAlpha"/><feOffset dy="4"/><feGaussianBlur stdDeviation="2"/><feComposite in2="hardAlpha" operator="out"/><feColorMatrix values="0 0 0 0 0 0 0 0 0 0 0 0 0 0 0 0 0 0 0.25 0"/><feBlend in2="BackgroundImageFix" result="effect1_dropShadow_4183_12847"/><feBlend in="SourceGraphic" in2="effect1_dropShadow_4183_12847" result="shape"/></filter></defs></svg>