<svg width="206" height="46" fill="none" xmlns="http://www.w3.org/2000/svg"><g clip-path="url(#clip0_1309_148)"><path d="M11.214 45.413c-.809.373-2.232.56-3.766.56C2.873 45.973 0 43.411 0 39.248c0-3.736 2.706-6.939 8.062-6.939.976 0 2.176.133 3.152.454l-.697 3.523c-.475-.187-1.144-.32-2.176-.32-1.869 0-3.208 1.227-3.18 3.122 0 2.135 1.534 3.15 3.32 3.15.864 0 1.561-.108 2.203-.348l.53 3.523zm2.066-8.407c0-2.081-.028-3.336-.112-4.43h4.296l.195 2.375h.112c.725-2.002 2.455-2.669 3.654-2.669.447 0 .642 0 1.004.08v4.51a5.688 5.688 0 00-1.283-.133c-1.478 0-2.482.587-2.761 1.655a6.544 6.544 0 00-.056.827v6.485h-5.05v-8.7zm19.164.561c0-.748-.363-2.136-1.953-2.136-1.478 0-2.064 1.308-2.148 2.136h4.101zm-4.045 3.256c.167 1.04 1.758 1.627 3.543 1.627 1.283 0 2.51-.133 3.738-.507l.642 3.203c-1.647.614-3.432.827-5.133.827-4.826 0-7.56-2.535-7.56-6.698 0-3.043 2.064-6.993 7.113-6.993 4.436 0 6.333 3.123 6.333 6.726 0 .773-.112 1.494-.196 1.815H28.4zm19.809-2.563c0-.187 0-.426-.027-.614-.196-.933-.921-1.68-1.98-1.68-1.675 0-2.428 1.44-2.428 3.149 0 2.028 1.032 3.069 2.399 3.069 1.032 0 1.785-.694 1.953-1.575.083-.267.083-.56.083-.88V38.26zm5.05-11.53v14.84c0 1.628.055 3.256.11 4.136h-4.49l-.195-1.761h-.056C47.734 45.413 46.06 46 44.498 46c-3.18 0-5.83-2.642-5.83-6.752-.028-4.43 2.901-6.966 6.137-6.966 1.507 0 2.734.427 3.347 1.281h.056v-6.832h5.05zm3.098 18.976v-13.13h5.05v13.13h-5.05zm2.51-14.491c-1.561 0-2.538-1.014-2.538-2.269 0-1.334 1.004-2.295 2.567-2.295 1.562 0 2.538.96 2.566 2.295 0 1.255-1.004 2.269-2.566 2.269h-.028zm11.159-2.375v3.736h2.846V36.1h-2.846v3.763c0 1.547.363 2.188 1.59 2.188.586 0 .782 0 1.2-.107V45.6c-.586.213-1.702.373-2.985.373-1.478 0-2.706-.507-3.431-1.2-.837-.802-1.283-2.083-1.283-4.084V36.1h-1.702v-3.523h1.702v-2.455l4.91-1.281zm11.774 13.77c1.367 0 2.092-1.36 2.092-3.468 0-1.816-.613-3.47-2.092-3.47-1.674 0-2.232 1.735-2.232 3.47 0 1.974.67 3.468 2.204 3.468h.028zm-.14 3.39c-4.1 0-7.28-2.482-7.28-6.752 0-4.19 2.873-6.966 7.56-6.966 4.295 0 7.14 2.776 7.14 6.726 0 4.777-3.57 6.992-7.392 6.992h-.027zm9.821-8.994c0-2.081-.029-3.336-.113-4.43h4.296l.196 2.375h.111c.726-2.002 2.455-2.669 3.655-2.669.446 0 .641 0 1.004.08v4.51a5.694 5.694 0 00-1.283-.133c-1.479 0-2.483.587-2.762 1.655a6.521 6.521 0 00-.056.827v6.485H91.48v-8.7z" fill="#1F2E76"/><path d="M102.891 43.304c.753.427 2.036.908 3.263.908 1.758 0 2.594-.828 2.594-1.922 0-1.12-.697-1.708-2.482-2.349-2.455-.853-3.598-2.135-3.598-3.655 0-2.083 1.785-3.79 4.658-3.79 1.367 0 2.566.347 3.292.8l-.586 1.682c-.53-.294-1.506-.747-2.762-.747-1.45 0-2.231.8-2.231 1.761 0 1.067.781 1.548 2.538 2.215 2.315.827 3.543 1.949 3.543 3.87 0 2.295-1.869 3.896-5.021 3.896-1.479 0-2.846-.373-3.794-.907l.586-1.762zm16.989.934c2.343 0 4.101-2.108 4.101-5.044 0-2.188-1.144-4.937-4.045-4.937-2.873 0-4.128 2.562-4.128 5.018 0 2.828 1.673 4.963 4.044 4.963h.028zM119.769 46c-3.627 0-6.472-2.562-6.472-6.645 0-4.324 2.985-6.86 6.695-6.86 3.877 0 6.499 2.696 6.499 6.62 0 4.804-3.486 6.885-6.695 6.885h-.027zm9.821-19.242h2.455v18.948h-2.455V26.758zm17.881 15.399c0 1.36.028 2.535.112 3.55h-2.176l-.14-2.109h-.055c-.614 1.04-2.065 2.402-4.464 2.402-2.12 0-4.658-1.148-4.658-5.658V32.79h2.455v7.126c0 2.455.809 4.137 3.012 4.137 1.646 0 2.79-1.094 3.236-2.162.139-.32.223-.747.223-1.2v-7.9h2.455v9.367zm7.031-12.464v3.096h3.516v1.789h-3.516v6.938c0 1.602.475 2.51 1.842 2.51.669 0 1.06-.055 1.422-.16l.112 1.787c-.474.16-1.227.32-2.176.32-1.144 0-2.064-.373-2.65-.987-.67-.721-.948-1.868-.948-3.39v-7.018h-2.092v-1.789h2.092v-2.375l2.398-.72zm6.277 16.013V32.79h2.455v12.917h-2.455zm1.172-15.105c-.892 0-1.478-.667-1.478-1.441 0-.828.614-1.468 1.534-1.468.892 0 1.507.64 1.507 1.468 0 .774-.587 1.441-1.535 1.441h-.028zm10.965 13.637c2.343 0 4.1-2.108 4.1-5.044 0-2.188-1.143-4.937-4.044-4.937-2.874 0-4.129 2.562-4.129 5.018 0 2.828 1.674 4.963 4.045 4.963h.028zM172.804 46c-3.626 0-6.472-2.562-6.472-6.645 0-4.324 2.985-6.86 6.695-6.86 3.878 0 6.5 2.696 6.5 6.62 0 4.804-3.487 6.885-6.695 6.885h-.028zm9.819-9.714c0-1.361-.028-2.429-.111-3.497h2.176l.139 2.109h.056c.669-1.201 2.232-2.402 4.463-2.402 1.869 0 4.77 1.067 4.77 5.498v7.712h-2.454V38.26c0-2.08-.81-3.842-3.125-3.842-1.59 0-2.845 1.094-3.292 2.401-.111.294-.167.72-.167 1.094v7.793h-2.455v-9.42zm15.15 7.018c.754.427 2.037.908 3.264.908 1.758 0 2.594-.828 2.594-1.922 0-1.12-.697-1.708-2.482-2.349-2.455-.853-3.599-2.135-3.599-3.655 0-2.083 1.785-3.79 4.658-3.79 1.368 0 2.567.347 3.292.8l-.585 1.682c-.531-.294-1.507-.747-2.762-.747-1.451 0-2.232.8-2.232 1.761 0 1.067.781 1.548 2.539 2.215 2.315.827 3.543 1.949 3.543 3.87 0 2.295-1.87 3.896-5.022 3.896-1.478 0-2.845-.373-3.793-.907l.585-1.762z" fill="#7B7979"/><path d="M96.028 24.53c-3.308 0-6.419-1.234-8.76-3.474-2.342-2.24-3.631-5.217-3.631-8.381 0-3.165 1.29-6.141 3.63-8.382l3.65-3.491c1.118-1.07 2.93-1.07 4.048 0a2.656 2.656 0 010 3.873l-3.65 3.491c-1.26 1.206-1.954 2.807-1.954 4.509 0 1.702.694 3.303 1.954 4.508a6.776 6.776 0 004.713 1.87 6.775 6.775 0 004.712-1.87l7.342-7.024c1.118-1.07 2.93-1.07 4.048 0a2.655 2.655 0 010 3.873l-7.342 7.024c-2.342 2.24-5.452 3.474-8.76 3.474z" fill="#1F2E76"/><path d="M113.07 24.887a2.923 2.923 0 01-2.024-.801 2.657 2.657 0 010-3.873l3.65-3.492c2.599-2.486 2.599-6.531 0-9.017-2.598-2.486-6.826-2.486-9.425 0l-7.342 7.025c-1.118 1.069-2.93 1.069-4.048 0a2.655 2.655 0 010-3.873l7.342-7.024c4.831-4.621 12.691-4.622 17.521 0 4.83 4.62 4.83 12.14 0 16.762l-3.65 3.492a2.92 2.92 0 01-2.024.802z" fill="#7B7979"/></g><defs><clipPath id="clip0_1309_148"><path fill="#fff" d="M0 0h206v46H0z"/></clipPath></defs></svg>