<svg width="88" height="88" viewBox="0 0 88 88" fill="none" xmlns="http://www.w3.org/2000/svg">
<g clip-path="url(#clip0_157_6421)">
<path fill-rule="evenodd" clip-rule="evenodd" d="M86.5334 32.2661V63.0661C86.5334 64.607 86.2299 66.1328 85.6402 67.5565C85.0506 68.9801 84.1862 70.2736 83.0966 71.3632C82.0071 72.4528 80.7135 73.3171 79.2899 73.9068C77.8663 74.4965 76.3404 74.8 74.7995 74.8H68.9334C68.7408 74.7998 68.5499 74.8375 68.3719 74.9111C68.1938 74.9847 68.032 75.0926 67.8956 75.2288C67.7593 75.365 67.6512 75.5267 67.5774 75.7046C67.5036 75.8826 67.4656 76.0734 67.4656 76.2661V85.0661C67.4653 85.3463 67.3848 85.6206 67.2336 85.8566C67.0824 86.0925 66.8667 86.2802 66.6122 86.3975C66.3577 86.5148 66.075 86.5568 65.7974 86.5186C65.5197 86.4803 65.2589 86.3634 65.0456 86.1816L48.812 75.1523C48.5481 74.9218 48.2086 74.7964 47.8581 74.8H21.9995C18.8875 74.8 15.9029 73.5638 13.7024 71.3632C11.5019 69.1627 10.2656 66.1781 10.2656 63.0661V55.3661C11.2248 55.6085 12.2102 55.732 13.1995 55.7339H19.0656C19.2583 55.7337 19.4491 55.7714 19.6272 55.845C19.8053 55.9186 19.9671 56.0265 20.1034 56.1627C20.2397 56.2989 20.3479 56.4606 20.4217 56.6385C20.4955 56.8165 20.5334 57.0073 20.5334 57.2V66C20.5337 66.2802 20.6143 66.5545 20.7655 66.7905C20.9167 67.0264 21.1323 67.2141 21.3868 67.3314C21.6413 67.4487 21.9241 67.4907 22.2017 67.4525C22.4793 67.4142 22.7402 67.2973 22.9534 67.1155L39.187 56.0845C39.4518 55.8563 39.7915 55.7339 40.1409 55.7408H65.9995C67.541 55.7406 69.0672 55.4367 70.4912 54.8465C71.9152 54.2563 73.2089 53.3913 74.2986 52.3011C75.3882 51.2108 76.2524 49.9165 76.8418 48.4922C77.4311 47.0679 77.7341 45.5414 77.7334 44V20.9C80.252 21.5522 82.4827 23.0223 84.0755 25.0795C85.6682 27.1366 86.5327 29.6644 86.5334 32.2661Z" fill="#D4E4DB"/>
<path fill-rule="evenodd" clip-rule="evenodd" d="M13.1995 55.7339C12.2102 55.732 11.2248 55.6085 10.2656 55.3661V55.7339H13.1995Z" fill="#B8D3C3"/>
<path fill-rule="evenodd" clip-rule="evenodd" d="M16.1338 57.2V66C16.1327 66.2818 16.2128 66.558 16.3644 66.7956C16.516 67.0332 16.7329 67.222 16.989 67.3397C17.2451 67.4573 17.5297 67.4987 17.8087 67.459C18.0877 67.4192 18.3494 67.3 18.5624 67.1155L20.5424 65.7697V57.2C20.5424 57.0073 20.5044 56.8166 20.4307 56.6386C20.3569 56.4606 20.2487 56.2989 20.1124 56.1627C19.9761 56.0266 19.8143 55.9186 19.6362 55.845C19.4581 55.7715 19.2673 55.7337 19.0746 55.7339H14.666C14.8587 55.7337 15.0495 55.7715 15.2276 55.845C15.4057 55.9186 15.5675 56.0266 15.7038 56.1627C15.8401 56.2989 15.9483 56.4606 16.0221 56.6386C16.0958 56.8166 16.1338 57.0073 16.1338 57.2Z" fill="#B8D3C3"/>
<path fill-rule="evenodd" clip-rule="evenodd" d="M63.0654 76.2661V84.8358L65.0454 86.1816C65.2587 86.3633 65.5196 86.4803 65.7972 86.5186C66.0748 86.5568 66.3576 86.5148 66.6121 86.3975C66.8666 86.2802 67.0822 86.0925 67.2334 85.8566C67.3846 85.6206 67.4651 85.3463 67.4654 85.0661V76.2661C67.4654 76.0734 67.5034 75.8826 67.5772 75.7046C67.651 75.5266 67.7591 75.365 67.8954 75.2288C68.0318 75.0926 68.1936 74.9847 68.3717 74.9111C68.5497 74.8375 68.7406 74.7998 68.9332 74.8H64.5332C64.3406 74.7998 64.1497 74.8375 63.9717 74.9111C63.7936 74.9847 63.6318 75.0926 63.4954 75.2288C63.3591 75.365 63.251 75.5266 63.1772 75.7046C63.1034 75.8826 63.0654 76.0734 63.0654 76.2661Z" fill="#B8D3C3"/>
<path fill-rule="evenodd" clip-rule="evenodd" d="M77.7333 20.9V23.112C79.107 24.2095 80.2159 25.6024 80.9776 27.1871C81.7393 28.7718 82.1343 30.5078 82.1333 32.2661V63.0661C82.1333 64.607 81.8298 66.1328 81.2401 67.5565C80.6504 68.9801 79.7861 70.2736 78.6965 71.3632C77.6069 72.4528 76.3134 73.3171 74.8898 73.9068C73.4662 74.4965 71.9403 74.8 70.3994 74.8H74.7994C77.9114 74.8 80.896 73.5637 83.0965 71.3632C85.2971 69.1627 86.5333 66.1781 86.5333 63.0661V32.2661C86.5326 29.6644 85.6681 27.1366 84.0754 25.0795C82.4826 23.0223 80.2519 21.5522 77.7333 20.9Z" fill="#B8D3C3"/>
<path fill-rule="evenodd" clip-rule="evenodd" d="M77.7336 13.2V44C77.7332 47.1119 76.4968 50.0962 74.2963 52.2966C72.0959 54.4971 69.1116 55.7335 65.9997 55.7339H40.1428C39.7934 55.727 39.4537 55.8494 39.1889 56.0777L22.9536 67.1086C22.7408 67.29 22.4806 67.4069 22.2036 67.4454C21.9266 67.4839 21.6444 67.4425 21.3901 67.326C21.1359 67.2095 20.9202 67.0229 20.7684 66.788C20.6167 66.553 20.5352 66.2797 20.5336 66V57.2C20.5336 57.0073 20.4957 56.8165 20.4219 56.6386C20.3481 56.4606 20.2399 56.2989 20.1036 56.1627C19.9673 56.0266 19.8055 55.9186 19.6274 55.845C19.4493 55.7714 19.2585 55.7337 19.0658 55.7339H13.1997C12.2104 55.732 11.225 55.6085 10.2658 55.3661C7.74708 54.7141 5.51619 53.2441 3.92342 51.1869C2.33065 49.1297 1.46621 46.6017 1.46582 44V13.2C1.46628 10.0881 2.70267 7.10382 4.90311 4.90338C7.10354 2.70294 10.0878 1.46655 13.1997 1.46609H65.9997C69.1116 1.46655 72.0959 2.70294 74.2963 4.90338C76.4968 7.10382 77.7332 10.0881 77.7336 13.2Z" fill="#EDEFEE"/>
<path fill-rule="evenodd" clip-rule="evenodd" d="M34.7885 56.0845L20.5332 65.7697V66C20.5335 66.2802 20.614 66.5545 20.7652 66.7905C20.9165 67.0264 21.1321 67.2141 21.3866 67.3314C21.6411 67.4487 21.9238 67.4908 22.2015 67.4525C22.4791 67.4142 22.7399 67.2973 22.9532 67.1155L39.1868 56.0845C39.4515 55.8563 39.7912 55.7339 40.1407 55.7408H35.7493C35.3998 55.7339 35.0601 55.8563 34.7954 56.0845H34.7885Z" fill="#D5E7DC"/>
<path fill-rule="evenodd" clip-rule="evenodd" d="M65.9996 1.46609H61.5996C64.7115 1.46655 67.6958 2.70294 69.8962 4.90338C72.0967 7.10382 73.3331 10.0881 73.3335 13.2V44C73.3331 47.1119 72.0967 50.0962 69.8962 52.2966C67.6958 54.4971 64.7115 55.7335 61.5996 55.7339H65.9996C69.1115 55.7335 72.0958 54.4971 74.2962 52.2966C76.4967 50.0962 77.7331 47.1119 77.7335 44V13.2C77.7331 10.0881 76.4967 7.10382 74.2962 4.90338C72.0958 2.70294 69.1115 1.46655 65.9996 1.46609Z" fill="#D5E7DC"/>
<path fill-rule="evenodd" clip-rule="evenodd" d="M10.2658 55.3661V63.0661C10.2658 66.1781 11.5021 69.1627 13.7026 71.3632C15.9031 73.5638 18.8877 74.8 21.9997 74.8H26.3997C23.2877 74.8 20.3031 73.5638 18.1026 71.3632C15.9021 69.1627 14.6658 66.1781 14.6658 63.0661V55.3661C12.1471 54.7141 9.91619 53.2441 8.32342 51.1869C6.73065 49.1297 5.86621 46.6017 5.86582 44V13.2C5.86628 10.0881 7.10267 7.10382 9.30311 4.90338C11.5035 2.70294 14.4878 1.46655 17.5997 1.46609H13.1997C10.0878 1.46655 7.10354 2.70294 4.90311 4.90338C2.70267 7.10382 1.46628 10.0881 1.46582 13.2V44C1.46621 46.6017 2.33065 49.1297 3.92342 51.1869C5.51619 53.2441 7.74708 54.7141 10.2658 55.3661Z" fill="white"/>
<path fill-rule="evenodd" clip-rule="evenodd" d="M0 13.2017H2.93391V24.9356H0V13.2017Z" fill="white"/>
<path d="M79.1999 19.8155V13.2C79.1962 9.70026 77.8044 6.3449 75.3297 3.87021C72.855 1.39552 69.4996 0.00363988 65.9999 0L13.1999 0C9.70014 0.00363988 6.34478 1.39552 3.87009 3.87021C1.3954 6.3449 0.00352274 9.70026 -0.000117138 13.2C0.0129046 13.5804 0.173161 13.9408 0.446846 14.2053C0.720531 14.4698 1.08624 14.6176 1.46684 14.6176C1.84743 14.6176 2.21314 14.4698 2.48683 14.2053C2.76051 13.9408 2.92077 13.5804 2.93379 13.2C2.93652 10.4781 4.019 7.86846 5.94367 5.94379C7.86835 4.01912 10.478 2.93664 13.1999 2.93391H65.9999C68.7218 2.93664 71.3314 4.01912 73.2561 5.94379C75.1808 7.86846 76.2632 10.4781 76.266 13.2V44C76.2632 46.7219 75.1808 49.3315 73.2561 51.2562C71.3314 53.1809 68.7218 54.2634 65.9999 54.2661H40.143C39.4723 54.264 38.8215 54.4935 38.3005 54.9158L22.1305 65.902C22.0847 65.9316 22.0411 65.9644 21.9999 66V57.2C21.9999 56.4219 21.6908 55.6756 21.1406 55.1254C20.5903 54.5752 19.8441 54.2661 19.066 54.2661H13.1999C10.478 54.2634 7.86835 53.1809 5.94367 51.2562C4.019 49.3315 2.93652 46.7219 2.93379 44V24.9339C2.94053 24.737 2.90757 24.5408 2.83689 24.357C2.7662 24.1731 2.65923 24.0053 2.52234 23.8637C2.38546 23.722 2.22146 23.6094 2.04012 23.5325C1.85879 23.4555 1.66382 23.4159 1.46684 23.4159C1.26985 23.4159 1.07488 23.4555 0.893547 23.5325C0.71221 23.6094 0.548214 23.722 0.41133 23.8637C0.274445 24.0053 0.167473 24.1731 0.0967856 24.357C0.0260986 24.5408 -0.00685678 24.737 -0.000117138 24.9339V44C0.00460583 46.7265 0.852966 49.3848 2.42854 51.61C4.00412 53.8352 6.22971 55.5183 8.79988 56.4283V63.0661C8.80352 66.5658 10.1954 69.9212 12.6701 72.3959C15.1448 74.8706 18.5001 76.2625 21.9999 76.2661L47.8378 76.2506C47.8849 76.2918 47.9342 76.3303 47.9857 76.3658L64.1643 87.3572C64.6811 87.7731 65.3245 87.9999 65.9878 88C66.419 87.9999 66.8449 87.9054 67.2357 87.7233C67.7448 87.4913 68.176 87.117 68.4773 86.6455C68.7785 86.1741 68.9371 85.6256 68.9338 85.0661V76.2661H74.7999C78.2996 76.2625 81.655 74.8706 84.1297 72.3959C86.6044 69.9212 87.9962 66.5658 87.9999 63.0661V32.2661C88.0005 29.5356 87.1546 26.872 85.5786 24.6422C84.0026 22.4124 81.7741 20.7261 79.1999 19.8155ZM85.066 63.0661C85.0632 65.7881 83.9808 68.398 82.0562 70.3229C80.1316 72.2479 77.5219 73.3307 74.7999 73.3339H68.9338C68.5486 73.3337 68.1671 73.4094 67.8112 73.5566C67.4552 73.7039 67.1318 73.9198 66.8593 74.1921C66.5868 74.4644 66.3707 74.7877 66.2232 75.1436C66.0758 75.4995 65.9999 75.8809 65.9999 76.2661V85.0661C65.961 85.0322 65.9196 85.0012 65.8761 84.9733L49.6993 73.9819C49.1781 73.5601 48.5272 73.3312 47.8568 73.3339H21.9999C19.2778 73.3307 16.6682 72.2479 14.7436 70.3229C12.8189 68.398 11.7365 65.7881 11.7338 63.0661V57.1158C12.2206 57.1705 12.71 57.1986 13.1999 57.2H19.066V66C19.0626 66.5593 19.2211 67.1076 19.5224 67.5788C19.8237 68.05 20.255 68.4239 20.7641 68.6555C21.155 68.8373 21.5807 68.9323 22.0119 68.9339C22.6739 68.932 23.3157 68.7054 23.8321 68.2911L40.0124 57.2997C40.0585 57.2699 40.1021 57.2366 40.143 57.2H65.9999C69.4996 57.1964 72.855 55.8045 75.3297 53.3298C77.8044 50.8551 79.1962 47.4997 79.1999 44V23.002C80.9535 23.8337 82.4353 25.1454 83.4736 26.7851C84.5119 28.4248 85.064 30.3253 85.066 32.2661V63.0661Z" fill="#2E4939"/>
<path fill-rule="evenodd" clip-rule="evenodd" d="M80.6665 61.6C80.2777 61.6 79.9048 61.7545 79.6298 62.0294C79.3549 62.3044 79.2004 62.6773 79.2004 63.0661C79.2004 64.2331 78.7368 65.3522 77.9117 66.1774C77.0865 67.0025 75.9674 67.4661 74.8004 67.4661C74.42 67.4791 74.0596 67.6394 73.7951 67.9131C73.5306 68.1867 73.3828 68.5525 73.3828 68.9331C73.3828 69.3136 73.5306 69.6794 73.7951 69.953C74.0596 70.2267 74.42 70.387 74.8004 70.4C76.7448 70.3977 78.6089 69.6243 79.9838 68.2494C81.3586 66.8746 82.132 65.0105 82.1343 63.0661C82.1339 62.6771 81.979 62.3042 81.7038 62.0293C81.4286 61.7544 81.0555 61.6 80.6665 61.6Z" fill="#2E4939"/>
<path d="M1.46609 20.5339C2.27579 20.5339 2.93219 19.8775 2.93219 19.0678C2.93219 18.2581 2.27579 17.6017 1.46609 17.6017C0.656392 17.6017 0 18.2581 0 19.0678C0 19.8775 0.656392 20.5339 1.46609 20.5339Z" fill="#2E4939"/>
<path fill-rule="evenodd" clip-rule="evenodd" d="M73.3345 44C73.3215 43.6196 73.1612 43.2592 72.8875 42.9947C72.6139 42.7302 72.2481 42.5824 71.8676 42.5824C71.487 42.5824 71.1212 42.7302 70.8476 42.9947C70.5739 43.2592 70.4136 43.6196 70.4006 44C70.4006 45.1669 69.937 46.2861 69.1119 47.1113C68.2867 47.9364 67.1676 48.4 66.0006 48.4C65.6202 48.413 65.2598 48.5733 64.9953 48.847C64.7308 49.1206 64.583 49.4864 64.583 49.8669C64.583 50.2475 64.7308 50.6132 64.9953 50.8869C65.2598 51.1606 65.6202 51.3209 66.0006 51.3339C67.9448 51.3312 69.8087 50.5576 71.1834 49.1828C72.5582 47.808 73.3318 45.9442 73.3345 44Z" fill="#2E4939"/>
<path fill-rule="evenodd" clip-rule="evenodd" d="M7.33402 14.6661C7.72286 14.6661 8.09576 14.5116 8.37071 14.2367C8.64565 13.9617 8.80012 13.5888 8.80012 13.2C8.80012 12.033 9.26369 10.9139 10.0888 10.0887C10.914 9.26357 12.0332 8.8 13.2001 8.79999C13.5805 8.78697 13.9409 8.62672 14.2054 8.35303C14.4699 8.07935 14.6177 7.71363 14.6177 7.33304C14.6177 6.95245 14.4699 6.58674 14.2054 6.31305C13.9409 6.03937 13.5805 5.87911 13.2001 5.86609C11.2559 5.86882 9.39206 6.64237 8.01728 8.01715C6.64249 9.39194 5.86894 11.2558 5.86621 13.2C5.86621 13.3927 5.90419 13.5835 5.97797 13.7614C6.05176 13.9394 6.15991 14.1011 6.29623 14.2373C6.43255 14.3735 6.59437 14.4814 6.77245 14.555C6.95052 14.6286 7.14135 14.6663 7.33402 14.6661Z" fill="#2E4939"/>
</g>
<defs>
<clipPath id="clip0_157_6421">
<rect width="88" height="88" fill="white"/>
</clipPath>
</defs>
</svg>
