<svg width="56" height="56" viewBox="0 0 56 56" fill="none" xmlns="http://www.w3.org/2000/svg">
<g clip-path="url(#clip0_157_6703)">
<path d="M42.0001 14.9332C42.0063 18.3735 40.7397 21.6946 38.4441 24.2572L29.2601 24.2665C28.4567 24.2655 27.6904 24.6046 27.1508 25.1998L26.3015 26.1332L19.5908 26.1238C14.3281 22.17 12.5306 15.0839 15.2723 9.09958C18.0141 3.11527 24.5544 -0.150806 30.9855 1.25284C37.4165 2.65648 42.0012 8.35068 42.0001 14.9332Z" fill="#D4E4DB"/>
<path d="M28.0006 0.933105C27.5283 0.933105 27.0617 0.958305 26.6006 1.00404C31.8394 1.53056 36.3399 4.95192 38.2484 9.85906C40.157 14.7662 39.1509 20.3292 35.6446 24.2571H38.4446C42.1201 20.1404 43.0342 14.2485 40.7788 9.21161C38.5234 4.17475 33.5194 0.932839 28.0006 0.933105Z" fill="#B8D3C3"/>
<path d="M25.2004 21.4664C24.7053 21.4663 24.2306 21.2696 23.8806 20.9195L21.0806 18.1195C20.3732 17.3871 20.3833 16.2228 21.1034 15.5028C21.8234 14.7827 22.9877 14.7726 23.7201 15.48L25.1294 16.8884L32.2125 9.01763C32.9022 8.25113 34.0827 8.18887 34.8492 8.87856C35.6157 9.56825 35.6779 10.7487 34.9882 11.5152L26.5882 20.8486C26.2458 21.2294 25.7618 21.4528 25.2498 21.4664H25.2004Z" fill="#EDEFEE"/>
<path d="M17.0986 44.333C17.1001 44.5808 17.0591 44.827 16.9773 45.061L15.624 48.6357C15.1193 49.7609 13.8261 50.2991 12.6721 49.8642C11.5181 49.4293 10.9018 48.1714 11.2653 46.993L12.5813 43.5023C12.6534 43.2957 12.7608 43.103 12.8986 42.933C13.5012 42.1295 14.5504 41.8018 15.5032 42.1194C16.456 42.437 17.0986 43.3287 17.0986 44.333Z" fill="#EDEFEE"/>
<path d="M21.7929 45.1078C21.7932 45.3854 21.7426 45.6606 21.6436 45.9198L19.9916 50.2785C19.538 51.4847 18.1925 52.0948 16.9863 51.6412C15.7801 51.1876 15.17 49.842 15.6236 48.6358L16.9769 45.0612L17.2756 44.2772C17.6731 43.22 18.7708 42.5993 19.8816 42.8036C20.9924 43.0079 21.7975 43.9784 21.7929 45.1078Z" fill="#EDEFEE"/>
<path d="M29.8662 50.1292C29.8665 50.4067 29.8158 50.6819 29.7168 50.9412L29.1475 52.4532L28.7275 53.5545C28.2443 54.7124 26.932 55.2809 25.7569 54.8415C24.5817 54.4021 23.9644 53.112 24.3595 51.9212L25.3675 49.2518C25.7846 48.213 26.8807 47.6167 27.9795 47.831C29.0783 48.0453 29.87 49.0097 29.8662 50.1292Z" fill="#EDEFEE"/>
<path d="M26.1611 46.7504C26.1614 47.0279 26.1108 47.3032 26.0118 47.5624L25.3678 49.2518L24.3598 51.9211C23.9062 53.1273 22.5606 53.7374 21.3544 53.2838C20.1482 52.8301 19.5382 51.4846 19.9918 50.2784L21.6438 45.9198C22.0413 44.8626 23.1389 44.2419 24.2498 44.4462C25.3606 44.6504 26.1656 45.621 26.1611 46.7504Z" fill="#EDEFEE"/>
<path d="M42.3546 40.7118C42.9076 39.5494 42.4148 38.1586 41.2532 37.6038L29.7172 31.6865L24.3599 36.5211C23.5415 37.251 22.3704 37.4314 21.3703 36.9817C20.3701 36.5321 19.7278 35.5364 19.7306 34.4398C19.725 33.749 19.9819 33.0819 20.4492 32.5731L26.3012 26.1331L27.1506 25.1998C27.6901 24.6045 28.4565 24.2654 29.2599 24.2665L38.4439 24.2571L43.8666 24.2478L46.9279 41.0665H42.1399C42.2256 40.9574 42.2976 40.8383 42.3546 40.7118Z" fill="#EDEFEE"/>
<path d="M43.8665 24.2478L41.0674 24.2525L44.1278 41.0665H46.9278L43.8665 24.2478Z" fill="#D4E4DB"/>
<path d="M55.0668 24.2666V41.0666C55.0637 42.0962 54.2298 42.9302 53.2001 42.9332H48.5708C47.813 42.9342 47.1639 42.3912 47.0308 41.6452L46.9281 41.0666L43.8668 24.2479C43.7825 23.7908 43.9058 23.3198 44.2034 22.9628C44.501 22.6057 44.942 22.3994 45.4068 22.3999H53.2001C54.2298 22.403 55.0637 23.2369 55.0668 24.2666Z" fill="#EDEFEE"/>
<path d="M53.2004 22.3999H50.4004C51.43 22.403 52.264 23.2369 52.2671 24.2666V41.0666C52.264 42.0962 51.43 42.9302 50.4004 42.9332H53.2004C54.23 42.9302 55.064 42.0962 55.0671 41.0666V24.2666C55.064 23.2369 54.23 22.403 53.2004 22.3999Z" fill="#D4E4DB"/>
<path d="M42.3549 40.7118C42.298 40.8383 42.2259 40.9574 42.1403 41.0665C41.4907 41.9931 40.2638 42.3097 39.2469 41.8132C40.0585 42.2019 40.5742 43.0227 40.5723 43.9225C40.5706 44.2707 40.4942 44.6144 40.3483 44.9305C39.9611 45.7435 39.1394 46.2598 38.2389 46.2558C37.8938 46.2542 37.5531 46.1777 37.2403 46.0318C38.2161 46.5044 38.7379 47.5869 38.4996 48.6447C38.2614 49.7024 37.3258 50.4567 36.2416 50.4652C35.8934 50.4635 35.5497 50.3871 35.2336 50.2412C36.0466 50.6283 36.5629 51.4501 36.5589 52.3505C36.5573 52.6987 36.4809 53.0424 36.3349 53.3585C36.07 53.9153 35.5941 54.3435 35.0125 54.5485C34.431 54.7534 33.7917 54.7182 33.2363 54.4505L29.1483 52.4532L29.7176 50.9412C29.8166 50.6819 29.8672 50.4067 29.8669 50.1292C29.8708 49.0097 29.079 48.0453 27.9802 47.831C26.8815 47.6167 25.7853 48.213 25.3683 49.2518L26.0123 47.5625C26.1113 47.3032 26.1619 47.028 26.1616 46.7505C26.1661 45.6211 25.3611 44.6505 24.2503 44.4463C23.1394 44.242 22.0418 44.8627 21.6443 45.9198C21.7433 45.6606 21.7939 45.3854 21.7936 45.1078C21.7981 43.9784 20.9931 43.0079 19.8823 42.8036C18.7714 42.5993 17.6738 43.22 17.2763 44.2772L16.9776 45.0612C17.0594 44.8272 17.1004 44.581 17.0989 44.3332C17.0989 43.3288 16.4563 42.4372 15.5035 42.1196C14.5507 41.802 13.5015 42.1297 12.8989 42.9332H9.07227L12.1336 26.1145L19.5909 26.1238L26.3016 26.1332L20.4496 32.5732C19.9823 33.0819 19.7254 33.7491 19.7309 34.4398C19.7282 35.5364 20.3705 36.5321 21.3706 36.9817C22.3708 37.4314 23.5418 37.251 24.3603 36.5212L29.7176 31.6865L41.2536 37.6038C42.4152 38.1587 42.908 39.5494 42.3549 40.7118Z" fill="#EDEFEE"/>
<path d="M41.2537 37.6039L29.7177 31.6865L28.7031 32.6021L38.4537 37.6039C39.4407 38.0707 39.9721 39.1596 39.7326 40.2249C39.4931 41.2902 38.5469 42.047 37.455 42.0465C37.1057 42.0461 36.761 41.9663 36.447 41.8132C37.4357 42.2807 37.967 43.3723 37.725 44.4388C37.483 45.5054 36.5327 46.2608 35.439 46.2559C35.0938 46.2542 34.7531 46.1778 34.4403 46.0319C35.4162 46.5044 35.938 47.5869 35.6997 48.6447C35.4614 49.7025 34.5259 50.4567 33.4417 50.4652C33.0935 50.4636 32.7497 50.3872 32.4337 50.2412C33.5965 50.7998 34.0888 52.1934 33.535 53.3585C33.3648 53.709 33.1078 54.01 32.7883 54.2331L33.2326 54.4505C33.7881 54.7182 34.4273 54.7535 35.0089 54.5485C35.5904 54.3436 36.0663 53.9153 36.3313 53.3585C36.8845 52.1934 36.3923 50.8002 35.2299 50.2412C35.546 50.3872 35.8898 50.4636 36.2379 50.4652C37.3222 50.4567 38.2577 49.7025 38.496 48.6447C38.7342 47.5869 38.2125 46.5044 37.2366 46.0319C37.5494 46.1778 37.8901 46.2542 38.2353 46.2559C39.3289 46.2608 40.2792 45.5054 40.5212 44.4388C40.7632 43.3723 40.2319 42.2807 39.2433 41.8132C39.8007 42.0845 40.4437 42.1207 41.028 41.9136C41.6123 41.7066 42.0891 41.2736 42.3513 40.7119C42.9049 39.5504 42.4138 38.1601 41.2537 37.6039Z" fill="#D4E4DB"/>
<path d="M12.1336 26.1146L9.07226 42.9333L8.96959 43.5119C8.83651 44.2579 8.18734 44.8008 7.42959 44.7999H2.80026C1.77061 44.7969 0.936669 43.9629 0.933594 42.9333V26.1333C0.936669 25.1036 1.77061 24.2697 2.80026 24.2666H10.5936C11.0584 24.2661 11.4994 24.4724 11.797 24.8294C12.0946 25.1865 12.2179 25.6575 12.1336 26.1146Z" fill="#EDEFEE"/>
<path d="M10.5939 24.2666H7.79388C8.25871 24.2661 8.69969 24.4724 8.99727 24.8294C9.29485 25.1865 9.4182 25.6575 9.33388 26.1146L6.27255 42.9333L6.16988 43.5119C6.0368 44.2579 5.38763 44.8008 4.62988 44.7999H7.42988C8.18763 44.8008 8.8368 44.2579 8.96988 43.5119L9.07255 42.9333L12.1339 26.1146C12.2182 25.6575 12.0948 25.1865 11.7973 24.8294C11.4997 24.4724 11.0587 24.2661 10.5939 24.2666Z" fill="#D4E4DB"/>
<path d="M19.5874 26.1203H22.3874C17.7817 22.6545 15.7708 16.7202 17.321 11.1685C18.8712 5.6168 23.6655 1.58262 29.4005 1.00428C28.9394 0.95855 28.4727 0.93335 28.0005 0.93335C21.9793 0.93521 16.6336 4.78684 14.726 10.4979C12.8184 16.2089 14.776 22.5001 19.5874 26.1203Z" fill="white"/>
<path d="M2.80026 44.7999H5.60026C4.57061 44.7969 3.73667 43.9629 3.73359 42.9333V26.1333C3.73667 25.1036 4.57061 24.2697 5.60026 24.2666H2.80026C1.77061 24.2697 0.936669 25.1036 0.933594 26.1333V42.9333C0.936669 43.9629 1.77061 44.7969 2.80026 44.7999Z" fill="white"/>
<path d="M0 26.1333H1.86667V33.6H0V26.1333Z" fill="white"/>
<path d="M27.2818 21.473L35.6818 12.1397C36.7163 10.9902 36.6231 9.21969 35.4737 8.18515C34.3242 7.15061 32.5537 7.24379 31.5191 8.39328L25.0931 15.5333L24.381 14.8202C23.2724 13.7636 21.5295 13.7636 20.4209 14.8202C19.8956 15.3453 19.6006 16.0576 19.6006 16.8003C19.6006 17.543 19.8956 18.2552 20.4209 18.7803L23.2209 21.5803C23.7448 22.1069 24.4576 22.402 25.2005 22.3998H25.2751C26.0424 22.3776 26.7674 22.0428 27.2818 21.473ZM25.2005 21.4665V20.5331C24.9528 20.5338 24.7152 20.4353 24.5406 20.2597L21.7406 17.4597C21.498 17.2253 21.4007 16.8783 21.4861 16.552C21.5715 16.2257 21.8263 15.9708 22.1526 15.8854C22.479 15.8 22.826 15.8973 23.0603 16.1399L24.4697 17.5483C24.6477 17.7338 24.897 17.8335 25.1538 17.8218C25.4098 17.815 25.6518 17.7033 25.823 17.5129L32.9061 9.64301C33.129 9.39493 33.4673 9.28461 33.7936 9.35361C34.1199 9.42261 34.3846 9.66046 34.488 9.97755C34.5914 10.2946 34.5178 10.6428 34.2949 10.8909L25.8949 20.2242C25.7233 20.4155 25.4806 20.5275 25.2238 20.5341L25.2005 21.4665Z" fill="#2E4939"/>
<path d="M53.2 21.4666H45.4085C44.2783 21.4658 43.2885 22.2241 42.9949 23.3155H40.3396C44.7551 16.8413 43.415 8.05526 37.2702 3.19182C31.1253 -1.67162 22.2664 -0.957854 16.9795 4.82665C11.6926 10.6112 11.7764 19.4984 17.1715 25.1822L13.0051 25.1766C12.7094 24.0874 11.7201 23.3318 10.5915 23.3332H2.8C1.2536 23.3332 0 24.5868 0 26.1332C0 26.6487 0.417868 27.0666 0.933333 27.0666C1.4488 27.0666 1.86667 26.6487 1.86667 26.1332C1.86667 25.6178 2.28453 25.1999 2.8 25.1999H10.5915C10.7794 25.1996 10.9577 25.2829 11.0782 25.4271C11.1986 25.5714 11.2488 25.7617 11.2149 25.9466L8.05187 43.3458C7.99686 43.6474 7.73408 43.8666 7.42747 43.8666H2.8C2.28453 43.8666 1.86667 43.4487 1.86667 42.9332V33.5999C1.86667 33.0844 1.4488 32.6666 0.933333 32.6666C0.417868 32.6666 0 33.0844 0 33.5999V42.9332C0 44.4796 1.2536 45.7332 2.8 45.7332H7.42747C8.5618 45.7315 9.55205 44.9644 9.83733 43.8666H11.4464L10.3927 46.6666C10.0864 47.4758 10.115 48.3736 10.4721 49.1617C10.8292 49.9498 11.4854 50.5633 12.2957 50.8666C13.1183 51.1714 14.0289 51.1334 14.8232 50.7611C14.8279 50.7723 14.8297 50.7835 14.8344 50.7947C15.1937 51.5901 15.857 52.2081 16.6757 52.5106C17.4944 52.813 18.4002 52.7745 19.1903 52.4038C19.1903 52.415 19.1968 52.4262 19.2015 52.4374C19.5608 53.2327 20.2241 53.8508 21.0428 54.1532C21.8615 54.4557 22.7672 54.4172 23.5573 54.0464C23.562 54.0576 23.5629 54.0688 23.5676 54.0791C24.1105 55.2841 25.326 56.0433 26.647 56.0024C27.968 55.9616 29.1343 55.1287 29.6016 53.8924L29.6576 53.745L32.8309 55.2943C33.2703 55.5083 33.7525 55.6196 34.2412 55.62C34.6088 55.619 34.9736 55.5559 35.3201 55.4334C36.1414 55.1465 36.8126 54.541 37.1821 53.7534C37.5543 52.9594 37.595 52.0499 37.2951 51.2259L37.3277 51.2147C38.1493 50.9232 38.8203 50.3155 39.1913 49.5267C39.5624 48.7379 39.6028 47.8335 39.3036 47.0147L39.3335 47.0044C40.1552 46.7131 40.8264 46.1055 41.1976 45.3166C41.5689 44.5278 41.6095 43.6233 41.3103 42.8044C41.7832 42.636 42.2109 42.3607 42.56 41.9999H46.1627C46.4479 43.0978 47.4382 43.8648 48.5725 43.8666H53.2C54.7464 43.8666 56 42.613 56 41.0666V24.2666C56 22.7202 54.7464 21.4666 53.2 21.4666ZM14.9333 14.9332C14.925 9.15648 18.711 4.05982 24.244 2.39929C29.7769 0.738765 35.7437 2.90848 38.9176 7.73517C42.0916 12.5619 41.7195 18.8999 38.0025 23.322L29.26 23.3332C28.1941 23.3336 27.1777 23.7829 26.46 24.5708L25.8907 25.1999L19.9276 25.1924C16.7653 22.7296 14.9212 18.9415 14.9333 14.9332ZM12.95 49.1194C12.6033 48.9898 12.3226 48.7272 12.1702 48.39C12.0178 48.0527 12.0062 47.6686 12.138 47.3227L13.4559 43.8283C13.7449 43.1378 14.526 42.7969 15.2289 43.0544C15.9318 43.3119 16.3077 44.0768 16.0823 44.7906L15.3113 46.8299L14.7513 48.3064C14.4773 49.0273 13.6719 49.3908 12.95 49.1194ZM17.3171 50.7583C16.9704 50.6288 16.6895 50.3667 16.5365 50.0297C16.3834 49.6928 16.3708 49.3088 16.5013 48.9626C16.6115 48.6723 18.1813 44.5096 18.1477 44.6058C18.4379 43.9105 19.2261 43.5695 19.9315 43.8341C20.6368 44.0987 21.0063 44.874 20.7676 45.5886L19.1221 49.9444C18.8465 50.6658 18.0402 51.0293 17.3171 50.7583ZM21.6841 52.401C21.3374 52.2713 21.0565 52.009 20.9035 51.6719C20.7505 51.3348 20.7378 50.9507 20.8684 50.6043L22.5148 46.2484C22.7145 45.7182 23.2142 45.3607 23.7805 45.3427C24.3468 45.3247 24.8681 45.6498 25.1011 46.1663C25.2542 46.5022 25.2663 46.8854 25.1347 47.2303C24.8883 47.8836 23.3931 51.84 23.4892 51.5871C23.3578 51.9344 23.0938 52.2153 22.7552 52.3679C22.4167 52.5206 22.0314 52.5324 21.6841 52.401ZM26.0503 54.0399C25.7035 53.9106 25.4225 53.6485 25.2696 53.3114C25.1166 52.9744 25.1044 52.5903 25.2355 52.2442L26.2229 49.6308C26.5213 48.9484 27.3016 48.619 27.9987 48.8813C28.6958 49.1436 29.0655 49.9057 28.84 50.6155L27.8525 53.2288C27.5777 53.9495 26.7719 54.3121 26.0503 54.0399ZM41.5091 40.3199C41.1686 41.0026 40.3477 41.2918 39.6545 40.9732L37.1345 39.7692C36.678 39.5861 36.1577 39.7887 35.9453 40.2324C35.7328 40.676 35.9011 41.2084 36.33 41.4492L38.85 42.6514L38.8575 42.657C39.3242 42.8622 39.6424 43.3049 39.6882 43.8127C39.7341 44.3204 39.5002 44.813 39.0779 45.0985C38.6555 45.3839 38.1113 45.4172 37.6572 45.1854L34.9505 43.889C34.4931 43.7013 33.9687 43.9028 33.7548 44.3486C33.5409 44.7943 33.7116 45.3295 34.1441 45.569L36.8508 46.8644C37.3618 47.1087 37.6753 47.6368 37.6451 48.2023C37.6149 48.7679 37.2468 49.2596 36.7127 49.4479C36.365 49.5714 35.9824 49.5512 35.6496 49.3919H35.6356L33.0801 48.1646C32.6218 47.9717 32.0927 48.1721 31.8771 48.6202C31.6615 49.0683 31.8351 49.6068 32.2719 49.8446L34.8385 51.0766C35.5328 51.416 35.8242 52.2512 35.4919 52.9488C35.334 53.2806 35.0507 53.5359 34.7043 53.6585C34.358 53.781 33.9771 53.7608 33.6457 53.6022L30.3203 51.9866L30.5891 51.2744C31.004 50.1964 30.8134 48.9788 30.0886 48.0793C29.3639 47.1797 28.2149 46.7342 27.0732 46.9102C27.1378 45.767 26.596 44.6742 25.6469 44.0337C24.6978 43.3932 23.4817 43.2996 22.4457 43.7872C22.4457 43.776 22.4392 43.7648 22.4345 43.7536C22.0245 42.8456 21.2214 42.1753 20.2547 41.9342C19.288 41.6931 18.2641 41.9078 17.4757 42.517C16.9403 41.7057 16.0692 41.1773 15.1024 41.0771C14.1355 40.977 13.1747 41.3156 12.4843 41.9999H10.1939L12.9117 27.0488L19.5384 27.0572C19.5589 27.0572 19.5795 27.0675 19.6 27.0675C19.6205 27.0675 19.628 27.0582 19.642 27.0582L24.1967 27.0638L19.7624 31.9414C18.4287 33.4045 18.4756 35.6562 19.8692 37.0624C21.2627 38.4687 23.5139 38.5361 24.9891 37.2156L29.8667 32.8112L40.852 38.4448C41.5501 38.7822 41.8439 39.6206 41.5091 40.3199ZM31.346 31.4728L32.3577 30.5591C32.7261 30.2107 32.7489 29.6319 32.4091 29.2556C32.0693 28.8792 31.4912 28.843 31.1071 29.174L23.7421 35.825C23.0069 36.4797 21.8877 36.4442 21.1954 35.7442C20.5031 35.0442 20.48 33.9247 21.1428 33.1967L27.8432 25.8234C28.2074 25.4254 28.7224 25.1991 29.2619 25.1999L38.4085 25.1878C38.4477 25.1901 38.487 25.1901 38.5261 25.1878L43.0864 25.1822L45.8061 40.1332H43.4728C43.6616 38.7444 42.94 37.3907 41.6817 36.7732L31.346 31.4728ZM54.1333 41.0666C54.1333 41.582 53.7155 41.9999 53.2 41.9999H48.5725C48.2659 41.9999 48.0031 41.7807 47.9481 41.4791L44.7851 24.0799C44.7513 23.895 44.8014 23.7047 44.9218 23.5605C45.0423 23.4162 45.2206 23.3329 45.4085 23.3332H53.2C53.7155 23.3332 54.1333 23.7511 54.1333 24.2666V41.0666Z" fill="#2E4939"/>
<path d="M0.933333 30.8C1.4488 30.8 1.86667 30.3821 1.86667 29.8667C1.86667 29.3512 1.4488 28.9333 0.933333 28.9333C0.417868 28.9333 0 29.3512 0 29.8667C0 30.3821 0.417868 30.8 0.933333 30.8Z" fill="#2E4939"/>
</g>
<defs>
<clipPath id="clip0_157_6703">
<rect width="56" height="56" fill="white"/>
</clipPath>
</defs>
</svg>
