<svg width="50" height="67" viewBox="0 0 50 67" fill="none" xmlns="http://www.w3.org/2000/svg">
<path fill-rule="evenodd" clip-rule="evenodd" d="M16.2489 48.4203C10.7627 46.3693 6.1711 42.4564 3.27567 37.3649C0.38024 32.2734 -0.635053 26.3266 0.407035 20.5627C1.44912 14.7988 4.48239 9.58409 8.9773 5.82882C13.4722 2.07356 19.1432 0.0163561 25.0002 0.0163563C30.8572 0.0163566 36.5282 2.07356 41.0231 5.82882C45.518 9.58409 48.5513 14.7988 49.5934 20.5627C50.6355 26.3266 49.6202 32.2734 46.7247 37.3649C43.8293 42.4565 39.2377 46.3693 33.7515 48.4203L32.5743 45.2613C37.3191 43.4864 41.2899 40.1013 43.7935 35.6971C46.2972 31.2929 47.1746 26.1492 46.2728 21.164C45.3709 16.1788 42.747 11.6687 38.8591 8.42084C34.9711 5.17302 30.0661 3.39382 25.0002 3.39382C19.9343 3.39382 15.0293 5.17301 11.1414 8.42083C7.25343 11.6687 4.62952 16.1788 3.72766 21.164C2.8258 26.1492 3.70327 31.2929 6.2069 35.6971C8.71053 40.1013 12.6813 43.4863 17.4261 45.2613L16.2489 48.4203ZM34.5708 57.986L32.1775 55.5925L26.5527 61.2189L26.5527 23.2375L23.1692 23.2375L23.1692 61.2243L17.5445 55.5979L15.1512 57.986L23.6643 66.4995C23.9817 66.8169 24.4121 66.9952 24.861 66.9952C25.3098 66.9952 25.7402 66.8169 26.0576 66.4995L34.5708 57.986Z" fill="#F2F2F2"/>
</svg>
