<svg width="61" height="60" viewBox="0 0 61 60" fill="none" xmlns="http://www.w3.org/2000/svg">
<circle cx="30.5" cy="30" r="29.5" fill="#FDFBF7" fill-opacity="0.15" stroke="#FDFBF7"/>
<circle cx="30.5004" cy="29.9999" r="23.3636" stroke="#FDFBF7"/>
<g clip-path="url(#clip0_157_7497)">
<path d="M37.9996 23C38.0029 24.8431 37.3244 26.6222 36.0946 27.995L31.1746 28C30.7442 27.9995 30.3337 28.1811 30.0446 28.5L29.5896 29L25.9946 28.995C23.1753 26.8769 22.2124 23.0808 23.6812 19.8749C25.1499 16.669 28.6537 14.9193 32.0989 15.6713C35.5441 16.4232 38.0002 19.4737 37.9996 23Z" fill="#FDFBF7" fill-opacity="0.15"/>
<path d="M30.5 15.5C30.247 15.5 29.997 15.5135 29.75 15.538C32.5565 15.8201 34.9675 17.6529 35.9899 20.2818C37.0124 22.9106 36.4734 25.8908 34.595 27.995H36.095C38.064 25.7896 38.5537 22.6332 37.3455 19.9349C36.1372 17.2366 33.4565 15.4999 30.5 15.5Z" fill="#FDFBF7" fill-opacity="0.6"/>
<path d="M29.0004 26.5002C28.7352 26.5001 28.4809 26.3947 28.2934 26.2072L26.7934 24.7072C26.4144 24.3148 26.4199 23.6911 26.8056 23.3054C27.1913 22.9196 27.815 22.9142 28.2074 23.2932L28.9624 24.0477L32.7569 19.8312C33.1264 19.4206 33.7588 19.3872 34.1694 19.7567C34.58 20.1262 34.6134 20.7586 34.2439 21.1692L29.7439 26.1692C29.5604 26.3732 29.3012 26.4929 29.0269 26.5002H29.0004Z" fill="#FDFBF7" fill-opacity="0.3"/>
<path d="M24.6603 38.7501C24.6611 38.8828 24.6391 39.0148 24.5953 39.1401L23.8703 41.0551C23.5999 41.6579 22.9072 41.9462 22.2889 41.7132C21.6707 41.4802 21.3406 40.8064 21.5353 40.1751L22.2403 38.3051C22.2789 38.1944 22.3365 38.0912 22.4103 38.0001C22.7331 37.5697 23.2952 37.3941 23.8056 37.5642C24.316 37.7344 24.6603 38.212 24.6603 38.7501Z" fill="#FDFBF7" fill-opacity="0.3"/>
<path d="M27.1754 39.1653C27.1755 39.314 27.1484 39.4614 27.0954 39.6003L26.2104 41.9353C25.9674 42.5815 25.2466 42.9083 24.6004 42.6653C23.9542 42.4223 23.6274 41.7015 23.8704 41.0553L24.5954 39.1403L24.7554 38.7203C24.9683 38.154 25.5564 37.8215 26.1515 37.9309C26.7465 38.0403 27.1778 38.5602 27.1754 39.1653Z" fill="#FDFBF7" fill-opacity="0.3"/>
<path d="M31.5002 41.855C31.5004 42.0037 31.4733 42.1511 31.4202 42.29L31.1152 43.1L30.8902 43.69C30.6314 44.3103 29.9284 44.6149 29.2988 44.3795C28.6693 44.144 28.3386 43.4529 28.5502 42.815L29.0902 41.385C29.3137 40.8285 29.9009 40.509 30.4895 40.6238C31.0781 40.7386 31.5023 41.2553 31.5002 41.855Z" fill="#FDFBF7" fill-opacity="0.3"/>
<path d="M29.5152 40.0452C29.5154 40.1939 29.4883 40.3413 29.4352 40.4802L29.0902 41.3852L28.5502 42.8152C28.3072 43.4614 27.5864 43.7882 26.9402 43.5452C26.294 43.3022 25.9672 42.5814 26.2102 41.9352L27.0952 39.6002C27.3082 39.0338 27.8962 38.7013 28.4913 38.8108C29.0864 38.9202 29.5177 39.4401 29.5152 40.0452Z" fill="#FDFBF7" fill-opacity="0.3"/>
<path d="M38.1904 36.8102C38.4867 36.1875 38.2226 35.4425 37.6004 35.1452L31.4204 31.9752L28.5504 34.5652C28.1119 34.9562 27.4846 35.0529 26.9488 34.812C26.413 34.5711 26.0689 34.0377 26.0704 33.4502C26.0674 33.0802 26.205 32.7228 26.4554 32.4502L29.5904 29.0002L30.0454 28.5002C30.3344 28.1813 30.745 27.9997 31.1754 28.0002L36.0954 27.9952L39.0004 27.9902L40.6404 37.0002H38.0754C38.1213 36.9418 38.1599 36.878 38.1904 36.8102Z" fill="#FDFBF7" fill-opacity="0.3"/>
<path d="M39.0005 27.9902L37.501 27.9927L39.1405 37.0002H40.6405L39.0005 27.9902Z" fill="#FDFBF7" fill-opacity="0.15"/>
<path d="M45.0002 28V37C44.9986 37.5516 44.5518 37.9984 44.0002 38H41.5202C41.1143 38.0005 40.7665 37.7096 40.6952 37.31L40.6402 37L39.0002 27.99C38.9551 27.7451 39.0211 27.4928 39.1806 27.3015C39.34 27.1102 39.5762 26.9997 39.8252 27H44.0002C44.5518 27.0016 44.9986 27.4484 45.0002 28Z" fill="#FDFBF7" fill-opacity="0.3"/>
<path d="M44 27H42.5C43.0516 27.0016 43.4984 27.4484 43.5 28V37C43.4984 37.5516 43.0516 37.9984 42.5 38H44C44.5516 37.9984 44.9984 37.5516 45 37V28C44.9984 27.4484 44.5516 27.0016 44 27Z" fill="#FDFBF7" fill-opacity="0.15"/>
<path d="M38.1904 36.8102C38.1599 36.878 38.1212 36.9418 38.0754 37.0002C37.7274 37.4966 37.0701 37.6662 36.5254 37.4002C36.9601 37.6085 37.2364 38.0482 37.2354 38.5302C37.2345 38.7168 37.1936 38.9009 37.1154 39.0702C36.908 39.5058 36.4677 39.7824 35.9854 39.7802C35.8004 39.7793 35.6179 39.7384 35.4504 39.6602C35.9731 39.9134 36.2527 40.4933 36.125 41.06C35.9974 41.6266 35.4962 42.0307 34.9154 42.0352C34.7288 42.0344 34.5447 41.9934 34.3754 41.9152C34.8109 42.1226 35.0875 42.5629 35.0854 43.0452C35.0845 43.2318 35.0436 43.4159 34.9654 43.5852C34.8234 43.8835 34.5685 44.1129 34.2569 44.2227C33.9454 44.3325 33.6029 44.3136 33.3054 44.1702L31.1154 43.1002L31.4204 42.2902C31.4734 42.1514 31.5005 42.0039 31.5004 41.8552C31.5024 41.2555 31.0783 40.7389 30.4896 40.6241C29.901 40.5093 29.3138 40.8287 29.0904 41.3852L29.4354 40.4802C29.4884 40.3413 29.5155 40.1939 29.5154 40.0452C29.5178 39.4402 29.0865 38.9202 28.4914 38.8108C27.8963 38.7014 27.3083 39.0339 27.0954 39.6002C27.1484 39.4613 27.1755 39.3139 27.1754 39.1652C27.1778 38.5602 26.7465 38.0402 26.1514 37.9308C25.5563 37.8214 24.9683 38.1539 24.7554 38.7202L24.5954 39.1402C24.6392 39.0149 24.6611 38.883 24.6604 38.7502C24.6604 38.2122 24.3161 37.7345 23.8056 37.5644C23.2952 37.3942 22.7332 37.5698 22.4104 38.0002H20.3604L22.0004 28.9902L25.9954 28.9952L29.5904 29.0002L26.4554 32.4502C26.205 32.7228 26.0674 33.0802 26.0704 33.4502C26.0689 34.0377 26.413 34.5711 26.9488 34.812C27.4846 35.0529 28.1119 34.9562 28.5504 34.5652L31.4204 31.9752L37.6004 35.1452C38.2226 35.4425 38.4866 36.1875 38.1904 36.8102Z" fill="#FDFBF7" fill-opacity="0.3"/>
<path d="M37.6005 35.1451L31.4205 31.9751L30.877 32.4656L36.1005 35.1451C36.6292 35.3952 36.9139 35.9785 36.7856 36.5492C36.6573 37.12 36.1504 37.5254 35.5655 37.5251C35.3783 37.5249 35.1937 37.4821 35.0255 37.4001C35.5551 37.6506 35.8397 38.2353 35.7101 38.8067C35.5804 39.3781 35.0713 39.7827 34.4855 39.7801C34.3005 39.7792 34.118 39.7383 33.9505 39.6601C34.4732 39.9133 34.7528 40.4932 34.6251 41.0598C34.4975 41.6265 33.9963 42.0306 33.4155 42.0351C33.2289 42.0342 33.0448 41.9933 32.8755 41.9151C33.4984 42.2144 33.7621 42.9609 33.4655 43.5851C33.3743 43.7728 33.2366 43.9341 33.0655 44.0536L33.3035 44.1701C33.601 44.3135 33.9435 44.3324 34.255 44.2226C34.5666 44.1128 34.8215 43.8834 34.9635 43.5851C35.2598 42.9609 34.9962 42.2146 34.3735 41.9151C34.5428 41.9933 34.7269 42.0342 34.9135 42.0351C35.4943 42.0306 35.9955 41.6265 36.1231 41.0598C36.2508 40.4932 35.9712 39.9133 35.4485 39.6601C35.616 39.7383 35.7985 39.7792 35.9835 39.7801C36.5693 39.7827 37.0784 39.3781 37.2081 38.8067C37.3377 38.2353 37.0531 37.6506 36.5235 37.4001C36.8221 37.5455 37.1665 37.5648 37.4796 37.4539C37.7926 37.343 38.048 37.111 38.1885 36.8101C38.485 36.1879 38.222 35.4431 37.6005 35.1451Z" fill="#FDFBF7" fill-opacity="0.15"/>
<path d="M22 28.99L20.36 38L20.305 38.31C20.2337 38.7096 19.8859 39.0005 19.48 39H17C16.4484 38.9984 16.0016 38.5516 16 38V29C16.0016 28.4484 16.4484 28.0016 17 28H21.175C21.424 27.9997 21.6603 28.1102 21.8197 28.3015C21.9791 28.4928 22.0452 28.7451 22 28.99Z" fill="#FDFBF7" fill-opacity="0.3"/>
<path d="M21.1755 28H19.6755C19.9245 27.9997 20.1607 28.1102 20.3201 28.3015C20.4796 28.4928 20.5456 28.7451 20.5005 28.99L18.8605 38L18.8055 38.31C18.7342 38.7096 18.3864 39.0005 17.9805 39H19.4805C19.8864 39.0005 20.2342 38.7096 20.3055 38.31L20.3605 38L22.0005 28.99C22.0456 28.7451 21.9796 28.4928 21.8201 28.3015C21.6607 28.1102 21.4245 27.9997 21.1755 28Z" fill="#FDFBF7" fill-opacity="0.15"/>
<path d="M25.9931 28.993H27.4931C25.0258 27.1364 23.9485 23.9572 24.779 20.9831C25.6094 18.009 28.1778 15.8478 31.2501 15.538C31.0031 15.5135 30.7531 15.5 30.5001 15.5C27.2745 15.501 24.4107 17.5644 23.3888 20.6239C22.3668 23.6834 23.4156 27.0536 25.9931 28.993Z" fill="white" fill-opacity="0.1"/>
<path d="M17 39H18.5C17.9484 38.9984 17.5016 38.5516 17.5 38V29C17.5016 28.4484 17.9484 28.0016 18.5 28H17C16.4484 28.0016 16.0016 28.4484 16 29V38C16.0016 38.5516 16.4484 38.9984 17 39Z" fill="white" fill-opacity="0.1"/>
<path d="M15.5 29H16.5V33H15.5V29Z" fill="white" fill-opacity="0.1"/>
<path d="M30.1149 26.5036L34.6149 21.5036C35.1691 20.8878 35.1192 19.9393 34.5034 19.3851C33.8876 18.8309 32.9391 18.8808 32.3849 19.4966L28.9424 23.3216L28.5609 22.9396C27.967 22.3736 27.0333 22.3736 26.4394 22.9396C26.1581 23.2209 26 23.6025 26 24.0003C26 24.3982 26.1581 24.7798 26.4394 25.0611L27.9394 26.5611C28.2201 26.8432 28.602 27.0012 28.9999 27.0001H29.0399C29.451 26.9882 29.8393 26.8088 30.1149 26.5036ZM28.9999 26.5001V26.0001C28.8673 26.0005 28.74 25.9477 28.6464 25.8536L27.1464 24.3536C27.0165 24.2281 26.9643 24.0422 27.0101 23.8673C27.0558 23.6925 27.1924 23.556 27.3672 23.5102C27.542 23.4645 27.7279 23.5166 27.8534 23.6466L28.6084 24.4011C28.7038 24.5004 28.8374 24.5538 28.9749 24.5476C29.1121 24.5439 29.2417 24.4841 29.3334 24.3821L33.1279 20.1661C33.2473 20.0332 33.4286 19.9741 33.6034 20.0111C33.7782 20.048 33.92 20.1754 33.9754 20.3453C34.0308 20.5152 33.9913 20.7017 33.8719 20.8346L29.3719 25.8346C29.28 25.937 29.15 25.9971 29.0124 26.0006L28.9999 26.5001Z" fill="#FDFBF7"/>
<path d="M44 26.5001H39.826C39.2205 26.4997 38.6903 26.9059 38.533 27.4906H37.1105C39.4759 24.0223 38.758 19.3155 35.4662 16.7101C32.1743 14.1047 27.4284 14.487 24.5962 17.5859C21.7639 20.6847 21.8088 25.4458 24.699 28.4906L22.467 28.4876C22.3086 27.9041 21.7786 27.4993 21.174 27.5001H17C16.1716 27.5001 15.5 28.1717 15.5 29.0001C15.5 29.2763 15.7239 29.5001 16 29.5001C16.2761 29.5001 16.5 29.2763 16.5 29.0001C16.5 28.724 16.7239 28.5001 17 28.5001H21.174C21.2747 28.5 21.3702 28.5446 21.4347 28.6218C21.4993 28.6991 21.5261 28.8011 21.508 28.9001L19.8135 38.2211C19.784 38.3827 19.6433 38.5001 19.479 38.5001H17C16.7239 38.5001 16.5 38.2763 16.5 38.0001V33.0001C16.5 32.724 16.2761 32.5001 16 32.5001C15.7239 32.5001 15.5 32.724 15.5 33.0001V38.0001C15.5 38.8286 16.1716 39.5001 17 39.5001H19.479C20.0867 39.4992 20.6172 39.0883 20.77 38.5001H21.632L21.0675 40.0001C20.9034 40.4336 20.9187 40.9146 21.1101 41.3368C21.3014 41.759 21.6529 42.0877 22.087 42.2501C22.5277 42.4134 23.0155 42.3931 23.441 42.1936C23.4435 42.1996 23.4445 42.2056 23.447 42.2116C23.6395 42.6377 23.9948 42.9688 24.4334 43.1308C24.872 43.2928 25.3572 43.2722 25.7805 43.0736C25.7805 43.0796 25.784 43.0856 25.7865 43.0916C25.979 43.5177 26.3343 43.8488 26.7729 44.0108C27.2115 44.1728 27.6967 44.1522 28.12 43.9536C28.1225 43.9596 28.123 43.9656 28.1255 43.9711C28.4163 44.6167 29.0675 45.0234 29.7752 45.0015C30.4829 44.9796 31.1076 44.5334 31.358 43.8711L31.388 43.7921L33.088 44.6221C33.3234 44.7367 33.5817 44.7964 33.8435 44.7966C34.0404 44.796 34.2358 44.7622 34.4215 44.6966C34.8615 44.543 35.221 44.2185 35.419 43.7966C35.6184 43.3713 35.6402 42.884 35.4795 42.4426L35.497 42.4366C35.9371 42.2805 36.2966 41.9549 36.4954 41.5323C36.6942 41.1097 36.7158 40.6252 36.5555 40.1866L36.5715 40.1811C37.0117 40.0251 37.3713 39.6995 37.5702 39.2769C37.7691 38.8544 37.7908 38.3698 37.6305 37.9311C37.8839 37.8409 38.113 37.6934 38.3 37.5001H40.23C40.3828 38.0883 40.9133 38.4992 41.521 38.5001H44C44.8284 38.5001 45.5 37.8286 45.5 37.0001V28.0001C45.5 27.1717 44.8284 26.5001 44 26.5001ZM23.5 23.0001C23.4956 19.9054 25.5238 17.1751 28.4878 16.2855C31.4519 15.3959 34.6484 16.5583 36.3487 19.144C38.0491 21.7297 37.8497 25.1251 35.8585 27.4941L31.175 27.5001C30.604 27.5003 30.0595 27.741 29.675 28.1631L29.37 28.5001L26.1755 28.4961C24.4814 27.1767 23.4935 25.1474 23.5 23.0001ZM22.4375 41.3141C22.2518 41.2447 22.1014 41.1041 22.0198 40.9234C21.9381 40.7427 21.9319 40.5369 22.0025 40.3516L22.7085 38.4796C22.8634 38.1097 23.2818 37.9271 23.6583 38.065C24.0349 38.203 24.2363 38.6127 24.1155 38.9951L23.7025 40.0876L23.4025 40.8786C23.2557 41.2648 22.8242 41.4595 22.4375 41.3141ZM24.777 42.1921C24.5913 42.1228 24.4408 41.9823 24.3588 41.8018C24.2768 41.6213 24.2701 41.4156 24.34 41.2301C24.399 41.0746 25.24 38.8446 25.222 38.8961C25.3774 38.5237 25.7997 38.341 26.1776 38.4827C26.5554 38.6245 26.7534 39.0398 26.6255 39.4226L25.744 41.7561C25.5963 42.1426 25.1644 42.3373 24.777 42.1921ZM27.1165 43.0721C26.9308 43.0026 26.7803 42.8621 26.6983 42.6815C26.6163 42.501 26.6095 42.2952 26.6795 42.1096L27.5615 39.7761C27.6685 39.4921 27.9362 39.3005 28.2395 39.2909C28.5429 39.2813 28.8222 39.4554 28.947 39.7321C29.029 39.9121 29.0355 40.1174 28.965 40.3021C28.833 40.6521 28.032 42.7716 28.0835 42.6361C28.0131 42.8222 27.8717 42.9727 27.6903 43.0544C27.509 43.1362 27.3025 43.1426 27.1165 43.0721ZM29.4555 43.9501C29.2697 43.8809 29.1192 43.7404 29.0373 43.5599C28.9553 43.3793 28.9488 43.1735 29.019 42.9881L29.548 41.5881C29.7078 41.2225 30.1259 41.0461 30.4993 41.1866C30.8727 41.3271 31.0708 41.7354 30.95 42.1156L30.421 43.5156C30.2738 43.9017 29.8421 44.096 29.4555 43.9501ZM37.737 36.6001C37.5546 36.9658 37.1149 37.1208 36.7435 36.9501L35.3935 36.3051C35.1489 36.207 34.8702 36.3156 34.7564 36.5532C34.6426 36.7909 34.7328 37.0761 34.9625 37.2051L36.3125 37.8491L36.3165 37.8521C36.5665 37.9621 36.737 38.1992 36.7616 38.4712C36.7861 38.7433 36.6608 39.0071 36.4346 39.1601C36.2083 39.313 35.9167 39.3308 35.6735 39.2066L34.2235 38.5121C33.9785 38.4116 33.6975 38.5196 33.5829 38.7583C33.4683 38.9971 33.5598 39.2838 33.7915 39.4121L35.2415 40.1061C35.5153 40.237 35.6832 40.5199 35.667 40.8229C35.6508 41.1258 35.4537 41.3892 35.1675 41.4901C34.9812 41.5563 34.7763 41.5455 34.598 41.4601H34.5905L33.2215 40.8026C32.976 40.6993 32.6925 40.8067 32.577 41.0467C32.4615 41.2868 32.5545 41.5752 32.7885 41.7026L34.1635 42.3626C34.5354 42.5445 34.6916 42.9919 34.5135 43.3656C34.4289 43.5433 34.2771 43.6801 34.0916 43.7458C33.9061 43.8114 33.702 43.8006 33.5245 43.7156L31.743 42.8501L31.887 42.4686C32.1093 41.8911 32.0072 41.2388 31.6189 40.7569C31.2307 40.275 30.6151 40.0363 30.0035 40.1306C30.0381 39.5182 29.7478 38.9328 29.2394 38.5897C28.731 38.2466 28.0795 38.1964 27.5245 38.4576C27.5245 38.4516 27.521 38.4456 27.5185 38.4396C27.2988 37.9532 26.8686 37.5941 26.3507 37.4649C25.8328 37.3358 25.2844 37.4508 24.862 37.7771C24.5751 37.3425 24.1085 37.0594 23.5906 37.0058C23.0726 36.9521 22.5579 37.1335 22.188 37.5001H20.961L22.417 29.4906L25.967 29.4951C25.978 29.4951 25.989 29.5006 26 29.5006C26.011 29.5006 26.015 29.4956 26.0225 29.4956L28.4625 29.4986L26.087 32.1116C25.3725 32.8954 25.3976 34.1017 26.1442 34.8551C26.8908 35.6084 28.0967 35.6445 28.887 34.9371L31.5 32.5776L37.385 35.5956C37.759 35.7763 37.9164 36.2255 37.737 36.6001ZM32.2925 31.8606L32.8345 31.3711C33.0318 31.1845 33.0441 30.8744 32.862 30.6728C32.68 30.4712 32.3703 30.4518 32.1645 30.6291L28.219 34.1921C27.8251 34.5429 27.2256 34.5238 26.8547 34.1488C26.4838 33.7738 26.4714 33.1741 26.8265 32.7841L30.416 28.8341C30.6111 28.6209 30.887 28.4997 31.176 28.5001L36.076 28.4936C36.097 28.4949 36.118 28.4949 36.139 28.4936L38.582 28.4906L40.039 36.5001H38.789C38.8901 35.7561 38.5036 35.0309 37.8295 34.7001L32.2925 31.8606ZM44.5 37.0001C44.5 37.2763 44.2761 37.5001 44 37.5001H41.521C41.3567 37.5001 41.216 37.3827 41.1865 37.2211L39.492 27.9001C39.4739 27.8011 39.5007 27.6991 39.5653 27.6218C39.6298 27.5446 39.7253 27.5 39.826 27.5001H44C44.2761 27.5001 44.5 27.724 44.5 28.0001V37.0001Z" fill="#FDFBF7"/>
<path d="M16 31.5C16.2761 31.5 16.5 31.2761 16.5 31C16.5 30.7239 16.2761 30.5 16 30.5C15.7239 30.5 15.5 30.7239 15.5 31C15.5 31.2761 15.7239 31.5 16 31.5Z" fill="#FDFBF7"/>
</g>
<defs>
<clipPath id="clip0_157_7497">
<rect width="30" height="30" fill="white" transform="translate(15.5 15)"/>
</clipPath>
</defs>
</svg>
