<svg width="61" height="60" viewBox="0 0 61 60" fill="none" xmlns="http://www.w3.org/2000/svg">
<circle cx="30.5" cy="30" r="29.5" fill="#FDFBF7" fill-opacity="0.15" stroke="#FDFBF7"/>
<circle cx="30.5004" cy="29.9999" r="23.3636" stroke="#FDFBF7"/>
<g clip-path="url(#clip0_157_7532)">
<path d="M30.5 39C35.4706 39 39.5 34.9706 39.5 30C39.5 25.0294 35.4706 21 30.5 21C25.5294 21 21.5 25.0294 21.5 30C21.5 34.9706 25.5294 39 30.5 39Z" fill="#FDFBF7" fill-opacity="0.3"/>
<path d="M30.5 21C30.247 21 30 21.0175 29.75 21.038C34.4136 21.4231 38.0025 25.3205 38.0025 30C38.0025 34.6795 34.4136 38.5769 29.75 38.962C30 38.9825 30.247 39 30.5 39C35.4706 39 39.5 34.9706 39.5 30C39.5 25.0294 35.4706 21 30.5 21Z" fill="#FDFBF7" fill-opacity="0.15"/>
<path d="M23 22C23 22.2761 22.7762 22.5 22.5 22.5H16.5C16.2239 22.5 16 22.2761 16 22C15.9976 21.0712 16.3667 20.1801 17.025 19.525C17.3097 19.2383 17.6433 19.0046 18.01 18.835C18.3894 19.2587 18.9313 19.5008 19.5 19.5008C20.0688 19.5008 20.6106 19.2587 20.99 18.835C22.2184 19.4095 23.0023 20.6439 23 22Z" fill="#FDFBF7" fill-opacity="0.15"/>
<path d="M20.99 18.835C20.7912 19.055 20.5457 19.2277 20.2715 19.3405C21.0518 20.0034 21.5011 20.976 21.5 22C21.5 22.2761 21.2761 22.5 21 22.5H22.5C22.7761 22.5 23 22.2761 23 22C23.0023 20.6439 22.2183 19.4095 20.99 18.835Z" fill="#FDFBF7" fill-opacity="0.6"/>
<path d="M21.5 17.4998C21.4991 17.9922 21.3176 18.4672 20.99 18.8348C20.6106 19.2585 20.0688 19.5007 19.5 19.5007C18.9313 19.5007 18.3894 19.2585 18.01 18.8348C17.4154 18.1706 17.332 17.1931 17.8057 16.4379C18.2794 15.6827 19.1957 15.3322 20.0525 15.5785C20.9093 15.8247 21.4996 16.6083 21.5 17.4998Z" fill="#FDFBF7" fill-opacity="0.3"/>
<path d="M19.5 15.5C19.2427 15.5011 18.988 15.552 18.75 15.65C19.3527 15.8946 19.7988 16.417 19.946 17.0506C20.0932 17.6842 19.9231 18.3497 19.49 18.835C19.2864 19.0615 19.0331 19.2377 18.75 19.35C19.53 19.6747 20.4302 19.4678 20.99 18.835C21.5168 18.2473 21.6488 17.4048 21.3268 16.6842C21.0049 15.9636 20.2892 15.4997 19.5 15.5Z" fill="#FDFBF7" fill-opacity="0.15"/>
<path d="M45 44C45 44.2761 44.7762 44.5 44.5 44.5H38.5C38.2239 44.5 38 44.2761 38 44C37.9976 43.0712 38.3667 42.1801 39.025 41.525C39.3097 41.2383 39.6433 41.0046 40.01 40.835C40.3894 41.2587 40.9313 41.5008 41.5 41.5008C42.0688 41.5008 42.6106 41.2587 42.99 40.835C44.2184 41.4095 45.0023 42.6439 45 44Z" fill="#FDFBF7" fill-opacity="0.15"/>
<path d="M42.99 40.835C42.7912 41.055 42.5457 41.2277 42.2715 41.3405C43.0518 42.0034 43.5011 42.976 43.5 44C43.5 44.2761 43.2761 44.5 43 44.5H44.5C44.7761 44.5 45 44.2761 45 44C45.0023 42.6439 44.2183 41.4095 42.99 40.835Z" fill="#FDFBF7" fill-opacity="0.6"/>
<path d="M43.5 39.4998C43.4991 39.9922 43.3176 40.4672 42.99 40.8348C42.6106 41.2585 42.0688 41.5007 41.5 41.5007C40.9313 41.5007 40.3894 41.2585 40.01 40.8348C39.4154 40.1706 39.332 39.1931 39.8057 38.4379C40.2794 37.6827 41.1957 37.3322 42.0525 37.5785C42.9093 37.8247 43.4996 38.6083 43.5 39.4998Z" fill="#FDFBF7" fill-opacity="0.3"/>
<path d="M41.5 37.5C41.2427 37.5011 40.988 37.552 40.75 37.65C41.3534 37.8944 41.8001 38.4172 41.9474 39.0514C42.0947 39.6856 41.924 40.3517 41.49 40.837C41.2862 41.0627 41.0329 41.2383 40.75 41.35C41.5295 41.6753 42.4295 41.4694 42.99 40.8375C43.5185 40.25 43.6515 39.4063 43.3293 38.6847C43.0071 37.9631 42.2903 37.4988 41.5 37.5Z" fill="#FDFBF7" fill-opacity="0.15"/>
<path d="M31.1996 38.9559C26.5595 38.5453 23.0016 34.6586 23.0016 30.0004C23.0016 25.3423 26.5595 21.4556 31.1996 21.0449C30.7172 21.0042 30.2323 21.0021 29.7496 21.0384C25.0859 21.4235 21.4971 25.3209 21.4971 30.0004C21.4971 34.68 25.0859 38.5774 29.7496 38.9624C30.2323 38.9988 30.7172 38.9967 31.1996 38.9559Z" fill="white" fill-opacity="0.1"/>
<path d="M16.5 22.5002H18C17.7239 22.5002 17.5 22.2763 17.5 22.0002C17.4981 20.6443 18.2819 19.41 19.51 18.8352C19.0769 18.3499 18.9068 17.6844 19.054 17.0508C19.2012 16.4172 19.6473 15.8948 20.25 15.6502C19.3887 15.3042 18.4025 15.5962 17.8685 16.3555C17.3345 17.1147 17.3931 18.1416 18.01 18.8352C16.7819 19.41 15.9981 20.6443 16 22.0002C16 22.1328 16.0527 22.26 16.1465 22.3538C16.2402 22.4475 16.3674 22.5002 16.5 22.5002Z" fill="white" fill-opacity="0.1"/>
<path d="M22.6151 24.7002L23.4446 25.2587C22.7482 26.3126 22.2867 27.5041 22.0916 28.7522L21.1006 28.6077C21.3179 27.2113 21.8345 25.8783 22.6151 24.7002Z" fill="white" fill-opacity="0.1"/>
<path d="M43.4743 30.8002C43.7347 26.6195 41.9631 22.5697 38.716 19.9233C35.469 17.2769 31.145 16.3587 27.1028 17.4572C26.8436 17.536 26.6943 17.8068 26.766 18.0679C26.8376 18.3291 27.1042 18.4858 27.3673 18.4212C31.0954 17.4091 35.0828 18.2551 38.0787 20.6938C41.0747 23.1326 42.7123 26.8653 42.4778 30.7212C42.4764 30.7304 42.4756 30.7395 42.4753 30.7487C42.4287 31.4938 42.3115 32.2328 42.1253 32.9557L41.5013 31.1112C41.4128 30.8489 41.1283 30.708 40.866 30.7965C40.6037 30.885 40.4628 31.1694 40.5513 31.4317L41.7073 34.8467C41.7608 35.0051 41.8899 35.1261 42.0514 35.1694C42.2128 35.2127 42.3852 35.1725 42.5108 35.0622L45.2188 32.6822C45.3619 32.5669 45.4303 32.3823 45.3967 32.2016C45.3632 32.0208 45.2331 31.8731 45.0581 31.8168C44.8831 31.7606 44.6913 31.8049 44.5588 31.9322L43.0863 33.2267C43.289 32.4416 43.4166 31.639 43.4673 30.8297L43.4743 30.8002Z" fill="#FDFBF7"/>
<path d="M22.1185 27.2461C21.8423 27.2473 21.6175 27.0245 21.6162 26.7483C21.615 26.4722 21.8378 26.2473 22.114 26.2461H22.1185C22.3946 26.2461 22.6185 26.47 22.6185 26.7461C22.6185 27.0222 22.3946 27.2461 22.1185 27.2461Z" fill="#FDFBF7"/>
<path d="M37.7155 36.1629C37.7393 36.1414 37.7609 36.1176 37.78 36.0919C39.9558 33.4912 40.5789 29.9272 39.4145 26.7425C38.2502 23.5578 35.4752 21.2362 32.135 20.6523C28.7948 20.0683 25.3968 21.3107 23.221 23.9114C23.2125 23.9219 23.2005 23.9279 23.193 23.9394C23.193 23.9429 23.193 23.9474 23.188 23.9509C22.988 24.1929 22.793 24.4419 22.6145 24.7009C22.5384 24.814 22.5117 24.9532 22.5407 25.0864C22.5697 25.2196 22.6518 25.3352 22.768 25.4064C22.996 25.548 23.2953 25.4829 23.444 25.2594C23.536 25.1259 23.632 24.9959 23.731 24.8674C24.3186 25.2085 24.9382 25.4913 25.581 25.7119C25.2352 26.9461 25.0447 28.2185 25.014 29.4999H22.018C22.033 29.2499 22.0545 28.9999 22.091 28.7534C22.1313 28.4801 21.9425 28.2259 21.6692 28.1856C21.396 28.1453 21.1418 28.3341 21.1015 28.6074C20.4764 32.7975 22.7038 36.8945 26.5602 38.6483C30.4166 40.4021 34.9683 39.3879 37.7155 36.1629ZM22.0255 30.4999H25.014C25.0439 31.7811 25.2335 33.0536 25.5785 34.2879C24.9389 34.5077 24.3223 34.7894 23.7375 35.1289C22.7185 33.7908 22.1224 32.1789 22.0255 30.4999ZM26.014 30.4999H30V33.5154C28.8348 33.5444 27.6765 33.7043 26.547 33.9919C26.2257 32.8544 26.0467 31.6814 26.014 30.4999ZM30 34.5149V38.4409C28.729 38.1609 27.6 36.8314 26.8705 34.9409C27.8952 34.6865 28.9445 34.5437 30 34.5149ZM31 38.4409V34.5149C32.0554 34.5432 33.1046 34.6855 34.1295 34.9394C33.4 36.8314 32.271 38.1609 31 38.4409ZM31 33.5154V30.4999H34.986C34.9533 31.6814 34.7742 32.8544 34.453 33.9919C33.3234 33.7043 32.1652 33.5444 31 33.5154ZM30 21.5589V25.4849C28.9445 25.4566 27.8953 25.3142 26.8705 25.0604C27.6025 23.1684 28.729 21.8389 30 21.5589ZM34.1295 25.0589C33.1047 25.3132 32.0554 25.4561 31 25.4849V21.5589C32.271 21.8389 33.4 23.1684 34.1295 25.0604V25.0589ZM31 26.4844C32.1652 26.4553 33.3234 26.2955 34.453 26.0079C34.7742 27.1454 34.9533 28.3183 34.986 29.4999H31V26.4844ZM38.9745 29.4999H35.986C35.956 28.2187 35.7664 26.9462 35.4215 25.7119C36.0611 25.4922 36.6777 25.2105 37.2625 24.8709C38.2814 26.209 38.8775 27.8208 38.9745 29.4999ZM35.986 30.4999H38.9745C38.8775 32.1789 38.2814 33.7908 37.2625 35.1289C36.6776 34.7894 36.061 34.5077 35.4215 34.2879C35.7664 33.0536 35.956 31.7811 35.986 30.4999ZM36.605 24.0999C36.1266 24.3625 35.6268 24.5841 35.111 24.7624C34.7623 23.7879 34.2447 22.8824 33.582 22.0874C34.7226 22.5331 35.7537 23.2195 36.605 24.0999ZM24.395 24.0999C25.0086 23.4583 25.7216 22.9197 26.5065 22.5049C26.8045 22.3407 27.1134 22.197 27.431 22.0749C26.7615 22.8723 26.2394 23.7825 25.889 24.7629C25.373 24.5848 24.8732 24.3629 24.395 24.0999ZM26.545 26.0089C27.6752 26.2963 28.8341 26.4558 30 26.4844V29.4999H26.014C26.0467 28.3183 26.2257 27.1454 26.547 26.0079L26.545 26.0089ZM24.395 35.8999C24.8734 35.6373 25.3732 35.4157 25.889 35.2374C26.2377 36.2119 26.7552 37.1174 27.418 37.9124C26.2773 37.4667 25.2462 36.7803 24.395 35.8999ZM33.582 37.9124C34.2447 37.1174 34.7623 36.2119 35.111 35.2374C35.6268 35.4157 36.1266 35.6373 36.605 35.8999C35.7538 36.7804 34.7227 37.4666 33.582 37.9124Z" fill="#FDFBF7"/>
<path d="M16.5001 23H22.5001C23.0524 23 23.5001 22.5523 23.5001 22C23.4979 20.6555 22.822 19.4015 21.7001 18.6605C21.8939 18.3042 21.9969 17.9056 22.0001 17.5C22.0001 16.1193 20.8808 15 19.5001 15C18.1194 15 17.0001 16.1193 17.0001 17.5C17.0031 17.908 17.107 18.3089 17.3026 18.667C16.1699 19.3953 15.4895 20.6534 15.5001 22C15.5001 22.2652 15.6055 22.5196 15.793 22.7071C15.9806 22.8946 16.2349 23 16.5001 23ZM19.5001 16C20.3286 16 21.0001 16.6716 21.0001 17.5C21.0001 18.3284 20.3286 19 19.5001 19C18.6717 19 18.0001 18.3284 18.0001 17.5C18.0001 16.6716 18.6717 16 19.5001 16ZM17.3786 19.8785C17.5507 19.711 17.7426 19.5653 17.9501 19.4445C18.8524 20.1868 20.1538 20.1868 21.0561 19.4445C21.9498 19.9866 22.4968 20.9548 22.5001 22H16.5001C16.4979 21.2039 16.8142 20.44 17.3786 19.8785Z" fill="#FDFBF7"/>
<path d="M43.7001 40.6605C43.8939 40.3042 43.997 39.9056 44.0001 39.5C44.0001 38.1193 42.8808 37 41.5001 37C40.1194 37 39.0001 38.1193 39.0001 39.5C39.0023 39.9078 39.1054 40.3087 39.3001 40.667C38.1683 41.3959 37.4889 42.6539 37.5001 44C37.5001 44.5523 37.9479 45 38.5001 45H44.5001C45.0524 45 45.5001 44.5523 45.5001 44C45.4979 42.6555 44.8221 41.4015 43.7001 40.6605ZM41.5001 38C42.3286 38 43.0001 38.6716 43.0001 39.5C43.0001 40.3284 42.3286 41 41.5001 41C40.6717 41 40.0001 40.3284 40.0001 39.5C40.0001 38.6716 40.6717 38 41.5001 38ZM38.5001 44C38.4979 43.2039 38.8142 42.44 39.3786 41.8785C39.5502 41.7111 39.7416 41.5654 39.9486 41.4445C40.8515 42.186 42.1529 42.185 43.0546 41.442C43.9496 41.9842 44.4974 42.9536 44.5001 44H38.5001Z" fill="#FDFBF7"/>
<path d="M17.5257 29.2002C17.305 32.7795 18.5727 36.2909 21.0287 38.9039C23.4848 41.5168 26.9112 42.9992 30.4972 43.0002C31.6459 43.0005 32.7894 42.8468 33.8972 42.5432C34.1563 42.4645 34.3057 42.1937 34.234 41.9325C34.1623 41.6714 33.8958 41.5147 33.6327 41.5792C29.9046 42.5913 25.9172 41.7454 22.9213 39.3066C19.9253 36.8679 18.2877 33.1352 18.5222 29.2792C18.5235 29.2701 18.5244 29.2609 18.5247 29.2517C18.5705 28.5067 18.6868 27.7677 18.8722 27.0447L19.4962 28.8892C19.5847 29.1516 19.8691 29.2925 20.1315 29.204C20.3938 29.1155 20.5347 28.8311 20.4462 28.5687L19.2902 25.1537C19.2367 24.9954 19.1075 24.8743 18.9461 24.831C18.7847 24.7877 18.6123 24.828 18.4867 24.9382L15.7762 27.3207C15.633 27.436 15.5647 27.6206 15.5983 27.8014C15.6318 27.9821 15.7618 28.1299 15.9368 28.1861C16.1119 28.2424 16.3036 28.1981 16.4362 28.0707L17.9087 26.7762C17.706 27.5613 17.5784 28.364 17.5277 29.1732L17.5257 29.2002Z" fill="#FDFBF7"/>
</g>
<defs>
<clipPath id="clip0_157_7532">
<rect width="30" height="30" fill="white" transform="translate(15.5 15)"/>
</clipPath>
</defs>
</svg>
