<svg width="61" height="60" viewBox="0 0 61 60" fill="none" xmlns="http://www.w3.org/2000/svg">
<circle cx="30.5" cy="30" r="29.5" fill="#FDFBF7" fill-opacity="0.15" stroke="#FDFBF7"/>
<circle cx="30.5004" cy="29.9999" r="23.3636" stroke="#FDFBF7"/>
<g clip-path="url(#clip0_157_7564)">
<path d="M19 33H17C16.4477 33 16 33.4477 16 34V43.5C16 44.0523 16.4477 44.5 17 44.5H19C19.5523 44.5 20 44.0523 20 43.5V34C20 33.4477 19.5523 33 19 33Z" fill="#FDFBF7" fill-opacity="0.15"/>
<path d="M19 33H17.5C17.765 33.0008 18.0189 33.1064 18.2062 33.2938C18.3936 33.4811 18.4992 33.735 18.5 34V43.5C18.4992 43.765 18.3936 44.0189 18.2062 44.2062C18.0189 44.3936 17.765 44.4992 17.5 44.5H19C19.265 44.4992 19.5189 44.3936 19.7062 44.2062C19.8936 44.0189 19.9992 43.765 20 43.5V34C19.9992 33.735 19.8936 33.4811 19.7062 33.2938C19.5189 33.1064 19.265 33.0008 19 33Z" fill="#FDFBF7" fill-opacity="0.6"/>
<path d="M24.2051 39.8599L24.5051 39.6599C25.1453 39.2299 25.8989 39.0001 26.6701 38.9999C30.6511 38.9999 30.3861 39.0064 30.5151 38.9849" fill="#FDFBF7" fill-opacity="0.3"/>
<path d="M40.43 38.1399L32.355 43.0599C31.8823 43.3487 31.3389 43.501 30.785 43.4999H20V33.9999C21.156 33.9999 21.753 33.9459 22.56 34.2449C23.66 34.6234 23.8465 35.1599 24.99 35.6799C25.4228 35.8812 25.8928 35.9902 26.37 35.9999H28.765C29.1728 36.0027 29.5727 36.1133 29.9239 36.3205C30.2752 36.5278 30.5654 36.8243 30.765 37.1799C30.9488 37.4601 31.0248 37.7974 30.9788 38.1293C30.9328 38.4612 30.768 38.7652 30.515 38.9849C30.6595 38.9559 32.4305 38.3579 39.445 36.0099C39.6803 35.9323 39.934 35.9301 40.1706 36.0036C40.4073 36.0771 40.615 36.2226 40.765 36.4199V36.4249C40.8637 36.5567 40.9336 36.7077 40.9704 36.8682C41.0071 37.0287 41.0097 37.1952 40.9782 37.3568C40.9466 37.5184 40.8815 37.6715 40.7871 37.8064C40.6927 37.9413 40.571 38.0549 40.43 38.1399Z" fill="#FDFBF7" fill-opacity="0.3"/>
<path d="M45 16.5V26C44.9992 26.265 44.8936 26.5189 44.7062 26.7062C44.5189 26.8936 44.265 26.9992 44 27H42C41.7348 27 41.4804 26.8946 41.2929 26.7071C41.1054 26.5196 41 26.2652 41 26V16.5C41 16.2348 41.1054 15.9804 41.2929 15.7929C41.4804 15.6054 41.7348 15.5 42 15.5H44C44.265 15.5008 44.5189 15.6064 44.7062 15.7938C44.8936 15.9811 44.9992 16.235 45 16.5Z" fill="#FDFBF7" fill-opacity="0.15"/>
<path d="M44 15.5H42.5C42.765 15.5008 43.0189 15.6064 43.2062 15.7938C43.3936 15.9811 43.4992 16.235 43.5 16.5V26C43.4992 26.265 43.3936 26.5189 43.2062 26.7062C43.0189 26.8936 42.765 26.9992 42.5 27H44C44.265 26.9992 44.5189 26.8936 44.7062 26.7062C44.8936 26.5189 44.9992 26.265 45 26V16.5C44.9992 16.235 44.8936 15.9811 44.7062 15.7938C44.5189 15.6064 44.265 15.5008 44 15.5Z" fill="#FDFBF7" fill-opacity="0.6"/>
<path d="M41 16.5V26H39.84C38.8929 26.0003 37.974 25.6775 37.235 25.085C36.5105 24.4453 35.5944 24.0637 34.63 24H32.235C31.8272 23.9972 31.4273 23.8866 31.0761 23.6794C30.7248 23.4721 30.4346 23.1756 30.235 22.82C30.0512 22.5398 29.9752 22.2025 30.0212 21.8706C30.0672 21.5387 30.232 21.2347 30.485 21.015C30.357 21.0405 30.9885 20.832 21.555 23.99C21.3197 24.0676 21.066 24.0698 20.8294 23.9963C20.5928 23.9228 20.385 23.7773 20.235 23.58V23.575C20.1363 23.4432 20.0664 23.2922 20.0297 23.1317C19.9929 22.9712 19.9903 22.8047 20.0219 22.6431C20.0534 22.4816 20.1185 22.3284 20.2129 22.1935C20.3073 22.0586 20.429 21.945 20.57 21.86L28.645 16.94C29.1177 16.6512 29.6611 16.4989 30.215 16.5H41Z" fill="#FDFBF7" fill-opacity="0.3"/>
<path d="M30.4854 21.0151C30.6149 20.9936 30.3154 21.0001 34.3304 21.0001C35.1015 20.9999 35.8552 20.7701 36.4954 20.3401L36.7954 20.1401" fill="#FDFBF7" fill-opacity="0.3"/>
<path d="M35.9046 37.1951C32.1156 38.4616 30.6511 38.9581 30.5146 38.9851C30.7676 38.7655 30.9324 38.4615 30.9784 38.1296C31.0244 37.7976 30.9484 37.4603 30.7646 37.1801C30.565 36.8245 30.2748 36.528 29.9235 36.3208C29.5723 36.1135 29.1724 36.0029 28.7646 36.0001H26.3696C25.4052 35.9364 24.4891 35.5549 23.7646 34.9151C23.4051 34.6233 22.9972 34.3965 22.5596 34.2451C21.5473 32.3495 21.2464 30.1544 21.7113 28.0563C22.1762 25.9582 23.3762 24.0956 25.0946 22.8051C28.8996 21.5331 30.3496 21.0426 30.4846 21.0151C30.2315 21.2348 30.0667 21.5388 30.0208 21.8707C29.9748 22.2026 30.0508 22.54 30.2346 22.8201C30.4342 23.1758 30.7244 23.4723 31.0757 23.6795C31.4269 23.8868 31.8268 23.9974 32.2346 24.0001H34.6296C35.594 24.0639 36.5101 24.4454 37.2346 25.0851C37.5941 25.377 38.0019 25.6038 38.4396 25.7551C39.4519 27.6507 39.7528 29.8459 39.2879 31.944C38.823 34.0421 37.6229 35.9046 35.9046 37.1951Z" fill="#FDFBF7" fill-opacity="0.15"/>
<path d="M17 44.5H18.5C18.235 44.4992 17.9811 44.3936 17.7938 44.2062C17.6064 44.0189 17.5008 43.765 17.5 43.5V34C17.5008 33.735 17.6064 33.4811 17.7938 33.2938C17.9811 33.1064 18.235 33.0008 18.5 33H17C16.735 33.0008 16.4811 33.1064 16.2938 33.2938C16.1064 33.4811 16.0008 33.735 16 34V43.5C16.0008 43.765 16.1064 44.0189 16.2938 44.2062C16.4811 44.3936 16.735 44.4992 17 44.5Z" fill="white" fill-opacity="0.1"/>
<path d="M15.501 39.5H16.501V43.5H15.501V39.5Z" fill="white" fill-opacity="0.1"/>
<path d="M16.0106 42C15.878 42.0007 15.7505 41.9487 15.6562 41.8555C15.5619 41.7622 15.5085 41.6354 15.5078 41.5028C15.5071 41.3701 15.5591 41.2427 15.6523 41.1484C15.7456 41.0541 15.8725 41.0007 16.0051 41H16.0106C16.1432 41 16.2704 41.0527 16.3641 41.1464C16.4579 41.2402 16.5106 41.3674 16.5106 41.5C16.5106 41.6326 16.4579 41.7598 16.3641 41.8536C16.2704 41.9473 16.1432 42 16.0106 42Z" fill="#FDFBF7"/>
<path d="M40.592 26.5C40.695 26.7915 40.8856 27.044 41.1376 27.223C41.3897 27.402 41.6909 27.4987 42 27.5H44C44.3978 27.5 44.7794 27.342 45.0607 27.0607C45.342 26.7794 45.5 26.3978 45.5 26V16.5C45.5 16.1022 45.342 15.7206 45.0607 15.4393C44.7794 15.158 44.3978 15 44 15H42C41.6909 15.0013 41.3897 15.098 41.1376 15.277C40.8856 15.456 40.695 15.7085 40.592 16H30.2145C29.5689 15.9995 28.9357 16.177 28.3845 16.513L20.3125 21.4315C19.9976 21.621 19.7536 21.9085 19.6178 22.25C19.4821 22.5915 19.4621 22.9681 19.5609 23.3221C19.6597 23.676 19.8718 23.9878 20.1648 24.2096C20.4578 24.4314 20.8155 24.551 21.183 24.55C21.546 24.55 21.6285 24.492 23.141 23.986C22.0656 25.301 21.3629 26.8806 21.1064 28.5598C20.8498 30.2391 21.0488 31.9564 21.6825 33.5325C21.2589 33.4928 20.8331 33.4819 20.408 33.5C20.305 33.2085 20.1144 32.956 19.8623 32.777C19.6103 32.598 19.3091 32.5013 19 32.5H17C16.6022 32.5 16.2206 32.658 15.9393 32.9393C15.658 33.2206 15.5 33.6022 15.5 34V39.5C15.5 39.6326 15.5527 39.7598 15.6464 39.8536C15.7402 39.9473 15.8674 40 16 40C16.1326 40 16.2598 39.9473 16.3536 39.8536C16.4473 39.7598 16.5 39.6326 16.5 39.5V34C16.5 33.8674 16.5527 33.7402 16.6464 33.6464C16.7402 33.5527 16.8674 33.5 17 33.5H19C19.1326 33.5 19.2598 33.5527 19.3536 33.6464C19.4473 33.7402 19.5 33.8674 19.5 34V43.5C19.5 43.6326 19.4473 43.7598 19.3536 43.8536C19.2598 43.9473 19.1326 44 19 44H17C16.8674 44 16.7402 43.9473 16.6464 43.8536C16.5527 43.7598 16.5 43.6326 16.5 43.5C16.5 43.3674 16.4473 43.2402 16.3536 43.1464C16.2598 43.0527 16.1326 43 16 43C15.8674 43 15.7402 43.0527 15.6464 43.1464C15.5527 43.2402 15.5 43.3674 15.5 43.5C15.5 43.8978 15.658 44.2794 15.9393 44.5607C16.2206 44.842 16.6022 45 17 45H19C19.3091 44.9987 19.6103 44.902 19.8623 44.723C20.1144 44.544 20.305 44.2915 20.408 44H30.785C31.4306 44.0005 32.0638 43.823 32.615 43.487L40.687 38.5685C41.0417 38.3552 41.3052 38.0184 41.4269 37.6227C41.5486 37.2271 41.5199 36.8005 41.3464 36.4247C41.1729 36.0488 40.8668 35.7503 40.4867 35.5863C40.1067 35.4223 39.6795 35.4044 39.287 35.536L37.86 36.013C38.9351 34.698 39.6376 33.1185 39.8941 31.4393C40.1505 29.7602 39.9516 28.043 39.318 26.467C39.7414 26.5069 40.1671 26.518 40.592 26.5ZM42 16H44C44.1326 16 44.2598 16.0527 44.3536 16.1464C44.4473 16.2402 44.5 16.3674 44.5 16.5V26C44.5 26.1326 44.4473 26.2598 44.3536 26.3536C44.2598 26.4473 44.1326 26.5 44 26.5H42C41.8674 26.5 41.7402 26.4473 41.6464 26.3536C41.5527 26.2598 41.5 26.1326 41.5 26V16.5C41.5 16.3674 41.5527 16.2402 41.6464 16.1464C41.7402 16.0527 41.8674 16 42 16ZM21.3965 23.5155C21.2376 23.5686 21.0646 23.5612 20.9108 23.4947C20.757 23.4281 20.6331 23.3072 20.5629 23.155C20.4927 23.0028 20.4812 22.8301 20.5305 22.6699C20.5798 22.5098 20.6864 22.3734 20.83 22.287L28.9055 17.3665C29.2998 17.1261 29.7527 16.9993 30.2145 17H40.5V25.5H39.8395C39.0058 25.4995 38.1971 25.2153 37.5465 24.694C36.7346 23.9817 35.7078 23.5615 34.6295 23.5H32.2345C31.9282 23.4953 31.6279 23.4146 31.3605 23.2652C31.0932 23.1158 30.867 22.9024 30.7025 22.644C30.692 22.6161 30.6791 22.5892 30.664 22.5635C30.5518 22.4058 30.4965 22.2147 30.5072 22.0214C30.518 21.8282 30.594 21.6443 30.723 21.5H34.3295C35.1996 21.501 36.0502 21.2419 36.772 20.756L37.072 20.556C37.1823 20.4823 37.2589 20.3679 37.2848 20.2378C37.3107 20.1077 37.2839 19.9726 37.2103 19.8622C37.1366 19.7519 37.0221 19.6754 36.892 19.6494C36.7619 19.6235 36.6268 19.6503 36.5165 19.724L36.2165 19.924C35.6591 20.3 35.0019 20.5006 34.3295 20.5H30.6645C30.307 20.5 30.303 20.537 21.3965 23.5155ZM39.603 36.4845C39.7619 36.4314 39.9349 36.4388 40.0887 36.5053C40.2425 36.5719 40.3664 36.6928 40.4366 36.845C40.5068 36.9972 40.5183 37.1699 40.469 37.3301C40.4197 37.4902 40.3131 37.6266 40.1695 37.713L32.0945 42.6335C31.7 42.8738 31.2469 43.0006 30.785 43H20.5V34.5H21.16C21.9938 34.5005 22.8027 34.7848 23.4535 35.306C24.2652 36.0183 25.2918 36.4386 26.37 36.5H28.765C29.0713 36.5047 29.3716 36.5854 29.639 36.7348C29.9064 36.8842 30.1325 37.0976 30.297 37.356C30.3075 37.3839 30.3204 37.4108 30.3355 37.4365C30.4477 37.5942 30.503 37.7853 30.4923 37.9786C30.4815 38.1718 30.4055 38.3557 30.2765 38.5H26.67C25.7999 38.499 24.9493 38.7581 24.2275 39.244L23.9275 39.444C23.8207 39.5191 23.7475 39.6329 23.7235 39.7612C23.6996 39.8895 23.7267 40.0221 23.7992 40.1306C23.8716 40.2392 23.9837 40.3151 24.1113 40.3422C24.239 40.3692 24.3722 40.3453 24.4825 40.2755L24.7825 40.0755C25.3401 39.6996 25.9975 39.4992 26.67 39.5C30.7945 39.5 30.309 39.5065 30.511 39.4845C30.703 39.4845 30.3115 39.592 39.603 36.4845ZM35.6655 36.747L31.4775 38.147C31.621 36.947 30.4085 35.497 28.765 35.497H26.37C25.9642 35.4877 25.5647 35.394 25.197 35.222C24.15 34.75 24.03 34.3 22.9225 33.85C22.0198 32.0807 21.7668 30.0508 22.2076 28.114C22.6484 26.1773 23.755 24.4568 25.3345 23.2525L29.522 21.8525C29.3785 23.0525 30.5915 24.5025 32.2345 24.5025H34.6295C35.4793 24.5686 36.2843 24.9108 36.9215 25.477C37.2723 25.7559 37.6617 25.9826 38.0775 26.15C38.9802 27.9192 39.2332 29.9491 38.7924 31.8857C38.3516 33.8223 37.245 35.5428 35.6655 36.747Z" fill="#FDFBF7"/>
<path d="M28.75 23.2062C28.7078 23.0805 28.6174 22.9767 28.4987 22.9176C28.38 22.8585 28.2427 22.849 28.117 22.8912C27.138 23.2194 26.2373 23.7462 25.4713 24.4387C24.7053 25.1312 24.0906 25.9743 23.6656 26.9154C23.2407 27.8565 23.0146 28.8752 23.0016 29.9076C22.9886 30.9401 23.1889 31.9642 23.59 32.9157C23.6418 33.0377 23.7401 33.1342 23.863 33.1839C23.986 33.2335 24.1237 33.2323 24.2457 33.1804C24.3678 33.1286 24.4643 33.0304 24.5139 32.9074C24.5636 32.7844 24.5623 32.6467 24.5105 32.5247C24.1633 31.7002 23.99 30.8129 24.0014 29.9183C24.0129 29.0238 24.209 28.1412 24.5773 27.3259C24.9456 26.5106 25.4782 25.7801 26.1418 25.1801C26.8055 24.5802 27.5858 24.1237 28.434 23.8392C28.4963 23.8184 28.554 23.7855 28.6036 23.7425C28.6532 23.6994 28.6938 23.647 28.7232 23.5882C28.7525 23.5294 28.77 23.4654 28.7746 23.3998C28.7792 23.3343 28.7708 23.2685 28.75 23.2062Z" fill="#FDFBF7"/>
<path d="M36.489 27.4753C36.8363 28.2998 37.0096 29.1871 36.9981 30.0817C36.9866 30.9762 36.7906 31.8588 36.4223 32.6741C36.054 33.4894 35.5213 34.2199 34.8577 34.8199C34.1941 35.4198 33.4137 35.8764 32.5655 36.1608C32.4396 36.203 32.3355 36.2935 32.2762 36.4124C32.217 36.5313 32.2074 36.6689 32.2495 36.7948C32.2917 36.9208 32.3822 37.0249 32.5011 37.0841C32.62 37.1434 32.7576 37.153 32.8835 37.1108C33.8627 36.7825 34.7635 36.2556 35.5296 35.5629C36.2956 34.8703 36.9103 34.0269 37.3352 33.0856C37.7601 32.1443 37.9861 31.1254 37.9988 30.0927C38.0116 29.06 37.811 28.0359 37.4095 27.0843C37.3577 26.9623 37.2595 26.8658 37.1365 26.8162C37.0135 26.7665 36.8759 26.7677 36.7538 26.8196C36.6317 26.8714 36.5353 26.9697 36.4856 27.0926C36.436 27.2156 36.4372 27.3533 36.489 27.4753Z" fill="#FDFBF7"/>
<path d="M33.5 31.75C33.5 30.6165 32.4355 29.7065 31 29.5325V27.0465C31.85 27.19 32.5 27.6805 32.5 28.25C32.5 28.3826 32.5527 28.5098 32.6464 28.6036C32.7402 28.6973 32.8674 28.75 33 28.75C33.1326 28.75 33.2598 28.6973 33.3536 28.6036C33.4473 28.5098 33.5 28.3826 33.5 28.25C33.5 27.1165 32.4355 26.2065 31 26.0325V25.5C31 25.3674 30.9473 25.2402 30.8536 25.1464C30.7598 25.0527 30.6326 25 30.5 25C30.3674 25 30.2402 25.0527 30.1464 25.1464C30.0527 25.2402 30 25.3674 30 25.5V26.0325C28.5645 26.2065 27.5 27.1165 27.5 28.25C27.5 29.3835 28.5645 30.2935 30 30.4675V32.9535C29.15 32.81 28.5 32.3195 28.5 31.75C28.5 31.6174 28.4473 31.4902 28.3536 31.3964C28.2598 31.3027 28.1326 31.25 28 31.25C27.8674 31.25 27.7402 31.3027 27.6464 31.3964C27.5527 31.4902 27.5 31.6174 27.5 31.75C27.5 32.8835 28.5645 33.7935 30 33.9675V34.5C30 34.6326 30.0527 34.7598 30.1464 34.8536C30.2402 34.9473 30.3674 35 30.5 35C30.6326 35 30.7598 34.9473 30.8536 34.8536C30.9473 34.7598 31 34.6326 31 34.5V33.9675C32.4355 33.7935 33.5 32.8835 33.5 31.75ZM28.5 28.25C28.5 27.6805 29.15 27.19 30 27.0465V29.4535C29.15 29.31 28.5 28.8195 28.5 28.25ZM31 32.9535V30.5465C31.85 30.69 32.5 31.1805 32.5 31.75C32.5 32.3195 31.85 32.81 31 32.9535Z" fill="#FDFBF7"/>
</g>
<defs>
<clipPath id="clip0_157_7564">
<rect width="30" height="30" fill="white" transform="translate(15.5 15)"/>
</clipPath>
</defs>
</svg>
