<svg width="61" height="60" viewBox="0 0 61 60" fill="none" xmlns="http://www.w3.org/2000/svg">
<circle cx="30.5" cy="30" r="29.5" fill="#FDFBF7" fill-opacity="0.15" stroke="#FDFBF7"/>
<circle cx="30.5004" cy="29.9999" r="23.3636" stroke="#FDFBF7"/>
<g clip-path="url(#clip0_157_7588)">
<path fill-rule="evenodd" clip-rule="evenodd" d="M40.5 17V22.145C40.4995 22.9627 40.0031 23.6985 39.245 24.005L34.5 25.9V15.5H39C39.8284 15.5 40.5 16.1716 40.5 17Z" fill="#FDFBF7" fill-opacity="0.3"/>
<path fill-rule="evenodd" clip-rule="evenodd" d="M39 15.5H37.5C38.3284 15.5 39 16.1716 39 17V22.145C38.9995 22.9627 38.5031 23.6985 37.745 24.005L34.5 25.3V25.9L39.245 24.005C40.0031 23.6985 40.4995 22.9627 40.5 22.145V17C40.5 16.6022 40.342 16.2206 40.0607 15.9393C39.7794 15.658 39.3978 15.5 39 15.5Z" fill="#FDFBF7" fill-opacity="0.15"/>
<path fill-rule="evenodd" clip-rule="evenodd" d="M34.5 15.5V25.9L30.5 27.5L26.5 25.9V15.5H34.5Z" fill="#FDFBF7" fill-opacity="0.3"/>
<path fill-rule="evenodd" clip-rule="evenodd" d="M26.5 15.5V25.9L21.755 24.005C20.9969 23.6985 20.5005 22.9627 20.5 22.145V17C20.5 16.1716 21.1716 15.5 22 15.5H26.5Z" fill="#FDFBF7" fill-opacity="0.3"/>
<path d="M30.5 29.5C31.0523 29.5 31.5 29.0523 31.5 28.5C31.5 27.9477 31.0523 27.5 30.5 27.5C29.9477 27.5 29.5 27.9477 29.5 28.5C29.5 29.0523 29.9477 29.5 30.5 29.5Z" fill="#FDFBF7" fill-opacity="0.15"/>
<path fill-rule="evenodd" clip-rule="evenodd" d="M32.6055 33.025C31.2895 32.325 29.7115 32.325 28.3955 33.025L29.7655 29.975C29.8954 29.6854 30.1831 29.499 30.5005 29.499C30.8179 29.499 31.1057 29.6854 31.2355 29.975L32.6055 33.025Z" fill="#FDFBF7" fill-opacity="0.6"/>
<path fill-rule="evenodd" clip-rule="evenodd" d="M28.1105 33.1898C26.8459 33.9788 26.0568 35.3452 26.0055 36.8348L24.0505 34.1248C23.8643 33.8674 23.8466 33.5247 24.0052 33.2494C24.1639 32.9742 24.4694 32.8177 24.7855 32.8498L28.1105 33.1898Z" fill="#FDFBF7" fill-opacity="0.6"/>
<path fill-rule="evenodd" clip-rule="evenodd" d="M28.1105 40.81L24.7855 41.15C24.4694 41.1821 24.1639 41.0257 24.0052 40.7505C23.8466 40.4752 23.8643 40.1325 24.0505 39.875L26.0055 37.165C26.0568 38.6546 26.8459 40.0211 28.1105 40.81Z" fill="#FDFBF7" fill-opacity="0.6"/>
<path fill-rule="evenodd" clip-rule="evenodd" d="M32.6055 40.9751L31.2355 44.0251C31.1057 44.3147 30.8179 44.501 30.5005 44.501C30.1831 44.501 29.8954 44.3147 29.7655 44.0251L28.3955 40.9751C29.7115 41.6751 31.2895 41.6751 32.6055 40.9751Z" fill="#FDFBF7" fill-opacity="0.6"/>
<path fill-rule="evenodd" clip-rule="evenodd" d="M36.2156 41.15L32.8906 40.81C34.1552 40.0211 34.9443 38.6546 34.9956 37.165L36.9506 39.875C37.1368 40.1325 37.1545 40.4752 36.9958 40.7505C36.8372 41.0257 36.5317 41.1821 36.2156 41.15Z" fill="#FDFBF7" fill-opacity="0.6"/>
<path fill-rule="evenodd" clip-rule="evenodd" d="M36.9506 34.1248L34.9956 36.8348C34.9443 35.3452 34.1552 33.9788 32.8906 33.1898L36.2156 32.8498C36.5317 32.8177 36.8372 32.9742 36.9958 33.2494C37.1545 33.5247 37.1368 33.8674 36.9506 34.1248Z" fill="#FDFBF7" fill-opacity="0.6"/>
<path fill-rule="evenodd" clip-rule="evenodd" d="M35 37C35 37.055 35 37.11 34.995 37.165C34.9437 38.6546 34.1546 40.021 32.89 40.81C32.795 40.87 32.7 40.925 32.605 40.975C31.289 41.675 29.711 41.675 28.395 40.975C28.3 40.925 28.205 40.87 28.11 40.81C26.8454 40.021 26.0563 38.6546 26.005 37.165C26 37.11 26 37.055 26 37C26 36.945 26 36.89 26.005 36.835C26.0563 35.3454 26.8454 33.979 28.11 33.19C28.205 33.13 28.3 33.075 28.395 33.025C29.711 32.325 31.289 32.325 32.605 33.025C32.7 33.075 32.795 33.13 32.89 33.19C34.1546 33.979 34.9437 35.3454 34.995 36.835C35 36.89 35 36.945 35 37Z" fill="#FDFBF7" fill-opacity="0.15"/>
<path fill-rule="evenodd" clip-rule="evenodd" d="M34.995 36.8351C34.9437 35.3455 34.1546 33.9791 32.89 33.1901C32.795 33.1301 32.7 33.0751 32.605 33.0251C31.7328 32.5531 30.7257 32.3928 29.75 32.5706C30.2231 32.6485 30.6806 32.8019 31.105 33.0251C31.2 33.0751 31.295 33.1301 31.39 33.1901C32.6546 33.9791 33.4437 35.3455 33.495 36.8351C33.5 36.8901 33.5 36.9451 33.5 37.0001C33.5 37.0551 33.5 37.1101 33.495 37.1651C33.4437 38.6547 32.6546 40.0211 31.39 40.8101C31.295 40.8701 31.2 40.9251 31.105 40.9751C30.6806 41.1983 30.2231 41.3517 29.75 41.4296C30.7257 41.6074 31.7328 41.4471 32.605 40.9751C32.7 40.9251 32.795 40.8701 32.89 40.8101C34.1546 40.0211 34.9437 38.6547 34.995 37.1651C35 37.1101 35 37.0551 35 37.0001C35 36.9451 35 36.8901 34.995 36.8351Z" fill="#FDFBF7" fill-opacity="0.6"/>
<path d="M30.5005 39.4995C31.8809 39.4995 33 38.3804 33 37C33 35.6196 31.8809 34.5005 30.5005 34.5005C29.12 34.5005 28.001 35.6196 28.001 37C28.001 38.3804 29.12 39.4995 30.5005 39.4995Z" fill="#FDFBF7" fill-opacity="0.3"/>
<path fill-rule="evenodd" clip-rule="evenodd" d="M30.5 34.5C30.2449 34.5035 29.9919 34.5465 29.75 34.6275C30.7905 34.9488 31.5001 35.9106 31.5001 36.9995C31.5001 38.0884 30.7905 39.0502 29.75 39.3715C29.9919 39.4528 30.2449 39.4961 30.5 39.5C31.8807 39.5 33 38.3807 33 37C33 35.6193 31.8807 34.5 30.5 34.5Z" fill="#FDFBF7" fill-opacity="0.15"/>
<path fill-rule="evenodd" clip-rule="evenodd" d="M34.165 33.0596C34.24 33.1011 34.315 33.1426 34.39 33.1901L36.699 32.9541C36.5533 32.8677 36.3834 32.8312 36.215 32.8501L34.165 33.0596Z" fill="white" fill-opacity="0.1"/>
<path fill-rule="evenodd" clip-rule="evenodd" d="M36.7 41.0461L34.39 40.8101C34.315 40.8601 34.24 40.8991 34.165 40.9406L36.215 41.1501C36.3837 41.1691 36.554 41.1326 36.7 41.0461Z" fill="white" fill-opacity="0.1"/>
<path fill-rule="evenodd" clip-rule="evenodd" d="M26.0055 37.165L24.0505 39.875C23.8643 40.1325 23.8466 40.4752 24.0052 40.7505C24.1639 41.0257 24.4694 41.1821 24.7855 41.15L25.8015 41.046C25.2015 40.696 25.127 39.586 26.5565 39.3715L26.0055 37.165Z" fill="white" fill-opacity="0.1"/>
<path fill-rule="evenodd" clip-rule="evenodd" d="M26.5565 34.6283C25.127 34.4138 25.201 33.3053 25.8015 32.9538L24.7855 32.8498C24.4694 32.8177 24.1639 32.9742 24.0052 33.2494C23.8466 33.5247 23.8643 33.8674 24.0505 34.1248L26.0055 36.8348L26.5565 34.6283Z" fill="white" fill-opacity="0.1"/>
<path fill-rule="evenodd" clip-rule="evenodd" d="M23.255 24.5C22.5 24.195 22 22.965 22 22.145V17C22 16.1716 22.6716 15.5 23.5 15.5H22C21.1716 15.5 20.5 16.1716 20.5 17V22.145C20.5005 22.9627 20.9969 23.6985 21.755 24.005L23.255 24.5Z" fill="white" fill-opacity="0.1"/>
<path fill-rule="evenodd" clip-rule="evenodd" d="M20 17H21V21H20V17Z" fill="white" fill-opacity="0.1"/>
<path d="M20 21.8085L20.003 22.23C20.0081 22.3985 20.0304 22.566 20.0695 22.73C20.2308 23.394 20.6554 23.9637 21.2455 24.308C21.5073 24.441 21.777 24.5578 22.053 24.658L22.803 24.958L24.303 25.558L29.3285 27.568C28.8478 28.1605 28.895 29.021 29.4375 29.5575C29.387 29.6232 29.3429 29.6937 29.306 29.768L28.0015 32.6715H27.998L24.8345 32.3495C24.3223 32.2954 23.8263 32.5476 23.5682 32.9933C23.3101 33.4389 23.3382 33.9947 23.64 34.412L25.5 36.992V37.0085L23.6455 39.58C23.3583 39.9756 23.316 40.4986 23.5359 40.9352C23.7558 41.3719 24.2011 41.6492 24.69 41.654C24.7381 41.6538 24.7862 41.6512 24.834 41.646L28 41.3235H28.0035L29.3065 44.2235C29.5161 44.6937 29.9825 44.9969 30.4973 44.9975C31.0121 44.9982 31.4792 44.6962 31.69 44.2265L32.9945 41.323H32.998L36.1615 41.645C36.6737 41.6991 37.1697 41.4469 37.4278 41.0012C37.6859 40.5556 37.6578 39.9998 37.356 39.5825L35.5 37.008V36.9915L37.3555 34.42C37.6585 34.0036 37.6883 33.4479 37.4315 33.0014C37.1747 32.555 36.6793 32.3014 36.167 32.354L33 32.6765H32.9965L31.6935 29.7765C31.6563 29.7013 31.6118 29.6299 31.5605 29.5635C32.1031 29.0269 32.1503 28.1662 31.6695 27.5735L39.429 24.47C40.3811 24.0925 41.0046 23.1702 41 22.146V17C41 15.8954 40.1046 15 39 15H22C20.8954 15 20 15.8954 20 17C20 17.2761 20.2239 17.5 20.5 17.5C20.7761 17.5 21 17.2761 21 17C21 16.4477 21.4477 16 22 16H26V25.1615L24.6775 24.6325L23.175 24.0325L22.425 23.7325C22.1946 23.6479 21.9687 23.5518 21.748 23.4445C21.3945 23.2375 21.1401 22.896 21.043 22.498C21.0196 22.3996 21.0064 22.2991 21.0035 22.198L21 21.8085V21C21 20.7239 20.7761 20.5 20.5 20.5C20.2239 20.5 20 20.7239 20 21L20 21.8085ZM30.5 29C30.2239 29 30 28.7761 30 28.5C30 28.2239 30.2239 28 30.5 28C30.7761 28 31 28.2239 31 28.5C31 28.7761 30.7761 29 30.5 29ZM34.5 37C34.5 39.2091 32.7091 41 30.5 41C28.2909 41 26.5 39.2091 26.5 37C26.5 34.7909 28.2909 33 30.5 33C32.7082 33.0022 34.4978 34.7918 34.5 37ZM24.45 33.829C24.3777 33.7329 24.3718 33.6023 24.435 33.5C24.4955 33.3961 24.6114 33.3374 24.731 33.35L26.8735 33.568C26.3334 34.1361 25.9344 34.8232 25.709 35.574L24.45 33.829ZM24.7295 40.65C24.6101 40.6668 24.493 40.6067 24.437 40.5C24.3736 40.3964 24.3803 40.2645 24.454 40.168L25.711 38.427C25.9364 39.1778 26.3354 39.8649 26.8755 40.433L24.7295 40.65ZM30.7795 43.8205C30.7294 43.9295 30.6202 43.999 30.5003 43.9984C30.3804 43.9977 30.2719 43.927 30.223 43.8175L29.34 41.858C30.1018 42.0467 30.8982 42.0467 31.66 41.858L30.7795 43.8205ZM36.55 40.1705C36.6223 40.2666 36.6282 40.3972 36.565 40.4995C36.5063 40.6053 36.3891 40.6647 36.269 40.6495L34.1265 40.4315C34.6666 39.8634 35.0656 39.1763 35.291 38.4255L36.55 40.1705ZM36.2705 33.35C36.3898 33.3335 36.5067 33.3935 36.563 33.5C36.6265 33.6036 36.6197 33.7355 36.546 33.832L35.289 35.573C35.0636 34.8222 34.6646 34.1351 34.1245 33.567L36.2705 33.35ZM30.779 30.181L31.66 32.142C30.8982 31.9533 30.1018 31.9533 29.34 32.142L30.2225 30.178C30.2726 30.069 30.3818 29.9995 30.5017 30.0001C30.6216 30.0008 30.7301 30.0715 30.779 30.181ZM40 17V22.146C40.0021 22.76 39.6279 23.3126 39.057 23.5385L35 25.1615V16H39C39.5523 16 40 16.4477 40 17ZM27 16H34V25.5615L30.5 26.9615L27 25.5615V16Z" fill="#FDFBF7"/>
<path d="M20.5 19.5C20.7761 19.5 21 19.2761 21 19C21 18.7239 20.7761 18.5 20.5 18.5C20.2239 18.5 20 18.7239 20 19C20 19.2761 20.2239 19.5 20.5 19.5Z" fill="#FDFBF7"/>
<path d="M27.5 37C27.5 38.6569 28.8431 40 30.5 40C32.1569 40 33.5 38.6569 33.5 37C33.5 35.3431 32.1569 34 30.5 34C28.8438 34.0017 27.5017 35.3438 27.5 37ZM32.5 37C32.5 38.1046 31.6046 39 30.5 39C29.3954 39 28.5 38.1046 28.5 37C28.5 35.8954 29.3954 35 30.5 35C31.6046 35 32.5 35.8954 32.5 37Z" fill="#FDFBF7"/>
</g>
<defs>
<clipPath id="clip0_157_7588">
<rect width="30" height="30" fill="white" transform="translate(15.5 15)"/>
</clipPath>
</defs>
</svg>
