<svg width="61" height="60" viewBox="0 0 61 60" fill="none" xmlns="http://www.w3.org/2000/svg">
<circle cx="30.5" cy="30" r="29.5" fill="#FDFBF7" fill-opacity="0.15" stroke="#FDFBF7"/>
<circle cx="30.5004" cy="29.9999" r="23.3636" stroke="#FDFBF7"/>
<g clip-path="url(#clip0_157_7632)">
<path d="M37 28C36.993 28.5494 36.5494 28.993 36 29H25C24.4477 29 24 28.5523 24 28C24 27.4477 24.4477 27 25 27H36C36.5516 27.0016 36.9984 27.4484 37 28Z" fill="#FDFBF7" fill-opacity="0.6"/>
<path d="M36 26.5V27H25V26.5C25 23.4624 27.4624 21 30.5 21C33.5376 21 36 23.4624 36 26.5Z" fill="#FDFBF7" fill-opacity="0.15"/>
<path d="M30.5 21C30.249 21.002 29.9984 21.021 29.75 21.057C32.4715 21.4285 34.5002 23.7532 34.5 26.5V27H36V26.5C36.0008 25.0411 35.4216 23.6417 34.39 22.61C33.3583 21.5784 31.9589 20.9992 30.5 21Z" fill="#FDFBF7" fill-opacity="0.6"/>
<path d="M35.8496 29V33.68L30.7196 31.575C30.4831 31.475 30.2161 31.475 29.9796 31.575L24.8496 33.68V29H35.8496Z" fill="#FDFBF7" fill-opacity="0.15"/>
<path d="M45 35V36C45 36.2762 44.7761 36.5 44.5 36.5H37.5L30.905 33.585C30.6472 33.47 30.3528 33.47 30.095 33.585L23.5 36.5H16.5C16.2239 36.5 16 36.2762 16 36V35C16 34.7239 16.2239 34.5 16.5 34.5H23L25 33.68L30.13 31.575C30.3665 31.475 30.6335 31.475 30.87 31.575L36 33.68L38 34.5H44.5C44.7761 34.5 45 34.7239 45 35Z" fill="#FDFBF7" fill-opacity="0.15"/>
<path d="M44 36.5V43.5C43.9984 44.0516 43.5516 44.4984 43 44.5H37.5V36.5H44Z" fill="#FDFBF7" fill-opacity="0.3"/>
<path d="M42.5 36.5V43.5C42.4984 44.0516 42.0516 44.4984 41.5 44.5H43C43.5516 44.4984 43.9984 44.0516 44 43.5V36.5H42.5Z" fill="#FDFBF7" fill-opacity="0.15"/>
<path d="M37.5 36.4998V44.4998H23.5V36.4998L30.095 33.5848C30.3528 33.4698 30.6472 33.4698 30.905 33.5848L37.5 36.4998Z" fill="#FDFBF7" fill-opacity="0.3"/>
<path d="M30.905 33.5848C30.6472 33.4698 30.3528 33.4698 30.095 33.5848L29.75 33.7348L36 36.4998V44.4998H37.5V36.4998L30.905 33.5848Z" fill="#FDFBF7" fill-opacity="0.15"/>
<path d="M23.5 36.5V44.5H18C17.4484 44.4984 17.0016 44.0516 17 43.5V36.5H23.5Z" fill="#FDFBF7" fill-opacity="0.3"/>
<path d="M22 36.5H23.5V44.5H22V36.5Z" fill="#FDFBF7" fill-opacity="0.15"/>
<path d="M28 37.5H33C33.2761 37.5 33.5 37.7239 33.5 38V44.5H27.5V38C27.5 37.7239 27.7239 37.5 28 37.5Z" fill="#FDFBF7" fill-opacity="0.15"/>
<path d="M30.5 15.5H34C34.2761 15.5 34.5 15.7239 34.5 16V18C34.5 18.2761 34.2761 18.5 34 18.5H30.5V15.5Z" fill="#FDFBF7" fill-opacity="0.3"/>
<path d="M34 15.5H32.5C32.7761 15.5 33 15.7239 33 16V18C33 18.2761 32.7761 18.5 32.5 18.5H34C34.2761 18.5 34.5 18.2761 34.5 18V16C34.5 15.7239 34.2761 15.5 34 15.5Z" fill="#FDFBF7" fill-opacity="0.15"/>
<path d="M30.5 15.5H32V18.5H30.5V15.5Z" fill="white" fill-opacity="0.1"/>
<path d="M16.5 36.5H17V43.5C17.0016 44.0516 17.4484 44.4984 18 44.5H19.5C18.9484 44.4984 18.5016 44.0516 18.5 43.5V36.5H18C17.7239 36.5 17.5 36.2761 17.5 36V35C17.5 34.7239 17.7239 34.5 18 34.5H16.5C16.2239 34.5 16 34.7239 16 35V36C16 36.2761 16.2239 36.5 16.5 36.5Z" fill="white" fill-opacity="0.1"/>
<path d="M30.5 21C30.354 21 30.2105 21.009 30.068 21.022C29.961 21.03 29.8555 21.0425 29.7505 21.057C27.0288 21.4283 24.9998 23.7531 25 26.5V27C24.4477 27 24 27.4477 24 28C24 28.5523 24.4477 29 25 29H24.85V33.68L26.35 33.0645V29H26.5C25.9477 29 25.5 28.5523 25.5 28C25.5 27.4477 25.9477 27 26.5 27V26.5C26.4998 23.7532 28.5285 21.4285 31.25 21.057C31.0016 21.021 30.751 21.002 30.5 21Z" fill="white" fill-opacity="0.1"/>
<path d="M16.5 36.5H17.5V40.5H16.5V36.5Z" fill="white" fill-opacity="0.1"/>
<path d="M17 39C17.2761 39 17.5 38.7761 17.5 38.5C17.5 38.2239 17.2761 38 17 38C16.7239 38 16.5 38.2239 16.5 38.5C16.5 38.7761 16.7239 39 17 39Z" fill="#FDFBF7"/>
<path d="M44.5 34H38.1L36.5 33.3435V29.4045C37.0925 29.1892 37.4904 28.6303 37.5 28C37.4992 27.3645 37.0989 26.7982 36.5 26.5855V26.5C36.4954 23.3828 34.1062 20.7874 31 20.5255V19H34C34.5523 19 35 18.5523 35 18V16C35 15.4477 34.5523 15 34 15H30.5C30.2239 15 30 15.2239 30 15.5V20.5255C26.8938 20.7874 24.5046 23.3828 24.5 26.5V26.5895C23.9064 26.8068 23.5086 27.3679 23.5 28C23.5026 28.6334 23.9028 29.1969 24.5 29.408V33.3435L22.9 34H16.5C15.9477 34 15.5 34.4477 15.5 35V36C15.5 36.5523 15.9477 37 16.5 37H23V44H18C17.7239 44 17.5 43.7761 17.5 43.5V40.5C17.5 40.2239 17.2761 40 17 40C16.7239 40 16.5 40.2239 16.5 40.5V43.5C16.5 44.3284 17.1716 45 18 45H43C43.8284 45 44.5 44.3284 44.5 43.5V37C45.0523 37 45.5 36.5523 45.5 36V35C45.5 34.4477 45.0523 34 44.5 34ZM34 18H31V16H34V18ZM30.5 21.5C33.2602 21.503 35.497 23.7398 35.5 26.5H25.5C25.503 23.7398 27.7398 21.503 30.5 21.5ZM25 27.5H36C36.2761 27.5 36.5 27.7239 36.5 28C36.4932 28.2733 36.2733 28.4932 36 28.5H25C24.7239 28.5 24.5 28.2761 24.5 28C24.5068 27.7267 24.7267 27.5068 25 27.5ZM25.5 29.5H35.5V32.933L31.061 31.1105C30.7015 30.9625 30.298 30.9625 29.9385 31.1105L25.5 32.933V29.5ZM24 36.8255L30.2915 34.043C30.4232 33.9875 30.5718 33.9875 30.7035 34.043L37 36.8255V44H34V38C34 37.4477 33.5523 37 33 37H28C27.4477 37 27 37.4477 27 38V44H24V36.8255ZM28 38H30V44H28V38ZM31 44V38H33V44H31ZM43.5 43.5C43.5 43.7761 43.2761 44 43 44H38V37H43.5V43.5ZM44.5 36H37.6055L31.1055 33.124C30.7184 32.9588 30.2804 32.9597 29.894 33.1265L23.3945 36H16.5V35H23C23.0652 35.0001 23.1297 34.9873 23.19 34.9625L25.19 34.1425L25.202 34.137L30.3205 32.037C30.4367 31.989 30.5673 31.989 30.6835 32.037L35.8015 34.137L35.8145 34.1425L37.812 34.9625C37.8716 34.9871 37.9355 34.9998 38 35H44.5V36Z" fill="#FDFBF7"/>
</g>
<defs>
<clipPath id="clip0_157_7632">
<rect width="30" height="30" fill="white" transform="translate(15.5 15)"/>
</clipPath>
</defs>
</svg>
