<svg width="61" height="60" viewBox="0 0 61 60" fill="none" xmlns="http://www.w3.org/2000/svg">
<circle cx="30.5" cy="30" r="29.5" fill="#FDFBF7" fill-opacity="0.15" stroke="#FDFBF7"/>
<circle cx="30.5004" cy="29.9999" r="23.3636" stroke="#FDFBF7"/>
<g clip-path="url(#clip0_157_7668)">
<path d="M35 23H26C26 20.79 28.015 19 30.5 19C32.985 19 35 20.79 35 23Z" fill="#FDFBF7" fill-opacity="0.3"/>
<path d="M29 23C29 20.791 29.6715 19 30.5 19C31.3285 19 32 20.791 32 23" fill="#FDFBF7" fill-opacity="0.3"/>
<path d="M35 23V26H31.945L30.8 25.105C30.6245 24.965 30.3755 24.965 30.2 25.105L29.055 26H26V23H35Z" fill="#FDFBF7" fill-opacity="0.15"/>
<path d="M33.5 23H35V26H33.5V23Z" fill="#FDFBF7" fill-opacity="0.6"/>
<path d="M34.5 28H26.5L29.055 26L30.2 25.105C30.3755 24.965 30.6245 24.965 30.8 25.105L31.945 26L34.5 28Z" fill="#FDFBF7" fill-opacity="0.3"/>
<path d="M42.0003 27C41.9962 27.5506 41.5509 27.9959 41.0003 28H34.5003L31.9453 26H41.0003C41.5519 26.0016 41.9987 26.4484 42.0003 27Z" fill="#FDFBF7" fill-opacity="0.3"/>
<path d="M41 26H39.5C40.0516 26.0016 40.4984 26.4484 40.5 27C40.4959 27.5506 40.0506 27.9959 39.5 28H41C41.5506 27.9959 41.9959 27.5506 42 27C41.9984 26.4484 41.5516 26.0016 41 26Z" fill="#FDFBF7" fill-opacity="0.15"/>
<path d="M29.055 26L26.5 28H20C19.4484 27.9984 19.0016 27.5516 19 27C19.0041 26.4494 19.4494 26.0041 20 26H29.055Z" fill="#FDFBF7" fill-opacity="0.3"/>
<path d="M34.5 28V30.9L31.89 30.26C31.2463 30.0956 30.563 30.2646 30.07 30.71L29.245 31.455L26.5 31.285V28H34.5Z" fill="#FDFBF7" fill-opacity="0.15"/>
<path d="M41 28V30.5H39.5C39.2239 30.5 39 30.7239 39 31V32L34.5 30.9V28H41Z" fill="#FDFBF7" fill-opacity="0.3"/>
<path d="M39.5 28H41V30.5H39.5V28Z" fill="#FDFBF7" fill-opacity="0.15"/>
<path d="M26.5 28V31.285L22 31V30.5C22 30.2239 21.7761 30 21.5 30H20V28H26.5Z" fill="#FDFBF7" fill-opacity="0.3"/>
<path d="M31 15.5H32.5C32.7761 15.5 33 15.7239 33 16V17C33 17.2761 32.7761 17.5 32.5 17.5H30.5V16C30.5 15.7239 30.7239 15.5 31 15.5Z" fill="#FDFBF7" fill-opacity="0.3"/>
<path d="M21.5 30H16.5C16.2239 30 16 30.2239 16 30.5V38C16 38.2761 16.2239 38.5 16.5 38.5H21.5C21.7761 38.5 22 38.2761 22 38V30.5C22 30.2239 21.7761 30 21.5 30Z" fill="#FDFBF7" fill-opacity="0.15"/>
<path d="M44.5 30.5H39.5C39.2239 30.5 39 30.7239 39 31V38C39 38.2761 39.2239 38.5 39.5 38.5H44.5C44.7761 38.5 45 38.2761 45 38V31C45 30.7239 44.7761 30.5 44.5 30.5Z" fill="#FDFBF7" fill-opacity="0.15"/>
<path d="M44.5 30.5H43C43.2761 30.5 43.5 30.7239 43.5 31V38C43.5 38.2761 43.2761 38.5 43 38.5H44.5C44.7761 38.5 45 38.2761 45 38V31C45 30.7239 44.7761 30.5 44.5 30.5Z" fill="#FDFBF7" fill-opacity="0.6"/>
<path d="M26.3503 38.5501C26.3515 38.8144 26.2471 39.0682 26.0603 39.2551L25.7053 39.6101C25.3096 39.9674 24.7031 39.9514 24.3268 39.5738C23.9505 39.1961 23.9366 38.5896 24.2953 38.1951L24.4153 38.0751L24.6453 37.8401C24.9319 37.5553 25.3617 37.4709 25.7347 37.6262C26.1078 37.7815 26.3506 38.1461 26.3503 38.5501Z" fill="#FDFBF7" fill-opacity="0.3"/>
<path d="M27.7701 39.9597C27.7703 40.2262 27.6641 40.4818 27.4751 40.6697L26.7701 41.3797L26.4151 41.7297C26.0243 42.1204 25.3908 42.1204 25.0001 41.7297C24.6093 41.339 24.6093 40.7054 25.0001 40.3147L25.7051 39.6097L26.0601 39.2547C26.3464 38.9695 26.7761 38.8841 27.1497 39.0381C27.5234 39.1922 27.768 39.5555 27.7701 39.9597Z" fill="#FDFBF7" fill-opacity="0.3"/>
<path d="M29.1806 41.3797C29.1817 41.644 29.0773 41.8978 28.8906 42.0847L28.1806 42.7897C27.9287 43.0416 27.5616 43.14 27.2175 43.0478C26.8734 42.9556 26.6047 42.6868 26.5125 42.3428C26.4203 41.9987 26.5187 41.6316 26.7706 41.3797L27.4756 40.6697C27.7621 40.3849 28.192 40.3004 28.565 40.4558C28.938 40.6111 29.1809 40.9757 29.1806 41.3797Z" fill="#FDFBF7" fill-opacity="0.3"/>
<path d="M30.6008 42.7898C30.601 43.0563 30.4948 43.3119 30.3058 43.4998L30.3008 43.5048L29.5958 44.2048C29.343 44.4575 28.9746 44.5563 28.6293 44.4637C28.284 44.3712 28.0143 44.1015 27.9218 43.7562C27.8293 43.411 27.928 43.0425 28.1808 42.7898L28.8908 42.0848C29.1771 41.7995 29.6067 41.7141 29.9804 41.8682C30.3541 42.0222 30.5987 42.3856 30.6008 42.7898Z" fill="#FDFBF7" fill-opacity="0.3"/>
<path d="M39.0007 31.9999V37.9999L36.9357 38.8249L31.4507 32.9799L28.7557 35.3399C28.5218 35.5443 28.2213 35.6563 27.9107 35.6549C27.6494 35.6556 27.3944 35.5753 27.1807 35.4249C26.861 35.2014 26.6606 34.8443 26.6363 34.455C26.612 34.0657 26.7663 33.6865 27.0557 33.4249L29.2457 31.4549L30.0707 30.7099C30.5637 30.2645 31.2469 30.0955 31.8907 30.2599L34.5007 30.8999L39.0007 31.9999Z" fill="#FDFBF7" fill-opacity="0.3"/>
<path d="M31.8896 30.26C31.4902 30.1577 31.0688 30.183 30.6846 30.3325C33.5996 31.047 32.0916 30.678 37.4996 32V38L36.5256 38.389L36.9346 38.825L38.9996 38V32C33.5756 30.674 35.1656 31.063 31.8896 30.26Z" fill="#FDFBF7" fill-opacity="0.15"/>
<path d="M37.01 40.32C36.8224 40.5078 36.5679 40.6133 36.3025 40.6133C36.0371 40.6133 35.7826 40.5078 35.595 40.32L35.95 40.67C36.3407 41.0607 36.3407 41.6943 35.95 42.085C35.5593 42.4757 34.9257 42.4757 34.535 42.085L34.18 41.73C34.4539 41.9773 34.5693 42.3553 34.4803 42.7134C34.3913 43.0716 34.1123 43.3515 33.7545 43.4418C33.3967 43.5321 33.0183 43.418 32.77 43.145L32.415 42.795C32.7723 43.1907 32.7563 43.7972 32.3786 44.1735C32.001 44.5499 31.3945 44.5637 31 44.205L30.3 43.505C30.5537 43.2531 30.6537 42.8851 30.5624 42.5395C30.4711 42.1938 30.2023 41.9232 29.8574 41.8295C29.5124 41.7357 29.1437 41.8331 28.89 42.085C29.2807 41.6943 29.2807 41.0607 28.89 40.67C28.4993 40.2793 27.8657 40.2793 27.475 40.67C27.7278 40.4172 27.8265 40.0488 27.734 39.7035C27.6414 39.3583 27.3717 39.0886 27.0265 38.996C26.6812 38.9035 26.3128 39.0022 26.06 39.255C26.4507 38.8643 26.4507 38.2307 26.06 37.84C25.6693 37.4493 25.0357 37.4493 24.645 37.84L24.415 38.075C23.6614 37.7099 22.8372 37.5137 22 37.5V31C27.4195 31.343 25.7845 31.2405 29.245 31.455L27.055 33.425C26.5388 33.8973 26.4974 34.6965 26.9619 35.2198C27.4263 35.743 28.2248 35.7965 28.755 35.34L31.45 32.98L37.01 38.905C37.1978 39.0926 37.3033 39.3471 37.3033 39.6125C37.3033 39.8779 37.1978 40.1324 37.01 40.32Z" fill="#FDFBF7" fill-opacity="0.3"/>
<path d="M37.0105 38.905L31.4505 32.98L30.627 33.7L35.5105 38.905C35.9012 39.2957 35.9012 39.9292 35.5105 40.32C35.1197 40.7107 34.4862 40.7107 34.0955 40.32L34.4505 40.67C34.822 41.0446 34.8387 41.6434 34.4885 42.038L34.5355 42.085C34.7882 42.3377 35.1566 42.4365 35.5019 42.3439C35.8472 42.2514 36.1169 41.9817 36.2094 41.6364C36.3019 41.2912 36.2032 40.9227 35.9505 40.67L35.5955 40.32C35.9862 40.7107 36.6197 40.7107 37.0105 40.32C37.4012 39.9292 37.4012 39.2957 37.0105 38.905Z" fill="#FDFBF7" fill-opacity="0.15"/>
<path d="M21.4997 30V28C21.0966 27.9983 20.7339 27.7547 20.5798 27.3821C20.4258 27.0096 20.5105 26.5809 20.7947 26.295C20.98 26.1051 21.2344 25.9986 21.4997 26L19.9997 26C19.7344 25.9986 19.48 26.1051 19.2947 26.295C19.0105 26.5809 18.9258 27.0096 19.0798 27.3821C19.2339 27.7547 19.5966 27.9983 19.9997 28V30H21.4997Z" fill="white" fill-opacity="0.1"/>
<path d="M16.5 38.5H18C17.7239 38.5 17.5 38.2761 17.5 38V30.5C17.5 30.2239 17.7239 30 18 30H16.5C16.2239 30 16 30.2239 16 30.5V38C16 38.2761 16.2239 38.5 16.5 38.5Z" fill="white" fill-opacity="0.1"/>
<path d="M26 23V26H27.5V23C27.5 21.0175 29.1225 19.378 31.25 19.06C31.0018 19.0214 30.7511 19.0014 30.5 19C28.015 19 26 20.79 26 23Z" fill="white" fill-opacity="0.1"/>
<path d="M15.5 34H16.5V38H15.5V34Z" fill="white" fill-opacity="0.1"/>
<path d="M16.0103 36.5C15.7342 36.5014 15.5092 36.2786 15.5078 36.0025C15.5064 35.7264 15.7292 35.5014 16.0053 35.5H16.0103C16.2865 35.5 16.5103 35.7239 16.5103 36C16.5103 36.2761 16.2865 36.5 16.0103 36.5Z" fill="#FDFBF7"/>
<path d="M44.5 30H41.5V28.4095C41.7089 28.3382 41.8985 28.2197 42.054 28.063C42.341 27.784 42.502 27.4002 42.5 27C42.5 26.1716 41.8284 25.5 41 25.5H35.5V23.5C35.7761 23.5 36 23.2761 36 23C36 22.7239 35.7761 22.5 35.5 22.5H35.4675C35.208 20.4 33.34 18.733 31 18.523V18H32.5C33.0523 18 33.5 17.5523 33.5 17V16C33.5 15.4477 33.0523 15 32.5 15H31C30.4477 15 30 15.4477 30 16V18.523C27.66 18.733 25.792 20.401 25.5325 22.5H25.5C25.2239 22.5 25 22.7239 25 23C25 23.2761 25.2239 23.5 25.5 23.5V25.5H20C19.1733 25.5041 18.5041 26.1733 18.5 27C18.5026 27.6334 18.9028 28.1969 19.5 28.408V29.5H16.5C15.9477 29.5 15.5 29.9477 15.5 30.5V34C15.5 34.2761 15.7239 34.5 16 34.5C16.2761 34.5 16.5 34.2761 16.5 34V30.5H21.5V38H16.5C16.5 37.7239 16.2761 37.5 16 37.5C15.7239 37.5 15.5 37.7239 15.5 38C15.5 38.5523 15.9477 39 16.5 39H21.5C22.0379 38.9984 22.4782 38.5716 22.4965 38.034C22.8853 38.0746 23.2687 38.1567 23.64 38.279C23.3744 38.8475 23.4945 39.5216 23.94 39.9635C24.0753 40.0986 24.2354 40.2065 24.4115 40.281C24.1108 40.7949 24.1449 41.4384 24.4982 41.9176C24.8515 42.3968 25.4562 42.6197 26.036 42.4845C26.1029 42.7338 26.2336 42.9614 26.415 43.145C26.6772 43.4063 27.0277 43.5602 27.3975 43.5765C27.4269 44.1675 27.8018 44.6856 28.354 44.8982C28.9062 45.1109 29.5318 44.9781 29.95 44.5595L30.3 44.2095L30.6455 44.5545C30.9253 44.8402 31.3086 45.0006 31.7085 44.9995C32.3808 44.9967 32.9695 44.5477 33.15 43.9C33.6478 44.0072 34.1662 43.8569 34.5295 43.5C34.7145 43.3183 34.8489 43.0915 34.9195 42.842C35.3633 42.9394 35.8273 42.8304 36.1813 42.5456C36.5353 42.2608 36.7411 41.8308 36.741 41.3765C36.7411 41.2686 36.7297 41.161 36.707 41.0555C37.1169 40.9416 37.4592 40.659 37.6486 40.278C37.8379 39.897 37.8566 39.4536 37.7 39.058L38.7415 38.642C38.9291 38.8674 39.2067 38.9984 39.5 39H44.5C45.0523 39 45.5 38.5523 45.5 38V31C45.5 30.4477 45.0523 30 44.5 30ZM39.5 30C38.9477 30 38.5 30.4477 38.5 31V31.3625L35 30.5065V28.5H40.5V30H39.5ZM32.1695 33.016L32.3295 32.876C32.5373 32.694 32.5582 32.378 32.3762 32.1703C32.1943 31.9625 31.8783 31.9415 31.6705 32.1235L31.111 32.6135H31.108L28.427 34.96C28.1552 35.1896 27.7637 35.21 27.4695 35.01C27.2731 34.8729 27.1503 34.6536 27.136 34.4145C27.1209 34.1786 27.2149 33.9487 27.391 33.791L29.5815 31.8185L29.592 31.809L30.406 31.0765C30.7761 30.742 31.2894 30.6156 31.7725 30.74L38.5 32.392V37.6605L37.066 38.2335L32.1695 33.016ZM29.3745 26.3765C29.3875 26.3655 29.402 26.3575 29.414 26.3455L30.492 25.5L33.05 27.5H27.945L29.3745 26.3765ZM27 28.5H34V30.2615L32.014 29.7755C31.2081 29.5691 30.3525 29.7805 29.7355 30.3385L29.0645 30.9425L27 30.813V28.5ZM41.5 27C41.5004 27.1347 41.445 27.2636 41.347 27.356C41.2558 27.4493 41.1305 27.5013 41 27.5H34.6725L33.3945 26.5H41C41.2761 26.5 41.5 26.7239 41.5 27ZM34.4545 22.5H32.4875C32.4638 21.5495 32.269 20.611 31.9125 19.7295C33.2078 20.1106 34.186 21.1768 34.4545 22.5ZM30.5 19.5C30.768 19.5 31.393 20.55 31.487 22.5H29.513C29.607 20.55 30.232 19.5 30.5 19.5ZM31 16H32.5V17H31V16ZM29.0875 19.7295C28.731 20.611 28.5362 21.5495 28.5125 22.5H26.5455C26.814 21.1768 27.7922 20.1106 29.0875 19.7295ZM26.5 23.5H34.5V25.5H32.117L31.108 24.71C30.7509 24.4305 30.2491 24.4305 29.892 24.71L28.883 25.5H26.5V23.5ZM19.653 26.644C19.7442 26.5507 19.8695 26.4987 20 26.5H27.6055L26.3275 27.5H20C19.7239 27.5 19.5 27.2761 19.5 27C19.4996 26.8653 19.555 26.7364 19.653 26.644ZM20.5 29.5V28.5H26V30.75L22.5 30.5305V30.5C22.5 29.9477 22.0523 29.5 21.5 29.5H20.5ZM25.707 38.903L25.3535 39.2565C25.1558 39.4456 24.8442 39.4456 24.6465 39.2565C24.4513 39.0613 24.4513 38.7448 24.6465 38.5495L24.768 38.428L24.772 38.424L25 38.196C25.1255 38.066 25.3114 38.0139 25.4863 38.0597C25.6611 38.1054 25.7976 38.2419 25.8433 38.4167C25.8891 38.5916 25.837 38.7775 25.707 38.903ZM25.3535 41.3775C25.1583 41.1823 25.1583 40.8658 25.3535 40.6705L26.4145 39.61C26.54 39.48 26.7259 39.4279 26.9008 39.4737C27.0756 39.5194 27.2121 39.6559 27.2578 39.8307C27.3036 40.0056 27.2515 40.1915 27.1215 40.317L26.0605 41.3775C25.8628 41.5666 25.5512 41.5666 25.3535 41.3775ZM26.975 42.0845C26.9746 41.9518 27.0274 41.8245 27.1215 41.731L27.298 41.5545L27.8285 41.0245C27.9534 40.8915 28.1408 40.8371 28.3174 40.8825C28.4941 40.9279 28.632 41.066 28.6773 41.2427C28.7226 41.4194 28.6681 41.6067 28.535 41.7315L27.8275 42.4385C27.6299 42.6275 27.3186 42.6275 27.121 42.4385C27.0268 42.3449 26.9742 42.2173 26.975 42.0845ZM28.5355 43.8525C28.3403 43.6573 28.3403 43.3408 28.5355 43.1455L29.2425 42.438C29.4379 42.2426 29.7546 42.2426 29.95 42.438C30.1454 42.6334 30.1454 42.9501 29.95 43.1455L29.243 43.8525C29.1492 43.9464 29.022 43.9991 28.8892 43.9991C28.7565 43.9991 28.6293 43.9464 28.5355 43.8525ZM36.6565 39.9655C36.4636 40.1576 36.1524 40.1601 35.9565 39.971L35.948 39.963L34.13 38.147C33.9338 37.9575 33.622 37.9602 33.4291 38.1531C33.2362 38.346 33.2335 38.6578 33.423 38.854L35.241 40.672L35.254 40.6845L35.596 41.022C35.6899 41.1158 35.7426 41.243 35.7426 41.3758C35.7426 41.5085 35.6899 41.6357 35.596 41.7295C35.5022 41.8235 35.3748 41.8764 35.242 41.8764C35.1092 41.8764 34.9818 41.8235 34.888 41.7295L34.533 41.3745L32.7865 39.628C32.5903 39.4385 32.2785 39.4412 32.0856 39.6341C31.8927 39.827 31.89 40.1388 32.0795 40.335L33.826 42.0815C33.922 42.1756 33.9761 42.3045 33.976 42.439C33.9755 42.5712 33.9213 42.6975 33.826 42.789C33.6291 42.9793 33.3163 42.978 33.121 42.786L32.766 42.436L32.5185 42.186C32.3224 41.9964 32.0106 41.9989 31.8176 42.1916C31.6246 42.3843 31.6216 42.6962 31.811 42.8925L32.061 43.1425C32.2549 43.3375 32.2549 43.6525 32.061 43.8475C31.9692 43.9425 31.8431 43.9965 31.711 43.9975C31.5776 43.9974 31.4499 43.9433 31.357 43.8475L30.9465 43.437C31.1675 42.9868 31.1465 42.4555 30.8908 42.0241C30.6351 41.5926 30.179 41.3192 29.678 41.297C29.6505 40.5304 29.0318 39.9174 28.265 39.897C28.244 39.1246 27.6229 38.5035 26.8505 38.4825C26.837 38.1079 26.6825 37.7521 26.418 37.4865C25.8322 36.9279 24.9133 36.92 24.318 37.4685C23.7378 37.2306 23.1248 37.0822 22.5 37.0285V31.5325L26.4895 31.7825H26.5H26.5055L28.0245 31.8775L26.72 33.0535C26.0036 33.7106 25.9467 34.8209 26.5921 35.5478C27.2375 36.2747 28.3467 36.3496 29.084 35.716L31.4165 33.6745L36.6565 39.258C36.7504 39.3518 36.8031 39.479 36.8031 39.6118C36.8031 39.7445 36.7504 39.8717 36.6565 39.9655ZM39.5 38V31H44.5V38H39.5Z" fill="#FDFBF7"/>
</g>
<defs>
<clipPath id="clip0_157_7668">
<rect width="30" height="30" fill="white" transform="translate(15.5 15)"/>
</clipPath>
</defs>
</svg>
