<svg width="84" height="88" viewBox="0 0 84 88" fill="none" xmlns="http://www.w3.org/2000/svg">
<path fill-rule="evenodd" clip-rule="evenodd" d="M11.2046 53.6989V45.5297C11.2047 45.2999 11.262 45.0739 11.3715 44.8721C11.481 44.6703 11.6392 44.4993 11.8315 44.3747L20.8266 38.5309C21.1319 38.3329 21.503 38.2646 21.8584 38.3412C22.2138 38.4177 22.5244 38.6328 22.7217 38.9391C22.9191 39.2455 22.9871 39.6179 22.9108 39.9746C22.8345 40.3312 22.6202 40.6429 22.315 40.8409L13.945 46.2791V53.6989C13.945 54.0636 13.8006 54.4133 13.5437 54.6712C13.2867 54.929 12.9382 55.0739 12.5748 55.0739C12.2114 55.0739 11.8629 54.929 11.606 54.6712C11.349 54.4133 11.2046 54.0636 11.2046 53.6989ZM42.2046 55.0739C41.8412 55.0739 41.4927 54.929 41.2357 54.6712C40.9788 54.4133 40.8344 54.0636 40.8344 53.6989L40.8687 46.8617C40.8687 46.497 41.013 46.1473 41.27 45.8894C41.5269 45.6316 41.8755 45.4867 42.2388 45.4867C42.6022 45.4867 42.9507 45.6316 43.2077 45.8894C43.4646 46.1473 43.609 46.497 43.609 46.8617L43.5748 53.6989C43.5748 54.0636 43.4304 54.4133 43.1734 54.6712C42.9165 54.929 42.568 55.0739 42.2046 55.0739ZM63.5877 38.5361L72.5845 44.3798C72.7749 44.5048 72.9312 44.6753 73.0394 44.8761C73.1477 45.0768 73.2044 45.3014 73.2045 45.5297V53.6989C73.2045 54.0636 73.0602 54.4133 72.8032 54.6712C72.5463 54.929 72.1978 55.0739 71.8344 55.0739C71.471 55.0739 71.1225 54.929 70.8655 54.6712C70.6086 54.4133 70.4642 54.0636 70.4642 53.6989V46.2791L62.0942 40.8461C61.9412 40.749 61.8088 40.6224 61.7048 40.4737C61.6008 40.325 61.5272 40.1571 61.4883 39.9796C61.4494 39.8022 61.4458 39.6188 61.478 39.44C61.5101 39.2612 61.5772 39.0905 61.6754 38.9379C61.7736 38.7853 61.901 38.6537 62.0502 38.5508C62.1994 38.4478 62.3675 38.3756 62.5446 38.3383C62.7218 38.3009 62.9046 38.2991 63.0825 38.3331C63.2603 38.3671 63.4297 38.4361 63.5808 38.5361H63.5877ZM42.2046 27.06C40.9533 27.06 39.7301 26.6876 38.6896 25.99C37.6492 25.2923 36.8383 24.3008 36.3595 23.1406C35.8806 21.9805 35.7553 20.7039 35.9994 19.4723C36.2435 18.2407 36.8461 17.1094 37.7309 16.2215C38.6157 15.3335 39.743 14.7289 40.9703 14.4839C42.1976 14.2389 43.4697 14.3646 44.6257 14.8452C45.7818 15.3257 46.7699 16.1395 47.4651 17.1836C48.1603 18.2277 48.5313 19.4552 48.5313 20.7109C48.5286 22.394 47.8612 24.0073 46.6753 25.1974C45.4894 26.3875 43.8817 27.0573 42.2046 27.06ZM42.2046 11.6119C40.4113 11.6119 38.6583 12.1455 37.1672 13.1453C35.6761 14.1452 34.514 15.5662 33.8277 17.2289C33.1415 18.8915 32.9619 20.721 33.3118 22.4861C33.6616 24.2511 34.5252 25.8724 35.7932 27.1449C37.0613 28.4175 38.6769 29.2841 40.4357 29.6352C42.1945 29.9863 44.0176 29.8061 45.6744 29.1174C47.3312 28.4287 48.7473 27.2624 49.7436 25.7661C50.7399 24.2698 51.2716 22.5106 51.2716 20.7109C51.2689 18.2986 50.3128 15.9858 48.613 14.2799C46.9131 12.5741 44.6085 11.6146 42.2046 11.6119ZM53.851 34.43L55.8822 32.3916L53.2344 28.722C53.0778 28.5048 52.9879 28.2464 52.9757 27.9786C52.9635 27.7108 53.0296 27.4453 53.1659 27.2147C53.777 26.1773 54.2383 25.0581 54.5361 23.8906C54.6021 23.6309 54.7423 23.3963 54.9395 23.2155C55.1367 23.0347 55.3822 22.9157 55.6459 22.8731L60.0989 22.1581V19.2706L55.6459 18.5539C55.3816 18.5109 55.1356 18.3912 54.9383 18.2094C54.7411 18.0277 54.6012 17.7919 54.5361 17.5312C54.2395 16.3617 53.7781 15.2407 53.1659 14.202C53.0296 13.9714 52.9635 13.7059 52.9757 13.4381C52.9879 13.1703 53.0778 12.9119 53.2344 12.6947L55.8822 9.02516L53.851 6.99188L50.1875 9.64906C49.9711 9.80622 49.7136 9.89646 49.4467 9.90867C49.1798 9.92089 48.9152 9.85455 48.6855 9.71781C47.6505 9.10336 46.5334 8.64035 45.3679 8.34281C45.1078 8.27582 44.8729 8.13355 44.6927 7.9337C44.5124 7.73385 44.3946 7.48522 44.354 7.21875L43.6398 2.75H40.7676L40.0551 7.21875C40.0127 7.48336 39.8941 7.72975 39.714 7.92762C39.5338 8.1255 39.3 8.26622 39.0412 8.3325C37.8757 8.62973 36.7586 9.09275 35.7237 9.7075C35.4939 9.84423 35.2293 9.91057 34.9625 9.89836C34.6956 9.88614 34.4381 9.79591 34.2217 9.63875L30.5582 6.99188L28.5338 9.03031L31.1799 12.6998C31.3368 12.9169 31.427 13.1752 31.4395 13.443C31.452 13.7108 31.3861 13.9764 31.2501 14.2072C30.6356 15.2437 30.1719 16.363 29.8731 17.5312C29.8071 17.7909 29.6668 18.0256 29.4697 18.2064C29.2725 18.3871 29.027 18.5062 28.7633 18.5487L24.3103 19.2655V22.1478L28.7633 22.8628C29.0283 22.9062 29.2747 23.0267 29.472 23.2094C29.6694 23.3922 29.8088 23.629 29.8731 23.8906C30.1697 25.0601 30.6311 26.1811 31.2433 27.2198C31.3793 27.4506 31.4451 27.7162 31.4326 27.984C31.4202 28.2519 31.3299 28.5102 31.1731 28.7272L28.5269 32.3967L30.5582 34.43L34.2165 31.7728C34.433 31.6157 34.6905 31.5254 34.9573 31.5132C35.2242 31.501 35.4888 31.5673 35.7186 31.7041C36.7536 32.3185 37.8707 32.7815 39.0361 33.0791C39.2949 33.1453 39.5287 33.2861 39.7088 33.4839C39.889 33.6818 40.0076 33.9282 40.05 34.1928L40.7625 38.6616H43.6347L44.3489 34.1928C44.3913 33.9282 44.5099 33.6818 44.6901 33.4839C44.8702 33.2861 45.104 33.1453 45.3628 33.0791C46.528 32.781 47.6451 32.318 48.6803 31.7041C48.9101 31.5673 49.1747 31.501 49.4416 31.5132C49.7084 31.5254 49.9659 31.6157 50.1824 31.7728L53.851 34.43ZM55.9644 27.818C56.3565 27.0562 56.6842 26.2628 56.9441 25.4461L61.6952 24.683C62.0171 24.6314 62.3101 24.4664 62.5217 24.2176C62.7333 23.9687 62.8495 23.6523 62.8495 23.3252V18.0967C62.8495 17.7696 62.7333 17.4532 62.5217 17.2043C62.3101 16.9554 62.0171 16.7904 61.6952 16.7389L56.9338 15.9844C56.6735 15.1684 56.3458 14.3756 55.9542 13.6142L58.7801 9.69375C58.9722 9.42971 59.0643 9.10561 59.0398 8.7796C59.0153 8.4536 58.8759 8.14701 58.6465 7.91484L54.9557 4.21781C54.7253 3.98704 54.4205 3.84612 54.096 3.8203C53.7715 3.79447 53.4485 3.88543 53.1847 4.07687L49.2866 6.90938C48.5273 6.51609 47.7367 6.18668 46.9231 5.92453L46.1626 1.15844C46.1113 0.835388 45.9469 0.541292 45.6989 0.328969C45.4509 0.116645 45.1356 6.21132e-06 44.8096 0L39.5996 0C39.2736 6.21132e-06 38.9583 0.116645 38.7103 0.328969C38.4623 0.541292 38.2979 0.835388 38.2465 1.15844L37.4861 5.92453C36.6725 6.18668 35.8819 6.51609 35.1226 6.90938L31.2244 4.07687C30.9607 3.88543 30.6376 3.79447 30.3131 3.8203C29.9886 3.84612 29.6839 3.98704 29.4535 4.21781L25.7626 7.91484C25.5322 8.14615 25.3915 8.4523 25.3658 8.77833C25.34 9.10436 25.431 9.42892 25.6222 9.69375L28.4516 13.6056C28.0599 14.3695 27.7334 15.1653 27.4753 15.9844L22.7226 16.7475C22.401 16.7994 22.1083 16.9646 21.8971 17.2134C21.6859 17.4622 21.5699 17.7784 21.5699 18.1053V23.3337C21.5699 23.6606 21.6859 23.9768 21.8971 24.2257C22.1083 24.4745 22.401 24.6397 22.7226 24.6916L27.4753 25.4461C27.7352 26.2628 28.0629 27.0562 28.455 27.818L25.6325 31.7298C25.4381 31.9941 25.3443 32.3194 25.3682 32.6469C25.3921 32.9745 25.532 33.2826 25.7626 33.5156L29.4467 37.2127C29.677 37.4434 29.9818 37.5843 30.3063 37.6102C30.6308 37.636 30.9538 37.545 31.2176 37.3536L35.1174 34.5211C35.876 34.9147 36.6661 35.2441 37.4792 35.5059L38.2397 40.2738C38.2914 40.5965 38.456 40.8902 38.7039 41.1022C38.9519 41.3141 39.267 41.4305 39.5927 41.4305H44.8028C45.1285 41.4305 45.4436 41.3141 45.6915 41.1022C45.9395 40.8902 46.1041 40.5965 46.1558 40.2738L46.9162 35.5042C47.7296 35.2437 48.5197 34.9148 49.2781 34.5211L53.1779 37.3536C53.4416 37.545 53.7647 37.636 54.0892 37.6102C54.4137 37.5843 54.7184 37.4434 54.9488 37.2127L58.6465 33.5156C58.8765 33.2844 59.0169 32.9786 59.0427 32.653C59.0684 32.3273 58.9778 32.0031 58.787 31.7384L55.9644 27.818ZM21.909 85.0867C21.907 85.1293 21.8892 85.1697 21.8591 85.1999C21.829 85.23 21.7888 85.2479 21.7463 85.25H19.7853V79.1106C19.7853 78.746 19.6409 78.3962 19.384 78.1384C19.127 77.8805 18.7785 77.7356 18.4151 77.7356C18.0517 77.7356 17.7032 77.8805 17.4463 78.1384C17.1893 78.3962 17.045 78.746 17.045 79.1106V85.25H8.10465V79.1106C8.10465 78.746 7.96029 78.3962 7.70333 78.1384C7.44638 77.8805 7.09787 77.7356 6.73448 77.7356C6.37109 77.7356 6.02259 77.8805 5.76563 78.1384C5.50868 78.3962 5.36432 78.746 5.36432 79.1106V85.25H3.40327C3.36079 85.2479 3.3206 85.23 3.29053 85.1999C3.26045 85.1697 3.24264 85.1293 3.24057 85.0867V76.8659C3.24057 75.1214 5.14681 74.262 6.74647 73.8495C8.63247 73.3617 10.5724 73.1151 12.52 73.1156C14.507 73.1198 16.4862 73.3674 18.4134 73.853C19.7185 74.1778 21.909 75.0011 21.909 76.8659V85.0867ZM12.5748 60.6495C14.1471 60.6495 16.0208 61.2838 16.0208 64.3036C16.0208 67.002 14.4434 69.288 12.5748 69.288C10.7062 69.288 9.12713 67.0072 9.12713 64.3036C9.12713 61.2838 11.0025 60.6495 12.5748 60.6495ZM19.0728 71.1838C18.1045 70.9425 17.124 70.7537 16.1355 70.6183C17.7232 69.2175 18.7611 66.9109 18.7611 64.3036C18.7611 60.4141 16.3325 57.8995 12.5748 57.8995C8.81713 57.8995 6.3868 60.4141 6.3868 64.3036C6.3868 66.9041 7.41443 69.2072 9.0021 70.608C8.01335 70.7438 7.0332 70.9366 6.06653 71.1855C2.52979 72.0981 0.501953 74.1692 0.501953 76.8659V85.0867C0.50422 85.8602 0.811977 86.6011 1.35776 87.1472C1.90355 87.6933 2.64283 88 3.41355 88H21.7566C22.5258 87.9977 23.2629 87.6901 23.8069 87.1442C24.3508 86.5984 24.6574 85.8587 24.6596 85.0867V76.8659C24.6596 74.1366 22.6267 72.0655 19.0831 71.1838H19.0728ZM81.1686 85.0867C81.1664 85.1308 81.1474 85.1723 81.1155 85.2027C81.0836 85.2331 81.0413 85.2501 80.9973 85.25H79.0449V79.1106C79.0449 78.746 78.9005 78.3962 78.6435 78.1384C78.3866 77.8805 78.0381 77.7356 77.6747 77.7356C77.3113 77.7356 76.9628 77.8805 76.7058 78.1384C76.4489 78.3962 76.3045 78.746 76.3045 79.1106V85.25H67.3642V79.1106C67.3642 78.746 67.2199 78.3962 66.9629 78.1384C66.7059 77.8805 66.3574 77.7356 65.994 77.7356C65.6307 77.7356 65.2821 77.8805 65.0252 78.1384C64.7682 78.3962 64.6239 78.746 64.6239 79.1106V85.25H62.6628C62.6204 85.2479 62.5802 85.23 62.5501 85.1999C62.52 85.1697 62.5022 85.1293 62.5001 85.0867V76.8659C62.5001 75.1214 64.4064 74.262 66.006 73.8495C67.892 73.3617 69.8319 73.1151 71.7796 73.1156C73.7666 73.1198 75.7457 73.3674 77.673 73.853C78.9781 74.1778 81.1686 75.0011 81.1686 76.8659V85.0867ZM71.8344 60.6495C73.4066 60.6495 75.2803 61.2838 75.2803 64.3036C75.2803 67.002 73.7029 69.288 71.8344 69.288C69.9658 69.288 68.3884 67.0072 68.3884 64.3036C68.3867 61.2838 70.2621 60.6495 71.8344 60.6495ZM78.3324 71.1838C77.3641 70.9425 76.3836 70.7537 75.3951 70.6183C76.9828 69.2175 78.0207 66.9109 78.0207 64.3036C78.0207 60.4141 75.592 57.8995 71.8344 57.8995C68.0767 57.8995 65.6481 60.4141 65.6481 64.3036C65.6481 66.9041 66.6757 69.2072 68.2617 70.608C67.2729 70.7438 66.2928 70.9366 65.3261 71.1855C61.7894 72.0981 59.7615 74.1692 59.7615 76.8659V85.0867C59.7638 85.8584 60.0701 86.5978 60.6137 87.1436C61.1572 87.6894 61.8939 87.9973 62.6628 88H81.0042C81.7749 88 82.5142 87.6933 83.06 87.1472C83.6058 86.6011 83.9135 85.8602 83.9158 85.0867V76.8659C83.9158 74.1366 81.8828 72.0655 78.3392 71.1838H78.3324ZM51.5388 85.0867C51.5367 85.1293 51.5189 85.1697 51.4889 85.1999C51.4588 85.23 51.4186 85.2479 51.3761 85.25H49.4151V79.1106C49.4151 78.746 49.2707 78.3962 49.0138 78.1384C48.7568 77.8805 48.4083 77.7356 48.0449 77.7356C47.6815 77.7356 47.333 77.8805 47.0761 78.1384C46.8191 78.3962 46.6747 78.746 46.6747 79.1106V85.25H37.7344V79.1106C37.7344 78.746 37.5901 78.3962 37.3331 78.1384C37.0762 77.8805 36.7277 77.7356 36.3643 77.7356C36.0009 77.7356 35.6524 77.8805 35.3954 78.1384C35.1385 78.3962 34.9941 78.746 34.9941 79.1106V85.25H33.0331C32.9906 85.2479 32.9504 85.23 32.9203 85.1999C32.8902 85.1697 32.8724 85.1293 32.8703 85.0867V76.8659C32.8703 75.1214 34.7766 74.262 36.378 73.8495C38.2634 73.3616 40.2027 73.115 42.1498 73.1156C44.1368 73.1199 46.1159 73.3675 48.0432 73.853C49.3483 74.1778 51.5388 75.0011 51.5388 76.8659V85.0867ZM42.2046 60.6495C43.7768 60.6495 45.6505 61.2838 45.6505 64.3036C45.6505 67.002 44.0731 69.288 42.2046 69.288C40.336 69.288 38.7569 67.0072 38.7569 64.3036C38.7569 61.2838 40.6323 60.6495 42.2046 60.6495ZM48.7026 71.1838C47.7343 70.9425 46.7538 70.7537 45.7653 70.6183C47.353 69.2175 48.3909 66.9109 48.3909 64.3036C48.3909 60.4141 45.9623 57.8995 42.2046 57.8995C38.4469 57.8995 36.0166 60.4141 36.0166 64.3036C36.0166 66.9041 37.0442 69.2072 38.6319 70.608C37.6431 70.7438 36.663 70.9366 35.6963 71.1855C32.1596 72.0981 30.1317 74.1692 30.1317 76.8659V85.0867C30.134 85.8584 30.4403 86.5978 30.9839 87.1436C31.5275 87.6894 32.2641 87.9973 33.0331 88H51.3761C52.1454 87.9977 52.8824 87.6901 53.4264 87.1442C53.9703 86.5984 54.2769 85.8587 54.2791 85.0867V76.8659C54.2791 74.1366 52.2462 72.0655 48.7026 71.1838Z" fill="#2E4939"/>
</svg>
