<svg width="160" height="160" viewBox="0 0 160 160" fill="none" xmlns="http://www.w3.org/2000/svg">
<g clip-path="url(#clip0_157_6532)">
<path d="M80 160C124.183 160 160 124.183 160 80C160 35.8172 124.183 0 80 0C35.8172 0 0 35.8172 0 80C0 124.183 35.8172 160 80 160Z" fill="#F1F2ED"/>
<path d="M160 80C160 76.3048 159.747 72.6139 159.244 68.9532L125.144 34.8563L114.337 46.4344L87.4998 19.5813L72.8936 33.0469L81.8748 42.0125L82.6373 68.5751L48.9092 34.8563L34.8467 48.9188L67.2779 81.3313L44.1529 84.1094L33.3342 73.2001L19.1592 87.1157L45.6717 113.628L34.8561 125.144L68.9561 159.244C72.6156 159.749 76.3056 160.002 79.9998 160C124.181 160 160 124.184 160 80Z" fill="#DFE0DC"/>
<path d="M75.3125 26.0938H84.6875V69.1594H75.3125V26.0938Z" fill="#597765"/>
<path d="M79.8779 26.0938H84.6873V69.1594H79.8779V26.0938Z" fill="#2E4939"/>
<path d="M89.2853 29.5658C91.2215 24.4284 88.6264 18.6943 83.489 16.7582C78.3517 14.8221 72.6175 17.4172 70.6814 22.5545C68.7453 27.6918 71.3404 33.426 76.4777 35.3621C81.6151 37.2982 87.3492 34.7031 89.2853 29.5658Z" fill="#2E4939"/>
<path d="M79.9998 16.1563H79.8779V36.025H79.9998C82.6354 36.025 85.163 34.978 87.0267 33.1144C88.8903 31.2508 89.9373 28.7231 89.9373 26.0875C89.9373 23.4519 88.8903 20.9243 87.0267 19.0607C85.163 17.197 82.6354 16.15 79.9998 16.15V16.1563Z" fill="#152A1E"/>
<path d="M75.3125 90.8406H84.6875V133.906H75.3125V90.8406Z" fill="#597765"/>
<path d="M79.8779 90.8406H84.6873V133.906H79.8779V90.8406Z" fill="#2E4939"/>
<path d="M79.9158 143.812C85.4024 143.812 89.8502 139.365 89.8502 133.878C89.8502 128.391 85.4024 123.944 79.9158 123.944C74.4292 123.944 69.9814 128.391 69.9814 133.878C69.9814 139.365 74.4292 143.812 79.9158 143.812Z" fill="#2E4939"/>
<path d="M79.9998 123.969H79.8779V143.838H79.9998C82.6354 143.838 85.163 142.791 87.0267 140.927C88.8903 139.063 89.9373 136.536 89.9373 133.9C89.9373 131.264 88.8903 128.737 87.0267 126.873C85.163 125.01 82.6354 123.963 79.9998 123.963V123.969Z" fill="#152A1E"/>
<path d="M90.8408 75.3125H133.906V84.6875H90.8408V75.3125Z" fill="#2E4939"/>
<path d="M133.906 89.9375C139.395 89.9375 143.844 85.4883 143.844 80C143.844 74.5117 139.395 70.0625 133.906 70.0625C128.418 70.0625 123.969 74.5117 123.969 80C123.969 85.4883 128.418 89.9375 133.906 89.9375Z" fill="#152A1E"/>
<path d="M26.0938 75.3125H69.1594V84.6875H26.0938V75.3125Z" fill="#597765"/>
<path d="M26.0877 89.9094C31.5743 89.9094 36.0221 85.4616 36.0221 79.975C36.0221 74.4884 31.5743 70.0406 26.0877 70.0406C20.6011 70.0406 16.1533 74.4884 16.1533 79.975C16.1533 85.4616 20.6011 89.9094 26.0877 89.9094Z" fill="#2E4939"/>
<path d="M84.3379 69.0218L114.785 38.575L121.413 45.2031L90.966 75.65L84.3379 69.0218Z" fill="#2E4939"/>
<path d="M127.494 45.1004C129.25 39.9026 126.46 34.265 121.262 32.5087C116.064 30.7523 110.427 33.5422 108.67 38.7401C106.914 43.938 109.704 49.5755 114.902 51.3319C120.1 53.0883 125.737 50.2983 127.494 45.1004Z" fill="#152A1E"/>
<path d="M38.5527 114.797L68.9996 84.35L75.6246 90.9781L45.1777 121.425L38.5527 114.797Z" fill="#597765"/>
<path d="M43.9811 127.845C49.3545 126.72 52.7982 121.451 51.6727 116.078C50.5472 110.704 45.2787 107.261 39.9053 108.386C34.5318 109.512 31.0882 114.78 32.2137 120.153C33.3392 125.527 38.6076 128.971 43.9811 127.845Z" fill="#2E4939"/>
<path d="M84.3311 90.9813L90.9592 84.3531L121.409 114.8L114.781 121.428L84.3311 90.9813Z" fill="#2E4939"/>
<path d="M118.119 128.056C123.607 128.056 128.057 123.607 128.057 118.119C128.057 112.63 123.607 108.181 118.119 108.181C112.631 108.181 108.182 112.63 108.182 118.119C108.182 123.607 112.631 128.056 118.119 128.056Z" fill="#152A1E"/>
<path d="M38.5596 45.1969L45.1877 38.5687L75.6252 69.0187L68.9971 75.6469L38.5596 45.1969Z" fill="#597765"/>
<path d="M41.8809 51.8187C47.3692 51.8187 51.8184 47.3696 51.8184 41.8812C51.8184 36.3929 47.3692 31.9437 41.8809 31.9437C36.3925 31.9437 31.9434 36.3929 31.9434 41.8812C31.9434 47.3696 36.3925 51.8187 41.8809 51.8187Z" fill="#2E4939"/>
<path d="M79.9846 109.644C96.3564 109.644 109.628 96.3717 109.628 80C109.628 63.6282 96.3564 50.3562 79.9846 50.3562C63.6128 50.3562 50.3408 63.6282 50.3408 80C50.3408 96.3717 63.6128 109.644 79.9846 109.644Z" fill="#FDFBF7"/>
<path d="M79.9998 50.3531H79.8779V109.644H79.9998C87.8626 109.644 95.4034 106.52 100.963 100.96C106.523 95.4005 109.647 87.8597 109.647 79.9969C109.647 72.134 106.523 64.5932 100.963 59.0333C95.4034 53.4735 87.8626 50.35 79.9998 50.35V50.3531Z" fill="#E5E4E0"/>
<path d="M83.6176 76.1454C88.7328 74.1563 91.2669 68.3971 89.2777 63.2819C87.2885 58.1667 81.5293 55.6326 76.4142 57.6218C71.299 59.611 68.7649 65.3702 70.7541 70.4853C72.7433 75.6005 78.5025 78.1346 83.6176 76.1454Z" fill="#F5E2DC"/>
<path d="M79.9998 57H79.8779V76.875H79.9998C81.3194 76.8984 82.6305 76.6587 83.8565 76.1699C85.0825 75.6811 86.1988 74.9529 87.1403 74.028C88.0818 73.103 88.8296 71.9998 89.3401 70.7826C89.8506 69.5655 90.1135 68.2589 90.1135 66.9391C90.1135 65.6192 89.8506 64.3126 89.3401 63.0955C88.8296 61.8784 88.0818 60.7751 87.1403 59.8502C86.1988 58.9252 85.0825 58.1971 83.8565 57.7082C82.6305 57.2194 81.3194 56.9797 79.9998 57.0031V57Z" fill="#E6C2B7"/>
<path d="M61.5127 98.2812C61.5127 93.378 63.4605 88.6756 66.9276 85.2086C70.3946 81.7415 75.097 79.7937 80.0002 79.7937C84.9034 79.7937 89.6058 81.7415 93.0728 85.2086C96.5399 88.6756 98.4877 93.378 98.4877 98.2812H61.5127Z" fill="#DF5643"/>
<path d="M79.9998 79.7937H79.8779V98.2812H98.4873C98.4873 93.378 96.5395 88.6756 93.0724 85.2086C89.6054 81.7415 84.903 79.7937 79.9998 79.7937Z" fill="#BF4A39"/>
</g>
<defs>
<clipPath id="clip0_157_6532">
<rect width="160" height="160" fill="white"/>
</clipPath>
</defs>
</svg>
