<svg width="160" height="160" viewBox="0 0 160 160" fill="none" xmlns="http://www.w3.org/2000/svg">
<g clip-path="url(#clip0_157_6574)">
<path d="M80 160C124.183 160 160 124.183 160 80C160 35.8172 124.183 0 80 0C35.8172 0 0 35.8172 0 80C0 124.183 35.8172 160 80 160Z" fill="#F1F2ED"/>
<path d="M115.263 28.6313L114.106 27.4782L108.681 32.9031L114.838 39.0594L106.272 47.6219L84.0846 25.4344L80.8877 28.6282L79.7314 27.475L74.3064 32.9L79.6721 38.2625L71.1064 46.8282L49.7096 25.4313L46.5127 28.6282L45.3564 27.4782L39.9314 32.9031L45.1439 38.125L34.7314 48.5219L53.8752 67.6656L47.7846 73.75L52.8377 78.8032L38.3721 93.2719L54.9127 109.816L34.7314 130L62.8908 158.159C68.5114 159.385 74.2475 160.002 80.0002 160C124.185 160 160 124.184 160 80C160.002 75.2038 159.575 70.4171 158.725 65.6969L118.46 25.4344L115.263 28.6313Z" fill="#DFE0DC"/>
<path d="M103.481 87.3V130H114.375L118.772 108.65L114.375 87.3H103.481Z" fill="#DF5643"/>
<path d="M114.375 72.2312H125.272V130H114.375V72.2312Z" fill="#BF4A39"/>
<path d="M69.1064 105.022V130H80.0002L83.8596 117.5L80.0002 105L69.1064 105.022Z" fill="#DF5643"/>
<path d="M80 87.3H90.8969V130H80V87.3Z" fill="#BF4A39"/>
<path d="M34.7314 72.2312V130H45.6252L51.0721 101.116L45.6252 72.2312H34.7314Z" fill="#DF5643"/>
<path d="M45.625 57.1594H56.5219V130H45.625V57.1594Z" fill="#BF4A39"/>
<path d="M55.5096 39.8531C55.1858 39.5249 54.7999 39.2645 54.3745 39.0869C53.949 38.9093 53.4925 38.8181 53.0314 38.8187H48.9471V36.6469L50.2689 34.9125C50.5382 34.5584 50.6841 34.126 50.6846 33.6812V33.1562C51.1846 33.2437 51.7221 32.5844 51.8814 31.6812C52.0408 30.7781 51.7627 29.975 51.2564 29.8875C51.2233 29.8827 51.1896 29.8827 51.1564 29.8875C51.194 29.5524 51.2013 29.2145 51.1783 28.8781C51.0932 27.6461 50.6107 26.475 49.8033 25.5406C48.7783 24.4469 47.1971 23.8969 45.6158 23.8969C44.0346 23.8969 42.4564 24.4469 41.4314 25.5406C40.9182 26.1326 40.533 26.8244 40.3002 27.5725C40.0673 28.3206 39.9918 29.1088 40.0783 29.8875C40.0441 29.8828 40.0094 29.8828 39.9752 29.8875C39.4752 29.975 39.1971 30.7781 39.3502 31.6812C39.5033 32.5844 40.0439 33.2437 40.5471 33.1562V33.6812C40.5475 34.126 40.6935 34.5584 40.9627 34.9125L42.2846 36.6469V38.8187H38.2221C37.2966 38.8196 36.4092 39.1876 35.7547 39.842C35.1003 40.4965 34.7323 41.3838 34.7314 42.3093V48.5219H56.5221V42.3093C56.5236 41.3887 56.1594 40.5052 55.5096 39.8531Z" fill="#2E4939"/>
<path d="M80.0002 23.8938C78.4221 23.8938 76.8408 24.4438 75.8158 25.5375C75.0071 26.4711 74.5244 27.6427 74.4408 28.875C74.4184 29.2114 74.4247 29.5491 74.4596 29.8844C74.4263 29.8814 74.3928 29.8814 74.3596 29.8844C73.8596 29.9719 73.5814 30.775 73.7346 31.6782C73.8877 32.5813 74.4283 33.2407 74.9315 33.1532V33.6782C74.9319 34.123 75.0779 34.5554 75.3471 34.9094L76.669 36.6438V38.8157H72.5971C71.671 38.8165 70.7832 39.185 70.1286 39.8401C69.4741 40.4952 69.1064 41.3834 69.1064 42.3094V48.5219H80.0002L82.0971 38.4907L80.0002 23.8938Z" fill="#2E4939"/>
<path d="M90.8965 42.3093C90.898 41.3887 90.5338 40.5052 89.884 39.8531C89.5602 39.5249 89.1743 39.2645 88.7489 39.0869C88.3234 38.9093 87.8669 38.8181 87.4059 38.8187H83.3215V36.6469L84.6434 34.9125C84.9126 34.5584 85.0585 34.126 85.059 33.6812V33.1562C85.5621 33.2437 86.0965 32.5844 86.2559 31.6812C86.4152 30.7781 86.1371 29.975 85.6309 29.8875C85.5977 29.8827 85.564 29.8827 85.5309 29.8875C85.6174 29.1088 85.5419 28.3206 85.309 27.5725C85.0762 26.8244 84.691 26.1326 84.1777 25.5406C83.1527 24.4469 81.5715 23.8969 79.9902 23.8969V48.525H90.8871V42.3093H90.8965Z" fill="#152A1E"/>
<path d="M124.26 39.8531C123.936 39.5249 123.55 39.2645 123.124 39.0869C122.699 38.9093 122.242 38.8181 121.781 38.8187H117.697V36.6469L119.019 34.9125C119.288 34.5584 119.434 34.126 119.435 33.6812V33.1562C119.935 33.2437 120.472 32.5844 120.631 31.6812C120.791 30.7781 120.513 29.975 120.006 29.8875C119.973 29.8827 119.94 29.8827 119.906 29.8875C119.944 29.5524 119.951 29.2145 119.928 28.8781C119.843 27.6461 119.361 26.475 118.553 25.5406C117.528 24.4469 115.947 23.8969 114.366 23.8969C112.785 23.8969 111.206 24.4469 110.181 25.5406C109.373 26.4742 108.89 27.6458 108.806 28.8781C108.784 29.2145 108.79 29.5522 108.825 29.8875C108.792 29.8829 108.758 29.8829 108.725 29.8875C108.225 29.975 107.947 30.7781 108.1 31.6812C108.253 32.5844 108.794 33.2437 109.297 33.1562V33.6812C109.298 34.126 109.443 34.5584 109.713 34.9125L111.035 36.6469V38.8187H106.972C106.047 38.8196 105.159 39.1876 104.505 39.842C103.85 40.4965 103.482 41.3838 103.481 42.3093V48.5219H125.272V42.3093C125.274 41.3887 124.909 40.5052 124.26 39.8531Z" fill="#152A1E"/>
</g>
<defs>
<clipPath id="clip0_157_6574">
<rect width="160" height="160" fill="white"/>
</clipPath>
</defs>
</svg>
