<svg width="44" height="44" viewBox="0 0 44 44" fill="none" xmlns="http://www.w3.org/2000/svg">
<g clip-path="url(#clip0_157_6903)">
<path d="M25.7031 37.4C32.1832 37.4 37.4364 32.1468 37.4364 25.6667C37.4364 19.1865 32.1832 13.9333 25.7031 13.9333C19.2229 13.9333 13.9697 19.1865 13.9697 25.6667C13.9697 32.1468 19.2229 37.4 25.7031 37.4Z" fill="#FFCFC9"/>
<path d="M25.7035 13.9333C25.3324 13.9333 24.9702 13.9553 24.6035 13.9891C30.6301 14.5548 35.2363 19.6136 35.2363 25.6667C35.2363 31.7197 30.6301 36.7786 24.6035 37.3443C24.9665 37.3787 25.3332 37.4 25.7035 37.4C32.1837 37.4 37.4368 32.1468 37.4368 25.6667C37.4368 19.1865 32.1837 13.9333 25.7035 13.9333Z" fill="#F9B2A8"/>
<path d="M25.7072 34.4667C30.5673 34.4667 34.5072 30.5268 34.5072 25.6667C34.5072 20.8066 30.5673 16.8667 25.7072 16.8667C20.8471 16.8667 16.9072 20.8066 16.9072 25.6667C16.9072 30.5268 20.8471 34.4667 25.7072 34.4667Z" fill="white"/>
<path d="M34.5074 25.6667C34.5014 20.8091 30.565 16.8728 25.7074 16.8667C25.3396 16.8684 24.9722 16.8929 24.6074 16.94C29.0061 17.4911 32.3064 21.2307 32.3064 25.6638C32.3064 30.0968 29.0061 33.8364 24.6074 34.3875C27.115 34.7212 29.6443 33.9528 31.5426 32.2807C33.4408 30.6085 34.5221 28.1964 34.5074 25.6667Z" fill="#F9B2A8"/>
<path d="M31.5701 13.9115C31.576 14.1098 31.5014 14.302 31.3632 14.4443C31.225 14.5866 31.0351 14.6669 30.8367 14.6668H29.7954C27.155 13.689 24.2518 13.689 21.6114 14.6668H18.3701C17.965 14.6668 17.6367 14.3385 17.6367 13.9335V1.46682C17.6366 1.26845 17.7169 1.07851 17.8592 0.940337C18.0015 0.80216 18.1938 0.727534 18.3921 0.733485C25.5013 1.12563 31.1779 6.80224 31.5701 13.9115Z" fill="#F38F81"/>
<path d="M18.3925 0.733474C18.1951 0.724029 18.0028 0.797703 17.8623 0.936608C24.2446 2.06682 29.0103 7.43992 29.3705 13.9115C29.3805 14.1165 29.3001 14.3157 29.1505 14.4563C29.3705 14.5231 29.5905 14.5876 29.7995 14.6668H30.8408C31.0392 14.6669 31.2291 14.5866 31.3673 14.4443C31.5055 14.302 31.5801 14.1097 31.5742 13.9115C31.1819 6.80091 25.5032 1.12382 18.3925 0.733474Z" fill="#EC6B59"/>
<path d="M13.9698 25.6668C13.9666 27.7176 14.5027 29.7332 15.5245 31.5114C14.7174 31.5551 13.9081 31.533 13.1045 31.4454C9.97816 31.0924 7.06428 29.6884 4.83984 27.4634L14.7032 17.6001H17.1818C15.1146 19.7765 13.9644 22.6651 13.9698 25.6668Z" fill="#F9B2A8"/>
<path d="M17.1817 17.6001H14.9817C11.4357 21.3479 10.7514 26.9712 13.2951 31.4601C14.0356 31.5331 14.7805 31.5508 15.5237 31.5129C12.9473 27.0172 13.6209 21.3644 17.1817 17.6001Z" fill="#F38F81"/>
<path d="M14.7029 4.41484V17.6002L4.83961 27.4635C2.59439 25.2462 1.17617 22.327 0.820945 19.1915C0.388777 15.3718 1.5515 11.543 4.03473 8.60868C6.51796 5.67433 10.1017 3.89437 13.9403 3.68884C14.139 3.67922 14.333 3.75139 14.4771 3.88855C14.6211 4.02571 14.7028 4.2159 14.7029 4.41484Z" fill="#FFCFC9"/>
<path d="M13.9408 3.68884C13.3822 3.72128 12.826 3.78764 12.2754 3.88757C12.4207 4.0245 12.5032 4.2152 12.5035 4.41484V17.6002L3.80469 26.299C4.12824 26.7058 4.47391 27.0946 4.84015 27.4635L14.7035 17.6002V4.41484C14.7033 4.2159 14.6217 4.02571 14.4776 3.88855C14.3335 3.75139 14.1395 3.67922 13.9408 3.68884Z" fill="#F9B2A8"/>
<path d="M37.2829 34.6207L34.6502 37.2607L32.8389 34.9873C33.6555 34.3553 34.3875 33.6208 35.0169 32.802L37.2829 34.6207Z" fill="#FFCFC9"/>
<path d="M42.5117 42.5042L42.5044 42.5115C41.9818 43.035 41.2593 43.3084 40.521 43.2621C39.7828 43.2158 39.1001 42.8542 38.6471 42.2695L34.6504 37.2609L37.2831 34.6208L42.2697 38.6322C42.8547 39.0883 43.2161 39.7733 43.2624 40.5137C43.3087 41.2541 43.0354 41.9787 42.5117 42.5042Z" fill="#FFCFC9"/>
<path d="M42.2694 38.6322L37.2827 34.6208L36.3037 35.6028L40.0694 38.6322C40.6544 39.0883 41.0158 39.7733 41.062 40.5137C41.1083 41.2541 40.835 41.9787 40.3114 42.5042L40.304 42.5115C40.0931 42.7183 39.8477 42.8865 39.5788 43.0087C40.5602 43.4835 41.7346 43.2839 42.504 42.5115L42.5114 42.5042C43.035 41.9787 43.3083 41.2541 43.262 40.5137C43.2158 39.7733 42.8544 39.0883 42.2694 38.6322Z" fill="#F9B2A8"/>
<path d="M3.80482 26.2988C3.87815 26.3722 3.86935 26.3986 4.23969 26.8122C7.07409 30.0364 11.2401 31.769 15.525 31.5055C15.5147 31.4879 15.5059 31.4696 15.4964 31.452C11.9969 31.1131 8.75814 29.4531 6.43969 26.81C6.06935 26.3927 6.08035 26.37 6.00482 26.2966C-0.718382 17.9513 4.25875 5.62545 14.469 3.88671C14.327 3.75243 14.1361 3.68219 13.941 3.69238C2.61829 4.29078 -3.27625 17.5062 3.80482 26.2988Z" fill="white"/>
<path d="M28.4626 13.948C28.4025 13.948 28.3446 13.948 28.2852 13.9429C28.3446 13.9451 28.4032 13.9451 28.4626 13.948Z" fill="white"/>
<path d="M27.3435 13.948C27.1543 13.9575 26.9614 13.9715 26.7627 13.9905C26.9622 13.9715 27.155 13.9575 27.3435 13.948Z" fill="white"/>
<path d="M27.905 13.9333C27.7942 13.9333 27.685 13.9385 27.5713 13.9421C27.6828 13.9385 27.7935 13.9333 27.905 13.9333Z" fill="white"/>
<path d="M20.0619 0.936637C19.5098 0.835641 18.9522 0.767809 18.3921 0.733504C18.1947 0.723876 18.0023 0.797578 17.8619 0.936637C17.7186 1.07595 17.6375 1.26703 17.6367 1.46684V13.9335C17.6367 14.3385 17.965 14.6668 18.3701 14.6668C20.1491 14.6668 20.9367 14.6756 21.3342 14.6668H20.5701C20.165 14.6668 19.8367 14.3385 19.8367 13.9335V1.46684C19.8375 1.26703 19.9186 1.07595 20.0619 0.936637Z" fill="white"/>
<path d="M3.31504 24.3322L2.05664 25.0853C1.00668 23.3044 0.337944 21.3249 0.0927734 19.2722L1.54991 19.1108C1.7725 20.9543 2.37343 22.7318 3.31504 24.3322Z" fill="white"/>
<path d="M25.7072 35.2C30.9723 35.2 35.2405 30.9317 35.2405 25.6666C35.2405 20.4015 30.9723 16.1333 25.7072 16.1333C20.442 16.1333 16.1738 20.4015 16.1738 25.6666C16.1795 30.9294 20.4444 35.1943 25.7072 35.2ZM25.7072 17.6C30.1623 17.6 33.7738 21.2115 33.7738 25.6666C33.7738 30.1217 30.1623 33.7333 25.7072 33.7333C21.2521 33.7333 17.6405 30.1217 17.6405 25.6666C17.6457 21.2137 21.2542 17.6052 25.7072 17.6Z" fill="#DF5643"/>
<path d="M1.47822 22.7892C1.07321 22.7912 0.743245 22.4645 0.74122 22.0595C0.739195 21.6545 1.06588 21.3245 1.47089 21.3225H1.47822C1.88323 21.3225 2.21155 21.6508 2.21155 22.0558C2.21155 22.4609 1.88323 22.7892 1.47822 22.7892Z" fill="#DF5643"/>
<path d="M14.977 3.3536C14.6884 3.08058 14.3009 2.93726 13.9041 2.95687C9.86646 3.18038 6.0974 5.05086 3.47756 8.13127C0.849271 11.213 -0.377231 15.2499 0.0924957 19.2728C0.13393 19.6438 0.447416 19.9244 0.820696 19.9247C0.847829 19.9247 0.874962 19.9247 0.902829 19.9211C1.0963 19.8997 1.27334 19.8023 1.39494 19.6503C1.51653 19.4983 1.57271 19.3042 1.5511 19.1107C1.12725 15.4893 2.23048 11.8549 4.5959 9.0802C6.95156 6.31068 10.3374 4.62505 13.9672 4.41474V17.3067L4.8621 26.4081C4.27898 25.7691 3.76089 25.0737 3.3155 24.3321C3.1153 23.9922 2.68094 23.8736 2.33576 24.0644C2.16034 24.1599 2.03145 24.3227 1.97885 24.5154C1.92626 24.7081 1.95451 24.9138 2.0571 25.0852C4.42183 29.0157 8.4706 31.6325 13.0256 32.1743C13.5906 32.2354 14.1585 32.2662 14.7269 32.2667C14.8662 32.2667 15.0041 32.2594 15.1427 32.255C16.9287 35.1335 19.8118 37.1587 23.1255 37.8623C26.4391 38.5659 29.8964 37.887 32.698 35.9825L38.0718 42.7204C38.6586 43.4722 39.5399 43.9361 40.4918 43.9942C40.5578 43.9979 40.6231 44.0001 40.6891 44.0001C42.1035 43.9933 43.3591 43.093 43.8193 41.7555C44.2795 40.418 43.8437 38.9357 42.7329 38.0601L36.0185 32.6642C37.9656 29.8041 38.6331 26.2622 37.8606 22.8896C37.0881 19.517 34.9456 16.6187 31.9478 14.8911C32.1947 14.6108 32.3232 14.2457 32.3064 13.8725C31.9159 6.37922 25.9286 0.391288 18.4354 6.97451e-05C18.0402 -0.0222462 17.6536 0.120969 17.3684 0.395336C17.0745 0.674304 16.9078 1.06153 16.9071 1.46674V13.9334C16.9071 14.7434 17.5637 15.4001 18.3738 15.4001H18.6502C18.0189 15.8346 17.4284 16.3255 16.8858 16.8667H15.4338V4.41474C15.4331 4.01342 15.268 3.62991 14.977 3.3536ZM41.817 39.2077C42.2387 39.5377 42.4994 40.0322 42.5334 40.5666C42.5679 41.0986 42.3696 41.6193 41.99 41.9937C41.6207 42.3708 41.1051 42.568 40.5784 42.5334C40.0442 42.4994 39.5504 42.2377 39.2224 41.8147L35.6342 37.3121L37.3363 35.6056L41.817 39.2077ZM36.1842 34.6816L34.7117 36.1585L33.853 35.0813C34.3023 34.6913 34.7236 34.27 35.1136 33.8207L36.1842 34.6816ZM18.3738 13.9334L18.3562 1.46674C25.0942 1.81628 30.4814 7.19585 30.8404 13.9334H29.879C27.1837 12.9556 24.2305 12.9556 21.5352 13.9334H18.3738ZM25.7071 14.6667C31.7822 14.6667 36.7071 19.5916 36.7071 25.6667C36.7071 31.7419 31.7822 36.6667 25.7071 36.6667C19.632 36.6667 14.7071 31.7419 14.7071 25.6667C14.714 19.5945 19.6348 14.6736 25.7071 14.6667ZM15.6472 18.3334C12.988 21.9454 12.494 26.7146 14.3566 30.7949C13.9655 30.7847 13.5743 30.7585 13.1832 30.7165C10.4773 30.3983 7.93529 29.2536 5.90343 27.4385L15.0107 18.3334H15.6472Z" fill="#DF5643"/>
<path d="M4.09994 15.4001C4.43004 15.4001 4.7194 15.1794 4.80687 14.8611C5.20151 13.4261 5.90732 12.0957 6.87414 10.9642C8.0503 9.57828 9.57209 8.52808 11.2851 7.92013C11.6669 7.78466 11.8665 7.36539 11.731 6.98367C11.5955 6.60195 11.1763 6.40232 10.7945 6.5378C8.83809 7.23201 7.09983 8.43091 5.75581 10.0131C4.65081 11.3073 3.84392 12.8287 3.39227 14.4695C3.33051 14.6907 3.37588 14.9279 3.51485 15.1107C3.65382 15.2934 3.87035 15.4006 4.09994 15.4001Z" fill="#DF5643"/>
<path d="M3.70697 18.3334C4.11197 18.3334 4.4403 18.005 4.4403 17.6C4.4403 17.195 4.11197 16.8667 3.70697 16.8667C3.30196 16.8667 2.97363 17.195 2.97363 17.6C2.97363 18.005 3.30196 18.3334 3.70697 18.3334Z" fill="#DF5643"/>
<path d="M20.574 24.9334C20.7684 24.9336 20.9549 24.8566 21.0925 24.7193L24.7592 21.0526C24.9445 20.8674 25.017 20.5973 24.9492 20.3442C24.8815 20.0911 24.6839 19.8933 24.4308 19.8254C24.1777 19.7575 23.9076 19.8297 23.7222 20.015L20.0556 23.6816C19.8459 23.8914 19.7832 24.2067 19.8967 24.4807C20.0101 24.7547 20.2775 24.9334 20.574 24.9334Z" fill="#DF5643"/>
<path d="M20.0549 29.1193C20.3413 29.4056 20.8055 29.4056 21.0919 29.1193L29.1585 21.0526C29.3439 20.8674 29.4163 20.5973 29.3486 20.3442C29.2809 20.0911 29.0832 19.8933 28.8301 19.8254C28.577 19.7575 28.3069 19.8297 28.1216 20.015L20.0549 28.0816C19.9172 28.2192 19.8398 28.4058 19.8398 28.6005C19.8398 28.7951 19.9172 28.9817 20.0549 29.1193Z" fill="#DF5643"/>
</g>
<defs>
<clipPath id="clip0_157_6903">
<rect width="44" height="44" fill="white"/>
</clipPath>
</defs>
</svg>
