<svg width="44" height="44" viewBox="0 0 44 44" fill="none" xmlns="http://www.w3.org/2000/svg">
<path d="M5.77051 10.4589V16.2294C5.77051 16.6277 6.09345 16.9507 6.49182 16.9507H18.0328C18.4312 16.9507 18.7541 16.6277 18.7541 16.2294V10.4589C18.7541 10.0605 18.4312 9.73757 18.0328 9.73757H6.49182C6.09345 9.73757 5.77051 10.0605 5.77051 10.4589Z" fill="#FFCFC9"/>
<path d="M18.0321 9.73779H15.8682C16.2665 9.73779 16.5895 10.0607 16.5895 10.4591V16.2296C16.5895 16.628 16.2665 16.9509 15.8682 16.9509H18.0321C18.4305 16.9509 18.7534 16.628 18.7534 16.2296V10.4591C18.7534 10.0607 18.4305 9.73779 18.0321 9.73779Z" fill="#F9B2A8"/>
<path d="M6.49121 19.8359V16.9507H18.0322V19.8359H6.49121Z" fill="#F9B2A8"/>
<path d="M6.49121 9.73779V6.85255H18.0322V9.73779H6.49121Z" fill="#F9B2A8"/>
<path d="M6.49206 2.52467C5.29695 2.52467 4.32812 3.4935 4.32812 4.6886C4.32812 5.88371 5.29695 6.85254 6.49206 6.85254H18.033C19.2282 6.85254 20.197 5.88371 20.197 4.6886C20.197 3.4935 19.2282 2.52467 18.033 2.52467H6.49206Z" fill="#FFCFC9"/>
<path d="M18.0321 2.52441H15.8682C17.0633 2.52441 18.0321 3.49324 18.0321 4.68835C18.0321 5.88346 17.0633 6.85228 15.8682 6.85228H18.0321C19.2272 6.85228 20.196 5.88346 20.196 4.68835C20.196 3.49324 19.2272 2.52441 18.0321 2.52441Z" fill="#F9B2A8"/>
<path d="M6.49206 19.8362C5.29695 19.8362 4.32812 20.805 4.32812 22.0001C4.32812 23.1952 5.29695 24.1641 6.49206 24.1641H18.033C19.2282 24.1641 20.197 23.1952 20.197 22.0001C20.197 20.805 19.2282 19.8362 18.033 19.8362H6.49206Z" fill="#FFCFC9"/>
<path d="M18.0321 19.8359H15.8682C17.0633 19.8359 18.0321 20.8048 18.0321 21.9999C18.0321 23.195 17.0633 24.1638 15.8682 24.1638H18.0321C19.2272 24.1638 20.196 23.195 20.196 21.9999C20.196 20.8048 19.2272 19.8359 18.0321 19.8359Z" fill="#F9B2A8"/>
<path d="M18.7539 14.7866V11.9014H41.2213C42.0181 11.9014 42.6639 12.5473 42.6639 13.344C42.6639 14.1407 42.0181 14.7866 41.2213 14.7866H18.7539Z" fill="#F9B2A8"/>
<path d="M21.0747 35.7051H3.44875C2.45572 35.7049 1.58999 36.3805 1.34902 37.3439L0.764753 39.6831C0.657068 40.1139 0.753787 40.5703 1.02696 40.9204C1.30013 41.2705 1.71932 41.4753 2.16338 41.4756H22.3601C22.8043 41.4755 23.2237 41.2708 23.497 40.9207C23.7703 40.5706 23.8672 40.114 23.7594 39.6831L23.1752 37.3439C22.9341 36.3803 22.068 35.7045 21.0747 35.7051Z" fill="#FFCFC9"/>
<path d="M23.7591 39.6831L23.1748 37.3439C22.9338 36.3805 22.0681 35.7049 21.0751 35.7051H18.9111C19.9042 35.7049 20.7699 36.3805 21.0109 37.3439L21.5951 39.6831C21.7028 40.1139 21.6061 40.5703 21.3329 40.9204C21.0598 41.2705 20.6406 41.4753 20.1965 41.4756H22.3604C22.8045 41.4753 23.2237 41.2705 23.4969 40.9204C23.77 40.5703 23.8668 40.1139 23.7591 39.6831Z" fill="#F9B2A8"/>
<path d="M5.77075 32.8198H18.7544C19.5511 32.8198 20.197 33.4657 20.197 34.2624V35.7051H4.32812V34.2624C4.32812 33.4657 4.97401 32.8198 5.77075 32.8198Z" fill="#F38F81"/>
<path d="M18.7538 32.8198H16.5898C17.3866 32.8198 18.0325 33.4657 18.0325 34.2624V35.7051H20.1964V34.2624C20.1964 33.4657 19.5505 32.8198 18.7538 32.8198Z" fill="#EC6B59"/>
<path d="M4.32812 21.9998C4.32812 23.1949 5.29695 24.1638 6.49206 24.1638H8.65599C7.46089 24.1638 6.49206 23.1949 6.49206 21.9998C6.49206 20.8047 7.46089 19.8359 8.65599 19.8359V16.9506C8.25762 16.9506 7.93468 16.6277 7.93468 16.2293V10.4588C7.93468 10.0605 8.25762 9.73753 8.65599 9.73753V6.85228C7.46089 6.85228 6.49206 5.88346 6.49206 4.68835C6.49206 3.49324 7.46089 2.52441 8.65599 2.52441H6.49206C5.29695 2.52441 4.32812 3.49324 4.32812 4.68835C4.32812 5.88346 5.29695 6.85228 6.49206 6.85228V9.73753C6.09369 9.73753 5.77075 10.0605 5.77075 10.4588V16.2293C5.77075 16.6277 6.09369 16.9506 6.49206 16.9506V19.8359C5.29695 19.8359 4.32812 20.8047 4.32812 21.9998Z" fill="white"/>
<path d="M4.32731 35.7051H3.44875C2.45572 35.7048 1.58999 36.3805 1.34902 37.3439L0.764753 39.6831C0.657068 40.1139 0.753787 40.5703 1.02696 40.9204C1.30013 41.2705 1.71932 41.4753 2.16338 41.4756H4.32731C3.88312 41.4755 3.46373 41.2708 3.19039 40.9207C2.91706 40.5706 2.82025 40.114 2.92797 39.6831L3.51223 37.3439C3.75327 36.3803 4.61939 35.7045 5.61269 35.7051H6.49124V34.2624C6.49124 33.4657 7.13713 32.8198 7.93387 32.8198H5.76993C4.97319 32.8198 4.32731 33.4657 4.32731 34.2624V35.7051Z" fill="white"/>
<path d="M6.49121 1.80322H12.2617V3.24585H6.49121V1.80322Z" fill="white"/>
<path d="M9.37658 3.24585C9.77495 3.24585 10.0979 2.9229 10.0979 2.52453C10.0979 2.12616 9.77495 1.80322 9.37658 1.80322C8.97822 1.80322 8.65527 2.12616 8.65527 2.52453C8.65527 2.9229 8.97822 3.24585 9.37658 3.24585Z" fill="#DF5643"/>
<path d="M41.2214 11.1803H19.4753V10.459C19.4737 9.94587 19.1988 9.47251 18.754 9.21686V7.47129C20.1593 7.10959 21.0759 5.75869 20.8927 4.31919C20.7095 2.87969 19.4838 1.80142 18.0327 1.80322H12.2622C11.8638 1.80322 11.5409 2.12617 11.5409 2.52454C11.5409 2.92291 11.8638 3.24585 12.2622 3.24585H18.0327C18.8294 3.24585 19.4753 3.89173 19.4753 4.68847C19.4753 5.48521 18.8294 6.13109 18.0327 6.13109H6.49167C5.69493 6.13109 5.04905 5.48521 5.04905 4.68847C5.04905 3.89173 5.69493 3.24585 6.49167 3.24585C6.89004 3.24585 7.21298 2.92291 7.21298 2.52454C7.21298 2.12617 6.89004 1.80322 6.49167 1.80322C5.04056 1.80142 3.81484 2.87969 3.63165 4.31919C3.44846 5.75869 4.36505 7.10959 5.77036 7.47129V9.21686C5.32549 9.47251 5.0506 9.94587 5.04905 10.459V16.2295C5.0506 16.7425 5.32549 17.2159 5.77036 17.4716V19.2171C4.36505 19.5788 3.44846 20.9297 3.63165 22.3692C3.81484 23.8087 5.04056 24.887 6.49167 24.8852H18.0327C19.4838 24.887 20.7095 23.8087 20.8927 22.3692C21.0759 20.9297 20.1593 19.5788 18.754 19.2171V17.4716C19.1988 17.2159 19.4737 16.7425 19.4753 16.2295V15.5081H41.2214C42.4165 15.5081 43.3853 14.5393 43.3853 13.3442C43.3853 12.1491 42.4165 11.1803 41.2214 11.1803ZM17.3113 19.1147H7.21298V17.6721H17.3113V19.1147ZM6.49167 16.2295V10.459H18.0327V16.2295H6.49167ZM17.3113 7.57372V9.01634H7.21298V7.57372H17.3113ZM19.4753 21.9999C19.4753 22.7967 18.8294 23.4426 18.0327 23.4426H6.49167C5.69493 23.4426 5.04905 22.7967 5.04905 21.9999C5.04905 21.2032 5.69493 20.5573 6.49167 20.5573H18.0327C18.8294 20.5573 19.4753 21.2032 19.4753 21.9999ZM41.2214 14.0655H19.4753V12.6229H41.2214C41.6197 12.6229 41.9427 12.9458 41.9427 13.3442C41.9427 13.7426 41.6197 14.0655 41.2214 14.0655Z" fill="#DF5643"/>
<path d="M3.60634 34.2621V34.9834H3.44909C2.12473 34.9829 0.97012 35.8841 0.648962 37.169L0.0647002 39.5075C-0.0970035 40.1539 0.0481435 40.8388 0.458166 41.3641C0.868189 41.8894 1.49736 42.1964 2.16372 42.1965H22.3604C23.0268 42.1964 23.656 41.8894 24.066 41.3641C24.476 40.8388 24.6212 40.1539 24.4595 39.5075L23.8752 37.169C23.554 35.8841 22.3994 34.9829 21.0751 34.9834H20.9178V34.2621C20.9178 33.067 19.949 32.0981 18.7539 32.0981H5.77027C4.57517 32.0981 3.60634 33.067 3.60634 34.2621ZM22.4751 37.5188L23.0601 39.858C23.1138 40.0734 23.0654 40.3016 22.9287 40.4766C22.7921 40.6515 22.5825 40.7538 22.3604 40.7539H2.16372C1.94158 40.754 1.73175 40.6518 1.59494 40.4768C1.45812 40.3018 1.40957 40.0735 1.46332 39.858L2.04831 37.5188C2.20895 36.8761 2.78664 36.4255 3.44909 36.426H21.0751C21.7372 36.4258 22.3145 36.8764 22.4751 37.5188ZM19.4752 34.2621V34.9834H5.04896V34.2621C5.04896 33.8637 5.3719 33.5408 5.77027 33.5408H18.7539C19.1523 33.5408 19.4752 33.8637 19.4752 34.2621Z" fill="#DF5643"/>
<path d="M12.9836 29.9346V27.7706C12.9836 27.3723 12.6607 27.0493 12.2623 27.0493C11.864 27.0493 11.541 27.3723 11.541 27.7706V29.9346C11.541 30.3329 11.864 30.6559 12.2623 30.6559C12.6607 30.6559 12.9836 30.3329 12.9836 29.9346Z" fill="#DF5643"/>
<path d="M8.65572 30.6557C8.90561 30.6556 9.13763 30.5261 9.26897 30.3135C9.40032 30.1009 9.41227 29.8355 9.30057 29.612L8.57926 28.1694C8.40119 27.8128 7.9678 27.6681 7.61126 27.8462C7.25472 28.0243 7.11004 28.4577 7.28811 28.8142L8.00942 30.2568C8.13175 30.5016 8.38206 30.6561 8.65572 30.6557Z" fill="#DF5643"/>
<path d="M15.8684 30.6557C16.1431 30.6572 16.3948 30.5026 16.5176 30.2568L17.2389 28.8142C17.417 28.4577 17.2723 28.0243 16.9158 27.8462C16.5592 27.6681 16.1259 27.8128 15.9478 28.1694L15.2265 29.612C15.115 29.8351 15.1267 30.0999 15.2573 30.3123C15.388 30.5247 15.6191 30.6546 15.8684 30.6557Z" fill="#DF5643"/>
</svg>
