<svg width="44" height="44" viewBox="0 0 44 44" fill="none" xmlns="http://www.w3.org/2000/svg">
<g clip-path="url(#clip0_157_7035)">
<path d="M28.6004 11.7334H15.4004C15.4004 8.49203 18.3557 5.8667 22.0004 5.8667C25.6451 5.8667 28.6004 8.49203 28.6004 11.7334Z" fill="#FFCFC9"/>
<path d="M19.7998 11.7334C19.7998 8.4935 20.7847 5.8667 21.9998 5.8667C23.2149 5.8667 24.1998 8.4935 24.1998 11.7334" fill="#FFCFC9"/>
<path d="M28.6004 11.7334V16.1334H24.1197L22.4404 14.8207C22.183 14.6154 21.8178 14.6154 21.5604 14.8207L19.8811 16.1334H15.4004V11.7334H28.6004Z" fill="#F38F81"/>
<path d="M26.4004 11.7334H28.6004V16.1334H26.4004V11.7334Z" fill="#EC6B59"/>
<path d="M27.8671 19.0668H16.1338L19.8811 16.1334L21.5605 14.8208C21.8178 14.6154 22.1831 14.6154 22.4405 14.8208L24.1198 16.1334L27.8671 19.0668Z" fill="#FFCFC9"/>
<path d="M38.8665 17.6C38.8605 18.4075 38.2073 19.0606 37.3998 19.0666H27.8665L24.1191 16.1333H37.3998C38.2088 16.1357 38.8641 16.791 38.8665 17.6Z" fill="#FFCFC9"/>
<path d="M37.4002 16.1333H35.2002C36.0092 16.1357 36.6644 16.791 36.6669 17.6C36.6609 18.4075 36.0077 19.0606 35.2002 19.0666H37.4002C38.2077 19.0606 38.8609 18.4075 38.8669 17.6C38.8644 16.791 38.2092 16.1357 37.4002 16.1333Z" fill="#F9B2A8"/>
<path d="M19.8811 16.1333L16.1338 19.0666H6.60046C5.79144 19.0642 5.13621 18.409 5.13379 17.6C5.13978 16.7924 5.79293 16.1393 6.60046 16.1333H19.8811Z" fill="#FFCFC9"/>
<path d="M27.8671 19.0667V23.32L24.0391 22.3813C23.095 22.1403 22.0928 22.388 21.3698 23.0413L20.1598 24.134L16.1338 23.8847V19.0667H27.8671Z" fill="#F38F81"/>
<path d="M37.4005 19.0667V22.7333H35.2005C34.7955 22.7333 34.4672 23.0616 34.4672 23.4667V24.9333L27.8672 23.32V19.0667H37.4005Z" fill="#FFCFC9"/>
<path d="M35.2002 19.0667H37.4002V22.7333H35.2002V19.0667Z" fill="#F9B2A8"/>
<path d="M16.1329 19.0667V23.8847L9.53294 23.4667V22.7333C9.53294 22.3283 9.20462 22 8.79961 22H6.59961V19.0667H16.1329Z" fill="#FFCFC9"/>
<path d="M22.7333 0.733398H24.9333C25.3383 0.733398 25.6667 1.06172 25.6667 1.46673V2.9334C25.6667 3.33841 25.3383 3.66673 24.9333 3.66673H22V1.46673C22 1.06172 22.3283 0.733398 22.7333 0.733398Z" fill="#FFCFC9"/>
<path d="M8.80007 22H1.46673C1.06172 22 0.733398 22.3283 0.733398 22.7333V33.7333C0.733398 34.1383 1.06172 34.4667 1.46673 34.4667H8.80007C9.20508 34.4667 9.5334 34.1383 9.5334 33.7333V22.7333C9.5334 22.3283 9.20508 22 8.80007 22Z" fill="#F38F81"/>
<path d="M42.5335 22.7334H35.2001C34.7951 22.7334 34.4668 23.0617 34.4668 23.4667V33.7334C34.4668 34.1384 34.7951 34.4667 35.2001 34.4667H42.5335C42.9385 34.4667 43.2668 34.1384 43.2668 33.7334V23.4667C43.2668 23.0617 42.9385 22.7334 42.5335 22.7334Z" fill="#F38F81"/>
<path d="M42.533 22.7334H40.333C40.738 22.7334 41.0663 23.0617 41.0663 23.4667V33.7334C41.0663 34.1384 40.738 34.4667 40.333 34.4667H42.533C42.938 34.4667 43.2663 34.1384 43.2663 33.7334V23.4667C43.2663 23.0617 42.938 22.7334 42.533 22.7334Z" fill="#EC6B59"/>
<path d="M15.9132 34.5401C15.9148 34.9277 15.7617 35.2999 15.4878 35.5741L14.9672 36.0948C14.3868 36.6189 13.4973 36.5954 12.9453 36.0415C12.3934 35.4876 12.373 34.598 12.8992 34.0195L13.0752 33.8435L13.4125 33.4988C13.8328 33.081 14.4632 32.9572 15.0103 33.185C15.5574 33.4128 15.9136 33.9475 15.9132 34.5401Z" fill="#FFCFC9"/>
<path d="M17.9954 36.6082C17.9957 36.9991 17.84 37.374 17.5627 37.6495L16.5287 38.6909L16.0081 39.2042C15.435 39.7773 14.5058 39.7773 13.9327 39.2042C13.3597 38.6311 13.3597 37.702 13.9327 37.1289L14.9667 36.0949L15.4874 35.5742C15.9074 35.1558 16.5375 35.0306 17.0855 35.2565C17.6336 35.4825 17.9923 36.0154 17.9954 36.6082Z" fill="#FFCFC9"/>
<path d="M20.0636 38.6908C20.0653 39.0783 19.9122 39.4506 19.6382 39.7248L18.5969 40.7588C18.2275 41.1282 17.6891 41.2725 17.1844 41.1372C16.6798 41.002 16.2857 40.6079 16.1504 40.1032C16.0152 39.5986 16.1595 39.0602 16.5289 38.6908L17.5629 37.6494C17.9832 37.2316 18.6136 37.1078 19.1607 37.3356C19.7078 37.5635 20.0641 38.0981 20.0636 38.6908Z" fill="#FFCFC9"/>
<path d="M22.1462 40.7588C22.1465 41.1497 21.9907 41.5246 21.7135 41.8002L21.7062 41.8075L20.6722 42.8342C20.3015 43.2049 19.7611 43.3497 19.2547 43.214C18.7483 43.0783 18.3527 42.6827 18.217 42.1763C18.0813 41.6699 18.2261 41.1296 18.5968 40.7588L19.6382 39.7248C20.0581 39.3065 20.6883 39.1812 21.2363 39.4072C21.7843 39.6331 22.1431 40.1661 22.1462 40.7588Z" fill="#FFCFC9"/>
<path d="M34.4662 24.9335V33.7335L31.4376 34.9435L23.3929 26.3708L19.4402 29.8321C19.0971 30.1318 18.6565 30.2961 18.2009 30.2941C17.8177 30.2952 17.4436 30.1773 17.1302 29.9568C16.6614 29.6289 16.3675 29.1053 16.3318 28.5343C16.2961 27.9633 16.5225 27.4072 16.9469 27.0235L20.1589 24.1341L21.3689 23.0415C22.0919 22.3882 23.0941 22.1404 24.0382 22.3815L27.8662 23.3201L34.4662 24.9335Z" fill="#FFCFC9"/>
<path d="M24.0388 22.3813C23.4531 22.2313 22.835 22.2684 22.2715 22.4876C26.5468 23.5355 24.3351 22.9943 32.2668 24.9333V33.7333L30.8383 34.3038L31.4382 34.9433L34.4668 33.7333V24.9333C26.5116 22.9885 28.8436 23.559 24.0388 22.3813Z" fill="#F9B2A8"/>
<path d="M31.5479 37.1361C31.2728 37.4115 30.8995 37.5663 30.5102 37.5663C30.1209 37.5663 29.7476 37.4115 29.4725 37.1361L29.9932 37.6495C30.5663 38.2226 30.5663 39.1517 29.9932 39.7248C29.4201 40.2979 28.491 40.2979 27.9179 39.7248L27.3972 39.2041C27.7989 39.5668 27.9682 40.1213 27.8377 40.6465C27.7071 41.1717 27.2979 41.5824 26.7731 41.7148C26.2484 41.8472 25.6933 41.6799 25.3292 41.2795L24.8085 40.7661C25.3326 41.3465 25.3091 42.236 24.7552 42.788C24.2013 43.3399 23.3117 43.3602 22.7332 42.8341L21.7065 41.8075C22.0786 41.438 22.2253 40.8982 22.0914 40.3913C21.9575 39.8844 21.5633 39.4875 21.0574 39.35C20.5514 39.2125 20.0106 39.3554 19.6385 39.7248C20.2116 39.1517 20.2116 38.2226 19.6385 37.6495C19.0654 37.0764 18.1363 37.0764 17.5632 37.6495C17.9339 37.2787 18.0787 36.7384 17.943 36.232C17.8073 35.7256 17.4118 35.33 16.9053 35.1943C16.3989 35.0586 15.8586 35.2034 15.4879 35.5741C16.061 35.001 16.061 34.0719 15.4879 33.4988C14.9148 32.9257 13.9856 32.9257 13.4125 33.4988L13.0752 33.8435C11.97 33.308 10.7612 33.0202 9.5332 33.0001V23.4668C17.4818 23.9699 15.0838 23.8195 20.1592 24.1341L16.9472 27.0235C16.1902 27.7162 16.1293 28.8884 16.8106 29.6558C17.4918 30.4232 18.6629 30.5017 19.4405 29.8321L23.3932 26.3708L31.5479 35.0608C31.8233 35.3359 31.978 35.7092 31.978 36.0985C31.978 36.4877 31.8233 36.861 31.5479 37.1361Z" fill="#FFCFC9"/>
<path d="M31.548 35.0609L23.3933 26.3708L22.1855 27.4269L29.348 35.0609C29.9211 35.6339 29.9211 36.5631 29.348 37.1362C28.7749 37.7093 27.8458 37.7093 27.2727 37.1362L27.7933 37.6495C28.3383 38.1989 28.3627 39.0771 27.8491 39.6559L27.918 39.7249C28.2887 40.0956 28.8291 40.2404 29.3355 40.1047C29.8419 39.969 30.2375 39.5734 30.3732 39.067C30.5089 38.5606 30.3641 38.0202 29.9933 37.6495L29.4727 37.1362C30.0458 37.7093 30.9749 37.7093 31.548 37.1362C32.1211 36.5631 32.1211 35.6339 31.548 35.0609Z" fill="#F9B2A8"/>
<path d="M8.8002 22V19.0667C8.2089 19.0642 7.67693 18.7069 7.45099 18.1605C7.22504 17.614 7.34933 16.9854 7.7662 16.566C8.03787 16.2874 8.4111 16.1313 8.8002 16.1333L6.6002 16.1333C6.2111 16.1313 5.83787 16.2874 5.5662 16.566C5.14933 16.9854 5.02504 17.614 5.25099 18.1605C5.47693 18.7069 6.0089 19.0642 6.6002 19.0667V22H8.8002Z" fill="white"/>
<path d="M1.46673 34.4667H3.66673C3.26172 34.4667 2.9334 34.1383 2.9334 33.7333V22.7333C2.9334 22.3283 3.26172 22 3.66673 22H1.46673C1.06172 22 0.733398 22.3283 0.733398 22.7333V33.7333C0.733398 34.1383 1.06172 34.4667 1.46673 34.4667Z" fill="white"/>
<path d="M15.4004 11.7334V16.1334H17.6004V11.7334C17.6004 8.8257 19.9801 6.4211 23.1004 5.9547C22.7364 5.89814 22.3687 5.86872 22.0004 5.8667C18.3557 5.8667 15.4004 8.49203 15.4004 11.7334Z" fill="white"/>
<path d="M0 27.8667H1.46667V33.7334H0V27.8667Z" fill="white"/>
<path d="M0.747752 31.5333C0.342743 31.5353 0.0127766 31.2087 0.0107516 30.8037C0.0087265 30.3986 0.335409 30.0687 0.740418 30.0667H0.747752C1.15276 30.0667 1.48109 30.395 1.48109 30.8C1.48109 31.205 1.15276 31.5333 0.747752 31.5333Z" fill="#DF5643"/>
<path d="M42.5333 22H38.1333V19.6673C38.4397 19.5628 38.7178 19.3888 38.9459 19.1591C39.3668 18.7499 39.603 18.187 39.6 17.6C39.6 16.385 38.615 15.4 37.4 15.4H29.3333V12.4667C29.7383 12.4667 30.0667 12.1383 30.0667 11.7333C30.0667 11.3283 29.7383 11 29.3333 11H29.2857C28.9051 7.92 26.1653 5.47507 22.7333 5.16707V4.4H24.9333C25.7434 4.4 26.4 3.74335 26.4 2.93333V1.46667C26.4 0.656649 25.7434 0 24.9333 0H22.7333C21.9233 0 21.2667 0.656649 21.2667 1.46667V5.16707C17.8347 5.47507 15.0949 7.92147 14.7143 11H14.6667C14.2617 11 13.9333 11.3283 13.9333 11.7333C13.9333 12.1383 14.2617 12.4667 14.6667 12.4667V15.4H6.6C5.38748 15.406 4.40602 16.3875 4.4 17.6C4.40385 18.529 4.99081 19.3554 5.86667 19.6651V21.2667H1.46667C0.656649 21.2667 0 21.9233 0 22.7333V27.8667C0 28.2717 0.328324 28.6 0.733333 28.6C1.13834 28.6 1.46667 28.2717 1.46667 27.8667V22.7333H8.8V33.7333H1.46667C1.46667 33.3283 1.13834 33 0.733333 33C0.328324 33 0 33.3283 0 33.7333C0 34.5434 0.656649 35.2 1.46667 35.2H8.8C9.58895 35.1977 10.2347 34.5717 10.2615 33.7832C10.8318 33.8427 11.3941 33.9632 11.9387 34.1425C11.5492 34.9764 11.7252 35.965 12.3787 36.6131C12.5771 36.8114 12.8119 36.9695 13.0702 37.0788C12.6292 37.8325 12.6793 38.7763 13.1974 39.4792C13.7156 40.182 14.6024 40.509 15.4528 40.3106C15.551 40.6762 15.7425 41.0101 16.0087 41.2793C16.3933 41.6626 16.9072 41.8883 17.4497 41.9122C17.4928 42.779 18.0427 43.5389 18.8526 43.8507C19.6624 44.1626 20.58 43.9679 21.1933 43.3539L21.7067 42.8406L22.2134 43.3466C22.6238 43.7656 23.186 44.0009 23.7725 43.9993C24.7586 43.9951 25.6219 43.3366 25.8867 42.3867C26.6168 42.544 27.3772 42.3235 27.9099 41.8C28.1812 41.5335 28.3784 41.2009 28.4819 40.8349C29.1328 40.9778 29.8134 40.8179 30.3326 40.4002C30.8517 39.9824 31.1536 39.3519 31.1535 38.6855C31.1536 38.5273 31.1369 38.3695 31.1036 38.2147C31.7048 38.0477 32.2068 37.6331 32.4845 37.0744C32.7623 36.5156 32.7897 35.8652 32.56 35.2851L34.0875 34.6749C34.3627 35.0055 34.7699 35.1977 35.2 35.2H42.5333C43.3434 35.2 44 34.5434 44 33.7333V23.4667C44 22.6567 43.3434 22 42.5333 22ZM35.2 22C34.39 22 33.7333 22.6567 33.7333 23.4667V23.9983L28.6 22.7429V19.8H36.6667V22H35.2ZM24.4486 26.4235L24.6833 26.2181C24.988 25.9512 25.0187 25.4878 24.7518 25.183C24.4849 24.8783 24.0215 24.8476 23.7167 25.1145L22.8961 25.8331H22.8917L18.9596 29.2747C18.5609 29.6114 17.9868 29.6414 17.5553 29.348C17.2672 29.147 17.087 28.8252 17.0661 28.4746C17.044 28.1286 17.1819 27.7915 17.4401 27.5601L20.6529 24.6671L20.6683 24.6532L21.8621 23.5789C22.4049 23.0883 23.1578 22.9029 23.8663 23.0853L33.7333 25.5083V33.2354L31.6301 34.0758L24.4486 26.4235ZM20.3493 16.6855C20.3683 16.6694 20.3896 16.6577 20.4072 16.6401L21.9883 15.4L25.74 18.3333H18.2527L20.3493 16.6855ZM16.8667 19.8H27.1333V22.3835L24.2205 21.6707C23.0386 21.368 21.7836 21.6781 20.8787 22.4965L19.8946 23.3823L16.8667 23.1924V19.8ZM38.1333 17.6C38.134 17.7976 38.0527 17.9866 37.9089 18.1221C37.7752 18.259 37.5913 18.3353 37.4 18.3333H28.1197L26.2453 16.8667H37.4C37.805 16.8667 38.1333 17.195 38.1333 17.6ZM27.7999 11H24.915C24.8802 9.60588 24.5945 8.22943 24.0717 6.9366C25.9714 7.49553 27.4062 9.0593 27.7999 11ZM22 6.6C22.3931 6.6 23.3097 8.14 23.4476 11H20.5524C20.6903 8.14 21.6069 6.6 22 6.6ZM22.7333 1.46667H24.9333V2.93333H22.7333V1.46667ZM19.9283 6.9366C19.4055 8.22943 19.1198 9.60588 19.085 11H16.2001C16.5938 9.0593 18.0286 7.49553 19.9283 6.9366ZM16.1333 12.4667H27.8667V15.4H24.3716L22.8917 14.2413C22.3679 13.8314 21.6321 13.8314 21.1083 14.2413L19.6284 15.4H16.1333V12.4667ZM6.09107 17.0779C6.22482 16.941 6.40866 16.8647 6.6 16.8667H17.7547L15.8803 18.3333H6.6C6.19499 18.3333 5.86667 18.005 5.86667 17.6C5.86603 17.4024 5.94727 17.2134 6.09107 17.0779ZM7.33333 21.2667V19.8H15.4V23.1L10.2667 22.7781V22.7333C10.2667 21.9233 9.61002 21.2667 8.8 21.2667H7.33333ZM14.9703 35.0577L14.4518 35.5762C14.1618 35.8535 13.7049 35.8535 13.4149 35.5762C13.1286 35.2898 13.1286 34.8256 13.4149 34.5393L13.5931 34.3611L13.5989 34.3552L13.9333 34.0208C14.1175 33.8302 14.3901 33.7537 14.6465 33.8208C14.9029 33.8879 15.1031 34.0882 15.1702 34.3446C15.2374 34.601 15.1609 34.8736 14.9703 35.0577ZM14.4518 38.687C14.1655 38.4006 14.1655 37.9364 14.4518 37.6501L16.0079 36.0947C16.1921 35.904 16.4647 35.8276 16.7211 35.8947C16.9775 35.9618 17.1777 36.162 17.2448 36.4184C17.312 36.6748 17.2355 36.9475 17.0449 37.1316L15.4887 38.687C15.1987 38.9643 14.7418 38.9643 14.4518 38.687ZM16.83 39.7239C16.8295 39.5293 16.9068 39.3426 17.0449 39.2055L17.3037 38.9466L18.0818 38.1693C18.265 37.9742 18.5398 37.8944 18.7989 37.961C19.058 38.0276 19.2603 38.2301 19.3268 38.4892C19.3932 38.7484 19.3132 39.0232 19.118 39.2062L18.0803 40.2431C17.7906 40.5204 17.3339 40.5204 17.0441 40.2431C16.906 40.1058 16.8288 39.9187 16.83 39.7239ZM19.1187 42.317C18.8325 42.0306 18.8325 41.5664 19.1187 41.2801L20.1557 40.2424C20.4422 39.9559 20.9068 39.9559 21.1933 40.2424C21.4799 40.5289 21.4799 40.9935 21.1933 41.2801L20.1564 42.317C20.0189 42.4547 19.8322 42.5321 19.6376 42.5321C19.4429 42.5321 19.2563 42.4547 19.1187 42.317ZM31.0295 36.6161C30.7466 36.8978 30.2902 36.9014 30.0029 36.6241L29.9904 36.6124L27.324 33.9489C27.0363 33.671 26.5789 33.675 26.296 33.9579C26.0131 34.2407 26.0092 34.6981 26.2871 34.9859L28.9535 37.6523L28.9725 37.6706L29.4741 38.1656C29.6118 38.3032 29.6892 38.4898 29.6892 38.6844C29.6892 38.8791 29.6118 39.0657 29.4741 39.2033C29.3366 39.3412 29.1497 39.4187 28.9549 39.4187C28.7601 39.4187 28.5733 39.3412 28.4357 39.2033L27.9151 38.6826L25.3535 36.1211C25.0658 35.8432 24.6084 35.8471 24.3255 36.13C24.0427 36.4129 24.0387 36.8703 24.3166 37.158L26.8781 39.7195C27.019 39.8576 27.0983 40.0466 27.0981 40.2439C27.0973 40.4377 27.018 40.6229 26.8781 40.7572C26.5893 41.0364 26.1306 41.0344 25.8441 40.7528L25.3235 40.2395L24.9605 39.8728C24.6729 39.5947 24.2155 39.5983 23.9325 39.881C23.6494 40.1637 23.6451 40.6211 23.9228 40.909L24.2895 41.2757C24.5738 41.5617 24.5738 42.0236 24.2895 42.3097C24.1548 42.4489 23.9698 42.5282 23.7761 42.5297C23.5805 42.5295 23.3932 42.4501 23.2569 42.3097L22.6549 41.7076C22.979 41.0473 22.9482 40.2681 22.5732 39.6353C22.1981 39.0025 21.5292 38.6016 20.7944 38.5689C20.7541 37.4447 19.8466 36.5455 18.722 36.5156C18.6913 35.3828 17.7802 34.4718 16.6474 34.441C16.6276 33.8915 16.401 33.3698 16.0131 32.9802C15.1538 32.161 13.8062 32.1494 12.9331 32.9538C12.0821 32.6048 11.183 32.3872 10.2667 32.3085V24.2477L16.1179 24.6143H16.1333H16.1414L18.3693 24.7537L16.456 26.4785C15.4053 27.4422 15.3218 29.0706 16.2684 30.1367C17.2151 31.2029 18.8419 31.3127 19.9232 30.3835L23.3442 27.3893L31.0295 35.5784C31.1672 35.716 31.2446 35.9026 31.2446 36.0972C31.2446 36.2919 31.1672 36.4785 31.0295 36.6161ZM35.2 33.7333V23.4667H42.5333V33.7333H35.2Z" fill="#DF5643"/>
</g>
<defs>
<clipPath id="clip0_157_7035">
<rect width="44" height="44" fill="white"/>
</clipPath>
</defs>
</svg>
