<svg width="44" height="44" viewBox="0 0 44 44" fill="none" xmlns="http://www.w3.org/2000/svg">
<g clip-path="url(#clip0_157_7162)">
<path d="M36.6669 22.0002C36.668 25.8904 35.1232 29.6216 32.3724 32.3724C29.6216 35.1231 25.8904 36.668 22.0002 36.6668C21.264 36.6653 20.5288 36.6113 19.8002 36.5055V32.2668C19.8002 31.0518 18.8152 30.0668 17.6002 30.0668H16.3169L16.8669 25.6668L11.8362 30.0668H9.75354C6.78699 25.5622 6.5323 19.7927 9.09038 15.0442C11.6485 10.2957 16.6065 7.33438 22.0002 7.3335C22.7364 7.33507 23.4716 7.38899 24.2002 7.49483V11.7335C24.2002 12.9485 25.1852 13.9335 26.4002 13.9335H27.6835L27.1335 18.3335L32.1642 13.9335H34.2469C35.8301 16.3255 36.6719 19.1317 36.6669 22.0002Z" fill="#F38F81"/>
<path d="M34.2462 13.9331H32.1635L32.0902 13.9998C34.93 18.3539 35.2494 23.8868 32.9295 28.5387C30.6096 33.1906 25.9979 36.2645 20.8115 36.6158C21.2046 36.6474 21.6013 36.6664 22.0025 36.6664C27.3957 36.6645 32.3527 33.7028 34.91 28.9544C37.4674 24.2061 37.2125 18.4373 34.2462 13.9331Z" fill="#EC6B59"/>
<path d="M43.2669 2.9334V11.7334C43.2669 12.9484 42.2819 13.9334 41.0669 13.9334H32.1642L27.1335 18.3334L27.6835 13.9334H26.4002C25.1852 13.9334 24.2002 12.9484 24.2002 11.7334V2.9334C24.2002 1.71837 25.1852 0.733398 26.4002 0.733398H41.0669C42.2819 0.733398 43.2669 1.71837 43.2669 2.9334Z" fill="#FFCFC9"/>
<path d="M41.0662 0.733398H38.8662C40.0812 0.733398 41.0662 1.71837 41.0662 2.9334V11.7334C41.0662 12.9484 40.0812 13.9334 38.8662 13.9334H41.0662C42.2812 13.9334 43.2662 12.9484 43.2662 11.7334V2.9334C43.2662 1.71837 42.2812 0.733398 41.0662 0.733398Z" fill="#F9B2A8"/>
<path d="M28.6005 8.80003C29.4105 8.80003 30.0671 8.14338 30.0671 7.33337C30.0671 6.52335 29.4105 5.8667 28.6005 5.8667C27.7904 5.8667 27.1338 6.52335 27.1338 7.33337C27.1338 8.14338 27.7904 8.80003 28.6005 8.80003Z" fill="#F38F81"/>
<path d="M33.7333 8.80003C34.5433 8.80003 35.1999 8.14338 35.1999 7.33337C35.1999 6.52335 34.5433 5.8667 33.7333 5.8667C32.9233 5.8667 32.2666 6.52335 32.2666 7.33337C32.2666 8.14338 32.9233 8.80003 33.7333 8.80003Z" fill="#F38F81"/>
<path d="M38.8671 8.80003C39.6771 8.80003 40.3337 8.14338 40.3337 7.33337C40.3337 6.52335 39.6771 5.8667 38.8671 5.8667C38.057 5.8667 37.4004 6.52335 37.4004 7.33337C37.4004 8.14338 38.057 8.80003 38.8671 8.80003Z" fill="#F38F81"/>
<path d="M19.8001 32.2665V41.0665C19.8001 42.2815 18.8151 43.2665 17.6001 43.2665H2.9334C1.71837 43.2665 0.733398 42.2815 0.733398 41.0665V32.2665C0.733398 31.0515 1.71837 30.0665 2.9334 30.0665H11.8361L16.8667 25.6665L16.3167 30.0665H17.6001C18.8151 30.0665 19.8001 31.0515 19.8001 32.2665Z" fill="#FFCFC9"/>
<path d="M17.5995 30.0665H16.3162L16.8662 25.6665L14.3963 27.8269L14.1162 30.0665H15.3995C16.6146 30.0665 17.5995 31.0515 17.5995 32.2665V41.0665C17.5995 42.2815 16.6146 43.2665 15.3995 43.2665H17.5995C18.8146 43.2665 19.7995 42.2815 19.7995 41.0665V32.2665C19.7995 31.0515 18.8146 30.0665 17.5995 30.0665Z" fill="#F9B2A8"/>
<path d="M15.4003 38.1335C16.2103 38.1335 16.8669 37.4769 16.8669 36.6669C16.8669 35.8568 16.2103 35.2002 15.4003 35.2002C14.5902 35.2002 13.9336 35.8568 13.9336 36.6669C13.9336 37.4769 14.5902 38.1335 15.4003 38.1335Z" fill="#F38F81"/>
<path d="M10.2665 38.1335C11.0765 38.1335 11.7331 37.4769 11.7331 36.6669C11.7331 35.8568 11.0765 35.2002 10.2665 35.2002C9.45645 35.2002 8.7998 35.8568 8.7998 36.6669C8.7998 37.4769 9.45645 38.1335 10.2665 38.1335Z" fill="#F38F81"/>
<path d="M5.13366 38.1335C5.94368 38.1335 6.60033 37.4769 6.60033 36.6669C6.60033 35.8568 5.94368 35.2002 5.13366 35.2002C4.32364 35.2002 3.66699 35.8568 3.66699 36.6669C3.66699 37.4769 4.32364 38.1335 5.13366 38.1335Z" fill="#F38F81"/>
<path d="M24.4509 19.99C22.9879 19.8852 21.1128 20.6038 20.3941 21.9539C19.7539 23.1558 20.5027 24.1473 21.3269 25.0024C21.7424 25.4133 22.1288 25.8527 22.4834 26.3172C22.8706 26.9766 23.3728 27.5613 23.9662 28.0435C24.6629 28.5323 25.6044 28.4773 26.2395 27.9108C26.7476 27.299 26.9257 26.4781 26.7169 25.7108C26.5831 25.1282 26.4905 24.5369 26.4397 23.9412C26.4788 23.1034 26.4543 22.2637 26.3664 21.4296C26.1342 20.5668 25.3442 19.9731 24.4509 19.99Z" fill="#FFCFC9"/>
<path d="M26.7193 25.712C26.5855 25.1294 26.4928 24.5381 26.4421 23.9424C26.4811 23.1046 26.4566 22.2649 26.3687 21.4308C26.1368 20.5664 25.3451 19.9717 24.4503 19.9898C23.9527 19.9629 23.4539 20.0151 22.9727 20.1445C23.578 20.32 24.0376 20.8143 24.1687 21.4308C24.2566 22.2649 24.2811 23.1046 24.2421 23.9424C24.2928 24.5381 24.3855 25.1294 24.5193 25.712C24.728 26.4793 24.5499 27.3002 24.0419 27.912C24.0037 27.9479 23.9612 27.975 23.9209 28.0073C23.937 28.0183 23.9495 28.0337 23.9663 28.0447C24.663 28.5335 25.6045 28.4785 26.2397 27.912C26.7485 27.3006 26.9274 26.4796 26.7193 25.712Z" fill="#F9B2A8"/>
<path d="M34.0852 30.3013C32.2188 33.0276 29.484 35.0413 26.3265 36.014C26.2077 34.6958 26.3396 33.3671 26.7152 32.098C27.3963 30.4952 28.9703 29.4554 30.7119 29.458C31.8867 29.4721 33.0419 29.7609 34.0852 30.3013Z" fill="#FFCFC9"/>
<path d="M30.7118 29.458C30.4029 29.4727 30.096 29.5162 29.7951 29.5878C30.5162 29.7469 31.2173 29.9862 31.8851 30.3013C30.4687 32.3639 28.5484 34.03 26.3066 35.1413C26.3066 35.4317 26.3132 35.7224 26.3264 36.0133C29.4839 35.0405 32.2188 33.0269 34.0851 30.3006C33.0418 29.7604 31.8866 29.4719 30.7118 29.458Z" fill="#F9B2A8"/>
<path d="M36.6666 21.9998C36.6709 23.933 36.2894 25.8477 35.5446 27.6318C34.2621 26.9112 33.0341 26.0974 31.8706 25.1971C30.6239 24.1778 29.3333 22.9311 29.3333 21.2078C29.3333 19.6384 30.6459 18.2158 28.7246 16.9398L32.1639 13.9331H34.2466C35.8298 16.3251 36.6717 19.1313 36.6666 21.9998Z" fill="#FFCFC9"/>
<path d="M34.2468 13.9331H32.1642L32.0908 13.9998C34.5138 17.7103 35.1216 22.3201 33.743 26.5318C34.3363 26.9102 34.942 27.271 35.5448 27.6318C37.4131 23.1332 36.9268 18.0007 34.2468 13.9331Z" fill="#F9B2A8"/>
<path d="M24.2002 7.49487V10.9709C18.9789 10.8462 16.7862 9.5042 15.9209 8.65354C17.828 7.77896 19.9022 7.3286 22.0002 7.33354C22.7365 7.33511 23.4716 7.38903 24.2002 7.49487Z" fill="#FFCFC9"/>
<path d="M16.7936 18.942C16.0603 19.8073 14.997 20.328 14.403 21.3327C13.1712 23.284 13.2378 25.7856 14.5716 27.6687L11.8363 30.0667H9.75364C5.73182 23.9676 6.81726 15.8377 12.2983 11.0073C12.8923 11.3447 13.4863 11.6893 14.0803 12.0267C15.4736 12.826 16.801 13.6473 17.3803 15.2387C17.8784 16.4873 17.6533 17.9084 16.7936 18.942Z" fill="#FFCFC9"/>
<path d="M14.4985 11.0074L14.5065 11.0118C16.8892 8.89453 19.9014 7.61863 23.0799 7.38035C19.1453 7.08302 15.2583 8.39326 12.3065 11.0118L12.2985 11.0074C6.82103 15.8397 5.73596 23.9667 9.75381 30.0668H11.9538C7.93596 23.9667 9.02103 15.8397 14.4985 11.0074Z" fill="white"/>
<path d="M2.9334 43.2669H5.1334C3.91837 43.2669 2.9334 42.2819 2.9334 41.0669V32.2669C2.9334 31.0519 3.91837 30.0669 5.1334 30.0669H2.9334C1.71837 30.0669 0.733398 31.0519 0.733398 32.2669V41.0669C0.733398 42.2819 1.71837 43.2669 2.9334 43.2669Z" fill="white"/>
<path d="M0 32.2666H1.46667V38.1333H0V32.2666Z" fill="white"/>
<path d="M21.9997 7.31112C21.99 7.1168 21.9035 6.9343 21.7592 6.80377C21.6149 6.67325 21.4247 6.60541 21.2304 6.61518C19.2977 6.70941 17.4006 7.17135 15.6409 7.97625L15.6175 7.98579C14.2535 8.61258 12.9871 9.4331 11.8577 10.4219L11.8518 10.4263C11.8408 10.4366 11.8283 10.4454 11.8166 10.4557C8.50214 13.3772 6.60213 17.5815 6.59967 21.9998C6.59434 23.8423 6.92614 25.6703 7.57867 27.3935C7.66678 27.645 7.88448 27.829 8.14724 27.8739C8.41 27.9188 8.67644 27.8176 8.84311 27.6096C9.00978 27.4015 9.05043 27.1194 8.94927 26.8728C8.36049 25.3158 8.06127 23.6643 8.06634 21.9998C8.07297 18.1856 9.64475 14.5412 12.4143 11.9187L13.713 12.6623C15.1063 13.4631 16.2122 14.1795 16.6911 15.4922C17.0979 16.4929 16.9218 17.6362 16.2327 18.4681C15.9465 18.7832 15.6337 19.0732 15.2977 19.3349C14.6972 19.7798 14.1807 20.3281 13.7724 20.9541C13.0911 22.0888 12.7519 23.3961 12.7956 24.719C12.8106 25.1131 13.1346 25.4247 13.5289 25.4245H13.5575C13.9621 25.409 14.2775 25.0685 14.2623 24.664C14.2292 23.6245 14.4968 22.5976 15.033 21.7065C15.3611 21.2274 15.768 20.8074 16.2364 20.4642C16.6395 20.1481 17.0137 19.7969 17.3547 19.4148C18.3797 18.1788 18.6532 16.484 18.069 14.9884C17.3709 13.0707 15.7487 12.1394 14.4412 11.3892L13.5869 10.9001C14.285 10.3756 15.03 9.91678 15.8125 9.52945C16.7241 10.2511 18.3359 11.0695 21.1659 11.4699C21.2001 11.4748 21.2347 11.4773 21.2693 11.4772C21.6539 11.4764 21.9725 11.1786 21.9993 10.795C22.0261 10.4113 21.752 10.0721 21.3712 10.0179C19.9939 9.8672 18.6554 9.46791 17.4207 8.83938C18.673 8.40083 19.9821 8.14543 21.3074 8.08112C21.7109 8.05903 22.0205 7.71468 21.9997 7.31112Z" fill="#DF5643"/>
<path d="M41.0668 0H26.4001C24.7801 0 23.4668 1.3133 23.4668 2.93333V11.7333C23.4668 13.3534 24.7801 14.6667 26.4001 14.6667H26.8526L26.406 18.2424C26.3684 18.5442 26.521 18.8379 26.7895 18.9807C27.0581 19.1234 27.3869 19.0856 27.616 18.8855L32.4399 14.6667H41.0668C42.6868 14.6667 44.0001 13.3534 44.0001 11.7333V2.93333C44.0001 1.3133 42.6868 0 41.0668 0ZM42.5335 11.7333C42.5335 12.5434 41.8768 13.2 41.0668 13.2H32.1641C31.9867 13.2 31.8152 13.2644 31.6816 13.3811L28.1 16.5139L28.4109 14.0243C28.437 13.8156 28.3722 13.6058 28.2331 13.4481C28.0939 13.2904 27.8938 13.2001 27.6835 13.2H26.4001C25.5901 13.2 24.9335 12.5434 24.9335 11.7333V2.93333C24.9335 2.12332 25.5901 1.46667 26.4001 1.46667H41.0668C41.8768 1.46667 42.5335 2.12332 42.5335 2.93333V11.7333Z" fill="#DF5643"/>
<path d="M28.6004 5.1333C27.3854 5.1333 26.4004 6.11827 26.4004 7.3333C26.4004 8.54833 27.3854 9.5333 28.6004 9.5333C29.8154 9.5333 30.8004 8.54833 30.8004 7.3333C30.8004 6.11827 29.8154 5.1333 28.6004 5.1333ZM28.6004 8.06663C28.1954 8.06663 27.8671 7.73831 27.8671 7.3333C27.8671 6.92829 28.1954 6.59997 28.6004 6.59997C29.0054 6.59997 29.3337 6.92829 29.3337 7.3333C29.3337 7.73831 29.0054 8.06663 28.6004 8.06663Z" fill="#DF5643"/>
<path d="M33.7332 5.1333C32.5182 5.1333 31.5332 6.11827 31.5332 7.3333C31.5332 8.54833 32.5182 9.5333 33.7332 9.5333C34.9482 9.5333 35.9332 8.54833 35.9332 7.3333C35.9332 6.11827 34.9482 5.1333 33.7332 5.1333ZM33.7332 8.06663C33.3282 8.06663 32.9999 7.73831 32.9999 7.3333C32.9999 6.92829 33.3282 6.59997 33.7332 6.59997C34.1382 6.59997 34.4665 6.92829 34.4665 7.3333C34.4665 7.73831 34.1382 8.06663 33.7332 8.06663Z" fill="#DF5643"/>
<path d="M38.867 5.1333C37.652 5.1333 36.667 6.11827 36.667 7.3333C36.667 8.54833 37.652 9.5333 38.867 9.5333C40.082 9.5333 41.067 8.54833 41.067 7.3333C41.067 6.11827 40.082 5.1333 38.867 5.1333ZM38.867 8.06663C38.462 8.06663 38.1337 7.73831 38.1337 7.3333C38.1337 6.92829 38.462 6.59997 38.867 6.59997C39.272 6.59997 39.6003 6.92829 39.6003 7.3333C39.6003 7.73831 39.272 8.06663 38.867 8.06663Z" fill="#DF5643"/>
<path d="M0.747752 35.9335C0.342743 35.9355 0.0127766 35.6088 0.0107516 35.2038C0.00872651 34.7988 0.335409 34.4688 0.740418 34.4668H0.747752C1.15276 34.4668 1.48109 34.7951 1.48109 35.2001C1.48109 35.6051 1.15276 35.9335 0.747752 35.9335Z" fill="#DF5643"/>
<path d="M2.93333 44.0001H17.6C19.22 44.0001 20.5333 42.6868 20.5333 41.0667V32.2667C20.5333 30.6467 19.22 29.3334 17.6 29.3334H17.1475L17.5941 25.7577C17.6318 25.4558 17.4792 25.1621 17.2106 25.0194C16.9421 24.8766 16.6132 24.9145 16.3841 25.1145L11.5603 29.3334H2.93333C1.3133 29.3334 0 30.6467 0 32.2667C0 32.6717 0.328325 33.0001 0.733333 33.0001C1.13834 33.0001 1.46667 32.6717 1.46667 32.2667C1.46667 31.4567 2.12332 30.8001 2.93333 30.8001H11.836C12.0135 30.8 12.1849 30.7357 12.3185 30.6189L15.9001 27.4861L15.5892 29.9758C15.5631 30.1845 15.6279 30.3943 15.7671 30.552C15.9062 30.7096 16.1064 30.8 16.3167 30.8001H17.6C18.41 30.8001 19.0667 31.4567 19.0667 32.2667V41.0667C19.0667 41.8767 18.41 42.5334 17.6 42.5334H2.93333C2.12332 42.5334 1.46667 41.8767 1.46667 41.0667V38.1334C1.46667 37.7284 1.13834 37.4001 0.733333 37.4001C0.328325 37.4001 0 37.7284 0 38.1334V41.0667C0 42.6868 1.3133 44.0001 2.93333 44.0001Z" fill="#DF5643"/>
<path d="M17.6002 36.6668C17.6002 35.4518 16.6152 34.4668 15.4002 34.4668C14.1852 34.4668 13.2002 35.4518 13.2002 36.6668C13.2002 37.8818 14.1852 38.8668 15.4002 38.8668C16.6152 38.8668 17.6002 37.8818 17.6002 36.6668ZM14.6669 36.6668C14.6669 36.2618 14.9952 35.9335 15.4002 35.9335C15.8052 35.9335 16.1335 36.2618 16.1335 36.6668C16.1335 37.0718 15.8052 37.4001 15.4002 37.4001C14.9952 37.4001 14.6669 37.0718 14.6669 36.6668Z" fill="#DF5643"/>
<path d="M12.4664 36.6668C12.4664 35.4518 11.4814 34.4668 10.2664 34.4668C9.05138 34.4668 8.06641 35.4518 8.06641 36.6668C8.06641 37.8818 9.05138 38.8668 10.2664 38.8668C11.4814 38.8668 12.4664 37.8818 12.4664 36.6668ZM9.53307 36.6668C9.53307 36.2618 9.8614 35.9335 10.2664 35.9335C10.6714 35.9335 10.9997 36.2618 10.9997 36.6668C10.9997 37.0718 10.6714 37.4001 10.2664 37.4001C9.8614 37.4001 9.53307 37.0718 9.53307 36.6668Z" fill="#DF5643"/>
<path d="M7.33359 36.6668C7.33359 35.4518 6.34862 34.4668 5.13359 34.4668C3.91857 34.4668 2.93359 35.4518 2.93359 36.6668C2.93359 37.8818 3.91857 38.8668 5.13359 38.8668C6.34862 38.8668 7.33359 37.8818 7.33359 36.6668ZM4.40026 36.6668C4.40026 36.2618 4.72859 35.9335 5.13359 35.9335C5.5386 35.9335 5.86693 36.2618 5.86693 36.6668C5.86693 37.0718 5.5386 37.4001 5.13359 37.4001C4.72859 37.4001 4.40026 37.0718 4.40026 36.6668Z" fill="#DF5643"/>
<path d="M30.6866 28.7245C28.8862 28.7883 26.7456 29.7813 26.0233 31.8544C25.6594 33.0203 25.5083 34.2422 25.5774 35.4617C24.6369 35.7145 23.6719 35.8655 22.6991 35.9119C22.2941 35.9212 21.9733 36.2571 21.9826 36.6621C21.9919 37.0671 22.3278 37.3879 22.7328 37.3786H22.768C24.0488 37.3216 25.3169 37.0998 26.541 36.7186C29.8544 35.6942 32.7247 33.581 34.6869 30.7214C37.5382 26.5829 38.1856 21.3117 36.4205 16.6062C36.3324 16.3546 36.1147 16.1706 35.8519 16.1257C35.5892 16.0808 35.3227 16.182 35.1561 16.3901C34.9894 16.5981 34.9487 16.8802 35.0499 17.1269C36.1894 20.1569 36.228 23.4909 35.1592 26.5465C34.1733 25.9762 33.2296 25.336 32.3351 24.6311C31.1566 23.666 30.0669 22.5865 30.0669 21.2079C30.0757 20.9162 30.1183 20.6266 30.1938 20.3447C30.2548 20.0899 30.1753 19.8219 29.9851 19.6417C29.795 19.4614 29.5232 19.3963 29.272 19.4708C29.0208 19.5453 28.8285 19.7482 28.7674 20.003C28.664 20.3965 28.6079 20.801 28.6002 21.2079C28.6002 23.2025 30.0192 24.6303 31.406 25.7641C32.4153 26.5583 33.4812 27.2779 34.5952 27.9171C34.3589 28.42 34.092 28.9078 33.7959 29.3779C32.8172 28.9432 31.7575 28.7205 30.6866 28.7245ZM27.0397 34.9843C27.0118 34.0882 27.1357 33.1938 27.4064 32.3391C27.8984 30.926 29.4773 30.2352 30.7386 30.1905C31.4913 30.1815 32.238 30.3255 32.9335 30.6136C31.3947 32.5709 29.3595 34.0801 27.0397 34.9843Z" fill="#DF5643"/>
<path d="M27.0911 21.3013C26.8118 20.0994 25.7371 19.2513 24.5032 19.259C22.8664 19.1446 20.6429 19.9256 19.7468 21.6057C18.7832 23.4163 20.1956 24.8822 20.827 25.5363C21.2087 25.9143 21.564 26.3181 21.8903 26.7449C21.9732 26.8593 22.0539 26.9759 22.1353 27.0932C22.5059 27.6995 22.9899 28.2286 23.5609 28.6515C24.0018 28.9471 24.5202 29.106 25.051 29.1084C25.6819 29.1122 26.2899 28.872 26.7479 28.4381C27.207 28.0018 27.7013 27.1526 27.4424 25.5891C27.4101 25.3904 27.3691 25.1975 27.3324 25.0025C27.2486 24.6452 27.1963 24.2813 27.1762 23.9149C27.1681 23.6495 27.1762 23.3833 27.1799 23.1163C27.2111 22.5099 27.1814 21.9018 27.0911 21.3013ZM25.7403 27.3792C25.351 27.7072 24.7887 27.7292 24.3749 27.4327C23.9624 27.1077 23.6127 26.7101 23.3431 26.2594C23.2558 26.1333 23.1693 26.0079 23.0805 25.8861C22.7049 25.3936 22.2949 24.9283 21.8537 24.4935C20.9113 23.5153 20.6987 22.9411 21.0397 22.2987C21.7517 21.2796 22.9267 20.6846 24.1695 20.7139C24.2429 20.7139 24.3228 20.7139 24.3976 20.722C24.9109 20.7587 25.5453 21.0007 25.6443 21.5602C25.7159 22.0682 25.7377 22.5821 25.7095 23.0943C25.7037 23.384 25.6978 23.6744 25.7059 23.9619C25.7271 24.4129 25.7892 24.8611 25.8914 25.3009C25.9259 25.4747 25.9647 25.6507 25.9919 25.8311C26.1456 26.3587 26.0532 26.9275 25.7403 27.3792Z" fill="#DF5643"/>
</g>
<defs>
<clipPath id="clip0_157_7162">
<rect width="44" height="44" fill="white"/>
</clipPath>
</defs>
</svg>
