<svg width="32" height="32" viewBox="0 0 32 32" fill="none" xmlns="http://www.w3.org/2000/svg">
<g clip-path="url(#clip0_260_2348)">
<path fill-rule="evenodd" clip-rule="evenodd" d="M16 0C12.8355 0 9.74208 0.938453 7.11089 2.69656C4.47971 4.45466 2.42892 6.95351 1.21792 9.87713C0.00691405 12.8007 -0.309914 16.0178 0.307449 19.1214C0.924813 22.2251 2.44867 25.0761 4.68631 27.3137C6.92395 29.5514 9.77487 31.0753 12.8786 31.6926C15.9823 32.31 19.1993 31.9931 22.1229 30.7821C25.0465 29.5711 27.5454 27.5204 29.3035 24.8892C31.0616 22.258 32 19.1645 32 16C31.9952 11.758 30.3079 7.69112 27.3084 4.69158C24.3088 1.69204 20.242 0.00481224 16 0ZM29.8182 15.2727H24.7273C24.5091 10.4945 22.4793 5.60726 19.0836 2.53817C22.0122 3.20897 24.6431 4.81401 26.5795 7.11115C28.5159 9.40829 29.6526 12.2729 29.8182 15.2727ZM14.5455 2.90909V15.2727H9.45456C9.66256 10.7127 11.4596 5.45455 14.5455 2.90909ZM14.5455 17.4545V29.0909C11.6749 26.56 9.86837 21.5273 9.45456 17.4545H14.5455ZM16.7273 29.0909V17.4545H22.5317C22.0553 21.5927 19.9215 26.5527 16.7273 29.0909ZM16.7273 15.2727V2.90909C20.1622 5.44727 22.3055 10.6545 22.5455 15.2727H16.7273ZM12.4742 2.65447C9.28581 5.67266 7.47199 10.4364 7.27345 15.2727H2.21818C2.37106 12.3544 3.44662 9.56 5.28983 7.29226C7.13303 5.02452 9.64867 3.4005 12.4742 2.65447ZM2.25964 17.4545H7.26399C7.66908 21.9055 9.27856 26.1236 12.3636 29.0909C9.66781 28.4641 7.23906 27.0012 5.42442 24.9114C3.60977 22.8215 2.50208 20.2117 2.25964 17.4545ZM18.9142 29.5055C22.2323 26.3141 24.295 22.038 24.7273 17.4545H29.8182C29.4931 20.3526 28.2655 23.0753 26.3088 25.2377C24.3522 27.4002 21.7655 28.8931 18.9142 29.5055Z" fill="white"/>
</g>
<defs>
<clipPath id="clip0_260_2348">
<rect width="32" height="32" fill="white"/>
</clipPath>
</defs>
</svg>
