<svg width="496" height="86" viewBox="0 0 496 86" fill="none" xmlns="http://www.w3.org/2000/svg">
<path d="M217.013 0L181.994 85.9908H160.374L125.291 0H149.082L171.184 57.7542L193.222 0H217.013Z" fill="white"/>
<path d="M273.086 0V19.5463H241.983V29.4991H273.021V48.7505H241.983V66.2049H273.086V85.9908H220.363V0H273.086Z" fill="white"/>
<path d="M121.469 0V85.9908H68.7461V66.2049H99.8489V48.7505H68.811V29.4991H99.8489V19.5463H68.7461V0H121.469Z" fill="white"/>
<path d="M409.726 0V85.9908H357.004V66.2049H388.107V48.7505H357.069V29.4991H388.107V19.5463H357.004V0H409.726Z" fill="white"/>
<path d="M472.971 0L460.296 50.5568L445.803 0H427.811L413.262 50.5568V85.9908H421.353L436.812 37.784L452.261 85.9908H472.489L495.5 0H472.971Z" fill="white"/>
<path d="M43.3406 50.3172C47.2006 48.7598 50.8286 46.3637 53.3617 43.2396C56.9248 38.7424 59.0404 33.0471 59.0404 26.5686C59.0404 16.4959 54.3268 8.63502 47.1449 4.1378C42.7931 1.38234 37.5413 0 29.9326 0H0.5V19.7306H28.1789C30.777 19.7306 32.0389 19.9149 33.1338 20.3941C35.7319 21.4724 37.6619 23.5735 37.6619 26.5686C37.6619 29.5637 35.6113 31.7293 33.1338 32.743C31.9832 33.2222 30.777 33.4066 28.1789 33.4066H0.5V53.0174H20.7001L39.7775 86H64.8954L43.3406 50.3172Z" fill="#FF3DB2"/>
<path d="M300.282 0.0546875V46.9805L339.466 0.0546875H351.594V85.5755H330.104V37.3318L290.975 85.5755H278.782V0.0546875H300.282Z" fill="#FF3DB2"/>
</svg>
