<svg width="710" height="211" viewBox="0 0 710 211" fill="none" xmlns="http://www.w3.org/2000/svg">
<circle cx="96.5" cy="107.5" r="86" stroke="#FF3DB2" stroke-width="17"/>
<path d="M179.006 118.484C178.77 114.944 177.944 111.581 176.528 108.395C175.23 105.209 173.401 102.495 171.041 100.253C168.799 97.893 166.085 96.064 162.899 94.766C159.831 93.35 156.409 92.642 152.633 92.642C148.739 92.642 145.199 93.35 142.013 94.766C138.945 96.064 136.29 97.893 134.048 100.253C131.806 102.613 130.036 105.386 128.738 108.572C127.44 111.64 126.673 114.944 126.437 118.484H179.006ZM193.52 143.972C191.514 154.238 187.089 161.967 180.245 167.159C173.401 172.351 164.787 174.947 154.403 174.947C147.087 174.947 140.715 173.767 135.287 171.407C129.977 169.047 125.493 165.743 121.835 161.495C118.177 157.247 115.404 152.173 113.516 146.273C111.746 140.373 110.743 133.942 110.507 126.98C110.507 120.018 111.569 113.646 113.693 107.864C115.817 102.082 118.767 97.067 122.543 92.819C126.437 88.571 130.98 85.267 136.172 82.907C141.482 80.547 147.264 79.367 153.518 79.367C161.66 79.367 168.386 81.078 173.696 84.5C179.124 87.804 183.431 92.052 186.617 97.244C189.921 102.436 192.163 108.1 193.343 114.236C194.641 120.372 195.172 126.213 194.936 131.759H126.437C126.319 135.771 126.791 139.606 127.853 143.264C128.915 146.804 130.626 149.99 132.986 152.822C135.346 155.536 138.355 157.719 142.013 159.371C145.671 161.023 149.978 161.849 154.934 161.849C161.306 161.849 166.498 160.374 170.51 157.424C174.64 154.474 177.354 149.99 178.652 143.972H193.52ZM245.578 173H229.471L195.487 81.491H212.302L237.967 157.778H238.321L263.278 81.491H279.031L245.578 173ZM350.185 118.484C349.949 114.944 349.123 111.581 347.707 108.395C346.409 105.209 344.58 102.495 342.22 100.253C339.978 97.893 337.264 96.064 334.078 94.766C331.01 93.35 327.588 92.642 323.812 92.642C319.918 92.642 316.378 93.35 313.192 94.766C310.124 96.064 307.469 97.893 305.227 100.253C302.985 102.613 301.215 105.386 299.917 108.572C298.619 111.64 297.852 114.944 297.616 118.484H350.185ZM364.699 143.972C362.693 154.238 358.268 161.967 351.424 167.159C344.58 172.351 335.966 174.947 325.582 174.947C318.266 174.947 311.894 173.767 306.466 171.407C301.156 169.047 296.672 165.743 293.014 161.495C289.356 157.247 286.583 152.173 284.695 146.273C282.925 140.373 281.922 133.942 281.686 126.98C281.686 120.018 282.748 113.646 284.872 107.864C286.996 102.082 289.946 97.067 293.722 92.819C297.616 88.571 302.159 85.267 307.351 82.907C312.661 80.547 318.443 79.367 324.697 79.367C332.839 79.367 339.565 81.078 344.875 84.5C350.303 87.804 354.61 92.052 357.796 97.244C361.1 102.436 363.342 108.1 364.522 114.236C365.82 120.372 366.351 126.213 366.115 131.759H297.616C297.498 135.771 297.97 139.606 299.032 143.264C300.094 146.804 301.805 149.99 304.165 152.822C306.525 155.536 309.534 157.719 313.192 159.371C316.85 161.023 321.157 161.849 326.113 161.849C332.485 161.849 337.677 160.374 341.689 157.424C345.819 154.474 348.533 149.99 349.831 143.972H364.699ZM377.816 46.622H395.693L462.245 149.105H462.599V46.622H478.529V173H460.121L394.1 71.579H393.746V173H377.816V46.622ZM560.6 118.484C560.364 114.944 559.538 111.581 558.122 108.395C556.824 105.209 554.995 102.495 552.635 100.253C550.393 97.893 547.679 96.064 544.493 94.766C541.425 93.35 538.003 92.642 534.227 92.642C530.333 92.642 526.793 93.35 523.607 94.766C520.539 96.064 517.884 97.893 515.642 100.253C513.4 102.613 511.63 105.386 510.332 108.572C509.034 111.64 508.267 114.944 508.031 118.484H560.6ZM575.114 143.972C573.108 154.238 568.683 161.967 561.839 167.159C554.995 172.351 546.381 174.947 535.997 174.947C528.681 174.947 522.309 173.767 516.881 171.407C511.571 169.047 507.087 165.743 503.429 161.495C499.771 157.247 496.998 152.173 495.11 146.273C493.34 140.373 492.337 133.942 492.101 126.98C492.101 120.018 493.163 113.646 495.287 107.864C497.411 102.082 500.361 97.067 504.137 92.819C508.031 88.571 512.574 85.267 517.766 82.907C523.076 80.547 528.858 79.367 535.112 79.367C543.254 79.367 549.98 81.078 555.29 84.5C560.718 87.804 565.025 92.052 568.211 97.244C571.515 102.436 573.757 108.1 574.937 114.236C576.235 120.372 576.766 126.213 576.53 131.759H508.031C507.913 135.771 508.385 139.606 509.447 143.264C510.509 146.804 512.22 149.99 514.58 152.822C516.94 155.536 519.949 157.719 523.607 159.371C527.265 161.023 531.572 161.849 536.528 161.849C542.9 161.849 548.092 160.374 552.104 157.424C556.234 154.474 558.948 149.99 560.246 143.972H575.114ZM676.555 173H660.625L642.04 100.253H641.686L623.278 173H606.994L577.612 81.491H594.25L614.959 156.362H615.313L633.721 81.491H650.182L669.298 156.362H669.652L690.184 81.491H705.76L676.555 173Z" fill="white"/>
<ellipse cx="127.218" cy="134.948" rx="15.0292" ry="41.8057" transform="rotate(-19.6592 127.218 134.948)" fill="url(#paint0_radial_35_402)" fill-opacity="0.6"/>
<path d="M31.452 45.622H91.809C105.733 45.622 116.176 48.631 123.138 54.649C130.1 60.667 133.581 69.045 133.581 79.783C133.581 85.801 132.696 90.816 130.926 94.828C129.156 98.722 127.091 101.908 124.731 104.386C122.371 106.746 120.011 108.457 117.651 109.519C115.409 110.581 113.757 111.289 112.695 111.643V111.997C114.583 112.233 116.589 112.823 118.713 113.767C120.955 114.711 123.02 116.245 124.908 118.369C126.796 120.375 128.33 123.03 129.51 126.334C130.808 129.638 131.457 133.768 131.457 138.724C131.457 146.158 131.988 152.943 133.05 159.079C134.23 165.097 136 169.404 138.36 172H114.642C112.99 169.286 111.987 166.277 111.633 162.973C111.397 159.669 111.279 156.483 111.279 153.415C111.279 147.633 110.925 142.677 110.217 138.547C109.509 134.299 108.211 130.818 106.323 128.104C104.435 125.272 101.839 123.207 98.535 121.909C95.349 120.611 91.219 119.962 86.145 119.962H53.577V172H31.452V45.622ZM53.577 103.147H89.862C96.942 103.147 102.311 101.495 105.969 98.191C109.627 94.769 111.456 89.695 111.456 82.969C111.456 78.957 110.866 75.712 109.686 73.234C108.506 70.638 106.854 68.632 104.73 67.216C102.724 65.8 100.364 64.856 97.65 64.384C95.054 63.912 92.34 63.676 89.508 63.676H53.577V103.147Z" fill="#FF3DB2"/>
<path d="M126 184.5C121.6 182.1 115.5 173.5 114.2 170L137 171.5C138.5 173 140 173.5 143.5 175L126 184.5Z" fill="#FF3DB2" stroke="#FF3DB2"/>
<defs>
<radialGradient id="paint0_radial_35_402" cx="0" cy="0" r="1" gradientUnits="userSpaceOnUse" gradientTransform="translate(127.218 134.948) rotate(90) scale(41.8057 15.0292)">
<stop stop-color="#010101"/>
<stop offset="1" stop-color="#010101" stop-opacity="0"/>
</radialGradient>
</defs>
</svg>
