<svg width="81" height="65" fill="none" xmlns="http://www.w3.org/2000/svg"><path d="M2.268 62.18v-8.406c0-5.494 3.988-9.428 9.56-9.444h1.344V34.183c0-.803.447-1.288 1.125-1.303.678-.016 1.156.463 1.213 1.235v10.157h2.64v-21.2h-2.597c-.015.231-.046.475-.046.722v4.323c0 1.128-.366 1.659-1.163 1.677-.797.019-1.188-.512-1.19-1.627v-4.324c0-.25-.026-.5-.041-.812-1.22-.046-2.657.235-3.232-1.05-.45-1.007-.431-2.22-.625-3.421-1.653-.618-2.028-1.17-2.028-3.089v-4.246c0-1.658.996-2.616 2.687-2.616h1.625c-.209-1.207-.406-2.316-.596-3.428-.313-1.837.937-3.316 2.812-3.353h1.847c.188-1.257.538-1.711 1.27-1.702.73.01 1.106.503 1.206 1.702h1.828c1.922.024 3.153 1.442 2.863 3.307-.175 1.115-.375 2.224-.588 3.474h1.757c1.531.028 2.537 1.01 2.553 2.52.016 1.51 0 3.088 0 4.633 0 1.615-.556 2.34-2.207 2.825v1.804c0 1.726-.906 2.622-2.637 2.634h-1.044v21.151c1.444.71 2.872 1.273 4.144 2.075a7.637 7.637 0 013.125 4.132c.213.618.52.75 1.116.735 1.613-.037 3.229 0 4.844 0a5.19 5.19 0 013.51 1.273c.848.729 1.682 1.47 2.5 2.223.641.587.71 1.236.229 1.754-.482.52-1.16.513-1.797-.04a123.45 123.45 0 01-2.326-2.066 3.163 3.163 0 00-2.206-.821H18.74a3.05 3.05 0 00-2.256.886 6772.5 6772.5 0 00-7.539 7.622 1.397 1.397 0 00-.146.24h36.035c-.413-.376-.738-.676-1.07-.97-.33-.293-.709-.617-1.04-.926-.569-.559-.6-1.207-.113-1.707.488-.5 1.1-.494 1.676 0 .95.763 1.86 1.576 2.722 2.436.937.982 1.956 1.263 3.3 1.257 9.56-.059 19.12-.03 28.681-.03.208-.013.417-.013.625 0 .289.018.56.142.761.348a1.145 1.145 0 01.051 1.546 1.17 1.17 0 01-.737.397 4.081 4.081 0 01-.778.024H1.861a1.176 1.176 0 01-.805-.33 1.149 1.149 0 01-.05-1.598c.202-.221.483-.357.783-.379.129-.046.26-.046.479-.077zm2.378.25c.51-.308.938-.438 1.197-.71 2.89-2.89 5.779-5.787 8.626-8.718a5.887 5.887 0 012.077-1.461 5.95 5.95 0 012.508-.457c1.95.044 3.903 0 5.857 0 .218 0 .437-.03.759-.052-1.138-2.424-2.894-4.061-5.504-4.243a77.58 77.58 0 00-9.46-.019 6.504 6.504 0 00-4.186 1.88 6.358 6.358 0 00-1.865 4.154c-.153 3.092-.025 6.208-.025 9.626h.016zm19.48-51.461H9.637v5.191h14.49v-5.191zm-4.357-2.4c.229-1.275.482-2.532.65-3.801a.808.808 0 00-.528-.618c-2.03-.043-4.058-.043-6.088 0-.19 0-.556.386-.534.55.181 1.29.434 2.572.665 3.857l5.835.012zm2.116 10.034H11.847v2.032h10.038v-2.032z" fill="#fff"/><path d="M62.275 35.539c.108.452.185.911.231 1.374.01.495-.144.98-.44 1.38a2.283 2.283 0 01-1.194.837 118.79 118.79 0 01-5.179 1.452c-1.35.343-2.5-.334-2.931-1.646l-.235-.704c-1.338.376-2.66.667-3.92 1.12-3.39 1.236-6.897 1.418-10.453 1.36-2.163-.031-4.326.027-6.489.036-1.656 0-2.897-.901-3.16-2.303-.287-1.544.513-2.823 2.139-3.397.434-.155.872-.31 1.393-.482-.625-.97-1.165-1.853-1.728-2.745-.866-1.375-1.744-2.743-2.6-4.126-.666-1.075-.313-1.952.878-2.329.372-.117.753-.204 1.122-.324 1.772-.58 3.294-.222 4.688 1.038 1.875 1.704 3.838 3.329 5.738 5.012a1.138 1.138 0 001.316.244c3.453-1.22 6.92-2.397 10.382-3.586.147-.05.294-.105.444-.151.763-.225 1.353.022 1.597.664s-.056 1.235-.813 1.51c-1.906.68-3.822 1.337-5.738 1.998l-15.689 5.404c-.05.019-.115 0-.147.047-.222.238-.434.485-.65.726.282.16.563.453.847.453 2.554.02 5.113-.163 7.657 0 4.15.26 7.93-1.18 11.817-2.183a1.75 1.75 0 00.727-.348c.21-.17.378-.387.489-.634a2.901 2.901 0 011.478-1.235c1.616-.562 3.288-.964 4.938-1.43a2.561 2.561 0 012.347.479 1.066 1.066 0 00.813.142c4.56-1.236 9.117-2.497 13.67-3.783 1.044-.29 1.45-.84 1.25-1.622-.197-.728-1.322-1.321-2.131-1.108-1.082.284-2.157.583-3.238.868-.913.237-1.525 0-1.725-.695-.219-.732.153-1.251 1.103-1.544.162-.05.313-.127.6-.241a9.798 9.798 0 00-5.582.308c-2.206.77-4.42 1.526-6.629 2.289-.172.058-.34.127-.515.17-.287.095-.6.076-.873-.052a1.157 1.157 0 01-.59-.637 1.096 1.096 0 01.273-1.232c.11-.102.241-.18.383-.232 3.047-1.028 6.08-2.128 9.176-2.986 2.097-.578 4.248-.25 6.28.556 1.25.497 2.5 1.04 3.715 1.606a3.553 3.553 0 011.63 1.394c.386.62.567 1.342.52 2.068a3.407 3.407 0 01-.767 2.033c-.472.578-1.12.99-1.849 1.172-4.519 1.294-9.063 2.542-13.582 3.808l-.794.207zm-32.003-8.172l4.063 6.418 3.775-1.31a4.499 4.499 0 00-.313-.336c-1.74-1.507-3.49-3.002-5.219-4.522-.697-.61-1.428-.657-2.303-.25h-.003zm24.155 8.842l.625 2.162 5.117-1.452c-.222-.756-.416-1.411-.626-2.143l-5.116 1.433zM19.67 60.977a4.81 4.81 0 01-.7 0 1.102 1.102 0 01-.723-.352 1.077 1.077 0 01-.284-.745 1.036 1.036 0 01.225-.771 1.057 1.057 0 01.712-.387 4.866 4.866 0 011.626 0 1.062 1.062 0 01.696.406 1.036 1.036 0 01.2.774 1.08 1.08 0 01-.306.736 1.106 1.106 0 01-.731.332 5.276 5.276 0 01-.7 0l-.016.007zm8.876-.001c-.234.017-.47.017-.703 0a1.167 1.167 0 01-.725-.371 1.141 1.141 0 01-.024-1.51c.18-.213.433-.353.711-.395a5.91 5.91 0 011.322-.022c.31.005.606.132.821.352a1.148 1.148 0 01-.026 1.633c-.223.213-.522.33-.832.325h-.544v-.012zm4.388.05c-.331-.05-.769 0-.965-.176a2.079 2.079 0 01-.663-1.165c-.053-.574.419-.926.988-1a6.403 6.403 0 011.087-.019c.822.025 1.36.507 1.344 1.19-.016.682-.531 1.099-1.319 1.126h-.466l-.006.044zm-8.789-5.982c.235 0 .47 0 .7.038a1.062 1.062 0 01.979 1.028 1.002 1.002 0 01-.484 1.049c-.12.07-.251.115-.388.134a5.582 5.582 0 01-1.697 0c-.625-.1-.907-.569-.863-1.186.003-.261.106-.511.287-.701a1.06 1.06 0 01.691-.325c.266-.037.528-.024.775-.037zm8.867-.003c.232 0 .47 0 .7.037.278.02.536.146.722.35.186.205.284.472.275.746.03.262-.044.525-.207.733-.163.209-.4.347-.665.385a5.888 5.888 0 01-1.562.044 1.16 1.16 0 01-.742-.395 1.134 1.134 0 01.066-1.55c.206-.202.482-.32.773-.331.206-.016.415 0 .625 0l.015-.019zm-18.136 5.936c-.208.01-.417.01-.625 0a1.106 1.106 0 01-.773-.326 1.08 1.08 0 01-.315-.77 1.096 1.096 0 01.272-.822 1.117 1.117 0 01.788-.377 6.79 6.79 0 011.325 0 1.16 1.16 0 01.786.39 1.13 1.13 0 01.276.824c-.01.287-.13.56-.337.761a1.141 1.141 0 01-.775.323c-.203.015-.416-.003-.622-.003zm9.226-.001a3.79 3.79 0 01-.7 0 1.099 1.099 0 01-.72-.354 1.073 1.073 0 01-.28-.745 1.033 1.033 0 01.226-.77 1.053 1.053 0 01.712-.385 4.853 4.853 0 011.562 0 1.087 1.087 0 01.74.4 1.06 1.06 0 01.223.804 1.081 1.081 0 01-.308.735 1.106 1.106 0 01-.733.33 5.276 5.276 0 01-.7 0l-.022-.015zm13.826.001h-.625a1.157 1.157 0 01-.8-.35 1.129 1.129 0 01-.319-.805 1.1 1.1 0 01.295-.78c.197-.212.47-.34.761-.357a6.42 6.42 0 011.17-.015c.771.037 1.25.519 1.224 1.207-.025.689-.49 1.078-1.25 1.109h-.469l.013-.01zm-18.298-3.58a6.41 6.41 0 01-.772-.086 1.084 1.084 0 01-.688-.413 1.06 1.06 0 01-.21-.767 1.037 1.037 0 01.297-.74c.194-.199.459-.313.738-.32a9.313 9.313 0 011.25 0 1.17 1.17 0 01.816.312c.22.205.352.486.366.785.006.298-.104.587-.306.809a1.193 1.193 0 01-.782.383 5.309 5.309 0 01-.7 0l-.01.037zm8.988-2.353c.234 0 .468.015.7.044.249.024.48.137.652.316.172.179.273.413.286.66.062.577-.166 1.087-.741 1.192a5.543 5.543 0 01-1.916 0 1 1 0 01-.637-.426.975.975 0 01-.138-.748c.014-.261.125-.508.312-.693a1.08 1.08 0 01.7-.31c.26-.014.52-.014.779 0l.003-.035z" fill="#fff"/><path d="M54.633 32.154a1.12 1.12 0 01-.325.838 1.148 1.148 0 01-.84.342 1.186 1.186 0 01-.81-.327 1.159 1.159 0 01-.36-.788c0-.312.124-.612.345-.835a1.21 1.21 0 01.837-.36c.303.006.59.127.805.337.215.21.34.495.348.793zm2.538-2.294a1.17 1.17 0 01.845.332 1.145 1.145 0 01.343.832 1.15 1.15 0 01-.2.64 1.185 1.185 0 01-1.798.176 1.155 1.155 0 01-.261-1.256 1.165 1.165 0 011.071-.724zm3.74-1.177c.303.001.593.117.81.324.218.207.346.49.36.788 0 .311-.124.61-.344.833-.22.223-.52.351-.835.359a1.18 1.18 0 01-.831-.361 1.154 1.154 0 01-.32-.84 1.115 1.115 0 01.35-.79 1.139 1.139 0 01.81-.313zm-10 4.695a1.154 1.154 0 01-.33.796c-.21.214-.494.34-.795.352-.315 0-.617-.123-.84-.343a1.166 1.166 0 01-.347-.83 1.11 1.11 0 01.358-.824 1.138 1.138 0 01.854-.3 1.132 1.132 0 01.795.345 1.104 1.104 0 01.305.804zm-3.694 1.198a1.14 1.14 0 01-.39.813 1.17 1.17 0 01-.86.29 1.124 1.124 0 01-.791-.36 1.096 1.096 0 01-.288-.811 1.145 1.145 0 011.144-1.121c.316.004.618.13.84.354.221.222.345.522.345.835zm17.395-4.79a1.14 1.14 0 01-.835-.346 1.113 1.113 0 01-.309-.84 1.132 1.132 0 01.357-.82 1.16 1.16 0 01.845-.316 1.169 1.169 0 01.817.38 1.138 1.138 0 01.29.846 1.113 1.113 0 01-.352.787 1.14 1.14 0 01-.813.31zM17.007 12.433a1.134 1.134 0 01.796.349 1.108 1.108 0 01.304.806 1.145 1.145 0 01-.366.824 1.173 1.173 0 01-.853.316 1.165 1.165 0 01-.79-.367 1.138 1.138 0 01-.307-.807 1.1 1.1 0 01.358-.825 1.129 1.129 0 01.858-.296zm5.111 1.158a1.13 1.13 0 01-.335.796 1.158 1.158 0 01-.803.335 1.208 1.208 0 01-.84-.345 1.179 1.179 0 01-.354-.829 1.146 1.146 0 01.38-.813 1.175 1.175 0 01.855-.302 1.137 1.137 0 01.794.352 1.111 1.111 0 01.303.806zm-9.341-1.158c.301.003.59.124.801.336a1.124 1.124 0 01.235 1.244 1.166 1.166 0 01-.65.626c-.145.057-.3.085-.455.082a1.165 1.165 0 01-.827-.38 1.136 1.136 0 01-.289-.855 1.092 1.092 0 01.368-.772 1.118 1.118 0 01.816-.281z" fill="#fff"/></svg>