<svg width="54" height="54" fill="none" xmlns="http://www.w3.org/2000/svg"><path d="M51.39 27.129H40.343v-1.947c0-.728-.593-1.321-1.322-1.321h-8.926c-.729 0-1.321.593-1.321 1.321v1.947h-1.447v-7.246a2.58 2.58 0 00-2.576-2.577h-3.149V3.278c0-.852-.692-1.544-1.544-1.544h-1.204v-.351c0-.67-.545-1.215-1.214-1.215h-6.041c-.67 0-1.215.545-1.215 1.215v.35H9.181c-.852 0-1.544.693-1.544 1.545v14.028H3.545A2.58 2.58 0 00.97 19.883V27.9a.78.78 0 101.56 0v-8.017c0-.56.456-1.017 1.016-1.017h21.206c.56 0 1.016.456 1.016 1.017v27.239c0 .56-.456 1.016-1.016 1.016H3.545c-.56 0-1.016-.456-1.016-1.016V31.02a.78.78 0 10-1.56 0v16.102a2.58 2.58 0 002.576 2.576h1.586v2.817a.78.78 0 101.56 0v-2.817h8.774v1.338a2.264 2.264 0 002.261 2.261H51.39a2.264 2.264 0 002.262-2.261V29.39a2.264 2.264 0 00-2.262-2.261zm-39.446-25.4h5.35v1.57h-5.35v-1.57zM9.197 3.292h1.187v.351c0 .67.545 1.215 1.215 1.215h6.04c.67 0 1.215-.545 1.215-1.215v-.35h1.188v14.012H9.197V3.293zM45.76 28.69v22.938H44.2V28.689h1.56zM27.327 47.122V28.689h7.231a.78.78 0 100-1.56h-4.224v-1.708h8.448v1.708h-1.104a.78.78 0 100 1.56h4.962v23.048H23.165v-2.039h1.586a2.579 2.579 0 002.576-2.576zm-10.303 3.914v-1.338h4.581v2.04h-3.879a.702.702 0 01-.701-.702zm35.068 0a.702.702 0 01-.702.701h-4.07V28.69h4.07c.387 0 .702.315.702.701v21.646z" fill="#fff"/><path d="M30.893 45.932h5.763a1.75 1.75 0 001.75-1.75v-2.269a1.75 1.75 0 00-1.75-1.748h-5.763a1.75 1.75 0 00-1.748 1.748v2.27a1.75 1.75 0 001.748 1.749zm-.189-4.019c0-.104.085-.188.19-.188h5.762c.105 0 .19.084.19.188v2.27a.189.189 0 01-.19.189h-5.763a.189.189 0 01-.189-.19v-2.269zm-23.12 2.202V22.89a.78.78 0 00-1.56 0v21.225a.78.78 0 101.56 0zm4.896 0V22.89a.78.78 0 10-1.56 0v21.225a.78.78 0 101.56 0zm4.896 0V22.89a.78.78 0 10-1.56 0v21.225a.78.78 0 101.56 0zm4.894 0V22.89a.78.78 0 10-1.56 0v21.225a.78.78 0 101.56 0z" fill="#fff"/></svg>