<svg width="61" height="33" fill="none" xmlns="http://www.w3.org/2000/svg"><path d="M48.558 10.03c-1.82 0-3.536.424-5.067 1.154l-5.653-8.997h6.22c.583 0 1.059-.459 1.059-1.023 0-.565-.476-1.023-1.06-1.023h-7.94c-.584 0-1.059.458-1.059 1.023 0 .043.021.08.025.123a.968.968 0 00.132.664l1.915 3.051H20.41c-.04 0-.072.025-.114.029l-1.783-2.842h3.575c.582 0 1.059-.459 1.059-1.023 0-.565-.477-1.023-1.06-1.023h-9c-.581 0-1.058.458-1.058 1.023 0 .564.476 1.023 1.059 1.023h2.95l2.778 4.425-2.69 4.368a11.723 11.723 0 00-4.628-.951C5.173 10.03.026 15 .026 21.113c0 6.111 5.147 11.082 11.471 11.082 5.874 0 10.726-4.296 11.389-9.804h6.438c.192 0 .379-.054.535-.146.004-.002.01 0 .015-.004a1.04 1.04 0 00.332-.323c.007-.012.022-.016.03-.028l8.656-14.075 2.794 4.445c-2.786 2.024-4.602 5.234-4.602 8.853 0 6.111 5.145 11.082 11.471 11.082 6.327 0 11.471-4.97 11.471-11.082 0-6.112-5.144-11.082-11.468-11.082zM20.06 8.592l7.382 11.751H22.93c-.247-3.47-2.15-6.505-4.95-8.367l2.081-3.384zm.711 11.753h-7.939l4.056-6.594c2.184 1.496 3.645 3.875 3.883 6.594zM11.5 30.147c-5.159 0-9.354-4.053-9.354-9.036s4.195-9.037 9.354-9.037c1.253 0 2.443.248 3.538.681l-4.979 8.088a.986.986 0 00-.008 1.026c.186.32.537.518.921.518h9.748c-.65 4.378-4.512 7.76-9.22 7.76zM29.317 19.38l-7.75-12.335h15.335L29.317 19.38zm19.24 10.766c-5.157 0-9.353-4.053-9.353-9.036 0-2.878 1.425-5.415 3.603-7.073l4.936 7.858c.2.317.548.493.906.493.188 0 .38-.048.55-.15.498-.291.66-.92.356-1.404l-4.953-7.886a9.531 9.531 0 013.956-.877c5.157 0 9.353 4.052 9.353 9.037 0 4.985-4.196 9.038-9.353 9.038z" fill="#fff"/></svg>