<svg width="18" height="17" fill="none" xmlns="http://www.w3.org/2000/svg"><path d="M17.11 2.148L15.103.234c-.076-.073-.155-.149-.303-.149H6.761a.426.426 0 00-.426.426V1.82l-2.833.486a.42.42 0 00-.34.484l.143.838c-.92.31-1.866.63-2.779.957a.422.422 0 00-.252.536l1.816 5.048a.25.25 0 00.469-.17L.769 5.027c.86-.308 1.751-.61 2.622-.902l.855 4.989.985 5.745a.422.422 0 00.484.341l2.667-.457 2.084-.358-3.135 1.127-2.471.888-1.92-5.338a.249.249 0 10-.468.168l1.947 5.415a.42.42 0 00.535.25L7.5 15.98l5.78-2.078 1.105-.19h2.44a.427.427 0 00.425-.426V2.429c0-.15-.08-.225-.14-.28zm-.66.06h-1.276c-.06 0-.2 0-.236-.034-.008-.009-.017-.036-.017-.086L14.918.746l1.532 1.461zm.302 11.006H6.833V8.361a.249.249 0 00-.498 0v4.925c0 .235.191.427.426.427h4.676l-3.14.538-2.589.444-.97-5.667-1.072-6.246 2.67-.458v4.882a.249.249 0 10.497 0V.583h7.586l.004 1.505c0 .183.055.33.165.439.168.167.405.179.553.179h1.611v10.508z" fill="#E96B67"/><path d="M8.033 3.952c0 .138.112.25.25.25h7.12a.249.249 0 000-.499h-7.12a.249.249 0 00-.25.25zm7.369 1.52h-7.12a.249.249 0 100 .498h7.12a.249.249 0 000-.498zm0 1.77h-7.12a.249.249 0 000 .498h7.12a.249.249 0 000-.498zm0 1.768h-7.12a.249.249 0 000 .498h7.12a.249.249 0 000-.498zm0 1.77h-7.12a.249.249 0 000 .498h7.12a.249.249 0 000-.498z" fill="#E96B67"/></svg>