<svg width="17" height="17" fill="none" xmlns="http://www.w3.org/2000/svg"><path d="M16.508 2.474a.603.603 0 00-.852 0L8.42 9.688 5.81 6.853a.603.603 0 00-.887.817l3.035 3.296c.111.12.267.19.431.194h.013c.16 0 .313-.063.426-.175l7.678-7.659a.603.603 0 00.001-.853z" fill="#EB5B31"/><path d="M16.363 7.684a.603.603 0 00-.603.603 6.801 6.801 0 01-6.794 6.794 6.802 6.802 0 01-6.794-6.794 6.802 6.802 0 016.794-6.794.603.603 0 100-1.206c-4.411 0-8 3.589-8 8s3.589 8 8 8c4.41 0 8-3.589 8-8a.603.603 0 00-.603-.603z" fill="#EB5B31"/></svg>