<svg width="22" height="15" fill="none" xmlns="http://www.w3.org/2000/svg"><path d="M20.912 3.938l-5.325 3.62c.187.2.351.386.525.563a3691.65 3691.65 0 003.77 3.804c.066.06.127.126.181.197a.444.444 0 01-.03.56.403.403 0 01-.536.057 1.813 1.813 0 01-.253-.237l-4.364-4.4c-.426.194-.826.42-1.254.56-1.412.465-2.75.25-3.99-.586C7.45 6.601 5.282 5.094 3.083 3.639c-.429-.283-.413-.637-.381-1.03C2.807 1.33 3.68.504 4.915.504H19.54c1.313 0 2.212.933 2.212 2.297v9.406c0 1.361-.902 2.296-2.213 2.296H6.31c-.328 0-.52-.17-.516-.444.004-.273.193-.43.525-.43h13.126c.985 0 1.462-.5 1.462-1.532V4.304c.006-.099.006-.198.006-.366zm-8.663-2.56H4.875c-.773 0-1.287.532-1.319 1.313a.331.331 0 00.04.19.316.316 0 00.14.131c2.183 1.478 4.36 2.966 6.551 4.433.78.523 1.653.656 2.567.516.694-.11 1.275-.468 1.849-.86 2.016-1.38 4.041-2.746 6.057-4.124a.388.388 0 00.143-.278c.013-.754-.552-1.324-1.308-1.325-2.449.003-4.898.004-7.346.004z" fill="#E96B67"/><path d="M8.387 11.878h-3.75c-.3 0-.472-.12-.518-.353-.058-.29.152-.52.487-.52h3.725c1.293 0 2.588-.007 3.885.01a.628.628 0 01.431.227.44.44 0 01-.011.417.71.71 0 01-.467.219c-1.26.018-2.52.01-3.78.01l-.002-.01zM5.632 9.253H2.929c-.25 0-.43-.096-.49-.357-.066-.287.152-.519.487-.519h5.38c.354 0 .54.16.534.45-.007.29-.188.425-.525.425l-2.683.001zm-2.752-3.5h1.599c.307 0 .499.17.503.43.004.261-.189.438-.491.438H1.235c-.304 0-.492-.178-.487-.444.005-.265.191-.427.502-.43.55.006 1.088.006 1.63.006z" fill="#E96B67"/></svg>