<svg width="61" height="61" fill="none" xmlns="http://www.w3.org/2000/svg"><path d="M48.047 33.15c-.288 0-.573-.097-.805-.294-.478-.4-11.695-9.97-11.695-19.705 0-6.893 5.607-12.5 12.5-12.5 6.892 0 12.5 5.607 12.5 12.5 0 9.735-11.218 19.305-11.695 19.705a1.237 1.237 0 01-.805.295zm0-30c-5.515 0-10 4.486-10 10 0 7.17 7.492 14.74 10 17.07 2.507-2.332 10-9.9 10-17.07 0-5.514-4.485-10-10-10z" fill="#fff"/><path d="M48.047 18.15c-2.758 0-5-2.242-5-5 0-2.757 2.242-5 5-5 2.757 0 5 2.243 5 5 0 2.758-2.243 5-5 5zm0-7.5c-1.378 0-2.5 1.12-2.5 2.5s1.122 2.5 2.5 2.5c1.377 0 2.5-1.12 2.5-2.5s-1.123-2.5-2.5-2.5zm-40 47.501c-.295 0-.593-.105-.83-.315-.27-.24-6.67-5.972-6.67-11.872 0-4.308 3.365-7.813 7.5-7.813s7.5 3.505 7.5 7.813c0 5.9-6.4 11.632-6.67 11.872-.238.21-.535.315-.83.315zm0-17.5c-2.758 0-5 2.383-5 5.313 0 3.657 3.39 7.552 5 9.197 1.61-1.642 5-5.54 5-9.197 0-2.93-2.243-5.313-5-5.313z" fill="#fff"/><path d="M40.332 60.65H8.047a1.25 1.25 0 010-2.5h32.285c.795 0 1.092-.61 1.165-.797.072-.187.263-.842-.325-1.377l-17.93-16.3a3.73 3.73 0 01-.975-4.128 3.721 3.721 0 013.495-2.397h22.285a1.25 1.25 0 010 2.5H25.762c-.795 0-1.093.61-1.165.797-.073.188-.263.843.325 1.378l17.93 16.3a3.73 3.73 0 01.975 4.127 3.721 3.721 0 01-3.495 2.398zM8.047 48.15c-1.378 0-2.5-1.12-2.5-2.5s1.122-2.5 2.5-2.5c1.377 0 2.5 1.12 2.5 2.5s-1.123 2.5-2.5 2.5zm0-2.502s0 .003 0 0l1.25.003-1.25-.003z" fill="#fff"/></svg>