<svg width="75" height="75" fill="none" xmlns="http://www.w3.org/2000/svg"><path d="M74.319 14.226l-3.043-6.06a2.304 2.304 0 00-2.07-1.278H41.453V2.283A2.266 2.266 0 0039.191.02h-6.267a2.266 2.266 0 00-2.264 2.263v4.605h-7.893a1.097 1.097 0 100 2.194h46.438a.12.12 0 01.11.067l3.044 6.061a.124.124 0 010 .11l-3.044 6.061a.122.122 0 01-.11.068H5.537a.122.122 0 01-.11-.066l-3.164-6.06a.123.123 0 010-.115l3.165-6.06a.123.123 0 01.109-.066h12.556a1.097 1.097 0 100-2.194H5.537a2.31 2.31 0 00-2.054 1.244L.32 14.192a2.318 2.318 0 000 2.146l3.165 6.06a2.31 2.31 0 002.053 1.245H30.66v6.22l-16.902 1.565c-.49.045-.936.321-1.195.738l-3.385 5.432c-.386.62-.3 1.417.211 1.94l4.475 4.576a1.59 1.59 0 001.325.463l15.471-1.936v7.02l-15.638-.845a1.49 1.49 0 00-1.564 1.381l-.481 6.856a1.494 1.494 0 001.355 1.586l16.328 1.41v13.804a1.097 1.097 0 102.194 0V60.24l6.407.553v3.69a1.097 1.097 0 102.193 0v-3.5l12.097 1.045a1.496 1.496 0 001.23-.484l3.473-3.835c.461-.51.514-1.263.129-1.833l-2.903-4.283a1.496 1.496 0 00-1.15-.651l-12.876-.697V41.29l22.048-2.76a1.587 1.587 0 001.374-1.738l-.92-8.45a1.588 1.588 0 00-1.716-1.403l-11.71 1.083a1.097 1.097 0 10.202 2.185l11.11-1.03.79 7.251-47.412 5.934-3.924-4.013 2.968-4.765 17.606-1.63 14.207-1.316a1.096 1.096 0 10-.202-2.184l-4.42.41v-5.221h27.751c.882 0 1.675-.49 2.07-1.277l3.044-6.061a2.327 2.327 0 000-2.08zM32.854 2.283a.07.07 0 01.07-.07h6.267a.07.07 0 01.07.07v4.605h-6.407V2.283zm23.402 54.365l-2.866 3.165-12.92-1.117-25.256-2.182.384-5.47 38.263 2.07 2.395 3.534zm-16.995-6.52l-6.407-.347v-7.415l6.407-.802v8.563zm0-21.062l-6.407.594v-6.017h6.407v5.423z" fill="#FCFCFC"/><path d="M7.14 15.266a3.263 3.263 0 003.26 3.26 3.263 3.263 0 003.26-3.26 3.263 3.263 0 00-3.26-3.26 3.263 3.263 0 00-3.26 3.26zm4.327 0a1.068 1.068 0 01-2.133 0 1.067 1.067 0 012.133 0zm55.701 0a3.263 3.263 0 00-3.26-3.26 3.263 3.263 0 00-3.26 3.26 3.263 3.263 0 003.26 3.26 3.263 3.263 0 003.26-3.26zm-4.326 0a1.067 1.067 0 012.132 0c0 .588-.478 1.066-1.066 1.066a1.067 1.067 0 01-1.066-1.066zM40.357 68.06c-.605 0-1.096.491-1.096 1.097v4.696a1.097 1.097 0 102.193 0v-4.696c0-.606-.49-1.097-1.097-1.097z" fill="#FCFCFC"/></svg>