<svg width="68" height="68" fill="none" xmlns="http://www.w3.org/2000/svg"><path d="M43.71 29.192l3.216 3.524-2.387 4.13c-.523.905.435 2.034 1.436 1.587l4.382-1.956 3.22 3.529c.7.77 2.06.186 1.955-.869l-.18-2.07c-.079-.906-1.48-.784-1.4.122l.109 1.26-2.8-3.069a1.126 1.126 0 00-1.294-.269l-3.775 1.685 2.056-3.557a1.118 1.118 0 00-.143-1.317l-2.769-3.035 4.048.838c.477.1.962-.117 1.206-.54l2.064-3.571.442 4.085c.053.487.41.88.89.98l4.038.836-3.765 1.68c-.83.37-.257 1.655.573 1.284l4.565-2.037c.959-.428.816-1.91-.23-2.126l-4.695-.973-.513-4.732c-.112-1.041-1.565-1.36-2.096-.439l-2.39 4.136-4.699-.973c-1.025-.212-1.784 1.067-1.063 1.857z" fill="#000"/><path d="M50.782 49.72a1.16 1.16 0 00-1.546-.29c-6.83 4.166-15.593 3.594-21.806-1.423l-.054-.044a18.549 18.549 0 01-6.793-12.577 18.55 18.55 0 014.138-13.749c5.063-6.176 13.526-8.517 21.06-5.827a1.16 1.16 0 001.456-.598c.264-.55.08-1.182-.44-1.502-4.013-2.48-8.683-3.72-13.507-3.589-.909.025-.87 1.43.038 1.406 3.815-.104 7.527.701 10.854 2.34-7.532-1.816-15.57.806-20.549 6.878-3.42 4.172-5 9.423-4.449 14.785a19.943 19.943 0 007.304 13.523l.059.048c6.107 4.933 14.51 5.866 21.515 2.557-3.711 2.893-8.3 4.596-13.133 4.84-5.648.286-11.124-1.467-15.42-4.936l-.065-.053c-4.675-3.805-7.587-9.186-8.201-15.163-.617-6.005 1.159-11.893 5-16.58 3.364-4.103 8.158-6.897 13.5-7.867.895-.162.644-1.546-.25-1.384-5.671 1.03-10.762 4-14.337 8.36-4.081 4.978-5.968 11.234-5.312 17.614.652 6.352 3.745 12.069 8.712 16.11l.07.057c4.565 3.687 10.38 5.55 16.374 5.247 5.902-.3 11.462-2.651 15.657-6.623.443-.42.495-1.076.125-1.56z" fill="#000"/></svg>