<svg width="59" height="503" fill="none" xmlns="http://www.w3.org/2000/svg"><path d="M13.88 482.48v20.16H2v-54.9h11.88v20.16H65v14.58H13.88zM2 382.115h63v14.58H39.17v28.62H65v14.58H2v-14.58h24.84v-28.62H2v-14.58zm51.3-63.685H65v48.78H2V319.6h11.7v33.12h13.68v-29.25h11.34v29.25H53.3v-34.29zm-21.06-83.349c1.14-3.6 3.06-6.42 5.76-8.46 2.64-2.04 5.91-3.06 9.81-3.06 5.52 0 9.78 2.16 12.78 6.48 2.94 4.26 4.41 10.5 4.41 18.72v32.58H2v-30.78c0-7.68 1.47-13.56 4.41-17.64 2.94-4.14 6.93-6.21 11.97-6.21 3.06 0 5.79.75 8.19 2.25 2.4 1.44 4.29 3.48 5.67 6.12zm-19.26 31.77h14.85v-14.49c0-3.6-.63-6.33-1.89-8.19-1.26-1.86-3.12-2.79-5.58-2.79s-4.29.93-5.49 2.79c-1.26 1.86-1.89 4.59-1.89 8.19v14.49zm41.04-17.01c0-3.84-.63-6.72-1.89-8.64-1.26-1.98-3.21-2.97-5.85-2.97-5.22 0-7.83 3.87-7.83 11.61v17.01h15.57v-17.01zm12.06-67.829c0 6.54-1.41 12.45-4.23 17.73-2.82 5.22-6.69 9.33-11.61 12.33-4.98 2.94-10.56 4.41-16.74 4.41-6.18 0-11.73-1.47-16.65-4.41-4.98-3-8.88-7.11-11.7-12.33-2.82-5.28-4.23-11.19-4.23-17.73 0-6.54 1.41-12.42 4.23-17.64 2.82-5.22 6.72-9.33 11.7-12.33 4.92-3 10.47-4.5 16.65-4.5 6.18 0 11.76 1.5 16.74 4.5 4.92 3 8.79 7.11 11.61 12.33 2.82 5.22 4.23 11.1 4.23 17.64zm-12.42 0c0-3.72-.84-7.08-2.52-10.08-1.74-3-4.14-5.34-7.2-7.02-3.06-1.74-6.54-2.61-10.44-2.61-3.9 0-7.38.87-10.44 2.61-3.06 1.68-5.43 4.02-7.11 7.02-1.74 3-2.61 6.36-2.61 10.08 0 3.72.87 7.08 2.61 10.08 1.68 3 4.05 5.37 7.11 7.11 3.06 1.68 6.54 2.52 10.44 2.52 3.9 0 7.38-.84 10.44-2.52 3.06-1.74 5.46-4.11 7.2-7.11 1.68-3 2.52-6.36 2.52-10.08zm12.42-75.937c0 6.54-1.41 12.45-4.23 17.73-2.82 5.22-6.69 9.33-11.61 12.33-4.98 2.94-10.56 4.41-16.74 4.41-6.18 0-11.73-1.47-16.65-4.41-4.98-3-8.88-7.11-11.7-12.33-2.82-5.28-4.23-11.19-4.23-17.73 0-6.54 1.41-12.42 4.23-17.64 2.82-5.22 6.72-9.33 11.7-12.33 4.92-3 10.47-4.5 16.65-4.5 6.18 0 11.76 1.5 16.74 4.5 4.92 3 8.79 7.11 11.61 12.33 2.82 5.22 4.23 11.1 4.23 17.64zm-12.42 0c0-3.72-.84-7.08-2.52-10.08-1.74-3-4.14-5.34-7.2-7.02-3.06-1.74-6.54-2.61-10.44-2.61-3.9 0-7.38.87-10.44 2.61-3.06 1.68-5.43 4.02-7.11 7.02-1.74 3-2.61 6.36-2.61 10.08 0 3.72.87 7.08 2.61 10.08 1.68 3 4.05 5.37 7.11 7.11 3.06 1.68 6.54 2.52 10.44 2.52 3.9 0 7.38-.84 10.44-2.52 3.06-1.74 5.46-4.11 7.2-7.11 1.68-3 2.52-6.36 2.52-10.08zM40.25 37.697l8.82 8.46H65v14.49H2v-14.49h29.43L2 18.257v-16.2l28.08 26.1L65 .527v17.01l-24.75 20.16z" fill="#F15A24"/></svg>