<svg width="70" height="65" viewBox="0 0 70 65" fill="none" xmlns="http://www.w3.org/2000/svg">
<path d="M10.9279 23.2123C11.5162 23.1955 12.0997 23.3234 12.627 23.5847L17.6778 26.5058C18.1571 26.8417 18.5575 27.2781 18.8509 27.7846C19.1444 28.2911 19.3239 28.8555 19.3769 29.4384V35.2573C19.3223 35.8399 19.1422 36.4037 18.8489 36.91C18.5556 37.4162 18.156 37.8529 17.6778 38.19L12.627 41.1111C12.0985 41.3679 11.5152 41.4918 10.9279 41.4719C10.3441 41.4947 9.76387 41.3707 9.24037 41.1111L4.17797 38.19C3.69977 37.8529 3.30027 37.4162 3.00697 36.91C2.71357 36.4037 2.53347 35.8399 2.47887 35.2573V29.4384C2.53197 28.8555 2.71137 28.2911 3.00487 27.7846C3.29827 27.2781 3.69867 26.8417 4.17797 26.5058L9.24037 23.5847C9.76277 23.3211 10.3431 23.1931 10.9279 23.2123ZM10.9279 20.8848C9.93447 20.8664 8.95287 21.1029 8.07667 21.5714L3.01427 24.5274C2.18327 25.0703 1.49147 25.8006 0.994167 26.6596C0.496967 27.5187 0.208267 28.4825 0.151367 29.4734V35.2922C0.208267 36.2832 0.496967 37.247 0.994167 38.106C1.49147 38.965 2.18327 39.6954 3.01427 40.2383L8.07667 43.1593C8.95397 43.6239 9.93547 43.8562 10.9279 43.8344C11.924 43.8557 12.9091 43.6234 13.7908 43.1593L18.8416 40.2383C19.6725 39.6954 20.3644 38.965 20.8616 38.106C21.3589 37.247 21.6475 36.2832 21.7044 35.2922V29.4734C21.6475 28.4825 21.3589 27.5187 20.8616 26.6596C20.3644 25.8006 19.6725 25.0703 18.8416 24.5274L13.7908 21.6063C12.91 21.1387 11.9249 20.9025 10.9279 20.9197V20.8848Z" fill="white"/>
<path d="M34.6572 23.2124C35.2417 23.1957 35.8214 23.3236 36.3446 23.5848L41.407 26.5059C41.8831 26.8442 42.2804 27.2814 42.5717 27.7876C42.863 28.2938 43.0413 28.857 43.0945 29.4386V35.2574C43.0398 35.8386 42.8608 36.4013 42.5697 36.9073C42.2785 37.4133 41.882 37.8508 41.407 38.1902L36.3446 41.1112C35.8202 41.368 35.2407 41.4919 34.6572 41.472C34.0699 41.4919 33.4866 41.3681 32.9581 41.1112L27.8957 38.1902C27.4207 37.8508 27.0241 37.4133 26.733 36.9073C26.4419 36.4013 26.2629 35.8386 26.2082 35.2574V29.4386C26.2614 28.857 26.4397 28.2938 26.731 27.7876C27.0222 27.2814 27.4196 26.8442 27.8957 26.5059L32.9581 23.5848C33.4854 23.3235 34.0689 23.1956 34.6572 23.2124ZM34.6572 20.8849C33.6601 20.8677 32.6751 21.104 31.7943 21.5715L26.7319 24.5275C25.9025 25.071 25.2124 25.8017 24.7171 26.6608C24.2219 27.5199 23.9353 28.4834 23.8806 29.4735V35.2924C23.9353 36.2825 24.2219 37.246 24.7171 38.1051C25.2124 38.9642 25.9025 39.6949 26.7319 40.2384L31.7943 43.1595C32.6759 43.6235 33.6611 43.8558 34.6572 43.8345C35.6496 43.8564 36.6311 43.624 37.5084 43.1595L42.5708 40.2384C43.4002 39.6949 44.0904 38.9642 44.5856 38.1051C45.0809 37.246 45.3674 36.2825 45.422 35.2924V29.4735C45.3674 28.4834 45.0809 27.5199 44.5856 26.6608C44.0904 25.8017 43.4002 25.071 42.5708 24.5275L37.5084 21.6064C36.6322 21.1379 35.6506 20.9015 34.6572 20.9198V20.8849Z" fill="white"/>
<path d="M58.3749 23.2123C58.9632 23.1955 59.5467 23.3234 60.074 23.5847L65.1248 26.5058C65.6042 26.8417 66.0045 27.2781 66.298 27.7846C66.5914 28.2911 66.7709 28.8555 66.8239 29.4384V35.2573C66.7694 35.8399 66.5892 36.4037 66.2959 36.91C66.0026 37.4162 65.6031 37.8529 65.1248 38.19L60.074 41.1111C59.5455 41.3679 58.9622 41.4918 58.3749 41.4719C57.7911 41.4947 57.2109 41.3707 56.6875 41.1111L51.6251 38.19C51.1468 37.8529 50.7473 37.4162 50.454 36.91C50.1606 36.4037 49.9805 35.8399 49.926 35.2573V29.4384C49.979 28.8555 50.1585 28.2911 50.4519 27.7846C50.7454 27.2781 51.1457 26.8417 51.6251 26.5058L56.6875 23.5847C57.2099 23.3211 57.7901 23.1931 58.3749 23.2123ZM58.3749 20.8848C57.3815 20.8664 56.3999 21.1029 55.5237 21.5714L50.4613 24.5274C49.6304 25.0703 48.9385 25.8006 48.4412 26.6596C47.944 27.5187 47.6553 28.4825 47.5984 29.4734V35.2922C47.6553 36.2832 47.944 37.247 48.4412 38.106C48.9385 38.965 49.6304 39.6954 50.4613 40.2383L55.5237 43.1593C56.401 43.6239 57.3825 43.8562 58.3749 43.8344C59.371 43.8557 60.3562 43.6234 61.2378 43.1593L66.2886 40.2383C67.1195 39.6954 67.8114 38.965 68.3087 38.106C68.8059 37.247 69.0945 36.2832 69.1514 35.2922V29.4734C69.0945 28.4825 68.8059 27.5187 68.3087 26.6596C67.8114 25.8006 67.1195 25.0703 66.2886 24.5274L61.2378 21.6063C60.3571 21.1387 59.372 20.9025 58.3749 20.9197V20.8848Z" fill="white"/>
<path d="M22.7866 43.9392C23.3789 43.9195 23.9668 44.0475 24.4974 44.3116L29.5598 47.2327C30.0359 47.571 30.4332 48.0082 30.7244 48.5144C31.0157 49.0206 31.1941 49.5838 31.2473 50.1654V55.9843C31.1911 56.5651 31.0115 57.1272 30.7205 57.633C30.4294 58.1388 30.0337 58.5765 29.5598 58.9169L24.4974 61.8613C23.9645 62.0991 23.3876 62.222 22.8041 62.222C22.2206 62.222 21.6436 62.0991 21.1108 61.8613L16.0484 58.9402C15.5745 58.5998 15.1787 58.162 14.8877 57.6562C14.5967 57.1504 14.4171 56.5883 14.3609 56.0075V50.1887C14.4141 49.6071 14.5925 49.0439 14.8837 48.5377C15.175 48.0315 15.5723 47.5943 16.0484 47.256L21.1108 44.3349C21.634 44.0737 22.2137 43.9457 22.7983 43.9625L22.7866 43.9392ZM22.7983 41.635C21.8058 41.6131 20.8243 41.8455 19.947 42.31L14.8846 45.231C14.055 45.777 13.3649 46.51 12.8697 47.3709C12.3746 48.2319 12.0881 49.197 12.0334 50.1887V56.0075C12.089 56.9974 12.3759 57.9605 12.871 58.8195C13.3662 59.6784 14.0559 60.4093 14.8846 60.9535L19.947 63.8746C20.8243 64.3391 21.8058 64.5715 22.7983 64.5496C23.7943 64.5709 24.7795 64.3386 25.6611 63.8746L30.7236 60.9535C31.5523 60.4093 32.242 59.6784 32.7371 58.8195C33.2323 57.9605 33.5192 56.9974 33.5748 56.0075V50.1887C33.5201 49.197 33.2336 48.2319 32.7385 47.3709C32.2433 46.51 31.5532 45.777 30.7236 45.231L25.6611 42.2867C24.7795 41.8227 23.7943 41.5904 22.7983 41.6117V41.635Z" fill="white"/>
<path d="M46.516 43.939C47.1009 43.9198 47.6811 44.0479 48.2035 44.3115L53.2659 47.2325C53.7453 47.5685 54.1456 48.0049 54.4391 48.5114C54.7325 49.0179 54.912 49.5823 54.965 50.1653V55.9841C54.909 56.5663 54.7282 57.1295 54.435 57.6356C54.1418 58.1416 53.7431 58.5786 53.2659 58.9168L48.2035 61.8378C47.6777 62.0907 47.0992 62.2143 46.516 62.1986C45.9293 62.2127 45.3474 62.0891 44.817 61.8378L39.7662 58.9168C39.289 58.5786 38.8903 58.1416 38.5971 57.6356C38.3039 57.1295 38.1231 56.5663 38.0671 55.9841V50.1653C38.1201 49.5823 38.2996 49.0179 38.593 48.5114C38.8865 48.0049 39.2868 47.5685 39.7662 47.2325L44.817 44.3115C45.3443 44.0501 45.9277 43.9223 46.516 43.939ZM46.516 41.6115C45.52 41.5902 44.5348 41.8225 43.6532 42.2865L38.6024 45.2076C37.7712 45.753 37.0794 46.4855 36.5822 47.3464C36.0851 48.2073 35.7965 49.1727 35.7395 50.1653V55.9841C35.7973 56.9748 36.0864 57.9382 36.5836 58.7971C37.0807 59.656 37.7721 60.3865 38.6024 60.9301L43.6532 63.8511C44.5348 64.3152 45.52 64.5475 46.516 64.5262C47.5085 64.548 48.49 64.3157 49.3673 63.8511L54.4297 60.9301C55.26 60.3865 55.9514 59.656 56.4486 58.7971C56.9457 57.9382 57.2348 56.9748 57.2926 55.9841V50.1653C57.2356 49.1727 56.947 48.2073 56.4499 47.3464C55.9527 46.4855 55.2609 45.753 54.4297 45.2076L49.3673 42.2865C48.49 41.822 47.5085 41.5896 46.516 41.6115Z" fill="white"/>
<path d="M22.7869 2.4856C23.3753 2.4679 23.959 2.5958 24.486 2.858L29.5484 5.7791C30.0245 6.1174 30.4218 6.5546 30.7131 7.0608C31.0043 7.567 31.1827 8.1302 31.2359 8.7118V14.5306C31.1812 15.1118 31.0022 15.6745 30.711 16.1805C30.4199 16.6865 30.0234 17.124 29.5484 17.4633L24.4976 20.4077C23.9648 20.6455 23.3878 20.7684 22.8043 20.7684C22.2208 20.7684 21.6439 20.6455 21.1111 20.4077L16.037 17.5448C15.562 17.2055 15.1655 16.768 14.8744 16.262C14.5832 15.756 14.4042 15.1933 14.3495 14.6121V8.7932C14.4027 8.2116 14.5811 7.6485 14.8723 7.1423C15.1636 6.6361 15.5609 6.1988 16.037 5.8606L21.0994 2.9395C21.6226 2.6783 22.2023 2.5503 22.7869 2.5671V2.4856ZM22.7869 0.239604C21.7934 0.221204 20.8119 0.457604 19.9357 0.926104L14.8732 3.8472C14.0438 4.3907 13.3537 5.1215 12.8585 5.9806C12.3632 6.8397 12.0767 7.8031 12.022 8.7932V14.6121C12.0767 15.6022 12.3632 16.5657 12.8585 17.4248C13.3537 18.2839 14.0438 19.0146 14.8732 19.5581L19.9357 22.4792C20.8129 22.9437 21.7945 23.1761 22.7869 23.1542C23.783 23.1755 24.7681 22.9432 25.6498 22.4792L30.7122 19.5581C31.5416 19.0146 32.2317 18.2839 32.727 17.4248C33.2222 16.5657 33.5087 15.6022 33.5634 14.6121V8.7932C33.5087 7.8031 33.2222 6.8397 32.727 5.9806C32.2317 5.1215 31.5416 4.3907 30.7122 3.8472L25.6614 0.844702C24.7806 0.377202 23.7956 0.140903 22.7985 0.158103L22.7869 0.239604Z" fill="white"/>
<path d="M46.516 2.48561C47.1009 2.46631 47.6811 2.59442 48.2035 2.85802L53.2659 5.77901C53.7453 6.11501 54.1456 6.55141 54.4391 7.05791C54.7325 7.56441 54.912 8.12882 54.965 8.71172V14.5306C54.9105 15.1131 54.7303 15.677 54.437 16.1832C54.1437 16.6895 53.7442 17.1262 53.2659 17.4633L48.2035 20.3844C47.6801 20.6439 47.0999 20.768 46.516 20.7451C45.9288 20.765 45.3455 20.6412 44.817 20.3844L39.7662 17.5448C39.2879 17.2077 38.8884 16.771 38.5951 16.2647C38.3018 15.7584 38.1216 15.1946 38.0671 14.612V8.79322C38.1201 8.21022 38.2996 7.64592 38.593 7.13942C38.8865 6.63292 39.2868 6.19652 39.7662 5.86052L44.817 2.93941C45.3443 2.67811 45.9277 2.55032 46.516 2.56702V2.48561ZM46.516 0.239513C45.519 0.222313 44.5339 0.458516 43.6532 0.926116L38.6024 3.84711C37.7715 4.39011 37.0796 5.12051 36.5824 5.97951C36.0851 6.83851 35.7964 7.80222 35.7395 8.79322V14.612C35.7964 15.603 36.0851 16.5667 36.5824 17.4258C37.0796 18.2848 37.7715 19.0151 38.6024 19.5581L43.6532 22.4791C44.5348 22.9432 45.52 23.1755 46.516 23.1541C47.5085 23.176 48.49 22.9437 49.3673 22.4791L54.4297 19.5581C55.2606 19.0151 55.9525 18.2848 56.4498 17.4258C56.947 16.5667 57.2357 15.603 57.2926 14.612V8.79322C57.2357 7.80222 56.947 6.83851 56.4498 5.97951C55.9525 5.12051 55.2606 4.39011 54.4297 3.84711L49.3673 0.926116C48.4911 0.457516 47.5095 0.221213 46.516 0.239513Z" fill="white"/>
</svg>
