<svg width="42" height="48" viewBox="0 0 42 48" fill="none" xmlns="http://www.w3.org/2000/svg">
<path d="M20.7699 4.72723L28.5799 9.23723L32.5399 6.95723L20.7699 0.157227L1.10986 11.5172L5.04986 13.7972L20.7699 4.72723Z" fill="white"/>
<path d="M36.48 9.23724L20.77 18.3072L12.96 13.7972L9.01001 16.0772L20.77 22.8672L40.44 11.5172L36.48 9.23724Z" fill="white"/>
<path d="M4.26982 24.4973L0.319824 22.2173V35.7973L19.9798 47.1573V42.5973L4.26982 33.5173V24.4973Z" fill="white"/>
<path d="M0.319824 17.6571L16.0298 26.7271V35.7471L19.9798 38.0371V24.4471L0.319824 13.0971V17.6571Z" fill="white"/>
<path d="M33.3298 22.2172V17.6572L21.5598 24.4472V47.1572L25.5098 44.8772V26.7272L33.3298 22.2172Z" fill="white"/>
<path d="M37.27 15.3771V33.5171L29.46 38.0371V42.5971L41.23 35.7971V13.0971L37.27 15.3771Z" fill="white"/>
</svg>
