<svg width="48" height="57" viewBox="0 0 48 57" fill="none" xmlns="http://www.w3.org/2000/svg">
<path d="M0.431229 16.0934C0.663129 16.0934 0.851231 15.9054 0.851231 15.6734C0.851231 15.4415 0.663129 15.2534 0.431229 15.2534C0.199229 15.2534 0.0112305 15.4415 0.0112305 15.6734C0.0112305 15.9054 0.199229 16.0934 0.431229 16.0934Z" fill="white"/>
<path d="M9.73128 16.0236C9.96328 16.0236 10.1513 15.8356 10.1513 15.6036C10.1513 15.3716 9.96328 15.1836 9.73128 15.1836C9.49938 15.1836 9.31128 15.3716 9.31128 15.6036C9.31128 15.8356 9.49938 16.0236 9.73128 16.0236Z" fill="white"/>
<path d="M5.08138 18.7636C5.31338 18.7636 5.50138 18.5755 5.50138 18.3436C5.50138 18.1116 5.31338 17.9236 5.08138 17.9236C4.84948 17.9236 4.66138 18.1116 4.66138 18.3436C4.66138 18.5755 4.84948 18.7636 5.08138 18.7636Z" fill="white"/>
<path d="M0.431229 21.5136C0.663129 21.5136 0.851231 21.3255 0.851231 21.0936C0.851231 20.8616 0.663129 20.6736 0.431229 20.6736C0.199229 20.6736 0.0112305 20.8616 0.0112305 21.0936C0.0112305 21.3255 0.199229 21.5136 0.431229 21.5136Z" fill="white"/>
<path d="M23.6813 13.6436C24.1618 13.6436 24.5513 13.254 24.5513 12.7736C24.5513 12.2931 24.1618 11.9036 23.6813 11.9036C23.2009 11.9036 22.8113 12.2931 22.8113 12.7736C22.8113 13.254 23.2009 13.6436 23.6813 13.6436Z" fill="white"/>
<path d="M19.0314 16.3936C19.5119 16.3936 19.9014 16.004 19.9014 15.5236C19.9014 15.0431 19.5119 14.6536 19.0314 14.6536C18.551 14.6536 18.1614 15.0431 18.1614 15.5236C18.1614 16.004 18.551 16.3936 19.0314 16.3936Z" fill="white"/>
<path d="M14.3812 19.1436C14.8617 19.1436 15.2512 18.754 15.2512 18.2736C15.2512 17.7931 14.8617 17.4036 14.3812 17.4036C13.9007 17.4036 13.5112 17.7931 13.5112 18.2736C13.5112 18.754 13.9007 19.1436 14.3812 19.1436Z" fill="white"/>
<path d="M9.73133 21.8936C10.2118 21.8936 10.6013 21.504 10.6013 21.0236C10.6013 20.5431 10.2118 20.1536 9.73133 20.1536C9.25083 20.1536 8.86133 20.5431 8.86133 21.0236C8.86133 21.504 9.25083 21.8936 9.73133 21.8936Z" fill="white"/>
<path d="M5.08143 24.6336C5.56193 24.6336 5.95143 24.244 5.95143 23.7636C5.95143 23.2831 5.56193 22.8936 5.08143 22.8936C4.60093 22.8936 4.21143 23.2831 4.21143 23.7636C4.21143 24.244 4.60093 24.6336 5.08143 24.6336Z" fill="white"/>
<path d="M0.431229 26.9335C0.663129 26.9335 0.851231 26.7455 0.851231 26.5135C0.851231 26.2815 0.663129 26.0935 0.431229 26.0935C0.199229 26.0935 0.0112305 26.2815 0.0112305 26.5135C0.0112305 26.7455 0.199229 26.9335 0.431229 26.9335Z" fill="white"/>
<path d="M23.6814 19.9336C24.6423 19.9336 25.4214 19.1546 25.4214 18.1936C25.4214 17.2326 24.6423 16.4536 23.6814 16.4536C22.7204 16.4536 21.9414 17.2326 21.9414 18.1936C21.9414 19.1546 22.7204 19.9336 23.6814 19.9336Z" fill="white"/>
<path d="M19.0315 22.6836C19.9924 22.6836 20.7715 21.9046 20.7715 20.9436C20.7715 19.9826 19.9924 19.2036 19.0315 19.2036C18.0705 19.2036 17.2915 19.9826 17.2915 20.9436C17.2915 21.9046 18.0705 22.6836 19.0315 22.6836Z" fill="white"/>
<path d="M14.3814 25.4336C15.3424 25.4336 16.1214 24.6546 16.1214 23.6936C16.1214 22.7326 15.3424 21.9536 14.3814 21.9536C13.4205 21.9536 12.6414 22.7326 12.6414 23.6936C12.6414 24.6546 13.4205 25.4336 14.3814 25.4336Z" fill="white"/>
<path d="M9.73121 28.1736C10.6921 28.1736 11.4712 27.3946 11.4712 26.4336C11.4712 25.4726 10.6921 24.6936 9.73121 24.6936C8.77021 24.6936 7.99121 25.4726 7.99121 26.4336C7.99121 27.3946 8.77021 28.1736 9.73121 28.1736Z" fill="white"/>
<path d="M5.08143 30.0535C5.56193 30.0535 5.95143 29.664 5.95143 29.1835C5.95143 28.703 5.56193 28.3135 5.08143 28.3135C4.60093 28.3135 4.21143 28.703 4.21143 29.1835C4.21143 29.664 4.60093 30.0535 5.08143 30.0535Z" fill="white"/>
<path d="M0.431229 32.3534C0.663129 32.3534 0.851231 32.1654 0.851231 31.9334C0.851231 31.7015 0.663129 31.5134 0.431229 31.5134C0.199229 31.5134 0.0112305 31.7015 0.0112305 31.9334C0.0112305 32.1654 0.199229 32.3534 0.431229 32.3534Z" fill="white"/>
<path d="M23.6814 25.3535C24.6423 25.3535 25.4214 24.5745 25.4214 23.6135C25.4214 22.6526 24.6423 21.8735 23.6814 21.8735C22.7204 21.8735 21.9414 22.6526 21.9414 23.6135C21.9414 24.5745 22.7204 25.3535 23.6814 25.3535Z" fill="white"/>
<path d="M19.0315 28.1035C19.9924 28.1035 20.7715 27.3245 20.7715 26.3635C20.7715 25.4026 19.9924 24.6235 19.0315 24.6235C18.0705 24.6235 17.2915 25.4026 17.2915 26.3635C17.2915 27.3245 18.0705 28.1035 19.0315 28.1035Z" fill="white"/>
<path d="M14.3814 30.8435C15.3424 30.8435 16.1214 30.0645 16.1214 29.1035C16.1214 28.1426 15.3424 27.3635 14.3814 27.3635C13.4205 27.3635 12.6414 28.1426 12.6414 29.1035C12.6414 30.0645 13.4205 30.8435 14.3814 30.8435Z" fill="white"/>
<path d="M9.73121 33.5935C10.6921 33.5935 11.4712 32.8145 11.4712 31.8535C11.4712 30.8926 10.6921 30.1135 9.73121 30.1135C8.77021 30.1135 7.99121 30.8926 7.99121 31.8535C7.99121 32.8145 8.77021 33.5935 9.73121 33.5935Z" fill="white"/>
<path d="M5.08143 35.4734C5.56193 35.4734 5.95143 35.0839 5.95143 34.6034C5.95143 34.1229 5.56193 33.7334 5.08143 33.7334C4.60093 33.7334 4.21143 34.1229 4.21143 34.6034C4.21143 35.0839 4.60093 35.4734 5.08143 35.4734Z" fill="white"/>
<path d="M0.431229 37.7736C0.663129 37.7736 0.851231 37.5856 0.851231 37.3536C0.851231 37.1216 0.663129 36.9336 0.431229 36.9336C0.199229 36.9336 0.0112305 37.1216 0.0112305 37.3536C0.0112305 37.5856 0.199229 37.7736 0.431229 37.7736Z" fill="white"/>
<path d="M23.6813 29.9036C24.1618 29.9036 24.5513 29.5141 24.5513 29.0336C24.5513 28.5531 24.1618 28.1636 23.6813 28.1636C23.2009 28.1636 22.8113 28.5531 22.8113 29.0336C22.8113 29.5141 23.2009 29.9036 23.6813 29.9036Z" fill="white"/>
<path d="M19.0314 32.6436C19.5119 32.6436 19.9014 32.254 19.9014 31.7736C19.9014 31.2931 19.5119 30.9036 19.0314 30.9036C18.551 30.9036 18.1614 31.2931 18.1614 31.7736C18.1614 32.254 18.551 32.6436 19.0314 32.6436Z" fill="white"/>
<path d="M14.3812 35.3936C14.8617 35.3936 15.2512 35.004 15.2512 34.5236C15.2512 34.0431 14.8617 33.6536 14.3812 33.6536C13.9007 33.6536 13.5112 34.0431 13.5112 34.5236C13.5112 35.004 13.9007 35.3936 14.3812 35.3936Z" fill="white"/>
<path d="M9.73133 38.1436C10.2118 38.1436 10.6013 37.754 10.6013 37.2736C10.6013 36.7931 10.2118 36.4036 9.73133 36.4036C9.25083 36.4036 8.86133 36.7931 8.86133 37.2736C8.86133 37.754 9.25083 38.1436 9.73133 38.1436Z" fill="white"/>
<path d="M5.08138 40.4435C5.31338 40.4435 5.50138 40.2555 5.50138 40.0235C5.50138 39.7916 5.31338 39.6035 5.08138 39.6035C4.84948 39.6035 4.66138 39.7916 4.66138 40.0235C4.66138 40.2555 4.84948 40.4435 5.08138 40.4435Z" fill="white"/>
<path d="M0.431229 43.1935C0.663129 43.1935 0.851231 43.0055 0.851231 42.7735C0.851231 42.5416 0.663129 42.3535 0.431229 42.3535C0.199229 42.3535 0.0112305 42.5416 0.0112305 42.7735C0.0112305 43.0055 0.199229 43.1935 0.431229 43.1935Z" fill="white"/>
<path d="M23.6812 34.8634C23.9131 34.8634 24.1012 34.6754 24.1012 34.4434C24.1012 34.2115 23.9131 34.0234 23.6812 34.0234C23.4492 34.0234 23.2612 34.2115 23.2612 34.4434C23.2612 34.6754 23.4492 34.8634 23.6812 34.8634Z" fill="white"/>
<path d="M19.0313 37.6134C19.2633 37.6134 19.4513 37.4254 19.4513 37.1934C19.4513 36.9615 19.2633 36.7734 19.0313 36.7734C18.7994 36.7734 18.6113 36.9615 18.6113 37.1934C18.6113 37.4254 18.7994 37.6134 19.0313 37.6134Z" fill="white"/>
<path d="M14.3814 40.3634C14.6134 40.3634 14.8014 40.1754 14.8014 39.9434C14.8014 39.7115 14.6134 39.5234 14.3814 39.5234C14.1494 39.5234 13.9614 39.7115 13.9614 39.9434C13.9614 40.1754 14.1494 40.3634 14.3814 40.3634Z" fill="white"/>
<path d="M9.73128 43.1134C9.96328 43.1134 10.1513 42.9254 10.1513 42.6934C10.1513 42.4615 9.96328 42.2734 9.73128 42.2734C9.49938 42.2734 9.31128 42.4615 9.31128 42.6934C9.31128 42.9254 9.49938 43.1134 9.73128 43.1134Z" fill="white"/>
<path d="M5.08138 45.8634C5.31338 45.8634 5.50138 45.6754 5.50138 45.4434C5.50138 45.2115 5.31338 45.0234 5.08138 45.0234C4.84948 45.0234 4.66138 45.2115 4.66138 45.4434C4.66138 45.6754 4.84948 45.8634 5.08138 45.8634Z" fill="white"/>
<path d="M23.6812 40.2836C23.9131 40.2836 24.1012 40.0956 24.1012 39.8636C24.1012 39.6316 23.9131 39.4436 23.6812 39.4436C23.4492 39.4436 23.2612 39.6316 23.2612 39.8636C23.2612 40.0956 23.4492 40.2836 23.6812 40.2836Z" fill="white"/>
<path d="M19.0313 43.0336C19.2633 43.0336 19.4513 42.8456 19.4513 42.6136C19.4513 42.3816 19.2633 42.1936 19.0313 42.1936C18.7994 42.1936 18.6113 42.3816 18.6113 42.6136C18.6113 42.8456 18.7994 43.0336 19.0313 43.0336Z" fill="white"/>
<path d="M14.3814 45.7836C14.6134 45.7836 14.8014 45.5956 14.8014 45.3636C14.8014 45.1316 14.6134 44.9436 14.3814 44.9436C14.1494 44.9436 13.9614 45.1316 13.9614 45.3636C13.9614 45.5956 14.1494 45.7836 14.3814 45.7836Z" fill="white"/>
<path d="M9.73128 48.5336C9.96328 48.5336 10.1513 48.3456 10.1513 48.1136C10.1513 47.8816 9.96328 47.6936 9.73128 47.6936C9.49938 47.6936 9.31128 47.8816 9.31128 48.1136C9.31128 48.3456 9.49938 48.5336 9.73128 48.5336Z" fill="white"/>
<path d="M23.6812 45.7035C23.9131 45.7035 24.1012 45.5155 24.1012 45.2835C24.1012 45.0516 23.9131 44.8635 23.6812 44.8635C23.4492 44.8635 23.2612 45.0516 23.2612 45.2835C23.2612 45.5155 23.4492 45.7035 23.6812 45.7035Z" fill="white"/>
<path d="M19.0313 48.4535C19.2633 48.4535 19.4513 48.2655 19.4513 48.0335C19.4513 47.8016 19.2633 47.6135 19.0313 47.6135C18.7994 47.6135 18.6113 47.8016 18.6113 48.0335C18.6113 48.2655 18.7994 48.4535 19.0313 48.4535Z" fill="white"/>
<path d="M14.3814 51.2035C14.6134 51.2035 14.8014 51.0155 14.8014 50.7835C14.8014 50.5516 14.6134 50.3635 14.3814 50.3635C14.1494 50.3635 13.9614 50.5516 13.9614 50.7835C13.9614 51.0155 14.1494 51.2035 14.3814 51.2035Z" fill="white"/>
<path d="M23.6812 51.1234C23.9131 51.1234 24.1012 50.9354 24.1012 50.7034C24.1012 50.4715 23.9131 50.2834 23.6812 50.2834C23.4492 50.2834 23.2612 50.4715 23.2612 50.7034C23.2612 50.9354 23.4492 51.1234 23.6812 51.1234Z" fill="white"/>
<path d="M19.0313 53.8734C19.2633 53.8734 19.4513 53.6854 19.4513 53.4534C19.4513 53.2215 19.2633 53.0334 19.0313 53.0334C18.7994 53.0334 18.6113 53.2215 18.6113 53.4534C18.6113 53.6854 18.7994 53.8734 19.0313 53.8734Z" fill="white"/>
<path d="M23.6812 56.5436C23.9131 56.5436 24.1012 56.3556 24.1012 56.1236C24.1012 55.8917 23.9131 55.7036 23.6812 55.7036C23.4492 55.7036 23.2612 55.8917 23.2612 56.1236C23.2612 56.3556 23.4492 56.5436 23.6812 56.5436Z" fill="white"/>
<path d="M46.8713 16.0934C47.1032 16.0934 47.2913 15.9054 47.2913 15.6734C47.2913 15.4415 47.1032 15.2534 46.8713 15.2534C46.6393 15.2534 46.4512 15.4415 46.4512 15.6734C46.4512 15.9054 46.6393 16.0934 46.8713 16.0934Z" fill="white"/>
<path d="M37.5614 16.0236C37.7934 16.0236 37.9814 15.8356 37.9814 15.6036C37.9814 15.3716 37.7934 15.1836 37.5614 15.1836C37.3295 15.1836 37.1414 15.3716 37.1414 15.6036C37.1414 15.8356 37.3295 16.0236 37.5614 16.0236Z" fill="white"/>
<path d="M42.2214 18.7636C42.4533 18.7636 42.6413 18.5755 42.6413 18.3436C42.6413 18.1116 42.4533 17.9236 42.2214 17.9236C41.9894 17.9236 41.8013 18.1116 41.8013 18.3436C41.8013 18.5755 41.9894 18.7636 42.2214 18.7636Z" fill="white"/>
<path d="M46.8713 21.5136C47.1032 21.5136 47.2913 21.3255 47.2913 21.0936C47.2913 20.8616 47.1032 20.6736 46.8713 20.6736C46.6393 20.6736 46.4512 20.8616 46.4512 21.0936C46.4512 21.3255 46.6393 21.5136 46.8713 21.5136Z" fill="white"/>
<path d="M23.6112 13.6436C24.0917 13.6436 24.4812 13.254 24.4812 12.7736C24.4812 12.2931 24.0917 11.9036 23.6112 11.9036C23.1307 11.9036 22.7412 12.2931 22.7412 12.7736C22.7412 13.254 23.1307 13.6436 23.6112 13.6436Z" fill="white"/>
<path d="M28.2615 16.3936C28.7419 16.3936 29.1314 16.004 29.1314 15.5236C29.1314 15.0431 28.7419 14.6536 28.2615 14.6536C27.781 14.6536 27.3914 15.0431 27.3914 15.5236C27.3914 16.004 27.781 16.3936 28.2615 16.3936Z" fill="white"/>
<path d="M32.9115 19.1436C33.392 19.1436 33.7815 18.754 33.7815 18.2736C33.7815 17.7931 33.392 17.4036 32.9115 17.4036C32.431 17.4036 32.0415 17.7931 32.0415 18.2736C32.0415 18.754 32.431 19.1436 32.9115 19.1436Z" fill="white"/>
<path d="M37.5614 21.8936C38.0419 21.8936 38.4314 21.504 38.4314 21.0236C38.4314 20.5431 38.0419 20.1536 37.5614 20.1536C37.0809 20.1536 36.6914 20.5431 36.6914 21.0236C36.6914 21.504 37.0809 21.8936 37.5614 21.8936Z" fill="white"/>
<path d="M42.2213 24.6336C42.7018 24.6336 43.0913 24.244 43.0913 23.7636C43.0913 23.2831 42.7018 22.8936 42.2213 22.8936C41.7408 22.8936 41.3513 23.2831 41.3513 23.7636C41.3513 24.244 41.7408 24.6336 42.2213 24.6336Z" fill="white"/>
<path d="M46.8713 26.9335C47.1032 26.9335 47.2913 26.7455 47.2913 26.5135C47.2913 26.2815 47.1032 26.0935 46.8713 26.0935C46.6393 26.0935 46.4512 26.2815 46.4512 26.5135C46.4512 26.7455 46.6393 26.9335 46.8713 26.9335Z" fill="white"/>
<path d="M23.6113 19.9336C24.5723 19.9336 25.3513 19.1546 25.3513 18.1936C25.3513 17.2326 24.5723 16.4536 23.6113 16.4536C22.6503 16.4536 21.8713 17.2326 21.8713 18.1936C21.8713 19.1546 22.6503 19.9336 23.6113 19.9336Z" fill="white"/>
<path d="M28.2615 22.6836C29.2225 22.6836 30.0015 21.9046 30.0015 20.9436C30.0015 19.9826 29.2225 19.2036 28.2615 19.2036C27.3005 19.2036 26.5215 19.9826 26.5215 20.9436C26.5215 21.9046 27.3005 22.6836 28.2615 22.6836Z" fill="white"/>
<path d="M32.9114 25.4336C33.8724 25.4336 34.6514 24.6546 34.6514 23.6936C34.6514 22.7326 33.8724 21.9536 32.9114 21.9536C31.9504 21.9536 31.1714 22.7326 31.1714 23.6936C31.1714 24.6546 31.9504 25.4336 32.9114 25.4336Z" fill="white"/>
<path d="M37.5612 28.1736C38.5222 28.1736 39.3012 27.3946 39.3012 26.4336C39.3012 25.4726 38.5222 24.6936 37.5612 24.6936C36.6003 24.6936 35.8213 25.4726 35.8213 26.4336C35.8213 27.3946 36.6003 28.1736 37.5612 28.1736Z" fill="white"/>
<path d="M42.2213 30.0535C42.7018 30.0535 43.0913 29.664 43.0913 29.1835C43.0913 28.703 42.7018 28.3135 42.2213 28.3135C41.7408 28.3135 41.3513 28.703 41.3513 29.1835C41.3513 29.664 41.7408 30.0535 42.2213 30.0535Z" fill="white"/>
<path d="M46.8713 32.3534C47.1032 32.3534 47.2913 32.1654 47.2913 31.9334C47.2913 31.7015 47.1032 31.5134 46.8713 31.5134C46.6393 31.5134 46.4512 31.7015 46.4512 31.9334C46.4512 32.1654 46.6393 32.3534 46.8713 32.3534Z" fill="white"/>
<path d="M23.6113 25.3535C24.5723 25.3535 25.3513 24.5745 25.3513 23.6135C25.3513 22.6526 24.5723 21.8735 23.6113 21.8735C22.6503 21.8735 21.8713 22.6526 21.8713 23.6135C21.8713 24.5745 22.6503 25.3535 23.6113 25.3535Z" fill="white"/>
<path d="M28.2615 28.1035C29.2225 28.1035 30.0015 27.3245 30.0015 26.3635C30.0015 25.4026 29.2225 24.6235 28.2615 24.6235C27.3005 24.6235 26.5215 25.4026 26.5215 26.3635C26.5215 27.3245 27.3005 28.1035 28.2615 28.1035Z" fill="white"/>
<path d="M32.9114 30.8435C33.8724 30.8435 34.6514 30.0645 34.6514 29.1035C34.6514 28.1426 33.8724 27.3635 32.9114 27.3635C31.9504 27.3635 31.1714 28.1426 31.1714 29.1035C31.1714 30.0645 31.9504 30.8435 32.9114 30.8435Z" fill="white"/>
<path d="M37.5612 33.5935C38.5222 33.5935 39.3012 32.8145 39.3012 31.8535C39.3012 30.8926 38.5222 30.1135 37.5612 30.1135C36.6003 30.1135 35.8213 30.8926 35.8213 31.8535C35.8213 32.8145 36.6003 33.5935 37.5612 33.5935Z" fill="white"/>
<path d="M42.2213 35.4734C42.7018 35.4734 43.0913 35.0839 43.0913 34.6034C43.0913 34.1229 42.7018 33.7334 42.2213 33.7334C41.7408 33.7334 41.3513 34.1229 41.3513 34.6034C41.3513 35.0839 41.7408 35.4734 42.2213 35.4734Z" fill="white"/>
<path d="M46.8713 37.7736C47.1032 37.7736 47.2913 37.5856 47.2913 37.3536C47.2913 37.1216 47.1032 36.9336 46.8713 36.9336C46.6393 36.9336 46.4512 37.1216 46.4512 37.3536C46.4512 37.5856 46.6393 37.7736 46.8713 37.7736Z" fill="white"/>
<path d="M23.6112 29.9036C24.0917 29.9036 24.4812 29.5141 24.4812 29.0336C24.4812 28.5531 24.0917 28.1636 23.6112 28.1636C23.1307 28.1636 22.7412 28.5531 22.7412 29.0336C22.7412 29.5141 23.1307 29.9036 23.6112 29.9036Z" fill="white"/>
<path d="M28.2615 32.6436C28.7419 32.6436 29.1314 32.254 29.1314 31.7736C29.1314 31.2931 28.7419 30.9036 28.2615 30.9036C27.781 30.9036 27.3914 31.2931 27.3914 31.7736C27.3914 32.254 27.781 32.6436 28.2615 32.6436Z" fill="white"/>
<path d="M32.9115 35.3936C33.392 35.3936 33.7815 35.004 33.7815 34.5236C33.7815 34.0431 33.392 33.6536 32.9115 33.6536C32.431 33.6536 32.0415 34.0431 32.0415 34.5236C32.0415 35.004 32.431 35.3936 32.9115 35.3936Z" fill="white"/>
<path d="M37.5614 38.1436C38.0419 38.1436 38.4314 37.754 38.4314 37.2736C38.4314 36.7931 38.0419 36.4036 37.5614 36.4036C37.0809 36.4036 36.6914 36.7931 36.6914 37.2736C36.6914 37.754 37.0809 38.1436 37.5614 38.1436Z" fill="white"/>
<path d="M42.2214 40.4435C42.4533 40.4435 42.6413 40.2555 42.6413 40.0235C42.6413 39.7916 42.4533 39.6035 42.2214 39.6035C41.9894 39.6035 41.8013 39.7916 41.8013 40.0235C41.8013 40.2555 41.9894 40.4435 42.2214 40.4435Z" fill="white"/>
<path d="M46.8713 43.1935C47.1032 43.1935 47.2913 43.0055 47.2913 42.7735C47.2913 42.5416 47.1032 42.3535 46.8713 42.3535C46.6393 42.3535 46.4512 42.5416 46.4512 42.7735C46.4512 43.0055 46.6393 43.1935 46.8713 43.1935Z" fill="white"/>
<path d="M23.6114 34.8634C23.8433 34.8634 24.0314 34.6754 24.0314 34.4434C24.0314 34.2115 23.8433 34.0234 23.6114 34.0234C23.3794 34.0234 23.1914 34.2115 23.1914 34.4434C23.1914 34.6754 23.3794 34.8634 23.6114 34.8634Z" fill="white"/>
<path d="M28.2613 37.6134C28.4933 37.6134 28.6813 37.4254 28.6813 37.1934C28.6813 36.9615 28.4933 36.7734 28.2613 36.7734C28.0293 36.7734 27.8413 36.9615 27.8413 37.1934C27.8413 37.4254 28.0293 37.6134 28.2613 37.6134Z" fill="white"/>
<path d="M32.9112 40.3634C33.1432 40.3634 33.3312 40.1754 33.3312 39.9434C33.3312 39.7115 33.1432 39.5234 32.9112 39.5234C32.6792 39.5234 32.4912 39.7115 32.4912 39.9434C32.4912 40.1754 32.6792 40.3634 32.9112 40.3634Z" fill="white"/>
<path d="M37.5614 43.1134C37.7934 43.1134 37.9814 42.9254 37.9814 42.6934C37.9814 42.4615 37.7934 42.2734 37.5614 42.2734C37.3295 42.2734 37.1414 42.4615 37.1414 42.6934C37.1414 42.9254 37.3295 43.1134 37.5614 43.1134Z" fill="white"/>
<path d="M42.2214 45.8634C42.4533 45.8634 42.6413 45.6754 42.6413 45.4434C42.6413 45.2115 42.4533 45.0234 42.2214 45.0234C41.9894 45.0234 41.8013 45.2115 41.8013 45.4434C41.8013 45.6754 41.9894 45.8634 42.2214 45.8634Z" fill="white"/>
<path d="M23.6114 40.2836C23.8433 40.2836 24.0314 40.0956 24.0314 39.8636C24.0314 39.6316 23.8433 39.4436 23.6114 39.4436C23.3794 39.4436 23.1914 39.6316 23.1914 39.8636C23.1914 40.0956 23.3794 40.2836 23.6114 40.2836Z" fill="white"/>
<path d="M28.2613 43.0336C28.4933 43.0336 28.6813 42.8456 28.6813 42.6136C28.6813 42.3816 28.4933 42.1936 28.2613 42.1936C28.0293 42.1936 27.8413 42.3816 27.8413 42.6136C27.8413 42.8456 28.0293 43.0336 28.2613 43.0336Z" fill="white"/>
<path d="M32.9112 45.7836C33.1432 45.7836 33.3312 45.5956 33.3312 45.3636C33.3312 45.1316 33.1432 44.9436 32.9112 44.9436C32.6792 44.9436 32.4912 45.1316 32.4912 45.3636C32.4912 45.5956 32.6792 45.7836 32.9112 45.7836Z" fill="white"/>
<path d="M37.5614 48.5336C37.7934 48.5336 37.9814 48.3456 37.9814 48.1136C37.9814 47.8816 37.7934 47.6936 37.5614 47.6936C37.3295 47.6936 37.1414 47.8816 37.1414 48.1136C37.1414 48.3456 37.3295 48.5336 37.5614 48.5336Z" fill="white"/>
<path d="M23.6114 45.7035C23.8433 45.7035 24.0314 45.5155 24.0314 45.2835C24.0314 45.0516 23.8433 44.8635 23.6114 44.8635C23.3794 44.8635 23.1914 45.0516 23.1914 45.2835C23.1914 45.5155 23.3794 45.7035 23.6114 45.7035Z" fill="white"/>
<path d="M28.2613 48.4535C28.4933 48.4535 28.6813 48.2655 28.6813 48.0335C28.6813 47.8016 28.4933 47.6135 28.2613 47.6135C28.0293 47.6135 27.8413 47.8016 27.8413 48.0335C27.8413 48.2655 28.0293 48.4535 28.2613 48.4535Z" fill="white"/>
<path d="M32.9112 51.2035C33.1432 51.2035 33.3312 51.0155 33.3312 50.7835C33.3312 50.5516 33.1432 50.3635 32.9112 50.3635C32.6792 50.3635 32.4912 50.5516 32.4912 50.7835C32.4912 51.0155 32.6792 51.2035 32.9112 51.2035Z" fill="white"/>
<path d="M23.6114 51.1234C23.8433 51.1234 24.0314 50.9354 24.0314 50.7034C24.0314 50.4715 23.8433 50.2834 23.6114 50.2834C23.3794 50.2834 23.1914 50.4715 23.1914 50.7034C23.1914 50.9354 23.3794 51.1234 23.6114 51.1234Z" fill="white"/>
<path d="M28.2613 53.8734C28.4933 53.8734 28.6813 53.6854 28.6813 53.4534C28.6813 53.2215 28.4933 53.0334 28.2613 53.0334C28.0293 53.0334 27.8413 53.2215 27.8413 53.4534C27.8413 53.6854 28.0293 53.8734 28.2613 53.8734Z" fill="white"/>
<path d="M23.6114 56.5436C23.8433 56.5436 24.0314 56.3556 24.0314 56.1236C24.0314 55.8917 23.8433 55.7036 23.6114 55.7036C23.3794 55.7036 23.1914 55.8917 23.1914 56.1236C23.1914 56.3556 23.3794 56.5436 23.6114 56.5436Z" fill="white"/>
<path d="M23.1314 1.3234C23.3633 1.3234 23.5514 1.1354 23.5514 0.903397C23.5514 0.671497 23.3633 0.483398 23.1314 0.483398C22.8994 0.483398 22.7114 0.671497 22.7114 0.903397C22.7114 1.1354 22.8994 1.3234 23.1314 1.3234Z" fill="white"/>
<path d="M18.4814 4.0734C18.7133 4.0734 18.9013 3.8854 18.9013 3.6534C18.9013 3.4215 18.7133 3.2334 18.4814 3.2334C18.2494 3.2334 18.0613 3.4215 18.0613 3.6534C18.0613 3.8854 18.2494 4.0734 18.4814 4.0734Z" fill="white"/>
<path d="M13.8311 6.8234C14.0631 6.8234 14.2511 6.6354 14.2511 6.4034C14.2511 6.1715 14.0631 5.9834 13.8311 5.9834C13.5992 5.9834 13.4111 6.1715 13.4111 6.4034C13.4111 6.6354 13.5992 6.8234 13.8311 6.8234Z" fill="white"/>
<path d="M9.18123 9.5734C9.41313 9.5734 9.60123 9.3854 9.60123 9.1534C9.60123 8.9215 9.41313 8.7334 9.18123 8.7334C8.94923 8.7334 8.76123 8.9215 8.76123 9.1534C8.76123 9.3854 8.94923 9.5734 9.18123 9.5734Z" fill="white"/>
<path d="M4.53133 12.3234C4.76323 12.3234 4.95133 12.1354 4.95133 11.9034C4.95133 11.6715 4.76323 11.4834 4.53133 11.4834C4.29933 11.4834 4.11133 11.6715 4.11133 11.9034C4.11133 12.1354 4.29933 12.3234 4.53133 12.3234Z" fill="white"/>
<path d="M23.1314 6.74363C23.3633 6.74363 23.5514 6.55552 23.5514 6.32362C23.5514 6.09162 23.3633 5.90363 23.1314 5.90363C22.8994 5.90363 22.7114 6.09162 22.7114 6.32362C22.7114 6.55552 22.8994 6.74363 23.1314 6.74363Z" fill="white"/>
<path d="M18.4814 9.49363C18.7133 9.49363 18.9013 9.30552 18.9013 9.07362C18.9013 8.84162 18.7133 8.65363 18.4814 8.65363C18.2494 8.65363 18.0613 8.84162 18.0613 9.07362C18.0613 9.30552 18.2494 9.49363 18.4814 9.49363Z" fill="white"/>
<path d="M13.8311 12.2436C14.0631 12.2436 14.2511 12.0555 14.2511 11.8236C14.2511 11.5916 14.0631 11.4036 13.8311 11.4036C13.5992 11.4036 13.4111 11.5916 13.4111 11.8236C13.4111 12.0555 13.5992 12.2436 13.8311 12.2436Z" fill="white"/>
<path d="M23.0614 1.3234C23.2934 1.3234 23.4814 1.1354 23.4814 0.903397C23.4814 0.671497 23.2934 0.483398 23.0614 0.483398C22.8295 0.483398 22.6414 0.671497 22.6414 0.903397C22.6414 1.1354 22.8295 1.3234 23.0614 1.3234Z" fill="white"/>
<path d="M27.7113 4.0734C27.9433 4.0734 28.1313 3.8854 28.1313 3.6534C28.1313 3.4215 27.9433 3.2334 27.7113 3.2334C27.4794 3.2334 27.2913 3.4215 27.2913 3.6534C27.2913 3.8854 27.4794 4.0734 27.7113 4.0734Z" fill="white"/>
<path d="M32.3614 6.8234C32.5933 6.8234 32.7814 6.6354 32.7814 6.4034C32.7814 6.1715 32.5933 5.9834 32.3614 5.9834C32.1294 5.9834 31.9414 6.1715 31.9414 6.4034C31.9414 6.6354 32.1294 6.8234 32.3614 6.8234Z" fill="white"/>
<path d="M37.0113 9.5734C37.2433 9.5734 37.4313 9.3854 37.4313 9.1534C37.4313 8.9215 37.2433 8.7334 37.0113 8.7334C36.7793 8.7334 36.5913 8.9215 36.5913 9.1534C36.5913 9.3854 36.7793 9.5734 37.0113 9.5734Z" fill="white"/>
<path d="M41.6712 12.3234C41.9032 12.3234 42.0912 12.1354 42.0912 11.9034C42.0912 11.6715 41.9032 11.4834 41.6712 11.4834C41.4392 11.4834 41.2512 11.6715 41.2512 11.9034C41.2512 12.1354 41.4392 12.3234 41.6712 12.3234Z" fill="white"/>
<path d="M23.0614 6.74363C23.2934 6.74363 23.4814 6.55552 23.4814 6.32362C23.4814 6.09162 23.2934 5.90363 23.0614 5.90363C22.8295 5.90363 22.6414 6.09162 22.6414 6.32362C22.6414 6.55552 22.8295 6.74363 23.0614 6.74363Z" fill="white"/>
<path d="M27.7113 9.49363C27.9433 9.49363 28.1313 9.30552 28.1313 9.07362C28.1313 8.84162 27.9433 8.65363 27.7113 8.65363C27.4794 8.65363 27.2913 8.84162 27.2913 9.07362C27.2913 9.30552 27.4794 9.49363 27.7113 9.49363Z" fill="white"/>
<path d="M32.3614 12.2436C32.5933 12.2436 32.7814 12.0555 32.7814 11.8236C32.7814 11.5916 32.5933 11.4036 32.3614 11.4036C32.1294 11.4036 31.9414 11.5916 31.9414 11.8236C31.9414 12.0555 32.1294 12.2436 32.3614 12.2436Z" fill="white"/>
</svg>
