<svg width="74" height="51" viewBox="0 0 74 51" fill="none" xmlns="http://www.w3.org/2000/svg">
<path d="M39.4414 28.0702L28.2661 47.4632L17.0909 28.0702H39.4414ZM42.4352 26.3369H14.085L28.2661 50.8934L42.4352 26.3369Z" fill="white"/>
<path d="M58.8709 3.9499L70.0461 23.3429H47.6956L58.8709 3.9499ZM58.8709 0.483398L44.6897 25.0398H73.052L58.8709 0.483398Z" fill="white"/>
<path d="M0.497803 0.483398L12.3882 22.2036L25.3815 1.0288L0.497803 0.483398Z" fill="white"/>
<path d="M28.2664 2.38647L40.7386 23.9855H15.77L28.2664 2.38647Z" fill="white"/>
<path d="M43.9505 28.7004L56.4348 50.8934H30.8723L43.5626 28.7004H43.9505Z" fill="white"/>
<path d="M46.6533 27.355L58.8709 49.2085L71.2582 27.355H46.6533Z" fill="white"/>
</svg>
