<svg width="225" height="128" viewBox="0 0 225 128" fill="none" xmlns="http://www.w3.org/2000/svg">
<path opacity="0.8" d="M161.647 127.728H2.87124C2.28864 127.728 1.72987 127.496 1.31792 127.085C0.905961 126.673 0.674561 126.115 0.674561 125.533C0.674561 124.95 0.905961 124.392 1.31792 123.98C1.72987 123.569 2.28864 123.337 2.87124 123.337H161.647C177.307 123.337 192.326 117.121 203.4 106.055C214.473 94.9895 220.694 79.9813 220.694 64.3321C220.694 48.6829 214.473 33.6747 203.4 22.609C192.326 11.5434 177.307 5.3268 161.647 5.3268H65.9599C65.3773 5.3268 64.8185 5.0955 64.4065 4.68383C63.9946 4.27216 63.7632 3.71385 63.7632 3.13166C63.7632 2.54948 63.9946 1.9911 64.4065 1.57943C64.8185 1.16776 65.3773 0.936523 65.9599 0.936523H161.647C178.473 0.936523 194.609 7.61565 206.506 19.5046C218.403 31.3936 225.087 47.5185 225.087 64.3321C225.087 81.1456 218.403 97.2706 206.506 109.16C194.609 121.049 178.473 127.728 161.647 127.728Z" fill="#5B5B5B"/>
</svg>
