<svg width="333" height="205" viewBox="0 0 333 205" fill="none" xmlns="http://www.w3.org/2000/svg">
<path d="M230.55 204.219C230.317 204.219 230.094 204.126 229.929 203.961C229.764 203.797 229.672 203.573 229.672 203.34C229.658 203.222 229.671 203.101 229.71 202.988C229.749 202.875 229.813 202.773 229.898 202.688C229.982 202.604 230.085 202.54 230.198 202.5C230.311 202.461 230.432 202.448 230.55 202.462C257.14 202.462 282.641 191.907 301.442 173.119C320.244 154.33 330.807 128.847 330.807 102.276C330.807 75.7052 320.244 50.2225 301.442 31.4339C282.641 12.6454 257.14 2.0901 230.55 2.0901H102.089C75.5518 2.18298 50.1324 12.7765 31.3926 31.5524C12.6529 50.3284 2.11894 75.7579 2.09586 102.276C2.09586 102.509 2.00329 102.732 1.83851 102.897C1.67372 103.062 1.45024 103.154 1.21721 103.154C1.09841 103.168 0.977962 103.155 0.864925 103.116C0.751887 103.077 0.649188 103.013 0.564598 102.928C0.480007 102.844 0.415719 102.741 0.376558 102.628C0.337397 102.515 0.324418 102.395 0.338548 102.276C0.361772 75.2618 11.105 49.3592 30.2122 30.2488C49.3195 11.1385 75.231 0.380471 102.264 0.333984H230.55C257.606 0.333984 283.554 11.0743 302.685 30.1922C321.816 49.3101 332.564 75.2395 332.564 102.276C332.564 129.313 321.816 155.242 302.685 174.36C283.554 193.478 257.606 204.219 230.55 204.219Z" fill="#F8E4AE"/>
</svg>
