<svg width="333" height="205" viewBox="0 0 333 205" fill="none" xmlns="http://www.w3.org/2000/svg">
<path d="M102.858 204.219C75.8023 204.219 49.8547 193.478 30.7234 174.36C11.5921 155.242 0.844238 129.313 0.844238 102.276C0.844238 75.2395 11.5921 49.3101 30.7234 30.1922C49.8547 11.0743 75.8023 0.333984 102.858 0.333984H230.88C257.922 0.380415 283.842 11.1357 302.964 30.2435C322.085 49.3513 332.848 75.2537 332.894 102.276C332.908 102.395 332.895 102.515 332.856 102.628C332.817 102.741 332.753 102.844 332.668 102.928C332.583 103.013 332.481 103.077 332.368 103.116C332.255 103.155 332.134 103.168 332.016 103.154C331.783 103.154 331.559 103.062 331.394 102.897C331.229 102.732 331.137 102.509 331.137 102.276C331.114 75.7124 320.543 50.2431 301.747 31.4596C282.95 12.6761 257.463 2.11335 230.88 2.0901H102.858C76.2683 2.0901 50.7677 12.6454 31.966 31.4339C13.1643 50.2225 2.60158 75.7052 2.60158 102.276C2.60158 128.847 13.1643 154.33 31.966 173.119C50.7677 191.907 76.2683 202.462 102.858 202.462C102.973 202.462 103.088 202.485 103.194 202.529C103.301 202.573 103.398 202.638 103.479 202.72C103.561 202.801 103.626 202.898 103.67 203.004C103.714 203.111 103.737 203.225 103.737 203.34C103.717 203.567 103.618 203.779 103.457 203.939C103.297 204.1 103.084 204.199 102.858 204.219Z" fill="#F8E4AE"/>
</svg>
