<svg width="107" height="204" viewBox="0 0 107 204" fill="none" xmlns="http://www.w3.org/2000/svg">
<path d="M1.65374 203.874C1.53495 203.888 1.4145 203.875 1.30146 203.836C1.18842 203.797 1.08574 203.732 1.00115 203.648C0.916561 203.563 0.852257 203.461 0.813095 203.348C0.773934 203.235 0.760939 203.114 0.775068 202.996C0.775068 202.763 0.867642 202.54 1.03242 202.375C1.19721 202.21 1.42071 202.118 1.65374 202.118C15.0635 202.514 28.4166 200.218 40.922 195.364C53.4273 190.51 64.8306 183.197 74.4563 173.859C84.082 164.52 91.7342 153.346 96.9598 140.999C102.185 128.652 104.878 115.382 104.878 101.975C104.878 88.5692 102.185 75.2993 96.9598 62.9518C91.7342 50.6044 84.082 39.4305 74.4563 30.0923C64.8306 20.754 53.4273 13.4412 40.922 8.58709C28.4166 3.733 15.0635 1.43635 1.65374 1.83319C1.42071 1.83319 1.19721 1.74069 1.03242 1.57602C0.867642 1.41135 0.775068 1.18803 0.775068 0.955151C0.760939 0.836443 0.773934 0.716075 0.813095 0.603117C0.852257 0.490159 0.916561 0.387532 1.00115 0.303001C1.08574 0.21847 1.18842 0.154227 1.30146 0.115093C1.4145 0.0759588 1.53495 0.0629897 1.65374 0.0771093C15.2965 -0.323131 28.8809 2.01639 41.6024 6.95722C54.324 11.898 65.9241 19.3396 75.7157 28.8413C85.5073 38.343 93.2913 49.7116 98.6068 62.2738C103.922 74.836 106.661 88.3364 106.661 101.975C106.661 115.614 103.922 129.115 98.6068 141.677C93.2913 154.239 85.5073 165.608 75.7157 175.109C65.9241 184.611 54.324 192.053 41.6024 196.994C28.8809 201.934 15.2965 204.274 1.65374 203.874Z" fill="#F8E4AE"/>
</svg>
