<svg width="107" height="204" viewBox="0 0 107 204" fill="none" xmlns="http://www.w3.org/2000/svg">
<path d="M105.403 203.874C91.7601 204.274 78.1758 201.934 65.4542 196.994C52.7326 192.053 41.1325 184.611 31.3409 175.109C21.5493 165.608 13.7653 154.239 8.44984 141.677C3.13436 129.115 0.395508 115.614 0.395508 101.975C0.395508 88.3364 3.13436 74.836 8.44984 62.2738C13.7653 49.7116 21.5493 38.343 31.3409 28.8413C41.1325 19.3396 52.7326 11.898 65.4542 6.95722C78.1758 2.01639 91.7601 -0.323131 105.403 0.0771093C105.636 0.0771093 105.859 0.169618 106.024 0.334285C106.189 0.498952 106.282 0.722277 106.282 0.955151C106.262 1.18138 106.163 1.3934 106.002 1.55398C105.841 1.71456 105.629 1.81341 105.403 1.83319C91.9931 1.43635 78.64 3.733 66.1346 8.58709C53.6292 13.4412 42.226 20.754 32.6003 30.0923C22.9746 39.4305 15.3223 50.6044 10.0968 62.9518C4.87127 75.2993 2.17877 88.5692 2.17877 101.975C2.17877 115.382 4.87127 128.652 10.0968 140.999C15.3223 153.346 22.9746 164.52 32.6003 173.859C42.226 183.197 53.6292 190.51 66.1346 195.364C78.64 200.218 91.9931 202.514 105.403 202.118C105.629 202.137 105.841 202.236 106.002 202.397C106.163 202.558 106.262 202.77 106.282 202.996C106.282 203.111 106.259 203.225 106.215 203.332C106.17 203.438 106.106 203.535 106.024 203.617C105.943 203.698 105.846 203.763 105.739 203.807C105.632 203.851 105.518 203.874 105.403 203.874Z" fill="#F8E4AE"/>
</svg>
