<svg width="333" height="205" viewBox="0 0 333 205" fill="none" xmlns="http://www.w3.org/2000/svg">
<path d="M230.88 204.773H102.858C75.8023 204.773 49.8547 194.032 30.7234 174.914C11.5921 155.797 0.844238 129.867 0.844238 102.83C0.844238 75.7937 11.5921 49.8643 30.7234 30.7464C49.8547 11.6285 75.8023 0.888184 102.858 0.888184C103.084 0.907965 103.297 1.00682 103.457 1.1674C103.618 1.32798 103.717 1.54006 103.737 1.76629C103.737 1.8816 103.714 1.99572 103.67 2.10225C103.626 2.20878 103.561 2.30562 103.479 2.38716C103.398 2.46869 103.301 2.53335 103.194 2.57748C103.088 2.6216 102.973 2.64433 102.858 2.64433C76.2683 2.64433 50.7677 13.1996 31.966 31.9882C13.1643 50.7767 2.60158 76.2594 2.60158 102.83C2.60158 129.401 13.1643 154.884 31.966 173.673C50.7677 192.461 76.2683 203.017 102.858 203.017H230.88C257.463 202.993 282.95 192.431 301.747 173.647C320.543 154.864 331.113 129.394 331.137 102.83C331.157 102.604 331.256 102.392 331.416 102.232C331.577 102.071 331.789 101.972 332.016 101.952C332.249 101.952 332.472 102.045 332.637 102.21C332.802 102.374 332.894 102.598 332.894 102.83C332.848 129.853 322.085 155.755 302.964 174.863C283.842 193.971 257.922 204.726 230.88 204.773Z" fill="#F8E4AE"/>
</svg>
