<svg width="333" height="205" viewBox="0 0 333 205" fill="none" xmlns="http://www.w3.org/2000/svg">
<path d="M230.549 204.773H102.087C75.0539 204.726 49.1424 193.968 30.0351 174.858C10.9279 155.747 0.184601 129.845 0.161377 102.83C0.161377 102.598 0.25395 102.374 0.418733 102.21C0.583516 102.045 0.806997 101.952 1.04003 101.952C1.26642 101.972 1.47859 102.071 1.63928 102.232C1.79997 102.392 1.89896 102.604 1.91876 102.83C1.94198 129.379 12.5001 154.835 31.2777 173.616C50.0554 192.397 75.52 202.97 102.087 203.017H230.549C257.139 203.017 282.639 192.461 301.441 173.673C320.243 154.884 330.805 129.401 330.805 102.83C330.805 76.2594 320.243 50.7767 301.441 31.9882C282.639 13.1996 257.139 2.64433 230.549 2.64433C230.43 2.65845 230.31 2.64542 230.197 2.60628C230.084 2.56715 229.981 2.50291 229.896 2.41838C229.812 2.33385 229.747 2.23128 229.708 2.11833C229.669 2.00537 229.656 1.885 229.67 1.76629C229.67 1.53342 229.763 1.31003 229.928 1.14536C230.092 0.980692 230.316 0.888184 230.549 0.888184C257.605 0.888184 283.552 11.6285 302.684 30.7464C321.815 49.8643 332.563 75.7937 332.563 102.83C332.563 129.867 321.815 155.797 302.684 174.914C283.552 194.032 257.605 204.773 230.549 204.773Z" fill="#F8E4AE"/>
</svg>
