<svg width="49" height="57" viewBox="0 0 49 57" fill="none" xmlns="http://www.w3.org/2000/svg">
<path d="M1.31844 16.362C1.55034 16.362 1.73844 16.174 1.73844 15.942C1.73844 15.7101 1.55034 15.522 1.31844 15.522C1.08644 15.522 0.898438 15.7101 0.898438 15.942C0.898438 16.174 1.08644 16.362 1.31844 16.362Z" fill="white"/>
<path d="M10.6185 16.2921C10.8505 16.2921 11.0385 16.1042 11.0385 15.8722C11.0385 15.6402 10.8505 15.4521 10.6185 15.4521C10.3866 15.4521 10.1985 15.6402 10.1985 15.8722C10.1985 16.1042 10.3866 16.2921 10.6185 16.2921Z" fill="white"/>
<path d="M5.96858 19.0324C6.20058 19.0324 6.38858 18.8443 6.38858 18.6124C6.38858 18.3804 6.20058 18.1924 5.96858 18.1924C5.73668 18.1924 5.54858 18.3804 5.54858 18.6124C5.54858 18.8443 5.73668 19.0324 5.96858 19.0324Z" fill="white"/>
<path d="M1.31844 21.7824C1.55034 21.7824 1.73844 21.5943 1.73844 21.3624C1.73844 21.1304 1.55034 20.9424 1.31844 20.9424C1.08644 20.9424 0.898438 21.1304 0.898438 21.3624C0.898438 21.5943 1.08644 21.7824 1.31844 21.7824Z" fill="white"/>
<path d="M24.5685 13.9124C25.049 13.9124 25.4385 13.5228 25.4385 13.0424C25.4385 12.5619 25.049 12.1724 24.5685 12.1724C24.0881 12.1724 23.6985 12.5619 23.6985 13.0424C23.6985 13.5228 24.0881 13.9124 24.5685 13.9124Z" fill="white"/>
<path d="M19.9186 16.6624C20.3991 16.6624 20.7886 16.2728 20.7886 15.7924C20.7886 15.3119 20.3991 14.9224 19.9186 14.9224C19.4382 14.9224 19.0486 15.3119 19.0486 15.7924C19.0486 16.2728 19.4382 16.6624 19.9186 16.6624Z" fill="white"/>
<path d="M15.2684 19.4124C15.7489 19.4124 16.1384 19.0228 16.1384 18.5424C16.1384 18.0619 15.7489 17.6724 15.2684 17.6724C14.7879 17.6724 14.3984 18.0619 14.3984 18.5424C14.3984 19.0228 14.7879 19.4124 15.2684 19.4124Z" fill="white"/>
<path d="M10.6185 22.1624C11.099 22.1624 11.4885 21.7728 11.4885 21.2924C11.4885 20.8119 11.099 20.4224 10.6185 20.4224C10.138 20.4224 9.74854 20.8119 9.74854 21.2924C9.74854 21.7728 10.138 22.1624 10.6185 22.1624Z" fill="white"/>
<path d="M5.96864 24.9021C6.44914 24.9021 6.83863 24.5125 6.83863 24.0321C6.83863 23.5516 6.44914 23.1621 5.96864 23.1621C5.48814 23.1621 5.09863 23.5516 5.09863 24.0321C5.09863 24.5125 5.48814 24.9021 5.96864 24.9021Z" fill="white"/>
<path d="M1.31844 27.2018C1.55034 27.2018 1.73844 27.0138 1.73844 26.7818C1.73844 26.5498 1.55034 26.3618 1.31844 26.3618C1.08644 26.3618 0.898438 26.5498 0.898438 26.7818C0.898438 27.0138 1.08644 27.2018 1.31844 27.2018Z" fill="white"/>
<path d="M24.5686 20.2022C25.5295 20.2022 26.3086 19.4232 26.3086 18.4622C26.3086 17.5012 25.5295 16.7222 24.5686 16.7222C23.6076 16.7222 22.8286 17.5012 22.8286 18.4622C22.8286 19.4232 23.6076 20.2022 24.5686 20.2022Z" fill="white"/>
<path d="M19.9187 22.9522C20.8796 22.9522 21.6587 22.1732 21.6587 21.2122C21.6587 20.2512 20.8796 19.4722 19.9187 19.4722C18.9577 19.4722 18.1787 20.2512 18.1787 21.2122C18.1787 22.1732 18.9577 22.9522 19.9187 22.9522Z" fill="white"/>
<path d="M15.2686 25.7022C16.2296 25.7022 17.0086 24.9232 17.0086 23.9622C17.0086 23.0012 16.2296 22.2222 15.2686 22.2222C14.3077 22.2222 13.5286 23.0012 13.5286 23.9622C13.5286 24.9232 14.3077 25.7022 15.2686 25.7022Z" fill="white"/>
<path d="M10.6184 28.4419C11.5793 28.4419 12.3584 27.6629 12.3584 26.7019C12.3584 25.7409 11.5793 24.9619 10.6184 24.9619C9.65742 24.9619 8.87842 25.7409 8.87842 26.7019C8.87842 27.6629 9.65742 28.4419 10.6184 28.4419Z" fill="white"/>
<path d="M5.96864 30.322C6.44914 30.322 6.83863 29.9325 6.83863 29.452C6.83863 28.9715 6.44914 28.582 5.96864 28.582C5.48814 28.582 5.09863 28.9715 5.09863 29.452C5.09863 29.9325 5.48814 30.322 5.96864 30.322Z" fill="white"/>
<path d="M1.31844 32.6217C1.55034 32.6217 1.73844 32.4337 1.73844 32.2017C1.73844 31.9698 1.55034 31.7817 1.31844 31.7817C1.08644 31.7817 0.898438 31.9698 0.898438 32.2017C0.898438 32.4337 1.08644 32.6217 1.31844 32.6217Z" fill="white"/>
<path d="M24.5686 25.6221C25.5295 25.6221 26.3086 24.8431 26.3086 23.8821C26.3086 22.9212 25.5295 22.1421 24.5686 22.1421C23.6076 22.1421 22.8286 22.9212 22.8286 23.8821C22.8286 24.8431 23.6076 25.6221 24.5686 25.6221Z" fill="white"/>
<path d="M19.9187 28.3721C20.8796 28.3721 21.6587 27.5931 21.6587 26.6321C21.6587 25.6712 20.8796 24.8921 19.9187 24.8921C18.9577 24.8921 18.1787 25.6712 18.1787 26.6321C18.1787 27.5931 18.9577 28.3721 19.9187 28.3721Z" fill="white"/>
<path d="M15.2686 31.1118C16.2296 31.1118 17.0086 30.3328 17.0086 29.3718C17.0086 28.4109 16.2296 27.6318 15.2686 27.6318C14.3077 27.6318 13.5286 28.4109 13.5286 29.3718C13.5286 30.3328 14.3077 31.1118 15.2686 31.1118Z" fill="white"/>
<path d="M10.6184 33.8618C11.5793 33.8618 12.3584 33.0828 12.3584 32.1218C12.3584 31.1609 11.5793 30.3818 10.6184 30.3818C9.65742 30.3818 8.87842 31.1609 8.87842 32.1218C8.87842 33.0828 9.65742 33.8618 10.6184 33.8618Z" fill="white"/>
<path d="M5.96864 35.742C6.44914 35.742 6.83863 35.3525 6.83863 34.872C6.83863 34.3915 6.44914 34.002 5.96864 34.002C5.48814 34.002 5.09863 34.3915 5.09863 34.872C5.09863 35.3525 5.48814 35.742 5.96864 35.742Z" fill="white"/>
<path d="M1.31844 38.0421C1.55034 38.0421 1.73844 37.8541 1.73844 37.6221C1.73844 37.3901 1.55034 37.2021 1.31844 37.2021C1.08644 37.2021 0.898438 37.3901 0.898438 37.6221C0.898438 37.8541 1.08644 38.0421 1.31844 38.0421Z" fill="white"/>
<path d="M24.5685 30.1721C25.049 30.1721 25.4385 29.7826 25.4385 29.3021C25.4385 28.8216 25.049 28.4321 24.5685 28.4321C24.0881 28.4321 23.6985 28.8216 23.6985 29.3021C23.6985 29.7826 24.0881 30.1721 24.5685 30.1721Z" fill="white"/>
<path d="M19.9186 32.9124C20.3991 32.9124 20.7886 32.5228 20.7886 32.0424C20.7886 31.5619 20.3991 31.1724 19.9186 31.1724C19.4382 31.1724 19.0486 31.5619 19.0486 32.0424C19.0486 32.5228 19.4382 32.9124 19.9186 32.9124Z" fill="white"/>
<path d="M15.2684 35.6624C15.7489 35.6624 16.1384 35.2728 16.1384 34.7924C16.1384 34.3119 15.7489 33.9224 15.2684 33.9224C14.7879 33.9224 14.3984 34.3119 14.3984 34.7924C14.3984 35.2728 14.7879 35.6624 15.2684 35.6624Z" fill="white"/>
<path d="M10.6185 38.4124C11.099 38.4124 11.4885 38.0228 11.4885 37.5424C11.4885 37.0619 11.099 36.6724 10.6185 36.6724C10.138 36.6724 9.74854 37.0619 9.74854 37.5424C9.74854 38.0228 10.138 38.4124 10.6185 38.4124Z" fill="white"/>
<path d="M5.96858 40.7121C6.20058 40.7121 6.38858 40.5241 6.38858 40.2921C6.38858 40.0602 6.20058 39.8721 5.96858 39.8721C5.73668 39.8721 5.54858 40.0602 5.54858 40.2921C5.54858 40.5241 5.73668 40.7121 5.96858 40.7121Z" fill="white"/>
<path d="M1.31844 43.4621C1.55034 43.4621 1.73844 43.2741 1.73844 43.0421C1.73844 42.8102 1.55034 42.6221 1.31844 42.6221C1.08644 42.6221 0.898438 42.8102 0.898438 43.0421C0.898438 43.2741 1.08644 43.4621 1.31844 43.4621Z" fill="white"/>
<path d="M24.5684 35.132C24.8003 35.132 24.9884 34.944 24.9884 34.712C24.9884 34.4801 24.8003 34.292 24.5684 34.292C24.3364 34.292 24.1484 34.4801 24.1484 34.712C24.1484 34.944 24.3364 35.132 24.5684 35.132Z" fill="white"/>
<path d="M19.9185 37.882C20.1505 37.882 20.3385 37.694 20.3385 37.462C20.3385 37.2301 20.1505 37.042 19.9185 37.042C19.6866 37.042 19.4985 37.2301 19.4985 37.462C19.4985 37.694 19.6866 37.882 19.9185 37.882Z" fill="white"/>
<path d="M15.2686 40.632C15.5006 40.632 15.6886 40.444 15.6886 40.212C15.6886 39.9801 15.5006 39.792 15.2686 39.792C15.0366 39.792 14.8486 39.9801 14.8486 40.212C14.8486 40.444 15.0366 40.632 15.2686 40.632Z" fill="white"/>
<path d="M10.6185 43.382C10.8505 43.382 11.0385 43.194 11.0385 42.962C11.0385 42.7301 10.8505 42.542 10.6185 42.542C10.3866 42.542 10.1985 42.7301 10.1985 42.962C10.1985 43.194 10.3866 43.382 10.6185 43.382Z" fill="white"/>
<path d="M5.96858 46.132C6.20058 46.132 6.38858 45.944 6.38858 45.712C6.38858 45.4801 6.20058 45.292 5.96858 45.292C5.73668 45.292 5.54858 45.4801 5.54858 45.712C5.54858 45.944 5.73668 46.132 5.96858 46.132Z" fill="white"/>
<path d="M24.5684 40.5519C24.8003 40.5519 24.9884 40.3639 24.9884 40.1319C24.9884 39.8999 24.8003 39.7119 24.5684 39.7119C24.3364 39.7119 24.1484 39.8999 24.1484 40.1319C24.1484 40.3639 24.3364 40.5519 24.5684 40.5519Z" fill="white"/>
<path d="M19.9185 43.3019C20.1505 43.3019 20.3385 43.1139 20.3385 42.8819C20.3385 42.6499 20.1505 42.4619 19.9185 42.4619C19.6866 42.4619 19.4985 42.6499 19.4985 42.8819C19.4985 43.1139 19.6866 43.3019 19.9185 43.3019Z" fill="white"/>
<path d="M15.2686 46.0519C15.5006 46.0519 15.6886 45.8639 15.6886 45.6319C15.6886 45.3999 15.5006 45.2119 15.2686 45.2119C15.0366 45.2119 14.8486 45.3999 14.8486 45.6319C14.8486 45.8639 15.0366 46.0519 15.2686 46.0519Z" fill="white"/>
<path d="M10.6185 48.8019C10.8505 48.8019 11.0385 48.6139 11.0385 48.3819C11.0385 48.1499 10.8505 47.9619 10.6185 47.9619C10.3866 47.9619 10.1985 48.1499 10.1985 48.3819C10.1985 48.6139 10.3866 48.8019 10.6185 48.8019Z" fill="white"/>
<path d="M24.5684 45.9718C24.8003 45.9718 24.9884 45.7838 24.9884 45.5518C24.9884 45.3199 24.8003 45.1318 24.5684 45.1318C24.3364 45.1318 24.1484 45.3199 24.1484 45.5518C24.1484 45.7838 24.3364 45.9718 24.5684 45.9718Z" fill="white"/>
<path d="M19.9185 48.7218C20.1505 48.7218 20.3385 48.5338 20.3385 48.3018C20.3385 48.0699 20.1505 47.8818 19.9185 47.8818C19.6866 47.8818 19.4985 48.0699 19.4985 48.3018C19.4985 48.5338 19.6866 48.7218 19.9185 48.7218Z" fill="white"/>
<path d="M15.2686 51.4718C15.5006 51.4718 15.6886 51.2838 15.6886 51.0518C15.6886 50.8199 15.5006 50.6318 15.2686 50.6318C15.0366 50.6318 14.8486 50.8199 14.8486 51.0518C14.8486 51.2838 15.0366 51.4718 15.2686 51.4718Z" fill="white"/>
<path d="M24.5684 51.3918C24.8003 51.3918 24.9884 51.2038 24.9884 50.9718C24.9884 50.7399 24.8003 50.5518 24.5684 50.5518C24.3364 50.5518 24.1484 50.7399 24.1484 50.9718C24.1484 51.2038 24.3364 51.3918 24.5684 51.3918Z" fill="white"/>
<path d="M19.9185 54.1418C20.1505 54.1418 20.3385 53.9538 20.3385 53.7218C20.3385 53.4899 20.1505 53.3018 19.9185 53.3018C19.6866 53.3018 19.4985 53.4899 19.4985 53.7218C19.4985 53.9538 19.6866 54.1418 19.9185 54.1418Z" fill="white"/>
<path d="M24.5684 56.8122C24.8003 56.8122 24.9884 56.6242 24.9884 56.3922C24.9884 56.1603 24.8003 55.9722 24.5684 55.9722C24.3364 55.9722 24.1484 56.1603 24.1484 56.3922C24.1484 56.6242 24.3364 56.8122 24.5684 56.8122Z" fill="white"/>
<path d="M47.7585 16.362C47.9904 16.362 48.1785 16.174 48.1785 15.942C48.1785 15.7101 47.9904 15.522 47.7585 15.522C47.5265 15.522 47.3384 15.7101 47.3384 15.942C47.3384 16.174 47.5265 16.362 47.7585 16.362Z" fill="white"/>
<path d="M38.4486 16.2921C38.6806 16.2921 38.8686 16.1042 38.8686 15.8722C38.8686 15.6402 38.6806 15.4521 38.4486 15.4521C38.2167 15.4521 38.0286 15.6402 38.0286 15.8722C38.0286 16.1042 38.2167 16.2921 38.4486 16.2921Z" fill="white"/>
<path d="M43.1086 19.0324C43.3405 19.0324 43.5285 18.8443 43.5285 18.6124C43.5285 18.3804 43.3405 18.1924 43.1086 18.1924C42.8766 18.1924 42.6885 18.3804 42.6885 18.6124C42.6885 18.8443 42.8766 19.0324 43.1086 19.0324Z" fill="white"/>
<path d="M47.7585 21.7824C47.9904 21.7824 48.1785 21.5943 48.1785 21.3624C48.1785 21.1304 47.9904 20.9424 47.7585 20.9424C47.5265 20.9424 47.3384 21.1304 47.3384 21.3624C47.3384 21.5943 47.5265 21.7824 47.7585 21.7824Z" fill="white"/>
<path d="M24.4984 13.9124C24.9789 13.9124 25.3684 13.5228 25.3684 13.0424C25.3684 12.5619 24.9789 12.1724 24.4984 12.1724C24.0179 12.1724 23.6284 12.5619 23.6284 13.0424C23.6284 13.5228 24.0179 13.9124 24.4984 13.9124Z" fill="white"/>
<path d="M29.1487 16.6624C29.6291 16.6624 30.0186 16.2728 30.0186 15.7924C30.0186 15.3119 29.6291 14.9224 29.1487 14.9224C28.6682 14.9224 28.2786 15.3119 28.2786 15.7924C28.2786 16.2728 28.6682 16.6624 29.1487 16.6624Z" fill="white"/>
<path d="M33.7987 19.4124C34.2792 19.4124 34.6687 19.0228 34.6687 18.5424C34.6687 18.0619 34.2792 17.6724 33.7987 17.6724C33.3182 17.6724 32.9287 18.0619 32.9287 18.5424C32.9287 19.0228 33.3182 19.4124 33.7987 19.4124Z" fill="white"/>
<path d="M38.4486 22.1624C38.9291 22.1624 39.3186 21.7728 39.3186 21.2924C39.3186 20.8119 38.9291 20.4224 38.4486 20.4224C37.9681 20.4224 37.5786 20.8119 37.5786 21.2924C37.5786 21.7728 37.9681 22.1624 38.4486 22.1624Z" fill="white"/>
<path d="M43.1085 24.9021C43.589 24.9021 43.9785 24.5125 43.9785 24.0321C43.9785 23.5516 43.589 23.1621 43.1085 23.1621C42.628 23.1621 42.2385 23.5516 42.2385 24.0321C42.2385 24.5125 42.628 24.9021 43.1085 24.9021Z" fill="white"/>
<path d="M47.7585 27.2018C47.9904 27.2018 48.1785 27.0138 48.1785 26.7818C48.1785 26.5498 47.9904 26.3618 47.7585 26.3618C47.5265 26.3618 47.3384 26.5498 47.3384 26.7818C47.3384 27.0138 47.5265 27.2018 47.7585 27.2018Z" fill="white"/>
<path d="M24.4985 20.2022C25.4595 20.2022 26.2385 19.4232 26.2385 18.4622C26.2385 17.5012 25.4595 16.7222 24.4985 16.7222C23.5375 16.7222 22.7585 17.5012 22.7585 18.4622C22.7585 19.4232 23.5375 20.2022 24.4985 20.2022Z" fill="white"/>
<path d="M29.1487 22.9522C30.1097 22.9522 30.8887 22.1732 30.8887 21.2122C30.8887 20.2512 30.1097 19.4722 29.1487 19.4722C28.1877 19.4722 27.4087 20.2512 27.4087 21.2122C27.4087 22.1732 28.1877 22.9522 29.1487 22.9522Z" fill="white"/>
<path d="M33.7986 25.7022C34.7596 25.7022 35.5386 24.9232 35.5386 23.9622C35.5386 23.0012 34.7596 22.2222 33.7986 22.2222C32.8376 22.2222 32.0586 23.0012 32.0586 23.9622C32.0586 24.9232 32.8376 25.7022 33.7986 25.7022Z" fill="white"/>
<path d="M38.4484 28.4419C39.4094 28.4419 40.1884 27.6629 40.1884 26.7019C40.1884 25.7409 39.4094 24.9619 38.4484 24.9619C37.4875 24.9619 36.7085 25.7409 36.7085 26.7019C36.7085 27.6629 37.4875 28.4419 38.4484 28.4419Z" fill="white"/>
<path d="M43.1085 30.322C43.589 30.322 43.9785 29.9325 43.9785 29.452C43.9785 28.9715 43.589 28.582 43.1085 28.582C42.628 28.582 42.2385 28.9715 42.2385 29.452C42.2385 29.9325 42.628 30.322 43.1085 30.322Z" fill="white"/>
<path d="M47.7585 32.6217C47.9904 32.6217 48.1785 32.4337 48.1785 32.2017C48.1785 31.9698 47.9904 31.7817 47.7585 31.7817C47.5265 31.7817 47.3384 31.9698 47.3384 32.2017C47.3384 32.4337 47.5265 32.6217 47.7585 32.6217Z" fill="white"/>
<path d="M24.4985 25.6221C25.4595 25.6221 26.2385 24.8431 26.2385 23.8821C26.2385 22.9212 25.4595 22.1421 24.4985 22.1421C23.5375 22.1421 22.7585 22.9212 22.7585 23.8821C22.7585 24.8431 23.5375 25.6221 24.4985 25.6221Z" fill="white"/>
<path d="M29.1487 28.3721C30.1097 28.3721 30.8887 27.5931 30.8887 26.6321C30.8887 25.6712 30.1097 24.8921 29.1487 24.8921C28.1877 24.8921 27.4087 25.6712 27.4087 26.6321C27.4087 27.5931 28.1877 28.3721 29.1487 28.3721Z" fill="white"/>
<path d="M33.7986 31.1118C34.7596 31.1118 35.5386 30.3328 35.5386 29.3718C35.5386 28.4109 34.7596 27.6318 33.7986 27.6318C32.8376 27.6318 32.0586 28.4109 32.0586 29.3718C32.0586 30.3328 32.8376 31.1118 33.7986 31.1118Z" fill="white"/>
<path d="M38.4484 33.8618C39.4094 33.8618 40.1884 33.0828 40.1884 32.1218C40.1884 31.1609 39.4094 30.3818 38.4484 30.3818C37.4875 30.3818 36.7085 31.1609 36.7085 32.1218C36.7085 33.0828 37.4875 33.8618 38.4484 33.8618Z" fill="white"/>
<path d="M43.1085 35.742C43.589 35.742 43.9785 35.3525 43.9785 34.872C43.9785 34.3915 43.589 34.002 43.1085 34.002C42.628 34.002 42.2385 34.3915 42.2385 34.872C42.2385 35.3525 42.628 35.742 43.1085 35.742Z" fill="white"/>
<path d="M47.7585 38.0421C47.9904 38.0421 48.1785 37.8541 48.1785 37.6221C48.1785 37.3901 47.9904 37.2021 47.7585 37.2021C47.5265 37.2021 47.3384 37.3901 47.3384 37.6221C47.3384 37.8541 47.5265 38.0421 47.7585 38.0421Z" fill="white"/>
<path d="M24.4984 30.1721C24.9789 30.1721 25.3684 29.7826 25.3684 29.3021C25.3684 28.8216 24.9789 28.4321 24.4984 28.4321C24.0179 28.4321 23.6284 28.8216 23.6284 29.3021C23.6284 29.7826 24.0179 30.1721 24.4984 30.1721Z" fill="white"/>
<path d="M29.1487 32.9124C29.6291 32.9124 30.0186 32.5228 30.0186 32.0424C30.0186 31.5619 29.6291 31.1724 29.1487 31.1724C28.6682 31.1724 28.2786 31.5619 28.2786 32.0424C28.2786 32.5228 28.6682 32.9124 29.1487 32.9124Z" fill="white"/>
<path d="M33.7987 35.6624C34.2792 35.6624 34.6687 35.2728 34.6687 34.7924C34.6687 34.3119 34.2792 33.9224 33.7987 33.9224C33.3182 33.9224 32.9287 34.3119 32.9287 34.7924C32.9287 35.2728 33.3182 35.6624 33.7987 35.6624Z" fill="white"/>
<path d="M38.4486 38.4124C38.9291 38.4124 39.3186 38.0228 39.3186 37.5424C39.3186 37.0619 38.9291 36.6724 38.4486 36.6724C37.9681 36.6724 37.5786 37.0619 37.5786 37.5424C37.5786 38.0228 37.9681 38.4124 38.4486 38.4124Z" fill="white"/>
<path d="M43.1086 40.7121C43.3405 40.7121 43.5285 40.5241 43.5285 40.2921C43.5285 40.0602 43.3405 39.8721 43.1086 39.8721C42.8766 39.8721 42.6885 40.0602 42.6885 40.2921C42.6885 40.5241 42.8766 40.7121 43.1086 40.7121Z" fill="white"/>
<path d="M47.7585 43.4621C47.9904 43.4621 48.1785 43.2741 48.1785 43.0421C48.1785 42.8102 47.9904 42.6221 47.7585 42.6221C47.5265 42.6221 47.3384 42.8102 47.3384 43.0421C47.3384 43.2741 47.5265 43.4621 47.7585 43.4621Z" fill="white"/>
<path d="M24.4986 35.132C24.7305 35.132 24.9186 34.944 24.9186 34.712C24.9186 34.4801 24.7305 34.292 24.4986 34.292C24.2666 34.292 24.0786 34.4801 24.0786 34.712C24.0786 34.944 24.2666 35.132 24.4986 35.132Z" fill="white"/>
<path d="M29.1485 37.882C29.3805 37.882 29.5685 37.694 29.5685 37.462C29.5685 37.2301 29.3805 37.042 29.1485 37.042C28.9165 37.042 28.7285 37.2301 28.7285 37.462C28.7285 37.694 28.9165 37.882 29.1485 37.882Z" fill="white"/>
<path d="M33.7984 40.632C34.0304 40.632 34.2184 40.444 34.2184 40.212C34.2184 39.9801 34.0304 39.792 33.7984 39.792C33.5664 39.792 33.3784 39.9801 33.3784 40.212C33.3784 40.444 33.5664 40.632 33.7984 40.632Z" fill="white"/>
<path d="M38.4486 43.382C38.6806 43.382 38.8686 43.194 38.8686 42.962C38.8686 42.7301 38.6806 42.542 38.4486 42.542C38.2167 42.542 38.0286 42.7301 38.0286 42.962C38.0286 43.194 38.2167 43.382 38.4486 43.382Z" fill="white"/>
<path d="M43.1086 46.132C43.3405 46.132 43.5285 45.944 43.5285 45.712C43.5285 45.4801 43.3405 45.292 43.1086 45.292C42.8766 45.292 42.6885 45.4801 42.6885 45.712C42.6885 45.944 42.8766 46.132 43.1086 46.132Z" fill="white"/>
<path d="M24.4986 40.5519C24.7305 40.5519 24.9186 40.3639 24.9186 40.1319C24.9186 39.8999 24.7305 39.7119 24.4986 39.7119C24.2666 39.7119 24.0786 39.8999 24.0786 40.1319C24.0786 40.3639 24.2666 40.5519 24.4986 40.5519Z" fill="white"/>
<path d="M29.1485 43.3019C29.3805 43.3019 29.5685 43.1139 29.5685 42.8819C29.5685 42.6499 29.3805 42.4619 29.1485 42.4619C28.9165 42.4619 28.7285 42.6499 28.7285 42.8819C28.7285 43.1139 28.9165 43.3019 29.1485 43.3019Z" fill="white"/>
<path d="M33.7984 46.0519C34.0304 46.0519 34.2184 45.8639 34.2184 45.6319C34.2184 45.3999 34.0304 45.2119 33.7984 45.2119C33.5664 45.2119 33.3784 45.3999 33.3784 45.6319C33.3784 45.8639 33.5664 46.0519 33.7984 46.0519Z" fill="white"/>
<path d="M38.4486 48.8019C38.6806 48.8019 38.8686 48.6139 38.8686 48.3819C38.8686 48.1499 38.6806 47.9619 38.4486 47.9619C38.2167 47.9619 38.0286 48.1499 38.0286 48.3819C38.0286 48.6139 38.2167 48.8019 38.4486 48.8019Z" fill="white"/>
<path d="M24.4986 45.9718C24.7305 45.9718 24.9186 45.7838 24.9186 45.5518C24.9186 45.3199 24.7305 45.1318 24.4986 45.1318C24.2666 45.1318 24.0786 45.3199 24.0786 45.5518C24.0786 45.7838 24.2666 45.9718 24.4986 45.9718Z" fill="white"/>
<path d="M29.1485 48.7218C29.3805 48.7218 29.5685 48.5338 29.5685 48.3018C29.5685 48.0699 29.3805 47.8818 29.1485 47.8818C28.9165 47.8818 28.7285 48.0699 28.7285 48.3018C28.7285 48.5338 28.9165 48.7218 29.1485 48.7218Z" fill="white"/>
<path d="M33.7984 51.4718C34.0304 51.4718 34.2184 51.2838 34.2184 51.0518C34.2184 50.8199 34.0304 50.6318 33.7984 50.6318C33.5664 50.6318 33.3784 50.8199 33.3784 51.0518C33.3784 51.2838 33.5664 51.4718 33.7984 51.4718Z" fill="white"/>
<path d="M24.4986 51.3918C24.7305 51.3918 24.9186 51.2038 24.9186 50.9718C24.9186 50.7399 24.7305 50.5518 24.4986 50.5518C24.2666 50.5518 24.0786 50.7399 24.0786 50.9718C24.0786 51.2038 24.2666 51.3918 24.4986 51.3918Z" fill="white"/>
<path d="M29.1485 54.1418C29.3805 54.1418 29.5685 53.9538 29.5685 53.7218C29.5685 53.4899 29.3805 53.3018 29.1485 53.3018C28.9165 53.3018 28.7285 53.4899 28.7285 53.7218C28.7285 53.9538 28.9165 54.1418 29.1485 54.1418Z" fill="white"/>
<path d="M24.4986 56.8122C24.7305 56.8122 24.9186 56.6242 24.9186 56.3922C24.9186 56.1603 24.7305 55.9722 24.4986 55.9722C24.2666 55.9722 24.0786 56.1603 24.0786 56.3922C24.0786 56.6242 24.2666 56.8122 24.4986 56.8122Z" fill="white"/>
<path d="M24.0186 1.59195C24.2505 1.59195 24.4386 1.40395 24.4386 1.17195C24.4386 0.940051 24.2505 0.751953 24.0186 0.751953C23.7866 0.751953 23.5986 0.940051 23.5986 1.17195C23.5986 1.40395 23.7866 1.59195 24.0186 1.59195Z" fill="white"/>
<path d="M19.3686 4.34195C19.6005 4.34195 19.7885 4.15395 19.7885 3.92195C19.7885 3.69005 19.6005 3.50195 19.3686 3.50195C19.1366 3.50195 18.9485 3.69005 18.9485 3.92195C18.9485 4.15395 19.1366 4.34195 19.3686 4.34195Z" fill="white"/>
<path d="M14.7183 7.09195C14.9503 7.09195 15.1383 6.90395 15.1383 6.67195C15.1383 6.44005 14.9503 6.25195 14.7183 6.25195C14.4864 6.25195 14.2983 6.44005 14.2983 6.67195C14.2983 6.90395 14.4864 7.09195 14.7183 7.09195Z" fill="white"/>
<path d="M10.0684 9.84195C10.3003 9.84195 10.4884 9.65395 10.4884 9.42195C10.4884 9.19005 10.3003 9.00195 10.0684 9.00195C9.83644 9.00195 9.64844 9.19005 9.64844 9.42195C9.64844 9.65395 9.83644 9.84195 10.0684 9.84195Z" fill="white"/>
<path d="M5.41853 12.592C5.65043 12.592 5.83854 12.404 5.83854 12.172C5.83854 11.9401 5.65043 11.752 5.41853 11.752C5.18653 11.752 4.99854 11.9401 4.99854 12.172C4.99854 12.404 5.18653 12.592 5.41853 12.592Z" fill="white"/>
<path d="M24.0186 7.01236C24.2505 7.01236 24.4386 6.82426 24.4386 6.59236C24.4386 6.36036 24.2505 6.17236 24.0186 6.17236C23.7866 6.17236 23.5986 6.36036 23.5986 6.59236C23.5986 6.82426 23.7866 7.01236 24.0186 7.01236Z" fill="white"/>
<path d="M19.3686 9.76236C19.6005 9.76236 19.7885 9.57426 19.7885 9.34236C19.7885 9.11036 19.6005 8.92236 19.3686 8.92236C19.1366 8.92236 18.9485 9.11036 18.9485 9.34236C18.9485 9.57426 19.1366 9.76236 19.3686 9.76236Z" fill="white"/>
<path d="M14.7183 12.5124C14.9503 12.5124 15.1383 12.3243 15.1383 12.0924C15.1383 11.8604 14.9503 11.6724 14.7183 11.6724C14.4864 11.6724 14.2983 11.8604 14.2983 12.0924C14.2983 12.3243 14.4864 12.5124 14.7183 12.5124Z" fill="white"/>
<path d="M23.9486 1.59195C24.1806 1.59195 24.3686 1.40395 24.3686 1.17195C24.3686 0.940051 24.1806 0.751953 23.9486 0.751953C23.7167 0.751953 23.5286 0.940051 23.5286 1.17195C23.5286 1.40395 23.7167 1.59195 23.9486 1.59195Z" fill="white"/>
<path d="M28.5985 4.34195C28.8305 4.34195 29.0185 4.15395 29.0185 3.92195C29.0185 3.69005 28.8305 3.50195 28.5985 3.50195C28.3666 3.50195 28.1785 3.69005 28.1785 3.92195C28.1785 4.15395 28.3666 4.34195 28.5985 4.34195Z" fill="white"/>
<path d="M33.2486 7.09195C33.4805 7.09195 33.6686 6.90395 33.6686 6.67195C33.6686 6.44005 33.4805 6.25195 33.2486 6.25195C33.0166 6.25195 32.8286 6.44005 32.8286 6.67195C32.8286 6.90395 33.0166 7.09195 33.2486 7.09195Z" fill="white"/>
<path d="M37.8985 9.84195C38.1305 9.84195 38.3185 9.65395 38.3185 9.42195C38.3185 9.19005 38.1305 9.00195 37.8985 9.00195C37.6665 9.00195 37.4785 9.19005 37.4785 9.42195C37.4785 9.65395 37.6665 9.84195 37.8985 9.84195Z" fill="white"/>
<path d="M42.5584 12.592C42.7904 12.592 42.9784 12.404 42.9784 12.172C42.9784 11.9401 42.7904 11.752 42.5584 11.752C42.3264 11.752 42.1384 11.9401 42.1384 12.172C42.1384 12.404 42.3264 12.592 42.5584 12.592Z" fill="white"/>
<path d="M23.9486 7.01236C24.1806 7.01236 24.3686 6.82426 24.3686 6.59236C24.3686 6.36036 24.1806 6.17236 23.9486 6.17236C23.7167 6.17236 23.5286 6.36036 23.5286 6.59236C23.5286 6.82426 23.7167 7.01236 23.9486 7.01236Z" fill="white"/>
<path d="M28.5985 9.76236C28.8305 9.76236 29.0185 9.57426 29.0185 9.34236C29.0185 9.11036 28.8305 8.92236 28.5985 8.92236C28.3666 8.92236 28.1785 9.11036 28.1785 9.34236C28.1785 9.57426 28.3666 9.76236 28.5985 9.76236Z" fill="white"/>
<path d="M33.2486 12.5124C33.4805 12.5124 33.6686 12.3243 33.6686 12.0924C33.6686 11.8604 33.4805 11.6724 33.2486 11.6724C33.0166 11.6724 32.8286 11.8604 32.8286 12.0924C32.8286 12.3243 33.0166 12.5124 33.2486 12.5124Z" fill="white"/>
</svg>
