<svg width="37" height="45" viewBox="0 0 37 45" fill="none" xmlns="http://www.w3.org/2000/svg">
<path d="M0.450572 12.9833C0.631414 12.9833 0.778101 12.8367 0.778101 12.6558C0.778101 12.4749 0.631414 12.3282 0.450572 12.3282C0.269653 12.3282 0.123047 12.4749 0.123047 12.6558C0.123047 12.8367 0.269653 12.9833 0.450572 12.9833Z" fill="white"/>
<path d="M7.70253 12.9287C7.88345 12.9287 8.03005 12.7821 8.03005 12.6012C8.03005 12.4203 7.88345 12.2737 7.70253 12.2737C7.52169 12.2737 7.375 12.4203 7.375 12.6012C7.375 12.7821 7.52169 12.9287 7.70253 12.9287Z" fill="white"/>
<path d="M4.07753 15.0655C4.25845 15.0655 4.40505 14.9188 4.40505 14.7379C4.40505 14.557 4.25845 14.4104 4.07753 14.4104C3.89668 14.4104 3.75 14.557 3.75 14.7379C3.75 14.9188 3.89668 15.0655 4.07753 15.0655Z" fill="white"/>
<path d="M0.450572 17.21C0.631414 17.21 0.778101 17.0633 0.778101 16.8825C0.778101 16.7015 0.631414 16.5549 0.450572 16.5549C0.269653 16.5549 0.123047 16.7015 0.123047 16.8825C0.123047 17.0633 0.269653 17.21 0.450572 17.21Z" fill="white"/>
<path d="M18.5808 11.0727C18.9555 11.0727 19.2592 10.7689 19.2592 10.3943C19.2592 10.0196 18.9555 9.71582 18.5808 9.71582C18.2062 9.71582 17.9023 10.0196 17.9023 10.3943C17.9023 10.7689 18.2062 11.0727 18.5808 11.0727Z" fill="white"/>
<path d="M14.9558 13.2172C15.3305 13.2172 15.6342 12.9134 15.6342 12.5388C15.6342 12.1641 15.3305 11.8604 14.9558 11.8604C14.5812 11.8604 14.2773 12.1641 14.2773 12.5388C14.2773 12.9134 14.5812 13.2172 14.9558 13.2172Z" fill="white"/>
<path d="M11.3288 15.3618C11.7035 15.3618 12.0073 15.058 12.0073 14.6833C12.0073 14.3086 11.7035 14.0049 11.3288 14.0049C10.9541 14.0049 10.6504 14.3086 10.6504 14.6833C10.6504 15.058 10.9541 15.3618 11.3288 15.3618Z" fill="white"/>
<path d="M7.70189 17.5063C8.07659 17.5063 8.38033 17.2025 8.38033 16.8279C8.38033 16.4532 8.07659 16.1494 7.70189 16.1494C7.32718 16.1494 7.02344 16.4532 7.02344 16.8279C7.02344 17.2025 7.32718 17.5063 7.70189 17.5063Z" fill="white"/>
<path d="M4.07689 19.643C4.45159 19.643 4.75534 19.3392 4.75534 18.9646C4.75534 18.5899 4.45159 18.2861 4.07689 18.2861C3.70218 18.2861 3.39844 18.5899 3.39844 18.9646C3.39844 19.3392 3.70218 19.643 4.07689 19.643Z" fill="white"/>
<path d="M0.450572 21.4364C0.631414 21.4364 0.778101 21.2898 0.778101 21.1089C0.778101 20.928 0.631414 20.7814 0.450572 20.7814C0.269653 20.7814 0.123047 20.928 0.123047 21.1089C0.123047 21.2898 0.269653 21.4364 0.450572 21.4364Z" fill="white"/>
<path d="M18.5815 15.9778C19.3308 15.9778 19.9384 15.3703 19.9384 14.6209C19.9384 13.8715 19.3308 13.264 18.5815 13.264C17.8321 13.264 17.2246 13.8715 17.2246 14.6209C17.2246 15.3703 17.8321 15.9778 18.5815 15.9778Z" fill="white"/>
<path d="M14.9565 18.1224C15.7058 18.1224 16.3134 17.5149 16.3134 16.7655C16.3134 16.0161 15.7058 15.4086 14.9565 15.4086C14.2071 15.4086 13.5996 16.0161 13.5996 16.7655C13.5996 17.5149 14.2071 18.1224 14.9565 18.1224Z" fill="white"/>
<path d="M11.3296 20.2669C12.079 20.2669 12.6865 19.6594 12.6865 18.91C12.6865 18.1606 12.079 17.5531 11.3296 17.5531C10.5802 17.5531 9.97266 18.1606 9.97266 18.91C9.97266 19.6594 10.5802 20.2669 11.3296 20.2669Z" fill="white"/>
<path d="M7.7026 22.4036C8.45194 22.4036 9.0595 21.7961 9.0595 21.0467C9.0595 20.2973 8.45194 19.6898 7.7026 19.6898C6.95319 19.6898 6.3457 20.2973 6.3457 21.0467C6.3457 21.7961 6.95319 22.4036 7.7026 22.4036Z" fill="white"/>
<path d="M4.07689 23.8695C4.45159 23.8695 4.75534 23.5657 4.75534 23.191C4.75534 22.8163 4.45159 22.5126 4.07689 22.5126C3.70218 22.5126 3.39844 22.8163 3.39844 23.191C3.39844 23.5657 3.70218 23.8695 4.07689 23.8695Z" fill="white"/>
<path d="M0.450572 25.6632C0.631414 25.6632 0.778101 25.5166 0.778101 25.3357C0.778101 25.1549 0.631414 25.0082 0.450572 25.0082C0.269653 25.0082 0.123047 25.1549 0.123047 25.3357C0.123047 25.5166 0.269653 25.6632 0.450572 25.6632Z" fill="white"/>
<path d="M18.5815 20.2045C19.3308 20.2045 19.9384 19.597 19.9384 18.8476C19.9384 18.0983 19.3308 17.4907 18.5815 17.4907C17.8321 17.4907 17.2246 18.0983 17.2246 18.8476C17.2246 19.597 17.8321 20.2045 18.5815 20.2045Z" fill="white"/>
<path d="M14.9565 22.3488C15.7058 22.3488 16.3134 21.7413 16.3134 20.9919C16.3134 20.2426 15.7058 19.635 14.9565 19.635C14.2071 19.635 13.5996 20.2426 13.5996 20.9919C13.5996 21.7413 14.2071 22.3488 14.9565 22.3488Z" fill="white"/>
<path d="M11.3296 24.4855C12.079 24.4855 12.6865 23.878 12.6865 23.1286C12.6865 22.3793 12.079 21.7717 11.3296 21.7717C10.5802 21.7717 9.97266 22.3793 9.97266 23.1286C9.97266 23.878 10.5802 24.4855 11.3296 24.4855Z" fill="white"/>
<path d="M7.7026 26.6301C8.45194 26.6301 9.0595 26.0226 9.0595 25.2732C9.0595 24.5238 8.45194 23.9163 7.7026 23.9163C6.95319 23.9163 6.3457 24.5238 6.3457 25.2732C6.3457 26.0226 6.95319 26.6301 7.7026 26.6301Z" fill="white"/>
<path d="M4.07689 28.0963C4.45159 28.0963 4.75534 27.7925 4.75534 27.4178C4.75534 27.0431 4.45159 26.7394 4.07689 26.7394C3.70218 26.7394 3.39844 27.0431 3.39844 27.4178C3.39844 27.7925 3.70218 28.0963 4.07689 28.0963Z" fill="white"/>
<path d="M0.450572 29.8899C0.631414 29.8899 0.778101 29.7433 0.778101 29.5624C0.778101 29.3815 0.631414 29.2349 0.450572 29.2349C0.269653 29.2349 0.123047 29.3815 0.123047 29.5624C0.123047 29.7433 0.269653 29.8899 0.450572 29.8899Z" fill="white"/>
<path d="M18.5808 23.7526C18.9555 23.7526 19.2592 23.4489 19.2592 23.0742C19.2592 22.6995 18.9555 22.3958 18.5808 22.3958C18.2062 22.3958 17.9023 22.6995 17.9023 23.0742C17.9023 23.4489 18.2062 23.7526 18.5808 23.7526Z" fill="white"/>
<path d="M14.9558 25.8894C15.3305 25.8894 15.6342 25.5855 15.6342 25.2109C15.6342 24.8362 15.3305 24.5325 14.9558 24.5325C14.5812 24.5325 14.2773 24.8362 14.2773 25.2109C14.2773 25.5855 14.5812 25.8894 14.9558 25.8894Z" fill="white"/>
<path d="M11.3288 28.0339C11.7035 28.0339 12.0073 27.7301 12.0073 27.3555C12.0073 26.9807 11.7035 26.677 11.3288 26.677C10.9541 26.677 10.6504 26.9807 10.6504 27.3555C10.6504 27.7301 10.9541 28.0339 11.3288 28.0339Z" fill="white"/>
<path d="M7.70189 30.1784C8.07659 30.1784 8.38033 29.8746 8.38033 29.5C8.38033 29.1253 8.07659 28.8215 7.70189 28.8215C7.32718 28.8215 7.02344 29.1253 7.02344 29.5C7.02344 29.8746 7.32718 30.1784 7.70189 30.1784Z" fill="white"/>
<path d="M4.07753 31.9718C4.25845 31.9718 4.40505 31.8252 4.40505 31.6443C4.40505 31.4635 4.25845 31.3168 4.07753 31.3168C3.89668 31.3168 3.75 31.4635 3.75 31.6443C3.75 31.8252 3.89668 31.9718 4.07753 31.9718Z" fill="white"/>
<path d="M0.450572 34.1165C0.631414 34.1165 0.778101 33.9699 0.778101 33.789C0.778101 33.6081 0.631414 33.4614 0.450572 33.4614C0.269653 33.4614 0.123047 33.6081 0.123047 33.789C0.123047 33.9699 0.269653 34.1165 0.450572 34.1165Z" fill="white"/>
<path d="M18.5814 27.6204C18.7623 27.6204 18.909 27.4738 18.909 27.2929C18.909 27.112 18.7623 26.9653 18.5814 26.9653C18.4005 26.9653 18.2539 27.112 18.2539 27.2929C18.2539 27.4738 18.4005 27.6204 18.5814 27.6204Z" fill="white"/>
<path d="M14.9564 29.7649C15.1374 29.7649 15.284 29.6183 15.284 29.4374C15.284 29.2565 15.1374 29.1099 14.9564 29.1099C14.7756 29.1099 14.6289 29.2565 14.6289 29.4374C14.6289 29.6183 14.7756 29.7649 14.9564 29.7649Z" fill="white"/>
<path d="M11.3295 31.9096C11.5104 31.9096 11.657 31.763 11.657 31.582C11.657 31.4012 11.5104 31.2545 11.3295 31.2545C11.1486 31.2545 11.002 31.4012 11.002 31.582C11.002 31.763 11.1486 31.9096 11.3295 31.9096Z" fill="white"/>
<path d="M7.70253 34.0541C7.88345 34.0541 8.03005 33.9075 8.03005 33.7266C8.03005 33.5457 7.88345 33.399 7.70253 33.399C7.52169 33.399 7.375 33.5457 7.375 33.7266C7.375 33.9075 7.52169 34.0541 7.70253 34.0541Z" fill="white"/>
<path d="M4.07753 36.1986C4.25845 36.1986 4.40505 36.052 4.40505 35.8711C4.40505 35.6903 4.25845 35.5436 4.07753 35.5436C3.89668 35.5436 3.75 35.6903 3.75 35.8711C3.75 36.052 3.89668 36.1986 4.07753 36.1986Z" fill="white"/>
<path d="M18.5814 31.8474C18.7623 31.8474 18.909 31.7008 18.909 31.5199C18.909 31.339 18.7623 31.1924 18.5814 31.1924C18.4005 31.1924 18.2539 31.339 18.2539 31.5199C18.2539 31.7008 18.4005 31.8474 18.5814 31.8474Z" fill="white"/>
<path d="M14.9564 33.9917C15.1374 33.9917 15.284 33.8451 15.284 33.6642C15.284 33.4833 15.1374 33.3367 14.9564 33.3367C14.7756 33.3367 14.6289 33.4833 14.6289 33.6642C14.6289 33.8451 14.7756 33.9917 14.9564 33.9917Z" fill="white"/>
<path d="M11.3295 36.1363C11.5104 36.1363 11.657 35.9897 11.657 35.8087C11.657 35.6278 11.5104 35.4812 11.3295 35.4812C11.1486 35.4812 11.002 35.6278 11.002 35.8087C11.002 35.9897 11.1486 36.1363 11.3295 36.1363Z" fill="white"/>
<path d="M7.70253 38.2808C7.88345 38.2808 8.03005 38.1342 8.03005 37.9533C8.03005 37.7723 7.88345 37.6257 7.70253 37.6257C7.52169 37.6257 7.375 37.7723 7.375 37.9533C7.375 38.1342 7.52169 38.2808 7.70253 38.2808Z" fill="white"/>
<path d="M18.5814 36.0739C18.7623 36.0739 18.909 35.9273 18.909 35.7464C18.909 35.5655 18.7623 35.4188 18.5814 35.4188C18.4005 35.4188 18.2539 35.5655 18.2539 35.7464C18.2539 35.9273 18.4005 36.0739 18.5814 36.0739Z" fill="white"/>
<path d="M14.9564 38.2184C15.1374 38.2184 15.284 38.0718 15.284 37.8909C15.284 37.71 15.1374 37.5634 14.9564 37.5634C14.7756 37.5634 14.6289 37.71 14.6289 37.8909C14.6289 38.0718 14.7756 38.2184 14.9564 38.2184Z" fill="white"/>
<path d="M11.3295 40.3629C11.5104 40.3629 11.657 40.2163 11.657 40.0354C11.657 39.8546 11.5104 39.7079 11.3295 39.7079C11.1486 39.7079 11.002 39.8546 11.002 40.0354C11.002 40.2163 11.1486 40.3629 11.3295 40.3629Z" fill="white"/>
<path d="M18.5814 40.3006C18.7623 40.3006 18.909 40.154 18.909 39.973C18.909 39.7922 18.7623 39.6455 18.5814 39.6455C18.4005 39.6455 18.2539 39.7922 18.2539 39.973C18.2539 40.154 18.4005 40.3006 18.5814 40.3006Z" fill="white"/>
<path d="M14.9564 42.4448C15.1374 42.4448 15.284 42.2982 15.284 42.1173C15.284 41.9365 15.1374 41.7898 14.9564 41.7898C14.7756 41.7898 14.6289 41.9365 14.6289 42.1173C14.6289 42.2982 14.7756 42.4448 14.9564 42.4448Z" fill="white"/>
<path d="M18.5814 44.5274C18.7623 44.5274 18.909 44.3808 18.909 44.1998C18.909 44.019 18.7623 43.8723 18.5814 43.8723C18.4005 43.8723 18.2539 44.019 18.2539 44.1998C18.2539 44.3808 18.4005 44.5274 18.5814 44.5274Z" fill="white"/>
<path d="M36.6655 12.9833C36.8463 12.9833 36.993 12.8367 36.993 12.6558C36.993 12.4749 36.8463 12.3282 36.6655 12.3282C36.4846 12.3282 36.3379 12.4749 36.3379 12.6558C36.3379 12.8367 36.4846 12.9833 36.6655 12.9833Z" fill="white"/>
<path d="M29.4057 12.9287C29.5866 12.9287 29.7332 12.7821 29.7332 12.6012C29.7332 12.4203 29.5866 12.2737 29.4057 12.2737C29.2248 12.2737 29.0781 12.4203 29.0781 12.6012C29.0781 12.7821 29.2248 12.9287 29.4057 12.9287Z" fill="white"/>
<path d="M33.0405 15.0655C33.2213 15.0655 33.3679 14.9188 33.3679 14.7379C33.3679 14.557 33.2213 14.4104 33.0405 14.4104C32.8596 14.4104 32.7129 14.557 32.7129 14.7379C32.7129 14.9188 32.8596 15.0655 33.0405 15.0655Z" fill="white"/>
<path d="M36.6655 17.21C36.8463 17.21 36.993 17.0633 36.993 16.8825C36.993 16.7015 36.8463 16.5549 36.6655 16.5549C36.4846 16.5549 36.3379 16.7015 36.3379 16.8825C36.3379 17.0633 36.4846 17.21 36.6655 17.21Z" fill="white"/>
<path d="M18.5261 11.0727C18.9008 11.0727 19.2046 10.7689 19.2046 10.3943C19.2046 10.0196 18.9008 9.71582 18.5261 9.71582C18.1514 9.71582 17.8477 10.0196 17.8477 10.3943C17.8477 10.7689 18.1514 11.0727 18.5261 11.0727Z" fill="white"/>
<path d="M22.1531 13.2172C22.5278 13.2172 22.8315 12.9134 22.8315 12.5388C22.8315 12.1641 22.5278 11.8604 22.1531 11.8604C21.7784 11.8604 21.4746 12.1641 21.4746 12.5388C21.4746 12.9134 21.7784 13.2172 22.1531 13.2172Z" fill="white"/>
<path d="M25.78 15.3618C26.1547 15.3618 26.4585 15.058 26.4585 14.6833C26.4585 14.3086 26.1547 14.0049 25.78 14.0049C25.4053 14.0049 25.1016 14.3086 25.1016 14.6833C25.1016 15.058 25.4053 15.3618 25.78 15.3618Z" fill="white"/>
<path d="M29.405 17.5063C29.7797 17.5063 30.0835 17.2025 30.0835 16.8279C30.0835 16.4532 29.7797 16.1494 29.405 16.1494C29.0303 16.1494 28.7266 16.4532 28.7266 16.8279C28.7266 17.2025 29.0303 17.5063 29.405 17.5063Z" fill="white"/>
<path d="M33.0398 19.643C33.4145 19.643 33.7182 19.3392 33.7182 18.9646C33.7182 18.5899 33.4145 18.2861 33.0398 18.2861C32.6651 18.2861 32.3613 18.5899 32.3613 18.9646C32.3613 19.3392 32.6651 19.643 33.0398 19.643Z" fill="white"/>
<path d="M36.6655 21.4364C36.8463 21.4364 36.993 21.2898 36.993 21.1089C36.993 20.928 36.8463 20.7814 36.6655 20.7814C36.4846 20.7814 36.3379 20.928 36.3379 21.1089C36.3379 21.2898 36.4846 21.4364 36.6655 21.4364Z" fill="white"/>
<path d="M18.5268 15.9778C19.2762 15.9778 19.8837 15.3703 19.8837 14.6209C19.8837 13.8715 19.2762 13.264 18.5268 13.264C17.7774 13.264 17.1699 13.8715 17.1699 14.6209C17.1699 15.3703 17.7774 15.9778 18.5268 15.9778Z" fill="white"/>
<path d="M22.1538 18.1224C22.9032 18.1224 23.5107 17.5149 23.5107 16.7655C23.5107 16.0161 22.9032 15.4086 22.1538 15.4086C21.4044 15.4086 20.7969 16.0161 20.7969 16.7655C20.7969 17.5149 21.4044 18.1224 22.1538 18.1224Z" fill="white"/>
<path d="M25.7788 20.2669C26.5282 20.2669 27.1357 19.6594 27.1357 18.91C27.1357 18.1606 26.5282 17.5531 25.7788 17.5531C25.0294 17.5531 24.4219 18.1606 24.4219 18.91C24.4219 19.6594 25.0294 20.2669 25.7788 20.2669Z" fill="white"/>
<path d="M29.4057 22.4036C30.1551 22.4036 30.7625 21.7961 30.7625 21.0467C30.7625 20.2973 30.1551 19.6898 29.4057 19.6898C28.6563 19.6898 28.0488 20.2973 28.0488 21.0467C28.0488 21.7961 28.6563 22.4036 29.4057 22.4036Z" fill="white"/>
<path d="M33.0398 23.8695C33.4145 23.8695 33.7182 23.5657 33.7182 23.191C33.7182 22.8163 33.4145 22.5126 33.0398 22.5126C32.6651 22.5126 32.3613 22.8163 32.3613 23.191C32.3613 23.5657 32.6651 23.8695 33.0398 23.8695Z" fill="white"/>
<path d="M36.6655 25.6632C36.8463 25.6632 36.993 25.5166 36.993 25.3357C36.993 25.1549 36.8463 25.0082 36.6655 25.0082C36.4846 25.0082 36.3379 25.1549 36.3379 25.3357C36.3379 25.5166 36.4846 25.6632 36.6655 25.6632Z" fill="white"/>
<path d="M18.5268 20.2045C19.2762 20.2045 19.8837 19.597 19.8837 18.8476C19.8837 18.0983 19.2762 17.4907 18.5268 17.4907C17.7774 17.4907 17.1699 18.0983 17.1699 18.8476C17.1699 19.597 17.7774 20.2045 18.5268 20.2045Z" fill="white"/>
<path d="M22.1538 22.3488C22.9032 22.3488 23.5107 21.7413 23.5107 20.9919C23.5107 20.2426 22.9032 19.635 22.1538 19.635C21.4044 19.635 20.7969 20.2426 20.7969 20.9919C20.7969 21.7413 21.4044 22.3488 22.1538 22.3488Z" fill="white"/>
<path d="M25.7788 24.4855C26.5282 24.4855 27.1357 23.878 27.1357 23.1286C27.1357 22.3793 26.5282 21.7717 25.7788 21.7717C25.0294 21.7717 24.4219 22.3793 24.4219 23.1286C24.4219 23.878 25.0294 24.4855 25.7788 24.4855Z" fill="white"/>
<path d="M29.4057 26.6301C30.1551 26.6301 30.7625 26.0226 30.7625 25.2732C30.7625 24.5238 30.1551 23.9163 29.4057 23.9163C28.6563 23.9163 28.0488 24.5238 28.0488 25.2732C28.0488 26.0226 28.6563 26.6301 29.4057 26.6301Z" fill="white"/>
<path d="M33.0398 28.0963C33.4145 28.0963 33.7182 27.7925 33.7182 27.4178C33.7182 27.0431 33.4145 26.7394 33.0398 26.7394C32.6651 26.7394 32.3613 27.0431 32.3613 27.4178C32.3613 27.7925 32.6651 28.0963 33.0398 28.0963Z" fill="white"/>
<path d="M36.6655 29.8899C36.8463 29.8899 36.993 29.7433 36.993 29.5624C36.993 29.3815 36.8463 29.2349 36.6655 29.2349C36.4846 29.2349 36.3379 29.3815 36.3379 29.5624C36.3379 29.7433 36.4846 29.8899 36.6655 29.8899Z" fill="white"/>
<path d="M18.5261 23.7526C18.9008 23.7526 19.2046 23.4489 19.2046 23.0742C19.2046 22.6995 18.9008 22.3958 18.5261 22.3958C18.1514 22.3958 17.8477 22.6995 17.8477 23.0742C17.8477 23.4489 18.1514 23.7526 18.5261 23.7526Z" fill="white"/>
<path d="M22.1531 25.8894C22.5278 25.8894 22.8315 25.5855 22.8315 25.2109C22.8315 24.8362 22.5278 24.5325 22.1531 24.5325C21.7784 24.5325 21.4746 24.8362 21.4746 25.2109C21.4746 25.5855 21.7784 25.8894 22.1531 25.8894Z" fill="white"/>
<path d="M25.78 28.0339C26.1547 28.0339 26.4585 27.7301 26.4585 27.3555C26.4585 26.9807 26.1547 26.677 25.78 26.677C25.4053 26.677 25.1016 26.9807 25.1016 27.3555C25.1016 27.7301 25.4053 28.0339 25.78 28.0339Z" fill="white"/>
<path d="M29.405 30.1784C29.7797 30.1784 30.0835 29.8746 30.0835 29.5C30.0835 29.1253 29.7797 28.8215 29.405 28.8215C29.0303 28.8215 28.7266 29.1253 28.7266 29.5C28.7266 29.8746 29.0303 30.1784 29.405 30.1784Z" fill="white"/>
<path d="M33.0405 31.9718C33.2213 31.9718 33.3679 31.8252 33.3679 31.6443C33.3679 31.4635 33.2213 31.3168 33.0405 31.3168C32.8596 31.3168 32.7129 31.4635 32.7129 31.6443C32.7129 31.8252 32.8596 31.9718 33.0405 31.9718Z" fill="white"/>
<path d="M36.6655 34.1165C36.8463 34.1165 36.993 33.9699 36.993 33.789C36.993 33.6081 36.8463 33.4614 36.6655 33.4614C36.4846 33.4614 36.3379 33.6081 36.3379 33.789C36.3379 33.9699 36.4846 34.1165 36.6655 34.1165Z" fill="white"/>
<path d="M18.5267 27.6204C18.7076 27.6204 18.8543 27.4738 18.8543 27.2929C18.8543 27.112 18.7076 26.9653 18.5267 26.9653C18.3458 26.9653 18.1992 27.112 18.1992 27.2929C18.1992 27.4738 18.3458 27.6204 18.5267 27.6204Z" fill="white"/>
<path d="M22.1537 29.7649C22.3346 29.7649 22.4812 29.6183 22.4812 29.4374C22.4812 29.2565 22.3346 29.1099 22.1537 29.1099C21.9728 29.1099 21.8262 29.2565 21.8262 29.4374C21.8262 29.6183 21.9728 29.7649 22.1537 29.7649Z" fill="white"/>
<path d="M25.7787 31.9096C25.9596 31.9096 26.1062 31.763 26.1062 31.582C26.1062 31.4012 25.9596 31.2545 25.7787 31.2545C25.5978 31.2545 25.4512 31.4012 25.4512 31.582C25.4512 31.763 25.5978 31.9096 25.7787 31.9096Z" fill="white"/>
<path d="M29.4057 34.0541C29.5866 34.0541 29.7332 33.9075 29.7332 33.7266C29.7332 33.5457 29.5866 33.399 29.4057 33.399C29.2248 33.399 29.0781 33.5457 29.0781 33.7266C29.0781 33.9075 29.2248 34.0541 29.4057 34.0541Z" fill="white"/>
<path d="M33.0405 36.1986C33.2213 36.1986 33.3679 36.052 33.3679 35.8711C33.3679 35.6903 33.2213 35.5436 33.0405 35.5436C32.8596 35.5436 32.7129 35.6903 32.7129 35.8711C32.7129 36.052 32.8596 36.1986 33.0405 36.1986Z" fill="white"/>
<path d="M18.5267 31.8474C18.7076 31.8474 18.8543 31.7008 18.8543 31.5199C18.8543 31.339 18.7076 31.1924 18.5267 31.1924C18.3458 31.1924 18.1992 31.339 18.1992 31.5199C18.1992 31.7008 18.3458 31.8474 18.5267 31.8474Z" fill="white"/>
<path d="M22.1537 33.9917C22.3346 33.9917 22.4812 33.8451 22.4812 33.6642C22.4812 33.4833 22.3346 33.3367 22.1537 33.3367C21.9728 33.3367 21.8262 33.4833 21.8262 33.6642C21.8262 33.8451 21.9728 33.9917 22.1537 33.9917Z" fill="white"/>
<path d="M25.7787 36.1363C25.9596 36.1363 26.1062 35.9897 26.1062 35.8087C26.1062 35.6278 25.9596 35.4812 25.7787 35.4812C25.5978 35.4812 25.4512 35.6278 25.4512 35.8087C25.4512 35.9897 25.5978 36.1363 25.7787 36.1363Z" fill="white"/>
<path d="M29.4057 38.2808C29.5866 38.2808 29.7332 38.1342 29.7332 37.9533C29.7332 37.7723 29.5866 37.6257 29.4057 37.6257C29.2248 37.6257 29.0781 37.7723 29.0781 37.9533C29.0781 38.1342 29.2248 38.2808 29.4057 38.2808Z" fill="white"/>
<path d="M18.5267 36.0739C18.7076 36.0739 18.8543 35.9273 18.8543 35.7464C18.8543 35.5655 18.7076 35.4188 18.5267 35.4188C18.3458 35.4188 18.1992 35.5655 18.1992 35.7464C18.1992 35.9273 18.3458 36.0739 18.5267 36.0739Z" fill="white"/>
<path d="M22.1537 38.2184C22.3346 38.2184 22.4812 38.0718 22.4812 37.8909C22.4812 37.71 22.3346 37.5634 22.1537 37.5634C21.9728 37.5634 21.8262 37.71 21.8262 37.8909C21.8262 38.0718 21.9728 38.2184 22.1537 38.2184Z" fill="white"/>
<path d="M25.7787 40.3629C25.9596 40.3629 26.1062 40.2163 26.1062 40.0354C26.1062 39.8546 25.9596 39.7079 25.7787 39.7079C25.5978 39.7079 25.4512 39.8546 25.4512 40.0354C25.4512 40.2163 25.5978 40.3629 25.7787 40.3629Z" fill="white"/>
<path d="M18.5267 40.3006C18.7076 40.3006 18.8543 40.154 18.8543 39.973C18.8543 39.7922 18.7076 39.6455 18.5267 39.6455C18.3458 39.6455 18.1992 39.7922 18.1992 39.973C18.1992 40.154 18.3458 40.3006 18.5267 40.3006Z" fill="white"/>
<path d="M22.1537 42.4448C22.3346 42.4448 22.4812 42.2982 22.4812 42.1173C22.4812 41.9365 22.3346 41.7898 22.1537 41.7898C21.9728 41.7898 21.8262 41.9365 21.8262 42.1173C21.8262 42.2982 21.9728 42.4448 22.1537 42.4448Z" fill="white"/>
<path d="M18.5267 44.5274C18.7076 44.5274 18.8543 44.3808 18.8543 44.1998C18.8543 44.019 18.7076 43.8723 18.5267 43.8723C18.3458 43.8723 18.1992 44.019 18.1992 44.1998C18.1992 44.3808 18.3458 44.5274 18.5267 44.5274Z" fill="white"/>
<path d="M18.1537 1.46511C18.3345 1.46511 18.4812 1.3185 18.4812 1.13758C18.4812 0.956742 18.3345 0.810059 18.1537 0.810059C17.9728 0.810059 17.8262 0.956742 17.8262 1.13758C17.8262 1.3185 17.9728 1.46511 18.1537 1.46511Z" fill="white"/>
<path d="M14.5268 3.60964C14.7077 3.60964 14.8543 3.46303 14.8543 3.28212C14.8543 3.10127 14.7077 2.95459 14.5268 2.95459C14.3459 2.95459 14.1992 3.10127 14.1992 3.28212C14.1992 3.46303 14.3459 3.60964 14.5268 3.60964Z" fill="white"/>
<path d="M10.8998 5.75418C11.0807 5.75418 11.2273 5.60757 11.2273 5.42665C11.2273 5.2458 11.0807 5.09912 10.8998 5.09912C10.719 5.09912 10.5723 5.2458 10.5723 5.42665C10.5723 5.60757 10.719 5.75418 10.8998 5.75418Z" fill="white"/>
<path d="M7.27479 7.89871C7.45563 7.89871 7.60232 7.7521 7.60232 7.57118C7.60232 7.39034 7.45563 7.24365 7.27479 7.24365C7.09387 7.24365 6.94727 7.39034 6.94727 7.57118C6.94727 7.7521 7.09387 7.89871 7.27479 7.89871Z" fill="white"/>
<path d="M3.64784 10.0434C3.82868 10.0434 3.97537 9.89675 3.97537 9.71583C3.97537 9.53499 3.82868 9.38831 3.64784 9.38831C3.46692 9.38831 3.32031 9.53499 3.32031 9.71583C3.32031 9.89675 3.46692 10.0434 3.64784 10.0434Z" fill="white"/>
<path d="M18.1537 5.6918C18.3345 5.6918 18.4812 5.54511 18.4812 5.36427C18.4812 5.18335 18.3345 5.03674 18.1537 5.03674C17.9728 5.03674 17.8262 5.18335 17.8262 5.36427C17.8262 5.54511 17.9728 5.6918 18.1537 5.6918Z" fill="white"/>
<path d="M14.5268 7.83645C14.7077 7.83645 14.8543 7.68976 14.8543 7.50892C14.8543 7.328 14.7077 7.1814 14.5268 7.1814C14.3459 7.1814 14.1992 7.328 14.1992 7.50892C14.1992 7.68976 14.3459 7.83645 14.5268 7.83645Z" fill="white"/>
<path d="M10.8998 9.98098C11.0807 9.98098 11.2273 9.83429 11.2273 9.65345C11.2273 9.47253 11.0807 9.32593 10.8998 9.32593C10.719 9.32593 10.5723 9.47253 10.5723 9.65345C10.5723 9.83429 10.719 9.98098 10.8998 9.98098Z" fill="white"/>
<path d="M18.099 1.46511C18.2799 1.46511 18.4265 1.3185 18.4265 1.13758C18.4265 0.956742 18.2799 0.810059 18.099 0.810059C17.9182 0.810059 17.7715 0.956742 17.7715 1.13758C17.7715 1.3185 17.9182 1.46511 18.099 1.46511Z" fill="white"/>
<path d="M21.724 3.60964C21.9049 3.60964 22.0515 3.46303 22.0515 3.28212C22.0515 3.10127 21.9049 2.95459 21.724 2.95459C21.5432 2.95459 21.3965 3.10127 21.3965 3.28212C21.3965 3.46303 21.5432 3.60964 21.724 3.60964Z" fill="white"/>
<path d="M25.351 5.75418C25.5318 5.75418 25.6785 5.60757 25.6785 5.42665C25.6785 5.2458 25.5318 5.09912 25.351 5.09912C25.17 5.09912 25.0234 5.2458 25.0234 5.42665C25.0234 5.60757 25.17 5.75418 25.351 5.75418Z" fill="white"/>
<path d="M28.976 7.89871C29.1569 7.89871 29.3035 7.7521 29.3035 7.57118C29.3035 7.39034 29.1569 7.24365 28.976 7.24365C28.795 7.24365 28.6484 7.39034 28.6484 7.57118C28.6484 7.7521 28.795 7.89871 28.976 7.89871Z" fill="white"/>
<path d="M32.6107 10.0434C32.7917 10.0434 32.9383 9.89675 32.9383 9.71583C32.9383 9.53499 32.7917 9.38831 32.6107 9.38831C32.4298 9.38831 32.2832 9.53499 32.2832 9.71583C32.2832 9.89675 32.4298 10.0434 32.6107 10.0434Z" fill="white"/>
<path d="M18.099 5.6918C18.2799 5.6918 18.4265 5.54511 18.4265 5.36427C18.4265 5.18335 18.2799 5.03674 18.099 5.03674C17.9182 5.03674 17.7715 5.18335 17.7715 5.36427C17.7715 5.54511 17.9182 5.6918 18.099 5.6918Z" fill="white"/>
<path d="M21.724 7.83645C21.9049 7.83645 22.0515 7.68976 22.0515 7.50892C22.0515 7.328 21.9049 7.1814 21.724 7.1814C21.5432 7.1814 21.3965 7.328 21.3965 7.50892C21.3965 7.68976 21.5432 7.83645 21.724 7.83645Z" fill="white"/>
<path d="M25.351 9.98098C25.5318 9.98098 25.6785 9.83429 25.6785 9.65345C25.6785 9.47253 25.5318 9.32593 25.351 9.32593C25.17 9.32593 25.0234 9.47253 25.0234 9.65345C25.0234 9.83429 25.17 9.98098 25.351 9.98098Z" fill="white"/>
</svg>
