<svg width="33" height="21" viewBox="0 0 33 21" fill="none" xmlns="http://www.w3.org/2000/svg">
<path d="M13.6202 9.05478C14.2842 8.72075 14.7863 8.34872 15.1303 7.94669C15.7423 7.22263 16.0444 6.26255 16.0444 5.07245C16.0444 3.91436 15.7423 2.92428 15.1383 2.09421C14.1302 0.742098 12.4241 0.050041 10.0119 0.0140381H0.455078V19.5216H9.36581C10.3699 19.5216 11.3 19.4356 12.16 19.2596C13.0201 19.0816 13.7642 18.7556 14.3942 18.2795C14.9543 17.8655 15.4223 17.3515 15.7943 16.7454C16.3824 15.8293 16.6764 14.7912 16.6764 13.6352C16.6764 12.5151 16.4184 11.561 15.9063 10.7769C15.3883 9.99286 14.6282 9.41881 13.6202 9.05478ZM4.3974 3.40232H8.70176C9.64783 3.40232 10.4279 3.50432 11.0399 3.70634C11.748 4.00037 12.102 4.59841 12.102 5.51049C12.102 6.32856 11.832 6.9006 11.298 7.22263C10.7599 7.54466 10.0619 7.70667 9.2058 7.70667H4.3974V3.40232ZM11.204 15.7933C10.7279 16.0234 10.0579 16.1374 9.1998 16.1374H4.3974V10.9349H9.2658C10.1139 10.9409 10.7739 11.0529 11.246 11.263C12.086 11.643 12.5041 12.339 12.5041 13.3571C12.5041 14.5572 12.072 15.3653 11.204 15.7933Z" fill="#1A1919"/>
<path d="M29.379 0.924194H20.9043V3.3524H29.379V0.924194Z" fill="#1A1919"/>
<path d="M32.3244 10.5067C32.1484 9.37663 31.7603 8.38255 31.1563 7.52448C30.4942 6.5524 29.6542 5.84034 28.6321 5.3903C27.614 4.93826 26.4679 4.71225 25.1918 4.71425C23.0496 4.71425 21.3095 5.3843 19.9634 6.71441C18.6213 8.04852 17.9492 9.96668 17.9492 12.4669C17.9492 15.1331 18.6913 17.0593 20.1834 18.2414C21.6695 19.4255 23.3857 20.0155 25.3338 20.0155C27.692 20.0155 29.5262 19.3134 30.8363 17.9133C31.6743 17.0293 32.1484 16.1592 32.2524 15.3051H28.3481C28.1221 15.7271 27.86 16.0572 27.56 16.2972C27.016 16.7372 26.3079 16.9572 25.4398 16.9572C24.6138 16.9572 23.9137 16.7752 23.3297 16.4132C22.3656 15.8332 21.8615 14.8171 21.7975 13.371H32.4524C32.4684 12.1249 32.4284 11.1668 32.3244 10.5067ZM21.8935 10.8808C22.0336 9.94267 22.3736 9.19861 22.9136 8.64857C23.4537 8.10052 24.2177 7.8245 25.1958 7.8225C26.0979 7.8225 26.8519 8.08052 27.466 8.59856C28.072 9.12061 28.4141 9.87867 28.4841 10.8808H21.8935Z" fill="#1A1919"/>
</svg>
