<svg width="20" height="23" viewBox="0 0 20 23" fill="none" xmlns="http://www.w3.org/2000/svg">
<path d="M15.287 15.6048C14.1604 16.6253 12.7034 17.1791 11.2001 17.1584C7.73571 17.1584 5.19155 14.5506 5.19155 10.9718C5.19155 7.39297 7.65451 4.89612 11.2001 4.89612C12.7068 4.87524 14.1693 5.41767 15.3141 6.42197L16.0719 7.0878L19.428 3.6477L18.589 2.84316C16.559 0.984136 13.922 -0.0257731 11.2001 0.0133968C4.97502 0.0133968 0.455078 4.61869 0.455078 10.944C0.455078 17.2694 5.08328 22.0134 11.2001 22.0134C13.9478 22.0511 16.6074 21.0202 18.6431 19.1281L19.4551 18.3514L16.0448 14.9112L15.287 15.6048Z" fill="#1A1919"/>
</svg>
