<svg width="33" height="38" viewBox="0 0 33 38" fill="none" xmlns="http://www.w3.org/2000/svg">
<path d="M16.3743 4.49313L22.4648 8.01014L25.5529 6.23214L16.3743 0.929321L1.04297 9.78815L4.11548 11.5661L16.3743 4.49313Z" fill="white"/>
<path d="M28.6269 8.01013L16.3758 15.0832L10.2854 11.5661L7.20508 13.3441L16.3758 18.6392L31.715 9.78813L28.6269 8.01013Z" fill="white"/>
<path d="M3.50805 19.9105L0.427734 18.1324V28.7225L15.7591 37.5813V34.0253L3.50805 26.9445V19.9105Z" fill="white"/>
<path d="M0.427734 14.5763L12.6788 21.6493V28.6833L15.7591 30.4691V19.8713L0.427734 11.0203V14.5763Z" fill="white"/>
<path d="M26.1707 18.1324V14.5764L16.9922 19.8714V37.5813L20.0725 35.8033V21.6494L26.1707 18.1324Z" fill="white"/>
<path d="M29.2428 12.7983V26.9443L23.1523 30.4691V34.0251L32.3309 28.7223V11.0203L29.2428 12.7983Z" fill="white"/>
</svg>
