<svg width="42" height="48" viewBox="0 0 42 48" fill="none" xmlns="http://www.w3.org/2000/svg">
<path d="M20.8866 5.32195L28.6966 9.83195L32.6566 7.55195L20.8866 0.751953L1.22656 12.112L5.16656 14.392L20.8866 5.32195Z" fill="white"/>
<path d="M36.5967 9.83203L20.8867 18.902L13.0767 14.392L9.12671 16.672L20.8867 23.462L40.5567 12.112L36.5967 9.83203Z" fill="white"/>
<path d="M4.38652 25.092L0.436523 22.812V36.392L20.0965 47.752V43.192L4.38652 34.112V25.092Z" fill="white"/>
<path d="M0.436523 18.2519L16.1465 27.3219V36.3419L20.0965 38.6319V25.0419L0.436523 13.6919V18.2519Z" fill="white"/>
<path d="M33.4465 22.812V18.252L21.6765 25.042V47.752L25.6265 45.472V27.322L33.4465 22.812Z" fill="white"/>
<path d="M37.3867 15.9719V34.1119L29.5767 38.6319V43.1919L41.3467 36.3919V13.6919L37.3867 15.9719Z" fill="white"/>
</svg>
