<svg width="33" height="41" viewBox="0 0 33 41" fill="none" xmlns="http://www.w3.org/2000/svg">
<path d="M12.5605 20.3255C12.5605 21.0878 12.7867 21.8329 13.2104 22.4666C13.634 23.1003 14.2362 23.594 14.9405 23.8853C15.6449 24.1767 16.4198 24.2525 17.1674 24.1033C17.9148 23.9539 18.6012 23.5863 19.1397 23.0468C19.6782 22.5072 20.0445 21.8201 20.1922 21.0723C20.3399 20.3245 20.2626 19.5496 19.9698 18.8458C19.677 18.1421 19.1821 17.541 18.5475 17.1186C17.913 16.6963 17.1674 16.4717 16.4051 16.4732C15.3848 16.4753 14.4069 16.882 13.6861 17.6043C12.9654 18.3265 12.5605 19.3052 12.5605 20.3255Z" fill="white"/>
<path d="M16.4051 32.3657C15.6432 32.3657 14.8983 32.5916 14.2648 33.0149C13.6313 33.4383 13.1376 34.0399 12.846 34.7438C12.5544 35.4478 12.4781 36.2224 12.6268 36.9697C12.7754 37.7169 13.1423 38.4033 13.681 38.9421C14.2198 39.4809 14.9062 39.8478 15.6535 39.9964C16.4008 40.145 17.1754 40.0688 17.8793 39.7772C18.5833 39.4856 19.1849 38.9918 19.6082 38.3583C20.0315 37.7248 20.2574 36.98 20.2574 36.2181C20.2574 35.1963 19.8516 34.2165 19.1291 33.4941C18.4066 32.7716 17.4268 32.3657 16.4051 32.3657Z" fill="white"/>
<path d="M28.2274 16.4731C27.4654 16.4731 26.7206 16.6991 26.0871 17.1224C25.4536 17.5457 24.9598 18.1474 24.6682 18.8513C24.3767 19.5552 24.3004 20.3298 24.449 21.0771C24.5977 21.8243 24.9646 22.5108 25.5034 23.0495C26.0421 23.5883 26.7285 23.9552 27.4758 24.1038C28.2231 24.2525 28.9977 24.1762 29.7015 23.8846C30.4055 23.593 31.0071 23.0992 31.4304 22.4657C31.8537 21.8323 32.0797 21.0874 32.0797 20.3255C32.0797 19.3038 31.6738 18.3239 30.9514 17.6015C30.2289 16.879 29.249 16.4731 28.2274 16.4731Z" fill="white"/>
<path d="M16.4051 8.07431C17.1674 8.07587 17.913 7.8512 18.5475 7.42884C19.1821 7.00649 19.677 6.4054 19.9698 5.70161C20.2626 4.99781 20.3399 4.22298 20.1922 3.4752C20.0445 2.72743 19.6782 2.04025 19.1397 1.50069C18.6012 0.961204 17.9148 0.593514 17.1674 0.444256C16.4198 0.294919 15.6449 0.370796 14.9405 0.662139C14.2362 0.953482 13.634 1.44719 13.2104 2.08088C12.7867 2.71456 12.5605 3.45969 12.5605 4.22197C12.5605 5.24229 12.9654 6.22097 13.6861 6.94325C14.4069 7.66544 15.3848 8.0722 16.4051 8.07431Z" fill="white"/>
<path d="M8.35696 19.881C8.35696 19.1191 8.13105 18.3743 7.70776 17.7407C7.28447 17.1073 6.68283 16.6135 5.97888 16.3219C5.27494 16.0303 4.50041 15.9541 3.75311 16.1027C3.0058 16.2513 2.3194 16.6183 1.78061 17.157C1.24191 17.6957 0.875001 18.3821 0.726367 19.1294C0.577732 19.8768 0.654 20.6514 0.945577 21.3552C1.23715 22.0592 1.73094 22.6608 2.36439 23.0841C2.99792 23.5074 3.74273 23.7334 4.50462 23.7334C5.52635 23.7334 6.5062 23.3275 7.22871 22.6051C7.95114 21.8825 8.35696 20.9027 8.35696 19.881Z" fill="white"/>
<path d="M25.1716 25.5738C23.7934 24.1872 23.0199 22.3117 23.0199 20.3567C23.0199 18.4018 23.7934 16.5262 25.1716 15.1397C25.7089 14.6003 26.0742 13.9139 26.2217 13.167C26.3691 12.4201 26.2918 11.6464 25.9998 10.9433C25.7078 10.2403 25.2141 9.6395 24.5808 9.21692C23.9477 8.79425 23.2035 8.56873 22.4422 8.56873C21.6809 8.56873 20.9367 8.79425 20.3036 9.21692C19.6703 9.6395 19.1766 10.2403 18.8846 10.9433C18.5925 11.6464 18.5153 12.4201 18.6627 13.167C18.8102 13.9139 19.1756 14.6003 19.7128 15.1397C20.405 15.8255 20.9546 16.6419 21.3296 17.5413C21.7045 18.4408 21.8976 19.4057 21.8976 20.3801C21.8976 21.3546 21.7045 22.3195 21.3296 23.2189C20.9546 24.1184 20.405 24.9346 19.7128 25.6206C19.1756 26.1599 18.8102 26.8464 18.6627 27.5932C18.5153 28.3401 18.5925 29.1139 18.8846 29.817C19.1766 30.52 19.6703 31.1207 20.3036 31.5433C20.9367 31.966 21.6809 32.1915 22.4422 32.1915C23.2035 32.1915 23.9477 31.966 24.5808 31.5433C25.2141 31.1207 25.7078 30.52 25.9998 29.817C26.2918 29.1139 26.3691 28.3401 26.2217 27.5932C26.0742 26.8464 25.7089 26.1599 25.1716 25.6206V25.5738Z" fill="white"/>
<path d="M14.0816 27.8197C14.0775 26.8082 13.6804 25.8379 12.9743 25.1137C11.5962 23.7272 10.8227 21.8516 10.8227 19.8966C10.8227 17.9417 11.5962 16.0662 12.9743 14.6796C13.5116 14.1403 13.8769 13.4538 14.0243 12.707C14.1718 11.9601 14.0946 11.1863 13.8025 10.4833C13.5106 9.7802 13.0168 9.1795 12.3836 8.75683C11.7504 8.33425 11.0062 8.10864 10.2449 8.10864C9.48363 8.10864 8.73944 8.33425 8.10622 8.75683C7.47308 9.1795 6.9793 9.7802 6.68725 10.4833C6.39529 11.1863 6.31808 11.9601 6.46547 12.707C6.61294 13.4538 6.97828 14.1403 7.51551 14.6796C8.20659 15.3654 8.75512 16.1812 9.12943 17.0799C9.50375 17.9787 9.69645 18.9426 9.69645 19.9161C9.69645 20.8898 9.50375 21.8537 9.12943 22.7524C8.75512 23.6512 8.20659 24.467 7.51551 25.1527C7.07202 25.6031 6.74613 26.1558 6.56669 26.7619C6.38725 27.368 6.35965 28.0089 6.48645 28.6283C6.61325 29.2475 6.89048 29.8261 7.29372 30.3129C7.69697 30.7998 8.21376 31.1799 8.79863 31.4197C9.3835 31.6596 10.0184 31.752 10.6473 31.6885C11.2762 31.625 11.8799 31.4077 12.405 31.0558C12.9302 30.7039 13.3606 30.2283 13.6584 29.6707C13.9563 29.1131 14.1124 28.4908 14.1128 27.8587L14.0816 27.8197Z" fill="white"/>
</svg>
