<svg width="23" height="23" viewBox="0 0 23 23" fill="none" xmlns="http://www.w3.org/2000/svg">
<path d="M22.3842 6.50744C22.3719 5.58371 22.1987 4.66916 21.8723 3.8047C21.5893 3.07554 21.1571 2.41333 20.6032 1.86038C20.0494 1.30743 19.386 0.875903 18.6557 0.593371C17.8009 0.273039 16.8979 0.0998297 15.9851 0.0811188C14.8098 0.0286739 14.4372 0.0140381 11.4539 0.0140381C8.47052 0.0140381 8.08813 0.0140382 6.92143 0.0811188C6.00903 0.0999672 5.10644 0.273174 4.25206 0.593371C3.52156 0.875706 2.85815 1.30716 2.30425 1.86014C1.75036 2.41311 1.31818 3.07542 1.03538 3.8047C0.713868 4.6574 0.540746 5.55869 0.523492 6.46963C0.47096 7.64415 0.455078 8.01615 0.455078 10.9945C0.455078 13.9729 0.455078 14.3534 0.523492 15.5194C0.541817 16.4317 0.714074 17.3318 1.03538 18.1868C1.31866 18.9158 1.75115 19.5779 2.30523 20.1306C2.85931 20.6834 3.52279 21.1146 4.25328 21.3969C5.10532 21.7301 6.00807 21.9157 6.92265 21.9457C8.09913 21.9982 8.47174 22.014 11.4551 22.014C14.4384 22.014 14.8208 22.014 15.9875 21.9457C16.9003 21.9278 17.8034 21.755 18.6581 21.4347C19.3883 21.1518 20.0514 20.7202 20.6053 20.1673C21.1591 19.6144 21.5915 18.9523 21.8748 18.2234C22.1961 17.3696 22.3683 16.4695 22.3867 15.556C22.4392 14.3827 22.4551 14.0107 22.4551 11.0311C22.4526 8.05274 22.4526 7.67464 22.3842 6.50744ZM11.4465 16.6269C8.32636 16.6269 5.7987 14.1034 5.7987 10.9884C5.7987 7.87345 8.32636 5.35 11.4465 5.35C12.9444 5.35 14.381 5.94404 15.4401 7.00145C16.4993 8.05887 17.0944 9.49302 17.0944 10.9884C17.0944 12.4838 16.4993 13.918 15.4401 14.9754C14.381 16.0328 12.9444 16.6269 11.4465 16.6269ZM17.3191 6.45622C16.5898 6.45622 16.0022 5.86835 16.0022 5.14144C16.0022 4.96886 16.0362 4.79797 16.1024 4.63853C16.1685 4.47908 16.2655 4.33421 16.3877 4.21218C16.51 4.09015 16.6551 3.99334 16.8148 3.9273C16.9745 3.86126 17.1457 3.82727 17.3185 3.82727C17.4914 3.82727 17.6626 3.86126 17.8223 3.9273C17.982 3.99334 18.1271 4.09015 18.2493 4.21218C18.3716 4.33421 18.4685 4.47908 18.5347 4.63853C18.6008 4.79797 18.6349 4.96886 18.6349 5.14144C18.6349 5.86835 18.046 6.45622 17.3191 6.45622Z" fill="#1A1919"/>
<path d="M11.4551 15.014C13.6642 15.014 15.4551 13.2232 15.4551 11.014C15.4551 8.8049 13.6642 7.01404 11.4551 7.01404C9.24594 7.01404 7.45508 8.8049 7.45508 11.014C7.45508 13.2232 9.24594 15.014 11.4551 15.014Z" fill="#1A1919"/>
</svg>
