<svg width="23" height="23" viewBox="0 0 23 23" fill="none" xmlns="http://www.w3.org/2000/svg">
<path d="M19.2324 0.0140381H3.67773C1.90091 0.0140381 0.455078 1.45987 0.455078 3.23669V18.7914C0.455078 20.5682 1.90091 22.014 3.67773 22.014H19.2324C21.0092 22.014 22.4551 20.5682 22.4551 18.7914V3.23669C22.4551 1.45987 21.0092 0.0140381 19.2324 0.0140381ZM8.23242 17.4594H5.6543V8.43591H8.23242V17.4594ZM8.23242 7.14685H5.6543V4.56873H8.23242V7.14685ZM17.2559 17.4594H14.6777V12.3031C14.6777 11.5924 14.0993 11.014 13.3887 11.014C12.678 11.014 12.0996 11.5924 12.0996 12.3031V17.4594H9.52148V8.43591H12.0996V8.92183C12.775 8.71185 13.2138 8.43591 14.0332 8.43591C15.7817 8.43776 17.2559 10.0063 17.2559 11.86V17.4594Z" fill="#1A1919"/>
</svg>
