<svg width="55" height="51" viewBox="0 0 55 51" fill="none" xmlns="http://www.w3.org/2000/svg">
<path d="M8.67919 18.6696C9.13796 18.6565 9.59299 18.7562 10.0042 18.96L13.9429 21.2379C14.3167 21.4999 14.6289 21.8402 14.8577 22.2352C15.0866 22.6302 15.2266 23.0703 15.2679 23.5249V28.0626C15.2254 28.5169 15.0849 28.9566 14.8562 29.3514C14.6275 29.7462 14.3158 30.0867 13.9429 30.3496L10.0042 32.6275C9.59205 32.8278 9.13718 32.9244 8.67919 32.9089C8.22392 32.9267 7.77147 32.83 7.36323 32.6275L3.41544 30.3496C3.04253 30.0867 2.73098 29.7462 2.50226 29.3514C2.27346 28.9566 2.13301 28.5169 2.09044 28.0626V23.5249C2.13184 23.0703 2.27175 22.6302 2.50062 22.2352C2.72943 21.8402 3.04167 21.4999 3.41544 21.2379L7.36323 18.96C7.77061 18.7544 8.22314 18.6546 8.67919 18.6696ZM8.67919 16.8545C7.90451 16.8402 7.13903 17.0246 6.45575 17.39L2.50795 19.6951C1.85992 20.1185 1.32044 20.688 0.932628 21.3579C0.544899 22.0278 0.319763 22.7794 0.275391 23.5522V28.0898C0.319763 28.8626 0.544899 29.6142 0.932628 30.2841C1.32044 30.9539 1.85992 31.5235 2.50795 31.9469L6.45575 34.2248C7.13989 34.5871 7.90529 34.7682 8.67919 34.7512C9.45597 34.7678 10.2242 34.5867 10.9117 34.2248L14.8505 31.9469C15.4985 31.5235 16.038 30.9539 16.4257 30.2841C16.8136 29.6142 17.0386 28.8626 17.083 28.0898V23.5522C17.0386 22.7794 16.8136 22.0278 16.4257 21.3579C16.038 20.688 15.4985 20.1185 14.8505 19.6951L10.9117 17.4172C10.2249 17.0525 9.45667 16.8683 8.67919 16.8818V16.8545Z" fill="white"/>
<path d="M27.1832 18.6697C27.639 18.6567 28.091 18.7565 28.499 18.9601L32.4468 21.2381C32.8181 21.5019 33.1279 21.8428 33.3551 22.2376C33.5823 22.6323 33.7213 23.0715 33.7628 23.5251V28.0627C33.7201 28.516 33.5805 28.9548 33.3535 29.3494C33.1265 29.744 32.8173 30.0851 32.4468 30.3498L28.499 32.6277C28.0901 32.8279 27.6382 32.9246 27.1832 32.909C26.7252 32.9246 26.2703 32.828 25.8582 32.6277L21.9104 30.3498C21.54 30.0851 21.2307 29.744 21.0037 29.3494C20.7767 28.9548 20.6371 28.516 20.5944 28.0627V23.5251C20.6359 23.0715 20.775 22.6323 21.0021 22.2376C21.2292 21.8428 21.5391 21.5019 21.9104 21.2381L25.8582 18.9601C26.2694 18.7564 26.7244 18.6566 27.1832 18.6697ZM27.1832 16.8547C26.4056 16.8413 25.6375 17.0255 24.9506 17.3901L21.0028 19.6953C20.356 20.1191 19.8179 20.6889 19.4316 21.3589C19.0455 22.0288 18.822 22.7802 18.7793 23.5523V28.09C18.822 28.8621 19.0455 29.6135 19.4316 30.2834C19.8179 30.9534 20.356 31.5232 21.0028 31.9471L24.9506 34.225C25.6381 34.5868 26.4064 34.768 27.1832 34.7514C27.9571 34.7685 28.7225 34.5872 29.4066 34.225L33.3544 31.9471C34.0012 31.5232 34.5394 30.9534 34.9256 30.2834C35.3118 29.6135 35.5353 28.8621 35.5778 28.09V23.5523C35.5353 22.7802 35.3118 22.0288 34.9256 21.3589C34.5394 20.6889 34.0012 20.1191 33.3544 19.6953L29.4066 17.4173C28.7233 17.052 27.9578 16.8676 27.1832 16.8819V16.8547Z" fill="white"/>
<path d="M45.6792 18.6696C46.138 18.6565 46.593 18.7562 47.0042 18.96L50.9429 21.2379C51.3168 21.4999 51.6289 21.8402 51.8578 22.2352C52.0866 22.6302 52.2266 23.0703 52.2679 23.5249V28.0626C52.2254 28.5169 52.0849 28.9566 51.8562 29.3514C51.6275 29.7462 51.3159 30.0867 50.9429 30.3496L47.0042 32.6275C46.5921 32.8278 46.1372 32.9244 45.6792 32.9089C45.2239 32.9267 44.7715 32.83 44.3633 32.6275L40.4155 30.3496C40.0425 30.0867 39.731 29.7462 39.5023 29.3514C39.2735 28.9566 39.133 28.5169 39.0905 28.0626V23.5249C39.1318 23.0703 39.2718 22.6302 39.5006 22.2352C39.7295 21.8402 40.0417 21.4999 40.4155 21.2379L44.3633 18.96C44.7707 18.7544 45.2231 18.6546 45.6792 18.6696ZM45.6792 16.8545C44.9045 16.8402 44.139 17.0246 43.4557 17.39L39.508 19.6951C38.86 20.1185 38.3204 20.688 37.9326 21.3579C37.5449 22.0278 37.3198 22.7794 37.2754 23.5522V28.0898C37.3198 28.8626 37.5449 29.6142 37.9326 30.2841C38.3204 30.9539 38.86 31.5235 39.508 31.9469L43.4557 34.2248C44.1399 34.5871 44.9053 34.7682 45.6792 34.7512C46.456 34.7678 47.2243 34.5867 47.9118 34.2248L51.8505 31.9469C52.4985 31.5235 53.038 30.9539 53.4258 30.2841C53.8136 29.6142 54.0386 28.8626 54.083 28.0898V23.5522C54.0386 22.7794 53.8136 22.0278 53.4258 21.3579C53.038 20.688 52.4985 20.1185 51.8505 19.6951L47.9118 17.4172C47.225 17.0525 46.4568 16.8683 45.6792 16.8818V16.8545Z" fill="white"/>
<path d="M17.9266 34.8331C18.3885 34.8177 18.847 34.9175 19.2608 35.1235L23.2086 37.4014C23.5798 37.6652 23.8897 38.0062 24.1167 38.4009C24.3439 38.7957 24.483 39.2349 24.5245 39.6884V44.2261C24.4807 44.6791 24.3406 45.1174 24.1137 45.5118C23.8867 45.9063 23.5781 46.2476 23.2086 46.5131L19.2608 48.8092C18.8452 48.9946 18.3953 49.0905 17.9403 49.0905C17.4853 49.0905 17.0353 48.9946 16.6198 48.8092L12.672 46.5312C12.3025 46.2658 11.9938 45.9244 11.7669 45.5299C11.5399 45.1355 11.3999 44.6972 11.3561 44.2442V39.7066C11.3975 39.253 11.5367 38.8138 11.7638 38.4191C11.9909 38.0243 12.3007 37.6834 12.672 37.4196L16.6198 35.1416C17.0278 34.9379 17.4799 34.8381 17.9358 34.8512L17.9266 34.8331ZM17.9358 33.0362C17.1618 33.0191 16.3964 33.2003 15.7122 33.5626L11.7645 35.8404C11.1175 36.2662 10.5794 36.8378 10.1932 37.5092C9.80709 38.1806 9.58367 38.9332 9.54102 39.7066V44.2442C9.58437 45.0162 9.80811 45.7672 10.1942 46.4371C10.5804 47.1069 11.1182 47.6769 11.7645 48.1013L15.7122 50.3792C16.3964 50.7414 17.1618 50.9227 17.9358 50.9056C18.7125 50.9222 19.4808 50.741 20.1683 50.3792L24.1161 48.1013C24.7624 47.6769 25.3002 47.1069 25.6863 46.4371C26.0725 45.7672 26.2962 45.0162 26.3396 44.2442V39.7066C26.2969 38.9332 26.0735 38.1806 25.6874 37.5092C25.3012 36.8378 24.7631 36.2662 24.1161 35.8404L20.1683 33.5444C19.4808 33.1826 18.7125 33.0014 17.9358 33.018V33.0362Z" fill="white"/>
<path d="M36.4311 34.8329C36.8873 34.8179 37.3397 34.9178 37.7471 35.1234L41.6949 37.4012C42.0687 37.6633 42.3809 38.0036 42.6098 38.3986C42.8386 38.7935 42.9786 39.2337 43.0199 39.6883V44.226C42.9762 44.68 42.8352 45.1192 42.6066 45.5138C42.3779 45.9084 42.067 46.2492 41.6949 46.5129L37.7471 48.7908C37.3371 48.988 36.8859 49.0844 36.4311 49.0722C35.9736 49.0832 35.5198 48.9868 35.1062 48.7908L31.1675 46.5129C30.7953 46.2492 30.4844 45.9084 30.2558 45.5138C30.0271 45.1192 29.8861 44.68 29.8425 44.226V39.6883C29.8838 39.2337 30.0238 38.7935 30.2526 38.3986C30.4815 38.0036 30.7936 37.6633 31.1675 37.4012L35.1062 35.1234C35.5174 34.9195 35.9724 34.8198 36.4311 34.8329ZM36.4311 33.0178C35.6544 33.0012 34.8861 33.1824 34.1987 33.5442L30.2599 35.8222C29.6117 36.2475 29.0722 36.8187 28.6845 37.4901C28.2969 38.1614 28.0718 38.9143 28.0273 39.6883V44.226C28.0724 44.9985 28.2979 45.7498 28.6856 46.4196C29.0732 47.0894 29.6124 47.6591 30.2599 48.083L34.1987 50.3608C34.8861 50.7228 35.6544 50.9039 36.4311 50.8873C37.2051 50.9043 37.9705 50.7232 38.6547 50.3608L42.6024 48.083C43.2499 47.6591 43.7891 47.0894 44.1768 46.4196C44.5645 45.7498 44.7899 44.9985 44.835 44.226V39.6883C44.7906 38.9143 44.5655 38.1614 44.1779 37.4901C43.7901 36.8187 43.2506 36.2475 42.6024 35.8222L38.6547 33.5442C37.9705 33.182 37.2051 33.0007 36.4311 33.0178Z" fill="white"/>
<path d="M17.928 2.5064C18.3868 2.4926 18.842 2.59234 19.253 2.79681L23.2007 5.07476C23.572 5.33857 23.8818 5.67951 24.109 6.07426C24.3361 6.46901 24.4752 6.90821 24.5167 7.36175V11.8994C24.474 12.3526 24.3345 12.7914 24.1074 13.186C23.8804 13.5806 23.5712 13.9218 23.2007 14.1864L19.262 16.4825C18.8465 16.668 18.3965 16.7638 17.9415 16.7638C17.4865 16.7638 17.0366 16.668 16.6211 16.4825L12.6642 14.25C12.2938 13.9854 11.9846 13.6442 11.7576 13.2496C11.5305 12.855 11.3909 12.4162 11.3482 11.963V7.42523C11.3897 6.97169 11.5289 6.53256 11.7559 6.13782C11.9831 5.74307 12.2929 5.40205 12.6642 5.13831L16.612 2.86036C17.02 2.65667 17.4721 2.55686 17.928 2.56996V2.5064ZM17.928 0.754914C17.1532 0.740565 16.3878 0.924916 15.7045 1.29026L11.7566 3.56821C11.1099 3.99205 10.5717 4.56194 10.1855 5.23189C9.79928 5.90184 9.57586 6.65313 9.5332 7.42523V11.963C9.57586 12.7351 9.79928 13.4864 10.1855 14.1564C10.5717 14.8263 11.1099 15.3961 11.7566 15.82L15.7045 18.0979C16.3886 18.4602 17.1541 18.6414 17.928 18.6243C18.7047 18.6409 19.4729 18.4598 20.1605 18.0979L24.1083 15.82C24.7551 15.3961 25.2932 14.8263 25.6795 14.1564C26.0657 13.4864 26.2891 12.7351 26.3317 11.963V7.42523C26.2891 6.65313 26.0657 5.90184 25.6795 5.23189C25.2932 4.56194 24.7551 3.99205 24.1083 3.56821L20.1696 1.22679C19.4827 0.862217 18.7146 0.677944 17.937 0.691357L17.928 0.754914Z" fill="white"/>
<path d="M36.4311 2.50637C36.8873 2.49132 37.3397 2.59121 37.7471 2.79678L41.6949 5.07465C42.0687 5.33667 42.3809 5.67698 42.6098 6.07196C42.8386 6.46695 42.9786 6.90708 43.0199 7.36164V11.8994C42.9774 12.3536 42.8369 12.7934 42.6081 13.1881C42.3794 13.5829 42.0679 13.9235 41.6949 14.1864L37.7471 16.4643C37.3389 16.6667 36.8865 16.7635 36.4311 16.7456C35.9732 16.7611 35.5184 16.6646 35.1062 16.4643L31.1675 14.2499C30.7945 13.987 30.4829 13.6465 30.2542 13.2517C30.0255 12.8568 29.885 12.4172 29.8425 11.9628V7.4252C29.8838 6.97056 30.0238 6.5305 30.2526 6.13552C30.4815 5.74054 30.7936 5.40022 31.1675 5.1382L35.1062 2.86025C35.5174 2.65648 35.9724 2.55682 36.4311 2.56985V2.50637ZM36.4311 0.754798C35.6537 0.741385 34.8854 0.925583 34.1987 1.29023L30.2599 3.5681C29.6119 3.99154 29.0724 4.56113 28.6847 5.231C28.2969 5.90087 28.0717 6.65239 28.0273 7.4252V11.9628C28.0717 12.7357 28.2969 13.4872 28.6847 14.1571C29.0724 14.827 29.6119 15.3965 30.2599 15.8199L34.1987 18.0978C34.8861 18.4597 35.6544 18.6409 36.4311 18.6242C37.2051 18.6413 37.9705 18.4601 38.6547 18.0978L42.6024 15.8199C43.2504 15.3965 43.79 14.827 44.1778 14.1571C44.5655 13.4872 44.7906 12.7357 44.835 11.9628V7.4252C44.7906 6.65239 44.5655 5.90087 44.1778 5.231C43.79 4.56113 43.2504 3.99154 42.6024 3.5681L38.6547 1.29023C37.9714 0.924803 37.2059 0.740528 36.4311 0.754798Z" fill="white"/>
</svg>
