<svg width="70" height="66" viewBox="0 0 70 66" fill="none" xmlns="http://www.w3.org/2000/svg">
<path d="M10.8458 23.807C11.4341 23.7902 12.0176 23.9181 12.5449 24.1794L17.5957 27.1005C18.075 27.4364 18.4754 27.8728 18.7688 28.3793C19.0623 28.8858 19.2418 29.4502 19.2948 30.0331V35.852C19.2402 36.4346 19.0601 36.9984 18.7668 37.5047C18.4735 38.0109 18.0739 38.4476 17.5957 38.7847L12.5449 41.7058C12.0164 41.9626 11.4331 42.0865 10.8458 42.0666C10.262 42.0894 9.68184 41.9654 9.15834 41.7058L4.09594 38.7847C3.61774 38.4476 3.21824 38.0109 2.92494 37.5047C2.63154 36.9984 2.45144 36.4346 2.39684 35.852V30.0331C2.44994 29.4502 2.62934 28.8858 2.92284 28.3793C3.21624 27.8728 3.61664 27.4364 4.09594 27.1005L9.15834 24.1794C9.68074 23.9158 10.261 23.7878 10.8458 23.807ZM10.8458 21.4795C9.85244 21.4611 8.87084 21.6976 7.99464 22.1661L2.93224 25.1221C2.10124 25.665 1.40944 26.3953 0.912136 27.2543C0.414936 28.1134 0.126236 29.0772 0.0693359 30.0681V35.8869C0.126236 36.8779 0.414936 37.8417 0.912136 38.7007C1.40944 39.5597 2.10124 40.2901 2.93224 40.833L7.99464 43.754C8.87194 44.2186 9.85344 44.4509 10.8458 44.4291C11.8419 44.4504 12.827 44.2181 13.7087 43.754L18.7595 40.833C19.5904 40.2901 20.2823 39.5597 20.7795 38.7007C21.2768 37.8417 21.5654 36.8779 21.6223 35.8869V30.0681C21.5654 29.0772 21.2768 28.1134 20.7795 27.2543C20.2823 26.3953 19.5904 25.665 18.7595 25.1221L13.7087 22.201C12.8279 21.7334 11.8428 21.4972 10.8458 21.5144V21.4795Z" fill="white"/>
<path d="M34.5752 23.8069C35.1597 23.7902 35.7394 23.9181 36.2626 24.1793L41.325 27.1004C41.8011 27.4387 42.1984 27.8759 42.4897 28.3821C42.781 28.8883 42.9593 29.4515 43.0125 30.0331V35.8519C42.9578 36.4331 42.7788 36.9958 42.4877 37.5018C42.1965 38.0078 41.8 38.4453 41.325 38.7847L36.2626 41.7057C35.7382 41.9625 35.1587 42.0864 34.5752 42.0665C33.9879 42.0864 33.4046 41.9626 32.8761 41.7057L27.8137 38.7847C27.3387 38.4453 26.9421 38.0078 26.651 37.5018C26.3599 36.9958 26.1809 36.4331 26.1262 35.8519V30.0331C26.1794 29.4515 26.3577 28.8883 26.649 28.3821C26.9402 27.8759 27.3376 27.4387 27.8137 27.1004L32.8761 24.1793C33.4034 23.918 33.9869 23.7901 34.5752 23.8069ZM34.5752 21.4794C33.5781 21.4622 32.5931 21.6985 31.7123 22.166L26.6499 25.122C25.8205 25.6655 25.1304 26.3962 24.6351 27.2553C24.1399 28.1144 23.8533 29.0779 23.7986 30.068V35.8869C23.8533 36.877 24.1399 37.8405 24.6351 38.6996C25.1304 39.5587 25.8205 40.2894 26.6499 40.8329L31.7123 43.754C32.5939 44.218 33.5791 44.4503 34.5752 44.429C35.5676 44.4509 36.5491 44.2185 37.4264 43.754L42.4888 40.8329C43.3182 40.2894 44.0084 39.5587 44.5036 38.6996C44.9989 37.8405 45.2854 36.877 45.34 35.8869V30.068C45.2854 29.0779 44.9989 28.1144 44.5036 27.2553C44.0084 26.3962 43.3182 25.6655 42.4888 25.122L37.4264 22.2009C36.5502 21.7324 35.5686 21.496 34.5752 21.5143V21.4794Z" fill="white"/>
<path d="M58.2929 23.807C58.8812 23.7902 59.4647 23.9181 59.992 24.1794L65.0428 27.1005C65.5222 27.4364 65.9225 27.8728 66.216 28.3793C66.5094 28.8858 66.6889 29.4502 66.7419 30.0331V35.852C66.6874 36.4346 66.5072 36.9984 66.2139 37.5047C65.9206 38.0109 65.5211 38.4476 65.0428 38.7847L59.992 41.7058C59.4635 41.9626 58.8802 42.0865 58.2929 42.0666C57.7091 42.0894 57.1289 41.9654 56.6055 41.7058L51.5431 38.7847C51.0648 38.4476 50.6653 38.0109 50.372 37.5047C50.0786 36.9984 49.8985 36.4346 49.844 35.852V30.0331C49.897 29.4502 50.0765 28.8858 50.3699 28.3793C50.6634 27.8728 51.0637 27.4364 51.5431 27.1005L56.6055 24.1794C57.1279 23.9158 57.7081 23.7878 58.2929 23.807ZM58.2929 21.4795C57.2995 21.4611 56.3179 21.6976 55.4417 22.1661L50.3793 25.1221C49.5484 25.665 48.8565 26.3953 48.3592 27.2543C47.862 28.1134 47.5733 29.0772 47.5164 30.0681V35.8869C47.5733 36.8779 47.862 37.8417 48.3592 38.7007C48.8565 39.5597 49.5484 40.2901 50.3793 40.833L55.4417 43.754C56.319 44.2186 57.3005 44.4509 58.2929 44.4291C59.289 44.4504 60.2742 44.2181 61.1558 43.754L66.2066 40.833C67.0375 40.2901 67.7294 39.5597 68.2267 38.7007C68.7239 37.8417 69.0125 36.8779 69.0694 35.8869V30.0681C69.0125 29.0772 68.7239 28.1134 68.2267 27.2543C67.7294 26.3953 67.0375 25.665 66.2066 25.1221L61.1558 22.201C60.2751 21.7334 59.29 21.4972 58.2929 21.5144V21.4795Z" fill="white"/>
<path d="M22.7046 44.5339C23.2969 44.5142 23.8848 44.6422 24.4154 44.9063L29.4778 47.8274C29.9539 48.1657 30.3512 48.6029 30.6424 49.1091C30.9337 49.6153 31.1121 50.1785 31.1653 50.7601V56.579C31.1091 57.1598 30.9295 57.7219 30.6385 58.2277C30.3474 58.7335 29.9517 59.1712 29.4778 59.5116L24.4154 62.456C23.8825 62.6938 23.3056 62.8167 22.7221 62.8167C22.1386 62.8167 21.5616 62.6938 21.0288 62.456L15.9664 59.5349C15.4925 59.1945 15.0967 58.7567 14.8057 58.2509C14.5147 57.7451 14.3351 57.183 14.2789 56.6022V50.7834C14.3321 50.2018 14.5105 49.6386 14.8017 49.1324C15.093 48.6262 15.4903 48.189 15.9664 47.8507L21.0288 44.9296C21.552 44.6684 22.1317 44.5404 22.7163 44.5572L22.7046 44.5339ZM22.7163 42.2297C21.7238 42.2078 20.7423 42.4402 19.865 42.9047L14.8026 45.8257C13.973 46.3717 13.2829 47.1047 12.7877 47.9656C12.2926 48.8266 12.0061 49.7917 11.9514 50.7834V56.6022C12.007 57.5921 12.2939 58.5552 12.789 59.4142C13.2842 60.2731 13.9739 61.004 14.8026 61.5482L19.865 64.4693C20.7423 64.9338 21.7238 65.1662 22.7163 65.1443C23.7123 65.1656 24.6975 64.9333 25.5791 64.4693L30.6416 61.5482C31.4703 61.004 32.16 60.2731 32.6551 59.4142C33.1503 58.5552 33.4372 57.5921 33.4928 56.6022V50.7834C33.4381 49.7917 33.1516 48.8266 32.6565 47.9656C32.1613 47.1047 31.4712 46.3717 30.6416 45.8257L25.5791 42.8814C24.6975 42.4174 23.7123 42.1851 22.7163 42.2064V42.2297Z" fill="white"/>
<path d="M46.434 44.5335C47.0189 44.5143 47.5991 44.6424 48.1215 44.906L53.1839 47.827C53.6633 48.163 54.0636 48.5994 54.3571 49.1059C54.6505 49.6124 54.83 50.1768 54.883 50.7598V56.5786C54.827 57.1608 54.6462 57.724 54.353 58.2301C54.0598 58.7361 53.6611 59.1731 53.1839 59.5113L48.1215 62.4323C47.5957 62.6852 47.0172 62.8088 46.434 62.7931C45.8473 62.8072 45.2654 62.6836 44.735 62.4323L39.6842 59.5113C39.207 59.1731 38.8083 58.7361 38.5151 58.2301C38.2219 57.724 38.0411 57.1608 37.9851 56.5786V50.7598C38.0381 50.1768 38.2176 49.6124 38.511 49.1059C38.8045 48.5994 39.2048 48.163 39.6842 47.827L44.735 44.906C45.2623 44.6446 45.8457 44.5168 46.434 44.5335ZM46.434 42.206C45.438 42.1847 44.4528 42.417 43.5712 42.881L38.5204 45.8021C37.6892 46.3475 36.9974 47.08 36.5002 47.9409C36.0031 48.8018 35.7145 49.7672 35.6575 50.7598V56.5786C35.7153 57.5693 36.0044 58.5327 36.5016 59.3916C36.9987 60.2505 37.6901 60.981 38.5204 61.5246L43.5712 64.4456C44.4528 64.9097 45.438 65.142 46.434 65.1207C47.4265 65.1425 48.408 64.9102 49.2853 64.4456L54.3477 61.5246C55.178 60.981 55.8694 60.2505 56.3666 59.3916C56.8637 58.5327 57.1528 57.5693 57.2106 56.5786V50.7598C57.1536 49.7672 56.865 48.8018 56.3679 47.9409C55.8707 47.08 55.1789 46.3475 54.3477 45.8021L49.2853 42.881C48.408 42.4165 47.4265 42.1841 46.434 42.206Z" fill="white"/>
<path d="M22.7048 3.08033C23.2932 3.06263 23.8769 3.19053 24.4039 3.45273L29.4663 6.37383C29.9424 6.71213 30.3397 7.14933 30.631 7.65553C30.9222 8.16173 31.1006 8.72493 31.1538 9.30653V15.1253C31.0991 15.7065 30.9201 16.2692 30.6289 16.7752C30.3378 17.2812 29.9413 17.7187 29.4663 18.058L24.4155 21.0024C23.8827 21.2402 23.3057 21.3631 22.7222 21.3631C22.1387 21.3631 21.5618 21.2402 21.029 21.0024L15.9549 18.1395C15.4799 17.8002 15.0834 17.3627 14.7923 16.8567C14.5011 16.3507 14.3221 15.788 14.2674 15.2068V9.38793C14.3206 8.80633 14.499 8.24323 14.7902 7.73703C15.0815 7.23083 15.4788 6.79353 15.9549 6.45533L21.0173 3.53423C21.5405 3.27303 22.1202 3.14503 22.7048 3.16183V3.08033ZM22.7048 0.83433C21.7113 0.81593 20.7298 1.05233 19.8536 1.52083L14.7911 4.44193C13.9617 4.98543 13.2716 5.71623 12.7764 6.57533C12.2811 7.43443 11.9946 8.39783 11.9399 9.38793V15.2068C11.9946 16.1969 12.2811 17.1604 12.7764 18.0195C13.2716 18.8786 13.9617 19.6093 14.7911 20.1528L19.8536 23.0739C20.7308 23.5384 21.7124 23.7708 22.7048 23.7489C23.7009 23.7702 24.686 23.5379 25.5677 23.0739L30.6301 20.1528C31.4595 19.6093 32.1496 18.8786 32.6449 18.0195C33.1401 17.1604 33.4266 16.1969 33.4813 15.2068V9.38793C33.4266 8.39783 33.1401 7.43443 32.6449 6.57533C32.1496 5.71623 31.4595 4.98543 30.6301 4.44193L25.5793 1.43943C24.6985 0.971929 23.7135 0.735629 22.7164 0.752829L22.7048 0.83433Z" fill="white"/>
<path d="M46.434 3.0801C47.0189 3.0608 47.5991 3.1889 48.1215 3.4525L53.1839 6.3735C53.6633 6.7095 54.0636 7.1459 54.3571 7.6524C54.6505 8.1589 54.83 8.7233 54.883 9.3062V15.1251C54.8285 15.7076 54.6483 16.2715 54.355 16.7777C54.0617 17.284 53.6622 17.7207 53.1839 18.0578L48.1215 20.9789C47.5981 21.2384 47.0179 21.3625 46.434 21.3396C45.8468 21.3595 45.2635 21.2357 44.735 20.9789L39.6842 18.1393C39.2059 17.8022 38.8064 17.3655 38.5131 16.8592C38.2198 16.3529 38.0396 15.7891 37.9851 15.2065V9.3877C38.0381 8.8047 38.2176 8.2404 38.511 7.7339C38.8045 7.2274 39.2048 6.791 39.6842 6.455L44.735 3.5339C45.2623 3.2726 45.8457 3.1448 46.434 3.1615V3.0801ZM46.434 0.833995C45.437 0.816795 44.4519 1.053 43.5712 1.5206L38.5204 4.4416C37.6895 4.9846 36.9976 5.715 36.5004 6.574C36.0031 7.433 35.7144 8.3967 35.6575 9.3877V15.2065C35.7144 16.1975 36.0031 17.1612 36.5004 18.0203C36.9976 18.8793 37.6895 19.6096 38.5204 20.1526L43.5712 23.0736C44.4528 23.5377 45.438 23.77 46.434 23.7486C47.4265 23.7705 48.408 23.5382 49.2853 23.0736L54.3477 20.1526C55.1786 19.6096 55.8705 18.8793 56.3678 18.0203C56.865 17.1612 57.1537 16.1975 57.2106 15.2065V9.3877C57.1537 8.3967 56.865 7.433 56.3678 6.574C55.8705 5.715 55.1786 4.9846 54.3477 4.4416L49.2853 1.5206C48.4091 1.052 47.4275 0.815695 46.434 0.833995Z" fill="white"/>
</svg>
