<svg width="74" height="52" viewBox="0 0 74 52" fill="none" xmlns="http://www.w3.org/2000/svg">
<path d="M39.6223 28.3388L28.447 47.7318L17.2718 28.3388H39.6223ZM42.6161 26.6055H14.2659L28.447 51.162L42.6161 26.6055Z" fill="white"/>
<path d="M59.0518 4.21845L70.227 23.6115H47.8765L59.0518 4.21845ZM59.0518 0.751953L44.8706 25.3084H73.2329L59.0518 0.751953Z" fill="white"/>
<path d="M0.678711 0.751953L12.5691 22.4722L25.5624 1.29735L0.678711 0.751953Z" fill="white"/>
<path d="M28.4473 2.65527L40.9195 24.2543H15.9509L28.4473 2.65527Z" fill="white"/>
<path d="M44.1314 28.9688L56.6157 51.1618H31.0532L43.7435 28.9688H44.1314Z" fill="white"/>
<path d="M46.8342 27.6235L59.0518 49.477L71.4391 27.6235H46.8342Z" fill="white"/>
</svg>
