<svg width="57" height="40" viewBox="0 0 57 40" fill="none" xmlns="http://www.w3.org/2000/svg">
<path d="M30.379 21.6625L21.6643 36.7856L12.9495 21.6625H30.379ZM32.7137 20.3108H10.6055L21.6643 39.4606L32.7137 20.3108Z" fill="white"/>
<path d="M45.5315 2.85268L54.2462 17.9758H36.8167L45.5315 2.85268ZM45.5315 0.149414L34.4727 19.2991H56.5903L45.5315 0.149414Z" fill="white"/>
<path d="M0.00976562 0.149414L9.28221 17.0874L19.4147 0.57473L0.00976562 0.149414Z" fill="white"/>
<path d="M21.6649 1.63354L31.3911 18.477H11.9199L21.6649 1.63354Z" fill="white"/>
<path d="M33.896 22.1538L43.6316 39.4605H23.6973L33.5935 22.1538H33.896Z" fill="white"/>
<path d="M36.0039 21.1047L45.5315 38.1467L55.1914 21.1047H36.0039Z" fill="white"/>
</svg>
