<svg width="500" height="187" viewBox="0 0 500 187" fill="none" xmlns="http://www.w3.org/2000/svg">
<g clip-path="url(#clip0)">
<path d="M138.149 122.071L123.907 65.8442H131.576L138.266 94.2977C139.931 101.306 141.432 108.322 142.43 113.742H142.6C143.514 108.152 145.263 101.476 147.169 94.2127L154.642 65.8442H162.226L169.053 94.3826C170.639 101.058 172.14 107.733 172.969 113.657H173.139C174.307 107.485 175.887 101.234 177.636 94.2127L185.05 65.8442H192.439L176.526 122.071H168.975L161.893 92.7742C160.334 86.7271 159.109 80.5982 158.225 74.4156H158.062C156.945 80.608 155.498 86.7363 153.728 92.7742L145.733 122.071H138.149Z" fill="#8B0304"/>
<path d="M205.205 70.349C205.29 72.853 203.456 74.8536 200.545 74.8536C199.956 74.8619 199.371 74.7504 198.826 74.526C198.281 74.3015 197.787 73.9687 197.374 73.5476C196.961 73.1266 196.638 72.626 196.423 72.0763C196.209 71.5265 196.108 70.9389 196.126 70.349C196.112 69.744 196.22 69.1425 196.445 68.5808C196.669 68.019 197.005 67.5088 197.433 67.0809C197.86 66.653 198.369 66.3164 198.93 66.0915C199.491 65.8666 200.091 65.758 200.695 65.7724C201.299 65.7488 201.9 65.8516 202.462 66.074C203.024 66.2965 203.533 66.6338 203.957 67.0644C204.382 67.495 204.712 68.0095 204.927 68.575C205.141 69.1406 205.236 69.7447 205.205 70.349ZM197.046 122.071V81.6793H204.376V122.071H197.046Z" fill="#8B0304"/>
<path d="M215.707 92.6501C215.707 88.4788 215.622 85.0529 215.367 81.7185H221.894L222.312 88.3938H222.462C224.466 84.556 229.132 80.7967 235.796 80.7967C241.376 80.7967 250.038 84.1376 250.038 97.9916V122.071H242.695V98.7893C242.695 92.2513 240.28 86.8509 233.368 86.8509C231.144 86.8901 228.99 87.6401 227.22 88.9914C225.451 90.3426 224.159 92.2246 223.532 94.363C223.181 95.4678 223.013 96.623 223.036 97.7824V122.071H215.707V92.6501Z" fill="#8B0304"/>
<path d="M265.186 103.229C265.349 113.16 271.713 117.246 279.016 117.246C284.238 117.246 287.43 116.331 290.177 115.16L291.43 120.391C288.82 121.561 284.427 122.895 278.018 122.895C265.617 122.895 258.189 114.716 258.189 102.536C258.189 90.3552 265.369 80.7509 277.117 80.7509C290.282 80.7509 293.78 92.3559 293.78 99.783C293.768 100.927 293.686 102.069 293.532 103.202L265.186 103.229ZM286.679 97.9982C286.764 93.3235 284.767 86.0663 276.517 86.0663C269.102 86.0663 265.852 92.9051 265.271 97.9982H286.679Z" fill="#8B0304"/>
<path d="M319.059 65.8442H326.303V115.997H350.322V122.071H319.059V65.8442Z" fill="#8B0304"/>
<path d="M392.641 101.561C392.641 116.494 382.309 123.006 372.565 123.006C361.652 123.006 353.232 114.997 353.232 102.228C353.232 88.7077 362.063 80.777 373.231 80.777C384.809 80.777 392.641 89.2111 392.641 101.561ZM360.66 101.98C360.66 110.819 365.744 117.501 372.911 117.501C379.907 117.501 385.155 110.904 385.155 101.81C385.155 94.9645 381.741 86.2886 373.074 86.2886C364.406 86.2886 360.647 94.2977 360.647 101.98H360.66Z" fill="#8B0304"/>
<path d="M403.3 81.6989L411.217 104.418C412.482 107.807 413.572 111.26 414.48 114.762H414.728C415.642 111.427 416.81 108.086 418.142 104.418L425.974 81.7185H433.636L417.796 122.071H410.799L395.468 81.6793L403.3 81.6989Z" fill="#8B0304"/>
<path d="M442.956 103.229C443.12 113.16 449.451 117.246 456.78 117.246C462.002 117.246 465.2 116.331 467.948 115.16L469.194 120.391C466.583 121.561 462.197 122.895 455.782 122.895C443.381 122.895 435.953 114.716 435.953 102.536C435.953 90.3552 443.133 80.7509 454.881 80.7509C468.039 80.7509 471.544 92.3559 471.544 99.783C471.531 100.927 471.446 102.069 471.289 103.202L442.956 103.229ZM464.449 97.9982C464.527 93.3235 462.53 86.0663 454.28 86.0663C446.866 86.0663 443.622 92.9051 443.035 97.9982H464.449Z" fill="#8B0304"/>
<path d="M479.774 94.2977C479.774 89.5445 479.689 85.4517 479.441 81.6989H485.857L486.105 89.623H486.438C488.272 84.203 492.684 80.777 497.599 80.777C498.301 80.7674 499.002 80.8532 499.681 81.032V87.9558C498.86 87.7793 498.021 87.696 497.181 87.7073C492.019 87.7073 488.35 91.6301 487.352 97.1351C487.148 98.2661 487.036 99.4119 487.019 100.561V122.071H479.774V94.2977Z" fill="#8B0304"/>
<path d="M145.073 146.118H141.875V144.954H149.661V146.111H146.45V155.493H145.073V146.118Z" fill="#939598"/>
<path d="M156.052 152.185L154.962 155.5H153.559L157.135 144.961H158.774L162.363 155.5H160.914L159.785 152.185H156.052ZM159.505 151.119L158.473 148.086C158.238 147.432 158.082 146.778 157.932 146.164H157.899C157.742 146.817 157.573 147.432 157.364 148.073L156.339 151.119H159.505Z" fill="#939598"/>
<path d="M176.376 155.036C175.328 155.409 174.225 155.603 173.113 155.611C172.394 155.681 171.669 155.593 170.989 155.352C170.308 155.111 169.689 154.723 169.174 154.216C168.66 153.71 168.262 153.096 168.01 152.418C167.758 151.741 167.657 151.016 167.715 150.296C167.715 147.151 169.882 144.849 173.413 144.849C174.307 144.832 175.195 144.997 176.024 145.333L175.697 146.445C174.962 146.127 174.167 145.973 173.367 145.994C170.809 145.994 169.138 147.589 169.138 150.23C169.138 152.872 170.744 154.486 173.198 154.486C173.813 154.52 174.429 154.424 175.006 154.205V151.061H172.871V149.962H176.337L176.376 155.036Z" fill="#939598"/>
<path d="M183.138 144.954H184.495V154.356H188.992V155.493H183.118L183.138 144.954Z" fill="#939598"/>
<path d="M196.557 144.954V155.493H195.199V144.954H196.557Z" fill="#939598"/>
<path d="M203.612 155.5V144.954H205.1L208.475 150.289C209.179 151.388 209.809 152.532 210.361 153.715C210.237 152.309 210.204 151.028 210.204 149.38V144.954H211.51V155.493H210.139L206.797 150.185C206.073 149.054 205.419 147.879 204.839 146.667H204.794C204.872 147.975 204.905 149.282 204.905 151.015V155.52L203.612 155.5Z" fill="#939598"/>
<path d="M224.028 150.557H219.936V154.362H224.505V155.5H218.585V144.954H224.27V146.092H219.943V149.426H224.035L224.028 150.557Z" fill="#939598"/>
<path d="M246.956 155.036C245.919 155.407 244.827 155.601 243.726 155.611C243.007 155.68 242.282 155.591 241.602 155.349C240.922 155.108 240.303 154.72 239.788 154.214C239.273 153.708 238.875 153.094 238.621 152.417C238.368 151.741 238.266 151.016 238.321 150.296C238.321 147.151 240.488 144.849 244.019 144.849C244.913 144.83 245.802 144.994 246.63 145.333L246.304 146.445C245.569 146.126 244.774 145.972 243.974 145.994C241.415 145.994 239.744 147.589 239.744 150.23C239.744 152.872 241.35 154.486 243.804 154.486C244.422 154.521 245.04 154.425 245.618 154.205V151.061H243.478V149.962H246.943L246.956 155.036Z" fill="#939598"/>
<path d="M262.719 150.119C262.719 153.748 260.513 155.676 257.831 155.676C255.05 155.676 253.099 153.512 253.099 150.322C253.099 146.974 255.174 144.784 257.987 144.784C260.8 144.784 262.719 146.994 262.719 150.119ZM254.548 150.296C254.548 152.545 255.768 154.565 257.909 154.565C260.05 154.565 261.283 152.604 261.283 150.185C261.283 148.086 260.187 145.896 257.922 145.896C255.657 145.896 254.548 147.975 254.548 150.296Z" fill="#939598"/>
<path d="M274.617 150.557H270.525V154.362H275.094V155.5H269.174V144.954H274.859V146.092H270.531V149.426H274.624L274.617 150.557Z" fill="#939598"/>
<path d="M281.353 153.846C282.09 154.287 282.93 154.524 283.788 154.532C285.178 154.532 285.994 153.8 285.994 152.734C285.994 151.669 285.426 151.185 284.036 150.636C282.319 150.028 281.255 149.132 281.255 147.648C281.255 146.007 282.613 144.784 284.656 144.784C285.463 144.759 286.264 144.937 286.986 145.301L286.607 146.412C285.993 146.084 285.307 145.914 284.61 145.915C283.174 145.915 282.652 146.772 282.652 147.491C282.652 148.478 283.305 148.962 284.747 149.524C286.529 150.217 287.43 151.074 287.43 152.623C287.43 154.173 286.229 155.657 283.749 155.657C282.811 155.677 281.884 155.451 281.06 155.003L281.353 153.846Z" fill="#939598"/>
<path d="M303.283 144.954V149.361H308.374V144.954H309.745V155.493H308.374V150.551H303.283V155.493H301.926V144.954H303.283Z" fill="#939598"/>
<path d="M322.243 150.557H318.151V154.362H322.72V155.5H316.8V144.954H322.485V146.092H318.157V149.426H322.25L322.243 150.557Z" fill="#939598"/>
<path d="M329.162 145.098C330.024 144.947 330.898 144.875 331.773 144.882C333.222 144.882 334.162 145.144 334.814 145.739C335.088 145.994 335.304 146.306 335.447 146.652C335.59 146.998 335.657 147.371 335.643 147.746C335.652 148.346 335.466 148.933 335.113 149.417C334.759 149.902 334.258 150.258 333.685 150.433V150.479C334.501 150.76 334.991 151.512 335.232 152.61C335.415 153.596 335.688 154.564 336.048 155.5H334.638C334.325 154.685 334.091 153.842 333.94 152.983C333.626 151.531 333.065 150.982 331.832 150.936H330.526V155.513H329.169L329.162 145.098ZM330.52 149.903H331.91C333.365 149.903 334.286 149.106 334.286 147.896C334.286 146.536 333.3 145.935 331.864 145.935C331.413 145.924 330.962 145.966 330.52 146.059V149.903Z" fill="#939598"/>
<path d="M347.704 150.557H343.612V154.362H348.181V155.5H342.268V144.954H347.952V146.092H343.625V149.426H347.717L347.704 150.557Z" fill="#939598"/>
<path d="M39.8482 -3.22025e-05C39.0223 -0.00454567 38.2059 0.177722 37.4601 0.533176C36.7142 0.88863 36.0581 1.40811 35.5405 2.05291C33.6216 4.43928 31.8268 7.08718 30.2799 9.32971C28.1326 12.4287 24.5885 19.699 22.5587 24.6417C21.5209 27.1719 14.5307 46.7794 10.0011 73.291C8.88505 79.829 9.1396 83.2223 10.9736 86.367C12.9317 89.6884 16.43 93.4739 21.162 97.3182C25.2282 100.633 30.2995 103.817 34.0655 106.138L35.4557 107.007C39.0258 109.243 42.113 111.179 50.526 111.179H51.3549C59.768 111.179 62.8552 109.217 66.4253 107.007L67.8155 106.138C71.5489 103.817 76.6593 100.633 80.719 97.3182C85.4509 93.4739 88.9754 89.6884 90.9073 86.367C92.7414 83.2353 92.9959 79.829 91.8864 73.291C90.9987 68.0999 90.0197 63.1768 89.008 58.5936C88.5769 56.5367 87.6101 54.6307 86.2059 53.069C84.8017 51.5074 83.01 50.3457 81.0127 49.7019C78.0666 48.7819 75.0003 48.306 71.9144 48.2897C57.5097 48.2897 48.0132 59.3454 47.0668 66.2169C48.8535 63.2107 51.3757 60.7105 54.3952 58.9522C57.4147 57.1939 60.8317 56.2356 64.3237 56.168C66.2083 56.1224 68.083 56.454 69.8381 57.1433C71.5931 57.8326 73.1932 58.8657 74.5447 60.1823C76.419 62.0424 77.7617 64.3716 78.4331 66.9276C79.1046 69.4835 79.0803 72.1729 78.3628 74.7163C77.9383 76.2031 77.2771 77.6116 76.4048 78.8875C70.8701 89.1653 45.0174 96.7559 45.0174 96.7559C45.0174 96.7559 26.9382 76.7104 27.6039 65.0532C27.5452 63.556 28.4198 52.7421 38.9932 50.1073C40.1386 49.8455 41.3102 49.716 42.485 49.7215C45.2524 49.7215 48.7116 50.4211 50.9699 53.0689C55.5386 45.4718 50.3759 37.3778 42.485 37.3778C37.479 37.3778 31.3895 40.6467 25.9657 49.3096C22.5979 27.6426 35.1032 17.0969 43.4902 9.80698C44.3548 9.0629 44.9705 8.07092 45.2543 6.96503C45.538 5.85915 45.4761 4.69268 45.0768 3.62321C44.6775 2.55373 43.9601 1.63278 43.0215 0.984819C42.083 0.336858 40.9685 -0.00691308 39.8286 -3.22025e-05H39.8482ZM53.5545 22.3665C53.5545 23.5303 53.21 24.6679 52.5645 25.6356C51.9191 26.6032 51.0016 27.3575 49.9283 27.8028C48.8549 28.2482 47.6738 28.3647 46.5344 28.1377C45.3949 27.9106 44.3482 27.3502 43.5267 26.5273C42.7052 25.7043 42.1458 24.6559 41.9191 23.5144C41.6925 22.373 41.8088 21.1899 42.2534 20.1147C42.698 19.0395 43.4509 18.1205 44.4169 17.474C45.3829 16.8274 46.5186 16.4823 47.6803 16.4823C49.2371 16.484 50.7296 17.1047 51.8298 18.2081C52.93 19.3114 53.548 20.807 53.548 22.3665H53.5545ZM39.1955 30.6828C39.1955 31.4083 38.9808 32.1174 38.5784 32.7206C38.1761 33.3237 37.6042 33.7939 36.9352 34.0715C36.2661 34.3491 35.5299 34.4217 34.8196 34.2802C34.1094 34.1387 33.457 33.7894 32.9449 33.2764C32.4328 32.7634 32.0841 32.1099 31.9428 31.3984C31.8015 30.6869 31.874 29.9494 32.1512 29.2792C32.4283 28.609 32.8976 28.0362 33.4997 27.6332C34.1019 27.2302 34.8098 27.015 35.534 27.015C36.5028 27.0185 37.4308 27.4064 38.1146 28.0939C38.7985 28.7814 39.1825 29.7123 39.1825 30.6828H39.1955Z" fill="#B11116"/>
<path d="M100.482 75.1871C94.9932 44.5761 85.4706 24.2691 85.4706 24.2691C85.4706 24.2691 82.9317 23.2884 82.5727 23.223C83.6758 25.7597 90.7704 45.7464 95.3718 72.6961C96.6053 79.8879 96.3116 84.131 93.9685 88.1454C91.6254 92.1597 87.644 96.2459 82.9578 100.058C78.2716 103.869 72.4562 107.4 68.514 109.865C64.5718 112.329 60.8581 114.768 50.9504 114.696C41.0427 114.768 37.355 112.349 33.3802 109.865C29.4054 107.38 23.6226 103.863 18.9364 100.058C14.2502 96.2525 10.2688 92.1597 7.9257 88.1454C5.58258 84.131 5.31497 79.8879 6.52243 72.6961C11.1238 45.7464 18.225 25.7597 19.328 23.223C18.9625 23.2884 16.4236 24.2691 16.4236 24.2691C16.4236 24.2691 6.89447 44.5761 1.41195 75.1871C0.106594 82.575 0.589568 86.9554 3.02406 91.0875C5.45856 95.2195 9.60308 98.9331 14.4786 102.856C19.3541 106.779 26.4226 111.113 32.0226 114.415C37.6226 117.717 47.0996 122.437 47.0996 144.398V157.723C47.1105 162.52 45.3391 167.151 42.13 170.712C38.9209 174.273 34.5038 176.511 29.7383 176.99C19.6413 177.978 12.997 179.645 12.997 181.567C12.997 184.587 29.9667 187.033 50.9438 187.033C71.921 187.033 88.8841 184.587 88.8841 181.567C88.8841 179.677 82.2464 178.01 72.1429 176.99C67.3797 176.508 62.9658 174.269 59.7594 170.708C56.553 167.147 54.7834 162.518 54.7946 157.723V144.398C54.7946 122.437 64.265 117.717 69.8716 114.415C75.4781 111.113 82.5401 106.779 87.4156 102.856C92.2911 98.9331 96.4291 95.226 98.8701 91.0875C101.311 86.9489 101.807 82.575 100.482 75.1871Z" fill="#6B7B84"/>
</g>
<defs>
<clipPath id="clip0">
<rect width="499" height="187" fill="white" transform="translate(0.6875)"/>
</clipPath>
</defs>
</svg>
