<svg width="616" height="231" viewBox="0 0 616 231" fill="none" xmlns="http://www.w3.org/2000/svg">
<g clip-path="url(#clip0)">
<path d="M169.949 150.849L152.399 81.6789H161.839L170.059 116.679C172.059 125.299 173.959 133.919 175.189 140.599H175.389C176.519 133.719 178.679 125.509 181.039 116.599L190.279 81.6989H199.619L208.029 116.799C209.979 125.009 211.829 133.219 212.859 140.509H213.059C214.499 132.919 216.449 125.219 218.609 116.599L227.739 81.6989H236.879L217.269 150.879H207.929L199.209 114.879C197.284 107.442 195.775 99.9038 194.689 92.2989H194.479C193.107 99.9153 191.328 107.453 189.149 114.879L179.289 150.879L169.949 150.849Z" fill="white"/>
<path d="M252.579 87.2089C252.689 90.2889 250.429 92.7488 246.829 92.7488C246.104 92.7587 245.384 92.6214 244.713 92.3452C244.042 92.0689 243.434 91.6596 242.925 91.1418C242.417 90.624 242.018 90.0085 241.755 89.3326C241.491 88.6566 241.366 87.9342 241.389 87.2089C241.37 86.4617 241.503 85.7184 241.78 85.0242C242.057 84.33 242.473 83.6995 243.001 83.171C243.53 82.6424 244.161 82.2269 244.855 81.9498C245.549 81.6726 246.292 81.5397 247.039 81.5589C247.783 81.5328 248.525 81.6619 249.216 81.9381C249.907 82.2142 250.533 82.6314 251.055 83.1629C251.576 83.6944 251.981 84.3287 252.243 85.0253C252.506 85.7219 252.62 86.4656 252.579 87.2089ZM242.519 150.849V101.169H251.519V150.849H242.519Z" fill="white"/>
<path d="M265.51 114.619C265.51 109.479 265.41 105.269 265.1 101.169H273.1L273.61 109.379H273.82C275.445 106.473 277.834 104.067 280.728 102.421C283.622 100.774 286.911 99.9508 290.24 100.039C297.12 100.039 307.79 104.149 307.79 121.179V150.849H298.79V122.209C298.79 114.209 295.79 107.529 287.3 107.529C284.558 107.573 281.901 108.494 279.72 110.156C277.539 111.819 275.948 114.136 275.18 116.769C274.747 118.129 274.54 119.552 274.57 120.979V150.849H265.57L265.51 114.619Z" fill="white"/>
<path d="M326.489 127.679C326.689 139.899 334.489 144.929 343.489 144.929C348.205 145.077 352.896 144.2 357.239 142.359L358.779 148.829C355.599 150.259 350.159 151.909 342.249 151.909C326.959 151.909 317.819 141.849 317.819 126.909C317.819 111.969 326.649 100.119 341.119 100.119C357.339 100.119 361.649 114.389 361.649 123.519C361.634 124.927 361.534 126.333 361.349 127.729L326.489 127.679ZM353.019 121.179C353.119 115.439 350.659 106.509 340.499 106.509C331.359 106.509 327.359 114.919 326.639 121.179H353.019Z" fill="white"/>
<path d="M392.899 81.6789H401.829V143.369H431.389V150.859H392.899V81.6789Z" fill="white"/>
<path d="M483.529 125.599C483.529 143.969 470.799 151.979 458.789 151.979C445.349 151.979 434.979 142.129 434.979 126.419C434.979 109.789 445.859 100.039 459.609 100.039C473.879 100.039 483.529 110.409 483.529 125.599ZM444.109 126.109C444.109 136.989 450.379 145.199 459.199 145.199C467.829 145.199 474.289 137.099 474.289 125.909C474.289 117.489 470.079 106.809 459.409 106.809C448.739 106.809 444.109 116.679 444.109 126.109Z" fill="white"/>
<path d="M496.67 101.169L506.42 129.089C507.976 133.259 509.311 137.508 510.42 141.819H510.73C511.86 137.709 513.3 133.609 514.94 129.089L524.59 101.169H534.02L514.52 150.849H505.9L487.02 101.169H496.67Z" fill="white"/>
<path d="M545.529 127.679C545.729 139.899 553.529 144.929 562.529 144.929C567.245 145.078 571.936 144.201 576.279 142.359L577.819 148.829C574.639 150.259 569.199 151.909 561.299 151.909C545.999 151.909 536.869 141.849 536.869 126.909C536.869 111.969 545.689 100.119 560.169 100.119C576.389 100.119 580.699 114.389 580.699 123.519C580.682 124.927 580.578 126.333 580.389 127.729L545.529 127.679ZM572.019 121.179C572.119 115.439 569.659 106.509 559.499 106.509C550.359 106.509 546.359 114.919 545.639 121.179H572.019Z" fill="white"/>
<path d="M590.899 116.679C590.899 110.829 590.789 105.799 590.489 101.179H598.389L598.699 110.929H599.109C601.369 104.259 606.809 100.049 612.859 100.049C613.726 100.036 614.591 100.14 615.429 100.359V108.879C614.418 108.656 613.385 108.552 612.349 108.569C605.989 108.569 601.469 113.389 600.239 120.169C599.984 121.558 599.846 122.966 599.829 124.379V150.859H590.899V116.679Z" fill="white"/>
<path d="M178.489 180.409H174.489V178.979H184.089V180.409H180.089V191.949H178.399L178.489 180.409Z" fill="white"/>
<path d="M192.019 187.869L190.669 191.949H188.939L193.339 178.949H195.339L199.769 191.949H198.019L196.629 187.869H192.019ZM196.269 186.559L194.999 182.829C194.709 181.979 194.519 181.209 194.319 180.459C194.119 181.229 193.909 182.019 193.659 182.809L192.389 186.559H196.269Z" fill="white"/>
<path d="M217.02 191.369C215.737 191.835 214.384 192.078 213.02 192.089C212.133 192.173 211.24 192.063 210.401 191.765C209.562 191.467 208.798 190.99 208.164 190.366C207.529 189.741 207.039 188.986 206.727 188.152C206.415 187.318 206.29 186.426 206.36 185.539C206.36 181.679 209.04 178.849 213.36 178.849C214.465 178.82 215.565 179.021 216.59 179.439L216.18 180.809C215.279 180.413 214.303 180.221 213.32 180.249C212.62 180.193 211.916 180.29 211.258 180.533C210.599 180.775 210.001 181.158 209.505 181.654C209.008 182.15 208.626 182.749 208.383 183.407C208.141 184.066 208.044 184.769 208.1 185.469C208.1 188.759 210.1 190.699 213.1 190.699C213.859 190.743 214.62 190.623 215.33 190.349V186.489H212.69V185.139H217.02V191.369Z" fill="white"/>
<path d="M225.39 178.979H227.02V190.549H232.56V191.949H225.35L225.39 178.979Z" fill="white"/>
<path d="M241.919 178.979V191.979H240.249V178.979H241.919Z" fill="white"/>
<path d="M250.619 191.949V178.949H252.449L256.599 185.509C257.473 186.86 258.251 188.27 258.929 189.729C258.779 187.999 258.739 186.419 258.739 184.399V178.969H260.319V191.969H258.619L254.509 185.389C253.607 183.999 252.796 182.553 252.079 181.059H252.019C252.119 182.699 252.159 184.249 252.159 186.409V191.949H250.619Z" fill="white"/>
<path d="M275.77 185.869H270.77V190.549H276.39V191.949H269.02V178.949H276.02V180.359H270.69V184.449H275.69L275.77 185.869Z" fill="white"/>
<path d="M304.02 191.369C302.737 191.835 301.384 192.078 300.02 192.089C299.133 192.173 298.24 192.063 297.401 191.765C296.562 191.467 295.798 190.99 295.163 190.366C294.529 189.741 294.038 188.986 293.727 188.152C293.415 187.318 293.29 186.426 293.36 185.539C293.36 181.679 296.04 178.849 300.36 178.849C301.465 178.82 302.565 179.021 303.59 179.439L303.189 180.809C302.286 180.414 301.306 180.223 300.32 180.249C299.62 180.193 298.916 180.29 298.258 180.533C297.599 180.775 297.001 181.158 296.505 181.654C296.008 182.15 295.626 182.749 295.383 183.407C295.14 184.066 295.044 184.769 295.1 185.469C295.1 188.759 297.1 190.699 300.1 190.699C300.859 190.743 301.62 190.623 302.33 190.349V186.489H299.689V185.139H304.02V191.369Z" fill="white"/>
<path d="M323.439 185.329C323.439 189.799 320.729 192.159 317.439 192.159C314.149 192.159 311.609 189.509 311.609 185.579C311.609 181.459 314.169 178.769 317.609 178.769C321.049 178.769 323.439 181.479 323.439 185.329ZM313.379 185.539C313.379 188.309 314.879 190.799 317.519 190.799C320.159 190.799 321.669 188.349 321.669 185.409C321.669 182.829 320.329 180.139 317.539 180.139C314.749 180.139 313.379 182.679 313.379 185.539Z" fill="white"/>
<path d="M338.11 185.869H333.11V190.549H338.73V191.949H331.43V178.949H338.43V180.359H333.1V184.449H338.1L338.11 185.869Z" fill="white"/>
<path d="M346.409 189.909C347.316 190.455 348.352 190.748 349.409 190.759C351.119 190.759 352.119 189.849 352.119 188.549C352.119 187.249 351.429 186.639 349.679 185.969C347.559 185.219 346.249 184.119 346.249 182.289C346.249 180.289 347.929 178.769 350.449 178.769C351.442 178.735 352.426 178.955 353.309 179.409L352.849 180.769C352.093 180.365 351.247 180.155 350.389 180.159C348.619 180.159 347.949 181.159 347.949 182.099C347.949 183.309 348.729 183.909 350.519 184.599C352.719 185.449 353.829 186.509 353.829 188.409C353.829 190.309 352.349 192.139 349.289 192.139C348.134 192.153 346.994 191.871 345.979 191.319L346.409 189.909Z" fill="white"/>
<path d="M373.429 178.979V184.409H379.699V178.979H381.389V191.979H379.699V185.899H373.429V191.979H371.749V178.979H373.429Z" fill="white"/>
<path d="M396.789 185.869H391.789V190.549H397.409V191.949H390.119V178.949H397.119V180.359H391.789V184.449H396.789V185.869Z" fill="white"/>
<path d="M405.319 179.149C406.379 178.965 407.454 178.878 408.529 178.889C409.861 178.735 411.201 179.093 412.279 179.889C412.612 180.206 412.874 180.59 413.046 181.016C413.218 181.442 413.298 181.9 413.279 182.359C413.288 183.101 413.055 183.826 412.614 184.423C412.174 185.02 411.551 185.458 410.839 185.669C411.359 185.9 411.809 186.264 412.144 186.724C412.48 187.184 412.688 187.723 412.749 188.289C412.973 189.504 413.308 190.695 413.749 191.849H412.019C411.632 190.846 411.344 189.808 411.159 188.749C410.769 186.959 410.079 186.289 408.559 186.229H407.019V191.849H405.319V179.149ZM406.989 185.059H408.699C410.489 185.059 411.629 184.059 411.629 182.599C411.629 180.929 410.419 180.189 408.629 180.179C408.072 180.161 407.514 180.211 406.969 180.329L406.989 185.059Z" fill="white"/>
<path d="M428.159 185.869H423.159V190.549H428.779V191.949H421.489V178.949H428.489V180.359H423.119V184.449H428.119L428.159 185.869Z" fill="white"/>
<path d="M48.829 0.678917C47.8109 0.676251 46.8053 0.902164 45.8863 1.34005C44.9672 1.77794 44.1582 2.41665 43.519 3.20895C41.159 6.13895 38.949 9.39895 37.039 12.2089C34.389 16.0189 30.039 24.9689 27.529 31.0389C26.249 34.1489 17.629 58.2689 12.049 90.8889C10.679 98.8889 10.989 103.099 13.249 106.959C15.639 111.039 19.979 115.699 25.799 120.429C30.879 124.358 36.1884 127.981 41.699 131.279L43.419 132.349C47.819 135.099 51.619 137.469 61.979 137.469H62.979C73.349 137.469 77.149 135.099 81.549 132.349L83.2589 131.279C88.7711 127.983 94.0806 124.36 99.159 120.429C104.989 115.699 109.329 111.039 111.719 106.959C113.969 103.099 114.279 98.8989 112.919 90.8889C111.819 84.4989 110.619 78.4389 109.369 72.7989C108.839 70.2694 107.648 67.9255 105.918 66.0056C104.188 64.0857 101.98 62.6583 99.519 61.8689C95.8898 60.7337 92.1114 60.1473 88.309 60.1289C70.559 60.1289 58.859 73.7289 57.699 82.1889C59.8963 78.4704 63.0094 75.3766 66.7415 73.2025C70.4737 71.0283 74.7004 69.8462 79.019 69.7689C81.3414 69.7121 83.6519 70.1189 85.8153 70.9654C87.9787 71.8119 89.9517 73.0811 91.619 74.6989C93.9253 76.9896 95.5773 79.8552 96.4036 82.999C97.23 86.1428 97.2008 89.4503 96.3189 92.5789C95.7998 94.405 94.9931 96.1368 93.929 97.7089C87.109 110.349 55.249 119.709 55.249 119.709C55.249 119.709 32.979 95.049 33.799 80.7089C33.719 78.8689 34.799 65.5689 47.799 62.3289C49.2084 62.0002 50.6517 61.8391 52.0989 61.849C55.519 61.849 59.779 62.709 62.579 65.969C68.219 56.629 61.8489 46.6389 52.0989 46.6289C45.9289 46.6289 38.419 50.6289 31.749 61.3189C27.599 34.6789 43.019 21.6789 53.339 12.6789C54.3804 11.7584 55.1177 10.5433 55.4532 9.19442C55.7886 7.84554 55.7064 6.42656 55.2174 5.12545C54.7284 3.82435 53.8557 2.70246 52.7149 1.90841C51.574 1.11436 50.2189 0.685611 48.829 0.678917ZM65.709 28.1889C65.709 29.6169 65.2855 31.0128 64.4922 32.2002C63.6988 33.3875 62.5712 34.3129 61.2519 34.8593C59.9327 35.4058 58.481 35.5488 57.0804 35.2702C55.6799 34.9916 54.3934 34.304 53.3836 33.2943C52.3739 32.2845 51.6863 30.998 51.4077 29.5975C51.1291 28.197 51.2721 26.7453 51.8186 25.426C52.365 24.1067 53.2904 22.9791 54.4777 22.1858C55.6651 21.3924 57.061 20.969 58.489 20.969C60.4021 20.969 62.237 21.7282 63.5907 23.08C64.9445 24.4319 65.7063 26.2658 65.709 28.1789V28.1889ZM48.019 38.4089C48.019 39.3009 47.7545 40.1728 47.2589 40.9145C46.7633 41.6562 46.059 42.2343 45.2349 42.5756C44.4108 42.917 43.504 43.0063 42.6291 42.8322C41.7542 42.6582 40.9506 42.2287 40.3199 41.598C39.6892 40.9673 39.2596 40.1636 39.0856 39.2888C38.9116 38.4139 39.0009 37.5072 39.3423 36.6831C39.6836 35.859 40.2617 35.1546 41.0033 34.659C41.745 34.1635 42.617 33.8989 43.509 33.8989C44.7051 33.8989 45.8522 34.374 46.698 35.2198C47.5438 36.0656 48.019 37.2128 48.019 38.4089Z" fill="#ED1C24"/>
<path d="M123.539 93.1489C116.779 55.4989 105.039 30.5289 105.039 30.5289C105.039 30.5289 101.909 29.319 101.469 29.239C102.819 32.359 111.569 56.9389 117.239 90.0889C118.749 98.9389 118.389 104.159 115.509 109.089C112.629 114.019 107.709 119.089 101.939 123.739C96.1689 128.389 88.9989 132.739 84.1389 135.809C79.2789 138.879 74.7089 141.809 62.4989 141.759C50.2889 141.839 45.7489 138.869 40.8489 135.809C35.9489 132.749 28.8489 128.429 23.0489 123.739C17.2489 119.049 12.3689 114.019 9.4889 109.089C6.6089 104.159 6.2389 98.9289 7.7589 90.0889C13.4289 56.9389 22.1789 32.359 23.5289 29.239C23.0889 29.319 19.9589 30.5289 19.9589 30.5289C19.9589 30.5289 8.21889 55.5289 1.44889 93.1489C-0.181112 102.239 0.448888 107.639 3.44889 112.719C6.44889 117.799 11.5589 122.359 17.5589 127.189C23.5589 132.019 32.2789 137.339 39.1789 141.399C46.0789 145.459 57.7589 151.269 57.7589 178.279V194.679C57.7739 200.58 55.5935 206.275 51.6419 210.658C47.6902 215.04 42.2498 217.796 36.3789 218.389C23.9389 219.599 15.7489 221.649 15.7489 223.969C15.7489 227.689 36.6789 230.699 62.5089 230.699C88.3389 230.699 109.259 227.699 109.259 223.969C109.259 221.649 101.079 219.599 88.6289 218.389C82.7579 217.796 77.3176 215.04 73.3659 210.658C69.4143 206.275 67.2339 200.58 67.2489 194.679V178.279C67.2489 151.279 78.9189 145.459 85.8189 141.399C92.7189 137.339 101.439 132.009 107.439 127.189C113.439 122.369 118.549 117.799 121.549 112.719C124.549 107.639 125.169 102.239 123.539 93.1489Z" fill="white"/>
</g>
<defs>
<clipPath id="clip0">
<rect width="614.86" height="230.02" fill="white" transform="translate(0.569336 0.668884)"/>
</clipPath>
</defs>
</svg>
