<svg width="479" height="428" viewBox="0 0 479 428" fill="none" xmlns="http://www.w3.org/2000/svg">
<g clip-path="url(#clip0)">
<path d="M18.1597 385.406L0.0351562 314.041H9.81139L18.2999 350.129C20.4286 359.018 22.3383 367.916 23.6085 374.788H23.8275C24.9926 367.698 27.2176 359.237 29.6617 350.025L39.1839 314.041H48.8199L57.5274 350.234C59.551 358.704 61.4607 367.174 62.5206 374.683H62.7309C64.2201 366.825 66.2349 358.914 68.4687 350.025L77.9471 314.041H87.3905L67.1109 385.38H57.4749L48.452 348.226C46.466 340.555 44.9043 332.78 43.7741 324.938H43.5639C42.1453 332.794 40.303 340.568 38.0451 348.226L27.8483 385.38L18.1597 385.406Z" fill="#8B0304"/>
<path d="M103.64 319.778C103.745 322.956 101.415 325.497 97.6922 325.497C96.9416 325.506 96.1969 325.363 95.5032 325.077C94.8095 324.791 94.1809 324.368 93.6555 323.834C93.13 323.299 92.7185 322.665 92.4457 321.967C92.1729 321.27 92.0445 320.525 92.0682 319.778C92.0477 319.007 92.1848 318.241 92.4712 317.525C92.7576 316.809 93.1872 316.159 93.7339 315.614C94.2807 315.069 94.933 314.641 95.6511 314.355C96.3693 314.07 97.1383 313.933 97.9112 313.953C98.6805 313.927 99.4469 314.06 100.162 314.345C100.876 314.63 101.524 315.06 102.063 315.608C102.602 316.155 103.02 316.809 103.292 317.527C103.563 318.245 103.682 319.011 103.64 319.778ZM93.2333 385.406V334.176H102.58V385.406H93.2333Z" fill="#8B0304"/>
<path d="M117.017 348.043C117.017 342.751 116.912 338.437 116.597 334.176H124.875L125.409 342.637H125.62C128.169 337.774 134.117 333.032 142.614 333.032C149.727 333.032 160.765 337.267 160.765 354.862V385.423H151.427V355.875C151.427 347.615 148.343 340.734 139.531 340.734C135.959 340.882 132.587 342.414 130.132 345.004C127.677 347.594 126.335 351.037 126.39 354.6V385.406H117.017V348.043Z" fill="#8B0304"/>
<path d="M180.097 361.481C180.308 374.081 188.376 379.259 197.723 379.259C204.407 379.259 208.445 378.098 211.949 376.639L213.543 383.31C210.25 384.795 204.626 386.489 196.444 386.489C180.623 386.489 171.171 376.115 171.171 360.66C171.171 345.205 180.308 333.032 195.279 333.032C212.054 333.032 216.513 347.746 216.513 357.167C216.498 358.628 216.393 360.086 216.198 361.533L180.097 361.481ZM207.49 354.81C207.595 348.89 205.046 339.677 194.534 339.677C185.082 339.677 180.947 348.357 180.203 354.81H207.49Z" fill="#8B0304"/>
<path d="M248.82 314.041H258.053V377.652H288.635V385.38H248.82V314.041Z" fill="#8B0304"/>
<path d="M342.553 359.368C342.553 378.307 329.413 386.567 316.965 386.567C303.054 386.567 292.332 376.404 292.332 360.215C292.332 343.065 303.589 333.006 317.815 333.006C332.576 333.006 342.553 343.729 342.553 359.368ZM301.784 359.892C301.784 371.112 308.258 379.582 317.386 379.582C326.312 379.582 332.996 371.217 332.996 359.682C332.996 351.003 328.616 339.992 317.605 339.992C306.593 339.992 301.784 350.156 301.784 359.892Z" fill="#8B0304"/>
<path d="M356.149 334.176L366.205 362.939C367.815 367.23 369.198 371.602 370.349 376.037H370.673C371.838 371.802 373.301 367.567 375.053 362.939L385.031 334.124H394.798L374.65 385.354H365.706L346.162 334.124L356.149 334.176Z" fill="#8B0304"/>
<path d="M406.694 361.481C406.904 374.081 414.972 379.259 424.319 379.259C431.012 379.259 435.042 378.098 438.546 376.639L440.14 383.31C436.846 384.795 431.222 386.489 423.04 386.489C407.22 386.489 397.776 376.115 397.776 360.66C397.776 345.205 406.904 333.032 421.875 333.032C438.651 333.032 443.11 347.746 443.11 357.167C443.095 358.628 442.989 360.086 442.794 361.533L406.694 361.481ZM434.087 354.81C434.192 348.89 431.643 339.677 421.131 339.677C411.679 339.677 407.544 348.357 406.799 354.81H434.087Z" fill="#8B0304"/>
<path d="M453.623 350.156C453.623 344.122 453.518 338.935 453.202 334.176H461.375L461.699 344.227H462.12C464.459 337.346 470.083 333.006 476.346 333.006C477.233 332.999 478.116 333.108 478.974 333.329V342.114C477.93 341.886 476.863 341.778 475.794 341.791C469.207 341.791 464.538 346.768 463.267 353.753C462.999 355.193 462.855 356.654 462.838 358.119V385.432H453.623V350.156Z" fill="#8B0304"/>
<path d="M108.204 415.871H104.122V414.405H114.065V415.871H109.956V427.782H108.204V415.871Z" fill="#939598"/>
<path d="M122.202 423.573L120.809 427.782H119.014L123.551 414.405H125.645L130.218 427.782H128.369L126.933 423.573H122.202ZM126.582 422.228L125.268 418.377C124.971 417.504 124.769 416.71 124.576 415.933H124.533C124.331 416.727 124.112 417.539 123.858 418.351L122.544 422.228H126.582Z" fill="#939598"/>
<path d="M148.08 427.188C146.758 427.661 145.366 427.909 143.962 427.921C143.046 428.01 142.121 427.897 141.252 427.591C140.384 427.284 139.593 426.792 138.936 426.149C138.279 425.506 137.772 424.727 137.449 423.867C137.126 423.007 136.996 422.087 137.068 421.172C137.068 417.181 139.836 414.265 144.339 414.265C145.484 414.241 146.623 414.449 147.685 414.876L147.265 416.291C146.329 415.885 145.315 415.689 144.295 415.714C141.028 415.714 138.899 417.74 138.899 421.093C138.899 424.446 140.949 426.498 144.076 426.498C144.864 426.537 145.651 426.415 146.389 426.14V422.15H143.7V420.753H148.08V427.188Z" fill="#939598"/>
<path d="M156.727 414.405H158.479V426.332H164.208V427.782H156.744L156.727 414.405Z" fill="#939598"/>
<path d="M173.826 414.405V427.782H172.074V414.405H173.826Z" fill="#939598"/>
<path d="M182.831 427.782V414.405H184.714L189.024 421.172C189.919 422.575 190.724 424.033 191.433 425.538C191.276 423.791 191.232 422.123 191.232 420.037V414.439H192.87V427.817H191.118L186.852 421.032C185.927 419.594 185.09 418.101 184.347 416.561H184.285C184.382 418.246 184.425 419.853 184.425 422.08V427.79L182.831 427.782Z" fill="#939598"/>
<path d="M208.849 421.512H203.593V426.332H209.401V427.782H201.858V414.405H209.103V415.854H203.593V420.08H208.849V421.512Z" fill="#939598"/>
<path d="M238.081 427.188C236.757 427.662 235.362 427.91 233.955 427.921C233.038 428.011 232.113 427.9 231.244 427.594C230.376 427.288 229.585 426.796 228.928 426.152C228.271 425.508 227.765 424.729 227.443 423.868C227.122 423.007 226.995 422.087 227.07 421.172C227.07 417.181 229.838 414.265 234.332 414.265C235.477 414.24 236.616 414.448 237.678 414.876L237.266 416.291C236.33 415.885 235.317 415.689 234.297 415.714C231.029 415.714 228.901 417.74 228.901 421.093C228.901 424.446 230.95 426.498 234.078 426.498C234.865 426.536 235.652 426.414 236.39 426.14V422.15H233.657V420.753H238.037L238.081 427.188Z" fill="#939598"/>
<path d="M258.167 420.953C258.167 425.564 255.355 428 251.93 428C248.505 428 245.903 425.267 245.903 421.215C245.903 416.963 248.531 414.23 252.132 414.23C255.732 414.23 258.167 416.989 258.167 420.953ZM247.752 421.172C247.752 424.036 249.302 426.594 252.035 426.594C254.768 426.594 256.337 424.071 256.337 421.032C256.337 418.412 254.944 415.592 252.053 415.592C249.162 415.592 247.752 418.238 247.752 421.172Z" fill="#939598"/>
<path d="M273.349 421.512H268.093V426.332H273.91V427.782H266.358V414.405H273.612V415.854H268.093V420.08H273.349V421.512Z" fill="#939598"/>
<path d="M281.917 425.677C282.856 426.24 283.93 426.542 285.026 426.551C286.778 426.551 287.83 425.625 287.83 424.272C287.83 422.918 287.111 422.307 285.307 421.652C283.108 420.884 281.803 419.748 281.803 417.862C281.803 415.775 283.555 414.23 286.139 414.23C287.168 414.193 288.191 414.418 289.109 414.885L288.635 416.291C287.85 415.876 286.975 415.66 286.086 415.662C284.247 415.662 283.555 416.753 283.555 417.661C283.555 418.91 284.369 419.53 286.183 420.281C288.452 421.154 289.608 422.246 289.608 424.21C289.608 426.175 288.075 428.061 284.904 428.061C283.705 428.072 282.525 427.771 281.479 427.188L281.917 425.677Z" fill="#939598"/>
<path d="M309.869 414.405V420.002H316.36V414.405H318.112V427.782H316.36V421.512H309.869V427.782H308.117V414.405H309.869Z" fill="#939598"/>
<path d="M334.047 421.512H328.791V426.332H334.669V427.782H327.118V414.405H334.372V415.854H328.853V420.08H334.109L334.047 421.512Z" fill="#939598"/>
<path d="M342.86 414.579C343.959 414.389 345.074 414.298 346.189 414.308C348.038 414.308 349.238 414.64 350.07 415.4C350.418 415.724 350.692 416.118 350.875 416.556C351.058 416.995 351.145 417.467 351.13 417.941C351.143 418.708 350.902 419.458 350.444 420.075C349.987 420.692 349.338 421.142 348.598 421.355V421.442C349.632 421.8 350.254 422.761 350.569 424.149C350.803 425.4 351.149 426.627 351.603 427.817H349.851C349.455 426.782 349.162 425.712 348.975 424.621C348.581 422.778 347.862 422.08 346.286 422.001H344.656V427.799H342.904L342.86 414.579ZM344.612 420.691H346.364C348.221 420.691 349.395 419.678 349.395 418.15C349.395 416.404 348.143 415.671 346.303 415.653C345.729 415.637 345.156 415.69 344.595 415.81L344.612 420.691Z" fill="#939598"/>
<path d="M366.495 421.512H361.239V426.332H367.082V427.782H359.548V414.405H366.792V415.854H361.282V420.08H366.538L366.495 421.512Z" fill="#939598"/>
<path d="M221.665 1.19283e-05C220.373 -0.00426869 219.097 0.280693 217.931 0.833851C216.765 1.38701 215.739 2.19422 214.928 3.19586C211.932 6.90689 209.12 11.0545 206.694 14.5473C203.338 19.3672 197.793 30.6924 194.622 38.3765C193.002 42.3145 182.06 72.8323 174.982 114.099C173.23 124.237 173.633 129.554 176.498 134.435C179.529 139.605 185.039 145.499 192.432 151.48C198.792 156.632 206.781 161.591 212.58 165.206L214.762 166.56C220.35 170.053 225.169 173.048 238.326 173.048H239.631C252.771 173.048 257.616 170.044 263.205 166.56L265.377 165.206C271.211 161.591 279.201 156.632 285.525 151.48C292.928 145.49 298.438 139.596 301.46 134.435C304.324 129.554 304.719 124.237 302.984 114.099C301.6 106.022 300.067 98.3817 298.49 91.2216C297.815 88.027 296.305 85.0669 294.113 82.6411C291.921 80.2154 289.124 78.41 286.007 77.4078C281.399 75.9666 276.601 75.222 271.772 75.1986C249.25 75.1986 234.393 92.4178 232.912 103.141C235.706 98.4609 239.651 94.5684 244.373 91.8305C249.095 89.0927 254.44 87.5999 259.902 87.4931C262.851 87.4234 265.785 87.9404 268.532 89.0139C271.278 90.0874 273.782 91.6958 275.898 93.7451C278.825 96.6418 280.922 100.266 281.971 104.243C283.02 108.219 282.983 112.403 281.864 116.361C281.208 118.674 280.185 120.867 278.833 122.857C270.178 138.845 229.776 150.668 229.776 150.668C229.776 150.668 201.508 119.46 202.55 101.324C202.445 98.9929 203.82 82.1666 220.359 78.0627C222.152 77.6536 223.986 77.4514 225.826 77.4602C230.153 77.4602 235.558 78.5429 239.115 82.6993C246.289 70.8764 238.239 58.2501 225.817 58.2501C217.994 58.2501 208.454 63.3059 199.983 76.8228C194.727 43.1004 214.297 26.6845 227.394 15.3419C228.772 14.1888 229.758 12.6388 230.217 10.9047C230.677 9.17059 230.586 7.33732 229.958 5.65648C229.331 3.97564 228.197 2.52961 226.712 1.51685C225.227 0.504093 223.464 -0.0257522 221.665 1.19283e-05ZM243.092 34.8139C243.092 36.6203 242.554 38.3862 241.547 39.8882C240.54 41.3902 239.109 42.5608 237.435 43.2521C235.761 43.9434 233.918 44.1243 232.141 43.7719C230.364 43.4195 228.731 42.5496 227.449 41.2722C226.168 39.9949 225.295 38.3675 224.942 36.5957C224.588 34.824 224.77 32.9876 225.463 31.3186C226.157 29.6497 227.331 28.2232 228.838 27.2196C230.345 26.216 232.116 25.6804 233.929 25.6804C236.351 25.6919 238.671 26.6593 240.379 28.3709C242.088 30.0825 243.048 32.3991 243.048 34.8139H243.092ZM220.587 47.7195C220.589 48.8493 220.254 49.9543 219.626 50.8946C218.997 51.8348 218.103 52.5681 217.056 53.0017C216.01 53.4352 214.858 53.5496 213.746 53.3302C212.634 53.1109 211.612 52.5677 210.81 51.7694C210.008 50.9711 209.461 49.9535 209.24 48.8456C209.018 47.7376 209.131 46.5889 209.564 45.5449C209.997 44.5009 210.732 43.6085 211.674 42.9807C212.616 42.3528 213.724 42.0176 214.858 42.0176C216.376 42.0176 217.832 42.6181 218.906 43.6871C219.98 44.7562 220.585 46.2065 220.587 47.7195Z" fill="#B11116"/>
<path d="M316.458 117.024C307.882 69.3832 292.972 37.7827 292.972 37.7827C292.972 37.7827 289.004 36.2459 288.434 36.1498C290.186 40.0966 301.259 71.2082 308.46 113.147C310.378 124.341 309.923 130.951 306.261 137.195C302.599 143.438 296.371 149.803 289.039 155.732C281.707 161.661 272.614 167.162 266.447 171.004C260.279 174.846 254.472 178.636 238.975 178.531C223.478 178.636 217.706 174.873 211.495 171.004C205.284 167.136 196.261 161.67 188.902 155.732C181.544 149.795 175.351 143.438 171.68 137.195C168.01 130.951 167.563 124.341 169.481 113.147C176.682 71.2344 187.79 40.0966 189.507 36.1498C188.946 36.2459 184.969 37.7827 184.969 37.7827C184.969 37.7827 170.077 69.3832 161.483 117.024C159.416 128.524 160.196 135.361 164.006 141.779C167.817 148.197 174.299 154.003 181.921 160.116C189.542 166.228 200.641 172.925 209.401 178.068C218.161 183.211 232.983 190.555 232.983 224.731V245.478C232.999 252.945 230.227 260.15 225.208 265.692C220.189 271.235 213.28 274.718 205.827 275.463C190.059 277 179.643 279.594 179.643 282.527C179.643 287.234 206.212 291.05 238.993 291.05C271.773 291.05 298.342 287.234 298.342 282.527C298.342 279.594 287.952 277 272.149 275.463C264.695 274.72 257.786 271.237 252.766 265.695C247.746 260.152 244.975 252.945 244.993 245.478V224.731C244.993 190.555 259.806 183.203 268.575 178.068C277.344 172.934 288.39 166.184 296.012 160.081C303.633 153.977 310.115 148.197 313.926 141.744C317.737 135.291 318.534 128.524 316.458 117.024Z" fill="#6B7B84"/>
</g>
<defs>
<clipPath id="clip0">
<rect width="479" height="428" fill="white"/>
</clipPath>
</defs>
</svg>
