<svg width="35" height="39" viewBox="0 0 35 39" fill="none" xmlns="http://www.w3.org/2000/svg">
<g clip-path="url(#clip0_3345:8720)">
<path d="M26.7795 27.627C24.8126 29.4086 22.2689 30.3755 19.6443 30.3394C13.5959 30.3394 9.15407 25.7864 9.15407 19.5382C9.15407 13.2901 13.4541 8.93087 19.6443 8.93087C22.2748 8.8944 24.8281 9.84143 26.8268 11.5948L28.1499 12.7573L34.0092 6.75127L32.5444 5.34664C29.0003 2.10101 24.3964 0.337828 19.6443 0.406214C8.77605 0.406214 0.884766 8.44651 0.884766 19.4898C0.884766 30.5331 8.96506 38.8156 19.6443 38.8156C24.4415 38.8815 29.0848 37.0815 32.6389 33.7783L34.0565 32.4221L28.1026 26.4161L26.7795 27.627Z" fill="black"/>
<path d="M19.3608 26.0301C22.8318 26.0301 25.6455 23.1459 25.6455 19.5882C25.6455 16.0304 22.8318 13.1462 19.3608 13.1462C15.8899 13.1462 13.0762 16.0304 13.0762 19.5882C13.0762 23.1459 15.8899 26.0301 19.3608 26.0301Z" fill="black"/>
</g>
<defs>
<clipPath id="clip0_3345:8720">
<rect width="33.1717" height="38.4094" fill="white" transform="translate(0.884766 0.407715)"/>
</clipPath>
</defs>
</svg>
