<svg width="39" height="39" viewBox="0 0 39 39" fill="none" xmlns="http://www.w3.org/2000/svg">
<path d="M38.3726 11.7444C38.3511 10.1317 38.0487 8.535 37.4789 7.02576C36.9848 5.75273 36.2302 4.59659 35.2632 3.6312C34.2962 2.66582 33.1381 1.91243 31.863 1.41916C30.3706 0.859899 28.7941 0.557497 27.2004 0.52483C25.1486 0.433267 24.498 0.407715 19.2895 0.407715C14.0809 0.407715 13.4133 0.407715 11.3764 0.52483C9.78345 0.557737 8.20763 0.860136 6.71599 1.41916C5.44063 1.91208 4.28239 2.66536 3.31535 3.63078C2.34832 4.59621 1.59379 5.75253 1.10004 7.02576C0.53873 8.51447 0.23648 10.088 0.206357 11.6784C0.114642 13.729 0.0869141 14.3784 0.0869141 19.5783C0.0869141 24.7782 0.086914 25.4426 0.206357 27.4783C0.23835 29.071 0.53909 30.6425 1.10004 32.1352C1.59462 33.408 2.34971 34.5639 3.31706 35.5289C4.28442 36.4939 5.44278 37.2469 6.71812 37.7396C8.20568 38.3214 9.78177 38.6454 11.3785 38.6978C13.4325 38.7894 14.083 38.8171 19.2916 38.8171C24.5002 38.8171 25.1678 38.8171 27.2047 38.6978C28.7983 38.6665 30.375 38.3648 31.8672 37.8056C33.142 37.3118 34.2998 36.5582 35.2667 35.5929C36.2337 34.6276 36.9885 33.4717 37.4832 32.199C38.0441 30.7085 38.3449 29.137 38.3769 27.5421C38.4686 25.4937 38.4963 24.8442 38.4963 19.6422C38.492 14.4423 38.492 13.7822 38.3726 11.7444ZM19.2767 29.4117C13.8292 29.4117 9.41625 25.0061 9.41625 19.5677C9.41625 14.1293 13.8292 9.72366 19.2767 9.72366C21.8918 9.72366 24.3999 10.7608 26.249 12.6069C28.0982 14.453 29.1371 16.9569 29.1371 19.5677C29.1371 22.1785 28.0982 24.6824 26.249 26.5285C24.3999 28.3746 21.8918 29.4117 19.2767 29.4117ZM29.5296 11.655C28.2562 11.655 27.2303 10.6286 27.2303 9.35954C27.2303 9.05824 27.2897 8.75989 27.4052 8.48152C27.5207 8.20315 27.69 7.95022 27.9034 7.73717C28.1168 7.52411 28.3702 7.35511 28.649 7.23981C28.9278 7.1245 29.2267 7.06516 29.5285 7.06516C29.8303 7.06516 30.1291 7.1245 30.408 7.23981C30.6868 7.35511 30.9402 7.52411 31.1536 7.73717C31.367 7.95022 31.5363 8.20315 31.6518 8.48152C31.7673 8.75989 31.8267 9.05824 31.8267 9.35954C31.8267 10.6286 30.7986 11.655 29.5296 11.655Z" fill="black"/>
<path d="M19.2911 26.596C23.148 26.596 26.2747 23.4693 26.2747 19.6124C26.2747 15.7555 23.148 12.6289 19.2911 12.6289C15.4342 12.6289 12.3076 15.7555 12.3076 19.6124C12.3076 23.4693 15.4342 26.596 19.2911 26.596Z" fill="black"/>
</svg>
