<svg width="39" height="39" viewBox="0 0 39 39" fill="none" xmlns="http://www.w3.org/2000/svg">
<path d="M33.3406 0.407715H6.18399C3.08187 0.407715 0.557617 2.93196 0.557617 6.03409V33.1907C0.557617 36.2928 3.08187 38.8171 6.18399 38.8171H33.3406C36.4427 38.8171 38.967 36.2928 38.967 33.1907V6.03409C38.967 2.93196 36.4427 0.407715 33.3406 0.407715ZM14.1359 30.8652H9.63483V15.1113H14.1359V30.8652ZM14.1359 12.8608H9.63483V8.35966H14.1359V12.8608ZM29.8898 30.8652H25.3887V21.863C25.3887 20.6222 24.3789 19.6124 23.1381 19.6124C21.8974 19.6124 20.8876 20.6222 20.8876 21.863V30.8652H16.3865V15.1113H20.8876V15.9597C22.0668 15.5931 22.8328 15.1113 24.2634 15.1113C27.316 15.1145 29.8898 17.853 29.8898 21.0893V30.8652Z" fill="black"/>
</svg>
