<svg width="54" height="47" viewBox="0 0 54 47" fill="none" xmlns="http://www.w3.org/2000/svg">
<path d="M33.5536 25.7487V29.9214C33.5536 30.498 33.5536 30.498 32.9585 30.498C29.4624 30.498 25.9663 30.498 22.4702 30.498C21.9331 30.498 21.9825 30.4265 21.981 31.0032C21.981 32.0048 21.9717 33.0065 21.9868 34.0082C21.9868 34.2779 21.9101 34.3595 21.643 34.3495C21.1188 34.3294 20.5932 34.338 20.0676 34.3459C19.8857 34.3459 19.8148 34.2908 19.8148 34.1012C19.82 32.2653 19.82 30.4289 19.8148 28.592C19.8148 28.3301 19.963 28.3452 20.1377 28.3459C21.2119 28.3459 22.2861 28.3459 23.3603 28.3495C23.5673 28.3495 23.6861 28.3301 23.6854 28.0633C23.6761 25.0955 23.6797 22.1248 23.679 19.1591C23.679 19.1176 23.6725 19.0761 23.6604 18.9266C23.4362 19.3065 23.2615 19.5963 23.0925 19.8889C21.4764 22.6874 19.8601 25.4842 18.2436 28.2793C18.1575 28.4218 18.1124 28.5852 18.1132 28.7516C18.1132 31.064 18.1211 33.3764 18.1089 35.6917C18.1089 35.9886 18.2106 36.0444 18.4785 36.0416C19.5405 36.028 20.6025 36.0416 21.6645 36.0308C21.9173 36.0308 21.9882 36.1117 21.9853 36.3578C21.9739 37.3945 21.9911 38.4327 21.9739 39.4687C21.9689 39.7778 22.0262 39.9273 22.3756 39.8865C22.6612 39.8556 22.9494 39.8556 23.235 39.8865C23.5809 39.9209 23.6954 39.8307 23.6919 39.4515C23.6704 37.1749 23.6919 34.8982 23.6718 32.6216C23.6718 32.2638 23.7735 32.1765 24.1101 32.1987C24.5632 32.2267 25.0176 32.2267 25.4707 32.1987C25.7751 32.1801 25.841 32.2789 25.8402 32.5722C25.8302 36.8651 25.8278 41.1565 25.8331 45.4465C25.8331 45.7442 25.8216 46.0425 25.8374 46.3402C25.8481 46.5476 25.8016 46.6621 25.5667 46.6264C25.4952 46.6209 25.4234 46.6209 25.3519 46.6264H0.436378C0.376224 46.6264 0.316069 46.6213 0.257347 46.6264C-0.0348328 46.6543 -0.0584647 46.5756 0.0876251 46.323C3.00799 41.2827 5.92381 36.239 8.8351 31.192C11.881 25.9204 14.9277 20.6497 17.975 15.38C20.8305 10.4398 23.6857 5.49898 26.5406 0.557403C26.5807 0.489433 26.595 0.397136 26.7247 0.362793C26.9946 0.825708 27.2703 1.29291 27.5425 1.76442C30.4294 6.75655 33.3157 11.7489 36.2012 16.7415C38.7463 21.1465 41.2897 25.5526 43.8315 29.96C46.9428 35.3452 50.0563 40.7291 53.1719 46.1119C53.2192 46.1942 53.2607 46.2808 53.3152 46.3595C53.4691 46.582 53.3868 46.6314 53.1483 46.6299C51.7526 46.6235 50.3554 46.6299 48.9604 46.6299C41.9681 46.6299 34.9764 46.6323 27.9851 46.6371C27.6463 46.6371 27.526 46.5856 27.5274 46.2028C27.5441 41.6714 27.5441 37.1417 27.5274 32.6137C27.5274 32.2874 27.6076 32.1844 27.9371 32.2052C28.3902 32.2321 28.8445 32.2321 29.2977 32.2052C29.6021 32.188 29.7016 32.2631 29.6995 32.5908C29.6837 34.8918 29.6995 37.1921 29.6823 39.4923C29.6823 39.8315 29.7825 39.918 30.0983 39.8923C30.4196 39.8665 30.7424 39.8665 31.0637 39.8923C31.338 39.9137 31.401 39.8207 31.3995 39.5546C31.3881 37.5512 31.3931 35.5479 31.3931 33.5445C31.3931 33.199 31.406 32.8527 31.3888 32.5078C31.3773 32.2753 31.4532 32.2023 31.6889 32.2045C32.7509 32.2159 33.8129 32.198 34.8742 32.2166C35.1764 32.2216 35.2559 32.1293 35.2509 31.8353C35.2337 30.8221 35.2423 29.809 35.2458 28.7959C35.2547 28.6174 35.2135 28.44 35.127 28.2836C34.6644 27.4916 34.2103 26.6945 33.752 25.8997C33.7144 25.8422 33.6738 25.7868 33.6303 25.7337L33.5536 25.7487ZM26.6889 9.34992L45.5459 41.9843C45.5192 41.9993 45.4911 42.0118 45.4621 42.0215C43.4219 42.0265 41.3802 42.028 39.3421 42.0387C39.1272 42.0387 39.1201 41.9314 39.1215 41.7725C39.1265 41.2596 39.1437 40.7458 39.1158 40.235C39.0986 39.9252 39.2053 39.8622 39.4946 39.8701C40.2509 39.8908 41.0078 39.8772 41.8249 39.8772L37.488 32.374L37.4057 32.4091V32.7983C37.4057 33.7399 37.4007 34.6822 37.4057 35.6237C37.4057 35.8276 37.3663 35.9278 37.1328 35.9221C36.5965 35.9078 36.0587 35.9085 35.5223 35.9221C35.2953 35.9278 35.2358 35.8398 35.2423 35.628C35.2552 35.2946 35.2373 34.9605 35.2487 34.6263C35.2552 34.4339 35.2057 34.3459 34.9916 34.3545C34.5985 34.3695 34.2039 34.3673 33.81 34.3545C33.6081 34.348 33.5443 34.4181 33.545 34.6199C33.5517 36.2894 33.5517 37.9588 33.545 39.6283C33.545 39.8429 33.6267 39.8873 33.8186 39.8822C34.212 39.8708 34.6056 39.8708 34.9995 39.8822C35.1814 39.8873 35.2573 39.8357 35.2494 39.6433C35.2365 39.3464 35.2616 39.0466 35.2415 38.7496C35.2229 38.4778 35.3003 38.3669 35.5946 38.3819C36.083 38.4055 36.5736 38.4019 37.062 38.3819C37.3241 38.3712 37.4143 38.442 37.4093 38.7175C37.3928 39.6826 37.3863 40.6492 37.4093 41.6137C37.4186 41.9614 37.3233 42.0466 36.9796 42.043C34.6651 42.0265 32.3498 42.0394 30.0332 42.0273C29.7467 42.0273 29.6665 42.106 29.6751 42.385C29.6966 42.9445 29.7066 43.5069 29.6751 44.0649C29.6529 44.427 29.7825 44.4871 30.1141 44.4871C36.4637 44.4771 42.8115 44.4737 49.1573 44.4771C49.3206 44.4771 49.5584 44.5579 49.63 44.432C49.7166 44.2782 49.5175 44.1172 49.4316 43.9683C47.1558 40.027 44.8777 36.0866 42.5976 32.1472C41.0178 29.4141 39.4395 26.6798 37.8626 23.9443C35.9309 20.6015 33.9988 17.2593 32.0663 13.9175C30.3313 10.9154 28.5976 7.91252 26.865 4.90894C26.6982 4.61846 26.6416 4.67284 26.4991 4.92111C24.5541 8.29673 22.6048 11.67 20.6512 15.0408C17.823 19.9299 14.9952 24.819 12.168 29.7081C9.64099 34.0821 7.11545 38.4568 4.59135 42.8322C4.28484 43.3631 3.9812 43.8961 3.64605 44.4778H22.0448C22.4859 44.4778 22.9278 44.467 23.3689 44.4828C23.5973 44.4907 23.684 44.4284 23.6775 44.1851C23.6618 43.5651 23.6618 42.945 23.6775 42.3249C23.6833 42.0852 23.6023 42.0237 23.3718 42.0258C22.3105 42.0366 21.2477 42.0208 20.1864 42.0373C19.9 42.0416 19.799 41.9736 19.804 41.6674C19.8241 40.6192 19.804 39.5696 19.8176 38.5193C19.8219 38.251 19.746 38.1723 19.4767 38.1758C18.4269 38.1901 17.3763 38.1723 16.3258 38.188C16.035 38.193 15.9405 38.1215 15.9427 37.8159C15.9577 36.1353 15.9498 34.4532 15.9498 32.7733V32.4084L15.8603 32.3962C14.4281 34.8732 12.9958 37.3509 11.5413 39.8715H11.9911C13.9246 39.8715 15.8582 39.8758 17.7917 39.8665C18.0359 39.8665 18.1247 39.9216 18.1147 40.1799C18.0946 40.6915 18.0953 41.2052 18.1147 41.7167C18.124 41.9714 18.0431 42.0351 17.7917 42.0344C14.5706 42.0268 11.348 42.0268 8.12399 42.0344C7.80532 42.0344 7.82823 41.945 7.95785 41.7203C10.3125 37.6593 12.6638 33.5965 15.0117 29.5321C18.0595 24.2614 21.1069 18.9908 24.1538 13.7201L26.6889 9.34992ZM29.7617 18.9967L29.6901 19.0117V19.3995C29.6901 21.6991 29.6844 23.9986 29.6966 26.2982C29.6966 26.5844 29.6164 26.6659 29.3385 26.6559C28.8739 26.6309 28.4082 26.6309 27.9435 26.6559C27.6198 26.6752 27.5282 26.5844 27.5296 26.2488C27.5432 22.8539 27.5017 19.4575 27.5625 16.0625C27.5783 15.1839 27.1873 14.5479 26.7977 13.8632C26.6896 13.6721 26.6222 13.7845 26.5564 13.8982C26.3952 14.1765 26.2298 14.4527 26.0751 14.7339C25.9627 14.9385 25.8231 15.121 25.8238 15.3857C25.8314 19.6037 25.8314 23.8214 25.8238 28.0389C25.8238 28.2894 25.8918 28.3588 26.1425 28.3573C27.7762 28.3464 29.4099 28.3464 31.0436 28.3573C31.3301 28.3573 31.4017 28.27 31.4017 27.9939C31.3909 26.0277 31.396 24.0623 31.3952 22.0962C31.3952 21.966 31.4088 21.8357 31.3379 21.7134C30.8109 20.8081 30.2855 19.9025 29.7617 18.9967Z" fill="#F8E4AE"/>
</svg>
