<svg width="34" height="78" viewBox="0 0 34 78" fill="none" xmlns="http://www.w3.org/2000/svg">
<g filter="url(#filter0_d_3269:3922)">
<rect x="5.20801" y="1.89502" width="23" height="48" rx="9" stroke="#5B5B5B" stroke-width="2"/>
<rect x="15.5247" y="32.6946" width="2.36694" height="6.63029" fill="#5B5B5B"/>
<path d="M16.1777 68.9232C16.4706 69.2161 16.9454 69.2161 17.2383 68.9232L22.0113 64.1502C22.3042 63.8573 22.3042 63.3824 22.0113 63.0895C21.7184 62.7967 21.2435 62.7967 20.9506 63.0895L16.708 67.3322L12.4654 63.0895C12.1725 62.7967 11.6976 62.7967 11.4047 63.0895C11.1118 63.3824 11.1118 63.8573 11.4047 64.1502L16.1777 68.9232ZM15.958 68.1479V68.3928H17.458V68.1479H15.958Z" fill="#5B5B5B"/>
</g>
<defs>
<filter id="filter0_d_3269:3922" x="0.208008" y="0.89502" width="33" height="76.2478" filterUnits="userSpaceOnUse" color-interpolation-filters="sRGB">
<feFlood flood-opacity="0" result="BackgroundImageFix"/>
<feColorMatrix in="SourceAlpha" type="matrix" values="0 0 0 0 0 0 0 0 0 0 0 0 0 0 0 0 0 0 127 0" result="hardAlpha"/>
<feOffset dy="4"/>
<feGaussianBlur stdDeviation="2"/>
<feComposite in2="hardAlpha" operator="out"/>
<feColorMatrix type="matrix" values="0 0 0 0 0 0 0 0 0 0 0 0 0 0 0 0 0 0 0.25 0"/>
<feBlend mode="normal" in2="BackgroundImageFix" result="effect1_dropShadow_3269:3922"/>
<feBlend mode="normal" in="SourceGraphic" in2="effect1_dropShadow_3269:3922" result="shape"/>
</filter>
</defs>
</svg>
