<svg width="47" height="40" viewBox="0 0 47 40" fill="none" xmlns="http://www.w3.org/2000/svg">
<path d="M14.2363 30.8979C9.92947 30.4081 7.11175 28.2362 5.49647 24.1531H9.31292L9.38504 23.9091C7.35693 23.2567 5.59923 22.2049 4.2796 20.4859C2.95684 18.7934 2.23126 16.6919 2.22083 14.523L5.98682 15.5932L6.13825 15.3326C4.29402 13.791 2.98702 11.9112 2.51109 9.50644C2.01888 7.16338 2.39822 4.7163 3.57471 2.64519C8.68015 8.7449 15.0547 12.17 22.9779 12.7134C22.9779 11.3123 22.7868 9.97778 23.014 8.72087C23.6774 5.03516 25.8353 2.52319 29.2948 1.34576C32.6894 0.190509 35.7992 0.928022 38.4997 3.32354C38.9648 3.73759 39.3597 3.90949 39.9419 3.69322C41.5933 3.07956 43.25 2.48068 44.9627 1.85592C44.3677 3.85403 43.0643 5.36788 41.4076 6.63218L41.5374 6.88726L46.2246 5.5638C45.2248 7.14585 43.9674 8.54009 42.5073 9.68573C41.8979 10.1552 41.669 10.6358 41.678 11.4399C41.8276 23.6762 33.8756 34.8202 22.5344 38.0845C15.2044 40.1935 8.13391 39.3784 1.46007 35.4967C1.22274 35.3613 1.00942 35.1856 0.829102 34.9773C5.70378 35.2435 10.1278 34.0365 14.2363 30.8979Z" fill="black"/>
</svg>
