<svg width="47" height="40" viewBox="0 0 48 47" fill="none" xmlns="http://www.w3.org/2000/svg">
<path d="M24.2383 0.18914C27.9855 0.18914 31.7327 0.18914 35.4799 0.18914C42.5196 0.207487 47.6491 5.32611 47.6564 12.3674C47.6662 19.8662 47.6662 27.3637 47.6564 34.86C47.6564 41.8664 42.5489 46.9686 35.5569 46.9906C28.0319 47.0028 20.5064 47.0028 12.9802 46.9906C5.96795 46.9777 0.869638 41.8738 0.862305 34.8728C0.862305 27.3741 0.862305 19.876 0.862305 12.3784C0.862305 5.30776 5.95145 0.207487 13.004 0.18914C16.7421 0.174463 20.4911 0.18914 24.2383 0.18914ZM25.4134 17.7007C25.78 17.5484 25.9175 17.4879 26.0569 17.4328C26.9735 17.0806 27.8901 16.8347 28.7316 17.5429C29.5731 18.2511 29.6042 19.2344 29.3861 20.2362C29.3478 20.5378 29.2598 20.8311 29.1257 21.1039C28.0918 22.7863 27.1092 24.5145 25.9524 26.1015C25.0082 27.3857 24.2401 27.2334 23.7396 25.6942C23.0833 23.6761 22.5792 21.6011 22.0604 19.539C21.5415 17.4769 21.228 15.2918 20.5406 13.259C19.8531 11.2263 18.4121 10.7089 16.4561 11.5217C13.246 12.8518 10.9563 15.3304 8.64818 17.8328L9.76463 19.2913C10.5859 18.9115 11.3101 18.5428 12.0636 18.2401C12.6392 18.0089 13.07 18.2529 13.3138 18.8161C13.4477 19.1225 13.5833 19.4289 13.6805 19.7463C14.954 23.6822 16.2238 27.6187 17.49 31.5558C17.9172 32.8768 18.5277 34.0876 19.5818 35.0416C21.1657 36.4671 22.8193 36.6506 24.4729 35.4489C29.3274 31.9228 33.3001 27.6077 35.9657 22.19C37.0858 19.9133 37.9401 17.5282 37.7989 14.9212C37.6724 12.6224 36.094 11.0924 33.7988 10.9804C30.4457 10.8172 27.1037 13.0224 25.8644 16.2275C25.7085 16.6274 25.6059 17.0677 25.4134 17.6934V17.7007Z" fill="black"/>
</svg>
