<svg width="219" height="24" fill="none" xmlns="http://www.w3.org/2000/svg"><g opacity=".9"><g clip-path="url(#clip0_1011_53403)" fill="#D1815E"><path d="M187.128 7.215l.001.007a.173.173 0 00.007.03.216.216 0 00.008.025l.001.002a.26.26 0 00.013.027l.001.002 6.391 11.134.003.006.008.012.007.01a.062.062 0 00.008.009.058.058 0 00.008.01l.007.007.01.01a.064.064 0 01.008.006l.01.007.009.007.01.006a.17.17 0 01.011.006l.009.004.013.005.009.003.013.005.009.002.014.003a.208.208 0 00.023.003h.013l.008.001 1.823-.014h.003c.008 0 .017 0 .025-.002h.006a.246.246 0 00.056-.016l.006-.003a.35.35 0 00.021-.01c.002-.002.003-.003.005-.003a.257.257 0 00.046-.037l.004-.005a.453.453 0 00.015-.017l.005-.006.016-.024v-.001l6.276-11.23a.247.247 0 00-.002-.245l-.923-1.596-.001-.001a.237.237 0 00-.037-.047l-.004-.005a.515.515 0 00-.018-.016c-.002 0-.003-.002-.005-.003a.38.38 0 00-.024-.017l-.026-.012-.003-.001a.234.234 0 00-.092-.019h-.001l-12.666.096a.241.241 0 00-.208.124l-.899 1.61-.001.001a.145.145 0 00-.013.027l-.001.002a.233.233 0 00-.008.026l-.002.007a.163.163 0 00-.004.022l-.001.008a.254.254 0 00-.002.028v.001l.002.03zm13.809-1.245l.641 1.107-6.001 10.738-5.097-8.806 1.265-.01 3.604 6.225.001.002c.003.005.005.01.009.013a.03.03 0 00.005.008l.008.01.007.009.008.008.009.01.008.005.011.01.007.004a.116.116 0 00.016.01l.006.003a.112.112 0 00.013.007l.01.004.011.005a.128.128 0 00.013.003.154.154 0 00.009.003l.014.003.009.002a.16.16 0 00.024.002h.023a.242.242 0 00.047-.008c.004 0 .007-.002.01-.003l.012-.003a.3.3 0 00.012-.005l.009-.005a.114.114 0 00.014-.007l.005-.002.002-.002a.117.117 0 00.02-.014l.012-.01a.039.039 0 00.007-.005l.009-.01.008-.008.007-.008a.067.067 0 00.008-.011l.005-.008a.083.083 0 00.008-.013l.002-.002 5.17-9.251zm-8.634 3.025l4.592-.035-2.265 4.054-2.327-4.02zm-3.895-3.176l12.109-.091-4.964 8.882-.641-1.108 3.509-6.278a.243.243 0 00-.212-.366l-1.598.012a.244.244 0 00-.24.247c.001.135.11.244.244.243l1.18-.01-.625 1.118-5.288.04h-.002l-1.683.013-.64-1.108 6.092-.046a.242.242 0 00.239-.247.243.243 0 00-.243-.243l-6.51.049h-.001l-1.35.01.624-1.117zm.591 1.598l6.162 10.646-1.265.01-6.11-10.647 1.213-.009zm-73.088-1.968h2.665v13.059h-2.665V5.448zm6.058 0h2.648l4.746 4.762 4.746-4.762h2.648v13.059h-2.648V9.117l-4.746 4.57-4.746-4.57v9.391h-2.648V5.448zm18.506 0h6.885c1.003 0 1.872.109 2.607.326.735.217 1.345.532 1.83.944.484.406.844.905 1.077 1.495.24.59.36 1.257.36 1.997 0 .697-.117 1.34-.351 1.93a4.049 4.049 0 01-1.078 1.538c-.479.429-1.086.766-1.821 1.01-.736.24-1.605.36-2.607.36l-4.253-.008v3.467h-2.649V5.448zm6.952 7.302a4.41 4.41 0 001.312-.175c.378-.123.693-.293.944-.51.256-.223.445-.49.568-.802.128-.317.192-.668.192-1.053 0-.774-.253-1.375-.76-1.804-.502-.435-1.253-.652-2.256-.652h-4.303v4.996h4.303zm8.706-7.302h6.643c1.002 0 1.871.106 2.606.317.736.206 1.345.507 1.83.903.484.395.844.877 1.078 1.445.239.568.359 1.212.359 1.93 0 .485-.058.947-.175 1.387a4.135 4.135 0 01-1.454 2.19 5.05 5.05 0 01-1.295.71l2.841 4.177h-3.242l-2.457-3.71h-.075l-4.011-.008v3.718h-2.648V5.448zm6.709 7.052a4.4 4.4 0 001.312-.176 2.66 2.66 0 00.944-.493c.256-.211.446-.468.568-.768a2.62 2.62 0 00.192-1.02c0-.73-.25-1.292-.751-1.688-.502-.4-1.257-.601-2.265-.601h-4.061V12.5h4.061zm8.18-.56c0-.986.181-1.888.543-2.707a6.124 6.124 0 011.52-2.106c.658-.59 1.443-1.047 2.357-1.37.919-.323 1.936-.485 3.049-.485 1.109 0 2.123.162 3.042.485.919.323 1.704.78 2.356 1.37a6.07 6.07 0 011.529 2.106c.362.819.543 1.721.543 2.707 0 .991-.181 1.902-.543 2.732a6.218 6.218 0 01-1.529 2.13c-.652.597-1.437 1.062-2.356 1.396-.919.328-1.933.493-3.042.493-1.113 0-2.13-.165-3.049-.493a7.106 7.106 0 01-2.357-1.395 6.275 6.275 0 01-1.52-2.131c-.362-.83-.543-1.74-.543-2.732zm2.648 0c0 .674.12 1.281.36 1.821.245.54.582 1.003 1.011 1.387a4.66 4.66 0 001.529.878 5.79 5.79 0 001.921.309 5.7 5.7 0 001.914-.31 4.55 4.55 0 001.529-.877 4.127 4.127 0 001.011-1.387c.245-.54.367-1.147.367-1.821 0-.674-.122-1.279-.367-1.813a3.892 3.892 0 00-1.011-1.354 4.405 4.405 0 00-1.529-.852 6.02 6.02 0 00-1.914-.292 6.09 6.09 0 00-1.921.292 4.498 4.498 0 00-1.529.852 3.892 3.892 0 00-1.011 1.354c-.24.534-.36 1.139-.36 1.813zm30.524 2.681c.474.268.953.51 1.437.727.49.212.997.393 1.521.543a12.48 12.48 0 001.646.335c.579.078 1.195.116 1.847.116.785 0 1.453-.05 2.005-.15.551-.106 1-.248 1.345-.426.351-.184.604-.401.76-.652a1.48 1.48 0 00.243-.819c0-.473-.198-.846-.594-1.12-.395-.278-1.005-.417-1.829-.417a9.24 9.24 0 00-1.145.075c-.401.045-.808.095-1.22.15-.407.056-.81.11-1.211.16a10.05 10.05 0 01-1.12.066 6.264 6.264 0 01-1.688-.225 4.51 4.51 0 01-1.428-.677 3.375 3.375 0 01-.987-1.128c-.244-.451-.367-.977-.367-1.58 0-.356.047-.71.142-1.06.1-.351.256-.685.468-1.003.217-.323.495-.62.835-.894.34-.278.749-.518 1.229-.718a8.03 8.03 0 011.67-.468 12.04 12.04 0 012.165-.176c.584 0 1.172.034 1.763.1a16.834 16.834 0 013.342.694c.518.162 1 .343 1.445.543l-1.161 2.139c-.368-.162-.764-.31-1.187-.443-.423-.14-.866-.259-1.328-.36a14.34 14.34 0 00-1.437-.233c-.49-.061-.992-.092-1.504-.092-.73 0-1.331.053-1.805.159-.468.106-.841.242-1.12.41-.278.16-.473.345-.584.55a1.282 1.282 0 00-.159.602c0 .39.175.71.526.961.351.245.886.368 1.604.368.29 0 .621-.02.995-.059.378-.044.774-.092 1.186-.142.418-.05.841-.095 1.27-.133.434-.045.855-.067 1.262-.067.768 0 1.448.086 2.038.259.596.172 1.095.42 1.496.743.401.318.705.705.911 1.162.206.45.309.958.309 1.52 0 .752-.176 1.424-.527 2.014-.345.585-.84 1.08-1.487 1.487-.64.401-1.415.707-2.323.92-.908.205-1.918.308-3.032.308-.736 0-1.454-.047-2.156-.142a16.228 16.228 0 01-2.022-.384 16.5 16.5 0 01-1.838-.61 14.043 14.043 0 01-1.613-.785l1.412-2.148z"/></g><path d="M1.14 11.7c0-1.236.276-2.34.828-3.312a5.976 5.976 0 012.286-2.286c.972-.552 2.058-.828 3.258-.828 1.404 0 2.634.36 3.69 1.08 1.056.72 1.794 1.716 2.214 2.988h-2.898c-.288-.6-.696-1.05-1.224-1.35-.516-.3-1.116-.45-1.8-.45-.732 0-1.386.174-1.962.522A3.519 3.519 0 004.2 9.504c-.312.624-.468 1.356-.468 2.196 0 .828.156 1.56.468 2.196.324.624.768 1.11 1.332 1.458.576.336 1.23.504 1.962.504.684 0 1.284-.15 1.8-.45.528-.312.936-.768 1.224-1.368h2.898c-.42 1.284-1.158 2.286-2.214 3.006-1.044.708-2.274 1.062-3.69 1.062-1.2 0-2.286-.27-3.258-.81a6.146 6.146 0 01-2.286-2.286c-.552-.972-.828-2.076-.828-3.312zM22.048 18l-2.772-4.896h-1.188V18h-2.52V5.436h4.716c.972 0 1.8.174 2.484.522.684.336 1.194.798 1.53 1.386.348.576.522 1.224.522 1.944a3.78 3.78 0 01-.72 2.25c-.48.66-1.194 1.116-2.142 1.368L24.964 18h-2.916zm-3.96-6.786h2.106c.684 0 1.194-.162 1.53-.486.336-.336.504-.798.504-1.386 0-.576-.168-1.02-.504-1.332-.336-.324-.846-.486-1.53-.486h-2.106v3.69zM29.62 7.47v3.15h4.23v1.998h-4.23v3.33h4.77V18H27.1V5.418h7.29V7.47h-4.77zm14.764 8.136H39.38L38.551 18h-2.645l4.517-12.582h2.934L47.877 18h-2.664l-.829-2.394zM43.7 13.59l-1.817-5.256-1.819 5.256H43.7zm14.415-8.154V7.47h-3.348V18h-2.52V7.47h-3.348V5.436h9.216zm4.359 2.034v3.15h4.23v1.998h-4.23v3.33h4.77V18h-7.29V5.418h7.29V7.47h-4.77zm11.452-2.034c1.32 0 2.478.258 3.474.774a5.446 5.446 0 012.322 2.214c.552.948.828 2.052.828 3.312 0 1.26-.276 2.364-.828 3.312-.54.936-1.314 1.662-2.322 2.178-.996.516-2.154.774-3.474.774h-4.392V5.436h4.392zm-.09 10.422c1.32 0 2.34-.36 3.06-1.08.72-.72 1.08-1.734 1.08-3.042 0-1.308-.36-2.328-1.08-3.06-.72-.744-1.74-1.116-3.06-1.116h-1.782v8.298h1.782zm20.017-4.302c.708.132 1.29.486 1.746 1.062.456.576.684 1.236.684 1.98 0 .672-.168 1.266-.504 1.782-.324.504-.798.9-1.422 1.188-.624.288-1.362.432-2.214.432h-5.418V5.436h5.184c.852 0 1.584.138 2.196.414.624.276 1.092.66 1.404 1.152.324.492.486 1.05.486 1.674 0 .732-.198 1.344-.594 1.836-.384.492-.9.84-1.548 1.044zm-4.608-.936h2.304c.6 0 1.062-.132 1.386-.396.324-.276.486-.666.486-1.17 0-.504-.162-.894-.486-1.17-.324-.276-.786-.414-1.386-.414h-2.304v3.15zm2.538 5.328c.612 0 1.086-.144 1.422-.432.348-.288.522-.696.522-1.224 0-.54-.18-.96-.54-1.26-.36-.312-.846-.468-1.458-.468h-2.484v3.384h2.538zm16.499-10.512l-4.248 8.19V18h-2.52v-4.374l-4.266-8.19h2.844l2.7 5.742 2.682-5.742h2.808z" fill="#625E5C"/></g><defs><clipPath id="clip0_1011_53403"><path fill="#fff" transform="translate(114.392 4.89)" d="M0 0h104.109v13.974H0z"/></clipPath></defs></svg>