<svg width="218" height="24" fill="none" xmlns="http://www.w3.org/2000/svg"><g opacity=".9"><g clip-path="url(#clip0_1383_27574)"><path d="M186.627 7.219l.001.007a.173.173 0 00.007.03.215.215 0 00.008.025l.001.002a.26.26 0 00.013.027l.001.002 6.391 11.134.003.006.008.012.007.01a.062.062 0 00.008.009.058.058 0 00.008.01l.007.007.01.009a.064.064 0 01.008.006l.01.008a.242.242 0 00.009.006l.01.006.011.006a.368.368 0 00.009.005l.013.005a.158.158 0 00.009.003l.013.005.009.002.014.003a.208.208 0 00.023.003h.021l1.823-.013h.003c.008 0 .017 0 .025-.002h.006a.246.246 0 00.056-.016l.006-.003a.35.35 0 00.021-.011c.002 0 .003-.002.005-.003a.257.257 0 00.046-.036l.004-.005a.453.453 0 00.015-.017l.005-.006.016-.024v-.001l6.276-11.23a.247.247 0 00-.002-.245l-.923-1.596-.001-.001a.236.236 0 00-.037-.047l-.004-.005a.514.514 0 00-.018-.016c-.002 0-.003-.002-.005-.003a.384.384 0 00-.024-.017l-.026-.013h-.003a.234.234 0 00-.092-.019h-.001l-12.666.096a.241.241 0 00-.208.124l-.899 1.61-.001.001a.145.145 0 00-.013.027l-.001.002a.233.233 0 00-.008.026l-.002.007a.163.163 0 00-.004.022l-.001.008a.254.254 0 00-.002.027v.002l.002.029zm13.809-1.245l.641 1.107-6.001 10.738-5.097-8.806 1.265-.01 3.604 6.225.001.002a1.464 1.464 0 00.014.02l.008.012.007.008.008.008.01.01a.039.039 0 00.007.005l.011.01a.05.05 0 01.007.004.116.116 0 00.016.01l.006.003a.098.098 0 00.013.007l.01.004.011.005a.128.128 0 00.013.003.154.154 0 00.009.003l.014.003.009.002a.16.16 0 00.024.002.16.16 0 00.035-.001.493.493 0 00.035-.007c.004 0 .007-.002.011-.003l.011-.004a.3.3 0 00.012-.004l.009-.005a.114.114 0 00.014-.007c.002 0 .003-.002.005-.003h.002a.117.117 0 00.02-.015.054.054 0 00.012-.01.043.043 0 00.007-.005l.009-.01.008-.008.007-.008a.067.067 0 00.008-.011l.005-.008a.087.087 0 00.008-.013l.002-.002 5.17-9.251zm-8.634 3.025l4.592-.035-2.265 4.054-2.327-4.02zm-3.895-3.176l12.109-.091-4.964 8.882-.641-1.108 3.509-6.278a.243.243 0 00-.212-.366l-1.598.011a.242.242 0 00-.239.247c0 .136.109.245.243.244l1.18-.01-.625 1.118-5.288.04h-.002l-1.683.012-.64-1.107 6.092-.046a.242.242 0 00.239-.247.243.243 0 00-.243-.243l-6.51.049h-.001l-1.35.01.624-1.117zm.591 1.598l6.162 10.646-1.265.01-6.11-10.647 1.213-.009z" fill="url(#paint0_linear_1383_27574)"/><path d="M115.41 5.449h2.665v13.059h-2.665V5.448zm6.058 0h2.648l4.746 4.762 4.746-4.762h2.648v13.059h-2.648V9.117l-4.746 4.57-4.746-4.57v9.391h-2.648V5.448zm18.506 0h6.885c1.003 0 1.872.109 2.607.326.735.217 1.345.532 1.83.944.484.406.844.905 1.077 1.495.24.59.36 1.257.36 1.997 0 .697-.117 1.34-.351 1.93a4.049 4.049 0 01-1.078 1.538c-.479.429-1.086.766-1.821 1.01-.736.24-1.605.36-2.607.36l-4.253-.008v3.467h-2.649V5.448zm6.952 7.302a4.41 4.41 0 001.312-.175c.378-.123.693-.293.944-.51.256-.223.445-.49.568-.802.128-.317.192-.668.192-1.053 0-.774-.253-1.375-.76-1.804-.501-.435-1.253-.652-2.256-.652h-4.303v4.996h4.303zm8.706-7.302h6.643c1.002 0 1.871.106 2.606.317.736.206 1.345.507 1.83.903.484.395.844.877 1.078 1.445.239.568.359 1.212.359 1.93 0 .485-.058.947-.175 1.387a4.135 4.135 0 01-1.454 2.19 5.05 5.05 0 01-1.295.71l2.841 4.177h-3.242l-2.457-3.71h-.075l-4.011-.008v3.718h-2.648V5.448zm6.709 7.052a4.4 4.4 0 001.312-.176 2.66 2.66 0 00.944-.493c.256-.211.446-.468.568-.768a2.62 2.62 0 00.192-1.02c0-.73-.25-1.292-.751-1.688-.502-.4-1.257-.601-2.265-.601h-4.061V12.5h4.061zm8.18-.56c0-.986.181-1.888.543-2.707a6.114 6.114 0 011.521-2.106c.657-.59 1.442-1.047 2.356-1.37.919-.323 1.936-.485 3.049-.485 1.109 0 2.123.162 3.042.485.919.323 1.704.78 2.356 1.37a6.07 6.07 0 011.529 2.106c.362.819.543 1.721.543 2.707 0 .991-.181 1.902-.543 2.732a6.218 6.218 0 01-1.529 2.13c-.652.597-1.437 1.062-2.356 1.396-.919.328-1.933.493-3.042.493-1.113 0-2.13-.165-3.049-.493a7.091 7.091 0 01-2.356-1.395 6.264 6.264 0 01-1.521-2.131c-.362-.83-.543-1.74-.543-2.732zm2.649 0c0 .674.119 1.281.359 1.821.245.54.582 1.003 1.011 1.387a4.66 4.66 0 001.529.878 5.79 5.79 0 001.921.309 5.7 5.7 0 001.914-.31 4.55 4.55 0 001.529-.877 4.127 4.127 0 001.011-1.387c.245-.54.367-1.147.367-1.821 0-.674-.122-1.279-.367-1.813a3.892 3.892 0 00-1.011-1.354 4.405 4.405 0 00-1.529-.852 6.02 6.02 0 00-1.914-.292 6.09 6.09 0 00-1.921.292 4.498 4.498 0 00-1.529.852 3.892 3.892 0 00-1.011 1.354c-.24.534-.359 1.139-.359 1.813z" fill="url(#paint1_linear_1383_27574)"/><path d="M203.693 14.622c.474.268.953.51 1.437.727.49.212.997.393 1.521.543a12.48 12.48 0 001.646.335c.579.078 1.195.116 1.847.116.785 0 1.453-.05 2.005-.15.551-.106 1-.248 1.345-.426.351-.184.604-.401.76-.652a1.48 1.48 0 00.243-.819c0-.473-.198-.846-.594-1.12-.395-.278-1.005-.417-1.829-.417a9.24 9.24 0 00-1.145.075c-.401.045-.808.095-1.22.15-.407.056-.81.11-1.211.16a10.05 10.05 0 01-1.12.066 6.264 6.264 0 01-1.688-.225 4.51 4.51 0 01-1.428-.677 3.375 3.375 0 01-.987-1.128c-.244-.451-.367-.977-.367-1.58 0-.356.047-.71.142-1.06.1-.351.256-.685.468-1.003a4.02 4.02 0 01.836-.894 4.888 4.888 0 011.228-.718 8.03 8.03 0 011.67-.468 12.04 12.04 0 012.165-.176c.584 0 1.172.034 1.763.1a16.834 16.834 0 013.342.694c.518.162 1 .343 1.445.543l-1.161 2.139c-.368-.162-.764-.31-1.187-.443-.423-.14-.866-.259-1.328-.36a14.34 14.34 0 00-1.437-.233c-.49-.061-.992-.092-1.504-.092-.73 0-1.331.053-1.805.159-.468.106-.841.242-1.12.41-.278.16-.473.345-.584.55a1.282 1.282 0 00-.159.602c0 .39.175.71.526.961.351.245.886.368 1.605.368a9.7 9.7 0 00.994-.059c.378-.044.774-.092 1.186-.142.418-.05.841-.095 1.27-.133.435-.045.855-.067 1.262-.067.769 0 1.448.086 2.038.259.596.172 1.095.42 1.496.743.401.318.705.705.911 1.162.206.45.309.958.309 1.52 0 .752-.176 1.424-.526 2.014-.346.585-.841 1.08-1.488 1.487-.64.401-1.415.707-2.323.92-.908.205-1.918.308-3.032.308-.736 0-1.454-.047-2.156-.142a16.228 16.228 0 01-2.022-.384 16.5 16.5 0 01-1.838-.61 14.043 14.043 0 01-1.613-.785l1.412-2.148z" fill="url(#paint2_linear_1383_27574)"/></g><path d="M.645 11.642c0-1.248.278-2.362.836-3.343a6.032 6.032 0 012.307-2.307c.98-.557 2.077-.836 3.288-.836 1.417 0 2.658.364 3.724 1.09 1.066.727 1.81 1.732 2.234 3.016H10.11c-.291-.606-.703-1.06-1.236-1.363-.52-.302-1.126-.454-1.816-.454-.74 0-1.4.176-1.98.527-.57.34-1.018.824-1.345 1.453-.315.63-.472 1.369-.472 2.217 0 .835.157 1.574.472 2.216a3.67 3.67 0 001.345 1.471c.58.34 1.24.51 1.98.51.69 0 1.296-.152 1.816-.455.533-.315.945-.775 1.236-1.38h2.925c-.424 1.295-1.17 2.307-2.235 3.033-1.054.715-2.295 1.072-3.724 1.072-1.211 0-2.307-.273-3.288-.818a6.203 6.203 0 01-2.307-2.307c-.558-.98-.836-2.095-.836-3.342zM21.747 18l-2.798-4.941H17.75V18h-2.543V5.32h4.76c.98 0 1.816.175 2.507.527.69.339 1.204.805 1.544 1.398a3.72 3.72 0 01.526 1.962c0 .836-.242 1.593-.726 2.271-.485.666-1.205 1.127-2.162 1.38L24.69 18h-2.943zm-3.997-6.849h2.126c.69 0 1.205-.163 1.544-.49.339-.34.508-.806.508-1.4 0-.58-.17-1.029-.508-1.343-.34-.327-.854-.491-1.544-.491H17.75v3.724zm11.638-3.778v3.179h4.27v2.016h-4.27v3.361h4.814V18h-7.357V5.302h7.357v2.07h-4.814zm14.9 8.21h-5.05L38.404 18h-2.67l4.56-12.698h2.96L47.813 18h-2.689l-.835-2.416zm-.69-2.034l-1.834-5.304-1.835 5.304h3.67zm14.549-8.23v2.054h-3.38V18h-2.543V7.373h-3.379V5.32h9.302zm4.399 2.054v3.179h4.269v2.016h-4.27v3.361h4.815V18h-7.358V5.302h7.358v2.07h-4.814zM74.104 5.32c1.332 0 2.5.26 3.506.78a5.497 5.497 0 012.344 2.235c.557.957.835 2.071.835 3.343 0 1.272-.278 2.386-.835 3.343-.545.944-1.327 1.677-2.344 2.198-1.005.52-2.174.781-3.506.781H69.67V5.32h4.433zm-.091 10.518c1.332 0 2.362-.363 3.088-1.09.727-.726 1.09-1.75 1.09-3.07 0-1.32-.363-2.35-1.09-3.088-.726-.751-1.756-1.127-3.088-1.127h-1.799v8.375h1.799zm20.203-4.342a2.85 2.85 0 011.762 1.072c.46.582.69 1.248.69 1.998 0 .679-.17 1.278-.509 1.799-.327.509-.805.908-1.435 1.199-.63.29-1.374.436-2.234.436h-5.468V5.32h5.232c.86 0 1.598.139 2.216.418.63.278 1.102.666 1.417 1.162.327.497.49 1.06.49 1.69 0 .738-.2 1.356-.599 1.853-.388.496-.908.848-1.562 1.053zm-4.651-.944h2.325c.606 0 1.072-.133 1.4-.4.326-.279.49-.672.49-1.18 0-.51-.164-.903-.49-1.182-.328-.278-.794-.417-1.4-.417h-2.325v3.179zm2.561 5.377c.618 0 1.097-.145 1.436-.436.35-.29.526-.702.526-1.235 0-.545-.181-.97-.544-1.272-.364-.315-.854-.472-1.472-.472h-2.507v3.415h2.561zm16.652-10.61l-4.288 8.267V18h-2.543v-4.415L97.641 5.32h2.871l2.725 5.795 2.707-5.795h2.834z" fill="#AEACA9"/></g><defs><linearGradient id="paint0_linear_1383_27574" x1="194.111" y1="-9.212" x2="194.209" y2="18.567" gradientUnits="userSpaceOnUse"><stop stop-color="#111520"/><stop offset="1" stop-color="#DDB06D"/></linearGradient><linearGradient id="paint1_linear_1383_27574" x1="150.435" y1="-9.273" x2="150.456" y2="18.692" gradientUnits="userSpaceOnUse"><stop stop-color="#111520"/><stop offset="1" stop-color="#DDB06D"/></linearGradient><linearGradient id="paint2_linear_1383_27574" x1="209.78" y1="-9.256" x2="209.879" y2="18.691" gradientUnits="userSpaceOnUse"><stop stop-color="#111520"/><stop offset="1" stop-color="#DDB06D"/></linearGradient><clipPath id="clip0_1383_27574"><path fill="#fff" transform="translate(113.891 4.89)" d="M0 0h104.109v13.974H0z"/></clipPath></defs></svg>