<svg width="141" height="37" viewBox="0 0 141 37" fill="none" xmlns="http://www.w3.org/2000/svg">
<path d="M3.57766 24.0102H0.0288086V33.568H3.57766C6.18195 33.568 8.03059 31.4244 8.03059 28.7891C8.03059 26.1539 6.18195 24.0102 3.57766 24.0102ZM3.57766 32.8853H0.743976V24.6929H3.57766C5.80412 24.6929 7.32891 26.5226 7.32891 28.7891C7.32891 31.0557 5.80412 32.8853 3.57766 32.8853Z" fill="white"/>
<path d="M12.734 26.5908C10.6695 26.5908 9.23912 28.1474 9.23912 30.1545C9.23912 32.2163 10.7099 33.7182 12.788 33.7182C14.1238 33.7182 15.1764 33.1038 15.7296 32.1753L15.1359 31.8203C14.7446 32.544 13.9079 33.0628 12.8015 33.0628C11.2632 33.0628 10.1027 32.0524 9.94079 30.5095H16.0534C16.0534 30.4003 16.0669 30.2911 16.0669 30.1818C16.0669 28.3112 14.785 26.5908 12.734 26.5908ZM12.734 27.2462C14.0564 27.2462 15.2168 28.1747 15.3653 29.8405H9.94079C10.0757 28.3249 11.1957 27.2462 12.734 27.2462Z" fill="white"/>
<path d="M17.8392 28.5297C17.8392 27.7105 18.5813 27.2462 19.4584 27.2462C20.2006 27.2462 20.9022 27.5739 21.1856 28.2839L21.7523 27.9562C21.388 27.1233 20.5514 26.5908 19.4584 26.5908C18.082 26.5908 17.1645 27.451 17.1645 28.5297C17.1645 30.9874 21.2531 29.9224 21.2531 31.7794C21.2531 32.6396 20.4569 33.0628 19.5124 33.0628C18.5003 33.0628 17.7717 32.5986 17.5288 31.8613L16.9486 32.2026C17.2724 33.0765 18.163 33.7182 19.5124 33.7182C20.9562 33.7182 21.9278 32.899 21.9278 31.7794C21.9278 29.2807 17.8392 30.3593 17.8392 28.5297Z" fill="white"/>
<path d="M23.8321 25.0889C24.1289 25.0889 24.3718 24.8431 24.3718 24.5427C24.3718 24.256 24.1289 24.0102 23.8321 24.0102C23.5352 24.0102 23.2923 24.256 23.2923 24.5427C23.2923 24.8431 23.5352 25.0889 23.8321 25.0889ZM23.4947 33.568H24.1694V26.741H23.4947V33.568Z" fill="white"/>
<path d="M32.24 26.741V28.3249C31.6868 27.2735 30.6478 26.5908 29.3389 26.5908C27.4093 26.5908 25.844 28.1337 25.844 30.1545C25.844 32.1753 27.4093 33.7182 29.3389 33.7182C30.6478 33.7182 31.6868 33.0355 32.24 31.9842V33.2404C32.24 34.7969 31.2415 35.7937 29.5548 35.7937C28.0705 35.7937 27.3148 35.1929 26.964 34.4692L26.3702 34.8106C26.856 35.8073 27.976 36.4491 29.5548 36.4491C31.4169 36.4491 32.9147 35.2885 32.9147 33.2404V26.741H32.24ZM29.3793 33.0628C27.7736 33.0628 26.5187 31.7794 26.5187 30.1545C26.5187 28.5297 27.7736 27.2462 29.3793 27.2462C30.9851 27.2462 32.24 28.5297 32.24 30.1545C32.24 31.7794 30.9851 33.0628 29.3793 33.0628Z" fill="white"/>
<path d="M38.0887 26.5908C37.0497 26.5908 36.1861 27.0278 35.6733 28.0382V26.741H34.9986V33.568H35.6733V29.9634C35.6733 28.1201 36.7123 27.2462 38.0347 27.2462C39.3031 27.2462 40.0183 28.0655 40.0183 29.3216V33.568H40.7065V29.3216C40.7065 27.6695 39.6945 26.5908 38.0887 26.5908Z" fill="white"/>
<path d="M53.6477 33.3086L52.3523 31.9296C52.7031 31.3288 52.9325 30.6188 53.054 29.8678L52.4198 29.4991C52.3253 30.2501 52.1229 30.8919 51.853 31.3971L48.8979 28.2703C48.3177 27.6695 47.8724 27.1233 47.8724 26.3451C47.8724 25.2937 48.709 24.5564 49.829 24.5564C50.787 24.5564 51.5697 25.1162 51.853 26.0174L52.4468 25.6623C52.0419 24.5291 51.0029 23.86 49.8155 23.86C48.4121 23.86 47.1437 24.8021 47.1437 26.3724C47.1437 27.1779 47.4676 27.7378 47.8994 28.243C46.6714 28.7891 46.0237 29.8405 46.0237 31.0284C46.0237 32.6805 47.2382 33.7182 49.1003 33.7182C50.3552 33.7182 51.2863 33.254 51.9205 32.5167L53.0135 33.6773L53.6477 33.3086ZM49.0733 33.0219C47.6565 33.0219 46.7524 32.2709 46.7524 31.0147C46.7524 30.1409 47.2112 29.2261 48.3986 28.7755L51.4347 31.9978C50.841 32.6805 50.0314 33.0219 49.0733 33.0219Z" fill="white"/>
<path d="M62.336 24.0102H58.7871V33.568H62.336C64.9403 33.568 66.7889 31.4244 66.7889 28.7891C66.7889 26.1539 64.9403 24.0102 62.336 24.0102ZM62.336 32.8853H59.5023V24.6929H62.336C64.5624 24.6929 66.0872 26.5226 66.0872 28.7891C66.0872 31.0557 64.5624 32.8853 62.336 32.8853Z" fill="white"/>
<path d="M71.4923 26.5908C69.4278 26.5908 67.9974 28.1474 67.9974 30.1545C67.9974 32.2163 69.4682 33.7182 71.5463 33.7182C72.8822 33.7182 73.9347 33.1038 74.4879 32.1753L73.8942 31.8203C73.5029 32.544 72.6663 33.0628 71.5598 33.0628C70.0215 33.0628 68.861 32.0524 68.6991 30.5095H74.8118C74.8118 30.4003 74.8252 30.2911 74.8252 30.1818C74.8252 28.3112 73.5434 26.5908 71.4923 26.5908ZM71.4923 27.2462C72.8147 27.2462 73.9752 28.1747 74.1236 29.8405H68.6991C68.834 28.3249 69.954 27.2462 71.4923 27.2462Z" fill="white"/>
<path d="M81.0909 26.741L78.5406 32.858L76.0037 26.741H75.2751L78.1357 33.568H78.9589L81.806 26.741H81.0909Z" fill="white"/>
<path d="M85.803 26.5908C83.7385 26.5908 82.3082 28.1474 82.3082 30.1545C82.3082 32.2163 83.779 33.7182 85.857 33.7182C87.1929 33.7182 88.2454 33.1038 88.7986 32.1753L88.2049 31.8203C87.8136 32.544 86.977 33.0628 85.8705 33.0628C84.3322 33.0628 83.1718 32.0524 83.0098 30.5095H89.1225C89.1225 30.4003 89.136 30.2911 89.136 30.1818C89.136 28.3112 87.8541 26.5908 85.803 26.5908ZM85.803 27.2462C87.1254 27.2462 88.2859 28.1747 88.4343 29.8405H83.0098C83.1448 28.3249 84.2647 27.2462 85.803 27.2462Z" fill="white"/>
<path d="M90.713 33.568H91.3876V23.6006H90.713V33.568Z" fill="white"/>
<path d="M96.5571 33.7182C98.5137 33.7182 100.092 32.1753 100.092 30.1545C100.092 28.1337 98.5137 26.5908 96.5571 26.5908C94.587 26.5908 93.0082 28.1337 93.0082 30.1545C93.0082 32.1753 94.587 33.7182 96.5571 33.7182ZM96.5571 33.0628C94.9513 33.0628 93.6964 31.7794 93.6964 30.1545C93.6964 28.5297 94.9513 27.2462 96.5571 27.2462C98.1629 27.2462 99.4043 28.5297 99.4043 30.1545C99.4043 31.7794 98.1629 33.0628 96.5571 33.0628Z" fill="white"/>
<path d="M105.292 26.5908C103.983 26.5908 102.944 27.2735 102.391 28.3249V26.741H101.716V36.2989H102.391V31.9842C102.944 33.0355 103.983 33.7182 105.292 33.7182C107.222 33.7182 108.787 32.1753 108.787 30.1545C108.787 28.1337 107.222 26.5908 105.292 26.5908ZM105.251 33.0628C103.646 33.0628 102.391 31.7794 102.391 30.1545C102.391 28.5297 103.646 27.2462 105.251 27.2462C106.857 27.2462 108.112 28.5297 108.112 30.1545C108.112 31.7794 106.857 33.0628 105.251 33.0628Z" fill="white"/>
<path d="M117.619 26.5908C116.715 26.5908 115.851 27.0278 115.365 27.9835C115.015 27.0824 114.245 26.5908 113.26 26.5908C112.397 26.5908 111.587 26.9731 111.088 27.9153V26.741H110.413V33.568H111.088V29.7586C111.088 28.0108 112.073 27.2462 113.179 27.2462C114.218 27.2462 114.907 27.9426 114.907 29.2397V33.568H115.581V29.7586C115.581 28.0108 116.472 27.2462 117.605 27.2462C118.658 27.2462 119.4 27.9426 119.4 29.2397V33.568H120.075V29.2397C120.075 27.533 119.049 26.5908 117.619 26.5908Z" fill="white"/>
<path d="M125.019 26.5908C122.955 26.5908 121.524 28.1474 121.524 30.1545C121.524 32.2163 122.995 33.7182 125.073 33.7182C126.409 33.7182 127.462 33.1038 128.015 32.1753L127.421 31.8203C127.03 32.544 126.193 33.0628 125.087 33.0628C123.548 33.0628 122.388 32.0524 122.226 30.5095H128.339C128.339 30.4003 128.352 30.2911 128.352 30.1818C128.352 28.3112 127.07 26.5908 125.019 26.5908ZM125.019 27.2462C126.342 27.2462 127.502 28.1747 127.65 29.8405H122.226C122.361 28.3249 123.481 27.2462 125.019 27.2462Z" fill="white"/>
<path d="M133.019 26.5908C131.98 26.5908 131.117 27.0278 130.604 28.0382V26.741H129.929V33.568H130.604V29.9634C130.604 28.1201 131.643 27.2462 132.965 27.2462C134.234 27.2462 134.949 28.0655 134.949 29.3216V33.568H135.637V29.3216C135.637 27.6695 134.625 26.5908 133.019 26.5908Z" fill="white"/>
<path d="M141 27.4101V26.741H138.989V24.8295L138.301 25.0343V26.741H136.817V27.4101H138.301V31.8476C138.301 33.4042 139.232 33.8411 141 33.568V32.9536C139.624 33.0765 138.989 33.0492 138.989 31.8476V27.4101H141Z" fill="white"/>
<path d="M16.1302 19.8846H10.568L4.97811 11.1799V19.8846H0V0.41716H4.97811V8.59349L10.2899 0.41716H15.8521L9.67811 9.87278L16.1302 19.8846Z" fill="white"/>
<path d="M27.6955 19.8846L24.3026 13.5994H22.5227V19.8846H17.5446V0.41716H25.3316C27.3154 0.41716 28.9748 1.0568 30.3097 2.33609C31.6632 3.59684 32.3399 5.20059 32.3399 7.14734C32.3399 8.31539 32.0432 9.39073 31.4499 10.3734C30.8566 11.3375 30.0501 12.1069 29.0304 12.6817L33.0351 19.8846H27.6955ZM22.5227 5.00592V9.37219H25.276C25.8878 9.39073 26.3884 9.19606 26.7778 8.78817C27.1671 8.38028 27.3618 7.85187 27.3618 7.20296C27.3618 6.55404 27.1671 6.02564 26.7778 5.61775C26.3884 5.20986 25.8878 5.00592 25.276 5.00592H22.5227Z" fill="white"/>
<path d="M51.2053 17.3817C49.24 19.3284 46.8297 20.3018 43.9745 20.3018C41.1193 20.3018 38.6998 19.3284 36.7159 17.3817C34.7506 15.4164 33.768 13.0061 33.768 10.1509C33.768 7.29566 34.7506 4.89467 36.7159 2.94793C38.6998 0.982643 41.1193 0 43.9745 0C46.8297 0 49.24 0.982643 51.2053 2.94793C53.1891 4.89467 54.181 7.29566 54.181 10.1509C54.181 13.0061 53.1891 15.4164 51.2053 17.3817ZM40.2201 13.9609C41.2213 14.9436 42.4727 15.4349 43.9745 15.4349C45.4763 15.4349 46.7278 14.9436 47.7289 13.9609C48.7301 12.9598 49.2307 11.6897 49.2307 10.1509C49.2307 8.61203 48.7301 7.35128 47.7289 6.36864C46.7278 5.36746 45.4763 4.86686 43.9745 4.86686C42.4727 4.86686 41.2213 5.36746 40.2201 6.36864C39.2189 7.35128 38.7183 8.61203 38.7183 10.1509C38.7183 11.6897 39.2189 12.9598 40.2201 13.9609Z" fill="white"/>
<path d="M65.8904 20.3018C62.961 20.3018 60.5322 19.3377 58.604 17.4095C56.6943 15.4627 55.7395 13.0432 55.7395 10.1509C55.7395 7.25858 56.6943 4.84832 58.604 2.92012C60.5322 0.973373 62.961 0 65.8904 0C67.6517 0 69.2833 0.41716 70.7851 1.25148C72.2868 2.0858 73.4641 3.2075 74.317 4.61657L70.0064 7.09172C69.6356 6.40572 69.0793 5.86805 68.3377 5.4787C67.6146 5.07081 66.7989 4.86686 65.8904 4.86686C64.333 4.86686 63.0722 5.35819 62.1081 6.34083C61.1626 7.30493 60.6898 8.57495 60.6898 10.1509C60.6898 11.7268 61.1626 13.0061 62.1081 13.9888C63.0722 14.9529 64.333 15.4349 65.8904 15.4349C66.7989 15.4349 67.6146 15.2402 68.3377 14.8509C69.0793 14.443 69.6356 13.8868 70.0064 13.1822L74.317 15.6852C73.4641 17.1128 72.2868 18.2438 70.7851 19.0781C69.3018 19.8939 67.6703 20.3018 65.8904 20.3018Z" fill="white"/>
<path d="M92.2292 19.8846H86.6671L81.0772 11.1799V19.8846H76.0991V0.41716H81.0772V8.59349L86.389 0.41716H91.9511L85.7772 9.87278L92.2292 19.8846Z" fill="white"/>
<path d="M93.2265 23.5834H105.102V22.2485H93.2265V23.5834Z" fill="white"/>
<path d="M115.665 0.41716C118.354 0.41716 120.597 1.35345 122.395 3.22604C124.212 5.08008 125.121 7.38836 125.121 10.1509C125.121 12.9134 124.212 15.231 122.395 17.1036C120.597 18.9576 118.354 19.8846 115.665 19.8846H107.739V0.41716H115.665ZM115.665 15.0734C117.019 15.0734 118.122 14.6284 118.975 13.7385C119.827 12.83 120.254 11.6341 120.254 10.1509C120.254 8.66765 119.827 7.48107 118.975 6.59113C118.122 5.68264 117.019 5.2284 115.665 5.2284H112.856V15.0734H115.665Z" fill="white"/>
<path d="M133.594 20.3018C131.536 20.3018 129.83 19.8661 128.477 18.9947C127.123 18.1233 126.178 16.946 125.64 15.4627L129.895 12.9876C130.618 14.7118 131.897 15.574 133.733 15.574C135.253 15.574 136.013 15.1383 136.013 14.2669C136.013 13.6921 135.577 13.2286 134.706 12.8763C134.335 12.728 133.52 12.4777 132.259 12.1254C130.479 11.6063 129.07 10.8832 128.032 9.95621C126.993 9.01065 126.474 7.70355 126.474 6.03491C126.474 4.23649 127.114 2.78107 128.393 1.66864C129.691 0.556213 131.304 0 133.232 0C134.864 0 136.31 0.380079 137.571 1.14024C138.831 1.9004 139.795 3.00355 140.463 4.4497L136.291 6.89704C135.679 5.45089 134.669 4.72781 133.26 4.72781C132.667 4.72781 132.212 4.84832 131.897 5.08935C131.601 5.33037 131.452 5.63629 131.452 6.0071C131.452 6.43353 131.675 6.79507 132.12 7.09172C132.583 7.38836 133.473 7.73136 134.79 8.12071C135.735 8.39882 136.495 8.65838 137.07 8.89941C137.645 9.14043 138.275 9.4927 138.961 9.95621C139.647 10.4012 140.157 10.9852 140.491 11.7083C140.824 12.4128 140.991 13.2471 140.991 14.2112C140.991 16.1209 140.315 17.6134 138.961 18.6888C137.608 19.7641 135.819 20.3018 133.594 20.3018Z" fill="white"/>
</svg>
