<svg width="65" height="72" viewBox="0 0 65 72" fill="none" xmlns="http://www.w3.org/2000/svg">
<path d="M47.6419 55.5063C46.8787 55.5063 46.2594 56.1256 46.2594 56.8888C46.2594 57.6519 46.8787 58.2712 47.6419 58.2712C48.405 58.2712 49.0243 57.6519 49.0243 56.8888C49.0243 56.1256 48.405 55.5063 47.6419 55.5063Z" fill="black"/>
<path d="M51.0458 51.0349L44.4749 48.8447L42.116 44.1258C44.2411 41.9624 45.7167 39.0999 46.2142 36.1141L46.5084 34.3504H49.0243C51.3112 34.3504 53.1717 32.4896 53.1717 30.2022V21.491C53.1717 10.0544 43.8691 0.75 32.4348 0.75C20.9711 0.75 11.6978 10.0277 11.6978 21.491V30.2022C11.6978 32.0048 12.8537 33.5418 14.4627 34.1126V35.7332C14.4627 38.0205 16.3232 39.8814 18.6101 39.8814H19.8242C20.4235 41.1835 21.1992 42.3895 22.1431 43.4729C22.3389 43.698 22.5431 43.9162 22.7523 44.1284L20.3946 48.8447L13.8236 51.0351C6.18341 53.5832 0.638062 61.6278 0.638062 70.1632C0.638062 70.9269 1.25699 71.546 2.02053 71.546H62.849C63.6124 71.546 64.2315 70.9269 64.2315 70.1632C64.2315 61.6278 58.6862 53.5832 51.0458 51.0349ZM50.4068 30.2022C50.4068 30.9647 49.7866 31.585 49.0243 31.585H46.9144C47.2658 28.8624 47.5 25.9651 47.5942 23.1116C47.5969 23.0311 47.5992 22.9528 47.6016 22.8737H50.4068V30.2022ZM15.8452 31.585C15.0829 31.585 14.4627 30.9647 14.4627 30.2022V22.8737H17.2688C17.2734 23.018 17.2782 23.1629 17.2836 23.3088C17.2838 23.3137 17.284 23.3186 17.2842 23.3235C17.2842 23.324 17.2842 23.3244 17.2842 23.3248C17.381 26.1002 17.6121 28.9222 17.9555 31.5848H15.8452V31.585ZM18.6101 37.1159C17.8478 37.1159 17.2276 36.4956 17.2276 35.7332V34.3504H18.361L18.6552 36.1147C18.7113 36.45 18.7803 36.784 18.8601 37.1159H18.6101ZM17.23 20.1083H14.5152C15.2155 10.8411 22.9479 3.51547 32.4348 3.51547C41.8795 3.51547 49.6459 10.8401 50.3541 20.1083H47.6397C47.5401 12.4719 41.3228 6.28094 33.6722 6.28094H31.1976C23.5472 6.28094 17.3294 12.4719 17.23 20.1083ZM31.1975 9.0464H33.6721C39.8668 9.0464 44.8805 14.1143 44.8769 20.3032C44.8769 20.7384 44.8735 21.1173 44.8662 21.462C44.8662 21.4664 44.866 21.471 44.866 21.4755L43.1368 21.2284C38.4392 20.5575 34.0037 18.3393 30.6474 14.9823C30.388 14.7231 30.0365 14.5773 29.6698 14.5773C25.9571 14.5773 22.403 16.2693 20.0537 19.1276C20.6327 13.4973 25.3915 9.0464 31.1975 9.0464ZM21.7262 37.1159C21.0341 34.8132 20.2422 28.0378 20.0672 23.6961L21.9279 21.2146C23.6367 18.9364 26.2954 17.5209 29.1235 17.3584C32.8447 20.9004 37.6587 23.2395 42.7459 23.966L44.7811 24.2569C44.6451 27.1447 44.3671 30.0427 43.9688 32.7079C43.9687 32.7087 43.9685 32.7097 43.9684 32.7107C43.8418 33.5675 43.7419 34.119 43.487 35.6592C42.7549 40.0514 39.4781 44.0234 35.1525 45.1051C33.3723 45.5496 31.4969 45.5495 29.7177 45.1051C27.0167 44.4297 24.5402 42.5606 22.9419 39.8814H25.7602C26.3309 41.4907 27.8675 42.6468 29.6698 42.6468H32.4348C34.7262 42.6468 36.5822 40.7907 36.5822 38.4986C36.5822 36.2113 34.7216 34.3504 32.4348 34.3504H29.6698C27.8274 34.3504 26.3135 35.5407 25.7579 37.1159H21.7262ZM29.5536 47.9034C30.5018 48.1032 31.4686 48.2054 32.4348 48.2054C33.1911 48.2054 33.9476 48.1421 34.6955 48.0193L32.2527 50.6032L29.5536 47.9034ZM30.3521 52.6135L25.9672 57.2514C24.76 54.9403 23.7227 52.535 22.872 50.0727L24.5186 46.7787L30.3521 52.6135ZM40.1166 46.3103L41.9973 50.0725C41.1451 52.5391 40.1076 54.9452 38.9017 57.2535L34.2085 52.5594L40.1166 46.3103ZM28.2874 38.4986C28.2874 37.7352 28.9064 37.1159 29.6698 37.1159H32.4348C33.197 37.1159 33.8172 37.7362 33.8172 38.4986C33.8172 39.2622 33.198 39.8814 32.4348 39.8814H29.6698C28.9075 39.8814 28.2874 39.2611 28.2874 38.4986ZM3.45829 68.7805C4.00616 61.9306 8.56401 55.7044 14.698 53.6585L20.5174 51.7188C21.5835 54.6675 22.9043 57.5335 24.4523 60.2558C24.4549 60.2605 24.4574 60.2652 24.46 60.2698C24.46 60.2699 24.4601 60.2699 24.4601 60.2701C25.5911 62.2597 26.8641 64.2039 28.2442 66.0498L29.9449 68.7805H3.45829ZM32.4348 67.5479L30.5599 64.5373C30.5388 64.5036 30.5164 64.4708 30.4927 64.439C29.3731 62.9454 28.3288 61.3833 27.3777 59.7844L32.308 54.5696L37.503 59.7656C36.5455 61.3761 35.4976 62.9447 34.3771 64.4387C34.3094 64.529 34.4055 64.3867 32.4348 67.5479ZM34.9246 68.7805L36.6251 66.0499C38.0113 64.197 39.2934 62.2371 40.4358 60.2242C40.4427 60.212 40.4492 60.1995 40.4561 60.1874C40.4569 60.1859 40.4578 60.1845 40.4586 60.1829C41.9869 57.4866 43.2939 54.6455 44.3522 51.7188L50.1714 53.6585C56.3055 55.7044 60.8634 61.9306 61.4112 68.7805H34.9246Z" fill="black"/>
<path d="M57.2564 63.1848C56.3325 61.3352 54.9792 59.6919 53.3428 58.4328C52.7375 57.967 51.8696 58.0802 51.4041 58.6856C50.9385 59.2909 51.0518 60.159 51.6569 60.6247C52.9638 61.6304 54.0447 62.943 54.7828 64.4207C55.1246 65.105 55.9555 65.3805 56.6373 65.0398C57.3203 64.6985 57.5975 63.8681 57.2564 63.1848Z" fill="black"/>
</svg>
