<svg width="32" height="35" viewBox="0 0 32 35" fill="none" xmlns="http://www.w3.org/2000/svg">
<path d="M23.2422 27.0703C22.8648 27.0703 22.5586 27.3766 22.5586 27.7539C22.5586 28.1313 22.8648 28.4375 23.2422 28.4375C23.6195 28.4375 23.9258 28.1313 23.9258 27.7539C23.9258 27.3766 23.6195 27.0703 23.2422 27.0703Z" fill="black"/>
<path d="M24.9253 24.8598L21.6762 23.777L20.5098 21.4441C21.5606 20.3745 22.2902 18.9593 22.5362 17.4833L22.6817 16.6113H23.9258C25.0566 16.6113 25.9766 15.6913 25.9766 14.5605V10.2539C25.9766 4.5999 21.3767 0 15.7227 0C10.0542 0 5.46875 4.58671 5.46875 10.2539V14.5605C5.46875 15.4517 6.0403 16.2116 6.83594 16.4937V17.2949C6.83594 18.4257 7.75592 19.3457 8.88672 19.3457H9.48705C9.78339 19.9894 10.167 20.5857 10.6337 21.1213C10.7305 21.2326 10.8315 21.3404 10.9349 21.4454L9.7691 23.777L6.51991 24.8598C2.74203 26.1196 0 30.0967 0 34.3164C0 34.694 0.306045 35 0.683594 35H30.7617C31.1392 35 31.4453 34.694 31.4453 34.3164C31.4453 30.0967 28.7034 26.1196 24.9253 24.8598ZM24.6094 14.5605C24.6094 14.9375 24.3027 15.2441 23.9258 15.2441H22.8825C23.0562 13.8981 23.1721 12.4658 23.2186 11.0551C23.22 11.0153 23.2211 10.9766 23.2223 10.9375H24.6094V14.5605ZM7.51953 15.2441C7.1426 15.2441 6.83594 14.9375 6.83594 14.5605V10.9375H8.2235C8.22575 11.0088 8.22814 11.0804 8.23081 11.1526C8.23088 11.155 8.23102 11.1574 8.23108 11.1599C8.23108 11.1601 8.23108 11.1603 8.23108 11.1605C8.27894 12.5326 8.39323 13.9277 8.56304 15.2441H7.51953V15.2441ZM8.88672 17.9785C8.50978 17.9785 8.20312 17.6719 8.20312 17.2949V16.6113H8.76353L8.909 17.4835C8.93676 17.6493 8.97087 17.8145 9.01031 17.9785H8.88672ZM8.20429 9.57031H6.86191C7.20815 4.9888 11.0316 1.36719 15.7227 1.36719C20.3928 1.36719 24.2331 4.98832 24.5833 9.57031H23.2411C23.1919 5.79503 20.1175 2.73438 16.3345 2.73438H15.1109C11.328 2.73438 8.25344 5.79503 8.20429 9.57031ZM15.1108 4.10156H16.3345C19.3976 4.10156 21.8768 6.607 21.875 9.6667C21.875 9.88183 21.8733 10.0691 21.8697 10.2396C21.8697 10.2417 21.8696 10.244 21.8696 10.2463L21.0146 10.1241C18.6917 9.79241 16.4985 8.69579 14.8388 7.03616C14.7106 6.90799 14.5368 6.83594 14.3555 6.83594C12.5196 6.83594 10.7622 7.67238 9.60053 9.08551C9.88682 6.30198 12.24 4.10156 15.1108 4.10156ZM10.4275 17.9785C10.0853 16.8401 9.69377 13.4905 9.60723 11.344L10.5273 10.1173C11.3723 8.99097 12.6869 8.29117 14.0853 8.21085C15.9253 9.96194 18.3058 11.1183 20.8212 11.4775L21.8276 11.6213C21.7604 13.049 21.6229 14.4817 21.4259 15.7993C21.4259 15.7997 21.4258 15.8002 21.4257 15.8007C21.3631 16.2243 21.3138 16.4969 21.1877 17.2583C20.8257 19.4298 19.2054 21.3934 17.0665 21.9282C16.1863 22.148 15.2589 22.1479 14.3791 21.9282C13.0436 21.5943 11.819 20.6702 11.0287 19.3457H12.4223C12.7045 20.1413 13.4643 20.7129 14.3555 20.7129H15.7227C16.8557 20.7129 17.7734 19.7952 17.7734 18.6621C17.7734 17.5313 16.8535 16.6113 15.7227 16.6113H14.3555C13.4444 16.6113 12.6958 17.1998 12.4211 17.9785H10.4275ZM14.298 23.3116C14.7669 23.4104 15.2449 23.4609 15.7227 23.4609C16.0967 23.4609 16.4707 23.4296 16.8405 23.3689L15.6326 24.6464L14.298 23.3116ZM14.6928 25.6402L12.5246 27.9331C11.9277 26.7905 11.4148 25.6014 10.9941 24.3841L11.8083 22.7556L14.6928 25.6402ZM19.5211 22.524L20.4511 24.384C20.0297 25.6034 19.5167 26.7929 18.9204 27.9341L16.5997 25.6134L19.5211 22.524ZM13.6719 18.6621C13.6719 18.2847 13.978 17.9785 14.3555 17.9785H15.7227C16.0996 17.9785 16.4062 18.2852 16.4062 18.6621C16.4062 19.0396 16.1001 19.3457 15.7227 19.3457H14.3555C13.9785 19.3457 13.6719 19.039 13.6719 18.6621ZM1.39453 33.6328C1.66544 30.2464 3.91918 27.1683 6.95229 26.1568L9.82981 25.1979C10.357 26.6556 11.0101 28.0725 11.7755 29.4184C11.7768 29.4207 11.778 29.423 11.7793 29.4253C11.7793 29.4254 11.7794 29.4254 11.7794 29.4254C12.3387 30.4091 12.9681 31.3703 13.6505 32.2828L14.4915 33.6328H1.39453ZM15.7227 33.0235L14.7956 31.5351C14.7852 31.5184 14.7741 31.5022 14.7623 31.4865C14.2088 30.748 13.6924 29.9758 13.2221 29.1854L15.66 26.6072L18.2288 29.1761C17.7553 29.9722 17.2372 30.7477 16.6831 31.4863C16.6496 31.531 16.6971 31.4606 15.7227 33.0235ZM16.9538 33.6328L17.7947 32.2829C18.4801 31.3668 19.1141 30.3979 19.679 29.4027C19.6824 29.3967 19.6856 29.3906 19.689 29.3846C19.6894 29.3838 19.6898 29.3831 19.6902 29.3824C20.4459 28.0494 21.0922 26.6448 21.6155 25.1979L24.493 26.1568C27.5261 27.1683 29.7799 30.2464 30.0508 33.6328H16.9538Z" fill="black"/>
<path d="M27.9963 30.8664C27.5395 29.9519 26.8703 29.1395 26.0611 28.5171C25.7619 28.2868 25.3327 28.3427 25.1025 28.642C24.8723 28.9413 24.9283 29.3705 25.2275 29.6007C25.8738 30.0979 26.4082 30.7468 26.7732 31.4774C26.9422 31.8157 27.3531 31.9518 27.6902 31.7834C28.0279 31.6147 28.165 31.2041 27.9963 30.8664Z" fill="black"/>
</svg>
