<svg width="562" height="73" viewBox="0 0 562 73" fill="none" xmlns="http://www.w3.org/2000/svg">
<path d="M45.6995 5.776L45.2847 6.68592L45.2897 6.68817L45.6995 5.776ZM55.8755 40.144L56.7143 40.6885L56.7186 40.6818L55.8755 40.144ZM45.6995 48.592L46.1032 49.5069L46.1093 49.5042L45.6995 48.592ZM16.7075 51.472V50.472H15.7075V51.472H16.7075ZM16.7075 70V71H17.7075V70H16.7075ZM1.1555 70H0.1555V71H1.1555V70ZM1.1555 2.8V1.8H0.1555V2.8H1.1555ZM40.0355 35.824L40.6676 36.5989L40.6737 36.5939L40.6796 36.5889L40.0355 35.824ZM40.0355 18.544L39.3914 19.3089L39.3973 19.3139L39.4034 19.3189L40.0355 18.544ZM16.7075 15.472V14.472H15.7075V15.472H16.7075ZM16.7075 38.8H15.7075V39.8H16.7075V38.8ZM30.2435 3.8C36.0864 3.8 41.0907 4.77393 45.2847 6.68591L46.1143 4.86609C41.6043 2.81006 36.3046 1.8 30.2435 1.8V3.8ZM45.2897 6.68817C49.5509 8.6026 52.785 11.2996 55.0367 14.7685L56.7143 13.6795C54.23 9.85239 50.6802 6.91739 46.1093 4.86383L45.2897 6.68817ZM55.0367 14.7685C57.2846 18.2314 58.4275 22.3559 58.4275 27.184H60.4275C60.4275 22.028 59.2024 17.5126 56.7143 13.6795L55.0367 14.7685ZM58.4275 27.184C58.4275 31.9449 57.286 36.0735 55.0324 39.6062L56.7186 40.6818C59.201 36.7905 60.4275 32.2791 60.4275 27.184H58.4275ZM55.0367 39.5995C52.785 43.0684 49.5509 45.7654 45.2897 47.6798L46.1093 49.5042C50.6802 47.4506 54.23 44.5156 56.7143 40.6885L55.0367 39.5995ZM45.2959 47.6771C41.0987 49.5288 36.0903 50.472 30.2435 50.472V52.472C36.3007 52.472 41.5963 51.4952 46.1031 49.5069L45.2959 47.6771ZM30.2435 50.472H16.7075V52.472H30.2435V50.472ZM15.7075 51.472V70H17.7075V51.472H15.7075ZM16.7075 69H1.1555V71H16.7075V69ZM2.1555 70V2.8H0.1555V70H2.1555ZM1.1555 3.8H30.2435V1.8H1.1555V3.8ZM29.3795 39.8C34.1735 39.8 37.9881 38.7848 40.6676 36.5989L39.4034 35.0491C37.2189 36.8312 33.9296 37.8 29.3795 37.8V39.8ZM40.6796 36.5889C43.3761 34.3182 44.6835 31.1361 44.6835 27.184H42.6835C42.6835 30.6559 41.5589 33.2338 39.3914 35.0591L40.6796 36.5889ZM44.6835 27.184C44.6835 23.1751 43.3801 19.982 40.6676 17.7691L39.4034 19.3189C41.5549 21.074 42.6835 23.6409 42.6835 27.184H44.6835ZM40.6796 17.7791C37.9993 15.522 34.1796 14.472 29.3795 14.472V16.472C33.9234 16.472 37.2077 17.47 39.3914 19.3089L40.6796 17.7791ZM29.3795 14.472H16.7075V16.472H29.3795V14.472ZM15.7075 15.472V38.8H17.7075V15.472H15.7075ZM16.7075 39.8H29.3795V37.8H16.7075V39.8ZM113.347 70L112.524 70.5692L112.823 71H113.347V70ZM100.387 51.28L101.209 50.7108L100.91 50.28H100.387V51.28ZM86.0825 51.28V50.28H85.0825V51.28H86.0825ZM86.0825 70V71H87.0825V70H86.0825ZM70.5305 70H69.5305V71H70.5305V70ZM70.5305 2.8V1.8H69.5305V2.8H70.5305ZM115.075 5.776L114.66 6.68592L114.665 6.68817L115.075 5.776ZM125.154 40.144L124.322 39.5893L124.32 39.5927L125.154 40.144ZM114.979 48.4L114.58 47.4829L113.459 47.9701L114.158 48.9722L114.979 48.4ZM130.051 70V71H131.968L130.871 69.4278L130.051 70ZM109.411 18.544L108.766 19.3089L108.772 19.3139L108.778 19.3189L109.411 18.544ZM86.0825 15.472V14.472H85.0825V15.472H86.0825ZM86.0825 38.896H85.0825V39.896H86.0825V38.896ZM109.411 35.824L110.055 36.5889L109.411 35.824ZM114.169 69.4308L101.209 50.7108L99.5643 51.8492L112.524 70.5692L114.169 69.4308ZM100.387 50.28H99.6185V52.28H100.387V50.28ZM99.6185 50.28H86.0825V52.28H99.6185V50.28ZM85.0825 51.28V70H87.0825V51.28H85.0825ZM86.0825 69H70.5305V71H86.0825V69ZM71.5305 70V2.8H69.5305V70H71.5305ZM70.5305 3.8H99.6185V1.8H70.5305V3.8ZM99.6185 3.8C105.461 3.8 110.466 4.77393 114.66 6.68591L115.489 4.86609C110.979 2.81006 105.68 1.8 99.6185 1.8V3.8ZM114.665 6.68817C118.926 8.6026 122.16 11.2996 124.412 14.7685L126.089 13.6795C123.605 9.85239 120.055 6.91739 115.484 4.86383L114.665 6.68817ZM124.412 14.7685C126.66 18.2314 127.803 22.3559 127.803 27.184H129.803C129.803 22.028 128.577 17.5126 126.089 13.6795L124.412 14.7685ZM127.803 27.184C127.803 32.0068 126.63 36.1276 124.322 39.5893L125.987 40.6987C128.543 36.8644 129.803 32.3452 129.803 27.184H127.803ZM124.32 39.5927C122.072 42.9961 118.84 45.6305 114.58 47.4829L115.377 49.3171C119.949 47.3295 123.502 44.4599 125.989 40.6953L124.32 39.5927ZM114.158 48.9722L129.23 70.5722L130.871 69.4278L115.799 47.8278L114.158 48.9722ZM130.051 69H113.347V71H130.051V69ZM114.059 27.184C114.059 23.1751 112.755 19.982 110.043 17.7691L108.778 19.3189C110.93 21.074 112.059 23.6409 112.059 27.184H114.059ZM110.055 17.7791C107.374 15.522 103.555 14.472 98.7545 14.472V16.472C103.298 16.472 106.583 17.47 108.766 19.3089L110.055 17.7791ZM98.7545 14.472H86.0825V16.472H98.7545V14.472ZM85.0825 15.472V38.896H87.0825V15.472H85.0825ZM86.0825 39.896H98.7545V37.896H86.0825V39.896ZM98.7545 39.896C103.555 39.896 107.374 38.846 110.055 36.5889L108.766 35.0591C106.583 36.898 103.298 37.896 98.7545 37.896V39.896ZM110.055 36.5889C112.751 34.3182 114.059 31.1361 114.059 27.184H112.059C112.059 30.6559 110.934 33.2338 108.766 35.0591L110.055 36.5889ZM154.756 66.64L154.281 67.5198L154.285 67.5221L154.756 66.64ZM141.604 54.256L140.743 54.7644L140.747 54.7705L140.75 54.7766L141.604 54.256ZM141.604 18.64L140.748 18.124L140.746 18.127L141.604 18.64ZM154.756 6.16L154.285 5.27791L154.281 5.28018L154.756 6.16ZM205.636 18.64L204.78 19.156L204.782 19.1606L205.636 18.64ZM205.636 54.256L206.49 54.7766L206.493 54.772L205.636 54.256ZM192.484 66.64L192.96 67.5198L192.484 66.64ZM184.42 55.216L184.909 56.0885L184.915 56.0848L184.922 56.081L184.42 55.216ZM191.908 47.536L191.039 47.0417L191.035 47.0482L191.032 47.0547L191.908 47.536ZM191.908 25.264L191.032 25.7453L191.035 25.7518L191.039 25.7583L191.908 25.264ZM184.42 17.68L183.919 18.545L183.925 18.5488L183.932 18.5525L184.42 17.68ZM162.916 17.68L163.405 18.5525L163.411 18.5488L163.418 18.545L162.916 17.68ZM155.332 25.264L154.463 24.7697L154.459 24.7762L154.456 24.7827L155.332 25.264ZM155.332 47.536L154.456 48.0173L154.459 48.0238L154.463 48.0303L155.332 47.536ZM162.916 55.216L162.415 56.081L162.421 56.0848L162.428 56.0885L162.916 55.216ZM173.668 70.152C166.841 70.152 160.701 68.6815 155.227 65.7579L154.285 67.5221C160.075 70.6145 166.543 72.152 173.668 72.152V70.152ZM155.232 65.7602C149.814 62.8337 145.563 58.8277 142.458 53.7354L140.75 54.7766C144.045 60.1803 148.562 64.4303 154.281 67.5198L155.232 65.7602ZM142.465 53.7476C139.427 48.6002 137.9 42.8259 137.9 36.4H135.9C135.9 43.1581 137.51 49.2878 140.743 54.7644L142.465 53.7476ZM137.9 36.4C137.9 29.974 139.427 24.2338 142.463 19.153L140.746 18.127C137.51 23.5422 135.9 29.642 135.9 36.4H137.9ZM142.461 19.156C145.567 14.0005 149.818 9.96465 155.232 7.03982L154.281 5.28018C148.559 8.37134 144.042 12.6555 140.748 18.124L142.461 19.156ZM155.227 7.04207C160.701 4.11851 166.841 2.648 173.668 2.648V0.647999C166.543 0.647999 160.075 2.18549 154.285 5.27792L155.227 7.04207ZM173.668 2.648C180.496 2.648 186.601 4.11854 192.009 7.03982L192.96 5.28018C187.231 2.18545 180.793 0.647999 173.668 0.647999V2.648ZM192.009 7.03982C197.423 9.96465 201.674 14.0005 204.78 19.156L206.493 18.124C203.199 12.6555 198.682 8.37134 192.96 5.28018L192.009 7.03982ZM204.782 19.1606C207.88 24.2404 209.436 29.9778 209.436 36.4H211.436C211.436 29.6382 209.793 23.5356 206.49 18.1194L204.782 19.1606ZM209.436 36.4C209.436 42.8221 207.88 48.5937 204.78 53.74L206.493 54.772C209.793 49.2943 211.436 43.1619 211.436 36.4H209.436ZM204.782 53.7354C201.677 58.8277 197.426 62.8337 192.009 65.7602L192.96 67.5198C198.678 64.4303 203.195 60.1803 206.49 54.7766L204.782 53.7354ZM192.009 65.7602C186.601 68.6815 180.496 70.152 173.668 70.152V72.152C180.793 72.152 187.231 70.6145 192.96 67.5198L192.009 65.7602ZM173.668 58.904C177.793 58.904 181.547 57.9709 184.909 56.0885L183.932 54.3435C180.893 56.0451 177.48 56.904 173.668 56.904V58.904ZM184.922 56.081C188.281 54.133 190.906 51.4398 192.785 48.0173L191.032 47.0547C189.327 50.1602 186.96 52.587 183.919 54.351L184.922 56.081ZM192.778 48.0303C194.728 44.5998 195.692 40.7142 195.692 36.4H193.692C193.692 40.4058 192.8 43.9442 191.039 47.0417L192.778 48.0303ZM195.692 36.4C195.692 32.0858 194.728 28.2002 192.778 24.7697L191.039 25.7583C192.8 28.8558 193.692 32.3942 193.692 36.4H195.692ZM192.785 24.7827C190.904 21.3572 188.275 18.6925 184.909 16.8075L183.932 18.5525C186.966 20.2515 189.328 22.6428 191.032 25.7453L192.785 24.7827ZM184.922 16.815C181.558 14.8641 177.799 13.896 173.668 13.896V15.896C177.473 15.896 180.882 16.7839 183.919 18.545L184.922 16.815ZM173.668 13.896C169.537 13.896 165.778 14.8641 162.415 16.815L163.418 18.545C166.454 16.7839 169.863 15.896 173.668 15.896V13.896ZM162.428 16.8075C159.065 18.6907 156.407 21.3513 154.463 24.7697L156.202 25.7583C157.97 22.6487 160.368 20.2533 163.405 18.5525L162.428 16.8075ZM154.456 24.7827C152.574 28.2109 151.644 32.0918 151.644 36.4H153.644C153.644 32.3882 154.507 28.8451 156.209 25.7453L154.456 24.7827ZM151.644 36.4C151.644 40.7082 152.574 44.5891 154.456 48.0173L156.209 47.0547C154.507 43.9549 153.644 40.4118 153.644 36.4H151.644ZM154.463 48.0303C156.405 51.4458 159.059 54.1348 162.415 56.081L163.418 54.351C160.374 52.5852 157.971 50.1542 156.202 47.0417L154.463 48.0303ZM162.428 56.0885C165.789 57.9709 169.544 58.904 173.668 58.904V56.904C169.857 56.904 166.443 56.0451 163.405 54.3435L162.428 56.0885ZM271.468 35.056L271.005 34.1698L268.874 35.2835L271.166 36.0093L271.468 35.056ZM280.492 41.2L279.694 41.8029L279.701 41.8114L280.492 41.2ZM276.844 65.296L277.412 66.119L277.415 66.1174L276.844 65.296ZM222.124 70H221.124V71H222.124V70ZM222.124 2.8V1.8H221.124V2.8H222.124ZM273.772 7.504L273.188 8.31532L273.193 8.31932L273.772 7.504ZM277.996 29.008L277.148 28.478L277.143 28.4857L277.139 28.4935L277.996 29.008ZM237.58 14.512V13.512H236.58V14.512H237.58ZM237.58 30.352H236.58V31.352H237.58V30.352ZM261.772 16.528L261.211 17.3559L261.221 17.3622L261.23 17.3683L261.772 16.528ZM264.94 56.272L264.403 55.4283L264.392 55.436L264.94 56.272ZM237.58 41.68V40.68H236.58V41.68H237.58ZM237.58 58.288H236.58V59.288H237.58V58.288ZM271.166 36.0093C274.833 37.1703 277.658 39.1072 279.694 41.8028L281.29 40.5972C278.975 37.5328 275.784 35.3737 271.77 34.1027L271.166 36.0093ZM279.701 41.8114C281.72 44.4239 282.756 47.6864 282.756 51.664H284.756C284.756 47.3216 283.617 43.6081 281.284 40.5886L279.701 41.8114ZM282.756 51.664C282.756 57.2436 280.597 61.4722 276.274 64.4746L277.415 66.1174C282.307 62.7198 284.756 57.8604 284.756 51.664H282.756ZM276.276 64.473C271.971 67.4441 265.551 69 256.876 69V71C265.737 71 272.629 69.4199 277.412 66.119L276.276 64.473ZM256.876 69H222.124V71H256.876V69ZM223.124 70V2.8H221.124V70H223.124ZM222.124 3.8H254.956V1.8H222.124V3.8ZM254.956 3.8C263.042 3.8 269.074 5.35127 273.188 8.31531L274.357 6.69269C269.766 3.38472 263.254 1.8 254.956 1.8V3.8ZM273.193 8.31932C277.348 11.2694 279.396 15.2228 279.396 20.272H281.396C281.396 14.5692 279.029 10.0105 274.351 6.68867L273.193 8.31932ZM279.396 20.272C279.396 23.3644 278.641 26.0898 277.148 28.478L278.844 29.538C280.552 26.8062 281.396 23.7076 281.396 20.272H279.396ZM277.139 28.4935C275.704 30.8854 273.669 32.7773 271.005 34.1698L271.932 35.9422C274.9 34.3907 277.217 32.2506 278.854 29.5225L277.139 28.4935ZM236.58 14.512V30.352H238.58V14.512H236.58ZM237.58 31.352H253.036V29.352H237.58V31.352ZM253.036 31.352C256.966 31.352 260.111 30.6691 262.333 29.1639L261.211 27.5081C259.465 28.6909 256.787 29.352 253.036 29.352V31.352ZM262.333 29.1639C264.621 27.614 265.748 25.3026 265.748 22.384H263.748C263.748 24.7134 262.891 26.37 261.211 27.5081L262.333 29.1639ZM265.748 22.384C265.748 19.4651 264.62 17.1749 262.314 15.6877L261.23 17.3683C262.893 18.4411 263.748 20.0549 263.748 22.384H265.748ZM262.333 15.7001C260.111 14.1949 256.966 13.512 253.036 13.512V15.512C256.787 15.512 259.465 16.1731 261.211 17.3559L262.333 15.7001ZM253.036 13.512H237.58V15.512H253.036V13.512ZM255.724 59.288C259.898 59.288 263.202 58.609 265.489 57.108L264.392 55.436C262.583 56.6229 259.743 57.288 255.724 57.288V59.288ZM265.477 57.1157C267.918 55.5625 269.108 53.1394 269.108 50.032H267.108C267.108 52.5566 266.187 54.2935 264.403 55.4283L265.477 57.1157ZM269.108 50.032C269.108 46.9616 267.947 44.5412 265.571 42.9389C263.266 41.384 259.933 40.68 255.724 40.68V42.68C259.771 42.68 262.631 43.368 264.453 44.5971C266.205 45.7788 267.108 47.5344 267.108 50.032H269.108ZM255.724 40.68H237.58V42.68H255.724V40.68ZM236.58 41.68V58.288H238.58V41.68H236.58ZM237.58 59.288H255.724V57.288H237.58V59.288ZM295.53 2.8V1.8H294.53V2.8H295.53ZM311.082 2.8H312.082V1.8H311.082V2.8ZM311.082 57.328H310.082V58.328H311.082V57.328ZM344.779 57.328H345.779V56.328H344.779V57.328ZM344.779 70V71H345.779V70H344.779ZM295.53 70H294.53V71H295.53V70ZM295.53 3.8H311.082V1.8H295.53V3.8ZM310.082 2.8V57.328H312.082V2.8H310.082ZM311.082 58.328H344.779V56.328H311.082V58.328ZM343.779 57.328V70H345.779V57.328H343.779ZM344.779 69H295.53V71H344.779V69ZM296.53 70V2.8H294.53V70H296.53ZM405.5 57.52H406.5V56.52H405.5V57.52ZM405.5 70V71H406.5V70H405.5ZM353.468 70H352.468V71H353.468V70ZM353.468 2.8V1.8H352.468V2.8H353.468ZM404.252 2.8H405.252V1.8H404.252V2.8ZM404.252 15.28V16.28H405.252V15.28H404.252ZM368.924 15.28V14.28H367.924V15.28H368.924ZM368.924 29.872H367.924V30.872H368.924V29.872ZM400.124 29.872H401.124V28.872H400.124V29.872ZM400.124 41.968V42.968H401.124V41.968H400.124ZM368.924 41.968V40.968H367.924V41.968H368.924ZM368.924 57.52H367.924V58.52H368.924V57.52ZM404.5 57.52V70H406.5V57.52H404.5ZM405.5 69H353.468V71H405.5V69ZM354.468 70V2.8H352.468V70H354.468ZM353.468 3.8H404.252V1.8H353.468V3.8ZM403.252 2.8V15.28H405.252V2.8H403.252ZM404.252 14.28H368.924V16.28H404.252V14.28ZM367.924 15.28V29.872H369.924V15.28H367.924ZM368.924 30.872H400.124V28.872H368.924V30.872ZM399.124 29.872V41.968H401.124V29.872H399.124ZM400.124 40.968H368.924V42.968H400.124V40.968ZM367.924 41.968V57.52H369.924V41.968H367.924ZM368.924 58.52H405.5V56.52H368.924V58.52ZM479.026 70L478.026 70.0024L478.029 71H479.026V70ZM478.93 29.68L479.93 29.6776L479.922 26.0601L478.071 29.1684L478.93 29.68ZM459.154 62.896V63.896H459.723L460.013 63.4076L459.154 62.896ZM452.146 62.896L451.292 63.4157L451.584 63.896H452.146V62.896ZM432.466 30.544L433.321 30.0243L431.466 26.9759V30.544H432.466ZM432.466 70V71H433.466V70H432.466ZM417.874 70H416.874V71H417.874V70ZM417.874 2.8V1.8H416.874V2.8H417.874ZM430.738 2.8L431.595 2.28405L431.303 1.8H430.738V2.8ZM455.89 44.56L455.034 45.0759L455.897 46.5092L456.75 45.0701L455.89 44.56ZM480.658 2.8V1.8H480.089L479.798 2.28987L480.658 2.8ZM493.426 2.8L494.426 2.79714L494.423 1.8H493.426V2.8ZM493.618 70V71H494.621L494.618 69.9971L493.618 70ZM480.026 69.9976L479.93 29.6776L477.93 29.6824L478.026 70.0024L480.026 69.9976ZM478.071 29.1684L458.295 62.3844L460.013 63.4076L479.789 30.1916L478.071 29.1684ZM459.154 61.896H452.146V63.896H459.154V61.896ZM453.001 62.3763L433.321 30.0243L431.612 31.0637L451.292 63.4157L453.001 62.3763ZM431.466 30.544V70H433.466V30.544H431.466ZM432.466 69H417.874V71H432.466V69ZM418.874 70V2.8H416.874V70H418.874ZM417.874 3.8H430.738V1.8H417.874V3.8ZM429.882 3.31594L455.034 45.0759L456.747 44.0441L431.595 2.28405L429.882 3.31594ZM456.75 45.0701L481.518 3.31012L479.798 2.28987L455.03 44.0499L456.75 45.0701ZM480.658 3.8H493.426V1.8H480.658V3.8ZM492.426 2.80285L492.618 70.0029L494.618 69.9971L494.426 2.79714L492.426 2.80285ZM493.618 69H479.026V71H493.618V69ZM516.186 69.04L515.9 69.9982L515.907 70.0004L515.914 70.0024L516.186 69.04ZM504.282 63.376L503.37 62.965L503.044 63.6878L503.674 64.1699L504.282 63.376ZM509.562 51.664L510.153 50.8576L509.158 50.1275L508.65 51.253L509.562 51.664ZM519.834 56.752L520.141 55.8003L519.834 56.752ZM541.53 56.752L542.048 57.6072L542.057 57.6015L542.067 57.5957L541.53 56.752ZM542.778 47.536L542.111 48.2812L542.132 48.2996L542.153 48.3169L542.778 47.536ZM537.978 44.944L537.661 45.8927L537.671 45.8957L537.978 44.944ZM530.106 42.832L529.875 43.805L529.881 43.8064L530.106 42.832ZM517.53 39.184L517.879 38.2469L517.53 39.184ZM509.082 33.328L508.322 33.9788L508.331 33.989L509.082 33.328ZM508.794 12.016L509.623 12.5746L509.628 12.5668L508.794 12.016ZM518.298 4.432L517.901 3.51426L517.896 3.51648L518.298 4.432ZM546.522 3.184L546.764 2.21385L546.522 3.184ZM557.274 7.6L558.2 7.97658L558.517 7.19764L557.804 6.752L557.274 7.6ZM552.474 19.408L551.981 20.2779L552.971 20.8396L553.4 19.7846L552.474 19.408ZM524.154 16.24L523.599 15.408L523.593 15.4119L523.587 15.416L524.154 16.24ZM524.634 26.992L524.196 27.8912L524.211 27.8983L524.225 27.9048L524.634 26.992ZM535.674 30.256L535.905 29.2831L535.897 29.2812L535.889 29.2795L535.674 30.256ZM548.25 33.904L548.599 32.9669L548.25 33.904ZM556.602 39.664L555.85 40.3239L555.859 40.334L556.602 39.664ZM556.89 60.88L556.063 60.3177L556.06 60.3214L556.89 60.88ZM547.29 68.368L546.893 67.4503L547.29 68.368ZM531.642 70.152C526.419 70.152 521.359 69.46 516.457 68.0776L515.914 70.0024C520.997 71.436 526.24 72.152 531.642 72.152V70.152ZM516.472 68.0818C511.621 66.633 507.774 64.7911 504.89 62.5821L503.674 64.1699C506.806 66.5689 510.894 68.503 515.9 69.9982L516.472 68.0818ZM505.193 63.787L510.473 52.075L508.65 51.253L503.37 62.965L505.193 63.787ZM508.97 52.4704C511.95 54.6553 515.473 56.3962 519.527 57.7037L520.141 55.8003C516.258 54.5478 512.934 52.8966 510.153 50.8576L508.97 52.4704ZM519.527 57.7037C523.589 59.0141 527.66 59.672 531.738 59.672V57.672C527.879 57.672 524.015 57.0499 520.141 55.8003L519.527 57.7037ZM531.738 59.672C536.212 59.672 539.7 59.0304 542.048 57.6072L541.011 55.8968C539.136 57.0336 536.095 57.672 531.738 57.672V59.672ZM542.067 57.5957C544.416 56.1005 545.698 54.0462 545.698 51.472H543.698C543.698 53.2498 542.867 54.7155 540.993 55.9083L542.067 57.5957ZM545.698 51.472C545.698 49.5597 544.913 47.9635 543.402 46.7551L542.153 48.3169C543.203 49.1565 543.698 50.1843 543.698 51.472H545.698ZM543.445 46.7908C542.1 45.5875 540.366 44.6637 538.285 43.9923L537.671 45.8957C539.557 46.5043 541.024 47.3085 542.111 48.2812L543.445 46.7908ZM538.294 43.9953C536.331 43.3408 533.672 42.6286 530.331 41.8576L529.881 43.8064C533.196 44.5714 535.785 45.2672 537.661 45.8927L538.294 43.9953ZM530.337 41.8591C525.239 40.6483 521.09 39.4433 517.879 38.2469L517.181 40.1211C520.497 41.3567 524.733 42.5837 529.875 43.8049L530.337 41.8591ZM517.879 38.2469C514.774 37.0901 512.094 35.2349 509.832 32.667L508.331 33.989C510.805 36.7971 513.758 38.8459 517.181 40.1211L517.879 38.2469ZM509.841 32.6772C507.73 30.2145 506.626 26.8825 506.626 22.576H504.626C504.626 27.2295 505.825 31.0655 508.323 33.9788L509.841 32.6772ZM506.626 22.576C506.626 18.8641 507.626 15.5399 509.623 12.5746L507.964 11.4574C505.737 14.7641 504.626 18.4799 504.626 22.576H506.626ZM509.628 12.5668C511.615 9.55757 514.616 7.14201 518.7 5.34752L517.896 3.51648C513.531 5.43399 510.197 8.07442 507.959 11.4652L509.628 12.5668ZM518.695 5.34972C522.825 3.5622 527.897 2.648 533.946 2.648V0.647999C527.706 0.647999 522.347 1.5898 517.901 3.51427L518.695 5.34972ZM533.946 2.648C538.153 2.648 542.264 3.15028 546.279 4.15414L546.764 2.21385C542.588 1.16972 538.314 0.647999 533.946 0.647999V2.648ZM546.279 4.15414C550.29 5.15684 553.774 6.59183 556.744 8.448L557.804 6.752C554.63 4.76817 550.945 3.25916 546.764 2.21385L546.279 4.15414ZM556.347 7.22342L551.547 19.0314L553.4 19.7846L558.2 7.97658L556.347 7.22342ZM552.967 18.5381C546.631 14.9457 540.255 13.128 533.85 13.128V15.128C539.86 15.128 545.9 16.8303 551.981 20.2779L552.967 18.5381ZM533.85 13.128C529.426 13.128 525.955 13.8371 523.599 15.408L524.708 17.072C526.576 15.8269 529.57 15.128 533.85 15.128V13.128ZM523.587 15.416C521.293 16.9932 520.082 19.1453 520.082 21.808H522.082C522.082 19.8627 522.918 18.3028 524.72 17.064L523.587 15.416ZM520.082 21.808C520.082 23.1407 520.427 24.3502 521.145 25.3972C521.857 26.4366 522.896 27.2586 524.196 27.8912L525.071 26.0928C524.004 25.5734 523.267 24.9554 522.795 24.2668C522.328 23.5858 522.082 22.7793 522.082 21.808H520.082ZM524.225 27.9048C526.752 29.0351 530.512 30.1404 535.458 31.2325L535.889 29.2795C530.98 28.1956 527.38 27.1249 525.042 26.0792L524.225 27.9048ZM535.443 31.2289C540.541 32.4397 544.689 33.6447 547.901 34.8411L548.599 32.9669C545.282 31.7313 541.047 30.5043 535.905 29.2831L535.443 31.2289ZM547.901 34.8411C551.009 35.9992 553.655 37.8237 555.85 40.3238L557.353 39.0042C554.94 36.2563 552.018 34.2408 548.599 32.9669L547.901 34.8411ZM555.859 40.334C558.021 42.729 559.154 46.019 559.154 50.32H561.154C561.154 45.661 559.919 41.847 557.344 38.994L555.859 40.334ZM559.154 50.32C559.154 53.9578 558.127 57.2822 556.063 60.3177L557.717 61.4423C560.005 58.0778 561.154 54.3622 561.154 50.32H559.154ZM556.06 60.3214C554.078 63.2652 551.047 65.6523 546.893 67.4503L547.687 69.2857C552.109 67.3717 555.478 64.7668 557.719 61.4386L556.06 60.3214ZM546.893 67.4503C542.763 69.2378 537.69 70.152 531.642 70.152V72.152C537.881 72.152 543.241 71.2102 547.687 69.2857L546.893 67.4503Z" fill="#EB5B31"/>
</svg>
