<svg width="40" height="40" viewBox="0 0 40 40" fill="none" xmlns="http://www.w3.org/2000/svg">
<path d="M5 25V27.5H10.7325L2.5 35.7325L4.2675 37.5L12.5 29.2675V35H15V25H5Z" fill="#F15A24"/>
<path d="M37.5 5H28.75V7.5H33.2325L23.75 16.9825L18.3837 11.6163C18.1493 11.3819 17.8315 11.2503 17.5 11.2503C17.1685 11.2503 16.8507 11.3819 16.6163 11.6163L10 18.2325L11.7675 20L17.5 14.2675L22.8662 19.6337C23.1007 19.8681 23.4185 19.9997 23.75 19.9997C24.0815 19.9997 24.3993 19.8681 24.6338 19.6337L35 9.2675V13.75H37.5V5Z" fill="#F15A24"/>
<path d="M20 35H37.5V37.5H20V35Z" fill="#F15A24"/>
<path d="M2.5 2.5H5V20H2.5V2.5Z" fill="#F15A24"/>
</svg>
