<svg width="187" height="54" fill="none" xmlns="http://www.w3.org/2000/svg"><path d="M155.826 44.234c-2.199.114-4.453-.491-6.502-1.746-.995-.607-1.797-.61-2.562.27-1.658 1.91-4.094 3.157-4.047 6.37.03 1.986-2.197 3.11-4.554 2.952a4.039 4.039 0 01-3.806-3.48c-.369-2.473.646-4.706 2.989-4.909 3.089-.266 4.654-2.25 6.516-4.14.772-.781.883-1.413.371-2.351-2.309-4.279-2.205-8.607-.104-12.926.404-.83.261-1.344-.491-1.923-4.82-3.713-9.617-7.455-14.392-11.226-.784-.615-1.602-.64-2.54-.46-3.48.66-6.317-1.347-6.728-4.7-.334-2.736 2.116-5.606 4.983-5.841 3.067-.251 5.707 2.12 5.798 5.428.031 1.212.529 1.915 1.391 2.577 4.662 3.583 9.322 7.168 13.943 10.79.98.768 1.766 1.114 2.918.24.806-.617 1.807-1.177 2.788-1.325 2.029-.31 2.273-1.49 2.222-3.217-.057-1.872-.064-3.485-1.692-4.98-1.806-1.66-1.35-4.846.466-6.535a4.835 4.835 0 016.612-.02c1.991 1.871 2.432 4.895.436 6.655-2.215 1.943-1.505 4.24-1.544 6.48-.026 1.414 1.431 1.303 2.327 1.638 4.619 1.726 7.65 4.899 8.772 9.716 2.033 8.714-4.392 16.696-13.57 16.663zm.311-20.435c-3.791.016-6.994 3.258-6.969 7.054.025 3.639 3.116 6.654 6.849 6.677 3.976.025 7.039-2.984 7.03-6.905-.01-3.754-3.135-6.84-6.91-6.826z" fill="#FB7555"/><path d="M.274 26.468c-.002-5.324.03-10.64-.027-15.972-.012-1.236.295-1.651 1.61-1.67 4.98-.064 4.98-.12 4.978 4.933 0 2.766.044 5.532-.018 8.302-.028 1.184.23 1.738 1.59 1.703 3.457-.087 6.917-.081 10.376 0 1.325.03 1.618-.488 1.59-1.698-.06-3.734.042-7.468-.043-11.2-.035-1.472.28-2.067 1.926-2.04 4.735.077 4.737 0 4.737 4.768 0 9.612-.042 19.223.036 28.832.012 1.63-.42 2.11-2.062 2.088-4.607-.061-4.607.013-4.605-4.502 0-2.765-.069-5.533.032-8.303.05-1.392-.447-1.73-1.767-1.699-3.388.087-6.777.087-10.17 0-1.262-.032-1.677.33-1.649 1.615.076 3.663-.037 7.33.06 10.992.039 1.46-.412 1.882-1.867 1.878-4.724-.018-4.724.04-4.724-4.752 0-4.424 0-8.849-.003-13.275zm63.742-6.173c6.414-3.563 11.934-3.058 16.267 1.337 4.17 4.24 5.015 10.827 2.064 16.09-2.682 4.784-8.746 7.612-14.132 6.59-5.446-1.036-9.624-5.337-10.192-11.094-.756-7.642-.177-15.327-.306-22.992-.016-.922.382-1.226 1.236-1.205 1.175.03 2.355.071 3.525 0 1.169-.07 1.579.341 1.554 1.53-.065 3.167-.016 6.336-.016 9.744zm.26 10.79c-.073 3.81 3.086 7.102 6.862 7.157 3.69.055 6.89-3.093 6.957-6.83a6.964 6.964 0 00-6.842-7.125c-3.704-.051-6.912 3.074-6.983 6.797h.006zm53.981 10.533c0 2.974.01 5.636 0 8.302 0 2.044-.903 2.923-3.003 2.992-.353.01-.707-.047-1.035.013-1.767.31-2.334-.281-2.297-2.171.143-6.702 0-13.41.11-20.113.106-6.456 4.052-11.448 9.941-12.862 5.476-1.314 12.012 1.712 14.782 6.833 2.865 5.308 1.749 11.9-2.706 16.158-4.346 4.15-11.397 4.432-14.856 1.443a9.478 9.478 0 00-.936-.595zm.222-10.17c-.372 2.22 3.09 6.163 6.48 6.283 3.783.135 7.223-2.826 7.398-6.597a7.006 7.006 0 00-6.487-7.283c-4.398-.295-7.903 3.603-7.391 7.604v-.007zM97.756 8.827c3.489.05 6.37 1.182 8.857 3.386.883.776 1.138 1.43.177 2.378-1.025 1.021-1.714 2.593-2.913 3.167-1.336.638-2.175-1.236-3.369-1.79-3.218-1.522-6.239-.596-6.9 2.28-.353 1.56.147 2.708 1.497 3.513 1.26.753 2.68 1.094 4.045 1.58a36.524 36.524 0 014.026 1.62c3.441 1.716 4.539 4.77 4.741 8.38.277 4.938-1.59 8.612-6.359 10.27-5.049 1.753-9.704 1.072-13.858-2.691-1.657-1.5-1.632-2.397 0-3.63.381-.3.72-.65 1.007-1.042 1.167-1.55 2.172-1.943 3.559-.07 1.316 1.767 4.416 2.386 6.395 1.56 1.423-.591 2.458-1.607 2.584-3.216.132-1.687-.707-2.975-2.187-3.657-2.192-1.01-4.51-1.748-6.698-2.766-6.098-2.826-7.796-10.245-3.516-15.47 2.318-2.825 5.556-3.705 8.912-3.802zm-66.91 17.748c0-2.49.038-4.98-.02-7.467-.024-1.06.315-1.413 1.413-1.48 4.807-.281 4.805-.318 4.805 4.523 0 3.32-.023 6.639 0 9.958.034 3.663 2.185 6.128 5.32 6.16 3.099.033 5.3-2.474 5.31-6.1.015-4.285.045-8.574-.019-12.86-.02-1.236.299-1.664 1.606-1.687 4.74-.08 4.743-.13 4.73 4.593-.01 3.734.066 7.47-.074 11.2-.235 6.297-5.446 11.206-11.61 11.105-6.429-.111-11.37-5.073-11.444-11.516-.024-2.142 0-4.285 0-6.43h-.017zm148.98-14.879c0 1.825.087 3.533-.026 5.236-.096 1.413.441 1.897 1.78 1.706a7.28 7.28 0 011.036 0c2.973.021 2.826.032 3.022 2.893.154 2.175-.507 2.813-2.682 2.68-3.123-.19-3.131-.037-3.133 3.153 0 2.141-.013 4.284 0 6.425.023 3.667 1.185 4.955 4.815 4.856 1.841-.052 2.033.5 1.59 2.095-1.095 3.972-1.59 4.342-5.711 3.607-4.464-.797-6.944-3.64-6.972-8.16-.043-6.77.019-13.543-.044-20.313-.011-1.237.394-1.901 1.547-2.277 1.562-.504 2.918-1.535 4.778-1.901z" fill="#FCFCFC"/></svg>