<svg width="221" height="63" fill="none" xmlns="http://www.w3.org/2000/svg"><path d="M163.611 62.795c-.639-.316-1.318-.576-1.912-.963-1.917-1.257-2.905-3.03-2.903-5.337V6.302c0-3.022 1.824-5.334 4.817-6.12.082-.02.142-.12.209-.182h52.153c.675.3 1.374.549 2.017.905 1.632.903 2.382 2.471 3.008 4.12v52.957c-.373.258-.366.708-.524 1.07-.867 2.017-2.513 3.08-4.501 3.743h-52.364zm28.694-34.348c0-1.087-.044-1.924.013-2.758.046-.654-.172-.823-.815-.813-2.336.04-4.673.04-7.012 0-.628 0-.821.153-.819.809.022 7.88.022 15.762 0 23.645 0 .67.157.9.863.886 2.231-.044 4.465-.06 6.702 0 .874.025 1.102-.223 1.094-1.09a784.694 784.694 0 01-.013-13.287c.015-2.564 1.812-4.633 4.135-4.863 2.722-.273 4.415.98 4.974 3.755.094.584.132 1.176.113 1.768 0 4.256.021 8.51-.01 12.764 0 .716.167.965.921.948 2.303-.047 4.607-.047 6.912 0 .75.015.928-.228.924-.946-.032-4.464-.019-8.927-.013-13.39 0-1.323-.134-2.642-.4-3.938-1.453-7.071-10.208-10.186-15.669-5.59-.668.565-1.158 1.284-1.9 2.1zm-12.776 9.235c0-3.98-.013-7.959.015-11.924 0-.655-.132-.898-.838-.884-2.304.048-4.608.061-6.912 0-.838-.025-.951.285-.949 1.014.025 7.775.025 15.55 0 23.324 0 .758.162 1.033.976 1.012 2.267-.057 4.535-.05 6.801 0 .735.015.934-.193.926-.926-.046-3.877-.019-7.745-.019-11.616zm-4.426-16.337c.279 0 .558.019.838 0 2.17-.165 3.793-1.694 4.141-3.89a4.087 4.087 0 00-2.543-4.354 5.91 5.91 0 00-5.236.314 3.773 3.773 0 00-1.764 2.118c-1.064 2.974 1.161 5.83 4.556 5.818l.008-.006z" fill="#00679E"/><path d="M142.494 26.13c0-4.303.027-8.344-.021-12.384-.011-.867.209-1.12 1.085-1.093 2.233.067 4.467.06 6.702 0 .8-.021.972.222.968.995-.025 9.312-.025 18.625 0 27.938 0 2.578-.04 5.161.209 7.733.065.65-.037.92-.789.9a117.365 117.365 0 00-6.074 0c-.689.015-.891-.209-.911-.875-.032-.961-.189-1.916-.31-3.041-.71.762-1.161 1.502-1.821 2.067-4.528 3.892-12.223 2.99-16.066-1.904-4.189-5.334-3.902-14.437.628-19.479 3.251-3.625 9.061-4.882 13.537-2.932a8.3 8.3 0 012.863 2.076zm0 10.568c0-.629-.05-1.257.01-1.885.21-2.11-1.323-4.328-3.351-5.027a5.656 5.656 0 00-6.283 1.832c-2.04 2.667-2.095 7.725-.09 10.44 1.35 1.84 3.841 2.61 6.178 1.905 2.13-.638 3.425-2.368 3.53-4.764.027-.828-.003-1.666-.003-2.501h.009zM96.04 23.686c-1.853 2.007-3.543 3.84-5.235 5.67-1.398 1.508-2.774 3.037-4.21 4.505-.505.516-.444.838-.049 1.379 3.46 4.675 6.902 9.363 10.324 14.066.18.245.438.449.486.897-2.823 0-5.634-.117-8.428.044-1.648.094-2.534-.455-3.34-1.885-1.73-3.052-3.68-5.978-5.595-9.046-.694.858-1.324 1.663-1.986 2.442-.289.34-.222.718-.222 1.091 0 2.164-.031 4.325.013 6.493.014.687-.174.886-.867.871a216.987 216.987 0 00-7.01 0c-.577 0-.776-.125-.774-.741.019-12.031.019-24.061 0-36.09 0-.629.237-.725.786-.719 2.304.027 4.608.055 6.912 0 .838-.025.95.258.949.997-.028 6.832-.017 13.667-.017 20.501.383.14.398-.21.515-.38 2.268-3.128 4.537-6.26 6.776-9.412a1.466 1.466 0 011.367-.69c3.102.028 6.206.008 9.606.008zm-48.14 4.65c.03-.135.078-.266.143-.39 2.526-3.614 6.924-4.276 10.774-3.198 3.655 1.022 6.193 4.271 6.56 8.448.433 4.938.102 9.892.18 14.839.035 2.166 0 2.168-2.157 2.168-1.886 0-3.77-.036-5.656.017-.737.02-.934-.193-.927-.928.035-4.252.016-8.506.016-12.76a8.471 8.471 0 00-.21-2.176c-.61-2.336-2.035-3.464-4.339-3.406-2.195.048-4.08 1.567-4.499 3.657a8.483 8.483 0 00-.149 1.661c-.012 4.323-.027 8.646.013 12.97 0 .772-.168 1.007-.972.986a135.226 135.226 0 00-6.8 0c-.738.017-.922-.21-.92-.926.04-7.251.042-14.502.05-21.753 0-.698 0-1.397-.042-2.095-.03-.47.149-.588.597-.584 2.476.017 4.954.02 7.43 0 .498 0 .67.132.649.64-.04.889-.01 1.779-.01 2.667l.27.163z" fill="#fff"/><path d="M102.741 39.596c.21 2.139 1.445 3.376 3.249 4.16 2.387 1.047 4.897.925 7.406.729a20.46 20.46 0 004.31-.765c.572-.172.731.019.828.503.279 1.396.567 2.793.865 4.189.092.419.023.703-.469.856-5.446 1.697-10.934 2.304-16.405.346-5.05-1.803-7.59-5.63-8.032-10.906-.253-3.05.235-5.98 1.749-8.67 2.804-4.982 7.266-6.988 12.795-6.882 4.267.084 7.8 1.661 10.066 5.467 1.217 2.044 1.722 4.304 1.885 6.66.084 1.157-.088 2.292-.113 3.438-.016.745-.356.892-1.047.89-5.301-.027-10.602-.015-15.903-.015h-1.184zm-.048-5.686h9.809c.368 0 .448-.139.469-.484.125-2.08-1.588-4.342-3.636-4.763-3.372-.687-6.271 1.573-6.642 5.247zM.265 31.399c0-5.896.023-11.792-.025-17.686 0-.907.262-1.081 1.104-1.048 2.195.061 4.398.065 6.593 0 .86-.025 1.025.256 1.023 1.048-.023 9.216 0 18.419-.038 27.626 0 1.096.306 1.303 1.328 1.288 4.327-.059 8.654 0 12.986-.046.837 0 1.047.243 1.026 1.047-.059 1.917-.04 3.837 0 5.754 0 .61-.122.838-.802.838-7.468-.025-14.938-.025-22.411 0-.807 0-.794-.356-.794-.932.012-5.965.012-11.93 0-17.894l.01.005zm35.386 6.224c0 3.869-.018 7.735.017 11.602 0 .735-.105 1.024-.942 1-2.334-.068-4.671-.041-7.004-.01-.597 0-.773-.173-.771-.766.017-7.942.017-15.885 0-23.827 0-.587.153-.77.752-.762 2.369.033 4.74.04 7.109 0 .678-.013.865.167.858.854-.033 3.967-.019 7.938-.019 11.91zm-4.202-16.238c-3.6 0-5.827-2.809-4.818-5.798.42-1.236 1.295-2.031 2.474-2.513 2.37-.974 5.148-.21 6.378 1.543 1.698 2.422.358 6.267-3.31 6.73-.293.036-.61.034-.724.038z" fill="#fff"/><path d="M192.305 28.448c.736-.817 1.226-1.535 1.885-2.095 5.461-4.595 14.216-1.48 15.669 5.59a19.44 19.44 0 01.4 3.938c0 4.463-.018 8.927.013 13.39 0 .719-.174.962-.924.947a167.652 167.652 0 00-6.912 0c-.754.017-.927-.233-.921-.949.031-4.254.019-8.508.01-12.764a9.1 9.1 0 00-.113-1.768c-.559-2.775-2.243-4.027-4.974-3.755-2.323.23-4.12 2.304-4.135 4.864-.029 4.43-.033 8.86.013 13.287 0 .867-.21 1.114-1.093 1.09a130.14 130.14 0 00-6.703 0c-.706.014-.865-.21-.863-.887.021-7.882.021-15.764 0-23.645 0-.655.182-.819.819-.808 2.338.038 4.675.038 7.013 0 .643 0 .86.16.814.813-.035.827.002 1.665.002 2.752zm-12.776 9.234c0 3.87-.019 7.75.017 11.61 0 .733-.191.94-.926.926a150.145 150.145 0 00-6.801 0c-.814.02-.978-.254-.976-1.012.025-7.775.025-15.55 0-23.324 0-.729.107-1.047.949-1.014 2.304.065 4.608.053 6.912 0 .714-.015.85.228.838.884-.034 3.99-.013 7.955-.013 11.93zm-4.433-16.331c-3.395 0-5.63-2.844-4.556-5.814.3-.903.93-1.66 1.764-2.118a5.913 5.913 0 015.236-.314 4.088 4.088 0 012.543 4.355c-.348 2.195-1.971 3.724-4.141 3.89-.289.014-.568.001-.846.001z" fill="#FDFDFD"/></svg>