<svg width="202" height="41" fill="none" xmlns="http://www.w3.org/2000/svg"><path d="M8.185 12.62c0 6.115 0 12.231.01 18.347a4.732 4.732 0 001.057 2.93c1.487 1.923 2.935 3.87 4.507 5.967H.676c.42-1.077 1.26-1.862 1.915-2.754 4.176-5.681 3.411-3.604 3.43-10.398.025-5.611.022-11.224.042-16.835a4.193 4.193 0 00-.914-2.68C4.034 5.75 2.932 4.283 1.819 2.833c.318-.454.719-.26 1.046-.261 3.406-.018 6.812.026 10.218-.035.966-.017 1.433.27 1.839 1.176 3.06 6.835 6.186 13.64 9.303 20.452.19.406.25.894.762 1.205l5.847-14.58a1554.54 1554.54 0 002.935-7.292c.19-.461.26-.953.97-.953 3.852.025 7.702.011 11.931.011-1.273 1.428-2.287 2.632-3.385 3.77a2.783 2.783 0 00-.806 2.097c.023 8.741.023 17.482 0 26.223 0 .97.328 1.627 1.003 2.273.962.923 1.824 1.948 2.718 2.918H29.236c.896-.97 1.864-2.049 2.87-3.091.393-.406.763-.776.763-1.397 0-7.814 0-15.628-.23-23.503l-11.556 28.78L8.436 12.598l-.251.021zm177.22 27.4h-11.004c-.864 0-.648-.6-.644-1.056.036-3.811.089-7.633.133-11.448.027-2.299.112-4.607-.53-6.85-.415-1.447-1.143-2.638-2.8-2.87-1.702-.238-3.034.457-4.137 1.715-.414.47-.368 1.016-.368 1.563 0 4.785.04 9.57-.029 14.353-.015 1.174.311 2.02 1.214 2.735.631.5 1.176 1.105 2.042 1.932-2.888 0-5.394.033-7.897-.015-1.318-.025-3.074.595-3.83-.265-.65-.737-.216-2.45-.218-3.731 0-5.659-.051-11.317.029-16.976.021-1.447-.294-2.577-1.399-3.524-.612-.522-1.113-1.176-1.851-1.973h11.299c.606 0 .651.322.648.786-.016 1.23 0 2.462.104 3.78 1.893-3.268 4.574-5.08 8.386-4.989 3.923.098 6.242 2.257 7.466 6.025.381-.677.63-1.159.912-1.62a9.165 9.165 0 019.871-4.193c3.097.68 4.717 2.838 5.596 5.693.713 2.32.713 4.717.682 7.11-.038 3.082-.042 6.164-.152 9.242-.035 1.008.175 1.767.989 2.396.72.554 1.368 1.206 2.047 1.816-.048.107-.096.214-.141.32h-6.65c-1.334 0-2.668-.024-4.002.012-.654.017-.99-.08-.974-.877.082-3.955.101-7.91.145-11.864.022-2.116.07-4.237-.45-6.308-.381-1.487-1.037-2.816-2.733-3.122-1.826-.33-3.339.337-4.574 1.679a1.072 1.072 0 00-.3 1.002c.814 4.157.393 8.354.191 12.514-.143 2.9.381 5.21 3.122 6.707l-.193.301zM102.287 1.784c.021 4.365.054 8.731.059 13.096.012 6.67.042 13.34-.028 19.998-.015 1.36.309 2.386 1.376 3.213a5.664 5.664 0 011.605 1.878h-3.353c-2.392 0-4.784-.048-7.174.024-.953.027-1.193-.278-1.128-1.164.058-1 .027-2.005-.093-3-1.352 2.18-3.09 3.776-5.6 4.357-4.153.964-8.431-.793-10.413-4.66-2.836-5.538-2.94-11.264 0-16.802 2.083-3.94 5.624-5.68 10.055-5.527 2.59.09 4.496 1.416 6.078 3.96v-6.245a8.472 8.472 0 010-1.102c.381-2.727-.166-5.081-2.642-6.682-.135-.088-.206-.273-.442-.6l9.575-1.014c.652.577 1.416.2 2.125.27zm-8.624 24.367c0-2.432-.03-4.864.017-7.296.017-.793-.295-1.282-.903-1.715-2.146-1.51-4.927-.888-6.415 1.506-1.57 2.527-1.715 5.38-1.706 8.235.01 2.487.19 4.972 1.494 7.189 1.47 2.49 4.4 3.013 6.614 1.237.606-.488.937-1.03.918-1.868-.055-2.424-.019-4.856-.019-7.288zm38.538 14.077c-2.373-.19-4.003-1.488-5.112-3.492-1.166-2.105-1.507-4.425-1.525-6.79-.011-3.677-.024-7.357.096-11.031.049-1.447-.217-2.606-1.418-3.482-.585-.427-1.128-.913-1.691-1.373.075-.148.147-.297.219-.444h3.208c2.392 0 4.784.044 7.176-.023.922-.024 1.143.261 1.143 1.157-.017 5.194.015 10.39.063 15.583.012 1.385.221 2.756.875 4.002.728 1.393 1.95 1.906 3.467 1.525 1.822-.47 2.946-1.647 2.948-3.133 0-4.874-.051-9.747.036-14.619.025-1.404-.928-2.026-1.681-2.836-.423-.455-1.021-.75-1.542-1.118l.313-.54h2.668c2.478 0 4.973.088 7.45-.036 1.335-.069 1.548.418 1.538 1.61-.055 6.528.016 13.058-.059 19.584-.017 1.454.273 2.574 1.476 3.447.571.418 1.042.986 1.827 1.746h-7.736c-.19 0-.368.011-.551 0-1.223-.082-2.849.528-3.556-.257-.604-.67-.19-2.262-.213-3.448v-1.307c-1.624 2.957-3.641 4.978-6.888 5.294-.835-.545-1.683-.524-2.531-.019zM64.827 13.685c4.207.852 7.083 3.94 7.698 8.289.09.636.142 1.278.158 1.92.046 1.924.037 1.924-1.846 1.924-4.23 0-8.46.045-12.69-.03-1.172-.022-1.452.38-1.261 1.415.091.498.114 1.007.207 1.502.557 2.922 1.83 5.346 4.877 6.276 3.138.953 5.998.32 8.455-1.894.5-.45.936-.967 1.43-1.485.38.572.099 1.02-.062 1.468-1.623 4.543-5.248 7.166-10.143 7.335-8.412.294-13.76-4.858-13.79-13.272-.018-4.304.97-8.213 4.438-11.11a10.248 10.248 0 015.327-2.395c.395.476.682.442.852-.174l.81-.091a4.433 4.433 0 003.621 0l.812.091c.23.72.646.604 1.107.23zm-4.261 10.72h3.164c.42 0 .854.046.838-.59-.063-2.606.067-5.25-1.01-7.708-1-2.287-3.58-2.517-5.06-.503a6.367 6.367 0 00-.922 1.982 18.952 18.952 0 00-.708 4.744c-.106 2.562-.257 2.02 1.906 2.076.603.02 1.197 0 1.792 0zm61.369 15.56c-3.97 0-7.623-.01-11.281 0-.781 0-.587-.532-.589-.953-.007-3.127-.007-6.254 0-9.382 0-3.587-.059-7.176.029-10.761.032-1.351-.265-2.426-1.334-3.272-.637-.505-1.249-1.04-1.872-1.561l.263-.433h8.611c2.992 0 2.992 0 2.992 2.967 0 6.116.052 12.234-.036 18.348-.021 1.476.332 2.566 1.513 3.431.538.41.98.928 1.704 1.616zM114.38.984c2.789-.027 4.708 1.794 4.748 4.502a4.741 4.741 0 01-1.321 3.423 4.745 4.745 0 01-5.205 1.115 4.754 4.754 0 01-2.971-4.416c-.036-2.76 1.85-4.595 4.749-4.624z" fill="#fff"/><path d="M62.912 13.373a4.432 4.432 0 01-3.621 0 8.056 8.056 0 013.62 0zM132.2 40.228c.848-.505 1.691-.526 2.531.02a4.13 4.13 0 01-2.531-.02zM102.288 1.785c-.709-.07-1.474.307-2.118-.27.585-.092 1.168-.21 1.757-.27.382-.038.443.223.361.54zm-37.461 11.9c-.46.381-.87.49-1.103-.23.383-.055.774.027 1.103.23zm-6.35-.231c-.17.616-.457.65-.852.173a.964.964 0 01.852-.173z" fill="#fff"/></svg>