<svg width="268" height="167" viewBox="0 0 268 167" fill="none" xmlns="http://www.w3.org/2000/svg">
<g clip-path="url(#clip0_230_13155)">
<path d="M153.198 161.101C165.698 154.001 175.698 140.101 180.998 122.801H176.698C169.198 146.501 152.798 162.901 133.798 162.901C127.098 162.901 120.698 162.301 114.398 161.101C101.898 154.001 91.8977 140.101 86.5977 122.801H90.8977C98.3977 146.501 114.798 162.901 133.798 162.901C140.498 162.901 146.898 162.301 153.198 161.101Z" fill="#231F20"/>
<path d="M133.799 166.401C172.099 166.401 204.999 148.401 219.399 122.801H211.599C197.999 146.501 168.299 162.901 133.799 162.901C99.2992 162.901 69.5992 146.501 55.9992 122.801H48.1992C62.5992 148.501 95.4992 166.401 133.799 166.401Z" fill="#231F20"/>
<path d="M195.801 139.699C177.301 134.299 156.201 131.199 133.801 131.199C111.401 131.199 90.3008 134.299 71.8008 139.699C72.2008 140.099 72.7008 140.399 73.2008 140.799C91.7008 136.899 112.301 134.799 133.901 134.799C155.501 134.799 176.101 136.999 194.601 140.799C194.901 140.499 195.401 140.099 195.801 139.699Z" fill="#231F20"/>
<path d="M219.399 43.6C204.999 17.9 172.099 0 133.799 0C95.4992 0 62.5992 18 48.1992 43.6H55.9992C69.5992 19.9 99.2992 3.5 133.799 3.5C168.299 3.5 197.999 19.9 211.599 43.6H219.399Z" fill="#231F20"/>
<path d="M180.998 43.6C175.598 26.2 165.598 12.4 153.198 5.3C146.998 4.1 140.498 3.5 133.798 3.5C114.798 3.5 98.3977 19.9 90.8977 43.6H86.5977C91.9977 26.2 101.998 12.4 114.398 5.3C120.598 4.1 127.098 3.5 133.798 3.5C152.798 3.5 169.198 19.9 176.698 43.6H180.998Z" fill="#231F20"/>
<path d="M133.798 35.1996C156.198 35.1996 177.298 32.0996 195.798 26.6996C195.398 26.2996 194.898 25.9996 194.398 25.5996C175.898 29.4996 155.298 31.5996 133.698 31.5996C112.098 31.5996 91.4977 29.3996 72.9977 25.5996C72.4977 25.9996 72.0977 26.2996 71.5977 26.6996C90.2977 32.0996 111.398 35.1996 133.798 35.1996Z" fill="#231F20"/>
<path d="M84.5986 94.3998C81.7986 94.4998 79.5986 96.7998 79.6986 99.5998C79.7986 102.3 82.0986 104.5 84.7986 104.4C87.5986 104.3 89.7986 102 89.6986 99.2998C89.6986 96.4998 87.3986 94.2998 84.5986 94.3998ZM236.999 94.3998C234.199 94.4998 231.999 96.7998 232.099 99.5998C232.199 102.3 234.499 104.5 237.199 104.4C239.999 104.3 242.199 102 242.099 99.2998C242.099 96.4998 239.799 94.2998 236.999 94.3998Z" fill="#CF4013"/>
<path d="M139.7 95.3992C137 96.2992 133.7 96.7992 129.8 96.5992V69.9992C133.7 69.6992 137 70.1992 139.7 70.9992C146.6 73.0992 149.8 78.1992 149.7 83.3992C149.6 88.3992 146.3 93.1992 139.7 95.3992ZM237.7 54.6992L214.5 96.6992H197.8C185.5 96.9992 179.4 90.3992 179 83.3992C178.7 77.7992 182.7 72.8992 189.7 70.8992C192.1 70.2992 194.7 69.9992 197.7 69.9992L213.9 69.7992V56.2992H194.2C177.7 56.2992 165.8 63.8992 164.2 79.4992C162.7 65.7992 153 58.0992 139.5 56.4992C137.8 56.2992 136 56.1992 134.2 56.1992H113.8V107.299L85.3 54.6992L55 109.499L55.2 56.2992H39.8V86.5992L14.8 56.2992H0V109.699H14.8V79.9992L39.8 109.599L55.1 109.699H71.2L84.9 82.6992L98.6 109.699H134.7C136.4 109.699 138.2 109.599 139.8 109.399C153.4 107.799 163 99.8992 164.5 86.9992C166.2 101.599 178 109.699 194.3 109.699H223.7L237.4 82.6992L251 109.699H267.7L237.7 54.6992Z" fill="#116491"/>
<path d="M153.202 161.101C165.702 154.001 175.702 140.101 181.002 122.801H176.702C169.202 146.501 152.802 162.901 133.802 162.901C127.102 162.901 120.702 162.301 114.402 161.101C101.902 154.001 91.9016 140.101 86.6016 122.801H90.9016C98.4016 146.501 114.802 162.901 133.802 162.901C140.502 162.901 146.902 162.301 153.202 161.101Z" fill="#184BBF"/>
<path d="M133.799 166.401C172.099 166.401 204.999 148.401 219.399 122.801H211.599C197.999 146.501 168.299 162.901 133.799 162.901C99.2992 162.901 69.5992 146.501 55.9992 122.801H48.1992C62.5992 148.501 95.4992 166.401 133.799 166.401Z" fill="#184BBF"/>
<path d="M195.801 139.699C177.301 134.299 156.201 131.199 133.801 131.199C111.401 131.199 90.3008 134.299 71.8008 139.699C72.2008 140.099 72.7008 140.399 73.2008 140.799C91.7008 136.899 112.301 134.799 133.901 134.799C155.501 134.799 176.101 136.999 194.601 140.799C194.901 140.499 195.401 140.099 195.801 139.699Z" fill="#184BBF"/>
<path d="M219.399 43.6C204.999 17.9 172.099 0 133.799 0C95.4992 0 62.5992 18 48.1992 43.6H55.9992C69.5992 19.9 99.2992 3.5 133.799 3.5C168.299 3.5 197.999 19.9 211.599 43.6H219.399Z" fill="#184BBF"/>
<path d="M181.002 43.6C175.602 26.2 165.602 12.4 153.202 5.3C147.002 4.1 140.502 3.5 133.802 3.5C114.802 3.5 98.4016 19.9 90.9016 43.6H86.6016C92.0016 26.2 102.002 12.4 114.402 5.3C120.602 4.1 127.102 3.5 133.802 3.5C152.802 3.5 169.202 19.9 176.702 43.6H181.002Z" fill="#184BBF"/>
<path d="M133.802 35.1996C156.202 35.1996 177.302 32.0996 195.802 26.6996C195.402 26.2996 194.902 25.9996 194.402 25.5996C175.902 29.4996 155.302 31.5996 133.702 31.5996C112.102 31.5996 91.5016 29.3996 73.0016 25.5996C72.5016 25.9996 72.1016 26.2996 71.6016 26.6996C90.3016 32.0996 111.402 35.1996 133.802 35.1996Z" fill="#184BBF"/>
<path d="M84.5986 94.3998C81.7986 94.4998 79.5986 96.7998 79.6986 99.5998C79.7986 102.3 82.0986 104.5 84.7986 104.4C87.5986 104.3 89.7986 102 89.6986 99.2998C89.6986 96.4998 87.3986 94.2998 84.5986 94.3998ZM236.999 94.3998C234.199 94.4998 231.999 96.7998 232.099 99.5998C232.199 102.3 234.499 104.5 237.199 104.4C239.999 104.3 242.199 102 242.099 99.2998C242.099 96.4998 239.799 94.2998 236.999 94.3998Z" fill="#CF4013"/>
<path d="M139.7 95.3992C137 96.2992 133.7 96.7992 129.8 96.5992V69.9992C133.7 69.6992 137 70.1992 139.7 70.9992C146.6 73.0992 149.8 78.1992 149.7 83.3992C149.6 88.3992 146.3 93.1992 139.7 95.3992ZM237.7 54.6992L214.5 96.6992H197.8C185.5 96.9992 179.4 90.3992 179 83.3992C178.7 77.7992 182.7 72.8992 189.7 70.8992C192.1 70.2992 194.7 69.9992 197.7 69.9992L213.9 69.7992V56.2992H194.2C177.7 56.2992 165.8 63.8992 164.2 79.4992C162.7 65.7992 153 58.0992 139.5 56.4992C137.8 56.2992 136 56.1992 134.2 56.1992H113.8V107.299L85.3 54.6992L55 109.499L55.2 56.2992H39.8V86.5992L14.8 56.2992H0V109.699H14.8V79.9992L39.8 109.599L55.1 109.699H71.2L84.9 82.6992L98.6 109.699H134.7C136.4 109.699 138.2 109.599 139.8 109.399C153.4 107.799 163 99.8992 164.5 86.9992C166.2 101.599 178 109.699 194.3 109.699H223.7L237.4 82.6992L251 109.699H267.7L237.7 54.6992Z" fill="#3783D7"/>
</g>
<defs>
<clipPath id="clip0_230_13155">
<rect width="267.7" height="166.4" fill="white"/>
</clipPath>
</defs>
</svg>
