<svg width="64" height="65" viewBox="0 0 64 65" fill="none" xmlns="http://www.w3.org/2000/svg">
<path fill-rule="evenodd" clip-rule="evenodd" d="M32.0012 0.5C31.3111 0.5 30.7513 1.05975 30.7513 1.74988V7.10164C30.7513 7.79201 31.3109 8.35152 32.0012 8.35152C32.6914 8.35152 33.2511 7.79176 33.2511 7.10164V1.74988C33.2512 1.05975 32.6914 0.5 32.0012 0.5ZM57.3184 43.0222L53.1466 42.0255V40.5601C55.4509 39.1988 57.0008 36.6906 57.0008 33.8258V28.2949C57.0008 23.9846 53.4939 20.4778 49.1835 20.4778H48.319C46.0176 20.4778 43.9459 21.4779 42.5141 23.0658C41.1275 18.5777 36.9397 15.3073 32.0022 15.3073C27.0647 15.3073 22.8769 18.5774 21.4903 23.0658C20.0586 21.4779 17.9868 20.4778 15.6854 20.4778H14.8209C10.5106 20.4778 7.00354 23.9846 7.00354 28.2949V33.8258C7.00354 36.6905 8.55342 39.1988 10.8577 40.5601V42.0255L6.68592 43.0222C2.75166 43.9622 0.00390625 47.4436 0.00390625 51.4885V55.2512C0.00390625 55.9415 0.563657 56.5011 1.25378 56.5011H11.3491C11.2858 56.9939 11.2532 57.4955 11.2532 58.0036V62.0009H3.75366C3.06341 62.0009 2.50379 62.5606 2.50379 63.2508C2.50379 63.941 3.06354 64.5006 3.75366 64.5006H60.2505C60.9408 64.5006 61.5004 63.9409 61.5004 63.2508C61.5004 62.5605 60.9406 62.0009 60.2505 62.0009H52.751V58.0096C52.751 57.4992 52.7181 56.9957 52.6544 56.5012H62.7504C63.4407 56.5012 64.0003 55.9415 64.0003 55.2514V51.4886C64.0004 47.4436 61.2525 43.9621 57.3184 43.0222ZM43.0017 28.2949C43.0016 25.3629 45.387 22.9776 48.3191 22.9776H49.1836C52.1158 22.9776 54.5011 25.3629 54.5011 28.2949V28.6154C52.6974 28.5934 50.9483 28.0619 49.4359 27.0723C49.0201 26.8001 48.4827 26.8001 48.0671 27.0723C46.5547 28.0621 44.8056 28.5936 43.0019 28.6154V28.2949H43.0017ZM43.0016 32.8063V31.1156C45.0254 31.0961 46.9956 30.5691 48.7512 29.5802C50.5069 30.5692 52.4771 31.0961 54.5009 31.1156V33.826C54.5009 36.7581 52.1155 39.1435 49.1834 39.1435H48.3189C45.3867 39.1435 43.0014 36.7581 43.0014 33.826V32.8063H43.0016ZM45.3989 47.1934C44.891 46.9935 44.3649 46.8251 43.8207 46.6951L39.8482 45.746C40.143 45.6249 40.4476 45.5254 40.7606 45.4504L44.709 44.5041L45.3989 47.1934ZM44.3641 40.565V42.0162L40.178 43.0193C39.2729 43.2362 38.4154 43.5947 37.6332 44.0782V42.2515C39.3465 41.2261 40.7589 39.7483 41.7042 37.9842C42.3716 39.0421 43.2849 39.9292 44.3641 40.565ZM40.5019 32.8063C40.5019 37.493 36.689 41.3058 32.0023 41.3058C27.3157 41.3058 23.5028 37.493 23.5028 32.8063V29.1448H24.8766C28.3857 29.1448 31.729 28.0251 34.4775 25.9916L34.764 26.4197C35.9052 28.1259 37.8125 29.1448 39.8654 29.1448H40.502L40.5019 32.8063ZM23.5026 26.3066C23.5026 21.6201 27.3155 17.8072 32.0021 17.8072C36.6887 17.8072 40.5016 21.6201 40.5016 26.3067V26.6449H39.865C38.6484 26.6449 37.518 26.0412 36.8415 25.0298L36.3792 24.3388C36.754 23.9586 37.113 23.5589 37.453 23.1383C37.887 22.6014 37.8035 21.8144 37.2665 21.3806C36.73 20.9466 35.9427 21.0299 35.5087 21.5671C32.9008 24.7941 29.0256 26.6448 24.8765 26.6448H23.5026V26.3066ZM22.3001 37.9842C23.2476 39.7523 24.6642 41.2328 26.3826 42.2583V44.0852C25.5973 43.5981 24.7358 43.2375 23.8262 43.0195L19.6402 42.0163V40.5651C20.7193 39.9292 21.6326 39.0421 22.3001 37.9842ZM24.1423 45.7405L20.1753 46.6911C19.6346 46.8207 19.1117 46.9881 18.6069 47.1867L19.2953 44.5043L23.2436 45.4506C23.5517 45.5243 23.8518 45.6218 24.1423 45.7405ZM9.50355 28.2949C9.50342 25.3629 11.8888 22.9776 14.8209 22.9776H15.6854C18.6176 22.9776 21.0029 25.3629 21.0029 28.2949V28.6154C19.1992 28.5934 17.4501 28.0619 15.9377 27.0723C15.5219 26.8001 14.9846 26.8001 14.5689 27.0723C13.0566 28.0621 11.3076 28.5936 9.50367 28.6154L9.50355 28.2949ZM9.50342 33.826V31.1156C11.5272 31.0961 13.4974 30.5691 15.2531 29.5802C17.0087 30.5692 18.9789 31.0961 21.0027 31.1156V32.8063V33.826C21.0027 36.7581 18.6173 39.1435 15.6852 39.1435H14.8207C11.8888 39.1435 9.50342 36.7581 9.50342 33.826ZM11.9584 54.0017H2.50379V54.0015V51.4886C2.50379 48.6054 4.46241 46.1236 7.26667 45.4538L11.2023 44.5136L13.0617 51.7614C12.6167 52.4624 12.2458 53.2127 11.9584 54.0017ZM13.3577 41.5038C13.8319 41.5941 14.3207 41.6432 14.8208 41.6432H15.6853C16.1827 41.6432 16.6686 41.5946 17.1403 41.5053V42.8441L15.5741 48.9485C15.3911 49.0959 15.2113 49.247 15.0382 49.4047L13.3577 42.8541V41.5038ZM13.7532 62.001V58.004C13.7532 54.9729 15.2251 52.2432 17.5702 50.571L29.0002 62.001H13.7532ZM19.9059 49.3714C20.1836 49.276 20.4673 49.1917 20.7579 49.1221L26.7275 47.6916L29.6613 59.1268L19.9059 49.3714ZM28.8823 46.0316V43.3546C29.8718 43.6477 30.9187 43.806 32.0021 43.806C33.0896 43.806 34.1403 43.6466 35.1334 43.3512V46.046L32.0098 58.2211L28.8823 46.0316ZM37.2885 47.7049L43.24 49.1266C43.5394 49.1981 43.8312 49.2852 44.117 49.3841L34.3528 59.1484L37.2885 47.7049ZM50.2511 62.001H35.0355L46.4487 50.5876C48.7854 52.2602 50.2511 54.9844 50.2511 58.0098V62.001ZM50.6469 42.8543L48.9651 49.4095C48.7929 49.2526 48.6141 49.1024 48.4321 48.9557L46.8641 42.8443V41.5056C47.3359 41.5948 47.8219 41.6435 48.3191 41.6435H49.1836C49.6839 41.6435 50.1726 41.5943 50.6469 41.5041V42.8543ZM61.5004 54.0015H52.044C51.7566 53.2137 51.386 52.4649 50.9416 51.7649L52.8019 44.5135L56.7375 45.4537C59.5419 46.1236 61.5004 48.6054 61.5004 51.4885V54.0015ZM32.0013 10.1979C32.3301 10.1979 32.6526 10.3318 32.8849 10.5642C33.1176 10.7967 33.2513 11.1179 33.2513 11.4479C33.2513 11.7767 33.1174 12.0979 32.8849 12.3317C32.6526 12.5642 32.3301 12.6979 32.0013 12.6979C31.6726 12.6979 31.3501 12.5642 31.1176 12.3317C30.8849 12.0992 30.7513 11.7767 30.7513 11.4479C30.7513 11.118 30.8851 10.7967 31.1176 10.5642C31.3501 10.3317 31.6712 10.1979 32.0013 10.1979ZM23.6882 10.8479L19.0569 6.21753C18.5687 5.72941 17.7773 5.72966 17.2891 6.21778C16.8011 6.70591 16.8012 7.49728 17.2893 7.98554L21.9209 12.6159C22.1649 12.8599 22.4849 12.9819 22.8046 12.9819C23.1246 12.9819 23.4445 12.8598 23.6886 12.6157C24.1765 12.1277 24.1764 11.3362 23.6882 10.8479ZM45.1325 6.02216C45.621 5.53416 46.4121 5.53441 46.9002 6.02216C47.3884 6.51028 47.3884 7.30178 46.9004 7.78991L41.9868 12.7033C41.7427 12.9473 41.4228 13.0694 41.103 13.0694C40.7831 13.0694 40.4632 12.9474 40.219 12.7033C39.7308 12.215 39.7308 11.4237 40.219 10.9355L45.1325 6.02216Z" fill="url(#paint0_linear_230_13136)"/>
<defs>
<linearGradient id="paint0_linear_230_13136" x1="28.6688" y1="-5.38457" x2="37.0503" y2="71.7008" gradientUnits="userSpaceOnUse">
<stop stop-color="#75B7FF"/>
<stop offset="1" stop-color="#0044E8"/>
</linearGradient>
</defs>
</svg>
