<svg width="24" height="25" viewBox="0 0 24 25" fill="none" xmlns="http://www.w3.org/2000/svg">
<path d="M22 9.49953V15.4995C22 17.9995 21.5 19.7495 20.38 20.8795L14 14.4995L21.73 6.76953C21.91 7.55953 22 8.45953 22 9.49953Z" stroke="#295ACA" stroke-width="1.5" stroke-linecap="round" stroke-linejoin="round"/>
<path d="M21.73 6.77L6.26999 22.23C3.25999 21.54 2 19.46 2 15.5V9.5C2 4.5 4 2.5 9 2.5H15C18.96 2.5 21.04 3.76 21.73 6.77Z" stroke="#295ACA" stroke-width="1.5" stroke-linecap="round" stroke-linejoin="round"/>
<path d="M20.3795 20.88C19.2495 22 17.4995 22.5 14.9995 22.5H8.99954C7.95954 22.5 7.05953 22.41 6.26953 22.23L13.9995 14.5L20.3795 20.88Z" stroke="#295ACA" stroke-width="1.5" stroke-linecap="round" stroke-linejoin="round"/>
<path d="M6.24124 8.4807C6.92124 5.5507 11.3212 5.5507 12.0012 8.4807C12.3912 10.2007 11.3112 11.6607 10.3612 12.5607C9.67123 13.2207 8.58125 13.2207 7.88125 12.5607C6.93125 11.6607 5.84124 10.2007 6.24124 8.4807Z" stroke="#295ACA" stroke-width="1.5"/>
<path d="M9.09607 9.19922H9.10505" stroke="#295ACA" stroke-width="2" stroke-linecap="round" stroke-linejoin="round"/>
</svg>
