<svg width="132" height="132" viewBox="0 0 132 132" fill="none" xmlns="http://www.w3.org/2000/svg">
<path fill-rule="evenodd" clip-rule="evenodd" d="M38 73.7339C38 74.187 38.3673 74.5542 38.8203 74.5542H45.6705C46.1235 74.5542 46.4908 74.187 46.4908 73.7339V70.1343H55.7057C55.7151 70.1346 55.7246 70.1348 55.7341 70.1348C55.7437 70.1348 55.7531 70.1346 55.7626 70.1343H65.9716C65.981 70.1346 65.9905 70.1348 66.0001 70.1348L66.0154 70.1346L66.0285 70.1343H74.681V78.8642L73.1106 80.121C72.7078 80.4436 72.4717 80.9326 72.4717 81.4514V82.1306C72.4717 82.95 73.1354 83.6137 73.9548 83.6137H76.3228C76.7759 83.6137 77.1431 83.2464 77.1431 82.7934C77.1431 82.3404 76.7759 81.9731 76.3228 81.9731H74.1123V81.4514C74.1123 81.432 74.1213 81.4135 74.1363 81.4014L75.7892 80.0787H90.6825L92.3354 81.4014C92.3505 81.4135 92.3594 81.432 92.3594 81.4514V81.9731H80.1509C79.6979 81.9731 79.3306 82.3404 79.3306 82.7934C79.3306 83.2464 79.6979 83.6137 80.1509 83.6137H92.5169C93.3363 83.6137 94 82.95 94 82.1306V81.4514C94 80.9326 93.7639 80.4436 93.3611 80.121L93.3608 80.1207L91.7906 78.8642V67.1046C91.7906 59.3289 85.4864 53.0259 77.7118 53.0259H76.3223V52.0786C76.3223 50.936 75.5817 49.9663 74.5544 49.6233V38.8203C74.5544 38.3673 74.1871 38 73.7341 38C73.281 38 72.9138 38.3673 72.9138 38.8203V49.6233C71.8865 49.9664 71.1461 50.936 71.1461 52.0786V53.0259H63.2514C62.7983 53.0259 62.4311 53.3931 62.4311 53.8462C62.4311 54.2992 62.7983 54.6665 63.2514 54.6665H65.1797V68.4937H56.5544V54.6665H59.4232C59.8763 54.6665 60.2435 54.2992 60.2435 53.8462C60.2435 53.3931 59.8763 53.0259 59.4232 53.0259H56.5545V52.0786C56.5545 50.936 55.814 49.9664 54.7868 49.6233V38.8203C54.7868 38.3673 54.4195 38 53.9665 38C53.5134 38 53.1461 38.3673 53.1461 38.8203V49.6233C52.1188 49.9663 51.3783 50.936 51.3783 52.0786V53.0259H46.4908V49.4275C46.4908 48.9745 46.1235 48.6072 45.6705 48.6072H38.8203C38.3673 48.6072 38 48.9745 38 49.4275V52.28C38 52.733 38.3673 53.1003 38.8203 53.1003C39.2734 53.1003 39.6406 52.733 39.6406 52.28V50.2478H44.8502V53.8356L44.8501 53.8462V69.314L44.8502 69.3246V72.9136H39.6406V56.1081C39.6406 55.6551 39.2734 55.2878 38.8203 55.2878C38.3673 55.2878 38 55.6551 38 56.1081V73.7339ZM54.9138 68.4937H46.4908V54.6665H52.1769L52.1986 54.6668H54.9138V68.4937ZM74.6816 68.4937H66.8204V54.6665H71.9447L71.9664 54.6668H74.6816V68.4937ZM74.6816 52.0786V53.0259H72.7867V52.0786C72.7867 51.5571 73.2081 51.134 73.7289 51.1312L73.7341 51.1312L73.7392 51.1312C74.2603 51.134 74.6816 51.5571 74.6816 52.0786ZM54.9139 52.0786V53.0259H53.0189V52.0786C53.0189 51.5565 53.4413 51.1331 53.9629 51.1312L53.9665 51.1312L53.9699 51.1312C54.4916 51.1331 54.9139 51.5566 54.9139 52.0786ZM90.15 78.4381H76.3217V70.1348H90.15V78.4381ZM78.3763 68.4942H90.15V67.1046C90.15 65.2419 89.7405 63.4749 89.0066 61.8886L78.3763 68.4942ZM88.2194 60.4462L78.0527 66.7637L84.3701 56.597C85.9191 57.5806 87.2358 58.8973 88.2194 60.4462ZM82.9277 55.8098L76.3222 66.4401V54.6665H77.7118C79.5744 54.6665 81.3414 55.076 82.9277 55.8098ZM89.6967 93.9999C90.1271 93.9999 90.4802 93.6684 90.5143 93.2467L89.7631 86.262C89.7395 86.283 89.6999 86.3165 89.6363 86.3658L89.6067 86.3884C89.3956 86.5497 88.8764 86.9463 88.8764 87.699C88.8764 88.4517 89.3955 88.8483 89.6066 89.0097L89.6362 89.0324L89.6632 89.0535L89.6826 89.0689C89.6688 89.0799 89.6534 89.0921 89.6363 89.1053L89.6067 89.128C89.3956 89.2893 88.8764 89.6859 88.8764 90.4386C88.8764 91.1913 89.3953 91.588 89.6065 91.7495L89.6361 91.7722C89.6535 91.7856 89.669 91.7979 89.683 91.8091L89.6508 91.8346L89.6361 91.8461L89.6065 91.8688C89.3953 92.0302 88.8764 92.4269 88.8764 93.1796C88.8764 93.6327 89.2436 93.9999 89.6967 93.9999ZM83.6954 93.2467C83.6613 93.6684 83.3083 93.9999 82.8778 93.9999C82.4248 93.9999 82.0575 93.6327 82.0575 93.1796C82.0575 92.4269 82.5764 92.0302 82.7876 91.8688L82.8171 91.8461C82.8345 91.8326 82.8501 91.8203 82.8641 91.8091C82.8501 91.7979 82.8345 91.7856 82.8171 91.7721L82.7876 91.7494C82.5764 91.588 82.0575 91.1913 82.0575 90.4386C82.0575 89.6859 82.5767 89.2893 82.7878 89.128L82.8173 89.1053C82.8345 89.0921 82.8499 89.0799 82.8637 89.0689C82.8498 89.0578 82.8344 89.0457 82.8172 89.0324L82.7877 89.0097C82.5765 88.8483 82.0575 88.4517 82.0575 87.699C82.0575 86.9463 82.5767 86.5497 82.7878 86.3885L82.8174 86.3658C82.8809 86.3166 82.9205 86.283 82.9441 86.2621L83.6954 93.2467ZM76.0587 93.9999C76.4891 93.9999 76.8422 93.6684 76.8763 93.2467L76.125 86.262C76.1014 86.283 76.0618 86.3165 75.9983 86.3658L75.9687 86.3884C75.7576 86.5497 75.2383 86.9463 75.2383 87.699C75.2383 88.4517 75.7574 88.8483 75.9686 89.0097L75.9982 89.0324C76.0153 89.0457 76.0307 89.0578 76.0445 89.0689C76.0308 89.0799 76.0154 89.0921 75.9983 89.1053L75.9687 89.128C75.7576 89.2893 75.2383 89.6859 75.2383 90.4386C75.2383 91.1913 75.7573 91.588 75.9685 91.7495L75.998 91.7722C76.0154 91.7856 76.031 91.7979 76.045 91.8091C76.0359 91.8164 76.0262 91.8241 76.0157 91.8324C76.01 91.8368 76.0042 91.8414 75.9981 91.8461L75.9685 91.8688C75.7573 92.0302 75.2383 92.4269 75.2383 93.1796C75.2383 93.6327 75.6056 93.9999 76.0587 93.9999Z" fill="url(#paint0_linear_2636_116)"/>
<path fill-rule="evenodd" clip-rule="evenodd" d="M66 12C36.1766 12 12 36.1766 12 66C12 95.8234 36.1766 120 66 120C95.8234 120 120 95.8234 120 66C120 36.1766 95.8234 12 66 12ZM0 66C0 29.5492 29.5492 0 66 0C102.451 0 132 29.5492 132 66C132 102.451 102.451 132 66 132C29.5492 132 0 102.451 0 66Z" fill="url(#paint1_linear_2636_116)"/>
<defs>
<linearGradient id="paint0_linear_2636_116" x1="63.0832" y1="32.8511" x2="70.4165" y2="100.3" gradientUnits="userSpaceOnUse">
<stop stop-color="#75B7FF"/>
<stop offset="1" stop-color="#0044E8"/>
</linearGradient>
<linearGradient id="paint1_linear_2636_116" x1="59.1248" y1="-12.1368" x2="76.4103" y2="146.851" gradientUnits="userSpaceOnUse">
<stop stop-color="#75B7FF"/>
<stop offset="1" stop-color="#0044E8"/>
</linearGradient>
</defs>
</svg>
