<svg width="56" height="56" viewBox="0 0 56 56" fill="none" xmlns="http://www.w3.org/2000/svg">
<path fill-rule="evenodd" clip-rule="evenodd" d="M0 47.2782C0 52.0882 3.9119 56.0001 8.72191 56.0001H47.2781C52.0881 56.0001 56 52.0882 56 47.2782V8.72191C56 3.9119 52.0881 0 47.2781 0H8.72191C3.9119 0 0 3.9119 0 8.72191V47.2782ZM8.72191 54.3595C4.81799 54.3595 1.64063 51.1821 1.64063 47.2782V8.72191C1.64063 4.81799 4.81799 1.64063 8.72191 1.64063H47.2781C51.182 1.64063 54.3594 4.81799 54.3594 8.72191V47.2782C54.3594 51.1821 51.182 54.3595 47.2781 54.3595H8.72191ZM3.89473 47.278C3.89473 49.9441 6.05586 52.1052 8.7219 52.1052H47.2781C49.944 52.1052 52.1052 49.9441 52.1052 47.278V8.72186C52.1052 6.05591 49.944 3.89481 47.2781 3.89481H8.7219C6.05587 3.89481 3.89473 6.05592 3.89473 8.72186V11.2075C3.89473 11.6606 4.262 12.0278 4.71504 12.0278C5.16809 12.0278 5.53536 11.6606 5.53536 11.2075V8.72186C5.53536 6.96204 6.96194 5.53544 8.7219 5.53544H47.2781C49.0379 5.53544 50.4646 6.96206 50.4646 8.72186V47.278C50.4646 49.038 49.0379 50.4646 47.2781 50.4646H8.7219C6.96195 50.4646 5.53536 49.038 5.53536 47.278V15.0425C5.53536 14.5895 5.16809 14.2222 4.71504 14.2222C4.262 14.2222 3.89473 14.5895 3.89473 15.0425V47.278ZM28.0073 48.4117C23.2192 48.4117 18.8185 46.7435 15.3577 43.9575C15.0048 43.6734 14.9491 43.157 15.2332 42.8041C15.5173 42.4512 16.0336 42.3954 16.3865 42.6795C19.5664 45.2394 23.6069 46.771 28.0073 46.771C38.2499 46.771 46.5529 38.4679 46.5529 28.2255C46.5529 23.8249 45.0213 19.7844 42.4615 16.6046C42.1774 16.2517 42.2331 15.7353 42.586 15.4512C42.9389 15.1671 43.4553 15.2229 43.7394 15.5758C46.5254 19.0366 48.1935 23.4373 48.1935 28.2255C48.1935 39.374 39.156 48.4117 28.0073 48.4117ZM13.6619 41.2606C14.0096 40.9702 14.0561 40.4529 13.7657 40.1052C11.0783 36.8871 9.46181 32.7461 9.46181 28.2253C9.46181 17.9829 17.7649 9.67979 28.0074 9.67979C32.5281 9.67979 36.6691 11.2963 39.8872 13.9837C40.235 14.2741 40.7523 14.2276 41.0427 13.8798C41.3331 13.5321 41.2866 13.0148 40.9388 12.7244C37.4367 9.79976 32.9266 8.03916 28.0074 8.03916C16.8588 8.03916 7.82118 17.0768 7.82118 28.2253C7.82118 33.1445 9.58179 37.6547 12.5064 41.1568C12.7968 41.5045 13.3141 41.551 13.6619 41.2606ZM45.6275 49.5471C43.8456 49.5471 42.4009 48.1025 42.4009 46.3206C42.4009 44.5386 43.8456 43.094 45.6275 43.094C47.4093 43.094 48.8541 44.5386 48.8541 46.3206C48.8541 48.1025 47.4093 49.5471 45.6275 49.5471ZM44.0416 46.3206C44.0416 47.1964 44.7517 47.9065 45.6275 47.9065C46.5033 47.9065 47.2135 47.1964 47.2135 46.3206C47.2135 45.4447 46.5033 44.7346 45.6275 44.7346C44.7517 44.7346 44.0416 45.4447 44.0416 46.3206ZM28.397 32.6539C28.3944 32.6667 28.3914 32.6795 28.3881 32.6923C27.9653 34.3391 27.0573 35.9788 25.9475 37.3419C24.8413 38.7006 23.484 39.8466 22.1119 40.4474C20.1523 41.3054 18.0842 41.0248 16.3312 40.0697C14.5862 39.1189 13.1152 37.4854 12.2627 35.5385C11.0987 32.8803 11.1606 29.7176 12.5264 27.4573L12.5265 27.4571C13.2065 26.3319 14.154 25.4883 15.3352 24.9712C16.0581 24.6546 16.7174 24.7036 17.3061 24.9608C17.8115 25.1816 18.2607 25.5587 18.6258 25.865L18.6258 25.8651L18.6258 25.8651L18.6681 25.9006C19.7748 26.8286 20.6878 27.3597 21.5224 27.637C22.1121 27.8329 22.6878 27.9105 23.2987 27.8936C23.3071 27.2874 23.4301 26.7089 23.647 26.1788C22.5278 25.167 21.576 23.8547 20.8792 22.487C20.0839 20.9258 19.5848 19.221 19.5902 17.7232C19.5979 15.584 20.6909 13.806 22.2734 12.589C23.8486 11.3775 25.9374 10.6929 28.0629 10.7005C30.9647 10.711 33.8322 12.0466 35.3471 14.2098L35.3473 14.21C36.1013 15.287 36.4896 16.4946 36.485 17.7841C36.4821 18.5733 36.1706 19.1564 35.6974 19.5908C35.291 19.9637 34.7645 20.2221 34.3366 20.4321L34.2871 20.4564C32.9908 21.0933 32.1358 21.7135 31.5447 22.3647C31.1003 22.8543 30.7848 23.3835 30.548 23.995C31.1105 24.3561 31.5911 24.8336 31.9558 25.3934C33.4224 25.0604 35.0371 25.0345 36.5517 25.2476C38.2867 25.4916 39.9694 26.0607 41.1933 26.9244C42.9411 28.1578 43.7705 30.0729 43.8596 32.0673C43.9483 34.0525 43.311 36.1563 42.0855 37.8928C40.4123 40.2638 37.6734 41.8465 35.0325 41.8465H35.0323C33.7176 41.8464 32.5056 41.4717 31.4521 40.7282C30.8073 40.2732 30.5082 39.6835 30.424 39.0467C30.3516 38.4999 30.4419 37.9204 30.5154 37.4495L30.5239 37.395C30.7458 35.9678 30.7282 34.9117 30.5339 34.054C30.3896 33.4173 30.1417 32.8614 29.784 32.3231C29.3502 32.5 28.8841 32.614 28.397 32.6539ZM29.5921 30.5888C29.1295 30.8683 28.5872 31.0292 28.0074 31.0292C26.3127 31.0292 24.9388 29.6553 24.9388 27.9607C24.9388 26.2659 26.3127 24.8921 28.0074 24.8921C29.2356 24.8921 30.2954 25.6138 30.7857 26.6563C30.7949 26.6791 30.805 26.7013 30.816 26.7229C30.9831 27.1015 31.0759 27.5202 31.0759 27.9607C31.0759 29.0634 30.4941 30.0303 29.6208 30.5712C29.6112 30.5769 29.6016 30.5827 29.5921 30.5888ZM31.1721 31.4479C31.6142 32.1206 31.943 32.8484 32.134 33.6915C32.3886 34.8155 32.3866 36.0931 32.145 37.647C32.0603 38.192 32.0123 38.5439 32.0504 38.8314C32.0794 39.0502 32.1553 39.2164 32.3981 39.3878C33.165 39.929 34.0441 40.2058 35.0323 40.2059H35.0325C37.0543 40.2059 39.3261 38.9575 40.745 36.9469C41.7746 35.4879 42.292 33.739 42.2206 32.1405C42.1496 30.5512 41.5039 29.1516 40.2473 28.2648C39.2977 27.5947 37.8857 27.092 36.3232 26.8722C35.0698 26.6959 33.7708 26.7089 32.6042 26.9336C32.6777 27.2642 32.7165 27.6079 32.7165 27.9607C32.7165 29.3431 32.1208 30.5864 31.1721 31.4479ZM29.0333 23.3636C28.703 23.2902 28.3597 23.2515 28.0074 23.2515C26.6371 23.2515 25.4035 23.8368 24.5429 24.771C23.6822 23.9417 22.9197 22.8781 22.3411 21.7422C21.6248 20.3362 21.2266 18.8913 21.2308 17.7291C21.2363 16.1911 22.0124 14.8594 23.2736 13.8895C24.5419 12.9141 26.2712 12.3347 28.0569 12.3411C30.5178 12.35 32.8435 13.4948 34.0033 15.1509L34.0034 15.1511C34.5702 15.9606 34.8477 16.8394 34.8443 17.7781C34.8433 18.0752 34.7506 18.2328 34.588 18.382C34.3744 18.5782 34.0586 18.7407 33.5636 18.9839C32.1522 19.6774 31.1045 20.4087 30.3299 21.262C29.7419 21.9097 29.3317 22.6052 29.0333 23.3636ZM23.5641 29.5244C22.7111 29.572 21.8735 29.4824 21.0051 29.1939C19.9114 28.8305 18.8189 28.1681 17.614 27.1577C17.1913 26.8034 16.915 26.5803 16.6492 26.4642C16.447 26.3758 16.2654 26.3549 15.9932 26.474C15.1333 26.8505 14.4418 27.4598 13.9307 28.3056L13.9305 28.3057C12.8849 30.0361 12.7785 32.6261 13.7655 34.8804C14.4818 36.5162 15.7111 37.8635 17.1161 38.629C18.5131 39.3902 20.045 39.5614 21.4538 38.9445C22.5184 38.4783 23.6789 37.5298 24.6752 36.3061C25.6164 35.15 26.3656 33.8037 26.741 32.4976C25.2587 32.0847 24.071 30.9649 23.5641 29.5244Z" fill="url(#paint0_linear_230_6641)"/>
<defs>
<linearGradient id="paint0_linear_230_6641" x1="25.0832" y1="-5.14896" x2="32.4165" y2="62.3003" gradientUnits="userSpaceOnUse">
<stop stop-color="#75B7FF"/>
<stop offset="1" stop-color="#0044E8"/>
</linearGradient>
</defs>
</svg>
