<svg width="132" height="132" viewBox="0 0 132 132" fill="none" xmlns="http://www.w3.org/2000/svg">
<path fill-rule="evenodd" clip-rule="evenodd" d="M66 12C36.1766 12 12 36.1766 12 66C12 95.8234 36.1766 120 66 120C95.8234 120 120 95.8234 120 66C120 36.1766 95.8234 12 66 12ZM0 66C0 29.5492 29.5492 0 66 0C102.451 0 132 29.5492 132 66C132 102.451 102.451 132 66 132C29.5492 132 0 102.451 0 66Z" fill="#F3F6FA"/>
<path fill-rule="evenodd" clip-rule="evenodd" d="M66 12C36.1766 12 12 36.1766 12 66C12 95.8234 36.1766 120 66 120C95.8234 120 120 95.8234 120 66C120 51.7279 114.471 38.7603 105.427 29.1009C103.162 26.682 103.287 22.885 105.706 20.6202C108.125 18.3553 111.922 18.4802 114.186 20.8991C125.23 32.6937 132 48.5629 132 66C132 102.451 102.451 132 66 132C29.5492 132 0 102.451 0 66C0 29.5492 29.5492 0 66 0C69.3137 0 72 2.68629 72 6C72 9.31371 69.3137 12 66 12Z" fill="url(#paint0_linear_2636_179)"/>
<path fill-rule="evenodd" clip-rule="evenodd" d="M80.2224 45.6511C83.9953 49.424 86.1175 54.5394 86.1235 59.875C86.1169 64.5853 84.4607 69.1445 81.4424 72.7608C78.4242 76.377 74.2346 78.8218 69.6014 79.6706L70.2396 83.5C70.6694 83.481 71.0973 83.5678 71.4858 83.7526C71.8743 83.9374 72.2115 84.2147 72.4679 84.5602C72.7243 84.9057 72.892 85.3087 72.9564 85.7341C73.0208 86.1595 72.9799 86.5941 72.8373 87H74.7485C75.2988 87.0019 75.8346 87.177 76.2798 87.5005C76.725 87.824 77.0569 88.2796 77.2286 88.8024C78.0355 88.8088 78.8217 88.5469 79.4636 88.0579C79.8882 87.7161 80.234 87.2867 80.4773 86.799C80.7207 86.3113 80.8558 85.7768 80.8735 85.2321C80.8841 85.002 80.9826 84.7849 81.1487 84.6254C81.3148 84.4659 81.5358 84.3763 81.766 84.375C81.9981 84.3798 82.2188 84.4766 82.3796 84.644C82.5403 84.8114 82.6281 85.0359 82.6235 85.2679C82.5963 86.0732 82.3954 86.863 82.0347 87.5835C81.674 88.3039 81.1619 88.9379 80.5334 89.4421C79.5751 90.1727 78.4008 90.5635 77.1958 90.5529C77.0081 91.0506 76.6735 91.4794 76.2364 91.7825C75.7993 92.0856 75.2804 92.2486 74.7485 92.25H57.2486C56.5575 92.2422 55.8974 91.9623 55.4114 91.4708C54.9255 90.9794 54.6529 90.3162 54.6529 89.625C54.6529 88.9339 54.9254 88.2707 55.4114 87.7792C55.8973 87.2878 56.5574 87.0078 57.2485 87H59.1598C59.0171 86.5941 58.9762 86.1595 59.0406 85.7341C59.105 85.3087 59.2727 84.9056 59.5291 84.5602C59.7855 84.2147 60.1227 83.9374 60.5112 83.7526C60.8997 83.5677 61.3276 83.481 61.7574 83.5L62.3956 79.6706C38.5707 74.6974 41.4523 40.4675 65.9985 39.75C71.3342 39.756 76.4495 41.8782 80.2224 45.6511ZM53.0115 46.888C49.5668 50.3328 47.629 55.0033 47.6235 59.875C47.6291 64.7466 49.5667 69.4171 53.0115 72.8619C56.4562 76.3067 61.1267 78.2444 65.9984 78.25C90.3683 77.2443 90.3754 42.5094 65.9985 41.5C61.1269 41.5055 56.4563 43.4432 53.0115 46.888ZM75.367 90.2435C75.531 90.0794 75.6233 89.857 75.6235 89.625C75.6233 89.393 75.531 89.1706 75.367 89.0065C75.2029 88.8425 74.9805 88.7502 74.7485 88.75H57.2485C57.0164 88.75 56.7939 88.8422 56.6298 89.0063C56.4657 89.1704 56.3735 89.3929 56.3735 89.625C56.3735 89.8571 56.4657 90.0796 56.6298 90.2437C56.7939 90.4078 57.0164 90.5 57.2485 90.5H74.7485C74.9805 90.4998 75.2029 90.4075 75.367 90.2435ZM70.992 86.7435C71.156 86.5794 71.2483 86.357 71.2485 86.125C71.2483 85.893 71.156 85.6706 70.992 85.5065C70.8279 85.3425 70.6055 85.2502 70.3735 85.25H61.6235C61.3914 85.25 61.1689 85.3422 61.0048 85.5063C60.8407 85.6704 60.7485 85.8929 60.7485 86.125C60.7485 86.3571 60.8407 86.5796 61.0048 86.7437C61.1689 86.9078 61.3914 87 61.6235 87H70.3735C70.6055 86.9998 70.8279 86.9075 70.992 86.7435ZM68.4654 83.5L67.8822 80H64.1148L63.5316 83.5H68.4654ZM66.875 64.1616V75.625C66.875 75.7399 66.8524 75.8537 66.8085 75.9599C66.7645 76.066 66.7001 76.1625 66.6188 76.2437C66.5376 76.325 66.4411 76.3895 66.335 76.4334C66.2288 76.4774 66.115 76.5 66.0001 76.5C60.2977 76.3377 59.009 66.5669 63.4327 63.4003C62.5494 62.762 61.9363 61.8168 61.7134 60.75H50.25C50.1351 60.75 50.0213 60.7274 49.9151 60.6835C49.809 60.6395 49.7125 60.5751 49.6313 60.4938C49.55 60.4126 49.4855 60.3161 49.4416 60.21C49.3976 60.1038 49.375 59.99 49.375 59.8751C49.5373 54.1724 59.3086 52.8843 62.4747 57.3078C63.113 56.4244 64.0582 55.8113 65.125 55.5884V44.125C65.125 44.0101 65.1476 43.8963 65.1915 43.7901C65.2355 43.684 65.2999 43.5875 65.3812 43.5063C65.4624 43.425 65.5589 43.3605 65.665 43.3166C65.7712 43.2726 65.885 43.25 65.9999 43.25C71.7026 43.4123 72.9907 53.1836 68.5672 56.3497C69.4506 56.988 70.0637 57.9332 70.2866 59H81.75C81.8649 59 81.9787 59.0226 82.0849 59.0665C82.191 59.1105 82.2875 59.1749 82.3687 59.2562C82.45 59.3374 82.5144 59.4339 82.5584 59.54C82.6024 59.6462 82.625 59.76 82.625 59.8749C82.4627 65.5776 72.6914 66.8657 69.5253 62.4422C68.887 63.3256 67.9418 63.9387 66.875 64.1616ZM80.7015 60.75C79.3131 64.2045 71.9348 64.2019 70.5485 60.75H80.7015ZM66.875 45.1735C70.3294 46.5614 70.3268 53.9407 66.875 55.3265V45.1735ZM51.2985 59C52.6869 55.5455 60.0652 55.5481 61.4515 59H51.2985ZM64.1542 58.0379C63.6628 58.5238 63.3828 59.1839 63.375 59.875C63.3828 60.5661 63.6627 61.2262 64.1542 61.7122C64.6456 62.1981 65.3088 62.4707 66 62.4707C66.6911 62.4707 67.3543 62.1981 67.8458 61.7122C68.3372 61.2263 68.6172 60.5662 68.625 59.8751C68.6172 59.184 68.3373 58.5239 67.8458 58.0379C67.3544 57.552 66.6912 57.2794 66 57.2794C65.3089 57.2794 64.6457 57.5519 64.1542 58.0379ZM65.125 74.5765C61.6706 73.1886 61.6732 65.8093 65.125 64.4235V74.5765ZM72.5633 48.5048C74.0713 49.3805 75.3911 50.5459 76.4466 51.934C77.502 53.3221 78.2723 54.9054 78.7131 56.5926C78.7735 56.8144 78.9188 57.0035 79.1175 57.119C79.3163 57.2346 79.5525 57.2673 79.7752 57.21C79.9978 57.1527 80.189 57.0101 80.3073 56.813C80.4257 56.6159 80.4617 56.3802 80.4075 56.1567C79.9086 54.2445 79.036 52.45 77.84 50.8768C76.644 49.3036 75.1483 47.9828 73.4392 46.9906C73.2386 46.8782 73.0018 46.8492 72.78 46.9101C72.5583 46.9709 72.3694 47.1166 72.2543 47.3156C72.1391 47.5147 72.107 47.7511 72.1648 47.9736C72.2227 48.1962 72.3658 48.387 72.5633 48.5048ZM54.097 53.7196C53.8728 53.7794 53.6341 53.7478 53.4333 53.6317C53.3338 53.5742 53.2466 53.4977 53.1766 53.4065C53.1067 53.3153 53.0554 53.2112 53.0258 53.1002C52.9961 52.9891 52.9886 52.8734 53.0037 52.7594C53.0188 52.6455 53.0561 52.5357 53.1137 52.4362C54.1062 50.7274 55.4271 49.2318 57.0003 48.0359C58.5734 46.8399 60.3678 45.9671 62.2798 45.4679C62.5033 45.4139 62.739 45.4499 62.9361 45.5683C63.1332 45.6866 63.2758 45.8778 63.3332 46.1004C63.3905 46.323 63.358 46.5593 63.2426 46.7581C63.1272 46.957 62.9382 47.1025 62.7165 47.1632C61.0292 47.6036 59.4458 48.3738 58.0577 49.4293C56.6695 50.4848 55.5042 51.8048 54.6287 53.3129C54.5124 53.5136 54.3211 53.6599 54.097 53.7196ZM59.4391 71.2445C57.9311 70.3688 56.6114 69.2034 55.5559 67.8153C54.5004 66.4272 53.7301 64.8439 53.2894 63.1567C53.2289 62.9349 53.0837 62.7458 52.8849 62.6302C52.6862 62.5147 52.4499 62.482 52.2273 62.5393C52.0046 62.5966 51.8135 62.7392 51.6951 62.9363C51.5768 63.1334 51.5408 63.3691 51.5949 63.5926C52.0938 65.5048 52.9665 67.2993 54.1625 68.8725C55.3585 70.4457 56.8542 71.7665 58.5633 72.7587C58.7639 72.8711 59.0006 72.9001 59.2224 72.8392C59.4442 72.7784 59.633 72.6327 59.7482 72.4337C59.8633 72.2346 59.8954 71.9982 59.8376 71.7757C59.7798 71.5531 59.6366 71.3623 59.4391 71.2445ZM78.2406 66.0077C78.3545 66.0229 78.4643 66.0603 78.5637 66.118C78.6632 66.1755 78.7505 66.252 78.8204 66.3432C78.8903 66.4344 78.9416 66.5385 78.9713 66.6495C79.0009 66.7605 79.0084 66.8763 78.9934 66.9902C78.9783 67.1042 78.9409 67.214 78.8833 67.3135C77.8908 69.0223 76.5699 70.5178 74.9968 71.7138C73.4236 72.9098 71.6293 73.7825 69.7172 74.2818C69.4938 74.3356 69.2582 74.2995 69.0612 74.1811C68.8642 74.0627 68.7217 73.8716 68.6644 73.6491C68.6071 73.4266 68.6396 73.1904 68.7548 72.9916C68.8701 72.7928 69.0589 72.6473 69.2805 72.5865C70.9678 72.146 72.5512 71.3758 73.9393 70.3203C75.3275 69.2648 76.4929 67.9449 77.3683 66.4367C77.4258 66.3372 77.5023 66.2501 77.5936 66.1802C77.6848 66.1103 77.7889 66.0591 77.8999 66.0295C78.011 65.9999 78.1267 65.9925 78.2406 66.0077Z" fill="url(#paint1_linear_2636_179)"/>
<defs>
<linearGradient id="paint0_linear_2636_179" x1="59.1248" y1="-12.1368" x2="76.4103" y2="146.851" gradientUnits="userSpaceOnUse">
<stop stop-color="#75B7FF"/>
<stop offset="1" stop-color="#0044E8"/>
</linearGradient>
<linearGradient id="paint1_linear_2636_179" x1="63.959" y1="34.9229" x2="72.8753" y2="97.6362" gradientUnits="userSpaceOnUse">
<stop stop-color="#75B7FF"/>
<stop offset="1" stop-color="#0044E8"/>
</linearGradient>
</defs>
</svg>
