<svg width="56" height="56" viewBox="0 0 56 56" fill="none" xmlns="http://www.w3.org/2000/svg">
<path fill-rule="evenodd" clip-rule="evenodd" d="M42.2224 7.6511C45.9953 11.424 48.1175 16.5394 48.1235 21.875C48.1169 26.5853 46.4607 31.1445 43.4424 34.7608C40.4242 38.377 36.2346 40.8218 31.6014 41.6706L32.2396 45.5C32.6694 45.481 33.0973 45.5678 33.4858 45.7526C33.8743 45.9374 34.2115 46.2147 34.4679 46.5602C34.7243 46.9057 34.892 47.3087 34.9564 47.7341C35.0208 48.1595 34.9799 48.5941 34.8373 49H36.7485C37.2988 49.0019 37.8346 49.177 38.2798 49.5005C38.725 49.824 39.0569 50.2796 39.2286 50.8024C40.0355 50.8088 40.8217 50.5469 41.4636 50.0579C41.8882 49.7161 42.234 49.2867 42.4773 48.799C42.7207 48.3113 42.8558 47.7768 42.8735 47.2321C42.8841 47.002 42.9826 46.7849 43.1487 46.6254C43.3148 46.4659 43.5358 46.3763 43.766 46.375C43.9981 46.3798 44.2188 46.4766 44.3796 46.644C44.5403 46.8114 44.6281 47.0359 44.6235 47.2679C44.5963 48.0732 44.3954 48.863 44.0347 49.5835C43.674 50.3039 43.1619 50.9379 42.5334 51.4421C41.5751 52.1727 40.4008 52.5635 39.1958 52.5529C39.0081 53.0506 38.6735 53.4794 38.2364 53.7825C37.7993 54.0856 37.2804 54.2486 36.7485 54.25H19.2486C18.5575 54.2422 17.8974 53.9623 17.4114 53.4708C16.9255 52.9794 16.6529 52.3162 16.6529 51.625C16.6529 50.9339 16.9254 50.2707 17.4114 49.7792C17.8973 49.2878 18.5574 49.0078 19.2485 49H21.1598C21.0171 48.5941 20.9762 48.1595 21.0406 47.7341C21.105 47.3087 21.2727 46.9056 21.5291 46.5602C21.7855 46.2147 22.1227 45.9374 22.5112 45.7526C22.8997 45.5677 23.3276 45.481 23.7574 45.5L24.3956 41.6706C0.570685 36.6974 3.45226 2.4675 27.9985 1.75C33.3342 1.75599 38.4495 3.87822 42.2224 7.6511ZM15.0115 8.88803C11.5668 12.3328 9.62905 17.0033 9.62351 21.875C9.62906 26.7466 11.5667 31.4171 15.0115 34.8619C18.4562 38.3067 23.1267 40.2444 27.9984 40.25C52.3683 39.2443 52.3754 4.50943 27.9985 3.5C23.1269 3.50554 18.4563 5.44324 15.0115 8.88803ZM37.367 52.2435C37.531 52.0794 37.6233 51.857 37.6235 51.625C37.6233 51.393 37.531 51.1706 37.367 51.0065C37.2029 50.8425 36.9805 50.7502 36.7485 50.75H19.2485C19.0164 50.75 18.7939 50.8422 18.6298 51.0063C18.4657 51.1704 18.3735 51.3929 18.3735 51.625C18.3735 51.8571 18.4657 52.0796 18.6298 52.2437C18.7939 52.4078 19.0164 52.5 19.2485 52.5H36.7485C36.9805 52.4998 37.2029 52.4075 37.367 52.2435ZM32.992 48.7435C33.156 48.5794 33.2483 48.357 33.2485 48.125C33.2483 47.893 33.156 47.6706 32.992 47.5065C32.8279 47.3425 32.6055 47.2502 32.3735 47.25H23.6235C23.3914 47.25 23.1689 47.3422 23.0048 47.5063C22.8407 47.6704 22.7485 47.8929 22.7485 48.125C22.7485 48.3571 22.8407 48.5796 23.0048 48.7437C23.1689 48.9078 23.3914 49 23.6235 49H32.3735C32.6055 48.9998 32.8279 48.9075 32.992 48.7435ZM30.4654 45.5L29.8822 42H26.1148L25.5316 45.5H30.4654ZM28.875 26.1616V37.625C28.875 37.7399 28.8524 37.8537 28.8085 37.9599C28.7645 38.066 28.7001 38.1625 28.6188 38.2437C28.5376 38.325 28.4411 38.3895 28.335 38.4334C28.2288 38.4774 28.115 38.5 28.0001 38.5C22.2977 38.3377 21.009 28.5669 25.4327 25.4003C24.5494 24.762 23.9363 23.8168 23.7134 22.75H12.25C12.1351 22.75 12.0213 22.7274 11.9151 22.6835C11.809 22.6395 11.7125 22.5751 11.6313 22.4938C11.55 22.4126 11.4855 22.3161 11.4416 22.21C11.3976 22.1038 11.375 21.99 11.375 21.8751C11.5373 16.1724 21.3086 14.8843 24.4747 19.3078C25.113 18.4244 26.0582 17.8113 27.125 17.5884V6.125C27.125 6.0101 27.1476 5.89631 27.1915 5.79014C27.2355 5.68398 27.2999 5.58751 27.3812 5.50626C27.4624 5.425 27.5589 5.36055 27.665 5.31658C27.7712 5.27261 27.885 5.24999 27.9999 5.25C33.7026 5.41226 34.9907 15.1836 30.5672 18.3497C31.4506 18.988 32.0637 19.9332 32.2866 21H43.75C43.8649 21 43.9787 21.0226 44.0849 21.0665C44.191 21.1105 44.2875 21.1749 44.3687 21.2562C44.45 21.3374 44.5145 21.4339 44.5584 21.54C44.6024 21.6462 44.625 21.76 44.625 21.8749C44.4627 27.5776 34.6914 28.8657 31.5253 24.4422C30.887 25.3256 29.9418 25.9387 28.875 26.1616ZM42.7015 22.75C41.3131 26.2045 33.9348 26.2019 32.5485 22.75H42.7015ZM28.875 7.17346C32.3294 8.56142 32.3268 15.9407 28.875 17.3265V7.17346ZM13.2985 21C14.6869 17.5455 22.0652 17.5481 23.4515 21H13.2985ZM26.1542 20.0379C25.6628 20.5238 25.3828 21.1839 25.375 21.875C25.3828 22.5661 25.6627 23.2262 26.1542 23.7122C26.6456 24.1981 27.3088 24.4707 28 24.4707C28.6911 24.4707 29.3543 24.1981 29.8458 23.7122C30.3372 23.2263 30.6172 22.5662 30.625 21.8751C30.6172 21.184 30.3373 20.5239 29.8458 20.0379C29.3544 19.552 28.6912 19.2794 28 19.2794C27.3089 19.2794 26.6457 19.5519 26.1542 20.0379ZM27.125 36.5765C23.6706 35.1886 23.6732 27.8093 27.125 26.4235V36.5765ZM34.5633 10.5048C36.0713 11.3805 37.3911 12.5459 38.4466 13.934C39.502 15.3221 40.2723 16.9054 40.7131 18.5926C40.7735 18.8144 40.9188 19.0035 41.1175 19.119C41.3163 19.2346 41.5525 19.2673 41.7752 19.21C41.9978 19.1527 42.189 19.0101 42.3073 18.813C42.4257 18.6159 42.4617 18.3802 42.4075 18.1567C41.9086 16.2445 41.036 14.45 39.84 12.8768C38.644 11.3036 37.1483 9.98281 35.4392 8.99063C35.2386 8.87818 35.0018 8.84924 34.78 8.91007C34.5583 8.97089 34.3694 9.1166 34.2543 9.31564C34.1391 9.51469 34.107 9.75107 34.1648 9.97362C34.2227 10.1962 34.3658 10.387 34.5633 10.5048ZM16.097 15.7196C15.8728 15.7794 15.6341 15.7478 15.4333 15.6317C15.3338 15.5742 15.2466 15.4977 15.1766 15.4065C15.1067 15.3153 15.0554 15.2112 15.0258 15.1002C14.9961 14.9891 14.9886 14.8734 15.0037 14.7594C15.0188 14.6455 15.0561 14.5357 15.1137 14.4362C16.1062 12.7274 17.4271 11.2318 19.0003 10.0359C20.5734 8.8399 22.3678 7.96712 24.2798 7.46785C24.5033 7.41385 24.739 7.44993 24.9361 7.56829C25.1332 7.68664 25.2758 7.87778 25.3332 8.10041C25.3905 8.32305 25.358 8.5593 25.2426 8.75815C25.1272 8.957 24.9382 9.10247 24.7165 9.16316C23.0292 9.60362 21.4458 10.3738 20.0577 11.4293C18.6695 12.4848 17.5042 13.8048 16.6287 15.3129C16.5124 15.5136 16.3211 15.6599 16.097 15.7196ZM21.4391 33.2445C19.9311 32.3688 18.6114 31.2034 17.5559 29.8153C16.5004 28.4272 15.7301 26.8439 15.2894 25.1567C15.2289 24.9349 15.0837 24.7458 14.8849 24.6302C14.6862 24.5147 14.4499 24.482 14.2273 24.5393C14.0046 24.5966 13.8135 24.7392 13.6951 24.9363C13.5768 25.1334 13.5408 25.3691 13.5949 25.5926C14.0938 27.5048 14.9665 29.2993 16.1625 30.8725C17.3585 32.4457 18.8542 33.7665 20.5633 34.7587C20.7639 34.8711 21.0006 34.9001 21.2224 34.8392C21.4442 34.7784 21.633 34.6327 21.7482 34.4337C21.8633 34.2346 21.8954 33.9982 21.8376 33.7757C21.7798 33.5531 21.6366 33.3623 21.4391 33.2445ZM40.2406 28.0077C40.3545 28.0229 40.4643 28.0603 40.5637 28.118C40.6632 28.1755 40.7505 28.252 40.8204 28.3432C40.8903 28.4344 40.9416 28.5385 40.9713 28.6495C41.0009 28.7605 41.0084 28.8763 40.9934 28.9902C40.9783 29.1042 40.9409 29.214 40.8833 29.3135C39.8908 31.0223 38.5699 32.5178 36.9968 33.7138C35.4236 34.9098 33.6293 35.7825 31.7172 36.2818C31.4938 36.3356 31.2582 36.2995 31.0612 36.1811C30.8642 36.0627 30.7217 35.8716 30.6644 35.6491C30.6071 35.4266 30.6396 35.1904 30.7548 34.9916C30.8701 34.7928 31.0589 34.6473 31.2805 34.5865C32.9678 34.146 34.5512 33.3758 35.9393 32.3203C37.3275 31.2648 38.4929 29.9449 39.3683 28.4367C39.4258 28.3372 39.5023 28.2501 39.5936 28.1802C39.6848 28.1103 39.7889 28.0591 39.8999 28.0295C40.011 27.9999 40.1267 27.9925 40.2406 28.0077Z" fill="url(#paint0_linear_230_6664)"/>
<defs>
<linearGradient id="paint0_linear_230_6664" x1="25.959" y1="-3.07714" x2="34.8753" y2="59.6362" gradientUnits="userSpaceOnUse">
<stop stop-color="#75B7FF"/>
<stop offset="1" stop-color="#0044E8"/>
</linearGradient>
</defs>
</svg>
