<svg width="132" height="132" viewBox="0 0 132 132" fill="none" xmlns="http://www.w3.org/2000/svg">
<path fill-rule="evenodd" clip-rule="evenodd" d="M66 12C36.1766 12 12 36.1766 12 66C12 95.8234 36.1766 120 66 120C95.8234 120 120 95.8234 120 66C120 36.1766 95.8234 12 66 12ZM0 66C0 29.5492 29.5492 0 66 0C102.451 0 132 29.5492 132 66C132 102.451 102.451 132 66 132C29.5492 132 0 102.451 0 66Z" fill="#F3F6FA"/>
<path fill-rule="evenodd" clip-rule="evenodd" d="M66 12C36.1766 12 12 36.1766 12 66C12 95.8234 36.1766 120 66 120C95.8234 120 120 95.8234 120 66C120 51.7279 114.471 38.7603 105.427 29.1009C103.162 26.682 103.287 22.885 105.706 20.6202C108.125 18.3553 111.922 18.4802 114.186 20.8991C125.23 32.6937 132 48.5629 132 66C132 102.451 102.451 132 66 132C29.5492 132 0 102.451 0 66C0 29.5492 29.5492 0 66 0C69.3137 0 72 2.68629 72 6C72 9.31371 69.3137 12 66 12Z" fill="url(#paint0_linear_2636_209)"/>
<path fill-rule="evenodd" clip-rule="evenodd" d="M75.6549 39.7269C75.9647 40.1636 76.3124 40.4874 76.5923 40.7476L76.5957 40.7508C77.0252 41.1475 77.3641 41.4605 77.6019 41.8794C77.7997 42.2306 78.0274 42.7796 78.0317 43.9161C78.0304 44.5176 77.9462 44.9684 77.7595 45.3764C77.6172 45.6815 77.4224 45.9463 77.0887 46.2907C76.8845 46.4996 76.7751 46.7752 76.7781 47.0674C76.7828 47.3605 76.8995 47.6327 77.1097 47.8373C77.3152 48.0364 77.5856 48.1467 77.8719 48.1467C78.1705 48.1467 78.4482 48.0296 78.6563 47.8164C78.9964 47.4673 79.4275 46.9786 79.7432 46.2971C80.0607 45.6157 80.2213 44.815 80.2192 43.9161C80.2192 43.05 80.1111 42.3096 79.8868 41.6521C79.6309 40.8886 79.1878 40.2084 78.5316 39.5706C78.4012 39.4449 78.2812 39.3322 78.1641 39.2241L78.1564 39.2169L78.1564 39.2168C77.846 38.9259 77.6005 38.6958 77.4399 38.4614C77.2353 38.173 76.9008 38 76.5466 38C76.3188 38 76.1014 38.0688 75.9151 38.2012C75.6767 38.3696 75.5182 38.6212 75.4691 38.9088C75.4199 39.1976 75.4853 39.4877 75.6536 39.7261C75.6541 39.7261 75.6549 39.7261 75.6549 39.7269ZM69.0137 40.8206C69.7747 41.5256 70.3754 42.0827 70.3754 43.9165C70.3754 44.5206 70.865 45.0102 71.4691 45.0102C72.0732 45.0102 72.5629 44.5206 72.5629 43.9165C72.5629 41.1278 71.3712 40.0233 70.5009 39.2167L70.5006 39.2163L70.4987 39.2146L70.4987 39.2146C70.2136 38.95 69.9669 38.721 69.7832 38.4618C69.4346 37.9688 68.7518 37.8521 68.2588 38.2012C67.7658 38.5498 67.6491 39.2326 67.9977 39.7256C68.312 40.1692 68.6822 40.5129 69.0092 40.8165L69.0093 40.8165L69.0093 40.8165L69.0093 40.8165L69.0137 40.8206ZM85.6875 56.8125H72.351C72.0765 55.3902 71.2839 54.5854 70.6224 53.9136L70.6211 53.9123L70.6207 53.912C69.8433 53.123 69.2812 52.5526 69.2812 50.9861C69.2812 50.382 68.7916 49.8924 68.1875 49.8924C67.5834 49.8924 67.0937 50.382 67.0937 50.9861C67.0937 53.4489 68.1855 54.5572 69.0626 55.4476L69.0629 55.4478C69.5248 55.9165 69.8858 56.2848 70.0866 56.8125H65.7885C65.5138 55.3896 64.7207 54.5847 64.059 53.9132L64.0586 53.9127L64.0578 53.9119C63.2806 53.1228 62.7187 52.5523 62.7187 50.9861C62.7187 49.4873 63.2696 48.9539 64.0324 48.2155L64.0329 48.215C64.9092 47.3669 66 46.3112 66 43.9165C66 41.1278 64.8083 40.0233 63.938 39.2167L63.9377 39.2163L63.9358 39.2146L63.9358 39.2146L63.9357 39.2145L63.9357 39.2145C63.6507 38.95 63.404 38.721 63.2203 38.4618C62.8717 37.9688 62.189 37.8521 61.6959 38.2012C61.2029 38.5498 61.0862 39.2326 61.4349 39.7256C61.7492 40.1692 62.1194 40.5129 62.4464 40.8165L62.4509 40.8206C63.2118 41.5256 63.8125 42.0827 63.8125 43.9165C63.8125 45.3841 63.2669 45.9121 62.5115 46.6431L62.5111 46.6435C61.6289 47.4975 60.5312 48.5601 60.5312 50.9861C60.5312 53.4492 61.6229 54.5574 62.5004 55.4478C62.9623 55.9165 63.3233 56.2848 63.5241 56.8125H58.1301C58.0263 56.2801 57.8439 55.7866 57.5858 55.3534C57.2991 54.8668 56.9599 54.4882 56.6365 54.1516L56.5354 54.0489L56.4502 53.9623C56.0524 53.5577 55.7384 53.2381 55.5141 52.8651C55.2834 52.4759 55.068 51.979 55.0625 50.9861C55.0646 50.3418 55.1586 49.8637 55.3688 49.4339C55.5491 49.072 55.8016 48.7824 56.1268 48.4594C56.3335 48.253 56.448 47.9783 56.4493 47.6861C56.4493 47.3942 56.3365 47.1195 56.1298 46.9119C55.9234 46.7042 55.6487 46.5902 55.3556 46.5902C55.0633 46.5902 54.7899 46.703 54.5835 46.9085C54.1883 47.3011 53.7402 47.7933 53.4086 48.4628C53.0523 49.1771 52.8729 50.0269 52.875 50.9861C52.8716 52.0371 53.0818 52.9647 53.4971 53.7423C53.9143 54.5136 54.4372 55.0391 54.8581 55.4622L54.86 55.4641L54.876 55.4802C55.0376 55.6425 55.19 55.7958 55.3137 55.943C55.5675 56.2318 55.7239 56.4689 55.8379 56.736C55.8482 56.7612 55.8576 56.7868 55.867 56.8125H46.3125C45.7084 56.8125 45.2188 57.3021 45.2188 57.9062V71.0312C45.2188 71.6353 45.7084 72.1249 46.3125 72.1249H48.5V92.9062C48.5 93.5103 48.9896 93.9999 49.5937 93.9999H82.4062C83.0103 93.9999 83.5 93.5103 83.5 92.9062V72.1249H85.6875C86.2916 72.1249 86.7812 71.6353 86.7812 71.0312V57.9062C86.7812 57.3021 86.2916 56.8125 85.6875 56.8125ZM70.375 72.1249V75.4062H61.625V72.1249H70.375ZM81.3125 77.5937V80.8749H78.0312V77.5937H81.3125ZM72.5625 86.3437V83.0624H81.3125V86.3437H72.5625ZM61.625 86.3437V83.0624H70.375V86.3437H61.625ZM50.6875 86.3437V83.0624H59.4375V86.3437H50.6875ZM64.9062 77.5937V80.8749H56.1562V77.5937H64.9062ZM53.9687 80.8749H50.6875V77.5937H53.9687V80.8749ZM75.8437 80.8749H67.0937V77.5937H75.8437V80.8749ZM59.4375 75.4062H50.6875V72.1249H59.4375V75.4062ZM50.6875 88.5312H53.9687V91.8124H50.6875V88.5312ZM56.1562 88.5312H64.9062V91.8124H56.1562V88.5312ZM67.0937 88.5312H75.8437V91.8124H67.0937V88.5312ZM81.3125 91.8124H78.0312V88.5312H81.3125V91.8124ZM81.3125 75.4062H72.5625V72.1249H81.3125V75.4062ZM84.5937 69.9374H47.4062V59H84.5937V69.9374ZM67.0937 65.5625H60.5312C59.9271 65.5625 59.4375 66.0521 59.4375 66.6562C59.4375 67.2604 59.9271 67.75 60.5312 67.75H67.0937C67.6979 67.75 68.1875 67.2604 68.1875 66.6562C68.1875 66.0521 67.6979 65.5625 67.0937 65.5625ZM61.625 61.1875C62.2278 61.1875 62.7187 61.6784 62.7187 62.2812C62.7187 62.8837 62.2278 63.375 61.625 63.375H55.0625C54.4597 63.375 53.9688 62.8837 53.9688 62.2812C53.9688 61.6784 54.4597 61.1875 55.0625 61.1875H61.625ZM50.6875 61.1875C50.0847 61.1875 49.5938 61.6784 49.5938 62.2812C49.5938 62.8837 50.0847 63.375 50.6875 63.375C51.2903 63.375 51.7812 62.8837 51.7812 62.2812C51.7812 61.6784 51.2903 61.1875 50.6875 61.1875ZM81.3125 63.375H76.9375C76.3334 63.375 75.8438 62.8854 75.8438 62.2812C75.8438 61.6771 76.3334 61.1875 76.9375 61.1875H81.3125C81.9166 61.1875 82.4062 61.6771 82.4062 62.2812C82.4062 62.8854 81.9166 63.375 81.3125 63.375ZM75.8483 51.8471C75.8351 51.8471 75.8231 51.8471 75.8098 51.8463C75.2074 51.8254 74.734 51.3178 74.7545 50.7154C74.7644 50.43 74.8836 50.1638 75.0891 49.966C75.3036 49.7592 75.5868 49.6498 75.8855 49.6609C76.1777 49.6708 76.449 49.7934 76.6477 50.0074C76.8472 50.221 76.951 50.4996 76.9412 50.7918C76.9309 51.0772 76.8117 51.343 76.6075 51.5408C76.402 51.739 76.1328 51.8471 75.8483 51.8471ZM57.25 45.0234H57.2479C56.645 45.0226 56.155 44.5304 56.1563 43.9276C56.1575 43.326 56.6484 42.8359 57.25 42.8359H57.2521C57.855 42.8372 58.345 43.3281 58.3438 43.9318V43.9331C58.3416 44.5347 57.8516 45.0234 57.25 45.0234Z" fill="url(#paint1_linear_2636_209)"/>
<defs>
<linearGradient id="paint0_linear_2636_209" x1="59.1248" y1="-12.1368" x2="76.4103" y2="146.851" gradientUnits="userSpaceOnUse">
<stop stop-color="#75B7FF"/>
<stop offset="1" stop-color="#0044E8"/>
</linearGradient>
<linearGradient id="paint1_linear_2636_209" x1="63.8352" y1="32.8511" x2="73.6225" y2="99.6637" gradientUnits="userSpaceOnUse">
<stop stop-color="#75B7FF"/>
<stop offset="1" stop-color="#0044E8"/>
</linearGradient>
</defs>
</svg>
