<svg width="55" height="56" viewBox="0 0 55 56" fill="none" xmlns="http://www.w3.org/2000/svg">
<path fill-rule="evenodd" clip-rule="evenodd" d="M18.5498 55.9366C18.793 56.0211 19.0587 56.0211 19.302 55.9366C19.4992 55.868 19.6948 55.7986 19.8883 55.7285C23.665 54.3586 26.9818 52.3403 29.7053 49.8554C30.1575 49.4427 30.1812 48.7506 29.7582 48.3094C29.3353 47.8683 28.6258 47.8451 28.1736 48.2577C25.6714 50.5408 22.4297 52.4723 18.9258 53.7433M18.9258 53.7433C18.8652 53.7216 18.8047 53.6999 18.7445 53.6781C8.64238 50.0135 2.24227 41.4267 2.24227 32.0976V21.5466L18.9258 15.5562L35.6092 21.5466V32.0976C35.6092 35.154 34.9241 38.1242 33.6501 40.8676C33.3946 41.4178 33.6447 42.0659 34.2087 42.3152C34.7727 42.5645 35.4371 42.3205 35.6926 41.7703C37.0936 38.7531 37.8514 35.476 37.8514 32.0976V20.7837C37.8514 20.3253 37.5585 19.9156 37.1175 19.7572L19.313 13.3643C19.0631 13.2745 18.7885 13.2745 18.5385 13.3643L0.733895 19.7572C0.292966 19.9156 0 20.3253 0 20.7837V32.0976C0 42.4461 7.08807 51.7837 17.9631 55.7284C18.1562 55.7984 18.352 55.868 18.5498 55.9366M18.9258 53.7433C18.8656 53.7651 18.9865 53.7216 18.9258 53.7433V53.7433Z" fill="url(#paint0_linear_230_6683)"/>
<path fill-rule="evenodd" clip-rule="evenodd" d="M18.4914 50.9731C18.7692 51.0871 19.0824 51.0871 19.3602 50.9731C23.351 49.3367 26.7389 46.7978 29.1891 43.5721C31.7714 40.1718 33.1488 36.2174 33.1488 32.1392V24.0123C33.1488 23.554 32.8558 23.1442 32.4149 22.9859L19.3131 18.2813C19.0631 18.1915 18.7885 18.1915 18.5386 18.2813L5.43674 22.9858C4.99582 23.1441 4.70286 23.5539 4.70286 24.0122V32.1392C4.70286 36.2174 6.08026 40.1718 8.66261 43.572C11.113 46.7982 14.5009 49.3369 18.4914 50.9731ZM18.9258 48.7734C15.4723 47.2769 12.5714 45.044 10.4642 42.2697C8.15393 39.2277 6.94513 35.7259 6.94513 32.1392V24.7751L18.9258 20.4732L30.9065 24.7753V32.1392C30.9065 35.7259 29.6978 39.2278 27.3875 42.2697C25.2805 45.0436 22.3795 47.2767 18.9258 48.7734Z" fill="url(#paint1_linear_230_6683)"/>
<path fill-rule="evenodd" clip-rule="evenodd" d="M35.6093 26.7476C35.6093 27.3517 36.1112 27.8414 36.7304 27.8414C42.4017 27.8414 46.9989 23.356 46.9989 17.8226C46.9989 12.29 42.4015 7.80496 36.7304 7.80496C31.1825 7.80496 26.6633 12.0962 26.4695 17.4625C26.4524 17.9347 26.7481 18.3643 27.2026 18.5275L35.6092 21.5466L35.6093 26.7476ZM37.8515 25.5781L37.8514 20.7837C37.8514 20.3253 37.5585 19.9156 37.1175 19.7572L28.778 16.7622C29.3075 12.9395 32.6659 9.99246 36.7304 9.99246C41.1632 9.99246 44.7566 13.4981 44.7566 17.8226C44.7566 21.7768 41.7535 25.046 37.8515 25.5781Z" fill="url(#paint2_linear_230_6683)"/>
<path fill-rule="evenodd" clip-rule="evenodd" d="M36.7302 5.72337C37.3494 5.72337 37.8514 5.23368 37.8514 4.62962V1.09375C37.8514 0.489688 37.3494 0 36.7302 0C36.111 0 35.6091 0.489688 35.6091 1.09375V4.62962C35.6091 5.23368 36.111 5.72337 36.7302 5.72337Z" fill="url(#paint3_linear_230_6683)"/>
<path fill-rule="evenodd" clip-rule="evenodd" d="M27.9604 9.2673C28.3983 8.84016 28.3983 8.14764 27.9604 7.7205L25.3976 5.2203C24.9598 4.79317 24.2499 4.79317 23.8121 5.2203C23.3743 5.64744 23.3743 6.33996 23.8121 6.7671L26.3749 9.2673C26.8127 9.69443 27.5226 9.69443 27.9604 9.2673Z" fill="url(#paint4_linear_230_6683)"/>
<path fill-rule="evenodd" clip-rule="evenodd" d="M49.6488 30.4261C50.0867 29.999 50.0867 29.3064 49.6488 28.8793L47.086 26.379C46.6482 25.9518 45.9384 25.9518 45.5005 26.3789C45.0627 26.8061 45.0627 27.4986 45.5005 27.9257L48.0633 30.426C48.5011 30.8532 49.211 30.8532 49.6488 30.4261Z" fill="url(#paint5_linear_230_6683)"/>
<path fill-rule="evenodd" clip-rule="evenodd" d="M45.5005 9.2673C45.9383 9.69443 46.6482 9.69443 47.086 9.2673L49.6488 6.7671C50.0867 6.33996 50.0867 5.64744 49.6488 5.2203C49.211 4.79317 48.5011 4.79317 48.0633 5.2203L45.5005 7.7205C45.0627 8.14764 45.0627 8.84016 45.5005 9.2673Z" fill="url(#paint6_linear_230_6683)"/>
<path fill-rule="evenodd" clip-rule="evenodd" d="M49.1333 17.8232C49.1333 18.4272 49.6353 18.9169 50.2545 18.9169H53.8789C54.4981 18.9169 55 18.4272 55 17.8232C55 17.2191 54.4981 16.7294 53.8789 16.7294H50.2545C49.6353 16.7294 49.1333 17.2191 49.1333 17.8232Z" fill="url(#paint7_linear_230_6683)"/>
<path fill-rule="evenodd" clip-rule="evenodd" d="M16.4284 38.8048C16.8663 39.2319 17.5761 39.2319 18.014 38.8048L26.402 30.6217C26.8398 30.1945 26.8398 29.502 26.402 29.0749C25.9641 28.6477 25.2543 28.6477 24.8164 29.0749L17.2212 36.4846L14.2278 33.5643C13.7899 33.1371 13.0801 33.1371 12.6423 33.5643C12.2044 33.9914 12.2044 34.6839 12.6423 35.1111L16.4284 38.8048Z" fill="url(#paint8_linear_230_6683)"/>
<defs>
<linearGradient id="paint0_linear_230_6683" x1="24.6353" y1="-5.14895" x2="32.0987" y2="62.2713" gradientUnits="userSpaceOnUse">
<stop stop-color="#75B7FF"/>
<stop offset="1" stop-color="#0044E8"/>
</linearGradient>
<linearGradient id="paint1_linear_230_6683" x1="24.6353" y1="-5.14895" x2="32.0987" y2="62.2713" gradientUnits="userSpaceOnUse">
<stop stop-color="#75B7FF"/>
<stop offset="1" stop-color="#0044E8"/>
</linearGradient>
<linearGradient id="paint2_linear_230_6683" x1="24.6353" y1="-5.14895" x2="32.0987" y2="62.2713" gradientUnits="userSpaceOnUse">
<stop stop-color="#75B7FF"/>
<stop offset="1" stop-color="#0044E8"/>
</linearGradient>
<linearGradient id="paint3_linear_230_6683" x1="24.6353" y1="-5.14895" x2="32.0987" y2="62.2713" gradientUnits="userSpaceOnUse">
<stop stop-color="#75B7FF"/>
<stop offset="1" stop-color="#0044E8"/>
</linearGradient>
<linearGradient id="paint4_linear_230_6683" x1="24.6353" y1="-5.14895" x2="32.0987" y2="62.2713" gradientUnits="userSpaceOnUse">
<stop stop-color="#75B7FF"/>
<stop offset="1" stop-color="#0044E8"/>
</linearGradient>
<linearGradient id="paint5_linear_230_6683" x1="24.6353" y1="-5.14895" x2="32.0987" y2="62.2713" gradientUnits="userSpaceOnUse">
<stop stop-color="#75B7FF"/>
<stop offset="1" stop-color="#0044E8"/>
</linearGradient>
<linearGradient id="paint6_linear_230_6683" x1="24.6353" y1="-5.14895" x2="32.0987" y2="62.2713" gradientUnits="userSpaceOnUse">
<stop stop-color="#75B7FF"/>
<stop offset="1" stop-color="#0044E8"/>
</linearGradient>
<linearGradient id="paint7_linear_230_6683" x1="24.6353" y1="-5.14895" x2="32.0987" y2="62.2713" gradientUnits="userSpaceOnUse">
<stop stop-color="#75B7FF"/>
<stop offset="1" stop-color="#0044E8"/>
</linearGradient>
<linearGradient id="paint8_linear_230_6683" x1="24.6353" y1="-5.14895" x2="32.0987" y2="62.2713" gradientUnits="userSpaceOnUse">
<stop stop-color="#75B7FF"/>
<stop offset="1" stop-color="#0044E8"/>
</linearGradient>
</defs>
</svg>
