<svg width="56" height="56" viewBox="0 0 56 56" fill="none" xmlns="http://www.w3.org/2000/svg">
<path fill-rule="evenodd" clip-rule="evenodd" d="M0 35.7339C0 36.187 0.367266 36.5542 0.820313 36.5542H7.67047C8.12352 36.5542 8.49078 36.187 8.49078 35.7339V32.1343H17.7057C17.7151 32.1346 17.7246 32.1348 17.7341 32.1348C17.7437 32.1348 17.7531 32.1346 17.7626 32.1343H27.9716C27.981 32.1346 27.9905 32.1348 28.0001 32.1348L28.0154 32.1346L28.0285 32.1343H36.681V40.8643L35.1106 42.121C34.7078 42.4436 34.4717 42.9326 34.4717 43.4514V44.1306C34.4717 44.95 35.1354 45.6137 35.9548 45.6137H38.3228C38.7759 45.6137 39.1431 45.2464 39.1431 44.7934C39.1431 44.3404 38.7759 43.9731 38.3228 43.9731H36.1123V43.4514C36.1123 43.432 36.1213 43.4135 36.1363 43.4014L37.7892 42.0787H52.6825L54.3354 43.4014C54.3505 43.4135 54.3594 43.432 54.3594 43.4514V43.9731H42.1509C41.6979 43.9731 41.3306 44.3404 41.3306 44.7934C41.3306 45.2464 41.6979 45.6137 42.1509 45.6137H54.5169C55.3363 45.6137 56 44.95 56 44.1306V43.4514C56 42.9326 55.7639 42.4436 55.3611 42.121L55.3608 42.1207L53.7906 40.8642V29.1046C53.7906 21.3289 47.4864 15.0259 39.7118 15.0259H38.3223V14.0786C38.3223 12.936 37.5817 11.9663 36.5544 11.6233V0.820327C36.5544 0.367282 36.1871 1.47814e-05 35.7341 1.47814e-05C35.281 1.47814e-05 34.9138 0.367282 34.9138 0.820327V11.6233C33.8865 11.9664 33.1461 12.936 33.1461 14.0786V15.0259H25.2514C24.7983 15.0259 24.4311 15.3931 24.4311 15.8462C24.4311 16.2992 24.7983 16.6665 25.2514 16.6665H27.1797V30.4937H18.5544V16.6665H21.4232C21.8763 16.6665 22.2435 16.2992 22.2435 15.8462C22.2435 15.3931 21.8763 15.0259 21.4232 15.0259H18.5545V14.0786C18.5545 12.936 17.814 11.9664 16.7868 11.6233V0.820312C16.7868 0.367264 16.4195 0 15.9665 0C15.5134 0 15.1461 0.367264 15.1461 0.820312V11.6233C14.1188 11.9663 13.3783 12.936 13.3783 14.0786V15.0259H8.49078V11.4275C8.49078 10.9745 8.12352 10.6072 7.67047 10.6072H0.820313C0.367266 10.6072 0 10.9745 0 11.4275V14.28C0 14.733 0.367266 15.1003 0.820313 15.1003C1.27336 15.1003 1.64063 14.733 1.64063 14.28V12.2478H6.85016V15.8356L6.85009 15.8462V31.314L6.85016 31.3246V34.9136H1.64063V18.1081C1.64063 17.6551 1.27336 17.2878 0.820313 17.2878C0.367266 17.2878 0 17.6551 0 18.1081V35.7339ZM16.9138 30.4937H8.49078V16.6665H14.1769L14.1986 16.6668H16.9138V30.4937ZM36.6816 30.4937H28.8204V16.6665H33.9447L33.9664 16.6668H36.6816V30.4937ZM36.6816 14.0786V15.0259H34.7867V14.0786C34.7867 13.5571 35.2081 13.134 35.7289 13.1312L35.7341 13.1312L35.7392 13.1312C36.2603 13.134 36.6816 13.5571 36.6816 14.0786ZM16.9139 14.0786V15.0259H15.0189V14.0786C15.0189 13.5565 15.4413 13.1331 15.9629 13.1312L15.9665 13.1312L15.9699 13.1312C16.4916 13.1331 16.9139 13.5566 16.9139 14.0786ZM52.15 40.4381H38.3217V32.1348H52.15V40.4381ZM40.3763 30.4942H52.15V29.1046C52.15 27.2419 51.7405 25.4749 51.0066 23.8886L40.3763 30.4942ZM50.2194 22.4462L40.0527 28.7637L46.3701 18.597C47.9191 19.5806 49.2358 20.8973 50.2194 22.4462ZM44.9277 17.8098L38.3222 28.4401V16.6665H39.7118C41.5744 16.6665 43.3414 17.076 44.9277 17.8098ZM51.6967 56C52.1271 56 52.4802 55.6684 52.5143 55.2467L51.7631 48.262C51.7395 48.283 51.6999 48.3165 51.6363 48.3658L51.6067 48.3884C51.3956 48.5497 50.8764 48.9463 50.8764 49.699C50.8764 50.4517 51.3955 50.8483 51.6066 51.0097L51.6362 51.0324L51.6632 51.0535L51.6826 51.0689C51.6688 51.0799 51.6534 51.0921 51.6363 51.1053L51.6067 51.128C51.3956 51.2893 50.8764 51.6859 50.8764 52.4386C50.8764 53.1913 51.3953 53.588 51.6065 53.7495L51.6361 53.7722C51.6535 53.7856 51.669 53.7979 51.683 53.8091L51.6508 53.8346L51.6361 53.8461L51.6065 53.8688C51.3953 54.0302 50.8764 54.4269 50.8764 55.1796C50.8764 55.6327 51.2436 56 51.6967 56ZM45.6954 55.2467C45.6613 55.6684 45.3083 56 44.8778 56C44.4248 56 44.0575 55.6327 44.0575 55.1796C44.0575 54.4269 44.5764 54.0302 44.7876 53.8688L44.8171 53.8461C44.8345 53.8326 44.8501 53.8203 44.8641 53.8091C44.8501 53.7979 44.8345 53.7856 44.8171 53.7721L44.7876 53.7494C44.5764 53.588 44.0575 53.1913 44.0575 52.4386C44.0575 51.6859 44.5767 51.2893 44.7878 51.128L44.8173 51.1053C44.8345 51.0921 44.8499 51.0799 44.8637 51.0689C44.8498 51.0578 44.8344 51.0457 44.8172 51.0324L44.7877 51.0097C44.5765 50.8483 44.0575 50.4517 44.0575 49.699C44.0575 48.9463 44.5767 48.5497 44.7878 48.3885L44.8174 48.3658C44.8809 48.3166 44.9205 48.283 44.9441 48.2621L45.6954 55.2467ZM38.0587 56C38.4891 56 38.8422 55.6684 38.8763 55.2467L38.125 48.262C38.1014 48.283 38.0618 48.3165 37.9983 48.3658L37.9687 48.3884C37.7576 48.5497 37.2383 48.9463 37.2383 49.699C37.2383 50.4517 37.7574 50.8483 37.9686 51.0097L37.9982 51.0324C38.0153 51.0457 38.0307 51.0578 38.0445 51.0689C38.0308 51.0799 38.0154 51.0921 37.9983 51.1053L37.9687 51.128C37.7576 51.2893 37.2383 51.6859 37.2383 52.4386C37.2383 53.1913 37.7573 53.588 37.9685 53.7495L37.998 53.7722C38.0154 53.7856 38.031 53.7979 38.045 53.8091C38.0359 53.8164 38.0262 53.8241 38.0157 53.8324C38.01 53.8368 38.0042 53.8414 37.9981 53.8461L37.9685 53.8688C37.7573 54.0302 37.2383 54.4269 37.2383 55.1796C37.2383 55.6327 37.6056 56 38.0587 56Z" fill="url(#paint0_linear_230_6598)"/>
<defs>
<linearGradient id="paint0_linear_230_6598" x1="25.0832" y1="-5.14895" x2="32.4165" y2="62.3002" gradientUnits="userSpaceOnUse">
<stop stop-color="#75B7FF"/>
<stop offset="1" stop-color="#0044E8"/>
</linearGradient>
</defs>
</svg>
