<svg width="132" height="132" viewBox="0 0 132 132" fill="none" xmlns="http://www.w3.org/2000/svg">
<path fill-rule="evenodd" clip-rule="evenodd" d="M66 12C36.1766 12 12 36.1766 12 66C12 95.8234 36.1766 120 66 120C95.8234 120 120 95.8234 120 66C120 36.1766 95.8234 12 66 12ZM0 66C0 29.5492 29.5492 0 66 0C102.451 0 132 29.5492 132 66C132 102.451 102.451 132 66 132C29.5492 132 0 102.451 0 66Z" fill="#F3F6FA"/>
<path fill-rule="evenodd" clip-rule="evenodd" d="M66 12C36.1766 12 12 36.1766 12 66C12 95.8234 36.1766 120 66 120C95.8234 120 120 95.8234 120 66C120 51.7279 114.471 38.7603 105.427 29.1009C103.162 26.682 103.287 22.885 105.706 20.6202C108.125 18.3553 111.922 18.4802 114.186 20.8991C125.23 32.6937 132 48.5629 132 66C132 102.451 102.451 132 66 132C29.5492 132 0 102.451 0 66C0 29.5492 29.5492 0 66 0C69.3137 0 72 2.68629 72 6C72 9.31371 69.3137 12 66 12Z" fill="url(#paint0_linear_2636_197)"/>
<path fill-rule="evenodd" clip-rule="evenodd" d="M57.5498 92.9366C57.793 93.0211 58.0587 93.0211 58.302 92.9366C58.4992 92.868 58.6948 92.7986 58.8883 92.7285C62.665 91.3586 65.9818 89.3403 68.7053 86.8554C69.1575 86.4427 69.1812 85.7506 68.7582 85.3094C68.3353 84.8683 67.6258 84.8451 67.1736 85.2577C64.6714 87.5408 61.4297 89.4723 57.9258 90.7433M57.9258 90.7433C57.8652 90.7216 57.8047 90.6999 57.7445 90.6781C47.6424 87.0135 41.2423 78.4267 41.2423 69.0976V58.5466L57.9258 52.5562L74.6092 58.5466V69.0976C74.6092 72.154 73.9241 75.1242 72.6501 77.8676C72.3946 78.4178 72.6447 79.0659 73.2087 79.3152C73.7727 79.5645 74.4371 79.3205 74.6926 78.7703C76.0936 75.7531 76.8514 72.476 76.8514 69.0976V57.7837C76.8514 57.3253 76.5585 56.9156 76.1176 56.7572L58.313 50.3643C58.0631 50.2745 57.7885 50.2745 57.5385 50.3643L39.7339 56.7572C39.293 56.9156 39 57.3253 39 57.7837V69.0976C39 79.4461 46.0881 88.7837 56.9631 92.7284C57.1562 92.7984 57.352 92.868 57.5498 92.9366M57.9258 90.7433C57.8656 90.7651 57.9865 90.7216 57.9258 90.7433Z" fill="url(#paint1_linear_2636_197)"/>
<path fill-rule="evenodd" clip-rule="evenodd" d="M57.4914 87.9731C57.7692 88.0871 58.0824 88.0871 58.3602 87.9731C62.351 86.3367 65.7389 83.7978 68.1891 80.5721C70.7714 77.1718 72.1488 73.2174 72.1488 69.1392V61.0123C72.1488 60.554 71.8558 60.1442 71.4149 59.9859L58.3131 55.2813C58.0631 55.1915 57.7885 55.1915 57.5386 55.2813L44.4367 59.9858C43.9958 60.1441 43.7029 60.5539 43.7029 61.0122V69.1392C43.7029 73.2174 45.0803 77.1718 47.6626 80.572C50.113 83.7982 53.5009 86.3369 57.4914 87.9731ZM57.9258 85.7734C54.4723 84.2769 51.5714 82.044 49.4642 79.2697C47.1539 76.2277 45.9451 72.7259 45.9451 69.1392V61.7751L57.9258 57.4732L69.9065 61.7753V69.1392C69.9065 72.7259 68.6978 76.2278 66.3875 79.2697C64.2805 82.0436 61.3795 84.2767 57.9258 85.7734Z" fill="url(#paint2_linear_2636_197)"/>
<path fill-rule="evenodd" clip-rule="evenodd" d="M74.6093 63.7476C74.6093 64.3517 75.1112 64.8414 75.7304 64.8414C81.4017 64.8414 85.9989 60.356 85.9989 54.8226C85.9989 49.29 81.4015 44.805 75.7304 44.805C70.1825 44.805 65.6633 49.0962 65.4695 54.4625C65.4524 54.9347 65.7481 55.3643 66.2026 55.5275L74.6092 58.5466L74.6093 63.7476ZM76.8515 62.5781L76.8514 57.7837C76.8514 57.3253 76.5585 56.9156 76.1176 56.7572L67.778 53.7622C68.3075 49.9395 71.6659 46.9925 75.7304 46.9925C80.1632 46.9925 83.7566 50.4981 83.7566 54.8226C83.7566 58.7768 80.7535 62.046 76.8515 62.5781Z" fill="url(#paint3_linear_2636_197)"/>
<path fill-rule="evenodd" clip-rule="evenodd" d="M75.7302 42.7234C76.3494 42.7234 76.8514 42.2337 76.8514 41.6296V38.0937C76.8514 37.4897 76.3494 37 75.7302 37C75.111 37 74.6091 37.4897 74.6091 38.0937V41.6296C74.6091 42.2337 75.111 42.7234 75.7302 42.7234Z" fill="url(#paint4_linear_2636_197)"/>
<path fill-rule="evenodd" clip-rule="evenodd" d="M66.9604 46.2673C67.3983 45.8402 67.3983 45.1476 66.9604 44.7205L64.3976 42.2203C63.9598 41.7932 63.2499 41.7932 62.8121 42.2203C62.3743 42.6474 62.3743 43.34 62.8121 43.7671L65.3749 46.2673C65.8127 46.6944 66.5226 46.6944 66.9604 46.2673Z" fill="url(#paint5_linear_2636_197)"/>
<path fill-rule="evenodd" clip-rule="evenodd" d="M88.6488 67.4261C89.0867 66.999 89.0867 66.3064 88.6488 65.8793L86.086 63.379C85.6482 62.9518 84.9384 62.9518 84.5005 63.3789C84.0627 63.8061 84.0627 64.4986 84.5005 64.9257L87.0633 67.426C87.5011 67.8532 88.211 67.8532 88.6488 67.4261Z" fill="url(#paint6_linear_2636_197)"/>
<path fill-rule="evenodd" clip-rule="evenodd" d="M84.5005 46.2673C84.9383 46.6944 85.6482 46.6944 86.086 46.2673L88.6488 43.7671C89.0867 43.34 89.0867 42.6474 88.6488 42.2203C88.211 41.7932 87.5011 41.7932 87.0633 42.2203L84.5005 44.7205C84.0627 45.1476 84.0627 45.8402 84.5005 46.2673Z" fill="url(#paint7_linear_2636_197)"/>
<path fill-rule="evenodd" clip-rule="evenodd" d="M88.1333 54.8232C88.1333 55.4272 88.6353 55.9169 89.2545 55.9169H92.8789C93.4981 55.9169 94 55.4272 94 54.8232C94 54.2191 93.4981 53.7294 92.8789 53.7294H89.2545C88.6353 53.7294 88.1333 54.2191 88.1333 54.8232Z" fill="url(#paint8_linear_2636_197)"/>
<path fill-rule="evenodd" clip-rule="evenodd" d="M55.4284 75.8048C55.8663 76.2319 56.5761 76.2319 57.014 75.8048L65.402 67.6217C65.8398 67.1945 65.8398 66.502 65.402 66.0749C64.9641 65.6477 64.2543 65.6477 63.8164 66.0749L56.2212 73.4846L53.2278 70.5643C52.7899 70.1371 52.0801 70.1371 51.6423 70.5643C51.2044 70.9914 51.2044 71.6839 51.6423 72.1111L55.4284 75.8048Z" fill="url(#paint9_linear_2636_197)"/>
<defs>
<linearGradient id="paint0_linear_2636_197" x1="59.1248" y1="-12.1368" x2="76.4103" y2="146.851" gradientUnits="userSpaceOnUse">
<stop stop-color="#75B7FF"/>
<stop offset="1" stop-color="#0044E8"/>
</linearGradient>
<linearGradient id="paint1_linear_2636_197" x1="63.6353" y1="31.851" x2="71.0987" y2="99.2713" gradientUnits="userSpaceOnUse">
<stop stop-color="#75B7FF"/>
<stop offset="1" stop-color="#0044E8"/>
</linearGradient>
<linearGradient id="paint2_linear_2636_197" x1="63.6353" y1="31.851" x2="71.0987" y2="99.2713" gradientUnits="userSpaceOnUse">
<stop stop-color="#75B7FF"/>
<stop offset="1" stop-color="#0044E8"/>
</linearGradient>
<linearGradient id="paint3_linear_2636_197" x1="63.6353" y1="31.851" x2="71.0987" y2="99.2713" gradientUnits="userSpaceOnUse">
<stop stop-color="#75B7FF"/>
<stop offset="1" stop-color="#0044E8"/>
</linearGradient>
<linearGradient id="paint4_linear_2636_197" x1="63.6353" y1="31.851" x2="71.0987" y2="99.2713" gradientUnits="userSpaceOnUse">
<stop stop-color="#75B7FF"/>
<stop offset="1" stop-color="#0044E8"/>
</linearGradient>
<linearGradient id="paint5_linear_2636_197" x1="63.6353" y1="31.851" x2="71.0987" y2="99.2713" gradientUnits="userSpaceOnUse">
<stop stop-color="#75B7FF"/>
<stop offset="1" stop-color="#0044E8"/>
</linearGradient>
<linearGradient id="paint6_linear_2636_197" x1="63.6353" y1="31.851" x2="71.0987" y2="99.2713" gradientUnits="userSpaceOnUse">
<stop stop-color="#75B7FF"/>
<stop offset="1" stop-color="#0044E8"/>
</linearGradient>
<linearGradient id="paint7_linear_2636_197" x1="63.6353" y1="31.851" x2="71.0987" y2="99.2713" gradientUnits="userSpaceOnUse">
<stop stop-color="#75B7FF"/>
<stop offset="1" stop-color="#0044E8"/>
</linearGradient>
<linearGradient id="paint8_linear_2636_197" x1="63.6353" y1="31.851" x2="71.0987" y2="99.2713" gradientUnits="userSpaceOnUse">
<stop stop-color="#75B7FF"/>
<stop offset="1" stop-color="#0044E8"/>
</linearGradient>
<linearGradient id="paint9_linear_2636_197" x1="63.6353" y1="31.851" x2="71.0987" y2="99.2713" gradientUnits="userSpaceOnUse">
<stop stop-color="#75B7FF"/>
<stop offset="1" stop-color="#0044E8"/>
</linearGradient>
</defs>
</svg>
