<svg width="56" height="56" viewBox="0 0 56 56" fill="none" xmlns="http://www.w3.org/2000/svg">
<path fill-rule="evenodd" clip-rule="evenodd" d="M37.6549 1.72693C37.9647 2.16357 38.3124 2.48742 38.5923 2.74762L38.5957 2.75081C39.0252 3.14749 39.3641 3.46053 39.6019 3.87939C39.7997 4.23059 40.0274 4.7796 40.0317 5.91607C40.0304 6.51763 39.9462 6.96838 39.7595 7.3764C39.6172 7.68145 39.4224 7.94634 39.0887 8.2907C38.8845 8.49963 38.7751 8.7752 38.7781 9.06744C38.7828 9.36053 38.8995 9.63268 39.1097 9.83733C39.3152 10.0364 39.5856 10.1467 39.8719 10.1467C40.1705 10.1467 40.4482 10.0296 40.6563 9.8164C40.9964 9.46734 41.4275 8.97857 41.7432 8.29711C42.0607 7.61566 42.2213 6.815 42.2192 5.91607C42.2192 5.05004 42.1111 4.30963 41.8868 3.6521C41.6309 2.88861 41.1878 2.20843 40.5316 1.57056C40.4012 1.44495 40.2812 1.33215 40.1641 1.22406L40.1564 1.21686L40.1564 1.21684C39.846 0.925886 39.6005 0.695757 39.4399 0.461425C39.2353 0.173035 38.9008 0 38.5466 0C38.3188 0 38.1014 0.0687865 37.9151 0.201233C37.6767 0.369568 37.5182 0.621215 37.4691 0.908752C37.4199 1.19757 37.4853 1.48767 37.6536 1.72607C37.6541 1.72607 37.6549 1.72607 37.6549 1.72693ZM31.0137 2.82064C31.7747 3.5256 32.3754 4.08273 32.3754 5.91647C32.3754 6.52059 32.865 7.01022 33.4691 7.01022C34.0732 7.01022 34.5629 6.52059 34.5629 5.91647C34.5629 3.1278 33.3712 2.02329 32.5009 1.21668L32.5006 1.21634L32.4987 1.21459L32.4987 1.21457C32.2136 0.95 31.9669 0.72101 31.7832 0.461819C31.4346 -0.0312222 30.7518 -0.14786 30.2588 0.2012C29.7658 0.549832 29.6491 1.23257 29.9977 1.72561C30.312 2.16919 30.6822 2.51286 31.0092 2.81646L31.0093 2.81649L31.0093 2.81651L31.0093 2.81652L31.0137 2.82064ZM47.6875 18.8125H34.351C34.0765 17.3902 33.2839 16.5854 32.6224 15.9136L32.6211 15.9123L32.6207 15.912C31.8433 15.123 31.2812 14.5526 31.2812 12.9861C31.2812 12.382 30.7916 11.8924 30.1875 11.8924C29.5834 11.8924 29.0937 12.382 29.0937 12.9861C29.0937 15.4489 30.1855 16.5572 31.0626 17.4476L31.0629 17.4478C31.5248 17.9165 31.8858 18.2848 32.0866 18.8125H27.7885C27.5138 17.3896 26.7207 16.5847 26.059 15.9132L26.0586 15.9127L26.0578 15.9119C25.2806 15.1228 24.7187 14.5523 24.7187 12.9861C24.7187 11.4873 25.2696 10.9539 26.0324 10.2155L26.0329 10.215C26.9092 9.3669 28 8.31118 28 5.91647C28 3.1278 26.8083 2.02329 25.938 1.21668L25.9377 1.21634L25.9358 1.21459L25.9358 1.21456L25.9357 1.21455L25.9357 1.21451C25.6507 0.949963 25.404 0.720989 25.2203 0.461819C24.8717 -0.0312222 24.189 -0.14786 23.6959 0.201199C23.2029 0.549832 23.0862 1.23257 23.4349 1.72561C23.7492 2.16922 24.1194 2.51291 24.4464 2.81652L24.4509 2.82064C25.2118 3.5256 25.8125 4.08273 25.8125 5.91647C25.8125 7.38405 25.2669 7.91213 24.5115 8.64315L24.5111 8.64353C23.6289 9.49753 22.5312 10.5601 22.5312 12.9861C22.5312 15.4492 23.6229 16.5574 24.5004 17.4478C24.9623 17.9165 25.3233 18.2848 25.5241 18.8125H20.1301C20.0263 18.2801 19.8439 17.7866 19.5858 17.3534C19.2991 16.8668 18.9599 16.4882 18.6365 16.1516L18.5354 16.0489L18.4502 15.9623C18.0524 15.5577 17.7384 15.2381 17.5141 14.8651C17.2834 14.4759 17.068 13.979 17.0625 12.9861C17.0646 12.3418 17.1586 11.8637 17.3688 11.4339C17.5491 11.072 17.8016 10.7824 18.1268 10.4594C18.3335 10.253 18.448 9.97829 18.4493 9.68606C18.4493 9.39425 18.3365 9.11953 18.1298 8.91189C17.9234 8.70424 17.6487 8.59017 17.3556 8.59017C17.0633 8.59017 16.7899 8.70296 16.5835 8.90847C16.1883 9.30111 15.7402 9.79329 15.4086 10.4628C15.0523 11.1771 14.8729 12.0269 14.875 12.9861C14.8716 14.0371 15.0818 14.9647 15.4971 15.7423C15.9143 16.5136 16.4372 17.0391 16.8581 17.4622L16.86 17.4641L16.876 17.4802C17.0376 17.6425 17.19 17.7958 17.3137 17.943C17.5675 18.2318 17.7239 18.4689 17.8379 18.736C17.8482 18.7612 17.8576 18.7868 17.867 18.8125H8.3125C7.70837 18.8125 7.21875 19.3021 7.21875 19.9062V33.0312C7.21875 33.6353 7.70837 34.1249 8.3125 34.1249H10.5V54.9062C10.5 55.5103 10.9896 55.9999 11.5937 55.9999H44.4062C45.0103 55.9999 45.5 55.5103 45.5 54.9062V34.1249H47.6875C48.2916 34.1249 48.7812 33.6353 48.7812 33.0312V19.9062C48.7812 19.3021 48.2916 18.8125 47.6875 18.8125ZM32.375 34.1249V37.4062H23.625V34.1249H32.375ZM43.3125 39.5937V42.8749H40.0312V39.5937H43.3125ZM34.5625 48.3437V45.0624H43.3125V48.3437H34.5625ZM23.625 48.3437V45.0624H32.375V48.3437H23.625ZM12.6875 48.3437V45.0624H21.4375V48.3437H12.6875ZM26.9062 39.5937V42.8749H18.1562V39.5937H26.9062ZM15.9687 42.8749H12.6875V39.5937H15.9687V42.8749ZM37.8437 42.8749H29.0937V39.5937H37.8437V42.8749ZM21.4375 37.4062H12.6875V34.1249H21.4375V37.4062ZM12.6875 50.5312H15.9687V53.8124H12.6875V50.5312ZM18.1562 50.5312H26.9062V53.8124H18.1562V50.5312ZM29.0937 50.5312H37.8437V53.8124H29.0937V50.5312ZM43.3125 53.8124H40.0312V50.5312H43.3125V53.8124ZM43.3125 37.4062H34.5625V34.1249H43.3125V37.4062ZM46.5937 31.9374H9.40625V21H46.5937V31.9374ZM29.0937 27.5625H22.5312C21.9271 27.5625 21.4375 28.0521 21.4375 28.6562C21.4375 29.2604 21.9271 29.75 22.5312 29.75H29.0937C29.6979 29.75 30.1875 29.2604 30.1875 28.6562C30.1875 28.0521 29.6979 27.5625 29.0937 27.5625ZM23.625 23.1875C24.2278 23.1875 24.7187 23.6784 24.7187 24.2812C24.7187 24.8837 24.2278 25.375 23.625 25.375H17.0625C16.4597 25.375 15.9688 24.8837 15.9688 24.2812C15.9688 23.6784 16.4597 23.1875 17.0625 23.1875H23.625ZM12.6875 23.1875C12.0847 23.1875 11.5938 23.6784 11.5938 24.2812C11.5938 24.8837 12.0847 25.375 12.6875 25.375C13.2903 25.375 13.7812 24.8837 13.7812 24.2812C13.7812 23.6784 13.2903 23.1875 12.6875 23.1875ZM43.3125 25.375H38.9375C38.3334 25.375 37.8438 24.8854 37.8438 24.2812C37.8438 23.6771 38.3334 23.1875 38.9375 23.1875H43.3125C43.9166 23.1875 44.4062 23.6771 44.4062 24.2812C44.4062 24.8854 43.9166 25.375 43.3125 25.375ZM37.8483 13.8471C37.8351 13.8471 37.8231 13.8471 37.8098 13.8463C37.2074 13.8254 36.734 13.3178 36.7545 12.7154C36.7644 12.43 36.8836 12.1638 37.0891 11.966C37.3036 11.7592 37.5868 11.6498 37.8855 11.6609C38.1777 11.6708 38.449 11.7934 38.6477 12.0074C38.8472 12.221 38.951 12.4996 38.9412 12.7918C38.9309 13.0772 38.8117 13.343 38.6075 13.5408C38.402 13.739 38.1328 13.8471 37.8483 13.8471ZM19.25 7.02344H19.2479C18.645 7.02258 18.155 6.53039 18.1563 5.92755C18.1575 5.32599 18.6484 4.83594 19.25 4.83594H19.2521C19.855 4.83722 20.345 5.32812 20.3438 5.93182V5.9331C20.3416 6.53467 19.8516 7.02344 19.25 7.02344Z" fill="url(#paint0_linear_230_6694)"/>
<defs>
<linearGradient id="paint0_linear_230_6694" x1="25.8352" y1="-5.14894" x2="35.6225" y2="61.6637" gradientUnits="userSpaceOnUse">
<stop stop-color="#75B7FF"/>
<stop offset="1" stop-color="#0044E8"/>
</linearGradient>
</defs>
</svg>
