<svg width="132" height="132" viewBox="0 0 132 132" fill="none" xmlns="http://www.w3.org/2000/svg">
<path fill-rule="evenodd" clip-rule="evenodd" d="M66 12C36.1766 12 12 36.1766 12 66C12 95.8234 36.1766 120 66 120C95.8234 120 120 95.8234 120 66C120 36.1766 95.8234 12 66 12ZM0 66C0 29.5492 29.5492 0 66 0C102.451 0 132 29.5492 132 66C132 102.451 102.451 132 66 132C29.5492 132 0 102.451 0 66Z" fill="#F3F6FA"/>
<path fill-rule="evenodd" clip-rule="evenodd" d="M66 12C36.1766 12 12 36.1766 12 66C12 95.8234 36.1766 120 66 120C95.8234 120 120 95.8234 120 66C120 45.4683 108.543 27.6034 91.6459 18.4654C88.7311 16.8891 87.646 13.2484 89.2223 10.3336C90.7986 7.41882 94.4393 6.33374 97.3541 7.91002C117.973 19.0602 132 40.8875 132 66C132 102.451 102.451 132 66 132C29.5492 132 0 102.451 0 66C0 29.5492 29.5492 0 66 0C69.3137 0 72 2.68629 72 6C72 9.31371 69.3137 12 66 12Z" fill="url(#paint0_linear_2636_156)"/>
<path fill-rule="evenodd" clip-rule="evenodd" d="M38 85.2782C38 90.0882 41.9119 94.0001 46.7219 94.0001H85.2781C90.0881 94.0001 94 90.0882 94 85.2782V46.7219C94 41.9119 90.0881 38 85.2781 38H46.7219C41.9119 38 38 41.9119 38 46.7219V85.2782ZM46.7219 92.3595C42.818 92.3595 39.6406 89.1821 39.6406 85.2782V46.7219C39.6406 42.818 42.818 39.6406 46.7219 39.6406H85.2781C89.182 39.6406 92.3594 42.818 92.3594 46.7219V85.2782C92.3594 89.1821 89.182 92.3595 85.2781 92.3595H46.7219ZM41.8947 85.278C41.8947 87.9441 44.0559 90.1052 46.7219 90.1052H85.2781C87.944 90.1052 90.1052 87.9441 90.1052 85.278V46.7219C90.1052 44.0559 87.944 41.8948 85.2781 41.8948H46.7219C44.0559 41.8948 41.8947 44.0559 41.8947 46.7219V49.2075C41.8947 49.6606 42.262 50.0278 42.715 50.0278C43.1681 50.0278 43.5354 49.6606 43.5354 49.2075V46.7219C43.5354 44.962 44.9619 43.5354 46.7219 43.5354H85.2781C87.0379 43.5354 88.4646 44.9621 88.4646 46.7219V85.278C88.4646 87.038 87.0379 88.4646 85.2781 88.4646H46.7219C44.962 88.4646 43.5354 87.038 43.5354 85.278V53.0425C43.5354 52.5895 43.1681 52.2222 42.715 52.2222C42.262 52.2222 41.8947 52.5895 41.8947 53.0425V85.278ZM66.0073 86.4117C61.2192 86.4117 56.8185 84.7435 53.3577 81.9575C53.0048 81.6734 52.9491 81.157 53.2332 80.8041C53.5173 80.4512 54.0336 80.3954 54.3865 80.6795C57.5664 83.2394 61.6069 84.771 66.0073 84.771C76.2499 84.771 84.5529 76.4679 84.5529 66.2255C84.5529 61.8249 83.0213 57.7844 80.4615 54.6046C80.1774 54.2517 80.2331 53.7353 80.586 53.4512C80.9389 53.1671 81.4553 53.2229 81.7394 53.5758C84.5254 57.0366 86.1935 61.4373 86.1935 66.2255C86.1935 77.374 77.156 86.4117 66.0073 86.4117ZM51.6619 79.2606C52.0096 78.9702 52.0561 78.4529 51.7657 78.1052C49.0783 74.8871 47.4618 70.7461 47.4618 66.2253C47.4618 55.9829 55.7649 47.6798 66.0074 47.6798C70.5281 47.6798 74.6691 49.2963 77.8872 51.9837C78.235 52.2741 78.7523 52.2276 79.0427 51.8798C79.3331 51.5321 79.2866 51.0148 78.9388 50.7244C75.4367 47.7998 70.9266 46.0392 66.0074 46.0392C54.8588 46.0392 45.8212 55.0768 45.8212 66.2253C45.8212 71.1445 47.5818 75.6547 50.5064 79.1568C50.7968 79.5045 51.3141 79.551 51.6619 79.2606ZM83.6275 87.5471C81.8456 87.5471 80.4009 86.1025 80.4009 84.3206C80.4009 82.5386 81.8456 81.094 83.6275 81.094C85.4093 81.094 86.8541 82.5386 86.8541 84.3206C86.8541 86.1025 85.4093 87.5471 83.6275 87.5471ZM82.0416 84.3206C82.0416 85.1964 82.7517 85.9065 83.6275 85.9065C84.5033 85.9065 85.2135 85.1964 85.2135 84.3206C85.2135 83.4447 84.5033 82.7346 83.6275 82.7346C82.7517 82.7346 82.0416 83.4447 82.0416 84.3206ZM66.397 70.6539C66.3944 70.6667 66.3914 70.6795 66.3881 70.6923C65.9653 72.3391 65.0573 73.9788 63.9475 75.3419C62.8413 76.7006 61.484 77.8466 60.1119 78.4474C58.1523 79.3054 56.0842 79.0248 54.3312 78.0697C52.5862 77.1189 51.1152 75.4854 50.2627 73.5385C49.0987 70.8803 49.1606 67.7176 50.5264 65.4573L50.5265 65.4571C51.2065 64.3319 52.154 63.4883 53.3352 62.9712C54.0581 62.6546 54.7174 62.7036 55.3061 62.9608C55.8115 63.1816 56.2607 63.5587 56.6258 63.865L56.6258 63.8651L56.6258 63.8651L56.6681 63.9006C57.7748 64.8286 58.6878 65.3597 59.5224 65.637C60.1121 65.8329 60.6878 65.9105 61.2987 65.8936C61.3071 65.2874 61.4301 64.7089 61.647 64.1788C60.5278 63.167 59.576 61.8547 58.8792 60.487C58.0839 58.9258 57.5848 57.221 57.5902 55.7232C57.5979 53.584 58.6909 51.806 60.2734 50.589C61.8486 49.3775 63.9374 48.6929 66.0629 48.7005C68.9647 48.711 71.8322 50.0466 73.3471 52.2098L73.3473 52.21C74.1013 53.287 74.4896 54.4946 74.485 55.7841C74.4821 56.5733 74.1706 57.1564 73.6974 57.5908C73.291 57.9637 72.7645 58.2221 72.3366 58.4321L72.2871 58.4564C70.9908 59.0933 70.1358 59.7135 69.5447 60.3647C69.1003 60.8543 68.7848 61.3835 68.548 61.995C69.1105 62.3561 69.5911 62.8336 69.9558 63.3934C71.4224 63.0604 73.0371 63.0345 74.5517 63.2476C76.2867 63.4916 77.9694 64.0607 79.1933 64.9244C80.9411 66.1578 81.7705 68.0729 81.8596 70.0673C81.9483 72.0525 81.311 74.1563 80.0855 75.8928C78.4123 78.2638 75.6734 79.8465 73.0325 79.8465H73.0323C71.7176 79.8464 70.5056 79.4717 69.4521 78.7282C68.8073 78.2732 68.5082 77.6835 68.424 77.0467C68.3516 76.4999 68.4419 75.9204 68.5154 75.4495L68.5239 75.395C68.7458 73.9678 68.7282 72.9117 68.5339 72.054C68.3896 71.4173 68.1417 70.8614 67.784 70.3231C67.3502 70.5 66.8841 70.614 66.397 70.6539ZM67.5921 68.5888C67.1295 68.8683 66.5872 69.0292 66.0074 69.0292C64.3127 69.0292 62.9388 67.6553 62.9388 65.9607C62.9388 64.2659 64.3127 62.8921 66.0074 62.8921C67.2356 62.8921 68.2954 63.6138 68.7857 64.6563C68.7949 64.6791 68.805 64.7013 68.816 64.7229C68.9831 65.1015 69.0759 65.5202 69.0759 65.9607C69.0759 67.0634 68.4941 68.0303 67.6208 68.5712C67.6112 68.5769 67.6016 68.5827 67.5921 68.5888ZM69.1721 69.4479C69.6142 70.1206 69.943 70.8484 70.134 71.6915C70.3886 72.8155 70.3866 74.0931 70.145 75.647C70.0603 76.192 70.0123 76.5439 70.0504 76.8314C70.0794 77.0502 70.1553 77.2164 70.3981 77.3878C71.165 77.929 72.0441 78.2058 73.0323 78.2059H73.0325C75.0543 78.2059 77.3261 76.9575 78.745 74.9469C79.7746 73.4879 80.292 71.739 80.2206 70.1405C80.1496 68.5512 79.5039 67.1516 78.2473 66.2648C77.2977 65.5947 75.8857 65.092 74.3232 64.8722C73.0698 64.6959 71.7708 64.7089 70.6042 64.9336C70.6777 65.2642 70.7165 65.6079 70.7165 65.9607C70.7165 67.3431 70.1208 68.5864 69.1721 69.4479ZM67.0333 61.3636C66.703 61.2902 66.3597 61.2515 66.0074 61.2515C64.6371 61.2515 63.4035 61.8368 62.5429 62.771C61.6822 61.9417 60.9197 60.8781 60.3411 59.7422C59.6248 58.3362 59.2266 56.8913 59.2308 55.7291C59.2363 54.1911 60.0124 52.8594 61.2736 51.8895C62.5419 50.9141 64.2712 50.3347 66.0569 50.3411C68.5178 50.35 70.8435 51.4948 72.0033 53.1509L72.0034 53.1511C72.5702 53.9606 72.8477 54.8394 72.8443 55.7781C72.8433 56.0752 72.7506 56.2328 72.588 56.382C72.3744 56.5782 72.0586 56.7407 71.5636 56.9839C70.1522 57.6774 69.1045 58.4087 68.3299 59.262C67.7419 59.9097 67.3317 60.6052 67.0333 61.3636ZM61.5641 67.5244C60.7111 67.572 59.8735 67.4824 59.0051 67.1939C57.9114 66.8305 56.8189 66.1681 55.614 65.1577C55.1913 64.8034 54.915 64.5803 54.6492 64.4642C54.447 64.3758 54.2654 64.3549 53.9932 64.474C53.1333 64.8505 52.4418 65.4598 51.9307 66.3056L51.9305 66.3057C50.8849 68.0361 50.7785 70.6261 51.7655 72.8804C52.4818 74.5162 53.7111 75.8635 55.1161 76.629C56.5131 77.3902 58.045 77.5614 59.4538 76.9445C60.5184 76.4783 61.6789 75.5298 62.6752 74.3061C63.6164 73.15 64.3656 71.8037 64.741 70.4976C63.2587 70.0847 62.071 68.9649 61.5641 67.5244Z" fill="url(#paint1_linear_2636_156)"/>
<defs>
<linearGradient id="paint0_linear_2636_156" x1="59.1248" y1="-12.1368" x2="76.4103" y2="146.851" gradientUnits="userSpaceOnUse">
<stop stop-color="#75B7FF"/>
<stop offset="1" stop-color="#0044E8"/>
</linearGradient>
<linearGradient id="paint1_linear_2636_156" x1="63.0832" y1="32.851" x2="70.4165" y2="100.3" gradientUnits="userSpaceOnUse">
<stop stop-color="#75B7FF"/>
<stop offset="1" stop-color="#0044E8"/>
</linearGradient>
</defs>
</svg>
