<svg width="160" height="96" viewBox="0 0 160 96" fill="none" xmlns="http://www.w3.org/2000/svg">
<g clip-path="url(#clip0_230_6316)">
<path d="M34.4391 21.1896C40.0581 21.1846 45.5428 22.9058 50.1501 26.12C47.8536 22.81 44.8578 20.0443 41.3742 18.0184C37.8906 15.9924 34.0043 14.7557 29.9899 14.3954C25.9755 14.0352 21.9309 14.5602 18.1418 15.9336C14.3527 17.3069 10.9117 19.4949 8.06178 22.343C5.21186 25.1912 3.02262 28.63 1.64869 32.4165C0.274761 36.203 -0.250312 40.2448 0.110562 44.2564C0.471435 48.2679 1.70944 52.1514 3.73714 55.6323C5.76483 59.1132 8.53274 62.1067 11.8453 64.4013C8.97526 60.2764 7.29049 55.4448 6.97377 50.4308C6.65706 45.4168 7.72051 40.4118 10.0487 35.959C12.3769 31.5062 15.881 27.7755 20.1807 25.1719C24.4804 22.5682 29.4116 21.191 34.4391 21.1896Z" fill="url(#paint0_linear_230_6316)"/>
<path d="M19.6374 46.4874C19.633 40.8735 21.3554 35.394 24.5713 30.791C21.2666 33.0896 18.5067 36.0846 16.4862 39.565C14.4658 43.0453 13.2339 46.9262 12.8776 50.934C12.5212 54.9418 13.049 58.9789 14.4237 62.7607C15.7984 66.5425 17.9866 69.9769 20.834 72.8218C23.6814 75.6666 27.1186 77.8526 30.9034 79.2257C34.6881 80.5987 38.7282 81.1254 42.7387 80.7686C46.7493 80.4117 50.6327 79.18 54.1151 77.1603C57.5975 75.1406 60.5942 72.3822 62.8938 69.0793C58.7649 71.9519 53.9271 73.6388 48.9062 73.9568C43.8852 74.2748 38.8731 73.2116 34.4143 70.8829C29.9555 68.5542 26.2206 65.0489 23.6155 60.748C21.0103 56.447 19.6344 51.5149 19.6374 46.4874Z" fill="url(#paint1_linear_230_6316)"/>
<path d="M66.4164 53.6641C64.6933 54.7553 62.6868 55.315 60.6472 55.2735H60.182C55.5702 58.4567 50.0959 60.1573 44.491 60.1478C38.886 60.1384 33.4174 58.4194 28.8164 55.2207C31.37 58.8947 34.7814 61.8911 38.7552 63.9505C42.729 66.0098 47.1453 67.07 51.6216 67.0391C56.0979 67.0083 60.4991 65.8873 64.4441 63.7733C68.389 61.6593 71.7588 58.6161 74.2613 54.9072H66.4164V53.6641Z" fill="url(#paint2_linear_230_6316)"/>
<path d="M59.338 34.8371C59.3376 36.113 59.2493 37.3874 59.0736 38.6512V44.5149C59.0529 45.0809 59.1328 45.6461 59.3098 46.1842C61.8147 43.3815 63.7185 40.0957 64.9037 36.5294C66.0888 32.9631 66.5302 29.192 66.2006 25.4487C65.871 21.7053 64.7773 18.0692 62.9872 14.7645C61.197 11.4599 58.7483 8.55676 55.792 6.2343C52.8357 3.91183 49.4346 2.21926 45.7985 1.261C42.1624 0.30274 38.3684 0.0991143 34.6504 0.662667C30.9325 1.22622 27.3696 2.545 24.1814 4.53768C20.9932 6.53035 18.2474 9.15466 16.1133 12.2487C20.2419 9.38019 25.0778 7.69652 30.0963 7.38045C35.1148 7.06439 40.1241 8.12801 44.5804 10.4558C49.0367 12.7837 52.7698 16.2868 55.3745 20.585C57.9793 24.8832 59.3561 29.8123 59.3556 34.8371H59.338Z" fill="url(#paint3_linear_230_6316)"/>
<path d="M41.5527 28.3535H29.5703V52.7979H33.521V45.4269H41.5527C46.9941 45.4269 50.7157 42.289 50.7157 36.8902C50.7157 31.4914 46.9941 28.3535 41.5527 28.3535ZM41.2003 41.8876H33.521V31.8929H41.1897C44.876 31.8929 46.7721 33.2804 46.7721 36.8902C46.7721 40.5 44.876 41.8876 41.1897 41.8876H41.2003Z" fill="#83C1FF"/>
<path d="M72.149 52.7971V34.6637H68.2406V43.6406C68.2406 47.5779 66.3798 49.6275 62.3657 49.6275C58.5313 49.6275 56.963 47.916 56.963 44.521V34.6602H53.0547V45.5775C53.0547 49.7719 55.5216 53.1634 60.6494 53.1634C65.3225 53.1634 67.7296 50.2438 68.3146 47.1764H68.5331V52.8112L72.149 52.7971Z" fill="#83C1FF"/>
<path d="M75.7266 34.6655V52.7989H79.6702V42.6211C79.6702 39.374 80.9459 37.659 84.0508 37.659C86.7503 37.659 87.8464 38.8634 87.8464 41.4519V43.0578H91.7512V40.6876C91.7512 37.2575 89.9644 34.3027 85.8376 34.3027C82.116 34.3027 80.1424 36.6376 79.5962 39.5536H79.3389V34.6655H75.7266Z" fill="#83C1FF"/>
<path d="M112.739 42.9099C112.739 37.4019 108.908 34.3027 103.283 34.3027C97.3696 34.3027 93.5 38.0957 93.5 43.7516C93.5 49.8054 97.4084 53.1616 103.368 53.1616C108.77 53.1616 112.566 50.4992 112.566 46.6323V46.3048H108.615V46.5971C108.615 48.7489 107.044 49.9886 103.248 49.9886C99.0507 49.9886 97.3343 48.1291 97.1863 44.625H112.594C112.701 44.0597 112.75 43.485 112.739 42.9099ZM109.017 42.4379H97.2251C97.4436 39.1909 99.1951 37.4019 103.216 37.4019C107.093 37.4019 109.021 39.0078 109.021 42.364L109.017 42.4379Z" fill="#83C1FF"/>
<path d="M89.1609 75.4394H88.8684L80.3997 54.9746H75.7266L86.1653 79.4155H91.7512L102.194 54.9746H97.5556L89.1609 75.4394Z" fill="url(#paint4_linear_230_6316)"/>
<path d="M112.924 60.9219C107.01 60.9219 103.141 64.7148 103.141 70.3707C103.141 76.4246 107.045 79.7808 113.008 79.7808C118.411 79.7808 122.207 77.1183 122.207 73.2515V72.931H118.263V73.2233C118.263 75.3751 116.695 76.6147 112.899 76.6147C108.702 76.6147 106.986 74.7553 106.838 71.2511H122.242C122.352 70.6863 122.402 70.1114 122.39 69.536C122.379 64.021 118.545 60.9219 112.924 60.9219ZM118.668 69.0571H106.866C107.084 65.81 108.836 64.021 112.857 64.021C116.734 64.021 118.661 65.6269 118.661 68.9831L118.668 69.0571Z" fill="url(#paint5_linear_230_6316)"/>
<path d="M136.761 60.9219C132.18 60.9219 129.752 63.8379 129.206 66.9088H128.952V61.274H125.336V79.404H129.28V70.4411C129.28 66.5038 131.066 64.4542 135.045 64.4542C138.806 64.4542 140.332 66.1657 140.332 69.5607V79.4216H144.275V68.5042C144.282 64.3133 141.801 60.9219 136.761 60.9219Z" fill="url(#paint6_linear_230_6316)"/>
<path d="M159.687 64.5706V61.2848H153.118V37.1292C153.118 34.981 152.264 32.9207 150.744 31.4016C149.224 29.8826 147.162 29.0292 145.012 29.0292H76.8961C74.87 24.1489 71.4856 19.9518 67.1445 16.9355C70.3476 21.5184 72.0694 26.9715 72.0785 32.5615H78.0696H144.47C145.726 32.5615 146.931 33.0602 147.819 33.9478C148.707 34.8355 149.206 36.0394 149.206 37.2947V61.3095H146.158V64.5952H149.224V73.2834C149.224 77.6996 151.634 79.4112 155.539 79.4112H159.701V75.8895H156.417C154.154 75.8895 153.132 75.3049 153.132 73.0721V64.5706H159.687Z" fill="url(#paint7_linear_230_6316)"/>
</g>
<path d="M13.7308 94.0937V87.9857H12.3633V94.0937H13.7308Z" fill="url(#paint8_linear_230_6316)"/>
<path d="M16.0875 94.0937V91.1491L16.0328 90.0278H16.124L16.8989 91.1765L19.1506 94.0937H20.6093V87.9857H19.2418V90.9303L19.3056 92.161H19.2053L18.3666 90.8756L16.1787 87.9857H14.72V94.0937H16.0875Z" fill="url(#paint9_linear_230_6316)"/>
<path d="M24.6259 94.0937C26.5859 94.0937 27.8258 92.9542 27.8258 91.0397C27.8258 89.1253 26.5859 87.9857 24.6259 87.9857H21.6812V94.0937H24.6259ZM24.6259 89.2164C25.8657 89.2164 26.3671 89.572 26.3671 91.0397C26.3671 92.5075 25.8657 92.863 24.6259 92.863H23.0487V89.2164H24.6259Z" fill="url(#paint10_linear_230_6316)"/>
<path d="M31.8376 94.1849C33.9071 94.1849 35.156 92.9451 35.156 91.0397C35.156 89.1344 33.9071 87.8945 31.8376 87.8945C29.8138 87.8945 28.5557 89.1344 28.5557 91.0397C28.5557 92.9451 29.8138 94.1849 31.8376 94.1849ZM31.8376 92.8721C30.4975 92.8721 30.0052 92.3981 30.0052 91.0397C30.0052 89.6814 30.4975 89.2073 31.8376 89.2073C33.1778 89.2073 33.6974 89.6814 33.6974 91.0397C33.6974 92.3981 33.1778 92.8721 31.8376 92.8721Z" fill="url(#paint11_linear_230_6316)"/>
<path d="M39.1711 94.1849C41.2405 94.1849 42.4895 92.9451 42.4895 91.0397C42.4895 89.1344 41.2405 87.8945 39.1711 87.8945C37.1472 87.8945 35.8891 89.1344 35.8891 91.0397C35.8891 92.9451 37.1472 94.1849 39.1711 94.1849ZM39.1711 92.8721C37.8309 92.8721 37.3387 92.3981 37.3387 91.0397C37.3387 89.6814 37.8309 89.2073 39.1711 89.2073C40.5112 89.2073 41.0308 89.6814 41.0308 91.0397C41.0308 92.3981 40.5112 92.8721 39.1711 92.8721Z" fill="url(#paint12_linear_230_6316)"/>
<path d="M44.7268 94.0937V91.8784H45.6293C46.3404 91.8784 46.5683 92.0334 46.8145 92.5075L47.6532 94.0937H49.2394L48.3551 92.4528C48.1272 92.0243 47.9175 91.7326 47.3706 91.5867V91.5138C48.5192 91.4044 49.0936 90.8118 49.0936 89.8181C49.0936 88.6512 48.2366 87.9857 46.7324 87.9857H43.3593V94.0937H44.7268ZM44.7268 89.2164H46.7233C47.3706 89.2164 47.6623 89.4261 47.6623 90.0278C47.6623 90.6659 47.3706 90.8483 46.7233 90.8483H44.7268V89.2164Z" fill="url(#paint13_linear_230_6316)"/>
<path d="M52.7464 94.0937L53.3298 92.7445H56.3838L56.9582 94.0937H58.5262L55.8368 87.9857H53.8859L51.2148 94.0937H52.7464ZM54.4329 90.1828L54.8067 89.2347H54.907L55.2807 90.1828L55.8551 91.5138H53.8586L54.4329 90.1828Z" fill="url(#paint14_linear_230_6316)"/>
<path d="M60.4862 94.0937V87.9857H59.1187V94.0937H60.4862Z" fill="url(#paint15_linear_230_6316)"/>
<path d="M62.8429 94.0937V91.8784H63.7455C64.4565 91.8784 64.6845 92.0334 64.9306 92.5075L65.7693 94.0937H67.3556L66.4713 92.4528C66.2434 92.0243 66.0337 91.7326 65.4867 91.5867V91.5138C66.6354 91.4044 67.2097 90.8118 67.2097 89.8181C67.2097 88.6512 66.3528 87.9857 64.8486 87.9857H61.4755V94.0937H62.8429ZM62.8429 89.2164H64.8394C65.4867 89.2164 65.7784 89.4261 65.7784 90.0278C65.7784 90.6659 65.4867 90.8483 64.8394 90.8483H62.8429V89.2164Z" fill="url(#paint16_linear_230_6316)"/>
<path d="M75.3387 95.3792L74.1262 94.0117C75.4481 93.6106 76.2048 92.5257 76.2048 91.0397C76.2048 89.1344 74.9558 87.8945 72.8864 87.8945C70.8625 87.8945 69.6044 89.1344 69.6044 91.0397C69.6044 92.8539 70.744 94.0664 72.6129 94.1758L73.561 95.3792H75.3387ZM72.8864 92.8721C71.5462 92.8721 71.054 92.3981 71.054 91.0397C71.054 89.6814 71.5462 89.2073 72.8864 89.2073C74.2265 89.2073 74.7461 89.6814 74.7461 91.0397C74.7461 92.3981 74.2265 92.8721 72.8864 92.8721Z" fill="url(#paint17_linear_230_6316)"/>
<path d="M80.0283 94.1849C82.0248 94.1849 83.0277 93.1821 83.0277 91.5411V87.9857H81.6602V91.4408C81.6602 92.4801 81.2773 92.8539 80.0283 92.8539C78.7885 92.8539 78.3965 92.4801 78.3965 91.4408V87.9857H77.029V91.5411C77.029 93.1821 78.041 94.1849 80.0283 94.1849Z" fill="url(#paint18_linear_230_6316)"/>
<path d="M85.1109 94.0937L85.6944 92.7445H88.7484L89.3227 94.0937H90.8908L88.2014 87.9857H86.2505L83.5794 94.0937H85.1109ZM86.7975 90.1828L87.1712 89.2347H87.2715L87.6453 90.1828L88.2196 91.5138H86.2231L86.7975 90.1828Z" fill="url(#paint19_linear_230_6316)"/>
<path d="M96.4882 94.0937V92.863H92.8507V87.9857H91.4833V94.0937H96.4882Z" fill="url(#paint20_linear_230_6316)"/>
<path d="M98.6796 94.0937V87.9857H97.3121V94.0937H98.6796Z" fill="url(#paint21_linear_230_6316)"/>
<path d="M103.069 94.0937V89.2164H105.339V87.9857H99.4318V89.2164H101.702V94.0937H103.069Z" fill="url(#paint22_linear_230_6316)"/>
<path d="M109.722 94.0937V92.079L112.476 87.9857H110.78L109.613 89.7725L109.102 90.593H109.002L108.492 89.7725L107.325 87.9857H105.638L108.346 92.0699V94.0937H109.722Z" fill="url(#paint23_linear_230_6316)"/>
<path d="M119.858 94.0937V92.863H116.057V91.6323H119.722V90.4107H116.057V89.2164H119.858V87.9857H114.689V94.0937H119.858Z" fill="url(#paint24_linear_230_6316)"/>
<path d="M122.126 94.0937L123.785 91.8875H123.886L125.591 94.0937H127.377L125.007 91.1035V91.0033L127.377 87.9857H125.591L123.94 90.1645H123.84L122.126 87.9857H120.339L122.719 90.9759V91.0762L120.339 94.0937H122.126Z" fill="url(#paint25_linear_230_6316)"/>
<path d="M129.335 94.0937V92.4072H131.158C132.571 92.4072 133.483 91.5958 133.483 90.1919C133.483 88.7879 132.571 87.9857 131.158 87.9857H127.967V94.0937H129.335ZM131.012 89.2164C131.769 89.2164 132.124 89.4443 132.124 90.1919C132.124 90.9577 131.769 91.1765 131.012 91.1765H129.335V89.2164H131.012Z" fill="url(#paint26_linear_230_6316)"/>
<path d="M139.41 94.0937V92.863H135.609V91.6323H139.274V90.4107H135.609V89.2164H139.41V87.9857H134.241V94.0937H139.41Z" fill="url(#paint27_linear_230_6316)"/>
<path d="M141.669 94.0937V91.8784H142.572C143.283 91.8784 143.511 92.0334 143.757 92.5075L144.596 94.0937H146.182L145.297 92.4528C145.07 92.0243 144.86 91.7326 144.313 91.5867V91.5138C145.462 91.4044 146.036 90.8118 146.036 89.8181C146.036 88.6512 145.179 87.9857 143.675 87.9857H140.302V94.0937H141.669ZM141.669 89.2164H143.666C144.313 89.2164 144.605 89.4261 144.605 90.0278C144.605 90.6659 144.313 90.8483 143.666 90.8483H141.669V89.2164Z" fill="url(#paint28_linear_230_6316)"/>
<path d="M150.288 94.0937V89.2164H152.558V87.9857H146.65V89.2164H148.92V94.0937H150.288Z" fill="url(#paint29_linear_230_6316)"/>
<path d="M156.093 94.1849C158.035 94.1849 158.81 93.2915 158.81 92.2978C158.81 91.4591 158.317 90.7936 156.95 90.5748L155.236 90.3013C154.725 90.2101 154.525 90.0825 154.525 89.7269C154.525 89.3349 154.826 89.1435 155.81 89.1435C157.023 89.1435 157.324 89.3896 157.324 89.9731V90.1007H158.7V90.046C158.7 88.7606 157.825 87.8945 155.947 87.8945C153.896 87.8945 153.148 88.8609 153.148 89.7816C153.148 90.7753 153.796 91.3223 154.89 91.4955L156.603 91.7417C157.232 91.8511 157.442 91.9878 157.442 92.3616C157.442 92.7718 157.187 92.9359 156.093 92.9359C154.853 92.9359 154.57 92.708 154.57 92.1428V91.9787H153.203V92.0334C153.203 93.4556 154.242 94.1849 156.093 94.1849Z" fill="url(#paint30_linear_230_6316)"/>
<defs>
<linearGradient id="paint0_linear_230_6316" x1="-0.535319" y1="-9.82991" x2="61.4515" y2="104.699" gradientUnits="userSpaceOnUse">
<stop stop-color="#001AFF"/>
<stop offset="0.92" stop-color="#65AFFF"/>
</linearGradient>
<linearGradient id="paint1_linear_230_6316" x1="-2.11766" y1="-8.97294" x2="59.8692" y2="105.555" gradientUnits="userSpaceOnUse">
<stop stop-color="#001AFF"/>
<stop offset="0.92" stop-color="#65AFFF"/>
</linearGradient>
<linearGradient id="paint2_linear_230_6316" x1="12.538" y1="-16.9046" x2="74.5249" y2="97.6204" gradientUnits="userSpaceOnUse">
<stop stop-color="#001AFF"/>
<stop offset="0.92" stop-color="#65AFFF"/>
</linearGradient>
<linearGradient id="paint3_linear_230_6316" x1="20.6278" y1="-21.2818" x2="82.6146" y2="93.2431" gradientUnits="userSpaceOnUse">
<stop stop-color="#001AFF"/>
<stop offset="0.92" stop-color="#65AFFF"/>
</linearGradient>
<linearGradient id="paint4_linear_230_6316" x1="191.695" y1="87.8536" x2="5.98985" y2="48.4555" gradientUnits="userSpaceOnUse">
<stop offset="0.51" stop-color="#001A7A"/>
<stop offset="0.92" stop-color="#65AFFF"/>
</linearGradient>
<linearGradient id="paint5_linear_230_6316" x1="191.86" y1="87.0708" x2="6.15802" y2="47.6726" gradientUnits="userSpaceOnUse">
<stop offset="0.51" stop-color="#001A7A"/>
<stop offset="0.92" stop-color="#65AFFF"/>
</linearGradient>
<linearGradient id="paint6_linear_230_6316" x1="192.698" y1="83.1194" x2="6.9966" y2="43.7177" gradientUnits="userSpaceOnUse">
<stop offset="0.51" stop-color="#001A7A"/>
<stop offset="0.92" stop-color="#65AFFF"/>
</linearGradient>
<linearGradient id="paint7_linear_230_6316" x1="196.734" y1="64.0987" x2="11.0325" y2="24.697" gradientUnits="userSpaceOnUse">
<stop offset="0.51" stop-color="#001A7A"/>
<stop offset="0.92" stop-color="#65AFFF"/>
</linearGradient>
<linearGradient id="paint8_linear_230_6316" x1="-31.1321" y1="81.9524" x2="-30.52" y2="104.064" gradientUnits="userSpaceOnUse">
<stop stop-color="#001AFF"/>
<stop offset="0.92" stop-color="#65AFFF"/>
</linearGradient>
<linearGradient id="paint9_linear_230_6316" x1="-31.1321" y1="81.9524" x2="-30.52" y2="104.064" gradientUnits="userSpaceOnUse">
<stop stop-color="#001AFF"/>
<stop offset="0.92" stop-color="#65AFFF"/>
</linearGradient>
<linearGradient id="paint10_linear_230_6316" x1="-31.1321" y1="81.9524" x2="-30.52" y2="104.064" gradientUnits="userSpaceOnUse">
<stop stop-color="#001AFF"/>
<stop offset="0.92" stop-color="#65AFFF"/>
</linearGradient>
<linearGradient id="paint11_linear_230_6316" x1="-31.1321" y1="81.9524" x2="-30.52" y2="104.064" gradientUnits="userSpaceOnUse">
<stop stop-color="#001AFF"/>
<stop offset="0.92" stop-color="#65AFFF"/>
</linearGradient>
<linearGradient id="paint12_linear_230_6316" x1="-31.1321" y1="81.9524" x2="-30.52" y2="104.064" gradientUnits="userSpaceOnUse">
<stop stop-color="#001AFF"/>
<stop offset="0.92" stop-color="#65AFFF"/>
</linearGradient>
<linearGradient id="paint13_linear_230_6316" x1="-31.1321" y1="81.9524" x2="-30.52" y2="104.064" gradientUnits="userSpaceOnUse">
<stop stop-color="#001AFF"/>
<stop offset="0.92" stop-color="#65AFFF"/>
</linearGradient>
<linearGradient id="paint14_linear_230_6316" x1="-31.1321" y1="81.9524" x2="-30.52" y2="104.064" gradientUnits="userSpaceOnUse">
<stop stop-color="#001AFF"/>
<stop offset="0.92" stop-color="#65AFFF"/>
</linearGradient>
<linearGradient id="paint15_linear_230_6316" x1="-31.1321" y1="81.9524" x2="-30.52" y2="104.064" gradientUnits="userSpaceOnUse">
<stop stop-color="#001AFF"/>
<stop offset="0.92" stop-color="#65AFFF"/>
</linearGradient>
<linearGradient id="paint16_linear_230_6316" x1="-31.1321" y1="81.9524" x2="-30.52" y2="104.064" gradientUnits="userSpaceOnUse">
<stop stop-color="#001AFF"/>
<stop offset="0.92" stop-color="#65AFFF"/>
</linearGradient>
<linearGradient id="paint17_linear_230_6316" x1="-31.1321" y1="81.9524" x2="-30.52" y2="104.064" gradientUnits="userSpaceOnUse">
<stop stop-color="#001AFF"/>
<stop offset="0.92" stop-color="#65AFFF"/>
</linearGradient>
<linearGradient id="paint18_linear_230_6316" x1="-31.1321" y1="81.9524" x2="-30.52" y2="104.064" gradientUnits="userSpaceOnUse">
<stop stop-color="#001AFF"/>
<stop offset="0.92" stop-color="#65AFFF"/>
</linearGradient>
<linearGradient id="paint19_linear_230_6316" x1="-31.1321" y1="81.9524" x2="-30.52" y2="104.064" gradientUnits="userSpaceOnUse">
<stop stop-color="#001AFF"/>
<stop offset="0.92" stop-color="#65AFFF"/>
</linearGradient>
<linearGradient id="paint20_linear_230_6316" x1="-31.1321" y1="81.9524" x2="-30.52" y2="104.064" gradientUnits="userSpaceOnUse">
<stop stop-color="#001AFF"/>
<stop offset="0.92" stop-color="#65AFFF"/>
</linearGradient>
<linearGradient id="paint21_linear_230_6316" x1="-31.1321" y1="81.9524" x2="-30.52" y2="104.064" gradientUnits="userSpaceOnUse">
<stop stop-color="#001AFF"/>
<stop offset="0.92" stop-color="#65AFFF"/>
</linearGradient>
<linearGradient id="paint22_linear_230_6316" x1="-31.1321" y1="81.9524" x2="-30.52" y2="104.064" gradientUnits="userSpaceOnUse">
<stop stop-color="#001AFF"/>
<stop offset="0.92" stop-color="#65AFFF"/>
</linearGradient>
<linearGradient id="paint23_linear_230_6316" x1="-31.1321" y1="81.9524" x2="-30.52" y2="104.064" gradientUnits="userSpaceOnUse">
<stop stop-color="#001AFF"/>
<stop offset="0.92" stop-color="#65AFFF"/>
</linearGradient>
<linearGradient id="paint24_linear_230_6316" x1="-31.1321" y1="81.9524" x2="-30.52" y2="104.064" gradientUnits="userSpaceOnUse">
<stop stop-color="#001AFF"/>
<stop offset="0.92" stop-color="#65AFFF"/>
</linearGradient>
<linearGradient id="paint25_linear_230_6316" x1="-31.1321" y1="81.9524" x2="-30.52" y2="104.064" gradientUnits="userSpaceOnUse">
<stop stop-color="#001AFF"/>
<stop offset="0.92" stop-color="#65AFFF"/>
</linearGradient>
<linearGradient id="paint26_linear_230_6316" x1="-31.1321" y1="81.9524" x2="-30.52" y2="104.064" gradientUnits="userSpaceOnUse">
<stop stop-color="#001AFF"/>
<stop offset="0.92" stop-color="#65AFFF"/>
</linearGradient>
<linearGradient id="paint27_linear_230_6316" x1="-31.1321" y1="81.9524" x2="-30.52" y2="104.064" gradientUnits="userSpaceOnUse">
<stop stop-color="#001AFF"/>
<stop offset="0.92" stop-color="#65AFFF"/>
</linearGradient>
<linearGradient id="paint28_linear_230_6316" x1="-31.1321" y1="81.9524" x2="-30.52" y2="104.064" gradientUnits="userSpaceOnUse">
<stop stop-color="#001AFF"/>
<stop offset="0.92" stop-color="#65AFFF"/>
</linearGradient>
<linearGradient id="paint29_linear_230_6316" x1="-31.1321" y1="81.9524" x2="-30.52" y2="104.064" gradientUnits="userSpaceOnUse">
<stop stop-color="#001AFF"/>
<stop offset="0.92" stop-color="#65AFFF"/>
</linearGradient>
<linearGradient id="paint30_linear_230_6316" x1="-31.1321" y1="81.9524" x2="-30.52" y2="104.064" gradientUnits="userSpaceOnUse">
<stop stop-color="#001AFF"/>
<stop offset="0.92" stop-color="#65AFFF"/>
</linearGradient>
<clipPath id="clip0_230_6316">
<rect width="160" height="81" fill="white"/>
</clipPath>
</defs>
</svg>
