<svg width="86" height="86" viewBox="0 0 86 86" fill="none" xmlns="http://www.w3.org/2000/svg">
<mask id="mask0_230_6336" style="mask-type:luminance" maskUnits="userSpaceOnUse" x="0" y="0" width="86" height="86">
<path d="M0 7.62939e-06H86V86H0V7.62939e-06Z" fill="white"/>
</mask>
<g mask="url(#mask0_230_6336)">
<path fill-rule="evenodd" clip-rule="evenodd" d="M35.2876 85.8398C34.7228 86.1193 34.0495 86.0623 33.5397 85.6918C33.0299 85.3213 32.7679 84.6985 32.8595 84.0749L34.1094 75.5642L28.0895 69.4131C27.6485 68.9624 27.4942 68.3041 27.689 67.7044C27.8838 67.1047 28.3955 66.6628 29.0171 66.5573L37.5071 65.117L41.5001 57.495C41.7926 56.9367 42.3708 56.5868 43.0011 56.5868C43.6314 56.5868 44.2096 56.9367 44.5021 57.495L48.4951 65.1171L56.9805 66.5573C57.602 66.6628 58.1136 67.1046 58.3084 67.7042C58.5033 68.3038 58.3491 68.9619 57.9084 69.4126L51.8927 75.5639L53.1427 84.0749C53.2343 84.6985 52.9722 85.3213 52.4624 85.6918C51.9526 86.0623 51.2793 86.1193 50.7145 85.8398L43.0011 82.0218L35.2876 85.8398ZM37.5844 75.2256L36.6823 81.3681L42.2494 78.6125C42.7231 78.3781 43.2791 78.3781 43.7528 78.6125L49.3199 81.3681L48.4177 75.2256C48.3409 74.7022 48.5129 74.1729 48.8828 73.7947L53.2227 69.3569L47.1002 68.3177C46.5786 68.2292 46.1283 67.9021 45.8828 67.4335L43.0011 61.9328L40.1194 67.4335C39.8739 67.9022 39.4235 68.2292 38.9019 68.3177L32.7764 69.3569L37.119 73.7942C37.4891 74.1725 37.6613 74.702 37.5844 75.2256ZM24.0392 45.7482C34.5095 56.2179 51.4928 56.2179 61.9631 45.7482L61.9634 45.7479C70.4521 37.2635 72.0611 24.5111 66.7934 14.4078C66.3607 13.578 65.3373 13.256 64.5075 13.6887C63.6777 14.1213 63.3557 15.1447 63.7884 15.9745C68.3911 24.8026 66.9801 35.9425 59.5674 43.3513L59.5671 43.3516L59.529 43.3896C58.5884 38.8534 55.8125 34.976 52.0264 32.5642C53.6533 30.5639 54.6282 28.0122 54.6282 25.2329C54.6282 18.8165 49.4247 13.611 43.0013 13.611C36.5789 13.611 31.3696 18.8155 31.3696 25.2329C31.3696 28.0124 32.3454 30.5639 33.9731 32.5641C30.1895 34.9758 27.4139 38.8533 26.4733 43.3896L26.4352 43.3516L26.4349 43.3513C17.2836 34.2047 17.2836 19.3798 26.4349 10.2333C33.8477 2.82426 45.0031 1.41373 53.836 6.02333C54.6657 6.4563 55.6892 6.13473 56.1222 5.30508C56.5552 4.47543 56.2336 3.45187 55.4039 3.01891C45.296 -2.25611 32.528 -0.648232 24.0392 7.8363C13.5637 18.3064 13.5636 35.2778 24.0389 45.7479L24.0392 45.7482ZM37.8027 31.6258L37.8217 31.6405C37.8363 31.6521 37.8508 31.6639 37.8651 31.676C39.2738 32.7991 41.059 33.4705 43.0013 33.4705C44.9276 33.4705 46.699 32.8099 48.1015 31.703C48.1421 31.6669 48.1843 31.633 48.228 31.6012C50.0669 30.0904 51.2393 27.7986 51.2393 25.2329C51.2393 20.6887 47.5536 16.9999 43.0013 16.9999C38.4479 16.9999 34.7585 20.6898 34.7585 25.2329C34.7585 27.8122 35.9451 30.1152 37.8027 31.6258ZM49.396 34.9452C47.5617 36.1551 45.364 36.8594 43.0013 36.8594C40.6382 36.8594 38.4395 36.1549 36.604 34.9444C32.6185 37.1111 29.8346 41.2193 29.5395 45.9641C37.5897 51.6274 48.4126 51.6274 56.4628 45.9641C56.1678 41.2199 53.3843 37.1121 49.396 34.9452ZM61.5171 10.565C62.357 10.1524 62.7034 9.13695 62.2908 8.29699L62.2861 8.28741C61.8735 7.44746 60.8581 7.10103 60.0182 7.51363C59.1782 7.92625 58.8318 8.94166 59.2444 9.78161L59.2491 9.79118C59.6617 10.6311 60.6771 10.9776 61.5171 10.565ZM8.57267 68.7652C9.0825 69.1358 9.7559 69.1928 10.3208 68.9131L15.6762 66.2619L21.0316 68.9131C21.5964 69.1928 22.2698 69.1358 22.7797 68.7652C23.2895 68.3946 23.5515 67.7716 23.4598 67.148L22.5911 61.2417L26.7677 56.9712C27.2084 56.5205 27.3626 55.8625 27.1678 55.263C26.9731 54.6634 26.4617 54.2216 25.8402 54.1159L19.9462 53.114L17.1773 47.8252C16.885 47.2669 16.307 46.9169 15.6767 46.9167C15.0464 46.9165 14.4682 47.2661 14.1755 47.8243L11.4018 53.114L5.51189 54.116C4.8905 54.2217 4.37914 54.6636 4.18446 55.2631C3.98977 55.8626 4.14393 56.5206 4.58465 56.9712L8.7612 61.2417L7.89255 67.148C7.80084 67.7716 8.06283 68.3946 8.57267 68.7652ZM11.7161 64.4409L12.2363 60.9039C12.3133 60.3804 12.1413 59.8509 11.7713 59.4726L9.26932 56.9144L12.7972 56.3142C13.3183 56.2256 13.7682 55.8988 14.0137 55.4306L15.675 52.2622L17.3333 55.4297C17.5787 55.8984 18.0289 56.2256 18.5505 56.3142L22.0827 56.9147L19.5811 59.4726C19.2111 59.8509 19.0391 60.3804 19.1161 60.9039L19.6362 64.4409L16.4279 62.8526C15.9542 62.618 15.3981 62.618 14.9244 62.8526L11.7161 64.4409ZM64.9707 68.9131C64.4059 69.1928 63.7325 69.1358 63.2226 68.7652C62.7128 68.3946 62.4508 67.7716 62.5425 67.148L63.4112 61.2417L59.2346 56.9712C58.7939 56.5206 58.6397 55.8626 58.8344 55.2631C59.0291 54.6636 59.5405 54.2217 60.1619 54.116L66.0518 53.114L68.8254 47.8243C69.118 47.2663 69.6961 46.9167 70.3261 46.9167C70.9562 46.9167 71.5342 47.2663 71.8268 47.8243L74.6004 53.114L80.4904 54.116C81.1118 54.2217 81.6231 54.6636 81.8178 55.2631C82.0125 55.8626 81.8584 56.5206 81.4176 56.9712L77.2411 61.2417L78.1097 67.148C78.2014 67.7716 77.9395 68.3946 77.4296 68.7652C76.9198 69.1358 76.2464 69.1928 75.6815 68.9131L70.3261 66.2619L64.9707 68.9131ZM66.8862 60.9039L66.366 64.4409L69.5743 62.8526C70.0481 62.618 70.6042 62.618 71.0779 62.8526L74.2862 64.4409L73.766 60.9039C73.689 60.3804 73.861 59.8509 74.231 59.4726L76.733 56.9144L73.2051 56.3142C72.684 56.2256 72.2341 55.8988 71.9886 55.4306L70.3261 52.26L68.6636 55.4306C68.4181 55.8988 67.9682 56.2256 67.4471 56.3142L63.9193 56.9144L66.4212 59.4726C66.7912 59.8509 66.9632 60.3804 66.8862 60.9039Z" fill="url(#paint0_linear_230_6336)"/>
</g>
<defs>
<linearGradient id="paint0_linear_230_6336" x1="38.949" y1="-4.78619" x2="27.5801" y2="89.7782" gradientUnits="userSpaceOnUse">
<stop stop-color="#75B7FF"/>
<stop offset="1" stop-color="#0044E8"/>
</linearGradient>
</defs>
</svg>
