<svg width="86" height="86" viewBox="0 0 86 86" fill="none" xmlns="http://www.w3.org/2000/svg">
<g clip-path="url(#clip0_230_6378)">
<path fill-rule="evenodd" clip-rule="evenodd" d="M43.0002 0C42.0729 0 41.3207 0.752165 41.3207 1.67952V8.87095C41.3207 9.79864 42.0727 10.5505 43.0002 10.5505C43.9278 10.5505 44.6798 9.79831 44.6798 8.87095V1.67952C44.6799 0.752165 43.9278 0 43.0002 0ZM77.0202 57.1392L71.4144 55.7998V53.8307C74.5108 52.0016 76.5934 48.6311 76.5934 44.7816V37.3495C76.5934 31.5574 71.8811 26.8452 66.089 26.8452H64.9273C61.8348 26.8452 59.0509 28.1891 57.127 30.3228C55.2637 24.2919 49.6364 19.8973 43.0016 19.8973C36.3669 19.8973 30.7396 24.2915 28.8763 30.3228C26.9524 28.1891 24.1684 26.8452 21.076 26.8452H19.9143C14.1222 26.8452 9.40967 31.5574 9.40967 37.3495V44.7816C9.40967 48.6309 11.4923 52.0016 14.5887 53.8307V55.7998L8.98286 57.1392C3.6962 58.4024 0.00390625 63.0805 0.00390625 68.5158V73.572C0.00390625 74.4995 0.756072 75.2515 1.68343 75.2515H15.2489C15.164 75.9136 15.1201 76.5877 15.1201 77.2705V82.6418H5.04264C4.11512 82.6418 3.36312 83.394 3.36312 84.3213C3.36312 85.2489 4.11528 86.0008 5.04264 86.0008H80.9603C81.8878 86.0008 82.6398 85.2487 82.6398 84.3213C82.6398 83.3938 81.8876 82.6418 80.9603 82.6418H70.8828V77.2786C70.8828 76.5927 70.8386 75.9162 70.753 75.2517H84.3195C85.247 75.2517 85.999 74.4995 85.999 73.5722V68.5159C85.9992 63.0805 82.3067 58.4022 77.0202 57.1392ZM57.7822 37.3495C57.7821 33.4096 60.9874 30.2042 64.9275 30.2042H66.0891C70.0292 30.2042 73.2346 33.4096 73.2346 37.3495V37.7801C70.8108 37.7506 68.4604 37.0364 66.4281 35.7065C65.8694 35.3407 65.1473 35.3407 64.5889 35.7065C62.5566 37.0365 60.2062 37.7507 57.7824 37.7801V37.3495H57.7822ZM57.7821 43.4116V41.1397C60.5015 41.1135 63.149 40.4053 65.5081 39.0765C67.8673 40.4055 70.5148 41.1135 73.2342 41.1397V44.7817C73.2342 48.7218 70.0289 51.9272 66.0888 51.9272H64.9271C60.9871 51.9272 57.7817 48.7218 57.7817 44.7817V43.4116H57.7821ZM61.0034 62.7442C60.3209 62.4756 59.6139 62.2494 58.8828 62.0747L53.5447 60.7993C53.9408 60.6365 54.3501 60.5028 54.7707 60.402L60.0764 59.1305L61.0034 62.7442ZM59.6129 53.8373V55.7874L53.9878 57.1354C52.7716 57.4268 51.6193 57.9085 50.5683 58.5582V56.1035C52.8705 54.7257 54.7684 52.74 56.0387 50.3694C56.9355 51.7909 58.1627 52.983 59.6129 53.8373ZM54.423 43.4116C54.423 49.7093 49.2995 54.8328 43.0018 54.8328C36.7041 54.8328 31.5806 49.7093 31.5806 43.4116V38.4915H33.4266C38.142 38.4915 42.6345 36.9868 46.3278 34.2543L46.7127 34.8296C48.2463 37.1224 50.8092 38.4915 53.5677 38.4915H54.4232L54.423 43.4116ZM31.5802 34.6776C31.5802 28.3801 36.7038 23.2565 43.0015 23.2565C49.2991 23.2565 54.4227 28.3801 54.4227 34.6777V35.1323H53.5672C51.9324 35.1323 50.4134 34.321 49.5044 32.9619L48.8832 32.0334C49.3868 31.5224 49.8692 30.9854 50.3261 30.4202C50.9093 29.6988 50.7971 28.6413 50.0755 28.0582C49.3546 27.4751 48.2967 27.5871 47.7135 28.3089C44.2092 32.6451 39.0018 35.1321 33.4264 35.1321H31.5802V34.6776ZM29.9644 50.3694C31.2376 52.7453 33.1412 54.7348 35.4502 56.1128V58.5676C34.3951 57.9131 33.2374 57.4285 32.0151 57.1355L26.3902 55.7876V53.8375C27.8402 52.983 29.0674 51.7909 29.9644 50.3694ZM32.4399 60.7919L27.1092 62.0693C26.3826 62.2435 25.68 62.4684 25.0017 62.7353L25.9267 59.1308L31.2322 60.4024C31.6463 60.5015 32.0495 60.6325 32.4399 60.7919ZM12.7691 37.3495C12.7689 33.4096 15.9742 30.2042 19.9143 30.2042H21.076C25.016 30.2042 28.2214 33.4096 28.2214 37.3495V37.7801C25.7976 37.7506 23.4472 37.0364 21.4149 35.7065C20.8563 35.3407 20.1342 35.3407 19.5757 35.7065C17.5434 37.0365 15.1932 37.7507 12.7692 37.7801L12.7691 37.3495ZM12.7689 44.7817V41.1397C15.4883 41.1135 18.1358 40.4053 20.495 39.0765C22.8541 40.4055 25.5016 41.1135 28.221 41.1397V43.4116V44.7817C28.221 48.7218 25.0157 51.9272 21.0756 51.9272H19.9139C15.9742 51.9272 12.7689 48.7218 12.7689 44.7817ZM16.0678 71.893H3.36312V71.8926V68.5159C3.36312 64.6416 5.99503 61.3067 9.76324 60.4067L15.0518 59.1433L17.5503 68.8825C16.9523 69.8244 16.454 70.8327 16.0678 71.893ZM17.948 55.0989C18.5853 55.2202 19.2421 55.2862 19.9141 55.2862H21.0758C21.7441 55.2862 22.397 55.2209 23.031 55.1009V56.8999L20.9263 65.1026C20.6804 65.3007 20.4389 65.5038 20.2062 65.7157L17.948 56.9133V55.0989ZM18.4795 82.642V77.271C18.4795 73.1979 20.4573 69.53 23.6086 67.2829L38.9677 82.642H18.4795ZM26.7473 65.6709C27.1203 65.5427 27.5016 65.4295 27.8921 65.336L35.9137 63.4137L39.8561 78.7797L26.7473 65.6709ZM38.8093 61.1831V57.5859C40.1389 57.9797 41.5457 58.1924 43.0015 58.1924C44.4628 58.1924 45.8747 57.9782 47.2091 57.5813V61.2024L43.0119 77.5628L38.8093 61.1831ZM50.105 63.4315L58.1024 65.342C58.5047 65.4381 58.8969 65.5552 59.2809 65.688L46.1603 78.8088L50.105 63.4315ZM67.5236 82.642H47.0776L62.4142 67.3052C65.554 69.5528 67.5236 73.2134 67.5236 77.2787V82.642ZM68.0554 56.9137L65.7955 65.7221C65.5641 65.5113 65.3239 65.3094 65.0793 65.1124L62.9723 56.9002V55.1013C63.6062 55.2212 64.2593 55.2865 64.9275 55.2865H66.0891C66.7614 55.2865 67.4181 55.2205 68.0554 55.0992V56.9137ZM82.6398 71.8926H69.9328C69.5466 70.8341 69.0486 69.8278 68.4515 68.8872L70.9512 59.1431L76.2397 60.4066C80.0081 61.3067 82.6398 64.6416 82.6398 68.5158V71.8926ZM43.0004 13.0316C43.4422 13.0316 43.8755 13.2115 44.1878 13.5237C44.5004 13.8361 44.6801 14.2678 44.6801 14.7113C44.6801 15.153 44.5002 15.5847 44.1878 15.8988C43.8755 16.2112 43.4422 16.391 43.0004 16.391C42.5587 16.391 42.1253 16.2112 41.8129 15.8988C41.5003 15.5864 41.3207 15.153 41.3207 14.7113C41.3207 14.268 41.5005 13.8361 41.8129 13.5237C42.1253 13.2113 42.5568 13.0316 43.0004 13.0316ZM31.8297 13.905L25.6063 7.68293C24.9504 7.02701 23.887 7.02735 23.2309 7.68327C22.5751 8.33919 22.5753 9.4026 23.2312 10.0587L29.4548 16.2808C29.7827 16.6086 30.2127 16.7726 30.6424 16.7726C31.0724 16.7726 31.5022 16.6085 31.8302 16.2804C32.4858 15.6247 32.4856 14.5611 31.8297 13.905ZM60.6454 7.4204C61.3018 6.76465 62.3649 6.76498 63.0208 7.4204C63.6768 8.07632 63.6768 9.1399 63.021 9.79582L56.4185 16.3982C56.0904 16.7261 55.6606 16.8902 55.2308 16.8902C54.8009 16.8902 54.3711 16.7262 54.0429 16.3982C53.387 15.7421 53.387 14.6787 54.0429 14.0228L60.6454 7.4204Z" fill="url(#paint0_linear_230_6378)"/>
</g>
<defs>
<linearGradient id="paint0_linear_230_6378" x1="38.5224" y1="-7.9074" x2="49.785" y2="95.6761" gradientUnits="userSpaceOnUse">
<stop stop-color="#75B7FF"/>
<stop offset="1" stop-color="#0044E8"/>
</linearGradient>
<clipPath id="clip0_230_6378">
<rect width="86" height="86" fill="white"/>
</clipPath>
</defs>
</svg>
