<svg width="86" height="86" viewBox="0 0 86 86" fill="none" xmlns="http://www.w3.org/2000/svg">
<path fill-rule="evenodd" clip-rule="evenodd" d="M72.5625 4.03125H76.5938C78.3751 4.03327 80.0828 4.74179 81.3424 6.00136C82.602 7.26093 83.3105 8.9687 83.3125 10.75V56.4375C83.3105 58.2188 82.602 59.9266 81.3424 61.1861C80.0828 62.4457 78.3751 63.1542 76.5938 63.1562H71.2188V60.4688H76.5938C77.6629 60.4688 78.6883 60.044 79.4443 59.288C80.2003 58.532 80.625 57.5067 80.625 56.4375C80.625 55.3683 80.2003 54.343 79.4443 53.587C78.6883 52.831 77.6629 52.4062 76.5938 52.4062H72.5625C72.2061 52.4062 71.8643 52.2647 71.6123 52.0127C71.3603 51.7607 71.2188 51.4189 71.2188 51.0625V13.4375H14.7812V51.0625C14.7812 51.4189 14.6397 51.7607 14.3877 52.0127C14.1357 52.2647 13.7939 52.4062 13.4375 52.4062H9.40625C8.3371 52.4062 7.31173 52.831 6.55573 53.587C5.79972 54.343 5.375 55.3683 5.375 56.4375C5.375 57.5067 5.79972 58.532 6.55573 59.288C7.31173 60.044 8.3371 60.4688 9.40625 60.4688H12.0938V63.1562H9.40625C7.62495 63.1542 5.91718 62.4457 4.65761 61.1861C3.39804 59.9266 2.68952 58.2188 2.6875 56.4375V10.75C2.68952 8.9687 3.39804 7.26093 4.65761 6.00136C5.91718 4.74179 7.62495 4.03327 9.40625 4.03125H13.4375C13.7939 4.03125 14.1357 4.17283 14.3877 4.42483C14.6397 4.67683 14.7812 5.01862 14.7812 5.375V10.75H71.2188V5.375C71.2188 5.01862 71.3603 4.67683 71.6123 4.42483C71.8643 4.17283 72.2061 4.03125 72.5625 4.03125ZM9.40625 49.7188H12.0938V6.71875H9.40625C8.33747 6.71996 7.3128 7.14507 6.55706 7.90081C5.80132 8.65655 5.37621 9.68122 5.375 10.75V51.0657C6.53641 50.1901 7.95174 49.7172 9.40625 49.7188ZM73.9062 49.7188H76.5938C78.0483 49.7172 79.4636 50.1901 80.625 51.0657V10.75C80.6238 9.68122 80.1987 8.65655 79.4429 7.90081C78.6872 7.14507 77.6625 6.71996 76.5938 6.71875H73.9062V49.7188ZM32.0243 48.4433C30.4166 46.0367 29.5597 43.2068 29.5625 40.3125C29.5625 36.7487 30.9782 33.3308 33.4983 30.8108C36.0183 28.2907 39.4362 26.875 43 26.875C46.5639 26.875 49.9817 28.2907 52.5018 30.8108C55.0218 33.3308 56.4375 36.7487 56.4375 40.3125C56.4403 43.2068 55.5835 46.0367 53.9757 48.4433L51.0625 52.813V63.1562C51.0624 63.3648 51.0135 63.5704 50.9196 63.7567L50.9206 63.7572L48.2331 69.1322C48.1215 69.3554 47.95 69.5431 47.7377 69.6743C47.5254 69.8055 47.2808 69.875 47.0313 69.875H38.9688C38.7192 69.875 38.4746 69.8055 38.2623 69.6743C38.05 69.5431 37.8785 69.3554 37.7669 69.1322L35.0794 63.7572L35.0804 63.7567C34.9865 63.5704 34.9376 63.3648 34.9375 63.1562V52.813L32.0243 48.4433ZM42.1938 44.075L39.6324 42.154L41.4141 51.0625H44.5859L46.3676 42.154L43.8062 44.075C43.5737 44.2495 43.2907 44.3438 43 44.3438C42.7093 44.3438 42.4264 44.2495 42.1938 44.075ZM48.375 61.8125V53.75H37.625V61.8125H48.375ZM50.5979 32.7147C48.5825 30.6993 45.8501 29.5657 43 29.5625C40.1499 29.5657 37.4175 30.6993 35.4022 32.7147C33.3868 34.73 32.2532 37.4624 32.25 40.3125C32.2477 42.6761 32.9474 44.9872 34.2604 46.9526L37.0004 51.0625H38.6734L36.3073 39.2323C36.254 38.9654 36.2829 38.6887 36.3902 38.4386C36.4976 38.1886 36.6783 37.977 36.9085 37.8319C37.1387 37.6868 37.4076 37.6151 37.6795 37.6261C37.9514 37.6371 38.2135 37.7305 38.4312 37.8938L43 41.3203L47.5688 37.8938C47.7865 37.7305 48.0486 37.6371 48.3205 37.6261C48.5924 37.6151 48.8613 37.6868 49.0915 37.8319C49.3217 37.977 49.5024 38.1886 49.6098 38.4386C49.7171 38.6887 49.746 38.9654 49.6927 39.2323L47.3266 51.0625H48.9996L51.7396 46.9526C53.0526 44.9872 53.7523 42.6761 53.75 40.3125C53.7468 37.4624 52.6132 34.73 50.5979 32.7147ZM2.68752 77.7745C2.68878 78.8865 3.13108 79.9526 3.91739 80.7389C4.7037 81.5252 5.7698 81.9675 6.88181 81.9688H26.875C28.3001 81.9671 29.6663 81.4003 30.6739 80.3927C31.6816 79.385 32.2484 78.0188 32.25 76.5938V58.8945C32.25 57.877 31.9483 56.8823 31.383 56.0363C30.8177 55.1903 30.0143 54.531 29.0743 54.1416C28.1342 53.7522 27.0999 53.6504 26.1019 53.8489C25.104 54.0474 24.1874 54.5373 23.4679 55.2568L3.91595 74.8087C3.52528 75.1973 3.21555 75.6594 3.00469 76.1685C2.79382 76.6776 2.68602 77.2234 2.68752 77.7745ZM25.3684 57.1571C25.712 56.8135 26.1498 56.5795 26.6264 56.4847C27.1029 56.3899 27.597 56.4386 28.0459 56.6245C28.4948 56.8105 28.8785 57.1254 29.1485 57.5295C29.4185 57.9335 29.5625 58.4085 29.5625 58.8945V60.4688H26.875V63.1562H29.5625V65.8438H26.875V68.5312H29.5625V71.2188H26.875V73.9062H29.5625V76.5938C29.5617 77.3063 29.2783 77.9894 28.7745 78.4932C28.2706 78.997 27.5875 79.2804 26.875 79.2812H24.1875V76.5938H21.5V79.2812H18.8125V76.5938H16.125V79.2812H13.4375V76.5938H10.75V79.2812H6.88181C6.58379 79.2813 6.29246 79.1929 6.04466 79.0273C5.79686 78.8618 5.60373 78.6264 5.48969 78.3511C5.37565 78.0757 5.34582 77.7728 5.40398 77.4805C5.46214 77.1882 5.60567 76.9197 5.81643 76.709L25.3684 57.1571ZM22.8437 73.9063H16.125C15.8592 73.9062 15.5994 73.8274 15.3784 73.6798C15.1575 73.5321 14.9853 73.3223 14.8836 73.0767C14.7818 72.8312 14.7552 72.5611 14.8071 72.3004C14.8589 72.0397 14.9868 71.8003 15.1747 71.6124L21.8935 64.8936C22.0814 64.7057 22.3208 64.5777 22.5815 64.5258C22.8422 64.474 23.1124 64.5006 23.3579 64.6023C23.6035 64.704 23.8133 64.8762 23.961 65.0972C24.1086 65.3182 24.1875 65.578 24.1875 65.8438V72.5625C24.1875 72.9189 24.0459 73.2607 23.7939 73.5127C23.5419 73.7647 23.2001 73.9063 22.8437 73.9063ZM21.5 71.2188V69.0878L19.369 71.2188H21.5ZM57.7812 44.3438V73.9062C57.7813 74.1498 57.8475 74.3887 57.9727 74.5976L62.0039 81.3163C62.1233 81.5153 62.2922 81.68 62.4941 81.7943C62.6961 81.9087 62.9242 81.9688 63.1562 81.9688C63.3883 81.9688 63.6164 81.9087 63.8184 81.7943C64.0203 81.68 64.1892 81.5153 64.3086 81.3163L68.3398 74.5976C68.465 74.3887 68.5312 74.1498 68.5312 73.9062V44.3438C68.5312 43.9874 68.3897 43.6456 68.1377 43.3936C67.8857 43.1416 67.5439 43 67.1875 43H59.125C58.7686 43 58.4268 43.1416 58.1748 43.3936C57.9228 43.6456 57.7813 43.9874 57.7812 44.3438ZM64.5 72.5625V55.0938H65.8438V72.5625H64.5ZM60.4688 72.5625V55.0938H61.8125V72.5625H60.4688ZM38.4555 64.5L39.7993 67.1875H46.2008L47.5445 64.5H38.4555ZM60.4688 52.4062V51.0625H65.8438V52.4062H60.4688ZM63.1562 78.0132L61.4983 75.25H64.8142L63.1562 78.0132ZM65.8438 45.6875V48.375H60.4688V45.6875H65.8438ZM27.7988 25.6677L29.6992 23.7673L32.5498 26.6179L30.6494 28.5183L27.7988 25.6677ZM44.3438 18.8125H41.6562V22.8438H44.3438V18.8125ZM53.4526 26.616L56.303 23.7654L58.2035 25.6657L55.353 28.5164L53.4526 26.616ZM63.1562 37.625H59.125V40.3125H63.1562V37.625ZM22.8438 37.625H26.875V40.3125H22.8438V37.625Z" fill="url(#paint0_linear_230_6400)"/>
<defs>
<linearGradient id="paint0_linear_230_6400" x1="38.8007" y1="-3.13476" x2="48.674" y2="90.809" gradientUnits="userSpaceOnUse">
<stop stop-color="#75B7FF"/>
<stop offset="1" stop-color="#0044E8"/>
</linearGradient>
</defs>
</svg>
