<svg width="86" height="86" viewBox="0 0 86 86" fill="none" xmlns="http://www.w3.org/2000/svg">
<path fill-rule="evenodd" clip-rule="evenodd" d="M14.7812 4.03125C15.1951 4.03125 15.5862 4.22206 15.8415 4.54859C15.8415 4.54859 19.8741 9.72875 22.2942 14.3889C23.4296 16.5725 24.1875 18.6701 24.1875 20.1562C24.1875 25.3472 19.9722 29.5625 14.7812 29.5625C9.59034 29.5625 5.375 25.3472 5.375 20.1562C5.375 18.6701 6.13287 16.5725 7.26834 14.3889C9.68844 9.72875 13.721 4.54859 13.721 4.54859C13.9763 4.22206 14.3674 4.03125 14.7812 4.03125ZM12.7871 22.5145C13.3717 21.4919 14.1577 20.4116 14.7812 19.6067C15.4047 20.4116 16.1908 21.4919 16.7754 22.5145C17.1436 23.1595 17.4688 23.7494 17.4688 24.1875C17.4688 25.671 16.2647 26.875 14.7812 26.875C13.2977 26.875 12.0937 25.671 12.0937 24.1875C12.0937 23.7494 12.4189 23.1595 12.7871 22.5145ZM21.5 20.1562C21.5 21.668 21.0001 23.0628 20.1562 24.1862C20.1562 23.4148 19.7558 22.313 19.1081 21.1802C17.8678 19.0087 15.8012 16.594 15.8012 16.594C15.5458 16.297 15.1736 16.125 14.7812 16.125C14.3889 16.125 14.0167 16.297 13.7613 16.594C13.7613 16.594 11.6947 19.0087 10.4544 21.1802C9.80669 22.313 9.40625 23.4148 9.40625 24.1862C8.56238 23.0628 8.0625 21.668 8.0625 20.1562C8.0625 18.9818 8.75588 17.3545 9.65216 15.6278C11.2109 12.6286 13.4671 9.40625 14.7812 7.61369C16.0954 9.40625 18.3516 12.6286 19.9103 15.6278C20.8066 17.3545 21.5 18.9818 21.5 20.1562ZM36.2812 10.75C36.2812 11.1064 36.4228 11.4482 36.6748 11.7002C36.9268 11.9522 37.2686 12.0938 37.625 12.0938C37.9814 12.0938 38.3232 11.9522 38.5752 11.7002C38.8272 11.4482 38.9688 11.1064 38.9688 10.75C38.9688 10.3936 38.8272 10.0518 38.5752 9.79983C38.3232 9.54782 37.9814 9.40625 37.625 9.40625C37.2686 9.40625 36.9268 9.54782 36.6748 9.79983C36.4228 10.0518 36.2812 10.3936 36.2812 10.75ZM42.9977 17.4687C38.8679 17.4687 34.965 18.4512 31.5101 20.198C30.8472 20.5325 30.0379 20.2667 29.7035 19.6038C29.3691 18.9409 29.6348 18.1317 30.2977 17.7972C34.117 15.8682 38.4319 14.7812 42.9977 14.7812C58.5732 14.7812 71.2164 27.4244 71.2164 43C71.2164 47.5657 70.1294 51.8807 68.2004 55.6999C67.866 56.3628 67.0567 56.6286 66.3938 56.2941C65.7309 55.9597 65.4651 55.1504 65.7996 54.4875C67.5465 51.0326 68.5289 47.1298 68.5289 43C68.5289 28.9085 57.0891 17.4687 42.9977 17.4687ZM20.1562 43.0023C20.1562 30.3938 30.3903 20.1597 42.9988 20.1597C55.6074 20.1597 65.8414 30.3938 65.8414 43.0023C65.8414 55.6109 55.6074 65.8473 42.9988 65.8473C30.3903 65.8473 20.1562 55.6109 20.1562 43.0023ZM63.1539 43.0023C63.1539 31.8773 54.1239 22.8473 42.9988 22.8473C31.8738 22.8473 22.8438 31.8773 22.8438 43.0023C22.8438 54.1274 31.8738 63.1598 42.9988 63.1598C54.1239 63.1598 63.1539 54.1274 63.1539 43.0023ZM54.4875 65.8008C51.0326 67.5477 47.1298 68.5301 43 68.5301C28.9085 68.5301 17.4687 57.0903 17.4687 42.9989C17.4687 39.8575 18.0361 36.8445 19.0783 34.0644C19.3381 33.3687 18.9857 32.5953 18.2899 32.3355C17.5972 32.0757 16.8208 32.4281 16.561 33.1208C15.4113 36.1965 14.7812 39.526 14.7812 42.9989C14.7812 58.5744 27.4244 71.2176 43 71.2176C47.5657 71.2176 51.8807 70.1307 55.6999 68.2016C56.3628 67.8672 56.6286 67.058 56.2941 66.395C55.9597 65.7321 55.1504 65.4664 54.4875 65.8008ZM65.8442 61.8116V64.1761L63.8339 63.0031C63.5235 62.8227 63.1553 62.7727 62.8087 62.8662C62.4633 62.9583 62.1677 63.1861 61.9903 63.4968L59.3028 68.1994C58.936 68.8406 59.155 69.6555 59.7919 70.0268L61.8331 71.2182L59.7919 72.4097C59.155 72.781 58.936 73.5959 59.3028 74.2371L61.9903 78.9397C62.1677 79.2504 62.4633 79.4782 62.8087 79.5703C63.1553 79.6638 63.5235 79.6138 63.8339 79.4334L65.8442 78.2604V80.6249C65.8442 81.3661 66.4462 81.9677 67.1879 81.9677H72.5629C73.3047 81.9677 73.9067 81.3661 73.9067 80.6249V78.2604L75.9169 79.4334C76.2273 79.6138 76.5955 79.6638 76.9422 79.5703C77.2876 79.4782 77.5832 79.2504 77.7606 78.9397L80.4481 74.2371C80.8149 73.5959 80.5959 72.781 79.9589 72.4097L77.9178 71.2182L79.9589 70.0268C80.5959 69.6555 80.8149 68.8406 80.4481 68.1994L77.7606 63.4968C77.5832 63.1861 77.2876 62.9583 76.9422 62.8662C76.5955 62.7727 76.2273 62.8227 75.9169 63.0031L73.9067 64.1761V61.8116C73.9067 61.0704 73.3047 60.4688 72.5629 60.4688H67.1879C66.4462 60.4688 65.8442 61.0704 65.8442 61.8116ZM68.5317 63.1558H71.2192V66.5156C71.2192 66.9961 71.4758 67.4411 71.8937 67.6807C72.3103 67.9204 72.825 67.9177 73.2402 67.6755L76.0997 66.0074L77.4542 68.3772L74.5732 70.0571C74.1607 70.298 73.9067 70.7404 73.9067 71.2183C73.9067 71.6962 74.1607 72.1385 74.5732 72.3795L77.4542 74.0594L76.0997 76.4291L73.2402 74.7611C72.825 74.5189 72.3103 74.5162 71.8937 74.7558C71.4758 74.9954 71.2192 75.4404 71.2192 75.921V79.2808H68.5317V75.921C68.5317 75.4404 68.275 74.9954 67.8571 74.7558C67.4406 74.5162 66.9259 74.5188 66.5107 74.7611L63.6512 76.4291L62.2967 74.0594L65.1777 72.3795C65.5902 72.1385 65.8442 71.6962 65.8442 71.2183C65.8442 70.7404 65.5902 70.298 65.1777 70.0571L62.2967 68.3772L63.6512 66.0074L66.5107 67.6755C66.9259 67.9177 67.4406 67.9203 67.8571 67.6807C68.275 67.4411 68.5317 66.9961 68.5317 66.5156V63.1558ZM38.7828 39.6688C38.9521 38.9808 38.8608 38.2418 38.5087 37.6035L37.2429 35.3138C36.7014 34.3368 36.4192 33.239 36.4192 32.121C36.4192 28.4835 39.3687 25.5312 43.0009 25.5312C46.633 25.5312 49.5825 28.4835 49.5825 32.121C49.5825 33.239 49.3004 34.3368 48.7588 35.3138L47.493 37.6035C47.141 38.2418 47.0496 38.9808 47.2189 39.6688C47.5454 40.0827 47.8128 40.5436 48.0077 41.0422C48.5183 41.5353 49.2036 41.8269 49.9319 41.8403L52.5455 41.8874C53.6622 41.9075 54.7546 42.2112 55.7208 42.7689C58.8652 44.5883 59.9455 48.6209 58.1301 51.7707C56.3134 54.9218 52.2835 56.0021 49.1364 54.1827C48.1703 53.625 47.3627 52.8295 46.7875 51.8714L45.4398 49.6287C45.0474 48.973 44.4131 48.5121 43.6902 48.3307C43.4645 48.3602 43.2347 48.375 43.0009 48.375C42.767 48.375 42.5373 48.3602 42.3115 48.3307C41.5886 48.5121 40.9543 48.973 40.562 49.6287L39.2142 51.8714C38.639 52.8295 37.8315 53.625 36.8653 54.1827C33.7182 56.0021 29.6883 54.9218 27.8716 51.7707C26.0562 48.6209 27.1365 44.5883 30.2809 42.7689C31.2471 42.2112 32.3395 41.9075 33.4562 41.8874L36.0698 41.8403C36.7981 41.8269 37.4834 41.5353 37.994 41.0422C38.1889 40.5436 38.4563 40.0827 38.7828 39.6688ZM48.2307 44.243C47.9821 45.2951 47.4231 46.2277 46.6559 46.9385C47.0778 47.3108 47.446 47.7488 47.7443 48.2447L49.0921 50.4887C49.432 51.0558 49.9104 51.5261 50.4815 51.8567C52.344 52.933 54.7264 52.292 55.8014 50.4283C56.8764 48.5631 56.2381 46.1726 54.3757 45.0963C53.8046 44.7657 53.1583 44.5856 52.4985 44.5735L49.8849 44.5278C49.3138 44.5171 48.7575 44.419 48.2307 44.243ZM37.771 44.243C37.2442 44.419 36.6879 44.5171 36.1168 44.5278L33.5032 44.5735C32.8435 44.5856 32.1971 44.7657 31.626 45.0963C29.7636 46.1726 29.1253 48.5631 30.2003 50.4283C31.2753 52.292 33.6578 52.933 35.5202 51.8567C36.0913 51.5261 36.5697 51.0558 36.9096 50.4887L38.2574 48.2447C38.5557 47.7488 38.9239 47.3108 39.3459 46.9385C38.5786 46.2277 38.0196 45.2951 37.771 44.243ZM43.0009 40.3125C44.4844 40.3125 45.6884 41.5165 45.6884 43C45.6884 44.4835 44.4844 45.6875 43.0009 45.6875C41.5174 45.6875 40.3134 44.4835 40.3134 43C40.3134 41.5165 41.5174 40.3125 43.0009 40.3125ZM44.565 37.8561C44.6765 37.32 44.8687 36.7959 45.1415 36.3041L46.4073 34.013C46.7271 33.4338 46.895 32.7835 46.895 32.121C46.895 29.9683 45.1509 28.2188 43.0009 28.2188C40.8509 28.2188 39.1067 29.9683 39.1067 32.121C39.1067 32.7835 39.2746 33.4338 39.5945 34.013L40.8603 36.3041C41.133 36.7959 41.3252 37.32 41.4367 37.8561C41.9312 37.7056 42.4566 37.625 43.0009 37.625C43.5451 37.625 44.0705 37.7056 44.565 37.8561ZM49.3252 76.2002C49.5772 75.9482 49.7188 75.6064 49.7188 75.25C49.7188 74.8936 49.5772 74.5518 49.3252 74.2998C49.0732 74.0478 48.7314 73.9062 48.375 73.9062C48.0186 73.9062 47.6768 74.0478 47.4248 74.2998C47.1728 74.5518 47.0312 74.8936 47.0312 75.25C47.0312 75.6064 47.1728 75.9482 47.4248 76.2002C47.6768 76.4522 48.0186 76.5938 48.375 76.5938C48.7314 76.5938 49.0732 76.4522 49.3252 76.2002ZM43 76.5938H37.625C36.8833 76.5938 36.2812 75.9918 36.2812 75.25C36.2812 74.5082 36.8833 73.9062 37.625 73.9062H43C43.7415 73.9062 44.3437 74.5082 44.3437 75.25C44.3437 75.9918 43.7415 76.5938 43 76.5938ZM48.375 9.40625H43C42.2584 9.40625 41.6562 10.0083 41.6562 10.75C41.6562 11.4917 42.2584 12.0938 43 12.0938H48.375C49.1167 12.0938 49.7187 11.4917 49.7187 10.75C49.7187 10.0083 49.1167 9.40625 48.375 9.40625ZM8.0625 6.71875C8.0625 7.07513 7.92093 7.41692 7.66892 7.66892C7.41692 7.92093 7.07513 8.0625 6.71875 8.0625C6.36237 8.0625 6.02058 7.92093 5.76858 7.66892C5.51657 7.41692 5.375 7.07513 5.375 6.71875C5.375 6.36237 5.51657 6.02058 5.76858 5.76858C6.02058 5.51657 6.36237 5.375 6.71875 5.375C7.07513 5.375 7.41692 5.51657 7.66892 5.76858C7.92093 6.02058 8.0625 6.36237 8.0625 6.71875ZM23.7939 7.66892C24.0459 7.41692 24.1875 7.07513 24.1875 6.71875C24.1875 6.36237 24.0459 6.02058 23.7939 5.76858C23.5419 5.51657 23.2001 5.375 22.8438 5.375C22.4874 5.375 22.1456 5.51657 21.8936 5.76858C21.6416 6.02058 21.5 6.36237 21.5 6.71875C21.5 7.07513 21.6416 7.41692 21.8936 7.66892C22.1456 7.92093 22.4874 8.0625 22.8438 8.0625C23.2001 8.0625 23.5419 7.92093 23.7939 7.66892Z" fill="url(#paint0_linear_230_6358)"/>
<defs>
<linearGradient id="paint0_linear_230_6358" x1="39.081" y1="-3.13466" x2="49.6421" y2="90.6563" gradientUnits="userSpaceOnUse">
<stop stop-color="#75B7FF"/>
<stop offset="1" stop-color="#0044E8"/>
</linearGradient>
</defs>
</svg>
