<svg width="49" height="48" viewBox="0 0 49 48" fill="none" xmlns="http://www.w3.org/2000/svg">
<path fill-rule="evenodd" clip-rule="evenodd" d="M12.3125 0H36.6875C37.2053 0 37.625 0.419678 37.625 0.9375V6.1875H42.3125C42.8303 6.1875 43.25 6.60718 43.25 7.125V46.125H46.0625C46.5803 46.125 47 46.5447 47 47.0625C47 47.5803 46.5803 48 46.0625 48H2.9375C2.41968 48 2 47.5803 2 47.0625C2 46.5447 2.41968 46.125 2.9375 46.125H5.75V7.125C5.75 6.60718 6.16968 6.1875 6.6875 6.1875H11.375V0.9375C11.375 0.419678 11.7947 0 12.3125 0ZM35.75 1.875H13.25V6.1875H35.75V1.875ZM25.4375 46.125H28.25V36.1875H20.75V46.125H23.5625V42.75C23.5625 42.2322 23.9822 41.8125 24.5 41.8125C25.0178 41.8125 25.4375 42.2322 25.4375 42.75V46.125ZM30.125 46.125H41.375V8.0625H7.625V46.125H18.875V35.25C18.875 34.7322 19.2947 34.3125 19.8125 34.3125H29.1875C29.7053 34.3125 30.125 34.7322 30.125 35.25V46.125ZM17 12.75C17 12.2322 16.5803 11.8125 16.0625 11.8125H10.4375C9.91968 11.8125 9.5 12.2322 9.5 12.75V18.375C9.5 18.8928 9.91968 19.3125 10.4375 19.3125H16.0625C16.5803 19.3125 17 18.8928 17 18.375V12.75ZM15.125 13.6875V17.4375H11.375V13.6875H15.125ZM32 35.25C32 34.7322 32.4197 34.3125 32.9375 34.3125H38.5625C39.0803 34.3125 39.5 34.7322 39.5 35.25V40.875C39.5 41.3928 39.0803 41.8125 38.5625 41.8125H32.9375C32.4197 41.8125 32 41.3928 32 40.875V35.25ZM25.4375 39C25.4375 39.5175 25.0175 39.9375 24.5 39.9375C23.9825 39.9375 23.5625 39.5175 23.5625 39C23.5625 38.4825 23.9825 38.0625 24.5 38.0625C25.0175 38.0625 25.4375 38.4825 25.4375 39ZM21.6875 11.8125H27.3125C27.8303 11.8125 28.25 12.2322 28.25 12.75V18.375C28.25 18.8928 27.8303 19.3125 27.3125 19.3125H21.6875C21.1697 19.3125 20.75 18.8928 20.75 18.375V12.75C20.75 12.2322 21.1697 11.8125 21.6875 11.8125ZM37.625 36.1875H33.875V39.9375H37.625V36.1875ZM22.625 17.4375H26.375V13.6875H22.625V17.4375ZM32 12.75V18.375C32 18.8928 32.4197 19.3125 32.9375 19.3125H38.5625C39.0803 19.3125 39.5 18.8928 39.5 18.375V12.75C39.5 12.2322 39.0803 11.8125 38.5625 11.8125H32.9375C32.4197 11.8125 32 12.2322 32 12.75ZM33.875 13.6875H37.625V17.4375H33.875V13.6875ZM9.5 24C9.5 23.4822 9.91968 23.0625 10.4375 23.0625H16.0625C16.5803 23.0625 17 23.4822 17 24V29.625C17 30.1428 16.5803 30.5625 16.0625 30.5625H10.4375C9.91968 30.5625 9.5 30.1428 9.5 29.625V24ZM11.375 24.9375V28.6875H15.125V24.9375H11.375ZM27.3125 23.0625H21.6875C21.1697 23.0625 20.75 23.4822 20.75 24V29.625C20.75 30.1428 21.1697 30.5625 21.6875 30.5625H27.3125C27.8303 30.5625 28.25 30.1428 28.25 29.625V24C28.25 23.4822 27.8303 23.0625 27.3125 23.0625ZM26.375 28.6875H22.625V24.9375H26.375V28.6875ZM32.9375 23.0625H38.5625C39.0803 23.0625 39.5 23.4822 39.5 24V29.625C39.5 30.1428 39.0803 30.5625 38.5625 30.5625H32.9375C32.4197 30.5625 32 30.1428 32 29.625V24C32 23.4822 32.4197 23.0625 32.9375 23.0625ZM33.875 28.6875H37.625V24.9375H33.875V28.6875ZM16.0625 34.3125H10.4375C9.91968 34.3125 9.5 34.7322 9.5 35.25V40.875C9.5 41.3928 9.91968 41.8125 10.4375 41.8125H16.0625C16.5803 41.8125 17 41.3928 17 40.875V35.25C17 34.7322 16.5803 34.3125 16.0625 34.3125ZM15.125 39.9375H11.375V36.1875H15.125V39.9375Z" fill="url(#paint0_linear_230_6739)"/>
<defs>
<linearGradient id="paint0_linear_230_6739" x1="22.1562" y1="-4.41339" x2="28.8501" y2="53.3073" gradientUnits="userSpaceOnUse">
<stop stop-color="#75B7FF"/>
<stop offset="1" stop-color="#0044E8"/>
</linearGradient>
</defs>
</svg>
