<svg width="49" height="48" viewBox="0 0 49 48" fill="none" xmlns="http://www.w3.org/2000/svg">
<g clip-path="url(#clip0_230_20812)">
<path fill-rule="evenodd" clip-rule="evenodd" d="M25.4677 12.0992L26.0341 11.5328C27.7788 9.79042 30.457 9.39206 32.6333 10.5512L40.8573 1.50884C41.7031 0.571179 42.8988 0.0248408 44.1613 -0.000762036C46.0864 -0.0443542 47.8362 1.11207 48.5507 2.90018C49.2653 4.6883 48.7943 6.73213 47.3693 8.02724L38.3293 16.2472C39.4859 18.4236 39.086 21.1 37.3437 22.8432L36.7781 23.4096C36.5659 23.6195 36.2989 23.7656 36.0077 23.8312L34.7277 28.7024C34.6918 28.84 34.6197 28.9654 34.5189 29.0656C33.6284 29.8105 32.4832 30.18 31.3253 30.096C30.6214 30.0908 29.92 30.0119 29.2325 29.8608C28.8973 29.7888 28.5637 29.6992 28.2325 29.5984C28.2293 29.5984 28.2266 29.5989 28.2239 29.5994C28.2187 29.6002 28.2138 29.6011 28.2053 29.5984C28.1997 29.5967 28.195 29.5932 28.1905 29.5899C28.1847 29.5857 28.1793 29.5816 28.1725 29.5816C23.9372 28.267 20.6198 24.9526 19.3013 20.7184C19.2989 20.7109 19.2939 20.7017 19.2895 20.6936C19.2851 20.6855 19.2813 20.6784 19.2813 20.6752V20.6552C19.1765 20.3216 19.0893 19.9856 19.0165 19.648C18.5205 17.3312 18.8173 15.3552 19.8117 14.3616C19.912 14.2608 20.0374 14.1887 20.1749 14.1528L25.0461 12.8688C25.1111 12.5776 25.2573 12.3108 25.4677 12.0992ZM29.5677 28.2984C31.3645 28.6832 32.6637 28.4672 33.2429 28.0584L34.4813 23.372L25.5085 14.3992L20.8205 15.632C20.4125 16.2112 20.1957 17.5096 20.5805 19.3072C20.587 19.3363 20.5953 19.37 20.6037 19.4036L20.6037 19.4038L20.6037 19.4038L20.6037 19.4039C20.6098 19.4285 20.6159 19.4531 20.6213 19.476L23.5605 18.676C23.9869 18.5601 24.4265 18.8117 24.5425 19.238C24.6585 19.6644 24.4069 20.1041 23.9805 20.22L21.0965 21.0056C21.5998 22.2894 22.322 23.476 23.2309 24.5128L25.9149 21.8288C26.2288 21.5257 26.7278 21.53 27.0364 21.8386C27.345 22.1472 27.3493 22.6461 27.0461 22.96L24.3621 25.644C25.3989 26.553 26.5856 27.2752 27.8693 27.7784L28.6549 24.8984C28.73 24.6226 28.9464 24.4078 29.2228 24.3349C29.4992 24.2619 29.7934 24.342 29.9948 24.5449C30.1961 24.7477 30.274 25.0426 30.1989 25.3184L29.3989 28.2576L29.4408 28.2678L29.471 28.2752L29.471 28.2752L29.4711 28.2753L29.4712 28.2753C29.5049 28.2836 29.5386 28.292 29.5677 28.2984ZM35.6509 22.2816L36.2157 21.7152C37.7778 20.1532 37.7778 17.6205 36.2157 16.0584L32.8221 12.6648C31.26 11.1028 28.7274 11.1028 27.1653 12.6648L26.5989 13.2304L35.6509 22.2816ZM44.9998 1.69236C43.9229 1.42163 42.7844 1.76484 42.0365 2.58564L33.9269 11.5064L37.3741 14.9536L46.2949 6.84404C47.1157 6.09621 47.4589 4.95769 47.1882 3.88081C46.9175 2.80394 46.0766 1.9631 44.9998 1.69236ZM2.54533 19.9992H3.31333V46.3992C3.31333 47.2829 4.02967 47.9992 4.91333 47.9992H32.1133C32.997 47.9992 33.7133 47.2829 33.7133 46.3992V32.3592C33.7133 31.9174 33.3552 31.5592 32.9133 31.5592C32.4715 31.5592 32.1133 31.9174 32.1133 32.3592V46.3992H29.7093V39.1992C29.7093 36.5483 27.5603 34.3992 24.9093 34.3992C22.2584 34.3992 20.1093 36.5483 20.1093 39.1992V46.3992H4.91333V19.9992H16.5053C16.9472 19.9992 17.3053 19.6411 17.3053 19.1992C17.3053 18.7574 16.9472 18.3992 16.5053 18.3992H4.12853H4.11333H4.09813H2.54133L18.5093 6.59124L23.8133 10.5192C24.1686 10.7821 24.6696 10.7073 24.9325 10.352C25.1954 9.99681 25.1206 9.49573 24.7653 9.23284L19.4621 5.30884C18.8953 4.89283 18.1241 4.89283 17.5573 5.30884L1.58933 17.1192C1.03896 17.532 0.814062 18.2504 1.0308 18.9033C1.24753 19.5562 1.85737 19.9975 2.54533 19.9992ZM21.7093 39.1992C21.7093 38.056 22.3192 36.9996 23.3093 36.428C24.2994 35.8563 25.5192 35.8563 26.5093 36.428C27.4994 36.9996 28.1093 38.056 28.1093 39.1992V46.3992H21.7093V39.1992ZM8.10933 43.9992H16.1093C16.5512 43.9992 16.9093 43.6411 16.9093 43.1992V35.1992C16.9093 34.7574 16.5512 34.3992 16.1093 34.3992H8.10933C7.6675 34.3992 7.30933 34.7574 7.30933 35.1992V43.1992C7.30933 43.6411 7.6675 43.9992 8.10933 43.9992ZM8.90933 39.9992H11.3093V42.3992H8.90933V39.9992ZM12.9093 42.3992V39.9992H15.3093V42.3992H12.9093ZM15.3093 38.3992H12.9093V35.9992H15.3093V38.3992ZM11.3093 35.9992V38.3992H8.90933V35.9992H11.3093ZM16.1093 22.3992C16.5512 22.3992 16.9093 22.7574 16.9093 23.1992V31.1992C16.9093 31.6411 16.5512 31.9992 16.1093 31.9992H8.10933C7.6675 31.9992 7.30933 31.6411 7.30933 31.1992V23.1992C7.30933 22.7574 7.6675 22.3992 8.10933 22.3992H16.1093ZM12.9093 26.3992H15.3093V23.9992H12.9093V26.3992ZM11.3093 26.3992V23.9992H8.90933V26.3992H11.3093ZM11.3093 27.9992H8.90933V30.3992H11.3093V27.9992ZM12.9093 27.9992V30.3992H15.3093V27.9992H12.9093ZM25.7093 43.1992C26.1512 43.1992 26.5093 42.8411 26.5093 42.3992V40.7992C26.5093 40.3574 26.1512 39.9992 25.7093 39.9992C25.2675 39.9992 24.9093 40.3574 24.9093 40.7992V42.3992C24.9093 42.6114 24.9936 42.8149 25.1436 42.9649C25.2937 43.115 25.4972 43.1992 25.7093 43.1992ZM26.0813 6.39924C27.6277 6.39924 28.8813 5.14564 28.8813 3.59924C28.8813 2.05284 27.6277 0.799238 26.0813 0.799238C24.5349 0.799238 23.2813 2.05284 23.2813 3.59924C23.2813 5.14564 24.5349 6.39924 26.0813 6.39924ZM26.0813 2.39924C26.7441 2.39924 27.2813 2.9365 27.2813 3.59924C27.2813 4.26198 26.7441 4.79924 26.0813 4.79924C25.4186 4.79924 24.8813 4.26198 24.8813 3.59924C24.8813 2.9365 25.4186 2.39924 26.0813 2.39924ZM43.2813 19.9992C43.2813 19.5574 43.6395 19.1992 44.0813 19.1992C44.5232 19.1992 44.8813 19.5574 44.8813 19.9992V21.5992C44.8813 22.0411 44.5232 22.3992 44.0813 22.3992C43.6395 22.3992 43.2813 22.0411 43.2813 21.5992V19.9992ZM43.2813 24.7992V26.3992C43.2813 26.8411 43.6395 27.1992 44.0813 27.1992C44.5232 27.1992 44.8813 26.8411 44.8813 26.3992V24.7992C44.8813 24.3574 44.5232 23.9992 44.0813 23.9992C43.6395 23.9992 43.2813 24.3574 43.2813 24.7992ZM45.6813 22.3992H47.2813C47.7232 22.3992 48.0813 22.7574 48.0813 23.1992C48.0813 23.6411 47.7232 23.9992 47.2813 23.9992H45.6813C45.2395 23.9992 44.8813 23.6411 44.8813 23.1992C44.8813 22.7574 45.2395 22.3992 45.6813 22.3992ZM43.2813 23.1992C43.2813 22.7574 42.9232 22.3992 42.4813 22.3992H40.8813C40.4395 22.3992 40.0813 22.7574 40.0813 23.1992C40.0813 23.6411 40.4395 23.9992 40.8813 23.9992H42.4813C42.9232 23.9992 43.2813 23.6411 43.2813 23.1992ZM12.6372 6.95509C12.3286 7.26368 11.8296 7.26802 11.5157 6.96484L10.3157 5.76484C10.0126 5.45093 10.0169 4.95197 10.3255 4.64338C10.6341 4.3348 11.133 4.33046 11.4469 4.63364L12.6469 5.83364C12.9501 6.14754 12.9458 6.64651 12.6372 6.95509ZM7.91573 3.36484C8.22963 3.66802 8.7286 3.66368 9.03718 3.35509C9.34577 3.04651 9.35011 2.54754 9.04693 2.23364L7.84693 1.03364C7.53302 0.73046 7.03406 0.734796 6.72547 1.04338C6.41689 1.35197 6.41255 1.85094 6.71573 2.16484L7.91573 3.36484ZM7.84693 6.96484C7.69693 7.11488 7.49348 7.19919 7.28133 7.19924C6.95781 7.19917 6.66618 7.00426 6.54239 6.70536C6.41859 6.40647 6.487 6.06243 6.71573 5.83364L7.91573 4.63364C8.11659 4.42567 8.41403 4.34227 8.69373 4.41548C8.97344 4.48869 9.19187 4.70713 9.26509 4.98683C9.3383 5.26654 9.25489 5.56398 9.04693 5.76484L7.84693 6.96484ZM10.8813 3.59924C11.0935 3.59919 11.2969 3.51488 11.4469 3.36484L12.6469 2.16484C12.9501 1.85093 12.9458 1.35197 12.6372 1.04338C12.3286 0.734796 11.8296 0.73046 11.5157 1.03364L10.3157 2.23364C10.087 2.46243 10.0186 2.80647 10.1424 3.10536C10.2662 3.40426 10.5578 3.59917 10.8813 3.59924ZM42.0013 30.416C38.3788 30.416 35.418 33.3768 35.418 36.9994C35.418 40.6219 38.3788 43.5827 42.0013 43.5827C45.6238 43.5827 48.5846 40.6219 48.5846 36.9994C48.5846 33.3768 45.6238 30.416 42.0013 30.416ZM36.918 36.9994C36.918 34.2052 39.2072 31.916 42.0013 31.916C44.7954 31.916 47.0846 34.2052 47.0846 36.9994C47.0846 39.7935 44.7954 42.0827 42.0013 42.0827C39.2072 42.0827 36.918 39.7935 36.918 36.9994ZM38.918 37C38.918 36.5858 39.2538 36.25 39.668 36.25H41.25V34.666C41.25 34.2518 41.5858 33.916 42 33.916C42.4142 33.916 42.75 34.2518 42.75 34.666V36.25H44.3346C44.7488 36.25 45.0846 36.5858 45.0846 37C45.0846 37.4142 44.7488 37.75 44.3346 37.75H42.75V39.3327C42.75 39.7469 42.4142 40.0827 42 40.0827C41.5858 40.0827 41.25 39.7469 41.25 39.3327V37.75H39.668C39.2538 37.75 38.918 37.4142 38.918 37Z" fill="url(#paint0_linear_230_20812)"/>
</g>
<defs>
<linearGradient id="paint0_linear_230_20812" x1="22.4183" y1="-4.41545" x2="28.7131" y2="53.3976" gradientUnits="userSpaceOnUse">
<stop stop-color="#75B7FF"/>
<stop offset="1" stop-color="#0044E8"/>
</linearGradient>
<clipPath id="clip0_230_20812">
<rect width="48" height="48" fill="white" transform="translate(0.882812)"/>
</clipPath>
</defs>
</svg>
