<svg width="49" height="48" viewBox="0 0 49 48" fill="none" xmlns="http://www.w3.org/2000/svg">
<path d="M2.09563 34.125C1.99617 34.125 1.90079 34.1645 1.83046 34.2348C1.76013 34.3052 1.72062 34.4005 1.72062 34.5V43.4775H1.48437C1.38492 43.4775 1.28954 43.517 1.21921 43.5873C1.14888 43.6577 1.10938 43.753 1.10938 43.8525C1.10938 43.952 1.14888 44.0473 1.21921 44.1177C1.28954 44.188 1.38492 44.2275 1.48437 44.2275H12.2694L9.30312 47.19C9.26798 47.2249 9.24008 47.2663 9.22104 47.312C9.202 47.3577 9.1922 47.4067 9.1922 47.4563C9.1922 47.5058 9.202 47.5548 9.22104 47.6005C9.24008 47.6462 9.26798 47.6876 9.30312 47.7225C9.33816 47.7573 9.37972 47.7848 9.42541 47.8034C9.4711 47.8221 9.52002 47.8315 9.56938 47.8313C9.61873 47.8315 9.66765 47.8221 9.71334 47.8034C9.75903 47.7848 9.80058 47.7573 9.83562 47.7225L10.0906 47.4675H23.9244C24.0238 47.4675 24.1192 47.428 24.1895 47.3577C24.2599 47.2873 24.2994 47.192 24.2994 47.0925C24.2994 46.993 24.2599 46.8977 24.1895 46.8273C24.1192 46.757 24.0238 46.7175 23.9244 46.7175H10.8406L11.5906 45.9675H37.4131L38.1631 46.7175H31.1431C31.0437 46.7175 30.9483 46.757 30.878 46.8273C30.8076 46.8977 30.7681 46.993 30.7681 47.0925C30.7681 47.192 30.8076 47.2873 30.878 47.3577C30.9483 47.428 31.0437 47.4675 31.1431 47.4675H38.9131L39.1681 47.7225C39.2032 47.7573 39.2447 47.7848 39.2904 47.8034C39.3361 47.8221 39.385 47.8315 39.4344 47.8313C39.4837 47.8315 39.5326 47.8221 39.5783 47.8034C39.624 47.7848 39.6656 47.7573 39.7006 47.7225C39.7358 47.6876 39.7637 47.6462 39.7827 47.6005C39.8017 47.5548 39.8115 47.5058 39.8115 47.4563C39.8115 47.4067 39.8017 47.3577 39.7827 47.312C39.7637 47.2663 39.7358 47.2249 39.7006 47.19L37.8256 45.315L36.7269 44.2163H47.5119C47.6113 44.2163 47.7067 44.1767 47.777 44.1064C47.8474 44.0361 47.8869 43.9407 47.8869 43.8413C47.8869 43.7418 47.8474 43.6464 47.777 43.5761C47.7067 43.5058 47.6113 43.4663 47.5119 43.4663H47.2906V34.5C47.2906 34.4005 47.2511 34.3052 47.1808 34.2348C47.1105 34.1645 47.0151 34.125 46.9156 34.125H45.7681V33.15V33.1125C45.7554 31.9608 45.2915 30.8601 44.476 30.0467C43.6605 29.2333 42.5586 28.7722 41.4069 28.7625L40.7731 25.0687C40.7562 24.9693 40.7005 24.8806 40.6182 24.8223C40.5359 24.7639 40.4338 24.7406 40.3344 24.7575C40.2349 24.7744 40.1463 24.8301 40.0879 24.9124C40.0295 24.9947 40.0062 25.0968 40.0231 25.1963L40.1244 25.785H36.2019V25.125C36.2025 25.0762 36.1936 25.0278 36.1756 24.9825C36.1552 24.9369 36.1274 24.8951 36.0931 24.8587L34.5631 23.3288C34.5283 23.2936 34.4868 23.2657 34.4411 23.2467C34.3954 23.2276 34.3464 23.2178 34.2969 23.2178C34.2474 23.2178 34.1984 23.2276 34.1527 23.2467C34.107 23.2657 34.0655 23.2936 34.0306 23.3288L32.7519 24.6L31.4319 23.2838C31.3626 23.2131 31.2683 23.1727 31.1694 23.1712H30.3106V20.0175H34.8106V22.5825C34.8106 22.682 34.8501 22.7773 34.9205 22.8477C34.9908 22.918 35.0862 22.9575 35.1856 22.9575C35.2851 22.9575 35.3805 22.918 35.4508 22.8477C35.5211 22.7773 35.5606 22.682 35.5606 22.5825V15.0525C35.5606 14.953 35.5211 14.8577 35.4508 14.7873C35.3805 14.717 35.2851 14.6775 35.1856 14.6775H35.0019V12.5737C35.0019 12.4743 34.9624 12.3789 34.892 12.3086C34.8217 12.2383 34.7263 12.1987 34.6269 12.1987H34.4769V7.125C34.477 6.68346 34.3243 6.25548 34.0447 5.91372C33.7651 5.57195 33.3759 5.33744 32.9431 5.25V4.82625C32.9431 4.72679 32.9036 4.63141 32.8333 4.56108C32.763 4.49076 32.6676 4.45125 32.5681 4.45125C32.4687 4.45125 32.3733 4.49076 32.303 4.56108C32.2326 4.63141 32.1931 4.72679 32.1931 4.82625V5.25C31.7603 5.33744 31.3711 5.57195 31.0915 5.91372C30.812 6.25548 30.6593 6.68346 30.6594 7.125V8.46V8.53125C29.7631 7.17375 28.1356 6.15375 26.1594 5.77875V4.00125C26.1584 3.62689 26.0313 3.26378 25.7986 2.97053C25.566 2.67728 25.2412 2.471 24.8769 2.385V0.5625C24.8769 0.463044 24.8374 0.367661 24.767 0.297335C24.6967 0.227009 24.6013 0.1875 24.5019 0.1875C24.4024 0.1875 24.307 0.227009 24.2367 0.297335C24.1664 0.367661 24.1269 0.463044 24.1269 0.5625V2.38125C23.7591 2.46447 23.4305 2.67005 23.1948 2.96434C22.9591 3.25863 22.8303 3.62421 22.8294 4.00125V5.77875C20.8719 6.15375 19.2444 7.17375 18.3481 8.53125V8.46V7.125C18.3482 6.68346 18.1955 6.25548 17.916 5.91372C17.6364 5.57195 17.2472 5.33744 16.8144 5.25V4.82625C16.8144 4.72679 16.7749 4.63141 16.7045 4.56108C16.6342 4.49076 16.5388 4.45125 16.4394 4.45125C16.3399 4.45125 16.2445 4.49076 16.1742 4.56108C16.1039 4.63141 16.0644 4.72679 16.0644 4.82625V5.25C15.6316 5.33744 15.2424 5.57195 14.9628 5.91372C14.6832 6.25548 14.5305 6.68346 14.5306 7.125V12.1987H14.3844C14.2849 12.1987 14.1895 12.2383 14.1192 12.3086C14.0489 12.3789 14.0094 12.4743 14.0094 12.5737V14.6775H13.8106C13.7112 14.6775 13.6158 14.717 13.5455 14.7873C13.4751 14.8577 13.4356 14.953 13.4356 15.0525V22.5825C13.4356 22.682 13.4751 22.7773 13.5455 22.8477C13.6158 22.918 13.7112 22.9575 13.8106 22.9575C13.9101 22.9575 14.0055 22.918 14.0758 22.8477C14.1461 22.7773 14.1856 22.682 14.1856 22.5825V20.0175H18.6856V23.1712H17.8419C17.7923 23.1715 17.7432 23.1815 17.6975 23.2008C17.6518 23.2201 17.6104 23.2483 17.5756 23.2838L16.2519 24.6L14.9844 23.3325C14.9141 23.2627 14.8191 23.2235 14.72 23.2235C14.6209 23.2235 14.5259 23.2627 14.4556 23.3325L12.9256 24.8625C12.8925 24.899 12.8659 24.9408 12.8469 24.9862C12.8277 25.0313 12.8175 25.0797 12.8169 25.1287V25.7812H8.87937L8.98063 25.1925C8.99033 25.1432 8.99002 25.0924 8.97971 25.0432C8.96941 24.994 8.94931 24.9474 8.92063 24.9061C8.89194 24.8648 8.85525 24.8297 8.81273 24.8029C8.77021 24.7761 8.72274 24.7581 8.67313 24.75C8.57573 24.7336 8.47581 24.7564 8.39507 24.8132C8.31432 24.8701 8.25927 24.9565 8.24187 25.0537L7.60437 28.7475C6.45073 28.7573 5.34711 29.2199 4.53133 30.0357C3.71555 30.8515 3.25292 31.9551 3.24312 33.1087V33.1462V34.125H2.09563ZM2.47063 34.875H3.24688V43.4775H2.47063V34.875ZM16.2519 25.5H18.7156V31.455C18.2984 31.4824 17.9069 31.6665 17.6197 31.9704C17.3324 32.2744 17.1707 32.6756 17.1669 33.0938V40.65H15.7381V37.5C15.7381 37.4005 15.6986 37.3052 15.6283 37.2348C15.558 37.1645 15.4626 37.125 15.3631 37.125C15.2637 37.125 15.1683 37.1645 15.098 37.2348C15.0276 37.3052 14.9881 37.4005 14.9881 37.5V40.65H13.5669V25.5H16.2519ZM19.4656 15.0487C19.4656 14.9493 19.4261 14.8539 19.3558 14.7836C19.2855 14.7133 19.1901 14.6737 19.0906 14.6737H18.8769V14.2725H30.1269V14.6775H29.9281C29.8287 14.6775 29.7333 14.717 29.663 14.7873C29.5926 14.8577 29.5531 14.953 29.5531 15.0525V22.8187L24.7794 18.0375C24.7444 18.0012 24.7025 17.9723 24.6561 17.9526C24.6097 17.9329 24.5598 17.9227 24.5094 17.9227C24.459 17.9227 24.4091 17.9329 24.3627 17.9526C24.3163 17.9723 24.2744 18.0012 24.2394 18.0375L19.4581 22.8187L19.4656 15.0487ZM24.4794 6.3975C28.1619 7.6425 28.3719 12.2288 28.3569 13.5225H24.8244V11.1337C24.8244 11.0343 24.7849 10.9389 24.7145 10.8686C24.6442 10.7983 24.5488 10.7587 24.4494 10.7587C24.3499 10.7587 24.2545 10.7983 24.1842 10.8686C24.1139 10.9389 24.0744 11.0343 24.0744 11.1337V13.5225H20.6019C20.5869 12.2288 20.7969 7.6425 24.4794 6.3975ZM32.7519 25.5H35.4519V40.65H34.0344V37.5C34.0344 37.4005 33.9949 37.3052 33.9245 37.2348C33.8542 37.1645 33.7588 37.125 33.6594 37.125C33.5599 37.125 33.4645 37.1645 33.3942 37.2348C33.3239 37.3052 33.2844 37.4005 33.2844 37.5V40.65H31.8631V33.0938C31.8584 32.6753 31.6958 32.274 31.408 31.9702C31.1201 31.6664 30.7282 31.4824 30.3106 31.455V25.5H32.7519ZM45.0256 43.455H42.5769V35.5537C42.5769 35.5312 42.5769 35.505 42.5769 35.4825C42.5769 35.46 42.5769 35.4338 42.5769 35.4113L41.6731 33.5625L42.7306 32.505L43.6269 33.4125C43.6619 33.4473 43.7035 33.4748 43.7492 33.4934C43.7948 33.5121 43.8438 33.5215 43.8931 33.5212H45.0406L45.0256 43.455ZM36.2019 34.1475V31.125C36.5981 31.0181 37.0135 31.0037 37.4161 31.0829C37.8188 31.1621 38.1978 31.3328 38.524 31.5817C38.8502 31.8307 39.1148 32.1514 39.2973 32.5189C39.4799 32.8864 39.5755 33.2909 39.5769 33.7013C39.576 33.8509 39.5622 34.0002 39.5356 34.1475H36.2019ZM24.5019 43.4587H23.0619V33.6413C23.0619 33.2573 23.2144 32.8892 23.4858 32.6177C23.7573 32.3463 24.1255 32.1937 24.5094 32.1937C24.8933 32.1937 25.2615 32.3463 25.5329 32.6177C25.8044 32.8892 25.9569 33.2573 25.9569 33.6413V43.4775L24.5019 43.4587ZM8.24562 35.2087H7.42062L7.84062 34.35L8.24562 35.2087ZM7.17687 35.9587H8.48937V43.4587H7.19187L7.17687 35.9587ZM9.46062 34.1663C9.4359 34.0187 9.42212 33.8696 9.41937 33.72C9.41997 33.3094 9.51513 32.9045 9.69746 32.5366C9.8798 32.1687 10.1444 31.8477 10.4708 31.5986C10.7972 31.3494 11.1765 31.1788 11.5795 31.0999C11.9824 31.0211 12.3981 31.0361 12.7944 31.1438V34.1663H9.46062ZM13.5669 41.4H17.1556V43.4587H13.5669V41.4ZM31.1131 35.91C30.8429 35.7293 30.5251 35.6328 30.2 35.6328C29.8749 35.6328 29.5571 35.7293 29.2869 35.91V33.1087C29.2789 32.9839 29.2965 32.8588 29.3388 32.741C29.3811 32.6233 29.447 32.5155 29.5326 32.4242C29.6182 32.333 29.7216 32.2603 29.8364 32.2106C29.9511 32.1609 30.0749 32.1352 30.2 32.1352C30.3251 32.1352 30.4489 32.1609 30.5636 32.2106C30.6784 32.2603 30.7818 32.333 30.8674 32.4242C30.953 32.5155 31.0189 32.6233 31.0612 32.741C31.1035 32.8588 31.1211 32.9839 31.1131 33.1087V35.91ZM26.7069 33.66V33.1087C26.7069 32.9886 26.7305 32.8696 26.7765 32.7586C26.8225 32.6476 26.8899 32.5467 26.9749 32.4617C27.0598 32.3768 27.1607 32.3094 27.2717 32.2634C27.3827 32.2174 27.5017 32.1937 27.6219 32.1937C27.742 32.1937 27.861 32.2174 27.972 32.2634C28.083 32.3094 28.1839 32.3768 28.2689 32.4617C28.3538 32.5467 28.4212 32.6476 28.4672 32.7586C28.5132 32.8696 28.5369 32.9886 28.5369 33.1087V35.91C28.2661 35.7289 27.9476 35.6323 27.6219 35.6323C27.2961 35.6323 26.9777 35.7289 26.7069 35.91V33.66ZM29.5606 31.5825C29.3056 31.6911 29.0824 31.8627 28.9119 32.0813C28.6797 31.7915 28.3578 31.5871 27.9969 31.5V29.4412C27.9969 29.3418 27.9574 29.2464 27.887 29.1761C27.8167 29.1058 27.7213 29.0662 27.6219 29.0662C27.5224 29.0662 27.427 29.1058 27.3567 29.1761C27.2864 29.2464 27.2469 29.3418 27.2469 29.4412V31.5C26.8139 31.6025 26.4391 31.8721 26.2044 32.25C25.8678 31.8488 25.3978 31.5825 24.8806 31.5V27.8325C24.8806 27.733 24.8411 27.6377 24.7708 27.5673C24.7005 27.497 24.6051 27.4575 24.5056 27.4575C24.4062 27.4575 24.3108 27.497 24.2405 27.5673C24.1701 27.6377 24.1306 27.733 24.1306 27.8325V31.4775C23.6171 31.5642 23.1508 31.8299 22.8144 32.2275C22.5811 31.8498 22.2075 31.5801 21.7756 31.4775V29.4412C21.7756 29.3418 21.7361 29.2464 21.6658 29.1761C21.5955 29.1058 21.5001 29.0662 21.4006 29.0662C21.3012 29.0662 21.2058 29.1058 21.1355 29.1761C21.0651 29.2464 21.0256 29.3418 21.0256 29.4412V31.5C20.6642 31.586 20.3421 31.7906 20.1106 32.0813C19.9388 31.8625 19.7143 31.691 19.4581 31.5825V31.5337C19.4581 29.0062 21.7269 26.9625 24.5019 26.9625C27.2769 26.9625 29.5531 29.0062 29.5531 31.5225L29.5606 31.5825ZM20.4856 33.12C20.4776 32.9952 20.4953 32.87 20.5376 32.7523C20.5798 32.6345 20.6458 32.5267 20.7314 32.4355C20.8169 32.3443 20.9203 32.2715 21.0351 32.2218C21.1499 32.1721 21.2737 32.1465 21.3988 32.1465C21.5238 32.1465 21.6476 32.1721 21.7624 32.2218C21.8772 32.2715 21.9806 32.3443 22.0661 32.4355C22.1517 32.5267 22.2177 32.6345 22.2599 32.7523C22.3022 32.87 22.3199 32.9952 22.3119 33.12V35.9212C22.0416 35.7405 21.7239 35.644 21.3988 35.644C21.0736 35.644 20.7559 35.7405 20.4856 35.9212V33.12ZM18.8206 32.205C19.0626 32.205 19.2948 32.3009 19.4663 32.4717C19.6378 32.6425 19.7346 32.8742 19.7356 33.1162V35.9175C19.4648 35.7364 19.1464 35.6398 18.8206 35.6398C18.4949 35.6398 18.1764 35.7364 17.9056 35.9175V33.1087C17.9056 32.8661 18.002 32.6333 18.1736 32.4617C18.3452 32.2901 18.578 32.1937 18.8206 32.1937V32.205ZM17.9056 41.0437V37.2937C17.9056 37.0511 18.002 36.8183 18.1736 36.6467C18.3452 36.4752 18.578 36.3787 18.8206 36.3787C19.0633 36.3787 19.296 36.4752 19.4676 36.6467C19.6392 36.8183 19.7356 37.0511 19.7356 37.2937V43.4587H17.9056V41.0437ZM20.4856 37.2937C20.4776 37.1689 20.4953 37.0438 20.5376 36.926C20.5798 36.8083 20.6458 36.7005 20.7314 36.6092C20.8169 36.518 20.9203 36.4453 21.0351 36.3956C21.1499 36.3459 21.2737 36.3202 21.3988 36.3202C21.5238 36.3202 21.6476 36.3459 21.7624 36.3956C21.8772 36.4453 21.9806 36.518 22.0661 36.6092C22.1517 36.7005 22.2177 36.8083 22.2599 36.926C22.3022 37.0438 22.3199 37.1689 22.3119 37.2937V43.455H20.4856V37.2937ZM26.7069 37.2937C26.7069 37.0511 26.8033 36.8183 26.9749 36.6467C27.1465 36.4752 27.3792 36.3787 27.6219 36.3787C27.8645 36.3787 28.0973 36.4752 28.2689 36.6467C28.4405 36.8183 28.5369 37.0511 28.5369 37.2937V43.455H26.7069V37.2937ZM29.2869 37.2937C29.2789 37.1689 29.2965 37.0438 29.3388 36.926C29.3811 36.8083 29.447 36.7005 29.5326 36.6092C29.6182 36.518 29.7216 36.4453 29.8364 36.3956C29.9511 36.3459 30.0749 36.3202 30.2 36.3202C30.3251 36.3202 30.4489 36.3459 30.5636 36.3956C30.6784 36.4453 30.7818 36.518 30.8674 36.6092C30.953 36.7005 31.0189 36.8083 31.0612 36.926C31.1035 37.0438 31.1211 37.1689 31.1131 37.2937V43.455H29.2869V37.2937ZM31.8631 41.4187H35.4519V43.4775H31.8631V41.4187ZM41.6131 35.2087H40.7694L41.1931 34.35L41.6131 35.2087ZM40.5444 35.9587H41.8381V43.4587H40.5444V35.9587ZM40.8181 33.4087L40.4431 34.1587H40.3119C40.3311 34.0108 40.3411 33.8617 40.3419 33.7125C40.3417 33.2025 40.2273 32.6991 40.0072 32.239C39.7871 31.779 39.4667 31.3741 39.0697 31.0541C38.6727 30.734 38.209 30.5069 37.7128 30.3894C37.2165 30.2719 36.7003 30.267 36.2019 30.375V30H40.8069L40.8181 33.4087ZM19.4581 23.8575C19.4825 23.8456 19.5052 23.8305 19.5256 23.8125L24.5019 18.8288L29.4931 23.8125C29.5141 23.8296 29.5367 23.8447 29.5606 23.8575V24.75H29.4519L24.7981 20.1038C24.7927 20.0932 24.7865 20.0832 24.7794 20.0737C24.7444 20.0375 24.7025 20.0086 24.6561 19.9889C24.6097 19.9692 24.5598 19.959 24.5094 19.959C24.459 19.959 24.4091 19.9692 24.3627 19.9889C24.3163 20.0086 24.2744 20.0375 24.2394 20.0737C24.2387 20.0837 24.2387 20.0938 24.2394 20.1038L19.5706 24.75H19.4581V23.8575ZM24.5019 24.75H20.6319L24.5019 20.8725L28.3906 24.75H24.5019ZM19.7094 25.5H29.5606V28.9163C29.0068 28.084 28.2558 27.4014 27.3746 26.9293C26.4933 26.4572 25.5091 26.2102 24.5094 26.2102C23.5096 26.2102 22.5254 26.4572 21.6442 26.9293C20.7629 27.4014 20.012 28.084 19.4581 28.9163V25.5H19.7094ZM12.8169 30.375C12.3191 30.2687 11.8039 30.2752 11.309 30.3938C10.8141 30.5124 10.352 30.7402 9.95647 31.0606C9.56099 31.3809 9.24216 31.7857 9.02335 32.2452C8.80454 32.7047 8.69128 33.2073 8.69187 33.7163C8.69265 33.8655 8.70267 34.0145 8.72187 34.1625H8.59437L8.21937 33.4125V30H12.8169V30.375ZM6.47937 35.4C6.47553 35.4236 6.47553 35.4477 6.47937 35.4712C6.47588 35.4949 6.47588 35.5189 6.47937 35.5425V43.4175H3.99687V33.5212H5.14437C5.24275 33.5208 5.33703 33.4818 5.40688 33.4125L6.32938 32.4938L7.38688 33.5513L6.47937 35.4ZM9.23937 43.4587V35.5837C9.24286 35.5601 9.24286 35.5361 9.23937 35.5125C9.23715 35.4879 9.23081 35.4638 9.22062 35.4412L8.97687 34.9388H12.8394V43.5L9.23937 43.4587ZM12.3406 45.1987L13.3306 44.2087H35.6731L36.6631 45.1987H12.3406ZM36.2019 43.4587V34.8975H40.0681L39.8206 35.4V35.4712C39.8206 35.4712 39.8206 35.52 39.8206 35.5425V43.4475L36.2019 43.4587ZM46.5481 34.875V43.4775H45.7756V34.875H46.5481ZM45.0069 32.79H44.0319L42.9594 31.7175C42.9245 31.6824 42.883 31.6545 42.8373 31.6354C42.7916 31.6164 42.7426 31.6066 42.6931 31.6066C42.6436 31.6066 42.5946 31.6164 42.5489 31.6354C42.5032 31.6545 42.4617 31.6824 42.4269 31.7175L41.5569 32.5913V29.625C41.5569 29.625 41.5569 29.6025 41.5569 29.5913C41.5569 29.58 41.5569 29.5688 41.5569 29.5613V29.5125C42.4258 29.5558 43.2508 29.9078 43.8832 30.5052C44.5157 31.1026 44.9142 31.9062 45.0069 32.7712V32.79ZM40.2519 26.5312L40.7169 29.2312H36.2019V26.5312H40.2519ZM34.2969 24.1275L34.9231 24.75H33.6706L34.2969 24.1275ZM31.0231 23.9212L31.8556 24.75H30.3106V23.9212H31.0231ZM30.3106 19.2675V18.0637H34.8106V19.2675H30.3106ZM34.6269 15.4275H34.8256V17.3025H30.3256V15.4275H30.5019C30.6013 15.4275 30.6967 15.388 30.767 15.3177C30.8374 15.2473 30.8769 15.152 30.8769 15.0525V12.9487H31.0231C31.1226 12.9487 31.218 12.9092 31.2883 12.8389C31.3586 12.7686 31.3981 12.6732 31.3981 12.5737V8.82375H33.7269V12.5737C33.7269 12.6732 33.7664 12.7686 33.8367 12.8389C33.907 12.9092 34.0024 12.9487 34.1019 12.9487H34.2519V15.0525C34.2519 15.152 34.2914 15.2473 34.3617 15.3177C34.432 15.388 34.5274 15.4275 34.6269 15.4275ZM32.5644 5.9625C32.7169 5.9625 32.8678 5.9926 33.0087 6.05106C33.1495 6.10953 33.2774 6.19522 33.3851 6.30322C33.4927 6.41121 33.578 6.53939 33.636 6.68041C33.694 6.82143 33.7236 6.97252 33.7231 7.125V8.08875H31.4056V7.125C31.4056 6.81733 31.5276 6.52221 31.7448 6.30431C31.962 6.08641 32.2567 5.96349 32.5644 5.9625ZM30.6556 10.9275V12.1987H30.5019C30.4024 12.1987 30.307 12.2383 30.2367 12.3086C30.1664 12.3789 30.1269 12.4743 30.1269 12.5737V13.5225H29.1106C29.1226 12.4693 28.9965 11.4192 28.7356 10.3988C28.4013 8.90556 27.581 7.56552 26.4031 6.58875C28.8669 7.185 30.6556 8.9025 30.6556 10.9275ZM23.5944 4.00125C23.5944 3.75858 23.6908 3.52584 23.8624 3.35425C24.034 3.18265 24.2667 3.08625 24.5094 3.08625C24.752 3.08625 24.9848 3.18265 25.1564 3.35425C25.328 3.52584 25.4244 3.75858 25.4244 4.00125V5.66625C25.1178 5.63699 24.8099 5.62323 24.5019 5.625H24.3969C24.1231 5.625 23.8531 5.625 23.5869 5.67L23.5944 4.00125ZM22.5219 6.62625C21.3605 7.60112 20.5515 8.93052 20.2194 10.41C19.9561 11.43 19.83 12.4805 19.8444 13.5338H18.8769V12.5737C18.8769 12.4743 18.8374 12.3789 18.767 12.3086C18.6967 12.2383 18.6013 12.1987 18.5019 12.1987H18.3519V10.9275C18.3631 8.92875 20.1069 7.23 22.5219 6.615V6.62625ZM16.4544 5.9625C16.6069 5.9625 16.7578 5.9926 16.8987 6.05106C17.0395 6.10953 17.1674 6.19522 17.2751 6.30322C17.3827 6.41121 17.468 6.53939 17.526 6.68041C17.584 6.82143 17.6136 6.97252 17.6131 7.125V8.08875H15.2956V7.125C15.2956 6.81733 15.4176 6.52221 15.6348 6.30431C15.852 6.08641 16.1467 5.96349 16.4544 5.9625ZM14.3994 15.4275C14.4988 15.4275 14.5942 15.388 14.6645 15.3177C14.7349 15.2473 14.7744 15.152 14.7744 15.0525V12.9487H14.9206C15.0201 12.9487 15.1155 12.9092 15.1858 12.8389C15.2561 12.7686 15.2956 12.6732 15.2956 12.5737V8.82375H17.6131V12.5737C17.6131 12.6732 17.6526 12.7686 17.723 12.8389C17.7933 12.9092 17.8887 12.9487 17.9881 12.9487H18.1269V15.0525C18.1269 15.152 18.1664 15.2473 18.2367 15.3177C18.307 15.388 18.4024 15.4275 18.5019 15.4275H18.6969V17.3025H14.1969V15.4275H14.3994ZM14.2006 19.2675V18.0637H18.7006V19.2675H14.2006ZM17.9956 23.9212H18.7081V24.75H17.1631L17.9956 23.9212ZM14.7219 24.1275L15.3481 24.75H14.0956L14.7219 24.1275ZM8.75187 26.5312H12.8169V29.25H8.28687L8.75187 26.5312ZM7.47312 29.5312V29.5613C7.47312 29.5613 7.47312 29.5613 7.47312 29.5913C7.471 29.6024 7.471 29.6139 7.47312 29.625V32.5913L6.59938 31.7175C6.52911 31.6477 6.43407 31.6085 6.335 31.6085C6.23593 31.6085 6.14089 31.6477 6.07063 31.7175L5.00187 32.7712H4.01187C4.10576 31.904 4.5066 31.099 5.14201 30.5014C5.77742 29.9038 6.60554 29.5531 7.47687 29.5125L7.47312 29.5312Z" fill="url(#paint0_linear_230_6786)"/>
<path d="M10.5117 36.2773C10.4123 36.2773 10.3169 36.3169 10.2466 36.3872C10.1762 36.4575 10.1367 36.5529 10.1367 36.6523V38.3511C10.1367 38.4505 10.1762 38.5459 10.2466 38.6163C10.3169 38.6866 10.4123 38.7261 10.5117 38.7261C10.6112 38.7261 10.7066 38.6866 10.7769 38.6163C10.8472 38.5459 10.8867 38.4505 10.8867 38.3511V36.6523C10.8867 36.5529 10.8472 36.4575 10.7769 36.3872C10.7066 36.3169 10.6112 36.2773 10.5117 36.2773Z" fill="url(#paint1_linear_230_6786)"/>
<path d="M11.8516 36.2773C11.7521 36.2773 11.6567 36.3169 11.5864 36.3872C11.5161 36.4575 11.4766 36.5529 11.4766 36.6523V38.3511C11.4766 38.4505 11.5161 38.5459 11.5864 38.6163C11.6567 38.6866 11.7521 38.7261 11.8516 38.7261C11.951 38.7261 12.0464 38.6866 12.1167 38.6163C12.1871 38.5459 12.2266 38.4505 12.2266 38.3511V36.6523C12.2266 36.5529 12.1871 36.4575 12.1167 36.3872C12.0464 36.3169 11.951 36.2773 11.8516 36.2773Z" fill="url(#paint2_linear_230_6786)"/>
<path d="M10.5117 39.8027C10.4123 39.8027 10.3169 39.8422 10.2466 39.9126C10.1762 39.9829 10.1367 40.0783 10.1367 40.1777V41.8727C10.1367 41.9722 10.1762 42.0676 10.2466 42.1379C10.3169 42.2082 10.4123 42.2477 10.5117 42.2477C10.6112 42.2477 10.7066 42.2082 10.7769 42.1379C10.8472 42.0676 10.8867 41.9722 10.8867 41.8727V40.1777C10.8867 40.0783 10.8472 39.9829 10.7769 39.9126C10.7066 39.8422 10.6112 39.8027 10.5117 39.8027Z" fill="url(#paint3_linear_230_6786)"/>
<path d="M11.8516 39.8027C11.7521 39.8027 11.6567 39.8422 11.5864 39.9126C11.5161 39.9829 11.4766 40.0783 11.4766 40.1777V41.8727C11.4766 41.9722 11.5161 42.0676 11.5864 42.1379C11.6567 42.2082 11.7521 42.2477 11.8516 42.2477C11.951 42.2477 12.0464 42.2082 12.1167 42.1379C12.1871 42.0676 12.2266 41.9722 12.2266 41.8727V40.1777C12.2266 40.0783 12.1871 39.9829 12.1167 39.9126C12.0464 39.8422 11.951 39.8027 11.8516 39.8027Z" fill="url(#paint4_linear_230_6786)"/>
<path d="M15.3594 31.5003C15.4588 31.5003 15.5542 31.4608 15.6245 31.3905C15.6949 31.3202 15.7344 31.2248 15.7344 31.1253V26.5391C15.7344 26.4396 15.6949 26.3442 15.6245 26.2739C15.5542 26.2036 15.4588 26.1641 15.3594 26.1641C15.2599 26.1641 15.1645 26.2036 15.0942 26.2739C15.0239 26.3442 14.9844 26.4396 14.9844 26.5391V31.1253C14.9844 31.2248 15.0239 31.3202 15.0942 31.3905C15.1645 31.4608 15.2599 31.5003 15.3594 31.5003Z" fill="url(#paint5_linear_230_6786)"/>
<path d="M15.3594 35.9404C15.4588 35.9404 15.5542 35.9009 15.6245 35.8306C15.6949 35.7602 15.7344 35.6648 15.7344 35.5654V32.5879C15.7344 32.4884 15.6949 32.3931 15.6245 32.3227C15.5542 32.2524 15.4588 32.2129 15.3594 32.2129C15.2599 32.2129 15.1645 32.2524 15.0942 32.3227C15.0239 32.3931 14.9844 32.4884 14.9844 32.5879V35.5654C14.9844 35.6648 15.0239 35.7602 15.0942 35.8306C15.1645 35.9009 15.2599 35.9404 15.3594 35.9404Z" fill="url(#paint6_linear_230_6786)"/>
<path d="M16.8477 29.5016C16.9471 29.5016 17.0425 29.4621 17.1128 29.3917C17.1831 29.3214 17.2227 29.226 17.2227 29.1266V26.5391C17.2227 26.4396 17.1831 26.3442 17.1128 26.2739C17.0425 26.2036 16.9471 26.1641 16.8477 26.1641C16.7482 26.1641 16.6528 26.2036 16.5825 26.2739C16.5122 26.3442 16.4727 26.4396 16.4727 26.5391V29.1266C16.4727 29.226 16.5122 29.3214 16.5825 29.3917C16.6528 29.4621 16.7482 29.5016 16.8477 29.5016Z" fill="url(#paint7_linear_230_6786)"/>
<path d="M38.5039 36.2773C38.4045 36.2773 38.3091 36.3169 38.2387 36.3872C38.1684 36.4575 38.1289 36.5529 38.1289 36.6523V38.3511C38.1289 38.4505 38.1684 38.5459 38.2387 38.6163C38.3091 38.6866 38.4045 38.7261 38.5039 38.7261C38.6034 38.7261 38.6987 38.6866 38.7691 38.6163C38.8394 38.5459 38.8789 38.4505 38.8789 38.3511V36.6523C38.8789 36.5529 38.8394 36.4575 38.7691 36.3872C38.6987 36.3169 38.6034 36.2773 38.5039 36.2773Z" fill="url(#paint8_linear_230_6786)"/>
<path d="M37.1641 36.2773C37.0646 36.2773 36.9692 36.3169 36.8989 36.3872C36.8286 36.4575 36.7891 36.5529 36.7891 36.6523V38.3511C36.7891 38.4505 36.8286 38.5459 36.8989 38.6163C36.9692 38.6866 37.0646 38.7261 37.1641 38.7261C37.2635 38.7261 37.3589 38.6866 37.4292 38.6163C37.4996 38.5459 37.5391 38.4505 37.5391 38.3511V36.6523C37.5391 36.5529 37.4996 36.4575 37.4292 36.3872C37.3589 36.3169 37.2635 36.2773 37.1641 36.2773Z" fill="url(#paint9_linear_230_6786)"/>
<path d="M38.5039 39.8027C38.4045 39.8027 38.3091 39.8422 38.2387 39.9126C38.1684 39.9829 38.1289 40.0783 38.1289 40.1777V41.8727C38.1289 41.9722 38.1684 42.0676 38.2387 42.1379C38.3091 42.2082 38.4045 42.2477 38.5039 42.2477C38.6034 42.2477 38.6987 42.2082 38.7691 42.1379C38.8394 42.0676 38.8789 41.9722 38.8789 41.8727V40.1777C38.8789 40.0783 38.8394 39.9829 38.7691 39.9126C38.6987 39.8422 38.6034 39.8027 38.5039 39.8027Z" fill="url(#paint10_linear_230_6786)"/>
<path d="M37.1641 39.8027C37.0646 39.8027 36.9692 39.8422 36.8989 39.9126C36.8286 39.9829 36.7891 40.0783 36.7891 40.1777V41.8727C36.7891 41.9722 36.8286 42.0676 36.8989 42.1379C36.9692 42.2082 37.0646 42.2477 37.1641 42.2477C37.2635 42.2477 37.3589 42.2082 37.4292 42.1379C37.4996 42.0676 37.5391 41.9722 37.5391 41.8727V40.1777C37.5391 40.0783 37.4996 39.9829 37.4292 39.9126C37.3589 39.8422 37.2635 39.8027 37.1641 39.8027Z" fill="url(#paint11_linear_230_6786)"/>
<path d="M33.6562 31.5003C33.7557 31.5003 33.8511 31.4608 33.9214 31.3905C33.9917 31.3202 34.0312 31.2248 34.0312 31.1253V26.5391C34.0312 26.4396 33.9917 26.3442 33.9214 26.2739C33.8511 26.2036 33.7557 26.1641 33.6562 26.1641C33.5568 26.1641 33.4614 26.2036 33.3911 26.2739C33.3208 26.3442 33.2812 26.4396 33.2812 26.5391V31.1253C33.2812 31.2248 33.3208 31.3202 33.3911 31.3905C33.4614 31.4608 33.5568 31.5003 33.6562 31.5003Z" fill="url(#paint12_linear_230_6786)"/>
<path d="M33.6562 35.9404C33.7557 35.9404 33.8511 35.9009 33.9214 35.8306C33.9917 35.7602 34.0312 35.6648 34.0312 35.5654V32.5879C34.0312 32.4884 33.9917 32.3931 33.9214 32.3227C33.8511 32.2524 33.7557 32.2129 33.6562 32.2129C33.5568 32.2129 33.4614 32.2524 33.3911 32.3227C33.3208 32.3931 33.2812 32.4884 33.2812 32.5879V35.5654C33.2812 35.6648 33.3208 35.7602 33.3911 35.8306C33.4614 35.9009 33.5568 35.9404 33.6562 35.9404Z" fill="url(#paint13_linear_230_6786)"/>
<path d="M32.1719 29.5016C32.2713 29.5016 32.3667 29.4621 32.437 29.3917C32.5074 29.3214 32.5469 29.226 32.5469 29.1266V26.5391C32.5469 26.4396 32.5074 26.3442 32.437 26.2739C32.3667 26.2036 32.2713 26.1641 32.1719 26.1641C32.0724 26.1641 31.977 26.2036 31.9067 26.2739C31.8364 26.3442 31.7969 26.4396 31.7969 26.5391V29.1266C31.7969 29.226 31.8364 29.3214 31.9067 29.3917C31.977 29.4621 32.0724 29.5016 32.1719 29.5016Z" fill="url(#paint14_linear_230_6786)"/>
<path d="M26.0898 28.1621C25.9904 28.1621 25.895 28.2016 25.8247 28.2719C25.7544 28.3423 25.7148 28.4377 25.7148 28.5371V30.3446C25.7148 30.4441 25.7544 30.5394 25.8247 30.6098C25.895 30.6801 25.9904 30.7196 26.0898 30.7196C26.1893 30.7196 26.2847 30.6801 26.355 30.6098C26.4253 30.5394 26.4648 30.4441 26.4648 30.3446V28.5371C26.4648 28.4377 26.4253 28.3423 26.355 28.2719C26.2847 28.2016 26.1893 28.1621 26.0898 28.1621Z" fill="url(#paint15_linear_230_6786)"/>
<path d="M22.8281 28.1621C22.7287 28.1621 22.6333 28.2016 22.563 28.2719C22.4926 28.3423 22.4531 28.4377 22.4531 28.5371V30.3446C22.4531 30.4441 22.4926 30.5394 22.563 30.6098C22.6333 30.6801 22.7287 30.7196 22.8281 30.7196C22.9276 30.7196 23.023 30.6801 23.0933 30.6098C23.1636 30.5394 23.2031 30.4441 23.2031 30.3446V28.5371C23.2031 28.4377 23.1636 28.3423 23.0933 28.2719C23.023 28.2016 22.9276 28.1621 22.8281 28.1621Z" fill="url(#paint16_linear_230_6786)"/>
<path d="M28.1127 47.4492C28.2121 47.4492 28.3075 47.4097 28.3778 47.3394C28.4481 47.2691 28.4877 47.1737 28.4877 47.0742C28.4877 46.9748 28.4481 46.8794 28.3778 46.8091C28.3075 46.7387 28.2121 46.6992 28.1127 46.6992H26.1289C26.0295 46.6992 25.9341 46.7387 25.8637 46.8091C25.7934 46.8794 25.7539 46.9748 25.7539 47.0742C25.7539 47.1737 25.7934 47.2691 25.8637 47.3394C25.9341 47.4097 26.0295 47.4492 26.1289 47.4492H28.1127Z" fill="url(#paint17_linear_230_6786)"/>
<path d="M24.4492 8.19289C24.5487 8.19289 24.6441 8.15338 24.7144 8.08306C24.7847 8.01273 24.8242 7.91735 24.8242 7.81789V7.33789C24.8242 7.23843 24.7847 7.14305 24.7144 7.07273C24.6441 7.0024 24.5487 6.96289 24.4492 6.96289C24.3498 6.96289 24.2544 7.0024 24.1841 7.07273C24.1137 7.14305 24.0742 7.23843 24.0742 7.33789V7.81789C24.0742 7.91735 24.1137 8.01273 24.1841 8.08306C24.2544 8.15338 24.3498 8.19289 24.4492 8.19289Z" fill="url(#paint18_linear_230_6786)"/>
<path d="M24.4492 10.1241C24.5487 10.1241 24.6441 10.0846 24.7144 10.0143C24.7847 9.94398 24.8242 9.8486 24.8242 9.74914V9.30664C24.8242 9.20718 24.7847 9.1118 24.7144 9.04148C24.6441 8.97115 24.5487 8.93164 24.4492 8.93164C24.3498 8.93164 24.2544 8.97115 24.1841 9.04148C24.1137 9.1118 24.0742 9.20718 24.0742 9.30664V9.74914C24.0742 9.8486 24.1137 9.94398 24.1841 10.0143C24.2544 10.0846 24.3498 10.1241 24.4492 10.1241Z" fill="url(#paint19_linear_230_6786)"/>
<path d="M20.6523 15.2402C20.5529 15.2402 20.4575 15.2797 20.3872 15.3501C20.3169 15.4204 20.2773 15.5158 20.2773 15.6152V16.7065C20.2773 16.8059 20.3169 16.9013 20.3872 16.9716C20.4575 17.042 20.5529 17.0815 20.6523 17.0815C20.7518 17.0815 20.8472 17.042 20.9175 16.9716C20.9878 16.9013 21.0273 16.8059 21.0273 16.7065V15.6152C21.0273 15.5158 20.9878 15.4204 20.9175 15.3501C20.8472 15.2797 20.7518 15.2402 20.6523 15.2402Z" fill="url(#paint20_linear_230_6786)"/>
<path d="M22.5664 15.2402C22.467 15.2402 22.3716 15.2797 22.3012 15.3501C22.2309 15.4204 22.1914 15.5158 22.1914 15.6152V16.7065C22.1914 16.8059 22.2309 16.9013 22.3012 16.9716C22.3716 17.042 22.467 17.0815 22.5664 17.0815C22.6659 17.0815 22.7612 17.042 22.8316 16.9716C22.9019 16.9013 22.9414 16.8059 22.9414 16.7065V15.6152C22.9414 15.5158 22.9019 15.4204 22.8316 15.3501C22.7612 15.2797 22.6659 15.2402 22.5664 15.2402Z" fill="url(#paint21_linear_230_6786)"/>
<path d="M24.875 16.7065V15.6152C24.875 15.5158 24.8355 15.4204 24.7652 15.3501C24.6948 15.2797 24.5995 15.2402 24.5 15.2402C24.4005 15.2402 24.3052 15.2797 24.2348 15.3501C24.1645 15.4204 24.125 15.5158 24.125 15.6152V16.7065C24.125 16.8059 24.1645 16.9013 24.2348 16.9716C24.3052 17.042 24.4005 17.0815 24.5 17.0815C24.5995 17.0815 24.6948 17.042 24.7652 16.9716C24.8355 16.9013 24.875 16.8059 24.875 16.7065Z" fill="url(#paint22_linear_230_6786)"/>
<path d="M26.3945 17.0815C26.494 17.0815 26.5894 17.042 26.6597 16.9716C26.73 16.9013 26.7695 16.8059 26.7695 16.7065V15.6152C26.7695 15.5158 26.73 15.4204 26.6597 15.3501C26.5894 15.2797 26.494 15.2402 26.3945 15.2402C26.2951 15.2402 26.1997 15.2797 26.1294 15.3501C26.059 15.4204 26.0195 15.5158 26.0195 15.6152V16.7065C26.0195 16.8059 26.059 16.9013 26.1294 16.9716C26.1997 17.042 26.2951 17.0815 26.3945 17.0815Z" fill="url(#paint23_linear_230_6786)"/>
<path d="M28.3086 17.0815C28.408 17.0815 28.5034 17.042 28.5738 16.9716C28.6441 16.9013 28.6836 16.8059 28.6836 16.7065V15.6152C28.6836 15.5158 28.6441 15.4204 28.5738 15.3501C28.5034 15.2797 28.408 15.2402 28.3086 15.2402C28.2091 15.2402 28.1138 15.2797 28.0434 15.3501C27.9731 15.4204 27.9336 15.5158 27.9336 15.6152V16.7065C27.9336 16.8059 27.9731 16.9013 28.0434 16.9716C28.1138 17.042 28.2091 17.0815 28.3086 17.0815Z" fill="url(#paint24_linear_230_6786)"/>
<defs>
<linearGradient id="paint0_linear_230_6786" x1="22.0617" y1="-4.19313" x2="28.4135" y2="53.1663" gradientUnits="userSpaceOnUse">
<stop stop-color="#75B7FF"/>
<stop offset="1" stop-color="#0044E8"/>
</linearGradient>
<linearGradient id="paint1_linear_230_6786" x1="10.4727" y1="36.0522" x2="11.4135" y2="38.7025" gradientUnits="userSpaceOnUse">
<stop stop-color="#75B7FF"/>
<stop offset="1" stop-color="#0044E8"/>
</linearGradient>
<linearGradient id="paint2_linear_230_6786" x1="11.8125" y1="36.0522" x2="12.7533" y2="38.7025" gradientUnits="userSpaceOnUse">
<stop stop-color="#75B7FF"/>
<stop offset="1" stop-color="#0044E8"/>
</linearGradient>
<linearGradient id="paint3_linear_230_6786" x1="10.4727" y1="39.5779" x2="11.4109" y2="42.2251" gradientUnits="userSpaceOnUse">
<stop stop-color="#75B7FF"/>
<stop offset="1" stop-color="#0044E8"/>
</linearGradient>
<linearGradient id="paint4_linear_230_6786" x1="11.8125" y1="39.5779" x2="12.7507" y2="42.2251" gradientUnits="userSpaceOnUse">
<stop stop-color="#75B7FF"/>
<stop offset="1" stop-color="#0044E8"/>
</linearGradient>
<linearGradient id="paint5_linear_230_6786" x1="15.3203" y1="25.6734" x2="18.4676" y2="29.742" gradientUnits="userSpaceOnUse">
<stop stop-color="#75B7FF"/>
<stop offset="1" stop-color="#0044E8"/>
</linearGradient>
<linearGradient id="paint6_linear_230_6786" x1="15.3203" y1="31.8702" x2="17.2202" y2="35.3862" gradientUnits="userSpaceOnUse">
<stop stop-color="#75B7FF"/>
<stop offset="1" stop-color="#0044E8"/>
</linearGradient>
<linearGradient id="paint7_linear_230_6786" x1="16.8086" y1="25.8572" x2="18.4032" y2="29.1531" gradientUnits="userSpaceOnUse">
<stop stop-color="#75B7FF"/>
<stop offset="1" stop-color="#0044E8"/>
</linearGradient>
<linearGradient id="paint8_linear_230_6786" x1="38.4648" y1="36.0522" x2="39.4056" y2="38.7025" gradientUnits="userSpaceOnUse">
<stop stop-color="#75B7FF"/>
<stop offset="1" stop-color="#0044E8"/>
</linearGradient>
<linearGradient id="paint9_linear_230_6786" x1="37.125" y1="36.0522" x2="38.0658" y2="38.7025" gradientUnits="userSpaceOnUse">
<stop stop-color="#75B7FF"/>
<stop offset="1" stop-color="#0044E8"/>
</linearGradient>
<linearGradient id="paint10_linear_230_6786" x1="38.4648" y1="39.5779" x2="39.4031" y2="42.2251" gradientUnits="userSpaceOnUse">
<stop stop-color="#75B7FF"/>
<stop offset="1" stop-color="#0044E8"/>
</linearGradient>
<linearGradient id="paint11_linear_230_6786" x1="37.125" y1="39.5779" x2="38.0632" y2="42.2251" gradientUnits="userSpaceOnUse">
<stop stop-color="#75B7FF"/>
<stop offset="1" stop-color="#0044E8"/>
</linearGradient>
<linearGradient id="paint12_linear_230_6786" x1="33.6172" y1="25.6734" x2="36.7645" y2="29.742" gradientUnits="userSpaceOnUse">
<stop stop-color="#75B7FF"/>
<stop offset="1" stop-color="#0044E8"/>
</linearGradient>
<linearGradient id="paint13_linear_230_6786" x1="33.6172" y1="31.8702" x2="35.5171" y2="35.3862" gradientUnits="userSpaceOnUse">
<stop stop-color="#75B7FF"/>
<stop offset="1" stop-color="#0044E8"/>
</linearGradient>
<linearGradient id="paint14_linear_230_6786" x1="32.1328" y1="25.8572" x2="33.7274" y2="29.1531" gradientUnits="userSpaceOnUse">
<stop stop-color="#75B7FF"/>
<stop offset="1" stop-color="#0044E8"/>
</linearGradient>
<linearGradient id="paint15_linear_230_6786" x1="26.0508" y1="27.927" x2="27.0667" y2="30.6671" gradientUnits="userSpaceOnUse">
<stop stop-color="#75B7FF"/>
<stop offset="1" stop-color="#0044E8"/>
</linearGradient>
<linearGradient id="paint16_linear_230_6786" x1="22.7891" y1="27.927" x2="23.805" y2="30.6671" gradientUnits="userSpaceOnUse">
<stop stop-color="#75B7FF"/>
<stop offset="1" stop-color="#0044E8"/>
</linearGradient>
<linearGradient id="paint17_linear_230_6786" x1="26.9784" y1="46.6303" x2="27.0056" y2="47.5435" gradientUnits="userSpaceOnUse">
<stop stop-color="#75B7FF"/>
<stop offset="1" stop-color="#0044E8"/>
</linearGradient>
<linearGradient id="paint18_linear_230_6786" x1="24.4102" y1="6.8498" x2="24.6692" y2="8.30259" gradientUnits="userSpaceOnUse">
<stop stop-color="#75B7FF"/>
<stop offset="1" stop-color="#0044E8"/>
</linearGradient>
<linearGradient id="paint19_linear_230_6786" x1="24.4102" y1="8.822" x2="24.6541" y2="10.2331" gradientUnits="userSpaceOnUse">
<stop stop-color="#75B7FF"/>
<stop offset="1" stop-color="#0044E8"/>
</linearGradient>
<linearGradient id="paint20_linear_230_6786" x1="20.6133" y1="15.0709" x2="21.1724" y2="17.1656" gradientUnits="userSpaceOnUse">
<stop stop-color="#75B7FF"/>
<stop offset="1" stop-color="#0044E8"/>
</linearGradient>
<linearGradient id="paint21_linear_230_6786" x1="22.5273" y1="15.0709" x2="23.0864" y2="17.1656" gradientUnits="userSpaceOnUse">
<stop stop-color="#75B7FF"/>
<stop offset="1" stop-color="#0044E8"/>
</linearGradient>
<linearGradient id="paint22_linear_230_6786" x1="24.4609" y1="15.0709" x2="25.02" y2="17.1656" gradientUnits="userSpaceOnUse">
<stop stop-color="#75B7FF"/>
<stop offset="1" stop-color="#0044E8"/>
</linearGradient>
<linearGradient id="paint23_linear_230_6786" x1="26.3555" y1="15.0709" x2="26.9146" y2="17.1656" gradientUnits="userSpaceOnUse">
<stop stop-color="#75B7FF"/>
<stop offset="1" stop-color="#0044E8"/>
</linearGradient>
<linearGradient id="paint24_linear_230_6786" x1="28.2695" y1="15.0709" x2="28.8286" y2="17.1656" gradientUnits="userSpaceOnUse">
<stop stop-color="#75B7FF"/>
<stop offset="1" stop-color="#0044E8"/>
</linearGradient>
</defs>
</svg>
