<svg width="48" height="48" viewBox="0 0 48 48" fill="none" xmlns="http://www.w3.org/2000/svg">
<g clip-path="url(#clip0_230_6763)">
<path fill-rule="evenodd" clip-rule="evenodd" d="M45.8917 15.7213H46.3498C47.2598 15.7213 48 16.4615 48.0001 17.3714V18.6972C48.0001 19.6071 47.2598 20.3474 46.3499 20.3474H46.106V22.2115C46.106 22.5998 45.7913 22.9146 45.4028 22.9146C45.0144 22.9146 44.6997 22.5998 44.6997 22.2115V20.3474H33.6597C33.0419 20.3474 32.461 20.1068 32.0242 19.67L24 11.6458L15.976 19.67C15.5391 20.1069 14.9582 20.3475 14.3404 20.3475H3.30038V35.759C3.30038 36.1474 2.98566 36.4622 2.59725 36.4622C2.20884 36.4622 1.89413 36.1474 1.89413 35.759V20.3475H1.65019C0.74025 20.3475 0 19.6072 0 18.6973V17.3715C0 16.4615 0.74025 15.7213 1.65019 15.7213H2.10834L6.40397 4.15583C6.78009 3.14323 7.75856 2.46289 8.83866 2.46289H39.1613C40.2414 2.46289 41.2198 3.14323 41.5959 4.15583L45.8917 15.7213ZM8.83866 3.86914C8.34338 3.86914 7.89469 4.18105 7.72219 4.64539L3.60834 15.7213H13.3822L22.3644 6.73911C22.8013 6.30214 23.3821 6.06158 24 6.06158C24.6179 6.06158 25.1987 6.30223 25.6356 6.73911L34.6178 15.7213H44.3916L40.2777 4.64539C40.1052 4.18114 39.6565 3.86914 39.1613 3.86914H8.83866ZM46.3498 18.9412C46.4843 18.9412 46.5938 18.8318 46.5938 18.6973H46.5939V17.3715C46.5939 17.237 46.4845 17.1275 46.35 17.1275H34.3268C34.1402 17.1275 33.9614 17.0535 33.8295 16.9216L24.6413 7.73342C24.4701 7.56214 24.2423 7.46783 24.0001 7.46783C23.7578 7.46783 23.5301 7.56214 23.3589 7.73342L14.1707 16.9216C14.0387 17.0535 13.8599 17.1275 13.6734 17.1275H1.65019C1.51566 17.1275 1.40625 17.237 1.40625 17.3715V18.6973C1.40625 18.8318 1.51566 18.9412 1.65019 18.9412H14.3401C14.5823 18.9412 14.8102 18.8469 14.9814 18.6756L23.5027 10.1543C23.6347 10.0224 23.8133 9.94836 23.9999 9.94836C24.1865 9.94836 24.3653 10.0224 24.4972 10.1543L33.0185 18.6756C33.1897 18.8469 33.4175 18.9412 33.6597 18.9412H46.3498ZM42.9808 39.1531C42.9808 39.5414 42.6661 39.8562 42.2777 39.8562H32.8073C32.4189 39.8562 32.1042 39.5414 32.1042 39.1531V26.6524C32.1042 26.264 32.4189 25.9492 32.8073 25.9492H42.2777C42.6661 25.9492 42.9808 26.264 42.9808 26.6524V39.1531ZM38.2456 35.4195H41.5746V32.0906H38.2456V35.4195ZM33.5105 35.4195H36.8393V32.0906H33.5105V35.4195ZM33.5105 38.45H41.5746V36.8257H33.5105V38.45ZM38.2456 30.6843H41.5746V27.3554H38.2456V30.6843ZM36.8393 30.6844V27.3555H33.5105V30.6844H36.8393ZM15.1927 39.8562C15.5811 39.8562 15.8958 39.5414 15.8958 39.1531V26.6524C15.8958 26.264 15.5811 25.9492 15.1927 25.9492H5.72231C5.33391 25.9492 5.01919 26.264 5.01919 26.6524V39.1531C5.01919 39.5414 5.33391 39.8562 5.72231 39.8562H15.1927ZM14.4895 35.4195H11.1607V32.0906H14.4895V35.4195ZM9.75441 35.4195H6.42544V32.0906H9.75441V35.4195ZM14.4895 38.45H6.42544V36.8257H14.4895V38.45ZM14.4895 30.6843H11.1607V27.3554H14.4895V30.6843ZM9.75441 27.3555V30.6844H6.42544V27.3555H9.75441ZM21.7271 28.9797H26.2729C26.6613 28.9797 26.976 29.2945 26.976 29.6828V32.7133C26.976 33.1016 26.6613 33.4164 26.2729 33.4164H21.7271C21.3387 33.4164 21.024 33.1016 21.024 32.7133V29.6828C21.024 29.2945 21.3387 28.9797 21.7271 28.9797ZM22.4302 32.0102H25.5697V30.386H22.4302V32.0102ZM27.7336 20.1178C27.7336 18.0591 26.0588 16.3842 24 16.3842C21.9412 16.3842 20.2664 18.0591 20.2664 20.1178C20.2664 22.1765 21.9412 23.8515 24 23.8515C26.0588 23.8515 27.7336 22.1765 27.7336 20.1178ZM21.6727 20.1178C21.6727 18.8345 22.7168 17.7905 24 17.7905C25.2833 17.7905 26.3273 18.8345 26.3273 20.1178C26.3273 21.401 25.2833 22.4452 24 22.4452C22.7168 22.4452 21.6727 21.4011 21.6727 20.1178ZM46.106 40.9122H47.2969C47.6853 40.9122 48 41.227 48 41.6153V44.8353C48 45.2236 47.6853 45.5384 47.2969 45.5384H0.703125C0.314719 45.5384 0 45.2236 0 44.8353V41.6153C0 41.227 0.314719 40.9122 0.703125 40.9122H1.89403V39.0481C1.89403 38.6598 2.20875 38.345 2.59716 38.345C2.98556 38.345 3.30028 38.6598 3.30028 39.0481V40.9122H17.9935V26.6524C17.9935 26.264 18.3083 25.9492 18.6967 25.9492H29.3033C29.6917 25.9492 30.0065 26.264 30.0065 26.6524V40.9122H44.6997V25.5006C44.6997 25.1123 45.0144 24.7975 45.4028 24.7975C45.7912 24.7975 46.106 25.1123 46.106 25.5006V40.9122ZM20.4014 35.784H19.3998V40.9122H28.6003V27.3555H19.3998V34.3777H20.4014C20.7898 34.3777 21.1045 34.6925 21.1045 35.0809C21.1045 35.4692 20.7898 35.784 20.4014 35.784ZM1.40625 42.3185V44.1321H46.5938V42.3185H1.40625Z" fill="url(#paint0_linear_230_6763)"/>
</g>
<defs>
<linearGradient id="paint0_linear_230_6763" x1="21.5" y1="-1.49771" x2="26.5735" y2="50.5028" gradientUnits="userSpaceOnUse">
<stop stop-color="white"/>
<stop offset="1" stop-color="#C4E0FF"/>
</linearGradient>
<clipPath id="clip0_230_6763">
<rect width="48" height="48" fill="white"/>
</clipPath>
</defs>
</svg>
