<svg width="87" height="87" viewBox="0 0 87 87" fill="none" xmlns="http://www.w3.org/2000/svg">
<path fill-rule="evenodd" clip-rule="evenodd" d="M65.1739 12.2499C70.9679 18.0439 74.2271 25.8997 74.2363 34.0938C74.2262 41.3274 71.6826 48.3291 67.0475 53.8826C62.4123 59.4361 55.9784 63.1907 48.8631 64.4941L49.8432 70.375C50.5032 70.3459 51.1603 70.4791 51.7569 70.7629C52.3535 71.0468 52.8714 71.4726 53.2651 72.0032C53.6589 72.5337 53.9165 73.1527 54.0154 73.8059C54.1143 74.4592 54.0515 75.1267 53.8324 75.75H56.7675C57.6127 75.7528 58.4354 76.0218 59.1191 76.5186C59.8028 77.0155 60.3126 77.715 60.5763 78.518C61.8155 78.5278 63.0228 78.1256 64.0086 77.3746C64.6606 76.8498 65.1917 76.1904 65.5654 75.4414C65.9391 74.6924 66.1466 73.8715 66.1738 73.0349C66.19 72.6817 66.3413 72.3482 66.5964 72.1033C66.8514 71.8583 67.1908 71.7207 67.5444 71.7188C67.9008 71.7262 68.2397 71.8747 68.4866 72.1319C68.7336 72.389 68.8683 72.7336 68.8613 73.0901C68.8195 74.3267 68.511 75.5397 67.957 76.646C67.403 77.7524 66.6166 78.7261 65.6515 79.5004C64.1798 80.6224 62.3765 81.2226 60.5259 81.2063C60.2376 81.9706 59.7238 82.6291 59.0525 83.0946C58.3813 83.5601 57.5844 83.8104 56.7675 83.8125H29.8926C28.8314 83.8006 27.8176 83.3706 27.0713 82.6159C26.325 81.8612 25.9065 80.8427 25.9065 79.7813C25.9064 78.7199 26.325 77.7014 27.0712 76.9467C27.8175 76.192 28.8312 75.762 29.8925 75.75H32.8277C32.6086 75.1267 32.5458 74.4592 32.6447 73.8059C32.7436 73.1527 33.0012 72.5337 33.3949 72.0031C33.7887 71.4726 34.3065 71.0468 34.9031 70.7629C35.4997 70.479 36.1568 70.3458 36.8169 70.375L37.797 64.4941C1.20872 56.8567 5.634 4.28937 43.33 3.1875C51.524 3.1967 59.3798 6.45584 65.1739 12.2499ZM23.3857 14.1495C18.0955 19.4397 15.1198 26.6123 15.1113 34.0938C15.1198 41.5752 18.0955 48.7477 23.3857 54.0379C28.6758 59.3281 35.8484 62.3039 43.3298 62.3125C80.7551 60.768 80.766 7.4252 43.33 5.875C35.8486 5.8835 28.6759 8.85927 23.3857 14.1495ZM57.7173 80.731C57.9692 80.4791 58.1109 80.1375 58.1113 79.7812C58.1109 79.425 57.9692 79.0834 57.7173 78.8315C57.4654 78.5795 57.1238 78.4379 56.7675 78.4375H29.8925C29.5361 78.4375 29.1944 78.5791 28.9424 78.8311C28.6903 79.0831 28.5488 79.4249 28.5488 79.7812C28.5488 80.1376 28.6903 80.4794 28.9424 80.7314C29.1944 80.9834 29.5361 81.125 29.8925 81.125H56.7675C57.1238 81.1246 57.4654 80.983 57.7173 80.731ZM50.9986 75.356C51.2505 75.1041 51.3922 74.7625 51.3925 74.4062C51.3922 74.05 51.2505 73.7084 50.9986 73.4565C50.7466 73.2045 50.4051 73.0629 50.0488 73.0625H36.6113C36.2549 73.0625 35.9131 73.2041 35.6611 73.4561C35.4091 73.7081 35.2675 74.0499 35.2675 74.4062C35.2675 74.7626 35.4091 75.1044 35.6611 75.3564C35.9131 75.6084 36.2549 75.75 36.6113 75.75H50.0488C50.4051 75.7496 50.7466 75.608 50.9986 75.356ZM47.1185 70.375L46.2229 65H40.4372L39.5415 70.375H47.1185ZM44.6761 40.6767V58.2812C44.6761 58.4577 44.6414 58.6325 44.5739 58.7955C44.5064 58.9585 44.4074 59.1067 44.2827 59.2315C44.1579 59.3562 44.0098 59.4552 43.8467 59.5228C43.6837 59.5903 43.509 59.625 43.3325 59.625C34.5752 59.3757 32.5961 44.3705 39.3897 39.5076C38.0332 38.5273 37.0916 37.0758 36.7494 35.4375H19.1448C18.9683 35.4375 18.7936 35.4028 18.6306 35.3353C18.4675 35.2678 18.3194 35.1689 18.1946 35.0441C18.0698 34.9193 17.9708 34.7712 17.9033 34.6082C17.8358 34.4451 17.801 34.2704 17.8011 34.0939C18.0502 25.3362 33.0563 23.358 37.9184 30.1512C38.8988 28.7947 40.3502 27.853 41.9886 27.5108V9.90625C41.9885 9.72979 42.0232 9.55505 42.0907 9.39201C42.1582 9.22897 42.2572 9.08082 42.382 8.95604C42.5067 8.83125 42.6549 8.73227 42.8179 8.66475C42.9809 8.59722 43.1557 8.56248 43.3321 8.5625C52.0899 8.81169 54.0681 23.8177 47.2749 28.6799C48.6314 29.6602 49.573 31.1117 49.9152 32.75H67.5198C67.6963 32.75 67.871 32.7847 68.034 32.8522C68.1971 32.9197 68.3452 33.0186 68.47 33.1434C68.5948 33.2682 68.6938 33.4163 68.7613 33.5793C68.8288 33.7424 68.8636 33.9171 68.8636 34.0936C68.6144 42.8513 53.6084 44.8295 48.7462 38.0363C47.7659 39.3928 46.3144 40.3345 44.6761 40.6767ZM65.9097 35.4375C63.7775 40.7426 52.4464 40.7386 50.3174 35.4375H65.9097ZM44.6761 11.5164C49.981 13.6479 49.9771 24.9803 44.6761 27.1086V11.5164ZM20.7549 32.75C22.8872 27.4449 34.2182 27.4489 36.3472 32.75H20.7549ZM40.4977 31.2724C39.743 32.0187 39.313 33.0325 39.3011 34.0938C39.313 35.155 39.743 36.1688 40.4977 36.9151C41.2523 37.6614 42.2709 38.0799 43.3323 38.0799C44.3936 38.08 45.4122 37.6614 46.1669 36.9152C46.9216 36.1689 47.3516 35.1552 47.3636 34.0939C47.3516 33.0326 46.9217 32.0188 46.167 31.2725C45.4123 30.5263 44.3937 30.1077 43.3324 30.1077C42.271 30.1077 41.2525 30.5262 40.4977 31.2724ZM41.9886 56.6711C36.6836 54.5396 36.6876 43.2072 41.9886 41.0789V56.6711ZM53.4117 16.6324C55.7275 17.9771 57.7543 19.767 59.3752 21.8987C60.9961 24.0304 62.1791 26.4618 62.856 29.0529C62.9487 29.3935 63.1719 29.684 63.4771 29.8614C63.7823 30.0388 64.1451 30.089 64.487 30.0011C64.829 29.9131 65.1225 29.6941 65.3043 29.3914C65.486 29.0887 65.5413 28.7267 65.4582 28.3835C64.692 25.4469 63.3518 22.6911 61.5151 20.2751C59.6784 17.8591 57.3814 15.8307 54.7567 14.307C54.4487 14.1343 54.0851 14.0899 53.7445 14.1833C53.404 14.2767 53.1139 14.5005 52.9371 14.8062C52.7603 15.1118 52.7109 15.4749 52.7997 15.8166C52.8886 16.1584 53.1084 16.4515 53.4117 16.6324ZM25.0526 24.6409C24.7084 24.7327 24.3418 24.6841 24.0334 24.5058C23.8806 24.4175 23.7467 24.3 23.6393 24.1599C23.5319 24.0199 23.4532 23.86 23.4076 23.6895C23.362 23.519 23.3505 23.3412 23.3737 23.1663C23.3968 22.9913 23.4543 22.8226 23.5426 22.6699C25.0668 20.0456 27.0953 17.7489 29.5113 15.9122C31.9272 14.0756 34.6828 12.7352 37.6192 11.9685C37.9623 11.8856 38.3244 11.941 38.627 12.1227C38.9297 12.3045 39.1487 12.598 39.2368 12.9399C39.3249 13.2818 39.2749 13.6446 39.0977 13.95C38.9205 14.2554 38.6303 14.4788 38.2898 14.572C35.6986 15.2484 33.2669 16.4312 31.1352 18.0522C29.0034 19.6731 27.2137 21.7002 25.8693 24.0163C25.6906 24.3245 25.3969 24.5491 25.0526 24.6409ZM33.2567 51.554C30.9408 50.2093 28.9141 48.4194 27.2931 46.2877C25.6722 44.156 24.4892 41.7246 23.8124 39.1336C23.7196 38.7929 23.4965 38.5025 23.1913 38.325C22.8861 38.1476 22.5233 38.0974 22.1813 38.1854C21.8394 38.2733 21.5458 38.4923 21.3641 38.795C21.1824 39.0977 21.1271 39.4597 21.2102 39.8029C21.9764 42.7395 23.3165 45.4953 25.1532 47.9113C26.99 50.3273 29.2869 52.3557 31.9116 53.8794C32.2197 54.0521 32.5833 54.0965 32.9238 54.0031C33.2644 53.9097 33.5545 53.6859 33.7313 53.3803C33.9081 53.0746 33.9574 52.7116 33.8686 52.3698C33.7798 52.028 33.56 51.735 33.2567 51.554ZM62.1304 43.5118C62.3054 43.5351 62.474 43.5927 62.6266 43.6812C62.7794 43.7695 62.9134 43.887 63.0207 44.0271C63.1281 44.1671 63.2069 44.327 63.2524 44.4975C63.298 44.6679 63.3096 44.8458 63.2864 45.0207C63.2632 45.1957 63.2058 45.3643 63.1174 45.5171C61.5932 48.1414 59.5647 50.4381 57.1488 52.2748C54.7328 54.1114 51.9773 55.4518 49.0409 56.2185C48.6978 56.3012 48.336 56.2456 48.0335 56.0638C47.731 55.882 47.5121 55.5886 47.4241 55.2468C47.336 54.9051 47.3859 54.5424 47.5629 54.2371C47.74 53.9318 48.0299 53.7084 48.3703 53.615C50.9615 52.9386 53.3931 51.7558 55.5249 50.1348C57.6566 48.5138 59.4464 46.4868 60.7908 44.1707C60.8791 44.0179 60.9966 43.884 61.1367 43.7767C61.2768 43.6694 61.4367 43.5908 61.6072 43.5453C61.7777 43.4998 61.9555 43.4885 62.1304 43.5118Z" fill="url(#paint0_linear_230_6855)"/>
<defs>
<linearGradient id="paint0_linear_230_6855" x1="40.1979" y1="-4.22561" x2="53.8908" y2="92.0842" gradientUnits="userSpaceOnUse">
<stop stop-color="#75B7FF"/>
<stop offset="1" stop-color="#0044E8"/>
</linearGradient>
</defs>
</svg>
