<svg width="86" height="87" viewBox="0 0 86 87" fill="none" xmlns="http://www.w3.org/2000/svg">
<path fill-rule="evenodd" clip-rule="evenodd" d="M0 73.1058C0 80.4926 6.00756 86.5002 13.3944 86.5002H72.6056C79.9924 86.5002 86 80.4926 86 73.1058V13.8944C86 6.50756 79.9924 0.5 72.6056 0.5H13.3944C6.00756 0.5 0 6.50756 0 13.8944V73.1058ZM13.3944 83.9806C7.39906 83.9806 2.51954 79.1011 2.51954 73.1058V13.8944C2.51954 7.89906 7.39906 3.01954 13.3944 3.01954H72.6056C78.6009 3.01954 83.4805 7.89906 83.4805 13.8944V73.1058C83.4805 79.1011 78.6009 83.9806 72.6056 83.9806H13.3944ZM5.98119 73.1056C5.98119 77.1999 9.30007 80.5187 13.3943 80.5187H72.6056C76.6997 80.5187 80.0188 77.1999 80.0188 73.1056V13.8943C80.0188 9.80015 76.6997 6.48132 72.6056 6.48132H13.3943C9.30009 6.48132 5.98119 9.80017 5.98119 13.8943V17.7116C5.98119 18.4073 6.54521 18.9713 7.24096 18.9713C7.93671 18.9713 8.50073 18.4073 8.50073 17.7116V13.8943C8.50073 11.1917 10.6915 9.00085 13.3943 9.00085H72.6056C75.3083 9.00085 77.4992 11.1917 77.4992 13.8943V73.1056C77.4992 75.8083 75.3082 77.9992 72.6056 77.9992H13.3943C10.6916 77.9992 8.50073 75.8083 8.50073 73.1056V23.6011C8.50073 22.9053 7.93671 22.3413 7.24096 22.3413C6.54521 22.3413 5.98119 22.9053 5.98119 23.6011V73.1056ZM43.0112 74.8465C35.658 74.8465 28.8998 72.2846 23.5851 68.0061C23.0431 67.5699 22.9575 66.7768 23.3938 66.2349C23.8301 65.6929 24.6231 65.6073 25.1651 66.0435C30.0484 69.9747 36.2534 72.327 43.0112 72.327C58.7409 72.327 71.4919 59.5757 71.4919 43.8463C71.4919 37.0882 69.1398 30.8832 65.2087 25.9999C64.7724 25.458 64.858 24.6649 65.4 24.2286C65.942 23.7924 66.735 23.878 67.1713 24.42C71.4498 29.7347 74.0115 36.4929 74.0115 43.8463C74.0115 60.9672 60.1324 74.8465 43.0112 74.8465ZM20.9807 63.8646C21.5147 63.4186 21.5861 62.6241 21.1402 62.0901C17.0131 57.1481 14.5306 50.7886 14.5306 43.8461C14.5306 28.1166 27.2819 15.3654 43.0113 15.3654C49.9539 15.3654 56.3133 17.8478 61.2554 21.9749C61.7894 22.4209 62.5838 22.3495 63.0298 21.8155C63.4758 21.2814 63.4044 20.487 62.8704 20.041C57.4921 15.5496 50.5658 12.8458 43.0113 12.8458C25.8904 12.8458 12.0111 26.7251 12.0111 43.8461C12.0111 51.4006 14.7149 58.3268 19.2063 63.7051C19.6522 64.2391 20.4467 64.3105 20.9807 63.8646ZM70.0708 76.5902C67.3343 76.5902 65.1157 74.3717 65.1157 71.6352C65.1157 68.8986 67.3343 66.6801 70.0708 66.6801C72.8072 66.6801 75.0259 68.8985 75.0259 71.6352C75.0259 74.3718 72.8072 76.5902 70.0708 76.5902ZM67.6353 71.6352C67.6353 72.9802 68.7258 74.0707 70.0708 74.0707C71.4158 74.0707 72.5064 72.9802 72.5064 71.6352C72.5064 70.2901 71.4158 69.1996 70.0708 69.1996C68.7258 69.1996 67.6353 70.2901 67.6353 71.6352ZM43.6097 50.6471C43.6057 50.6667 43.6011 50.6864 43.5961 50.706C42.9467 53.2351 41.5522 55.7531 39.8479 57.8466C38.1491 59.9331 36.0647 61.693 33.9575 62.6156C30.9482 63.9334 27.7722 63.5024 25.08 62.0356C22.4002 60.5755 20.1412 58.0669 18.832 55.0769C17.0445 50.9947 17.1394 46.1377 19.2369 42.6665L19.2371 42.6662C20.2814 40.9382 21.7365 39.6428 23.5504 38.8486C24.6607 38.3625 25.6732 38.4377 26.5772 38.8327C27.3533 39.1718 28.0432 39.7508 28.6038 40.2213L28.6039 40.2214L28.6039 40.2214L28.6039 40.2214L28.6689 40.2759C30.3685 41.701 31.7706 42.5166 33.0523 42.9425C33.9579 43.2433 34.8419 43.3625 35.7801 43.3366C35.7931 42.4057 35.982 41.5172 36.315 40.7031C34.5963 39.1494 33.1345 37.134 32.0645 35.0336C30.8431 32.6361 30.0766 30.018 30.0849 27.7177C30.0968 24.4325 31.7753 21.7021 34.2056 19.8331C36.6247 17.9727 39.8325 16.9212 43.0965 16.9329C47.5529 16.949 51.9567 19.0001 54.2831 22.3222L54.2833 22.3224C55.4413 23.9764 56.0377 25.8311 56.0305 27.8112C56.0261 29.0232 55.5478 29.9188 54.8209 30.5859C54.1969 31.1586 53.3883 31.5554 52.7312 31.8779L52.6551 31.9152C50.6644 32.8933 49.3514 33.8458 48.4436 34.8458C47.7612 35.5976 47.2766 36.4103 46.913 37.3494C47.7768 37.904 48.5149 38.6372 49.075 39.497C51.3272 38.9857 53.807 38.9458 56.133 39.273C58.7974 39.6479 61.3816 40.5218 63.2611 41.8481C65.9452 43.7423 67.2189 46.6835 67.3558 49.7462C67.492 52.795 66.5133 56.0257 64.6313 58.6926C62.0618 62.3337 57.8556 64.7643 53.8 64.7643H53.7996C51.7806 64.7641 49.9193 64.1887 48.3014 63.0469C47.3112 62.3481 46.852 61.4426 46.7225 60.4646C46.6113 59.6249 46.7501 58.7349 46.8629 58.0117L46.876 57.928C47.2168 55.7363 47.1897 54.1144 46.8913 52.7972C46.6698 51.8195 46.289 50.9657 45.7398 50.1391C45.0736 50.4107 44.3578 50.5858 43.6097 50.6471ZM45.4452 47.4755C44.7348 47.9049 43.9019 48.152 43.0113 48.152C40.4088 48.152 38.2989 46.0421 38.2989 43.4396C38.2989 40.837 40.4088 38.7272 43.0113 38.7272C44.8976 38.7272 46.5251 39.8355 47.278 41.4365C47.2921 41.4715 47.3076 41.5056 47.3245 41.5387C47.5812 42.1201 47.7237 42.7632 47.7237 43.4396C47.7237 45.1331 46.8302 46.6181 45.489 47.4488C45.4742 47.4574 45.4596 47.4663 45.4452 47.4755ZM47.8714 48.7949C48.5503 49.8281 49.0553 50.9457 49.3486 52.2405C49.7396 53.9667 49.7366 55.9287 49.3656 58.315C49.2355 59.152 49.1618 59.6924 49.2202 60.134C49.2647 60.4699 49.3814 60.7253 49.7542 60.9884C50.932 61.8196 52.282 62.2446 53.7996 62.2448H53.8C56.9048 62.2448 60.3937 60.3277 62.5727 57.2399C64.1539 54.9992 64.9485 52.3135 64.8388 49.8587C64.7297 47.4179 63.7381 45.2685 61.8084 43.9067C60.3501 42.8776 58.1817 42.1056 55.782 41.768C53.8572 41.4972 51.8623 41.5173 50.0707 41.8623C50.1836 42.37 50.2432 42.8978 50.2432 43.4396C50.2432 45.5626 49.3284 47.4719 47.8714 48.7949ZM44.5869 36.3798C44.0797 36.2671 43.5524 36.2077 43.0113 36.2077C40.907 36.2077 39.0125 37.1065 37.6909 38.5411C36.3691 37.2676 35.1981 35.6342 34.3095 33.8899C33.2095 31.7306 32.598 29.5116 32.6045 27.7268C32.6129 25.365 33.8048 23.3198 35.7415 21.8303C37.6894 20.3323 40.3451 19.4426 43.0875 19.4525C46.8667 19.4661 50.4383 21.2242 52.2193 23.7674L52.2195 23.7677C53.0899 25.0109 53.5162 26.3606 53.5109 27.8021C53.5093 28.2584 53.3671 28.5004 53.1173 28.7296C52.7892 29.0307 52.3042 29.2804 51.544 29.6539C49.3766 30.7188 47.7677 31.8419 46.5781 33.1523C45.6751 34.147 45.045 35.2151 44.5869 36.3798ZM36.1877 45.841C34.8777 45.9141 33.5914 45.7766 32.2579 45.3335C30.5783 44.7755 28.9005 43.7582 27.0501 42.2065C26.401 41.6624 25.9766 41.3198 25.5684 41.1414C25.2578 41.0057 24.979 40.9735 24.561 41.1566C23.2405 41.7347 22.1785 42.6704 21.3935 43.9693L21.3933 43.9695C19.7876 46.6269 19.6241 50.6044 21.14 54.0663C22.2399 56.5784 24.1277 58.6475 26.2855 59.8231C28.4309 60.9921 30.7834 61.255 32.9469 60.3076C34.5819 59.5917 36.3641 58.1351 37.894 56.2558C39.3395 54.4803 40.49 52.4128 41.0665 50.407C38.7902 49.7729 36.9662 48.0533 36.1877 45.841Z" fill="url(#paint0_linear_230_6821)"/>
<defs>
<linearGradient id="paint0_linear_230_6821" x1="38.5207" y1="-7.40733" x2="49.7825" y2="96.1755" gradientUnits="userSpaceOnUse">
<stop stop-color="#75B7FF"/>
<stop offset="1" stop-color="#0044E8"/>
</linearGradient>
</defs>
</svg>
