<svg width="86" height="87" viewBox="0 0 86 87" fill="none" xmlns="http://www.w3.org/2000/svg">
<path fill-rule="evenodd" clip-rule="evenodd" d="M29.5848 86.4027C29.9584 86.5325 30.3664 86.5324 30.74 86.4026C31.0429 86.2973 31.3432 86.1908 31.6404 86.0831C37.4403 83.9792 42.5341 80.8798 46.7164 77.0636C47.4109 76.4299 47.4473 75.367 46.7978 74.6895C46.1483 74.012 45.0587 73.9764 44.3643 74.6101C40.5217 78.1163 35.5432 81.0825 30.1623 83.0344M30.1623 83.0344C30.0692 83.0011 29.9764 82.9677 29.8838 82.9342C14.3699 77.3065 4.54114 64.1195 4.54114 49.7928V33.5894L30.1622 24.3899L55.7832 33.5894V49.7928C55.7832 54.4865 54.7311 59.0478 52.7746 63.2609C52.3822 64.1059 52.7663 65.1013 53.6324 65.4841C54.4986 65.8669 55.5188 65.4922 55.9112 64.6472C58.0629 60.0137 59.2267 54.981 59.2267 49.7928V32.4178C59.2267 31.7139 58.7767 31.0846 58.0996 30.8415L30.7569 21.0237C30.3731 20.8859 29.9514 20.8859 29.5676 21.0237L2.22471 30.8415C1.54757 31.0846 1.09766 31.7139 1.09766 32.4178V49.7928C1.09766 65.6851 11.9829 80.025 28.6838 86.0829C28.9805 86.1904 29.2811 86.2972 29.5848 86.4027M30.1623 83.0344C30.0699 83.0679 30.2554 83.0011 30.1623 83.0344V83.0344Z" fill="url(#paint0_linear_230_6868)"/>
<path fill-rule="evenodd" clip-rule="evenodd" d="M29.4952 78.7802C29.9219 78.9551 30.4028 78.9551 30.8294 78.7802C36.958 76.267 42.161 72.368 45.9237 67.4142C49.8895 62.1925 52.0047 56.1195 52.0047 49.8567V37.3761C52.0047 36.6722 51.5548 36.043 50.8777 35.7998L30.757 28.5748C30.3731 28.437 29.9515 28.437 29.5676 28.5748L9.44693 35.7996C8.7698 36.0428 8.3199 36.672 8.3199 37.3759V49.8567C8.3199 56.1196 10.4352 62.1924 14.4009 67.4141C18.164 72.3686 23.3669 76.2674 29.4952 78.7802ZM30.1623 75.402C24.8587 73.1039 20.4037 69.6747 17.1677 65.4142C13.6198 60.7426 11.7634 55.3647 11.7634 49.8567V38.5476L30.1623 31.941L48.5612 38.5477V49.8567C48.5612 55.3647 46.7049 60.7426 43.157 65.4142C39.9213 69.6741 35.4662 73.1035 30.1623 75.402Z" fill="url(#paint1_linear_230_6868)"/>
<path fill-rule="evenodd" clip-rule="evenodd" d="M55.7833 41.5767C55.7833 42.5043 56.5542 43.2564 57.5051 43.2564C66.2145 43.2564 73.2745 36.3681 73.2745 27.8704C73.2745 19.3739 66.2143 12.4862 57.5051 12.4862C48.9851 12.4862 42.0449 19.0763 41.7472 27.3175C41.721 28.0426 42.1751 28.7023 42.8731 28.9529L55.7832 33.5894L55.7833 41.5767ZM59.2268 39.7806L59.2267 32.4178C59.2267 31.7139 58.7767 31.0846 58.0996 30.8415L45.2924 26.2419C46.1056 20.3714 51.2632 15.8456 57.5051 15.8456C64.3125 15.8456 69.831 21.2293 69.831 27.8704C69.831 33.9429 65.2191 38.9635 59.2268 39.7806Z" fill="url(#paint2_linear_230_6868)"/>
<path fill-rule="evenodd" clip-rule="evenodd" d="M57.5048 9.28946C58.4557 9.28946 59.2265 8.53744 59.2265 7.60978V2.17969C59.2265 1.25202 58.4557 0.5 57.5048 0.5C56.5539 0.5 55.783 1.25202 55.783 2.17969V7.60978C55.783 8.53744 56.5539 9.28946 57.5048 9.28946Z" fill="url(#paint3_linear_230_6868)"/>
<path fill-rule="evenodd" clip-rule="evenodd" d="M44.0369 14.7319C44.7093 14.076 44.7093 13.0124 44.0369 12.3565L40.1012 8.51689C39.4288 7.86093 38.3386 7.86093 37.6663 8.51689C36.9939 9.17285 36.9939 10.2364 37.6663 10.8923L41.602 14.7319C42.2744 15.3879 43.3645 15.3879 44.0369 14.7319Z" fill="url(#paint4_linear_230_6868)"/>
<path fill-rule="evenodd" clip-rule="evenodd" d="M77.344 47.2258C78.0164 46.5698 78.0165 45.5063 77.3441 44.8503L73.4084 41.0106C72.736 40.3546 71.6459 40.3546 70.9734 41.0105C70.3011 41.6665 70.301 42.73 70.9734 43.3859L74.9091 47.2257C75.5815 47.8817 76.6716 47.8817 77.344 47.2258Z" fill="url(#paint5_linear_230_6868)"/>
<path fill-rule="evenodd" clip-rule="evenodd" d="M70.9734 14.7319C71.6458 15.3879 72.736 15.3879 73.4083 14.7319L77.3441 10.8923C78.0165 10.2364 78.0165 9.17285 77.3441 8.51689C76.6717 7.86093 75.5815 7.86093 74.9092 8.51689L70.9734 12.3565C70.301 13.0124 70.301 14.076 70.9734 14.7319Z" fill="url(#paint6_linear_230_6868)"/>
<path fill-rule="evenodd" clip-rule="evenodd" d="M76.5524 27.8713C76.5524 28.799 77.3233 29.551 78.2741 29.551H83.8402C84.7911 29.551 85.5619 28.799 85.5619 27.8713C85.5619 26.9437 84.7911 26.1916 83.8402 26.1916H78.2741C77.3233 26.1916 76.5524 26.9437 76.5524 27.8713Z" fill="url(#paint7_linear_230_6868)"/>
<path fill-rule="evenodd" clip-rule="evenodd" d="M26.327 60.093C26.9994 60.749 28.0896 60.749 28.762 60.093L41.6435 47.5261C42.3159 46.8702 42.3159 45.8067 41.6435 45.1507C40.9711 44.4947 39.881 44.4947 39.2086 45.1507L27.5445 56.5299L22.9475 52.0451C22.2751 51.3892 21.1849 51.3892 20.5125 52.0451C19.8402 52.7011 19.8402 53.7646 20.5125 54.4206L26.327 60.093Z" fill="url(#paint8_linear_230_6868)"/>
<defs>
<linearGradient id="paint0_linear_230_6868" x1="38.9305" y1="-7.40732" x2="50.3921" y2="96.1309" gradientUnits="userSpaceOnUse">
<stop stop-color="#75B7FF"/>
<stop offset="1" stop-color="#0044E8"/>
</linearGradient>
<linearGradient id="paint1_linear_230_6868" x1="38.9305" y1="-7.40732" x2="50.3921" y2="96.1309" gradientUnits="userSpaceOnUse">
<stop stop-color="#75B7FF"/>
<stop offset="1" stop-color="#0044E8"/>
</linearGradient>
<linearGradient id="paint2_linear_230_6868" x1="38.9305" y1="-7.40732" x2="50.3921" y2="96.1309" gradientUnits="userSpaceOnUse">
<stop stop-color="#75B7FF"/>
<stop offset="1" stop-color="#0044E8"/>
</linearGradient>
<linearGradient id="paint3_linear_230_6868" x1="38.9305" y1="-7.40732" x2="50.3921" y2="96.1309" gradientUnits="userSpaceOnUse">
<stop stop-color="#75B7FF"/>
<stop offset="1" stop-color="#0044E8"/>
</linearGradient>
<linearGradient id="paint4_linear_230_6868" x1="38.9305" y1="-7.40732" x2="50.3921" y2="96.1309" gradientUnits="userSpaceOnUse">
<stop stop-color="#75B7FF"/>
<stop offset="1" stop-color="#0044E8"/>
</linearGradient>
<linearGradient id="paint5_linear_230_6868" x1="38.9305" y1="-7.40732" x2="50.3921" y2="96.1309" gradientUnits="userSpaceOnUse">
<stop stop-color="#75B7FF"/>
<stop offset="1" stop-color="#0044E8"/>
</linearGradient>
<linearGradient id="paint6_linear_230_6868" x1="38.9305" y1="-7.40732" x2="50.3921" y2="96.1309" gradientUnits="userSpaceOnUse">
<stop stop-color="#75B7FF"/>
<stop offset="1" stop-color="#0044E8"/>
</linearGradient>
<linearGradient id="paint7_linear_230_6868" x1="38.9305" y1="-7.40732" x2="50.3921" y2="96.1309" gradientUnits="userSpaceOnUse">
<stop stop-color="#75B7FF"/>
<stop offset="1" stop-color="#0044E8"/>
</linearGradient>
<linearGradient id="paint8_linear_230_6868" x1="38.9305" y1="-7.40732" x2="50.3921" y2="96.1309" gradientUnits="userSpaceOnUse">
<stop stop-color="#75B7FF"/>
<stop offset="1" stop-color="#0044E8"/>
</linearGradient>
</defs>
</svg>
