<svg width="87" height="87" viewBox="0 0 87 87" fill="none" xmlns="http://www.w3.org/2000/svg">
<g clip-path="url(#clip0_230_6839)">
<path fill-rule="evenodd" clip-rule="evenodd" d="M58.4951 3.15207C58.9708 3.82263 59.5049 4.31997 59.9347 4.71955L59.94 4.72445C60.5995 5.33364 61.12 5.81439 61.4851 6.45764C61.7889 6.99697 62.1386 7.8401 62.1452 9.5854C62.1432 10.5092 62.014 11.2014 61.7272 11.828C61.5087 12.2965 61.2095 12.7033 60.6971 13.2322C60.3835 13.553 60.2155 13.9762 60.2201 14.425C60.2273 14.8751 60.4064 15.293 60.7293 15.6073C61.0449 15.9131 61.4602 16.0824 61.8998 16.0824C62.3584 16.0824 62.7849 15.9026 63.1044 15.5752C63.6267 15.0391 64.2887 14.2885 64.7736 13.242C65.2611 12.1955 65.5078 10.9659 65.5046 9.5854C65.5046 8.25542 65.3386 7.11836 64.9941 6.10858C64.6011 4.93608 63.9207 3.89152 62.9128 2.91192C62.7127 2.71902 62.5284 2.54581 62.3486 2.3798L62.3368 2.36875C61.8601 1.92192 61.4831 1.56849 61.2364 1.20862C60.9222 0.765732 60.4084 0.5 59.8645 0.5C59.5148 0.5 59.1808 0.605636 58.8947 0.809036C58.5286 1.06755 58.2852 1.45401 58.2097 1.89558C58.1343 2.33912 58.2347 2.78464 58.4932 3.15075C58.4938 3.15075 58.4951 3.15075 58.4951 3.15207ZM73.9023 29.3906H53.4213C52.9997 27.2064 51.7826 25.9705 50.7666 24.9388L50.7646 24.9368L50.7641 24.9362C49.5702 23.7246 48.707 22.8486 48.707 20.4429C48.707 19.5152 47.9551 18.7633 47.0273 18.7633C46.0996 18.7633 45.3476 19.5152 45.3476 20.4429C45.3476 24.2251 47.0243 25.9272 48.3713 27.2945L48.3717 27.2949C49.081 28.0147 49.6354 28.5802 49.9438 29.3906H43.3432C42.9214 27.2055 41.7034 25.9694 40.6872 24.9381L40.6865 24.9374L40.6853 24.9362C39.4918 23.7243 38.6289 22.8481 38.6289 20.4429C38.6289 18.1411 39.4749 17.3221 40.6463 16.1881L40.6471 16.1873C41.9928 14.8849 43.6679 13.2636 43.6679 9.586C43.6679 5.30341 41.8379 3.60719 40.5014 2.36847L40.5008 2.36794L40.4979 2.36527L40.4979 2.36525L40.4979 2.36522C40.0602 1.95891 39.6813 1.60726 39.3992 1.20922C38.8638 0.452052 37.8153 0.272929 37.0581 0.808985C36.3009 1.34438 36.1218 2.39288 36.6572 3.15005C37.1399 3.83131 37.7084 4.35911 38.2107 4.82538L38.2175 4.8317C39.3861 5.91431 40.3086 6.7699 40.3086 9.586C40.3086 11.8398 39.4707 12.6508 38.3107 13.7734L38.3101 13.774C36.9552 15.0855 35.2695 16.7174 35.2695 20.4429C35.2695 24.2255 36.9459 25.9275 38.2936 27.2949C39.0029 28.0147 39.5573 28.5802 39.8657 29.3906H31.5821C31.4226 28.573 31.1425 27.8152 30.7462 27.1499C30.3059 26.4025 29.7849 25.8212 29.2883 25.3042L29.1332 25.1467L29.0022 25.0135C28.3913 24.3922 27.9091 23.9014 27.5646 23.3286C27.2103 22.7309 26.8796 21.9678 26.8711 20.4429C26.8744 19.4535 27.0187 18.7193 27.3415 18.0592C27.6184 17.5035 28.0062 17.0586 28.5055 16.5626C28.8231 16.2457 28.9989 15.8238 29.0009 15.375C29.0009 14.9269 28.8277 14.505 28.5101 14.1861C28.1932 13.8672 27.7713 13.692 27.3212 13.692C26.8724 13.692 26.4525 13.8653 26.1356 14.1809C25.5286 14.7838 24.8404 15.5397 24.3312 16.5679C23.784 17.6649 23.5084 18.9699 23.5117 20.4429C23.5065 22.057 23.8293 23.4815 24.467 24.6756C25.1078 25.8602 25.9108 26.6672 26.5572 27.3169L26.5601 27.3198L26.5847 27.3446L26.5848 27.3447L26.5849 27.3447L26.585 27.3448L26.5851 27.3449L26.5852 27.345C26.8331 27.5942 27.0671 27.8294 27.2569 28.0553C27.6466 28.4989 27.8868 28.863 28.062 29.2731C28.0777 29.3118 28.0921 29.3512 28.1066 29.3906H13.4336C12.5058 29.3906 11.7539 30.1425 11.7539 31.0702V51.2265C11.7539 52.1542 12.5058 52.9062 13.4336 52.9062H16.793V84.8202C16.793 85.748 17.5449 86.4999 18.4727 86.4999H68.8632C69.791 86.4999 70.5429 85.748 70.5429 84.8202V52.9062H73.9023C74.8301 52.9062 75.582 52.1542 75.582 51.2265V31.0702C75.582 30.1425 74.8301 29.3906 73.9023 29.3906ZM50.3867 52.9062V57.9452H36.9492V52.9062H50.3867ZM67.1835 61.3046V66.3436H62.1445V61.3046H67.1835ZM53.7461 74.7421V69.703H67.1835V74.7421H53.7461ZM36.9492 74.7421V69.703H50.3867V74.7421H36.9492ZM20.1523 74.7421V69.703H33.5898V74.7421H20.1523ZM41.9883 61.3046V66.3436H28.5508V61.3046H41.9883ZM25.1914 66.3436H20.1523V61.3046H25.1914V66.3436ZM58.7851 66.3436H45.3476V61.3046H58.7851V66.3436ZM33.5898 57.9452H20.1523V52.9062H33.5898V57.9452ZM20.1523 78.1014H25.1914V83.1405H20.1523V78.1014ZM41.9883 78.1014V83.1405H28.5508V78.1014H41.9883ZM45.3476 78.1014H58.7851V83.1405H45.3476V78.1014ZM67.1835 83.1405H62.1445V78.1014H67.1835V83.1405ZM67.1835 57.9452H53.7461V52.9062H67.1835V57.9452ZM72.2226 49.5468H15.1133V32.7499H72.2226V49.5468ZM45.3476 42.8281H35.2695C34.3418 42.8281 33.5898 43.58 33.5898 44.5078C33.5898 45.4356 34.3418 46.1875 35.2695 46.1875H45.3476C46.2754 46.1875 47.0273 45.4356 47.0273 44.5078C47.0273 43.58 46.2754 42.8281 45.3476 42.8281ZM36.9492 36.1094C37.875 36.1094 38.6289 36.8633 38.6289 37.7891C38.6289 38.7142 37.875 39.4687 36.9492 39.4687H26.8711C25.9453 39.4687 25.1914 38.7142 25.1914 37.7891C25.1914 36.8633 25.9453 36.1094 26.8711 36.1094H36.9492ZM20.1523 36.1094C19.2265 36.1094 18.4727 36.8633 18.4727 37.7891C18.4727 38.7142 19.2265 39.4687 20.1523 39.4687C21.0781 39.4687 21.832 38.7142 21.832 37.7891C21.832 36.8633 21.0781 36.1094 20.1523 36.1094ZM67.1836 39.4687H60.4648C59.5371 39.4687 58.7852 38.7168 58.7852 37.7891C58.7852 36.8613 59.5371 36.1094 60.4648 36.1094H67.1836C68.1114 36.1094 68.8633 36.8613 68.8633 37.7891C68.8633 38.7168 68.1114 39.4687 67.1836 39.4687ZM48.2962 4.8317C49.4648 5.91431 50.3873 6.7699 50.3873 9.586C50.3873 10.5138 51.1392 11.2657 52.067 11.2657C52.9947 11.2657 53.7467 10.5138 53.7467 9.586C53.7467 5.3034 51.9166 3.60719 50.5801 2.36846L50.5795 2.36794L50.5766 2.36527C50.1389 1.95894 49.7601 1.60727 49.4779 1.20922C48.9425 0.452052 47.894 0.272929 47.1368 0.808985C46.3797 1.34438 46.2005 2.39288 46.7359 3.15005C47.2186 3.83126 47.7871 4.35904 48.2893 4.82528L48.2893 4.82531L48.2893 4.82533L48.2894 4.82535L48.2962 4.8317ZM58.7921 21.7653C58.7718 21.7653 58.7534 21.7653 58.7331 21.7639C57.8079 21.7318 57.081 20.9523 57.1125 20.0272C57.1275 19.5889 57.3106 19.1801 57.6262 18.8763C57.9556 18.5588 58.3906 18.3908 58.8492 18.4079C59.298 18.4229 59.7147 18.6112 60.0198 18.94C60.3262 19.268 60.4856 19.6958 60.4705 20.1446C60.4548 20.5829 60.2717 20.991 59.9581 21.2948C59.6425 21.5993 59.2291 21.7653 58.7921 21.7653ZM30.2305 11.286H30.2272C29.3014 11.2847 28.5488 10.5288 28.5508 9.60302C28.5528 8.6792 29.3066 7.92662 30.2305 7.92662H30.2338C31.1595 7.92859 31.9121 8.68248 31.9102 9.60958V9.61155C31.9069 10.5354 31.1543 11.286 30.2305 11.286Z" fill="url(#paint0_linear_230_6839)"/>
</g>
<defs>
<linearGradient id="paint0_linear_230_6839" x1="40.3435" y1="-7.40731" x2="55.374" y2="95.1978" gradientUnits="userSpaceOnUse">
<stop stop-color="#75B7FF"/>
<stop offset="1" stop-color="#0044E8"/>
</linearGradient>
<clipPath id="clip0_230_6839">
<rect width="86" height="86" fill="white" transform="translate(0.667969 0.5)"/>
</clipPath>
</defs>
</svg>
