<svg width="21" height="6" viewBox="0 0 21 6" fill="none" xmlns="http://www.w3.org/2000/svg">
<path d="M20.7137 3.5375C19.4715 4.45739 18.0635 5.5 15.34 5.5C12.6164 5.5 11.2083 4.45739 9.96602 3.5375C8.79116 2.66761 7.77656 1.9163 5.66019 1.9163C3.5439 1.9163 2.52925 2.66758 1.35435 3.5375C1.01044 3.79219 0.492615 3.75788 0.197672 3.46099C-0.0973129 3.16413 -0.0575695 2.71701 0.286306 2.46243C1.52863 1.54254 2.9367 0.5 5.66019 0.5C8.38376 0.5 9.79183 1.54261 11.0342 2.4625C12.209 3.33239 13.2237 4.0837 15.34 4.0837C17.4562 4.0837 18.4708 3.33242 19.6456 2.4625C19.9894 2.20785 20.5074 2.24205 20.8023 2.53894C21.0973 2.8358 21.0576 3.28289 20.7137 3.5375Z" fill="#295ACA"/>
</svg>
