<svg width="333" height="205" fill="none" xmlns="http://www.w3.org/2000/svg"><path d="M230.549 204.773H102.087a102.141 102.141 0 01-72.052-29.915A101.996 101.996 0 01.161 102.83a.876.876 0 01.879-.878.967.967 0 01.879.878 100.239 100.239 0 0029.359 70.786 100.382 100.382 0 0070.809 29.401h128.462c26.59 0 52.09-10.556 70.892-29.344a100.151 100.151 0 0029.364-70.843 100.15 100.15 0 00-29.364-70.842 100.292 100.292 0 00-70.892-29.344.79.79 0 01-.879-.878.878.878 0 01.879-.878c27.056 0 53.003 10.74 72.135 29.858a101.907 101.907 0 0129.879 72.084 101.905 101.905 0 01-29.879 72.084 102.052 102.052 0 01-72.135 29.859z" fill="#F8E4AE"/></svg>