<svg width="333" height="205" fill="none" xmlns="http://www.w3.org/2000/svg"><path d="M230.88 204.773H102.858a102.05 102.05 0 01-72.135-29.859A101.904 101.904 0 01.844 102.83a101.906 101.906 0 0129.88-72.084A102.05 102.05 0 01102.857.888a.965.965 0 01.879.878.88.88 0 01-.879.878c-26.59 0-52.09 10.556-70.892 29.344A100.15 100.15 0 002.602 102.83a100.153 100.153 0 0029.364 70.843 100.294 100.294 0 0070.892 29.344H230.88a100.383 100.383 0 0070.867-29.37 100.244 100.244 0 0029.39-70.817.967.967 0 01.879-.878.878.878 0 01.878.878 102.08 102.08 0 01-29.93 72.033 102.23 102.23 0 01-72.084 29.91z" fill="#F8E4AE"/></svg>