<svg width="107" height="204" fill="none" xmlns="http://www.w3.org/2000/svg"><path d="M105.403 203.874c-13.643.4-27.227-1.94-39.949-6.88a102.022 102.022 0 01-34.113-21.885A101.932 101.932 0 018.45 141.677 101.882 101.882 0 0131.34 28.841 102.021 102.021 0 0165.455 6.957a102.078 102.078 0 0139.949-6.88.879.879 0 01.879.878.966.966 0 01-.879.878 100.32 100.32 0 00-39.268 6.754A100.265 100.265 0 0032.6 30.092a100.182 100.182 0 00-22.503 32.86 100.126 100.126 0 000 78.047 100.197 100.197 0 0022.503 32.86 100.267 100.267 0 0033.535 21.505 100.337 100.337 0 0039.268 6.754.968.968 0 01.879.878.883.883 0 01-.258.621.874.874 0 01-.621.257z" fill="#F8E4AE"/></svg>