<svg width="333" height="205" fill="none" xmlns="http://www.w3.org/2000/svg"><path d="M230.55 204.219a.878.878 0 01-.878-.879.795.795 0 01.226-.652.795.795 0 01.652-.226c26.59 0 52.091-10.555 70.892-29.343a100.152 100.152 0 0029.365-70.843 100.15 100.15 0 00-29.365-70.842A100.29 100.29 0 00230.55 2.09H102.089a100.38 100.38 0 00-70.696 29.462 100.238 100.238 0 00-29.297 70.724.878.878 0 01-.879.878.795.795 0 01-.84-.526.79.79 0 01-.038-.352 101.994 101.994 0 0129.873-72.027A102.138 102.138 0 01102.264.334H230.55a102.05 102.05 0 0172.135 29.858 101.907 101.907 0 0129.879 72.084 101.907 101.907 0 01-29.879 72.084 102.05 102.05 0 01-72.135 29.859z" fill="#F8E4AE"/></svg>