<svg width="333" height="205" fill="none" xmlns="http://www.w3.org/2000/svg"><path d="M102.858 204.219a102.05 102.05 0 01-72.135-29.859A101.906 101.906 0 01.844 102.276a101.906 101.906 0 0129.88-72.084A102.05 102.05 0 01102.857.334H230.88a102.228 102.228 0 0172.084 29.91 102.08 102.08 0 0129.93 72.032.793.793 0 01-.526.84.795.795 0 01-.352.038.88.88 0 01-.879-.878 100.24 100.24 0 00-29.39-70.816A100.381 100.381 0 00230.88 2.09H102.858a100.29 100.29 0 00-70.892 29.344 100.15 100.15 0 00-29.364 70.842 100.153 100.153 0 0029.364 70.843 100.293 100.293 0 0070.892 29.343.88.88 0 01.879.878.965.965 0 01-.879.879z" fill="#F8E4AE"/></svg>