<svg width="149" height="54" fill="none" xmlns="http://www.w3.org/2000/svg"><path d="M73.808 27.31c0 3.699-2.745 6.537-6.348 6.537h-5.23V20.773h5.229c3.6 0 6.348 2.839 6.348 6.537zm-2.878 0c0-2.242-1.417-3.66-3.473-3.66h-2.242v7.32h2.242c2.056 0 3.474-1.43 3.474-3.66zm8.103-6.537v13.071h-2.987V20.773h2.987zm15.743 6.909c0 3.997-2.782 6.426-6.442 6.426-4.109 0-7.06-3.025-7.06-6.78a6.795 6.795 0 016.853-6.815 6.686 6.686 0 015.716 2.986l-2.54 1.457c-.54-.86-1.72-1.53-3.193-1.53-2.204 0-3.84 1.624-3.84 3.923 0 2.221 1.568 3.84 4.108 3.84 1.737 0 2.877-.765 3.344-2.018h-3.5v-2.608h6.554v1.12zm5.226-6.909v13.071h-2.986V20.773h2.986zm11.561 2.877h-3.361v10.197h-2.989V23.65h-3.362v-2.877h9.709l.003 2.877zm9.503 8.141h-4.853l-.653 2.068h-3.27l4.431-13.071h3.81l4.431 13.071h-3.243l-.653-2.068zm-.886-2.8l-1.53-4.8-1.53 4.8h3.06zm14.142 1.979v2.877h-7.653V20.773h2.986V30.97h4.667zM69.4 16.365l-4.182-6.05v6.05h-2.99V3.294h2.987V8.97l3.996-5.677h3.4l-4.407 6.369 4.593 6.702H69.4zm8.924-4.295h-1.418v4.295h-2.99V3.294h5.229a4.472 4.472 0 014.48 4.481 4.307 4.307 0 01-2.395 3.793l2.783 4.8H80.79l-2.466-4.298zm-1.418-2.617h2.242c.82 0 1.494-.73 1.494-1.68 0-.952-.673-1.682-1.494-1.682h-2.242v3.362zm7.765.378a6.795 6.795 0 1113.59 0 6.795 6.795 0 01-13.59 0zm10.608 0c0-2.334-1.681-3.885-3.81-3.885-2.13 0-3.811 1.551-3.811 3.885 0 2.334 1.68 3.885 3.81 3.885s3.81-1.551 3.81-3.885zm4.109 0c0-3.84 2.856-6.794 6.794-6.794a6.52 6.52 0 015.612 3.025l-2.576 1.494c-.591-1.007-1.698-1.607-3.025-1.607-2.315 0-3.81 1.551-3.81 3.885 0 2.334 1.495 3.885 3.81 3.885 1.327 0 2.464-.591 3.025-1.607l2.567 1.477a6.47 6.47 0 01-5.612 3.025c-3.929.014-6.785-2.937-6.785-6.783zm20.969 6.534l-4.183-6.05v6.05h-2.989V3.294h2.989V8.97l3.997-5.677h3.4l-4.41 6.369 4.605 6.702h-3.409zM61.576 48.13l2.575-1.494c.467 1.084 1.27 1.81 2.745 1.81 1.417 0 1.772-.56 1.772-1.063 0-.803-.748-1.12-2.709-1.663-1.961-.544-3.84-1.477-3.84-3.98 0-2.501 2.13-3.975 4.39-3.975a5.069 5.069 0 014.779 2.954l-2.52 1.477c-.449-.934-1.063-1.513-2.26-1.513-.933 0-1.4.467-1.4.99 0 .59.316 1.007 2.364 1.625 1.979.59 4.2 1.288 4.2 4.052 0 2.523-2.018 4.015-4.856 4.015-2.756-.003-4.514-1.312-5.24-3.235zm10.94-3.565a6.795 6.795 0 116.794 6.794 6.737 6.737 0 01-6.794-6.794zm10.608 0c0-2.334-1.681-3.885-3.81-3.885-2.13 0-3.811 1.551-3.811 3.885 0 2.333 1.683 3.881 3.81 3.881s3.81-1.548 3.81-3.881zm12.323 3.66v2.88H87.79V38.028h2.987v10.197h4.67zm1.028-1.345v-8.86h2.986v8.59c0 .99.467 1.831 2.068 1.831s2.068-.838 2.068-1.831v-8.582h2.986v8.863c0 2.8-2.165 4.48-5.042 4.48s-5.066-1.689-5.066-4.49zm21.005-5.975h-3.359v10.2h-2.989v-10.2h-3.361v-2.877h9.709v2.877zm4.295-2.877v13.077h-2.986V38.028h2.986zm1.695 6.537a6.79 6.79 0 014.194-6.277 6.792 6.792 0 018.876 8.877 6.794 6.794 0 01-6.276 4.194 6.74 6.74 0 01-6.794-6.794zm10.607 0c0-2.334-1.681-3.885-3.81-3.885-2.13 0-3.811 1.551-3.811 3.885 0 2.333 1.669 3.881 3.808 3.881 2.138 0 3.798-1.548 3.798-3.881h.015zM149 38.028v13.077h-2.242l-5.042-7.09v7.09h-2.987V38.028h2.242l5.043 7.09v-7.09H149z" fill="#000"/><path d="M50.413 0H3.583A3.583 3.583 0 000 3.583v43.555l24.139-18.874-4.791-.59a3.976 3.976 0 01-3.462-4.431 3.976 3.976 0 014.43-3.45l14.318 1.754a3.976 3.976 0 013.462 4.43l-1.764 14.31a3.977 3.977 0 11-7.893-.966l.591-4.791L4.135 54h46.278a3.583 3.583 0 003.583-3.583V3.583A3.584 3.584 0 0050.413 0" fill="#EB5B31"/></svg>