<svg width="192" height="48" fill="none" xmlns="http://www.w3.org/2000/svg"><g clip-path="url(#clip0)" fill="#fff"><path d="M174.322 47.27l-1.527-.425-.019-.25 3.187-.79-.03-.21-4.483-.559 2.926-1.826-3.83-.557 1.964-2.068-4.106-.292-.015-.26 1.349-.657c-1.776-.463-3.381-1.409-5.218-.455l1.056.589-1.734.838 2.686.4-3.072 1.262v-.97l-2.637-.359v-.21l1.266-.715-2.658-.594-.032-.302 3.261-.493c-.517-.157-.921-.219-1.267-.402-.458-.238-.873-.564-1.309-.853.309-.247.619-.492.924-.743.048-.04.07-.11.241-.388h-4.136l-.013-.3 1.612-.739-2.211-.695-.037-.249 2.351-.45c-.519-.194-.911-.267-1.206-.477-.209-.149-.288-.484-.492-.862l-1.376-.374v-1.851l-2.434-.388-.109-.297 1.617-.63-2.852-2.236 2.738-.58-.005-.093h-4.363c.545-1.035 1.994-1.37 4.83-1.146l-.734.548c1.158.383 2.458-.263 3.804.531l-1.973.607c.386.447.725.986 1.2 1.345.451.348 1.04.515 1.8.87l-1.977.496-.068.235 2.618.56-.577 1.78 2.228.11c-.218.438-.342.698-.506 1.033l2.13.739-.006.24-2.438.15-.076.165c.239.098.483.186.716.296.234.11.463.241.86.45l-1.213.686.049.188 3.725-1.096-.775-.399v-.238l3.081-.444-.885-.723 1.943-1.051-2.063-.359-.063-.236 3.659-1.307-2.215-.352-.046-.235c.497-.219.999-.438 1.49-.675.287-.138.721-.255.804-.484.526-1.455 1.751-1.715 3.041-1.998l-3.323-.463c1.821-1.206 3.824-.954 5.85-.811l-1.452.457.035.173 3.173.789-.048.212c-.836.197-1.68.364-2.5.61-.273.081-.636.33-.698.567-.248.939-.858 1.28-1.745 1.36-.218.018-.422.253-.664.408l2.764.405.046.181-3.775.973-.014.251 2.25.347.046.153-2.443.917-.18.422.914.505-1.297.344-.189 1.136 4.328.73v.174l-1.653.689c.481 1.169 1.567 1.22 2.465 1.753l-2.107.438.913.329-.427.876c.633.078 1.613.364 1.708.183.61-1.17 2.072-.49 2.823-1.466.262-.34.772-.689 1.031-1.132.474-.81 1.071-1.322 2.06-1.325.293 0 .587-.21 1.029-.381l-3.501-.905-.028-.245 3.134-.468-.957-.749 3.798-1.578-3.348-.632.018-.305 4.363-.525c0-.065.007-.13.012-.196l-3.163-.715-.043-.291 3.49-.589-1.495-.447.02-.341 3.72-.739c-.421-.395-1.499-.172-1.06-1.27l-1.717-.518c2.334-1.096 4.748-.714 7.125-.773l.024.243-2.68.298-.069.182 1.171.592-.264.909 1.637.657-.031.29-4.011.318v.251l2.118.447.006.263-3.817.478 3.381 1.02v.25l-4.62.475 3.899 1.035-5.268 1.404 2.501.593-.036.21-2.646.383-.069.22 2.509 1.032.062.314c-1.943-.294-3.21.834-4.557 1.972l1.165.455c0 .082.008.165.012.248l-3.631.64 3.734.897-.027.185-5.293 1.63 3.529.943-.016.22-4.932.998-.05.283 3.305.647.043.288-4.831.778 1.067.657h-.973zm.959-41.355c-1.896 2.74-3.719 5.359-5.5 7.998-.154.228-.163.735-.013.96 1.5 2.26 3.045 4.493 4.587 6.72.315.458.67.889 1.06 1.404h-3.963l-8.183-11.883c-.515.698-1.046 1.386-1.543 2.099-1.883 2.7-3.902 5.322-5.573 8.15-.872 1.487-1.871 1.899-3.395 1.703-.461-.06-.937-.009-1.645-.009l12.136-17.64c1.445 2.12 2.788 4.096 4.197 6.168L175.245.267l15.797 22.89c-1.347 0-2.518.126-3.638-.06-.471-.078-.894-.775-1.233-1.264-1.515-2.177-2.99-4.382-4.482-6.573-.938-1.379-1.869-2.762-2.836-4.12M0 8.854h7.626c1.66 0 2.904.397 3.731 1.19.828.794 1.241 1.923 1.24 3.387 0 1.507-.45 2.684-1.35 3.53-.902.847-2.277 1.271-4.128 1.274H4.61v5.534H0V8.854zm4.608 6.354h1.124c.885 0 1.506-.154 1.864-.462a1.49 1.49 0 00.536-1.186 1.665 1.665 0 00-.465-1.19c-.312-.326-.897-.49-1.753-.49h-1.31l.004 3.328zm9.812 1.112c0-2.434.676-4.33 2.026-5.686 1.35-1.357 3.23-2.035 5.64-2.035 2.473 0 4.377.667 5.712 2 1.336 1.333 2.005 3.2 2.006 5.6 0 1.742-.29 3.171-.872 4.288a6.253 6.253 0 01-2.537 2.603c-1.104.62-2.48.931-4.127.931-1.672 0-3.058-.268-4.157-.803-1.1-.535-1.989-1.383-2.667-2.544-.683-1.16-1.024-2.61-1.023-4.354zm4.588.02c0 1.506.279 2.588.836 3.246.557.658 1.314.987 2.273.986.986 0 1.75-.322 2.29-.966.541-.645.811-1.8.81-3.469 0-1.404-.282-2.43-.846-3.078-.563-.647-1.327-.971-2.29-.97-.925 0-1.668.328-2.228.986-.561.657-.842 1.746-.845 3.266zm13.328 7.427V8.854h7.646c1.418 0 2.501.121 3.25.365.74.236 1.378.715 1.814 1.359.459.662.688 1.465.69 2.41 0 .827-.176 1.541-.528 2.142a4.129 4.129 0 01-1.45 1.462c-.392.237-.928.434-1.611.59.546.184.944.366 1.194.548.274.232.52.495.734.785.243.287.458.598.643.927l2.221 4.32h-5.184l-2.452-4.557c-.31-.59-.588-.973-.83-1.15a1.92 1.92 0 00-1.124-.346h-.406v6.054l-4.607.004zm4.607-8.874h1.935c.21 0 .614-.068 1.215-.203.298-.057.563-.224.745-.468.19-.247.292-.553.288-.865 0-.482-.152-.851-.456-1.11-.304-.257-.874-.386-1.711-.385h-2.016v3.03zm10.239-6.039h13.945v3.684h-4.679v11.23h-4.587v-11.23h-4.68V8.854zm30.401 9.512v-3.103h7.09v6.354c-1.357.93-2.557 1.562-3.6 1.897-1.042.335-2.278.503-3.708.504-1.763 0-3.2-.302-4.31-.905a6.183 6.183 0 01-2.582-2.697c-.611-1.192-.916-2.562-.916-4.11 0-1.627.334-3.043 1.002-4.246a6.507 6.507 0 012.937-2.739c1.006-.48 2.36-.721 4.06-.722 1.641 0 2.868.15 3.682.448a4.778 4.778 0 012.025 1.388c.537.628.94 1.423 1.211 2.386l-4.426.794a2.41 2.41 0 00-.926-1.293c-.436-.298-.992-.447-1.666-.447-1.006 0-1.808.351-2.406 1.053-.597.702-.897 1.813-.9 3.335 0 1.614.302 2.767.906 3.458.604.69 1.447 1.035 2.527 1.034a4.79 4.79 0 001.468-.22 7.91 7.91 0 001.6-.766v-1.403h-3.068zm9.875 5.401V8.854h7.651c1.418 0 2.502.121 3.25.365a3.46 3.46 0 011.813 1.359c.46.662.69 1.465.69 2.41 0 .827-.176 1.541-.527 2.142a4.13 4.13 0 01-1.455 1.462c-.392.237-.93.434-1.611.59.546.184.946.366 1.2.548.274.232.52.495.734.785.243.287.458.598.642.927l2.222 4.32h-5.19l-2.452-4.557c-.31-.59-.588-.973-.83-1.15a1.92 1.92 0 00-1.124-.346h-.406v6.054l-4.607.004zm4.607-8.874H94c.21 0 .614-.068 1.215-.203a1.21 1.21 0 00.744-.468 1.38 1.38 0 00.289-.865c0-.482-.152-.851-.456-1.11-.304-.257-.874-.386-1.711-.385h-2.016v3.03zm10.533 1.427c0-2.434.675-4.33 2.025-5.686 1.35-1.357 3.23-2.035 5.64-2.035 2.472 0 4.376.667 5.712 2 1.336 1.333 2.004 3.2 2.005 5.6 0 1.742-.291 3.171-.873 4.288a6.256 6.256 0 01-2.531 2.603c-1.104.62-2.48.931-4.127.931-1.673 0-3.058-.268-4.157-.803-1.099-.535-1.991-1.383-2.676-2.544-.679-1.16-1.018-2.61-1.018-4.354zm4.587.02c0 1.506.279 2.588.836 3.246.557.658 1.314.987 2.273.986.986 0 1.749-.322 2.29-.966.541-.645.811-1.8.809-3.469 0-1.404-.281-2.43-.845-3.078-.563-.647-1.327-.971-2.29-.97-.925 0-1.668.328-2.229.986-.56.657-.842 1.746-.844 3.266zm22.928-7.486h4.581v8.885a7.54 7.54 0 01-.411 2.496 5.389 5.389 0 01-1.287 2.053 5.115 5.115 0 01-1.837 1.235c-.892.332-1.962.498-3.21.498a20.042 20.042 0 01-2.365-.152c-.854-.102-1.568-.303-2.142-.605a5.375 5.375 0 01-1.575-1.286 4.742 4.742 0 01-.982-1.718c-.283-.95-.425-1.79-.425-2.52V8.854h4.581v9.093c0 .813.225 1.448.674 1.905.449.458 1.072.687 1.868.687.79 0 1.408-.225 1.855-.676.446-.45.671-1.089.674-1.916l.001-9.093zm7.595 0h7.625c1.662 0 2.906.397 3.732 1.19.827.794 1.241 1.923 1.241 3.387 0 1.507-.451 2.684-1.353 3.53-.902.847-2.277 1.271-4.126 1.274h-2.509v5.534h-4.607l-.003-14.915zm4.607 6.354h1.125c.885 0 1.506-.154 1.863-.462a1.499 1.499 0 00.536-1.186 1.657 1.657 0 00-.466-1.19c-.31-.325-.894-.487-1.751-.488h-1.309l.002 3.326z"/></g><defs><clipPath id="clip0"><path fill="#fff" transform="translate(0 .267)" d="M0 0h192v47H0z"/></clipPath></defs></svg>