<svg width="192" height="47" xmlns="http://www.w3.org/2000/svg"><path d="M174.322 47.002l-1.527-.424-.02-.25 3.187-.79-.029-.21-4.483-.559 2.925-1.826-3.829-.557 1.963-2.068-4.105-.292-.015-.26 1.349-.657c-1.776-.463-3.381-1.409-5.218-.455l1.056.589-1.734.838 2.686.4-3.073 1.262v-.97l-2.636-.359v-.21l1.265-.716-2.658-.593-.031-.302 3.261-.493c-.517-.157-.922-.219-1.267-.402-.459-.238-.873-.564-1.309-.853.308-.247.619-.492.924-.743.048-.04.069-.11.241-.388h-4.136l-.013-.3 1.612-.739-2.211-.695-.037-.25 2.351-.448c-.519-.195-.912-.268-1.206-.478-.21-.149-.288-.484-.492-.862l-1.376-.374v-1.851l-2.434-.388-.109-.297 1.617-.63-2.853-2.236 2.739-.58-.005-.093h-4.363c.545-1.035 1.994-1.37 4.829-1.146l-.734.548c1.159.383 2.459-.263 3.805.531l-1.973.607c.386.447.725.986 1.199 1.345.452.348 1.041.515 1.801.87l-1.977.496-.068.235 2.618.56-.577 1.78 2.228.11c-.218.438-.342.698-.506 1.033l2.13.739-.006.24-2.438.15-.076.165c.238.098.483.186.716.296.234.11.463.241.86.45l-1.213.686.049.188 3.725-1.096-.775-.399v-.238l3.08-.444-.884-.723 1.942-1.051-2.062-.359-.063-.236 3.659-1.307-2.215-.352-.046-.235c.497-.219.999-.438 1.49-.675.287-.139.721-.255.804-.484.525-1.455 1.751-1.715 3.04-1.998l-3.322-.463c1.821-1.206 3.824-.954 5.85-.811l-1.452.457.035.173 3.173.788-.048.213c-.836.197-1.68.364-2.5.61-.273.081-.636.329-.698.567-.248.939-.859 1.28-1.745 1.36-.219.018-.423.253-.665.408l2.765.405.046.181-3.775.973-.014.251 2.25.347.046.153-2.443.917-.18.422.914.505-1.297.344-.189 1.136 4.328.73v.174l-1.653.689c.481 1.169 1.567 1.22 2.465 1.753l-2.108.438.913.329-.426.876c.632.078 1.613.364 1.708.183.61-1.17 2.072-.49 2.823-1.466.261-.34.772-.689 1.03-1.132.475-.81 1.071-1.322 2.061-1.325.293 0 .586-.21 1.029-.381l-3.501-.905-.028-.245 3.133-.468-.956-.749 3.798-1.578-3.348-.632.018-.306 4.362-.524c0-.065.008-.13.012-.196l-3.163-.715-.042-.291 3.49-.589-1.495-.447.019-.341 3.721-.739c-.421-.395-1.499-.172-1.06-1.27l-1.717-.518c2.334-1.096 4.748-.714 7.124-.773l.024.243-2.68.298-.068.182 1.171.592-.264.909 1.636.657-.03.29-4.011.318v.251l2.117.447.007.263-3.818.478 3.382 1.02v.25l-4.621.475 3.9 1.035-5.268 1.404 2.501.593-.036.21-2.647.383-.068.22 2.508 1.032.063.314c-1.943-.294-3.21.834-4.557 1.972l1.164.455c0 .082.009.165.012.247l-3.63.64 3.734.898-.027.185-5.293 1.63 3.529.943-.016.22-4.932.998-.051.283 3.305.647.044.288-4.831.778 1.067.657h-.973zm.959-41.354c-1.896 2.739-3.72 5.359-5.501 7.998-.153.228-.162.735-.013.96a426.086 426.086 0 004.588 6.72c.315.458.669.889 1.06 1.404h-3.964l-8.182-11.883c-.515.698-1.046 1.386-1.543 2.099-1.883 2.7-3.902 5.322-5.573 8.15-.872 1.487-1.871 1.899-3.395 1.703-.462-.06-.937-.009-1.645-.009l12.136-17.64c1.444 2.12 2.788 4.096 4.197 6.168L175.245 0l15.796 22.89c-1.347 0-2.517.126-3.637-.06-.471-.078-.895-.775-1.234-1.264-1.515-2.177-2.989-4.382-4.481-6.573-.938-1.379-1.869-2.763-2.836-4.12M0 8.586h7.626c1.66 0 2.904.397 3.731 1.191.828.794 1.241 1.923 1.24 3.387 0 1.507-.45 2.684-1.35 3.53-.902.847-2.277 1.271-4.128 1.274H4.61v5.534H0V8.586zm4.608 6.355h1.124c.885 0 1.506-.154 1.864-.462a1.492 1.492 0 00.536-1.186 1.665 1.665 0 00-.465-1.19c-.312-.326-.897-.49-1.753-.49h-1.31l.004 3.328zm9.813 1.112c0-2.434.675-4.33 2.026-5.686 1.35-1.357 3.23-2.035 5.64-2.035 2.472 0 4.376.667 5.712 2 1.335 1.333 2.004 3.2 2.005 5.6 0 1.742-.29 3.172-.872 4.288a6.254 6.254 0 01-2.537 2.603c-1.104.62-2.48.931-4.126.931-1.673 0-3.059-.268-4.158-.803-1.1-.535-1.988-1.383-2.667-2.544-.683-1.16-1.024-2.61-1.023-4.354zm4.588.02c0 1.506.278 2.588.835 3.246.557.658 1.315.987 2.273.986.986 0 1.75-.322 2.29-.966.542-.644.811-1.8.81-3.469 0-1.404-.282-2.43-.845-3.077-.564-.648-1.327-.972-2.29-.971-.926 0-1.669.329-2.23.986-.56.657-.841 1.746-.843 3.266zM32.336 23.5V8.586h7.646c1.418 0 2.501.122 3.25.366.74.236 1.378.715 1.814 1.359.459.662.688 1.465.69 2.41 0 .827-.176 1.541-.528 2.142a4.129 4.129 0 01-1.45 1.462c-.392.237-.928.434-1.611.59.546.184.944.366 1.194.548.274.232.52.495.734.785.243.287.458.598.643.926l2.221 4.322h-5.184l-2.452-4.558c-.31-.59-.588-.973-.83-1.15a1.92 1.92 0 00-1.124-.346h-.406v6.054l-4.607.004zm4.607-8.874h1.935c.21 0 .614-.068 1.215-.203.298-.057.563-.224.745-.468.19-.247.292-.553.288-.866 0-.48-.152-.85-.456-1.108-.304-.258-.874-.387-1.711-.386h-2.016v3.03zm10.238-6.04h13.946v3.685h-4.679V23.5h-4.587V12.271h-4.68V8.586zm30.403 9.513v-3.103h7.09v6.354c-1.358.93-2.558 1.562-3.6 1.897-1.043.335-2.279.503-3.709.504-1.762 0-3.199-.302-4.309-.905a6.183 6.183 0 01-2.583-2.696c-.61-1.193-.916-2.563-.916-4.11 0-1.628.334-3.044 1.002-4.247a6.507 6.507 0 012.938-2.739c1.005-.48 2.359-.721 4.06-.722 1.64 0 2.868.15 3.681.448a4.777 4.777 0 012.026 1.389c.537.627.94 1.422 1.21 2.385l-4.425.794a2.41 2.41 0 00-.926-1.293c-.437-.298-.992-.447-1.667-.447-1.006 0-1.807.351-2.405 1.053-.598.702-.898 1.814-.9 3.335 0 1.614.301 2.767.905 3.458.605.69 1.447 1.036 2.528 1.034a4.79 4.79 0 001.468-.219 7.91 7.91 0 001.6-.767V18.1h-3.068zm9.874 5.401V8.586h7.651c1.418 0 2.501.122 3.25.366a3.462 3.462 0 011.813 1.359c.46.662.689 1.465.689 2.41 0 .827-.175 1.541-.526 2.142a4.133 4.133 0 01-1.455 1.462c-.392.237-.93.434-1.611.59.546.184.946.366 1.2.548.274.232.52.495.733.785.243.287.458.598.643.926l2.222 4.322h-5.19l-2.452-4.558c-.311-.59-.588-.973-.831-1.15a1.919 1.919 0 00-1.123-.346h-.406v6.054l-4.607.004zm4.607-8.874H94c.21 0 .614-.068 1.215-.203a1.21 1.21 0 00.744-.468 1.38 1.38 0 00.289-.866c0-.48-.152-.85-.456-1.108-.304-.258-.875-.387-1.712-.386h-2.015v3.03zm10.533 1.427c0-2.434.675-4.33 2.025-5.686 1.35-1.357 3.23-2.035 5.64-2.035 2.472 0 4.376.667 5.712 2 1.336 1.333 2.004 3.2 2.005 5.6 0 1.742-.291 3.172-.873 4.288a6.256 6.256 0 01-2.531 2.603c-1.104.62-2.48.931-4.127.931-1.673 0-3.058-.268-4.157-.803-1.099-.535-1.991-1.383-2.676-2.544-.679-1.16-1.018-2.61-1.018-4.354zm4.587.02c0 1.506.279 2.588.836 3.246.557.658 1.314.987 2.273.986.986 0 1.749-.322 2.29-.966.541-.644.811-1.8.809-3.469 0-1.404-.281-2.43-.845-3.077-.563-.648-1.327-.972-2.29-.971-.925 0-1.668.329-2.229.986-.56.657-.842 1.746-.844 3.266zm22.928-7.487h4.581v8.886a7.54 7.54 0 01-.411 2.496 5.39 5.39 0 01-1.287 2.053 5.115 5.115 0 01-1.837 1.235c-.892.332-1.962.498-3.21.498a20.063 20.063 0 01-2.365-.152c-.854-.102-1.568-.303-2.142-.605a5.376 5.376 0 01-1.575-1.286 4.743 4.743 0 01-.982-1.718c-.283-.95-.425-1.79-.425-2.52V8.586h4.581v9.094c0 .813.225 1.448.674 1.905.449.458 1.072.687 1.868.687.79 0 1.408-.225 1.855-.676.446-.45.671-1.09.674-1.916l.001-9.094zm7.595 0h7.625c1.662 0 2.906.397 3.733 1.191.826.794 1.24 1.923 1.24 3.387 0 1.507-.451 2.684-1.353 3.53-.901.847-2.277 1.271-4.126 1.274h-2.508v5.534h-4.607l-.004-14.916zm4.607 6.355h1.125c.885 0 1.506-.154 1.863-.462a1.49 1.49 0 00.536-1.186 1.657 1.657 0 00-.465-1.19c-.311-.325-.895-.488-1.752-.488h-1.309l.002 3.326z"/></svg>