<svg width="40" height="40" viewBox="0 0 40 40" fill="none" xmlns="http://www.w3.org/2000/svg">
<g clip-path="url(#clip0)">
<path d="M39.9229 21.8477C39.5637 18.2353 37.9499 14.8297 35.3784 12.2582C33.1809 10.0607 30.4912 8.6486 27.661 8.0207V6.03567C28.8169 5.74809 29.6762 4.70174 29.6762 3.45805C29.6762 1.99334 28.4846 0.801758 27.0199 0.801758H21.3948C19.9301 0.801758 18.7385 1.99334 18.7385 3.45805C18.7385 4.70166 19.5977 5.74801 20.7536 6.03567V8.02625C17.9321 8.6568 15.2513 10.067 13.06 12.2583C12.5804 12.7378 12.1382 13.2409 11.7335 13.7637C11.7139 13.7622 11.6942 13.7607 11.6742 13.7607H6.10689C5.67548 13.7607 5.32563 14.1105 5.32563 14.542C5.32563 14.9735 5.67548 15.3232 6.10689 15.3232H10.6704C10.0976 16.2822 9.6357 17.2894 9.28413 18.3261H0.781262C0.349849 18.3261 0 18.6759 0 19.1074C0 19.5388 0.349849 19.8886 0.781262 19.8886H8.84264C8.61748 20.877 8.48826 21.8829 8.4549 22.8916H5.00008C4.56867 22.8916 4.21882 23.2413 4.21882 23.6728C4.21882 24.1043 4.56867 24.4541 5.00008 24.4541H8.47982C8.54576 25.4653 8.70834 26.4713 8.96764 27.457H3.90631C3.4749 27.457 3.12505 27.8068 3.12505 28.2383C3.12505 28.6698 3.4749 29.0195 3.90631 29.0195H9.46624C10.2327 31.047 11.4304 32.9473 13.06 34.5768C15.6339 37.1508 19.043 38.765 22.6592 39.1223C23.1753 39.1732 23.6918 39.1985 24.2076 39.1985C27.2562 39.1985 30.2661 38.3162 32.82 36.653C33.1816 36.4175 33.2839 35.9336 33.0484 35.572C32.8129 35.2104 32.3289 35.1082 31.9674 35.3436C26.3769 38.9841 18.8898 38.197 14.1648 33.472C8.62084 27.928 8.62084 18.9073 14.1648 13.3632C19.7087 7.81929 28.7294 7.81929 34.2735 13.3632C38.9922 18.082 39.7837 25.5627 36.1553 31.1504C35.9202 31.5123 36.0231 31.9962 36.3849 32.2312C36.747 32.4662 37.2307 32.3633 37.4657 32.0014C39.4043 29.0158 40.277 25.4099 39.9229 21.8477ZM20.301 3.45813C20.301 2.85499 20.7917 2.36436 21.3948 2.36436H27.0199C27.623 2.36436 28.1136 2.85499 28.1136 3.45813C28.1136 4.06126 27.623 4.55189 27.0199 4.55189H26.8797H21.5349H21.3948C20.7917 4.55189 20.301 4.06118 20.301 3.45813ZM22.3161 7.75765V6.11442H26.0985V7.75484C24.8425 7.60546 23.5719 7.6064 22.3161 7.75765Z" fill="black"/>
<path d="M34.8263 33.2428C34.62 33.2428 34.4193 33.3264 34.274 33.4717C34.1279 33.617 34.045 33.8186 34.045 34.024C34.045 34.2295 34.1279 34.4311 34.274 34.5764C34.4193 34.7225 34.6201 34.8053 34.8263 34.8053C35.0318 34.8053 35.2325 34.7225 35.3786 34.5764C35.524 34.4311 35.6075 34.2295 35.6075 34.024C35.6075 33.8186 35.524 33.617 35.3786 33.4717C35.2325 33.3264 35.0317 33.2428 34.8263 33.2428Z" fill="black"/>
<path d="M24.2193 11.2979C17.5365 11.2979 12.0996 16.7347 12.0996 23.4175C12.0996 30.1003 17.5365 35.5371 24.2193 35.5371C30.902 35.5371 36.3389 30.1003 36.3389 23.4175C36.3389 16.7347 30.902 11.2979 24.2193 11.2979ZM24.2193 33.9746C18.398 33.9746 13.6621 29.2387 13.6621 23.4175C13.6621 17.5963 18.398 12.8604 24.2193 12.8604C30.0405 12.8604 34.7764 17.5963 34.7764 23.4175C34.7764 29.2387 30.0405 33.9746 24.2193 33.9746Z" fill="black"/>
<path d="M29.1612 17.3707L25.2916 21.2402C24.968 21.0802 24.604 20.9898 24.2192 20.9898C23.8344 20.9898 23.4705 21.0802 23.1469 21.2402L21.415 19.5083C21.1099 19.2033 20.6153 19.2033 20.3101 19.5083C20.005 19.8134 20.005 20.3081 20.3101 20.6132L22.0419 22.345C21.8819 22.6686 21.7915 23.0326 21.7915 23.4174C21.7915 24.756 22.8805 25.8451 24.2192 25.8451C25.5579 25.8451 26.6469 24.756 26.6469 23.4174C26.6469 23.0326 26.5565 22.6686 26.3965 22.345L30.1525 18.589L30.266 18.4755C30.5711 18.1704 30.5711 17.6757 30.266 17.3707C29.961 17.0656 29.4664 17.0656 29.1612 17.3707ZM24.2192 24.2826C23.7422 24.2826 23.3541 23.8945 23.3541 23.4175C23.3541 22.9404 23.7422 22.5523 24.2192 22.5523C24.6963 22.5523 25.0844 22.9404 25.0844 23.4175C25.0844 23.8945 24.6963 24.2826 24.2192 24.2826Z" fill="black"/>
<path d="M32.5723 22.6456H31.8485C31.4171 22.6456 31.0673 22.9954 31.0673 23.4269C31.0673 23.8584 31.4171 24.2081 31.8485 24.2081H32.5723C33.0037 24.2081 33.3536 23.8584 33.3536 23.4269C33.3536 22.9954 33.0037 22.6456 32.5723 22.6456Z" fill="black"/>
<path d="M16.5898 22.6267H15.866C15.4346 22.6267 15.0848 22.9765 15.0848 23.408C15.0848 23.8394 15.4346 24.1892 15.866 24.1892H16.5898C17.0212 24.1892 17.371 23.8394 17.371 23.408C17.371 22.9765 17.0212 22.6267 16.5898 22.6267Z" fill="black"/>
<path d="M24.2288 16.5693C24.6602 16.5693 25.01 16.2196 25.01 15.7881V15.0643C25.01 14.6328 24.6602 14.2831 24.2288 14.2831C23.7974 14.2831 23.4475 14.6328 23.4475 15.0643V15.7881C23.4475 16.2196 23.7974 16.5693 24.2288 16.5693Z" fill="black"/>
<path d="M24.2097 30.2655C23.7783 30.2655 23.4285 30.6153 23.4285 31.0468V31.7705C23.4285 32.202 23.7783 32.5518 24.2097 32.5518C24.6411 32.5518 24.991 32.202 24.991 31.7705V31.0468C24.991 30.6153 24.6411 30.2655 24.2097 30.2655Z" fill="black"/>
<path d="M0.78125 27.4568C0.575781 27.4568 0.374219 27.5404 0.228906 27.6857C0.0835938 27.831 0 28.0326 0 28.238C0 28.4443 0.0835156 28.6451 0.228906 28.7904C0.374297 28.9357 0.575781 29.0193 0.78125 29.0193C0.986719 29.0193 1.18828 28.9357 1.33352 28.7904C1.47883 28.6451 1.5625 28.4435 1.5625 28.238C1.5625 28.0326 1.47891 27.831 1.33352 27.6857C1.18828 27.5404 0.986719 27.4568 0.78125 27.4568Z" fill="black"/>
</g>
<defs>
<clipPath id="clip0">
<rect width="40" height="40" fill="white"/>
</clipPath>
</defs>
</svg>
