<svg width="37" height="37" viewBox="0 0 37 37" fill="none" xmlns="http://www.w3.org/2000/svg">
<path d="M7.16049 24.1969C6.33192 24.9676 5.66646 25.8757 5.18244 26.896L4.92677 27.4351L0.767558 32.6853C0.581112 32.9206 0.620764 33.2626 0.856141 33.449C0.956033 33.5282 1.07513 33.5665 1.19337 33.5665C1.35372 33.5665 1.51254 33.4959 1.6199 33.3604L5.81753 28.0617C5.84312 28.0295 5.86487 27.9943 5.88256 27.9572L6.16491 27.3621C6.58963 26.4667 7.17376 25.6696 7.90113 24.993C8.12092 24.7885 8.13339 24.4445 7.92889 24.2246C7.72439 24.0049 7.38043 23.9923 7.16049 24.1969Z" fill="black"/>
<path d="M35.8555 20.516C35.1104 19.6368 33.7892 19.5279 32.9103 20.2729L32.6292 20.5111C32.5634 20.1712 32.4127 19.8431 32.1733 19.5607C31.4284 18.6818 30.1071 18.5727 29.2281 19.3176L28.9787 19.5289C28.9089 19.1998 28.7588 18.883 28.5262 18.6086C27.7813 17.7296 26.4601 17.6207 25.581 18.3655L21.4022 21.9069C21.1876 21.8462 20.9616 21.813 20.7279 21.813H13.2196C11.8268 21.813 10.4335 22.147 9.19036 22.779C8.92272 22.9151 8.81602 23.2424 8.95208 23.51C9.08815 23.7776 9.41544 23.8844 9.68308 23.7483C10.7744 23.1936 11.9973 22.9004 13.2196 22.9004H20.7279C21.4955 22.9004 22.12 23.5249 22.12 24.2925C22.12 24.6702 21.9713 25.0237 21.7013 25.2879C21.4314 25.5519 21.0769 25.6906 20.6976 25.6843C20.6936 25.6842 20.6896 25.6841 20.6855 25.6841H15.8396C15.5393 25.6841 15.2959 25.9275 15.2959 26.2278C15.2959 26.5281 15.5393 26.7715 15.8396 26.7715H20.6799C20.6966 26.7718 20.7134 26.772 20.7301 26.772C21.3813 26.772 21.9943 26.5223 22.4616 26.0653C22.5301 25.9982 22.5937 25.9277 22.6533 25.8546H27.2472C27.7364 25.8546 28.2114 25.6804 28.5847 25.3639L33.6133 21.1024C34.0349 20.7451 34.6686 20.7974 35.026 21.2189C35.3833 21.6406 35.3309 22.2744 34.9094 22.6317L26.9713 29.3591C26.2303 29.9869 25.3291 30.3801 24.3649 30.4961L23.3855 30.614C23.0874 30.6499 22.8748 30.9206 22.9107 31.2188C22.9439 31.4948 23.1786 31.6975 23.4498 31.6975C23.4716 31.6975 23.4935 31.6961 23.5155 31.6935L24.4948 31.5756C25.6711 31.4342 26.7705 30.9546 27.6742 30.1886L35.6124 23.4612C36.4914 22.7163 36.6005 21.395 35.8555 20.516ZM26.284 19.195C26.7056 18.8376 27.3394 18.89 27.6968 19.3116C28.0261 19.7002 28.0133 20.2661 27.6702 20.6378L23.2039 24.4229C23.2062 24.3796 23.2074 24.3361 23.2074 24.2925C23.2074 23.5754 22.9011 22.9288 22.4129 22.4757L26.284 19.195ZM24.4795 24.7672L29.9311 20.1471C30.3529 19.7897 30.9866 19.8421 31.3438 20.2637C31.7012 20.6853 31.6488 21.3191 31.2272 21.6764L27.8818 24.5344C27.7047 24.6845 27.4793 24.7672 27.2472 24.7672H24.4795Z" fill="black"/>
<path d="M21.0758 30.8918L15.5008 31.5625C15.3633 31.5791 15.2372 31.6475 15.1485 31.7537L11.5114 36.1078C11.319 36.3383 11.3497 36.6811 11.5801 36.8736C11.6818 36.9586 11.8054 37 11.9284 37C12.084 37 12.2384 36.9336 12.3459 36.8049L15.8448 32.6163L21.2057 31.9714C21.5038 31.9356 21.7165 31.6649 21.6806 31.3667C21.6447 31.0686 21.373 30.8562 21.0758 30.8918Z" fill="black"/>
<path d="M16.7586 15.5572C16.7586 15.5572 13.5814 10.6111 13.5768 10.6047C13.039 9.84187 12.6819 8.95154 12.5439 8.03004C12.4995 7.73305 12.2224 7.52812 11.9258 7.57285C11.6288 7.61721 11.4241 7.89405 11.4686 8.19097C11.6308 9.27528 12.05 10.3228 12.6813 11.2214L15.7576 16.0105V16.8034C15.7576 17.033 15.8385 17.2439 15.9731 17.4097V19.2784C15.9731 20.153 16.6846 20.8646 17.5593 20.8646H19.4773C20.3519 20.8646 21.0636 20.1531 21.0636 19.2784V17.4097C21.1981 17.2439 21.2791 17.033 21.2791 16.8034V16.0105L24.3554 11.2214C25.2005 10.0183 25.6473 8.60315 25.6473 7.12812C25.6473 4.77138 24.4842 2.56963 22.5359 1.23827C20.5457 -0.121726 18.0526 -0.374501 15.6962 0.544606C13.9892 1.21043 12.6242 2.56636 11.9513 4.26482C11.7669 4.73028 11.6258 5.20777 11.532 5.68403C11.474 5.97864 11.6658 6.26454 11.9603 6.3226C12.2555 6.38089 12.5408 6.18886 12.5989 5.89433C12.6799 5.4828 12.8022 5.06932 12.9623 4.66533C13.5243 3.24683 14.6648 2.1141 16.0914 1.55766C18.1082 0.771066 20.2335 0.982013 21.9224 2.13606C23.5738 3.26467 24.5598 5.13086 24.5598 7.12819C24.5598 8.38169 24.1793 9.5838 23.4596 10.6047C23.4551 10.6111 20.2778 15.5572 20.2778 15.5572C20.2215 15.6449 20.1916 15.7468 20.1916 15.851V16.6801H20.0588L20.3685 11.4244H20.8868C21.7207 11.4244 22.3991 10.746 22.3991 9.91211V9.85202C22.3991 9.01809 21.7207 8.33972 20.8868 8.33972C20.0873 8.33972 19.424 8.96495 19.3771 9.76315L19.3433 10.3371H17.6983L17.6645 9.76315C17.6175 8.96495 16.9543 8.33972 16.1547 8.33972C15.3208 8.33972 14.6424 9.01809 14.6424 9.85202V9.91211C14.6424 10.746 15.3208 11.4244 16.1547 11.4244H16.6731L16.9827 16.6801H16.8448V15.851C16.8448 15.7468 16.8149 15.6449 16.7586 15.5572ZM20.4626 9.82701C20.4758 9.60265 20.6621 9.42693 20.8868 9.42693C21.1211 9.42693 21.3118 9.61758 21.3118 9.85187V9.91197C21.3118 10.1463 21.1211 10.3369 20.8868 10.3369H20.4325L20.4626 9.82701ZM16.1547 10.337C15.9204 10.337 15.7298 10.1463 15.7298 9.91204V9.85195C15.7298 9.61766 15.9204 9.42701 16.1547 9.42701C16.3794 9.42701 16.5658 9.60272 16.579 9.82708L16.6091 10.3371H16.1547V10.337ZM19.9761 19.2785C19.9761 19.5536 19.7523 19.7773 19.4772 19.7773H17.5592C17.2841 19.7773 17.0603 19.5536 17.0603 19.2785V17.7674H19.9761V19.2785ZM17.7623 11.4243H19.2792L18.9695 16.68H18.0721L17.7623 11.4243Z" fill="black"/>
<path d="M27.9344 7.71848C27.9344 8.01881 28.1778 8.26216 28.4781 8.26216H29.7598C30.0601 8.26216 30.3034 8.01881 30.3034 7.71848C30.3034 7.41816 30.0601 7.1748 29.7598 7.1748H28.4781C28.1778 7.1748 27.9344 7.41823 27.9344 7.71848Z" fill="black"/>
<path d="M27.6181 4.84394C27.6808 4.84394 27.7447 4.833 27.807 4.80987L29.0087 4.36442C29.2902 4.2601 29.4338 3.94724 29.3295 3.66568C29.2251 3.38413 28.9123 3.24046 28.6308 3.34484L27.4291 3.79029C27.1475 3.89461 27.0039 4.20748 27.1082 4.48903C27.1896 4.70831 27.3973 4.84394 27.6181 4.84394Z" fill="black"/>
<path d="M27.4292 11.6468L28.6309 12.0922C28.6931 12.1153 28.757 12.1263 28.8197 12.1263C29.0406 12.1263 29.2483 11.9906 29.3295 11.7714C29.4338 11.4898 29.2902 11.177 29.0087 11.0726L27.807 10.6272C27.5254 10.523 27.2126 10.6666 27.1083 10.9481C27.004 11.2296 27.1476 11.5424 27.4292 11.6468Z" fill="black"/>
<path d="M7.27677 8.26216H8.5584C8.85873 8.26216 9.10208 8.01881 9.10208 7.71848C9.10208 7.41816 8.85873 7.1748 8.5584 7.1748H7.27677C6.97644 7.1748 6.73309 7.41816 6.73309 7.71848C6.73309 8.01881 6.97644 8.26216 7.27677 8.26216Z" fill="black"/>
<path d="M8.02768 4.36458L9.22935 4.81003C9.29162 4.83308 9.35541 4.8441 9.41819 4.8441C9.63907 4.8441 9.84675 4.70847 9.92802 4.48919C10.0323 4.20764 9.88873 3.89484 9.60717 3.79045L8.4055 3.345C8.12409 3.24083 7.81122 3.38429 7.70677 3.66584C7.60252 3.9474 7.7462 4.26019 8.02768 4.36458Z" fill="black"/>
<path d="M9.92813 10.9482C9.82381 10.6666 9.51102 10.5229 9.22939 10.6273L8.02772 11.0727C7.74616 11.177 7.60256 11.4899 7.70687 11.7714C7.78813 11.9906 7.99575 12.1263 8.2167 12.1263C8.2794 12.1263 8.34327 12.1154 8.40554 12.0923L9.60721 11.6469C9.88884 11.5425 10.0325 11.2297 9.92813 10.9482Z" fill="black"/>
</svg>
