<svg width="38" height="38" viewBox="0 0 38 38" fill="none" xmlns="http://www.w3.org/2000/svg">
<g clip-path="url(#clip0)">
<path d="M0.341652 14.0151L10.4459 18.7579C10.5476 18.8056 10.6612 18.8213 10.772 18.8034L14.4603 18.201C16.5681 17.8569 18.7224 18.5583 20.2232 20.0776L23.3099 23.2023C23.499 23.3937 23.5938 23.6471 23.5768 23.9157C23.5597 24.1843 23.4338 24.4237 23.2219 24.5897C22.9001 24.8419 22.4425 24.8531 22.109 24.6167L19.0994 22.4845C18.6723 22.1819 18.1033 22.2163 17.7158 22.568L15.5164 24.5637C15.2889 24.7702 15.2718 25.122 15.4783 25.3495C15.6847 25.577 16.0365 25.5942 16.2641 25.3877L18.4561 23.3924L21.4657 25.5246C21.8175 25.7738 22.2322 25.8977 22.6464 25.8977C23.0943 25.8977 23.5415 25.7529 23.9083 25.4653C24.3665 25.1062 24.6503 24.567 24.6872 23.986C24.7241 23.4051 24.5105 22.8344 24.1014 22.4203L21.6542 19.943C22.9483 19.6219 24.3183 19.6746 25.5896 20.1065L26.8938 20.5497C27.0361 20.598 27.1839 20.6219 27.3314 20.6219C27.5628 20.6219 27.7931 20.5631 27.9988 20.4475C28.0014 20.446 28.004 20.4445 28.0065 20.443L37.6221 14.8354C37.8875 14.6806 37.9772 14.34 37.8225 14.0746C37.6677 13.8091 37.327 13.7196 37.0617 13.8742L27.451 19.479C27.3901 19.5123 27.3175 19.5184 27.2518 19.4962L25.9476 19.053C24.2657 18.4816 22.4346 18.4817 20.7556 19.0466C19.0182 17.445 16.6252 16.7203 14.2809 17.1029L10.7627 17.6776L0.814455 13.0079C0.536292 12.8774 0.205019 12.997 0.0744678 13.2751C-0.0560832 13.5533 0.0634897 13.8845 0.341652 14.0151Z" fill="black"/>
<path d="M37.9219 24.4424C37.7872 24.1663 37.4539 24.052 37.1779 24.1867L32.2832 26.5777C32.1995 26.6186 32.1274 26.6797 32.0736 26.7557L31.6798 27.3109C31.2062 27.9786 30.5931 28.5322 29.8862 28.9355C29.8312 28.8464 29.7687 28.7606 29.6978 28.679L28.7256 27.5602C28.0174 26.7453 26.7784 26.6585 25.9634 27.3667L25.8834 27.4363C25.4692 27.7962 25.2435 28.2933 25.2143 28.8022C25.2058 28.8014 25.1972 28.8003 25.1887 28.7997C24.6672 28.7631 24.1623 28.9319 23.7675 29.2749L23.6874 29.3445C23.2729 29.7047 23.0472 30.2022 23.0182 30.7113C22.51 30.669 21.986 30.823 21.5716 31.1832L21.4914 31.2529C21.0769 31.613 20.8513 32.1105 20.8222 32.6196C20.3139 32.5773 19.7898 32.7314 19.3754 33.0916L19.2954 33.1612C18.9006 33.5042 18.6631 33.9804 18.6264 34.5021C18.5899 35.0238 18.7587 35.5285 19.1017 35.9233L19.5715 36.464L19.384 36.6298C19.3806 36.6329 19.3771 36.636 19.3738 36.6391C19.0115 36.9761 18.4114 36.9675 18.0581 36.6222C17.7552 36.2891 17.7457 35.782 18.0374 35.4383C18.228 35.2138 18.2105 34.8795 17.9976 34.6761C17.7846 34.4727 17.45 34.4704 17.2343 34.671L17.1746 34.7266C16.8122 35.0636 16.212 35.055 15.8588 34.7097C15.5517 34.3721 15.5452 33.8611 15.845 33.5168C16.0394 33.2936 16.025 32.9573 15.8123 32.7516C15.5997 32.5459 15.2631 32.5426 15.0464 32.7441L15.0298 32.7596C14.6675 33.0966 14.0673 33.088 13.7141 32.7427C13.4105 32.4089 13.4015 31.9012 13.6945 31.5574C13.8664 31.3557 13.8721 31.0607 13.7082 30.8525C13.5443 30.6443 13.2563 30.5806 13.0199 30.7002C12.6536 30.8856 12.2089 30.7991 11.9384 30.4899C11.6236 30.1302 11.6635 29.5617 12.0266 29.2197L12.6248 28.6899L14.491 26.9964C14.7185 26.7899 14.7356 26.4381 14.5291 26.2106C14.3226 25.983 13.9708 25.9659 13.7433 26.1725L11.8821 27.8614L11.2832 28.3918C11.2799 28.3949 11.2765 28.3979 11.2732 28.4009C10.9664 28.6863 10.7659 29.0475 10.6744 29.4301L10.6702 29.4277C9.65023 28.8496 8.76055 28.0932 8.02583 27.1795L7.70865 26.785C7.65747 26.7214 7.59294 26.6697 7.51957 26.6338L0.822528 23.3577C0.546516 23.2228 0.213314 23.337 0.0783124 23.6129C-0.0566893 23.8889 0.0576171 24.2221 0.333555 24.3571L6.91926 27.5788L7.15878 27.8767C7.98199 28.9004 8.97878 29.7479 10.1216 30.3956L10.8147 30.7885C10.8891 30.9426 10.9841 31.089 11.1011 31.2226C11.4394 31.6091 11.8993 31.8401 12.3825 31.8963C12.3135 32.4666 12.4893 33.0595 12.9063 33.5078C12.9109 33.5127 12.9156 33.5175 12.9202 33.5223C13.3503 33.9523 13.9364 34.1516 14.5108 34.1164C14.5136 34.6044 14.6942 35.0912 15.051 35.4747C15.0556 35.4796 15.0602 35.4845 15.0649 35.4892C15.5093 35.9336 16.1204 36.1315 16.7129 36.0791C16.7272 36.5511 16.907 37.0184 17.2501 37.3872C17.2547 37.3921 17.2593 37.3969 17.264 37.4017C17.662 37.7997 18.1937 37.9998 18.7258 37.9998C19.2299 37.9998 19.7344 37.8201 20.1259 37.4587L20.3244 37.2831C20.6334 37.5327 21.0102 37.6824 21.4147 37.7107C21.4615 37.714 21.5081 37.7156 21.5546 37.7156C22.026 37.7156 22.4766 37.5478 22.8358 37.2355L22.9161 37.1658C23.3306 36.8056 23.5562 36.308 23.5852 35.7989C23.6397 35.8034 23.6943 35.8063 23.749 35.8063C24.2045 35.8063 24.662 35.6487 25.032 35.3271L25.1121 35.2575C25.5266 34.8973 25.7522 34.3998 25.7812 33.8906C25.8357 33.8951 25.8903 33.898 25.945 33.898C26.4005 33.898 26.858 33.7404 27.228 33.4189L27.3081 33.3493C27.7028 33.0062 27.9404 32.5301 27.977 32.0083C27.9776 31.9996 27.9777 31.991 27.9782 31.9823C28.0323 31.9868 28.0867 31.9897 28.1411 31.9897C28.5966 31.9897 29.054 31.8321 29.424 31.5106L29.5041 31.4409C29.9268 31.0736 30.153 30.5635 30.1747 30.0437C31.1332 29.5521 31.9618 28.8363 32.5874 27.9544L32.8991 27.515L37.6663 25.1863C37.9423 25.0516 38.0569 24.7185 37.9219 24.4424ZM22.1865 36.3261L22.1063 36.3959C21.9359 36.5439 21.7186 36.6168 21.4928 36.601C21.2676 36.5852 21.0619 36.4826 20.9139 36.3123L19.9417 35.1935C19.7935 35.0231 19.7207 34.8051 19.7365 34.5799C19.7523 34.3547 19.8549 34.1491 20.0253 34.001L20.1054 33.9314C20.2651 33.7926 20.4626 33.7245 20.6592 33.7245C20.8956 33.7245 21.1309 33.823 21.2978 34.015L22.27 35.1339C22.5757 35.4856 22.5382 36.0205 22.1865 36.3261ZM24.3823 34.4179L24.3023 34.4875C23.9505 34.7932 23.4156 34.7557 23.1098 34.4039L22.1376 33.285C21.8319 32.9332 21.8694 32.3983 22.221 32.0927L22.3013 32.023C22.6531 31.7173 23.188 31.7548 23.4938 32.1066L24.466 33.2254C24.7717 33.5772 24.7342 34.1122 24.3823 34.4179ZM26.8672 31.9307C26.8514 32.1559 26.7488 32.3615 26.5783 32.5097L26.4983 32.5792C26.1465 32.8849 25.6116 32.8475 25.3058 32.4956L24.3336 31.3768C24.0278 31.0249 24.0654 30.49 24.4171 30.1843L24.4973 30.1146C24.6525 29.9799 24.8469 29.9074 25.0505 29.9074C25.0705 29.9074 25.0907 29.9081 25.1109 29.9095C25.3361 29.9253 25.5417 30.0279 25.6898 30.1982L26.662 31.3171C26.8101 31.4876 26.883 31.7054 26.8672 31.9307ZM28.7745 30.6012L28.6943 30.6709C28.3425 30.9766 27.8076 30.9391 27.5018 30.5873L26.5296 29.4685C26.3815 29.2981 26.3086 29.0802 26.3244 28.855C26.3402 28.6298 26.4427 28.4242 26.6133 28.276L26.6933 28.2065C27.0451 27.9008 27.5801 27.9382 27.8858 28.29L28.858 29.4089C29.1638 29.7606 29.1262 30.2956 28.7745 30.6012Z" fill="black"/>
<path d="M16.988 15.5678L18.5279 16.1326C18.6692 16.1844 18.8178 16.2104 18.9665 16.2104C19.115 16.2104 19.2636 16.1844 19.4051 16.1326L20.9448 15.5678C22.3385 15.0568 23.5833 14.1896 24.5447 13.0601C25.4953 11.9433 26.1497 10.5941 26.437 9.1586C26.4973 8.8573 26.302 8.56422 26.0007 8.50392C25.6991 8.44346 25.4063 8.63899 25.346 8.94023C24.8359 11.4888 23.0027 13.628 20.5618 14.5231L19.0219 15.0878C18.9861 15.101 18.9467 15.101 18.9109 15.0878L17.3711 14.5231C14.4217 13.4416 12.4402 10.6042 12.4402 7.46285V2.62756C12.4402 2.4962 12.5338 2.38263 12.6627 2.35756L19.0007 1.12318L25.2707 2.35637C25.3993 2.38167 25.4927 2.49523 25.4927 2.6263V6.67821C25.4927 6.98545 25.7418 7.23453 26.049 7.23453C26.3562 7.23453 26.6053 6.98545 26.6053 6.67821V2.62623C26.6053 1.96487 26.1343 1.39222 25.4854 1.26464L19.1086 0.0104592C19.038 -0.00341183 18.9655 -0.00348601 18.8949 0.0102367L12.45 1.26538C11.7995 1.39208 11.3275 1.96494 11.3275 2.62756V7.463C11.3275 11.0691 13.6023 14.3263 16.988 15.5678Z" fill="black"/>
<path d="M19.1065 2.27794C19.036 2.264 18.9635 2.264 18.8928 2.27772L14.0028 3.23C13.7415 3.28089 13.5529 3.5098 13.5529 3.77609V7.4629C13.5529 10.1395 15.2413 12.557 17.7542 13.4786L18.7749 13.8529C18.8367 13.8756 18.9016 13.8868 18.9664 13.8868C19.0313 13.8868 19.0962 13.8755 19.1579 13.8529L20.1787 13.4786C22.6917 12.5571 24.3801 10.1395 24.3801 7.4629V3.77268C24.3801 3.50683 24.192 3.27814 23.9311 3.22681L19.1065 2.27794ZM23.2674 7.4629C23.2674 9.6747 21.8722 11.6724 19.7956 12.4339L18.9665 12.7381L18.1373 12.434C16.0607 11.6724 14.6655 9.67477 14.6655 7.46297V4.23458L18.9987 3.39074L23.2674 4.23027V7.4629Z" fill="black"/>
<path d="M17.5388 8.49376C17.3149 8.28324 16.9629 8.29415 16.7523 8.51794C16.5419 8.7418 16.5527 9.09384 16.7765 9.30436L17.6745 10.1488C17.778 10.2461 17.9144 10.2998 18.0555 10.2998C18.0673 10.2998 18.0792 10.2994 18.0911 10.2987C18.2447 10.2889 18.3873 10.2158 18.4852 10.097L21.3937 6.56293C21.589 6.32572 21.5549 5.97508 21.3177 5.77985C21.0805 5.58462 20.7298 5.61866 20.5346 5.85588L18.0037 8.93103L17.5388 8.49376Z" fill="black"/>
</g>
<defs>
<clipPath id="clip0">
<rect width="38" height="38" fill="white"/>
</clipPath>
</defs>
</svg>
