<svg width="31" height="31" viewBox="0 0 31 31" fill="none" xmlns="http://www.w3.org/2000/svg">
<path d="M22.9579 2.90336H18.2872C17.758 1.70407 16.5705 0.930054 15.2595 0.930054C13.9483 0.930054 12.7608 1.70407 12.2316 2.90336H7.56067C5.79876 2.9054 4.37106 4.33332 4.36902 6.09524V26.8007C4.37106 28.5626 5.79876 29.9906 7.56067 29.9926H22.9579C24.7198 29.9906 26.1477 28.5626 26.1498 26.8007V6.09524C26.1477 4.33332 24.7198 2.9054 22.9579 2.90336ZM12.7572 4.35648C13.0982 4.35648 13.3934 4.11922 13.4667 3.78568C13.6452 2.97329 14.3992 2.38318 15.2595 2.38318C16.1198 2.38318 16.8736 2.97329 17.0521 3.78568C17.1252 4.11922 17.4204 4.35648 17.7618 4.35648H19.2025V4.99404C19.2013 5.95379 18.4237 6.73144 17.464 6.73258H13.0549C12.0949 6.73144 11.3172 5.95379 11.3161 4.99404V4.35648H12.7572ZM24.6967 26.8007C24.6958 27.7607 23.9179 28.5386 22.9579 28.5395H7.56067C6.60093 28.5386 5.82328 27.7607 5.82214 26.8007V6.09524C5.82328 5.13527 6.60093 4.35762 7.56067 4.35648H9.86297V4.99404C9.86501 6.75596 11.2929 8.18366 13.0549 8.1857H17.464C19.2259 8.18366 20.6536 6.75596 20.6556 4.99404V4.35648H22.9579C23.9179 4.35762 24.6955 5.13527 24.6967 6.09524V26.8007Z" fill="black"/>
<path d="M18.8554 14.3544L14.0855 19.0116L11.6634 16.6474C11.3784 16.3685 10.922 16.3719 10.6407 16.6544C10.3596 16.9371 10.3585 17.3934 10.6385 17.6773L10.6482 17.6868L13.5776 20.5472C13.8601 20.8228 14.3108 20.8228 14.593 20.5472L19.8704 15.3945C20.1558 15.1139 20.1603 14.6554 19.881 14.3691C19.6013 14.0828 19.1431 14.0765 18.8554 14.3548V14.3544Z" fill="black"/>
</svg>
