<svg width="17" height="13" viewBox="0 0 17 13" fill="none" xmlns="http://www.w3.org/2000/svg">
<path d="M15.5059 0.523438H1.49414C0.668611 0.523438 0 1.1962 0 2.01758V10.9824C0 11.8087 0.673525 12.4766 1.49414 12.4766H15.5059C16.3245 12.4766 17 11.8115 17 10.9824V2.01758C17 1.19766 16.334 0.523438 15.5059 0.523438ZM15.2966 1.51953C14.9913 1.82317 9.73791 7.04895 9.55652 7.22937C9.2743 7.5116 8.8991 7.66699 8.5 7.66699C8.1009 7.66699 7.7257 7.51157 7.44255 7.22844C7.32056 7.10709 2.1251 1.93902 1.70339 1.51953H15.2966ZM0.996094 10.7797V2.22095L5.30048 6.50266L0.996094 10.7797ZM1.70402 11.4805L6.00671 7.20513L6.73914 7.93371C7.20949 8.40407 7.83484 8.66308 8.5 8.66308C9.16516 8.66308 9.79051 8.40407 10.2599 7.93464L10.9933 7.20513L15.296 11.4805H1.70402ZM16.0039 10.7797L11.6995 6.50266L16.0039 2.22095V10.7797Z" fill="black"/>
</svg>
