<svg width="60" height="61" viewBox="0 0 60 61" fill="none" xmlns="http://www.w3.org/2000/svg">
<path d="M18.4002 0.0187988H41.5789C46.4216 0.8428 49.0989 3.09081 49.9682 7.40815C50.8749 11.9042 49.6749 16.0268 45.9682 18.6268C45.0082 19.3015 43.9282 19.6775 42.7522 20.0028C45.3469 20.8028 47.4776 22.0988 48.8856 24.4882C50.2936 26.8775 50.4056 29.3842 50.1362 31.9682C49.6669 36.4402 45.6669 39.9682 40.8029 40.3362C35.7549 40.7175 31.3842 37.7389 30.1095 33.0509C30.2205 33.6143 30.26 34.1895 30.2269 34.7629C30.2269 40.0962 30.2909 45.4136 30.2029 50.7362C30.1442 54.2642 28.5842 57.0216 25.5122 58.8856C24.2909 59.6243 22.9335 59.7656 21.6002 60.0003H17.8668C14.1095 59.3176 11.4375 57.2882 10.2802 53.6002C8.57349 48.1522 10.8668 42.4002 16.4908 40.3335C16.7284 40.2982 16.9442 40.1755 17.0962 39.9895C11.8775 38.0135 9.33616 34.2589 9.8295 28.6695C10.1122 25.4695 12.2775 21.5788 17.3362 20.0642C16.2695 19.6002 15.2535 19.2642 14.3575 18.6562C12.8476 17.6594 11.6252 16.2844 10.8123 14.668C9.99937 13.0517 9.62426 11.2505 9.72435 9.44404C9.82444 7.63755 10.3962 5.88885 11.3827 4.37221C12.3693 2.85557 13.736 1.62396 15.3468 0.800134C16.3202 0.266799 17.3948 0.309466 18.4002 0.0187988Z" fill="#EB5B31"/>
<path d="M21.6001 60.0002C21.8668 59.4669 22.3868 59.7495 22.7761 59.6482C27.0854 58.5362 29.8828 55.0029 29.9174 50.3975C29.9601 44.3122 29.9174 38.2268 30.0161 32.0722C30.8161 35.1522 32.4161 37.5922 35.3495 38.9548C36.7114 39.612 38.1974 39.972 39.7091 40.0111C41.2207 40.0502 42.7234 39.7674 44.1175 39.1815C48.3415 37.5015 50.5335 33.2402 49.8215 28.1708C49.5375 26.0907 48.5558 24.1687 47.037 22.7192C45.5183 21.2698 43.5525 20.3788 41.4615 20.1921C41.5495 19.8961 41.7628 19.8268 42.0561 19.7788C46.1548 19.1095 49.0908 16.1175 49.8028 11.9175C50.7015 6.61344 47.8615 1.83476 43.0348 0.432095C42.5521 0.290762 41.9681 0.522762 41.5815 0.0320944C47.4481 0.0320944 53.3148 0.0320944 59.1655 0.0134277C59.8322 0.0134277 59.9842 0.165428 59.9842 0.829429C59.9646 20.2801 59.97 39.7371 60.0002 59.2002C60.0002 60.1175 59.6162 60.0002 59.0375 60.0002C46.5575 59.9895 34.0783 59.9895 21.6001 60.0002Z" fill="#FEFEFE"/>
<path d="M18.4 0.0186667C16.12 0.725335 13.968 1.63467 12.384 3.56001C11.3164 4.82554 10.5803 6.33672 10.2419 7.95749C9.90358 9.57827 9.97362 11.2577 10.4457 12.8447C10.9179 14.4317 11.7773 15.8763 12.9465 17.0486C14.1158 18.2208 15.5583 19.0839 17.144 19.56C17.528 19.68 18.0774 19.5787 18.2667 20.1227C13.7547 21.1894 10.5787 24.4881 10.1307 28.6027C9.55735 33.8827 11.7147 36.9654 18.1067 40.0001C18 40.4134 17.5974 40.2881 17.3467 40.3654C12.84 41.7681 10.0747 45.4134 10.056 50.0161C10.0374 54.8508 12.4854 58.1228 17.2374 59.6295C17.4667 59.7015 17.7974 59.6295 17.872 59.9921C12.1974 59.9921 6.52001 59.9921 0.845335 60.0055C0.237334 60.0001 0 59.9415 0 59.2135C0.0266667 39.7396 0.0266667 20.2685 0 0.800002C0 0.0613335 0.240001 0 0.845335 0C6.69868 0.0266667 12.552 0.0186667 18.4 0.0186667Z" fill="#FEFEFE"/>
<path d="M29.9307 27.9201C29.9307 25.5761 29.9573 23.2321 29.9307 20.8881C29.9307 20.1894 30.128 19.9814 30.824 19.9947C33.112 20.0347 35.4 19.9947 37.7573 20.1041C33.656 21.2507 30.9867 23.7334 29.9307 27.9201Z" fill="#FAFAFA"/>
</svg>
