<svg width="14" height="15" viewBox="0 0 14 15" fill="none" xmlns="http://www.w3.org/2000/svg">
<path d="M6.68768 0C3.98116 0 1.7793 2.46609 1.7793 5.4974C1.7793 6.88992 2.56271 8.85738 4.10786 11.3452C5.23725 13.1638 6.34804 14.5711 6.39484 14.6301L6.68768 15L6.98063 14.6301C7.02733 14.5711 8.13812 13.1638 9.26761 11.3452C10.8127 8.85738 11.5962 6.88992 11.5962 5.4974C11.5962 2.46609 9.39421 0 6.68768 0ZM8.62909 10.8373C7.86571 12.0673 7.09415 13.1259 6.68768 13.666C6.28224 13.1274 5.51354 12.0728 4.75067 10.8444C3.31904 8.53935 2.5623 6.69033 2.5623 5.4974C2.5623 2.94971 4.41297 0.876961 6.68768 0.876961C8.9625 0.876961 10.8131 2.94971 10.8131 5.4974C10.8131 6.68907 10.0579 8.53558 8.62909 10.8373Z" fill="black"/>
<path d="M6.68692 2.03178C5.08956 2.03178 3.79004 3.48724 3.79004 5.2763C3.79004 7.06535 5.08956 8.52093 6.68692 8.52093C8.28439 8.52093 9.58391 7.06535 9.58391 5.2763C9.58391 3.48724 8.28439 2.03178 6.68692 2.03178ZM6.68692 7.64397C5.52136 7.64397 4.57304 6.58184 4.57304 5.2763C4.57304 3.97087 5.52136 2.90874 6.68692 2.90874C7.85259 2.90874 8.80091 3.97087 8.80091 5.2763C8.80091 6.58184 7.85259 7.64397 6.68692 7.64397Z" fill="black"/>
</svg>
