<svg width="40" height="40" viewBox="0 0 40 40" fill="none" xmlns="http://www.w3.org/2000/svg">
<path d="M37.5 10H32.375C31.75 7.125 29.25 5 26.25 5C23.25 5 20.75 7.125 20.125 10H2.5V12.5H20.125C20.75 15.375 23.25 17.5 26.25 17.5C29.25 17.5 31.75 15.375 32.375 12.5H37.5V10ZM26.25 15C24.125 15 22.5 13.375 22.5 11.25C22.5 9.125 24.125 7.5 26.25 7.5C28.375 7.5 30 9.125 30 11.25C30 13.375 28.375 15 26.25 15Z" fill="#F15A24"/>
<path d="M2.5 30H7.625C8.25 32.875 10.75 35 13.75 35C16.75 35 19.25 32.875 19.875 30H37.5V27.5H19.875C19.25 24.625 16.75 22.5 13.75 22.5C10.75 22.5 8.25 24.625 7.625 27.5H2.5V30ZM13.75 25C15.875 25 17.5 26.625 17.5 28.75C17.5 30.875 15.875 32.5 13.75 32.5C11.625 32.5 10 30.875 10 28.75C10 26.625 11.625 25 13.75 25Z" fill="#F15A24"/>
</svg>
