<svg width="34" height="34" viewBox="0 0 34 34" fill="none" xmlns="http://www.w3.org/2000/svg">
<path d="M21.6898 8.40064C22.6052 8.40064 23.3499 7.65589 23.3499 6.74048C23.3499 5.82507 22.6052 5.08026 21.6898 5.08026C20.7744 5.08026 20.0296 5.82507 20.0296 6.74048C20.0296 7.11435 20.1539 7.45966 20.3633 7.73751L17.6356 11.5493C17.4729 11.4958 17.2992 11.4665 17.1187 11.4665C16.6825 11.4665 16.2852 11.6359 15.9887 11.912L14.1705 10.8803C14.1948 10.7677 14.2078 10.6509 14.2078 10.5312C14.2078 9.61581 13.463 8.87106 12.5476 8.87106C11.6322 8.87106 10.8875 9.61581 10.8875 10.5312C10.8875 10.6509 10.9005 10.7677 10.9247 10.8803L9.1066 11.912C8.81003 11.6359 8.41279 11.4665 7.97656 11.4665C7.06115 11.4665 6.31641 12.2114 6.31641 13.1268C6.31641 14.0422 7.06115 14.787 7.97656 14.787C8.89197 14.787 9.63672 14.0422 9.63672 13.1268C9.63672 13.007 9.6237 12.8903 9.59947 12.7777L11.4176 11.746C11.7142 12.0221 12.1114 12.1915 12.5476 12.1915C12.9839 12.1915 13.381 12.0221 13.6777 11.7461L15.4958 12.7777C15.4716 12.8904 15.4586 13.0071 15.4586 13.1268C15.4586 14.0422 16.2033 14.7871 17.1187 14.7871C18.0342 14.7871 18.7789 14.0422 18.7789 13.1268C18.7789 12.7529 18.6546 12.4075 18.4452 12.1297L21.1729 8.3179C21.3356 8.37129 21.5093 8.40064 21.6898 8.40064ZM21.6898 6.07635C22.056 6.07635 22.3538 6.37425 22.3538 6.74048C22.3538 7.10665 22.056 7.40455 21.6898 7.40455C21.3236 7.40455 21.0257 7.10665 21.0257 6.74048C21.0257 6.37425 21.3236 6.07635 21.6898 6.07635ZM7.97636 13.7908C7.6102 13.7908 7.3123 13.4929 7.3123 13.1266C7.3123 12.7604 7.6102 12.4625 7.97636 12.4625C8.34253 12.4625 8.64043 12.7604 8.64043 13.1266C8.64043 13.4929 8.34253 13.7908 7.97636 13.7908ZM12.5475 11.1953C12.1813 11.1953 11.8834 10.8974 11.8834 10.5312C11.8834 10.165 12.1813 9.86709 12.5475 9.86709C12.9137 9.86709 13.2116 10.165 13.2116 10.5312C13.2116 10.8974 12.9137 11.1953 12.5475 11.1953ZM17.1186 13.7908C16.7525 13.7908 16.4546 13.4929 16.4546 13.1266C16.4546 12.7604 16.7525 12.4625 17.1186 12.4625C17.4849 12.4625 17.7828 12.7604 17.7828 13.1266C17.7828 13.4929 17.4848 13.7908 17.1186 13.7908Z" fill="white"/>
<path d="M27.8107 24.5973H24.3253H5.34092H1.40881C1.18123 24.5973 0.996094 24.4122 0.996094 24.1846V3.63726C0.996094 3.40969 1.18123 3.22455 1.40881 3.22455H3.75667C4.03172 3.22455 4.25471 3.00162 4.25471 2.7265C4.25471 2.45138 4.03172 2.22845 3.75667 2.22845H1.40881C0.631988 2.22845 0 2.86044 0 3.63726V24.1846C0 24.9614 0.631988 25.5934 1.40881 25.5934H4.84288V26.6895C4.84288 27.3139 5.35088 27.822 5.9753 27.822H10.9607L8.61389 32.4039C8.48851 32.6487 8.58527 32.9488 8.8301 33.0742C8.90275 33.1115 8.98032 33.1291 9.05675 33.1291C9.23771 33.1291 9.41229 33.0301 9.50041 32.8579L12.0798 27.822H17.5864L20.1658 32.8579C20.254 33.0301 20.4285 33.1291 20.6094 33.1291C20.6859 33.1291 20.7634 33.1113 20.8361 33.0742C21.0809 32.9488 21.1778 32.6487 21.0523 32.4039L18.7055 27.822H23.6909C24.3153 27.822 24.8233 27.314 24.8233 26.6895V25.5934H27.8107C28.0857 25.5934 28.3087 25.3705 28.3087 25.0954C28.3087 24.8203 28.0857 24.5973 27.8107 24.5973ZM23.8272 26.6895C23.8272 26.7647 23.7661 26.8259 23.6909 26.8259H5.9753C5.90013 26.8259 5.83897 26.7647 5.83897 26.6895V25.5934H23.8272V26.6895Z" fill="white"/>
<path d="M5.74902 3.22455H12.5671H17.0994H28.2575C28.4851 3.22455 28.6702 3.4097 28.6702 3.63727V8.37276C28.6702 8.64789 28.8932 8.87081 29.1683 8.87081C29.4433 8.87081 29.6663 8.64789 29.6663 8.37276V3.63727C29.6663 2.86045 29.0343 2.22846 28.2575 2.22846H17.5975V1.2495C17.5975 0.560535 17.037 0 16.3479 0H13.3186C12.6296 0 12.069 0.560535 12.069 1.2495V2.22846H5.74902C5.47397 2.22846 5.25098 2.45139 5.25098 2.72651C5.25098 3.00163 5.47397 3.22455 5.74902 3.22455ZM13.0651 1.2495C13.0651 1.10978 13.1788 0.996094 13.3186 0.996094H16.3479C16.4876 0.996094 16.6014 1.10978 16.6014 1.2495V2.22846H13.0652V1.2495H13.0651Z" fill="white"/>
<path d="M6.96606 17.3333C6.69101 17.3333 6.46802 17.5562 6.46802 17.8313V22.2322C6.46802 22.5073 6.69101 22.7302 6.96606 22.7302H8.9866C9.26166 22.7302 9.48465 22.5073 9.48465 22.2322V17.8313C9.48465 17.5562 9.26166 17.3333 8.9866 17.3333H6.96606ZM8.48856 21.7342H7.46411V18.3294H8.48856V21.7342Z" fill="white"/>
<path d="M11.5374 14.788C11.2623 14.788 11.0393 15.011 11.0393 15.2861V22.2322C11.0393 22.5073 11.2623 22.7303 11.5374 22.7303H13.5579C13.833 22.7303 14.0559 22.5073 14.0559 22.2322V15.2861C14.0559 15.011 13.833 14.788 13.5579 14.788H11.5374ZM13.0599 21.7342H12.0355V15.7841H13.0599V21.7342Z" fill="white"/>
<path d="M16.1084 17.3333C15.8333 17.3333 15.6104 17.5562 15.6104 17.8313V22.2322C15.6104 22.5073 15.8333 22.7302 16.1084 22.7302H18.1289C18.404 22.7302 18.627 22.5073 18.627 22.2322V17.8313C18.627 17.5562 18.404 17.3333 18.1289 17.3333H16.1084ZM17.6309 21.7342H16.6064V18.3294H17.6309V21.7342Z" fill="white"/>
<path d="M20.6794 20.2721C20.4044 20.2721 20.1814 20.495 20.1814 20.7701V22.2322C20.1814 22.5073 20.4044 22.7303 20.6794 22.7303H22.7C22.975 22.7303 23.198 22.5073 23.198 22.2322C23.198 21.9571 22.975 21.7342 22.7 21.7342H21.1775V20.7701C21.1775 20.495 20.9545 20.2721 20.6794 20.2721Z" fill="white"/>
<path d="M33.746 25.0658L30.8887 20.1168C31.6126 19.3452 32.1398 18.4024 32.4213 17.3516C32.8714 15.6721 32.6404 13.9179 31.771 12.4121C29.9763 9.30339 25.9872 8.23472 22.8788 10.0293C19.7702 11.824 18.7014 15.8131 20.4961 18.9216C21.3655 20.4274 22.7693 21.5045 24.4487 21.9546C25.0096 22.1049 25.5786 22.1792 26.1441 22.1792C26.6383 22.1792 27.1296 22.1224 27.6101 22.0099L30.4668 26.959C30.817 27.5658 31.4546 27.9053 32.1095 27.9052C32.4304 27.9052 32.7556 27.8236 33.053 27.652C33.6371 27.3149 34 26.6862 34 26.0114C34 25.6808 33.9122 25.3539 33.746 25.0658ZM24.7065 20.9925C23.284 20.6113 22.095 19.699 21.3586 18.4236C19.8386 15.7907 20.7439 12.4121 23.3767 10.892C24.2429 10.3919 25.1894 10.1545 26.1242 10.1545C28.0311 10.1545 29.8883 11.1434 30.9083 12.9101C31.6446 14.1855 31.8403 15.6713 31.4591 17.0938C31.0779 18.5164 30.1656 19.7053 28.8902 20.4416C27.6148 21.178 26.1291 21.3735 24.7065 20.9925ZM32.5551 26.7893C32.1266 27.0367 31.5768 26.8894 31.3295 26.4611L28.5811 21.6995C28.8566 21.5871 29.1263 21.4556 29.3884 21.3043C29.6506 21.1529 29.899 20.9844 30.1341 20.8019L32.8833 25.5637C32.9622 25.7006 33.0039 25.8554 33.0039 26.0115C33.0039 26.3314 32.8319 26.6295 32.5551 26.7893Z" fill="white"/>
<path d="M30.6494 17.0699C31.001 15.9373 30.9172 14.7247 30.4136 13.6556C30.2963 13.4067 29.9996 13.3001 29.7508 13.4173C29.5019 13.5345 29.3952 13.8312 29.5125 14.0801C29.9098 14.9234 29.9757 15.8803 29.6981 16.7745C29.4189 17.6736 28.8158 18.4282 27.9999 18.8993C27.1365 19.3979 26.1305 19.5302 25.1675 19.2722C24.2045 19.0141 23.3995 18.3965 22.9011 17.5331C21.872 15.7506 22.4849 13.4633 24.2673 12.4343C25.5705 11.6819 27.1879 11.7825 28.3879 12.6904C28.6073 12.8564 28.9196 12.8132 29.0856 12.5938C29.2515 12.3744 29.2083 12.062 28.9889 11.8961C27.4688 10.7459 25.4199 10.6186 23.7692 11.5716C22.6754 12.2031 21.8929 13.2228 21.566 14.4428C21.2391 15.6629 21.4069 16.9372 22.0384 18.031C22.6699 19.1249 23.6897 19.9073 24.9097 20.2343C25.3171 20.3435 25.7305 20.3975 26.1412 20.3975C26.9606 20.3975 27.7693 20.1826 28.4979 19.7619C29.5316 19.1652 30.2957 18.2092 30.6494 17.0699Z" fill="white"/>
</svg>
