<svg width="40" height="40" viewBox="0 0 40 40" fill="none" xmlns="http://www.w3.org/2000/svg">
<path d="M8.51625 3.00732L6.75625 4.76482L9.375 7.38232L11.1325 5.62482L8.515 3.00732H8.51625ZM31.485 3.00732L28.8663 5.62482L30.625 7.38232L33.2425 4.76607L31.4837 3.00732H31.485ZM20 3.78732C19.5875 3.79232 19.17 3.81607 18.75 3.86732C18.7375 3.86732 18.725 3.86482 18.7125 3.86732C13.6425 4.44857 9.6075 8.54482 8.90625 13.5923C8.34625 17.6548 10.0212 21.3386 12.8125 23.7111C13.9543 24.6855 14.7265 26.0227 15 27.4986V34.9986H17.85C18.285 35.7448 19.0788 36.2486 20 36.2486C20.9212 36.2486 21.715 35.7448 22.15 34.9986H25V29.9986H25.1175V28.5136C25.1175 26.6811 26.07 24.8336 27.6175 23.3973C29.6875 21.3248 31.25 18.3811 31.25 14.9998C31.25 8.82482 26.1675 3.72982 20 3.78732ZM20 6.28732C24.8312 6.21982 28.75 10.1748 28.75 14.9998C28.75 17.6173 27.5375 19.9223 25.8587 21.5998L25.8988 21.6398C24.2305 23.1782 23.1517 25.2508 22.8487 27.4998H17.3812C17.1062 25.3573 16.1875 23.2836 14.4513 21.7961C12.2425 19.9211 10.9263 17.0961 11.3663 13.9061C11.9125 9.96857 15.1075 6.80232 19.0225 6.36857C19.3457 6.32351 19.6712 6.2968 19.9975 6.28857L20 6.28732ZM2.5 14.9998V17.4998H6.25V14.9998H2.5ZM33.75 14.9998V17.4998H37.5V14.9998H33.75ZM9.375 25.1173L6.7575 27.7336L8.51625 29.4923L11.1312 26.8748L9.375 25.1173ZM30.625 25.1173L28.8675 26.8748L31.4837 29.4923L33.2425 27.7336L30.625 25.1173ZM17.5 29.9998H22.5V32.4998H17.5V29.9998Z" fill="#EB5B31"/>
</svg>
