<svg width="242" height="63" viewBox="0 0 242 63" fill="none" xmlns="http://www.w3.org/2000/svg">
<path d="M6.14037 41.209H0.0494385V57.6133H6.14037C10.6101 57.6133 13.783 53.934 13.783 49.4112C13.783 44.8883 10.6101 41.209 6.14037 41.209ZM6.14037 56.4416H1.27689V42.3808H6.14037C9.96168 42.3808 12.5787 45.521 12.5787 49.4112C12.5787 53.3013 9.96168 56.4416 6.14037 56.4416Z" fill="black"/>
<path d="M21.8555 45.6382C18.3121 45.6382 15.8572 48.3097 15.8572 51.7546C15.8572 55.2933 18.3816 57.8711 21.9481 57.8711C24.2409 57.8711 26.0473 56.8165 26.9969 55.223L25.9779 54.6137C25.3062 55.8557 23.8704 56.7462 21.9713 56.7462C19.3311 56.7462 17.3394 55.012 17.0615 52.3639H27.5527C27.5527 52.1765 27.5759 51.989 27.5759 51.8015C27.5759 48.591 25.3757 45.6382 21.8555 45.6382ZM21.8555 46.7631C24.1251 46.7631 26.1168 48.3566 26.3716 51.2156H17.0615C17.2931 48.6144 19.2153 46.7631 21.8555 46.7631Z" fill="black"/>
<path d="M30.6175 48.9659C30.6175 47.5598 31.8913 46.7631 33.3967 46.7631C34.6704 46.7631 35.8747 47.3255 36.3611 48.5441L37.3338 47.9817C36.7085 46.5521 35.2726 45.6382 33.3967 45.6382C31.0344 45.6382 29.4596 47.1146 29.4596 48.9659C29.4596 53.1841 36.4769 51.3562 36.4769 54.5433C36.4769 56.0197 35.1105 56.7462 33.4893 56.7462C31.7523 56.7462 30.5017 55.9494 30.0849 54.684L29.089 55.2698C29.6448 56.7696 31.1734 57.8711 33.4893 57.8711C35.9674 57.8711 37.6348 56.465 37.6348 54.5433C37.6348 50.2548 30.6175 52.1061 30.6175 48.9659Z" fill="black"/>
<path d="M40.9032 43.0604C41.4127 43.0604 41.8296 42.6386 41.8296 42.123C41.8296 41.6309 41.4127 41.209 40.9032 41.209C40.3937 41.209 39.9768 41.6309 39.9768 42.123C39.9768 42.6386 40.3937 43.0604 40.9032 43.0604ZM40.3242 57.6133H41.4822V45.896H40.3242V57.6133Z" fill="black"/>
<path d="M55.3339 45.896V48.6144C54.3844 46.8099 52.6011 45.6382 50.3546 45.6382C47.0428 45.6382 44.3563 48.2863 44.3563 51.7546C44.3563 55.223 47.0428 57.8711 50.3546 57.8711C52.6011 57.8711 54.3844 56.6993 55.3339 54.8949V57.0509C55.3339 59.7224 53.6201 61.4331 50.7252 61.4331C48.1776 61.4331 46.8807 60.402 46.2786 59.16L45.2595 59.7458C46.0933 61.4566 48.0155 62.558 50.7252 62.558C53.9212 62.558 56.4919 60.566 56.4919 57.0509V45.896H55.3339ZM50.4241 56.7462C47.6681 56.7462 45.5143 54.5433 45.5143 51.7546C45.5143 48.9659 47.6681 46.7631 50.4241 46.7631C53.1801 46.7631 55.3339 48.9659 55.3339 51.7546C55.3339 54.5433 53.1801 56.7462 50.4241 56.7462Z" fill="black"/>
<path d="M65.3721 45.6382C63.5888 45.6382 62.1066 46.3881 61.2265 48.1223V45.896H60.0686V57.6133H61.2265V51.4265C61.2265 48.2629 63.0098 46.7631 65.2794 46.7631C67.4564 46.7631 68.6839 48.1691 68.6839 50.3251V57.6133H69.865V50.3251C69.865 47.4895 68.128 45.6382 65.3721 45.6382Z" fill="black"/>
<path d="M92.0762 57.168L89.8529 54.8011C90.455 53.77 90.8487 52.5514 91.0572 51.2625L89.9687 50.6298C89.8065 51.9187 89.4591 53.0201 88.996 53.8872L83.924 48.5207C82.9282 47.4895 82.1639 46.5521 82.1639 45.2164C82.1639 43.4119 83.5998 42.1464 85.522 42.1464C87.1664 42.1464 88.5096 43.1073 88.996 44.6539L90.015 44.0446C89.3202 42.0996 87.5369 40.9513 85.4989 40.9513C83.0903 40.9513 80.9133 42.5683 80.9133 45.2632C80.9133 46.6459 81.4691 47.6067 82.2102 48.4738C80.1027 49.4112 78.9911 51.2156 78.9911 53.2544C78.9911 56.09 81.0754 57.8711 84.2714 57.8711C86.4253 57.8711 88.0233 57.0743 89.1118 55.8088L90.9877 57.8008L92.0762 57.168ZM84.2251 56.6759C81.7934 56.6759 80.2417 55.387 80.2417 53.231C80.2417 51.7312 81.0291 50.1611 83.0671 49.3877L88.278 54.9183C87.259 56.09 85.8694 56.6759 84.2251 56.6759Z" fill="black"/>
<path d="M106.988 41.209H100.897V57.6133H106.988C111.458 57.6133 114.631 53.934 114.631 49.4112C114.631 44.8883 111.458 41.209 106.988 41.209ZM106.988 56.4416H102.124V42.3808H106.988C110.809 42.3808 113.426 45.521 113.426 49.4112C113.426 53.3013 110.809 56.4416 106.988 56.4416Z" fill="black"/>
<path d="M122.703 45.6382C119.16 45.6382 116.705 48.3097 116.705 51.7546C116.705 55.2933 119.229 57.8711 122.796 57.8711C125.088 57.8711 126.895 56.8165 127.844 55.223L126.825 54.6137C126.154 55.8557 124.718 56.7462 122.819 56.7462C120.179 56.7462 118.187 55.012 117.909 52.3639H128.4C128.4 52.1765 128.423 51.989 128.423 51.8015C128.423 48.591 126.223 45.6382 122.703 45.6382ZM122.703 46.7631C124.973 46.7631 126.964 48.3566 127.219 51.2156H117.909C118.141 48.6144 120.063 46.7631 122.703 46.7631Z" fill="black"/>
<path d="M139.177 45.896L134.8 56.3947L130.446 45.896H129.195L134.105 57.6133H135.518L140.405 45.896H139.177Z" fill="black"/>
<path d="M147.265 45.6382C143.721 45.6382 141.266 48.3097 141.266 51.7546C141.266 55.2933 143.791 57.8711 147.357 57.8711C149.65 57.8711 151.457 56.8165 152.406 55.223L151.387 54.6137C150.715 55.8557 149.28 56.7462 147.381 56.7462C144.74 56.7462 142.749 55.012 142.471 52.3639H152.962C152.962 52.1765 152.985 51.989 152.985 51.8015C152.985 48.591 150.785 45.6382 147.265 45.6382ZM147.265 46.7631C149.534 46.7631 151.526 48.3566 151.781 51.2156H142.471C142.702 48.6144 144.625 46.7631 147.265 46.7631Z" fill="black"/>
<path d="M155.692 57.6133H156.85V40.506H155.692V57.6133Z" fill="black"/>
<path d="M165.722 57.8711C169.08 57.8711 171.79 55.223 171.79 51.7546C171.79 48.2863 169.08 45.6382 165.722 45.6382C162.341 45.6382 159.631 48.2863 159.631 51.7546C159.631 55.223 162.341 57.8711 165.722 57.8711ZM165.722 56.7462C162.966 56.7462 160.812 54.5433 160.812 51.7546C160.812 48.9659 162.966 46.7631 165.722 46.7631C168.478 46.7631 170.609 48.9659 170.609 51.7546C170.609 54.5433 168.478 56.7462 165.722 56.7462Z" fill="black"/>
<path d="M180.714 45.6382C178.467 45.6382 176.684 46.8099 175.735 48.6144V45.896H174.577V62.3002H175.735V54.8949C176.684 56.6993 178.467 57.8711 180.714 57.8711C184.026 57.8711 186.712 55.223 186.712 51.7546C186.712 48.2863 184.026 45.6382 180.714 45.6382ZM180.644 56.7462C177.888 56.7462 175.735 54.5433 175.735 51.7546C175.735 48.9659 177.888 46.7631 180.644 46.7631C183.4 46.7631 185.554 48.9659 185.554 51.7546C185.554 54.5433 183.4 56.7462 180.644 56.7462Z" fill="black"/>
<path d="M201.871 45.6382C200.319 45.6382 198.837 46.3881 198.003 48.0285C197.401 46.4818 196.081 45.6382 194.39 45.6382C192.908 45.6382 191.518 46.2944 190.662 47.9114V45.896H189.504V57.6133H190.662V51.075C190.662 48.0754 192.352 46.7631 194.251 46.7631C196.035 46.7631 197.216 47.9582 197.216 50.1845V57.6133H198.374V51.075C198.374 48.0754 199.902 46.7631 201.848 46.7631C203.654 46.7631 204.928 47.9582 204.928 50.1845V57.6133H206.086V50.1845C206.086 47.2552 204.326 45.6382 201.871 45.6382Z" fill="black"/>
<path d="M214.572 45.6382C211.028 45.6382 208.574 48.3097 208.574 51.7546C208.574 55.2933 211.098 57.8711 214.664 57.8711C216.957 57.8711 218.764 56.8165 219.713 55.223L218.694 54.6137C218.023 55.8557 216.587 56.7462 214.688 56.7462C212.047 56.7462 210.056 55.012 209.778 52.3639H220.269C220.269 52.1765 220.292 51.989 220.292 51.8015C220.292 48.591 218.092 45.6382 214.572 45.6382ZM214.572 46.7631C216.841 46.7631 218.833 48.3566 219.088 51.2156H209.778C210.009 48.6144 211.932 46.7631 214.572 46.7631Z" fill="black"/>
<path d="M228.302 45.6382C226.519 45.6382 225.037 46.3881 224.157 48.1223V45.896H222.999V57.6133H224.157V51.4265C224.157 48.2629 225.94 46.7631 228.21 46.7631C230.387 46.7631 231.614 48.1691 231.614 50.3251V57.6133H232.795V50.3251C232.795 47.4895 231.058 45.6382 228.302 45.6382Z" fill="black"/>
<path d="M242 47.0443V45.896H238.549V42.6151L237.368 42.9666V45.896H234.821V47.0443H237.368V54.6605C237.368 57.3321 238.966 58.082 242 57.6133V56.5587C239.638 56.7696 238.549 56.7228 238.549 54.6605V47.0443H242Z" fill="black"/>
<path d="M27.6844 34.1282H18.1381L8.54398 19.1882V34.1282H0V0.715976H8.54398V14.7491L17.6607 0.715976H27.2071L16.6106 16.9448L27.6844 34.1282Z" fill="#F15A24"/>
<path d="M47.5341 34.1282L41.7108 23.3408H38.656V34.1282H30.112V0.715976H43.4769C46.8818 0.715976 49.7298 1.81381 52.0209 4.00947C54.3438 6.1733 55.5053 8.92584 55.5053 12.2671C55.5053 14.2718 54.9962 16.1174 53.9779 17.8039C52.9596 19.4586 51.5754 20.7792 49.8252 21.7657L56.6986 34.1282H47.5341ZM38.656 8.59171V16.0856H43.3814C44.4315 16.1174 45.2907 15.7833 45.959 15.0832C46.6272 14.3832 46.9613 13.4763 46.9613 12.3625C46.9613 11.2488 46.6272 10.3419 45.959 9.64181C45.2907 8.94175 44.4315 8.59171 43.3814 8.59171H38.656Z" fill="#F15A24"/>
<path d="M87.8842 29.8323C84.5112 33.1736 80.3744 34.8442 75.474 34.8442C70.5735 34.8442 66.4208 33.1736 63.016 29.8323C59.6429 26.4593 57.9564 22.3225 57.9564 17.4221C57.9564 12.5216 59.6429 8.40079 63.016 5.05956C66.4208 1.68652 70.5735 0 75.474 0C80.3744 0 84.5112 1.68652 87.8842 5.05956C91.2891 8.40079 92.9915 12.5216 92.9915 17.4221C92.9915 22.3225 91.2891 26.4593 87.8842 29.8323ZM69.0302 23.9613C70.7485 25.6479 72.8964 26.4911 75.474 26.4911C78.0515 26.4911 80.1994 25.6479 81.9177 23.9613C83.6361 22.243 84.4953 20.0632 84.4953 17.4221C84.4953 14.7809 83.6361 12.6171 81.9177 10.9306C80.1994 9.21223 78.0515 8.35306 75.474 8.35306C72.8964 8.35306 70.7485 9.21223 69.0302 10.9306C67.3118 12.6171 66.4527 14.7809 66.4527 17.4221C66.4527 20.0632 67.3118 22.243 69.0302 23.9613Z" fill="#F15A24"/>
<path d="M113.088 34.8442C108.061 34.8442 103.892 33.1895 100.583 29.8801C97.3051 26.5388 95.6663 22.3862 95.6663 17.4221C95.6663 12.458 97.3051 8.32123 100.583 5.01183C103.892 1.67061 108.061 0 113.088 0C116.111 0 118.912 0.715977 121.489 2.14793C124.067 3.57988 126.087 5.50506 127.551 7.92347L120.153 12.1716C119.516 10.9942 118.562 10.0714 117.289 9.40315C116.048 8.70309 114.648 8.35306 113.088 8.35306C110.415 8.35306 108.252 9.19632 106.597 10.8828C104.974 12.5375 104.163 14.7173 104.163 17.4221C104.163 20.1269 104.974 22.3225 106.597 24.0091C108.252 25.6638 110.415 26.4911 113.088 26.4911C114.648 26.4911 116.048 26.157 117.289 25.4887C118.562 24.7887 119.516 23.834 120.153 22.6248L127.551 26.9207C126.087 29.3709 124.067 31.312 121.489 32.744C118.944 34.1441 116.143 34.8442 113.088 34.8442Z" fill="#F15A24"/>
<path d="M158.294 34.1282H148.748L139.154 19.1882V34.1282H130.61V0.715976H139.154V14.7491L148.27 0.715976H157.817L147.22 16.9448L158.294 34.1282Z" fill="#F15A24"/>
<path d="M160.006 40.4765H180.387V38.1854H160.006V40.4765Z" fill="#F15A24"/>
<path d="M198.517 0.715976C203.132 0.715976 206.982 2.32294 210.069 5.53688C213.187 8.719 214.746 12.6807 214.746 17.4221C214.746 22.1634 213.187 26.1411 210.069 29.355C206.982 32.5371 203.132 34.1282 198.517 34.1282H184.914V0.715976H198.517ZM198.517 25.8706C200.84 25.8706 202.734 25.1069 204.198 23.5795C205.661 22.0202 206.393 19.9678 206.393 17.4221C206.393 14.8764 205.661 12.8398 204.198 11.3124C202.734 9.75319 200.84 8.97357 198.517 8.97357H193.697V25.8706H198.517Z" fill="#F15A24"/>
<path d="M229.288 34.8442C225.756 34.8442 222.829 34.0964 220.506 32.6008C218.183 31.1052 216.56 29.0845 215.637 26.5388L222.94 22.2907C224.181 25.2501 226.377 26.7298 229.527 26.7298C232.136 26.7298 233.441 25.982 233.441 24.4864C233.441 23.4999 232.693 22.7044 231.198 22.0998C230.561 21.8452 229.161 21.4156 226.997 20.811C223.942 19.92 221.524 18.679 219.742 17.088C217.96 15.4651 217.069 13.2217 217.069 10.3578C217.069 7.27114 218.167 4.77317 220.363 2.8639C222.59 0.954635 225.358 0 228.668 0C231.468 0 233.95 0.652334 236.114 1.957C238.278 3.26167 239.933 5.15503 241.078 7.63708L233.918 11.8375C232.868 9.35542 231.134 8.1144 228.716 8.1144C227.697 8.1144 226.918 8.32123 226.377 8.73491C225.868 9.14858 225.613 9.67363 225.613 10.3101C225.613 11.0419 225.995 11.6625 226.759 12.1716C227.554 12.6807 229.082 13.2694 231.341 13.9377C232.964 14.415 234.268 14.8605 235.255 15.2742C236.241 15.6878 237.323 16.2924 238.501 17.088C239.678 17.8517 240.553 18.854 241.126 20.0951C241.699 21.3043 241.985 22.7362 241.985 24.3909C241.985 27.6685 240.824 30.2301 238.501 32.0757C236.178 33.9214 233.107 34.8442 229.288 34.8442Z" fill="#F15A24"/>
</svg>
