<svg width="74" height="74" viewBox="0 0 74 74" fill="none" xmlns="http://www.w3.org/2000/svg">
<path d="M69.375 19.6562H57.8125V11.5625C57.8094 8.80354 56.712 6.15847 54.7612 4.20759C52.8103 2.25671 50.1652 1.15935 47.4062 1.15625H45.0938C43.6882 1.15586 42.2973 1.44108 41.0053 1.99461C39.7134 2.54813 38.5474 3.35841 37.5781 4.37626C36.6089 3.35841 35.4429 2.54813 34.1509 1.99461C32.859 1.44108 31.468 1.15586 30.0625 1.15625H27.75C24.991 1.15935 22.346 2.25671 20.3951 4.20759C18.4442 6.15847 17.3468 8.80354 17.3438 11.5625V19.6562H4.625C4.31834 19.6562 4.02425 19.7781 3.80741 19.9949C3.59057 20.2117 3.46875 20.5058 3.46875 20.8125V71.6875C3.46875 71.9942 3.59057 72.2883 3.80741 72.5051C4.02425 72.7219 4.31834 72.8438 4.625 72.8438H69.375C69.6817 72.8438 69.9758 72.7219 70.1926 72.5051C70.4094 72.2883 70.5312 71.9942 70.5312 71.6875V20.8125C70.5312 20.5058 70.4094 20.2117 70.1926 19.9949C69.9758 19.7781 69.6817 19.6562 69.375 19.6562ZM61.2812 54.3438C61.5879 54.3438 61.882 54.2219 62.0988 54.0051C62.3157 53.7883 62.4375 53.4942 62.4375 53.1875V21.9688H68.2188V68.6101L62.1515 61.6761C62.0429 61.5521 61.9092 61.4527 61.7591 61.3845C61.609 61.3164 61.4461 61.2812 61.2812 61.2812C61.1164 61.2812 60.9535 61.3164 60.8034 61.3845C60.6533 61.4527 60.5196 61.5521 60.411 61.6761L54.3438 68.6101V21.9688H60.125V53.1875C60.125 53.4942 60.2468 53.7883 60.4637 54.0051C60.6805 54.2219 60.9746 54.3438 61.2812 54.3438ZM66.8269 70.5312H55.7356L61.2812 64.1934L66.8269 70.5312ZM45.0938 3.46875H47.4062C49.5521 3.47116 51.6094 4.32467 53.1267 5.84202C54.6441 7.35937 55.4976 9.41664 55.5 11.5625V19.6562H40.4688V11.5625C40.4706 9.68908 39.9635 7.85035 39.0016 6.24274C39.7597 5.37164 40.6958 4.67326 41.7467 4.19472C42.7976 3.71619 43.939 3.46863 45.0938 3.46875ZM37.5781 8.5642C37.9604 9.51758 38.1567 10.5353 38.1562 11.5625V19.6562H37V11.5625C36.9996 10.5353 37.1958 9.51758 37.5781 8.5642ZM19.6562 11.5625C19.6587 9.41664 20.5122 7.35937 22.0295 5.84202C23.5469 4.32467 25.6041 3.47116 27.75 3.46875H30.0625C31.2173 3.46863 32.3586 3.71619 33.4096 4.19472C34.4605 4.67326 35.3966 5.37164 36.1546 6.24274C35.1927 7.85035 34.6856 9.68908 34.6875 11.5625V19.6562H19.6562V11.5625ZM5.78125 70.5312V21.9688H17.3438V25.4375C17.3438 25.7442 17.4656 26.0383 17.6824 26.2551C17.8992 26.4719 18.1933 26.5938 18.5 26.5938C18.8067 26.5938 19.1008 26.4719 19.3176 26.2551C19.5344 26.0383 19.6562 25.7442 19.6562 25.4375V21.9688H38.1562V25.4375C38.1562 25.7442 38.2781 26.0383 38.4949 26.2551C38.7117 26.4719 39.0058 26.5938 39.3125 26.5938C39.6192 26.5938 39.9133 26.4719 40.1301 26.2551C40.3469 26.0383 40.4688 25.7442 40.4688 25.4375V21.9688H52.0312V70.5312H5.78125Z" fill="black"/>
<path d="M17.3438 52.0312H41.625C41.8296 52.0312 42.0306 51.9769 42.2073 51.8739C42.3841 51.7708 42.5304 51.6227 42.6312 51.4447C42.732 51.2666 42.7838 51.065 42.7812 50.8604C42.7786 50.6558 42.7218 50.4555 42.6165 50.2801L35.679 38.7176C35.5763 38.5464 35.4309 38.4047 35.2572 38.3063C35.0834 38.2079 34.8872 38.1562 34.6875 38.1562C34.4878 38.1562 34.2916 38.2079 34.1178 38.3063C33.9441 38.4047 33.7987 38.5464 33.696 38.7176L32.375 40.9197L28.1634 33.9004C28.0606 33.7291 27.9153 33.5875 27.7416 33.4891C27.5678 33.3907 27.3716 33.339 27.1719 33.339C26.9722 33.339 26.7759 33.3907 26.6022 33.4891C26.4284 33.5875 26.2831 33.7291 26.1804 33.9004L16.3523 50.2801C16.247 50.4555 16.1902 50.6558 16.1876 50.8604C16.185 51.065 16.2368 51.2666 16.3376 51.4447C16.4384 51.6227 16.5847 51.7708 16.7614 51.8739C16.9382 51.9769 17.1391 52.0312 17.3438 52.0312ZM34.6875 41.5599L39.5828 49.7187H37.6547L33.7235 43.1668L34.6875 41.5599ZM27.1719 36.7426L34.9578 49.7187H19.386L27.1719 36.7426Z" fill="black"/>
<path d="M39.8906 28.9062C39.0902 28.9063 38.3078 29.1436 37.6423 29.5883C36.9768 30.033 36.4581 30.665 36.1518 31.4045C35.8455 32.1439 35.7654 32.9576 35.9215 33.7426C36.0777 34.5277 36.4631 35.2487 37.0291 35.8147C37.595 36.3807 38.3161 36.7661 39.1011 36.9223C39.8861 37.0784 40.6998 36.9983 41.4393 36.692C42.1788 36.3857 42.8108 35.867 43.2555 35.2015C43.7002 34.536 43.9375 33.7535 43.9375 32.9531C43.9363 31.8802 43.5095 30.8516 42.7509 30.0929C41.9922 29.3342 40.9636 28.9075 39.8906 28.9062ZM39.8906 34.6875C39.5476 34.6875 39.2123 34.5858 38.9271 34.3952C38.6418 34.2046 38.4195 33.9338 38.2883 33.6168C38.157 33.2999 38.1227 32.9512 38.1896 32.6148C38.2565 32.2783 38.4217 31.9693 38.6642 31.7267C38.9068 31.4842 39.2158 31.319 39.5523 31.2521C39.8887 31.1852 40.2374 31.2195 40.5543 31.3508C40.8713 31.482 41.1421 31.7043 41.3327 31.9896C41.5233 32.2748 41.625 32.6101 41.625 32.9531C41.6245 33.413 41.4416 33.8538 41.1165 34.179C40.7913 34.5041 40.3505 34.687 39.8906 34.6875Z" fill="black"/>
<path d="M42.7812 54.3438H17.3438C17.0371 54.3438 16.743 54.4656 16.5262 54.6824C16.3093 54.8992 16.1875 55.1933 16.1875 55.5C16.1875 55.8067 16.3093 56.1008 16.5262 56.3176C16.743 56.5344 17.0371 56.6562 17.3438 56.6562H42.7812C43.0879 56.6562 43.382 56.5344 43.5988 56.3176C43.8157 56.1008 43.9375 55.8067 43.9375 55.5C43.9375 55.1933 43.8157 54.8992 43.5988 54.6824C43.382 54.4656 43.0879 54.3438 42.7812 54.3438Z" fill="black"/>
<path d="M38.1562 57.8125H17.3438C17.0371 57.8125 16.743 57.9343 16.5262 58.1512C16.3093 58.368 16.1875 58.6621 16.1875 58.9688C16.1875 59.2754 16.3093 59.5695 16.5262 59.7863C16.743 60.0032 17.0371 60.125 17.3438 60.125H38.1562C38.4629 60.125 38.757 60.0032 38.9738 59.7863C39.1907 59.5695 39.3125 59.2754 39.3125 58.9688C39.3125 58.6621 39.1907 58.368 38.9738 58.1512C38.757 57.9343 38.4629 57.8125 38.1562 57.8125Z" fill="black"/>
<path d="M42.7812 57.8125H41.625C41.3183 57.8125 41.0242 57.9343 40.8074 58.1512C40.5906 58.368 40.4688 58.6621 40.4688 58.9688C40.4688 59.2754 40.5906 59.5695 40.8074 59.7863C41.0242 60.0032 41.3183 60.125 41.625 60.125H42.7812C43.0879 60.125 43.382 60.0032 43.5988 59.7863C43.8157 59.5695 43.9375 59.2754 43.9375 58.9688C43.9375 58.6621 43.8157 58.368 43.5988 58.1512C43.382 57.9343 43.0879 57.8125 42.7812 57.8125Z" fill="black"/>
<path d="M60.125 57.8125C60.125 58.1192 60.2468 58.4133 60.4637 58.6301C60.6805 58.8469 60.9746 58.9688 61.2812 58.9688C61.5879 58.9688 61.882 58.8469 62.0988 58.6301C62.3157 58.4133 62.4375 58.1192 62.4375 57.8125V56.6562C62.4375 56.3496 62.3157 56.0555 62.0988 55.8387C61.882 55.6218 61.5879 55.5 61.2812 55.5C60.9746 55.5 60.6805 55.6218 60.4637 55.8387C60.2468 56.0555 60.125 56.3496 60.125 56.6562V57.8125Z" fill="black"/>
</svg>
