<svg width="70" height="70" viewBox="0 0 70 70" fill="none" xmlns="http://www.w3.org/2000/svg">
<g clip-path="url(#clip0)">
<path d="M35.007 0.0335613H64.3617C67.9062 0.0335613 69.993 2.1233 69.993 5.66459C69.993 21.0477 69.993 36.4288 69.993 51.8078C69.993 55.3334 67.8969 57.4388 64.3617 57.4388C57.723 57.4388 51.0875 57.4545 44.4519 57.4201C43.6448 57.4201 43.4414 57.6734 43.4164 58.4274C43.3698 59.9183 43.7427 61.3924 44.4926 62.6819C45.159 63.8582 45.8285 65.0345 46.4698 66.2264C47.5022 68.1534 46.4104 70.0023 44.2392 70.0054C38.0949 70.0054 31.9526 70.0054 25.8124 70.0054C23.6225 70.0054 22.5244 68.1722 23.5568 66.2514C24.1825 65.0595 24.8707 63.8895 25.5371 62.7101C26.3137 61.3756 26.6864 59.8444 26.6102 58.3022C26.5789 57.6265 26.363 57.4326 25.6716 57.4357C18.9579 57.4576 12.2441 57.4357 5.53039 57.4357C3.99743 57.4357 2.64905 57.029 1.55407 55.9435C1.05135 55.449 0.655814 54.8564 0.392081 54.2025C0.128348 53.5486 0.00207062 52.8474 0.0211127 52.1425C0.0211127 47.2998 0.0211127 42.4592 0.0211127 37.6207C0.0367551 27.025 0.0993249 16.4324 -0.000786773 5.83978C-0.0352002 2.3329 2.41754 -0.0352625 5.80569 -0.000850579C15.5384 0.0992567 25.2712 0.0335613 35.007 0.0335613ZM2.07653 50.3187C2.07653 50.7723 2.10469 51.1102 2.07653 51.4449C1.84815 53.788 3.20905 55.4054 5.97776 55.3897C20.5002 55.3178 35.0227 55.3585 49.5451 55.3553C54.6195 55.3553 59.695 55.3553 64.7715 55.3553C66.3889 55.3553 67.5871 54.445 67.8531 52.9277C67.9907 52.105 67.8781 51.2416 67.8781 50.3312H67.0052H20.7036C20.4436 50.3486 20.1826 50.3392 19.9246 50.3031C19.6738 50.2747 19.4445 50.1482 19.2867 49.9512C19.129 49.7543 19.0558 49.5028 19.083 49.2519C19.0778 49.0137 19.1651 48.7828 19.3268 48.6077C19.4884 48.4326 19.7117 48.3271 19.9496 48.3134C20.4159 48.2774 20.8838 48.268 21.3512 48.2853H67.9125V10.3008H67.0303C64.5838 10.3008 62.1373 10.3008 59.6908 10.3008C58.7992 10.3008 58.3174 9.93792 58.2955 9.2841C58.2736 8.63027 58.7617 8.2361 59.7127 8.22359H60.0256C62.3699 8.22359 64.7121 8.22359 67.0522 8.22359C67.3306 8.22359 67.609 8.19543 67.9594 8.17979C67.9594 7.24128 67.9594 6.35596 67.9594 5.47689C67.9594 3.36838 66.6549 2.07325 64.5494 2.07012H44.039C44.039 3.57173 44.039 4.96697 44.039 6.36222C44.039 7.75746 44.4957 8.22046 45.9161 8.22359C48.7004 8.22359 51.4848 8.22359 54.2692 8.22359C55.0732 8.22359 55.4924 8.57709 55.5205 9.20589C55.5487 9.83469 55.1013 10.2789 54.2692 10.282C51.3534 10.282 48.4376 10.3133 45.525 10.282C43.4289 10.257 42.0211 8.81172 41.9711 6.72198C41.9492 5.81163 41.9711 4.90128 41.9523 3.99093C41.9523 2.54876 41.4642 2.06699 40.0283 2.06699C36.6474 2.06699 33.2645 2.06699 29.8794 2.06699C28.5623 2.06699 28.0555 2.58942 28.0524 3.92836C28.0524 4.91692 28.0743 5.90861 28.0305 6.89404C28.0186 7.76332 27.6781 8.59588 27.0774 9.22438C26.4767 9.85288 25.6604 10.2308 24.7925 10.282C24.3264 10.3196 23.854 10.3071 23.3878 10.3071H3.08703C2.77419 10.3071 2.43944 10.3352 2.12659 10.3509V48.279H14.5686C14.8281 48.2649 15.0881 48.2649 15.3476 48.279C15.4727 48.279 15.5966 48.304 15.7119 48.3525C15.8272 48.401 15.9317 48.4721 16.0191 48.5616C16.1066 48.6511 16.1752 48.7571 16.2211 48.8735C16.2669 48.9899 16.2891 49.1143 16.2861 49.2394C16.2986 49.3713 16.2838 49.5043 16.2426 49.6302C16.2014 49.7561 16.1347 49.8721 16.0466 49.971C15.9585 50.07 15.851 50.1497 15.7307 50.2052C15.6104 50.2607 15.48 50.2908 15.3476 50.2937C15.1143 50.3109 14.8801 50.3109 14.6468 50.2937H2.07653V50.3187ZM28.6312 57.467C28.6312 57.6922 28.6312 57.8174 28.6312 57.9425C28.8082 60.032 28.3127 62.1234 27.2171 63.9114C26.6383 64.8968 26.0971 65.9073 25.5433 66.9083C24.9896 67.9094 25.049 67.9501 26.1315 67.9501H44.0014C44.9775 67.9501 45.0338 67.85 44.5489 66.9772C44.1485 66.2483 43.7605 65.51 43.3226 64.7873C41.9585 62.5975 41.1326 60.2543 41.4079 57.6171C41.4079 57.5765 41.361 57.5295 41.3109 57.4482L28.6312 57.467ZM2.12972 8.16728C2.34245 8.18917 2.52078 8.22671 2.69597 8.22671C9.90402 8.22671 17.11 8.22671 24.3138 8.22671C25.4839 8.22671 25.9657 7.71992 25.9907 6.5593C26.0251 5.08585 26.0595 3.6124 26.094 2.11079C26.1346 2.11079 26.0564 2.09202 25.9813 2.09202C19.0111 2.09202 12.0376 2.09202 5.06424 2.09202C4.34959 2.08914 3.65877 2.34881 3.12298 2.82172C2.58719 3.29462 2.24375 3.94782 2.15787 4.65727C2.02022 5.80224 2.12972 6.97537 2.12972 8.16728Z" fill="black"/>
<path d="M57.608 12.3445C58.9126 12.3977 60.1578 13.1391 60.8304 14.6657C61.169 15.3503 61.2874 16.1229 61.1692 16.8774C61.051 17.632 60.702 18.3314 60.1703 18.8796C59.6759 19.4794 59.0037 19.9065 58.2508 20.0994C57.4978 20.2922 56.7031 20.2409 55.9812 19.9526C55.7713 19.8485 55.5316 19.8206 55.3033 19.8736C55.075 19.9267 54.8723 20.0575 54.7298 20.2436C51.2697 23.7348 47.794 27.2115 44.3026 30.6735C43.9365 31.0364 43.7989 31.2992 44.0179 31.8654C44.3204 32.6499 44.3556 33.5123 44.1181 34.3189C43.8805 35.1255 43.3834 35.8311 42.7039 36.3264C42.0384 36.8143 41.2382 37.0844 40.4132 37.0995C39.5881 37.1146 38.7786 36.8741 38.0956 36.4109C37.3971 35.9428 36.8743 35.2555 36.6098 34.4573C36.3452 33.6592 36.354 32.7957 36.6346 32.003C36.8693 31.3461 36.7222 30.9926 36.2655 30.539C33.7064 28.0363 31.1754 25.4773 28.6476 22.9308C28.3347 22.618 28.0626 22.4397 27.5714 22.6587C26.6328 23.0779 25.6567 22.9965 24.6775 22.6587C24.5314 22.6225 24.379 22.6198 24.2317 22.6506C24.0844 22.6815 23.9459 22.7452 23.8266 22.837C21.3884 25.2333 18.9732 27.6484 16.581 30.0822C16.4918 30.2028 16.4311 30.342 16.4035 30.4894C16.3758 30.6368 16.382 30.7885 16.4214 30.9332C17.2129 33.2262 16.0773 35.5381 13.7935 36.1982C13.2912 36.3338 12.767 36.3684 12.2512 36.3C11.7354 36.2316 11.2384 36.0616 10.7888 35.7997C10.3392 35.5378 9.94607 35.1893 9.63215 34.7744C9.31823 34.3595 9.08976 33.8865 8.95999 33.3827C8.81608 32.8502 8.78804 32.2931 8.87775 31.7489C8.96745 31.2048 9.17282 30.6861 9.47999 30.2281C9.78717 29.77 10.189 29.3831 10.6584 29.0935C11.1278 28.8039 11.6539 28.6184 12.2011 28.5493C12.8612 28.4524 13.5714 28.7214 14.2628 28.7652C14.5618 28.8081 14.8663 28.7415 15.12 28.5775C17.554 26.1916 19.9629 23.7828 22.3468 21.351C22.4341 21.2289 22.4928 21.0888 22.5188 20.941C22.5448 20.7932 22.5373 20.6415 22.497 20.497C21.9057 18.6982 22.3843 16.9213 23.8016 15.8764C24.4806 15.3598 25.3103 15.0801 26.1636 15.0801C27.0168 15.0801 27.8465 15.3598 28.5256 15.8764C29.9303 16.9025 30.4027 18.7138 29.8145 20.5032C29.7776 20.6472 29.7736 20.7976 29.8029 20.9433C29.8321 21.089 29.8938 21.2262 29.9834 21.3448C32.6302 24.0351 35.2967 26.7036 37.983 29.3502C38.0993 29.4432 38.2352 29.5084 38.3805 29.5409C38.5258 29.5734 38.6766 29.5724 38.8214 29.5379C39.8013 29.1563 40.8887 29.1563 41.8686 29.5379C42.0025 29.5727 42.1426 29.5764 42.2781 29.5488C42.4137 29.5211 42.5411 29.4628 42.6507 29.3784C46.2735 25.7901 49.8681 22.1832 53.4878 18.5824C53.8319 18.2446 53.7287 17.9818 53.5942 17.622C52.6275 15.0661 54.514 12.3539 57.608 12.3445ZM42.194 33.195C42.1943 32.7083 42.0055 32.2406 41.6676 31.8904C41.3297 31.5402 40.8689 31.335 40.3826 31.3179C39.8808 31.3154 39.3983 31.5113 39.0403 31.8628C38.6822 32.2144 38.4776 32.6932 38.471 33.195C38.5298 33.6471 38.7511 34.0624 39.0936 34.3633C39.4362 34.6642 39.8765 34.8301 40.3325 34.8301C40.7885 34.8301 41.2288 34.6642 41.5714 34.3633C41.9139 34.0624 42.1352 33.6471 42.194 33.195ZM57.3202 14.4061C57.0721 14.399 56.8251 14.4412 56.5935 14.5302C56.3618 14.6192 56.1501 14.7533 55.9706 14.9246C55.7911 15.096 55.6473 15.3012 55.5477 15.5285C55.448 15.7558 55.3944 16.0005 55.3899 16.2487C55.3897 16.7358 55.5788 17.204 55.9174 17.5543C56.256 17.9045 56.7175 18.1094 57.2045 18.1257C57.6973 18.141 58.1761 17.96 58.5354 17.6223C58.8948 17.2847 59.1053 16.8181 59.1207 16.3253C59.136 15.8325 58.9549 15.3537 58.6173 14.9944C58.2796 14.635 57.8131 14.4245 57.3202 14.4092V14.4061ZM12.8268 34.2648C13.3159 34.2518 13.7806 34.0483 14.1219 33.6977C14.4631 33.3471 14.654 32.8771 14.6538 32.3878C14.637 31.8889 14.4287 31.4156 14.0722 31.0661C13.7158 30.7166 13.2384 30.5178 12.7392 30.5108C12.2523 30.5271 11.7908 30.732 11.4522 31.0822C11.1136 31.4325 10.9244 31.9007 10.9247 32.3878C10.9221 32.6372 10.9697 32.8845 11.0647 33.115C11.1597 33.3456 11.3001 33.5546 11.4776 33.7298C11.6551 33.9049 11.866 34.0425 12.0978 34.1345C12.3296 34.2264 12.5775 34.2707 12.8268 34.2648ZM28.0062 19.0047C28.0149 18.7545 27.973 18.5051 27.8829 18.2715C27.7927 18.0379 27.6563 17.8249 27.4819 17.6453C27.3074 17.4658 27.0984 17.3233 26.8675 17.2265C26.6366 17.1297 26.3885 17.0806 26.1381 17.082C25.8877 17.0835 25.6402 17.1356 25.4104 17.2351C25.1807 17.3346 24.9734 17.4795 24.801 17.6612C24.6287 17.8428 24.4948 18.0574 24.4075 18.292C24.3201 18.5267 24.2811 18.7765 24.2927 19.0266C24.3018 19.5264 24.5082 20.0023 24.8669 20.3505C25.2256 20.6986 25.7075 20.8908 26.2074 20.8849C26.6942 20.871 27.1559 20.6658 27.4926 20.3139C27.8293 19.962 28.0138 19.4917 28.0062 19.0047Z" fill="black"/>
<path d="M56.3973 40.0428C57.4109 40.0428 58.4246 40.0428 59.4413 40.0428C60.8366 40.0585 61.4749 40.7029 61.4936 42.1138C61.4936 42.8677 61.5187 43.6248 61.4936 44.3787C61.453 45.5331 60.7678 46.2151 59.6165 46.2213C57.4829 46.238 55.3493 46.238 53.2156 46.2213C52.0581 46.2213 51.3667 45.5487 51.3135 44.3944C51.2791 43.5622 51.2822 42.727 51.3135 41.8917C51.3636 40.7186 52.0174 40.0773 53.1906 40.046C54.2637 40.0428 55.3305 40.0428 56.3973 40.0428ZM53.4159 44.1691H58.0147C59.507 44.1691 59.6603 43.9971 59.4069 42.5361C59.3819 42.3829 59.1848 42.142 59.0659 42.142C57.1888 42.1169 55.3336 42.1232 53.4159 42.1232V44.1691Z" fill="black"/>
<path d="M13.5495 46.2401C12.5077 46.2401 11.469 46.2589 10.421 46.2401C9.26345 46.2182 8.58457 45.5488 8.54389 44.3913C8.51678 43.557 8.51678 42.7228 8.54389 41.8886C8.58144 40.7593 9.23842 40.0804 10.3584 40.0648C12.5463 40.0377 14.7362 40.0377 16.9283 40.0648C17.1581 40.0511 17.3883 40.0847 17.6046 40.1635C17.8209 40.2423 18.0188 40.3647 18.186 40.523C18.3531 40.6814 18.486 40.8723 18.5764 41.0841C18.6668 41.2958 18.7128 41.5238 18.7115 41.7541C18.7631 42.6637 18.7631 43.5755 18.7115 44.4851C18.6552 45.5926 17.9607 46.2182 16.8344 46.237C15.7081 46.2558 14.6445 46.237 13.5589 46.237L13.5495 46.2401ZM13.6965 44.1817C14.269 44.1817 14.8415 44.1817 15.4141 44.1817C16.7906 44.1598 16.6467 44.4319 16.6874 42.8772C16.6874 42.2922 16.5059 42.1076 15.9271 42.1232C14.6288 42.1608 13.3274 42.1232 12.0259 42.1232C10.4617 42.1482 10.6306 41.776 10.6087 43.5904C10.6087 44.0284 10.762 44.1942 11.2031 44.1817C12.0322 44.166 12.8643 44.1817 13.6965 44.1817Z" fill="black"/>
<path d="M27.8686 46.2402C26.8299 46.2402 25.7881 46.2402 24.7401 46.2402C23.5044 46.2245 22.8255 45.5425 22.8067 44.2975C22.8067 43.4653 22.7879 42.6301 22.8067 41.7948C22.838 40.8031 23.4762 40.093 24.4648 40.0711C26.7277 40.0273 28.9907 40.0273 31.2536 40.0711C32.2735 40.0898 32.9242 40.8125 32.9586 41.8417C32.9899 42.6989 32.9868 43.556 32.9586 44.4163C32.9685 44.6585 32.9278 44.9 32.8391 45.1255C32.7504 45.3509 32.6156 45.5554 32.4433 45.7259C32.2711 45.8964 32.0652 46.029 31.8388 46.1154C31.6124 46.2018 31.3705 46.24 31.1285 46.2277C30.0366 46.2527 28.9385 46.2277 27.8498 46.2277L27.8686 46.2402ZM24.9591 42.1295C24.6462 44.1723 24.6462 44.1723 26.5233 44.1755H30.9283C30.9283 43.5498 30.9595 43.0461 30.9095 42.5393C30.8811 42.444 30.8288 42.3575 30.7576 42.2879C30.6865 42.2184 30.5988 42.1682 30.5028 42.142C28.6664 42.1201 26.8268 42.1295 24.9591 42.1295Z" fill="black"/>
<path d="M42.1095 46.2339C41.0677 46.2339 40.029 46.2339 38.981 46.2339C37.7484 46.2151 37.0601 45.5175 37.0476 44.2849C37.0476 43.4778 37.0288 42.6707 37.0476 41.8636C37.082 40.7968 37.7421 40.0867 38.8121 40.071C41.0208 40.0377 43.2316 40.0377 45.4445 40.071C46.5269 40.071 47.1776 40.7812 47.2058 41.8573C47.2308 42.7145 47.2308 43.5748 47.2058 44.432C47.1776 45.53 46.4894 46.2089 45.3725 46.2339C44.2556 46.2589 43.2013 46.2339 42.1095 46.2339ZM45.1723 44.1379V43.1525C45.1723 42.1264 45.1723 42.1264 44.1837 42.1264H40.3732H39.1718V44.1317L45.1723 44.1379Z" fill="black"/>
<path d="M10.2865 5.17739C10.2865 5.43386 10.1859 5.68012 10.0063 5.86322C9.82674 6.04632 9.58247 6.15165 9.32603 6.15656C9.18989 6.1712 9.05219 6.15675 8.92205 6.11418C8.79192 6.0716 8.67231 6.00186 8.57115 5.90958C8.47 5.8173 8.3896 5.70459 8.33528 5.5789C8.28097 5.45321 8.25397 5.31742 8.25609 5.18052C8.2472 5.05003 8.26463 4.91908 8.30734 4.79546C8.35005 4.67184 8.41717 4.55806 8.50472 4.46088C8.59227 4.36371 8.69846 4.28512 8.81697 4.22979C8.93549 4.17445 9.06392 4.1435 9.19463 4.13878C9.33533 4.13201 9.47594 4.15384 9.60797 4.20296C9.73999 4.25208 9.86067 4.32746 9.96273 4.42454C10.0648 4.52162 10.1461 4.63839 10.2017 4.76779C10.2574 4.89719 10.2862 5.03653 10.2865 5.17739Z" fill="black"/>
<path d="M13.415 6.16912C12.7893 6.13784 12.4232 5.85629 12.3638 5.23062C12.3523 5.09454 12.3683 4.95754 12.4109 4.82779C12.4535 4.69804 12.5218 4.57821 12.6118 4.47543C12.7017 4.37266 12.8114 4.28906 12.9344 4.22961C13.0573 4.17016 13.191 4.1361 13.3274 4.12944C13.6043 4.1269 13.8712 4.23343 14.0702 4.42602C14.2692 4.61861 14.3845 4.88179 14.3911 5.15867C14.3944 5.28938 14.3717 5.41945 14.3242 5.54129C14.2768 5.66314 14.2056 5.77432 14.1147 5.86837C14.0239 5.96241 13.9152 6.03744 13.7951 6.08907C13.6749 6.14071 13.5457 6.16792 13.415 6.16912Z" fill="black"/>
<path d="M5.25272 6.15974C4.58323 6.15974 4.08267 5.68423 4.13272 5.12738C4.13683 4.86211 4.2451 4.6091 4.43417 4.42297C4.62323 4.23684 4.87791 4.13253 5.14323 4.13257C5.2803 4.12884 5.41665 4.15368 5.5436 4.20549C5.67056 4.25729 5.78535 4.33495 5.88068 4.43351C5.97601 4.53207 6.04979 4.64938 6.09734 4.77799C6.14488 4.9066 6.16515 5.0437 6.15686 5.18056C6.1623 5.30434 6.14319 5.42798 6.10061 5.54433C6.05803 5.66069 5.99283 5.76746 5.90878 5.85849C5.82473 5.94952 5.72348 6.02301 5.61088 6.07472C5.49827 6.12642 5.37655 6.15532 5.25272 6.15974Z" fill="black"/>
</g>
<defs>
<clipPath id="clip0">
<rect width="70" height="70" fill="white"/>
</clipPath>
</defs>
</svg>
