<svg width="35" height="35" viewBox="0 0 35 35" fill="none" xmlns="http://www.w3.org/2000/svg">
<path d="M35 33.7012H0V34.8312H35V33.7012Z" fill="#6A6969"/>
<path d="M1.69492 24.1039V32.5714H6.20771V24.1039H1.69492ZM5.08468 31.4415H2.82484V25.2338H5.08468V31.4415Z" fill="#6A6969"/>
<path d="M8.47443 20.7141V32.5713H12.9872V20.7141H8.47443ZM11.8573 31.4414H9.59746V21.844H11.8573V31.4414Z" fill="#6A6969"/>
<path d="M15.247 17.3312V32.5714H19.7598V17.3312H15.247ZM18.6299 31.4484H16.37V18.4612H18.6299V31.4484Z" fill="#6A6969"/>
<path d="M22.0197 13.9415V32.5714H26.5325V13.9415H22.0197ZM25.4026 31.4415H23.1427V15.0714H25.4026V31.4415Z" fill="#6A6969"/>
<path d="M28.7923 10.5586V32.5714H33.3051V10.5586H28.7923ZM32.1752 31.4415H29.9153V11.6816H29.9222H32.1752V31.4415Z" fill="#6A6969"/>
<path d="M27.0286 0.168762L28.5099 2.73175L0.358307 18.964L2.05319 21.8991L30.2048 5.67368L31.6861 8.23668L34.0561 1.4916L27.0286 0.168762ZM31.438 5.54967L30.6181 4.13727L2.46657 20.3627L1.90161 19.3843L30.0601 3.15892L29.2402 1.73963L32.5542 2.3666L31.438 5.54967Z" fill="#6A6969"/>
</svg>
