<svg width="40" height="40" viewBox="0 0 40 40" fill="none" xmlns="http://www.w3.org/2000/svg">
<path d="M20.0277 0H37.659C39.184 0 39.9982 0.815999 39.9982 2.34086V30.9954C39.9982 32.515 39.1804 33.331 37.6537 33.3327H26.9399C26.4238 33.3327 26.4185 33.3417 26.656 33.8166C26.9613 34.4291 27.2791 35.0344 27.5684 35.654C27.6061 35.7652 27.6811 35.8601 27.7806 35.9226C27.8802 35.985 27.9982 36.0112 28.1148 35.9968C28.7094 35.9754 29.304 35.9843 29.9005 35.9968C31.1183 36.0111 32.0075 36.8699 31.9968 38.0198C31.9861 39.1697 31.1058 39.9964 29.9094 39.9964C23.3025 39.9964 16.6957 39.9964 10.0888 39.9964C8.89067 39.9964 8.00679 39.1483 7.99786 38.0163C7.98893 36.8842 8.87282 36.0146 10.0513 35.995C10.662 35.9825 11.2727 35.9754 11.8816 35.995C11.9964 36.0076 12.112 35.9807 12.2095 35.9187C12.3069 35.8567 12.3802 35.7633 12.4173 35.654C12.7137 35.0195 13.0268 34.3945 13.3565 33.7791C13.5351 33.4327 13.4815 33.3274 13.078 33.3292C10.0138 33.3381 6.94969 33.3292 3.88376 33.3292C3.30342 33.3292 2.72309 33.3292 2.14276 33.3292C0.849962 33.3113 0 32.4507 0 31.1615C0 21.4921 0 11.8222 0 2.15159C0 0.873136 0.892817 0 2.17312 0C8.12523 0 14.0768 0 20.0277 0ZM19.9884 1.34095H2.31061C1.5785 1.34095 1.34101 1.57486 1.34101 2.29622C1.34101 10.705 1.33744 19.112 1.3303 27.5172C1.3303 27.9314 1.46243 28.0136 1.83742 27.9993C2.55167 27.9743 3.26593 27.9904 3.98018 27.9993C4.13122 27.9903 4.28057 28.035 4.40181 28.1255C4.52305 28.216 4.60836 28.3465 4.64265 28.4939C4.68121 28.6163 4.68079 28.7477 4.64144 28.8699C4.6021 28.9921 4.52577 29.099 4.42302 29.176C4.23776 29.3038 4.01302 29.3614 3.78912 29.3385C3.10343 29.3385 2.41953 29.3492 1.73564 29.3277C1.41958 29.3188 1.32316 29.4295 1.33744 29.7366C1.36065 30.2277 1.33744 30.7187 1.34994 31.2097C1.36244 31.7007 1.63564 31.9721 2.13026 31.9989C2.29454 31.9989 2.45882 31.9989 2.62131 31.9989H37.709C38.4054 31.9989 38.6554 31.7472 38.6608 31.0633C38.6608 30.7669 38.6608 30.4687 38.6608 30.1705C38.6608 29.3349 38.6608 29.3331 37.8055 29.3331H7.18004C6.97182 29.3409 6.76332 29.3308 6.55685 29.3027C6.39787 29.2887 6.25093 29.2122 6.1482 29.09C6.04546 28.9679 5.99529 28.8101 6.00866 28.651C6.00403 28.4918 6.06074 28.3368 6.16708 28.2182C6.27342 28.0996 6.42126 28.0263 6.58006 28.0136C6.77211 27.9921 6.9655 27.9849 7.15861 27.9921C17.4855 27.9921 27.8124 27.9921 38.1394 27.9921C38.5179 27.9921 38.6751 27.9296 38.6751 27.4922C38.6596 19.1286 38.6554 10.7663 38.6626 2.40514C38.6626 1.53379 38.459 1.33381 37.5805 1.33381L19.9884 1.34095ZM19.9991 35.9914C21.9312 35.9914 23.8632 35.9825 25.7953 35.9914C26.1881 35.9914 26.2167 35.9021 26.0453 35.579C25.706 34.9344 25.3899 34.2791 25.0757 33.6149C25.0391 33.5189 24.9718 33.4378 24.8843 33.3841C24.7967 33.3305 24.6938 33.3074 24.5918 33.3185C21.5312 33.3256 18.47 33.3256 15.4082 33.3185C15.3064 33.3075 15.2038 33.3307 15.1165 33.3843C15.0293 33.4379 14.9623 33.519 14.9261 33.6149C14.6101 34.2719 14.2922 34.9255 13.9529 35.579C13.7744 35.8968 13.8083 36.0004 14.2047 35.9968C16.135 35.9825 18.0671 35.9914 19.9991 35.9914ZM19.9991 38.6573H28.4809C28.9719 38.6573 29.463 38.668 29.954 38.6573C30.4451 38.6465 30.779 38.2216 30.6093 37.7823C30.4629 37.4038 30.1433 37.3324 29.7719 37.3324C23.271 37.3324 16.7689 37.3324 10.2656 37.3324C10.1464 37.3245 10.0267 37.3293 9.90849 37.3467C9.75052 37.3646 9.60528 37.4419 9.50217 37.5629C9.39907 37.6839 9.3458 37.8396 9.35315 37.9984C9.34375 38.1575 9.39694 38.314 9.50137 38.4345C9.6058 38.5549 9.75319 38.6297 9.91206 38.643C10.0595 38.6612 10.2083 38.666 10.3567 38.6573H19.9991Z" fill="#6A6969"/>
<path d="M26.1649 5.33524C32.254 5.29596 36.5448 9.3581 36.6395 14.5487C36.6966 17.6288 35.3556 20.1286 32.945 22.0284C31.3089 23.3267 29.2748 24.0204 27.1863 23.9925C25.0614 23.9925 22.9312 24.1157 20.8098 23.9122C18.6117 23.7032 16.5475 23.0765 14.7994 21.6641C13.4762 20.6017 12.612 19.2715 12.678 17.4984C12.7423 15.8057 13.6584 14.5791 14.9333 13.5702C15.3642 13.2263 15.8326 12.9322 16.3297 12.6935C17.1657 12.2897 17.8382 11.6117 18.2349 10.7723C20.0759 7.20115 23.0686 5.46559 26.1649 5.33524ZM24.59 22.6766C25.4078 22.6766 26.2256 22.6766 27.0435 22.6766C28.5084 22.689 29.9505 22.3139 31.2236 21.5891C34.9235 19.5143 36.402 14.804 34.4378 11.1383C32.8932 8.26712 30.454 6.72619 27.1792 6.69227C23.74 6.65655 21.1419 8.18499 19.5206 11.2329C18.8813 12.4364 18.0582 13.3756 16.8189 13.9648C16.0909 14.3118 15.4436 14.8075 14.919 15.4201C13.7262 16.7896 13.703 18.4448 14.8654 19.8393C15.0561 20.0674 15.2657 20.2789 15.4922 20.4714C16.6243 21.4481 17.9689 21.9748 19.3992 22.3355C21.1098 22.7587 22.8562 22.6623 24.59 22.6766Z" fill="#6A6969"/>
<path d="M6.54081 24.6603C7.24435 24.6603 7.86397 24.6603 8.4818 24.6603C9.15141 24.6603 9.82102 24.6603 10.4888 24.6603C11.0245 24.6603 11.3245 24.9085 11.3352 25.3138C11.346 25.7191 11.0299 25.987 10.5156 25.9888C8.62643 25.9888 6.73723 25.9888 4.84982 25.9888C4.37305 25.9888 4.10878 25.7977 3.97843 25.3388C3.58023 23.9318 3.26417 22.5158 3.35703 21.0374C3.38497 20.4561 3.53848 19.8878 3.80701 19.3715C3.85867 19.2838 3.88592 19.184 3.88592 19.0822C3.88592 18.9805 3.85867 18.8806 3.80701 18.793C3.68912 18.5683 3.6169 18.3226 3.5945 18.0699C3.5721 17.8172 3.59998 17.5625 3.67651 17.3207C3.75304 17.0788 3.87672 16.8545 4.0404 16.6607C4.20408 16.4668 4.40453 16.3074 4.63018 16.1914C4.75312 16.131 4.85949 16.0416 4.94008 15.9308C5.02066 15.82 5.07303 15.6913 5.09266 15.5558C5.80132 12.3336 6.89671 9.20884 8.35502 6.24944C8.74355 5.429 9.23173 4.65958 9.80852 3.95857C10.0605 3.64428 10.371 3.38173 10.7228 3.18543C11.3799 2.8426 11.9924 3.03901 12.3298 3.70503C12.5636 4.20799 12.6803 4.75746 12.6709 5.31202C12.712 7.26364 12.2959 9.15275 11.8424 11.0258C11.3495 13.1243 10.6847 15.1786 9.85495 17.1681C9.80653 17.2657 9.78345 17.374 9.78782 17.4829C9.79219 17.5918 9.82387 17.6978 9.87995 17.7913C10.008 18.0177 10.0894 18.2676 10.1192 18.526C10.1491 18.7845 10.1268 19.0463 10.0537 19.296C9.98066 19.5457 9.85825 19.7782 9.69376 19.9798C9.52927 20.1814 9.32603 20.3479 9.09605 20.4696C8.9657 20.5446 8.84249 20.5928 8.81392 20.7749C8.57108 22.2784 7.7229 23.4211 6.68902 24.4621C6.63607 24.5254 6.5866 24.5916 6.54081 24.6603ZM11.362 5.65842C11.3442 5.36916 11.3335 5.05669 11.2995 4.74779C11.2995 4.65673 11.2995 4.51031 11.1727 4.4996C11.1067 4.4996 11.0192 4.57459 10.962 4.6353C10.689 4.92923 10.4494 5.25262 10.2478 5.5995C8.36573 8.76529 7.26756 12.2257 6.40867 15.7772C6.35332 16.0039 6.40867 16.0986 6.62652 16.1593C7.1265 16.3039 7.62826 16.4467 8.11395 16.6307C8.46037 16.761 8.62822 16.7146 8.76928 16.3378C9.20676 15.1683 9.62817 13.9934 9.9853 12.7971C10.6781 10.4741 11.2299 8.11892 11.3638 5.65842H11.362ZM5.03374 24.1228C5.49378 23.7673 5.91299 23.3619 6.28368 22.914C6.78723 22.3426 7.23899 21.7445 7.42649 20.9785C7.49791 20.6892 7.42649 20.5857 7.15507 20.5107C6.57962 20.3614 6.01223 20.1826 5.45515 19.975C5.07838 19.8286 4.9516 19.975 4.85874 20.2946C4.48019 21.5784 4.75875 22.8176 5.03374 24.1228ZM5.61764 17.2681C5.24801 17.2967 5.00517 17.4788 4.94267 17.8252C4.87124 18.2019 5.07302 18.4555 5.423 18.5698C6.21047 18.8287 7.00508 19.0715 7.79611 19.3179C8.26573 19.4625 8.62107 19.3179 8.75321 18.9501C8.88535 18.5823 8.69071 18.2162 8.19431 18.0573C7.44791 17.8145 6.69795 17.5841 5.94798 17.3431C5.83549 17.3199 5.71406 17.2913 5.61764 17.2681Z" fill="#6A6969"/>
<path d="M14.3012 25.9941C13.9744 25.9941 13.6459 26.0102 13.3209 25.9941C13.1466 25.9941 12.9795 25.9249 12.8562 25.8017C12.733 25.6784 12.6638 25.5113 12.6638 25.337C12.6638 25.1628 12.733 24.9956 12.8562 24.8724C12.9795 24.7492 13.1466 24.6799 13.3209 24.6799C13.9887 24.6585 14.6565 24.6585 15.3244 24.6799C15.4135 24.676 15.5026 24.6909 15.5856 24.7236C15.6687 24.7563 15.744 24.806 15.8066 24.8697C15.8693 24.9333 15.9178 25.0094 15.9492 25.0929C15.9805 25.1765 15.9939 25.2658 15.9886 25.3549C15.9779 25.712 15.7297 25.9602 15.3244 25.9959H14.3012V25.9941Z" fill="#6A6969"/>
<path d="M18.6617 19.9982C18.1341 19.9961 17.619 19.8376 17.1815 19.5428C16.7441 19.248 16.4038 18.8301 16.2038 18.3419C16.0038 17.8538 15.953 17.3173 16.0579 16.8003C16.1627 16.2833 16.4186 15.809 16.793 15.4374C17.1674 15.0657 17.6436 14.8134 18.1613 14.7124C18.6791 14.6113 19.2152 14.666 19.7019 14.8696C20.1886 15.0732 20.604 15.4165 20.8956 15.8561C21.1872 16.2958 21.3419 16.812 21.3401 17.3395C21.3349 18.0464 21.0504 18.7226 20.5487 19.2207C20.0469 19.7187 19.3686 19.9982 18.6617 19.9982ZM19.9991 17.3306C20.0002 17.0668 19.9229 16.8087 19.7771 16.5889C19.6313 16.3691 19.4235 16.1975 19.1801 16.0959C18.9367 15.9944 18.6686 15.9673 18.4098 16.0183C18.151 16.0692 17.9131 16.1958 17.7264 16.3821C17.5396 16.5683 17.4123 16.8058 17.3607 17.0645C17.3091 17.3231 17.3354 17.5913 17.4363 17.8349C17.5373 18.0786 17.7083 18.2868 17.9277 18.4332C18.1471 18.5796 18.405 18.6576 18.6688 18.6572C19.0201 18.6544 19.3563 18.5139 19.6051 18.2658C19.8539 18.0177 19.9954 17.6819 19.9991 17.3306Z" fill="#6A6969"/>
<path d="M24.9882 16.67C25.4513 16.6671 25.9048 16.8021 26.2911 17.0576C26.6774 17.3131 26.979 17.6778 27.1575 18.1051C27.336 18.5324 27.3835 19.0032 27.2938 19.4576C27.2042 19.9119 26.9814 20.3294 26.6539 20.6569C26.3264 20.9844 25.909 21.2071 25.4546 21.2967C25.0002 21.3864 24.5294 21.3389 24.102 21.1604C23.6747 20.9819 23.3101 20.6803 23.0545 20.2941C22.799 19.9078 22.664 19.4543 22.6669 18.9912C22.6669 18.3756 22.9114 17.7851 23.3468 17.3498C23.7821 16.9145 24.3725 16.67 24.9882 16.67ZM24.0132 18.9912C24.0139 19.1863 24.0724 19.3769 24.1814 19.5388C24.2903 19.7007 24.4448 19.8267 24.6253 19.9009C24.8058 19.9751 25.0042 19.9941 25.1955 19.9556C25.3868 19.9171 25.5624 19.8228 25.7002 19.6846C25.8379 19.5463 25.9316 19.3704 25.9694 19.1789C26.0072 18.9875 25.9875 18.7891 25.9126 18.6089C25.8378 18.4287 25.7112 18.2747 25.5489 18.1664C25.3866 18.058 25.1958 18.0002 25.0007 18.0002C24.8701 18.0002 24.7408 18.0261 24.6203 18.0764C24.4998 18.1267 24.3905 18.2004 24.2986 18.2932C24.2068 18.386 24.1343 18.4961 24.0853 18.6172C24.0363 18.7382 24.0118 18.8678 24.0132 18.9983V18.9912Z" fill="#6A6969"/>
<path d="M30.3558 13.3292C29.8939 13.3316 29.4416 13.1969 29.0562 12.9422C28.6709 12.6874 28.3698 12.324 28.1911 11.898C28.0125 11.472 27.9643 11.0026 28.0526 10.5492C28.1409 10.0957 28.3619 9.67875 28.6874 9.35098C29.0129 9.02321 29.4284 8.79942 29.8812 8.70795C30.3341 8.61648 30.8038 8.66145 31.2311 8.83716C31.6583 9.01288 32.0238 9.31143 32.2812 9.695C32.5386 10.0786 32.6764 10.5299 32.6772 10.9919C32.6793 11.298 32.6208 11.6016 32.5051 11.8851C32.3894 12.1686 32.2187 12.4264 32.003 12.6436C31.7872 12.8609 31.5306 13.0333 31.2479 13.1509C30.9652 13.2686 30.662 13.3292 30.3558 13.3292ZM30.3433 11.9918C30.4771 11.9974 30.6107 11.976 30.736 11.9287C30.8613 11.8814 30.9757 11.8093 31.0724 11.7166C31.1691 11.624 31.246 11.5127 31.2986 11.3895C31.3512 11.2663 31.3782 11.1338 31.3782 10.9999C31.3782 10.866 31.3512 10.7334 31.2986 10.6103C31.246 10.4871 31.1691 10.3758 31.0724 10.2832C30.9757 10.1905 30.8613 10.1184 30.736 10.0711C30.6107 10.0238 30.4771 10.0023 30.3433 10.008C30.2134 10.009 30.085 10.0355 29.9653 10.086C29.8457 10.1366 29.7371 10.2103 29.6459 10.3028C29.5547 10.3953 29.4827 10.5049 29.4338 10.6253C29.385 10.7456 29.3603 10.8745 29.3612 11.0044C29.3601 11.1335 29.3844 11.2615 29.433 11.3811C29.4815 11.5008 29.5532 11.6096 29.644 11.7014C29.7348 11.7932 29.8429 11.8661 29.962 11.9159C30.0811 11.9658 30.2089 11.9915 30.338 11.9918H30.3433Z" fill="#6A6969"/>
<path d="M33.3289 17.6538C33.3313 18.1164 33.1963 18.5693 32.9408 18.955C32.6853 19.3407 32.3209 19.6417 31.894 19.8199C31.467 19.9981 30.9967 20.0454 30.5428 19.9557C30.089 19.8661 29.672 19.6436 29.3448 19.3164C29.0177 18.9893 28.7951 18.5723 28.7055 18.1185C28.6158 17.6646 28.6631 17.1943 28.8413 16.7674C29.0195 16.3405 29.3206 15.9761 29.7063 15.7206C30.092 15.4652 30.5449 15.3301 31.0075 15.3326C31.6232 15.3326 32.2136 15.5771 32.649 16.0124C33.0843 16.4477 33.3289 17.0381 33.3289 17.6538ZM31.9914 17.6859C31.9945 17.5561 31.9718 17.4269 31.9246 17.3059C31.8774 17.1848 31.8067 17.0744 31.7165 16.9809C31.6263 16.8874 31.5185 16.8127 31.3992 16.7612C31.28 16.7096 31.1517 16.6823 31.0218 16.6806C30.8266 16.6771 30.6347 16.7316 30.4704 16.8372C30.3061 16.9427 30.1768 17.0946 30.0988 17.2737C30.0208 17.4527 29.9977 17.6509 30.0323 17.843C30.067 18.0352 30.1578 18.2128 30.2934 18.3534C30.429 18.4939 30.6032 18.5911 30.794 18.6327C30.9848 18.6743 31.1836 18.6583 31.3654 18.5869C31.5471 18.5154 31.7036 18.3917 31.8151 18.2313C31.9265 18.071 31.9879 17.8812 31.9914 17.6859Z" fill="#6A6969"/>
<path d="M24.2703 13.3292C23.6511 13.3095 23.0651 13.0447 22.6411 12.593C22.2172 12.1412 21.9901 11.5396 22.0097 10.9204C22.0294 10.3013 22.2942 9.71525 22.7459 9.29132C23.1977 8.8674 23.7993 8.64028 24.4185 8.65993C25.034 8.68733 25.614 8.95529 26.0338 9.40613C26.4537 9.85698 26.6796 10.4546 26.6631 11.0704C26.655 11.3761 26.5866 11.6771 26.4619 11.9562C26.3371 12.2354 26.1584 12.4871 25.9361 12.697C25.7137 12.9068 25.4521 13.0707 25.1663 13.1792C24.8804 13.2877 24.5759 13.3387 24.2703 13.3292ZM24.3489 11.9936C24.546 11.9921 24.7382 11.9322 24.9011 11.8213C25.0641 11.7104 25.1904 11.5537 25.2641 11.3709C25.3378 11.1881 25.3555 10.9875 25.315 10.7947C25.2745 10.6018 25.1776 10.4253 25.0366 10.2876C24.8956 10.1499 24.7169 10.0571 24.5231 10.0212C24.3294 9.98522 24.1293 10.0076 23.9483 10.0856C23.7672 10.1635 23.6135 10.2935 23.5064 10.459C23.3994 10.6245 23.344 10.818 23.3472 11.0151C23.3505 11.2776 23.4578 11.5281 23.6456 11.7115C23.8334 11.895 24.0864 11.9964 24.3489 11.9936Z" fill="#6A6969"/>
</svg>
