<svg width="64" height="35" viewBox="0 0 64 35" fill="none" xmlns="http://www.w3.org/2000/svg">
<path d="M31.5045 0C27.0541 0 23.4382 3.89799 23.4382 8.68851C23.4292 13.5246 27.0272 19.3625 31.5045 19.3625C35.9728 19.3625 39.5707 13.5246 39.5707 8.68851C39.5707 3.89799 35.9548 0 31.5045 0ZM31.5045 17.8688C27.9514 17.8688 24.9007 12.8142 24.9007 8.68851C24.9007 4.71766 27.8616 1.49362 31.5045 1.49362C35.1473 1.49362 38.1082 4.72677 38.1082 8.68851C38.1082 12.8233 35.0576 17.8688 31.5045 17.8688Z" fill="#6A6969"/>
<path d="M45.7708 24.7905C45.4298 22.0036 43.5187 19.6175 40.8987 18.7067C40.0912 18.4335 39.2298 18.1876 38.1621 17.9326L37.6596 17.8142L31.5045 27.6503L25.3493 17.8142L24.8469 17.9326C23.7881 18.1876 22.9178 18.4335 22.1103 18.7067C19.4903 19.6084 17.5792 21.9945 17.2382 24.7905L16 35H47L45.7708 24.7905ZM17.6599 33.5155L18.6918 24.9727C18.9609 22.7505 20.4863 20.847 22.5768 20.1184C23.2049 19.8998 23.8779 19.7086 24.6674 19.5082L31.5045 30.428L38.3415 19.5082C39.1311 19.7086 39.8041 19.8998 40.4321 20.1184C42.5227 20.8379 44.048 22.7413 44.3172 24.9727L45.3491 33.5155H17.6599Z" fill="#6A6969"/>
<path d="M42.5137 27.55H38.1082V29.0437H42.5137V27.55Z" fill="#6A6969"/>
<path d="M54.2452 6.8869C51.6734 6.8869 49.5838 9.13952 49.5838 11.9079C49.5786 14.7026 51.6578 18.0763 54.2452 18.0763C56.8274 18.0763 58.9066 14.7026 58.9066 11.9079C58.9066 9.13952 56.817 6.8869 54.2452 6.8869ZM54.2452 17.2131C52.1919 17.2131 50.4289 14.2921 50.4289 11.9079C50.4289 9.6132 52.14 7.75005 54.2452 7.75005C56.3504 7.75005 58.0615 9.61846 58.0615 11.9079C58.0615 14.2974 56.2985 17.2131 54.2452 17.2131Z" fill="#6A6969"/>
<path d="M62.4895 21.2131C62.2925 19.6026 61.1881 18.2237 59.674 17.6974C59.2073 17.5395 58.7096 17.3974 58.0925 17.25L57.8022 17.1816L54.2452 22.8657L50.6882 17.1816L50.3978 17.25C49.786 17.3974 49.283 17.5395 48.8164 17.6974C47.3023 18.2184 46.1979 19.5974 46.0008 21.2131L45.2853 27.1131H63.1999L62.4895 21.2131ZM46.2445 26.2552L46.8408 21.3184C46.9964 20.0342 47.8778 18.9342 49.086 18.5131C49.4489 18.3868 49.8378 18.2763 50.2941 18.1605L54.2452 24.471L58.1962 18.1605C58.6525 18.2763 59.0414 18.3868 59.4044 18.5131C60.6125 18.9289 61.494 20.0289 61.6495 21.3184L62.2458 26.2552H46.2445Z" fill="#6A6969"/>
<path d="M60.6073 22.8078H58.0614V23.671H60.6073V22.8078Z" fill="#6A6969"/>
<path d="M8.95992 6.8869C6.38809 6.8869 4.29849 9.13952 4.29849 11.9079C4.2933 14.7026 6.37254 18.0763 8.95992 18.0763C11.5421 18.0763 13.6213 14.7026 13.6213 11.9079C13.6213 9.13952 11.5317 6.8869 8.95992 6.8869ZM8.95992 17.2131C6.90661 17.2131 5.14366 14.2921 5.14366 11.9079C5.14366 9.6132 6.85476 7.75005 8.95992 7.75005C11.0651 7.75005 12.7762 9.61846 12.7762 11.9079C12.7762 14.2974 11.0132 17.2131 8.95992 17.2131Z" fill="#6A6969"/>
<path d="M17.2043 21.2131C17.0072 19.6026 15.9028 18.2237 14.3887 17.6974C13.9221 17.5395 13.4243 17.3974 12.8073 17.25L12.5169 17.1816L8.9599 22.8657L5.4029 17.1816L5.11254 17.25C4.50069 17.3974 3.99773 17.5395 3.53107 17.6974C2.01702 18.2184 0.912583 19.5974 0.715548 21.2131L0 27.1131H17.9146L17.2043 21.2131ZM0.959249 26.2552L1.55554 21.3184C1.71109 20.0342 2.59256 18.9342 3.8007 18.5131C4.16366 18.3868 4.55254 18.2763 5.00883 18.1605L8.9599 24.471L12.911 18.1605C13.3673 18.2763 13.7561 18.3868 14.1191 18.5131C15.3272 18.9289 16.2087 20.0289 16.3643 21.3184L16.9606 26.2552H0.959249Z" fill="#6A6969"/>
<path d="M15.322 22.8078H12.7761V23.671H15.322V22.8078Z" fill="#6A6969"/>
</svg>
