<svg width="15" height="15" viewBox="0 0 15 15" fill="none" xmlns="http://www.w3.org/2000/svg">
<path d="M13.8158 9.87632C12.8905 9.87632 11.9842 9.73185 11.1245 9.44764C10.7053 9.30317 10.23 9.41448 9.9537 9.69555L8.25081 10.9816C6.29764 9.93949 5.04711 8.68974 4.01766 6.74923L5.26896 5.0866C5.58396 4.77082 5.69687 4.31053 5.56187 3.8787C5.27685 3.015 5.1316 2.1079 5.1316 1.18421C5.1316 0.531304 4.60029 0 3.94738 0H1.18421C0.531304 0 0 0.531304 0 1.18421C0 8.80184 6.19816 15 13.8158 15C14.4687 15 15 14.4687 15 13.8158V11.0605C15 10.4076 14.4687 9.87632 13.8158 9.87632ZM14.2105 13.8158C14.2105 14.0337 14.0329 14.2105 13.8158 14.2105C6.63314 14.2105 0.789462 8.36686 0.789462 1.18421C0.789462 0.966317 0.967094 0.789462 1.18421 0.789462H3.94738C4.1645 0.789462 4.34213 0.966317 4.34213 1.18421C4.34213 2.19238 4.50004 3.18238 4.80949 4.12106C4.85527 4.26868 4.81819 4.42107 4.67371 4.57106L3.23686 6.47368C3.14608 6.59447 3.13187 6.7563 3.20055 6.89052C4.37133 9.19026 5.7932 10.6129 8.10952 11.7995C8.24293 11.8689 8.40635 11.8547 8.52714 11.7632L10.4708 10.29C10.5766 10.1858 10.7321 10.1495 10.8727 10.1961C11.8169 10.5079 12.8069 10.6658 13.8159 10.6658C14.033 10.6658 14.2106 10.8426 14.2106 11.0605V13.8158H14.2105Z" fill="black"/>
</svg>
