<svg width="29" height="35" viewBox="0 0 29 35" fill="none" xmlns="http://www.w3.org/2000/svg">
<path d="M25.4582 16.5596L20.5052 11.6065V3.07617C20.5052 1.37997 19.1252 0 17.429 0H4.03058C2.33438 0 0.954407 1.37997 0.954407 3.07617V31.9238C0.954407 33.62 2.33438 35 4.03058 35H24.9485C25.437 35 25.8577 34.6555 25.9538 34.1765L27.8647 24.6645C28.4616 21.6932 27.562 18.6634 25.4582 16.5596ZM4.03058 2.05078H17.429C17.9944 2.05078 18.4544 2.51077 18.4544 3.07617V16.3023C17.1967 15.0618 15.1762 15.0687 13.9271 16.3177C12.6754 17.5674 12.6694 19.5961 13.9188 20.854L17.8464 24.9373C16.9949 25.5728 15.8919 26.6819 15.0997 28.5059H3.00519V3.07617C3.00519 2.51077 3.46511 2.05078 4.03058 2.05078ZM3.00519 31.9238V30.5566H14.4369C14.2743 31.2756 14.1593 32.0707 14.1087 32.9492H4.03058C3.46511 32.9492 3.00519 32.4892 3.00519 31.9238ZM25.8541 24.2606L24.1087 32.9492C22.4598 32.9492 17.8572 32.9492 16.1642 32.9492C16.3121 30.7712 16.939 28.946 17.9994 27.6285C18.8785 26.5362 19.7736 26.1445 19.8449 26.1146C20.5159 25.8744 20.7557 25.0035 20.2188 24.4454C15.3705 19.4049 15.3854 19.4202 15.3767 19.4116C14.9263 18.9612 14.9192 18.2252 15.3767 17.7684C15.8287 17.3165 16.5635 17.3152 17.0171 17.7651C19.1848 19.9824 18.1307 18.9184 21.9243 22.7119C22.3246 23.1123 22.9739 23.1124 23.3744 22.7119C23.7748 22.3114 23.7748 21.6622 23.3744 21.2617L20.5052 18.3926V14.5068L24.0081 18.0098C25.6254 19.627 26.3155 21.9638 25.8541 24.2606Z" fill="#F95353"/>
</svg>
