<svg width="42" height="38" viewBox="0 0 42 38" fill="none" xmlns="http://www.w3.org/2000/svg">
<path d="M41.8478 35.0174C41.7242 34.6616 41.337 34.4711 40.9794 34.5848C40.761 34.6538 35.5894 36.1952 31.0862 28.0884C29.0834 24.4839 26.2265 22.0181 22.5943 20.7597C20.0941 19.8937 17.3321 19.7958 14.6036 20.478L11.8204 21.1738C10.2438 21.5688 8.54943 21.0989 7.39902 19.9494C6.93154 19.4819 6.60585 18.9111 6.45747 18.2987C4.85951 11.7018 8.91361 7.09844 10.1436 5.8851C11.0075 6.25066 12.8729 6.70168 14.9272 5.08205C15.4767 4.64906 15.778 3.97358 15.7336 3.27557C15.6892 2.58189 15.3074 1.95425 14.7118 1.59701L13.8827 1.09972C11.8979 -0.0912577 9.42113 0.0269558 7.57305 1.39906C4.05438 4.01241 -1.53319 10.1295 0.575926 21.7311C1.22229 25.2868 3.31286 28.3333 6.67015 30.6837C6.67085 30.6979 6.66495 30.7106 6.66651 30.7248L7.38758 37.103C7.42727 37.4536 7.72367 37.7185 8.07658 37.7185H10.9986H13.9209C14.2651 37.7185 14.5573 37.4656 14.6071 37.125L15.0281 34.2286C15.9476 34.3816 16.8738 34.4614 17.8032 34.4614C18.6811 34.4614 19.5615 34.3811 20.4399 34.2442L21.0339 37.1633C21.0996 37.4862 21.3837 37.7185 21.7134 37.7185H24.6356C24.9799 37.7185 25.2721 37.4656 25.3219 37.125L25.8691 33.36C29.6919 35.9971 33.4441 36.6833 36.3083 36.6833C39.2641 36.6833 41.2739 35.9548 41.4382 35.8934C41.7906 35.7608 41.971 35.3729 41.8478 35.0174ZM8.16515 31.636C8.66383 31.9246 9.18002 32.2032 9.72342 32.4652C9.74405 32.4751 9.76623 32.4737 9.78738 32.4815L10.2226 36.3318H8.69625L8.16515 31.636ZM26.0935 31.8156L26.2958 30.4234C26.3506 30.0441 26.0883 29.6924 25.7094 29.6373C25.3302 29.5818 24.9781 29.8448 24.9234 30.2237L24.0357 36.3316H22.2797L20.4448 27.3133C20.3683 26.9378 20.0012 26.6945 19.6272 26.7719C19.2517 26.8484 19.0098 27.2145 19.0858 27.5896L20.1626 32.8818C18.5135 33.1322 16.8602 33.1159 15.2297 32.8416L15.5812 30.4236C15.636 30.0443 15.3737 29.6926 14.9948 29.6375C14.6177 29.5839 14.2639 29.8446 14.2088 30.2239L13.3208 36.3318H11.618L10.7133 28.3311C10.6703 27.9506 10.3247 27.678 9.9465 27.7201C9.56603 27.7631 9.29251 28.1064 9.3355 28.4869L9.60261 30.8494C5.2327 28.5561 2.65402 25.4092 1.94006 21.4835C-0.0347271 10.6187 5.13979 4.93402 8.40002 2.51204C9.79657 1.47481 11.668 1.3878 13.1698 2.28861L13.9989 2.7859C14.2067 2.91053 14.3348 3.12113 14.3499 3.3638C14.3658 3.61028 14.2632 3.83977 14.0689 3.99317C12.1152 5.53254 10.4729 4.51178 10.4093 4.47088C10.1514 4.29928 9.80974 4.31921 9.57349 4.52132C9.30707 4.74977 3.07175 10.2112 5.1105 18.6249C5.31833 19.4848 5.77107 20.2818 6.41899 20.9297C7.91191 22.422 10.1094 23.0318 12.1572 22.5192L14.9404 21.8234C17.4068 21.2069 19.895 21.2924 22.1405 22.0699C25.4402 23.2132 28.0423 25.4648 29.8745 28.7622C31.9146 32.4344 34.1303 34.3237 36.0704 35.2642C33.3066 35.2202 29.6909 34.4889 26.0935 31.8156V31.8156Z" fill="#F95353"/>
<path d="M11.5518 3.19982C11.8251 3.19982 12.0467 2.97826 12.0467 2.70495C12.0467 2.43164 11.8251 2.21008 11.5518 2.21008C11.2785 2.21008 11.0569 2.43164 11.0569 2.70495C11.0569 2.97826 11.2785 3.19982 11.5518 3.19982Z" fill="#F95353"/>
</svg>
