<svg width="44" height="44" viewBox="0 0 44 44" fill="none" xmlns="http://www.w3.org/2000/svg">
<path d="M20.5267 19.2813L19.7395 18.3606C20.6399 17.5365 21.6962 16.9025 22.8458 16.4963C26.8486 15.0845 30.55 15.6796 33.7427 18.4897C36.895 21.2651 37.9375 24.8455 37.1004 28.9479C36.9084 29.9109 36.4496 30.8219 36.0407 31.7233C35.8717 32.095 35.8833 32.2895 36.1712 32.5746C38.356 34.742 40.5273 36.9248 42.6852 39.123C42.8599 39.3021 42.904 39.616 42.9904 39.8722C43.0058 39.9672 43.0058 40.0641 42.9904 40.1592C42.9904 41.7154 42.9904 41.7154 41.8385 42.7766C41.8052 42.8114 41.77 42.8442 41.7329 42.8748C41.3682 43.1387 39.3677 42.9769 39.0452 42.6553C36.9008 40.502 34.7582 38.3622 32.6368 36.2089C32.3258 35.8931 32.1089 35.8083 31.6769 36.0395C25.1764 39.4832 17.2783 35.5252 16.0861 28.2449C15.7495 26.1879 16.0246 24.0771 16.8771 22.1761C16.927 22.0624 16.9923 21.9546 17.0806 21.7909L18.173 22.3417C16.9616 25.0381 16.8579 27.7191 18.0367 30.3943C18.9246 32.4511 20.5263 34.1147 22.5444 35.0765C24.5294 36.0429 26.7892 36.2808 28.9309 35.7487C31.0726 35.2167 32.9607 33.9483 34.2668 32.1643C36.9276 28.5935 36.6665 23.4838 33.6793 20.1672C30.4252 16.5637 24.5448 15.8973 20.5267 19.2813ZM33.3625 35.1573C33.3261 35.0726 33.3318 35.1073 33.3529 35.1285C35.475 37.2612 37.5989 39.392 39.7248 41.5209C39.9168 41.7135 40.8863 41.7905 41.1378 41.6499C41.8174 41.2647 41.9748 40.1958 41.4277 39.643C39.3799 37.5886 37.3359 35.5342 35.2958 33.4798C35.2446 33.4315 35.1894 33.3877 35.1307 33.3488L33.3625 35.1573Z" fill="#F95353"/>
<path d="M1.23829 10.1038H0.0153656V0H0.520277C8.29552 0 16.0701 0.00385201 23.8441 0.011556C24.1201 0.0152163 24.3863 0.115339 24.5967 0.294679C26.4218 2.09228 28.2334 3.90594 30.0317 5.73564C30.1951 5.88076 30.3019 6.07937 30.3331 6.29611C30.3503 9.18512 30.3446 12.0741 30.3331 14.9631C30.3255 15.0239 30.3126 15.0838 30.2947 15.1423H29.066V14.5163C29.066 12.4131 29.0487 10.3099 29.0833 8.20864C29.0833 7.69632 28.9278 7.60387 28.4593 7.61157C26.7488 7.63661 25.0363 7.61157 23.3257 7.61157C23.1837 7.61157 23.0416 7.59809 22.8516 7.58846V1.30198H1.23829V10.1038ZM24.1244 1.79311V6.30959H28.659L24.1244 1.79311Z" fill="#F95353"/>
<path d="M12.0718 17.0585C11.1733 16.5636 11.3922 15.7373 11.3883 14.9881C11.3883 13.4473 11.4037 11.9065 11.3768 10.3657C11.3768 9.84564 11.5515 9.43155 11.7608 8.96931C12.2676 7.84645 13.0202 7.47088 14.2565 7.5614C16.0708 7.6943 17.9042 7.59222 19.7242 7.59222C19.8797 7.59222 20.0352 7.6057 20.3001 7.61726C19.9161 8.23358 19.5322 8.77286 19.2173 9.33333C19.0692 9.59137 18.9849 9.88133 18.9716 10.1788C18.9524 12.0721 18.9562 13.9673 18.9716 15.8606C18.9728 16.1928 18.8478 16.513 18.6222 16.7562C17.9867 17.5631 17.2342 17.9118 16.1859 17.7923C15.3508 17.6922 14.4927 17.7673 13.646 17.775C13.4726 17.7583 13.2981 17.7917 13.143 17.8713C12.1351 18.6302 11.1445 19.4121 10.1501 20.1825L10.1731 20.3231H16.3799V21.5712H10.1347V22.7595H14.4447V24.0384H10.1213V25.3442H14.4716C14.4716 25.7294 14.4927 26.0549 14.46 26.3804C14.4393 26.4392 14.4039 26.4917 14.3572 26.5329C14.3105 26.574 14.254 26.6024 14.1932 26.6154C12.45 26.6269 10.7068 26.6154 8.96361 26.6154C8.93673 26.6154 8.90793 26.5884 8.84458 26.5557C8.84458 26.4189 8.82346 26.2629 8.82346 26.1069C8.82346 24.0846 8.82346 22.0623 8.82346 20.04C8.8138 19.8909 8.84436 19.7419 8.91193 19.6087C8.97949 19.4755 9.08156 19.363 9.20742 19.2831C9.95231 18.7303 10.6818 18.1544 11.4152 17.5843C11.6091 17.4341 11.8049 17.2723 12.0718 17.0585ZM17.6623 11.4115H12.6497C12.6497 12.7924 12.6497 14.1368 12.6497 15.4811C12.6486 15.6151 12.6744 15.7479 12.7256 15.8716C12.7768 15.9954 12.8523 16.1075 12.9476 16.2013C13.0429 16.2952 13.1561 16.3688 13.2804 16.4178C13.4047 16.4668 13.5375 16.4901 13.671 16.4865C14.6296 16.4865 15.5895 16.4865 16.5507 16.4865C17.3084 16.4865 17.6885 16.1097 17.6911 15.3559C17.6911 14.217 17.6911 13.0794 17.6911 11.9431C17.6834 11.7716 17.6623 11.5983 17.6623 11.4115ZM17.8543 8.85953C16.4259 8.85953 14.9918 8.85953 13.552 8.85953C13.4588 8.85728 13.3685 8.89187 13.3005 8.95583C13.0624 9.30251 12.8455 9.6646 12.5882 10.071H17.6028L17.8543 8.85953Z" fill="#F95353"/>
<path d="M32.4295 22.8289L33.4201 22.1914C35.1211 24.3736 35.6817 29.2541 32.1204 32.5225C31.3185 33.2567 30.3772 33.8212 29.3529 34.1823C28.3286 34.5433 27.2423 34.6936 26.1588 34.624C25.0754 34.5544 24.017 34.2665 23.047 33.7773C22.0769 33.2882 21.2151 32.6079 20.513 31.7772C19.8109 30.9464 19.2829 29.9822 18.9605 28.9421C18.6382 27.902 18.5282 26.8074 18.637 25.7237C18.7458 24.64 19.0712 23.5895 19.5938 22.6348C20.1164 21.6801 20.8254 20.8408 21.6786 20.1672C25.3723 17.2127 30.2179 18.3991 32.3278 20.8182L31.5022 21.6579C28.3173 18.6919 23.9516 19.3891 21.6632 21.8948C20.5433 23.1188 19.9036 24.7085 19.8627 26.3694C19.8217 28.0303 20.3823 29.6498 21.4405 30.9278C23.6656 33.5645 27.5148 34.1461 30.3446 32.3087C33.3337 30.3673 34.4703 26.2919 32.4295 22.8289Z" fill="#F95353"/>
<path d="M0 36.7617V13.929H1.21332V35.5195H18.9274V36.7617H0Z" fill="#F95353"/>
<path d="M5.08943 31.7251V28.9806C5.08943 27.9136 5.08943 27.9155 6.13765 27.9136C8.96746 27.9136 11.7992 27.9136 14.629 27.9039C14.9995 27.9039 15.2241 27.9675 15.155 28.397C15.0993 28.736 15.3643 29.2136 14.6463 29.204C12.0872 29.1732 9.52804 29.1924 6.96701 29.204H6.41026V30.4597H6.95933C9.50117 30.4597 12.0449 30.4694 14.5868 30.4597C15.0072 30.4597 15.1857 30.5426 15.1627 31.0086C15.1185 31.833 15.2318 31.7405 14.4447 31.7405C11.5342 31.7405 8.62381 31.7405 5.71337 31.7405L5.08943 31.7251Z" fill="#F95353"/>
<path d="M10.175 3.7865C10.175 5.00566 10.175 6.19015 10.1635 7.37272C10.1635 7.45361 9.9888 7.60384 9.89473 7.60384C7.48344 7.60384 5.07023 7.60384 2.65894 7.58651C2.64743 7.58651 2.63399 7.56725 2.59175 7.52873V3.7865H10.175ZM8.86378 5.04803H3.86075V6.34038H7.80789C9.03273 6.34231 9.03273 6.34231 8.86378 5.04803Z" fill="#F95353"/>
<path d="M27.1865 27.0739V28.2815H25.9175C25.9175 27.5111 25.9079 26.7542 25.9309 25.9934C25.9309 25.9279 26.1344 25.8201 26.2496 25.8143C26.6336 25.7912 27.0175 25.8047 27.4015 25.8047C28.0888 25.8047 28.4267 25.4696 28.4286 24.7897C28.4286 24.4854 28.4459 24.1791 28.4286 23.8748C28.4296 23.7859 28.4129 23.6977 28.3794 23.6155C28.3458 23.5332 28.2962 23.4585 28.2333 23.3958C28.1705 23.3331 28.0958 23.2838 28.0136 23.2506C27.9313 23.2174 27.8433 23.2011 27.7548 23.2026C27.1788 23.1757 26.6029 23.1815 26.0269 23.2026C25.872 23.2195 25.7269 23.2872 25.6142 23.3952C25.4281 23.5842 25.2544 23.7849 25.0939 23.9962L24.157 22.9195C24.4853 22.6287 24.8347 22.3013 25.2052 22.0047C25.3277 21.933 25.4689 21.9001 25.6103 21.9103C26.4589 21.9103 27.3055 21.8891 28.1522 21.9103C28.3631 21.9364 28.5626 22.0211 28.7281 22.1549C29.4768 22.6961 29.7053 23.4087 29.7475 24.3621C29.7974 25.5004 29.3828 26.2534 28.5611 26.8909C28.4229 26.9886 28.2611 27.0472 28.0926 27.0604C27.8181 27.0932 27.5321 27.0739 27.1865 27.0739Z" fill="#F95353"/>
<path d="M18.8353 21.2149L17.7986 20.5023L18.6107 19.4314L19.5591 20.2577C19.3172 20.5754 19.0926 20.874 18.8353 21.2149Z" fill="#F95353"/>
<path d="M0 12.6057V11.4097H1.19988V12.6057H0Z" fill="#F95353"/>
<path d="M27.1539 29.6162V30.8046H25.9348V29.6162H27.1539Z" fill="#F95353"/>
</svg>
