<svg width="60" height="60" viewBox="0 0 60 60" fill="none" xmlns="http://www.w3.org/2000/svg">
<path d="M39.7453 40.6288C37.7326 40.6288 35.1578 39.7317 33.9094 38.9826L32.7041 43.8316C34.3503 44.7287 36.8937 45.3531 39.7453 45.3531C45.9755 45.3531 49.1938 42.3687 49.1938 38.3001C49.147 35.0971 47.4109 32.9945 43.2641 31.5785C40.5997 30.6344 39.7608 30.0999 39.7608 29.0779C39.7608 27.966 40.6894 27.295 42.3357 27.295C44.2081 27.295 46.0689 28.0129 47.0596 28.5472L48.2613 23.866C46.9231 23.195 44.6529 22.6177 42.1054 22.6177C36.7141 22.6177 33.2383 25.6956 33.2383 29.7489C33.1914 32.3392 34.9276 34.7931 39.4411 36.3026C41.9687 37.157 42.6397 37.6875 42.6397 38.7994C42.6399 39.915 41.7855 40.6288 39.7453 40.6288Z" fill="#EB5B31"/>
<path d="M17.5289 34.1689C18.153 34.2587 18.9606 34.2898 19.842 34.2898C23.8524 34.2898 27.2931 33.3146 29.5947 31.1378C31.3933 29.4447 32.3683 26.9441 32.3683 24.0067C32.3683 21.0652 31.0887 18.5647 29.1539 17.0549C27.1565 15.4398 24.1723 14.6479 19.9786 14.6479C15.8356 14.6479 12.8944 14.9214 10.8071 15.2722V44.9126H17.5287V34.1689H17.5289ZM17.5406 20.0432C18.0165 19.9065 18.9607 19.77 20.3299 19.77C23.7277 19.77 25.6353 21.4124 25.6508 24.1706C25.6508 27.2524 23.4076 29.0781 19.7992 29.0781C18.8239 29.0781 18.1218 29.0353 17.5406 28.9103V20.0432Z" fill="#EB5B31"/>
<path d="M0 0V60H60V0H0ZM56.2887 56.2887H3.71134V3.71134H56.2887V56.2887Z" fill="#EB5B31"/>
</svg>
