<svg width="35" height="35" viewBox="0 0 35 35" fill="none" xmlns="http://www.w3.org/2000/svg">
<path d="M31.8703 16.8812C30.92 16.8812 30.0792 17.357 29.5719 18.0825L27.5052 17.7244C27.5078 17.6467 27.5111 17.5691 27.5111 17.4909C27.5111 16.5734 27.3292 15.698 27.0016 14.897L30.502 12.785C30.973 13.1438 31.5601 13.3572 32.1965 13.3572C33.7423 13.3572 34.9999 12.0996 34.9999 10.5538C34.9999 9.00803 33.7423 7.75053 32.1965 7.75053C30.6507 7.75053 29.3932 9.00803 29.3932 10.5538C29.3932 10.718 29.4082 10.8787 29.4355 11.0352L25.9525 13.1366C24.8957 11.8482 23.381 10.9496 21.6595 10.6912V6.39077C22.9441 5.96105 23.8731 4.7473 23.8731 3.31992C23.8731 1.53433 22.4204 0.081543 20.6349 0.081543C18.8495 0.081543 17.3969 1.53423 17.3969 3.31992C17.3969 4.7473 18.3256 5.96095 19.6103 6.39077V10.6912C17.2643 11.0432 15.304 12.5852 14.3615 14.6807L7.94778 12.7107C7.96705 12.5522 7.97811 12.3911 7.97811 12.2275C7.97811 10.0278 6.18874 8.23824 3.98921 8.23824C1.78948 8.23824 0 10.0278 0 12.2275C0 14.427 1.78948 16.2165 3.98931 16.2165C5.29261 16.2165 6.45165 15.5881 7.18004 14.6186L13.8113 16.6554C13.778 16.9295 13.7587 17.2079 13.7587 17.4908C13.7587 19.3351 14.4901 21.0108 15.6762 22.2469L12.7873 25.3215C12.3657 25.1333 11.8992 25.0278 11.4083 25.0278C9.53541 25.0278 8.01192 26.5514 8.01192 28.4242C8.01192 30.2967 9.53541 31.8202 11.4083 31.8202C13.2809 31.8202 14.8045 30.2967 14.8045 28.4242C14.8045 27.7873 14.6279 27.191 14.3218 26.6811L17.3062 23.5046C18.2933 24.0531 19.4279 24.3667 20.635 24.3667C21.7881 24.3667 22.8751 24.08 23.8307 23.5762L26.8087 28.1043C26.0831 28.827 25.6333 29.8264 25.6333 30.9289C25.6333 33.1285 27.4229 34.9181 29.6225 34.9181C31.8222 34.9181 33.6118 33.1286 33.6118 30.9289C33.6118 28.7294 31.8222 26.9399 29.6225 26.9399C29.2641 26.9399 28.9168 26.9882 28.5862 27.0773L25.4842 22.3607C26.2173 21.6308 26.7856 20.7364 27.1317 19.7391L29.0957 20.0793C29.2882 21.4387 30.4589 22.4877 31.8705 22.4877C33.4164 22.4877 34.674 21.2301 34.674 19.6842C34.6738 18.1387 33.4162 16.8812 31.8703 16.8812ZM15.8079 17.4908C15.8079 14.8291 17.9733 12.6637 20.6348 12.6637C23.2965 12.6637 25.4618 14.8291 25.4618 17.4908C25.4618 20.1523 23.2964 22.3176 20.6348 22.3176C17.9733 22.3176 15.8079 20.1523 15.8079 17.4908Z" fill="white"/>
</svg>
