<svg width="30" height="32" viewBox="0 0 30 32" fill="none" xmlns="http://www.w3.org/2000/svg">
<path d="M23.7507 0H7.25031C7.22223 0.000293451 7.19423 0.00304871 7.16663 0.00823428C7.16371 0.00823428 7.16079 0.00823428 7.15787 0.00823428C7.119 0.0165364 7.0814 0.0299335 7.04604 0.0480781C7.03674 0.0525937 7.02824 0.057375 7.01948 0.0626875C6.98388 0.0825118 6.95102 0.106889 6.92173 0.135203L0.868666 6.18959C0.839944 6.21912 0.815289 6.25236 0.795354 6.28841C0.790838 6.29664 0.786322 6.30461 0.782072 6.31311C0.763668 6.34909 0.750008 6.3873 0.741432 6.4268V6.43158C0.735807 6.46019 0.732872 6.48927 0.732666 6.51844V31.1153C0.732631 31.1764 0.744631 31.2368 0.767979 31.2932C0.791327 31.3497 0.825566 31.4009 0.868738 31.4441C0.911909 31.4873 0.963167 31.5215 1.01958 31.5448C1.07599 31.5682 1.13646 31.5802 1.19751 31.5802H23.7507C23.8739 31.5802 23.9922 31.5312 24.0794 31.444C24.1665 31.3568 24.2155 31.2386 24.2155 31.1153V0.464844C24.2155 0.34156 24.1665 0.223325 24.0794 0.136149C23.9922 0.0489744 23.8739 0 23.7507 0ZM6.78546 1.58711V6.05359H2.31898L6.78546 1.58711ZM23.2858 30.6494H1.66156V6.98222H7.25031C7.37357 6.98215 7.49176 6.93315 7.57892 6.84599C7.66608 6.75883 7.71508 6.64064 7.71515 6.51737V0.929688H23.2858V30.6494Z" fill="white"/>
<path d="M29.2639 7.85937C29.2639 7.84795 29.2639 7.83653 29.2623 7.8251L28.858 5.07642C28.842 4.96579 28.7867 4.86461 28.7022 4.79144C28.6177 4.71826 28.5097 4.67798 28.3979 4.67798H26.7075C26.5957 4.67798 26.4877 4.71826 26.4032 4.79144C26.3187 4.86461 26.2634 4.96579 26.2474 5.07642L25.8432 7.8251C25.8416 7.83653 25.8432 7.84795 25.8416 7.85937C25.84 7.87079 25.8384 7.88115 25.8384 7.89284V22.8085C25.8384 22.8183 25.8405 22.8273 25.841 22.8366C25.8418 22.8527 25.8435 22.8688 25.8461 22.8847C25.8489 22.9012 25.8527 22.9175 25.8575 22.9336C25.8599 22.9424 25.8607 22.9514 25.8636 22.9602L27.1121 26.5865C27.1436 26.6779 27.2029 26.7573 27.2816 26.8135C27.3604 26.8697 27.4548 26.8998 27.5515 26.8998C27.6483 26.8998 27.7426 26.8697 27.8214 26.8135C27.9002 26.7573 27.9595 26.6779 27.991 26.5865L29.2426 22.9615C29.2456 22.9527 29.2463 22.9437 29.2487 22.9349C29.2535 22.9189 29.2573 22.9025 29.2602 22.886C29.2628 22.8701 29.2645 22.8541 29.2652 22.838C29.2652 22.8287 29.2679 22.8196 29.2679 22.8098V7.89284C29.2679 7.88115 29.2655 7.87053 29.2639 7.85937ZM28.3374 16.8805H26.7681V8.35768H28.3374V16.8805ZM26.7681 17.8102H28.3374V22.3436H26.7681V17.8102ZM27.9966 5.60899L28.2641 7.42799H26.8414L27.1089 5.60899H27.9966ZM27.5527 25.0081L26.9551 23.2733H28.1504L27.5527 25.0081Z" fill="white"/>
<path d="M19.1076 12.568H5.8396C5.71632 12.568 5.59808 12.617 5.51091 12.7041C5.42373 12.7913 5.37476 12.9096 5.37476 13.0328C5.37476 13.1561 5.42373 13.2744 5.51091 13.3615C5.59808 13.4487 5.71632 13.4977 5.8396 13.4977H19.1076C19.2309 13.4977 19.3491 13.4487 19.4363 13.3615C19.5234 13.2744 19.5724 13.1561 19.5724 13.0328C19.5724 12.9096 19.5234 12.7913 19.4363 12.7041C19.3491 12.617 19.2309 12.568 19.1076 12.568Z" fill="white"/>
<path d="M19.1076 15.4707H5.8396C5.71632 15.4707 5.59808 15.5197 5.51091 15.6069C5.42373 15.694 5.37476 15.8123 5.37476 15.9356C5.37476 16.0588 5.42373 16.1771 5.51091 16.2642C5.59808 16.3514 5.71632 16.4004 5.8396 16.4004H19.1076C19.2309 16.4004 19.3491 16.3514 19.4363 16.2642C19.5234 16.1771 19.5724 16.0588 19.5724 15.9356C19.5724 15.8123 19.5234 15.694 19.4363 15.6069C19.3491 15.5197 19.2309 15.4707 19.1076 15.4707Z" fill="white"/>
<path d="M19.1076 9.66455H5.8396C5.71632 9.66455 5.59808 9.71352 5.51091 9.8007C5.42373 9.88788 5.37476 10.0061 5.37476 10.1294C5.37476 10.2527 5.42373 10.3709 5.51091 10.4581C5.59808 10.5453 5.71632 10.5942 5.8396 10.5942H19.1076C19.2309 10.5942 19.3491 10.5453 19.4363 10.4581C19.5234 10.3709 19.5724 10.2527 19.5724 10.1294C19.5724 10.0061 19.5234 9.88788 19.4363 9.8007C19.3491 9.71352 19.2309 9.66455 19.1076 9.66455Z" fill="white"/>
<path d="M12.0481 4.66968H19.1076C19.2309 4.66968 19.3491 4.6207 19.4363 4.53353C19.5235 4.44635 19.5725 4.32812 19.5725 4.20483C19.5725 4.08155 19.5235 3.96332 19.4363 3.87614C19.3491 3.78896 19.2309 3.73999 19.1076 3.73999H12.0481C11.9248 3.73999 11.8066 3.78896 11.7194 3.87614C11.6322 3.96332 11.5833 4.08155 11.5833 4.20483C11.5833 4.32812 11.6322 4.44635 11.7194 4.53353C11.8066 4.6207 11.9248 4.66968 12.0481 4.66968Z" fill="white"/>
<path d="M7.61265 22.9131H5.8396C5.71632 22.9131 5.59808 22.9621 5.51091 23.0492C5.42373 23.1364 5.37476 23.2546 5.37476 23.3779V27.3743C5.37472 27.4353 5.38672 27.4958 5.41007 27.5522C5.43342 27.6086 5.46766 27.6599 5.51083 27.703C5.554 27.7462 5.60526 27.7804 5.66167 27.8038C5.71808 27.8271 5.77855 27.8391 5.8396 27.8391H7.61265C7.73593 27.8391 7.85417 27.7901 7.94134 27.703C8.02852 27.6158 8.07749 27.4975 8.07749 27.3743V23.3779C8.07742 23.2547 8.02842 23.1365 7.94126 23.0493C7.8541 22.9622 7.73591 22.9132 7.61265 22.9131ZM7.1478 26.9094H6.30444V23.8428H7.1478V26.9094Z" fill="white"/>
<path d="M11.4442 20.1055H9.67114C9.61006 20.1055 9.54959 20.1176 9.49317 20.141C9.43676 20.1644 9.3855 20.1987 9.34234 20.2419C9.29917 20.2851 9.26494 20.3364 9.2416 20.3928C9.21826 20.4493 9.20626 20.5098 9.2063 20.5708V27.3748C9.2063 27.4981 9.25527 27.6163 9.34245 27.7035C9.42962 27.7907 9.54786 27.8397 9.67114 27.8397H11.4442C11.5052 27.8397 11.5657 27.8277 11.6221 27.8044C11.6785 27.781 11.7298 27.7468 11.773 27.7036C11.8161 27.6604 11.8504 27.6092 11.8737 27.5528C11.8971 27.4963 11.9091 27.4359 11.909 27.3748V20.5708C11.9091 20.5098 11.8971 20.4493 11.8738 20.3928C11.8505 20.3363 11.8162 20.285 11.7731 20.2418C11.7299 20.1986 11.6786 20.1643 11.6222 20.1409C11.5658 20.1175 11.5053 20.1055 11.4442 20.1055ZM10.9793 26.9095H10.136V21.0352H10.9793V26.9095Z" fill="white"/>
<path d="M15.2762 21.1892H13.5029C13.3796 21.1892 13.2614 21.2382 13.1742 21.3254C13.0871 21.4125 13.0381 21.5308 13.0381 21.6541V27.3743C13.0381 27.4976 13.0871 27.6158 13.1742 27.703C13.2614 27.7902 13.3796 27.8391 13.5029 27.8391H15.2762C15.3995 27.8391 15.5178 27.7902 15.6049 27.703C15.6921 27.6158 15.7411 27.4976 15.7411 27.3743V21.6541C15.7411 21.5308 15.6921 21.4125 15.6049 21.3254C15.5178 21.2382 15.3995 21.1892 15.2762 21.1892ZM14.8114 26.9094H13.9678V22.1189H14.8114V26.9094Z" fill="white"/>
<path d="M19.1075 18.1687H17.3347C17.2114 18.1687 17.0932 18.2177 17.006 18.3049C16.9188 18.392 16.8699 18.5103 16.8699 18.6335V27.3742C16.8698 27.4353 16.8818 27.4957 16.9052 27.5521C16.9285 27.6085 16.9628 27.6598 17.0059 27.703C17.0491 27.7461 17.1004 27.7804 17.1568 27.8037C17.2132 27.8271 17.2737 27.8391 17.3347 27.839H19.1075C19.1686 27.8391 19.229 27.8271 19.2854 27.8037C19.3418 27.7804 19.3931 27.7461 19.4363 27.703C19.4794 27.6598 19.5137 27.6085 19.537 27.5521C19.5604 27.4957 19.5724 27.4353 19.5723 27.3742V18.6335C19.5723 18.5103 19.5234 18.392 19.4362 18.3049C19.349 18.2177 19.2308 18.1687 19.1075 18.1687ZM18.6427 26.9094H17.7996V19.0984H18.6427V26.9094Z" fill="white"/>
</svg>
