<svg width="33" height="33" viewBox="0 0 33 33" fill="none" xmlns="http://www.w3.org/2000/svg">
<path d="M30.5539 5.16805H27.9614V2.49788C27.9614 1.12058 26.8408 0 25.4634 0C24.0861 0 22.9655 1.12058 22.9655 2.49788V5.16805H6.73993V4.14408C6.73993 3.43451 6.16262 2.85721 5.45306 2.85721H3.59874C2.05799 2.85721 0.804443 4.11069 0.804443 5.65151V27.3451V27.3455C0.804443 27.3455 0.804443 27.3457 0.804443 27.3458C0.804443 28.8881 2.05928 30.1429 3.60158 30.1429H23.6105L24.2607 32.1284C24.4342 32.6578 24.9062 33 25.4634 33C26.0206 33 26.4928 32.6578 26.6661 32.1283L27.3162 30.1428H30.5538C31.4589 30.1428 32.1953 29.4064 32.1953 28.5013V6.80954C32.1954 5.90442 31.459 5.16805 30.5539 5.16805ZM23.9323 27.1306V7.24827H24.98V27.1306H23.9323V27.1306ZM23.9323 6.28147V5.02141H26.9946V6.28147H23.9323ZM25.4634 0.966797C26.3077 0.966797 26.9946 1.65367 26.9946 2.49788V4.05462H23.9323V2.49788C23.9323 1.65367 24.6192 0.966797 25.4634 0.966797ZM1.7713 5.65144C1.7713 4.64378 2.59115 3.82394 3.59881 3.82394H5.45312C5.6296 3.82394 5.7732 3.96754 5.7732 4.14401V24.2306C5.7732 24.4071 5.6296 24.5507 5.45312 24.5507H3.59881C2.90072 24.5507 2.2616 24.8081 1.7713 25.2328V5.65144ZM3.60171 29.176C2.59244 29.176 1.77137 28.3549 1.77137 27.3457V27.3451C1.77137 26.3374 2.59121 25.5176 3.59887 25.5176H5.45319C6.16275 25.5176 6.74006 24.9403 6.74006 24.2307V6.13484H22.9656V27.614C22.9656 27.9846 23.0241 28.3512 23.1395 28.7036L23.2941 29.176H3.60171ZM25.7473 31.8275C25.6865 32.0132 25.5285 32.0332 25.4635 32.0332C25.3985 32.0332 25.2405 32.0132 25.1797 31.8275C25.1231 31.6569 24.0229 28.3237 23.9789 28.0974H26.9481C26.9044 28.3218 25.8069 31.6476 25.7473 31.8275ZM31.2286 28.5014C31.2286 28.8734 30.9259 29.1761 30.5539 29.1761H27.6329L27.7876 28.7036C27.9029 28.3513 27.9614 27.9847 27.9614 27.614V11.521C27.9614 11.254 27.745 11.0376 27.478 11.0376C27.211 11.0376 26.9946 11.254 26.9946 11.521V27.1306H25.9468V7.24827H26.9946V9.26127C26.9946 9.52823 27.211 9.74467 27.478 9.74467C27.745 9.74467 27.9614 9.52823 27.9614 9.26127V6.13484H30.5539C30.9258 6.13484 31.2286 6.43751 31.2286 6.80954V28.5014Z" fill="white"/>
<path d="M20.5468 12.6109L15.7884 9.86361C15.3818 9.62888 14.8766 9.62888 14.47 9.86361L9.71154 12.6109C9.30645 12.8448 9.05231 13.2815 9.05231 13.7527V15.4978C9.05231 15.7648 9.26868 15.9812 9.53571 15.9812C9.80274 15.9812 10.0191 15.7648 10.0191 15.4978V14.1078L14.6457 16.779V22.1214L10.1949 19.5516C10.0864 19.489 10.019 19.3723 10.019 19.2472V17.7575C10.019 17.4905 9.80267 17.2741 9.53564 17.2741C9.26862 17.2741 9.05225 17.4905 9.05225 17.7575V19.2472C9.05225 19.7166 9.30484 20.1541 9.71147 20.3889L14.47 23.1362C14.8766 23.3709 15.3817 23.3709 15.7883 23.1362L20.5467 20.3889C20.9534 20.1541 21.206 19.7166 21.206 19.2471V13.7525C21.206 13.2834 20.9535 12.8457 20.5468 12.6109ZM14.9533 10.7009C15.0619 10.6383 15.1966 10.6383 15.305 10.7009L19.7558 13.2707L15.1292 15.9419L10.5026 13.2707L14.9533 10.7009ZM20.0634 19.5518L15.6125 22.1215V16.779L20.2392 14.1079V19.2472C20.2392 19.3724 20.1719 19.4891 20.0634 19.5518Z" fill="white"/>
</svg>
