<svg width="33" height="33" viewBox="0 0 33 33" fill="none" xmlns="http://www.w3.org/2000/svg">
<path d="M11.0706 8.25H12.0063C12.3622 8.25 12.6509 7.96144 12.6509 7.60547C12.6509 7.24949 12.3622 6.96094 12.0063 6.96094H11.0706C10.989 6.96094 10.9226 6.89455 10.9226 6.81295V6.1875H11.76C12.116 6.1875 12.4046 5.89894 12.4046 5.54297C12.4046 5.18699 12.116 4.89844 11.76 4.89844H10.9226V4.27298C10.9226 4.19139 10.989 4.125 11.0706 4.125H12.0063C12.3622 4.125 12.6509 3.83644 12.6509 3.48047C12.6509 3.12449 12.3622 2.83594 12.0063 2.83594H11.0706C10.2782 2.83594 9.63354 3.4806 9.63354 4.27298V6.81295C9.63354 7.60534 10.2782 8.25 11.0706 8.25Z" fill="white"/>
<path d="M15.4209 6.96094H14.3145C13.9585 6.96094 13.6699 7.24949 13.6699 7.60547C13.6699 7.96144 13.9585 8.25 14.3145 8.25H15.4209C16.345 8.25 17.0967 7.49822 17.0967 6.57422C17.0967 5.65022 16.345 4.89844 15.4209 4.89844H15.3457C15.1324 4.89844 14.959 4.72499 14.959 4.51172C14.959 4.29844 15.1324 4.125 15.3457 4.125H16.0877C16.4436 4.125 16.7322 3.83644 16.7322 3.48047C16.7322 3.12449 16.4436 2.83594 16.0877 2.83594H15.3457C14.4216 2.83594 13.6699 3.58772 13.6699 4.51172C13.6699 5.43572 14.4216 6.1875 15.3457 6.1875H15.4209C15.6342 6.1875 15.8076 6.36094 15.8076 6.57422C15.8076 6.78749 15.6342 6.96094 15.4209 6.96094Z" fill="white"/>
<path d="M8.33105 2.83594H6.2041C5.84819 2.83594 5.55957 3.12449 5.55957 3.48047C5.55957 3.83644 5.84819 4.125 6.2041 4.125H6.62305V7.60547C6.62305 7.96144 6.91167 8.25 7.26758 8.25C7.62349 8.25 7.91211 7.96144 7.91211 7.60547V4.125H8.33105C8.68696 4.125 8.97559 3.83644 8.97559 3.48047C8.97559 3.12449 8.68703 2.83594 8.33105 2.83594Z" fill="white"/>
<path d="M18.6113 4.125H19.0303V7.60547C19.0303 7.96144 19.3189 8.25 19.6748 8.25C20.0307 8.25 20.3193 7.96144 20.3193 7.60547V4.125H20.7383C21.0942 4.125 21.3828 3.83644 21.3828 3.48047C21.3828 3.12449 21.0942 2.83594 20.7383 2.83594H18.6113C18.2554 2.83594 17.9668 3.12449 17.9668 3.48047C17.9668 3.83644 18.2554 4.125 18.6113 4.125Z" fill="white"/>
<path d="M7.76441 10.8281H5.18628C4.83037 10.8281 4.54175 11.1167 4.54175 11.4727V14.0508C4.54175 14.4068 4.83037 14.6953 5.18628 14.6953H7.76441C8.12032 14.6953 8.40894 14.4068 8.40894 14.0508V11.4727C8.40894 11.1167 8.12038 10.8281 7.76441 10.8281ZM7.11988 13.4062H5.83081V12.1172H7.11988V13.4062Z" fill="white"/>
<path d="M20.8589 14.0508C20.8589 14.2203 20.9278 14.3866 21.0477 14.5065C21.1677 14.6263 21.3339 14.6953 21.5034 14.6953C21.6729 14.6953 21.8392 14.6263 21.959 14.5065C22.0796 14.3866 22.1479 14.2203 22.1479 14.0508C22.1479 13.8813 22.0796 13.715 21.959 13.5951C21.8392 13.4752 21.6735 13.4062 21.5034 13.4062C21.3339 13.4062 21.1676 13.4752 21.0477 13.5951C20.9278 13.715 20.8589 13.8813 20.8589 14.0508Z" fill="white"/>
<path d="M18.9255 13.4062H10.321C9.96513 13.4062 9.67651 13.6948 9.67651 14.0508C9.67651 14.4068 9.96513 14.6953 10.321 14.6953H18.9255C19.2814 14.6953 19.5701 14.4068 19.5701 14.0508C19.5701 13.6948 19.2815 13.4062 18.9255 13.4062Z" fill="white"/>
<path d="M7.76441 17.5312H5.18628C4.83037 17.5312 4.54175 17.8198 4.54175 18.1758V20.7539C4.54175 21.1099 4.83037 21.3984 5.18628 21.3984H7.76441C8.12032 21.3984 8.40894 21.1099 8.40894 20.7539V18.1758C8.40894 17.8198 8.12038 17.5312 7.76441 17.5312ZM7.11988 20.1094H5.83081V18.8203H7.11988V20.1094Z" fill="white"/>
<path d="M7.76441 24.2344H5.18628C4.83037 24.2344 4.54175 24.5229 4.54175 24.8789V27.457C4.54175 27.813 4.83037 28.1016 5.18628 28.1016H7.76441C8.12032 28.1016 8.40894 27.813 8.40894 27.457V24.8789C8.40894 24.5229 8.12038 24.2344 7.76441 24.2344ZM7.11988 26.8125H5.83081V25.5234H7.11988V26.8125Z" fill="white"/>
<path d="M15.856 26.8125H10.321C9.96513 26.8125 9.67651 27.1011 9.67651 27.457C9.67651 27.813 9.96513 28.1016 10.321 28.1016H15.856C16.2119 28.1016 16.5005 27.813 16.5005 27.457C16.5005 27.1011 16.2119 26.8125 15.856 26.8125Z" fill="white"/>
<path d="M31.3246 5.12982C30.758 4.80266 30.0979 4.71584 29.4661 4.88516C28.8341 5.05448 28.306 5.45976 27.9789 6.02637L27.3586 7.1008V7.10086V7.10093L26.4907 8.60417V2.19141C26.4907 0.983039 25.5077 0 24.2993 0H2.64307C1.4347 0 0.45166 0.983039 0.45166 2.19141V30.8086C0.45166 32.017 1.4347 33 2.64307 33H24.2993C25.5077 33 26.4907 32.017 26.4907 30.8086V18.498C26.4907 18.4688 26.4881 18.4402 26.4843 18.412L31.6008 9.55002L32.2211 8.47552C32.8963 7.30595 32.4942 5.8051 31.3246 5.12982ZM29.7997 6.13027C30.0991 6.04996 30.4117 6.09121 30.6801 6.24615C31.2341 6.56603 31.4246 7.27695 31.1047 7.83099L30.8066 8.34732L28.7972 7.18717L29.0953 6.67083C29.2503 6.40245 29.5004 6.21045 29.7997 6.13027ZM21.9546 23.6794L19.9452 22.5193L28.1526 8.3035L30.1621 9.46365L21.9546 23.6794ZM19.5757 23.7944L21.0351 24.637L19.2812 25.9898L19.5757 23.7944ZM25.2016 30.8086C25.2016 31.3062 24.7968 31.7109 24.2992 31.7109H2.643C2.14542 31.7109 1.74066 31.3062 1.74066 30.8086V2.19141C1.74066 1.69383 2.14542 1.28906 2.643 1.28906H24.2992C24.7968 1.28906 25.2016 1.69383 25.2016 2.19141V10.8281C25.2016 10.8308 25.202 10.8334 25.202 10.8361L19.8481 20.1094H10.321C9.96507 20.1094 9.67645 20.3979 9.67645 20.7539C9.67645 21.1099 9.96507 21.3984 10.321 21.3984H19.1039L18.5066 22.4329C18.4646 22.5057 18.4372 22.5861 18.426 22.6695L17.7952 27.3713C17.7605 27.6303 17.8855 27.8845 18.1117 28.0152C18.2119 28.073 18.3231 28.1016 18.434 28.1016C18.5734 28.1016 18.7123 28.0563 18.8276 27.9674L22.5842 25.0702C22.6507 25.0188 22.7066 24.9549 22.7487 24.8821L25.2016 20.6336V30.8086Z" fill="white"/>
</svg>
