<svg width="34" height="34" viewBox="0 0 34 34" fill="none" xmlns="http://www.w3.org/2000/svg">
<path d="M20.5988 28.3306L21.9587 32.8636H23.7718V33.9806H10.233V32.8749H12.0413C12.4979 31.3564 12.9414 29.8751 13.4028 28.342H1.94267C0.662127 28.342 0 27.6782 0 26.3993C0 18.2455 0 10.0933 0 1.94267C0 0.671841 0.67346 0 1.94267 0H32.0541C33.3346 0 33.9968 0.663747 33.9968 1.94267C33.9968 10.0911 33.9968 18.2395 33.9968 26.388C33.9968 27.6685 33.333 28.3306 32.0541 28.3306H20.5988ZM1.13323 23.7702H32.8635V23.4222C32.8635 16.2872 32.8635 9.15269 32.8635 2.01876C32.8635 1.28216 32.7114 1.13646 31.9505 1.13646H2.01067C1.29511 1.13323 1.13323 1.29512 1.13323 2.01714V23.7702ZM32.8635 24.965H1.13323V26.286C1.13323 27.0598 1.27245 27.199 2.05114 27.199H30.3332C30.9532 27.199 31.5733 27.199 32.1933 27.199C32.5997 27.199 32.8409 27.0048 32.8538 26.6438C32.8749 26.0885 32.8635 25.5381 32.8635 24.965ZM14.5862 28.3517L13.2409 32.8409H20.7591C20.3058 31.3224 19.8622 29.8411 19.417 28.3517H14.5862Z" fill="white"/>
<path d="M21.5313 22.6645H13.2749C11.9944 22.6645 11.3323 22.0008 11.3323 20.7218C11.3323 16.9067 11.3323 13.0898 11.3323 9.27141C11.3323 8.04267 12.0074 7.36921 13.2329 7.36759C15.2435 7.36759 17.2526 7.36759 19.2616 7.36759C19.5249 7.36093 19.7866 7.4108 20.029 7.51385C20.2714 7.6169 20.4889 7.77073 20.6668 7.96497C21.0958 8.4134 21.5491 8.83755 21.9765 9.2876C22.0847 9.40655 22.2179 9.50004 22.3665 9.56134C22.5152 9.62265 22.6755 9.65024 22.8361 9.64214C25.169 9.62919 27.5018 9.64214 29.8346 9.64214C31.0407 9.64214 31.7287 10.3205 31.7303 11.5136C31.7303 14.6283 31.7303 17.7436 31.7303 20.8595C31.7303 21.9668 31.0148 22.6775 29.9026 22.6775H21.5313V22.6645ZM21.5507 21.5313H29.8071C30.4142 21.5313 30.5971 21.3451 30.5971 20.7316V11.5864C30.5971 10.9389 30.4239 10.777 29.7877 10.777C27.4252 10.777 25.0643 10.777 22.705 10.777C22.4348 10.7843 22.1662 10.7338 21.9171 10.6288C21.6681 10.5238 21.4443 10.3668 21.2609 10.1683C20.8303 9.72147 20.3787 9.29408 19.9496 8.84726C19.8462 8.73308 19.7189 8.64301 19.5768 8.58343C19.4347 8.52384 19.2812 8.4962 19.1272 8.50244C17.1975 8.51377 15.2678 8.50244 13.3397 8.50244C12.6339 8.50244 12.4752 8.66433 12.4752 9.34912C12.4752 13.1125 12.4752 16.8759 12.4752 20.6393C12.4752 21.3807 12.6258 21.5281 13.3834 21.5297L21.5507 21.5313Z" fill="white"/>
<path d="M20.2557 5.80696L19.464 6.63745C19.1532 6.32986 18.8489 6.0498 18.5688 5.74706C18.5125 5.66514 18.4271 5.60768 18.33 5.58634C18.2329 5.56499 18.1314 5.58136 18.0459 5.63212C17.5408 5.85553 17.0292 6.0676 16.5063 6.24244C16.2988 6.30801 16.076 6.30801 15.8685 6.24244C15.3716 6.07062 14.8851 5.87008 14.4115 5.64183C14.249 5.55998 14.1168 5.4284 14.0343 5.26625C13.785 4.74335 13.5842 4.19616 13.3333 3.67488C13.2949 3.60698 13.2418 3.54849 13.178 3.50368C13.1141 3.45887 13.0411 3.42887 12.9642 3.41586C11.7273 3.3511 11.6691 3.33653 11.2498 4.51347C10.9632 5.32291 10.4662 5.7244 9.69725 6.02875C9.03674 6.28939 8.46689 6.39138 7.84523 6.01742C7.66476 5.92773 7.47746 5.85248 7.28509 5.79239C6.60354 5.51556 6.63754 5.54632 6.06445 6.03523C5.60792 6.427 5.47032 6.79772 5.8119 7.33034C6.43518 8.30168 6.34775 9.24387 5.80381 10.2314C5.59011 10.6199 5.38775 10.913 4.95389 11.0587C4.50959 11.2154 4.07682 11.4031 3.65877 11.6204C3.54707 11.6754 3.49688 11.8471 3.41108 11.9652C3.41108 11.9749 3.41108 11.9911 3.41108 12.0041C3.37547 13.2166 3.3528 13.2814 4.50384 13.6813C5.33109 13.9694 5.72934 14.4907 6.04017 15.2662C6.29919 15.9137 6.40442 16.4771 6.0256 17.0842C5.98873 17.1561 5.95891 17.2315 5.93656 17.3092C5.48488 18.4748 5.48165 18.478 6.47727 19.2826C6.53545 19.316 6.60018 19.3363 6.66699 19.3422C6.73379 19.348 6.80108 19.3393 6.86418 19.3166C7.42108 19.111 7.96503 18.8763 8.51869 18.6594C8.62314 18.6049 8.7422 18.585 8.85866 18.6027C9.37185 18.797 9.87532 19.0187 10.4257 19.2502L9.99027 20.2782C9.69401 20.1617 9.41232 20.0759 9.15492 19.9448C9.03054 19.8777 8.89147 19.8426 8.75019 19.8426C8.60891 19.8426 8.46984 19.8777 8.34547 19.9448C7.77886 20.1957 7.19282 20.4045 6.62297 20.6474C6.53527 20.6952 6.43325 20.7097 6.33569 20.6883C6.23812 20.6669 6.15157 20.611 6.09197 20.5308C5.53831 19.9566 4.97547 19.3933 4.40346 18.8407C4.32478 18.7794 4.27082 18.6918 4.25149 18.594C4.23217 18.4962 4.24876 18.3946 4.29824 18.3081C4.55402 17.6994 4.7839 17.0826 5.03321 16.4674C5.2032 16.0384 4.80495 15.0751 4.38566 14.889C3.76724 14.6202 3.14235 14.366 2.53364 14.0795C2.4664 14.0398 2.40902 13.9854 2.36584 13.9204C2.32266 13.8553 2.29479 13.7813 2.28433 13.7039C2.26167 12.8815 2.26167 12.0575 2.28433 11.2367C2.29572 11.1595 2.32433 11.0857 2.36804 11.021C2.41176 10.9563 2.46946 10.9022 2.53688 10.8628C3.11968 10.5811 3.71382 10.3253 4.31766 10.0841C4.5501 9.98571 4.73605 9.80207 4.83733 9.57089C4.98356 9.33018 5.0625 9.05463 5.06592 8.773C5.06933 8.49137 4.9971 8.21399 4.85675 7.9698C4.63549 7.52229 4.45035 7.05781 4.30309 6.58079C4.28419 6.50425 4.28252 6.42446 4.2982 6.3472C4.31387 6.26993 4.34651 6.1971 4.39375 6.13398C4.95928 5.53715 5.54101 4.95542 6.13892 4.38881C6.20194 4.34075 6.27498 4.30749 6.35261 4.29152C6.43024 4.27554 6.51047 4.27726 6.58735 4.29654C7.18526 4.51239 7.774 4.74605 8.35356 4.99752C8.61294 5.10367 8.90364 5.10367 9.16301 4.99752C9.42783 4.92653 9.66962 4.78786 9.86462 4.59513C10.0596 4.40241 10.2011 4.16226 10.2752 3.89829C10.4413 3.428 10.6387 2.96937 10.8661 2.52547C10.906 2.45849 10.9603 2.40114 11.0249 2.35749C11.0895 2.31384 11.163 2.28497 11.2401 2.27292C12.0624 2.25025 12.8854 2.25025 13.7089 2.27292C13.7868 2.28409 13.8612 2.31295 13.9263 2.35728C13.9914 2.40162 14.0455 2.46025 14.0844 2.5287C14.3661 3.13579 14.609 3.76716 14.8939 4.371C14.9878 4.53971 15.1254 4.68006 15.2921 4.77735C15.5471 4.95274 15.8477 5.04998 16.1571 5.05717C16.4665 5.06435 16.7712 4.98118 17.0341 4.81782C17.4573 4.60851 17.8963 4.4326 18.347 4.29168C18.4039 4.26573 18.4657 4.2523 18.5283 4.2523C18.5909 4.2523 18.6527 4.26573 18.7096 4.29168C19.2358 4.78706 19.736 5.29377 20.2557 5.80696Z" fill="white"/>
<path d="M10.4515 16.5451L9.98525 17.4728C8.55576 17.1959 6.98058 14.9068 6.81383 12.8978C6.62604 10.6426 8.04257 8.15764 9.96582 7.43237C10.118 7.73511 10.275 8.04108 10.4515 8.3859C8.86659 9.28763 7.95191 10.62 7.94868 12.4461C7.94544 14.2722 8.82774 15.624 10.4515 16.5451Z" fill="white"/>
<path d="M18.5606 18.2401L17.7624 19.0495L14.6299 15.8797L17.7867 12.731L18.4764 13.4805L16.048 15.8069L18.5606 18.2401Z" fill="white"/>
<path d="M24.5215 13.5032L25.2937 12.6808L28.4489 15.8991L25.2937 19.0479L24.638 18.2514L27.0745 15.9364L24.5215 13.5032Z" fill="white"/>
<path d="M20.9031 18.988L19.9124 18.4311C20.8626 16.7216 21.7951 15.046 22.7454 13.3348L23.7346 13.8869L20.9031 18.988Z" fill="white"/>
</svg>
