<svg width="26" height="34" viewBox="0 0 26 34" fill="none" xmlns="http://www.w3.org/2000/svg">
<path d="M4.46185 9.01698C5.00399 8.92334 5.36741 8.40817 5.27403 7.86603C4.74356 4.79214 7.11473 1.99219 10.2143 1.99219C13.3045 1.99219 15.6798 4.77892 15.1566 7.85384C15.0645 8.39624 15.4293 8.91063 15.9717 9.00298C16.5141 9.09558 17.0285 8.73035 17.1208 8.18794C17.8487 3.90811 14.5455 0 10.2143 0C5.88803 0 2.56901 3.90759 3.31089 8.2048C3.40454 8.7485 3.92178 9.11037 4.46185 9.01698Z" fill="white"/>
<path d="M20.8136 15.9803C20.0671 14.515 18.2889 13.93 16.8292 14.6522C16.1506 13.3202 14.5987 12.6909 13.188 13.1806V7.08032C13.188 5.4544 11.8815 4.09593 10.275 4.05183C8.59175 4.0041 7.19696 5.3522 7.19696 7.03907V22.3844L6.02681 21.159C4.90361 19.9831 3.02296 19.9004 1.83413 20.9751C0.579677 22.1089 0.517162 24.0396 1.67227 25.2531L8.39746 32.4263C9.33519 33.4262 10.6597 34 12.0309 34H20.142C22.8883 34 25.1225 31.7658 25.1225 29.0196V18.6602C25.1225 16.4535 22.7949 15 20.8136 15.9803ZM23.1303 29.0196C23.1303 30.6673 21.7897 32.0079 20.142 32.0079H12.0309C11.208 32.0079 10.4135 31.6636 9.85087 31.0634C9.82675 31.038 3.14047 23.9063 3.11634 23.8809C2.73114 23.4772 2.74955 22.8331 3.16978 22.4529C3.56588 22.0951 4.20115 22.132 4.58584 22.5348L7.47244 25.5576C8.09137 26.2061 9.18888 25.7662 9.18888 24.8699V7.03907C9.18888 6.47929 9.65321 6.02742 10.2208 6.04324C10.7585 6.05802 11.1959 6.52313 11.1959 7.08032C11.1959 18.041 11.1772 13.0727 11.1772 18.9922C11.1772 19.544 11.6265 19.9935 12.1826 19.9878C12.738 19.9935 13.188 19.5442 13.188 18.9922V15.8146C13.2768 15.3554 13.6809 15.0078 14.1655 15.0078C14.7146 15.0078 15.1616 15.4548 15.1616 16.0039V18.9922C15.1616 19.5424 15.6075 19.9883 16.1576 19.9883C16.7078 19.9883 17.1537 19.5424 17.1537 18.9922V17.3321C17.1537 16.7829 17.6007 16.336 18.1498 16.336C18.699 16.336 19.1459 16.7829 19.1459 17.3321V18.9922C19.1459 19.5424 19.5918 19.9883 20.142 19.9883C20.6922 19.9883 21.1381 19.5424 21.1381 18.9922V18.6602C21.1381 18.111 21.5851 17.6641 22.1342 17.6641C22.6834 17.6641 23.1303 18.111 23.1303 18.6602V29.0196Z" fill="white"/>
</svg>
