<svg width="38" height="38" viewBox="0 0 38 38" fill="none" xmlns="http://www.w3.org/2000/svg">
<path d="M18.4784 26.588L17.1747 27.063C17.5052 27.6987 17.5052 27.6987 17.0095 28.1936L16.2808 28.9269C15.8429 29.3673 15.676 29.364 15.2282 28.9087C15.0145 28.6935 14.7997 28.4795 14.5838 28.2665C14.5457 28.2393 14.5053 28.2155 14.4632 28.1953L13.1693 29.4815C12.6736 29.9781 12.5514 29.9781 12.0606 29.4815L8.49973 25.9175C8.10481 25.5203 8.09985 25.3448 8.49973 24.9541C8.95744 24.5006 9.42506 24.0553 9.96539 23.5339C9.61343 23.2177 9.30444 22.9628 9.02684 22.683C8.74924 22.4033 8.73272 22.1699 9.02684 21.8653C9.32096 21.5607 9.61013 21.2793 9.9026 20.9863C10.3636 20.5245 10.4198 20.5179 10.9833 20.8853C11.1485 20.4583 11.2922 20.0395 11.4558 19.5925C10.6487 19.3493 9.79616 19.2977 8.9657 19.4419C7.54255 19.6502 6.17265 20.1307 4.9306 20.8572C3.87969 21.4564 2.88165 22.1467 1.86544 22.8039C1.63741 22.9512 1.4193 23.1084 1.15657 22.8949C0.893843 22.6814 1.0029 22.4645 1.09543 22.2195C2.0092 19.8061 3.15595 17.5217 4.84302 15.5485C7.59092 12.3355 11.0328 10.5941 15.3108 10.806C16.0379 10.8408 16.4344 10.6405 16.874 10.0975C19.7893 6.43183 23.6143 3.5972 27.9664 1.87715C30.9197 0.677099 34.0709 0.0404574 37.2577 0C37.8856 0 38.0046 0.114218 37.9996 0.751521C37.9636 3.77863 37.3901 6.77516 36.3059 9.60093C35.1565 12.6686 33.4563 15.4995 31.2893 17.9537C30.125 19.2801 28.8351 20.4903 27.4376 21.5673C27.3423 21.6311 27.2675 21.7211 27.2223 21.8266C27.1772 21.9321 27.1636 22.0485 27.1831 22.1616C27.55 26.3397 26.0843 29.8125 23.0853 32.668C21.1586 34.5104 18.8535 35.7717 16.3849 36.7484C16.1748 36.8558 15.953 36.9386 15.7239 36.995C15.5238 37.0333 15.3167 36.9962 15.1423 36.8907C14.9192 36.7103 15.0531 36.472 15.1869 36.2634C15.8478 35.2453 16.5551 34.2555 17.1367 33.196C18.0885 31.4646 18.7742 29.6371 18.6238 27.6027C18.6139 27.2832 18.5396 26.9819 18.4784 26.588ZM30.1475 2.05427C30.0335 2.08241 29.9542 2.09731 29.8782 2.12214C24.9194 3.75595 20.8116 6.62133 17.5234 10.6736C14.9159 13.8634 13.128 17.4969 11.7533 21.3538C11.7121 21.4464 11.7036 21.5502 11.7292 21.6483C11.7547 21.7463 11.8127 21.8328 11.8937 21.8934C13.3114 23.2994 14.7226 24.713 16.1271 26.1344C16.3204 26.3281 16.4807 26.386 16.7385 26.2718C18.5561 25.4756 20.4233 24.7952 22.1764 23.8848C28.2737 20.7198 32.7946 16.0567 35.3541 9.60093C35.5772 9.04308 35.7639 8.47034 35.9754 7.87773C32.9037 7.04841 30.977 5.13153 30.1475 2.05427ZM15.5669 11.7198C15.4562 11.7032 15.3918 11.6867 15.3273 11.6833C11.8524 11.4979 8.91943 12.7312 6.45244 15.1297C5.08427 16.454 4.04492 18.0266 3.16917 19.7084C2.92627 20.1735 2.71972 20.6569 2.49665 21.132C2.62169 21.1252 2.74314 21.0877 2.85026 21.0227C4.0598 20.4053 5.23794 19.7117 6.48548 19.1886C8.04037 18.5414 9.68283 18.2451 11.3666 18.6539C11.7202 18.74 11.8392 18.6341 11.9813 18.3361C12.5993 17.0499 13.2123 15.7505 13.8881 14.4891C14.3838 13.5588 14.9803 12.6782 15.5669 11.7198ZM16.8112 35.5797C16.95 35.5383 16.9996 35.5284 17.0442 35.5085C19.0898 34.5965 20.9933 33.4576 22.6193 31.8817C24.7508 29.8092 26.0678 27.3329 26.3156 24.34C26.3669 23.7325 26.3156 23.1184 26.3156 22.486C26.2539 22.4957 26.1935 22.5124 26.1355 22.5357C24.0705 23.9565 21.8651 25.1607 19.5541 26.1294C19.3195 26.2288 19.3195 26.3612 19.3459 26.5797C19.4252 27.2319 19.5475 27.894 19.5112 28.5446C19.4137 30.531 18.6569 32.3154 17.7101 34.0287C17.4473 34.5286 17.145 35.0119 16.8112 35.5797ZM36.2497 6.9524C36.7554 4.98421 37.1222 2.9945 37.104 0.951816C36.0168 0.768074 31.8709 1.37889 31.0728 1.82087C31.4033 4.22441 33.9232 6.74217 36.2497 6.9524ZM9.38045 25.3961L12.6224 28.6373L13.7659 27.5613L10.4925 24.2639L9.38045 25.3961ZM16.2626 27.7136C14.2682 25.7123 12.325 23.759 10.3603 21.7858L9.97695 22.1815C11.9499 24.1679 13.8931 26.1245 15.8561 28.0976L16.2626 27.7136Z" fill="#00BE4C"/>
<path d="M3.97428 34.6196C3.53474 34.6196 3.32985 34.2885 3.5017 33.979C3.58529 33.8526 3.68532 33.7379 3.79912 33.638L8.52492 28.902C8.60258 28.8242 8.67859 28.6984 8.76782 28.6869C8.9628 28.6604 9.2437 28.619 9.34285 28.7233C9.44199 28.8276 9.38581 29.1057 9.36102 29.3026C9.35111 29.3804 9.2404 29.4467 9.17265 29.5145C7.57646 31.1114 5.97916 32.7082 4.38076 34.3051C4.25331 34.4199 4.11744 34.5251 3.97428 34.6196Z" fill="#00BE4C"/>
<path d="M3.28854 27.3295C2.89032 27.346 2.6656 27.0249 2.79283 26.7385C2.83991 26.6401 2.90428 26.5509 2.98286 26.4753C4.08444 25.3651 5.19208 24.2555 6.30578 23.1464L6.36362 23.0869C6.57182 22.8948 6.8015 22.827 7.02457 23.0422C7.24764 23.2574 7.1898 23.5007 6.99482 23.7043C6.49911 24.2009 6.0034 24.6975 5.50769 25.1941C4.87648 25.8264 4.24692 26.4621 3.60911 27.0894C3.50902 27.1781 3.40181 27.2584 3.28854 27.3295Z" fill="#00BE4C"/>
<path d="M11.1571 35.3744C11.0084 35.2652 10.8382 35.2089 10.7887 35.0897C10.7606 35.0167 10.7475 34.9387 10.7504 34.8604C10.7532 34.7822 10.7719 34.7053 10.8052 34.6345C10.9406 34.4448 11.0982 34.272 11.2745 34.1197C12.2339 33.153 13.1956 32.189 14.1595 31.2278C14.2372 31.15 14.3132 31.0259 14.4024 31.0126C14.5974 30.9862 14.8766 30.9431 14.9807 31.0458C15.0848 31.1484 15.0204 31.4265 15.0006 31.6235C15.0006 31.688 14.8948 31.7443 14.8353 31.8022C13.7662 32.8732 12.7005 33.9542 11.6281 35.0136C11.4783 35.1431 11.3211 35.2636 11.1571 35.3744Z" fill="#00BE4C"/>
<path d="M7.56489 26.9918C7.48025 27.1379 7.38469 27.2773 7.27902 27.409C6.21379 28.4849 5.14416 29.5565 4.07011 30.6236C3.86191 30.8305 3.63058 30.9398 3.38603 30.7064C3.14148 30.473 3.23401 30.2098 3.45378 29.9913C4.52451 28.9186 5.58864 27.8394 6.6726 26.7816C6.74693 26.719 6.83309 26.6721 6.92593 26.6437C7.01877 26.6152 7.11638 26.6058 7.21293 26.6161C7.34016 26.6508 7.44426 26.8528 7.56489 26.9918Z" fill="#00BE4C"/>
<path d="M7.74004 34.8234C7.35669 34.8234 7.12701 34.4923 7.26251 34.2159C7.33119 34.097 7.41818 33.9897 7.52028 33.8981L10.5557 30.8556C10.6053 30.8076 10.6515 30.7562 10.7028 30.7115C10.9027 30.5311 11.1191 30.4831 11.3273 30.6801C11.5355 30.8771 11.5207 31.127 11.3174 31.3339C10.7193 31.9431 10.1145 32.5473 9.51304 33.1548C9.0355 33.6332 8.56293 34.1149 8.07878 34.585C7.97379 34.6752 7.86035 34.755 7.74004 34.8234Z" fill="#00BE4C"/>
<path d="M25.6567 8.66074C26.3928 8.66631 27.1107 8.89023 27.7198 9.30424C28.3289 9.71825 28.8018 10.3038 29.079 10.9869C29.3561 11.67 29.425 12.4201 29.2769 13.1424C29.1289 13.8647 28.7705 14.5268 28.247 15.0452C27.7235 15.5636 27.0585 15.915 26.3358 16.055C25.6132 16.195 24.8653 16.1174 24.1866 15.8319C23.508 15.5464 22.929 15.0658 22.5228 14.4509C22.1165 13.836 21.9013 13.1143 21.9042 12.377C21.9064 11.8859 22.0052 11.4001 22.1951 10.9474C22.385 10.4947 22.6621 10.084 23.0107 9.7388C23.3593 9.39358 23.7725 9.12066 24.2265 8.93567C24.6806 8.75068 25.1666 8.65725 25.6567 8.66074ZM25.6386 15.2291C26.2004 15.2281 26.7494 15.0602 27.216 14.7467C27.6826 14.4331 28.0458 13.988 28.2599 13.4675C28.4739 12.9471 28.5291 12.3748 28.4184 11.823C28.3077 11.2711 28.0361 10.7646 27.638 10.3674C27.2399 9.97022 26.7332 9.70022 26.1819 9.59158C25.6306 9.48294 25.0595 9.54052 24.5409 9.75705C24.0223 9.97358 23.5794 10.3393 23.2683 10.808C22.9572 11.2767 22.7919 11.8273 22.7932 12.3902C22.7971 13.1439 23.0985 13.8655 23.6316 14.3974C24.1647 14.9292 24.8862 15.2282 25.6386 15.2291Z" fill="#00BE4C"/>
</svg>
