<svg width="583" height="73" viewBox="0 0 583 73" fill="none" xmlns="http://www.w3.org/2000/svg">
<path d="M13.8733 69.04L13.587 69.9982L13.5944 70.0004L13.6018 70.0024L13.8733 69.04ZM1.96925 63.376L1.05761 62.965L0.73177 63.6878L1.36117 64.1699L1.96925 63.376ZM7.24925 51.664L7.84061 50.8576L6.84502 50.1275L6.33761 51.253L7.24925 51.664ZM17.5213 56.752L17.8283 55.8003L17.5213 56.752ZM39.2173 56.752L39.7356 57.6072L39.7449 57.6015L39.7541 57.5957L39.2173 56.752ZM40.4653 47.536L39.7985 48.2812L39.819 48.2996L39.8406 48.3169L40.4653 47.536ZM35.6653 44.944L35.349 45.8927L35.3582 45.8957L35.6653 44.944ZM27.7933 42.832L27.5622 43.805L27.5684 43.8064L27.7933 42.832ZM15.2173 39.184L15.5664 38.2469L15.2173 39.184ZM6.76925 33.328L6.00992 33.9788L6.01889 33.989L6.76925 33.328ZM6.48125 12.016L7.31072 12.5746L7.31586 12.5668L6.48125 12.016ZM15.9853 4.432L15.588 3.51426L15.583 3.51648L15.9853 4.432ZM44.2093 3.184L44.4518 2.21385H44.4518L44.2093 3.184ZM54.9613 7.6L55.8876 7.97658L56.2043 7.19764L55.4913 6.752L54.9613 7.6ZM50.1613 19.408L49.668 20.2779L50.6587 20.8396L51.0876 19.7846L50.1613 19.408ZM21.8413 16.24L21.2866 15.408L21.2806 15.4119L21.2747 15.416L21.8413 16.24ZM22.3213 26.992L21.8838 27.8912L21.8982 27.8983L21.9129 27.9048L22.3213 26.992ZM33.3613 30.256L33.5923 29.2831L33.5846 29.2812L33.5768 29.2795L33.3613 30.256ZM45.9373 33.904L46.2864 32.9669L45.9373 33.904ZM54.2893 39.664L53.5377 40.3239L53.5469 40.334L54.2893 39.664ZM54.5773 60.88L53.7503 60.3177L53.7478 60.3214L54.5773 60.88ZM44.9772 68.368L44.58 67.4503L44.9772 68.368ZM29.3293 70.152C24.1068 70.152 19.0463 69.46 14.1447 68.0776L13.6018 70.0024C18.6842 71.436 23.9277 72.152 29.3293 72.152V70.152ZM14.1595 68.0818C9.30893 66.633 5.46121 64.7911 2.57733 62.5821L1.36117 64.1699C4.49329 66.5689 8.58157 68.503 13.587 69.9982L14.1595 68.0818ZM2.88089 63.787L8.16089 52.075L6.33761 51.253L1.05761 62.965L2.88089 63.787ZM6.65789 52.4704C9.63736 54.6553 13.161 56.3962 17.2142 57.7037L17.8283 55.8003C13.9455 54.5478 10.6211 52.8966 7.84061 50.8576L6.65789 52.4704ZM17.2142 57.7037C21.2764 59.0141 25.3478 59.672 29.4253 59.672V57.672C25.5667 57.672 21.7021 57.0499 17.8283 55.8003L17.2142 57.7037ZM29.4253 59.672C33.8996 59.672 37.3872 59.0304 39.7356 57.6072L38.6989 55.8968C36.8233 57.0336 33.7829 57.672 29.4253 57.672V59.672ZM39.7541 57.5957C42.1036 56.1005 43.3853 54.0462 43.3853 51.472H41.3853C41.3853 53.2498 40.5549 54.7155 38.6804 55.9083L39.7541 57.5957ZM43.3853 51.472C43.3853 49.5597 42.6004 47.9635 41.0899 46.7551L39.8406 48.3169C40.8901 49.1565 41.3853 50.1843 41.3853 51.472H43.3853ZM41.132 46.7908C39.7872 45.5875 38.0537 44.6637 35.9723 43.9923L35.3582 45.8957C37.2448 46.5043 38.7113 47.3085 39.7985 48.2812L41.132 46.7908ZM35.9815 43.9953C34.018 43.3408 31.3591 42.6286 28.0181 41.8576L27.5684 43.8064C30.8834 44.5714 33.4725 45.2672 35.349 45.8927L35.9815 43.9953ZM28.0243 41.8591C22.9264 40.6483 18.7777 39.4433 15.5664 38.2469L14.8681 40.1211C18.1848 41.3567 22.4201 42.5837 27.5622 43.8049L28.0243 41.8591ZM15.5664 38.2469C12.4613 37.0901 9.78188 35.2349 7.51961 32.667L6.01889 33.989C8.49262 36.7971 11.4452 38.8459 14.8681 40.1211L15.5664 38.2469ZM7.52851 32.6772C5.41757 30.2145 4.31325 26.8825 4.31325 22.576H2.31325C2.31325 27.2295 3.51293 31.0655 6.00999 33.9788L7.52851 32.6772ZM4.31325 22.576C4.31325 18.8641 5.31364 15.5399 7.31069 12.5746L5.65181 11.4574C3.42486 14.7641 2.31325 18.4799 2.31325 22.576H4.31325ZM7.31586 12.5668C9.30198 9.55757 12.3035 7.14201 16.3875 5.34752L15.583 3.51648C11.219 5.43399 7.88452 8.07442 5.64664 11.4652L7.31586 12.5668ZM16.3825 5.34972C20.5123 3.5622 25.5849 2.648 31.6333 2.648V0.647999C25.3936 0.647999 20.0342 1.5898 15.588 3.51427L16.3825 5.34972ZM31.6333 2.648C35.8408 2.648 39.9513 3.15028 43.9667 4.15414L44.4518 2.21385C40.2752 1.16972 36.0017 0.647999 31.6333 0.647999V2.648ZM43.9667 4.15414C47.9775 5.15684 51.4614 6.59183 54.4313 8.448L55.4913 6.752C52.3171 4.76817 48.633 3.25916 44.4518 2.21385L43.9667 4.15414ZM54.0349 7.22342L49.2349 19.0314L51.0876 19.7846L55.8876 7.97658L54.0349 7.22342ZM50.6545 18.5381C44.3189 14.9457 37.9426 13.128 31.5373 13.128V15.128C37.5479 15.128 43.5876 16.8303 49.668 20.2779L50.6545 18.5381ZM31.5373 13.128C27.113 13.128 23.6428 13.8371 21.2866 15.408L22.396 17.072C24.2637 15.8269 27.2575 15.128 31.5373 15.128V13.128ZM21.2747 15.416C18.9806 16.9932 17.7693 19.1453 17.7693 21.808H19.7693C19.7693 19.8627 20.6059 18.3028 22.4078 17.064L21.2747 15.416ZM17.7693 21.808C17.7693 23.1407 18.1149 24.3502 18.8323 25.3972C19.5445 26.4366 20.5833 27.2586 21.8838 27.8912L22.7587 26.0928C21.6912 25.5734 20.954 24.9554 20.4822 24.2668C20.0156 23.5858 19.7693 22.7793 19.7693 21.808H17.7693ZM21.9129 27.9048C24.4394 29.0351 28.199 30.1404 33.1457 31.2325L33.5768 29.2795C28.6675 28.1956 25.0671 27.1249 22.7296 26.0792L21.9129 27.9048ZM33.1302 31.2289C38.2281 32.4397 42.3769 33.6447 45.5881 34.8411L46.2864 32.9669C42.9697 31.7313 38.7344 30.5043 33.5923 29.2831L33.1302 31.2289ZM45.5881 34.8411C48.6968 35.9992 51.3426 37.8237 53.5378 40.3238L55.0407 39.0042C52.6279 36.2563 49.7057 34.2408 46.2864 32.9669L45.5881 34.8411ZM53.5469 40.334C55.7082 42.729 56.8413 46.019 56.8413 50.32H58.8413C58.8413 45.661 57.6063 41.847 55.0316 38.994L53.5469 40.334ZM56.8413 50.32C56.8413 53.9578 55.8145 57.2822 53.7503 60.3177L55.4042 61.4423C57.692 58.0778 58.8413 54.3622 58.8413 50.32H56.8413ZM53.7478 60.3214C51.7653 63.2652 48.734 65.6523 44.58 67.4503L45.3745 69.2857C49.7965 67.3717 53.1652 64.7668 55.4067 61.4386L53.7478 60.3214ZM44.58 67.4503C40.4502 69.2378 35.3776 70.152 29.3293 70.152V72.152C35.5689 72.152 40.9283 71.2102 45.3745 69.2857L44.58 67.4503ZM82.1 66.64L81.6247 67.5198L81.6289 67.5221L82.1 66.64ZM68.948 54.256L68.0869 54.7644L68.0905 54.7705L68.0942 54.7766L68.948 54.256ZM68.948 18.64L68.0914 18.124L68.0896 18.127L68.948 18.64ZM82.1 6.16L81.6289 5.27791L81.6247 5.28018L82.1 6.16ZM132.98 18.64L132.123 19.156L132.126 19.1606L132.98 18.64ZM132.98 54.256L133.834 54.7766L133.837 54.772L132.98 54.256ZM119.828 66.64L120.303 67.5198L119.828 66.64ZM111.764 55.216L112.253 56.0885L112.259 56.0848L112.266 56.081L111.764 55.216ZM119.252 47.536L118.383 47.0417L118.379 47.0482L118.375 47.0547L119.252 47.536ZM119.252 25.264L118.375 25.7453L118.379 25.7518L118.383 25.7583L119.252 25.264ZM111.764 17.68L111.262 18.545L111.269 18.5488L111.275 18.5525L111.764 17.68ZM90.26 17.68L90.7486 18.5525L90.7552 18.5488L90.7617 18.545L90.26 17.68ZM82.676 25.264L81.8067 24.7697L81.803 24.7762L81.7994 24.7827L82.676 25.264ZM82.676 47.536L81.7994 48.0173L81.803 48.0238L81.8067 48.0303L82.676 47.536ZM90.26 55.216L89.7583 56.081L89.7648 56.0848L89.7714 56.0885L90.26 55.216ZM101.012 70.152C94.1848 70.152 88.045 68.6815 82.5711 65.7579L81.6289 67.5221C87.419 70.6145 93.8872 72.152 101.012 72.152V70.152ZM82.5753 65.7602C77.1582 62.8337 72.9068 58.8277 69.8018 53.7354L68.0942 54.7766C71.3892 60.1803 75.9058 64.4303 81.6247 67.5198L82.5753 65.7602ZM69.8091 53.7476C66.7703 48.6002 65.244 42.8259 65.244 36.4H63.244C63.244 43.1581 64.8537 49.2878 68.0869 54.7644L69.8091 53.7476ZM65.244 36.4C65.244 29.974 66.7703 24.2338 69.8064 19.153L68.0896 18.127C64.8537 23.5422 63.244 29.642 63.244 36.4H65.244ZM69.8046 19.156C72.9103 14.0005 77.1613 9.96465 82.5753 7.03982L81.6247 5.28018C75.9027 8.37134 71.3857 12.6555 68.0914 18.124L69.8046 19.156ZM82.5711 7.04207C88.045 4.11851 94.1848 2.648 101.012 2.648V0.647999C93.8872 0.647999 87.419 2.18549 81.6289 5.27792L82.5711 7.04207ZM101.012 2.648C107.839 2.648 113.945 4.11854 119.353 7.03982L120.303 5.28018C114.575 2.18545 108.137 0.647999 101.012 0.647999V2.648ZM119.353 7.03982C124.767 9.96465 129.018 14.0005 132.123 19.156L133.837 18.124C130.542 12.6555 126.025 8.37134 120.303 5.28018L119.353 7.03982ZM132.126 19.1606C135.224 24.2404 136.78 29.9778 136.78 36.4H138.78C138.78 29.6382 137.136 23.5356 133.834 18.1194L132.126 19.1606ZM136.78 36.4C136.78 42.8221 135.224 48.5937 132.123 53.74L133.837 54.772C137.136 49.2943 138.78 43.1619 138.78 36.4H136.78ZM132.126 53.7354C129.021 58.8277 124.77 62.8337 119.353 65.7602L120.303 67.5198C126.022 64.4303 130.539 60.1803 133.834 54.7766L132.126 53.7354ZM119.353 65.7602C113.945 68.6815 107.839 70.152 101.012 70.152V72.152C108.137 72.152 114.575 70.6145 120.303 67.5198L119.353 65.7602ZM101.012 58.904C105.137 58.904 108.891 57.9709 112.253 56.0885L111.275 54.3435C108.237 56.0451 104.823 56.904 101.012 56.904V58.904ZM112.266 56.081C115.624 54.133 118.25 51.4398 120.129 48.0173L118.375 47.0547C116.67 50.1602 114.304 52.587 111.262 54.351L112.266 56.081ZM120.121 48.0303C122.072 44.5998 123.036 40.7142 123.036 36.4H121.036C121.036 40.4058 120.144 43.9442 118.383 47.0417L120.121 48.0303ZM123.036 36.4C123.036 32.0858 122.072 28.2002 120.121 24.7697L118.383 25.7583C120.144 28.8558 121.036 32.3942 121.036 36.4H123.036ZM120.129 24.7827C118.248 21.3572 115.619 18.6925 112.253 16.8075L111.275 18.5525C114.309 20.2515 116.672 22.6428 118.375 25.7453L120.129 24.7827ZM112.266 16.815C108.902 14.8641 105.143 13.896 101.012 13.896V15.896C104.817 15.896 108.226 16.7839 111.262 18.545L112.266 16.815ZM101.012 13.896C96.881 13.896 93.1218 14.8641 89.7583 16.815L90.7617 18.545C93.7982 16.7839 97.207 15.896 101.012 15.896V13.896ZM89.7714 16.8075C86.4085 18.6907 83.7505 21.3513 81.8067 24.7697L83.5453 25.7583C85.3135 22.6487 87.7115 20.2533 90.7486 18.5525L89.7714 16.8075ZM81.7994 24.7827C79.9173 28.2109 78.988 32.0918 78.988 36.4H80.988C80.988 32.3882 81.8507 28.8451 83.5526 25.7453L81.7994 24.7827ZM78.988 36.4C78.988 40.7082 79.9173 44.5891 81.7994 48.0173L83.5526 47.0547C81.8507 43.9549 80.988 40.4118 80.988 36.4H78.988ZM81.8067 48.0303C83.7489 51.4458 86.4027 54.1348 89.7583 56.081L90.7617 54.351C87.7173 52.5852 85.3151 50.1542 83.5453 47.0417L81.8067 48.0303ZM89.7714 56.0885C93.1328 57.9709 96.8873 58.904 101.012 58.904V56.904C97.2007 56.904 93.7872 56.0451 90.7486 54.3435L89.7714 56.0885ZM149.468 2.8V1.8H148.468V2.8H149.468ZM165.02 2.8H166.02V1.8H165.02V2.8ZM165.02 57.328H164.02V58.328H165.02V57.328ZM198.716 57.328H199.716V56.328H198.716V57.328ZM198.716 70V71H199.716V70H198.716ZM149.468 70H148.468V71H149.468V70ZM149.468 3.8H165.02V1.8H149.468V3.8ZM164.02 2.8V57.328H166.02V2.8H164.02ZM165.02 58.328H198.716V56.328H165.02V58.328ZM197.716 57.328V70H199.716V57.328H197.716ZM198.716 69H149.468V71H198.716V69ZM150.468 70V2.8H148.468V70H150.468ZM213.954 63.184L213.247 63.8911L213.251 63.8953L213.954 63.184ZM205.986 2.8V1.8H204.986V2.8H205.986ZM221.538 2.8H222.538V1.8H221.538V2.8ZM247.65 53.584L248.397 54.2484L248.404 54.2402L247.65 53.584ZM251.49 2.8V1.8H250.49V2.8H251.49ZM266.85 2.8H267.85V1.8H266.85V2.8ZM258.786 63.184L258.083 62.4727L258.079 62.4769L258.786 63.184ZM236.418 70.152C227.006 70.152 219.798 67.5532 214.657 62.4727L213.251 63.8953C218.861 69.4388 226.629 72.152 236.418 72.152V70.152ZM214.661 62.4769C209.59 57.4055 206.986 50.1087 206.986 40.432H204.986C204.986 50.4672 207.694 58.3385 213.247 63.8911L214.661 62.4769ZM206.986 40.432V2.8H204.986V40.432H206.986ZM205.986 3.8H221.538V1.8H205.986V3.8ZM220.538 2.8V39.856H222.538V2.8H220.538ZM220.538 39.856C220.538 45.9854 221.805 50.7686 224.512 54.0306C227.249 57.3283 231.313 58.904 236.514 58.904V56.904C231.73 56.904 228.307 55.4717 226.051 52.7534C223.766 49.9994 222.538 45.7586 222.538 39.856H220.538ZM236.514 58.904C241.583 58.904 245.6 57.3954 248.397 54.2484L246.902 52.9196C244.58 55.5326 241.173 56.904 236.514 56.904V58.904ZM248.404 54.2402C251.193 51.0333 252.49 46.1703 252.49 39.856H250.49C250.49 45.9576 249.227 50.2467 246.895 52.9278L248.404 54.2402ZM252.49 39.856V2.8H250.49V39.856H252.49ZM251.49 3.8H266.85V1.8H251.49V3.8ZM265.85 2.8V40.432H267.85V2.8H265.85ZM265.85 40.432C265.85 50.1055 263.216 57.4008 258.083 62.4727L259.489 63.8953C265.108 58.3432 267.85 50.4705 267.85 40.432H265.85ZM258.079 62.4769C253.003 67.553 245.83 70.152 236.418 70.152V72.152C246.206 72.152 253.945 69.439 259.493 63.8911L258.079 62.4769ZM295.013 15.472H296.013V14.472H295.013V15.472ZM273.509 15.472H272.509V16.472H273.509V15.472ZM273.509 2.8V1.8H272.509V2.8H273.509ZM332.069 2.8H333.069V1.8H332.069V2.8ZM332.069 15.472V16.472H333.069V15.472H332.069ZM310.565 15.472V14.472H309.565V15.472H310.565ZM310.565 70V71H311.565V70H310.565ZM295.013 70H294.013V71H295.013V70ZM295.013 14.472H273.509V16.472H295.013V14.472ZM274.509 15.472V2.8H272.509V15.472H274.509ZM273.509 3.8H332.069V1.8H273.509V3.8ZM331.069 2.8V15.472H333.069V2.8H331.069ZM332.069 14.472H310.565V16.472H332.069V14.472ZM309.565 15.472V70H311.565V15.472H309.565ZM310.565 69H295.013V71H310.565V69ZM296.013 70V15.472H294.013V70H296.013ZM340.437 2.8V1.8H339.437V2.8H340.437ZM355.989 2.8H356.989V1.8H355.989V2.8ZM355.989 70V71H356.989V70H355.989ZM340.437 70H339.437V71H340.437V70ZM340.437 3.8H355.989V1.8H340.437V3.8ZM354.989 2.8V70H356.989V2.8H354.989ZM355.989 69H340.437V71H355.989V69ZM341.437 70V2.8H339.437V70H341.437ZM385.569 66.64L385.093 67.5198L385.098 67.5221L385.569 66.64ZM372.417 54.256L371.556 54.7644L371.559 54.7705L371.563 54.7766L372.417 54.256ZM372.417 18.64L371.56 18.124L371.558 18.127L372.417 18.64ZM385.569 6.16L385.098 5.27791L385.093 5.28018L385.569 6.16ZM436.449 18.64L435.592 19.156L435.595 19.1606L436.449 18.64ZM436.449 54.256L437.303 54.7766L437.305 54.772L436.449 54.256ZM423.297 66.64L423.772 67.5198L423.297 66.64ZM415.233 55.216L415.721 56.0885L415.728 56.0848L415.734 56.081L415.233 55.216ZM422.721 47.536L421.851 47.0417L421.848 47.0482L421.844 47.0547L422.721 47.536ZM422.721 25.264L421.844 25.7453L421.848 25.7518L421.851 25.7583L422.721 25.264ZM415.233 17.68L414.731 18.545L414.738 18.5488L414.744 18.5525L415.233 17.68ZM393.729 17.68L394.217 18.5525L394.224 18.5488L394.23 18.545L393.729 17.68ZM386.145 25.264L385.275 24.7697L385.272 24.7762L385.268 24.7827L386.145 25.264ZM386.145 47.536L385.268 48.0173L385.272 48.0238L385.275 48.0303L386.145 47.536ZM393.729 55.216L393.227 56.081L393.234 56.0848L393.24 56.0885L393.729 55.216ZM404.481 70.152C397.654 70.152 391.514 68.6815 386.04 65.7579L385.098 67.5221C390.888 70.6145 397.356 72.152 404.481 72.152V70.152ZM386.044 65.7602C380.627 62.8337 376.376 58.8277 373.271 53.7354L371.563 54.7766C374.858 60.1803 379.375 64.4303 385.093 67.5198L386.044 65.7602ZM373.278 53.7476C370.239 48.6002 368.713 42.8259 368.713 36.4H366.713C366.713 43.1581 368.322 49.2878 371.556 54.7644L373.278 53.7476ZM368.713 36.4C368.713 29.974 370.239 24.2338 373.275 19.153L371.558 18.127C368.322 23.5422 366.713 29.642 366.713 36.4H368.713ZM373.273 19.156C376.379 14.0005 380.63 9.96465 386.044 7.03982L385.093 5.28018C379.371 8.37134 374.854 12.6555 371.56 18.124L373.273 19.156ZM386.04 7.04207C391.514 4.11851 397.654 2.648 404.481 2.648V0.647999C397.356 0.647999 390.888 2.18549 385.098 5.27792L386.04 7.04207ZM404.481 2.648C411.308 2.648 417.414 4.11854 422.821 7.03982L423.772 5.28018C418.044 2.18545 411.605 0.647999 404.481 0.647999V2.648ZM422.821 7.03982C428.236 9.96465 432.486 14.0005 435.592 19.156L437.305 18.124C434.011 12.6555 429.494 8.37134 423.772 5.28018L422.821 7.03982ZM435.595 19.1606C438.692 24.2404 440.249 29.9778 440.249 36.4H442.249C442.249 29.6382 440.605 23.5356 437.303 18.1194L435.595 19.1606ZM440.249 36.4C440.249 42.8221 438.692 48.5937 435.592 53.74L437.305 54.772C440.605 49.2943 442.249 43.1619 442.249 36.4H440.249ZM435.595 53.7354C432.49 58.8277 428.239 62.8337 422.821 65.7602L423.772 67.5198C429.491 64.4303 434.008 60.1803 437.303 54.7766L435.595 53.7354ZM422.821 65.7602C417.414 68.6815 411.308 70.152 404.481 70.152V72.152C411.605 72.152 418.044 70.6145 423.772 67.5198L422.821 65.7602ZM404.481 58.904C408.605 58.904 412.36 57.9709 415.721 56.0885L414.744 54.3435C411.706 56.0451 408.292 56.904 404.481 56.904V58.904ZM415.734 56.081C419.093 54.133 421.718 51.4398 423.597 48.0173L421.844 47.0547C420.139 50.1602 417.772 52.587 414.731 54.351L415.734 56.081ZM423.59 48.0303C425.541 44.5998 426.505 40.7142 426.505 36.4H424.505C424.505 40.4058 423.613 43.9442 421.851 47.0417L423.59 48.0303ZM426.505 36.4C426.505 32.0858 425.541 28.2002 423.59 24.7697L421.851 25.7583C423.613 28.8558 424.505 32.3942 424.505 36.4H426.505ZM423.597 24.7827C421.717 21.3572 419.087 18.6925 415.721 16.8075L414.744 18.5525C417.778 20.2515 420.141 22.6428 421.844 25.7453L423.597 24.7827ZM415.734 16.815C412.371 14.8641 408.612 13.896 404.481 13.896V15.896C408.286 15.896 411.695 16.7839 414.731 18.545L415.734 16.815ZM404.481 13.896C400.35 13.896 396.591 14.8641 393.227 16.815L394.23 18.545C397.267 16.7839 400.676 15.896 404.481 15.896V13.896ZM393.24 16.8075C389.877 18.6907 387.219 21.3513 385.275 24.7697L387.014 25.7583C388.782 22.6487 391.18 20.2533 394.217 18.5525L393.24 16.8075ZM385.268 24.7827C383.386 28.2109 382.457 32.0918 382.457 36.4H384.457C384.457 32.3882 385.319 28.8451 387.021 25.7453L385.268 24.7827ZM382.457 36.4C382.457 40.7082 383.386 44.5891 385.268 48.0173L387.021 47.0547C385.319 43.9549 384.457 40.4118 384.457 36.4H382.457ZM385.275 48.0303C387.218 51.4458 389.871 54.1348 393.227 56.081L394.23 54.351C391.186 52.5852 388.784 50.1542 387.014 47.0417L385.275 48.0303ZM393.24 56.0885C396.602 57.9709 400.356 58.904 404.481 58.904V56.904C400.669 56.904 397.256 56.0451 394.217 54.3435L393.24 56.0885ZM514.569 2.8H515.569V1.8H514.569V2.8ZM514.569 70V71H515.569V70H514.569ZM501.801 70L501.028 70.6346L501.328 71H501.801V70ZM468.297 29.2L469.07 28.5654L467.297 26.4065V29.2H468.297ZM468.297 70V71H469.297V70H468.297ZM452.937 70H451.937V71H452.937V70ZM452.937 2.8V1.8H451.937V2.8H452.937ZM465.801 2.8L466.574 2.16646L466.274 1.8H465.801V2.8ZM499.209 43.6L498.435 44.2335L500.209 46.3997V43.6H499.209ZM499.209 2.8V1.8H498.209V2.8H499.209ZM513.569 2.8V70H515.569V2.8H513.569ZM514.569 69H501.801V71H514.569V69ZM502.574 69.3654L469.07 28.5654L467.524 29.8346L501.028 70.6346L502.574 69.3654ZM467.297 29.2V70H469.297V29.2H467.297ZM468.297 69H452.937V71H468.297V69ZM453.937 70V2.8H451.937V70H453.937ZM452.937 3.8H465.801V1.8H452.937V3.8ZM465.027 3.43353L498.435 44.2335L499.982 42.9665L466.574 2.16646L465.027 3.43353ZM500.209 43.6V2.8H498.209V43.6H500.209ZM499.209 3.8H514.569V1.8H499.209V3.8ZM537.092 69.04L536.806 69.9982L536.813 70.0004L536.821 70.0024L537.092 69.04ZM525.188 63.376L524.276 62.965L523.951 63.6878L524.58 64.1699L525.188 63.376ZM530.468 51.664L531.059 50.8576L530.064 50.1275L529.556 51.253L530.468 51.664ZM540.74 56.752L541.047 55.8003L540.74 56.752ZM562.436 56.752L562.954 57.6072L562.964 57.6015L562.973 57.5957L562.436 56.752ZM563.684 47.536L563.017 48.2812L563.038 48.2996L563.059 48.3169L563.684 47.536ZM558.884 44.944L558.568 45.8927L558.577 45.8957L558.884 44.944ZM551.012 42.832L550.781 43.805L550.787 43.8064L551.012 42.832ZM538.436 39.184L538.785 38.2469L538.436 39.184ZM529.988 33.328L529.229 33.9788L529.238 33.989L529.988 33.328ZM529.7 12.016L530.529 12.5746L530.535 12.5668L529.7 12.016ZM539.204 4.432L538.807 3.51426L538.802 3.51648L539.204 4.432ZM567.428 3.184L567.671 2.21385L567.428 3.184ZM578.18 7.6L579.106 7.97658L579.423 7.19764L578.71 6.752L578.18 7.6ZM573.38 19.408L572.887 20.2779L573.878 20.8396L574.306 19.7846L573.38 19.408ZM545.06 16.24L544.505 15.408L544.499 15.4119L544.493 15.416L545.06 16.24ZM545.54 26.992L545.103 27.8912L545.117 27.8983L545.132 27.9048L545.54 26.992ZM556.58 30.256L556.811 29.2831L556.803 29.2812L556.796 29.2795L556.58 30.256ZM569.156 33.904L569.505 32.9669L569.156 33.904ZM577.508 39.664L576.756 40.3239L576.766 40.334L577.508 39.664ZM577.796 60.88L576.969 60.3177L576.967 60.3214L577.796 60.88ZM568.196 68.368L567.799 67.4503L568.196 68.368ZM552.548 70.152C547.326 70.152 542.265 69.46 537.363 68.0776L536.821 70.0024C541.903 71.436 547.146 72.152 552.548 72.152V70.152ZM537.378 68.0818C532.528 66.633 528.68 64.7911 525.796 62.5821L524.58 64.1699C527.712 66.5689 531.8 68.503 536.806 69.9982L537.378 68.0818ZM526.1 63.787L531.38 52.075L529.556 51.253L524.276 62.965L526.1 63.787ZM529.877 52.4704C532.856 54.6553 536.38 56.3962 540.433 57.7037L541.047 55.8003C537.164 54.5478 533.84 52.8966 531.059 50.8576L529.877 52.4704ZM540.433 57.7037C544.495 59.0141 548.567 59.672 552.644 59.672V57.672C548.785 57.672 544.921 57.0499 541.047 55.8003L540.433 57.7037ZM552.644 59.672C557.118 59.672 560.606 59.0304 562.954 57.6072L561.918 55.8968C560.042 57.0336 557.002 57.672 552.644 57.672V59.672ZM562.973 57.5957C565.322 56.1005 566.604 54.0462 566.604 51.472H564.604C564.604 53.2498 563.774 54.7155 561.899 55.9083L562.973 57.5957ZM566.604 51.472C566.604 49.5597 565.819 47.9635 564.309 46.7551L563.059 48.3169C564.109 49.1565 564.604 50.1843 564.604 51.472H566.604ZM564.351 46.7908C563.006 45.5875 561.273 44.6637 559.191 43.9923L558.577 45.8957C560.464 46.5043 561.93 47.3085 563.017 48.2812L564.351 46.7908ZM559.2 43.9953C557.237 43.3408 554.578 42.6286 551.237 41.8576L550.787 43.8064C554.102 44.5714 556.691 45.2672 558.568 45.8927L559.2 43.9953ZM551.243 41.8591C546.145 40.6483 541.996 39.4433 538.785 38.2469L538.087 40.1211C541.404 41.3567 545.639 42.5837 550.781 43.8049L551.243 41.8591ZM538.785 38.2469C535.68 37.0901 533.001 35.2349 530.738 32.667L529.238 33.989C531.711 36.7971 534.664 38.8459 538.087 40.1211L538.785 38.2469ZM530.747 32.6772C528.636 30.2145 527.532 26.8825 527.532 22.576H525.532C525.532 27.2295 526.732 31.0655 529.229 33.9788L530.747 32.6772ZM527.532 22.576C527.532 18.8641 528.532 15.5399 530.529 12.5746L528.871 11.4574C526.644 14.7641 525.532 18.4799 525.532 22.576H527.532ZM530.535 12.5668C532.521 9.55757 535.522 7.14201 539.606 5.34752L538.802 3.51648C534.438 5.43399 531.103 8.07442 528.865 11.4652L530.535 12.5668ZM539.601 5.34972C543.731 3.5622 548.804 2.648 554.852 2.648V0.647999C548.612 0.647999 543.253 1.5898 538.807 3.51427L539.601 5.34972ZM554.852 2.648C559.06 2.648 563.17 3.15028 567.185 4.15414L567.671 2.21385C563.494 1.16972 559.22 0.647999 554.852 0.647999V2.648ZM567.185 4.15414C571.196 5.15684 574.68 6.59183 577.65 8.448L578.71 6.752C575.536 4.76817 571.852 3.25916 567.671 2.21385L567.185 4.15414ZM577.254 7.22342L572.454 19.0314L574.306 19.7846L579.106 7.97658L577.254 7.22342ZM573.873 18.5381C567.538 14.9457 561.161 13.128 554.756 13.128V15.128C560.767 15.128 566.806 16.8303 572.887 20.2779L573.873 18.5381ZM554.756 13.128C550.332 13.128 546.862 13.8371 544.505 15.408L545.615 17.072C547.482 15.8269 550.476 15.128 554.756 15.128V13.128ZM544.493 15.416C542.199 16.9932 540.988 19.1453 540.988 21.808H542.988C542.988 19.8627 543.825 18.3028 545.627 17.064L544.493 15.416ZM540.988 21.808C540.988 23.1407 541.334 24.3502 542.051 25.3972C542.763 26.4366 543.802 27.2586 545.103 27.8912L545.977 26.0928C544.91 25.5734 544.173 24.9554 543.701 24.2668C543.234 23.5858 542.988 22.7793 542.988 21.808H540.988ZM545.132 27.9048C547.658 29.0351 551.418 30.1404 556.364 31.2325L556.796 29.2795C551.886 28.1956 548.286 27.1249 545.948 26.0792L545.132 27.9048ZM556.349 31.2289C561.447 32.4397 565.596 33.6447 568.807 34.8411L569.505 32.9669C566.188 31.7313 561.953 30.5043 556.811 29.2831L556.349 31.2289ZM568.807 34.8411C571.916 35.9992 574.561 37.8237 576.757 40.3238L578.259 39.0042C575.847 36.2563 572.924 34.2408 569.505 32.9669L568.807 34.8411ZM576.766 40.334C578.927 42.729 580.06 46.019 580.06 50.32H582.06C582.06 45.661 580.825 41.847 578.25 38.994L576.766 40.334ZM580.06 50.32C580.06 53.9578 579.033 57.2822 576.969 60.3177L578.623 61.4423C580.911 58.0778 582.06 54.3622 582.06 50.32H580.06ZM576.967 60.3214C574.984 63.2652 571.953 65.6523 567.799 67.4503L568.593 69.2857C573.015 67.3717 576.384 64.7668 578.625 61.4386L576.967 60.3214ZM567.799 67.4503C563.669 69.2378 558.596 70.152 552.548 70.152V72.152C558.788 72.152 564.147 71.2102 568.593 69.2857L567.799 67.4503Z" fill="#039B12"/>
</svg>
