<svg width="34" height="34" viewBox="0 0 34 34" fill="none" xmlns="http://www.w3.org/2000/svg">
<path d="M30.113 0.103896C29.9182 0.0356991 29.7164 0.00103607 29.513 0.00103607C28.5088 0.00103607 27.6918 0.821858 27.6918 1.8308V5.31377H13.6993C13.2115 5.31377 12.7529 5.50375 12.4081 5.84865L11.08 7.17674C10.7564 7.50046 10.2297 7.50046 9.90614 7.17674L8.57805 5.84872C8.23321 5.50382 7.77456 5.31377 7.28682 5.31377H6.30962V1.8308C6.30962 1.23861 6.02089 0.680417 5.53734 0.337506C5.05059 -0.00759647 4.44944 -0.0928594 3.88845 0.103963C1.56345 0.919207 0.0012207 3.12323 0.0012207 5.58835V28.1896C0.0012207 31.3935 2.60772 34 5.81159 34H19.3973C19.8851 34 20.3436 33.8101 20.6885 33.4652L22.0166 32.1371C22.3402 31.8134 22.8669 31.8134 23.1905 32.1371L24.5186 33.4652C24.8635 33.81 25.3221 34 25.8098 34H28.1898C29.3994 34 30.559 33.6318 31.5431 32.9352C31.7677 32.7763 31.8208 32.4655 31.6619 32.241C31.503 32.0165 31.1922 31.9634 30.9677 32.1222C30.1527 32.6991 29.1922 33.0039 28.1898 33.0039H25.8098C25.5881 33.0039 25.3796 32.9176 25.2229 32.7608L23.8948 31.4327C23.1828 30.7208 22.0242 30.7208 21.3122 31.4327L19.9841 32.7608C19.8274 32.9176 19.6189 33.0039 19.3972 33.0039H5.81159C3.15695 33.0039 0.997283 30.8442 0.997283 28.1896C0.997283 25.9124 2.61376 23.9289 4.84076 23.4731C5.69186 23.299 6.30962 22.5501 6.30962 21.6924V18.3065C6.30962 18.0314 6.0867 17.8085 5.81159 17.8085C5.53647 17.8085 5.31355 18.0314 5.31355 18.3065V21.6924C5.31355 22.0853 5.03705 22.4163 4.64108 22.4973C3.11485 22.8096 1.82621 23.7161 0.997283 24.9443V5.58835C0.997283 3.54562 2.29157 1.71938 4.21802 1.04385C4.47042 0.955463 4.74128 0.994111 4.96121 1.15003C5.18513 1.3088 5.31355 1.55695 5.31355 1.8308V16.3144C5.31355 16.5895 5.53647 16.8124 5.81159 16.8124C6.0867 16.8124 6.30962 16.5895 6.30962 16.3144V6.30983H7.28682C7.50854 6.30983 7.71699 6.39616 7.8737 6.553L9.20179 7.88109C9.55778 8.23708 10.0255 8.41504 10.4931 8.41504C10.9607 8.41504 11.4284 8.23708 11.7844 7.88109L13.1125 6.55294C13.2692 6.39616 13.4776 6.30983 13.6993 6.30983H27.6918V12.7655C27.6918 13.2533 27.8817 13.7118 28.2266 14.0567L29.5547 15.3848C29.7114 15.5415 29.7978 15.75 29.7978 15.9718C29.7978 16.1934 29.7114 16.4019 29.5547 16.5587L28.2266 17.8868C27.8817 18.2317 27.6918 18.6904 27.6918 19.178V21.6924C27.6918 22.55 28.3095 23.2989 29.1606 23.4731C31.3876 23.9288 33.0041 25.9123 33.0041 28.1895C33.0041 29.1605 32.7166 30.0961 32.1726 30.8951C32.0179 31.1225 32.0767 31.4323 32.304 31.5871C32.3898 31.6455 32.4873 31.6735 32.5838 31.6735C32.7431 31.6735 32.8996 31.5973 32.996 31.4557C33.6529 30.4907 34.0002 29.3612 34.0002 28.1895V5.58835C34.0002 3.12329 32.4381 0.919207 30.113 0.103896ZM29.3602 22.4973C28.9643 22.4163 28.6878 22.0853 28.6878 21.6924V19.1781C28.6878 18.9564 28.7742 18.7479 28.9309 18.5912L30.259 17.2631C30.971 16.551 30.971 15.3925 30.259 14.6805L28.9309 13.3524C28.7764 13.1979 28.6878 12.984 28.6878 12.7655V1.8308C28.6878 1.37109 29.058 0.997099 29.513 0.997099C29.6039 0.997099 29.6948 1.01284 29.7834 1.04385C31.7098 1.71938 33.0041 3.54569 33.0041 5.58835V24.9442C32.1752 23.716 30.8865 22.8096 29.3602 22.4973Z" fill="#00BE4C"/>
<path d="M13.7794 12.1559C13.7794 10.7828 12.6623 9.66577 11.2892 9.66577C9.91612 9.66577 8.79907 10.7828 8.79907 12.1559C8.79907 13.529 9.91612 14.6461 11.2892 14.6461C12.6623 14.6461 13.7794 13.529 13.7794 12.1559ZM11.2892 13.65C10.4654 13.65 9.79513 12.9797 9.79513 12.1559C9.79513 11.3321 10.4654 10.6618 11.2892 10.6618C12.113 10.6618 12.7833 11.3321 12.7833 12.1559C12.7833 12.9797 12.113 13.65 11.2892 13.65Z" fill="#00BE4C"/>
<path d="M25.0551 21.2218C24.8605 21.0273 24.5452 21.0273 24.3507 21.2218L23.3749 22.1976L22.399 21.2218C22.2044 21.0273 21.8891 21.0273 21.6946 21.2218C21.5001 21.4163 21.5001 21.7316 21.6946 21.9261L22.6705 22.902L21.6946 23.8779C21.5001 24.0724 21.5001 24.3877 21.6946 24.5822C21.7919 24.6794 21.9194 24.728 22.0468 24.728C22.1743 24.728 22.3018 24.6794 22.3991 24.5822L23.3749 23.6063L24.3508 24.5822C24.4481 24.6794 24.5756 24.728 24.703 24.728C24.8304 24.728 24.9579 24.6794 25.0552 24.5822C25.2497 24.3876 25.2497 24.0724 25.0552 23.8779L24.0793 22.902L25.0552 21.9261C25.2496 21.7315 25.2496 21.4162 25.0551 21.2218Z" fill="#00BE4C"/>
<path d="M15.9375 12.6541H16.4356C16.7107 12.6541 16.9336 12.4311 16.9336 12.156C16.9336 11.8809 16.7107 11.658 16.4356 11.658H15.9375C15.6624 11.658 15.4395 11.8809 15.4395 12.156C15.4395 12.4311 15.6625 12.6541 15.9375 12.6541Z" fill="#00BE4C"/>
<path d="M23.6125 15.3564C23.6209 15.3568 23.6293 15.357 23.6376 15.357C23.9013 15.357 24.1213 15.1499 24.1346 14.8836C24.1371 14.8324 24.1385 14.7809 24.1385 14.7291C24.1385 14.3889 24.0831 14.0544 23.9738 13.7349C23.8848 13.4746 23.6014 13.336 23.3415 13.4248C23.0812 13.5138 22.9424 13.7969 23.0313 14.0572C23.1051 14.2727 23.1424 14.4987 23.1424 14.729C23.1424 14.7642 23.1415 14.7993 23.1398 14.8341C23.1261 15.1089 23.3377 15.3427 23.6125 15.3564Z" fill="#00BE4C"/>
<path d="M19.8687 12.156C19.8687 11.8809 19.6457 11.658 19.3706 11.658H18.3922C18.1171 11.658 17.8942 11.8809 17.8942 12.156C17.8942 12.4311 18.1171 12.6541 18.3922 12.6541H19.3706C19.6457 12.6541 19.8687 12.4311 19.8687 12.156Z" fill="#00BE4C"/>
<path d="M20.5871 17.3018C20.5871 17.0266 20.3642 16.8037 20.0891 16.8037H19.1108C18.8357 16.8037 18.6127 17.0266 18.6127 17.3018C18.6127 17.5769 18.8357 17.7998 19.1108 17.7998H20.0891C20.3641 17.7998 20.5871 17.5769 20.5871 17.3018Z" fill="#00BE4C"/>
<path d="M22.2579 12.9457C22.4373 12.9457 22.6107 12.8483 22.6996 12.6783C22.827 12.4345 22.7327 12.1336 22.4889 12.0062C22.1414 11.8245 21.767 11.7125 21.3762 11.6734C21.103 11.6461 20.8584 11.8457 20.8311 12.1194C20.8038 12.3931 21.0034 12.6372 21.2772 12.6646C21.5407 12.6909 21.7932 12.7664 22.0275 12.8889C22.1012 12.9273 22.1801 12.9457 22.2579 12.9457Z" fill="#00BE4C"/>
<path d="M22.0224 17.617C22.0839 17.617 22.1465 17.6055 22.2071 17.5813C22.5703 17.436 22.8988 17.2252 23.1835 16.9545C23.3829 16.765 23.3908 16.4497 23.2013 16.2503C23.0117 16.0509 22.6965 16.0431 22.4972 16.2325C22.3046 16.4157 22.0826 16.5583 21.8373 16.6564C21.5819 16.7584 21.4576 17.0483 21.5597 17.3037C21.6377 17.4985 21.8247 17.617 22.0224 17.617Z" fill="#00BE4C"/>
<path d="M13.881 29.534C13.9253 29.534 13.9704 29.528 14.0152 29.5155C14.381 29.4134 14.7269 29.254 15.0433 29.0419C15.2718 28.8887 15.3328 28.5794 15.1797 28.3509C15.0264 28.1224 14.717 28.0613 14.4887 28.2145C14.2604 28.3676 14.011 28.4825 13.7474 28.5561C13.4824 28.6301 13.3276 28.9048 13.4016 29.1697C13.4631 29.3899 13.6631 29.534 13.881 29.534Z" fill="#00BE4C"/>
<path d="M13.2407 17.7998H14.219C14.4942 17.7998 14.7171 17.5769 14.7171 17.3018C14.7171 17.0266 14.4942 16.8037 14.219 16.8037H13.2407C12.9656 16.8037 12.7427 17.0266 12.7427 17.3018C12.7427 17.5769 12.9656 17.7998 13.2407 17.7998Z" fill="#00BE4C"/>
<path d="M10.8016 28.856C11.0981 29.0948 11.4285 29.2838 11.7836 29.4178C11.8415 29.4395 11.9009 29.4499 11.9593 29.4499C12.1605 29.4499 12.3501 29.327 12.4254 29.1276C12.5225 28.8702 12.3926 28.5829 12.1352 28.4857C11.8791 28.3891 11.6405 28.2527 11.4262 28.0801C11.212 27.9075 10.8985 27.9415 10.7259 28.1558C10.5535 28.3699 10.5873 28.6834 10.8016 28.856Z" fill="#00BE4C"/>
<path d="M15.7829 27.5826C15.839 27.6029 15.8962 27.6125 15.9526 27.6125C16.1563 27.6125 16.3475 27.4866 16.4209 27.2841C16.5501 26.9279 16.6215 26.554 16.6331 26.173C16.6415 25.898 16.4254 25.6683 16.1505 25.6599C16.1453 25.6597 16.1401 25.6597 16.135 25.6597C15.867 25.6597 15.6457 25.8728 15.6375 26.1425C15.6291 26.4179 15.5776 26.6878 15.4844 26.9447C15.3907 27.2032 15.5244 27.4889 15.7829 27.5826Z" fill="#00BE4C"/>
<path d="M9.96117 21.4933C10.2363 21.4933 10.4592 21.2703 10.4592 20.9952V20.0168C10.4592 19.7417 10.2363 19.5188 9.96117 19.5188C9.68605 19.5188 9.46312 19.7417 9.46312 20.0168V20.9952C9.46312 21.2703 9.68611 21.4933 9.96117 21.4933Z" fill="#00BE4C"/>
<path d="M9.46312 23.9303C9.46312 24.2054 9.68605 24.4283 9.96117 24.4283C10.2363 24.4283 10.4592 24.2054 10.4592 23.9303V22.9519C10.4592 22.6768 10.2363 22.4539 9.96117 22.4539C9.68605 22.4539 9.46312 22.6768 9.46312 22.9519V23.9303Z" fill="#00BE4C"/>
<path d="M10.9536 18.5302C11.1258 18.328 11.3317 18.1627 11.5657 18.039C11.8089 17.9104 11.9018 17.609 11.7732 17.3659C11.6445 17.1228 11.3433 17.0298 11.1001 17.1585C10.754 17.3415 10.4496 17.5857 10.1952 17.8844C10.0169 18.0938 10.042 18.4082 10.2515 18.5865C10.3452 18.6663 10.46 18.7053 10.5741 18.7053C10.7151 18.7053 10.8551 18.6459 10.9536 18.5302Z" fill="#00BE4C"/>
<path d="M9.46312 26.0616C9.46312 26.3739 9.50336 26.6841 9.58292 26.9837C9.64215 27.2067 9.84363 27.3541 10.064 27.3541C10.1063 27.3541 10.1492 27.3487 10.1921 27.3373C10.4579 27.2667 10.6163 26.994 10.5457 26.7282C10.4884 26.512 10.4592 26.2877 10.4592 26.0616V25.8867C10.4592 25.6116 10.2363 25.3887 9.96117 25.3887C9.68605 25.3887 9.46312 25.6116 9.46312 25.8867V26.0616Z" fill="#00BE4C"/>
<path d="M17.1541 16.8037H16.1758C15.9007 16.8037 15.6777 17.0266 15.6777 17.3018C15.6777 17.5769 15.9007 17.7998 16.1758 17.7998H17.1541C17.4292 17.7998 17.6521 17.5769 17.6521 17.3018C17.6521 17.0266 17.4292 16.8037 17.1541 16.8037Z" fill="#00BE4C"/>
<path d="M16.883 24.4898C17.009 24.2569 17.1762 24.0525 17.3799 23.8821C17.591 23.7058 17.6191 23.3916 17.4425 23.1806C17.2662 22.9696 16.9521 22.9414 16.741 23.118C16.4401 23.3695 16.1931 23.6717 16.0068 24.0159C15.876 24.2579 15.966 24.5601 16.2079 24.691C16.2833 24.7317 16.3644 24.751 16.4445 24.751C16.6216 24.7509 16.7929 24.6564 16.883 24.4898Z" fill="#00BE4C"/>
<path d="M18.8925 23.3999H19.3906C19.6657 23.3999 19.8886 23.177 19.8886 22.9019C19.8886 22.6267 19.6657 22.4038 19.3906 22.4038H18.8925C18.6174 22.4038 18.3945 22.6267 18.3945 22.9019C18.3945 23.177 18.6175 23.3999 18.8925 23.3999Z" fill="#00BE4C"/>
</svg>
