<svg width="31" height="34" viewBox="0 0 31 34" fill="none" xmlns="http://www.w3.org/2000/svg">
<path d="M15.0056 13.7004C14.3924 13.7004 13.793 13.8823 13.2831 14.2229C12.7733 14.5636 12.3759 15.0478 12.1413 15.6143C11.9066 16.1808 11.8453 16.8041 11.9649 17.4055C12.0845 18.0069 12.3798 18.5593 12.8133 18.9929C13.2469 19.4265 13.7993 19.7217 14.4007 19.8414C15.0021 19.961 15.6255 19.8996 16.192 19.6649C16.7585 19.4303 17.2427 19.0329 17.5833 18.5231C17.924 18.0133 18.1058 17.4139 18.1058 16.8007C18.1049 15.9787 17.7779 15.1907 17.1967 14.6095C16.6155 14.0283 15.8275 13.7014 15.0056 13.7004ZM15.0056 19.1041C14.55 19.1041 14.1047 18.969 13.7259 18.7159C13.3471 18.4628 13.0519 18.103 12.8775 17.6821C12.7032 17.2613 12.6576 16.7981 12.7464 16.3513C12.8353 15.9045 13.0547 15.4941 13.3768 15.172C13.699 14.8498 14.1094 14.6305 14.5562 14.5416C15.003 14.4527 15.4661 14.4983 15.887 14.6726C16.3079 14.847 16.6676 15.1422 16.9207 15.521C17.1738 15.8998 17.3089 16.3451 17.3089 16.8007C17.3082 17.4114 17.0653 17.9968 16.6335 18.4287C16.2017 18.8605 15.6162 19.1034 15.0056 19.1041Z" fill="#00BE4C"/>
<path d="M19.8308 17.2457C19.8625 16.8765 19.8529 16.5049 19.8021 16.1379L20.2496 15.7088C20.3084 15.6523 20.3486 15.5792 20.3645 15.4992C20.3805 15.4192 20.3715 15.3363 20.3388 15.2615L19.7407 13.8944C19.7077 13.8188 19.652 13.7554 19.5814 13.7128C19.5108 13.6703 19.4287 13.6507 19.3465 13.6567L18.7289 13.7021C18.4936 13.4145 18.2235 13.1572 17.9248 12.9361L17.9429 12.3202C17.9453 12.2378 17.9221 12.1566 17.8764 12.088C17.8308 12.0193 17.765 11.9665 17.688 11.9368L16.2965 11.3997C16.2199 11.3702 16.136 11.365 16.0564 11.385C15.9767 11.405 15.9052 11.449 15.8516 11.5112L15.4509 11.9755C15.0817 11.9438 14.7101 11.9534 14.3431 12.0042L13.9139 11.5567C13.8574 11.4978 13.7843 11.4577 13.7043 11.4417C13.6243 11.4258 13.5414 11.4347 13.4666 11.4674L12.0993 12.066C12.0238 12.0991 11.9604 12.1547 11.9178 12.2253C11.8752 12.296 11.8556 12.378 11.8617 12.4603L11.9071 13.0778C11.6194 13.3132 11.3621 13.5833 11.141 13.882L10.5252 13.8639C10.4428 13.8616 10.3617 13.8849 10.2931 13.9305C10.2245 13.9762 10.1716 14.0419 10.1418 14.1187L9.60473 15.5102C9.5752 15.5868 9.57006 15.6707 9.59 15.7503C9.60995 15.83 9.65401 15.9015 9.71616 15.9552L10.1805 16.3559C10.1487 16.725 10.1584 17.0966 10.2092 17.4636L9.76165 17.8927C9.70277 17.9491 9.66264 18.0223 9.64668 18.1023C9.63072 18.1823 9.63969 18.2653 9.67239 18.34L10.2706 19.7071C10.3036 19.7827 10.3593 19.8461 10.4299 19.8887C10.5005 19.9313 10.5826 19.9509 10.6648 19.9448L11.2824 19.8994C11.5177 20.187 11.7879 20.4443 12.0866 20.6654L12.0685 21.2813C12.066 21.3637 12.0892 21.4448 12.1349 21.5135C12.1805 21.5822 12.2463 21.635 12.3233 21.6647L13.7148 22.2018C13.7914 22.2313 13.8753 22.2364 13.9549 22.2165C14.0346 22.1965 14.1061 22.1525 14.1597 22.0903L14.5604 21.626C14.9295 21.6577 15.301 21.6481 15.668 21.5973L16.0972 22.0448C16.1537 22.1037 16.2268 22.1438 16.3068 22.1597C16.3868 22.1757 16.4697 22.1667 16.5444 22.1341L17.9116 21.5359C17.9872 21.5029 18.0506 21.4472 18.0932 21.3766C18.1357 21.306 18.1553 21.2239 18.1493 21.1417L18.1039 20.5241C18.3915 20.2888 18.6489 20.0187 18.8699 19.7199L19.4858 19.7381C19.5682 19.7404 19.6493 19.7171 19.7179 19.6715C19.7866 19.6259 19.8394 19.5601 19.8692 19.4833L20.4062 18.0917C20.4358 18.0151 20.4409 17.9313 20.421 17.8516C20.4011 17.772 20.357 17.7004 20.2949 17.6468L19.8308 17.2457ZM19.2275 18.933L18.6793 18.9169C18.6117 18.915 18.5448 18.9303 18.4848 18.9613C18.4248 18.9923 18.3736 19.038 18.336 19.0941C18.098 19.4516 17.7995 19.765 17.4541 20.0201C17.4 20.0601 17.3569 20.1132 17.3289 20.1743C17.3008 20.2354 17.2887 20.3026 17.2936 20.3697L17.334 20.9186L16.4798 21.2924L16.0987 20.895C16.0531 20.8474 15.9964 20.8119 15.9336 20.7916C15.8709 20.7713 15.8042 20.7669 15.7393 20.7788C15.3127 20.8569 14.8765 20.8681 14.4465 20.812C14.3811 20.8036 14.3146 20.8115 14.253 20.8351C14.1914 20.8586 14.1365 20.897 14.0934 20.9468L13.7396 21.357L12.873 21.0225L12.8891 20.4742C12.8911 20.4067 12.8759 20.3397 12.8449 20.2797C12.8139 20.2196 12.7681 20.1685 12.7119 20.131C12.3544 19.893 12.041 19.5946 11.7858 19.2492C11.7459 19.1951 11.6928 19.152 11.6317 19.1239C11.5706 19.0959 11.5034 19.0837 11.4363 19.0887L10.8874 19.129L10.5138 18.275L10.9111 17.8939C10.9587 17.8483 10.9942 17.7916 11.0145 17.7289C11.0347 17.6662 11.0391 17.5994 11.0273 17.5346C10.9492 17.108 10.938 16.6718 10.9941 16.2417C11.0026 16.1763 10.9947 16.1098 10.9712 16.0482C10.9477 15.9866 10.9092 15.9318 10.8593 15.8887L10.4491 15.5348L10.7836 14.6681L11.3318 14.6843C11.3993 14.6861 11.4662 14.6707 11.5262 14.6397C11.5862 14.6088 11.6374 14.5631 11.6751 14.507C11.9131 14.1495 12.2116 13.8362 12.557 13.581C12.6111 13.541 12.6542 13.488 12.6822 13.4269C12.7103 13.3657 12.7224 13.2985 12.7175 13.2314L12.6771 12.6826L13.5311 12.309L13.9122 12.7064C13.9578 12.7539 14.0146 12.7894 14.0773 12.8097C14.14 12.83 14.2067 12.8344 14.2716 12.8225C14.6983 12.7445 15.1345 12.7333 15.5646 12.7893C15.63 12.7978 15.6965 12.79 15.7582 12.7664C15.8198 12.7429 15.8746 12.7044 15.9177 12.6545L16.2714 12.2444L17.1381 12.5789L17.122 13.1271C17.12 13.1947 17.1352 13.2616 17.1662 13.3217C17.1973 13.3817 17.243 13.4329 17.2993 13.4704C17.6567 13.7084 17.9701 14.0068 18.2253 14.3522C18.2652 14.4063 18.3182 14.4494 18.3794 14.4775C18.4405 14.5055 18.5077 14.5177 18.5748 14.5127L19.1237 14.4724L19.4973 15.3264L19.0999 15.7075C19.0523 15.7531 19.0168 15.8098 18.9966 15.8725C18.9763 15.9352 18.9719 16.0019 18.9837 16.0667C19.0618 16.4934 19.073 16.9296 19.0169 17.3596C19.0085 17.425 19.0163 17.4915 19.0399 17.5531C19.0634 17.6147 19.1018 17.6695 19.1518 17.7126L19.5617 18.0665L19.2275 18.933Z" fill="#00BE4C"/>
<path d="M15.0056 28.2305C14.7115 28.2305 14.4241 28.3177 14.1796 28.481C13.9352 28.6444 13.7446 28.8765 13.6321 29.1482C13.5196 29.4198 13.4901 29.7188 13.5475 30.0071C13.6048 30.2955 13.7464 30.5604 13.9543 30.7683C14.1623 30.9762 14.4272 31.1178 14.7155 31.1752C15.0039 31.2325 15.3028 31.2031 15.5745 31.0906C15.8461 30.9781 16.0783 30.7875 16.2417 30.543C16.405 30.2986 16.4922 30.0111 16.4922 29.7171C16.4917 29.323 16.335 28.9451 16.0563 28.6664C15.7776 28.3877 15.3997 28.2309 15.0056 28.2305ZM15.0056 30.4069C14.8691 30.4069 14.7358 30.3664 14.6223 30.2906C14.5089 30.2148 14.4205 30.1071 14.3683 29.9811C14.3161 29.855 14.3024 29.7163 14.3291 29.5825C14.3557 29.4487 14.4214 29.3258 14.5178 29.2294C14.6143 29.1329 14.7372 29.0672 14.871 29.0406C15.0048 29.014 15.1435 29.0276 15.2695 29.0798C15.3956 29.1321 15.5033 29.2205 15.5791 29.3339C15.6549 29.4473 15.6953 29.5807 15.6953 29.7171C15.6951 29.9 15.6223 30.0753 15.493 30.2046C15.3637 30.3339 15.1884 30.4066 15.0056 30.4069Z" fill="#00BE4C"/>
<path d="M24.1032 3.98438C24.1032 3.17422 23.7814 2.39725 23.2085 1.82438C22.6356 1.25152 21.8587 0.929688 21.0485 0.929688H8.96259C8.15243 0.929688 7.37546 1.25152 6.80259 1.82438C6.22973 2.39725 5.9079 3.17422 5.9079 3.98438V29.9492C5.9079 30.7594 6.22973 31.5363 6.80259 32.1092C7.37546 32.6821 8.15243 33.0039 8.96259 33.0039H21.0485C21.8587 33.0039 22.6356 32.6821 23.2085 32.1092C23.7814 31.5363 24.1032 30.7594 24.1032 29.9492V3.98438ZM6.70477 5.51172H23.3063V26.8281H6.70477V5.51172ZM21.058 32.2734H8.95316C7.70817 32.2734 6.70477 31.236 6.70477 29.9911V27.625H23.3063V29.9911C23.3063 31.236 22.3029 32.2734 21.058 32.2734ZM23.3063 4.71484H6.70477V4.00888C6.70477 2.76396 7.70817 1.72656 8.95316 1.72656H21.058C22.3029 1.72656 23.3063 2.76396 23.3063 4.00888V4.71484Z" fill="#00BE4C"/>
<path d="M7.83368 6.08691C7.72801 6.08691 7.62666 6.12889 7.55194 6.20361C7.47722 6.27833 7.43524 6.37968 7.43524 6.48535V6.8227C7.43524 6.92837 7.47722 7.02971 7.55194 7.10443C7.62666 7.17915 7.72801 7.22113 7.83368 7.22113C7.93935 7.22113 8.0407 7.17915 8.11542 7.10443C8.19014 7.02971 8.23212 6.92837 8.23212 6.8227V6.48535C8.23212 6.37968 8.19014 6.27833 8.11542 6.20361C8.0407 6.12889 7.93935 6.08691 7.83368 6.08691Z" fill="#00BE4C"/>
<path d="M7.83368 7.74194C7.72801 7.74194 7.62666 7.78392 7.55194 7.85864C7.47722 7.93336 7.43524 8.03471 7.43524 8.14038V11.3537C7.43524 11.4594 7.47722 11.5607 7.55194 11.6354C7.62666 11.7102 7.72801 11.7521 7.83368 11.7521C7.93935 11.7521 8.0407 11.7102 8.11542 11.6354C8.19014 11.5607 8.23212 11.4594 8.23212 11.3537V8.14038C8.23212 8.03471 8.19014 7.93336 8.11542 7.85864C8.0407 7.78392 7.93935 7.74194 7.83368 7.74194Z" fill="#00BE4C"/>
<path d="M22.2704 17.1992H26.159C26.2358 17.5702 26.42 17.9105 26.6885 18.1778C26.9949 18.4841 27.3947 18.6794 27.8245 18.7328C28.2544 18.7863 28.6898 18.6949 29.0619 18.473C29.4339 18.2511 29.7214 17.9115 29.8787 17.5079C30.036 17.1044 30.0543 16.6598 29.9305 16.2447C29.8067 15.8296 29.5481 15.4676 29.1954 15.216C28.8428 14.9644 28.4163 14.8377 27.9835 14.8557C27.5507 14.8738 27.1363 15.0357 26.8059 15.3159C26.4755 15.596 26.2479 15.9783 26.1592 16.4023H22.2716C22.2383 15.722 22.1034 15.0505 21.8713 14.4101H22.2815C22.8071 14.4059 23.3097 14.1941 23.6799 13.821C24.0501 13.4478 24.2578 12.9435 24.2577 12.4179C24.2575 12.1036 24.3812 11.8018 24.6019 11.578C24.8227 11.3543 25.1228 11.2266 25.4371 11.2226H25.8111C25.881 11.5982 26.066 11.9426 26.3406 12.2082C26.6129 12.4797 26.9595 12.6645 27.3367 12.7392C27.7139 12.8138 28.1048 12.775 28.4599 12.6277C28.8151 12.4803 29.1186 12.231 29.3321 11.9112C29.5457 11.5914 29.6596 11.2155 29.6596 10.831C29.6596 10.4464 29.5457 10.0705 29.3321 9.75076C29.1186 9.43097 28.8151 9.18164 28.4599 9.03427C28.1048 8.88689 27.7139 8.84808 27.3367 8.92274C26.9595 8.9974 26.6129 9.18217 26.3406 9.45373C26.0792 9.72368 25.8962 10.0597 25.8111 10.4257H25.4371C24.9115 10.4299 24.4089 10.6417 24.0387 11.0148C23.6686 11.388 23.4608 11.8923 23.4609 12.4179C23.4611 12.7322 23.3374 13.034 23.1167 13.2578C22.8959 13.4815 22.5958 13.6092 22.2815 13.6132H21.5364C20.937 12.3883 20.0058 11.3562 18.8489 10.6343C17.6919 9.9124 16.3555 9.52969 14.9918 9.52969C13.6281 9.52969 12.2917 9.9124 11.1348 10.6343C9.9778 11.3562 9.04664 12.3883 8.44721 13.6132H7.72963C7.41531 13.6092 7.11523 13.4815 6.89445 13.2578C6.67367 13.034 6.55 12.7322 6.55025 12.4179C6.55027 11.8923 6.34257 11.388 5.9724 11.0148C5.60223 10.6417 5.0996 10.4299 4.574 10.4257H4.2C4.11496 10.0597 3.93191 9.7238 3.67048 9.45393C3.39778 9.17959 3.04976 8.99239 2.67054 8.91608C2.29133 8.83976 1.89799 8.87776 1.5404 9.02525C1.1828 9.17275 0.87705 9.4231 0.661904 9.74456C0.446759 10.066 0.331906 10.4441 0.331906 10.831C0.331906 11.2178 0.446759 11.5959 0.661904 11.9174C0.87705 12.2388 1.1828 12.4892 1.5404 12.6367C1.89799 12.7842 2.29133 12.8222 2.67054 12.7458C3.04976 12.6695 3.39778 12.4823 3.67048 12.208C3.94506 11.9425 4.13014 11.5981 4.2 11.2226H4.574C4.88832 11.2266 5.1884 11.3543 5.40918 11.578C5.62996 11.8018 5.75363 12.1036 5.75338 12.4179C5.75336 12.9435 5.96106 13.4478 6.33123 13.821C6.7014 14.1941 7.20403 14.4059 7.72963 14.4101H8.11518C7.92365 14.9545 7.79879 15.5202 7.74331 16.0947C7.73282 16.2005 7.72524 16.297 7.7194 16.4023H3.8519C3.76323 15.9783 3.53571 15.5961 3.20536 15.316C2.875 15.0359 2.46067 14.874 2.02795 14.8559C1.59522 14.8378 1.16882 14.9646 0.81622 15.216C0.463619 15.4675 0.204963 15.8295 0.0811865 16.2445C-0.0425896 16.6595 -0.0244153 17.104 0.132833 17.5075C0.290081 17.9111 0.577421 18.2507 0.949378 18.4725C1.32133 18.6944 1.75666 18.7859 2.18646 18.7325C2.61626 18.6792 3.01599 18.484 3.32238 18.1778C3.59097 17.9105 3.7751 17.5702 3.8519 17.1992H7.71834C7.75157 17.8795 7.8865 18.551 8.11864 19.1913H7.72963C7.20403 19.1955 6.7014 19.4073 6.33123 19.7804C5.96106 20.1536 5.75336 20.6579 5.75338 21.1835C5.75363 21.4979 5.62996 21.7996 5.40918 22.0234C5.1884 22.2472 4.88832 22.3749 4.574 22.3788H4.2C4.13016 22.0033 3.94508 21.6588 3.67048 21.3932C3.39855 21.1234 3.05284 20.9402 2.67693 20.8666C2.30101 20.793 1.91172 20.8323 1.55811 20.9796C1.20451 21.1268 0.902413 21.3755 0.689914 21.6942C0.477414 22.0129 0.364018 22.3874 0.364018 22.7705C0.364018 23.1535 0.477414 23.528 0.689914 23.8467C0.902413 24.1654 1.20451 24.4141 1.55811 24.5614C1.91172 24.7087 2.30101 24.748 2.67693 24.6744C3.05284 24.6007 3.39855 24.4175 3.67048 24.1477C3.93191 23.8778 4.11496 23.5418 4.2 23.1757H4.574C5.0996 23.1715 5.60223 22.9598 5.9724 22.5866C6.34257 22.2135 6.55027 21.7091 6.55025 21.1835C6.55 20.8692 6.67367 20.5674 6.89445 20.3437C7.11523 20.1199 7.41531 19.9922 7.72963 19.9882H8.45345C8.99869 21.1045 9.82013 22.063 10.8398 22.7727C11.8595 23.4825 13.0436 23.9199 14.2798 24.0434C14.5236 24.0675 14.7665 24.0839 15.0083 24.0839C16.371 24.0782 17.7049 23.6917 18.8596 22.968C20.0142 22.2443 20.9436 21.2122 21.5427 19.9882H22.2815C22.5958 19.9922 22.8959 20.1199 23.1167 20.3437C23.3374 20.5674 23.4611 20.8692 23.4609 21.1835C23.4608 21.7091 23.6686 22.2135 24.0387 22.5866C24.4089 22.9598 24.9115 23.1715 25.4371 23.1757H25.8111C25.8962 23.5417 26.0792 23.8776 26.3406 24.1475C26.6131 24.4207 26.9606 24.6069 27.3389 24.6825C27.7173 24.7581 28.1096 24.7198 28.4661 24.5723C28.8227 24.4249 29.1275 24.175 29.3419 23.8542C29.5564 23.5335 29.6709 23.1563 29.6709 22.7705C29.6709 22.3846 29.5564 22.0075 29.3419 21.6867C29.1275 21.366 28.8227 21.1161 28.4661 20.9686C28.1096 20.8212 27.7173 20.7828 27.3389 20.8585C26.9606 20.9341 26.6131 21.1203 26.3406 21.3934C26.0661 21.6589 25.881 22.0033 25.8111 22.3788H25.4371C25.1228 22.3749 24.8227 22.2472 24.6019 22.0234C24.3812 21.7996 24.2575 21.4979 24.2577 21.1835C24.2578 20.6579 24.0501 20.1536 23.6799 19.7804C23.3097 19.4073 22.8071 19.1955 22.2815 19.1913H21.8748C22.0662 18.6469 22.1911 18.0812 22.2466 17.5067C22.2571 17.4009 22.2648 17.3044 22.2704 17.1992ZM27.252 15.9871C27.4129 15.8262 27.6179 15.7165 27.8411 15.6721C28.0643 15.6277 28.2957 15.6504 28.506 15.7375C28.7163 15.8246 28.896 15.9721 29.0224 16.1613C29.1489 16.3505 29.2164 16.573 29.2164 16.8006C29.2164 17.0282 29.1489 17.2506 29.0224 17.4399C28.896 17.6291 28.7163 17.7766 28.506 17.8637C28.2957 17.9507 28.0643 17.9735 27.8411 17.9291C27.6179 17.8846 27.4129 17.775 27.252 17.6141C27.0366 17.3981 26.9157 17.1055 26.9158 16.8005C26.9158 16.4956 27.0368 16.203 27.2522 15.9871H27.252ZM26.9039 10.0244C27.0648 9.86342 27.2699 9.75383 27.4931 9.70942C27.7163 9.66502 27.9476 9.68781 28.1579 9.7749C28.3682 9.86199 28.5479 10.0095 28.6743 10.1987C28.8008 10.3879 28.8683 10.6104 28.8683 10.838C28.8683 11.0656 28.8008 11.2881 28.6743 11.4773C28.5479 11.6665 28.3682 11.814 28.1579 11.9011C27.9476 11.9882 27.7163 12.011 27.4931 11.9666C27.2699 11.9222 27.0648 11.8126 26.9039 11.6516C26.6881 11.4358 26.5669 11.1432 26.5669 10.838C26.5669 10.5328 26.6881 10.2402 26.9039 10.0244ZM3.10702 11.6516C2.91874 11.8398 2.67103 11.9569 2.40609 11.983C2.14115 12.009 1.87538 11.9424 1.65406 11.7944C1.43274 11.6465 1.26957 11.4264 1.19234 11.1716C1.11511 10.9168 1.12861 10.6432 1.23053 10.3973C1.33245 10.1513 1.51649 9.94834 1.75129 9.82289C1.98609 9.69744 2.25713 9.65728 2.51822 9.70926C2.77931 9.76124 3.0143 9.90214 3.18315 10.1079C3.352 10.3138 3.44427 10.5718 3.44423 10.838C3.44404 11.1431 3.32276 11.4358 3.10702 11.6516ZM2.75892 17.6143C2.59805 17.7751 2.39312 17.8846 2.17005 17.9289C1.94697 17.9732 1.71576 17.9504 1.50565 17.8633C1.29554 17.7763 1.11596 17.6289 0.989613 17.4397C0.86327 17.2506 0.795835 17.0283 0.795835 16.8008C0.795835 16.5734 0.86327 16.3511 0.989613 16.162C1.11596 15.9728 1.29554 15.8254 1.50565 15.7384C1.71576 15.6513 1.94697 15.6285 2.17005 15.6728C2.39312 15.7171 2.59805 15.8266 2.75892 15.9874C2.9743 16.2033 3.09525 16.4959 3.09525 16.8008C3.09525 17.1058 2.9743 17.3984 2.75892 17.6143ZM3.10702 23.5771C2.94615 23.7379 2.74121 23.8474 2.51812 23.8917C2.29502 23.936 2.06379 23.9132 1.85366 23.8262C1.64353 23.7391 1.46393 23.5917 1.33757 23.4025C1.21122 23.2134 1.14378 22.9911 1.14378 22.7636C1.14378 22.5361 1.21122 22.3138 1.33757 22.1247C1.46393 21.9355 1.64353 21.7881 1.85366 21.701C2.06379 21.614 2.29502 21.5912 2.51812 21.6355C2.74121 21.6798 2.94615 21.7893 3.10702 21.9501C3.32271 22.1659 3.44387 22.4585 3.44387 22.7636C3.44387 23.0687 3.32271 23.3613 3.10702 23.5771ZM26.9041 21.9501C27.0923 21.7619 27.34 21.6447 27.605 21.6186C27.8699 21.5925 28.1357 21.6591 28.357 21.807C28.5784 21.9549 28.7416 22.175 28.8189 22.4297C28.8962 22.6845 28.8828 22.9581 28.7809 23.2041C28.679 23.45 28.495 23.6531 28.2602 23.7786C28.0254 23.9041 27.7544 23.9443 27.4933 23.8923C27.2322 23.8404 26.9972 23.6996 26.8283 23.4938C26.6594 23.288 26.5671 23.03 26.5671 22.7638C26.5668 22.6126 26.5965 22.4628 26.6543 22.3231C26.7122 22.1835 26.797 22.0566 26.9041 21.9498V21.9501ZM19.1117 21.8184C17.9509 22.7709 16.4958 23.2914 14.9943 23.2913C13.4928 23.2912 12.0377 22.7705 10.8771 21.8179C9.71647 20.8652 8.92206 19.5396 8.62921 18.0669C8.33637 16.5943 8.56322 15.0656 9.27111 13.7414C9.97899 12.4172 11.1241 11.3795 12.5114 10.8049C13.8986 10.2304 15.4422 10.1546 16.879 10.5906C18.3159 11.0265 19.5571 11.9472 20.3912 13.1957C21.2254 14.4442 21.6008 15.9433 21.4536 17.4376C21.3722 18.2863 21.1233 19.1105 20.7214 19.8624C20.3194 20.6143 19.7722 21.279 19.1117 21.8181V21.8184Z" fill="#00BE4C"/>
</svg>
