<svg width="68" height="68" viewBox="0 0 68 68" fill="none" xmlns="http://www.w3.org/2000/svg">
<path d="M34 0C15.2575 0 0 15.2462 0 34C0 52.7425 15.2575 68 34 68C52.7425 68 68 52.7425 68 34C68 15.2433 52.7425 0 34 0ZM3.42833 33.9972C3.42833 29.5687 4.37183 25.3612 6.07467 21.5617L20.6607 61.5117C10.4578 56.5505 3.42833 46.0927 3.42833 33.9972ZM34 64.5717C30.9967 64.5717 28.1038 64.1325 25.364 63.3222L34.5355 36.6718L43.928 62.4183C43.996 62.5713 44.0668 62.7045 44.1462 62.8433C40.9785 63.954 37.5643 64.5717 34 64.5717ZM38.2075 19.6775V19.6747C40.0435 19.5783 41.701 19.3885 41.701 19.3885C43.3472 19.1958 43.1545 16.7705 41.5083 16.864C41.5083 16.864 36.5585 17.2465 33.3653 17.2465C30.362 17.2465 25.3158 16.864 25.3158 16.864C23.6725 16.7677 23.4827 19.2922 25.126 19.3885C25.126 19.3885 26.6872 19.5812 28.3333 19.6747L33.0905 32.725L26.401 52.7822L15.2717 19.6747C17.1105 19.5783 18.768 19.3885 18.768 19.3885C20.4142 19.1958 20.2215 16.7705 18.5753 16.864C18.5753 16.864 13.6255 17.2465 10.4323 17.2465C9.85717 17.2465 9.18283 17.2323 8.4575 17.2068C13.9287 8.91083 23.3183 3.42833 34 3.42833C41.9532 3.42833 49.2037 6.47417 54.6465 11.4467C54.5077 11.4325 54.3858 11.4212 54.2498 11.4212C51.2465 11.4212 49.1215 14.0392 49.1215 16.8498C49.1215 19.3715 50.575 21.4965 52.1248 24.021C53.2893 26.0497 54.6493 28.6677 54.6493 32.453C54.6493 35.071 53.6492 38.0998 52.3175 42.3385L49.2717 52.5243L38.2075 19.6775ZM60.8317 19.3318C63.2173 23.6923 64.5745 28.6818 64.5745 34.0028C64.5745 45.2852 58.4602 55.1282 49.3708 60.4208L49.368 60.418L58.7038 33.422C60.4435 29.0615 61.0357 25.5822 61.0357 22.4683C61.0357 21.3463 60.9677 20.3037 60.8317 19.3318Z" fill="#EB5B31"/>
</svg>
