<svg width="715" height="722" fill="none" xmlns="http://www.w3.org/2000/svg"><path opacity=".4" d="M583.451 320.928c11.624-89.811-105.353-189.02-221.685-197.139-88.568-6.182-106.805 92.759-177.41 100.825-70.605 8.066-74.52 209.553-24.762 266.05 36.312 41.23 134.929-1.216 156.447 74.067 21.517 75.283 188.799 13.262 241.92-66.054 53.122-79.316 12.562-77.858 25.49-177.749z" stroke="url(#paint0_linear_2920_144)"/><path opacity=".5" d="M557.14 191.607c-39.991-96.038-214.661-119.685-335.344-60.778-91.881 44.847-61.636 124.007-108.595 194.769-45.25 68.186 46.037 251.372 128.109 278.924 59.895 20.107 124.468-78.909 189.166-16.408 64.698 62.502 166.913-105.656 174.337-215.146 7.424-109.491-3.194-74.546-47.673-181.361z" stroke="url(#paint1_linear_2920_144)"/><path opacity=".2" d="M514.548 228.39c-31.04-74.482-165.526-98.907-258.935-53.331-71.115 34.698-41.113 119.172-92.016 156.859-50.903 37.688 35.839 194.908 99.414 216.329 46.396 15.633 103.604-61.066 153.751-12.564 50.148 48.502 151.634-73.901 157.3-158.776 5.666-84.876-24.99-65.676-59.514-148.517z" stroke="url(#paint2_linear_2920_144)"/><defs><linearGradient id="paint0_linear_2920_144" x1="356.21" y1="123.511" x2="356.21" y2="598.756" gradientUnits="userSpaceOnUse"><stop stop-color="#F0C6AC"/><stop offset="1" stop-color="#AB836A"/></linearGradient><linearGradient id="paint1_linear_2920_144" x1="217.125" y1="126.064" x2="490.08" y2="598.837" gradientUnits="userSpaceOnUse"><stop stop-color="#F0C6AC"/><stop offset="1" stop-color="#AB836A"/></linearGradient><linearGradient id="paint2_linear_2920_144" x1="251.202" y1="177.32" x2="462.926" y2="544.037" gradientUnits="userSpaceOnUse"><stop stop-color="#F0C6AC"/><stop offset="1" stop-color="#AB836A"/></linearGradient></defs></svg>