<svg width="562" height="178" viewBox="0 0 562 178" fill="none" xmlns="http://www.w3.org/2000/svg">
<path d="M151.982 79.2361H148.982V82.2361H151.982V79.2361ZM175.85 79.2361H178.85V76.2361H175.85V79.2361ZM175.85 121.167V124.167H178.85V121.167H175.85ZM151.982 121.167V118.167H148.982V121.167H151.982ZM151.982 171V174H154.982V171H151.982ZM97.6334 171H94.6334V174H97.6334V171ZM97.6334 121.167H100.633V118.167H97.6334V121.167ZM6.83707 121.167L3.85111 121.457L4.11423 124.167H6.83707V121.167ZM3.61162 87.9448L1.06367 86.3611L0.527517 87.2237L0.625664 88.2346L3.61162 87.9448ZM97.6334 -63.3287L100.181 -61.745L100.633 -62.4723V-63.3287H97.6334ZM97.6334 -63.8125V-66.8125H94.6334V-63.8125H97.6334ZM151.982 -63.8125H154.982V-66.8125H151.982V-63.8125ZM55.38 79.2361L52.7873 77.7268L50.1624 82.2361H55.38V79.2361ZM97.6334 79.2361V82.2361H100.633V79.2361H97.6334ZM97.6334 6.98605H100.633V-3.58002L95.081 5.40958L97.6334 6.98605ZM94.2467 12.4693L91.6943 10.8928L91.6737 10.9262L91.654 10.96L94.2467 12.4693ZM151.982 82.2361H175.85V76.2361H151.982V82.2361ZM172.85 79.2361V121.167H178.85V79.2361H172.85ZM175.85 118.167H151.982V124.167H175.85V118.167ZM148.982 121.167V171H154.982V121.167H148.982ZM151.982 168H97.6334V174H151.982V168ZM100.633 171V121.167H94.6334V171H100.633ZM97.6334 118.167H6.83707V124.167H97.6334V118.167ZM9.82303 120.877L6.59758 87.6549L0.625664 88.2346L3.85111 121.457L9.82303 120.877ZM6.15958 89.5284L100.181 -61.745L95.0854 -64.9123L1.06367 86.3611L6.15958 89.5284ZM100.633 -63.3287V-63.8125H94.6334V-63.3287H100.633ZM97.6334 -60.8125H151.982V-66.8125H97.6334V-60.8125ZM148.982 -63.8125V79.2361H154.982V-63.8125H148.982ZM55.38 82.2361H97.6334V76.2361H55.38V82.2361ZM100.633 79.2361V6.98605H94.6334V79.2361H100.633ZM95.081 5.40958L91.6943 10.8928L96.7991 14.0458L100.186 8.56253L95.081 5.40958ZM91.654 10.96L52.7873 77.7268L57.9727 80.7453L96.8394 13.9786L91.654 10.96ZM341.316 148.422L339.009 146.504L339.002 146.513L341.316 148.422ZM220.362 -41.2344L218.055 -43.1521L218.048 -43.1435L220.362 -41.2344ZM341.316 -41.0731L339.003 -39.1625L341.316 -41.0731ZM301.804 -12.5279L299.149 -11.1321L299.152 -11.125L299.156 -11.1179L301.804 -12.5279ZM260.357 -13.4955L257.735 -14.9525L257.727 -14.9385L257.719 -14.9244L260.357 -13.4955ZM253.584 21.6618L250.584 21.6002L250.584 21.631V21.6618H253.584ZM260.196 120.199L257.556 121.624L257.56 121.631L257.564 121.638L260.196 120.199ZM301.643 120.522L304.259 121.991L304.263 121.983L304.267 121.976L301.643 120.522ZM308.416 83.2679L311.416 83.287L311.416 83.2774V83.2679H308.416ZM359.765 75.043C359.765 106.347 352.706 130.027 339.009 146.504L343.623 150.34C358.525 132.412 365.765 107.172 365.765 75.043H359.765ZM339.002 146.513C325.475 162.909 306.339 171.225 281.161 171.225V177.225C307.806 177.225 328.773 168.34 343.63 150.331L339.002 146.513ZM281.161 171.225C255.767 171.225 236.469 162.853 222.836 146.35L218.21 150.171C233.176 168.288 254.304 177.225 281.161 177.225V171.225ZM222.836 146.35C209.13 129.759 202.074 106.125 202.074 75.043H196.074C196.074 106.965 203.317 132.143 218.21 150.171L222.836 146.35ZM202.074 75.043V32.1445H196.074V75.043H202.074ZM202.074 32.1445C202.074 0.835587 209.081 -22.8473 222.676 -39.3252L218.048 -43.1435C203.258 -25.2166 196.074 0.0196991 196.074 32.1445H202.074ZM222.669 -39.3167C236.302 -55.7178 255.55 -64.0379 280.839 -64.0379V-70.0379C254.091 -70.0379 233.02 -61.1557 218.055 -43.1521L222.669 -39.3167ZM280.839 -64.0379C306.121 -64.0379 325.367 -55.6687 339.003 -39.1625L343.629 -42.9837C328.665 -61.0972 307.593 -70.0379 280.839 -70.0379V-64.0379ZM339.003 -39.1625C352.708 -22.5726 359.765 1.11349 359.765 32.3058H365.765C365.765 0.279373 358.523 -24.9538 343.629 -42.9837L339.003 -39.1625ZM359.765 32.3058V75.043H365.765V32.3058H359.765ZM311.416 25.2098C311.416 8.17332 309.21 -5.00327 304.452 -13.9379L299.156 -11.1179C303.215 -3.49524 305.416 8.48665 305.416 25.2098H311.416ZM304.46 -13.9237C302.042 -18.5232 298.838 -22.1121 294.8 -24.5348C290.764 -26.9566 286.071 -28.1071 280.839 -28.1071V-22.1071C285.175 -22.1071 288.761 -21.1612 291.713 -19.3898C294.664 -17.6195 297.158 -14.9187 299.149 -11.1321L304.46 -13.9237ZM280.839 -28.1071C275.743 -28.1071 271.168 -27.0501 267.223 -24.814C263.271 -22.5731 260.118 -19.2416 257.735 -14.9525L262.98 -12.0386C264.897 -15.4905 267.308 -17.9648 270.183 -19.5945C273.066 -21.2289 276.581 -22.1071 280.839 -22.1071V-28.1071ZM257.719 -14.9244C253.184 -6.55106 250.91 5.74464 250.584 21.6002L256.583 21.7235C256.902 6.18469 259.144 -4.95786 262.995 -12.0667L257.719 -14.9244ZM250.584 21.6618V81.6551H256.584V21.6618H250.584ZM250.584 81.6551C250.584 99.3091 252.783 112.777 257.556 121.624L262.836 118.775C258.792 111.279 256.584 99.0511 256.584 81.6551H250.584ZM257.564 121.638C259.994 126.085 263.209 129.542 267.244 131.869C271.272 134.193 275.949 135.295 281.161 135.295V129.295C276.805 129.295 273.203 128.38 270.242 126.672C267.289 124.968 264.806 122.377 262.828 118.76L257.564 121.638ZM281.161 135.295C286.217 135.295 290.769 134.218 294.711 131.952C298.658 129.684 301.828 126.318 304.259 121.991L299.027 119.053C297.049 122.574 294.602 125.095 291.721 126.75C288.836 128.409 285.352 129.295 281.161 129.295V135.295ZM304.267 121.976C309.048 113.346 311.308 100.307 311.416 83.287L305.416 83.2487C305.31 99.9882 303.054 111.785 299.019 119.068L304.267 121.976ZM311.416 83.2679V25.2098H305.416V83.2679H311.416ZM534.52 79.2361H531.52V82.2361H534.52V79.2361ZM558.388 79.2361H561.388V76.2361H558.388V79.2361ZM558.388 121.167V124.167H561.388V121.167H558.388ZM534.52 121.167V118.167H531.52V121.167H534.52ZM534.52 171V174H537.52V171H534.52ZM480.171 171H477.171V174H480.171V171ZM480.171 121.167H483.171V118.167H480.171V121.167ZM389.375 121.167L386.389 121.457L386.652 124.167H389.375V121.167ZM386.15 87.9448L383.602 86.3611L383.065 87.2237L383.164 88.2346L386.15 87.9448ZM480.171 -63.3287L482.719 -61.745L483.171 -62.4723V-63.3287H480.171ZM480.171 -63.8125V-66.8125H477.171V-63.8125H480.171ZM534.52 -63.8125H537.52V-66.8125H534.52V-63.8125ZM437.918 79.2361L435.325 77.7268L432.7 82.2361H437.918V79.2361ZM480.171 79.2361V82.2361H483.171V79.2361H480.171ZM480.171 6.98605H483.171V-3.58002L477.619 5.40958L480.171 6.98605ZM476.785 12.4693L474.232 10.8928L474.212 10.9262L474.192 10.96L476.785 12.4693ZM534.52 82.2361H558.388V76.2361H534.52V82.2361ZM555.388 79.2361V121.167H561.388V79.2361H555.388ZM558.388 118.167H534.52V124.167H558.388V118.167ZM531.52 121.167V171H537.52V121.167H531.52ZM534.52 168H480.171V174H534.52V168ZM483.171 171V121.167H477.171V171H483.171ZM480.171 118.167H389.375V124.167H480.171V118.167ZM392.361 120.877L389.136 87.6549L383.164 88.2346L386.389 121.457L392.361 120.877ZM388.698 89.5284L482.719 -61.745L477.623 -64.9123L383.602 86.3611L388.698 89.5284ZM483.171 -63.3287V-63.8125H477.171V-63.3287H483.171ZM480.171 -60.8125H534.52V-66.8125H480.171V-60.8125ZM531.52 -63.8125V79.2361H537.52V-63.8125H531.52ZM437.918 82.2361H480.171V76.2361H437.918V82.2361ZM483.171 79.2361V6.98605H477.171V79.2361H483.171ZM477.619 5.40958L474.232 10.8928L479.337 14.0458L482.724 8.56253L477.619 5.40958ZM474.192 10.96L435.325 77.7268L440.511 80.7453L479.377 13.9786L474.192 10.96Z" fill="white" fill-opacity="0.2"/>
</svg>
