<svg width="1440" height="5604" viewBox="0 0 1440 5604" fill="none" xmlns="http://www.w3.org/2000/svg">
<g filter="url(#filter0_f)">
<circle cx="-47.5" cy="1072.5" r="281.5" fill="#55B4ED" fill-opacity="0.1"/>
</g>
<g filter="url(#filter1_f)">
<circle cx="-44.5" cy="5022.5" r="281.5" fill="#55B4ED" fill-opacity="0.1"/>
</g>
<g filter="url(#filter2_f)">
<circle cx="1510.51" cy="3616.5" r="281.5" fill="#55B4ED" fill-opacity="0.1"/>
</g>
<path d="M773.182 696.933C773.182 696.933 738.66 367.497 1157.93 373.501C1577.21 379.754 1411.35 -197.07 1732.56 -148.042" stroke="url(#paint0_linear)" stroke-width="1.6352" stroke-miterlimit="10"/>
<path d="M785.19 711.941C785.19 711.941 750.668 382.506 1169.94 388.509C1589.22 394.513 1423.36 -182.061 1744.57 -133.034" stroke="url(#paint1_linear)" stroke-width="1.6352" stroke-miterlimit="10"/>
<path d="M797.198 726.699C797.198 726.699 762.675 397.264 1181.95 403.267C1601.22 409.521 1435.12 -167.303 1756.58 -118.276" stroke="url(#paint2_linear)" stroke-width="1.6352" stroke-miterlimit="10"/>
<path d="M114 639.65C114 639.65 310.629 412.773 831.97 719.445C1353.31 1026.12 1520.42 711.941 1401.59 456.548C1283.02 200.904 1371.82 -289.872 1859.64 -53.7394" stroke="url(#paint3_linear)" stroke-width="1.6352" stroke-miterlimit="10"/>
<path d="M137.016 662.664C137.016 662.664 333.644 435.786 854.986 742.459C1376.33 1049.13 1543.44 734.954 1424.61 479.561C1305.78 223.917 1394.84 -266.859 1882.66 -30.7262" stroke="url(#paint4_linear)" stroke-width="1.6352" stroke-miterlimit="10"/>
<path d="M160.031 685.676C160.031 685.676 356.66 458.799 878.001 765.471C1399.34 1072.14 1566.45 757.967 1447.62 502.573C1328.8 247.18 1417.85 -243.596 1905.67 -7.46339" stroke="url(#paint5_linear)" stroke-width="1.6352" stroke-miterlimit="10"/>
<path d="M183.045 708.69C183.045 708.69 379.674 481.812 901.015 788.484C1422.36 1095.16 1589.47 780.98 1470.64 525.587C1351.81 269.943 1440.87 -220.833 1928.69 15.2997" stroke="url(#paint6_linear)" stroke-width="1.6352" stroke-miterlimit="10"/>
<path d="M206.061 731.452C206.061 731.452 402.689 504.575 924.031 811.247C1445.37 1117.92 1612.48 803.743 1493.65 548.349C1374.83 292.956 1463.88 -197.82 1951.7 38.3125" stroke="url(#paint7_linear)" stroke-width="1.6352" stroke-miterlimit="10"/>
<path d="M229.076 754.465C229.076 754.465 425.705 527.587 947.046 834.26C1468.39 1140.93 1635.5 826.756 1516.67 571.362C1397.84 315.968 1486.9 -174.808 1974.72 61.3252" stroke="url(#paint8_linear)" stroke-width="1.6352" stroke-miterlimit="10"/>
<path d="M252.09 777.478C252.09 777.478 448.719 550.601 970.06 857.273C1491.4 1163.95 1658.51 849.769 1539.68 594.375C1420.86 338.982 1509.91 -152.045 1997.73 84.3383" stroke="url(#paint9_linear)" stroke-width="1.6352" stroke-miterlimit="10"/>
<path d="M275.105 800.491C275.105 800.491 471.734 573.613 993.076 880.286C1514.42 1186.96 1681.53 872.781 1562.7 617.388C1443.87 361.994 1532.93 -128.782 2020.75 107.351" stroke="url(#paint10_linear)" stroke-width="1.6352" stroke-miterlimit="10"/>
<g opacity="0.04">
<path d="M-226.709 529.382C-226.709 529.382 -366.512 397.775 -180.118 241.778C6.36933 85.8918 -284.708 -104.664 -125.101 -204.664" stroke="url(#paint11_linear)" stroke-width="1.6352" stroke-miterlimit="10"/>
<path d="M-215.758 531.43C-215.758 531.43 -355.56 399.822 -169.167 243.826C17.2264 87.8293 -273.757 -102.617 -114.149 -202.617" stroke="url(#paint12_linear)" stroke-width="1.6352" stroke-miterlimit="10"/>
<path d="M-204.901 533.368C-204.901 533.368 -344.703 401.76 -158.31 245.764C28.1778 89.8772 -263.01 -100.584 -103.293 -200.679" stroke="url(#paint13_linear)" stroke-width="1.6352" stroke-miterlimit="10"/>
<path d="M-537.857 753.629C-537.857 753.629 -537.348 579.603 -192.374 517.026C152.599 454.45 107.115 253.255 -41.6953 186.059C-190.491 118.659 -337.177 -130.463 -33.6128 -211.334" stroke="url(#paint14_linear)" stroke-width="1.6352" stroke-miterlimit="10"/>
<path d="M-519.042 755.027C-519.042 755.027 -518.533 581.001 -173.56 518.424C171.414 455.848 125.93 254.653 -22.8807 187.457C-171.786 120.151 -318.362 -129.065 -14.7983 -209.936" stroke="url(#paint15_linear)" stroke-width="1.6352" stroke-miterlimit="10"/>
<path d="M-500.23 756.425C-500.23 756.425 -499.721 582.399 -154.747 519.822C190.226 457.246 144.742 256.051 -4.06857 188.855C-152.879 121.659 -299.455 -127.557 4.10851 -208.428" stroke="url(#paint16_linear)" stroke-width="1.6352" stroke-miterlimit="10"/>
<path d="M-481.415 757.824C-481.415 757.824 -480.906 583.798 -135.933 521.221C209.041 458.645 163.557 257.45 14.7461 190.254C-134.159 122.948 -280.735 -126.268 22.8285 -207.139" stroke="url(#paint17_linear)" stroke-width="1.6352" stroke-miterlimit="10"/>
<path d="M-462.697 759.112C-462.697 759.112 -462.188 585.086 -117.214 522.509C227.759 459.933 182.275 258.738 33.4646 191.542C-115.346 124.346 -261.922 -124.87 41.6417 -205.741" stroke="url(#paint18_linear)" stroke-width="1.6352" stroke-miterlimit="10"/>
<path d="M-443.882 760.51C-443.882 760.51 -443.373 586.484 -98.3998 523.907C246.574 461.331 201.09 260.136 52.2791 192.94C-96.5317 125.744 -243.108 -123.472 60.4562 -204.343" stroke="url(#paint19_linear)" stroke-width="1.6352" stroke-miterlimit="10"/>
<path d="M-425.068 761.909C-425.068 761.909 -424.559 587.882 -79.5856 525.306C265.388 462.729 219.904 261.535 71.0933 194.339C-77.7175 127.143 -224.388 -122.184 79.2704 -202.944" stroke="url(#paint20_linear)" stroke-width="1.6352" stroke-miterlimit="10"/>
<path d="M-406.253 763.307C-406.253 763.307 -405.744 589.28 -60.7709 526.704C284.203 464.127 238.719 262.933 89.908 195.737C-58.9027 128.541 -205.479 -120.676 98.0851 -201.546" stroke="url(#paint21_linear)" stroke-width="1.6352" stroke-miterlimit="10"/>
</g>
<defs>
<filter id="filter0_f" x="-629" y="491" width="1163" height="1163" filterUnits="userSpaceOnUse" color-interpolation-filters="sRGB">
<feFlood flood-opacity="0" result="BackgroundImageFix"/>
<feBlend mode="normal" in="SourceGraphic" in2="BackgroundImageFix" result="shape"/>
<feGaussianBlur stdDeviation="150" result="effect1_foregroundBlur"/>
</filter>
<filter id="filter1_f" x="-626" y="4441" width="1163" height="1163" filterUnits="userSpaceOnUse" color-interpolation-filters="sRGB">
<feFlood flood-opacity="0" result="BackgroundImageFix"/>
<feBlend mode="normal" in="SourceGraphic" in2="BackgroundImageFix" result="shape"/>
<feGaussianBlur stdDeviation="150" result="effect1_foregroundBlur"/>
</filter>
<filter id="filter2_f" x="929.008" y="3035" width="1163" height="1163" filterUnits="userSpaceOnUse" color-interpolation-filters="sRGB">
<feFlood flood-opacity="0" result="BackgroundImageFix"/>
<feBlend mode="normal" in="SourceGraphic" in2="BackgroundImageFix" result="shape"/>
<feGaussianBlur stdDeviation="150" result="effect1_foregroundBlur"/>
</filter>
<linearGradient id="paint0_linear" x1="1317.46" y1="347.413" x2="1173.16" y2="184.696" gradientUnits="userSpaceOnUse">
<stop stop-color="#55B4ED"/>
<stop offset="1" stop-color="white" stop-opacity="0"/>
</linearGradient>
<linearGradient id="paint1_linear" x1="1329.43" y1="362.274" x2="1185.13" y2="199.558" gradientUnits="userSpaceOnUse">
<stop stop-color="#55B4ED"/>
<stop offset="1" stop-color="white" stop-opacity="0"/>
</linearGradient>
<linearGradient id="paint2_linear" x1="1341.4" y1="377.135" x2="1197.1" y2="214.419" gradientUnits="userSpaceOnUse">
<stop stop-color="#55B4ED"/>
<stop offset="1" stop-color="white" stop-opacity="0"/>
</linearGradient>
<linearGradient id="paint3_linear" x1="1403.07" y1="760.975" x2="773.596" y2="51.1774" gradientUnits="userSpaceOnUse">
<stop stop-color="#55B4ED"/>
<stop offset="1" stop-color="white" stop-opacity="0"/>
</linearGradient>
<linearGradient id="paint4_linear" x1="1426.07" y1="783.967" x2="796.591" y2="74.1696" gradientUnits="userSpaceOnUse">
<stop stop-color="#55B4ED"/>
<stop offset="1" stop-color="white" stop-opacity="0"/>
</linearGradient>
<linearGradient id="paint5_linear" x1="1449.06" y1="806.959" x2="819.586" y2="97.1614" gradientUnits="userSpaceOnUse">
<stop stop-color="#55B4ED"/>
<stop offset="1" stop-color="white" stop-opacity="0"/>
</linearGradient>
<linearGradient id="paint6_linear" x1="1472.06" y1="829.951" x2="842.578" y2="120.154" gradientUnits="userSpaceOnUse">
<stop stop-color="#55B4ED"/>
<stop offset="1" stop-color="white" stop-opacity="0"/>
</linearGradient>
<linearGradient id="paint7_linear" x1="1495.05" y1="852.943" x2="865.573" y2="143.145" gradientUnits="userSpaceOnUse">
<stop stop-color="#55B4ED"/>
<stop offset="1" stop-color="white" stop-opacity="0"/>
</linearGradient>
<linearGradient id="paint8_linear" x1="1518.05" y1="875.934" x2="888.567" y2="166.137" gradientUnits="userSpaceOnUse">
<stop stop-color="#55B4ED"/>
<stop offset="1" stop-color="white" stop-opacity="0"/>
</linearGradient>
<linearGradient id="paint9_linear" x1="1541.04" y1="898.927" x2="911.56" y2="189.129" gradientUnits="userSpaceOnUse">
<stop stop-color="#55B4ED"/>
<stop offset="1" stop-color="white" stop-opacity="0"/>
</linearGradient>
<linearGradient id="paint10_linear" x1="1564.03" y1="921.918" x2="934.555" y2="212.121" gradientUnits="userSpaceOnUse">
<stop stop-color="#55B4ED"/>
<stop offset="1" stop-color="white" stop-opacity="0"/>
</linearGradient>
<linearGradient id="paint11_linear" x1="-119.933" y1="169.965" x2="-244.868" y2="153.106" gradientUnits="userSpaceOnUse">
<stop stop-color="#414141"/>
<stop offset="1" stop-color="white" stop-opacity="0"/>
</linearGradient>
<linearGradient id="paint12_linear" x1="-109.054" y1="171.962" x2="-233.988" y2="155.103" gradientUnits="userSpaceOnUse">
<stop stop-color="#414141"/>
<stop offset="1" stop-color="white" stop-opacity="0"/>
</linearGradient>
<linearGradient id="paint13_linear" x1="-98.1752" y1="173.96" x2="-223.109" y2="157.101" gradientUnits="userSpaceOnUse">
<stop/>
<stop offset="1" stop-color="white" stop-opacity="0"/>
</linearGradient>
<linearGradient id="paint14_linear" x1="74.1357" y1="319.186" x2="-470.848" y2="245.646" gradientUnits="userSpaceOnUse">
<stop/>
<stop offset="1" stop-color="white" stop-opacity="0"/>
</linearGradient>
<linearGradient id="paint15_linear" x1="92.933" y1="320.583" x2="-452.051" y2="247.043" gradientUnits="userSpaceOnUse">
<stop stop-color="#414141"/>
<stop offset="1" stop-color="white" stop-opacity="0"/>
</linearGradient>
<linearGradient id="paint16_linear" x1="111.728" y1="321.98" x2="-433.256" y2="248.44" gradientUnits="userSpaceOnUse">
<stop/>
<stop offset="1" stop-color="white" stop-opacity="0"/>
</linearGradient>
<linearGradient id="paint17_linear" x1="130.525" y1="323.377" x2="-414.458" y2="249.837" gradientUnits="userSpaceOnUse">
<stop/>
<stop offset="1" stop-color="white" stop-opacity="0"/>
</linearGradient>
<linearGradient id="paint18_linear" x1="149.321" y1="324.774" x2="-395.662" y2="251.234" gradientUnits="userSpaceOnUse">
<stop/>
<stop offset="1" stop-color="white" stop-opacity="0"/>
</linearGradient>
<linearGradient id="paint19_linear" x1="168.119" y1="326.171" x2="-376.865" y2="252.631" gradientUnits="userSpaceOnUse">
<stop/>
<stop offset="1" stop-color="white" stop-opacity="0"/>
</linearGradient>
<linearGradient id="paint20_linear" x1="186.916" y1="327.568" x2="-358.068" y2="254.028" gradientUnits="userSpaceOnUse">
<stop/>
<stop offset="1" stop-color="white" stop-opacity="0"/>
</linearGradient>
<linearGradient id="paint21_linear" x1="205.713" y1="328.964" x2="-339.271" y2="255.425" gradientUnits="userSpaceOnUse">
<stop stop-color="#414141"/>
<stop offset="1" stop-color="white" stop-opacity="0"/>
</linearGradient>
</defs>
</svg>
