<svg width="451" height="1816" viewBox="0 0 451 1816" fill="none" xmlns="http://www.w3.org/2000/svg">
<path d="M947.624 1262.24C947.624 1262.24 1149.14 1075.88 884.671 850.522C620.067 625.319 1038.57 356.614 811.687 211.641" stroke="url(#paint0_linear)" stroke-width="1.6352" stroke-miterlimit="10"/>
<path d="M931.944 1265.03C931.944 1265.03 1133.46 1078.67 868.991 853.309C604.524 627.951 1022.89 359.402 796.007 214.429" stroke="url(#paint1_linear)" stroke-width="1.6352" stroke-miterlimit="10"/>
<path d="M916.399 1267.66C916.399 1267.66 1117.91 1081.3 853.446 855.942C588.842 630.74 1007.51 362.172 780.462 217.062" stroke="url(#paint2_linear)" stroke-width="1.6352" stroke-miterlimit="10"/>
<path d="M1389.56 1586.74C1389.56 1586.74 1391.04 1337.97 898.702 1244.14C406.362 1150.31 473.932 863.285 687.507 769.117C901.062 674.656 1113.91 320.401 680.993 200.948" stroke="url(#paint3_linear)" stroke-width="1.6352" stroke-miterlimit="10"/>
<path d="M1362.65 1588.5C1362.65 1588.5 1364.13 1339.73 871.789 1245.9C379.449 1152.07 447.02 865.044 660.594 770.876C874.306 676.553 1086.99 322.161 654.081 202.707" stroke="url(#paint4_linear)" stroke-width="1.6352" stroke-miterlimit="10"/>
<path d="M1335.74 1590.26C1335.74 1590.26 1337.22 1341.49 844.877 1247.66C352.537 1153.83 420.108 866.805 633.682 772.637C847.257 678.469 1059.95 324.077 627.033 204.624" stroke="url(#paint5_linear)" stroke-width="1.6352" stroke-miterlimit="10"/>
<path d="M1308.83 1592.02C1308.83 1592.02 1310.31 1343.25 817.966 1249.42C325.626 1155.59 393.197 868.565 606.771 774.397C820.483 680.073 1033.17 325.682 600.258 206.228" stroke="url(#paint6_linear)" stroke-width="1.6352" stroke-miterlimit="10"/>
<path d="M1282.05 1593.63C1282.05 1593.63 1283.53 1344.85 791.191 1251.03C298.851 1157.2 366.421 870.17 579.996 776.002C793.571 681.834 1006.26 327.442 573.346 207.989" stroke="url(#paint7_linear)" stroke-width="1.6352" stroke-miterlimit="10"/>
<path d="M1255.14 1595.39C1255.14 1595.39 1256.62 1346.61 764.279 1252.78C271.939 1158.96 339.509 871.93 553.084 777.762C766.659 683.594 979.348 329.202 546.434 209.749" stroke="url(#paint8_linear)" stroke-width="1.6352" stroke-miterlimit="10"/>
<path d="M1228.23 1597.15C1228.23 1597.15 1229.71 1348.37 737.366 1254.54C245.026 1160.72 312.596 873.689 526.171 779.521C739.746 685.353 952.572 330.806 519.521 211.508" stroke="url(#paint9_linear)" stroke-width="1.6352" stroke-miterlimit="10"/>
<path d="M1201.32 1598.91C1201.32 1598.91 1202.79 1350.13 710.455 1256.3C218.114 1162.48 285.685 875.449 499.26 781.281C712.834 687.113 925.523 332.721 492.61 213.268" stroke="url(#paint10_linear)" stroke-width="1.6352" stroke-miterlimit="10"/>
<defs>
<linearGradient id="paint0_linear" x1="799.549" y1="747.102" x2="978.354" y2="724.588" gradientUnits="userSpaceOnUse">
<stop stop-color="#55B4ED"/>
<stop offset="1" stop-color="white" stop-opacity="0"/>
</linearGradient>
<linearGradient id="paint1_linear" x1="783.972" y1="749.819" x2="962.777" y2="727.305" gradientUnits="userSpaceOnUse">
<stop stop-color="#55B4ED"/>
<stop offset="1" stop-color="white" stop-opacity="0"/>
</linearGradient>
<linearGradient id="paint2_linear" x1="768.395" y1="752.537" x2="947.2" y2="730.023" gradientUnits="userSpaceOnUse">
<stop stop-color="#55B4ED"/>
<stop offset="1" stop-color="white" stop-opacity="0"/>
</linearGradient>
<linearGradient id="paint3_linear" x1="520.24" y1="957.95" x2="1300.22" y2="859.739" gradientUnits="userSpaceOnUse">
<stop stop-color="#55B4ED"/>
<stop offset="1" stop-color="white" stop-opacity="0"/>
</linearGradient>
<linearGradient id="paint4_linear" x1="493.352" y1="959.708" x2="1273.33" y2="861.497" gradientUnits="userSpaceOnUse">
<stop stop-color="#55B4ED"/>
<stop offset="1" stop-color="white" stop-opacity="0"/>
</linearGradient>
<linearGradient id="paint5_linear" x1="466.465" y1="961.467" x2="1246.44" y2="863.256" gradientUnits="userSpaceOnUse">
<stop stop-color="#55B4ED"/>
<stop offset="1" stop-color="white" stop-opacity="0"/>
</linearGradient>
<linearGradient id="paint6_linear" x1="439.578" y1="963.226" x2="1219.56" y2="865.014" gradientUnits="userSpaceOnUse">
<stop stop-color="#55B4ED"/>
<stop offset="1" stop-color="white" stop-opacity="0"/>
</linearGradient>
<linearGradient id="paint7_linear" x1="412.691" y1="964.985" x2="1192.67" y2="866.773" gradientUnits="userSpaceOnUse">
<stop stop-color="#55B4ED"/>
<stop offset="1" stop-color="white" stop-opacity="0"/>
</linearGradient>
<linearGradient id="paint8_linear" x1="385.803" y1="966.743" x2="1165.78" y2="868.532" gradientUnits="userSpaceOnUse">
<stop stop-color="#55B4ED"/>
<stop offset="1" stop-color="white" stop-opacity="0"/>
</linearGradient>
<linearGradient id="paint9_linear" x1="358.915" y1="968.501" x2="1138.89" y2="870.29" gradientUnits="userSpaceOnUse">
<stop stop-color="#55B4ED"/>
<stop offset="1" stop-color="white" stop-opacity="0"/>
</linearGradient>
<linearGradient id="paint10_linear" x1="332.028" y1="970.259" x2="1112.01" y2="872.048" gradientUnits="userSpaceOnUse">
<stop stop-color="#55B4ED"/>
<stop offset="1" stop-color="white" stop-opacity="0"/>
</linearGradient>
</defs>
</svg>
