<svg width="375" height="351" viewBox="0 0 375 351" fill="none" xmlns="http://www.w3.org/2000/svg">
<path d="M371.135 801.552C371.135 801.552 159.794 823.602 163.767 554.642C167.901 285.682 -202.176 391.911 -170.632 185.871" stroke="url(#paint0_linear)" stroke-width="1.6352" stroke-miterlimit="10"/>
<path d="M380.767 793.855C380.767 793.855 169.426 815.905 173.399 546.945C177.372 277.984 -192.545 384.214 -161.001 178.174" stroke="url(#paint1_linear)" stroke-width="1.6352" stroke-miterlimit="10"/>
<path d="M390.239 786.155C390.239 786.155 178.898 808.206 182.871 539.245C187.004 270.285 -183.073 376.675 -151.529 170.475" stroke="url(#paint2_linear)" stroke-width="1.6352" stroke-miterlimit="10"/>
<path d="M334.2 1224.4C334.2 1224.4 188.716 1098.2 385.596 763.847C582.476 429.499 380.983 322.208 217.115 398.361C53.0864 474.354 -261.718 417.241 -110.098 104.377" stroke="url(#paint3_linear)" stroke-width="1.6352" stroke-miterlimit="10"/>
<path d="M348.967 1209.64C348.967 1209.64 203.484 1083.44 400.364 749.089C597.244 414.741 395.75 307.45 231.882 383.603C67.8539 459.756 -246.95 402.483 -95.3304 89.6189" stroke="url(#paint4_linear)" stroke-width="1.6352" stroke-miterlimit="10"/>
<path d="M363.739 1194.88C363.739 1194.88 218.256 1068.68 415.136 734.333C612.016 399.985 410.522 292.694 246.654 368.847C82.7865 445 -232.017 387.727 -80.3978 74.8622" stroke="url(#paint5_linear)" stroke-width="1.6352" stroke-miterlimit="10"/>
<path d="M378.506 1180.13C378.506 1180.13 233.023 1053.92 429.903 719.575C626.783 385.227 425.289 277.936 261.421 354.089C97.3929 430.242 -217.411 372.969 -65.7914 60.1045" stroke="url(#paint6_linear)" stroke-width="1.6352" stroke-miterlimit="10"/>
<path d="M393.114 1165.37C393.114 1165.37 247.631 1039.17 444.511 704.817C641.391 370.469 439.897 263.178 276.029 339.331C112.162 415.484 -202.642 358.211 -51.0228 45.3466" stroke="url(#paint7_linear)" stroke-width="1.6352" stroke-miterlimit="10"/>
<path d="M407.884 1150.61C407.884 1150.61 262.401 1024.41 459.281 690.06C656.161 355.712 454.667 248.421 290.799 324.574C126.931 400.727 -187.873 343.454 -36.2532 30.5897" stroke="url(#paint8_linear)" stroke-width="1.6352" stroke-miterlimit="10"/>
<path d="M422.654 1135.85C422.654 1135.85 277.171 1009.65 474.051 675.303C670.931 340.955 469.437 233.664 305.569 309.817C141.701 385.97 -173.263 328.697 -21.4831 15.8329" stroke="url(#paint9_linear)" stroke-width="1.6352" stroke-miterlimit="10"/>
<path d="M437.423 1121.1C437.423 1121.1 291.94 994.894 488.82 660.545C685.7 326.197 484.206 218.906 320.338 295.059C156.47 371.212 -158.334 313.939 -6.71418 1.07494" stroke="url(#paint10_linear)" stroke-width="1.6352" stroke-miterlimit="10"/>
<defs>
<linearGradient id="paint0_linear" x1="147.079" y1="452.299" x2="42.655" y2="544.821" gradientUnits="userSpaceOnUse">
<stop stop-color="white"/>
<stop offset="1" stop-color="white" stop-opacity="0"/>
</linearGradient>
<linearGradient id="paint1_linear" x1="156.616" y1="444.626" x2="52.1923" y2="537.148" gradientUnits="userSpaceOnUse">
<stop stop-color="white"/>
<stop offset="1" stop-color="white" stop-opacity="0"/>
</linearGradient>
<linearGradient id="paint2_linear" x1="166.154" y1="436.951" x2="61.7301" y2="529.474" gradientUnits="userSpaceOnUse">
<stop stop-color="white"/>
<stop offset="1" stop-color="white" stop-opacity="0"/>
</linearGradient>
<linearGradient id="paint3_linear" x1="412.404" y1="397.499" x2="-43.1103" y2="801.099" gradientUnits="userSpaceOnUse">
<stop stop-color="white"/>
<stop offset="1" stop-color="white" stop-opacity="0"/>
</linearGradient>
<linearGradient id="paint4_linear" x1="427.158" y1="382.755" x2="-28.3562" y2="786.355" gradientUnits="userSpaceOnUse">
<stop stop-color="white"/>
<stop offset="1" stop-color="white" stop-opacity="0"/>
</linearGradient>
<linearGradient id="paint5_linear" x1="441.916" y1="368.012" x2="-13.5974" y2="771.612" gradientUnits="userSpaceOnUse">
<stop stop-color="white"/>
<stop offset="1" stop-color="white" stop-opacity="0"/>
</linearGradient>
<linearGradient id="paint6_linear" x1="456.67" y1="353.268" x2="1.15603" y2="756.868" gradientUnits="userSpaceOnUse">
<stop stop-color="white"/>
<stop offset="1" stop-color="white" stop-opacity="0"/>
</linearGradient>
<linearGradient id="paint7_linear" x1="471.425" y1="338.523" x2="15.9109" y2="742.123" gradientUnits="userSpaceOnUse">
<stop stop-color="white"/>
<stop offset="1" stop-color="white" stop-opacity="0"/>
</linearGradient>
<linearGradient id="paint8_linear" x1="486.181" y1="323.78" x2="30.667" y2="727.38" gradientUnits="userSpaceOnUse">
<stop stop-color="white"/>
<stop offset="1" stop-color="white" stop-opacity="0"/>
</linearGradient>
<linearGradient id="paint9_linear" x1="500.937" y1="309.037" x2="45.4236" y2="712.637" gradientUnits="userSpaceOnUse">
<stop stop-color="white"/>
<stop offset="1" stop-color="white" stop-opacity="0"/>
</linearGradient>
<linearGradient id="paint10_linear" x1="515.693" y1="294.292" x2="60.1789" y2="697.892" gradientUnits="userSpaceOnUse">
<stop stop-color="white"/>
<stop offset="1" stop-color="white" stop-opacity="0"/>
</linearGradient>
</defs>
</svg>
