<svg width="808" height="516" viewBox="0 0 808 516" fill="none" xmlns="http://www.w3.org/2000/svg">
<path d="M694.634 1111.15C694.634 1111.15 417.436 1186.59 364.173 826.844C311.124 467.061 -159.552 689.389 -162.325 407.594" stroke="url(#paint0_linear)" stroke-width="1.6352" stroke-miterlimit="10"/>
<path d="M705.81 1098.78C705.81 1098.78 428.612 1174.22 375.349 814.475C322.086 454.727 -148.376 677.02 -151.15 395.225" stroke="url(#paint1_linear)" stroke-width="1.6352" stroke-miterlimit="10"/>
<path d="M716.772 1086.45C716.772 1086.45 439.574 1161.89 386.311 802.14C333.262 442.357 -137.379 664.899 -140.188 382.89" stroke="url(#paint2_linear)" stroke-width="1.6352" stroke-miterlimit="10"/>
<path d="M737.422 1683.41C737.422 1683.41 515.818 1546.69 705.72 1057.69C895.621 568.691 603.399 469.403 401.326 606.697C199.005 743.813 -233.485 736.152 -99.2981 285.672" stroke="url(#paint3_linear)" stroke-width="1.6352" stroke-miterlimit="10"/>
<path d="M753.913 1660.5C753.913 1660.5 532.31 1523.79 722.211 1034.78C912.112 545.783 619.89 446.495 417.818 583.79C215.531 721.12 -216.994 713.245 -82.8069 262.765" stroke="url(#paint4_linear)" stroke-width="1.6352" stroke-miterlimit="10"/>
<path d="M770.411 1637.6C770.411 1637.6 548.808 1500.88 738.709 1011.88C928.611 522.876 636.388 423.588 434.316 560.883C232.243 698.177 -200.281 690.303 -66.0945 239.823" stroke="url(#paint5_linear)" stroke-width="1.6352" stroke-miterlimit="10"/>
<path d="M786.901 1614.69C786.901 1614.69 565.298 1477.97 755.199 988.97C945.101 499.969 652.879 400.681 450.806 537.976C248.519 675.306 -184.005 667.431 -49.8185 216.951" stroke="url(#paint6_linear)" stroke-width="1.6352" stroke-miterlimit="10"/>
<path d="M803.18 1591.82C803.18 1591.82 581.577 1455.1 771.479 966.097C961.38 477.095 669.158 377.808 467.085 515.102C265.013 652.397 -167.512 644.523 -33.325 194.043" stroke="url(#paint7_linear)" stroke-width="1.6352" stroke-miterlimit="10"/>
<path d="M819.675 1568.91C819.675 1568.91 598.071 1432.19 787.973 943.191C977.874 454.189 685.652 354.901 483.58 492.196C281.507 629.491 -151.018 621.616 -16.8309 171.136" stroke="url(#paint8_linear)" stroke-width="1.6352" stroke-miterlimit="10"/>
<path d="M836.17 1546C836.17 1546 614.566 1409.29 804.468 920.284C994.369 431.283 702.147 331.995 500.075 469.29C298.002 606.584 -134.737 598.745 -0.335869 148.23" stroke="url(#paint9_linear)" stroke-width="1.6352" stroke-miterlimit="10"/>
<path d="M852.663 1523.1C852.663 1523.1 631.06 1386.38 820.961 897.376C1010.86 408.375 718.64 309.087 516.568 446.381C314.495 583.676 -118.029 575.802 16.1574 125.322" stroke="url(#paint10_linear)" stroke-width="1.6352" stroke-miterlimit="10"/>
<defs>
<linearGradient id="paint0_linear" x1="319.62" y1="693.918" x2="200.43" y2="840.112" gradientUnits="userSpaceOnUse">
<stop stop-color="white"/>
<stop offset="1" stop-color="white" stop-opacity="0"/>
</linearGradient>
<linearGradient id="paint1_linear" x1="330.675" y1="681.602" x2="211.485" y2="827.796" gradientUnits="userSpaceOnUse">
<stop stop-color="white"/>
<stop offset="1" stop-color="white" stop-opacity="0"/>
</linearGradient>
<linearGradient id="paint2_linear" x1="341.73" y1="669.285" x2="222.541" y2="815.479" gradientUnits="userSpaceOnUse">
<stop stop-color="white"/>
<stop offset="1" stop-color="white" stop-opacity="0"/>
</linearGradient>
<linearGradient id="paint3_linear" x1="661.719" y1="563.024" x2="141.793" y2="1200.75" gradientUnits="userSpaceOnUse">
<stop stop-color="white"/>
<stop offset="1" stop-color="white" stop-opacity="0"/>
</linearGradient>
<linearGradient id="paint4_linear" x1="678.195" y1="540.138" x2="158.269" y2="1177.86" gradientUnits="userSpaceOnUse">
<stop stop-color="white"/>
<stop offset="1" stop-color="white" stop-opacity="0"/>
</linearGradient>
<linearGradient id="paint5_linear" x1="694.678" y1="517.251" x2="174.753" y2="1154.97" gradientUnits="userSpaceOnUse">
<stop stop-color="white"/>
<stop offset="1" stop-color="white" stop-opacity="0"/>
</linearGradient>
<linearGradient id="paint6_linear" x1="711.154" y1="494.366" x2="191.228" y2="1132.09" gradientUnits="userSpaceOnUse">
<stop stop-color="white"/>
<stop offset="1" stop-color="white" stop-opacity="0"/>
</linearGradient>
<linearGradient id="paint7_linear" x1="727.632" y1="471.478" x2="207.706" y2="1109.2" gradientUnits="userSpaceOnUse">
<stop stop-color="white"/>
<stop offset="1" stop-color="white" stop-opacity="0"/>
</linearGradient>
<linearGradient id="paint8_linear" x1="744.111" y1="448.593" x2="224.185" y2="1086.32" gradientUnits="userSpaceOnUse">
<stop stop-color="white"/>
<stop offset="1" stop-color="white" stop-opacity="0"/>
</linearGradient>
<linearGradient id="paint9_linear" x1="760.591" y1="425.708" x2="240.665" y2="1063.43" gradientUnits="userSpaceOnUse">
<stop stop-color="white"/>
<stop offset="1" stop-color="white" stop-opacity="0"/>
</linearGradient>
<linearGradient id="paint10_linear" x1="777.069" y1="402.82" x2="257.143" y2="1040.54" gradientUnits="userSpaceOnUse">
<stop stop-color="white"/>
<stop offset="1" stop-color="white" stop-opacity="0"/>
</linearGradient>
</defs>
</svg>
