<svg width="70" height="65" fill="none" xmlns="http://www.w3.org/2000/svg"><path d="M10.928 23.212a3.596 3.596 0 011.699.373l5.05 2.92a4.026 4.026 0 011.7 2.933v5.82a4.051 4.051 0 01-1.7 2.932l-5.05 2.921a3.608 3.608 0 01-1.7.36 3.492 3.492 0 01-1.687-.36L4.178 38.19a4.05 4.05 0 01-1.7-2.933v-5.819a4.027 4.027 0 011.7-2.932l5.062-2.921a3.492 3.492 0 011.688-.373zm0-2.327a5.819 5.819 0 00-2.851.686l-5.063 2.956a6.343 6.343 0 00-2.863 4.946v5.82a6.343 6.343 0 002.863 4.945l5.063 2.921a5.82 5.82 0 002.85.675 5.877 5.877 0 002.864-.675l5.05-2.92a6.343 6.343 0 002.863-4.947v-5.819a6.342 6.342 0 00-2.862-4.946l-5.051-2.92a5.889 5.889 0 00-2.863-.687v-.035zm23.729 2.327a3.55 3.55 0 011.688.373l5.062 2.92a4.05 4.05 0 011.688 2.934v5.818a4.074 4.074 0 01-1.688 2.933l-5.062 2.921a3.56 3.56 0 01-1.688.361 3.607 3.607 0 01-1.699-.36l-5.062-2.922a4.073 4.073 0 01-1.688-2.933V29.44a4.05 4.05 0 011.688-2.933l5.062-2.921a3.596 3.596 0 011.7-.373zm0-2.327a5.89 5.89 0 00-2.863.686l-5.062 2.956a6.331 6.331 0 00-2.851 4.947v5.818a6.332 6.332 0 002.85 4.946l5.063 2.922a5.877 5.877 0 002.863.675 5.819 5.819 0 002.851-.675l5.063-2.922a6.33 6.33 0 002.851-4.946v-5.819a6.33 6.33 0 00-2.851-4.945l-5.063-2.922a5.82 5.82 0 00-2.85-.686v-.035zm23.718 2.327a3.596 3.596 0 011.699.373l5.05 2.92a4.026 4.026 0 011.7 2.933v5.82a4.05 4.05 0 01-1.7 2.932l-5.05 2.921a3.608 3.608 0 01-1.7.36 3.49 3.49 0 01-1.687-.36l-5.062-2.921a4.05 4.05 0 01-1.699-2.933v-5.819a4.027 4.027 0 011.7-2.932l5.062-2.921a3.491 3.491 0 011.687-.373zm0-2.327a5.819 5.819 0 00-2.851.686l-5.063 2.956a6.343 6.343 0 00-2.863 4.946v5.82a6.343 6.343 0 002.863 4.945l5.063 2.921a5.819 5.819 0 002.85.675 5.876 5.876 0 002.864-.675l5.05-2.92a6.344 6.344 0 002.863-4.947v-5.819a6.343 6.343 0 00-2.862-4.946l-5.051-2.92a5.888 5.888 0 00-2.863-.687v-.035zM22.787 43.94c.592-.02 1.18.108 1.71.372l5.063 2.92a4.05 4.05 0 011.687 2.933v5.82a4.097 4.097 0 01-1.687 2.932l-5.063 2.944a4.155 4.155 0 01-3.386 0l-5.063-2.92a4.096 4.096 0 01-1.687-2.934V50.19a4.051 4.051 0 011.687-2.933l5.063-2.921a3.55 3.55 0 011.687-.373l-.011-.023zm.011-2.305a5.82 5.82 0 00-2.851.675l-5.062 2.921a6.355 6.355 0 00-2.852 4.958v5.819a6.344 6.344 0 002.852 4.945l5.062 2.922a5.82 5.82 0 002.851.675 5.877 5.877 0 002.863-.675l5.063-2.922a6.343 6.343 0 002.85-4.946V50.19a6.355 6.355 0 00-2.85-4.958l-5.063-2.944a5.877 5.877 0 00-2.863-.675v.023zm23.718 2.304a3.491 3.491 0 011.688.373l5.062 2.92a4.027 4.027 0 011.699 2.933v5.82a4.072 4.072 0 01-1.7 2.932l-5.062 2.92a3.665 3.665 0 01-1.687.362 3.757 3.757 0 01-1.699-.361l-5.05-2.921a4.073 4.073 0 01-1.7-2.933v-5.819a4.027 4.027 0 011.7-2.932l5.05-2.921a3.595 3.595 0 011.699-.373zm0-2.328a5.877 5.877 0 00-2.863.675l-5.05 2.922a6.366 6.366 0 00-2.864 4.957v5.82a6.354 6.354 0 002.863 4.945l5.051 2.921a5.876 5.876 0 002.863.675 5.82 5.82 0 002.851-.675l5.063-2.92a6.355 6.355 0 002.863-4.947v-5.819a6.367 6.367 0 00-2.863-4.957l-5.063-2.922a5.82 5.82 0 00-2.851-.675zM22.787 2.486a3.573 3.573 0 011.699.372l5.062 2.921a4.05 4.05 0 011.688 2.933v5.819a4.073 4.073 0 01-1.688 2.932l-5.05 2.945a4.155 4.155 0 01-3.387 0l-5.074-2.863a4.072 4.072 0 01-1.687-2.933V8.793a4.05 4.05 0 011.687-2.932l5.062-2.921a3.55 3.55 0 011.688-.373v-.081zm0-2.246a5.818 5.818 0 00-2.851.686l-5.063 2.921a6.33 6.33 0 00-2.851 4.946v5.82a6.33 6.33 0 002.851 4.945l5.063 2.921a5.819 5.819 0 002.85.675 5.878 5.878 0 002.864-.675l5.062-2.92a6.331 6.331 0 002.851-4.947V8.793a6.331 6.331 0 00-2.85-4.946L25.66.845a5.89 5.89 0 00-2.863-.687l-.011.082zm23.729 2.246a3.49 3.49 0 011.688.372l5.062 2.921a4.027 4.027 0 011.699 2.933v5.819a4.05 4.05 0 01-1.7 2.932l-5.062 2.921a3.491 3.491 0 01-1.687.361 3.608 3.608 0 01-1.699-.36l-5.05-2.84a4.05 4.05 0 01-1.7-2.933V8.793a4.027 4.027 0 011.7-2.932l5.05-2.922a3.597 3.597 0 011.699-.372v-.081zm0-2.246a5.888 5.888 0 00-2.863.686l-5.05 2.921a6.344 6.344 0 00-2.864 4.946v5.819a6.342 6.342 0 002.863 4.946l5.051 2.921a5.875 5.875 0 002.863.675 5.818 5.818 0 002.851-.675l5.063-2.92a6.345 6.345 0 002.863-4.947V8.793a6.342 6.342 0 00-2.863-4.946L49.367.927A5.819 5.819 0 0046.516.24z" fill="#fff"/></svg>