<svg width="48" height="57" fill="none" xmlns="http://www.w3.org/2000/svg"><path d="M.431 16.093a.42.42 0 100-.84.42.42 0 000 .84zm9.3-.069a.42.42 0 100-.84.42.42 0 000 .84zm-4.65 2.74a.42.42 0 100-.84.42.42 0 000 .84zm-4.65 2.75a.42.42 0 100-.84.42.42 0 000 .84zm23.25-7.87a.87.87 0 100-1.74.87.87 0 000 1.74zm-4.65 2.75a.87.87 0 100-1.74.87.87 0 000 1.74zm-4.65 2.75a.87.87 0 100-1.74.87.87 0 000 1.74zm-4.65 2.75a.87.87 0 100-1.74.87.87 0 000 1.74zm-4.65 2.74a.87.87 0 100-1.74.87.87 0 000 1.74zm-4.65 2.299a.42.42 0 100-.84.42.42 0 000 .84zm23.25-6.999a1.74 1.74 0 100-3.48 1.74 1.74 0 000 3.48zm-4.649 2.75a1.74 1.74 0 100-3.48 1.74 1.74 0 000 3.48zm-4.651 2.75a1.74 1.74 0 100-3.48 1.74 1.74 0 000 3.48zm-4.65 2.74a1.74 1.74 0 100-3.48 1.74 1.74 0 000 3.48zm-4.65 1.879a.87.87 0 100-1.74.87.87 0 000 1.74zm-4.65 2.3a.42.42 0 100-.84.42.42 0 000 .84zm23.25-6.999a1.74 1.74 0 100-3.48 1.74 1.74 0 000 3.48zm-4.649 2.75a1.74 1.74 0 100-3.48 1.74 1.74 0 000 3.48zm-4.651 2.739a1.74 1.74 0 100-3.48 1.74 1.74 0 000 3.48zm-4.65 2.75a1.74 1.74 0 100-3.48 1.74 1.74 0 000 3.48zm-4.65 1.88a.87.87 0 100-1.74.87.87 0 000 1.74zm-4.65 2.301a.42.42 0 100-.84.42.42 0 000 .84zm23.25-7.87a.87.87 0 100-1.74.87.87 0 000 1.74zm-4.65 2.74a.87.87 0 100-1.74.87.87 0 000 1.74zm-4.65 2.75a.87.87 0 100-1.74.87.87 0 000 1.74zm-4.65 2.75a.87.87 0 100-1.74.87.87 0 000 1.74zm-4.65 2.3a.42.42 0 100-.84.42.42 0 000 .84zm-4.65 2.75a.42.42 0 100-.84.42.42 0 000 .84zm23.25-8.331a.42.42 0 100-.84.42.42 0 000 .84zm-4.65 2.75a.42.42 0 100-.84.42.42 0 000 .84zm-4.65 2.75a.42.42 0 100-.84.42.42 0 000 .84zm-4.65 2.75a.42.42 0 100-.84.42.42 0 000 .84zm-4.65 2.75a.42.42 0 100-.84.42.42 0 000 .84zm18.6-5.579a.42.42 0 100-.84.42.42 0 000 .84zm-4.65 2.75a.42.42 0 100-.84.42.42 0 000 .84zm-4.65 2.75a.42.42 0 100-.84.42.42 0 000 .84zm-4.65 2.75a.42.42 0 100-.84.42.42 0 000 .84zm13.95-2.831a.42.42 0 100-.84.42.42 0 000 .84zm-4.65 2.75a.42.42 0 100-.84.42.42 0 000 .84zm-4.65 2.75a.42.42 0 100-.84.42.42 0 000 .84zm9.3-.08a.42.42 0 100-.84.42.42 0 000 .84zm-4.65 2.75a.42.42 0 100-.84.42.42 0 000 .84zm4.65 2.671a.42.42 0 100-.84.42.42 0 000 .84zm23.19-40.451a.42.42 0 100-.84.42.42 0 000 .84zm-9.31-.069a.42.42 0 100-.84.42.42 0 000 .84zm4.66 2.74a.42.42 0 100-.84.42.42 0 000 .84zm4.65 2.75a.42.42 0 100-.84.42.42 0 000 .84z" fill="#fff"/><path d="M23.611 13.644a.87.87 0 100-1.74.87.87 0 000 1.74zm4.651 2.75a.87.87 0 100-1.74.87.87 0 000 1.74zm4.649 2.75a.87.87 0 100-1.74.87.87 0 000 1.74zm4.65 2.75a.87.87 0 100-1.74.87.87 0 000 1.74zm4.66 2.74a.87.87 0 100-1.74.87.87 0 000 1.74zm4.65 2.299a.42.42 0 100-.84.42.42 0 000 .84zm-23.26-6.999a1.74 1.74 0 100-3.48 1.74 1.74 0 000 3.48zm4.651 2.75a1.74 1.74 0 100-3.48 1.74 1.74 0 000 3.48zm4.649 2.75a1.74 1.74 0 100-3.48 1.74 1.74 0 000 3.48zm4.65 2.74a1.74 1.74 0 100-3.48 1.74 1.74 0 000 3.48zm4.66 1.879a.87.87 0 100-1.74.87.87 0 000 1.74zm4.65 2.3a.42.42 0 100-.84.42.42 0 000 .84zm-23.26-6.999a1.74 1.74 0 100-3.48 1.74 1.74 0 000 3.48zm4.651 2.75a1.74 1.74 0 100-3.48 1.74 1.74 0 000 3.48zm4.649 2.739a1.74 1.74 0 100-3.48 1.74 1.74 0 000 3.48zm4.65 2.75a1.74 1.74 0 100-3.48 1.74 1.74 0 000 3.48zm4.66 1.88a.87.87 0 100-1.74.87.87 0 000 1.74zm4.65 2.301a.42.42 0 100-.84.42.42 0 000 .84zm-23.26-7.87a.87.87 0 100-1.74.87.87 0 000 1.74zm4.651 2.74a.87.87 0 100-1.74.87.87 0 000 1.74zm4.649 2.75a.87.87 0 100-1.74.87.87 0 000 1.74zm4.65 2.75a.87.87 0 100-1.74.87.87 0 000 1.74zm4.66 2.3a.42.42 0 100-.84.42.42 0 000 .84zm4.65 2.75a.42.42 0 100-.84.42.42 0 000 .84zm-23.26-8.331a.42.42 0 100-.84.42.42 0 000 .84zm4.65 2.75a.42.42 0 100-.84.42.42 0 000 .84zm4.65 2.75a.42.42 0 100-.84.42.42 0 000 .84zm4.65 2.75a.42.42 0 100-.84.42.42 0 000 .84zm4.66 2.75a.42.42 0 100-.84.42.42 0 000 .84zm-18.61-5.579a.42.42 0 100-.84.42.42 0 000 .84zm4.65 2.75a.42.42 0 100-.84.42.42 0 000 .84zm4.65 2.75a.42.42 0 100-.84.42.42 0 000 .84zm4.65 2.75a.42.42 0 100-.84.42.42 0 000 .84zm-13.95-2.831a.42.42 0 100-.84.42.42 0 000 .84zm4.65 2.75a.42.42 0 100-.84.42.42 0 000 .84zm4.65 2.75a.42.42 0 100-.84.42.42 0 000 .84zm-9.3-.08a.42.42 0 100-.84.42.42 0 000 .84zm4.65 2.75a.42.42 0 100-.84.42.42 0 000 .84zm-4.65 2.671a.42.42 0 100-.84.42.42 0 000 .84zm-.48-55.221a.42.42 0 100-.84.42.42 0 000 .84zm-4.65 2.75a.42.42 0 100-.84.42.42 0 000 .84zm-4.65 2.75a.42.42 0 100-.84.42.42 0 000 .84zm-4.65 2.75a.42.42 0 100-.84.42.42 0 000 .84zm-4.65 2.75a.42.42 0 100-.84.42.42 0 000 .84zm18.6-5.579a.42.42 0 100-.84.42.42 0 000 .84zm-4.65 2.75a.42.42 0 100-.84.42.42 0 000 .84zm-4.65 2.75a.42.42 0 100-.84.42.42 0 000 .84z" fill="#fff"/><path d="M23.061 1.323a.42.42 0 100-.84.42.42 0 000 .84zm4.65 2.75a.42.42 0 100-.84.42.42 0 000 .84zm4.65 2.75a.42.42 0 100-.84.42.42 0 000 .84zm4.65 2.75a.42.42 0 100-.84.42.42 0 000 .84zm4.66 2.75a.42.42 0 100-.84.42.42 0 000 .84zm-18.61-5.579a.42.42 0 100-.84.42.42 0 000 .84zm4.65 2.75a.42.42 0 100-.84.42.42 0 000 .84zm4.65 2.75a.42.42 0 100-.84.42.42 0 000 .84z" fill="#fff"/></svg>