<svg width="104" height="136" viewBox="0 0 104 136" fill="none" xmlns="http://www.w3.org/2000/svg">
<path d="M98.2172 65.8732C98.2172 67.3924 98.2172 68.8508 98.2172 70.2789C98.1869 73.0135 98.3686 75.7784 98.0658 78.4826C97.43 84.286 92.6766 88.4487 86.8029 88.4791C81.8678 88.5094 76.963 88.4791 72.0279 88.4791C53.862 88.4791 35.7263 88.4791 17.5604 88.4791C10.839 88.4791 5.90393 83.5264 5.90393 76.7811C5.90393 73.1654 5.90393 69.5497 5.90393 65.8428C36.6649 65.8732 67.3654 65.8732 98.2172 65.8732ZM93.161 70.765C65.6699 70.765 38.2999 70.765 10.8087 70.765C10.8087 72.8008 10.839 74.7454 10.8087 76.7203C10.7785 80.7615 13.8969 83.5568 17.6512 83.496C26.4617 83.3745 35.2722 83.4657 44.0827 83.4657C58.4338 83.4657 72.7849 83.4657 87.1359 83.4353C90.1939 83.4353 92.9491 80.9741 93.161 77.9965C93.2821 75.6265 93.161 73.2262 93.161 70.765Z" fill="url(#paint0_linear_139_407)"/>
<path d="M103.606 46.7918C102.91 45.7588 101.578 45.4853 100.488 46.3361C98.9741 47.521 97.6419 48.8883 96.1887 50.1645C95.0079 51.1975 93.8574 52.3218 92.5555 53.1725C90.0425 54.7525 87.8626 54.3575 85.8643 52.1698C84.7744 50.9848 83.8358 49.6783 82.7459 48.5237C79.2943 44.9384 73.8143 45.1207 70.4536 48.7972C69.4544 49.891 68.5764 51.076 67.6076 52.1698C65.3368 54.7221 63.1569 54.7525 60.8559 52.261C59.7659 51.076 58.7971 49.7391 57.6769 48.5845C56.7988 47.673 55.8603 47.0045 54.8914 46.5184C53.1354 45.698 51.0766 45.698 49.3205 46.5184C48.3214 46.9741 47.3828 47.673 46.5351 48.5845C45.4148 49.7391 44.4763 51.076 43.356 52.261C41.055 54.7525 38.8751 54.7221 36.6044 52.1698C35.6355 51.076 34.7575 49.891 33.7584 48.7972C30.3977 45.1207 24.9176 44.908 21.4661 48.5237C20.3459 49.6783 19.4073 50.9848 18.3476 52.1698C16.3493 54.3575 14.1694 54.7525 11.6565 53.1725C10.3243 52.3521 9.20407 51.1975 8.02329 50.1645C7.50859 49.7087 7.02416 49.2529 6.53974 48.7972C5.72227 48.0376 5.23784 47.4603 4.93508 47.0653C4.54148 46.5487 4.35982 45.8499 4.54148 45.2118C4.81397 44.3307 5.72227 43.4496 8.20495 43.3888H8.47744C8.62882 43.3888 8.7802 43.3888 8.96186 43.3888H9.56739H8.99214H10.839L26.2498 43.5103V43.5407C48.4728 43.5407 75.8731 43.5407 98.0355 43.5407C98.0961 43.4496 98.1869 43.3888 98.1869 43.328C98.2172 43.0546 98.2475 42.7811 98.2475 42.5076C98.4594 31.1743 94.4326 21.5425 86.4093 13.6122C78.2952 5.59075 68.3948 1.2458 57.1319 0.182346C43.5377 -1.00264 31.2151 2.30925 20.5881 11.0295C13.4125 16.9241 8.68937 24.2467 6.78195 33.0581C6.44891 34.5773 7.59942 36.0358 9.14352 36.0358H9.20407C10.3546 36.0358 11.3234 35.2154 11.5959 34.0912C11.6565 33.757 11.7473 33.4531 11.8381 33.1189C14.2603 24.0036 19.7403 17.1064 27.5214 12.0018C35.575 6.74535 44.5066 4.43614 54.0437 4.95268C67.8195 5.6819 79.3246 11.0903 87.469 22.6363C90.6783 27.194 92.4949 32.2985 93.1004 37.8588C93.1307 38.0715 93.1004 38.3146 93.1004 38.5881C73.4207 38.5881 48.9875 38.5881 28.8536 38.5881H11.2629H10.8087C10.3849 38.5881 9.96099 38.5881 9.56739 38.6185C9.47656 38.6185 9.35546 38.6185 9.23435 38.6488C8.90131 38.6792 8.59854 38.6792 8.29578 38.7096C8.23522 38.7096 8.17467 38.7096 8.11412 38.74C1.0294 39.4388 -0.121108 42.9026 0.121105 45.6372C0.272488 47.3995 1.0294 49.0403 2.17991 50.3772C2.69461 50.9848 3.26987 51.5925 3.90568 52.261C3.99651 52.3218 4.05706 52.4129 4.14789 52.4737C5.78282 53.8714 7.2361 55.5121 9.02242 56.6971C12.4739 59.0367 17.8632 59.7963 21.7991 54.8437C22.6166 53.8106 23.4341 52.7775 24.3424 51.8356C26.0681 50.0126 28.9747 50.0126 30.7004 51.866C31.6996 52.9294 32.5473 54.1144 33.5162 55.1779C37.5429 59.6748 42.7808 59.614 46.747 55.026C47.5948 54.0233 48.382 52.9902 49.26 52.0179C49.8655 51.3495 50.471 50.8633 51.0766 50.5291C51.7124 50.1949 52.5298 50.1949 53.1657 50.5291C53.7712 50.8329 54.3767 51.3191 54.9822 52.0179C55.8603 52.9902 56.6475 54.0537 57.4952 55.026C61.4614 59.614 66.6993 59.6748 70.7261 55.1779C71.6949 54.084 72.5729 52.9294 73.5418 51.866C75.2675 50.0126 78.1741 50.0126 79.8999 51.8356C80.8082 52.7775 81.6256 53.8106 82.4431 54.8437C86.3488 59.7963 91.738 59.0367 95.2198 56.6971C96.885 55.5729 98.308 54.0537 99.8218 52.6864C100.882 51.7445 101.911 50.7722 103.001 49.8606C104.03 48.9491 104.303 47.8249 103.606 46.7918Z" fill="url(#paint1_linear_139_407)"/>
<path d="M100.791 64.6578H3.30015C2.17991 64.6578 1.24134 63.5336 1.24134 62.1663C1.24134 60.799 2.14964 59.6748 3.30015 59.6748H100.791C101.911 59.6748 102.819 60.799 102.819 62.1663C102.849 63.564 101.911 64.6578 100.791 64.6578Z" fill="#CF4A60"/>
<g opacity="0.7">
<path d="M36.3319 17.8052C36.3319 16.5898 35.3327 15.5872 34.1217 15.5872C32.9106 15.5872 31.9115 16.5898 31.9115 17.8052C31.9115 19.0206 32.9106 20.0233 34.1217 20.0233C35.3327 20.0233 36.3319 19.0206 36.3319 17.8052Z" fill="#FCF1EA"/>
<path d="M44.5671 14.6756C44.5671 13.4602 43.568 12.4575 42.3569 12.4575C41.1459 12.4575 40.1467 13.4602 40.1467 14.6756C40.1467 15.8909 41.1459 16.8936 42.3569 16.8936C43.5983 16.8936 44.5671 15.8909 44.5671 14.6756Z" fill="#FCF1EA"/>
<path d="M50.1985 19.2332C50.1985 18.0178 49.1994 17.0151 47.9884 17.0151C46.7773 17.0151 45.7782 18.0178 45.7782 19.2332C45.7782 20.4486 46.7773 21.4512 47.9884 21.4512C49.1994 21.4512 50.1985 20.4486 50.1985 19.2332Z" fill="#FCF1EA"/>
<path d="M56.6777 14.9187C56.6777 13.7034 55.6786 12.7007 54.4675 12.7007C53.2565 12.7007 52.2574 13.7034 52.2574 14.9187C52.2574 16.1341 53.2565 17.1368 54.4675 17.1368C55.6786 17.1368 56.6777 16.1645 56.6777 14.9187Z" fill="#FCF1EA"/>
<path d="M63.278 18.4737C63.278 17.2583 62.2789 16.2556 61.0678 16.2556C59.8568 16.2556 58.8576 17.2583 58.8576 18.4737C58.8576 19.689 59.8568 20.6917 61.0678 20.6917C62.2789 20.6917 63.278 19.7194 63.278 18.4737Z" fill="#FCF1EA"/>
<path d="M68.3645 15.5872C67.1534 15.5872 66.1543 16.5898 66.1543 17.8052C66.1543 19.0206 67.1534 20.0233 68.3645 20.0233C69.5756 20.0233 70.5747 19.0206 70.5747 17.8052C70.5747 16.5898 69.5756 15.5872 68.3645 15.5872Z" fill="#FCF1EA"/>
<path d="M63.6716 25.4619C62.4606 25.4619 61.4614 26.4646 61.4614 27.68C61.4614 28.8953 62.4606 29.898 63.6716 29.898C64.8827 29.898 65.8818 28.8953 65.8818 27.68C65.8818 26.4342 64.8827 25.4619 63.6716 25.4619Z" fill="#FCF1EA"/>
<path d="M55.4364 22.3325C54.2253 22.3325 53.2262 23.3352 53.2262 24.5506C53.2262 25.7659 54.2253 26.7686 55.4364 26.7686C56.6475 26.7686 57.6466 25.7659 57.6466 24.5506C57.6466 23.3352 56.6475 22.3325 55.4364 22.3325Z" fill="#FCF1EA"/>
<path d="M49.8049 26.8901C48.5939 26.8901 47.5948 27.8928 47.5948 29.1082C47.5948 30.3236 48.5939 31.3262 49.8049 31.3262C51.016 31.3262 52.0151 30.3236 52.0151 29.1082C52.0151 27.8624 51.0463 26.8901 49.8049 26.8901Z" fill="#FCF1EA"/>
<path d="M74.2684 26.1304C73.0574 26.1304 72.0582 27.1331 72.0582 28.3484C72.0582 29.5638 73.0574 30.5665 74.2684 30.5665C75.4795 30.5665 76.4786 29.5638 76.4786 28.3484C76.4786 27.1331 75.4795 26.1304 74.2684 26.1304Z" fill="#FCF1EA"/>
<path d="M43.3258 22.5754C42.1147 22.5754 41.1156 23.5781 41.1156 24.7935C41.1156 26.0089 42.1147 27.0115 43.3258 27.0115C44.5368 27.0115 45.536 26.0089 45.536 24.7935C45.536 23.5781 44.5671 22.5754 43.3258 22.5754Z" fill="#FCF1EA"/>
<path d="M36.7255 26.1304C35.5144 26.1304 34.5153 27.1331 34.5153 28.3484C34.5153 29.5638 35.5144 30.5665 36.7255 30.5665C37.9365 30.5665 38.9357 29.5638 38.9357 28.3484C38.9357 27.1331 37.9365 26.1304 36.7255 26.1304Z" fill="#FCF1EA"/>
<path d="M29.4288 25.4619C28.2178 25.4619 27.2186 26.4646 27.2186 27.68C27.2186 28.8953 28.2178 29.898 29.4288 29.898C30.6399 29.898 31.639 28.8953 31.639 27.68C31.639 26.4342 30.6399 25.4619 29.4288 25.4619Z" fill="#FCF1EA"/>
</g>
<path d="M21.6477 94.7685C21.4055 94.5255 21.1633 94.3735 20.8303 94.2216C20.5275 94.1001 20.1945 94.0393 19.8614 94.0393C19.2256 94.0393 18.3476 94.252 17.6512 95.4066L11.2326 108.29L4.7837 95.3458C4.29927 94.4951 3.54236 94.0393 2.60378 94.0393C2.27074 94.0393 1.9377 94.1001 1.63493 94.2216C1.33217 94.3432 1.05968 94.5255 0.847743 94.7685C0.60553 95.0116 0.423871 95.2851 0.302765 95.5889C0.181658 95.8927 0.121105 96.227 0.121105 96.5612V113.911C0.121105 114.579 0.363318 115.217 0.847743 115.673C1.33217 116.159 1.9377 116.402 2.60378 116.402C3.26987 116.402 3.90568 116.159 4.35982 115.673C4.84425 115.187 5.08646 114.579 5.08646 113.911V107.165L8.96186 114.944C9.41601 115.886 10.2335 116.402 11.2326 116.402C12.1712 116.402 12.9281 115.946 13.4428 115.096L17.409 107.165V113.911C17.409 114.579 17.6512 115.217 18.1357 115.673C18.6201 116.159 19.2256 116.402 19.8917 116.402C20.5578 116.402 21.1936 116.159 21.6477 115.673C22.1322 115.187 22.3744 114.579 22.3744 113.911V96.5612C22.3744 96.227 22.3138 95.8927 22.1927 95.5889C22.0716 95.2851 21.89 95.0116 21.6477 94.7685Z" fill="#CF4A60"/>
<path d="M101.457 111.389H30.7913V107.712H36.9374C37.6035 107.712 38.2393 107.469 38.6934 106.983C39.1779 106.497 39.4201 105.889 39.4201 105.221C39.4201 104.552 39.1779 103.914 38.6934 103.458C38.209 102.972 37.6035 102.729 36.9374 102.729H30.7913V99.0526H39.8137C40.4798 99.0526 41.0853 98.8095 41.5697 98.3234C42.0541 97.8372 42.2964 97.2295 42.2964 96.5611C42.2964 95.8926 42.0541 95.2849 41.5697 94.7988C41.0853 94.3127 40.4798 94.0696 39.8137 94.0696H28.2783C27.9453 94.0696 27.6122 94.1304 27.3095 94.2519C27.0067 94.3734 26.7342 94.5557 26.5223 94.7988C26.2801 95.0419 26.1287 95.3153 25.9773 95.6192C25.8562 95.923 25.7956 96.2572 25.7956 96.5915V113.941C25.7956 114.306 25.8562 114.609 25.9773 114.913C26.0984 115.217 26.2801 115.49 26.5223 115.703C26.7342 115.916 27.0067 116.098 27.3095 116.22C27.6122 116.341 27.9453 116.402 28.2783 116.402H101.457C102.123 116.402 102.759 116.159 103.213 115.673C103.697 115.187 103.939 114.579 103.939 113.911C103.939 113.242 103.697 112.634 103.213 112.148C102.759 111.662 102.153 111.389 101.457 111.389Z" fill="#CF4A60"/>
<path d="M52.4087 108.593C52.6509 108.867 52.984 108.988 53.3473 108.988C53.7106 108.988 54.0437 108.836 54.2859 108.593C54.5584 108.32 54.6795 108.016 54.6795 107.651C54.6795 107.469 54.6492 107.287 54.5886 107.135L49.8958 94.9812C49.6536 94.4039 49.1994 94.1001 48.6242 94.1001C48.2306 94.1001 47.6856 94.252 47.3525 94.9812L42.69 107.044C42.5991 107.226 42.5688 107.439 42.5688 107.651C42.5688 108.016 42.69 108.35 42.9624 108.593C43.2047 108.867 43.5377 108.988 43.901 108.988C44.2643 108.988 44.5974 108.836 44.8396 108.593C44.9607 108.472 45.0818 108.32 45.1424 108.168L46.6865 104.248H50.6224L52.1665 108.198C52.1968 108.32 52.2876 108.472 52.4087 108.593ZM47.7159 101.544L48.6544 99.1439L49.593 101.544H47.7159Z" fill="#CF4A60"/>
<path d="M64.6405 94.0698H55.8603C55.4969 94.0698 55.1639 94.2217 54.9217 94.4648C54.6492 94.7383 54.5281 95.0421 54.5281 95.4067C54.5281 95.7713 54.6492 96.1056 54.9217 96.3486C55.1639 96.5917 55.4969 96.7436 55.8603 96.7436H58.9182V107.621C58.9182 107.986 59.0393 108.32 59.3118 108.563C59.554 108.806 59.887 108.958 60.2504 108.958C60.6137 108.958 60.9467 108.837 61.1889 108.563C61.4614 108.29 61.5825 107.986 61.5825 107.621V96.7436H64.6405C65.0038 96.7436 65.3368 96.6221 65.579 96.3486C65.8515 96.0752 65.9726 95.7713 65.9726 95.4067C65.9726 95.0421 65.8515 94.7079 65.579 94.4648C65.3368 94.2217 65.0038 94.0698 64.6405 94.0698Z" fill="#CF4A60"/>
<path d="M70.1508 108.594C69.8783 108.32 69.7572 108.016 69.7572 107.652V95.4371C69.7572 95.0725 69.8783 94.7383 70.1508 94.4952C70.393 94.2521 70.7261 94.1002 71.0894 94.1002C71.4527 94.1002 71.7857 94.2521 72.0279 94.4952C72.3004 94.7687 72.4215 95.0725 72.4215 95.4371V107.652C72.4215 108.016 72.3004 108.35 72.0279 108.594C71.7857 108.867 71.4527 108.989 71.0894 108.989C70.7261 108.989 70.393 108.837 70.1508 108.594ZM86.8635 108.989C87.0451 108.989 87.2268 108.958 87.3782 108.897C87.5295 108.837 87.6809 108.745 87.802 108.624C87.9231 108.502 88.014 108.35 88.0745 108.199C88.1351 108.047 88.1654 107.864 88.1654 107.682V95.4675C88.1654 95.1029 88.0442 94.7687 87.7718 94.5256C87.5295 94.2825 87.1965 94.1306 86.8332 94.1306C86.4699 94.1306 86.1368 94.2825 85.8946 94.5256C85.6221 94.799 85.501 95.1029 85.501 95.4675V103.793L78.4163 94.556C78.1438 94.2521 77.7805 94.0698 77.3869 94.0698C77.2052 94.0698 77.0236 94.1002 76.8722 94.161C76.7208 94.2217 76.5694 94.3129 76.4483 94.4344C76.3272 94.556 76.2364 94.7079 76.1758 94.8598C76.1153 95.0117 76.085 95.194 76.085 95.3763V107.591C76.085 107.955 76.2061 108.29 76.4786 108.533C76.7511 108.806 77.0539 108.928 77.4172 108.928C77.7805 108.928 78.1135 108.776 78.3557 108.533C78.6282 108.259 78.7493 107.955 78.7493 107.591V99.3567L85.8643 108.533C86.1368 108.837 86.4699 108.989 86.8635 108.989ZM103.516 101.271C103.394 101.149 103.243 101.058 103.092 100.997C102.94 100.937 102.759 100.876 102.577 100.876H99.2163C99.0346 100.876 98.853 100.906 98.7016 100.967C98.5502 101.028 98.3988 101.119 98.2777 101.241C98.1566 101.362 98.0658 101.514 97.975 101.666C97.9144 101.818 97.8841 102 97.8841 102.182C97.8841 102.547 98.0052 102.881 98.2777 103.124C98.5199 103.367 98.853 103.519 99.2163 103.519H101.215V105.616C100.488 106.041 99.6704 106.284 98.7924 106.284C97.4603 106.284 96.3703 105.829 95.4317 104.887C94.4932 103.945 94.039 102.851 94.039 101.514C94.039 100.177 94.4932 99.0832 95.4317 98.1413C96.3703 97.1994 97.4603 96.7436 98.7924 96.7436C99.3374 96.7436 99.8824 96.8348 100.367 97.0171C100.851 97.1994 101.305 97.4425 101.699 97.7463C101.971 97.9894 102.274 98.1109 102.607 98.1109C102.789 98.1109 102.971 98.0805 103.122 98.0198C103.273 97.959 103.425 97.8679 103.546 97.7159C103.667 97.5944 103.758 97.4425 103.818 97.2906C103.879 97.1386 103.909 96.9563 103.909 96.774C103.909 96.2879 103.697 95.984 103.516 95.8017C102.093 94.6471 100.518 94.0698 98.7621 94.0698C96.7336 94.0698 94.9473 94.799 93.5243 96.2575C92.071 97.7159 91.3444 99.4782 91.3444 101.514C91.3444 103.58 92.071 105.342 93.5243 106.801C94.9776 108.259 96.7336 108.989 98.7621 108.989C100.488 108.989 102.062 108.442 103.425 107.317L103.455 107.287L103.485 107.257C103.758 106.983 103.879 106.649 103.879 106.315V102.182C103.879 102 103.849 101.818 103.758 101.666C103.728 101.544 103.637 101.392 103.516 101.271ZM9.20408 130.136C9.29491 130.531 9.35546 130.926 9.35546 131.321C9.35546 131.959 9.23435 132.567 8.99214 133.144C8.74993 133.691 8.41689 134.207 7.99301 134.633C7.56914 135.058 7.08472 135.392 6.50946 135.636C5.93421 135.879 5.32868 136 4.69287 136H1.36245C1.18079 136 0.999127 135.97 0.847744 135.879C0.696362 135.818 0.575255 135.727 0.454149 135.605C0.302766 135.514 0.211937 135.362 0.151384 135.21C0.0908304 135.058 0.0302773 134.876 0.0302773 134.694V122.601C0.0302773 122.418 0.0605538 122.236 0.151384 122.084C0.211937 121.932 0.302766 121.78 0.423873 121.659C0.544979 121.537 0.666085 121.446 0.817468 121.385C0.968851 121.325 1.15051 121.294 1.33217 121.294H4.02678C4.57176 121.294 5.08646 121.385 5.57089 121.598C6.05531 121.811 6.47919 122.084 6.8425 122.449C7.20582 122.813 7.47831 123.239 7.69025 123.725C7.90218 124.211 7.99301 124.728 7.99301 125.274C7.99301 126.095 7.78108 126.824 7.35721 127.493C7.59942 127.675 7.81135 127.857 7.99301 128.039C8.29578 128.343 8.53799 128.678 8.71965 129.012C8.93159 129.376 9.08297 129.741 9.20408 130.136ZM2.66434 126.672H4.02678C4.20844 126.672 4.3901 126.642 4.54149 126.551C4.69287 126.49 4.84425 126.368 4.96536 126.247C5.08646 126.125 5.17729 125.973 5.26812 125.791C5.32868 125.639 5.38923 125.457 5.38923 125.274C5.38923 125.092 5.35895 124.91 5.26812 124.758C5.20757 124.576 5.08646 124.454 4.96536 124.302C4.84425 124.181 4.69287 124.089 4.51121 123.998C4.35983 123.938 4.17817 123.877 3.99651 123.877H2.66434V126.672ZM6.7214 131.321C6.7214 131.047 6.66084 130.774 6.57001 130.531C6.44891 130.288 6.3278 130.075 6.14614 129.862C5.96448 129.68 5.75255 129.528 5.48006 129.407C5.23785 129.285 4.96536 129.255 4.69287 129.255H2.66434V133.387H4.69287C4.96536 133.387 5.23785 133.326 5.48006 133.235C5.72227 133.114 5.93421 132.992 6.11587 132.81C6.29753 132.627 6.44891 132.415 6.53974 132.141C6.69112 131.868 6.7214 131.625 6.7214 131.321ZM24.0093 121.294C23.646 121.294 23.3432 121.416 23.0707 121.689C22.8285 121.932 22.6771 122.266 22.6771 122.631V130.652C22.6771 131.017 22.6166 131.382 22.4652 131.716C22.3138 132.05 22.1322 132.324 21.89 132.597C21.6477 132.84 21.345 133.053 21.0119 133.174C20.6789 133.326 20.3459 133.387 19.9523 133.387C19.5889 133.387 19.2256 133.326 18.8926 133.174C18.5595 133.022 18.287 132.84 18.0448 132.597C17.8026 132.354 17.621 132.05 17.4696 131.716C17.3182 131.382 17.2576 131.047 17.2576 130.683V122.631C17.2576 122.266 17.1365 121.963 16.864 121.689C16.6218 121.446 16.2888 121.294 15.9255 121.294C15.5622 121.294 15.2594 121.416 14.9869 121.689C14.7447 121.932 14.5933 122.266 14.5933 122.631V130.652C14.5933 132.111 15.108 133.387 16.1677 134.42C17.1971 135.453 18.4687 136 19.922 136C20.4064 136 20.8908 135.939 21.345 135.818C21.7991 135.696 22.223 135.514 22.6166 135.271C23.0102 135.028 23.3735 134.754 23.7066 134.42C24.0396 134.086 24.3121 133.721 24.524 133.326C24.7662 132.931 24.9479 132.506 25.069 132.05C25.1901 131.594 25.2507 131.108 25.2507 130.652V122.601C25.2507 122.236 25.1295 121.932 24.8571 121.659C24.6754 121.416 24.3424 121.294 24.0093 121.294ZM40.4192 133.995C40.5706 134.207 40.6311 134.451 40.6311 134.694C40.6311 134.876 40.6009 135.058 40.5403 135.21C40.4798 135.362 40.3889 135.514 40.2678 135.636C40.1467 135.757 39.9953 135.848 39.844 135.909C39.6926 135.97 39.5109 136 39.3293 136C38.8751 136 38.4815 135.787 38.209 135.392L35.2419 130.652H33.2437V134.724C33.2437 135.089 33.1226 135.392 32.8501 135.666C32.6079 135.909 32.2748 136.061 31.9115 136.061C31.5482 136.061 31.2454 135.939 30.9729 135.666C30.7307 135.423 30.5793 135.089 30.5793 134.724V122.631C30.5793 122.449 30.6096 122.297 30.6702 122.115C30.7307 121.963 30.8215 121.811 30.9426 121.689C31.0638 121.568 31.2151 121.476 31.3665 121.416C31.5179 121.355 31.6996 121.325 31.8812 121.325H35.2419C35.8777 121.325 36.4833 121.446 37.0585 121.689C37.6338 121.932 38.1182 122.266 38.5421 122.692C38.9659 123.117 39.299 123.603 39.5412 124.181C39.7834 124.758 39.9045 125.366 39.9045 126.004C39.9045 126.429 39.844 126.824 39.7531 127.219C39.6623 127.614 39.4806 127.979 39.299 128.343C39.087 128.708 38.8448 129.012 38.5421 129.316C38.3301 129.528 38.0879 129.711 37.8457 129.893L40.4192 133.995ZM37.331 125.973C37.331 125.7 37.2705 125.426 37.1796 125.183C37.0585 124.94 36.9374 124.728 36.7255 124.515C36.5438 124.333 36.3319 124.181 36.0594 124.089C35.8172 123.998 35.5447 123.938 35.2722 123.938H33.2437V128.039H35.2722C35.5447 128.039 35.8172 127.979 36.0594 127.888C36.3016 127.796 36.5135 127.644 36.6952 127.432C36.8769 127.249 37.0282 127.037 37.1493 126.763C37.2705 126.52 37.331 126.247 37.331 125.973ZM53.2868 123.907C53.8317 123.907 54.3464 123.998 54.8611 124.15C55.3456 124.333 55.7997 124.576 56.163 124.879C56.4355 125.123 56.708 125.244 57.0713 125.244C57.253 125.244 57.4044 125.214 57.586 125.153C57.7374 125.092 57.8888 125.001 58.0099 124.879C58.131 124.758 58.2218 124.606 58.2824 124.454C58.3429 124.302 58.3732 124.12 58.3732 123.938C58.3732 123.543 58.2521 123.239 57.9796 122.996C56.5869 121.871 55.0125 121.294 53.2868 121.294C51.2885 121.294 49.5325 122.023 48.1095 123.451C46.6865 124.879 45.9598 126.611 45.9598 128.647C45.9598 130.683 46.6865 132.415 48.1095 133.843C49.5325 135.271 51.2885 136 53.2868 136C54.9822 136 56.5263 135.453 57.9191 134.329C58.1916 134.056 58.3127 133.752 58.3127 133.387V129.316C58.3127 129.133 58.2824 128.981 58.1916 128.799C58.131 128.647 58.0402 128.495 57.9191 128.374C57.798 128.252 57.6769 128.161 57.5255 128.1C57.3741 128.039 57.1924 127.979 57.0108 127.979H53.6803C53.4987 127.979 53.317 128.009 53.1656 128.07C53.0143 128.131 52.8629 128.222 52.7418 128.343C52.6207 128.465 52.5298 128.617 52.4693 128.769C52.4087 128.921 52.3785 129.103 52.3785 129.285C52.3785 129.65 52.4996 129.954 52.7418 130.227C52.984 130.47 53.317 130.592 53.6803 130.592H55.6786V132.688C54.952 133.114 54.1345 133.326 53.2565 133.326C51.9243 133.326 50.8343 132.871 49.9261 131.929C49.0178 131.017 48.5636 129.923 48.5636 128.586C48.5636 127.28 49.0178 126.186 49.9261 125.244C50.8949 124.363 51.9849 123.907 53.2868 123.907ZM73.1785 123.907C73.5418 123.907 73.8445 123.786 74.117 123.512C74.3592 123.269 74.5106 122.935 74.5106 122.57C74.5106 122.206 74.3895 121.902 74.117 121.628C73.8748 121.385 73.5418 121.233 73.2087 121.233H65.1854C65.0038 121.233 64.8221 121.264 64.6707 121.325C64.5194 121.385 64.368 121.476 64.2469 121.598C64.1258 121.72 64.0349 121.871 63.9744 122.023C63.9138 122.175 63.8835 122.358 63.8835 122.54V134.633C63.8835 134.815 63.9138 134.997 63.9744 135.149C64.0349 135.301 64.1258 135.453 64.2469 135.575C64.368 135.696 64.5194 135.787 64.6707 135.848C64.8221 135.909 65.0038 135.939 65.1854 135.939H73.2087C73.572 135.939 73.8748 135.818 74.1473 135.544C74.3895 135.301 74.5409 134.967 74.5409 134.602C74.5409 134.238 74.4198 133.934 74.1473 133.691C73.9051 133.448 73.572 133.296 73.239 133.296H66.5176V129.862H71.2408C71.6041 129.862 71.9068 129.741 72.1793 129.468C72.4215 129.224 72.5729 128.89 72.5729 128.526C72.5729 128.161 72.4518 127.857 72.1793 127.584C71.9371 127.341 71.6041 127.189 71.2408 127.189H66.5176V123.755H73.1785V123.907ZM89.5884 133.995C89.7397 134.207 89.8003 134.451 89.8003 134.694C89.8003 134.876 89.77 135.058 89.7095 135.21C89.6489 135.362 89.5581 135.514 89.437 135.636C89.3159 135.757 89.1645 135.848 89.0131 135.909C88.8617 135.97 88.68 136 88.4984 136C88.0442 136 87.6507 135.787 87.3782 135.392L84.4111 130.652H82.4128V134.724C82.4128 135.089 82.2917 135.392 82.0192 135.666C81.777 135.909 81.444 136.061 81.0806 136.061C80.7173 136.061 80.4146 135.939 80.1421 135.666C79.8999 135.423 79.7485 135.089 79.7485 134.724V122.631C79.7485 122.449 79.7788 122.297 79.8393 122.115C79.8999 121.963 79.9907 121.811 80.1118 121.689C80.2329 121.568 80.3843 121.476 80.5357 121.416C80.687 121.355 80.8687 121.325 81.0504 121.325H84.4111C85.0469 121.325 85.6524 121.446 86.2276 121.689C86.8029 121.932 87.2873 122.266 87.7112 122.692C88.1351 123.117 88.4681 123.603 88.7103 124.181C88.9525 124.758 89.0737 125.366 89.0737 126.004C89.0737 126.429 89.0131 126.824 88.9223 127.219C88.8314 127.614 88.6498 127.979 88.4681 128.343C88.2562 128.708 88.014 129.012 87.7112 129.316C87.4993 129.528 87.2571 129.711 87.0148 129.893L89.5884 133.995ZM86.5304 125.973C86.5304 125.7 86.4699 125.426 86.379 125.183C86.2579 124.94 86.1368 124.728 85.9249 124.515C85.7432 124.333 85.5313 124.181 85.2588 124.089C85.0166 123.998 84.7441 123.938 84.4716 123.938H82.4431V128.039H84.4716C84.7441 128.039 85.0166 127.979 85.2588 127.888C85.501 127.796 85.713 127.644 85.8946 127.432C86.0763 127.249 86.2277 127.037 86.3488 126.763C86.4699 126.52 86.5304 126.247 86.5304 125.973ZM103.092 133.995C103.637 133.235 103.939 132.324 103.939 131.291C103.939 130.683 103.818 130.136 103.606 129.589C103.364 129.042 102.94 128.495 102.335 127.948C101.729 127.401 100.851 126.976 99.7916 126.672C99.1255 126.49 98.8227 126.277 98.7016 126.125C98.5199 125.943 98.4291 125.669 98.4291 125.335C98.4291 125.153 98.4594 124.971 98.5502 124.788C98.641 124.606 98.7319 124.484 98.853 124.333C98.9741 124.211 99.1255 124.12 99.3071 124.029C99.4585 123.968 99.6402 123.938 99.7916 123.938C100.003 123.938 100.215 123.968 100.427 124.059C100.609 124.12 100.73 124.241 100.821 124.363C100.912 124.484 100.972 124.576 101.063 124.667C101.154 124.758 101.245 124.849 101.305 124.94C101.426 125.031 101.548 125.123 101.669 125.153C101.79 125.214 101.941 125.244 102.123 125.244C102.305 125.244 102.456 125.214 102.638 125.153C102.789 125.092 102.94 125.001 103.061 124.879C103.183 124.758 103.273 124.606 103.334 124.454C103.394 124.302 103.425 124.12 103.425 123.938C103.425 123.694 103.364 123.451 103.243 123.239C103.031 122.904 102.819 122.631 102.547 122.388C102.305 122.145 102.002 121.932 101.699 121.78C101.396 121.628 101.093 121.507 100.76 121.416C100.458 121.325 100.125 121.294 99.8218 121.294C98.0052 121.385 96.9758 122.358 96.5217 122.996C96.3703 123.178 96.2492 123.391 96.1584 123.603C95.9162 124.12 95.795 124.697 95.795 125.305C95.795 125.821 95.8859 126.308 96.0675 126.763C96.2492 127.219 96.5822 127.675 97.0667 128.131C97.5511 128.556 98.2172 128.921 99.1255 129.194C99.8218 129.407 100.306 129.619 100.609 129.862C100.882 130.106 101.093 130.318 101.184 130.561C101.275 130.804 101.336 131.047 101.336 131.321C101.336 131.594 101.275 131.868 101.184 132.111C101.063 132.354 100.942 132.597 100.76 132.779C100.579 132.962 100.367 133.114 100.125 133.235C99.8824 133.357 99.6099 133.387 99.3374 133.387C98.9741 133.387 98.641 133.296 98.3383 133.144C98.0355 132.992 97.7933 132.749 97.5814 132.445C97.3391 132.05 96.9456 131.837 96.4914 131.837C96.3097 131.837 96.1281 131.868 95.9767 131.929C95.8253 131.989 95.6739 132.081 95.5528 132.202C95.4317 132.324 95.3409 132.476 95.2803 132.627C95.2198 132.779 95.1895 132.962 95.1895 133.144C95.1895 133.448 95.2803 133.721 95.4317 133.904C95.6437 134.238 95.9161 134.542 96.2189 134.815C96.5217 135.089 96.8547 135.301 97.1878 135.484C97.5208 135.666 97.8841 135.787 98.2474 135.879C98.6108 135.97 99.0044 136 99.3677 136C100.125 136 100.821 135.818 101.487 135.484C102.214 135.028 102.819 134.329 103.092 133.995Z" fill="white"/>
<g opacity="0.78">
<path d="M71.0288 108.988C71.3921 108.988 71.7252 108.867 71.9674 108.593C72.2399 108.32 72.361 108.016 72.361 107.651V95.437C72.361 95.0724 72.2399 94.7382 71.9674 94.4951C71.7252 94.252 71.3921 94.1001 71.0288 94.1001C70.6655 94.1001 70.3325 94.252 70.0902 94.4951C69.8178 94.7685 69.6966 95.0724 69.6966 95.437V107.651C69.6966 108.016 69.8178 108.35 70.0902 108.593C70.3627 108.836 70.6655 108.988 71.0288 108.988Z" fill="#FCF1EA"/>
<path d="M86.8029 108.989C86.9846 108.989 87.1662 108.958 87.3176 108.897C87.469 108.837 87.6204 108.745 87.7415 108.624C87.8626 108.502 87.9534 108.35 88.014 108.199C88.0745 108.047 88.1048 107.864 88.1048 107.682V95.4675C88.1048 95.1029 87.9837 94.7687 87.7112 94.5256C87.469 94.2825 87.136 94.1306 86.7726 94.1306C86.4093 94.1306 86.0763 94.2825 85.8341 94.5256C85.5616 94.7991 85.4405 95.1029 85.4405 95.4675V103.793L78.3255 94.6168C78.053 94.3129 77.6897 94.1306 77.2961 94.1306C77.1144 94.1306 76.9328 94.161 76.7814 94.2218C76.63 94.2825 76.4786 94.3737 76.3575 94.4952C76.2364 94.6168 76.1456 94.7687 76.085 94.9206C76.0245 95.0725 75.9942 95.2548 75.9942 95.4371V107.652C75.9942 108.016 76.1153 108.35 76.3878 108.594C76.6603 108.867 76.963 108.989 77.3264 108.989C77.6897 108.989 78.0227 108.837 78.2649 108.594C78.5374 108.32 78.6585 108.016 78.6585 107.652V99.3567L85.7735 108.533C86.0763 108.837 86.4396 108.989 86.8029 108.989Z" fill="#FCF1EA"/>
<path d="M103.485 101.271C103.364 101.149 103.213 101.058 103.061 100.997C102.91 100.937 102.728 100.876 102.547 100.876H99.186C99.0044 100.876 98.8227 100.906 98.6713 100.967C98.5199 101.028 98.3686 101.119 98.2475 101.241C98.1263 101.362 98.0355 101.514 97.9447 101.666C97.8841 101.818 97.8539 102 97.8539 102.182C97.8539 102.547 97.975 102.881 98.2475 103.124C98.4897 103.367 98.8227 103.519 99.186 103.519H101.184V105.616C100.458 106.041 99.6402 106.284 98.7622 106.284C97.43 106.284 96.34 105.829 95.4015 104.887C94.4629 103.945 94.0087 102.851 94.0087 101.514C94.0087 100.177 94.4629 99.0832 95.4015 98.1413C96.34 97.1994 97.43 96.7436 98.7622 96.7436C99.3071 96.7436 99.8521 96.8348 100.337 97.0171C100.821 97.1994 101.275 97.4425 101.669 97.7463C101.941 97.9894 102.244 98.1109 102.577 98.1109C102.759 98.1109 102.94 98.0805 103.092 98.0198C103.243 97.959 103.394 97.8679 103.516 97.7159C103.637 97.5944 103.728 97.4425 103.788 97.2906C103.849 97.1386 103.879 96.9563 103.879 96.774C103.879 96.2879 103.667 95.984 103.485 95.8017C102.062 94.6471 100.488 94.0698 98.7319 94.0698C96.7034 94.0698 94.917 94.799 93.494 96.2575C92.0408 97.7159 91.3141 99.4782 91.3141 101.514C91.3141 103.58 92.0408 105.342 93.494 106.801C94.9473 108.259 96.7034 108.989 98.7319 108.989C100.458 108.989 102.032 108.442 103.394 107.317L103.425 107.287L103.455 107.257C103.728 106.983 103.849 106.649 103.849 106.315V102.182C103.849 102 103.818 101.818 103.728 101.666C103.697 101.544 103.606 101.392 103.485 101.271Z" fill="#FCF1EA"/>
<path d="M8.68938 129.012C8.47744 128.647 8.23523 128.343 7.96274 128.039C7.78108 127.827 7.53887 127.644 7.32693 127.493C7.7508 126.855 7.96274 126.095 7.96274 125.275C7.96274 124.728 7.87191 124.211 7.65997 123.725C7.44804 123.239 7.17555 122.813 6.81223 122.449C6.44891 122.084 6.02504 121.811 5.54061 121.598C5.05619 121.385 4.54149 121.294 3.99651 121.294H1.30189C1.12023 121.294 0.938574 121.325 0.787191 121.385C0.635808 121.446 0.514702 121.537 0.393595 121.659C0.272489 121.78 0.181659 121.902 0.121106 122.084C0.0605531 122.236 0 122.418 0 122.601V134.694C0 134.876 0.0302766 135.058 0.121106 135.21C0.181659 135.362 0.272489 135.514 0.393595 135.636C0.514702 135.757 0.635808 135.848 0.787191 135.909C0.938574 135.97 1.12023 136.031 1.30189 136.031H4.66259C5.2984 136.031 5.90393 135.909 6.47919 135.666C7.05444 135.423 7.53887 135.089 7.96274 134.663C8.38661 134.238 8.71965 133.752 8.96186 133.174C9.20408 132.597 9.32518 131.989 9.32518 131.351C9.32518 130.956 9.26463 130.531 9.1738 130.166C9.05269 129.741 8.90131 129.376 8.68938 129.012ZM2.60379 123.907H3.96623C4.14789 123.907 4.32955 123.938 4.48093 124.029C4.66259 124.09 4.7837 124.211 4.93508 124.333C5.05619 124.454 5.17729 124.606 5.23785 124.788C5.2984 124.94 5.35895 125.123 5.35895 125.305C5.35895 125.487 5.32868 125.67 5.23785 125.821C5.17729 125.973 5.05619 126.125 4.93508 126.277C4.81397 126.399 4.66259 126.52 4.51121 126.581C4.35983 126.642 4.17817 126.703 3.99651 126.703H2.60379V123.907ZM6.53974 132.141C6.41863 132.384 6.29753 132.628 6.11587 132.81C5.93421 132.992 5.72227 133.144 5.48006 133.235C5.23785 133.326 4.96536 133.387 4.69287 133.387H2.60379V129.285H4.63232C4.9048 129.285 5.17729 129.346 5.41951 129.437C5.66172 129.559 5.87365 129.68 6.08559 129.893C6.26725 130.075 6.41863 130.288 6.50946 130.561C6.63057 130.804 6.66085 131.078 6.66085 131.351C6.69112 131.625 6.63057 131.868 6.53974 132.141Z" fill="#FCF1EA"/>
<path d="M23.9488 121.294C23.5854 121.294 23.2827 121.416 23.0102 121.689C22.768 121.932 22.6166 122.266 22.6166 122.631V130.653C22.6166 131.017 22.556 131.382 22.4047 131.716C22.2533 132.05 22.0716 132.324 21.8294 132.597C21.5872 132.84 21.2844 133.053 20.9514 133.174C20.6183 133.326 20.2853 133.387 19.8917 133.387C19.5284 133.387 19.1651 133.326 18.832 133.174C18.499 133.023 18.2265 132.84 17.9843 132.597C17.7421 132.354 17.5604 132.05 17.409 131.716C17.2576 131.382 17.1971 131.048 17.1971 130.683V122.631C17.1971 122.266 17.076 121.963 16.8035 121.689C16.5613 121.446 16.2282 121.294 15.8649 121.294C15.5016 121.294 15.1988 121.416 14.9263 121.689C14.6841 121.932 14.5328 122.266 14.5328 122.631V130.653C14.5328 132.111 15.0475 133.387 16.1071 134.42C17.1365 135.453 18.4082 136 19.8614 136C20.3459 136 20.8303 135.939 21.2844 135.818C21.7386 135.696 22.1624 135.514 22.556 135.271C22.9496 135.028 23.313 134.754 23.646 134.42C23.979 134.086 24.2515 133.721 24.4635 133.326C24.7057 132.931 24.8873 132.506 25.0084 132.05C25.1296 131.594 25.1901 131.108 25.1901 130.653V122.601C25.1901 122.236 25.069 121.932 24.7965 121.659C24.6149 121.416 24.3121 121.294 23.9488 121.294Z" fill="#FCF1EA"/>
<path d="M37.8154 129.863C38.0879 129.68 38.3301 129.498 38.5118 129.285C38.8146 128.981 39.087 128.647 39.2687 128.313C39.4806 127.948 39.632 127.584 39.7229 127.189C39.8137 126.794 39.8742 126.399 39.8742 125.973C39.8742 125.335 39.7531 124.728 39.5109 124.15C39.2687 123.603 38.9357 123.087 38.5118 122.661C38.0879 122.236 37.6035 121.902 37.0282 121.659C36.453 121.416 35.8475 121.294 35.2116 121.294H31.8509C31.6693 121.294 31.4876 121.325 31.3362 121.385C31.1849 121.446 31.0335 121.537 30.9124 121.659C30.7913 121.78 30.7004 121.932 30.6399 122.084C30.5793 122.236 30.5491 122.418 30.5491 122.601V134.694C30.5491 135.058 30.6702 135.362 30.9426 135.636C31.1849 135.879 31.5179 136.031 31.8812 136.031C32.2445 136.031 32.5473 135.909 32.8198 135.636C33.062 135.392 33.2134 135.058 33.2134 134.694V130.622H35.2116L38.1787 135.362C38.4512 135.757 38.8448 135.97 39.299 135.97C39.4806 135.97 39.632 135.939 39.8137 135.879C39.9651 135.818 40.1164 135.727 40.2376 135.605C40.3587 135.484 40.4495 135.362 40.51 135.18C40.5706 135.028 40.6009 134.846 40.6009 134.663C40.6009 134.42 40.5403 134.177 40.3889 133.964L37.8154 129.863ZM37.1191 126.763C36.998 127.006 36.8769 127.219 36.6649 127.432C36.4833 127.614 36.2713 127.766 36.0291 127.888C35.7869 128.009 35.5144 128.039 35.2419 128.039H33.2134V123.938H35.2419C35.5144 123.938 35.7869 123.998 36.0291 124.09C36.2713 124.211 36.4833 124.333 36.6952 124.515C36.8769 124.697 37.0282 124.91 37.1191 125.183C37.2402 125.426 37.2705 125.7 37.2705 125.973C37.3007 126.247 37.2402 126.52 37.1191 126.763Z" fill="#FCF1EA"/>
<path d="M53.2565 123.907C53.8015 123.907 54.3162 123.998 54.8309 124.15C55.3153 124.333 55.7694 124.576 56.1328 124.88C56.4052 125.123 56.708 125.244 57.041 125.244C57.2227 125.244 57.3741 125.214 57.5558 125.153C57.7071 125.092 57.8585 125.001 57.9796 124.88C58.1007 124.758 58.1916 124.606 58.2521 124.454C58.3127 124.302 58.3429 124.12 58.3429 123.938C58.3429 123.543 58.2218 123.239 57.9493 122.996C56.5566 121.871 54.9822 121.294 53.2565 121.294C51.2582 121.294 49.5022 122.023 48.0792 123.451C46.6562 124.88 45.9296 126.611 45.9296 128.647C45.9296 130.683 46.6562 132.415 48.0792 133.843C49.5022 135.271 51.2582 136 53.2565 136C54.952 136 56.4961 135.453 57.8888 134.329C58.1613 134.056 58.2824 133.752 58.2824 133.387V129.316C58.2824 129.133 58.2521 128.981 58.1613 128.799C58.1007 128.647 58.0099 128.495 57.8888 128.374C57.7677 128.252 57.6466 128.161 57.4952 128.1C57.3438 128.039 57.1622 127.979 56.9805 127.979H53.6501C53.4684 127.979 53.2868 128.009 53.1354 128.07C52.984 128.131 52.8326 128.222 52.7115 128.343C52.5904 128.465 52.4996 128.617 52.439 128.769C52.3785 128.921 52.3482 129.103 52.3482 129.285C52.3482 129.65 52.4693 129.954 52.7115 130.227C52.9537 130.47 53.2868 130.592 53.6501 130.592H55.6483V132.688C54.9217 133.114 54.1042 133.326 53.2262 133.326C51.894 133.326 50.8041 132.871 49.8958 131.929C48.9875 131.017 48.5333 129.923 48.5333 128.586C48.5333 127.28 48.9875 126.186 49.8958 125.244C50.8344 124.363 51.9243 123.907 53.2565 123.907Z" fill="#FCF1EA"/>
<path d="M73.1482 123.907C73.5115 123.907 73.8143 123.786 74.0868 123.512C74.329 123.269 74.4803 122.935 74.4803 122.57C74.4803 122.206 74.3592 121.902 74.0868 121.628C73.8445 121.385 73.5115 121.233 73.1482 121.233H65.1249C64.9432 121.233 64.7616 121.264 64.6102 121.325C64.4588 121.385 64.3074 121.476 64.1863 121.598C64.0652 121.72 63.9744 121.871 63.9138 122.023C63.8533 122.175 63.823 122.358 63.823 122.54V134.633C63.823 134.815 63.8533 134.997 63.9138 135.149C63.9744 135.301 64.0652 135.453 64.1863 135.575C64.3074 135.696 64.4588 135.787 64.6102 135.848C64.7616 135.909 64.9432 135.939 65.1249 135.939H73.1482C73.5115 135.939 73.8143 135.818 74.0868 135.544C74.329 135.301 74.4803 134.967 74.4803 134.602C74.4803 134.238 74.3592 133.934 74.0868 133.691C73.8445 133.448 73.5115 133.296 73.1482 133.296H66.4268V129.863H71.1499C71.5132 129.863 71.816 129.741 72.0885 129.468C72.3307 129.224 72.4821 128.89 72.4821 128.526C72.4821 128.161 72.361 127.857 72.0885 127.584C71.8463 127.341 71.5132 127.189 71.1499 127.189H66.4268V123.755H73.1482V123.907Z" fill="#FCF1EA"/>
<path d="M86.9846 129.863C87.2571 129.68 87.469 129.498 87.6809 129.285C87.9837 128.981 88.2562 128.647 88.4379 128.313C88.6498 127.948 88.8012 127.584 88.892 127.189C88.9828 126.794 89.0434 126.399 89.0434 125.973C89.0434 125.335 88.9223 124.728 88.6801 124.15C88.4378 123.603 88.1048 123.087 87.6809 122.661C87.2571 122.236 86.7726 121.902 86.1974 121.659C85.6221 121.416 85.0166 121.294 84.3808 121.294H81.0201C80.8384 121.294 80.6568 121.325 80.5054 121.385C80.354 121.446 80.2026 121.537 80.0815 121.659C79.9604 121.78 79.8696 121.932 79.809 122.084C79.7485 122.236 79.7182 122.418 79.7182 122.601V134.694C79.7182 135.058 79.8393 135.362 80.1118 135.636C80.354 135.879 80.6871 136.031 81.0504 136.031C81.4137 136.031 81.7164 135.909 81.9889 135.636C82.2311 135.392 82.3825 135.058 82.3825 134.694V130.622H84.3808L87.3479 135.362C87.6204 135.757 88.014 135.97 88.4681 135.97C88.6498 135.97 88.8012 135.939 88.9828 135.879C89.1342 135.818 89.2856 135.727 89.4067 135.605C89.5278 135.484 89.6186 135.362 89.6792 135.18C89.7397 135.028 89.77 134.846 89.77 134.663C89.77 134.42 89.7095 134.177 89.5581 133.964L86.9846 129.863ZM86.3185 126.763C86.1974 127.006 86.0763 127.219 85.8643 127.432C85.6827 127.614 85.4707 127.766 85.2285 127.888C84.9863 128.009 84.7138 128.039 84.4413 128.039H82.4128V123.938H84.4413C84.7138 123.938 84.9863 123.998 85.2285 124.09C85.4707 124.211 85.6827 124.333 85.8946 124.515C86.0763 124.697 86.2277 124.91 86.3488 125.183C86.4699 125.426 86.5002 125.7 86.5002 125.973C86.4699 126.247 86.4396 126.52 86.3185 126.763Z" fill="#FCF1EA"/>
<path d="M103.031 133.995C103.576 133.235 103.879 132.324 103.879 131.291C103.879 130.683 103.758 130.136 103.546 129.589C103.304 129.042 102.88 128.495 102.274 127.948C101.669 127.401 100.791 126.976 99.731 126.672C99.0649 126.49 98.7621 126.277 98.641 126.125C98.4594 125.943 98.3686 125.67 98.3686 125.335C98.3686 125.153 98.3988 124.971 98.4897 124.788C98.5805 124.606 98.6713 124.485 98.7924 124.333C98.9135 124.211 99.0649 124.12 99.2466 124.029C99.398 123.968 99.5796 123.938 99.731 123.938C99.9429 123.938 100.155 123.968 100.367 124.059C100.548 124.12 100.67 124.241 100.76 124.363C100.851 124.485 100.912 124.576 101.003 124.667C101.093 124.758 101.184 124.849 101.245 124.94C101.366 125.031 101.487 125.123 101.608 125.153C101.729 125.214 101.881 125.244 102.062 125.244C102.244 125.244 102.395 125.214 102.577 125.153C102.728 125.092 102.88 125.001 103.001 124.88C103.122 124.758 103.213 124.606 103.273 124.454C103.334 124.302 103.364 124.12 103.364 123.938C103.364 123.695 103.304 123.451 103.183 123.239C102.971 122.905 102.759 122.631 102.486 122.388C102.244 122.145 101.941 121.932 101.638 121.78C101.336 121.628 101.033 121.507 100.7 121.416C100.397 121.325 100.064 121.294 99.7613 121.294C97.9447 121.385 96.9153 122.358 96.4611 122.996C96.3098 123.178 96.1886 123.391 96.0978 123.603C95.8556 124.12 95.7345 124.697 95.7345 125.305C95.7345 125.821 95.8253 126.308 96.007 126.763C96.1886 127.219 96.5217 127.675 97.0061 128.131C97.4905 128.556 98.1566 128.921 99.0649 129.194C99.7613 129.407 100.246 129.619 100.548 129.863C100.821 130.106 101.033 130.318 101.124 130.561C101.215 130.804 101.275 131.048 101.275 131.321C101.275 131.594 101.215 131.868 101.124 132.111C101.003 132.354 100.882 132.597 100.7 132.779C100.518 132.962 100.306 133.114 100.064 133.235C99.8218 133.357 99.5493 133.387 99.2769 133.387C98.9135 133.387 98.5805 133.296 98.2777 133.144C97.975 132.992 97.7327 132.749 97.5208 132.445C97.2786 132.05 96.885 131.838 96.4309 131.838C96.2492 131.838 96.0675 131.868 95.9162 131.929C95.7648 131.989 95.6134 132.081 95.4923 132.202C95.3712 132.324 95.2803 132.476 95.2198 132.628C95.1592 132.779 95.129 132.962 95.129 133.144C95.129 133.448 95.2198 133.721 95.3712 133.904C95.5831 134.238 95.8556 134.542 96.1584 134.815C96.4611 135.089 96.7942 135.301 97.1272 135.484C97.4603 135.666 97.8236 135.787 98.1869 135.879C98.5502 135.97 98.9438 136 99.3071 136C100.064 136 100.76 135.818 101.426 135.484C102.153 135.028 102.789 134.329 103.031 133.995Z" fill="#FCF1EA"/>
</g>
<defs>
<linearGradient id="paint0_linear_139_407" x1="119.17" y1="77.1806" x2="-38.7797" y2="77.1806" gradientUnits="userSpaceOnUse">
<stop offset="0.0182892" stop-color="#C69727"/>
<stop offset="0.0499995" stop-color="#D2AA34"/>
<stop offset="0.1036" stop-color="#E4C449"/>
<stop offset="0.1565" stop-color="#F0D75B"/>
<stop offset="0.2077" stop-color="#F8E365"/>
<stop offset="0.2556" stop-color="#FBE769"/>
<stop offset="0.3037" stop-color="#EFD659"/>
<stop offset="0.4543" stop-color="#CFA832"/>
<stop offset="0.5693" stop-color="#BC8E1F"/>
<stop offset="0.6342" stop-color="#B68417"/>
<stop offset="0.8039" stop-color="#B78619"/>
<stop offset="0.865" stop-color="#BC8C1F"/>
<stop offset="0.9086" stop-color="#C49728"/>
<stop offset="0.9438" stop-color="#D0A736"/>
<stop offset="0.9737" stop-color="#E0BC4B"/>
<stop offset="1" stop-color="#F5D867"/>
</linearGradient>
<linearGradient id="paint1_linear_139_407" x1="93.5301" y1="29.2527" x2="-11.9484" y2="29.2527" gradientUnits="userSpaceOnUse">
<stop offset="0.0182892" stop-color="#C69727"/>
<stop offset="0.0499995" stop-color="#D2AA34"/>
<stop offset="0.1036" stop-color="#E4C449"/>
<stop offset="0.1565" stop-color="#F0D75B"/>
<stop offset="0.2077" stop-color="#F8E365"/>
<stop offset="0.2556" stop-color="#FBE769"/>
<stop offset="0.3398" stop-color="#DAC04D"/>
<stop offset="0.4739" stop-color="#B08E2D"/>
<stop offset="0.5764" stop-color="#997320"/>
<stop offset="0.6342" stop-color="#90691B"/>
<stop offset="0.7979" stop-color="#926B1C"/>
<stop offset="0.8568" stop-color="#987120"/>
<stop offset="0.8988" stop-color="#A37C26"/>
<stop offset="0.9328" stop-color="#B28D2F"/>
<stop offset="0.9619" stop-color="#C7A43F"/>
<stop offset="0.9872" stop-color="#E3C357"/>
<stop offset="1" stop-color="#F5D867"/>
</linearGradient>
</defs>
</svg>
