<svg width="12" height="16" viewBox="0 0 12 16" fill="none" xmlns="http://www.w3.org/2000/svg">
<path d="M5.99996 15.5002C4.94738 14.6023 3.97179 13.6181 3.08329 12.5577C1.74996 10.9652 0.166627 8.59351 0.166627 6.3335C0.165443 3.97312 1.58683 1.84466 3.76752 0.941332C5.94821 0.0379984 8.45838 0.537865 10.1266 2.20766C11.2237 3.29984 11.8382 4.78549 11.8333 6.3335C11.8333 8.59351 10.25 10.9652 8.91663 12.5577C8.02813 13.6181 7.05254 14.6023 5.99996 15.5002ZM5.99996 3.8335C5.10679 3.8335 4.28148 4.31 3.8349 5.0835C3.38832 5.857 3.38832 6.81001 3.8349 7.58351C4.28148 8.35701 5.10679 8.83351 5.99996 8.83351C7.38071 8.83351 8.49996 7.71417 8.49996 6.3335C8.49996 4.95278 7.38071 3.8335 5.99996 3.8335Z" fill="url(#paint0_linear_166_1594)"/>
<defs>
<linearGradient id="paint0_linear_166_1594" x1="5.99997" y1="0.49707" x2="5.99997" y2="15.5002" gradientUnits="userSpaceOnUse">
<stop stop-color="#D8B242"/>
<stop offset="1" stop-color="#FFED79"/>
</linearGradient>
</defs>
</svg>
