<svg width="16" height="13" viewBox="0 0 16 13" fill="none" xmlns="http://www.w3.org/2000/svg">
<path d="M14 0.333374H2C1.46974 0.333946 0.961363 0.546439 0.586413 0.92423C0.211463 1.30202 0.000567223 1.81425 0 2.34853V10.9849C0.000567223 11.5192 0.211463 12.0314 0.586413 12.4092C0.961363 12.787 1.46974 12.9995 2 13H14C14.5303 12.9995 15.0386 12.787 15.4136 12.4092C15.7885 12.0314 15.9994 11.5192 16 10.9849V2.34853C15.9994 1.81425 15.7885 1.30202 15.4136 0.92423C15.0386 0.546439 14.5303 0.333946 14 0.333374ZM13.4936 3.66665L8.35071 7.69695C8.25043 7.77551 8.12702 7.81815 8 7.81815C7.87298 7.81815 7.74957 7.77551 7.64929 7.69695L2.50643 3.66665C2.446 3.62067 2.39525 3.56306 2.35712 3.49715C2.31899 3.43124 2.29424 3.35835 2.2843 3.28271C2.27437 3.20708 2.27946 3.13022 2.29926 3.05658C2.31907 2.98295 2.3532 2.91401 2.39968 2.85378C2.44615 2.79355 2.50405 2.74323 2.56999 2.70574C2.63594 2.66825 2.70862 2.64434 2.78382 2.6354C2.85901 2.62646 2.93522 2.63266 3.00802 2.65365C3.08081 2.67464 3.14874 2.71 3.20786 2.75767L8 6.51305L12.7921 2.75767C12.912 2.6665 13.0626 2.62651 13.2115 2.64635C13.3603 2.6662 13.4955 2.74429 13.5876 2.86373C13.6798 2.98317 13.7216 3.13437 13.704 3.28462C13.6864 3.43488 13.6108 3.57211 13.4936 3.66665Z" fill="url(#paint0_linear_166_1598)"/>
<defs>
<linearGradient id="paint0_linear_166_1598" x1="8" y1="0.333374" x2="8" y2="13" gradientUnits="userSpaceOnUse">
<stop stop-color="#D8B242"/>
<stop offset="1" stop-color="#FFED79"/>
</linearGradient>
</defs>
</svg>
