<svg width="17" height="17" viewBox="0 0 17 17" fill="none" xmlns="http://www.w3.org/2000/svg">
<path d="M1.0002 6.86053C2.9166 11.0344 6.3266 14.3529 10.5661 16.1519L11.2457 16.4547C12.8006 17.1475 14.6283 16.6212 15.5766 15.2077L16.4647 13.884C16.7535 13.4536 16.6656 12.8739 16.2622 12.5485L13.2503 10.1187C12.808 9.7618 12.1575 9.845 11.819 10.3016L10.8873 11.5589C8.4965 10.3795 6.5554 8.4385 5.3761 6.04768L6.6333 5.11596C7.09 4.77754 7.1731 4.12702 6.8162 3.68464L4.38638 0.672698C4.06103 0.269418 3.48153 0.181448 3.05116 0.470018L1.71832 1.36372C0.295977 2.31742 -0.227403 4.16027 0.481327 5.71922L0.999418 6.85884L1.0002 6.86053Z" fill="url(#paint0_linear_153_112)"/>
<defs>
<linearGradient id="paint0_linear_153_112" x1="8.40076" y1="0.300537" x2="8.40076" y2="16.7581" gradientUnits="userSpaceOnUse">
<stop stop-color="#D8B242"/>
<stop offset="1" stop-color="#FFED79"/>
</linearGradient>
</defs>
</svg>
