<svg width="18" height="18" viewBox="0 0 18 18" fill="none" xmlns="http://www.w3.org/2000/svg">
<path fill-rule="evenodd" clip-rule="evenodd" d="M0.5 9C0.5 4.30558 4.30558 0.5 9 0.5C13.6944 0.5 17.5 4.30558 17.5 9C17.5 13.6944 13.6944 17.5 9 17.5C4.30558 17.5 0.5 13.6944 0.5 9ZM9.75 4C9.75 3.58579 9.4142 3.25 9 3.25C8.5858 3.25 8.25 3.58579 8.25 4V9C8.25 9.2586 8.3832 9.4989 8.6025 9.636L11.6025 11.511C11.9538 11.7305 12.4165 11.6238 12.636 11.2725C12.8555 10.9212 12.7488 10.4585 12.3975 10.239L9.75 8.5843V4Z" fill="url(#paint0_linear_153_103)"/>
<defs>
<linearGradient id="paint0_linear_153_103" x1="9" y1="0.5" x2="9" y2="17.5" gradientUnits="userSpaceOnUse">
<stop stop-color="#D8B242"/>
<stop offset="1" stop-color="#FFED79"/>
</linearGradient>
</defs>
</svg>
