<svg width="75" height="75" viewBox="0 0 75 75" fill="none" xmlns="http://www.w3.org/2000/svg">
<g clip-path="url(#clip0_3384:4605)">
<path d="M15.9973 67.5142C12.8208 69.0548 10.4385 68.8987 8.37089 67.02C6.38127 65.2163 5.7402 62.4618 6.92704 60.0454C7.38907 59.1147 7.20137 58.554 6.70758 57.7533C-1.40684 44.5847 -1.55989 31.2773 6.13004 17.8658C6.69025 16.8889 7.23316 15.6373 8.75787 16.3484C9.73102 16.8022 9.62413 17.649 8.64232 19.3313C7.77601 20.7996 7.00794 22.3257 6.09831 24.005H20.3433C21.146 21.632 22.7429 20.0828 25.2523 19.4671C25.5902 19.3862 25.8905 18.7676 26.0349 18.337C27.2968 14.5621 28.475 10.7583 29.7889 7.00081C30.1614 5.93714 30.8949 4.99776 31.7063 3.56701C29.2172 4.33586 27.0225 4.82434 24.9925 5.69435C22.7054 6.67131 20.5511 7.96331 18.3767 9.18595C17.4469 9.70911 16.5777 10.0993 15.8847 9.00097C15.2234 7.95753 15.9511 7.32742 16.751 6.76379C28.7869 -1.70508 45.4835 -1.78312 58.0594 6.58459C58.6081 6.95167 59.0152 7.31297 59.8295 6.89676C62.4429 5.56428 65.0707 6.02964 66.9853 7.97199C68.8998 9.91433 69.2521 12.5533 67.9498 15.1691C67.8458 15.3801 67.739 15.594 67.6408 15.7876C72.6884 22.908 75.0733 31.5785 74.3781 40.2815C73.6828 48.9845 69.9517 57.1655 63.8377 63.3925C57.6382 69.6311 49.4303 73.4685 40.6717 74.2231C31.9131 74.9777 23.1707 72.6007 15.9973 67.5142ZM50.6987 26.9648C50.6987 32.3409 50.6987 37.4801 50.7189 42.6163C50.7189 42.9747 50.9297 43.521 51.2012 43.654C52.9511 44.5211 54.0311 45.9114 54.649 47.7699C59.5379 47.7699 64.3863 47.7901 69.2348 47.7236C69.5957 47.7236 70.1502 47.1282 70.2715 46.7091C72.0705 40.5121 72.0272 34.2977 70.361 28.0689C70.1386 27.2307 69.7835 26.9301 68.8883 26.9446C65.0938 26.9937 61.2966 26.9648 57.5021 26.9648H50.6987ZM20.3375 26.9648C15.6652 26.9648 11.0016 27.0024 6.33794 26.9359C5.29837 26.9185 4.92876 27.2943 4.6833 28.225C3.08273 34.2098 3.07575 40.5098 4.66307 46.4981C4.95184 47.556 5.43414 47.8017 6.45638 47.793C12.0874 47.7439 17.7184 47.7699 23.3494 47.7699H24.3773C24.3773 42.4284 24.3774 37.3298 24.3543 32.234C24.3543 31.8409 24.1204 31.2426 23.82 31.0952C22.0672 30.2396 20.9785 28.858 20.3375 26.9648ZM27.3864 47.7757C32.5842 47.7757 37.3402 47.793 42.0963 47.7352C42.4457 47.7352 42.9193 47.2149 43.1098 46.8247C43.8924 45.235 45.0388 44.0268 46.7281 43.5152C47.6175 43.2493 47.8485 42.7926 47.8456 41.9775C47.8456 38.9484 47.9034 35.9077 47.8456 32.8872C47.8023 30.9362 47.5742 28.991 47.4298 27.0168H32.2175C31.484 29.1499 30.1528 30.6645 27.961 31.3813C27.6491 31.4854 27.3026 32.0866 27.3026 32.4566C27.2882 37.4974 27.3431 42.5412 27.3864 47.7757ZM47.0227 24.0137C46.9303 23.3402 46.8667 22.7304 46.7627 22.1263C45.8358 16.8137 44.7241 11.5474 41.897 6.85051C39.07 2.15361 36.0985 2.10736 33.2108 6.76669C30.8487 10.582 29.7456 14.8598 28.8793 19.1954C28.8186 19.5076 29.0612 19.9671 29.3009 20.2388C30.3462 21.4297 31.4435 22.5743 32.7661 23.9964L47.0227 24.0137ZM28.013 50.6661C28.2267 51.9783 28.3826 53.1634 28.6108 54.3311C29.5435 59.1118 30.6696 63.8376 33.2628 68.0403C36.061 72.5782 39.0007 72.5782 41.8306 68.0403C44.2101 64.2307 45.3304 59.9471 46.1823 55.6115C46.2487 55.2734 45.9253 54.7936 45.6712 54.4727C44.8193 53.4033 43.9386 52.3685 43.029 51.3366C42.8037 51.0794 42.5063 50.7008 42.2378 50.6979C37.5424 50.6661 32.8268 50.6661 28.013 50.6661ZM43.4853 70.8353C55.6742 69.075 65.6973 59.3257 68.6947 50.7412H54.623C53.8145 53.1171 52.2638 54.5941 49.867 55.2242C49.5205 55.3138 49.1653 55.9179 49.07 56.3428C47.912 61.3808 46.5491 66.3263 43.4824 70.8411L43.4853 70.8353ZM57.196 9.50679C53.1044 6.59187 48.4075 4.6404 43.4563 3.79825C47.5858 10.0502 48.8852 16.9871 50.0172 23.9472H69.0182L65.4692 17.6577C62.7259 18.7243 60.3898 18.4526 58.4377 16.5333C56.4452 14.5737 56.1478 12.1977 57.1931 9.51257L57.196 9.50679ZM9.55487 57.0249C15.31 54.8745 20.0545 59.7593 17.958 65.2799C22.0266 68.1743 26.6991 70.1056 31.6226 70.9278C27.4874 64.6383 26.1966 57.7013 25.0589 50.7499H6.06652L9.55487 57.0249ZM45.5731 49.2816C45.5798 50.1061 45.9098 50.895 46.4921 51.4783C47.0743 52.0617 47.8622 52.3928 48.686 52.4003C49.5359 52.3965 50.3496 52.0559 50.9493 51.453C51.5489 50.8501 51.8855 50.034 51.8855 49.1833C51.8663 48.3541 51.5279 47.5643 50.9409 46.9789C50.3538 46.3935 49.5636 46.0576 48.7351 46.0414C48.314 46.039 47.8967 46.1212 47.508 46.2832C47.1193 46.4452 46.767 46.6837 46.4721 46.9845C46.1772 47.2854 45.9457 47.6424 45.7912 48.0345C45.6368 48.4266 45.5626 48.8458 45.5731 49.2671V49.2816ZM62.6104 9.06744C61.7864 9.08158 61.0002 9.41571 60.4177 9.99925C59.8353 10.5828 59.5022 11.3701 59.4888 12.1949C59.4849 12.6185 59.5657 13.0386 59.7263 13.4306C59.8869 13.8225 60.1241 14.1784 60.4241 14.4773C60.724 14.7762 61.0807 15.0121 61.473 15.1711C61.8653 15.3301 62.2854 15.409 62.7086 15.4032C63.5371 15.3875 64.3272 15.0501 64.9118 14.4622C65.4965 13.8744 65.8299 13.0821 65.8417 12.2527C65.8456 11.829 65.7649 11.4089 65.6043 11.0169C65.4437 10.625 65.2064 10.2691 64.9065 9.97021C64.6065 9.67132 64.2499 9.43545 63.8576 9.27645C63.4653 9.11745 63.0452 9.03853 62.622 9.04432L62.6104 9.06744ZM29.4568 25.4502C29.4387 24.6191 29.0961 23.8281 28.5023 23.2467C27.9086 22.6654 27.1109 22.34 26.2804 22.3402C25.8583 22.3401 25.4405 22.4242 25.0513 22.5876C24.6621 22.751 24.3093 22.9903 24.0136 23.2917C23.7178 23.5931 23.4851 23.9505 23.3289 24.3429C23.1727 24.7354 23.0962 25.155 23.1039 25.5774C23.119 26.4106 23.4604 27.2045 24.0545 27.7883C24.6485 28.3721 25.4478 28.6992 26.2804 28.699C26.7027 28.6968 27.1204 28.6107 27.5093 28.4458C27.8982 28.2809 28.2506 28.0404 28.546 27.7382C28.8414 27.4361 29.0741 27.0783 29.2304 26.6856C29.3868 26.2928 29.4637 25.8729 29.4568 25.4502ZM15.5959 62.4618C15.5816 61.6311 15.243 60.839 14.6525 60.2551C14.0621 59.6711 13.2668 59.3417 12.4368 59.3373C12.016 59.3372 11.5993 59.4209 11.2111 59.5834C10.8228 59.7459 10.4707 59.9839 10.1752 60.2838C9.87967 60.5836 9.64658 60.9393 9.48952 61.33C9.33246 61.7208 9.25458 62.1389 9.26032 62.5601C9.27156 63.3893 9.60607 64.1813 10.1925 64.7672C10.7789 65.3531 11.5707 65.6864 12.3992 65.6961C12.822 65.6966 13.2408 65.6129 13.6311 65.4501C14.0213 65.2873 14.3755 65.0485 14.6728 64.7476C14.9702 64.4467 15.2049 64.0897 15.3634 63.6974C15.5218 63.305 15.6009 62.885 15.5959 62.4618Z" fill="#F8E4AE"/>
<path d="M11.8632 14.1842C11.4791 13.6321 10.7427 13.028 10.8033 12.5424C10.864 12.0568 11.6292 11.2851 12.1865 11.1868C12.5591 11.1203 13.4398 11.9643 13.4773 12.4499C13.5207 12.9904 12.8681 13.5887 12.5187 14.1639L11.8632 14.1842Z" fill="#F8E4AE"/>
</g>
<defs>
<clipPath id="clip0_3384:4605">
<rect width="74" height="74" fill="white" transform="translate(0.5 0.371094)"/>
</clipPath>
</defs>
</svg>
