<svg width="84" height="74" viewBox="0 0 84 74" fill="none" xmlns="http://www.w3.org/2000/svg">
<g clip-path="url(#clip0_3384:4608)">
<path d="M73.5616 39.9308C73.5541 43.1764 72.8933 46.3885 71.6174 49.3815C70.3414 52.3745 68.4756 55.0892 66.1276 57.3688C63.7797 59.6483 60.996 61.4477 57.9375 62.6629C54.8789 63.8781 51.6059 64.4851 48.3077 64.4488C34.6698 64.3573 23.5187 53.2169 23.6001 39.7555C23.6106 36.5094 24.2743 33.2976 25.553 30.3053C26.8316 27.313 28.6998 24.5995 31.0499 22.3215C33.3999 20.0434 36.1852 18.2459 39.245 17.0326C42.3048 15.8194 45.5784 15.2144 48.877 15.2527C62.5304 15.3289 73.6236 26.4198 73.5616 39.9308ZM48.6331 60.79C52.8481 60.79 56.9683 59.5596 60.4724 57.2546C63.9765 54.9495 66.707 51.6734 68.3182 47.8409C69.9294 44.0083 70.3491 39.7916 69.524 35.7243C68.6988 31.6571 66.6661 27.922 63.6829 24.992C60.6997 22.0619 56.9002 20.0684 52.7653 19.2639C48.6303 18.4594 44.3458 18.88 40.4539 20.4724C36.5619 22.0648 33.2375 24.7575 30.9013 28.2097C28.5652 31.6619 27.3223 35.7185 27.33 39.866C27.3315 42.6165 27.8838 45.3399 28.9554 47.8803C30.027 50.4207 31.5969 52.7284 33.5753 54.6716C35.5537 56.6148 37.9018 58.1553 40.4855 59.2051C43.0691 60.2549 45.8378 60.7935 48.6331 60.79Z" fill="#F8E4AE"/>
<path d="M84 35.563C84 39.9486 84 44.3341 84 48.7196C84 50.0231 84.0503 51.4752 82.2028 51.4981C80.3552 51.5209 80.3436 50.126 80.3474 48.7844C80.3474 40.4555 80.3474 32.1291 80.3474 23.8052C80.3474 18.5101 77.6852 15.7888 72.3608 15.6414C67.5192 15.5119 63.6148 13.6367 60.8919 9.62722C56.0852 2.54203 56.7127 3.77689 48.9313 3.65874C47.2541 3.63587 45.5692 3.73497 43.896 3.65874C41.572 3.52535 39.9181 4.47436 38.6438 6.26948C37.7568 7.51958 36.8815 8.7773 35.9906 10.0236C33.2483 13.8349 29.4603 15.6567 24.7581 15.6605C20.3038 15.6605 15.8495 15.6605 11.3914 15.6605C7.0223 15.6872 4.2645 18.0883 3.72611 22.3836C3.56731 23.6337 3.12957 24.5141 1.73519 24.4226C0.340806 24.3312 0.0541748 23.3021 0.0812878 22.0978C0.193613 17.1126 4.40776 12.5162 9.5786 12.1884C13.9631 11.9169 18.3593 11.88 22.7478 12.0779C28.0155 12.3142 31.8461 10.3399 34.4684 5.8731C35.1701 4.73223 35.9779 3.65792 36.8814 2.66399C37.5905 1.8275 38.4795 1.15633 39.4842 0.698923C40.489 0.241515 41.5843 0.00927476 42.6913 0.0189615C46.6266 -0.0115288 50.5644 -0.0115288 54.5049 0.0189615C55.7078 0.0029625 56.8974 0.269091 57.975 0.795325C59.0527 1.32156 59.9875 2.09277 60.7021 3.04512C61.7285 4.34858 62.6736 5.71303 63.611 7.08509C65.7026 10.1341 68.5533 11.8263 72.3259 11.9902C73.5507 12.0073 74.7706 12.1465 75.9668 12.4057C80.6148 13.5719 83.7444 17.448 84.0117 22.2121C84.0117 22.4027 84.0387 22.5932 84.0387 22.7838C84.0103 27.0474 83.9974 31.3071 84 35.563Z" fill="#F8E4AE"/>
<path d="M41.8238 73.9962C31.8152 73.9962 21.8079 73.9962 11.8019 73.9962C4.53565 73.9962 0.0659288 69.6323 0.0465624 62.509C0.0194494 53.038 0.0465624 43.5669 0.0465624 34.0997C0.0465624 33.6537 -0.089014 33.0897 0.131763 32.7924C0.573318 32.1978 1.26663 31.2984 1.77016 31.3479C2.16706 31.434 2.53786 31.6105 2.85271 31.8634C3.16756 32.1163 3.41765 32.4384 3.58283 32.8038C3.90044 33.7185 3.69129 34.8124 3.69129 35.83C3.69129 44.723 3.69129 53.616 3.69129 62.509C3.69129 67.4942 6.5149 70.3183 11.6083 70.3221C31.8811 70.345 52.1513 70.345 72.4189 70.3221C77.5123 70.3221 80.3166 67.4942 80.3437 62.5128C80.3437 61.3085 80.1578 60.0545 80.4328 58.9112C80.5955 58.2366 81.467 57.318 82.0673 57.2799C82.6677 57.2418 83.8335 58.1641 83.8529 58.6939C83.9458 61.156 84.0814 63.7019 83.543 66.0726C82.4468 70.8824 78.1669 73.9505 72.9999 73.9734C62.6117 74.0191 52.2158 73.9962 41.8238 73.9962Z" fill="#F8E4AE"/>
<path d="M14.4436 25.4443C13.1073 25.4977 11.8097 24.301 11.8911 23.0547C11.9763 21.6635 12.8091 20.8289 14.2151 20.6917C14.5396 20.6804 14.863 20.7336 15.1662 20.8481C15.4693 20.9625 15.746 21.1359 15.9795 21.3579C16.213 21.5799 16.3988 21.8459 16.5255 22.14C16.6523 22.4342 16.7175 22.7504 16.7173 23.0699C16.6321 24.4496 15.7915 25.2423 14.4436 25.4443Z" fill="#F8E4AE"/>
<path d="M48.6331 34.2712C49.826 34.2892 50.987 34.653 51.9708 35.317C52.9546 35.9811 53.7176 36.9158 54.1643 38.0043C54.6109 39.0929 54.7215 40.2869 54.482 41.4369C54.2426 42.5869 53.6637 43.6419 52.818 44.4699C51.9723 45.2979 50.8972 45.8621 49.7273 46.0919C48.5574 46.3217 47.3446 46.207 46.2406 45.762C45.1366 45.317 44.1904 44.5615 43.5206 43.5901C42.8507 42.6187 42.487 41.4745 42.4746 40.3006C42.4726 39.5057 42.6306 38.7182 42.9398 37.9838C43.2489 37.2493 43.703 36.5825 44.2757 36.0218C44.8484 35.4611 45.5283 35.0177 46.2762 34.7172C47.0242 34.4167 47.8253 34.2651 48.6331 34.2712ZM48.4239 42.6179C49.0577 42.5897 49.6583 42.3314 50.1097 41.8928C50.5611 41.4543 50.8313 40.8666 50.868 40.2435C50.8373 39.606 50.5597 39.0043 50.0922 38.562C49.6247 38.1197 49.0028 37.8703 48.3543 37.8652C47.0412 37.9186 45.887 39.1534 46.0613 40.4226C46.2395 41.8061 47.1341 42.5074 48.4162 42.6179H48.4239Z" fill="#F8E4AE"/>
</g>
<defs>
<clipPath id="clip0_3384:4608">
<rect width="84" height="74" fill="white"/>
</clipPath>
</defs>
</svg>
