<svg width="68" height="68" viewBox="0 0 68 68" fill="none" xmlns="http://www.w3.org/2000/svg">
<g clip-path="url(#clip0_3385:4616)">
<path d="M24.5555 53.8285C21.0202 57.4704 17.6918 60.913 14.3425 64.3369C13.6302 65.0626 12.9389 66.1472 11.7238 65.1583C10.9382 64.5123 11.1791 63.7919 12.5251 62.4096C15.8378 59.0122 19.1452 55.6069 22.3112 52.3505L15.9635 45.8775C13.8449 47.9908 11.5116 50.3142 9.19404 52.6296C8.85361 52.9725 8.54203 53.4537 8.13089 53.5839C7.66214 53.7302 6.86867 53.7541 6.62775 53.4696C6.32136 53.1108 6.303 52.3638 6.40251 51.8321C6.4706 51.4626 6.92624 51.1569 7.24311 50.8459C9.59996 48.4986 11.9699 46.1539 14.4787 43.6684C12.6665 42.5599 13.0148 41.1031 13.2478 39.6357C13.5097 37.9317 13.6407 36.2038 13.9418 34.5078C14.0832 33.6917 13.8266 33.1999 13.2845 32.647C10.3018 29.6617 7.34788 26.6471 4.38086 23.6352C3.04008 22.2715 3.04528 21.8728 4.41226 20.4798C6.81624 18.0341 9.22287 15.5911 11.6321 13.1508C15.8927 8.84165 20.9286 7.48325 26.7605 8.97457C27.3245 9.05623 27.8978 8.91336 28.3605 8.57582C36.7404 2.47496 46.0709 -0.462492 56.3651 0.0452487C59.1357 0.178165 61.8775 0.842747 64.6351 1.24415C65.6511 1.39036 66.0858 1.96988 66.311 2.96675C69.3068 16.2584 66.8662 28.4309 59.1567 39.54C58.9047 39.8539 58.7336 40.2264 58.6586 40.6241C58.5836 41.0217 58.6072 41.4321 58.7272 41.8182C60.013 46.986 59.0231 51.7125 55.4983 55.676C52.7853 58.7305 49.8183 61.5563 46.9377 64.4485C46.0055 65.3869 45.4581 65.3205 44.3897 64.2412C41.3598 61.1788 38.3273 58.127 35.3315 55.0221C35.1137 54.7549 34.8267 54.5548 34.5028 54.4444C34.1788 54.334 33.831 54.3178 33.4984 54.3974C31.6967 54.7137 29.8715 54.8972 28.0593 55.1736C26.7631 55.389 25.5113 55.5325 24.5555 53.8285ZM65.1142 13.3183C64.7712 10.5589 64.4124 7.79693 64.093 5.03227C63.9804 4.054 63.4828 3.63931 62.5427 3.47183C58.6146 2.76206 54.6865 2.35799 50.6982 2.86042C33.9174 4.98708 22.2301 13.9164 15.7278 29.7999C15.3717 30.6692 15.5 31.2062 16.1625 31.8734C22.8193 38.5777 29.4481 45.3121 36.0491 52.0767C36.8006 52.8476 37.3873 52.8742 38.3169 52.5339C54.1235 46.4942 64.9336 30.6054 65.1142 13.3183ZM13.3447 28.6834C15.8429 22.0521 19.8461 16.1122 25.0295 11.3458C20.9155 10.6493 17.4562 11.4574 14.5546 14.0839C12.2501 16.1733 10.1499 18.4914 7.91876 20.6685C7.45786 21.1178 6.82677 21.389 6.43396 21.6415L13.3447 28.6834ZM45.555 61.426C48.3571 58.7517 51.3162 56.0668 54.0842 53.2118C54.9327 52.3425 55.4224 51.0479 55.8859 49.8703C56.7055 47.7888 56.7919 45.6169 56.3284 43.1314C51.6396 48.4115 45.7835 52.4867 39.2413 55.0221L45.555 61.426ZM31.7518 51.9544L16.3405 36.3075C16.1415 37.7456 15.8901 39.3008 15.7408 40.8665C15.7094 41.1749 16.0027 41.5869 16.2646 41.8448C19.6113 45.2687 22.9703 48.6785 26.3414 52.074C26.5693 52.3053 26.9255 52.6057 27.19 52.5738C28.7769 52.401 30.3481 52.1485 31.7596 51.9491L31.7518 51.9544Z" fill="#F8E4AE"/>
<path d="M2.08442 67.9999C0.937418 68.0424 0.251339 67.0296 0.670334 66.1656C0.839084 65.8569 1.05571 65.5777 1.31191 65.3389C4.47707 62.1099 7.65005 58.8871 10.8309 55.6706C11.7265 54.7641 12.7897 54.6365 13.1197 55.4632C13.3239 55.9789 13.2113 56.9386 12.8578 57.3241C9.58965 60.7613 6.23768 64.1161 2.90667 67.4789C2.65637 67.6885 2.37992 67.8637 2.08442 67.9999Z" fill="#F8E4AE"/>
<path d="M5.26882 56.5161C4.78436 56.8404 4.32875 57.3694 3.81286 57.4385C3.00368 57.5501 2.40135 56.9334 2.61609 56.1306C2.74179 55.6521 3.40172 55.046 3.87571 55.0141C4.3497 54.9822 4.81056 55.6149 5.28193 55.9578L5.26882 56.5161Z" fill="#F8E4AE"/>
<path d="M36.5363 23.994C35.5727 23.1168 34.7163 22.4256 33.9647 21.6334C33.0351 20.6499 33.2996 19.5599 34.5828 19.2037C40.1694 17.6513 45.7621 16.1307 51.3609 14.642C52.6703 14.2991 53.4376 15.1152 53.0945 16.447C51.6263 22.1235 50.1275 27.7972 48.5982 33.4683C48.2499 34.7549 47.1631 34.9942 46.1889 34.0345C45.4033 33.2743 44.7356 32.4103 43.9395 31.5065L35.1406 40.4544C33.805 41.8101 33.0456 42.0494 32.4459 41.2519C31.5162 40.0211 32.5585 39.3273 33.2787 38.5936C36.2291 35.5808 39.1874 32.5742 42.1535 29.5739C43.6331 28.0692 44.0023 28.0533 45.4374 29.5526C45.7647 29.8955 45.9611 30.3714 46.223 30.7861L46.6708 30.5016C47.7759 26.3334 48.8783 22.1651 50.0489 17.7416L37.5131 21.1443L37.2513 21.5617C37.8195 22.0162 38.4218 22.4336 38.9456 22.936C39.6709 23.6272 39.7102 24.3981 38.9874 25.1371C37.081 27.0866 35.1694 29.028 33.2525 30.9615C32.6606 31.5596 31.9693 31.8201 31.2963 31.1662C30.6233 30.5122 30.7725 29.728 31.4167 29.0768C33.0377 27.4552 34.6902 25.8256 36.5363 23.994Z" fill="#F8E4AE"/>
<path d="M27.4859 36.1532C27.1455 35.6455 26.5222 35.1191 26.551 34.63C26.5746 34.1914 27.2581 33.5454 27.7478 33.4338C27.9194 33.3894 28.0994 33.3906 28.2704 33.4373C28.4414 33.484 28.5977 33.5746 28.7242 33.7004C28.8508 33.8262 28.9433 33.9829 28.9929 34.1555C29.0425 34.3281 29.0475 34.5107 29.0074 34.6858C28.9288 35.2042 28.392 35.6508 28.0594 36.1293L27.4859 36.1532Z" fill="#F8E4AE"/>
</g>
<defs>
<clipPath id="clip0_3385:4616">
<rect width="67" height="68" fill="white" transform="translate(0.549805)"/>
</clipPath>
</defs>
</svg>
