<svg width="74" height="79" viewBox="0 0 74 79" fill="none" xmlns="http://www.w3.org/2000/svg">
<g clip-path="url(#clip0_3385:4623)">
<path d="M32.8001 49.7083V47.6876C32.8001 41.3808 32.8153 35.0739 32.8001 28.764C32.8001 25.6565 30.8632 23.7246 27.7631 23.7154C21.0816 23.6971 14.4021 23.6971 7.72468 23.7154C4.50879 23.7154 2.63286 25.583 2.54759 28.8007C2.52932 29.511 2.65417 30.258 2.47145 30.9224C2.35878 31.3327 1.78932 31.8868 1.42997 31.8837C1.18623 31.831 0.960001 31.7164 0.772871 31.5508C0.58574 31.3852 0.443956 31.1741 0.36105 30.9377C-0.406377 24.8911 2.79735 21.3366 8.07494 21.3917C15.2467 21.4682 22.4215 21.4101 29.7486 21.4101C29.7486 17.6229 29.7121 13.8204 29.77 10.0148C29.7573 8.85005 29.9143 7.68966 30.2359 6.57056C30.7801 4.91685 31.824 3.47502 33.222 2.44603C34.62 1.41704 36.3025 0.852151 38.035 0.830093C43.2456 0.774984 48.4562 0.830095 53.6699 0.808664C54.4982 0.808664 55.2595 0.915816 55.2656 1.96288C55.2717 3.00994 54.4555 3.10485 53.6577 3.10485C48.8521 3.10485 44.0435 3.10485 39.2379 3.10485C34.3806 3.10485 31.9809 5.55412 31.9748 10.4312C31.9748 14.1051 31.9443 17.7576 32.0052 21.4193C32.0265 22.0483 32.2731 22.6484 32.6996 23.1092C33.4787 23.8394 34.0928 24.7292 34.5005 25.7185C34.9082 26.7077 35.0999 27.7734 35.0628 28.8436C35.0384 32.5175 35.1237 36.17 35.0232 39.8286C34.9867 41.1359 35.5135 41.7206 36.6524 41.9104C37.3995 42.0319 38.1552 42.0923 38.912 42.0911C43.0111 42.0911 47.1102 42.0911 51.2092 42.0911C52.9907 42.0911 53.213 42.3329 53.2313 44.1178C53.2313 45.1741 53.2313 46.2334 53.2313 47.7121C55.0402 46.3222 56.6543 45.2323 58.0856 43.9372C59.6935 42.483 61.4354 41.8492 63.5976 42.0666C68.3453 42.5381 71.0892 39.1121 71.01 34.7371C70.8669 26.6515 70.9734 18.5628 70.9674 10.4741C70.9674 5.48982 68.5798 3.10485 63.6068 3.08954C62.7998 3.08954 61.9684 3.16302 61.1918 2.99157C60.8294 2.90891 60.2782 2.29353 60.3361 1.98431C60.3909 1.56181 60.9056 0.879076 61.2497 0.86683C63.6098 0.787229 66.0217 0.471889 68.254 1.59243C71.3785 3.1569 73.1631 5.68576 73.1874 9.20965C73.2514 18.1127 73.2392 27.0128 73.1874 35.9159C73.1631 40.5603 69.5665 44.4485 64.965 44.326C62.0841 44.2495 59.9463 45.1894 57.8968 46.9865C56.4137 48.2877 54.8027 49.4358 53.1978 50.5992C52.7989 50.8839 52.0436 51.1564 51.7452 50.9666C51.3432 50.7156 51.0538 50.0145 51.0234 49.4909C50.9351 47.8775 50.993 46.2548 50.993 44.2862H35.1358V49.7022H39.643C41.4123 49.7022 43.1847 49.6716 44.954 49.7022C48.3039 49.7818 50.4205 51.9341 50.4631 55.2896C50.4844 56.9704 50.5453 58.6573 50.4174 60.3228C50.3808 60.8157 49.8266 61.5781 49.4003 61.6638C48.5384 61.8352 48.2247 61.1311 48.2308 60.2983C48.2491 58.6696 48.2582 57.0439 48.2308 55.4151C48.1882 53.1771 47.0675 52.0473 44.8262 52.0473C40.1201 52.029 35.414 52.029 30.7079 52.0473C28.5762 52.0473 27.4251 53.1985 27.4098 55.36C27.3774 60.0891 27.3774 64.8203 27.4098 69.5535C27.4251 71.6752 28.628 72.811 30.7597 72.8324C32.8915 72.8539 35.1115 72.8324 37.2859 72.8324C39.512 72.8324 39.5607 72.8784 39.8287 75.2052C40.1707 75.0283 40.4977 74.8235 40.8063 74.5929C42.1249 73.4203 43.4953 72.6212 45.4139 72.7559C46.9548 72.8753 48.0725 71.5496 48.2156 69.9148C48.2795 69.2075 48.1212 68.4605 48.3009 67.7931C48.4105 67.3736 48.9465 66.8073 49.315 66.7919C49.6835 66.7766 50.3535 67.3277 50.4053 67.7104C51.0143 72.1467 49.0257 75.0582 44.8383 75.1776C44.1544 75.243 43.4999 75.4891 42.9411 75.891C41.8052 76.6533 40.7911 77.5932 39.6552 78.3402C39.2166 78.6464 38.437 78.8883 38.0776 78.6862C37.7183 78.4841 37.5143 77.7157 37.4107 77.1554C37.3072 76.5951 37.3864 75.9583 37.3864 75.1317C35.4221 75.1317 33.5675 75.0307 31.722 75.1501C27.5529 75.4225 24.8974 72.9365 25.1228 68.6105C25.3177 64.8631 25.1623 61.0974 25.1623 56.952C23.3504 58.3512 21.8125 59.6186 20.1771 60.7606C19.6198 61.1494 18.8493 61.2321 18.1733 61.4525C17.9753 60.8157 17.6708 60.185 17.6068 59.5329C17.5094 58.5348 17.5825 57.5184 17.5825 56.2907C15.4508 56.2907 13.4591 56.3152 11.4552 56.2907C9.58843 56.2601 7.69122 56.3611 5.86401 56.0611C2.58417 55.5222 0.348889 52.7454 0.306254 49.3991C0.257529 45.6854 0.306231 41.9717 0.281868 38.258C0.281868 37.4099 0.412824 36.6476 1.42997 36.6568C2.44712 36.6659 2.53844 37.4834 2.53539 38.3008C2.53539 41.7114 2.53539 45.119 2.53539 48.5265C2.55062 52.1698 4.32608 53.9363 7.96222 53.9455C11.1507 53.9455 14.3361 53.9455 17.5246 53.9455C19.6868 53.9455 19.8056 54.0772 19.8147 56.3121C19.8147 56.7959 19.8147 57.2827 19.8147 58.2746C21.983 56.0886 24.6599 55.2681 25.8019 52.5525C26.6211 50.6053 28.3934 49.7971 30.4643 49.6838C31.1769 49.6807 31.8804 49.7083 32.8001 49.7083Z" fill="#F8E4AE"/>
<path d="M56.1273 18.8204C58.0002 18.8204 59.666 18.8021 61.3288 18.8204C63.3753 18.848 64.5629 19.9563 64.5934 22.0045C64.6462 25.511 64.6462 29.0155 64.5934 32.518C64.566 34.4988 63.4057 35.6408 61.4536 35.6622C57.8175 35.6959 54.1783 35.6622 50.5392 35.6622C50.3884 35.6781 50.2361 35.6688 50.0885 35.6346C46.8878 34.4345 43.5988 35.4754 40.3616 35.2366C38.6623 35.1111 38.3608 34.8999 38.3578 33.1456C38.3456 29.1308 38.3456 25.1171 38.3578 21.1044C38.3578 19.3103 38.5922 19.0562 40.3585 19.0868C42.3684 19.1205 44.3753 19.246 46.3853 19.2827C46.7091 19.2439 47.0062 19.0831 47.2166 18.8327C49.1748 16.6069 51.4802 14.6169 51.5197 11.2216C51.5197 10.5633 52.5856 9.66934 53.347 9.33869C54.3793 8.8917 55.3112 9.52545 55.8472 10.5174C56.9507 12.5471 57.2228 14.9297 56.6055 17.158C56.4836 17.6448 56.3283 18.1224 56.1273 18.8204ZM54.1174 12.287C53.2038 14.0137 52.406 15.9609 51.2335 17.6876C49.927 19.5981 47.707 21.0554 46.97 23.1189C46.233 25.1824 46.9243 27.7511 46.7447 30.0748C46.6168 31.7495 47.4055 32.5241 48.7545 32.9803C49.4168 33.2285 50.1133 33.3721 50.8193 33.4058C54.2088 33.4517 57.5983 33.4058 60.9878 33.4426C61.9775 33.4426 62.3155 33.066 62.3033 32.0832C62.2627 28.8808 62.2627 25.6763 62.3033 22.4698C62.3033 21.4901 61.9988 21.086 60.9999 21.1074C59.331 21.1411 57.65 21.0921 55.9903 21.0829C52.8018 21.0646 52.683 20.8962 53.9316 17.8958C54.7569 15.9027 55.025 13.9403 54.1174 12.287ZM40.7971 21.3768V32.7966H44.354V21.3768H40.7971Z" fill="#F8E4AE"/>
<path d="M22.0193 35.5214C23.0852 35.5214 23.8861 35.5214 24.6871 35.5214C25.488 35.5214 26.4443 35.5214 26.4077 36.6879C26.3742 37.7135 25.5489 37.787 24.7419 37.7778C23.737 37.7778 22.732 37.7778 21.6265 37.7778L21.1636 40.5516C22.4762 40.5516 23.6456 40.426 24.7662 40.6006C25.3753 40.6955 26.2615 41.2404 26.3529 41.715C26.5386 42.6733 25.6585 42.8967 24.8302 42.8967H20.7951C20.5576 44.2163 20.4388 45.4838 20.0642 46.6656C19.9028 47.186 19.2146 47.5412 18.7669 47.9698C18.4776 47.4126 17.9599 46.8584 17.9508 46.2951C17.9325 45.245 18.2096 44.1918 18.3832 43.0131H15.7002C15.5084 44.1887 15.3257 45.3828 15.1095 46.5676C14.9633 47.3605 14.6923 48.1382 13.6751 47.9392C12.658 47.7402 12.7036 46.9197 12.8346 46.1237C12.999 45.1256 13.1757 44.1275 13.3889 42.8937C12.3139 42.8937 11.2967 43.0345 10.3435 42.8386C9.80754 42.7284 9.37815 42.0732 8.90308 41.6629C9.36901 41.2925 9.81664 40.6832 10.313 40.6036C11.3941 40.4414 12.5179 40.5546 13.7299 40.5546C13.8883 39.6209 14.0345 38.7912 14.2019 37.7778C13.0082 37.7778 11.9575 37.7778 10.9069 37.7778C10.0389 37.7778 8.96395 37.888 8.94263 36.6909C8.91827 35.3561 10.0755 35.5336 10.9708 35.5244C12.128 35.5244 13.2883 35.5244 14.5491 35.5244C14.7775 34.2416 15.0029 33.0538 15.1917 31.8505C15.3196 31.03 15.5571 30.2708 16.5682 30.4239C17.5792 30.5769 17.6127 31.3423 17.4544 32.1781C17.2625 33.216 17.1499 34.2661 16.9671 35.4204H19.6227C19.8328 34.2508 20.0582 33.0752 20.2561 31.8903C20.3871 31.0974 20.5606 30.2891 21.5869 30.4177C22.7655 30.5677 22.5827 31.5015 22.4822 32.3098C22.3635 33.317 22.199 34.3029 22.0193 35.5214ZM19.2207 37.9094C16.3276 37.5849 16.2637 37.64 16.2606 40.4505H18.8217C18.9588 39.5872 19.0836 38.7942 19.2207 37.9094Z" fill="#F8E4AE"/>
<path d="M44.3539 62.3562C44.3357 63.6788 43.2515 65.2923 41.5553 66.4618C37.4684 69.2876 38.1871 69.2662 34.1185 66.4893C32.3705 65.2953 31.259 63.6359 31.2894 61.3949C31.3351 58.1435 34.1672 56.279 37.176 57.5036C37.6137 57.649 38.0877 57.6393 38.5191 57.476C41.4852 56.3035 44.36 58.2751 44.3539 62.3562ZM42.0669 61.0152C41.8446 60.7336 41.4852 59.8733 40.8762 59.6253C40.3737 59.4232 39.3718 59.7416 38.9576 60.1794C38.0196 61.1683 37.4349 60.9754 36.6096 60.0753C36.3887 59.8591 36.1217 59.6963 35.8288 59.5992C35.536 59.5021 35.225 59.4733 34.9195 59.5151C34.417 59.6559 33.8719 60.3202 33.7013 60.8683C33.1653 62.6348 36.0462 66.1587 37.8643 66.0883C39.3413 66.0301 42.073 63.0604 42.0669 61.0152Z" fill="#F8E4AE"/>
</g>
<defs>
<clipPath id="clip0_3385:4623">
<rect width="73" height="78" fill="white" transform="translate(0.242188 0.784668)"/>
</clipPath>
</defs>
</svg>
