<svg width="112" height="69" viewBox="0 0 112 69" fill="none" xmlns="http://www.w3.org/2000/svg">
<g clip-path="url(#clip0_3385:4629)">
<path d="M83.3016 50.6352C82.3955 54.7724 79.7029 56.5553 75.688 56.5252C74.2138 61.4916 71.9636 63.0125 66.9775 62.484C63.8644 68.8166 61.6835 69.272 53.9225 65.2164C48.286 70.432 44.4835 69.809 41.8257 63.18C38.201 63.1457 36.1892 61.1222 35.374 57.6895C31.823 57.5735 29.6639 55.825 28.9311 52.4439C22.8351 50.7254 21.6037 48.7878 23.0779 42.9063C20.7062 41.4241 18.2738 39.899 15.8328 38.391C15.603 38.2493 15.2301 38.0559 15.048 38.1462C12.1691 39.5123 9.91444 37.5275 7.45173 36.7585C5.94223 36.2715 4.46268 35.6977 3.02059 35.04C1.06949 34.1808 0.323752 32.5998 1.08251 30.6579C4.72167 21.3867 8.39692 12.1399 12.1083 2.91745C12.9018 0.949799 14.5363 0.275302 16.5265 1.00136C19.4401 2.06251 22.3407 3.14944 25.198 4.40393C25.9828 4.74762 27.0494 5.60257 27.0884 6.27707C27.2619 9.31447 29.7203 9.43046 31.654 9.78705C34.043 10.2167 36.5491 9.98897 38.9901 10.2167C41.7823 10.4787 44.5529 10.9814 47.3451 11.2606C48.0172 11.3294 48.9927 11.1704 49.3959 10.7279C52.1795 7.66044 55.5571 6.98593 59.4592 7.89243C60.7903 8.20175 62.2212 8.1588 63.4959 8.59701C64.1159 8.80752 64.4715 9.76127 64.9484 10.3799C64.3067 10.8095 63.6476 11.6688 63.0189 11.6387C61.1545 11.5571 59.2989 10.874 57.4562 10.9341C55.8433 10.9857 53.9224 11.3079 52.7171 12.223C47.6009 16.1841 42.7449 20.4459 37.7024 24.523C36.4363 25.5498 36.6878 26.2028 37.8281 26.9804C38.7103 27.6257 39.7562 28.0149 40.849 28.1045C41.9418 28.194 43.0382 27.9803 44.0153 27.4873C46.4486 26.273 48.7699 24.8498 50.9525 23.2341C53.5323 21.361 54.9154 21.2665 57.2003 23.4188C61.7616 27.715 67.0815 29.687 73.4247 28.8793C74.2919 28.7676 75.3845 29.2574 76.1389 29.7901C80.362 32.7974 84.52 35.8735 88.7691 38.9796L95.728 34.5417C92.6496 26.8085 89.5929 19.1227 86.4841 11.3165C85.0923 11.8191 83.8523 12.1757 82.6773 12.7085C78.7188 14.4269 74.7255 13.688 70.767 12.8202C70.186 12.6913 69.8044 11.6731 69.3275 11.063C69.9691 10.6334 70.5545 10.0405 71.2612 9.77416C71.7381 9.60661 72.4016 9.84719 72.9522 10.0019C76.8544 11.0845 80.5398 10.3756 84.0821 8.68294C84.598 8.43805 84.8755 7.71199 85.2701 7.21364C86.0679 6.21263 86.6705 4.81207 87.7154 4.29652C90.3516 2.98619 93.1698 2.03673 95.9534 1.01853C98.0779 0.240923 99.6605 0.885355 100.528 2.95612C101.941 6.32003 103.324 9.70971 104.517 13.1553C104.746 13.8169 104.035 14.7964 103.754 15.6256C103.029 15.1959 101.937 14.9511 101.651 14.3367C100.415 11.6731 99.4264 8.90203 98.3338 6.17395C98.0476 5.45649 97.7138 4.75622 97.3496 3.93565L88.4699 7.39837L99.6172 35.4396L108.566 31.9468C107.287 28.716 106.09 25.6615 104.868 22.6155C104.434 21.4942 103.975 20.2869 105.475 19.7069C106.975 19.1269 107.478 20.317 107.92 21.4254C109.073 24.3597 110.27 27.2768 111.389 30.2154C112.321 32.6556 111.653 34.1378 109.177 35.1603C106.775 36.1441 104.408 37.244 101.919 37.9528C100.593 38.3309 99.0578 37.9743 97.6183 37.9528C97.1848 37.9528 96.6254 37.8497 96.2785 38.0516C94.722 38.9581 93.1915 39.9162 91.726 40.9602C91.5284 41.1286 91.3702 41.3377 91.2624 41.5729C91.1545 41.8081 91.0997 42.0637 91.1017 42.3221C91.6133 48.0274 89.3457 50.5278 83.3016 50.6352ZM25.4148 40.5649C27.4006 38.3352 28.9442 35.7016 32.3131 35.6887C35.179 35.6887 37.0347 37.2826 38.4872 41.1019C41.9818 41.321 44.219 43.0954 44.9084 46.6311C48.5808 46.7729 50.7271 48.6503 51.4945 52.1646C54.187 52.2462 56.2638 53.2902 57.4388 55.7562C58.6138 58.2222 57.6946 60.4519 56.1381 62.6043C57.183 63.2917 58.0198 63.9963 58.978 64.4388C60.5779 65.1778 62.013 64.7052 62.9235 63.2531C63.834 61.801 63.7127 60.3875 62.2255 59.2748C61.5361 58.755 60.8554 58.2265 60.1704 57.6938C59.3032 57.0064 58.3406 56.2417 59.2642 55.0473C60.2397 53.7843 61.2716 54.4631 62.2515 55.2063C63.8557 56.4264 65.4253 57.6981 67.1119 58.8022C67.4653 59.0559 67.867 59.2354 68.2928 59.3297C68.7186 59.424 69.1595 59.4312 69.5882 59.3507C70.0169 59.2703 70.4244 59.1039 70.7859 58.8618C71.1474 58.6198 71.4552 58.3071 71.6904 57.943C72.6573 56.4565 72.3191 54.8927 70.7279 53.6468C69.5399 52.7102 68.3259 51.808 67.1205 50.8929C66.1927 50.1884 65.4123 49.3549 66.3445 48.2164C67.2767 47.0779 68.2436 47.6708 69.1714 48.3797C71.0532 49.8275 72.9132 51.314 74.8859 52.6372C75.2244 52.8805 75.6084 53.0544 76.0155 53.1488C76.4226 53.2432 76.8446 53.2562 77.2569 53.187C77.6691 53.1177 78.0633 52.9677 78.4163 52.7457C78.7693 52.5237 79.0741 52.2341 79.3127 51.894C80.323 50.4762 80.0455 48.7406 78.554 47.5419C77.0625 46.3433 75.4756 45.3723 74.1532 44.0706C73.6069 43.5336 73.6502 42.408 73.4247 41.553C74.3179 41.553 75.4366 41.2394 76.0696 41.6475C78.2375 43.0567 80.2232 44.7451 82.3131 46.2745C84.3335 47.7524 86.302 47.6407 87.464 46.0554C88.626 44.4701 88.1143 42.5669 86.1199 41.0933C82.5299 38.4383 78.9702 35.7446 75.2805 33.2141C74.2936 32.5645 73.1309 32.2274 71.9463 32.2475C66.3284 32.5315 60.8085 30.7094 56.485 27.1436C55.6568 26.482 54.8633 25.7731 54.2346 25.2404C51.4294 26.9589 48.9017 28.759 46.1615 30.1381C43.1264 31.6546 39.9093 31.8566 36.7918 30.1767C32.4994 27.8826 32.3738 24.3124 36.328 21.5199C39.4671 19.3031 42.4631 16.8886 45.8667 14.3109C39.0162 12.455 32.235 14.6074 26.1172 11.3036L16.6696 35.0529L25.4148 40.5649ZM12.9755 35.461C16.7346 26.0094 20.3983 16.8113 24.1358 7.41986L15.1824 3.90987C11.445 13.3099 7.75961 22.5639 4.02651 31.9468L12.9755 35.461ZM28.5062 48.8651C28.723 48.7964 29.2693 48.7964 29.5121 48.5257C31.3201 46.5108 33.1975 44.5303 34.7454 42.3221C35.1009 41.8151 34.5242 40.0451 33.8782 39.6241C33.1238 39.1386 31.3981 39.0527 30.8171 39.5768C29.0167 41.2196 27.4161 43.0652 26.0478 45.0759C24.9162 46.7085 26.3427 48.8565 28.5236 48.8866L28.5062 48.8651ZM41.8083 46.8631C41.1927 46.1371 40.6984 45.0286 39.9396 44.8052C39.4444 44.6823 38.9282 44.6675 38.4266 44.7617C37.9251 44.8559 37.4501 45.0569 37.0347 45.3509C35.5279 46.7871 34.1457 48.3464 32.9027 50.0122C31.9228 51.228 31.9098 52.5899 33.1021 53.664C34.4028 54.8368 35.7686 54.6435 36.9132 53.4062C38.2747 51.9326 39.5798 50.3989 40.8415 48.8437C41.2447 48.3668 41.4181 47.7224 41.8257 46.8631H41.8083ZM48.1169 65.3926C48.3814 65.3109 49.0187 65.3109 49.3049 64.9973C51.0392 63.1113 52.8646 61.2553 54.2954 59.1459C54.7073 58.5401 54.2433 56.667 53.5929 56.2245C52.8342 55.7047 51.0219 55.6531 50.3845 56.2245C48.6219 57.8008 47.0597 59.584 45.7322 61.5346C44.6266 63.1543 45.9274 65.3152 48.1343 65.3926H48.1169ZM38.5565 57.5778C39.1549 58.2609 39.6622 59.3478 40.4166 59.5583C40.9087 59.6761 41.4207 59.6872 41.9176 59.5908C42.4145 59.4944 42.8845 59.2928 43.2955 58.9998C44.7998 57.5656 46.1805 56.0092 47.4231 54.3471C48.3987 53.1312 48.4247 51.7694 47.202 50.7039C45.9793 49.6385 44.5183 49.7459 43.3736 50.9875C42.0165 52.4568 40.7114 53.9948 39.4714 55.5457C39.0899 56.0183 38.9554 56.6842 38.5565 57.5778Z" fill="#F8E4AE"/>
</g>
<defs>
<clipPath id="clip0_3385:4629">
<rect width="111" height="68" fill="white" transform="translate(0.791992 0.696289)"/>
</clipPath>
</defs>
</svg>
