<svg width="44" height="44" viewBox="0 0 44 44" fill="none" xmlns="http://www.w3.org/2000/svg">
<path d="M37.125 0H6.875C3.07804 0 0 3.07804 0 6.875V37.125C0 40.922 3.07804 44 6.875 44H37.125C40.922 44 44 40.922 44 37.125V6.875C44 3.07804 40.922 0 37.125 0Z" fill="#F00073"/>
<path d="M21.9999 12.65C25.0249 12.65 25.4374 12.65 26.6749 12.65C27.7749 12.65 28.3249 12.925 28.7374 13.0625C29.2874 13.3375 29.6999 13.475 30.1124 13.8875C30.5249 14.3 30.7999 14.7125 30.9374 15.2625C31.0749 15.675 31.2124 16.225 31.3499 17.325C31.3499 18.5625 31.3499 18.8375 31.3499 22C31.3499 25.1625 31.3499 25.4375 31.3499 26.675C31.3499 27.775 31.0749 28.325 30.9374 28.7375C30.6624 29.2875 30.5249 29.7 30.1124 30.1125C29.6999 30.525 29.2874 30.8 28.7374 30.9375C28.3249 31.075 27.7749 31.2125 26.6749 31.35C25.4374 31.35 25.1624 31.35 21.9999 31.35C18.8374 31.35 18.5624 31.35 17.3249 31.35C16.2249 31.35 15.6749 31.075 15.2624 30.9375C14.7124 30.6625 14.2999 30.525 13.8874 30.1125C13.4749 29.7 13.1999 29.2875 13.0624 28.7375C12.9249 28.325 12.7874 27.775 12.6499 26.675C12.6499 25.4375 12.6499 25.1625 12.6499 22C12.6499 18.8375 12.6499 18.5625 12.6499 17.325C12.6499 16.225 12.9249 15.675 13.0624 15.2625C13.3374 14.7125 13.4749 14.3 13.8874 13.8875C14.2999 13.475 14.7124 13.2 15.2624 13.0625C15.6749 12.925 16.2249 12.7875 17.3249 12.65C18.5624 12.65 18.9749 12.65 21.9999 12.65ZM21.9999 10.5875C18.8374 10.5875 18.5624 10.5875 17.3249 10.5875C16.0874 10.5875 15.2624 10.8625 14.5749 11.1375C13.8874 11.4125 13.1999 11.825 12.5124 12.5125C11.8249 13.2 11.5499 13.75 11.1374 14.575C10.8624 15.2625 10.7249 16.0875 10.5874 17.325C10.5874 18.5625 10.5874 18.975 10.5874 22C10.5874 25.1625 10.5874 25.4375 10.5874 26.675C10.5874 27.9125 10.8624 28.7375 11.1374 29.425C11.4124 30.1125 11.8249 30.8 12.5124 31.4875C13.1999 32.175 13.7499 32.45 14.5749 32.8625C15.2624 33.1375 16.0874 33.275 17.3249 33.4125C18.5624 33.4125 18.9749 33.4125 21.9999 33.4125C25.0249 33.4125 25.4374 33.4125 26.6749 33.4125C27.9124 33.4125 28.7374 33.1375 29.4249 32.8625C30.1124 32.5875 30.7999 32.175 31.4874 31.4875C32.1749 30.8 32.4499 30.25 32.8624 29.425C33.1374 28.7375 33.2749 27.9125 33.4124 26.675C33.4124 25.4375 33.4124 25.025 33.4124 22C33.4124 18.975 33.4124 18.5625 33.4124 17.325C33.4124 16.0875 33.1374 15.2625 32.8624 14.575C32.5874 13.8875 32.1749 13.2 31.4874 12.5125C30.7999 11.825 30.2499 11.55 29.4249 11.1375C28.7374 10.8625 27.9124 10.725 26.6749 10.5875C25.4374 10.5875 25.1624 10.5875 21.9999 10.5875Z" fill="white"/>
<path d="M21.9999 16.0875C18.6999 16.0875 16.0874 18.7 16.0874 22C16.0874 25.3 18.6999 27.9125 21.9999 27.9125C25.2999 27.9125 27.9124 25.3 27.9124 22C27.9124 18.7 25.2999 16.0875 21.9999 16.0875ZM21.9999 25.85C19.9374 25.85 18.1499 24.2 18.1499 22C18.1499 19.9375 19.7999 18.15 21.9999 18.15C24.0624 18.15 25.8499 19.8 25.8499 22C25.8499 24.0625 24.0624 25.85 21.9999 25.85Z" fill="white"/>
<path d="M28.0499 17.325C28.8093 17.325 29.4249 16.7094 29.4249 15.95C29.4249 15.1906 28.8093 14.575 28.0499 14.575C27.2905 14.575 26.6749 15.1906 26.6749 15.95C26.6749 16.7094 27.2905 17.325 28.0499 17.325Z" fill="white"/>
</svg>
