<svg width="395" height="379" viewBox="0 0 395 379" fill="none" xmlns="http://www.w3.org/2000/svg">
<path d="M57.333 78.707C33.8471 137.028 69.6708 173.071 181.351 222.202C185.419 223.986 189.247 225.673 192.834 227.263C197.02 229.116 200.875 230.847 204.441 232.462C207.839 233.965 211.138 235.494 214.363 237.039C222.851 241.038 229.103 244.26 233.601 247.033C284.296 275.529 308.874 307.725 319.845 326.696C326.435 319.189 332.024 309.838 336.613 298.441C362.981 232.965 304.502 201.524 207.284 157.803C153.739 133.748 144.646 130.5 148.534 120.844" fill="#7527B2"/>
<path d="M238.97 250.179C238.304 249.774 237.583 249.348 236.84 248.923L236.833 248.941C248.461 255.658 249.814 259.58 247.517 265.283C244.003 274.009 234.826 274.215 182.46 253.127C126.346 230.53 118.578 218.424 123.171 207.018L34.7401 171.407C6.62082 241.234 54.4133 279.588 152.014 318.891C233.561 351.731 289.574 360.937 321.013 325.293C310.499 307.394 287.057 277.116 238.97 250.179Z" fill="#7527B2"/>
<path d="M148.537 120.837C152.425 111.181 162.242 112.631 205.912 130.217C249.583 147.803 271.697 160.039 266.368 173.273L359.444 210.754C385.24 146.725 339.617 100.912 241.883 61.5548C144.15 22.1975 79.5201 23.6111 57.3317 78.7102" fill="#7527B2"/>
</svg>
