<svg width="134" height="29" viewBox="0 0 134 29" fill="none" xmlns="http://www.w3.org/2000/svg">
<path d="M3.38835 1.10169H119.592C123.158 1.10169 126.494 2.20456 128.936 4.46475C131.375 6.72238 132.942 10.152 132.942 14.8448C132.942 19.5376 131.375 22.9671 128.936 25.2246C126.494 27.4847 123.158 28.5874 119.592 28.5874H3.38835C2.79746 28.5874 2.31849 28.1085 2.31849 27.5181V2.17104C2.31849 1.58058 2.79746 1.10169 3.38835 1.10169Z" stroke="url(#paint0_linear_2365_25)" stroke-width="0.388923"/>
<g clip-path="url(#clip0_2365_25)">
<g filter="url(#filter0_ii_2365_25)">
<path d="M21.1939 0.907227H2.22136C1.52315 0.907227 0.957031 1.47311 0.957031 2.17104V27.5181C0.957031 28.216 1.52315 28.7819 2.22136 28.7819H21.1939C28.4044 28.7819 34.7383 24.3221 34.7383 14.8448C34.7383 5.36752 28.4044 0.907227 21.1939 0.907227Z" fill="url(#paint1_linear_2365_25)"/>
</g>
</g>
<g clip-path="url(#clip1_2365_25)">
<path d="M7.94629 12.0276C7.94629 15.4119 10.4445 16.4912 16.9688 16.6988C17.2064 16.7061 17.4301 16.7133 17.6399 16.7206C17.8846 16.7289 18.1105 16.7379 18.3198 16.7468C18.5185 16.7535 18.7127 16.7635 18.9037 16.7758C19.4049 16.8048 19.7795 16.84 20.0581 16.888C23.1435 17.2915 25.0068 18.4049 25.9303 19.1315C26.1074 18.6242 26.1979 18.0449 26.1979 17.3836C26.1979 13.5841 22.6673 13.1901 16.9688 12.9618C13.8307 12.8374 13.3145 12.858 13.3145 12.2977" fill="white"/>
<path d="M20.3875 16.9371C20.3464 16.9303 20.3021 16.9235 20.2568 16.9172V16.9183C20.9681 17.0199 21.1136 17.1885 21.1136 17.5194C21.1136 18.0258 20.6622 18.2206 17.642 18.2206C14.4056 18.2206 13.7781 17.7723 13.7781 17.1105H8.67773C8.67773 21.1624 11.8161 22.1165 17.4453 22.1165C22.1486 22.1165 25.1125 21.4499 25.9603 19.038C25.0808 18.3557 23.3123 17.3152 20.3875 16.9371Z" fill="url(#paint2_linear_2365_25)"/>
<path d="M13.3145 12.2974C13.3145 11.7371 13.8307 11.6121 16.3494 11.6121C18.8682 11.6121 20.2102 11.7784 20.2102 12.5463H25.5785C25.579 8.83056 22.3992 7.46045 16.7624 7.46045C11.1255 7.46045 7.94629 8.83056 7.94629 12.0279" fill="white"/>
<path d="M16.3848 7.4624C11.0498 7.4624 8.41621 8.97873 8.06543 11.0135C8.06543 11.0135 8.06543 11.0146 8.06543 11.0152H8.06876C8.99399 11.7123 11.0371 12.4406 14.1114 12.8335C14.1547 12.8407 14.2013 12.8474 14.249 12.8541V12.853C13.5003 12.7475 13.3482 12.5756 13.3493 12.2385H13.3482C13.3299 12.2006 13.0912 11.6062 16.1694 11.6146C19.5762 11.6241 20.19 11.9294 20.2106 12.5483L25.6005 12.5834C25.6116 8.45915 22.3108 7.4624 16.3848 7.4624Z" fill="url(#paint3_linear_2365_25)"/>
</g>
<g clip-path="url(#clip2_2365_25)">
<path d="M51.8996 9.9872C51.8996 12.7574 50.0269 14.0608 47.8951 14.0608H41.9121V5.91357H47.8951C50.0269 5.91357 51.8996 7.21701 51.8996 9.9872ZM49.7796 9.9872C49.7796 8.00858 48.6962 7.67099 47.0944 7.67099H44.0321V12.3034H47.0944C48.6962 12.3034 49.7796 11.9658 49.7796 9.9872V9.9872Z" fill="#7527B2"/>
<path d="M59.4259 12.3266H54.4909L53.6076 14.0608H51.2754L55.5275 5.91357H58.3894L62.6529 14.0608H60.309L59.4256 12.3266H59.4259ZM58.6369 10.7669L56.9646 7.46137L55.2802 10.7669H58.6369Z" fill="#7527B2"/>
<path d="M73.7828 5.91357V14.0608H70.8972L65.2792 7.95039V14.0608H63.1592V5.91357H66.0331L71.6628 12.0356V5.91357H73.7828V5.91357Z" fill="#7527B2"/>
<path d="M79.6716 5.79688C82.9577 5.79688 84.6066 7.03054 84.8184 9.38148H82.6629C82.4628 8.06616 81.4379 7.55429 79.6713 7.55429C77.5158 7.55429 76.609 8.31082 76.609 9.97501C76.609 11.6392 77.5278 12.4192 79.6713 12.4192C81.4262 12.4192 82.4625 11.8954 82.6629 10.5685H84.8184C84.6063 12.9314 82.9574 14.1766 79.6716 14.1766C76.0441 14.1766 74.4893 12.6867 74.4893 9.97501C74.4893 7.26332 76.0438 5.79688 79.6716 5.79688Z" fill="#7527B2"/>
<path d="M87.704 7.57807V9.23067H94.2997V10.7437H87.704V12.3963H94.2997V14.0608H85.584V5.91357H94.2997V7.57807H87.704Z" fill="#7527B2"/>
<path d="M102.91 11.6398L104.429 14.0608H101.932L100.601 11.8845H97.1855V14.0608H95.0654V5.91357H101.543C103.416 5.91357 104.7 7.08904 104.7 8.90466C104.7 10.2316 104.016 11.209 102.91 11.6398V11.6398ZM97.1855 10.1267H100.954C101.59 10.1267 102.58 10.1267 102.58 8.90466C102.58 7.68257 101.59 7.67099 100.954 7.67099H97.1855V10.1267Z" fill="#7527B2"/>
<path d="M107.279 11.2556C107.279 12.1169 107.986 12.5124 110.671 12.5124C112.897 12.5124 113.568 12.2681 113.568 11.6279C113.568 10.9527 113.097 10.8367 110.424 10.7084C106.832 10.5454 105.406 9.9869 105.406 8.15939C105.406 6.33189 107.256 5.79688 110.341 5.79688C113.427 5.79688 115.335 6.56498 115.335 8.57865H113.215C113.215 7.68257 112.309 7.46137 110.106 7.46137C108.021 7.46137 107.526 7.65911 107.526 8.26452C107.526 8.86993 108.021 9.00947 110.424 9.14902C113.674 9.3236 115.688 9.49818 115.688 11.5582C115.688 13.7345 113.604 14.1769 110.553 14.1769C107.173 14.1769 105.159 13.6065 105.159 11.2556H107.279V11.2556Z" fill="#7527B2"/>
<path d="M43.914 21.1548C43.914 22.0162 44.6207 22.4117 47.3059 22.4117C49.532 22.4117 50.2032 22.1673 50.2032 21.5272C50.2032 20.852 49.7321 20.7359 47.0586 20.6076C43.4663 20.4446 42.0412 19.8861 42.0412 18.0586C42.0412 16.2311 43.8902 15.6958 46.9763 15.6958C50.0623 15.6958 51.9702 16.4639 51.9702 18.4776H49.8501C49.8501 17.5815 48.9434 17.3603 46.7407 17.3603C44.6561 17.3603 44.1613 17.558 44.1613 18.1634C44.1613 18.7689 44.6558 18.9084 47.0586 19.0479C50.3092 19.2225 52.3232 19.3971 52.3232 21.4571C52.3232 23.6334 50.2386 24.0758 47.1881 24.0758C43.8079 24.0762 41.7939 23.5058 41.7939 21.1548H43.914Z" fill="#7527B2"/>
<path d="M62.724 18.8041C62.724 20.6197 61.4402 21.7836 59.5677 21.7836H55.2099V23.9599H53.0898V15.813H59.5677C61.4405 15.813 62.724 16.9885 62.724 18.8041ZM60.604 18.8041C60.604 17.5704 59.6146 17.5704 58.9788 17.5704H55.2099V20.0262H58.9788C59.6149 20.0262 60.604 20.0262 60.604 18.8041Z" fill="#7527B2"/>
<path d="M69.7199 22.226H64.7849L63.9015 23.9602H61.5693L65.8211 15.813H68.683L72.9465 23.9602H70.6026L69.7193 22.226H69.7199ZM68.9309 20.6663L67.2585 17.3608L65.5742 20.6663H68.9309V20.6663Z" fill="#7527B2"/>
<path d="M77.5749 15.6961C80.861 15.6961 82.5099 16.9298 82.7217 19.2807H80.5662C80.3661 17.9654 79.3413 17.4535 77.5746 17.4535C75.4191 17.4535 74.5123 18.2101 74.5123 19.8742C74.5123 21.5384 75.4311 22.3184 77.5746 22.3184C79.3296 22.3184 80.3658 21.7947 80.5662 20.4678H82.7217C82.5096 22.8306 80.8607 24.0758 77.5749 24.0758C73.9475 24.0758 72.3926 22.5859 72.3926 19.8742C72.3926 17.1626 73.9471 15.6958 77.5749 15.6958V15.6961Z" fill="#7527B2"/>
<path d="M85.6083 17.4775V19.1301H92.204V20.6432H85.6083V22.2958H92.204V23.9602H83.4883V15.813H92.204V17.4775H85.6083Z" fill="#7527B2"/>
</g>
<defs>
<filter id="filter0_ii_2365_25" x="0.957031" y="-0.648467" width="33.7812" height="30.9861" filterUnits="userSpaceOnUse" color-interpolation-filters="sRGB">
<feFlood flood-opacity="0" result="BackgroundImageFix"/>
<feBlend mode="normal" in="SourceGraphic" in2="BackgroundImageFix" result="shape"/>
<feColorMatrix in="SourceAlpha" type="matrix" values="0 0 0 0 0 0 0 0 0 0 0 0 0 0 0 0 0 0 127 0" result="hardAlpha"/>
<feOffset dy="1.55569"/>
<feGaussianBlur stdDeviation="0.972308"/>
<feComposite in2="hardAlpha" operator="arithmetic" k2="-1" k3="1"/>
<feColorMatrix type="matrix" values="0 0 0 0 1 0 0 0 0 1 0 0 0 0 1 0 0 0 0.4 0"/>
<feBlend mode="normal" in2="shape" result="effect1_innerShadow_2365_25"/>
<feColorMatrix in="SourceAlpha" type="matrix" values="0 0 0 0 0 0 0 0 0 0 0 0 0 0 0 0 0 0 127 0" result="hardAlpha"/>
<feOffset dy="-1.55569"/>
<feGaussianBlur stdDeviation="0.777847"/>
<feComposite in2="hardAlpha" operator="arithmetic" k2="-1" k3="1"/>
<feColorMatrix type="matrix" values="0 0 0 0 0 0 0 0 0 0 0 0 0 0 0 0 0 0 0.25 0"/>
<feBlend mode="normal" in2="effect1_innerShadow_2365_25" result="effect2_innerShadow_2365_25"/>
</filter>
<linearGradient id="paint0_linear_2365_25" x1="121.822" y1="28.7819" x2="88.643" y2="-10.9243" gradientUnits="userSpaceOnUse">
<stop stop-color="#7527B2"/>
<stop offset="1" stop-color="#7527B2" stop-opacity="0.04"/>
</linearGradient>
<linearGradient id="paint1_linear_2365_25" x1="17.8477" y1="0.907227" x2="17.8477" y2="28.7819" gradientUnits="userSpaceOnUse">
<stop stop-color="#B044DC"/>
<stop offset="1" stop-color="#6722CB"/>
</linearGradient>
<linearGradient id="paint2_linear_2365_25" x1="23.0821" y1="17.5303" x2="20.1098" y2="24.4658" gradientUnits="userSpaceOnUse">
<stop stop-color="#BABABA"/>
<stop offset="0.113027" stop-color="#DBDBDB"/>
<stop offset="1" stop-color="white"/>
</linearGradient>
<linearGradient id="paint3_linear_2365_25" x1="11.2213" y1="12.5212" x2="12.4285" y2="7.10705" gradientUnits="userSpaceOnUse">
<stop stop-color="#BABABA"/>
<stop offset="0.135417" stop-color="#D8D8D8"/>
<stop offset="0.53125" stop-color="white"/>
</linearGradient>
<clipPath id="clip0_2365_25">
<rect width="33.7813" height="27.8742" fill="white" transform="translate(0.957031 0.907227)"/>
</clipPath>
<clipPath id="clip1_2365_25">
<rect width="18.4597" height="14.9524" fill="white" transform="translate(7.73828 7.46045)"/>
</clipPath>
<clipPath id="clip2_2365_25">
<rect width="73.8954" height="18.2794" fill="white" transform="translate(41.7939 5.79688)"/>
</clipPath>
</defs>
</svg>
