<svg width="47" height="47" viewBox="0 0 47 47" fill="none" xmlns="http://www.w3.org/2000/svg">
<path d="M13.5371 0.94104H1.27332C0.850031 0.94104 0.506836 1.28423 0.506836 1.70753V13.9713C0.506836 14.3946 0.850031 14.7378 1.27332 14.7378H13.5371C13.9604 14.7378 14.3036 14.3946 14.3036 13.9713V1.70753C14.3036 1.28414 13.9604 0.94104 13.5371 0.94104ZM12.7706 13.2047H2.03981V2.47392H12.7706V13.2047Z" fill="#4F4F4F"/>
<path d="M45.4004 5.69315L38.502 1.09422C38.2462 0.925787 37.9147 0.925787 37.6589 1.09422L30.7605 5.69315C30.509 5.8612 30.3799 6.16147 30.4309 6.45964L31.9639 14.1245C32.0379 14.4872 32.3604 14.7452 32.7304 14.7377H43.4305C43.8006 14.7452 44.1231 14.4872 44.197 14.1245L45.73 6.45964C45.781 6.16157 45.6519 5.8613 45.4004 5.69315ZM42.802 13.2047H33.3282L32.0175 6.65892L38.0651 2.6272L44.1127 6.65892L42.802 13.2047Z" fill="#4F4F4F"/>
<path d="M15.7292 45.7806L8.83086 33.5168C8.62218 33.1485 8.15443 33.0191 7.78613 33.2278C7.66541 33.2962 7.56558 33.396 7.49717 33.5168L0.598779 45.7806C0.461865 46.0177 0.461865 46.3099 0.598779 46.547C0.737609 46.7875 0.995628 46.9341 1.27329 46.9303H15.0701C15.3423 46.9287 15.5932 46.7827 15.7292 46.547C15.8662 46.3098 15.8662 46.0177 15.7292 45.7806ZM2.58398 45.3973L8.17168 35.433L13.7594 45.3973H2.58398Z" fill="#4F4F4F"/>
<path d="M38.8309 31.6007C34.5977 31.6007 31.166 35.0324 31.166 39.2656C31.166 43.4988 34.5977 46.9305 38.8309 46.9305C43.0641 46.9305 46.4958 43.4988 46.4958 39.2656C46.4958 35.0324 43.0641 31.6007 38.8309 31.6007ZM38.8309 45.3975C35.4444 45.3975 32.699 42.6521 32.699 39.2656C32.699 35.8791 35.4444 33.1337 38.8309 33.1337C42.2174 33.1337 44.9628 35.8791 44.9628 39.2656C44.9628 42.6521 42.2174 45.3975 38.8309 45.3975Z" fill="#4F4F4F"/>
<path d="M28.8668 7.07304H18.4502L20.2131 5.31778L19.1247 4.22937L16.0588 7.29532C15.7582 7.59339 15.7562 8.07877 16.0544 8.37933C16.0558 8.38086 16.0573 8.3823 16.0588 8.38373L19.1247 11.4497L20.2131 10.3613L18.4502 8.60602H28.8668V7.07304Z" fill="#4F4F4F"/>
<path d="M28.8667 39.2654H18.4502L20.2131 37.5102L19.1247 36.4218L16.0587 39.4877C15.7582 39.7858 15.7563 40.2712 16.0543 40.5717C16.0558 40.5731 16.0573 40.5747 16.0587 40.5761L19.1247 43.6421L20.2131 42.5537L18.4502 40.7984H28.8667V39.2654Z" fill="#4F4F4F"/>
<path d="M39.3751 17.2596C39.077 16.959 38.5916 16.957 38.2911 17.2552C38.2895 17.2566 38.2881 17.2581 38.2867 17.2596L35.2207 20.3255L36.3091 21.4139L38.0644 19.651V30.0676H39.5973V19.651L41.3526 21.4139L42.441 20.3255L39.3751 17.2596Z" fill="#4F4F4F"/>
<path d="M7.18366 17.2596C6.88559 16.959 6.40021 16.957 6.09966 17.2552C6.09812 17.2566 6.09669 17.2581 6.09525 17.2596L3.0293 20.3255L4.11771 21.4139L5.87297 19.651V30.0676H7.40594V19.651L9.1612 21.4139L10.2496 20.3255L7.18366 17.2596Z" fill="#4F4F4F"/>
</svg>
