<svg width="170" height="32" viewBox="0 0 170 32" fill="none" xmlns="http://www.w3.org/2000/svg">
<g clip-path="url(#clip0_5180_18058)">
<path d="M163.407 17.4064C163.853 16.8317 163.904 16.1868 164.116 15.61C164.56 14.3945 164.958 13.1583 165.346 11.9283C165.767 10.6073 166.23 9.29259 166.628 7.96336C166.864 7.17369 166.851 7.17162 167.659 7.17162C168.15 7.17162 168.641 7.18815 169.133 7.17162C169.491 7.15508 169.554 7.28945 169.453 7.59746C168.666 9.78665 167.872 11.9738 167.095 14.1671C166.508 15.8312 165.958 17.5056 165.36 19.1656C165.15 19.73 164.925 20.286 164.752 20.8649C164.725 20.9972 164.661 21.1196 164.567 21.2184C164.002 21.6794 163.333 21.3217 162.716 21.4251C162.436 21.4726 162.308 21.2618 162.232 21.0447C161.773 19.7217 161.324 18.3925 160.863 17.0695C160.493 16.0048 160.108 14.9444 159.733 13.8797C159.497 13.2038 159.268 12.5257 159.032 11.8497C159 11.7608 159.017 11.6285 158.874 11.6161C158.731 11.6037 158.663 11.734 158.634 11.8456C158.223 13.0177 157.821 14.1898 157.411 15.3599C156.941 16.6932 156.465 18.0224 156 19.3579C155.827 19.854 155.663 20.3543 155.514 20.8587C155.398 21.2473 155.2 21.4788 154.735 21.4354C154.404 21.3951 154.07 21.3951 153.739 21.4354C153.246 21.5036 153.042 21.2287 152.909 20.8525C151.751 17.5752 150.597 14.298 149.446 11.0208C149.025 9.8466 148.604 8.67242 148.183 7.5065C148.111 7.29978 148.139 7.17988 148.393 7.18195C149.111 7.18195 149.831 7.18195 150.549 7.18195C150.817 7.18195 150.909 7.33079 150.97 7.54578C151.602 9.50964 152.234 11.4728 152.865 13.4353C153.261 14.6446 153.676 15.8498 154.084 17.055C154.112 17.1397 154.084 17.2865 154.244 17.2617C154.366 17.2452 154.406 17.1377 154.44 17.0405C154.789 16.0069 155.14 14.9733 155.493 13.9397C155.884 12.7738 156.295 11.6141 156.684 10.4482C156.983 9.55306 157.335 8.67036 157.566 7.76078C157.678 7.32046 157.876 7.09513 158.354 7.17575C158.424 7.18196 158.494 7.18196 158.564 7.17575C160.038 7.17575 159.99 7.18609 160.43 8.55252C161.141 10.7686 161.903 12.9681 162.651 15.1676C162.916 15.8808 163.146 16.6105 163.407 17.4064Z" fill="white"/>
<path d="M139.349 21.4954C135.105 21.5946 131.888 18.223 131.881 14.2601C131.879 13.2889 132.074 12.3269 132.454 11.4303C132.834 10.5337 133.392 9.7204 134.096 9.03788C134.8 8.35535 135.635 7.81725 136.553 7.45495C137.47 7.09265 138.452 6.91341 139.442 6.92769C143.743 6.94629 146.922 10.2352 146.913 14.227C146.918 15.1964 146.725 16.1568 146.344 17.0512C145.964 17.9457 145.404 18.7559 144.698 19.4339C143.993 20.1118 143.156 20.6437 142.237 20.9978C141.318 21.3519 140.336 21.5211 139.349 21.4954ZM134.597 14.1816C134.597 14.5061 134.582 14.8327 134.597 15.1593C134.636 15.427 134.711 15.6884 134.82 15.9366C135.197 17.0632 135.989 18.0108 137.041 18.5936C138.092 19.1765 139.328 19.3525 140.505 19.0871C142.77 18.5785 144.014 16.6643 144.229 14.841C144.349 13.7945 144.146 12.7367 143.648 11.8043C143.157 10.8348 142.339 10.0618 141.334 9.61642C140.329 9.17102 139.197 9.08055 138.132 9.36032C137.067 9.6401 136.133 10.2729 135.488 11.1516C134.843 12.0302 134.528 13.1007 134.595 14.1816H134.597Z" fill="white"/>
<path d="M107.289 14.2312C107.289 12.0503 107.289 9.86934 107.289 7.68636C107.289 7.30186 107.367 7.15716 107.803 7.1613C111.031 7.17921 114.259 7.17921 117.487 7.1613C117.921 7.1613 118.026 7.29567 117.997 7.68431C117.964 8.09712 117.964 8.51182 117.997 8.92464C118.028 9.31948 117.91 9.4497 117.481 9.44557C115.15 9.4249 112.82 9.43523 110.489 9.44557C109.796 9.44557 109.796 9.44557 109.794 10.1216C109.794 10.9981 109.819 11.8746 109.794 12.749C109.777 13.1624 109.929 13.2699 110.329 13.2678C112.38 13.2534 114.43 13.2679 116.481 13.2513C116.98 13.2513 117.138 13.4208 117.112 13.8715C117.091 14.2495 117.091 14.6284 117.112 15.0064C117.133 15.4198 116.936 15.579 116.514 15.5769C114.5 15.5769 112.485 15.5769 110.468 15.5604C109.939 15.5604 109.784 15.701 109.798 16.2302C109.838 17.7248 109.788 19.2194 109.826 20.714C109.826 21.208 109.67 21.3341 109.209 21.2887C108.754 21.2535 108.297 21.2535 107.843 21.2887C107.421 21.3197 107.31 21.1915 107.314 20.7822C107.289 18.5951 107.289 16.4142 107.289 14.2312Z" fill="white"/>
<path d="M6.83028 8.02953C7.01402 9.17037 7.5889 10.2155 8.45982 10.9919C9.42196 11.9056 10.3546 12.8523 11.3147 13.7661C11.6789 14.1051 11.6789 14.3387 11.3147 14.6777C10.2894 15.6514 9.30828 16.6664 8.28087 17.6359C6.92924 18.9155 6.5587 20.5073 6.91871 22.2168C7.24293 23.7652 8.26192 24.9042 9.77776 25.4892C11.8052 26.2769 13.6158 25.8779 15.1653 24.3688C15.5506 23.9947 15.9401 23.6267 16.3254 23.2546C16.3633 23.2029 16.4119 23.1598 16.4681 23.128C16.5243 23.0962 16.5867 23.0765 16.6512 23.0703C16.7158 23.064 16.7809 23.0713 16.8423 23.0917C16.9038 23.1121 16.9601 23.1451 17.0075 23.1884C17.3764 23.476 17.7846 23.7112 18.2202 23.8872C18.4665 23.9698 18.4749 24.1476 18.296 24.3233C16.8538 25.758 15.519 27.3312 13.3568 27.8004C10.7167 28.371 7.75453 27.5937 5.98815 25.2019C5.10677 24.0422 4.62583 22.6364 4.61547 21.1894C4.5902 19.1594 5.36707 17.4684 6.80502 16.0462C7.28293 15.5749 7.75242 15.0953 8.25771 14.655C8.63035 14.3325 8.59035 14.1216 8.24507 13.7971C7.55873 13.1562 6.84502 12.5319 6.36921 11.703C5.77972 10.6694 5.65761 9.65023 6.25974 8.60215C6.37139 8.34865 6.57462 8.14468 6.83028 8.02953Z" fill="#FDB604"/>
<path d="M21.6898 23.8892C19.2645 23.9368 17.4791 22.9362 15.9717 21.3776C15.6159 21.0117 15.2306 20.6726 14.9001 20.2861C14.6011 19.9388 14.3822 20.0028 14.1043 20.3005C13.5467 20.941 12.9183 21.5186 12.2305 22.0225C11.0136 22.8494 9.63042 22.8846 8.51248 22.1362C8.37564 22.0432 8.21774 21.9522 8.25142 21.8013C8.28511 21.6504 8.48933 21.7124 8.61775 21.6835C9.5219 21.486 10.3479 21.0342 10.9947 20.3832C12.0263 19.3662 13.0663 18.3573 14.0811 17.3237C14.3906 17.0095 14.5906 17.0033 14.9233 17.3237C16.0917 18.4876 17.2012 19.7196 18.5023 20.7471C19.1084 21.2345 19.8259 21.5702 20.5933 21.7255C21.3606 21.8808 22.1548 21.8509 22.9078 21.6385C23.6608 21.426 24.3501 21.0374 24.9164 20.5059C25.4828 19.9743 25.9093 19.3158 26.1595 18.5868C26.8058 16.7904 26.3953 15.1056 25.0415 13.6916C24.6205 13.2575 24.1826 12.8461 23.7531 12.4244C23.5425 12.2177 23.473 12.011 23.7173 11.7381C23.9693 11.4242 24.1813 11.0812 24.3489 10.7169C24.5026 10.411 24.6436 10.2828 24.9278 10.5825C25.8416 11.5438 26.9448 12.3521 27.6016 13.518C28.3764 14.8927 28.7575 16.3418 28.4943 17.9625C28.0248 20.8442 26.3342 22.653 23.6183 23.6267C23.0019 23.8484 22.3444 23.9379 21.6898 23.8892Z" fill="white"/>
<path d="M17.3696 2.56173C16.1169 2.64235 14.9485 2.99584 14.0179 3.92609C13.5968 4.35193 13.1484 4.75298 12.7273 5.18296C12.481 5.43309 12.2873 5.48478 11.9736 5.24292C11.6119 4.98726 11.2254 4.76707 10.8199 4.58553C10.5736 4.46356 10.4809 4.36435 10.7104 4.14109C11.6178 3.26459 12.4284 2.28058 13.5084 1.58806C14.4685 0.962919 15.578 0.594541 16.7275 0.519316C19.8013 0.312594 22.0814 1.51985 23.593 4.12661C24.0341 4.90724 24.297 5.77274 24.3635 6.66309C24.5951 9.16029 23.6456 11.151 21.8119 12.8089C21.4055 13.1769 21.035 13.5841 20.6308 13.9521C20.4202 14.1588 20.4034 14.2808 20.6308 14.4854C21.0371 14.8555 21.4203 15.2503 21.8034 15.6431C22.6814 16.5423 23.2498 17.5553 23.1067 18.8617C23.0257 19.3526 22.8297 19.8183 22.534 20.222C22.4814 20.3026 22.4414 20.4287 22.3066 20.3956C22.1719 20.3625 22.1698 20.2509 22.1466 20.1517C22.0544 19.7333 21.9131 19.3268 21.7256 18.9403C21.2055 17.9067 20.2834 17.2369 19.4981 16.441C18.8833 15.8167 18.2517 15.2076 17.6033 14.6136C17.298 14.3366 17.3064 14.1423 17.6033 13.8632C18.6328 12.8833 19.6413 11.8849 20.656 10.8926C22.9614 8.63728 22.7782 5.36901 20.1971 3.45063C19.3928 2.85114 18.4181 2.60721 17.3696 2.56173Z" fill="#FDB604"/>
<path d="M0.499463 11.7691C0.448935 8.3272 2.46586 5.68323 5.44491 4.83567C8.15028 4.06667 10.5925 4.70957 12.6262 6.66929C13.1568 7.1799 13.6957 7.68016 14.1968 8.21557C14.4431 8.4781 14.601 8.43469 14.8284 8.21557C15.4095 7.65742 15.9442 7.04759 16.6053 6.56179C17.9506 5.5902 19.4454 5.51165 20.5865 6.35507C20.6792 6.42329 20.8244 6.4667 20.7971 6.61554C20.7971 6.66102 20.6981 6.71064 20.6392 6.7189C19.2517 6.92563 18.2833 7.77112 17.3675 8.72618C16.5906 9.53653 15.7442 10.2849 14.9737 11.1014C14.6053 11.49 14.3842 11.4012 14.0579 11.0745C13.0515 10.0637 12.0094 9.08794 11.003 8.07707C10.4486 7.51399 9.76191 7.09308 9.00324 6.85122C8.24456 6.60937 7.43704 6.55396 6.65148 6.68986C5.86592 6.82576 5.12631 7.14882 4.4975 7.63071C3.86869 8.1126 3.36988 8.73861 3.04482 9.45384C2.21532 11.1924 2.50165 13.1355 3.95644 14.6777C4.37751 15.1283 4.82383 15.5707 5.2828 15.9904C5.52491 16.2136 5.59018 16.3666 5.35859 16.6602C5.08884 17.0345 4.85218 17.4308 4.6512 17.8447C4.52909 18.0721 4.4154 18.1217 4.23013 17.9315C2.9185 16.6395 1.43845 15.4818 0.848951 13.6358C0.647982 13.0317 0.530437 12.4039 0.499463 11.7691Z" fill="white"/>
<path d="M120.432 14.2415C120.432 12.0606 120.445 9.87968 120.432 7.69877C120.432 7.25845 120.567 7.13236 120.997 7.16337C121.469 7.20058 121.943 7.20058 122.416 7.16337C122.872 7.12409 122.961 7.306 122.959 7.71738C122.944 11.2317 122.959 14.7252 122.959 18.2292C122.959 19.0127 122.959 19.0127 123.738 19.0127C125.824 19.0127 127.908 19.023 129.993 19.0127C130.397 19.0127 130.563 19.1036 130.53 19.5253C130.5 19.9879 130.5 20.4519 130.53 20.9145C130.544 21.2143 130.429 21.2887 130.138 21.2887C127.054 21.2887 123.969 21.2763 120.885 21.2887C120.464 21.2887 120.449 21.1047 120.449 20.7905C120.437 18.6054 120.432 16.4245 120.432 14.2415Z" fill="white"/>
<path d="M63.5376 14.2394C63.5819 11.3267 64.8219 9.08587 67.4767 7.68843C68.8157 6.98557 70.2474 6.86155 71.7674 7.03519C72.73 7.12784 73.6601 7.42714 74.4918 7.9119C75.3235 8.39667 76.0365 9.05505 76.5802 9.84041C79.1277 13.3547 78.1782 18.6902 73.9191 20.8318C72.5383 21.516 70.9635 21.7249 69.4473 21.4251C66.7567 20.9269 64.8935 19.3847 63.9503 16.809C63.6574 15.9836 63.5176 15.1133 63.5376 14.2394ZM70.7653 20.4969C71.844 20.5572 72.9146 20.2816 73.8243 19.7093C75.5613 18.6757 76.4939 17.1336 76.7529 15.1614C77.0036 13.5533 76.631 11.9113 75.7086 10.5598C74.5823 8.90602 73.018 8.04606 70.9885 7.95511C69.42 7.88482 68.001 8.27138 66.8409 9.30086C65.0072 10.9298 64.3798 12.9888 64.7503 15.3743C65.1819 18.1217 67.5294 20.5941 70.7653 20.4969Z" fill="white"/>
<path d="M61.3566 21.1708C60.4008 21.4106 59.8239 21.2473 59.306 20.5341C58.1102 18.8804 56.8112 17.3134 55.5606 15.7072C55.4925 15.6102 55.3997 15.5325 55.2915 15.4817C55.1832 15.4309 55.0633 15.4089 54.9437 15.4178C53.6637 15.4302 52.3857 15.4343 51.1057 15.4178C50.7351 15.4178 50.632 15.5335 50.6362 15.8891C50.653 17.5429 50.6362 19.1966 50.6551 20.8359C50.6551 21.2804 50.4446 21.2907 50.1204 21.2825C49.7962 21.2742 49.573 21.3073 49.5751 20.8483C49.5947 16.4383 49.5947 12.0227 49.5751 7.60161C49.5751 7.26466 49.6698 7.16337 50.0172 7.16543C52.0847 7.18404 54.1563 7.11169 56.2196 7.20471C57.8617 7.27913 59.3776 7.82487 60.2492 9.31947C61.3019 11.1242 60.8408 13.7929 58.2765 14.7997C57.8763 14.9685 57.4602 15.0987 57.0343 15.1883C56.6133 15.2648 56.6448 15.364 56.8743 15.6514C58.247 17.3754 59.6113 19.116 60.9692 20.8442C61.0576 20.9476 61.0808 21.1026 61.3566 21.1708ZM50.6551 11.3123C50.6551 12.1867 50.6783 13.0632 50.6446 13.9376C50.6278 14.3511 50.7793 14.4668 51.1794 14.4606C52.6847 14.4441 54.19 14.4606 55.6974 14.4606C56.4333 14.4691 57.1623 14.321 57.8344 14.0265C58.5464 13.7299 59.1167 13.1783 59.4296 12.4837C59.7424 11.7892 59.7742 11.0037 59.5186 10.2869C59.0428 8.88949 57.6344 8.28793 56.3185 8.21971C54.5732 8.13289 52.8194 8.19904 51.0678 8.18457C50.7541 8.18457 50.6467 8.26726 50.6467 8.59801C50.6551 9.49105 50.6551 10.4027 50.6551 11.3123Z" fill="white"/>
<path d="M86.2943 21.4892C84.2042 21.5264 82.173 20.8084 80.5867 19.4716C80.2162 19.1698 80.4878 19.0147 80.6415 18.8163C80.7951 18.6178 80.9657 18.347 81.3004 18.6468C82.052 19.3145 82.8836 19.8871 83.8647 20.1538C85.5322 20.6065 87.2059 20.7987 88.7365 19.7135C89.545 19.1429 89.825 18.3325 89.7555 17.3816C89.6839 16.3852 89.0544 15.8064 88.1933 15.4198C87.2986 15.0209 86.3364 14.8369 85.3827 14.6302C84.2753 14.3904 83.1994 14.0761 82.2436 13.4415C80.4583 12.2549 80.4036 9.58202 82.0162 8.19905C83.4774 6.94425 85.2016 6.77679 87.0522 7.10548C88.144 7.32677 89.1767 7.76967 90.0839 8.40577C90.3387 8.57115 90.4776 8.76339 90.2103 8.99078C89.9997 9.17063 89.926 9.68743 89.4229 9.28846C88.7729 8.76313 88.0178 8.37777 87.2065 8.15733C86.3952 7.9369 85.5457 7.8863 84.7132 8.00885C83.2016 8.21558 81.7657 9.15204 82.0141 11.0952C82.1489 12.1454 82.9047 12.6394 83.7784 13.0198C84.7342 13.4332 85.7659 13.5945 86.7764 13.8322C87.6386 14.0315 88.4699 14.343 89.2481 14.7583C91.4903 15.9594 91.2798 19.2483 89.3723 20.5176C88.3407 21.206 87.2122 21.5264 86.2943 21.4892Z" fill="white"/>
<path d="M99.2884 21.4912C97.2487 21.5068 95.2719 20.7984 93.7219 19.4964C93.444 19.269 93.4503 19.0995 93.6924 18.8762C93.903 18.684 94.0188 18.2953 94.4188 18.6571C95.1393 19.3517 96.0185 19.867 96.9831 20.16C98.6674 20.6189 100.352 20.7801 101.897 19.6804C103.175 18.7666 103.432 16.2467 101.265 15.3971C100.103 14.9423 98.8779 14.7645 97.6863 14.4379C96.6947 14.163 95.722 13.8425 94.9662 13.1149C93.524 11.7236 93.6735 9.2471 95.2862 8.05018C96.7599 6.96283 98.4042 6.78091 100.175 7.1096C101.253 7.31868 102.27 7.75918 103.154 8.39954C103.377 8.55458 103.625 8.72204 103.335 8.97631C103.124 9.16236 103.049 9.70396 102.51 9.27604C101.866 8.75478 101.118 8.37283 100.313 8.15517C99.5089 7.93751 98.6668 7.88906 97.8421 8.01297C96.1936 8.23003 94.7704 9.28638 95.1578 11.2792C95.3409 12.2218 96.0673 12.6911 96.8757 13.0115C97.8854 13.3901 98.9284 13.6766 99.9916 13.8673C101.064 14.0404 102.071 14.4874 102.912 15.1635C104.581 16.5857 104.274 19.3827 102.301 20.6478C101.403 21.2139 100.355 21.5073 99.2884 21.4912Z" fill="white"/>
<path d="M40.9979 21.4954C37.8862 21.6215 35.2945 19.5791 34.3239 17.1542C33.0965 14.0741 33.9492 10.3531 36.6609 8.34787C38.5136 6.98557 40.5684 6.67962 42.8021 7.13234C44.158 7.40728 45.257 8.10186 46.2928 8.95149C46.5707 9.17889 46.4844 9.29052 46.2928 9.50757C45.9602 9.88587 45.7159 9.95824 45.2928 9.5696C43.7327 8.12255 41.8147 7.65536 39.7683 8.03159C37.6019 8.43056 36.0861 9.74944 35.3597 11.8001C34.4713 14.3139 34.8166 16.6746 36.6609 18.6984C37.1522 19.2364 37.7478 19.6728 38.413 19.982C39.0782 20.2911 39.7995 20.4669 40.5347 20.499C42.459 20.6354 44.0674 19.9966 45.4696 18.7584C45.9075 18.3697 46.1791 18.3966 46.4802 18.8886C46.5749 19.0395 46.537 19.147 46.3938 19.2793C45.3601 20.2323 44.219 20.9682 42.8148 21.3052C42.2171 21.4281 41.6084 21.4918 40.9979 21.4954Z" fill="white"/>
<path d="M67.5189 29.3818C67.9631 29.1896 67.9084 28.7616 68.041 28.4557C68.3231 27.8169 68.5 27.1347 68.7232 26.4712C68.7516 26.3902 68.7875 26.312 68.8305 26.2376C68.8582 26.1635 68.914 26.1028 68.9862 26.0681C69.0583 26.0334 69.1414 26.0275 69.2179 26.0515C69.4495 26.1259 69.359 26.2934 69.3105 26.434C68.9337 27.4779 68.5611 28.5218 68.1737 29.5596C68.1124 29.8081 68.0219 30.0488 67.9042 30.2769C67.8221 30.3989 67.7736 30.525 67.601 30.496C67.5315 30.4888 67.4653 30.463 67.4096 30.4215C67.354 30.3799 67.3109 30.3242 67.2852 30.2604C66.9905 29.3983 66.6978 28.5384 66.4241 27.6702C66.3696 27.4783 66.2546 27.3082 66.0957 27.1844C65.7441 28.187 65.4072 29.1503 65.062 30.1095C65.003 30.2769 64.9862 30.5105 64.7167 30.4919C64.4809 30.4774 64.4325 30.2997 64.363 30.1095C63.9167 28.8815 63.4514 27.6619 62.9987 26.4381C62.9482 26.3037 62.8535 26.1032 63.0914 26.0598C63.283 26.0246 63.483 26.0246 63.5756 26.3079C63.9103 27.3249 64.2788 28.3317 64.6451 29.3673C65.0662 29.1606 65.0199 28.7472 65.142 28.4433C65.4094 27.7797 65.5988 27.0831 65.8031 26.3947C65.8186 26.3016 65.8639 26.2157 65.9324 26.1496C66.0009 26.0834 66.089 26.0404 66.1841 26.0267C66.3947 25.9936 66.422 26.1818 66.4747 26.3223C66.6881 26.8162 66.8688 27.323 67.0157 27.8397C67.1336 28.3668 67.4031 28.834 67.5189 29.3818Z" fill="white"/>
<path d="M120.807 27.0686C120.282 27.6063 119.831 28.2088 119.464 28.8609C119.199 29.2743 119.026 29.1213 118.832 28.8609C118.432 28.3007 118.06 27.7218 117.662 27.1285C117.451 27.3043 117.527 27.5027 117.525 27.6743C117.525 28.4805 117.525 29.2888 117.525 30.095C117.525 30.2749 117.525 30.4609 117.272 30.463C117.02 30.465 116.94 30.3183 116.94 30.0929C116.94 28.8526 116.94 27.6123 116.94 26.3843C116.927 26.308 116.945 26.2296 116.99 26.1662C117.035 26.1029 117.104 26.0594 117.182 26.0453C117.284 26.0208 117.393 26.0309 117.489 26.074C117.585 26.1171 117.664 26.1907 117.712 26.283C118.116 26.8619 118.54 27.4304 118.904 28.034C119.114 28.3813 119.241 28.2779 119.403 28.034C119.783 27.4827 120.159 26.928 120.531 26.3699C120.672 26.1631 120.828 25.9564 121.112 26.0433C121.397 26.1301 121.306 26.3781 121.306 26.5745C121.306 27.6743 121.306 28.772 121.306 29.8821C121.306 29.9503 121.306 30.0206 121.306 30.0888C121.287 30.2604 121.279 30.463 121.043 30.4671C120.807 30.4712 120.803 30.2604 120.801 30.0909C120.801 29.4045 120.801 28.7182 120.801 28.0236L120.807 27.0686Z" fill="white"/>
<path d="M89.4566 28.8733C89.4566 29.2164 89.4566 29.5596 89.4566 29.9069C89.5008 31.0067 88.7113 31.4036 87.9176 31.4904C87.4807 31.5111 87.0458 31.4214 86.6544 31.2299C86.488 31.1638 86.2459 31.0769 86.3849 30.8165C86.5007 30.6097 86.7007 30.7172 86.848 30.7937C87.2573 30.9981 87.7264 31.0558 88.1744 30.957C88.3395 30.9362 88.4938 30.8652 88.6157 30.754C88.7377 30.6428 88.8211 30.497 88.8545 30.3369C88.8903 30.1942 89.0145 30.0247 88.8545 29.9234C88.6945 29.8221 88.5618 29.942 88.4334 30.0123C88.1956 30.1355 87.9295 30.1964 87.6608 30.1892C87.3921 30.1819 87.1298 30.1069 86.8992 29.9711C86.6687 29.8354 86.4776 29.6437 86.3445 29.4143C86.2114 29.185 86.1407 28.9259 86.1393 28.6619C86.1379 28.398 86.2057 28.1382 86.3364 27.9075C86.467 27.6768 86.656 27.483 86.885 27.3449C87.1141 27.2068 87.3756 27.129 87.6442 27.1189C87.9128 27.1089 88.1796 27.1671 88.4186 27.2877C88.6566 27.4014 88.8608 27.6743 89.1218 27.2216C89.2503 26.9983 89.4755 27.2402 89.4797 27.4882C89.4797 27.9513 89.4797 28.4144 89.4797 28.8795L89.4566 28.8733ZM87.7934 29.7332C88.446 29.7332 89.025 29.1978 89.006 28.6211C88.9871 28.0443 88.3744 27.542 87.7639 27.5523C87.6153 27.5508 87.468 27.579 87.331 27.6352C87.1939 27.6915 87.07 27.7746 86.9667 27.8794C86.8635 27.9843 86.7831 28.1087 86.7304 28.2451C86.6778 28.3815 86.6541 28.527 86.6607 28.6728C86.6584 28.8171 86.6865 28.9603 86.7433 29.0935C86.8001 29.2266 86.8843 29.3467 86.9907 29.4464C87.0971 29.546 87.2233 29.6229 87.3615 29.6723C87.4996 29.7216 87.6467 29.7424 87.7934 29.7332Z" fill="white"/>
<path d="M138.909 29.2991C138.909 28.7141 138.909 28.1311 138.909 27.5482C138.909 27.3973 138.884 27.2257 139.094 27.172C139.246 27.1347 139.414 27.172 139.454 27.3043C139.574 27.6991 139.743 27.4428 139.898 27.3559C140.184 27.1681 140.527 27.0825 140.87 27.1133C141.213 27.1442 141.534 27.2897 141.781 27.5255C142.303 27.9906 142.459 28.8939 142.139 29.6237C141.989 29.9146 141.755 30.1553 141.466 30.3147C141.177 30.4742 140.846 30.5453 140.515 30.5188C140.272 30.4943 140.04 30.4033 139.846 30.2562C139.471 29.9648 139.498 30.2232 139.494 30.463C139.494 30.6697 139.494 30.8764 139.494 31.0831C139.494 31.2899 139.458 31.4697 139.202 31.4821C138.945 31.4945 138.903 31.3022 138.909 31.0997V29.2971V29.2991ZM139.486 28.8299C139.446 29.6278 139.987 30.0123 140.616 30.0516C141.246 30.0909 141.778 29.5306 141.774 28.8113C141.77 28.0919 141.235 27.5399 140.595 27.5585C139.955 27.5771 139.479 28.1105 139.486 28.8299Z" fill="white"/>
<path d="M92.2672 28.249C92.2304 27.833 92.3227 27.4158 92.532 27.0523C92.7413 26.6889 93.0578 26.3962 93.4399 26.2128C94.2525 25.7683 95.082 25.8469 95.8652 26.3285C96.0484 26.4422 96.32 26.5559 96.1284 26.8288C95.9663 27.0583 95.781 26.9074 95.5936 26.7895C94.6231 26.1838 93.5051 26.4381 92.9977 27.3663C92.6567 27.9864 92.8693 29.1565 93.3978 29.6402C93.8862 30.0847 94.9831 30.157 95.5831 29.7167C95.6254 29.6871 95.6655 29.6546 95.7031 29.6195C95.7281 29.5841 95.761 29.5547 95.7994 29.5336C95.8377 29.5125 95.8804 29.5003 95.9243 29.4979C95.9682 29.4955 96.012 29.503 96.0525 29.5198C96.093 29.5366 96.129 29.5622 96.1579 29.5947C96.2589 29.727 96.1831 29.8717 96.0168 30.0082C95.7513 30.223 95.4406 30.3774 95.107 30.4602C94.7735 30.543 94.4254 30.5523 94.0878 30.4872C93.7502 30.4222 93.4315 30.2845 93.1545 30.0841C92.8776 29.8837 92.6493 29.6255 92.4861 29.3281C92.3376 28.9872 92.2631 28.6197 92.2672 28.249Z" fill="white"/>
<path d="M129.018 28.1167C129.018 27.5317 129.018 26.9466 129.018 26.3637C129.018 26.157 128.904 25.8489 129.277 25.8655C129.65 25.882 129.519 26.1859 129.521 26.3885C129.534 27.0417 129.521 27.695 129.521 28.3482C129.521 28.4722 129.475 28.6335 129.658 28.6976C129.841 28.7617 129.869 28.5921 129.938 28.5198C130.321 28.1642 130.692 27.7921 131.066 27.4262C131.146 27.3389 131.237 27.2618 131.336 27.1968C131.46 27.1244 131.65 27.0975 131.728 27.1968C131.805 27.296 131.696 27.418 131.589 27.5193C131.332 27.7591 131.111 28.0381 130.852 28.2779C130.593 28.5177 130.576 28.6914 130.826 28.958C131.136 29.2874 131.418 29.6414 131.669 30.0165C131.747 30.1302 131.982 30.2997 131.784 30.4464C131.7 30.4956 131.6 30.5103 131.504 30.4875C131.409 30.4647 131.327 30.4062 131.275 30.3245C131.045 30.0351 130.812 29.7498 130.57 29.4728C130.433 29.3157 130.359 28.9953 130.077 29.1193C129.932 29.1785 129.806 29.2733 129.71 29.3947C129.613 29.516 129.551 29.6597 129.527 29.8118C129.485 30.0516 129.669 30.4795 129.247 30.4526C128.826 30.4258 129.037 30.0103 129.022 29.7663C128.999 29.2164 129.018 28.6666 129.018 28.1167Z" fill="white"/>
<path d="M112.373 29.2475V30.1736C112.379 30.234 112.363 30.2945 112.329 30.3452C112.295 30.3959 112.245 30.4337 112.186 30.4526C112.129 30.4793 112.064 30.4832 112.005 30.4635C111.946 30.4438 111.896 30.4021 111.868 30.3472C111.758 30.0991 111.672 30.2004 111.493 30.2997C110.693 30.7483 109.809 30.5291 109.504 29.8366C109.448 29.7022 109.423 29.5574 109.432 29.4126C109.44 29.2678 109.48 29.1265 109.55 28.9989C109.621 28.8713 109.719 28.7605 109.838 28.6744C109.957 28.5884 110.093 28.5292 110.238 28.5012C110.612 28.4106 111.002 28.4015 111.379 28.4743C111.512 28.5074 111.716 28.5942 111.8 28.3978C111.828 28.315 111.831 28.2263 111.811 28.1417C111.79 28.057 111.745 27.9797 111.683 27.9182C111.413 27.6164 111.051 27.5771 110.676 27.6185C110.466 27.6392 110.266 27.695 110.057 27.726C109.944 27.7425 109.805 27.7839 109.775 27.5999C109.746 27.4159 109.811 27.3663 109.973 27.3043C111.053 26.8908 112.516 27.0727 112.386 28.8361C112.386 28.9725 112.386 29.111 112.386 29.2495L112.373 29.2475ZM110.965 28.8443L110.531 28.8857C110.257 28.9126 110.034 29.0118 109.973 29.2991C109.935 29.439 109.95 29.5878 110.016 29.7175C110.081 29.8473 110.192 29.9491 110.329 30.0041C110.805 30.2645 111.192 30.0805 111.565 29.8242C111.678 29.742 111.763 29.6282 111.809 29.4976C111.856 29.367 111.861 29.2258 111.824 29.0924C111.758 28.7823 111.451 28.9332 111.257 28.8712C111.161 28.8521 111.063 28.843 110.965 28.8443Z" fill="white"/>
<path d="M125.298 29.2743C125.298 29.5658 125.315 29.8573 125.298 30.1488C125.281 30.4402 125.031 30.6263 124.877 30.3906C124.641 30.0516 124.511 30.2687 124.323 30.3575C123.586 30.7028 122.803 30.5146 122.468 29.9089C122.401 29.7754 122.365 29.6286 122.364 29.4795C122.362 29.3304 122.395 29.1829 122.46 29.0481C122.525 28.9133 122.62 28.7946 122.738 28.7009C122.856 28.6073 122.994 28.5411 123.142 28.5074C123.551 28.412 123.976 28.4042 124.388 28.4846C124.826 28.5797 124.826 28.3172 124.689 28.0423C124.492 27.6433 124.1 27.5937 123.704 27.6123C123.479 27.6123 123.256 27.6888 123.03 27.7198C122.904 27.7363 122.742 27.8169 122.713 27.5875C122.689 27.4221 122.763 27.358 122.923 27.2981C123.976 26.8846 125.422 27.0645 125.321 28.8113C125.311 28.9642 125.321 29.1193 125.321 29.2743H125.298ZM123.9 28.8464C123.765 28.8588 123.59 28.8712 123.42 28.8919C123.292 28.8918 123.168 28.9375 123.071 29.0204C122.975 29.1033 122.913 29.2178 122.896 29.3425C122.865 29.4667 122.878 29.5975 122.934 29.7131C122.989 29.8287 123.084 29.922 123.201 29.9772C123.411 30.0917 123.654 30.1363 123.892 30.1043C124.131 30.0722 124.352 29.9653 124.523 29.7994C124.626 29.7075 124.701 29.5889 124.738 29.4572C124.775 29.3255 124.774 29.1861 124.734 29.0552C124.66 28.8009 124.376 28.9291 124.191 28.8753C124.095 28.8568 123.998 28.8471 123.9 28.8464Z" fill="white"/>
<path d="M147.711 29.2474C147.711 29.5389 147.711 29.8325 147.711 30.1239C147.723 30.192 147.709 30.2618 147.673 30.3212C147.638 30.3805 147.582 30.4256 147.515 30.4485C147.484 30.4641 147.449 30.4729 147.413 30.4745C147.378 30.4761 147.342 30.4704 147.309 30.4578C147.276 30.4451 147.246 30.4258 147.221 30.401C147.196 30.3763 147.177 30.3467 147.164 30.3141C147.052 30.0475 146.972 30.217 146.835 30.2935C146.078 30.7069 145.204 30.5539 144.859 29.94C144.785 29.8055 144.745 29.6562 144.74 29.5038C144.735 29.3514 144.766 29.2 144.831 29.0614C144.895 28.9227 144.992 28.8006 145.112 28.7045C145.233 28.6084 145.374 28.5409 145.526 28.5074C145.916 28.4062 146.325 28.3956 146.72 28.4764C146.844 28.5074 147.033 28.5797 147.103 28.4288C147.136 28.3485 147.146 28.2606 147.131 28.1752C147.116 28.0897 147.077 28.01 147.019 27.9451C146.743 27.6123 146.364 27.5833 145.966 27.6185C145.774 27.6371 145.587 27.6908 145.397 27.7218C145.28 27.7425 145.139 27.788 145.099 27.6164C145.059 27.4448 145.099 27.3787 145.275 27.3022C146.585 26.713 147.699 27.3849 147.705 28.7844L147.711 29.2474ZM147.134 29.2474C147.134 29.1007 147.168 28.9374 146.924 28.9105C146.512 28.8289 146.087 28.8289 145.675 28.9105C145.584 28.9369 145.502 28.9849 145.434 29.0501C145.366 29.1154 145.316 29.196 145.288 29.2848C145.259 29.3736 145.253 29.4679 145.271 29.5594C145.288 29.651 145.328 29.7369 145.387 29.8097C145.512 29.9573 145.681 30.0613 145.871 30.1064C146.061 30.1515 146.26 30.1352 146.44 30.0599C146.806 29.9255 147.17 29.7456 147.124 29.2454L147.134 29.2474Z" fill="white"/>
<path d="M56.4469 29.2164C56.4469 29.5244 56.4469 29.8366 56.4469 30.1425C56.4469 30.31 56.3964 30.4609 56.1943 30.4712C55.9921 30.4816 55.9648 30.3017 55.9627 30.1467C55.9627 29.5989 55.9795 29.049 55.9437 28.4929C55.9163 28.0795 55.7332 27.726 55.2742 27.6205C55.0806 27.57 54.8759 27.5789 54.6876 27.6462C54.4994 27.7135 54.3367 27.8358 54.2215 27.9968C54.1225 28.1374 54.0784 28.3084 54.0973 28.4784C54.0847 29.0097 54.0805 29.541 54.0973 30.0723C54.0973 30.2914 54.0342 30.4547 53.792 30.4609C53.5499 30.4671 53.5078 30.2707 53.5078 30.0661C53.5078 28.7802 53.5078 27.4951 53.5078 26.2107C53.5078 26.004 53.531 25.8634 53.7689 25.8613C54.0068 25.8593 54.1142 25.9544 54.0994 26.2045C54.0784 26.5477 54.0994 26.8908 54.0994 27.2381C54.0994 27.3807 54.1099 27.5006 54.3352 27.4035C55.75 26.7833 56.4532 27.2443 56.4637 28.7492V29.2123L56.4469 29.2164Z" fill="white"/>
<path d="M79.7088 27.2071C79.4398 27.5923 79.119 27.94 78.7551 28.2407C78.4519 28.5198 78.4772 28.7306 78.7277 29.0139C79.0267 29.3549 79.2919 29.7229 79.5698 30.0826C79.6541 30.1922 79.8625 30.3079 79.6688 30.4506C79.593 30.498 79.5022 30.5167 79.4134 30.503C79.3246 30.4893 79.244 30.4442 79.1867 30.3761C78.9361 30.0971 78.7235 29.7891 78.4793 29.5059C78.334 29.3405 78.2687 28.9952 77.9571 29.1193C77.8118 29.1764 77.684 29.2697 77.5866 29.3901C77.4891 29.5104 77.4253 29.6536 77.4013 29.8056C77.355 30.0454 77.5445 30.4878 77.1255 30.4568C76.7066 30.4258 76.915 29.9813 76.915 29.7332C76.8897 28.5818 76.9003 27.4324 76.915 26.281C76.915 26.1177 76.8118 25.8675 77.1424 25.8675C77.4245 25.8675 77.4034 26.0867 77.4034 26.281C77.4034 26.9673 77.4034 27.6557 77.4161 28.3482C77.4161 28.4764 77.3803 28.6438 77.5466 28.7079C77.7129 28.772 77.7845 28.5921 77.8729 28.5012C78.2456 28.1435 78.6014 27.7735 78.9614 27.4035C79.0462 27.294 79.1656 27.2153 79.3009 27.1798C79.4362 27.1442 79.5797 27.1538 79.7088 27.2071Z" fill="white"/>
<path d="M134.237 29.0531C133.938 29.0531 133.641 29.0531 133.345 29.0531C133.214 29.0531 133.043 29.0077 132.985 29.1813C132.938 29.3198 133.02 29.4335 133.102 29.5513C133.192 29.6809 133.307 29.7915 133.441 29.8766C133.575 29.9618 133.724 30.0197 133.881 30.0471C134.038 30.0745 134.199 30.0707 134.355 30.0359C134.51 30.0012 134.657 29.9362 134.787 29.8449C134.968 29.7312 135.149 29.6196 135.281 29.7994C135.414 29.9792 135.185 30.1053 135.05 30.2128C134.723 30.4407 134.325 30.551 133.925 30.525C133.525 30.499 133.146 30.3384 132.852 30.0702C132.551 29.745 132.378 29.3259 132.361 28.8871C132.345 28.4482 132.488 28.0179 132.763 27.6722C133 27.3836 133.337 27.19 133.709 27.128C134.081 27.0659 134.464 27.1396 134.785 27.3353C135.336 27.6598 135.456 28.2097 135.53 28.7658C135.553 28.9477 135.37 29.0511 135.17 29.0511H134.237V29.0531ZM133.961 28.6624C134.208 28.6624 134.452 28.6624 134.696 28.6624C134.972 28.6624 135.054 28.5074 134.959 28.2986C134.787 27.9182 134.526 27.5833 134.073 27.5317C133.62 27.48 133.311 27.726 133.081 28.0815C132.852 28.4371 132.938 28.648 133.387 28.6604C133.57 28.6686 133.761 28.6624 133.953 28.6624H133.961Z" fill="white"/>
<path d="M59.1754 29.0552C58.8954 29.0552 58.6154 29.0552 58.3333 29.0552C57.9122 29.0552 57.9122 29.2619 58.0701 29.5431C58.3838 30.0764 59.1607 30.2376 59.7796 29.8718C59.9586 29.7643 60.1439 29.6216 60.2681 29.7994C60.4344 30.0371 60.146 30.1632 59.9944 30.2666C59.6932 30.4548 59.3403 30.5475 58.9836 30.532C58.6269 30.5164 58.2837 30.3935 58.0006 30.1798C57.7198 29.9399 57.5164 29.6247 57.4154 29.2729C57.3145 28.9211 57.3203 28.548 57.4322 28.1994C57.5527 27.8589 57.7854 27.5677 58.0936 27.3718C58.4017 27.176 58.7676 27.0867 59.1333 27.1182C59.5249 27.1692 59.8824 27.3633 60.1345 27.6619C60.3867 27.9604 60.5148 28.3413 60.4934 28.7286C60.4956 28.7757 60.487 28.8227 60.4684 28.8662C60.4497 28.9096 60.4214 28.9485 60.3854 28.9798C60.3495 29.0111 60.3069 29.0341 60.2607 29.0472C60.2145 29.0602 60.166 29.063 60.1186 29.0552C59.8028 29.0552 59.487 29.0552 59.1733 29.0552H59.1754ZM58.8933 28.6624C59.0512 28.6624 59.2091 28.6624 59.367 28.6624C59.5775 28.6521 59.8281 28.7348 59.8975 28.4557C59.9202 28.3467 59.9127 28.2338 59.8756 28.1287C59.8386 28.0236 59.7734 27.9302 59.687 27.8583C59.2049 27.3787 58.5838 27.418 58.1543 27.9554C58.0802 28.0276 58.0281 28.1187 58.0039 28.2185C57.9798 28.3182 57.9844 28.4226 58.0175 28.5198C58.1038 28.7265 58.3164 28.6438 58.4785 28.6562C58.6406 28.6686 58.7543 28.6624 58.8933 28.6624Z" fill="white"/>
<path d="M154.027 29.0531C153.764 29.0531 153.501 29.0531 153.24 29.0531C153.107 29.0531 152.93 29.0056 152.865 29.1586C152.839 29.2404 152.835 29.3276 152.855 29.4113C152.874 29.4949 152.917 29.5718 152.977 29.634C153.175 29.8655 153.453 30.0162 153.758 30.0567C154.063 30.0972 154.372 30.0246 154.625 29.8531C154.808 29.7436 154.994 29.6237 155.116 29.8056C155.238 29.9875 155.015 30.1426 154.863 30.2376C154.606 30.4186 154.302 30.5235 153.986 30.5399C153.671 30.5564 153.357 30.4838 153.082 30.3307C152.822 30.2045 152.605 30.0076 152.455 29.7636C152.306 29.5195 152.231 29.2385 152.24 28.9539C152.223 27.7921 152.872 27.0645 153.924 27.112C154.327 27.1488 154.699 27.3369 154.964 27.6369C155.229 27.937 155.366 28.3258 155.345 28.7224C155.322 28.9642 155.208 29.0552 154.977 29.0511C154.659 29.049 154.345 29.0511 154.027 29.0531ZM153.752 28.6624C153.926 28.6624 154.103 28.6624 154.278 28.6624C154.766 28.65 154.893 28.4144 154.634 28.003C154.548 27.8684 154.431 27.7562 154.292 27.676C154.152 27.5958 153.995 27.55 153.834 27.5424C153.673 27.5349 153.512 27.5659 153.366 27.6328C153.219 27.6997 153.092 27.8005 152.994 27.9265C152.923 28.0003 152.872 28.0899 152.845 28.1876C152.818 28.2852 152.815 28.3879 152.838 28.4867C152.907 28.7306 153.147 28.6542 153.333 28.6624C153.474 28.6686 153.606 28.6624 153.754 28.6624H153.752Z" fill="white"/>
<path d="M99.9306 29.1648C99.9306 29.5079 99.9306 29.8511 99.9306 30.1984C99.9306 30.3141 99.8927 30.4423 99.739 30.4712C99.6443 30.4878 99.5432 30.4712 99.5285 30.3782C99.4443 30.0847 99.3348 30.186 99.1348 30.2914C98.6422 30.5519 98.1285 30.6387 97.5916 30.3555C97.3844 30.2666 97.2162 30.1081 97.1174 29.9084C97.0186 29.7087 96.9956 29.4809 97.0526 29.266C97.0892 29.0736 97.1856 28.897 97.3284 28.7604C97.4713 28.6239 97.6536 28.534 97.8505 28.5032C98.2601 28.4106 98.6852 28.4057 99.0969 28.4888C99.4569 28.557 99.5348 28.4019 99.3938 28.0877C99.2064 27.6743 98.8316 27.6123 98.44 27.5833C98.339 27.5833 98.2295 27.635 98.1327 27.6267C97.9032 27.6102 97.5621 27.943 97.4653 27.5792C97.3684 27.2154 97.8295 27.2381 98.0527 27.1658C98.46 27.048 98.8977 27.0856 99.278 27.2712C99.4572 27.3396 99.6124 27.4577 99.7245 27.6111C99.8367 27.7645 99.901 27.9466 99.9096 28.1353C99.9264 28.4764 99.9517 28.8195 99.9727 29.1689L99.9306 29.1648ZM98.5853 28.8402C98.4906 28.8402 98.3516 28.8629 98.2127 28.8691C97.8211 28.8898 97.6084 29.0759 97.6 29.4728C97.5916 29.8697 97.859 30.0268 98.1958 30.1074C98.3421 30.1328 98.4922 30.1289 98.6369 30.0958C98.7816 30.0628 98.9181 30.0013 99.038 29.9152C99.1885 29.8399 99.31 29.7184 99.3837 29.5691C99.4574 29.4198 99.4795 29.251 99.4464 29.0883C99.379 28.7554 99.0443 28.9332 98.8379 28.8567C98.7545 28.8433 98.6696 28.8399 98.5853 28.8464V28.8402Z" fill="white"/>
<path d="M71.5948 30.525C71.3654 30.5339 71.1365 30.4963 70.9225 30.4145C70.7085 30.3328 70.5139 30.2086 70.351 30.0497C70.188 29.8909 70.0601 29.7008 69.9753 29.4912C69.8904 29.2817 69.8505 29.0573 69.8579 28.8319C69.8483 28.6052 69.8863 28.3789 69.9695 28.1673C70.0528 27.9556 70.1795 27.763 70.3419 27.6014C70.5042 27.4399 70.6986 27.3129 70.9131 27.2284C71.1276 27.1438 71.3575 27.1035 71.5885 27.1099C72.0461 27.1114 72.485 27.288 72.8121 27.6022C73.1392 27.9164 73.3286 28.3435 73.3401 28.7926C73.3358 29.2476 73.1512 29.683 72.8253 30.0064C72.4994 30.3298 72.0581 30.5159 71.5948 30.525ZM72.7927 28.8712C72.806 28.543 72.6904 28.2223 72.4699 27.9753C72.2493 27.7284 71.9406 27.574 71.6074 27.544C70.9927 27.5172 70.3927 28.096 70.3442 28.7513C70.35 29.075 70.4738 29.386 70.6932 29.6276C70.9127 29.8693 71.2132 30.0256 71.5401 30.0681C71.8653 30.0688 72.178 29.9451 72.4119 29.7232C72.6457 29.5013 72.7823 29.1986 72.7927 28.8795V28.8712Z" fill="white"/>
<path d="M101.617 27.6371C102.609 26.9549 103.388 26.9508 103.992 27.6205C104.264 27.9552 104.414 28.3701 104.416 28.7984C104.419 29.2267 104.275 29.6434 104.007 29.9813C103.375 30.6862 102.668 30.6986 101.55 29.9689C101.55 30.3493 101.55 30.6862 101.55 31.019C101.55 31.1886 101.636 31.4532 101.339 31.4614C100.998 31.4614 101.101 31.1782 101.101 30.9984C101.09 29.8959 101.09 28.7933 101.101 27.6908C101.101 27.5068 100.99 27.2298 101.284 27.172C101.651 27.1099 101.472 27.511 101.617 27.6371ZM101.545 28.803C101.538 29.1264 101.66 29.4397 101.885 29.6761C102.11 29.9124 102.421 30.0531 102.75 30.0681C103.381 30.0681 103.863 29.5451 103.876 28.8423C103.889 28.1394 103.371 27.5544 102.739 27.5585C102.417 27.5804 102.115 27.7206 101.894 27.9513C101.673 28.182 101.548 28.4861 101.545 28.803Z" fill="white"/>
<path d="M82.2815 28.8051C82.2815 28.3751 82.2815 27.9472 82.2815 27.5193C82.2815 27.3828 82.2815 27.2299 82.452 27.1802C82.6226 27.1306 82.7426 27.143 82.7994 27.3105C82.8878 27.5647 82.991 27.4386 83.1384 27.358C84.191 26.7813 85.1047 27.2216 85.2437 28.3916C85.2806 28.9566 85.2869 29.5231 85.2626 30.0888C85.2626 30.2955 85.1911 30.4712 84.9384 30.465C84.6858 30.4588 84.7279 30.2418 84.7279 30.0826C84.7279 29.5679 84.7279 29.049 84.7279 28.5384C84.7279 27.9554 84.3468 27.573 83.81 27.5792C83.6835 27.5787 83.5581 27.6028 83.4412 27.6503C83.3244 27.6977 83.2183 27.7675 83.1291 27.8557C83.04 27.9438 82.9696 28.0484 82.922 28.1635C82.8744 28.2786 82.8506 28.4018 82.852 28.526C82.8352 29.0573 82.852 29.5885 82.852 30.1198C82.852 30.3141 82.8057 30.4712 82.5678 30.4588C82.3678 30.4588 82.3131 30.3079 82.3131 30.1364L82.2815 28.8051Z" fill="white"/>
<path d="M50.6235 28.4557C50.6235 27.9244 50.6109 27.3932 50.6235 26.8619C50.6235 26.5869 50.5267 26.496 50.2593 26.5084C49.9919 26.5208 49.6993 26.5084 49.4171 26.5084C49.2677 26.5084 49.1266 26.4898 49.1077 26.3017C49.1022 26.2669 49.1047 26.2314 49.1152 26.1978C49.1256 26.1642 49.1437 26.1333 49.1679 26.1074C49.1922 26.0816 49.2221 26.0615 49.2554 26.0486C49.2887 26.0357 49.3246 26.0303 49.3603 26.0329C50.3751 26.0329 51.392 26.0329 52.4067 26.0329C52.4419 26.0289 52.4775 26.0332 52.5106 26.0453C52.5437 26.0575 52.5735 26.0772 52.5973 26.1028C52.6212 26.1285 52.6385 26.1593 52.6478 26.1928C52.6571 26.2263 52.6582 26.2615 52.651 26.2955C52.651 26.4505 52.5499 26.5022 52.4088 26.5022C52.3204 26.5022 52.2341 26.5022 52.1457 26.5022C51.1709 26.5146 51.1709 26.5146 51.1709 27.449C51.1709 28.2883 51.1709 29.1289 51.1709 29.971C51.1709 30.1984 51.1709 30.4609 50.8572 30.4609C50.5435 30.4609 50.6277 30.1715 50.6235 29.9917C50.6151 29.4852 50.6235 28.9705 50.6235 28.4557Z" fill="white"/>
<path d="M148.553 28.8319C148.544 28.5273 148.621 28.2262 148.775 27.9617C148.929 27.6972 149.155 27.4797 149.427 27.3332C149.697 27.1694 150.01 27.0865 150.328 27.0945C150.645 27.1026 150.953 27.2013 151.215 27.3787C151.366 27.4738 151.613 27.5647 151.48 27.7921C151.328 28.0629 151.141 27.8872 150.958 27.7921C150.341 27.4469 149.789 27.5172 149.402 27.9761C149.23 28.2187 149.138 28.5073 149.138 28.803C149.138 29.0987 149.23 29.3872 149.402 29.6299C149.593 29.8529 149.863 29.9977 150.157 30.0359C150.451 30.0742 150.75 30.0031 150.994 29.8366C151.187 29.7084 151.391 29.5885 151.528 29.7891C151.665 29.9896 151.406 30.095 151.261 30.2025C151.014 30.3968 150.714 30.5136 150.399 30.5376C150.084 30.5615 149.769 30.4916 149.495 30.3369C149.207 30.2014 148.965 29.9874 148.798 29.7205C148.631 29.4536 148.546 29.1451 148.553 28.8319Z" fill="white"/>
<path d="M108.341 29.9916C108.516 29.9772 108.672 29.8842 108.708 30.1116C108.726 30.1863 108.714 30.2651 108.675 30.3317C108.636 30.3982 108.572 30.4474 108.497 30.4692C108.376 30.5149 108.246 30.5357 108.116 30.5305C107.987 30.5252 107.859 30.4939 107.742 30.4386C107.625 30.3832 107.521 30.3049 107.435 30.2085C107.35 30.1121 107.286 29.9996 107.247 29.878C107.106 29.3922 107.186 28.8898 107.167 28.3958C107.149 28.2772 107.149 28.1567 107.167 28.0381C107.289 27.6391 106.567 27.6598 106.763 27.3187C106.901 27.0789 107.247 26.9652 107.171 26.5849C107.155 26.5393 107.151 26.4907 107.158 26.4431C107.165 26.3955 107.184 26.3502 107.212 26.3109C107.24 26.2717 107.278 26.2395 107.321 26.2171C107.364 26.1946 107.412 26.1825 107.461 26.1818C107.746 26.1818 107.72 26.434 107.697 26.5952C107.626 27.0913 107.889 27.1782 108.308 27.141C108.487 27.1244 108.729 27.0769 108.729 27.3725C108.729 27.6681 108.483 27.6619 108.283 27.6371C107.826 27.5813 107.651 27.7446 107.691 28.2056C107.717 28.5814 107.717 28.9585 107.691 29.3343C107.687 29.8325 107.899 30.0557 108.341 29.9916Z" fill="white"/>
<path d="M136.515 28.7513C136.486 28.5297 136.486 28.3052 136.515 28.0836C136.637 27.6557 136.016 27.7074 136.069 27.3725C136.113 27.1058 136.616 27.1285 136.515 26.7192C136.456 26.4856 136.49 26.1817 136.835 26.2004C137.13 26.2148 137.073 26.5063 137.046 26.6944C136.997 27.1182 137.22 27.1802 137.576 27.1637C137.759 27.1637 138.042 27.0562 138.058 27.3869C138.075 27.757 137.77 27.6743 137.57 27.6557C137.149 27.6143 137.018 27.7901 137.046 28.1849C137.069 28.598 137.069 29.0121 137.046 29.4252C137.029 29.8821 137.256 30.0454 137.692 30.0102C137.827 30.0102 138.016 29.8738 138.05 30.1425C138.084 30.4113 137.909 30.4712 137.709 30.5146C137.077 30.6573 136.555 30.2562 136.503 29.5803C136.481 29.3074 136.503 29.0324 136.503 28.7534L136.515 28.7513Z" fill="white"/>
<path d="M74.8665 27.7446C75.0961 27.4744 75.3947 27.2689 75.7318 27.1492C75.8707 27.11 76.0686 27.0562 76.0813 27.3063C76.0813 27.4655 76.1339 27.6247 75.8813 27.7032C75.0265 27.974 74.8286 28.2676 74.8012 29.1503C74.8012 29.4583 74.8012 29.7705 74.8012 30.0743C74.8012 30.2811 74.7718 30.4671 74.5149 30.4878C74.2581 30.5085 74.2349 30.2914 74.2349 30.095C74.2349 29.3239 74.2349 28.5529 74.2349 27.7818C74.2349 27.5751 74.1044 27.2485 74.4623 27.1864C74.8202 27.1244 74.7865 27.449 74.8665 27.7446Z" fill="white"/>
<path d="M126.378 28.8071C126.378 28.3627 126.378 27.9182 126.378 27.4717C126.378 27.358 126.357 27.2216 126.513 27.1699C126.545 27.1565 126.58 27.1498 126.615 27.15C126.651 27.1502 126.686 27.1573 126.718 27.171C126.75 27.1847 126.78 27.2046 126.804 27.2297C126.828 27.2547 126.848 27.2843 126.86 27.3167C127.001 27.6267 127.17 27.5792 127.399 27.3973C127.55 27.2837 127.721 27.197 127.902 27.141C128.026 27.0996 128.203 27.081 128.224 27.2856C128.239 27.4304 128.294 27.6412 128.085 27.6743C126.988 27.8417 126.938 28.6376 126.936 29.4686C126.936 29.6753 126.936 29.8821 126.936 30.0888C126.936 30.2955 126.843 30.4712 126.607 30.4754C126.372 30.4795 126.397 30.2583 126.384 30.095C126.374 29.6629 126.378 29.235 126.378 28.8071Z" fill="white"/>
<path d="M143.823 28.1456C143.823 28.7989 143.823 29.45 143.823 30.1033C143.823 30.2893 143.81 30.4671 143.568 30.4671C143.326 30.4671 143.237 30.3286 143.237 30.0991C143.237 28.7947 143.237 27.4903 143.237 26.1838C143.237 25.9502 143.36 25.882 143.551 25.8655C143.791 25.8427 143.829 25.9854 143.827 26.188C143.816 26.8412 143.823 27.4924 143.823 28.1456Z" fill="white"/>
<path d="M114.036 28.1539C114.036 28.7885 114.036 29.4232 114.036 30.0557C114.036 30.2996 113.973 30.4795 113.702 30.4692C113.43 30.4588 113.449 30.2376 113.451 30.0557C113.451 28.7864 113.451 27.5172 113.451 26.2479C113.451 26.0309 113.478 25.8675 113.746 25.882C114.013 25.8965 114.049 26.0371 114.043 26.2624C114.026 26.8908 114.036 27.511 114.036 28.1539Z" fill="white"/>
<path d="M80.614 28.7865C80.614 28.3565 80.614 27.9265 80.614 27.4986C80.614 27.3456 80.5972 27.174 80.8246 27.1616C80.8641 27.1546 80.9047 27.1562 80.9434 27.1665C80.9822 27.1767 81.0182 27.1952 81.0488 27.2207C81.0794 27.2462 81.1038 27.278 81.1204 27.3139C81.137 27.3498 81.1452 27.3889 81.1446 27.4283C81.1544 28.3544 81.1544 29.2819 81.1446 30.2108C81.1456 30.2502 81.1375 30.2893 81.1207 30.3251C81.104 30.3609 81.0791 30.3925 81.048 30.4175C81.0169 30.4424 80.9804 30.46 80.9414 30.469C80.9023 30.478 80.8616 30.478 80.8225 30.4692C80.633 30.4526 80.6119 30.3265 80.6119 30.1777C80.6161 29.7146 80.6162 29.2495 80.614 28.7865Z" fill="white"/>
<path d="M105.428 28.7844C105.428 28.3399 105.428 27.8955 105.428 27.451C105.428 27.3167 105.428 27.1637 105.638 27.1616C105.849 27.1595 105.874 27.2836 105.874 27.4324C105.874 28.3572 105.874 29.2812 105.874 30.2046C105.874 30.3555 105.821 30.4795 105.634 30.4692C105.447 30.4588 105.423 30.31 105.423 30.1715C105.426 29.7105 105.428 29.2474 105.428 28.7844Z" fill="white"/>
<path d="M105.647 26.5042C105.436 26.5249 105.358 26.3802 105.354 26.2252C105.35 26.0701 105.428 25.9006 105.668 25.9151C105.908 25.9296 105.969 26.066 105.964 26.25C105.96 26.434 105.826 26.5104 105.647 26.5042Z" fill="white"/>
<path d="M80.8963 26.5022C80.6963 26.527 80.5952 26.4546 80.6057 26.25C80.6057 26.0805 80.5805 25.9006 80.8584 25.9109C81.0689 25.9109 81.1931 25.9606 81.1973 26.1921C81.2015 26.4236 81.1194 26.5166 80.8963 26.5022Z" fill="white"/>
</g>
<defs>
<clipPath id="clip0_5180_18058">
<rect width="169" height="31" fill="white" transform="translate(0.499512 0.496582)"/>
</clipPath>
</defs>
</svg>
