<svg width="31" height="50" viewBox="0 0 31 50" fill="none" xmlns="http://www.w3.org/2000/svg">
<path d="M30.0961 17.759C29.9228 17.4324 29.6628 17.269 29.3161 17.269H19.0895L29.2295 2.16067C29.4029 1.91567 29.4029 1.58903 29.2295 1.34403C29.0561 1.09903 28.7961 0.935669 28.4495 0.935669H14.5829C14.2362 0.935669 13.9762 1.09903 13.8029 1.34403L0.802877 25.844C0.62951 26.089 0.62951 26.4157 0.802877 26.6607C0.976244 26.9057 1.32288 27.069 1.58288 27.069H10.5095L0.802877 48.874C0.62951 49.2007 0.802877 49.609 1.14951 49.854C1.23614 49.9357 1.40951 49.9357 1.58288 49.9357C1.84288 49.9357 2.10288 49.854 2.27624 49.6907L30.0096 18.6573C30.1829 18.4123 30.2695 18.0857 30.0961 17.759ZM4.61614 44.464L12.5895 26.4974C12.6761 26.2524 12.6761 26.0074 12.5029 25.7624C12.3295 25.599 12.0695 25.4358 11.8095 25.4358H2.96951L15.1029 2.56903H26.8895L16.6629 17.6773C16.4895 17.9223 16.4895 18.2489 16.6629 18.4939C16.8362 18.7389 17.0962 18.9023 17.4429 18.9023H27.4962L4.61614 44.464Z" fill="#4F4F4F"/>
</svg>
