<svg width="64" height="66" viewBox="0 0 64 66" fill="none" xmlns="http://www.w3.org/2000/svg">
<path d="M12.2417 42.9215C10.7978 44.2646 9.63819 45.847 8.79473 47.625L8.34919 48.5645L1.1013 57.7134C0.776397 58.1236 0.845495 58.7194 1.25567 59.0443C1.42974 59.1823 1.63729 59.2491 1.84332 59.2491C2.12274 59.2491 2.39952 59.1261 2.5866 58.89L9.90144 49.6564C9.94603 49.6002 9.98393 49.5389 10.0148 49.4743L10.5068 48.4372C11.2469 46.8768 12.2648 45.4878 13.5323 44.3088C13.9153 43.9524 13.9371 43.353 13.5807 42.9698C13.2244 42.5869 12.625 42.5649 12.2417 42.9215V42.9215Z" fill="black"/>
<path d="M62.2459 36.5072C60.9476 34.9752 58.6452 34.7853 57.1136 36.0835L56.6238 36.4986C56.5091 35.9063 56.2465 35.3345 55.8294 34.8425C54.5313 33.3109 52.2288 33.1209 50.697 34.4188L50.2625 34.7871C50.1408 34.2136 49.8792 33.6615 49.474 33.1834C48.1757 31.6516 45.8735 31.4617 44.3416 32.7597L37.0595 38.9311C36.6855 38.8252 36.2918 38.7674 35.8844 38.7674H22.8004C20.3734 38.7674 17.9453 39.3495 15.779 40.4507C15.3126 40.6878 15.1267 41.2582 15.3638 41.7246C15.6009 42.191 16.1712 42.377 16.6376 42.1398C18.5394 41.1732 20.6704 40.6622 22.8004 40.6622H35.8845C37.2222 40.6622 38.3104 41.7505 38.3104 43.0881C38.3104 43.7464 38.0512 44.3624 37.5807 44.8228C37.1104 45.2828 36.4927 45.5245 35.8316 45.5135C35.8247 45.5134 35.8177 45.5132 35.8106 45.5132H27.3661C26.8427 45.5132 26.4187 45.9373 26.4187 46.4607C26.4187 46.984 26.8427 47.4081 27.3661 47.4081H35.8008C35.83 47.4087 35.8591 47.409 35.8883 47.409C37.0231 47.409 38.0913 46.9738 38.9055 46.1774C39.0249 46.0606 39.1358 45.9377 39.2397 45.8102H47.245C48.0975 45.8102 48.9253 45.5067 49.5759 44.9553L58.3386 37.529C59.0735 36.9064 60.1777 36.9976 60.8004 37.7322C61.4231 38.467 61.3319 39.5714 60.5973 40.1941L46.7642 51.9173C45.4731 53.0114 43.9026 53.6966 42.2224 53.8987L40.5157 54.1041C39.9962 54.1666 39.6257 54.6383 39.6882 55.158C39.7461 55.639 40.155 55.9922 40.6277 55.9922C40.6656 55.9922 40.7037 55.9898 40.7422 55.9853L42.4488 55.7799C44.4985 55.5334 46.4143 54.6977 47.9892 53.3628L61.8224 41.6396C63.354 40.3415 63.5441 38.039 62.2459 36.5072V36.5072ZM45.5667 34.2052C46.3012 33.5825 47.4058 33.6738 48.0286 34.4083C48.6025 35.0856 48.5801 36.0718 47.9822 36.7194L40.1992 43.3154C40.2031 43.2399 40.2053 43.1642 40.2053 43.0881C40.2053 41.8385 39.6716 40.7118 38.8208 39.9222L45.5667 34.2052ZM42.422 43.9154L51.9221 35.8643C52.657 35.2416 53.7613 35.3329 54.3839 36.0675C55.0066 36.8023 54.9154 37.9067 54.1807 38.5294L48.3509 43.5098C48.0423 43.7713 47.6495 43.9154 47.245 43.9154H42.422Z" fill="black"/>
<path d="M36.4908 54.5881L26.7757 55.7568C26.5361 55.7857 26.3164 55.9049 26.1618 56.0901L19.8238 63.6775C19.4884 64.0792 19.542 64.6766 19.9436 65.012C20.1207 65.16 20.3361 65.2323 20.5504 65.2323C20.8215 65.2323 21.0906 65.1166 21.278 64.8923L27.3751 57.5932L36.7172 56.4694C37.2367 56.4069 37.6073 55.9352 37.5448 55.4156C37.4822 54.8962 37.0086 54.5261 36.4908 54.5881V54.5881Z" fill="black"/>
<path d="M28.9674 27.8658C28.9674 27.8658 23.4306 19.2467 23.4227 19.2356C22.4855 17.9063 21.8631 16.3548 21.6227 14.749C21.5454 14.2314 21.0625 13.8743 20.5456 13.9523C20.028 14.0296 19.6714 14.512 19.7488 15.0294C20.0316 16.9189 20.7621 18.7444 21.8621 20.3102L27.2228 28.6558V30.0376C27.2228 30.4376 27.3639 30.8052 27.5984 31.094V34.3505C27.5984 35.8745 28.8384 37.1147 30.3626 37.1147H33.705C35.229 37.1147 36.4692 35.8747 36.4692 34.3505V31.094C36.7036 30.8052 36.8447 30.4376 36.8447 30.0376V28.6558L42.2055 20.3102C43.6783 18.2138 44.4568 15.7477 44.4568 13.1773C44.4568 9.0704 42.4299 5.2336 39.0349 2.91356C35.5667 0.543615 31.2222 0.103128 27.116 1.70477C24.1413 2.86505 21.7627 5.22791 20.59 8.18765C20.2687 8.99877 20.0228 9.83086 19.8594 10.6608C19.7582 11.1742 20.0924 11.6724 20.6057 11.7736C21.1202 11.8751 21.6173 11.5405 21.7185 11.0273C21.8597 10.3101 22.0728 9.58958 22.3517 8.88559C23.3311 6.4137 25.3187 4.43979 27.8047 3.47013C31.3191 2.09941 35.0228 2.467 37.9658 4.47806C40.8435 6.44478 42.5617 9.69683 42.5617 13.1774C42.5617 15.3618 41.8987 17.4566 40.6445 19.2356C40.6367 19.2467 35.0998 27.8658 35.0998 27.8658C35.0018 28.0187 34.9496 28.1963 34.9496 28.3779V29.8227H34.7182L35.2578 20.664H36.1611C37.6143 20.664 38.7964 19.4819 38.7964 18.0287V17.924C38.7964 16.4708 37.6143 15.2886 36.1611 15.2886C34.7678 15.2886 33.6121 16.3782 33.5303 17.7691L33.4714 18.7693H30.6048L30.5459 17.7691C30.464 16.3782 29.3083 15.2886 27.915 15.2886C26.4618 15.2886 25.2796 16.4708 25.2796 17.924V18.0287C25.2796 19.4819 26.4618 20.664 27.915 20.664H28.8183L29.3578 29.8227H29.1174V28.3779C29.1176 28.1963 29.0654 28.0187 28.9674 27.8658V27.8658ZM35.4219 17.8804C35.4449 17.4894 35.7696 17.1832 36.1612 17.1832C36.5695 17.1832 36.9017 17.5154 36.9017 17.9237V18.0284C36.9017 18.4367 36.5695 18.7689 36.1612 18.7689H35.3695L35.4219 17.8804ZM27.915 18.7691C27.5067 18.7691 27.1745 18.4368 27.1745 18.0286V17.9238C27.1745 17.5156 27.5067 17.1833 27.915 17.1833C28.3066 17.1833 28.6313 17.4895 28.6543 17.8805L28.7068 18.7692H27.915V18.7691ZM34.5741 34.3506C34.5741 34.83 34.1841 35.2199 33.7047 35.2199H30.3623C29.8829 35.2199 29.493 34.83 29.493 34.3506V31.7174H34.5741V34.3506ZM30.7164 20.6639H33.3597L32.8201 29.8226H31.2562L30.7164 20.6639Z" fill="black"/>
<path d="M48.4424 14.2062C48.4424 14.7296 48.8664 15.1536 49.3898 15.1536H51.6232C52.1465 15.1536 52.5706 14.7296 52.5706 14.2062C52.5706 13.6829 52.1465 13.2588 51.6232 13.2588H49.3898C48.8664 13.2588 48.4424 13.683 48.4424 14.2062Z" fill="black"/>
<path d="M47.8912 9.19695C48.0005 9.19695 48.1118 9.17788 48.2203 9.13758L50.3143 8.36133C50.805 8.17955 51.0552 7.63435 50.8734 7.14371C50.6915 6.65307 50.1465 6.4027 49.6558 6.58461L47.5618 7.36086C47.0711 7.54263 46.8209 8.08784 47.0026 8.57848C47.1444 8.9606 47.5063 9.19695 47.8912 9.19695Z" fill="black"/>
<path d="M47.5618 21.0516L49.6559 21.8278C49.7644 21.8679 49.8757 21.8871 49.9849 21.8871C50.3698 21.8871 50.7319 21.6508 50.8734 21.2687C51.0551 20.778 50.8049 20.2329 50.3143 20.051L48.2202 19.2749C47.7296 19.0933 47.1844 19.3435 47.0026 19.834C46.8209 20.3247 47.0712 20.8697 47.5618 21.0516V21.0516Z" fill="black"/>
<path d="M12.4435 15.1536H14.6769C15.2003 15.1536 15.6243 14.7296 15.6243 14.2062C15.6243 13.6829 15.2003 13.2588 14.6769 13.2588H12.4435C11.9202 13.2588 11.4961 13.6829 11.4961 14.2062C11.4961 14.7296 11.9202 15.1536 12.4435 15.1536Z" fill="black"/>
<path d="M13.7532 8.36155L15.8472 9.1378C15.9558 9.17798 16.0669 9.19718 16.1763 9.19718C16.5612 9.19718 16.9231 8.96083 17.0647 8.5787C17.2465 8.08806 16.9963 7.54298 16.5056 7.36107L14.4116 6.58482C13.9212 6.40329 13.376 6.65329 13.194 7.14392C13.0123 7.63456 13.2627 8.17965 13.7532 8.36155V8.36155Z" fill="black"/>
<path d="M17.0648 19.834C16.8831 19.3434 16.338 19.093 15.8472 19.2749L13.7532 20.051C13.2625 20.2328 13.0123 20.778 13.1941 21.2687C13.3357 21.6507 13.6974 21.8871 14.0825 21.8871C14.1917 21.8871 14.303 21.8681 14.4116 21.8278L16.5056 21.0516C16.9964 20.8697 17.2467 20.3247 17.0648 19.834Z" fill="black"/>
</svg>
