<svg width="40" height="50" viewBox="0 0 40 50" fill="none" xmlns="http://www.w3.org/2000/svg">
<path d="M34.2342 6.62057H29.7865V4.63085C29.7865 3.9871 29.0843 3.69452 28.4405 3.69452H24.9878C24.1685 1.35363 22.1202 0.183187 19.7793 0.183187C17.4642 0.0961512 15.3584 1.51572 14.5708 3.69452H11.1766C10.5328 3.69452 9.88906 3.9871 9.88906 4.63085V6.62057H5.44128C2.80557 6.64869 0.649279 8.72791 0.525391 11.3608V44.8939C0.525391 47.4689 2.86628 49.3416 5.44128 49.3416H34.2342C36.8092 49.3416 39.15 47.4689 39.15 44.8939V11.3609C39.0262 8.72791 36.8699 6.64869 34.2342 6.62057ZM12.2298 6.03541H15.4486C16.0104 5.96685 16.4618 5.5394 16.5606 4.98202C16.9071 3.47273 18.2313 2.38932 19.7793 2.34855C21.313 2.39503 22.6172 3.4818 22.9395 4.98202C23.0444 5.55867 23.5255 5.99161 24.1099 6.03541H27.4457V10.7172H12.2298V6.03541ZM36.8092 44.8941C36.8092 46.1816 35.5217 47.0008 34.2342 47.0008H5.44128C4.15378 47.0008 2.86628 46.1816 2.86628 44.8941V11.3609C2.98569 10.0208 4.09598 8.9861 5.44128 8.96157H9.88894V11.9462C9.95078 12.6019 10.5187 13.0925 11.1764 13.0582H28.4404C29.1103 13.0948 29.696 12.611 29.7864 11.9462V8.96146H34.234C35.5792 8.9861 36.6896 10.0207 36.809 11.3608V44.8941H36.8092Z" fill="#4F4F4F"/>
<path d="M15.3315 26.3425C14.8925 25.8797 14.1638 25.8536 13.6929 26.284L9.94742 29.8538L8.36733 28.2151C7.92835 27.7524 7.19958 27.7264 6.72867 28.1567C6.27534 28.6316 6.27534 29.3789 6.72867 29.8538L9.12803 32.3118C9.3357 32.5443 9.63568 32.6729 9.9473 32.6629C10.256 32.6586 10.5505 32.5323 10.7666 32.3118L15.3313 27.9811C15.7838 27.566 15.8141 26.8626 15.3989 26.4101C15.3776 26.3865 15.3551 26.364 15.3315 26.3425Z" fill="#4F4F4F"/>
<path d="M32.1276 28.8588H18.6675C18.0211 28.8588 17.4971 29.3828 17.4971 30.0293C17.4971 30.6757 18.0211 31.1997 18.6675 31.1997H32.1276C32.774 31.1997 33.298 30.6757 33.298 30.0293C33.298 29.3828 32.774 28.8588 32.1276 28.8588Z" fill="#4F4F4F"/>
<path d="M15.3315 16.9792C14.8925 16.5164 14.1638 16.4903 13.6929 16.9207L9.94742 20.4905L8.36733 18.8518C7.92835 18.3891 7.19958 18.363 6.72867 18.7933C6.27534 19.2683 6.27534 20.0155 6.72867 20.4905L9.12803 22.9484C9.3357 23.181 9.63568 23.3096 9.9473 23.2996C10.256 23.2952 10.5505 23.169 10.7666 22.9484L15.3313 18.6178C15.7838 18.2027 15.8141 17.4992 15.3989 17.0468C15.3776 17.0232 15.3551 17.0007 15.3315 16.9792Z" fill="#4F4F4F"/>
<path d="M32.1276 19.4953H18.6675C18.0211 19.4953 17.4971 20.0193 17.4971 20.6658C17.4971 21.3122 18.0211 21.8362 18.6675 21.8362H32.1276C32.774 21.8362 33.298 21.3122 33.298 20.6658C33.298 20.0193 32.774 19.4953 32.1276 19.4953Z" fill="#4F4F4F"/>
<path d="M15.3315 35.706C14.8925 35.2432 14.1638 35.2173 13.6929 35.6475L9.94742 39.2173L8.36733 37.5786C7.92835 37.1159 7.19958 37.0899 6.72867 37.5202C6.27534 37.9951 6.27534 38.7424 6.72867 39.2173L9.12803 41.6753C9.3357 41.9078 9.63568 42.0364 9.9473 42.0264C10.256 42.0221 10.5505 41.8958 10.7666 41.6753L15.3313 37.3446C15.7838 36.9295 15.8141 36.2261 15.3989 35.7736C15.3776 35.7501 15.3551 35.7276 15.3315 35.706Z" fill="#4F4F4F"/>
<path d="M32.1276 38.2227H18.6675C18.0211 38.2227 17.4971 38.7467 17.4971 39.3931C17.4971 40.0396 18.0211 40.5636 18.6675 40.5636H32.1276C32.774 40.5636 33.298 40.0396 33.298 39.3931C33.298 38.7467 32.774 38.2227 32.1276 38.2227Z" fill="#4F4F4F"/>
</svg>
