<svg width="223" height="42" viewBox="0 0 223 42" fill="none" xmlns="http://www.w3.org/2000/svg">
<g clip-path="url(#clip0_4919_14883)">
<path d="M214.96 22.9101C215.549 22.1315 215.616 21.2577 215.897 20.4763C216.483 18.8294 217.008 17.1546 217.519 15.4881C218.075 13.6985 218.686 11.9172 219.211 10.1163C219.522 9.04642 219.505 9.04361 220.572 9.04361C221.219 9.04361 221.867 9.06602 222.517 9.04361C222.989 9.02121 223.072 9.20326 222.939 9.62057C221.9 12.5866 220.853 15.5498 219.828 18.5213C219.053 20.776 218.327 23.0446 217.538 25.2936C217.261 26.0582 216.963 26.8116 216.736 27.5958C216.7 27.7751 216.615 27.9409 216.491 28.0747C215.747 28.6993 214.863 28.2147 214.049 28.3548C213.68 28.4192 213.51 28.1335 213.41 27.8394C212.805 26.0469 212.213 24.2461 211.605 22.4536C211.116 21.0112 210.607 19.5744 210.113 18.132C209.802 17.2162 209.499 16.2976 209.188 15.3817C209.146 15.2613 209.168 15.082 208.979 15.0652C208.79 15.0484 208.701 15.2249 208.663 15.3761C208.121 16.9641 207.59 18.5521 207.049 20.1374C206.429 21.9439 205.801 23.7447 205.187 25.554C204.959 26.2262 204.743 26.904 204.546 27.5874C204.393 28.1139 204.132 28.4276 203.518 28.3688C203.081 28.3141 202.64 28.3141 202.204 28.3688C201.554 28.4612 201.284 28.0887 201.109 27.579C199.581 23.1388 198.058 18.6987 196.539 14.2586C195.984 12.6678 195.428 11.077 194.872 9.49733C194.778 9.21726 194.814 9.05481 195.15 9.05761C196.097 9.05761 197.048 9.05761 197.995 9.05761C198.348 9.05761 198.47 9.25927 198.55 9.55055C199.384 12.2113 200.217 14.871 201.051 17.5299C201.573 19.1683 202.12 20.8011 202.659 22.434C202.695 22.5488 202.659 22.7477 202.87 22.7141C203.031 22.6917 203.084 22.546 203.129 22.4144C203.59 21.014 204.053 19.6136 204.518 18.2133C205.034 16.6336 205.576 15.0624 206.09 13.4828C206.485 12.2701 206.949 11.0742 207.254 9.84184C207.401 9.24528 207.663 8.93999 208.293 9.04922C208.386 9.05763 208.479 9.05763 208.571 9.04922C210.516 9.04922 210.452 9.06322 211.032 10.9145C211.971 13.9169 212.977 16.8969 213.963 19.8769C214.313 20.8432 214.616 21.8318 214.96 22.9101Z" fill="#292425"/>
<path d="M183.216 28.4501C177.615 28.5845 173.37 24.0165 173.362 18.6475C173.359 17.3316 173.616 16.0283 174.117 14.8135C174.619 13.5988 175.356 12.4969 176.284 11.5722C177.213 10.6475 178.315 9.91844 179.526 9.42759C180.737 8.93673 182.033 8.69389 183.338 8.71323C189.013 8.73844 193.208 13.1944 193.197 18.6027C193.204 19.9159 192.948 21.2171 192.446 22.429C191.944 23.6408 191.206 24.7386 190.275 25.6571C189.344 26.5756 188.239 27.2962 187.026 27.776C185.814 28.2558 184.518 28.485 183.216 28.4501ZM176.946 18.5411C176.946 18.9808 176.926 19.4233 176.946 19.8658C176.997 20.2285 177.096 20.5826 177.24 20.9189C177.737 22.4452 178.782 23.7291 180.17 24.5187C181.557 25.3084 183.188 25.5468 184.741 25.1872C187.73 24.4982 189.372 21.9048 189.655 19.4345C189.813 18.0166 189.546 16.5835 188.888 15.3202C188.24 14.0067 187.161 12.9595 185.835 12.356C184.508 11.7526 183.016 11.63 181.61 12.0091C180.204 12.3881 178.972 13.2455 178.121 14.4359C177.27 15.6264 176.854 17.0766 176.943 18.5411H176.946Z" fill="#292425"/>
<path d="M140.911 18.6082C140.911 15.6534 140.911 12.6986 140.911 9.74104C140.911 9.2201 141.014 9.02406 141.589 9.02966C145.849 9.05393 150.108 9.05393 154.368 9.02966C154.94 9.02966 155.079 9.21171 155.04 9.73825C154.997 10.2976 154.997 10.8594 155.04 11.4187C155.082 11.9536 154.926 12.1301 154.36 12.1245C151.284 12.0965 148.209 12.1105 145.134 12.1245C144.22 12.1245 144.22 12.1245 144.217 13.0403C144.217 14.2278 144.25 15.4154 144.217 16.6001C144.195 17.1602 144.395 17.3059 144.923 17.3031C147.628 17.2835 150.334 17.3031 153.04 17.2807C153.699 17.2807 153.907 17.5103 153.874 18.1209C153.846 18.633 153.846 19.1463 153.874 19.6585C153.901 20.2186 153.64 20.4343 153.085 20.4315C150.426 20.4315 147.767 20.4315 145.106 20.4091C144.409 20.4091 144.203 20.5995 144.223 21.3165C144.275 23.3415 144.209 25.3664 144.259 27.3914C144.259 28.0607 144.053 28.2316 143.445 28.17C142.845 28.1224 142.242 28.1224 141.642 28.17C141.086 28.212 140.939 28.0383 140.944 27.4838C140.911 24.5206 140.911 21.5658 140.911 18.6082Z" fill="#292425"/>
<path d="M8.35347 10.2058C8.59591 11.7515 9.35448 13.1674 10.5037 14.2193C11.7733 15.4572 13.0039 16.74 14.2707 17.9779C14.7513 18.4372 14.7513 18.7537 14.2707 19.213C12.9178 20.5322 11.6232 21.9073 10.2676 23.2209C8.48405 24.9545 7.99511 27.1111 8.47016 29.4273C8.89798 31.5251 10.2426 33.0683 12.2428 33.8609C14.918 34.928 17.3071 34.3875 19.3518 32.3429C19.8602 31.836 20.3741 31.3374 20.8825 30.8333C20.9325 30.7633 20.9967 30.7049 21.0708 30.6618C21.145 30.6187 21.2273 30.5921 21.3125 30.5836C21.3976 30.5751 21.4836 30.585 21.5646 30.6126C21.6457 30.6402 21.72 30.6849 21.7826 30.7437C22.2694 31.1333 22.808 31.4519 23.3828 31.6903C23.7078 31.8024 23.7189 32.0432 23.4828 32.2813C21.5798 34.225 19.8185 36.3564 16.9654 36.9922C13.4818 37.7652 9.57304 36.7121 7.24225 33.4716C6.07926 31.9005 5.44464 29.9958 5.43096 28.0354C5.39763 25.285 6.42273 22.994 8.32014 21.0671C8.95076 20.4285 9.57026 19.7788 10.237 19.1822C10.7287 18.7453 10.6759 18.4596 10.2203 18.0199C9.31468 17.1517 8.37292 16.3058 7.74508 15.1827C6.96722 13.7824 6.8061 12.4016 7.60062 10.9816C7.74795 10.6382 8.01611 10.3618 8.35347 10.2058Z" fill="#FDB604"/>
<path d="M27.9611 31.6932C24.7607 31.7577 22.4049 30.4021 20.4159 28.2903C19.9464 27.7946 19.438 27.3353 19.0018 26.8115C18.6073 26.341 18.3184 26.4278 17.9517 26.8311C17.216 27.6989 16.3868 28.4814 15.4792 29.1642C13.8735 30.2845 12.0483 30.3321 10.5732 29.3182C10.3926 29.1922 10.1843 29.0689 10.2287 28.8645C10.2732 28.66 10.5426 28.7441 10.7121 28.7048C11.9052 28.4373 12.995 27.8252 13.8485 26.9432C15.2098 25.5652 16.5821 24.1984 17.9212 22.7981C18.3295 22.3724 18.5934 22.364 19.0324 22.7981C20.5742 24.3749 22.0382 26.0441 23.7551 27.4361C24.5548 28.0965 25.5016 28.5514 26.5141 28.7618C27.5266 28.9721 28.5746 28.9317 29.5682 28.6439C30.5618 28.356 31.4713 27.8295 32.2186 27.1093C32.966 26.3892 33.5288 25.497 33.8589 24.5093C34.7117 22.0755 34.17 19.7929 32.3837 17.8772C31.8281 17.289 31.2503 16.7317 30.6835 16.1603C30.4057 15.8802 30.3141 15.6002 30.6363 15.2305C30.9688 14.8051 31.2487 14.3405 31.4697 13.8469C31.6725 13.4324 31.8587 13.2587 32.2337 13.6648C33.4394 14.9672 34.8951 16.0623 35.7618 17.6419C36.7842 19.5044 37.287 21.4677 36.9397 23.6635C36.3202 27.5677 34.0894 30.0184 30.5057 31.3376C29.6924 31.6379 28.8247 31.7592 27.9611 31.6932Z" fill="#292425"/>
<path d="M22.2604 2.79786C20.6074 2.90709 19.0656 3.38601 17.8377 4.64634C17.2821 5.2233 16.6904 5.76665 16.1348 6.3492C15.8097 6.68809 15.5541 6.75812 15.1402 6.43044C14.6629 6.08407 14.153 5.78574 13.6178 5.53978C13.2928 5.37454 13.1706 5.24011 13.4734 4.93763C14.6707 3.75012 15.7403 2.41695 17.1654 1.4787C18.4323 0.631729 19.8964 0.132635 21.4131 0.0307176C25.469 -0.249357 28.4777 1.38628 30.4723 4.91803C31.0544 5.97565 31.4013 7.14827 31.4891 8.35455C31.7947 11.7378 30.5418 14.435 28.1221 16.6812C27.5859 17.1797 27.097 17.7314 26.5636 18.23C26.2858 18.51 26.2636 18.6753 26.5636 18.9526C27.0997 19.4539 27.6053 19.9888 28.111 20.521C29.2694 21.7393 30.0195 23.1117 29.8306 24.8817C29.7238 25.5468 29.4651 26.1777 29.0749 26.7246C29.0055 26.8339 28.9527 27.0047 28.7749 26.9599C28.5971 26.9151 28.5943 26.7639 28.5638 26.6294C28.4421 26.0625 28.2556 25.5118 28.0082 24.9882C27.322 23.5878 26.1052 22.6804 25.069 21.6021C24.2578 20.7563 23.4244 19.931 22.5687 19.1262C22.1659 18.7509 22.177 18.4876 22.5687 18.1095C23.9272 16.782 25.2579 15.4292 26.5969 14.0849C29.6389 11.0292 29.3972 6.60127 25.9913 4.00217C24.9301 3.18996 23.6438 2.85947 22.2604 2.79786Z" fill="#FDB604"/>
<path d="M-0.000240054 15.2724C-0.0669134 10.6091 2.59447 7.02698 6.52542 5.87868C10.0952 4.8368 13.3178 5.70783 16.0014 8.36294C16.7014 9.05472 17.4126 9.7325 18.0738 10.4579C18.3988 10.8136 18.6072 10.7548 18.9072 10.4579C19.6739 9.70169 20.3796 8.87547 21.2519 8.21729C23.0271 6.90094 24.9995 6.79451 26.5052 7.93722C26.6274 8.02964 26.8191 8.08846 26.783 8.29012C26.783 8.35173 26.6524 8.41895 26.5746 8.43015C24.7439 8.71023 23.466 9.85574 22.2575 11.1497C21.2324 12.2476 20.1157 13.2614 19.0989 14.3677C18.6127 14.8943 18.321 14.7738 17.8904 14.3313C16.5625 12.9618 15.1874 11.6398 13.8595 10.2702C13.1279 9.50737 12.2218 8.9371 11.2207 8.60942C10.2196 8.28175 9.15408 8.20668 8.11751 8.3908C7.08094 8.57493 6.105 9.01261 5.27527 9.6655C4.44555 10.3184 3.78736 11.1665 3.35843 12.1356C2.26387 14.491 2.64169 17.1237 4.56133 19.213C5.11694 19.8236 5.70588 20.423 6.3115 20.9915C6.63098 21.294 6.7171 21.5012 6.41151 21.899C6.05557 22.4061 5.74328 22.943 5.47808 23.5038C5.31696 23.8119 5.16694 23.8791 4.92247 23.6214C3.19175 21.8709 1.23877 20.3025 0.460918 17.8015C0.195734 16.983 0.040631 16.1324 -0.000240054 15.2724Z" fill="#292425"/>
<path d="M158.255 18.6222C158.255 15.6674 158.272 12.7126 158.255 9.75785C158.255 9.16129 158.433 8.99046 158.999 9.03247C159.623 9.08288 160.249 9.08288 160.872 9.03247C161.475 8.97926 161.591 9.22572 161.589 9.78307C161.569 14.5443 161.589 19.2776 161.589 24.0249C161.589 25.0863 161.589 25.0864 162.616 25.0864C165.369 25.0864 168.12 25.1004 170.87 25.0864C171.403 25.0864 171.623 25.2096 171.578 25.7809C171.54 26.4077 171.54 27.0363 171.578 27.663C171.598 28.0691 171.445 28.17 171.062 28.17C166.992 28.17 162.922 28.1532 158.852 28.17C158.297 28.17 158.277 27.9207 158.277 27.495C158.26 24.5346 158.255 21.5798 158.255 18.6222Z" fill="#292425"/>
<path d="M83.1807 18.6193C83.239 14.673 84.8753 11.637 88.3785 9.74372C90.1453 8.79147 92.0344 8.62343 94.0401 8.85869C95.3103 8.98422 96.5375 9.38972 97.635 10.0465C98.7324 10.7033 99.6732 11.5953 100.391 12.6593C103.752 17.4206 102.499 24.6493 96.8793 27.5509C95.0573 28.4778 92.9793 28.7609 90.9787 28.3547C87.4284 27.6797 84.9698 25.5903 83.7252 22.1006C83.3387 20.9823 83.1543 19.8032 83.1807 18.6193ZM92.7178 27.0972C94.1412 27.1788 95.5538 26.8054 96.7543 26.0301C99.0462 24.6297 100.277 22.5403 100.619 19.8684C100.949 17.6897 100.458 15.465 99.2406 13.634C97.7544 11.3934 95.6903 10.2283 93.0122 10.105C90.9426 10.0098 89.0702 10.5335 87.5395 11.9283C85.1198 14.1353 84.2919 16.9248 84.7809 20.1569C85.3504 23.8791 88.4479 27.2288 92.7178 27.0972Z" fill="#292425"/>
<path d="M80.3024 28.0103C79.0411 28.3352 78.28 28.1139 77.5966 27.1476C76.0186 24.907 74.3045 22.7841 72.6544 20.6079C72.5645 20.4765 72.4421 20.3712 72.2993 20.3024C72.1565 20.2336 71.9982 20.2037 71.8404 20.2158C70.1514 20.2326 68.4651 20.2382 66.776 20.2158C66.2871 20.2158 66.1509 20.3726 66.1565 20.8544C66.1787 23.095 66.1565 25.3356 66.1815 27.5566C66.1815 28.1587 65.9037 28.1727 65.4759 28.1615C65.0481 28.1503 64.7536 28.1951 64.7564 27.5734C64.7823 21.5984 64.7823 15.616 64.7564 9.62617C64.7564 9.16965 64.8814 9.03241 65.3398 9.03521C68.0678 9.06042 70.8014 8.9624 73.5239 9.08843C75.6908 9.18926 77.691 9.92865 78.8411 11.9536C80.2301 14.3986 79.6218 18.0144 76.2381 19.3784C75.71 19.6071 75.161 19.7835 74.599 19.9049C74.0434 20.0085 74.0851 20.143 74.3879 20.5323C76.1992 22.8681 77.9994 25.2263 79.7912 27.5678C79.9079 27.7078 79.9384 27.9178 80.3024 28.0103ZM66.1815 14.6535C66.1815 15.8382 66.2121 17.0257 66.1676 18.2105C66.1454 18.7706 66.3454 18.9274 66.8732 18.919C68.8596 18.8966 70.8459 18.919 72.835 18.919C73.806 18.9305 74.7679 18.7299 75.6547 18.3309C76.5942 17.929 77.3468 17.1817 77.7596 16.2406C78.1724 15.2996 78.2144 14.2355 77.8771 13.2643C77.2493 11.371 75.3908 10.556 73.6545 10.4636C71.3515 10.346 69.0374 10.4356 66.726 10.416C66.3121 10.416 66.1704 10.528 66.1704 10.9761C66.1815 12.1861 66.1815 13.4212 66.1815 14.6535Z" fill="#292425"/>
<path d="M113.208 28.4416C110.451 28.492 107.77 27.5192 105.677 25.7081C105.188 25.2992 105.547 25.0891 105.749 24.8203C105.952 24.5514 106.177 24.1845 106.619 24.5906C107.611 25.4952 108.708 26.271 110.003 26.6323C112.203 27.2457 114.411 27.5062 116.431 26.0358C117.498 25.2628 117.867 24.1649 117.776 22.8765C117.681 21.5266 116.851 20.7424 115.714 20.2186C114.534 19.6781 113.264 19.4288 112.006 19.1488C110.544 18.8239 109.125 18.3982 107.864 17.5383C105.508 15.9307 105.435 12.3093 107.563 10.4356C109.491 8.73558 111.767 8.50871 114.209 8.95403C115.649 9.25384 117.012 9.85391 118.209 10.7157C118.545 10.9398 118.728 11.2002 118.376 11.5083C118.098 11.752 118.001 12.4522 117.337 11.9116C116.479 11.1999 115.483 10.6778 114.412 10.3791C113.342 10.0805 112.221 10.0119 111.122 10.178C109.128 10.458 107.233 11.7268 107.561 14.3595C107.738 15.7823 108.736 16.4516 109.889 16.967C111.15 17.5271 112.511 17.7456 113.845 18.0677C114.982 18.3377 116.079 18.7597 117.106 19.3224C120.065 20.9496 119.787 25.4056 117.27 27.1253C115.909 28.0579 114.42 28.492 113.208 28.4416Z" fill="#292425"/>
<path d="M130.354 28.4444C127.663 28.4655 125.055 27.5057 123.009 25.7417C122.643 25.4336 122.651 25.2039 122.97 24.9015C123.248 24.641 123.401 24.1145 123.929 24.6046C124.88 25.5456 126.04 26.2438 127.313 26.6407C129.535 27.2625 131.757 27.481 133.797 25.991C135.483 24.753 135.822 21.3389 132.963 20.1878C131.43 19.5717 129.813 19.3308 128.24 18.8883C126.932 18.5158 125.648 18.0816 124.651 17.0958C122.748 15.2109 122.945 11.8556 125.073 10.2339C127.018 8.76075 129.188 8.51429 131.524 8.95961C132.946 9.24288 134.288 9.83968 135.455 10.7073C135.749 10.9173 136.077 11.1442 135.694 11.4887C135.416 11.7408 135.316 12.4745 134.605 11.8948C133.756 11.1886 132.768 10.6711 131.707 10.3762C130.645 10.0813 129.534 10.0156 128.446 10.1835C126.271 10.4776 124.393 11.9088 124.904 14.6087C125.146 15.8859 126.104 16.5216 127.171 16.9557C128.503 17.4687 129.879 17.8569 131.282 18.1153C132.697 18.3497 134.026 18.9553 135.136 19.8713C137.339 21.7982 136.933 25.5876 134.33 27.3017C133.145 28.0687 131.762 28.4662 130.354 28.4444Z" fill="#292425"/>
<path d="M53.4386 28.4501C49.3326 28.6209 45.9128 25.8538 44.6322 22.5685C43.0126 18.3954 44.1377 13.354 47.7158 10.6373C50.1605 8.79162 52.8719 8.37711 55.8194 8.99047C57.6085 9.36297 59.0586 10.304 60.4254 11.4551C60.7921 11.7632 60.6782 11.9144 60.4254 12.2085C59.9865 12.7211 59.6642 12.8191 59.1058 12.2926C57.0473 10.332 54.5165 9.69907 51.8162 10.2088C48.9576 10.7493 46.9574 12.5362 45.999 15.3146C44.8266 18.7203 45.2822 21.9187 47.7158 24.6607C48.3641 25.3896 49.1501 25.9808 50.0278 26.3996C50.9055 26.8185 51.8573 27.0567 52.8274 27.1001C55.3666 27.285 57.489 26.4195 59.3392 24.7419C59.917 24.2153 60.2754 24.2517 60.6726 24.9183C60.7977 25.1228 60.7477 25.2684 60.5588 25.4477C59.1947 26.7388 57.689 27.7359 55.8361 28.1924C55.0475 28.3589 54.2443 28.4453 53.4386 28.4501Z" fill="#292425"/>
<path d="M88.4338 39.1348C89.0199 38.8743 88.9477 38.2946 89.1227 37.88C89.495 37.0146 89.7284 36.0904 90.0228 35.1913C90.0603 35.0817 90.1077 34.9757 90.1645 34.8749C90.201 34.7745 90.2746 34.6922 90.3699 34.6453C90.4651 34.5983 90.5747 34.5902 90.6757 34.6228C90.9813 34.7236 90.8618 34.9505 90.7979 35.1409C90.3006 36.5553 89.8089 37.9697 89.2978 39.3756C89.2169 39.7124 89.0976 40.0385 88.9422 40.3475C88.8338 40.5127 88.7699 40.6836 88.5421 40.6444C88.4504 40.6346 88.3631 40.5996 88.2896 40.5433C88.2161 40.4871 88.1594 40.4116 88.1254 40.3251C87.7365 39.1572 87.3503 37.9921 86.9892 36.8158C86.9172 36.5558 86.7655 36.3254 86.5558 36.1576C86.0919 37.5159 85.6474 38.8211 85.1918 40.1206C85.114 40.3475 85.0918 40.664 84.7362 40.6388C84.425 40.6192 84.3612 40.3783 84.2695 40.1206C83.6805 38.457 83.0666 36.8046 82.4693 35.1465C82.4026 34.9645 82.2776 34.6928 82.5915 34.634C82.8443 34.5864 83.1083 34.5864 83.2305 34.9701C83.6722 36.348 84.1584 37.712 84.6417 39.1152C85.1974 38.8351 85.1362 38.275 85.2974 37.8632C85.6502 36.9642 85.9002 36.0203 86.1697 35.0877C86.1902 34.9616 86.2499 34.8453 86.3403 34.7556C86.4307 34.666 86.5471 34.6077 86.6725 34.5892C86.9503 34.5444 86.9864 34.7992 87.0559 34.9897C87.3375 35.6587 87.576 36.3454 87.7698 37.0454C87.9254 37.7596 88.281 38.3926 88.4338 39.1348Z" fill="#292425"/>
<path d="M158.749 36.0007C158.057 36.7292 157.461 37.5455 156.977 38.429C156.627 38.9891 156.399 38.7818 156.143 38.429C155.616 37.67 155.124 36.8857 154.599 36.0819C154.321 36.32 154.421 36.5888 154.418 36.8213C154.418 37.9136 154.418 39.0087 154.418 40.101C154.418 40.3447 154.418 40.5967 154.085 40.5995C153.752 40.6023 153.646 40.4035 153.646 40.0982C153.646 38.4177 153.646 36.7373 153.646 35.0736C153.629 34.9702 153.653 34.8641 153.713 34.7782C153.772 34.6923 153.863 34.6334 153.965 34.6143C154.101 34.5811 154.244 34.5948 154.371 34.6532C154.498 34.7116 154.602 34.8114 154.666 34.9364C155.199 35.7206 155.757 36.4908 156.238 37.3087C156.516 37.7792 156.682 37.6391 156.896 37.3087C157.398 36.5618 157.895 35.8102 158.385 35.054C158.571 34.774 158.777 34.4939 159.152 34.6115C159.527 34.7292 159.408 35.0652 159.408 35.3313C159.408 36.8213 159.408 38.3085 159.408 39.8125C159.408 39.9049 159.408 40.0002 159.408 40.0926C159.383 40.325 159.372 40.5995 159.06 40.6051C158.749 40.6107 158.744 40.325 158.741 40.0954C158.741 39.1655 158.741 38.2357 158.741 37.2946L158.749 36.0007Z" fill="#292425"/>
<path d="M117.381 38.446C117.381 38.9109 117.381 39.3758 117.381 39.8463C117.439 41.3363 116.398 41.8741 115.35 41.9917C114.774 42.0198 114.2 41.8983 113.684 41.6388C113.464 41.5492 113.145 41.4316 113.328 41.0787C113.481 40.7986 113.745 40.9442 113.939 41.0479C114.479 41.3247 115.098 41.403 115.689 41.2691C115.907 41.2409 116.111 41.1447 116.272 40.9941C116.433 40.8434 116.543 40.6458 116.587 40.4289C116.634 40.2356 116.798 40.006 116.587 39.8687C116.375 39.7315 116.2 39.8939 116.031 39.9892C115.717 40.156 115.366 40.2385 115.012 40.2288C114.657 40.219 114.311 40.1173 114.007 39.9334C113.702 39.7495 113.45 39.4897 113.275 39.179C113.099 38.8683 113.006 38.5172 113.004 38.1596C113.002 37.802 113.092 37.45 113.264 37.1374C113.436 36.8249 113.686 36.5624 113.988 36.3753C114.29 36.1881 114.635 36.0827 114.99 36.0691C115.344 36.0556 115.696 36.1343 116.012 36.2978C116.325 36.4518 116.595 36.8215 116.939 36.2082C117.109 35.9057 117.406 36.2334 117.412 36.5695C117.412 37.1968 117.412 37.8242 117.412 38.4544L117.381 38.446ZM115.186 39.6111C116.048 39.6111 116.812 38.8857 116.787 38.1043C116.762 37.3229 115.953 36.6423 115.148 36.6563C114.952 36.6542 114.757 36.6924 114.576 36.7686C114.395 36.8448 114.232 36.9574 114.096 37.0994C113.959 37.2415 113.853 37.4101 113.784 37.5949C113.715 37.7797 113.683 37.9769 113.692 38.1743C113.689 38.3698 113.726 38.5639 113.801 38.7443C113.876 38.9246 113.987 39.0874 114.127 39.2224C114.268 39.3573 114.434 39.4615 114.617 39.5284C114.799 39.5953 114.993 39.6235 115.186 39.6111Z" fill="#292425"/>
<path d="M182.635 39.0228C182.635 38.2302 182.635 37.4403 182.635 36.6505C182.635 36.4461 182.602 36.2136 182.88 36.1408C183.08 36.0904 183.302 36.1408 183.355 36.32C183.513 36.855 183.735 36.5077 183.941 36.3901C184.318 36.1356 184.771 36.0195 185.223 36.0613C185.675 36.1031 186.099 36.3003 186.424 36.6197C187.113 37.2499 187.319 38.4738 186.897 39.4625C186.7 39.8567 186.391 40.1827 186.009 40.3988C185.628 40.6148 185.191 40.7111 184.755 40.6752C184.433 40.642 184.127 40.5188 183.871 40.3195C183.377 39.9246 183.413 40.2747 183.407 40.5996C183.407 40.8797 183.407 41.1597 183.407 41.4398C183.407 41.7199 183.36 41.9635 183.021 41.9804C182.682 41.9972 182.627 41.7367 182.635 41.4622V39.02V39.0228ZM183.396 38.387C183.343 39.4681 184.057 39.989 184.888 40.0422C185.719 40.0954 186.422 39.3364 186.416 38.3618C186.41 37.3871 185.705 36.6393 184.86 36.6645C184.016 36.6897 183.388 37.4123 183.396 38.387Z" fill="#292425"/>
<path d="M121.09 37.6001C121.041 37.0365 121.163 36.4713 121.439 35.9788C121.716 35.4864 122.133 35.0898 122.637 34.8413C123.71 34.2392 124.804 34.3456 125.838 34.9982C126.079 35.1522 126.438 35.3063 126.185 35.676C125.971 35.9869 125.727 35.7824 125.479 35.6228C124.199 34.8021 122.724 35.1466 122.054 36.4042C121.604 37.2444 121.885 38.8296 122.582 39.485C123.226 40.0871 124.674 40.1852 125.465 39.5886C125.521 39.5485 125.574 39.5045 125.624 39.457C125.657 39.4089 125.7 39.3691 125.751 39.3405C125.801 39.312 125.858 39.2954 125.916 39.2922C125.974 39.2889 126.031 39.2991 126.085 39.3218C126.138 39.3445 126.186 39.3793 126.224 39.4234C126.357 39.6026 126.257 39.7987 126.038 39.9835C125.687 40.2746 125.277 40.4837 124.837 40.5959C124.397 40.7082 123.938 40.7207 123.492 40.6326C123.047 40.5445 122.626 40.3579 122.261 40.0864C121.895 39.8148 121.594 39.465 121.379 39.0621C121.183 38.6003 121.085 38.1024 121.09 37.6001Z" fill="#292425"/>
<path d="M169.584 37.4208C169.584 36.6281 169.584 35.8355 169.584 35.0457C169.584 34.7657 169.434 34.3483 169.925 34.3707C170.417 34.3931 170.245 34.8049 170.248 35.0793C170.264 35.9644 170.248 36.8494 170.248 37.7344C170.248 37.9025 170.186 38.1209 170.428 38.2078C170.67 38.2946 170.706 38.0649 170.798 37.9669C171.303 37.4852 171.792 36.981 172.287 36.4853C172.392 36.367 172.511 36.2625 172.642 36.1744C172.806 36.0764 173.056 36.04 173.159 36.1744C173.262 36.3089 173.117 36.4741 172.976 36.6113C172.637 36.9362 172.345 37.3143 172.003 37.6392C171.662 37.9641 171.639 38.1994 171.97 38.5607C172.379 39.0069 172.751 39.4865 173.081 39.9946C173.184 40.1487 173.495 40.3784 173.234 40.5772C173.123 40.6438 172.99 40.6638 172.864 40.6329C172.739 40.602 172.63 40.5227 172.562 40.412C172.259 40.0198 171.95 39.6333 171.631 39.258C171.45 39.0452 171.353 38.6111 170.981 38.7791C170.79 38.8593 170.623 38.9878 170.496 39.1522C170.369 39.3166 170.286 39.5113 170.256 39.7174C170.2 40.0423 170.442 40.622 169.886 40.5856C169.331 40.5492 169.609 39.9862 169.589 39.6557C169.559 38.9107 169.584 38.1658 169.584 37.4208Z" fill="#292425"/>
<path d="M147.62 38.9528V40.2075C147.628 40.2894 147.607 40.3714 147.562 40.4401C147.517 40.5087 147.451 40.56 147.373 40.5856C147.299 40.6218 147.213 40.6271 147.134 40.6004C147.056 40.5737 146.991 40.5171 146.954 40.4428C146.809 40.1067 146.695 40.2439 146.459 40.3784C145.403 40.9861 144.237 40.6893 143.834 39.751C143.761 39.5689 143.728 39.3728 143.739 39.1765C143.75 38.9803 143.803 38.7889 143.896 38.616C143.988 38.4432 144.118 38.293 144.275 38.1765C144.432 38.0599 144.612 37.9797 144.803 37.9417C145.297 37.819 145.811 37.8066 146.309 37.9053C146.484 37.9501 146.754 38.0678 146.865 37.8017C146.901 37.6895 146.905 37.5694 146.878 37.4547C146.851 37.34 146.792 37.2352 146.709 37.1519C146.354 36.743 145.876 36.6898 145.381 36.7458C145.103 36.7738 144.84 36.8494 144.564 36.8914C144.414 36.9138 144.231 36.9699 144.192 36.7206C144.153 36.4713 144.239 36.4041 144.453 36.3201C145.879 35.7599 147.809 36.0064 147.637 38.3954C147.637 38.5803 147.637 38.7679 147.637 38.9556L147.62 38.9528ZM145.762 38.4067L145.19 38.4627C144.828 38.4991 144.534 38.6335 144.453 39.0228C144.403 39.2124 144.423 39.4139 144.509 39.5897C144.596 39.7655 144.743 39.9035 144.923 39.9779C145.551 40.3308 146.062 40.0815 146.554 39.7342C146.703 39.6229 146.815 39.4686 146.876 39.2917C146.937 39.1148 146.944 38.9235 146.895 38.7428C146.809 38.3226 146.404 38.5271 146.148 38.4431C146.021 38.4171 145.891 38.4049 145.762 38.4067Z" fill="#292425"/>
<path d="M164.675 38.9892C164.675 39.3841 164.697 39.779 164.675 40.1739C164.653 40.5688 164.322 40.8208 164.119 40.5015C163.808 40.0422 163.636 40.3363 163.389 40.4567C162.416 40.9245 161.383 40.6696 160.941 39.849C160.852 39.668 160.805 39.4691 160.803 39.2671C160.801 39.0651 160.844 38.8653 160.93 38.6826C161.015 38.5 161.141 38.3392 161.297 38.2123C161.453 38.0854 161.635 37.9958 161.83 37.9501C162.37 37.8208 162.931 37.8103 163.475 37.9193C164.052 38.0481 164.052 37.6924 163.872 37.3199C163.611 36.7794 163.094 36.7121 162.572 36.7373C162.275 36.7373 161.98 36.841 161.683 36.883C161.516 36.9054 161.302 37.0146 161.263 36.7037C161.233 36.4797 161.33 36.3928 161.541 36.3116C162.93 35.7515 164.839 35.9951 164.705 38.3618C164.691 38.569 164.705 38.7791 164.705 38.9892H164.675ZM162.83 38.4094C162.652 38.4262 162.422 38.443 162.197 38.471C162.028 38.4709 161.864 38.5327 161.737 38.6451C161.61 38.7574 161.527 38.9125 161.505 39.0816C161.464 39.2497 161.481 39.427 161.555 39.5836C161.628 39.7402 161.753 39.8666 161.908 39.9414C162.185 40.0966 162.505 40.157 162.82 40.1136C163.134 40.0702 163.426 39.9252 163.652 39.7005C163.788 39.5761 163.887 39.4153 163.936 39.2369C163.985 39.0585 163.983 38.8696 163.93 38.6923C163.833 38.3478 163.458 38.5214 163.214 38.4486C163.087 38.4235 162.959 38.4104 162.83 38.4094Z" fill="#292425"/>
<path d="M194.25 38.9528C194.25 39.3477 194.25 39.7454 194.25 40.1403C194.265 40.2325 194.247 40.3271 194.2 40.4075C194.153 40.4879 194.079 40.549 193.992 40.58C193.95 40.6011 193.904 40.6131 193.857 40.6153C193.81 40.6174 193.763 40.6097 193.72 40.5926C193.676 40.5754 193.636 40.5492 193.603 40.5157C193.57 40.4822 193.544 40.4421 193.528 40.3979C193.38 40.0367 193.275 40.2663 193.094 40.3699C192.094 40.9301 190.941 40.7228 190.486 39.891C190.389 39.7088 190.336 39.5066 190.329 39.3001C190.323 39.0937 190.364 38.8885 190.449 38.7007C190.534 38.5128 190.662 38.3474 190.821 38.2172C190.98 38.087 191.166 37.9956 191.366 37.9501C191.881 37.813 192.42 37.7986 192.941 37.9081C193.105 37.9501 193.355 38.0481 193.447 37.8437C193.491 37.7348 193.504 37.6158 193.484 37.5C193.465 37.3842 193.413 37.2762 193.336 37.1883C192.972 36.7374 192.472 36.6982 191.947 36.7458C191.694 36.771 191.447 36.8438 191.197 36.8858C191.041 36.9138 190.855 36.9754 190.802 36.743C190.75 36.5105 190.802 36.4209 191.036 36.3173C192.764 35.519 194.233 36.4293 194.242 38.3254L194.25 38.9528ZM193.489 38.9528C193.489 38.7539 193.533 38.5327 193.211 38.4962C192.667 38.3857 192.107 38.3857 191.564 38.4962C191.444 38.5321 191.334 38.597 191.245 38.6855C191.156 38.7739 191.089 38.883 191.052 39.0034C191.014 39.1237 191.007 39.2514 191.029 39.3754C191.052 39.4995 191.105 39.6159 191.183 39.7146C191.347 39.9145 191.571 40.0555 191.822 40.1165C192.072 40.1776 192.335 40.1555 192.572 40.0535C193.055 39.8714 193.536 39.6277 193.475 38.95L193.489 38.9528Z" fill="#292425"/>
<path d="M73.824 38.9109C73.824 39.3282 73.824 39.7511 73.824 40.1656C73.824 40.3925 73.7573 40.5969 73.4906 40.6109C73.2239 40.6249 73.1878 40.3813 73.185 40.1712C73.185 39.429 73.2072 38.684 73.16 37.9306C73.1239 37.3705 72.8822 36.8916 72.2766 36.7487C72.0211 36.6802 71.751 36.6923 71.5026 36.7835C71.2542 36.8746 71.0395 37.0404 70.8876 37.2584C70.7569 37.449 70.6987 37.6807 70.7237 37.911C70.707 38.6308 70.7014 39.3506 70.7237 40.0704C70.7237 40.3673 70.6403 40.5885 70.3208 40.5969C70.0014 40.6053 69.9458 40.3393 69.9458 40.062C69.9458 38.3199 69.9458 36.5788 69.9458 34.8386C69.9458 34.5585 69.9764 34.3681 70.2903 34.3653C70.6042 34.3625 70.7459 34.4913 70.7264 34.8302C70.6987 35.2951 70.7264 35.76 70.7264 36.2306C70.7264 36.4238 70.7403 36.5863 71.0376 36.4546C72.9044 35.6144 73.8323 36.239 73.8462 38.2779V38.9053L73.824 38.9109Z" fill="#292425"/>
<path d="M104.519 36.1884C104.164 36.7103 103.74 37.1814 103.26 37.5888C102.86 37.9669 102.893 38.2526 103.224 38.6363C103.618 39.0984 103.969 39.5969 104.335 40.0843C104.446 40.2327 104.721 40.3895 104.466 40.5828C104.366 40.6471 104.246 40.6724 104.129 40.6538C104.012 40.6352 103.905 40.5741 103.83 40.482C103.499 40.1039 103.218 39.6866 102.896 39.3029C102.704 39.0788 102.618 38.6111 102.207 38.7791C102.015 38.8565 101.847 38.9829 101.718 39.146C101.59 39.3091 101.505 39.5031 101.474 39.709C101.413 40.0338 101.663 40.6332 101.11 40.5912C100.557 40.5492 100.832 39.947 100.832 39.6109C100.799 38.0509 100.813 36.4937 100.832 34.9337C100.832 34.7124 100.696 34.3735 101.132 34.3735C101.504 34.3735 101.477 34.6704 101.477 34.9337C101.477 35.8635 101.477 36.7962 101.493 37.7344C101.493 37.9081 101.446 38.1349 101.665 38.2218C101.885 38.3086 101.979 38.0649 102.096 37.9417C102.588 37.4572 103.057 36.9558 103.532 36.4545C103.644 36.3062 103.802 36.1996 103.98 36.1514C104.159 36.1032 104.348 36.1163 104.519 36.1884Z" fill="#292425"/>
<path d="M176.471 38.6896C176.076 38.6896 175.684 38.6896 175.293 38.6896C175.12 38.6896 174.895 38.628 174.818 38.8632C174.756 39.0509 174.865 39.2049 174.973 39.3645C175.091 39.54 175.243 39.6899 175.42 39.8053C175.596 39.9206 175.794 39.9992 176.001 40.0362C176.208 40.0733 176.421 40.0682 176.626 40.0211C176.831 39.9741 177.025 39.886 177.196 39.7622C177.435 39.6082 177.673 39.457 177.848 39.7006C178.023 39.9443 177.721 40.1152 177.543 40.2608C177.111 40.5696 176.587 40.7189 176.059 40.6837C175.53 40.6485 175.03 40.4309 174.643 40.0675C174.246 39.627 174.017 39.0592 173.995 38.4646C173.974 37.87 174.162 37.287 174.526 36.8187C174.839 36.4276 175.282 36.1654 175.774 36.0813C176.265 35.9972 176.77 36.0971 177.193 36.3622C177.921 36.8019 178.079 37.5469 178.176 38.3003C178.207 38.5467 177.965 38.6868 177.701 38.6868H176.471V38.6896ZM176.107 38.1602C176.432 38.1602 176.754 38.1602 177.076 38.1602C177.44 38.1602 177.548 37.9502 177.423 37.6673C177.196 37.152 176.851 36.6982 176.254 36.6282C175.657 36.5582 175.248 36.8915 174.945 37.3732C174.643 37.855 174.756 38.1406 175.348 38.1574C175.59 38.1686 175.843 38.1602 176.095 38.1602H176.107Z" fill="#292425"/>
<path d="M77.4242 38.6922C77.0548 38.6922 76.6853 38.6922 76.313 38.6922C75.7574 38.6922 75.7574 38.9723 75.9658 39.3532C76.3797 40.0758 77.4048 40.2943 78.2216 39.7985C78.4577 39.6529 78.7021 39.4597 78.866 39.7005C79.0855 40.0226 78.7049 40.1935 78.5049 40.3335C78.1075 40.5885 77.6418 40.7141 77.1711 40.693C76.7004 40.672 76.2476 40.5054 75.8741 40.2159C75.5035 39.8908 75.2352 39.4638 75.1019 38.9871C74.9687 38.5105 74.9763 38.005 75.124 37.5328C75.283 37.0715 75.5901 36.6769 75.9968 36.4116C76.4034 36.1462 76.8862 36.0253 77.3687 36.068C77.8854 36.137 78.3572 36.4 78.6898 36.8045C79.0225 37.209 79.1916 37.7251 79.1633 38.2497C79.1662 38.3136 79.155 38.3773 79.1303 38.4362C79.1057 38.495 79.0683 38.5476 79.0209 38.5901C78.9735 38.6325 78.9173 38.6637 78.8563 38.6814C78.7954 38.699 78.7313 38.7028 78.6688 38.6922C78.2521 38.6922 77.8354 38.6922 77.4215 38.6922H77.4242ZM77.052 38.1601C77.2603 38.1601 77.4687 38.1601 77.6771 38.1601C77.9549 38.1461 78.2854 38.2581 78.3771 37.88C78.4071 37.7324 78.3971 37.5794 78.3482 37.437C78.2993 37.2946 78.2134 37.168 78.0993 37.0706C77.4631 36.4209 76.6436 36.4741 76.0769 37.2023C75.9791 37.3001 75.9104 37.4235 75.8785 37.5586C75.8465 37.6937 75.8527 37.8351 75.8963 37.9669C76.0102 38.2469 76.2908 38.1349 76.5047 38.1517C76.7186 38.1685 76.8686 38.1601 77.052 38.1601Z" fill="#292425"/>
<path d="M202.584 38.6895C202.237 38.6895 201.89 38.6895 201.545 38.6895C201.37 38.6895 201.137 38.6251 201.051 38.8323C201.016 38.9432 201.011 39.0614 201.037 39.1747C201.063 39.288 201.118 39.3923 201.198 39.4765C201.459 39.7901 201.826 39.9943 202.228 40.0492C202.631 40.1041 203.039 40.0058 203.373 39.7734C203.615 39.625 203.859 39.4625 204.02 39.709C204.181 39.9554 203.887 40.1655 203.687 40.2943C203.348 40.5395 202.947 40.6816 202.53 40.7039C202.114 40.7262 201.7 40.6279 201.337 40.4204C200.994 40.2494 200.707 39.9827 200.51 39.6521C200.313 39.3214 200.214 38.9406 200.226 38.5551C200.203 36.9811 201.059 35.9952 202.448 36.0596C202.979 36.1095 203.471 36.3643 203.82 36.7708C204.17 37.1773 204.35 37.7042 204.323 38.2414C204.293 38.5691 204.143 38.6923 203.837 38.6867C203.417 38.6839 203.004 38.6867 202.584 38.6895ZM202.22 38.1602C202.451 38.1602 202.684 38.1602 202.915 38.1602C203.559 38.1434 203.726 37.8241 203.384 37.2667C203.271 37.0844 203.117 36.9324 202.933 36.8238C202.749 36.7151 202.542 36.653 202.329 36.6428C202.116 36.6326 201.904 36.6746 201.711 36.7652C201.518 36.8559 201.349 36.9924 201.22 37.1631C201.127 37.2631 201.06 37.3845 201.024 37.5168C200.988 37.6491 200.985 37.7883 201.014 37.9221C201.106 38.2526 201.423 38.149 201.667 38.1602C201.853 38.1686 202.028 38.1602 202.223 38.1602H202.22Z" fill="#292425"/>
<path d="M131.202 38.8408C131.202 39.3058 131.202 39.7707 131.202 40.2412C131.202 40.398 131.152 40.5717 130.949 40.6109C130.824 40.6333 130.691 40.6109 130.671 40.4849C130.56 40.0872 130.416 40.2244 130.152 40.3672C129.502 40.7201 128.824 40.8378 128.115 40.4541C127.842 40.3337 127.62 40.1189 127.49 39.8483C127.359 39.5778 127.329 39.2692 127.404 38.9781C127.453 38.7173 127.58 38.4781 127.768 38.293C127.957 38.108 128.197 37.9863 128.457 37.9446C128.998 37.8191 129.558 37.8124 130.102 37.925C130.577 38.0174 130.68 37.8074 130.493 37.3816C130.246 36.8215 129.752 36.7375 129.235 36.6983C129.102 36.6983 128.957 36.7683 128.829 36.7571C128.527 36.7347 128.077 37.1856 127.949 36.6927C127.821 36.1997 128.429 36.2305 128.724 36.1325C129.261 35.9729 129.839 36.024 130.341 36.2754C130.577 36.368 130.782 36.528 130.93 36.7358C131.078 36.9437 131.163 37.1905 131.174 37.4461C131.196 37.9082 131.23 38.3731 131.257 38.8464L131.202 38.8408ZM129.427 38.4011C129.302 38.4011 129.118 38.4319 128.935 38.4403C128.418 38.4683 128.138 38.7204 128.127 39.2581C128.115 39.7959 128.468 40.0087 128.913 40.118C129.106 40.1524 129.304 40.1471 129.495 40.1023C129.686 40.0575 129.866 39.9743 130.024 39.8575C130.223 39.7556 130.383 39.5909 130.48 39.3887C130.577 39.1864 130.606 38.9576 130.563 38.7372C130.474 38.2863 130.032 38.5272 129.76 38.4235C129.65 38.4054 129.538 38.4007 129.427 38.4095V38.4011Z" fill="#292425"/>
<path d="M93.8124 40.6836C93.5096 40.6957 93.2076 40.6448 92.9252 40.534C92.6428 40.4232 92.3861 40.255 92.1711 40.0398C91.956 39.8246 91.7873 39.567 91.6754 39.2831C91.5634 38.9992 91.5107 38.6952 91.5205 38.3898C91.5078 38.0827 91.5579 37.7761 91.6678 37.4893C91.7776 37.2025 91.9449 36.9416 92.1591 36.7227C92.3733 36.5039 92.6299 36.3318 92.9129 36.2173C93.1958 36.1027 93.4992 36.0481 93.804 36.0568C94.4078 36.0588 94.9871 36.2981 95.4187 36.7238C95.8503 37.1495 96.1002 37.7281 96.1154 38.3366C96.1097 38.953 95.866 39.5429 95.4361 39.981C95.0061 40.4192 94.4237 40.6713 93.8124 40.6836ZM95.3931 38.443C95.4106 37.9984 95.2581 37.5639 94.967 37.2293C94.676 36.8947 94.2686 36.6855 93.829 36.645C93.0179 36.6085 92.2261 37.3928 92.1622 38.2806C92.1698 38.7192 92.3332 39.1405 92.6227 39.4679C92.9123 39.7953 93.3088 40.0071 93.7401 40.0647C94.1693 40.0656 94.5819 39.898 94.8905 39.5973C95.1991 39.2967 95.3794 38.8867 95.3931 38.4542V38.443Z" fill="#292425"/>
<path d="M133.427 36.7711C134.736 35.8469 135.764 35.8413 136.561 36.7487C136.92 37.2021 137.117 37.7643 137.121 38.3445C137.124 38.9248 136.934 39.4894 136.58 39.9472C135.747 40.9022 134.813 40.919 133.338 39.9304C133.338 40.4457 133.338 40.9022 133.338 41.3531C133.338 41.5828 133.452 41.9413 133.06 41.9525C132.61 41.9525 132.747 41.5688 132.747 41.3251C132.732 39.8314 132.732 38.3377 132.747 36.8439C132.747 36.5947 132.599 36.2194 132.988 36.141C133.472 36.0569 133.236 36.6003 133.427 36.7711ZM133.333 38.3507C133.324 38.7889 133.485 39.2134 133.781 39.5336C134.078 39.8538 134.488 40.0444 134.922 40.0648C135.755 40.0648 136.391 39.3562 136.408 38.404C136.425 37.4517 135.741 36.6591 134.908 36.6647C134.483 36.6943 134.085 36.8843 133.793 37.1969C133.501 37.5094 133.337 37.9214 133.333 38.3507Z" fill="#292425"/>
<path d="M107.914 38.3533C107.914 37.7708 107.914 37.191 107.914 36.6113C107.914 36.4264 107.914 36.2192 108.139 36.152C108.364 36.0847 108.522 36.1015 108.597 36.3284C108.714 36.6729 108.85 36.502 109.044 36.3928C110.433 35.6114 111.639 36.208 111.822 37.7932C111.871 38.5587 111.879 39.3262 111.847 40.0926C111.847 40.3727 111.753 40.6107 111.419 40.6023C111.086 40.5939 111.142 40.2999 111.142 40.0842C111.142 39.3868 111.142 38.6838 111.142 37.992C111.142 37.2022 110.639 36.6841 109.93 36.6925C109.764 36.6917 109.598 36.7245 109.444 36.7888C109.29 36.8531 109.15 36.9477 109.032 37.067C108.914 37.1864 108.821 37.3282 108.759 37.4841C108.696 37.64 108.665 37.807 108.666 37.9752C108.644 38.695 108.666 39.4148 108.666 40.1346C108.666 40.3979 108.605 40.6107 108.291 40.5939C108.027 40.5939 107.955 40.3895 107.955 40.157L107.914 38.3533Z" fill="#292425"/>
<path d="M66.1401 37.8802C66.1401 37.1604 66.1235 36.4406 66.1401 35.7208C66.1401 35.3483 66.0123 35.2251 65.6595 35.2419C65.3067 35.2587 64.9206 35.2419 64.5483 35.2419C64.3511 35.2419 64.1649 35.2167 64.1399 34.9618C64.1327 34.9147 64.1361 34.8666 64.1499 34.8211C64.1636 34.7755 64.1874 34.7336 64.2195 34.6986C64.2515 34.6636 64.291 34.6364 64.3349 34.6189C64.3789 34.6014 64.4262 34.5942 64.4733 34.5977C65.8123 34.5977 67.1541 34.5977 68.4932 34.5977C68.5395 34.5923 68.5865 34.598 68.6302 34.6145C68.6739 34.6309 68.7131 34.6576 68.7446 34.6924C68.7761 34.7271 68.7989 34.7689 68.8112 34.8143C68.8235 34.8597 68.825 34.9073 68.8154 34.9534C68.8154 35.1634 68.6821 35.2335 68.4959 35.2335C68.3793 35.2335 68.2654 35.2335 68.1487 35.2335C66.8624 35.2503 66.8624 35.2503 66.8624 36.5162C66.8624 37.6533 66.8624 38.7923 66.8624 39.9331C66.8624 40.2412 66.8624 40.5969 66.4485 40.5969C66.0346 40.5969 66.1457 40.2048 66.1401 39.9611C66.129 39.2749 66.1401 38.5776 66.1401 37.8802Z" fill="#292425"/>
<path d="M195.361 38.3898C195.349 37.9771 195.451 37.5691 195.654 37.2107C195.857 36.8524 196.155 36.5578 196.514 36.3592C196.871 36.1373 197.284 36.0249 197.703 36.0359C198.121 36.0468 198.528 36.1806 198.873 36.4209C199.073 36.5497 199.398 36.6729 199.223 36.981C199.023 37.3479 198.776 37.1098 198.534 36.981C197.72 36.5133 196.992 36.6085 196.481 37.2303C196.254 37.559 196.132 37.95 196.132 38.3506C196.132 38.7512 196.254 39.1421 196.481 39.4709C196.733 39.773 197.089 39.9692 197.477 40.021C197.866 40.0728 198.259 39.9765 198.581 39.7509C198.837 39.5773 199.106 39.4149 199.287 39.6865C199.467 39.9582 199.126 40.101 198.934 40.2467C198.609 40.51 198.212 40.6682 197.796 40.7007C197.381 40.7331 196.965 40.6384 196.603 40.4287C196.224 40.2452 195.905 39.9552 195.684 39.5936C195.464 39.232 195.352 38.814 195.361 38.3898Z" fill="#292425"/>
<path d="M142.3 39.9611C142.531 39.9415 142.736 39.8155 142.784 40.1235C142.808 40.2248 142.792 40.3316 142.741 40.4218C142.689 40.5119 142.605 40.5786 142.506 40.6081C142.346 40.67 142.175 40.6982 142.003 40.6911C141.832 40.684 141.664 40.6416 141.509 40.5666C141.355 40.4916 141.217 40.3855 141.105 40.2549C140.992 40.1243 140.907 39.9719 140.856 39.8071C140.669 39.1489 140.775 38.4683 140.75 37.7989C140.726 37.6383 140.726 37.475 140.75 37.3144C140.911 36.7738 139.958 36.8019 140.217 36.3397C140.4 36.0148 140.856 35.8608 140.756 35.3455C140.735 35.2837 140.729 35.2178 140.739 35.1534C140.748 35.0889 140.772 35.0275 140.81 34.9743C140.847 34.9211 140.896 34.8775 140.954 34.8471C141.011 34.8167 141.074 34.8003 141.139 34.7993C141.514 34.7993 141.481 35.141 141.45 35.3595C141.356 36.0316 141.703 36.1493 142.256 36.0989C142.492 36.0765 142.811 36.012 142.811 36.4126C142.811 36.8131 142.486 36.8046 142.222 36.771C141.619 36.6954 141.389 36.9167 141.442 37.5412C141.476 38.0504 141.476 38.5613 141.442 39.0705C141.436 39.7454 141.717 40.0479 142.3 39.9611Z" fill="#292425"/>
<path d="M179.476 38.2807C179.437 37.9805 179.437 37.6763 179.476 37.3761C179.638 36.7963 178.818 36.8663 178.887 36.4126C178.946 36.0513 179.61 36.0821 179.476 35.5276C179.399 35.2111 179.443 34.7994 179.899 34.8246C180.288 34.8442 180.213 35.2391 180.177 35.494C180.113 36.0681 180.407 36.1522 180.877 36.1297C181.118 36.1297 181.491 35.9841 181.513 36.4322C181.535 36.9336 181.132 36.8215 180.868 36.7963C180.313 36.7403 180.14 36.9784 180.177 37.5133C180.207 38.073 180.207 38.634 180.177 39.1938C180.154 39.8127 180.454 40.034 181.029 39.9864C181.207 39.9864 181.457 39.8015 181.502 40.1656C181.546 40.5297 181.316 40.6109 181.052 40.6698C180.218 40.863 179.529 40.3197 179.46 39.4038C179.432 39.0341 179.46 38.6616 179.46 38.2835L179.476 38.2807Z" fill="#292425"/>
<path d="M98.1292 36.9167C98.4322 36.5506 98.8262 36.2723 99.271 36.1101C99.4543 36.0569 99.7155 35.9841 99.7321 36.323C99.7321 36.5386 99.8016 36.7543 99.4682 36.8607C98.3403 37.2276 98.0792 37.6253 98.0431 38.8212C98.0431 39.2385 98.0431 39.6615 98.0431 40.0732C98.0431 40.3533 98.0042 40.6053 97.6653 40.6333C97.3263 40.6613 97.2958 40.3672 97.2958 40.1012C97.2958 39.0565 97.2958 38.0118 97.2958 36.9671C97.2958 36.6871 97.1235 36.2445 97.5958 36.1605C98.0681 36.0765 98.0236 36.5162 98.1292 36.9167Z" fill="#292425"/>
<path d="M166.1 38.3562C166.1 37.7541 166.1 37.1519 166.1 36.547C166.1 36.3929 166.072 36.2081 166.278 36.138C166.321 36.12 166.367 36.1108 166.413 36.1111C166.46 36.1113 166.506 36.121 166.549 36.1396C166.591 36.1581 166.63 36.1851 166.662 36.219C166.694 36.2529 166.72 36.293 166.736 36.3369C166.922 36.757 167.144 36.6926 167.447 36.4461C167.647 36.2923 167.872 36.1748 168.111 36.0988C168.275 36.0428 168.508 36.0176 168.536 36.2949C168.556 36.4909 168.628 36.7766 168.353 36.8214C166.906 37.0483 166.839 38.1266 166.836 39.2525C166.836 39.5325 166.836 39.8126 166.836 40.0927C166.836 40.3728 166.714 40.6109 166.403 40.6165C166.092 40.6221 166.125 40.3224 166.108 40.1011C166.094 39.5158 166.1 38.936 166.1 38.3562Z" fill="#292425"/>
<path d="M189.119 37.4599C189.119 38.3449 189.119 39.2272 189.119 40.1122C189.119 40.3643 189.102 40.6051 188.783 40.6051C188.463 40.6051 188.347 40.4175 188.347 40.1066C188.347 38.3393 188.347 36.5721 188.347 34.802C188.347 34.4855 188.508 34.3931 188.761 34.3707C189.077 34.3398 189.127 34.5331 189.125 34.8076C189.111 35.6926 189.119 36.5749 189.119 37.4599Z" fill="#292425"/>
<path d="M149.815 37.4711C149.815 38.3309 149.815 39.1907 149.815 40.0478C149.815 40.3782 149.731 40.6219 149.373 40.6079C149.015 40.5939 149.04 40.2942 149.042 40.0478C149.042 38.3281 149.042 36.6084 149.042 34.8888C149.042 34.5947 149.079 34.3734 149.431 34.3931C149.784 34.4127 149.831 34.6031 149.823 34.9084C149.801 35.7598 149.815 36.6 149.815 37.4711Z" fill="#292425"/>
<path d="M105.713 38.3283C105.713 37.7457 105.713 37.1632 105.713 36.5834C105.713 36.3762 105.691 36.1437 105.991 36.1269C106.043 36.1174 106.097 36.1196 106.148 36.1334C106.199 36.1473 106.246 36.1724 106.287 36.2069C106.327 36.2415 106.36 36.2846 106.381 36.3333C106.403 36.3819 106.414 36.4348 106.413 36.4882C106.426 37.7429 106.426 38.9995 106.413 40.258C106.415 40.3114 106.404 40.3644 106.382 40.4129C106.36 40.4614 106.327 40.5042 106.286 40.538C106.245 40.5718 106.197 40.5957 106.145 40.6078C106.094 40.62 106.04 40.6201 105.988 40.6081C105.738 40.5857 105.71 40.4148 105.71 40.2132C105.716 39.5858 105.716 38.9556 105.713 38.3283Z" fill="#292425"/>
<path d="M138.455 38.3253C138.455 37.7232 138.455 37.121 138.455 36.5189C138.455 36.3368 138.455 36.1295 138.733 36.1267C139.011 36.1239 139.044 36.292 139.044 36.4936C139.044 37.7465 139.044 38.9985 139.044 40.2495C139.044 40.4539 138.975 40.6219 138.728 40.6079C138.48 40.5939 138.45 40.3923 138.45 40.2046C138.452 39.5801 138.455 38.9527 138.455 38.3253Z" fill="#292425"/>
<path d="M138.744 35.2361C138.466 35.2642 138.364 35.0681 138.358 34.8581C138.353 34.648 138.455 34.4183 138.772 34.4379C139.089 34.4575 139.169 34.6424 139.164 34.8917C139.158 35.1409 138.98 35.2445 138.744 35.2361Z" fill="#292425"/>
<path d="M106.086 35.2335C105.822 35.2671 105.688 35.1691 105.702 34.8918C105.702 34.6621 105.669 34.4185 106.036 34.4325C106.313 34.4325 106.477 34.4997 106.483 34.8134C106.488 35.127 106.38 35.2531 106.086 35.2335Z" fill="#292425"/>
</g>
<defs>
<clipPath id="clip0_4919_14883">
<rect width="223" height="42" fill="white"/>
</clipPath>
</defs>
</svg>
