<svg width="42" height="36" viewBox="0 0 42 36" fill="none" xmlns="http://www.w3.org/2000/svg">
<path d="M38.9025 0.187729H3.17562C1.82308 0.187729 0.722656 1.26814 0.722656 2.5961V26.8145C0.722656 28.1425 1.82308 29.2229 3.17562 29.2229H15.4178V30.9752C15.4178 32.5817 14.0866 33.8887 12.4505 33.8887H9.75242C9.23515 33.8887 8.81573 34.3004 8.81573 34.8083C8.81573 35.3163 9.23515 35.728 9.75242 35.728H32.3255C32.8428 35.728 33.2622 35.3163 33.2622 34.8083C33.2622 34.3004 32.8428 33.8887 32.3255 33.8887H29.6274C27.9912 33.8887 26.66 32.5817 26.66 30.9752V29.2229H38.9023C40.2548 29.2229 41.3553 28.1425 41.3553 26.8146V2.5961C41.3555 1.26814 40.255 0.187729 38.9025 0.187729ZM16.2711 33.8888C16.9096 33.0835 17.2914 32.0727 17.2914 30.9754V29.223H24.7868V30.9754C24.7868 32.0727 25.1686 33.0835 25.8071 33.8888H16.2711ZM39.4821 26.8146C39.4821 27.1283 39.2221 27.3837 38.9024 27.3837H3.17562C2.85604 27.3837 2.59597 27.1284 2.59597 26.8146V21.9811H39.4821V26.8146ZM39.4821 20.1417H2.59605V2.5961C2.59605 2.28232 2.85604 2.02698 3.1757 2.02698H38.9024C39.222 2.02698 39.4821 2.28224 39.4821 2.5961V20.1417H39.4821Z" fill="#4F4F4F"/>
</svg>
