<svg width="48" height="44" viewBox="0 0 48 44" fill="none" xmlns="http://www.w3.org/2000/svg">
<path d="M46.5856 37.7251H44.2781C44.4559 37.3787 44.5569 36.9868 44.5569 36.5715L44.5561 17.8061C44.5561 17.424 44.2465 17.1144 43.8645 17.1144C43.4825 17.1144 43.1729 17.4241 43.1729 17.8061L43.1736 36.5715C43.1736 37.2071 42.6566 37.7242 42.0209 37.7242L6.05772 37.7251C5.42208 37.7251 4.90502 37.2081 4.90502 36.5724L4.9041 12.5973C4.9041 11.9616 5.42116 11.4446 6.0568 11.4446L24.4086 11.4437C24.1707 11.8635 24.1352 12.3736 24.3221 12.827L21.8706 12.8271C21.8692 12.8271 21.8678 12.8269 21.8664 12.8269H20.6146C20.6127 12.8269 20.6108 12.8271 20.609 12.8271L6.97896 12.8278C6.59691 12.8278 6.28734 13.1375 6.28734 13.5194L6.28798 28.1256C6.28798 28.5077 6.59764 28.8173 6.9796 28.8173C7.36165 28.8173 7.67122 28.5076 7.67122 28.1256L7.67057 14.211L19.0287 14.2105C18.9344 14.5874 18.8288 15.0484 18.7787 15.4038C18.7705 15.4624 18.7335 15.5157 18.6797 15.5467L17.5232 16.2129C17.4693 16.244 17.4043 16.2496 17.349 16.2271C16.9562 16.0688 16.3948 15.9026 15.9929 15.7912C15.2962 15.5979 14.5561 15.8997 14.1942 16.5251L13.5692 17.6051C13.2061 18.2324 13.3146 19.0249 13.833 19.5323C14.13 19.823 14.5539 20.2242 14.8877 20.4843C14.934 20.5202 14.9616 20.5785 14.9616 20.6402V21.9709C14.9616 22.0326 14.9339 22.091 14.8877 22.127C14.5539 22.387 14.1299 22.7882 13.833 23.0789C13.3146 23.5863 13.2061 24.3789 13.5692 25.0061L14.1942 26.0861C14.5561 26.7115 15.2958 27.0137 15.993 26.82C16.3948 26.7086 16.9562 26.5424 17.3493 26.384C17.404 26.3618 17.4691 26.3672 17.5231 26.3983L18.6797 27.0644C18.7335 27.0954 18.7705 27.1488 18.7787 27.2073C18.8377 27.6258 18.9737 28.192 19.0775 28.5931C19.2588 29.2944 19.8908 29.7842 20.6145 29.7842H21.8664C22.5901 29.7842 23.2221 29.2944 23.4033 28.5932C23.5071 28.1919 23.6432 27.6258 23.7022 27.2073C23.7105 27.1488 23.7475 27.0954 23.8011 27.0644L24.9579 26.3983C25.0117 26.3672 25.0767 26.3617 25.1319 26.3841C25.5246 26.5424 26.0861 26.7086 26.488 26.8201C27.1846 27.0131 27.9247 26.7115 28.2867 26.0861L28.9117 25.0061C29.2748 24.3788 29.1662 23.5863 28.6479 23.0789C28.3509 22.7882 27.927 22.387 27.5931 22.1271C27.5468 22.091 27.5192 22.0326 27.5192 21.9709V20.6402C27.5192 20.5785 27.5467 20.5202 27.593 20.4842C27.9269 20.2242 28.3509 19.823 28.6478 19.5323C29.1661 19.0249 29.2747 18.2323 28.9116 17.6051L28.2866 16.5251C27.9246 15.8997 27.1851 15.5977 26.4877 15.7912C26.086 15.9026 25.5245 16.0688 25.1315 16.2272C25.0767 16.2492 25.0116 16.2439 24.9577 16.2129L23.8009 15.5466C23.7473 15.5157 23.7103 15.4624 23.7021 15.4039C23.6519 15.0484 23.5463 14.5872 23.4521 14.2103L25.1111 14.2102C25.4929 14.759 26.1845 15.0139 26.8386 14.8321C27.2406 14.7206 27.8022 14.5544 28.1948 14.3961C28.2496 14.3741 28.3147 14.3793 28.3687 14.4104L29.5253 15.0766C29.5791 15.1076 29.6161 15.1609 29.6243 15.2194C29.6834 15.638 29.8193 16.2042 29.9231 16.6052C30.1043 17.3065 30.7364 17.7964 31.4601 17.7964H32.7119C33.4356 17.7964 34.0677 17.3065 34.2489 16.6053C34.3527 16.2041 34.4888 15.638 34.5478 15.2194C34.5561 15.1609 34.593 15.1076 34.6467 15.0766L35.8034 14.4104C35.8574 14.3793 35.9223 14.3739 35.9775 14.3962C36.3702 14.5545 36.9316 14.7207 37.3336 14.8322C37.9873 15.0134 38.6791 14.759 39.061 14.2102H40.406L40.407 34.9578L7.6715 34.9586L7.67131 31.1108C7.67131 30.7287 7.36165 30.4191 6.97969 30.4191C6.59764 30.4191 6.28808 30.7288 6.28808 31.1108L6.28826 35.6503C6.28826 36.0323 6.59792 36.3419 6.97988 36.3419L41.0988 36.341C41.2822 36.341 41.4581 36.2681 41.5879 36.1384C41.7175 36.0087 41.7904 35.8328 41.7904 35.6493L41.7895 13.5185C41.7895 13.1364 41.4798 12.8269 41.0978 12.8269H39.8503C40.0371 12.3735 40.0015 11.8634 39.7637 11.4436H42.02C42.6556 11.4436 43.1727 11.9607 43.1727 12.5963L43.1728 14.8723C43.1728 15.2544 43.4825 15.5639 43.8644 15.5639C44.2465 15.5639 44.556 15.2543 44.556 14.8723L44.5559 12.5963C44.5559 11.1981 43.4183 10.0604 42.02 10.0604H38.3811C38.3711 10.0362 38.3649 10.0101 38.3649 9.98285V8.65218C38.3649 8.59049 38.3925 8.53221 38.439 8.49615C38.7727 8.23601 39.1967 7.83487 39.4937 7.5443C40.012 7.03684 40.1205 6.24424 39.7575 5.61708L39.1325 4.53705C38.7705 3.91165 38.0308 3.60946 37.3336 3.8032C36.9314 3.91478 36.3696 4.08096 35.9774 4.2392C35.9226 4.26114 35.8575 4.25589 35.8036 4.2249L34.6468 3.55855C34.5931 3.52766 34.5562 3.47436 34.548 3.4159C34.4888 2.99696 34.3528 2.43094 34.2492 2.03008C34.0679 1.32878 33.4358 0.838928 32.7121 0.838928H31.4603C30.7366 0.838928 30.1045 1.32878 29.9233 2.02999C29.8196 2.43103 29.6835 2.99696 29.6245 3.4158C29.6163 3.47436 29.5793 3.52766 29.5255 3.55865L28.3689 4.22481C28.3148 4.25607 28.2498 4.26133 28.195 4.2392C27.8032 4.08114 27.2412 3.91478 26.8386 3.80311C26.1419 3.60992 25.4019 3.91165 25.04 4.53705L24.4149 5.61708C24.0519 6.24434 24.1604 7.03684 24.6787 7.5443C24.9755 7.83478 25.3993 8.23573 25.7335 8.49624C25.7798 8.53221 25.8074 8.59049 25.8074 8.65218V9.98285C25.8074 10.01 25.8012 10.0362 25.7912 10.0604L6.0568 10.0613C4.65853 10.0613 3.52087 11.199 3.52087 12.5973L3.52179 36.5724C3.52179 36.9874 3.62267 37.379 3.8001 37.7251H1.49212C0.907381 37.7251 0.431641 38.2009 0.431641 38.7856V40.6299C0.431641 42.3333 1.81746 43.7191 3.52087 43.7191H35.83C36.2121 43.7191 36.5216 43.4096 36.5216 43.0275C36.5216 42.6455 36.2121 42.3359 35.83 42.3359H3.52087C2.58017 42.3359 1.81488 41.5706 1.81488 40.6299V39.1083H19.1053V39.5233C19.1053 40.5148 19.912 41.3215 20.9035 41.3215H27.1742C28.1657 41.3215 28.9724 40.5148 28.9724 39.5233V39.1083H46.2628V40.6299C46.2628 41.5706 45.4976 42.3359 44.5569 42.3359H38.8151C38.4331 42.3359 38.1235 42.6455 38.1235 43.0275C38.1235 43.4096 38.4331 43.7191 38.8151 43.7191H44.5569C46.2603 43.7191 47.6461 42.3333 47.6461 40.6299V38.7856C47.6461 38.2009 47.1703 37.7251 46.5856 37.7251ZM22.0642 14.3643C22.1982 14.8825 22.2935 15.3203 22.3325 15.597C22.4008 16.0814 22.6846 16.4998 23.1108 16.7452L24.2676 17.4116C24.693 17.6565 25.1965 17.6924 25.6489 17.51C25.9088 17.4052 26.3381 17.2682 26.8573 17.124C26.9474 17.0989 27.0429 17.1375 27.0894 17.2179L27.7145 18.2979C27.7607 18.3777 27.7466 18.4789 27.6801 18.5439C27.2964 18.9196 26.9635 19.2212 26.7429 19.393C26.3572 19.6935 26.1359 20.1481 26.1359 20.6402V21.9709C26.1359 22.463 26.3571 22.9176 26.7429 23.2181C26.9636 23.39 27.2964 23.6916 27.6801 24.0673C27.7466 24.1323 27.7607 24.2335 27.7145 24.3133L27.0894 25.3933C27.0429 25.4736 26.9471 25.5119 26.8575 25.4873C26.338 25.3431 25.9088 25.206 25.6491 25.1013C25.1963 24.9187 24.6928 24.9546 24.2674 25.1997L23.1107 25.8659C22.6844 26.1115 22.4007 26.53 22.3324 27.0142V27.0143C22.2934 27.2909 22.1981 27.7287 22.0641 28.247C22.0406 28.3376 21.9593 28.4011 21.8663 28.4011H20.6144C20.5214 28.4011 20.4401 28.3376 20.4165 28.2469C20.2825 27.7287 20.1873 27.2909 20.1483 27.0142C20.08 26.53 19.7963 26.1115 19.37 25.8659L18.2134 25.1997C17.9672 25.0579 17.695 24.9862 17.4216 24.9862C17.2223 24.9862 17.0224 25.0243 16.8317 25.1012C16.5719 25.206 16.1426 25.343 15.6233 25.4872C15.5331 25.5124 15.4377 25.4736 15.3912 25.3933L14.7662 24.3133C14.72 24.2335 14.7341 24.1323 14.8006 24.0673C15.1843 23.6916 15.5172 23.39 15.7379 23.218C16.1236 22.9175 16.3448 22.463 16.3448 21.9709V20.6402C16.3448 20.1481 16.1235 19.6934 15.7378 19.3931C15.5171 19.2212 15.1843 18.9196 14.8006 18.5439C14.7341 18.4789 14.72 18.3777 14.7662 18.2979L15.3912 17.2179C15.4378 17.1376 15.5337 17.0992 15.6232 17.1239C16.1427 17.2681 16.5719 17.4052 16.8316 17.5099C17.2841 17.6924 17.7876 17.6566 18.2133 17.4115L19.3699 16.7453C19.7962 16.4998 20.08 16.0814 20.1483 15.5969C20.1873 15.3203 20.2825 14.8825 20.4166 14.3642C20.4398 14.2745 20.5197 14.2117 20.6115 14.2104L21.8684 14.2103C21.9607 14.2113 22.0409 14.2742 22.0642 14.3643ZM25.6465 6.55584C25.58 6.49083 25.5659 6.38967 25.6121 6.3099L26.2371 5.22987C26.2836 5.14955 26.3794 5.11119 26.469 5.1359C26.9894 5.28022 27.4185 5.41734 27.6774 5.52182C28.1299 5.70441 28.6335 5.66854 29.0592 5.42343L30.2157 4.75726C30.6421 4.51179 30.9258 4.09331 30.9941 3.6089C31.0331 3.33207 31.1284 2.89432 31.2625 2.37616C31.2859 2.28552 31.3672 2.22207 31.4603 2.22207H32.7121C32.8052 2.22207 32.8865 2.28552 32.91 2.37626C33.044 2.89432 33.1393 3.33207 33.1783 3.609C33.2466 4.09331 33.5303 4.51179 33.9566 4.75717L35.1134 5.42352C35.539 5.66854 36.0425 5.7045 36.4949 5.52182C36.7541 5.41725 37.1833 5.28031 37.7032 5.13599C37.7931 5.11082 37.8888 5.14946 37.9353 5.22987L38.5603 6.3099C38.6065 6.38967 38.5924 6.49083 38.526 6.55584C38.1423 6.93143 37.8094 7.23316 37.589 7.40487C37.2031 7.7054 36.9818 8.15993 36.9818 8.65218V9.98285C36.9818 10.475 37.203 10.9296 37.5888 11.2301C37.8095 11.402 38.1423 11.7037 38.526 12.0793C38.5924 12.1443 38.6065 12.2455 38.5603 12.3252L37.9353 13.4053C37.8888 13.4856 37.793 13.5239 37.7034 13.4992C37.1838 13.3551 36.7547 13.218 36.495 13.1133C36.0426 12.9308 35.5388 12.9665 35.1132 13.2117L33.9566 13.8779C33.5303 14.1234 33.2466 14.542 33.1783 15.0261V15.0262C33.1393 15.3029 33.044 15.7406 32.9099 16.259C32.8865 16.3496 32.8052 16.4131 32.7121 16.4131H31.4603C31.3672 16.4131 31.2859 16.3496 31.2624 16.2589C31.1284 15.7406 31.0331 15.3029 30.9941 15.0261C30.9258 14.542 30.6422 14.1234 30.2158 13.8779L29.0593 13.2117C28.8131 13.0699 28.5408 12.9981 28.2674 12.9981C28.0681 12.9981 27.8683 13.0363 27.6776 13.1132C27.4181 13.2179 26.9888 13.3549 26.4692 13.4991C26.3791 13.5243 26.2836 13.4857 26.2371 13.4053L26.1146 13.1936C26.1108 13.1863 26.1064 13.1794 26.1024 13.1724L25.6121 12.3252C25.5659 12.2455 25.58 12.1443 25.6465 12.0793C26.0299 11.7039 26.3628 11.4022 26.5837 11.23C26.9695 10.9294 27.1906 10.4749 27.1906 9.98285V8.65218C27.1906 8.16002 26.9694 7.7054 26.5837 7.40505C26.3627 7.23289 26.0299 6.93125 25.6465 6.55584ZM27.5892 39.5233C27.5892 39.7521 27.403 39.9383 27.1742 39.9383H20.9035C20.6747 39.9383 20.4886 39.7521 20.4886 39.5233V39.1083H27.5892V39.5233Z" fill="#4F4F4F"/>
<path d="M32.0863 13.0838C34.1672 13.0838 35.8602 11.3943 35.8602 9.31753C35.8602 7.24083 34.1673 5.55135 32.0863 5.55135C30.0054 5.55135 28.3125 7.24083 28.3125 9.31753C28.3125 11.3943 30.0054 13.0838 32.0863 13.0838ZM31.0086 11.4437H33.1641C32.8399 11.6075 32.4739 11.7006 32.0863 11.7006C31.6988 11.7006 31.3327 11.6075 31.0086 11.4437ZM32.0863 6.93467C33.4046 6.93467 34.4769 8.00364 34.4769 9.31762C34.4769 9.57702 34.4346 9.82656 34.3573 10.0605H29.8153C29.7382 9.82656 29.6957 9.57702 29.6957 9.31762C29.6957 8.00355 30.7681 6.93467 32.0863 6.93467Z" fill="#4F4F4F"/>
<path d="M17.4668 21.3056C17.4668 23.3824 19.1597 25.0719 21.2406 25.0719C23.3216 25.0719 25.0145 23.3824 25.0145 21.3056C25.0145 19.2289 23.3216 17.5394 21.2406 17.5394C19.1597 17.5394 17.4668 19.229 17.4668 21.3056ZM23.6312 21.3056C23.6312 22.6196 22.5589 23.6887 21.2406 23.6887C19.9224 23.6887 18.85 22.6196 18.85 21.3056C18.85 19.9916 19.9224 18.9227 21.2406 18.9227C22.5589 18.9227 23.6312 19.9916 23.6312 21.3056Z" fill="#4F4F4F"/>
</svg>
