<svg width="60" height="73" fill="none" xmlns="http://www.w3.org/2000/svg"><path d="M21.322 72.513c-2.633 0-5.265.02-7.897 0-2.781-.028-5.562-.014-8.343-.016-1.603 0-3.207.016-4.808.037-.255 0-.295-.044-.193-.283 2.44-5.76 4.875-11.523 7.307-17.287 2.138-5.064 4.275-10.13 6.412-15.195a62646.335 62646.335 0 0013.287-31.47c1.142-2.683 2.278-5.37 3.41-8.064a.334.334 0 01.368-.231h28.837c.255 0 .264.065.176.273L52.51 17.87c-2.34 5.593-4.677 11.185-7.015 16.778-2.408 5.758-4.817 11.512-7.225 17.264-2.246 5.37-4.492 10.74-6.736 16.112-.594 1.418-1.192 2.832-1.776 4.252a.35.35 0 01-.391.248H21.33l-.009-.011z" fill="#55B4ED"/></svg>