<svg width="60" height="89" fill="none" xmlns="http://www.w3.org/2000/svg"><path d="M1.967 85.042H7.05V86H.58v-.879l4.87-7.043H.662v-.965h6.194v.86l-4.888 7.069zm8.776-2.356H7.765v-.922h2.978v.922zM13.283 86H12.11v-8.887h1.171V86zm8.105-7.922H18.53V86h-1.165v-7.922h-2.85v-.965h6.872v.965zm10.736 6.756c-.301.431-.722.755-1.263.97-.538.212-1.164.318-1.88.318-.725 0-1.368-.169-1.929-.507a3.435 3.435 0 01-1.306-1.452c-.305-.627-.462-1.353-.47-2.18v-.774c0-1.339.311-2.377.934-3.113.626-.737 1.505-1.105 2.636-1.105.928 0 1.675.238 2.24.714.566.472.912 1.144 1.038 2.014h-1.172c-.22-1.175-.92-1.763-2.1-1.763-.785 0-1.38.276-1.788.83-.403.549-.606 1.346-.61 2.392v.727c0 .996.228 1.79.683 2.38.456.586 1.073.879 1.85.879.44 0 .824-.049 1.153-.147.33-.097.603-.262.818-.494v-1.996h-2.057v-.952h3.223v3.26zm2.844-5.438l.03.732c.485-.57 1.138-.854 1.96-.854.924 0 1.552.354 1.886 1.062a2.51 2.51 0 01.855-.77c.354-.194.77-.292 1.25-.292 1.45 0 2.186.767 2.21 2.301V86H42.03v-4.358c0-.472-.108-.824-.324-1.056-.215-.236-.577-.354-1.086-.354-.419 0-.767.126-1.044.379-.276.248-.437.584-.482 1.007V86H37.96v-4.327c0-.96-.47-1.44-1.41-1.44-.74 0-1.247.314-1.52.945V86H33.9v-6.604h1.068zm15.491 3.375c0 1.01-.232 1.821-.696 2.436-.464.61-1.086.915-1.867.915-.835 0-1.48-.295-1.935-.885l-.055.763h-1.038v-9.375h1.13v3.497c.455-.565 1.084-.848 1.885-.848.802 0 1.43.303 1.886.91.46.606.69 1.436.69 2.49v.097zm-1.13-.128c0-.769-.148-1.363-.445-1.782-.297-.42-.724-.629-1.282-.629-.744 0-1.28.346-1.605 1.038v2.856c.346.692.885 1.038 1.618 1.038.54 0 .962-.21 1.263-.629.301-.419.452-1.05.452-1.892zM58.895 86h-1.178v-4.108h-4.48V86h-1.172v-8.887h1.172v3.821h4.48v-3.82h1.178V86zm-36.93-16.02c-2.588 0-5.177.02-7.765 0-2.735-.026-5.469-.013-8.203-.015-1.577 0-3.154.015-4.729.035-.25 0-.289-.042-.189-.27 2.399-5.489 4.794-10.98 7.185-16.472a68353.565 68353.565 0 0113.235-30.377l6.136-14.087c1.122-2.557 2.24-5.118 3.352-7.684a.32.32 0 01.139-.175.337.337 0 01.223-.046h28.356c.25 0 .26.062.173.26l-7.244 16.765A45751.596 45751.596 0 0138.632 50.35c-2.21 5.116-4.417 10.234-6.624 15.352-.584 1.352-1.172 2.698-1.746 4.052a.335.335 0 01-.146.189.353.353 0 01-.239.047h-7.902l-.01-.01zM1.002 34.377V1.264c0-.433-.055-.375.399-.375H14.77c.326 0 .326 0 .207.287L4.794 25.465a3890.617 3890.617 0 00-3.635 8.675c-.034.08-.07.16-.107.239l-.05-.002zm58.976 2.15v32.51c0 .256.011.512.023.766 0 .135-.053.197-.194.186H46.222c-.333 0-.333 0-.203-.305l7.18-17.133a24185.14 24185.14 0 016.654-15.856.24.24 0 01.125-.168z" fill="#fff"/></svg>