<svg width="24" height="34" fill="none" xmlns="http://www.w3.org/2000/svg"><path d="M12 .001C5.385.001.003 5.301.003 11.818c0 8.189 12.012 22.181 12.012 22.181s11.987-14.393 11.987-22.181C24 5.302 18.617 0 12 0zm3.618 15.279a5.146 5.146 0 01-2.622 1.38 5.194 5.194 0 01-2.959-.287 5.105 5.105 0 01-2.298-1.857 4.99 4.99 0 01-.863-2.802c0-.998.3-1.973.863-2.802a5.105 5.105 0 012.298-1.858 5.194 5.194 0 012.96-.286 5.145 5.145 0 012.621 1.38 5.024 5.024 0 011.115 1.634 4.962 4.962 0 01.001 3.861 5.022 5.022 0 01-1.113 1.636h-.003z" fill="#fff"/></svg>