<svg xmlns="http://www.w3.org/2000/svg" viewBox="0 0 224.23 47.63"><defs><style>.cls-1{fill:#fff}</style></defs><g id="Слой_2" data-name="Слой 2"><g id="Слой_1-2" data-name="Слой 1"><path class="cls-1" d="M3.79 43.86l-1-2.21-1 2.21zm.16.35H1.69l-.27.62a1.4 1.4 0 00-.13.52.43.43 0 00.22.4 1.67 1.67 0 00.62.11V46H0v-.18a1 1 0 00.57-.28 3.9 3.9 0 00.55-1l2.29-5.12h.09l2.31 5.26a3.18 3.18 0 00.55.94.68.68 0 00.45.17V46h-3.1v-.18h.13a1 1 0 00.52-.1.25.25 0 00.11-.22.51.51 0 000-.17L4.3 45zm6.79-2.59v3.46a1.18 1.18 0 00.1.63.54.54 0 00.38.16V46h-1.8v-.59a2.27 2.27 0 01-.64.55 1.49 1.49 0 01-.71.17 1.06 1.06 0 01-.66-.23 1.08 1.08 0 01-.41-.5 3.75 3.75 0 01-.1-1.07v-1.75a1.3 1.3 0 00-.07-.58.59.59 0 00-.39-.16v-.17h1.8v3a2.43 2.43 0 000 .61.39.39 0 00.14.21.42.42 0 00.23.07.53.53 0 00.3-.09 1.92 1.92 0 00.46-.5v-2.39a1.16 1.16 0 00-.1-.63.56.56 0 00-.38-.16v-.17zm3.57-.13l.08 1.51h-.17a2.35 2.35 0 00-.6-.92 1 1 0 00-.61-.24.44.44 0 00-.33.13.39.39 0 00-.14.3.4.4 0 00.09.24 4.83 4.83 0 00.85.67 3.4 3.4 0 01.92.8 1.33 1.33 0 01.22.73 1.5 1.5 0 01-.19.73 1.23 1.23 0 01-.52.54 1.43 1.43 0 01-.74.19 2.71 2.71 0 01-.85-.2h-.19c-.1 0-.19.08-.26.24h-.16l-.07-1.6h.16a2 2 0 00.58.94 1.11 1.11 0 00.71.31.48.48 0 00.36-.13.45.45 0 00.15-.34.65.65 0 00-.14-.4 4.42 4.42 0 00-.64-.5 5 5 0 01-.93-.76 1.37 1.37 0 010-1.78 1.24 1.24 0 011-.42 1.42 1.42 0 01.69.18.63.63 0 00.21.07.21.21 0 00.14 0 .81.81 0 00.16-.2zM16.65 40v1.61h1.05v.47h-1.05v2.73a2.28 2.28 0 000 .5.38.38 0 00.13.18.27.27 0 00.16.06c.21 0 .4-.15.58-.46l.14.1a1.28 1.28 0 01-1.24.91 1.12 1.12 0 01-.71-.23 1 1 0 01-.37-.53 4.54 4.54 0 01-.05-.87v-2.39h-.58v-.16a6 6 0 001-.89 5.46 5.46 0 00.73-1zm3.22 1.62v1a3.15 3.15 0 01.77-.91 1.14 1.14 0 01.63-.23.58.58 0 01.43.17.66.66 0 01.16.46.74.74 0 01-.16.49.46.46 0 01-.37.18.61.61 0 01-.43-.17l-.22-.18a.2.2 0 00-.11 0 .39.39 0 00-.26.1.94.94 0 00-.31.47 3.2 3.2 0 00-.15 1v1.28a1.23 1.23 0 000 .35.45.45 0 00.17.19 1.21 1.21 0 00.38.07V46h-2.34v-.17a.55.55 0 00.39-.16 1.45 1.45 0 00.1-.71v-2.41a1.6 1.6 0 000-.48.35.35 0 00-.14-.19.6.6 0 00-.31-.09v-.17zM24.28 45v-1.44a2.71 2.71 0 00-.85.72.88.88 0 00-.18.51.53.53 0 00.16.39.42.42 0 00.33.13.88.88 0 00.54-.27m0 .34a2.3 2.3 0 01-1.45.72.85.85 0 01-.63-.25.87.87 0 01-.25-.62 1.22 1.22 0 01.44-.91 8.28 8.28 0 011.89-1.08v-.44a2 2 0 00-.05-.63.46.46 0 00-.21-.23.65.65 0 00-.34-.1.87.87 0 00-.5.14.24.24 0 00-.12.2.38.38 0 00.13.24.62.62 0 01.18.4.51.51 0 01-.18.39.61.61 0 01-.45.17.74.74 0 01-.5-.19.53.53 0 01-.2-.42 1 1 0 01.27-.64 1.68 1.68 0 01.75-.48 3.15 3.15 0 011-.17 1.62 1.62 0 011 .27 1.22 1.22 0 01.48.58 4.12 4.12 0 01.06.91V45a1.4 1.4 0 000 .38.24.24 0 00.07.12.2.2 0 00.11 0c.08 0 .16-.05.25-.17l.14.11a1.72 1.72 0 01-.49.51 1 1 0 01-.57.16.91.91 0 01-.6-.18.86.86 0 01-.26-.54m3.88-5.77v5.5a1 1 0 00.11.6.59.59 0 00.42.15V46h-2.39v-.17a.64.64 0 00.44-.17 1.11 1.11 0 00.09-.58v-4.54a1 1 0 00-.11-.59.55.55 0 00-.42-.15v-.18zm2.68 2v3.5a1.07 1.07 0 00.11.6.59.59 0 00.43.15V46H29v-.17a.64.64 0 00.44-.17 1.09 1.09 0 00.09-.58v-2.54a1.07 1.07 0 00-.11-.6.55.55 0 00-.42-.15v-.17zm-.66-2.15a.67.67 0 01.52.22.71.71 0 010 1 .73.73 0 01-.52.21.69.69 0 01-.51-.21.74.74 0 01.51-1.25M33.93 45v-1.44a2.6 2.6 0 00-.85.72.83.83 0 00-.19.51.53.53 0 00.16.39.45.45 0 00.33.13.9.9 0 00.55-.27m0 .34a2.32 2.32 0 01-1.45.72.85.85 0 01-.88-.87 1.21 1.21 0 01.43-.91 8.19 8.19 0 011.9-1.08v-.44a1.9 1.9 0 00-.06-.63.44.44 0 00-.2-.23.67.67 0 00-.34-.1.88.88 0 00-.51.14.24.24 0 00-.12.2.38.38 0 00.13.24.62.62 0 01.18.4.54.54 0 01-.17.39.64.64 0 01-.45.17.72.72 0 01-.5-.19.5.5 0 01-.2-.42 1 1 0 01.27-.64 1.68 1.68 0 01.75-.48 3 3 0 011-.17 1.62 1.62 0 011 .27 1.22 1.22 0 01.48.58 3.4 3.4 0 01.07.91V45a2.47 2.47 0 000 .38.35.35 0 00.07.12.2.2 0 00.11 0 .32.32 0 00.25-.17l.14.11a1.6 1.6 0 01-.49.51 1 1 0 01-.57.16.89.89 0 01-.59-.18.82.82 0 01-.26-.54m3.83-3.77v.57a2.5 2.5 0 01.65-.54 1.43 1.43 0 01.68-.17 1.07 1.07 0 01.71.24 1.19 1.19 0 01.38.6 4.6 4.6 0 01.07 1v1.72a1.36 1.36 0 00.09.64.57.57 0 00.39.16V46h-2.24v-.17a.45.45 0 00.36-.21 1.37 1.37 0 00.08-.59v-2a4 4 0 000-.69.4.4 0 00-.15-.22.37.37 0 00-.22-.08c-.27 0-.53.2-.76.58v2.37a1.36 1.36 0 00.09.63.47.47 0 00.35.17V46H36v-.17a.58.58 0 00.4-.18 1.42 1.42 0 00.08-.62v-2.45a1.16 1.16 0 00-.1-.63.59.59 0 00-.38-.16v-.17zm11.68-2.14v2.26h-.17a2.94 2.94 0 00-.95-1.41 2.28 2.28 0 00-1.39-.48 1.79 1.79 0 00-1.2.4 2.24 2.24 0 00-.67 1.13 5.83 5.83 0 000 3.1 1.79 1.79 0 00.7 1 2 2 0 001.15.33 2.59 2.59 0 00.47 0 3.12 3.12 0 00.5-.14V44.3a1.24 1.24 0 000-.48.41.41 0 00-.22-.21.75.75 0 00-.39-.09h-.16v-.17h3.11v.17a1.41 1.41 0 00-.49.1.52.52 0 00-.22.24 1.33 1.33 0 000 .44v1.34a7.07 7.07 0 01-1.28.41 6.87 6.87 0 01-1.38.14 3.91 3.91 0 01-1.51-.25 3.74 3.74 0 01-1.07-.65 3 3 0 01-1-2.37 3.3 3.3 0 011-2.45 3.49 3.49 0 012.56-1 4.57 4.57 0 01.86.08 4.51 4.51 0 01.67.21 2.92 2.92 0 00.55.18.4.4 0 00.25-.09 1.09 1.09 0 00.21-.37zm3.09 2.34a.58.58 0 00-.42.18 1.26 1.26 0 00-.22.72 14.19 14.19 0 00-.06 1.49 7.06 7.06 0 00.07.95 1 1 0 00.22.51.54.54 0 00.39.18.62.62 0 00.36-.12.82.82 0 00.24-.46 9.94 9.94 0 00.1-1.81 4.47 4.47 0 00-.09-1.1.83.83 0 00-.27-.44.47.47 0 00-.32-.1m0-.34a2.07 2.07 0 011.08.3 1.89 1.89 0 01.75.85 2.78 2.78 0 01.26 1.2 2.51 2.51 0 01-.48 1.57 1.88 1.88 0 01-1.6.77 1.81 1.81 0 01-1.53-.7 2.74 2.74 0 010-3.28 1.82 1.82 0 011.51-.71m4.16 4.69l-1.49-3.43a3.42 3.42 0 00-.42-.78.52.52 0 00-.32-.17v-.18h2.35v.18a.43.43 0 00-.3.08.31.31 0 00-.11.25 2 2 0 00.2.65l.73 1.66.58-1.43a2.68 2.68 0 00.25-.87.28.28 0 00-.11-.24.63.63 0 00-.37-.1v-.18h1.45v.18a.57.57 0 00-.34.16 2.73 2.73 0 00-.4.75l-1.48 3.47zm4.76-2.82a3.91 3.91 0 00-.09-1 .77.77 0 00-.26-.43.36.36 0 00-.26-.09.45.45 0 00-.4.24 2.05 2.05 0 00-.28 1.16v.16zm1.16.32h-2.43a2.33 2.33 0 00.47 1.39 1 1 0 00.79.39.9.9 0 00.51-.15 2.36 2.36 0 00.5-.58l.16.1a2.7 2.7 0 01-.8 1 1.71 1.71 0 01-1 .3 1.66 1.66 0 01-1.49-.76 2.66 2.66 0 01-.41-1.51 2.5 2.5 0 01.6-1.76 1.83 1.83 0 011.4-.66 1.49 1.49 0 011.16.56 2.52 2.52 0 01.54 1.63m2.1-2v1a3.15 3.15 0 01.77-.91 1.14 1.14 0 01.63-.23.58.58 0 01.43.17.66.66 0 01.16.46.74.74 0 01-.16.49.46.46 0 01-.37.18.61.61 0 01-.43-.17l-.22-.18a.2.2 0 00-.11 0 .39.39 0 00-.26.1.94.94 0 00-.29.46 3.2 3.2 0 00-.15 1v1.28a1.23 1.23 0 000 .35.45.45 0 00.17.19 1.21 1.21 0 00.38.07V46h-2.36v-.17a.55.55 0 00.39-.16 1.45 1.45 0 00.1-.71v-2.41a1.6 1.6 0 000-.48.34.34 0 00-.13-.19.68.68 0 00-.32-.09v-.17zm4.07 0v.57a2.53 2.53 0 01.66-.54 1.39 1.39 0 01.67-.17 1.07 1.07 0 01.71.24 1.13 1.13 0 01.38.6 4.6 4.6 0 01.07 1v1.72a1.36 1.36 0 00.09.64.59.59 0 00.39.16V46H69.5v-.17a.48.48 0 00.36-.21 1.43 1.43 0 00.07-.59v-2a3.15 3.15 0 000-.69.4.4 0 00-.15-.22.35.35 0 00-.22-.08c-.27 0-.52.2-.76.58v2.37a1.36 1.36 0 00.09.63.47.47 0 00.35.17V46H67v-.17a.56.56 0 00.4-.18 1.42 1.42 0 00.08-.62v-2.45a1.16 1.16 0 00-.1-.63.56.56 0 00-.38-.16v-.17zm5.13 0v.58a2.45 2.45 0 01.67-.56 1.55 1.55 0 01.68-.16 1.24 1.24 0 01.71.2 1.26 1.26 0 01.45.61 2.78 2.78 0 01.72-.62 1.62 1.62 0 01.73-.19 1.1 1.1 0 01.73.22 1 1 0 01.38.53 3.58 3.58 0 01.11 1v1.81a1.36 1.36 0 00.09.64.59.59 0 00.38.16V46h-2.28v-.17a.54.54 0 00.4-.21 1.37 1.37 0 00.08-.59v-1.9a3 3 0 000-.75.42.42 0 00-.15-.24.36.36 0 00-.23-.08.67.67 0 00-.41.15 2.08 2.08 0 00-.43.45v2.37a1.4 1.4 0 00.08.6.5.5 0 00.42.2V46h-2.34v-.17a.55.55 0 00.29-.09.43.43 0 00.14-.2 1.86 1.86 0 000-.51v-1.9a2.88 2.88 0 00-.05-.75.45.45 0 00-.16-.24.4.4 0 00-.23-.08.6.6 0 00-.35.1 1.64 1.64 0 00-.47.5v2.37a1.4 1.4 0 00.09.62.48.48 0 00.39.18V46h-2.24v-.17a.55.55 0 00.39-.18 1.27 1.27 0 00.08-.62v-2.45a1.3 1.3 0 00-.09-.63.59.59 0 00-.38-.16v-.17zm8.43 1.73a3.91 3.91 0 00-.09-1 .82.82 0 00-.25-.43.4.4 0 00-.27-.09.46.46 0 00-.4.24 2.05 2.05 0 00-.31 1.12v.16zm1.16.32h-2.43a2.33 2.33 0 00.47 1.39 1 1 0 00.79.39.9.9 0 00.51-.15 2.17 2.17 0 00.5-.58l.16.1a2.69 2.69 0 01-.79 1 1.76 1.76 0 01-1 .3 1.67 1.67 0 01-1.49-.76 2.66 2.66 0 01-.41-1.51 2.5 2.5 0 01.6-1.76 1.84 1.84 0 011.4-.66A1.53 1.53 0 0183 42a2.52 2.52 0 01.53 1.63m1.92-2.01v.57a2.53 2.53 0 01.66-.54 1.39 1.39 0 01.67-.17 1.07 1.07 0 01.71.24 1.13 1.13 0 01.38.6 4.6 4.6 0 01.07 1v1.72a1.51 1.51 0 00.09.64.59.59 0 00.39.16V46h-2.23v-.17a.44.44 0 00.35-.21 1.23 1.23 0 00.08-.59v-2a3.15 3.15 0 000-.69.4.4 0 00-.15-.22.35.35 0 00-.22-.08c-.27 0-.52.2-.76.58v2.37a1.36 1.36 0 00.09.63.49.49 0 00.35.17V46h-2.28v-.17a.56.56 0 00.4-.18 1.42 1.42 0 00.08-.62v-2.45A1.16 1.16 0 0084 42a.56.56 0 00-.38-.16v-.17zM90.3 40v1.61h1v.47h-1v2.73a1.77 1.77 0 000 .5.36.36 0 00.12.18.32.32 0 00.17.06c.2 0 .4-.15.58-.46l.14.1a1.28 1.28 0 01-1.24.91 1.12 1.12 0 01-.71-.23 1 1 0 01-.37-.53 3.8 3.8 0 010-.87v-2.39h-.59v-.16a5.58 5.58 0 001-.89 5.51 5.51 0 00.74-1zM39.13 19.52a.23.23 0 10-.23-.23.23.23 0 00.23.23m10.5-5.08h-2.54V10h2.54zm0 2.13a1.44 1.44 0 01-.55 1.11l-2 1.19v-4.2h2.54zm-2.77-2.13h-2.34V10h2.34zm0 4.57l-.92.55a.41.41 0 01-.24.08.38.38 0 01-.25-.09l-.93-.55v-4.33h2.34zm-3.29-6.21h.72v1.64h-.72zm.72 6.07l-2-1.19a1.47 1.47 0 01-.54-1.11v-1.9h2.54zm-1.66-7.18h-.88V10h.88zm.22-1.08l.1-.1-.06-.12H43l.08-.14.08.14h.14l-.07.12.11.1h-.13v.15l-.13-.1-.12.1v-.15zm.62 1.81c0-.05-.07-.06-.09-.06s-.11.13-.18.14-.08 0-.08-.06.1-.07.14-.11c-.54 0-.55.25-.64.25s.12-.27.2-.34c-.11 0-.18-.15-.3-.22.06-.08.09 0 .16 0s0-.13.17-.13.18.24.21.24 0-.24.16-.24.54.62.27.62 0-.09 0-.1m-.58 1.31h.13l.08-.14.08.14h.14l-.07.12.11.11h-.13v.15l-.15-.1-.12.09V14h-.13l.1-.11zm-1-1.66H42l.08-.14.08.14h.14l-.06.12.1.1h-.13v.15l-.13-.1-.12.1v-.15h-.13l.1-.1zm-.15.73h.88v1.64h-.88zm2-.51l.1-.1-.07-.12h.14l.08-.14.08.14h.14l-.07.12.11.1h-.14v.15l-.12-.1-.12.1v-.15zm.52-.6h-.72V10h.72zm5.57-1.95h-8.33v6.74a1.52 1.52 0 00.66 1.39l3.21 1.92a.38.38 0 00.29.13.4.4 0 00.26-.1l3.26-1.95a1.51 1.51 0 00.65-1.39V9.74z"/><path class="cls-1" d="M44.15 16.21s-.31.1-.23.1.18-.28.26-.35-.15 0-.3.07c.48-.68.17-.4-.09-.35.42-.46.31-.45 0-.31.24-.2.3-.43.26-.5-.23.31-.44.26-.44.55a1.12 1.12 0 01-.17.6c-.12.13 0-.51-.35-.51-.11 0-.35 0-.43.12.07 0 .17.17.17.24s.06.25 0 .25-.24-.23-.24-.34v-.25a.91.91 0 00-.61-.65c0 .19.24.23.24.47-.1 0-.25-.19-.25-.07s.15.14.15.25-.17 0-.17.07.09.08.12.18-.14 0-.15 0 0 .07.07.1 0 .08 0 .24c0 .53.33.78.57.78s.15-.13.17-.18.1-.05.1.11-.17.09-.17.23.26 0 .26.21a2.43 2.43 0 010 .34c0 .07.28-.09.26-.12s.07.22.19.22.1-.2.16-.22.26.19.26.1c0-.25-.11-.15-.11-.32s.35-.12.3-.2-.08 0-.12-.15c0 0-.27-.39.06-.18s.38-.52.36-.56M53.06 18a.25.25 0 10-.28-.25.26.26 0 00.28.25m-1.06.64a.25.25 0 10-.28-.25.26.26 0 00.28.25m-13.24 1.51a.25.25 0 00.27-.24.26.26 0 00-.27-.24.26.26 0 00-.28.24.25.25 0 00.28.24m.85.08a.25.25 0 100-.49.25.25 0 100 .49M63.36 8.72a1.74 1.74 0 01.2 1.82c-.16 0-.13-.22-.16-.34a2.2 2.2 0 01-.26-1.85c.19 0 .11.27.22.37m-34.84.66a2.52 2.52 0 000 1.16c-.08.07-.06-.07-.13-.06-.57-.41-.31-1.22-.46-1.79a.12.12 0 01.15 0 1.08 1.08 0 01.44.72m36.09.01c.09.16-.08.33-.19.4a.38.38 0 01-.37-.16.34.34 0 01.18-.38.37.37 0 01.38.14m-36.98.65a.46.46 0 01-.19.32c-.09 0-.22 0-.28-.07a.27.27 0 01-.06-.32.34.34 0 01.28-.13c.1 0 .2.07.25.19m37.54.26a.31.31 0 010 .23.33.33 0 01-.39.14.43.43 0 01-.16-.25.47.47 0 01.25-.27.46.46 0 01.3.15m-.82.01c.11.06 0 .21 0 .3s-.17.19-.31.14-.15-.07-.18-.17a.31.31 0 01.2-.34c.12 0 .19 0 .28.07m-1.06.22c0 .16 0 .37-.17.4s-.29-.09-.34-.21a.37.37 0 01.22-.35.41.41 0 01.29.16m-34.07.08c.05.14-.1.23-.18.3a.29.29 0 01-.3-.16c-.1-.1 0-.19.06-.28a.27.27 0 01.42.14m-.87.04a.3.3 0 01-.16.28.26.26 0 01-.29-.13.25.25 0 01.13-.34c.16-.06.26.09.32.19m31.42.06a3 3 0 01.29 1c-.06.28.05.65-.16.84-.2-.07-.22-.32-.35-.46a2.54 2.54 0 01.06-1.61c.12 0 .12.11.16.18m-32.1.22c0 .18-.09.27-.19.37s-.29-.09-.37-.2a.29.29 0 01.56-.17m34.4.43a2.12 2.12 0 01.07 1.41l-.08.07a5.32 5.32 0 01-.6-1.19 1.9 1.9 0 01.18-.83c.1-.08.15 0 .2.1a.55.55 0 00.23.44m1.84-.26a.41.41 0 01-.22.35.27.27 0 01-.34-.18.33.33 0 01.16-.35c.16-.09.32.06.4.18m-35.54.45a.31.31 0 01-.22.28c-.12.09-.21-.06-.31-.1a.37.37 0 010-.34c.05-.09.15-.09.23-.12s.27.13.3.28m.64-.07c.05.14-.11.22-.16.29s-.27-.07-.34-.18.06-.23.16-.32.26.08.34.21m35.3-.05c0 .19-.3.38-.33.57a1.5 1.5 0 01-.91.83.72.72 0 01-.33.19c0-.3.23-.56.39-.83a2.22 2.22 0 011.18-.76m-36.24.6a5.6 5.6 0 00.6.69.11.11 0 01-.1.14c-.71 0-1.19-.77-1.54-1.29 0-.16.23 0 .33 0 .25.19.53.25.71.5m36.45.18a1.9 1.9 0 01-.91 1.59c-.16 0-.33.22-.49.11a7.23 7.23 0 011.28-1.7zm-2.8.43a.35.35 0 01-.25.42c-.16 0-.26-.11-.33-.23a.3.3 0 01.2-.32.24.24 0 01.18 0c.09 0 .13.11.2.18m-34.45.08a8.48 8.48 0 01.79.69c-.19.13-.42 0-.64 0-.5-.18-.83-.61-1.34-.75 0-.16.2-.11.31-.15a2.67 2.67 0 01.88.19"/><path class="cls-1" d="M42.85 8.44c-.81-.32-1.35.53-2.18.43-.1.06-.07.16-.13.23a.12.12 0 01-.16 0c-.05-.36-.16-.68-.21-1-.08-.15 0-.36-.11-.5-.47-1.28 1.13-.31 1.45-1.06s-.51-.74-.78-1.19v-.19c-.24-.23-.48-.31-.63-.62a2.07 2.07 0 000-1.13c0-.08-.07-.2-.2-.16-.28.38-.48.69-.74 1.06a8.07 8.07 0 00-.86-.65c-.22 0-.42-.25-.67-.16a.21.21 0 000 .22 2.13 2.13 0 00.72 1.44v.22a6.56 6.56 0 00-.26 1.93 10.74 10.74 0 01-3.16 4.44c-.83.94-1.82 1.85-1.95 3.14 0 .21 0 .46-.13.6a4.73 4.73 0 01-1.35-.72c-.67-.47-1.64-.41-2.07-1.26-.18-.33 0-.67.2-.92a1.69 1.69 0 00.16-1.88c-.06 0-.07.06-.11.08-.05.86-.73 1.46-.47 2.42a7.49 7.49 0 00.28.71 1.21 1.21 0 01-.34-.07 3.54 3.54 0 00-1-.13c-.67.31-1.59-.07-2.13.54-.08 0-.2 0-.17.16.32 0 .62.09.94.08.51.08.85-.34 1.2-.53h.08c.15-.15.4-.06.59-.09a5.71 5.71 0 012.38 1v.06a8.79 8.79 0 00-.91.38 2 2 0 00-.82 1c-.23.37.07.69.22 1s0 .33.16.39c.47-.5 0-1.12.1-1.69a1.21 1.21 0 01.95-.76c.83-.35 1.43.32 2.09.7a9.33 9.33 0 01-.07 2 1.73 1.73 0 01-.68.1 12.56 12.56 0 00-3.09 1.07c-.46.16-1 .15-1.48.33a3.54 3.54 0 001.12-.05c1.42-.2 2.52-1.3 4.06-1.11a3.32 3.32 0 01-.69.95c0-.16 0-.29-.2-.38a.29.29 0 00-.34.12.22.22 0 000 .22.53.53 0 00.33.21c0 .13-.19.19-.28.3-.41.69-1.24.41-1.72.9-.07.1-.33.16-.22.32a2.18 2.18 0 001.5-.38c.54-.6 1.11-1.17 1.65-1.74a1.8 1.8 0 01-.32 1.33 1.71 1.71 0 00-.4-.22.37.37 0 00-.26.29 1.05 1.05 0 00.22.3 5.22 5.22 0 01-1.69.54 27.82 27.82 0 01-3.17.23 6.87 6.87 0 01-1.57 0c-.56.1-1.15-.07-1.6.24-.06.07 0 .14 0 .22.67.44 1.59.08 2.34.22h5.93a2.67 2.67 0 001.18-.22 4.32 4.32 0 001.53-1.94 3.15 3.15 0 00.3-.88A1.25 1.25 0 0136.3 18a6.66 6.66 0 01-.25 2.23c-.08.47-.39.92-.2 1.42 0 .23.29.23.48.26 1.76 0 3.52-.1 5.38 0a4.64 4.64 0 001 .15c0-.05.13-.06.08-.15a.56.56 0 00-.35-.41c0-.09-.16-.06-.2-.12-.93-.52-2.05-.24-3.14-.23a2.35 2.35 0 01-1.62-.16c-.22-.27-.06-1.1-.06-1.1a21.36 21.36 0 01.9-2.83 2.48 2.48 0 00.09-.68 2.72 2.72 0 00.09-1 7.08 7.08 0 01.5-1.3c.09-.21.16-.45.25-.67a2.31 2.31 0 01.29-.76c.47.3.94.29 1.17.83l.2 1.22c0 .07 0 .22.16.13.37-.25.26-.8.26-1.18s-.23-.68-.37-1.07a1.85 1.85 0 01-.26-.43c-.06-.32-.77-.54-.61-.94a1.21 1.21 0 01.5-.83.2.2 0 01.07.1l.17-.12V9.13c.47 0 1.18.06 1.66.06.13 0 .23.15.38.16l.13-.16L44.13 9c-.5.06-.8-.52-1.28-.52"/><path class="cls-1" d="M31.46 13a.33.33 0 01-.22.34.43.43 0 01-.28-.17c-.06-.17.09-.28.2-.34s.27 0 .3.17m-.95 0a.33.33 0 01.06.34c-.1.09-.27.16-.35 0s-.18-.19-.1-.31.27-.19.39-.08m31.35.51c0 .16-.08.27-.19.33s-.34-.07-.34-.26a.29.29 0 01.22-.22c.13-.05.25.06.31.15m.77-.03c0 .07.14.19 0 .26a.44.44 0 00-.15.12.28.28 0 01-.35-.18c0-.16.1-.23.22-.31s.17 0 .25.11m-35.74.17a.29.29 0 01-.4.19.68.68 0 01-.11-.19.27.27 0 01.16-.25.37.37 0 01.35.25m4.9.25c0 .12-.14.22-.25.28a.39.39 0 01-.32-.21.3.3 0 01.18-.29.32.32 0 01.39.22m-.86-.1a.21.21 0 01.1.25c-.09.08-.22.21-.37.12s-.19-.13-.16-.28a.52.52 0 01.22-.17c.12 0 .18 0 .26.1m33.91.15a.39.39 0 01-.19.28.27.27 0 01-.32-.07c-.09 0-.06-.15-.06-.22a.5.5 0 01.27-.19.59.59 0 01.3.2m.93.14a.39.39 0 01-.28.26c-.09 0-.25 0-.22-.18a.26.26 0 01.13-.23.27.27 0 01.37.15m-37.27.2a.28.28 0 01-.18.35c-.1.06-.2 0-.28-.07a.25.25 0 01-.07-.29c0-.14.16-.11.25-.17a.41.41 0 01.28.18m.71.13c0 .12-.09.16-.12.25a.23.23 0 01-.26 0c-.1-.09-.22-.22-.12-.35s.43-.1.5.07M64 14.32c0 .15-.12.25-.21.34a.25.25 0 01-.29-.18.32.32 0 01.16-.28.34.34 0 01.34.12m1.19.23c0 .13 0 .28-.16.37a.42.42 0 01-.35-.06.27.27 0 01-.06-.31.35.35 0 01.35-.17c.1.06.13.13.22.17M28 14.86c.06.12-.07.15-.11.21a.29.29 0 01-.29 0c-.11-.06-.06-.21 0-.28.13-.25.39-.07.45.1m36.22.25c.06 0 0 .1 0 .13a1.09 1.09 0 01-1.18-.06 6.55 6.55 0 00-.58-.32c.07-.19.33-.18.52-.22.42.06.76.45 1.22.47M28.66 15c0 .12-.06.16-.09.25s-.17.06-.24 0a.26.26 0 01-.1-.37c.16-.16.34-.07.43.09m18.11.75c0 .29-.51-.05-.44.34a2.39 2.39 0 00.28.83c.14.19.07.5.06.73a1.29 1.29 0 01-.55.48c-.42 0-1 .21-1.22-.31a2.06 2.06 0 01-.23-.7s.09 0 .13-.06-.11-.16-.09-.26c.47-.08-.2-.5.2-.52.34.34.88.23 1.17.61.07.05.12.14.2.18-.05-.35-.22-.7-.27-1.07a.5.5 0 01.16-.49c.25-.19.46.08.6.24m-15.55-.1c.05.15-.07.24-.16.31s-.2-.09-.26-.16.06-.22.15-.29a.31.31 0 01.27.14m8.98.15a2 2 0 01-.2 1.64c0 .12 0 .31-.13.29-.4-.54-.11-1.3.06-1.87 0-.15.2-.2.24-.06m12.49.28a1.66 1.66 0 010 1.36l-.12.12a3.24 3.24 0 01-.33-1 3.39 3.39 0 00.17-.78c.21 0 .19.22.25.34m-20.27.12c-.09.18-.34.22-.5.34a1.75 1.75 0 01-1.29.25 1.58 1.58 0 011.66-.69c0 .06.1 0 .13.1m-5.98.53a4.07 4.07 0 011 1.43c0 .06.19.08.13.2s-.23-.09-.39-.06a1.63 1.63 0 01-.89-1.51c0-.06.09-.06.15-.06m25.71.45c0 .15 0 .3-.13.34a.26.26 0 01-.33-.18c-.05-.1 0-.16.07-.23a.25.25 0 01.39.07"/><path class="cls-1" d="M58.23 18a7.17 7.17 0 01.11-.81.49.49 0 000-.3c.35-.47 1.07-.33 1.62-.28a3.51 3.51 0 00.73.16.51.51 0 01.36-.07c.47-.25.16-.8.19-1.22l-.12-.48a1.48 1.48 0 01-.12-.29c-.09-.11-.15-.3-.23-.4a5.88 5.88 0 00-1.14-1.52 6.22 6.22 0 00-3.07-1.9 5.12 5.12 0 00-3.35.49.82.82 0 01-.56-.62 2.87 2.87 0 01.27-1.55 6.07 6.07 0 01.39-1 10.19 10.19 0 00.6-2.52 1.32 1.32 0 00-.78-1.16.8.8 0 00-.81.16 2.09 2.09 0 01-.94.85c0 .25.27.09.38.18.32 0 .68 0 .94.16a2.47 2.47 0 01-.61 1.51 11.63 11.63 0 00-1.32 2.31l-.06-.06.07 3.59a4 4 0 001.91 1.94c.46.38 1.05.84 1.67.5.34-.1.37.36.53.56.17.54-.22.92-.25 1.42l-.38.8a10.65 10.65 0 01-1.5 2.48c-.22 0-.35.23-.57.25s-.35 0-.49.1c-.45.19-1.09.08-1.4.5a.21.21 0 00.12.07c.89 0 1.88.08 2.82 0a.32.32 0 00.23-.28c-.13-.24.05-.46.16-.65.08-.36.31-.58.41-.91.31-.6.66-1.19 1-1.79l.45-.73a6.87 6.87 0 01.45-.83 1.59 1.59 0 00.27-.39c0-.15-.06-.21-.15-.31.1-.1.26-.07.39-.1a1.62 1.62 0 01.82 1l.13.38.06.17v.49l.06.45a10.94 10.94 0 01-.13 2.13c-.25.85-1.23.76-1.93.95-.17.12-.5.06-.5.35a13 13 0 002.73.06c.15-.06.18-.19.25-.32s.22-.36.16-.56 0-.53-.06-.81a.44.44 0 000-.28c.12-.42.09-.93.17-1.34zm7.16-.6a3.61 3.61 0 01-1.77 1.6h-.15c.5-.53.76-1.35 1.53-1.54a.46.46 0 01.39-.06m-39.73.72c-.07.06 0 .19-.14.2a.23.23 0 01-.31-.13.25.25 0 01.19-.32c.12.06.24.1.26.25m4.19.2c0 .13-.1.13-.17.16a1.57 1.57 0 01-1.68-.42v-.13c.6.14 1.3 0 1.79.39m-3.33-.19a.34.34 0 010 .22.31.31 0 01-.36.13.44.44 0 01-.19-.19.37.37 0 01.25-.28.48.48 0 01.27.12m13.67.07c0 .14-.09.22-.17.28a.3.3 0 01-.31-.11.21.21 0 01.1-.28c.13 0 .34 0 .38.11m25.9.06c0 .15-.09.22-.19.31s-.19 0-.28 0-.1-.14-.07-.24a.3.3 0 01.33-.17 1.91 1.91 0 01.21.14m.91-.1c.08.14 0 .24-.06.34a.21.21 0 01-.26.09c-.09-.09-.21-.13-.22-.26s.13-.21.22-.25.2.08.32.08m-41.86.43c0 .1-.07.16-.1.25s-.15.09-.23.06a.43.43 0 01-.22-.24.38.38 0 01.26-.29.37.37 0 01.29.22"/><path class="cls-1" d="M55.7 18.63a.41.41 0 010 .19c-.09.12-.21.22-.35.15s-.19-.18-.15-.31a.29.29 0 01.48 0m-28.29.19a.24.24 0 01-.2.22c-.13 0-.17-.1-.25-.16s0-.27.12-.34a.26.26 0 01.33.28m-1.39.03a.31.31 0 01-.15.32.34.34 0 01-.39-.2.4.4 0 01.26-.34c.13 0 .21.15.28.22m30.66-.03a.28.28 0 01-.16.35c-.17.06-.32-.09-.39-.2s.09-.28.26-.31a.34.34 0 01.29.16m-29.98.06c.05.1 0 .14-.07.22s-.12.09-.2.06-.18-.11-.19-.21.08-.22.19-.28a.27.27 0 01.27.21m38.47.09a.49.49 0 01-.25.24c-.12 0-.19-.07-.28-.12s0-.19 0-.26a.29.29 0 01.54.14m1.09.08a.37.37 0 01-.35.25c-.13-.06-.27-.16-.17-.33s.08-.12.17-.14a.29.29 0 01.35.22m-6.91.11c.07.19-.1.25-.22.33a.75.75 0 01-.28-.11.36.36 0 01.21-.39.35.35 0 01.29.17m-4 .17c.07 0 0 .13 0 .18s-.21.2-.34.12a.25.25 0 01-.14-.28.27.27 0 01.45 0m.84.08a.2.2 0 01-.11.24c-.11.1-.22 0-.32-.05a.22.22 0 010-.21.33.33 0 01.19-.12c.1 0 .22 0 .26.14m-24.71.02c.08.09 0 .19 0 .28a.29.29 0 01-.37.07c-.14-.06-.13-.25-.1-.37s.09-.13.2-.13a.57.57 0 01.3.15m29.41.06c0 .14-.12.2-.22.23s-.26-.07-.34-.19.09-.14.12-.22c.2-.09.33.06.44.18m-.79 0c.06.14-.1.22-.16.29a.3.3 0 01-.32-.06c-.07 0-.07-.13-.07-.22s.13-.16.23-.19a.39.39 0 01.32.18m6.56.17c0 .21-.23.11-.33.17a2.37 2.37 0 01-2-.14c0-.19.26-.11.38-.19.62-.39 1.26.09 1.89.12zm-39.83-.17l-.06.1a2.37 2.37 0 01-1.87.34l-.06-.09a2.63 2.63 0 011.95-.4zm35.54.1a.33.33 0 01-.15.28.28.28 0 01-.37-.16c0-.12.07-.24.18-.28s.28 0 .34.16m-32.93.06c-.06.12 0 .23-.18.29a.31.31 0 01-.36-.19c-.05-.16.07-.2.14-.28s.31.05.4.18m-1.04.07c.05.11 0 .16-.07.24a.28.28 0 01-.29 0c-.1-.09-.21-.19-.16-.35a.87.87 0 01.23-.16.34.34 0 01.29.23m34.99.38a.31.31 0 01-.23.26.32.32 0 01-.28-.14A.23.23 0 0163 20c0-.05.13-.05.19-.08a.32.32 0 01.26.24M27.34 20c0 .12-.06.16-.08.25a2 2 0 01-.32.63c-.27.34-.67.34-1.06.44l-.06-.12a3.84 3.84 0 011.47-1.23zm35.33.27c0 .18-.12.21-.22.28a.32.32 0 01-.29-.18c0-.16.1-.22.19-.29a.28.28 0 01.32.19m-33.67 0v.07c0 .17-.13.21-.21.28a.39.39 0 01-.32-.14.24.24 0 01.14-.34c.13 0 .31 0 .35.13m36.39.44c.15 0 .17-.19.33-.22a.35.35 0 01.35.16c.06.18-.07.27-.19.34s-.32-.09-.3.1a.47.47 0 01.2.29c0 .06-.13.05-.17 0a1.89 1.89 0 01-1-.91c-.06-.13-.33-.23-.17-.35a1.34 1.34 0 011 .57m1.35-.43a.21.21 0 010 .27c-.07.15-.29.09-.42.08s-.15-.15-.12-.27a.59.59 0 01.22-.19.4.4 0 01.34.11m-5.31.79a2 2 0 01.33.58c0 .05-.11 0-.14 0-.49-.28-1.13-.58-1.32-1.17 0-.06-.16-.13-.15-.23a1.32 1.32 0 011 .41c.1.14.22.22.27.38m-33.25-.53c.05.13-.06.24-.14.29a.32.32 0 01-.33-.11c-.1-.16.09-.3.2-.36s.19.11.27.18m35.08.34c0 .09-.1.15-.14.2s-.24.06-.34 0-.1-.19 0-.26.39-.05.49.1m3.62.13a.35.35 0 01-.21.37.41.41 0 01-.35-.13c-.07-.09 0-.18 0-.28a.37.37 0 01.38-.1.73.73 0 01.18.14m-10.07 2.06c0 .17-.32.13-.45.26a3.26 3.26 0 01-1.53.22v-.09a2.14 2.14 0 012-.39m-21.26.63a.29.29 0 01-.22.25.27.27 0 01-.24-.15c-.06-.18.08-.25.19-.32a.31.31 0 01.27.22m20.99.16c0 .13-.07.28-.22.33a.41.41 0 01-.32-.1c-.07-.06 0-.16 0-.23a.31.31 0 01.58 0m2.85.06a2.4 2.4 0 01-1.25.51h-.78l-.08-.06a2.39 2.39 0 012.11-.53zm-27.86.35a.28.28 0 01-.19.28.26.26 0 01-.31-.14.25.25 0 01.12-.33c.16-.1.32.07.38.19m.72.14c0 .08 0 .12-.06.19a.21.21 0 01-.27 0 .19.19 0 01-.09-.25c0-.08.13-.07.18-.13s.2.09.24.19m-5.57 1.48c-.15.18-.38 0-.54-.13-.51-.29-.49-.86-1-1.2.05-.17.19 0 .29 0l.3.16c.5.28.61.74.95 1.18"/><path class="cls-1" d="M46.05 25.61a1.32 1.32 0 00-.16.51h-.06c.05-.22-.17-.35-.11-.59a5 5 0 01-.22-.53c-.13-.24.12-.34.22-.5.2.09.27.28.42.45s-.1.44-.09.68m23.14-5.43a1.15 1.15 0 00-1.09-.6 1 1 0 00-.81.6.72.72 0 00.27.8.22.22 0 00.29-.07c.08-.19-.13-.19-.16-.34a.49.49 0 01.16-.51c.15-.15.4-.07.57-.07a1 1 0 01.44.42 1.13 1.13 0 01-.86 1.51c-1.2.18-14.46.12-14.46.12-1.56.15-3.33-.29-4.67.53a2.32 2.32 0 00-1.08 1.57 11.24 11.24 0 00-1.14 1.15c.07-.35.23-.66.31-1s.21-.69.38-1a7.93 7.93 0 011.93-2.44c.37-.48 1-.39 1.56-.39a3.77 3.77 0 002 .29.14.14 0 00.05-.1c-.21-.19-.54-.27-.78-.46-.58-.27-1.13.09-1.74.05 0 0-.06-.05 0-.09a9 9 0 011.81-1 13.33 13.33 0 011.58-.63c.22 0 .43-.19.63-.06l.77-.2s.06.06.12 0a8.2 8.2 0 012.22 0l.11.09.69.18c.27 0 .38.33.66.35.15-.21-.16-.29-.23-.43a1.63 1.63 0 011 .15l-.14.16c-.09.16 0 .28.17.34s.18-.05.25-.07 0-.27 0-.39a14.13 14.13 0 013.1.88c.28.09.54.3.85.28a3.79 3.79 0 00-1.11-.58c-.25-.15-.6-.17-.79-.37.05-.07.15 0 .19-.1a2.19 2.19 0 001.27-.82c0-.09.19-.06.17-.18s-.35 0-.52 0c-.61.12-.87.84-1.48 1l-2.25-.54a4.52 4.52 0 01-1.2-.23l-.81-.07h-1.49v-.09c.52-.13 1-.44 1.5-.57l3.9-1.79a10.45 10.45 0 001.11-1.2.28.28 0 00-.17-.28.23.23 0 00-.29.06c-.17.13 0 .29 0 .45a2.33 2.33 0 01-.66.57c-.06 0-4 1.81-4 1.81a11.55 11.55 0 01-1.78.66l-.84.13a.59.59 0 01-.37.34 3.69 3.69 0 01-.67.19 14.7 14.7 0 00-5.35 3 1.71 1.71 0 00.15-.62 1.16 1.16 0 00-.17-.64c0-.08-.14-.32-.1-.4l-.21.14a2 2 0 00-.12 1.24c0 .27.26.57.06.81a13.1 13.1 0 00-1.56 2.84c-.17 0-.26-.19-.34-.35a4.87 4.87 0 001-2.14c.1-.07 0-.26.13-.35 0-.24.13-.47 0-.66.1-.32-.42-.62-.09-.82l-.27.13c-.63.82.32 2.05-.39 2.84v.06a2.57 2.57 0 01-.59.71c-.35-.15-.48-.55-.68-.84a1.3 1.3 0 01-.13-1.39c.13-.43-.09-.79-.13-1.18l-.15-.08a1.67 1.67 0 00-.2 1.71c.15.26.16.63.38.85a4.93 4.93 0 00.62 1.09c.06.14-.08.17-.16.25-.16-.11-.13-.34-.27-.44a10.64 10.64 0 00-1.87-2.69c0-.13-.16-.25-.08-.39a1.11 1.11 0 00.19-1.12c0-.07-.12-.16-.11-.23l-.22-.18c0 .52-.31 1-.16 1.51A27.57 27.57 0 0038 18l-.13.38a9.83 9.83 0 011.56.79 9.68 9.68 0 011.45.78 10.05 10.05 0 014.18 4.94c0 .16.16.34.06.5A8.4 8.4 0 0044 24.24a2.12 2.12 0 00-1.11-1.62c-.21-.33-.68-.36-1-.46h-5.3c-4.31-.06-8.24.13-12.52.06-.59-.06-1.32-.26-1.5-.89a1 1 0 010-.81.91.91 0 01.75-.4.76.76 0 01.49.42c0 .19-.16.36-.23.52s.07.18.17.14a.69.69 0 00.38-.47c0-.11.06-.25 0-.33a1 1 0 00-.69-.6 1.24 1.24 0 00-1 .34 1.21 1.21 0 00-.23 1.23 1.94 1.94 0 001.57 1.17l14.16.06a31.51 31.51 0 014.34.12 1.67 1.67 0 011.18 1.11h-.1a6.28 6.28 0 00-4.21-.83 5.26 5.26 0 00-1.63.33.83.83 0 01-.71-.23 2.39 2.39 0 00-2.11-.26v.1c.72-.06 1.14.56 1.78.63.15 0 .26-.13.39 0a13 13 0 01-2 .9c-.22 0-.33-.24-.51-.36-.28-.31-.78-.18-1.16-.21-.13 0-.25-.06-.34 0a1.25 1.25 0 00.63.49c.36.16.78 0 1.12.2a1.69 1.69 0 01-.31.21c-.68.26-1.25.88-2 .83a2.57 2.57 0 01-2.15-.7 1.46 1.46 0 00-1.49-.93s-.1 0-.09.1c.32.19.57.57.89.79s.6 0 .79.28a2.55 2.55 0 00.94.41 4.73 4.73 0 00.76.21l-.1.05a12.44 12.44 0 01-4.34.43c-.44 0-.86-.15-1.29-.13a.7.7 0 00.35.2.78.78 0 01-.4.12 2.81 2.81 0 00-.55.15 1.46 1.46 0 00-.63.14 2.65 2.65 0 01-.83.68c0 .06 0 .14.06.14.28-.11.63 0 .9-.14.49 0 .76-.57 1.14-.79a1.9 1.9 0 011.48-.18c.29.07 0 .19.06.38s.22.22.38.18a.23.23 0 01.1-.07.33.33 0 000-.37c.2-.13.48 0 .7-.07.55 0 1.1-.14 1.64-.15.09 0 .19-.1.28 0s-.19.14-.13.3.17.19.29.22.27-.16.22-.35-.15-.12-.22-.17c.3-.14.65-.19 1-.33a2.92 2.92 0 00.61-.21c.19 0 .35-.19.52-.12a3 3 0 01-.3.71 3.46 3.46 0 000 2.55h.08a3.53 3.53 0 01.13-2.4c.21-1.25 1.49-1.62 2.41-2.09v.06a4.53 4.53 0 00-.55 2c0 .13-.06.26 0 .35a1.54 1.54 0 00.53-.67c.11-.66-.27-1.48.4-2a10.26 10.26 0 013.7-1.1s.14 0 .16.06c-.3.33-.72.63-.85 1a3.33 3.33 0 00-.25 2.53c.13.46-.26.71-.45 1.06-.09.12-.11.34-.2.48h.29a1.49 1.49 0 00.49-1 .41.41 0 00.28.3c.1-.16-.09-.28-.1-.44.23-.13.33.16.52.22a4 4 0 00.89.2l.1-.1A1.79 1.79 0 0039 27a3 3 0 01-.26-1.68 2.27 2.27 0 01.29-.9 2.07 2.07 0 01.41-.56 2 2 0 01.91-.5h.05c-.39.31-.43.74-.67 1.12a1.22 1.22 0 00-.13 1.27c.09.19 0 .49.25.62a3.18 3.18 0 00.3-.9c0-.48-.33-.93-.06-1.4a1.25 1.25 0 01.79-.65 4.54 4.54 0 012.2.65c.14.1.39.19.42.39a1.25 1.25 0 01-.54 1 1.23 1.23 0 01-1.32 0 1 1 0 01-.24-.89.6.6 0 01.6-.27c.14.08.27.22.46.13a.19.19 0 00.06-.23c-.16-.09-.22-.31-.44-.34a1 1 0 00-.8.16 1 1 0 00-.33 1 1.25 1.25 0 00.9.94 1.69 1.69 0 001.79-.62 2 2 0 00.32-.63 3.81 3.81 0 011.5 1.94 3 3 0 010 .73h.51a.48.48 0 010-.35 4.39 4.39 0 011.5-2.4c.24-.15.18.19.24.29a2 2 0 001.27 1.11 1.58 1.58 0 001.57-.51c.19-.35.42-.86.1-1.23A1 1 0 0050 24a1 1 0 00-.8.54c0 .12 0 .25.09.31s.17 0 .22-.07.22-.33.39-.44a.45.45 0 01.47.09.74.74 0 01.2.57.88.88 0 01-.48.68 1.48 1.48 0 01-1.4-.13 4.12 4.12 0 01-.41-.64c0-.24-.11-.44 0-.68a5.12 5.12 0 012.09-.73 1.55 1.55 0 01.77.49c.67.68-.15 1.67.32 2.43.17 0 .17-.26.24-.41a2.56 2.56 0 00-.18-1.61 3 3 0 00-.56-.87.38.38 0 01.18 0 4 4 0 01.89.76 3.91 3.91 0 01.56 2.41c-.11.44-.58.64-.94.8a1.5 1.5 0 00-.4.47.75.75 0 00.6-.07c.28-.1.44-.46.63-.62v.09c0 .03-.07.38.08.43a5.31 5.31 0 00.13-.75 1.45 1.45 0 01.28.73c.13.27.35.62.69.66.09-.13 0-.26 0-.38 0-.37-.35-.56-.55-.82-.51-.7-.28-1.8-.67-2.59a3 3 0 00-.79-1.09l.06-.06a8.93 8.93 0 012 .35c.81.4 2 .31 2.35 1.35a3.86 3.86 0 00.83 1.59.59.59 0 000-.55c-.09-.73-.73-.91-1.06-1.52v-.06a8.83 8.83 0 011.07.34 3.12 3.12 0 012.1 2.57 5.66 5.66 0 01-.54 2.51c0 .12-.25.25-.11.35.16-.12.18-.31.27-.44a4.08 4.08 0 00.47-2.99c0-.19-.23-.33-.13-.52a.5.5 0 00.25.13c.09-.06.22-.06.28-.16s.07-.19 0-.27a.41.41 0 00-.43-.1.67.67 0 00-.17.32 3.08 3.08 0 00-.53-.78c.66.22 1.25.54 1.92.72a1 1 0 00.51.16 15.66 15.66 0 001.79.46c.44-.05.8.16 1.24.05-.16-.21-.51 0-.7-.16a10.89 10.89 0 01-2.87-.72h.12a.39.39 0 00.23-.37.4.4 0 00-.34-.16c-.08.05-.2.15-.21.25a.35.35 0 00.21.28h-.13l-1.32-.6c-.16 0-.29-.16-.45-.19-.34-.16-.67-.32-1-.45a23.17 23.17 0 00-2.95-1.1l-.63-.18-1.09-.29a5.48 5.48 0 00-4 .34c-.18-.06-.28.22-.36 0a2.05 2.05 0 012-1.1c5.84-.06 11.31-.1 17.06-.19a1.84 1.84 0 001.67-.83 1.47 1.47 0 00.1-1.35"/><path class="cls-1" d="M61.84 24.68c0 .05.09.06.06.13a3 3 0 01-1.95.62.31.31 0 01-.19 0s-.06-.07 0-.1a2.24 2.24 0 012.11-.69m-2.37.28c.06.2-.07.32-.23.39a.41.41 0 01-.32-.23c-.05-.12.06-.18.1-.25a.27.27 0 01.45.09M31.83 25a.28.28 0 01-.07.3.29.29 0 01-.26.08c-.1 0-.16-.13-.19-.22a.31.31 0 01.19-.28c.12 0 .25 0 .33.12m-2.6.9v.1a1.11 1.11 0 01-.95-.22 1.93 1.93 0 00-.77-.73s-.09-.1 0-.13c.73 0 1.17.58 1.72 1m34.82-.99c-.33.5-.62 1.12-1.22 1.34-.1 0-.19.14-.27 0a2.62 2.62 0 011.29-1.39h.2m-31.37.23c0 .16-.1.19-.21.28s-.17-.08-.24-.17.07-.2.14-.27a.3.3 0 01.31.16m33.21.09c-.13.19-.08.46-.21.67-.29.34-.53.72-1 .79-.07-.14.1-.29.17-.42a2.15 2.15 0 011-1.13zm-41.17.13a.31.31 0 010 .32.37.37 0 01-.34.06.27.27 0 01-.11-.35c.08-.14.35-.21.45 0m-.83.14c0 .08.06.13 0 .21a.31.31 0 01-.2.17.3.3 0 01-.34-.19.27.27 0 01.15-.3.29.29 0 01.35.11m1.76.09c0 .12.05.32-.12.35s-.32-.06-.44-.17a.34.34 0 01.18-.3.42.42 0 01.38.12m2.39.19c0 .11 0 .25-.1.28s-.2 0-.28 0-.19-.16-.1-.26a.65.65 0 01.2-.17c.09.05.22 0 .28.12m39.29.13c-.05.11-.11.24-.22.24s-.26 0-.34-.16.08-.25.19-.3.34.06.37.22m-2.67.12c0 .12-.12.2-.17.25A.35.35 0 0164 26a.38.38 0 01.24-.27.39.39 0 01.38.24m1.81-.04a.31.31 0 01-.13.25.34.34 0 01-.35-.06c-.14-.12 0-.22 0-.31s.38-.06.43.12m-42.04.25a.31.31 0 01-.18.37.35.35 0 01-.32-.21A.29.29 0 0124 26a.35.35 0 01.35.15m39.55.19a.33.33 0 01-.21.38c-.12 0-.19 0-.28-.1s-.13-.24 0-.31a.29.29 0 01.5 0m-31.74.19c.06.16-.12.19-.16.28s-.18 0-.22 0-.16-.17-.12-.3.11-.12.19-.15.22.1.31.19M67 26.6c0 .11-.06.15-.07.22a.36.36 0 01-.33.06c-.13-.07-.13-.19-.13-.32s.1-.13.2-.16a.33.33 0 01.33.2m-.88.05c.06.17-.1.26-.22.31s-.14 0-.16.05a4 4 0 01.91.78v.12a2 2 0 01-1.45-.56c-.1-.07-.27-.07-.39-.18.19-.19.54-.11.8-.13.19-.2-.22-.35 0-.52.09 0 .15-.11.26-.08a.56.56 0 01.22.21m-5.92.01c0 .08-.06.16-.07.24a.29.29 0 01-.32.05c-.08-.1-.19-.19-.15-.33a.3.3 0 01.54 0m-32.54.56a.3.3 0 01-.25.23.28.28 0 01-.26-.18c0-.1.06-.16.07-.23s.45-.05.44.18m1.18-.18c0 .21-.22.33-.29.53a1.52 1.52 0 01-1.17 1c-.06-.13.19-.29.25-.43a3.11 3.11 0 011.12-1.1zm31.01.19a.39.39 0 01-.25.34c-.13 0-.23-.06-.3-.12s-.05-.23 0-.35.42 0 .54.13m.91.1a.35.35 0 01-.26.32h-.15a.31.31 0 01-.19-.26c.08-.07.11-.19.21-.2s.35 0 .39.17m-29.66-.04a.3.3 0 01-.21.3.28.28 0 01-.28-.17c0-.13.1-.22.17-.29s.22.07.32.16m1.01.06a.33.33 0 01-.28.24c-.1 0-.22 0-.26-.17s.1-.22.2-.29a.31.31 0 01.34.22m31.78 1.02c.07.06.2.13.18.24-.24.1-.43-.17-.64-.21a2.92 2.92 0 01-.76-1.17c.13-.13.27 0 .39.07a2.82 2.82 0 01.83 1.07m.54-1.02a.36.36 0 010 .32c-.09.14-.28.12-.41.09s-.2-.21-.11-.34.17-.15.27-.19.18.07.28.12m-31.02.38c0 .11.05.29-.1.36a.28.28 0 01-.35-.17c-.07-.18.09-.21.18-.29s.19 0 .27.1m27.28.95a2.18 2.18 0 01.38 1c-.05.1.07.21 0 .28A3.29 3.29 0 0160 28.16a.12.12 0 010-.15c.14-.13.25.14.39.18zm-25.38-.5a1.93 1.93 0 01-2.07.26.12.12 0 01.08-.13 3 3 0 011.28-.28zm-3.3.07c-.5.31-.95.91-1.56 1.06-.11 0-.19.21-.33.12A2.14 2.14 0 0132 28.13zm27.82.66c0 .12 0 .28-.12.31a.18.18 0 01-.27 0c-.13-.06-.13-.19-.13-.29s.14-.12.21-.16.24 0 .31.14m-1.21.1a.84.84 0 01-.52.38 2.27 2.27 0 01-1.39-.18c0-.11.17-.07.24-.14a3.08 3.08 0 011.48-.06h.19M32 29.4c0 .06-.06.19-.18.24a.31.31 0 01-.29-.06c0-.09-.13-.16-.05-.26s.14-.14.23-.17a.33.33 0 01.29.25m.84.13c-.05.09-.09.22-.21.28a.33.33 0 01-.29-.1.37.37 0 010-.29c0-.08.13-.09.2-.13s.28.13.34.24m26.66.15a.36.36 0 01-.1.28.25.25 0 01-.32.06c-.1 0-.13-.13-.17-.21s.06-.19.1-.29a.31.31 0 01.49.16m.64-.03c0 .08.06.15 0 .21s-.14.26-.32.19-.13-.09-.17-.12a.28.28 0 01.17-.4c.13 0 .22.08.29.12m-27.84.43a.4.4 0 01-.14.39c-.16 0-.37 0-.42-.16a.38.38 0 01.17-.42.33.33 0 01.39.19m.83-.08a1.32 1.32 0 01-.52 1.14c-.23.05-.47.26-.7.12v-.07c.31-.44.86-.78 1.22-1.19m24.12.35c.06.09 0 .17-.09.24s-.25.06-.35 0a.22.22 0 01-.07-.29.3.3 0 01.19-.16.4.4 0 01.32.2M34.6 31c.2.34.09.79.2 1.16-.25 0-.35-.25-.51-.4a4.62 4.62 0 01-.42-1.54.08.08 0 01.1 0 4.13 4.13 0 01.56.62c0 .1.08.1.07.19m23.4-.56c0 .12-.13.15-.2.22a.49.49 0 01-.27-.13c0-.15.07-.19.14-.26a.23.23 0 01.33.17m1.72 1.31s0 .13-.09.1h-.06a1.74 1.74 0 01-.78-1.39h.08a1.85 1.85 0 01.85 1.31m-1.09-.49a.35.35 0 01-.13.27c-.16.05-.41 0-.44-.19s.15-.21.22-.29a.31.31 0 01.35.21m-.97.31c-.2.54-.75.82-1.13 1.23-.07-.05 0-.16 0-.22a2 2 0 011.12-1.32c.23 0 0 .19 0 .31m1.11.44c0 .13-.13.19-.21.26a.45.45 0 01-.32-.16c0-.15.11-.19.19-.27a.32.32 0 01.34.17M48 5.56h-.16c-.42 0-.07.51.16.51s.3-.51 0-.51m-1.31.51c.43 0 0-.51-.2-.51H46c-.42 0 0 .51.2.51zm-1.76 0c.42 0 0-.51-.21-.51h-.42c-.42 0 0 .51.2.51zm3-.63a.37.37 0 01.36.37.36.36 0 01-.36.36h-4.32a.36.36 0 01-.36-.36.37.37 0 01.36-.37zm.07 6.69c0 .2.25.07.44.07s.45.13.45-.07-.3-.13-.49-.13-.44-.1-.44.17m.81.46c.18 0 .2-.26.2-.48 0-.5-.4 0-.6-.47-.15.4-.56 0-.56.45s0 .5.29.5zm-1.22-2.23l.83.31.8-.31-.32 1.21.65-.13-.22.73.22.71-.57-.15.24 1.3-.8-.31-.83.31.34-1.3-.66.18.17-.74-.17-.7.63.1zm-1.89 1.38l-.14-.01.07.12-.11.11.14.03v.15l.13-.1.13.1v-.15l.14-.03-.11-.11.07-.12-.15.01-.08-.15-.09.15zm-.64.82l-.14-.01.07.12-.11.12.14.02v.16l.13-.1.13.1v-.16l.14-.02-.11-.12.07-.12-.15.01-.08-.14-.09.14zm1.09-.1l-.14-.02.06.13-.1.11.13.03v.15l.14-.1.13.1v-.15l.13-.03-.1-.11.06-.13-.14.02-.08-.15-.09.15zm.11.79l-.08-.01.04.07-.06.06.07.02v.09l.08-.06.07.06v-.09l.08-.02-.06-.06.04-.07-.09.01-.04-.08-.05.08zm-.96.24l-.24-.02.11.21-.18.19.24.05v.26l.22-.17.22.17v-.26l.24-.05-.19-.19.12-.21-.25.02-.14-.25-.15.25zM45.7.39l.51 1.27 1.3-.39-.66 1.19 1.11.79-1.34.22.08 1.36-1-.91-1.01.91.09-1.36-1.34-.22 1.11-.79-.66-1.19 1.3.39.51-1.27zM41 28.66c-.15.06-.21.1-.17.26l.18.77a.75.75 0 010 .51.88.88 0 01-.53.31 1.09 1.09 0 01-.62 0c-.15-.06-.24-.13-.3-.39l-.19-.81c0-.2-.13-.19-.29-.16v-.06l1-.24v.06c-.19.06-.27.08-.22.29l.14.8c0 .14.11.47.52.37a.46.46 0 00.39-.64l-.2-.73c0-.15-.09-.23-.34-.18v-.06l.63-.16zm1.45.16a.61.61 0 00-.67-.32c-.15 0-.29.14-.26.3s.1.17.37.22l.46.08a.52.52 0 01.42.38c0 .21-.08.55-.61.67a1.89 1.89 0 01-.51 0c-.07 0-.07.07-.07.11h-.09l-.13-.6h.09a.62.62 0 00.71.39c.34-.08.3-.33.3-.36s-.19-.19-.39-.22h-.21c-.54-.09-.59-.29-.61-.41s0-.5.53-.62a3 3 0 01.47 0c.07 0 .07 0 .08-.1h.09l.11.52zm1.92.96l-1.06.1v-.06c.21 0 .28 0 .26-.25l-.12-1.31c-.21 0-.51.07-.53.47h-.09v-.5l1.77-.17v.5h-.08c-.1-.39-.41-.38-.61-.37l.12 1.31c0 .21.09.21.31.2zm1.18-.88c.39 0 .55 0 .55-.37s-.11-.36-.35-.37-.17 0-.18.1zm1.29.88h-.61l-.6-.79h-.08v.49c0 .2.06.2.26.23v.06h-1v-.06c.21 0 .27 0 .27-.22v-1.1c0-.22-.09-.23-.25-.24v-.06h1c.21 0 .84 0 .83.45s-.31.38-.47.42l.58.72a.13.13 0 00.12 0z"/><path class="cls-1" d="M48 29.34l-.22-.64-.35.57zm.83.69l-1-.12v-.06c.18 0 .24 0 .25-.06a1.24 1.24 0 00-.1-.35l-.66-.08a1.86 1.86 0 00-.17.3c0 .09.13.12.23.14v.06l-.6-.08v-.06c.16 0 .21-.08.32-.25l.83-1.27H48l.49 1.38c.11.28.14.37.28.38zm1.68.36l-1.68-.31V30c.16 0 .25 0 .28-.12l.21-1.19c0-.16-.09-.19-.21-.22v-.06l1 .19v.06c-.2 0-.29-.05-.33.17L49.59 30c0 .12 0 .15.23.19a.73.73 0 00.83-.34h.08z"/><path class="cls-1" d="M51.63 30.64l-1-.22v-.06c.16 0 .27 0 .31-.12l.24-1.18c0-.16-.1-.19-.24-.23v-.06L52 29v.06c-.14 0-.28-.05-.31.11l-.24 1.18c0 .16.08.19.24.23z"/><path class="cls-1" d="M52.86 30.22l-.24-.63-.34.57zm.84.68l-1-.1v-.06c.18 0 .24 0 .24-.07a1.34 1.34 0 00-.1-.35l-.66-.07a2.26 2.26 0 00-.17.31c0 .09.14.12.23.13v.06l-.6-.06v-.06c.16 0 .21-.08.31-.26l.8-1.29h.08l.53 1.37c.1.28.14.37.28.38zm-8.11-19.99c-.17 0-.41.12-.41-.08s.2-.23.37-.23.45-.07.45.23-.24.08-.41.08m.52-.11c0-.6-.34 0-.52-.55-.14.43-.54.07-.54.53 0 .18 0 .28.13.34v.18a.09.09 0 00.08.08h.64a.09.09 0 00.1-.08v-.2a.36.36 0 00.13-.3m5.19 7.34a.25.25 0 00.27-.24.26.26 0 00-.27-.24.27.27 0 00-.28.24.26.26 0 00.28.24M50 9.28a1.56 1.56 0 00-.13.26.13.13 0 10.26 0L50 9.28m-8.76 0a1.56 1.56 0 00-.13.26.13.13 0 00.13.14.14.14 0 00.13-.14l-.13-.26m2.19 0a1.56 1.56 0 00-.13.26.14.14 0 00.13.14.14.14 0 00.14-.14l-.14-.26m2.2 0a1.56 1.56 0 00-.13.26.13.13 0 10.26 0l-.13-.26m2.2 0a1.56 1.56 0 00-.13.26.13.13 0 10.26 0l-.13-.26m-6.59 3.01a1.56 1.56 0 01.13.26.13.13 0 11-.26 0l.13-.26m0 2.94a1.42 1.42 0 01.13.25.13.13 0 11-.26 0l.13-.25m.35 2.32a1.42 1.42 0 01.13.25.13.13 0 11-.26 0l.13-.25m1.84 1.23a1.56 1.56 0 01.13.26.13.13 0 11-.26 0l.13-.26m6.71-6.49a1.56 1.56 0 00-.13.26.13.13 0 10.26 0l-.13-.26m0 2.94a1.42 1.42 0 00-.13.25.13.13 0 10.26 0l-.13-.25m-.36 2.32a1.47 1.47 0 00-.12.25.14.14 0 00.13.15.14.14 0 00.13-.15l-.14-.25m-1.84 1.23a1.56 1.56 0 00-.13.26.13.13 0 00.13.14.13.13 0 00.13-.14l-.13-.26m-2.24 1.31a1.91 1.91 0 00-.13.25.13.13 0 10.26 0l-.13-.25m3.57-4.37h.19l.08-.24s-.09-.1-.16-.09c-.23.06-.48.08-.62.31a.46.46 0 00.22.36c.09 0 .1.05.16.1a.1.1 0 01-.1.12c-.17-.17-.46.06-.58-.15 0-.21.17-.45 0-.64 0 0 .08-.09 0-.13-.07-.19-.28 0-.4 0a.52.52 0 00-.5.25.36.36 0 00.11.21s.08 0 .1.06l-.14.08a.27.27 0 01.05.15c-.09 0-.19-.1-.23-.16s0-.31-.14-.34h-.12a.35.35 0 00-.06.23.87.87 0 00.06.25 2.59 2.59 0 01.52.51c-.12.25-.12.6-.41.74-.09.05-.09.14-.09.22l.07.06c.18-.1.53-.13.5-.43a1.18 1.18 0 01.26-.37.3.3 0 01.32.16.53.53 0 01-.37.41v.12c0 .05.21 0 .29 0 .24-.16.34-.43.54-.52 0 .14-.27.18-.08.32.12 0 .29 0 .37-.15-.09-.24.33-.35.07-.56 0-.21.22-.29.21-.51s-.35-.22-.42-.43a.28.28 0 01.29 0m-10.08 2.59a.26.26 0 00.27-.24.25.25 0 00-.27-.24.25.25 0 00-.28.24.26.26 0 00.28.24m-14.26 8.33a.26.26 0 10-.27-.26.27.27 0 00.27.26"/><path class="cls-1" d="M50.47 16.78a1.74 1.74 0 01-.66 1.36L46 20.57a.49.49 0 01-.3.1.48.48 0 01-.3-.11l-3.81-2.42a1.74 1.74 0 01-.66-1.36V9.2h9.57zm.29-7.85H40.61v7.75a1.86 1.86 0 00.8 1.7l3.9 2.47a.45.45 0 00.35.16.48.48 0 00.32-.12l4-2.51a1.86 1.86 0 00.8-1.7V8.93zM38.43 30.34l-.36-.56-.21.63zm1 .48l-1 .11v-.06c.18 0 .23 0 .22-.12a1.43 1.43 0 00-.17-.32l-.67.08a1.86 1.86 0 00-.09.33c0 .1.15.09.26.08V31l-.6.07V31c.15 0 .18-.12.25-.32l.5-1.43h.08l.79 1.2c.17.25.22.33.36.31z"/><path class="cls-1" d="M55.82 27.75a.83.83 0 01-.63.49c0-.35.34-.6.22-1a.86.86 0 00-.92-.29c-.13.08-.07.23-.11.36l-.06.48c-.29 0-.31-.26-.39-.46a.84.84 0 01.45-.77 1 1 0 01.84 0 .69.69 0 01.48.31c.22.21.16.57.12.84m-1.18.14c.16-.16 0-1.08.41-.48 0 .12 0 .29-.11.38s-.19.18-.3.1m.16.37c0 .23-.21.18-.32.26h-.35a.81.81 0 010-.41 3.45 3.45 0 01.71.15m.41 1.79c-.12.14 0 .38-.16.51s-.22.4-.41.5c-1.73.38-3.44-.21-5.11-.5a17.9 17.9 0 00-7.47-.12c-1.12.21-2.21.47-3.29.78a4.79 4.79 0 01-2 0c-.53-.25-.31-.93-.47-1.4a8.43 8.43 0 00-.11-1 .73.73 0 01-.06-.38c.22 0 .43.19.67.25a9.08 9.08 0 003.45-.37 26.14 26.14 0 013.36-.51 21.93 21.93 0 013.9.13c.41 0 .75.12 1.15.15.81.1 1.57.32 2.4.38.13 0 .29 0 .44.07 1.31.21 2.77.58 4 0a11.46 11.46 0 01-.29 1.53m-7.4 1.07a.88.88 0 01.13.64c-.14.28-.43.28-.69.34a.45.45 0 01-.34-.1.15.15 0 00-.06-.15c0-.19-.33-.38-.07-.54s.79-.72 1-.19m.32.06c.18 0 .19.23.21.38a.79.79 0 01-.5.72.8.8 0 01-.57 0 .93.93 0 00.88-.49zm.38 2a1.64 1.64 0 01-1-.45v-.07a2.79 2.79 0 011.06.47M48 34.48h-.11a7.78 7.78 0 01-.92-1.76H47c.35.57.62 1.2 1 1.76m-.72-.36h-.08c-.07-.06 0-.22 0-.31.09.08.16.18.11.28m-.41-.88c0 .15.16.21.07.34a.43.43 0 01-.07-.34m-.09-1zm-.84 2.15c-.28 0-.7.18-1-.06 0-.12-.12-.17-.11-.29.24-.09.44.19.66 0a7 7 0 011 0c.16 0 .4-.26.43 0-.11.48-.69.14-1 .29m-.64-1.74l.07-.12a6.19 6.19 0 01-.48 1c-.09-.35.28-.63.41-.93m.4-.28c.19-.21.37.12.44.28.22.32.79.61.57 1.05-.28.25-.72 0-1 .21-.16 0-.44 0-.52-.14a9 9 0 01.53-1.4m0-.56h-.06l.09-.09v.09m.33 0c.06-.09.13-.22.24-.22s0 0 0 .05a.77.77 0 01-.27.17m.21.22a.11.11 0 01.13 0zm.39.46v.1l-.33-.27a.35.35 0 01.36.17m0-.85v-.05zm.61-1c-.17.06-.3.27-.48.31a.62.62 0 01.48-.31m-.72-.19c0-.13.13 0 .18-.09h.46c-.24 0-.53.52-.64.06m-1.23.72a1.86 1.86 0 01.22-.54.8.8 0 01.39.06c0 .29.4.69 0 .93-.13.06-.32.2-.46.06a.41.41 0 01-.15-.51m-.21.91v-.2c0-.07.14.05.17.1a.22.22 0 01-.21.1m0-.67V31zm-.1-.47c-.19-.05-.3-.27-.5-.27a1.13 1.13 0 01.55 0c.08.1 0 .19 0 .28M44.79 32a2.25 2.25 0 01.23-.61 1.27 1.27 0 01-.23.61m-.32 0a3.59 3.59 0 01-.7-.17c-.15-.15 0-.31 0-.47a.74.74 0 011.06-.19 1.53 1.53 0 01-.36.83m.13.4v.06-.08h.06-.06zm-.37.85a12 12 0 01-.71 1.38c0 .07-.15.09-.23.1 0-.2.2-.37.29-.54a12.5 12.5 0 01.74-1.2c.09.08-.09.14-.09.26m-1.38-.15c.35-.14.71-.45 1.11-.32a2 2 0 01-1.11.32m.52-1a1.59 1.59 0 01.47-1.32.86.86 0 01.63 0c-.38.1-.86.19-.95.67v.46c0 .16.53.16.73.38a.21.21 0 01-.13.18 6.51 6.51 0 01-.79-.4m-6.82-4.7c0-.12 0-.3.16-.33s.26 0 .28.09a2.72 2.72 0 01-.08.51c-.2 0-.3-.1-.36-.27m0 .49c.22.16.53.09.79.13a.58.58 0 01-.07.5c-.25-.06-.57 0-.7-.27v-.36m-.68-.42a1 1 0 01.35-.73 1.23 1.23 0 011.15 0 .59.59 0 01.23.28.65.65 0 01-.22.66h-.14a1.74 1.74 0 01.08-.66c0-.18-.16-.19-.27-.26a.84.84 0 00-.66.14.71.71 0 00-.19.65c.11.16 0 .38.08.55v.06c-.17-.19-.41-.39-.36-.73m13.65 6.23a6.38 6.38 0 001.56.37c0 .2-.4 0-.36.29a3.45 3.45 0 01-1.31-.62s.06-.06.11 0m-9.08.23l-.21-.19c.11-.13.32-.06.48-.14a2.49 2.49 0 011.26-.21 3.44 3.44 0 01-1.51.51m15.71-6.68a1.57 1.57 0 00-1-.91 1.29 1.29 0 00-1.27.32c-.52.43-.16 1.13-.15 1.7 0 .12 0 .21-.1.27-2.11-.19-4.07-.72-6.17-.94-.48-.08-1-.06-1.42-.16l-.59-.06a24.76 24.76 0 00-5.34.6c-.36.12-.77.15-1.13.28-.27-.05-.48.15-.73.07l-.48.11a.3.3 0 01-.16 0c-.23-.6.46-1 .25-1.55a1.06 1.06 0 00-1-.6 1.21 1.21 0 00-1.16.6c-.34.73.09 1.5.22 2.21 0 .24.23.5 0 .69a2 2 0 00-1.65-.33c-.17.08-.49 0-.58.17a4.13 4.13 0 002.12.27c.09 0 .15-.05.22 0 .06.38-.07.89.16 1.23a1.55 1.55 0 001.12.49 17.65 17.65 0 003.76-.75 4.28 4.28 0 01.54-.12 10.65 10.65 0 012.06-.28 3.79 3.79 0 00-.61 1.32c-.17.4.31.46.45.68a12.1 12.1 0 00-1.19.61 15.56 15.56 0 00-2.59.43c0 .19.3.13.33.32s-.17.14-.27.22 0 .1.08.12.28 0 .37-.14c.29 0 .54-.08.81-.1a2.85 2.85 0 00.75-.29c.3-.09.49-.29.8-.38s.83-.15 1.23-.18v.09c-.33.54-.68 1.1-1 1.61a.17.17 0 00.1.24.74.74 0 00.57-.09c.31-.53.58-1 .83-1.57a2.09 2.09 0 01.83-1.1c.06 0 .14-.12.2 0a6.93 6.93 0 00-.7 1 1.25 1.25 0 00.22 1.27c.18.15.44.11.67.12.57-.29 1.3.18 1.73-.38.27 0 .31.26.45.41s.51.32.76.15c0-.17-.19-.31-.28-.46-.17-.31-.39-.56-.55-.83a3.22 3.22 0 01-.23-.55 4.09 4.09 0 00.78.31 4.25 4.25 0 01.79.24 2.8 2.8 0 00.73.55c.36.18.77.21 1.15.36.14 0 .36.13.46 0a.58.58 0 00-.21-.17c0-.19.26-.09.36-.23a.22.22 0 00-.17-.11c-.21-.11-.73-.15-.86-.23a3 3 0 01-.51-.16c-.88 0-1.36-.79-2-1.08.16-.15.4-.27.5-.49a.78.78 0 000-.77c-.13-.46-.72-.4-1-.65a6.22 6.22 0 011.58.2 35.13 35.13 0 004.14.75c.8 0 1.81 0 2.2-.73.07-.46.16-.91.23-1.37a6.7 6.7 0 00.59-2.21M103.42.39h.6v45.77h-.6zM220 3.38a.33.33 0 000 .62.41.41 0 00.58-.32.35.35 0 00-.58-.29M218.11 0c1 1.09.46 3 .67 3.06.42.15 1.42-.05 2.06.1s2.3 0 2.42.64c.27 1-3 1.12-3.44 1.84a6 6 0 00-.52 3.63c2 0 3.18-1.63 4.77-.7-.18.11-.34 0-.46.22a1.94 1.94 0 01.62.42c-.17 0-.63-.12-.65-.06 0 .22.48.26.55.54-2.08-.62-2.6-.28-4.38.26-.66 11.4-2.94 12.65-3.19 16.26-.09 1.5-.09 3.39-.09 6a76.19 76.19 0 001.35 9.95 30.35 30.35 0 01.51 3.06 4.14 4.14 0 01-.38 2.28s-1 .4-1.39-.38c-.22-1.5-.33-2.08-.67-4.64-.48-3.66-.73-5.25-1.26-7.76a72 72 0 010-8.28c-1.1 0-1.76-.36-2.38.42-.32.56-.51 3.56-.23 6.38a47.06 47.06 0 001 5.66 33.52 33.52 0 01.64 5.38c0 1.61-.87 1.35-1.13 1.19-.73-.39-.83-2.94-1.51-6.76a46 46 0 01-1-12.46c-1.54-.29-7.44-.36-12.39-1-1.93-.24-3.41-.34-4.93-.64-2.12-.39-3.65-1.09-3.9-1.68.23-.83 2.39.09 5 .36 4.87.48 11.54 2 15-.07 2.93-1.69 3.3-4.54 4.76-7.7A75.41 75.41 0 00217 6.89a33.19 33.19 0 01.93-3.64 5.76 5.76 0 01-.24-1.25 4.08 4.08 0 01.42-2"/><path class="cls-1" d="M206 6.77a4.24 4.24 0 00-4.41 4.47 4.15 4.15 0 006.95 2.9c3.41-3.1.39-7.77-2.54-7.37m0-1.55a6.29 6.29 0 015.64 5.09c-.15 3.78-2.33 6.06-6.25 6.44-3.95 0-5.77-3.8-5.89-5.51 0-2.69 2.35-5.81 6.5-6m-89.49 30.54c0-1.68 1-2.89 3.19-2.89.46 0 .93 0 1.38.07v1.95h-1c-.7 0-1 .29-1 1.09v.57h1.8v1.75h-1.8V46h-2.62zm9.49 8.55c1.79 0 2.32-1.53 2.32-3s-.53-3.06-2.32-3.06-2.3 1.53-2.3 3.06.53 3 2.3 3m0-8.07a4.68 4.68 0 014.94 5 4.93 4.93 0 11-9.86 0 4.68 4.68 0 014.92-5m6 .26h2.49v1.77a3.36 3.36 0 013-2 2.19 2.19 0 01.57.09v2.43a5.26 5.26 0 00-.94-.09c-1.92 0-2.58 1.38-2.58 3.06V46H132zm12.14 0h1.92v1.75h-1.92V43c0 .89.22 1.11 1.11 1.11a3.77 3.77 0 00.81-.08v2.05a10.67 10.67 0 01-1.53.09c-1.6 0-3-.37-3-2.26V33.66h2.62zm3.14-3.63h2.62v5a3.34 3.34 0 012.78-1.58c2.79 0 3.49 1.56 3.49 3.92V46h-2.57v-5.34c0-1.57-.46-2.34-1.68-2.34-1.41 0-2 .79-2 2.73v5h-2.62zm16.61 7.37c-.24-1.33-.81-2-2.08-2a2.07 2.07 0 00-2.18 2zm-4.26 1.65c.08 1.66.89 2.42 2.34 2.42a2.17 2.17 0 002.03-1.24h2.3a4.29 4.29 0 01-4.46 3.21 4.65 4.65 0 01-4.86-5 4.77 4.77 0 014.86-5c3.25 0 4.81 2.72 4.63 5.65zm22.7-5.39h2.48v1.77a3.37 3.37 0 013-2 2.06 2.06 0 01.57.09v2.43a5.17 5.17 0 00-.94-.09c-1.91 0-2.58 1.38-2.58 3.06V46h-2.61zm9.58 0h1.92v1.75h-1.92V43c0 .89.22 1.11 1.11 1.11a3.77 3.77 0 00.81-.08v2.05a10.67 10.67 0 01-1.53.09c-1.6 0-3-.37-3-2.26V33.66h2.61zm4.83 6.42c0 1.15 1 1.61 2 1.61.75 0 1.71-.3 1.71-1.22s-1.09-1.07-3-1.47c-1.52-.33-3-.87-3-2.54 0-2.44 2.1-3.06 4.15-3.06s4 .7 4.2 3h-2.49c-.07-1-.84-1.29-1.79-1.29-.59 0-1.45.11-1.45.88 0 .94 1.47 1.07 3 1.42s3 .9 3 2.67c0 2.51-2.18 3.32-4.35 3.32s-4.37-.83-4.48-3.36zm-19.83-10.13h-2.98l-5.02 13.23h2.95l3.52-9.97h.04l1.66 4.85h-3.43l-.77 2.17h4.96l1 2.95h3.02l-4.95-13.23zm-52.35-10.66a2.93 2.93 0 00-3.06-2.44c-2.63 0-3.73 2.32-3.73 4.67s1.1 4.68 3.73 4.68c1.91 0 3-1.43 3.13-3.21h2.1a5 5 0 01-5.23 5c-3.67 0-5.87-2.92-5.87-6.43s2.2-6.42 5.87-6.42c2.77 0 5 1.54 5.21 4.19zm9.75 3.92c0-1.53-.78-3.13-2.53-3.13s-2.53 1.6-2.53 3.13.78 3.14 2.53 3.14 2.53-1.6 2.53-3.14m-7 0c0-2.72 1.64-4.68 4.49-4.68s4.48 2 4.48 4.68-1.63 4.69-4.48 4.69-4.49-2-4.49-4.69m17.61 4.45H143v-1.24a3 3 0 01-2.53 1.48c-2.32 0-3.32-1.17-3.32-3.49v-5.64h2v5.45c0 1.57.64 2.13 1.7 2.13 1.64 0 2.19-1 2.19-2.42v-5.16h1.95zm1.48-8.89h1.85v1.31a3.19 3.19 0 012.77-1.59 2.81 2.81 0 013.14 3v6.1h-2v-5.52c0-1.39-.58-2-1.73-2a2.17 2.17 0 00-2.15 2.34v5.24h-2zm15.27 2.98a1.89 1.89 0 00-2-1.67c-1 0-2.44.53-2.44 3.23 0 1.48.65 3 2.35 3a2.11 2.11 0 002.12-2h2a3.83 3.83 0 01-4.08 3.57c-2.78 0-4.31-2-4.31-4.59s1.46-4.78 4.38-4.78c2.06 0 3.82 1 4 3.22zm3.1-2.98h2v8.89h-2zm0-3.38h2v1.86h-2zm3.8 0h1.96v12.27h-1.96zm-48.71-6.91h3.75l-1.84-5.27zm.76-7.34h2.28l4.73 12.27h-2.3L124.18 13h-4.9l-1.15 3.25h-2.22zm15.28 12.22H134V15a3 3 0 01-2.53 1.48c-2.32 0-3.32-1.17-3.32-3.49V7.34h2v5.44c0 1.57.64 2.13 1.7 2.13 1.64 0 2.19-1 2.19-2.42V7.34h2zm3-2.85c.1 1.13 1 1.55 2 1.55.74 0 2-.16 2-1.17s-1.48-1.15-2.91-1.48-2.85-.83-2.85-2.63 2.1-2.54 3.71-2.54c1.82 0 3.47.75 3.71 2.73h-2c-.17-.93-.95-1.19-1.81-1.19-.56 0-1.61.14-1.61.91 0 1 1.44 1.1 2.89 1.43s2.87.84 2.87 2.6c0 2.11-2.14 2.88-4 2.88-2.23 0-3.89-1-3.93-3.09zm7.01-6.03V4.67h2v2.67h1.77V8.8h-1.77v4.74c0 .81.07 1.22.94 1.22a3.33 3.33 0 00.83-.07v1.51c-.43 0-.84.11-1.27.11-2.05 0-2.43-.79-2.46-2.27v-6.7zm4.95 0h1.84v1.72a2.85 2.85 0 012.59-2 4.36 4.36 0 01.74.05V9a6 6 0 00-.84-.09c-1.34 0-2.41 1.08-2.41 3v4.23h-2zm14.75-3.39h1.96v12.27h-1.96zm3.79 3.39h2v8.88h-2zm0-3.39h2v1.86h-2zm-7.28 9.28c0 1.23-1.34 1.68-2.2 1.68-.69 0-1.8-.26-1.8-1.13 0-1 .75-1.34 1.59-1.48a7 7 0 002.41-.53zm.15 3h1.8v-6.7c-.09-1.77-1.86-2.44-3.55-2.44-2 0-3.9.67-4 3h2c.09-1 .86-1.41 2-1.41.79 0 1.84.19 1.84 1.2s-1.26 1-2.67 1.26c-1.64.19-3.41.55-3.41 2.76 0 1.74 1.44 2.6 3 2.6a4.56 4.56 0 003.07-1.08v.84m16.11-3.04c0 1.24-1.35 1.69-2.2 1.69-.69 0-1.81-.26-1.81-1.14s.76-1.34 1.6-1.47a7.07 7.07 0 002.41-.54zm.15 3h1.79v-6.7c-.09-1.76-1.85-2.43-3.54-2.43-2 0-3.91.67-4 2.95h2c.08-1 .86-1.41 2-1.41.79 0 1.83.19 1.83 1.21s-1.25 1-2.66 1.25c-1.65.19-3.42.55-3.42 2.77 0 1.73 1.44 2.59 3 2.59a4.54 4.54 0 003.08-1.08v.85"/></g></g></svg>