<svg xmlns="http://www.w3.org/2000/svg" viewBox="0 0 122.12 42.2"><defs><style>.cls-1{fill:#fff}</style></defs><g id="Слой_2" data-name="Слой 2"><g id="Слой_1-2" data-name="Слой 1"><path class="cls-1" d="M3.46 20.5V.5H6.6a16.08 16.08 0 014 .36 5.35 5.35 0 012.86 1.76 4.72 4.72 0 011.06 3.05A4.33 4.33 0 0114 7.74a5.18 5.18 0 01-1.57 1.75 6.27 6.27 0 012.67 2.14 5.44 5.44 0 01.84 3 5.66 5.66 0 01-.87 3.07 5.58 5.58 0 01-2.24 2.08 8.79 8.79 0 01-3.8.68zM7.27 4.13v4.22h.83a3.1 3.1 0 002.07-.59 2 2 0 00.67-1.59 1.87 1.87 0 00-.64-1.49 3 3 0 00-1.95-.55zm0 7.62v5.12h1a6 6 0 003.2-.59 2 2 0 00.82-1.75 2.4 2.4 0 00-1-2 5.3 5.3 0 00-3.21-.75zm21.41-6.04h3.71V20.5h-3.71v-1.56a7.13 7.13 0 01-2.18 1.49 6.17 6.17 0 01-2.37.45 6.6 6.6 0 01-5-2.22 7.76 7.76 0 01-2.09-5.53 7.94 7.94 0 012-5.61A6.43 6.43 0 0124 5.33a6.34 6.34 0 012.5.5 6.88 6.88 0 012.16 1.51zm-3.9 3.05A3.75 3.75 0 0021.92 10a4.38 4.38 0 00-1.14 3.12 4.46 4.46 0 001.16 3.16 3.76 3.76 0 002.85 1.24 3.81 3.81 0 002.9-1.22 4.45 4.45 0 001.15-3.19A4.32 4.32 0 0027.69 10a3.88 3.88 0 00-2.91-1.19M34.03 0v20.5h3.72v-6.81l6.28 6.81h4.61l-7.14-7.7 6.37-7.09h-4.66l-5.46 6.1V0h-3.72z"/><path class="cls-1" d="M61.81 14.18H49.89a4 4 0 001.38 2.51 4.33 4.33 0 002.86.93 5 5 0 003.58-1.45l3.13 1.47A7.43 7.43 0 0158 20.09a8.7 8.7 0 01-3.87.79 7.67 7.67 0 01-5.67-2.19 7.47 7.47 0 01-2.19-5.5 7.73 7.73 0 012.18-5.62A7.35 7.35 0 0154 5.33a7.62 7.62 0 015.68 2.24 8.07 8.07 0 012.19 5.9zm-3.71-2.92a3.66 3.66 0 00-1.45-2 4.18 4.18 0 00-2.51-.78 4.42 4.42 0 00-2.72.87 4.75 4.75 0 00-1.37 1.92zm5.12-5.55h3.18v1.86a4 4 0 011.37-1.67 3.33 3.33 0 011.88-.57 3.54 3.54 0 011.51.38L70 8.91a2.5 2.5 0 00-1.07-.33 1.7 1.7 0 00-1.45 1.06 9.77 9.77 0 00-.59 4.16v6.7h-3.67zM16.49 21.82l-4.68 13.95-4.64-13.95H3.46L0 41.82h3.71l2.2-12.63 4.21 12.63h3.35l4.25-12.63 2.15 12.63h3.68l-3.36-20h-3.7zM38.78 30l-3.09 1.7A4.58 4.58 0 0032 30.1a4.64 4.64 0 00-3.37 1.24 4.23 4.23 0 00-1.29 3.19 4.13 4.13 0 001.24 3.08 4.53 4.53 0 003.26 1.19 4.72 4.72 0 003.88-1.7l2.92 2a8 8 0 01-6.74 3.1 8.07 8.07 0 01-6.12-2.31 7.69 7.69 0 011.87-12.21 8.9 8.9 0 014.3-1 8.8 8.8 0 014 .87A7.6 7.6 0 0138.78 30m1.34-8.18h3.85v6.89l5.43-6.89h4.57l-6.98 8.93 7.66 11.07h-4.51l-6.17-8.89v8.89h-3.85v-20z"/><path class="cls-1" d="M68.4 35.5H56.48a4 4 0 001.38 2.5 4.33 4.33 0 002.86.93 5 5 0 003.58-1.46L67.42 39a7.35 7.35 0 01-2.8 2.46 8.76 8.76 0 01-3.87.79A7.67 7.67 0 0155.08 40a7.49 7.49 0 01-2.19-5.5 7.71 7.71 0 012.18-5.63 7.32 7.32 0 015.47-2.23 7.62 7.62 0 015.69 2.23 8.08 8.08 0 012.19 5.91zm-3.71-2.93a3.78 3.78 0 00-1.45-2 4.24 4.24 0 00-2.51-.77 4.45 4.45 0 00-2.73.87 4.86 4.86 0 00-1.36 1.91zm5-5.57h3.71v1.51a9.17 9.17 0 012.29-1.48 5.49 5.49 0 012.1-.41 5.07 5.07 0 013.73 1.53A5.28 5.28 0 0182.81 32v9.78h-3.67v-6.44a16.28 16.28 0 00-.24-3.52A2.22 2.22 0 0076.62 30a2.73 2.73 0 00-1.93.76 4 4 0 00-1.12 2.08 16.54 16.54 0 00-.17 3v5.94h-3.71zm15.18.03H96.2l-6.65 11.65h6.27v3.14H83.85l6.68-11.65h-5.66v-3.14zm32.85 8.47h-11.93a4 4 0 001.38 2.5 4.36 4.36 0 002.87.93 5 5 0 003.57-1.46l3.13 1.53a7.35 7.35 0 01-2.8 2.46 8.78 8.78 0 01-3.88.79 7.67 7.67 0 01-5.67-2.25 7.49 7.49 0 01-2.19-5.5 7.72 7.72 0 012.19-5.63 7.32 7.32 0 015.47-2.23 7.59 7.59 0 015.68 2.23 8.08 8.08 0 012.19 5.91zM114 32.57a3.78 3.78 0 00-1.45-2 4.27 4.27 0 00-2.52-.77 4.44 4.44 0 00-2.72.87 4.86 4.86 0 00-1.31 1.9zm-16.74-5.54h3.71v14.79h-3.71zm-.01-4.04h3.71v2.8h-3.71zM118.63 39h3.5v2.8h-3.5z"/></g></g></svg>