<svg xmlns="http://www.w3.org/2000/svg" viewBox="0 0 92.37 66.13"><defs><style>.cls-1{fill:#fff}.cls-2,.cls-4{fill:none;stroke:#fff}.cls-2{stroke-width:.05px}.cls-4{stroke-width:.04px}</style></defs><g id="Слой_2" data-name="Слой 2"><g id="Слой_1-2" data-name="Слой 1"><path class="cls-1" d="M57.29 33.28a28 28 0 01-6.16 5.86 10 10 0 01-2.26 1.13 6.57 6.57 0 01-2.09.39 5.87 5.87 0 01-.78-.06 1.78 1.78 0 01-.79-.28 1.81 1.81 0 01-.61-.59 1.67 1.67 0 01-.25-1 5.44 5.44 0 01.55-2c.37-.84.8-1.71 1.3-2.62s1-1.76 1.48-2.59.89-1.44 1.18-1.86a2.16 2.16 0 011-.76 3.28 3.28 0 01.9-.31c.19 0 .28.06.28.17a1.22 1.22 0 01-.08.34 1 1 0 01-.2.34c-.47.75-1 1.58-1.45 2.48s-.95 1.77-1.35 2.62a19.22 19.22 0 00-1 2.34 5.88 5.88 0 00-.35 1.69 1.24 1.24 0 00.35 1 1.41 1.41 0 001 .31 4.9 4.9 0 002.42-.76A20.08 20.08 0 0053 37.28 27 27 0 0055.37 35a24.05 24.05 0 001.71-2c.18-.19.28-.24.3-.14a.78.78 0 01-.09.42"/><path class="cls-2" d="M57.29 33.28a28 28 0 01-6.16 5.86 10 10 0 01-2.26 1.13 6.57 6.57 0 01-2.09.39 5.87 5.87 0 01-.78-.06 1.78 1.78 0 01-.79-.28 1.81 1.81 0 01-.61-.59 1.67 1.67 0 01-.25-1 5.44 5.44 0 01.55-2c.37-.84.8-1.71 1.3-2.62s1-1.76 1.48-2.59.89-1.44 1.18-1.86a2.16 2.16 0 011-.76 3.28 3.28 0 01.9-.31c.19 0 .28.06.28.17a1.22 1.22 0 01-.08.34 1 1 0 01-.2.34c-.47.75-1 1.58-1.45 2.48s-.95 1.77-1.35 2.62a19.22 19.22 0 00-1 2.34 5.88 5.88 0 00-.35 1.69 1.24 1.24 0 00.35 1 1.41 1.41 0 001 .31 4.9 4.9 0 002.42-.76A20.08 20.08 0 0053 37.28 27 27 0 0055.37 35a24.05 24.05 0 001.71-2c.18-.19.28-.24.3-.14a.78.78 0 01-.09.42"/><path class="cls-1" d="M71.77 33.28a29.06 29.06 0 01-2.28 2.78 20.87 20.87 0 01-2.75 2.51 17.08 17.08 0 01-3 1.81 6.83 6.83 0 01-2.94.72 3.57 3.57 0 01-1.21-.2c-.37-.12-.55-.44-.55-1a4.85 4.85 0 01.57-1.9c.36-.79.79-1.63 1.29-2.51s1-1.78 1.54-2.69a23.49 23.49 0 001.29-2.54.54.54 0 000-.46q-.07-.2-.36 0c-.4.26-.88.61-1.43 1s-1.11.9-1.67 1.4-1.12 1-1.66 1.51a16.65 16.65 0 00-1.29 1.38c-.59.92-1.09 1.76-1.51 2.53s-1 1.63-1.57 2.59q-.23.33-.33.33c-.19 0-.34-.2-.47-.61a3.38 3.38 0 01-.19-.77 2.5 2.5 0 01.75-1.34l1.51-1.9c.59-1.17 1.19-2.41 1.81-3.71s1.16-2.47 1.6-3.5a.55.55 0 01.5-.27.83.83 0 01.6.27.84.84 0 01.28.61 6.14 6.14 0 01-.8 1.51 29.48 29.48 0 00-1.57 3q1.05-.93 2.28-2c.83-.7 1.62-1.34 2.37-1.93s1.41-1.07 2-1.45a2.78 2.78 0 011.19-.58.53.53 0 01.41.25.75.75 0 01.19.46 1.45 1.45 0 01-.27.66c-.41.59-.9 1.34-1.49 2.26s-1.15 1.86-1.68 2.84a30.3 30.3 0 00-1.35 2.77 6.07 6.07 0 00-.55 2.1 1.14 1.14 0 00.28.9 1.25 1.25 0 00.88.25 4.7 4.7 0 002.2-.71A19 19 0 0067 37.88a22.21 22.21 0 002.56-2.4 18.68 18.68 0 002-2.53.24.24 0 01.33-.08c.14.05.12.19-.06.41"/><path class="cls-2" d="M71.77 33.28a29.06 29.06 0 01-2.28 2.78 20.87 20.87 0 01-2.75 2.51 17.08 17.08 0 01-3 1.81 6.83 6.83 0 01-2.94.72 3.57 3.57 0 01-1.21-.2c-.37-.12-.55-.44-.55-1a4.85 4.85 0 01.57-1.9c.36-.79.79-1.63 1.29-2.51s1-1.78 1.54-2.69a23.49 23.49 0 001.29-2.54.54.54 0 000-.46q-.07-.2-.36 0c-.4.26-.88.61-1.43 1s-1.11.9-1.67 1.4-1.12 1-1.66 1.51a16.65 16.65 0 00-1.29 1.38c-.59.92-1.09 1.76-1.51 2.53s-1 1.63-1.57 2.59q-.23.33-.33.33c-.19 0-.34-.2-.47-.61a3.38 3.38 0 01-.19-.77 2.5 2.5 0 01.75-1.34l1.51-1.9c.59-1.17 1.19-2.41 1.81-3.71s1.16-2.47 1.6-3.5a.55.55 0 01.5-.27.83.83 0 01.6.27.84.84 0 01.28.61 6.14 6.14 0 01-.8 1.51 29.48 29.48 0 00-1.57 3q1.05-.93 2.28-2c.83-.7 1.62-1.34 2.37-1.93s1.41-1.07 2-1.45a2.78 2.78 0 011.19-.58.53.53 0 01.41.25.75.75 0 01.19.46 1.45 1.45 0 01-.27.66c-.41.59-.9 1.34-1.49 2.26s-1.15 1.86-1.68 2.84a30.3 30.3 0 00-1.35 2.77 6.07 6.07 0 00-.55 2.1 1.14 1.14 0 00.28.9 1.25 1.25 0 00.88.25 4.7 4.7 0 002.2-.71A19 19 0 0067 37.88a22.21 22.21 0 002.56-2.4 18.68 18.68 0 002-2.53.24.24 0 01.33-.08c.14.05.12.19-.06.41"/><path class="cls-1" d="M77 29.62c0-.45-.24-.67-.72-.67a2.09 2.09 0 00-1.13.38 6.47 6.47 0 00-1.13 1 16 16 0 00-1 1.35 11.89 11.89 0 00-.83 1.4 1.16 1.16 0 00.39.08h.44a4.1 4.1 0 002.8-1.07A3.24 3.24 0 0077 29.62m5.77 4a24.53 24.53 0 01-2.22 2.26A20.28 20.28 0 0177.69 38a16.7 16.7 0 01-3.14 1.56 9.25 9.25 0 01-3.22.6c-1.72 0-2.59-.73-2.59-2.18a7.44 7.44 0 01.8-3.14 13.46 13.46 0 014.85-5.49 5.4 5.4 0 012.89-1 1.63 1.63 0 011.07.26.85.85 0 01.3.67 2.82 2.82 0 01-.41 1.35A4.9 4.9 0 0177 32.08a7 7 0 01-2.09 1.09 9.14 9.14 0 01-3 .44 8.45 8.45 0 00-.6 1.48 6.56 6.56 0 00-.33 2c0 1.41.67 2.12 2 2.12a6.7 6.7 0 002.62-.57 15.08 15.08 0 002.61-1.42 18.81 18.81 0 002.34-1.87 20 20 0 001.79-1.89.21.21 0 01.25 0 .19.19 0 01.13.2"/><path class="cls-2" d="M77 29.62c0-.45-.24-.67-.72-.67a2.09 2.09 0 00-1.13.38 6.47 6.47 0 00-1.13 1 16 16 0 00-1 1.35 11.89 11.89 0 00-.83 1.4 1.16 1.16 0 00.39.08h.44a4.1 4.1 0 002.8-1.07A3.24 3.24 0 0077 29.62m5.77 4a24.53 24.53 0 01-2.22 2.26A20.28 20.28 0 0177.69 38a16.7 16.7 0 01-3.14 1.56 9.25 9.25 0 01-3.22.6c-1.72 0-2.59-.73-2.59-2.18a7.44 7.44 0 01.8-3.14 13.46 13.46 0 014.85-5.49 5.4 5.4 0 012.89-1 1.63 1.63 0 011.07.26.85.85 0 01.3.67 2.82 2.82 0 01-.41 1.35A4.9 4.9 0 0177 32.08a7 7 0 01-2.09 1.09 9.14 9.14 0 01-3 .44 8.45 8.45 0 00-.6 1.48 6.56 6.56 0 00-.33 2c0 1.41.67 2.12 2 2.12a6.7 6.7 0 002.62-.57 15.08 15.08 0 002.61-1.42 18.81 18.81 0 002.34-1.87 20 20 0 001.79-1.89.21.21 0 01.25 0 .19.19 0 01.13.2"/><path class="cls-1" d="M24.2 55.6v-.05a43.58 43.58 0 005.55-7.85q1.92-3.29 3.75-6.51T37 35c1.07-2 3-5.36 3.29-5.86 1.9-3.28 3.55-6.41 5.23-9.25s3.43-5.62 5.24-8.33q1.47-2.22 3.15-4.32a34.19 34.19 0 013.42-3.69A18.46 18.46 0 0160.72 1 6.8 6.8 0 0164 0a3.64 3.64 0 011.9.51 1.38 1.38 0 01.82 1.14 6.71 6.71 0 01-.08.76c-.06.36-.11.76-.16 1.19s-.11.87-.17 1.31a9.66 9.66 0 00-.08 1A.33.33 0 0166 6a.29.29 0 01-.22-.11 5.18 5.18 0 00.14-.76v-.65A1.9 1.9 0 0065 2.79a4.51 4.51 0 00-2.52-.6 8 8 0 00-2.36.38 8.26 8.26 0 00-2.5 1.36A17.43 17.43 0 0055 6.54a29.69 29.69 0 00-2.85 4.12c-.54.94-1.21 2.15-2 3.64s-1.68 3.06-2.59 4.7-1.81 3.41-2.71 5.16-1.68 3.42-2.5 4.91c.56-1-2.72 5.24-4 7.57s-2.64 4.59-4 6.76A113.45 113.45 0 0124.58 56m0 0a50.89 50.89 0 01-7 5.86 26.57 26.57 0 01-6.22 3.26 16.8 16.8 0 01-5.5 1 9.19 9.19 0 01-1.66-.16 5.59 5.59 0 01-1.74-.65A5.09 5.09 0 011 63.91a6.33 6.33 0 01-1-2.36c0-.29 0-.42.1-.38s.15.14.22.32a3.11 3.11 0 00.43 1 5.2 5.2 0 001.15 1.23 6.61 6.61 0 001.81 1 7.53 7.53 0 002.61.41 20.58 20.58 0 005.29-.9 22.19 22.19 0 006-3 41.65 41.65 0 006.59-5.63"/><path d="M24.2 55.6v-.05a43.58 43.58 0 005.55-7.85q1.92-3.29 3.75-6.51T37 35c1.07-2 3-5.36 3.29-5.86 1.9-3.28 3.55-6.41 5.23-9.25s3.43-5.62 5.24-8.33q1.47-2.22 3.15-4.32a34.19 34.19 0 013.42-3.69A18.46 18.46 0 0160.72 1 6.8 6.8 0 0164 0a3.64 3.64 0 011.9.51 1.38 1.38 0 01.82 1.14 6.71 6.71 0 01-.08.76c-.06.36-.11.76-.16 1.19s-.11.87-.17 1.31a9.66 9.66 0 00-.08 1A.33.33 0 0166 6a.29.29 0 01-.22-.11 5.18 5.18 0 00.14-.76v-.65A1.9 1.9 0 0065 2.79a4.51 4.51 0 00-2.52-.6 8 8 0 00-2.36.38 8.26 8.26 0 00-2.5 1.36A17.43 17.43 0 0055 6.54a29.69 29.69 0 00-2.85 4.12c-.54.94-1.21 2.15-2 3.64s-1.68 3.06-2.59 4.7-1.81 3.41-2.71 5.16-1.68 3.42-2.5 4.91c.56-1-2.72 5.24-4 7.57s-2.64 4.59-4 6.76A113.45 113.45 0 0124.58 56m0 0a50.89 50.89 0 01-7 5.86 26.57 26.57 0 01-6.22 3.26 16.8 16.8 0 01-5.5 1 9.19 9.19 0 01-1.66-.16 5.59 5.59 0 01-1.74-.65A5.09 5.09 0 011 63.91a6.33 6.33 0 01-1-2.36c0-.29 0-.42.1-.38s.15.14.22.32a3.11 3.11 0 00.43 1 5.2 5.2 0 001.15 1.23 6.61 6.61 0 001.81 1 7.53 7.53 0 002.61.41 20.58 20.58 0 005.29-.9 22.19 22.19 0 006-3 41.65 41.65 0 006.59-5.63" stroke-miterlimit="10" stroke-width=".05" fill="none" stroke="#fff"/><path class="cls-1" d="M49.44 52.77c.06.56.18 1.44.92 1.66a4.07 4.07 0 001.11.14c.09 0 .14 0 .14.07s-.15.15-.36.15c-.38 0-2.22 0-2.86-.1-.39 0-.48-.08-.48-.15s0-.1.12-.11.11-.29.07-.57l-.82-8.06h-.05L43 53.93c-.36.68-.41.82-.57.82s-.2-.15-.53-.71c-.44-.77-1.91-3.47-2-3.63s-2.07-4-2.26-4.45h-.07l-.68 7.25V54a.52.52 0 00.45.49 3.66 3.66 0 00.64.08c.07 0 .14 0 .14.07s-.1.15-.31.15h-3.03c-.17 0-.29 0-.29-.15s.09-.07.18-.07a2.28 2.28 0 00.51 0c.56-.09.61-.7.68-1.3L37.12 43c0-.17.08-.28.18-.28s.17.06.26.23l5.24 9.83 5-9.81c.07-.14.14-.25.25-.25s.18.12.21.42z"/><path class="cls-4" d="M49.44 52.77c.06.56.18 1.44.92 1.66a4.07 4.07 0 001.11.14c.09 0 .14 0 .14.07s-.15.15-.36.15c-.38 0-2.22 0-2.86-.1-.39 0-.48-.08-.48-.15s0-.1.12-.11.11-.29.07-.57l-.82-8.06h-.05L43 53.93c-.36.68-.41.82-.57.82s-.2-.15-.53-.71c-.44-.77-1.91-3.47-2-3.63s-2.07-4-2.26-4.45h-.07l-.68 7.25V54a.52.52 0 00.45.49 3.66 3.66 0 00.64.08c.07 0 .14 0 .14.07s-.1.15-.31.15h-3.03c-.17 0-.29 0-.29-.15s.09-.07.18-.07a2.28 2.28 0 00.51 0c.56-.09.61-.7.68-1.3L37.12 43c0-.17.08-.28.18-.28s.17.06.26.23l5.24 9.83 5-9.81c.07-.14.14-.25.25-.25s.18.12.21.42z"/><path class="cls-1" d="M52.91 47.51v-3.38c0-.5-.18-.78-.74-.89a3.69 3.69 0 00-.58 0c-.07 0-.14 0-.14-.1s.09-.12.28-.12h3.7c.18 0 .27 0 .27.12s-.07.1-.14.1a2.61 2.61 0 00-.42 0c-.47.06-.6.35-.64.89s0 .94 0 3.38v2.18c0 2.25.55 3.22 1.28 3.86a3.55 3.55 0 002.59.86A3.73 3.73 0 0061 53.29a5.65 5.65 0 001-3.83v-5.38c0-.5-.17-.78-.74-.89a3.52 3.52 0 00-.58 0c-.06 0-.13 0-.13-.1s.08-.12.27-.12h3.25c.19 0 .27 0 .27.12s-.06.1-.13.1a2.82 2.82 0 00-.43 0c-.46.1-.6.35-.63.89s0 .94 0 3.38v1.67c0 1.69-.2 3.56-1.57 4.67a5.32 5.32 0 01-3.66 1.2 5.56 5.56 0 01-3.52-1.11c-.84-.73-1.49-1.82-1.49-4.1z"/><path class="cls-4" d="M52.91 47.51v-3.38c0-.5-.18-.78-.74-.89a3.69 3.69 0 00-.58 0c-.07 0-.14 0-.14-.1s.09-.12.28-.12h3.7c.18 0 .27 0 .27.12s-.07.1-.14.1a2.61 2.61 0 00-.42 0c-.47.06-.6.35-.64.89s0 .94 0 3.38v2.18c0 2.25.55 3.22 1.28 3.86a3.55 3.55 0 002.59.86A3.73 3.73 0 0061 53.29a5.65 5.65 0 001-3.83v-5.38c0-.5-.17-.78-.74-.89a3.52 3.52 0 00-.58 0c-.06 0-.13 0-.13-.1s.08-.12.27-.12h3.25c.19 0 .27 0 .27.12s-.06.1-.13.1a2.82 2.82 0 00-.43 0c-.46.1-.6.35-.63.89s0 .94 0 3.38v1.67c0 1.69-.2 3.56-1.57 4.67a5.32 5.32 0 01-3.66 1.2 5.56 5.56 0 01-3.52-1.11c-.84-.73-1.49-1.82-1.49-4.1z"/><path class="cls-1" d="M66.14 54.58c-.24-.11-.25-.17-.25-.59 0-.78.07-1.41.08-1.66s0-.25.14-.25.12.05.12.18a2.53 2.53 0 000 .57 2.33 2.33 0 002.53 1.6 2.2 2.2 0 002.45-2.08c0-1.08-.5-1.7-2-2.81l-.69-.54c-1.81-1.36-2.22-2.33-2.22-3.39 0-1.67 1.37-2.81 3.54-2.81a7.51 7.51 0 011.59.15A2.6 2.6 0 0072 43c.14 0 .17 0 .17.11s-.07.6-.07 1.66c0 .25 0 .36-.12.36s-.12-.08-.13-.21a2.49 2.49 0 00-.23-.78c-.1-.17-.56-.83-2.13-.83a1.88 1.88 0 00-2.11 1.82c0 .89.44 1.45 2.09 2.62l.48.35c2 1.45 2.5 2.42 2.5 3.67A3.15 3.15 0 0171 54.35a4.79 4.79 0 01-2.58.65 5.7 5.7 0 01-2.3-.42"/><path class="cls-4" d="M66.14 54.58c-.24-.11-.25-.17-.25-.59 0-.78.07-1.41.08-1.66s0-.25.14-.25.12.05.12.18a2.53 2.53 0 000 .57 2.33 2.33 0 002.53 1.6 2.2 2.2 0 002.45-2.08c0-1.08-.5-1.7-2-2.81l-.69-.54c-1.81-1.36-2.22-2.33-2.22-3.39 0-1.67 1.37-2.81 3.54-2.81a7.51 7.51 0 011.59.15A2.6 2.6 0 0072 43c.14 0 .17 0 .17.11s-.07.6-.07 1.66c0 .25 0 .36-.12.36s-.12-.08-.13-.21a2.49 2.49 0 00-.23-.78c-.1-.17-.56-.83-2.13-.83a1.88 1.88 0 00-2.11 1.82c0 .89.44 1.45 2.09 2.62l.48.35c2 1.45 2.5 2.42 2.5 3.67A3.15 3.15 0 0171 54.35a4.79 4.79 0 01-2.58.65 5.7 5.7 0 01-2.28-.42z"/><path class="cls-1" d="M77.54 50.26a32.67 32.67 0 00.09 3.38c.05.46.15.8.66.86a6.22 6.22 0 00.78.07c.1 0 .13 0 .13.09s-.08.13-.27.13h-3.78c-.19 0-.28 0-.28-.13s0-.09.14-.09a2.24 2.24 0 00.51-.07c.34-.06.43-.4.5-.86.08-.65.08-1.88.08-3.38v-6.13c0-.5-.21-.79-.58-.87a2.25 2.25 0 00-.52-.06c-.07 0-.14 0-.14-.1s.09-.12.27-.12h1.73c.08 0 1.14.02 1.64.02.19 0 .27 0 .27.12s-.07.1-.13.1a2.82 2.82 0 00-.43 0c-.46.08-.6.35-.63.89s0 .94 0 3.38zm5.26 3.06a5.73 5.73 0 01-2.07-4.63 5.93 5.93 0 011.92-4.26 7.27 7.27 0 015.22-1.67 16.17 16.17 0 012.48.19 15.79 15.79 0 001.74.23c.19 0 .23.08.23.17s-.06.31-.09.88 0 1.37 0 1.61-.05.32-.15.32-.14-.11-.14-.32a2.11 2.11 0 00-.72-1.6 6.09 6.09 0 00-3.42-.89c-2.28 0-3.34.61-3.94 1.14a5 5 0 00-1.54 4.08 5.92 5.92 0 006.18 5.72 4.27 4.27 0 003-.78 3 3 0 00.63-1.32c0-.17.07-.23.17-.23s.12.11.12.23a15.19 15.19 0 01-.38 2c-.1.3-.13.33-.44.45a10.84 10.84 0 01-3.08.36 8.38 8.38 0 01-5.65-1.68"/><path class="cls-4" d="M82.8 53.32a5.73 5.73 0 01-2.07-4.63 5.93 5.93 0 011.92-4.26 7.27 7.27 0 015.22-1.67 16.17 16.17 0 012.48.19 15.79 15.79 0 001.74.23c.19 0 .23.08.23.17s-.06.31-.09.88 0 1.37 0 1.61-.05.32-.15.32-.14-.11-.14-.32a2.11 2.11 0 00-.72-1.6 6.09 6.09 0 00-3.42-.89c-2.28 0-3.34.61-3.94 1.14a5 5 0 00-1.54 4.08 5.92 5.92 0 006.18 5.72 4.27 4.27 0 003-.78 3 3 0 00.63-1.32c0-.17.07-.23.17-.23s.12.11.12.23a15.19 15.19 0 01-.38 2c-.1.3-.13.33-.44.45a10.84 10.84 0 01-3.08.36 8.38 8.38 0 01-5.72-1.68z"/><path class="cls-1" d="M28.48 29.06c-3.12.08-10.26.12-12.08.2a30.7 30.7 0 00-4.36.46 6.77 6.77 0 00-2.57 1 18.92 18.92 0 00-2.14 1.76l-.33-.1a12.41 12.41 0 013.07-2.53 8.87 8.87 0 012.84-1c.58-.06 1.36-.13 2.34-.19s2-.1 3.16-.12l3.32-.08c1.09 0 20.11.06 21.71.07h7.08c.36.11.47.28.32.52H34.28"/><path class="cls-1" d="M10.77 34.88c-.19.58-.34 1-.39 1.3s0 .31.14.33a1.45 1.45 0 00.3 0c.08 0 .1 0 .09.05s-.06.06-.16.06H9.01c-.09 0-.13 0-.11-.07s0 0 .11 0a1.29 1.29 0 00.23 0c.13 0 .21-.16.29-.33s.27-.72.46-1.3l.35-1.08c.3-.92.35-1.09.41-1.29s0-.3-.16-.35h-.33c.01 0 .07-.06.17-.06h2.81a.3.3 0 01.11 0v.05c0 .05-.07.12-.14.28s-.16.42-.2.49 0 .09-.09.09 0 0 0-.1a.53.53 0 000-.23c0-.09-.12-.18-.35-.18h-1s-.06 0-.08.08L11.07 34v.05h1.08a.49.49 0 00.31-.11s.06-.06.1-.06-.1.19-.18.38-.15.4-.17.45 0 .11-.1.11 0 0 0-.08a.84.84 0 000-.19.25.25 0 00-.25-.22h-.92c-.1 0-.05 0-.06.05zm3.75-2.82c.05-.1.11-.16.16-.16s.08 0 .11.19l.58 3.45 2.84-3.49c.08-.09.13-.14.19-.14s.07.06.05.19l-.66 3.77c-.07.38-.07.56.1.61a1 1 0 00.37.06c.06 0 .1 0 .09.05s-.1.06-.19.06h-1.25c-.14 0-.18 0-.16-.07s0 0 .09-.07.08-.09.11-.26l.5-2.68-2.29 2.73c-.24.29-.29.34-.34.34s-.08-.12-.12-.3-.25-1.21-.27-1.39-.14-.89-.21-1.35L13.08 36a2.66 2.66 0 00-.11.28c0 .12 0 .17.12.2h.33c-.01 0-.07.07-.17.07h-1.27c-.07 0-.11 0-.09-.07s0 0 .11 0h.19c.19 0 .32-.27.42-.48zm6.54 1.77c.1-.33.18-.59.25-.8s.07-.22 0-.22a5.52 5.52 0 00-.82.3h-.1v-.07a.18.18 0 01.09-.08l1.71-.96a.43.43 0 01.19-.08c.06 0 .05.07 0 .13s-.25.65-.55 1.59l-.37 1.12c-.19.59-.36 1.11-.42 1.38s-.05.28.14.33h.4s.05 0 0 .06-.05.06-.12.06h-2.07c-.07 0-.1 0-.08-.06a.07.07 0 01.07-.06h.51c.21 0 .27-.13.36-.32s.28-.79.47-1.38zM25 32.24c-.55 0-1.13.71-1.56 2-.35 1.06-.44 2.21.33 2.21.55 0 1.15-.72 1.57-2 .34-1.05.42-2.21-.34-2.21m-1.44 4.51c-1.35 0-1.25-1.33-1-2.26C23.05 33 24 32 25.19 32s1.25 1.33.95 2.26c-.48 1.45-1.4 2.53-2.61 2.53m2.11-.15s-.08 0-.06-.08a.48.48 0 01.18-.16c1.12-.75 2.67-1.7 3.09-3 .32-1-.16-1.16-.48-1.16a1.16 1.16 0 00-.73.22 1.54 1.54 0 00-.46.59c0 .06-.05.11-.11.11s0 0 0-.11.14-.56.2-.74a.18.18 0 01.11-.12 3 3 0 011.19-.19c1.1 0 1.38.58 1.15 1.3-.39 1.18-2.07 2.21-3.08 2.84h1.51a1.12 1.12 0 00.89-.55c.05-.07.07-.09.11-.09s0 .05 0 .11a7.67 7.67 0 01-.46.87c-.11.17-.21.19-.61.19zm3.8-.36a.56.56 0 01.5-.38.25.25 0 01.27.36.57.57 0 01-.51.39c-.27 0-.31-.2-.26-.37m1.31.36c-.09 0-.09-.11-.05-.24a7.77 7.77 0 01.28-.76c0-.06.07-.11.11-.11s0 0 0 .1c-.21.65.14.82.58.82a1.51 1.51 0 001.4-1.12c.32-1-.64-1.38-1.11-1.44-.07 0-.11 0-.08-.13l.67-1.61c0-.06.08-.07.15-.07h1.53a1.43 1.43 0 00.36 0 .7.7 0 00.13 0v.12a5.49 5.49 0 01-.33.78.11.11 0 01-.09.07v-.08c0-.08.07-.33-.44-.33h-1.13l-.33.74c.89.15 1.86.65 1.52 1.71a2.68 2.68 0 01-2.62 1.71 1.15 1.15 0 01-.55-.11m24.32-15.04a1.85 1.85 0 01-.52 1.21 1.57 1.57 0 01-1.18.6.54.54 0 01-.61-.6 2 2 0 01.48-1.26 1.45 1.45 0 011.18-.6.58.58 0 01.65.65"/></g></g></svg>