<svg xmlns="http://www.w3.org/2000/svg" viewBox="0 0 118.58 61.07"><defs><style>.cls-1{fill:#fff}</style></defs><g id="Слой_2" data-name="Слой 2"><g id="Слой_1-2" data-name="Слой 1"><path class="cls-1" d="M80.2 32.49L77.84 38h4.73zm7.2 10.95h-2.55l-1.4-3.31H77l-1.42 3.31h-2.51l6.05-13.84h2.23zm3.28 0H88.3V33.08h2.38v2.33a3.68 3.68 0 013.67-2.53v2.52h-.14c-2.08 0-3.53 1.35-3.53 4.1zm8.6-3.24a1.13 1.13 0 001.27 1.3 3.32 3.32 0 001.48-.35v1.94a4.21 4.21 0 01-2.14.53c-1.75 0-3-.77-3-3v-5.5h-1.3v-2h1.31v-2.89h2.38v2.85h2.79v2h-2.79zm8.34 3.44a7.31 7.31 0 01-4.4-1.55l1.06-1.61a5.87 5.87 0 003.4 1.28c1 0 1.61-.44 1.61-1.12 0-.81-1.1-1.08-2.32-1.46-1.53-.43-3.24-1-3.24-3s1.63-3.16 3.69-3.16a7.15 7.15 0 013.81 1.18l-.94 1.69a6 6 0 00-2.92-1c-.93 0-1.46.43-1.46 1 0 .74 1.12 1.06 2.34 1.45 1.51.47 3.22 1.16 3.22 3 0 2.18-1.69 3.26-3.85 3.26m-24.95 3.24h2.37v13.74h-2.02l-7.58-9.78v9.78h-2.37V46.84h2.24l7.36 9.5v-9.5zm10.42 5.77c2.91.71 4.42 1.74 4.42 4 0 2.59-2 4.12-4.91 4.12a8.46 8.46 0 01-5.73-2.19l1.45-1.73a6.32 6.32 0 004.34 1.78c1.49 0 2.44-.68 2.44-1.74s-.55-1.53-3.11-2.12c-2.92-.71-4.57-1.57-4.57-4.12 0-2.4 2-4 4.69-4a7.64 7.64 0 015 1.73l-1.3 1.82a6.23 6.23 0 00-3.73-1.41c-1.41 0-2.23.73-2.23 1.65 0 1.08.62 1.55 3.25 2.18m14.26-5.78h2.04l3.37 10.22 3.28-10.18h2.53l-4.79 13.84h-2.08l-3.37-9.88-3.38 9.88h-2.08l-4.79-13.84h2.61l3.28 10.18 3.38-10.22zM51 36.27l-2.44 10.66L46 36.27h-3.63l-2.64 10.54-2.41-10.54h-3.91l4.33 16.65h3.85l2.54-10.53 2.59 10.53h3.78v-.14l4.4-16.51zM15.14 46.91L6.08 36.27H2.24v16.66H6V42.31l9 10.62h3.87V36.27h-3.73zM1.84 58a2.62 2.62 0 012.66-2.64 2.81 2.81 0 012 .69l-.57.69a2 2 0 00-1.45-.55A1.74 1.74 0 002.79 58a1.72 1.72 0 001.75 1.84 2.09 2.09 0 001.25-.39v-1H4.47v-.79h2.19v2.16a3.23 3.23 0 01-2.15.81A2.56 2.56 0 011.84 58m9.81 0a1.76 1.76 0 00-1.75-1.81A1.74 1.74 0 008.16 58a1.76 1.76 0 001.75 1.83A1.74 1.74 0 0011.65 58m-4.44 0a2.64 2.64 0 012.7-2.66A2.61 2.61 0 0112.6 58a2.64 2.64 0 01-2.7 2.67A2.62 2.62 0 017.21 58m5.33-2.56h1l1.55 3.96 1.55-3.96h.98l-2.15 5.19h-.79l-2.14-5.19zm5.69 0h3.82v.81h-2.92v1.34h2.59v.81h-2.59v1.39h2.96v.81h-3.86v-5.16zM25.2 58c.65 0 1.06-.34 1.06-.86 0-.55-.4-.85-1.07-.85h-1.32V58zM23 55.44h2.29a2.05 2.05 0 011.49.52 1.52 1.52 0 01.43 1.11A1.56 1.56 0 0126 58.65l1.39 2h-1.12L25 58.8h-1.13v1.8H23zm4.98 0h.84l2.76 3.57v-3.57h.89v5.16h-.76l-2.84-3.67v3.67h-.89v-5.16zm5.41 0h.96l1.57 2.44 1.57-2.44h.97v5.16h-.91v-3.7l-1.63 2.43h-.03l-1.61-2.42v3.69h-.89v-5.16zm5.93 0h3.82v.81h-2.91v1.34h2.58v.81h-2.58v1.39h2.95v.81h-3.86v-5.16zm4.75 0h.84l2.76 3.57v-3.57h.89v5.16h-.75l-2.84-3.67v3.67h-.9v-5.16zm6.85.84h-1.64v-.84h4.19v.84h-1.64v4.32h-.91v-4.32zm-31.01-5.67l2.2-2.61a7.75 7.75 0 005.05 2c1.52 0 2.44-.61 2.44-1.6 0-.94-.58-1.42-3.41-2.15-3.41-.87-5.61-1.81-5.61-5.17V41c0-3.07 2.47-5.1 5.93-5.1a9.77 9.77 0 016.28 2.15l-1.93 2.81a7.93 7.93 0 00-4.4-1.67c-1.43 0-2.18.65-2.18 1.47 0 1.11.73 1.48 3.65 2.22 3.44.9 5.37 2.13 5.37 5.08 0 3.36-2.56 5.24-6.21 5.24a10.76 10.76 0 01-7.18-2.7M11.14 4.66c-.35 0-.56.21-.63.62 0 0-.09.61-.18 1.64s-.19 2.44-.19 4.22c0 4 .52 9.71 3 14.07 1.91 3.33 4.62 5.21 7.63 5.31a9.62 9.62 0 01-3.32-4.71 25.77 25.77 0 01-1.06-7.74 42.68 42.68 0 01.89-8.49.13.13 0 000-.05 1.82 1.82 0 01.88-1.24A44 44 0 0012 4.93c-.3-.14-.47-.2-.47-.2a.78.78 0 00-.33-.07m26.16 4.68a.5.5 0 00-.26.11l-.27.22-.77.66c-.46.42-1.4 1.29-2.49 2.49a24 24 0 00-5.13 8.51 18.19 18.19 0 00-.94 5.29 6.07 6.07 0 00.5 2.74 3 3 0 001.56 1.55 2.69 2.69 0 001.13.2 7.87 7.87 0 006.83-5.66 25.18 25.18 0 001-7.38 43.4 43.4 0 00-.72-7.63c-.09-.42-.13-.65-.13-.65-.06-.2-.16-.45-.34-.45"/><path class="cls-1" d="M18.84 9.34c-.19 0-.3.24-.36.45 0 0-.05.27-.13.65s-.17.91-.3 1.79a41.52 41.52 0 00-.43 5.84 24.3 24.3 0 001 7.37 8 8 0 007 5.67 3.05 3.05 0 001.19-.21 4.11 4.11 0 00.54-.29 4.68 4.68 0 01-.43-.73 7.55 7.55 0 01-.64-3.25 19.94 19.94 0 011-5.66c.05-.19.12-.39.19-.58a2.09 2.09 0 01.08-.23c-2.3-5.71-7.58-10-8.17-10.48l-.29-.23a.53.53 0 00-.27-.11M28.08 0c-.12 0-.26.1-.39.3 0 0-.11.16-.28.45s-.52.87-.77 1.32a48.63 48.63 0 00-2.32 4.66c-.62 1.38-1.17 2.82-1.66 4.27a28 28 0 015.53 7.61 28 28 0 015.33-7.51A53.5 53.5 0 0028.75.75l-.29-.46C28.28 0 28.13 0 28.08 0M45 4.66a.8.8 0 00-.32.07l-.47.2q-.44.18-1.17.54l-.18.08A42.63 42.63 0 0038.45 8l-.45.28a1.84 1.84 0 01.89 1.24.15.15 0 000 .06 44.06 44.06 0 01.87 8.49 26.5 26.5 0 01-1 7.73 9.48 9.48 0 01-3.25 4.71c3-.14 5.64-2 7.53-5.3 2.49-4.36 3-10.06 3-14.07 0-1.42-.07-2.84-.19-4.23-.1-1-.18-1.63-.18-1.64a.64.64 0 00-.67-.61m-8.25-3.39h-.13a.66.66 0 00-.28.11s-.66.4-1.67 1.13c-.56.4-1.44 1.06-2.53 2a53.11 53.11 0 012.1 5 42.41 42.41 0 014.33-3 43 43 0 00-1.18-4.68v-.05a.65.65 0 00-.61-.5m-17.37-.01a.66.66 0 00-.62.5v.05a42.18 42.18 0 00-1.2 4.68 40.3 40.3 0 014.33 3 51.25 51.25 0 012.11-5c-.86-.71-1.71-1.37-2.54-2-1-.73-1.66-1.13-1.66-1.13a.69.69 0 00-.29-.11h-.12M4.85 12.1H3.46a1.14 1.14 0 00-.87.52 1.09 1.09 0 00-.18.64c.06.6.47 2.78 3.07 6.06a45.54 45.54 0 013.94-1.73A37.72 37.72 0 019 12.31c-1.59-.15-2.85-.2-3.63-.21h-.52m46.45 0h-.47c-.78 0-2 .06-3.62.21a41.25 41.25 0 01-.48 5.31 54.4 54.4 0 014 1.73c2.61-3.29 3-5.47 3.06-6.07a1.23 1.23 0 00-.17-.63 1.15 1.15 0 00-.88-.52h-1.39"/><path class="cls-1" d="M46.52 18.84a23.32 23.32 0 01-2.48 7 12.37 12.37 0 01-4.32 4.61C52.11 29.74 55.6 25.76 56 25.3a1.1 1.1 0 00.19-.61 1.13 1.13 0 00-.44-.9l-.41-.28c-.19-.15-.48-.34-.84-.57l-.29-.2a44.09 44.09 0 00-4.07-2.3 33.59 33.59 0 00-3.58-1.59m-36.92-.01A42.66 42.66 0 00.83 23.5l-.4.28a1.15 1.15 0 00-.43.9 1.11 1.11 0 00.18.61l.08.1.05.06a5.87 5.87 0 00.62.55 12.6 12.6 0 003 1.79 36.11 36.11 0 0012.53 2.6 12.54 12.54 0 01-4.31-4.62 22.79 22.79 0 01-2.48-7M45 31.32a25.83 25.83 0 00-3 .33l-.66.09a17 17 0 01-2.39.13h-4.09a20.08 20.08 0 00-5.2.55.19.19 0 00-.14.18s.11.07.2.07h.08q1-.09 2-.09a19.89 19.89 0 015.28.76 17 17 0 004.52.66c2 0 3.52-.42 4.16-1.12a1 1 0 00.28-.76c0-.52-.22-.76-1.08-.76m-33.77-.04c-.86 0-1 .24-1.08.76a1 1 0 00.28.76c.61.69 2.22 1.16 4.17 1.16a16.82 16.82 0 004.56-.69 19.9 19.9 0 015.29-.76c.62 0 1.29 0 2 .09h.09c.09 0 .19 0 .2-.07a.19.19 0 00-.14-.18 20.15 20.15 0 00-5.21-.55h-4.09a16.91 16.91 0 01-2.38-.13l-.68-.1a27.49 27.49 0 00-3-.32m52.11 29.78a.48.48 0 01-.49-.49V11.22a.49.49 0 011 0v49.36a.48.48 0 01-.49.49"/></g></g></svg>