<svg xmlns="http://www.w3.org/2000/svg" viewBox="0 0 23.79 17.62"><g id="Слой_2" data-name="Слой 2"><path d="M2 15.68c0-.61-.26-1-.93-1s-.92.44-.92 1.07v.84c0 .62.25 1.06.92 1.06s.93-.47.93-1.09v-.08h-.6v.18c0 .33-.11.47-.33.47s-.33-.13-.33-.47v-1.05c0-.33.11-.47.32-.47s.33.14.33.47v.07zm1 1.88v-2.24a.7.7 0 01.38-.18.19.19 0 01.21.21v2.21h.6v-2.31c0-.37-.19-.6-.5-.6A.89.89 0 003 15v-1.27h-.6v3.83zm2.88-.9c0 .33-.12.47-.33.47s-.33-.14-.33-.47v-1.05c0-.33.12-.47.33-.47s.33.14.33.47zm-1.26-.1c0 .62.25 1.06.93 1.06s.92-.44.92-1.06v-.84c0-.63-.24-1.07-.92-1.07s-.93.44-.93 1.07zm2.89-1.85h-.6v2.85h.6zm0-1h-.6v.54h.6zm1.09 3.85v-2a.36.36 0 01.4-.34 1.28 1.28 0 01.39.06v-.63h-.14a.77.77 0 00-.67.39v-.33H8v2.85zm2.65-2.15a.87.87 0 00-.87-.76.77.77 0 00-.8.77c0 .78 1.12 1 1.12 1.46a.24.24 0 01-.27.25c-.27 0-.35-.21-.39-.45l-.52.14a.87.87 0 00.91.8.74.74 0 00.83-.77c0-.85-1.11-1-1.11-1.48 0-.15.1-.23.26-.23s.29.13.34.36zm-8-12.22l-.95.16c-.08-.43-.29-.67-.65-.67s-.49.15-.49.43C1.19 4 3.3 4.3 3.3 5.91a1.41 1.41 0 01-1.58 1.47A1.64 1.64 0 010 5.86l1-.27c.07.46.23.86.74.86a.46.46 0 00.5-.45c0-1-2.12-1.32-2.12-2.8a1.45 1.45 0 011.51-1.45 1.65 1.65 0 011.65 1.44m2.16 2.13l.69-3.47h1.13L5.84 7.68C5.6 8.66 5.15 9 4.3 9h-.47v-.95h.27c.56 0 .75-.3.75-.88a2.82 2.82 0 00-.13-.71L3.54 1.85h1.15l.73 3.47zm5.65 1.95H10v-.56a1.35 1.35 0 01-1.21.67c-.7 0-1.14-.53-1.14-1.52v-2.6c0-1 .44-1.51 1.14-1.51a1.63 1.63 0 011.21.57V0h1.13zM10 6.17V3a1.13 1.13 0 00-.64-.28c-.3 0-.55.16-.55.88v2c0 .72.25.88.55.88a1.13 1.13 0 00.64-.31m3.15 1.1H12V1.85h1v.55a1.82 1.82 0 011.38-.65c.59 0 .94.44.94 1.14v4.38h-1.09v-4.2a.36.36 0 00-.4-.39 1.31 1.31 0 00-.72.34zm4.21-3.42h1.25v-.28c0-.63-.23-.89-.63-.89s-.62.26-.62.89zm2.37-.08v1h-2.41v.78c0 .63.22.89.62.89s.63-.26.63-.89v-.11h1.12c0 1.15-.49 1.94-1.75 1.94s-1.75-.83-1.75-2V3.77c0-1.19.46-2 1.75-2s1.75.83 1.75 2M22 5.32l.69-3.47h1.13l-1.45 5.83c-.24 1-.69 1.3-1.54 1.3h-.47v-.93h.27c.56 0 .75-.3.75-.88a2.78 2.78 0 00-.12-.71l-1.18-4.61h1.14L22 5.32zM.05 10.27V14h.6v-1.11a.86.86 0 00.61.29c.38 0 .61-.27.61-.79V11c0-.53-.23-.8-.61-.8a.7.7 0 00-.63.35v-.3zm.6.59a.55.55 0 01.35-.15c.16 0 .28.08.28.46v1.06c0 .38-.12.46-.28.46a.59.59 0 01-.34-.14zm2.25 2.27v-2.24a.7.7 0 01.38-.18c.13 0 .21.06.21.2v2.22h.6v-2.31c0-.37-.19-.6-.5-.6a.89.89 0 00-.69.32V9.3h-.6v3.83zm2.26-2.86h-.6v2.86h.6zm0-1h-.6v.54h.6zm1.07 0h-.6v3.83h.6zm1.07 3.86v-2.24a.67.67 0 01.38-.18c.13 0 .21.06.21.2v2.22h.6v-2.31c0-.37-.19-.6-.5-.6a.88.88 0 00-.69.32V9.3h-.6v3.83zm2.19-2c0-.24.06-.4.33-.4s.3.12.3.36v.17c-.86.33-1.27.67-1.27 1.3a.57.57 0 00.6.64 1 1 0 00.7-.27v.22h.57a1.65 1.65 0 010-.3V11c0-.52-.31-.77-.86-.77a.87.87 0 00-1 .89zm.63 1.32a.55.55 0 01-.4.26c-.18 0-.28-.07-.28-.26s.14-.44.68-.75zm1.68.7v-2a.38.38 0 01.4-.38 1.26 1.26 0 01.38.06v-.62h-.12a.78.78 0 00-.68.39v-.34h-.56v2.86zm2.85 0v-2.26a.67.67 0 01.37-.18.19.19 0 01.22.2v2.22h.59v-2.31c0-.37-.18-.6-.56-.6-.21 0-.37.06-.66.34-.13-.24-.22-.34-.52-.34s-.41.13-.66.34v-.29h-.56v2.86h.59v-2.24a.72.72 0 01.39-.18.18.18 0 01.2.2v2.22zm2.87-.9c0 .33-.11.46-.32.46s-.33-.13-.33-.46v-1.08c0-.32.11-.46.33-.46s.32.14.32.46zm-1.25-.11c0 .63.25 1.06.93 1.06s.92-.43.92-1.06v-.84c0-.62-.24-1.06-.92-1.06s-.93.44-.93 1.06zm2.88 1v-2.25a.7.7 0 01.38-.18c.13 0 .21.06.21.2v2.22h.6v-2.31c0-.37-.19-.6-.5-.6a1 1 0 00-.72.34v-.29h-.57v2.86zm2.26-2.86h-.6v2.86h.6zm0-1h-.6v.54h.6zm1 1.81c0-.24.07-.4.34-.4s.29.12.29.36v.17c-.85.33-1.27.67-1.27 1.3a.58.58 0 00.61.64 1 1 0 00.69-.27v.22h.56V11c0-.52-.32-.77-.87-.77a.87.87 0 00-.95.89zm.59 1.34a.52.52 0 01-.39.26c-.19 0-.28-.07-.28-.26s.13-.44.67-.75zM12.53 17v.37h.09c.12 0 .17-.06.17-.19s0-.18-.19-.18zm0-.51v.33h.08a.14.14 0 00.15-.15q0-.18-.15-.18zm-.23 1.05v-1.19h.34c.24 0 .35.12.35.32a.26.26 0 01-.16.26.28.28 0 01.19.29.32.32 0 01-.36.35zm1.15-1.05v.38h.08c.12 0 .17 0 .17-.19s0-.19-.17-.19zm0 .55v.5h-.23v-1.19h.32c.26 0 .39.1.39.36s-.08.28-.16.31l.19.55h-.23l-.16-.5h-.12m1.33.5h-.64v-1.22h.62v.18h-.39v.32h.3V17h-.3v.36h.41zm.32 0v-1h-.22v-.18h.67v.18h-.22v1zm.72 0v-1h-.23v-.18h.68v.18H16v1zm1.24-.44l.15-.78h.19l.15.78.13-.78h.22l-.24 1.22h-.19l-.17-.8-.15.8H17l-.25-1.22h.21l.14.78zm1.62.44H18v-1.22h.62v.18h-.39v.32h.3V17h-.3v.36h.41zm.6-.5v.5h-.23v-.5l-.28-.72H19l.16.47.15-.47h.23zm1-.72h.3v1.22h-.2v-.95l-.21.95h-.11l-.21-.95v.95h-.2v-1.22H20l.16.72zm.81.24l-.09.53h.18l-.09-.53zm-.09.71v.27h-.22l.22-1.22h.28l.25 1.22h-.22v-.27zm.87-.78v.38h.08c.13 0 .17 0 .17-.19s0-.19-.17-.19zm0 .55v.5h-.23v-1.22H22c.26 0 .39.1.39.36s-.08.28-.16.31l.2.55h-.24l-.16-.5h-.12m.91.5h-.23v-1.22h.23v.45l.24-.45h.23l-.25.46.28.76H23l-.14-.57-.08.13zm-9.86-2.82l-.16.71-.17-.71h-.3V16h.2v-1l.2 1h.11l.16-1v1h.2v-1.25zm.52.92c0 .21.13.32.35.32a.31.31 0 00.35-.32v-.92h-.28v.92c0 .09 0 .14-.12.14s-.13-.05-.13-.14v-.92h-.22zM15 15a.31.31 0 00-.31-.3c-.23 0-.36.11-.36.31 0 .35.47.41.47.66 0 .07-.06.11-.14.11s-.12-.06-.13-.19h-.22a.34.34 0 00.34.34c.22 0 .36-.11.36-.31s-.46-.44-.46-.64 0-.12.11-.12a.12.12 0 01.13.13zm.45-.28h-.25V16h.23zm.94.41v-.09a.32.32 0 00-.34-.34.31.31 0 00-.35.32v.63a.31.31 0 00.3.35.3.3 0 00.34-.31v-.14h-.23v.14c0 .08 0 .13-.11.13s-.12-.05-.12-.14v-.62c0-.09 0-.13.12-.13s.11 0 .11.14v.1zm.87-.24h.08c.13 0 .17 0 .17.17v.54c0 .13 0 .17-.17.17h-.08zM17 16h.34a.33.33 0 00.36-.37v-.48a.33.33 0 00-.36-.37H17zm1.18-1.22H18V16h.23zm.48.17h.08c.13 0 .17 0 .17.19s0 .19-.17.19h-.08zm0 .55h.12l.22.5h.24l-.2-.55c.08 0 .16-.11.16-.31s-.13-.36-.39-.36h-.32V16h.23zM20 16v-.18h-.41v-.36h.29v-.18h-.29v-.32H20v-.18h-.61V16zm.87-.81v-.09a.32.32 0 00-.34-.34.31.31 0 00-.35.32v.63a.31.31 0 00.35.31.3.3 0 00.34-.31v-.14h-.23v.14c0 .08 0 .13-.11.13s-.12-.05-.12-.14v-.62c0-.09 0-.13.12-.13s.11 0 .11.14v.1zm.36.81h.23v-1h.22v-.18H21V15h.22zm.59-.29a.35.35 0 00.7 0v-.63a.35.35 0 00-.7 0zm.23-.63c0-.09 0-.13.12-.13s.12 0 .12.13v.62c0 .09 0 .14-.12.14s-.12-.05-.12-.14zm.92-.13h.08c.13 0 .17 0 .17.19s0 .19-.17.19H23zm0 .55h.12l.16.5h.23l-.19-.55c.08 0 .16-.11.16-.31s-.13-.36-.39-.36h-.32V16H23z" fill="#f36f21" id="Слой_1-2" data-name="Слой 1"/></g></svg>