<svg xmlns="http://www.w3.org/2000/svg" viewBox="0 0 45.87 78.68"><defs><style>.cls-1{fill:#fff}</style></defs><g id="Слой_2" data-name="Слой 2"><g id="Слой_1-2" data-name="Слой 1"><path class="cls-1" d="M31.16 73h4.1v-7.8c0-3 1-4.27 3.17-4.27 1.9 0 2.63 1.22 2.63 3.67V73h4.09v-9.15c0-3.69-1.09-6.15-5.45-6.15a5.33 5.33 0 00-4.56 2.48h-.09v-2.07h-3.89zm-9.61-3.5c-2.51 0-3.32-2.33-3.32-4.47s1-4.24 3.32-4.24c2.66 0 3.45 2.21 3.45 4.59 0 2.13-1.15 4.12-3.49 4.12m7.39-11.39H25v2a4.67 4.67 0 00-4.45-2.4c-4.18 0-6.4 3.52-6.4 7.39 0 4.1 1.9 7.5 6.37 7.5A5.06 5.06 0 0025 70.28v2c0 2.14-1 3.7-3.29 3.7-1.44 0-2.68-.52-3.05-2h-4.03c.2 3.4 3.63 4.79 6.58 4.79 6.86 0 7.73-4.16 7.73-6.61zm-16.47-5.69H8.34v3.38h4.09zM8.34 73h4.09V58.11H8.34z"/><path class="cls-1" d="M32.05 53.75c.18 4 3.55 5.25 7 5.25s6.81-1.27 6.81-5.19c0-2.77-2.33-3.64-4.73-4.19s-4.64-.75-4.64-2.22c0-1.21 1.35-1.38 2.28-1.38 1.47 0 2.68.43 2.79 2h3.9c-.32-3.67-3.32-4.76-6.58-4.76s-6.49 1-6.49 4.79c0 2.62 2.37 3.46 4.73 4 2.94.63 4.65 1.07 4.65 2.31 0 1.44-1.5 1.9-2.69 1.9-1.61 0-3.11-.72-3.14-2.51zm-11.39-4.21a3.23 3.23 0 013.4-3.18c2 0 2.89 1.1 3.26 3.18zm10.76 2.59c.29-4.58-2.16-8.85-7.24-8.85-4.53 0-7.62 3.4-7.62 7.87 0 4.62 2.91 7.85 7.62 7.85a6.71 6.71 0 007-5h-3.63a3.37 3.37 0 01-3.23 1.93c-2.28 0-3.55-1.18-3.66-3.78zm-20.11-1c0 2.45-.81 4.81-3.52 4.81-2.54 0-3.61-2.45-3.61-4.79s.93-4.76 3.61-4.76 3.52 2.31 3.52 4.74m.06 7.5h3.89V38h-4.09v7.5h-.06a5.15 5.15 0 00-4.42-2.22C2.31 43.28.09 47 .09 51s2.19 8 6.69 8a5 5 0 004.53-2.31h.06z"/><path class="cls-1" d="M41.57 36.73c0 2.48-1.06 4.76-3.49 4.76s-3.49-2.28-3.49-4.76 1.07-4.79 3.49-4.79 3.49 2.28 3.49 4.79m-10.93 7.44h3.89v-1.9h.06c.9 1.64 2.71 2.31 4.91 2.31 3 0 6.17-2.4 6.17-7.88s-3.2-7.85-6.17-7.85a5.51 5.51 0 00-4.71 2.22v-7.5h-4.1zM19.07 33.84c.14-1.61 1.15-2.25 2.71-2.25s2.66.26 2.66 2-2.34 1.59-4.85 2-5.08 1.16-5.08 4.53c0 3.06 2.25 4.48 5.08 4.48a6.87 6.87 0 005-1.85 5.84 5.84 0 00.29 1.44h4.15a7.7 7.7 0 01-.52-3.32v-7.78c0-3.58-3.57-4.24-6.55-4.24-3.34 0-6.78 1.16-7 5zm5.37 4.56a3 3 0 01-3.32 3.43c-1.33 0-2.51-.37-2.51-1.9S19.76 38 21 37.74s2.71-.26 3.41-.87zM8.89 44.17H13v-20.6H8.89z"/><path class="cls-1" d="M35.08 20.69a3.23 3.23 0 013.41-3.18c2 0 2.88 1.1 3.26 3.18zm10.76 2.59c.29-4.58-2.16-8.85-7.24-8.85-4.53 0-7.61 3.4-7.61 7.87s2.91 7.85 7.61 7.85a6.7 6.7 0 007-5H42a3.38 3.38 0 01-3.23 1.93c-2.28 0-3.55-1.18-3.67-3.78zm-15.46-3.2c-.26-3.81-3.49-5.65-7-5.65-4.85 0-7.62 3.43-7.62 8.07a7.24 7.24 0 007.53 7.65c3.92 0 6.71-2.15 7.18-6.15h-4a3.15 3.15 0 01-3.26 3c-2.56 0-3.4-2.57-3.4-4.7s.87-4.85 3.49-4.85a2.8 2.8 0 013 2.57z"/><path class="cls-1" d="M35.63 5c.14-1.61 1.15-2.25 2.71-2.25S41 3 41 4.76s-2.34 1.59-4.85 2-5.08 1.16-5.08 4.53c0 3.06 2.25 4.47 5.08 4.47a6.86 6.86 0 005-1.84 5.84 5.84 0 00.29 1.44h4.15a7.73 7.73 0 01-.5-3.36V4.24C45.09.66 41.52 0 38.54 0c-3.34 0-6.78 1.15-7 5zM41 9.55A3 3 0 0137.68 13c-1.33 0-2.51-.37-2.51-1.9s1.15-1.93 2.42-2.19S40.3 8.63 41 8zm-18.32 3.09c-2.66 0-3.58-2.31-3.58-4.74s.9-4.81 3.55-4.81 3.58 2.45 3.58 4.81-.87 4.74-3.55 4.74m-7.53 7.93h4.09v-7.1h.06a5.27 5.27 0 004.47 2.25c4.36 0 6.55-3.72 6.55-7.7 0-4.24-2.1-8-6.78-8a5 5 0 00-4.44 2.29H19V.4h-3.85zM0 10.47c.17 4 3.55 5.25 7 5.25s6.81-1.26 6.81-5.19c0-2.77-2.34-3.63-4.73-4.18S4.44 5.6 4.44 4.13c0-1.22 1.36-1.39 2.28-1.39 1.47 0 2.69.43 2.8 2h3.9C13.1 1.1 10.1 0 6.84 0S.35 1 .35 4.79c0 2.62 2.36 3.46 4.73 4C8 9.4 9.72 9.84 9.72 11.08 9.72 12.52 8.22 13 7 13c-1.62 0-3.12-.72-3.15-2.51z"/></g></g></svg>