<svg xmlns="http://www.w3.org/2000/svg" viewBox="0 0 22.41 22.41"><g id="Слой_2" data-name="Слой 2"><path d="M11.21 0a11.21 11.21 0 1011.2 11.21A11.21 11.21 0 0011.21 0m5.63 9.27a7.39 7.39 0 01-11.37 6.57 5.22 5.22 0 003.85-1.08A2.6 2.6 0 016.89 13a2.54 2.54 0 001.17-.05A2.59 2.59 0 016 10.33a2.6 2.6 0 001.18.33 2.61 2.61 0 01-.81-3.47 7.41 7.41 0 005.34 2.71 2.6 2.6 0 014.43-2.37 5 5 0 001.65-.63 2.6 2.6 0 01-1.14 1.44 5.07 5.07 0 001.49-.41 5.18 5.18 0 01-1.3 1.34" fill="#dadbdc" id="Слой_1-2" data-name="Слой 1"/></g></svg>