<svg xmlns="http://www.w3.org/2000/svg" viewBox="0 0 22.41 22.41"><g id="Слой_2" data-name="Слой 2"><path d="M22.41 11.21a11.21 11.21 0 10-11.2 11.2 11.2 11.2 0 0011.2-11.2M10 4L9 7.23V9.4h-.8V7.23a12.2 12.2 0 00-.49-1.69c-.17-.5-.35-1-.51-1.5H8l.57 2.11L9.16 4zm2.14 4.07a1.52 1.52 0 01-.23.94 1 1 0 01-.84.41 1 1 0 01-.84-.41 1.59 1.59 0 01-.23-.9v-1.4a1.56 1.56 0 01.23-.94 1 1 0 01.77-.41 1 1 0 01.84.41 1.5 1.5 0 01.23.94zm2.65 1.33h-.73V9a1.18 1.18 0 01-.82.5.45.45 0 01-.47-.3 2 2 0 01-.06-.59v-3.2h.72v3.22c0 .11.08.17.17.17s.3-.12.46-.34V5.41h.73zm2.34 4.84a12.46 12.46 0 01-.21 2.8 1.5 1.5 0 01-1.28 1.16 38.6 38.6 0 01-4.43.17 38.68 38.68 0 01-4.44-.17A1.5 1.5 0 015.49 17a13.06 13.06 0 01-.2-2.8 12.5 12.5 0 01.21-2.8 1.49 1.49 0 011.27-1.16 41.09 41.09 0 014.44-.16 40.9 40.9 0 014.43.16 1.49 1.49 0 011.28 1.16 12.5 12.5 0 01.21 2.8m-.9 1.8v-.56h-.73v.48a.31.31 0 01-.32.29c-.25 0-.37-.18-.37-.55V15h1.43v-.82a1.56 1.56 0 00-.22-.93 1 1 0 00-.84-.4 1 1 0 00-.86.4 1.56 1.56 0 00-.22.93v1.39a1.52 1.52 0 00.23.92 1 1 0 00.87.41 1 1 0 00.86-.43 1.08 1.08 0 00.17-.43m-1.42-1.64V14c0-.37.12-.55.36-.55s.36.18.36.55v.36zm-1.34 2.05a3 3 0 00.07-.79v-1.61a3 3 0 00-.07-.8.56.56 0 00-.57-.44 1 1 0 00-.74.43V11.5h-.72v5.3h.72v-.38a1 1 0 00.74.44.56.56 0 00.57-.45m-.64-.73c0 .35-.11.53-.31.53a.52.52 0 01-.36-.18v-2.41a.55.55 0 01.36-.17c.2 0 .31.18.31.54zm-2.72 1.12h.72v-3.94h-.72v3c-.16.23-.31.34-.45.34s-.15-.06-.17-.17a1.44 1.44 0 010-.28v-2.9h-.72V16a2 2 0 00.06.58.44.44 0 00.46.3 1.13 1.13 0 00.82-.49zm-2.3-4.55h.85v-.75H6.17v.75H7v4.55h.8zm3.58-4V6.56c0-.36-.11-.55-.35-.55s-.34.19-.34.55v1.68c0 .37.11.56.34.56s.35-.19.35-.56" fill="#dadbdc" id="Слой_1-2" data-name="Слой 1"/></g></svg>