<svg width="395" height="379" fill="none" xmlns="http://www.w3.org/2000/svg"><path d="M57.333 78.707c-23.486 58.321 12.338 94.364 124.018 143.495a3184.63 3184.63 0 0111.483 5.061c4.186 1.853 8.041 3.584 11.607 5.199a359.816 359.816 0 019.922 4.577c8.488 3.999 14.74 7.221 19.238 9.994 50.695 28.496 75.273 60.692 86.244 79.663 6.59-7.507 12.179-16.858 16.768-28.255 26.368-65.476-32.111-96.917-129.329-140.638-53.545-24.055-62.638-27.303-58.75-36.959" fill="#7527B2"/><path d="M238.97 250.179a93.09 93.09 0 00-2.13-1.256l-.007.018c11.628 6.717 12.981 10.639 10.684 16.342-3.514 8.726-12.691 8.932-65.057-12.156-56.114-22.597-63.882-34.703-59.289-46.109l-88.43-35.611C6.62 241.234 54.412 279.588 152.013 318.891c81.547 32.84 137.56 42.046 168.999 6.402-10.514-17.899-33.956-48.177-82.043-75.114zm-90.433-129.342c3.888-9.656 13.705-8.206 57.375 9.38 43.671 17.586 65.785 29.822 60.456 43.056l93.076 37.481c25.796-64.029-19.827-109.842-117.561-149.2C144.15 22.199 79.52 23.612 57.332 78.71" fill="#7527B2"/></svg>