<svg width="134" height="29" fill="none" xmlns="http://www.w3.org/2000/svg"><path d="M3.388 1.102h116.204c3.566 0 6.902 1.103 9.344 3.363 2.439 2.257 4.006 5.687 4.006 10.38 0 4.693-1.567 8.122-4.006 10.38-2.442 2.26-5.778 3.362-9.344 3.362H3.388a1.07 1.07 0 01-1.07-1.069V2.171c0-.59.48-1.07 1.07-1.07z" stroke="url(#paint0_linear_2365_25)" stroke-width=".389"/><g filter="url(#filter0_ii_2365_25)" clip-path="url(#clip0_2365_25)"><path d="M21.194.907H2.22c-.698 0-1.264.566-1.264 1.264v25.347c0 .698.566 1.264 1.264 1.264h18.973c7.21 0 13.544-4.46 13.544-13.937S28.404.907 21.194.907z" fill="url(#paint1_linear_2365_25)"/></g><g clip-path="url(#clip1_2365_25)"><path d="M7.946 12.028c0 3.384 2.498 4.463 9.023 4.67a166.344 166.344 0 011.35.049c.2.006.394.017.585.029.5.029.875.064 1.154.112 3.085.403 4.949 1.517 5.872 2.243.177-.507.268-1.086.268-1.747 0-3.8-3.53-4.194-9.23-4.422-3.137-.125-3.653-.104-3.653-.664" fill="#fff"/><path d="M20.387 16.937a5.17 5.17 0 00-.13-.02v.001c.711.102.857.27.857.601 0 .507-.452.702-3.472.702-3.236 0-3.864-.449-3.864-1.11h-5.1c0 4.051 3.138 5.005 8.767 5.005 4.704 0 7.668-.666 8.515-3.078-.88-.682-2.648-1.723-5.573-2.1z" fill="url(#paint2_linear_2365_25)"/><path d="M13.315 12.297c0-.56.516-.685 3.034-.685 2.52 0 3.861.166 3.861.934h5.368C25.58 8.831 22.4 7.46 16.762 7.46c-5.636 0-8.816 1.37-8.816 4.568" fill="#fff"/><path d="M16.385 7.462c-5.335 0-7.969 1.517-8.32 3.552v.001h.004c.925.697 2.968 1.426 6.042 1.819l.138.02v-.001c-.749-.105-.9-.277-.9-.614-.02-.038-.258-.633 2.82-.624 3.407.01 4.021.314 4.042.933l5.39.035c.01-4.124-3.29-5.12-9.216-5.12z" fill="url(#paint3_linear_2365_25)"/></g><g clip-path="url(#clip2_2365_25)" fill="#7527B2"><path d="M51.9 9.987c0 2.77-1.873 4.074-4.005 4.074h-5.983V5.914h5.983c2.132 0 4.005 1.303 4.005 4.073zm-2.12 0c0-1.978-1.084-2.316-2.686-2.316h-3.062v4.632h3.062c1.602 0 2.686-.337 2.686-2.316zm9.646 2.34H54.49l-.883 1.734h-2.333l4.253-8.147h2.861l4.264 8.147h-2.344l-.883-1.734zm-.79-1.56l-1.67-3.307-1.685 3.306h3.357zm15.147-4.853v8.147h-2.886L65.28 7.95v6.11h-2.12V5.914h2.874l5.63 6.122V5.914h2.12zm5.889-.117c3.286 0 4.935 1.234 5.146 3.584h-2.155c-.2-1.315-1.225-1.827-2.992-1.827-2.155 0-3.062.757-3.062 2.421 0 1.664.919 2.444 3.062 2.444 1.755 0 2.791-.524 2.992-1.85h2.155c-.212 2.362-1.86 3.608-5.146 3.608-3.628 0-5.183-1.49-5.183-4.202 0-2.712 1.555-4.178 5.183-4.178zm8.032 1.781v1.653H94.3v1.513h-6.596v1.652H94.3v1.665h-8.716V5.914H94.3v1.664h-6.596zm15.206 4.062l1.519 2.42h-2.497l-1.331-2.176h-3.415v2.177h-2.12V5.914h6.477c1.873 0 3.157 1.175 3.157 2.99 0 1.328-.684 2.305-1.79 2.736zm-5.724-1.513h3.768c.636 0 1.626 0 1.626-1.222s-.99-1.234-1.626-1.234h-3.768v2.456zm10.093 1.129c0 .86.707 1.256 3.392 1.256 2.226 0 2.897-.244 2.897-.884 0-.675-.471-.791-3.144-.92-3.592-.163-5.018-.721-5.018-2.549 0-1.827 1.85-2.362 4.935-2.362 3.086 0 4.994.768 4.994 2.782h-2.12c0-.896-.906-1.118-3.109-1.118-2.085 0-2.58.198-2.58.804 0 .605.495.744 2.898.884 3.25.175 5.264.35 5.264 2.41 0 2.176-2.084 2.618-5.135 2.618-3.38 0-5.394-.57-5.394-2.921h2.12zm-63.365 9.899c0 .861.707 1.257 3.392 1.257 2.226 0 2.897-.245 2.897-.885 0-.675-.47-.791-3.144-.92-3.593-.162-5.018-.72-5.018-2.548s1.85-2.363 4.935-2.363c3.086 0 4.994.768 4.994 2.782h-2.12c0-.897-.907-1.118-3.11-1.118-2.084 0-2.579.198-2.579.803 0 .606.495.745 2.898.885 3.25.175 5.264.35 5.264 2.41 0 2.175-2.084 2.618-5.135 2.618-3.38 0-5.394-.57-5.394-2.921h2.12zm18.81-2.351c0 1.816-1.284 2.98-3.156 2.98H55.21v2.176h-2.12v-8.147h6.478c1.873 0 3.156 1.175 3.156 2.991zm-2.12 0c0-1.234-.99-1.234-1.625-1.234h-3.77v2.456h3.77c.636 0 1.625 0 1.625-1.222zm9.116 3.422h-4.935l-.883 1.734h-2.333l4.252-8.147h2.862l4.263 8.147h-2.343l-.884-1.734zm-.79-1.56l-1.672-3.305-1.684 3.305h3.357zm8.645-4.97c3.286 0 4.935 1.234 5.147 3.585h-2.156c-.2-1.316-1.225-1.828-2.991-1.828-2.156 0-3.063.757-3.063 2.421 0 1.664.92 2.444 3.063 2.444 1.755 0 2.79-.523 2.991-1.85h2.156c-.212 2.363-1.861 3.608-5.147 3.608-3.627 0-5.182-1.49-5.182-4.202 0-2.711 1.554-4.178 5.182-4.178zm8.033 1.781v1.653h6.596v1.513h-6.596v1.653h6.596v1.664h-8.716v-8.147h8.716v1.664h-6.596z"/></g><defs><linearGradient id="paint0_linear_2365_25" x1="121.822" y1="28.782" x2="88.643" y2="-10.924" gradientUnits="userSpaceOnUse"><stop stop-color="#7527B2"/><stop offset="1" stop-color="#7527B2" stop-opacity=".04"/></linearGradient><linearGradient id="paint1_linear_2365_25" x1="17.848" y1=".907" x2="17.848" y2="28.782" gradientUnits="userSpaceOnUse"><stop stop-color="#B044DC"/><stop offset="1" stop-color="#6722CB"/></linearGradient><linearGradient id="paint2_linear_2365_25" x1="23.082" y1="17.53" x2="20.11" y2="24.466" gradientUnits="userSpaceOnUse"><stop stop-color="#BABABA"/><stop offset=".113" stop-color="#DBDBDB"/><stop offset="1" stop-color="#fff"/></linearGradient><linearGradient id="paint3_linear_2365_25" x1="11.221" y1="12.521" x2="12.428" y2="7.107" gradientUnits="userSpaceOnUse"><stop stop-color="#BABABA"/><stop offset=".135" stop-color="#D8D8D8"/><stop offset=".531" stop-color="#fff"/></linearGradient><clipPath id="clip0_2365_25"><path fill="#fff" transform="translate(.957 .907)" d="M0 0h33.781v27.874H0z"/></clipPath><clipPath id="clip1_2365_25"><path fill="#fff" transform="translate(7.738 7.46)" d="M0 0h18.46v14.952H0z"/></clipPath><clipPath id="clip2_2365_25"><path fill="#fff" transform="translate(41.794 5.797)" d="M0 0h73.895v18.279H0z"/></clipPath><filter id="filter0_ii_2365_25" x=".957" y="-.648" width="33.781" height="30.986" filterUnits="userSpaceOnUse" color-interpolation-filters="sRGB"><feFlood flood-opacity="0" result="BackgroundImageFix"/><feBlend in="SourceGraphic" in2="BackgroundImageFix" result="shape"/><feColorMatrix in="SourceAlpha" values="0 0 0 0 0 0 0 0 0 0 0 0 0 0 0 0 0 0 127 0" result="hardAlpha"/><feOffset dy="1.556"/><feGaussianBlur stdDeviation=".972"/><feComposite in2="hardAlpha" operator="arithmetic" k2="-1" k3="1"/><feColorMatrix values="0 0 0 0 1 0 0 0 0 1 0 0 0 0 1 0 0 0 0.4 0"/><feBlend in2="shape" result="effect1_innerShadow_2365_25"/><feColorMatrix in="SourceAlpha" values="0 0 0 0 0 0 0 0 0 0 0 0 0 0 0 0 0 0 127 0" result="hardAlpha"/><feOffset dy="-1.556"/><feGaussianBlur stdDeviation=".778"/><feComposite in2="hardAlpha" operator="arithmetic" k2="-1" k3="1"/><feColorMatrix values="0 0 0 0 0 0 0 0 0 0 0 0 0 0 0 0 0 0 0.25 0"/><feBlend in2="effect1_innerShadow_2365_25" result="effect2_innerShadow_2365_25"/></filter></defs></svg>