<svg width="92" height="92" fill="none" xmlns="http://www.w3.org/2000/svg"><path d="M89.779 31.962L49.057 72.688a5.98 5.98 0 01-8.437 0 5.954 5.954 0 01-1.741-4.219c0-1.528.58-3.052 1.741-4.216l43.684-43.679C76.066 8.175 61.982 0 45.983 0 20.588 0 .004 20.588.004 45.98c0 4.891.77 9.6 2.186 14.021l40.723-40.725a5.966 5.966 0 018.431 0 5.943 5.943 0 011.742 4.216c0 1.528-.58 3.056-1.742 4.218L7.666 71.391c8.235 12.397 22.32 20.574 38.317 20.574 25.394 0 45.978-20.589 45.978-45.982 0-4.89-.77-9.598-2.182-14.02zm-66.284 42.47a5.916 5.916 0 01-4.215-1.744 5.975 5.975 0 010-8.434l44.976-44.977a5.97 5.97 0 0110.184 4.218 5.93 5.93 0 01-1.75 4.216L27.713 72.688a5.935 5.935 0 01-4.218 1.744z" fill="#696969"/></svg>