<svg width="78" height="78" fill="none" xmlns="http://www.w3.org/2000/svg"><path d="M5.19 39.046c-3.107-2-5.17-5.486-5.17-9.448 0-6.193 5.038-11.23 11.23-11.23 2.492 0 4.796.816 6.661 2.194V11.46C17.91 5.141 23.05 0 29.369 0c4.006 0 7.536 2.068 9.585 5.19 2-3.107 5.486-5.17 9.448-5.17 6.193 0 11.231 5.037 11.231 11.23a11.17 11.17 0 01-2.195 6.66h9.103C72.86 17.91 78 23.05 78 29.37c0 4.005-2.068 7.535-5.19 9.584 3.107 2 5.171 5.487 5.171 9.449 0 6.192-5.038 11.23-11.23 11.23a11.17 11.17 0 01-6.661-2.195v9.103c0 6.318-5.14 11.46-11.46 11.46-4.005 0-7.535-2.069-9.584-5.191-2 3.107-5.487 5.171-9.448 5.171-6.193 0-11.231-5.038-11.231-11.23 0-2.492.817-4.796 2.195-6.66h-9.103c-6.318 0-11.46-5.141-11.46-11.46.001-4.006 2.069-7.536 5.191-9.585zM48.631 73.43a6.897 6.897 0 006.889-6.889v-17.91a6.897 6.897 0 00-6.889-6.889 6.897 6.897 0 00-6.889 6.89V66.54a6.897 6.897 0 006.889 6.889zM29.369 4.57a6.897 6.897 0 00-6.889 6.89v17.91a6.897 6.897 0 006.889 6.888 6.897 6.897 0 006.889-6.889V11.46a6.897 6.897 0 00-6.889-6.889zM35.566 39A11.546 11.546 0 0139 42.434 11.545 11.545 0 0142.434 39 11.544 11.544 0 0139 35.566 11.542 11.542 0 0135.566 39zm13.065-16.52a6.897 6.897 0 00-6.889 6.89 6.897 6.897 0 006.889 6.888h17.91a6.897 6.897 0 006.889-6.889 6.897 6.897 0 00-6.89-6.889H48.632zM29.369 55.52a6.897 6.897 0 006.889-6.889 6.897 6.897 0 00-6.889-6.889h-17.91a6.897 6.897 0 00-6.889 6.89 6.897 6.897 0 006.89 6.888h17.909zm-18.12-32.583a6.668 6.668 0 00-6.66 6.66 6.668 6.668 0 006.66 6.66h6.661v-6.66a6.668 6.668 0 00-6.66-6.66zM48.404 4.59a6.668 6.668 0 00-6.66 6.66v6.661h6.66a6.668 6.668 0 006.66-6.66 6.668 6.668 0 00-6.66-6.66zM66.75 55.063a6.668 6.668 0 006.66-6.66 6.668 6.668 0 00-6.66-6.66h-6.66v6.66a6.668 6.668 0 006.66 6.66zM29.597 73.41a6.668 6.668 0 006.66-6.66v-6.66h-6.66a6.668 6.668 0 00-6.66 6.66 6.668 6.668 0 006.66 6.66z" fill="#2EC6CF"/></svg>