<svg width="94" height="82" fill="none" xmlns="http://www.w3.org/2000/svg"><path d="M79.938 14.01c-18.213-18.317-47.83-18.4-66.146-.186-18.316 18.214-18.4 47.828-.184 66.146l8.672-8.625C15.756 64.977 11.702 56.09 11.7 46.253v-.008c-.002-19.372 15.703-35.08 35.076-35.082C66.149 11.16 81.858 26.865 81.86 46.24v.005c.002 9.914-4.116 18.862-10.727 25.242l8.619 8.67c18.316-18.214 18.4-47.827.186-66.146z" fill="#DB6A6A"/><path d="M28.852 81.326l15.19-28.733-28.834 28.631 13.644.102zm35.458 0l13.644-.102-28.836-28.63L64.31 81.325z" fill="#DB6A6A"/></svg>