<svg width="84" height="84" fill="none" xmlns="http://www.w3.org/2000/svg"><path d="M27.234 0h-14.93C5.52 0 0 5.52 0 12.305v14.93c0 6.784 5.52 12.304 12.305 12.304h14.93c6.784 0 12.304-5.52 12.304-12.305v-14.93C39.54 5.52 34.02 0 27.234 0zm7.383 27.234c0 4.071-3.312 7.383-7.383 7.383h-14.93c-4.07 0-7.382-3.312-7.382-7.383v-14.93c0-4.07 3.312-7.382 7.383-7.382h14.93c4.07 0 7.382 3.312 7.382 7.383v14.93z" fill="#4A33D5"/><path d="M71.695 44.46h-14.93c-6.784 0-12.304 5.52-12.304 12.306v14.93C44.46 78.48 49.98 84 56.766 84h14.93C78.48 84 84 78.48 84 71.695v-14.93c0-6.784-5.52-12.304-12.305-12.304zm7.383 27.235c0 4.071-3.312 7.383-7.383 7.383h-14.93c-4.07 0-7.382-3.312-7.382-7.383v-14.93c0-4.07 3.312-7.382 7.383-7.382h14.93c4.07 0 7.382 3.312 7.382 7.383v14.93z" fill="#314CD7"/><path d="M71.695 0h-14.93c-6.784 0-12.304 5.52-12.304 12.305v14.93c0 9.498-7.728 17.226-17.227 17.226h-14.93C5.52 44.46 0 49.98 0 56.766v14.93C0 78.48 5.52 84 12.305 84h14.93c6.784 0 12.304-5.52 12.304-12.305v-14.93c0-9.498 7.728-17.226 17.227-17.226h14.93C78.48 39.54 84 34.02 84 27.234v-14.93C84 5.52 78.48 0 71.695 0zM34.617 56.766v14.93c0 4.07-3.312 7.382-7.383 7.382h-14.93c-4.07 0-7.382-3.312-7.382-7.383v-14.93c0-4.07 3.312-7.382 7.383-7.382h14.93c3.416 0 6.655-.778 9.548-2.166a22.017 22.017 0 00-2.166 9.549zm44.461-29.532c0 4.071-3.312 7.383-7.383 7.383h-14.93c-3.416 0-6.655.778-9.548 2.166a22.017 22.017 0 002.166-9.549v-14.93c0-4.07 3.312-7.382 7.383-7.382h14.93c4.07 0 7.382 3.312 7.382 7.383v14.93z" fill="#C5539E"/></svg>