<svg width="86" height="72" fill="none" xmlns="http://www.w3.org/2000/svg"><path d="M37.32 33.051c-2.45-5.057-5.41-10.348-8.47-16.664 5.602 0 8.378.023 12.556-.006 11.13-.076 18.688 2.793 23.447 14.224.46 1.103.939 2.431.939 2.431l20.207-.016C82.267 15.342 68.103.61 52.622.475L0 .41l11.278 21.848c7.35 12.41 9.957 10.876 26.043 10.793z" fill="#5070C1"/><path d="M64.853 41.462c-4.76 11.43-12.319 14.3-23.447 14.223-4.178-.029-6.954-.005-12.556-.005 3.06-6.317 6.02-11.609 8.47-16.664-16.084-.084-18.69-1.62-26.04 10.792L0 71.585l52.622.006c15.48-.134 29.645-14.937 33.376-32.614l-20.206.054c0-.001-.48 1.327-.939 2.43z" fill="#498055"/></svg>