<svg width="118" height="32" fill="none" xmlns="http://www.w3.org/2000/svg"><path d="M31.238.221h-3.923c-.982.003-1.075.1-1.075 1.093V30.4c0 .812.14.947.94.951 1.282.008 2.567 0 3.855 0 1.209 0 1.32-.106 1.32-1.299V5.363c0-1.353.002-2.704 0-4.058-.002-.92-.173-1.081-1.117-1.084zM5.535.224C4.34.217 3.145.212 1.947.226.693.245 0 .96 0 2.218v28.08c0 .825.111.937.94.937 1.216.009 2.434.009 3.65 0 1.279-.01 1.92-.646 1.92-1.917V1.238C6.512.419 6.34.232 5.535.225zM23.01 30.527c-.348-3.464-1.609-6.538-4.034-9.077-2.613-2.731-5.826-4.234-9.33-4.582-1.132-.02-1.141-.02-1.11.833.011.315.073.625.12.938.627 4.152 2.657 7.46 6.037 9.933 2.214 1.628 4.72 2.473 7.449 2.729.811.078.949.021.868-.774zM22.16.3c-.31.049-.631.03-.939.077-3.554.566-6.571 2.14-8.97 4.835-2.199 2.466-3.42 5.374-3.709 8.658-.073.857-.026.86.876.975 1.238-.305 2.525-.492 3.708-.942 5.909-2.243 9.141-6.597 9.887-12.844.094-.793-.038-.883-.852-.76zm31.705 14.666c-.09-3.448-2.052-5.755-5.37-6.571-3.679-.914-7.325-.379-10.953.395-.43.09-.608.4-.599.852.02.807.005 1.62.005 2.432 0 1.157.151 1.214 1.297 1.146 2.335-.133 4.676-.232 7.014-.232 1.396 0 2.243.788 2.475 2.051.073.393.045.81.045 1.214.004 1.57.002 1.583-1.545 1.564-2.163-.02-4.319.05-6.413.684-2.163.649-3.718 1.929-4.186 4.234a10.26 10.26 0 00.092 4.486c.502 2.07 1.756 3.481 3.805 4.092 2.277.67 4.532.572 6.697-.476.62-.3 1.209-.67 1.902-1.055.029.215.05.324.055.435.052 1.018.18 1.145 1.211 1.145 1.217.003 2.433.005 3.652 0 .707-.004.958-.23.956-.918-.031-5.16-.005-10.324-.14-15.478zM47.18 26.589c-1.325.514-2.664.79-4.087.545-.885-.152-1.533-.677-1.609-1.576a9.002 9.002 0 01.142-2.47c.173-.857.803-1.485 1.662-1.593 1.4-.173 2.818-.211 4.228-.26.126-.005.365.3.376.475.045.696.02 1.396.02 2.094 0 .545-.043 1.089.011 1.626.071.625-.173.942-.743 1.16zm67.805-19.972v.178h.497v1.45h.213v-1.45h.497v-.178h-1.207zm2.913 0h-.281l-.291.788c-.069.206-.131.384-.171.55h-.002c-.05-.171-.1-.35-.166-.55l-.277-.788h-.267l-.111 1.628h.198l.048-.7c.014-.246.026-.518.031-.72h.004c.05.192.112.403.187.632l.265.779h.159l.286-.793c.083-.225.147-.428.204-.617h.004c0 .198.015.478.031.702l.038.717H118l-.102-1.628zM92.56 16.504a18.103 18.103 0 00-.427-3.684c-.532-2.497-1.963-4.255-4.593-4.714-2.87-.509-5.605-.102-8.069 1.569-.241.16-.483.307-.897.57-.019-.485-.047-.786-.052-1.09-.019-.796-.156-.945-.956-.95-1.27-.007-2.53-.01-3.79.003-.744.004-.966.236-.966.977-.002 7.035-.002 14.068 0 21.103 0 .826.222 1.053 1.032 1.058 1.398.005 2.797-.014 4.195.012.625.007.906-.24.895-.88-.024-1.397-.007-2.793-.007-4.194 0-3.72-.007-7.44.014-11.16 0-.307.08-.769.286-.896 1.552-.956 3.218-1.543 5.071-1.236 1.02.168 1.735.767 1.926 1.82.135.729.237 1.47.237 2.208.028 4.423.014 8.84.014 13.26 0 .964.112 1.07 1.098 1.07 1.264.008 2.53.008 3.791 0 1.091 0 1.216-.12 1.216-1.187 0-4.549.031-9.101-.019-13.659zm21.535-.263a14.161 14.161 0 00-.141-2.091c-.422-2.698-1.868-4.624-4.487-5.498a13.669 13.669 0 00-3.422-.693c-2.754-.173-5.476.156-8.17.764-.592.138-.84.46-.838 1.037.002.743 0 1.488 0 2.231 0 1.198.165 1.29 1.33 1.229 2.318-.13 4.635-.235 6.952-.249 1.495-.005 2.333.764 2.586 2.243.114.663.052 1.351.088 2.021.023.445-.187.592-.613.578-.97-.015-1.952-.097-2.908.018-1.645.195-3.313.384-4.903.829-2.109.594-3.477 2.068-3.822 4.288-.14.92-.116 1.876-.071 2.813.18 3.805 3.083 6.304 6.881 5.996 1.919-.149 3.727-.605 5.298-1.777.107-.075.242-.118.389-.184.068.104.111.13.115.172.024.114.036.225.041.341.052.982.116 1.041 1.124 1.041 1.173.008 2.342.008 3.516 0 .944 0 1.06-.106 1.06-1.036.003-4.69.007-9.383-.005-14.073zm-5.96 9.404c.016.43-.168.658-.545.826-1.384.613-2.806.928-4.328.68-1.095-.188-1.737-.93-1.718-2.308.036-2.34.552-3.398 3.398-3.613.85-.067 1.714.002 2.568-.017.48-.021.634.203.625.648-.022.654-.01 1.311-.01 1.96.005.605-.019 1.211.01 1.824zM70.261 8.768c.003-.603-.267-.86-.866-.837-1.76.076-3.35.63-4.775 1.659-.194.142-.388.272-.68.48-.023-.324-.049-.516-.049-.71-.019-.97-.19-1.15-1.138-1.15-1.223-.005-2.435-.002-3.654-.002C57.985 8.21 57.8 8.39 57.8 9.5v9.332c0 3.773-.002 7.537 0 11.297 0 .999.22 1.221 1.17 1.221 1.282.008 2.571.008 3.856 0 1.037 0 1.202-.156 1.202-1.225.003-5 .008-10.008-.009-15.02 0-.494.144-.776.599-.99 1.505-.709 3.047-1.239 4.74-1.17.62.026.92-.208.906-.864a81.31 81.31 0 01-.003-3.313z" fill="#37A3AA"/></svg>