<svg width="78" height="32" fill="none" xmlns="http://www.w3.org/2000/svg"><path d="M16.81 25.136c.121-.018.172.065.237.113 2.088 1.536 4.38 2.62 6.933 3.123a17.06 17.06 0 004.261.269c2.158-.122 4.241-.594 6.299-1.244 2.794-.883 5.46-2.077 8.118-3.304 2.207-1.013 4.4-2.06 6.656-2.964 2.074-.83 4.224-1.227 6.463-1.091 2.513.158 4.806.971 6.943 2.287a17.289 17.289 0 013.778 3.128c.041.047.082.096.121.145.008.01 0 .028.006.057-.392-.087-.778-.182-1.168-.26-1.45-.293-2.914-.314-4.382-.189-2.997.247-5.905.95-8.804 1.712-3.11.817-6.203 1.724-9.324 2.512-2.514.636-5.04 1.22-7.602 1.64a23.646 23.646 0 01-4.59.319c-2.993-.095-5.85-.755-8.533-2.11-1.985-.999-3.77-2.28-5.266-3.936a2.194 2.194 0 01-.12-.145.269.269 0 01-.025-.062z" fill="#000"/><path d="M37.116 9.508c1.686-1.133 2.038-4.5.436-5.86a7.536 7.536 0 012.241.736 7.43 7.43 0 012.054 1.48c.556.588 1.072 1.204 1.458 1.936.426.793.729 1.647.897 2.532.086.417.125.841.117 1.266-.036.907-.062 1.818-.377 2.685-.498 1.367-1.197 2.605-2.291 3.588-.91.819-1.76 1.7-2.608 2.582-.925.962-1.88 1.895-2.81 2.854-.13.134-.2.124-.328 0-1.904-1.915-3.833-3.806-5.716-5.743-1.853-1.906-2.617-4.212-2.292-6.856a8.203 8.203 0 012.035-4.478 8.18 8.18 0 014.228-2.504 7.979 7.979 0 012.684-.18c.07.009.142.001.189.068.34.447.639.916.724 1.485.094.62-.172 1.119-.566 1.56-.522.583-1.18 1.007-1.806 1.465-.733.536-1.495 1.039-2.114 1.714a5.259 5.259 0 00-1.32 2.644c-.134.719-.079 1.439-.056 2.154.042 1.377.545 2.563 1.642 3.446.602.486.61.484 1.177-.024.497-.445.99-.895 1.477-1.35.138-.13.198-.179.297.048a3.383 3.383 0 001.546 1.67.24.24 0 00.312-.031 464.18 464.18 0 012.516-2.132c.11-.094.103-.16.033-.274-.259-.414-.254-.417-.63-.126-.205.159-.41.316-.617.472-.348.266-.724.21-.984-.154-.243-.343-.328-.742-.389-1.147-.1-.671-.094-1.348-.094-2.024 0-1.094-.005-2.187.005-3.28 0-.189-.052-.24-.235-.23-.275.02-.556.008-.835.008zm-19.044 9.368c-.811-.602-1.578-1.174-2.347-1.74-.111-.083-.088-.19-.088-.3V8.08c0-.387-.034-.768-.207-1.125-.275-.567-.754-.795-1.35-.827-.209-.012-.36.18-.36.424v12.296c0 .217-.015.386-.224.526-.689.46-1.36.944-2.09 1.454V9.155c0-.959-.158-1.895-.56-2.774-.625-1.367-1.7-2.086-3.192-2.21-2.396-.199-3.936 1.487-4.518 3.245-.453 1.377-.426 2.728.282 4.019.68 1.243 1.705 1.946 3.167 1.888a3.73 3.73 0 00.97-.181c.156-.05.2-.013.265.14.108.262.009.37-.213.478-1.593.782-3.161.673-4.696-.142-1.75-.925-2.558-2.442-2.67-4.379C.043 5.796 2.576 3.253 5.51 2.704c1.292-.242 2.56-.197 3.8.249a6.195 6.195 0 013.3 2.703c.116.189.178.22.366.062.647-.547 1.32-1.068 1.973-1.605a.394.394 0 01.302-.089 2.756 2.756 0 011.85.876c.116.121.176.121.3.022.616-.5 1.244-.984 1.858-1.485a.439.439 0 01.451-.086c1.017.31 1.736.974 2.217 1.91.387.754.499 1.562.498 2.397 0 2.91-.009 5.82 0 8.731 0 .923.087 1.84.45 2.703.242.577.6 1.055 1.241 1.228.422.108.866.088 1.276-.057.177-.058.26-.039.32.158.117.384.132.384-.24.508-.897.303-1.805.42-2.724.117-1.139-.378-1.837-1.202-2.279-2.277a6.543 6.543 0 01-.464-2.488c-.007-2.84-.007-5.68 0-8.519 0-.688-.144-1.322-.608-1.858a1.79 1.79 0 00-.834-.55.314.314 0 00-.344.067c-.148.137-.377.226-.46.391-.082.166.095.378.141.567.106.42.164.85.173 1.282v11.215zM45.81 11.54c0-1.077-.005-2.155 0-3.232 0-.178-.045-.227-.221-.222-.224.007-.525.105-.653-.04-.11-.125-.031-.42-.033-.64 0-.204.01-.41 0-.613-.01-.152.049-.199.188-.178a.295.295 0 00.07 0c.21-.016.483.094.61-.046.129-.14.036-.405.037-.616 0-1.164.007-2.328 0-3.493a.396.396 0 01.207-.378c.565-.377 1.115-.76 1.673-1.14.068-.047.141-.146.216-.113.076.032.037.154.037.235 0 1.769.006 3.54 0 5.308 0 .194.046.252.245.249.77-.013 1.54 0 2.308-.008.18 0 .23.023.115.197-.247.378-.48.756-.709 1.14a.263.263 0 01-.263.145c-.51-.007-1.021 0-1.532-.005-.117 0-.163.024-.162.155.007 2.02 0 4.042.018 6.064.006.588.086 1.177.393 1.705.085.16.214.293.371.384a.59.59 0 00.674-.036c.362-.239.57-.487.4-.944-.057-.155-.03-.343-.03-.516 0-1.423 0-2.847-.005-4.27a.5.5 0 01.188-.42c1.016-.902 2.027-1.81 3.031-2.722a.35.35 0 01.432-.075c1.63.677 2.421 1.947 2.359 3.792-.032.975-.293 1.866-.921 2.627-.238.272-.523.5-.84.674a.574.574 0 01-.34.06c-.503-.025-1.005-.043-1.509-.078-.162-.011-.213.024-.215.196-.01 1.103.535 1.816 1.687 2.172.3.094.61.15.91.236.113.032.18-.024.255-.079.39-.283.78-.555 1.163-.842.124-.094.189-.078.283.038.29.346.297.34-.036.645-.691.63-1.38 1.259-2.067 1.888-.072.066-.136.126-.245.101-.942-.21-1.87-.45-2.684-1.007a3.105 3.105 0 01-.92-.959c-.094-.158-.15-.183-.302-.052-.617.536-1.249 1.052-1.87 1.582a.25.25 0 01-.33.04c-1.002-.534-1.53-1.407-1.791-2.475a7.497 7.497 0 01-.196-1.775c0-.88.003-1.77.003-2.659zm6.147.044v1.836c0 .152.04.194.197.2a1.035 1.035 0 00.911-.437c.29-.377.399-.813.438-1.271.087-.998-.22-1.825-1.08-2.394-.083-.055-.173-.157-.297-.08a.346.346 0 00-.17.332c.006.604 0 1.21 0 1.815v-.001zm22.03-2.092c.272 0 .546.01.819 0 .168-.008.21.05.209.212a402.786 402.786 0 000 4.128c0 .653.031 1.306.253 1.931.094.284.234.537.518.67.203.094.394.108.588-.056.283-.243.598-.459.892-.694.112-.094.176-.108.27.035.288.442.293.434-.107.773-.726.613-1.457 1.22-2.168 1.849-.2.177-.347.189-.566.048-.647-.406-1.153-.928-1.446-1.643-.02-.05-.046-.094-.077-.163-.654.6-1.308 1.182-1.939 1.786-.166.159-.283.156-.462.049-1.122-.685-1.782-1.686-2.004-2.973a10.067 10.067 0 01-.042-2.89c.12-1.006.59-1.874 1.269-2.628.7-.776 1.55-1.369 2.393-1.972.599-.43 1.209-.85 1.688-1.416a1.95 1.95 0 00.47-1.01c.017-.125.085-.15.182-.174.117-.03.171.027.217.123.243.498.259 1.029.222 1.566-.063.926-.387 1.726-1.126 2.322a.404.404 0 00-.062.071s0 .007.009.056zm-1.253.856a5.361 5.361 0 00-.754.598c-.57.523-.99 1.14-1.066 1.93a7.714 7.714 0 00.048 2.135c.073.405.164.804.475 1.115.254.252.534.294.805.082.173-.135.343-.274.52-.403a.233.233 0 00.104-.294 2.9 2.9 0 01-.064-.581c-.076-1.436-.019-2.874-.038-4.31a.486.486 0 00-.03-.272zm-7.286 3.692v4.222c0 .206-.037.284-.266.284a34.975 34.975 0 00-1.72 0c-.152 0-.22-.025-.22-.202.005-2.596.005-5.191 0-7.787a.342.342 0 01.132-.283 845.342 845.342 0 003.044-2.714c.076-.068.135-.138.263-.094 1.169.418 2.016 1.156 2.39 2.376.035.114.036.178-.085.244-.607.33-1.209.668-1.809 1.01-.13.073-.182.072-.199-.095-.075-.76-.547-1.227-1.19-1.55-.162-.082-.33.043-.34.247-.008.205 0 .394 0 .59v3.751zm-6.278 0v4.27c0 .189-.051.238-.236.234a45.811 45.811 0 00-1.766 0c-.157 0-.189-.044-.189-.196.004-2.603.004-5.206 0-7.809a.311.311 0 01.113-.262 956.457 956.457 0 003.06-2.726c.075-.067.138-.123.264-.078 1.144.411 1.972 1.137 2.366 2.318.055.164.033.246-.127.332-.595.318-1.18.653-1.767.983-.095.054-.165.118-.183-.077-.071-.779-.55-1.258-1.213-1.585-.145-.071-.314.066-.319.256-.006.252 0 .503 0 .755v3.588l-.003-.003z" fill="#000"/><path d="M25.918 7.708v6.615c0 .605.035 1.21.251 1.787.125.331.29.628.677.72a.378.378 0 00.349-.075c.306-.245.624-.473.929-.723.125-.102.196-.13.304.034.283.434.296.428-.104.766-.762.643-1.526 1.283-2.282 1.933a.23.23 0 01-.308.029c-.863-.452-1.388-1.172-1.686-2.084a6.55 6.55 0 01-.297-2.035c-.007-1.776 0-3.553 0-5.329 0-.122 0-.222.126-.302.643-.42 1.28-.85 1.92-1.277a1.21 1.21 0 01.12-.059zM13.633 21.072c.512.195 1.003.438 1.524.612a7.37 7.37 0 002.797.41.218.218 0 01.217.095c1.302 1.759 3.021 2.967 5.024 3.797a18.18 18.18 0 004.667 1.206c1.573.207 3.162.255 4.744.142l.084-.01c-.318.15-.675.195-1.02.273a17.55 17.55 0 01-10.84-1.127c-2.727-1.21-5.158-3-7.124-5.246-.036-.043-.107-.077-.07-.157l-.004.005zM35.981 10.29v2.257c.006.909-.063 1.824.094 2.725.06.35-.014.567-.317.723a2.219 2.219 0 00-.28.216c-.249.188-.43.198-.702.024-.326-.21-.48-.537-.566-.894a7.256 7.256 0 01-.062-2.76c.103-.67.514-1.186 1-1.64a5.86 5.86 0 01.833-.651zm35.655 15.824a2.89 2.89 0 00-1.037-.012c.96.128 1.767.498 2.299 1.425-.831-.56-1.712-.562-2.599-.488-.718.06-1.425.084-2.108-.203a2.653 2.653 0 01-1.189-.912c1.32-.378 2.628-.638 3.963-.138.238.077.464.188.67.328zM54.658 6.436c-.031-.03-.06-.055-.086-.081-.4-.4-.796-.802-1.2-1.197-.085-.083-.07-.122.006-.199.395-.393.786-.79 1.172-1.191.083-.088.138-.09.226 0 .397.4.8.797 1.205 1.19.076.074.094.124.008.207-.42.4-.836.803-1.254 1.206-.023.021-.046.038-.077.065zm-2.782-2.745c.04.03.08.061.117.095.335.33.675.66 1.002.993.267.274.258.322-.017.586-.334.321-.67.64-.998.965-.095.095-.15.095-.244 0-.377-.388-.763-.767-1.147-1.15-.066-.063-.127-.11-.033-.204.401-.398.792-.805 1.188-1.207.031-.035.06-.079.132-.078zM24.922 6.763c-.04-.034-.077-.06-.11-.094-.382-.378-.763-.768-1.148-1.148-.087-.086-.111-.142-.01-.243.39-.386.772-.781 1.153-1.176.08-.083.137-.094.228-.008.4.4.801.796 1.206 1.191.095.087.086.143 0 .227-.404.383-.804.77-1.206 1.156-.034.032-.07.06-.113.095zM16.7 24.98c.032.045.108.056.102.148a.115.115 0 01-.099-.145l-.004-.003z" fill="#000"/><path d="M13.637 21.067l-.028-.012h.013c.005.005.01.011.011.018l.004-.006zm3.067 3.916l-.01-.002h.006l.004.002z" fill="#000"/></svg>