<svg width="104" height="43" fill="none" xmlns="http://www.w3.org/2000/svg"><g clip-path="url(#clip0)"><path d="M89.113 34.306c-.66-.117-1.29-.27-1.93-.383a21.184 21.184 0 00-5.385-.206c-4.412.341-8.685 1.45-12.936 2.616-3.508.961-7.006 1.959-10.516 2.91-3.308.898-6.65 1.68-10.02 2.316-2.442.46-4.903.735-7.392.646a27.705 27.705 0 01-7.505-1.27 25.85 25.85 0 01-7.72-4.002 23.33 23.33 0 01-2.366-2.044c-.413-.423-.809-.862-1.234-1.316.186-.065.257.066.344.132a24.102 24.102 0 005.81 3.305c3.09 1.2 6.4 1.682 9.694 1.412 2.98-.222 5.859-.926 8.685-1.88 3.783-1.27 7.396-2.974 11.012-4.657 1.165-.546 2.344-1.069 3.503-1.622 1.735-.827 3.478-1.623 5.263-2.32a18.749 18.749 0 0115.796.919 24.116 24.116 0 016.144 4.593c.26.273.502.568.753.851z" fill="#FE9400"/><path d="M48.492 21.855c.122.247.22.471.338.683a4.792 4.792 0 001.842 1.876c.208.118.335.087.51-.067a308.83 308.83 0 013.266-2.822c.186-.158.243-.292.073-.487a.549.549 0 01-.091-.15c-.15-.327-.317-.34-.58-.091-.313.276-.64.536-.98.779-.475.36-.972.268-1.316-.239-.402-.591-.51-1.27-.551-1.967-.152-2.258-.039-4.516-.06-6.774 0-.312-.064-.436-.39-.406-.348.03-.701 0-1.158 0 1.343-1.014 1.888-2.349 2.03-3.887.142-1.538-.138-2.964-1.33-4.14a6.594 6.594 0 011.727.441c1.815.67 3.391 1.729 4.625 3.246.827 1.023 1.576 2.117 2.005 3.398.438 1.313.782 2.65.689 4.043-.079 1.254-.138 2.518-.583 3.72-.606 1.615-1.448 3.064-2.649 4.292-2.524 2.577-5.044 5.16-7.557 7.75-.192.197-.295.238-.51.016-2.206-2.268-4.412-4.516-6.618-6.784-.755-.779-1.545-1.525-2.164-2.437-1.762-2.6-2.424-5.463-1.856-8.563.774-4.234 3.211-7.1 7.104-8.668 1.438-.579 2.957-.734 4.497-.662.326.015.589.077.77.444.183.367.44.674.592 1.049.414 1.037.175 1.952-.53 2.769-.786.907-1.777 1.552-2.733 2.242-1.043.754-2.053 1.553-2.887 2.54a6.017 6.017 0 00-1.378 2.902c-.322 1.949-.357 3.9.372 5.776a5.371 5.371 0 002.284 2.692c.22.14.364.12.561-.071.86-.802 1.74-1.607 2.636-2.443z" fill="#FE9400"/><path d="M23.884 25.01l-1.828-1.38c-.369-.282-.724-.581-1.103-.836-.236-.159-.288-.348-.288-.616.005-4.01.005-8.019 0-12.028a3.439 3.439 0 00-.248-1.373c-.318-.742-.905-1.087-1.655-1.204-.389-.06-.69.225-.682.647.018 5.645.01 11.29.016 16.935a.643.643 0 01-.303.6c-.915.623-1.816 1.27-2.812 1.968V11.656a9.299 9.299 0 00-.69-3.606c-.965-2.318-2.873-3.295-5.176-3.162C6.898 5.016 5.36 6.25 4.38 8.203c-1.192 2.375-1.287 4.777.16 7.101 1.074 1.726 2.798 2.437 4.757 2.018a7.83 7.83 0 00.368-.089c.393-.1.609.08.592.491 0 .158-.137.174-.231.225-2.014 1.113-4.056 1.055-6.084.082-2.963-1.424-4.1-4.107-3.922-7.295.229-4.1 3.453-7.268 7.282-7.903 2.172-.36 4.251-.109 6.204 1a8.52 8.52 0 013.14 3.138c.121.207.187.25.394.076.894-.756 1.808-1.486 2.708-2.234a.513.513 0 01.405-.128c.939.062 1.82.485 2.465 1.185.168.182.262.174.44.025.819-.68 1.654-1.34 2.481-2.02a.534.534 0 01.534-.123c1.498.423 2.497 1.435 3.145 2.84.445.964.567 2 .569 3.054 0 4.127 0 8.253.007 12.381a8.8 8.8 0 00.631 3.387c.597 1.434 1.737 1.993 3.208 1.593.146-.039.334-.21.443-.069.122.198.21.415.259.643.037.124-.091.14-.171.179-2.239.901-4.658.705-6.236-1.448-.79-1.081-1.141-2.334-1.316-3.651-.057-.479-.083-.96-.077-1.442V9.826c0-.968-.195-1.866-.856-2.605a2.266 2.266 0 00-.47-.41c-.74-.477-1.127-.408-1.684.282-.078.1-.044.168-.01.255.359.897.438 1.834.436 2.797-.007 4.81-.007 9.618 0 14.427.018.15-.006.3-.067.437zM64.002.222V2.49c0 1.787.008 3.573-.008 5.363 0 .319.088.39.386.385.998-.02 1.997-.009 2.997 0 .353 0 .357 0 .167.324-.293.492-.6.974-.883 1.471a.411.411 0 01-.17.186.397.397 0 01-.243.05c-.666-.013-1.333 0-2-.009-.192 0-.256.055-.253.257.025 2.844-.05 5.689.043 8.532a4.4 4.4 0 00.562 2.154 1.2 1.2 0 00.56.504.724.724 0 00.765-.085c.517-.337.652-.706.597-1.36-.174-2.073-.033-4.158-.084-6.238a1.23 1.23 0 01.465-1.047 234.39 234.39 0 003.85-3.528.505.505 0 01.637-.11c1.984.863 3.033 2.382 3.121 4.592.062 1.49-.229 2.876-1.13 4.084-.305.384-.674.71-1.09.96a1.021 1.021 0 01-.65.166c-.665-.046-1.33-.063-1.995-.111-.203-.016-.243.042-.25.24-.033.742.125 1.435.593 2 .356.423.854.705 1.37.904.485.177.983.318 1.488.423a.376.376 0 00.346-.083c.512-.38 1.034-.742 1.533-1.139.204-.162.31-.141.469.054.356.453.363.442-.044.82-.917.847-1.837 1.703-2.744 2.568a.56.56 0 01-.583.155c-.882-.216-1.757-.444-2.58-.846a5.134 5.134 0 01-2.099-1.82c-.138-.207-.186-.24-.398-.047-.81.736-1.655 1.43-2.482 2.155a.353.353 0 01-.481.047c-1.249-.698-1.955-1.802-2.324-3.175a10.48 10.48 0 01-.316-2.681 767.031 767.031 0 010-7.97c0-.323-.09-.397-.385-.38-.267.014-.628.132-.785-.056-.138-.159-.042-.515-.049-.784v-.141c0-.328-.102-.745.054-.958.156-.214.6-.074.914-.072.276 0 .243-.171.243-.345V2.536c0-.134-.051-.282.095-.386.911-.625 1.807-1.255 2.771-1.928zm5.403 14.818c0 .822.013 1.643-.008 2.463-.007.293.09.347.348.343a1.29 1.29 0 00.615-.145 1.33 1.33 0 00.48-.42c.655-.906.758-1.936.565-3.006a3.003 3.003 0 00-.47-1.18 2.923 2.923 0 00-.91-.868c-.124-.079-.245-.23-.43-.103a.477.477 0 00-.197.452c.012.823.007 1.644.007 2.464zm29.49-2.866c.401 0 .764.018 1.125 0 .276-.018.321.083.32.34a552.94 552.94 0 000 5.464c-.018.811.059 1.621.229 2.414.072.357.218.694.428.987.351.458.801.52 1.241.175.385-.297.772-.59 1.144-.903.163-.14.238-.094.342.067.388.592.393.59-.138 1.047-1.014.88-2.034 1.757-3.044 2.646a.346.346 0 01-.478.05 4.782 4.782 0 01-2.068-2.269c-.1-.224-.154-.282-.368-.077-.794.772-1.618 1.511-2.417 2.28a.353.353 0 01-.503.055c-1.434-.846-2.352-2.117-2.677-3.737-.35-1.741-.382-3.528.076-5.265.377-1.434 1.26-2.54 2.317-3.51 1.027-.945 2.206-1.693 3.295-2.54.622-.484 1.227-.988 1.645-1.685a2.36 2.36 0 00.342-.951c.019-.18.11-.229.257-.267.174-.042.221.075.276.19.276.548.332 1.145.32 1.746-.029 1.437-.445 2.701-1.59 3.63a.74.74 0 00-.074.113zm-1.573 1.129c-.276.217-.49.375-.69.545-.879.742-1.61 1.601-1.764 2.802-.13 1.004-.12 2.021.029 3.022.075.497.138.988.487 1.411.44.52.87.604 1.378.188.199-.161.396-.322.599-.474a.26.26 0 00.108-.128.268.268 0 00.01-.169c-.186-1.08-.161-2.174-.16-3.268.002-1.276.002-2.554.002-3.925l.001-.004zM89.611 14.5c-.077-.342-.09-.66-.22-.954a2.879 2.879 0 00-1.364-1.386c-.276-.141-.493-.02-.52.3-.008.093 0 .188 0 .283V24.16c0 .329-.062.446-.413.432a30.352 30.352 0 00-2.238 0c-.275.007-.314-.085-.314-.336.008-3.525.008-7.05 0-10.575a.549.549 0 01.196-.453 754.816 754.816 0 004.03-3.683.427.427 0 01.516-.092c1.46.573 2.523 1.541 3.033 3.088.082.244.075.384-.179.521-.834.457-1.666.947-2.527 1.437zm-8.433.007c-.05-.384-.088-.73-.25-1.047a2.951 2.951 0 00-1.345-1.313.316.316 0 00-.447.102.336.336 0 00-.05.163 1.926 1.926 0 000 .283v11.488c0 .314-.064.424-.388.408a38.12 38.12 0 00-2.273 0c-.233 0-.276-.073-.276-.295.005-3.547.005-7.095 0-10.643a.556.556 0 01.203-.45c1.339-1.215 2.676-2.434 4.013-3.657a.426.426 0 01.514-.092c1.472.578 2.538 1.563 3.05 3.123.071.22.063.342-.166.468-.864.464-1.705.96-2.585 1.462z" fill="#FC0303"/><path d="M34.472 14.768c0 1.527-.01 3.055 0 4.582a5.6 5.6 0 00.346 1.965c.095.291.27.549.504.742.325.248.612.248.929 0 .413-.32.827-.637 1.227-.967.137-.117.213-.091.318.054.447.62.45.612-.114 1.098-1.003.86-2.006 1.72-2.996 2.595a.4.4 0 01-.54.055c-1.38-.768-2.06-2.024-2.383-3.528a10.002 10.002 0 01-.218-2.097v-7.261a.536.536 0 01.262-.51c.79-.522 1.567-1.065 2.352-1.594.079-.054.153-.19.26-.117.108.073.038.194.038.296v4.687h.015z" fill="#FC0303"/><path d="M18.006 28.081c.349.142.703.283 1.045.442a11.48 11.48 0 002.513.809 6 6 0 002.12.12.395.395 0 01.426.201c1.83 2.498 4.25 4.168 7.064 5.297 1.798.71 3.67 1.203 5.58 1.466 2.149.31 4.323.39 6.489.242h.298c-.763.236-1.54.417-2.327.541a22.77 22.77 0 01-5.929.283 23.394 23.394 0 01-6.795-1.65c-3.787-1.552-7.046-3.898-9.853-6.915a4.529 4.529 0 01-.655-.807.228.228 0 00.024-.029zm29.969-14.823v4.736c-.013.823.037 1.645.151 2.46a.363.363 0 01-.162.412c-.211.14-.401.314-.599.475-.427.349-.769.336-1.184-.035a1.898 1.898 0 01-.544-.962 9.056 9.056 0 01-.105-3.983c.263-1.408 1.296-2.266 2.443-3.103z" fill="#FE9400"/><path d="M74.9 6.077c0 .109-.079.154-.138.208-.525.525-1.059 1.04-1.58 1.569-.138.141-.212.1-.327-.018-.49-.511-.995-1.008-1.478-1.526-.17-.182-.262-.162-.426.009-.48.503-.99.979-1.473 1.479-.169.172-.276.175-.437 0-.46-.494-.932-.973-1.412-1.446-.172-.169-.212-.282-.013-.472a36.2 36.2 0 001.448-1.506c.146-.158.239-.164.386-.01.507.528 1.033 1.036 1.534 1.568.152.16.239.128.367-.009.488-.513.986-1.016 1.47-1.532.138-.155.233-.195.4-.017.486.515.995 1.008 1.494 1.51.07.06.135.134.185.193zm20.777 28.832c-.388-.011-.77-.056-1.163.042 1.157.206 2.17.642 2.842 1.716-.07.023-.112.051-.138.04-1.088-.586-2.256-.565-3.429-.449-1.147.114-2.244 0-3.248-.634a3.117 3.117 0 01-.965-.934c1.262-.264 2.482-.687 3.776-.525.817.08 1.609.333 2.325.744zM33.163 4.68c.039.035.091.08.138.127.523.525 1.044 1.052 1.567 1.574.108.107.19.187.035.336a89.265 89.265 0 00-1.583 1.552c-.138.141-.234.162-.386 0a52.917 52.917 0 00-1.477-1.517c-.158-.155-.138-.251 0-.397.51-.519 1.011-1.05 1.516-1.575.05-.032.087-.11.19-.1z" fill="#FC0303"/><path d="M17.98 28.105l-.048-.04c.034-.04.056-.019.074.016a.22.22 0 01-.026.024z" fill="#FE9400"/></g><defs><clipPath id="clip0"><path fill="#fff" transform="translate(0 .222)" d="M0 0h104v42H0z"/></clipPath></defs></svg>