<svg width="76" height="46" fill="none" xmlns="http://www.w3.org/2000/svg"><path d="M72.746 38.753a1.074 1.074 0 00-.157-.322L62.724 24.69a16.864 16.864 0 001.77-7.512c0-3.262-.94-6.43-2.715-9.165a17.2 17.2 0 00-7.045-6.16 1.105 1.105 0 00-1.467.506 1.077 1.077 0 00.513 1.447 15.014 15.014 0 016.149 5.377 14.64 14.64 0 012.367 7.995c0 1.87-.36 3.726-1.05 5.453l-5.252-7.314a1.108 1.108 0 00-1.81.026h-.002L46.46 26.797 34.233 9.77c2.686-4.598 7.614-7.427 13.028-7.427.657 0 1.318.042 1.965.125a1.096 1.096 0 001.232-.934A1.087 1.087 0 0049.51.318a17.702 17.702 0 00-2.25-.143c-5.868 0-11.238 2.9-14.407 7.673l-2.572-3.582a1.097 1.097 0 00-.91-.458 1.102 1.102 0 00-.9.481L5.142 38.696h-1.25c-1.866 0-3.383 1.497-3.383 3.338v2.707c0 .599.492 1.084 1.098 1.084h9.82a1.09 1.09 0 001.098-1.084 1.09 1.09 0 00-1.098-1.084h-8.72v-1.623c0-.645.532-1.17 1.186-1.17h68.234a1.18 1.18 0 011.186 1.17v1.623h-57.49c-.607 0-1.1.485-1.1 1.084 0 .599.492 1.084 1.1 1.084H74.41c.607 0 1.099-.485 1.099-1.084v-2.707c0-1.632-1.193-2.993-2.764-3.281zm-11.683-.057L57.26 20.832l12.827 17.864h-9.024zm-11.27-12.928l.052.002h2.839c.607 0 1.099-.485 1.099-1.084 0-.598-.492-1.084-1.1-1.084h-1.43l3.308-4.906 2.069 9.72h-1.86c-.607 0-1.099.485-1.099 1.084 0 .598.492 1.084 1.099 1.084h2.321l1.727 8.112h-3.816l-2.218-3.09h1.32c.606 0 1.098-.485 1.098-1.084 0-.599-.492-1.084-1.099-1.084h-2.839l-.036.002-3.408-4.747 1.972-2.925zm-19.265-.587h2.053l1.965 9.229h-1.627a1.09 1.09 0 00-1.098 1.084c0 .598.491 1.084 1.098 1.084h2.088l.451 2.118H7.784l6.834-10.078h2.624a1.09 1.09 0 001.098-1.084c0-.598-.491-1.084-1.098-1.084h-1.154l1.464-2.159 3.95-5.825h2.8c.607 0 1.099-.485 1.099-1.084 0-.599-.492-1.084-1.099-1.084h-1.33l5.875-8.662 3.273 15.377h-1.592c-.606 0-1.098.485-1.098 1.084a1.09 1.09 0 001.098 1.084zm7.175 13.515L31.548 9.78l20.761 28.916H37.703z" fill="#000"/><path d="M25.72 30.61h-2.838c-.607 0-1.099.486-1.099 1.085s.492 1.084 1.099 1.084h2.839c.606 0 1.098-.486 1.098-1.084 0-.599-.492-1.084-1.098-1.084zm-9.898 4.33h-2.839a1.09 1.09 0 00-1.098 1.084c0 .598.492 1.084 1.098 1.084h2.84c.606 0 1.098-.486 1.098-1.084 0-.599-.492-1.084-1.099-1.084z" fill="#000"/></svg>