<svg width="33" height="32" viewBox="0 0 33 32" fill="none" xmlns="http://www.w3.org/2000/svg">
<g clip-path="url(#clip0_303_2078)">
<path d="M22.3527 23.2421C22.4439 23.362 22.5102 23.472 22.5977 23.5595C25.2567 26.2026 27.9146 28.847 30.5824 31.4814C30.7761 31.6726 31.0212 31.8425 31.2737 31.935C31.785 32.12 32.3351 31.9013 32.6426 31.4539C32.9426 31.0165 32.9376 30.4541 32.6189 30.023C32.5201 29.8905 32.4013 29.7705 32.2826 29.6543C29.6523 27.0412 27.0207 24.4293 24.3879 21.8186C24.2929 21.7237 24.1791 21.6462 24.0704 21.5574C24.3966 21.0976 24.7029 20.6926 24.9805 20.269C26.4706 17.9883 27.1682 15.4751 27.102 12.7608C27.0357 10.0639 26.1931 7.61322 24.5954 5.43873C22.6189 2.74561 19.9961 1.01226 16.7257 0.306178C13.8904 -0.306178 11.1401 0 8.50103 1.22471C5.88447 2.43943 3.87673 4.31774 2.48282 6.83215C1.22017 9.11036 0.698864 11.5635 0.907637 14.1679C1.0589 16.0625 1.59772 17.8383 2.51158 19.5042C2.82036 20.0665 3.35292 20.3465 3.89799 20.2303C4.73433 20.0516 5.12063 19.208 4.76434 18.4107C4.41305 17.6246 4.0155 16.8461 3.78172 16.0237C2.96413 13.1394 3.32167 10.3726 4.82935 7.78193C6.1895 5.44497 8.18224 3.84785 10.7525 3.02679C13.3541 2.19574 15.9294 2.34945 18.4184 3.49793C20.875 4.63141 22.6464 6.46099 23.7316 8.93041C24.5592 10.8137 24.8217 12.7945 24.4591 14.824C23.7803 18.6206 21.6588 21.3537 18.1347 22.8859C15.1256 24.1943 12.0952 24.0444 9.1411 22.5847C8.88232 22.4572 8.61479 22.311 8.33726 22.2648C7.73219 22.1636 7.17962 22.5272 6.99085 23.0883C6.79708 23.6645 7.0121 24.2968 7.58467 24.578C8.36601 24.9616 9.1586 25.3491 9.9837 25.6177C12.789 26.5288 15.5994 26.46 18.3809 25.494C19.5361 25.0929 20.6112 24.5243 21.6038 23.8057C21.8301 23.642 22.0526 23.4708 22.3502 23.2471L22.3527 23.2421Z" fill="white"/>
<path d="M15.2381 11.8794C15.2381 10.7321 15.2368 9.62988 15.2381 8.52639C15.2381 8.11898 15.1156 7.76531 14.7993 7.50163C14.4055 7.1742 13.9592 7.09672 13.4866 7.30542C13.0028 7.51912 12.7478 7.91153 12.7403 8.43641C12.7265 9.45617 12.7353 10.4759 12.7353 11.4969C12.7353 11.6107 12.7353 11.7231 12.7353 11.8806C12.6078 11.8806 12.4978 11.8806 12.3877 11.8806C11.3564 11.8806 10.3262 11.8731 9.29488 11.8856C8.66355 11.8931 8.176 12.3192 8.06473 12.9229C7.96347 13.4727 8.26851 14.0551 8.79982 14.2663C8.99734 14.3438 9.22362 14.375 9.4374 14.3775C10.52 14.3888 11.6026 14.3825 12.734 14.3825C12.734 14.5037 12.734 14.6125 12.734 14.7212C12.734 15.7622 12.7253 16.8032 12.7403 17.8442C12.749 18.4566 13.1766 18.9352 13.7692 19.0489C14.3167 19.1539 14.903 18.8527 15.1168 18.3228C15.1956 18.1266 15.2281 17.8992 15.2306 17.6855C15.2418 16.707 15.2356 15.7284 15.2356 14.7499C15.2356 14.6375 15.2356 14.5262 15.2356 14.3825C15.5519 14.3825 15.8406 14.3825 16.1294 14.3825C16.942 14.3825 17.7534 14.385 18.566 14.3825C19.3611 14.3788 19.9174 13.8639 19.9211 13.1391C19.9249 12.413 19.3673 11.8868 18.5785 11.8831C17.5896 11.8781 16.5995 11.8831 15.6106 11.8831C15.4981 11.8831 15.3856 11.8831 15.2356 11.8831L15.2381 11.8794Z" fill="white"/>
</g>
<defs>
<clipPath id="clip0_303_2078">
<rect width="32" height="32" fill="white" transform="matrix(-1 0 0 1 32.8639 0)"/>
</clipPath>
</defs>
</svg>
