<svg width="981" height="983" viewBox="0 0 981 983" fill="none" xmlns="http://www.w3.org/2000/svg">
<path opacity="0.4" d="M314.274 638.746C349.113 722.337 500.022 749.766 604.829 698.632C684.622 659.701 650.945 564.897 708.058 522.61C765.17 480.322 667.817 303.871 596.477 279.822C544.415 262.272 480.233 348.34 423.957 293.902C367.68 239.464 253.821 376.816 247.474 472.066C241.127 567.317 275.524 545.774 314.274 638.746Z" stroke="url(#paint0_linear_2920_164)"/>
<path opacity="0.5" d="M401.724 737.586C484.376 800.762 647.469 733.905 722.53 622.549C779.677 537.77 713.904 484.339 719.191 399.577C724.285 317.901 553.636 204.901 468.783 222.076C406.859 234.61 400.445 352.647 313.164 330.869C225.883 309.09 221.442 505.826 269.758 604.36C318.074 702.893 309.797 667.321 401.724 737.586Z" stroke="url(#paint1_linear_2920_164)"/>
<path opacity="0.2" d="M420.22 684.435C484.342 733.418 613.024 687.328 671.13 601.154C715.369 535.546 647.149 477.392 672.388 419.302C697.628 361.212 543.897 268.426 478.129 281.662C430.133 291.322 418.939 386.349 351.259 369.419C283.579 352.488 256.891 509.235 294.421 585.573C331.952 661.911 348.902 629.955 420.22 684.435Z" stroke="url(#paint2_linear_2920_164)"/>
<defs>
<linearGradient id="paint0_linear_2920_164" x1="609.779" y1="696.095" x2="372.156" y2="284.52" gradientUnits="userSpaceOnUse">
<stop stop-color="#F0C6AC"/>
<stop offset="1" stop-color="#AB836A"/>
</linearGradient>
<linearGradient id="paint1_linear_2920_164" x1="728.957" y1="624.34" x2="256.185" y2="351.385" gradientUnits="userSpaceOnUse">
<stop stop-color="#F0C6AC"/>
<stop offset="1" stop-color="#AB836A"/>
</linearGradient>
<linearGradient id="paint2_linear_2920_164" x1="673.82" y1="596.99" x2="307.103" y2="385.266" gradientUnits="userSpaceOnUse">
<stop stop-color="#F0C6AC"/>
<stop offset="1" stop-color="#AB836A"/>
</linearGradient>
</defs>
</svg>
