<svg width="722" height="715" viewBox="0 0 722 715" fill="none" xmlns="http://www.w3.org/2000/svg">
<path opacity="0.4" d="M400.706 583.451C490.518 595.075 589.727 478.098 597.846 361.766C604.028 273.198 505.087 254.961 497.021 184.356C488.955 113.751 287.467 109.836 230.971 159.594C189.741 195.906 232.187 294.523 156.904 316.041C81.6211 337.558 143.642 504.84 222.957 557.961C302.273 611.083 300.816 570.523 400.706 583.451Z" stroke="url(#paint0_linear_2920_156)"/>
<path opacity="0.5" d="M530.026 557.14C626.063 517.149 649.711 342.479 590.804 221.796C545.956 129.915 466.797 160.16 396.034 113.201C327.848 67.9516 144.663 159.238 117.111 241.31C97.0037 301.205 196.02 365.778 133.518 430.476C71.0171 495.174 239.175 597.389 348.665 604.813C458.156 612.237 423.211 601.619 530.026 557.14Z" stroke="url(#paint1_linear_2920_156)"/>
<path opacity="0.2" d="M493.243 514.544C567.725 483.504 592.15 349.018 546.574 255.609C511.876 184.494 427.402 214.496 389.715 163.593C352.027 112.69 194.807 199.432 173.385 263.007C157.753 309.403 234.452 366.611 185.95 416.758C137.448 466.906 259.85 568.392 344.726 574.058C429.602 579.724 410.402 549.068 493.243 514.544Z" stroke="url(#paint2_linear_2920_156)"/>
<defs>
<linearGradient id="paint0_linear_2920_156" x1="598.124" y1="356.21" x2="122.879" y2="356.21" gradientUnits="userSpaceOnUse">
<stop stop-color="#F0C6AC"/>
<stop offset="1" stop-color="#AB836A"/>
</linearGradient>
<linearGradient id="paint1_linear_2920_156" x1="595.569" y1="217.125" x2="122.796" y2="490.08" gradientUnits="userSpaceOnUse">
<stop stop-color="#F0C6AC"/>
<stop offset="1" stop-color="#AB836A"/>
</linearGradient>
<linearGradient id="paint2_linear_2920_156" x1="544.313" y1="251.198" x2="177.596" y2="462.922" gradientUnits="userSpaceOnUse">
<stop stop-color="#F0C6AC"/>
<stop offset="1" stop-color="#AB836A"/>
</linearGradient>
</defs>
</svg>
