<svg width="715" height="722" viewBox="0 0 715 722" fill="none" xmlns="http://www.w3.org/2000/svg">
<path opacity="0.4" d="M131.549 400.705C119.925 490.517 236.902 589.725 353.234 597.845C441.802 604.026 460.039 505.086 530.644 497.02C601.249 488.954 605.164 287.466 555.406 230.969C519.094 189.74 420.477 232.185 398.959 156.902C377.442 81.6196 210.16 143.64 157.039 222.956C103.917 302.272 144.477 300.814 131.549 400.705Z" stroke="url(#paint0_linear_2920_168)"/>
<path opacity="0.5" d="M157.86 530.027C197.851 626.064 372.521 649.711 493.204 590.805C585.085 545.957 554.84 466.798 601.799 396.035C647.048 327.849 555.762 144.663 473.69 117.111C413.795 97.0042 349.222 196.02 284.524 133.519C219.826 71.0176 117.611 239.175 110.187 348.666C102.763 458.156 113.381 423.212 157.86 530.027Z" stroke="url(#paint1_linear_2920_168)"/>
<path opacity="0.2" d="M200.452 493.243C231.492 567.725 365.978 592.15 459.387 546.574C530.502 511.876 500.5 427.403 551.403 389.715C602.306 352.027 515.564 194.807 451.989 173.386C405.593 157.753 348.385 234.452 298.238 185.95C248.09 137.448 146.604 259.851 140.938 344.727C135.272 429.602 165.928 410.403 200.452 493.243Z" stroke="url(#paint2_linear_2920_168)"/>
<defs>
<linearGradient id="paint0_linear_2920_168" x1="358.79" y1="598.123" x2="358.79" y2="122.877" gradientUnits="userSpaceOnUse">
<stop stop-color="#F0C6AC"/>
<stop offset="1" stop-color="#AB836A"/>
</linearGradient>
<linearGradient id="paint1_linear_2920_168" x1="497.875" y1="595.569" x2="224.92" y2="122.797" gradientUnits="userSpaceOnUse">
<stop stop-color="#F0C6AC"/>
<stop offset="1" stop-color="#AB836A"/>
</linearGradient>
<linearGradient id="paint2_linear_2920_168" x1="463.798" y1="544.313" x2="252.074" y2="177.596" gradientUnits="userSpaceOnUse">
<stop stop-color="#F0C6AC"/>
<stop offset="1" stop-color="#AB836A"/>
</linearGradient>
</defs>
</svg>
