<svg width="983" height="981" viewBox="0 0 983 981" fill="none" xmlns="http://www.w3.org/2000/svg">
<path opacity="0.4" d="M638.745 665.747C722.336 630.908 749.765 479.999 698.63 375.192C659.7 295.399 564.896 329.076 522.608 271.963C480.321 214.851 303.87 312.204 279.821 383.544C262.271 435.606 348.339 499.788 293.901 556.064C239.463 612.34 376.815 726.2 472.065 732.547C567.316 738.894 545.773 704.497 638.745 665.747Z" stroke="url(#paint0_linear_2920_152)"/>
<path opacity="0.5" d="M737.587 578.301C800.762 495.649 733.906 332.556 622.55 257.495C537.771 200.348 484.339 266.121 399.577 260.834C317.902 255.74 204.901 426.389 222.077 511.242C234.611 573.165 352.648 579.58 330.869 666.861C309.091 754.141 505.827 758.583 604.36 710.267C702.894 661.951 667.322 670.228 737.587 578.301Z" stroke="url(#paint1_linear_2920_152)"/>
<path opacity="0.2" d="M684.436 559.803C733.419 495.68 687.329 366.999 601.155 308.893C535.547 264.654 477.392 332.874 419.302 307.635C361.213 282.395 268.427 436.126 281.663 501.894C291.322 549.89 386.35 561.084 369.419 628.764C352.489 696.444 509.236 723.132 585.574 685.602C661.911 648.071 629.956 631.121 684.436 559.803Z" stroke="url(#paint2_linear_2920_152)"/>
<defs>
<linearGradient id="paint0_linear_2920_152" x1="696.093" y1="370.242" x2="284.519" y2="607.865" gradientUnits="userSpaceOnUse">
<stop stop-color="#F0C6AC"/>
<stop offset="1" stop-color="#AB836A"/>
</linearGradient>
<linearGradient id="paint1_linear_2920_152" x1="624.341" y1="251.067" x2="351.386" y2="723.84" gradientUnits="userSpaceOnUse">
<stop stop-color="#F0C6AC"/>
<stop offset="1" stop-color="#AB836A"/>
</linearGradient>
<linearGradient id="paint2_linear_2920_152" x1="596.991" y1="306.203" x2="385.266" y2="672.92" gradientUnits="userSpaceOnUse">
<stop stop-color="#F0C6AC"/>
<stop offset="1" stop-color="#AB836A"/>
</linearGradient>
</defs>
</svg>
