<svg width="981" height="983" viewBox="0 0 981 983" fill="none" xmlns="http://www.w3.org/2000/svg">
<g opacity="0.2">
<path opacity="0.4" d="M705.634 569.657C760.606 497.69 708.906 353.284 612.219 288.086C538.607 238.449 473.343 315.016 408.165 286.699C342.986 258.382 238.851 430.917 253.695 504.724C264.527 558.586 371.155 571.136 352.148 647.091C333.142 723.047 509.022 752.976 594.685 710.847C680.347 668.719 644.493 649.701 705.634 569.657Z" stroke="url(#paint0_linear_2920_148)"/>
<path opacity="0.5" d="M747.511 444.506C760.897 341.34 621.451 233.526 487.483 224.199C385.489 217.098 372.102 300.774 296.053 338.577C222.773 375.003 210.236 579.289 267.537 644.187C309.353 691.547 414.783 638.083 439.563 724.56C464.343 811.037 636.942 716.515 698.116 625.406C759.291 534.296 732.623 559.25 747.511 444.506Z" stroke="url(#paint1_linear_2920_148)"/>
<path opacity="0.2" d="M692.232 455.064C702.591 375.04 598.335 286.644 494.653 279.41C415.716 273.902 399.462 362.059 336.535 369.246C273.608 376.433 270.118 555.961 314.466 606.3C346.829 643.036 434.722 605.216 453.9 672.294C473.078 739.372 622.169 684.111 669.514 613.44C716.859 542.768 680.71 544.067 692.232 455.064Z" stroke="url(#paint2_linear_2920_148)"/>
</g>
<defs>
<linearGradient id="paint0_linear_2920_148" x1="607.547" y1="285.068" x2="369.924" y2="696.643" gradientUnits="userSpaceOnUse">
<stop stop-color="#F0C6AC"/>
<stop offset="1" stop-color="#AB836A"/>
</linearGradient>
<linearGradient id="paint1_linear_2920_148" x1="485.82" y1="217.737" x2="485.82" y2="763.647" gradientUnits="userSpaceOnUse">
<stop stop-color="#F0C6AC"/>
<stop offset="1" stop-color="#AB836A"/>
</linearGradient>
<linearGradient id="paint2_linear_2920_148" x1="489.702" y1="279.162" x2="489.702" y2="702.611" gradientUnits="userSpaceOnUse">
<stop stop-color="#F0C6AC"/>
<stop offset="1" stop-color="#AB836A"/>
</linearGradient>
</defs>
</svg>
