<svg width="983" height="981" viewBox="0 0 983 981" fill="none" xmlns="http://www.w3.org/2000/svg">
<path opacity="0.4" d="M412.793 705.636C484.761 760.608 629.166 708.907 694.364 612.22C744.001 538.609 667.435 473.345 695.752 408.166C724.069 342.988 551.533 238.853 477.726 253.697C423.865 264.529 411.315 371.157 335.359 352.15C259.404 333.144 229.474 509.024 271.603 594.686C313.732 680.349 332.749 644.494 412.793 705.636Z" stroke="url(#paint0_linear_2920_160)"/>
<path opacity="0.5" d="M537.946 747.511C641.112 760.896 748.927 621.451 758.254 487.483C765.354 385.489 681.678 372.102 643.875 296.052C607.449 222.772 403.163 210.235 338.266 267.536C290.905 309.353 344.369 414.783 257.892 439.563C171.415 464.342 265.937 636.941 357.047 698.116C448.156 759.291 423.202 732.623 537.946 747.511Z" stroke="url(#paint1_linear_2920_160)"/>
<path opacity="0.2" d="M527.387 692.231C607.41 702.591 695.806 598.335 703.041 494.653C708.548 415.716 620.391 399.462 613.204 336.535C606.017 273.608 426.49 270.118 376.151 314.465C339.414 346.829 377.234 434.722 310.156 453.9C243.078 473.078 298.339 622.168 369.011 669.514C439.682 716.859 438.383 680.709 527.387 692.231Z" stroke="url(#paint2_linear_2920_160)"/>
<defs>
<linearGradient id="paint0_linear_2920_160" x1="697.382" y1="607.548" x2="285.808" y2="369.926" gradientUnits="userSpaceOnUse">
<stop stop-color="#F0C6AC"/>
<stop offset="1" stop-color="#AB836A"/>
</linearGradient>
<linearGradient id="paint1_linear_2920_160" x1="764.715" y1="485.82" x2="218.805" y2="485.82" gradientUnits="userSpaceOnUse">
<stop stop-color="#F0C6AC"/>
<stop offset="1" stop-color="#AB836A"/>
</linearGradient>
<linearGradient id="paint2_linear_2920_160" x1="703.288" y1="489.702" x2="279.84" y2="489.702" gradientUnits="userSpaceOnUse">
<stop stop-color="#F0C6AC"/>
<stop offset="1" stop-color="#AB836A"/>
</linearGradient>
</defs>
</svg>
