<svg width="218" height="24" viewBox="0 0 218 24" fill="none" xmlns="http://www.w3.org/2000/svg">
<g opacity="0.9">
<g clip-path="url(#clip0_1383_27574)">
<path d="M186.627 7.21897C186.627 7.22136 186.628 7.22367 186.628 7.22603C186.629 7.23362 186.631 7.24111 186.633 7.24849C186.633 7.25084 186.634 7.25316 186.635 7.25547C186.637 7.26414 186.64 7.27262 186.643 7.28082C186.644 7.28157 186.644 7.28235 186.644 7.28306C186.648 7.2924 186.652 7.30146 186.657 7.31019C186.657 7.31066 186.658 7.31116 186.658 7.31162L193.049 18.4461C193.05 18.448 193.051 18.4497 193.052 18.4516C193.055 18.456 193.057 18.4603 193.06 18.4644C193.062 18.4675 193.065 18.4704 193.067 18.4734C193.069 18.4766 193.072 18.4798 193.075 18.4829C193.077 18.4862 193.08 18.4894 193.083 18.4925C193.086 18.495 193.088 18.4975 193.09 18.4998C193.093 18.503 193.097 18.5061 193.1 18.509C193.103 18.5112 193.106 18.5134 193.108 18.5155C193.111 18.5182 193.115 18.5207 193.118 18.5232C193.121 18.5254 193.124 18.5274 193.127 18.5294C193.131 18.5315 193.134 18.5335 193.137 18.5354C193.141 18.5375 193.145 18.5396 193.148 18.5415C193.151 18.543 193.154 18.5444 193.157 18.5458C193.162 18.5477 193.166 18.5496 193.17 18.5513C193.173 18.5524 193.176 18.5534 193.179 18.5543C193.183 18.5559 193.188 18.5574 193.192 18.5587C193.195 18.5596 193.198 18.5603 193.201 18.561C193.206 18.5621 193.21 18.5631 193.215 18.5639C193.219 18.5646 193.222 18.565 193.226 18.5655C193.23 18.5661 193.234 18.5666 193.238 18.567C193.242 18.5673 193.247 18.5674 193.251 18.5675C193.254 18.5676 193.256 18.5679 193.259 18.5679L195.082 18.5541C195.083 18.5541 195.084 18.5539 195.085 18.5539C195.093 18.5537 195.102 18.5531 195.11 18.552C195.112 18.5518 195.114 18.5515 195.116 18.5512C195.135 18.5483 195.154 18.543 195.172 18.5356C195.174 18.5347 195.176 18.5338 195.178 18.5329C195.185 18.5296 195.192 18.5259 195.199 18.522C195.201 18.5211 195.202 18.5203 195.204 18.5194C195.22 18.5094 195.236 18.4973 195.25 18.4832C195.251 18.4817 195.253 18.48 195.254 18.4784C195.259 18.4729 195.264 18.467 195.269 18.4609C195.271 18.4589 195.272 18.4569 195.274 18.4549C195.279 18.4471 195.285 18.4391 195.29 18.4305C195.29 18.4303 195.29 18.4302 195.29 18.43C195.29 18.4299 195.29 18.4299 195.29 18.4298L201.566 7.20015C201.609 7.124 201.608 7.03056 201.564 6.95502L200.641 5.35935C200.64 5.35882 200.64 5.35835 200.64 5.35785C200.635 5.34908 200.629 5.34056 200.623 5.33243C200.623 5.3324 200.623 5.3324 200.623 5.3324C200.617 5.3247 200.61 5.31746 200.603 5.31051C200.602 5.30905 200.6 5.30766 200.599 5.30623C200.593 5.30067 200.587 5.29536 200.581 5.2903C200.579 5.28909 200.578 5.2878 200.576 5.28666C200.568 5.28078 200.56 5.27522 200.552 5.27023C200.543 5.26531 200.534 5.26117 200.526 5.25743C200.525 5.25714 200.524 5.25675 200.523 5.25647C200.493 5.24399 200.462 5.23807 200.431 5.23829C200.43 5.23829 200.43 5.23839 200.43 5.23839L187.764 5.3339C187.678 5.33454 187.599 5.38188 187.556 5.45803L186.657 7.06735C186.656 7.06796 186.656 7.0686 186.656 7.06921C186.651 7.07794 186.646 7.08696 186.643 7.09634C186.642 7.09673 186.642 7.09719 186.642 7.09762C186.639 7.10614 186.636 7.11495 186.634 7.12389C186.633 7.12632 186.632 7.12871 186.632 7.13113C186.63 7.13837 186.629 7.14567 186.628 7.15312C186.627 7.15569 186.627 7.15822 186.627 7.16075C186.626 7.16988 186.625 7.17911 186.625 7.18849C186.625 7.18895 186.625 7.18942 186.625 7.18988C186.625 7.18995 186.625 7.19006 186.625 7.19016C186.625 7.19993 186.626 7.20949 186.627 7.21897ZM200.436 5.97372L201.077 7.08126L195.076 17.8188L189.979 9.0126L191.244 9.00305L194.848 15.2281C194.848 15.2289 194.849 15.2296 194.849 15.2304C194.852 15.2348 194.855 15.2391 194.858 15.2434C194.859 15.2459 194.861 15.2484 194.863 15.2508C194.866 15.2546 194.868 15.2581 194.871 15.2618C194.874 15.2645 194.876 15.2673 194.878 15.2698C194.881 15.2727 194.883 15.2753 194.886 15.2781C194.889 15.2811 194.892 15.2843 194.896 15.2871C194.898 15.2892 194.9 15.2911 194.903 15.2931C194.907 15.2963 194.91 15.2995 194.914 15.3025C194.917 15.3041 194.919 15.3056 194.921 15.3071C194.925 15.3101 194.93 15.3131 194.935 15.3158C194.935 15.3162 194.936 15.3168 194.937 15.3172C194.939 15.3183 194.941 15.3192 194.943 15.3202C194.947 15.3225 194.951 15.3248 194.956 15.3268C194.959 15.3284 194.963 15.3298 194.966 15.3312C194.97 15.3327 194.973 15.3342 194.977 15.3355C194.981 15.3369 194.985 15.3382 194.99 15.3394C194.993 15.3404 194.996 15.3413 194.999 15.3421C195.004 15.3432 195.008 15.3441 195.013 15.345C195.016 15.3455 195.019 15.3461 195.022 15.3465C195.026 15.3472 195.031 15.3477 195.036 15.3481C195.039 15.3484 195.042 15.3486 195.046 15.3487C195.05 15.349 195.054 15.349 195.058 15.349C195.062 15.3489 195.066 15.3488 195.069 15.3486C195.073 15.3484 195.077 15.3481 195.081 15.3477C195.085 15.3472 195.089 15.3467 195.093 15.3461C195.097 15.3455 195.1 15.3449 195.103 15.3441C195.108 15.3433 195.112 15.3424 195.116 15.3413C195.12 15.3404 195.123 15.3393 195.127 15.3382C195.13 15.337 195.134 15.3358 195.138 15.3344C195.142 15.3329 195.146 15.3313 195.15 15.3296C195.153 15.3282 195.156 15.3269 195.159 15.3254C195.164 15.3232 195.169 15.3207 195.173 15.3182C195.175 15.3172 195.176 15.3164 195.178 15.3154C195.179 15.315 195.18 15.3145 195.18 15.3141C195.185 15.3112 195.19 15.308 195.194 15.3048C195.196 15.3034 195.198 15.302 195.2 15.3004C195.205 15.2973 195.209 15.2939 195.212 15.2905C195.215 15.2886 195.217 15.2867 195.219 15.2848C195.222 15.2818 195.225 15.2785 195.228 15.2753C195.231 15.2726 195.233 15.27 195.236 15.2672C195.238 15.2645 195.241 15.2617 195.243 15.2589C195.246 15.2553 195.249 15.2517 195.251 15.2479C195.253 15.2455 195.254 15.2429 195.256 15.2404C195.259 15.2361 195.262 15.2317 195.264 15.2273C195.265 15.2265 195.266 15.2258 195.266 15.225L200.436 5.97372ZM191.802 8.9988L196.394 8.96419L194.129 13.0181L191.802 8.9988ZM187.907 5.82303L200.016 5.73174L195.052 14.6138L194.411 13.5063L197.92 7.22763C197.941 7.1902 197.952 7.14774 197.952 7.10475C197.951 6.96932 197.842 6.86041 197.708 6.86145L196.11 6.8735C195.977 6.87449 195.869 6.98501 195.871 7.12044C195.871 7.25583 195.98 7.36474 196.114 7.36374L197.294 7.35483L196.669 8.47184L191.381 8.51174C191.38 8.51174 191.38 8.5117 191.38 8.5117L191.379 8.51174L189.696 8.52443L189.056 7.41693L195.148 7.37101C195.281 7.37001 195.389 7.25947 195.387 7.12407C195.386 6.98868 195.277 6.87977 195.144 6.88077L188.634 6.92986L188.633 6.92982C188.633 6.92982 188.633 6.92986 188.633 6.92986L187.283 6.94002L187.907 5.82303ZM188.498 7.42113L194.66 18.0671L193.395 18.0766L187.285 7.43029L188.498 7.42113Z" fill="url(#paint0_linear_1383_27574)"/>
<path d="M115.41 5.4489H118.075V18.508H115.41V5.4489ZM121.468 5.4489H124.116L128.862 10.2114L133.608 5.4489H136.256V18.508H133.608V9.1168L128.862 13.6871L124.116 9.1168V18.508H121.468V5.4489ZM139.974 5.4489H146.859C147.862 5.4489 148.731 5.55752 149.466 5.77473C150.201 5.99197 150.811 6.30668 151.296 6.71889C151.78 7.1255 152.14 7.62405 152.373 8.21446C152.613 8.80488 152.733 9.47051 152.733 10.2114C152.733 10.9076 152.616 11.551 152.382 12.1414C152.148 12.7318 151.788 13.2443 151.304 13.6787C150.825 14.1076 150.218 14.4447 149.483 14.6897C148.747 14.9292 147.878 15.049 146.876 15.049L142.623 15.0406V18.508H139.974V5.4489ZM146.926 12.7513C147.427 12.7513 147.864 12.6928 148.238 12.5759C148.616 12.4533 148.931 12.2834 149.182 12.0662C149.438 11.8434 149.627 11.576 149.75 11.2641C149.878 10.9466 149.942 10.5957 149.942 10.2114C149.942 9.43711 149.689 8.83553 149.182 8.40664C148.681 7.97216 147.929 7.75491 146.926 7.75491H142.623V12.7513H146.926ZM155.632 5.4489H162.275C163.277 5.4489 164.146 5.55474 164.881 5.76639C165.617 5.97247 166.226 6.27328 166.711 6.66877C167.195 7.06422 167.555 7.54605 167.789 8.11422C168.028 8.68235 168.148 9.32571 168.148 10.0442C168.148 10.5289 168.09 10.9912 167.973 11.4312C167.856 11.8657 167.675 12.2667 167.43 12.6343C167.19 13.002 166.886 13.3306 166.519 13.6203C166.151 13.9043 165.72 14.1411 165.224 14.3304L168.065 18.508H164.823L162.366 14.7984H162.291L158.28 14.79V18.508H155.632V5.4489ZM162.341 12.5007C162.842 12.5007 163.28 12.4422 163.653 12.3252C164.032 12.2082 164.346 12.0439 164.597 11.8322C164.853 11.6206 165.043 11.3644 165.165 11.0636C165.293 10.7572 165.357 10.4174 165.357 10.0442C165.357 9.31455 165.107 8.75197 164.606 8.35649C164.104 7.95544 163.349 7.75491 162.341 7.75491H158.28V12.5007H162.341ZM170.521 11.9409C170.521 10.955 170.702 10.0526 171.064 9.2338C171.426 8.41499 171.933 7.71317 172.585 7.12828C173.242 6.53786 174.027 6.0811 174.941 5.75805C175.86 5.43496 176.877 5.27344 177.99 5.27344C179.099 5.27344 180.113 5.43496 181.032 5.75805C181.951 6.0811 182.736 6.53786 183.388 7.12828C184.045 7.71317 184.555 8.41499 184.917 9.2338C185.279 10.0526 185.46 10.955 185.46 11.9409C185.46 12.9324 185.279 13.8431 184.917 14.673C184.555 15.4974 184.045 16.2076 183.388 16.8036C182.736 17.3996 181.951 17.8647 181.032 18.1989C180.113 18.5275 179.099 18.6919 177.99 18.6919C176.877 18.6919 175.86 18.5275 174.941 18.1989C174.027 17.8647 173.242 17.3996 172.585 16.8036C171.933 16.2076 171.426 15.4974 171.064 14.673C170.702 13.8431 170.521 12.9324 170.521 11.9409ZM173.17 11.9409C173.17 12.6149 173.289 13.222 173.529 13.7623C173.774 14.3026 174.111 14.7649 174.54 15.1493C174.974 15.528 175.484 15.8204 176.069 16.0266C176.659 16.2327 177.3 16.3357 177.99 16.3357C178.681 16.3357 179.319 16.2327 179.904 16.0266C180.494 15.8204 181.004 15.528 181.433 15.1493C181.862 14.7649 182.199 14.3026 182.444 13.7623C182.689 13.222 182.811 12.6149 182.811 11.9409C182.811 11.2669 182.689 10.6625 182.444 10.1278C182.199 9.59307 181.862 9.1419 181.433 8.77425C181.004 8.40105 180.494 8.117 179.904 7.92203C179.319 7.72707 178.681 7.62961 177.99 7.62961C177.3 7.62961 176.659 7.72707 176.069 7.92203C175.484 8.117 174.974 8.40105 174.54 8.77425C174.111 9.1419 173.774 9.59307 173.529 10.1278C173.289 10.6625 173.17 11.2669 173.17 11.9409Z" fill="url(#paint1_linear_1383_27574)"/>
<path d="M203.693 14.6224C204.167 14.8897 204.646 15.132 205.13 15.3492C205.62 15.5609 206.127 15.742 206.651 15.8924C207.175 16.0372 207.723 16.1486 208.297 16.2266C208.876 16.3045 209.492 16.3435 210.144 16.3435C210.929 16.3435 211.597 16.2934 212.149 16.1931C212.7 16.0873 213.149 15.9453 213.494 15.767C213.845 15.5832 214.098 15.366 214.254 15.1153C214.416 14.8646 214.497 14.5917 214.497 14.2965C214.497 13.8231 214.299 13.4498 213.903 13.1769C213.508 12.8984 212.898 12.7592 212.074 12.7592C211.711 12.7592 211.33 12.7842 210.929 12.8343C210.528 12.8789 210.121 12.9291 209.709 12.9847C209.302 13.0405 208.899 13.0934 208.498 13.1435C208.102 13.188 207.729 13.2103 207.378 13.2103C206.793 13.2103 206.23 13.1351 205.69 12.9847C205.156 12.8343 204.679 12.6087 204.262 12.308C203.849 12.0072 203.521 11.6312 203.275 11.18C203.031 10.7288 202.908 10.2025 202.908 9.60088C202.908 9.2444 202.955 8.89069 203.05 8.5398C203.15 8.18887 203.306 7.85466 203.518 7.53718C203.735 7.21409 204.013 6.9161 204.354 6.64318C204.693 6.36465 205.102 6.12513 205.582 5.9246C206.066 5.72408 206.623 5.56812 207.252 5.45671C207.888 5.33975 208.609 5.28125 209.417 5.28125C210.001 5.28125 210.589 5.31469 211.18 5.38153C211.77 5.44281 212.344 5.53193 212.901 5.6489C213.463 5.76586 214.004 5.90788 214.522 6.07501C215.04 6.23653 215.522 6.41755 215.967 6.61808L214.806 8.75701C214.438 8.59548 214.042 8.44786 213.619 8.31418C213.196 8.17493 212.753 8.05519 212.291 7.95491C211.828 7.85466 211.35 7.77666 210.854 7.72098C210.364 7.6597 209.862 7.62908 209.35 7.62908C208.62 7.62908 208.019 7.68198 207.545 7.78782C207.077 7.89366 206.704 8.03013 206.425 8.19721C206.147 8.35874 205.952 8.54258 205.841 8.74866C205.735 8.94919 205.682 9.14971 205.682 9.35024C205.682 9.74013 205.857 10.0604 206.208 10.3111C206.559 10.5562 207.094 10.6787 207.813 10.6787C208.102 10.6787 208.434 10.6592 208.807 10.6202C209.185 10.5757 209.581 10.5283 209.993 10.4782C210.411 10.428 210.834 10.3835 211.263 10.3445C211.698 10.3 212.118 10.2777 212.525 10.2777C213.294 10.2777 213.973 10.364 214.563 10.5367C215.159 10.7093 215.658 10.9572 216.059 11.2803C216.46 11.5978 216.764 11.9849 216.97 12.4417C217.176 12.8928 217.279 13.3997 217.279 13.9623C217.279 14.7143 217.103 15.3855 216.753 15.9759C216.407 16.5608 215.912 17.0565 215.265 17.4631C214.625 17.8642 213.85 18.1705 212.942 18.3822C212.034 18.5883 211.024 18.6913 209.91 18.6913C209.174 18.6913 208.456 18.644 207.754 18.5493C207.052 18.4602 206.378 18.3321 205.732 18.165C205.091 17.9923 204.479 17.789 203.894 17.555C203.315 17.3155 202.777 17.0537 202.281 16.7696L203.693 14.6224Z" fill="url(#paint2_linear_1383_27574)"/>
</g>
<path d="M0.644853 11.6417C0.644853 10.3942 0.923408 9.28002 1.48052 8.29903C2.04974 7.30592 2.81879 6.53686 3.78768 5.99187C4.76868 5.43476 5.86473 5.1562 7.07584 5.1562C8.49283 5.1562 9.73422 5.51953 10.8 6.2462C11.8658 6.97286 12.6106 7.97808 13.0345 9.26186H10.1097C9.819 8.6563 9.40722 8.20214 8.87433 7.89936C8.35355 7.59658 7.748 7.4452 7.05767 7.4452C6.31889 7.4452 5.65884 7.62081 5.07751 7.97203C4.50829 8.31114 4.06018 8.79558 3.73318 9.42536C3.41829 10.0551 3.26085 10.7939 3.26085 11.6417C3.26085 12.4773 3.41829 13.2161 3.73318 13.858C4.06018 14.4878 4.50829 14.9783 5.07751 15.3295C5.65884 15.6686 6.31889 15.8382 7.05767 15.8382C7.748 15.8382 8.35355 15.6868 8.87433 15.384C9.40722 15.0691 9.819 14.6089 10.1097 14.0033H13.0345C12.6106 15.2992 11.8658 16.3105 10.8 17.0372C9.74633 17.7517 8.50494 18.109 7.07584 18.109C5.86473 18.109 4.76868 17.8365 3.78768 17.2915C2.81879 16.7344 2.04974 15.9653 1.48052 14.9843C0.923408 14.0033 0.644853 12.8891 0.644853 11.6417ZM21.7468 18L18.9491 13.0587H17.7501V18H15.2068V5.3197H19.9665C20.9475 5.3197 21.7831 5.49531 22.4735 5.84653C23.1638 6.18564 23.6785 6.65192 24.0176 7.24536C24.3688 7.82669 24.5445 8.48069 24.5445 9.20736C24.5445 10.043 24.3022 10.8 23.8178 11.4782C23.3333 12.1443 22.6127 12.6045 21.656 12.8588L24.6898 18H21.7468ZM17.7501 11.1512H19.8756C20.566 11.1512 21.0807 10.9877 21.4198 10.6607C21.7589 10.3216 21.9285 9.8553 21.9285 9.26186C21.9285 8.68053 21.7589 8.23242 21.4198 7.91753C21.0807 7.59053 20.566 7.42703 19.8756 7.42703H17.7501V11.1512ZM29.3881 7.37253V10.5517H33.6573V12.5682H29.3881V15.929H34.2023V18H26.8448V5.30153H34.2023V7.37253H29.3881ZM44.2889 15.5838H39.2386L38.4029 18H35.7324L40.2922 5.30153H43.2534L47.8132 18H45.1245L44.2889 15.5838ZM43.5985 13.5492L41.7637 8.24453L39.9289 13.5492H43.5985ZM58.1467 5.3197V7.37253H54.7677V18H52.2244V7.37253H48.8454V5.3197H58.1467ZM62.5458 7.37253V10.5517H66.8149V12.5682H62.5458V15.929H67.3599V18H60.0024V5.30153H67.3599V7.37253H62.5458ZM74.1038 5.3197C75.4361 5.3197 76.6048 5.58009 77.61 6.10087C78.6273 6.62164 79.4085 7.36647 79.9535 8.33536C80.5106 9.29214 80.7892 10.4064 80.7892 11.678C80.7892 12.9497 80.5106 14.0639 79.9535 15.0207C79.4085 15.9653 78.6273 16.6981 77.61 17.2188C76.6048 17.7396 75.4361 18 74.1038 18H69.6712V5.3197H74.1038ZM74.013 15.8382C75.3452 15.8382 76.3747 15.4748 77.1013 14.7482C77.828 14.0215 78.1913 12.9981 78.1913 11.678C78.1913 10.3579 77.828 9.32847 77.1013 8.58969C76.3747 7.83881 75.3452 7.46336 74.013 7.46336H72.2145V15.8382H74.013ZM94.2157 11.4964C94.9303 11.6296 95.5176 11.9868 95.9779 12.5682C96.4381 13.1495 96.6682 13.8156 96.6682 14.5665C96.6682 15.2447 96.4986 15.8442 96.1595 16.365C95.8325 16.8737 95.3541 17.2733 94.7244 17.564C94.0946 17.8547 93.3498 18 92.4899 18H87.0217V5.3197H92.2537C93.1136 5.3197 93.8524 5.45898 94.47 5.73753C95.0998 6.01609 95.5721 6.40364 95.887 6.9002C96.214 7.39675 96.3775 7.95992 96.3775 8.58969C96.3775 9.32847 96.1777 9.94613 95.778 10.4427C95.3905 10.9392 94.8697 11.2905 94.2157 11.4964ZM89.565 10.5517H91.8904C92.4959 10.5517 92.9622 10.4185 93.2892 10.152C93.6162 9.87347 93.7797 9.47986 93.7797 8.97119C93.7797 8.46253 93.6162 8.06892 93.2892 7.79036C92.9622 7.51181 92.4959 7.37253 91.8904 7.37253H89.565V10.5517ZM92.1265 15.929C92.7442 15.929 93.2226 15.7837 93.5617 15.493C93.9129 15.2023 94.0885 14.7906 94.0885 14.2577C94.0885 13.7127 93.9069 13.2888 93.5435 12.986C93.1802 12.6711 92.6897 12.5137 92.072 12.5137H89.565V15.929H92.1265ZM108.778 5.3197L104.49 13.5855V18H101.947V13.5855L97.6415 5.3197H100.512L103.237 11.1149L105.944 5.3197H108.778Z" fill="#AEACA9"/>
</g>
<defs>
<linearGradient id="paint0_linear_1383_27574" x1="194.111" y1="-9.21193" x2="194.209" y2="18.5675" gradientUnits="userSpaceOnUse">
<stop stop-color="#111520"/>
<stop offset="1" stop-color="#DDB06D"/>
</linearGradient>
<linearGradient id="paint1_linear_1383_27574" x1="150.435" y1="-9.27307" x2="150.456" y2="18.6918" gradientUnits="userSpaceOnUse">
<stop stop-color="#111520"/>
<stop offset="1" stop-color="#DDB06D"/>
</linearGradient>
<linearGradient id="paint2_linear_1383_27574" x1="209.78" y1="-9.25622" x2="209.879" y2="18.691" gradientUnits="userSpaceOnUse">
<stop stop-color="#111520"/>
<stop offset="1" stop-color="#DDB06D"/>
</linearGradient>
<clipPath id="clip0_1383_27574">
<rect width="104.109" height="13.9743" fill="white" transform="translate(113.891 4.89062)"/>
</clipPath>
</defs>
</svg>
