<svg width="49" height="57" fill="none" xmlns="http://www.w3.org/2000/svg"><path d="M1.318 16.362a.42.42 0 100-.84.42.42 0 000 .84zm9.3-.07a.42.42 0 100-.84.42.42 0 000 .84zm-4.649 2.74a.42.42 0 100-.84.42.42 0 000 .84zm-4.651 2.75a.42.42 0 100-.84.42.42 0 000 .84zm23.251-7.87a.87.87 0 100-1.74.87.87 0 000 1.74zm-4.65 2.75a.87.87 0 100-1.74.87.87 0 000 1.74zm-4.651 2.75a.87.87 0 100-1.74.87.87 0 000 1.74zm-4.65 2.75a.87.87 0 100-1.74.87.87 0 000 1.74zm-4.649 2.74a.87.87 0 100-1.74.87.87 0 000 1.74zm-4.651 2.3a.42.42 0 100-.84.42.42 0 000 .84zm23.251-7a1.74 1.74 0 100-3.48 1.74 1.74 0 000 3.48zm-4.65 2.75a1.74 1.74 0 100-3.48 1.74 1.74 0 000 3.48zm-4.65 2.75a1.74 1.74 0 100-3.48 1.74 1.74 0 000 3.48zm-4.651 2.74a1.74 1.74 0 100-3.48 1.74 1.74 0 000 3.48zm-4.649 1.88a.87.87 0 100-1.74.87.87 0 000 1.74zm-4.651 2.3a.42.42 0 100-.84.42.42 0 000 .84zm23.251-7a1.74 1.74 0 100-3.48 1.74 1.74 0 000 3.48zm-4.65 2.75a1.74 1.74 0 100-3.48 1.74 1.74 0 000 3.48zm-4.65 2.74a1.74 1.74 0 100-3.48 1.74 1.74 0 000 3.48zm-4.651 2.75a1.74 1.74 0 100-3.48 1.74 1.74 0 000 3.48zm-4.649 1.88a.87.87 0 100-1.74.87.87 0 000 1.74zm-4.651 2.3a.42.42 0 100-.84.42.42 0 000 .84zm23.251-7.87a.87.87 0 100-1.74.87.87 0 000 1.74zm-4.65 2.74a.87.87 0 100-1.74.87.87 0 000 1.74zm-4.651 2.75a.87.87 0 100-1.74.87.87 0 000 1.74zm-4.65 2.75a.87.87 0 100-1.74.87.87 0 000 1.74zm-4.649 2.3a.42.42 0 100-.84.42.42 0 000 .84zm-4.651 2.75a.42.42 0 100-.84.42.42 0 000 .84zm23.25-8.33a.42.42 0 100-.84.42.42 0 000 .84zm-4.649 2.75a.42.42 0 100-.84.42.42 0 000 .84zm-4.65 2.75a.42.42 0 100-.84.42.42 0 000 .84zm-4.651 2.75a.42.42 0 100-.84.42.42 0 000 .84zm-4.649 2.75a.42.42 0 100-.84.42.42 0 000 .84zm18.599-5.58a.42.42 0 100-.84.42.42 0 000 .84zm-4.649 2.75a.42.42 0 100-.84.42.42 0 000 .84zm-4.65 2.75a.42.42 0 100-.84.42.42 0 000 .84zm-4.651 2.75a.42.42 0 100-.84.42.42 0 000 .84zm13.95-2.83a.42.42 0 100-.84.42.42 0 000 .84zm-4.649 2.75a.42.42 0 100-.84.42.42 0 000 .84zm-4.65 2.75a.42.42 0 100-.84.42.42 0 000 .84zm9.299-.08a.42.42 0 100-.84.42.42 0 000 .84zm-4.649 2.75a.42.42 0 100-.84.42.42 0 000 .84zm4.649 2.67a.42.42 0 100-.84.42.42 0 000 .84zm23.19-40.45a.42.42 0 100-.84.42.42 0 000 .84zm-9.309-.07a.42.42 0 100-.84.42.42 0 000 .84zm4.66 2.74a.42.42 0 100-.84.42.42 0 000 .84zm4.649 2.75a.42.42 0 100-.84.42.42 0 000 .84z" fill="#fff"/><path d="M24.498 13.912a.87.87 0 100-1.74.87.87 0 000 1.74zm4.651 2.75a.87.87 0 100-1.74.87.87 0 000 1.74zm4.65 2.75a.87.87 0 100-1.74.87.87 0 000 1.74zm4.65 2.75a.87.87 0 100-1.74.87.87 0 000 1.74zm4.659 2.74a.87.87 0 100-1.74.87.87 0 000 1.74zm4.65 2.3a.42.42 0 100-.84.42.42 0 000 .84zm-23.26-7a1.74 1.74 0 100-3.48 1.74 1.74 0 000 3.48zm4.651 2.75a1.74 1.74 0 100-3.48 1.74 1.74 0 000 3.48zm4.65 2.75a1.74 1.74 0 100-3.48 1.74 1.74 0 000 3.48zm4.649 2.74a1.74 1.74 0 100-3.48 1.74 1.74 0 000 3.48zm4.66 1.88a.87.87 0 100-1.74.87.87 0 000 1.74zm4.65 2.3a.42.42 0 100-.84.42.42 0 000 .84zm-23.26-7a1.74 1.74 0 100-3.48 1.74 1.74 0 000 3.48zm4.651 2.75a1.74 1.74 0 100-3.48 1.74 1.74 0 000 3.48zm4.65 2.74a1.74 1.74 0 100-3.48 1.74 1.74 0 000 3.48zm4.649 2.75a1.74 1.74 0 100-3.48 1.74 1.74 0 000 3.48zm4.66 1.88a.87.87 0 100-1.74.87.87 0 000 1.74zm4.65 2.3a.42.42 0 100-.84.42.42 0 000 .84zm-23.26-7.87a.87.87 0 100-1.74.87.87 0 000 1.74zm4.651 2.74a.87.87 0 100-1.74.87.87 0 000 1.74zm4.65 2.75a.87.87 0 100-1.74.87.87 0 000 1.74zm4.65 2.75a.87.87 0 100-1.74.87.87 0 000 1.74zm4.66 2.3a.42.42 0 100-.84.42.42 0 000 .84zm4.649 2.75a.42.42 0 100-.84.42.42 0 000 .84zm-23.259-8.33a.42.42 0 100-.84.42.42 0 000 .84zm4.649 2.75a.42.42 0 100-.84.42.42 0 000 .84zm4.65 2.75a.42.42 0 100-.84.42.42 0 000 .84zm4.651 2.75a.42.42 0 100-.84.42.42 0 000 .84zm4.66 2.75a.42.42 0 100-.84.42.42 0 000 .84zm-18.61-5.58a.42.42 0 100-.84.42.42 0 000 .84zm4.649 2.75a.42.42 0 100-.84.42.42 0 000 .84zm4.65 2.75a.42.42 0 100-.84.42.42 0 000 .84zm4.651 2.75a.42.42 0 100-.84.42.42 0 000 .84zm-13.95-2.83a.42.42 0 100-.84.42.42 0 000 .84zm4.649 2.75a.42.42 0 100-.84.42.42 0 000 .84zm4.65 2.75a.42.42 0 100-.84.42.42 0 000 .84zm-9.299-.08a.42.42 0 100-.84.42.42 0 000 .84zm4.649 2.75a.42.42 0 100-.84.42.42 0 000 .84zm-4.649 2.67a.42.42 0 100-.84.42.42 0 000 .84zm-.48-55.22a.42.42 0 100-.84.42.42 0 000 .84zm-4.65 2.75a.42.42 0 100-.84.42.42 0 000 .84zm-4.651 2.75a.42.42 0 100-.84.42.42 0 000 .84zm-4.65 2.75a.42.42 0 100-.84.42.42 0 000 .84zm-4.649 2.75a.42.42 0 100-.84.42.42 0 000 .84zm18.6-5.58a.42.42 0 100-.84.42.42 0 000 .84zm-4.65 2.75a.42.42 0 100-.84.42.42 0 000 .84zm-4.651 2.75a.42.42 0 100-.84.42.42 0 000 .84z" fill="#fff"/><path d="M23.949 1.592a.42.42 0 100-.84.42.42 0 000 .84zm4.65 2.75a.42.42 0 100-.84.42.42 0 000 .84zm4.65 2.75a.42.42 0 100-.84.42.42 0 000 .84zm4.649 2.75a.42.42 0 100-.84.42.42 0 000 .84zm4.66 2.75a.42.42 0 100-.84.42.42 0 000 .84zm-18.609-5.58a.42.42 0 100-.84.42.42 0 000 .84zm4.65 2.75a.42.42 0 100-.84.42.42 0 000 .84zm4.65 2.75a.42.42 0 100-.84.42.42 0 000 .84z" fill="#fff"/></svg>