<svg width="37" height="45" fill="none" xmlns="http://www.w3.org/2000/svg"><path d="M.45 12.983a.328.328 0 100-.655.328.328 0 000 .655zm7.253-.054a.327.327 0 100-.655.327.327 0 000 .655zm-3.625 2.137a.328.328 0 100-.656.328.328 0 000 .655zM.45 17.21a.328.328 0 100-.655.328.328 0 000 .655zm18.13-6.137a.678.678 0 100-1.357.678.678 0 000 1.357zm-3.624 2.144a.678.678 0 100-1.357.678.678 0 000 1.357zm-3.627 2.145a.679.679 0 100-1.357.679.679 0 000 1.357zm-3.627 2.144a.678.678 0 100-1.357.678.678 0 000 1.357zm-3.625 2.137a.678.678 0 100-1.357.678.678 0 000 1.357zM.45 21.436a.328.328 0 100-.655.328.328 0 000 .655zm18.131-5.458a1.357 1.357 0 100-2.714 1.357 1.357 0 000 2.714zm-3.624 2.144a1.357 1.357 0 100-2.714 1.357 1.357 0 000 2.714zm-3.627 2.145a1.357 1.357 0 100-2.714 1.357 1.357 0 000 2.714zm-3.627 2.137a1.357 1.357 0 100-2.714 1.357 1.357 0 000 2.714zM4.077 23.87a.678.678 0 100-1.357.678.678 0 000 1.356zM.45 25.663a.328.328 0 100-.655.328.328 0 000 .655zm18.131-5.459a1.357 1.357 0 100-2.713 1.357 1.357 0 000 2.713zm-3.624 2.145a1.357 1.357 0 100-2.714 1.357 1.357 0 000 2.714zm-3.627 2.136a1.357 1.357 0 100-2.713 1.357 1.357 0 000 2.713zM7.703 26.63a1.357 1.357 0 100-2.714 1.357 1.357 0 000 2.714zm-3.626 1.466a.678.678 0 100-1.357.678.678 0 000 1.357zM.45 29.89a.328.328 0 100-.655.328.328 0 000 .655zm18.13-6.137a.678.678 0 100-1.357.678.678 0 000 1.357zm-3.624 2.137a.679.679 0 100-1.358.679.679 0 000 1.357zm-3.627 2.144a.679.679 0 100-1.357.679.679 0 000 1.357zm-3.627 2.144a.678.678 0 100-1.357.678.678 0 000 1.357zm-3.624 1.794a.327.327 0 100-.655.327.327 0 000 .655zM.45 34.117a.328.328 0 100-.656.328.328 0 000 .656zm18.131-6.497a.328.328 0 100-.655.328.328 0 000 .655zm-3.625 2.145a.327.327 0 100-.655.327.327 0 000 .655zM11.33 31.91a.327.327 0 100-.655.327.327 0 000 .655zm-3.627 2.144a.327.327 0 100-.655.327.327 0 000 .655zm-3.625 2.145a.327.327 0 100-.655.327.327 0 000 .655zm14.503-4.352a.328.328 0 100-.655.328.328 0 000 .655zm-3.625 2.145a.327.327 0 100-.655.327.327 0 000 .655zm-3.626 2.144a.327.327 0 100-.655.327.327 0 000 .655zM7.703 38.28a.327.327 0 100-.654.327.327 0 000 .655zm10.878-2.206a.328.328 0 100-.655.328.328 0 000 .655zm-3.625 2.144a.327.327 0 100-.655.327.327 0 000 .655zm-3.626 2.145a.327.327 0 100-.655.327.327 0 000 .655zm7.251-.063a.328.328 0 100-.655.328.328 0 000 .656zm-3.625 2.145a.327.327 0 100-.655.327.327 0 000 .655zm3.625 2.082a.328.328 0 100-.655.328.328 0 000 .655zm18.085-31.544a.328.328 0 100-.655.328.328 0 000 .655zm-7.26-.054a.327.327 0 100-.655.327.327 0 000 .655zm3.634 2.137a.328.328 0 100-.656.328.328 0 000 .655zm3.626 2.144a.328.328 0 100-.655.328.328 0 000 .655z" fill="#fff"/><path d="M18.526 11.073a.679.679 0 100-1.357.679.679 0 000 1.357zm3.627 2.144a.678.678 0 100-1.357.678.678 0 000 1.357zm3.627 2.145a.679.679 0 100-1.357.679.679 0 000 1.357zm3.625 2.144a.679.679 0 100-1.357.679.679 0 000 1.357zm3.635 2.137a.678.678 0 100-1.357.678.678 0 000 1.357zm3.626 1.793a.328.328 0 100-.655.328.328 0 000 .655zm-18.139-5.458a1.357 1.357 0 100-2.714 1.357 1.357 0 000 2.714zm3.627 2.144a1.357 1.357 0 100-2.713 1.357 1.357 0 000 2.713zm3.625 2.145a1.357 1.357 0 100-2.714 1.357 1.357 0 000 2.714zm3.627 2.137a1.357 1.357 0 100-2.714 1.357 1.357 0 000 2.714zm3.634 1.466a.678.678 0 100-1.357.678.678 0 000 1.356zm3.626 1.793a.328.328 0 100-.655.328.328 0 000 .655zm-18.139-5.459a1.357 1.357 0 100-2.713 1.357 1.357 0 000 2.713zm3.627 2.145a1.357 1.357 0 100-2.714 1.357 1.357 0 000 2.714zm3.625 2.136a1.357 1.357 0 100-2.713 1.357 1.357 0 000 2.713zm3.627 2.145a1.357 1.357 0 100-2.714 1.357 1.357 0 000 2.714zm3.634 1.466a.678.678 0 100-1.357.678.678 0 000 1.357zm3.626 1.794a.328.328 0 100-.655.328.328 0 000 .655zm-18.14-6.137a.678.678 0 100-1.357.678.678 0 000 1.357zm3.627 2.137a.679.679 0 100-1.358.679.679 0 000 1.357zm3.627 2.144a.679.679 0 100-1.357.679.679 0 000 1.357zm3.625 2.144a.679.679 0 100-1.357.679.679 0 000 1.357zm3.635 1.794a.327.327 0 100-.655.327.327 0 000 .655zm3.626 2.145a.328.328 0 100-.656.328.328 0 000 .656zM18.527 27.62a.328.328 0 100-.655.328.328 0 000 .655zm3.627 2.145a.327.327 0 100-.655.327.327 0 000 .655zm3.625 2.145a.327.327 0 100-.655.327.327 0 000 .655zm3.627 2.144a.327.327 0 100-.655.327.327 0 000 .655zm3.634 2.145a.327.327 0 100-.655.327.327 0 000 .655zm-14.513-4.352a.328.328 0 100-.655.328.328 0 000 .655zm3.627 2.145a.327.327 0 100-.655.327.327 0 000 .655zm3.625 2.144a.327.327 0 100-.655.327.327 0 000 .655zm3.627 2.144a.327.327 0 100-.654.327.327 0 000 .655zm-10.879-2.206a.328.328 0 100-.655.328.328 0 000 .655zm3.627 2.144a.327.327 0 100-.655.327.327 0 000 .655zm3.625 2.145a.327.327 0 100-.655.327.327 0 000 .655zm-7.252-.063a.328.328 0 100-.655.328.328 0 000 .656zm3.627 2.145a.327.327 0 100-.655.327.327 0 000 .655zm-3.627 2.082a.328.328 0 100-.655.328.328 0 000 .655zm-.373-43.062a.328.328 0 100-.655.328.328 0 000 .655zM14.527 3.61a.327.327 0 100-.655.327.327 0 000 .655zM10.9 5.754a.327.327 0 100-.655.327.327 0 000 .655zM7.275 7.899a.328.328 0 100-.655.328.328 0 000 .655zm-3.627 2.144a.328.328 0 100-.655.328.328 0 000 .655zm14.506-4.351a.328.328 0 100-.655.328.328 0 000 .655zm-3.627 2.144a.328.328 0 100-.655.328.328 0 000 .655zM10.9 9.981a.328.328 0 100-.655.328.328 0 000 .655z" fill="#fff"/><path d="M18.099 1.465a.327.327 0 100-.655.327.327 0 000 .655zm3.625 2.145a.327.327 0 100-.655.327.327 0 000 .655zm3.627 2.144a.328.328 0 100-.655.328.328 0 000 .655zm3.625 2.145a.327.327 0 100-.655.327.327 0 000 .655zm3.634 2.144a.328.328 0 100-.655.328.328 0 000 .655zM18.099 5.692a.328.328 0 100-.655.328.328 0 000 .655zm3.625 2.144a.328.328 0 100-.655.328.328 0 000 .655zm3.627 2.145a.328.328 0 100-.655.328.328 0 000 .655z" fill="#fff"/></svg>