<svg width="42" height="48" fill="none" xmlns="http://www.w3.org/2000/svg"><path d="M20.887 5.322l7.81 4.51 3.96-2.28-11.77-6.8-19.66 11.36 3.94 2.28 15.72-9.07zm15.71 4.51l-15.71 9.07-7.81-4.51-3.95 2.28 11.76 6.79 19.67-11.35-3.96-2.28zm-32.21 15.26l-3.95-2.28v13.58l19.66 11.36v-4.56l-15.71-9.08v-9.02zm-3.95-6.84l15.71 9.07v9.02l3.95 2.29v-13.59L.436 13.692v4.56zm33.01 4.56v-4.56l-11.77 6.79v22.71l3.95-2.28v-18.15l7.82-4.51zm3.94-6.84v18.14l-7.81 4.52v4.56l11.77-6.8v-22.7l-3.96 2.28z" fill="#fff"/></svg>