<svg width="33" height="38" fill="none" xmlns="http://www.w3.org/2000/svg"><path d="M16.374 4.493l6.09 3.517 3.089-1.778L16.374.93 1.043 9.79l3.072 1.777 12.26-7.073zM28.627 8.01l-12.251 7.073-6.09-3.517-3.08 1.778 9.17 5.295 15.339-8.85-3.088-1.779zM3.508 19.91l-3.08-1.778v10.59l15.331 8.86v-3.557l-12.25-7.08V19.91zm-3.08-5.334l12.25 7.073v7.034l3.081 1.786V19.871L.428 11.021v3.555zm25.742 3.556v-3.556l-9.178 5.295v17.71l3.08-1.778V21.65l6.099-3.517zm3.073-5.334v14.146l-6.09 3.525v3.556l9.178-5.303V11.02l-3.088 1.778z" fill="#fff"/></svg>