<svg width="33" height="41" fill="none" xmlns="http://www.w3.org/2000/svg"><path d="M12.56 20.326a3.852 3.852 0 107.705 0 3.852 3.852 0 00-7.705 0zm3.845 12.04a3.853 3.853 0 100 7.705 3.853 3.853 0 000-7.705zm11.822-15.893a3.852 3.852 0 100 7.705 3.852 3.852 0 000-7.705zM16.405 8.074A3.852 3.852 0 1016.421.37a3.852 3.852 0 00-.016 7.704zM8.357 19.881a3.853 3.853 0 10-7.706 0 3.853 3.853 0 007.706 0z" fill="#fff"/><path d="M25.172 25.574a7.4 7.4 0 010-10.434 3.853 3.853 0 10-5.46 0 7.378 7.378 0 010 10.48 3.853 3.853 0 105.46 0v-.046zm-11.09 2.246a3.899 3.899 0 00-1.108-2.706 7.4 7.4 0 010-10.434 3.852 3.852 0 10-5.458 0 7.378 7.378 0 010 10.473 3.852 3.852 0 106.597 2.706l-.031-.04z" fill="#fff"/></svg>