<svg width="23" height="23" fill="none" xmlns="http://www.w3.org/2000/svg"><path d="M22.384 6.507a7.95 7.95 0 00-.512-2.702A5.621 5.621 0 0018.656.593a8.083 8.083 0 00-2.67-.512C14.81.03 14.436.014 11.453.014s-3.366 0-4.533.067a8.082 8.082 0 00-2.669.512 5.63 5.63 0 00-3.217 3.212A7.982 7.982 0 00.523 6.47C.471 7.644.455 8.016.455 10.995c0 2.978 0 3.358.068 4.524.019.913.191 1.813.512 2.668a5.622 5.622 0 003.218 3.21 8.055 8.055 0 002.67.549c1.176.052 1.549.068 4.532.068s3.366 0 4.533-.068a8.06 8.06 0 002.67-.511 5.64 5.64 0 003.217-3.212 8.023 8.023 0 00.512-2.667c.052-1.173.068-1.545.068-4.525-.002-2.978-.002-3.356-.07-4.524zm-10.938 10.12A5.642 5.642 0 015.8 10.988a5.642 5.642 0 015.647-5.638c1.498 0 2.935.594 3.994 1.651a5.634 5.634 0 010 7.974 5.653 5.653 0 01-3.993 1.652zm5.873-10.17a1.314 1.314 0 11.503-2.53 1.316 1.316 0 01.813 1.214c0 .727-.589 1.315-1.316 1.315z" fill="#1A1919"/><path d="M11.455 15.014a4 4 0 100-8 4 4 0 000 8z" fill="#1A1919"/></svg>