<svg width="55" height="51" fill="none" xmlns="http://www.w3.org/2000/svg"><path d="M8.68 18.67c.458-.014.913.086 1.324.29l3.939 2.278a3.14 3.14 0 011.325 2.287v4.538a3.158 3.158 0 01-1.325 2.287l-3.939 2.277c-.412.2-.867.297-1.325.282a2.722 2.722 0 01-1.316-.282L3.415 30.35a3.159 3.159 0 01-1.325-2.287v-4.538a3.14 3.14 0 011.325-2.287l3.948-2.278c.408-.206.86-.305 1.316-.29zm0-1.816a4.537 4.537 0 00-2.224.536l-3.948 2.305a4.946 4.946 0 00-2.233 3.857v4.538a4.947 4.947 0 002.233 3.857l3.948 2.278c.684.362 1.45.543 2.223.526a4.583 4.583 0 002.233-.526l3.938-2.278a4.946 4.946 0 002.233-3.857v-4.538a4.945 4.945 0 00-2.232-3.857l-3.94-2.278a4.59 4.59 0 00-2.232-.535v-.027zm18.503 1.816a2.77 2.77 0 011.316.29l3.948 2.278a3.159 3.159 0 011.316 2.287v4.538a3.178 3.178 0 01-1.316 2.287l-3.948 2.278c-.409.2-.86.297-1.316.281a2.812 2.812 0 01-1.325-.281L21.91 30.35a3.177 3.177 0 01-1.316-2.287v-4.538a3.159 3.159 0 011.316-2.287l3.948-2.278a2.805 2.805 0 011.325-.29zm0-1.815a4.593 4.593 0 00-2.232.535l-3.948 2.305a4.937 4.937 0 00-2.224 3.857v4.538a4.939 4.939 0 002.224 3.857l3.948 2.278a4.584 4.584 0 002.232.526 4.538 4.538 0 002.224-.526l3.947-2.278a4.937 4.937 0 002.224-3.857v-4.538a4.935 4.935 0 00-2.224-3.857l-3.947-2.278a4.539 4.539 0 00-2.224-.535v-.027zM45.68 18.67c.458-.014.913.086 1.324.29l3.939 2.278a3.14 3.14 0 011.325 2.287v4.538a3.158 3.158 0 01-1.325 2.287l-3.939 2.277c-.412.2-.867.297-1.325.282a2.722 2.722 0 01-1.316-.282l-3.947-2.277a3.157 3.157 0 01-1.325-2.287v-4.538a3.14 3.14 0 011.325-2.287l3.947-2.278c.408-.206.86-.305 1.316-.29zm0-1.816a4.538 4.538 0 00-2.224.536l-3.948 2.305a4.947 4.947 0 00-2.233 3.857v4.538a4.947 4.947 0 002.233 3.857l3.948 2.278c.684.362 1.45.543 2.223.526a4.583 4.583 0 002.233-.526l3.938-2.278a4.947 4.947 0 002.233-3.857v-4.538a4.946 4.946 0 00-2.233-3.857l-3.938-2.278a4.59 4.59 0 00-2.233-.535v-.027zM17.927 34.833a2.79 2.79 0 011.334.29l3.948 2.278a3.158 3.158 0 011.316 2.287v4.538a3.195 3.195 0 01-1.316 2.287L19.26 48.81a3.241 3.241 0 01-2.641 0l-3.948-2.278a3.193 3.193 0 01-1.316-2.287v-4.537a3.157 3.157 0 011.316-2.287l3.948-2.278c.408-.204.86-.304 1.316-.29l-.01-.019zm.009-1.797a4.537 4.537 0 00-2.224.527l-3.947 2.277a4.956 4.956 0 00-2.224 3.867v4.537a4.947 4.947 0 002.223 3.857l3.948 2.278c.684.362 1.45.544 2.224.527a4.584 4.584 0 002.232-.527l3.948-2.278a4.946 4.946 0 002.224-3.857v-4.537a4.956 4.956 0 00-2.224-3.867l-3.948-2.296a4.584 4.584 0 00-2.232-.526v.018zm18.495 1.797c.456-.015.909.085 1.316.29l3.948 2.278a3.142 3.142 0 011.325 2.287v4.538a3.176 3.176 0 01-1.325 2.287l-3.948 2.278a2.86 2.86 0 01-1.316.281 2.93 2.93 0 01-1.325-.281l-3.939-2.278a3.175 3.175 0 01-1.325-2.287v-4.538a3.14 3.14 0 011.326-2.287l3.938-2.278a2.802 2.802 0 011.325-.29zm0-1.815a4.583 4.583 0 00-2.232.526l-3.94 2.278a4.963 4.963 0 00-2.232 3.866v4.538a4.956 4.956 0 002.233 3.857l3.939 2.278a4.581 4.581 0 002.232.526 4.537 4.537 0 002.224-.526l3.947-2.278a4.955 4.955 0 002.233-3.857v-4.538a4.965 4.965 0 00-2.233-3.866l-3.947-2.278a4.538 4.538 0 00-2.224-.526zM17.928 2.506c.459-.013.914.086 1.325.29l3.948 2.279a3.16 3.16 0 011.316 2.287v4.537a3.177 3.177 0 01-1.316 2.287l-3.939 2.297a3.24 3.24 0 01-2.64 0l-3.958-2.233a3.175 3.175 0 01-1.316-2.287V7.425a3.16 3.16 0 011.316-2.287l3.948-2.278c.408-.203.86-.303 1.316-.29v-.064zm0-1.751a4.537 4.537 0 00-2.224.535l-3.947 2.278a4.938 4.938 0 00-2.224 3.857v4.538a4.937 4.937 0 002.224 3.857l3.947 2.278c.685.362 1.45.543 2.224.526a4.583 4.583 0 002.232-.526l3.948-2.278a4.939 4.939 0 002.224-3.857V7.425a4.936 4.936 0 00-2.224-3.857L20.17 1.227A4.593 4.593 0 0017.937.69l-.009.064zm18.503 1.751c.456-.015.909.085 1.316.29l3.948 2.279a3.142 3.142 0 011.325 2.287v4.537a3.156 3.156 0 01-1.325 2.287l-3.948 2.278c-.408.203-.86.3-1.316.282a2.814 2.814 0 01-1.325-.282l-3.939-2.214a3.158 3.158 0 01-1.325-2.287V7.425a3.14 3.14 0 011.326-2.287l3.938-2.278a2.805 2.805 0 011.325-.29v-.064zm0-1.751a4.591 4.591 0 00-2.232.535l-3.94 2.278a4.946 4.946 0 00-2.232 3.857v4.538a4.946 4.946 0 002.233 3.857l3.939 2.278a4.581 4.581 0 002.232.526 4.537 4.537 0 002.224-.526l3.947-2.278a4.947 4.947 0 002.233-3.857V7.425a4.947 4.947 0 00-2.233-3.857L38.655 1.29A4.538 4.538 0 0036.43.755z" fill="#fff"/></svg>