<svg width="70" height="66" fill="none" xmlns="http://www.w3.org/2000/svg"><path d="M10.846 23.807a3.596 3.596 0 011.699.372l5.05 2.922a4.026 4.026 0 011.7 2.932v5.819a4.051 4.051 0 01-1.7 2.933l-5.05 2.92a3.608 3.608 0 01-1.7.362 3.491 3.491 0 01-1.687-.361l-5.062-2.921a4.05 4.05 0 01-1.7-2.933v-5.819a4.027 4.027 0 011.7-2.933l5.062-2.92a3.491 3.491 0 011.688-.373zm0-2.327a5.818 5.818 0 00-2.851.686l-5.063 2.956A6.343 6.343 0 00.07 30.068v5.819a6.343 6.343 0 002.863 4.946l5.063 2.921a5.819 5.819 0 002.85.675 5.877 5.877 0 002.864-.675l5.05-2.921a6.343 6.343 0 002.863-4.946v-5.819a6.342 6.342 0 00-2.863-4.946l-5.05-2.921a5.889 5.889 0 00-2.863-.687v-.034zm23.729 2.327a3.55 3.55 0 011.688.372l5.062 2.921a4.05 4.05 0 011.688 2.933v5.819a4.074 4.074 0 01-1.688 2.933l-5.062 2.92a3.56 3.56 0 01-1.688.361 3.607 3.607 0 01-1.699-.36l-5.062-2.921a4.073 4.073 0 01-1.688-2.933v-5.819a4.05 4.05 0 011.688-2.933l5.062-2.92a3.596 3.596 0 011.7-.373zm0-2.328a5.89 5.89 0 00-2.863.687l-5.062 2.956a6.331 6.331 0 00-2.851 4.946v5.819a6.332 6.332 0 002.85 4.946l5.063 2.921a5.877 5.877 0 002.863.675 5.819 5.819 0 002.851-.675l5.063-2.921a6.33 6.33 0 002.851-4.946v-5.819a6.33 6.33 0 00-2.851-4.946l-5.063-2.921a5.82 5.82 0 00-2.85-.687v-.035zm23.718 2.328a3.596 3.596 0 011.699.372l5.05 2.922a4.026 4.026 0 011.7 2.932v5.819a4.05 4.05 0 01-1.7 2.933l-5.05 2.92a3.608 3.608 0 01-1.7.362 3.49 3.49 0 01-1.687-.361l-5.062-2.921a4.05 4.05 0 01-1.699-2.933v-5.819a4.027 4.027 0 011.7-2.933l5.062-2.92a3.491 3.491 0 011.687-.373zm0-2.327a5.819 5.819 0 00-2.851.686l-5.063 2.956a6.343 6.343 0 00-2.863 4.946v5.819a6.343 6.343 0 002.863 4.946l5.063 2.921a5.819 5.819 0 002.85.675 5.876 5.876 0 002.864-.675l5.05-2.921a6.344 6.344 0 002.863-4.946v-5.819a6.343 6.343 0 00-2.862-4.946l-5.051-2.921a5.888 5.888 0 00-2.863-.687v-.034zM22.705 44.534c.592-.02 1.18.108 1.71.372l5.063 2.921a4.05 4.05 0 011.687 2.933v5.819a4.097 4.097 0 01-1.687 2.933l-5.063 2.944a4.155 4.155 0 01-3.386 0l-5.063-2.921a4.096 4.096 0 01-1.687-2.933v-5.819a4.051 4.051 0 011.687-2.932l5.063-2.921a3.55 3.55 0 011.687-.373l-.011-.023zm.011-2.304a5.82 5.82 0 00-2.851.675l-5.062 2.92a6.355 6.355 0 00-2.852 4.958v5.82a6.344 6.344 0 002.852 4.945l5.062 2.921a5.82 5.82 0 002.851.675 5.877 5.877 0 002.863-.675l5.063-2.92a6.343 6.343 0 002.85-4.947v-5.819a6.355 6.355 0 00-2.85-4.957l-5.063-2.945a5.877 5.877 0 00-2.863-.675v.024zm23.718 2.303a3.491 3.491 0 011.688.373l5.062 2.921a4.027 4.027 0 011.699 2.933v5.819a4.072 4.072 0 01-1.7 2.932l-5.062 2.921a3.665 3.665 0 01-1.687.361 3.757 3.757 0 01-1.699-.36l-5.05-2.922a4.073 4.073 0 01-1.7-2.932v-5.82a4.027 4.027 0 011.7-2.932l5.05-2.921a3.595 3.595 0 011.699-.373zm0-2.327a5.877 5.877 0 00-2.863.675l-5.05 2.921a6.366 6.366 0 00-2.864 4.958v5.819a6.354 6.354 0 002.863 4.946l5.051 2.92a5.876 5.876 0 002.863.676 5.82 5.82 0 002.851-.675l5.063-2.921a6.355 6.355 0 002.863-4.946v-5.82a6.367 6.367 0 00-2.863-4.957l-5.063-2.921a5.82 5.82 0 00-2.851-.675zM22.705 3.08a3.573 3.573 0 011.699.373l5.062 2.92a4.05 4.05 0 011.688 2.934v5.818a4.073 4.073 0 01-1.688 2.933l-5.05 2.944a4.155 4.155 0 01-3.387 0l-5.074-2.862a4.072 4.072 0 01-1.688-2.933v-5.82a4.05 4.05 0 011.688-2.932l5.062-2.92a3.55 3.55 0 011.688-.373V3.08zm0-2.246a5.818 5.818 0 00-2.851.687L14.79 4.44a6.33 6.33 0 00-2.851 4.947v5.819a6.33 6.33 0 002.851 4.946l5.063 2.92a5.819 5.819 0 002.85.676 5.878 5.878 0 002.864-.675l5.062-2.921a6.331 6.331 0 002.851-4.946v-5.82a6.331 6.331 0 00-2.85-4.945l-5.052-3.003a5.89 5.89 0 00-2.863-.686l-.011.081zM46.434 3.08a3.49 3.49 0 011.688.373l5.062 2.92a4.027 4.027 0 011.699 2.933v5.82a4.05 4.05 0 01-1.7 2.932l-5.062 2.92a3.491 3.491 0 01-1.687.362 3.608 3.608 0 01-1.699-.361l-5.05-2.84a4.05 4.05 0 01-1.7-2.932v-5.82a4.027 4.027 0 011.7-2.932l5.05-2.921a3.597 3.597 0 011.699-.372V3.08zm0-2.246a5.888 5.888 0 00-2.863.687l-5.05 2.92a6.344 6.344 0 00-2.864 4.947v5.819a6.342 6.342 0 002.863 4.946l5.051 2.92a5.875 5.875 0 002.863.676 5.818 5.818 0 002.851-.675l5.063-2.921a6.345 6.345 0 002.863-4.946v-5.82a6.342 6.342 0 00-2.863-4.945L49.285 1.52a5.819 5.819 0 00-2.851-.687z" fill="#fff"/></svg>