<svg width="479" height="428" fill="none" xmlns="http://www.w3.org/2000/svg"><g clip-path="url(#clip0)"><path d="M18.16 385.406L.035 314.041h9.776l8.489 36.088c2.129 8.889 4.038 17.787 5.308 24.659h.22c1.165-7.09 3.39-15.551 5.834-24.763l9.522-35.984h9.636l8.707 36.193c2.024 8.47 3.934 16.94 4.994 24.449h.21c1.49-7.858 3.504-15.769 5.738-24.658l9.478-35.984h9.444L67.11 385.38h-9.636l-9.023-37.154a215.665 215.665 0 01-4.678-23.288h-.21a221.57 221.57 0 01-5.519 23.288L27.848 385.38l-9.688.026zm85.48-65.628c.105 3.178-2.225 5.719-5.948 5.719a5.568 5.568 0 01-5.246-3.53 5.526 5.526 0 01-.378-2.189 5.659 5.659 0 011.666-4.164 5.705 5.705 0 014.177-1.661 5.556 5.556 0 014.152 1.655 5.519 5.519 0 011.577 4.17zm-10.407 65.628v-51.23h9.347v51.23h-9.347zm23.784-37.363c0-5.292-.105-9.606-.42-13.867h8.278l.534 8.461h.211c2.549-4.863 8.497-9.605 16.994-9.605 7.113 0 18.151 4.235 18.151 21.83v30.561h-9.338v-29.548c0-8.26-3.084-15.141-11.896-15.141a13.733 13.733 0 00-9.399 4.27 13.64 13.64 0 00-3.742 9.596v30.806h-9.373v-37.363zm63.08 13.438c.211 12.6 8.279 17.778 17.626 17.778 6.684 0 10.722-1.161 14.226-2.62l1.594 6.671c-3.293 1.485-8.917 3.179-17.099 3.179-15.821 0-25.273-10.374-25.273-25.829s9.137-27.628 24.108-27.628c16.775 0 21.234 14.714 21.234 24.135a35.411 35.411 0 01-.315 4.366l-36.101-.052zm27.393-6.671c.105-5.92-2.444-15.133-12.956-15.133-9.452 0-13.587 8.68-14.331 15.133h27.287zm41.33-40.769h9.233v63.611h30.582v7.728H248.82v-71.339zm93.733 45.327c0 18.939-13.14 27.199-25.588 27.199-13.911 0-24.633-10.163-24.633-26.352 0-17.15 11.257-27.209 25.483-27.209 14.761 0 24.738 10.723 24.738 26.362zm-40.769.524c0 11.22 6.474 19.69 15.602 19.69 8.926 0 15.61-8.365 15.61-19.9 0-8.679-4.38-19.69-15.391-19.69-11.012 0-15.821 10.164-15.821 19.9zm54.365-25.716l10.056 28.763a130.865 130.865 0 014.144 13.098h.324c1.165-4.235 2.628-8.47 4.38-13.098l9.978-28.815h9.767l-20.148 51.23h-8.944l-19.544-51.23 9.987.052zm50.545 27.305c.21 12.6 8.278 17.778 17.625 17.778 6.693 0 10.723-1.161 14.227-2.62l1.594 6.671c-3.294 1.485-8.918 3.179-17.1 3.179-15.82 0-25.264-10.374-25.264-25.829s9.128-27.628 24.099-27.628c16.776 0 21.235 14.714 21.235 24.135a35.412 35.412 0 01-.316 4.366l-36.1-.052zm27.393-6.671c.105-5.92-2.444-15.133-12.956-15.133-9.452 0-13.587 8.68-14.332 15.133h27.288zm19.536-4.654c0-6.034-.105-11.221-.421-15.98h8.173l.324 10.051h.421c2.339-6.881 7.963-11.221 14.226-11.221a10.21 10.21 0 012.628.323v8.785a14.101 14.101 0 00-3.18-.323c-6.587 0-11.256 4.977-12.527 11.962a25.48 25.48 0 00-.429 4.366v27.313h-9.215v-35.276z" fill="#8B0304"/><path d="M108.204 415.871h-4.082v-1.466h9.943v1.466h-4.109v11.911h-1.752v-11.911zm13.998 7.702l-1.393 4.209h-1.795l4.537-13.377h2.094l4.573 13.377h-1.849l-1.436-4.209h-4.731zm4.38-1.345l-1.314-3.851a29.074 29.074 0 01-.692-2.444h-.043a46.435 46.435 0 01-.675 2.418l-1.314 3.877h4.038zm21.498 4.96a12.542 12.542 0 01-4.118.733 6.32 6.32 0 01-5.026-1.772 6.283 6.283 0 01-1.868-4.977c0-3.991 2.768-6.907 7.271-6.907a8.495 8.495 0 013.346.611l-.42 1.415a7.031 7.031 0 00-2.97-.577c-3.267 0-5.396 2.026-5.396 5.379 0 3.353 2.05 5.405 5.177 5.405a5.803 5.803 0 002.313-.358v-3.99H143.7v-1.397h4.38v6.435zm8.647-12.783h1.752v11.927h5.729v1.45h-7.464l-.017-13.377zm17.099 0v13.377h-1.752v-13.377h1.752zm9.005 13.377v-13.377h1.883l4.31 6.767a39.112 39.112 0 012.409 4.366c-.157-1.747-.201-3.415-.201-5.501v-5.598h1.638v13.378h-1.752l-4.266-6.785a42.002 42.002 0 01-2.505-4.471h-.062c.097 1.685.14 3.292.14 5.519v5.71l-1.594-.008zm26.018-6.27h-5.256v4.82h5.808v1.45h-7.543v-13.377h7.245v1.449h-5.51v4.226h5.256v1.432zm29.232 5.676a12.533 12.533 0 01-4.126.733 6.306 6.306 0 01-5.027-1.769 6.253 6.253 0 01-1.858-4.98c0-3.991 2.768-6.907 7.262-6.907a8.46 8.46 0 013.346.611l-.412 1.415a7.027 7.027 0 00-2.969-.577c-3.268 0-5.396 2.026-5.396 5.379 0 3.353 2.049 5.405 5.177 5.405a5.836 5.836 0 002.312-.358v-3.99h-2.733v-1.397h4.38l.044 6.435zm20.086-6.235c0 4.611-2.812 7.047-6.237 7.047-3.425 0-6.027-2.733-6.027-6.785 0-4.252 2.628-6.985 6.229-6.985 3.6 0 6.035 2.759 6.035 6.723zm-10.415.219c0 2.864 1.55 5.422 4.283 5.422 2.733 0 4.302-2.523 4.302-5.562 0-2.62-1.393-5.44-4.284-5.44s-4.301 2.646-4.301 5.58zm25.597.34h-5.256v4.82h5.817v1.45h-7.552v-13.377h7.254v1.449h-5.519v4.226h5.256v1.432zm8.568 4.165a6.146 6.146 0 003.109.874c1.752 0 2.804-.926 2.804-2.279 0-1.354-.719-1.965-2.523-2.62-2.199-.768-3.504-1.904-3.504-3.79 0-2.087 1.752-3.632 4.336-3.632a6.071 6.071 0 012.97.655l-.474 1.406a5.427 5.427 0 00-2.549-.629c-1.839 0-2.531 1.091-2.531 1.999 0 1.249.814 1.869 2.628 2.62 2.269.873 3.425 1.965 3.425 3.929 0 1.965-1.533 3.851-4.704 3.851a6.904 6.904 0 01-3.425-.873l.438-1.511zm27.952-11.272v5.597h6.491v-5.597h1.752v13.377h-1.752v-6.27h-6.491v6.27h-1.752v-13.377h1.752zm24.178 7.107h-5.256v4.82h5.878v1.45h-7.551v-13.377h7.254v1.449h-5.519v4.226h5.256l-.062 1.432zm8.813-6.933a18.571 18.571 0 013.329-.271c1.849 0 3.049.332 3.881 1.092a3.336 3.336 0 011.06 2.541 3.481 3.481 0 01-.686 2.134 3.503 3.503 0 01-1.846 1.28v.087c1.034.358 1.656 1.319 1.971 2.707.234 1.251.58 2.478 1.034 3.668h-1.752a16.959 16.959 0 01-.876-3.196c-.394-1.843-1.113-2.541-2.689-2.62h-1.63v5.798h-1.752l-.044-13.22zm1.752 6.112h1.752c1.857 0 3.031-1.013 3.031-2.541 0-1.746-1.252-2.479-3.092-2.497a7.204 7.204 0 00-1.708.157l.017 4.881zm21.883.821h-5.256v4.82h5.843v1.45h-7.534v-13.377h7.244v1.449h-5.51v4.226h5.256l-.043 1.432z" fill="#939598"/><path d="M221.665 0a8.645 8.645 0 00-3.734.834 8.614 8.614 0 00-3.003 2.362c-2.996 3.71-5.808 7.859-8.234 11.351-3.356 4.82-8.901 16.145-12.072 23.83-1.62 3.938-12.562 34.455-19.64 75.722-1.752 10.138-1.349 15.455 1.516 20.336 3.031 5.17 8.541 11.064 15.934 17.045 6.36 5.152 14.349 10.111 20.148 13.726l2.182 1.354c5.588 3.493 10.407 6.488 23.564 6.488h1.305c13.14 0 17.985-3.004 23.574-6.488l2.172-1.354c5.834-3.615 13.824-8.574 20.148-13.726 7.403-5.99 12.913-11.884 15.935-17.045 2.864-4.881 3.259-10.198 1.524-20.336a494.585 494.585 0 00-4.494-22.877 18.504 18.504 0 00-4.377-8.58 18.598 18.598 0 00-8.106-5.234 48.475 48.475 0 00-14.235-2.21c-22.522 0-37.379 17.22-38.86 27.943a32.095 32.095 0 0111.461-11.31 32.218 32.218 0 0115.529-4.338 22.27 22.27 0 018.63 1.52 22.213 22.213 0 017.366 4.732 23.036 23.036 0 016.073 10.498 22.985 22.985 0 01-.107 12.118 22.467 22.467 0 01-3.031 6.496c-8.655 15.988-49.057 27.811-49.057 27.811s-28.268-31.208-27.226-49.344c-.105-2.331 1.27-19.157 17.809-23.261a24.057 24.057 0 015.467-.603c4.327 0 9.732 1.083 13.289 5.24 7.174-11.824-.876-24.45-13.298-24.45-7.823 0-17.363 5.056-25.834 18.573-5.256-33.723 14.314-50.138 27.411-61.481a8.683 8.683 0 002.823-4.437 8.653 8.653 0 00-.259-5.249 8.687 8.687 0 00-3.246-4.14A8.736 8.736 0 00221.665 0zm21.427 34.814a9.112 9.112 0 01-1.545 5.074 9.159 9.159 0 01-4.112 3.364 9.19 9.19 0 01-9.986-1.98 9.122 9.122 0 01-2.507-4.676 9.107 9.107 0 01.521-5.277 9.143 9.143 0 013.375-4.1 9.184 9.184 0 015.091-1.539 9.175 9.175 0 016.45 2.69 9.12 9.12 0 012.669 6.444h.044zm-22.505 12.905a5.7 5.7 0 01-.961 3.176 5.743 5.743 0 01-8.816.875 5.7 5.7 0 01.864-8.79 5.74 5.74 0 017.232.707 5.7 5.7 0 011.681 4.032z" fill="#B11116"/><path d="M316.458 117.024c-8.576-47.64-23.486-79.241-23.486-79.241s-3.968-1.537-4.538-1.633c1.752 3.947 12.825 35.058 20.026 76.997 1.918 11.194 1.463 17.804-2.199 24.048-3.662 6.243-9.89 12.608-17.222 18.537-7.332 5.929-16.425 11.43-22.592 15.272-6.168 3.842-11.975 7.632-27.472 7.527-15.497.105-21.269-3.658-27.48-7.527-6.211-3.868-15.234-9.334-22.593-15.272-7.358-5.937-13.551-12.294-17.222-18.537-3.67-6.244-4.117-12.854-2.199-24.048 7.201-41.913 18.309-73.05 20.026-76.997-.561.096-4.538 1.633-4.538 1.633s-14.892 31.6-23.486 79.241c-2.067 11.5-1.287 18.337 2.523 24.755 3.811 6.418 10.293 12.224 17.915 18.337 7.621 6.112 18.72 12.809 27.48 17.952 8.76 5.143 23.582 12.487 23.582 46.663v20.747a30.016 30.016 0 01-7.775 20.214 30.197 30.197 0 01-19.381 9.771c-15.768 1.537-26.184 4.131-26.184 7.064 0 4.707 26.569 8.523 59.35 8.523 32.78 0 59.349-3.816 59.349-8.523 0-2.933-10.39-5.527-26.193-7.064a30.193 30.193 0 01-19.383-9.768 30.01 30.01 0 01-7.773-20.217v-20.747c0-34.176 14.813-41.528 23.582-46.663 8.769-5.134 19.815-11.884 27.437-17.987 7.621-6.104 14.103-11.884 17.914-18.337 3.811-6.453 4.608-13.22 2.532-24.72z" fill="#6B7B84"/></g><defs><clipPath id="clip0"><path fill="#fff" d="M0 0h479v428H0z"/></clipPath></defs></svg>