<svg width="500" height="187" fill="none" xmlns="http://www.w3.org/2000/svg"><g clip-path="url(#clip0)"><path d="M138.149 122.071l-14.242-56.227h7.669l6.69 28.454c1.665 7.008 3.166 14.024 4.164 19.444h.17c.914-5.59 2.663-12.266 4.569-19.53l7.473-28.368h7.584l6.827 28.539c1.586 6.675 3.087 13.35 3.916 19.274h.17c1.168-6.172 2.748-12.423 4.497-19.444l7.414-28.369h7.389l-15.913 56.227h-7.551l-7.082-29.297a169.826 169.826 0 01-3.668-18.358h-.163a176.88 176.88 0 01-4.334 18.358l-7.995 29.297h-7.584zm67.056-51.722c.085 2.504-1.749 4.505-4.66 4.505a4.355 4.355 0 01-4.122-2.778 4.393 4.393 0 01-.297-1.727 4.476 4.476 0 012.804-4.258 4.456 4.456 0 011.765-.319 4.339 4.339 0 013.262 1.292 4.35 4.35 0 011.248 3.285zm-8.159 51.722V81.679h7.33v40.392h-7.33zm18.661-29.421c0-4.171-.085-7.597-.34-10.931h6.527l.418 6.675h.15c2.004-3.838 6.67-7.597 13.334-7.597 5.58 0 14.242 3.34 14.242 17.195v24.079h-7.343V98.789c0-6.538-2.415-11.938-9.327-11.938-2.224.04-4.378.79-6.148 2.14a10.463 10.463 0 00-3.688 5.372 10.6 10.6 0 00-.496 3.42v24.288h-7.329v-29.42zm49.479 10.579c.163 9.931 6.527 14.017 13.83 14.017 5.222 0 8.414-.915 11.161-2.086l1.253 5.231c-2.61 1.17-7.003 2.504-13.412 2.504-12.401 0-19.829-8.179-19.829-20.359 0-12.18 7.18-21.785 18.928-21.785 13.165 0 16.663 11.605 16.663 19.032a27.53 27.53 0 01-.248 3.419l-28.346.027zm21.493-5.23c.085-4.675-1.912-11.933-10.162-11.933-7.415 0-10.665 6.84-11.246 11.932h21.408zm32.38-32.155h7.244v50.153h24.019v6.074h-31.263V65.844zm73.582 35.717c0 14.933-10.332 21.445-20.076 21.445-10.913 0-19.333-8.009-19.333-20.778 0-13.52 8.831-21.451 19.999-21.451 11.578 0 19.41 8.434 19.41 20.784zm-31.981.419c0 8.839 5.084 15.521 12.251 15.521 6.996 0 12.244-6.597 12.244-15.691 0-6.846-3.414-15.521-12.081-15.521-8.668 0-12.427 8.009-12.427 15.691h.013zm42.64-20.281l7.917 22.719a104.796 104.796 0 013.263 10.344h.248c.914-3.335 2.082-6.676 3.414-10.344l7.832-22.7h7.662l-15.84 40.353h-6.997l-15.331-40.392 7.832.02zm39.656 21.53c.164 9.931 6.495 14.017 13.824 14.017 5.222 0 8.42-.915 11.168-2.086l1.246 5.231c-2.611 1.17-6.997 2.504-13.412 2.504-12.401 0-19.829-8.179-19.829-20.359 0-12.18 7.18-21.785 18.928-21.785 13.158 0 16.663 11.605 16.663 19.032a27.158 27.158 0 01-.255 3.419l-28.333.027zm21.493-5.23c.078-4.675-1.919-11.933-10.169-11.933-7.414 0-10.658 6.84-11.245 11.932h21.414zm15.325-3.701c0-4.754-.085-8.846-.333-12.6h6.416l.248 7.925h.333c1.834-5.42 6.246-8.846 11.161-8.846a7.763 7.763 0 012.082.255v6.924a11.17 11.17 0 00-2.5-.249c-5.162 0-8.831 3.923-9.829 9.428a21.056 21.056 0 00-.333 3.426v21.51h-7.245V94.298z" fill="#8B0304"/><path d="M145.073 146.118h-3.198v-1.164h7.786v1.157h-3.211v9.382h-1.377v-9.375zm10.979 6.067l-1.09 3.315h-1.403l3.576-10.539h1.639l3.589 10.539h-1.449l-1.129-3.315h-3.733zm3.453-1.066l-1.032-3.033c-.235-.654-.391-1.308-.541-1.922h-.033a24.587 24.587 0 01-.535 1.909l-1.025 3.046h3.166zm16.871 3.917a9.944 9.944 0 01-3.263.575 4.928 4.928 0 01-5.103-3.193 4.947 4.947 0 01-.295-2.122c0-3.145 2.167-5.447 5.698-5.447a6.616 6.616 0 012.611.484l-.327 1.112a5.504 5.504 0 00-2.33-.451c-2.558 0-4.229 1.595-4.229 4.236 0 2.642 1.606 4.256 4.06 4.256a4.41 4.41 0 001.808-.281v-3.144h-2.135v-1.099h3.466l.039 5.074zm6.762-10.082h1.357v9.402h4.497v1.137h-5.874l.02-10.539zm13.419 0v10.539h-1.358v-10.539h1.358zm7.055 10.546v-10.546h1.488l3.375 5.335a29.389 29.389 0 011.886 3.426c-.124-1.406-.157-2.687-.157-4.335v-4.426h1.306v10.539h-1.371l-3.342-5.308a32.736 32.736 0 01-1.958-3.518h-.045c.078 1.308.111 2.615.111 4.348v4.505l-1.293-.02zm20.416-4.943h-4.092v3.805h4.569v1.138h-5.92v-10.546h5.685v1.138h-4.327v3.334h4.092l-.007 1.131zm22.928 4.479a9.855 9.855 0 01-3.23.575 4.948 4.948 0 01-5.105-3.194 4.974 4.974 0 01-.3-2.121c0-3.145 2.167-5.447 5.698-5.447a6.525 6.525 0 012.611.484l-.326 1.112a5.473 5.473 0 00-2.33-.451c-2.559 0-4.23 1.595-4.23 4.236 0 2.642 1.606 4.256 4.06 4.256a4.4 4.4 0 001.814-.281v-3.144h-2.14v-1.099h3.465l.013 5.074zm15.763-4.917c0 3.629-2.206 5.557-4.888 5.557-2.781 0-4.732-2.164-4.732-5.354 0-3.348 2.075-5.538 4.888-5.538 2.813 0 4.732 2.21 4.732 5.335zm-8.171.177c0 2.249 1.22 4.269 3.361 4.269s3.374-1.961 3.374-4.38c0-2.099-1.096-4.289-3.361-4.289s-3.374 2.079-3.374 4.4zm20.069.261h-4.092v3.805h4.569v1.138h-5.92v-10.546h5.685v1.138h-4.328v3.334h4.093l-.007 1.131zm6.736 3.289a4.83 4.83 0 002.435.686c1.39 0 2.206-.732 2.206-1.798 0-1.065-.568-1.549-1.958-2.098-1.717-.608-2.781-1.504-2.781-2.988 0-1.641 1.358-2.864 3.401-2.864a4.843 4.843 0 012.33.517l-.379 1.111a4.224 4.224 0 00-1.997-.497c-1.436 0-1.958.857-1.958 1.576 0 .987.653 1.471 2.095 2.033 1.782.693 2.683 1.55 2.683 3.099 0 1.55-1.201 3.034-3.681 3.034a5.39 5.39 0 01-2.689-.654l.293-1.157zm21.93-8.892v4.407h5.091v-4.407h1.371v10.539h-1.371v-4.942h-5.091v4.942h-1.357v-10.539h1.357zm18.96 5.603h-4.092v3.805h4.569v1.138h-5.92v-10.546h5.685v1.138h-4.328v3.334h4.093l-.007 1.131zm6.919-5.459a14.462 14.462 0 012.611-.216c1.449 0 2.389.262 3.041.857a2.61 2.61 0 01.829 2.007 2.766 2.766 0 01-1.958 2.687v.046c.816.281 1.306 1.033 1.547 2.131.183.986.456 1.954.816 2.89h-1.41a13.579 13.579 0 01-.698-2.517c-.314-1.452-.875-2.001-2.108-2.047h-1.306v4.577h-1.357l-.007-10.415zm1.358 4.805h1.39c1.455 0 2.376-.797 2.376-2.007 0-1.36-.986-1.961-2.422-1.961a5.837 5.837 0 00-1.344.124v3.844zm17.184.654h-4.092v3.805h4.569v1.138h-5.913v-10.546h5.684v1.138h-4.327v3.334h4.092l-.013 1.131z" fill="#939598"/><path d="M39.848 0a5.481 5.481 0 00-4.307 2.053c-1.92 2.386-3.714 5.034-5.261 7.277-2.147 3.099-5.692 10.369-7.721 15.312C21.52 27.172 14.53 46.779 10 73.29c-1.116 6.538-.861 9.931.973 13.076 1.958 3.321 5.456 7.107 10.188 10.951 4.066 3.315 9.137 6.499 12.904 8.82l1.39.869c3.57 2.236 6.657 4.172 15.07 4.172h.829c8.413 0 11.5-1.962 15.07-4.172l1.39-.869c3.734-2.321 8.844-5.505 12.904-8.82 4.732-3.844 8.256-7.63 10.188-10.951 1.834-3.132 2.089-6.538.98-13.076a313.243 313.243 0 00-2.879-14.697 11.92 11.92 0 00-2.802-5.525 11.89 11.89 0 00-5.193-3.367 31.073 31.073 0 00-9.099-1.412c-14.404 0-23.9 11.055-24.847 17.927a20.563 20.563 0 017.328-7.265 20.519 20.519 0 019.929-2.784 14.148 14.148 0 0110.22 4.014 14.82 14.82 0 013.818 14.534 14.392 14.392 0 01-1.957 4.172C70.87 89.165 45.017 96.755 45.017 96.755S26.938 76.71 27.604 65.053c-.059-1.497.816-12.31 11.39-14.946a15.349 15.349 0 013.491-.386c2.767 0 6.227.7 8.485 3.348 4.569-7.597-.594-15.691-8.485-15.691-5.006 0-11.095 3.269-16.52 11.932-3.367-21.667 9.138-32.213 17.525-39.503a5.579 5.579 0 001.587-6.184A5.575 5.575 0 0043.022.985 5.56 5.56 0 0039.829 0h.02zm13.706 22.366a5.891 5.891 0 01-3.626 5.437 5.865 5.865 0 01-6.401-1.276 5.888 5.888 0 014.153-10.045 5.869 5.869 0 014.15 1.726 5.89 5.89 0 011.718 4.159h.006zm-14.358 8.317a3.672 3.672 0 01-2.26 3.389 3.656 3.656 0 01-3.991-.796 3.67 3.67 0 012.589-6.261 3.658 3.658 0 012.58 1.079 3.67 3.67 0 011.069 2.589h.013z" fill="#B11116"/><path d="M100.482 75.187C94.993 44.577 85.471 24.27 85.471 24.27s-2.54-.98-2.898-1.046c1.103 2.537 8.197 22.523 12.799 49.473 1.233 7.192.94 11.435-1.403 15.45-2.344 4.014-6.325 8.1-11.011 11.912-4.686 3.811-10.502 7.342-14.444 9.807-3.942 2.464-7.656 4.903-17.564 4.831-9.907.072-13.595-2.347-17.57-4.831-3.975-2.485-9.757-6.002-14.444-9.807-4.686-3.806-8.667-7.898-11.01-11.913-2.343-4.014-2.611-8.257-1.404-15.449 4.602-26.95 11.703-46.936 12.806-49.473-.366.065-2.904 1.046-2.904 1.046S6.894 44.576 1.412 75.187C.107 82.575.59 86.955 3.024 91.087c2.435 4.132 6.58 7.846 11.455 11.769s11.944 8.257 17.544 11.559c5.6 3.302 15.077 8.022 15.077 29.983v13.325a19.339 19.339 0 01-4.97 12.989 19.277 19.277 0 01-12.392 6.278c-10.097.988-16.741 2.655-16.741 4.577 0 3.02 16.97 5.466 37.947 5.466 20.977 0 37.94-2.446 37.94-5.466 0-1.89-6.638-3.557-16.741-4.577a19.275 19.275 0 01-12.384-6.282 19.34 19.34 0 01-4.964-12.985v-13.325c0-21.961 9.47-26.681 15.077-29.983 5.606-3.302 12.668-7.636 17.544-11.559 4.875-3.923 9.013-7.63 11.454-11.768 2.441-4.14 2.937-8.513 1.612-15.9z" fill="#6B7B84"/></g><defs><clipPath id="clip0"><path fill="#fff" transform="translate(.688)" d="M0 0h499v187H0z"/></clipPath></defs></svg>