<svg width="616" height="231" fill="none" xmlns="http://www.w3.org/2000/svg"><g clip-path="url(#clip0)"><path d="M169.949 150.849l-17.55-69.17h9.44l8.22 35c2 8.62 3.9 17.24 5.13 23.92h.2c1.13-6.88 3.29-15.09 5.65-24l9.24-34.9h9.34l8.41 35.1c1.95 8.21 3.8 16.42 4.83 23.71h.2c1.44-7.59 3.39-15.29 5.55-23.91l9.13-34.9h9.14l-19.61 69.18h-9.34l-8.72-36a206.748 206.748 0 01-4.52-22.58h-.21a216.548 216.548 0 01-5.33 22.58l-9.86 36-9.34-.03zm82.63-63.64c.11 3.08-2.15 5.54-5.75 5.54a5.367 5.367 0 01-5.074-3.416 5.37 5.37 0 01-.366-2.124 5.517 5.517 0 011.612-4.038 5.518 5.518 0 014.038-1.612 5.361 5.361 0 015.54 5.65zm-10.06 63.64v-49.68h9v49.68h-9zm22.991-36.23c0-5.14-.1-9.35-.41-13.45h8l.51 8.21h.21a18.255 18.255 0 0116.42-9.34c6.88 0 17.55 4.11 17.55 21.14v29.67h-9v-28.64c0-8-3-14.68-11.49-14.68a12.835 12.835 0 00-12.12 9.24 12.982 12.982 0 00-.61 4.21v29.87h-9l-.06-36.23zm60.979 13.06c.2 12.22 8 17.25 17 17.25a32.61 32.61 0 0013.75-2.57l1.54 6.47c-3.18 1.43-8.62 3.08-16.53 3.08-15.29 0-24.43-10.06-24.43-25s8.83-26.79 23.3-26.79c16.22 0 20.53 14.27 20.53 23.4a34.875 34.875 0 01-.3 4.21l-34.86-.05zm26.53-6.5c.1-5.74-2.36-14.67-12.52-14.67-9.14 0-13.14 8.41-13.86 14.67h26.38zm39.88-39.5h8.93v61.69h29.56v7.49h-38.49v-69.18zm90.63 43.92c0 18.37-12.73 26.38-24.74 26.38-13.44 0-23.81-9.85-23.81-25.56 0-16.63 10.88-26.38 24.63-26.38 14.27 0 23.92 10.37 23.92 25.56zm-39.42.51c0 10.88 6.27 19.09 15.09 19.09 8.63 0 15.09-8.1 15.09-19.29 0-8.42-4.21-19.1-14.88-19.1-10.67 0-15.3 9.87-15.3 19.3zm52.561-24.94l9.75 27.92a126.714 126.714 0 014 12.73h.31c1.13-4.11 2.57-8.21 4.21-12.73l9.65-27.92h9.43l-19.5 49.68h-8.62l-18.88-49.68h9.65zm48.859 26.51c.2 12.22 8 17.25 17 17.25a32.578 32.578 0 0013.75-2.57l1.54 6.47c-3.18 1.43-8.62 3.08-16.52 3.08-15.3 0-24.43-10.06-24.43-25s8.82-26.79 23.3-26.79c16.22 0 20.53 14.27 20.53 23.4a34.484 34.484 0 01-.31 4.21l-34.86-.05zm26.49-6.5c.1-5.74-2.36-14.67-12.52-14.67-9.14 0-13.14 8.41-13.86 14.67h26.38zm18.88-4.5c0-5.85-.11-10.88-.41-15.5h7.9l.31 9.75h.41c2.26-6.67 7.7-10.88 13.75-10.88a9.597 9.597 0 012.57.31v8.52a13.283 13.283 0 00-3.08-.31c-6.36 0-10.88 4.82-12.11 11.6a24.978 24.978 0 00-.41 4.21v26.48h-8.93v-34.18zm-412.41 63.73h-4v-1.43h9.6v1.43h-4v11.54h-1.69l.09-11.54zm13.53 7.46l-1.35 4.08h-1.73l4.4-13h2l4.43 13h-1.75l-1.39-4.08h-4.61zm4.25-1.31l-1.27-3.73c-.29-.85-.48-1.62-.68-2.37-.2.77-.41 1.56-.66 2.35l-1.27 3.75h3.88zm20.751 4.81a12 12 0 01-4 .72 6.102 6.102 0 01-6.66-6.55c0-3.86 2.68-6.69 7-6.69a7.999 7.999 0 013.23.59l-.41 1.37a6.637 6.637 0 00-2.86-.56 4.84 4.84 0 00-2.062.284 4.839 4.839 0 00-2.875 2.874 4.857 4.857 0 00-.283 2.062c0 3.29 2 5.23 5 5.23a5.34 5.34 0 002.23-.35v-3.86h-2.64v-1.35h4.33v6.23zm8.37-12.39h1.63v11.57h5.54v1.4h-7.21l.04-12.97zm16.529 0v13h-1.67v-13h1.67zm8.7 12.97v-13h1.83l4.15 6.56a34.654 34.654 0 012.33 4.22c-.15-1.73-.19-3.31-.19-5.33v-5.43h1.58v13h-1.7l-4.11-6.58a38.762 38.762 0 01-2.43-4.33h-.06c.1 1.64.14 3.19.14 5.35v5.54h-1.54zm25.151-6.08h-5v4.68h5.62v1.4h-7.37v-13h7v1.41h-5.33v4.09h5l.08 1.42zm28.25 5.5a12 12 0 01-4 .72 6.102 6.102 0 01-6.66-6.55c0-3.86 2.68-6.69 7-6.69a7.999 7.999 0 013.23.59l-.401 1.37a6.718 6.718 0 00-2.869-.56 4.84 4.84 0 00-2.062.284 4.839 4.839 0 00-2.875 2.874 4.841 4.841 0 00-.283 2.062c0 3.29 2 5.23 5 5.23a5.34 5.34 0 002.23-.35v-3.86h-2.641v-1.35h4.331v6.23zm19.419-6.04c0 4.47-2.71 6.83-6 6.83s-5.83-2.65-5.83-6.58c0-4.12 2.56-6.81 6-6.81s5.83 2.71 5.83 6.56zm-10.06.21c0 2.77 1.5 5.26 4.14 5.26 2.64 0 4.15-2.45 4.15-5.39 0-2.58-1.34-5.27-4.13-5.27s-4.16 2.54-4.16 5.4zm24.731.33h-5v4.68h5.62v1.4h-7.3v-13h7v1.41h-5.33v4.09h5l.01 1.42zm8.299 4.04a5.937 5.937 0 003 .85c1.71 0 2.71-.91 2.71-2.21 0-1.3-.69-1.91-2.44-2.58-2.12-.75-3.43-1.85-3.43-3.68 0-2 1.68-3.52 4.2-3.52a5.817 5.817 0 012.86.64l-.46 1.36a5.17 5.17 0 00-2.46-.61c-1.77 0-2.44 1-2.44 1.94 0 1.21.78 1.81 2.57 2.5 2.2.85 3.31 1.91 3.31 3.81 0 1.9-1.48 3.73-4.54 3.73a6.757 6.757 0 01-3.31-.82l.43-1.41zm27.02-10.93v5.43h6.27v-5.43h1.69v13h-1.69v-6.08h-6.27v6.08h-1.68v-13h1.68zm23.36 6.89h-5v4.68h5.62v1.4h-7.29v-13h7v1.41h-5.33v4.09h5v1.42zm8.53-6.72a17.714 17.714 0 013.21-.26 5.29 5.29 0 013.75 1 3.223 3.223 0 011 2.47 3.409 3.409 0 01-2.44 3.31 3.244 3.244 0 011.91 2.62 20.263 20.263 0 001 3.56h-1.73a16.497 16.497 0 01-.86-3.1c-.39-1.79-1.08-2.46-2.6-2.52h-1.54v5.62h-1.7v-12.7zm1.67 5.91h1.71c1.79 0 2.93-1 2.93-2.46 0-1.67-1.21-2.41-3-2.42a6.808 6.808 0 00-1.66.15l.02 4.73zm21.17.81h-5v4.68h5.62v1.4h-7.29v-13h7v1.41h-5.37v4.09h5l.04 1.42z" fill="#fff"/><path d="M48.829.679a6.8 6.8 0 00-5.31 2.53c-2.36 2.93-4.57 6.19-6.48 9-2.65 3.81-7 12.76-9.51 18.83-1.28 3.11-9.9 27.23-15.48 59.85-1.37 8-1.06 12.21 1.2 16.07 2.39 4.08 6.73 8.74 12.55 13.47a161.823 161.823 0 0015.9 10.85l1.72 1.07c4.4 2.75 8.2 5.12 18.56 5.12h1c10.37 0 14.17-2.37 18.57-5.12l1.71-1.07a160.752 160.752 0 0015.9-10.85c5.83-4.73 10.17-9.39 12.56-13.47 2.25-3.86 2.56-8.06 1.2-16.07-1.1-6.39-2.3-12.45-3.55-18.09a14.63 14.63 0 00-9.85-10.93 38.169 38.169 0 00-11.21-1.74c-17.75 0-29.45 13.6-30.61 22.06a25.29 25.29 0 0121.32-12.42 17.479 17.479 0 0112.6 4.93 18.23 18.23 0 014.7 17.88 17.868 17.868 0 01-2.39 5.13c-6.82 12.64-38.68 22-38.68 22s-22.27-24.66-21.45-39c-.08-1.84 1-15.14 14-18.38 1.41-.329 2.853-.49 4.3-.48 3.42 0 7.68.86 10.48 4.12 5.64-9.34-.73-19.33-10.48-19.34-6.17 0-13.68 4-20.35 14.69-4.15-26.64 11.27-39.64 21.59-48.64a6.86 6.86 0 00-4.51-12zm16.88 27.51a7.22 7.22 0 110-.01v.01zm-17.69 10.22a4.51 4.51 0 11-9.02 0 4.51 4.51 0 019.02 0z" fill="#ED1C24"/><path d="M123.539 93.149c-6.76-37.65-18.5-62.62-18.5-62.62s-3.13-1.21-3.57-1.29c1.35 3.12 10.1 27.7 15.77 60.85 1.51 8.85 1.15 14.07-1.73 19s-7.8 10-13.57 14.65c-5.77 4.65-12.94 9-17.8 12.07-4.86 3.07-9.43 6-21.64 5.95-12.21.08-16.75-2.89-21.65-5.95-4.9-3.06-12-7.38-17.8-12.07-5.8-4.69-10.68-9.72-13.56-14.65-2.88-4.93-3.25-10.16-1.73-19 5.67-33.15 14.42-57.73 15.77-60.85-.44.08-3.57 1.29-3.57 1.29s-11.74 25-18.51 62.62c-1.63 9.09-1 14.49 2 19.57s8.11 9.64 14.11 14.47 14.72 10.15 21.62 14.21c6.9 4.06 18.58 9.87 18.58 36.88v16.4a23.772 23.772 0 01-21.38 23.71c-12.44 1.21-20.63 3.26-20.63 5.58 0 3.72 20.93 6.73 46.76 6.73s46.75-3 46.75-6.73c0-2.32-8.18-4.37-20.63-5.58a23.77 23.77 0 01-21.38-23.71v-16.4c0-27 11.67-32.82 18.57-36.88 6.9-4.06 15.62-9.39 21.62-14.21 6-4.82 11.11-9.39 14.11-14.47s3.62-10.48 1.99-19.57z" fill="#fff"/></g><defs><clipPath id="clip0"><path fill="#fff" transform="translate(.57 .669)" d="M0 0h614.86v230.02H0z"/></clipPath></defs></svg>