<svg width="35" height="35" fill="none" xmlns="http://www.w3.org/2000/svg"><path d="M17.435 34.473A16.882 16.882 0 01.624 17.525C.66 8.212 8.269.685 17.589.728c9.283.045 16.806 7.628 16.78 16.917a16.885 16.885 0 01-16.934 16.828zm4.35-8.068c2.093.03 3.367-.97 4.42-2.303.14-.18.032-.758-.16-.967-.934-1.02-1.927-1.986-2.915-2.954-.483-.474-.79-.458-1.297.033-.527.527-1.04 1.071-1.581 1.59-.65.627-1.348.69-2.083.172a21.379 21.379 0 01-5.009-4.914c-.517-.708-.455-1.45.152-2.088.527-.555 1.09-1.083 1.625-1.634.494-.51.5-.85.01-1.353-.69-.707-1.395-1.4-2.094-2.098-1.437-1.437-1.433-1.432-2.842.033-1.409 1.464-1.773 3.153-1.054 5.032 1.713 4.502 4.846 7.777 9.005 10.101 1.273.71 2.624 1.236 3.825 1.351l-.002-.001z" fill="#F8E4AE"/></svg>