<svg width="39" height="39" fill="none" xmlns="http://www.w3.org/2000/svg"><path d="M38.373 11.744a13.883 13.883 0 00-.894-4.718 9.815 9.815 0 00-5.616-5.607A14.111 14.111 0 0027.2.525C25.15.433 24.498.408 19.29.408c-5.21 0-5.877 0-7.914.117a14.11 14.11 0 00-4.66.894A9.828 9.828 0 001.1 7.026a13.935 13.935 0 00-.894 4.652c-.091 2.051-.12 2.7-.12 7.9s0 5.865.12 7.9c.032 1.593.333 3.164.894 4.657a9.815 9.815 0 005.618 5.605 14.1 14.1 0 004.66.958c2.054.091 2.705.12 7.914.12 5.208 0 5.876 0 7.913-.12a14.075 14.075 0 004.662-.892 9.844 9.844 0 005.616-5.607 14 14 0 00.894-4.657c.092-2.048.12-2.698.12-7.9-.005-5.2-.005-5.86-.124-7.898zM19.277 29.412c-5.448 0-9.86-4.406-9.86-9.844 0-5.439 4.412-9.844 9.86-9.844a9.869 9.869 0 016.972 2.883 9.836 9.836 0 010 13.922 9.869 9.869 0 01-6.972 2.883zM29.53 11.655a2.294 2.294 0 11-.002-4.59 2.302 2.302 0 012.124 1.417 2.295 2.295 0 01-2.122 3.173z" fill="#000"/><path d="M19.291 26.596a6.984 6.984 0 100-13.967 6.984 6.984 0 000 13.967z" fill="#000"/></svg>