<svg width="28" height="19" fill="none" xmlns="http://www.w3.org/2000/svg"><path d="M1.39.177c.409-.069.728-.17 1.048-.17 7.453-.01 14.906-.01 22.36 0 .32 0 .649.092 1.105.16-.214.224-.329.347-.447.466L14.52 11.51c-.657.651-1.114.658-1.756.019C9.105 7.892 5.447 4.252 1.79.61c-.11-.105-.21-.224-.4-.433z" fill="#000"/><path d="M9.713 10.725c.64.636 1.333 1.338 2.038 2.032 1.138 1.122 2.628 1.117 3.77-.008.704-.693 1.402-1.391 2.02-2.004l8.26 8.098c-.35.055-.673.15-.998.15-7.451.01-14.902.01-22.355 0-.32 0-.64-.098-1.017-.158l8.282-8.11zM.177 1.382l8.209 8.063-8.212 8.067C.13 17.278.01 16.95.01 16.623c-.013-4.749-.013-9.497 0-14.245-.001-.325.105-.648.167-.996zm26.91 16.246l-8.208-8.056 8.21-8.057c.042.207.162.53.163.855.012 4.749.012 9.497 0 14.245.002.319-.097.643-.165 1.013z" fill="#000"/></svg>