<svg width="19" height="20" fill="none" xmlns="http://www.w3.org/2000/svg"><path d="M3.285 1c.557 0 1.116-.007 1.67 0 .912.016 1.545.624 1.572 1.529.02 1.113.194 2.218.517 3.283.192.612.085 1.152-.332 1.66-.502.61-.967 1.252-1.428 1.894a.439.439 0 00-.03.38c1.14 2.193 2.82 3.854 5.007 5 .095.05.287.02.38-.047.66-.48 1.31-.97 1.954-1.474.446-.346.929-.453 1.46-.297a12.95 12.95 0 003.429.545c.884.02 1.497.665 1.507 1.555.012 1.125.012 2.25 0 3.375-.007.96-.66 1.613-1.623 1.59-5.827-.14-10.51-2.542-14.01-7.193C1.475 10.298.426 7.442.085 4.333A16.857 16.857 0 010 2.563c0-.892.646-1.538 1.542-1.557.581-.012 1.162-.005 1.743-.005z" fill="#000"/></svg>