<svg width="33" height="32" fill="none" xmlns="http://www.w3.org/2000/svg"><g clip-path="url(#clip0_303_2078)" fill="#fff"><path d="M22.353 23.242c.09.12.157.23.245.317 2.659 2.644 5.317 5.288 7.984 7.922.194.192.44.361.692.454.511.185 1.061-.034 1.369-.481.3-.438.295-1-.024-1.431a3.236 3.236 0 00-.336-.369c-2.63-2.613-5.262-5.225-7.895-7.835-.095-.095-.209-.173-.318-.262.327-.46.633-.864.91-1.288 1.49-2.28 2.188-4.794 2.122-7.508-.066-2.697-.909-5.148-2.507-7.322-1.976-2.693-4.599-4.427-7.87-5.133C13.89-.306 11.14 0 8.502 1.225 5.884 2.439 3.877 4.318 2.483 6.832 1.22 9.11.699 11.563.908 14.168c.15 1.895.69 3.67 1.604 5.336.308.563.84.842 1.386.726.836-.178 1.223-1.022.866-1.82-.351-.785-.748-1.564-.982-2.386-.818-2.885-.46-5.651 1.047-8.242 1.36-2.337 3.353-3.934 5.923-4.755 2.602-.831 5.177-.678 7.666.47 2.457 1.134 4.228 2.964 5.314 5.433.827 1.884 1.09 3.864.727 5.894-.679 3.797-2.8 6.53-6.324 8.062-3.01 1.308-6.04 1.158-8.994-.301-.259-.128-.526-.274-.804-.32a1.208 1.208 0 00-1.346.823c-.194.576.021 1.209.594 1.49.781.384 1.574.771 2.399 1.04 2.805.91 5.615.842 8.397-.124 1.155-.401 2.23-.97 3.223-1.688.226-.164.449-.335.746-.559l.003-.005z"/><path d="M15.238 11.88V8.525c0-.407-.122-.76-.439-1.024-.393-.328-.84-.405-1.312-.197-.484.214-.74.607-.747 1.131-.014 1.02-.005 2.04-.005 3.06v.385h-.347c-1.032 0-2.062-.008-3.093.005a1.24 1.24 0 00-1.23 1.037c-.102.55.204 1.132.735 1.343.197.078.424.109.637.111 1.083.012 2.166.005 3.297.005v.34c0 1.04-.009 2.081.006 3.122.009.613.437 1.091 1.03 1.205a1.224 1.224 0 001.347-.726c.079-.196.111-.424.114-.637.01-.979.005-1.958.005-2.936v-.367h.893c.813 0 1.624.002 2.437 0 .795-.004 1.351-.52 1.355-1.244.004-.726-.554-1.252-1.343-1.256-.988-.005-1.979 0-2.967 0h-.375l.002-.004z"/></g><defs><clipPath id="clip0_303_2078"><path fill="#fff" transform="matrix(-1 0 0 1 32.864 0)" d="M0 0h32v32H0z"/></clipPath></defs></svg>