<svg width="104" height="136" fill="none" xmlns="http://www.w3.org/2000/svg"><path d="M98.217 65.873v4.406c-.03 2.734.152 5.5-.151 8.204-.636 5.803-5.39 9.966-11.263 9.996-4.935.03-9.84 0-14.775 0H17.56c-6.721 0-11.656-4.953-11.656-11.698V65.843c30.76.03 61.461.03 92.313.03zm-5.056 4.892H10.809c0 2.036.03 3.98 0 5.955-.03 4.041 3.088 6.837 6.842 6.776 8.81-.121 17.621-.03 26.432-.03 14.35 0 28.702 0 43.053-.03 3.058 0 5.813-2.462 6.025-5.44.121-2.37 0-4.77 0-7.231z" fill="url(#paint0_linear_139_407)"/><path d="M103.606 46.792c-.696-1.033-2.028-1.307-3.118-.456-1.514 1.185-2.846 2.552-4.3 3.828-1.18 1.033-2.33 2.158-3.633 3.008-2.513 1.58-4.692 1.186-6.69-1.002-1.09-1.185-2.03-2.492-3.12-3.646-3.45-3.586-8.93-3.403-12.291.273-1 1.094-1.878 2.279-2.846 3.373-2.271 2.552-4.451 2.582-6.752.091-1.09-1.185-2.059-2.522-3.18-3.677a10.19 10.19 0 00-2.785-2.066 6.612 6.612 0 00-5.57 0c-1 .456-1.938 1.155-2.786 2.066-1.12 1.155-2.059 2.492-3.179 3.677-2.301 2.491-4.48 2.461-6.752-.091-.968-1.094-1.846-2.279-2.846-3.373-3.36-3.676-8.84-3.889-12.292-.273-1.12 1.154-2.059 2.46-3.118 3.646-1.999 2.188-4.179 2.582-6.691 1.002-1.333-.82-2.453-1.974-3.634-3.008a64.362 64.362 0 01-1.483-1.367c-.818-.76-1.302-1.337-1.605-1.732-.394-.516-.575-1.215-.394-1.853.273-.881 1.181-1.762 3.664-1.823h1.362-.575 1.847l15.41.121v.03h71.786c.061-.09.152-.151.152-.212.03-.273.06-.547.06-.82.212-11.334-3.814-20.966-11.838-28.896C78.295 5.591 68.395 1.246 57.132.182 43.538-1.003 31.215 2.31 20.588 11.03 13.412 16.924 8.69 24.247 6.782 33.057c-.333 1.52.817 2.978 2.362 2.978h.06c1.15 0 2.12-.82 2.392-1.945.06-.334.151-.638.242-.972 2.422-9.115 7.902-16.013 15.683-21.117 8.054-5.257 16.986-7.566 26.523-7.05 13.776.73 25.28 6.138 33.425 17.684 3.21 4.558 5.026 9.662 5.631 15.223.03.212 0 .456 0 .73H10.81c-.424 0-.848 0-1.242.03-.09 0-.212 0-.333.03-.333.03-.635.03-.938.06-.06 0-.121 0-.182.031-7.085.699-8.235 4.163-7.993 6.897.151 1.763.908 3.403 2.059 4.74a45.12 45.12 0 001.726 1.884c.09.06.151.152.242.213 1.635 1.397 3.088 3.038 4.874 4.223 3.452 2.34 8.841 3.1 12.777-1.853.818-1.033 1.635-2.066 2.543-3.008a4.355 4.355 0 016.358.03c1 1.063 1.847 2.248 2.816 3.312 4.027 4.497 9.265 4.436 13.231-.152.848-1.003 1.635-2.036 2.513-3.008.605-.669 1.211-1.155 1.817-1.489a2.302 2.302 0 012.089 0c.605.304 1.21.79 1.816 1.489.878.972 1.666 2.036 2.513 3.008 3.966 4.588 9.204 4.649 13.231.152.969-1.094 1.847-2.249 2.816-3.312a4.355 4.355 0 016.358-.03c.908.942 1.726 1.975 2.543 3.008 3.906 4.952 9.295 4.193 12.777 1.853 1.665-1.124 3.088-2.643 4.602-4.01 1.06-.942 2.089-1.915 3.179-2.826 1.029-.912 1.302-2.036.605-3.07z" fill="url(#paint1_linear_139_407)"/><path d="M100.791 64.658H3.301c-1.121 0-2.06-1.124-2.06-2.492 0-1.367.909-2.491 2.06-2.491h97.49c1.12 0 2.028 1.124 2.028 2.491.03 1.398-.908 2.492-2.028 2.492z" fill="#CF4A60"/><path d="M36.332 17.805c0-1.215-1-2.218-2.21-2.218a2.226 2.226 0 00-2.21 2.218c0 1.216.999 2.218 2.21 2.218a2.227 2.227 0 002.21-2.218zm8.235-3.129a2.227 2.227 0 00-2.21-2.219 2.227 2.227 0 00-2.21 2.219c0 1.215.999 2.218 2.21 2.218a2.207 2.207 0 002.21-2.218zm5.632 4.557c0-1.215-1-2.218-2.21-2.218a2.227 2.227 0 00-2.21 2.218c0 1.216.998 2.218 2.21 2.218a2.226 2.226 0 002.21-2.218zm6.479-4.314c0-1.216-1-2.218-2.21-2.218a2.227 2.227 0 00-2.21 2.218c0 1.215.998 2.218 2.21 2.218 1.21 0 2.21-.973 2.21-2.218zm6.6 3.555c0-1.216-1-2.218-2.21-2.218a2.227 2.227 0 00-2.21 2.218c0 1.215.999 2.218 2.21 2.218 1.21 0 2.21-.973 2.21-2.218zm5.087-2.887a2.226 2.226 0 00-2.21 2.218c0 1.216.998 2.218 2.21 2.218a2.227 2.227 0 002.21-2.218c0-1.215-1-2.218-2.21-2.218zm-4.693 9.875a2.227 2.227 0 00-2.21 2.218c0 1.215.999 2.218 2.21 2.218a2.227 2.227 0 002.21-2.218c0-1.246-1-2.218-2.21-2.218zm-8.236-3.13a2.227 2.227 0 00-2.21 2.219c0 1.215 1 2.218 2.21 2.218a2.227 2.227 0 002.21-2.218 2.225 2.225 0 00-2.21-2.218zm-5.631 4.558a2.227 2.227 0 00-2.21 2.218c0 1.216.999 2.218 2.21 2.218a2.226 2.226 0 002.21-2.218 2.188 2.188 0 00-2.21-2.218zm24.463-.76a2.227 2.227 0 00-2.21 2.218c0 1.216 1 2.219 2.21 2.219a2.227 2.227 0 002.21-2.219 2.226 2.226 0 00-2.21-2.218zm-30.942-3.555a2.227 2.227 0 00-2.21 2.219c0 1.215.999 2.218 2.21 2.218a2.227 2.227 0 002.21-2.218 2.207 2.207 0 00-2.21-2.219zm-6.601 3.555a2.227 2.227 0 00-2.21 2.218c0 1.216 1 2.219 2.21 2.219a2.227 2.227 0 002.21-2.219 2.226 2.226 0 00-2.21-2.218zm-7.296-.668a2.227 2.227 0 00-2.21 2.218c0 1.215.999 2.218 2.21 2.218a2.227 2.227 0 002.21-2.218c0-1.246-1-2.218-2.21-2.218z" opacity=".7" fill="#FCF1EA"/><path d="M21.648 94.769a2.577 2.577 0 00-.818-.547 2.615 2.615 0 00-.969-.183c-.635 0-1.513.213-2.21 1.368l-6.418 12.883-6.45-12.944c-.484-.85-1.24-1.307-2.18-1.307-.332 0-.665.061-.968.183a2.05 2.05 0 00-.787.547 2.43 2.43 0 00-.545.82 2.64 2.64 0 00-.182.972v17.35c0 .668.242 1.306.727 1.762a2.42 2.42 0 001.756.729c.666 0 1.302-.243 1.756-.729a2.438 2.438 0 00.726-1.762v-6.746l3.876 7.779c.454.942 1.271 1.458 2.27 1.458.94 0 1.696-.456 2.21-1.306l3.967-7.931v6.746c0 .668.242 1.306.727 1.762a2.42 2.42 0 001.756.729c.666 0 1.302-.243 1.756-.729a2.438 2.438 0 00.726-1.762v-17.35c0-.334-.06-.668-.181-.972a2.428 2.428 0 00-.545-.82zm79.809 16.62H30.791v-3.677h6.146c.666 0 1.302-.243 1.756-.729a2.438 2.438 0 00.727-1.762c0-.669-.242-1.307-.727-1.763a2.421 2.421 0 00-1.756-.729h-6.146v-3.676h9.023a2.42 2.42 0 001.756-.73 2.439 2.439 0 00.726-1.762 2.44 2.44 0 00-.726-1.762 2.42 2.42 0 00-1.756-.73H28.278c-.333 0-.666.061-.968.183a2.047 2.047 0 00-.788.547c-.242.243-.393.516-.545.82a2.64 2.64 0 00-.181.972v17.35c0 .365.06.668.181.972.121.304.303.577.545.79.212.213.485.395.788.517.302.121.635.182.968.182h73.179c.666 0 1.302-.243 1.756-.729a2.44 2.44 0 00.726-1.762 2.44 2.44 0 00-.726-1.763 2.352 2.352 0 00-1.756-.759z" fill="#CF4A60"/><path d="M52.409 108.593c.242.274.575.395.938.395.364 0 .697-.152.939-.395.272-.273.393-.577.393-.942 0-.182-.03-.364-.09-.516l-4.693-12.154c-.242-.577-.697-.88-1.272-.88-.393 0-.938.151-1.272.88l-4.662 12.063c-.09.182-.121.395-.121.607 0 .365.121.699.393.942.243.274.576.395.939.395s.696-.152.939-.395c.12-.121.242-.273.302-.425l1.544-3.92h3.936l1.544 3.95c.03.122.122.274.243.395zm-4.693-7.049l.938-2.4.939 2.4h-1.877zM64.64 94.07h-8.78c-.363 0-.696.152-.938.395a1.266 1.266 0 00-.394.942c0 .364.121.699.394.942.242.243.575.395.938.395h3.058v10.877c0 .365.121.699.394.942.242.243.575.395.938.395.364 0 .697-.121.939-.395.272-.273.394-.577.394-.942V96.744h3.058c.363 0 .696-.122.938-.395.273-.274.394-.578.394-.942 0-.365-.121-.7-.394-.942a1.326 1.326 0 00-.938-.395z" fill="#CF4A60"/><path d="M70.15 108.594a1.268 1.268 0 01-.393-.942V95.437c0-.364.121-.699.394-.942.242-.243.575-.395.938-.395.364 0 .697.152.939.395.272.274.393.578.393.942v12.215c0 .364-.12.698-.393.942-.242.273-.575.395-.939.395-.363 0-.696-.152-.938-.395zm16.713.395c.182 0 .364-.031.515-.092.151-.06.303-.152.424-.273.121-.122.212-.274.272-.425.061-.152.091-.335.091-.517V95.467c0-.364-.12-.698-.393-.941a1.326 1.326 0 00-.939-.395c-.363 0-.696.151-.938.395a1.266 1.266 0 00-.394.942v8.325l-7.085-9.237c-.272-.304-.635-.486-1.03-.486-.18 0-.362.03-.514.091-.151.06-.303.152-.424.273a1.277 1.277 0 00-.272.426c-.06.152-.091.334-.091.516v12.215c0 .364.121.699.394.942.272.273.575.395.938.395.364 0 .697-.152.939-.395.272-.274.393-.578.393-.942v-8.234l7.115 9.176c.273.304.606.456 1 .456zm16.653-7.718a1.28 1.28 0 00-.424-.274 1.44 1.44 0 00-.515-.121h-3.36c-.182 0-.364.03-.515.091a1.267 1.267 0 00-.424.274 2.135 2.135 0 00-.303.425c-.06.152-.09.334-.09.516 0 .365.12.699.393.942.242.243.575.395.938.395h1.999v2.097a4.763 4.763 0 01-2.423.668c-1.332 0-2.422-.455-3.36-1.397-.939-.942-1.393-2.036-1.393-3.373 0-1.337.454-2.43 1.393-3.373.938-.942 2.028-1.397 3.36-1.397.545 0 1.09.09 1.575.273.484.182.938.425 1.332.73.272.242.575.364.908.364.182 0 .364-.03.515-.091.151-.061.303-.152.424-.304.121-.122.212-.273.272-.425.061-.152.091-.335.091-.517 0-.486-.212-.79-.393-.972-1.423-1.155-2.998-1.732-4.754-1.732-2.028 0-3.815.729-5.238 2.188-1.453 1.458-2.18 3.22-2.18 5.256 0 2.066.727 3.828 2.18 5.287 1.454 1.458 3.21 2.188 5.238 2.188 1.726 0 3.3-.547 4.663-1.672l.03-.03.03-.03c.273-.274.394-.608.394-.942v-4.133a.999.999 0 00-.121-.516.925.925 0 00-.242-.395zM9.204 130.136c.09.395.151.79.151 1.185a4.65 4.65 0 01-.363 1.823 4.951 4.951 0 01-.999 1.489 4.62 4.62 0 01-3.3 1.367h-3.33a.993.993 0 01-.515-.121 1.15 1.15 0 01-.394-.274c-.151-.091-.242-.243-.303-.395a1.435 1.435 0 01-.12-.516v-12.093c0-.183.03-.365.12-.517a1.267 1.267 0 01.666-.699c.152-.06.334-.091.515-.091h2.695c.545 0 1.06.091 1.544.304s.908.486 1.272.851c.363.364.635.79.847 1.276.212.486.303 1.003.303 1.549 0 .821-.212 1.55-.636 2.219.242.182.454.364.636.546.303.304.545.639.727.973.212.364.363.729.484 1.124zm-6.54-3.464h1.363c.181 0 .363-.03.514-.121a1.37 1.37 0 00.424-.304c.121-.122.212-.274.303-.456.06-.152.121-.334.121-.517a1 1 0 00-.12-.516c-.061-.182-.183-.304-.304-.456a1.706 1.706 0 00-.454-.304 1.438 1.438 0 00-.514-.121H2.664v2.795zm4.057 4.649c0-.274-.06-.547-.151-.79a3.123 3.123 0 00-.424-.669 2.15 2.15 0 00-.666-.455c-.242-.122-.515-.152-.787-.152H2.664v4.132h2.029c.272 0 .545-.061.787-.152.242-.121.454-.243.636-.425a1.69 1.69 0 00.424-.669c.151-.273.181-.516.181-.82zm17.288-10.027c-.363 0-.666.122-.938.395a1.335 1.335 0 00-.394.942v8.021c0 .365-.06.73-.212 1.064a3.394 3.394 0 01-.575.881 2.452 2.452 0 01-.878.577 2.448 2.448 0 01-1.06.213c-.363 0-.726-.061-1.06-.213a2.797 2.797 0 01-.847-.577c-.242-.243-.424-.547-.575-.881a2.43 2.43 0 01-.212-1.033v-8.052c0-.365-.121-.668-.394-.942a1.326 1.326 0 00-.939-.395c-.363 0-.666.122-.938.395a1.335 1.335 0 00-.394.942v8.021c0 1.459.515 2.735 1.575 3.768 1.03 1.033 2.3 1.58 3.754 1.58.484 0 .969-.061 1.423-.182a4.754 4.754 0 001.272-.547 5.87 5.87 0 001.09-.851 4.68 4.68 0 00.817-1.094 4.77 4.77 0 00.545-1.276c.121-.456.182-.942.182-1.398v-8.051c0-.365-.122-.669-.394-.942-.182-.243-.515-.365-.848-.365zm16.41 12.701c.152.212.212.456.212.699 0 .182-.03.364-.09.516a1.28 1.28 0 01-.273.426 1.28 1.28 0 01-.424.273 1.405 1.405 0 01-.515.091c-.454 0-.848-.213-1.12-.608l-2.967-4.74h-1.998v4.072c0 .365-.121.668-.394.942a1.326 1.326 0 01-.939.395c-.363 0-.666-.122-.938-.395a1.335 1.335 0 01-.394-.942v-12.093c0-.182.03-.334.091-.516a1.28 1.28 0 01.273-.426c.12-.121.272-.213.423-.273.152-.061.334-.091.515-.091h3.36a4.62 4.62 0 013.301 1.367 4.664 4.664 0 011.362 3.312c0 .425-.06.82-.15 1.215-.092.395-.273.76-.455 1.124a4.666 4.666 0 01-.757.973 6.443 6.443 0 01-.696.577l2.573 4.102zm-3.088-8.022c0-.273-.06-.547-.151-.79a2.38 2.38 0 00-.455-.668 1.693 1.693 0 00-.666-.426 2.27 2.27 0 00-.787-.151h-2.028v4.101h2.028c.273 0 .545-.06.787-.151.243-.092.455-.244.636-.456.182-.183.333-.395.454-.669.121-.243.182-.516.182-.79zm15.956-2.066c.545 0 1.06.091 1.574.243.485.183.939.426 1.302.729.273.244.545.365.908.365.182 0 .333-.03.515-.091a1.27 1.27 0 00.424-.274 1.26 1.26 0 00.272-.425c.06-.152.091-.334.091-.516 0-.395-.12-.699-.393-.942-1.393-1.125-2.967-1.702-4.693-1.702-1.998 0-3.755.729-5.178 2.157-1.422 1.428-2.15 3.16-2.15 5.196 0 2.036.727 3.768 2.15 5.196S51.29 136 53.287 136c1.695 0 3.24-.547 4.632-1.671.273-.273.394-.577.394-.942v-4.071c0-.183-.03-.335-.121-.517a1.268 1.268 0 00-.666-.699 1.417 1.417 0 00-.515-.121h-3.33c-.182 0-.364.03-.515.091a1.28 1.28 0 00-.424.273 1.28 1.28 0 00-.273.426c-.06.152-.09.334-.09.516 0 .365.12.669.363.942.242.243.575.365.938.365h1.999v2.096a4.726 4.726 0 01-2.422.638c-1.333 0-2.423-.455-3.33-1.397-.91-.912-1.363-2.006-1.363-3.343 0-1.306.454-2.4 1.362-3.342.969-.881 2.059-1.337 3.36-1.337zm19.892 0c.363 0 .665-.121.938-.395.242-.243.394-.577.394-.942 0-.364-.121-.668-.394-.942a1.31 1.31 0 00-.908-.395h-8.024c-.181 0-.363.031-.514.092a1.25 1.25 0 00-.424.273 1.277 1.277 0 00-.273.425 1.44 1.44 0 00-.09.517v12.093c0 .182.03.364.09.516.06.152.152.304.273.426.121.121.272.212.424.273.151.061.333.091.514.091h8.024c.363 0 .666-.121.938-.395.242-.243.394-.577.394-.942 0-.364-.121-.668-.394-.911a1.31 1.31 0 00-.908-.395h-6.721v-3.434h4.723c.363 0 .666-.121.938-.394a1.34 1.34 0 00.394-.942c0-.365-.121-.669-.394-.942a1.326 1.326 0 00-.938-.395h-4.723v-3.434h6.66v.152zm16.41 10.088c.15.212.211.456.211.699a1.292 1.292 0 01-.363.942 1.28 1.28 0 01-.424.273 1.405 1.405 0 01-.515.091c-.454 0-.847-.213-1.12-.608l-2.967-4.74h-1.998v4.072c0 .365-.121.668-.394.942a1.326 1.326 0 01-.938.395 1.26 1.26 0 01-.939-.395 1.335 1.335 0 01-.393-.942v-12.093c0-.182.03-.334.09-.516.06-.152.152-.304.273-.426.12-.121.272-.213.424-.273.151-.061.333-.091.514-.091h3.361a4.62 4.62 0 013.3 1.367 4.664 4.664 0 011.362 3.312c0 .425-.06.82-.15 1.215-.092.395-.273.76-.455 1.124a4.659 4.659 0 01-.757.973 6.423 6.423 0 01-.696.577l2.573 4.102zm-3.059-8.022c0-.273-.06-.547-.151-.79a2.38 2.38 0 00-.454-.668 1.693 1.693 0 00-.666-.426 2.27 2.27 0 00-.787-.151h-2.029v4.101h2.029c.272 0 .545-.06.787-.151a1.56 1.56 0 00.636-.456c.181-.183.333-.395.454-.669a1.79 1.79 0 00.181-.79zm16.562 8.022c.545-.76.847-1.671.847-2.704 0-.608-.121-1.155-.333-1.702-.242-.547-.666-1.094-1.271-1.641-.606-.547-1.484-.972-2.543-1.276-.666-.182-.97-.395-1.09-.547-.182-.182-.273-.456-.273-.79 0-.182.03-.364.121-.547a2.37 2.37 0 01.303-.455 1.69 1.69 0 01.454-.304 1.36 1.36 0 01.485-.091c.211 0 .423.03.635.121a.812.812 0 01.394.304c.091.121.151.213.242.304s.182.182.242.273c.121.091.243.183.364.213.121.061.272.091.454.091s.333-.03.515-.091c.151-.061.302-.152.423-.274.122-.121.212-.273.273-.425.06-.152.091-.334.091-.516 0-.244-.061-.487-.182-.699a3.866 3.866 0 00-.696-.851 3.335 3.335 0 00-.848-.608 5.005 5.005 0 00-.939-.364 3.317 3.317 0 00-.938-.122c-1.817.091-2.846 1.064-3.3 1.702a2.487 2.487 0 00-.364.607 3.993 3.993 0 00-.363 1.702 3.9 3.9 0 00.272 1.458c.182.456.515.912 1 1.368.484.425 1.15.79 2.059 1.063.696.213 1.18.425 1.483.668.273.244.484.456.575.699.091.243.152.486.152.76 0 .273-.061.547-.152.79-.121.243-.242.486-.424.668a2.386 2.386 0 01-.635.456c-.243.122-.515.152-.788.152-.363 0-.696-.091-.999-.243-.302-.152-.545-.395-.757-.699a1.243 1.243 0 00-1.09-.608c-.181 0-.363.031-.514.092-.152.06-.303.152-.424.273a1.288 1.288 0 00-.273.425 1.44 1.44 0 00-.09.517c0 .304.09.577.242.76.212.334.484.638.787.911.303.274.636.486.969.669a4.509 4.509 0 002.18.516c.757 0 1.453-.182 2.119-.516.727-.456 1.332-1.155 1.605-1.489z" fill="#fff"/><path d="M71.029 108.988c.363 0 .696-.121.938-.395.273-.273.394-.577.394-.942V95.437c0-.365-.121-.699-.394-.942a1.326 1.326 0 00-.938-.395c-.364 0-.697.152-.939.395a1.266 1.266 0 00-.393.942v12.214c0 .365.12.699.393.942s.575.395.939.395zm15.774.001c.182 0 .363-.031.515-.092.151-.06.302-.152.424-.273.12-.122.211-.274.272-.425.06-.152.09-.335.09-.517V95.467c0-.364-.12-.698-.393-.941a1.326 1.326 0 00-.938-.395c-.364 0-.697.151-.939.395a1.266 1.266 0 00-.394.942v8.325l-7.114-9.176c-.273-.304-.636-.486-1.03-.486-.182 0-.363.03-.515.09a1.297 1.297 0 00-.424.274 1.277 1.277 0 00-.272.426 1.43 1.43 0 00-.09.516v12.215c0 .364.12.698.393.942.272.273.575.395.938.395.364 0 .697-.152.939-.395a1.27 1.27 0 00.394-.942v-8.295l7.114 9.176c.303.304.667.456 1.03.456zm16.682-7.718a1.26 1.26 0 00-.424-.274 1.435 1.435 0 00-.514-.121h-3.361c-.182 0-.363.03-.515.091a1.267 1.267 0 00-.424.274c-.12.121-.212.273-.302.425-.06.152-.091.334-.091.516 0 .365.121.699.394.942.242.243.575.395.938.395h1.998v2.097a4.758 4.758 0 01-2.422.668c-1.332 0-2.422-.455-3.36-1.397-.94-.942-1.393-2.036-1.393-3.373 0-1.337.454-2.43 1.392-3.373.939-.942 2.029-1.397 3.361-1.397.545 0 1.09.09 1.575.273.484.182.938.425 1.332.73.272.242.575.364.908.364.182 0 .363-.03.515-.091.151-.061.302-.152.424-.304.121-.122.212-.273.272-.425.061-.152.091-.335.091-.517 0-.486-.212-.79-.394-.972-1.423-1.155-2.997-1.732-4.753-1.732-2.029 0-3.815.729-5.238 2.188-1.453 1.458-2.18 3.22-2.18 5.256 0 2.066.727 3.828 2.18 5.287 1.453 1.458 3.21 2.188 5.238 2.188 1.726 0 3.3-.547 4.662-1.672l.031-.03.03-.03c.273-.274.394-.608.394-.942v-4.133c0-.182-.031-.364-.121-.516a.938.938 0 00-.243-.395zM8.69 129.012a5.798 5.798 0 00-.727-.973c-.182-.212-.424-.395-.636-.546.424-.638.636-1.398.636-2.218 0-.547-.091-1.064-.303-1.55a4.077 4.077 0 00-.848-1.276 4.065 4.065 0 00-1.271-.851c-.485-.213-1-.304-1.544-.304H1.302c-.182 0-.363.031-.515.091a1.15 1.15 0 00-.393.274 1.028 1.028 0 00-.273.425c-.06.152-.121.334-.121.517v12.093a1 1 0 00.121.516 1.26 1.26 0 00.666.699c.152.061.333.122.515.122h3.36a4.621 4.621 0 003.3-1.368 4.664 4.664 0 001.362-3.312c.001-.395-.06-.82-.15-1.185a4.883 4.883 0 00-.485-1.154zm-6.086-5.105h1.362c.182 0 .364.031.515.122.182.061.303.182.454.304.121.121.242.273.303.455.06.152.12.335.12.517a.996.996 0 01-.12.516c-.06.152-.182.304-.303.456a1.362 1.362 0 01-.424.304 1.418 1.418 0 01-.514.122H2.604v-2.796zm3.936 8.234c-.121.243-.242.487-.424.669a1.804 1.804 0 01-.636.425 2.27 2.27 0 01-.787.152h-2.09v-4.102h2.03c.272 0 .544.061.787.152.242.122.454.243.666.456.181.182.333.395.423.668.122.243.152.517.152.79.03.274-.03.517-.121.79zm17.409-10.847a1.26 1.26 0 00-.939.395 1.335 1.335 0 00-.393.942v8.022c0 .364-.061.729-.212 1.063a3.395 3.395 0 01-.576.881 2.452 2.452 0 01-.878.577 2.449 2.449 0 01-1.06.213 2.54 2.54 0 01-1.059-.213 2.78 2.78 0 01-.848-.577c-.242-.243-.424-.547-.575-.881a2.427 2.427 0 01-.212-1.033v-8.052c0-.365-.121-.668-.393-.942a1.326 1.326 0 00-.94-.395 1.26 1.26 0 00-.938.395 1.335 1.335 0 00-.393.942v8.022c0 1.458.514 2.734 1.574 3.767 1.03 1.033 2.301 1.58 3.754 1.58a5.56 5.56 0 001.423-.182 4.753 4.753 0 001.272-.547 5.867 5.867 0 001.09-.851c.333-.334.605-.699.817-1.094.243-.395.424-.82.545-1.276.122-.456.182-.942.182-1.397v-8.052c0-.365-.121-.669-.393-.942-.182-.243-.485-.365-.848-.365zm13.866 8.569c.273-.183.515-.365.697-.578a4.46 4.46 0 00.757-.972c.212-.365.363-.729.454-1.124.09-.395.151-.79.151-1.216 0-.638-.12-1.245-.363-1.823a4.95 4.95 0 00-1-1.489 4.62 4.62 0 00-3.3-1.367h-3.36c-.182 0-.363.031-.515.091a1.268 1.268 0 00-.424.274 1.267 1.267 0 00-.272.425c-.06.152-.09.334-.09.517v12.093c0 .364.12.668.393.942.242.243.575.395.938.395.364 0 .666-.122.939-.395.242-.244.393-.578.393-.942v-4.072h1.999l2.967 4.74c.272.395.666.608 1.12.608.182 0 .333-.031.515-.091a1.28 1.28 0 00.424-.274c.12-.121.212-.243.272-.425.06-.152.09-.334.09-.517 0-.243-.06-.486-.211-.699l-2.574-4.101zm-.696-3.1a2.383 2.383 0 01-.454.669 2.442 2.442 0 01-.636.456c-.242.121-.515.151-.787.151h-2.029v-4.101h2.029c.272 0 .545.06.787.152.242.121.454.243.666.425.182.182.333.395.424.668.121.243.151.517.151.79.03.274-.03.547-.15.79zm16.138-2.856c.544 0 1.06.091 1.574.243.484.183.938.426 1.302.73.272.243.575.364.908.364.182 0 .333-.03.515-.091a1.28 1.28 0 00.424-.273 1.28 1.28 0 00.272-.426c.06-.152.09-.334.09-.516 0-.395-.12-.699-.393-.942-1.392-1.125-2.967-1.702-4.692-1.702-1.999 0-3.755.729-5.178 2.157-1.423 1.429-2.15 3.16-2.15 5.196 0 2.036.727 3.768 2.15 5.196S51.26 136 53.257 136c1.695 0 3.24-.547 4.632-1.671.272-.273.393-.577.393-.942v-4.071c0-.183-.03-.335-.12-.517a1.268 1.268 0 00-.667-.699 1.417 1.417 0 00-.514-.121h-3.33c-.183 0-.364.03-.516.091a1.28 1.28 0 00-.423.273 1.282 1.282 0 00-.273.426c-.06.152-.09.334-.09.516 0 .365.12.669.363.942.242.243.575.365.938.365h1.998v2.096a4.726 4.726 0 01-2.422.638c-1.332 0-2.422-.455-3.33-1.397-.909-.912-1.363-2.006-1.363-3.343 0-1.306.454-2.4 1.363-3.342.938-.881 2.028-1.337 3.36-1.337zm19.891 0c.364 0 .666-.121.939-.395.242-.243.393-.577.393-.942 0-.364-.12-.668-.393-.942a1.327 1.327 0 00-.939-.395h-8.023c-.182 0-.363.031-.515.092a1.25 1.25 0 00-.424.273 1.278 1.278 0 00-.272.425 1.44 1.44 0 00-.091.517v12.093a1.292 1.292 0 00.363.942c.121.121.273.212.424.273.152.061.333.091.515.091h8.023c.364 0 .666-.121.939-.395.242-.243.393-.577.393-.942 0-.364-.12-.668-.393-.911a1.327 1.327 0 00-.939-.395h-6.721v-3.433h4.723c.363 0 .666-.122.938-.395.243-.244.394-.578.394-.942 0-.365-.121-.669-.394-.942a1.326 1.326 0 00-.938-.395h-4.723v-3.434h6.721v.152zm13.837 5.956c.272-.183.484-.365.696-.578a4.46 4.46 0 00.757-.972c.212-.365.363-.729.454-1.124.09-.395.151-.79.151-1.216 0-.638-.12-1.245-.363-1.823a4.953 4.953 0 00-1-1.489 4.622 4.622 0 00-3.3-1.367h-3.36c-.182 0-.363.031-.515.091a1.267 1.267 0 00-.423.274 1.268 1.268 0 00-.273.425c-.06.152-.09.334-.09.517v12.093c0 .364.12.668.393.942.242.243.575.395.938.395.364 0 .666-.122.939-.395.242-.244.393-.578.393-.942v-4.072h1.999l2.967 4.74c.272.395.666.608 1.12.608.182 0 .333-.031.515-.091a1.27 1.27 0 00.424-.274c.12-.121.212-.243.272-.425.06-.152.091-.334.091-.517 0-.243-.06-.486-.212-.699l-2.573-4.101zm-.666-3.1a2.383 2.383 0 01-.455.669 2.442 2.442 0 01-.636.456c-.242.121-.514.151-.787.151h-2.028v-4.101h2.028c.273 0 .545.06.787.152.243.121.455.243.667.425.181.182.333.395.454.668.12.243.151.517.151.79-.03.274-.06.547-.181.79zm16.712 7.232c.545-.76.848-1.671.848-2.704 0-.608-.121-1.155-.333-1.702-.242-.547-.666-1.094-1.272-1.641-.605-.547-1.483-.972-2.543-1.276-.666-.182-.969-.395-1.09-.547-.182-.182-.272-.455-.272-.79 0-.182.03-.364.12-.547.091-.182.182-.303.303-.455a1.68 1.68 0 01.455-.304 1.36 1.36 0 01.484-.091c.212 0 .424.03.636.121a.81.81 0 01.393.304c.091.122.152.213.243.304.09.091.181.182.242.273.121.091.242.183.363.213.121.061.273.091.454.091.182 0 .333-.03.515-.091.151-.061.303-.152.424-.273.121-.122.212-.274.272-.426.061-.152.091-.334.091-.516 0-.243-.06-.487-.181-.699a3.865 3.865 0 00-.697-.851 3.335 3.335 0 00-.848-.608 4.969 4.969 0 00-.938-.364 3.328 3.328 0 00-.939-.122c-1.816.091-2.846 1.064-3.3 1.702a2.49 2.49 0 00-.363.607 3.993 3.993 0 00-.364 1.702c0 .516.091 1.003.273 1.458.182.456.515.912 1 1.368.483.425 1.15.79 2.058 1.063.696.213 1.181.425 1.483.669.273.243.485.455.576.698.091.243.151.487.151.76s-.06.547-.151.79c-.121.243-.242.486-.424.668a2.408 2.408 0 01-.636.456c-.242.122-.515.152-.787.152-.364 0-.697-.091-1-.243-.302-.152-.544-.395-.756-.699a1.242 1.242 0 00-1.09-.607c-.182 0-.364.03-.515.091-.151.06-.303.152-.424.273a1.28 1.28 0 00-.272.426 1.43 1.43 0 00-.091.516c0 .304.09.577.242.76.212.334.485.638.787.911.303.274.636.486.97.669a4.511 4.511 0 002.18.516c.756 0 1.452-.182 2.118-.516a6.543 6.543 0 001.605-1.489z" opacity=".78" fill="#FCF1EA"/><defs><linearGradient id="paint0_linear_139_407" x1="119.17" y1="77.181" x2="-38.78" y2="77.181" gradientUnits="userSpaceOnUse"><stop offset=".018" stop-color="#C69727"/><stop offset=".05" stop-color="#D2AA34"/><stop offset=".104" stop-color="#E4C449"/><stop offset=".157" stop-color="#F0D75B"/><stop offset=".208" stop-color="#F8E365"/><stop offset=".256" stop-color="#FBE769"/><stop offset=".304" stop-color="#EFD659"/><stop offset=".454" stop-color="#CFA832"/><stop offset=".569" stop-color="#BC8E1F"/><stop offset=".634" stop-color="#B68417"/><stop offset=".804" stop-color="#B78619"/><stop offset=".865" stop-color="#BC8C1F"/><stop offset=".909" stop-color="#C49728"/><stop offset=".944" stop-color="#D0A736"/><stop offset=".974" stop-color="#E0BC4B"/><stop offset="1" stop-color="#F5D867"/></linearGradient><linearGradient id="paint1_linear_139_407" x1="93.53" y1="29.253" x2="-11.948" y2="29.253" gradientUnits="userSpaceOnUse"><stop offset=".018" stop-color="#C69727"/><stop offset=".05" stop-color="#D2AA34"/><stop offset=".104" stop-color="#E4C449"/><stop offset=".157" stop-color="#F0D75B"/><stop offset=".208" stop-color="#F8E365"/><stop offset=".256" stop-color="#FBE769"/><stop offset=".34" stop-color="#DAC04D"/><stop offset=".474" stop-color="#B08E2D"/><stop offset=".576" stop-color="#997320"/><stop offset=".634" stop-color="#90691B"/><stop offset=".798" stop-color="#926B1C"/><stop offset=".857" stop-color="#987120"/><stop offset=".899" stop-color="#A37C26"/><stop offset=".933" stop-color="#B28D2F"/><stop offset=".962" stop-color="#C7A43F"/><stop offset=".987" stop-color="#E3C357"/><stop offset="1" stop-color="#F5D867"/></linearGradient></defs></svg>