<svg width="16" height="13" fill="none" xmlns="http://www.w3.org/2000/svg"><path d="M14 .333H2C1.47.333.961.546.586.924S.001 1.814 0 2.35v8.636c0 .534.211 1.046.586 1.424.375.378.884.59 1.414.591h12c.53 0 1.039-.213 1.414-.59.375-.379.585-.89.586-1.425V2.349c0-.535-.211-1.047-.586-1.425A1.995 1.995 0 0014 .334zm-.506 3.334L8.35 7.697a.569.569 0 01-.702 0l-5.143-4.03a.574.574 0 01-.207-.61.578.578 0 01.485-.422.567.567 0 01.424.123L8 6.513l4.792-3.755a.569.569 0 01.796.106.579.579 0 01-.094.803z" fill="url(#paint0_linear_166_1598)"/><defs><linearGradient id="paint0_linear_166_1598" x1="8" y1=".333" x2="8" y2="13" gradientUnits="userSpaceOnUse"><stop stop-color="#D8B242"/><stop offset="1" stop-color="#FFED79"/></linearGradient></defs></svg>