<svg width="17" height="17" fill="none" xmlns="http://www.w3.org/2000/svg"><path d="M1 6.86a18.466 18.466 0 009.566 9.292l.68.303a3.5 3.5 0 004.33-1.247l.889-1.324a1 1 0 00-.203-1.335l-3.012-2.43a1 1 0 00-1.431.183l-.932 1.257a12.14 12.14 0 01-5.51-5.511l1.256-.932a1 1 0 00.183-1.431L4.386.673A1 1 0 003.051.47l-1.333.894A3.5 3.5 0 00.481 5.719L1 6.86z" fill="url(#paint0_linear_153_112)"/><defs><linearGradient id="paint0_linear_153_112" x1="8.401" y1=".301" x2="8.401" y2="16.758" gradientUnits="userSpaceOnUse"><stop stop-color="#D8B242"/><stop offset="1" stop-color="#FFED79"/></linearGradient></defs></svg>