<svg width="18" height="16" fill="none" xmlns="http://www.w3.org/2000/svg"><path fill-rule="evenodd" clip-rule="evenodd" d="M17.979 2.363a.088.088 0 00-.105-.024 7.152 7.152 0 01-1.687.516A3.777 3.777 0 0017.504.988a.09.09 0 00-.03-.098.089.089 0 00-.101-.007 7.177 7.177 0 01-2.245.874A3.745 3.745 0 0012.428.6c-2.066 0-3.746 1.696-3.746 3.781 0 .252.024.502.072.744A10.297 10.297 0 011.4 1.31a.09.09 0 00-.147.012 3.806 3.806 0 00-.507 1.9 3.79 3.79 0 001.41 2.958 3.557 3.557 0 01-1.307-.426.088.088 0 00-.088 0 .09.09 0 00-.045.077v.048A3.79 3.79 0 003.349 9.49a3.57 3.57 0 01-1.245-.018.09.09 0 00-.102.116A3.752 3.752 0 005.253 12.2a7.154 7.154 0 01-4.292 1.412c-.287 0-.577-.017-.861-.05a.09.09 0 00-.095.058.09.09 0 00.036.106A10.38 10.38 0 005.694 15.4c6.568 0 10.492-5.385 10.492-10.591 0-.145-.002-.29-.008-.433a7.51 7.51 0 001.807-1.905.091.091 0 00-.006-.108z" fill="#fff"/></svg>