<svg width="97" height="112" fill="none" xmlns="http://www.w3.org/2000/svg"><g filter="url(#filter0_f_4520_12803)" fill="#15F2FD"><path d="M40.67 27.687v-3.813c0-2.021 1.103-3.119 3.117-3.122h10.34c1.967 0 3.078 1.11 3.092 3.086v3.605c.01.08.025.16.044.238h8.428c6.378.028 11.215 4.853 11.234 11.275.025 9.22 0 18.439 0 27.658 0 2.143-1.682 3.516-3.568 2.942a2.725 2.725 0 01-1.326-.891 2.75 2.75 0 01-.604-1.485c-.028-.3-.02-.602-.02-.901V39.175c0-2.89-1.48-4.958-4.075-5.723a3.756 3.756 0 00-1.015-.18c-3.006-.017-6.012 0-9.117 0 .212 3.105-.632 5.822-3.097 7.827a7.903 7.903 0 01-5.499 1.827 8.06 8.06 0 01-3.383-.859 8.101 8.101 0 01-2.708-2.21c-1.561-1.9-2.01-4.16-1.831-6.619h-8.343c-3.53 0-5.868 2.362-5.87 5.917v41.107c0 3.59 2.34 5.93 5.926 5.93h33.092c2.898 0 4.988-1.519 5.708-4.158.114-.494.185-.997.212-1.503.147-1.597 1.38-2.72 2.896-2.64a2.746 2.746 0 011.908.92 2.776 2.776 0 01.698 2.008c-.143 3.92-1.84 6.996-5.093 9.167a10.374 10.374 0 01-5.858 1.755c-11.353 0-22.706.042-34.057 0a10.86 10.86 0 01-4.186-.83 10.908 10.908 0 01-3.55-2.382 10.977 10.977 0 01-2.37-3.567 11.024 11.024 0 01-.828-4.21c-.05-14.024-.05-28.05 0-42.076.022-6.076 4.853-10.864 10.896-10.961 2.898-.064 5.793-.028 8.807-.028zm5.535-1.353v8.554c.02.344.114.68.276.984.27.54.71.976 1.252 1.238a2.709 2.709 0 001.743.212 2.755 2.755 0 001.591-.972c.403-.5.62-1.124.615-1.767.033-1.775 0-3.552 0-5.33v-2.92h-5.477z"/><path d="M46.947 76.765c-2.278-.014-4.001-.687-5.413-2.066a703.566 703.566 0 01-7.17-7.112c-1.12-1.128-1.186-2.662-.234-3.815a2.702 2.702 0 013.546-.555c.3.21.577.451.827.719a2649.14 2649.14 0 016.52 6.477c1.19 1.184 2.087 1.109 3.033-.258l11.626-16.84c.883-1.272 1.986-1.727 3.238-1.355a2.738 2.738 0 011.741 1.546 2.769 2.769 0 01-.064 2.336c-.118.224-.25.44-.398.646a16595.77 16595.77 0 01-11.904 17.236 6.882 6.882 0 01-2.317 2.155 6.839 6.839 0 01-3.03.886z"/></g><g filter="url(#filter1_f_4520_12803)" fill="#15F2FD"><path d="M40.67 27.687v-3.813c0-2.021 1.103-3.119 3.117-3.122h10.34c1.967 0 3.078 1.11 3.092 3.086v3.605c.01.08.025.16.044.238h8.428c6.378.028 11.215 4.853 11.234 11.275.025 9.22 0 18.439 0 27.658 0 2.143-1.682 3.516-3.568 2.942a2.725 2.725 0 01-1.326-.891 2.75 2.75 0 01-.604-1.485c-.028-.3-.02-.602-.02-.901V39.175c0-2.89-1.48-4.958-4.075-5.723a3.756 3.756 0 00-1.015-.18c-3.006-.017-6.012 0-9.117 0 .212 3.105-.632 5.822-3.097 7.827a7.903 7.903 0 01-5.499 1.827 8.06 8.06 0 01-3.383-.859 8.101 8.101 0 01-2.708-2.21c-1.561-1.9-2.01-4.16-1.831-6.619h-8.343c-3.53 0-5.868 2.362-5.87 5.917v41.107c0 3.59 2.34 5.93 5.926 5.93h33.092c2.898 0 4.988-1.519 5.708-4.158.114-.494.185-.997.212-1.503.147-1.597 1.38-2.72 2.896-2.64a2.746 2.746 0 011.908.92 2.776 2.776 0 01.698 2.008c-.143 3.92-1.84 6.996-5.093 9.167a10.374 10.374 0 01-5.858 1.755c-11.353 0-22.706.042-34.057 0a10.86 10.86 0 01-4.186-.83 10.908 10.908 0 01-3.55-2.382 10.977 10.977 0 01-2.37-3.567 11.024 11.024 0 01-.828-4.21c-.05-14.024-.05-28.05 0-42.076.022-6.076 4.853-10.864 10.896-10.961 2.898-.064 5.793-.028 8.807-.028zm5.535-1.353v8.554c.02.344.114.68.276.984.27.54.71.976 1.252 1.238a2.709 2.709 0 001.743.212 2.755 2.755 0 001.591-.972c.403-.5.62-1.124.615-1.767.033-1.775 0-3.552 0-5.33v-2.92h-5.477z"/><path d="M46.947 76.765c-2.278-.014-4.001-.687-5.413-2.066a703.566 703.566 0 01-7.17-7.112c-1.12-1.128-1.186-2.662-.234-3.815a2.702 2.702 0 013.546-.555c.3.21.577.451.827.719a2649.14 2649.14 0 016.52 6.477c1.19 1.184 2.087 1.109 3.033-.258l11.626-16.84c.883-1.272 1.986-1.727 3.238-1.355a2.738 2.738 0 011.741 1.546 2.769 2.769 0 01-.064 2.336c-.118.224-.25.44-.398.646a16595.77 16595.77 0 01-11.904 17.236 6.882 6.882 0 01-2.317 2.155 6.839 6.839 0 01-3.03.886z"/></g><g filter="url(#filter2_f_4520_12803)" fill="#15F2FD"><path d="M40.67 27.687v-3.813c0-2.021 1.103-3.119 3.117-3.122h10.34c1.967 0 3.078 1.11 3.092 3.086v3.605c.01.08.025.16.044.238h8.428c6.378.028 11.215 4.853 11.234 11.275.025 9.22 0 18.439 0 27.658 0 2.143-1.682 3.516-3.568 2.942a2.725 2.725 0 01-1.326-.891 2.75 2.75 0 01-.604-1.485c-.028-.3-.02-.602-.02-.901V39.175c0-2.89-1.48-4.958-4.075-5.723a3.756 3.756 0 00-1.015-.18c-3.006-.017-6.012 0-9.117 0 .212 3.105-.632 5.822-3.097 7.827a7.903 7.903 0 01-5.499 1.827 8.06 8.06 0 01-3.383-.859 8.101 8.101 0 01-2.708-2.21c-1.561-1.9-2.01-4.16-1.831-6.619h-8.343c-3.53 0-5.868 2.362-5.87 5.917v41.107c0 3.59 2.34 5.93 5.926 5.93h33.092c2.898 0 4.988-1.519 5.708-4.158.114-.494.185-.997.212-1.503.147-1.597 1.38-2.72 2.896-2.64a2.746 2.746 0 011.908.92 2.776 2.776 0 01.698 2.008c-.143 3.92-1.84 6.996-5.093 9.167a10.374 10.374 0 01-5.858 1.755c-11.353 0-22.706.042-34.057 0a10.86 10.86 0 01-4.186-.83 10.908 10.908 0 01-3.55-2.382 10.977 10.977 0 01-2.37-3.567 11.024 11.024 0 01-.828-4.21c-.05-14.024-.05-28.05 0-42.076.022-6.076 4.853-10.864 10.896-10.961 2.898-.064 5.793-.028 8.807-.028zm5.535-1.353v8.554c.02.344.114.68.276.984.27.54.71.976 1.252 1.238a2.709 2.709 0 001.743.212 2.755 2.755 0 001.591-.972c.403-.5.62-1.124.615-1.767.033-1.775 0-3.552 0-5.33v-2.92h-5.477z"/><path d="M46.947 76.765c-2.278-.014-4.001-.687-5.413-2.066a703.566 703.566 0 01-7.17-7.112c-1.12-1.128-1.186-2.662-.234-3.815a2.702 2.702 0 013.546-.555c.3.21.577.451.827.719a2649.14 2649.14 0 016.52 6.477c1.19 1.184 2.087 1.109 3.033-.258l11.626-16.84c.883-1.272 1.986-1.727 3.238-1.355a2.738 2.738 0 011.741 1.546 2.769 2.769 0 01-.064 2.336c-.118.224-.25.44-.398.646a16595.77 16595.77 0 01-11.904 17.236 6.882 6.882 0 01-2.317 2.155 6.839 6.839 0 01-3.03.886z"/></g><g filter="url(#filter3_d_4520_12803)" fill="#fff"><path d="M40.67 27.687v-3.813c0-2.021 1.103-3.119 3.117-3.122h10.34c1.967 0 3.078 1.11 3.092 3.086v3.605c.01.08.025.16.044.238h8.428c6.378.028 11.215 4.853 11.234 11.275.025 9.22 0 18.439 0 27.658 0 2.143-1.682 3.516-3.568 2.942a2.725 2.725 0 01-1.326-.891 2.75 2.75 0 01-.604-1.485c-.028-.3-.02-.602-.02-.901V39.175c0-2.89-1.48-4.958-4.075-5.723a3.756 3.756 0 00-1.015-.18c-3.006-.017-6.012 0-9.117 0 .212 3.105-.632 5.822-3.097 7.827a7.903 7.903 0 01-5.499 1.827 8.06 8.06 0 01-3.383-.859 8.101 8.101 0 01-2.708-2.21c-1.561-1.9-2.01-4.16-1.831-6.619h-8.343c-3.53 0-5.868 2.362-5.87 5.917v41.107c0 3.59 2.34 5.93 5.926 5.93h33.092c2.898 0 4.988-1.519 5.708-4.158.114-.494.185-.997.212-1.503.147-1.597 1.38-2.72 2.896-2.64a2.746 2.746 0 011.908.92 2.776 2.776 0 01.698 2.008c-.143 3.92-1.84 6.996-5.093 9.167a10.374 10.374 0 01-5.858 1.755c-11.353 0-22.706.042-34.057 0a10.86 10.86 0 01-4.186-.83 10.908 10.908 0 01-3.55-2.382 10.977 10.977 0 01-2.37-3.567 11.024 11.024 0 01-.828-4.21c-.05-14.024-.05-28.05 0-42.076.022-6.076 4.853-10.864 10.896-10.961 2.898-.064 5.793-.028 8.807-.028zm5.535-1.353v8.554c.02.344.114.68.276.984.27.54.71.976 1.252 1.238a2.709 2.709 0 001.743.212 2.755 2.755 0 001.591-.972c.403-.5.62-1.124.615-1.767.033-1.775 0-3.552 0-5.33v-2.92h-5.477z"/><path d="M46.947 76.765c-2.278-.014-4.001-.687-5.413-2.066a703.566 703.566 0 01-7.17-7.112c-1.12-1.128-1.186-2.662-.234-3.815a2.702 2.702 0 013.546-.555c.3.21.577.451.827.719a2649.14 2649.14 0 016.52 6.477c1.19 1.184 2.087 1.109 3.033-.258l11.626-16.84c.883-1.272 1.986-1.727 3.238-1.355a2.738 2.738 0 011.741 1.546 2.769 2.769 0 01-.064 2.336c-.118.224-.25.44-.398.646a16595.77 16595.77 0 01-11.904 17.236 6.882 6.882 0 01-2.317 2.155 6.839 6.839 0 01-3.03.886z"/></g><defs><filter id="filter0_f_4520_12803" x=".93" y=".752" width="96.007" height="111.007" filterUnits="userSpaceOnUse" color-interpolation-filters="sRGB"><feFlood flood-opacity="0" result="BackgroundImageFix"/><feBlend in="SourceGraphic" in2="BackgroundImageFix" result="shape"/><feGaussianBlur stdDeviation="10" result="effect1_foregroundBlur_4520_12803"/></filter><filter id="filter1_f_4520_12803" x="10.93" y="10.752" width="76.007" height="91.007" filterUnits="userSpaceOnUse" color-interpolation-filters="sRGB"><feFlood flood-opacity="0" result="BackgroundImageFix"/><feBlend in="SourceGraphic" in2="BackgroundImageFix" result="shape"/><feGaussianBlur stdDeviation="5" result="effect1_foregroundBlur_4520_12803"/></filter><filter id="filter2_f_4520_12803" x="15.93" y="15.752" width="66.007" height="81.007" filterUnits="userSpaceOnUse" color-interpolation-filters="sRGB"><feFlood flood-opacity="0" result="BackgroundImageFix"/><feBlend in="SourceGraphic" in2="BackgroundImageFix" result="shape"/><feGaussianBlur stdDeviation="2.5" result="effect1_foregroundBlur_4520_12803"/></filter><filter id="filter3_d_4520_12803" x="16.93" y="20.752" width="64.007" height="79.007" filterUnits="userSpaceOnUse" color-interpolation-filters="sRGB"><feFlood flood-opacity="0" result="BackgroundImageFix"/><feColorMatrix in="SourceAlpha" values="0 0 0 0 0 0 0 0 0 0 0 0 0 0 0 0 0 0 127 0" result="hardAlpha"/><feOffset dy="4"/><feGaussianBlur stdDeviation="2"/><feComposite in2="hardAlpha" operator="out"/><feColorMatrix values="0 0 0 0 0 0 0 0 0 0 0 0 0 0 0 0 0 0 0.25 0"/><feBlend in2="BackgroundImageFix" result="effect1_dropShadow_4520_12803"/><feBlend in="SourceGraphic" in2="effect1_dropShadow_4520_12803" result="shape"/></filter></defs></svg>