<svg width="107" height="107" fill="none" xmlns="http://www.w3.org/2000/svg"><g filter="url(#filter0_f_4522_15507)" fill="#15F2FD"><path d="M50.526 51.05H65.45c5.087 0 9.136 2.747 11.06 7.461.113.236.31.42.553.516 2.47.886 4.05 3.031 4.047 5.55-.003 2.52-1.573 4.648-4.063 5.541a1.032 1.032 0 00-.541.535c-1.883 4.646-5.946 7.424-10.943 7.45-1.996 0-3.993.013-5.99 0a.709.709 0 00-.773.473c-1.063 2.184-2.838 3.384-5.263 3.384-2.424 0-4.197-1.208-5.262-3.39a.664.664 0 00-.707-.464c-1.375.023-2.747.015-4.127 0-1.225 0-2.118-.852-2.094-1.965.023-1.113.892-1.892 2.092-1.9h4.127a.616.616 0 00.683-.4c1.048-2.226 2.822-3.45 5.283-3.452 2.461-.002 4.236 1.216 5.29 3.436a.62.62 0 00.674.416c2.149-.016 4.298.052 6.449-.026 2.884-.106 5.048-1.482 6.5-3.973.075-.147.142-.3.199-.454-4.184-2.412-4.127-8.058.016-10.44a7.205 7.205 0 00-4.084-3.873 8.193 8.193 0 00-2.752-.55c-4.958-.054-9.919-.02-14.876-.036a.686.686 0 00-.712.475c-1.07 2.158-2.838 3.335-5.234 3.333-2.397-.003-4.164-1.172-5.237-3.33a.746.746 0 00-.704-.499c-6.214-.498-10.754-5.421-10.757-11.661 0-1.867-.051-3.746.142-5.597.516-4.99 4.989-9.395 9.998-9.754 2.97-.211 5.962-.11 8.944-.126.48 0 .732-.106.967-.581 1.06-2.132 2.838-3.27 5.206-3.266 2.368.005 4.127 1.16 5.195 3.29.216.428.436.593.913.56a20.293 20.293 0 012.064 0c1.189.036 2.025.882 1.999 1.99-.026 1.108-.86 1.859-2.036 1.872-.75 0-1.503-.024-2.254.018a.773.773 0 00-.56.356c-1.08 2.205-2.809 3.46-5.28 3.477-2.526.016-4.298-1.236-5.391-3.498a.646.646 0 00-.447-.338c-2.984 0-5.979-.11-8.945.116-3.578.276-6.467 3.437-6.617 7.022-.11 1.95-.073 3.906.114 5.85.374 3.375 3.353 6.104 6.766 6.382a.713.713 0 00.562-.315c1.11-2.282 2.894-3.552 5.45-3.516 2.557.036 4.3 1.373 5.322 3.692.033.072.07.141.111.209zm3.02-19.445a1.918 1.918 0 001.925-1.92 1.968 1.968 0 00-1.932-1.932 1.967 1.967 0 00-1.924 1.939 1.927 1.927 0 001.932 1.913zm-.02 46.506a1.952 1.952 0 001.945-1.913 1.953 1.953 0 00-1.911-1.947 1.952 1.952 0 00-1.945 1.91 1.96 1.96 0 001.911 1.95zM77.24 64.604a1.953 1.953 0 00-1.907-1.95 1.942 1.942 0 00-1.947 1.906 1.947 1.947 0 001.904 1.951 1.954 1.954 0 001.95-1.907zM45.047 51.019a1.9 1.9 0 00-1.965 1.867 1.932 1.932 0 001.867 1.98 1.968 1.968 0 001.979-1.882 1.935 1.935 0 00-1.88-1.965z"/><path d="M71.085 35.018v8.685h1.406a1.91 1.91 0 011.96 1.951 1.901 1.901 0 01-1.94 1.906c-2.254.02-4.508.02-6.76 0a1.917 1.917 0 01-1.82-1.206 1.936 1.936 0 011.818-2.654c.448-.013.9 0 1.446 0V23.08c0-1.598.722-2.323 2.322-2.323h14.685c.905 0 1.659.214 2.1 1.066.44.852.167 1.603-.364 2.324-.942 1.29-1.85 2.581-2.794 3.903.968 1.247 1.925 2.484 2.887 3.718.451.58.64 1.21.376 1.925a1.821 1.821 0 01-1.547 1.273 8.032 8.032 0 01-.898.044H71.918l-.833.008zm9.704-10.327h-9.696v6.426h9.503l-1.223-1.585c-.774-.994-.774-1.738-.067-2.752l1.483-2.089zM20.523 67.864c.031-5.132 3.738-9.32 8.742-9.833a9.665 9.665 0 016.703 1.85 9.68 9.68 0 013.73 5.874c.463 2.236.115 4.45-.38 6.635-1.194 5.29-3.807 9.81-7.592 13.66-.93.95-2.063.942-3 0-4.328-4.425-7.088-9.648-7.98-15.81-.114-.79-.15-1.586-.223-2.376zm9.687 14.091a5.71 5.71 0 00.47-.532c1.03-1.598 2.184-3.137 3.053-4.82 1.468-2.84 2.322-5.907 2.273-9.144-.057-3.524-3.385-6.157-6.836-5.489-3.015.586-4.94 3.098-4.713 6.4.356 5.135 2.42 9.589 5.753 13.585z"/><path d="M30.23 69.597a1.965 1.965 0 01-1.924-1.929 1.936 1.936 0 011.97-1.934 1.926 1.926 0 011.891 1.947 1.968 1.968 0 01-1.937 1.916z"/></g><g filter="url(#filter1_f_4522_15507)" fill="#15F2FD"><path d="M50.526 51.05H65.45c5.087 0 9.136 2.747 11.06 7.461.113.236.31.42.553.516 2.47.886 4.05 3.031 4.047 5.55-.003 2.52-1.573 4.648-4.063 5.541a1.032 1.032 0 00-.541.535c-1.883 4.646-5.946 7.424-10.943 7.45-1.996 0-3.993.013-5.99 0a.709.709 0 00-.773.473c-1.063 2.184-2.838 3.384-5.263 3.384-2.424 0-4.197-1.208-5.262-3.39a.664.664 0 00-.707-.464c-1.375.023-2.747.015-4.127 0-1.225 0-2.118-.852-2.094-1.965.023-1.113.892-1.892 2.092-1.9h4.127a.616.616 0 00.683-.4c1.048-2.226 2.822-3.45 5.283-3.452 2.461-.002 4.236 1.216 5.29 3.436a.62.62 0 00.674.416c2.149-.016 4.298.052 6.449-.026 2.884-.106 5.048-1.482 6.5-3.973.075-.147.142-.3.199-.454-4.184-2.412-4.127-8.058.016-10.44a7.205 7.205 0 00-4.084-3.873 8.193 8.193 0 00-2.752-.55c-4.958-.054-9.919-.02-14.876-.036a.686.686 0 00-.712.475c-1.07 2.158-2.838 3.335-5.234 3.333-2.397-.003-4.164-1.172-5.237-3.33a.746.746 0 00-.704-.499c-6.214-.498-10.754-5.421-10.757-11.661 0-1.867-.051-3.746.142-5.597.516-4.99 4.989-9.395 9.998-9.754 2.97-.211 5.962-.11 8.944-.126.48 0 .732-.106.967-.581 1.06-2.132 2.838-3.27 5.206-3.266 2.368.005 4.127 1.16 5.195 3.29.216.428.436.593.913.56a20.293 20.293 0 012.064 0c1.189.036 2.025.882 1.999 1.99-.026 1.108-.86 1.859-2.036 1.872-.75 0-1.503-.024-2.254.018a.773.773 0 00-.56.356c-1.08 2.205-2.809 3.46-5.28 3.477-2.526.016-4.298-1.236-5.391-3.498a.646.646 0 00-.447-.338c-2.984 0-5.979-.11-8.945.116-3.578.276-6.467 3.437-6.617 7.022-.11 1.95-.073 3.906.114 5.85.374 3.375 3.353 6.104 6.766 6.382a.713.713 0 00.562-.315c1.11-2.282 2.894-3.552 5.45-3.516 2.557.036 4.3 1.373 5.322 3.692.033.072.07.141.111.209zm3.02-19.445a1.918 1.918 0 001.925-1.92 1.968 1.968 0 00-1.932-1.932 1.967 1.967 0 00-1.924 1.939 1.927 1.927 0 001.932 1.913zm-.02 46.506a1.952 1.952 0 001.945-1.913 1.953 1.953 0 00-1.911-1.947 1.952 1.952 0 00-1.945 1.91 1.96 1.96 0 001.911 1.95zM77.24 64.604a1.953 1.953 0 00-1.907-1.95 1.942 1.942 0 00-1.947 1.906 1.947 1.947 0 001.904 1.951 1.954 1.954 0 001.95-1.907zM45.047 51.019a1.9 1.9 0 00-1.965 1.867 1.932 1.932 0 001.867 1.98 1.968 1.968 0 001.979-1.882 1.935 1.935 0 00-1.88-1.965z"/><path d="M71.085 35.018v8.685h1.406a1.91 1.91 0 011.96 1.951 1.901 1.901 0 01-1.94 1.906c-2.254.02-4.508.02-6.76 0a1.917 1.917 0 01-1.82-1.206 1.936 1.936 0 011.818-2.654c.448-.013.9 0 1.446 0V23.08c0-1.598.722-2.323 2.322-2.323h14.685c.905 0 1.659.214 2.1 1.066.44.852.167 1.603-.364 2.324-.942 1.29-1.85 2.581-2.794 3.903.968 1.247 1.925 2.484 2.887 3.718.451.58.64 1.21.376 1.925a1.821 1.821 0 01-1.547 1.273 8.032 8.032 0 01-.898.044H71.918l-.833.008zm9.704-10.327h-9.696v6.426h9.503l-1.223-1.585c-.774-.994-.774-1.738-.067-2.752l1.483-2.089zM20.523 67.864c.031-5.132 3.738-9.32 8.742-9.833a9.665 9.665 0 016.703 1.85 9.68 9.68 0 013.73 5.874c.463 2.236.115 4.45-.38 6.635-1.194 5.29-3.807 9.81-7.592 13.66-.93.95-2.063.942-3 0-4.328-4.425-7.088-9.648-7.98-15.81-.114-.79-.15-1.586-.223-2.376zm9.687 14.091a5.71 5.71 0 00.47-.532c1.03-1.598 2.184-3.137 3.053-4.82 1.468-2.84 2.322-5.907 2.273-9.144-.057-3.524-3.385-6.157-6.836-5.489-3.015.586-4.94 3.098-4.713 6.4.356 5.135 2.42 9.589 5.753 13.585z"/><path d="M30.23 69.597a1.965 1.965 0 01-1.924-1.929 1.936 1.936 0 011.97-1.934 1.926 1.926 0 011.891 1.947 1.968 1.968 0 01-1.937 1.916z"/></g><g filter="url(#filter2_f_4522_15507)" fill="#15F2FD"><path d="M50.526 51.05H65.45c5.087 0 9.136 2.747 11.06 7.461.113.236.31.42.553.516 2.47.886 4.05 3.031 4.047 5.55-.003 2.52-1.573 4.648-4.063 5.541a1.032 1.032 0 00-.541.535c-1.883 4.646-5.946 7.424-10.943 7.45-1.996 0-3.993.013-5.99 0a.709.709 0 00-.773.473c-1.063 2.184-2.838 3.384-5.263 3.384-2.424 0-4.197-1.208-5.262-3.39a.664.664 0 00-.707-.464c-1.375.023-2.747.015-4.127 0-1.225 0-2.118-.852-2.094-1.965.023-1.113.892-1.892 2.092-1.9h4.127a.616.616 0 00.683-.4c1.048-2.226 2.822-3.45 5.283-3.452 2.461-.002 4.236 1.216 5.29 3.436a.62.62 0 00.674.416c2.149-.016 4.298.052 6.449-.026 2.884-.106 5.048-1.482 6.5-3.973.075-.147.142-.3.199-.454-4.184-2.412-4.127-8.058.016-10.44a7.205 7.205 0 00-4.084-3.873 8.193 8.193 0 00-2.752-.55c-4.958-.054-9.919-.02-14.876-.036a.686.686 0 00-.712.475c-1.07 2.158-2.838 3.335-5.234 3.333-2.397-.003-4.164-1.172-5.237-3.33a.746.746 0 00-.704-.499c-6.214-.498-10.754-5.421-10.757-11.661 0-1.867-.051-3.746.142-5.597.516-4.99 4.989-9.395 9.998-9.754 2.97-.211 5.962-.11 8.944-.126.48 0 .732-.106.967-.581 1.06-2.132 2.838-3.27 5.206-3.266 2.368.005 4.127 1.16 5.195 3.29.216.428.436.593.913.56a20.293 20.293 0 012.064 0c1.189.036 2.025.882 1.999 1.99-.026 1.108-.86 1.859-2.036 1.872-.75 0-1.503-.024-2.254.018a.773.773 0 00-.56.356c-1.08 2.205-2.809 3.46-5.28 3.477-2.526.016-4.298-1.236-5.391-3.498a.646.646 0 00-.447-.338c-2.984 0-5.979-.11-8.945.116-3.578.276-6.467 3.437-6.617 7.022-.11 1.95-.073 3.906.114 5.85.374 3.375 3.353 6.104 6.766 6.382a.713.713 0 00.562-.315c1.11-2.282 2.894-3.552 5.45-3.516 2.557.036 4.3 1.373 5.322 3.692.033.072.07.141.111.209zm3.02-19.445a1.918 1.918 0 001.925-1.92 1.968 1.968 0 00-1.932-1.932 1.967 1.967 0 00-1.924 1.939 1.927 1.927 0 001.932 1.913zm-.02 46.506a1.952 1.952 0 001.945-1.913 1.953 1.953 0 00-1.911-1.947 1.952 1.952 0 00-1.945 1.91 1.96 1.96 0 001.911 1.95zM77.24 64.604a1.953 1.953 0 00-1.907-1.95 1.942 1.942 0 00-1.947 1.906 1.947 1.947 0 001.904 1.951 1.954 1.954 0 001.95-1.907zM45.047 51.019a1.9 1.9 0 00-1.965 1.867 1.932 1.932 0 001.867 1.98 1.968 1.968 0 001.979-1.882 1.935 1.935 0 00-1.88-1.965z"/><path d="M71.085 35.018v8.685h1.406a1.91 1.91 0 011.96 1.951 1.901 1.901 0 01-1.94 1.906c-2.254.02-4.508.02-6.76 0a1.917 1.917 0 01-1.82-1.206 1.936 1.936 0 011.818-2.654c.448-.013.9 0 1.446 0V23.08c0-1.598.722-2.323 2.322-2.323h14.685c.905 0 1.659.214 2.1 1.066.44.852.167 1.603-.364 2.324-.942 1.29-1.85 2.581-2.794 3.903.968 1.247 1.925 2.484 2.887 3.718.451.58.64 1.21.376 1.925a1.821 1.821 0 01-1.547 1.273 8.032 8.032 0 01-.898.044H71.918l-.833.008zm9.704-10.327h-9.696v6.426h9.503l-1.223-1.585c-.774-.994-.774-1.738-.067-2.752l1.483-2.089zM20.523 67.864c.031-5.132 3.738-9.32 8.742-9.833a9.665 9.665 0 016.703 1.85 9.68 9.68 0 013.73 5.874c.463 2.236.115 4.45-.38 6.635-1.194 5.29-3.807 9.81-7.592 13.66-.93.95-2.063.942-3 0-4.328-4.425-7.088-9.648-7.98-15.81-.114-.79-.15-1.586-.223-2.376zm9.687 14.091a5.71 5.71 0 00.47-.532c1.03-1.598 2.184-3.137 3.053-4.82 1.468-2.84 2.322-5.907 2.273-9.144-.057-3.524-3.385-6.157-6.836-5.489-3.015.586-4.94 3.098-4.713 6.4.356 5.135 2.42 9.589 5.753 13.585z"/><path d="M30.23 69.597a1.965 1.965 0 01-1.924-1.929 1.936 1.936 0 011.97-1.934 1.926 1.926 0 011.891 1.947 1.968 1.968 0 01-1.937 1.916z"/></g><g filter="url(#filter3_d_4522_15507)" fill="#fff"><path d="M50.526 51.05H65.45c5.087 0 9.136 2.747 11.06 7.461.113.236.31.42.553.516 2.47.886 4.05 3.031 4.047 5.55-.003 2.52-1.573 4.648-4.063 5.541a1.032 1.032 0 00-.541.535c-1.883 4.646-5.946 7.424-10.943 7.45-1.996 0-3.993.013-5.99 0a.709.709 0 00-.773.473c-1.063 2.184-2.838 3.384-5.263 3.384-2.424 0-4.197-1.208-5.262-3.39a.664.664 0 00-.707-.464c-1.375.023-2.747.015-4.127 0-1.225 0-2.118-.852-2.094-1.965.023-1.113.892-1.892 2.092-1.9h4.127a.616.616 0 00.683-.4c1.048-2.226 2.822-3.45 5.283-3.452 2.461-.002 4.236 1.216 5.29 3.436a.62.62 0 00.674.416c2.149-.016 4.298.052 6.449-.026 2.884-.106 5.048-1.482 6.5-3.973.075-.147.142-.3.199-.454-4.184-2.412-4.127-8.058.016-10.44a7.205 7.205 0 00-4.084-3.873 8.193 8.193 0 00-2.752-.55c-4.958-.054-9.919-.02-14.876-.036a.686.686 0 00-.712.475c-1.07 2.158-2.838 3.335-5.234 3.333-2.397-.003-4.164-1.172-5.237-3.33a.746.746 0 00-.704-.499c-6.214-.498-10.754-5.421-10.757-11.661 0-1.867-.051-3.746.142-5.597.516-4.99 4.989-9.395 9.998-9.754 2.97-.211 5.962-.11 8.944-.126.48 0 .732-.106.967-.581 1.06-2.132 2.838-3.27 5.206-3.266 2.368.005 4.127 1.16 5.195 3.29.216.428.436.593.913.56a20.293 20.293 0 012.064 0c1.189.036 2.025.882 1.999 1.99-.026 1.108-.86 1.859-2.036 1.872-.75 0-1.503-.024-2.254.018a.773.773 0 00-.56.356c-1.08 2.205-2.809 3.46-5.28 3.477-2.526.016-4.298-1.236-5.391-3.498a.646.646 0 00-.447-.338c-2.984 0-5.979-.11-8.945.116-3.578.276-6.467 3.437-6.617 7.022-.11 1.95-.073 3.906.114 5.85.374 3.375 3.353 6.104 6.766 6.382a.713.713 0 00.562-.315c1.11-2.282 2.894-3.552 5.45-3.516 2.557.036 4.3 1.373 5.322 3.692.033.072.07.141.111.209zm3.02-19.445a1.918 1.918 0 001.925-1.92 1.968 1.968 0 00-1.932-1.932 1.967 1.967 0 00-1.924 1.939 1.927 1.927 0 001.932 1.913zm-.02 46.506a1.952 1.952 0 001.945-1.913 1.953 1.953 0 00-1.911-1.947 1.952 1.952 0 00-1.945 1.91 1.96 1.96 0 001.911 1.95zM77.24 64.604a1.953 1.953 0 00-1.907-1.95 1.942 1.942 0 00-1.947 1.906 1.947 1.947 0 001.904 1.951 1.954 1.954 0 001.95-1.907zM45.047 51.019a1.9 1.9 0 00-1.965 1.867 1.932 1.932 0 001.867 1.98 1.968 1.968 0 001.979-1.882 1.935 1.935 0 00-1.88-1.965z"/><path d="M71.085 35.018v8.685h1.406a1.91 1.91 0 011.96 1.951 1.901 1.901 0 01-1.94 1.906c-2.254.02-4.508.02-6.76 0a1.917 1.917 0 01-1.82-1.206 1.936 1.936 0 011.818-2.654c.448-.013.9 0 1.446 0V23.08c0-1.598.722-2.323 2.322-2.323h14.685c.905 0 1.659.214 2.1 1.066.44.852.167 1.603-.364 2.324-.942 1.29-1.85 2.581-2.794 3.903.968 1.247 1.925 2.484 2.887 3.718.451.58.64 1.21.376 1.925a1.821 1.821 0 01-1.547 1.273 8.032 8.032 0 01-.898.044H71.918l-.833.008zm9.704-10.327h-9.696v6.426h9.503l-1.223-1.585c-.774-.994-.774-1.738-.067-2.752l1.483-2.089zM20.523 67.864c.031-5.132 3.738-9.32 8.742-9.833a9.665 9.665 0 016.703 1.85 9.68 9.68 0 013.73 5.874c.463 2.236.115 4.45-.38 6.635-1.194 5.29-3.807 9.81-7.592 13.66-.93.95-2.063.942-3 0-4.328-4.425-7.088-9.648-7.98-15.81-.114-.79-.15-1.586-.223-2.376zm9.687 14.091a5.71 5.71 0 00.47-.532c1.03-1.598 2.184-3.137 3.053-4.82 1.468-2.84 2.322-5.907 2.273-9.144-.057-3.524-3.385-6.157-6.836-5.489-3.015.586-4.94 3.098-4.713 6.4.356 5.135 2.42 9.589 5.753 13.585z"/><path d="M30.23 69.597a1.965 1.965 0 01-1.924-1.929 1.936 1.936 0 011.97-1.934 1.926 1.926 0 011.891 1.947 1.968 1.968 0 01-1.937 1.916z"/></g><defs><filter id="filter0_f_4522_15507" x=".523" y=".757" width="106.004" height="106.002" filterUnits="userSpaceOnUse" color-interpolation-filters="sRGB"><feFlood flood-opacity="0" result="BackgroundImageFix"/><feBlend in="SourceGraphic" in2="BackgroundImageFix" result="shape"/><feGaussianBlur stdDeviation="10" result="effect1_foregroundBlur_4522_15507"/></filter><filter id="filter1_f_4522_15507" x="10.523" y="10.757" width="86.004" height="86.002" filterUnits="userSpaceOnUse" color-interpolation-filters="sRGB"><feFlood flood-opacity="0" result="BackgroundImageFix"/><feBlend in="SourceGraphic" in2="BackgroundImageFix" result="shape"/><feGaussianBlur stdDeviation="5" result="effect1_foregroundBlur_4522_15507"/></filter><filter id="filter2_f_4522_15507" x="15.523" y="15.757" width="76.004" height="76.002" filterUnits="userSpaceOnUse" color-interpolation-filters="sRGB"><feFlood flood-opacity="0" result="BackgroundImageFix"/><feBlend in="SourceGraphic" in2="BackgroundImageFix" result="shape"/><feGaussianBlur stdDeviation="2.5" result="effect1_foregroundBlur_4522_15507"/></filter><filter id="filter3_d_4522_15507" x="16.523" y="20.757" width="74.004" height="74.002" filterUnits="userSpaceOnUse" color-interpolation-filters="sRGB"><feFlood flood-opacity="0" result="BackgroundImageFix"/><feColorMatrix in="SourceAlpha" values="0 0 0 0 0 0 0 0 0 0 0 0 0 0 0 0 0 0 127 0" result="hardAlpha"/><feOffset dy="4"/><feGaussianBlur stdDeviation="2"/><feComposite in2="hardAlpha" operator="out"/><feColorMatrix values="0 0 0 0 0 0 0 0 0 0 0 0 0 0 0 0 0 0 0.25 0"/><feBlend in2="BackgroundImageFix" result="effect1_dropShadow_4522_15507"/><feBlend in="SourceGraphic" in2="effect1_dropShadow_4522_15507" result="shape"/></filter></defs></svg>