<svg width="102" height="102" fill="none" xmlns="http://www.w3.org/2000/svg"><g filter="url(#filter0_f_4264_13683)"><path d="M49.65 37.25c1.755-1.765 3.39-3.41 5.029-5.054l9.682-9.68c2.344-2.342 5.22-2.347 7.557 0l7.83 7.827c2.306 2.311 2.306 5.204 0 7.517-4.713 4.714-9.428 9.427-14.147 14.138-.18.157-.374.299-.577.424l-.055.272c.218.103.423.231.61.382 4.412 4.399 8.819 8.805 13.22 13.217a9.015 9.015 0 01.653 12.084c-3.305 4.118-9.52 4.55-13.293.844-4.488-4.41-8.91-8.884-13.355-13.336a4.106 4.106 0 01-.41-.582l-.284-.036a3.339 3.339 0 01-.381.601A9815.498 9815.498 0 0137.63 79.972c-2.385 2.397-5.246 2.385-7.631 0-2.598-2.595-5.194-5.19-7.789-7.786-2.301-2.304-2.294-5.202.02-7.513 4.729-4.73 9.459-9.456 14.189-14.18.169-.14.352-.26.546-.363l.021-.283c-.2-.094-.39-.21-.563-.349-3.1-3.1-6.188-6.215-9.3-9.3a14.467 14.467 0 01-4.007-7.096c-.796-3.338-1.669-6.644-2.49-9.973a2.37 2.37 0 01.091-1.319 1.67 1.67 0 012.013-.97c3.747.94 7.498 1.86 11.23 2.861 2.227.599 4.114 1.83 5.742 3.463a4063.29 4063.29 0 009.509 9.516c.155.182.302.373.438.57zm13.046 12.44c-1.764-1.76-3.555-3.533-5.33-5.322a1.783 1.783 0 01-.057-2.56c.716-.716 1.784-.716 2.559.025.575.549 1.128 1.117 1.688 1.67l3.609 3.642 2.783-2.774c-.837-.832-1.72-1.715-2.61-2.592a1.81 1.81 0 01-.605-1.546 1.693 1.693 0 011.128-1.478 1.7 1.7 0 011.908.417c.932.913 1.843 1.843 2.709 2.712l2.785-2.788c-.374-.356-.796-.742-1.192-1.145-1.39-1.386-2.785-2.769-4.164-4.171a1.78 1.78 0 01-.303-2.187 1.688 1.688 0 011.937-.813c.392.128.75.347 1.042.639 1.617 1.58 3.205 3.19 4.805 4.789.148.147.303.29.444.422.054-.03.107-.062.157-.098.45-.448.904-.892 1.35-1.345.74-.756.742-1.467-.014-2.223a4797.758 4797.758 0 00-8.04-8.04c-.806-.8-1.492-.793-2.306.022l-42.3 42.305c-.83.833-.826 1.507.014 2.35l5.554 5.556c.842.842 1.67 1.691 2.53 2.52.599.585 1.304.673 1.867.175.601-.534 1.138-1.145 1.717-1.741-.15-.157-.281-.303-.417-.441-.785-.787-1.583-1.562-2.351-2.364a1.76 1.76 0 01-.296-2.091 1.653 1.653 0 011.843-.89c.434.12.832.347 1.157.659.892.834 1.734 1.726 2.564 2.563l2.77-2.766c-1.719-1.717-3.476-3.465-5.23-5.22-.843-.845-.903-1.949-.154-2.69.749-.742 1.817-.692 2.688.173a977.481 977.481 0 014.8 4.796c.15.153.31.296.43.41l2.732-2.73a15.8 15.8 0 00-.374-.398c-.782-.787-1.586-1.555-2.35-2.361a1.773 1.773 0 01.857-3 1.756 1.756 0 011.729.546l2.623 2.647 2.826-2.824a3.622 3.622 0 01-.477-.353c-1.59-1.579-3.183-3.155-4.748-4.77a2.656 2.656 0 01-.65-1.099 1.67 1.67 0 01.87-1.908 1.82 1.82 0 012.184.372c1.648 1.634 3.284 3.28 4.925 4.92.147.148.305.286.388.363l2.69-2.652a55.23 55.23 0 00-.362-.384c-.782-.787-1.588-1.555-2.35-2.364a1.77 1.77 0 01.716-2.945 1.77 1.77 0 011.908.503l2.635 2.645 2.76-2.769zm-.374 20.55l7.596-7.594-7.393-7.374c-2.511 2.514-5.07 5.07-7.586 7.586l7.383 7.382zm2.623 2.642c1.267 1.292 2.47 2.611 3.77 3.816a5.413 5.413 0 007.53-.136 5.423 5.423 0 00.214-7.527c-1.204-1.311-2.511-2.535-3.773-3.794-.024-.024-.071-.024-.083-.029a2176 2176 0 01-7.643 7.677l-.015-.007zm-26.611-41.95c-1.67-1.941-3.597-3.453-6.153-4.033-1.352-.305-2.69-.67-4.033-1.008l-3.338-.842a.948.948 0 000 .238l1.943 7.653c.608 2.385 2.127 4.15 3.897 5.695a6216.08 6216.08 0 017.698-7.703h-.014zm2.623 2.676l-7.596 7.586 6.067 6.05 7.598-7.578-6.07-6.058z" fill="#15F2FD"/></g><g filter="url(#filter1_f_4264_13683)"><path d="M49.65 37.25c1.755-1.765 3.39-3.41 5.029-5.054l9.682-9.68c2.344-2.342 5.22-2.347 7.557 0l7.83 7.827c2.306 2.311 2.306 5.204 0 7.517-4.713 4.714-9.428 9.427-14.147 14.138-.18.157-.374.299-.577.424l-.055.272c.218.103.423.231.61.382 4.412 4.399 8.819 8.805 13.22 13.217a9.015 9.015 0 01.653 12.084c-3.305 4.118-9.52 4.55-13.293.844-4.488-4.41-8.91-8.884-13.355-13.336a4.106 4.106 0 01-.41-.582l-.284-.036a3.339 3.339 0 01-.381.601A9815.498 9815.498 0 0137.63 79.972c-2.385 2.397-5.246 2.385-7.631 0-2.598-2.595-5.194-5.19-7.789-7.786-2.301-2.304-2.294-5.202.02-7.513 4.729-4.73 9.459-9.456 14.189-14.18.169-.14.352-.26.546-.363l.021-.283c-.2-.094-.39-.21-.563-.349-3.1-3.1-6.188-6.215-9.3-9.3a14.467 14.467 0 01-4.007-7.096c-.796-3.338-1.669-6.644-2.49-9.973a2.37 2.37 0 01.091-1.319 1.67 1.67 0 012.013-.97c3.747.94 7.498 1.86 11.23 2.861 2.227.599 4.114 1.83 5.742 3.463a4063.29 4063.29 0 009.509 9.516c.155.182.302.373.438.57zm13.046 12.44c-1.764-1.76-3.555-3.533-5.33-5.322a1.783 1.783 0 01-.057-2.56c.716-.716 1.784-.716 2.559.025.575.549 1.128 1.117 1.688 1.67l3.609 3.642 2.783-2.774c-.837-.832-1.72-1.715-2.61-2.592a1.81 1.81 0 01-.605-1.546 1.693 1.693 0 011.128-1.478 1.7 1.7 0 011.908.417c.932.913 1.843 1.843 2.709 2.712l2.785-2.788c-.374-.356-.796-.742-1.192-1.145-1.39-1.386-2.785-2.769-4.164-4.171a1.78 1.78 0 01-.303-2.187 1.688 1.688 0 011.937-.813c.392.128.75.347 1.042.639 1.617 1.58 3.205 3.19 4.805 4.789.148.147.303.29.444.422.054-.03.107-.062.157-.098.45-.448.904-.892 1.35-1.345.74-.756.742-1.467-.014-2.223a4797.758 4797.758 0 00-8.04-8.04c-.806-.8-1.492-.793-2.306.022l-42.3 42.305c-.83.833-.826 1.507.014 2.35l5.554 5.556c.842.842 1.67 1.691 2.53 2.52.599.585 1.304.673 1.867.175.601-.534 1.138-1.145 1.717-1.741-.15-.157-.281-.303-.417-.441-.785-.787-1.583-1.562-2.351-2.364a1.76 1.76 0 01-.296-2.091 1.653 1.653 0 011.843-.89c.434.12.832.347 1.157.659.892.834 1.734 1.726 2.564 2.563l2.77-2.766c-1.719-1.717-3.476-3.465-5.23-5.22-.843-.845-.903-1.949-.154-2.69.749-.742 1.817-.692 2.688.173a977.481 977.481 0 014.8 4.796c.15.153.31.296.43.41l2.732-2.73a15.8 15.8 0 00-.374-.398c-.782-.787-1.586-1.555-2.35-2.361a1.773 1.773 0 01.857-3 1.756 1.756 0 011.729.546l2.623 2.647 2.826-2.824a3.622 3.622 0 01-.477-.353c-1.59-1.579-3.183-3.155-4.748-4.77a2.656 2.656 0 01-.65-1.099 1.67 1.67 0 01.87-1.908 1.82 1.82 0 012.184.372c1.648 1.634 3.284 3.28 4.925 4.92.147.148.305.286.388.363l2.69-2.652a55.23 55.23 0 00-.362-.384c-.782-.787-1.588-1.555-2.35-2.364a1.77 1.77 0 01.716-2.945 1.77 1.77 0 011.908.503l2.635 2.645 2.76-2.769zm-.374 20.55l7.596-7.594-7.393-7.374c-2.511 2.514-5.07 5.07-7.586 7.586l7.383 7.382zm2.623 2.642c1.267 1.292 2.47 2.611 3.77 3.816a5.413 5.413 0 007.53-.136 5.423 5.423 0 00.214-7.527c-1.204-1.311-2.511-2.535-3.773-3.794-.024-.024-.071-.024-.083-.029a2176 2176 0 01-7.643 7.677l-.015-.007zm-26.611-41.95c-1.67-1.941-3.597-3.453-6.153-4.033-1.352-.305-2.69-.67-4.033-1.008l-3.338-.842a.948.948 0 000 .238l1.943 7.653c.608 2.385 2.127 4.15 3.897 5.695a6216.08 6216.08 0 017.698-7.703h-.014zm2.623 2.676l-7.596 7.586 6.067 6.05 7.598-7.578-6.07-6.058z" fill="#15F2FD"/></g><g filter="url(#filter2_f_4264_13683)"><path d="M49.65 37.25c1.755-1.765 3.39-3.41 5.029-5.054l9.682-9.68c2.344-2.342 5.22-2.347 7.557 0l7.83 7.827c2.306 2.311 2.306 5.204 0 7.517-4.713 4.714-9.428 9.427-14.147 14.138-.18.157-.374.299-.577.424l-.055.272c.218.103.423.231.61.382 4.412 4.399 8.819 8.805 13.22 13.217a9.015 9.015 0 01.653 12.084c-3.305 4.118-9.52 4.55-13.293.844-4.488-4.41-8.91-8.884-13.355-13.336a4.106 4.106 0 01-.41-.582l-.284-.036a3.339 3.339 0 01-.381.601A9815.498 9815.498 0 0137.63 79.972c-2.385 2.397-5.246 2.385-7.631 0-2.598-2.595-5.194-5.19-7.789-7.786-2.301-2.304-2.294-5.202.02-7.513 4.729-4.73 9.459-9.456 14.189-14.18.169-.14.352-.26.546-.363l.021-.283c-.2-.094-.39-.21-.563-.349-3.1-3.1-6.188-6.215-9.3-9.3a14.467 14.467 0 01-4.007-7.096c-.796-3.338-1.669-6.644-2.49-9.973a2.37 2.37 0 01.091-1.319 1.67 1.67 0 012.013-.97c3.747.94 7.498 1.86 11.23 2.861 2.227.599 4.114 1.83 5.742 3.463a4063.29 4063.29 0 009.509 9.516c.155.182.302.373.438.57zm13.046 12.44c-1.764-1.76-3.555-3.533-5.33-5.322a1.783 1.783 0 01-.057-2.56c.716-.716 1.784-.716 2.559.025.575.549 1.128 1.117 1.688 1.67l3.609 3.642 2.783-2.774c-.837-.832-1.72-1.715-2.61-2.592a1.81 1.81 0 01-.605-1.546 1.693 1.693 0 011.128-1.478 1.7 1.7 0 011.908.417c.932.913 1.843 1.843 2.709 2.712l2.785-2.788c-.374-.356-.796-.742-1.192-1.145-1.39-1.386-2.785-2.769-4.164-4.171a1.78 1.78 0 01-.303-2.187 1.688 1.688 0 011.937-.813c.392.128.75.347 1.042.639 1.617 1.58 3.205 3.19 4.805 4.789.148.147.303.29.444.422.054-.03.107-.062.157-.098.45-.448.904-.892 1.35-1.345.74-.756.742-1.467-.014-2.223a4797.758 4797.758 0 00-8.04-8.04c-.806-.8-1.492-.793-2.306.022l-42.3 42.305c-.83.833-.826 1.507.014 2.35l5.554 5.556c.842.842 1.67 1.691 2.53 2.52.599.585 1.304.673 1.867.175.601-.534 1.138-1.145 1.717-1.741-.15-.157-.281-.303-.417-.441-.785-.787-1.583-1.562-2.351-2.364a1.76 1.76 0 01-.296-2.091 1.653 1.653 0 011.843-.89c.434.12.832.347 1.157.659.892.834 1.734 1.726 2.564 2.563l2.77-2.766c-1.719-1.717-3.476-3.465-5.23-5.22-.843-.845-.903-1.949-.154-2.69.749-.742 1.817-.692 2.688.173a977.481 977.481 0 014.8 4.796c.15.153.31.296.43.41l2.732-2.73a15.8 15.8 0 00-.374-.398c-.782-.787-1.586-1.555-2.35-2.361a1.773 1.773 0 01.857-3 1.756 1.756 0 011.729.546l2.623 2.647 2.826-2.824a3.622 3.622 0 01-.477-.353c-1.59-1.579-3.183-3.155-4.748-4.77a2.656 2.656 0 01-.65-1.099 1.67 1.67 0 01.87-1.908 1.82 1.82 0 012.184.372c1.648 1.634 3.284 3.28 4.925 4.92.147.148.305.286.388.363l2.69-2.652a55.23 55.23 0 00-.362-.384c-.782-.787-1.588-1.555-2.35-2.364a1.77 1.77 0 01.716-2.945 1.77 1.77 0 011.908.503l2.635 2.645 2.76-2.769zm-.374 20.55l7.596-7.594-7.393-7.374c-2.511 2.514-5.07 5.07-7.586 7.586l7.383 7.382zm2.623 2.642c1.267 1.292 2.47 2.611 3.77 3.816a5.413 5.413 0 007.53-.136 5.423 5.423 0 00.214-7.527c-1.204-1.311-2.511-2.535-3.773-3.794-.024-.024-.071-.024-.083-.029a2176 2176 0 01-7.643 7.677l-.015-.007zm-26.611-41.95c-1.67-1.941-3.597-3.453-6.153-4.033-1.352-.305-2.69-.67-4.033-1.008l-3.338-.842a.948.948 0 000 .238l1.943 7.653c.608 2.385 2.127 4.15 3.897 5.695a6216.08 6216.08 0 017.698-7.703h-.014zm2.623 2.676l-7.596 7.586 6.067 6.05 7.598-7.578-6.07-6.058z" fill="#15F2FD"/></g><g filter="url(#filter3_d_4264_13683)"><path d="M49.65 37.25c1.755-1.765 3.39-3.41 5.029-5.054l9.682-9.68c2.344-2.342 5.22-2.347 7.557 0l7.83 7.827c2.306 2.311 2.306 5.204 0 7.517-4.713 4.714-9.428 9.427-14.147 14.138-.18.157-.374.299-.577.424l-.055.272c.218.103.423.231.61.382 4.412 4.399 8.819 8.805 13.22 13.217a9.015 9.015 0 01.653 12.084c-3.305 4.118-9.52 4.55-13.293.844-4.488-4.41-8.91-8.884-13.355-13.336a4.106 4.106 0 01-.41-.582l-.284-.036a3.339 3.339 0 01-.381.601A9815.498 9815.498 0 0137.63 79.972c-2.385 2.397-5.246 2.385-7.631 0-2.598-2.595-5.194-5.19-7.789-7.786-2.301-2.304-2.294-5.202.02-7.513 4.729-4.73 9.459-9.456 14.189-14.18.169-.14.352-.26.546-.363l.021-.283c-.2-.094-.39-.21-.563-.349-3.1-3.1-6.188-6.215-9.3-9.3a14.467 14.467 0 01-4.007-7.096c-.796-3.338-1.669-6.644-2.49-9.973a2.37 2.37 0 01.091-1.319 1.67 1.67 0 012.013-.97c3.747.94 7.498 1.86 11.23 2.861 2.227.599 4.114 1.83 5.742 3.463a4063.29 4063.29 0 009.509 9.516c.155.182.302.373.438.57zm13.046 12.44c-1.764-1.76-3.555-3.533-5.33-5.322a1.783 1.783 0 01-.057-2.56c.716-.716 1.784-.716 2.559.025.575.549 1.128 1.117 1.688 1.67l3.609 3.642 2.783-2.774c-.837-.832-1.72-1.715-2.61-2.592a1.81 1.81 0 01-.605-1.546 1.693 1.693 0 011.128-1.478 1.7 1.7 0 011.908.417c.932.913 1.843 1.843 2.709 2.712l2.785-2.788c-.374-.356-.796-.742-1.192-1.145-1.39-1.386-2.785-2.769-4.164-4.171a1.78 1.78 0 01-.303-2.187 1.688 1.688 0 011.937-.813c.392.128.75.347 1.042.639 1.617 1.58 3.205 3.19 4.805 4.789.148.147.303.29.444.422.054-.03.107-.062.157-.098.45-.448.904-.892 1.35-1.345.74-.756.742-1.467-.014-2.223a4797.758 4797.758 0 00-8.04-8.04c-.806-.8-1.492-.793-2.306.022l-42.3 42.305c-.83.833-.826 1.507.014 2.35l5.554 5.556c.842.842 1.67 1.691 2.53 2.52.599.585 1.304.673 1.867.175.601-.534 1.138-1.145 1.717-1.741-.15-.157-.281-.303-.417-.441-.785-.787-1.583-1.562-2.351-2.364a1.76 1.76 0 01-.296-2.091 1.653 1.653 0 011.843-.89c.434.12.832.347 1.157.659.892.834 1.734 1.726 2.564 2.563l2.77-2.766c-1.719-1.717-3.476-3.465-5.23-5.22-.843-.845-.903-1.949-.154-2.69.749-.742 1.817-.692 2.688.173a977.481 977.481 0 014.8 4.796c.15.153.31.296.43.41l2.732-2.73a15.8 15.8 0 00-.374-.398c-.782-.787-1.586-1.555-2.35-2.361a1.773 1.773 0 01.857-3 1.756 1.756 0 011.729.546l2.623 2.647 2.826-2.824a3.622 3.622 0 01-.477-.353c-1.59-1.579-3.183-3.155-4.748-4.77a2.656 2.656 0 01-.65-1.099 1.67 1.67 0 01.87-1.908 1.82 1.82 0 012.184.372c1.648 1.634 3.284 3.28 4.925 4.92.147.148.305.286.388.363l2.69-2.652a55.23 55.23 0 00-.362-.384c-.782-.787-1.588-1.555-2.35-2.364a1.77 1.77 0 01.716-2.945 1.77 1.77 0 011.908.503l2.635 2.645 2.76-2.769zm-.374 20.55l7.596-7.594-7.393-7.374c-2.511 2.514-5.07 5.07-7.586 7.586l7.383 7.382zm2.623 2.642c1.267 1.292 2.47 2.611 3.77 3.816a5.413 5.413 0 007.53-.136 5.423 5.423 0 00.214-7.527c-1.204-1.311-2.511-2.535-3.773-3.794-.024-.024-.071-.024-.083-.029a2176 2176 0 01-7.643 7.677l-.015-.007zm-26.611-41.95c-1.67-1.941-3.597-3.453-6.153-4.033-1.352-.305-2.69-.67-4.033-1.008l-3.338-.842a.948.948 0 000 .238l1.943 7.653c.608 2.385 2.127 4.15 3.897 5.695a6216.08 6216.08 0 017.698-7.703h-.014zm2.623 2.676l-7.596 7.586 6.067 6.05 7.598-7.578-6.07-6.058z" fill="#fff"/></g><defs><filter id="filter0_f_4264_13683" x=".489" y=".758" width="100.988" height="101.008" filterUnits="userSpaceOnUse" color-interpolation-filters="sRGB"><feFlood flood-opacity="0" result="BackgroundImageFix"/><feBlend in="SourceGraphic" in2="BackgroundImageFix" result="shape"/><feGaussianBlur stdDeviation="10" result="effect1_foregroundBlur_4264_13683"/></filter><filter id="filter1_f_4264_13683" x="10.489" y="10.758" width="80.988" height="81.008" filterUnits="userSpaceOnUse" color-interpolation-filters="sRGB"><feFlood flood-opacity="0" result="BackgroundImageFix"/><feBlend in="SourceGraphic" in2="BackgroundImageFix" result="shape"/><feGaussianBlur stdDeviation="5" result="effect1_foregroundBlur_4264_13683"/></filter><filter id="filter2_f_4264_13683" x="15.489" y="15.758" width="70.988" height="71.008" filterUnits="userSpaceOnUse" color-interpolation-filters="sRGB"><feFlood flood-opacity="0" result="BackgroundImageFix"/><feBlend in="SourceGraphic" in2="BackgroundImageFix" result="shape"/><feGaussianBlur stdDeviation="2.5" result="effect1_foregroundBlur_4264_13683"/></filter><filter id="filter3_d_4264_13683" x="16.489" y="20.758" width="68.988" height="69.008" filterUnits="userSpaceOnUse" color-interpolation-filters="sRGB"><feFlood flood-opacity="0" result="BackgroundImageFix"/><feColorMatrix in="SourceAlpha" values="0 0 0 0 0 0 0 0 0 0 0 0 0 0 0 0 0 0 127 0" result="hardAlpha"/><feOffset dy="4"/><feGaussianBlur stdDeviation="2"/><feComposite in2="hardAlpha" operator="out"/><feColorMatrix values="0 0 0 0 0 0 0 0 0 0 0 0 0 0 0 0 0 0 0.25 0"/><feBlend in2="BackgroundImageFix" result="effect1_dropShadow_4264_13683"/><feBlend in="SourceGraphic" in2="effect1_dropShadow_4264_13683" result="shape"/></filter></defs></svg>