<svg width="105" height="105" fill="none" xmlns="http://www.w3.org/2000/svg"><g filter="url(#filter0_f_4522_15508)" fill="#15F2FD"><path d="M40.107 56.976c-.383-.937-.25-1.87.062-2.798.544-1.592 1.078-3.19 1.639-4.778.267-.75.115-1.052-.682-1.092-2.254-.11-4.238.525-5.916 2.055l-.093.085c-.433.44-.939.63-1.53.375-.591-.255-.771-.765-.751-1.38a19.077 19.077 0 012.184-8.069 16.285 16.285 0 012.963-4.158c3.256-3.25 7.316-3.863 11.399-1.73l.606.32c.228-.25.46-.515.689-.78 4.673-5.393 10.52-9.04 17.167-11.501a57.662 57.662 0 0115.028-3.343 8.28 8.28 0 01.5-.033c1.085-.035 1.651.473 1.541 1.54-.2 1.946-.4 3.898-.751 5.821-1.1 6.131-3.073 11.957-6.247 17.35a38.305 38.305 0 01-8.168 9.72c-.157.134-.31.273-.423.373.406 1.043.894 2.018 1.17 3.05.796 3.001.14 5.702-1.829 8.07-2.352 2.827-5.47 4.465-8.954 5.407-1.355.368-2.788.468-4.188.655a1.181 1.181 0 01-1.32-.75c-.25-.56-.082-1.05.33-1.482 1.589-1.656 2.273-3.648 2.197-5.919-.032-.937-.293-1.085-1.16-.78a138.4 138.4 0 01-4.73 1.603c-1.378.43-1.483.398-2.813.11-.035.023-.083.04-.098.073-1.503 3.125-4.008 5.02-7.304 5.87-2.031.523-4.11.878-6.179 1.25-1.037.18-1.703-.452-1.598-1.457.293-2.803.844-5.548 1.924-8.174.957-2.322 2.597-4 4.774-5.173l.443-.235c.033.008.043-.012.118-.095zm39.073-20.57a3.912 3.912 0 00-.283-.345c-3.29-3.288-6.577-6.576-9.86-9.86a.604.604 0 00-.752-.163c-3.93 1.517-7.645 3.435-10.933 6.085-5.293 4.263-9.173 9.624-12.113 15.702a.552.552 0 00.148.75c3.695 3.667 7.383 7.35 11.063 11.049a.612.612 0 00.862.13c1.317-.718 2.672-1.368 3.962-2.128 8.266-4.875 14.362-11.621 17.71-20.7.046-.147.108-.302.196-.52zM35.598 46.98c2.568-1.148 5.01-1.563 7.482-.837l5.154-8.386c-1.923-1.403-5.039-1.368-7.226.187-2.316 1.645-3.666 3.985-4.648 6.573-.26.75-.469 1.533-.762 2.463zm22.543 22.265c.077.02.12.045.155.038 3.364-.793 6.38-2.216 8.578-4.973 1.811-2.273 1.91-5.409.424-7.526l-8.481 5.195c.791 1.448.576 3.998-.664 7.266h-.012zm-22.605.223a25.783 25.783 0 006.026-1.56c1.941-.788 3.229-2.218 4.138-4.051.193-.388.183-.65-.158-.973a96.35 96.35 0 01-3.359-3.355c-.378-.403-.676-.4-1.13-.17-1.83.925-3.23 2.25-4.007 4.18a25.265 25.265 0 00-1.498 5.929h-.012zm44.583-35.912a55.59 55.59 0 002.184-10.791 55.878 55.878 0 00-10.805 2.185 2793.36 2793.36 0 018.641 8.606h-.02zM54.21 61.159c-3.507-3.485-6.891-6.876-10.35-10.331-.459 1.47-.914 2.975-1.398 4.47a1.203 1.203 0 00.348 1.308c1.866 1.875 3.732 3.75 5.628 5.596.25.235.71.465 1.002.392 1.608-.435 3.204-.935 4.77-1.435zM22.915 84.162c-1.18-.015-1.779-1.028-1.325-1.84.108-.178.24-.34.393-.48 2.695-2.696 5.382-5.398 8.102-8.066.318-.317.738-.51 1.185-.548.964 0 1.46 1.143.904 1.94a2.935 2.935 0 01-.335.37 1826.932 1826.932 0 01-8.055 8.026 4.88 4.88 0 01-.87.598zm10.021 0c-1.152 0-1.753-.97-1.353-1.78a2 2 0 01.371-.5c2.725-2.726 5.443-5.456 8.193-8.154a1.805 1.805 0 011.14-.5c.964 0 1.462 1.143.906 1.94-.1.134-.21.257-.333.37-2.68 2.68-5.365 5.354-8.055 8.026-.267.23-.559.43-.87.598zM22.043 73.73c-.403-.31-.862-.5-1.02-.832-.157-.332-.065-.82 0-1.227.026-.173.25-.326.394-.47 2.671-2.668 5.338-5.335 8-8.001.128-.137.267-.264.415-.378a1.254 1.254 0 011.558.08 1.222 1.222 0 01.213 1.585c-.116.172-.251.33-.403.473a6023.732 6023.732 0 01-8.015 7.986 7.98 7.98 0 01-1.142.785z"/><path d="M27.54 58.344c.117-.28.272-.542.462-.778a184.585 184.585 0 013.346-3.358c.574-.565 1.325-.6 1.838-.115.514.485.534 1.25-.067 1.873a332.784 332.784 0 01-3.4 3.395 1.205 1.205 0 01-1.424.308c-.486-.212-.73-.595-.754-1.325zm18.851 19.22c-.318-.25-.734-.455-.982-.785a.999.999 0 01.116-1.328c1.23-1.268 2.474-2.52 3.757-3.75a1.163 1.163 0 011.64.085 1.191 1.191 0 01.093 1.64 151.676 151.676 0 01-3.757 3.75c-.176.175-.476.22-.867.388zM65.99 45.322a6.233 6.233 0 01-4.426-1.805 6.209 6.209 0 01-1.835-4.408 6.24 6.24 0 011.823-4.44 6.262 6.262 0 014.438-1.84 6.294 6.294 0 014.409 1.844 6.273 6.273 0 011.836 4.406 6.246 6.246 0 01-1.83 4.41 6.268 6.268 0 01-4.415 1.833zm-.015-2.5a3.742 3.742 0 002.651-1.08 3.728 3.728 0 00.823-4.082 3.75 3.75 0 00-2.05-2.041 3.746 3.746 0 00-4.083.83 3.732 3.732 0 00-1.08 2.64 3.698 3.698 0 001.089 2.645 3.71 3.71 0 002.65 1.083v.005zM59.032 44.8c.31.25.712.48.96.815a.98.98 0 01-.108 1.273c-.646.7-1.315 1.385-2.026 2.02a1.171 1.171 0 01-1.593-.083c-.441-.415-.569-1.12-.163-1.58.656-.75 1.382-1.43 2.109-2.11.165-.155.446-.188.821-.335zm-5.425 7.893a1.214 1.214 0 01-1.252-1.192 1.233 1.233 0 011.252-1.288 1.254 1.254 0 011.252 1.235 1.232 1.232 0 01-1.252 1.245z"/></g><g filter="url(#filter1_f_4522_15508)" fill="#15F2FD"><path d="M40.107 56.976c-.383-.937-.25-1.87.062-2.798.544-1.592 1.078-3.19 1.639-4.778.267-.75.115-1.052-.682-1.092-2.254-.11-4.238.525-5.916 2.055l-.093.085c-.433.44-.939.63-1.53.375-.591-.255-.771-.765-.751-1.38a19.077 19.077 0 012.184-8.069 16.285 16.285 0 012.963-4.158c3.256-3.25 7.316-3.863 11.399-1.73l.606.32c.228-.25.46-.515.689-.78 4.673-5.393 10.52-9.04 17.167-11.501a57.662 57.662 0 0115.028-3.343 8.28 8.28 0 01.5-.033c1.085-.035 1.651.473 1.541 1.54-.2 1.946-.4 3.898-.751 5.821-1.1 6.131-3.073 11.957-6.247 17.35a38.305 38.305 0 01-8.168 9.72c-.157.134-.31.273-.423.373.406 1.043.894 2.018 1.17 3.05.796 3.001.14 5.702-1.829 8.07-2.352 2.827-5.47 4.465-8.954 5.407-1.355.368-2.788.468-4.188.655a1.181 1.181 0 01-1.32-.75c-.25-.56-.082-1.05.33-1.482 1.589-1.656 2.273-3.648 2.197-5.919-.032-.937-.293-1.085-1.16-.78a138.4 138.4 0 01-4.73 1.603c-1.378.43-1.483.398-2.813.11-.035.023-.083.04-.098.073-1.503 3.125-4.008 5.02-7.304 5.87-2.031.523-4.11.878-6.179 1.25-1.037.18-1.703-.452-1.598-1.457.293-2.803.844-5.548 1.924-8.174.957-2.322 2.597-4 4.774-5.173l.443-.235c.033.008.043-.012.118-.095zm39.073-20.57a3.912 3.912 0 00-.283-.345c-3.29-3.288-6.577-6.576-9.86-9.86a.604.604 0 00-.752-.163c-3.93 1.517-7.645 3.435-10.933 6.085-5.293 4.263-9.173 9.624-12.113 15.702a.552.552 0 00.148.75c3.695 3.667 7.383 7.35 11.063 11.049a.612.612 0 00.862.13c1.317-.718 2.672-1.368 3.962-2.128 8.266-4.875 14.362-11.621 17.71-20.7.046-.147.108-.302.196-.52zM35.598 46.98c2.568-1.148 5.01-1.563 7.482-.837l5.154-8.386c-1.923-1.403-5.039-1.368-7.226.187-2.316 1.645-3.666 3.985-4.648 6.573-.26.75-.469 1.533-.762 2.463zm22.543 22.265c.077.02.12.045.155.038 3.364-.793 6.38-2.216 8.578-4.973 1.811-2.273 1.91-5.409.424-7.526l-8.481 5.195c.791 1.448.576 3.998-.664 7.266h-.012zm-22.605.223a25.783 25.783 0 006.026-1.56c1.941-.788 3.229-2.218 4.138-4.051.193-.388.183-.65-.158-.973a96.35 96.35 0 01-3.359-3.355c-.378-.403-.676-.4-1.13-.17-1.83.925-3.23 2.25-4.007 4.18a25.265 25.265 0 00-1.498 5.929h-.012zm44.583-35.912a55.59 55.59 0 002.184-10.791 55.878 55.878 0 00-10.805 2.185 2793.36 2793.36 0 018.641 8.606h-.02zM54.21 61.159c-3.507-3.485-6.891-6.876-10.35-10.331-.459 1.47-.914 2.975-1.398 4.47a1.203 1.203 0 00.348 1.308c1.866 1.875 3.732 3.75 5.628 5.596.25.235.71.465 1.002.392 1.608-.435 3.204-.935 4.77-1.435zM22.915 84.162c-1.18-.015-1.779-1.028-1.325-1.84.108-.178.24-.34.393-.48 2.695-2.696 5.382-5.398 8.102-8.066.318-.317.738-.51 1.185-.548.964 0 1.46 1.143.904 1.94a2.935 2.935 0 01-.335.37 1826.932 1826.932 0 01-8.055 8.026 4.88 4.88 0 01-.87.598zm10.021 0c-1.152 0-1.753-.97-1.353-1.78a2 2 0 01.371-.5c2.725-2.726 5.443-5.456 8.193-8.154a1.805 1.805 0 011.14-.5c.964 0 1.462 1.143.906 1.94-.1.134-.21.257-.333.37-2.68 2.68-5.365 5.354-8.055 8.026-.267.23-.559.43-.87.598zM22.043 73.73c-.403-.31-.862-.5-1.02-.832-.157-.332-.065-.82 0-1.227.026-.173.25-.326.394-.47 2.671-2.668 5.338-5.335 8-8.001.128-.137.267-.264.415-.378a1.254 1.254 0 011.558.08 1.222 1.222 0 01.213 1.585c-.116.172-.251.33-.403.473a6023.732 6023.732 0 01-8.015 7.986 7.98 7.98 0 01-1.142.785z"/><path d="M27.54 58.344c.117-.28.272-.542.462-.778a184.585 184.585 0 013.346-3.358c.574-.565 1.325-.6 1.838-.115.514.485.534 1.25-.067 1.873a332.784 332.784 0 01-3.4 3.395 1.205 1.205 0 01-1.424.308c-.486-.212-.73-.595-.754-1.325zm18.851 19.22c-.318-.25-.734-.455-.982-.785a.999.999 0 01.116-1.328c1.23-1.268 2.474-2.52 3.757-3.75a1.163 1.163 0 011.64.085 1.191 1.191 0 01.093 1.64 151.676 151.676 0 01-3.757 3.75c-.176.175-.476.22-.867.388zM65.99 45.322a6.233 6.233 0 01-4.426-1.805 6.209 6.209 0 01-1.835-4.408 6.24 6.24 0 011.823-4.44 6.262 6.262 0 014.438-1.84 6.294 6.294 0 014.409 1.844 6.273 6.273 0 011.836 4.406 6.246 6.246 0 01-1.83 4.41 6.268 6.268 0 01-4.415 1.833zm-.015-2.5a3.742 3.742 0 002.651-1.08 3.728 3.728 0 00.823-4.082 3.75 3.75 0 00-2.05-2.041 3.746 3.746 0 00-4.083.83 3.732 3.732 0 00-1.08 2.64 3.698 3.698 0 001.089 2.645 3.71 3.71 0 002.65 1.083v.005zM59.032 44.8c.31.25.712.48.96.815a.98.98 0 01-.108 1.273c-.646.7-1.315 1.385-2.026 2.02a1.171 1.171 0 01-1.593-.083c-.441-.415-.569-1.12-.163-1.58.656-.75 1.382-1.43 2.109-2.11.165-.155.446-.188.821-.335zm-5.425 7.893a1.214 1.214 0 01-1.252-1.192 1.233 1.233 0 011.252-1.288 1.254 1.254 0 011.252 1.235 1.232 1.232 0 01-1.252 1.245z"/></g><g filter="url(#filter2_f_4522_15508)" fill="#15F2FD"><path d="M40.107 56.976c-.383-.937-.25-1.87.062-2.798.544-1.592 1.078-3.19 1.639-4.778.267-.75.115-1.052-.682-1.092-2.254-.11-4.238.525-5.916 2.055l-.093.085c-.433.44-.939.63-1.53.375-.591-.255-.771-.765-.751-1.38a19.077 19.077 0 012.184-8.069 16.285 16.285 0 012.963-4.158c3.256-3.25 7.316-3.863 11.399-1.73l.606.32c.228-.25.46-.515.689-.78 4.673-5.393 10.52-9.04 17.167-11.501a57.662 57.662 0 0115.028-3.343 8.28 8.28 0 01.5-.033c1.085-.035 1.651.473 1.541 1.54-.2 1.946-.4 3.898-.751 5.821-1.1 6.131-3.073 11.957-6.247 17.35a38.305 38.305 0 01-8.168 9.72c-.157.134-.31.273-.423.373.406 1.043.894 2.018 1.17 3.05.796 3.001.14 5.702-1.829 8.07-2.352 2.827-5.47 4.465-8.954 5.407-1.355.368-2.788.468-4.188.655a1.181 1.181 0 01-1.32-.75c-.25-.56-.082-1.05.33-1.482 1.589-1.656 2.273-3.648 2.197-5.919-.032-.937-.293-1.085-1.16-.78a138.4 138.4 0 01-4.73 1.603c-1.378.43-1.483.398-2.813.11-.035.023-.083.04-.098.073-1.503 3.125-4.008 5.02-7.304 5.87-2.031.523-4.11.878-6.179 1.25-1.037.18-1.703-.452-1.598-1.457.293-2.803.844-5.548 1.924-8.174.957-2.322 2.597-4 4.774-5.173l.443-.235c.033.008.043-.012.118-.095zm39.073-20.57a3.912 3.912 0 00-.283-.345c-3.29-3.288-6.577-6.576-9.86-9.86a.604.604 0 00-.752-.163c-3.93 1.517-7.645 3.435-10.933 6.085-5.293 4.263-9.173 9.624-12.113 15.702a.552.552 0 00.148.75c3.695 3.667 7.383 7.35 11.063 11.049a.612.612 0 00.862.13c1.317-.718 2.672-1.368 3.962-2.128 8.266-4.875 14.362-11.621 17.71-20.7.046-.147.108-.302.196-.52zM35.598 46.98c2.568-1.148 5.01-1.563 7.482-.837l5.154-8.386c-1.923-1.403-5.039-1.368-7.226.187-2.316 1.645-3.666 3.985-4.648 6.573-.26.75-.469 1.533-.762 2.463zm22.543 22.265c.077.02.12.045.155.038 3.364-.793 6.38-2.216 8.578-4.973 1.811-2.273 1.91-5.409.424-7.526l-8.481 5.195c.791 1.448.576 3.998-.664 7.266h-.012zm-22.605.223a25.783 25.783 0 006.026-1.56c1.941-.788 3.229-2.218 4.138-4.051.193-.388.183-.65-.158-.973a96.35 96.35 0 01-3.359-3.355c-.378-.403-.676-.4-1.13-.17-1.83.925-3.23 2.25-4.007 4.18a25.265 25.265 0 00-1.498 5.929h-.012zm44.583-35.912a55.59 55.59 0 002.184-10.791 55.878 55.878 0 00-10.805 2.185 2793.36 2793.36 0 018.641 8.606h-.02zM54.21 61.159c-3.507-3.485-6.891-6.876-10.35-10.331-.459 1.47-.914 2.975-1.398 4.47a1.203 1.203 0 00.348 1.308c1.866 1.875 3.732 3.75 5.628 5.596.25.235.71.465 1.002.392 1.608-.435 3.204-.935 4.77-1.435zM22.915 84.162c-1.18-.015-1.779-1.028-1.325-1.84.108-.178.24-.34.393-.48 2.695-2.696 5.382-5.398 8.102-8.066.318-.317.738-.51 1.185-.548.964 0 1.46 1.143.904 1.94a2.935 2.935 0 01-.335.37 1826.932 1826.932 0 01-8.055 8.026 4.88 4.88 0 01-.87.598zm10.021 0c-1.152 0-1.753-.97-1.353-1.78a2 2 0 01.371-.5c2.725-2.726 5.443-5.456 8.193-8.154a1.805 1.805 0 011.14-.5c.964 0 1.462 1.143.906 1.94-.1.134-.21.257-.333.37-2.68 2.68-5.365 5.354-8.055 8.026-.267.23-.559.43-.87.598zM22.043 73.73c-.403-.31-.862-.5-1.02-.832-.157-.332-.065-.82 0-1.227.026-.173.25-.326.394-.47 2.671-2.668 5.338-5.335 8-8.001.128-.137.267-.264.415-.378a1.254 1.254 0 011.558.08 1.222 1.222 0 01.213 1.585c-.116.172-.251.33-.403.473a6023.732 6023.732 0 01-8.015 7.986 7.98 7.98 0 01-1.142.785z"/><path d="M27.54 58.344c.117-.28.272-.542.462-.778a184.585 184.585 0 013.346-3.358c.574-.565 1.325-.6 1.838-.115.514.485.534 1.25-.067 1.873a332.784 332.784 0 01-3.4 3.395 1.205 1.205 0 01-1.424.308c-.486-.212-.73-.595-.754-1.325zm18.851 19.22c-.318-.25-.734-.455-.982-.785a.999.999 0 01.116-1.328c1.23-1.268 2.474-2.52 3.757-3.75a1.163 1.163 0 011.64.085 1.191 1.191 0 01.093 1.64 151.676 151.676 0 01-3.757 3.75c-.176.175-.476.22-.867.388zM65.99 45.322a6.233 6.233 0 01-4.426-1.805 6.209 6.209 0 01-1.835-4.408 6.24 6.24 0 011.823-4.44 6.262 6.262 0 014.438-1.84 6.294 6.294 0 014.409 1.844 6.273 6.273 0 011.836 4.406 6.246 6.246 0 01-1.83 4.41 6.268 6.268 0 01-4.415 1.833zm-.015-2.5a3.742 3.742 0 002.651-1.08 3.728 3.728 0 00.823-4.082 3.75 3.75 0 00-2.05-2.041 3.746 3.746 0 00-4.083.83 3.732 3.732 0 00-1.08 2.64 3.698 3.698 0 001.089 2.645 3.71 3.71 0 002.65 1.083v.005zM59.032 44.8c.31.25.712.48.96.815a.98.98 0 01-.108 1.273c-.646.7-1.315 1.385-2.026 2.02a1.171 1.171 0 01-1.593-.083c-.441-.415-.569-1.12-.163-1.58.656-.75 1.382-1.43 2.109-2.11.165-.155.446-.188.821-.335zm-5.425 7.893a1.214 1.214 0 01-1.252-1.192 1.233 1.233 0 011.252-1.288 1.254 1.254 0 011.252 1.235 1.232 1.232 0 01-1.252 1.245z"/></g><g filter="url(#filter3_d_4522_15508)" fill="#fff"><path d="M40.107 56.976c-.383-.937-.25-1.87.062-2.798.544-1.592 1.078-3.19 1.639-4.778.267-.75.115-1.052-.682-1.092-2.254-.11-4.238.525-5.916 2.055l-.093.085c-.433.44-.939.63-1.53.375-.591-.255-.771-.765-.751-1.38a19.077 19.077 0 012.184-8.069 16.285 16.285 0 012.963-4.158c3.256-3.25 7.316-3.863 11.399-1.73l.606.32c.228-.25.46-.515.689-.78 4.673-5.393 10.52-9.04 17.167-11.501a57.662 57.662 0 0115.028-3.343 8.28 8.28 0 01.5-.033c1.085-.035 1.651.473 1.541 1.54-.2 1.946-.4 3.898-.751 5.821-1.1 6.131-3.073 11.957-6.247 17.35a38.305 38.305 0 01-8.168 9.72c-.157.134-.31.273-.423.373.406 1.043.894 2.018 1.17 3.05.796 3.001.14 5.702-1.829 8.07-2.352 2.827-5.47 4.465-8.954 5.407-1.355.368-2.788.468-4.188.655a1.181 1.181 0 01-1.32-.75c-.25-.56-.082-1.05.33-1.482 1.589-1.656 2.273-3.648 2.197-5.919-.032-.937-.293-1.085-1.16-.78a138.4 138.4 0 01-4.73 1.603c-1.378.43-1.483.398-2.813.11-.035.023-.083.04-.098.073-1.503 3.125-4.008 5.02-7.304 5.87-2.031.523-4.11.878-6.179 1.25-1.037.18-1.703-.452-1.598-1.457.293-2.803.844-5.548 1.924-8.174.957-2.322 2.597-4 4.774-5.173l.443-.235c.033.008.043-.012.118-.095zm39.073-20.57a3.912 3.912 0 00-.283-.345c-3.29-3.288-6.577-6.576-9.86-9.86a.604.604 0 00-.752-.163c-3.93 1.517-7.645 3.435-10.933 6.085-5.293 4.263-9.173 9.624-12.113 15.702a.552.552 0 00.148.75c3.695 3.667 7.383 7.35 11.063 11.049a.612.612 0 00.862.13c1.317-.718 2.672-1.368 3.962-2.128 8.266-4.875 14.362-11.621 17.71-20.7.046-.147.108-.302.196-.52zM35.598 46.98c2.568-1.148 5.01-1.563 7.482-.837l5.154-8.386c-1.923-1.403-5.039-1.368-7.226.187-2.316 1.645-3.666 3.985-4.648 6.573-.26.75-.469 1.533-.762 2.463zm22.543 22.265c.077.02.12.045.155.038 3.364-.793 6.38-2.216 8.578-4.973 1.811-2.273 1.91-5.409.424-7.526l-8.481 5.195c.791 1.448.576 3.998-.664 7.266h-.012zm-22.605.223a25.783 25.783 0 006.026-1.56c1.941-.788 3.229-2.218 4.138-4.051.193-.388.183-.65-.158-.973a96.35 96.35 0 01-3.359-3.355c-.378-.403-.676-.4-1.13-.17-1.83.925-3.23 2.25-4.007 4.18a25.265 25.265 0 00-1.498 5.929h-.012zm44.583-35.912a55.59 55.59 0 002.184-10.791 55.878 55.878 0 00-10.805 2.185 2793.36 2793.36 0 018.641 8.606h-.02zM54.21 61.159c-3.507-3.485-6.891-6.876-10.35-10.331-.459 1.47-.914 2.975-1.398 4.47a1.203 1.203 0 00.348 1.308c1.866 1.875 3.732 3.75 5.628 5.596.25.235.71.465 1.002.392 1.608-.435 3.204-.935 4.77-1.435zM22.915 84.162c-1.18-.015-1.779-1.028-1.325-1.84.108-.178.24-.34.393-.48 2.695-2.696 5.382-5.398 8.102-8.066.318-.317.738-.51 1.185-.548.964 0 1.46 1.143.904 1.94a2.935 2.935 0 01-.335.37 1826.932 1826.932 0 01-8.055 8.026 4.88 4.88 0 01-.87.598zm10.021 0c-1.152 0-1.753-.97-1.353-1.78a2 2 0 01.371-.5c2.725-2.726 5.443-5.456 8.193-8.154a1.805 1.805 0 011.14-.5c.964 0 1.462 1.143.906 1.94-.1.134-.21.257-.333.37-2.68 2.68-5.365 5.354-8.055 8.026-.267.23-.559.43-.87.598zM22.043 73.73c-.403-.31-.862-.5-1.02-.832-.157-.332-.065-.82 0-1.227.026-.173.25-.326.394-.47 2.671-2.668 5.338-5.335 8-8.001.128-.137.267-.264.415-.378a1.254 1.254 0 011.558.08 1.222 1.222 0 01.213 1.585c-.116.172-.251.33-.403.473a6023.732 6023.732 0 01-8.015 7.986 7.98 7.98 0 01-1.142.785z"/><path d="M27.54 58.344c.117-.28.272-.542.462-.778a184.585 184.585 0 013.346-3.358c.574-.565 1.325-.6 1.838-.115.514.485.534 1.25-.067 1.873a332.784 332.784 0 01-3.4 3.395 1.205 1.205 0 01-1.424.308c-.486-.212-.73-.595-.754-1.325zm18.851 19.22c-.318-.25-.734-.455-.982-.785a.999.999 0 01.116-1.328c1.23-1.268 2.474-2.52 3.757-3.75a1.163 1.163 0 011.64.085 1.191 1.191 0 01.093 1.64 151.676 151.676 0 01-3.757 3.75c-.176.175-.476.22-.867.388zM65.99 45.322a6.233 6.233 0 01-4.426-1.805 6.209 6.209 0 01-1.835-4.408 6.24 6.24 0 011.823-4.44 6.262 6.262 0 014.438-1.84 6.294 6.294 0 014.409 1.844 6.273 6.273 0 011.836 4.406 6.246 6.246 0 01-1.83 4.41 6.268 6.268 0 01-4.415 1.833zm-.015-2.5a3.742 3.742 0 002.651-1.08 3.728 3.728 0 00.823-4.082 3.75 3.75 0 00-2.05-2.041 3.746 3.746 0 00-4.083.83 3.732 3.732 0 00-1.08 2.64 3.698 3.698 0 001.089 2.645 3.71 3.71 0 002.65 1.083v.005zM59.032 44.8c.31.25.712.48.96.815a.98.98 0 01-.108 1.273c-.646.7-1.315 1.385-2.026 2.02a1.171 1.171 0 01-1.593-.083c-.441-.415-.569-1.12-.163-1.58.656-.75 1.382-1.43 2.109-2.11.165-.155.446-.188.821-.335zm-5.425 7.893a1.214 1.214 0 01-1.252-1.192 1.233 1.233 0 011.252-1.288 1.254 1.254 0 011.252 1.235 1.232 1.232 0 01-1.252 1.245z"/></g><defs><filter id="filter0_f_4522_15508" x=".937" y=".148" width="103.99" height="104.014" filterUnits="userSpaceOnUse" color-interpolation-filters="sRGB"><feFlood flood-opacity="0" result="BackgroundImageFix"/><feBlend in="SourceGraphic" in2="BackgroundImageFix" result="shape"/><feGaussianBlur stdDeviation="10" result="effect1_foregroundBlur_4522_15508"/></filter><filter id="filter1_f_4522_15508" x="10.937" y="10.148" width="83.99" height="84.014" filterUnits="userSpaceOnUse" color-interpolation-filters="sRGB"><feFlood flood-opacity="0" result="BackgroundImageFix"/><feBlend in="SourceGraphic" in2="BackgroundImageFix" result="shape"/><feGaussianBlur stdDeviation="5" result="effect1_foregroundBlur_4522_15508"/></filter><filter id="filter2_f_4522_15508" x="15.937" y="15.148" width="73.99" height="74.014" filterUnits="userSpaceOnUse" color-interpolation-filters="sRGB"><feFlood flood-opacity="0" result="BackgroundImageFix"/><feBlend in="SourceGraphic" in2="BackgroundImageFix" result="shape"/><feGaussianBlur stdDeviation="2.5" result="effect1_foregroundBlur_4522_15508"/></filter><filter id="filter3_d_4522_15508" x="16.936" y="20.148" width="71.99" height="72.014" filterUnits="userSpaceOnUse" color-interpolation-filters="sRGB"><feFlood flood-opacity="0" result="BackgroundImageFix"/><feColorMatrix in="SourceAlpha" values="0 0 0 0 0 0 0 0 0 0 0 0 0 0 0 0 0 0 127 0" result="hardAlpha"/><feOffset dy="4"/><feGaussianBlur stdDeviation="2"/><feComposite in2="hardAlpha" operator="out"/><feColorMatrix values="0 0 0 0 0 0 0 0 0 0 0 0 0 0 0 0 0 0 0.25 0"/><feBlend in2="BackgroundImageFix" result="effect1_dropShadow_4522_15508"/><feBlend in="SourceGraphic" in2="effect1_dropShadow_4522_15508" result="shape"/></filter></defs></svg>