<svg width="101" height="101" fill="none" xmlns="http://www.w3.org/2000/svg"><g filter="url(#filter0_f_4522_15509)" fill="#15F2FD"><path d="M49.468 67.322a37.571 37.571 0 01-19.964-5.984 29.457 29.457 0 01-8.28-8.032c-.986-1.426-1.01-2.893 0-4.306 3.828-5.368 8.844-9.284 14.835-11.959a34.316 34.316 0 0117.835-2.879c10.735 1.135 19.358 6.08 25.836 14.718 1.147 1.528 1.11 2.976 0 4.544-4.306 6.111-10.229 9.935-17.278 12.126-3.9 1.215-7.888 1.772-12.984 1.772zm1.023-3.505c7.258 0 13.162-5.826 13.162-13.002 0-7.552-5.777-13.278-13.426-13.285-6.976 0-12.856 5.98-12.856 13.087a13.163 13.163 0 0013.12 13.2zm-12.648-2.171c-5.171-7.052-5.347-14.089-.543-21.272a.941.941 0 00-.172.045c-5.123 2.39-9.465 5.75-12.838 10.32a.576.576 0 000 .81c2.8 3.93 6.45 6.816 10.782 8.889.888.425 1.807.79 2.771 1.208zm39.205-10.51c-3.476-4.841-7.975-8.327-13.336-10.83 4.814 7.251 4.7 14.293-.458 21.288 5.627-2.118 10.313-5.422 13.794-10.457zM24.01 24.147v7.408c0 1.286-1.146 2.116-2.31 1.735a1.735 1.735 0 01-1.2-1.645c-.013-2.558-.034-5.117 0-7.674a3.436 3.436 0 013.363-3.336c2.538-.042 5.079-.026 7.617 0a1.765 1.765 0 011.77 1.744 1.772 1.772 0 01-1.807 1.765c-2.245.015-4.492 0-6.739 0l-.693.003zm53.029 0h-7.32c-1.12 0-1.931-.752-1.927-1.765.005-1.013.804-1.749 1.88-1.754 2.443 0 4.885-.016 7.325 0a3.502 3.502 0 013.556 3.578c.016 2.42 0 4.841 0 7.265 0 1.116-.764 1.93-1.775 1.92-1.01-.01-1.741-.82-1.744-1.95 0-2.391.005-4.79.005-7.294zM24.01 77.182h7.405c1.306 0 2.169 1.194 1.718 2.35a1.664 1.664 0 01-1.615 1.148c-2.56.018-5.12.04-7.677 0a3.45 3.45 0 01-3.342-3.413c-.03-2.499-.016-5 0-7.498a1.781 1.781 0 011.744-1.834c.992 0 1.768.793 1.772 1.864v6.678l-.004.705zm53.029 0v-7.385c0-1.074.77-1.88 1.763-1.88.992 0 1.748.803 1.753 1.88 0 2.442.014 4.884 0 7.324a3.493 3.493 0 01-3.526 3.554 483.2 483.2 0 01-7.382 0c-1.072 0-1.88-.787-1.862-1.775.019-.987.809-1.739 1.88-1.741 2.44.02 4.861.023 7.374.023z"/><path d="M50.603 55.878a4.936 4.936 0 100-9.872 4.936 4.936 0 000 9.872z"/></g><g filter="url(#filter1_f_4522_15509)" fill="#15F2FD"><path d="M49.468 67.322a37.571 37.571 0 01-19.964-5.984 29.457 29.457 0 01-8.28-8.032c-.986-1.426-1.01-2.893 0-4.306 3.828-5.368 8.844-9.284 14.835-11.959a34.316 34.316 0 0117.835-2.879c10.735 1.135 19.358 6.08 25.836 14.718 1.147 1.528 1.11 2.976 0 4.544-4.306 6.111-10.229 9.935-17.278 12.126-3.9 1.215-7.888 1.772-12.984 1.772zm1.023-3.505c7.258 0 13.162-5.826 13.162-13.002 0-7.552-5.777-13.278-13.426-13.285-6.976 0-12.856 5.98-12.856 13.087a13.163 13.163 0 0013.12 13.2zm-12.648-2.171c-5.171-7.052-5.347-14.089-.543-21.272a.941.941 0 00-.172.045c-5.123 2.39-9.465 5.75-12.838 10.32a.576.576 0 000 .81c2.8 3.93 6.45 6.816 10.782 8.889.888.425 1.807.79 2.771 1.208zm39.205-10.51c-3.476-4.841-7.975-8.327-13.336-10.83 4.814 7.251 4.7 14.293-.458 21.288 5.627-2.118 10.313-5.422 13.794-10.457zM24.01 24.147v7.408c0 1.286-1.146 2.116-2.31 1.735a1.735 1.735 0 01-1.2-1.645c-.013-2.558-.034-5.117 0-7.674a3.436 3.436 0 013.363-3.336c2.538-.042 5.079-.026 7.617 0a1.765 1.765 0 011.77 1.744 1.772 1.772 0 01-1.807 1.765c-2.245.015-4.492 0-6.739 0l-.693.003zm53.029 0h-7.32c-1.12 0-1.931-.752-1.927-1.765.005-1.013.804-1.749 1.88-1.754 2.443 0 4.885-.016 7.325 0a3.502 3.502 0 013.556 3.578c.016 2.42 0 4.841 0 7.265 0 1.116-.764 1.93-1.775 1.92-1.01-.01-1.741-.82-1.744-1.95 0-2.391.005-4.79.005-7.294zM24.01 77.182h7.405c1.306 0 2.169 1.194 1.718 2.35a1.664 1.664 0 01-1.615 1.148c-2.56.018-5.12.04-7.677 0a3.45 3.45 0 01-3.342-3.413c-.03-2.499-.016-5 0-7.498a1.781 1.781 0 011.744-1.834c.992 0 1.768.793 1.772 1.864v6.678l-.004.705zm53.029 0v-7.385c0-1.074.77-1.88 1.763-1.88.992 0 1.748.803 1.753 1.88 0 2.442.014 4.884 0 7.324a3.493 3.493 0 01-3.526 3.554 483.2 483.2 0 01-7.382 0c-1.072 0-1.88-.787-1.862-1.775.019-.987.809-1.739 1.88-1.741 2.44.02 4.861.023 7.374.023z"/><path d="M50.603 55.878a4.936 4.936 0 100-9.872 4.936 4.936 0 000 9.872z"/></g><g filter="url(#filter2_f_4522_15509)" fill="#15F2FD"><path d="M49.468 67.322a37.571 37.571 0 01-19.964-5.984 29.457 29.457 0 01-8.28-8.032c-.986-1.426-1.01-2.893 0-4.306 3.828-5.368 8.844-9.284 14.835-11.959a34.316 34.316 0 0117.835-2.879c10.735 1.135 19.358 6.08 25.836 14.718 1.147 1.528 1.11 2.976 0 4.544-4.306 6.111-10.229 9.935-17.278 12.126-3.9 1.215-7.888 1.772-12.984 1.772zm1.023-3.505c7.258 0 13.162-5.826 13.162-13.002 0-7.552-5.777-13.278-13.426-13.285-6.976 0-12.856 5.98-12.856 13.087a13.163 13.163 0 0013.12 13.2zm-12.648-2.171c-5.171-7.052-5.347-14.089-.543-21.272a.941.941 0 00-.172.045c-5.123 2.39-9.465 5.75-12.838 10.32a.576.576 0 000 .81c2.8 3.93 6.45 6.816 10.782 8.889.888.425 1.807.79 2.771 1.208zm39.205-10.51c-3.476-4.841-7.975-8.327-13.336-10.83 4.814 7.251 4.7 14.293-.458 21.288 5.627-2.118 10.313-5.422 13.794-10.457zM24.01 24.147v7.408c0 1.286-1.146 2.116-2.31 1.735a1.735 1.735 0 01-1.2-1.645c-.013-2.558-.034-5.117 0-7.674a3.436 3.436 0 013.363-3.336c2.538-.042 5.079-.026 7.617 0a1.765 1.765 0 011.77 1.744 1.772 1.772 0 01-1.807 1.765c-2.245.015-4.492 0-6.739 0l-.693.003zm53.029 0h-7.32c-1.12 0-1.931-.752-1.927-1.765.005-1.013.804-1.749 1.88-1.754 2.443 0 4.885-.016 7.325 0a3.502 3.502 0 013.556 3.578c.016 2.42 0 4.841 0 7.265 0 1.116-.764 1.93-1.775 1.92-1.01-.01-1.741-.82-1.744-1.95 0-2.391.005-4.79.005-7.294zM24.01 77.182h7.405c1.306 0 2.169 1.194 1.718 2.35a1.664 1.664 0 01-1.615 1.148c-2.56.018-5.12.04-7.677 0a3.45 3.45 0 01-3.342-3.413c-.03-2.499-.016-5 0-7.498a1.781 1.781 0 011.744-1.834c.992 0 1.768.793 1.772 1.864v6.678l-.004.705zm53.029 0v-7.385c0-1.074.77-1.88 1.763-1.88.992 0 1.748.803 1.753 1.88 0 2.442.014 4.884 0 7.324a3.493 3.493 0 01-3.526 3.554 483.2 483.2 0 01-7.382 0c-1.072 0-1.88-.787-1.862-1.775.019-.987.809-1.739 1.88-1.741 2.44.02 4.861.023 7.374.023z"/><path d="M50.603 55.878a4.936 4.936 0 100-9.872 4.936 4.936 0 000 9.872z"/></g><g filter="url(#filter3_d_4522_15509)" fill="#fff"><path d="M49.468 67.322a37.571 37.571 0 01-19.964-5.984 29.457 29.457 0 01-8.28-8.032c-.986-1.426-1.01-2.893 0-4.306 3.828-5.368 8.844-9.284 14.835-11.959a34.316 34.316 0 0117.835-2.879c10.735 1.135 19.358 6.08 25.836 14.718 1.147 1.528 1.11 2.976 0 4.544-4.306 6.111-10.229 9.935-17.278 12.126-3.9 1.215-7.888 1.772-12.984 1.772zm1.023-3.505c7.258 0 13.162-5.826 13.162-13.002 0-7.552-5.777-13.278-13.426-13.285-6.976 0-12.856 5.98-12.856 13.087a13.163 13.163 0 0013.12 13.2zm-12.648-2.171c-5.171-7.052-5.347-14.089-.543-21.272a.941.941 0 00-.172.045c-5.123 2.39-9.465 5.75-12.838 10.32a.576.576 0 000 .81c2.8 3.93 6.45 6.816 10.782 8.889.888.425 1.807.79 2.771 1.208zm39.205-10.51c-3.476-4.841-7.975-8.327-13.336-10.83 4.814 7.251 4.7 14.293-.458 21.288 5.627-2.118 10.313-5.422 13.794-10.457zM24.01 24.147v7.408c0 1.286-1.146 2.116-2.31 1.735a1.735 1.735 0 01-1.2-1.645c-.013-2.558-.034-5.117 0-7.674a3.436 3.436 0 013.363-3.336c2.538-.042 5.079-.026 7.617 0a1.765 1.765 0 011.77 1.744 1.772 1.772 0 01-1.807 1.765c-2.245.015-4.492 0-6.739 0l-.693.003zm53.029 0h-7.32c-1.12 0-1.931-.752-1.927-1.765.005-1.013.804-1.749 1.88-1.754 2.443 0 4.885-.016 7.325 0a3.502 3.502 0 013.556 3.578c.016 2.42 0 4.841 0 7.265 0 1.116-.764 1.93-1.775 1.92-1.01-.01-1.741-.82-1.744-1.95 0-2.391.005-4.79.005-7.294zM24.01 77.182h7.405c1.306 0 2.169 1.194 1.718 2.35a1.664 1.664 0 01-1.615 1.148c-2.56.018-5.12.04-7.677 0a3.45 3.45 0 01-3.342-3.413c-.03-2.499-.016-5 0-7.498a1.781 1.781 0 011.744-1.834c.992 0 1.768.793 1.772 1.864v6.678l-.004.705zm53.029 0v-7.385c0-1.074.77-1.88 1.763-1.88.992 0 1.748.803 1.753 1.88 0 2.442.014 4.884 0 7.324a3.493 3.493 0 01-3.526 3.554 483.2 483.2 0 01-7.382 0c-1.072 0-1.88-.787-1.862-1.775.019-.987.809-1.739 1.88-1.741 2.44.02 4.861.023 7.374.023z"/><path d="M50.603 55.878a4.936 4.936 0 100-9.872 4.936 4.936 0 000 9.872z"/></g><defs><filter id="filter0_f_4522_15509" x=".476" y=".609" width="100.101" height="100.093" filterUnits="userSpaceOnUse" color-interpolation-filters="sRGB"><feFlood flood-opacity="0" result="BackgroundImageFix"/><feBlend in="SourceGraphic" in2="BackgroundImageFix" result="shape"/><feGaussianBlur stdDeviation="10" result="effect1_foregroundBlur_4522_15509"/></filter><filter id="filter1_f_4522_15509" x="10.476" y="10.609" width="80.101" height="80.093" filterUnits="userSpaceOnUse" color-interpolation-filters="sRGB"><feFlood flood-opacity="0" result="BackgroundImageFix"/><feBlend in="SourceGraphic" in2="BackgroundImageFix" result="shape"/><feGaussianBlur stdDeviation="5" result="effect1_foregroundBlur_4522_15509"/></filter><filter id="filter2_f_4522_15509" x="15.476" y="15.609" width="70.101" height="70.093" filterUnits="userSpaceOnUse" color-interpolation-filters="sRGB"><feFlood flood-opacity="0" result="BackgroundImageFix"/><feBlend in="SourceGraphic" in2="BackgroundImageFix" result="shape"/><feGaussianBlur stdDeviation="2.5" result="effect1_foregroundBlur_4522_15509"/></filter><filter id="filter3_d_4522_15509" x="16.476" y="20.609" width="68.101" height="68.093" filterUnits="userSpaceOnUse" color-interpolation-filters="sRGB"><feFlood flood-opacity="0" result="BackgroundImageFix"/><feColorMatrix in="SourceAlpha" values="0 0 0 0 0 0 0 0 0 0 0 0 0 0 0 0 0 0 127 0" result="hardAlpha"/><feOffset dy="4"/><feGaussianBlur stdDeviation="2"/><feComposite in2="hardAlpha" operator="out"/><feColorMatrix values="0 0 0 0 0 0 0 0 0 0 0 0 0 0 0 0 0 0 0.25 0"/><feBlend in2="BackgroundImageFix" result="effect1_dropShadow_4522_15509"/><feBlend in="SourceGraphic" in2="effect1_dropShadow_4522_15509" result="shape"/></filter></defs></svg>