<svg width="109" height="109" fill="none" xmlns="http://www.w3.org/2000/svg"><g filter="url(#filter0_f_4522_15510)" fill="#15F2FD"><path d="M72.77 69.115l2.641 2.622c.426-.48.878-1.047 1.389-1.552.99-.982 2.257-1.005 3.265-.025 2.325 2.297 4.656 4.589 6.916 6.948 1.832 1.908 2.498 4.209 1.617 6.757-.88 2.549-2.7 4.152-5.361 4.666a6.065 6.065 0 01-5.483-1.592c-2.518-2.368-4.936-4.838-7.36-7.302a2.16 2.16 0 01.025-3.062c.511-.545 1.067-1.05 1.58-1.55l-2.598-2.54c-13.015 11.123-31.829 8.298-41.686-3.72a29.39 29.39 0 011.863-39.47c10.666-10.706 27.536-11.559 39.402-1.977 12.005 9.667 15.066 28.656 3.79 41.797zM25.503 50.09a24.84 24.84 0 0015.402 22.976 24.831 24.831 0 009.535 1.86A24.846 24.846 0 0073.392 59.49a24.856 24.856 0 001.853-9.538 24.861 24.861 0 00-24.867-24.775 24.86 24.86 0 00-22.995 15.38 24.87 24.87 0 00-1.88 9.534zm49.82 28.063c1.787 1.8 3.55 3.618 5.363 5.38a2.37 2.37 0 001.309.564c.906.104 1.843-.545 2.23-1.412a2.018 2.018 0 00-.46-2.387c-1.037-1.056-2.092-2.092-3.133-3.139-.723-.728-1.437-1.462-2.145-2.187l-3.163 3.18z"/><path d="M42.266 48.939c-4.967-5.546-3.423-12.7.748-16.345a11.286 11.286 0 0115.004.096c4.103 3.636 5.573 10.807.607 16.263.869.316 1.735.604 2.582.937a28.912 28.912 0 017.25 4.152c1.275.996 1.534 1.795.91 3.313-2.946 7.189-8.237 11.538-15.91 12.791A20.152 20.152 0 0131.332 57.22c-.514-1.411-.282-2.221.903-3.142a29.392 29.392 0 019.43-4.942c.179-.053.353-.115.602-.197zm-5.864 8.063a15.291 15.291 0 0013.943 8.894 15.296 15.296 0 0014.01-8.882c-8.688-6.36-19.682-6.116-27.953-.012zm20.826-15.935a6.744 6.744 0 00-9.377-6.242 6.805 6.805 0 00-4.169 6.318 6.775 6.775 0 006.835 6.71 6.692 6.692 0 006.71-6.794v.008z"/></g><g filter="url(#filter1_f_4522_15510)" fill="#15F2FD"><path d="M72.77 69.115l2.641 2.622c.426-.48.878-1.047 1.389-1.552.99-.982 2.257-1.005 3.265-.025 2.325 2.297 4.656 4.589 6.916 6.948 1.832 1.908 2.498 4.209 1.617 6.757-.88 2.549-2.7 4.152-5.361 4.666a6.065 6.065 0 01-5.483-1.592c-2.518-2.368-4.936-4.838-7.36-7.302a2.16 2.16 0 01.025-3.062c.511-.545 1.067-1.05 1.58-1.55l-2.598-2.54c-13.015 11.123-31.829 8.298-41.686-3.72a29.39 29.39 0 011.863-39.47c10.666-10.706 27.536-11.559 39.402-1.977 12.005 9.667 15.066 28.656 3.79 41.797zM25.503 50.09a24.84 24.84 0 0015.402 22.976 24.831 24.831 0 009.535 1.86A24.846 24.846 0 0073.392 59.49a24.856 24.856 0 001.853-9.538 24.861 24.861 0 00-24.867-24.775 24.86 24.86 0 00-22.995 15.38 24.87 24.87 0 00-1.88 9.534zm49.82 28.063c1.787 1.8 3.55 3.618 5.363 5.38a2.37 2.37 0 001.309.564c.906.104 1.843-.545 2.23-1.412a2.018 2.018 0 00-.46-2.387c-1.037-1.056-2.092-2.092-3.133-3.139-.723-.728-1.437-1.462-2.145-2.187l-3.163 3.18z"/><path d="M42.266 48.939c-4.967-5.546-3.423-12.7.748-16.345a11.286 11.286 0 0115.004.096c4.103 3.636 5.573 10.807.607 16.263.869.316 1.735.604 2.582.937a28.912 28.912 0 017.25 4.152c1.275.996 1.534 1.795.91 3.313-2.946 7.189-8.237 11.538-15.91 12.791A20.152 20.152 0 0131.332 57.22c-.514-1.411-.282-2.221.903-3.142a29.392 29.392 0 019.43-4.942c.179-.053.353-.115.602-.197zm-5.864 8.063a15.291 15.291 0 0013.943 8.894 15.296 15.296 0 0014.01-8.882c-8.688-6.36-19.682-6.116-27.953-.012zm20.826-15.935a6.744 6.744 0 00-9.377-6.242 6.805 6.805 0 00-4.169 6.318 6.775 6.775 0 006.835 6.71 6.692 6.692 0 006.71-6.794v.008z"/></g><g filter="url(#filter2_f_4522_15510)" fill="#15F2FD"><path d="M72.77 69.115l2.641 2.622c.426-.48.878-1.047 1.389-1.552.99-.982 2.257-1.005 3.265-.025 2.325 2.297 4.656 4.589 6.916 6.948 1.832 1.908 2.498 4.209 1.617 6.757-.88 2.549-2.7 4.152-5.361 4.666a6.065 6.065 0 01-5.483-1.592c-2.518-2.368-4.936-4.838-7.36-7.302a2.16 2.16 0 01.025-3.062c.511-.545 1.067-1.05 1.58-1.55l-2.598-2.54c-13.015 11.123-31.829 8.298-41.686-3.72a29.39 29.39 0 011.863-39.47c10.666-10.706 27.536-11.559 39.402-1.977 12.005 9.667 15.066 28.656 3.79 41.797zM25.503 50.09a24.84 24.84 0 0015.402 22.976 24.831 24.831 0 009.535 1.86A24.846 24.846 0 0073.392 59.49a24.856 24.856 0 001.853-9.538 24.861 24.861 0 00-24.867-24.775 24.86 24.86 0 00-22.995 15.38 24.87 24.87 0 00-1.88 9.534zm49.82 28.063c1.787 1.8 3.55 3.618 5.363 5.38a2.37 2.37 0 001.309.564c.906.104 1.843-.545 2.23-1.412a2.018 2.018 0 00-.46-2.387c-1.037-1.056-2.092-2.092-3.133-3.139-.723-.728-1.437-1.462-2.145-2.187l-3.163 3.18z"/><path d="M42.266 48.939c-4.967-5.546-3.423-12.7.748-16.345a11.286 11.286 0 0115.004.096c4.103 3.636 5.573 10.807.607 16.263.869.316 1.735.604 2.582.937a28.912 28.912 0 017.25 4.152c1.275.996 1.534 1.795.91 3.313-2.946 7.189-8.237 11.538-15.91 12.791A20.152 20.152 0 0131.332 57.22c-.514-1.411-.282-2.221.903-3.142a29.392 29.392 0 019.43-4.942c.179-.053.353-.115.602-.197zm-5.864 8.063a15.291 15.291 0 0013.943 8.894 15.296 15.296 0 0014.01-8.882c-8.688-6.36-19.682-6.116-27.953-.012zm20.826-15.935a6.744 6.744 0 00-9.377-6.242 6.805 6.805 0 00-4.169 6.318 6.775 6.775 0 006.835 6.71 6.692 6.692 0 006.71-6.794v.008z"/></g><g filter="url(#filter3_d_4522_15510)" fill="#fff"><path d="M72.77 69.115l2.641 2.622c.426-.48.878-1.047 1.389-1.552.99-.982 2.257-1.005 3.265-.025 2.325 2.297 4.656 4.589 6.916 6.948 1.832 1.908 2.498 4.209 1.617 6.757-.88 2.549-2.7 4.152-5.361 4.666a6.065 6.065 0 01-5.483-1.592c-2.518-2.368-4.936-4.838-7.36-7.302a2.16 2.16 0 01.025-3.062c.511-.545 1.067-1.05 1.58-1.55l-2.598-2.54c-13.015 11.123-31.829 8.298-41.686-3.72a29.39 29.39 0 011.863-39.47c10.666-10.706 27.536-11.559 39.402-1.977 12.005 9.667 15.066 28.656 3.79 41.797zM25.503 50.09a24.84 24.84 0 0015.402 22.976 24.831 24.831 0 009.535 1.86A24.846 24.846 0 0073.392 59.49a24.856 24.856 0 001.853-9.538 24.861 24.861 0 00-24.867-24.775 24.86 24.86 0 00-22.995 15.38 24.87 24.87 0 00-1.88 9.534zm49.82 28.063c1.787 1.8 3.55 3.618 5.363 5.38a2.37 2.37 0 001.309.564c.906.104 1.843-.545 2.23-1.412a2.018 2.018 0 00-.46-2.387c-1.037-1.056-2.092-2.092-3.133-3.139-.723-.728-1.437-1.462-2.145-2.187l-3.163 3.18z"/><path d="M42.266 48.939c-4.967-5.546-3.423-12.7.748-16.345a11.286 11.286 0 0115.004.096c4.103 3.636 5.573 10.807.607 16.263.869.316 1.735.604 2.582.937a28.912 28.912 0 017.25 4.152c1.275.996 1.534 1.795.91 3.313-2.946 7.189-8.237 11.538-15.91 12.791A20.152 20.152 0 0131.332 57.22c-.514-1.411-.282-2.221.903-3.142a29.392 29.392 0 019.43-4.942c.179-.053.353-.115.602-.197zm-5.864 8.063a15.291 15.291 0 0013.943 8.894 15.296 15.296 0 0014.01-8.882c-8.688-6.36-19.682-6.116-27.953-.012zm20.826-15.935a6.744 6.744 0 00-9.377-6.242 6.805 6.805 0 00-4.169 6.318 6.775 6.775 0 006.835 6.71 6.692 6.692 0 006.71-6.794v.008z"/></g><defs><filter id="filter0_f_4522_15510" x=".99" y=".662" width="107.993" height="107.999" filterUnits="userSpaceOnUse" color-interpolation-filters="sRGB"><feFlood flood-opacity="0" result="BackgroundImageFix"/><feBlend in="SourceGraphic" in2="BackgroundImageFix" result="shape"/><feGaussianBlur stdDeviation="10" result="effect1_foregroundBlur_4522_15510"/></filter><filter id="filter1_f_4522_15510" x="10.99" y="10.662" width="87.993" height="87.999" filterUnits="userSpaceOnUse" color-interpolation-filters="sRGB"><feFlood flood-opacity="0" result="BackgroundImageFix"/><feBlend in="SourceGraphic" in2="BackgroundImageFix" result="shape"/><feGaussianBlur stdDeviation="5" result="effect1_foregroundBlur_4522_15510"/></filter><filter id="filter2_f_4522_15510" x="15.99" y="15.662" width="77.993" height="77.999" filterUnits="userSpaceOnUse" color-interpolation-filters="sRGB"><feFlood flood-opacity="0" result="BackgroundImageFix"/><feBlend in="SourceGraphic" in2="BackgroundImageFix" result="shape"/><feGaussianBlur stdDeviation="2.5" result="effect1_foregroundBlur_4522_15510"/></filter><filter id="filter3_d_4522_15510" x="16.99" y="20.662" width="75.993" height="75.999" filterUnits="userSpaceOnUse" color-interpolation-filters="sRGB"><feFlood flood-opacity="0" result="BackgroundImageFix"/><feColorMatrix in="SourceAlpha" values="0 0 0 0 0 0 0 0 0 0 0 0 0 0 0 0 0 0 127 0" result="hardAlpha"/><feOffset dy="4"/><feGaussianBlur stdDeviation="2"/><feComposite in2="hardAlpha" operator="out"/><feColorMatrix values="0 0 0 0 0 0 0 0 0 0 0 0 0 0 0 0 0 0 0.25 0"/><feBlend in2="BackgroundImageFix" result="effect1_dropShadow_4522_15510"/><feBlend in="SourceGraphic" in2="effect1_dropShadow_4522_15510" result="shape"/></filter></defs></svg>