<svg width="87" height="87" viewBox="0 0 87 87" fill="none" xmlns="http://www.w3.org/2000/svg">
<path d="M30.8782 62.3297C30.7554 62.2947 30.6296 62.275 30.503 62.2682C32.3643 60.3119 33.5106 57.6691 33.5106 54.7621V45.8223C33.5106 45.7406 33.5028 45.6609 33.4918 45.5824C33.503 45.421 33.5106 45.2585 33.5106 45.0944V39.4384C33.5106 38.4999 32.7499 37.7391 31.8114 37.7391H20.4142C15.6148 37.7391 11.7103 41.6438 11.7103 46.443V54.7621C11.7103 57.6691 12.8565 60.3119 14.718 62.2682C14.5915 62.275 14.4658 62.2947 14.3431 62.3297C6.31311 63.0568 0 69.825 0 78.041V85.3008C0 86.2393 0.76074 87 1.69922 87H43.5216C44.4601 87 45.2208 86.2393 45.2208 85.3008V78.041C45.2208 69.8251 38.908 63.057 30.8782 62.3297ZM15.1088 48.5978V46.4429C15.1088 43.5175 17.4889 41.1374 20.4142 41.1374H30.1122V45.0942C30.1122 47.0862 28.4916 48.7067 26.4997 48.7067H15.1088V48.5978ZM15.1088 52.1052H26.4997C27.8203 52.1052 29.0565 51.7378 30.1122 51.1003V54.7619C30.1122 58.8983 26.7469 62.2636 22.6105 62.2636C18.4741 62.2636 15.1088 58.8983 15.1088 54.7619V52.1052ZM26.3088 65.6622L22.6105 69.3607L18.9121 65.6622H26.3088ZM41.8225 83.6016H3.39844V80.2031H10.4502C11.3887 80.2031 12.1494 79.4424 12.1494 78.5039C12.1494 77.5654 11.3887 76.8047 10.4502 76.8047H3.46046C4.03123 71.0756 8.52515 66.4875 14.2089 65.765L21.409 72.9651C21.7276 73.2837 22.1599 73.4628 22.6105 73.4628C23.0611 73.4628 23.4934 73.2837 23.812 72.9651L31.0121 65.765C37.0994 66.5387 41.8225 71.747 41.8225 78.041V83.6016Z" fill="#55B4ED"/>
<path d="M72.6577 24.5908C72.5349 24.5557 72.409 24.536 72.2822 24.5292C74.1435 22.5729 75.2897 19.9301 75.2897 17.0231V8.08318C75.2897 8.00145 75.2818 7.92176 75.2708 7.84325C75.282 7.68183 75.2897 7.51938 75.2897 7.35524V1.69922C75.2897 0.76074 74.5289 0 73.5904 0H62.1933C57.3938 0 53.4894 3.90463 53.4894 8.70391V17.0229C53.4894 19.93 54.6355 22.5728 56.4968 24.5291C56.3702 24.5359 56.2441 24.5556 56.1213 24.5906C48.0916 25.318 41.779 32.0862 41.779 40.3019V47.5615C41.779 48.5 42.5398 49.2607 43.4782 49.2607H57.1502C58.0886 49.2607 58.8494 48.5 58.8494 47.5615C58.8494 46.623 58.0886 45.8623 57.1502 45.8623H45.1775V40.3021C45.1775 34.008 49.9004 28.7997 55.9877 28.0261L63.1878 35.2262C63.5197 35.558 63.9545 35.7239 64.3893 35.7239C64.8242 35.7239 65.2592 35.558 65.5909 35.2262L72.791 28.0261C78.8786 28.7999 83.6016 34.008 83.6016 40.3021V45.8624H71.0839C70.1454 45.8624 69.3847 46.6232 69.3847 47.5616C69.3847 48.5001 70.1454 49.2609 71.0839 49.2609H85.3008C86.2393 49.2609 87 48.5001 87 47.5616V40.3021C87 32.0863 80.6872 25.3182 72.6577 24.5908ZM64.3897 31.6216L60.6913 27.9233H68.088L64.3897 31.6216ZM71.8914 17.0229C71.8914 21.1594 68.5261 24.5247 64.3897 24.5247C60.2533 24.5247 56.888 21.1595 56.888 17.0231V14.3662H68.2789C69.5995 14.3662 70.8357 13.9987 71.8914 13.3613V17.0229ZM71.8914 7.35524C71.8914 9.34723 70.2708 10.9678 68.2789 10.9678H56.888V10.8589V8.70391C56.888 5.77853 59.2681 3.39844 62.1934 3.39844H71.8914V7.35524Z" fill="#55B4ED"/>
<path d="M65.5915 46.3597C65.2755 46.0437 64.8371 45.8619 64.3902 45.8619C63.9416 45.8619 63.5049 46.0437 63.1888 46.3597C62.8711 46.6758 62.691 47.1142 62.691 47.5611C62.691 48.0097 62.8711 48.4464 63.1888 48.7624C63.5049 49.0802 63.9416 49.2603 64.3902 49.2603C64.8371 49.2603 65.2755 49.0802 65.5915 48.7624C65.9076 48.4464 66.0894 48.0097 66.0894 47.5611C66.0894 47.1142 65.9076 46.6758 65.5915 46.3597Z" fill="#55B4ED"/>
<path d="M45.438 23.777L38.3317 16.6707V8.49609C38.3317 3.81135 34.5203 0 29.8356 0H8.49609C3.81135 0 0 3.81135 0 8.49609V23.4492C0 28.134 3.81135 31.9453 8.49609 31.9453H29.8354C33.3484 31.9453 36.4117 29.8371 37.697 26.6777H44.2363C44.9234 26.6777 45.5431 26.2636 45.8062 25.6288C46.0692 24.994 45.9238 24.263 45.438 23.777ZM36.4574 23.2793C35.6658 23.2793 34.9789 23.8259 34.8014 24.5975C34.2664 26.9228 32.2245 28.5469 29.8354 28.5469H8.49609C5.68525 28.5469 3.39844 26.2601 3.39844 23.4492V8.49609C3.39844 5.68525 5.68525 3.39844 8.49609 3.39844H29.8354C32.6462 3.39844 34.933 5.68525 34.933 8.49609V17.3745C34.933 17.8251 35.1121 18.2574 35.4307 18.576L40.134 23.2793H36.4574Z" fill="#55B4ED"/>
<path d="M78.5039 55.0547H57.1646C53.6516 55.0547 50.5883 57.1629 49.303 60.3223H42.7637C42.0766 60.3223 41.4569 60.7364 41.1938 61.3712C40.9308 62.006 41.0762 62.737 41.562 63.223L48.6683 70.3293V78.5039C48.6683 83.1887 52.4797 87 57.1644 87H78.5039C83.1887 87 87 83.1887 87 78.5039V63.5508C87 58.866 83.1887 55.0547 78.5039 55.0547ZM83.6016 78.5039C83.6016 81.3148 81.3148 83.6016 78.5039 83.6016H57.1646C54.3538 83.6016 52.067 81.3148 52.067 78.5039V69.6255C52.067 69.1749 51.8879 68.7426 51.5693 68.424L46.866 63.7207H50.5426C51.3343 63.7207 52.0211 63.1741 52.1986 62.4025C52.7336 60.0772 54.7755 58.4531 57.1646 58.4531H78.5039C81.3148 58.4531 83.6016 60.7399 83.6016 63.5508V78.5039Z" fill="#55B4ED"/>
<path d="M75.4718 66.5061C74.8084 65.8425 73.7325 65.8425 73.069 66.5061L68.5519 71.0231L66.4515 68.9227C65.788 68.2592 64.712 68.2592 64.0483 68.9227C63.3848 69.5863 63.3848 70.6622 64.0483 71.3259L67.3502 74.6278C67.6821 74.9597 68.1169 75.1255 68.5518 75.1255C68.9866 75.1255 69.4216 74.9597 69.7533 74.6278L75.4718 68.9093C76.1354 68.2457 76.1354 67.1698 75.4718 66.5061Z" fill="#55B4ED"/>
<path d="M26.8907 11.2604C26.6898 8.34676 24.3411 5.9981 21.4275 5.79725C19.7753 5.68357 18.2005 6.24092 16.9941 7.36716C15.8044 8.4776 15.122 10.0477 15.122 11.6745C15.1222 12.6132 15.8829 13.3739 16.8214 13.3739C17.7599 13.3739 18.5206 12.6132 18.5206 11.6747C18.5206 10.9761 18.802 10.3287 19.3132 9.85159C19.8234 9.37513 20.4921 9.1386 21.194 9.18787C22.4241 9.27266 23.4156 10.2642 23.5004 11.4942C23.5862 12.7379 22.7709 13.8369 21.5619 14.1075C20.2386 14.4035 19.3144 15.554 19.3144 16.9052V17.8117C19.3144 18.7502 20.0751 19.511 21.0136 19.511C21.952 19.511 22.7128 18.7502 22.7128 17.8117V17.3173C25.3456 16.5319 27.083 14.0498 26.8907 11.2604Z" fill="#55B4ED"/>
<path d="M22.2156 23.1128C21.8995 22.7967 21.4611 22.6149 21.0142 22.6149C20.5656 22.6149 20.1289 22.7967 19.8129 23.1128C19.4951 23.4288 19.315 23.8672 19.315 24.3141C19.315 24.761 19.4951 25.1994 19.8129 25.5155C20.1289 25.8315 20.5656 26.0133 21.0142 26.0133C21.4611 26.0133 21.8995 25.8315 22.2156 25.5155C22.5316 25.1994 22.7134 24.761 22.7134 24.3141C22.7134 23.8672 22.5316 23.4288 22.2156 23.1128Z" fill="#55B4ED"/>
<path d="M18.4484 77.3026C18.1324 76.9865 17.694 76.8047 17.2471 76.8047C16.8002 76.8047 16.3618 76.9865 16.0457 77.3026C15.7297 77.6186 15.5479 78.057 15.5479 78.5039C15.5479 78.9508 15.7297 79.3892 16.0457 79.7053C16.3618 80.0213 16.8002 80.2031 17.2471 80.2031C17.694 80.2031 18.1324 80.0213 18.4484 79.7053C18.7645 79.3892 18.9463 78.9508 18.9463 78.5039C18.9463 78.057 18.7645 77.6186 18.4484 77.3026Z" fill="#55B4ED"/>
</svg>
