<svg width="56" height="72" viewBox="0 0 56 72" fill="none" xmlns="http://www.w3.org/2000/svg">
<path d="M55.4667 59.5929C55.3067 49.8077 45.302 46.9168 37.9968 44.8058C37.1444 44.5596 36.3247 44.3226 35.5566 44.0861V40.0495C37.0501 39.1133 38.3587 37.9086 39.4144 36.5033H43.8644C46.042 36.5033 47.8137 34.7316 47.8137 32.554V27.7733C48.0777 27.1579 48.2243 26.4806 48.2243 25.7695V24.2827C48.2243 23.5722 48.0777 22.8954 47.8137 22.2804V19.8141C47.8137 8.88866 38.9253 0 28 0C17.0768 0 8.1902 8.88866 8.1902 19.8143V22.21C8.1902 22.2288 8.19231 22.247 8.19302 22.2657C7.92498 22.8847 7.77564 23.5665 7.77564 24.2828V25.7696C7.77564 28.5803 10.0605 30.867 12.869 30.867H14.0311C14.836 34.7269 17.2057 38.019 20.4433 40.0488V44.0861C19.6751 44.3226 18.8555 44.5595 18.0032 44.8058C10.698 46.9168 0.693315 49.8079 0.533283 59.5929C0.533142 59.6006 0.533142 59.6082 0.533142 59.616V70.5937C0.533142 71.3704 1.16286 72 1.9394 72H6.10866C6.8852 72 7.51492 71.3704 7.51492 70.5937C7.51492 69.8171 6.8852 69.1875 6.10866 69.1875H3.34551V59.6276C3.40472 56.2137 4.97297 53.6544 8.28063 51.5739C10.4633 50.2009 13.1316 49.2227 15.7619 48.4044L19.1596 55.0243C19.5383 55.7621 20.5079 56.0128 21.1969 55.5479L22.7119 54.526L24.0125 59.4146L21.7841 69.1873H18.7364C17.9599 69.1873 17.3302 69.8169 17.3302 70.5936C17.3302 71.3703 17.9599 71.9999 18.7364 71.9999H54.0606C54.8371 71.9999 55.4668 71.3703 55.4668 70.5936V59.6158C55.4668 59.6082 55.4668 59.6006 55.4667 59.5929ZM37.216 47.5077C37.3087 47.5344 37.4029 47.5618 37.4963 47.5888L35.0653 52.3299L30.5159 49.2621L34.3706 46.6621C35.2661 46.9439 36.2184 47.2194 37.216 47.5077ZM28.001 50.9585L30.8208 52.86L29.458 57.9824H26.542L25.1796 52.8616L28.001 50.9585ZM28.0007 47.5662L23.2557 44.3665V41.4061C24.7408 41.9313 26.3371 42.2194 27.9998 42.2194C29.6625 42.2194 31.259 41.9323 32.744 41.4071V44.3665L28.0007 47.5662ZM39.4566 20.0715C39.4373 20.0592 39.4182 20.047 39.399 20.0348C36.5135 18.1979 34.0213 16.6115 30.1164 17.7288C30.0801 17.7392 30.0441 17.751 30.0088 17.7642C29.181 18.0752 28.4282 18.365 27.7 18.6453C23.253 20.3571 20.825 21.292 16.5432 21.1716V20.0455C16.5432 13.728 21.6827 8.58842 27.9998 8.58842C34.317 8.58842 39.4565 13.728 39.4565 20.0455V20.0715H39.4566ZM45.0012 32.554C45.0012 33.1809 44.4913 33.6908 43.8644 33.6908H41.062C41.4577 32.7937 41.7643 31.8489 41.969 30.8669H43.1312C43.7914 30.8669 44.4218 30.7392 45.0013 30.5093V32.554H45.0012ZM45.4118 25.7695C45.4118 27.0294 44.3888 28.0544 43.131 28.0544H42.2679C42.2681 28.0195 42.2693 22.0017 42.2693 22.0017H43.1312C44.3888 22.0017 45.412 23.0249 45.412 24.2827V25.7695H45.4118ZM12.869 28.0545C11.6113 28.0545 10.5882 27.0295 10.5882 25.7696V24.2828C10.5882 23.025 11.6112 22.0019 12.869 22.0019H13.7309C13.7309 22.0019 13.732 28.0196 13.7323 28.0545H12.869ZM13.7571 19.1892H12.8688C12.2114 19.1892 11.5835 19.3158 11.0061 19.5436C11.1514 10.2932 18.7181 2.81251 28 2.81251C37.2845 2.81251 44.8534 10.2941 44.9977 19.5451C44.4193 19.3163 43.7898 19.1892 43.131 19.1892H42.2427C41.7983 11.718 35.5804 5.77591 28 5.77591C20.4194 5.77591 14.2015 11.7182 13.7571 19.1892ZM16.6279 29.318C16.6277 29.3166 16.6275 29.3152 16.6273 29.3138C16.574 28.8662 16.5434 28.4117 16.5434 27.95V23.984C21.3546 24.1013 24.2246 22.9971 28.7104 21.2702C29.4169 20.9982 30.1472 20.7171 30.9427 20.418C33.5991 19.6765 35.1276 20.6497 37.8886 22.4074C38.3677 22.7124 38.8933 23.0467 39.4566 23.39V27.95C39.4566 30.0413 38.8907 32.0016 37.9082 33.6909H28C27.2234 33.6909 26.5937 34.3205 26.5937 35.0972C26.5937 35.8739 27.2234 36.5034 28 36.5034H35.6112C33.5859 38.3078 30.9194 39.4071 28 39.4071C22.1459 39.4069 17.3064 34.9924 16.6279 29.318ZM20.9381 52.33L18.5044 47.5885C18.5975 47.5617 18.6914 47.5344 18.7839 47.5077C19.7815 47.2194 20.7339 46.9438 21.6296 46.6619L25.4859 49.2624L20.9381 52.33ZM24.6688 69.1875L26.5826 60.795H29.4178L31.3345 69.1875H24.6688ZM52.6543 69.1875H34.2194L31.9874 59.4144L33.2886 54.524L34.8072 55.5481C35.4966 56.0128 36.4662 55.7621 36.8448 55.0238L40.2386 48.4047C42.8687 49.223 45.537 50.2011 47.7195 51.5739C51.027 53.6543 52.5954 56.2137 52.6546 59.6276V69.1875H52.6543Z" fill="#55B4ED"/>
<path d="M47.101 62.1558H40.0139C39.2374 62.1558 38.6077 62.7853 38.6077 63.562C38.6077 64.3387 39.2374 64.9683 40.0139 64.9683H47.101C47.8775 64.9683 48.5073 64.3387 48.5073 63.562C48.5073 62.7853 47.8777 62.1558 47.101 62.1558Z" fill="#55B4ED"/>
<path d="M12.4226 69.1875C11.6461 69.1875 11.0164 69.8171 11.0164 70.5938C11.0164 71.3704 11.6461 72 12.4226 72H12.4266C13.2031 72 13.8307 71.3704 13.8307 70.5938C13.8307 69.8171 13.1992 69.1875 12.4226 69.1875Z" fill="#55B4ED"/>
</svg>
