<svg width="100" height="100" viewBox="0 0 100 100" fill="none" xmlns="http://www.w3.org/2000/svg">
<path d="M75.9298 96.586C74.6699 97.8459 75.5622 100 77.3441 100H97.9992C99.1038 100 99.9992 99.1048 99.9992 98.0002V77.345C99.9992 75.5632 97.8449 74.6709 96.585 75.9308L75.9298 96.586Z" fill="#55B4ED"/>
<path d="M24.0702 3.41403C25.3301 2.1541 24.4378 -0.000185013 22.6559 -0.000185013L2.00079 -0.000185013C0.896223 -0.000185013 0.00079155 0.895247 0.00079155 1.99981L0.00079155 22.655C0.00079155 24.4368 2.15508 25.3291 3.415 24.0692L24.0702 3.41403Z" fill="#55B4ED"/>
<path d="M77.3564 46.7686C75.3376 45.1048 72.1468 44.9621 70.0526 47.2096L64.8536 52.7907C64.1814 50.6304 62.1638 49.0574 59.7855 49.0574H50.5077C49.8037 49.0574 49.5679 48.7885 48.345 47.8464C43.6825 43.7818 36.6794 43.7947 32.031 47.8853L28.6208 50.8875C27.0879 50.0761 25.2979 50.0561 23.7566 50.8262L19.8453 52.7812C18.9714 53.2187 18.6178 54.2811 19.054 55.155L29.6667 76.3803C30.1042 77.2541 31.1666 77.6078 32.0404 77.1716L35.9518 75.2153C37.8797 74.2519 38.9527 72.285 38.8832 70.2828H59.7854C63.6613 70.2828 67.3651 68.4315 69.6905 65.3303L78.1819 54.0078C79.8292 51.8132 79.5686 48.5951 77.3564 46.7686ZM34.3692 72.0515L32.0403 73.2164L23.009 55.155L25.3391 53.99C26.2129 53.5537 27.2741 53.9063 27.7116 54.7813L35.1605 69.679C35.5968 70.5527 35.243 71.614 34.3692 72.0515ZM75.3518 51.8851L66.8605 63.2076C65.1991 65.4233 62.5541 66.7452 59.7855 66.7452H37.6486L31.0204 53.4876L34.368 50.5409C37.6992 47.6106 42.7226 47.6106 46.0538 50.5409C48.0159 52.2684 49.2363 52.595 50.5076 52.595H59.7854C60.7606 52.595 61.5541 53.3887 61.5541 54.3638C61.5541 55.3389 60.7605 56.1326 59.7854 56.1326H50.7517C49.7752 56.1326 48.9829 56.925 48.9829 57.9013C48.9829 58.8776 49.7754 59.6701 50.7517 59.6701H60.9705C62.4386 59.6701 63.8537 59.0545 64.8536 57.9803L72.6409 49.6211C73.3532 48.8569 74.445 48.9206 75.1149 49.5067C75.8152 50.1198 75.8908 51.1681 75.3518 51.8851Z" fill="#55B4ED"/>
<path d="M56.0591 29.0526C57.27 27.7826 58.0165 26.0658 58.0165 24.1754C58.0165 20.2817 54.8705 16.9824 50.9415 16.9824C47.0419 16.9824 43.7485 20.2758 43.7485 24.1754C43.7485 26.0079 44.4666 27.7377 45.7708 29.0667C42.5363 30.8803 40.2109 34.3612 40.2109 38.4436V40.2123C40.2109 41.1887 41.0034 41.9811 41.9797 41.9811H59.7854C60.7617 41.9811 61.5542 41.1887 61.5542 40.2123V38.4436C61.554 34.4414 59.3527 30.9062 56.0591 29.0526ZM50.9415 20.5201C52.8588 20.5201 54.479 22.1945 54.479 24.1755C54.479 26.1259 52.8918 27.7131 50.9415 27.7131C48.9604 27.7131 47.286 26.0929 47.286 24.1755C47.286 22.2287 48.9946 20.5201 50.9415 20.5201ZM43.7485 38.4436C43.7485 34.544 47.0419 31.2506 50.9415 31.2506C54.8422 31.2506 58.0165 34.4768 58.0165 38.4436H43.7485Z" fill="#55B4ED"/>
</svg>
