<svg width="17" height="12" viewBox="0 0 17 12" fill="none" xmlns="http://www.w3.org/2000/svg">
<path d="M15.5059 0H1.49414C0.668611 0 0 0.672762 0 1.49414V10.459C0 11.2852 0.673525 11.9531 1.49414 11.9531H15.5059C16.3245 11.9531 17 11.2881 17 10.459V1.49414C17 0.674223 16.334 0 15.5059 0ZM15.2966 0.996094C14.9913 1.29974 9.73791 6.52551 9.55652 6.70594C9.2743 6.98816 8.8991 7.14355 8.5 7.14355C8.1009 7.14355 7.7257 6.98813 7.44255 6.70501C7.32056 6.58365 2.1251 1.41558 1.70339 0.996094H15.2966ZM0.996094 10.2562V1.69751L5.30048 5.97922L0.996094 10.2562ZM1.70402 10.957L6.00671 6.6817L6.73914 7.41027C7.20949 7.88063 7.83484 8.13965 8.5 8.13965C9.16516 8.13965 9.79051 7.88063 10.2599 7.4112L10.9933 6.6817L15.296 10.957H1.70402ZM16.0039 10.2562L11.6995 5.97922L16.0039 1.69751V10.2562Z" fill="white"/>
</svg>
