<svg width="98" height="98" viewBox="0 0 98 98" fill="none" xmlns="http://www.w3.org/2000/svg">
<path d="M0.13 67.8629C0.186875 68.5779 0.70525 69.171 1.40725 69.3222L7.07037 70.5442C7.27025 71.5094 7.52375 72.4617 7.83087 73.3912L3.54413 77.2749C3.01275 77.7559 2.86 78.5294 3.16875 79.1778C3.952 80.8255 4.82463 82.3482 5.76225 83.7034C6.1685 84.2917 6.91275 84.5452 7.59688 84.3258L13.1007 82.5529C13.7589 83.2907 14.4593 83.991 15.197 84.6492L13.4241 90.153C13.2047 90.8339 13.4566 91.5798 14.0465 91.9877C15.4017 92.9253 16.9244 93.7979 18.5721 94.5812C19.2221 94.8899 19.994 94.7355 20.475 94.2058L24.3587 89.919C25.2899 90.2245 26.2421 90.4797 27.2074 90.6795L28.4294 96.3427C28.5805 97.043 29.1736 97.5614 29.887 97.6199C30.7515 97.6882 31.6176 97.7499 32.5 97.7499C33.3824 97.7499 34.2485 97.6882 35.113 97.6199C35.828 97.563 36.4211 97.0447 36.5723 96.3427L37.7943 90.6795C38.7595 90.4797 39.7134 90.2262 40.6429 89.919L44.5266 94.2058C45.0092 94.7372 45.7827 94.8915 46.4295 94.5812C48.0773 93.7979 49.5999 92.9237 50.9551 91.9877C51.545 91.5798 51.7969 90.8339 51.5775 90.153L49.8046 84.6492C50.5424 83.991 51.2427 83.2907 51.9009 82.5545L57.4048 84.3274C58.0856 84.5484 58.8315 84.2949 59.2394 83.705C60.177 82.3498 61.0496 80.8272 61.8329 79.1794C62.1416 78.531 61.9889 77.7575 61.4575 77.2765L57.1707 73.3928C57.4762 72.4617 57.7314 71.5094 57.9313 70.5442L63.5944 69.3222C64.2947 69.171 64.8131 68.5779 64.8716 67.8645C64.9383 66.9984 65 66.1323 65 65.2499C65 64.3675 64.9382 63.5014 64.87 62.6369C64.8131 61.9219 64.2947 61.3288 63.5927 61.1777L57.9296 59.9557C57.7297 58.9904 57.4762 58.0365 57.1691 57.107L61.4559 53.2233C61.9873 52.7423 62.14 51.9688 61.8312 51.3204C61.048 49.6727 60.1737 48.15 59.2377 46.7948C58.8299 46.2049 58.084 45.9514 57.4031 46.1724L51.8993 47.9453C51.2411 47.2075 50.5407 46.5072 49.803 45.849L51.5759 40.3452C51.7952 39.6643 51.5434 38.9184 50.9535 38.5105C49.5982 37.5729 48.0756 36.7003 46.4279 35.917C45.7779 35.6067 45.006 35.761 44.525 36.2924L40.6413 40.5792C39.7101 40.2737 38.7579 40.0185 37.7926 39.8187L36.5706 34.1555C36.4195 33.4552 35.8264 32.9368 35.113 32.8783C33.3824 32.7385 31.616 32.7418 29.8854 32.8783C29.1704 32.9352 28.5772 33.4535 28.4261 34.1555L27.2041 39.8187C26.2389 40.0185 25.2866 40.272 24.3571 40.5792L20.4734 36.2924C19.9924 35.761 19.2205 35.6083 18.5705 35.917C16.9228 36.7003 15.4001 37.5729 14.0449 38.5105C13.455 38.9184 13.2031 39.6643 13.4225 40.3452L15.1954 45.849C14.4576 46.5072 13.7572 47.2075 13.0991 47.9453L7.59688 46.1724C6.91438 45.9514 6.1685 46.2049 5.76225 46.7948C4.82463 48.15 3.952 49.6727 3.16875 51.3204C2.86 51.9688 3.01275 52.7423 3.54413 53.2233L7.83087 57.107C7.52537 58.0382 7.27025 58.9904 7.07037 59.9557L1.40725 61.1777C0.706875 61.3288 0.1885 61.9219 0.13 62.6353C0.0617499 63.5014 0 64.3675 0 65.2499C0 66.1323 0.0617499 66.9984 0.13 67.8629ZM3.28412 64.0978L8.81238 62.9034C9.46562 62.762 9.96613 62.2355 10.0734 61.5758C10.3171 60.0775 10.7104 58.6069 11.2418 57.2029C11.479 56.5789 11.3084 55.872 10.8128 55.4235L6.63812 51.6405C7.00213 50.9434 7.38237 50.2755 7.77562 49.6434L13.1316 51.3692C13.7654 51.5723 14.4641 51.3692 14.8882 50.8524C15.847 49.6792 16.9293 48.5985 18.1025 47.6382C18.6193 47.2157 18.8256 46.5185 18.6193 45.8815L16.8935 40.5255C17.5256 40.1307 18.1919 39.7504 18.8906 39.388L22.6736 43.5643C23.1238 44.0599 23.8323 44.2305 24.4546 43.9933C25.8554 43.4619 27.326 43.0687 28.8259 42.8249C29.4856 42.7177 30.0121 42.2172 30.1535 41.5639L31.3463 36.0357C32.1116 35.995 32.89 35.9934 33.6521 36.0357L34.8465 41.5639C34.9879 42.2172 35.5144 42.7177 36.1741 42.8249C37.6724 43.0687 39.143 43.4619 40.547 43.9933C41.1678 44.2305 41.8763 44.0615 42.3264 43.5643L46.1094 39.3897C46.8065 39.7537 47.4744 40.1339 48.1065 40.5272L46.3807 45.8832C46.176 46.5202 46.3808 47.2157 46.8975 47.6398C48.0708 48.5985 49.1514 49.6808 50.1118 50.854C50.5359 51.3724 51.233 51.5788 51.8684 51.3708L57.2244 49.645C57.6193 50.2772 57.9995 50.9434 58.3619 51.6405L54.1856 55.4235C53.69 55.872 53.5194 56.5789 53.7566 57.2045C54.288 58.6053 54.6812 60.0759 54.925 61.5758C55.0322 62.2355 55.5327 62.762 56.186 62.9034L61.7143 64.0962C61.7354 64.478 61.75 64.8632 61.75 65.2499C61.75 65.6367 61.737 66.0218 61.7159 66.402L56.1876 67.5964C55.5344 67.7378 55.0339 68.2643 54.9266 68.924C54.6829 70.4223 54.2896 71.8929 53.7583 73.2969C53.521 73.9209 53.6916 74.6278 54.1873 75.0763L58.3619 78.8593C57.9979 79.5564 57.6176 80.2243 57.2244 80.8564L51.8684 79.1307C51.2297 78.9227 50.5359 79.129 50.1118 79.6474C49.1546 80.8174 48.0724 81.8997 46.8975 82.8617C46.3808 83.2842 46.176 83.9813 46.3807 84.6167L48.1065 89.9727C47.4744 90.3675 46.8081 90.7478 46.111 91.1102L42.328 86.9339C41.8795 86.4383 41.1726 86.2709 40.547 86.5049C39.1462 87.0363 37.6756 87.4295 36.1757 87.6733C35.516 87.7805 34.9895 88.281 34.8481 88.9343L33.6554 94.4625C32.89 94.5032 32.1116 94.5048 31.3495 94.4625L30.1551 88.9343C30.0137 88.281 29.4872 87.7805 28.8275 87.6733C27.3293 87.4295 25.8586 87.0363 24.4546 86.5049C23.8323 86.2677 23.1238 86.4367 22.6753 86.9339L18.8923 91.1085C18.1951 90.7445 17.5273 90.3643 16.8951 89.971L18.6209 84.615C18.8256 83.978 18.6209 83.2825 18.1041 82.8584C16.9309 81.8997 15.8503 80.8174 14.8899 79.6442C14.4657 79.1258 13.767 78.921 13.1332 79.1274L7.77725 80.8532C7.38237 80.221 7.00212 79.5548 6.63975 78.856L10.816 75.073C11.3116 74.6245 11.4823 73.9177 11.245 73.292C10.7136 71.8913 10.3204 70.4207 10.0766 68.9208C9.96938 68.261 9.46887 67.7345 8.81563 67.5932L3.28412 66.4037C3.26462 66.0218 3.25 65.6367 3.25 65.2499C3.25 64.8632 3.263 64.478 3.28412 64.0978Z" fill="#55B4ED"/>
<path d="M84.8559 23.3818C85.4669 23.19 85.9089 22.6554 85.982 22.0184C86.0795 21.1978 86.125 20.4552 86.125 19.7499C86.125 19.0447 86.0795 18.302 85.9836 17.4814C85.9105 16.8444 85.4685 16.3098 84.8575 16.118L80.3514 14.7027C80.2165 14.3338 80.067 13.9714 79.9029 13.6172L82.0869 9.43279C82.3826 8.86567 82.3176 8.17667 81.9211 7.67292C80.9802 6.48342 79.898 5.40117 78.7052 4.45704C78.2015 4.05892 77.5125 3.99554 76.9454 4.28967L72.7577 6.47367C72.4035 6.31117 72.0411 6.16167 71.6722 6.02679L70.2569 1.52067C70.0651 0.90967 69.5305 0.46767 68.8935 0.394545C67.249 0.202795 65.9994 0.202795 64.3549 0.394545C63.7179 0.46767 63.1833 0.90967 62.9915 1.52067L61.5761 6.02679C61.2073 6.16167 60.8449 6.31117 60.4906 6.47529L56.3063 4.29129C55.7391 3.99717 55.0518 4.06054 54.5464 4.45704C53.3569 5.39792 52.2746 6.48017 51.3305 7.67292C50.9324 8.17667 50.8674 8.86404 51.1631 9.43279L53.3455 13.6172C53.183 13.9714 53.0335 14.3338 52.8986 14.7027L48.3925 16.118C47.7815 16.3098 47.3395 16.8444 47.2664 17.4814C47.1705 18.302 47.125 19.0447 47.125 19.7499C47.125 20.4552 47.1705 21.1978 47.2664 22.0184C47.3395 22.6554 47.7815 23.19 48.3925 23.3818L52.8986 24.7972C53.0335 25.166 53.183 25.5284 53.3471 25.8827L51.1631 30.067C50.8674 30.6342 50.9324 31.3232 51.3289 31.8269C52.2698 33.0164 53.352 34.0987 54.5448 35.0428C55.0469 35.4409 55.7375 35.5043 56.3046 35.2102L60.489 33.0278C60.8432 33.1903 61.2056 33.3398 61.5745 33.4747L62.9899 37.9808C63.1816 38.5918 63.7163 39.0338 64.3533 39.1069C65.1771 39.2044 65.9198 39.2499 66.625 39.2499C67.3302 39.2499 68.0729 39.2044 68.8935 39.1085C69.5305 39.0354 70.0651 38.5934 70.2569 37.9824L71.6722 33.4763C72.0411 33.3414 72.4035 33.1919 72.7577 33.0278L76.9421 35.2118C77.5092 35.5075 78.1982 35.4442 78.702 35.046C79.8915 34.1052 80.9737 33.0229 81.9179 31.8302C82.316 31.3264 82.381 30.639 82.0853 30.0703L79.9012 25.8859C80.0654 25.5317 80.2149 25.1693 80.3497 24.8004L84.8559 23.3818ZM78.5834 21.9453C78.0699 22.1078 77.6701 22.5124 77.5141 23.0292C77.2931 23.7637 77.0006 24.4705 76.6464 25.1319C76.3913 25.6064 76.3864 26.1768 76.6366 26.6529L78.6987 30.6049C78.3136 31.0323 77.9058 31.4402 77.48 31.8237L73.528 29.7615C73.0503 29.5113 72.4799 29.5178 72.007 29.7713C71.3456 30.1255 70.6388 30.418 69.9043 30.639C69.3891 30.7934 68.9829 31.1948 68.8204 31.7083L67.4814 35.9723C66.8883 36.008 66.3634 36.008 65.7686 35.9723L64.4296 31.7083C64.2671 31.1948 63.8625 30.795 63.3457 30.639C62.6096 30.418 61.9027 30.1255 61.2446 29.7713C60.7701 29.5162 60.1997 29.5113 59.722 29.7615L55.77 31.8237C55.3426 31.4385 54.9347 31.0307 54.5512 30.6049L56.6134 26.6529C56.862 26.1768 56.8588 25.6048 56.6036 25.1319C56.2494 24.4705 55.9569 23.7637 55.7359 23.0292C55.5815 22.514 55.1801 22.1078 54.6666 21.9453L50.4026 20.6063C50.3831 20.3089 50.375 20.0245 50.375 19.7499C50.375 19.4753 50.3831 19.1909 50.4026 18.8935L54.6666 17.5545C55.1801 17.392 55.5799 16.9874 55.7359 16.4707C55.9569 15.7345 56.2494 15.0277 56.6036 14.3695C56.8588 13.895 56.8636 13.3247 56.6134 12.8469L54.5512 8.89492C54.9364 8.46754 55.3442 8.05967 55.77 7.67617L59.722 9.73829C60.1981 9.98692 60.7701 9.98204 61.243 9.72854C61.9044 9.37429 62.6112 9.08179 63.3457 8.86079C63.8609 8.70642 64.2671 8.30504 64.4296 7.79154L65.7686 3.52754C66.3617 3.49179 66.8866 3.49179 67.4814 3.52754L68.8204 7.79154C68.9829 8.30504 69.3875 8.70479 69.9043 8.86079C70.6404 9.08179 71.3473 9.37429 72.0054 9.72854C72.4799 9.98367 73.0503 9.98854 73.528 9.73829L77.48 7.67617C77.9074 8.06129 78.3153 8.46917 78.6987 8.89492L76.6366 12.8469C76.388 13.323 76.3913 13.895 76.6464 14.3679C77.0006 15.0293 77.2931 15.7362 77.5141 16.4707C77.6685 16.9858 78.0699 17.392 78.5834 17.5545L82.8474 18.8935C82.8669 19.1909 82.875 19.4753 82.875 19.7499C82.875 20.0245 82.8669 20.3089 82.8474 20.6063L78.5834 21.9453Z" fill="#55B4ED"/>
<path d="M96.3008 53.8164L93.509 52.8252C93.3497 52.3718 93.1678 51.9282 92.9614 51.4975L94.2305 48.8244C94.4954 48.2687 94.4223 47.6122 94.042 47.1279C93.2295 46.0895 92.2902 45.1487 91.2486 44.3329C90.7628 43.9527 90.103 43.8812 89.5505 44.1444L86.8758 45.4135C86.4468 45.2088 86.0031 45.0252 85.5497 44.8675L84.5569 42.0758C84.3505 41.4957 83.8321 41.0813 83.2211 41.0065C81.7733 40.8327 80.7251 40.8327 79.2772 41.0065C78.6662 41.0797 78.1479 41.494 77.9415 42.0758L76.9503 44.8675C76.4969 45.0268 76.0532 45.2088 75.6226 45.4152L72.9495 44.146C72.397 43.8828 71.7389 43.9559 71.253 44.3345C70.2146 45.147 69.2737 46.0863 68.458 47.1279C68.0794 47.6122 68.0063 48.2703 68.2695 48.826L69.5386 51.5008C69.3339 51.9298 69.1503 52.3734 68.9926 52.8268L66.2009 53.8197C65.6207 54.026 65.2064 54.5444 65.1316 55.1554C65.0423 55.8753 65 56.5204 65 57.1249C65 57.7294 65.0423 58.3729 65.13 59.096C65.2031 59.707 65.6175 60.2254 66.1992 60.4318L68.991 61.423C69.1503 61.8764 69.3322 62.32 69.5386 62.7507L68.2695 65.4238C68.0046 65.9795 68.0777 66.636 68.458 67.1203C69.2705 68.1587 70.2098 69.0995 71.2514 69.9153C71.7356 70.2939 72.3954 70.367 72.9495 70.1038L75.6242 68.8347C76.0532 69.0394 76.4969 69.223 76.9503 69.3807L77.9431 72.1724C78.1495 72.7525 78.6679 73.1669 79.2789 73.2416C80.002 73.3326 80.6455 73.3749 81.25 73.3749C81.8545 73.3749 82.498 73.3326 83.2211 73.2449C83.8321 73.1718 84.3505 72.7574 84.5569 72.1757L85.5481 69.3839C86.0015 69.2247 86.4451 69.0427 86.8758 68.8363L89.5489 70.1054C90.103 70.3703 90.7628 70.2988 91.2454 69.9169C92.2838 69.1044 93.2246 68.1652 94.0404 67.1235C94.419 66.6393 94.4921 65.9812 94.2289 65.4254L92.9598 62.7507C93.1645 62.3217 93.3481 61.878 93.5057 61.4247L96.2975 60.4318C96.8776 60.2254 97.292 59.707 97.3667 59.096C97.4577 58.3729 97.5 57.7294 97.5 57.1249C97.5 56.5204 97.4577 55.8769 97.37 55.1538C97.2969 54.5412 96.8825 54.0244 96.3008 53.8164ZM94.2338 57.718L91.6581 58.6329C91.1592 58.81 90.7774 59.2195 90.636 59.7298C90.4231 60.5017 90.1193 61.2378 89.7341 61.9187C89.4741 62.3785 89.4546 62.9375 89.6805 63.4153L90.8472 65.8739C90.5775 66.1697 90.2947 66.4524 90.0006 66.7205L87.542 65.5538C87.0675 65.3279 86.5069 65.3474 86.0454 65.6074C85.3629 65.9942 84.6267 66.2964 83.8581 66.5093C83.3479 66.6507 82.9384 67.0325 82.7596 67.5314L81.8448 70.107C81.4515 70.1281 81.0518 70.1281 80.6585 70.107L79.7436 67.5314C79.5665 67.0325 79.157 66.6507 78.6467 66.5093C77.8749 66.2964 77.1387 65.9925 76.4579 65.6074C75.998 65.349 75.4406 65.3295 74.9613 65.5538L72.5026 66.7205C72.2069 66.4508 71.9241 66.168 71.656 65.8739L72.8227 63.4153C73.0502 62.9375 73.0291 62.3785 72.7691 61.9187C72.3824 61.2362 72.0801 60.5 71.8673 59.7314C71.7259 59.2212 71.344 58.8117 70.8451 58.6329L68.2695 57.718C68.2565 57.5214 68.25 57.3248 68.25 57.1249C68.25 56.925 68.2565 56.7268 68.2662 56.5318L70.8419 55.6153C71.3408 55.4382 71.7226 55.0287 71.8624 54.5184C72.0769 53.7449 72.3807 53.0104 72.7659 52.3295C73.0259 51.8697 73.0454 51.3107 72.8195 50.8329L71.6528 48.3743C71.9225 48.0785 72.2053 47.7958 72.4994 47.5277L74.958 48.6944C75.4357 48.9219 75.9948 48.9024 76.4546 48.6408C77.1371 48.254 77.8733 47.9518 78.6419 47.7389C79.1521 47.5975 79.5616 47.2157 79.7404 46.7168L80.6552 44.1412C81.0485 44.12 81.4482 44.12 81.8415 44.1412L82.7564 46.7168C82.9335 47.2157 83.343 47.5975 83.8533 47.7389C84.6251 47.9518 85.3613 48.2557 86.0421 48.6408C86.5036 48.9024 87.061 48.9219 87.5387 48.6944L89.9974 47.5277C90.2931 47.7974 90.5759 48.0802 90.844 48.3743L89.6773 50.8329C89.4498 51.3107 89.4709 51.8697 89.7309 52.3295C90.1176 53.012 90.4199 53.7482 90.6327 54.5168C90.7741 55.027 91.156 55.4365 91.6549 55.6153L94.2305 56.5302C94.2435 56.7284 94.25 56.925 94.25 57.1249C94.25 57.3248 94.2435 57.5214 94.2338 57.718Z" fill="#55B4ED"/>
<path d="M32.5 83.1249C42.3556 83.1249 50.375 75.1055 50.375 65.2499C50.375 55.3943 42.3556 47.3749 32.5 47.3749C22.6444 47.3749 14.625 55.3943 14.625 65.2499C14.625 75.1055 22.6444 83.1249 32.5 83.1249ZM32.5 50.6249C40.5632 50.6249 47.125 57.1867 47.125 65.2499C47.125 73.3132 40.5632 79.8749 32.5 79.8749C24.4368 79.8749 17.875 73.3132 17.875 65.2499C17.875 57.1867 24.4368 50.6249 32.5 50.6249Z" fill="#55B4ED"/>
<path d="M0.0357666 38.2083L2.53177 40.2899C9.97264 31.367 20.8943 26.2499 32.5 26.2499C33.3271 26.2499 34.1526 26.297 34.9781 26.349L32.9761 28.351L35.2739 30.6488L40.1489 25.7738C40.7843 25.1384 40.7843 24.1114 40.1489 23.476L35.2739 18.601L32.9761 20.8988L35.1845 23.1072C34.2908 23.0503 33.3954 22.9999 32.5 22.9999C19.929 22.9999 8.09577 28.5428 0.0357666 38.2083Z" fill="#55B4ED"/>
<path d="M66.625 11.6249C62.1449 11.6249 58.5 15.2698 58.5 19.7499C58.5 24.23 62.1449 27.8749 66.625 27.8749C71.1051 27.8749 74.75 24.23 74.75 19.7499C74.75 15.2698 71.1051 11.6249 66.625 11.6249ZM66.625 24.6249C63.9373 24.6249 61.75 22.4377 61.75 19.7499C61.75 17.0622 63.9373 14.8749 66.625 14.8749C69.3127 14.8749 71.5 17.0622 71.5 19.7499C71.5 22.4377 69.3127 24.6249 66.625 24.6249Z" fill="#55B4ED"/>
<path d="M81.25 50.6249C77.6652 50.6249 74.75 53.5402 74.75 57.1249C74.75 60.7097 77.6652 63.6249 81.25 63.6249C84.8348 63.6249 87.75 60.7097 87.75 57.1249C87.75 53.5402 84.8348 50.6249 81.25 50.6249ZM81.25 60.3749C79.4576 60.3749 78 58.9173 78 57.1249C78 55.3325 79.4576 53.8749 81.25 53.8749C83.0424 53.8749 84.5 55.3325 84.5 57.1249C84.5 58.9173 83.0424 60.3749 81.25 60.3749Z" fill="#55B4ED"/>
<path d="M96.1935 5.1574L88.0685 3.5324C87.1845 3.35365 86.3314 3.92727 86.1559 4.8064L84.5309 12.9314L87.7175 13.57L88.5934 9.19552C90.168 12.4715 91 16.0823 91 19.7499C91 25.3529 89.1508 30.6211 85.6538 34.9843L88.1904 37.0171C92.0985 32.1405 94.25 26.0094 94.25 19.7499C94.25 15.494 93.2669 11.2983 91.3965 7.51202L95.5565 8.34402L96.1935 5.1574Z" fill="#55B4ED"/>
</svg>
