<svg width="100" height="100" viewBox="0 0 100 100" fill="none" xmlns="http://www.w3.org/2000/svg">
<path d="M75.9298 96.586C74.6699 97.8459 75.5622 100 77.3441 100H97.9992C99.1038 100 99.9992 99.1048 99.9992 98.0002V77.345C99.9992 75.5632 97.8449 74.6709 96.585 75.9308L75.9298 96.586Z" fill="#55B4ED"/>
<path d="M24.0702 3.41403C25.3301 2.1541 24.4378 -0.000185013 22.6559 -0.000185013L2.00079 -0.000185013C0.896223 -0.000185013 0.00079155 0.895247 0.00079155 1.99981L0.00079155 22.655C0.00079155 24.4368 2.15508 25.3291 3.415 24.0692L24.0702 3.41403Z" fill="#55B4ED"/>
<path d="M21.4615 67.6886C21.8797 67.6891 22.2939 67.607 22.6802 67.447C23.0666 67.2869 23.4176 67.0521 23.7129 66.7561L41.6267 48.8421L48.9272 56.1428C49.2229 56.4384 49.5739 56.673 49.9602 56.833C50.3465 56.993 50.7606 57.0754 51.1787 57.0754C51.5968 57.0754 52.0109 56.993 52.3972 56.833C52.7835 56.673 53.1345 56.4384 53.4302 56.1428L73.4654 36.1075L73.4642 43.278C73.4642 44.1224 73.7997 44.9323 74.3968 45.5294C74.9939 46.1265 75.8038 46.462 76.6482 46.462C77.4927 46.462 78.3026 46.1265 78.8997 45.5294C79.4968 44.9323 79.8322 44.1224 79.8322 43.278L79.8346 28.4193C79.8346 27.5749 79.4992 26.765 78.9021 26.1679C78.3049 25.5708 77.4951 25.2354 76.6506 25.2354H61.792C60.9476 25.2354 60.1377 25.5708 59.5406 26.1679C58.9435 26.765 58.608 27.5749 58.608 28.4193C58.608 29.2638 58.9435 30.0737 59.5406 30.6708C60.1377 31.2679 60.9476 31.6033 61.792 31.6033H68.9638L51.1787 49.3884L43.8782 42.0878C43.5825 41.7921 43.2315 41.5576 42.8452 41.3976C42.4589 41.2376 42.0449 41.1552 41.6267 41.1552C41.2086 41.1552 40.7945 41.2376 40.4082 41.3976C40.0219 41.5576 39.6709 41.7921 39.3752 42.0878L19.21 62.2531C18.7647 62.6984 18.4614 63.2657 18.3385 63.8834C18.2157 64.501 18.2787 65.1412 18.5197 65.723C18.7607 66.3049 19.1688 66.8021 19.6925 67.152C20.2161 67.5019 20.8317 67.6886 21.4615 67.6886Z" fill="#55B4ED"/>
<path d="M76.6505 74.0566H21.4613C20.6169 74.0566 19.807 74.3921 19.2099 74.9892C18.6128 75.5863 18.2773 76.3962 18.2773 77.2406C18.2773 78.0851 18.6128 78.8949 19.2099 79.4921C19.807 80.0892 20.6169 80.4246 21.4613 80.4246H76.6505C77.495 80.4246 78.3048 80.0892 78.9019 79.4921C79.499 78.8949 79.8345 78.0851 79.8345 77.2406C79.8345 76.3962 79.499 75.5863 78.9019 74.9892C78.3048 74.3921 77.495 74.0566 76.6505 74.0566Z" fill="#55B4ED"/>
</svg>
