<svg width="100" height="100" viewBox="0 0 100 100" fill="none" xmlns="http://www.w3.org/2000/svg">
<path d="M51.1245 76.7618C50.2985 76.7618 49.4785 76.6214 48.6996 76.3464L32.6505 70.6856C32.4912 70.6295 32.3532 70.5254 32.2556 70.3876C32.158 70.2498 32.1055 70.0851 32.1055 69.9162V49.763C32.1053 49.5518 32.1871 49.3487 32.3337 49.1965C32.4802 49.0443 32.6801 48.9549 32.8912 48.9471C35.2564 48.8773 37.6057 49.3553 39.7555 50.344L42.2449 51.4789L51.4892 51.9758C52.3738 52.0262 53.2079 52.4042 53.8288 53.0362C54.4498 53.6682 54.8131 54.5089 54.8478 55.3942C54.8825 56.2795 54.5863 57.1461 54.0168 57.8248C53.4473 58.5035 52.6454 58.9458 51.7674 59.0653L48.6988 59.2823L53.9729 60.1896L71.9843 51.1117C72.7625 50.6565 73.679 50.4976 74.565 50.6643C75.4511 50.831 76.2472 51.3121 76.8067 52.0191C77.3663 52.7261 77.6516 53.6114 77.6103 54.5121C77.569 55.4128 77.2038 56.2683 76.5819 56.9211L55.9392 74.9602C54.6053 76.1237 52.8946 76.7638 51.1245 76.7618ZM33.7373 69.3369L49.2397 74.8036C50.1876 75.1369 51.2068 75.2128 52.1936 75.0236C53.1803 74.8344 54.0992 74.3868 54.8565 73.7265L75.4495 55.7478C75.7841 55.3691 75.972 54.8831 75.9791 54.3779C75.9863 53.8726 75.8122 53.3815 75.4884 52.9935C75.1646 52.6055 74.7126 52.3463 74.2142 52.2629C73.7158 52.1795 73.2041 52.2774 72.7716 52.5388L54.4673 61.7684C54.3113 61.8469 54.1343 61.8732 53.9623 61.8435L41.7822 59.7458C41.5857 59.7119 41.4084 59.6072 41.2838 59.4515C41.1592 59.2958 41.096 59.0998 41.106 58.9006C41.1161 58.7015 41.1987 58.5129 41.3383 58.3705C41.478 58.2281 41.6649 58.1418 41.8638 58.1278L51.5977 57.4408C52.0638 57.3603 52.4843 57.1117 52.7794 56.7421C53.0746 56.3724 53.2241 55.9075 53.1996 55.4351C53.175 54.9627 52.9782 54.5157 52.6464 54.1786C52.3145 53.8416 51.8706 53.6379 51.3987 53.606L42.0025 53.101C41.9007 53.0954 41.8008 53.0707 41.708 53.0283L39.0799 51.8314C37.4003 51.0617 35.584 50.6348 33.7373 50.5757V69.3369Z" fill="#55B4ED"/>
<path d="M31.2285 74.5543H23.0122C22.3461 74.5534 21.7074 74.2883 21.2365 73.8172C20.7655 73.3461 20.5006 72.7074 20.5 72.0412V49.2437C20.5006 48.5776 20.7655 47.939 21.2365 47.468C21.7075 46.997 22.3461 46.7321 23.0122 46.7314H31.2285C31.8947 46.7321 32.5334 46.997 33.0045 47.4679C33.4756 47.9389 33.7407 48.5775 33.7415 49.2437V72.0412C33.7407 72.7075 33.4756 73.3462 33.0045 73.8173C32.5334 74.2884 31.8947 74.5534 31.2285 74.5543ZM23.0122 48.3633C22.7788 48.3635 22.555 48.4563 22.3899 48.6214C22.2249 48.7864 22.1321 49.0102 22.1318 49.2437V72.0412C22.1318 72.2748 22.2246 72.4988 22.3896 72.664C22.5547 72.8293 22.7786 72.9222 23.0122 72.9224H31.2285C31.4621 72.9222 31.6862 72.8293 31.8514 72.6641C32.0166 72.4989 32.1095 72.2749 32.1097 72.0412V49.2437C32.1093 49.0102 32.0163 48.7864 31.8511 48.6213C31.6859 48.4563 31.462 48.3635 31.2285 48.3633H23.0122Z" fill="#55B4ED"/>
<path d="M27.1199 71.0869C26.5884 71.086 26.069 70.9277 25.6274 70.6318C25.1858 70.3359 24.8419 69.9157 24.639 69.4244C24.4362 68.9331 24.3835 68.3927 24.4877 67.8714C24.5919 67.3502 24.8483 66.8715 25.2244 66.496C25.6006 66.1204 26.0796 65.8647 26.601 65.7613C27.1224 65.6579 27.6627 65.7114 28.1538 65.915C28.6448 66.1186 29.0644 66.4632 29.3596 66.9052C29.6549 67.3472 29.8124 67.8669 29.8124 68.3984C29.8114 69.1118 29.5272 69.7956 29.0224 70.2997C28.5175 70.8037 27.8333 71.0869 27.1199 71.0869ZM27.1199 67.3426C26.9111 67.3434 26.7072 67.4061 26.5339 67.5227C26.3607 67.6393 26.2259 67.8047 26.1466 67.9979C26.0672 68.1911 26.0469 68.4034 26.0882 68.6081C26.1295 68.8129 26.2306 69.0008 26.3786 69.1481C26.5266 69.2954 26.715 69.3956 26.9199 69.4359C27.1248 69.4763 27.337 69.455 27.5298 69.3748C27.7227 69.2946 27.8874 69.159 28.0032 68.9852C28.119 68.8114 28.1808 68.6072 28.1806 68.3984C28.1807 68.2592 28.1533 68.1214 28.1 67.9929C28.0467 67.8643 27.9685 67.7476 27.87 67.6493C27.7714 67.551 27.6544 67.4732 27.5257 67.4203C27.397 67.3674 27.2591 67.3404 27.1199 67.341V67.3426Z" fill="#55B4ED"/>
<path d="M63.4318 51.2448H57.2154C56.9011 51.2474 56.5894 51.1871 56.2987 51.0675C56.008 50.948 55.7441 50.7716 55.5225 50.5487C55.3008 50.3258 55.126 50.0608 55.0081 49.7694C54.8903 49.478 54.8318 49.166 54.8362 48.8517V44.9565C54.8362 44.7401 54.9221 44.5326 55.0751 44.3796C55.2282 44.2266 55.4357 44.1406 55.6521 44.1406C55.8685 44.1406 56.076 44.2266 56.229 44.3796C56.382 44.5326 56.468 44.7401 56.468 44.9565V48.8517C56.4643 48.9515 56.481 49.051 56.5171 49.1441C56.5532 49.2372 56.6079 49.322 56.6778 49.3932C56.7478 49.4645 56.8315 49.5207 56.924 49.5585C57.0164 49.5963 57.1155 49.6148 57.2154 49.613H63.4318C63.932 49.613 64.5031 49.205 64.5031 48.8517V44.9565C64.5031 44.7401 64.5891 44.5326 64.7421 44.3796C64.8951 44.2266 65.1027 44.1406 65.3191 44.1406C65.5354 44.1406 65.743 44.2266 65.896 44.3796C66.049 44.5326 66.135 44.7401 66.135 44.9565V48.8517C66.0728 49.5194 65.7588 50.1384 65.2567 50.5829C64.7546 51.0274 64.1021 51.2641 63.4318 51.2448Z" fill="#55B4ED"/>
<path d="M65.3177 45.7732H55.6507C55.4594 45.7731 55.2741 45.7059 55.1274 45.5831C54.9806 45.4604 54.8817 45.29 54.8478 45.1017C54.429 43.1375 53.4643 41.3315 52.0647 39.8912C50.6509 38.2741 49.7327 36.284 49.42 34.1588C49.1072 32.0337 49.4131 29.8634 50.3011 27.9076C51.1891 25.9517 52.6216 24.2929 54.4274 23.1296C56.2332 21.9663 58.3357 21.3477 60.4838 21.3477C62.6318 21.3477 64.7344 21.9663 66.5401 23.1296C68.3459 24.2929 69.7784 25.9517 70.6664 27.9076C71.5544 29.8634 71.8603 32.0337 71.5476 34.1588C71.2348 36.284 70.3167 38.2741 68.9028 39.8912C67.5038 41.3314 66.5394 43.1371 66.1205 45.1009C66.0868 45.2893 65.988 45.4599 65.8412 45.5828C65.6944 45.7057 65.5091 45.7731 65.3177 45.7732ZM56.3099 44.1413H64.6592C65.2154 42.1465 66.252 40.3183 67.6781 38.8167C68.8855 37.4354 69.6695 35.7357 69.9365 33.9208C70.2035 32.1058 69.9421 30.2523 69.1836 28.5819C68.4252 26.9115 67.2017 25.4949 65.6595 24.5014C64.1173 23.508 62.3215 22.9796 60.487 22.9796C58.6525 22.9796 56.8568 23.508 55.3146 24.5014C53.7724 25.4949 52.5489 26.9115 51.7904 28.5819C51.032 30.2523 50.7706 32.1058 51.0376 33.9208C51.3046 35.7357 52.0886 37.4354 53.2959 38.8167C54.7202 40.3189 55.755 42.147 56.3099 44.1413Z" fill="#55B4ED"/>
<path d="M60.4873 53.9086C59.5823 53.9073 58.7149 53.5472 58.075 52.9072C57.4352 52.2673 57.0753 51.3997 57.0743 50.4948C57.0719 50.2716 57.1552 50.0561 57.307 49.8924C57.4588 49.7288 57.6675 49.6296 57.8902 49.6152H63.0851C63.3015 49.6152 63.5091 49.7012 63.6621 49.8542C63.8151 50.0072 63.9011 50.2148 63.9011 50.4311C63.9071 50.8841 63.8234 51.3338 63.6548 51.7543C63.4861 52.1748 63.2359 52.5577 62.9185 52.881C62.6012 53.2042 62.2229 53.4615 61.8056 53.6379C61.3884 53.8142 60.9403 53.9062 60.4873 53.9086ZM58.8726 51.2471C59.0156 51.5548 59.2437 51.8153 59.5298 51.9978C59.8159 52.1803 60.1483 52.2773 60.4877 52.2773C60.8271 52.2773 61.1594 52.1803 61.4455 51.9978C61.7317 51.8153 61.9597 51.5548 62.1028 51.2471H58.8726Z" fill="#55B4ED"/>
<path d="M58.2481 36.1646C58.0318 36.1646 57.8243 36.0786 57.6713 35.9255L55.5401 33.7984C55.4622 33.7232 55.4 33.6331 55.3573 33.5336C55.3145 33.4341 55.292 33.327 55.291 33.2187C55.2901 33.1103 55.3107 33.0029 55.3518 32.9026C55.3928 32.8023 55.4534 32.7112 55.53 32.6346C55.6066 32.558 55.6977 32.4974 55.798 32.4564C55.8982 32.4154 56.0057 32.3947 56.114 32.3957C56.2224 32.3966 56.3294 32.4191 56.429 32.4619C56.5285 32.5046 56.6185 32.5668 56.6938 32.6447L58.2481 34.1991L63.9335 28.5137C64.0087 28.4358 64.0987 28.3737 64.1983 28.3309C64.2978 28.2881 64.4049 28.2656 64.5132 28.2647C64.6216 28.2637 64.729 28.2844 64.8293 28.3254C64.9296 28.3664 65.0207 28.427 65.0973 28.5036C65.1739 28.5802 65.2345 28.6713 65.2755 28.7716C65.3165 28.8719 65.3372 28.9793 65.3362 29.0877C65.3353 29.196 65.3128 29.3031 65.27 29.4026C65.2272 29.5021 65.1651 29.5922 65.0872 29.6674L58.825 35.928C58.6716 36.0801 58.4642 36.1652 58.2481 36.1646Z" fill="#55B4ED"/>
<path d="M75.9298 96.586C74.6699 97.8459 75.5622 100 77.3441 100H97.9992C99.1038 100 99.9992 99.1048 99.9992 98.0002V77.345C99.9992 75.5632 97.8449 74.6709 96.585 75.9308L75.9298 96.586Z" fill="#55B4ED"/>
<path d="M24.0702 3.41403C25.3301 2.1541 24.4378 -0.000185013 22.6559 -0.000185013L2.00079 -0.000185013C0.896223 -0.000185013 0.00079155 0.895247 0.00079155 1.99981L0.00079155 22.655C0.00079155 24.4368 2.15508 25.3291 3.415 24.0692L24.0702 3.41403Z" fill="#55B4ED"/>
</svg>
