<svg width="77" height="77" viewBox="0 0 77 77" fill="none" xmlns="http://www.w3.org/2000/svg">
<path d="M62.6135 16.7884L58.9525 13.1273L55.2914 16.7884L53.5901 15.0871L58.9525 9.72479L64.3148 15.0871L62.6135 16.7884Z" fill="#55B4ED"/>
<path d="M57.7493 12.0276H60.1556V25.2618H57.7493V12.0276Z" fill="#55B4ED"/>
<path d="M64.968 40.9023H62.5618V35.7285C71.6392 33.8757 77.8392 25.4504 76.9075 16.2326C75.9764 7.01541 68.2172 0 58.9525 0C49.6877 0 41.9286 7.01541 40.9974 16.2326C40.0657 25.4504 46.2657 33.8757 55.3431 35.7285V40.9023H52.9369V74.5894H48.1245V36.0898H36.0933V74.5894H31.2809V45.7147H19.2498V74.5894H14.4373V57.7458H2.40622V74.5894H0V76.9956H76.9991V74.5894H64.968V40.9023ZM12.0311 74.5894H4.81245V60.152H12.0311V74.5894ZM28.8747 74.5894H21.656V48.1209H28.8747V74.5894ZM45.7182 74.5894H38.4996V38.496H45.7182V74.5894ZM43.312 18.0431C43.312 9.69538 49.8674 2.8192 58.2058 2.42091C66.5436 2.02203 73.7252 8.24202 74.5218 16.551C75.3178 24.8606 69.4485 32.3313 61.1866 33.5232L60.1556 33.6713V40.9023H57.7493V33.6713L56.7184 33.5232C49.0391 32.383 43.3437 25.8064 43.312 18.0431ZM62.5618 74.5894H55.3431V43.3085H62.5618V74.5894Z" fill="#55B4ED"/>
<path d="M72.1867 18.0432C72.1867 10.734 66.2616 4.80896 58.9525 4.80896C51.6433 4.80896 45.7182 10.734 45.7182 18.0432C45.7182 25.3523 51.6433 31.2774 58.9525 31.2774C66.2581 31.2686 72.1779 25.3488 72.1867 18.0432ZM48.1245 18.0432C48.1245 12.0629 52.9721 7.21518 58.9525 7.21518C64.9328 7.21518 69.7805 12.0629 69.7805 18.0432C69.7805 24.0229 64.9328 28.8712 58.9525 28.8712C52.9751 28.8641 48.1309 24.0206 48.1245 18.0432Z" fill="#55B4ED"/>
<path d="M17.3141 40.9023H25.7635L36.0933 30.5725V33.6836H38.4996V26.465H31.2809V28.8712H34.3921L24.7672 38.4961H16.373L0.385956 53.253L2.02026 55.0195L17.3141 40.9023Z" fill="#55B4ED"/>
<path d="M69.7805 40.9023H76.9991V43.3085H69.7805V40.9023Z" fill="#55B4ED"/>
<path d="M69.7805 45.7147H76.9991V48.1209H69.7805V45.7147Z" fill="#55B4ED"/>
<path d="M69.7805 50.5272H76.9991V52.9334H69.7805V50.5272Z" fill="#55B4ED"/>
<path d="M69.7805 55.3396H76.9991V57.7458H69.7805V55.3396Z" fill="#55B4ED"/>
<path d="M69.7805 60.152H76.9991V62.5583H69.7805V60.152Z" fill="#55B4ED"/>
<path d="M69.7805 64.9645H76.9991V67.3708H69.7805V64.9645Z" fill="#55B4ED"/>
<path d="M69.7805 69.777H76.9991V72.1832H69.7805V69.777Z" fill="#55B4ED"/>
</svg>
