<svg width="14" height="14" viewBox="0 0 14 14" fill="none" xmlns="http://www.w3.org/2000/svg">
<path d="M12.8947 9.2179C12.0311 9.2179 11.1853 9.08306 10.3829 8.8178C9.99159 8.68295 9.548 8.78685 9.29012 9.04918L7.70075 10.2495C5.87779 9.27686 4.71064 8.11043 3.74982 6.29928L4.9177 4.74749C5.2117 4.45276 5.31708 4.02316 5.19108 3.62012C4.92506 2.814 4.78949 1.96737 4.78949 1.10526C4.78949 0.495884 4.29361 0 3.68423 0H1.10526C0.495884 0 0 0.495884 0 1.10526C0 8.21505 5.78495 14 12.8947 14C13.5041 14 14 13.5041 14 12.8947V10.3232C14 9.71379 13.5041 9.2179 12.8947 9.2179ZM13.2632 12.8947C13.2632 13.0981 13.0974 13.2632 12.8947 13.2632C6.19093 13.2632 0.736831 7.80907 0.736831 1.10526C0.736831 0.901895 0.902621 0.736831 1.10526 0.736831H3.68423C3.88687 0.736831 4.05266 0.901895 4.05266 1.10526C4.05266 2.04622 4.20004 2.97022 4.48886 3.84632C4.53158 3.9841 4.49697 4.12633 4.36213 4.26632L3.02107 6.0421C2.93634 6.15484 2.92308 6.30588 2.98718 6.43115C4.07991 8.57757 5.40699 9.90538 7.56888 11.0129C7.6934 11.0777 7.84592 11.0644 7.95866 10.979L9.77278 9.60402C9.87153 9.50676 10.0167 9.47287 10.1478 9.51632C11.0291 9.80739 11.9531 9.95473 12.8948 9.95473C13.0974 9.95473 13.2632 10.1198 13.2632 10.3232V12.8947H13.2632Z" fill="white"/>
</svg>
