<svg width="90" height="89" viewBox="0 0 90 89" fill="none" xmlns="http://www.w3.org/2000/svg">
<path d="M72.3584 27.4808L63.0171 18.1396C62.8247 17.9455 62.5819 17.809 62.3161 17.7454C62.0503 17.6818 61.772 17.6937 61.5126 17.7796C61.2531 17.8655 61.0228 18.0221 60.8475 18.2318C60.6722 18.4415 60.5589 18.6959 60.5203 18.9665C60.3658 20.0465 59.9137 21.0621 59.2146 21.8997C58.5154 22.7372 57.5969 23.3635 56.5619 23.7084C55.5268 24.0533 54.4162 24.1032 53.3544 23.8525C52.2926 23.6019 51.3216 23.0605 50.5502 22.289C49.7788 21.5176 49.2374 20.5466 48.9867 19.4848C48.736 18.423 48.7859 17.3124 49.1308 16.2773C49.4757 15.2423 50.102 14.3238 50.9395 13.6247C51.7771 12.9255 52.7927 12.4734 53.8727 12.3189C54.1433 12.2803 54.3977 12.167 54.6074 11.9917C54.8171 11.8164 54.9737 11.5861 55.0596 11.3266C55.1455 11.0672 55.1574 10.7889 55.0938 10.5231C55.0302 10.2573 54.8937 10.0145 54.6996 9.82206L45.3584 0.480811C45.0829 0.205463 44.7094 0.0507812 44.32 0.0507812C43.9305 0.0507812 43.557 0.205463 43.2816 0.480811L35.1697 8.58978C34.7702 7.09487 33.9843 5.73147 32.8907 4.6367C31.7972 3.54193 30.4347 2.75439 28.9403 2.35327C27.4458 1.95214 25.8721 1.95159 24.3774 2.35165C22.8826 2.75171 21.5196 3.53829 20.4253 4.63229C19.331 5.72628 18.544 7.08912 18.1436 8.58375C17.7431 10.0784 17.7432 11.6521 18.1439 13.1467C18.5446 14.6412 19.3318 16.0039 20.4263 17.0978C21.5208 18.1916 22.8839 18.9779 24.3787 19.3777L16.2757 27.4808C16.0003 27.7563 15.8456 28.1298 15.8456 28.5192C15.8456 28.9087 16.0003 29.2822 16.2757 29.5577L24.3817 37.674C22.6022 38.152 21.0174 39.1757 19.85 40.6012C18.6826 42.0267 17.9913 43.7823 17.8735 45.6211C17.7556 47.4598 18.2171 49.2893 19.193 50.8522C20.1688 52.415 21.61 53.6327 23.3139 54.334L19.8844 64.226C19.4288 65.2524 19.2147 66.3697 19.2585 67.4918C19.3022 68.6139 19.6028 69.711 20.137 70.6988L25.2923 82.8894C25.3114 82.9363 25.3335 82.982 25.3584 83.026C25.7195 83.6877 25.9079 84.4298 25.9062 85.1836V86.5936C25.9062 86.9832 26.061 87.3567 26.3364 87.6322C26.6119 87.9076 26.9855 88.0624 27.375 88.0624C27.7645 88.0624 28.1381 87.9076 28.4136 87.6322C28.689 87.3567 28.8437 86.9832 28.8437 86.5936V85.1836C28.8422 83.9618 28.5395 82.7591 27.9625 81.6821L22.8057 69.4915C22.7853 69.4411 22.7617 69.3921 22.7352 69.3446C22.3986 68.7302 22.2115 68.0452 22.189 67.3449C22.1666 66.6447 22.3094 65.9491 22.606 65.3144L26.1985 54.9744C26.3527 54.9744 26.504 54.9964 26.6597 54.9964C28.5982 54.9981 30.483 54.3594 32.0211 53.1796C33.5592 51.9998 34.6645 50.3449 35.1652 48.4722L37.6562 50.9529V66.0311C37.6562 66.4207 37.811 66.7942 38.0864 67.0697C38.3619 67.3451 38.7355 67.4999 39.125 67.4999C39.5145 67.4999 39.8881 67.3451 40.1636 67.0697C40.439 66.7942 40.5937 66.4207 40.5937 66.0311V45.4686C40.5937 44.3 41.058 43.1793 41.8843 42.3529C42.7106 41.5266 43.8314 41.0624 45 41.0624C46.1686 41.0624 47.2894 41.5266 48.1157 42.3529C48.942 43.1793 49.4062 44.3 49.4062 45.4686V63.2566C49.4088 65.3085 49.8864 67.3319 50.8016 69.1684L51.3391 70.2464C52.0498 71.6747 52.4197 73.2483 52.4197 74.8436C52.4197 76.4389 52.0498 78.0125 51.3391 79.4408L49.8704 82.3783C49.5655 82.9906 49.4066 83.6653 49.4062 84.3494V86.5936C49.4062 86.9832 49.561 87.3567 49.8364 87.6322C50.1119 87.9076 50.4855 88.0624 50.875 88.0624C51.2645 88.0624 51.6381 87.9076 51.9136 87.6322C52.189 87.3567 52.3437 86.9832 52.3437 86.5936V84.3494C52.3422 84.1222 52.3925 83.8977 52.4906 83.6928L53.9594 80.7553C54.8729 78.9188 55.3484 76.8955 55.3484 74.8444C55.3484 72.7932 54.8729 70.7699 53.9594 68.9334L53.4218 67.8553C52.8952 66.7977 52.5539 65.6575 52.4128 64.4845C53.3667 65.4419 54.5005 66.2012 55.749 66.7187C56.9975 67.2362 58.336 67.5017 59.6875 67.4999C60.8561 67.4999 61.9768 67.0356 62.8032 66.2093C63.6295 65.383 64.0937 64.2622 64.0937 63.0936V54.7217C65.9894 54.2527 67.6753 53.1667 68.8862 51.6345C70.0971 50.1024 70.7641 48.2112 70.7825 46.2584C70.8008 44.3057 70.1694 42.4023 68.9875 40.8477C67.8056 39.2931 66.1404 38.1756 64.2538 37.671L72.3584 29.5547C72.6328 29.2794 72.787 28.9065 72.787 28.5178C72.787 28.129 72.6328 27.7562 72.3584 27.4808ZM59.6875 64.5624C57.7405 64.56 55.874 63.7856 54.4973 62.4089C53.1205 61.0321 52.3461 59.1656 52.3437 57.2186V49.5811L53.4659 48.459C53.9288 50.1983 54.9145 51.7536 56.2899 52.9146C57.6652 54.0757 59.3639 54.7864 61.1562 54.9509V63.0936C61.1562 63.4832 61.0015 63.8567 60.7261 64.1322C60.4506 64.4076 60.077 64.5624 59.6875 64.5624ZM59.8975 37.8796C59.6771 38.0975 59.5313 38.3795 59.4809 38.6854C59.4305 38.9912 59.4782 39.3051 59.617 39.5822C59.7559 39.8593 59.9789 40.0853 60.254 40.228C60.5292 40.3707 60.8424 40.4226 61.1489 40.3765C62.3691 40.2038 63.6128 40.4192 64.7039 40.9922C65.795 41.5652 66.6782 42.4669 67.2286 43.5695C67.7791 44.6722 67.9688 45.92 67.771 47.1365C67.5732 48.3529 66.9979 49.4763 66.1264 50.3477C65.255 51.2192 64.1316 51.7945 62.9151 51.9923C61.6987 52.1901 60.4509 52.0004 59.3482 51.45C58.2456 50.8995 57.3439 50.0163 56.7709 48.9252C56.1979 47.8341 55.9825 46.5905 56.1552 45.3702C56.2013 45.0637 56.1494 44.7505 56.0067 44.4753C55.864 44.2002 55.638 43.9772 55.3609 43.8383C55.0838 43.6995 54.7699 43.6518 54.464 43.7022C54.1582 43.7526 53.8762 43.8984 53.6583 44.1188L52.3437 45.4363C52.3416 44.4719 52.1496 43.5174 51.7786 42.6272C51.4075 41.737 50.8648 40.9287 50.1814 40.2482C49.498 39.5678 48.6872 39.0286 47.7954 38.6615C46.9036 38.2944 45.9482 38.1066 44.9838 38.1087C44.0194 38.1108 43.0649 38.3029 42.1747 38.6739C41.2846 39.0449 40.4762 39.5876 39.7958 40.2711C38.4216 41.6513 37.652 43.5209 37.6562 45.4686V46.7993L34.964 44.1071C34.7461 43.8867 34.4641 43.7408 34.1583 43.6905C33.8524 43.6401 33.5385 43.6877 33.2614 43.8266C32.9843 43.9655 32.7583 44.1884 32.6156 44.4636C32.473 44.7387 32.421 45.052 32.4672 45.3585C32.6399 46.5787 32.4244 47.8224 31.8514 48.9135C31.2784 50.0045 30.3767 50.8878 29.2741 51.4382C28.1714 51.9886 26.9236 52.1784 25.7072 51.9806C24.4907 51.7828 23.3673 51.2074 22.4959 50.336C21.6244 49.4646 21.0491 48.3411 20.8513 47.1247C20.6535 45.9083 20.8432 44.6604 21.3937 43.5578C21.9441 42.4551 22.8273 41.5535 23.9184 40.9805C25.0095 40.4074 26.2532 40.192 27.4734 40.3647C27.78 40.4113 28.0935 40.3596 28.3689 40.2171C28.6444 40.0746 28.8676 39.8485 29.0067 39.5713C29.1458 39.2941 29.1936 38.98 29.1432 38.674C29.0928 38.368 28.9469 38.0858 28.7262 37.8678L19.3894 28.5192L28.7365 19.178C28.9569 18.9601 29.1028 18.6781 29.1532 18.3722C29.2035 18.0664 29.1559 17.7525 29.017 17.4754C28.8782 17.1983 28.6552 16.9723 28.38 16.8296C28.1049 16.6869 27.7916 16.635 27.4852 16.6811C26.2665 16.8514 25.0252 16.6348 23.9362 16.0618C22.8473 15.4888 21.9657 14.5884 21.416 13.4876C20.8662 12.3867 20.676 11.1411 20.8721 9.9263C21.0682 8.71154 21.6408 7.58903 22.509 6.71712C23.6288 5.65037 25.1161 5.05534 26.6627 5.05534C28.2092 5.05534 29.6965 5.65037 30.8163 6.71712C31.459 7.36155 31.9432 8.1465 32.2307 9.01005C32.5183 9.87361 32.6012 10.7922 32.473 11.6932C32.4269 11.9997 32.4788 12.313 32.6215 12.5881C32.7642 12.8633 32.9902 13.0862 33.2673 13.2251C33.5444 13.364 33.8583 13.4116 34.1641 13.3613C34.47 13.3109 34.752 13.165 34.9699 12.9446L44.3244 3.60044L50.9058 10.1834C49.6337 10.791 48.5258 11.6949 47.6753 12.8193C46.8248 13.9437 46.2565 15.2558 46.0181 16.6453C45.7797 18.0348 45.8782 19.4613 46.3052 20.8049C46.7323 22.1484 47.4754 23.37 48.4723 24.3669C49.4692 25.3638 50.6908 26.1069 52.0344 26.534C53.378 26.961 54.8044 27.0595 56.1939 26.8211C57.5835 26.5827 58.8955 26.0144 60.0199 25.1639C61.1443 24.3134 62.0483 23.2056 62.6558 21.9334L69.2388 28.5148L59.8975 37.8796Z" fill="#55B4ED"/>
<path d="M87.5938 30.7811H78.7812C78.3917 30.7811 78.0181 30.6264 77.7427 30.3509C77.4672 30.0755 77.3125 29.7019 77.3125 29.3124C77.3125 28.9228 77.4672 28.5493 77.7427 28.2738C78.0181 27.9984 78.3917 27.8436 78.7812 27.8436H87.5938C87.9833 27.8436 88.3569 27.9984 88.6323 28.2738C88.9078 28.5493 89.0625 28.9228 89.0625 29.3124C89.0625 29.7019 88.9078 30.0755 88.6323 30.3509C88.3569 30.6264 87.9833 30.7811 87.5938 30.7811Z" fill="#55B4ED"/>
<path d="M77.1935 13.8905C76.8702 13.8905 76.5559 13.7838 76.2995 13.587C76.043 13.3901 75.8586 13.1142 75.7749 12.8019C75.6912 12.4896 75.7129 12.1584 75.8366 11.8597C75.9604 11.561 76.1792 11.3115 76.4592 11.1498L84.0967 6.74355C84.4338 6.55185 84.8331 6.5013 85.2074 6.60292C85.5817 6.70454 85.9006 6.95008 86.0946 7.28597C86.2885 7.62185 86.3417 8.02081 86.2426 8.39577C86.1434 8.77074 85.9 9.09127 85.5654 9.28743L77.9279 13.6937C77.7048 13.8231 77.4514 13.891 77.1935 13.8905Z" fill="#55B4ED"/>
<path d="M84.8237 52.078C84.5658 52.0785 84.3124 52.0106 84.0893 51.8812L76.4518 47.4749C76.2834 47.3792 76.1356 47.2511 76.017 47.098C75.8983 46.9449 75.8111 46.7699 75.7603 46.583C75.7096 46.396 75.6963 46.2009 75.7213 46.0088C75.7462 45.8167 75.8089 45.6315 75.9058 45.4637C76.0026 45.296 76.1317 45.149 76.2856 45.0314C76.4394 44.9137 76.6151 44.8277 76.8023 44.7782C76.9896 44.7286 77.1848 44.7167 77.3767 44.7429C77.5686 44.7692 77.7535 44.8331 77.9206 44.9311L85.5581 49.3373C85.838 49.499 86.0569 49.7485 86.1806 50.0472C86.3043 50.3459 86.326 50.6771 86.2423 50.9894C86.1586 51.3017 85.9743 51.5776 85.7178 51.7745C85.4613 51.9713 85.147 52.078 84.8237 52.078Z" fill="#55B4ED"/>
<path d="M11.2188 30.7811H2.40625C2.01671 30.7811 1.64313 30.6264 1.36769 30.3509C1.09224 30.0755 0.9375 29.7019 0.9375 29.3124C0.9375 28.9228 1.09224 28.5493 1.36769 28.2738C1.64313 27.9984 2.01671 27.8436 2.40625 27.8436H11.2188C11.6083 27.8436 11.9819 27.9984 12.2573 28.2738C12.5328 28.5493 12.6875 28.9228 12.6875 29.3124C12.6875 29.7019 12.5328 30.0755 12.2573 30.3509C11.9819 30.6264 11.6083 30.7811 11.2188 30.7811Z" fill="#55B4ED"/>
<path d="M12.8065 13.8905C12.5486 13.891 12.2952 13.8231 12.0721 13.6937L4.43459 9.28743C4.1 9.09127 3.85658 8.77074 3.75744 8.39577C3.65831 8.02081 3.71151 7.62185 3.90544 7.28597C4.09937 6.95008 4.41828 6.70454 4.79258 6.60292C5.16688 6.5013 5.56618 6.55185 5.90334 6.74355L13.5408 11.1498C13.8208 11.3115 14.0396 11.561 14.1634 11.8597C14.2871 12.1584 14.3088 12.4896 14.2251 12.8019C14.1414 13.1142 13.957 13.3901 13.7005 13.587C13.4441 13.7838 13.1298 13.8905 12.8065 13.8905Z" fill="#55B4ED"/>
<path d="M5.17631 52.078C4.853 52.078 4.53873 51.9713 4.28223 51.7745C4.02574 51.5776 3.84135 51.3017 3.75767 50.9894C3.67399 50.6771 3.6957 50.3459 3.81941 50.0472C3.94313 49.7485 4.16195 49.499 4.44194 49.3373L12.0794 44.9311C12.2465 44.8331 12.4314 44.7692 12.6233 44.7429C12.8152 44.7167 13.0104 44.7286 13.1977 44.7782C13.3849 44.8277 13.5606 44.9137 13.7144 45.0314C13.8683 45.149 13.9974 45.296 14.0942 45.4637C14.1911 45.6315 14.2538 45.8167 14.2787 46.0088C14.3037 46.2009 14.2904 46.396 14.2397 46.583C14.1889 46.7699 14.1017 46.9449 13.983 47.098C13.8644 47.2511 13.7166 47.3792 13.5482 47.4749L5.91069 51.8812C5.68763 52.0106 5.43421 52.0785 5.17631 52.078Z" fill="#55B4ED"/>
</svg>
