<svg width="100" height="100" viewBox="0 0 100 100" fill="none" xmlns="http://www.w3.org/2000/svg">
<path d="M75.2713 51.3115C72.5835 48.6357 69.4763 51.1401 69.4763 51.1401V37.0541C69.4763 36.581 69.0929 36.1973 68.6199 36.1973C68.1464 36.1973 67.7631 36.581 67.7631 37.0541V52.3454C67.7631 52.3454 63.6776 55.566 61.9216 56.3532V30.9908C61.9216 29.8118 62.8806 28.8528 64.0596 28.8528H65.6251C66.8041 28.8528 67.7631 29.8118 67.7631 30.9908V33.5465C67.7631 34.02 68.1464 34.4033 68.6199 34.4033C69.0929 34.4033 69.4763 34.02 69.4763 33.5465V30.9908C69.4763 28.8671 67.7488 27.1396 65.6251 27.1396H64.0596C61.9359 27.1396 60.208 28.8671 60.208 30.9908V57.0324C59.697 57.1757 59.1727 57.273 58.6399 57.3243V39.2613C58.6399 37.1268 56.9035 35.3904 54.7695 35.3904H53.242C51.108 35.3904 49.3716 37.1268 49.3716 39.2613V47.9909L47.803 48.8236V45.9185C47.803 43.9969 46.2398 42.4337 44.3187 42.4337H42.0196C40.098 42.4337 38.5352 43.9969 38.5352 45.9185V53.7431L35.7377 55.2278L27.8818 57.4729C26.5149 57.8634 25.3734 58.7585 24.6683 59.9929C23.9628 61.2277 23.7713 62.6655 24.1292 64.0413L25.0079 67.4221C25.1266 67.88 25.5943 68.1544 26.0526 68.0357C26.5105 67.9166 26.7853 67.4489 26.6662 66.9906L25.7875 63.6102C25.2779 61.6494 26.4047 59.6769 28.353 59.1205L35.5355 57.0677L40.9338 71.4755C41.2953 72.4403 41.2382 75.1928 38.3826 76.2071L32.9548 77.4401C31.0631 77.8694 29.1991 76.7355 28.7109 74.8576L27.6091 70.6178C27.49 70.1599 27.0223 69.885 26.5644 70.0037C26.1061 70.1229 25.8317 70.5905 25.9504 71.0488L27.0527 75.2891C27.6721 77.6712 29.7882 79.2452 32.144 79.2452C33.875 79.2452 38.7624 77.8779 38.7624 77.8779C40.2497 77.5405 41.518 76.5766 42.2414 75.2343C42.8384 74.1267 43.0156 72.8521 42.7595 71.6379L61.5378 67.0406C63.0908 66.6599 64.5652 65.9223 65.8005 64.907L74.9389 57.3984C77.7248 54.9275 76.0906 52.1268 75.2713 51.3115ZM53.242 37.1041H54.7695C55.9588 37.1041 56.9262 38.072 56.9262 39.2613V57.3671L51.5199 57.3649C51.0232 57.3604 51.3668 57.0324 51.394 57.0101L52.951 55.749C54.4036 54.5722 55.3523 52.9363 55.7704 50.8857C56.036 49.5849 55.5397 48.2827 54.4763 47.4875C53.483 46.7449 52.2053 46.6021 51.0852 47.093V39.2613C51.0852 38.072 52.0527 37.1041 53.242 37.1041ZM40.2488 45.9185C40.2488 44.9421 41.0432 44.1473 42.0196 44.1473H44.3187C45.2951 44.1473 46.0899 44.9421 46.0899 45.9185V49.7331L40.2484 52.8336V45.9185H40.2488ZM73.8513 56.0748L64.7125 63.5834C63.6745 64.4367 62.4357 65.0565 61.1304 65.376L42.2137 70.0077L37.1264 56.4313L51.652 48.7209C52.2424 48.4072 52.9149 48.4594 53.4499 48.8597C53.985 49.26 54.2251 49.8892 54.0916 50.5435C53.7547 52.1941 53.0081 53.4977 51.8724 54.4174L50.3154 55.6789C49.6773 56.1957 49.4421 57.0298 49.7161 57.804C49.9901 58.5778 50.6979 59.0785 51.519 59.0785L57.7616 59.0812H57.7661C59.9884 59.0812 62.1242 58.4056 63.9423 57.127L70.919 52.2209C71.8958 51.5337 73.211 51.6551 74.0454 52.5092C74.5261 53.0001 75.4668 54.4589 73.8513 56.0748Z" fill="#55B4ED"/>
<path d="M37.6533 72.0253C37.6533 70.164 36.1391 68.6494 34.2778 68.6494C32.4165 68.6494 30.9023 70.164 30.9023 72.0253C30.9023 73.8862 32.4165 75.4008 34.2778 75.4008C36.1391 75.4008 37.6533 73.8862 37.6533 72.0253ZM32.616 72.0253C32.616 71.1087 33.3612 70.363 34.2778 70.363C35.194 70.363 35.9397 71.1087 35.9397 72.0253C35.9397 72.9415 35.1944 73.6872 34.2778 73.6872C33.3612 73.6872 32.616 72.9415 32.616 72.0253Z" fill="#55B4ED"/>
<path d="M28.1164 47.6564L40.5714 35.1055L43.3729 36.5545C44.3766 37.0735 45.598 36.8959 46.4119 36.1123L53.1914 29.5863C53.1914 29.5863 53.0049 32.9381 55.8274 32.9381C57.2804 32.9381 58.463 31.7555 58.463 30.302V23.3905C58.463 23.3824 58.4626 23.3739 58.4626 23.3655C58.4532 21.5622 57.1345 20.7549 55.8274 20.7549H48.9761C47.5227 20.7549 46.3405 21.9375 46.3405 23.3905C46.3405 26.2875 49.2889 26.026 49.2889 26.026L44.1168 31.0044L41.2746 29.5345C40.2469 29.0026 39.0086 29.1976 38.1928 30.0187L24.375 43.9431C23.3513 44.9749 23.3575 46.647 24.3893 47.6707C24.8864 48.1638 26.584 49.1889 28.1164 47.6564ZM25.591 45.1503L39.4089 31.2258C39.5874 31.0464 39.8739 30.7322 40.4875 31.0567L43.875 32.8087C44.2012 32.9773 44.5983 32.9198 44.863 32.665L52.0084 25.7868C52.2601 25.5445 52.3395 25.1732 52.2088 24.8493C52.078 24.5248 51.7639 24.3129 51.414 24.3129H48.9761C48.4678 24.3129 48.0541 23.8992 48.0541 23.3905C48.0541 22.8822 48.4678 22.4685 48.9761 22.4685H55.8274C56.0796 22.4685 56.749 22.4685 56.749 23.3851C56.749 23.3927 56.7494 23.4003 56.7494 23.4083V30.302C56.7494 30.8103 56.3357 31.224 55.8274 31.224C55.3187 31.224 54.905 30.8103 54.905 30.302V27.5723C54.905 27.2287 54.6998 26.9181 54.3838 26.7838C54.0679 26.649 53.7019 26.7168 53.4543 26.9551L45.2236 34.8779C44.9388 35.1519 44.5113 35.2144 44.1606 35.0328L40.8003 33.2946C40.4678 33.1228 40.0622 33.1866 39.7984 33.4522L26.9004 46.4493C26.3381 47.0116 25.77 46.6269 25.596 46.4542C25.2354 46.0959 25.2331 45.5108 25.591 45.1503Z" fill="#55B4ED"/>
<path d="M75.9298 96.586C74.6699 97.8459 75.5622 100 77.3441 100H97.9992C99.1038 100 99.9992 99.1048 99.9992 98.0002V77.345C99.9992 75.5632 97.8449 74.6709 96.585 75.9308L75.9298 96.586Z" fill="#55B4ED"/>
<path d="M24.0702 3.41403C25.3301 2.1541 24.4378 -0.000185013 22.6559 -0.000185013L2.00079 -0.000185013C0.896223 -0.000185013 0.00079155 0.895247 0.00079155 1.99981L0.00079155 22.655C0.00079155 24.4368 2.15508 25.3291 3.415 24.0692L24.0702 3.41403Z" fill="#55B4ED"/>
</svg>
