<svg width="100" height="100" viewBox="0 0 100 100" fill="none" xmlns="http://www.w3.org/2000/svg">
<path d="M75.9298 96.586C74.6699 97.8459 75.5622 100 77.3441 100H97.9992C99.1038 100 99.9992 99.1048 99.9992 98.0002V77.345C99.9992 75.5632 97.8449 74.6709 96.585 75.9308L75.9298 96.586Z" fill="#55B4ED"/>
<path d="M24.0702 3.41403C25.3301 2.1541 24.4378 -0.000185013 22.6559 -0.000185013L2.00079 -0.000185013C0.896223 -0.000185013 0.00079155 0.895247 0.00079155 1.99981L0.00079155 22.655C0.00079155 24.4368 2.15508 25.3291 3.415 24.0692L24.0702 3.41403Z" fill="#55B4ED"/>
<path d="M49.0561 29.5986C32.495 29.5986 18.8672 42.9827 18.8672 59.6697V66.7452C18.8672 67.7222 19.659 68.5141 20.6361 68.5141H77.4762C78.4532 68.5141 79.2451 67.7222 79.2451 66.7452V59.6697C79.2451 43.0818 65.6883 29.5986 49.0561 29.5986ZM70.4007 61.4385H75.7073V64.9763H22.405V61.4385H27.7116C28.6886 61.4385 29.4805 60.6467 29.4805 59.6697C29.4805 58.6926 28.6886 57.9008 27.7116 57.9008H22.4658C22.8628 51.9211 25.2577 46.4767 28.9922 42.225L32.6778 45.9111C33.3688 46.602 34.4886 46.602 35.1796 45.9111C35.8701 45.2201 35.8701 44.1003 35.1796 43.4093L31.4972 39.7273C35.7748 35.9892 41.2606 33.5915 47.2873 33.1963V38.4431C47.2873 39.4201 48.0791 40.2119 49.0561 40.2119C50.0332 40.2119 50.825 39.4201 50.825 38.4431V33.1963C56.8517 33.5915 62.3375 35.9892 66.6151 39.7269L62.9327 43.4093C62.2422 44.1003 62.2422 45.2201 62.9327 45.9111C63.6236 46.6016 64.7435 46.602 65.4344 45.9111L69.1201 42.225C72.8545 46.4767 75.2494 51.9211 75.6465 57.9008H70.4007C69.4236 57.9008 68.6318 58.6926 68.6318 59.6697C68.6318 60.6462 69.4236 61.4385 70.4007 61.4385Z" fill="#55B4ED"/>
<path d="M54.3633 59.6694C54.3633 58.855 54.1786 58.0834 53.8492 57.3933L61.0298 50.316C61.7254 49.6301 61.7337 48.5102 61.0477 47.8142C60.3618 47.1186 59.242 47.1103 58.5464 47.7962L51.3534 54.886C50.6579 54.5507 49.8789 54.3627 49.0567 54.3627C46.1306 54.3627 43.75 56.7434 43.75 59.6694C43.75 62.5954 46.1306 64.9761 49.0567 64.9761C51.9827 64.9761 54.3633 62.5954 54.3633 59.6694ZM49.0567 61.4383C48.0815 61.4383 47.2878 60.6446 47.2878 59.6694C47.2878 58.6942 48.0815 57.9005 49.0567 57.9005C50.0318 57.9005 50.8255 58.6942 50.8255 59.6694C50.8255 60.6446 50.0318 61.4383 49.0567 61.4383Z" fill="#55B4ED"/>
</svg>
