<svg width="100" height="100" viewBox="0 0 100 100" fill="none" xmlns="http://www.w3.org/2000/svg">
<path d="M78.1292 76.8149L66.981 61.0223V43.3967H69.8112C69.9834 43.3966 70.1522 43.3495 70.2994 43.2604C70.4467 43.1713 70.5667 43.0436 70.6466 42.8911C70.7265 42.7387 70.7631 42.5672 70.7526 42.3955C70.742 42.2237 70.6847 42.058 70.5867 41.9165L62.0961 29.6522C62.0046 29.5336 61.8871 29.4375 61.7527 29.3714C61.6182 29.3053 61.4704 29.271 61.3206 29.271C61.1708 29.271 61.023 29.3053 60.8885 29.3714C60.7541 29.4375 60.6366 29.5336 60.5451 29.6522L58.4338 32.7013C58.4066 32.6237 58.3692 32.5501 58.3225 32.4825L49.8318 20.2182C49.7403 20.0996 49.6229 20.0035 49.4884 19.9374C49.354 19.8713 49.2062 19.8369 49.0563 19.8369C48.9065 19.8369 48.7587 19.8713 48.6243 19.9374C48.4898 20.0035 48.3723 20.0996 48.2809 20.2182L39.7902 32.4825C39.7435 32.5501 39.7061 32.6237 39.6789 32.7013L37.5676 29.6522C37.4761 29.5336 37.3586 29.4375 37.2241 29.3714C37.0897 29.3053 36.9419 29.271 36.7921 29.271C36.6423 29.271 36.4944 29.3053 36.36 29.3714C36.2256 29.4375 36.1081 29.5336 36.0166 29.6522L27.526 41.9165C27.428 42.058 27.3707 42.2237 27.3601 42.3955C27.3496 42.5672 27.3862 42.7387 27.4661 42.8911C27.546 43.0436 27.666 43.1713 27.8133 43.2604C27.9605 43.3495 28.1293 43.3966 28.3014 43.3967H31.1316V61.0223L19.9834 76.8149C19.8836 76.9562 19.8246 77.1221 19.8128 77.2947C19.8009 77.4672 19.8367 77.6397 19.9163 77.7933C19.9958 77.9468 20.1161 78.0755 20.2638 78.1654C20.4116 78.2552 20.5813 78.3027 20.7542 78.3027H77.3585C77.5314 78.3027 77.701 78.2552 77.8488 78.1654C77.9966 78.0755 78.1168 77.9468 78.1964 77.7933C78.2759 77.6397 78.3118 77.4672 78.2999 77.2947C78.2881 77.1221 78.229 76.9562 78.1292 76.8149ZM40.5657 33.9627H43.3959V35.8495H45.2827V33.0193C45.2827 32.769 45.1833 32.5291 45.0064 32.3522C44.8295 32.1752 44.5895 32.0758 44.3393 32.0758H42.3667L49.0563 22.4126L55.746 32.0758H53.7734C53.5232 32.0758 53.2832 32.1752 53.1063 32.3522C52.9293 32.5291 52.83 32.769 52.83 33.0193V35.8495H54.7168V33.9627H57.547H57.5621L54.3545 38.5948C53.9536 37.5127 53.231 36.5793 52.2838 35.9201C51.3366 35.2609 50.2103 34.9075 49.0563 34.9075C47.9024 34.9075 46.776 35.2609 45.8289 35.9201C44.8817 36.5793 44.1591 37.5127 43.7582 38.5948L40.5506 33.9627H40.5657ZM55.6602 46.2514C54.8485 45.6271 53.854 45.287 52.83 45.2835H52.179C52.9065 44.7988 53.5127 44.1532 53.9507 43.3967H55.6602V46.2514ZM52.83 50.9439V70.7554H49.9997V59.4346H48.1129V70.7554H45.2827C45.2827 67.9054 45.2827 59.5657 45.2827 59.4403V50.9439H43.3959V58.4912H42.4525V50.0005C42.4525 49.2499 42.7507 48.53 43.2815 47.9993C43.8122 47.4685 44.5321 47.1703 45.2827 47.1703H52.83C53.5806 47.1703 54.3004 47.4685 54.8312 47.9993C55.362 48.53 55.6602 49.2499 55.6602 50.0005V58.4912H54.7168V50.9439H52.83ZM45.9337 45.2835H45.2827C44.2587 45.287 43.2642 45.6271 42.4525 46.2514V43.3967H44.162C44.6 44.1532 45.2062 44.7988 45.9337 45.2835ZM49.0563 44.3401C48.31 44.3401 47.5804 44.1188 46.9598 43.7041C46.3393 43.2895 45.8556 42.7001 45.57 42.0106C45.2844 41.3211 45.2096 40.5623 45.3552 39.8303C45.5008 39.0983 45.8602 38.4259 46.388 37.8981C46.9157 37.3704 47.5881 37.011 48.3201 36.8654C49.0522 36.7198 49.8109 36.7945 50.5004 37.0801C51.19 37.3657 51.7793 37.8494 52.194 38.47C52.6086 39.0905 52.83 39.8201 52.83 40.5665C52.83 41.5673 52.4324 42.5272 51.7247 43.2348C51.017 43.9425 50.0572 44.3401 49.0563 44.3401ZM62.0282 76.4159L57.5083 61.0554L55.6988 61.5874L60.0612 76.4159H38.0515L42.4138 61.5874L40.6044 61.0554L36.0845 76.4159H22.575L32.8458 61.8657C32.9582 61.7065 33.0185 61.5163 33.0185 61.3214V42.4533C33.0185 42.2031 32.9191 41.9631 32.7421 41.7862C32.5652 41.6093 32.3253 41.5099 32.0751 41.5099H30.1024L36.7921 31.8466L43.4808 41.5099H41.5091C41.2589 41.5099 41.0189 41.6093 40.842 41.7862C40.6651 41.9631 40.5657 42.2031 40.5657 42.4533V59.4346C40.5657 59.6848 40.6651 59.9248 40.842 60.1017C41.0189 60.2786 41.2589 60.378 41.5091 60.378H43.3959C43.3959 60.661 43.3959 60.9808 43.3959 61.3506V71.6988C43.3959 71.9491 43.4953 72.189 43.6722 72.3659C43.8491 72.5429 44.0891 72.6423 44.3393 72.6423H53.7734C54.0236 72.6423 54.2635 72.5429 54.4404 72.3659C54.6174 72.189 54.7168 71.9491 54.7168 71.6988V60.378H56.6036C56.8538 60.378 57.0937 60.2786 57.2707 60.1017C57.4476 59.9248 57.547 59.6848 57.547 59.4346V50.0005C57.547 49.9251 57.5281 49.8553 57.5243 49.7807H57.547V42.4533C57.547 42.2031 57.4476 41.9631 57.2707 41.7862C57.0937 41.6093 56.8538 41.5099 56.6036 41.5099H54.6319L61.3206 31.8466L68.0103 41.5099H66.0376C65.7874 41.5099 65.5475 41.6093 65.3705 41.7862C65.1936 41.9631 65.0942 42.2031 65.0942 42.4533V61.3214C65.0941 61.5163 65.1545 61.7065 65.2669 61.8657L75.5377 76.4159H62.0282Z" fill="#55B4ED"/>
<path d="M75.9298 96.586C74.6699 97.8459 75.5622 100 77.3441 100H97.9992C99.1038 100 99.9992 99.1048 99.9992 98.0002V77.345C99.9992 75.5632 97.8449 74.6709 96.585 75.9308L75.9298 96.586Z" fill="#55B4ED"/>
<path d="M24.0702 3.41403C25.3301 2.1541 24.4378 -0.000185013 22.6559 -0.000185013L2.00079 -0.000185013C0.896223 -0.000185013 0.00079155 0.895247 0.00079155 1.99981L0.00079155 22.655C0.00079155 24.4368 2.15508 25.3291 3.415 24.0692L24.0702 3.41403Z" fill="#55B4ED"/>
</svg>
