<svg width="59" height="503" viewBox="0 0 59 503" fill="none" xmlns="http://www.w3.org/2000/svg">
<path d="M13.88 482.48L13.88 502.64L2 502.64L2 447.74L13.88 447.74L13.88 467.9L65 467.9L65 482.48L13.88 482.48ZM2 382.115L65 382.115L65 396.695L39.17 396.695L39.17 425.315L65 425.315L65 439.895L2 439.895L2 425.315L26.84 425.315L26.84 396.695L2 396.695L2 382.115ZM53.3 318.43L65 318.43L65 367.21L2 367.21L2 319.6L13.7 319.6L13.7 352.72L27.38 352.72L27.38 323.47L38.72 323.47L38.72 352.72L53.3 352.72L53.3 318.43ZM32.24 235.081C33.38 231.481 35.3 228.661 38 226.621C40.64 224.581 43.91 223.561 47.81 223.561C53.33 223.561 57.59 225.721 60.59 230.041C63.53 234.301 65 240.541 65 248.761L65 281.341L2 281.341L2 250.561C2 242.881 3.47 237.001 6.41 232.921C9.35 228.781 13.34 226.711 18.38 226.711C21.44 226.711 24.17 227.461 26.57 228.961C28.97 230.401 30.86 232.441 32.24 235.081ZM12.98 266.851L27.83 266.851L27.83 252.361C27.83 248.761 27.2 246.031 25.94 244.171C24.68 242.311 22.82 241.381 20.36 241.381C17.9 241.381 16.07 242.311 14.87 244.171C13.61 246.031 12.98 248.761 12.98 252.361L12.98 266.851ZM54.02 249.841C54.02 246.001 53.39 243.121 52.13 241.201C50.87 239.221 48.92 238.231 46.28 238.231C41.06 238.231 38.45 242.101 38.45 249.841L38.45 266.851L54.02 266.851L54.02 249.841ZM66.08 182.012C66.08 188.552 64.67 194.462 61.85 199.742C59.03 204.962 55.16 209.072 50.24 212.072C45.26 215.012 39.68 216.482 33.5 216.482C27.32 216.482 21.77 215.012 16.85 212.072C11.87 209.072 7.97 204.962 5.15 199.742C2.33 194.462 0.920003 188.552 0.920003 182.012C0.920003 175.472 2.33 169.592 5.15 164.372C7.97 159.152 11.87 155.042 16.85 152.042C21.77 149.042 27.32 147.542 33.5 147.542C39.68 147.542 45.26 149.042 50.24 152.042C55.16 155.042 59.03 159.152 61.85 164.372C64.67 169.592 66.08 175.472 66.08 182.012ZM53.66 182.012C53.66 178.292 52.82 174.932 51.14 171.932C49.4 168.932 47 166.592 43.94 164.912C40.88 163.172 37.4 162.302 33.5 162.302C29.6 162.302 26.12 163.172 23.06 164.912C20 166.592 17.63 168.932 15.95 171.932C14.21 174.932 13.34 178.292 13.34 182.012C13.34 185.732 14.21 189.092 15.95 192.092C17.63 195.092 20 197.462 23.06 199.202C26.12 200.882 29.6 201.722 33.5 201.722C37.4 201.722 40.88 200.882 43.94 199.202C47 197.462 49.4 195.092 51.14 192.092C52.82 189.092 53.66 185.732 53.66 182.012ZM66.08 106.075C66.08 112.615 64.67 118.525 61.85 123.805C59.03 129.025 55.16 133.135 50.24 136.135C45.26 139.075 39.68 140.545 33.5 140.545C27.32 140.545 21.77 139.075 16.85 136.135C11.87 133.135 7.97 129.025 5.15 123.805C2.33 118.525 0.920004 112.615 0.920004 106.075C0.920004 99.5347 2.33 93.6547 5.15 88.4347C7.97 83.2147 11.87 79.1047 16.85 76.1047C21.77 73.1047 27.32 71.6047 33.5 71.6047C39.68 71.6047 45.26 73.1047 50.24 76.1047C55.16 79.1047 59.03 83.2147 61.85 88.4347C64.67 93.6547 66.08 99.5347 66.08 106.075ZM53.66 106.075C53.66 102.355 52.82 98.9947 51.14 95.9947C49.4 92.9947 47 90.6547 43.94 88.9747C40.88 87.2347 37.4 86.3647 33.5 86.3647C29.6 86.3647 26.12 87.2347 23.06 88.9747C20 90.6547 17.63 92.9947 15.95 95.9947C14.21 98.9947 13.34 102.355 13.34 106.075C13.34 109.795 14.21 113.155 15.95 116.155C17.63 119.155 20 121.525 23.06 123.265C26.12 124.945 29.6 125.785 33.5 125.785C37.4 125.785 40.88 124.945 43.94 123.265C47 121.525 49.4 119.155 51.14 116.155C52.82 113.155 53.66 109.795 53.66 106.075ZM40.25 37.6972L49.07 46.1572L65 46.1572L65 60.6472L2 60.6472L2 46.1572L31.43 46.1572L2 18.2572L2 2.05719L30.08 28.1572L65 0.527184L65 17.5372L40.25 37.6972Z" fill="#F15A24"/>
</svg>
