<svg width="32" height="31" viewBox="0 0 32 31" fill="none" xmlns="http://www.w3.org/2000/svg">
<path fill-rule="evenodd" clip-rule="evenodd" d="M7.25078 0.6875C7.97565 0.6875 8.56328 1.27513 8.56328 2V4.91835C13.5118 4.47765 18.4898 4.47765 23.4383 4.91835V2C23.4383 1.27513 24.0259 0.6875 24.7508 0.6875C25.4756 0.6875 26.0633 1.27513 26.0633 2V5.17877C28.676 5.54819 30.7403 7.61482 31.0896 10.251L31.2412 11.3936C31.8782 16.1997 31.8232 21.0722 31.0777 25.8628C30.7085 28.2358 28.7807 30.0586 26.3905 30.2942L24.3028 30.5001C18.7815 31.0446 13.22 31.0446 7.69866 30.5001L5.61089 30.2942C3.22085 30.0586 1.29294 28.2358 0.923674 25.8628C0.178244 21.0722 0.123224 16.1997 0.760294 11.3936L0.911757 10.251C1.2612 7.61479 3.32541 5.54814 5.93828 5.17875V2C5.93828 1.27513 6.52591 0.6875 7.25078 0.6875ZM8.02981 7.6049C13.331 7.08214 18.6706 7.08214 23.9717 7.6049L25.5561 7.76117C27.073 7.91075 28.2872 9.08494 28.4874 10.5959L28.6389 11.7386C28.6918 12.1377 28.7397 12.5374 28.7826 12.9375H3.21889C3.26174 12.5374 3.30961 12.1378 3.36253 11.7386L3.51399 10.5959C3.71428 9.08494 4.92846 7.91075 6.44527 7.76117L8.02981 7.6049ZM3.01023 15.5625C2.83842 18.8667 3.0077 22.1831 3.51745 25.4591C3.70267 26.6494 4.66969 27.5636 5.86851 27.6819L7.95628 27.8877C13.3063 28.4154 18.6953 28.4154 24.0452 27.8877L26.1329 27.6819C27.3317 27.5636 28.2987 26.6494 28.4841 25.4591C28.9938 22.1831 29.1631 18.8667 28.9912 15.5625H3.01023Z" fill="#2758B7"/>
</svg>
