<svg width="18" height="12" viewBox="0 0 18 12" fill="none" xmlns="http://www.w3.org/2000/svg">
<path d="M6.62334 11.4669L0.8289 5.67803C0.737885 5.57175 0.690326 5.43504 0.695727 5.29522C0.701127 5.1554 0.75909 5.02277 0.858031 4.92383C0.956973 4.82489 1.08961 4.76693 1.22943 4.76153C1.36925 4.75613 1.50595 4.80368 1.61223 4.8947L6.61223 9.8947L16.3845 0.133587C16.4907 0.0425726 16.6274 -0.00498632 16.7673 0.000414323C16.9071 0.00581496 17.0397 0.0637774 17.1387 0.162719C17.2376 0.26166 17.2956 0.394293 17.301 0.534113C17.3064 0.673933 17.2588 0.810642 17.1678 0.916921L6.62334 11.4669Z" fill="#2758B7"/>
</svg>
