<svg width="42" height="42" viewBox="0 0 42 42" fill="none" xmlns="http://www.w3.org/2000/svg">
<path d="M22.3125 12.25C22.3125 11.5251 21.7249 10.9375 21 10.9375C20.2752 10.9375 19.6875 11.5251 19.6875 12.25V21C19.6875 21.4526 19.9206 21.8731 20.3044 22.113L25.5544 25.3943C26.1692 25.7784 26.9789 25.5917 27.363 24.9769C27.7471 24.3621 27.5604 23.5524 26.9456 23.1683L22.3125 20.2725V12.25Z" fill="#2758B7"/>
<path fill-rule="evenodd" clip-rule="evenodd" d="M21 5.6875C12.5431 5.6875 5.6875 12.5431 5.6875 21C5.6875 29.4569 12.5431 36.3125 21 36.3125C29.4569 36.3125 36.3125 29.4569 36.3125 21C36.3125 12.5431 29.4569 5.6875 21 5.6875ZM8.3125 21C8.3125 13.9929 13.9929 8.3125 21 8.3125C28.0072 8.3125 33.6875 13.9929 33.6875 21C33.6875 28.0072 28.0072 33.6875 21 33.6875C13.9929 33.6875 8.3125 28.0072 8.3125 21Z" fill="#2758B7"/>
</svg>
