<svg width="184" height="110" viewBox="0 0 184 110" fill="none" xmlns="http://www.w3.org/2000/svg">
<g clip-path="url(#clip0_846_13795)">
<path fill-rule="evenodd" clip-rule="evenodd" d="M116.025 81.7049C138.68 81.7049 157.045 63.3504 157.045 40.709C157.045 18.0676 138.68 -0.286896 116.025 -0.286896C93.3712 -0.286896 75.0063 18.0676 75.0063 40.709C75.0063 63.3504 93.3712 81.7049 116.025 81.7049ZM116.025 66.4778C130.265 66.4778 141.809 54.9407 141.809 40.709C141.809 26.4773 130.265 14.9402 116.025 14.9402C101.786 14.9402 90.242 26.4773 90.242 40.709C90.242 54.9407 101.786 66.4778 116.025 66.4778Z" fill="url(#paint0_radial_846_13795)"/>
<path fill-rule="evenodd" clip-rule="evenodd" d="M44.411 64.2296C60.0567 49.9773 85.481 40.6929 114.246 40.6929C143.012 40.6929 168.436 49.9773 184.082 64.2296C167.213 51.2804 142.197 43.0547 114.246 43.0547C86.2959 43.1362 61.279 51.3618 44.411 64.2296Z" fill="#016699"/>
<path d="M10.186 60.1575C7.65988 60.1575 7.4969 60.5647 7.4969 64.9626V80.4365C7.4969 85.0787 7.82285 85.4045 11.3268 85.6488V86.6261H0V85.6488C3.50399 85.4045 3.82994 85.0787 3.82994 80.4365V64.9626C3.82994 60.3204 3.50399 59.9946 0 59.7503V58.773H29.4987V59.7503C25.9947 59.9946 25.6687 60.3204 25.6687 64.9626V80.4365C25.6687 85.0787 25.9947 85.4045 29.4987 85.6488V86.6261H18.1718V85.6488C21.6758 85.4045 22.0018 85.0787 22.0018 80.4365V64.9626C22.0018 60.5647 21.7573 60.1575 19.3127 60.1575H10.186Z" fill="white"/>
<path d="M49.0558 67.9759V69.0346C46.2037 69.2789 45.9592 69.5233 45.9592 71.8851V82.7983C45.9592 85.1601 46.2037 85.4045 49.0558 85.6488V86.6261H39.4402V85.6488C42.3737 85.4045 42.5367 85.1601 42.5367 82.7983V71.2336C42.5367 69.7676 42.4552 69.3604 40.907 69.3604H38.9512C37.24 69.3604 37.24 69.6047 37.1585 71.1521C36.914 79.9478 34.7953 84.1014 33.1656 85.9745C32.4322 86.789 31.6988 87.1962 31.2099 87.1962C30.6395 87.1962 29.7431 86.8704 29.0912 86.7075V85.8931C31.2914 84.9158 32.8396 82.9612 33.6545 81.088C34.3064 79.5406 35.5287 76.283 35.5287 71.4779C35.5287 69.6862 35.3658 69.3604 32.7581 69.1161V68.0573H49.0558V67.9759Z" fill="white"/>
<path d="M61.3606 87.1148C59.8938 86.8704 59.2419 85.4045 58.9974 84.3457C57.2047 85.4859 54.8415 87.1148 53.9451 87.1148C50.8486 87.1148 48.8114 84.5086 48.8114 82.1468C48.8114 80.1922 49.8707 78.7263 52.0709 77.8304C54.1896 76.9345 57.6936 75.7129 58.9974 74.817V73.3511C58.9974 70.6635 57.7751 69.279 55.4934 69.279C53.3747 69.279 52.4784 71.0707 51.9894 72.8624C51.8265 73.3511 51.5005 73.6768 51.0116 73.6768C50.3597 73.6768 49.1374 73.0253 49.1374 72.2109C49.1374 71.6408 49.6263 71.0707 50.6041 70.3377C51.6635 69.6048 54.1896 67.9759 57.2047 67.4058C58.427 67.4058 59.7308 67.813 60.6272 68.4646C62.0125 69.6048 62.2569 71.0707 62.2569 72.6181V82.2282C62.2569 83.7756 62.8273 84.5086 63.4792 84.5086C63.8052 84.5086 64.5386 84.3457 65.3535 83.9385L65.7609 84.9158L61.3606 87.1148ZM58.9974 76.2016C58.0196 76.6088 55.4934 77.7489 54.6785 78.1562C53.2118 78.9706 52.4784 79.8664 52.4784 81.3324C52.4784 83.6128 54.0266 84.6715 55.3304 84.6715C56.3083 84.6715 57.9381 83.9385 59.0789 82.9612V76.2016H58.9974Z" fill="white"/>
<path d="M80.0213 76.0387V71.8851C80.0213 69.5233 79.7768 69.279 77.0877 69.0347V68.0574H86.2144V69.0347C83.6067 69.279 83.3623 69.5233 83.3623 71.8851V82.7983C83.3623 85.1602 83.6067 85.4045 86.2958 85.6488V86.6261H77.2507V85.6488C79.8583 85.4045 80.1028 85.1602 80.1028 82.7983V77.5046H71.3835V82.7983C71.3835 85.1602 71.628 85.4045 74.2356 85.6488V86.6261H65.109V85.6488C67.7981 85.4045 68.0425 85.1602 68.0425 82.7983V71.8851C68.0425 69.5233 67.7981 69.279 65.0275 69.0347V68.0574H74.1541V69.0347C71.628 69.279 71.3835 69.5233 71.3835 71.8851V76.1201H80.0213V76.0387Z" fill="white"/>
<path d="M102.431 82.9612C100.067 86.3003 97.1339 87.1962 95.993 87.1962C90.5333 87.1962 87.2738 83.1241 87.2738 78.1561C87.2738 72.3738 91.2667 67.5687 96.482 67.5687C99.823 67.5687 102.594 70.6635 102.594 73.514C102.594 74.817 102.431 74.8985 101.697 75.0613C101.127 75.2242 95.7486 75.6314 90.4518 75.7943C90.2889 82.1468 94.3633 84.4272 97.4598 84.4272C98.8451 84.4272 100.149 83.9385 101.86 82.3911L102.431 82.9612ZM98.1117 74.084C98.6821 74.084 98.8451 73.8397 98.8451 72.6995C98.8451 70.9893 97.4598 68.9532 95.2596 68.9532C93.2224 68.9532 90.9408 71.0707 90.6148 74.2469L98.1117 74.084Z" fill="white"/>
<path d="M113.594 82.7169C113.594 85.0787 113.839 85.323 116.61 85.5673V86.5446H107.075V85.5673C110.009 85.323 110.172 85.0787 110.172 82.7169V69.3604H108.542C107.401 69.3604 106.179 69.5233 105.609 70.2563C105.038 70.9078 104.631 71.9665 104.305 73.5954L103.245 73.4325L103.571 67.9759H120.114L120.439 73.351L119.38 73.5139C119.054 71.9665 118.647 70.9078 118.076 70.1748C117.506 69.4418 116.284 69.279 115.143 69.279H113.513V82.7169H113.594Z" fill="white"/>
<path d="M133.885 87.1148C132.418 86.8704 131.766 85.4045 131.522 84.3457C129.729 85.4859 127.366 87.1148 126.47 87.1148C123.373 87.1148 121.336 84.5086 121.336 82.1468C121.336 80.1922 122.395 78.7263 124.595 77.8304C126.714 76.9345 130.218 75.7129 131.522 74.817V73.3511C131.522 70.6635 130.3 69.279 128.018 69.279C125.899 69.279 125.003 71.0707 124.514 72.8624C124.351 73.3511 124.025 73.6768 123.536 73.6768C122.884 73.6768 121.662 73.0253 121.662 72.2109C121.662 71.6408 122.151 71.0707 123.129 70.3377C124.188 69.6048 126.714 67.9759 129.729 67.4058C130.951 67.4058 132.255 67.813 133.152 68.4646C134.537 69.6048 134.781 71.0707 134.781 72.6181V82.2282C134.781 83.7756 135.352 84.5086 136.004 84.5086C136.33 84.5086 137.063 84.3457 137.878 83.9385L138.285 84.9158L133.885 87.1148ZM131.522 76.2016C130.544 76.6088 128.018 77.7489 127.203 78.1562C125.736 78.9706 125.003 79.8664 125.003 81.3324C125.003 83.6128 126.551 84.6715 127.855 84.6715C128.833 84.6715 130.462 83.9385 131.603 82.9612V76.2016H131.522Z" fill="white"/>
<path d="M31.6988 99.9826C31.2098 99.9826 30.7209 99.9012 30.395 99.7383C29.9875 99.5754 29.6616 99.3311 29.4171 99.0868C29.1726 98.761 28.9282 98.4352 28.8467 98.028C28.6837 97.6208 28.6837 97.2136 28.6837 96.7249C28.6837 96.2363 28.7652 95.8291 28.8467 95.4219C29.0097 95.0147 29.1726 94.6889 29.4171 94.3631C29.6616 94.0374 29.9875 93.8745 30.395 93.6302C30.8024 93.4673 31.2098 93.3858 31.6988 93.3858C32.1877 93.3858 32.5951 93.4673 33.0026 93.6302C33.41 93.793 33.736 94.0374 33.9804 94.3631C34.2249 94.6889 34.4694 95.0147 34.5509 95.4219C34.7138 95.8291 34.7138 96.2363 34.7138 96.7249C34.7138 97.2136 34.6323 97.6208 34.5509 98.028C34.3879 98.4352 34.2249 98.761 33.9804 99.0868C33.736 99.4125 33.41 99.5754 33.0026 99.7383C32.5951 99.9012 32.1877 99.9826 31.6988 99.9826ZM31.6988 99.0868C31.9432 99.0868 32.1877 99.0053 32.4322 98.9239C32.6766 98.8424 32.8396 98.6796 33.0841 98.4352C33.247 98.2724 33.41 98.028 33.4915 97.7023C33.573 97.3765 33.6545 97.0507 33.6545 96.7249C33.6545 96.3177 33.573 95.992 33.4915 95.7476C33.41 95.4219 33.247 95.1775 33.0841 95.0147C32.9211 94.8518 32.6766 94.6889 32.4322 94.526C32.1877 94.4446 31.9432 94.3631 31.6988 94.3631C31.4543 94.3631 31.2098 94.4446 30.9654 94.526C30.7209 94.6075 30.5579 94.7703 30.3135 95.0147C30.1505 95.1775 29.9875 95.5033 29.906 95.7476C29.8245 96.0734 29.7431 96.3992 29.7431 96.7249C29.7431 97.1322 29.8245 97.4579 29.906 97.7023C29.9875 98.028 30.1505 98.2724 30.3135 98.4352C30.4765 98.5981 30.7209 98.761 30.9654 98.9239C31.1284 99.0053 31.4543 99.0868 31.6988 99.0868Z" fill="white"/>
<path d="M35.2029 98.9239H35.9363C36.0178 98.761 36.0993 98.5167 36.1808 98.1909C36.2623 97.8651 36.3438 97.5394 36.4253 97.2136C36.5068 96.8878 36.5882 96.4806 36.5882 96.0734C36.6697 95.6662 36.6697 95.259 36.6697 94.8518V93.4673H41.2331V98.8424H42.0479V101.693H41.0701V99.8197H36.0993V101.693H35.1215V98.9239H35.2029ZM40.2552 98.9239V94.4446H37.7291V95.0147C37.7291 95.4219 37.7291 95.8291 37.6476 96.2363C37.5661 96.6435 37.5661 96.9693 37.4846 97.3765C37.4031 97.7023 37.3216 98.028 37.2402 98.3538C37.1587 98.5981 37.0772 98.8424 36.9957 99.0053H40.2552V98.9239Z" fill="white"/>
<path d="M43.1071 93.5488H44.1664V98.6796L47.1 93.5488H48.4038V99.8198H47.3444V94.6889L44.4109 99.8198H43.1071V93.5488Z" fill="white"/>
<path d="M51.419 94.4446H49.1373V93.5488H54.6785V94.4446H52.3969V99.8198H51.3375V94.4446H51.419Z" fill="white"/>
<path d="M58.2641 99.9826C57.7752 99.9826 57.2862 99.9012 56.9603 99.7383C56.5528 99.5754 56.2269 99.3311 55.9824 99.0868C55.7379 98.761 55.4935 98.4353 55.412 98.028C55.249 97.6208 55.249 97.2136 55.249 96.725C55.249 96.2363 55.3305 95.8291 55.412 95.4219C55.575 95.0147 55.7379 94.6889 55.9824 94.3632C56.2269 94.0374 56.5528 93.8745 56.9603 93.6302C57.3677 93.4673 57.7752 93.3858 58.2641 93.3858C58.753 93.3858 59.1604 93.4673 59.5679 93.6302C59.9753 93.7931 60.3013 94.0374 60.5457 94.3632C60.7902 94.6889 61.0347 95.0147 61.1162 95.4219C61.2791 95.8291 61.2791 96.2363 61.2791 96.725C61.2791 97.2136 61.1976 97.6208 61.1162 98.028C60.9532 98.4353 60.7902 98.761 60.5457 99.0868C60.3013 99.4125 59.9753 99.5754 59.5679 99.7383C59.1604 99.9012 58.753 99.9826 58.2641 99.9826ZM58.2641 99.0868C58.5085 99.0868 58.753 99.0053 58.9975 98.9239C59.2419 98.8425 59.4049 98.6796 59.6494 98.4353C59.8123 98.2724 59.9753 98.028 60.0568 97.7023C60.1383 97.3765 60.2198 97.0507 60.2198 96.725C60.2198 96.3178 60.1383 95.992 60.0568 95.7477C59.9753 95.4219 59.8123 95.1776 59.6494 95.0147C59.4864 94.8518 59.2419 94.6889 58.9975 94.526C58.753 94.4446 58.5085 94.3632 58.2641 94.3632C58.0196 94.3632 57.7751 94.4446 57.5307 94.526C57.2862 94.6075 57.1232 94.7704 56.8788 95.0147C56.7158 95.1776 56.5528 95.5033 56.4713 95.7477C56.3899 96.0734 56.3084 96.3992 56.3084 96.725C56.3084 97.1322 56.3899 97.4579 56.4713 97.7023C56.5528 98.028 56.7158 98.2724 56.8788 98.4353C57.0418 98.5981 57.2862 98.761 57.5307 98.9239C57.7751 99.0053 58.0196 99.0868 58.2641 99.0868Z" fill="white"/>
<path d="M62.5826 93.5487H63.5605V94.3632C63.7235 94.0374 63.9679 93.7931 64.3754 93.6302C64.7013 93.4673 65.1088 93.3858 65.5977 93.3858C66.0866 93.3858 66.4941 93.4673 66.9015 93.6302C67.2275 93.7931 67.5534 94.0374 67.7979 94.3632C68.0423 94.6889 68.2053 95.0147 68.3683 95.4219C68.4498 95.8291 68.5313 96.2363 68.5313 96.6435C68.5313 97.1322 68.4498 97.5394 68.3683 97.9466C68.2868 98.3538 68.0423 98.6796 67.7979 99.0053C67.5534 99.3311 67.2275 99.494 66.9015 99.7383C66.5756 99.9012 66.0866 99.9826 65.6792 99.9826C65.5162 99.9826 65.3532 99.9826 65.1903 99.9012C65.0273 99.9012 64.7828 99.8198 64.6198 99.7383C64.4569 99.6569 64.2939 99.5754 64.1309 99.4126C63.9679 99.2497 63.805 99.1682 63.7235 98.9239V102.182H62.6641V93.5487H62.5826ZM65.5162 99.0868C65.8422 99.0868 66.1681 99.0053 66.4126 98.8425C66.657 98.6796 66.82 98.5167 66.983 98.2724C67.146 98.028 67.2275 97.7837 67.3089 97.4579C67.3904 97.1322 67.3904 96.8879 67.3904 96.5621C67.3904 96.2363 67.3904 95.992 67.3089 95.7477C67.2275 95.5033 67.146 95.259 66.983 95.0147C66.82 94.7704 66.657 94.6075 66.4126 94.526C66.1681 94.3632 65.8422 94.3632 65.5162 94.3632C65.1903 94.3632 64.8643 94.4446 64.6198 94.6075C64.3754 94.7704 64.2124 94.9332 64.0494 95.1776C63.8864 95.4219 63.805 95.6662 63.7235 95.9105C63.642 96.1549 63.642 96.4806 63.642 96.8064C63.642 97.1322 63.642 97.3765 63.7235 97.7023C63.805 98.028 63.8864 98.2724 64.0494 98.4353C64.2124 98.6796 64.3754 98.8425 64.7013 98.9239C64.8643 99.0053 65.1903 99.0868 65.5162 99.0868Z" fill="white"/>
<path d="M72.2799 99.9826C71.791 99.9826 71.3835 99.9012 70.9761 99.7383C70.5686 99.5754 70.3242 99.3311 70.0797 99.0868C69.8352 98.8424 69.6723 98.4352 69.5093 98.1095C69.3463 97.7022 69.3463 97.295 69.3463 96.8064C69.3463 96.3177 69.4278 95.9105 69.5093 95.5033C69.5908 95.0961 69.8352 94.7703 70.0797 94.4446C70.3242 94.1188 70.6501 93.8745 70.9761 93.7116C71.3835 93.5487 71.791 93.4673 72.2799 93.4673C72.6058 93.4673 72.9318 93.5487 73.2577 93.6302C73.5837 93.7116 73.8282 93.8745 74.0726 94.0374C74.3171 94.2002 74.4801 94.4446 74.643 94.6889C74.806 94.9332 74.8875 95.259 74.969 95.6662H73.9096C73.8282 95.259 73.6652 94.9332 73.4207 94.7703C73.1763 94.526 72.8503 94.4446 72.3614 94.4446C71.9539 94.4446 71.7095 94.526 71.465 94.6889C71.2205 94.8518 70.9761 95.0147 70.8946 95.259C70.7316 95.5033 70.6501 95.7476 70.5686 96.0734C70.4871 96.3992 70.4871 96.6435 70.4871 96.9693C70.4871 97.295 70.4871 97.5394 70.5686 97.7837C70.6501 98.028 70.7316 98.2723 70.8946 98.5167C71.0576 98.761 71.2205 98.9239 71.465 99.0053C71.7095 99.1682 71.9539 99.1682 72.2799 99.1682C72.7688 99.1682 73.1762 99.0053 73.5022 98.761C73.8282 98.5167 73.9911 98.1095 73.9911 97.6208H75.0505C74.969 98.4352 74.643 99.0053 74.1541 99.4125C73.7467 99.7383 73.0948 99.9826 72.2799 99.9826Z" fill="white"/>
<path d="M76.1915 93.5488H77.2509V96.5621L80.103 93.5488H81.4883L78.9621 95.992L81.8142 99.8198H80.5104L78.2287 96.725L77.2509 97.7023V99.8198H76.1915V93.5488V93.5488Z" fill="white"/>
<path d="M84.3401 99.9826C84.0957 99.9826 83.7697 99.9826 83.5252 99.9012C83.2808 99.8197 83.0363 99.7383 82.8733 99.5754C82.7104 99.4125 82.5474 99.2496 82.3844 99.0053C82.3029 98.761 82.2214 98.5167 82.2214 98.1909C82.2214 97.8651 82.3029 97.5394 82.3844 97.295C82.4659 97.0507 82.6289 96.8878 82.8733 96.7249C83.0363 96.5621 83.2808 96.4806 83.5252 96.3992C83.7697 96.3177 84.0142 96.2363 84.3401 96.2363C84.5846 96.1548 84.9105 96.1549 85.155 96.0734C85.3995 96.0734 85.6439 95.992 85.8069 95.992C85.9699 95.9105 86.1329 95.8291 86.2958 95.7476C86.3773 95.6662 86.4588 95.5033 86.4588 95.3404C86.4588 95.0961 86.3773 94.9332 86.2958 94.7703C86.2143 94.6075 86.1329 94.526 85.9699 94.4446C85.8069 94.3631 85.7254 94.3631 85.481 94.2817C85.318 94.2817 85.155 94.2817 84.992 94.2817C84.5846 94.2817 84.1771 94.3631 83.9327 94.526C83.6067 94.6889 83.4438 95.0147 83.4438 95.5033H82.3844C82.3844 95.0961 82.4659 94.7703 82.6289 94.526C82.7919 94.2817 82.9548 94.0374 83.1993 93.8745C83.4438 93.7116 83.6882 93.6302 84.0142 93.5487C84.3401 93.4673 84.6661 93.4673 84.992 93.4673C85.2365 93.4673 85.5624 93.4673 85.8069 93.5487C86.0514 93.5487 86.3773 93.7116 86.5403 93.793C86.7848 93.9559 86.9477 94.1188 87.1107 94.2817C87.2737 94.526 87.3552 94.7703 87.3552 95.1776V98.4352C87.3552 98.6796 87.3552 98.8424 87.4367 99.0053C87.4367 99.0868 87.5996 99.1682 87.6811 99.1682C87.7626 99.1682 87.8441 99.1682 88.0071 99.0868V99.9012C87.8441 99.9826 87.5996 100.064 87.2737 100.064C87.0292 100.064 86.7848 99.9826 86.6218 99.8197C86.4588 99.6569 86.3773 99.4125 86.3773 99.0868C86.1329 99.4125 85.7254 99.6569 85.3995 99.8197C85.155 99.9012 84.7476 99.9826 84.3401 99.9826ZM84.5846 99.0868C84.9105 99.0868 85.2365 99.0053 85.481 98.9239C85.7254 98.8424 85.8884 98.6796 86.0514 98.5981C86.2143 98.4352 86.2958 98.2723 86.3773 98.1095C86.4588 97.9466 86.4588 97.7837 86.4588 97.6208V96.5621C86.2958 96.6435 86.1329 96.725 85.9699 96.8064C85.7254 96.8064 85.5624 96.8878 85.318 96.8878C85.0735 96.8878 84.8291 96.9693 84.5846 96.9693C84.3401 96.9693 84.1771 97.0507 83.9327 97.1322C83.7697 97.2136 83.6067 97.295 83.4438 97.4579C83.3623 97.6208 83.2808 97.7837 83.2808 98.1095C83.2808 98.2723 83.2808 98.4352 83.3623 98.5167C83.4438 98.5981 83.5252 98.761 83.6067 98.761C83.6882 98.8424 83.8512 98.9239 84.0142 98.9239C84.2586 99.0868 84.4216 99.0868 84.5846 99.0868Z" fill="white"/>
<path d="M90.4518 97.3765C90.0444 97.2951 89.6369 97.1322 89.3925 96.8064C89.148 96.4807 88.985 96.0734 88.985 95.5034C88.985 94.9333 89.148 94.4446 89.474 94.1188C89.7999 93.7931 90.2888 93.6302 90.9407 93.6302H94.1188V99.9012H93.0594V97.458H91.6741L89.7184 99.9012H88.3331L90.4518 97.3765ZM92.9779 96.5621V94.5261H91.1852C90.7778 94.5261 90.4518 94.6075 90.2074 94.7704C90.0444 94.9333 89.8814 95.1776 89.8814 95.5034C89.8814 95.8291 89.9629 96.0734 90.2074 96.2363C90.3703 96.3992 90.6963 96.4807 91.1852 96.4807H92.9779V96.5621Z" fill="white"/>
<path d="M99.0081 93.5488H103.327V94.4446H100.067V99.8198H99.0081V93.5488Z" fill="white"/>
<path d="M104.142 93.5487H105.201V94.3632C105.364 94.0374 105.608 93.7931 106.016 93.6302C106.342 93.4673 106.749 93.3858 107.238 93.3858C107.727 93.3858 108.135 93.4673 108.542 93.6302C108.868 93.7931 109.194 94.0374 109.438 94.3632C109.683 94.6889 109.846 95.0147 110.009 95.4219C110.09 95.8291 110.172 96.2363 110.172 96.6435C110.172 97.1322 110.09 97.5394 110.009 97.9466C109.927 98.3538 109.683 98.6796 109.438 99.0053C109.194 99.3311 108.868 99.494 108.542 99.7383C108.216 99.9012 107.727 99.9826 107.32 99.9826C107.157 99.9826 106.994 99.9826 106.831 99.9012C106.668 99.9012 106.423 99.8198 106.26 99.7383C106.097 99.6569 105.934 99.5754 105.771 99.4126C105.608 99.2497 105.445 99.1682 105.364 98.9239V102.182H104.305V93.5487H104.142ZM107.075 99.0868C107.401 99.0868 107.727 99.0053 107.972 98.8425C108.216 98.6796 108.379 98.5167 108.542 98.2724C108.705 98.028 108.786 97.7837 108.868 97.4579C108.949 97.1322 108.949 96.8879 108.949 96.5621C108.949 96.2363 108.949 95.992 108.868 95.7477C108.786 95.5033 108.705 95.259 108.542 95.0147C108.379 94.7704 108.216 94.6075 107.972 94.526C107.727 94.3632 107.401 94.3632 107.075 94.3632C106.749 94.3632 106.423 94.4446 106.179 94.6075C105.934 94.7704 105.771 94.9332 105.608 95.1776C105.445 95.4219 105.364 95.6662 105.282 95.9105C105.201 96.1549 105.201 96.4806 105.201 96.8064C105.201 97.1322 105.201 97.3765 105.282 97.7023C105.364 98.028 105.445 98.2724 105.608 98.4353C105.771 98.6796 105.934 98.8425 106.26 98.9239C106.423 99.0053 106.749 99.0868 107.075 99.0868Z" fill="white"/>
<path d="M111.965 102.344C111.883 102.344 111.72 102.344 111.639 102.344C111.557 102.344 111.394 102.263 111.313 102.263V101.286C111.394 101.286 111.476 101.367 111.639 101.367C111.72 101.367 111.802 101.449 111.965 101.449C112.209 101.449 112.372 101.367 112.454 101.286C112.617 101.204 112.698 101.041 112.78 100.879L113.187 99.8198L110.742 93.6302H111.883L113.676 98.761L115.469 93.6302H116.528L113.839 100.716C113.757 101.041 113.594 101.286 113.513 101.53C113.431 101.774 113.268 101.937 113.105 102.019C112.942 102.182 112.78 102.263 112.617 102.344C112.372 102.263 112.128 102.344 111.965 102.344Z" fill="white"/>
<path d="M117.343 93.5488H122.477V99.8198H121.417V94.4446H118.402V99.8198H117.343V93.5488Z" fill="white"/>
<path d="M124.025 93.5488H129.159V99.8198H128.099V94.4446H125.084V99.8198H124.025V93.5488Z" fill="white"/>
<path d="M132.418 99.9826C132.174 99.9826 131.848 99.9826 131.603 99.9012C131.359 99.8197 131.114 99.7383 130.951 99.5754C130.788 99.4125 130.625 99.2496 130.462 99.0053C130.381 98.761 130.299 98.5167 130.299 98.1909C130.299 97.8651 130.381 97.5394 130.462 97.295C130.544 97.0507 130.707 96.8878 130.951 96.7249C131.114 96.5621 131.359 96.4806 131.603 96.3992C131.848 96.3177 132.092 96.2363 132.418 96.2363C132.663 96.1548 132.989 96.1549 133.233 96.0734C133.477 96.0734 133.722 95.992 133.885 95.992C134.048 95.9105 134.211 95.8291 134.374 95.7476C134.455 95.6662 134.537 95.5033 134.537 95.3404C134.537 95.0961 134.455 94.9332 134.374 94.7703C134.292 94.6075 134.211 94.526 134.048 94.4446C133.885 94.3631 133.803 94.3631 133.559 94.2817C133.396 94.2817 133.233 94.2817 133.07 94.2817C132.663 94.2817 132.255 94.3631 132.011 94.526C131.685 94.6889 131.522 95.0147 131.522 95.5033H130.462C130.462 95.0961 130.544 94.7703 130.707 94.526C130.87 94.2817 131.033 94.0374 131.277 93.8745C131.522 93.7116 131.766 93.6302 132.092 93.5487C132.418 93.4673 132.744 93.4673 133.07 93.4673C133.315 93.4673 133.64 93.4673 133.885 93.5487C134.129 93.5487 134.455 93.7116 134.618 93.793C134.863 93.9559 135.026 94.1188 135.189 94.2817C135.352 94.526 135.433 94.7703 135.433 95.1776V98.4352C135.433 98.6796 135.433 98.8424 135.515 99.0053C135.515 99.0868 135.678 99.1682 135.759 99.1682C135.841 99.1682 135.922 99.1682 136.085 99.0868V99.9012C135.922 99.9826 135.678 100.064 135.352 100.064C135.107 100.064 134.863 99.9826 134.7 99.8197C134.537 99.6569 134.455 99.4125 134.455 99.0868C134.211 99.4125 133.803 99.6569 133.477 99.8197C133.233 99.9012 132.826 99.9826 132.418 99.9826ZM132.663 99.0868C132.989 99.0868 133.314 99.0053 133.559 98.9239C133.803 98.8424 133.966 98.6796 134.129 98.5981C134.292 98.4352 134.374 98.2723 134.455 98.1095C134.537 97.9466 134.537 97.7837 134.537 97.6208V96.5621C134.374 96.6435 134.211 96.725 134.048 96.8064C133.803 96.8064 133.64 96.8878 133.396 96.8878C133.152 96.8878 132.907 96.9693 132.663 96.9693C132.418 96.9693 132.255 97.0507 132.011 97.1322C131.848 97.2136 131.685 97.295 131.522 97.4579C131.44 97.6208 131.359 97.7837 131.359 98.1095C131.359 98.2723 131.359 98.4352 131.44 98.5167C131.522 98.5981 131.603 98.761 131.685 98.761C131.766 98.8424 131.929 98.9239 132.092 98.9239C132.337 99.0868 132.5 99.0868 132.663 99.0868Z" fill="white"/>
</g>
<defs>
<radialGradient id="paint0_radial_846_13795" cx="0" cy="0" r="1" gradientUnits="userSpaceOnUse" gradientTransform="translate(116.025 40.709) rotate(90) scale(40.9959 41.0191)">
<stop stop-color="#FFB443"/>
<stop offset="1" stop-color="#FFC700" stop-opacity="0"/>
</radialGradient>
<clipPath id="clip0_846_13795">
<rect width="184" height="110" fill="white"/>
</clipPath>
</defs>
</svg>
