<svg width="157" height="94" viewBox="0 0 157 94" fill="none" xmlns="http://www.w3.org/2000/svg">
<g clip-path="url(#clip0_848_1289)">
<path fill-rule="evenodd" clip-rule="evenodd" d="M99 70C118.33 70 134 54.33 134 35C134 15.67 118.33 0 99 0C79.67 0 64 15.67 64 35C64 54.33 79.67 70 99 70ZM99 57C111.15 57 121 47.1503 121 35C121 22.8497 111.15 13 99 13C86.8497 13 77 22.8497 77 35C77 47.1503 86.8497 57 99 57Z" fill="url(#paint0_radial_848_1289)"/>
<path fill-rule="evenodd" clip-rule="evenodd" d="M37.894 55.0807C51.2439 42.9128 72.9374 34.9863 97.4817 34.9863C122.026 34.9863 143.72 42.9128 157.069 55.0807C142.677 44.0253 121.331 37.0027 97.4817 37.0027C73.6327 37.0722 52.2869 44.0948 37.894 55.0807Z" fill="#016699"/>
<path d="M8.69132 51.6041C6.53587 51.6041 6.39681 51.9518 6.39681 55.7064V68.9172C6.39681 72.8805 6.67493 73.1586 9.66475 73.3672V74.2016H0V73.3672C2.98981 73.1586 3.26794 72.8805 3.26794 68.9172V55.7064C3.26794 51.7432 2.98981 51.4651 0 51.2565V50.4221H25.1701V51.2565C22.1802 51.4651 21.9021 51.7432 21.9021 55.7064V68.9172C21.9021 72.8805 22.1802 73.1586 25.1701 73.3672V74.2016H15.5053V73.3672C18.4951 73.1586 18.7733 72.8805 18.7733 68.9172V55.7064C18.7733 51.9518 18.5647 51.6041 16.4787 51.6041H8.69132Z" fill="#2D2D2D"/>
<path d="M41.8574 58.2791V59.183C39.4238 59.3915 39.2152 59.6001 39.2152 61.6165V70.9336C39.2152 72.95 39.4238 73.1586 41.8574 73.3672V74.2016H33.6528V73.3672C36.1559 73.1586 36.2949 72.95 36.2949 70.9336V61.0603C36.2949 59.8087 36.2254 59.4611 34.9043 59.4611H33.2356C31.7754 59.4611 31.7754 59.6697 31.7059 60.9907C31.4973 68.5 29.6895 72.0461 28.2989 73.6453C27.6731 74.3406 27.0474 74.6883 26.6302 74.6883C26.1435 74.6883 25.3786 74.4101 24.8224 74.2711V73.5758C26.6997 72.7414 28.0208 71.0727 28.7161 69.4735C29.2723 68.1524 30.3153 65.3712 30.3153 61.2689C30.3153 59.7392 30.1762 59.4611 27.9513 59.2525V58.3486H41.8574V58.2791Z" fill="#2D2D2D"/>
<path d="M52.3565 74.6186C51.105 74.41 50.5487 73.1585 50.3401 72.2546C48.8105 73.228 46.7941 74.6186 46.0292 74.6186C43.3871 74.6186 41.6488 72.3937 41.6488 70.3773C41.6488 68.7085 42.5527 67.457 44.43 66.6922C46.2378 65.9273 49.2276 64.8844 50.3401 64.1195V62.868C50.3401 60.5735 49.2972 59.3914 47.3503 59.3914C45.5425 59.3914 44.7777 60.9211 44.3605 62.4508C44.2214 62.868 43.9433 63.1461 43.5261 63.1461C42.9699 63.1461 41.9269 62.5898 41.9269 61.8945C41.9269 61.4078 42.3441 60.9211 43.1785 60.2953C44.0824 59.6696 46.2378 58.279 48.8104 57.7922C49.8534 57.7922 50.9659 58.1399 51.7307 58.6961C52.9128 59.6696 53.1213 60.9211 53.1213 62.2422V70.4468C53.1213 71.7679 53.6081 72.3937 54.1643 72.3937C54.4424 72.3937 55.0682 72.2546 55.7635 71.9069L56.1112 72.7413L52.3565 74.6186ZM50.3401 65.3015C49.5058 65.6492 47.3503 66.6226 46.655 66.9703C45.4035 67.6656 44.7777 68.4304 44.7777 69.682C44.7777 71.6288 46.0988 72.5327 47.2112 72.5327C48.0456 72.5327 49.4362 71.9069 50.4097 71.0726V65.3015H50.3401Z" fill="#2D2D2D"/>
<path d="M68.279 65.1626V61.6166C68.279 59.6002 68.0704 59.3916 65.7759 59.183V58.3486H73.5633V59.183C71.3383 59.3916 71.1297 59.6002 71.1297 61.6166V70.9337C71.1297 72.95 71.3383 73.1586 73.6328 73.3672V74.2016H65.9149V73.3672C68.1399 73.1586 68.3485 72.95 68.3485 70.9337V66.4142H60.9087V70.9337C60.9087 72.95 61.1173 73.1586 63.3423 73.3672V74.2016H55.5549V73.3672C57.8494 73.1586 58.058 72.95 58.058 70.9337V61.6166C58.058 59.6002 57.8494 59.3916 55.4854 59.183V58.3486H63.2728V59.183C61.1173 59.3916 60.9087 59.6002 60.9087 61.6166V65.2322H68.279V65.1626Z" fill="#2D2D2D"/>
<path d="M87.4 71.0727C85.3836 73.9234 82.8805 74.6883 81.9071 74.6883C77.2485 74.6883 74.4673 71.2117 74.4673 66.9704C74.4673 62.0337 77.8743 57.9314 82.3242 57.9314C85.175 57.9314 87.539 60.5736 87.539 63.0071C87.539 64.1196 87.4 64.1891 86.7742 64.3282C86.2875 64.4673 81.6985 64.8149 77.179 64.954C77.0399 70.3774 80.5164 72.3242 83.1586 72.3242C84.3406 72.3242 85.4531 71.907 86.9133 70.586L87.4 71.0727ZM83.7149 63.4938C84.2016 63.4938 84.3406 63.2853 84.3406 62.3118C84.3406 60.8517 83.1586 59.1134 81.2813 59.1134C79.543 59.1134 77.5962 60.9212 77.318 63.6329L83.7149 63.4938Z" fill="#2D2D2D"/>
<path d="M96.9257 70.8641C96.9257 72.8805 97.1343 73.0891 99.4984 73.2977V74.132H91.3633V73.2977C93.8664 73.0891 94.0054 72.8805 94.0054 70.8641V59.4611H92.6148C91.6414 59.4611 90.5984 59.6001 90.1117 60.2259C89.625 60.7822 89.2774 61.6861 88.9992 63.0767L88.0953 62.9376L88.3735 58.2791H102.488L102.766 62.8681L101.862 63.0071C101.584 61.6861 101.237 60.7822 100.75 60.1564C100.263 59.5306 99.2202 59.3915 98.2468 59.3915H96.8562V70.8641H96.9257Z" fill="#2D2D2D"/>
<path d="M114.239 74.6186C112.987 74.41 112.431 73.1585 112.222 72.2546C110.693 73.228 108.676 74.6186 107.911 74.6186C105.269 74.6186 103.531 72.3937 103.531 70.3773C103.531 68.7085 104.435 67.457 106.312 66.6922C108.12 65.9273 111.11 64.8844 112.222 64.1195V62.868C112.222 60.5735 111.179 59.3914 109.233 59.3914C107.425 59.3914 106.66 60.9211 106.243 62.4508C106.104 62.868 105.826 63.1461 105.408 63.1461C104.852 63.1461 103.809 62.5898 103.809 61.8945C103.809 61.4078 104.226 60.9211 105.061 60.2953C105.965 59.6696 108.12 58.279 110.693 57.7922C111.736 57.7922 112.848 58.1399 113.613 58.6961C114.795 59.6696 115.004 60.9211 115.004 62.2422V70.4468C115.004 71.7679 115.49 72.3937 116.047 72.3937C116.325 72.3937 116.95 72.2546 117.646 71.9069L117.993 72.7413L114.239 74.6186ZM112.222 65.3015C111.388 65.6492 109.233 66.6226 108.537 66.9703C107.286 67.6656 106.66 68.4304 106.66 69.682C106.66 71.6288 107.981 72.5327 109.093 72.5327C109.928 72.5327 111.318 71.9069 112.292 71.0726V65.3015H112.222Z" fill="#2D2D2D"/>
<path d="M27.0472 85.6044C26.6301 85.6044 26.2129 85.5349 25.9348 85.3958C25.5871 85.2567 25.309 85.0481 25.1004 84.8396C24.8918 84.5614 24.6832 84.2833 24.6137 83.9357C24.4746 83.588 24.4746 83.2404 24.4746 82.8232C24.4746 82.406 24.5441 82.0583 24.6137 81.7107C24.7527 81.363 24.8918 81.0849 25.1004 80.8068C25.309 80.5287 25.5871 80.3896 25.9348 80.181C26.2824 80.0419 26.6301 79.9724 27.0472 79.9724C27.4644 79.9724 27.8121 80.0419 28.1597 80.181C28.5074 80.3201 28.7855 80.5287 28.9941 80.8068C29.2027 81.0849 29.4113 81.363 29.4808 81.7107C29.6199 82.0583 29.6199 82.406 29.6199 82.8232C29.6199 83.2404 29.5503 83.588 29.4808 83.9357C29.3417 84.2833 29.2027 84.5614 28.9941 84.8396C28.7855 85.1177 28.5074 85.2567 28.1597 85.3958C27.8121 85.5349 27.4644 85.6044 27.0472 85.6044ZM27.0472 84.8396C27.2558 84.8396 27.4644 84.77 27.673 84.7005C27.8816 84.631 28.0207 84.4919 28.2293 84.2833C28.3683 84.1443 28.5074 83.9357 28.5769 83.6575C28.6464 83.3794 28.716 83.1013 28.716 82.8232C28.716 82.4755 28.6464 82.1974 28.5769 81.9888C28.5074 81.7107 28.3683 81.5021 28.2293 81.363C28.0902 81.224 27.8816 81.0849 27.673 80.9458C27.4644 80.8763 27.2558 80.8068 27.0472 80.8068C26.8386 80.8068 26.6301 80.8763 26.4215 80.9458C26.2129 81.0154 26.0738 81.1544 25.8652 81.363C25.7262 81.5021 25.5871 81.7802 25.5176 81.9888C25.448 82.2669 25.3785 82.545 25.3785 82.8232C25.3785 83.1708 25.448 83.4489 25.5176 83.6575C25.5871 83.9357 25.7262 84.1443 25.8652 84.2833C26.0043 84.4224 26.2129 84.5614 26.4215 84.7005C26.5605 84.77 26.8386 84.8396 27.0472 84.8396Z" fill="#2D2D2D"/>
<path d="M30.0373 84.7005H30.6631C30.7326 84.5615 30.8021 84.3529 30.8717 84.0748C30.9412 83.7966 31.0107 83.5185 31.0803 83.2404C31.1498 82.9623 31.2193 82.6146 31.2193 82.267C31.2889 81.9193 31.2889 81.5717 31.2889 81.224V80.042H35.1826V84.631H35.8779V87.0646H35.0435V85.4654H30.8021V87.0646H29.9678V84.7005H30.0373ZM34.3482 84.7005V80.8764H32.1928V81.3631C32.1928 81.7107 32.1928 82.0584 32.1232 82.406C32.0537 82.7537 32.0537 83.0318 31.9842 83.3795C31.9146 83.6576 31.8451 83.9357 31.7756 84.2138C31.706 84.4224 31.6365 84.631 31.567 84.7701H34.3482V84.7005Z" fill="#2D2D2D"/>
<path d="M36.7815 80.1116H37.6854V84.492L40.1885 80.1116H41.301V85.4654H40.3971V81.085L37.894 85.4654H36.7815V80.1116Z" fill="#2D2D2D"/>
<path d="M43.8737 80.8764H41.9269V80.1116H46.655V80.8764H44.7081V85.4654H43.8042V80.8764H43.8737Z" fill="#2D2D2D"/>
<path d="M49.7144 85.6044C49.2972 85.6044 48.88 85.5349 48.6019 85.3958C48.2542 85.2567 47.9761 85.0481 47.7675 84.8396C47.5589 84.5614 47.3503 84.2833 47.2808 83.9357C47.1417 83.588 47.1417 83.2404 47.1417 82.8232C47.1417 82.406 47.2113 82.0583 47.2808 81.7107C47.4198 81.363 47.5589 81.0849 47.7675 80.8068C47.9761 80.5287 48.2542 80.3896 48.6019 80.181C48.9495 80.0419 49.2972 79.9724 49.7144 79.9724C50.1315 79.9724 50.4792 80.0419 50.8268 80.181C51.1745 80.3201 51.4526 80.5287 51.6612 80.8068C51.8698 81.0849 52.0784 81.363 52.1479 81.7107C52.287 82.0583 52.287 82.406 52.287 82.8232C52.287 83.2404 52.2175 83.588 52.1479 83.9357C52.0089 84.2833 51.8698 84.5614 51.6612 84.8396C51.4526 85.1177 51.1745 85.2567 50.8268 85.3958C50.4792 85.5349 50.1315 85.6044 49.7144 85.6044ZM49.7144 84.8396C49.9229 84.8396 50.1315 84.77 50.3401 84.7005C50.5487 84.631 50.6878 84.4919 50.8964 84.2833C51.0354 84.1443 51.1745 83.9357 51.244 83.6575C51.3136 83.3794 51.3831 83.1013 51.3831 82.8232C51.3831 82.4755 51.3136 82.1974 51.244 81.9888C51.1745 81.7107 51.0354 81.5021 50.8964 81.363C50.7573 81.224 50.5487 81.0849 50.3401 80.9458C50.1315 80.8763 49.9229 80.8068 49.7144 80.8068C49.5058 80.8068 49.2972 80.8763 49.0886 80.9458C48.88 81.0154 48.7409 81.1544 48.5323 81.363C48.3933 81.5021 48.2542 81.7802 48.1847 81.9888C48.1152 82.2669 48.0456 82.545 48.0456 82.8232C48.0456 83.1708 48.1152 83.4489 48.1847 83.6575C48.2542 83.9357 48.3933 84.1443 48.5323 84.2833C48.6714 84.4224 48.88 84.5614 49.0886 84.7005C49.2972 84.77 49.5058 84.8396 49.7144 84.8396Z" fill="#2D2D2D"/>
<path d="M53.3993 80.1115H54.2337V80.8068C54.3727 80.5287 54.5813 80.3201 54.929 80.181C55.2071 80.0419 55.5547 79.9724 55.9719 79.9724C56.3891 79.9724 56.7368 80.0419 57.0844 80.181C57.3625 80.3201 57.6407 80.5287 57.8492 80.8068C58.0578 81.0849 58.1969 81.363 58.336 81.7107C58.4055 82.0583 58.475 82.406 58.475 82.7536C58.475 83.1708 58.4055 83.5185 58.336 83.8661C58.2664 84.2138 58.0578 84.4919 57.8492 84.77C57.6407 85.0481 57.3625 85.1872 57.0844 85.3958C56.8063 85.5349 56.3891 85.6044 56.0415 85.6044C55.9024 85.6044 55.7633 85.6044 55.6243 85.5349C55.4852 85.5349 55.2766 85.4653 55.1376 85.3958C54.9985 85.3263 54.8594 85.2567 54.7204 85.1177C54.5813 84.9786 54.4422 84.9091 54.3727 84.7005V87.4817H53.4688V80.1115H53.3993ZM55.9024 84.8396C56.1805 84.8396 56.4586 84.77 56.6672 84.631C56.8758 84.4919 57.0149 84.3528 57.1539 84.1442C57.293 83.9357 57.3625 83.7271 57.4321 83.4489C57.5016 83.1708 57.5016 82.9622 57.5016 82.6841C57.5016 82.406 57.5016 82.1974 57.4321 81.9888C57.3625 81.7802 57.293 81.5716 57.1539 81.363C57.0149 81.1544 56.8758 81.0154 56.6672 80.9458C56.4586 80.8068 56.1805 80.8068 55.9024 80.8068C55.6243 80.8068 55.3461 80.8763 55.1376 81.0154C54.929 81.1544 54.7899 81.2935 54.6508 81.5021C54.5118 81.7107 54.4422 81.9193 54.3727 82.1279C54.3032 82.3365 54.3032 82.6146 54.3032 82.8927C54.3032 83.1708 54.3032 83.3794 54.3727 83.6575C54.4422 83.9357 54.5118 84.1443 54.6508 84.2833C54.7899 84.4919 54.929 84.631 55.2071 84.7005C55.3461 84.77 55.6243 84.8396 55.9024 84.8396Z" fill="#2D2D2D"/>
<path d="M61.6735 85.6044C61.2563 85.6044 60.9087 85.5349 60.561 85.3958C60.2134 85.2568 60.0048 85.0482 59.7962 84.8396C59.5876 84.631 59.4485 84.2834 59.3095 84.0052C59.1704 83.6576 59.1704 83.3099 59.1704 82.8927C59.1704 82.4756 59.2399 82.1279 59.3095 81.7803C59.379 81.4326 59.5876 81.1545 59.7962 80.8764C60.0048 80.5982 60.2829 80.3896 60.561 80.2506C60.9087 80.1115 61.2563 80.042 61.6735 80.042C61.9516 80.042 62.2298 80.1115 62.5079 80.1811C62.786 80.2506 62.9946 80.3896 63.2032 80.5287C63.4118 80.6678 63.5508 80.8764 63.6899 81.085C63.829 81.2935 63.8985 81.5717 63.968 81.9193H63.0641C62.9946 81.5717 62.8555 81.2935 62.6469 81.1545C62.4383 80.9459 62.1602 80.8764 61.743 80.8764C61.3954 80.8764 61.1868 80.9459 60.9782 81.085C60.7696 81.224 60.561 81.3631 60.4915 81.5717C60.3524 81.7803 60.2829 81.9888 60.2134 82.267C60.1438 82.5451 60.1438 82.7537 60.1438 83.0318C60.1438 83.3099 60.1438 83.5185 60.2134 83.7271C60.2829 83.9357 60.3524 84.1443 60.4915 84.3529C60.6306 84.5615 60.7696 84.7005 60.9782 84.7701C61.1868 84.9091 61.3954 84.9091 61.6735 84.9091C62.0907 84.9091 62.4383 84.7701 62.7165 84.5615C62.9946 84.3529 63.1337 84.0052 63.1337 83.5881H64.0375C63.968 84.2834 63.6899 84.7701 63.2727 85.1177C62.9251 85.3958 62.3688 85.6044 61.6735 85.6044Z" fill="#2D2D2D"/>
<path d="M65.0111 80.1116H65.915V82.6842L68.3486 80.1116H69.5306L67.3751 82.1975L69.8087 85.4654H68.6962L66.7494 82.8233L65.915 83.6576V85.4654H65.0111V80.1116Z" fill="#2D2D2D"/>
<path d="M71.964 85.6044C71.7555 85.6044 71.4773 85.6044 71.2687 85.5349C71.0601 85.4654 70.8516 85.3958 70.7125 85.2568C70.5734 85.1177 70.4344 84.9787 70.2953 84.7701C70.2258 84.5615 70.1562 84.3529 70.1562 84.0748C70.1562 83.7966 70.2258 83.5185 70.2953 83.3099C70.3648 83.1013 70.5039 82.9623 70.7125 82.8232C70.8516 82.6842 71.0601 82.6146 71.2687 82.5451C71.4773 82.4756 71.6859 82.406 71.964 82.406C72.1726 82.3365 72.4508 82.3365 72.6593 82.267C72.8679 82.267 73.0765 82.1974 73.2156 82.1974C73.3547 82.1279 73.4937 82.0584 73.6328 81.9888C73.7023 81.9193 73.7718 81.7803 73.7718 81.6412C73.7718 81.4326 73.7023 81.2935 73.6328 81.1545C73.5632 81.0154 73.4937 80.9459 73.3547 80.8764C73.2156 80.8068 73.1461 80.8068 72.9375 80.7373C72.7984 80.7373 72.6594 80.7373 72.5203 80.7373C72.1726 80.7373 71.825 80.8068 71.6164 80.9459C71.3383 81.085 71.1992 81.3631 71.1992 81.7803H70.2953C70.2953 81.4326 70.3648 81.1545 70.5039 80.9459C70.643 80.7373 70.782 80.5287 70.9906 80.3896C71.1992 80.2506 71.4078 80.1811 71.6859 80.1115C71.964 80.042 72.2422 80.042 72.5203 80.042C72.7289 80.042 73.007 80.042 73.2156 80.1115C73.4242 80.1115 73.7023 80.2506 73.8414 80.3201C74.05 80.4592 74.189 80.5982 74.3281 80.7373C74.4671 80.9459 74.5367 81.1545 74.5367 81.5021V84.2834C74.5367 84.492 74.5367 84.631 74.6062 84.7701C74.6062 84.8396 74.7453 84.9091 74.8148 84.9091C74.8843 84.9091 74.9539 84.9091 75.0929 84.8396V85.5349C74.9539 85.6044 74.7453 85.674 74.4671 85.674C74.2586 85.674 74.05 85.6044 73.9109 85.4654C73.7718 85.3263 73.7023 85.1177 73.7023 84.8396C73.4937 85.1177 73.1461 85.3263 72.8679 85.4654C72.6594 85.5349 72.3117 85.6044 71.964 85.6044ZM72.1726 84.8396C72.4508 84.8396 72.7289 84.7701 72.9375 84.7005C73.1461 84.631 73.2851 84.4919 73.4242 84.4224C73.5632 84.2834 73.6328 84.1443 73.7023 84.0052C73.7718 83.8662 73.7718 83.7271 73.7718 83.5881V82.6842C73.6328 82.7537 73.4937 82.8232 73.3547 82.8927C73.1461 82.8927 73.007 82.9623 72.7984 82.9623C72.5898 82.9623 72.3812 83.0318 72.1726 83.0318C71.964 83.0318 71.825 83.1013 71.6164 83.1709C71.4773 83.2404 71.3383 83.3099 71.1992 83.449C71.1297 83.588 71.0601 83.7271 71.0601 84.0052C71.0601 84.1443 71.0601 84.2834 71.1297 84.3529C71.1992 84.4224 71.2687 84.5615 71.3383 84.5615C71.4078 84.631 71.5469 84.7005 71.6859 84.7005C71.8945 84.8396 72.0336 84.8396 72.1726 84.8396Z" fill="#2D2D2D"/>
<path d="M77.1789 83.3796C76.8312 83.31 76.4836 83.171 76.275 82.8929C76.0664 82.6147 75.9273 82.2671 75.9273 81.7804C75.9273 81.2936 76.0664 80.8765 76.3445 80.5983C76.6226 80.3202 77.0398 80.1812 77.5961 80.1812H80.3078V85.535H79.4039V83.4491H78.2218L76.5531 85.535H75.3711L77.1789 83.3796ZM79.3343 82.6843V80.946H77.8047C77.457 80.946 77.1789 81.0155 76.9703 81.1546C76.8312 81.2936 76.6922 81.5022 76.6922 81.7804C76.6922 82.0585 76.7617 82.2671 76.9703 82.4061C77.1094 82.5452 77.3875 82.6147 77.8047 82.6147H79.3343V82.6843Z" fill="#2D2D2D"/>
<path d="M84.4796 80.1116H88.1647V80.8764H85.3835V85.4654H84.4796V80.1116Z" fill="#2D2D2D"/>
<path d="M88.8599 80.1115H89.7638V80.8068C89.9028 80.5287 90.1114 80.3201 90.4591 80.181C90.7372 80.0419 91.0848 79.9724 91.502 79.9724C91.9192 79.9724 92.2669 80.0419 92.6145 80.181C92.8926 80.3201 93.1708 80.5287 93.3793 80.8068C93.5879 81.0849 93.727 81.363 93.8661 81.7107C93.9356 82.0583 94.0051 82.406 94.0051 82.7536C94.0051 83.1708 93.9356 83.5185 93.8661 83.8661C93.7965 84.2138 93.5879 84.4919 93.3793 84.77C93.1708 85.0481 92.8926 85.1872 92.6145 85.3958C92.3364 85.5349 91.9192 85.6044 91.5716 85.6044C91.4325 85.6044 91.2934 85.6044 91.1544 85.5349C91.0153 85.5349 90.8067 85.4653 90.6677 85.3958C90.5286 85.3263 90.3895 85.2567 90.2505 85.1177C90.1114 84.9786 89.9724 84.9091 89.9028 84.7005V87.4817H88.9989V80.1115H88.8599ZM91.363 84.8396C91.6411 84.8396 91.9192 84.77 92.1278 84.631C92.3364 84.4919 92.4754 84.3528 92.6145 84.1442C92.7536 83.9357 92.8231 83.7271 92.8926 83.4489C92.9622 83.1708 92.9622 82.9622 92.9622 82.6841C92.9622 82.406 92.9622 82.1974 92.8926 81.9888C92.8231 81.7802 92.7536 81.5716 92.6145 81.363C92.4754 81.1544 92.3364 81.0154 92.1278 80.9458C91.9192 80.8068 91.6411 80.8068 91.363 80.8068C91.0848 80.8068 90.8067 80.8763 90.5981 81.0154C90.3895 81.1544 90.2505 81.2935 90.1114 81.5021C89.9724 81.7107 89.9028 81.9193 89.8333 82.1279C89.7638 82.3365 89.7638 82.6146 89.7638 82.8927C89.7638 83.1708 89.7638 83.3794 89.8333 83.6575C89.9028 83.9357 89.9724 84.1443 90.1114 84.2833C90.2505 84.4919 90.3895 84.631 90.6677 84.7005C90.8067 84.77 91.0848 84.8396 91.363 84.8396Z" fill="#2D2D2D"/>
<path d="M95.535 87.6209C95.4655 87.6209 95.3264 87.6209 95.2569 87.6209C95.1874 87.6209 95.0483 87.5514 94.9788 87.5514V86.717C95.0483 86.717 95.1178 86.7866 95.2569 86.7866C95.3264 86.7866 95.396 86.8561 95.535 86.8561C95.7436 86.8561 95.8827 86.7866 95.9522 86.717C96.0913 86.6475 96.1608 86.5084 96.2303 86.3694L96.578 85.4655L94.4921 80.1812H95.4655L96.9952 84.5616L98.5248 80.1812H99.4287L97.1342 86.2303C97.0647 86.5084 96.9256 86.717 96.8561 86.9256C96.7866 87.1342 96.6475 87.2733 96.5085 87.3428C96.3694 87.4819 96.2303 87.5514 96.0913 87.6209C95.8827 87.5514 95.6741 87.6209 95.535 87.6209Z" fill="#2D2D2D"/>
<path d="M100.124 80.1116H104.505V85.4654H103.601V80.8764H101.028V85.4654H100.124V80.1116Z" fill="#2D2D2D"/>
<path d="M105.826 80.1116H110.206V85.4654H109.302V80.8764H106.729V85.4654H105.826V80.1116Z" fill="#2D2D2D"/>
<path d="M112.987 85.6044C112.779 85.6044 112.5 85.6044 112.292 85.5349C112.083 85.4654 111.875 85.3958 111.736 85.2568C111.597 85.1177 111.457 84.9787 111.318 84.7701C111.249 84.5615 111.179 84.3529 111.179 84.0748C111.179 83.7966 111.249 83.5185 111.318 83.3099C111.388 83.1013 111.527 82.9623 111.736 82.8232C111.875 82.6842 112.083 82.6146 112.292 82.5451C112.5 82.4756 112.709 82.406 112.987 82.406C113.196 82.3365 113.474 82.3365 113.682 82.267C113.891 82.267 114.1 82.1974 114.239 82.1974C114.378 82.1279 114.517 82.0584 114.656 81.9888C114.725 81.9193 114.795 81.7803 114.795 81.6412C114.795 81.4326 114.725 81.2935 114.656 81.1545C114.586 81.0154 114.517 80.9459 114.378 80.8764C114.239 80.8068 114.169 80.8068 113.961 80.7373C113.821 80.7373 113.682 80.7373 113.543 80.7373C113.196 80.7373 112.848 80.8068 112.639 80.9459C112.361 81.085 112.222 81.3631 112.222 81.7803H111.318C111.318 81.4326 111.388 81.1545 111.527 80.9459C111.666 80.7373 111.805 80.5287 112.014 80.3896C112.222 80.2506 112.431 80.1811 112.709 80.1115C112.987 80.042 113.265 80.042 113.543 80.042C113.752 80.042 114.03 80.042 114.239 80.1115C114.447 80.1115 114.725 80.2506 114.864 80.3201C115.073 80.4592 115.212 80.5982 115.351 80.7373C115.49 80.9459 115.56 81.1545 115.56 81.5021V84.2834C115.56 84.492 115.56 84.631 115.629 84.7701C115.629 84.8396 115.768 84.9091 115.838 84.9091C115.907 84.9091 115.977 84.9091 116.116 84.8396V85.5349C115.977 85.6044 115.768 85.674 115.49 85.674C115.282 85.674 115.073 85.6044 114.934 85.4654C114.795 85.3263 114.725 85.1177 114.725 84.8396C114.517 85.1177 114.169 85.3263 113.891 85.4654C113.682 85.5349 113.335 85.6044 112.987 85.6044ZM113.196 84.8396C113.474 84.8396 113.752 84.7701 113.961 84.7005C114.169 84.631 114.308 84.4919 114.447 84.4224C114.586 84.2834 114.656 84.1443 114.725 84.0052C114.795 83.8662 114.795 83.7271 114.795 83.5881V82.6842C114.656 82.7537 114.517 82.8232 114.378 82.8927C114.169 82.8927 114.03 82.9623 113.821 82.9623C113.613 82.9623 113.404 83.0318 113.196 83.0318C112.987 83.0318 112.848 83.1013 112.639 83.1709C112.5 83.2404 112.361 83.3099 112.222 83.449C112.153 83.588 112.083 83.7271 112.083 84.0052C112.083 84.1443 112.083 84.2834 112.153 84.3529C112.222 84.4224 112.292 84.5615 112.361 84.5615C112.431 84.631 112.57 84.7005 112.709 84.7005C112.918 84.8396 113.057 84.8396 113.196 84.8396Z" fill="#2D2D2D"/>
</g>
<defs>
<radialGradient id="paint0_radial_848_1289" cx="0" cy="0" r="1" gradientUnits="userSpaceOnUse" gradientTransform="translate(99 35) rotate(90) scale(35)">
<stop stop-color="#FFB443"/>
<stop offset="1" stop-color="#FFC700" stop-opacity="0"/>
</radialGradient>
<clipPath id="clip0_848_1289">
<rect width="157" height="94" fill="white"/>
</clipPath>
</defs>
</svg>
