<svg width="273" height="148" viewBox="0 0 273 148" fill="none" xmlns="http://www.w3.org/2000/svg">
<circle cx="162.793" cy="58.5444" r="51.9559" stroke="url(#paint0_radial_558_14399)" stroke-width="9.66622"/>
<path fill-rule="evenodd" clip-rule="evenodd" d="M65.8511 80.095C89.05 58.9501 126.748 45.1758 169.4 45.1758C212.053 45.1758 249.751 58.9501 272.95 80.095C247.939 60.8834 210.844 48.6798 169.4 48.6798C127.957 48.8006 90.8624 61.0042 65.8511 80.095Z" fill="#016699"/>
<path d="M15.1035 74.0536C11.3578 74.0536 11.1162 74.6577 11.1162 81.1824V104.14C11.1162 111.027 11.5995 111.51 16.7951 111.873V113.323H0V111.873C5.19559 111.51 5.67891 111.027 5.67891 104.14V81.1824C5.67891 74.2952 5.19559 73.8119 0 73.4494V71.9995H43.7397V73.4494C38.5441 73.8119 38.0607 74.2952 38.0607 81.1824V104.14C38.0607 111.027 38.5441 111.51 43.7397 111.873V113.323H26.9446V111.873C32.1402 111.51 32.6235 111.027 32.6235 104.14V81.1824C32.6235 74.6577 32.261 74.0536 28.6362 74.0536H15.1035Z" fill="#2D2D2D"/>
<path d="M72.7383 85.6528V87.2236C68.5093 87.5861 68.1468 87.9486 68.1468 91.4526V107.643C68.1468 111.147 68.5093 111.51 72.7383 111.872V113.322H58.4806V111.872C62.8304 111.51 63.0721 111.147 63.0721 107.643V90.4859C63.0721 88.311 62.9513 87.7069 60.6555 87.7069H57.7557C55.2183 87.7069 55.2183 88.0694 55.0974 90.3651C54.735 103.415 51.5934 109.577 49.1769 112.356C48.0894 113.564 47.002 114.168 46.277 114.168C45.4312 114.168 44.1021 113.685 43.1355 113.443V112.235C46.3978 110.785 48.6936 107.885 49.9019 105.106C50.8685 102.81 52.6809 97.9773 52.6809 90.8484C52.6809 88.1902 52.4392 87.7069 48.5727 87.3444V85.7737H72.7383V85.6528Z" fill="#2D2D2D"/>
<path d="M90.9832 114.047C88.8083 113.685 87.8417 111.51 87.4792 109.939C84.821 111.631 81.317 114.047 79.9879 114.047C75.3964 114.047 72.3757 110.181 72.3757 106.677C72.3757 103.777 73.9465 101.602 77.2088 100.273C80.3504 98.9437 85.546 97.1313 87.4792 95.8022V93.6273C87.4792 89.64 85.6668 87.5859 82.2836 87.5859C79.1421 87.5859 77.813 90.2441 77.088 92.9023C76.8464 93.6273 76.363 94.1106 75.6381 94.1106C74.6715 94.1106 72.859 93.144 72.859 91.9357C72.859 91.0899 73.584 90.2441 75.0339 89.1567C76.6047 88.0692 80.3504 85.6527 84.821 84.8069C86.6334 84.8069 88.5667 85.411 89.8958 86.3776C91.9498 88.0692 92.3123 90.2441 92.3123 92.5399V106.798C92.3123 109.093 93.1581 110.181 94.1247 110.181C94.608 110.181 95.6955 109.939 96.9038 109.335L97.5079 110.785L90.9832 114.047ZM87.4792 97.8563C86.0293 98.4604 82.2836 100.152 81.0753 100.756C78.9004 101.964 77.813 103.294 77.813 105.468C77.813 108.852 80.1087 110.422 82.042 110.422C83.4919 110.422 85.9084 109.335 87.6 107.885V97.8563H87.4792Z" fill="#2D2D2D"/>
<path d="M118.653 97.615V91.4528C118.653 87.9488 118.29 87.5863 114.303 87.2239V85.7739H127.836V87.2239C123.969 87.5863 123.607 87.9488 123.607 91.4528V107.644C123.607 111.148 123.969 111.51 127.956 111.873V113.323H114.545V111.873C118.411 111.51 118.774 111.148 118.774 107.644V99.7899H105.845V107.644C105.845 111.148 106.207 111.51 110.074 111.873V113.323H96.5412V111.873C100.529 111.51 100.891 111.148 100.891 107.644V91.4528C100.891 87.9488 100.529 87.5863 96.4204 87.2239V85.7739H109.953V87.2239C106.207 87.5863 105.845 87.9488 105.845 91.4528V97.7359H118.653V97.615Z" fill="#2D2D2D"/>
<path d="M151.881 107.885C148.377 112.839 144.027 114.168 142.335 114.168C134.24 114.168 129.407 108.127 129.407 100.756C129.407 92.1777 135.327 85.0488 143.06 85.0488C148.014 85.0488 152.122 89.6403 152.122 93.8693C152.122 95.8025 151.881 95.9233 150.793 96.165C149.947 96.4066 141.973 97.0108 134.119 97.2524C133.877 106.677 139.919 110.06 144.51 110.06C146.564 110.06 148.498 109.335 151.035 107.039L151.881 107.885ZM145.477 94.715C146.323 94.715 146.564 94.3526 146.564 92.661C146.564 90.1236 144.51 87.1029 141.248 87.1029C138.227 87.1029 134.844 90.2444 134.361 94.9567L145.477 94.715Z" fill="#2D2D2D"/>
<path d="M168.434 107.523C168.434 111.027 168.796 111.389 172.905 111.752V113.202H158.768V111.752C163.118 111.389 163.359 111.027 163.359 107.523V87.7069H160.943C159.251 87.7069 157.439 87.9486 156.593 89.036C155.747 90.0026 155.143 91.5734 154.66 93.9899L153.089 93.7483L153.572 85.6528H178.1L178.584 93.6275L177.013 93.8691C176.529 91.5734 175.925 90.0026 175.08 88.9152C174.234 87.8277 172.421 87.5861 170.73 87.5861H168.313V107.523H168.434Z" fill="#2D2D2D"/>
<path d="M198.52 114.047C196.345 113.685 195.379 111.51 195.016 109.939C192.358 111.631 188.854 114.047 187.525 114.047C182.933 114.047 179.913 110.181 179.913 106.677C179.913 103.777 181.483 101.602 184.746 100.273C187.887 98.9437 193.083 97.1313 195.016 95.8022V93.6273C195.016 89.64 193.204 87.5859 189.82 87.5859C186.679 87.5859 185.35 90.2441 184.625 92.9023C184.383 93.6273 183.9 94.1106 183.175 94.1106C182.208 94.1106 180.396 93.144 180.396 91.9357C180.396 91.0899 181.121 90.2441 182.571 89.1567C184.142 88.0692 187.887 85.6527 192.358 84.8069C194.17 84.8069 196.104 85.411 197.433 86.3776C199.487 88.0692 199.849 90.2441 199.849 92.5399V106.798C199.849 109.093 200.695 110.181 201.662 110.181C202.145 110.181 203.232 109.939 204.441 109.335L205.045 110.785L198.52 114.047ZM195.016 97.8563C193.566 98.4604 189.82 100.152 188.612 100.756C186.437 101.964 185.35 103.294 185.35 105.468C185.35 108.852 187.646 110.422 189.579 110.422C191.029 110.422 193.445 109.335 195.137 107.885V97.8563H195.016Z" fill="#2D2D2D"/>
<path d="M47.0016 133.138C46.2767 133.138 45.5517 133.017 45.0684 132.775C44.4642 132.534 43.9809 132.171 43.6185 131.809C43.256 131.325 42.8935 130.842 42.7727 130.238C42.531 129.634 42.531 129.03 42.531 128.305C42.531 127.58 42.6518 126.976 42.7727 126.372C43.0143 125.767 43.256 125.284 43.6185 124.801C43.9809 124.317 44.4642 124.076 45.0684 123.713C45.6725 123.472 46.2767 123.351 47.0016 123.351C47.7266 123.351 48.3307 123.472 48.9349 123.713C49.539 123.955 50.0223 124.317 50.3848 124.801C50.7473 125.284 51.1098 125.767 51.2306 126.372C51.4723 126.976 51.4723 127.58 51.4723 128.305C51.4723 129.03 51.3514 129.634 51.2306 130.238C50.989 130.842 50.7473 131.325 50.3848 131.809C50.0223 132.292 49.539 132.534 48.9349 132.775C48.3307 133.017 47.7266 133.138 47.0016 133.138ZM47.0016 131.809C47.3641 131.809 47.7266 131.688 48.0891 131.567C48.4516 131.446 48.6932 131.205 49.0557 130.842C49.2974 130.601 49.539 130.238 49.6598 129.755C49.7807 129.271 49.9015 128.788 49.9015 128.305C49.9015 127.701 49.7807 127.217 49.6598 126.855C49.539 126.372 49.2974 126.009 49.0557 125.767C48.814 125.526 48.4516 125.284 48.0891 125.042C47.7266 124.922 47.3641 124.801 47.0016 124.801C46.6392 124.801 46.2767 124.922 45.9142 125.042C45.5517 125.163 45.31 125.405 44.9476 125.767C44.7059 126.009 44.4643 126.492 44.3434 126.855C44.2226 127.338 44.1018 127.821 44.1018 128.305C44.1018 128.909 44.2226 129.392 44.3434 129.755C44.4643 130.238 44.7059 130.601 44.9476 130.842C45.1892 131.084 45.5517 131.325 45.9142 131.567C46.1558 131.688 46.6392 131.809 47.0016 131.809Z" fill="#2D2D2D"/>
<path d="M52.1977 131.567H53.2852C53.406 131.326 53.5268 130.963 53.6477 130.48C53.7685 129.997 53.8893 129.513 54.0102 129.03C54.131 128.547 54.2518 127.943 54.2518 127.338C54.3726 126.734 54.3726 126.13 54.3726 125.526V123.472H61.139V131.447H62.3473V135.676H60.8973V132.896H53.5268V135.676H52.0769V131.567H52.1977ZM59.6891 131.567V124.922H55.9434V125.768C55.9434 126.372 55.9434 126.976 55.8226 127.58C55.7017 128.184 55.7017 128.668 55.5809 129.272C55.4601 129.755 55.3393 130.238 55.2184 130.722C55.0976 131.084 54.9768 131.447 54.8559 131.688H59.6891V131.567Z" fill="#2D2D2D"/>
<path d="M63.9175 123.593H65.4882V131.205L69.838 123.593H71.7713V132.897H70.2005V125.284L65.8507 132.897H63.9175V123.593Z" fill="#2D2D2D"/>
<path d="M76.2421 124.922H72.8589V123.593H81.0752V124.922H77.692V132.897H76.1212V124.922H76.2421Z" fill="#2D2D2D"/>
<path d="M86.3918 133.138C85.6668 133.138 84.9418 133.017 84.4585 132.775C83.8544 132.534 83.3711 132.171 83.0086 131.809C82.6461 131.325 82.2836 130.842 82.1628 130.238C81.9211 129.634 81.9211 129.03 81.9211 128.305C81.9211 127.58 82.042 126.976 82.1628 126.372C82.4044 125.767 82.6461 125.284 83.0086 124.801C83.3711 124.317 83.8544 124.076 84.4585 123.713C85.0627 123.472 85.6668 123.351 86.3918 123.351C87.1167 123.351 87.7209 123.472 88.325 123.713C88.9291 123.955 89.4125 124.317 89.7749 124.801C90.1374 125.284 90.4999 125.767 90.6207 126.372C90.8624 126.976 90.8624 127.58 90.8624 128.305C90.8624 129.03 90.7416 129.634 90.6207 130.238C90.3791 130.842 90.1374 131.325 89.7749 131.809C89.4125 132.292 88.9291 132.534 88.325 132.775C87.7209 133.017 87.1167 133.138 86.3918 133.138ZM86.3918 131.809C86.7542 131.809 87.1167 131.688 87.4792 131.567C87.8417 131.446 88.0834 131.205 88.4458 130.842C88.6875 130.601 88.9291 130.238 89.05 129.755C89.1708 129.271 89.2916 128.788 89.2916 128.305C89.2916 127.701 89.1708 127.217 89.05 126.855C88.9291 126.372 88.6875 126.009 88.4458 125.767C88.2042 125.526 87.8417 125.284 87.4792 125.042C87.1167 124.922 86.7542 124.801 86.3918 124.801C86.0293 124.801 85.6668 124.922 85.3043 125.042C84.9418 125.163 84.7002 125.405 84.3377 125.767C84.096 126.009 83.8544 126.492 83.7336 126.855C83.6127 127.338 83.4919 127.821 83.4919 128.305C83.4919 128.909 83.6127 129.392 83.7336 129.755C83.8544 130.238 84.096 130.601 84.3377 130.842C84.5794 131.084 84.9418 131.325 85.3043 131.567C85.6668 131.688 86.0293 131.809 86.3918 131.809Z" fill="#2D2D2D"/>
<path d="M92.7954 123.593H94.2453V124.801C94.487 124.317 94.8495 123.955 95.4536 123.713C95.9369 123.472 96.5411 123.351 97.266 123.351C97.991 123.351 98.5951 123.472 99.1993 123.713C99.6826 123.955 100.166 124.317 100.528 124.801C100.891 125.284 101.133 125.767 101.374 126.372C101.495 126.976 101.616 127.58 101.616 128.184C101.616 128.909 101.495 129.513 101.374 130.117C101.253 130.721 100.891 131.205 100.528 131.688C100.166 132.171 99.6826 132.413 99.1993 132.775C98.716 133.017 97.991 133.138 97.3869 133.138C97.1452 133.138 96.9036 133.138 96.6619 133.017C96.4202 133.017 96.0578 132.896 95.8161 132.775C95.5744 132.655 95.3328 132.534 95.0911 132.292C94.8495 132.05 94.6078 131.93 94.487 131.567V136.4H92.9162V123.593H92.7954ZM97.1452 131.809C97.6285 131.809 98.1118 131.688 98.4743 131.446C98.8368 131.205 99.0784 130.963 99.3201 130.6C99.5618 130.238 99.6826 129.876 99.8034 129.392C99.9242 128.909 99.9242 128.546 99.9242 128.063C99.9242 127.58 99.9242 127.217 99.8034 126.855C99.6826 126.492 99.5618 126.13 99.3201 125.767C99.0784 125.405 98.8368 125.163 98.4743 125.042C98.1118 124.801 97.6285 124.801 97.1452 124.801C96.6619 124.801 96.1786 124.922 95.8161 125.163C95.4536 125.405 95.212 125.647 94.9703 126.009C94.7286 126.372 94.6078 126.734 94.487 127.096C94.3662 127.459 94.3662 127.942 94.3662 128.426C94.3662 128.909 94.3662 129.271 94.487 129.755C94.6078 130.238 94.7286 130.601 94.9703 130.842C95.212 131.205 95.4536 131.446 95.9369 131.567C96.1786 131.688 96.6619 131.809 97.1452 131.809Z" fill="#2D2D2D"/>
<path d="M107.174 133.138C106.449 133.138 105.845 133.017 105.241 132.776C104.637 132.534 104.274 132.172 103.912 131.809C103.549 131.447 103.308 130.842 103.066 130.359C102.824 129.755 102.824 129.151 102.824 128.426C102.824 127.701 102.945 127.097 103.066 126.493C103.187 125.888 103.549 125.405 103.912 124.922C104.274 124.439 104.757 124.076 105.241 123.834C105.845 123.593 106.449 123.472 107.174 123.472C107.657 123.472 108.141 123.593 108.624 123.714C109.107 123.834 109.47 124.076 109.832 124.318C110.195 124.559 110.436 124.922 110.678 125.284C110.92 125.647 111.041 126.13 111.161 126.734H109.591C109.47 126.13 109.228 125.647 108.866 125.405C108.503 125.043 108.02 124.922 107.295 124.922C106.691 124.922 106.328 125.043 105.966 125.284C105.603 125.526 105.241 125.768 105.12 126.13C104.878 126.493 104.757 126.855 104.637 127.338C104.516 127.822 104.516 128.184 104.516 128.668C104.516 129.151 104.516 129.513 104.637 129.876C104.757 130.238 104.878 130.601 105.12 130.963C105.362 131.326 105.603 131.567 105.966 131.688C106.328 131.93 106.691 131.93 107.174 131.93C107.899 131.93 108.503 131.688 108.986 131.326C109.47 130.963 109.711 130.359 109.711 129.634H111.282C111.161 130.842 110.678 131.688 109.953 132.292C109.349 132.776 108.382 133.138 107.174 133.138Z" fill="#2D2D2D"/>
<path d="M112.974 123.593H114.545V128.063L118.774 123.593H120.828L117.082 127.218L121.311 132.897H119.378L115.995 128.305L114.545 129.755V132.897H112.974V123.593Z" fill="#2D2D2D"/>
<path d="M125.057 133.138C124.694 133.138 124.211 133.138 123.848 133.017C123.486 132.896 123.123 132.776 122.882 132.534C122.64 132.292 122.398 132.051 122.157 131.688C122.036 131.326 121.915 130.963 121.915 130.48C121.915 129.997 122.036 129.513 122.157 129.151C122.278 128.788 122.519 128.547 122.882 128.305C123.123 128.063 123.486 127.943 123.848 127.822C124.211 127.701 124.573 127.58 125.057 127.58C125.419 127.459 125.902 127.459 126.265 127.338C126.627 127.338 126.99 127.218 127.231 127.218C127.473 127.097 127.715 126.976 127.956 126.855C128.077 126.734 128.198 126.493 128.198 126.251C128.198 125.888 128.077 125.647 127.956 125.405C127.836 125.164 127.715 125.043 127.473 124.922C127.231 124.801 127.111 124.801 126.748 124.68C126.506 124.68 126.265 124.68 126.023 124.68C125.419 124.68 124.815 124.801 124.452 125.043C123.969 125.284 123.727 125.768 123.727 126.493H122.157C122.157 125.888 122.278 125.405 122.519 125.043C122.761 124.68 123.002 124.318 123.365 124.076C123.727 123.834 124.09 123.714 124.573 123.593C125.057 123.472 125.54 123.472 126.023 123.472C126.386 123.472 126.869 123.472 127.231 123.593C127.594 123.593 128.077 123.834 128.319 123.955C128.681 124.197 128.923 124.439 129.165 124.68C129.406 125.043 129.527 125.405 129.527 126.009V130.842C129.527 131.205 129.527 131.447 129.648 131.688C129.648 131.809 129.89 131.93 130.01 131.93C130.131 131.93 130.252 131.93 130.494 131.809V133.017C130.252 133.138 129.89 133.259 129.406 133.259C129.044 133.259 128.681 133.138 128.44 132.896C128.198 132.655 128.077 132.292 128.077 131.809C127.715 132.292 127.111 132.655 126.627 132.896C126.265 133.017 125.661 133.138 125.057 133.138ZM125.419 131.809C125.902 131.809 126.386 131.688 126.748 131.567C127.111 131.447 127.352 131.205 127.594 131.084C127.836 130.842 127.956 130.601 128.077 130.359C128.198 130.117 128.198 129.876 128.198 129.634V128.063C127.956 128.184 127.715 128.305 127.473 128.426C127.111 128.426 126.869 128.547 126.506 128.547C126.144 128.547 125.782 128.668 125.419 128.668C125.057 128.668 124.815 128.788 124.452 128.909C124.211 129.03 123.969 129.151 123.727 129.392C123.607 129.634 123.486 129.876 123.486 130.359C123.486 130.601 123.486 130.842 123.607 130.963C123.727 131.084 123.848 131.326 123.969 131.326C124.09 131.447 124.332 131.567 124.573 131.567C124.936 131.809 125.177 131.809 125.419 131.809Z" fill="#2D2D2D"/>
<path d="M134.119 129.272C133.514 129.151 132.91 128.909 132.548 128.426C132.185 127.943 131.944 127.338 131.944 126.493C131.944 125.647 132.185 124.922 132.669 124.439C133.152 123.955 133.877 123.714 134.844 123.714H139.556V133.017H137.985V129.393H135.931L133.031 133.017H130.977L134.119 129.272ZM137.864 128.063V125.043H135.206C134.602 125.043 134.119 125.164 133.756 125.405C133.514 125.647 133.273 126.009 133.273 126.493C133.273 126.976 133.394 127.338 133.756 127.58C133.998 127.822 134.481 127.943 135.206 127.943H137.864V128.063Z" fill="#2D2D2D"/>
<path d="M146.806 123.593H153.21V124.922H148.376V132.897H146.806V123.593Z" fill="#2D2D2D"/>
<path d="M154.417 123.593H155.988V124.801C156.23 124.317 156.592 123.955 157.197 123.713C157.68 123.472 158.284 123.351 159.009 123.351C159.734 123.351 160.338 123.472 160.942 123.713C161.425 123.955 161.909 124.317 162.271 124.801C162.634 125.284 162.875 125.767 163.117 126.372C163.238 126.976 163.359 127.58 163.359 128.184C163.359 128.909 163.238 129.513 163.117 130.117C162.996 130.721 162.634 131.205 162.271 131.688C161.909 132.171 161.425 132.413 160.942 132.775C160.459 133.017 159.734 133.138 159.13 133.138C158.888 133.138 158.646 133.138 158.405 133.017C158.163 133.017 157.801 132.896 157.559 132.775C157.317 132.655 157.076 132.534 156.834 132.292C156.592 132.05 156.351 131.93 156.23 131.567V136.4H154.659V123.593H154.417ZM158.767 131.809C159.251 131.809 159.734 131.688 160.096 131.446C160.459 131.205 160.701 130.963 160.942 130.6C161.184 130.238 161.305 129.876 161.425 129.392C161.546 128.909 161.546 128.546 161.546 128.063C161.546 127.58 161.546 127.217 161.425 126.855C161.305 126.492 161.184 126.13 160.942 125.767C160.701 125.405 160.459 125.163 160.096 125.042C159.734 124.801 159.251 124.801 158.767 124.801C158.284 124.801 157.801 124.922 157.438 125.163C157.076 125.405 156.834 125.647 156.592 126.009C156.351 126.372 156.23 126.734 156.109 127.096C155.988 127.459 155.988 127.942 155.988 128.426C155.988 128.909 155.988 129.271 156.109 129.755C156.23 130.238 156.351 130.601 156.592 130.842C156.834 131.205 157.076 131.446 157.559 131.567C157.801 131.688 158.284 131.809 158.767 131.809Z" fill="#2D2D2D"/>
<path d="M166.017 136.642C165.896 136.642 165.655 136.642 165.534 136.642C165.413 136.642 165.171 136.521 165.051 136.521V135.071C165.171 135.071 165.292 135.192 165.534 135.192C165.655 135.192 165.776 135.313 166.017 135.313C166.38 135.313 166.621 135.192 166.742 135.071C166.984 134.951 167.105 134.709 167.226 134.467L167.83 132.897L164.205 123.714H165.896L168.555 131.326L171.213 123.714H172.784L168.796 134.226C168.675 134.709 168.434 135.071 168.313 135.434C168.192 135.796 167.951 136.038 167.709 136.159C167.467 136.401 167.226 136.521 166.984 136.642C166.621 136.521 166.259 136.642 166.017 136.642Z" fill="#2D2D2D"/>
<path d="M173.992 123.593H181.604V132.897H180.034V124.922H175.563V132.897H173.992V123.593Z" fill="#2D2D2D"/>
<path d="M183.9 123.593H191.512V132.897H189.941V124.922H185.471V132.897H183.9V123.593Z" fill="#2D2D2D"/>
<path d="M196.345 133.138C195.982 133.138 195.499 133.138 195.137 133.017C194.774 132.896 194.412 132.776 194.17 132.534C193.928 132.292 193.687 132.051 193.445 131.688C193.324 131.326 193.203 130.963 193.203 130.48C193.203 129.997 193.324 129.513 193.445 129.151C193.566 128.788 193.808 128.547 194.17 128.305C194.412 128.063 194.774 127.943 195.137 127.822C195.499 127.701 195.862 127.58 196.345 127.58C196.707 127.459 197.191 127.459 197.553 127.338C197.916 127.338 198.278 127.218 198.52 127.218C198.761 127.097 199.003 126.976 199.245 126.855C199.366 126.734 199.486 126.493 199.486 126.251C199.486 125.888 199.366 125.647 199.245 125.405C199.124 125.164 199.003 125.043 198.761 124.922C198.52 124.801 198.399 124.801 198.036 124.68C197.795 124.68 197.553 124.68 197.312 124.68C196.707 124.68 196.103 124.801 195.741 125.043C195.257 125.284 195.016 125.768 195.016 126.493H193.445C193.445 125.888 193.566 125.405 193.808 125.043C194.049 124.68 194.291 124.318 194.653 124.076C195.016 123.834 195.378 123.714 195.862 123.593C196.345 123.472 196.828 123.472 197.312 123.472C197.674 123.472 198.157 123.472 198.52 123.593C198.882 123.593 199.366 123.834 199.607 123.955C199.97 124.197 200.211 124.439 200.453 124.68C200.695 125.043 200.816 125.405 200.816 126.009V130.842C200.816 131.205 200.816 131.447 200.936 131.688C200.936 131.809 201.178 131.93 201.299 131.93C201.42 131.93 201.54 131.93 201.782 131.809V133.017C201.54 133.138 201.178 133.259 200.695 133.259C200.332 133.259 199.97 133.138 199.728 132.896C199.486 132.655 199.366 132.292 199.366 131.809C199.003 132.292 198.399 132.655 197.916 132.896C197.553 133.017 196.949 133.138 196.345 133.138ZM196.707 131.809C197.191 131.809 197.674 131.688 198.036 131.567C198.399 131.447 198.641 131.205 198.882 131.084C199.124 130.842 199.245 130.601 199.366 130.359C199.486 130.117 199.486 129.876 199.486 129.634V128.063C199.245 128.184 199.003 128.305 198.761 128.426C198.399 128.426 198.157 128.547 197.795 128.547C197.432 128.547 197.07 128.668 196.707 128.668C196.345 128.668 196.103 128.788 195.741 128.909C195.499 129.03 195.257 129.151 195.016 129.392C194.895 129.634 194.774 129.876 194.774 130.359C194.774 130.601 194.774 130.842 194.895 130.963C195.016 131.084 195.137 131.326 195.257 131.326C195.378 131.447 195.62 131.567 195.862 131.567C196.224 131.809 196.466 131.809 196.707 131.809Z" fill="#2D2D2D"/>
<defs>
<radialGradient id="paint0_radial_558_14399" cx="0" cy="0" r="1" gradientUnits="userSpaceOnUse" gradientTransform="translate(162.793 58.5444) rotate(90) scale(56.7891)">
<stop stop-color="#FF9900"/>
<stop offset="1" stop-color="#FFCD00" stop-opacity="0"/>
</radialGradient>
</defs>
</svg>
