<svg width="40" height="36" viewBox="0 0 40 36" fill="none" xmlns="http://www.w3.org/2000/svg">
<path d="M36.25 18.3689H30V13.3689C30 10.6345 32.1875 8.3689 35 8.3689H35.625C36.6406 8.3689 37.5 7.58765 37.5 6.4939V2.7439C37.5 1.72827 36.6406 0.868896 35.625 0.868896H35C28.0469 0.868896 22.5 6.4939 22.5 13.3689V32.1189C22.5 34.2283 24.1406 35.8689 26.25 35.8689H36.25C38.2812 35.8689 40 34.2283 40 32.1189V22.1189C40 20.0876 38.2812 18.3689 36.25 18.3689ZM13.75 18.3689H7.5V13.3689C7.5 10.6345 9.6875 8.3689 12.5 8.3689H13.125C14.1406 8.3689 15 7.58765 15 6.4939V2.7439C15 1.72827 14.1406 0.868896 13.125 0.868896H12.5C5.54688 0.868896 0 6.4939 0 13.3689V32.1189C0 34.2283 1.64062 35.8689 3.75 35.8689H13.75C15.7812 35.8689 17.5 34.2283 17.5 32.1189V22.1189C17.5 20.0876 15.7812 18.3689 13.75 18.3689Z" fill="#2758B7"/>
</svg>
