<svg width="15" height="15" viewBox="0 0 15 15" fill="none" xmlns="http://www.w3.org/2000/svg">
<path d="M5.9375 1.95117C5.625 2.26367 5.65625 2.73242 5.9375 3.04492L9.71875 6.60742H0.75C0.3125 6.60742 0 6.95117 0 7.35742V8.35742C0 8.79492 0.3125 9.10742 0.75 9.10742H9.71875L5.9375 12.7012C5.65625 13.0137 5.65625 13.4824 5.9375 13.7949L6.625 14.4824C6.9375 14.7637 7.40625 14.7637 7.6875 14.4824L13.7812 8.38867C14.0625 8.10742 14.0625 7.63867 13.7812 7.32617L7.6875 1.26367C7.40625 0.982422 6.9375 0.982422 6.625 1.26367L5.9375 1.95117Z" fill="#2758B7"/>
</svg>
