<svg width="15" height="15" viewBox="0 0 15 15" fill="none" xmlns="http://www.w3.org/2000/svg">
<path d="M9.03125 13.7949C9.34375 13.4824 9.3125 13.0137 9.03125 12.7012L5.25 9.10742H14.25C14.6562 9.10742 15 8.79492 15 8.35742V7.35742C15 6.95117 14.6562 6.60742 14.25 6.60742H5.25L9.03125 3.04492C9.3125 2.73242 9.34375 2.26367 9.03125 1.95117L8.34375 1.26367C8.0625 0.982422 7.5625 0.982422 7.28125 1.26367L1.21875 7.35742C0.90625 7.63867 0.90625 8.10742 1.21875 8.38867L7.28125 14.4824C7.5625 14.7637 8.03125 14.7637 8.34375 14.4824L9.03125 13.7949Z" fill="#7D9BD4"/>
</svg>
