<svg width="21" height="18" viewBox="0 0 21 18" fill="none" xmlns="http://www.w3.org/2000/svg">
<path fill-rule="evenodd" clip-rule="evenodd" d="M17.483 16.79L17.4837 16.7882L17.5011 16.7447L20.4999 1.62567V1.57656C20.4999 1.19986 20.3607 0.871005 20.0578 0.673745C19.7927 0.501085 19.488 0.488795 19.2743 0.505015C19.0482 0.522165 18.8351 0.578585 18.6876 0.625545C18.6117 0.649705 18.5482 0.672975 18.5027 0.690585C18.4799 0.699425 18.4614 0.706925 18.448 0.712505L18.4348 0.718065L1.71502 7.277L1.71042 7.2786C1.70139 7.2819 1.68945 7.2864 1.67502 7.292C1.64627 7.3032 1.60713 7.31921 1.56115 7.34011C1.47087 7.38101 1.34613 7.4441 1.21963 7.5307C1.00478 7.6779 0.595662 8.0262 0.664742 8.5784C0.721962 9.0358 1.03727 9.3263 1.24984 9.4767C1.36378 9.5574 1.4728 9.6155 1.55263 9.6535C1.59307 9.6728 1.62743 9.6875 1.65302 9.6979C1.66585 9.7031 1.67657 9.7073 1.68487 9.7105L1.6955 9.71441L1.70229 9.717L4.62753 10.7018C4.61766 10.8853 4.63586 11.0724 4.68453 11.2571L6.14982 16.8155C6.32355 17.4745 6.91978 17.9336 7.60135 17.9331C8.21228 17.9327 8.75411 17.5631 8.98429 17.0117L11.2719 14.5656L15.2009 17.5778L15.2568 17.6022C15.6137 17.758 15.9473 17.8073 16.2522 17.7657C16.5567 17.7241 16.7986 17.5964 16.9804 17.451C17.1593 17.3079 17.2818 17.1464 17.3589 17.0248C17.3981 16.963 17.4273 16.9087 17.4475 16.8678C17.4577 16.8473 17.4657 16.83 17.4717 16.8164L17.4793 16.799L17.482 16.7926L17.483 16.79ZM6.13493 10.8747C6.10163 10.7484 6.15391 10.615 6.2642 10.545L16.1862 4.24407C16.1862 4.24407 16.7698 3.88977 16.7489 4.24407C16.7489 4.24407 16.8531 4.30663 16.5403 4.59836C16.2437 4.87544 9.46874 11.4165 8.78316 12.0784C8.74359 12.1166 8.71997 12.1604 8.70602 12.2136L7.60022 16.4331L6.13493 10.8747Z" fill="#B9B8B6"/>
</svg>
