<svg width="20" height="21" viewBox="0 0 20 21" fill="none" xmlns="http://www.w3.org/2000/svg">
<path fill-rule="evenodd" clip-rule="evenodd" d="M14.6763 0.62755C11.5301 -0.0757198 8.2675 -0.0757198 5.12126 0.62755L4.78224 0.70333C2.97745 1.10675 1.553 2.49102 1.09811 4.28353C0.30063 7.42602 0.30063 10.7179 1.09811 13.8604C1.53263 15.5727 2.85186 16.9124 4.5422 17.3806L5.00686 20.1564C5.03695 20.3361 5.16246 20.4853 5.33443 20.5456C5.5064 20.606 5.69758 20.568 5.8334 20.4464L8.5641 18.0031C10.6086 18.128 12.6662 17.9657 14.6763 17.5164L15.0153 17.4406C16.8201 17.0372 18.2446 15.6529 18.6995 13.8604C19.4969 10.7179 19.4969 7.42602 18.6995 4.28353C18.2446 2.49102 16.8201 1.10675 15.0153 0.70333L14.6763 0.62755ZM5.96472 4.2019C5.77897 4.17476 5.58952 4.21205 5.42791 4.30756H5.41413C5.03892 4.52749 4.70092 4.80547 4.41269 5.13115C4.17316 5.40809 4.04322 5.68831 4.0091 5.95803C3.98875 6.11881 4.00253 6.27959 4.05044 6.43315L4.0675 6.44365C4.33722 7.2364 4.68963 7.99896 5.12013 8.71689C5.67467 9.72549 6.35713 10.6583 7.15057 11.4922L7.17419 11.5263L7.2116 11.5539L7.23522 11.5814L7.26278 11.6051C8.0997 12.4008 9.0347 13.0865 10.0453 13.6453C11.2003 14.274 11.9012 14.5713 12.3218 14.6947V14.7013C12.4452 14.7387 12.5574 14.7557 12.6703 14.7557C13.0288 14.7295 13.3682 14.5839 13.6343 14.3423C13.9585 14.054 14.2334 13.7146 14.4481 13.3376V13.331C14.6495 12.9517 14.5813 12.5927 14.2906 12.3499C13.7083 11.841 13.0788 11.389 12.4104 11C11.9628 10.7572 11.5081 10.9042 11.3237 11.1503L10.9306 11.6458C10.7291 11.8918 10.3629 11.8577 10.3629 11.8577L10.3524 11.8643C7.62175 11.1667 6.89332 8.40189 6.89332 8.40189C6.89332 8.40189 6.85919 8.02589 7.11185 7.83424L7.60403 7.43787C7.83963 7.24624 8.0037 6.79212 7.75103 6.3439C7.36477 5.67463 6.91373 5.04489 6.40441 4.46374C6.29306 4.32674 6.13685 4.23352 5.96341 4.20059L5.96472 4.2019ZM10.5792 3.00009C10.3031 3.00009 10.0792 3.22395 10.0792 3.50009C10.0792 3.77623 10.3031 4.00009 10.5792 4.00009C11.8437 4.00009 12.8944 4.41341 13.7245 5.20484C14.1518 5.63823 14.4844 6.15124 14.7028 6.71263C14.922 7.27613 15.0217 7.877 14.9961 8.47889C14.9844 8.75479 15.1985 8.98789 15.4744 8.99959C15.7503 9.01139 15.9835 8.79719 15.9952 8.52129C16.0267 7.78089 15.9039 7.04214 15.6347 6.35009C15.3655 5.65807 14.9558 5.02746 14.4307 4.49657L14.4207 4.48695C13.3907 3.50193 12.0851 3.00009 10.5792 3.00009ZM10.5452 4.64442C10.2691 4.64442 10.0452 4.86828 10.0452 5.14442C10.0452 5.42056 10.2691 5.64442 10.5452 5.64442H10.5615C11.474 5.70872 12.1379 6.01286 12.6034 6.5121C13.0799 7.02626 13.3267 7.66489 13.3084 8.45509C13.302 8.73109 13.5207 8.96009 13.7967 8.96649C14.0728 8.97289 14.3018 8.75429 14.3082 8.47819C14.3322 7.44071 13.9985 6.54607 13.3363 5.83174L13.3354 5.8308C12.6588 5.10471 11.7305 4.7206 10.6122 4.64554L10.5955 4.64442H10.5452ZM10.5263 6.31877C10.2505 6.30425 10.0152 6.51603 10.0007 6.79179C9.9862 7.06756 10.198 7.30287 10.4737 7.31739C10.8924 7.33942 11.1592 7.46499 11.327 7.63443C11.4956 7.8046 11.6216 8.07709 11.6446 8.50429C11.6595 8.78009 11.895 8.99159 12.1708 8.97669C12.4465 8.96189 12.658 8.72639 12.6432 8.45059C12.6109 7.85058 12.4231 7.32011 12.0376 6.93077C11.6513 6.54071 11.1238 6.35022 10.5263 6.31877Z" fill="#B9B8B6"/>
</svg>
