<svg width="24" height="24" viewBox="0 0 24 24" fill="none" xmlns="http://www.w3.org/2000/svg">
<path d="M9.92051 7.40766L9.92081 7.40832C10.0521 7.70083 10.2694 8.23024 10.4429 8.65259L10.4463 8.66095C10.5148 8.82774 10.5766 8.97816 10.6247 9.09391C10.6488 9.15184 10.669 9.19974 10.6845 9.23596C10.6983 9.26807 10.7053 9.2835 10.7073 9.28795C10.7078 9.28911 10.708 9.28952 10.7079 9.28931C10.808 9.48871 10.9102 9.81184 10.7302 10.1808L9.92051 7.40766ZM9.92051 7.40766C9.79974 7.13959 9.64304 6.92805 9.42221 6.80005L9.92051 7.40766ZM9.92051 7.40766L9.42221 6.80005L9.92051 7.40766ZM13.254 13.965C13.1997 13.938 13.1318 13.9087 13.0692 13.8817L13.0601 13.8778L13.059 13.8773C12.7137 13.7283 12.0551 13.4441 11.291 12.7639L11.2902 12.7631C10.6439 12.1904 10.181 11.4832 10 11.1828C10.0872 11.0945 10.1807 10.9816 10.2562 10.8903L10.2652 10.8795C10.3145 10.8199 10.3589 10.7663 10.4006 10.7184L10.4007 10.7183C10.5584 10.5371 10.6307 10.3871 10.6991 10.2451L10.703 10.2371L10.7302 10.1809L9.95435 11.1104L9.92563 11.127L9.92536 11.1272L9.52391 11.3599L13.254 13.965ZM13.254 13.965L13.2448 13.9834C13.2493 13.9782 13.2539 13.9728 13.2587 13.9673L13.254 13.965ZM13.254 13.965L13.2539 13.9649L13.2446 13.9836C13.2324 13.9978 13.2213 14.0108 13.2114 14.0223H13.2113C13.1985 14.0372 13.1988 14.0333 13.2134 14.0241C13.2139 14.0237 13.2145 14.0234 13.215 14.023C13.219 14.0207 13.2235 14.0181 13.2287 14.0155L13.2212 14.0307V14.0308L13.0312 14.4126L13.254 13.965ZM13.254 13.965C13.2556 13.9658 13.2571 13.9665 13.2587 13.9673L13.254 13.965ZM13.2587 13.9673C13.2993 13.9872 13.3216 13.9942 13.3296 13.9963C13.3307 13.9966 13.3312 13.9967 13.3312 13.9967C13.3312 13.9967 13.3171 13.9938 13.2932 13.9966C13.2791 13.9983 13.2643 14.0016 13.2497 14.0068C13.2419 14.0095 13.2349 14.0125 13.2288 14.0155L13.2212 14.0308L13.0312 14.4126L13.2587 13.9673ZM13.2587 13.9673C13.4477 13.747 13.85 13.2736 13.9909 13.0662L13.2587 13.9673ZM13.0312 14.4126C13.2885 14.5406 13.4418 14.5209 13.5902 14.3486C13.7387 14.1762 14.2333 13.6001 14.4065 13.3441L13.0312 14.4126ZM13.0312 14.4126C12.9894 14.3918 12.9324 14.3672 12.862 14.3368C12.4997 14.1805 11.7829 13.8712 10.9586 13.1373C10.1918 12.4579 9.67239 11.6159 9.52391 11.3599L13.0312 14.4126ZM13.9909 13.0662C13.9901 13.0673 13.9893 13.0685 13.9886 13.0696L14.4065 13.3441L13.9909 13.0662ZM13.9909 13.0662C13.9914 13.0654 13.9919 13.0647 13.9924 13.064L14.4065 13.3441L13.9909 13.0662ZM13.9909 13.0662C14.1286 12.858 14.329 12.6876 14.6114 12.6544C14.8383 12.6276 15.0464 12.7053 15.1556 12.746L15.16 12.7477H15.1601C15.3062 12.8022 15.7095 12.9933 16.0752 13.1693C16.4553 13.3523 16.8382 13.5404 16.969 13.6055H16.9691C17.0162 13.629 17.0606 13.6502 17.1049 13.6715L16.8887 14.1224L13.9909 13.0662ZM14.4065 13.3441C14.5747 13.0881 14.7478 13.1275 14.9853 13.2161C15.2227 13.3047 16.4891 13.9251 16.7463 14.0531C16.7971 14.0784 16.8447 14.1012 16.8887 14.1224L14.4065 13.3441ZM9.52391 11.3599L9.92528 11.1271L9.92555 11.127L9.95433 11.1103L10.0236 10.3899C9.97697 10.4435 9.92838 10.5022 9.87997 10.5607C9.79483 10.6636 9.71024 10.7658 9.63773 10.838C9.50913 10.9659 9.37552 11.1039 9.52391 11.3599ZM16.8887 14.1224L17.1049 13.6715L17.1171 13.6774C17.1965 13.7154 17.2919 13.7611 17.3733 13.8108C17.4583 13.8627 17.5835 13.9509 17.671 14.0984L16.8887 14.1224ZM16.8887 14.1224C17.0677 14.2082 17.1894 14.2665 17.241 14.3535L16.8887 14.1224ZM17.671 14.0984L17.0926 15.5746C17.3053 14.9739 17.3053 14.4618 17.241 14.3535L17.671 14.0984ZM17.671 14.0984C17.7506 14.2325 17.767 14.387 17.7733 14.4663C17.7816 14.5722 17.7798 14.6933 17.7688 14.822C17.7467 15.0806 17.6846 15.4006 17.5639 15.7415L17.5627 15.7449C17.3958 16.2053 16.9605 16.5749 16.5892 16.8141C16.2114 17.0574 15.751 17.2604 15.3982 17.2934L17.671 14.0984ZM17.671 14.0984C17.6709 14.0983 17.6709 14.0983 17.6709 14.0982L17.241 14.3535L17.671 14.0984ZM17.241 14.3535L15.3982 17.2934L17.241 14.3535ZM15.3982 17.2934C15.3609 17.2969 15.3227 17.3015 15.2756 17.3072L15.2155 16.8108L15.2756 17.3072C15.0357 17.3362 14.7353 17.3714 14.2297 17.2866C13.7426 17.2049 13.0761 17.0143 12.0764 16.6208C9.50627 15.61 7.83474 13.139 7.50095 12.6455L7.4953 12.6371L7.90943 12.357L7.4953 12.6371L7.46462 12.5919L7.45626 12.5799C7.45575 12.5791 7.45539 12.5786 7.45514 12.5783L7.45089 12.5726L7.45085 12.5725H7.4508C7.37167 12.4666 7.08918 12.0886 6.82592 11.5683C6.56604 11.0548 6.30317 10.3608 6.30317 9.62685C6.30317 8.24151 6.9995 7.50184 7.2936 7.19102C7.31098 7.17265 7.32482 7.15802 7.33694 7.14495C7.33694 7.14495 7.33694 7.14495 7.33695 7.14494L15.3982 17.2934ZM9.42221 6.80005C9.21127 6.67777 9.00429 6.67264 8.90962 6.67029L9.42221 6.80005ZM9.42221 6.80005L8.90962 6.67029L9.42221 6.80005ZM8.90962 6.67029C8.90652 6.67022 8.90352 6.67014 8.90066 6.67007L8.90962 6.67029ZM7.51625 20.1816C7.40475 20.1212 7.27446 20.1054 7.15176 20.1375L2.71213 21.2971L3.89671 16.9973C3.93231 16.868 3.91453 16.7299 3.84733 16.6139C3.01902 15.1837 2.58338 13.562 2.58398 11.9115V11.9114C2.58398 6.72456 6.82971 2.5 12.0418 2.5C14.5761 2.5 16.9474 3.48164 18.7334 5.25928C20.5188 7.03641 21.4999 9.40027 21.4999 11.9163C21.4999 17.103 17.2542 21.3275 12.0419 21.3275H12.037C10.4534 21.3275 8.89781 20.93 7.51625 20.1816Z" fill="#B9B8B6" stroke="#B9B8B6" stroke-linejoin="round"/>
<path d="M9.08267 7.0049C9.26563 7.0098 9.46847 7.0197 9.66146 7.44808C9.78943 7.73326 10.005 8.25826 10.1806 8.68592C10.3173 9.01871 10.4297 9.29256 10.4578 9.34861C10.5221 9.47661 10.5617 9.62431 10.4776 9.79661C10.4677 9.81693 10.4584 9.83635 10.4493 9.85505C10.3819 9.99505 10.3339 10.0948 10.2204 10.225C10.1738 10.2786 10.1252 10.3373 10.0768 10.3958C9.99166 10.4987 9.90707 10.6009 9.83457 10.6731C9.70596 10.801 9.57235 10.939 9.72074 11.195C9.86922 11.451 10.3886 12.2929 11.1554 12.9723C11.9797 13.7062 12.6965 14.0155 13.0589 14.1718C13.1292 14.2022 13.1862 14.2268 13.228 14.2476C13.4853 14.3756 13.6386 14.356 13.787 14.1837C13.9355 14.0113 14.4301 13.4352 14.6033 13.1792C14.7715 12.9232 14.9446 12.9625 15.1821 13.0511C15.4195 13.1398 16.6859 13.7601 16.9431 13.8881C16.9939 13.9134 17.0415 13.9363 17.0856 13.9575C17.2645 14.0433 17.3862 14.1016 17.4378 14.1886C17.5021 14.2969 17.5021 14.809 17.2894 15.4097C17.0718 16.0103 16.023 16.5864 15.5481 16.6307C15.5031 16.635 15.4584 16.6404 15.4123 16.6459C14.9771 16.6986 14.4247 16.7654 12.4563 15.9906C10.031 15.0369 8.42994 12.6705 8.10625 12.1921C8.0807 12.1543 8.0631 12.1282 8.0537 12.1156L8.04822 12.1084C7.90095 11.9113 7 10.7058 7 9.4619C7 8.27187 7.58623 7.65231 7.85361 7.36972C7.87056 7.35181 7.88622 7.33526 7.90038 7.31999C8.13779 7.064 8.41486 7 8.58797 7C8.76117 7 8.93428 7 9.08267 7.0049Z" fill="white"/>
</svg>
