<svg width="100" height="320" fill="none" xmlns="http://www.w3.org/2000/svg"><path d="M96.468 2.657C42.36 34.201 6 92.854 6 160c0 67.366 36.6 126.183 91 157.652" stroke="#DF5643" stroke-width="2" stroke-dasharray="7 7"/><path d="M96 0l4 4-4 4-4-4 4-4zm0 312l4 4-4 4-4-4 4-4z" fill="#DF5643"/><circle cx="59" cy="31" r="11" fill="#F1F2ED" stroke="#DF5643" stroke-width="2"/><circle cx="59" cy="31" r="6" fill="#DF5643"/><circle cx="12" cy="112" r="11" fill="#F1F2ED" stroke="#DF5643" stroke-width="2"/><circle cx="12" cy="112" r="6" fill="#DF5643"/><circle cx="12" cy="206" r="11" fill="#F1F2ED" stroke="#DF5643" stroke-width="2"/><circle cx="12" cy="206" r="6" fill="#DF5643"/><circle cx="61" cy="288" r="11" fill="#F1F2ED" stroke="#DF5643" stroke-width="2"/><circle cx="61" cy="288" r="6" fill="#DF5643"/></svg>