<svg width="88" height="88" fill="none" xmlns="http://www.w3.org/2000/svg"><g clip-path="url(#clip0_157_6421)"><path fill-rule="evenodd" clip-rule="evenodd" d="M86.533 32.266v30.8A11.734 11.734 0 0174.8 74.8h-5.866a1.466 1.466 0 00-1.467 1.466v8.8a1.468 1.468 0 01-2.42 1.116l-16.234-11.03a1.428 1.428 0 00-.954-.352H22a11.734 11.734 0 01-11.734-11.734v-7.7a12.09 12.09 0 002.934.368h5.866a1.466 1.466 0 011.467 1.466V66a1.468 1.468 0 002.42 1.115l16.234-11.03c.265-.229.605-.351.954-.344h25.858A11.735 11.735 0 0077.733 44V20.9a11.744 11.744 0 018.8 11.366z" fill="#D4E4DB"/><path fill-rule="evenodd" clip-rule="evenodd" d="M13.2 55.734a12.07 12.07 0 01-2.934-.368v.368H13.2zm2.934 1.466V66a1.469 1.469 0 002.428 1.115l1.98-1.345V57.2a1.467 1.467 0 00-1.467-1.466h-4.409a1.468 1.468 0 011.468 1.466zm46.931 19.066v8.57l1.98 1.346a1.47 1.47 0 002.42-1.116v-8.8a1.466 1.466 0 011.468-1.466h-4.4a1.466 1.466 0 00-1.468 1.466zM77.733 20.9v2.212a11.708 11.708 0 014.4 9.154v30.8A11.734 11.734 0 0170.4 74.8h4.4a11.734 11.734 0 0011.734-11.734v-30.8a11.744 11.744 0 00-8.8-11.366z" fill="#B8D3C3"/><path fill-rule="evenodd" clip-rule="evenodd" d="M77.734 13.2V44A11.735 11.735 0 0166 55.734H40.143c-.35-.007-.69.115-.954.344l-16.235 11.03A1.468 1.468 0 0120.534 66v-8.8a1.465 1.465 0 00-1.468-1.466H13.2a12.07 12.07 0 01-2.934-.368A11.743 11.743 0 011.466 44V13.2A11.736 11.736 0 0113.2 1.466H66A11.735 11.735 0 0177.734 13.2z" fill="#EDEFEE"/><path fill-rule="evenodd" clip-rule="evenodd" d="M34.788 56.084L20.533 65.77V66a1.468 1.468 0 002.42 1.115l16.234-11.03c.265-.229.604-.351.954-.344h-4.392a1.418 1.418 0 00-.954.343h-.007zM66 1.466h-4.4A11.735 11.735 0 0173.333 13.2V44A11.735 11.735 0 0161.6 55.734H66A11.735 11.735 0 0077.734 44V13.2A11.735 11.735 0 0066 1.466z" fill="#D5E7DC"/><path fill-rule="evenodd" clip-rule="evenodd" d="M10.266 55.366v7.7A11.734 11.734 0 0022 74.8h4.4a11.734 11.734 0 01-11.734-11.734v-7.7A11.743 11.743 0 015.866 44V13.2A11.736 11.736 0 0117.6 1.466h-4.4A11.736 11.736 0 001.466 13.2V44a11.743 11.743 0 008.8 11.366z" fill="#fff"/><path fill-rule="evenodd" clip-rule="evenodd" d="M0 13.202h2.934v11.734H0V13.202z" fill="#fff"/><path d="M79.2 19.816V13.2A13.214 13.214 0 0066 0H13.2A13.214 13.214 0 000 13.2a1.468 1.468 0 002.934 0A10.276 10.276 0 0113.2 2.934H66A10.276 10.276 0 0176.266 13.2V44A10.277 10.277 0 0166 54.266H40.143a2.912 2.912 0 00-1.843.65L22.13 65.902c-.045.03-.089.062-.13.098v-8.8a2.934 2.934 0 00-2.934-2.934H13.2A10.276 10.276 0 012.934 44V24.934a1.467 1.467 0 10-2.934 0V44a13.209 13.209 0 008.8 12.428v6.638a13.214 13.214 0 0013.2 13.2l25.838-.015c.047.04.096.08.148.115l16.178 10.991a2.91 2.91 0 001.824.643c.431 0 .857-.095 1.248-.277a2.901 2.901 0 001.698-2.657v-8.8H74.8a13.214 13.214 0 0013.2-13.2v-30.8a13.204 13.204 0 00-8.8-12.45zm5.866 43.25A10.279 10.279 0 0174.8 73.334h-5.866A2.933 2.933 0 0066 76.266v8.8a1.057 1.057 0 00-.124-.093L49.7 73.982a2.91 2.91 0 00-1.842-.648H22a10.278 10.278 0 01-10.266-10.268v-5.95c.487.054.976.083 1.466.084h5.866V66a2.898 2.898 0 001.698 2.656c.391.181.817.276 1.248.278a2.922 2.922 0 001.82-.643L40.012 57.3a.985.985 0 00.131-.1H66A13.214 13.214 0 0079.2 44V23.002a10.265 10.265 0 015.866 9.264v30.8z" fill="#2E4939"/><path fill-rule="evenodd" clip-rule="evenodd" d="M80.666 61.6a1.466 1.466 0 00-1.466 1.466 4.4 4.4 0 01-4.4 4.4 1.468 1.468 0 000 2.934 7.343 7.343 0 007.334-7.334 1.468 1.468 0 00-1.468-1.466z" fill="#2E4939"/><path d="M1.466 20.534a1.466 1.466 0 100-2.932 1.466 1.466 0 000 2.932z" fill="#2E4939"/><path fill-rule="evenodd" clip-rule="evenodd" d="M73.335 44a1.468 1.468 0 00-2.934 0 4.4 4.4 0 01-4.4 4.4 1.468 1.468 0 000 2.934A7.344 7.344 0 0073.335 44zM7.334 14.666A1.466 1.466 0 008.8 13.2a4.4 4.4 0 014.4-4.4 1.468 1.468 0 000-2.934A7.344 7.344 0 005.866 13.2a1.466 1.466 0 001.468 1.466z" fill="#2E4939"/></g><defs><clipPath id="clip0_157_6421"><path fill="#fff" d="M0 0h88v88H0z"/></clipPath></defs></svg>