<svg width="56" height="56" fill="none" xmlns="http://www.w3.org/2000/svg"><g clip-path="url(#clip0_157_6738)"><path d="M51.34 7.304a.933.933 0 01.927.934V28c0 15.468-9.37 21.154-23.626 26.946-.411.166-.87.166-1.282 0C13.102 49.15 3.733 43.464 3.733 28V8.235A.933.933 0 014.66 7.3a45.992 45.992 0 0022.873-6.23.874.874 0 01.934 0A45.992 45.992 0 0051.34 7.304z" fill="#D4E4DB"/><path d="M52.266 8.232V28c0 15.465-9.37 21.15-23.622 26.945a1.803 1.803 0 01-1.288 0c-.252-.102-.504-.214-.756-.317C40.422 48.944 49.466 43.185 49.466 28V7.233c.616.038 1.242.066 1.876.075a.933.933 0 01.924.924z" fill="#B8D3C3"/><path d="M28.28 51.053a.704.704 0 01-.56 0C15.198 45.501 7.467 41.38 7.467 28V11.779a.933.933 0 01.861-.925A50.516 50.516 0 0027.57 5.347a.907.907 0 01.86 0 50.531 50.531 0 0019.242 5.507.933.933 0 01.861.925V28c0 13.38-7.73 17.5-20.253 23.053z" fill="#EDEFEE"/><path d="M47.672 10.854A50.531 50.531 0 0128.43 5.347a.908.908 0 00-.86 0 39.28 39.28 0 01-.97.497 50.96 50.96 0 0018.27 5.006.934.934 0 01.862.928V28c0 12.973-7.273 17.242-19.133 22.554l1.12.498a.704.704 0 00.56 0C40.802 45.501 48.533 41.38 48.533 28V11.779a.933.933 0 00-.861-.925z" fill="#D4E4DB"/><path d="M28 42c8.247 0 14.933-6.686 14.933-14.933 0-8.248-6.686-14.934-14.933-14.934-8.248 0-14.934 6.686-14.934 14.934C13.066 35.314 19.752 42 28 42z" fill="#D4E4DB"/><path d="M28 12.133c-.473 0-.94.028-1.4.071a14.928 14.928 0 010 29.725c.46.043.927.071 1.4.071a14.934 14.934 0 000-29.867z" fill="#B8D3C3"/><path d="M38.267 26.133V28a1.872 1.872 0 01-1.867 1.867h-5.6v5.6a1.873 1.873 0 01-1.867 1.866h-1.866a1.872 1.872 0 01-1.867-1.866v-5.6h-5.6A1.872 1.872 0 0117.733 28v-1.867a1.872 1.872 0 011.867-1.866h5.6v-5.6a1.872 1.872 0 011.867-1.867h1.866a1.873 1.873 0 011.867 1.867v5.6h5.6a1.872 1.872 0 011.867 1.866z" fill="#EDEFEE"/><path d="M3.733 8.235V28c0 15.191 9.04 20.947 22.867 26.635 1.5.617 1.421.567 2.8 0C15.573 48.943 6.533 43.187 6.533 28V8.235a.933.933 0 01.927-.933h-2.8a.933.933 0 00-.927.933z" fill="#fff"/><path d="M2.8 20.53h1.866v7.466H2.8V20.53z" fill="#fff"/><path d="M3.751 25.2a.933.933 0 11-.009-1.867h.01a.933.933 0 110 1.867z" fill="#2E4939"/><path d="M27.008 55.808a2.65 2.65 0 001.984 0C42.237 50.426 53.2 44.62 53.2 28V8.235a1.879 1.879 0 00-1.844-1.867A44.81 44.81 0 0128.962.28a1.798 1.798 0 00-1.924 0A44.81 44.81 0 014.644 6.372 1.879 1.879 0 002.8 8.235v12.298a.934.934 0 001.866 0V8.291c0-.019.012-.034.012-.052 12.59-.23 21.056-4.942 23.293-6.38a46.737 46.737 0 0023.362 6.376V28c0 14.133-7.76 19.873-23.042 26.081a.785.785 0 01-.582 0C12.426 47.869 4.666 42.13 4.666 28A.933.933 0 102.8 28c0 16.62 10.963 22.426 24.208 27.808z" fill="#2E4939"/><path d="M27.34 51.91a1.63 1.63 0 001.319 0C41.606 46.165 49.467 41.69 49.467 28V11.78a1.856 1.856 0 00-1.716-1.857A49.784 49.784 0 0128.87 4.527a1.845 1.845 0 00-1.74 0A49.766 49.766 0 018.25 9.923a1.857 1.857 0 00-1.717 1.857V28c0 13.69 7.86 18.166 20.808 23.91zM8.408 11.782a51.485 51.485 0 0019.584-5.609A51.632 51.632 0 0047.6 11.78V28c0 12.778-7.446 16.762-19.6 22.158C15.846 44.764 8.4 40.78 8.4 28l.007-16.217z" fill="#2E4939"/><path d="M28 42.933a15.867 15.867 0 10-15.867-15.866A15.885 15.885 0 0028 42.933zm0-29.866a14 14 0 11-14 14 14.016 14.016 0 0114-14z" fill="#2E4939"/><path d="M24.267 30.8v4.667a2.8 2.8 0 002.8 2.8h1.866a2.8 2.8 0 002.8-2.8V30.8H36.4a2.8 2.8 0 002.8-2.8v-1.867a2.8 2.8 0 00-2.8-2.8h-4.667v-4.666a2.8 2.8 0 00-2.8-2.8h-1.866a2.8 2.8 0 00-2.8 2.8v4.666H19.6a2.8 2.8 0 00-2.8 2.8V28a2.8 2.8 0 002.8 2.8h4.666zm-5.6-2.8v-1.867a.933.933 0 01.933-.933h5.6a.934.934 0 00.933-.933v-5.6a.934.934 0 01.934-.934h1.866a.933.933 0 01.933.934v5.6a.934.934 0 00.934.933h5.6a.934.934 0 01.933.933V28a.933.933 0 01-.933.933h-5.6a.934.934 0 00-.934.934v5.6a.934.934 0 01-.933.933h-1.866a.933.933 0 01-.934-.933v-5.6a.934.934 0 00-.933-.934h-5.6a.934.934 0 01-.934-.933z" fill="#2E4939"/></g><defs><clipPath id="clip0_157_6738"><path fill="#fff" d="M0 0h56v56H0z"/></clipPath></defs></svg>