<svg width="56" height="56" fill="none" xmlns="http://www.w3.org/2000/svg"><g clip-path="url(#clip0_157_6787)"><path d="M55.067 44.795c0 5.674-12.114 10.265-27.064 10.265-.467 0-.933 0-1.39-.009h-.019C12.297 54.771.939 50.292.939 44.795c0-2.39 2.147-4.591 5.758-6.336a25.103 25.103 0 012.128-.915 22.57 22.57 0 002.483 3.014c.168.178.335.345.513.504a16.3 16.3 0 001.036.943c.018.019.028.037.046.046.318.271.635.532.97.775.077.065.158.124.243.177.337.262.682.504 1.036.737.051.035.104.066.16.094.28.196.559.364.848.532.234.149.476.28.72.41.326.187.662.355 1.007.513.27.14.56.262.84.393.43.186.868.354 1.306.513.243.084.476.168.719.242.336.113.672.215 1.017.308a.13.13 0 00.065.02 8.218 8.218 0 00.719.177.061.061 0 00.065.018c.233.066.47.12.71.159.088.028.178.046.27.056.252.046.504.093.766.13.716.12 1.44.2 2.165.243h.074c.112.01.234.019.336.019a20.525 20.525 0 002.128 0c.13 0 .27-.01.41-.019a20.677 20.677 0 002.166-.243c.261-.037.513-.084.765-.13.092-.01.182-.028.27-.056.24-.04.477-.093.71-.159a.06.06 0 00.065-.019 8.073 8.073 0 00.719-.177.13.13 0 00.065-.019c.345-.093.681-.195 1.017-.308.243-.074.476-.158.719-.242a22.21 22.21 0 001.307-.513c.28-.131.569-.252.84-.393a12.74 12.74 0 001.007-.513c.243-.13.485-.261.719-.41.289-.168.57-.336.849-.532.055-.028.108-.059.158-.094.355-.233.7-.475 1.036-.737.086-.053.167-.112.243-.177.336-.243.653-.504.97-.775.02-.01.029-.027.047-.046a16.3 16.3 0 001.036-.943c.177-.159.345-.326.514-.504.65-.658 1.255-1.36 1.81-2.1.233-.298.457-.606.672-.914 4.88 1.857 7.886 4.423 7.886 7.251z" fill="#B8D3C3"/><path d="M52.267 44.795c0 5.497-11.358 9.976-25.655 10.256h-.018C12.297 54.771.939 50.291.939 44.795c0-2.39 2.147-4.591 5.758-6.337.555.74 1.16 1.442 1.81 2.1.169.178.337.345.514.504.336.336.682.644 1.036.943.018.018.028.037.047.046.317.271.634.532.97.775.076.065.158.124.243.177.336.261.68.504 1.036.737a1.4 1.4 0 00.158.094c.28.196.56.364.85.532.233.149.476.28.718.41.327.187.663.355 1.008.513.27.14.56.262.84.393.43.186.868.354 1.307.513.242.084.476.168.718.242.336.113.672.215 1.017.308a.13.13 0 00.066.02c.007.006.017.01.027.008.225.066.458.122.691.168.017.02.042.026.066.02.233.065.47.118.709.158.088.027.179.046.27.056.252.046.504.093.766.13a20.452 20.452 0 002.575.262 20.541 20.541 0 002.128 0c.084 0 .168-.01.262-.019h.074c.112.01.234.019.336.019a20.525 20.525 0 002.128 0c.13 0 .27-.01.41-.019a20.703 20.703 0 002.166-.243c.261-.037.513-.084.765-.13.092-.01.182-.029.27-.056.24-.04.477-.093.71-.159.023.007.049 0 .065-.019.233-.046.467-.102.69-.168a.035.035 0 00.029-.009.13.13 0 00.065-.019c.345-.093.681-.195 1.017-.308.243-.074.476-.158.719-.242a22.14 22.14 0 001.307-.513c.28-.131.569-.253.84-.393a12.74 12.74 0 001.007-.513c.243-.13.485-.261.719-.41.289-.168.57-.336.849-.532.055-.028.108-.059.158-.094.355-.233.7-.476 1.036-.737.086-.053.167-.112.243-.177.336-.243.653-.504.97-.775.02-.01.029-.028.047-.046a16.3 16.3 0 001.036-.943c.177-.159.345-.326.514-.504.65-.658 1.255-1.36 1.81-2.1 3.612 1.746 5.758 3.948 5.758 6.337z" fill="#EDEFEE"/><path d="M50.364 30.918c-.075.243-.15.485-.233.728-.15.485-.327.961-.523 1.428-.093.233-.197.457-.299.69-.102.234-.205.458-.317.681a16.76 16.76 0 01-.55 1.074c-.122.224-.253.448-.383.672a17.6 17.6 0 01-.878 1.353 22.578 22.578 0 01-2.482 3.014c-.168.168-.336.336-.513.504h-2.8c.177-.168.345-.336.513-.504a22.574 22.574 0 002.483-3.014c.317-.439.606-.896.877-1.353.13-.224.261-.448.383-.672.196-.355.382-.71.55-1.074.112-.223.215-.447.318-.68.102-.234.205-.458.298-.691.196-.467.373-.943.523-1.428.084-.243.158-.485.233-.728.36-1.19.618-2.407.774-3.64l2.026 3.64z" fill="#D4E4DB"/><path d="M44.185 41.062c-.335.327-.681.644-1.035.943-.019.019-.028.037-.047.046-.318.271-.635.532-.97.775a1.968 1.968 0 01-.243.177c-.336.262-.682.504-1.036.737a1.412 1.412 0 01-.159.094c-.273.193-.556.37-.85.532-.232.15-.475.28-.718.41-.336.178-.672.355-1.007.514-.28.14-.551.261-.84.392-.43.186-.868.354-1.307.513a9.048 9.048 0 01-.719.242 17.93 17.93 0 01-1.017.309.132.132 0 01-.065.018l3.164-5.702h6.85zm-22.351 5.702a.132.132 0 01-.065-.019 17.943 17.943 0 01-1.018-.307 9.048 9.048 0 01-.718-.243 22.236 22.236 0 01-1.307-.513c-.289-.131-.56-.252-.84-.392a25.18 25.18 0 01-1.007-.514c-.243-.13-.486-.26-.719-.41a9.161 9.161 0 01-.849-.532 1.398 1.398 0 01-.159-.094c-.354-.233-.7-.475-1.036-.737a2.007 2.007 0 01-.243-.177 15.369 15.369 0 01-.97-.775c-.019-.009-.028-.027-.047-.046-.354-.299-.7-.616-1.036-.943h6.85l3.164 5.702z" fill="#B8D3C3"/><path d="M23.337 32.663l-4.667 8.399h-6.85a22.583 22.583 0 01-2.996-3.518 17.487 17.487 0 01-.876-1.353c-.131-.224-.262-.448-.383-.672-.196-.355-.383-.71-.55-1.073a15.365 15.365 0 01-.318-.682c-.103-.233-.205-.457-.299-.69a15.361 15.361 0 01-.522-1.428 19.817 19.817 0 01-.233-.728l3.695-6.654h9.332l4.667 8.4z" fill="#EDEFEE"/><path d="M9.339 24.264l-3.696 6.654a23.297 23.297 0 010-13.308l3.696 6.654z" fill="#B8D3C3"/><path d="M23.337 15.865l-4.667 8.4H9.338L5.643 17.61A23.158 23.158 0 0111.82 7.466h6.85l4.667 8.399z" fill="#EDEFEE"/><path d="M37.336 24.264l-4.667 8.4h-9.332l-4.666-8.4 4.666-8.399h9.332l4.667 8.4z" fill="#B8D3C3"/><path d="M50.364 17.61l-2.026 3.64a22.29 22.29 0 00-.774-3.64 23.154 23.154 0 00-6.178-10.144h2.8a23.16 23.16 0 016.178 10.144z" fill="#D4E4DB"/><path d="M44.185 7.466h-6.85l-2.463-4.442-.7-1.26a23.074 23.074 0 0110.013 5.702zM21.834 1.764L18.67 7.466h-6.85a23.074 23.074 0 0110.014-5.702z" fill="#B8D3C3"/><path d="M34.872 3.024a22.25 22.25 0 00-3.5-1.26A22.91 22.91 0 0026.604.98a23.1 23.1 0 011.4-.047 23.2 23.2 0 016.168.83l.7 1.26z" fill="#D4E4DB"/><path d="M51.334 24.264a23.048 23.048 0 01-.97 6.654l-2.026-3.64-1.67-3.014 1.67-3.014 2.026-3.64c.647 2.159.974 4.4.97 6.654z" fill="#B8D3C3"/><path d="M48.338 27.279a22.29 22.29 0 01-.775 3.64c-.075.242-.149.485-.233.727-.15.486-.327.961-.523 1.428-.093.233-.196.457-.298.69a15.32 15.32 0 01-.318.682 16.51 16.51 0 01-.55 1.073c-.121.224-.252.448-.383.672-.27.457-.56.914-.877 1.353a22.58 22.58 0 01-2.482 3.014 24.87 24.87 0 01-.514.504h-4.05l-4.666-8.399 4.666-8.399h9.332l1.67 3.015z" fill="#EDEFEE"/><path d="M41.385 41.062c-.336.327-.68.644-1.035.943-.02.019-.029.037-.047.046-.317.271-.635.532-.971.775a1.963 1.963 0 01-.242.177c-.337.262-.682.504-1.036.737a1.341 1.341 0 01-.16.094 8.95 8.95 0 01-.849.532c-.233.15-.475.28-.718.41-.336.178-.672.355-1.008.514-.15.074-.298.14-.448.205l2.464-4.433h4.05z" fill="#B8D3C3"/><path d="M37.336 41.062l-2.464 4.433v.01l-.7 1.26a.035.035 0 01-.028.008 9.262 9.262 0 01-.69.168c-.017.02-.043.026-.066.02a8.633 8.633 0 01-.71.158 1.394 1.394 0 01-.27.056c-.252.056-.513.093-.765.13a20.674 20.674 0 01-2.576.262 20.664 20.664 0 01-2.128 0 2.536 2.536 0 01-.261-.019h-.15a20.672 20.672 0 01-2.164-.243c-.252-.037-.514-.074-.766-.13a1.385 1.385 0 01-.27-.056 8.68 8.68 0 01-.71-.159.061.061 0 01-.065-.019 9.226 9.226 0 01-.69-.168.035.035 0 01-.029-.009l-3.163-5.702 4.666-8.399h9.332l4.667 8.399zM48.338 21.25l-1.67 3.014h-9.333l-4.666-8.399 4.666-8.4h4.05a23.155 23.155 0 016.178 10.145c.36 1.19.618 2.407.775 3.64z" fill="#EDEFEE"/><path d="M41.385 7.466h-4.05l-2.464-4.442a23.157 23.157 0 016.514 4.442z" fill="#B8D3C3"/><path d="M37.336 7.466l-4.667 8.399h-9.332l-4.666-8.4 3.163-5.701a22.917 22.917 0 014.77-.784 22.91 22.91 0 014.768.784c1.2.322 2.37.743 3.5 1.26l2.464 4.442z" fill="#EDEFEE"/><path d="M48.534 24.264a22.837 22.837 0 01-.196 3.014l-1.67-3.014 1.67-3.014c.132.999.197 2.006.196 3.014z" fill="#B8D3C3"/><path d="M26.594 55.051h.018c.458.01.924.01 1.39.01.433 0 .861-.005 1.289-.013-14.249-.3-25.552-4.77-25.552-10.253 0-2.39 2.147-4.591 5.758-6.337a25.007 25.007 0 012.128-.914 17.64 17.64 0 01-.877-1.353 23.811 23.811 0 01-1.25-2.427c-.103-.233-.206-.457-.3-.69a15.239 15.239 0 01-.522-1.428 21.796 21.796 0 01-.234-.728A23.314 23.314 0 0114.62 7.466 23.243 23.243 0 0129.404.98a23.927 23.927 0 00-1.4-.047c-.467 0-.942.019-1.4.047a23.238 23.238 0 00-14.782 6.486 23.307 23.307 0 00-6.178 23.452c.075.243.149.485.233.728.15.485.327.961.523 1.428.093.233.196.457.298.69.103.234.206.457.318.681.168.364.354.719.55 1.074.122.224.252.448.383.672.27.457.56.914.877 1.353a25.07 25.07 0 00-2.128.915C3.086 40.203.94 42.406.94 44.794c0 5.497 11.358 9.976 25.655 10.256zm2.883-7.503h-.075c.112.01.234.019.336.019a2.536 2.536 0 01-.26-.019zm19.817-9.094c-.086.11-.165.227-.253.336.087-.111.181-.218.266-.33l-.013-.006zm-11.618 7.038l-.005.003v.007l.005-.01z" fill="#fff"/><path d="M1.872 44.795c-.008 1.565 1.307 3.038 2.83 4.106a21.893 21.893 0 005.205 2.542 56.633 56.633 0 0018.096 2.684v1.867A58.425 58.425 0 019.286 53.2a23.75 23.75 0 01-5.658-2.778 10.584 10.584 0 01-2.409-2.268 5.672 5.672 0 01-1.213-3.36h1.866z" fill="#fff"/><path d="M3.067 48.794a.988.988 0 00.033-1.287 4.154 4.154 0 01-1.228-2.712c0-2.181 2.407-4.386 6.626-6.116a24.464 24.464 0 002.72 3.081 24.246 24.246 0 0010.346 5.894l.018.007.032.008a24.173 24.173 0 0012.778 0l.046-.014a24.251 24.251 0 0010.35-5.895 24.472 24.472 0 002.72-3.082c4.218 1.73 6.625 3.936 6.625 6.117 0 4.507-10.5 9.332-26.13 9.332A56.627 56.627 0 019.907 51.44l-.849-.312a.95.95 0 00-1.2.523.924.924 0 00.53 1.22l.9.33a58.429 58.429 0 0018.715 2.794C43.702 55.994 56 51.074 56 44.795c0-2.944-2.626-5.651-7.421-7.692a24.125 24.125 0 002.677-5.92v-.017a24.166 24.166 0 000-13.803v-.017a24.276 24.276 0 00-6.468-10.578A24.255 24.255 0 0034.442.875l-.03-.009a24.154 24.154 0 00-12.82 0l-.028.009A24.269 24.269 0 0011.13 6.85a24.275 24.275 0 00-6.382 10.495v.017a24.174 24.174 0 000 13.803v.016a24.126 24.126 0 002.678 5.92c-4.795 2.044-7.42 4.751-7.42 7.695a5.998 5.998 0 001.71 3.963.9.9 0 001.351.036zm3.584-17.769l3.237-5.828h8.233l2.333 4.2 1.815 3.266-1.814 3.267-2.333 4.199H12.21a22.433 22.433 0 01-5.56-9.104zm-1.046-6.76c.002-1.379.13-2.753.385-4.107l2.28 4.106-2.28 4.106a22.445 22.445 0 01-.385-4.106zm18.281-7.467h8.233l2.334 4.2 1.814 3.266-1.814 3.267-2.333 4.199h-8.234l-2.333-4.2-1.815-3.266 1.814-3.266 2.334-4.2zm13.999 25.198h3.778a22.388 22.388 0 01-5.512 3.125l1.734-3.126zm-1.618-.934l-2.719 4.903a22.462 22.462 0 01-11.09 0l-2.72-4.903.754-1.358 3.394-6.108h8.233l3.394 6.11.754 1.356zm-18.146.934l1.734 3.125a22.406 22.406 0 01-5.513-3.126h3.779zm25.675-1.867h-5.911l-2.333-4.2-1.815-3.266 1.814-3.266 2.333-4.2h8.233l3.237 5.828a22.42 22.42 0 01-5.558 9.104zM50.4 24.264a22.405 22.405 0 01-.384 4.106l-2.28-4.106 2.28-4.106c.254 1.354.383 2.728.384 4.106zm-1.045-6.761l-3.237 5.828h-8.233l-2.333-4.2-1.815-3.266 1.814-3.266 2.333-4.2h5.911a22.424 22.424 0 015.56 9.104zm-11.47-10.97L36.15 3.407a22.386 22.386 0 015.512 3.126h-3.778zm-4.337-3.971l2.72 4.904-.755 1.358-3.394 6.108h-8.233l-3.394-6.109-.754-1.357 2.72-4.903a22.461 22.461 0 0111.09 0v-.001zm-15.427 3.97h-3.779a22.404 22.404 0 015.513-3.125L18.12 6.533zM12.21 8.4h5.91l2.334 4.2 1.815 3.266-1.814 3.266-2.333 4.2H9.888L6.65 17.503a22.428 22.428 0 015.559-9.104z" fill="#2E4939"/><path d="M5.815 49.603a.966.966 0 00-.682-.093l-.165.059a.7.7 0 00-.16.093.608.608 0 00-.136.113 1.334 1.334 0 00-.119.144.946.946 0 00-.127.71c.032.122.09.236.17.335.238.31.64.45 1.018.352a.925.925 0 00.32-.178.888.888 0 00.231-.28c.11-.22.136-.473.074-.712a1 1 0 00-.424-.543z" fill="#2E4939"/></g><defs><clipPath id="clip0_157_6787"><path fill="#fff" d="M0 0h56v56H0z"/></clipPath></defs></svg>