<svg width="84" height="88" fill="none" xmlns="http://www.w3.org/2000/svg"><path fill-rule="evenodd" clip-rule="evenodd" d="M11.205 53.699v-8.17a1.38 1.38 0 01.627-1.154l8.995-5.844a1.367 1.367 0 011.895.408 1.38 1.38 0 01-.407 1.902l-8.37 5.438v7.42a1.368 1.368 0 11-2.74 0zm31 1.375a1.37 1.37 0 01-.97-.403 1.378 1.378 0 01-.4-.972l.034-6.837a1.368 1.368 0 112.74 0l-.034 6.837c0 .365-.145.714-.402.972a1.368 1.368 0 01-.968.403zm21.383-16.538l8.997 5.844a1.372 1.372 0 01.62 1.15v8.169c0 .365-.145.714-.402.972a1.368 1.368 0 01-2.339-.972v-7.42l-8.37-5.433a1.373 1.373 0 01-.616-1.406 1.378 1.378 0 011.067-1.102 1.364 1.364 0 011.036.198h.007zM42.205 27.06a6.312 6.312 0 01-3.515-1.07 6.344 6.344 0 01-2.33-2.85 6.37 6.37 0 011.37-6.919 6.305 6.305 0 016.895-1.376 6.331 6.331 0 012.84 2.339 6.365 6.365 0 011.066 3.527 6.37 6.37 0 01-1.856 4.486 6.326 6.326 0 01-4.47 1.863zm0-15.448a9.045 9.045 0 00-5.038 1.533 9.093 9.093 0 00-3.34 4.084 9.129 9.129 0 001.966 9.916 9.037 9.037 0 009.881 1.973 9.074 9.074 0 004.07-3.352 9.122 9.122 0 001.528-5.055 9.126 9.126 0 00-2.659-6.431 9.061 9.061 0 00-6.408-2.668zM53.85 34.43l2.031-2.038-2.648-3.67a1.378 1.378 0 01-.068-1.507 12.766 12.766 0 001.37-3.324 1.375 1.375 0 011.11-1.018l4.453-.715v-2.887l-4.453-.717a1.368 1.368 0 01-1.11-1.023 12.71 12.71 0 00-1.37-3.329 1.378 1.378 0 01.068-1.507l2.648-3.67-2.031-2.033-3.663 2.657a1.367 1.367 0 01-1.503.069 12.608 12.608 0 00-3.317-1.375 1.37 1.37 0 01-1.014-1.124L43.64 2.75h-2.872l-.713 4.469a1.377 1.377 0 01-1.014 1.113c-1.165.298-2.282.76-3.317 1.375a1.366 1.366 0 01-1.502-.068l-3.664-2.647-2.024 2.038 2.646 3.67a1.379 1.379 0 01.07 1.507 12.679 12.679 0 00-1.377 3.324 1.376 1.376 0 01-1.11 1.018l-4.453.716v2.883l4.453.715a1.369 1.369 0 011.11 1.028 12.71 12.71 0 001.37 3.329 1.379 1.379 0 01-.07 1.507l-2.646 3.67 2.031 2.033 3.659-2.657a1.368 1.368 0 011.502-.069 12.612 12.612 0 003.317 1.375 1.369 1.369 0 011.014 1.114l.713 4.469h2.872l.714-4.47a1.376 1.376 0 011.014-1.113 12.652 12.652 0 003.317-1.375 1.366 1.366 0 011.502.069l3.669 2.657zm2.113-6.612c.392-.762.72-1.555.98-2.372l4.751-.763a1.37 1.37 0 001.154-1.358v-5.228a1.378 1.378 0 00-1.154-1.358l-4.761-.755a15.445 15.445 0 00-.98-2.37l2.826-3.92a1.378 1.378 0 00-.133-1.78l-3.691-3.696a1.368 1.368 0 00-1.771-.141l-3.898 2.832c-.76-.393-1.55-.722-2.364-.984l-.76-4.767A1.376 1.376 0 0044.81 0H39.6a1.367 1.367 0 00-1.354 1.158l-.76 4.767a15.44 15.44 0 00-2.363.984l-3.899-2.832a1.367 1.367 0 00-1.77.14l-3.691 3.698a1.377 1.377 0 00-.14 1.779l2.829 3.912c-.392.764-.719 1.56-.977 2.378l-4.752.763a1.37 1.37 0 00-1.153 1.358v5.229a1.379 1.379 0 001.153 1.358l4.752.754c.26.817.588 1.61.98 2.372l-2.822 3.912a1.379 1.379 0 00.13 1.786l3.684 3.697a1.369 1.369 0 001.77.14l3.9-2.832a15.33 15.33 0 002.362.985l.76 4.768a1.377 1.377 0 001.354 1.157h5.21a1.368 1.368 0 001.353-1.157l.76-4.77c.814-.26 1.604-.59 2.362-.983l3.9 2.833a1.367 1.367 0 001.77-.141l3.699-3.697a1.377 1.377 0 00.14-1.778l-2.823-3.92zM21.91 85.087a.172.172 0 01-.163.163h-1.96v-6.14c0-.364-.145-.714-.402-.972a1.368 1.368 0 00-2.339.973v6.139h-8.94v-6.14c0-.364-.145-.714-.402-.972a1.368 1.368 0 00-2.339.973v6.139h-1.96a.171.171 0 01-.163-.163v-8.221c0-1.745 1.906-2.604 3.505-3.016a23.033 23.033 0 015.774-.734 24.33 24.33 0 015.893.737c1.305.325 3.496 1.148 3.496 3.013v8.22zm-9.334-24.438c1.572 0 3.446.635 3.446 3.655 0 2.698-1.578 4.984-3.446 4.984-1.869 0-3.448-2.28-3.448-4.984 0-3.02 1.875-3.654 3.448-3.654zm6.498 10.535a27.685 27.685 0 00-2.938-.566c1.588-1.4 2.626-3.707 2.626-6.314 0-3.89-2.428-6.404-6.186-6.404s-6.188 2.514-6.188 6.404c0 2.6 1.027 4.903 2.615 6.304-.989.136-1.969.329-2.935.578-3.537.912-5.565 2.983-5.565 5.68v8.22c.002.774.31 1.515.856 2.061A2.906 2.906 0 003.414 88h18.343a2.907 2.907 0 002.05-.856 2.93 2.93 0 00.853-2.057v-8.221c0-2.73-2.033-4.8-5.577-5.682h-.01zM81.17 85.087a.172.172 0 01-.172.163h-1.952v-6.14c0-.364-.145-.714-.401-.972a1.367 1.367 0 00-2.34.973v6.139h-8.94v-6.14c0-.364-.144-.714-.401-.972a1.368 1.368 0 00-2.34.973v6.139h-1.96a.172.172 0 01-.163-.163v-8.221c0-1.745 1.906-2.604 3.506-3.016a23.033 23.033 0 015.774-.734c1.987.004 3.966.251 5.893.737 1.305.325 3.496 1.148 3.496 3.013v8.22zm-9.335-24.438c1.573 0 3.446.635 3.446 3.655 0 2.698-1.577 4.984-3.446 4.984-1.868 0-3.446-2.28-3.446-4.984-.001-3.02 1.874-3.654 3.446-3.654zm6.498 10.535a27.685 27.685 0 00-2.937-.566c1.588-1.4 2.626-3.707 2.626-6.314 0-3.89-2.429-6.404-6.187-6.404-3.757 0-6.186 2.514-6.186 6.404 0 2.6 1.028 4.903 2.614 6.304-.99.136-1.97.329-2.936.578-3.537.912-5.564 2.983-5.564 5.68v8.22c.002.772.308 1.512.852 2.058a2.91 2.91 0 002.049.856h18.341c.77 0 1.51-.307 2.056-.853a2.927 2.927 0 00.856-2.06v-8.221c0-2.73-2.033-4.8-5.577-5.682h-.007zM51.54 85.087a.173.173 0 01-.163.163h-1.96v-6.14c0-.364-.145-.714-.402-.972a1.368 1.368 0 00-2.34.973v6.139h-8.94v-6.14a1.367 1.367 0 10-2.74 0v6.14h-1.96a.172.172 0 01-.164-.163v-8.221c0-1.745 1.907-2.604 3.508-3.016a23.01 23.01 0 015.772-.734c1.987.004 3.966.252 5.893.737 1.305.325 3.496 1.148 3.496 3.013v8.22zm-9.334-24.438c1.572 0 3.446.635 3.446 3.655 0 2.698-1.578 4.984-3.446 4.984-1.869 0-3.448-2.28-3.448-4.984 0-3.02 1.875-3.654 3.448-3.654zm6.498 10.535a27.685 27.685 0 00-2.938-.566c1.588-1.4 2.626-3.707 2.626-6.314 0-3.89-2.429-6.404-6.186-6.404-3.758 0-6.188 2.514-6.188 6.404 0 2.6 1.027 4.903 2.615 6.304-.989.136-1.969.329-2.936.578-3.536.912-5.564 2.983-5.564 5.68v8.22c.002.772.308 1.512.852 2.058a2.91 2.91 0 002.05.856h18.342a2.907 2.907 0 002.05-.856 2.93 2.93 0 00.853-2.057v-8.221c0-2.73-2.033-4.8-5.576-5.682z" fill="#2E4939"/></svg>