<svg width="92" height="81" fill="none" xmlns="http://www.w3.org/2000/svg"><g opacity=".8" clip-path="url(#clip0_157_7735)" fill="#F1F2ED"><path d="M77.573 52.907c.063-.398-.181-.642-.611-.945v1.581c.286-.096.562-.319.611-.636zm.116-2.417c-.022-.33-.368-.603-.727-.846v2.038c.562-.17.758-.72.727-1.192zm-.727-2.95v1.535c.575-.292.68-.803.41-1.227a.943.943 0 00-.41-.308zm-62.334.307c-.268.424-.165.94.41 1.227v-1.535a.944.944 0 00-.41.308zm7.61-33.082c-.291.08-.64.243-.744.555 1.44-.562 2.766-1.4 3.908-2.47-.173-.128-.348-.209-.517-.182-.439.07-.9.394-.882 1.017a.078.078 0 01-.009.047.074.074 0 01-.035.032.07.07 0 01-.047.004.073.073 0 01-.039-.027c-.405-.404-.682-.635-1.044-.485-.363.15-.487.663-.408.997.055.235.03.453-.183.512zm46.934-1.506c-.363-.153-.64.078-1.045.485a.073.073 0 01-.039.027.07.07 0 01-.047-.004.074.074 0 01-.035-.032.078.078 0 01-.009-.047c.019-.623-.443-.947-.881-1.018-.168-.026-.342.054-.513.181a12.22 12.22 0 003.902 2.469c-.104-.31-.452-.472-.742-.552-.213-.06-.238-.277-.188-.509.084-.337-.04-.849-.403-1zM15.039 51.681v-2.038c-.36.243-.706.517-.727.846-.031.472.165 1.023.727 1.192z"/><path d="M62.995 1.537c-.203.02-.396.096-.562.218.08.152.12.324.12.497v.893a1.246 1.246 0 00.632.169.08.08 0 01.053.014.088.088 0 010 .144c-.238.175-.461.37-.669.582.016.342.046.679.088 1.015.26.158.562.224.861.188h.019c.132-.015.22.104.16.215-.187.345-.49.918-.339 1.19.179.324.632.443 1.104.323.06-.014.103.038.074.088-.21.36-.197.737.053.892.163.097.39.084.613-.022a.317.317 0 01.416.097c.087.158.22.283.38.356a16.35 16.35 0 001.075 1.89 32.291 32.291 0 00-3.564-1.957c.203.5.438.987.702 1.456l.161.084h-.114c.116.2.236.398.36.592.42.032.835.113 1.238.24.837.497 1.574.986 2.154 1.408a31.92 31.92 0 014.23 3.732c.511.114 1.029.194 1.55.24a32.413 32.413 0 00-1.009-1.095 16.18 16.18 0 01-.917-3.97.775.775 0 00.325-.462.325.325 0 01.149-.167.308.308 0 01.218-.027c.234.042.45 0 .582-.133.207-.212.133-.583-.154-.88-.039-.041-.008-.102.052-.102.486 0 .9-.228.998-.588.084-.298-.34-.787-.589-1.075a.152.152 0 01-.022-.16.149.149 0 01.052-.063.14.14 0 01.078-.024c.645-.097 1.088-.554.989-1.015-.07-.327-.75-.624-1.114-.792a.082.082 0 01-.042-.035.087.087 0 01.01-.104.082.082 0 01.046-.026c.154-.039.299-.107.428-.201.468-.34.573-.916.234-1.287a1.024 1.024 0 00-.406-.248.996.996 0 00-.47-.035.116.116 0 01-.1-.025.125.125 0 01-.045-.095 1.092 1.092 0 00-.243-.778.99.99 0 00-1.452-.097 1.054 1.054 0 00-.337.74v.005a.128.128 0 01-.058.088.118.118 0 01-.103.01 1.007 1.007 0 00-.928.158c-.382.323-.35.908.073 1.308.12.113.26.201.411.26a.083.083 0 01.044.033.088.088 0 01-.004.105.082.082 0 01-.046.029c-.39.115-1.104.314-1.218.631-.155.444.228.953.855 1.139h.018a.143.143 0 01.074.035.156.156 0 010 .227c-.291.251-.775.672-.73.982.055.37.436.65.918.714.06.009.083.074.038.109-.322.258-.44.614-.26.852.116.154.334.225.58.209a.32.32 0 01.22.054.34.34 0 01.133.19c.026.18.107.345.23.474.101 1.072.304 2.131.606 3.162a32.823 32.823 0 00-3.341-2.823l-.115-.081a15.827 15.827 0 01-1.907-2.973.797.797 0 00.141-.553.334.334 0 01.08-.21.313.313 0 01.194-.107c.234-.048.421-.168.497-.342.12-.274-.078-.593-.449-.763a.06.06 0 01-.027-.025.063.063 0 01.008-.071.059.059 0 01.031-.02c.454-.182.759-.547.727-.92-.026-.309-.59-.607-.923-.783a.147.147 0 01-.058-.059.154.154 0 01.008-.16.145.145 0 01.064-.052c.562-.335.822-.924.57-1.317-.18-.278-.917-.302-1.312-.323a.08.08 0 01-.052-.015.085.085 0 01-.031-.046.088.088 0 01.003-.056.084.084 0 01.036-.041c.13-.094.24-.212.329-.348.317-.492.215-1.067-.23-1.287a.998.998 0 00-.916.063.119.119 0 01-.177-.058A1.07 1.07 0 0064.87.37a1.027 1.027 0 00-.31-.268.992.992 0 00-1.144.124 1.049 1.049 0 00-.25.33 1.086 1.086 0 00-.052.82v.005a.13.13 0 01-.022.108.119.119 0 01-.096.049zM15.038 53.544v-1.582c-.43.303-.674.547-.611.945.05.317.326.54.611.637z"/><path d="M5.88 52.78c.114-.142.304-.12.353.044.148.501.398 1.351.79 1.461.468.132 1.015-.205 1.357-.787a.082.082 0 01.03-.039.078.078 0 01.094.006.083.083 0 01.026.043c.132.553.494.9.876.8.242-.064.441-.29.562-.606a.442.442 0 01.18-.24.416.416 0 01.288-.063c.256.064.591.084.831-.126a21.05 21.05 0 013.176 3.105c.259.439.527.872.806 1.299a9.294 9.294 0 01-.213-1.995v-.229a33.158 33.158 0 01-2.81-6.422c-.22-1.81.094-3.697.656-5.442a1.52 1.52 0 00.65-.472.457.457 0 01.621-.057c.233.172.523.38.882.233v-8.741h-.052c-.529.055-.789.524-.562 1.06.07.16.169.306.292.427.07.071.011.161-.094.14-.468-.097-1.17-.206-1.476.015-.443.319-.507.916.087 1.445l.018.015c.028.02.05.048.062.08a.173.173 0 01-.048.19.16.16 0 01-.093.038c-.5.097-1.096.194-1.266.563-.21.453-.215 1.086.34 1.455a.084.084 0 01.034.039.088.088 0 01.005.052.084.084 0 01-.025.045.08.08 0 01-.046.022c-.603.127-.976.243-1.069.679-.092.436.282.866.618 1 .236.092.41.25.329.485-.137.4-.22.964.226 1.223a15.356 15.356 0 00-.676 3.413 33.966 33.966 0 01-.98-8.108c0-.395.009-.789.023-1.184.489-1.67 1.441-3.208 2.558-4.537.268.013.535-.048.774-.176a.453.453 0 01.333-.02.47.47 0 01.262.214c.105.176.23.377.425.485v-5.69c-.328-.05-.635-.048-.822.125-.363.335-.601.918-.225 1.477a.086.086 0 01.003.1.082.082 0 01-.04.033.079.079 0 01-.051 0c-.604-.122-.991-.163-1.237.2-.247.363-.066.91.198 1.165.188.179.286.394.124.582-.274.316-.562.803-.245 1.22a14.818 14.818 0 00-1.947 3.008 33.861 33.861 0 012.03-8.913 12.22 12.22 0 012.212-2.426v-.735c-.52.418-1.014.872-1.475 1.359a31.825 31.825 0 011.475-2.92V20.31a35.2 35.2 0 00-.538.873c.136-.794.223-1.597.26-2.404a.881.881 0 00.282-.519v-1.08c0-.28.107-.548.298-.746.191-.198.45-.31.72-.31h.488a.86.86 0 00.305-.555c.037-.366-.556-.831-.913-1.11-.116-.09-.076-.261.072-.312l.022-.006c.727-.256 1.147-.874.936-1.389-.148-.367-.996-.557-1.462-.67a.092.092 0 01-.068-.022.1.1 0 01-.012-.137.093.093 0 01.064-.035c.175-.078.334-.19.468-.33.474-.497.48-1.186.012-1.54-.297-.227-.713-.263-1.099-.132a.138.138 0 01-.121-.005.15.15 0 01-.073-.101v-.007a1.275 1.275 0 00-.143-.461 1.232 1.232 0 00-.302-.37 1.183 1.183 0 00-.88-.261 1.168 1.168 0 00-.446.148 1.208 1.208 0 00-.356.312 1.256 1.256 0 00-.252.913.151.151 0 01-.048.114.14.14 0 01-.115.036c-.395-.03-.78.102-1.015.388-.374.455-.222 1.126.348 1.498.157.102.331.173.513.21a.093.093 0 01.07.02c.02.016.033.039.036.065a.1.1 0 01-.018.072.093.093 0 01-.063.038c-.418.22-1.199.608-1.263.998-.094.547.456 1.054 1.217 1.133.153.015.23.169.14.284-.28.354-.748.953-.631 1.3.137.416.635.658 1.206.629.07 0 .11.067.066.117-.32.368-.385.807-.13 1.042.161.15.418.187.691.123a.362.362 0 01.257.02.38.38 0 01.184.185c.077.212.214.46.456.548a19.17 19.17 0 01-.656 4.018c-.034.065-.07.13-.103.195-.369.722-.71 1.46-1.024 2.211a1.218 1.218 0 00-.554-.526c-.068-.034-.054-.127.023-.154.622-.221 1.056-.698 1.03-1.204-.019-.424-.772-.848-1.224-1.101-.148-.082-.13-.284.03-.368l.023-.011c.785-.42 1.161-1.203.843-1.747-.23-.388-1.228-.456-1.78-.502a.11.11 0 01-.069-.024.12.12 0 01-.033-.14.113.113 0 01.05-.054c.187-.12.35-.277.48-.46.457-.649.348-1.435-.242-1.756-.375-.205-.855-.17-1.273.047a.16.16 0 01-.2-.024.172.172 0 01-.04-.063v-.008a1.45 1.45 0 00-.239-.5 1.394 1.394 0 00-.404-.366 1.345 1.345 0 00-1.046-.14 1.36 1.36 0 00-.482.246 1.416 1.416 0 00-.354.42 1.464 1.464 0 00-.136 1.084.177.177 0 01-.036.139.16.16 0 01-.126.06c-.453.038-.87.257-1.089.62-.355.582-.067 1.322.643 1.644.196.088.406.138.62.148a.106.106 0 01.068.021c.02.015.035.037.042.061a.12.12 0 01-.003.075.114.114 0 01-.047.057c-.439.324-1.263.907-1.272 1.359-.012.638.694 1.119 1.576 1.072.177-.01.29.15.207.298-.256.453-.691 1.218-.504 1.591.226.45.833.636 1.478.502.08-.016.137.056.094.122-.304.475-.306.986.024 1.21.209.141.508.136.808.015.208-.084.44-.021.535.155.128.24.34.509.656.549.106 1.175.118 2.356.037 3.533a35.08 35.08 0 00-.821 6.33c-.23-.77-.501-1.528-.811-2.267.149-.258.1-.583.022-.838a.475.475 0 01.037-.316.45.45 0 01.226-.216c.3-.15.513-.382.551-.645.06-.403-.307-.743-.851-.827-.075-.012-.094-.104-.025-.154.528-.408.8-1 .628-1.474-.143-.397-.985-.562-1.49-.66-.165-.032-.207-.23-.08-.36l.019-.019c.623-.648.75-1.513.28-1.931-.334-.299-1.303-.045-1.839.086a.108.108 0 01-.075.001.112.112 0 01-.059-.05.119.119 0 01.021-.145c.142-.173.25-.374.32-.59.243-.762-.094-1.476-.75-1.594-.418-.076-.865.108-1.198.448a.164.164 0 01-.128.06.16.16 0 01-.126-.067v-.006a1.405 1.405 0 00-.374-.4 1.351 1.351 0 00-1.032-.228 1.35 1.35 0 00-.5.206 1.4 1.4 0 00-.385.388 1.455 1.455 0 00-.22 1.069c.033.184.1.36.199.517a.175.175 0 01-.033.204.163.163 0 01-.06.038c-.421.18-.75.52-.855.936-.164.67.328 1.279 1.099 1.358.212.022.427.003.633-.056a.108.108 0 01.072-.002.112.112 0 01.059.045.119.119 0 01-.01.142c-.323.448-.936 1.262-.809 1.7.177.61.99.845 1.816.52.166-.065.322.052.281.218-.11.512-.297 1.38-.009 1.675.347.356.98.342 1.555.009.07-.041.147.01.126.086-.149.55 0 1.037.38 1.144.241.07.524-.03.774-.241.173-.147.413-.16.556-.022.192.187.473.376.783.315.558 1.35.98 2.756 1.261 4.195.06 2.31.35 4.606.864 6.855a22.129 22.129 0 00-1.467-2.223c.083-.291-.042-.593-.178-.817-.109-.178-.05-.428.126-.582.255-.222.405-.502.375-.767-.038-.406-.477-.64-1.024-.582-.075.008-.111-.079-.06-.144.413-.53.535-1.174.255-1.59-.234-.347-1.09-.29-1.601-.255-.168.012-.256-.169-.163-.328a.178.178 0 01.013-.022c.447-.79.363-1.66-.188-1.941-.395-.204-1.273.291-1.76.556a.108.108 0 01-.137-.015.12.12 0 01-.018-.141 1.89 1.89 0 00.167-.654c.052-.8-.443-1.407-1.108-1.352-.423.035-.811.328-1.053.742a.169.169 0 01-.11.09.158.158 0 01-.136-.03l-.007-.006a1.336 1.336 0 00-.99-.377c-.365.015-.71.18-.957.458a1.458 1.458 0 00-.364 1.026c.015.378.174.735.443.992a.17.17 0 01.04.137.174.174 0 01-.074.12c-.364.283-.604.699-.603 1.128 0 .69.623 1.154 1.39 1.034.21-.033.414-.106.6-.216a.108.108 0 01.137.008.118.118 0 01.024.14c-.205.517-.602 1.465-.375 1.854.318.547 1.162.564 1.885.037.145-.106.323-.033.329.138.016.525.042 1.413.392 1.625.422.255 1.03.078 1.509-.388.059-.058.144-.027.142.05-.012.57.25 1.004.643 1.01.25.005.5-.163.692-.432.133-.188.362-.261.533-.164.23.13.549.241.833.104a21.562 21.562 0 012.623 4.65 34.303 34.303 0 001.979 4.852 21.544 21.544 0 00-1.824-1.594c.008-.3-.187-.561-.374-.74-.15-.141-.158-.4-.025-.597.187-.284.263-.594.172-.843-.14-.381-.622-.485-1.135-.283-.07.028-.128-.046-.094-.122.265-.625.22-1.278-.155-1.604-.314-.271-1.124.015-1.611.189-.159.057-.29-.097-.241-.272l.007-.025c.233-.883-.068-1.7-.673-1.826-.433-.09-1.155.628-1.559 1.015a.107.107 0 01-.135.022.113.113 0 01-.047-.056.119.119 0 01-.005-.074 1.867 1.867 0 000-.68c-.152-.787-.783-1.236-1.411-1.003-.4.147-.7.537-.827 1.002a.175.175 0 01-.084.117.162.162 0 01-.14.008l-.008-.005a1.344 1.344 0 00-1.54.156 1.42 1.42 0 00-.342.439 1.467 1.467 0 00.18 1.593c.12.144.265.261.43.346a.167.167 0 01.074.12.176.176 0 01-.042.138c-.28.37-.406.836-.298 1.25.177.666.895.945 1.604.622a1.73 1.73 0 00.524-.373.11.11 0 01.062-.038.107.107 0 01.071.01c.022.01.04.029.051.052a.12.12 0 01.01.073c-.067.554-.211 1.578.105 1.893.475.448 1.289.235 1.854-.47zm5.433-26.083c0-.21.178-.389.407-.424.12-.015.238-.047.35-.097-.35.895-.662 1.804-.937 2.727a22.223 22.223 0 00-.093-1.412c.225-.202.277-.53.276-.794h-.003zm7.145-19.36a.14.14 0 01.077.024.149.149 0 01.053.064.155.155 0 01-.023.16c-.249.29-.672.775-.589 1.074.1.36.513.583.999.588.06 0 .093.06.051.102-.286.298-.36.668-.153.88.132.134.348.175.582.133a.307.307 0 01.218.027c.067.035.12.095.148.167a.776.776 0 00.325.463 16.18 16.18 0 01-.916 3.969c-.345.357-.681.722-1.01 1.095a11.76 11.76 0 001.549-.24 32.012 32.012 0 014.232-3.732 27.835 27.835 0 012.154-1.414 5.542 5.542 0 011.235-.237c.125-.195.244-.389.358-.59h-.118l.167-.087c.263-.469.497-.955.7-1.456a32.504 32.504 0 00-3.568 1.956c.399-.604.758-1.235 1.074-1.89a.835.835 0 00.38-.356.318.318 0 01.416-.097c.223.106.45.123.614.022.249-.155.263-.532.052-.892-.029-.05.015-.097.074-.088.468.12.925 0 1.105-.323.15-.271-.155-.845-.34-1.19-.06-.111.028-.23.16-.215h.02c.298.036.6-.03.86-.188.042-.335.072-.673.088-1.015a5.59 5.59 0 00-.668-.583.085.085 0 01-.034-.043.088.088 0 010-.056.085.085 0 01.033-.044.08.08 0 01.053-.014 1.245 1.245 0 00.632-.169V2.25c0-.173.041-.344.12-.497a1.143 1.143 0 00-.561-.218.118.118 0 01-.093-.048.13.13 0 01-.023-.104v-.006a1.092 1.092 0 00-.053-.82 1.05 1.05 0 00-.25-.329 1.009 1.009 0 00-.756-.246.993.993 0 00-.387.122c-.12.067-.226.158-.31.268a1.07 1.07 0 00-.186.372.125.125 0 01-.076.072.117.117 0 01-.101-.014 1.005 1.005 0 00-.916-.064c-.445.219-.547.796-.23 1.288.089.136.2.254.33.348a.086.086 0 01.008.143.08.08 0 01-.053.015c-.398.021-1.134.045-1.311.323-.253.393 0 .982.57 1.317a.153.153 0 01.014.27c-.334.177-.898.475-.924.784-.032.373.273.738.727.92.012.004.023.01.031.02a.063.063 0 01.008.071.06.06 0 01-.027.025c-.375.17-.569.486-.449.763.076.174.264.291.498.342.074.01.143.048.193.106.05.058.078.133.08.211a.797.797 0 00.142.553 15.828 15.828 0 01-1.908 2.973l-.114.081a32.749 32.749 0 00-3.341 2.823c.301-1.03.504-2.09.605-3.162a.867.867 0 00.23-.474.339.339 0 01.134-.19.32.32 0 01.22-.055c.245.017.464-.054.58-.208.179-.238.06-.594-.26-.852-.046-.035-.022-.097.037-.109.482-.065.863-.344.919-.714.045-.31-.44-.73-.732-.982a.157.157 0 01-.044-.156.151.151 0 01.045-.071.143.143 0 01.074-.035h.018c.628-.186 1.01-.695.855-1.139-.11-.317-.824-.516-1.217-.631a.082.082 0 01-.047-.029.087.087 0 01.04-.137c.152-.06.291-.148.411-.261.423-.4.455-.985.073-1.308a1.022 1.022 0 00-.928-.159.117.117 0 01-.103-.009.128.128 0 01-.059-.088v-.006a1.085 1.085 0 00-.335-.74 1.012 1.012 0 00-.746-.269.99.99 0 00-.39.109c-.12.063-.229.15-.317.256a1.066 1.066 0 00-.243.78.128.128 0 01-.045.094.12.12 0 01-.1.025.996.996 0 00-.47.035 1.02 1.02 0 00-.405.248c-.34.37-.235.946.234 1.287.129.094.273.162.427.2a.081.081 0 01.047.027.087.087 0 01.009.104.082.082 0 01-.042.035c-.364.168-1.044.465-1.114.792-.095.462.348.916.997 1.016zm38.587 71.009a39.6 39.6 0 00-5.689-3.178c-.303.225-.594.455-.87.69a39.063 39.063 0 016.03 3.324c.078.054.17.082.264.083a.473.473 0 00.289-.1.518.518 0 00.165-.573.499.499 0 00-.189-.246zM77.163 67.58h-.009a.161.161 0 01-.115-.083.178.178 0 01-.012-.145c.127-.466.068-.96-.197-1.303-.417-.54-1.182-.5-1.71.087a1.831 1.831 0 00-.345.574.115.115 0 01-.042.061.108.108 0 01-.138-.006.117.117 0 01-.036-.066c-.147-.55-.399-1.553-.813-1.712-.578-.222-1.248.31-1.499 1.188 0 .008 0 .017-.007.025-.049.179-.236.235-.342.097-.326-.412-.872-1.096-1.276-1.036a.736.736 0 00-.11.026c-.128.082-.258.164-.389.245-.25.278-.406.632-.446 1.009-.01.083-.093.115-.142.052a1.278 1.278 0 00-.49-.42c-.285.162-.575.322-.868.48a1.347 1.347 0 00-.032.375.471.471 0 01-.073.31.444.444 0 01-.251.185c-.251.05-.552.164-.697.424-.4.038-.798.087-1.195.15a33.21 33.21 0 002.132-1.382c-2.06 1.102-4.301 2.104-6.52 3.096l-.015.005c-1.504.672-3.021 1.35-4.476 2.053-.02.043-.04.087-.057.134a.083.083 0 01-.026.043.079.079 0 01-.125-.028c-.005-.013-.012-.026-.018-.038-.968.471-1.905.956-2.79 1.455.075.25.281.434.468.554.166.107.217.35.125.562-.131.306-.15.614-.023.838.2.351.692.373 1.165.082.064-.04.133.022.112.104-.16.662-.01 1.299.413 1.553.351.211 1.11-.202 1.559-.446.146-.078.295.046.28.228v.005c-.086.91.343 1.664.959 1.682.438.013 1.04-.812 1.374-1.252a.11.11 0 01.057-.047.107.107 0 01.13.047.119.119 0 01.016.074c0 .221.038.44.113.647.281.75.973 1.084 1.553.746.362-.211.592-.631.65-1.099a.175.175 0 01.065-.127.16.16 0 01.135-.031 1.333 1.333 0 001.068-.07c.165-.085.311-.203.43-.347.12-.145.211-.313.268-.494a1.476 1.476 0 00-.094-1.105 1.417 1.417 0 00-.346-.438 1.363 1.363 0 00-.483-.263h-.008a.165.165 0 01-.093-.11.177.177 0 01.021-.143c.23-.421.281-.916.106-1.314-.281-.627-1.03-.776-1.681-.334a1.76 1.76 0 00-.468.473.113.113 0 01-.056.05.108.108 0 01-.073.003.112.112 0 01-.06-.044.118.118 0 01-.02-.073c-.017-.57-.033-1.606-.398-1.861-.51-.359-1.284-.006-1.726.786l-.013.023c-.088.162-.28.17-.356.014-.141-.307-.345-.743-.58-1.03 1.415-.414 2.8-.928 4.148-1.537a4.735 4.735 0 012.58 1.058c-.545.178-.72.77-.717 1.476 0 .844.677 1.526 1.094 1.524.336 0 .837-.45 1.016-1.067.553.273 1.19.22 1.43-.023.313-.316.332-1.338-.265-1.97-.597-.633-1.268-.955-1.896-.319a.807.807 0 00-.093.11 5.452 5.452 0 00-2.236-1.215c.206-.097.411-.206.615-.311a20.065 20.065 0 012.773-.48c.093.31.393.475.643.56a.43.43 0 01.217.21.457.457 0 01.032.305c-.058.329-.005.634.169.819.273.291.758.194 1.15-.205.054-.055.134-.01.134.073 0 .68.287 1.262.756 1.408.388.12 1.03-.468 1.412-.814.124-.113.297-.027.322.154.124.907.713 1.533 1.312 1.4.429-.097.825-1.045 1.049-1.553a.114.114 0 01.044-.06.107.107 0 01.137.014c.018.018.03.042.033.067.05.216.137.42.258.602.44.66 1.192.814 1.68.343.302-.292.43-.757.38-1.226a.177.177 0 01.033-.14.166.166 0 01.125-.063c.364.027.724-.096 1-.344a1.461 1.461 0 00.141-2.014 1.362 1.362 0 00-.942-.49l.006.01zm14.234-28.661a.166.166 0 01-.075-.12.174.174 0 01.041-.138c.133-.127.24-.28.317-.45a1.473 1.473 0 00-.24-1.57 1.383 1.383 0 00-.436-.327 1.342 1.342 0 00-1.514.248l-.006.006a.16.16 0 01-.247-.059c-.241-.414-.63-.707-1.052-.742-.665-.055-1.16.55-1.108 1.351.015.227.072.45.167.655a.118.118 0 01-.018.141.108.108 0 01-.137.015c-.487-.265-1.366-.76-1.761-.556-.552.284-.636 1.155-.187 1.94l.013.023c.093.16 0 .34-.163.328-.513-.036-1.369-.092-1.603.255-.28.416-.158 1.059.255 1.59.052.065.015.151-.06.144-.547-.06-.985.175-1.024.582-.025.265.125.544.375.767.177.155.235.405.126.582-.135.224-.26.529-.178.817a22.128 22.128 0 00-1.466 2.222 34.89 34.89 0 00.863-6.854c.281-1.44.704-2.845 1.261-4.195.31.06.591-.129.784-.315.142-.139.382-.125.555.021.25.212.533.311.774.242.38-.108.53-.595.38-1.144-.02-.076.055-.127.127-.087.575.333 1.207.348 1.554-.008.29-.291.102-1.165-.009-1.675-.035-.166.12-.284.281-.218.826.325 1.64.09 1.817-.52.126-.436-.487-1.253-.81-1.7a.118.118 0 01.049-.187.107.107 0 01.073.002c.206.058.42.077.633.056.77-.082 1.262-.691 1.098-1.359-.102-.416-.433-.756-.854-.935a.165.165 0 01-.1-.099.177.177 0 01.007-.143 1.457 1.457 0 00.19-1.075 1.456 1.456 0 00-.212-.511 1.403 1.403 0 00-.385-.388 1.352 1.352 0 00-1.037-.198 1.39 1.39 0 00-.869.62v.006a.166.166 0 01-.125.066.16.16 0 01-.129-.06c-.332-.339-.78-.523-1.198-.448-.655.119-.992.833-.749 1.595.07.216.178.416.32.59a.119.119 0 01.02.145.112.112 0 01-.058.05.107.107 0 01-.076 0c-.536-.132-1.505-.389-1.84-.087-.468.418-.338 1.283.282 1.931l.017.02c.128.13.086.326-.08.358-.504.098-1.346.264-1.49.66-.172.475.1 1.068.628 1.475.066.05.05.142-.024.154-.543.083-.912.424-.852.827.039.263.252.495.551.645a.45.45 0 01.227.216c.048.097.06.21.036.316-.078.252-.126.582.023.837-.31.74-.58 1.497-.81 2.267a35.191 35.191 0 00-.823-6.33 22.256 22.256 0 01.038-3.532c.313-.04.524-.31.655-.549.094-.176.327-.24.535-.155.3.121.6.126.808-.016.33-.223.328-.734.025-1.209-.042-.066.015-.139.094-.122.645.134 1.252-.053 1.478-.502.187-.373-.249-1.138-.504-1.591-.084-.148.03-.308.207-.298.882.046 1.592-.434 1.576-1.073-.008-.454-.834-1.037-1.273-1.358a.115.115 0 01-.047-.057.12.12 0 01-.003-.075.116.116 0 01.042-.06.109.109 0 01.069-.023c.213-.01.423-.06.619-.147.71-.323.999-1.058.644-1.644-.22-.363-.636-.582-1.09-.62a.164.164 0 01-.158-.126.175.175 0 01-.003-.073 1.473 1.473 0 00-.136-1.084 1.386 1.386 0 00-.835-.667 1.332 1.332 0 00-1.046.14 1.422 1.422 0 00-.644.875.171.171 0 01-.1.102.16.16 0 01-.14-.016c-.416-.217-.897-.25-1.272-.046-.59.321-.7 1.107-.242 1.755.13.184.292.34.479.46a.12.12 0 01.018.194.11.11 0 01-.07.025c-.548.045-1.546.111-1.78.502-.32.546.057 1.328.843 1.746l.023.012c.16.083.178.285.03.368-.452.253-1.205.68-1.223 1.1-.024.507.41.983 1.03 1.205.077.027.094.12.022.154-.234.11-.428.294-.553.526a34.048 34.048 0 00-1.025-2.212c-.032-.066-.07-.13-.103-.194-.36-1.31-.58-2.658-.655-4.018.241-.089.374-.336.456-.548a.381.381 0 01.184-.186.363.363 0 01.256-.02c.273.064.53.028.692-.122.255-.236.187-.674-.131-1.042-.044-.05 0-.12.067-.118.57.03 1.068-.212 1.206-.629.114-.346-.355-.945-.631-1.299-.094-.115-.014-.269.14-.284.762-.079 1.31-.582 1.217-1.134-.065-.388-.843-.776-1.264-.997a.094.094 0 01-.062-.038.1.1 0 01.017-.137.092.092 0 01.07-.02c.182-.037.356-.108.514-.21.57-.373.725-1.043.347-1.498-.235-.283-.62-.415-1.014-.389a.137.137 0 01-.115-.035.148.148 0 01-.048-.114 1.284 1.284 0 00-.252-.913 1.208 1.208 0 00-.357-.313 1.168 1.168 0 00-1.326.114 1.232 1.232 0 00-.302.37 1.277 1.277 0 00-.142.46v.007a.15.15 0 01-.073.101.138.138 0 01-.122.006c-.386-.131-.802-.097-1.099.131-.468.355-.461 1.044.013 1.54.134.14.293.253.468.331a.092.092 0 01.064.035.1.1 0 01-.012.137.093.093 0 01-.069.022c-.468.113-1.311.303-1.462.67-.207.511.214 1.133.937 1.389l.021.006c.148.05.188.222.072.312-.356.278-.95.744-.913 1.11.029.22.14.42.308.558h.488c.27.001.528.113.718.31.19.199.297.467.297.746v1.077a.882.882 0 00.281.52c.039.805.126 1.608.26 2.403a31.046 31.046 0 00-.537-.873v1.885c.255.446.5.899.735 1.359.26.513.506 1.035.74 1.562a14.623 14.623 0 00-1.475-1.36v.735a12.22 12.22 0 012.213 2.427 33.865 33.865 0 012.03 8.912 14.804 14.804 0 00-1.948-3.008c.317-.416.03-.904-.245-1.219-.161-.186-.06-.402.124-.582.264-.258.445-.805.199-1.165-.247-.36-.633-.322-1.238-.2a.079.079 0 01-.05 0 .081.081 0 01-.04-.033.087.087 0 01.002-.1c.375-.56.138-1.142-.224-1.477-.188-.173-.495-.175-.823-.126v5.691c.196-.11.32-.31.425-.485a.472.472 0 01.262-.215.453.453 0 01.333.02c.24.129.507.19.776.177 1.115 1.329 2.068 2.866 2.557 4.537a33.966 33.966 0 01-.957 9.291 15.405 15.405 0 00-.677-3.413c.447-.258.364-.822.227-1.222-.08-.236.094-.395.329-.486.34-.134.71-.566.617-1-.093-.433-.468-.55-1.069-.679a.08.08 0 01-.046-.021.085.085 0 01-.025-.045.088.088 0 01.005-.052.083.083 0 01.034-.039c.556-.368.551-1 .34-1.456-.17-.366-.766-.464-1.266-.562a.16.16 0 01-.092-.038.169.169 0 01-.054-.087.174.174 0 01.005-.103.167.167 0 01.062-.08l.018-.016c.594-.529.53-1.125.087-1.445-.306-.22-1.006-.115-1.476-.014-.102.021-.16-.07-.094-.14a1.36 1.36 0 00.293-.428c.224-.536-.036-1.004-.562-1.06h-.053v8.727c.36.145.65-.061.883-.234a.457.457 0 01.62.057c.173.214.397.377.65.472.563 1.747.875 3.632.656 5.442a33.181 33.181 0 01-2.81 6.423v.228a9.29 9.29 0 01-.212 1.996c.278-.428.546-.861.805-1.3a21.055 21.055 0 013.176-3.105c.24.21.575.194.831.126a.42.42 0 01.288.063c.085.055.15.14.18.24.117.312.316.543.562.607.383.097.744-.248.876-.801a.082.082 0 01.026-.043.078.078 0 01.094-.006c.014.01.025.023.03.04.343.581.886.918 1.358.786.392-.11.642-.96.79-1.461.048-.163.238-.186.352-.044.562.705 1.383.917 1.829.477.317-.315.172-1.339.106-1.893a.12.12 0 01.009-.074.113.113 0 01.05-.052.107.107 0 01.072-.01.11.11 0 01.062.04c.15.156.329.282.524.372.71.323 1.428.044 1.604-.621.108-.415-.017-.88-.298-1.251a.17.17 0 01-.042-.137.173.173 0 01.075-.121c.164-.085.31-.202.43-.346a1.477 1.477 0 00.18-1.593 1.423 1.423 0 00-.343-.439 1.334 1.334 0 00-1.54-.156l-.008.005a.16.16 0 01-.193-.057.175.175 0 01-.03-.068c-.128-.465-.429-.855-.828-1.002-.628-.233-1.26.216-1.411 1.003a1.869 1.869 0 000 .68.118.118 0 01-.005.074.113.113 0 01-.048.056.107.107 0 01-.134-.022c-.404-.388-1.124-1.104-1.559-1.015-.605.126-.906.943-.673 1.826 0 .008 0 .016.007.025.049.178-.082.329-.24.272-.487-.174-1.298-.46-1.611-.189-.375.326-.421.979-.156 1.604.033.076-.024.15-.094.122-.513-.206-.995-.097-1.135.283-.094.249-.017.56.172.843.133.194.125.456-.025.597-.187.179-.386.44-.374.74a21.563 21.563 0 00-1.824 1.594 34.177 34.177 0 001.98-4.852 21.555 21.555 0 012.622-4.65c.28.137.603.027.833-.104a.413.413 0 01.296-.02c.098.03.182.095.237.184.187.269.442.438.692.433.394-.007.656-.44.643-1.01 0-.078.083-.11.142-.051.478.47 1.087.647 1.509.388.35-.212.375-1.1.392-1.625.006-.171.188-.244.33-.138.722.527 1.566.51 1.884-.037.226-.388-.17-1.337-.375-1.855a.117.117 0 01.024-.14.108.108 0 01.137-.007c.186.11.39.183.6.216.767.12 1.39-.343 1.39-1.034.031-.42-.209-.835-.573-1.118zM80.862 28.897a33.68 33.68 0 00-.936-2.726c.11.049.228.082.348.097.23.033.407.213.407.423 0 .265.051.592.27.79-.044.473-.073.945-.089 1.417v-.001z"/><path d="M85.198 57.307h-.008a.159.159 0 01-.135-.044.175.175 0 01-.052-.137c0-.485-.197-.94-.544-1.192-.547-.396-1.27-.134-1.616.582a1.834 1.834 0 00-.175.651.118.118 0 01-.024.072.109.109 0 01-.134.034.114.114 0 01-.053-.053c-.291-.485-.806-1.372-1.247-1.403-.614-.044-1.112.662-1.111 1.577v.026c0 .187-.163.292-.301.194-.425-.3-1.135-.796-1.506-.62-.445.212-.656.83-.557 1.505.012.083-.061.138-.123.092-.392-.3-.823-.354-1.078-.133a8.439 8.439 0 01-.21.582c.007.127.032.252.074.372.077.226 0 .473-.176.569-.227.12-.484.319-.553.61l-.188.081a11 11 0 01-.67.927c.318-.153.64-.298.966-.435.178.268.507.34.77.348.195.006.357.194.38.421.033.332.167.609.384.737.343.2.78-.036 1.048-.534.037-.069.126-.05.148.031.182.655.62 1.128 1.11 1.129.406 0 .862-.752 1.133-1.195.088-.145.28-.114.35.053.365.833 1.101 1.262 1.644.957.385-.216.505-1.243.581-1.797a.113.113 0 01.027-.07.107.107 0 01.135-.027c.022.012.04.031.05.055.106.192.245.362.411.502.602.505 1.366.432 1.705-.163.21-.37.207-.853.03-1.288a.174.174 0 01.093-.24 1.374 1.374 0 00.891-.616 1.457 1.457 0 00.197-1.09 1.457 1.457 0 00-.22-.52 1.403 1.403 0 00-.396-.388 1.35 1.35 0 00-1.057-.178l.007.016zM13.64 62.148c.268.497.706.733 1.049.533.217-.128.351-.404.384-.736.023-.231.187-.416.38-.421.263-.01.592-.08.77-.349.326.136.647.283.966.436a11.006 11.006 0 01-.671-.927l-.187-.08c-.07-.292-.327-.486-.554-.612-.18-.097-.253-.342-.176-.569.042-.12.067-.244.074-.371a9.272 9.272 0 01-.21-.587c-.255-.22-.685-.166-1.078.134-.062.046-.135-.01-.123-.093.094-.679-.112-1.292-.561-1.504-.375-.176-1.081.32-1.507.62-.137.097-.302-.01-.3-.194v-.026c0-.915-.498-1.622-1.112-1.577-.44.031-.955.919-1.247 1.403a.113.113 0 01-.052.053.107.107 0 01-.073.007.111.111 0 01-.062-.041.118.118 0 01-.023-.072 1.834 1.834 0 00-.175-.651c-.346-.72-1.07-.981-1.616-.583-.348.252-.54.709-.544 1.193a.175.175 0 01-.052.137.162.162 0 01-.136.044h-.008a1.332 1.332 0 00-1.057.177c-.156.101-.29.233-.396.39a1.455 1.455 0 00-.228 1.083c.034.188.104.366.205.525.101.159.232.295.385.401.153.106.325.179.506.215a.164.164 0 01.1.098.176.176 0 01-.007.142c-.177.435-.18.919.03 1.288.34.595 1.103.668 1.705.163a1.8 1.8 0 00.411-.502.113.113 0 01.05-.055.107.107 0 01.072-.011.11.11 0 01.063.038.12.12 0 01.027.07c.076.554.196 1.581.582 1.798.542.304 1.278-.125 1.643-.957.073-.167.262-.194.35-.054.271.444.727 1.196 1.134 1.195.489 0 .927-.474 1.109-1.129.035-.093.124-.111.16-.042zm22.064 14.988c.422-.256.573-.892.413-1.553-.02-.082.048-.144.113-.104.468.291.965.269 1.165-.082.126-.224.107-.532-.024-.838-.093-.212-.041-.455.125-.562.187-.12.393-.305.468-.554a47.812 47.812 0 00-2.79-1.456l-.018.04a.082.082 0 01-.033.036.078.078 0 01-.092-.01.084.084 0 01-.026-.043 2.149 2.149 0 00-.057-.132c-1.453-.704-2.97-1.381-4.475-2.053-2.223-.993-4.466-1.995-6.529-3.098.692.489 1.4.948 2.125 1.377a20.512 20.512 0 00-1.195-.15c-.145-.26-.446-.374-.697-.423a.445.445 0 01-.25-.186.472.472 0 01-.074-.31 1.39 1.39 0 00-.03-.374c-.295-.158-.585-.32-.87-.485a1.3 1.3 0 00-.49.421c-.046.062-.13.031-.142-.052a1.795 1.795 0 00-.443-1.007 24.762 24.762 0 01-.395-.249.813.813 0 00-.107-.024c-.404-.06-.95.624-1.275 1.036-.107.134-.294.078-.343-.097a.183.183 0 00-.007-.025c-.248-.873-.919-1.41-1.499-1.188-.413.16-.666 1.165-.813 1.712a.116.116 0 01-.036.065.11.11 0 01-.138.007.116.116 0 01-.042-.061 1.809 1.809 0 00-.346-.574c-.527-.588-1.292-.627-1.709-.087-.265.342-.324.837-.197 1.303a.177.177 0 01-.012.145.166.166 0 01-.115.082h-.008a1.34 1.34 0 00-.519.148c-.162.085-.306.2-.424.343a1.445 1.445 0 00-.332 1.037 1.466 1.466 0 00.473.977 1.345 1.345 0 001.002.344.16.16 0 01.125.063.172.172 0 01.033.14c-.051.468.078.933.38 1.225.487.472 1.24.318 1.68-.343.12-.182.208-.386.257-.601a.116.116 0 01.033-.068.108.108 0 01.137-.014.114.114 0 01.045.06c.224.509.62 1.456 1.049 1.553.602.133 1.191-.493 1.311-1.4.025-.18.199-.266.322-.153.38.346 1.024.934 1.413.814.468-.144.76-.726.756-1.408 0-.084.08-.129.133-.073.393.399.877.498 1.15.205.175-.186.227-.49.17-.82a.458.458 0 01.032-.305.433.433 0 01.216-.21c.25-.084.546-.25.644-.56.934.095 1.86.256 2.773.48.203.105.409.21.614.311a5.464 5.464 0 00-2.235 1.216 3.216 3.216 0 00-.094-.11c-.627-.636-1.298-.314-1.896.318-.597.632-.577 1.654-.265 1.97.24.244.877.297 1.43.023.18.617.68 1.068 1.017 1.068.417 0 1.091-.68 1.094-1.524 0-.706-.172-1.298-.718-1.476a4.735 4.735 0 012.586-1.067 31.657 31.657 0 004.149 1.538c-.236.286-.44.722-.581 1.03-.073.156-.268.147-.356-.015l-.013-.024c-.442-.791-1.218-1.144-1.725-.786-.366.256-.382 1.292-.4 1.862a.118.118 0 01-.02.073.111.111 0 01-.059.044.108.108 0 01-.073-.004.113.113 0 01-.055-.05 1.76 1.76 0 00-.469-.472c-.647-.442-1.405-.291-1.686.334-.178.398-.123.893.106 1.314a.174.174 0 01-.072.252h-.007a1.375 1.375 0 00-.829.702 1.467 1.467 0 00.173 1.598c.12.145.266.263.43.348a1.34 1.34 0 001.069.07.158.158 0 01.135.03.175.175 0 01.064.127c.058.469.289.889.65 1.1.58.338 1.277 0 1.553-.746.076-.207.114-.426.113-.647a.118.118 0 01.017-.074.112.112 0 01.057-.047.107.107 0 01.073 0 .111.111 0 01.057.047c.333.44.936 1.262 1.374 1.252.616-.019 1.045-.776.958-1.682v-.005c-.018-.182.13-.306.28-.228.453.247 1.212.662 1.563.449zm4.943-1.968a39.596 39.596 0 00-5.688 3.178.489.489 0 00-.222.318.516.516 0 00.203.528.473.473 0 00.549-.01 39.062 39.062 0 016.028-3.325 16.837 16.837 0 00-.87-.69zm-8.14-55.205h5.366v.808c-.707.12-1.06.546-1.06 1.278v4.013c1.052.015 1.834-.265 2.347-.84.512-.576.94-1.335 1.287-2.276.39-1.032.827-1.828 1.312-2.388.484-.56 1.245-.84 2.283-.84a4.85 4.85 0 011.405.2v3.611h-.778c-.146-.509-.463-.763-.953-.763a1.181 1.181 0 00-.876.388c-.323.349-.623.72-.898 1.11a9.8 9.8 0 01-1.136 1.402c-.368.366-.876.669-1.526.907v.158c1.197.134 2.139.444 2.824.93.686.486 1.147.99 1.385 1.513.28.657.5 1.339.655 2.038.125.607.284 1.206.477 1.794.145.441.39.84.714 1.164.316.313.742.493 1.276.538v.873a4.22 4.22 0 01-1.71.315c-1.024 0-1.836-.217-2.434-.65-.6-.434-1.006-.916-1.223-1.447a10.783 10.783 0 01-.54-1.805c-.26-1.45-.657-2.623-1.191-3.52-.535-.896-1.436-1.307-2.704-1.233v6.323c0 .732.353 1.158 1.06 1.278v.807h-5.362v-.807c.706-.105 1.06-.531 1.06-1.278V22.048c0-.747-.354-1.173-1.06-1.278v-.807zm15.835-.001h5.841c2.091-.073 3.545.27 4.36 1.032.816.762 1.223 1.659 1.223 2.691 0 .777-.173 1.424-.52 1.941a3.63 3.63 0 01-1.31 1.199 5.27 5.27 0 01-1.482.56v.225c1.197.12 2.181.546 2.954 1.278.772.731 1.158 1.658 1.156 2.78 0 1.136-.32 2.006-.962 2.612a4.331 4.331 0 01-2.131 1.143 11.36 11.36 0 01-2.228.236H48.34v-.808c.707-.105 1.06-.53 1.06-1.278V22.048c0-.747-.353-1.173-1.06-1.278l.002-.808zm4.308 1.19v5.739h1.169c.807 0 1.463-.255 1.967-.763.504-.509.756-1.204.757-2.085 0-1.928-1.053-2.892-3.159-2.892h-.734zm0 6.926v6.39h1.255c2.107 0 3.16-1.024 3.16-3.072 0-1.135-.361-1.972-1.082-2.51-.722-.538-1.565-.808-2.53-.808h-.803zM38.844 38.53a7.35 7.35 0 013.19.685 7.094 7.094 0 012.414 1.838 8.592 8.592 0 011.498 2.6c.354.964.533 1.986.53 3.016 0 1.553-.346 2.944-1.038 4.173a7.434 7.434 0 01-2.823 2.858 7.519 7.519 0 01-3.776 1.02 7.518 7.518 0 01-3.776-1.02 7.434 7.434 0 01-2.824-2.858c-.692-1.226-1.038-2.617-1.038-4.173a8.866 8.866 0 01.919-3.912 7.574 7.574 0 012.688-3.062c1.176-.776 2.521-1.165 4.036-1.165zm0 1.19c-.823 0-1.53.171-2.12.515-.591.343-1.06 1.027-1.405 2.051-.347 1.024-.52 2.484-.52 4.383 0 2.542.325 4.32.974 5.337.648 1.017 1.673 1.525 3.073 1.525.922 0 1.683-.209 2.282-.627.6-.418 1.043-1.132 1.33-2.142.289-1.008.433-2.372.434-4.091 0-1.897-.173-3.358-.52-4.383-.346-1.025-.815-1.709-1.405-2.051-.594-.349-1.301-.523-2.123-.523v.005zm22.458 11.427l.671.873c-2.048 1.793-4.039 2.69-5.972 2.69-2.123 0-3.915-.758-5.377-2.276-1.462-1.517-2.193-3.485-2.195-5.904 0-1.66.339-3.095 1.017-4.305.678-1.21 1.569-2.13 2.672-2.757a6.965 6.965 0 013.494-.942 8.254 8.254 0 012.705.426c.364.122.742.19 1.124.202.13 0 .296-.074.498-.225.063-.046.12-.099.173-.157h.78v3.7h-.78c-.288-.837-.833-1.506-1.634-2.006a4.682 4.682 0 00-2.52-.752c-1.602 0-2.658.654-3.17 1.962-.512 1.307-.768 3.015-.768 5.123-.014 1.041.095 2.08.325 3.094.21.886.683 1.682 1.352 2.275.687.62 1.678.93 2.975.93 1.498 0 3.041-.65 4.63-1.951zM46.59 56.678a1.917 1.917 0 00-.455 1.242c.018 1.048.14 2.093.152 3.14.023.97-.259 1.89-.602 2.782-.116.247-.239.486-.363.732l-.364-.078a.593.593 0 01-.386-.265.637.637 0 01-.09-.471.637.637 0 01.21-.362.598.598 0 01.382-.145l.132.015-.295-2.556a4.029 4.029 0 00-.463-1.561c-.258-.48-.611-.9-1.036-1.23a4.198 4.198 0 00-.456-.303v9.088h2.026a3.48 3.48 0 001.24 2.104c.152.107.279.25.368.416.09-.166.216-.309.368-.416a3.484 3.484 0 001.24-2.104h2.026v-9.088a4.4 4.4 0 00-.457.302c-.425.33-.777.75-1.035 1.231a4.03 4.03 0 00-.463 1.56l-.295 2.557.13-.015c.14.002.276.053.383.145a.639.639 0 01-.048 1.005.593.593 0 01-.218.093l-.364.078a24.268 24.268 0 01-.363-.732c-.343-.893-.625-1.808-.602-2.782.012-1.047.134-2.092.152-3.14 0-.457-.161-.899-.454-1.242zm-3.032 2.253a3.31 3.31 0 01.735 1.722l.242 2.112a1.26 1.26 0 00-.633.805h-.344v-4.64zm6.056 0v4.638h-.342a1.274 1.274 0 00-.233-.474 1.221 1.221 0 00-.4-.331l.242-2.112c.076-.636.33-1.235.733-1.722zm-3.028 4.24c.16.546.383 1.07.663 1.561a1.37 1.37 0 00-.663.463 1.36 1.36 0 00-.663-.463c.28-.49.503-1.015.663-1.56zm-3.028 1.026h.344c.053.214.16.409.31.566.148.157.335.27.54.33l.29.07a3.6 3.6 0 00-.12.917h-1.364v-1.883zm5.714 0h.342v1.883h-1.362c0-.31-.041-.618-.12-.917l.29-.07c.205-.06.39-.174.54-.331.149-.157.256-.352.31-.565zm-3.636 1.109a.75.75 0 01.464.262c.12.143.185.325.185.514h-.756c0-.263.036-.524.107-.776zm1.903 0c.07.252.106.513.107.776h-.757c0-.189.066-.371.185-.514a.75.75 0 01.465-.262zm-1.942 1.403h.688v1.324a2.855 2.855 0 01-.688-1.32v-.004zm1.292 0h.688c-.11.496-.348.952-.688 1.32v-1.32z"/><path d="M74.824 17.1c-7.283 0-13.211-6.137-13.211-13.683v-1.25H30.387v1.245c0 7.551-5.929 13.684-13.212 13.684h-1.2v38.577c0 6.61 7.556 9.985 14.868 13.25 5.966 2.663 12.13 5.421 14.07 9.683L46 80.996l1.086-2.39c1.936-4.261 8.104-7.02 14.07-9.683 7.306-3.265 14.87-6.64 14.87-13.25V17.105l-1.202-.005zm-1.2 38.578c0 4.972-6.52 7.885-13.417 10.966C54.643 69.127 48.912 71.69 46 75.698c-2.916-4.012-8.643-6.57-14.206-9.054-6.898-3.081-13.417-5.994-13.417-10.967V19.544c7.652-.606 13.782-6.953 14.364-14.888H59.26c.582 7.93 6.712 14.282 14.364 14.888v36.134z"/><path d="M71.366 20.974c-3.325-.698-6.377-2.396-8.776-4.882A18.087 18.087 0 0157.879 7l-.12-.603h-23.52l-.114.598a18.099 18.099 0 01-4.713 9.092c-2.398 2.485-5.45 4.184-8.774 4.883l-.577.124v34.58c0 3.828 6.303 6.645 12.414 9.373 4.77 2.13 9.704 4.335 13.038 7.517l.49.467.49-.467c3.334-3.186 8.273-5.391 13.048-7.522 6.097-2.723 12.404-5.54 12.404-9.368V21.098l-.579-.124zm-.865 34.704c0 2.842-6.395 5.7-11.54 8-4.659 2.08-9.473 4.23-12.96 7.342-3.488-3.112-8.298-5.262-12.971-7.348-5.136-2.295-11.53-5.152-11.53-7.994v-33.37a18.541 18.541 0 008.932-5.16 19.581 19.581 0 004.979-9.256h21.185a19.58 19.58 0 004.977 9.255 18.54 18.54 0 008.93 5.16l-.002 33.37z"/></g><defs><clipPath id="clip0_157_7735"><path fill="#fff" d="M0 0h92v81H0z"/></clipPath></defs></svg>