<svg width="160" height="160" fill="none" xmlns="http://www.w3.org/2000/svg"><g clip-path="url(#clip0_157_6574)"><path d="M80 160c44.183 0 80-35.817 80-80S124.183 0 80 0 0 35.817 0 80s35.817 80 80 80z" fill="#F1F2ED"/><path d="M115.263 28.631l-1.157-1.153-5.425 5.425 6.157 6.156-8.566 8.563-22.187-22.188-3.197 3.194-1.157-1.153-5.425 5.425 5.366 5.363-8.566 8.565L49.71 25.431l-3.197 3.197-1.157-1.15-5.425 5.425 5.213 5.222L34.73 48.522l19.144 19.144-6.09 6.084 5.053 5.053-14.466 14.469 16.54 16.544L34.733 130l28.159 28.159A80.15 80.15 0 0080 160c44.184 0 80-35.816 80-80a80.516 80.516 0 00-1.275-14.303L118.46 25.434l-3.197 3.197z" fill="#DFE0DC"/><path d="M103.481 87.3V130h10.894l4.397-21.35-4.397-21.35h-10.894z" fill="#DF5643"/><path d="M114.375 72.231h10.897V130h-10.897V72.231z" fill="#BF4A39"/><path d="M69.106 105.022V130H80l3.86-12.5L80 105l-10.894.022z" fill="#DF5643"/><path d="M80 87.3h10.897V130H80V87.3z" fill="#BF4A39"/><path d="M34.731 72.231V130h10.894l5.447-28.884-5.447-28.885H34.731z" fill="#DF5643"/><path d="M45.625 57.16h10.897V130H45.625V57.16z" fill="#BF4A39"/><path d="M55.51 39.853a3.475 3.475 0 00-2.479-1.034h-4.084v-2.172l1.322-1.734a2.04 2.04 0 00.416-1.232v-.525c.5.088 1.037-.572 1.196-1.475.16-.903-.118-1.706-.625-1.794a.349.349 0 00-.1 0 5.706 5.706 0 00-1.353-4.347c-1.025-1.093-2.606-1.643-4.187-1.643-1.581 0-3.16.55-4.185 1.644a5.678 5.678 0 00-1.353 4.346.379.379 0 00-.103 0c-.5.088-.778.891-.625 1.794.153.903.694 1.563 1.197 1.475v.525c0 .445.147.877.416 1.232l1.322 1.734v2.172h-4.063a3.495 3.495 0 00-3.49 3.49v6.213h21.79v-6.213a3.472 3.472 0 00-1.012-2.456zM80 23.894c-1.578 0-3.16.55-4.184 1.644a5.685 5.685 0 00-1.375 3.337c-.023.336-.016.674.019 1.01a.557.557 0 00-.1 0c-.5.087-.779.89-.625 1.793.153.903.693 1.563 1.197 1.475v.525c0 .445.146.877.415 1.231l1.322 1.735v2.172h-4.072a3.494 3.494 0 00-3.49 3.493v6.213H80l2.097-10.031L80 23.894z" fill="#2E4939"/><path d="M90.897 42.31a3.472 3.472 0 00-1.013-2.457 3.475 3.475 0 00-2.478-1.034H83.32v-2.172l1.322-1.734a2.04 2.04 0 00.416-1.232v-.525c.503.088 1.038-.572 1.197-1.475.16-.903-.119-1.706-.625-1.794a.349.349 0 00-.1 0 5.679 5.679 0 00-1.353-4.346c-1.025-1.094-2.606-1.644-4.188-1.644v24.628h10.897v-6.216h.01zm33.363-2.457a3.475 3.475 0 00-2.479-1.034h-4.084v-2.172l1.322-1.734c.269-.355.415-.787.416-1.232v-.525c.5.088 1.037-.572 1.196-1.475.16-.903-.118-1.706-.625-1.794a.349.349 0 00-.1 0 5.702 5.702 0 00-1.353-4.347c-1.025-1.093-2.606-1.643-4.187-1.643-1.581 0-3.16.55-4.185 1.644a5.692 5.692 0 00-1.356 4.346.364.364 0 00-.1 0c-.5.088-.778.891-.625 1.794.153.903.694 1.563 1.197 1.475v.525c.001.445.146.877.416 1.232l1.322 1.734v2.172h-4.063a3.494 3.494 0 00-3.491 3.49v6.213h21.791v-6.213a3.473 3.473 0 00-1.012-2.456z" fill="#152A1E"/></g><defs><clipPath id="clip0_157_6574"><path fill="#fff" d="M0 0h160v160H0z"/></clipPath></defs></svg>