<svg width="44" height="44" fill="none" xmlns="http://www.w3.org/2000/svg"><g clip-path="url(#clip0_157_6937)"><path d="M33.924 27.654a13.192 13.192 0 00-1.02 6.82c.166 1.512.465 3.007.895 4.466.231.756.523 1.492.873 2.2.434.667.826 1.36 1.173 2.075l-18.406.052v-.008c-.06-.22-1.166-4.532-3.616-5.639-.454.161-.938.323-1.43.491A49.647 49.647 0 017.43 39.55c-.463.11-.95.042-1.364-.19a2.305 2.305 0 01-.99-1.27 3.654 3.654 0 01-.206-1.635 4.547 4.547 0 00.169-1.745c-.19-.74-.895-.924-1.452-1.32-.455-.323.36-1.357.36-1.357s-.866-.638-1.174-.917c-.323-.264.132-.718.535-1.576.167-.373.215-.787.14-1.188-.154-.785-1.342-1.086-1.93-1.518-.278-.206-.725-.514-.776-.888-.081-.52.535-1.254.836-1.62a28.846 28.846 0 003.27-5.317c.118-.199.188-.422.206-.653-.015-1.048-1.533-1.48-1.672-2.5-.022-.3.03-.6.154-.873.423-.899.785-1.825 1.085-2.772.18-.869.413-1.726.697-2.567a13.403 13.403 0 012.786-4.546c1.797-1.9 4.452-2.838 6.96-3.337A48.89 48.89 0 0121.83.77c.074-.007.147-.007.22-.015 4.694-.234 8.404 1.357 12.042 4.202a11.425 11.425 0 014.128 5.933 21.27 21.27 0 01.74 6.013 10.543 10.543 0 01-1.686 5.647c-1.092 1.723-2.522 3.22-3.351 5.104z" fill="#F38F81"/><path d="M31.724 27.654a13.192 13.192 0 00-1.02 6.82c.166 1.512.465 3.007.895 4.466.231.756.523 1.492.873 2.2.434.667.826 1.36 1.173 2.075l-14.102.037-2.104.007c-.052-.198-.94-3.644-2.868-5.177a3.613 3.613 0 00-.748-.462c-.022.007-.036.015-.058.022-.44.154-.902.308-1.372.47-.007-.008-.022-.015-.03-.023a3.07 3.07 0 00-.74-.469c-1.24.433-2.669.91-3.974 1.298-.558.169-1.093.315-1.584.44a2.305 2.305 0 01-.99-1.269 3.655 3.655 0 01-.206-1.635 4.547 4.547 0 00.169-1.745c-.19-.741-.895-.924-1.452-1.32-.455-.323.36-1.357.36-1.357s-.866-.638-1.174-.917c-.323-.264.132-.718.535-1.576.167-.373.215-.787.14-1.188-.154-.785-1.342-1.086-1.93-1.518-.278-.206-.725-.514-.776-.888-.081-.52.535-1.254.836-1.62a28.846 28.846 0 003.27-5.317c.118-.199.188-.422.206-.653-.015-1.048-1.533-1.481-1.672-2.5-.022-.3.03-.6.154-.873.423-.899.785-1.825 1.085-2.772.18-.869.413-1.726.697-2.567a13.403 13.403 0 012.786-4.546c1.797-1.9 4.452-2.838 6.96-3.337A48.892 48.892 0 0121.83.77c.33.022.653.051.968.095a18.083 18.083 0 019.094 4.092 11.425 11.425 0 014.128 5.933c.532 1.959.782 3.984.74 6.013a10.543 10.543 0 01-1.686 5.647c-1.092 1.723-2.522 3.22-3.351 5.104z" fill="#fff"/><path d="M31.724 27.654a13.194 13.194 0 00-1.02 6.82 25.64 25.64 0 00.895 4.466c.231.756.523 1.492.873 2.2.434.667.826 1.36 1.173 2.075l-14.102.037c-.073-.279-1.188-4.532-3.615-5.632a59.02 59.02 0 01-1.357.462.308.308 0 01-.073.03 3.03 3.03 0 00-.734-.47c-.014-.007-.022-.015-.036-.022-.433.154-.895.308-1.364.47-1.43.476-2.963.96-4.195 1.268a1.848 1.848 0 01-.52-.44 2.467 2.467 0 01-.47-.828 3.654 3.654 0 01-.205-1.636 4.546 4.546 0 00.168-1.745c-.19-.74-.894-.924-1.452-1.32-.454-.323.36-1.357.36-1.357s-.866-.638-1.174-.916c-.322-.264.132-.72.536-1.577.166-.373.215-.787.14-1.188-.155-.785-1.343-1.085-1.93-1.518-.278-.205-.726-.513-.777-.887-.08-.521.535-1.255.836-1.621a28.843 28.843 0 003.27-5.317c.118-.199.188-.422.206-.652-.015-1.05-1.533-1.482-1.672-2.501-.022-.3.031-.6.154-.873a22.24 22.24 0 001.085-2.772c.18-.869.414-1.726.697-2.567a13.403 13.403 0 012.787-4.546c1.796-1.9 4.451-2.838 6.96-3.337a51.98 51.98 0 015.631-.895 18.082 18.082 0 019.093 4.092 11.425 11.425 0 014.13 5.933c.53 1.96.78 3.984.74 6.014a10.543 10.543 0 01-1.687 5.646c-1.093 1.723-2.523 3.22-3.351 5.104z" fill="#FFCFC9"/><path d="M40.472 17.006A9.506 9.506 0 0133 19.771l-2.934-.704a9.393 9.393 0 01-2.933-1.929l-.91-1.005a9.528 9.528 0 017.51-15.4v9.534l6.74 6.74z" fill="#F38F81"/><path d="M43.267 10.267a9.505 9.505 0 01-2.794 6.739l-6.74-6.74h9.534z" fill="#fff"/><path d="M43.267 10.267h-9.534V.733a9.533 9.533 0 019.534 9.534zM30.8 13.2h1.466c.405 0 .734.328.734.733v9.534h-2.934v-9.534c0-.405.329-.733.734-.733z" fill="#F38F81"/><path d="M24.933 16.133H26.4c.405 0 .734.329.734.734v6.6H24.2v-6.6c0-.405.329-.734.733-.734z" fill="#fff"/><path d="M19.066 19.067h1.467c.405 0 .733.328.733.733v3.667h-2.933V19.8c0-.405.328-.733.733-.733z" fill="#F38F81"/><path d="M40.472 17.006A9.505 9.505 0 0133 19.771l-.227-.052a9.513 9.513 0 006.511-3.9l1.188 1.187z" fill="#EC6B59"/><path d="M43.266 10.267a9.506 9.506 0 01-2.794 6.739l-1.188-1.188a9.491 9.491 0 001.782-5.551h2.2z" fill="#FFCFC9"/><path d="M43.267 10.267h-2.2A9.533 9.533 0 0033.733.99V.733a9.533 9.533 0 019.534 9.534z" fill="#EC6B59"/><path d="M2.849 14.721c.308-.8.679-1.497.91-2.176.057-.168.107-.336.146-.501l.136-.58a25.7 25.7 0 01.302-1.188 14.17 14.17 0 012.224-4.483c.31-.418.646-.818 1.003-1.198l1.066 1.006a11.94 11.94 0 00-.89 1.067 12.726 12.726 0 00-1.993 4.01c-.103.366-.194.738-.284 1.121l-.136.58c-.053.22-.116.435-.187.642-.286.827-.667 1.54-.926 2.222l-1.371-.522z" fill="#fff"/><path d="M4.776 11.542a.739.739 0 00-.88.54c-.297.9-.646 1.781-1.047 2.64l1.371.522c.427-.913.794-1.853 1.1-2.813a.733.733 0 00-.544-.889zM8.636 5.6L7.57 4.594a13.347 13.347 0 00-1.447 1.835.719.719 0 00.227 1.026.753.753 0 00.998-.22A11.973 11.973 0 018.636 5.6zM4.714 9.167a.78.78 0 00.011.586l.074.122a.53.53 0 00.105.106c.033.033.07.06.112.082.044.022.089.042.136.058a.812.812 0 00.559-.038.792.792 0 00.22-.163.722.722 0 00.14-.767.795.795 0 00-.162-.233.756.756 0 00-.232-.167.738.738 0 00-.563-.012.78.78 0 00-.4.426z" fill="#DF5643"/><path d="M6.974 40.333a2.745 2.745 0 01-2.591-1.997 4.368 4.368 0 01-.24-1.976c.024-.193.066-.39.109-.586.089-.285.114-.585.073-.88-.06-.23-.229-.345-.66-.592a6.047 6.047 0 01-.508-.312 1.058 1.058 0 01-.435-.721 1.847 1.847 0 01.239-1.059c-.25-.191-.524-.407-.682-.55-.678-.553-.229-1.348.04-1.822.099-.175.214-.376.323-.61.101-.234.13-.492.083-.74-.037-.19-.569-.462-.886-.625a5.325 5.325 0 01-.76-.44 2.253 2.253 0 01-1.065-1.377c-.117-.755.44-1.509.97-2.155a28.334 28.334 0 003.21-5.217c.056-.1.098-.207.125-.319 0-.201-.238-.433-.597-.762-.541-.4-.92-.982-1.068-1.639-.041-.418.025-.84.192-1.225a.733.733 0 111.376.505 1.42 1.42 0 00-.116.514c.032.237.312.494.608.766a2.562 2.562 0 011.072 1.833 2.178 2.178 0 01-.283.99 29.575 29.575 0 01-3.359 5.45c-.559.683-.678.953-.678 1.062.136.132.283.251.44.356.191.134.394.252.605.351.626.32 1.483.759 1.66 1.654a2.743 2.743 0 01-.197 1.641c-.127.271-.26.506-.374.709l-.11.197c.303.244.718.555.894.685a.733.733 0 01.137 1.045 2.74 2.74 0 00-.283.454l.153.087c.648.28 1.143.826 1.357 1.499a3.21 3.21 0 01-.063 1.56c-.034.154-.069.307-.088.461-.043.444.016.89.172 1.308a1.302 1.302 0 001.51.976 56.977 56.977 0 006.306-1.906.734.734 0 11.48 1.385 57.335 57.335 0 01-6.487 1.954 2.904 2.904 0 01-.604.068zM8.103 5.83a.733.733 0 01-.533-1.237c1.64-1.733 4.043-2.895 7.35-3.552A48.813 48.813 0 0122.011.023a16.676 16.676 0 017.351 1.246.734.734 0 11-.56 1.355 15.191 15.191 0 00-6.715-1.133 47.65 47.65 0 00-6.88.988c-2.958.586-5.17 1.638-6.573 3.122a.729.729 0 01-.532.229z" fill="#DF5643"/><path d="M17.439 44a.733.733 0 01-.712-.56c-.286-1.158-1.416-4.343-3.206-5.152a.733.733 0 01.066-1.362c.777-.264 1.48-.514 2.03-.702.493-.172.865-.302 1.061-.367 3.05-.963 3.667-2.064 3.65-2.819a.734.734 0 111.467-.034c.043 1.828-1.528 3.258-4.67 4.253-.185.06-.546.186-1.027.353l-.688.24a11.693 11.693 0 012.583 4.683l16.634-.046-.048-.073a7.958 7.958 0 01-.57-.96 15.21 15.21 0 01-.91-2.296 26.054 26.054 0 01-.923-4.595 13.877 13.877 0 011.075-7.2c.206-.467.443-.918.71-1.352a.733.733 0 111.253.762c-.233.376-.44.768-.618 1.173a12.404 12.404 0 00-.963 6.439c.158 1.469.448 2.921.867 4.338.22.717.496 1.415.828 2.087.14.276.3.541.475.795.312.427.562.896.743 1.393a.733.733 0 01-.699.954l-18.406.051-.002-.003z" fill="#DF5643"/><path d="M7.476 13.615a.734.734 0 01-.715-.9l.074-.317c.141-.672.322-1.335.542-1.985A11.11 11.11 0 019.7 6.61a9.088 9.088 0 014.019-2.252.734.734 0 11.428 1.403c-1.267.32-2.43.96-3.38 1.856a9.68 9.68 0 00-2.014 3.3c-.197.594-.36 1.198-.49 1.81l-.073.32a.733.733 0 01-.714.568zM6.6 16.133a.733.733 0 100-1.466.733.733 0 000 1.466z" fill="#F38F81"/><path d="M30.067 19.8a.726.726 0 01-.28-.056 10.085 10.085 0 01-3.163-2.078.734.734 0 011.019-1.056 8.617 8.617 0 002.704 1.78.733.733 0 01-.28 1.41z" fill="#DF5643"/><path d="M33.734 20.533c-.273 0-.537-.008-.8-.032a.734.734 0 11.133-1.46 8.8 8.8 0 10-8.133-8.774A8.672 8.672 0 0026.8 15.68a.733.733 0 11-1.153.907 10.124 10.124 0 01-2.181-6.32C23.467 4.597 28.063 0 33.734 0 39.404 0 44 4.597 44 10.267c0 5.67-4.596 10.266-10.266 10.266z" fill="#DF5643"/><path d="M33.733 11a.733.733 0 01-.733-.733V.733a.733.733 0 111.467 0v9.534a.733.733 0 01-.734.733z" fill="#DF5643"/><path d="M43.267 11h-9.534a.733.733 0 110-1.467h9.534a.733.733 0 010 1.467z" fill="#DF5643"/><path d="M40.474 17.74a.733.733 0 01-.519-.214l-6.74-6.74a.733.733 0 011.037-1.038l6.741 6.741a.733.733 0 01-.52 1.252zM33 24.2h-2.934a.733.733 0 01-.733-.733v-9.533c0-.81.657-1.467 1.467-1.467h1.466c.81 0 1.467.656 1.467 1.466v9.534A.733.733 0 0133 24.2zm-2.2-1.466h1.466v-8.8H30.8v8.8zM27.134 24.2H24.2a.733.733 0 01-.733-.733v-6.6c0-.81.656-1.467 1.466-1.467H26.4c.81 0 1.467.657 1.467 1.467v6.6a.733.733 0 01-.733.733zm-2.2-1.466H26.4v-5.867h-1.466v5.866zM21.266 24.2h-2.933a.733.733 0 01-.733-.733V19.8c0-.81.656-1.466 1.466-1.466h1.467c.81 0 1.467.656 1.467 1.466v3.667a.733.733 0 01-.734.733zm-2.2-1.466h1.467V19.8h-1.467v2.933z" fill="#DF5643"/><path d="M35.2 24.2H16.132a.733.733 0 010-1.467h19.066a.733.733 0 110 1.467z" fill="#DF5643"/></g><defs><clipPath id="clip0_157_6937"><path fill="#fff" d="M0 0h44v44H0z"/></clipPath></defs></svg>