<svg width="44" height="44" fill="none" xmlns="http://www.w3.org/2000/svg"><g clip-path="url(#clip0_157_6903)"><path d="M25.703 37.4c6.48 0 11.733-5.253 11.733-11.733s-5.253-11.734-11.733-11.734S13.97 19.186 13.97 25.667c0 6.48 5.253 11.733 11.733 11.733z" fill="#FFCFC9"/><path d="M25.703 13.933c-.37 0-.733.022-1.1.056a11.729 11.729 0 010 23.355c.363.035.73.056 1.1.056 6.48 0 11.734-5.253 11.734-11.733s-5.253-11.734-11.733-11.734z" fill="#F9B2A8"/><path d="M25.707 34.467a8.8 8.8 0 100-17.6 8.8 8.8 0 000 17.6z" fill="#fff"/><path d="M34.507 25.667a8.811 8.811 0 00-8.8-8.8 8.913 8.913 0 00-1.1.073 8.792 8.792 0 010 17.448 8.747 8.747 0 009.9-8.721z" fill="#F9B2A8"/><path d="M31.57 13.912a.733.733 0 01-.733.755h-1.042a11.783 11.783 0 00-8.184 0h-3.24a.733.733 0 01-.734-.733V1.466a.733.733 0 01.755-.734A13.969 13.969 0 0131.57 13.911z" fill="#F38F81"/><path d="M18.392.733a.706.706 0 00-.53.204 13.965 13.965 0 0111.509 12.975.7.7 0 01-.22.544c.22.067.44.132.648.21h1.042a.733.733 0 00.733-.755A13.969 13.969 0 0018.392.733z" fill="#EC6B59"/><path d="M13.97 25.667a11.694 11.694 0 001.554 5.844c-.807.044-1.616.022-2.42-.066a13.89 13.89 0 01-8.264-3.982l9.863-9.863h2.479a11.683 11.683 0 00-3.212 8.067z" fill="#F9B2A8"/><path d="M17.182 17.6h-2.2a11.743 11.743 0 00-1.687 13.86c.74.073 1.486.09 2.229.053A11.747 11.747 0 0117.182 17.6z" fill="#F38F81"/><path d="M14.703 4.415V17.6L4.84 27.463a13.81 13.81 0 01-4.02-8.271A13.954 13.954 0 0113.94 3.689a.728.728 0 01.763.726z" fill="#FFCFC9"/><path d="M13.94 3.689a13.81 13.81 0 00-1.665.199.726.726 0 01.229.527V17.6l-8.7 8.699c.324.407.67.796 1.036 1.165l9.864-9.864V4.415a.728.728 0 00-.763-.726z" fill="#F9B2A8"/><path d="M37.283 34.62l-2.633 2.64-1.811-2.273a12.048 12.048 0 002.178-2.185l2.266 1.819z" fill="#FFCFC9"/><path d="M42.512 42.504l-.008.008a2.575 2.575 0 01-3.857-.242l-3.997-5.01 2.633-2.64 4.987 4.012a2.59 2.59 0 01.242 3.872z" fill="#FFCFC9"/><path d="M42.27 38.632l-4.987-4.011-.98.982 3.766 3.03a2.59 2.59 0 01.242 3.871l-.007.008c-.21.206-.456.374-.725.497a2.557 2.557 0 002.925-.498l.007-.007a2.59 2.59 0 00-.242-3.872z" fill="#F9B2A8"/><path d="M3.805 26.299c.073.073.064.1.435.513 2.834 3.224 7 4.957 11.285 4.694l-.029-.054A13.82 13.82 0 016.44 26.81c-.37-.417-.36-.44-.435-.513-6.723-8.346-1.746-20.672 8.464-22.41a.714.714 0 00-.528-.195C2.618 4.291-3.276 17.506 3.805 26.3zm24.658-12.351c-.06 0-.118 0-.178-.005.06.002.118.002.178.005zm-1.12 0zm.562-.015c-.11 0-.22.005-.334.01.112-.005.223-.01.334-.01zM20.062.937a14.054 14.054 0 00-1.67-.203.705.705 0 00-.53.203.744.744 0 00-.225.53v12.466c0 .405.328.734.733.734 1.78 0 2.567.009 2.964 0h-.764a.733.733 0 01-.733-.733V1.466c0-.2.082-.391.225-.53z" fill="#fff"/><path d="M3.315 24.332l-1.258.753a14.933 14.933 0 01-1.964-5.813l1.457-.161a13.484 13.484 0 001.765 5.221z" fill="#fff"/><path d="M25.707 35.2a9.533 9.533 0 10-9.533-9.533 9.544 9.544 0 009.533 9.533zm0-17.6a8.067 8.067 0 11-8.067 8.067 8.076 8.076 0 018.067-8.067zM1.478 22.79a.733.733 0 01-.007-1.467h.007a.733.733 0 110 1.466z" fill="#DF5643"/><path d="M14.977 3.354a1.457 1.457 0 00-1.073-.397A14.758 14.758 0 003.478 8.13 14.566 14.566 0 00.092 19.273a.733.733 0 00.729.652c.027 0 .054 0 .082-.004a.733.733 0 00.648-.81A13.112 13.112 0 014.596 9.08a13.314 13.314 0 019.371-4.666v12.892l-9.105 9.101a13.04 13.04 0 01-1.546-2.076.733.733 0 10-1.258.753 14.847 14.847 0 0010.968 7.09c.565.06 1.133.091 1.7.092.14 0 .278-.008.417-.012a12.434 12.434 0 0017.555 3.727l5.374 6.738A3.327 3.327 0 0040.689 44a3.327 3.327 0 002.044-5.94l-6.714-5.396a12.435 12.435 0 00-4.071-17.773 1.44 1.44 0 00.358-1.018C31.916 6.379 25.93.39 18.436 0a1.423 1.423 0 00-1.068.395 1.48 1.48 0 00-.46 1.072v12.466c0 .81.656 1.467 1.466 1.467h.276c-.631.435-1.222.926-1.764 1.467h-1.452V4.415c0-.402-.166-.785-.457-1.061zm26.84 35.854c.422.33.682.824.716 1.359a1.837 1.837 0 01-.543 1.427 1.81 1.81 0 01-1.412.54 1.866 1.866 0 01-1.356-.72l-3.588-4.502 1.702-1.706 4.481 3.602zm-5.633-4.526l-1.472 1.476-.859-1.077c.45-.39.87-.811 1.26-1.26l1.071.86zm-17.81-20.749l-.018-12.466A13.186 13.186 0 0130.84 13.933h-.961a12.233 12.233 0 00-8.344 0h-3.161zm7.333.734c6.075 0 11 4.925 11 11s-4.925 11-11 11-11-4.925-11-11c.007-6.073 4.928-10.993 11-11zm-10.06 3.666a12.361 12.361 0 00-1.29 12.462 14.46 14.46 0 01-1.174-.079 13.25 13.25 0 01-7.28-3.277l9.108-9.106h.636z" fill="#DF5643"/><path d="M4.1 15.4c.33 0 .62-.22.707-.539a10.136 10.136 0 012.067-3.897 10.306 10.306 0 014.411-3.044.733.733 0 10-.49-1.382 11.78 11.78 0 00-5.04 3.475 11.607 11.607 0 00-2.363 4.457.733.733 0 00.708.93zm-.393 2.933a.733.733 0 100-1.466.733.733 0 000 1.466zm16.867 6.6c.194 0 .38-.076.518-.214l3.667-3.666a.733.733 0 00-1.037-1.038l-3.666 3.667a.733.733 0 00.518 1.251zm-.519 4.187a.733.733 0 001.037 0l8.067-8.067a.733.733 0 10-1.037-1.038l-8.067 8.067a.733.733 0 000 1.037z" fill="#DF5643"/></g><defs><clipPath id="clip0_157_6903"><path fill="#fff" d="M0 0h44v44H0z"/></clipPath></defs></svg>