<svg width="44" height="44" fill="none" xmlns="http://www.w3.org/2000/svg"><g clip-path="url(#clip0_157_7004)"><path d="M25.207 38.285l.022.022-.007.007c-2.325 1.738-4.511.792-5.574-.902a4.065 4.065 0 01-1.797 1.07 4.198 4.198 0 01-4.563-1.92 2.68 2.68 0 01-.278-.646 4.293 4.293 0 01-3.624-2.046 3.305 3.305 0 01-.44-1.578c-2.567-.33-4.034-3.322-2.369-6.065l.051-.052.154.162a2.913 2.913 0 004.152 0l6.102-6.162a1.54 1.54 0 01-2.156-.029 2.554 2.554 0 01-.623-1.951 4.465 4.465 0 01.784-2.296l3.411-5.112c.39-.532.866-.996 1.408-1.372.565-.418 1.123-.85 1.71-1.239.31-.2.63-.384.96-.55a9.146 9.146 0 013.007-.998c1.093-.117 2.193.228 3.286.147a4.506 4.506 0 002.832-1.35l.205-.198a1.524 1.524 0 012.185 0l5.465 5.509 3.286 3.308c.608.61.608 1.597 0 2.207l-1.68 1.702c-.303.29-.465.696-.447 1.115.117 2.692-1.511 5.039-2.333 6.044L25.207 38.285z" fill="#FFCFC9"/><path d="M21.592 8.176c-.587.388-1.144.821-1.709 1.24l-.007.006a5.895 5.895 0 00-1.401 1.365l-.059.095-.007.007-3.345 5.01a4.468 4.468 0 00-.785 2.296 2.555 2.555 0 00.624 1.95 1.54 1.54 0 002.156.03l-6.102 6.162c-.06.058-.125.117-.184.175l-.036.03a2.921 2.921 0 01-3.932-.206l-.154-.161-.543-.543s-2.948-2.97-2.794-6.572a1.45 1.45 0 00-.447-1.107l-1.68-1.702a1.563 1.563 0 010-2.208l3.286-3.307 4.114-4.16c.008 0 .008-.007.015-.014L9.937 5.22a1.534 1.534 0 012.186 0l.205.205a4.553 4.553 0 003.308 1.364l2.648-.198a5.96 5.96 0 013.308 1.585z" fill="#F38F81"/><path d="M20.125 9.643c-.587.388-1.144.821-1.709 1.24l-.007.007a5.89 5.89 0 00-1.401 1.364l-3.411 5.112a4.466 4.466 0 00-.785 2.296 2.555 2.555 0 00.624 1.95 1.54 1.54 0 002.156.03l-4.819 4.87-.036.03a2.922 2.922 0 01-3.932-.205l-.154-.162-.543-.543s-2.948-2.97-2.794-6.572a1.45 1.45 0 00-.447-1.107l-1.68-1.702a1.563 1.563 0 010-2.207l3.286-3.308 4.114-4.16c.008 0 .008-.007.015-.014a1.54 1.54 0 012.054.125l.205.205a4.553 4.553 0 003.308 1.365l2.648-.199a5.932 5.932 0 013.059 1.365c.088.066.168.146.25.22z" fill="#FFCFC9"/><path d="M27.724 21.18a1.52 1.52 0 01-1.1.455 1.48 1.48 0 01-1.057-.433l-.572-.572-2.802-2.824a2.2 2.2 0 00-3.125 0l4.849-4.877 3.806 3.836a3.154 3.154 0 010 4.415zm5.009 14.758a2.38 2.38 0 01-1.84.674 2.255 2.255 0 01-1.438-.674l-.961-.968-2.802-2.817v-.007a2.347 2.347 0 01-.36-2.824c.1-.173.221-.333.36-.477a2.275 2.275 0 011.841-.675 2.237 2.237 0 011.438.675l1.034 1.042 2.729 2.743a2.356 2.356 0 010 3.308zm-4.247 2.347a2.407 2.407 0 01-1.841.667 2.21 2.21 0 01-1.4-.638c-.008 0-.008-.007-.016-.007l-.021-.022-1.563-1.584v-.008a2.358 2.358 0 01-.161-3.124v-.008c.051-.059.102-.11.14-.147l.021-.021.073-.074a2.383 2.383 0 011.13-.579c.208-.037.42-.044.63-.022a2.122 2.122 0 01.63.154c.067.022.134.051.2.08.09.052.18.108.264.169a1.2 1.2 0 01.168.103l.022.022c.052.044.103.095.154.147l1.57 1.584a2.36 2.36 0 010 3.308z" fill="#F38F81"/><path d="M35.99 32.645a2.309 2.309 0 01-3.103.16 1.717 1.717 0 00-.154-.175l-2.729-2.743a2.348 2.348 0 01.176-3.096 2.3 2.3 0 011.842-.674 2.238 2.238 0 011.437.674l.675.675 1.474 1.482.382.389a2.36 2.36 0 010 3.308z" fill="#F38F81"/><path d="M38.887 28.947a2.26 2.26 0 01-1.049.595 2.294 2.294 0 01-2.23-.595l-1.474-1.481v-.007a2.348 2.348 0 01-.366-2.817c.098-.178.222-.341.366-.484a2.268 2.268 0 011.842-.667 2.228 2.228 0 011.437.667l.668.667.264.272.542.542a2.36 2.36 0 010 3.308z" fill="#F38F81"/><path d="M31.677 36.539c-.255.072-.52.096-.785.073a2.255 2.255 0 01-1.437-.675l-.961-.968-2.802-2.816v-.008a2.347 2.347 0 01-.36-2.823c.254-.067.518-.087.778-.06a2.238 2.238 0 011.438.676l1.034 1.041 2.729 2.743a2.356 2.356 0 01.367 2.816zm-4.247 2.34a2.188 2.188 0 01-.785.073 2.21 2.21 0 01-1.4-.638c-.008 0-.008-.007-.016-.007l-.021-.022-1.563-1.585v-.007a2.358 2.358 0 01-.367-2.824 1.12 1.12 0 01.147-.037c.208-.036.42-.043.63-.021a1.965 1.965 0 01.623.154c.069.022.135.05.2.08.094.05.185.106.27.169.052.037.118.059.17.103l.021.022c.052.044.103.095.155.147l1.569 1.584c.74.747.89 1.897.367 2.809zm7.504-5.633a2.267 2.267 0 01-2.047-.44 1.696 1.696 0 00-.154-.176l-2.729-2.744a2.348 2.348 0 01-.19-2.61 2.04 2.04 0 01.785-.067 2.238 2.238 0 011.437.675l.675.675 1.474 1.481.381.39c.741.75.892 1.901.367 2.816zm2.904-3.704a2.294 2.294 0 01-2.23-.594l-1.474-1.482v-.007a2.348 2.348 0 01-.366-2.817c.256-.067.521-.087.785-.058a2.23 2.23 0 011.437.667l.668.667.264.272.542.543a2.36 2.36 0 01.374 2.809z" fill="#FFCFC9"/><path d="M42.797 16.251l-1.335 1.35a1.565 1.565 0 00-.11-2.09l-3.286-3.308L32.6 6.694a1.529 1.529 0 00-1.943-.205c-.09.058-.17.127-.242.205l-.206.198a4.505 4.505 0 01-2.83 1.35c-1.094.08-2.194-.264-3.287-.147a9.143 9.143 0 00-3.007.998c-.33.166-.65.35-.96.55-.588.388-1.145.821-1.71 1.24-.022.014-.036.029-.059.044l.096-.14c.39-.532.866-.996 1.408-1.372.565-.418 1.122-.85 1.709-1.239.31-.2.63-.384.96-.55a9.146 9.146 0 013.008-.998c1.093-.117 2.193.228 3.286.147a4.24 4.24 0 001.709-.513c.415-.22.793-.502 1.122-.836l.205-.199a1.524 1.524 0 012.186 0l5.465 5.509 3.286 3.308c.608.61.608 1.597 0 2.207zm-1.776 1.805a1.44 1.44 0 00-.352 1.012c.118 2.677-1.496 5.017-2.325 6.03l-.264-.272a8.178 8.178 0 001.144-4.291 1.456 1.456 0 01.448-1.115l1.35-1.364z" fill="#F38F81"/><path d="M29.102 20.146c-.29.295-.687.46-1.1.455a1.483 1.483 0 01-1.056-.433l-.572-.572-2.802-2.824a2.2 2.2 0 00-3.125 0l4.849-4.877 3.806 3.835a3.153 3.153 0 010 4.416z" fill="#FFCFC9"/><path d="M18.849 6.714c-.188-.045-.374-.096-.567-.123l-1.414.106c.319.067.644.097.97.092l1.01-.075zM2.867 17.953c.3.287.464.691.447 1.107-.154 3.602 2.794 6.572 2.794 6.572l.543.543.154.162a2.9 2.9 0 001.373.778 2.895 2.895 0 01-1.394-.778l-.154-.162-.051.051c-1.666 2.744-.2 5.736 2.368 6.066a3.3 3.3 0 00.44 1.577 4.293 4.293 0 003.623 2.047c.065.226.158.443.28.645a4.198 4.198 0 004.561 1.922c.04-.01.073-.027.112-.04a4.386 4.386 0 01-2.473-1.882 2.696 2.696 0 01-.28-.645 4.292 4.292 0 01-3.623-2.047 3.301 3.301 0 01-.44-1.577c-2.567-.33-4.034-3.323-2.369-6.066l.052-.051.154.162c.382.385.865.655 1.393.778a2.899 2.899 0 01-1.372-.778l-.153-.162-.543-.543s-2.949-2.97-2.795-6.572a1.45 1.45 0 00-.447-1.107l-1.68-1.702a1.563 1.563 0 010-2.208l3.286-3.307 4.115-4.16c.007 0 .007-.007.014-.014l1.328-1.335-.007-.007a1.536 1.536 0 00-2.186 0L8.602 6.562c-.007.007-.007.015-.015.015l-4.114 4.159-3.286 3.307a1.563 1.563 0 000 2.208l1.68 1.702z" fill="#fff"/><path d="M.664 13.532L7.325 6.71 9.01 4.986l1.05 1.025-1.684 1.724-6.661 6.822-1.05-1.025z" fill="#fff"/><path d="M32.998 9.606a.734.734 0 101.042-1.033l-.547-.552a.733.733 0 10-1.042 1.033l.547.552zm6.015 6.066a.733.733 0 101.041-1.033l-3.827-3.86a.733.733 0 10-1.042 1.033l3.828 3.86zM11.006 9.606l.546-.553a.733.733 0 10-1.042-1.03l-.547.551a.733.733 0 101.043 1.032zm-7.053 6.071a.733.733 0 001.037-.005l3.828-3.862a.734.734 0 00-1.045-1.03L3.95 14.64a.734.734 0 00.004 1.037zM5.8 9.322a.727.727 0 00-1.037.012.773.773 0 00-.211.521l.017.14c.01.049.026.096.048.14a.478.478 0 00.064.124c.029.04.06.077.094.112a.77.77 0 00.522.212.758.758 0 00.727-.745.76.76 0 00-.065-.279.734.734 0 00-.159-.237z" fill="#DF5643"/><path d="M2.35 18.472a.73.73 0 01.232.558c-.165 3.877 2.877 6.99 3.008 7.119l.14.143a4.722 4.722 0 001.034 5.826c.454.36.979.621 1.54.766.068.487.233.956.486 1.377a4.988 4.988 0 003.733 2.36c.05.112.106.22.169.325a4.964 4.964 0 004.198 2.395c.396 0 .79-.05 1.174-.147a4.436 4.436 0 001.49-.733 4.396 4.396 0 002.462 1.445c.242.045.487.067.733.066a4.66 4.66 0 002.476-.755c.407.269.876.43 1.363.47a3.026 3.026 0 003.262-2.597c.308.14.637.226.973.251a3.022 3.022 0 002.428-.89 3.06 3.06 0 00.864-2.4 3.025 3.025 0 002.396-.889 3.08 3.08 0 00.814-2.811 3.018 3.018 0 002.08-.893 3.1 3.1 0 000-4.343l-.073-.073a9.783 9.783 0 002.087-6.03.734.734 0 01.238-.549l1.677-1.697a2.31 2.31 0 000-3.245l-8.742-8.804a2.243 2.243 0 00-1.617-.685 2.233 2.233 0 00-1.602.667l-.22.21a3.788 3.788 0 01-2.361 1.134c-.48.018-.96-.007-1.435-.076a8.178 8.178 0 00-1.872-.07 9.753 9.753 0 00-3.262 1.069 9.781 9.781 0 00-.57.314 6.654 6.654 0 00-3.27-1.415.717.717 0 00-.154-.004l-2.608.197a3.86 3.86 0 01-2.773-1.146l-.203-.203a2.044 2.044 0 00-1.498-.562c-.792 0-1.555.3-2.135.838l-2.199 2.25a.733.733 0 101.05 1.027l2.192-2.25a1.71 1.71 0 011.092-.398.674.674 0 01.455.126l.204.203a5.3 5.3 0 003.889 1.58l2.567-.19a5.22 5.22 0 012.104.812l-.582.434-.34.254a6.347 6.347 0 00-1.549 1.514c-.015.02-.015.02-3.436 5.142a5.228 5.228 0 00-.91 2.673 3.25 3.25 0 00.833 2.497c.2.203.44.363.704.472l-4.645 4.69a2.19 2.19 0 01-1.559.653c-.582 0-1.14-.235-1.547-.652l-.697-.704c-.027-.028-2.721-2.797-2.585-6.004a2.166 2.166 0 00-.66-1.675l-1.686-1.707a.83.83 0 01.006-1.174l2.05-2.098a.734.734 0 10-1.05-1.027L.667 13.53a2.299 2.299 0 000 3.238l1.682 1.705zm19.927 19.99a2.933 2.933 0 01-1.638-.99l.917-.926.775-.783c.119.515.369.99.726 1.378.02.026.04.05.063.074l.948.957a2.829 2.829 0 01-1.79.29zm5.69-.697a1.587 1.587 0 01-1.27.459 1.5 1.5 0 01-.967-.458l-1.51-1.526a.686.686 0 00-.057-.065 1.614 1.614 0 01-.02-2.244l.02-.02.018-.02a1.574 1.574 0 011.247-.44c.368.029.712.192.968.458l1.564 1.581c.62.63.623 1.64.006 2.275zm4.242-2.34a1.576 1.576 0 01-1.267.458 1.503 1.503 0 01-.969-.459l-3.701-3.727a.574.574 0 00-.057-.065 1.614 1.614 0 010-2.269 1.571 1.571 0 011.268-.457c.369.028.713.192.968.459l1.052 1.06c.033.039.057.083.093.121.02.026.04.05.064.073l1.59 1.6a.61.61 0 00.073.104c.026.02.055.038.084.054l.785.79c.03.03.067.054.099.083.534.639.5 1.578-.082 2.174zm3.26-3.29a1.584 1.584 0 01-1.267.458 1.49 1.49 0 01-.865-.367c-.03-.035-.052-.073-.086-.108l-2.68-2.708a1.614 1.614 0 01.13-2.105 1.577 1.577 0 011.27-.458c.368.029.713.192.968.46l2.53 2.544a1.627 1.627 0 010 2.28v.004zm2.897-3.703a1.563 1.563 0 01-1.27.457 1.494 1.494 0 01-.97-.46l-1.418-1.42a1.009 1.009 0 00-.054-.062 1.613 1.613 0 010-2.267 1.574 1.574 0 011.269-.459c.37.03.715.193.97.46l1 1.001.47.47c.62.632.62 1.643.003 2.276v.003zm-29.493-.49h.006a3.645 3.645 0 002.6-1.086l6.102-6.161 3.192-3.212.006-.004.188-.189a1.466 1.466 0 012.082 0l3.374 3.4c.418.418.985.652 1.576.649a2.246 2.246 0 001.622-.674 3.897 3.897 0 000-5.446l-3.307-3.34a.725.725 0 00-.054-.96.733.733 0 00-1.037 0l-8.114 8.164-.561.568a.807.807 0 01-1.123-.019 1.835 1.835 0 01-.415-1.41 3.76 3.76 0 01.665-1.918l3.413-5.11a5.09 5.09 0 011.227-1.188l.344-.257a14.936 14.936 0 012.216-1.47 8.45 8.45 0 012.765-.924 7.1 7.1 0 011.544.068 9.11 9.11 0 001.714.085 5.187 5.187 0 003.283-1.552l.22-.214a.788.788 0 011.14 0l8.753 8.818a.826.826 0 010 1.178l-1.675 1.697a2.173 2.173 0 00-.66 1.666 8.281 8.281 0 01-1.677 4.891l-.343-.343a2.951 2.951 0 00-1.89-.892 3.024 3.024 0 00-3.301 2.767 3.044 3.044 0 00-3.917 2.307 2.863 2.863 0 00-1.223-.389 3.033 3.033 0 00-2.436.887 3.084 3.084 0 00-.467 3.714 3.06 3.06 0 00-1.428.703.63.63 0 00-.08.054l-.057.056c-.006.007-.015.011-.022.018a.236.236 0 01-.018.023l-.009.008a2.852 2.852 0 00-.128.138c-.48.479-1.514 1.524-2.452 2.472l-1.305 1.32a.617.617 0 00-.09.082c-.396.4-.886.694-1.425.854a3.403 3.403 0 01-3.52-1.277 4.786 4.786 0 002.175-1.308c1.216-1.236 4.025-4.068 4.025-4.068l3.284-3.308a.734.734 0 10-1.042-1.034l-3.284 3.308s-2.81 2.836-4.023 4.066a3.331 3.331 0 01-1.519.93 3.453 3.453 0 01-3.757-1.6 1.875 1.875 0 01-.193-.445 6.513 6.513 0 003.814-1.838.69.69 0 00.138-.094l6.576-6.608a.733.733 0 10-1.038-1.035l-6.158 6.174-.35.36a.63.63 0 00-.074.043c-2.147 1.99-4.021 1.79-5.06.943a3.164 3.164 0 01-.812-3.646 3.618 3.618 0 002 .609zm16.42-15.007l3.287 3.313a2.42 2.42 0 01-.004 3.387.783.783 0 01-.574.234.748.748 0 01-.538-.22l-3.374-3.396a2.915 2.915 0 00-1.342-.762l2.545-2.556z" fill="#DF5643"/></g><defs><clipPath id="clip0_157_7004"><path fill="#fff" d="M0 0h44v44H0z"/></clipPath></defs></svg>