<svg width="44" height="44" fill="none" xmlns="http://www.w3.org/2000/svg"><g clip-path="url(#clip0_157_7162)"><path d="M36.667 22A14.663 14.663 0 0122 36.667a15.53 15.53 0 01-2.2-.162v-4.238a2.2 2.2 0 00-2.2-2.2h-1.283l.55-4.4-5.03 4.4H9.753A14.667 14.667 0 0122 7.334c.736.001 1.472.055 2.2.16v4.24a2.2 2.2 0 002.2 2.2h1.284l-.55 4.4 5.03-4.4h2.083A14.57 14.57 0 0136.667 22z" fill="#F38F81"/><path d="M34.246 13.933h-2.083L32.09 14a14.648 14.648 0 01-11.279 22.616 14.666 14.666 0 0013.435-22.683z" fill="#EC6B59"/><path d="M43.267 2.933v8.8a2.2 2.2 0 01-2.2 2.2h-8.903l-5.03 4.4.55-4.4H26.4a2.2 2.2 0 01-2.2-2.2v-8.8a2.2 2.2 0 012.2-2.2h14.667a2.2 2.2 0 012.2 2.2z" fill="#FFCFC9"/><path d="M41.066.733h-2.2a2.2 2.2 0 012.2 2.2v8.8a2.2 2.2 0 01-2.2 2.2h2.2a2.2 2.2 0 002.2-2.2v-8.8a2.2 2.2 0 00-2.2-2.2z" fill="#F9B2A8"/><path d="M28.6 8.8a1.467 1.467 0 100-2.933 1.467 1.467 0 000 2.933zm5.133 0a1.467 1.467 0 100-2.933 1.467 1.467 0 000 2.933zm5.134 0a1.467 1.467 0 100-2.933 1.467 1.467 0 000 2.933z" fill="#F38F81"/><path d="M19.8 32.267v8.8a2.2 2.2 0 01-2.2 2.2H2.933a2.2 2.2 0 01-2.2-2.2v-8.8a2.2 2.2 0 012.2-2.2h8.903l5.03-4.4-.55 4.4H17.6a2.2 2.2 0 012.2 2.2z" fill="#FFCFC9"/><path d="M17.6 30.067h-1.284l.55-4.4-2.47 2.16-.28 2.24H15.4a2.2 2.2 0 012.2 2.2v8.8a2.2 2.2 0 01-2.2 2.2h2.2a2.2 2.2 0 002.2-2.2v-8.8a2.2 2.2 0 00-2.2-2.2z" fill="#F9B2A8"/><path d="M15.4 38.133a1.467 1.467 0 100-2.933 1.467 1.467 0 000 2.933zm-5.133 0a1.467 1.467 0 100-2.933 1.467 1.467 0 000 2.933zm-5.133 0a1.467 1.467 0 100-2.933 1.467 1.467 0 000 2.933z" fill="#F38F81"/><path d="M24.45 19.99c-1.462-.105-3.337.614-4.056 1.964-.64 1.202.109 2.193.933 3.048.415.411.802.85 1.156 1.315a6.4 6.4 0 001.483 1.727 1.833 1.833 0 002.273-.133 2.44 2.44 0 00.478-2.2 12.743 12.743 0 01-.277-1.77c.039-.838.014-1.677-.074-2.511a1.946 1.946 0 00-1.915-1.44z" fill="#FFCFC9"/><path d="M26.72 25.712a12.728 12.728 0 01-.278-1.77 16.6 16.6 0 00-.073-2.511 1.946 1.946 0 00-1.919-1.441 4.711 4.711 0 00-1.477.155 1.71 1.71 0 011.196 1.286 16.6 16.6 0 01.073 2.511c.05.596.143 1.187.277 1.77.209.767.03 1.588-.477 2.2-.038.036-.08.063-.121.095.016.011.029.027.045.038a1.833 1.833 0 002.274-.133 2.44 2.44 0 00.48-2.2z" fill="#F9B2A8"/><path d="M34.085 30.301a14.618 14.618 0 01-7.759 5.713 10.483 10.483 0 01.39-3.916 4.336 4.336 0 013.996-2.64 7.53 7.53 0 013.373.843z" fill="#FFCFC9"/><path d="M30.712 29.458a4.983 4.983 0 00-.917.13 9.897 9.897 0 012.09.713 14.672 14.672 0 01-5.578 4.84c0 .29.006.581.02.872a14.618 14.618 0 007.758-5.712 7.53 7.53 0 00-3.373-.843z" fill="#F9B2A8"/><path d="M36.667 22a14.536 14.536 0 01-1.122 5.632 30.084 30.084 0 01-3.674-2.435c-1.247-1.02-2.538-2.266-2.538-3.99 0-1.569 1.313-2.991-.608-4.267l3.439-3.007h2.083A14.569 14.569 0 0136.667 22z" fill="#FFCFC9"/><path d="M34.247 13.933h-2.083l-.073.067a14.609 14.609 0 011.652 12.532c.593.378 1.199.739 1.802 1.1a14.67 14.67 0 00-1.298-13.699z" fill="#F9B2A8"/><path d="M24.2 7.495v3.476c-5.221-.125-7.414-1.467-8.28-2.317A14.502 14.502 0 0122 7.334c.736.001 1.472.055 2.2.16zm-7.406 11.447c-.734.865-1.797 1.386-2.391 2.39a5.699 5.699 0 00.169 6.337l-2.736 2.398H9.754a14.653 14.653 0 012.544-19.06c.594.338 1.188.682 1.782 1.02 1.394.799 2.721 1.62 3.3 3.212a3.667 3.667 0 01-.586 3.703z" fill="#FFCFC9"/><path d="M14.498 11.007l.009.005A14.544 14.544 0 0123.08 7.38a14.579 14.579 0 00-10.773 3.632l-.008-.005a14.662 14.662 0 00-2.545 19.06h2.2a14.662 14.662 0 012.544-19.06zM2.933 43.267h2.2a2.2 2.2 0 01-2.2-2.2v-8.8a2.2 2.2 0 012.2-2.2h-2.2a2.2 2.2 0 00-2.2 2.2v8.8a2.2 2.2 0 002.2 2.2z" fill="#fff"/><path d="M0 32.267h1.467v5.866H0v-5.866z" fill="#fff"/><path d="M22 7.311a.733.733 0 00-.77-.696 15.22 15.22 0 00-5.59 1.361l-.023.01a15.59 15.59 0 00-3.76 2.436l-.005.004-.035.03A15.4 15.4 0 006.6 22a15.08 15.08 0 00.979 5.393.733.733 0 101.37-.52A13.66 13.66 0 018.066 22a13.917 13.917 0 014.348-10.081l1.299.743c1.393.801 2.5 1.518 2.978 2.83.407 1 .23 2.144-.458 2.976a7.435 7.435 0 01-.935.867c-.6.445-1.117.993-1.526 1.62a6.873 6.873 0 00-.976 3.764.733.733 0 00.733.705h.028a.733.733 0 00.705-.76 5.403 5.403 0 01.771-2.958 5.143 5.143 0 011.203-1.242 8.668 8.668 0 001.119-1.05 4.417 4.417 0 00.714-4.426c-.698-1.917-2.32-2.849-3.628-3.599l-.854-.489a14.17 14.17 0 012.226-1.37c.911.721 2.523 1.54 5.353 1.94a.733.733 0 00.205-1.452 11.454 11.454 0 01-3.95-1.179 13.78 13.78 0 013.886-.758.733.733 0 00.693-.77zM41.067 0H26.4a2.933 2.933 0 00-2.933 2.933v8.8a2.933 2.933 0 002.933 2.934h.453l-.447 3.575a.734.734 0 001.21.643l4.824-4.218h8.627A2.933 2.933 0 0044 11.733v-8.8A2.933 2.933 0 0041.067 0zm1.466 11.733c0 .81-.656 1.467-1.466 1.467h-8.903a.734.734 0 00-.482.181L28.1 16.514l.31-2.49a.733.733 0 00-.727-.824H26.4c-.81 0-1.466-.657-1.466-1.467v-8.8c0-.81.656-1.466 1.466-1.466h14.667c.81 0 1.466.656 1.466 1.466v8.8z" fill="#DF5643"/><path d="M28.6 5.133a2.2 2.2 0 100 4.4 2.2 2.2 0 000-4.4zm0 2.934a.733.733 0 110-1.467.733.733 0 010 1.467zm5.133-2.934a2.2 2.2 0 100 4.4 2.2 2.2 0 000-4.4zm0 2.934a.733.733 0 110-1.467.733.733 0 010 1.467zm5.134-2.934a2.2 2.2 0 100 4.4 2.2 2.2 0 000-4.4zm0 2.934a.733.733 0 110-1.467.733.733 0 010 1.467zM.748 35.934a.733.733 0 01-.008-1.467h.008a.733.733 0 110 1.467z" fill="#DF5643"/><path d="M2.933 44H17.6a2.933 2.933 0 002.933-2.933v-8.8a2.933 2.933 0 00-2.933-2.934h-.453l.447-3.575a.733.733 0 00-1.21-.643l-4.824 4.218H2.933A2.933 2.933 0 000 32.267a.733.733 0 101.467 0c0-.81.656-1.467 1.466-1.467h8.903a.734.734 0 00.482-.181l3.582-3.133-.31 2.49a.733.733 0 00.727.824H17.6c.81 0 1.467.657 1.467 1.467v8.8c0 .81-.657 1.466-1.467 1.466H2.933c-.81 0-1.466-.656-1.466-1.466v-2.934a.733.733 0 00-1.467 0v2.934A2.933 2.933 0 002.933 44z" fill="#DF5643"/><path d="M17.6 36.667a2.2 2.2 0 10-4.4 0 2.2 2.2 0 004.4 0zm-2.933 0a.733.733 0 111.466 0 .733.733 0 01-1.466 0zm-2.201 0a2.2 2.2 0 10-4.4 0 2.2 2.2 0 004.4 0zm-2.933 0a.733.733 0 111.467 0 .733.733 0 01-1.467 0zm-2.199 0a2.2 2.2 0 10-4.4 0 2.2 2.2 0 004.4 0zm-2.934 0a.733.733 0 111.467 0 .733.733 0 01-1.467 0zm26.287-7.943c-1.8.064-3.941 1.057-4.664 3.13a10.175 10.175 0 00-.446 3.608c-.94.252-1.905.403-2.878.45a.734.734 0 00.034 1.467h.035a14.92 14.92 0 003.773-.66 15.393 15.393 0 008.146-5.998 15.366 15.366 0 001.733-14.115.733.733 0 10-1.37.52 13.808 13.808 0 01.11 9.42c-.987-.57-1.93-1.21-2.825-1.915-1.178-.965-2.268-2.044-2.268-3.423.009-.292.051-.581.127-.863a.733.733 0 00-1.427-.342c-.103.393-.16.798-.167 1.205 0 1.995 1.42 3.422 2.806 4.556a26.421 26.421 0 003.19 2.153c-.237.503-.504.99-.8 1.46a7.59 7.59 0 00-3.11-.652zm-3.647 6.26a7.942 7.942 0 01.366-2.645c.492-1.413 2.071-2.104 3.333-2.148a5.55 5.55 0 012.195.423 13.934 13.934 0 01-5.894 4.37z" fill="#DF5643"/><path d="M27.091 21.301a2.64 2.64 0 00-2.588-2.042c-1.637-.114-3.86.667-4.756 2.347-.964 1.81.449 3.276 1.08 3.93.382.378.737.782 1.063 1.209.083.114.164.23.245.348.37.607.855 1.136 1.426 1.558.44.296.96.455 1.49.457a2.446 2.446 0 001.697-.67c.459-.436.953-1.285.694-2.849-.032-.199-.073-.391-.11-.586a6.266 6.266 0 01-.156-1.088c-.008-.265 0-.532.004-.799a9.071 9.071 0 00-.089-1.815zm-1.35 6.078c-.39.328-.952.35-1.366.054a4.311 4.311 0 01-1.032-1.174 22.216 22.216 0 00-.262-.373 13.158 13.158 0 00-1.227-1.392c-.943-.979-1.155-1.553-.814-2.195a3.711 3.711 0 013.13-1.585c.073 0 .153 0 .228.008.513.037 1.147.279 1.246.838a7.87 7.87 0 01.066 1.534c-.006.29-.012.58-.004.868.021.45.083.9.185 1.339.035.174.074.35.1.53a1.823 1.823 0 01-.25 1.548z" fill="#DF5643"/></g><defs><clipPath id="clip0_157_7162"><path fill="#fff" d="M0 0h44v44H0z"/></clipPath></defs></svg>