<svg width="88" height="88" fill="none" xmlns="http://www.w3.org/2000/svg"><path d="M3.781 8.685l2.393 1.696a18.314 18.314 0 00-2.407 4.82 19.525 19.525 0 00-.826 5.329H0c.03-2.107.354-4.2.964-6.217a21.25 21.25 0 012.817-5.628z" fill="#fff"/><path d="M50.294 37.094L39.598 47.791l-1.89-1.89a1.468 1.468 0 00-2.08 2.067l2.934 2.934a1.466 1.466 0 002.073 0L52.368 39.17a1.468 1.468 0 00-2.074-2.075zM2.406 16.21a1.467 1.467 0 01-.013-2.933h.013a1.468 1.468 0 110 2.934z" fill="#2E4939"/><path d="M67.463 46.932h-.202a23.32 23.32 0 00-26.197-26.196v-.203A20.554 20.554 0 0020.533 0c-3.282.02-6.514.81-9.436 2.306a20.624 20.624 0 00-7.316 6.378 1.428 1.428 0 00.4 2.08 1.516 1.516 0 001.992-.383 17.675 17.675 0 016.275-5.469 18.047 18.047 0 018.078-1.978 17.618 17.618 0 0117.6 17.6c0 .272-.01.527-.02.776a23.362 23.362 0 00-8.519 4.209 10.017 10.017 0 00-2.599-1.414 10.266 10.266 0 10-12.92 0 10.28 10.28 0 00-6.624 8.16 17.508 17.508 0 01-4.517-11.732 1.467 1.467 0 10-2.934 0 20.495 20.495 0 007.755 16.044c.024.026.058.038.082.062a20.55 20.55 0 006.227 3.374l.091.032a20.4 20.4 0 006.378 1.02h.203A23.319 23.319 0 0046.932 67.26v.203a20.492 20.492 0 007.755 16.045c.024.024.056.038.082.062a20.494 20.494 0 006.225 3.372c.03.014.06.022.091.034a20.324 20.324 0 0012.76 0c.03-.012.062-.02.09-.034a20.494 20.494 0 006.226-3.372c.026-.024.06-.038.082-.062a20.512 20.512 0 00-12.78-36.577zm0 23.465a7.293 7.293 0 01-6.891-9.808 23.618 23.618 0 003.03-3.737 7.218 7.218 0 013.861-1.12 7.334 7.334 0 110 14.665zM13.2 16.133a7.334 7.334 0 1114.668-.003 7.334 7.334 0 01-14.668.003zm7.334 22a17.585 17.585 0 01-4.4-.58v-3.82a1.468 1.468 0 10-2.934 0v2.786a17.518 17.518 0 01-2.933-1.72v-1.072a7.342 7.342 0 017.333-7.328h5.866a7.218 7.218 0 013.862 1.114 23.439 23.439 0 00-6.015 10.6c-.253.01-.516.02-.779.02zm2.932 5.865a20.533 20.533 0 1141.066 0 20.533 20.533 0 01-41.066 0zm26.4 23.465c0-.273.008-.527.018-.776a23.33 23.33 0 007.334-3.314 10.245 10.245 0 003.796 7.66 10.279 10.279 0 00-6.629 8.164 17.513 17.513 0 01-4.52-11.734zm13.198 17.015v-3.815a1.466 1.466 0 10-2.931 0v2.788a17.677 17.677 0 01-2.934-1.719v-1.074a7.34 7.34 0 017.333-7.332h5.866a7.34 7.34 0 017.334 7.332v1.067a17.671 17.671 0 01-2.934 1.719v-2.781a1.468 1.468 0 00-2.934 0v3.814a17.015 17.015 0 01-8.8 0v.001zm17.483-5.281a10.286 10.286 0 00-6.629-8.164 10.266 10.266 0 00-6.454-18.235c-.6.004-1.2.061-1.79.172a23.5 23.5 0 001.013-3.094 17.57 17.57 0 0113.86 29.32zM52.369 1.89a1.468 1.468 0 00-2.075 0L45.89 6.297a1.468 1.468 0 000 2.074l4.4 4.4a1.468 1.468 0 102.08-2.075l-1.826-1.823a35.233 35.233 0 0133.054 35.126 1.467 1.467 0 002.934 0A38.179 38.179 0 0050.418 5.921l1.95-1.95a1.469 1.469 0 000-2.08zM4.4 43.998a1.468 1.468 0 00-2.934 0 38.179 38.179 0 0036.113 38.078l-1.95 1.95a1.47 1.47 0 00-.07 2.106 1.469 1.469 0 002.107.005l.037-.036 4.4-4.4a1.468 1.468 0 000-2.074l-4.4-4.4a1.467 1.467 0 00-2.075 2.074l1.825 1.824A35.232 35.232 0 014.4 43.998z" fill="#2E4939"/></svg>