<svg width="87" height="87" fill="none" xmlns="http://www.w3.org/2000/svg"><path d="M30.878 62.33a1.7 1.7 0 00-.375-.062 10.86 10.86 0 003.008-7.506v-8.94c0-.081-.008-.161-.02-.24a7.04 7.04 0 00.02-.488v-5.656a1.7 1.7 0 00-1.7-1.699H20.414c-4.8 0-8.704 3.905-8.704 8.704v8.32c0 2.906 1.146 5.549 3.008 7.505a1.697 1.697 0 00-.375.062C6.313 63.057 0 69.825 0 78.04v7.26c0 .939.76 1.7 1.7 1.7h41.822a1.7 1.7 0 001.699-1.7v-7.259c0-8.216-6.313-14.984-14.343-15.711zm-15.77-13.732v-2.155a5.312 5.312 0 015.306-5.306h9.698v3.957a3.617 3.617 0 01-3.612 3.613H15.109v-.11zm0 3.507H26.5c1.32 0 2.556-.367 3.612-1.005v3.662c0 4.136-3.365 7.502-7.502 7.502-4.136 0-7.501-3.366-7.501-7.502v-2.657zm11.2 13.557l-3.698 3.699-3.698-3.699h7.397zm15.514 17.94H3.398v-3.399h7.052a1.7 1.7 0 100-3.398H3.46c.571-5.73 5.065-10.318 10.749-11.04l7.2 7.2a1.7 1.7 0 002.403 0l7.2-7.2c6.087.774 10.81 5.982 10.81 12.276v5.56zM72.658 24.59a1.694 1.694 0 00-.376-.06 10.859 10.859 0 003.008-7.507v-8.94c0-.082-.008-.161-.02-.24a7.04 7.04 0 00.02-.488V1.7a1.7 1.7 0 00-1.7-1.7H62.193c-4.8 0-8.704 3.905-8.704 8.704v8.319a10.86 10.86 0 003.008 7.506 1.702 1.702 0 00-.376.062c-8.03.727-14.342 7.495-14.342 15.71v7.26c0 .939.76 1.7 1.7 1.7H57.15a1.7 1.7 0 100-3.399H45.178v-5.56c0-6.294 4.722-11.502 10.81-12.276l7.2 7.2a1.695 1.695 0 002.403 0l7.2-7.2c6.088.774 10.81 5.982 10.81 12.276v5.56H71.085a1.7 1.7 0 100 3.399H85.3A1.7 1.7 0 0087 47.56v-7.259c0-8.216-6.313-14.984-14.342-15.711zm-8.268 7.032l-3.699-3.699h7.397l-3.698 3.699zm7.501-14.6c0 4.137-3.365 7.503-7.501 7.503-4.137 0-7.502-3.365-7.502-7.502v-2.657h11.39a6.958 6.958 0 003.613-1.005v3.662zm0-9.667a3.617 3.617 0 01-3.612 3.613H56.888V8.704a5.312 5.312 0 015.305-5.306h9.698v3.957z" fill="#55B4ED"/><path d="M65.591 46.36a1.712 1.712 0 00-1.2-.498 1.71 1.71 0 00-1.202.498 1.702 1.702 0 001.201 2.9 1.703 1.703 0 001.699-1.698c0-.448-.181-.886-.498-1.202zM45.438 23.777l-7.106-7.106V8.496C38.332 3.811 34.52 0 29.836 0H8.496C3.811 0 0 3.811 0 8.496V23.45c0 4.685 3.811 8.496 8.496 8.496h21.34a8.448 8.448 0 007.861-5.267h6.54a1.7 1.7 0 001.201-2.901zm-8.98-.498a1.7 1.7 0 00-1.657 1.319 5.07 5.07 0 01-4.966 3.949H8.496a5.103 5.103 0 01-5.098-5.098V8.496a5.103 5.103 0 015.098-5.098h21.34a5.103 5.103 0 015.097 5.098v8.879c0 .45.18.882.498 1.201l4.703 4.703h-3.677zm42.046 31.776h-21.34a8.448 8.448 0 00-7.861 5.267h-6.54a1.7 1.7 0 00-1.201 2.901l7.106 7.106v8.175c0 4.685 3.812 8.496 8.496 8.496h21.34C83.189 87 87 83.189 87 78.504V63.55c0-4.685-3.811-8.496-8.496-8.496zm5.098 23.449a5.103 5.103 0 01-5.098 5.098h-21.34a5.103 5.103 0 01-5.097-5.098v-8.879a1.7 1.7 0 00-.498-1.201l-4.703-4.703h3.677a1.7 1.7 0 001.656-1.318 5.07 5.07 0 014.966-3.95h21.339a5.103 5.103 0 015.098 5.098v14.953z" fill="#55B4ED"/><path d="M75.472 66.506a1.699 1.699 0 00-2.403 0l-4.517 4.517-2.1-2.1a1.7 1.7 0 00-2.404 2.403l3.302 3.302a1.695 1.695 0 002.403 0l5.719-5.719a1.7 1.7 0 000-2.403zM26.89 11.26a5.906 5.906 0 00-5.463-5.463 5.843 5.843 0 00-4.433 1.57 5.912 5.912 0 00-1.872 4.308 1.7 1.7 0 003.399 0c0-.699.281-1.346.792-1.823a2.493 2.493 0 014.187 1.643 2.483 2.483 0 01-1.938 2.612 2.854 2.854 0 00-2.248 2.798v.907a1.7 1.7 0 103.399 0v-.495a5.86 5.86 0 004.178-6.057zm-4.674 11.853a1.712 1.712 0 00-1.202-.498 1.71 1.71 0 00-1.201.498 1.704 1.704 0 00-.498 1.201 1.703 1.703 0 001.699 1.699c.447 0 .886-.182 1.202-.498a1.71 1.71 0 00.497-1.2 1.71 1.71 0 00-.497-1.202zm-3.768 54.19a1.712 1.712 0 00-1.2-.498c-.448 0-.886.181-1.202.498a1.712 1.712 0 00-.498 1.2c0 .448.182.886.498 1.202.316.316.754.498 1.201.498.447 0 .885-.182 1.201-.498.317-.316.498-.754.498-1.201 0-.447-.181-.885-.498-1.201z" fill="#55B4ED"/></svg>