<svg width="56" height="72" fill="none" xmlns="http://www.w3.org/2000/svg"><path d="M55.467 59.593c-.16-9.785-10.165-12.676-17.47-14.787a148.26 148.26 0 01-2.44-.72V40.05a14.385 14.385 0 003.857-3.547h4.45a3.954 3.954 0 003.95-3.949v-4.78a5.07 5.07 0 00.41-2.005v-1.486c0-.71-.146-1.388-.41-2.003v-2.466C47.814 8.89 38.925 0 28 0 17.077 0 8.19 8.889 8.19 19.814v2.396c0 .019.002.037.003.056a5.064 5.064 0 00-.417 2.017v1.487a5.101 5.101 0 005.093 5.097h1.162a14.312 14.312 0 006.412 9.182v4.037c-.768.237-1.588.474-2.44.72-7.305 2.11-17.31 5.002-17.47 14.787v11.001c0 .776.63 1.406 1.406 1.406h4.17a1.406 1.406 0 000-2.813H3.346v-9.56c.059-3.413 1.627-5.973 4.935-8.053 2.182-1.373 4.85-2.351 7.48-3.17l3.399 6.62a1.42 1.42 0 002.037.524l1.515-1.022 1.3 4.889-2.228 9.772h-3.048a1.406 1.406 0 000 2.813h35.325c.776 0 1.406-.63 1.406-1.406V59.593zM37.216 47.508l.28.08-2.43 4.742-4.55-3.068 3.855-2.6c.895.282 1.847.557 2.845.846zm-9.215 3.45l2.82 1.902-1.363 5.122h-2.916l-1.362-5.12L28 50.958zm0-3.392l-4.745-3.2v-2.96c1.485.525 3.081.813 4.744.813 1.663 0 3.259-.287 4.744-.812v2.96l-4.743 3.2zm11.456-27.495l-.058-.036c-2.886-1.837-5.378-3.424-9.283-2.306a1.44 1.44 0 00-.107.035c-.828.311-1.58.601-2.309.881-4.447 1.712-6.875 2.647-11.157 2.527v-1.127c0-6.317 5.14-11.457 11.457-11.457 6.317 0 11.456 5.14 11.456 11.458v.026zM45 32.555c0 .627-.51 1.137-1.137 1.137h-2.802a14.15 14.15 0 00.907-2.824h1.162c.66 0 1.29-.128 1.87-.358v2.045zm.41-6.785a2.285 2.285 0 01-2.28 2.285h-.863l.001-6.052h.862a2.283 2.283 0 012.281 2.28v1.488zm-32.54 2.286a2.285 2.285 0 01-2.28-2.285v-1.487a2.283 2.283 0 012.28-2.281h.862l.001 6.053h-.863zm.888-8.866h-.888c-.658 0-1.285.127-1.863.355.145-9.25 7.712-16.731 16.994-16.731 9.285 0 16.853 7.481 16.998 16.732a5.064 5.064 0 00-1.867-.356h-.888C41.798 11.718 35.58 5.776 28 5.776s-13.799 5.942-14.243 13.413zm2.87 10.129v-.004a11.52 11.52 0 01-.084-1.364v-3.966c4.812.117 7.682-.987 12.167-2.714a295.99 295.99 0 012.233-.852c2.656-.741 4.185.232 6.946 1.99.479.304 1.004.639 1.568.982v4.56c0 2.091-.566 4.052-1.549 5.74H28a1.406 1.406 0 000 2.813h7.611A11.408 11.408 0 0128 39.407c-5.854 0-10.694-4.415-11.372-10.089zm4.311 23.012l-2.434-4.741.28-.081c.998-.289 1.95-.564 2.846-.846l3.856 2.6-4.548 3.068zm3.73 16.858l1.915-8.393h2.835l1.916 8.392H24.67zm27.986 0H34.22l-2.232-9.774 1.302-4.89 1.518 1.024a1.42 1.42 0 002.038-.524l3.394-6.62c2.63.819 5.298 1.797 7.48 3.17 3.308 2.08 4.876 4.64 4.936 8.054v9.56z" fill="#55B4ED"/><path d="M47.101 62.156h-7.087a1.406 1.406 0 000 2.812H47.1a1.406 1.406 0 000-2.812zm-34.678 7.032a1.406 1.406 0 000 2.812h.004a1.405 1.405 0 10-.004-2.812z" fill="#55B4ED"/></svg>