<svg width="100" height="100" fill="none" xmlns="http://www.w3.org/2000/svg"><path d="M75.93 96.586c-1.26 1.26-.368 3.414 1.414 3.414H98a2 2 0 002-2V77.345c0-1.782-2.154-2.674-3.414-1.414L75.93 96.586zM24.07 3.414C25.33 2.154 24.438 0 22.656 0H2a2 2 0 00-2 2v20.655c0 1.782 2.154 2.674 3.414 1.414L24.07 3.414zm53.286 43.355c-2.018-1.664-5.21-1.807-7.303.44l-5.2 5.582a5.316 5.316 0 00-5.067-3.734h-9.278c-.704 0-.94-.269-2.163-1.21-4.663-4.065-11.666-4.052-16.314.038l-3.41 3.003a5.284 5.284 0 00-4.864-.062l-3.912 1.955a1.77 1.77 0 00-.791 2.374L29.667 76.38a1.77 1.77 0 002.373.792l3.912-1.957c1.928-.963 3-2.93 2.931-4.932h20.902a12.44 12.44 0 009.906-4.953l8.49-11.322c1.648-2.195 1.388-5.413-.825-7.24zM34.37 72.052l-2.329 1.164-9.031-18.061 2.33-1.165a1.768 1.768 0 012.373.791L35.16 69.68a1.769 1.769 0 01-.79 2.373zm40.983-20.167L66.86 63.208a8.885 8.885 0 01-7.075 3.537H37.65l-6.63-13.257 3.348-2.947c3.331-2.93 8.355-2.93 11.686 0 1.962 1.727 3.182 2.054 4.454 2.054h9.277a1.77 1.77 0 011.77 1.769c0 .975-.794 1.769-1.77 1.769h-9.033a1.77 1.77 0 000 3.537H60.97a5.321 5.321 0 003.884-1.69l7.787-8.359c.712-.764 1.804-.7 2.474-.114.7.613.776 1.661.237 2.378zM56.06 29.053a7.047 7.047 0 001.956-4.878c0-3.893-3.145-7.193-7.075-7.193-3.9 0-7.193 3.294-7.193 7.193 0 1.833.719 3.563 2.023 4.892-3.235 1.813-5.56 5.294-5.56 9.377v1.768a1.77 1.77 0 001.769 1.77h17.805a1.77 1.77 0 001.77-1.77v-1.768a10.782 10.782 0 00-5.496-9.391zm-5.12-8.533c1.918 0 3.538 1.675 3.538 3.655a3.542 3.542 0 01-3.538 3.538c-1.98 0-3.655-1.62-3.655-3.538 0-1.946 1.709-3.655 3.655-3.655zm-7.193 17.924c0-3.9 3.294-7.193 7.194-7.193s7.075 3.226 7.075 7.193H43.748z" fill="#55B4ED"/></svg>