<svg width="17" height="12" fill="none" xmlns="http://www.w3.org/2000/svg"><path d="M15.506 0H1.494C.67 0 0 .673 0 1.494v8.965c0 .826.674 1.494 1.494 1.494h14.012c.819 0 1.494-.665 1.494-1.494V1.494C17 .674 16.334 0 15.506 0zm-.21.996l-5.74 5.71a1.484 1.484 0 01-1.056.438c-.4 0-.774-.156-1.057-.439L1.703.996h13.594zm-14.3 9.26V1.698L5.3 5.979.996 10.256zm.708.701l4.303-4.275.732.728c.47.47 1.096.73 1.761.73.665 0 1.29-.26 1.76-.729l.733-.73 4.303 4.276H1.704zm14.3-.7l-4.305-4.278 4.305-4.281v8.558z" fill="#fff"/></svg>