<svg width="98" height="98" fill="none" xmlns="http://www.w3.org/2000/svg"><path d="M.13 67.863a1.624 1.624 0 001.277 1.46l5.663 1.221c.2.965.454 1.918.76 2.847l-4.286 3.884a1.624 1.624 0 00-.375 1.903 32.494 32.494 0 002.593 4.525c.407.589 1.15.842 1.835.623l5.504-1.773a26.062 26.062 0 002.096 2.096l-1.773 5.504c-.22.68.033 1.427.623 1.835a32.501 32.501 0 004.525 2.593c.65.309 1.422.154 1.903-.375l3.884-4.287c.93.306 1.883.56 2.848.76l1.222 5.664a1.63 1.63 0 001.458 1.277c.864.068 1.73.13 2.613.13.882 0 1.748-.062 2.613-.13a1.624 1.624 0 001.46-1.277l1.221-5.663c.966-.2 1.92-.454 2.849-.761l3.884 4.287a1.623 1.623 0 001.902.375 32.657 32.657 0 004.526-2.593c.59-.408.842-1.154.623-1.835l-1.773-5.504a26.29 26.29 0 002.096-2.094l5.504 1.772a1.623 1.623 0 001.834-.622 32.495 32.495 0 002.594-4.526 1.624 1.624 0 00-.375-1.903l-4.287-3.883c.305-.931.56-1.884.76-2.849l5.663-1.222a1.627 1.627 0 001.278-1.457c.066-.867.128-1.733.128-2.615 0-.882-.062-1.749-.13-2.613a1.624 1.624 0 00-1.277-1.46l-5.663-1.221a25.71 25.71 0 00-.76-2.849l4.286-3.884a1.624 1.624 0 00.375-1.903 32.653 32.653 0 00-2.593-4.525 1.623 1.623 0 00-1.835-.623L51.9 47.945a26.062 26.062 0 00-2.096-2.096l1.773-5.504a1.625 1.625 0 00-.623-1.834 32.507 32.507 0 00-4.525-2.594 1.622 1.622 0 00-1.903.375l-3.884 4.287a26.146 26.146 0 00-2.848-.76l-1.222-5.663a1.627 1.627 0 00-1.458-1.278 33.02 33.02 0 00-5.228 0 1.624 1.624 0 00-1.459 1.278l-1.222 5.663c-.965.2-1.917.453-2.847.76l-3.884-4.287a1.624 1.624 0 00-1.902-.375 32.501 32.501 0 00-4.526 2.593 1.625 1.625 0 00-.623 1.835l1.773 5.504a26.03 26.03 0 00-2.096 2.096l-5.502-1.773a1.621 1.621 0 00-1.835.623A32.494 32.494 0 003.17 51.32a1.624 1.624 0 00.375 1.903l4.287 3.884c-.306.931-.56 1.883-.76 2.849l-5.664 1.222c-.7.15-1.219.744-1.277 1.457-.068.866-.13 1.733-.13 2.615 0 .882.062 1.748.13 2.613zm3.154-3.765l5.528-1.195a1.626 1.626 0 001.261-1.327 22.648 22.648 0 011.169-4.373 1.623 1.623 0 00-.43-1.78l-4.174-3.782c.364-.698.744-1.365 1.138-1.998l5.356 1.726a1.63 1.63 0 001.756-.517 22.852 22.852 0 013.214-3.214c.517-.422.724-1.12.517-1.756l-1.726-5.356a28.817 28.817 0 011.998-1.138l3.783 4.176c.45.496 1.158.666 1.78.43a22.602 22.602 0 014.372-1.17 1.625 1.625 0 001.328-1.26l1.192-5.528a21.117 21.117 0 012.306 0l1.194 5.528a1.625 1.625 0 001.328 1.26c1.498.245 2.969.638 4.373 1.17.62.236 1.33.068 1.78-.43l3.782-4.174c.697.364 1.365.744 1.997 1.137l-1.725 5.356c-.205.637 0 1.333.517 1.757a22.847 22.847 0 013.214 3.214 1.62 1.62 0 001.756.517l5.356-1.726c.395.632.776 1.298 1.138 1.995l-4.176 3.783a1.625 1.625 0 00-.43 1.782c.532 1.4.925 2.87 1.169 4.37.107.66.608 1.187 1.261 1.328l5.528 1.193c.021.382.036.767.036 1.154 0 .387-.013.772-.034 1.152l-5.528 1.194a1.626 1.626 0 00-1.261 1.328 22.655 22.655 0 01-1.169 4.373 1.623 1.623 0 00.43 1.78l4.174 3.782a30.604 30.604 0 01-1.138 1.997l-5.356-1.725a1.617 1.617 0 00-1.756.516 22.938 22.938 0 01-3.215 3.215 1.624 1.624 0 00-.516 1.755l1.725 5.356c-.632.395-1.298.775-1.995 1.137l-3.783-4.176a1.63 1.63 0 00-1.781-.43c-1.4.532-2.871.925-4.371 1.17a1.625 1.625 0 00-1.328 1.26l-1.193 5.529a21.37 21.37 0 01-2.306 0l-1.194-5.529a1.625 1.625 0 00-1.328-1.26 22.657 22.657 0 01-4.372-1.17 1.621 1.621 0 00-1.78.43l-3.783 4.175a30.56 30.56 0 01-1.997-1.138l1.726-5.356c.205-.637 0-1.332-.517-1.757a22.851 22.851 0 01-3.214-3.214 1.623 1.623 0 00-1.757-.517l-5.356 1.726a28.774 28.774 0 01-1.137-1.997l4.176-3.783a1.625 1.625 0 00.429-1.781 22.544 22.544 0 01-1.168-4.371 1.625 1.625 0 00-1.261-1.328l-5.532-1.19c-.02-.381-.034-.766-.034-1.153s.013-.772.034-1.152zm81.572-40.716a1.624 1.624 0 001.126-1.364c.097-.82.143-1.563.143-2.268 0-.705-.046-1.448-.141-2.269a1.624 1.624 0 00-1.126-1.363l-4.507-1.415a14.11 14.11 0 00-.448-1.086l2.184-4.184a1.629 1.629 0 00-.166-1.76 19.674 19.674 0 00-3.216-3.216 1.629 1.629 0 00-1.76-.167l-4.187 2.184a14.758 14.758 0 00-1.086-.447L70.257 1.52A1.624 1.624 0 0068.893.395a17.976 17.976 0 00-4.538 0A1.624 1.624 0 0062.99 1.52l-1.415 4.506c-.369.135-.731.284-1.085.448L56.305 4.29a1.632 1.632 0 00-1.76.166 19.674 19.674 0 00-3.215 3.216 1.626 1.626 0 00-.168 1.76l2.183 4.184a14.14 14.14 0 00-.447 1.086l-4.507 1.415a1.624 1.624 0 00-1.126 1.363 19.425 19.425 0 00-.141 2.269c0 .705.045 1.448.141 2.268a1.624 1.624 0 001.127 1.364l4.506 1.415c.134.369.284.731.448 1.086l-2.184 4.184a1.629 1.629 0 00.166 1.76 19.673 19.673 0 003.216 3.216 1.629 1.629 0 001.76.167l4.184-2.182c.354.162.717.312 1.086.447l1.415 4.506a1.624 1.624 0 001.363 1.126c.824.097 1.567.143 2.272.143.705 0 1.448-.046 2.269-.142a1.624 1.624 0 001.363-1.126l1.415-4.506a14.11 14.11 0 001.086-.448l4.184 2.184a1.625 1.625 0 001.76-.166 19.676 19.676 0 003.216-3.216 1.626 1.626 0 00.167-1.76L79.9 25.885c.164-.354.314-.717.449-1.086l4.506-1.418zm-6.273-1.437a1.63 1.63 0 00-1.069 1.084 11.45 11.45 0 01-.868 2.103 1.62 1.62 0 00-.01 1.52l2.063 3.953a16.69 16.69 0 01-1.219 1.219l-3.952-2.063a1.625 1.625 0 00-1.521.01 11.45 11.45 0 01-2.103.868 1.63 1.63 0 00-1.084 1.07l-1.339 4.263a13.71 13.71 0 01-1.712 0l-1.34-4.264a1.63 1.63 0 00-1.083-1.069 11.295 11.295 0 01-2.101-.868 1.624 1.624 0 00-1.523-.01l-3.952 2.063a16.585 16.585 0 01-1.219-1.22l2.062-3.951a1.625 1.625 0 00-.01-1.521 11.45 11.45 0 01-.867-2.103 1.63 1.63 0 00-1.07-1.084l-4.263-1.339a13.046 13.046 0 010-1.713l4.264-1.338a1.63 1.63 0 001.069-1.084c.22-.736.513-1.443.868-2.101.255-.475.26-1.045.01-1.523L54.55 8.895a16.69 16.69 0 011.219-1.219l3.952 2.062a1.63 1.63 0 001.521-.01 11.446 11.446 0 012.103-.867 1.63 1.63 0 001.084-1.07l1.339-4.263a13.69 13.69 0 011.712 0l1.34 4.264a1.63 1.63 0 001.083 1.069c.736.22 1.443.513 2.101.868.475.255 1.045.26 1.523.01l3.952-2.063c.427.385.835.793 1.219 1.219l-2.062 3.952a1.625 1.625 0 00.01 1.52c.354.662.646 1.37.867 2.104a1.63 1.63 0 001.07 1.084l4.263 1.338a13.046 13.046 0 010 1.713l-4.264 1.34zM96.3 53.816l-2.791-.99c-.16-.454-.341-.898-.548-1.328l1.27-2.674a1.618 1.618 0 00-.189-1.696 16.356 16.356 0 00-2.793-2.795 1.626 1.626 0 00-1.698-.189l-2.675 1.27a13.006 13.006 0 00-1.326-.547l-.993-2.791a1.629 1.629 0 00-1.336-1.07c-1.448-.173-2.496-.173-3.944 0a1.623 1.623 0 00-1.335 1.07l-.992 2.791c-.453.16-.897.342-1.327.548l-2.674-1.269a1.626 1.626 0 00-1.696.188 16.353 16.353 0 00-2.795 2.794 1.628 1.628 0 00-.189 1.698l1.27 2.675c-.205.429-.389.872-.546 1.326l-2.792.993c-.58.206-.995.724-1.07 1.335-.089.72-.131 1.365-.131 1.97 0 .604.042 1.248.13 1.971.073.611.488 1.13 1.07 1.336l2.791.991c.16.453.341.897.548 1.328l-1.27 2.673a1.618 1.618 0 00.189 1.696 16.356 16.356 0 002.793 2.795 1.628 1.628 0 001.698.189l2.675-1.27c.43.205.873.389 1.326.547l.993 2.791c.207.58.725.995 1.336 1.07.723.09 1.367.133 1.971.133.605 0 1.248-.042 1.971-.13a1.623 1.623 0 001.336-1.07l.991-2.791c.453-.16.897-.341 1.328-.548l2.673 1.27a1.614 1.614 0 001.696-.19 16.353 16.353 0 002.795-2.792 1.628 1.628 0 00.189-1.699l-1.27-2.674c.206-.43.39-.873.547-1.326l2.791-.993c.58-.207.995-.725 1.07-1.336.09-.723.133-1.367.133-1.971 0-.605-.042-1.248-.13-1.971a1.626 1.626 0 00-1.07-1.338zm-2.066 3.902l-2.576.915c-.499.177-.88.586-1.022 1.097a9.667 9.667 0 01-.902 2.189c-.26.46-.28 1.019-.053 1.496l1.166 2.459c-.27.296-.552.578-.846.847l-2.459-1.167a1.63 1.63 0 00-1.497.053 9.675 9.675 0 01-2.187.902 1.63 1.63 0 00-1.098 1.022l-.915 2.576c-.394.021-.793.021-1.186 0l-.915-2.576a1.625 1.625 0 00-1.097-1.022 9.671 9.671 0 01-2.19-.902 1.638 1.638 0 00-1.496-.053l-2.458 1.166a13 13 0 01-.847-.846l1.167-2.459a1.624 1.624 0 00-.054-1.496 9.674 9.674 0 01-.902-2.188 1.631 1.631 0 00-1.022-1.098l-2.576-.915a8.962 8.962 0 01-.019-.593c0-.2.007-.398.016-.593l2.576-.917a1.62 1.62 0 001.02-1.097 9.715 9.715 0 01.904-2.188c.26-.46.28-1.02.053-1.497l-1.166-2.459c.27-.296.552-.578.846-.846l2.459 1.166a1.62 1.62 0 001.497-.053 9.675 9.675 0 012.187-.902 1.63 1.63 0 001.098-1.022l.915-2.576c.394-.021.793-.021 1.186 0l.915 2.576c.177.499.587.88 1.097 1.022a9.671 9.671 0 012.19.902 1.62 1.62 0 001.496.053l2.458-1.166a13 13 0 01.847.846l-1.167 2.459a1.624 1.624 0 00.054 1.497 9.65 9.65 0 01.902 2.187c.141.51.523.92 1.022 1.098l2.576.915c.013.198.019.395.019.595 0 .2-.007.396-.016.593z" fill="#55B4ED"/><path d="M32.5 83.125c9.856 0 17.875-8.02 17.875-17.875 0-9.856-8.02-17.875-17.875-17.875-9.856 0-17.875 8.02-17.875 17.875 0 9.856 8.02 17.875 17.875 17.875zm0-32.5c8.063 0 14.625 6.562 14.625 14.625 0 8.063-6.562 14.625-14.625 14.625-8.063 0-14.625-6.562-14.625-14.625 0-8.063 6.562-14.625 14.625-14.625zM.036 38.208l2.496 2.082c7.44-8.923 18.362-14.04 29.968-14.04.827 0 1.653.047 2.478.099l-2.002 2.002 2.298 2.298 4.875-4.875a1.623 1.623 0 000-2.298l-4.875-4.875-2.298 2.298 2.209 2.208A42.279 42.279 0 0032.5 23C19.929 23 8.096 28.543.036 38.208zm66.589-26.583c-4.48 0-8.125 3.645-8.125 8.125s3.645 8.125 8.125 8.125 8.125-3.645 8.125-8.125-3.645-8.125-8.125-8.125zm0 13a4.881 4.881 0 01-4.875-4.875 4.881 4.881 0 014.875-4.875A4.881 4.881 0 0171.5 19.75a4.881 4.881 0 01-4.875 4.875zm14.625 26a6.507 6.507 0 00-6.5 6.5c0 3.585 2.915 6.5 6.5 6.5s6.5-2.915 6.5-6.5-2.915-6.5-6.5-6.5zm0 9.75a3.253 3.253 0 01-3.25-3.25 3.253 3.253 0 013.25-3.25 3.253 3.253 0 013.25 3.25 3.253 3.253 0 01-3.25 3.25zM96.194 5.157l-8.126-1.625a1.621 1.621 0 00-1.912 1.274l-1.625 8.125 3.186.639.876-4.374A24.383 24.383 0 0191 19.75c0 5.603-1.85 10.871-5.346 15.234l2.536 2.033a27.704 27.704 0 006.06-17.267 27.66 27.66 0 00-2.853-12.238l4.16.832.636-3.187z" fill="#55B4ED"/></svg>