<svg width="100" height="100" fill="none" xmlns="http://www.w3.org/2000/svg"><path d="M75.93 96.586c-1.26 1.26-.368 3.414 1.414 3.414H98a2 2 0 002-2V77.345c0-1.782-2.154-2.674-3.414-1.414L75.93 96.586zM24.07 3.414C25.33 2.154 24.438 0 22.656 0H2a2 2 0 00-2 2v20.655c0 1.782 2.154 2.674 3.414 1.414L24.07 3.414zm-2.608 64.275a3.175 3.175 0 002.25-.933l17.915-17.914 7.3 7.3a3.185 3.185 0 004.503 0l20.035-20.035v7.171a3.184 3.184 0 006.367 0l.003-14.859a3.184 3.184 0 00-3.184-3.184H61.792a3.184 3.184 0 100 6.368h7.172L51.179 49.388l-7.3-7.3a3.184 3.184 0 00-4.504 0L19.21 62.253a3.184 3.184 0 002.252 5.436zm55.188 6.368H21.461a3.184 3.184 0 000 6.368h55.19a3.184 3.184 0 100-6.368z" fill="#55B4ED"/></svg>