<svg width="100" height="100" fill="none" xmlns="http://www.w3.org/2000/svg"><path d="M51.124 76.762a7.25 7.25 0 01-2.424-.416l-16.05-5.66a.816.816 0 01-.544-.77V49.763a.816.816 0 01.785-.816c2.365-.07 4.715.408 6.864 1.397l2.49 1.135 9.244.497a3.564 3.564 0 01.278 7.09l-3.068.216 5.274.908 18.011-9.078a3.741 3.741 0 014.598 5.81L55.939 74.96a7.312 7.312 0 01-4.815 1.802zm-17.387-7.425l15.503 5.467a5.68 5.68 0 005.616-1.078L75.45 55.748a2.114 2.114 0 00-2.677-3.21l-18.305 9.23a.815.815 0 01-.505.075l-12.18-2.097a.816.816 0 01.082-1.618l9.734-.687a1.933 1.933 0 00-.2-3.835l-9.396-.505a.817.817 0 01-.294-.073l-2.628-1.197a13.89 13.89 0 00-5.343-1.255v18.76z" fill="#55B4ED"/><path d="M31.229 74.554h-8.217a2.516 2.516 0 01-2.512-2.513V49.244a2.514 2.514 0 012.512-2.513h8.216a2.516 2.516 0 012.514 2.513V72.04a2.516 2.516 0 01-2.513 2.513zm-8.217-26.19a.881.881 0 00-.88.88V72.04a.881.881 0 00.88.881h8.216a.882.882 0 00.882-.88V49.243a.882.882 0 00-.881-.88h-8.217z" fill="#55B4ED"/><path d="M27.12 71.087a2.69 2.69 0 11.009-5.379 2.69 2.69 0 01-.01 5.379zm0-3.744a1.057 1.057 0 10.008 2.117 1.057 1.057 0 00-.008-2.119v.002zm36.312-16.098h-6.217a2.358 2.358 0 01-2.379-2.393v-3.895a.816.816 0 111.632 0v3.895a.734.734 0 00.747.761h6.217c.5 0 1.071-.408 1.071-.761v-3.895a.816.816 0 011.632 0v3.895a2.639 2.639 0 01-2.703 2.393z" fill="#55B4ED"/><path d="M65.318 45.773H55.65a.816.816 0 01-.803-.671 10.67 10.67 0 00-2.783-5.21 11.182 11.182 0 1116.838 0A10.672 10.672 0 0066.12 45.1a.816.816 0 01-.803.672zm-9.008-1.632h8.35a12.676 12.676 0 013.018-5.324 9.552 9.552 0 10-14.382 0 12.678 12.678 0 013.014 5.324zm4.177 9.768a3.418 3.418 0 01-3.413-3.414.872.872 0 01.816-.88h5.195a.816.816 0 01.816.816 3.433 3.433 0 01-3.414 3.478zm-1.614-2.662a1.78 1.78 0 003.23 0h-3.23z" fill="#55B4ED"/><path d="M58.248 36.165a.815.815 0 01-.577-.24l-2.13-2.127a.815.815 0 111.153-1.153l1.554 1.554 5.686-5.685a.815.815 0 111.153 1.153l-6.262 6.261a.816.816 0 01-.577.237zM75.93 96.586c-1.26 1.26-.368 3.414 1.414 3.414H98a2 2 0 002-2V77.345c0-1.782-2.154-2.674-3.414-1.414L75.93 96.586zM24.07 3.414C25.33 2.154 24.438 0 22.656 0H2a2 2 0 00-2 2v20.655c0 1.782 2.154 2.674 3.414 1.414L24.07 3.414z" fill="#55B4ED"/></svg>