<svg width="77" height="77" fill="none" xmlns="http://www.w3.org/2000/svg"><path d="M62.614 16.788l-3.661-3.66-3.662 3.66-1.7-1.7 5.361-5.363 5.363 5.362-1.701 1.701z" fill="#55B4ED"/><path d="M57.75 12.028h2.406v13.234h-2.407V12.028z" fill="#55B4ED"/><path d="M64.968 40.902h-2.406v-5.174c9.077-1.852 15.277-10.278 14.346-19.495C75.975 7.015 68.218 0 58.951 0 49.689 0 41.93 7.015 40.998 16.233c-.931 9.217 5.269 17.643 14.346 19.495v5.174h-2.406V74.59h-4.813v-38.5h-12.03v38.5H31.28V45.715H19.25v28.874h-4.813V57.746H2.407v16.843H0v2.407h77v-2.407H64.967V40.902zM12.031 74.59H4.812V60.152h7.22v14.437zm16.844 0h-7.219V48.121h7.219v26.468zm16.843 0H38.5V38.496h7.218v36.093zm-2.406-56.546c0-8.348 6.555-15.224 14.894-15.622 8.338-.399 15.52 5.821 16.316 14.13.796 8.31-5.074 15.78-13.335 16.972l-1.031.148v7.231h-2.407v-7.23l-1.03-.149a15.714 15.714 0 01-13.407-15.48zm19.25 56.546h-7.219V43.31h7.219v31.28z" fill="#55B4ED"/><path d="M72.187 18.043c0-7.309-5.925-13.234-13.234-13.234-7.31 0-13.235 5.925-13.235 13.234 0 7.31 5.925 13.234 13.234 13.234 7.306-.008 13.226-5.928 13.235-13.234zm-24.063 0c0-5.98 4.848-10.828 10.828-10.828 5.98 0 10.829 4.848 10.829 10.828 0 5.98-4.848 10.828-10.829 10.828-5.977-.007-10.821-4.85-10.828-10.828zm-30.81 22.859h8.45l10.33-10.33v3.112H38.5v-7.219h-7.22v2.406h3.112l-9.625 9.625h-8.394L.386 53.253 2.02 55.02l15.294-14.118zm52.466 0H77v2.407h-7.22v-2.407zm0 4.813H77v2.406h-7.22v-2.406zm0 4.812H77v2.406h-7.22v-2.406zm0 4.813H77v2.406h-7.22V55.34zm0 4.812H77v2.406h-7.22v-2.406zm0 4.813H77v2.406h-7.22v-2.406zm0 4.812H77v2.406h-7.22v-2.406z" fill="#55B4ED"/></svg>