<svg width="14" height="14" fill="none" xmlns="http://www.w3.org/2000/svg"><path d="M12.895 9.218a7.99 7.99 0 01-2.512-.4c-.391-.135-.835-.031-1.093.231l-1.59 1.2C5.879 9.277 4.71 8.11 3.75 6.3l1.168-1.552c.294-.294.4-.724.273-1.127a8.013 8.013 0 01-.402-2.515A1.105 1.105 0 003.684 0H1.105C.495 0 0 .496 0 1.105 0 8.215 5.785 14 12.895 14c.61 0 1.105-.496 1.105-1.105v-2.572c0-.61-.496-1.105-1.105-1.105zm.368 3.677a.37.37 0 01-.368.368C6.19 13.263.737 7.81.737 1.105c0-.203.166-.368.368-.368h2.58c.202 0 .368.165.368.368 0 .941.147 1.865.436 2.741.043.138.008.28-.127.42l-1.34 1.776a.368.368 0 00-.035.39c1.093 2.146 2.42 3.473 4.582 4.58a.367.367 0 00.39-.033l1.814-1.375a.37.37 0 01.375-.088 8.742 8.742 0 002.747.439.37.37 0 01.368.368v2.572z" fill="#fff"/></svg>