<svg width="90" height="89" fill="none" xmlns="http://www.w3.org/2000/svg"><path d="M72.358 27.48l-9.34-9.34a1.468 1.468 0 00-2.498.826 5.876 5.876 0 11-6.647-6.647 1.469 1.469 0 00.827-2.497L45.358.481a1.469 1.469 0 00-2.076 0L35.17 8.59a8.813 8.813 0 10-10.791 10.788l-8.103 8.103a1.469 1.469 0 000 2.077l8.106 8.116a8.812 8.812 0 00-1.068 16.66l-3.43 9.892a7.344 7.344 0 00.253 6.473l5.155 12.19c.02.047.041.093.066.137.361.662.55 1.404.548 2.158v1.41a1.469 1.469 0 002.938 0v-1.41a7.434 7.434 0 00-.882-3.502l-5.156-12.19c-.02-.05-.044-.1-.07-.147a4.46 4.46 0 01-.13-4.03l3.592-10.34c.155 0 .306.021.462.021a8.796 8.796 0 008.505-6.524l2.491 2.48v15.08a1.469 1.469 0 002.938 0V45.468a4.407 4.407 0 018.812 0v17.788c.003 2.051.48 4.075 1.396 5.911l.537 1.078a10.32 10.32 0 010 9.195l-1.469 2.937a4.428 4.428 0 00-.464 1.971v2.245a1.469 1.469 0 002.938 0v-2.245a1.498 1.498 0 01.147-.656l1.468-2.938a13.272 13.272 0 000-11.822l-.537-1.078a10.33 10.33 0 01-1.01-3.37 10.25 10.25 0 007.276 3.015 4.407 4.407 0 004.406-4.406v-8.372a8.803 8.803 0 00.16-17.051l8.104-8.116a1.469 1.469 0 000-2.074zm-12.67 37.082a7.353 7.353 0 01-7.344-7.343V49.58l1.122-1.122a8.789 8.789 0 007.69 6.492v8.143a1.469 1.469 0 01-1.468 1.468zm.21-26.682a1.469 1.469 0 001.25 2.496 5.875 5.875 0 11-4.993 4.994 1.47 1.47 0 00-2.497-1.251l-1.314 1.317a7.344 7.344 0 10-14.688.033v1.33l-2.692-2.692a1.468 1.468 0 00-2.497 1.252 5.875 5.875 0 11-4.994-4.994 1.469 1.469 0 001.253-2.497l-9.337-9.349 9.348-9.341a1.469 1.469 0 00-1.252-2.497 5.875 5.875 0 01-4.976-9.964 6.022 6.022 0 018.307 0 5.875 5.875 0 011.657 4.976 1.47 1.47 0 002.497 1.252L44.324 3.6l6.582 6.583a8.813 8.813 0 1011.75 11.75l6.583 6.582-9.342 9.365zm27.696-7.099H78.78a1.468 1.468 0 110-2.937h8.813a1.469 1.469 0 010 2.937zm-10.4-16.891a1.468 1.468 0 01-.735-2.74l7.638-4.406a1.469 1.469 0 011.468 2.543l-7.637 4.407c-.223.13-.477.197-.734.196zm7.63 38.188c-.258 0-.512-.067-.735-.197l-7.637-4.406a1.467 1.467 0 01-.546-2.011 1.467 1.467 0 012.015-.533l7.637 4.406a1.47 1.47 0 01-.734 2.741zM11.219 30.781H2.406a1.469 1.469 0 110-2.937h8.813a1.469 1.469 0 010 2.937zm1.587-16.891a1.46 1.46 0 01-.734-.196L4.435 9.287a1.469 1.469 0 011.468-2.543l7.638 4.406a1.47 1.47 0 01-.735 2.74zm-7.63 38.188a1.469 1.469 0 01-.734-2.74l7.637-4.407a1.47 1.47 0 111.47 2.544L5.91 51.88c-.223.13-.477.197-.735.197z" fill="#55B4ED"/></svg>