<svg width="100" height="100" fill="none" xmlns="http://www.w3.org/2000/svg"><path d="M75.271 51.312c-2.688-2.676-5.795-.172-5.795-.172V37.054a.857.857 0 10-1.713 0v15.291s-4.085 3.221-5.841 4.008V30.991a2.14 2.14 0 012.138-2.138h1.565a2.14 2.14 0 012.138 2.138v2.556a.856.856 0 101.713 0V30.99a3.855 3.855 0 00-3.85-3.851H64.06a3.856 3.856 0 00-3.852 3.85v26.042a8.998 8.998 0 01-1.568.292V39.261a3.875 3.875 0 00-3.87-3.87h-1.528a3.875 3.875 0 00-3.87 3.87v8.73l-1.569.833v-2.905a3.489 3.489 0 00-3.484-3.485h-2.3a3.488 3.488 0 00-3.484 3.485v7.824l-2.797 1.485-7.856 2.245a5.385 5.385 0 00-3.214 2.52 5.384 5.384 0 00-.539 4.048l.879 3.381a.857.857 0 101.658-.431l-.878-3.38a3.68 3.68 0 012.565-4.49l7.182-2.053 5.399 14.407c.361.965.304 3.718-2.551 4.732l-5.428 1.233a3.553 3.553 0 01-4.244-2.582l-1.102-4.24a.857.857 0 00-1.659.43l1.103 4.241a5.255 5.255 0 005.091 3.956c1.731 0 6.618-1.367 6.618-1.367a5.278 5.278 0 003.998-6.24l18.778-4.597a10.806 10.806 0 004.263-2.134l9.138-7.509c2.786-2.47 1.152-5.271.332-6.087zM53.242 37.104h1.528a2.16 2.16 0 012.156 2.157v18.106l-5.406-.002c-.497-.005-.153-.333-.126-.355l1.557-1.261c1.453-1.177 2.401-2.813 2.82-4.863a3.366 3.366 0 00-1.295-3.399 3.366 3.366 0 00-3.39-.394v-7.832a2.16 2.16 0 012.156-2.157zM40.249 45.92c0-.977.794-1.772 1.77-1.772h2.3c.976 0 1.77.795 1.77 1.772v3.814l-5.84 3.1V45.92zM73.85 56.075l-9.138 7.508a9.07 9.07 0 01-3.583 1.793l-18.916 4.632-5.088-13.577 14.526-7.71a1.648 1.648 0 011.798.139c.535.4.775 1.03.642 1.684-.337 1.65-1.084 2.954-2.22 3.873l-1.557 1.262a1.892 1.892 0 00-.599 2.125 1.892 1.892 0 001.803 1.274l6.243.003h.004a10.68 10.68 0 006.176-1.954l6.977-4.906a2.413 2.413 0 013.126.288c.481.491 1.422 1.95-.194 3.566z" fill="#55B4ED"/><path d="M37.653 72.025a3.38 3.38 0 00-3.375-3.376 3.38 3.38 0 00-3.376 3.376 3.38 3.38 0 003.376 3.376 3.38 3.38 0 003.375-3.376zm-5.037 0c0-.916.745-1.662 1.662-1.662.916 0 1.662.746 1.662 1.662 0 .916-.746 1.662-1.662 1.662a1.664 1.664 0 01-1.662-1.662zm-4.5-24.369l12.455-12.55 2.802 1.448a2.635 2.635 0 003.039-.442l6.78-6.526s-.187 3.352 2.635 3.352a2.639 2.639 0 002.636-2.636v-6.936c-.01-1.804-1.328-2.611-2.636-2.611h-6.85a2.639 2.639 0 00-2.636 2.636c0 2.897 2.948 2.635 2.948 2.635l-5.172 4.978-2.842-1.47a2.626 2.626 0 00-3.082.485L24.375 43.943a2.639 2.639 0 00.014 3.728c.497.493 2.195 1.518 3.727-.015zm-2.525-2.506l13.818-13.924c.178-.18.465-.494 1.078-.17l3.388 1.753a.857.857 0 00.988-.144l7.145-6.878a.857.857 0 00-.594-1.474h-2.438a.923.923 0 010-1.845h6.851c.253 0 .922 0 .922.917v6.917a.923.923 0 01-1.844 0v-2.73a.857.857 0 00-1.45-.617l-8.231 7.923a.922.922 0 01-1.063.155l-3.36-1.738a.857.857 0 00-1.003.157L26.9 46.45c-.562.563-1.13.178-1.304.005a.923.923 0 01-.005-1.304zM75.93 96.586c-1.26 1.26-.368 3.414 1.414 3.414H98a2 2 0 002-2V77.345c0-1.782-2.154-2.674-3.414-1.414L75.93 96.586zM24.07 3.414C25.33 2.154 24.438 0 22.656 0H2a2 2 0 00-2 2v20.655c0 1.782 2.154 2.674 3.414 1.414L24.07 3.414z" fill="#55B4ED"/></svg>