<svg width="100" height="100" fill="none" xmlns="http://www.w3.org/2000/svg"><path d="M78.13 76.815L66.98 61.022V43.397h2.83a.944.944 0 00.776-1.48l-8.49-12.265a.98.98 0 00-1.552 0l-2.111 3.05a.92.92 0 00-.111-.22l-8.491-12.264a.98.98 0 00-1.551 0l-8.49 12.265a.92.92 0 00-.112.218l-2.111-3.049a.98.98 0 00-1.551 0l-8.491 12.264a.943.943 0 00.775 1.48h2.83v17.626L19.984 76.815a.943.943 0 00.771 1.488H77.36a.944.944 0 00.77-1.488zM40.565 33.963h2.83v1.886h1.887v-2.83a.943.943 0 00-.944-.943h-1.972l6.69-9.663 6.689 9.663h-1.973a.943.943 0 00-.943.943v2.83h1.887v-1.886h2.845l-3.207 4.632a5.65 5.65 0 00-10.597 0l-3.207-4.632h.015zM55.66 46.25a4.669 4.669 0 00-2.83-.968h-.651a5.698 5.698 0 001.772-1.886h1.71v2.854zm-2.83 4.693v19.811H50v-11.32h-1.887v11.32h-2.83v-19.81h-1.887v7.547h-.944v-8.49a2.83 2.83 0 012.83-2.83h7.548A2.83 2.83 0 0155.66 50v8.49h-.943v-7.547H52.83zm-6.896-5.66h-.651a4.669 4.669 0 00-2.83.967v-2.854h1.709a5.698 5.698 0 001.772 1.886zm3.122-.944a3.773 3.773 0 110-7.547 3.773 3.773 0 010 7.547zm12.972 32.076l-4.52-15.36-1.81.531 4.363 14.829h-22.01l4.363-14.829-1.81-.532-4.52 15.36H22.575l10.27-14.55a.944.944 0 00.174-.544V42.453a.943.943 0 00-.944-.943h-1.973l6.69-9.663 6.689 9.663h-1.972a.943.943 0 00-.943.943v16.982a.943.943 0 00.943.943h1.887v11.321a.943.943 0 00.943.943h9.434a.943.943 0 00.944-.943V60.378h1.887a.944.944 0 00.943-.943V50c0-.076-.019-.146-.023-.22h.023v-7.328a.943.943 0 00-.943-.943h-1.972l6.689-9.663 6.69 9.663h-1.973a.944.944 0 00-.944.943V61.32c0 .195.06.386.173.545l10.27 14.55H62.029zM75.93 96.586c-1.26 1.26-.368 3.414 1.414 3.414H98a2 2 0 002-2V77.345c0-1.782-2.154-2.674-3.414-1.414L75.93 96.586zM24.07 3.414C25.33 2.154 24.438 0 22.656 0H2a2 2 0 00-2 2v20.655c0 1.782 2.154 2.674 3.414 1.414L24.07 3.414z" fill="#55B4ED"/></svg>