<svg height="512pt" viewBox="-21 0 512 512" width="512pt" xmlns="http://www.w3.org/2000/svg"><path d="m128.960938 65.28125v13.546875c0 2.039063-.710938 3.882813-2.15625 5.382813-1.476563 1.476562-3.320313 2.210937-5.390626 2.210937-2.097656 0-3.941406-.738281-5.445312-2.183594-1.503906-1.472656-2.238281-3.3125-2.238281-5.410156v-39.898437c0-2.066407.820312-3.878907 2.238281-5.355469 1.476562-1.527344 3.316406-2.378907 5.445312-2.378907 2.097657 0 3.914063.792969 5.359376 2.296876 1.449218 1.5 2.1875 3.371093 2.1875 5.4375v12.15625h17.242187v-12.15625c0-2.066407.824219-3.878907 2.242187-5.355469 1.476563-1.5 3.265626-2.378907 5.390626-2.378907 2.070312 0 3.886718.765626 5.359374 2.238282 1.503907 1.503906 2.242188 3.375 2.242188 5.5v39.894531c0 2.042969-.765625 3.828125-2.183594 5.300781-1.445312 1.527344-3.320312 2.292969-5.417968 2.292969-2.101563 0-3.941407-.734375-5.417969-2.207031-1.472657-1.476563-2.210938-3.316406-2.210938-5.386719v-13.546875zm41.324218-6.65625c0-7.539062 2.183594-14.394531 7.433594-19.921875 5.132812-5.410156 11.628906-7.875 19.058594-7.875 7.433594 0 13.871094 2.519531 18.976562 7.960937 5.191406 5.554688 7.402344 12.410157 7.402344 19.976563 0 7.539063-2.238281 14.367187-7.402344 19.921875-5.105468 5.46875-11.570312 8.019531-19.03125 8.019531-7.433594 0-13.871094-2.523437-18.976562-7.933593-5.277344-5.585938-7.460938-12.527344-7.460938-20.148438zm70.261719-12.695312h-5.503906c-1.84375 0-3.460938-.734376-4.796875-2.011719-1.445313-1.359375-2.125-3.117188-2.125-5.128907 0-1.867187.710937-3.542968 1.984375-4.902343 1.363281-1.414063 3.066406-2.152344 4.992187-2.152344h26.097656c1.957032 0 3.65625.738281 5.019532 2.125 1.359375 1.417969 2.070312 3.144531 2.070312 5.070313 0 1.929687-.738281 3.628906-2.097656 4.988281-1.363281 1.359375-3.066406 2.097656-4.992188 2.097656h-5.417968v32.726563c0 2.070312-.765625 3.882812-2.183594 5.355468-1.445312 1.476563-3.234375 2.269532-5.304688 2.269532-2.070312 0-3.886718-.824219-5.417968-2.183594l-.054688-.027344-.03125-.058594c-1.472656-1.445312-2.238281-3.285156-2.238281-5.355468zm53.40625 24.992187h10.78125c1.957031 0 3.65625.738281 5.046875 2.070313l.027344.027343c.652344.652344 1.164062 1.359375 1.53125 2.179688.398437.910156.597656 1.871093.597656 2.863281 0 1.925781-.710938 3.597656-2.101562 4.960938-1.390626 1.359374-3.148438 2.011718-5.105469 2.011718h-18.320313c-2.097656 0-4-.710937-5.503906-2.183594-1.503906-1.503906-2.269531-3.371093-2.269531-5.496093v-38.566407c0-2.066406.796875-3.882812 2.242187-5.382812 1.476563-1.558594 3.316406-2.351562 5.445313-2.351562h18.066406c1.929687 0 3.601563.707031 4.964844 2.097656 1.332031 1.359375 2.011719 3.058594 2.011719 4.957031s-.707032 3.570313-1.925782 4.988281l-.113281.113282c-1.332031 1.328124-3.035156 2.09375-4.933594 2.09375h-10.496093v5.582031h9.246093c1.984375 0 3.746094.710937 5.164063 2.097656 1.332031 1.359375 2.097656 3.03125 2.097656 4.960937 0 1.925782-.710938 3.625-2.070312 4.984376-1.417969 1.417968-3.207032 2.070312-5.191407 2.070312h-9.191406zm44.648437-.058594h10.496094c1.898438 0 3.597656.683594 5.015625 1.957031l.03125.027344.027344.058594c.652344.621094 1.136719 1.359375 1.53125 2.152344.398437.90625.597656 1.871094.597656 2.863281 0 1.925781-.738281 3.625-2.128906 5.015625-.625.621094-1.363281 1.132812-2.15625 1.5-.90625.425781-1.871094.59375-2.863281.59375h-18.183594c-2.125 0-3.96875-.847656-5.445312-2.378906-1.445313-1.53125-2.238282-3.371094-2.238282-5.496094v-39.046875c0-2.070313.765625-3.910156 2.238282-5.355469 1.476562-1.476562 3.292968-2.269531 5.390624-2.269531 2.042969 0 3.859376.792969 5.332032 2.242187 1.503906 1.441407 2.355468 3.285157 2.355468 5.382813zm-141.878906-25.894531c-3.121094 0-5.585937 1.1875-7.574218 3.597656-2.382813 2.859375-3.121094 6.515625-3.121094 10.144532 0 3.652343.683594 7.449218 3.035156 10.398437 1.960938 2.492187 4.484375 3.625 7.660156 3.625 3.148438 0 5.671875-1.1875 7.628906-3.652344 2.328126-2.921875 3.0625-6.574219 3.0625-10.230469s-.707031-7.367187-3.03125-10.285156c-1.960937-2.464844-4.484374-3.597656-7.660156-3.597656zm0 0" fill-rule="evenodd"/><path d="m443.378906 458.761719h-4.890625v-308.5h4.890625c14.679688 0 26.621094-11.933594 26.621094-26.605469 0-14.683594-11.941406-26.632812-26.621094-26.632812h-35.269531v-86.9375c0-5.570313-4.515625-10.085938-10.085937-10.085938h-326.019532c-5.570312 0-10.085937 4.515625-10.085937 10.085938v86.9375h-35.296875c-14.679688 0-26.621094 11.949218-26.621094 26.632812 0 14.667969 11.941406 26.605469 26.621094 26.605469h4.890625v308.5h-4.890625c-14.679688 0-26.621094 11.933593-26.621094 26.605469 0 14.683593 11.941406 26.632812 26.621094 26.632812h416.757812c14.679688 0 26.621094-11.949219 26.621094-26.632812 0-14.671876-11.941406-26.605469-26.621094-26.605469zm-169.523437-85.835938v85.835938h-28.757813v-85.835938zm-48.925781 85.835938h-28.789063v-85.835938h28.789063zm-142.839844-438.589844h305.847656v76.851563h-305.847656zm112.957031 130.089844c5.570313 0 10.085937-4.515625 10.085937-10.085938 0-5.570312-4.515624-10.082031-10.085937-10.082031h-168.425781c-3.558594 0-6.453125-2.890625-6.453125-6.4375 0-3.5625 2.894531-6.464844 6.453125-6.464844h416.757812c3.5 0 6.453125 2.960938 6.453125 6.464844 0 3.546875-2.894531 6.4375-6.453125 6.4375h-168.429687c-5.566407 0-10.082031 4.511719-10.082031 10.082031 0 5.570313 4.515624 10.085938 10.082031 10.085938h143.367187v308.5h-124.289062v-95.917969c0-5.570312-4.515625-10.085938-10.085938-10.085938h-97.886718c-5.570313 0-10.082032 4.515626-10.082032 10.085938v95.917969h-124.289062v-308.5zm248.332031 341.570312h-416.757812c-3.558594 0-6.453125-2.902343-6.453125-6.464843 0-3.546876 2.894531-6.433594 6.453125-6.433594h416.757812c3.558594 0 6.453125 2.886718 6.453125 6.433594 0 3.503906-2.953125 6.464843-6.453125 6.464843zm0 0"/><path d="m83.546875 237.140625h48.644531c5.570313 0 10.085938-4.515625 10.085938-10.085937v-48.625c0-5.570313-4.515625-10.085938-10.085938-10.085938h-48.644531c-5.570313 0-10.082031 4.515625-10.082031 10.085938v48.625c0 5.570312 4.511718 10.085937 10.082031 10.085937zm10.085937-48.625h28.476563v28.453125h-28.476563zm0 0"/><path d="m169.691406 237.140625h48.671875c5.570313 0 10.085938-4.515625 10.085938-10.085937v-48.625c0-5.570313-4.515625-10.085938-10.085938-10.085938h-48.671875c-5.570312 0-10.085937 4.515625-10.085937 10.085938v48.625c0 5.570312 4.515625 10.085937 10.085937 10.085937zm10.082032-48.625h28.503906v28.453125h-28.503906zm0 0"/><path d="m83.546875 320.136719h48.644531c5.570313 0 10.085938-4.515625 10.085938-10.085938v-48.625c0-5.570312-4.515625-10.085937-10.085938-10.085937h-48.644531c-5.570313 0-10.082031 4.515625-10.082031 10.085937v48.625c0 5.570313 4.511718 10.085938 10.082031 10.085938zm10.085937-48.625h28.476563v28.453125h-28.476563zm0 0"/><path d="m169.691406 320.136719h48.671875c5.570313 0 10.085938-4.515625 10.085938-10.085938v-48.625c0-5.570312-4.515625-10.085937-10.085938-10.085937h-48.671875c-5.570312 0-10.085937 4.515625-10.085937 10.085937v48.625c0 5.570313 4.515625 10.085938 10.085937 10.085938zm10.082032-48.625h28.503906v28.453125h-28.503906zm0 0"/><path d="m255.859375 237.140625h48.675781c5.570313 0 10.082032-4.515625 10.082032-10.085937v-48.625c0-5.570313-4.511719-10.085938-10.082032-10.085938h-48.675781c-5.570313 0-10.082031 4.515625-10.082031 10.085938v48.625c0 5.570312 4.515625 10.085937 10.082031 10.085937zm10.085937-48.625h28.503907v28.453125h-28.503907zm0 0"/><path d="m342.03125 237.140625h48.648438c5.566406 0 10.082031-4.515625 10.082031-10.085937v-48.625c0-5.570313-4.515625-10.085938-10.082031-10.085938h-48.648438c-5.566406 0-10.082031 4.515625-10.082031 10.085938v48.625c0 5.570312 4.515625 10.085937 10.082031 10.085937zm10.085938-48.625h28.476562v28.453125h-28.476562zm0 0"/><path d="m255.859375 320.136719h48.675781c5.570313 0 10.082032-4.515625 10.082032-10.085938v-48.625c0-5.570312-4.511719-10.085937-10.082032-10.085937h-48.675781c-5.570313 0-10.082031 4.515625-10.082031 10.085937v48.625c0 5.570313 4.515625 10.085938 10.082031 10.085938zm10.085937-48.625h28.503907v28.453125h-28.503907zm0 0"/><path d="m342.03125 320.136719h48.648438c5.566406 0 10.082031-4.515625 10.082031-10.085938v-48.625c0-5.570312-4.515625-10.085937-10.082031-10.085937h-48.648438c-5.566406 0-10.082031 4.515625-10.082031 10.085937v48.625c0 5.570313 4.515625 10.085938 10.082031 10.085938zm10.085938-48.625h28.476562v28.453125h-28.476562zm0 0"/><path d="m75.664062 421.550781h75.050782c5.570312 0 10.085937-4.515625 10.085937-10.085937v-48.621094c0-5.570312-4.515625-10.085938-10.085937-10.085938h-75.050782c-5.570312 0-10.085937 4.515626-10.085937 10.085938v48.621094c0 5.570312 4.515625 10.085937 10.085937 10.085937zm10.082032-48.625h54.886718v28.457031h-54.886718zm0 0"/><path d="m309.199219 362.839844v48.625c0 5.570312 4.515625 10.085937 10.085937 10.085937h75.050782c5.570312 0 10.085937-4.515625 10.085937-10.085937v-48.625c0-5.570313-4.515625-10.082032-10.085937-10.082032h-75.050782c-5.570312 0-10.085937 4.515626-10.085937 10.082032zm20.167969 10.085937h54.886718v28.457031h-54.886718zm0 0"/><path d="m235.015625 150.261719h.167969c5.570312 0 10.085937-4.515625 10.085937-10.085938 0-5.570312-4.515625-10.082031-10.085937-10.082031h-.167969c-5.570313 0-10.085937 4.511719-10.085937 10.082031 0 5.570313 4.515624 10.085938 10.085937 10.085938zm0 0"/></svg>