<svg id="Layer_1" enable-background="new 0 0 66 66" height="512" viewBox="0 0 66 66" width="512" xmlns="http://www.w3.org/2000/svg"><g><path d="m64.874 43.963c-6.434-7.234-13.36-14.6-19.799-21.853-.104-.117-.258-.177-.413-.166-.156.012-.298.097-.382.229-3.282 5.121-6.564 10.255-9.834 15.389-4.83-5.287-9.532-10.418-13.997-15.451-.104-.117-.261-.177-.413-.166-.156.012-.298.097-.382.229-6.201 9.694-12.388 19.377-18.576 29.073-.085.133-.102.298-.046.445s.179.261.33.304c4.38 1.255 8.819 2.58 13.111 3.861 4.636 1.383 9.429 2.813 14.167 4.161.045.014.091.02.137.02.134 0 .265-.054.36-.153.111-.116.159-.277.132-.433 2.803-1.198 5.642-2.495 8.39-3.752 2.877-1.314 5.852-2.674 8.773-3.915.148-.063.258-.193.293-.351s-.008-.322-.115-.442l-.904-1.01c.03-.088.029-.183-.042-.253-.064-.064-.149-.07-.231-.051l-.426-.476c.164.049 6.103 1.821 6.274 1.821.141 0 .278-.06.374-.168.081-.092.109-.208.111-.325 4.521-1.944 8.653-3.951 12.929-5.774.317-.137.405-.538.179-.793zm-2.637-1.438c-.118.067-.532.498-.632.597l-.675-.675c-.232-.232-.588.119-.354.354l.675.675-.616.616-.888-.888c-.097-.097-.255-.099-.354 0-.098.098-.098.256 0 .354l.888.888-.925.925-.983-.983c-.098-.098-.256-.098-.354 0-.079.079-.076.19-.029.284-.144.041-1.132 1.066-1.238 1.172l-.32-.32c-.098-.098-.256-.098-.354 0s-.098.256 0 .354l.32.32-1.019 1.019-.664-.664.733-.733c.098-.098.098-.256 0-.354s-.256-.098-.354 0l-.733.733-.012-.012c-.098-.098-.256-.098-.354 0s-.098.256 0 .354l.012.012-.972.972-.296-.297c-.097-.098-.255-.098-.354 0-.218.218.077.431.296.65l-.518.522-.32-.32c-.097-.097-.255-.099-.354 0-.098.098-.098.256 0 .354l.32.32-.447.446c-2.823-8.107-4.764-16.514-5.781-25.026 5.758 6.438 10.566 11.573 16.656 18.351zm-.662 2.508-.587-.587.616-.617.826.826c-.285.126-.57.251-.855.378zm-1.865.691.925-.924.45.45c-.442.198-.879.394-1.319.594-.018-.059-.012-.076-.056-.12zm-6.947 3.277-.247-.247.522-.522c.099.099.355.372.474.44-.25.111-.498.218-.749.329zm-.491.215c-.13.057-.261.115-.391.172l.281-.281zm1.12-1.338.972-.972.664.664c-.108.108-.633.609-.687.737-.161.073-.32.14-.481.212.045-.211-.301-.474-.468-.641zm3.362-1.327c.108.108.36.383.488.439-.562.256-1.13.513-1.697.771zm-17.847-4.103.504-.504 1.355 1.356-.569.569c-.43-.474-.858-.947-1.29-1.421zm-.337-.369c-.387-.425-.775-.849-1.162-1.273l.432-.432 1.217 1.218zm-.376-2.059.611-.611c.119.119 1.067 1.125 1.229 1.125.051 0 .096-.027.138-.057l-.761.761zm-1.124.416c-.37-.405-.739-.81-1.109-1.215l1.328-1.328 1.162 1.162zm-1.447-1.585c-.16-.175-.319-.35-.479-.525.334-.525.67-1.048 1.005-1.573l.786.786zm7.469 9.707.962 1.076c-.098-.081-.241-.083-.333.008l-1.291 1.291-.871-.871c-.098-.098-.256-.098-.354 0s-.098.256 0 .354l.871.871-.964.964-.784-.784.155-.155c.098-.098.098-.256 0-.354s-.256-.098-.354 0l-1.173 1.173-.692-.692c-.098-.098-.256-.098-.354 0s-.098.256 0 .354l.692.692-1.684 1.684-.545-.546.457-.457c.098-.098.098-.256 0-.354s-.256-.098-.354 0l-.457.457-.153-.153c-.097-.098-.255-.098-.354 0-.098.098-.098.256 0 .354l.153.153-.905.905-.632-.632c-.098-.098-.256-.098-.354 0s-.098.256 0 .354l.632.632-1.324 1.324-.844-.844 1.111-1.111c.098-.098.098-.256 0-.354s-.256-.098-.354 0l-1.111 1.111-.213-.213c-.098-.097-.256-.099-.354 0-.098.098-.098.256 0 .354l.213.213-1.114 1.114-.962-.962c-.098-.098-.256-.098-.354 0s-.098.256 0 .354l.962.962-1.253 1.253c-3.841-10.961-6.454-22.325-7.782-33.819 7.025 7.868 14.198 15.56 22.065 24.294zm-.137-1.691.65.65-.056.056c-.401-.445-.807-.891-1.209-1.336l1.206-1.206 1.272 1.272-.859.859-.65-.65c-.098-.098-.256-.098-.354 0s-.098.258 0 .355zm-5.507 7.831-.176-.176 1.684-1.684.808.807c-.775.352-1.552.704-2.316 1.053zm-1.73.786-.603-.603.905-.905.545.546-.033.033c-.098.098-.098.256 0 .354.049.049.112.073.177.073s.128-.024.177-.073l.033-.033.044.044c-.411.187-.831.376-1.245.564zm-4.343 1.947-.603-.603 1.114-1.114 1.039 1.039c-.517.232-1.032.451-1.549.68-.001 0 0-.002-.001-.002zm2.132-.942 1.255-1.255.471.471c-.576.262-1.147.523-1.726.784zm6.739-3.373c-.075.075-.074.179-.035.27l-.902-.902.665-.665.784.784zm.866-.158.052.051c-.063.029-.125.057-.189.086zm-21.172-29.375c1.321 11.971 4.026 23.81 8.054 35.21-.524-.15-1.049-.306-1.573-.458l.238-.238c.003 0 .006.004.009.004.064 0 .128-.024.177-.073.051-.051.072-.119.07-.186l.209-.209c.098-.098.098-.256 0-.354s-.256-.098-.354 0l-.16.16-.727-.727.27-.27c.098-.098.098-.256 0-.354-.099-.099-.257-.097-.354 0l-.27.27-.139-.138c-.098-.098-.256-.098-.354 0s-.098.256 0 .354l.139.139-.642.642-1.087-1.087.408-.408c.098-.098.098-.256 0-.354s-.256-.098-.354 0l-.408.408-.609-.609c-.098-.098-.256-.098-.354 0s-.098.256 0 .354l.609.609-.771.771c-.164-.048-.329-.095-.493-.143.017-.08.009-.163-.053-.225l-.604-.604.786-.786c.098-.098.098-.256 0-.354s-.256-.098-.354 0l-.786.786-.804-.804.458-.457c.098-.098.098-.256 0-.354-.097-.097-.255-.099-.354 0l-.458.457-.565-.565c-.098-.098-.256-.098-.354 0s-.098.256 0 .354l.565.565-.936.935c-.006.006-.003.014-.008.02-.39-.116-.78-.232-1.168-.347l.286-.286.19.19c.049.049.112.073.177.073s.128-.024.177-.073c.098-.098.098-.256 0-.354l-.19-.19.854-.854c.098-.098.098-.256 0-.354-.097-.097-.255-.099-.354 0l-.854.854-.778-.778.438-.439c.098-.098.098-.256 0-.354-.099-.099-.257-.097-.354 0l-.438.439-.954-.954c-.098-.098-.256-.098-.354 0s-.098.256 0 .354l.134.134c-.002.002-.005.001-.008.003l-1.531 1.531c-.292-.087-.589-.175-.882-.262l.234-.234.362.362c.049.049.112.073.177.073s.128-.024.177-.073c.098-.098.098-.256 0-.354l-.362-.362.71-.71c.098-.098.098-.256 0-.354s-.256-.098-.354 0l-.71.71-.649-.649.196-.196c.098-.098.098-.256 0-.354s-.256-.098-.354 0l-.196.196-.531-.531c-.098-.098-.256-.098-.354 0s-.098.256 0 .354l.531.531-.968.968c-.97-.288-1.933-.572-2.908-.859l.815-.815.598.598-.055.055c-.098.098-.098.256 0 .354.049.049.113.073.177.073s.128-.024.177-.073l.055-.055.151.151c.049.049.112.073.177.073s.128-.024.177-.073c.098-.098.098-.256 0-.354l-.151-.151.291-.291c.098-.098.098-.256 0-.354-.098-.099-.256-.097-.354 0l-.291.291-.598-.598.437-.437c.098-.098.098-.256 0-.354s-.256-.098-.354 0l-.437.437-.646-.646c-.048-.048-.111-.072-.175-.072-.009-.013-.006-.031-.018-.043-.098-.098-.256-.098-.354 0l-1.304 1.303c-.001-.001 0-.003-.001-.004l-.672-.673.765-.766c.098-.098.098-.256 0-.354-.099-.099-.257-.097-.354 0l-.765.766-.672-.673.282-.282c.098-.098.098-.256 0-.354s-.256-.098-.354 0l-1.38 1.381c5.787-9.067 11.574-18.124 17.374-27.192zm5.042 34.333c.002-.067-.02-.133-.07-.184l-.025-.025.642-.642.726.726-.383.383c-.296-.085-.593-.171-.89-.258zm-2.466-.717.577-.577 1.052 1.051c-.543-.159-1.086-.315-1.629-.474zm-3.97-1.174.762-.761.804.804-.326.326c-.416-.124-.826-.246-1.24-.369zm1.919.396.249.249c-.129-.038-.255-.076-.383-.114zm-6.636-1.799 1.339-1.339c.002-.002.001-.005.003-.008l.472.472-1.09 1.091c-.239-.072-.485-.145-.724-.216zm2.167-.522.778.778-.453.453c-.008.008-.005.02-.012.028-.402-.12-.813-.241-1.212-.36zm-5.14-.363.777-.777.649.649-.425.425c-.334-.098-.667-.197-1.001-.297zm-7.191-3.354.675.676-.569.569c-.007.007-.004.017-.01.024-.352-.102-.704-.207-1.056-.309zm1.029 1.029.672.673c.008.008.019.005.027.011-.005.009-.008.019-.012.029-.362-.106-.722-.211-1.084-.317zm2.547-.489.624.624-1.007 1.007c-.001.001 0 .002-.001.003-.323-.095-.645-.188-.967-.283zm21.984 7.453 1.194-1.194.467.466c-.555.244-1.109.49-1.661.728zm12.384-5.565c-.012-.037-.015-.078-.044-.107l-.099-.099.964-.964.303.303c.049.049.112.073.177.073s.128-.024.177-.073c.098-.098.098-.256 0-.354l-.303-.303 1.291-1.291c.09-.09.088-.229.011-.327l.607.679-.673.672c-.098.098-.098.256 0 .354.049.049.112.073.177.073s.128-.024.177-.073l.652-.652.374.418c-1.261.54-2.528 1.104-3.791 1.671zm3.323-4.674-.62-.62.859-.859.379.379c.049.049.112.073.177.073s.128-.024.177-.073c.098-.098.098-.256 0-.354l-.379-.379c.275-.275-.079-.628-.354-.354l-1.272-1.272c.192-.192.412-.359.208-.562s-.37.016-.562.208l-.733-.733c-.232-.232-.588.119-.354.354l.733.733-1.188 1.188c-.49-.542-.979-1.084-1.471-1.626l.586-.587c.126.126.777.835.938.835.221 0 .334-.269.177-.427l-.76-.761c.237-.237.615-.499.38-.734s-.496.143-.734.38l-1.355-1.356 1.151-1.151c.232-.232-.119-.588-.354-.354l-.336.336c.068-.098.071-.228-.016-.315l-1.052-1.052.348-.348c.234-.234-.12-.587-.354-.354l-.348.348-1.163-1.163c.258-.258.701-.567.458-.811s-.554.2-.811.458l-.864-.864c2.692-4.222 5.388-8.444 8.087-12.657 1.014 8.891 3.022 17.676 5.982 26.11-1.853-.534-3.705-1.084-5.56-1.636zm12.626-1.291c.068-.225-.266-.464-.451-.649.104-.104 1.103-1.076 1.16-1.209l.736.736-.853.853c-.09.042-.447.203-.592.269zm5.363-2.407-.962-.962c.096-.096.508-.498.587-.608.371.413.752.83 1.119 1.241-.248.106-.496.22-.744.329z"/><path d="m31.4 26.753c1.593 0 3.044-2.065 3.95-3.065 11.663-12.783-2.335-22.589-9.045-15.156-6.081 6.736 2.591 18.221 5.095 18.221zm1.423-19.72c5.584.666 9.164 7.893 1.789 15.98-3.275 3.571-3.154 3.891-6.386-.446-1.086-1.448-1.862-2.823-2.374-4.204-2.411-6.501 1.647-11.949 6.971-11.33z"/><path d="m36.18 13.324c-.415-3.495-4.57-5.403-7.209-2.694-1.318 1.354-1.892 3.539-1.396 5.312 1.597 5.713 9.24 2.748 8.605-2.618zm-4.312-2.976c3.251 0 4.679 4.44 1.709 6.854-2.125 1.728-4.438.619-5.039-1.53-.642-2.29.931-5.324 3.33-5.324z"/><path d="m24.573 35.212-.007.005c-.117.074-.151.229-.077.345.048.075.129.116.211.116.004 0 .007-.003.011-.003.219.734.44 1.466.644 2.206l-.278.273c-.099.097-.101.256-.004.354.049.05.114.075.179.075.063 0 .127-.023.175-.071l.074-.073c.166.611.327 1.223.483 1.836-.21.18-.433.345-.676.475-.121.065-.167.217-.103.339.045.084.132.132.221.132.04 0 .08-.01.118-.029.204-.109.397-.238.581-.379.147.591.278 1.184.415 1.776l-.942.77c-.106.087-.123.245-.035.352.049.061.121.092.193.092.056 0 .111-.019.158-.057l.75-.613c.2.886.391 1.772.57 2.661l-.692.464c-.115.077-.146.232-.069.347.049.072.128.111.208.111.048 0 .097-.014.139-.042l.519-.348c.123.63.256 1.259.369 1.89.021.121.127.206.246.206.015 0 .029-.001.044-.004.136-.024.227-.154.202-.29-.125-.702-.272-1.402-.41-2.103l.751-.503c.114-.077.145-.232.068-.348-.079-.115-.233-.145-.348-.068l-.576.386c-.184-.906-.382-1.809-.588-2.712l.6-.491c.107-.088.123-.245.035-.352s-.246-.122-.352-.035l-.408.333c-.139-.597-.277-1.194-.426-1.788.316-.312 1.088-1.185.688-1.396-.119-.063-.272-.02-.338.104-.136.257-.311.492-.503.713-.157-.612-.315-1.224-.482-1.833l.673-.662c.098-.097.1-.255.002-.354-.097-.099-.255-.099-.354-.002l-.468.46c-.192-.686-.402-1.364-.606-2.045l1.077-.685c.284-.18.003-.599-.268-.422l-.958.609c-.107-.351-.204-.705-.314-1.054-.041-.131-.177-.204-.313-.163-.132.041-.205.182-.163.313.125.391.234.789.354 1.182z"/></g></svg>