<svg height="512" viewBox="0 0 64 64" width="512" xmlns="http://www.w3.org/2000/svg"><g id="Outline"><g><path d="m61.555 12.168-6-4a1.006 1.006 0 0 0 -.555-.168h-9a1 1 0 0 0 0 2h8.7l4.5 3-4.5 3h-32.7v-6h20a1 1 0 0 0 0-2h-6v-3a1 1 0 0 0 -.435-.825l-2.917-2a1 1 0 0 0 -1.109-.014l-3.083 2a1 1 0 0 0 -.456.839v3h-7a1 1 0 0 0 -1 1v8a1 1 0 0 0 1 1h7v2h-19a1.006 1.006 0 0 0 -.555.168l-6 4a1 1 0 0 0 0 1.664l6 4a1.006 1.006 0 0 0 .555.168h16a1 1 0 0 0 0-2h-15.7l-4.5-3 4.5-3h18.7v24h-1a5.006 5.006 0 0 0 -5 5v3a3 3 0 0 1 -3 3h-5a1 1 0 0 0 0 2h5a5.006 5.006 0 0 0 5-5v-3a3 3 0 0 1 3-3h1v13a1 1 0 0 0 1 1h6a1 1 0 0 0 1-1v-13h14a5.006 5.006 0 0 0 5-5 1 1 0 0 0 -2 0 3 3 0 0 1 -3 3h-14v-2a1 1 0 0 0 -2 0v16h-4v-42h25a1.006 1.006 0 0 0 .555-.168l6-4a1 1 0 0 0 0-1.664zm-31.555-6.625 2.068-1.343 1.932 1.327v2.473h-4z"/><path d="m42 12h-16a1 1 0 0 0 0 2h16a1 1 0 0 0 0-2z"/><path d="m54 14a1 1 0 0 0 0-2h-4a1 1 0 0 0 0 2z"/><path d="m21 24a1 1 0 0 0 0 2h4a1 1 0 0 0 0-2z"/><path d="m9 24a1 1 0 0 0 0 2h4a1 1 0 0 0 0-2z"/><circle cx="46" cy="13" r="1"/><circle cx="17" cy="25" r="1"/><circle cx="39" cy="25" r="1"/><path d="m39 30h4a1 1 0 0 0 1-1v-8a1 1 0 0 0 -1-1h-8a1 1 0 0 0 -1 1v19a1 1 0 0 0 2 0v-18h6v6h-3a1 1 0 0 0 0 2z"/><path d="m51 29a3 3 0 1 0 3-3 3 3 0 0 0 -3 3zm4 0a1 1 0 1 1 -1-1 1 1 0 0 1 1 1z"/><path d="m57.909 24.344a1 1 0 0 0 -.111 1.41 5 5 0 0 1 1.202 3.246c0 3.548-3.521 7.253-5 8.652-1.479-1.4-5-5.1-5-8.652a4.981 4.981 0 0 1 5.913-4.912 1 1 0 1 0 .362-1.967 6.981 6.981 0 0 0 -8.275 6.879c0 5.406 6.1 10.552 6.36 10.768a1 1 0 0 0 1.28 0c.26-.216 6.36-5.362 6.36-10.768a7 7 0 0 0 -1.681-4.545 1 1 0 0 0 -1.41-.111z"/><path d="m6 48a3 3 0 1 0 3-3 3 3 0 0 0 -3 3zm4 0a1 1 0 1 1 -1-1 1 1 0 0 1 1 1z"/><path d="m14.319 43.455a1 1 0 0 0 -1.521 1.3 5 5 0 0 1 1.202 3.245c0 3.548-3.521 7.253-5 8.652-1.479-1.4-5-5.1-5-8.652a4.981 4.981 0 0 1 5.913-4.912 1 1 0 1 0 .362-1.967 6.981 6.981 0 0 0 -8.275 6.879c0 5.406 6.1 10.552 6.36 10.768a1 1 0 0 0 1.28 0c.26-.216 6.36-5.362 6.36-10.768a7 7 0 0 0 -1.681-4.545z"/></g></g></svg>