<svg width="46" height="46" fill="none" xmlns="http://www.w3.org/2000/svg"><path d="M22.999 43.603c-11.366 0-20.604-9.239-20.604-20.604 0-11.366 9.238-20.604 20.604-20.604s20.604 9.238 20.604 20.604-9.239 20.604-20.604 20.604zm0-38.333c-9.775 0-17.73 7.954-17.73 17.729 0 9.775 7.955 17.729 17.73 17.729s17.729-7.954 17.729-17.73c0-9.774-7.954-17.728-17.73-17.728z" fill="#0F6EFE"/><path d="M17.249 41.688h-1.917a1.448 1.448 0 01-1.437-1.438c0-.786.613-1.418 1.399-1.438a56.522 56.522 0 010-31.624 1.428 1.428 0 01-1.4-1.438c0-.786.652-1.438 1.438-1.438h1.917c.46 0 .9.23 1.17.595.267.383.344.862.19 1.303-3.603 10.83-3.603 22.75 0 33.6.154.44.077.92-.19 1.302a1.51 1.51 0 01-1.17.575zm11.501 0c-.153 0-.306-.019-.46-.077-.747-.249-1.169-1.073-.9-1.82 3.603-10.83 3.603-22.751 0-33.6a1.436 1.436 0 112.722-.92c3.814 11.424 3.814 23.997 0 35.401a1.425 1.425 0 01-1.361 1.016z" fill="#0F6EFE"/><path d="M23 32.964a55.922 55.922 0 01-15.813-2.261 1.44 1.44 0 01-1.437 1.399 1.448 1.448 0 01-1.438-1.438v-1.916c0-.46.23-.901.595-1.17a1.44 1.44 0 011.303-.191c10.83 3.603 22.77 3.603 33.6 0a1.44 1.44 0 011.302.191c.384.269.595.71.595 1.17v1.916c0 .786-.652 1.438-1.438 1.438a1.428 1.428 0 01-1.437-1.4A56.153 56.153 0 0123 32.965zm17.25-14.278c-.154 0-.307-.019-.46-.076-10.83-3.604-22.77-3.604-33.6 0a1.436 1.436 0 01-1.82-.901c-.23-.767.172-1.572.92-1.821 11.423-3.814 23.996-3.814 35.4 0 .748.25 1.17 1.073.9 1.82-.172.595-.747.978-1.34.978z" fill="#0F6EFE"/></svg>