<svg width="46" height="46" fill="none" xmlns="http://www.w3.org/2000/svg"><path d="M42.165 43.605H3.832a1.448 1.448 0 01-1.437-1.437c0-.786.651-1.438 1.437-1.438h38.333c.786 0 1.438.652 1.438 1.438 0 .786-.652 1.438-1.438 1.438z" fill="#0F6EFE"/><path d="M7.092 42.168H4.217l.096-23.057a5.22 5.22 0 012.031-4.14L19.761 4.525a5.293 5.293 0 016.478 0L39.656 14.95a5.344 5.344 0 012.032 4.16v23.057h-2.875V19.13c0-.729-.345-1.438-.92-1.898L24.476 6.806a2.416 2.416 0 00-2.952 0L8.108 17.252c-.575.44-.92 1.15-.92 1.878l-.096 23.038z" fill="#0F6EFE"/><path d="M27.79 43.603h-9.583a1.448 1.448 0 01-1.438-1.438v-6.708a4.32 4.32 0 014.313-4.313h3.833a4.32 4.32 0 014.313 4.313v6.708c0 .786-.652 1.438-1.438 1.438zm-8.145-2.875h6.708v-5.271c0-.786-.652-1.438-1.438-1.438h-3.833c-.786 0-1.438.652-1.438 1.438v5.27zM18.207 27.79h-3.833a3.37 3.37 0 01-3.354-3.354v-2.875a3.37 3.37 0 013.354-3.354h3.833a3.37 3.37 0 013.354 3.354v2.875a3.37 3.37 0 01-3.354 3.354zm-3.833-6.708c-.269 0-.48.21-.48.48v2.874c0 .268.211.48.48.48h3.833c.268 0 .48-.212.48-.48v-2.875a.475.475 0 00-.48-.479h-3.833zm17.251 6.708h-3.833a3.37 3.37 0 01-3.355-3.354v-2.875a3.37 3.37 0 013.355-3.354h3.833a3.37 3.37 0 013.354 3.354v2.875a3.37 3.37 0 01-3.354 3.354zm-3.833-6.708c-.269 0-.48.21-.48.48v2.874c0 .268.211.48.48.48h3.833c.268 0 .48-.212.48-.48v-2.875a.475.475 0 00-.48-.479h-3.833zm8.625-6.227a1.432 1.432 0 01-1.438-1.418l-.038-4.332h-6.996a1.448 1.448 0 01-1.437-1.437c0-.786.652-1.438 1.437-1.438h8.434c.785 0 1.437.633 1.437 1.419l.058 5.75c-.02.805-.652 1.457-1.457 1.457.02 0 0 0 0 0z" fill="#0F6EFE"/></svg>