<svg width="97" height="137" fill="none" xmlns="http://www.w3.org/2000/svg"><path d="M96.964 48.128s-.236 9.465-2.02 21.31v.015c-1.627 10.782-4.532 23.532-9.717 32.911-1.976 3.584-4.248 6.865-6.674 9.848-.35.426-.697.844-1.052 1.259-9.288 10.912-20.435 17.609-25.806 20.448-2.009 1.059-3.209 1.58-3.209 1.58l-.004-.004c-.081-.034-1.27-.555-3.21-1.576-5.375-2.837-16.515-9.531-25.801-20.439-2.82-3.31-5.47-7.013-7.73-11.113-5.194-9.4-8.103-22.192-9.725-32.994C.236 57.56 0 48.128 0 48.128c8.93-2.616 13.796-7.596 16.445-12.148h64.07c2.655 4.552 7.519 9.532 16.45 12.148h-.001z" fill="url(#paint0_linear_224_1170)"/><path d="M94.948 69.438c-1.622 10.787-4.531 23.54-9.714 32.925-2.263 4.096-4.91 7.795-7.73 11.107C56.34 102.599 51.29 59.206 51.29 59.206h20.564c3.937 6.478-.73 24.099 6.696 22.883 3.089-.505 6.449-1.849 9.911-4.544 2.7-2.1 4.82-4.919 6.486-8.105v-.002z" fill="url(#paint1_linear_224_1170)"/><path d="M45.705 59.204s-5.05 43.417-26.23 54.27c-2.82-3.312-5.47-7.013-7.732-11.113C6.551 92.96 3.642 80.169 2.018 69.37c1.67 3.212 3.799 6.06 6.518 8.172 3.46 2.696 6.823 4.04 9.912 4.545 7.421 1.215 2.756-16.405 6.691-22.883h20.566z" fill="url(#paint2_linear_224_1170)"/><path d="M86.251 79.254a18.897 18.897 0 01-12.104 4.384 18.89 18.89 0 01-12.104-4.384l8.768-17.047H51.692v71.711c-2.009 1.058-3.21 1.579-3.21 1.579l-.004-.004c-.08-.033-1.27-.555-3.209-1.575V62.207H26.155l8.764 17.047a18.897 18.897 0 01-24.204 0l.07-.134 12.03-23.4h51.332L86.19 79.133l.061.124v-.003z" fill="#44593D"/><path d="M80.095 26.51C80.095 11.93 68.712 0 54.803 0H42.167C28.255 0 16.875 11.93 16.875 26.51v3.8h9.238v-3.8h44.68v3.8h9.304v-3.8h-.002z" fill="url(#paint3_linear_224_1170)"/><defs><linearGradient id="paint0_linear_224_1170" x1="48.482" y1="-40.647" x2="48.482" y2="146.544" gradientUnits="userSpaceOnUse"><stop offset=".35" stop-color="#222F1A"/><stop offset=".93" stop-color="#1D1D1B"/></linearGradient><linearGradient id="paint1_linear_224_1170" x1="73.118" y1="-48.847" x2="73.118" y2="186.292" gradientUnits="userSpaceOnUse"><stop stop-color="#fff"/><stop offset=".89" stop-color="#222F1A"/></linearGradient><linearGradient id="paint2_linear_224_1170" x1="23.86" y1="-48.847" x2="23.86" y2="186.292" gradientUnits="userSpaceOnUse"><stop stop-color="#fff"/><stop offset=".89" stop-color="#222F1A"/></linearGradient><linearGradient id="paint3_linear_224_1170" x1="48.483" y1="-68.627" x2="48.483" y2="56.017" gradientUnits="userSpaceOnUse"><stop stop-color="#fff"/><stop offset=".89" stop-color="#222F1A"/></linearGradient></defs></svg>