<svg width="185" height="87" fill="none" xmlns="http://www.w3.org/2000/svg"><g clip-path="url(#clip0_224_1654)"><path d="M62.607 30.902s-.153 6.078-1.304 13.683v.01c-1.05 6.923-2.926 15.11-6.274 21.132a42.725 42.725 0 01-4.989 7.132c-5.997 7.007-13.194 11.306-16.662 13.13a34.52 34.52 0 01-2.072 1.014L31.303 87c-.052-.021-.82-.356-2.072-1.012-3.47-1.821-10.663-6.12-16.66-13.124-1.82-2.125-3.53-4.502-4.99-7.135-3.354-6.035-5.232-14.25-6.28-21.185C.152 36.959 0 30.902 0 30.902c5.766-1.68 8.908-4.877 10.618-7.8h41.369c1.713 2.923 4.854 6.12 10.621 7.8h-.001z" fill="url(#paint0_linear_224_1654)"/><path d="M61.305 44.586c-1.047 6.926-2.925 15.115-6.272 21.141-1.46 2.63-3.17 5.005-4.991 7.132-13.664-6.98-16.925-34.842-16.925-34.842h13.278c2.542 4.16-.472 15.473 4.323 14.692 1.994-.324 4.164-1.187 6.4-2.918 1.743-1.347 3.112-3.157 4.187-5.203v-.002z" fill="url(#paint1_linear_224_1654)"/><path d="M29.51 38.016s-3.26 27.878-16.935 34.846c-1.821-2.127-3.532-4.503-4.993-7.136-3.352-6.036-5.23-14.249-6.28-21.183 1.08 2.063 2.454 3.891 4.21 5.247 2.234 1.731 4.405 2.594 6.4 2.919 4.791.78 1.78-10.534 4.32-14.693H29.51z" fill="url(#paint2_linear_224_1654)"/><path d="M55.691 50.888a12.243 12.243 0 01-7.815 2.814c-2.772 0-5.544-.937-7.815-2.814l5.661-10.947H33.378v46.046C32.08 86.667 31.306 87 31.306 87l-.003-.003a32.76 32.76 0 01-2.072-1.011V39.942H16.889l5.659 10.946a12.23 12.23 0 01-7.813 2.814c-2.772 0-5.544-.937-7.815-2.814l.045-.087 7.767-15.025h33.144l7.776 15.034.04.08v-.002z" fill="#fff"/><path d="M51.714 17.022C51.714 7.661 44.364 0 35.384 0h-8.159c-8.982 0-16.33 7.66-16.33 17.022v2.44h5.964v-2.44h28.85v2.44h6.006v-2.44h-.001z" fill="url(#paint3_linear_224_1654)"/><path d="M97.75 19.127c0 1.201-.22 2.264-.656 3.186-.437.91-1.065 1.611-1.884 2.1-.819.488-1.78.733-2.884.733-1.026 0-1.92-.204-2.683-.613a4.627 4.627 0 01-1.822-1.762c-.453-.766-.733-1.687-.836-2.762h-2.293v4.972h-2.417V13.38h2.417v4.619h2.317c.191-1.537.753-2.72 1.684-3.548.932-.829 2.148-1.243 3.65-1.243 1.13 0 2.1.237 2.904.712.804.475 1.424 1.155 1.856 2.037.432.884.648 1.941.648 3.17h-.002zm-2.467 0c0-1.28-.254-2.267-.762-2.964-.508-.697-1.233-1.046-2.18-1.046-.945 0-1.693.352-2.198 1.055-.505.702-.758 1.688-.758 2.956 0 .867.116 1.607.349 2.219.231.611.568 1.08 1.012 1.404.441.324.972.485 1.589.485.95 0 1.68-.351 2.188-1.054.508-.702.762-1.72.762-3.054l-.002-.001zm13.789-2.077c0 .753-.171 1.418-.513 1.997a3.535 3.535 0 01-1.454 1.359c-.628.326-1.376.49-2.244.49h-2.866v4.084h-2.417V13.378h5.186c1.382 0 2.444.32 3.191.959.745.64 1.118 1.543 1.118 2.712l-.001.002zm-2.434.042c0-1.219-.715-1.827-2.147-1.827h-2.498v3.762h2.565c.666 0 1.18-.166 1.54-.498.36-.332.54-.811.54-1.437zm11.862-1.046l-4.99 8.934h-2.752V13.378h2.147v6.743c0 .29-.006.625-.017 1.004-.012.379-.027.799-.05 1.26l5.022-9.007h2.72V24.98h-2.145v-6.843c0-.214.005-.495.017-.844.011-.349.026-.764.049-1.247h-.001zm5.398 8.934v3.359h-2.048v-5.368h1.277c.394-.72.742-1.608 1.049-2.664.306-1.057.537-2.145.696-3.265l.499-3.664h6.463v9.591h1.516v5.369h-2.048v-3.36h-7.406l.002.002zm1.761-2.01h3.842v-7.582h-2.147l-.254 1.927a31.163 31.163 0 01-.385 2.19 24.339 24.339 0 01-.5 1.963c-.18.596-.365 1.097-.557 1.503h.001zm16.85-6.924l-4.989 8.934h-2.752V13.378h2.146v6.743c0 .29-.005.625-.017 1.004-.011.379-.026.799-.049 1.26l5.022-9.007h2.72V24.98h-2.145v-6.843c0-.214.005-.495.016-.844.012-.349.027-.764.05-1.247h-.002zm11.446 8.934v-4.504c-.628.225-1.239.396-1.835.51a9.13 9.13 0 01-1.729.174c-1.311 0-2.268-.311-2.871-.931-.604-.62-.905-1.586-.905-2.898v-3.953h2.326v3.697c0 .867.174 1.464.521 1.79.347.327.93.49 1.749.49.819 0 1.767-.146 2.744-.437v-5.541h2.416v11.602h-2.416v.001zm7.084-4.973v4.973h-2.416V13.378h2.416v4.619h5.031v-4.62h2.416V24.98h-2.416v-4.973h-5.031zm12.436 2.009l-1.023 2.964h-2.417l4.211-11.602h2.851l4.193 11.602h-2.392l-1.025-2.964h-4.4.002zm2.195-6.85c-.055.22-.132.483-.229.79-.097.306-.169.524-.213.65l-1.213 3.583h3.317l-1.245-3.656a16.622 16.622 0 01-.213-.684 31.236 31.236 0 00-.204-.684zM83.775 32.12v9.723h-2.416v-9.724H77.63v-1.877h9.879v1.877h-3.737.002zm6.718 6.758l-1.024 2.964h-2.416l4.21-11.602h2.851l4.194 11.602h-2.393l-1.024-2.964h-4.4.002zm2.194-6.85c-.055.22-.131.483-.23.79-.099.308-.17.525-.213.651l-1.212 3.582h3.318l-1.245-3.656a15.475 15.475 0 01-.213-.684 29.663 29.663 0 00-.205-.683zm14.254.222v9.592h-2.408V30.24h9.814v11.602h-2.334V32.25h-5.072zm19.146 1.663c0 .752-.171 1.417-.512 1.996a3.547 3.547 0 01-1.454 1.36c-.628.325-1.376.489-2.244.489h-2.867v4.084h-2.416V30.24h5.185c1.382 0 2.445.32 3.192.96.745.639 1.118 1.543 1.118 2.712l-.002.001zm-2.433.041c0-1.218-.716-1.827-2.147-1.827h-2.498v3.762h2.563c.666 0 1.18-.166 1.54-.498.36-.332.54-.811.54-1.437h.002zm5.389 4.924l-1.023 2.964h-2.416l4.21-11.602h2.851l4.193 11.602h-2.392l-1.025-2.964h-4.399.001zm2.195-6.85c-.055.22-.131.483-.229.79-.097.306-.169.525-.213.651l-1.212 3.582h3.317l-1.245-3.656a15.21 15.21 0 01-.213-.684 31.228 31.228 0 00-.205-.683zm17.417 6.504c0 1.054-.394 1.87-1.18 2.446-.786.576-1.879.864-3.277.864h-5.776V30.24h5.283c1.409 0 2.476.246 3.198.737.724.49 1.086 1.217 1.086 2.177 0 .658-.182 1.214-.545 1.667-.363.453-.916.759-1.659.918.935.11 1.646.404 2.135.885.488.481.732 1.115.732 1.907l.003.001zm-3.097-5.047c0-.522-.165-.893-.495-1.112-.33-.22-.82-.33-1.471-.33h-2.752v2.874h2.769c.683 0 1.179-.119 1.486-.358.308-.24.463-.598.463-1.074zm.672 4.857c0-1.087-.775-1.63-2.326-1.63h-3.064v3.327h3.153c.775 0 1.342-.142 1.699-.424.357-.283.537-.707.537-1.273h.001zm15.113-2.353c0 1.207-.241 2.263-.725 3.166a5.179 5.179 0 01-2.04 2.104c-.876.5-1.904.75-3.084.75-1.18 0-2.244-.243-3.112-.73a4.906 4.906 0 01-1.999-2.078c-.464-.901-.695-1.97-.695-3.21s.23-2.303.691-3.187a4.757 4.757 0 011.999-2.03c.871-.47 1.915-.704 3.133-.704s2.27.237 3.138.712a4.84 4.84 0 011.998 2.038c.465.883.696 1.94.696 3.169zm-2.465 0c0-1.251-.295-2.233-.885-2.944-.59-.71-1.418-1.067-2.482-1.067-1.064 0-1.917.354-2.507 1.059-.59.705-.885 1.69-.885 2.952 0 .845.137 1.576.41 2.19.272.615.662 1.088 1.167 1.42.505.332 1.105.498 1.798.498 1.081 0 1.916-.356 2.503-1.07.587-.714.881-1.727.881-3.04v.002zm14.524 2.543c0 1.054-.394 1.87-1.18 2.446-.787.576-1.879.864-3.276.864h-5.776V30.24h5.283c1.409 0 2.476.246 3.198.737.724.49 1.086 1.217 1.086 2.177 0 .658-.182 1.214-.545 1.667-.363.453-.916.759-1.659.918.935.11 1.646.404 2.135.885.488.481.734 1.115.734 1.907v.001zm-3.097-5.047c0-.522-.165-.893-.496-1.112-.33-.22-.82-.33-1.47-.33h-2.753v2.874h2.77c.683 0 1.178-.119 1.487-.358.308-.239.463-.598.463-1.074h-.001zm.672 4.857c0-1.087-.775-1.63-2.326-1.63h-3.065v3.327h3.154c.774 0 1.342-.142 1.699-.424.357-.283.536-.707.536-1.273h.002zm6.209.536l-1.023 2.964h-2.417l4.21-11.602h2.852l4.193 11.602h-2.392l-1.025-2.964h-4.4.002zm2.195-6.85c-.055.22-.132.483-.229.79-.097.306-.169.525-.213.651l-1.213 3.582h3.317l-1.245-3.656a16.622 16.622 0 01-.213-.684 31.236 31.236 0 00-.204-.683zM84.786 58.704v3.36h-2.048v-5.369h1.278c.393-.719.742-1.607 1.048-2.664a23.43 23.43 0 00.696-3.264l.5-3.665h6.463v9.592h1.516v5.368H92.19v-3.36h-7.406l.001.002zm1.762-2.009h3.842v-7.582h-2.147l-.254 1.926a30.372 30.372 0 01-.385 2.19 24.09 24.09 0 01-.5 1.964c-.18.596-.366 1.097-.558 1.502h.002zm20.34-3.845c0 1.208-.241 2.263-.725 3.167a5.179 5.179 0 01-2.04 2.104c-.876.5-1.904.749-3.084.749-1.18 0-2.244-.243-3.112-.73a4.897 4.897 0 01-1.999-2.079c-.464-.9-.696-1.97-.696-3.21s.23-2.303.692-3.187a4.755 4.755 0 011.999-2.03c.87-.47 1.915-.703 3.133-.703s2.27.237 3.138.712a4.84 4.84 0 011.998 2.037c.465.884.696 1.94.696 3.17zm-2.466 0c0-1.25-.295-2.232-.885-2.943-.59-.71-1.417-1.067-2.482-1.067-1.066 0-1.917.353-2.507 1.058-.59.705-.885 1.69-.885 2.953 0 .845.137 1.576.41 2.19.272.614.661 1.088 1.167 1.42.505.332 1.105.498 1.798.498 1.081 0 1.915-.356 2.502-1.07.587-.713.881-1.726.881-3.038h.001zm6.701-3.738v9.592h-2.408v-11.6h9.814v11.6h-2.335v-9.592h-5.071zm20.873 3.738c0 1.208-.242 2.263-.726 3.167a5.183 5.183 0 01-2.039 2.104c-.877.5-1.904.749-3.084.749-1.18 0-2.245-.243-3.113-.73a4.902 4.902 0 01-1.998-2.079c-.465-.9-.696-1.97-.696-3.21s.23-2.303.691-3.187a4.758 4.758 0 011.999-2.03c.871-.47 1.915-.703 3.134-.703 1.218 0 2.269.237 3.137.712a4.848 4.848 0 011.999 2.037c.464.884.696 1.94.696 3.17zm-2.466 0c0-1.25-.295-2.232-.885-2.943-.59-.71-1.417-1.067-2.481-1.067-1.065 0-1.917.353-2.507 1.058-.59.705-.885 1.69-.885 2.953 0 .845.137 1.576.409 2.19.273.614.662 1.088 1.167 1.42.506.332 1.106.498 1.799.498 1.081 0 1.915-.356 2.502-1.07.587-.713.881-1.726.881-3.038zm6.439-1.177v7.03h-2.147v-11.6h3.235l2.065 6.488c.093.362.188.726.287 1.09.099.366.193.73.286 1.092.061-.209.118-.416.173-.622.055-.205.11-.412.168-.62.057-.21.115-.415.176-.618l2.121-6.81h3.22v11.6h-2.147v-7.03a77.596 77.596 0 01.083-2.528 96.33 96.33 0 01-.504 1.877c-.144.516-.263.92-.355 1.21l-2.081 6.472h-1.72l-2.081-6.472-.876-3.087c.032.637.058 1.165.073 1.585.017.42.024.734.024.943zm23.052 1.177c0 1.208-.241 2.263-.725 3.167a5.179 5.179 0 01-2.04 2.104c-.876.5-1.904.749-3.084.749-1.18 0-2.244-.243-3.112-.73a4.897 4.897 0 01-1.999-2.079c-.464-.9-.696-1.97-.696-3.21s.232-2.303.693-3.187a4.758 4.758 0 011.999-2.03c.871-.47 1.915-.703 3.133-.703s2.27.237 3.138.712a4.848 4.848 0 011.999 2.037c.464.884.695 1.94.695 3.17h-.001zm-2.466 0c0-1.25-.295-2.232-.885-2.943-.59-.71-1.417-1.067-2.482-1.067-1.066 0-1.917.353-2.507 1.058-.59.705-.885 1.69-.885 2.953 0 .845.137 1.576.409 2.19.273.614.662 1.088 1.167 1.42.506.332 1.106.498 1.799.498 1.081 0 1.915-.356 2.502-1.07.587-.713.881-1.726.881-3.038h.001zm6.709-3.87v9.716h-2.416V47.103h8.06v1.876h-5.644v.002zm8.773 6.76l-1.023 2.964h-2.416l4.21-11.6h2.851l4.194 11.6h-2.393l-1.023-2.964h-4.4zm2.195-6.85c-.055.22-.131.483-.23.79-.099.308-.169.525-.213.65l-1.212 3.583h3.318l-1.245-3.656a14.054 14.054 0 01-.213-.684 23.006 23.006 0 00-.205-.683zM90.407 72.257c0 1.054-.394 1.87-1.18 2.446-.786.576-1.879.864-3.278.864h-5.775V63.965h5.283c1.409 0 2.476.245 3.198.736.724.491 1.086 1.217 1.086 2.178 0 .658-.182 1.214-.545 1.667-.363.452-.916.759-1.659.917.935.11 1.646.405 2.134.886.489.48.733 1.116.733 1.906l.003.002zm-3.097-5.048c0-.522-.165-.892-.495-1.11-.33-.22-.82-.33-1.471-.33h-2.752v2.873h2.769c.683 0 1.178-.119 1.486-.359.31-.238.463-.597.463-1.074zm.672 4.858c0-1.087-.775-1.63-2.326-1.63h-3.064v3.326h3.153c.775 0 1.342-.141 1.7-.424.356-.282.536-.706.536-1.272h.001zm13.722 1.623v1.877h-9.413V63.965h9.077v1.877h-6.66v2.915h6.16v1.877h-6.16v3.054h6.996v.002zm6.987-7.847v9.723h-2.416v-9.723h-3.728v-1.877h9.879v1.877h-3.736.001zm14.449 7.847v1.877h-9.413V63.965h9.077v1.877h-6.66v2.915h6.16v1.877h-6.16v3.054h6.996v.002zm11.273-6.052c0 .752-.17 1.417-.512 1.996a3.547 3.547 0 01-1.454 1.359c-.628.326-1.376.49-2.244.49h-2.867v4.084h-2.416V63.965h5.186c1.381 0 2.446.319 3.191.959.745.64 1.118 1.543 1.118 2.712l-.002.002zm-2.433.04c0-1.218-.716-1.826-2.147-1.826h-2.498v3.762h2.565c.666 0 1.18-.166 1.539-.498.36-.332.541-.811.541-1.437zm5.389 4.925l-1.023 2.964h-2.416l4.21-11.602h2.851l4.194 11.602h-2.393l-1.023-2.964h-4.4zm2.195-6.85c-.055.22-.131.482-.23.79-.099.307-.169.523-.213.65l-1.212 3.581h3.318l-1.245-3.656a14.054 14.054 0 01-.213-.683 24.43 24.43 0 00-.205-.684v.001zm9.602 4.841v4.973h-2.416V63.965h2.416v4.619h5.031v-4.62h2.416v11.603h-2.416v-4.973h-5.031zm12.436 2.009l-1.023 2.964h-2.417l4.21-11.602h2.852l4.193 11.602h-2.392L166 72.603h-4.4.002zm2.195-6.85c-.055.22-.132.482-.229.79-.099.307-.169.523-.213.65l-1.213 3.581h3.317l-1.245-3.656a16.67 16.67 0 01-.213-.683c-.065-.23-.134-.459-.204-.684v.001zm9.33 2.783v7.03h-2.147v-11.6h3.237l2.064 6.487c.093.362.189.727.286 1.091l.287 1.091c.06-.208.117-.415.172-.621.055-.206.11-.413.168-.622.058-.208.115-.414.176-.617l2.122-6.81h3.219v11.603h-2.147v-7.031a77.598 77.598 0 01.084-2.528 96.361 96.361 0 01-.504 1.877 40.55 40.55 0 01-.357 1.21l-2.081 6.472h-1.721l-2.08-6.472-.877-3.087c.033.637.058 1.164.074 1.584.015.42.024.735.024.944h.001z" fill="#1D1D1B"/></g><defs><linearGradient id="paint0_linear_224_1654" x1="31.303" y1="-26.099" x2="31.303" y2="94.094" gradientUnits="userSpaceOnUse"><stop offset=".35" stop-color="#222F1A"/><stop offset=".93" stop-color="#1D1D1B"/></linearGradient><linearGradient id="paint1_linear_224_1654" x1="47.211" y1="-31.364" x2="47.211" y2="119.617" gradientUnits="userSpaceOnUse"><stop stop-color="#fff"/><stop offset=".89" stop-color="#222F1A"/></linearGradient><linearGradient id="paint2_linear_224_1654" x1="15.406" y1="-31.363" x2="15.406" y2="119.618" gradientUnits="userSpaceOnUse"><stop stop-color="#fff"/><stop offset=".89" stop-color="#222F1A"/></linearGradient><linearGradient id="paint3_linear_224_1654" x1="31.303" y1="-44.065" x2="31.303" y2="35.968" gradientUnits="userSpaceOnUse"><stop stop-color="#fff"/><stop offset=".89" stop-color="#222F1A"/></linearGradient><clipPath id="clip0_224_1654"><path fill="#fff" d="M0 0h185v87H0z"/></clipPath></defs></svg>