<svg width="351" height="318" viewBox="0 0 351 318" fill="none" xmlns="http://www.w3.org/2000/svg">
<g filter="url(#filter0_f_4264_14370)">
<path d="M175.847 50.8526C196.27 50.8526 216.693 50.9369 237.116 50.8526C241.12 50.7211 245.103 51.4907 248.772 53.105C252.441 54.7193 255.703 57.1373 258.319 60.1815C269.972 73.1504 281.842 85.9264 293.579 98.823C302.601 108.73 302.925 118.108 294.576 128.377C258.76 172.627 222.932 216.861 187.092 261.079C179.788 270.106 171.474 270.106 164.146 261.079C128.314 216.885 92.4897 172.651 56.6736 128.377C48.2642 118.011 48.5886 108.743 57.6227 98.8351C69.3599 85.9385 81.229 73.1624 92.8821 60.1935C95.4911 57.1446 98.7479 54.7208 102.413 53.1002C106.078 51.4796 110.059 50.7034 114.062 50.8285C134.629 50.937 155.232 50.8526 175.847 50.8526ZM161.251 243.156L162.068 242.674C161.527 240.999 160.998 239.323 160.434 237.66C149.614 205.792 138.801 173.929 127.997 142.069C127.349 140.176 126.171 138.188 126.34 136.356C126.544 134.331 128.009 132.414 128.922 130.462C130.913 131.322 132.805 132.393 134.569 133.656C135.482 134.439 135.554 136.211 136.011 137.537C148.4 173.953 160.786 210.36 173.168 246.76C173.769 248.52 174.55 250.207 175.823 253.305C191.38 207.504 206.421 163.234 221.558 118.698H60.4457L161.251 243.156ZM291.176 118.071C271.702 118.071 254.151 118.216 236.599 117.963C232.479 117.903 230.784 119.168 229.487 123.11C218.447 156.159 207.166 189.111 195.958 222.1C193.639 228.934 191.356 235.78 189.05 242.59L189.975 243.036L291.176 118.071ZM290.371 108.779L249.718 64.2915C248.733 67.0516 248.108 68.727 247.531 70.4144C245.129 77.4171 242.726 84.4319 240.323 91.4346C239.278 94.4599 237.777 97.3164 233.932 95.8339C230.088 94.3514 230.665 91.4226 231.842 88.2768C233.308 84.3475 234.509 80.3098 235.854 76.3324C237.596 71.1617 239.362 66.0031 241.176 60.6636H186.491C201.063 76.6578 214.915 91.8926 228.851 107.043C229.803 108.03 231.088 108.627 232.455 108.718C251.244 108.815 269.912 108.779 290.371 108.779ZM175.559 62.1823L133.344 108.417H217.786L175.559 62.1823ZM61.0584 108.453H116.537C111.527 93.7367 106.686 79.5264 101.484 64.2072L61.0584 108.453ZM109.821 60.4587C114.831 75.1873 119.66 89.3856 124.766 104.331L164.843 60.4587H109.821Z" fill="#15F2FD"/>
</g>
<g filter="url(#filter1_f_4264_14370)">
<path d="M175.847 50.8526C196.27 50.8526 216.693 50.9369 237.116 50.8526C241.12 50.7211 245.103 51.4907 248.772 53.105C252.441 54.7193 255.703 57.1373 258.319 60.1815C269.972 73.1504 281.842 85.9264 293.579 98.823C302.601 108.73 302.925 118.108 294.576 128.377C258.76 172.627 222.932 216.861 187.092 261.079C179.788 270.106 171.474 270.106 164.146 261.079C128.314 216.885 92.4897 172.651 56.6736 128.377C48.2642 118.011 48.5886 108.743 57.6227 98.8351C69.3599 85.9385 81.229 73.1624 92.8821 60.1935C95.4911 57.1446 98.7479 54.7208 102.413 53.1002C106.078 51.4796 110.059 50.7034 114.062 50.8285C134.629 50.937 155.232 50.8526 175.847 50.8526ZM161.251 243.156L162.068 242.674C161.527 240.999 160.998 239.323 160.434 237.66C149.614 205.792 138.801 173.929 127.997 142.069C127.349 140.176 126.171 138.188 126.34 136.356C126.544 134.331 128.009 132.414 128.922 130.462C130.913 131.322 132.805 132.393 134.569 133.656C135.482 134.439 135.554 136.211 136.011 137.537C148.4 173.953 160.786 210.36 173.168 246.76C173.769 248.52 174.55 250.207 175.823 253.305C191.38 207.504 206.421 163.234 221.558 118.698H60.4457L161.251 243.156ZM291.176 118.071C271.702 118.071 254.151 118.216 236.599 117.963C232.479 117.903 230.784 119.168 229.487 123.11C218.447 156.159 207.166 189.111 195.958 222.1C193.639 228.934 191.356 235.78 189.05 242.59L189.975 243.036L291.176 118.071ZM290.371 108.779L249.718 64.2915C248.733 67.0516 248.108 68.727 247.531 70.4144C245.129 77.4171 242.726 84.4319 240.323 91.4346C239.278 94.4599 237.777 97.3164 233.932 95.8339C230.088 94.3514 230.665 91.4226 231.842 88.2768C233.308 84.3475 234.509 80.3098 235.854 76.3324C237.596 71.1617 239.362 66.0031 241.176 60.6636H186.491C201.063 76.6578 214.915 91.8926 228.851 107.043C229.803 108.03 231.088 108.627 232.455 108.718C251.244 108.815 269.912 108.779 290.371 108.779ZM175.559 62.1823L133.344 108.417H217.786L175.559 62.1823ZM61.0584 108.453H116.537C111.527 93.7367 106.686 79.5264 101.484 64.2072L61.0584 108.453ZM109.821 60.4587C114.831 75.1873 119.66 89.3856 124.766 104.331L164.843 60.4587H109.821Z" fill="#15F2FD"/>
</g>
<g filter="url(#filter2_f_4264_14370)">
<path d="M175.847 50.8526C196.27 50.8526 216.693 50.9369 237.116 50.8526C241.12 50.7211 245.103 51.4907 248.772 53.105C252.441 54.7193 255.703 57.1373 258.319 60.1815C269.972 73.1504 281.842 85.9264 293.579 98.823C302.601 108.73 302.925 118.108 294.576 128.377C258.76 172.627 222.932 216.861 187.092 261.079C179.788 270.106 171.474 270.106 164.146 261.079C128.314 216.885 92.4897 172.651 56.6736 128.377C48.2642 118.011 48.5886 108.743 57.6227 98.8351C69.3599 85.9385 81.229 73.1624 92.8821 60.1935C95.4911 57.1446 98.7479 54.7208 102.413 53.1002C106.078 51.4796 110.059 50.7034 114.062 50.8285C134.629 50.937 155.232 50.8526 175.847 50.8526ZM161.251 243.156L162.068 242.674C161.527 240.999 160.998 239.323 160.434 237.66C149.614 205.792 138.801 173.929 127.997 142.069C127.349 140.176 126.171 138.188 126.34 136.356C126.544 134.331 128.009 132.414 128.922 130.462C130.913 131.322 132.805 132.393 134.569 133.656C135.482 134.439 135.554 136.211 136.011 137.537C148.4 173.953 160.786 210.36 173.168 246.76C173.769 248.52 174.55 250.207 175.823 253.305C191.38 207.504 206.421 163.234 221.558 118.698H60.4457L161.251 243.156ZM291.176 118.071C271.702 118.071 254.151 118.216 236.599 117.963C232.479 117.903 230.784 119.168 229.487 123.11C218.447 156.159 207.166 189.111 195.958 222.1C193.639 228.934 191.356 235.78 189.05 242.59L189.975 243.036L291.176 118.071ZM290.371 108.779L249.718 64.2915C248.733 67.0516 248.108 68.727 247.531 70.4144C245.129 77.4171 242.726 84.4319 240.323 91.4346C239.278 94.4599 237.777 97.3164 233.932 95.8339C230.088 94.3514 230.665 91.4226 231.842 88.2768C233.308 84.3475 234.509 80.3098 235.854 76.3324C237.596 71.1617 239.362 66.0031 241.176 60.6636H186.491C201.063 76.6578 214.915 91.8926 228.851 107.043C229.803 108.03 231.088 108.627 232.455 108.718C251.244 108.815 269.912 108.779 290.371 108.779ZM175.559 62.1823L133.344 108.417H217.786L175.559 62.1823ZM61.0584 108.453H116.537C111.527 93.7367 106.686 79.5264 101.484 64.2072L61.0584 108.453ZM109.821 60.4587C114.831 75.1873 119.66 89.3856 124.766 104.331L164.843 60.4587H109.821Z" fill="#15F2FD"/>
</g>
<g filter="url(#filter3_d_4264_14370)">
<path d="M175.847 50.8526C196.27 50.8526 216.693 50.9369 237.116 50.8526C241.12 50.7211 245.103 51.4907 248.772 53.105C252.441 54.7193 255.703 57.1373 258.319 60.1815C269.972 73.1504 281.842 85.9264 293.579 98.823C302.601 108.73 302.925 118.108 294.576 128.377C258.76 172.627 222.932 216.861 187.092 261.079C179.788 270.106 171.474 270.106 164.146 261.079C128.314 216.885 92.4897 172.651 56.6736 128.377C48.2642 118.011 48.5886 108.743 57.6227 98.8351C69.3599 85.9385 81.229 73.1624 92.8821 60.1935C95.4911 57.1446 98.7479 54.7208 102.413 53.1002C106.078 51.4796 110.059 50.7034 114.062 50.8285C134.629 50.937 155.232 50.8526 175.847 50.8526ZM161.251 243.156L162.068 242.674C161.527 240.999 160.998 239.323 160.434 237.66C149.614 205.792 138.801 173.929 127.997 142.069C127.349 140.176 126.171 138.188 126.34 136.356C126.544 134.331 128.009 132.414 128.922 130.462C130.913 131.322 132.805 132.393 134.569 133.656C135.482 134.439 135.554 136.211 136.011 137.537C148.4 173.953 160.786 210.36 173.168 246.76C173.769 248.52 174.55 250.207 175.823 253.305C191.38 207.504 206.421 163.234 221.558 118.698H60.4457L161.251 243.156ZM291.176 118.071C271.702 118.071 254.151 118.216 236.599 117.963C232.479 117.903 230.784 119.168 229.487 123.11C218.447 156.159 207.166 189.111 195.958 222.1C193.639 228.934 191.356 235.78 189.05 242.59L189.975 243.036L291.176 118.071ZM290.371 108.779L249.718 64.2915C248.733 67.0516 248.108 68.727 247.531 70.4144C245.129 77.4171 242.726 84.4319 240.323 91.4346C239.278 94.4599 237.777 97.3164 233.932 95.8339C230.088 94.3514 230.665 91.4226 231.842 88.2768C233.308 84.3475 234.509 80.3098 235.854 76.3324C237.596 71.1617 239.362 66.0031 241.176 60.6636H186.491C201.063 76.6578 214.915 91.8926 228.851 107.043C229.803 108.03 231.088 108.627 232.455 108.718C251.244 108.815 269.912 108.779 290.371 108.779ZM175.559 62.1823L133.344 108.417H217.786L175.559 62.1823ZM61.0584 108.453H116.537C111.527 93.7367 106.686 79.5264 101.484 64.2072L61.0584 108.453ZM109.821 60.4587C114.831 75.1873 119.66 89.3856 124.766 104.331L164.843 60.4587H109.821Z" fill="white"/>
</g>
<defs>
<filter id="filter0_f_4264_14370" x="0.598145" y="0.81543" width="350.003" height="317.034" filterUnits="userSpaceOnUse" color-interpolation-filters="sRGB">
<feFlood flood-opacity="0" result="BackgroundImageFix"/>
<feBlend mode="normal" in="SourceGraphic" in2="BackgroundImageFix" result="shape"/>
<feGaussianBlur stdDeviation="25" result="effect1_foregroundBlur_4264_14370"/>
</filter>
<filter id="filter1_f_4264_14370" x="25.5981" y="25.8154" width="300.003" height="267.034" filterUnits="userSpaceOnUse" color-interpolation-filters="sRGB">
<feFlood flood-opacity="0" result="BackgroundImageFix"/>
<feBlend mode="normal" in="SourceGraphic" in2="BackgroundImageFix" result="shape"/>
<feGaussianBlur stdDeviation="12.5" result="effect1_foregroundBlur_4264_14370"/>
</filter>
<filter id="filter2_f_4264_14370" x="35.5981" y="35.8154" width="280.003" height="247.034" filterUnits="userSpaceOnUse" color-interpolation-filters="sRGB">
<feFlood flood-opacity="0" result="BackgroundImageFix"/>
<feBlend mode="normal" in="SourceGraphic" in2="BackgroundImageFix" result="shape"/>
<feGaussianBlur stdDeviation="7.5" result="effect1_foregroundBlur_4264_14370"/>
</filter>
<filter id="filter3_d_4264_14370" x="46.5981" y="50.8154" width="258.003" height="225.034" filterUnits="userSpaceOnUse" color-interpolation-filters="sRGB">
<feFlood flood-opacity="0" result="BackgroundImageFix"/>
<feColorMatrix in="SourceAlpha" type="matrix" values="0 0 0 0 0 0 0 0 0 0 0 0 0 0 0 0 0 0 127 0" result="hardAlpha"/>
<feOffset dy="4"/>
<feGaussianBlur stdDeviation="2"/>
<feComposite in2="hardAlpha" operator="out"/>
<feColorMatrix type="matrix" values="0 0 0 0 0 0 0 0 0 0 0 0 0 0 0 0 0 0 0.25 0"/>
<feBlend mode="normal" in2="BackgroundImageFix" result="effect1_dropShadow_4264_14370"/>
<feBlend mode="normal" in="SourceGraphic" in2="effect1_dropShadow_4264_14370" result="shape"/>
</filter>
</defs>
</svg>
