<svg width="356" height="304" viewBox="0 0 356 304" fill="none" xmlns="http://www.w3.org/2000/svg">
<g filter="url(#filter0_f_4264_14378)">
<path d="M201.483 61.4199C199.143 76.8099 196.783 92.4199 194.403 107.98C187.583 152.6 180.763 197.223 173.943 241.85C172.653 250.33 168.943 254.58 162.943 253.85C156.533 253.12 153.623 248.18 154.943 239.49C161.363 196.99 167.836 154.497 174.363 112.01C176.863 95.6099 179.373 79.2065 181.893 62.7999C182.108 61.1512 182.443 59.5203 182.893 57.9199C183.509 55.6515 184.952 53.6961 186.938 52.4393C188.925 51.1824 191.31 50.7152 193.623 51.1299C195.96 51.5979 198.046 52.9003 199.492 54.7939C200.938 56.6874 201.646 59.0427 201.483 61.4199Z" fill="#15F2FD"/>
<path d="M282.683 152.37C265.683 134.37 249.063 116.74 232.443 99.0901C231.138 97.8198 229.949 96.4342 228.893 94.95C227.722 93.1118 227.222 90.926 227.475 88.7613C227.729 86.5967 228.721 84.5857 230.285 83.0677C231.849 81.5497 233.888 80.6176 236.059 80.4285C238.231 80.2395 240.401 80.8051 242.203 82.0301C243.662 83.1352 245.003 84.3886 246.203 85.77C264.343 104.95 282.467 124.15 300.573 143.37C307.353 150.57 307.333 154.37 300.463 161.61C282.363 180.83 264.243 200.033 246.103 219.22C245.115 220.337 244.045 221.38 242.903 222.34C241.114 223.825 238.842 224.601 236.519 224.522C234.195 224.442 231.982 223.513 230.298 221.909C228.615 220.306 227.578 218.14 227.386 215.823C227.193 213.506 227.858 211.199 229.253 209.34C230.495 207.78 231.831 206.298 233.253 204.9L279.073 156.37C280.163 155.21 281.243 153.98 282.683 152.37Z" fill="#15F2FD"/>
<path d="M73.1332 152.56C90.1332 170.56 106.773 188.21 123.403 205.86C124.705 207.135 125.887 208.528 126.933 210.02C128.068 211.873 128.538 214.057 128.266 216.213C127.993 218.369 126.994 220.368 125.433 221.88C123.842 223.36 121.801 224.263 119.636 224.444C117.471 224.625 115.308 224.075 113.493 222.88C112.554 222.192 111.69 221.407 110.913 220.54C91.8731 200.38 72.8465 180.207 53.8331 160.02C48.9431 154.81 48.8331 150.25 53.7131 145.1C72.7931 124.753 91.9332 104.46 111.133 84.22C114.973 80.17 119.713 79.34 123.683 81.78C127.653 84.22 129.203 88.09 127.913 92.48C127.243 94.73 125.503 96.8 123.843 98.57C107.943 115.537 91.9965 132.457 76.0032 149.33C75.0732 150.25 74.2732 151.25 73.1332 152.56Z" fill="#15F2FD"/>
</g>
<g filter="url(#filter1_f_4264_14378)">
<path d="M201.483 61.4199C199.143 76.8099 196.783 92.4199 194.403 107.98C187.583 152.6 180.763 197.223 173.943 241.85C172.653 250.33 168.943 254.58 162.943 253.85C156.533 253.12 153.623 248.18 154.943 239.49C161.363 196.99 167.836 154.497 174.363 112.01C176.863 95.6099 179.373 79.2065 181.893 62.7999C182.108 61.1512 182.443 59.5203 182.893 57.9199C183.509 55.6515 184.952 53.6961 186.938 52.4393C188.925 51.1824 191.31 50.7152 193.623 51.1299C195.96 51.5979 198.046 52.9003 199.492 54.7939C200.938 56.6874 201.646 59.0427 201.483 61.4199Z" fill="#15F2FD"/>
<path d="M282.683 152.37C265.683 134.37 249.063 116.74 232.443 99.0901C231.138 97.8198 229.949 96.4342 228.893 94.95C227.722 93.1118 227.222 90.926 227.475 88.7613C227.729 86.5967 228.721 84.5857 230.285 83.0677C231.849 81.5497 233.888 80.6176 236.059 80.4285C238.231 80.2395 240.401 80.8051 242.203 82.0301C243.662 83.1352 245.003 84.3886 246.203 85.77C264.343 104.95 282.467 124.15 300.573 143.37C307.353 150.57 307.333 154.37 300.463 161.61C282.363 180.83 264.243 200.033 246.103 219.22C245.115 220.337 244.045 221.38 242.903 222.34C241.114 223.825 238.842 224.601 236.519 224.522C234.195 224.442 231.982 223.513 230.298 221.909C228.615 220.306 227.578 218.14 227.386 215.823C227.193 213.506 227.858 211.199 229.253 209.34C230.495 207.78 231.831 206.298 233.253 204.9L279.073 156.37C280.163 155.21 281.243 153.98 282.683 152.37Z" fill="#15F2FD"/>
<path d="M73.1332 152.56C90.1332 170.56 106.773 188.21 123.403 205.86C124.705 207.135 125.887 208.528 126.933 210.02C128.068 211.873 128.538 214.057 128.266 216.213C127.993 218.369 126.994 220.368 125.433 221.88C123.842 223.36 121.801 224.263 119.636 224.444C117.471 224.625 115.308 224.075 113.493 222.88C112.554 222.192 111.69 221.407 110.913 220.54C91.8731 200.38 72.8465 180.207 53.8331 160.02C48.9431 154.81 48.8331 150.25 53.7131 145.1C72.7931 124.753 91.9332 104.46 111.133 84.22C114.973 80.17 119.713 79.34 123.683 81.78C127.653 84.22 129.203 88.09 127.913 92.48C127.243 94.73 125.503 96.8 123.843 98.57C107.943 115.537 91.9965 132.457 76.0032 149.33C75.0732 150.25 74.2732 151.25 73.1332 152.56Z" fill="#15F2FD"/>
</g>
<g filter="url(#filter2_f_4264_14378)">
<path d="M201.483 61.4199C199.143 76.8099 196.783 92.4199 194.403 107.98C187.583 152.6 180.763 197.223 173.943 241.85C172.653 250.33 168.943 254.58 162.943 253.85C156.533 253.12 153.623 248.18 154.943 239.49C161.363 196.99 167.836 154.497 174.363 112.01C176.863 95.6099 179.373 79.2065 181.893 62.7999C182.108 61.1512 182.443 59.5203 182.893 57.9199C183.509 55.6515 184.952 53.6961 186.938 52.4393C188.925 51.1824 191.31 50.7152 193.623 51.1299C195.96 51.5979 198.046 52.9003 199.492 54.7939C200.938 56.6874 201.646 59.0427 201.483 61.4199Z" fill="#15F2FD"/>
<path d="M282.683 152.37C265.683 134.37 249.063 116.74 232.443 99.0901C231.138 97.8198 229.949 96.4342 228.893 94.95C227.722 93.1118 227.222 90.926 227.475 88.7613C227.729 86.5967 228.721 84.5857 230.285 83.0677C231.849 81.5497 233.888 80.6176 236.059 80.4285C238.231 80.2395 240.401 80.8051 242.203 82.0301C243.662 83.1352 245.003 84.3886 246.203 85.77C264.343 104.95 282.467 124.15 300.573 143.37C307.353 150.57 307.333 154.37 300.463 161.61C282.363 180.83 264.243 200.033 246.103 219.22C245.115 220.337 244.045 221.38 242.903 222.34C241.114 223.825 238.842 224.601 236.519 224.522C234.195 224.442 231.982 223.513 230.298 221.909C228.615 220.306 227.578 218.14 227.386 215.823C227.193 213.506 227.858 211.199 229.253 209.34C230.495 207.78 231.831 206.298 233.253 204.9L279.073 156.37C280.163 155.21 281.243 153.98 282.683 152.37Z" fill="#15F2FD"/>
<path d="M73.1332 152.56C90.1332 170.56 106.773 188.21 123.403 205.86C124.705 207.135 125.887 208.528 126.933 210.02C128.068 211.873 128.538 214.057 128.266 216.213C127.993 218.369 126.994 220.368 125.433 221.88C123.842 223.36 121.801 224.263 119.636 224.444C117.471 224.625 115.308 224.075 113.493 222.88C112.554 222.192 111.69 221.407 110.913 220.54C91.8731 200.38 72.8465 180.207 53.8331 160.02C48.9431 154.81 48.8331 150.25 53.7131 145.1C72.7931 124.753 91.9332 104.46 111.133 84.22C114.973 80.17 119.713 79.34 123.683 81.78C127.653 84.22 129.203 88.09 127.913 92.48C127.243 94.73 125.503 96.8 123.843 98.57C107.943 115.537 91.9965 132.457 76.0032 149.33C75.0732 150.25 74.2732 151.25 73.1332 152.56Z" fill="#15F2FD"/>
</g>
<g filter="url(#filter3_d_4264_14378)">
<path fill-rule="evenodd" clip-rule="evenodd" d="M201.483 61.4199C200.719 66.4478 199.952 71.4992 199.183 76.5647L199.17 76.6498C197.59 87.0612 196.001 97.5318 194.403 107.98C187.583 152.6 180.763 197.223 173.943 241.85C172.653 250.33 168.943 254.58 162.943 253.85C156.533 253.12 153.623 248.18 154.943 239.49C161.363 196.99 167.836 154.497 174.363 112.01C176.863 95.6099 179.373 79.2065 181.893 62.7999C182.108 61.1512 182.443 59.5203 182.893 57.9199C183.509 55.6515 184.952 53.6961 186.938 52.4393C188.925 51.1824 191.31 50.7152 193.623 51.1299C195.959 51.5979 198.045 52.9003 199.492 54.7939C200.938 56.6874 201.646 59.0427 201.483 61.4199ZM282.683 152.37C265.683 134.37 249.063 116.74 232.443 99.0901C231.137 97.8198 229.949 96.4342 228.893 94.95C227.722 93.1118 227.221 90.926 227.475 88.7613C227.728 86.5967 228.721 84.5857 230.285 83.0677C231.848 81.5497 233.888 80.6176 236.059 80.4285C238.231 80.2395 240.4 80.8051 242.203 82.0301C243.662 83.1352 245.003 84.3886 246.203 85.7701C264.343 104.95 282.467 124.15 300.573 143.37C307.353 150.57 307.333 154.37 300.463 161.61C282.363 180.83 264.243 200.033 246.103 219.22C245.115 220.337 244.045 221.38 242.903 222.34C241.114 223.825 238.842 224.601 236.519 224.522C234.195 224.442 231.982 223.513 230.298 221.909C228.614 220.306 227.578 218.14 227.386 215.823C227.193 213.506 227.857 211.199 229.253 209.34C230.495 207.78 231.831 206.298 233.253 204.9L279.073 156.37C279.915 155.474 280.751 154.536 281.751 153.414L281.755 153.41L282.292 152.807C282.42 152.665 282.55 152.519 282.683 152.37ZM123.403 205.86C106.773 188.21 90.1332 170.56 73.1332 152.56C73.4464 152.2 73.734 151.864 74.0056 151.546C74.7226 150.707 75.3287 149.997 76.0032 149.33C91.9965 132.457 107.943 115.537 123.843 98.57C125.503 96.8 127.243 94.73 127.913 92.48C129.203 88.09 127.653 84.22 123.683 81.78C119.713 79.34 114.973 80.17 111.133 84.22C91.9332 104.46 72.7932 124.753 53.7132 145.1C48.8331 150.25 48.9431 154.81 53.8331 160.02C72.8465 180.207 91.8731 200.38 110.913 220.54C111.69 221.407 112.554 222.192 113.493 222.88C115.308 224.075 117.471 224.625 119.636 224.444C121.801 224.263 123.842 223.36 125.433 221.88C126.994 220.368 127.993 218.369 128.266 216.213C128.538 214.057 128.068 211.873 126.933 210.02C125.887 208.528 124.705 207.135 123.403 205.86Z" fill="white"/>
</g>
<defs>
<filter id="filter0_f_4264_14378" x="0.108887" y="0.982422" width="355.528" height="302.948" filterUnits="userSpaceOnUse" color-interpolation-filters="sRGB">
<feFlood flood-opacity="0" result="BackgroundImageFix"/>
<feBlend mode="normal" in="SourceGraphic" in2="BackgroundImageFix" result="shape"/>
<feGaussianBlur stdDeviation="25" result="effect1_foregroundBlur_4264_14378"/>
</filter>
<filter id="filter1_f_4264_14378" x="25.1089" y="25.9824" width="305.528" height="252.948" filterUnits="userSpaceOnUse" color-interpolation-filters="sRGB">
<feFlood flood-opacity="0" result="BackgroundImageFix"/>
<feBlend mode="normal" in="SourceGraphic" in2="BackgroundImageFix" result="shape"/>
<feGaussianBlur stdDeviation="12.5" result="effect1_foregroundBlur_4264_14378"/>
</filter>
<filter id="filter2_f_4264_14378" x="35.1089" y="35.9824" width="285.528" height="232.948" filterUnits="userSpaceOnUse" color-interpolation-filters="sRGB">
<feFlood flood-opacity="0" result="BackgroundImageFix"/>
<feBlend mode="normal" in="SourceGraphic" in2="BackgroundImageFix" result="shape"/>
<feGaussianBlur stdDeviation="7.5" result="effect1_foregroundBlur_4264_14378"/>
</filter>
<filter id="filter3_d_4264_14378" x="46.1089" y="50.9824" width="263.528" height="210.948" filterUnits="userSpaceOnUse" color-interpolation-filters="sRGB">
<feFlood flood-opacity="0" result="BackgroundImageFix"/>
<feColorMatrix in="SourceAlpha" type="matrix" values="0 0 0 0 0 0 0 0 0 0 0 0 0 0 0 0 0 0 127 0" result="hardAlpha"/>
<feOffset dy="4"/>
<feGaussianBlur stdDeviation="2"/>
<feComposite in2="hardAlpha" operator="out"/>
<feColorMatrix type="matrix" values="0 0 0 0 0 0 0 0 0 0 0 0 0 0 0 0 0 0 0.25 0"/>
<feBlend mode="normal" in2="BackgroundImageFix" result="effect1_dropShadow_4264_14378"/>
<feBlend mode="normal" in="SourceGraphic" in2="effect1_dropShadow_4264_14378" result="shape"/>
</filter>
</defs>
</svg>
