<svg width="303" height="303" viewBox="0 0 303 303" fill="none" xmlns="http://www.w3.org/2000/svg">
<g filter="url(#filter0_f_4190_15321)">
<path d="M151.161 50.5024C177.955 50.5371 203.638 61.2113 222.56 80.1769C241.482 99.1426 252.093 124.846 252.058 151.633C252.023 178.42 241.346 204.096 222.375 223.013C203.405 241.929 177.694 252.537 150.9 252.502C95.1145 252.471 50.0383 207.098 50.1016 151.186C50.2204 95.5821 95.4707 50.4945 151.161 50.5024ZM150.995 58.4153C99.7448 58.4153 58.0009 100.354 58.0325 151.637C58.0642 202.92 99.9823 244.637 151.256 244.597C202.53 244.558 244.266 202.659 244.218 151.368C244.171 100.077 202.316 58.3678 150.995 58.4153Z" fill="#15F2FD"/>
<path d="M224.565 151.455C224.555 138.514 221.114 125.807 214.592 114.628C213.801 113.307 212.891 111.653 213.096 110.324C213.302 108.994 214.972 107.119 215.89 107.159C217.537 107.262 219.745 108.227 220.592 109.533C225.692 117.529 229.169 126.45 230.826 135.787C239.216 181.54 210.31 223.28 164.49 231.668C119.968 239.81 75.4377 206.655 70.5541 161.71C65.7259 117.287 93.8402 79.2499 137.769 71.3529C156.955 67.9028 175.136 71.5903 192.074 81.2519C194.623 82.6999 197.14 84.417 195.177 87.7009C193.214 90.9847 190.554 89.5129 188.053 88.0728C144.861 63.5428 91.5528 86.3399 79.8227 134.355C69.4777 176.665 98.7317 218.92 142.003 224.182C186.035 229.571 224.581 195.609 224.565 151.455Z" fill="#15F2FD"/>
<path d="M125.239 150.838C125.239 143.489 125.239 136.138 125.239 128.785C125.239 123.673 127.052 119.511 131.698 117.018C136.17 114.644 140.523 115.23 144.718 117.928C156.417 125.453 168.186 132.86 179.821 140.48C188.188 145.955 188.211 156.1 179.821 161.583C168.075 169.275 156.253 176.845 144.354 184.293C135.56 189.832 125.572 184.467 125.271 174.078C125.065 166.339 125.247 158.584 125.239 150.838ZM133.154 150.727C133.154 158.078 133.02 165.437 133.249 172.788C133.305 174.537 134.152 177.156 135.394 177.734C136.874 178.422 139.518 177.884 141.061 176.942C152.325 169.955 163.453 162.747 174.597 155.578C179.465 152.412 179.402 149.627 174.431 146.43C163.398 139.309 152.38 132.187 141.236 125.263C139.652 124.282 136.953 123.546 135.592 124.266C134.231 124.986 133.328 127.637 133.218 129.481C132.988 136.531 133.146 143.629 133.146 150.727H133.154Z" fill="#15F2FD"/>
<path d="M210.263 97.7185C208.735 98.7314 207.136 100.607 205.688 100.504C204.239 100.401 202.332 98.3437 202.063 96.8719C201.95 96.3482 201.972 95.8045 202.127 95.2917C202.281 94.7789 202.564 94.3137 202.947 93.9397C203.331 93.5657 203.803 93.2952 204.32 93.1534C204.837 93.0116 205.381 93.0033 205.901 93.1291C207.484 93.406 208.783 94.9569 210.207 95.9381L210.263 97.7185Z" fill="#15F2FD"/>
</g>
<g filter="url(#filter1_f_4190_15321)">
<path d="M151.161 50.5024C177.955 50.5371 203.638 61.2113 222.56 80.1769C241.482 99.1426 252.093 124.846 252.058 151.633C252.023 178.42 241.346 204.096 222.375 223.013C203.405 241.929 177.694 252.537 150.9 252.502C95.1145 252.471 50.0383 207.098 50.1016 151.186C50.2204 95.5821 95.4707 50.4945 151.161 50.5024ZM150.995 58.4153C99.7448 58.4153 58.0009 100.354 58.0325 151.637C58.0642 202.92 99.9823 244.637 151.256 244.597C202.53 244.558 244.266 202.659 244.218 151.368C244.171 100.077 202.316 58.3678 150.995 58.4153Z" fill="#15F2FD"/>
<path d="M224.565 151.455C224.555 138.514 221.114 125.807 214.592 114.628C213.801 113.307 212.891 111.653 213.096 110.324C213.302 108.994 214.972 107.119 215.89 107.159C217.537 107.262 219.745 108.227 220.592 109.533C225.692 117.529 229.169 126.45 230.826 135.787C239.216 181.54 210.31 223.28 164.49 231.668C119.968 239.81 75.4377 206.655 70.5541 161.71C65.7259 117.287 93.8402 79.2499 137.769 71.3529C156.955 67.9028 175.136 71.5903 192.074 81.2519C194.623 82.6999 197.14 84.417 195.177 87.7009C193.214 90.9847 190.554 89.5129 188.053 88.0728C144.861 63.5428 91.5528 86.3399 79.8227 134.355C69.4777 176.665 98.7317 218.92 142.003 224.182C186.035 229.571 224.581 195.609 224.565 151.455Z" fill="#15F2FD"/>
<path d="M125.239 150.838C125.239 143.489 125.239 136.138 125.239 128.785C125.239 123.673 127.052 119.511 131.698 117.018C136.17 114.644 140.523 115.23 144.718 117.928C156.417 125.453 168.186 132.86 179.821 140.48C188.188 145.955 188.211 156.1 179.821 161.583C168.075 169.275 156.253 176.845 144.354 184.293C135.56 189.832 125.572 184.467 125.271 174.078C125.065 166.339 125.247 158.584 125.239 150.838ZM133.154 150.727C133.154 158.078 133.02 165.437 133.249 172.788C133.305 174.537 134.152 177.156 135.394 177.734C136.874 178.422 139.518 177.884 141.061 176.942C152.325 169.955 163.453 162.747 174.597 155.578C179.465 152.412 179.402 149.627 174.431 146.43C163.398 139.309 152.38 132.187 141.236 125.263C139.652 124.282 136.953 123.546 135.592 124.266C134.231 124.986 133.328 127.637 133.218 129.481C132.988 136.531 133.146 143.629 133.146 150.727H133.154Z" fill="#15F2FD"/>
<path d="M210.263 97.7185C208.735 98.7314 207.136 100.607 205.688 100.504C204.239 100.401 202.332 98.3437 202.063 96.8719C201.95 96.3482 201.972 95.8045 202.127 95.2917C202.281 94.7789 202.564 94.3137 202.947 93.9397C203.331 93.5657 203.803 93.2952 204.32 93.1534C204.837 93.0116 205.381 93.0033 205.901 93.1291C207.484 93.406 208.783 94.9569 210.207 95.9381L210.263 97.7185Z" fill="#15F2FD"/>
</g>
<g filter="url(#filter2_f_4190_15321)">
<path d="M151.161 50.5024C177.955 50.5371 203.638 61.2113 222.56 80.1769C241.482 99.1426 252.093 124.846 252.058 151.633C252.023 178.42 241.346 204.096 222.375 223.013C203.405 241.929 177.694 252.537 150.9 252.502C95.1145 252.471 50.0383 207.098 50.1016 151.186C50.2204 95.5821 95.4707 50.4945 151.161 50.5024ZM150.995 58.4153C99.7448 58.4153 58.0009 100.354 58.0325 151.637C58.0642 202.92 99.9823 244.637 151.256 244.597C202.53 244.558 244.266 202.659 244.218 151.368C244.171 100.077 202.316 58.3678 150.995 58.4153Z" fill="#15F2FD"/>
<path d="M224.565 151.455C224.555 138.514 221.114 125.807 214.592 114.628C213.801 113.307 212.891 111.653 213.096 110.324C213.302 108.994 214.972 107.119 215.89 107.159C217.537 107.262 219.745 108.227 220.592 109.533C225.692 117.529 229.169 126.45 230.826 135.787C239.216 181.54 210.31 223.28 164.49 231.668C119.968 239.81 75.4377 206.655 70.5541 161.71C65.7259 117.287 93.8402 79.2499 137.769 71.3529C156.955 67.9028 175.136 71.5903 192.074 81.2519C194.623 82.6999 197.14 84.417 195.177 87.7009C193.214 90.9847 190.554 89.5129 188.053 88.0728C144.861 63.5428 91.5528 86.3399 79.8227 134.355C69.4777 176.665 98.7317 218.92 142.003 224.182C186.035 229.571 224.581 195.609 224.565 151.455Z" fill="#15F2FD"/>
<path d="M125.239 150.838C125.239 143.489 125.239 136.138 125.239 128.785C125.239 123.673 127.052 119.511 131.698 117.018C136.17 114.644 140.523 115.23 144.718 117.928C156.417 125.453 168.186 132.86 179.821 140.48C188.188 145.955 188.211 156.1 179.821 161.583C168.075 169.275 156.253 176.845 144.354 184.293C135.56 189.832 125.572 184.467 125.271 174.078C125.065 166.339 125.247 158.584 125.239 150.838ZM133.154 150.727C133.154 158.078 133.02 165.437 133.249 172.788C133.305 174.537 134.152 177.156 135.394 177.734C136.874 178.422 139.518 177.884 141.061 176.942C152.325 169.955 163.453 162.747 174.597 155.578C179.465 152.412 179.402 149.627 174.431 146.43C163.398 139.309 152.38 132.187 141.236 125.263C139.652 124.282 136.953 123.546 135.592 124.266C134.231 124.986 133.328 127.637 133.218 129.481C132.988 136.531 133.146 143.629 133.146 150.727H133.154Z" fill="#15F2FD"/>
<path d="M210.263 97.7185C208.735 98.7314 207.136 100.607 205.688 100.504C204.239 100.401 202.332 98.3437 202.063 96.8719C201.95 96.3482 201.972 95.8045 202.127 95.2917C202.281 94.7789 202.564 94.3137 202.947 93.9397C203.331 93.5657 203.803 93.2952 204.32 93.1534C204.837 93.0116 205.381 93.0033 205.901 93.1291C207.484 93.406 208.783 94.9569 210.207 95.9381L210.263 97.7185Z" fill="#15F2FD"/>
</g>
<g filter="url(#filter3_d_4190_15321)">
<path d="M151.161 50.5024C177.955 50.5371 203.638 61.2113 222.56 80.1769C241.482 99.1426 252.093 124.846 252.058 151.633C252.023 178.42 241.346 204.096 222.375 223.013C203.405 241.929 177.694 252.537 150.9 252.502C95.1145 252.471 50.0383 207.098 50.1016 151.186C50.2204 95.5821 95.4707 50.4945 151.161 50.5024ZM150.995 58.4153C99.7448 58.4153 58.0009 100.354 58.0325 151.637C58.0642 202.92 99.9823 244.637 151.256 244.597C202.53 244.558 244.266 202.659 244.218 151.368C244.171 100.077 202.316 58.3678 150.995 58.4153Z" fill="white"/>
<path d="M224.565 151.455C224.555 138.514 221.114 125.807 214.592 114.628C213.801 113.307 212.891 111.653 213.096 110.324C213.302 108.994 214.972 107.119 215.89 107.159C217.537 107.262 219.745 108.227 220.592 109.533C225.692 117.529 229.169 126.45 230.826 135.787C239.216 181.54 210.31 223.28 164.49 231.668C119.968 239.81 75.4377 206.655 70.5541 161.71C65.7259 117.287 93.8402 79.2499 137.769 71.3529C156.955 67.9028 175.136 71.5903 192.074 81.2519C194.623 82.6999 197.14 84.417 195.177 87.7009C193.214 90.9847 190.554 89.5129 188.053 88.0728C144.861 63.5428 91.5528 86.3399 79.8227 134.355C69.4777 176.665 98.7317 218.92 142.003 224.182C186.035 229.571 224.581 195.609 224.565 151.455Z" fill="white"/>
<path d="M125.239 150.838C125.239 143.489 125.239 136.138 125.239 128.785C125.239 123.673 127.052 119.511 131.698 117.018C136.17 114.644 140.523 115.23 144.718 117.928C156.417 125.453 168.186 132.86 179.821 140.48C188.188 145.955 188.211 156.1 179.821 161.583C168.075 169.275 156.253 176.845 144.354 184.293C135.56 189.832 125.572 184.467 125.271 174.078C125.065 166.339 125.247 158.584 125.239 150.838ZM133.154 150.727C133.154 158.078 133.02 165.437 133.249 172.788C133.305 174.537 134.152 177.156 135.394 177.734C136.874 178.422 139.518 177.884 141.061 176.942C152.325 169.955 163.453 162.747 174.597 155.578C179.465 152.412 179.402 149.627 174.431 146.43C163.398 139.309 152.38 132.187 141.236 125.263C139.652 124.282 136.953 123.546 135.592 124.266C134.231 124.986 133.328 127.637 133.218 129.481C132.988 136.531 133.146 143.629 133.146 150.727H133.154Z" fill="white"/>
<path d="M210.263 97.7185C208.735 98.7314 207.136 100.607 205.688 100.504C204.239 100.401 202.332 98.3437 202.063 96.8719C201.95 96.3482 201.972 95.8045 202.127 95.2917C202.281 94.7789 202.564 94.3137 202.947 93.9397C203.331 93.5657 203.803 93.2952 204.32 93.1534C204.837 93.0116 205.381 93.0033 205.901 93.1291C207.484 93.406 208.783 94.9569 210.207 95.9381L210.263 97.7185Z" fill="white"/>
</g>
<defs>
<filter id="filter0_f_4190_15321" x="0.101562" y="0.502441" width="301.957" height="302" filterUnits="userSpaceOnUse" color-interpolation-filters="sRGB">
<feFlood flood-opacity="0" result="BackgroundImageFix"/>
<feBlend mode="normal" in="SourceGraphic" in2="BackgroundImageFix" result="shape"/>
<feGaussianBlur stdDeviation="25" result="effect1_foregroundBlur_4190_15321"/>
</filter>
<filter id="filter1_f_4190_15321" x="25.1016" y="25.5024" width="251.957" height="252" filterUnits="userSpaceOnUse" color-interpolation-filters="sRGB">
<feFlood flood-opacity="0" result="BackgroundImageFix"/>
<feBlend mode="normal" in="SourceGraphic" in2="BackgroundImageFix" result="shape"/>
<feGaussianBlur stdDeviation="12.5" result="effect1_foregroundBlur_4190_15321"/>
</filter>
<filter id="filter2_f_4190_15321" x="35.1016" y="35.5024" width="231.957" height="232" filterUnits="userSpaceOnUse" color-interpolation-filters="sRGB">
<feFlood flood-opacity="0" result="BackgroundImageFix"/>
<feBlend mode="normal" in="SourceGraphic" in2="BackgroundImageFix" result="shape"/>
<feGaussianBlur stdDeviation="7.5" result="effect1_foregroundBlur_4190_15321"/>
</filter>
<filter id="filter3_d_4190_15321" x="46.1016" y="50.5024" width="209.957" height="210" filterUnits="userSpaceOnUse" color-interpolation-filters="sRGB">
<feFlood flood-opacity="0" result="BackgroundImageFix"/>
<feColorMatrix in="SourceAlpha" type="matrix" values="0 0 0 0 0 0 0 0 0 0 0 0 0 0 0 0 0 0 127 0" result="hardAlpha"/>
<feOffset dy="4"/>
<feGaussianBlur stdDeviation="2"/>
<feComposite in2="hardAlpha" operator="out"/>
<feColorMatrix type="matrix" values="0 0 0 0 0 0 0 0 0 0 0 0 0 0 0 0 0 0 0.25 0"/>
<feBlend mode="normal" in2="BackgroundImageFix" result="effect1_dropShadow_4190_15321"/>
<feBlend mode="normal" in="SourceGraphic" in2="effect1_dropShadow_4190_15321" result="shape"/>
</filter>
</defs>
</svg>
