<svg width="22" height="19" fill="none" xmlns="http://www.w3.org/2000/svg"><path d="M14.48 16.26a.637.637 0 00.742-.506l.644-3.692a.619.619 0 00-.53-.708c-.35-.056-.683.17-.741.506l-.645 3.691a.619.619 0 00.53.708zm-7.663-.506a.637.637 0 00.742.505.619.619 0 00.53-.708l-.645-3.691c-.058-.335-.39-.562-.741-.506a.619.619 0 00-.53.708l.644 3.692z" fill="#fff"/><path d="M21.355 6.424h-2.268L14.124.502a.666.666 0 00-.905-.096.596.596 0 00-.101.865l4.318 5.153H4.564L8.882 1.27a.596.596 0 00-.1-.865.666.666 0 00-.906.096L2.913 6.424H.645c-.356 0-.645.275-.645.615V9.5c0 .34.289.615.645.615h.802l2.445 8.167a.64.64 0 00.62.447h12.976a.642.642 0 00.62-.447l2.445-8.167h.802c.356 0 .645-.275.645-.615V7.04c0-.34-.289-.616-.645-.616zm-4.353 11.074H4.998l-2.21-7.383h16.424l-2.21 7.383zm3.709-8.613H1.289v-1.23h19.422v1.23z" fill="#fff"/><path d="M11 16.268c.356 0 .645-.276.645-.616v-3.691c0-.34-.289-.615-.645-.615-.356 0-.645.275-.645.615v3.691c0 .34.289.616.645.616z" fill="#fff"/></svg>