<svg width="22" height="23" fill="none" xmlns="http://www.w3.org/2000/svg"><path d="M21.93 6.948a7.953 7.953 0 00-.513-2.702 5.621 5.621 0 00-3.216-3.212A8.083 8.083 0 0015.53.522C14.355.47 13.982.455 10.999.455c-2.984 0-3.366 0-4.533.067a8.082 8.082 0 00-2.669.512A5.63 5.63 0 00.58 4.246 7.982 7.982 0 00.068 6.91C.016 8.085 0 8.457 0 11.436c0 2.978 0 3.358.068 4.524.019.913.191 1.813.512 2.668a5.622 5.622 0 003.218 3.21 8.055 8.055 0 002.67.549c1.176.052 1.549.068 4.532.068s3.366 0 4.532-.068a8.064 8.064 0 002.671-.511 5.638 5.638 0 003.217-3.212 8.02 8.02 0 00.512-2.667c.052-1.173.068-1.545.068-4.525-.002-2.978-.002-3.356-.07-4.524zm-10.94 10.12a5.642 5.642 0 01-5.647-5.639 5.642 5.642 0 015.647-5.638c1.498 0 2.935.594 3.994 1.651a5.634 5.634 0 010 7.974 5.653 5.653 0 01-3.994 1.652zm5.873-10.17a1.314 1.314 0 11.503-2.53 1.317 1.317 0 01.813 1.214c0 .727-.589 1.315-1.316 1.315z" fill="#2D649F"/><path d="M11 15.455a4 4 0 100-8 4 4 0 000 8z" fill="#2D649F"/></svg>