<svg width="57" height="74" fill="none" xmlns="http://www.w3.org/2000/svg"><path d="M5.888 19.18c0-.888-.04-1.777.013-2.664.053-.99.16-1.976.318-2.955.12-.79.318-1.566.59-2.318.29-.764.761-1.459 1.085-2.213A9.136 9.136 0 019.2 6.953a11.714 11.714 0 012.531-2.367 28.91 28.91 0 012.36-1.476 16.856 16.856 0 011.64-.68c.686-.285 1.354-.615 2.052-.86.453-.138.914-.248 1.38-.33L21.47.707c.06-.018.123-.031.185-.041 1.218-.13 2.45-.187 3.653-.41a18.975 18.975 0 014.183-.225c1.112.046 2.221.148 3.323.307 1.026.15 2.051.39 3.077.627.687.154 1.363.353 2.025.594.638.238 1.23.574 1.86.855.712.32 1.453.584 2.136.953a13.78 13.78 0 011.807 1.2 30.494 30.494 0 012.156 1.79 6.932 6.932 0 011.742 2.54c.328.82.742 1.605 1.085 2.42.17.41.258.855.394 1.279.17.537.35 1.067.525 1.602.02.06.032.122.035.185.102 1.778.248 3.555.287 5.327.016.804-.195 1.611-.265 2.42-.053.473-.047.951.019 1.422.114.503.271.994.47 1.47.128.36.321.699.43 1.063.205.666.41.713 1.052.517.515-.156 1.1-.068 1.641-.134.81-.098 1.506.281 2.08.693.552.412.934 1.01 1.075 1.684.138.615.312 1.203.222 1.808-.131.87-.355 1.73-.55 2.59-.108.477-.227.955-.365 1.424-.162.547-.347 1.088-.521 1.64a.966.966 0 00-.035.137c-.1.727-.283 1.456-.283 2.184a3.36 3.36 0 01-1.036 2.432c-.064.068-.152.127-.178.205a6.94 6.94 0 00-.288 3.154c.06.49.15.976.27 1.455.145.557.35 1.098.518 1.651.115.38.228.76.312 1.148.133.614.156 1.264.381 1.844.495 1.248.3 2.524.249 3.785-.027.674-.33 1.338-.511 2.006-.02.076-.051.147-.066.225-.115.615-.158 1.23-.357 1.818-.49 1.434-.258 2.89-.18 4.321.035.636.252 1.302.164 1.945-.096.85-.295 1.684-.59 2.486-.411 1.006-1.675 1.582-2.704 1.293a3.195 3.195 0 01-1.453-.96c-.474-.514-.73-1.126-.974-1.78-.546-1.475-.267-2.967-.22-4.45.017-.474.316-.933.456-1.409.158-.534.225-1.1.432-1.612.306-.754.27-1.527.28-2.303.014-1.23-.335-2.422-.515-3.631-.144-.945-.26-1.947.125-2.898a.885.885 0 00.068-.369c-.054-1.12.486-2.104.713-3.16.152-.593.34-1.177.562-1.747.257-.74.536-1.47.786-2.211a.592.592 0 00-.02-.445c-.238-.381-.52-.734-.78-1.1-.193-.273-.46-.293-.673-.046-.428.498-.802 1.066-1.302 1.478-.38.311-.712.709-1.254.854-.82.215-1.025.662-1.118 1.508-.108.96-.336 1.906-.515 2.859 0 .03-.018.062-.024.092-.127.767-.232 1.537-.386 2.297-.144.718-.34 1.422-.513 2.131-.018.078-.03.156-.045.234-.094.502-.205 1.004-.28 1.508-.132.82-.206 1.64-.39 2.449a7.216 7.216 0 01-.66 1.81c-.709 1.313-1.815 2.31-2.82 3.393a36.106 36.106 0 00-2.51 3.1c-.316.428-.462.984-.69 1.48-.277.614-.566 1.206-.833 1.817-.238.541-.422 1.11-.69 1.64-.288.56-.637 1.091-.977 1.626a9.225 9.225 0 01-2.052 2.254c-.39.31-.855.41-1.325.547-1.25.392-2.513.267-3.764.218-.796-.029-1.586-.318-2.371-.51-.306-.076-.591-.222-.893-.316-1.47-.46-2.52-1.498-3.487-2.615-.58-.67-1.042-1.434-1.555-2.172-.48-.68-.98-1.35-1.436-2.049-.455-.699-.82-1.41-1.247-2.096-.585-.926-1.245-1.808-1.793-2.754-.488-.844-.878-1.748-1.296-2.631a26.58 26.58 0 01-.82-1.855c-.159-.397-.24-.82-.368-1.23-.17-.546-.35-1.09-.53-1.639a1.035 1.035 0 01-.055-.13c-.117-.615-.205-1.25-.353-1.867-.147-.617-.35-1.26-.529-1.89a.73.73 0 01-.02-.092c-.121-.742-.224-1.488-.367-2.225-.165-.847-.37-1.687-.552-2.531a1.667 1.667 0 01-.029-.33 17.043 17.043 0 00-.548-3.817c-.1-.423-.037-.882-.045-1.326-.012-.527-.615-1.34-1.105-1.457-.206-.047-.421-.074-.517.246a1.742 1.742 0 01-.89.985c-.386.215-.665.484-.63.996.045.646-.037 1.307.06 1.945.095.637.352 1.307.53 1.96.123.46.22.927.353 1.384.134.457.302.926.458 1.387.034.071.065.143.092.217.137.605.221 1.23.41 1.816.856 2.59.54 5.256.507 7.897 0 .752-.32 1.502-.494 2.254 0 .031-.015.062-.019.093-.13.885-.17 1.795-.41 2.647-.179.63-.117 1.316-.5 1.902-.177.268-.218.625-.337.936-.36.94-.696 1.137-1.623 1.051-1.097-.098-1.553-.9-1.994-1.713-.537-.996-.679-2.08-.675-3.205 0-.485-.303-1.008-.205-1.452.288-1.244.183-2.502.285-3.75.083-1.025.206-2.035.312-3.051.08-.82.242-1.63.193-2.433-.045-.73-.338-1.434-.502-2.164a11.99 11.99 0 01-.32-1.666 9.98 9.98 0 01.012-2.049c.076-.602.312-1.186.488-1.774.119-.386.246-.769.39-1.146.172-.453.41-.885.535-1.346a1.669 1.669 0 00-.096-1.359c-.328-.588-.521-1.252-.772-1.883-.174-.436-.348-.875-.516-1.313a7.492 7.492 0 00-.333-.886c-.383-.706-.872-1.364-1.183-2.098-.312-.733-.706-1.377-.739-2.213-.045-1.182.115-2.301.735-3.299.205-.336.66-.533 1.025-.766.616-.41 1.34-.32 2.035-.314.796 0 .83-.014 1.145-.733.212-.397.398-.808.556-1.23a8.985 8.985 0 00.367-1.865c.06-.946.016-1.9.016-2.85l.002-.016zm39.197 24.544c-.67.488-1.202.914-1.772 1.28A5.265 5.265 0 0041.5 47.01c-.307.576-.445 1.23-.707 1.844a8.281 8.281 0 01-.616 1l-.153-.04a3.617 3.617 0 01-.068-.616 4.484 4.484 0 01.615-1.922c.34-.662.737-1.293 1.186-1.887.39-.477.933-.82 1.41-1.23.106-.102.221-.195.344-.278.41-.246.845-.478 1.27-.715.68-.381 1.368-.758 2.05-1.148.278-.142.53-.327.75-.547a123.653 123.653 0 002.713-3.205 5.17 5.17 0 00.628-1.084c.23-.43.405-.887.521-1.36a9.5 9.5 0 00-.02-3.857c-.123-.535-.33-1.053-.468-1.586-.137-.533-.205-1.084-.357-1.615-.152-.53-.357-1.04-.527-1.563-.236-.73-.41-1.488-.71-2.184-.33-.742-.357-1.531-.49-2.295-.074-.41.178-.875.205-1.318.079-.92.102-1.842.07-2.764-.08-1.326.113-2.664-.298-3.978-.195-.614-.192-1.305-.41-1.918-.31-.901-.728-1.768-1.104-2.65-.37-.96-.885-1.859-1.528-2.663a15.917 15.917 0 00-3.04-2.637c-.433-.306-.88-.592-1.34-.853a16.59 16.59 0 00-1.76-.905c-.662-.28-1.36-.474-2.05-.703-.821-.277-1.642-.584-2.477-.82-.515-.143-1.056-.125-1.596-.277A12.026 12.026 0 0030.71.897c-1.6-.055-3.204-.03-4.806-.026a8.057 8.057 0 00-1.278.094c-.907.15-1.8.354-2.708.498-.47.074-.933.117-1.407.238-.833.205-1.684.354-2.498.65-.936.337-1.9.614-2.81 1-.806.336-1.573.756-2.292 1.251-.793.598-1.55 1.24-2.269 1.924-1.19 1.064-1.963 2.42-2.65 3.832a6.027 6.027 0 00-.361.894c-.136.444-.232.9-.349 1.35-.178.699-.461 1.39-.517 2.098-.09 1.183-.035 2.375-.049 3.564 0 .383.22.426.443.242.326-.25.608-.552.835-.894.267-.432.357-.985.658-1.383a5.43 5.43 0 012.462-1.926c.392-.144.792-.265 1.194-.381.615-.179 1.23-.427 1.846-.494.83-.088 1.678-.023 2.52-.04.551-.01 1.004.239 1.464.495.615.344 1.23.721 1.866 1.01a3.706 3.706 0 011.896 1.932c.282.632.71 1.189 1.25 1.623.16.142.34.18.366-.084.036-.283.016-.57-.06-.846-.241-.767-.555-1.51-.795-2.277a16.153 16.153 0 00-.905-2.367c-.385-.78-1-1.27-1.71-1.684-.41-.24-.872-.41-1.285-.658-1.025-.614-1.963-1.391-3.233-1.455-.08 0-.205-.147-.205-.235s.09-.291.142-.291c.502 0 1.026-.051 1.5.088.527.16 1.003.494 1.493.768.71.398 1.403.82 2.117 1.216 1.07.584 1.7 1.565 2.238 2.584.384.781.698 1.595.94 2.432.245.76.422 1.543.596 2.323.267 1.179.367 2.386.616 3.574.205 1.045.188 2.148.287 3.223.232 2.478 0 4.978.273 7.474.158 1.455.295 2.977-.206 4.442-.106.312-.219.41-.545.326-.01-.205-.03-.392-.03-.58 0-1.014.046-2.029.013-3.04-.08-2.415.128-4.829-.23-7.247-.204-1.452-.122-2.948-.325-4.422-.099-.719-.169-1.346-.673-1.918-.74-.836-.9-.92-1.76-.7-.41.106-.44.352-.378.666.027.129.18.24.189.362.018.279.09.701-.053.82-.316.244-.511-.16-.692-.36-.084-.097-.045-.304-.061-.46a.719.719 0 00-1.053-.59 2.55 2.55 0 01-.646.205c-.28.05-.44.15-.371.467.089.355.157.714.205 1.076.023.205.092.57-.265.53-.205-.022-.383-.284-.543-.464-.058-.068-.037-.216-.033-.324.045-1.199-.19-1.002-1.026-.992-1.48.016-1.487.014-1.489 1.477 0 .371-.043.691-.425.847-.615-.183-.42-.693-.428-1.1-.029-1.415.125-1.165-1.19-1.19-.55-.011-.82.206-.993.735-.205.614-.422.803-.954.661l.392-1.586c-.269-.141-.47-.237-.658-.35-.308-.184-1.088-.078-1.287.221-.231.353-.41.734-.615 1.099-.507-.238-.533-.365-.34-.82.103-.263.169-.539.194-.82.054-.434-.318-.375-.572-.459-.09-.03-.158-.133-.246-.205-.324.205-.636.41-.93.615-.258.189-.615.36-.711.615-.127.313-.04.715-.043 1.08 0 .317 0 .633-.013.95.002.11-.01.22-.036.326-.19.67-.378 1.34-.579 2.006-.107.35-.156.759-.371 1.025-.548.684-.63 1.524-.753 2.301-.256 1.594-.037 3.2.256 4.787a.433.433 0 00.023.092c.275.64.51 1.3.839 1.91.322.597.695 1.165 1.114 1.699.777.994 1.778 1.741 2.771 2.516 1.135.874 2.1 1.946 2.85 3.166.543.893.972 1.865 1.587 2.705.499.68.464 1.481.761 2.196.053.13-.158.365-.246.552a1.23 1.23 0 01-.41-.236 1.058 1.058 0 01-.142-.461c-.037-.232 0-.49-.084-.699a9.05 9.05 0 00-.496-.842c-.45-.82-.82-1.697-1.352-2.459-.572-.836-1.282-1.582-1.94-2.356a1.4 1.4 0 00-.356-.22 1.066 1.066 0 00-.096.386c.078.534.193 1.063.277 1.596.105.666.205 1.332.277 2.002.094.981 0 1.969.345 2.94.233.66.244 1.402.352 2.107v.047c.18.647.382 1.289.538 1.942.246 1.04.461 2.084.691 3.127.018.06.04.12.066.177.158.41.33.82.474 1.245.143.427.246.843.38 1.26.08.268.182.53.303.781.365.728.744 1.447 1.126 2.164.381.718.714 1.41 1.132 2.078.511.82 1.104 1.58 1.641 2.385.538.806 1.026 1.64 1.533 2.47.26.428.486.877.759 1.297.329.53.688 1.042 1.075 1.532.43.567.918 1.086 1.456 1.552.724.575 1.516 1.075 2.461 1.286.675.152 1.332.455 2.009.502 1.266.08 2.536.09 3.803.03a2.282 2.282 0 001.23-.452c.776-.598 1.531-1.23 2.003-2.135.346-.658.794-1.26 1.14-1.918.257-.483.41-1.024.632-1.524.283-.656.58-1.308.886-1.953.188-.475.423-.931.7-1.36.533-.728 1.134-1.409 1.727-2.089.593-.68 1.23-1.33 1.822-2.018a13.927 13.927 0 001.47-1.89c.333-.563.456-1.248.704-1.866a9.106 9.106 0 00.572-2.355c.09-.76.245-1.514.374-2.27 0-.031.03-.058.037-.088.166-.74.365-1.474.488-2.22.144-.889.221-1.788.33-2.682a.66.66 0 01.084-.217c.314-.6.17-1.221.115-1.953zm7.7-.172h-.022v-1.377c0-.205.12-.508-.273-.535-.318-.02-.566.066-.662.41-.121.41-.234.838-.357 1.254-.115.38-.232.758-.363 1.131-.154.445-.343.88-.484 1.326-.164.518-.298 1.045-.435 1.57-.175.67-.472 1.338-.48 2.012-.017 1.391-.246 2.795.205 4.182.182.553.094 1.193.143 1.793.017.205.146.447.093.633-.275.951-.029 1.971-.456 2.908-.205.467-.227 1.025-.367 1.52-.154.558-.41 1.093-.508 1.658-.206 1.182.024 2.348.311 3.496.087.302.238.581.443.82.32.362.663.704 1.026 1.024.322.306 1.48.367 1.77.072a3.18 3.18 0 00.977-2.004 32.617 32.617 0 00-.041-3.32c-.017-.49-.24-1.014-.123-1.457.28-1.049-.015-2.155.453-3.188.24-.53.248-1.168.365-1.756.013-.06.053-.115.068-.176.176-.74.433-1.476.498-2.226.045-.543-.166-1.108-.254-1.664-.127-.785-.246-1.57-.367-2.354 0-.03-.014-.062-.023-.092l-.56-1.974c-.026-.09-.057-.18-.082-.272-.168-.652-.38-1.297-.486-1.96a9.26 9.26 0 01-.008-1.464v.01zm-47.52-2.768a3.106 3.106 0 010-.558.518.518 0 00-.431-.614c-.144-.03-.441.235-.515.428-.256.664-.443 1.354-.658 2.037-.019.057-.046.114-.064.172-.187.549-.39 1.094-.55 1.651-.094.33-.11.679-.172 1.025-.156.844.168 1.64.312 2.438.102.586.453 1.152.457 1.728 0 1.727.205 3.457-.205 5.188-.238 1.025-.172 2.092-.291 3.141-.226 1.955-.275 3.939.461 5.867a3.71 3.71 0 001.424 1.769.736.736 0 00.716-.087c.303-.384.534-.821.68-1.288.251-.838.421-1.701.594-2.56.141-.719.246-1.444.353-2.17.045-.311.032-.633.08-.944.16-1.04.352-2.072.498-3.113.205-1.488-.234-2.936-.304-4.408a.495.495 0 00-.02-.092l-.843-2.869-.597-2.028c-.205-.714-.476-1.414-.616-2.138-.158-.864-.21-1.745-.31-2.575zm1.025-2.238c.113-.076.205-.141.314-.205.437-.307.634-1.11.36-1.475-.319-.41-.63-.84-.969-1.24-.663-.78-.98-1.742-1.288-2.674-.267-.801-.287-1.682-.41-2.527a5.712 5.712 0 01-.107-.602 14.57 14.57 0 01-.035-1.404c.01-.311.123-.615.144-.928.043-.633-.542-1.168-1.139-.971-.784.258-1.709.3-2.004 1.383-.168.614-.562 1.186-.503 1.86.046.348.14.688.277 1.01.226.579.41 1.2.747 1.7.55.842 1.005 1.742 1.358 2.684.37.887.675 1.8.913 2.731.137.551.527.765.923 1.002.12.072.349-.012.515-.063.039-.01.047-.189.033-.283-.068-.439-.148-.873-.228-1.342 1.307-.19.644.953 1.101 1.344H6.29zm47.261-8.522a8.22 8.22 0 00-1.108.52c-.353.228-.482 1.42-.24 1.875.423.793.205 1.64.158 2.459-.047.637-.324 1.27-.564 1.881-.316.807-.695 1.592-1.06 2.414l.582 1.31c.456-.353.298-1.18 1.106-1.22v1.52c.205-.012.41.031.543-.042a2.521 2.521 0 001.26-1.744c.189-.902.242-1.834.375-2.748.093-.63.224-1.252.339-1.877a.814.814 0 01.051-.133c.172-.531.345-1.062.521-1.592a2.16 2.16 0 01.148-.39c.285-.514.205-1.379-.205-1.717-.136-.113-.382-.107-.495-.23-.303-.331-.603-.217-.87-.118.048.41.117.782.122 1.15.032.644.016 1.29-.048 1.932-.119.844-.324 1.68-.525 2.512a7.236 7.236 0 01-.377.971l-.216-.08c.127-.35.23-.71.31-1.074.14-.87.238-1.75.357-2.625.014-.108.05-.204.066-.321.055-.381.176-.769.143-1.144-.039-.444-.211-.887-.373-1.49zM13.663 18.139h-.131c0-.14-.019-.279-.017-.41 0-.721-.012-.768-.745-.699-.732.07-1.452.113-2.12.338-.472.158-1.112.16-1.37.795l1.376.422.352.115c.53.17 1.053.359 1.59.502.41.11.847.17 1.276.242.137.01.274.01.41 0l-.205-.514a2.297 2.297 0 002.343 0l.143.46 4.807-.9.039-.191c-.296-.152-.585-.316-.887-.453-.434-.205-.877-.375-1.316-.566-.11-.046-.215-.1-.316-.162-.378-.244-1.375-.14-1.586.105a3.083 3.083 0 00-.656-.467 1.21 1.21 0 00-.704 0 1.143 1.143 0 00-.593.387c-.068.094.047.387.162.52.204.193.43.363.671.506-.051.07-.115.253-.238.31a.964.964 0 01-1.284-.721 2.865 2.865 0 00-.051-.422.455.455 0 00-.616-.339.617.617 0 00-.301.41c-.033.24-.04.48-.025.721l-.008.01zm7.418-1.201c-.655-.994-1.547-1.561-2.505-2.039-.36-.18-.73-.336-1.11-.47-.486-.17-.979-.409-1.475-.43-.615-.022-1.23.136-1.846.244-.656.113-1.335.18-1.95.41-.787.297-1.58.631-2.229 1.197a5.595 5.595 0 00-.615.736l.115.163c.568-.073 1.11 0 1.715-.227.736-.277 1.581-.311 2.385-.344a50.726 50.726 0 013.947 0c.642.022 1.28.194 1.92.3.043 0 .078.054.12.07.41.156.82.314 1.23.458.064.006.152-.041.306-.078l-.008.01zm31.94 10.106a9.135 9.135 0 00-1.372.359c-.27.113-.566.348-.461.754.104.406.23.79.305 1.192a.59.59 0 00.913.425 5.81 5.81 0 011.274-.507 2.26 2.26 0 01.878.058c.302.05.593.172.895.205.301.033.385-.174.31-.426a2.753 2.753 0 00-.31-.76c-.579-.833-1.471-1.111-2.431-1.3z" fill="#fff"/><path d="M23.517 40.362c.012-.217.023-.41.03-.586.5.03.969-.015 1.392.108.432.148.837.366 1.198.646 1.185.846 1.407.641 2.49-.152.28-.205.509-.492.804-.67a.672.672 0 01.599-.024c.121.073.172.375.131.547-.024.108-.262.205-.42.241-.507.138-.82.486-1.116.89-.357.48-.281 1.008-.281 1.533 0 2.803-.01 5.606.035 8.401.014.965.178 1.928.289 2.891.012.1.131.269.205.267.421.01.841-.035 1.251-.131.38-.12.704-.205 1.053.038a.49.49 0 00.264.085c.82-.015 1.436.463 2.103.82.667.356 1.313.68 1.963 1.024.116.089.221.19.314.303.461.424.925.844 1.483 1.35-.326.168-.58.304-.84.43-.469.23-.947.445-1.408.687-.788.41-1.356 1.076-1.91 1.742a4.65 4.65 0 00-.523.94c-.517 1.064-.88 2.269-1.92 2.937-.585.379-1.258.75-2.052.695-.679-.048-1.364 0-2.05-.013-.719 0-1.363-.276-2.03-.51a5.047 5.047 0 01-2.084-1.307 11.818 11.818 0 01-1.046-1.457c-.3-.435-.578-.883-.878-1.318-.3-.434-.605-.82-.882-1.242-.314-.481-.899-.51-1.303-.82-.143-.112-.348-.253-.363-.397-.022-.246 0-.598.152-.744.54-.486 1.11-.941 1.703-1.362.41-.3.845-.556 1.271-.82.386-.246.796-.455 1.153-.734a2.67 2.67 0 012.49-.258c.222.107.518.062.821.09.023-.3.056-.532.056-.766.01-3.992.016-7.983.02-11.975 0-.736-.19-.91-.942-1.025a9.858 9.858 0 01-1.222-.354zm-1.939 17.61c-.525.127-1.058.234-1.577.39-.242.071-.273.227-.037.41.231.16.439.354.615.573.474.64.934 1.29 1.369 1.959.311.477.558.996.861 1.48a2.49 2.49 0 001.18.95c.558.242 1.077.586 1.64.779.497.168 1.045.19 1.57.268.142.02.285.02.427 0 .463-.05.923-.129 1.376-.235a4.743 4.743 0 001.27-.5c.82-.515 1.044-1.445 1.465-2.238.245-.518.519-1.022.82-1.51a6.562 6.562 0 012.029-1.822c.088-.053.142-.17.205-.256a.909.909 0 00-.277-.141 5.995 5.995 0 00-3.247.387 5.68 5.68 0 01-2.462.551c-.348-.014-.7-.016-1.048 0-1.16.051-2.32-.063-3.446-.34a1.422 1.422 0 01-.183-.05c-.812-.282-1.62-.637-2.55-.655zm-1.799-.615l.08.15c.152.014.304.014.456 0 .363-.072.724-.252 1.08-.234.667.034 1.33.126 1.98.275.573.129 1.11.422 1.684.526.85.17 1.714.265 2.581.283.847-.027 1.69-.116 2.523-.266a8.123 8.123 0 001.106-.305c.043-.015.078-.054.121-.068.486-.162.962-.41 1.46-.465.64-.082 1.297-.014 1.947-.025a.92.92 0 00.29-.11c-.033-.078-.048-.191-.105-.224a38.045 38.045 0 00-1.627-.897 28.139 28.139 0 00-1.71-.785 2.413 2.413 0 00-2.013 0c-.53.238-1.026.58-1.584.71a2.991 2.991 0 01-2.14-.372 4.53 4.53 0 00-1.536-.502c-.553-.072-1.126-.127-1.67.256-.668.475-1.435.82-2.123 1.264a5.545 5.545 0 00-.8.797v-.008zm6.786-15.661c-.014.154-.037.279-.039.41-.008 4.081-.017 8.163-.029 12.245 0 .41.107.674.544.86.54.23 1.048.036 1.026-.55-.019-.429-.205-.847-.232-1.275-.121-1.619-.263-3.238-.302-4.858-.049-2.008 0-4.019 0-6.027-.004-.723-.172-.867-.968-.797v-.008zm7.23-19.502c-.585-.41-.593-.474-.283-.957.131-.205.34-.445.312-.638a.788.788 0 00-.485-.514c-.471-.127-.966-.14-1.335.311a2.683 2.683 0 01-.365.287c-.259.218-.497.41-.546.82-.141 1.11-.394 2.209-.506 3.322-.11 1.07 0 2.163-.156 3.225-.41 2.801-.173 5.612-.281 8.418 0 .205-.206.41-.325.641a.99.99 0 01-.496-.932c.029-1.314-.135-2.654.066-3.939.32-2.026.012-4.071.301-6.067.146-1.025.148-2.027.296-3.033.1-.682.158-1.375.29-2.049.134-.674.354-1.373.526-2.06.123-.487.193-.993.359-1.465.18-.486.401-.958.659-1.41.369-.678.748-1.354 1.169-2.001a13.53 13.53 0 012.792-3.103 3.01 3.01 0 012.443-.68c.32.06.519.367.461.82a6.172 6.172 0 01-.82 0c-1.044-.144-1.779.442-2.396 1.116a22.84 22.84 0 00-2.121 2.716c-.569.846-1.122 1.719-1.393 2.731-.117.436-.345.842-.49 1.273-.019.15-.01.302.026.448l.183.037.41-.985a3.826 3.826 0 011.026-1.45 8.693 8.693 0 012.119-1.28c.82-.369 1.674-.483 2.535-.666a8.431 8.431 0 012.14-.17c.698.015 1.393.11 2.07.283.83.218 1.631.538 2.383.953.515.339.947.787 1.268 1.313a16.402 16.402 0 002.404 2.838c.234.224.568.43.388.982l-1.026-.461c-.326-.15-1.39.133-1.588.43a.23.23 0 00-.047.172c.111.322.234.64.353.96.099.27.205.542.297.819-.541.17-.779.018-.912-.433a8.268 8.268 0 00-.41-1.094c-.042-.092-.235-.158-.36-.162-.46-.012-.919.015-1.378.013-.275 0-.361.151-.363.387 0 .428.012.856-.014 1.283 0 .133-.111.352-.206.366a.457.457 0 01-.4-.182 2.915 2.915 0 01-.25-.967c-.033-.871-.01-.873-.896-.873h-.57c-.49.033-.698.252-.71.742v.475c0 .48 0 .48-.41.738-.46-.258-.553-.584-.35-1.23.154-.49-.022-.719-.53-.772a4.931 4.931 0 01-.98-.234c-.44-.15-.695.035-.779.51a7.86 7.86 0 01-.398 1.392c-.024.072-.334.076-.496.04-.09-.02-.146-.188-.17-.22.072-.28.131-.494.18-.712.017-.156.046-.312.084-.465.105-.272.345-.547.07-.82-.338-.34-1.272-.557-1.543-.331-.189.206-.34.445-.445.704-.127.246-.242.503-.381.79zm7.237-1.64c.176.162.306.385.457.4a10.59 10.59 0 003.693-.303c.18-.061.344-.16.484-.287a.317.317 0 00.051-.263 4.4 4.4 0 00-.69-.36c-.334-.133-.693-.205-1.025-.361-.57-.256-1.14-.793-1.678-.754-.537.039-.71-.205-1.064-.342-.41-.166-.938-.074-1.412-.082-.065 0-.186.063-.186.102-.034.341-.025.686.026 1.025.019.088.371.104.573.151.09.023.182.041.274.062l.031.143c-.264.109-.554.34-.785.293a1.247 1.247 0 01-.692-.565 7.859 7.859 0 01-.48-1.244l-.67.158a2.391 2.391 0 00-.51-.115c-.758-.012-1.517-.053-2.24.285-.362.172-.769.25-1.138.41-.113.05-.176.241-.226.383-.014.037.095.154.167.18a40.988 40.988 0 003.717 1.176c.135.035.41-.016.447-.108.156-.306.39-.174.517-.08.79.61 1.585.39 2.359.1v-.004zm4.681-1.391c-.154-.375-.19-.654-.35-.82-.594-.615-1.076-1.317-1.892-1.762-.816-.445-1.715-.637-2.589-.777-.956-.153-1.957-.04-2.94-.035-.19-.007-.38.019-.562.076-.73.263-1.435.597-2.178.82-.786.23-1.337.74-1.865 1.303-.035.04.045.273.082.277.155.011.31-.008.456-.058.474-.16.933-.354 1.409-.502a4.103 4.103 0 011.091-.237c1.455-.029 2.911-.064 4.361 0 .546.024 1.073.332 1.617.49.45.13.909.227 1.364.342a.776.776 0 01.123.061c.365.18.728.369 1.098.539.213.096.434.162.775.287v-.004z" fill="#fff"/><path d="M49.358 32.006c0 .553.082 1.123-.025 1.655a4.595 4.595 0 01-.63 1.508c-.506.82-.966 1.673-1.752 2.277-.785.605-1.606 1.186-2.59 1.547-.985.36-1.974.254-2.94.18-.615-.047-1.184-.504-1.785-.752-.82-.338-1.364-.985-1.879-1.639a7.812 7.812 0 01-.82-1.434c-.164-.343-.226-.734-.375-1.086-.437-1.043-.343-2.156-.15-3.177a4.793 4.793 0 011.885-3.04 12.83 12.83 0 012.328-1.339c.882-.395 1.748-.674 2.698-.51.685.139 1.362.314 2.028.525.411.084.809.225 1.18.42a6.967 6.967 0 011.547 1.23 7.871 7.871 0 011.23 1.938c.185.42.076.97.099 1.459v.238h-.05zm-.45-.103c-.117-.447-.256-.89-.348-1.34-.216-1.037-.979-1.674-1.723-2.293-.382-.32-.89-.5-1.363-.693a12.19 12.19 0 00-1.538-.514 11.746 11.746 0 00-1.284-.217.636.636 0 00-.269.035c-.517.162-1.026.33-1.549.496a.645.645 0 00-.174.07c-.722.473-1.46.928-2.162 1.434-.626.448-1.14 1.1-1.23 1.815-.093.666-.411 1.332-.132 2.084.205.6-.037 1.322.336 1.943.218.362.273.838.532 1.157.603.746 1.202 1.478 2.096 1.968a6.02 6.02 0 002.074.692 4.582 4.582 0 002.072-.279 6.39 6.39 0 002.461-1.581 7.554 7.554 0 001.282-1.845c.49-.91.801-1.905.92-2.932zm-36.949-7.787c.997.082 2.03.03 2.98.285.985.264 1.982.604 2.833 1.252a4.158 4.158 0 011.5 1.885c.314.84.595 1.682.482 2.574-.072.567-.314 1.116-.482 1.672a8.338 8.338 0 01-.365 1.123 5.467 5.467 0 01-.688 1.108c-.458.59-.962 1.143-1.507 1.654-.46.41-.985.77-1.641.84-.255.027-.513.264-.74.225a15.3 15.3 0 01-2.136-.502 10.99 10.99 0 01-1.57-.674c-.861-.428-1.485-1.104-2.03-1.895-.91-1.32-1.026-2.79-.85-4.291.09-.842.29-1.669.593-2.46.339-.864.808-1.7 1.602-2.253a2.874 2.874 0 012.019-.543zm.457.697l-.014.088c-.316 0-.636-.025-.95 0-.732.07-1.354.36-1.725 1.024-.256.437-.48.89-.673 1.359a13.62 13.62 0 00-.496 1.658c-.103.436-.179.88-.228 1.325-.033.265-.092.572 0 .797.281.652.26 1.418.792 1.978.502.529.92 1.147 1.466 1.623.415.313.88.554 1.377.71.575.224 1.167.403 1.77.536.87.186 1.641-.115 2.3-.664a7.41 7.41 0 001.341-1.34c.42-.589.708-1.273 1.04-1.922.3-.587.548-1.201.532-1.87-.017-.737.096-1.469-.26-2.204a4.163 4.163 0 00-1.418-1.74 7.415 7.415 0 00-2.121-.887c-.889-.246-1.82-.324-2.733-.471zm6.322-20.022c.35.094.649.205.959.252.41.07.845.1 1.27.144 1.14.114 2.282.219 3.42.346.354.04.715.248 1.045.205.509-.074.995-.3 1.49-.463.395-.134.795-.256 1.183-.41 1.112-.44 2.27-.41 3.42-.285.512.053.996.338 1.505.48.62.18 1.248.325 1.883.436.55.086.79.287.72.82-.437.016-.886.166-1.29-.175a.3.3 0 00-.131-.05c-.57-.126-1.147-.23-1.711-.378-.564-.147-1.153-.387-1.742-.516a3.31 3.31 0 00-1.128-.025c-.35.08-.693.187-1.026.322-.615.193-1.267.297-1.825.588-.882.457-1.787.25-2.667.232a14.23 14.23 0 01-3.112-.33 11.659 11.659 0 00-1.745-.26c-.421-.033-.612-.337-.518-.933zm1.977 3.362a1.108 1.108 0 01.995-.57c.999-.073 1.891.345 2.835.515.89.162 1.784.572 2.73.205.2-.053.409-.072.615-.057a5.827 5.827 0 002.378-.584.768.768 0 01.324-.037c.57 0 1.143-.043 1.709 0 .475.068.946.166 1.409.293l.039.256c-.187.104-.371.3-.558.3a8.378 8.378 0 01-1.204-.167c-.062 0-.127-.057-.183-.047-.64.116-1.279.238-1.918.365-.073.014-.135.084-.205.1-1.436.3-2.872.52-4.334.336-.556-.07-1.085-.33-1.629-.498a1.482 1.482 0 00-.41-.08c-.616 0-1.231-.205-1.859-.07-.211.04-.463-.157-.734-.26zM34.04 42.235c.191.08.367.19.52.328.216.238.373.525.455.836.144.91.292 1.828.433 2.736.236 1.508.127 3.012.259 4.508.05.566.311 1.115.482 1.67.127.41.259.82.396 1.23.039.116.123.219.15.337.056.233.09.47.102.71 0 .038-.252.151-.308.112a1.203 1.203 0 01-.466-.457c-.32-.79-.615-1.58-.697-2.459-.068-.79-.343-1.561-.484-2.35a7.67 7.67 0 01-.066-1.23c0-.602.043-1.209-.012-1.805a20.933 20.933 0 00-.365-2.42c-.09-.41-.34-.799-.499-1.205a1.432 1.432 0 01-.03-.41l.13-.13zM18.563 54.147c-.55-.354-.566-.528-.372-.956.195-.429.323-.923.478-1.384.1-.299.206-.596.302-.897.11-.363.143-.764.32-1.09.375-.687.291-1.414.273-2.127-.023-.849-.205-1.695-.191-2.543 0-.57.205-1.138.32-1.705.033-.154.113-.295.146-.449.09-.434.086-.436.695-.307-.1.42-.205.838-.297 1.262-.052.231-.08.468-.084.705 0 1.64.036 3.297-.041 4.94-.031.625-.337 1.24-.526 1.857-.12.397-.236.797-.385 1.184-.19.496-.41.98-.638 1.51zM31.56 68.643c-.292.488-.411.504-.865.174a3.95 3.95 0 00-1.764-.748c-.529-.082-1.077-.326-1.594-.194-.923.231-1.942.243-2.666 1.024-.121.127-.4.123-.616.138-.072 0-.215-.121-.215-.187a.53.53 0 01.133-.359 4.777 4.777 0 011.717-.959 6.323 6.323 0 013.077-.227c.9.097 1.761.416 2.507.928.116.12.212.26.285.41zM14.066 49.94h.532c.12.634.221 1.27.37 1.896.15.625.337 1.19.508 1.785.02.06.038.12.05.182.124.631.237 1.264.374 1.893.06.27.193.527.257.797.078.334-.117.521-.505.687-.117-.41-.228-.779-.336-1.156a509.14 509.14 0 01-.558-1.91.793.793 0 01-.04-.086c-.112-.602-.217-1.204-.334-1.807-.098-.508-.225-1.012-.31-1.522a4.637 4.637 0 01-.008-.759z" fill="#fff"/><path d="M8.013 23.256c-.055.437-.094.873-.17 1.306a6.946 6.946 0 01-.205.705c-.18.629-.357 1.26-.536 1.891-.02.076-.035.154-.049.232-.115.637-.141 1.307-.367 1.901a3.89 3.89 0 00-.177 2.05c.103.634.115 1.309.485 1.9.254.41.342.919.599 1.322.43.675.943 1.296 1.409 1.947a.772.772 0 01.125.46 6.75 6.75 0 01-1.77-2.13c-.292-.506-.638-1.004-.82-1.551-.206-.627-.245-1.305-.348-1.963-.18-1.148.234-2.24.35-3.359.073-.719.348-1.42.547-2.125.246-.868.507-1.731.76-2.598l.167.012zm21.291-5.593c-.02.744 0 1.492-.07 2.232-.086 1.049-.106 2.125-.373 3.133-.365 1.379-.135 2.758-.25 4.133-.099 1.184-.136 2.375-.205 3.563-.024.16-.06.316-.11.47h-.14a4.037 4.037 0 01-.058-.472c0-.949-.156-1.94.057-2.84.382-1.602.111-3.213.312-4.807.105-.838.175-1.683.27-2.525.097-.842.206-1.744.325-2.612.014-.095.168-.17.256-.256l-.014-.019zm-6.138 20.569c-.37.185-.724.403-1.057.65-.543.475-.615 1.08-.148 1.467.265.22.655.3.997.41.183.036.368.053.554.05a1.657 1.657 0 01-.15.554c-.153.205-.358.205-.615.06a7.68 7.68 0 00-1.026-.363c-.53-.195-.82-.837-.744-1.4.076-.563.14-1.123.691-1.457.246-.15.486-.373.75-.41.265-.037.506.133.76.205-.002.084-.006.16-.012.234zm7.77 2.943c.22-.216.312-.314.41-.41.41-.373.854-.722.727-1.398-.085-.453-.642-1.024-1.1-1.082a.663.663 0 01-.42-.182c-.048-.062.037-.318.13-.381.175-.12.469-.279.594-.205.395.24.767.518 1.11.83.104.119.182.258.23.41.073.163.129.336.204.504.017.043.07.086.064.118-.099.435-.105.935-.334 1.283-.23.349-.667.529-1.043.734-.092.053-.293-.105-.572-.221zm10.797 10.748c0 .381.134.742-.153 1.142-.222.307-.298.733-.398 1.116-.154.59-.462 1.146-.392 1.797a.643.643 0 01-.294.494c-.092.058-.459-.102-.457-.156a10.8 10.8 0 01.14-1.229c0-.06.071-.115.07-.17 0-.852.496-1.553.715-2.34.078-.287.38-.512.58-.764l.19.11zm8.399-17.281c.16.09.358.137.387.235a.672.672 0 01-.106.433c-.211.443-.444.875-.698 1.295a9.036 9.036 0 01-.948 1.295c-.919.992-1.875 1.95-2.872 2.985-.31-.614.11-.8.327-1.024.785-.82 1.612-1.6 2.396-2.424a6.946 6.946 0 001.514-2.795zm-23.812.928c-.016-.173-.045-.345-.047-.52 0-1.639.109-3.303-.061-4.93-.107-1.006-.206-2.006-.216-3.014v-1.678h.17c.031.73 0 1.469.103 2.19.334 2.476.238 4.963.26 7.447a4.69 4.69 0 01-.049.506h-.16zm18.511-23.99a11.15 11.15 0 01-.834-.842c-.772-.94-1.52-1.898-2.275-2.85-.363-.458-.72-.92-1.081-1.38l.096-.157c.146.053.345.063.429.168.718.889 1.421 1.795 2.119 2.7.453.588.902 1.18 1.33 1.787.094.185.163.382.204.586l.012-.012zM21.686 33.436v-5.891c0-1.045.016-2.092.03-3.138 0-.176-.038-.41.286-.348l-.013-.012c-.014 2.942-.022 5.885-.045 8.83 0 .204.128.512-.264.545l.006.014zm12.203 3.619c-.084-.024-.216-.024-.246-.082a8.373 8.373 0 01-1.071-3.1c-.162-1.164-.11-2.307-.172-3.459a2.366 2.366 0 01.018-.379c0-.037.047-.072.142-.205.036.17.062.342.078.514 0 .365-.03.732 0 1.093.059 1.104.175 2.204.348 3.297.12.625.521 1.194.778 1.797.056.176.093.358.11.543l.015-.019zM10.082 11.737c.659-1.666 1.374-3.295 2.952-4.42.102.22.148.359-.103.572-.454.374-.86.802-1.208 1.277-.316.448-.492.993-.745 1.49-.205.41-.438.809-.66 1.212l-.236-.13zm15.484 5.018c.288-.06.286.147.33.338.194.84.399 1.678.598 2.516a.832.832 0 01.024.188c0 1.138-.005 2.276-.016 3.414a.497.497 0 01-.058.162h-.15c-.02-1.113.037-2.235-.081-3.34-.12-1.104-.41-2.19-.636-3.279h-.01zm11.778 23.182c.72.389 1.47.731 2.152 1.182.8.526 1.694.154 2.525.365-.275.323-1.74.204-2.614-.066a3.649 3.649 0 01-2.063-1.481zm-4.482-15.824v4.672h-.195c-.07-1.555 0-3.112.01-4.668l.185-.004z" fill="#fff"/><path d="M44.816 11.59c.187.15.435.265.544.457.27.48.423 1.025.728 1.486a1.29 1.29 0 01.187 1.068c-.195-.179-.44-.298-.445-.425-.031-.68-.41-1.21-.675-1.793-.121-.262-.218-.536-.324-.805l-.015.012zm-14.677-.48c.205 1.467-.099 2.89-.476 4.317 0-.547-.03-1.098.012-1.64.027-.358.205-.702.236-1.06.043-.537.012-1.08.012-1.622l.216.005zm-1.561 24.2v2.334h-.129v-2.34l.13.006zm.743-17.635c0-.672.015-1.347.02-2.019h.206c.012.22.033.439.033.658.01.33-.002.66-.033.988-.017.129-.16.242-.246.36l.02.013zm-4.297-3.717c-.045-.014-.123-.02-.13-.045a13.66 13.66 0 01-.41-1.965c.326.64.677 1.273.532 2.025l.008-.015zM17.43 38.98c0-.047-.018-.106 0-.14.206-.313 1.026-.565 1.463-.335l-1.479.46.016.015zm-2.113.268l-1.524-.067v-.23c.478.03.956.057 1.436.103.03 0 .05.135.074.204l.014-.01zm9.978-24.038c.092.095.258.183.267.281.026.41 0 .84 0 1.263v-.01c-.085-.34-.177-.679-.245-1.025a3.404 3.404 0 01-.022-.523v.015zm8.58 21.859a.653.653 0 01.339.967l-.327-.98-.012.013z" fill="#fff"/><path d="M25.008 13.972c.092.086.254.164.264.26.025.326.032.652.02.978l.013-.012c-.086-.1-.227-.193-.244-.303-.04-.31-.03-.615-.04-.937l-.013.014zM15.3 39.261h1.16l-.012-.012c-.093.088-.206.26-.28.25-.293-.041-.689.22-.855-.25l-.012.012zm6.378-5.838l-.056 1.215c-.303-.463-.223-.975.068-1.2l-.012-.015zm-5.208 5.835a2.04 2.04 0 01.449-.269c.17-.026.342-.03.512-.012l-.012-.012c-.1.084-.19.217-.306.242a3.876 3.876 0 01-.656.039l.012.012zm5.535-15.203v-.857l.205.019c0 .287.227.614-.218.82l.012.018zM3.406 33.48c.082.027.216.029.238.082.226.502.41 1.025.653 1.516.13.203.271.398.422.586a.762.762 0 01.1.531c-.787-.752-1.329-1.619-1.4-2.727l-.013.012z" fill="#fff"/><path d="M2.738 31.668c.095.028.257.039.271.088.146.567.27 1.141.41 1.715v-.012c-.078-.048-.205-.082-.225-.146-.16-.551-.3-1.106-.443-1.66l-.013.015zm-.256-.981a1.231 1.231 0 01-.26-.344 5.792 5.792 0 01-.14-.767c.189-.125.377-.19.38.226v.897l.02-.012z" fill="#fff"/><path d="M2.752 31.655c-.441-.224-.18-.646-.275-.968l-.012.013c.092.09.248.168.264.27.024.232.028.465.01.697l.013-.012z" fill="#fff"/></svg>