<svg width="109" height="117" fill="none" xmlns="http://www.w3.org/2000/svg"><path d="M91.93 60.193c0 3.154.024 6.307-.015 9.46 0 1.056-.113 2.107-.337 3.138-.117.502-.16 1-.26 1.494-.12.574-.347 1.125-.505 1.692-.15.531-.25 1.078-.41 1.605-.144.455-.355.887-.523 1.332-.13.342-.224.695-.357 1.024a21.31 21.31 0 01-.67 1.572c-.25.512-.528.98-.797 1.467-.22.398-.435.797-.662 1.19-.388.669-.757 1.351-1.18 1.997-.753 1.147-1.495 2.307-2.322 3.4-1.13 1.493-2.27 2.989-3.53 4.37a30.98 30.98 0 01-3.37 3.074c-.66.534-1.474.875-2.218 1.305-1.01.58-2.097 1.006-3.046 1.727-.642.488-1.51.675-2.257 1.025-.87.41-1.813.447-2.72.656-.907.209-1.766.034-2.59.27-1.392.398-2.807.137-4.198.316-3.411.436-6.835.192-10.257.162-1.23-.011-2.461-.152-3.692-.263-.749-.069-1.528-.086-2.226-.323-.605-.205-1.21-.144-1.794-.277a47.606 47.606 0 01-3.44-.928c-.714-.222-1.4-.539-2.093-.82-.81-.332-1.663-.592-2.412-1.025a19.19 19.19 0 01-2.667-1.885c-.792-.666-1.436-1.496-2.222-2.178-.48-.422-1.103-.676-1.628-1.053-.887-.63-1.785-1.25-2.604-1.963a19.39 19.39 0 01-1.952-2.05 7.011 7.011 0 01-.71-1.219c-.398-.725-.802-1.45-1.178-2.188a9.027 9.027 0 01-.336-.906c-.228-.6-.441-1.207-.7-1.795-.356-.82-.765-1.61-1.124-2.426-.155-.35-.227-.738-.369-1.096-.141-.359-.316-.672-.463-1.015-.134-.31-.261-.614-.368-.94-.238-.703-.45-1.414-.697-2.113-.15-.422-.355-.82-.513-1.246-.119-.315-.205-.645-.295-.973-.142-.523-.259-1.053-.41-1.574-.142-.48-.32-.947-.485-1.42a.794.794 0 01-.06-.127c-.114-.637-.19-1.285-.342-1.912-.35-1.434-.295-2.901-.305-4.358a18.721 18.721 0 01.05-2.328c.095-.779.333-1.541.506-2.311.119-.54.205-1.084.352-1.62.148-.534.33-1.081.499-1.622.033-.072.06-.147.08-.224.12-.852.275-1.702.346-2.559.132-1.57.179-3.147.337-4.713.072-.692.338-1.363.498-2.049.148-.615.249-1.254.41-1.87.124-.452.32-.882.483-1.325.117-.325.223-.657.346-.981.327-.869.646-1.74.995-2.598.224-.548.507-1.072.745-1.615.267-.605.496-1.23.777-1.828.234-.502.53-.975.778-1.471.248-.496.461-1.012.716-1.506.371-.718.759-1.435 1.153-2.136.41-.74.82-1.483 1.276-2.202.322-.51.724-.972 1.056-1.478a25.931 25.931 0 012.509-3.094c.995-1.107 1.856-2.34 2.896-3.401a13.624 13.624 0 012.513-1.918c.956-.6 1.994-1.072 2.997-1.595.517-.27 1.026-.557 1.561-.789.41-.172.841-.254 1.258-.393.46-.156.908-.34 1.366-.498.336-.117.675-.23 1.025-.314.603-.15 1.21-.274 1.818-.41l2.422-.542a.97.97 0 01.142-.02c1.262-.105 2.492-.232 3.756-.325 1.465-.102 2.934-.235 4.402-.23 1.436 0 2.872.155 4.308.273.65.063 1.297.161 1.937.295.853.17 1.71.335 2.541.585.728.219 1.42.56 2.134.835.354.136.728.218 1.078.363.606.25 1.207.515 1.793.801.667.326 1.32.68 1.974 1.025.215.113.424.232.632.357l1.987 1.217c.649.395 1.311.77 1.94 1.196.571.378 1.12.788 1.642 1.23.8.66 1.566 1.362 2.291 2.104.556.595.987 1.306 1.469 1.97.334.459.669.922.99 1.389.47.682.93 1.369 1.391 2.049.552.82 1.096 1.654 1.642 2.475.35.52.715 1.025 1.07 1.55.714 1.038 1.45 2.06 2.13 3.122.38.595.652 1.254.992 1.875.255.465.583.896.805 1.375.27.586.461 1.21.69 1.814.159.41.337.82.481 1.23.147.41.272.827.373 1.251.138.6.259 1.205.36 1.814.188 1.139.36 2.282.537 3.426.027.172.04.346.04.52v9.594l.013.027zM51.636 16.665l-.01-.116c-.12.063-.236.178-.357.18-1.231.023-2.441 0-3.65.289-.82.19-1.686.244-2.531.36a.77.77 0 00-.09.03c-.616.18-1.219.352-1.826.54-.275.084-.537.205-.81.295-.691.222-1.42.363-2.072.666-.913.422-1.772.96-2.65 1.453-.76.426-1.553.805-2.257 1.3-.989.69-1.922 1.46-2.872 2.212a6.153 6.153 0 00-1.1.984c-.676.883-1.23 1.856-1.936 2.717-.82 1.01-1.762 1.924-2.611 2.912a6.6 6.6 0 00-.722 1.207c-.179.328-.291.692-.486 1.01-.195.318-.523.596-.694.938-.457.91-.86 1.845-1.286 2.77-.119.259-.25.513-.373.771-.277.578-.564 1.152-.82 1.734-.32.705-.616 1.418-.932 2.127-.293.668-.615 1.328-.89 2-.142.336-.236.692-.363 1.035-.164.436-.374.86-.505 1.307-.172.582-.295 1.18-.429 1.772-.176.79-.38 1.576-.5 2.375-.121.8-.18 1.64-.234 2.47-.05.772-.02 1.55-.09 2.321-.07.77-.218 1.474-.333 2.21a.205.205 0 01-.018.042c-.177.533-.371 1.06-.523 1.599-.22.78-.445 1.563-.597 2.358-.152.795-.337 1.664-.32 2.494.035 1.705-.27 3.426.244 5.123.205.69.234 1.434.345 2.157a.913.913 0 00.047.185c.166.445.347.883.496 1.332.15.449.265.922.41 1.38.101.333.206.663.337.987.164.424.35.84.515 1.264.143.373.262.756.41 1.131.174.467.365.928.538 1.395.127.345.205.703.356 1.041.374.9.78 1.787 1.147 2.69.246.605.41 1.24.68 1.845.352.82.738 1.625 1.14 2.424.422.84.8 1.724 1.343 2.484a12.828 12.828 0 001.896 1.998c.506.457 1.124.789 1.686 1.186.593.41 1.192.82 1.758 1.28.566.462 1.1.95 1.64 1.435.606.553 1.172 1.154 1.808 1.67.34.279.792.424 1.192.635.48.253.956.519 1.436.763.35.176.714.336 1.077.485.593.248 1.184.507 1.793.713.49.169 1.005.265 1.51.394 1.099.277 2.192.582 3.3.82.693.15 1.405.116 2.12.254 1.296.252 2.666-.058 3.979.338 3.282-.072 6.564.295 9.846-.221 1.342-.205 2.712-.041 4.086-.255 1.457-.225 2.969-.17 4.384-.668.8-.282 1.641-.565 2.32-1.053.944-.684 2.012-1.102 3.001-1.682.616-.365 1.311-.615 1.904-1.025.593-.41 1.112-.94 1.672-1.407 1.466-1.23 2.666-2.703 3.864-4.166.556-.677 1.026-1.414 1.555-2.121.287-.392.616-.758.87-1.168.468-.742.886-1.513 1.348-2.254.355-.576.788-1.109 1.108-1.701.535-.99 1.025-2.01 1.505-3.025a7.09 7.09 0 00.355-.94c.127-.41.205-.82.35-1.23.263-.768.592-1.518.821-2.299.258-.892.463-1.797.616-2.713a20.55 20.55 0 00.287-3.043c.039-4.639 0-9.28.045-13.92.027-2.538-.185-5.06-.34-7.581a1.767 1.767 0 00-.044-.328c-.17-.684-.348-1.367-.52-2.05-.13-.514-.243-1.024-.386-1.54a6.565 6.565 0 00-.343-.937c-.246-.545-.519-1.08-.78-1.618-.346-.713-.637-1.457-1.047-2.127-.616-1.005-1.32-1.955-1.978-2.933a334.314 334.314 0 01-1.904-2.84c-.4-.598-.785-1.203-1.19-1.799-.295-.439-.615-.86-.914-1.3-.3-.438-.536-.847-.82-1.265-.32-.474-.645-.947-.986-1.406a20.142 20.142 0 00-1.48-1.914 16.117 16.117 0 00-1.982-1.775c-.782-.598-1.625-1.116-2.45-1.655A60.387 60.387 0 0071 21.403c-.578-.35-1.14-.69-1.727-1.008a40.164 40.164 0 00-1.947-.992c-.631-.3-1.27-.581-1.918-.846-.346-.142-.718-.224-1.068-.357-.443-.168-.864-.397-1.315-.528a28.504 28.504 0 00-2.33-.585 22.74 22.74 0 00-2.072-.315c-1.073-.123-2.15.03-3.24-.23-.853-.205-1.796-.045-2.701-.036-.119 0-.234.086-.355.102-.228.03-.46.039-.691.057zM66.712 1.178c.52.119.934.219 1.348.31.17.035.342.058.515.067a5.598 5.598 0 012.808.949 2.682 2.682 0 011.25 1.87c.125.8-.456 1.978-1.203 2.343-.242.118-.506.204-.74.33a.947.947 0 00-.345.346c-.024.04.125.205.205.283.306.317.616.627.928.94.012.01.026.02.03.033.107.41.294.82.302 1.23a2.866 2.866 0 01-1.313 2.563c-.91.59-1.953.82-3.048.463a3.553 3.553 0 00-.513-.103c-.638-.114-1.28-.204-1.914-.348a1.008 1.008 0 01-.65-1.481c.07-.12.125-.25.162-.384.137-.686.236-1.383.396-2.063.135-.574.338-1.131.512-1.697 0-.014 0-.03.01-.045.12-.651.206-1.31.366-1.953s.349-1.217.527-1.823c.012-.048.03-.09.04-.138.102-.512.2-1.026.327-1.692zm.058 5.952c-.31.246-.382.625-.427 1.066-.062.584-.205 1.16-.324 1.74 0 .028-.027.055-.033.086-.084.45-.172.901-.246 1.354a.23.23 0 00.092.205c.27.147.563.25.866.303.732.054 1.47.205 2.207.033.139-.022.273-.066.398-.13.365-.241.658-.575.85-.968a1.971 1.971 0 00.13-1.801c-.447-1.008-1.42-1.455-2.46-1.695-.337-.076-.67-.123-1.053-.193zm4.599-2.458c-.088-.271-.164-.546-.265-.82a1.327 1.327 0 00-.99-.875c-.635-.154-1.242-.41-1.876-.564-.41-.096-.615.121-.66.57-.062.592-.205 1.174-.328 1.758-.015.066-.09.119-.134.183-.334.502-.106 1.434.41 1.415.821-.04 1.578.615 2.462.105.532-.297 1.465-.9 1.38-1.764v-.008zm-24.861 6.826c-.745.14-1.455.252-2.152.41-.698.158-1.416.37-2.125.54-.183.044-.384 0-.569.031-.299.058-.592.144-.888.228-.295.084-.486.108-.537-.279-.105-.785-.205-1.574-.363-2.35-.138-.685-.347-1.355-.523-2.03a.745.745 0 01-.01-.095c-.122-.82-.235-1.64-.368-2.46-.096-.602-.125-1.229-.353-1.788-.215-.518-.205-1.025-.277-1.547a1.733 1.733 0 00-.238-.478c.025-.03.042-.071.062-.075.862-.12 1.73-.205 2.583-.359.69-.129 1.362-.373 2.051-.52.413-.067.83-.109 1.25-.125.231.82 0 1.141-.8 1.23-.9.09-1.796.204-2.688.354-.274.05-.533.158-.761.317-.103.072-.131.312-.117.467.02.205.146.392.18.593.124.731.206 1.47.36 2.196a.562.562 0 00.41.347c.378-.04.752-.108 1.12-.205.03 0 .057-.025.088-.03.866-.122 1.731-.25 2.599-.352a.411.411 0 01.3.193 3.6 3.6 0 01.215.57c-.012.014-.027.057-.05.061-.684.121-1.37.234-2.05.36-.58.107-1.162.206-1.73.362a1.6 1.6 0 00-.492.34c.061.393.1.717.166 1.024.19.918.39 1.845.603 2.748a.337.337 0 00.279.17c.548-.094 1.155.107 1.641-.315a.085.085 0 01.045-.017c.86-.112 1.72-.237 2.58-.336.251-.022.255.002.559.82zM59.026 0c.059.523.08.887-.224 1.289-.775 1.024-1.463 2.117-2.205 3.168-.339.48-.749.91-1.09 1.391-.365.515-.676 1.068-1.025 1.592-.324.47-.646.925-.98 1.371-.247.334-.52.652-.756.994-.026.039.089.252.162.268.206.046.444.013.661.041.396.056.788.146 1.184.195.219.014.439.014.658 0H58.6c.39 0 .466.174.472.525.006.35-.164.442-.488.44-2.364-.018-4.719-.02-7.088-.037-.189 0-.535-.063-.541-.12-.027-.302-.072-.683.078-.908.687-1.025 1.435-1.988 2.162-2.978.525-.719 1.052-1.434 1.565-2.163.701-.998 1.393-2.007 2.088-3.01.13-.187.273-.367.394-.56.12-.193-.05-.48-.367-.496-.696-.037-1.391-.074-2.089-.084a116.81 116.81 0 00-2.9 0c-.334 0-.398-.154-.382-.439.013-.243-.028-.479.343-.477C54.223 0 56.6 0 59.026 0zm48.122 48.796c.244.127.469.285.671.471.571.652.287 1.4-.533 1.586-.615.14-1.214.355-1.82.537-.03 0-.059.023-.09.029-.603.11-1.212.192-1.803.342-.542.135-1.061.354-1.598.516-.445.134-.903.236-1.354.349-.498.123-1.056.141-1.48.391-.5.293-.99.187-1.486.258-.453.064-.601-.293-.691-.54a1.228 1.228 0 01.05-.937c.366-.596 1.027-.767 1.675-.91.648-.143 1.309-.36 1.961-.547.045-.012.088-.037.133-.045.601-.117 1.208-.205 1.803-.353.532-.127 1.051-.311 1.576-.473a.98.98 0 01.127-.057c.701-.133 1.403-.258 2.103-.398.223-.04.439-.125.756-.22zm-6.039-21.431c.706.064 1.289.599 1.153 1.23-.071.328-.41.789-.693.846-.792.162-1.391.615-2.008 1.05-.667.468-1.315.964-1.955 1.468-.685.541-1.299 1.189-2.037 1.64-.577.35-1.053 1.024-1.918.79a.988.988 0 01-.71-1.029.985.985 0 01.138-.425c.457-.674 1.142-1.068 1.768-1.543 1.025-.769 1.998-1.582 3.015-2.348.382-.26.782-.49 1.196-.693.46-.25.92-.496 1.387-.73.211-.1.443-.164.664-.256zm3.714 10.978c.698-.148 1.065.326 1.393.774.328.45-.3 1.326-.903 1.339a5.17 5.17 0 00-2.184.584c-.3.145-.644.205-.948.34-.585.274-1.149.59-1.731.87-.294.142-.616.232-.913.367-.509.232-1.005.488-1.516.718-.353.16-.737.436-1.07.391a1.469 1.469 0 01-.938-.664c-.13-.223-.033-.713.143-.949.222-.295.616-.471.956-.66.542-.299 1.098-.58 1.66-.844.529-.248 1.079-.45 1.612-.694.585-.269 1.153-.57 1.738-.84a5.03 5.03 0 01.873-.316c.614-.156 1.227-.279 1.828-.416zM21.285 93.992c.133.615-.41.879-.704 1.23-.722.87-1.53 1.67-2.302 2.501-.77.832-1.505 1.623-2.242 2.459-.334.377-.615.779-1.1 1.025-.391.205-.725.225-1.054-.107-.558-.561-.564-.955-.043-1.54.958-1.076 1.896-2.17 2.872-3.23.977-1.06 2-2.1 2.997-3.154.263-.276.587-.379.89-.18.343.223.817.42.686.996zm68.73-68.397c-.502.035-.76-.346-.96-.668a.72.72 0 01.142-.948c.509-.437 1.036-.85 1.532-1.298.73-.653 1.436-1.33 2.162-1.991.84-.765 1.641-1.58 2.546-2.254.38-.285.977-.297 1.483-.384.115-.02.273.156.396.26.537.462.302 1.476-.334 1.781a6.69 6.69 0 00-1.604 1.052c-1.127 1.024-2.175 2.14-3.297 3.174-.522.436-1.076.834-1.657 1.188a1.16 1.16 0 01-.409.088zm-5.983-6.891c-.301-.205-.721-.326-.783-.55-.094-.348-.072-.856.13-1.132.615-.859 1.345-1.64 2.032-2.46 1.044-1.229 2.113-2.432 3.124-3.688.312-.387.55-.787 1.091-.863.452-.065.887.05 1.057.441.17.391.22.82-.125 1.193a76.362 76.362 0 00-2.13 2.459c-.76.907-1.487 1.844-2.256 2.745-.43.503-.888.981-1.37 1.435-.179.18-.454.256-.77.42zm15.907 44.061a13.2 13.2 0 01-1.668-.41c-.36-.135-.515-.514-.486-.922.024-.334-.03-.651.393-.87a1.354 1.354 0 011.231-.058c.484.172 1.085.043 1.641 0 .255-.016.501-.148.757-.178 1.102-.133 2.207-.244 3.309-.375.65-.078 1.296-.215 1.949-.264.441-.031.716.309.769.745.119.976-.322 1.316-1.231 1.365-1.013.055-2.051.092-3.019.375-.706.205-1.389.121-2.072.236-.523.09-1.03.235-1.573.356zM6.07 90.801c-.014-.769.436-1.215 1.213-1.285.255-.04.498-.14.708-.29.933-.593 1.856-1.204 2.78-1.814.88-.582 1.749-1.18 2.633-1.754.41-.265 1.208-.07 1.436.317a1.196 1.196 0 01-.342 1.435c-.821.553-1.613 1.129-2.433 1.674-.82.545-1.668 1.061-2.499 1.596-.603.387-1.181.82-1.799 1.17-.747.416-1.68-.178-1.696-1.049zm24.396-76.015c.175.666-.437.768-.769.975-.332.207-.759 0-.99-.299-.466-.615-.877-1.264-1.303-1.904a62.259 62.259 0 01-1.106-1.709c-.252-.41-.466-.846-.716-1.26-.25-.414-.509-.758-.74-1.151a4.48 4.48 0 01-.431-.892c-.111-.34.367-1.07.72-1.17a1.142 1.142 0 011.325.553c.202.398.428.782.677 1.152.252.393.535.766.784 1.162.248.395.455.793.687 1.186.297.508.59 1.025.909 1.519.258.41.57.787.82 1.202.076.204.121.418.133.636zM3.077 81.073c-.359-.142-.794-.205-1.058-.445-.265-.24-.485-.701-.41-.97.108-.364.325-.848.928-.819.928.053 1.806-.193 2.667-.516.45-.168.938-.224 1.389-.384.36-.148.71-.32 1.046-.516.577-.303 1.137-.635 1.725-.91.429-.205 1.192.308 1.247.779a1.484 1.484 0 01-.87 1.518c-.859.396-1.706.82-2.578 1.174-.457.155-.924.282-1.397.38-.615.17-1.23.36-1.846.514-.264.047-.53.076-.798.086l-.045.109zm84.561 24.832c-.599.205-.82-.274-1.058-.614-.462-.615-.862-1.279-1.282-1.925-.445-.68-.903-1.354-1.323-2.049-.374-.614-.82-1.229-.804-2.008a.543.543 0 00-.087-.315c-.365-.51-.19-.95.41-1.414.337-.258.969-.13 1.328.256a.41.41 0 01.121.248c-.027.725.367 1.326.654 1.928.34.715.86 1.344 1.295 2.016.486.752.933 1.533 1.46 2.254.378.517.376.964-.051 1.396a2.5 2.5 0 01-.638.346l-.025-.119zM5.9 32.332c.37.112 1.093.324 1.807.563.596.184 1.18.405 1.748.662.615.3 1.202.687 1.803 1.025.268.167.55.311.843.43a1.368 1.368 0 01.93 1.4.741.741 0 01-.686.705c-.646.094-1.173-.148-1.706-.498-.6-.392-1.26-.689-1.894-1.025-.303-.164-.599-.346-.913-.488a6.286 6.286 0 00-1.025-.375 23.887 23.887 0 00-1.693-.352.98.98 0 01-.836-.908c-.01-.746.457-1.18 1.622-1.14zm4.123-9.876c.577.25 1.231.45 1.808.8a24.272 24.272 0 012.564 1.815c.784.65 1.53 1.347 2.23 2.088.41.424-.072 1.354-.68 1.455-.67.11-1.077-.332-1.514-.685-.898-.725-1.72-1.55-2.666-2.207-.655-.455-1.288-.998-2.16-1.116a1.088 1.088 0 01-.948-.998c-.016-.287.222-.65.45-.865.186-.172.529-.176.916-.287zm12.137-1.039c-.26-.152-.575-.252-.768-.463-1.067-1.166-2.105-2.365-3.157-3.537-.503-.557-1.048-1.076-1.57-1.619-.36-.377-.303-1.243.1-1.639.243-.24.978-.174 1.306.16 1.05 1.065 2.091 2.14 3.124 3.223.615.658 1.245 1.322 1.813 2.027.187.23.36.652.271.887-.318.855-.396.865-1.12.961zM81.79 6.474c-.23.49-.455.984-.689 1.471-.117.244-.236.486-.37.718-.397.698-.848 1.37-1.193 2.094-.345.723-.905 1.274-1.058 2.096-.095.51-.977.801-1.467.346-.653-.602-.632-.875-.31-1.668.46-1.13 1.288-2.024 1.83-3.094.252-.5.445-1.024.693-1.529.273-.543.552-1.086 1.112-1.413a.852.852 0 011.325.653c.01.095.015.189.02.283l.107.043zm20.162 80.986c-.5-.204-1.005-.41-1.501-.633a62.115 62.115 0 01-1.436-.67c-.542-.258-1.077-.532-1.627-.778-.39-.172-.82-.275-1.188-.472-.295-.153-.685-.354-.773-.614-.136-.41-.263-.92.23-1.28.246-.18 1.23-.204 1.52-.056.356.194.746.327 1.118.491.279.123.555.246.82.377.824.357 1.629.755 2.412 1.193.359.217.698.205 1.057.266.359.062.658.267.679.689.02.47.141.998-.431 1.244a4 4 0 01-.82.168l-.06.075zm-64.239 22.324c-.168-.325-.31-.575-.422-.838a.997.997 0 01-.095-.45c.085-1 .185-1.998.282-3.031l.892.305c-.092.26-.16.527-.205.799-.058.738-.189 1.496-.07 2.209.068.396.541.756.898 1.054.271.177.576.298.895.354a.369.369 0 00.31-.176c.231-.568.426-1.154.654-1.724.184-.469.41-.924.615-1.399l.735.41-2.76 7.403a171.91 171.91 0 00-1.493-.52c-.33-.113-.664-.215-.993-.328-.642-.221-1.025-.689-1.358-1.266a1.448 1.448 0 01-.248-.957 2.07 2.07 0 011.873-1.777c.11-.018.242-.033.49-.068zm2.201 1.095c-.219-.08-.383-.132-.539-.205-.359-.154-.702-.377-1.077-.457a1.555 1.555 0 00-1.668.662c-.256.409-.63.916-.176 1.608.41.633.868.974 1.563 1.094.093.007.184.03.269.068.465.287.568.23.726-.285.141-.459.363-.893.531-1.346.138-.369.252-.75.371-1.139zM3.104 55.008c.87.131 1.735.274 2.607.383.456.05.915.073 1.374.07.48 0 .91.153 1.153.561.142.238.25.615.164.84-.108.293-.254.693-.74.674-.728-.028-1.5.136-2.177-.053-1.475-.41-2.943-.205-4.414-.184-.796.016-1.18-.451-1.044-1.152a1.011 1.011 0 01.443-.637 3.096 3.096 0 011.764-.4c.285.015.57.015.855 0l.015-.102zm68.498 50.788c.292-.291.601-.564.925-.82.675-.48 1.308-1.049 2.189-1.144.137-.014.268-.09.41-.118.289-.06.615-.205.865-.14.686.205 1.403.32 1.986.82.538.466.97 1.042 1.268 1.688.336.683.574 1.357.517 2.127a3.593 3.593 0 01-1.264 2.558c-.576.461-1.194.868-1.846 1.215-.277.156-.634.17-1.026.264l-.328-.68a.584.584 0 01.17-.07c.792 0 1.346-.514 2.002-.83.802-.383 1.082-1.106 1.35-1.764.205-.486 0-1.154-.092-1.729a1.962 1.962 0 00-.386-.871c-.424-.541-.82-1.156-1.384-1.521a2.369 2.369 0 00-2.01-.326c-.756.257-1.55.519-2.073 1.191a.562.562 0 00-.071.481c.227.472.566.896.746 1.38.23.614.497.75 1.003.299a.927.927 0 01.388-.218c.166-.038.41-.09.503 0 .125.119.205.335-.097.488-.498.262-.951.615-1.436.885-.338.191-.59-.059-.738-.307-.34-.576-.615-1.184-.942-1.775-.2-.362-.408-.702-.63-1.083zm18.464-14.583c.056-.492.206-.865.628-1.037a1.099 1.099 0 011.245.387c.38.496.716 1.025 1.133 1.49.551.615 1.175 1.166 1.743 1.766.569.6 1.108 1.203 1.631 1.83.234.283-.205 1.05-.615 1.152a1.356 1.356 0 01-1.393-.41c-.4-.41-.874-.764-1.293-1.168-.418-.404-.806-.82-1.187-1.23a16.598 16.598 0 01-1.27-1.5 8.378 8.378 0 01-.622-1.28zm8.848-20.19c.948.088 1.912.098 2.839.282 1.116.224 2.203.589 3.299.908.451.134.771 1.058.56 1.543-.185.424-.985.68-1.418.472a5.633 5.633 0 00-1.23-.53c-.811-.171-1.641-.253-2.462-.366-.759-.104-1.534-.14-2.269-.334-.295-.078-.58-.461-.722-.772-.166-.371.043-.742.392-.945.311-.159.634-.296.964-.41l.047.152zM7.738 66.976c.146.269.236.445.337.615.244.41-.298 1.151-.874 1.19-1.731.121-3.463.244-5.194.359-.316.022-.636 0-.954.018-.556.03-.755-.377-.962-.774-.119-.23.216-.947.492-1.037.15-.05.306-.082.464-.094 1.393-.094 2.788-.168 4.179-.281.457-.037.908-.236 1.364-.236.414 0 .828.168 1.148.24zm59.058 48.594l-4.76-6.993c.82-.31 1.113-.15 1.56.676.187.411.43.794.724 1.137.14.139.538.031.82.012.079 0 .144-.123.225-.141.53-.121 1.062-.232 1.595-.344.329-.07.583-.738.573-1.15a6.804 6.804 0 01.174-1.705c.027-.119.468-.143.718-.205l.115.134c-.068.186-.144.371-.205.561-.044.133-.07.271-.076.41-.025 1.139-.012 2.281-.07 3.42a74.609 74.609 0 01-.305 3.658c-.013.12-.206.256-.35.319a5.27 5.27 0 01-.738.211zm.525-5.036a.799.799 0 00-.275-.033c-.685.205-1.368.41-2.05.635a.442.442 0 00.018.316c.242.409.498.819.767 1.229a63.89 63.89 0 001.142 1.609c.072.071.156.13.247.174.059-.1.102-.209.127-.322.016-.6.016-1.201.018-1.801.002-.601.006-1.205.006-1.814v.007zM5.332 43.35c.954.09 1.908.163 2.86.274.508.057 1.01.15 1.506.277.205.053.498.217.529.373.103.41.103.84 0 1.252-.117.332-.525.47-.946.42-.99-.121-1.988-.205-2.98-.318-.458-.055-.91-.205-1.365-.205-.289 0-.58.205-.876.224-.82.036-1.243-.892-.953-1.582a.972.972 0 01.584-.433c.534-.164 1.087-.26 1.641-.383v.1zm18.876 62.557c.494-.594.966-1.151 1.436-1.719.359-.439.302-.637-.15-.963-.5-.357-.945-.795-1.454-1.137-.39-.261-.384-.517-.111-.929l2.503 2.049c.426-.528.861-1.079 1.306-1.622.146-.175.374-.304.456-.498.082-.195.078-.494-.031-.595-.531-.489-1.11-.932-1.676-1.383-.117-.092-.281-.129-.384-.231a.755.755 0 01-.236-.41c-.012-.125.089-.35.183-.377a.591.591 0 01.425.147c.947.754 1.885 1.525 2.828 2.283.206.168.255.301.064.531-.77.924-1.516 1.869-2.279 2.799-.314.381-.646.746-.968 1.117-.478.551-.987 1.082-1.422 1.664-.244.325-.383.235-.627.036-.841-.678-1.711-1.323-2.538-2.022-.168-.144-.193-.457-.283-.691l.193-.164c.242.113.474.244.695.394.691.563 1.37 1.139 2.07 1.721zm21.514 6.912v-.527c.821.119 1.642-.116 2.425.254.556.265.82.072.905-.536.084-.609.232-1.166.303-1.754.076-.634-.168-.898-.808-.98-.82-.104-1.653-.219-2.533-.336 0-.166-.015-.328-.027-.574 1.468.077 2.926.279 4.36.603-.048.614-.056 1.112-.132 1.604-.144.932-.328 1.861-.497 2.789-.02.109-.055.205-.067.324-.132 1.037-.259 2.071-.396 3.17-.441-.039-.882.145-1.3-.183-.12-.092-.333-.063-.505-.088-.71-.102-1.424-.205-2.132-.317a.357.357 0 01-.205-.283c.019-.115.173-.297.253-.291.461.043.915.152 1.374.205.503.057 1.007.088 1.512.117a.248.248 0 00.105-.04.247.247 0 00.075-.083 4.97 4.97 0 00.283-2.439c-.012-.1-.256-.219-.41-.246-.847-.137-1.698-.256-2.583-.389zm12.125 3.981c0-.863.105-1.76-.025-2.623-.205-1.405-.205-2.811-.24-4.221 0-.32-.205-.41-.47-.395-.711.02-1.425.047-2.137.071-.174 0-.349.021-.523.015-.478-.013-.513-.062-.427-.648h1.545c.81-.01 1.618-.016 2.427-.043.326 0 .432.109.437.441.016 1.266.045 2.532.102 3.797.045 1.006.156 2.01.205 3.016.033.729-.04.77-.894.59zM33.33 103.258l.74.41c-1.355 2.34-2.711 4.682-4.083 7.047l-.702-.546 4.045-6.911z" fill="#fff"/></svg>