<svg width="109" height="118" fill="none" xmlns="http://www.w3.org/2000/svg"><path d="M92.28 61.17c0 3.153.025 6.307-.014 9.46a14.78 14.78 0 01-.336 3.138c-.117.502-.16 1-.26 1.493-.12.574-.347 1.125-.505 1.693-.15.53-.25 1.078-.41 1.604-.144.455-.355.888-.524 1.332-.129.343-.223.695-.357 1.025-.205.529-.422 1.06-.67 1.572-.249.512-.528.98-.796 1.467-.22.397-.435.797-.663 1.19-.388.668-.757 1.35-1.18 1.996-.752 1.148-1.495 2.308-2.322 3.4-1.13 1.493-2.27 2.99-3.53 4.37a30.983 30.983 0 01-3.37 3.074c-.659.535-1.473.875-2.218 1.306-1.009.58-2.096 1.006-3.046 1.727-.642.488-1.51.674-2.256 1.024-.87.41-1.814.447-2.72.656-.907.209-1.767.035-2.591.271-1.391.397-2.806.137-4.197.315-3.412.437-6.835.193-10.257.162-1.23-.01-2.462-.152-3.692-.262-.749-.07-1.529-.086-2.226-.324-.605-.205-1.21-.143-1.795-.277a47.112 47.112 0 01-3.44-.928c-.714-.221-1.399-.539-2.092-.819-.81-.332-1.664-.593-2.413-1.025a19.201 19.201 0 01-2.666-1.885c-.792-.666-1.436-1.496-2.222-2.178-.48-.423-1.104-.677-1.629-1.054-.886-.629-1.784-1.25-2.603-1.963a19.293 19.293 0 01-1.953-2.049 7.024 7.024 0 01-.71-1.22c-.398-.724-.802-1.45-1.177-2.188a8.988 8.988 0 01-.336-.905c-.228-.6-.441-1.207-.7-1.795-.357-.82-.765-1.611-1.124-2.426-.156-.35-.228-.738-.37-1.097-.14-.358-.315-.672-.463-1.014a11.06 11.06 0 01-.367-.94c-.238-.704-.451-1.415-.697-2.113-.15-.422-.355-.82-.513-1.246-.12-.316-.206-.646-.296-.974-.141-.522-.258-1.053-.41-1.573-.142-.48-.32-.947-.484-1.42a.782.782 0 01-.06-.127c-.114-.638-.19-1.285-.342-1.912-.351-1.435-.296-2.902-.306-4.359a18.72 18.72 0 01.051-2.328c.095-.778.333-1.54.505-2.31.119-.54.205-1.085.353-1.62.148-.535.33-1.082.498-1.623.033-.072.06-.146.08-.223.121-.852.275-1.703.347-2.56.131-1.569.178-3.147.336-4.712.072-.693.339-1.363.499-2.05.148-.614.248-1.253.41-1.87.123-.451.32-.882.482-1.324.117-.326.224-.658.347-.982.326-.868.646-1.74.995-2.598.223-.547.506-1.072.744-1.615.267-.604.497-1.23.778-1.827.234-.502.53-.976.777-1.472.249-.496.462-1.012.716-1.506.372-.717.76-1.434 1.153-2.135.41-.74.82-1.484 1.276-2.203.322-.51.724-.971 1.056-1.477a25.914 25.914 0 012.51-3.094c.994-1.107 1.856-2.34 2.896-3.402a13.624 13.624 0 012.513-1.918c.956-.6 1.994-1.072 2.997-1.594.517-.27 1.025-.558 1.56-.79.411-.171.842-.253 1.258-.392.46-.156.909-.34 1.366-.498.337-.117.675-.23 1.026-.314.603-.15 1.21-.275 1.818-.41l2.422-.543c.047-.01.094-.016.142-.02 1.261-.105 2.492-.232 3.756-.324 1.464-.102 2.933-.236 4.402-.23 1.436 0 2.872.154 4.308.273.65.062 1.297.16 1.936.295.853.17 1.71.334 2.542.584.728.22 1.42.562 2.133.836.355.135.728.217 1.079.363.605.25 1.206.514 1.793.801.667.326 1.319.68 1.973 1.024.216.113.425.232.632.357l1.988 1.217c.648.396 1.31.77 1.94 1.197.57.378 1.119.788 1.641 1.23.801.66 1.566 1.362 2.292 2.104.556.594.986 1.305 1.468 1.97.335.458.67.921.991 1.388.47.683.93 1.37 1.391 2.05.552.82 1.096 1.653 1.641 2.475.351.52.716 1.024 1.071 1.549.714 1.039 1.45 2.061 2.13 3.123.379.594.652 1.254.992 1.875.255.465.583.895.804 1.375.271.586.462 1.209.692 1.813.157.41.336.82.48 1.23.147.41.271.828.373 1.252.137.6.258 1.205.359 1.813.189 1.14.36 2.283.537 3.426.027.173.041.347.041.52v9.595l.013.026zM51.989 17.642l-.01-.117c-.119.064-.236.178-.357.18-1.23.023-2.44 0-3.65.29-.82.19-1.685.243-2.53.36a.751.751 0 00-.09.029c-.616.18-1.22.352-1.826.54-.275.085-.538.206-.81.296-.692.221-1.42.363-2.073.666-.912.422-1.772.959-2.65 1.453-.759.426-1.553.805-2.256 1.299-.989.69-1.922 1.46-2.872 2.213a6.15 6.15 0 00-1.1.983c-.677.884-1.23 1.857-1.936 2.718-.82 1.01-1.762 1.924-2.611 2.911a6.6 6.6 0 00-.723 1.207c-.178.328-.29.693-.486 1.01-.195.318-.523.597-.693.939-.457.91-.86 1.844-1.286 2.77-.12.259-.25.513-.374.77-.277.579-.564 1.153-.82 1.734-.32.705-.616 1.418-.931 2.127-.294.668-.616 1.328-.89 2-.142.336-.237.693-.364 1.035-.164.437-.373.86-.504 1.307-.173.582-.296 1.18-.43 1.773-.175.789-.379 1.576-.5 2.375-.12.8-.18 1.64-.233 2.47-.05.772-.021 1.55-.09 2.32-.07.771-.218 1.474-.333 2.21a.21.21 0 01-.018.043c-.177.533-.372 1.06-.524 1.598-.22.78-.445 1.564-.597 2.359-.151.795-.336 1.664-.32 2.494.035 1.704-.27 3.426.245 5.122.205.69.233 1.435.344 2.158.01.063.025.125.047.184.167.445.347.884.497 1.332.15.45.264.922.41 1.382.1.331.205.661.337.985.164.424.35.84.514 1.264.144.373.263.757.41 1.132.175.467.366.928.538 1.395.127.344.205.703.357 1.041.373.9.78 1.787 1.147 2.69.246.605.41 1.24.679 1.845.352.82.738 1.625 1.14 2.424.423.84.8 1.723 1.344 2.483a12.838 12.838 0 001.895 1.998c.507.457 1.124.79 1.687 1.187.592.41 1.191.82 1.757 1.28.567.462 1.1.95 1.641 1.435.606.553 1.172 1.154 1.808 1.67.34.279.791.424 1.192.635.48.252.955.519 1.435.762.351.177.714.336 1.077.486.593.248 1.184.506 1.793.713.49.168 1.005.264 1.51.394 1.1.276 2.193.581 3.3.819.694.15 1.406.117 2.12.254 1.296.252 2.666-.057 3.98.338 3.281-.071 6.563.295 9.846-.221 1.341-.205 2.711-.041 4.086-.254 1.456-.225 2.968-.17 4.384-.668.8-.283 1.64-.566 2.32-1.053.943-.685 2.012-1.103 3-1.683.616-.364 1.311-.614 1.904-1.024.593-.41 1.112-.94 1.672-1.408 1.467-1.23 2.667-2.703 3.865-4.166.556-.676 1.026-1.414 1.555-2.12.287-.392.615-.759.87-1.169.467-.742.886-1.512 1.347-2.254.355-.575.788-1.108 1.108-1.7.535-.99 1.026-2.01 1.506-3.025a7.09 7.09 0 00.355-.94c.127-.41.205-.82.35-1.23.263-.768.591-1.518.82-2.3.258-.89.464-1.797.616-2.712.172-1.006.268-2.023.287-3.043.04-4.64 0-9.28.046-13.92.026-2.539-.185-5.061-.34-7.582a1.767 1.767 0 00-.044-.328c-.17-.684-.349-1.366-.521-2.049-.13-.514-.242-1.024-.386-1.54a6.537 6.537 0 00-.342-.937c-.246-.545-.52-1.08-.78-1.619-.346-.713-.638-1.457-1.048-2.127-.615-1.004-1.319-1.955-1.978-2.932-.638-.943-1.273-1.89-1.903-2.84-.4-.599-.786-1.203-1.19-1.8-.295-.438-.615-.86-.915-1.299-.3-.438-.535-.848-.82-1.266-.32-.473-.644-.947-.985-1.406a20.167 20.167 0 00-1.481-1.913 16.11 16.11 0 00-1.982-1.775c-.781-.598-1.624-1.117-2.449-1.656a60.386 60.386 0 00-1.725-1.073c-.578-.35-1.14-.691-1.727-1.009a39.193 39.193 0 00-3.865-1.838c-.347-.141-.718-.223-1.069-.356-.443-.168-.863-.398-1.315-.529a28.463 28.463 0 00-2.33-.584 22.773 22.773 0 00-2.072-.316c-1.073-.122-2.15.031-3.239-.229-.853-.205-1.797-.045-2.701-.037-.12 0-.234.086-.355.103-.228.03-.46.038-.692.057zM67.064 2.154c.519.12.933.22 1.348.31.17.036.341.058.514.067a5.598 5.598 0 012.809.95 2.682 2.682 0 011.249 1.87c.125.8-.455 1.977-1.202 2.342-.242.119-.507.205-.74.33a.947.947 0 00-.345.346c-.025.041.125.205.205.283.305.318.615.627.927.94.012.01.027.021.03.033.108.41.294.82.302 1.23a2.866 2.866 0 01-1.312 2.563c-.911.59-1.953.82-3.049.464a3.54 3.54 0 00-.513-.103c-.638-.115-1.28-.205-1.913-.348a1.008 1.008 0 01-.65-1.482 1.6 1.6 0 00.161-.383c.138-.687.236-1.383.396-2.064.136-.573.339-1.13.513-1.696 0-.015 0-.03.01-.045.12-.652.206-1.31.365-1.953.16-.644.35-1.217.528-1.824.012-.047.03-.09.039-.137.102-.512.2-1.027.328-1.693zm.057 5.953c-.31.246-.381.625-.426 1.066-.062.584-.205 1.16-.324 1.74 0 .028-.027.055-.033.085-.084.451-.173.902-.246 1.355a.229.229 0 00.092.205c.27.146.563.249.865.303.733.053 1.471.205 2.208.033a1.34 1.34 0 00.398-.131c.364-.24.658-.575.849-.968a1.971 1.971 0 00.131-1.8c-.447-1.009-1.421-1.456-2.461-1.695-.337-.076-.67-.123-1.053-.193zm4.6-2.459c-.089-.27-.165-.545-.265-.82a1.329 1.329 0 00-.991-.875c-.634-.153-1.241-.41-1.875-.563-.41-.096-.615.12-.66.57-.062.592-.206 1.174-.329 1.758-.014.065-.09.119-.133.182-.334.502-.107 1.434.41 1.416.82-.04 1.578.615 2.462.105.531-.298 1.465-.9 1.38-1.765v-.008zM46.86 12.474c-.745.14-1.455.252-2.153.41-.697.158-1.415.371-2.125.541-.182.043-.383 0-.568.03-.3.058-.593.144-.888.228-.296.084-.486.109-.538-.278-.104-.785-.205-1.574-.363-2.35-.137-.685-.346-1.355-.523-2.031a.728.728 0 01-.01-.095c-.121-.82-.234-1.639-.367-2.459-.097-.602-.125-1.229-.353-1.788-.215-.519-.205-1.025-.277-1.548a1.733 1.733 0 00-.238-.477c.025-.03.041-.072.062-.076.861-.119 1.729-.205 2.582-.358.691-.13 1.362-.373 2.052-.52.413-.068.83-.11 1.249-.126.232.82 0 1.142-.8 1.23a41.03 41.03 0 00-2.688.354 1.94 1.94 0 00-.76.318c-.103.071-.132.311-.117.467.02.205.145.391.18.592.123.732.205 1.471.36 2.197a.56.56 0 00.41.346c.377-.04.752-.108 1.12-.205.03 0 .057-.024.088-.028.865-.123 1.73-.25 2.599-.353a.411.411 0 01.3.193c.087.183.159.374.215.57-.013.014-.027.057-.05.06-.685.122-1.37.234-2.051.361-.579.107-1.161.205-1.73.361a1.6 1.6 0 00-.492.34c.062.394.1.717.167 1.025.19.918.39 1.844.603 2.748a.337.337 0 00.279.17c.547-.095 1.155.106 1.64-.316a.087.087 0 01.046-.016c.86-.113 1.719-.238 2.58-.336.25-.023.255.002.558.82zM59.377.977c.06.522.08.887-.224 1.288-.775 1.025-1.462 2.117-2.205 3.168-.338.48-.748.91-1.089 1.392-.365.514-.677 1.067-1.026 1.592-.324.47-.646.924-.98 1.37-.246.335-.52.652-.755.995-.027.039.088.252.162.268.205.045.443.012.66.041.396.055.788.146 1.184.195.22.013.44.013.659 0h3.187c.39 0 .466.174.472.524.006.35-.164.443-.488.44-2.363-.018-4.718-.02-7.087-.036-.19 0-.536-.064-.542-.12-.026-.302-.072-.683.078-.909.687-1.024 1.436-1.987 2.162-2.977.525-.72 1.052-1.434 1.565-2.164.702-.998 1.393-2.006 2.089-3.01.129-.187.272-.367.394-.56.12-.192-.05-.479-.368-.495a54.532 54.532 0 00-2.088-.084c-.965-.013-1.932-.013-2.9 0-.335 0-.398-.154-.382-.439.012-.244-.029-.48.342-.477 2.378-.002 4.755-.002 7.18-.002zM107.5 49.773c.243.126.469.285.671.47.57.652.287 1.4-.534 1.587-.615.14-1.214.354-1.819.537-.031 0-.06.022-.09.028-.603.111-1.213.193-1.803.343-.542.135-1.061.354-1.598.516-.446.133-.903.236-1.354.348-.499.123-1.057.142-1.481.392-.499.293-.99.186-1.486.258-.453.063-.6-.293-.69-.541a1.228 1.228 0 01.05-.937c.366-.596 1.026-.766 1.674-.91.649-.143 1.309-.36 1.961-.546.046-.013.089-.037.134-.046.601-.116 1.208-.204 1.803-.352.531-.127 1.05-.312 1.575-.473.041-.022.084-.042.127-.058.702-.133 1.404-.258 2.103-.397.224-.041.439-.125.757-.22zm-6.039-21.431c.706.063 1.288.598 1.153 1.23-.072.327-.41.788-.693.846-.792.161-1.391.614-2.009 1.049a45.54 45.54 0 00-1.955 1.469c-.685.54-1.298 1.188-2.037 1.64-.576.35-1.052 1.024-1.918.79a.987.987 0 01-.572-1.455c.458-.674 1.143-1.067 1.768-1.543 1.026-.768 1.998-1.582 3.016-2.348a9.81 9.81 0 011.196-.693c.46-.25.919-.496 1.386-.73.212-.1.443-.163.665-.255zm3.714 10.978c.697-.148 1.064.325 1.393.774.328.449-.3 1.326-.903 1.338a5.172 5.172 0 00-2.185.584c-.299.146-.644.205-.947.34-.585.275-1.149.59-1.732.871-.293.142-.615.232-.913.367-.508.231-1.005.488-1.516.717-.352.16-.736.437-1.07.392a1.467 1.467 0 01-.938-.664c-.129-.224-.033-.714.144-.95.221-.294.615-.47.956-.659.541-.3 1.097-.58 1.66-.844.529-.248 1.078-.451 1.612-.695.584-.268 1.152-.57 1.737-.84.281-.132.574-.237.874-.316.613-.155 1.227-.278 1.828-.416zM21.636 94.969c.134.614-.41.879-.703 1.229-.723.87-1.53 1.67-2.302 2.502-.771.832-1.506 1.623-2.242 2.459-.334.377-.615.779-1.1 1.024-.391.205-.726.226-1.054-.106-.558-.562-.564-.955-.043-1.541.958-1.076 1.895-2.17 2.872-3.23.976-1.059 2-2.1 2.997-3.153.262-.277.586-.38.89-.18.343.223.816.42.685.996zm68.731-68.397c-.503.035-.761-.346-.96-.668a.72.72 0 01.142-.949c.508-.436 1.035-.85 1.532-1.297.73-.654 1.436-1.33 2.162-1.992.839-.764 1.641-1.58 2.546-2.254.38-.285.976-.297 1.483-.383.115-.02.273.156.396.26.537.461.301 1.476-.335 1.78a6.693 6.693 0 00-1.604 1.052c-1.126 1.025-2.174 2.142-3.296 3.174-.523.437-1.077.834-1.658 1.189a1.17 1.17 0 01-.408.088zm-5.983-6.892c-.302-.204-.722-.325-.784-.549-.094-.348-.071-.856.13-1.133.615-.858 1.345-1.64 2.033-2.459 1.044-1.23 2.112-2.432 3.124-3.688.312-.388.55-.787 1.091-.863.451-.066.886.05 1.056.44.17.392.22.82-.125 1.193a76.237 76.237 0 00-2.129 2.46c-.76.907-1.487 1.843-2.256 2.745-.431.502-.889.981-1.37 1.434-.18.18-.454.256-.77.42zm15.906 44.062c-.564-.1-1.121-.237-1.668-.41-.359-.135-.515-.514-.486-.922.025-.334-.029-.652.394-.871a1.353 1.353 0 011.23-.057c.485.172 1.086.043 1.642 0 .254-.017.5-.148.757-.179 1.101-.133 2.207-.243 3.309-.375.65-.078 1.296-.215 1.948-.264.441-.03.716.31.77.746.119.975-.322 1.316-1.231 1.365-1.014.055-2.052.092-3.02.375-.705.205-1.388.12-2.072.235-.523.09-1.029.236-1.573.357zM6.422 91.778c-.014-.769.435-1.216 1.213-1.285.255-.04.497-.14.707-.291a174.01 174.01 0 002.78-1.814c.88-.582 1.75-1.18 2.634-1.754.41-.264 1.208-.07 1.436.318a1.195 1.195 0 01-.343 1.434c-.82.553-1.612 1.13-2.433 1.674-.82.545-1.668 1.062-2.498 1.597-.603.387-1.182.82-1.8 1.17-.746.416-1.68-.179-1.696-1.05zm24.396-76.016c.174.666-.437.769-.77.976-.332.207-.758 0-.99-.3-.466-.614-.876-1.264-1.303-1.903a62.176 62.176 0 01-1.105-1.71c-.253-.409-.466-.845-.716-1.26-.25-.413-.509-.758-.74-1.15a4.504 4.504 0 01-.432-.892c-.11-.34.368-1.07.72-1.17a1.142 1.142 0 011.326.553c.202.397.428.782.677 1.151.252.394.535.767.783 1.162.248.396.456.793.687 1.187.298.508.591 1.024.909 1.518.258.41.57.787.82 1.203.077.204.122.418.134.635zM3.429 82.05c-.36-.142-.794-.206-1.059-.446-.265-.24-.484-.7-.41-.969.109-.365.326-.848.93-.82.926.054 1.804-.192 2.666-.516.449-.168.937-.223 1.389-.383.36-.148.709-.321 1.046-.516.576-.304 1.136-.636 1.725-.91.429-.205 1.192.307 1.247.778a1.484 1.484 0 01-.87 1.519c-.86.395-1.706.82-2.578 1.174-.458.155-.924.281-1.397.38-.616.17-1.231.36-1.846.513a5.73 5.73 0 01-.798.087l-.045.108zm84.561 24.832c-.599.205-.82-.275-1.058-.615-.462-.615-.862-1.278-1.282-1.924-.446-.68-.903-1.354-1.324-2.049-.373-.615-.82-1.23-.804-2.008a.542.542 0 00-.086-.316c-.365-.51-.19-.949.41-1.414.337-.258.969-.129 1.328.256a.41.41 0 01.12.248c-.026.726.368 1.326.655 1.929.34.715.86 1.344 1.294 2.016.487.752.934 1.533 1.46 2.254.378.516.376.963-.05 1.395-.195.146-.41.263-.638.347l-.025-.119zM6.252 33.308c.369.113 1.093.324 1.807.564.596.184 1.18.405 1.748.662.615.299 1.202.686 1.803 1.024.268.168.55.312.843.43a1.368 1.368 0 01.93 1.4.741.741 0 01-.686.705c-.646.094-1.173-.148-1.707-.498-.599-.391-1.26-.688-1.893-1.024-.304-.164-.6-.347-.913-.488a6.295 6.295 0 00-1.026-.375 23.83 23.83 0 00-1.692-.353.981.981 0 01-.837-.907c-.01-.746.458-1.18 1.623-1.14zm4.123-9.875c.576.25 1.23.45 1.807.799.893.55 1.75 1.156 2.564 1.815.785.65 1.53 1.348 2.23 2.088.41.424-.072 1.355-.679 1.455-.67.11-1.077-.332-1.514-.684-.898-.726-1.721-1.551-2.667-2.207-.654-.455-1.288-.998-2.16-1.117a1.088 1.088 0 01-.947-.998c-.017-.287.221-.65.449-.864.187-.173.53-.177.917-.287zm12.135-1.039c-.258-.152-.574-.252-.767-.463-1.066-1.166-2.104-2.365-3.156-3.537-.503-.558-1.049-1.076-1.57-1.619-.36-.377-.303-1.244.099-1.64.244-.24.978-.174 1.306.16 1.05 1.066 2.092 2.14 3.125 3.224.615.658 1.245 1.322 1.813 2.026.187.23.359.652.27.888-.317.854-.395.864-1.12.96zM82.142 7.45c-.23.49-.455.984-.69 1.472-.116.244-.235.486-.368.717-.398.699-.85 1.371-1.194 2.094-.345.724-.905 1.275-1.059 2.097-.094.51-.976.8-1.467.346-.652-.603-.631-.875-.31-1.668.46-1.131 1.289-2.025 1.83-3.094.253-.5.446-1.025.694-1.529.273-.543.552-1.086 1.112-1.414a.852.852 0 011.325.654c.01.094.014.188.02.283l.107.043zm20.162 80.987c-.501-.205-1.005-.41-1.502-.633a63.86 63.86 0 01-1.436-.67c-.541-.258-1.077-.533-1.627-.779-.39-.172-.82-.274-1.187-.471-.296-.154-.685-.355-.774-.615-.135-.41-.262-.92.23-1.279.246-.18 1.23-.204 1.52-.057.357.195.747.328 1.118.492.28.123.556.246.82.377.824.357 1.63.755 2.413 1.192.359.218.697.205 1.056.267.359.061.659.266.679.688.021.47.142.998-.43 1.244a3.99 3.99 0 01-.821.168l-.059.076zm-64.239 22.324c-.168-.326-.31-.576-.423-.838a.997.997 0 01-.094-.451c.084-1 .185-1.998.281-3.031l.892.306c-.092.26-.16.527-.205.799-.057.738-.188 1.496-.07 2.209.068.395.542.756.899 1.053.271.178.575.298.894.355a.37.37 0 00.31-.177c.232-.567.427-1.153.654-1.723.185-.469.41-.924.616-1.399l.734.409-2.759 7.404a210.2 210.2 0 00-1.493-.521c-.33-.112-.665-.215-.993-.328-.642-.221-1.026-.688-1.358-1.266a1.448 1.448 0 01-.248-.957 2.072 2.072 0 011.873-1.776c.11-.019.242-.033.49-.068zm2.201 1.094c-.22-.08-.384-.131-.54-.205-.358-.153-.701-.377-1.076-.457a1.556 1.556 0 00-1.668.662c-.257.41-.63.916-.177 1.609.41.633.868.973 1.563 1.094a.82.82 0 01.27.068c.465.287.568.229.725-.285.142-.459.364-.894.532-1.346.137-.369.252-.75.371-1.14zM3.455 55.984c.87.131 1.736.275 2.608.384.456.05.915.073 1.374.07.48 0 .909.153 1.153.56.141.238.25.615.164.84-.109.294-.254.693-.74.675-.729-.029-1.5.135-2.177-.053-1.475-.41-2.944-.205-4.415-.185-.795.017-1.18-.45-1.044-1.151a1.011 1.011 0 01.443-.638 3.097 3.097 0 011.765-.4c.284.015.57.015.855 0l.014-.102zm68.498 50.788c.293-.29.602-.564.925-.82.675-.479 1.309-1.049 2.189-1.143.138-.014.269-.09.41-.119.29-.059.616-.205.866-.139.685.205 1.403.319 1.986.819.538.467.97 1.043 1.267 1.689.337.682.575 1.356.517 2.127a3.588 3.588 0 01-1.263 2.557c-.576.462-1.194.869-1.846 1.215-.277.156-.634.17-1.026.265l-.328-.681a.582.582 0 01.17-.069c.792 0 1.346-.515 2.002-.83.802-.383 1.081-1.107 1.35-1.764.205-.486 0-1.154-.093-1.73a1.973 1.973 0 00-.385-.871c-.425-.541-.82-1.156-1.385-1.52-.29-.2-.62-.333-.968-.39a2.383 2.383 0 00-1.042.064c-.755.256-1.549.518-2.072 1.19a.568.568 0 00-.072.482c.228.471.566.896.747 1.379.23.615.496.75 1.003.299a.924.924 0 01.388-.217c.166-.039.41-.09.502 0 .125.119.205.334-.096.488-.499.262-.952.614-1.436.885-.339.191-.59-.059-.739-.307-.34-.576-.615-1.185-.941-1.775-.201-.363-.408-.703-.63-1.084zM90.418 92.19c.055-.492.205-.865.628-1.037a1.099 1.099 0 011.245.387c.38.496.716 1.024 1.132 1.49.552.614 1.176 1.165 1.744 1.766.568.6 1.108 1.203 1.63 1.83.234.282-.204 1.049-.615 1.151a1.355 1.355 0 01-1.393-.41c-.4-.41-.874-.764-1.292-1.168-.418-.403-.806-.82-1.188-1.229a16.614 16.614 0 01-1.27-1.5 8.382 8.382 0 01-.621-1.28zM99.266 72c.948.087 1.912.098 2.839.282 1.116.223 2.203.588 3.298.908.452.133.772 1.057.56 1.543-.184.424-.984.68-1.417.471a5.65 5.65 0 00-1.231-.529c-.81-.172-1.641-.254-2.461-.366-.759-.105-1.535-.14-2.27-.334-.295-.078-.58-.461-.721-.773-.166-.37.043-.742.391-.945.312-.158.634-.295.965-.41l.047.152zM8.09 67.953c.146.268.236.444.336.614.245.41-.297 1.152-.873 1.19-1.732.122-3.463.245-5.194.36-.316.022-.636 0-.954.018-.556.029-.755-.377-.962-.775-.12-.23.215-.946.492-1.037.15-.05.306-.082.464-.094 1.392-.094 2.787-.168 4.178-.28.458-.037.909-.236 1.364-.236.415 0 .829.168 1.149.24zm59.058 48.594l-4.761-6.994c.82-.309 1.114-.149 1.56.676.187.412.431.795.725 1.138.14.139.537.03.82.012.078 0 .144-.123.224-.141.531-.121 1.063-.232 1.596-.345.328-.069.582-.737.572-1.149a6.804 6.804 0 01.175-1.705c.026-.119.467-.144.718-.205l.114.133c-.067.187-.143.371-.205.562a1.55 1.55 0 00-.076.409c-.024 1.14-.012 2.281-.07 3.42a74.403 74.403 0 01-.305 3.658c-.012.121-.205.256-.349.32-.24.088-.487.158-.738.211zm.525-5.037a.851.851 0 00-.275-.033c-.685.205-1.368.41-2.051.636a.439.439 0 00.018.315c.242.41.498.82.767 1.23.372.543.755 1.077 1.143 1.608a.92.92 0 00.246.174c.06-.099.103-.208.127-.321.017-.601.017-1.201.019-1.802.002-.6.006-1.204.006-1.813v.006zM5.684 44.326c.954.09 1.908.164 2.86.275.507.057 1.01.15 1.505.276.205.053.499.217.53.373.103.411.103.841 0 1.252-.118.332-.526.471-.946.42-.991-.12-1.988-.205-2.98-.317-.458-.056-.91-.205-1.365-.205-.29 0-.58.205-.876.223-.82.037-1.243-.891-.954-1.582a.972.972 0 01.585-.432c.533-.164 1.087-.26 1.64-.383v.1zm18.876 62.558c.494-.595.966-1.152 1.436-1.72.359-.438.301-.637-.15-.963-.5-.356-.946-.795-1.455-1.137-.39-.26-.383-.516-.11-.928l2.502 2.049c.427-.529.862-1.08 1.307-1.623.146-.174.373-.303.455-.498.082-.195.078-.494-.03-.594-.532-.49-1.11-.932-1.676-1.383-.117-.093-.281-.13-.384-.232a.754.754 0 01-.236-.41c-.012-.125.088-.35.183-.377a.591.591 0 01.424.148c.948.754 1.886 1.524 2.83 2.283.204.168.254.301.063.53-.77.924-1.516 1.869-2.28 2.799-.313.382-.645.746-.968 1.117-.477.551-.986 1.082-1.421 1.664-.244.326-.384.236-.628.037-.84-.678-1.71-1.324-2.537-2.023-.169-.143-.193-.456-.283-.69l.192-.164c.242.112.475.244.696.393.691.564 1.37 1.14 2.07 1.722zm21.514 6.912v-.527c.82.119 1.641-.117 2.425.254.556.264.82.072.904-.537.084-.608.232-1.166.304-1.754.076-.633-.168-.897-.808-.979-.82-.105-1.654-.22-2.534-.336 0-.166-.014-.328-.026-.574 1.467.077 2.925.278 4.359.602-.047.615-.056 1.113-.132 1.605-.143.932-.328 1.86-.496 2.789-.02.108-.055.204-.068.323l-.396 3.17c-.44-.039-.882.146-1.3-.182-.119-.092-.332-.064-.505-.088-.71-.103-1.423-.205-2.131-.318a.355.355 0 01-.205-.283c.018-.114.172-.297.252-.291.462.043.915.152 1.375.205.502.058 1.007.088 1.511.117a.236.236 0 00.105-.04.23.23 0 00.076-.083 4.966 4.966 0 00.283-2.438c-.012-.101-.256-.22-.41-.246-.847-.137-1.699-.256-2.583-.389zm12.125 3.981c0-.863.104-1.761-.025-2.623-.205-1.406-.205-2.812-.24-4.221 0-.32-.205-.41-.47-.396-.712.021-1.426.047-2.137.072-.175 0-.35.02-.523.014-.478-.012-.513-.061-.427-.647h1.544c.81-.011 1.619-.017 2.427-.043.326 0 .433.108.437.44.017 1.267.045 2.533.103 3.797.045 1.006.156 2.01.205 3.017.033.729-.041.77-.895.59zm-24.517-13.543l.74.41c-1.355 2.34-2.711 4.682-4.084 7.047l-.701-.545 4.045-6.912z" fill="#fff"/><path d="M31.459 43.027c0-.887-.041-1.776.012-2.663.054-.99.16-1.977.318-2.955.12-.79.319-1.566.59-2.318.29-.764.762-1.459 1.086-2.213a9.135 9.135 0 011.304-2.078 11.714 11.714 0 012.532-2.367 28.932 28.932 0 012.359-1.475 16.857 16.857 0 011.64-.68c.686-.285 1.355-.615 2.052-.86.453-.138.914-.248 1.38-.33l2.309-.534c.06-.017.122-.03.184-.04 1.219-.13 2.45-.187 3.654-.41a18.981 18.981 0 014.182-.226 32.72 32.72 0 013.323.308c1.026.15 2.052.389 3.077.627.687.154 1.364.353 2.025.594.638.238 1.23.574 1.86.854.712.32 1.453.584 2.136.953.633.352 1.237.754 1.807 1.201a30.459 30.459 0 012.156 1.789 6.932 6.932 0 011.742 2.54c.328.82.742 1.605 1.085 2.42.17.41.258.855.394 1.28.17.536.35 1.067.525 1.602a.68.68 0 01.035.184c.102 1.779.248 3.556.287 5.328.016.803-.195 1.61-.265 2.42-.053.473-.047.95.019 1.422.114.502.272.994.47 1.47.129.36.322.698.43 1.063.206.666.41.713 1.053.516.515-.155 1.1-.067 1.64-.133.811-.098 1.506.28 2.08.693.553.412.935 1.01 1.076 1.684.137.615.311 1.203.221 1.807-.131.871-.355 1.73-.55 2.59-.108.478-.227.955-.365 1.425-.162.547-.346 1.088-.52 1.639a.973.973 0 00-.036.137c-.1.728-.283 1.457-.283 2.185a3.361 3.361 0 01-1.036 2.432c-.063.067-.151.127-.178.205a6.94 6.94 0 00-.287 3.153c.06.49.15.976.269 1.455.145.558.35 1.099.518 1.652.115.379.228.76.312 1.147.134.615.156 1.265.382 1.845.494 1.248.3 2.524.248 3.784-.027.674-.33 1.338-.51 2.007-.021.075-.052.147-.066.225-.115.615-.158 1.23-.357 1.817-.49 1.435-.259 2.89-.18 4.322.034.635.252 1.301.163 1.945a10.622 10.622 0 01-.59 2.485c-.41 1.006-1.674 1.582-2.704 1.293a3.197 3.197 0 01-1.453-.959c-.473-.514-.73-1.127-.974-1.78-.546-1.476-.267-2.968-.22-4.451.017-.474.317-.932.456-1.408.158-.535.226-1.1.433-1.612.305-.755.269-1.527.279-2.304.014-1.23-.335-2.422-.515-3.63-.144-.945-.26-1.948.125-2.898a.885.885 0 00.068-.37c-.054-1.12.486-2.104.714-3.159.152-.593.34-1.177.562-1.748.256-.74.535-1.469.785-2.21a.592.592 0 00-.02-.445c-.238-.382-.52-.734-.78-1.1-.193-.273-.46-.294-.673-.046-.428.498-.802 1.066-1.302 1.477-.38.312-.712.71-1.253.855-.821.215-1.026.662-1.118 1.508-.11.96-.337 1.906-.515 2.859 0 .03-.019.061-.025.092-.127.766-.232 1.537-.386 2.297-.143.717-.34 1.422-.512 2.131-.019.078-.031.156-.046.234-.094.502-.205 1.004-.28 1.508-.132.82-.206 1.64-.39 2.448a7.215 7.215 0 01-.659 1.81c-.71 1.313-1.815 2.311-2.82 3.393a36.124 36.124 0 00-2.511 3.1c-.316.429-.462.984-.69 1.48-.276.615-.566 1.207-.832 1.818-.238.54-.423 1.11-.692 1.639-.287.561-.636 1.092-.976 1.627a9.225 9.225 0 01-2.051 2.254c-.39.31-.856.41-1.325.547-1.25.391-2.513.266-3.765.217-.796-.028-1.585-.317-2.371-.51-.306-.076-.59-.221-.892-.316-1.471-.459-2.521-1.497-3.488-2.614-.58-.67-1.042-1.434-1.554-2.172-.48-.68-.981-1.35-1.437-2.05-.455-.698-.82-1.41-1.247-2.096-.584-.926-1.245-1.807-1.792-2.754-.489-.844-.879-1.748-1.297-2.63-.291-.616-.58-1.23-.82-1.855-.158-.398-.24-.82-.368-1.23-.17-.547-.35-1.09-.529-1.639a1.026 1.026 0 01-.055-.131c-.117-.615-.206-1.25-.353-1.867-.148-.617-.35-1.26-.53-1.89a.74.74 0 01-.02-.091c-.12-.742-.224-1.488-.367-2.226-.164-.846-.37-1.686-.552-2.53-.02-.11-.03-.22-.029-.33a17.048 17.048 0 00-.547-3.818c-.1-.422-.037-.881-.045-1.326-.013-.526-.616-1.34-1.106-1.457-.205-.047-.42-.073-.517.246a1.742 1.742 0 01-.89.986c-.386.215-.665.484-.63.996.045.645-.037 1.307.06 1.945.096.637.352 1.307.53 1.96.124.46.22.927.354 1.384.133.457.301.926.457 1.387.035.07.065.143.092.217.138.605.222 1.23.41 1.816.856 2.59.54 5.256.507 7.897 0 .752-.32 1.502-.494 2.254 0 .03-.014.061-.019.092-.129.886-.17 1.795-.41 2.648-.178.629-.117 1.315-.5 1.901-.177.269-.218.625-.337.937-.359.94-.695 1.137-1.622 1.051-1.098-.098-1.553-.9-1.994-1.713-.538-.996-.68-2.08-.675-3.205 0-.486-.304-1.008-.205-1.453.287-1.244.182-2.502.285-3.75.082-1.024.205-2.034.312-3.05.08-.82.242-1.63.192-2.433-.045-.73-.338-1.434-.502-2.164a12 12 0 01-.32-1.666 9.981 9.981 0 01.012-2.05c.076-.602.312-1.185.488-1.774.12-.385.247-.768.39-1.145.172-.453.41-.885.535-1.346a1.666 1.666 0 00-.096-1.359c-.328-.588-.52-1.252-.771-1.883a91.722 91.722 0 01-.517-1.314 7.47 7.47 0 00-.332-.885c-.384-.707-.872-1.364-1.184-2.098-.312-.734-.706-1.377-.738-2.213-.046-1.182.114-2.301.734-3.3.205-.335.66-.532 1.025-.766.616-.41 1.34-.32 2.035-.313.796 0 .831-.014 1.145-.734.212-.397.398-.808.556-1.23a8.996 8.996 0 00.367-1.864c.06-.947.017-1.9.017-2.85l.002-.017zm39.196 24.545c-.67.487-1.202.914-1.772 1.28a5.264 5.264 0 00-1.811 2.004c-.308.576-.445 1.23-.708 1.845a8.273 8.273 0 01-.615 1l-.154-.041a3.616 3.616 0 01-.068-.615c.056-.68.267-1.336.615-1.922a12.86 12.86 0 011.186-1.887c.39-.478.933-.82 1.41-1.23a2.6 2.6 0 01.344-.278c.41-.246.845-.478 1.27-.716.68-.38 1.368-.758 2.051-1.147.277-.142.53-.327.749-.547a123.48 123.48 0 002.714-3.205 5.17 5.17 0 00.627-1.084c.23-.43.405-.887.522-1.36a9.502 9.502 0 00-.021-3.857c-.123-.535-.33-1.053-.468-1.586-.137-.533-.205-1.084-.357-1.615-.151-.53-.356-1.04-.527-1.563-.236-.73-.41-1.488-.71-2.185-.33-.742-.356-1.53-.49-2.295-.074-.41.179-.875.205-1.317.079-.92.102-1.843.07-2.765-.08-1.325.113-2.663-.297-3.977-.195-.615-.193-1.305-.41-1.918-.31-.902-.729-1.768-1.104-2.65-.37-.96-.885-1.859-1.529-2.663a15.916 15.916 0 00-3.04-2.638 16.05 16.05 0 00-1.34-.852 16.597 16.597 0 00-1.76-.906c-.662-.278-1.36-.473-2.05-.703-.821-.276-1.642-.584-2.476-.82-.515-.143-1.057-.124-1.596-.276a12.022 12.022 0 00-2.835-.338c-1.6-.055-3.205-.03-4.807-.027a8.051 8.051 0 00-1.277.095c-.907.15-1.802.354-2.708.498-.47.073-.934.116-1.407.237-.833.205-1.685.355-2.499.65-.935.338-1.9.615-2.81 1-.805.337-1.573.757-2.292 1.252-.792.597-1.55 1.24-2.268 1.924-1.19 1.064-1.964 2.42-2.65 3.832a6.029 6.029 0 00-.362.893c-.135.445-.232.9-.349 1.35-.178.7-.461 1.39-.517 2.099-.09 1.182-.034 2.375-.049 3.563 0 .384.22.427.443.242a3.71 3.71 0 00.835-.893c.267-.433.357-.986.659-1.383a5.429 5.429 0 012.461-1.927 18.41 18.41 0 011.194-.38c.616-.179 1.231-.427 1.846-.495.831-.088 1.678-.022 2.52-.038.551-.01 1.005.237 1.464.493.615.345 1.23.722 1.867 1.01a3.706 3.706 0 011.895 1.933 4.37 4.37 0 001.25 1.623c.16.141.34.18.367-.084a2.161 2.161 0 00-.06-.847c-.242-.766-.556-1.51-.796-2.276a16.16 16.16 0 00-.904-2.367c-.386-.78-1.001-1.27-1.711-1.684-.41-.24-.872-.41-1.284-.658-1.026-.615-1.963-1.391-3.233-1.455-.08 0-.205-.147-.205-.235 0-.089.09-.291.141-.291.503 0 1.026-.052 1.5.088.527.16 1.003.493 1.493.768.71.398 1.403.82 2.117 1.215 1.07.584 1.7 1.566 2.238 2.584.384.782.698 1.596.94 2.432.246.76.422 1.543.596 2.324.267 1.178.368 2.385.616 3.574.205 1.045.189 2.147.287 3.223.232 2.477 0 4.977.273 7.473.158 1.455.295 2.978-.205 4.443-.107.311-.22.41-.546.326-.01-.205-.03-.392-.03-.58 0-1.015.047-2.029.014-3.041-.08-2.414.127-4.828-.23-7.246-.205-1.453-.123-2.949-.326-4.422-.099-.72-.168-1.346-.673-1.918-.74-.836-.9-.92-1.76-.7-.41.106-.439.352-.377.665.026.13.18.24.188.363.019.279.09.7-.053.82-.316.243-.51-.16-.691-.361-.084-.096-.046-.303-.062-.46a.717.717 0 00-1.052-.59 2.555 2.555 0 01-.646.206c-.282.049-.442.15-.372.467.089.354.157.714.205 1.076.023.205.093.57-.264.53-.205-.022-.384-.284-.544-.465-.057-.067-.037-.215-.033-.323.045-1.2-.19-1.002-1.025-.992-1.481.016-1.488.014-1.49 1.477 0 .371-.043.69-.424.846-.616-.182-.42-.692-.429-1.1-.029-1.414.125-1.164-1.19-1.188-.55-.013-.82.205-.992.733-.206.615-.423.803-.954.662.135-.553.272-1.102.391-1.586-.268-.141-.47-.238-.658-.35-.308-.185-1.087-.078-1.286.22-.232.353-.41.735-.616 1.1-.506-.239-.533-.365-.34-.82a3.01 3.01 0 00.195-.82c.053-.434-.318-.375-.573-.46-.09-.03-.158-.132-.246-.204-.324.205-.636.41-.929.615-.258.188-.615.36-.712.614-.127.314-.039.716-.043 1.08 0 .318 0 .633-.012.951.001.11-.011.22-.037.326-.189.67-.378 1.34-.579 2.006-.106.35-.155.758-.37 1.025-.549.684-.63 1.524-.754 2.3-.256 1.595-.037 3.202.257 4.788a.437.437 0 00.022.092c.275.64.511 1.299.84 1.91.322.596.694 1.165 1.113 1.698.778.994 1.779 1.742 2.771 2.517 1.135.873 2.1 1.946 2.85 3.165.543.894.972 1.865 1.587 2.705.499.68.464 1.482.762 2.197.053.13-.158.365-.247.551a1.232 1.232 0 01-.41-.235 1.058 1.058 0 01-.142-.461c-.036-.232 0-.49-.084-.7a9.09 9.09 0 00-.496-.841c-.45-.82-.82-1.697-1.352-2.46-.572-.835-1.282-1.581-1.94-2.356a1.4 1.4 0 00-.355-.22 1.065 1.065 0 00-.097.386c.078.535.193 1.064.277 1.596a41.2 41.2 0 01.277 2.002c.094.982 0 1.97.345 2.94.234.66.244 1.403.353 2.107v.047c.18.648.381 1.29.537 1.943.246 1.039.462 2.084.691 3.127.018.06.04.12.066.176.158.41.33.82.474 1.246.144.426.246.842.38 1.26.08.268.182.529.303.781.365.727.745 1.447 1.126 2.164.382.717.714 1.41 1.133 2.078.51.82 1.103 1.58 1.64 2.385.538.805 1.026 1.64 1.533 2.47.26.427.486.876.759 1.296.33.53.688 1.043 1.075 1.533.43.566.918 1.086 1.456 1.551.724.576 1.516 1.076 2.462 1.287.675.152 1.331.455 2.008.502 1.266.08 2.536.089 3.803.029a2.282 2.282 0 001.231-.451c.775-.598 1.53-1.23 2.002-2.135.347-.658.794-1.26 1.14-1.918.257-.484.411-1.025.633-1.525.283-.656.58-1.307.886-1.953a7.77 7.77 0 01.7-1.36c.532-.728 1.134-1.408 1.726-2.088.593-.68 1.231-1.33 1.822-2.019a13.92 13.92 0 001.47-1.889c.333-.563.456-1.248.704-1.867a9.106 9.106 0 00.573-2.354c.09-.76.244-1.514.373-2.27 0-.031.03-.058.037-.089.166-.74.365-1.473.488-2.219.144-.89.222-1.789.33-2.682a.654.654 0 01.085-.217c.313-.6.17-1.222.114-1.953zm7.701-.172h-.022v-1.377c0-.205.118-.508-.273-.535-.318-.02-.566.065-.663.41-.12.41-.234.838-.357 1.254a27.03 27.03 0 01-.363 1.13c-.154.446-.342.88-.484 1.327-.164.518-.297 1.045-.435 1.57-.174.67-.472 1.337-.48 2.011-.016 1.392-.246 2.796.205 4.183.183.553.095 1.192.144 1.793.016.205.145.447.092.633-.275.95-.029 1.971-.455 2.908-.205.467-.228 1.024-.367 1.52-.154.557-.41 1.092-.51 1.658-.204 1.182.025 2.348.313 3.496.087.302.238.581.443.82.32.362.663.704 1.025 1.024.323.305 1.48.367 1.77.072a3.18 3.18 0 00.977-2.004 32.56 32.56 0 00-.04-3.32c-.017-.49-.24-1.014-.124-1.457.281-1.05-.014-2.156.453-3.188.24-.531.249-1.168.365-1.757.013-.059.054-.114.068-.176.177-.74.433-1.475.499-2.225.045-.543-.166-1.109-.255-1.664-.127-.785-.246-1.57-.367-2.354 0-.031-.014-.062-.022-.093l-.56-1.973c-.027-.09-.058-.18-.083-.272-.168-.652-.379-1.298-.486-1.96a9.259 9.259 0 01-.008-1.465v.01zm-47.521-2.77a3.107 3.107 0 010-.557.516.516 0 00-.43-.615c-.144-.029-.442.236-.516.428-.256.664-.443 1.355-.658 2.037-.019.058-.045.115-.064.172-.186.55-.39 1.095-.55 1.652-.094.33-.11.678-.172 1.025-.156.844.168 1.639.312 2.438.103.586.453 1.152.457 1.727 0 1.728.206 3.457-.205 5.189-.238 1.024-.172 2.092-.291 3.141-.226 1.955-.275 3.939.462 5.867a3.71 3.71 0 001.423 1.768.735.735 0 00.716-.086c.303-.385.534-.821.681-1.289.25-.838.42-1.7.593-2.56.141-.718.246-1.444.353-2.17.045-.31.033-.632.08-.944.16-1.039.353-2.072.498-3.112.205-1.488-.233-2.937-.303-4.408a.493.493 0 00-.02-.092l-.844-2.87-.597-2.028c-.205-.713-.476-1.414-.615-2.137-.158-.865-.212-1.746-.31-2.576zm1.026-2.237c.113-.076.205-.142.314-.205.437-.308.633-1.11.358-1.476-.317-.41-.63-.84-.968-1.24-.662-.78-.98-1.741-1.288-2.673-.267-.802-.287-1.683-.41-2.527a5.714 5.714 0 01-.107-.603 14.585 14.585 0 01-.035-1.403c.01-.312.123-.615.144-.928.043-.634-.542-1.168-1.139-.972-.783.259-1.708.302-2.004 1.384-.168.614-.562 1.186-.502 1.86.046.348.139.688.276 1.01.226.578.41 1.199.747 1.699a13.74 13.74 0 011.358 2.684c.37.888.676 1.8.913 2.732.137.551.527.764.923 1.002.121.072.349-.012.515-.064.039-.01.047-.188.033-.282-.068-.439-.148-.873-.228-1.343 1.307-.19.644.953 1.102 1.345h-.002zm47.26-8.523c-.381.146-.752.32-1.107.52-.353.228-.483 1.42-.24 1.876.422.793.205 1.639.157 2.459-.047.637-.324 1.27-.564 1.88-.316.808-.695 1.593-1.06 2.415l.582 1.31c.456-.353.298-1.181 1.106-1.22v1.52c.205-.012.41.031.544-.043a2.522 2.522 0 001.26-1.744c.188-.901.241-1.834.375-2.747.092-.63.223-1.253.338-1.877a.814.814 0 01.051-.134c.173-.53.345-1.061.521-1.592a2.21 2.21 0 01.148-.39c.285-.514.205-1.378-.205-1.716-.135-.113-.382-.107-.494-.23-.304-.332-.603-.217-.87-.119.047.41.117.783.12 1.15.033.644.017 1.29-.046 1.932-.12.844-.324 1.68-.525 2.512a7.23 7.23 0 01-.378.972l-.215-.08c.126-.35.23-.71.31-1.074.139-.87.237-1.75.356-2.625.015-.108.05-.205.066-.322.055-.38.176-.768.144-1.143-.04-.445-.212-.887-.374-1.49zM39.233 41.986h-.131c0-.139-.019-.278-.016-.41 0-.72-.013-.768-.745-.698-.733.07-1.453.112-2.121.338-.472.158-1.112.16-1.37.795l1.376.422.353.115c.529.17 1.052.358 1.59.502.41.11.847.17 1.275.242.137.01.274.01.41 0l-.204-.515a2.297 2.297 0 002.342 0l.144.461 4.806-.901.039-.19c-.295-.152-.585-.316-.886-.454-.435-.205-.878-.375-1.317-.565a2.3 2.3 0 01-.316-.162c-.378-.244-1.374-.14-1.586.104a3.075 3.075 0 00-.656-.467 1.21 1.21 0 00-.704 0 1.143 1.143 0 00-.593.387c-.067.095.048.388.163.521.204.193.429.363.67.506-.051.07-.115.252-.238.31a.962.962 0 01-1.284-.722 2.867 2.867 0 00-.051-.422.455.455 0 00-.615-.338.616.616 0 00-.302.41c-.032.239-.04.48-.025.721l-.008.01zm7.418-1.2c-.655-.994-1.547-1.562-2.505-2.04a9.66 9.66 0 00-1.11-.469c-.486-.17-.978-.41-1.475-.43-.615-.022-1.23.135-1.846.244-.656.113-1.335.18-1.95.41-.786.297-1.58.63-2.228 1.197a5.588 5.588 0 00-.616.735l.115.164c.568-.074 1.11 0 1.715-.227.736-.277 1.582-.312 2.386-.345a50.628 50.628 0 013.947 0c.642.023 1.28.195 1.92.302.043 0 .078.053.119.07.41.155.82.313 1.23.456.064.006.152-.04.306-.078l-.008.01zm31.941 10.106a9.115 9.115 0 00-1.372.358c-.271.113-.567.349-.462.755.105.405.23.79.306 1.192a.59.59 0 00.913.424c.403-.218.83-.388 1.273-.506.294-.038.592-.019.879.058.301.049.592.172.894.204.301.033.386-.174.31-.426a2.757 2.757 0 00-.31-.76c-.579-.832-1.47-1.11-2.431-1.3z" fill="#fff"/><path d="M49.087 64.21c.013-.218.023-.41.031-.586.498.03.968-.015 1.39.108.433.148.838.366 1.199.645 1.185.847 1.407.642 2.49-.151.281-.205.509-.492.804-.67a.675.675 0 01.6-.025c.12.074.172.375.13.547-.024.109-.262.205-.42.242-.507.138-.82.486-1.116.89-.357.479-.281 1.008-.281 1.532 0 2.803-.01 5.607.035 8.402.014.965.178 1.928.29 2.891.012.1.13.268.204.266.421.01.842-.034 1.252-.13.38-.12.703-.206 1.052.038a.49.49 0 00.265.084c.82-.014 1.435.463 2.102.82.667.356 1.313.68 1.963 1.024a1.9 1.9 0 01.314.304c.462.424.925.844 1.483 1.35-.326.168-.58.303-.839.43-.47.23-.947.445-1.409.687-.788.41-1.356 1.076-1.91 1.742-.21.292-.385.607-.523.94-.517 1.064-.88 2.269-1.92 2.936-.585.38-1.257.75-2.051.695-.68-.047-1.364 0-2.052-.012-.718 0-1.362-.277-2.028-.51a5.048 5.048 0 01-2.085-1.308 11.817 11.817 0 01-1.046-1.457c-.3-.434-.578-.883-.878-1.317-.3-.435-.605-.82-.882-1.242-.314-.481-.898-.51-1.302-.82-.144-.112-.349-.254-.363-.397-.023-.246 0-.599.151-.744.541-.487 1.11-.942 1.703-1.363.41-.299.845-.555 1.272-.82.385-.245.796-.454 1.153-.733a2.668 2.668 0 012.49-.258c.222.107.517.061.82.09.023-.301.056-.533.056-.766.01-3.992.016-7.984.02-11.975 0-.736-.19-.91-.941-1.025a9.831 9.831 0 01-1.223-.354zM47.15 81.82c-.525.127-1.059.233-1.578.39-.242.07-.273.227-.037.409.232.161.439.354.616.574.474.639.933 1.29 1.368 1.959.312.477.558.995.861 1.48a2.49 2.49 0 001.18.95c.558.242 1.077.586 1.641.779.497.168 1.044.19 1.57.268.14.02.285.02.426 0 .463-.05.923-.13 1.377-.236a4.742 4.742 0 001.27-.5c.82-.514 1.043-1.444 1.464-2.237.245-.518.52-1.023.82-1.51a6.562 6.562 0 012.03-1.822c.087-.053.14-.17.204-.256a.909.909 0 00-.277-.142 5.995 5.995 0 00-3.247.388 5.68 5.68 0 01-2.461.55c-.35-.014-.7-.016-1.049 0a12.15 12.15 0 01-3.446-.34 1.416 1.416 0 01-.182-.049c-.813-.282-1.621-.637-2.55-.655zm-1.8-.615l.08.15c.152.014.305.014.456 0 .363-.072.724-.252 1.081-.234.667.034 1.33.126 1.98.275.572.129 1.11.422 1.684.526.85.17 1.714.264 2.58.283.847-.027 1.69-.116 2.524-.266a8.119 8.119 0 001.105-.306c.043-.014.078-.053.121-.067.486-.162.962-.41 1.46-.466.64-.081 1.297-.014 1.947-.024.102-.02.2-.058.29-.11-.033-.079-.047-.191-.105-.224a37.984 37.984 0 00-1.627-.898 28.111 28.111 0 00-1.71-.784 2.411 2.411 0 00-2.013 0c-.529.237-1.025.58-1.583.71a2.992 2.992 0 01-2.14-.372 4.53 4.53 0 00-1.536-.502c-.554-.072-1.127-.127-1.67.256-.669.475-1.436.82-2.123 1.264a5.53 5.53 0 00-.8.797v-.008zm6.787-15.662c-.015.154-.037.28-.04.41-.008 4.082-.017 8.164-.028 12.246 0 .41.107.674.543.86.54.23 1.049.035 1.026-.55-.018-.429-.205-.847-.232-1.275-.12-1.619-.262-3.238-.301-4.859-.05-2.008 0-4.018 0-6.026-.004-.724-.172-.867-.968-.797v-.009zm7.228-19.502c-.584-.41-.593-.473-.283-.957.131-.205.34-.445.312-.637a.789.789 0 00-.484-.514c-.472-.127-.966-.14-1.336.311a2.683 2.683 0 01-.365.287c-.258.217-.496.41-.546.82-.141 1.11-.393 2.209-.506 3.321-.109 1.07 0 2.164-.156 3.226-.41 2.8-.172 5.612-.281 8.417 0 .205-.205.41-.324.642a.99.99 0 01-.497-.933c.03-1.313-.135-2.653.066-3.938.32-2.027.012-4.072.301-6.067.146-1.025.148-2.027.296-3.033.1-.683.158-1.375.291-2.05.133-.673.353-1.372.525-2.059.123-.487.193-.994.36-1.465.18-.487.4-.958.658-1.41.369-.678.748-1.354 1.17-2.002a13.53 13.53 0 012.79-3.102 3.01 3.01 0 012.444-.68c.32.06.519.366.462.82a6.206 6.206 0 01-.82 0c-1.045-.144-1.78.442-2.397 1.116a22.84 22.84 0 00-2.121 2.715c-.568.846-1.122 1.72-1.393 2.732-.117.436-.344.842-.49 1.272-.018.15-.01.302.027.449l.182.037.41-.986a3.826 3.826 0 011.026-1.449 8.696 8.696 0 012.12-1.28c.82-.37 1.673-.484 2.535-.666a8.426 8.426 0 012.14-.17c.698.015 1.392.11 2.069.282.83.219 1.631.539 2.383.953.515.34.948.788 1.268 1.314a16.398 16.398 0 002.404 2.838c.234.223.569.43.388.981l-1.026-.46c-.326-.15-1.39.133-1.587.43a.231.231 0 00-.047.172c.11.322.233.64.352.959.099.27.206.543.298.82-.542.17-.78.018-.913-.433a8.27 8.27 0 00-.41-1.094c-.041-.092-.234-.158-.36-.162-.459-.012-.918.014-1.378.012-.275 0-.36.152-.363.387 0 .429.013.857-.014 1.283 0 .133-.111.353-.205.367a.458.458 0 01-.4-.182 2.918 2.918 0 01-.25-.968c-.033-.87-.01-.872-.897-.872h-.57c-.49.032-.698.252-.71.741v.476c0 .48 0 .48-.41.737-.46-.258-.552-.584-.35-1.229.155-.49-.022-.72-.53-.773a4.919 4.919 0 01-.979-.233c-.44-.15-.695.035-.78.51-.089.475-.222.94-.397 1.391-.025.072-.335.076-.497.041-.09-.02-.145-.188-.17-.22.072-.28.131-.495.18-.712.018-.157.046-.312.085-.465.104-.273.344-.547.07-.82-.34-.34-1.273-.557-1.543-.332-.19.207-.34.446-.445.705-.128.246-.242.502-.382.79zm7.237-1.64c.177.163.306.386.458.4 1.239.117 2.489.014 3.692-.303.18-.06.345-.158.484-.287a.316.316 0 00.051-.262 4.408 4.408 0 00-.689-.36c-.334-.134-.693-.206-1.025-.361-.57-.257-1.141-.793-1.678-.754-.538.039-.71-.205-1.065-.343-.41-.166-.938-.073-1.411-.082-.066 0-.187.064-.187.103a4.13 4.13 0 00.026 1.024c.019.088.372.105.573.152.09.023.182.041.275.061l.03.144c-.264.109-.553.34-.785.293a1.247 1.247 0 01-.691-.566 7.856 7.856 0 01-.48-1.243l-.671.157A2.39 2.39 0 0063 42.06c-.759-.013-1.518-.054-2.24.284-.363.173-.77.25-1.139.41-.112.052-.176.242-.225.384-.014.036.094.153.166.18a40.94 40.94 0 003.717 1.176c.135.035.41-.016.447-.109.156-.305.39-.174.517-.08.79.611 1.586.39 2.36.1v-.003zm4.681-1.39c-.154-.376-.19-.654-.35-.82-.593-.615-1.075-1.318-1.892-1.762-.816-.445-1.715-.638-2.589-.777-.956-.154-1.956-.041-2.94-.035-.19-.007-.38.019-.561.076-.73.262-1.436.596-2.179.82-.785.23-1.337.74-1.864 1.303-.035.039.045.272.082.276.154.012.309-.007.455-.057.474-.16.933-.354 1.41-.502a4.11 4.11 0 011.09-.238c1.455-.028 2.911-.063 4.362 0 .545.025 1.073.332 1.616.49.45.131.909.228 1.364.342a.755.755 0 01.123.062c.366.18.729.369 1.098.539.213.096.435.162.775.287v-.005z" fill="#fff"/><path d="M74.928 55.853c0 .553.082 1.123-.025 1.656a4.596 4.596 0 01-.63 1.508c-.506.82-.966 1.672-1.751 2.277-.786.604-1.606 1.186-2.591 1.547-.985.36-1.973.254-2.94.18-.615-.047-1.183-.504-1.784-.752-.82-.338-1.364-.986-1.88-1.64a7.808 7.808 0 01-.82-1.434c-.164-.342-.225-.733-.375-1.086-.437-1.043-.343-2.155-.15-3.176a4.792 4.792 0 011.885-3.04 12.817 12.817 0 012.328-1.339c.883-.395 1.748-.674 2.698-.51.685.139 1.362.314 2.029.525.41.083.808.225 1.18.42a6.962 6.962 0 011.546 1.23 7.872 7.872 0 011.23 1.938c.185.42.077.969.1 1.459v.237h-.05zm-.45-.102c-.116-.447-.256-.89-.348-1.34-.215-1.037-.978-1.675-1.723-2.293-.382-.32-.89-.5-1.362-.693a12.239 12.239 0 00-1.539-.514 11.742 11.742 0 00-1.284-.218.636.636 0 00-.268.035c-.517.162-1.026.33-1.55.496a.648.648 0 00-.174.07c-.722.473-1.46.928-2.162 1.434-.625.45-1.14 1.1-1.23 1.816-.093.666-.41 1.332-.132 2.084.205.6-.037 1.322.337 1.942.217.363.272.838.53 1.158.604.746 1.203 1.477 2.097 1.967a6.03 6.03 0 002.074.693 4.583 4.583 0 002.072-.279 6.391 6.391 0 002.462-1.582 7.561 7.561 0 001.282-1.844c.489-.91.8-1.906.919-2.932zm-36.949-7.787c.997.081 2.03.03 2.98.284.985.265 1.982.605 2.834 1.252a4.158 4.158 0 011.499 1.886c.314.84.595 1.682.482 2.573-.072.568-.314 1.117-.482 1.672a8.337 8.337 0 01-.365 1.123 5.467 5.467 0 01-.687 1.109 14.23 14.23 0 01-1.508 1.653c-.46.41-.985.77-1.641.84-.254.027-.513.265-.74.226a15.324 15.324 0 01-2.136-.502 11.16 11.16 0 01-1.57-.674c-.86-.428-1.484-1.105-2.03-1.896-.909-1.32-1.026-2.788-.85-4.29a9.83 9.83 0 01.593-2.46c.339-.864.809-1.7 1.602-2.253a2.874 2.874 0 012.019-.543zm.457.696l-.014.088c-.316 0-.636-.024-.95 0-.732.07-1.353.36-1.725 1.025-.255.436-.48.89-.673 1.358-.2.542-.366 1.096-.496 1.658-.103.437-.179.88-.228 1.326-.033.264-.092.572 0 .797.281.652.26 1.418.792 1.977.503.53.921 1.148 1.467 1.623.415.314.88.554 1.376.711.576.223 1.168.402 1.77.535.87.187 1.642-.114 2.3-.664a7.413 7.413 0 001.342-1.34c.42-.588.707-1.272 1.04-1.922.3-.586.547-1.2.53-1.869-.016-.737.097-1.469-.26-2.205a4.163 4.163 0 00-1.417-1.74 7.414 7.414 0 00-2.121-.886c-.888-.246-1.82-.324-2.733-.472zm6.323-20.021c.349.094.648.205.958.252.41.07.845.1 1.27.143 1.14.115 2.283.22 3.421.347.353.04.714.247 1.044.204.51-.073.995-.299 1.49-.463.396-.133.796-.256 1.183-.41 1.112-.44 2.271-.41 3.42-.284.513.053.997.338 1.505.48.62.179 1.248.325 1.884.436.55.086.79.287.72.82-.437.016-.887.165-1.29-.175a.3.3 0 00-.132-.051c-.57-.125-1.147-.23-1.71-.377-.565-.148-1.154-.387-1.742-.517a3.309 3.309 0 00-1.129-.024 6.68 6.68 0 00-1.025.322c-.616.192-1.268.297-1.826.588-.882.457-1.787.25-2.667.231a14.229 14.229 0 01-3.111-.33 11.662 11.662 0 00-1.746-.26c-.42-.033-.611-.336-.517-.932zm1.976 3.362a1.107 1.107 0 01.995-.57c.999-.073 1.891.345 2.835.515.89.162 1.785.571 2.73.205.2-.053.409-.073.616-.058a5.828 5.828 0 002.377-.584.767.767 0 01.324-.037c.57 0 1.143-.043 1.71 0 .474.07.945.167 1.408.293l.04.257c-.187.104-.372.299-.559.299a8.38 8.38 0 01-1.204-.166c-.061 0-.127-.058-.182-.047-.64.116-1.28.237-1.918.364-.074.015-.136.084-.206.1-1.435.3-2.871.521-4.334.337-.556-.07-1.085-.33-1.629-.498a1.48 1.48 0 00-.41-.08c-.615 0-1.23-.205-1.858-.07-.212.04-.464-.157-.735-.26zm13.326 34.082c.19.08.366.19.52.328.216.238.372.525.455.836.143.91.29 1.828.433 2.736.235 1.508.127 3.012.258 4.508.051.565.312 1.114.482 1.67.127.41.26.82.396 1.23.039.116.123.218.15.337.056.233.09.47.102.71 0 .038-.252.15-.307.112a1.203 1.203 0 01-.466-.457c-.32-.791-.615-1.58-.698-2.459-.067-.791-.342-1.561-.484-2.35a7.657 7.657 0 01-.065-1.23c0-.602.043-1.209-.013-1.805a20.93 20.93 0 00-.365-2.42c-.09-.41-.34-.8-.498-1.205a1.433 1.433 0 01-.031-.41l.131-.131zM44.133 77.995c-.55-.354-.566-.529-.371-.957.195-.428.322-.922.478-1.383.1-.3.205-.596.301-.898.111-.362.144-.764.32-1.09.376-.686.292-1.414.273-2.127-.023-.848-.205-1.694-.19-2.543 0-.57.204-1.137.32-1.704.032-.154.112-.296.145-.45.09-.434.086-.436.695-.307-.1.42-.205.838-.297 1.263-.052.231-.08.467-.084.704 0 1.64.037 3.298-.041 4.941-.031.625-.337 1.24-.525 1.856-.121.398-.236.798-.386 1.185-.189.496-.41.98-.638 1.51zM57.13 92.49c-.292.488-.41.505-.864.175a3.949 3.949 0 00-1.764-.748c-.53-.082-1.077-.326-1.594-.195-.923.232-1.943.244-2.667 1.025-.121.127-.4.123-.615.137-.072 0-.216-.12-.216-.186a.53.53 0 01.134-.359 4.778 4.778 0 011.717-.959 6.323 6.323 0 013.076-.227c.9.097 1.761.416 2.507.928.117.12.213.259.285.41zM39.637 73.788h.531c.121.633.221 1.27.371 1.895s.337 1.191.507 1.785c.02.06.038.12.051.183.123.63.236 1.264.374 1.893.059.27.192.527.256.797.078.334-.117.52-.505.687-.117-.41-.227-.779-.336-1.156-.187-.637-.373-1.273-.558-1.91a.802.802 0 01-.039-.086c-.113-.602-.217-1.205-.334-1.807-.099-.508-.226-1.013-.31-1.523a4.637 4.637 0 01-.008-.758z" fill="#fff"/><path d="M33.583 47.104c-.055.437-.094.873-.17 1.305a6.936 6.936 0 01-.205.705c-.18.63-.357 1.26-.535 1.892-.02.075-.035.153-.05.231-.114.637-.141 1.307-.367 1.902a3.889 3.889 0 00-.176 2.049c.102.635.115 1.31.484 1.901.254.41.342.919.599 1.322.43.674.944 1.295 1.41 1.947a.773.773 0 01.124.459 6.75 6.75 0 01-1.77-2.13c-.291-.505-.638-1.003-.82-1.55-.206-.627-.245-1.306-.347-1.964-.18-1.147.234-2.24.348-3.358.074-.72.35-1.42.548-2.125.246-.869.507-1.731.761-2.598l.166.012zm21.291-5.594c-.02.745 0 1.492-.07 2.232-.086 1.05-.106 2.125-.373 3.133-.365 1.38-.135 2.758-.25 4.133-.098 1.185-.135 2.375-.205 3.564-.023.159-.06.316-.109.47h-.141a4.056 4.056 0 01-.058-.472c0-.949-.156-1.94.058-2.84.381-1.603.11-3.213.312-4.807.104-.839.174-1.683.27-2.525.097-.842.205-1.744.324-2.613.015-.094.169-.17.257-.256l-.015-.018zm-6.138 20.57c-.37.185-.724.402-1.056.649-.544.475-.616 1.08-.148 1.467.264.222.654.301.997.41.182.036.368.053.554.051a1.657 1.657 0 01-.15.553c-.154.205-.36.205-.616.06a7.703 7.703 0 00-1.025-.363c-.532-.194-.82-.836-.745-1.4.076-.563.14-1.122.691-1.456.247-.15.487-.373.751-.41.265-.037.505.133.76.205-.003.084-.007.16-.013.233zm7.771 2.942c.219-.215.311-.313.41-.41.41-.373.853-.721.726-1.397-.084-.453-.642-1.025-1.1-1.082a.663.663 0 01-.42-.183c-.047-.061.037-.317.131-.38.175-.12.468-.28.593-.206.396.24.767.519 1.11.83.104.12.182.259.23.41.073.164.129.336.205.504.016.043.07.086.063.12-.098.433-.104.934-.334 1.282-.23.348-.667.528-1.042.733-.093.054-.294-.104-.572-.22zM67.304 75.77c0 .382.133.743-.154 1.142-.222.307-.297.734-.398 1.117-.154.59-.462 1.145-.392 1.797a.644.644 0 01-.293.494c-.092.057-.46-.103-.458-.156.023-.412.07-.823.14-1.23 0-.059.072-.114.07-.17 0-.852.496-1.553.715-2.34.078-.286.38-.512.581-.764l.189.11zm8.398-17.28c.16.09.359.136.388.235a.672.672 0 01-.107.432c-.21.443-.444.876-.698 1.295-.276.46-.593.893-.947 1.295-.92.992-1.875 1.951-2.872 2.986-.31-.615.109-.801.326-1.025.786-.82 1.612-1.6 2.396-2.424a6.946 6.946 0 001.514-2.795zm-23.812.929c-.016-.175-.045-.347-.047-.52 0-1.64.11-3.304-.061-4.931-.107-1.006-.205-2.006-.216-3.014v-1.679h.17c.031.73 0 1.47.103 2.19.335 2.476.238 4.964.26 7.447-.006.17-.023.339-.048.507h-.16zm18.512-23.991a11.169 11.169 0 01-.835-.843c-.771-.94-1.52-1.897-2.275-2.85-.363-.457-.72-.92-1.081-1.379l.096-.158c.146.053.345.064.43.168a158.2 158.2 0 012.118 2.701c.453.588.903 1.18 1.33 1.787.094.185.163.382.204.586l.013-.012zM47.256 57.284v-5.892c0-1.045.017-2.092.03-3.137 0-.176-.038-.41.286-.348l-.012-.012c-.015 2.942-.023 5.885-.045 8.83 0 .204.127.511-.265.544l.006.015zm12.204 3.619c-.085-.025-.216-.025-.247-.082a8.375 8.375 0 01-1.07-3.1c-.163-1.164-.111-2.308-.173-3.46a2.367 2.367 0 01.018-.378c0-.037.048-.072.142-.205.036.17.062.341.078.514 0 .365-.029.732 0 1.092.06 1.105.176 2.205.349 3.297.119.625.52 1.195.777 1.797a2.6 2.6 0 01.11.543l.015-.018zM35.652 35.585c.659-1.666 1.375-3.295 2.952-4.42.103.22.148.359-.102.572-.455.373-.86.802-1.209 1.276-.316.45-.492.994-.744 1.49-.205.41-.44.81-.66 1.213l-.237-.131zm15.485 5.017c.287-.06.285.148.33.338.193.84.398 1.678.597 2.517a.833.833 0 01.025.188c0 1.138-.006 2.276-.017 3.414a.497.497 0 01-.057.162h-.15c-.02-1.113.037-2.236-.082-3.34-.12-1.105-.41-2.19-.636-3.279h-.01zm11.777 23.182c.72.39 1.47.732 2.152 1.182.8.527 1.694.154 2.525.365-.275.324-1.74.205-2.613-.065a3.649 3.649 0 01-2.064-1.482zM58.432 47.96v4.673h-.194c-.07-1.555 0-3.113.01-4.668l.184-.004z" fill="#fff"/><path d="M70.387 35.438c.186.15.435.264.543.457.271.48.423 1.025.728 1.486a1.29 1.29 0 01.187 1.067c-.195-.178-.439-.297-.445-.424-.03-.68-.41-1.211-.675-1.793-.12-.262-.217-.537-.324-.805l-.014.012zm-14.677-.481c.204 1.467-.1 2.892-.477 4.318 0-.547-.03-1.099.013-1.64.026-.358.205-.702.235-1.061.044-.537.013-1.08.013-1.62l.215.003zm-1.561 24.2v2.335h-.13v-2.34l.13.005zm.743-17.635c0-.672.014-1.346.02-2.018h.205c.013.22.033.438.033.658.01.33-.001.66-.033.987-.016.13-.16.242-.246.361l.02.012zm-4.298-3.716c-.045-.014-.123-.02-.129-.045a13.66 13.66 0 01-.41-1.965c.326.64.677 1.272.531 2.024l.008-.014zM43 62.828c0-.047-.018-.107 0-.14.206-.313 1.026-.565 1.463-.336l-1.479.462.017.014zm-2.113.268l-1.524-.068v-.23c.478.032.956.058 1.436.103.031 0 .05.135.074.205l.014-.01zm9.978-24.038c.093.095.259.183.267.281.027.41 0 .84 0 1.262v-.01c-.084-.34-.176-.678-.244-1.025a3.405 3.405 0 01-.023-.522v.014zm8.58 21.859a.653.653 0 01.339.967l-.326-.98-.013.013z" fill="#fff"/><path d="M50.578 37.82c.092.086.255.164.265.26.024.326.03.652.02.978l.013-.013c-.087-.1-.228-.192-.244-.303-.042-.31-.031-.615-.042-.936l-.012.014zm-9.707 25.289h1.16l-.013-.012c-.093.088-.205.26-.28.25-.292-.041-.688.219-.855-.25l-.012.012zm6.377-5.839l-.055 1.216c-.304-.463-.224-.976.067-1.201l-.012-.014zm-5.208 5.835c.137-.108.288-.198.449-.268.17-.027.342-.03.513-.012l-.013-.013c-.1.085-.19.218-.305.242a3.865 3.865 0 01-.657.04l.013.011zm5.535-15.203v-.856l.205.018c0 .287.228.615-.218.82l.013.018zm-18.598 9.426c.082.026.215.028.238.082.225.502.41 1.024.652 1.516.13.202.272.398.422.586a.762.762 0 01.1.53c-.787-.751-1.328-1.618-1.4-2.727l-.012.013z" fill="#fff"/><path d="M28.309 55.515c.094.029.256.04.27.088.146.568.271 1.142.41 1.716v-.013c-.077-.047-.204-.082-.225-.145-.16-.551-.3-1.107-.443-1.66l-.012.014zm-.257-.98a1.23 1.23 0 01-.26-.345 5.81 5.81 0 01-.14-.766c.19-.125.378-.19.38.225v.898l.02-.012z" fill="#fff"/><path d="M28.322 55.502c-.44-.223-.18-.645-.274-.967l-.013.013c.093.09.248.167.265.27.024.231.027.465.01.697l.012-.013z" fill="#fff"/></svg>