<svg width="18" height="20" fill="none" xmlns="http://www.w3.org/2000/svg"><path d="M17.892 1.47a.6.6 0 00-.6-.6h-5.4a.6.6 0 100 1.2h4.8v4.8a.6.6 0 101.2 0v-5.4zm-7.151 7.4l6.976-6.977-.849-.848L9.892 8.02l.849.849zm6.552 10.217a.6.6 0 00.6-.6v-5.4a.6.6 0 00-1.2 0v4.8h-4.8a.6.6 0 000 1.2h5.4zm-7.4-7.152l6.975 6.976.849-.848-6.976-6.976-.849.848zM.4 1.47a.6.6 0 01.6-.6h5.4a.6.6 0 010 1.2H1.6v4.8a.6.6 0 01-1.2 0v-5.4zm7.152 7.4L.576 1.893l.849-.848L8.4 8.02l-.849.849zM1 19.087a.6.6 0 01-.6-.6v-5.4a.6.6 0 011.2 0v4.8h4.8a.6.6 0 010 1.2H1zm7.4-7.152l-6.975 6.976-.849-.848 6.976-6.976.849.848z" fill="#000"/></svg>