<svg width="195" height="26" fill="none" xmlns="http://www.w3.org/2000/svg"><g clip-path="url(#clip0_4384_11414)" fill="#fff"><path d="M.133 25.448L13.261 1.905h3.718L3.885 25.448H.133zm1.815-20.17V1.906h7.26L7.48 5.244l-5.533.035zm14.75 16.891v3.279h-8.73l1.722-3.344 7.008.065zm2.701 3.249l4.99-11.15h3.752l-4.99 11.15h-3.752zm6.415-14.363L30.468.5l4.689 10.555h-9.343zm7.141 3.183l3.538-.03 4.99 11.275-3.78-.03-4.748-11.215zM48.163 1.966c2.059.108 3.722.698 4.99 1.782 1.27 1.084 1.95 2.602 2.03 4.558a7.533 7.533 0 01-.559 3.573 6.973 6.973 0 01-1.924 2.35 6.345 6.345 0 01-2.45 1.219l6.987 9.974-4.235-.03-6.41-9.54c-.244 0-.483.03-.727.03l-3.36-.066-.03-3.122h4.675c.406-.019.81-.06 1.21-.126.407-.056.808-.15 1.198-.281.351-.13.685-.303.995-.517.323-.205.597-.482.803-.81.208-.372.35-.779.42-1.202.103-.54.124-1.092.063-1.639a2.645 2.645 0 00-.576-1.388 3.633 3.633 0 00-1.26-1.049c-.728-.312-2.1-.457-4.117-.434h-3.415V1.875c2.123 0 4.02.03 5.692.09zm11.464 23.452l4.99-11.15h3.752l-4.99 11.15h-3.752zm6.415-14.363L70.697.5l4.688 10.555h-9.343zm7.142 3.183l3.537-.03 4.99 11.275-3.78-.03-4.747-11.215zM101.397 2a6.038 6.038 0 012.542.703 5.4 5.4 0 011.785 1.496c.429.57.776 1.201 1.03 1.874.236.635.378 1.303.42 1.981a7.015 7.015 0 01-.135 1.674 5.3 5.3 0 01-.42 1.327 8.247 8.247 0 01-.563.937c-.138.21-.305.399-.496.56l-.214.186.42.173c.33.162.643.355.937.577a5.82 5.82 0 011.181 1.11c.41.552.732 1.169.953 1.826a8 8 0 01.467 2.602 5.538 5.538 0 01-.891 3.092 7.535 7.535 0 01-2.437 2.402 6.483 6.483 0 01-1.327.564 9.03 9.03 0 01-1.891.295c-.777.052-1.411.082-1.907.095-.496.013-1.34 0-2.541 0-1.202 0-2.063-.03-2.584-.03l.03-10.867-.03-2.559c1.291-.02 2.43-.03 3.415-.03h.82c.159 0 .42 0 .756-.035.258-.007.515-.037.769-.091.172-.043.399-.104.68-.187a1.68 1.68 0 00.634-.312c.143-.125.303-.286.488-.486.18-.194.313-.428.39-.685.089-.296.155-.6.198-.906a5.094 5.094 0 000-1.17c-.063-1.146-.454-1.94-1.181-2.373-.726-.434-1.894-.637-3.507-.594l-3.479-.03V1.9c2.1-.04 3.997-.007 5.688.1zM99.07 14.959c0 2.433 0 4.861.03 7.272 2.24.044 3.843-.154 4.809-.594a3.454 3.454 0 001.429-1.183 3.068 3.068 0 00.546-1.813c0-1.446-.576-2.457-1.727-3.036-.945-.503-2.571-.706-4.869-.624l-.218-.022zm12.611 10.459l5-11.15h3.751l-5.012 11.15h-3.739zm6.415-14.363L122.751.5l4.688 10.555h-9.343zm7.142 3.183l3.537-.03 4.991 11.275-3.781-.03-4.747-11.215zM142.05 1.966v4.562l-3.571-4.562h3.571zm-3.39 23.482l-.135-17.017 3.571 4.588.03 12.429h-3.466zm14.065-23.543l4.419.03-9.893 10.369 10.557 13.144h-4.781l-7.65-9.54V9.662l7.348-7.758zm22.596 0v3.309l-13.762.065V1.935l13.762-.03zm0 20.2v3.343l-13.691.03-.088-3.339 13.779-.035zm-.248-11.206v3.339l-13.489-.06v-3.249l13.489-.03zm9.986-8.933c2.059.108 3.722.698 4.991 1.782 1.269 1.084 1.945 2.602 2.029 4.557a7.465 7.465 0 01-.563 3.574 6.905 6.905 0 01-1.92 2.359 6.348 6.348 0 01-2.449 1.218l6.986 9.974-4.234-.03-6.423-9.506c-.244 0-.484.03-.727.03l-3.361-.064-.029-3.123h4.675c.406-.019.809-.06 1.21-.125.405-.056.805-.15 1.193-.282a4.462 4.462 0 001-.516c.322-.206.596-.483.802-.811.207-.373.349-.779.421-1.201.102-.54.124-1.093.063-1.64a2.67 2.67 0 00-.576-1.387 3.649 3.649 0 00-1.26-1.05c-.723-.312-2.101-.433-4.113-.433h-3.415V1.918c2.128-.03 4.028-.013 5.7.048z"/></g><defs><clipPath id="clip0_4384_11414"><path fill="#fff" transform="translate(.133 .5)" d="M0 0h194v25H0z"/></clipPath></defs></svg>