<svg width="148" height="147" fill="none" xmlns="http://www.w3.org/2000/svg"><g filter="url(#filter0_f_4909_14764)" fill="#15F2FD"><path d="M74.054 121.996a48.529 48.529 0 01-48.496-48.545c0-26.78 21.777-48.477 48.594-48.451 26.817.026 48.447 21.816 48.398 48.64-.042 26.673-21.785 48.356-48.496 48.356zm43.608-48.352a43.538 43.538 0 00-26.738-40.387 43.543 43.543 0 00-16.673-3.373c-24.154-.068-43.734 19.322-43.806 43.37a43.573 43.573 0 0043.506 43.859 43.55 43.55 0 0043.711-43.465v-.004z"/><path d="M59.524 73.428c0-5.554.019-11.109 0-16.67 0-1.603.23-3.032 1.834-3.839 1.602-.806 2.887-.227 4.224.671 8.282 5.547 16.587 11.052 24.873 16.591 3.031 2.023 3.031 4.585.038 6.593-8.335 5.577-16.693 11.12-25.025 16.7-1.352.906-2.709 1.357-4.236.527-1.526-.83-1.716-2.197-1.708-3.728.015-5.607 0-11.226 0-16.845zm4.948-14.704v29.552L86.648 73.5 64.472 58.724z"/></g><g filter="url(#filter1_f_4909_14764)" fill="#15F2FD"><path d="M74.054 121.996a48.529 48.529 0 01-48.496-48.545c0-26.78 21.777-48.477 48.594-48.451 26.817.026 48.447 21.816 48.398 48.64-.042 26.673-21.785 48.356-48.496 48.356zm43.608-48.352a43.538 43.538 0 00-26.738-40.387 43.543 43.543 0 00-16.673-3.373c-24.154-.068-43.734 19.322-43.806 43.37a43.573 43.573 0 0043.506 43.859 43.55 43.55 0 0043.711-43.465v-.004z"/><path d="M59.524 73.428c0-5.554.019-11.109 0-16.67 0-1.603.23-3.032 1.834-3.839 1.602-.806 2.887-.227 4.224.671 8.282 5.547 16.587 11.052 24.873 16.591 3.031 2.023 3.031 4.585.038 6.593-8.335 5.577-16.693 11.12-25.025 16.7-1.352.906-2.709 1.357-4.236.527-1.526-.83-1.716-2.197-1.708-3.728.015-5.607 0-11.226 0-16.845zm4.948-14.704v29.552L86.648 73.5 64.472 58.724z"/></g><g filter="url(#filter2_f_4909_14764)" fill="#15F2FD"><path d="M74.054 121.996a48.529 48.529 0 01-48.496-48.545c0-26.78 21.777-48.477 48.594-48.451 26.817.026 48.447 21.816 48.398 48.64-.042 26.673-21.785 48.356-48.496 48.356zm43.608-48.352a43.538 43.538 0 00-26.738-40.387 43.543 43.543 0 00-16.673-3.373c-24.154-.068-43.734 19.322-43.806 43.37a43.573 43.573 0 0043.506 43.859 43.55 43.55 0 0043.711-43.465v-.004z"/><path d="M59.524 73.428c0-5.554.019-11.109 0-16.67 0-1.603.23-3.032 1.834-3.839 1.602-.806 2.887-.227 4.224.671 8.282 5.547 16.587 11.052 24.873 16.591 3.031 2.023 3.031 4.585.038 6.593-8.335 5.577-16.693 11.12-25.025 16.7-1.352.906-2.709 1.357-4.236.527-1.526-.83-1.716-2.197-1.708-3.728.015-5.607 0-11.226 0-16.845zm4.948-14.704v29.552L86.648 73.5 64.472 58.724z"/></g><path d="M74.054 121.996a48.529 48.529 0 01-48.496-48.545c0-26.78 21.777-48.477 48.594-48.451 26.817.026 48.447 21.816 48.398 48.64-.042 26.673-21.785 48.356-48.496 48.356zm43.608-48.352a43.538 43.538 0 00-26.738-40.387 43.543 43.543 0 00-16.673-3.373c-24.154-.068-43.734 19.322-43.806 43.37a43.573 43.573 0 0043.506 43.859 43.55 43.55 0 0043.711-43.465v-.004z" fill="#fff"/><path d="M59.524 73.428c0-5.554.019-11.109 0-16.67 0-1.603.23-3.032 1.834-3.839 1.602-.806 2.887-.227 4.224.671 8.282 5.547 16.587 11.052 24.873 16.591 3.031 2.023 3.031 4.585.038 6.593-8.335 5.577-16.693 11.12-25.025 16.7-1.352.906-2.709 1.357-4.236.527-1.526-.83-1.716-2.197-1.708-3.728.015-5.607 0-11.226 0-16.845zm4.948-14.704v29.552L86.648 73.5 64.472 58.724z" fill="#fff"/><defs><filter id="filter0_f_4909_14764" x=".557" y="0" width="146.993" height="146.996" filterUnits="userSpaceOnUse" color-interpolation-filters="sRGB"><feFlood flood-opacity="0" result="BackgroundImageFix"/><feBlend in="SourceGraphic" in2="BackgroundImageFix" result="shape"/><feGaussianBlur stdDeviation="12.5" result="effect1_foregroundBlur_4909_14764"/></filter><filter id="filter1_f_4909_14764" x="10.557" y="10" width="126.993" height="126.996" filterUnits="userSpaceOnUse" color-interpolation-filters="sRGB"><feFlood flood-opacity="0" result="BackgroundImageFix"/><feBlend in="SourceGraphic" in2="BackgroundImageFix" result="shape"/><feGaussianBlur stdDeviation="7.5" result="effect1_foregroundBlur_4909_14764"/></filter><filter id="filter2_f_4909_14764" x="15.557" y="15" width="116.993" height="116.996" filterUnits="userSpaceOnUse" color-interpolation-filters="sRGB"><feFlood flood-opacity="0" result="BackgroundImageFix"/><feBlend in="SourceGraphic" in2="BackgroundImageFix" result="shape"/><feGaussianBlur stdDeviation="5" result="effect1_foregroundBlur_4909_14764"/></filter></defs></svg>