<svg width="18" height="18" fill="none" xmlns="http://www.w3.org/2000/svg"><path d="M9 6.563a2.438 2.438 0 100 4.875 2.438 2.438 0 000-4.876z" fill="#fff"/><path fill-rule="evenodd" clip-rule="evenodd" d="M5.077 2.312a35.604 35.604 0 017.845 0 3.105 3.105 0 012.74 2.71 34.266 34.266 0 010 7.957 3.105 3.105 0 01-2.74 2.71c-2.586.29-5.26.29-7.845 0a3.105 3.105 0 01-2.74-2.71 34.253 34.253 0 010-7.958 3.105 3.105 0 012.74-2.71zM12.749 4.5a.75.75 0 100 1.5.75.75 0 000-1.5zM5.437 9a3.563 3.563 0 117.125 0 3.563 3.563 0 01-7.125 0z" fill="#fff"/></svg>