<svg width="18" height="18" fill="none" xmlns="http://www.w3.org/2000/svg"><path d="M3.563 1.406a1.594 1.594 0 100 3.188 1.594 1.594 0 000-3.188zm-1.5 4.5A.094.094 0 001.968 6v9.75c0 .052.042.094.093.094h3a.094.094 0 00.094-.094V6a.094.094 0 00-.093-.094h-3zm4.874 0A.094.094 0 006.845 6v9.75c0 .052.042.094.093.094h3a.094.094 0 00.094-.094V10.5a1.406 1.406 0 012.813 0v5.25c0 .052.042.094.094.094h3a.094.094 0 00.093-.094V9.285c0-1.82-1.583-3.244-3.394-3.08-.558.052-1.11.19-1.626.411l-.98.42V6a.094.094 0 00-.094-.094h-3z" fill="#fff"/></svg>