<svg width="24" height="24" fill="none" xmlns="http://www.w3.org/2000/svg"><g clip-path="url(#clip0_170_21208)" fill="#fff"><path d="M18.094 10.781a.937.937 0 100-1.875.937.937 0 000 1.875z"/><path d="M20.25 1.875h-1.219V.937a.937.937 0 10-1.875 0v.938h-4.265V.937a.937.937 0 10-1.875 0v.938h-4.22V.937a.937.937 0 10-1.874 0v.938H3.75A3.754 3.754 0 000 5.625V20.25A3.754 3.754 0 003.75 24h7.172a.937.937 0 100-1.875H3.75a1.877 1.877 0 01-1.875-1.875V5.625c0-1.034.841-1.875 1.875-1.875h1.172v.938a.937.937 0 101.875 0V3.75h4.219v.938a.937.937 0 101.875 0V3.75h4.265v.938a.938.938 0 001.875 0V3.75h1.219c1.034 0 1.875.841 1.875 1.875v5.344a.937.937 0 001.875 0V5.625a3.754 3.754 0 00-3.75-3.75z"/><path d="M18.328 12.656a5.678 5.678 0 00-5.672 5.672A5.678 5.678 0 0018.328 24 5.678 5.678 0 0024 18.328a5.678 5.678 0 00-5.672-5.672zm0 9.469a3.801 3.801 0 01-3.797-3.797 3.801 3.801 0 013.797-3.797 3.801 3.801 0 013.797 3.797 3.801 3.801 0 01-3.797 3.797z"/><path d="M19.688 17.39h-.422v-.984a.937.937 0 00-1.875 0v1.922c0 .518.42.938.937.938h1.36a.937.937 0 100-1.875zm-5.672-6.609a.937.937 0 100-1.875.937.937 0 000 1.875zM9.938 14.86a.938.938 0 100-1.876.938.938 0 000 1.875zM5.86 10.781a.937.937 0 100-1.875.937.937 0 000 1.875zm0 4.079a.938.938 0 100-1.876.938.938 0 000 1.875zm0 4.078a.937.937 0 100-1.875.937.937 0 000 1.875zm4.078 0a.937.937 0 100-1.875.937.937 0 000 1.875zm0-8.157a.937.937 0 100-1.875.937.937 0 000 1.875z"/></g><defs><clipPath id="clip0_170_21208"><path fill="#fff" d="M0 0h24v24H0z"/></clipPath></defs></svg>