<svg width="268" height="167" fill="none" xmlns="http://www.w3.org/2000/svg"><g clip-path="url(#clip0_230_13155)"><path d="M153.198 161.101c12.5-7.1 22.5-21 27.8-38.3h-4.3c-7.5 23.7-23.9 40.1-42.9 40.1-6.7 0-13.1-.6-19.4-1.8-12.5-7.1-22.5-21-27.8-38.3h4.3c7.5 23.7 23.9 40.1 42.9 40.1 6.7 0 13.1-.6 19.4-1.8z" fill="#231F20"/><path d="M133.799 166.401c38.3 0 71.2-18 85.6-43.6h-7.8c-13.6 23.7-43.3 40.1-77.8 40.1s-64.2-16.4-77.8-40.1h-7.8c14.4 25.7 47.3 43.6 85.6 43.6z" fill="#231F20"/><path d="M195.801 139.699c-18.5-5.4-39.6-8.5-62-8.5s-43.5 3.1-62 8.5c.4.4.9.7 1.4 1.1 18.5-3.9 39.1-6 60.7-6s42.2 2.2 60.7 6c.3-.3.8-.7 1.2-1.1zM219.399 43.6c-14.4-25.7-47.3-43.6-85.6-43.6s-71.2 18-85.6 43.6H56C69.6 19.9 99.3 3.5 133.8 3.5s64.2 16.4 77.8 40.1h7.8z" fill="#231F20"/><path d="M180.998 43.6c-5.4-17.4-15.4-31.2-27.8-38.3-6.2-1.2-12.7-1.8-19.4-1.8-19 0-35.4 16.4-42.9 40.1h-4.3c5.4-17.4 15.4-31.2 27.8-38.3 6.2-1.2 12.7-1.8 19.4-1.8 19 0 35.4 16.4 42.9 40.1h4.3z" fill="#231F20"/><path d="M133.798 35.2c22.4 0 43.5-3.1 62-8.5-.4-.4-.9-.7-1.4-1.1-18.5 3.9-39.1 6-60.7 6s-42.2-2.2-60.7-6c-.5.4-.9.7-1.4 1.1 18.7 5.4 39.8 8.5 62.2 8.5z" fill="#231F20"/><path d="M84.599 94.4c-2.8.1-5 2.4-4.9 5.2.1 2.7 2.4 4.9 5.1 4.8 2.8-.1 5-2.4 4.9-5.1 0-2.8-2.3-5-5.1-4.9zm152.4 0c-2.8.1-5 2.4-4.9 5.2.1 2.7 2.4 4.9 5.1 4.8 2.8-.1 5-2.4 4.9-5.1 0-2.8-2.3-5-5.1-4.9z" fill="#CF4013"/><path d="M139.7 95.4c-2.7.9-6 1.4-9.9 1.2V70c3.9-.3 7.2.2 9.9 1 6.9 2.1 10.1 7.2 10 12.4-.1 5-3.4 9.8-10 12zm98-40.7l-23.2 42h-16.7c-12.3.3-18.4-6.3-18.8-13.3-.3-5.6 3.7-10.5 10.7-12.5 2.4-.6 5-.9 8-.9l16.2-.2V56.3h-19.7c-16.5 0-28.4 7.6-30 23.2-1.5-13.7-11.2-21.4-24.7-23-1.7-.2-3.5-.3-5.3-.3h-20.4v51.099l-28.5-52.6L55 109.5l.2-53.2H39.8v30.3l-25-30.3H0v53.4h14.8V80l25 29.6 15.3.1h16.1l13.7-27 13.7 27h36.1c1.7 0 3.5-.1 5.1-.3 13.6-1.6 23.2-9.5 24.7-22.4 1.7 14.6 13.5 22.7 29.8 22.7h29.4l13.7-27 13.6 27h16.7l-30-55z" fill="#116491"/><path d="M153.202 161.101c12.5-7.1 22.5-21 27.8-38.3h-4.3c-7.5 23.7-23.9 40.1-42.9 40.1-6.7 0-13.1-.6-19.4-1.8-12.5-7.1-22.5-21-27.8-38.3h4.3c7.5 23.7 23.9 40.1 42.9 40.1 6.7 0 13.1-.6 19.4-1.8z" fill="#184BBF"/><path d="M133.799 166.401c38.3 0 71.2-18 85.6-43.6h-7.8c-13.6 23.7-43.3 40.1-77.8 40.1s-64.2-16.4-77.8-40.1h-7.8c14.4 25.7 47.3 43.6 85.6 43.6z" fill="#184BBF"/><path d="M195.801 139.699c-18.5-5.4-39.6-8.5-62-8.5s-43.5 3.1-62 8.5c.4.4.9.7 1.4 1.1 18.5-3.9 39.1-6 60.7-6s42.2 2.2 60.7 6c.3-.3.8-.7 1.2-1.1zM219.399 43.6c-14.4-25.7-47.3-43.6-85.6-43.6s-71.2 18-85.6 43.6H56C69.6 19.9 99.3 3.5 133.8 3.5s64.2 16.4 77.8 40.1h7.8z" fill="#184BBF"/><path d="M181.002 43.6c-5.4-17.4-15.4-31.2-27.8-38.3-6.2-1.2-12.7-1.8-19.4-1.8-19 0-35.4 16.4-42.9 40.1h-4.3c5.4-17.4 15.4-31.2 27.8-38.3 6.2-1.2 12.7-1.8 19.4-1.8 19 0 35.4 16.4 42.9 40.1h4.3z" fill="#184BBF"/><path d="M133.802 35.2c22.4 0 43.5-3.1 62-8.5-.4-.4-.9-.7-1.4-1.1-18.5 3.9-39.1 6-60.7 6s-42.2-2.2-60.7-6c-.5.4-.9.7-1.4 1.1 18.7 5.4 39.8 8.5 62.2 8.5z" fill="#184BBF"/><path d="M84.599 94.4c-2.8.1-5 2.4-4.9 5.2.1 2.7 2.4 4.9 5.1 4.8 2.8-.1 5-2.4 4.9-5.1 0-2.8-2.3-5-5.1-4.9zm152.4 0c-2.8.1-5 2.4-4.9 5.2.1 2.7 2.4 4.9 5.1 4.8 2.8-.1 5-2.4 4.9-5.1 0-2.8-2.3-5-5.1-4.9z" fill="#CF4013"/><path d="M139.7 95.4c-2.7.9-6 1.4-9.9 1.2V70c3.9-.3 7.2.2 9.9 1 6.9 2.1 10.1 7.2 10 12.4-.1 5-3.4 9.8-10 12zm98-40.7l-23.2 42h-16.7c-12.3.3-18.4-6.3-18.8-13.3-.3-5.6 3.7-10.5 10.7-12.5 2.4-.6 5-.9 8-.9l16.2-.2V56.3h-19.7c-16.5 0-28.4 7.6-30 23.2-1.5-13.7-11.2-21.4-24.7-23-1.7-.2-3.5-.3-5.3-.3h-20.4v51.099l-28.5-52.6L55 109.5l.2-53.2H39.8v30.3l-25-30.3H0v53.4h14.8V80l25 29.6 15.3.1h16.1l13.7-27 13.7 27h36.1c1.7 0 3.5-.1 5.1-.3 13.6-1.6 23.2-9.5 24.7-22.4 1.7 14.6 13.5 22.7 29.8 22.7h29.4l13.7-27 13.6 27h16.7l-30-55z" fill="#3783D7"/></g><defs><clipPath id="clip0_230_13155"><path fill="#fff" d="M0 0h267.7v166.4H0z"/></clipPath></defs></svg>