<svg width="64" height="65" fill="none" xmlns="http://www.w3.org/2000/svg"><path fill-rule="evenodd" clip-rule="evenodd" d="M32.001.5c-.69 0-1.25.56-1.25 1.25v5.352a1.25 1.25 0 102.5 0V1.75c0-.69-.56-1.25-1.25-1.25zm25.317 42.522l-4.171-.996V40.56A7.82 7.82 0 0057 33.826v-5.531c0-4.31-3.507-7.817-7.817-7.817h-.865a7.8 7.8 0 00-5.805 2.588c-1.387-4.488-5.574-7.759-10.512-7.759-4.937 0-9.125 3.27-10.512 7.759a7.798 7.798 0 00-5.805-2.588h-.864c-4.31 0-7.817 3.507-7.817 7.817v5.53a7.82 7.82 0 003.854 6.735v1.465l-4.172.997A8.677 8.677 0 00.004 51.49v3.762c0 .69.56 1.25 1.25 1.25h10.095a11.79 11.79 0 00-.096 1.503V62h-7.5a1.25 1.25 0 000 2.5h56.498a1.25 1.25 0 000-2.5h-7.5v-3.99c0-.51-.033-1.014-.097-1.509H62.75c.69 0 1.25-.56 1.25-1.25V51.49a8.676 8.676 0 00-6.682-8.467zM43.002 28.295a5.323 5.323 0 015.317-5.317h.865a5.323 5.323 0 015.317 5.317v.32a9.438 9.438 0 01-5.065-1.543 1.25 1.25 0 00-1.369 0 9.435 9.435 0 01-5.065 1.543v-.32zm0 4.511v-1.69a11.926 11.926 0 005.75-1.536 11.925 11.925 0 005.749 1.536v2.71a5.323 5.323 0 01-5.318 5.318h-.864A5.323 5.323 0 0143 33.826v-1.02zm2.397 14.387c-.508-.2-1.034-.368-1.578-.498l-3.973-.949c.295-.121.6-.22.913-.296l3.948-.946.69 2.69zm-1.035-6.628v1.451l-4.186 1.003a8.688 8.688 0 00-2.545 1.06V42.25a11.08 11.08 0 004.071-4.267 7.875 7.875 0 002.66 2.581zm-3.862-7.759c0 4.687-3.813 8.5-8.5 8.5-4.686 0-8.5-3.813-8.5-8.5v-3.661h1.375c3.509 0 6.852-1.12 9.6-3.153l.287.428a6.127 6.127 0 005.101 2.725h.637v3.661zm-17-6.5c0-4.686 3.814-8.499 8.5-8.499 4.687 0 8.5 3.813 8.5 8.5v.338h-.637a3.631 3.631 0 01-3.023-1.615l-.463-.691c.375-.38.734-.78 1.074-1.2a1.25 1.25 0 10-1.944-1.572 13.61 13.61 0 01-10.633 5.078h-1.373v-.338zM22.3 37.985a11.08 11.08 0 004.083 4.274v1.827a8.688 8.688 0 00-2.557-1.066l-4.186-1.003v-1.45a7.878 7.878 0 002.66-2.582zm1.842 7.756l-3.967.951c-.54.13-1.063.297-1.568.496l.688-2.683 3.949.947c.308.073.608.17.898.29zM9.504 28.295a5.323 5.323 0 015.317-5.317h.864a5.323 5.323 0 015.318 5.317v.32a9.438 9.438 0 01-5.065-1.543 1.25 1.25 0 00-1.37 0 9.434 9.434 0 01-5.064 1.543v-.32zm0 5.531v-2.71a11.927 11.927 0 005.75-1.536 11.925 11.925 0 005.749 1.536v2.71a5.323 5.323 0 01-5.318 5.318h-.864a5.323 5.323 0 01-5.318-5.318zm2.454 20.176H2.504v-2.513a6.184 6.184 0 014.763-6.035l3.935-.94 1.86 7.247a11.565 11.565 0 00-1.104 2.24zm1.4-12.498c.474.09.963.14 1.463.14h.864c.498 0 .984-.05 1.455-.139v1.34l-1.566 6.104a11.58 11.58 0 00-.536.456l-1.68-6.55v-1.351zM13.753 62v-3.997a9.104 9.104 0 013.817-7.433L29 62.001H13.753zm6.153-12.63a9.26 9.26 0 01.852-.249l5.97-1.43 2.933 11.435-9.755-9.756zm8.976-3.34v-2.676c.99.293 2.037.451 3.12.451 1.088 0 2.138-.16 3.131-.455v2.695L32.01 58.221l-3.128-12.19zm8.406 1.674l5.952 1.422c.3.071.591.158.877.257l-9.764 9.764 2.935-11.443zM50.252 62H35.036l11.413-11.413a9.102 9.102 0 013.802 7.422V62zm.396-19.147l-1.682 6.556a11.571 11.571 0 00-.533-.454l-1.568-6.112v-1.338c.472.089.958.138 1.455.138h.865c.5 0 .989-.05 1.463-.14v1.35zM61.5 54.002h-9.456a11.57 11.57 0 00-1.102-2.237l1.86-7.252 3.935.94a6.185 6.185 0 014.763 6.035v2.514zM32.001 10.197c.33 0 .652.134.884.366.233.233.366.554.366.884 0 .329-.134.65-.366.884a1.259 1.259 0 01-.884.366 1.26 1.26 0 01-.883-.366 1.259 1.259 0 01-.367-.884c0-.33.134-.651.367-.884.232-.232.553-.366.883-.366zm-8.313.65l-4.631-4.63a1.25 1.25 0 00-1.768 1.768l4.632 4.63a1.246 1.246 0 001.768 0 1.25 1.25 0 000-1.768zm21.445-4.826A1.25 1.25 0 0146.9 7.79l-4.913 4.913a1.246 1.246 0 01-1.768 0 1.25 1.25 0 010-1.768l4.913-4.913z" fill="url(#paint0_linear_230_13136)"/><defs><linearGradient id="paint0_linear_230_13136" x1="28.669" y1="-5.385" x2="37.05" y2="71.701" gradientUnits="userSpaceOnUse"><stop stop-color="#75B7FF"/><stop offset="1" stop-color="#0044E8"/></linearGradient></defs></svg>