<svg width="24" height="25" fill="none" xmlns="http://www.w3.org/2000/svg"><path d="M22 9.5v6c0 2.5-.5 4.25-1.62 5.38L14 14.5l7.73-7.73c.18.79.27 1.69.27 2.73z" stroke="#295ACA" stroke-width="1.5" stroke-linecap="round" stroke-linejoin="round"/><path d="M21.73 6.77L6.27 22.23C3.26 21.54 2 19.46 2 15.5v-6c0-5 2-7 7-7h6c3.96 0 6.04 1.26 6.73 4.27z" stroke="#295ACA" stroke-width="1.5" stroke-linecap="round" stroke-linejoin="round"/><path d="M20.38 20.88C19.25 22 17.5 22.5 15 22.5H9c-1.04 0-1.94-.09-2.73-.27L14 14.5l6.38 6.38z" stroke="#295ACA" stroke-width="1.5" stroke-linecap="round" stroke-linejoin="round"/><path d="M6.241 8.48c.68-2.93 5.08-2.93 5.76 0 .39 1.72-.69 3.18-1.64 4.08a1.8 1.8 0 01-2.48 0c-.95-.9-2.04-2.36-1.64-4.08z" stroke="#295ACA" stroke-width="1.5"/><path d="M9.096 9.2h.01" stroke="#295ACA" stroke-width="2" stroke-linecap="round" stroke-linejoin="round"/></svg>