<svg width="56" height="56" fill="none" xmlns="http://www.w3.org/2000/svg"><path fill-rule="evenodd" clip-rule="evenodd" d="M0 47.278C0 52.088 3.912 56 8.722 56h38.556C52.088 56 56 52.088 56 47.278V8.722C56 3.912 52.088 0 47.278 0H8.722C3.912 0 0 3.912 0 8.722v38.556zm8.722 7.081c-3.904 0-7.081-3.177-7.081-7.08V8.721c0-3.904 3.177-7.081 7.08-7.081h38.557c3.904 0 7.081 3.177 7.081 7.08v38.557c0 3.904-3.177 7.081-7.08 7.081H8.721zm-4.827-7.081a4.827 4.827 0 004.827 4.827h38.556a4.827 4.827 0 004.827-4.827V8.722a4.827 4.827 0 00-4.827-4.827H8.722a4.827 4.827 0 00-4.827 4.827v2.486a.82.82 0 101.64 0V8.721a3.186 3.186 0 013.187-3.187h38.556a3.187 3.187 0 013.187 3.187v38.556a3.187 3.187 0 01-3.187 3.187H8.722a3.186 3.186 0 01-3.187-3.187V15.042a.82.82 0 00-1.64 0v32.236zm24.112 1.134a20.106 20.106 0 01-12.65-4.454.82.82 0 011.03-1.279 18.465 18.465 0 0011.62 4.092c10.243 0 18.546-8.303 18.546-18.546 0-4.4-1.532-8.44-4.091-11.62a.82.82 0 111.277-1.03 20.106 20.106 0 014.455 12.65c0 11.149-9.038 20.187-20.187 20.187zM13.662 41.26a.82.82 0 00.104-1.156 18.467 18.467 0 01-4.304-11.88c0-10.242 8.303-18.545 18.545-18.545 4.521 0 8.662 1.616 11.88 4.304a.82.82 0 101.052-1.26A20.108 20.108 0 0028.007 8.04c-11.148 0-20.186 9.038-20.186 20.186 0 4.92 1.76 9.43 4.685 12.932a.82.82 0 001.156.104zm31.965 8.286a3.227 3.227 0 110-6.453 3.227 3.227 0 010 6.453zm-1.585-3.226a1.586 1.586 0 103.172 0 1.586 1.586 0 00-3.172 0zM28.397 32.654a.76.76 0 01-.009.038c-.423 1.647-1.33 3.287-2.44 4.65-1.107 1.359-2.464 2.505-3.836 3.105-1.96.858-4.028.578-5.78-.377-1.746-.951-3.217-2.585-4.07-4.532-1.163-2.658-1.101-5.82.264-8.08.68-1.126 1.628-1.97 2.81-2.487.722-.316 1.381-.267 1.97-.01.505.22.955.598 1.32.904l.042.036c1.107.928 2.02 1.459 2.854 1.736a5.09 5.09 0 001.777.257 4.69 4.69 0 01.348-1.715c-1.12-1.012-2.071-2.324-2.768-3.692-.795-1.561-1.294-3.266-1.289-4.764.008-2.139 1.1-3.917 2.683-5.134 1.576-1.212 3.664-1.896 5.79-1.889 2.902.011 5.77 1.347 7.284 3.51.754 1.077 1.143 2.285 1.138 3.574-.003.79-.314 1.372-.788 1.807-.406.373-.933.631-1.36.841l-.05.024c-1.296.637-2.151 1.258-2.742 1.909a5.101 5.101 0 00-.997 1.63 4.734 4.734 0 011.408 1.398c1.466-.333 3.081-.358 4.596-.145 1.735.244 3.417.813 4.641 1.676 1.748 1.234 2.578 3.149 2.667 5.143.088 1.986-.549 4.09-1.774 5.826-1.674 2.37-4.413 3.953-7.053 3.953-1.315 0-2.527-.374-3.58-1.118-.646-.455-.945-1.044-1.029-1.681-.072-.547.018-1.127.091-1.597l.009-.055c.222-1.427.204-2.483.01-3.341a5.093 5.093 0 00-.75-1.73c-.434.176-.9.29-1.387.33zm1.195-2.065a3.069 3.069 0 11-3.17-5.256 3.069 3.069 0 013.17 5.256zm1.58.859c.442.673.771 1.4.962 2.243.255 1.124.253 2.402.011 3.956-.085.545-.133.897-.095 1.184.03.22.105.385.348.557.767.541 1.646.818 2.634.818 2.022 0 4.294-1.248 5.713-3.26 1.03-1.458 1.547-3.207 1.476-4.805-.071-1.59-.717-2.99-1.974-3.876-.95-.67-2.361-1.173-3.924-1.393-1.253-.176-2.552-.163-3.719.062a4.697 4.697 0 01-1.432 4.514zm-2.139-8.084a4.697 4.697 0 00-4.49 1.407c-.86-.83-1.623-1.893-2.202-3.029-.716-1.406-1.114-2.85-1.11-4.013.005-1.538.781-2.87 2.043-3.84 1.268-.975 2.997-1.554 4.783-1.548 2.46.009 4.787 1.154 5.946 2.81.567.81.845 1.688.841 2.627 0 .297-.093.455-.256.604-.214.196-.53.359-1.024.602-1.412.693-2.46 1.425-3.234 2.278a6.728 6.728 0 00-1.297 2.102zm-5.469 6.16a6.758 6.758 0 01-2.559-.33c-1.094-.363-2.186-1.026-3.391-2.036-.423-.355-.699-.578-.965-.694-.202-.088-.384-.11-.656.01-.86.377-1.551.986-2.062 1.832-1.046 1.73-1.152 4.32-.165 6.574.716 1.636 1.945 2.983 3.35 3.749 1.397.761 2.929.932 4.338.316 1.064-.467 2.225-1.415 3.221-2.639.941-1.156 1.69-2.502 2.066-3.808a4.72 4.72 0 01-3.177-2.974z" fill="url(#paint0_linear_230_6641)"/><defs><linearGradient id="paint0_linear_230_6641" x1="25.083" y1="-5.149" x2="32.416" y2="62.3" gradientUnits="userSpaceOnUse"><stop stop-color="#75B7FF"/><stop offset="1" stop-color="#0044E8"/></linearGradient></defs></svg>