<svg width="132" height="132" fill="none" xmlns="http://www.w3.org/2000/svg"><path fill-rule="evenodd" clip-rule="evenodd" d="M66 12c-29.823 0-54 24.177-54 54s24.177 54 54 54 54-24.177 54-54-24.177-54-54-54zM0 66C0 29.55 29.55 0 66 0c36.451 0 66 29.55 66 66 0 36.451-29.549 66-66 66-36.45 0-66-29.549-66-66z" fill="#F3F6FA"/><path fill-rule="evenodd" clip-rule="evenodd" d="M66 12c-29.823 0-54 24.177-54 54s24.177 54 54 54 54-24.177 54-54c0-14.272-5.529-27.24-14.573-36.9a6 6 0 018.759-8.2C125.23 32.693 132 48.562 132 66c0 36.451-29.549 66-66 66-36.45 0-66-29.549-66-66C0 29.55 29.55 0 66 0a6 6 0 010 12z" fill="url(#paint0_linear_2636_209)"/><path fill-rule="evenodd" clip-rule="evenodd" d="M75.655 39.727c.31.437.657.76.937 1.02l.004.004c.43.397.768.71 1.006 1.128.198.352.425.9.43 2.037-.002.602-.086 1.052-.272 1.46-.143.306-.338.57-.671.915a1.089 1.089 0 00.021 1.547 1.094 1.094 0 001.546-.021c.34-.35.771-.838 1.087-1.52.318-.681.478-1.482.476-2.38 0-.867-.108-1.607-.332-2.265-.256-.763-.7-1.444-1.355-2.081-.13-.126-.25-.239-.368-.347l-.008-.007c-.31-.291-.556-.521-.716-.756a1.098 1.098 0 00-1.525-.26c-.238.169-.397.42-.446.708a1.09 1.09 0 00.186.818zm-6.641 1.094c.76.705 1.361 1.262 1.361 3.096a1.094 1.094 0 102.188 0c0-2.79-1.192-3.894-2.062-4.7l-.002-.002c-.285-.265-.532-.494-.716-.753a1.093 1.093 0 10-1.785 1.264c.314.443.684.787 1.011 1.09l.005.005zm16.674 15.992H72.35c-.275-1.423-1.067-2.228-1.729-2.9l-.001-.001c-.778-.789-1.34-1.36-1.34-2.926a1.094 1.094 0 10-2.187 0c0 2.463 1.092 3.571 1.969 4.462.462.468.823.837 1.024 1.364h-4.299c-.274-1.422-1.067-2.227-1.729-2.899l-.001-.001c-.777-.79-1.34-1.36-1.34-2.926 0-1.499.552-2.032 1.314-2.77v-.001C64.91 47.367 66 46.311 66 43.916c0-2.788-1.192-3.893-2.062-4.7l-.002-.001c-.285-.265-.532-.494-.716-.753a1.093 1.093 0 10-1.785 1.264c.314.443.684.787 1.011 1.09l.005.005c.76.705 1.361 1.262 1.361 3.096 0 1.467-.545 1.995-1.3 2.726-.883.855-1.98 1.917-1.98 4.343 0 2.463 1.09 3.571 1.968 4.462.462.468.823.837 1.024 1.364H58.13a4.542 4.542 0 00-.544-1.459c-.287-.486-.626-.865-.95-1.201l-.1-.103-.086-.087c-.398-.404-.712-.724-.936-1.097-.23-.39-.446-.886-.452-1.879.003-.644.097-1.122.307-1.552.18-.362.433-.652.758-.975a1.093 1.093 0 10-1.544-1.55c-.395.392-.843.884-1.174 1.554-.357.714-.536 1.564-.534 2.523-.003 1.051.207 1.979.622 2.756.417.772.94 1.297 1.361 1.72l.002.002.016.016c.162.163.314.316.438.463.254.289.41.526.524.793.01.025.02.05.029.077h-9.554c-.605 0-1.094.49-1.094 1.093v13.125c0 .604.49 1.094 1.093 1.094H48.5v20.781c0 .604.49 1.094 1.094 1.094h32.812c.604 0 1.094-.49 1.094-1.094V72.125h2.188c.604 0 1.093-.49 1.093-1.094V57.906c0-.604-.49-1.093-1.094-1.093zM70.374 72.124v3.281h-8.75v-3.281h8.75zm10.938 5.469v3.28H78.03v-3.28h3.281zm-8.75 8.75v-3.282h8.75v3.282h-8.75zm-10.938 0v-3.282h8.75v3.282h-8.75zm-10.938 0v-3.282h8.75v3.282h-8.75zm14.22-8.75v3.28h-8.75v-3.28h8.75zm-10.938 3.28h-3.282v-3.28h3.282v3.28zm21.875 0h-8.75v-3.28h8.75v3.28zm-16.406-5.468h-8.75v-3.281h8.75v3.281zm-8.75 13.125h3.28v3.281h-3.28v-3.28zm5.468 0h8.75v3.281h-8.75v-3.28zm10.938 0h8.75v3.281h-8.75v-3.28zm14.219 3.281H78.03v-3.28h3.281v3.28zm0-16.406h-8.75v-3.281h8.75v3.281zm3.28-5.469H47.407V59h37.188v10.937zm-17.5-4.374H60.53a1.094 1.094 0 100 2.187h6.563a1.094 1.094 0 100-2.188zm-5.468-4.376c.603 0 1.094.491 1.094 1.094 0 .603-.491 1.094-1.094 1.094h-6.563a1.096 1.096 0 01-1.093-1.094c0-.603.49-1.093 1.093-1.093h6.563zm-10.938 0a1.095 1.095 0 101.094 1.094c0-.603-.49-1.093-1.093-1.093zm30.626 2.188h-4.376a1.094 1.094 0 110-2.188h4.376a1.094 1.094 0 110 2.188zm-5.465-11.528h-.038a1.096 1.096 0 01-.72-1.881c.214-.207.497-.316.795-.305.293.01.564.132.763.346a1.093 1.093 0 01-.8 1.84zM57.25 45.023h-.002a1.095 1.095 0 01.002-2.187h.002a1.095 1.095 0 011.092 1.096v.001a1.095 1.095 0 01-1.094 1.09z" fill="url(#paint1_linear_2636_209)"/><defs><linearGradient id="paint0_linear_2636_209" x1="59.125" y1="-12.137" x2="76.41" y2="146.851" gradientUnits="userSpaceOnUse"><stop stop-color="#75B7FF"/><stop offset="1" stop-color="#0044E8"/></linearGradient><linearGradient id="paint1_linear_2636_209" x1="63.835" y1="32.851" x2="73.623" y2="99.664" gradientUnits="userSpaceOnUse"><stop stop-color="#75B7FF"/><stop offset="1" stop-color="#0044E8"/></linearGradient></defs></svg>