<svg width="132" height="132" fill="none" xmlns="http://www.w3.org/2000/svg"><path fill-rule="evenodd" clip-rule="evenodd" d="M66 12c-29.823 0-54 24.177-54 54s24.177 54 54 54 54-24.177 54-54-24.177-54-54-54zM0 66C0 29.55 29.55 0 66 0c36.451 0 66 29.55 66 66 0 36.451-29.549 66-66 66-36.45 0-66-29.549-66-66z" fill="#F3F6FA"/><path fill-rule="evenodd" clip-rule="evenodd" d="M66 12c-29.823 0-54 24.177-54 54s24.177 54 54 54 54-24.177 54-54c0-14.272-5.529-27.24-14.573-36.9a6 6 0 018.759-8.2C125.23 32.693 132 48.562 132 66c0 36.451-29.549 66-66 66-36.45 0-66-29.549-66-66C0 29.55 29.55 0 66 0a6 6 0 010 12z" fill="url(#paint0_linear_2636_179)"/><path fill-rule="evenodd" clip-rule="evenodd" d="M80.222 45.651a20.148 20.148 0 015.902 14.224A20.154 20.154 0 0169.6 79.671l.639 3.829a2.63 2.63 0 012.597 3.5h1.912a2.62 2.62 0 012.48 1.802 3.64 3.64 0 002.235-.744 3.786 3.786 0 001.41-2.826.898.898 0 01.892-.857.876.876 0 01.858.893 5.594 5.594 0 01-2.09 4.174 5.426 5.426 0 01-3.338 1.11 2.622 2.622 0 01-2.447 1.698h-17.5a2.625 2.625 0 010-5.25h1.91a2.63 2.63 0 012.598-3.5l.639-3.83c-23.825-4.973-20.944-39.203 3.603-39.92a20.147 20.147 0 0114.223 5.901zm-27.21 1.237a18.396 18.396 0 00-5.389 12.987A18.396 18.396 0 0065.999 78.25c24.37-1.006 24.377-35.74 0-36.75a18.396 18.396 0 00-12.987 5.388zm22.355 43.355a.876.876 0 00-.618-1.493h-17.5a.875.875 0 100 1.75h17.5a.876.876 0 00.618-.257zm-4.375-3.5a.876.876 0 00-.618-1.493h-8.75a.875.875 0 100 1.75h8.75a.876.876 0 00.618-.257zM68.465 83.5l-.583-3.5h-3.767l-.583 3.5h4.933zm-1.59-19.338v11.463A.877.877 0 0166 76.5c-5.702-.162-6.991-9.933-2.567-13.1a4.373 4.373 0 01-1.72-2.65H50.25a.877.877 0 01-.875-.875c.162-5.703 9.934-6.99 13.1-2.567a4.373 4.373 0 012.65-1.72V44.125A.877.877 0 0166 43.25c5.703.162 6.99 9.934 2.567 13.1a4.373 4.373 0 011.72 2.65H81.75a.877.877 0 01.875.875c-.162 5.703-9.934 6.99-13.1 2.567a4.373 4.373 0 01-2.65 1.72zm13.826-3.412c-1.388 3.454-8.766 3.452-10.152 0H80.7zM66.875 45.173c3.454 1.388 3.452 8.768 0 10.154V45.172zM51.298 59c1.389-3.455 8.767-3.452 10.154 0H51.297zm12.856-.962a2.625 2.625 0 00-.779 1.837 2.625 2.625 0 005.25 0 2.625 2.625 0 00-4.47-1.837zm.971 16.538c-3.454-1.387-3.452-8.767 0-10.152v10.152zm7.438-26.071a13.215 13.215 0 016.15 8.088.875.875 0 001.695-.436 14.968 14.968 0 00-6.969-9.166.875.875 0 00-.876 1.514zM54.097 53.72a.875.875 0 01-.983-1.284 14.975 14.975 0 019.166-6.968.875.875 0 01.437 1.695 13.208 13.208 0 00-8.088 6.15.875.875 0 01-.532.407zm5.342 17.525a13.215 13.215 0 01-6.15-8.088.875.875 0 00-1.694.436 14.968 14.968 0 006.968 9.166.874.874 0 00.876-1.514zm18.802-5.237a.874.874 0 01.752.982.874.874 0 01-.11.324 14.977 14.977 0 01-9.166 6.968.875.875 0 01-.436-1.695 13.21 13.21 0 008.087-6.15.873.873 0 01.873-.43z" fill="url(#paint1_linear_2636_179)"/><defs><linearGradient id="paint0_linear_2636_179" x1="59.125" y1="-12.137" x2="76.41" y2="146.851" gradientUnits="userSpaceOnUse"><stop stop-color="#75B7FF"/><stop offset="1" stop-color="#0044E8"/></linearGradient><linearGradient id="paint1_linear_2636_179" x1="63.959" y1="34.923" x2="72.875" y2="97.636" gradientUnits="userSpaceOnUse"><stop stop-color="#75B7FF"/><stop offset="1" stop-color="#0044E8"/></linearGradient></defs></svg>