<svg width="55" height="56" fill="none" xmlns="http://www.w3.org/2000/svg"><path fill-rule="evenodd" clip-rule="evenodd" d="M18.55 55.937c.243.084.509.084.752 0 .197-.069.393-.138.586-.209 3.777-1.37 7.094-3.388 9.817-5.873a1.075 1.075 0 00.053-1.546 1.141 1.141 0 00-1.584-.051c-2.503 2.283-5.744 4.214-9.248 5.485m0 0l-.181-.065C8.641 50.014 2.241 41.427 2.241 32.098V21.547l16.684-5.99 16.683 5.99v10.55c0 3.057-.685 6.027-1.959 8.77a1.083 1.083 0 00.559 1.448c.564.25 1.228.006 1.484-.545a22.912 22.912 0 002.158-9.672V20.784c0-.459-.292-.868-.733-1.027l-17.805-6.393c-.25-.09-.524-.09-.774 0L.733 19.757a1.096 1.096 0 00-.734 1.027v11.314c0 10.348 7.088 19.686 17.963 23.63.193.07.389.14.587.209m.376-2.194c-.06.022.06-.021 0 0z" fill="url(#paint0_linear_230_6683)"/><path fill-rule="evenodd" clip-rule="evenodd" d="M18.491 50.973c.278.114.591.114.87 0 3.99-1.636 7.378-4.175 9.828-7.4 2.582-3.401 3.96-7.356 3.96-11.434v-8.127c0-.458-.293-.868-.734-1.026L19.313 18.28c-.25-.09-.524-.09-.774 0L5.437 22.986a1.095 1.095 0 00-.734 1.026v8.127c0 4.078 1.377 8.033 3.96 11.433 2.45 3.226 5.838 5.765 9.828 7.401zm.435-2.2c-3.454-1.496-6.355-3.729-8.462-6.503-2.31-3.042-3.519-6.544-3.519-10.13v-7.365l11.98-4.302 11.982 4.302v7.364c0 3.587-1.21 7.089-3.52 10.13-2.107 2.775-5.008 5.008-8.461 6.504z" fill="url(#paint1_linear_230_6683)"/><path fill-rule="evenodd" clip-rule="evenodd" d="M35.61 26.748c0 .604.501 1.093 1.12 1.093 5.672 0 10.27-4.485 10.27-10.018S42.4 7.805 36.73 7.805c-5.547 0-10.067 4.291-10.26 9.657-.018.473.278.902.733 1.066l8.406 3.019v5.2zm2.242-1.17v-4.794c0-.459-.293-.868-.734-1.027l-8.34-2.995c.53-3.822 3.888-6.77 7.952-6.77 4.433 0 8.027 3.506 8.027 7.83 0 3.955-3.003 7.224-6.905 7.756z" fill="url(#paint2_linear_230_6683)"/><path fill-rule="evenodd" clip-rule="evenodd" d="M36.73 5.723c.62 0 1.121-.49 1.121-1.093V1.094C37.851.49 37.35 0 36.731 0c-.62 0-1.122.49-1.122 1.094V4.63c0 .604.502 1.093 1.121 1.093z" fill="url(#paint3_linear_230_6683)"/><path fill-rule="evenodd" clip-rule="evenodd" d="M27.96 9.267a1.075 1.075 0 000-1.546l-2.562-2.5a1.141 1.141 0 00-1.586 0 1.075 1.075 0 000 1.546l2.563 2.5a1.141 1.141 0 001.585 0z" fill="url(#paint4_linear_230_6683)"/><path fill-rule="evenodd" clip-rule="evenodd" d="M49.649 30.426a1.075 1.075 0 000-1.547l-2.563-2.5a1.141 1.141 0 00-1.585 0 1.075 1.075 0 000 1.547l2.562 2.5a1.141 1.141 0 001.586 0z" fill="url(#paint5_linear_230_6683)"/><path fill-rule="evenodd" clip-rule="evenodd" d="M45.5 9.267a1.141 1.141 0 001.586 0l2.563-2.5a1.075 1.075 0 000-1.547 1.141 1.141 0 00-1.586 0L45.5 7.72a1.075 1.075 0 000 1.547z" fill="url(#paint6_linear_230_6683)"/><path fill-rule="evenodd" clip-rule="evenodd" d="M49.133 17.823c0 .604.502 1.094 1.121 1.094h3.625c.62 0 1.121-.49 1.121-1.094 0-.604-.502-1.094-1.121-1.094h-3.624c-.62 0-1.122.49-1.122 1.094z" fill="url(#paint7_linear_230_6683)"/><path fill-rule="evenodd" clip-rule="evenodd" d="M16.428 38.805a1.141 1.141 0 001.586 0l8.388-8.183a1.075 1.075 0 000-1.547 1.141 1.141 0 00-1.586 0l-7.595 7.41-2.993-2.92a1.14 1.14 0 00-1.586 0 1.075 1.075 0 000 1.546l3.786 3.694z" fill="url(#paint8_linear_230_6683)"/><defs><linearGradient id="paint0_linear_230_6683" x1="24.635" y1="-5.149" x2="32.099" y2="62.271" gradientUnits="userSpaceOnUse"><stop stop-color="#75B7FF"/><stop offset="1" stop-color="#0044E8"/></linearGradient><linearGradient id="paint1_linear_230_6683" x1="24.635" y1="-5.149" x2="32.099" y2="62.271" gradientUnits="userSpaceOnUse"><stop stop-color="#75B7FF"/><stop offset="1" stop-color="#0044E8"/></linearGradient><linearGradient id="paint2_linear_230_6683" x1="24.635" y1="-5.149" x2="32.099" y2="62.271" gradientUnits="userSpaceOnUse"><stop stop-color="#75B7FF"/><stop offset="1" stop-color="#0044E8"/></linearGradient><linearGradient id="paint3_linear_230_6683" x1="24.635" y1="-5.149" x2="32.099" y2="62.271" gradientUnits="userSpaceOnUse"><stop stop-color="#75B7FF"/><stop offset="1" stop-color="#0044E8"/></linearGradient><linearGradient id="paint4_linear_230_6683" x1="24.635" y1="-5.149" x2="32.099" y2="62.271" gradientUnits="userSpaceOnUse"><stop stop-color="#75B7FF"/><stop offset="1" stop-color="#0044E8"/></linearGradient><linearGradient id="paint5_linear_230_6683" x1="24.635" y1="-5.149" x2="32.099" y2="62.271" gradientUnits="userSpaceOnUse"><stop stop-color="#75B7FF"/><stop offset="1" stop-color="#0044E8"/></linearGradient><linearGradient id="paint6_linear_230_6683" x1="24.635" y1="-5.149" x2="32.099" y2="62.271" gradientUnits="userSpaceOnUse"><stop stop-color="#75B7FF"/><stop offset="1" stop-color="#0044E8"/></linearGradient><linearGradient id="paint7_linear_230_6683" x1="24.635" y1="-5.149" x2="32.099" y2="62.271" gradientUnits="userSpaceOnUse"><stop stop-color="#75B7FF"/><stop offset="1" stop-color="#0044E8"/></linearGradient><linearGradient id="paint8_linear_230_6683" x1="24.635" y1="-5.149" x2="32.099" y2="62.271" gradientUnits="userSpaceOnUse"><stop stop-color="#75B7FF"/><stop offset="1" stop-color="#0044E8"/></linearGradient></defs></svg>