<svg width="132" height="132" fill="none" xmlns="http://www.w3.org/2000/svg"><path fill-rule="evenodd" clip-rule="evenodd" d="M38 73.734c0 .453.367.82.82.82h6.85a.82.82 0 00.82-.82v-3.6h9.216a.891.891 0 00.057 0H74.68v8.73l-1.57 1.257a1.705 1.705 0 00-.64 1.33v.68c0 .819.664 1.483 1.484 1.483h2.368a.82.82 0 100-1.64h-2.21v-.523c0-.019.008-.037.023-.05l1.653-1.322h14.894l1.652 1.322a.063.063 0 01.024.05v.522H80.151a.82.82 0 000 1.64h12.366c.82 0 1.483-.663 1.483-1.482v-.68c0-.518-.236-1.007-.639-1.33l-1.57-1.257v-11.76c0-7.775-6.305-14.078-14.08-14.078h-1.389v-.947a2.59 2.59 0 00-1.768-2.456V38.82a.82.82 0 00-1.64 0v10.803a2.59 2.59 0 00-1.768 2.456v.947h-7.895a.82.82 0 100 1.64h1.929v13.828h-8.626V54.666h2.87a.82.82 0 100-1.64h-2.87v-.947a2.59 2.59 0 00-1.767-2.456V38.82a.82.82 0 00-1.64 0v10.803a2.59 2.59 0 00-1.769 2.456v.947h-4.887v-3.599a.82.82 0 00-.82-.82h-6.85a.82.82 0 00-.821.82v2.853a.82.82 0 001.64 0v-2.032h5.21v22.666h-5.21V56.108a.82.82 0 10-1.64 0v17.626zm16.914-5.24H46.49V54.666h8.423v13.828zm19.768 0H66.82V54.666h7.862v13.828zm0-16.415v.947h-1.895v-.947c0-.522.421-.945.942-.948h.01a.947.947 0 01.943.948zm-19.768 0v.947h-1.895v-.947c0-.523.422-.946.944-.948h.007a.947.947 0 01.944.948zm35.236 26.36H76.322v-8.304H90.15v8.303zm-11.774-9.945H90.15v-1.39c0-1.862-.41-3.63-1.143-5.215l-10.63 6.605zm9.843-8.048l-10.166 6.318 6.317-10.167c1.55.984 2.866 2.3 3.85 3.85zm-5.291-4.636l-6.606 10.63V54.667h1.39c1.862 0 3.63.409 5.216 1.143zM89.697 94a.82.82 0 00.817-.753l-.75-6.985a2.473 2.473 0 01-.128.104l-.03.022c-.21.162-.73.558-.73 1.311 0 .753.52 1.15.73 1.31l.03.023.027.022.02.015a3.72 3.72 0 01-.047.036l-.03.023c-.21.161-.73.558-.73 1.31 0 .753.52 1.15.73 1.311l.03.023.047.037-.032.026-.015.011-.03.023c-.21.161-.73.558-.73 1.31 0 .454.368.82.82.82zm-6.002-.753a.82.82 0 01-1.637-.067c0-.753.518-1.15.73-1.311l.03-.023a4.02 4.02 0 00.046-.037 4.02 4.02 0 00-.047-.037l-.03-.023c-.21-.161-.73-.558-.73-1.31 0-.753.52-1.15.73-1.311l.03-.023.047-.036a3.784 3.784 0 00-.047-.037l-.03-.022c-.21-.162-.73-.558-.73-1.311 0-.753.52-1.15.73-1.31l.03-.023c.064-.05.104-.083.127-.104l.751 6.985zM76.06 94a.82.82 0 00.817-.753l-.751-6.985a2.503 2.503 0 01-.127.104l-.03.022c-.21.162-.73.558-.73 1.311 0 .753.52 1.15.73 1.31l.03.023.046.037-.046.036-.03.023c-.21.161-.73.558-.73 1.31 0 .753.52 1.15.73 1.311l.03.023.047.037a5.26 5.26 0 01-.03.023c-.005.005-.01.01-.017.014l-.03.023c-.21.161-.73.558-.73 1.31 0 .454.368.82.82.82z" fill="url(#paint0_linear_2636_116)"/><path fill-rule="evenodd" clip-rule="evenodd" d="M66 12c-29.823 0-54 24.177-54 54s24.177 54 54 54 54-24.177 54-54-24.177-54-54-54zM0 66C0 29.55 29.55 0 66 0c36.451 0 66 29.55 66 66 0 36.451-29.549 66-66 66-36.45 0-66-29.549-66-66z" fill="url(#paint1_linear_2636_116)"/><defs><linearGradient id="paint0_linear_2636_116" x1="63.083" y1="32.851" x2="70.416" y2="100.3" gradientUnits="userSpaceOnUse"><stop stop-color="#75B7FF"/><stop offset="1" stop-color="#0044E8"/></linearGradient><linearGradient id="paint1_linear_2636_116" x1="59.125" y1="-12.137" x2="76.41" y2="146.851" gradientUnits="userSpaceOnUse"><stop stop-color="#75B7FF"/><stop offset="1" stop-color="#0044E8"/></linearGradient></defs></svg>