<svg width="56" height="56" fill="none" xmlns="http://www.w3.org/2000/svg"><path fill-rule="evenodd" clip-rule="evenodd" d="M42.222 7.651a20.148 20.148 0 015.901 14.224 20.154 20.154 0 01-16.522 19.796l.639 3.829a2.63 2.63 0 012.597 3.5h1.911a2.62 2.62 0 012.48 1.802 3.64 3.64 0 002.236-.744 3.786 3.786 0 001.41-2.826.898.898 0 01.892-.857.876.876 0 01.858.893 5.594 5.594 0 01-2.09 4.174 5.426 5.426 0 01-3.338 1.11 2.622 2.622 0 01-2.447 1.698h-17.5a2.625 2.625 0 010-5.25h1.91a2.63 2.63 0 012.598-3.5l.639-3.83C.57 36.698 3.452 2.468 27.998 1.75a20.148 20.148 0 0114.224 5.901zm-27.21 1.237a18.396 18.396 0 00-5.388 12.987A18.396 18.396 0 0027.998 40.25c24.37-1.006 24.377-35.74 0-36.75a18.396 18.396 0 00-12.987 5.388zm22.355 43.355a.876.876 0 00-.618-1.493h-17.5a.875.875 0 100 1.75h17.5a.876.876 0 00.618-.257zm-4.375-3.5a.876.876 0 00-.618-1.493h-8.75a.875.875 0 100 1.75h8.75a.876.876 0 00.618-.257zM30.465 45.5l-.583-3.5h-3.767l-.583 3.5h4.933zm-1.59-19.338v11.463A.877.877 0 0128 38.5c-5.702-.162-6.991-9.933-2.567-13.1a4.373 4.373 0 01-1.72-2.65H12.25a.877.877 0 01-.875-.875c.162-5.703 9.934-6.99 13.1-2.567a4.373 4.373 0 012.65-1.72V6.125A.876.876 0 0128 5.25c5.703.162 6.99 9.934 2.567 13.1a4.373 4.373 0 011.72 2.65H43.75a.877.877 0 01.875.875c-.162 5.703-9.934 6.99-13.1 2.567a4.373 4.373 0 01-2.65 1.72zm13.827-3.412c-1.389 3.454-8.767 3.452-10.154 0h10.154zM28.875 7.173c3.454 1.388 3.452 8.768 0 10.153V7.173zM13.299 21c1.388-3.454 8.766-3.452 10.152 0H13.3zm12.855-.962a2.625 2.625 0 00-.779 1.837 2.625 2.625 0 005.25 0 2.625 2.625 0 00-4.47-1.837zm.971 16.539c-3.454-1.388-3.452-8.768 0-10.153v10.153zm7.438-26.072a13.215 13.215 0 016.15 8.088.875.875 0 001.694-.436A14.968 14.968 0 0035.44 8.99a.875.875 0 00-.876 1.514zM16.097 15.72a.875.875 0 01-.983-1.284 14.975 14.975 0 019.166-6.968.875.875 0 01.436 1.695 13.209 13.209 0 00-8.087 6.15.875.875 0 01-.532.407zm5.342 17.525a13.215 13.215 0 01-6.15-8.088.875.875 0 00-1.694.436 14.968 14.968 0 006.968 9.166.874.874 0 00.876-1.514zm18.802-5.237a.874.874 0 01.752.982.874.874 0 01-.11.324 14.977 14.977 0 01-9.166 6.968.875.875 0 01-.436-1.695 13.21 13.21 0 008.087-6.15.873.873 0 01.873-.43z" fill="url(#paint0_linear_230_6664)"/><defs><linearGradient id="paint0_linear_230_6664" x1="25.959" y1="-3.077" x2="34.875" y2="59.636" gradientUnits="userSpaceOnUse"><stop stop-color="#75B7FF"/><stop offset="1" stop-color="#0044E8"/></linearGradient></defs></svg>