<svg width="132" height="132" fill="none" xmlns="http://www.w3.org/2000/svg"><path fill-rule="evenodd" clip-rule="evenodd" d="M66 12c-29.823 0-54 24.177-54 54s24.177 54 54 54 54-24.177 54-54-24.177-54-54-54zM0 66C0 29.55 29.55 0 66 0c36.451 0 66 29.55 66 66 0 36.451-29.549 66-66 66-36.45 0-66-29.549-66-66z" fill="#F3F6FA"/><path fill-rule="evenodd" clip-rule="evenodd" d="M66 12c-29.823 0-54 24.177-54 54s24.177 54 54 54 54-24.177 54-54c0-14.272-5.529-27.24-14.573-36.9a6 6 0 018.759-8.2C125.23 32.693 132 48.562 132 66c0 36.451-29.549 66-66 66-36.45 0-66-29.549-66-66C0 29.55 29.55 0 66 0a6 6 0 010 12z" fill="url(#paint0_linear_2636_197)"/><path fill-rule="evenodd" clip-rule="evenodd" d="M57.55 92.937c.243.084.509.084.752 0 .197-.069.393-.138.586-.209 3.777-1.37 7.094-3.388 9.817-5.873a1.075 1.075 0 00.053-1.546 1.141 1.141 0 00-1.584-.051c-2.503 2.283-5.744 4.214-9.248 5.485m0 0l-.181-.065c-10.103-3.665-16.503-12.251-16.503-21.58V58.547l16.684-5.99 16.683 5.99v10.55c0 3.057-.685 6.027-1.959 8.77a1.083 1.083 0 00.559 1.448c.564.25 1.228.005 1.484-.545a22.912 22.912 0 002.158-9.672V57.784c0-.459-.293-.868-.733-1.027l-17.805-6.393c-.25-.09-.525-.09-.775 0l-17.804 6.393A1.096 1.096 0 0039 57.784v11.314c0 10.348 7.088 19.686 17.963 23.63.193.07.389.14.587.209m.376-2.194c-.06.022.06-.021 0 0z" fill="url(#paint1_linear_2636_197)"/><path fill-rule="evenodd" clip-rule="evenodd" d="M57.491 87.973c.278.114.591.114.87 0 3.99-1.636 7.378-4.175 9.828-7.4 2.582-3.401 3.96-7.356 3.96-11.434v-8.127c0-.458-.293-.868-.734-1.026L58.313 55.28c-.25-.09-.525-.09-.774 0l-13.102 4.705a1.095 1.095 0 00-.734 1.026v8.127c0 4.078 1.377 8.033 3.96 11.433 2.45 3.226 5.838 5.765 9.828 7.401zm.435-2.2c-3.454-1.496-6.355-3.729-8.462-6.503-2.31-3.042-3.519-6.544-3.519-10.13v-7.365l11.98-4.302 11.981 4.302v7.364c0 3.587-1.208 7.089-3.519 10.13-2.106 2.775-5.008 5.008-8.461 6.504z" fill="url(#paint2_linear_2636_197)"/><path fill-rule="evenodd" clip-rule="evenodd" d="M74.61 63.748c0 .604.501 1.093 1.12 1.093 5.672 0 10.27-4.485 10.27-10.018s-4.598-10.018-10.27-10.018c-5.547 0-10.067 4.291-10.26 9.657-.018.473.278.902.733 1.066l8.406 3.019v5.2zm2.242-1.17v-4.794c0-.459-.294-.868-.734-1.027l-8.34-2.995c.53-3.822 3.888-6.77 7.952-6.77 4.433 0 8.027 3.506 8.027 7.83 0 3.955-3.004 7.224-6.906 7.756z" fill="url(#paint3_linear_2636_197)"/><path fill-rule="evenodd" clip-rule="evenodd" d="M75.73 42.723c.62 0 1.121-.49 1.121-1.093v-3.536c0-.604-.502-1.094-1.12-1.094-.62 0-1.122.49-1.122 1.094v3.536c0 .604.502 1.093 1.121 1.093z" fill="url(#paint4_linear_2636_197)"/><path fill-rule="evenodd" clip-rule="evenodd" d="M66.96 46.267a1.075 1.075 0 000-1.547l-2.562-2.5a1.141 1.141 0 00-1.586 0 1.075 1.075 0 000 1.547l2.563 2.5a1.141 1.141 0 001.585 0z" fill="url(#paint5_linear_2636_197)"/><path fill-rule="evenodd" clip-rule="evenodd" d="M88.649 67.426a1.075 1.075 0 000-1.547l-2.563-2.5a1.141 1.141 0 00-1.585 0 1.075 1.075 0 000 1.547l2.562 2.5a1.141 1.141 0 001.586 0z" fill="url(#paint6_linear_2636_197)"/><path fill-rule="evenodd" clip-rule="evenodd" d="M84.5 46.267a1.141 1.141 0 001.586 0l2.563-2.5a1.075 1.075 0 000-1.547 1.141 1.141 0 00-1.586 0l-2.563 2.5a1.075 1.075 0 000 1.547z" fill="url(#paint7_linear_2636_197)"/><path fill-rule="evenodd" clip-rule="evenodd" d="M88.133 54.823c0 .604.502 1.094 1.121 1.094h3.625c.62 0 1.121-.49 1.121-1.094 0-.604-.502-1.094-1.121-1.094h-3.625c-.619 0-1.12.49-1.12 1.094z" fill="url(#paint8_linear_2636_197)"/><path fill-rule="evenodd" clip-rule="evenodd" d="M55.428 75.805a1.141 1.141 0 001.586 0l8.388-8.183a1.075 1.075 0 000-1.547 1.141 1.141 0 00-1.586 0l-7.595 7.41-2.993-2.92a1.14 1.14 0 00-1.586 0 1.075 1.075 0 000 1.546l3.786 3.694z" fill="url(#paint9_linear_2636_197)"/><defs><linearGradient id="paint0_linear_2636_197" x1="59.125" y1="-12.137" x2="76.41" y2="146.851" gradientUnits="userSpaceOnUse"><stop stop-color="#75B7FF"/><stop offset="1" stop-color="#0044E8"/></linearGradient><linearGradient id="paint1_linear_2636_197" x1="63.635" y1="31.851" x2="71.099" y2="99.271" gradientUnits="userSpaceOnUse"><stop stop-color="#75B7FF"/><stop offset="1" stop-color="#0044E8"/></linearGradient><linearGradient id="paint2_linear_2636_197" x1="63.635" y1="31.851" x2="71.099" y2="99.271" gradientUnits="userSpaceOnUse"><stop stop-color="#75B7FF"/><stop offset="1" stop-color="#0044E8"/></linearGradient><linearGradient id="paint3_linear_2636_197" x1="63.635" y1="31.851" x2="71.099" y2="99.271" gradientUnits="userSpaceOnUse"><stop stop-color="#75B7FF"/><stop offset="1" stop-color="#0044E8"/></linearGradient><linearGradient id="paint4_linear_2636_197" x1="63.635" y1="31.851" x2="71.099" y2="99.271" gradientUnits="userSpaceOnUse"><stop stop-color="#75B7FF"/><stop offset="1" stop-color="#0044E8"/></linearGradient><linearGradient id="paint5_linear_2636_197" x1="63.635" y1="31.851" x2="71.099" y2="99.271" gradientUnits="userSpaceOnUse"><stop stop-color="#75B7FF"/><stop offset="1" stop-color="#0044E8"/></linearGradient><linearGradient id="paint6_linear_2636_197" x1="63.635" y1="31.851" x2="71.099" y2="99.271" gradientUnits="userSpaceOnUse"><stop stop-color="#75B7FF"/><stop offset="1" stop-color="#0044E8"/></linearGradient><linearGradient id="paint7_linear_2636_197" x1="63.635" y1="31.851" x2="71.099" y2="99.271" gradientUnits="userSpaceOnUse"><stop stop-color="#75B7FF"/><stop offset="1" stop-color="#0044E8"/></linearGradient><linearGradient id="paint8_linear_2636_197" x1="63.635" y1="31.851" x2="71.099" y2="99.271" gradientUnits="userSpaceOnUse"><stop stop-color="#75B7FF"/><stop offset="1" stop-color="#0044E8"/></linearGradient><linearGradient id="paint9_linear_2636_197" x1="63.635" y1="31.851" x2="71.099" y2="99.271" gradientUnits="userSpaceOnUse"><stop stop-color="#75B7FF"/><stop offset="1" stop-color="#0044E8"/></linearGradient></defs></svg>