<svg width="160" height="96" fill="none" xmlns="http://www.w3.org/2000/svg"><g clip-path="url(#clip0_230_6316)"><path d="M34.44 21.19a27.417 27.417 0 0115.71 4.93 27.52 27.52 0 00-20.16-11.725 27.545 27.545 0 00-21.928 7.948A27.506 27.506 0 00.11 44.256a27.495 27.495 0 0011.734 20.145 27.496 27.496 0 018.336-39.23c4.3-2.603 9.23-3.98 14.258-3.981z" fill="url(#paint0_linear_230_6316)"/><path d="M19.637 46.487a27.369 27.369 0 014.934-15.696 27.516 27.516 0 00-11.693 20.143 27.49 27.49 0 007.956 21.888 27.531 27.531 0 0021.905 7.947 27.542 27.542 0 0020.155-11.69 27.54 27.54 0 01-39.279-8.331 27.493 27.493 0 01-3.978-14.26z" fill="url(#paint1_linear_230_6316)"/><path d="M66.416 53.664a10.388 10.388 0 01-5.769 1.61h-.465a27.54 27.54 0 01-31.366-.053 27.55 27.55 0 0045.445-.313h-7.845v-1.244z" fill="url(#paint2_linear_230_6316)"/><path d="M59.338 34.837c0 1.276-.089 2.55-.264 3.814v5.864a4.782 4.782 0 00.236 1.67 27.506 27.506 0 006.89-20.736A27.495 27.495 0 0055.793 6.234 27.536 27.536 0 0034.65.663a27.54 27.54 0 00-18.537 11.586 27.54 27.54 0 0139.261 8.336 27.493 27.493 0 013.982 14.252h-.018z" fill="url(#paint3_linear_230_6316)"/><path d="M41.553 28.354H29.57v24.444h3.951v-7.371h8.032c5.441 0 9.163-3.138 9.163-8.537 0-5.399-3.722-8.537-9.163-8.537zM41.2 41.888h-7.679v-9.995h7.669c3.686 0 5.582 1.387 5.582 4.997s-1.896 4.998-5.582 4.998h.01zm30.949 10.909V34.664h-3.908v8.977c0 3.937-1.861 5.986-5.875 5.986-3.835 0-5.403-1.711-5.403-5.106v-9.86h-3.908v10.916c0 4.195 2.467 7.586 7.594 7.586 4.674 0 7.08-2.92 7.666-5.987h.218v5.635l3.616-.014zm3.578-18.131v18.133h3.943V42.62c0-3.247 1.276-4.962 4.38-4.962 2.7 0 3.796 1.204 3.796 3.793v1.606h3.905v-2.37c0-3.43-1.787-6.385-5.913-6.385-3.722 0-5.696 2.335-6.242 5.25h-.257v-4.887h-3.612zm37.012 8.244c0-5.508-3.831-8.607-9.456-8.607-5.913 0-9.783 3.793-9.783 9.449 0 6.053 3.908 9.41 9.868 9.41 5.402 0 9.198-2.663 9.198-6.53v-.327h-3.951v.292c0 2.152-1.571 3.392-5.367 3.392-4.197 0-5.914-1.86-6.062-5.364h15.408a8.36 8.36 0 00.145-1.715zm-3.722-.472H97.225c.219-3.247 1.97-5.036 5.991-5.036 3.877 0 5.805 1.606 5.805 4.962l-.004.074z" fill="#83C1FF"/><path d="M89.16 75.44h-.292L80.4 54.974h-4.673l10.438 24.44h5.586l10.443-24.44h-4.638L89.16 75.439z" fill="url(#paint4_linear_230_6316)"/><path d="M112.924 60.922c-5.914 0-9.783 3.793-9.783 9.449 0 6.054 3.904 9.41 9.867 9.41 5.403 0 9.199-2.663 9.199-6.53v-.32h-3.944v.292c0 2.152-1.568 3.392-5.364 3.392-4.197 0-5.913-1.86-6.061-5.364h15.404c.11-.565.16-1.14.148-1.715-.011-5.515-3.845-8.614-9.466-8.614zm5.744 8.135h-11.802c.218-3.247 1.97-5.036 5.991-5.036 3.877 0 5.804 1.606 5.804 4.962l.007.074z" fill="url(#paint5_linear_230_6316)"/><path d="M136.761 60.922c-4.581 0-7.009 2.916-7.555 5.987h-.254v-5.635h-3.616v18.13h3.944v-8.963c0-3.937 1.786-5.987 5.765-5.987 3.761 0 5.287 1.712 5.287 5.107v9.86h3.943V68.505c.007-4.19-2.474-7.582-7.514-7.582z" fill="url(#paint6_linear_230_6316)"/><path d="M159.687 64.57v-3.285h-6.569V37.129a8.098 8.098 0 00-2.374-5.727 8.11 8.11 0 00-5.732-2.373H76.896a27.625 27.625 0 00-9.752-12.093 27.354 27.354 0 014.934 15.626h72.392a4.738 4.738 0 014.736 4.733v24.014h-3.048v3.286h3.066v8.688c0 4.417 2.41 6.128 6.315 6.128h4.162V75.89h-3.284c-2.263 0-3.285-.584-3.285-2.817v-8.501h6.555z" fill="url(#paint7_linear_230_6316)"/></g><path d="M13.73 94.094v-6.108h-1.367v6.108h1.368z" fill="url(#paint8_linear_230_6316)"/><path d="M16.087 94.094v-2.945l-.054-1.121h.091l.775 1.148 2.252 2.918h1.458v-6.108h-1.367v2.944l.064 1.231h-.1l-.84-1.285-2.187-2.89H14.72v6.108h1.367z" fill="url(#paint9_linear_230_6316)"/><path d="M24.626 94.094c1.96 0 3.2-1.14 3.2-3.054 0-1.915-1.24-3.054-3.2-3.054H21.68v6.108h2.945zm0-4.878c1.24 0 1.741.356 1.741 1.824 0 1.467-.501 1.823-1.741 1.823h-1.577v-3.647h1.577z" fill="url(#paint10_linear_230_6316)"/><path d="M31.838 94.185c2.07 0 3.318-1.24 3.318-3.145 0-1.906-1.249-3.146-3.318-3.146-2.024 0-3.282 1.24-3.282 3.146 0 1.905 1.258 3.145 3.282 3.145zm0-1.313c-1.34 0-1.833-.474-1.833-1.832 0-1.359.492-1.833 1.833-1.833 1.34 0 1.86.474 1.86 1.833 0 1.358-.52 1.832-1.86 1.832z" fill="url(#paint11_linear_230_6316)"/><path d="M39.171 94.185c2.07 0 3.319-1.24 3.319-3.145 0-1.906-1.25-3.146-3.319-3.146-2.024 0-3.282 1.24-3.282 3.146 0 1.905 1.258 3.145 3.282 3.145zm0-1.313c-1.34 0-1.832-.474-1.832-1.832 0-1.359.492-1.833 1.832-1.833s1.86.474 1.86 1.833c0 1.358-.52 1.832-1.86 1.832z" fill="url(#paint12_linear_230_6316)"/><path d="M44.727 94.094v-2.216h.902c.711 0 .94.155 1.186.63l.838 1.586h1.586l-.884-1.641c-.228-.429-.438-.72-.984-.866v-.073c1.148-.11 1.723-.702 1.723-1.696 0-1.167-.857-1.832-2.362-1.832H43.36v6.108h1.368zm0-4.878h1.996c.648 0 .94.21.94.812 0 .638-.292.82-.94.82h-1.996v-1.632z" fill="url(#paint13_linear_230_6316)"/><path d="M52.746 94.094l.584-1.35h3.054l.574 1.35h1.568l-2.69-6.108h-1.95l-2.671 6.108h1.531zm1.687-3.911l.374-.948h.1l.374.948.574 1.33H53.86l.574-1.33z" fill="url(#paint14_linear_230_6316)"/><path d="M60.486 94.094v-6.108H59.12v6.108h1.367z" fill="url(#paint15_linear_230_6316)"/><path d="M62.843 94.094v-2.216h.902c.712 0 .94.155 1.186.63l.838 1.586h1.587l-.885-1.641c-.228-.429-.437-.72-.984-.866v-.073c1.148-.11 1.723-.702 1.723-1.696 0-1.167-.857-1.832-2.361-1.832h-3.374v6.108h1.368zm0-4.878h1.996c.648 0 .94.21.94.812 0 .638-.292.82-.94.82h-1.996v-1.632z" fill="url(#paint16_linear_230_6316)"/><path d="M75.339 95.38l-1.213-1.368c1.322-.401 2.079-1.486 2.079-2.972 0-1.906-1.25-3.146-3.319-3.146-2.023 0-3.282 1.24-3.282 3.146 0 1.814 1.14 3.026 3.009 3.136l.948 1.203h1.778zm-2.453-2.508c-1.34 0-1.832-.474-1.832-1.832 0-1.359.492-1.833 1.832-1.833s1.86.474 1.86 1.833c0 1.358-.52 1.832-1.86 1.832z" fill="url(#paint17_linear_230_6316)"/><path d="M80.028 94.185c1.997 0 3-1.003 3-2.644v-3.555H81.66v3.455c0 1.04-.383 1.413-1.632 1.413-1.24 0-1.632-.374-1.632-1.413v-3.455H77.03v3.555c0 1.641 1.012 2.644 3 2.644z" fill="url(#paint18_linear_230_6316)"/><path d="M85.11 94.094l.584-1.35h3.054l.575 1.35h1.568l-2.69-6.108h-1.95l-2.672 6.108h1.532zm1.688-3.911l.373-.948h.1l.374.948.575 1.33h-1.997l.575-1.33z" fill="url(#paint19_linear_230_6316)"/><path d="M96.488 94.094v-1.231h-3.637v-4.877h-1.368v6.108h5.005z" fill="url(#paint20_linear_230_6316)"/><path d="M98.68 94.094v-6.108h-1.368v6.108h1.368z" fill="url(#paint21_linear_230_6316)"/><path d="M103.069 94.094v-4.878h2.27v-1.23h-5.907v1.23h2.27v4.878h1.367z" fill="url(#paint22_linear_230_6316)"/><path d="M109.722 94.094v-2.015l2.754-4.093h-1.696l-1.167 1.786-.511.821h-.1l-.51-.82-1.167-1.787h-1.687l2.708 4.084v2.024h1.376z" fill="url(#paint23_linear_230_6316)"/><path d="M119.858 94.094v-1.231h-3.801v-1.23h3.665V90.41h-3.665v-1.195h3.801v-1.23h-5.169v6.108h5.169z" fill="url(#paint24_linear_230_6316)"/><path d="M122.126 94.094l1.659-2.206h.101l1.705 2.206h1.786l-2.37-2.99v-.1l2.37-3.018h-1.786l-1.651 2.178h-.1l-1.714-2.178h-1.787l2.38 2.99v.1l-2.38 3.018h1.787z" fill="url(#paint25_linear_230_6316)"/><path d="M129.335 94.094v-1.687h1.823c1.413 0 2.325-.811 2.325-2.215s-.912-2.206-2.325-2.206h-3.191v6.108h1.368zm1.677-4.878c.757 0 1.112.228 1.112.976 0 .766-.355.985-1.112.985h-1.677v-1.96h1.677z" fill="url(#paint26_linear_230_6316)"/><path d="M139.41 94.094v-1.231h-3.801v-1.23h3.665V90.41h-3.665v-1.195h3.801v-1.23h-5.169v6.108h5.169z" fill="url(#paint27_linear_230_6316)"/><path d="M141.669 94.094v-2.216h.903c.711 0 .939.155 1.185.63l.839 1.586h1.586l-.885-1.641c-.227-.429-.437-.72-.984-.866v-.073c1.149-.11 1.723-.702 1.723-1.696 0-1.167-.857-1.832-2.361-1.832h-3.373v6.108h1.367zm0-4.878h1.997c.647 0 .939.21.939.812 0 .638-.292.82-.939.82h-1.997v-1.632z" fill="url(#paint28_linear_230_6316)"/><path d="M150.288 94.094v-4.878h2.27v-1.23h-5.908v1.23h2.27v4.878h1.368z" fill="url(#paint29_linear_230_6316)"/><path d="M156.093 94.185c1.942 0 2.717-.894 2.717-1.887 0-.839-.493-1.504-1.86-1.723l-1.714-.274c-.511-.09-.711-.219-.711-.574 0-.392.301-.584 1.285-.584 1.213 0 1.514.247 1.514.83v.128h1.376v-.055c0-1.285-.875-2.152-2.753-2.152-2.051 0-2.799.967-2.799 1.888 0 .993.648 1.54 1.742 1.714l1.713.246c.629.11.839.246.839.62 0 .41-.255.574-1.349.574-1.24 0-1.523-.228-1.523-.793v-.164h-1.367v.054c0 1.423 1.039 2.152 2.89 2.152z" fill="url(#paint30_linear_230_6316)"/><defs><linearGradient id="paint0_linear_230_6316" x1="-.535" y1="-9.83" x2="61.452" y2="104.699" gradientUnits="userSpaceOnUse"><stop stop-color="#001AFF"/><stop offset=".92" stop-color="#65AFFF"/></linearGradient><linearGradient id="paint1_linear_230_6316" x1="-2.118" y1="-8.973" x2="59.869" y2="105.555" gradientUnits="userSpaceOnUse"><stop stop-color="#001AFF"/><stop offset=".92" stop-color="#65AFFF"/></linearGradient><linearGradient id="paint2_linear_230_6316" x1="12.538" y1="-16.905" x2="74.525" y2="97.62" gradientUnits="userSpaceOnUse"><stop stop-color="#001AFF"/><stop offset=".92" stop-color="#65AFFF"/></linearGradient><linearGradient id="paint3_linear_230_6316" x1="20.628" y1="-21.282" x2="82.615" y2="93.243" gradientUnits="userSpaceOnUse"><stop stop-color="#001AFF"/><stop offset=".92" stop-color="#65AFFF"/></linearGradient><linearGradient id="paint4_linear_230_6316" x1="191.695" y1="87.854" x2="5.99" y2="48.456" gradientUnits="userSpaceOnUse"><stop offset=".51" stop-color="#001A7A"/><stop offset=".92" stop-color="#65AFFF"/></linearGradient><linearGradient id="paint5_linear_230_6316" x1="191.86" y1="87.071" x2="6.158" y2="47.673" gradientUnits="userSpaceOnUse"><stop offset=".51" stop-color="#001A7A"/><stop offset=".92" stop-color="#65AFFF"/></linearGradient><linearGradient id="paint6_linear_230_6316" x1="192.698" y1="83.119" x2="6.997" y2="43.718" gradientUnits="userSpaceOnUse"><stop offset=".51" stop-color="#001A7A"/><stop offset=".92" stop-color="#65AFFF"/></linearGradient><linearGradient id="paint7_linear_230_6316" x1="196.734" y1="64.099" x2="11.033" y2="24.697" gradientUnits="userSpaceOnUse"><stop offset=".51" stop-color="#001A7A"/><stop offset=".92" stop-color="#65AFFF"/></linearGradient><linearGradient id="paint8_linear_230_6316" x1="-31.132" y1="81.952" x2="-30.52" y2="104.064" gradientUnits="userSpaceOnUse"><stop stop-color="#001AFF"/><stop offset=".92" stop-color="#65AFFF"/></linearGradient><linearGradient id="paint9_linear_230_6316" x1="-31.132" y1="81.952" x2="-30.52" y2="104.064" gradientUnits="userSpaceOnUse"><stop stop-color="#001AFF"/><stop offset=".92" stop-color="#65AFFF"/></linearGradient><linearGradient id="paint10_linear_230_6316" x1="-31.132" y1="81.952" x2="-30.52" y2="104.064" gradientUnits="userSpaceOnUse"><stop stop-color="#001AFF"/><stop offset=".92" stop-color="#65AFFF"/></linearGradient><linearGradient id="paint11_linear_230_6316" x1="-31.132" y1="81.952" x2="-30.52" y2="104.064" gradientUnits="userSpaceOnUse"><stop stop-color="#001AFF"/><stop offset=".92" stop-color="#65AFFF"/></linearGradient><linearGradient id="paint12_linear_230_6316" x1="-31.132" y1="81.952" x2="-30.52" y2="104.064" gradientUnits="userSpaceOnUse"><stop stop-color="#001AFF"/><stop offset=".92" stop-color="#65AFFF"/></linearGradient><linearGradient id="paint13_linear_230_6316" x1="-31.132" y1="81.952" x2="-30.52" y2="104.064" gradientUnits="userSpaceOnUse"><stop stop-color="#001AFF"/><stop offset=".92" stop-color="#65AFFF"/></linearGradient><linearGradient id="paint14_linear_230_6316" x1="-31.132" y1="81.952" x2="-30.52" y2="104.064" gradientUnits="userSpaceOnUse"><stop stop-color="#001AFF"/><stop offset=".92" stop-color="#65AFFF"/></linearGradient><linearGradient id="paint15_linear_230_6316" x1="-31.132" y1="81.952" x2="-30.52" y2="104.064" gradientUnits="userSpaceOnUse"><stop stop-color="#001AFF"/><stop offset=".92" stop-color="#65AFFF"/></linearGradient><linearGradient id="paint16_linear_230_6316" x1="-31.132" y1="81.952" x2="-30.52" y2="104.064" gradientUnits="userSpaceOnUse"><stop stop-color="#001AFF"/><stop offset=".92" stop-color="#65AFFF"/></linearGradient><linearGradient id="paint17_linear_230_6316" x1="-31.132" y1="81.952" x2="-30.52" y2="104.064" gradientUnits="userSpaceOnUse"><stop stop-color="#001AFF"/><stop offset=".92" stop-color="#65AFFF"/></linearGradient><linearGradient id="paint18_linear_230_6316" x1="-31.132" y1="81.952" x2="-30.52" y2="104.064" gradientUnits="userSpaceOnUse"><stop stop-color="#001AFF"/><stop offset=".92" stop-color="#65AFFF"/></linearGradient><linearGradient id="paint19_linear_230_6316" x1="-31.132" y1="81.952" x2="-30.52" y2="104.064" gradientUnits="userSpaceOnUse"><stop stop-color="#001AFF"/><stop offset=".92" stop-color="#65AFFF"/></linearGradient><linearGradient id="paint20_linear_230_6316" x1="-31.132" y1="81.952" x2="-30.52" y2="104.064" gradientUnits="userSpaceOnUse"><stop stop-color="#001AFF"/><stop offset=".92" stop-color="#65AFFF"/></linearGradient><linearGradient id="paint21_linear_230_6316" x1="-31.132" y1="81.952" x2="-30.52" y2="104.064" gradientUnits="userSpaceOnUse"><stop stop-color="#001AFF"/><stop offset=".92" stop-color="#65AFFF"/></linearGradient><linearGradient id="paint22_linear_230_6316" x1="-31.132" y1="81.952" x2="-30.52" y2="104.064" gradientUnits="userSpaceOnUse"><stop stop-color="#001AFF"/><stop offset=".92" stop-color="#65AFFF"/></linearGradient><linearGradient id="paint23_linear_230_6316" x1="-31.132" y1="81.952" x2="-30.52" y2="104.064" gradientUnits="userSpaceOnUse"><stop stop-color="#001AFF"/><stop offset=".92" stop-color="#65AFFF"/></linearGradient><linearGradient id="paint24_linear_230_6316" x1="-31.132" y1="81.952" x2="-30.52" y2="104.064" gradientUnits="userSpaceOnUse"><stop stop-color="#001AFF"/><stop offset=".92" stop-color="#65AFFF"/></linearGradient><linearGradient id="paint25_linear_230_6316" x1="-31.132" y1="81.952" x2="-30.52" y2="104.064" gradientUnits="userSpaceOnUse"><stop stop-color="#001AFF"/><stop offset=".92" stop-color="#65AFFF"/></linearGradient><linearGradient id="paint26_linear_230_6316" x1="-31.132" y1="81.952" x2="-30.52" y2="104.064" gradientUnits="userSpaceOnUse"><stop stop-color="#001AFF"/><stop offset=".92" stop-color="#65AFFF"/></linearGradient><linearGradient id="paint27_linear_230_6316" x1="-31.132" y1="81.952" x2="-30.52" y2="104.064" gradientUnits="userSpaceOnUse"><stop stop-color="#001AFF"/><stop offset=".92" stop-color="#65AFFF"/></linearGradient><linearGradient id="paint28_linear_230_6316" x1="-31.132" y1="81.952" x2="-30.52" y2="104.064" gradientUnits="userSpaceOnUse"><stop stop-color="#001AFF"/><stop offset=".92" stop-color="#65AFFF"/></linearGradient><linearGradient id="paint29_linear_230_6316" x1="-31.132" y1="81.952" x2="-30.52" y2="104.064" gradientUnits="userSpaceOnUse"><stop stop-color="#001AFF"/><stop offset=".92" stop-color="#65AFFF"/></linearGradient><linearGradient id="paint30_linear_230_6316" x1="-31.132" y1="81.952" x2="-30.52" y2="104.064" gradientUnits="userSpaceOnUse"><stop stop-color="#001AFF"/><stop offset=".92" stop-color="#65AFFF"/></linearGradient><clipPath id="clip0_230_6316"><path fill="#fff" d="M0 0h160v81H0z"/></clipPath></defs></svg>