<svg width="86" height="86" fill="none" xmlns="http://www.w3.org/2000/svg"><mask id="mask0_230_6336" style="mask-type:luminance" maskUnits="userSpaceOnUse" x="0" y="0" width="86" height="86"><path d="M0 0h86v86H0V0z" fill="#fff"/></mask><g mask="url(#mask0_230_6336)"><path fill-rule="evenodd" clip-rule="evenodd" d="M35.288 85.84a1.695 1.695 0 01-2.428-1.765l1.25-8.51-6.02-6.152a1.695 1.695 0 01.927-2.856l8.49-1.44 3.993-7.622a1.695 1.695 0 013.002 0l3.993 7.622 8.486 1.44a1.694 1.694 0 01.927 2.856l-6.015 6.15 1.25 8.512a1.694 1.694 0 01-2.428 1.765L43 82.022l-7.713 3.818zm2.296-10.614l-.902 6.142 5.567-2.755a1.695 1.695 0 011.504 0l5.567 2.755-.902-6.142a1.695 1.695 0 01.465-1.431l4.34-4.438-6.123-1.04a1.694 1.694 0 01-1.217-.883L43 61.932l-2.882 5.5a1.694 1.694 0 01-1.217.885l-6.126 1.039 4.343 4.437c.37.379.542.908.465 1.432zM24.04 45.748c10.47 10.47 27.454 10.47 37.924 0 8.49-8.484 10.098-21.237 4.83-31.34a1.694 1.694 0 00-3.005 1.567c4.603 8.828 3.192 19.968-4.22 27.376l-.039.039c-.94-4.537-3.717-8.414-7.503-10.826 1.627-2 2.602-4.552 2.602-7.331 0-6.416-5.203-11.622-11.627-11.622-6.422 0-11.631 5.204-11.631 11.622 0 2.78.975 5.33 2.603 7.331-3.784 2.412-6.56 6.29-7.5 10.826l-.038-.038c-9.151-9.147-9.151-23.972 0-33.119 7.413-7.409 18.568-8.82 27.401-4.21a1.694 1.694 0 101.568-3.004C45.296-2.256 32.528-.648 24.039 7.836c-10.475 10.47-10.475 27.442 0 37.912zm13.764-14.122l.019.014.043.036a8.21 8.21 0 005.136 1.795 8.203 8.203 0 005.227-1.87A8.236 8.236 0 0043.001 17c-4.553 0-8.242 3.69-8.242 8.233a8.22 8.22 0 003.044 6.393zm11.593 3.32a11.574 11.574 0 01-6.395 1.913 11.58 11.58 0 01-6.397-1.915c-3.986 2.167-6.77 6.275-7.064 11.02 8.05 5.663 18.873 5.663 26.923 0-.295-4.744-3.079-8.852-7.067-11.019zm12.121-24.381a1.695 1.695 0 00.774-2.268l-.005-.01a1.694 1.694 0 10-3.042 1.495l.005.01a1.695 1.695 0 002.268.773zm-52.944 58.2c.51.37 1.183.428 1.748.148l5.355-2.651 5.356 2.651a1.694 1.694 0 002.428-1.765l-.869-5.906 4.177-4.27a1.694 1.694 0 00-.928-2.856l-5.894-1.002-2.769-5.289a1.694 1.694 0 00-3.002 0l-2.773 5.289-5.89 1.002a1.694 1.694 0 00-.927 2.855l4.176 4.27-.868 5.907c-.092.624.17 1.247.68 1.617zm3.143-4.324l.52-3.537a1.694 1.694 0 00-.465-1.431L9.27 56.914l3.528-.6a1.694 1.694 0 001.217-.883l1.661-3.169 1.658 3.168c.246.468.696.796 1.218.884l3.532.6-2.502 2.559c-.37.378-.542.907-.465 1.43l.52 3.538-3.208-1.588a1.694 1.694 0 00-1.504 0l-3.208 1.588zm53.255 4.472a1.694 1.694 0 01-2.429-1.765l.87-5.906-4.177-4.27a1.694 1.694 0 01.927-2.856l5.89-1.002 2.773-5.29a1.695 1.695 0 013.002 0l2.773 5.29 5.89 1.002a1.694 1.694 0 01.928 2.855l-4.177 4.27.869 5.907a1.694 1.694 0 01-2.428 1.765l-5.356-2.651-5.355 2.651zm1.915-8.01l-.52 3.538 3.208-1.588a1.694 1.694 0 011.504 0l3.208 1.588-.52-3.537a1.694 1.694 0 01.465-1.431l2.502-2.559-3.528-.6a1.694 1.694 0 01-1.216-.883l-1.663-3.171-1.662 3.17a1.694 1.694 0 01-1.217.884l-3.528.6 2.502 2.559c.37.378.542.907.465 1.43z" fill="url(#paint0_linear_230_6336)"/></g><defs><linearGradient id="paint0_linear_230_6336" x1="38.949" y1="-4.786" x2="27.58" y2="89.778" gradientUnits="userSpaceOnUse"><stop stop-color="#75B7FF"/><stop offset="1" stop-color="#0044E8"/></linearGradient></defs></svg>