<svg width="86" height="86" fill="none" xmlns="http://www.w3.org/2000/svg"><g clip-path="url(#clip0_230_6378)"><path fill-rule="evenodd" clip-rule="evenodd" d="M43 0a1.68 1.68 0 00-1.68 1.68v7.19a1.68 1.68 0 103.36 0V1.68A1.68 1.68 0 0043 0zm34.02 57.14l-5.606-1.34v-1.97c3.097-1.828 5.18-5.199 5.18-9.048V37.35c0-5.793-4.713-10.505-10.505-10.505h-1.162a10.48 10.48 0 00-7.8 3.478c-1.863-6.031-7.49-10.426-14.125-10.426S30.74 24.292 28.876 30.323a10.48 10.48 0 00-7.8-3.478h-1.162c-5.792 0-10.504 4.712-10.504 10.505v7.432c0 3.849 2.082 7.22 5.179 9.049V55.8l-5.606 1.34a11.66 11.66 0 00-8.98 11.376v5.056c0 .927.753 1.68 1.68 1.68H15.25a15.871 15.871 0 00-.129 2.019v5.37H5.043a1.68 1.68 0 000 3.36H80.96a1.68 1.68 0 000-3.36H70.883V77.28c0-.686-.044-1.363-.13-2.027H84.32a1.68 1.68 0 001.679-1.68v-5.056A11.659 11.659 0 0077.02 57.14zM57.782 37.35c0-3.94 3.205-7.146 7.145-7.146h1.162c3.94 0 7.146 3.206 7.146 7.145v.431a12.681 12.681 0 01-6.807-2.074 1.678 1.678 0 00-1.84 0 12.68 12.68 0 01-6.806 2.074v-.43zm0 6.062V41.14a16.026 16.026 0 007.726-2.063 16.024 16.024 0 007.726 2.063v3.642a7.153 7.153 0 01-7.145 7.145h-1.162a7.153 7.153 0 01-7.145-7.145v-1.37zm3.221 19.332a15.842 15.842 0 00-2.12-.67L53.545 60.8a8.334 8.334 0 011.226-.397l5.305-1.272.927 3.614zm-1.39-8.907v1.95l-5.625 1.348a11.671 11.671 0 00-3.42 1.423v-2.455a14.889 14.889 0 005.47-5.734 10.581 10.581 0 003.575 3.468zm-5.19-10.425c0 6.297-5.123 11.42-11.421 11.42-6.298 0-11.421-5.123-11.421-11.42v-4.92h1.846c4.715 0 9.208-1.505 12.9-4.238l.386.576a8.233 8.233 0 006.855 3.662h.855v4.92zM31.58 34.678c0-6.298 5.124-11.421 11.422-11.421 6.297 0 11.42 5.123 11.42 11.42v.455h-.855a4.879 4.879 0 01-4.063-2.17l-.62-.929c.503-.51.985-1.048 1.442-1.613a1.68 1.68 0 10-2.612-2.111 18.29 18.29 0 01-14.288 6.823H31.58v-.454zm-1.616 15.691a14.89 14.89 0 005.486 5.744v2.455a11.675 11.675 0 00-3.435-1.432l-5.625-1.348v-1.95a10.587 10.587 0 003.574-3.469zm2.476 10.423l-5.33 1.277c-.727.174-1.43.4-2.108.666l.925-3.604 5.305 1.271c.414.1.818.23 1.208.39zM12.77 37.349c-.001-3.94 3.204-7.145 7.144-7.145h1.162c3.94 0 7.145 3.206 7.145 7.145v.431a12.681 12.681 0 01-6.806-2.074 1.678 1.678 0 00-1.84 0 12.68 12.68 0 01-6.806 2.074v-.43zm-.001 7.433V41.14a16.027 16.027 0 007.726-2.063 16.024 16.024 0 007.726 2.063v3.642a7.153 7.153 0 01-7.145 7.145h-1.162a7.153 7.153 0 01-7.145-7.145zm3.299 27.111H3.363v-3.377a8.31 8.31 0 016.4-8.11l5.289-1.263 2.498 9.74a15.536 15.536 0 00-1.482 3.01zm1.88-16.794c.637.121 1.294.187 1.966.187h1.162a10.5 10.5 0 001.955-.185V56.9l-2.105 8.203c-.246.198-.487.4-.72.613l-2.258-8.803V55.1zm.532 27.543v-5.371c0-4.073 1.977-7.741 5.129-9.988l15.359 15.359H18.479zm8.267-16.971c.373-.128.755-.242 1.145-.335l8.022-1.922 3.942 15.366-13.109-13.11zm12.062-4.488v-3.597a14.74 14.74 0 004.193.606c1.46 0 2.873-.214 4.207-.61v3.62l-4.197 16.36-4.203-16.379zm11.296 2.248l7.997 1.911c.403.096.795.213 1.179.346l-13.12 13.12 3.944-15.377zm17.419 19.211H47.078l15.336-15.337a12.23 12.23 0 015.11 9.974v5.363zm.531-25.728l-2.26 8.808c-.23-.21-.471-.413-.716-.61L62.972 56.9v-1.799a10.5 10.5 0 001.955.185h1.162c.672 0 1.33-.066 1.966-.187v1.815zM82.64 71.893H69.933a15.554 15.554 0 00-1.482-3.006l2.5-9.744 5.289 1.264a8.31 8.31 0 016.4 8.109v3.377zM43 13.032c.442 0 .876.18 1.188.492.312.312.492.744.492 1.187 0 .442-.18.874-.492 1.188A1.692 1.692 0 0143 16.39c-.441 0-.875-.18-1.187-.492a1.692 1.692 0 01-.492-1.188c0-.443.18-.875.492-1.187A1.69 1.69 0 0143 13.032zm-11.17.873l-6.224-6.222a1.68 1.68 0 00-2.375 2.376l6.224 6.222c.328.328.758.492 1.187.492a1.68 1.68 0 001.187-2.868zM60.645 7.42a1.68 1.68 0 012.376 2.376l-6.602 6.602a1.675 1.675 0 01-1.188.492 1.68 1.68 0 01-1.188-2.867l6.602-6.603z" fill="url(#paint0_linear_230_6378)"/></g><defs><linearGradient id="paint0_linear_230_6378" x1="38.522" y1="-7.907" x2="49.785" y2="95.676" gradientUnits="userSpaceOnUse"><stop stop-color="#75B7FF"/><stop offset="1" stop-color="#0044E8"/></linearGradient><clipPath id="clip0_230_6378"><path fill="#fff" d="M0 0h86v86H0z"/></clipPath></defs></svg>