<svg width="86" height="86" fill="none" xmlns="http://www.w3.org/2000/svg"><path fill-rule="evenodd" clip-rule="evenodd" d="M14.781 4.031c.414 0 .805.191 1.06.518 0 0 4.033 5.18 6.453 9.84 1.136 2.184 1.893 4.281 1.893 5.767 0 5.191-4.215 9.407-9.406 9.407-5.19 0-9.406-4.216-9.406-9.407 0-1.486.758-3.583 1.893-5.767 2.42-4.66 6.453-9.84 6.453-9.84a1.346 1.346 0 011.06-.518zm-1.994 18.484c.585-1.023 1.37-2.103 1.994-2.908.624.805 1.41 1.885 1.994 2.908.369.645.694 1.234.694 1.672a2.689 2.689 0 01-5.375 0c0-.438.325-1.027.693-1.672zm8.713-2.359c0 1.512-.5 2.907-1.344 4.03 0-.771-.4-1.873-1.048-3.006-1.24-2.171-3.307-4.586-3.307-4.586a1.346 1.346 0 00-2.04 0s-2.066 2.415-3.307 4.586c-.647 1.133-1.048 2.235-1.048 3.006a6.686 6.686 0 01-1.344-4.03c0-1.174.694-2.801 1.59-4.528 1.559-3 3.815-6.222 5.13-8.014 1.313 1.792 3.57 5.015 5.128 8.014.897 1.727 1.59 3.354 1.59 4.528zm14.781-9.406a1.344 1.344 0 102.688 0 1.344 1.344 0 00-2.688 0zm6.717 6.719c-4.13 0-8.033.982-11.488 2.729a1.345 1.345 0 01-1.212-2.4 28.092 28.092 0 0112.7-3.017c15.575 0 28.218 12.643 28.218 28.219 0 4.566-1.087 8.88-3.016 12.7a1.345 1.345 0 01-2.4-1.213A25.385 25.385 0 0068.529 43c0-14.091-11.44-25.531-25.531-25.531zM20.156 43.002C20.156 30.394 30.39 20.16 43 20.16c12.608 0 22.842 10.234 22.842 22.842 0 12.609-10.234 22.845-22.842 22.845-12.609 0-22.843-10.236-22.843-22.845zm42.998 0c0-11.125-9.03-20.155-20.155-20.155-11.125 0-20.155 9.03-20.155 20.155 0 11.125 9.03 20.158 20.155 20.158 11.125 0 20.155-9.033 20.155-20.158zm-8.667 22.799A25.385 25.385 0 0143 68.53c-14.091 0-25.531-11.44-25.531-25.532 0-3.142.567-6.155 1.61-8.935a1.345 1.345 0 00-2.517-.944A28.16 28.16 0 0014.781 43c0 15.575 12.642 28.219 28.218 28.219a28.09 28.09 0 0012.7-3.016 1.345 1.345 0 00-1.213-2.401zm11.357-3.99v2.365l-2.01-1.173a1.342 1.342 0 00-1.844.494l-2.687 4.702a1.343 1.343 0 00.489 1.828l2.041 1.191-2.041 1.192a1.343 1.343 0 00-.49 1.827l2.688 4.703a1.342 1.342 0 001.844.493l2.01-1.173v2.365c0 .741.602 1.343 1.344 1.343h5.375c.742 0 1.344-.602 1.344-1.343V78.26l2.01 1.173a1.343 1.343 0 001.844-.493l2.687-4.703a1.343 1.343 0 00-.49-1.827l-2.04-1.192 2.04-1.191a1.343 1.343 0 00.49-1.828l-2.687-4.702a1.342 1.342 0 00-1.844-.494l-2.01 1.173v-2.364c0-.742-.602-1.343-1.344-1.343h-5.375c-.742 0-1.344.601-1.344 1.343zm2.688 1.345h2.687v3.36a1.343 1.343 0 002.021 1.16l2.86-1.669 1.354 2.37-2.88 1.68a1.345 1.345 0 000 2.322l2.88 1.68-1.354 2.37-2.86-1.668a1.345 1.345 0 00-2.02 1.16v3.36h-2.688v-3.36a1.343 1.343 0 00-2.021-1.16l-2.86 1.668-1.354-2.37 2.88-1.68a1.345 1.345 0 000-2.322l-2.88-1.68 1.354-2.37 2.86 1.668a1.345 1.345 0 002.02-1.16v-3.36zm-29.75-23.487a2.862 2.862 0 00-.273-2.066l-1.266-2.29a6.582 6.582 0 01-.824-3.192c0-3.638 2.95-6.59 6.582-6.59 3.632 0 6.582 2.953 6.582 6.59a6.58 6.58 0 01-.824 3.193l-1.266 2.29a2.863 2.863 0 00-.274 2.065c.326.414.594.875.789 1.373.51.493 1.196.785 1.924.798l2.613.047c1.117.02 2.21.324 3.176.882a6.6 6.6 0 012.41 9.002 6.582 6.582 0 01-11.343.1L45.44 49.63a2.846 2.846 0 00-1.75-1.298 5.314 5.314 0 01-1.378 0 2.846 2.846 0 00-1.75 1.298l-1.348 2.242a6.582 6.582 0 01-11.343-.1 6.6 6.6 0 012.41-9.002 6.589 6.589 0 013.175-.882l2.614-.047a2.846 2.846 0 001.924-.798 5.36 5.36 0 01.789-1.373zm9.449 4.574a5.356 5.356 0 01-1.575 2.695c.422.373.79.81 1.088 1.307l1.348 2.244a3.894 3.894 0 006.71-.06 3.909 3.909 0 00-1.426-5.333 3.89 3.89 0 00-1.877-.522l-2.614-.046a5.543 5.543 0 01-1.654-.285zm-10.46 0a5.543 5.543 0 01-1.654.285l-2.614.046a3.89 3.89 0 00-1.877.522 3.909 3.909 0 00-1.426 5.332 3.894 3.894 0 006.71.06l1.347-2.243a5.566 5.566 0 011.089-1.306 5.355 5.355 0 01-1.575-2.696zm5.23-3.93a2.688 2.688 0 010 5.374 2.688 2.688 0 010-5.374zm1.564-2.457c.111-.536.304-1.06.577-1.552l1.265-2.291a3.9 3.9 0 00-3.406-5.794 3.9 3.9 0 00-3.894 3.902c0 .662.168 1.313.487 1.892l1.266 2.291c.273.492.465 1.016.577 1.552A5.365 5.365 0 0143 37.625c.544 0 1.07.08 1.564.231zm4.76 38.344a1.344 1.344 0 10-1.9-1.9 1.344 1.344 0 001.9 1.9zM43 76.594h-5.375a1.344 1.344 0 010-2.688H43a1.344 1.344 0 010 2.688zm5.375-67.188H43a1.344 1.344 0 000 2.688h5.375a1.344 1.344 0 000-2.688zM8.062 6.72a1.344 1.344 0 11-2.687 0 1.344 1.344 0 012.688 0zm15.732.95a1.344 1.344 0 10-1.9-1.9 1.344 1.344 0 001.9 1.9z" fill="url(#paint0_linear_230_6358)"/><defs><linearGradient id="paint0_linear_230_6358" x1="39.081" y1="-3.135" x2="49.642" y2="90.656" gradientUnits="userSpaceOnUse"><stop stop-color="#75B7FF"/><stop offset="1" stop-color="#0044E8"/></linearGradient></defs></svg>