<svg width="86" height="86" fill="none" xmlns="http://www.w3.org/2000/svg"><path fill-rule="evenodd" clip-rule="evenodd" d="M72.563 4.031h4.03a6.726 6.726 0 016.72 6.719v45.688a6.726 6.726 0 01-6.72 6.718H71.22V60.47h5.375a4.031 4.031 0 000-8.063h-4.031a1.344 1.344 0 01-1.344-1.343V13.437H14.78v37.626a1.344 1.344 0 01-1.344 1.343h-4.03a4.031 4.031 0 000 8.063h2.687v2.687H9.406a6.726 6.726 0 01-6.719-6.718V10.75a6.726 6.726 0 016.72-6.719h4.03a1.344 1.344 0 011.344 1.344v5.375H71.22V5.375a1.344 1.344 0 011.344-1.344zM9.406 49.72h2.688v-43H9.406a4.036 4.036 0 00-4.031 4.031v40.316a6.684 6.684 0 014.031-1.347zm64.5 0h2.688a6.684 6.684 0 014.031 1.347V10.75a4.036 4.036 0 00-4.031-4.031h-2.688v43zm-41.882-1.276a14.612 14.612 0 01-2.462-8.13 13.437 13.437 0 1126.875 0 14.611 14.611 0 01-2.461 8.13l-2.913 4.37v10.343c0 .209-.05.414-.143.6v.001l-2.687 5.375a1.344 1.344 0 01-1.202.743H38.97a1.344 1.344 0 01-1.202-.743l-2.688-5.375h.001a1.335 1.335 0 01-.142-.6V52.812l-2.914-4.37zm10.17-4.368l-2.562-1.921 1.782 8.908h3.172l1.782-8.908-2.562 1.921a1.343 1.343 0 01-1.612 0zm6.181 17.737V53.75h-10.75v8.063h10.75zm2.223-29.097A10.762 10.762 0 0043 29.562a10.762 10.762 0 00-10.75 10.75 11.933 11.933 0 002.01 6.64l2.74 4.11h1.673l-2.366-11.83a1.345 1.345 0 012.124-1.338L43 41.32l4.569-3.426a1.343 1.343 0 012.124 1.338l-2.366 11.83H49l2.74-4.11a11.933 11.933 0 002.01-6.64 10.762 10.762 0 00-3.152-7.597zm-47.91 45.06a4.199 4.199 0 004.194 4.194h19.993a5.381 5.381 0 005.375-5.375v-17.7a5.145 5.145 0 00-8.782-3.637L3.916 74.809a4.167 4.167 0 00-1.228 2.966zm22.68-20.618a2.457 2.457 0 014.195 1.738v1.574h-2.688v2.687h2.688v2.688h-2.688v2.687h2.688v2.688h-2.688v2.687h2.688v2.688a2.69 2.69 0 01-2.688 2.687h-2.688v-2.687H21.5v2.687h-2.688v-2.687h-2.687v2.687h-2.688v-2.687H10.75v2.687H6.882a1.506 1.506 0 01-1.066-2.572l19.552-19.552zm-2.524 16.75h-6.719a1.345 1.345 0 01-.95-2.295l6.718-6.718a1.344 1.344 0 012.294.95v6.719a1.344 1.344 0 01-1.343 1.343zm-1.344-2.69v-2.131l-2.131 2.13H21.5zm36.281-26.875v29.562c0 .244.066.483.192.692l4.03 6.718a1.344 1.344 0 002.306 0l4.03-6.718c.126-.21.192-.448.192-.692V44.344A1.344 1.344 0 0067.187 43h-8.062a1.344 1.344 0 00-1.344 1.344zM64.5 72.562V55.094h1.344v17.468H64.5zm-4.031 0V55.094h1.343v17.468H60.47zM38.455 64.5l1.344 2.688h6.402l1.343-2.688h-9.088zM60.47 52.406v-1.343h5.375v1.343H60.47zm2.687 25.607l-1.658-2.763h3.316l-1.658 2.763zm2.688-32.326v2.688H60.47v-2.688h5.375zM27.8 25.667l1.9-1.9 2.85 2.85-1.9 1.901-2.85-2.85zm16.545-6.855h-2.688v4.032h2.688v-4.032zm9.109 7.804l2.85-2.85 1.9 1.9-2.85 2.85-1.9-1.9zm9.703 11.009h-4.031v2.688h4.031v-2.688zm-40.312 0h4.031v2.688h-4.031v-2.688z" fill="url(#paint0_linear_230_6400)"/><defs><linearGradient id="paint0_linear_230_6400" x1="38.801" y1="-3.135" x2="48.674" y2="90.809" gradientUnits="userSpaceOnUse"><stop stop-color="#75B7FF"/><stop offset="1" stop-color="#0044E8"/></linearGradient></defs></svg>