<svg width="49" height="48" fill="none" xmlns="http://www.w3.org/2000/svg"><path d="M2.096 34.125a.375.375 0 00-.375.375v8.977h-.237a.375.375 0 000 .75H12.27L9.303 47.19a.375.375 0 00.41.613.373.373 0 00.123-.08l.255-.255h13.833a.375.375 0 000-.75H10.841l.75-.75h25.822l.75.75h-7.02a.375.375 0 000 .75h7.77l.255.254a.374.374 0 00.266.11.376.376 0 00.267-.642l-1.875-1.875-1.1-1.099h10.786a.375.375 0 000-.75h-.221V34.5a.375.375 0 00-.375-.375h-1.148v-1.013a4.399 4.399 0 00-4.361-4.35l-.634-3.693a.38.38 0 10-.75.127l.101.589h-3.922v-.66a.373.373 0 00-.026-.142.446.446 0 00-.083-.124l-1.53-1.53a.373.373 0 00-.532 0L32.75 24.6l-1.32-1.316a.375.375 0 00-.262-.113h-.858v-3.154h4.5v2.566a.375.375 0 10.75 0v-7.53a.375.375 0 00-.375-.376h-.184v-2.103a.375.375 0 00-.375-.375h-.15V7.125a1.912 1.912 0 00-1.534-1.875v-.424a.375.375 0 10-.75 0v.424a1.913 1.913 0 00-1.534 1.875v1.406c-.896-1.357-2.523-2.377-4.5-2.752V4a1.665 1.665 0 00-1.282-1.616V.563a.375.375 0 10-.75 0V2.38A1.665 1.665 0 0022.828 4v1.78c-1.957.375-3.585 1.395-4.48 2.752V7.125a1.913 1.913 0 00-1.535-1.875v-.424a.375.375 0 10-.75 0v.424a1.913 1.913 0 00-1.533 1.875v5.074h-.147a.375.375 0 00-.375.375v2.104h-.198a.375.375 0 00-.375.374v7.53a.375.375 0 10.75 0v-2.565h4.5v3.154h-.844a.377.377 0 00-.266.113L16.252 24.6l-1.268-1.268a.375.375 0 00-.528 0l-1.53 1.53a.433.433 0 00-.08.124.376.376 0 00-.03.143v.652H8.88l.102-.588a.375.375 0 10-.74-.14l-.637 3.694a4.399 4.399 0 00-4.36 4.362v1.016h-1.15zm.375.75h.776v8.602H2.47v-8.602zM16.25 25.5h2.465v5.955a1.657 1.657 0 00-1.55 1.639v7.556h-1.428V37.5a.375.375 0 00-.75 0v3.15h-1.421V25.5h2.685zm3.215-10.451a.375.375 0 00-.375-.375h-.214v-.401h11.25v.405h-.199a.375.375 0 00-.375.374v7.767l-4.774-4.781a.375.375 0 00-.54 0l-4.78 4.78.007-7.77zm5.013-8.651c3.683 1.245 3.893 5.83 3.878 7.125h-3.533v-2.39a.375.375 0 10-.75 0v2.39h-3.472c-.015-1.294.195-5.88 3.877-7.125zM32.752 25.5h2.7v15.15h-1.418V37.5a.375.375 0 10-.75 0v3.15h-1.42v-7.556a1.661 1.661 0 00-1.553-1.639V25.5h2.44zm12.274 17.955h-2.45v-8.043l-.903-1.85 1.058-1.057.896.907a.373.373 0 00.266.11h1.148l-.015 9.933zm-8.824-9.307v-3.023a2.677 2.677 0 013.375 2.576c-.001.15-.015.3-.041.447h-3.334zm-11.7 9.31h-1.44v-9.817a1.448 1.448 0 112.895 0v9.837l-1.455-.02zm-16.256-8.25H7.42l.42-.858.405.859zm-1.07.75H8.49v7.5H7.192l-.015-7.5zm2.285-1.792a3.04 3.04 0 01-.042-.446 2.674 2.674 0 013.375-2.576v3.022H9.461zm4.106 7.234h3.589v2.059h-3.59V41.4zm17.546-5.49a1.643 1.643 0 00-1.826 0v-2.801a.915.915 0 111.826 0v2.801zm-4.406-2.25v-.551a.915.915 0 111.83 0v2.801a1.646 1.646 0 00-1.83 0v-2.25zm2.854-2.077a1.64 1.64 0 00-.65.498 1.676 1.676 0 00-.914-.581v-2.059a.375.375 0 10-.75 0V31.5a1.684 1.684 0 00-1.043.75 2.175 2.175 0 00-1.323-.75v-3.668a.375.375 0 00-.75 0v3.645c-.514.087-.98.353-1.317.75a1.676 1.676 0 00-1.038-.75v-2.036a.375.375 0 00-.75 0V31.5c-.362.086-.684.29-.915.581a1.645 1.645 0 00-.653-.499v-.048c0-2.528 2.269-4.572 5.044-4.572 2.775 0 5.051 2.044 5.051 4.56l.008.06zm-9.075 1.537a.914.914 0 111.826 0v2.801a1.643 1.643 0 00-1.826 0V33.12zm-1.665-.915a.915.915 0 01.915.911v2.801a1.646 1.646 0 00-1.83 0V33.11a.915.915 0 01.915-.915v.011zm-.915 8.839v-3.75a.915.915 0 011.83 0v6.165h-1.83v-2.415zm2.58-3.75a.915.915 0 111.826 0v6.161h-1.826v-6.161zm6.22 0a.915.915 0 011.83 0v6.161h-1.83v-6.161zm2.58 0a.915.915 0 111.827 0v6.161h-1.826v-6.161zm2.577 4.125h3.589v2.059h-3.589v-2.06zm9.75-6.21h-.844l.424-.859.42.859zm-1.069.75h1.294v7.5h-1.294v-7.5zm.274-2.55l-.375.75h-.131a3.417 3.417 0 00-4.11-3.784V30h4.605l.011 3.409zm-21.36-9.551a.302.302 0 00.068-.046l4.976-4.983 4.991 4.983a.424.424 0 00.068.046v.892h-.11l-4.653-4.646a.207.207 0 00-.019-.03.376.376 0 00-.54 0v.03l-4.668 4.646h-.113v-.892zm5.044.892h-3.87l3.87-3.878 3.889 3.878H24.5zm-4.793.75h9.852v3.416a6.067 6.067 0 00-10.103 0V25.5h.251zm-6.892 4.875a3.412 3.412 0 00-4.095 3.788h-.128l-.375-.75V30h4.598v.375zM6.479 35.4a.221.221 0 000 .071.244.244 0 000 .072v7.874H3.997v-9.896h1.147c.099 0 .193-.04.263-.108l.922-.92 1.058 1.058-.908 1.849zm2.76 8.059v-7.875a.243.243 0 000-.072.222.222 0 00-.018-.07l-.244-.503h3.862V43.5l-3.6-.041zm3.102 1.74l.99-.99h22.342l.99.99H12.341zm23.86-1.74v-8.562h3.867l-.247.503v8.047l-3.62.012zm10.347-8.584v8.602h-.772v-8.602h.772zm-1.541-2.085h-.975l-1.073-1.072a.377.377 0 00-.41-.083.376.376 0 00-.122.082l-.87.874v-3.079a3.652 3.652 0 013.45 3.26v.018zm-4.755-6.259l.465 2.7h-4.515v-2.7h4.05zm-5.955-2.403l.626.622h-1.252l.626-.622zm-3.274-.207l.833.829H30.31v-.829h.712zm-.712-4.654v-1.203h4.5v1.203h-4.5zm4.316-3.84h.199v1.875h-4.5v-1.874h.176a.375.375 0 00.375-.376V12.95h.146a.375.375 0 00.375-.375v-3.75h2.329v3.75a.375.375 0 00.375.375h.15v2.104a.375.375 0 00.375.374zm-2.063-9.464a1.16 1.16 0 011.16 1.162v.964h-2.318v-.964a1.163 1.163 0 011.158-1.162zm-1.908 4.965v1.27h-.154a.375.375 0 00-.375.376v.949H29.11a12.055 12.055 0 00-.375-3.124 6.91 6.91 0 00-2.333-3.81c2.464.596 4.253 2.313 4.253 4.338zM23.594 4a.915.915 0 111.83 0v1.665a9.157 9.157 0 00-.922-.041h-.105c-.274 0-.544 0-.81.045L23.594 4zm-1.072 2.625a6.918 6.918 0 00-2.303 3.784 11.85 11.85 0 00-.375 3.124h-.967v-.96a.375.375 0 00-.375-.375h-.15v-1.271c.011-2 1.755-3.698 4.17-4.313v.011zm-6.068-.663a1.16 1.16 0 011.16 1.162v.964h-2.318v-.964a1.163 1.163 0 011.158-1.162zM14.4 15.428a.375.375 0 00.375-.376V12.95h.147a.375.375 0 00.375-.375v-3.75h2.317v3.75a.375.375 0 00.375.375h.139v2.104a.375.375 0 00.375.374h.195v1.875h-4.5v-1.874h.202zm-.198 3.84v-1.204h4.5v1.203h-4.5zm3.795 4.653h.712v.829h-1.545l.833-.829zm-3.274.207l.626.622h-1.252l.626-.622zm-5.97 2.403h4.065v2.719h-4.53l.465-2.719zm-1.279 3v.06a.09.09 0 000 .034v2.966l-.874-.873a.375.375 0 00-.528 0L5 32.77h-.99a3.656 3.656 0 013.466-3.259l-.004.02z" fill="url(#paint0_linear_230_6786)"/><path d="M10.512 36.277a.375.375 0 00-.375.375v1.7a.375.375 0 00.75 0v-1.7a.375.375 0 00-.375-.375z" fill="url(#paint1_linear_230_6786)"/><path d="M11.852 36.277a.375.375 0 00-.375.375v1.7a.375.375 0 00.75 0v-1.7a.375.375 0 00-.375-.375z" fill="url(#paint2_linear_230_6786)"/><path d="M10.512 39.803a.375.375 0 00-.375.375v1.695a.375.375 0 10.75 0v-1.695a.375.375 0 00-.375-.375z" fill="url(#paint3_linear_230_6786)"/><path d="M11.852 39.803a.375.375 0 00-.375.375v1.695a.375.375 0 10.75 0v-1.695a.375.375 0 00-.375-.375z" fill="url(#paint4_linear_230_6786)"/><path d="M15.36 31.5a.375.375 0 00.374-.375V26.54a.375.375 0 10-.75 0v4.586a.375.375 0 00.375.375z" fill="url(#paint5_linear_230_6786)"/><path d="M15.36 35.94a.375.375 0 00.374-.375v-2.977a.375.375 0 10-.75 0v2.977a.375.375 0 00.375.375z" fill="url(#paint6_linear_230_6786)"/><path d="M16.848 29.502a.375.375 0 00.375-.375v-2.588a.375.375 0 00-.75 0v2.588a.375.375 0 00.375.375z" fill="url(#paint7_linear_230_6786)"/><path d="M38.504 36.277a.375.375 0 00-.375.375v1.7a.375.375 0 00.75 0v-1.7a.375.375 0 00-.375-.375z" fill="url(#paint8_linear_230_6786)"/><path d="M37.164 36.277a.375.375 0 00-.375.375v1.7a.375.375 0 00.75 0v-1.7a.375.375 0 00-.375-.375z" fill="url(#paint9_linear_230_6786)"/><path d="M38.504 39.803a.375.375 0 00-.375.375v1.695a.375.375 0 10.75 0v-1.695a.375.375 0 00-.375-.375z" fill="url(#paint10_linear_230_6786)"/><path d="M37.164 39.803a.375.375 0 00-.375.375v1.695a.375.375 0 10.75 0v-1.695a.375.375 0 00-.375-.375z" fill="url(#paint11_linear_230_6786)"/><path d="M33.656 31.5a.375.375 0 00.375-.375V26.54a.375.375 0 10-.75 0v4.586a.375.375 0 00.375.375z" fill="url(#paint12_linear_230_6786)"/><path d="M33.656 35.94a.375.375 0 00.375-.375v-2.977a.375.375 0 00-.75 0v2.977a.375.375 0 00.375.375z" fill="url(#paint13_linear_230_6786)"/><path d="M32.172 29.502a.375.375 0 00.375-.375v-2.588a.375.375 0 10-.75 0v2.588a.375.375 0 00.375.375z" fill="url(#paint14_linear_230_6786)"/><path d="M26.09 28.162a.375.375 0 00-.375.375v1.808a.375.375 0 00.75 0v-1.808a.375.375 0 00-.375-.375z" fill="url(#paint15_linear_230_6786)"/><path d="M22.828 28.162a.375.375 0 00-.375.375v1.808a.375.375 0 10.75 0v-1.808a.375.375 0 00-.375-.375z" fill="url(#paint16_linear_230_6786)"/><path d="M28.113 47.45a.375.375 0 000-.75h-1.984a.375.375 0 000 .75h1.984z" fill="url(#paint17_linear_230_6786)"/><path d="M24.45 8.193a.375.375 0 00.374-.375v-.48a.375.375 0 10-.75 0v.48a.375.375 0 00.375.375z" fill="url(#paint18_linear_230_6786)"/><path d="M24.45 10.124a.375.375 0 00.374-.375v-.442a.375.375 0 10-.75 0v.442a.375.375 0 00.375.375z" fill="url(#paint19_linear_230_6786)"/><path d="M20.652 15.24a.375.375 0 00-.375.375v1.091a.375.375 0 00.75 0v-1.09a.375.375 0 00-.375-.376z" fill="url(#paint20_linear_230_6786)"/><path d="M22.566 15.24a.375.375 0 00-.375.375v1.091a.375.375 0 00.75 0v-1.09a.375.375 0 00-.375-.376z" fill="url(#paint21_linear_230_6786)"/><path d="M24.875 16.706v-1.09a.375.375 0 00-.75 0v1.09a.375.375 0 00.75 0z" fill="url(#paint22_linear_230_6786)"/><path d="M26.395 17.081a.375.375 0 00.375-.375v-1.09a.375.375 0 00-.75 0v1.09a.375.375 0 00.375.375z" fill="url(#paint23_linear_230_6786)"/><path d="M28.309 17.081a.375.375 0 00.375-.375v-1.09a.375.375 0 00-.75 0v1.09a.375.375 0 00.375.375z" fill="url(#paint24_linear_230_6786)"/><defs><linearGradient id="paint0_linear_230_6786" x1="22.062" y1="-4.193" x2="28.413" y2="53.166" gradientUnits="userSpaceOnUse"><stop stop-color="#75B7FF"/><stop offset="1" stop-color="#0044E8"/></linearGradient><linearGradient id="paint1_linear_230_6786" x1="10.473" y1="36.052" x2="11.414" y2="38.703" gradientUnits="userSpaceOnUse"><stop stop-color="#75B7FF"/><stop offset="1" stop-color="#0044E8"/></linearGradient><linearGradient id="paint2_linear_230_6786" x1="11.813" y1="36.052" x2="12.753" y2="38.703" gradientUnits="userSpaceOnUse"><stop stop-color="#75B7FF"/><stop offset="1" stop-color="#0044E8"/></linearGradient><linearGradient id="paint3_linear_230_6786" x1="10.473" y1="39.578" x2="11.411" y2="42.225" gradientUnits="userSpaceOnUse"><stop stop-color="#75B7FF"/><stop offset="1" stop-color="#0044E8"/></linearGradient><linearGradient id="paint4_linear_230_6786" x1="11.813" y1="39.578" x2="12.751" y2="42.225" gradientUnits="userSpaceOnUse"><stop stop-color="#75B7FF"/><stop offset="1" stop-color="#0044E8"/></linearGradient><linearGradient id="paint5_linear_230_6786" x1="15.32" y1="25.673" x2="18.468" y2="29.742" gradientUnits="userSpaceOnUse"><stop stop-color="#75B7FF"/><stop offset="1" stop-color="#0044E8"/></linearGradient><linearGradient id="paint6_linear_230_6786" x1="15.32" y1="31.87" x2="17.22" y2="35.386" gradientUnits="userSpaceOnUse"><stop stop-color="#75B7FF"/><stop offset="1" stop-color="#0044E8"/></linearGradient><linearGradient id="paint7_linear_230_6786" x1="16.809" y1="25.857" x2="18.403" y2="29.153" gradientUnits="userSpaceOnUse"><stop stop-color="#75B7FF"/><stop offset="1" stop-color="#0044E8"/></linearGradient><linearGradient id="paint8_linear_230_6786" x1="38.465" y1="36.052" x2="39.406" y2="38.703" gradientUnits="userSpaceOnUse"><stop stop-color="#75B7FF"/><stop offset="1" stop-color="#0044E8"/></linearGradient><linearGradient id="paint9_linear_230_6786" x1="37.125" y1="36.052" x2="38.066" y2="38.703" gradientUnits="userSpaceOnUse"><stop stop-color="#75B7FF"/><stop offset="1" stop-color="#0044E8"/></linearGradient><linearGradient id="paint10_linear_230_6786" x1="38.465" y1="39.578" x2="39.403" y2="42.225" gradientUnits="userSpaceOnUse"><stop stop-color="#75B7FF"/><stop offset="1" stop-color="#0044E8"/></linearGradient><linearGradient id="paint11_linear_230_6786" x1="37.125" y1="39.578" x2="38.063" y2="42.225" gradientUnits="userSpaceOnUse"><stop stop-color="#75B7FF"/><stop offset="1" stop-color="#0044E8"/></linearGradient><linearGradient id="paint12_linear_230_6786" x1="33.617" y1="25.673" x2="36.764" y2="29.742" gradientUnits="userSpaceOnUse"><stop stop-color="#75B7FF"/><stop offset="1" stop-color="#0044E8"/></linearGradient><linearGradient id="paint13_linear_230_6786" x1="33.617" y1="31.87" x2="35.517" y2="35.386" gradientUnits="userSpaceOnUse"><stop stop-color="#75B7FF"/><stop offset="1" stop-color="#0044E8"/></linearGradient><linearGradient id="paint14_linear_230_6786" x1="32.133" y1="25.857" x2="33.727" y2="29.153" gradientUnits="userSpaceOnUse"><stop stop-color="#75B7FF"/><stop offset="1" stop-color="#0044E8"/></linearGradient><linearGradient id="paint15_linear_230_6786" x1="26.051" y1="27.927" x2="27.067" y2="30.667" gradientUnits="userSpaceOnUse"><stop stop-color="#75B7FF"/><stop offset="1" stop-color="#0044E8"/></linearGradient><linearGradient id="paint16_linear_230_6786" x1="22.789" y1="27.927" x2="23.805" y2="30.667" gradientUnits="userSpaceOnUse"><stop stop-color="#75B7FF"/><stop offset="1" stop-color="#0044E8"/></linearGradient><linearGradient id="paint17_linear_230_6786" x1="26.978" y1="46.63" x2="27.006" y2="47.544" gradientUnits="userSpaceOnUse"><stop stop-color="#75B7FF"/><stop offset="1" stop-color="#0044E8"/></linearGradient><linearGradient id="paint18_linear_230_6786" x1="24.41" y1="6.85" x2="24.669" y2="8.303" gradientUnits="userSpaceOnUse"><stop stop-color="#75B7FF"/><stop offset="1" stop-color="#0044E8"/></linearGradient><linearGradient id="paint19_linear_230_6786" x1="24.41" y1="8.822" x2="24.654" y2="10.233" gradientUnits="userSpaceOnUse"><stop stop-color="#75B7FF"/><stop offset="1" stop-color="#0044E8"/></linearGradient><linearGradient id="paint20_linear_230_6786" x1="20.613" y1="15.071" x2="21.172" y2="17.166" gradientUnits="userSpaceOnUse"><stop stop-color="#75B7FF"/><stop offset="1" stop-color="#0044E8"/></linearGradient><linearGradient id="paint21_linear_230_6786" x1="22.527" y1="15.071" x2="23.086" y2="17.166" gradientUnits="userSpaceOnUse"><stop stop-color="#75B7FF"/><stop offset="1" stop-color="#0044E8"/></linearGradient><linearGradient id="paint22_linear_230_6786" x1="24.461" y1="15.071" x2="25.02" y2="17.166" gradientUnits="userSpaceOnUse"><stop stop-color="#75B7FF"/><stop offset="1" stop-color="#0044E8"/></linearGradient><linearGradient id="paint23_linear_230_6786" x1="26.355" y1="15.071" x2="26.915" y2="17.166" gradientUnits="userSpaceOnUse"><stop stop-color="#75B7FF"/><stop offset="1" stop-color="#0044E8"/></linearGradient><linearGradient id="paint24_linear_230_6786" x1="28.27" y1="15.071" x2="28.829" y2="17.166" gradientUnits="userSpaceOnUse"><stop stop-color="#75B7FF"/><stop offset="1" stop-color="#0044E8"/></linearGradient></defs></svg>