<svg width="49" height="48" fill="none" xmlns="http://www.w3.org/2000/svg"><g clip-path="url(#clip0_230_20812)"><path fill-rule="evenodd" clip-rule="evenodd" d="M25.468 12.1l.566-.567a5.608 5.608 0 016.6-.982l8.223-9.042a4.574 4.574 0 013.304-1.51 4.614 4.614 0 013.208 8.028l-9.04 8.22a5.608 5.608 0 01-.985 6.596l-.566.567a1.59 1.59 0 01-.77.421l-1.28 4.871a.795.795 0 01-.21.364 4.473 4.473 0 01-3.193 1.03 10.097 10.097 0 01-2.092-.235 12.345 12.345 0 01-1-.263l-.01.001a.036.036 0 01-.018 0 .045.045 0 01-.014-.01c-.006-.003-.012-.007-.018-.007a13.475 13.475 0 01-8.872-8.864c-.002-.007-.007-.016-.011-.024a.064.064 0 01-.009-.019v-.02c-.104-.333-.192-.67-.264-1.007-.497-2.317-.2-4.293.795-5.286a.802.802 0 01.363-.21l4.871-1.283a1.58 1.58 0 01.422-.77zm4.1 16.198c1.796.385 3.096.17 3.675-.24l1.238-4.686-8.973-8.973-4.688 1.233c-.407.58-.624 1.878-.24 3.675l.024.097.017.072 2.94-.8a.8.8 0 01.42 1.544l-2.885.786a11.92 11.92 0 002.135 3.507l2.684-2.684a.8.8 0 011.131 1.131l-2.684 2.684a11.918 11.918 0 003.507 2.134l.786-2.88a.8.8 0 011.544.42l-.8 2.94.042.01.03.007.097.023zm6.083-6.016l.565-.567a4 4 0 000-5.657l-3.394-3.393a4 4 0 00-5.657 0l-.566.565 9.052 9.052zM45 1.692a3.015 3.015 0 00-2.964.894l-8.11 8.92 3.448 3.448 8.92-8.11A3.014 3.014 0 0045 1.692zM2.545 20h.768v26.4a1.6 1.6 0 001.6 1.6h27.2a1.6 1.6 0 001.6-1.6V32.36a.8.8 0 10-1.6 0V46.4H29.71v-7.2a4.8 4.8 0 00-9.6 0v7.2H4.913V20h11.592a.8.8 0 100-1.6H2.541L18.51 6.591l5.304 3.928a.8.8 0 10.952-1.286l-5.303-3.924a1.61 1.61 0 00-1.905 0L1.59 17.119A1.6 1.6 0 002.545 20zM21.71 39.2a3.2 3.2 0 016.4 0v7.2h-6.4v-7.2zM8.11 44h8a.8.8 0 00.8-.8v-8a.8.8 0 00-.8-.8h-8a.8.8 0 00-.8.8v8a.8.8 0 00.8.8zm.8-4h2.4v2.4h-2.4V40zm4 2.4V40h2.4v2.4h-2.4zm2.4-4h-2.4V36h2.4v2.4zm-4-2.4v2.4h-2.4V36h2.4zm4.8-13.6a.8.8 0 01.8.8v8a.8.8 0 01-.8.8h-8a.8.8 0 01-.8-.8v-8a.8.8 0 01.8-.8h8zm-3.2 4h2.4V24h-2.4v2.4zm-1.6 0V24h-2.4v2.4h2.4zm0 1.6h-2.4v2.4h2.4V28zm1.6 0v2.4h2.4V28h-2.4zm12.8 15.2a.8.8 0 00.8-.8v-1.6a.8.8 0 10-1.6 0v1.6a.8.8 0 00.8.8zm.372-36.8a2.8 2.8 0 100-5.6 2.8 2.8 0 000 5.6zm0-4a1.2 1.2 0 110 2.4 1.2 1.2 0 010-2.4zm17.2 17.6a.8.8 0 011.6 0v1.6a.8.8 0 11-1.6 0V20zm0 4.8v1.6a.8.8 0 101.6 0v-1.6a.8.8 0 10-1.6 0zm2.4-2.4h1.6a.8.8 0 110 1.6h-1.6a.8.8 0 110-1.6zm-2.4.8a.8.8 0 00-.8-.8h-1.6a.8.8 0 000 1.6h1.6a.8.8 0 00.8-.8zM12.637 6.955a.8.8 0 01-1.121.01l-1.2-1.2a.8.8 0 011.13-1.131l1.2 1.2a.8.8 0 01-.009 1.121zm-4.721-3.59a.8.8 0 001.13-1.131l-1.2-1.2a.8.8 0 00-1.13 1.13l1.2 1.2zm-.07 3.6a.8.8 0 11-1.13-1.131l1.2-1.2a.8.8 0 111.13 1.13l-1.2 1.2zm3.035-3.366a.8.8 0 00.566-.234l1.2-1.2a.8.8 0 00-1.131-1.131l-1.2 1.2a.8.8 0 00.565 1.365zm31.12 26.817c-3.622 0-6.583 2.96-6.583 6.583s2.96 6.584 6.583 6.584 6.584-2.961 6.584-6.584c0-3.622-2.961-6.583-6.584-6.583zm-5.083 6.583c0-2.794 2.29-5.083 5.083-5.083 2.794 0 5.084 2.29 5.084 5.083 0 2.794-2.29 5.084-5.084 5.084-2.794 0-5.083-2.29-5.083-5.084zm2 .001a.75.75 0 01.75-.75h1.582v-1.584a.75.75 0 011.5 0v1.584h1.585a.75.75 0 010 1.5H42.75v1.583a.75.75 0 01-1.5 0V37.75h-1.582a.75.75 0 01-.75-.75z" fill="url(#paint0_linear_230_20812)"/></g><defs><linearGradient id="paint0_linear_230_20812" x1="22.418" y1="-4.415" x2="28.713" y2="53.398" gradientUnits="userSpaceOnUse"><stop stop-color="#75B7FF"/><stop offset="1" stop-color="#0044E8"/></linearGradient><clipPath id="clip0_230_20812"><path fill="#fff" transform="translate(.883)" d="M0 0h48v48H0z"/></clipPath></defs></svg>