<svg width="49" height="48" fill="none" xmlns="http://www.w3.org/2000/svg"><path fill-rule="evenodd" clip-rule="evenodd" d="M12.313 0h24.374c.518 0 .938.42.938.938v5.25h4.688c.517 0 .937.42.937.937v39h2.813a.937.937 0 110 1.875H2.937a.937.937 0 110-1.875H5.75v-39c0-.518.42-.938.938-.938h4.687V.938c0-.517.42-.937.938-.937zM35.75 1.875h-22.5v4.313h22.5V1.875zm-10.313 44.25h2.813v-9.938h-7.5v9.938h2.813V42.75a.937.937 0 111.875 0v3.375zm4.688 0h11.25V8.062H7.625v38.063h11.25V35.25c0-.518.42-.938.938-.938h9.375c.517 0 .937.42.937.938v10.875zM17 12.75a.937.937 0 00-.938-.938h-5.625a.937.937 0 00-.937.938v5.625c0 .518.42.938.938.938h5.624c.518 0 .938-.42.938-.938V12.75zm-1.875.938v3.75h-3.75v-3.75h3.75zM32 35.25c0-.518.42-.938.938-.938h5.624c.518 0 .938.42.938.938v5.625c0 .518-.42.938-.938.938h-5.624a.937.937 0 01-.938-.938V35.25zM25.437 39a.938.938 0 11-1.875 0 .938.938 0 011.875 0zm-3.75-27.188h5.625c.518 0 .938.42.938.938v5.625c0 .518-.42.938-.938.938h-5.625a.937.937 0 01-.937-.938V12.75c0-.518.42-.938.938-.938zm15.938 24.376h-3.75v3.75h3.75v-3.75zm-15-18.75h3.75v-3.75h-3.75v3.75zM32 12.75v5.625c0 .518.42.938.938.938h5.624c.518 0 .938-.42.938-.938V12.75a.937.937 0 00-.938-.938h-5.624a.937.937 0 00-.938.938zm1.875.938h3.75v3.75h-3.75v-3.75zM9.5 24c0-.518.42-.938.938-.938h5.624c.518 0 .938.42.938.938v5.625c0 .518-.42.938-.938.938h-5.625a.937.937 0 01-.937-.938V24zm1.875.938v3.75h3.75v-3.75h-3.75zm15.938-1.875h-5.625a.937.937 0 00-.938.937v5.625c0 .518.42.938.938.938h5.625c.517 0 .937-.42.937-.938V24a.937.937 0 00-.938-.938zm-.938 5.625h-3.75v-3.75h3.75v3.75zm6.563-5.625h5.624c.518 0 .938.42.938.937v5.625c0 .518-.42.938-.938.938h-5.624a.937.937 0 01-.938-.938V24c0-.518.42-.938.938-.938zm.937 5.625h3.75v-3.75h-3.75v3.75zm-17.813 5.625h-5.625a.937.937 0 00-.937.937v5.625c0 .518.42.938.938.938h5.624c.518 0 .938-.42.938-.938V35.25a.937.937 0 00-.938-.938zm-.937 5.624h-3.75v-3.75h3.75v3.75z" fill="url(#paint0_linear_230_6739)"/><defs><linearGradient id="paint0_linear_230_6739" x1="22.156" y1="-4.413" x2="28.85" y2="53.307" gradientUnits="userSpaceOnUse"><stop stop-color="#75B7FF"/><stop offset="1" stop-color="#0044E8"/></linearGradient></defs></svg>