<svg width="48" height="48" fill="none" xmlns="http://www.w3.org/2000/svg"><g clip-path="url(#clip0_230_6763)"><path fill-rule="evenodd" clip-rule="evenodd" d="M45.892 15.721h.458c.91 0 1.65.74 1.65 1.65v1.326c0 .91-.74 1.65-1.65 1.65h-.244v1.864a.703.703 0 11-1.406 0v-1.864H33.66c-.618 0-1.199-.24-1.636-.677L24 11.646l-8.024 8.024a2.298 2.298 0 01-1.636.677H3.3V35.76a.703.703 0 11-1.406 0V20.347H1.65c-.91 0-1.65-.74-1.65-1.65v-1.325c0-.91.74-1.65 1.65-1.65h.458L6.404 4.155a2.608 2.608 0 012.435-1.693H39.16c1.08 0 2.059.68 2.435 1.693l4.296 11.565zM8.839 3.87c-.496 0-.944.312-1.117.776L3.608 15.721h9.774l8.982-8.982A2.298 2.298 0 0124 6.062c.618 0 1.199.24 1.636.677l8.982 8.982h9.774L40.278 4.645a1.196 1.196 0 00-1.117-.776H8.84zm37.51 15.072c.135 0 .245-.11.245-.244v-1.325a.244.244 0 00-.244-.244H34.327a.703.703 0 01-.497-.206l-9.19-9.19a.9.9 0 00-.64-.265.9.9 0 00-.642.265l-9.188 9.189a.703.703 0 01-.498.206H1.65a.244.244 0 00-.244.244v1.325c0 .135.11.244.244.244h12.69a.9.9 0 00.641-.265l8.522-8.522a.703.703 0 01.994 0l8.522 8.522a.9.9 0 00.64.265h12.69zm-3.368 20.212a.703.703 0 01-.703.703h-9.47a.703.703 0 01-.704-.703v-12.5c0-.389.315-.704.703-.704h9.47c.39 0 .704.315.704.703v12.501zm-4.735-3.733h3.329v-3.33h-3.33v3.33zm-4.736 0h3.33v-3.33h-3.33v3.33zm0 3.03h8.065v-1.624H33.51v1.624zm4.736-7.766h3.329v-3.329h-3.33v3.33zm-1.407 0v-3.329h-3.328v3.33h3.328zm-21.646 9.172a.703.703 0 00.703-.703v-12.5a.703.703 0 00-.703-.704h-9.47a.703.703 0 00-.704.703v12.501c0 .388.315.703.703.703h9.47zm-.704-4.437h-3.328v-3.328h3.329v3.328zm-4.735 0H6.425v-3.328h3.33v3.328zm4.736 3.031H6.425v-1.624h8.064v1.624zm0-7.766h-3.33v-3.329h3.33v3.33zm-4.736-3.329v3.33H6.425v-3.33h3.33zm11.973 1.625h4.546c.388 0 .703.314.703.703v3.03a.703.703 0 01-.703.703h-4.546a.703.703 0 01-.703-.703v-3.03c0-.389.315-.703.703-.703zm.703 3.03h3.14v-1.624h-3.14v1.624zm5.304-11.892A3.738 3.738 0 0024 16.384a3.738 3.738 0 00-3.734 3.734A3.738 3.738 0 0024 23.852a3.738 3.738 0 003.734-3.734zm-6.061 0A2.33 2.33 0 0124 17.79a2.33 2.33 0 012.327 2.327A2.33 2.33 0 0124 22.445a2.33 2.33 0 01-2.327-2.327zm24.433 20.794h1.19c.39 0 .704.315.704.703v3.22a.703.703 0 01-.703.703H.703A.703.703 0 010 44.835v-3.22c0-.388.315-.703.703-.703h1.191v-1.864a.703.703 0 111.406 0v1.864h14.694v-14.26c0-.388.314-.703.703-.703h10.606c.389 0 .703.315.703.703v14.26H44.7V25.501a.703.703 0 111.406 0v15.411zm-25.705-5.128H19.4v5.128h9.2V27.356h-9.2v7.022h1a.703.703 0 110 1.406zM1.406 42.319v1.813h45.188V42.32H1.406z" fill="url(#paint0_linear_230_6763)"/></g><defs><linearGradient id="paint0_linear_230_6763" x1="21.5" y1="-1.498" x2="26.573" y2="50.503" gradientUnits="userSpaceOnUse"><stop stop-color="#fff"/><stop offset="1" stop-color="#C4E0FF"/></linearGradient><clipPath id="clip0_230_6763"><path fill="#fff" d="M0 0h48v48H0z"/></clipPath></defs></svg>