<svg width="86" height="87" fill="none" xmlns="http://www.w3.org/2000/svg"><path fill-rule="evenodd" clip-rule="evenodd" d="M29.585 86.403c.373.13.781.13 1.155 0a73 73 0 00.9-.32c5.8-2.104 10.894-5.203 15.076-9.02a1.65 1.65 0 00.082-2.374 1.752 1.752 0 00-2.434-.079c-3.842 3.506-8.82 6.472-14.202 8.424m0 0a81.69 81.69 0 01-.278-.1C14.37 77.307 4.54 64.12 4.54 49.793V33.589l25.621-9.2 25.621 9.2v16.204c0 4.694-1.052 9.255-3.008 13.468a1.663 1.663 0 00.857 2.223c.867.383 1.887.008 2.28-.837 2.15-4.633 3.315-9.666 3.315-14.854V32.418c0-.704-.45-1.333-1.127-1.576l-27.343-9.818a1.762 1.762 0 00-1.19 0L2.226 30.84a1.682 1.682 0 00-1.127 1.577v17.375c0 15.892 10.885 30.232 27.586 36.29.296.107.597.214.9.32m.578-3.369c-.092.034.093-.033 0 0z" fill="url(#paint0_linear_230_6868)"/><path fill-rule="evenodd" clip-rule="evenodd" d="M29.495 78.78a1.76 1.76 0 001.334 0c6.129-2.513 11.332-6.412 15.095-11.366 3.965-5.221 6.08-11.294 6.08-17.557v-12.48c0-.705-.45-1.334-1.126-1.577l-20.121-7.225a1.763 1.763 0 00-1.19 0L9.448 35.8a1.682 1.682 0 00-1.127 1.576v12.48c0 6.264 2.115 12.336 6.08 17.558 3.764 4.955 8.967 8.853 15.095 11.366zm.667-3.378c-5.303-2.298-9.758-5.727-12.994-9.988-3.548-4.671-5.405-10.05-5.405-15.557v-11.31l18.4-6.606 18.398 6.607v11.309c0 5.508-1.856 10.886-5.404 15.557-3.236 4.26-7.69 7.69-12.995 9.988z" fill="url(#paint1_linear_230_6868)"/><path fill-rule="evenodd" clip-rule="evenodd" d="M55.783 41.577c0 .927.771 1.68 1.722 1.68 8.71 0 15.77-6.889 15.77-15.387 0-8.496-7.06-15.384-15.77-15.384-8.52 0-15.46 6.59-15.758 14.831a1.68 1.68 0 001.126 1.636l12.91 4.636v7.988zm3.444-1.796v-7.363c0-.704-.45-1.333-1.127-1.576l-12.808-4.6c.814-5.87 5.971-10.396 12.213-10.396 6.807 0 12.326 5.383 12.326 12.024 0 6.073-4.612 11.094-10.604 11.91z" fill="url(#paint2_linear_230_6868)"/><path fill-rule="evenodd" clip-rule="evenodd" d="M57.505 9.29c.95 0 1.721-.753 1.721-1.68V2.18c0-.928-.77-1.68-1.721-1.68-.951 0-1.722.752-1.722 1.68v5.43c0 .927.77 1.68 1.722 1.68z" fill="url(#paint3_linear_230_6868)"/><path fill-rule="evenodd" clip-rule="evenodd" d="M44.037 14.732a1.65 1.65 0 000-2.375L40.1 8.517a1.752 1.752 0 00-2.435 0 1.65 1.65 0 000 2.375l3.936 3.84a1.752 1.752 0 002.435 0z" fill="url(#paint4_linear_230_6868)"/><path fill-rule="evenodd" clip-rule="evenodd" d="M77.344 47.226a1.65 1.65 0 000-2.376l-3.936-3.84a1.753 1.753 0 00-2.435 0 1.65 1.65 0 000 2.376l3.936 3.84a1.752 1.752 0 002.435 0z" fill="url(#paint5_linear_230_6868)"/><path fill-rule="evenodd" clip-rule="evenodd" d="M70.973 14.732a1.752 1.752 0 002.435 0l3.936-3.84a1.65 1.65 0 000-2.375 1.752 1.752 0 00-2.435 0l-3.936 3.84a1.65 1.65 0 000 2.375z" fill="url(#paint6_linear_230_6868)"/><path fill-rule="evenodd" clip-rule="evenodd" d="M76.552 27.871c0 .928.771 1.68 1.722 1.68h5.566c.951 0 1.722-.752 1.722-1.68 0-.927-.77-1.68-1.722-1.68h-5.566c-.95 0-1.722.753-1.722 1.68z" fill="url(#paint7_linear_230_6868)"/><path fill-rule="evenodd" clip-rule="evenodd" d="M26.327 60.093a1.752 1.752 0 002.435 0l12.882-12.567a1.65 1.65 0 000-2.375 1.752 1.752 0 00-2.435 0L27.544 56.53l-4.596-4.485a1.753 1.753 0 00-2.436 0 1.651 1.651 0 000 2.376l5.815 5.672z" fill="url(#paint8_linear_230_6868)"/><defs><linearGradient id="paint0_linear_230_6868" x1="38.931" y1="-7.407" x2="50.392" y2="96.131" gradientUnits="userSpaceOnUse"><stop stop-color="#75B7FF"/><stop offset="1" stop-color="#0044E8"/></linearGradient><linearGradient id="paint1_linear_230_6868" x1="38.931" y1="-7.407" x2="50.392" y2="96.131" gradientUnits="userSpaceOnUse"><stop stop-color="#75B7FF"/><stop offset="1" stop-color="#0044E8"/></linearGradient><linearGradient id="paint2_linear_230_6868" x1="38.931" y1="-7.407" x2="50.392" y2="96.131" gradientUnits="userSpaceOnUse"><stop stop-color="#75B7FF"/><stop offset="1" stop-color="#0044E8"/></linearGradient><linearGradient id="paint3_linear_230_6868" x1="38.931" y1="-7.407" x2="50.392" y2="96.131" gradientUnits="userSpaceOnUse"><stop stop-color="#75B7FF"/><stop offset="1" stop-color="#0044E8"/></linearGradient><linearGradient id="paint4_linear_230_6868" x1="38.931" y1="-7.407" x2="50.392" y2="96.131" gradientUnits="userSpaceOnUse"><stop stop-color="#75B7FF"/><stop offset="1" stop-color="#0044E8"/></linearGradient><linearGradient id="paint5_linear_230_6868" x1="38.931" y1="-7.407" x2="50.392" y2="96.131" gradientUnits="userSpaceOnUse"><stop stop-color="#75B7FF"/><stop offset="1" stop-color="#0044E8"/></linearGradient><linearGradient id="paint6_linear_230_6868" x1="38.931" y1="-7.407" x2="50.392" y2="96.131" gradientUnits="userSpaceOnUse"><stop stop-color="#75B7FF"/><stop offset="1" stop-color="#0044E8"/></linearGradient><linearGradient id="paint7_linear_230_6868" x1="38.931" y1="-7.407" x2="50.392" y2="96.131" gradientUnits="userSpaceOnUse"><stop stop-color="#75B7FF"/><stop offset="1" stop-color="#0044E8"/></linearGradient><linearGradient id="paint8_linear_230_6868" x1="38.931" y1="-7.407" x2="50.392" y2="96.131" gradientUnits="userSpaceOnUse"><stop stop-color="#75B7FF"/><stop offset="1" stop-color="#0044E8"/></linearGradient></defs></svg>