<svg width="87" height="87" fill="none" xmlns="http://www.w3.org/2000/svg"><g clip-path="url(#clip0_230_6839)"><path fill-rule="evenodd" clip-rule="evenodd" d="M58.495 3.152c.476.67 1.01 1.168 1.44 1.568l.005.004c.66.61 1.18 1.09 1.545 1.734.304.539.654 1.382.66 3.127-.002.924-.131 1.616-.418 2.243-.218.469-.517.875-1.03 1.404a1.665 1.665 0 00-.477 1.193c.007.45.186.868.51 1.182.315.306.73.475 1.17.475.458 0 .885-.18 1.204-.507.523-.536 1.185-1.286 1.67-2.333.487-1.047.734-2.276.73-3.657 0-1.33-.165-2.467-.51-3.476-.393-1.173-1.073-2.217-2.081-3.197-.2-.193-.385-.366-.564-.532l-.012-.011c-.477-.447-.854-.8-1.1-1.16A1.687 1.687 0 0059.863.5c-.35 0-.683.106-.97.309a1.668 1.668 0 00-.684 1.087 1.675 1.675 0 00.285 1.256zm15.407 26.239h-20.48c-.422-2.185-1.64-3.42-2.655-4.452l-.002-.002c-1.195-1.212-2.058-2.088-2.058-4.494a1.68 1.68 0 10-3.36 0c0 3.782 1.677 5.484 3.024 6.851.71.72 1.264 1.286 1.573 2.097h-6.6c-.423-2.185-1.64-3.422-2.657-4.453l-.002-.002c-1.193-1.212-2.056-2.088-2.056-4.493 0-2.302.846-3.12 2.017-4.255h.001c1.346-1.303 3.02-2.924 3.02-6.602 0-4.283-1.83-5.979-3.166-7.218l-.003-.003c-.438-.406-.817-.758-1.099-1.156a1.68 1.68 0 10-2.742 1.941c.483.681 1.051 1.21 1.554 1.675l.007.007c1.168 1.082 2.09 1.938 2.09 4.754 0 2.254-.837 3.065-1.997 4.187v.001c-1.356 1.312-3.041 2.943-3.041 6.669 0 3.782 1.676 5.484 3.024 6.852.709.72 1.263 1.285 1.572 2.096h-8.284a6.98 6.98 0 00-.836-2.241c-.44-.747-.961-1.329-1.458-1.846l-.155-.157-.13-.133c-.612-.622-1.094-1.113-1.438-1.685-.355-.598-.685-1.361-.694-2.886.003-.99.148-1.724.47-2.384.277-.556.665-1 1.165-1.496a1.678 1.678 0 00.004-2.377 1.664 1.664 0 00-1.189-.494c-.449 0-.869.173-1.185.489-.607.603-1.296 1.359-1.805 2.387-.547 1.097-.823 2.402-.82 3.875-.005 1.614.318 3.038.956 4.233.64 1.184 1.444 1.991 2.09 2.64l.003.004.025.025c.248.25.482.484.672.71.39.444.63.808.805 1.218.016.039.03.078.045.118H13.434a1.68 1.68 0 00-1.68 1.68v20.155c0 .928.752 1.68 1.68 1.68h3.359V84.82c0 .928.752 1.68 1.68 1.68h50.39a1.68 1.68 0 001.68-1.68V52.906h3.36a1.68 1.68 0 001.679-1.68V31.07a1.68 1.68 0 00-1.68-1.68zM50.387 52.906v5.04H36.949v-5.04h13.438zm16.796 8.399v5.039h-5.039v-5.04h5.04zM53.746 74.742v-5.039h13.437v5.04H53.746zm-16.797 0v-5.039h13.438v5.04H36.949zm-16.797 0v-5.039H33.59v5.04H20.152zm21.836-13.437v5.039H28.551v-5.04h13.437zm-16.797 5.039h-5.039v-5.04h5.04v5.04zm33.594 0H45.348v-5.04h13.437v5.04zM33.59 57.945H20.152v-5.039H33.59v5.04zM20.152 78.101h5.04v5.04h-5.04V78.1zm21.836 0v5.04H28.551V78.1h13.437zm3.36 0h13.437v5.04H45.348V78.1zm21.835 5.04h-5.039V78.1h5.04v5.04zm0-25.196H53.746v-5.039h13.437v5.04zm5.04-8.398h-57.11V32.75h57.11v16.797zm-26.875-6.719H35.27a1.68 1.68 0 100 3.36h10.078a1.68 1.68 0 100-3.36zm-8.399-6.719c.926 0 1.68.754 1.68 1.68 0 .925-.754 1.68-1.68 1.68H26.871c-.926 0-1.68-.755-1.68-1.68 0-.926.754-1.68 1.68-1.68H36.95zm-16.797 0c-.925 0-1.68.754-1.68 1.68 0 .925.755 1.68 1.68 1.68.926 0 1.68-.755 1.68-1.68 0-.926-.754-1.68-1.68-1.68zm47.032 3.36h-6.72a1.68 1.68 0 110-3.36h6.72a1.68 1.68 0 110 3.36zM48.296 4.832c1.169 1.082 2.091 1.938 2.091 4.754a1.68 1.68 0 103.36 0c0-4.283-1.83-5.979-3.167-7.218l-.003-.003c-.438-.406-.817-.758-1.1-1.156a1.68 1.68 0 10-2.741 1.941c.483.681 1.051 1.209 1.553 1.675l.007.007zm10.496 16.933l-.059-.001a1.683 1.683 0 01-1.62-1.737 1.67 1.67 0 01.513-1.15c.33-.318.765-.486 1.223-.47.449.016.866.204 1.17.533a1.678 1.678 0 01-1.228 2.825zM30.23 11.286h-.003a1.682 1.682 0 01-1.676-1.683 1.683 1.683 0 011.68-1.676h.003A1.681 1.681 0 0131.91 9.61v.002a1.682 1.682 0 01-1.68 1.674z" fill="url(#paint0_linear_230_6839)"/></g><defs><linearGradient id="paint0_linear_230_6839" x1="40.343" y1="-7.407" x2="55.374" y2="95.198" gradientUnits="userSpaceOnUse"><stop stop-color="#75B7FF"/><stop offset="1" stop-color="#0044E8"/></linearGradient><clipPath id="clip0_230_6839"><path fill="#fff" transform="translate(.668 .5)" d="M0 0h86v86H0z"/></clipPath></defs></svg>