<svg width="87" height="87" fill="none" xmlns="http://www.w3.org/2000/svg"><path fill-rule="evenodd" clip-rule="evenodd" d="M65.174 12.25a30.941 30.941 0 019.062 21.844 30.95 30.95 0 01-25.373 30.4l.98 5.881a4.04 4.04 0 013.99 5.375h2.934a4.023 4.023 0 013.81 2.768 5.59 5.59 0 003.432-1.143 5.813 5.813 0 002.165-4.34 1.379 1.379 0 011.37-1.316 1.345 1.345 0 011.317 1.371 8.59 8.59 0 01-3.21 6.41 8.333 8.333 0 01-5.125 1.706 4.028 4.028 0 01-3.759 2.606H29.893a4.031 4.031 0 010-8.062h2.935a4.04 4.04 0 013.989-5.375l.98-5.88C1.209 56.856 5.634 4.288 43.33 3.186a30.941 30.941 0 0121.844 9.063zm-41.788 1.9a28.25 28.25 0 00-8.275 19.944A28.25 28.25 0 0043.33 62.312c37.425-1.544 37.436-54.887 0-56.437a28.25 28.25 0 00-19.944 8.274zm34.331 66.58a1.345 1.345 0 000-1.9 1.345 1.345 0 00-.95-.394H29.892a1.344 1.344 0 000 2.688h26.875c.357 0 .698-.142.95-.394zM51 75.356a1.345 1.345 0 00-.95-2.293H36.61a1.344 1.344 0 000 2.687h13.44c.356 0 .698-.142.95-.394zm-3.88-4.981L46.222 65h-5.786l-.895 5.375h7.576zm-2.443-29.698V58.28a1.344 1.344 0 01-1.343 1.344c-8.758-.25-10.737-15.255-3.943-20.117a6.716 6.716 0 01-2.64-4.07H19.144a1.344 1.344 0 01-1.344-1.344c.25-8.758 15.255-10.736 20.117-3.943a6.716 6.716 0 014.07-2.64V9.906a1.342 1.342 0 011.344-1.344c8.758.25 10.736 15.256 3.943 20.118a6.716 6.716 0 012.64 4.07H67.52a1.344 1.344 0 011.344 1.344c-.25 8.757-15.256 10.736-20.118 3.942a6.716 6.716 0 01-4.07 2.64zm21.234-5.24c-2.132 5.306-13.464 5.302-15.593 0H65.91zm-21.234-23.92c5.305 2.13 5.301 13.463 0 15.592V11.516zM20.755 32.75c2.132-5.305 13.463-5.301 15.592 0H20.755zm19.743-1.478a4.032 4.032 0 00-1.197 2.822 4.031 4.031 0 008.063 0 4.032 4.032 0 00-6.866-2.822zm1.49 25.4c-5.304-2.132-5.3-13.465 0-15.593V56.67zm11.424-40.04a20.293 20.293 0 019.444 12.42 1.343 1.343 0 002.602-.668 22.987 22.987 0 00-10.701-14.077 1.343 1.343 0 00-1.345 2.325zm-28.36 8.009a1.344 1.344 0 01-1.51-1.971A22.998 22.998 0 0137.62 11.968a1.345 1.345 0 01.67 2.604 20.284 20.284 0 00-12.42 9.444 1.344 1.344 0 01-.816.625zm8.205 26.913a20.294 20.294 0 01-9.445-12.42 1.344 1.344 0 00-2.602.669 22.987 22.987 0 0010.702 14.076 1.343 1.343 0 001.345-2.325zm28.873-8.042a1.342 1.342 0 011.122.986 1.342 1.342 0 01-.135 1.02 22.999 22.999 0 01-14.076 10.7 1.344 1.344 0 01-.67-2.603 20.285 20.285 0 0012.42-9.444 1.342 1.342 0 011.34-.66z" fill="url(#paint0_linear_230_6855)"/><defs><linearGradient id="paint0_linear_230_6855" x1="40.198" y1="-4.226" x2="53.891" y2="92.084" gradientUnits="userSpaceOnUse"><stop stop-color="#75B7FF"/><stop offset="1" stop-color="#0044E8"/></linearGradient></defs></svg>