<svg width="86" height="87" fill="none" xmlns="http://www.w3.org/2000/svg"><path fill-rule="evenodd" clip-rule="evenodd" d="M0 73.106C0 80.493 6.008 86.5 13.394 86.5h59.212C79.992 86.5 86 80.493 86 73.106V13.894C86 6.508 79.992.5 72.606.5H13.394C6.008.5 0 6.508 0 13.894v59.212zM13.394 83.98C7.4 83.98 2.52 79.1 2.52 73.106V13.894C2.52 7.9 7.4 3.02 13.394 3.02h59.212C78.6 3.02 83.48 7.9 83.48 13.894v59.212c0 5.995-4.88 10.875-10.875 10.875H13.394zM5.981 73.106a7.413 7.413 0 007.413 7.413h59.212a7.413 7.413 0 007.413-7.413V13.894a7.413 7.413 0 00-7.413-7.413H13.394a7.413 7.413 0 00-7.413 7.413v3.818a1.26 1.26 0 002.52 0v-3.818a4.893 4.893 0 014.893-4.893h59.212a4.893 4.893 0 014.893 4.893v59.212a4.894 4.894 0 01-4.893 4.893H13.394a4.894 4.894 0 01-4.893-4.893V23.6a1.26 1.26 0 10-2.52 0v49.505zm37.03 1.74a30.876 30.876 0 01-19.426-6.84 1.26 1.26 0 111.58-1.963 28.356 28.356 0 0017.846 6.284c15.73 0 28.48-12.751 28.48-28.48A28.357 28.357 0 0065.21 26a1.26 1.26 0 111.962-1.58 30.876 30.876 0 016.84 19.426c0 17.121-13.879 31-31 31zm-22.03-10.981a1.26 1.26 0 00.16-1.775 28.36 28.36 0 01-6.61-18.244c0-15.73 12.75-28.48 28.48-28.48a28.36 28.36 0 0118.244 6.609 1.26 1.26 0 101.615-1.934 30.88 30.88 0 00-19.859-7.195c-17.12 0-31 13.88-31 31a30.88 30.88 0 007.195 19.86 1.26 1.26 0 001.775.159zM70.07 76.59a4.955 4.955 0 110-9.91 4.955 4.955 0 010 9.91zm-2.436-4.955a2.436 2.436 0 104.872 0 2.436 2.436 0 00-4.872 0zM43.61 50.647a1.25 1.25 0 01-.014.059c-.65 2.53-2.044 5.047-3.748 7.14-1.699 2.087-3.783 3.847-5.89 4.77-3.01 1.317-6.186.886-8.878-.58-2.68-1.46-4.939-3.97-6.248-6.96-1.788-4.081-1.693-8.938.405-12.41 1.044-1.728 2.5-3.023 4.313-3.817 1.11-.486 2.123-.411 3.027-.016.776.339 1.466.918 2.027 1.388l.065.055c1.7 1.425 3.102 2.24 4.383 2.666.906.301 1.79.42 2.728.395a7.21 7.21 0 01.535-2.634c-1.719-1.554-3.18-3.569-4.25-5.67-1.222-2.397-1.988-5.015-1.98-7.315.012-3.285 1.69-6.016 4.12-7.885 2.42-1.86 5.628-2.912 8.892-2.9 4.456.016 8.86 2.067 11.186 5.39 1.158 1.653 1.755 3.508 1.748 5.488-.005 1.212-.483 2.108-1.21 2.775-.624.573-1.433.97-2.09 1.292l-.076.037c-1.99.978-3.304 1.93-4.211 2.93a7.833 7.833 0 00-1.531 2.504 7.27 7.27 0 012.162 2.148c2.252-.511 4.732-.551 7.058-.224 2.664.375 5.249 1.249 7.128 2.575 2.684 1.894 3.958 4.836 4.095 7.898.136 3.049-.843 6.28-2.725 8.947-2.57 3.64-6.775 6.071-10.831 6.071-2.02 0-3.88-.575-5.499-1.717-.99-.699-1.449-1.604-1.579-2.582-.11-.84.028-1.73.14-2.453l.014-.084c.34-2.192.314-3.814.015-5.13a7.821 7.821 0 00-1.151-2.659 7.191 7.191 0 01-2.13.508zm1.835-3.172a4.713 4.713 0 11-4.868-8.072 4.713 4.713 0 014.868 8.072zm2.426 1.32a10.323 10.323 0 011.478 3.445c.39 1.727.388 3.689.017 6.075-.13.837-.204 1.377-.146 1.819.045.336.161.591.534.854 1.178.832 2.528 1.257 4.046 1.257 3.105 0 6.594-1.917 8.773-5.005 1.58-2.24 2.375-4.927 2.266-7.381-.11-2.441-1.1-4.59-3.03-5.952-1.459-1.03-3.627-1.801-6.027-2.139-1.925-.27-3.92-.25-5.711.094a7.26 7.26 0 01.172 1.578 7.213 7.213 0 01-2.372 5.355zM44.587 36.38a7.258 7.258 0 00-1.576-.172 7.213 7.213 0 00-5.32 2.333c-1.322-1.273-2.493-2.907-3.382-4.651-1.1-2.16-1.711-4.378-1.704-6.163.008-2.362 1.2-4.407 3.137-5.897 1.947-1.498 4.603-2.387 7.346-2.377 3.779.013 7.35 1.771 9.131 4.314.87 1.244 1.297 2.594 1.292 4.035-.002.456-.144.698-.394.928-.328.3-.813.55-1.573.924-2.167 1.065-3.776 2.188-4.966 3.498a10.33 10.33 0 00-1.991 3.228zm-8.4 9.461a10.376 10.376 0 01-3.93-.508c-1.679-.557-3.356-1.575-5.207-3.127-.649-.544-1.073-.886-1.482-1.065-.31-.135-.589-.167-1.007.016-1.32.578-2.383 1.513-3.168 2.812-1.605 2.658-1.769 6.635-.253 10.097 1.1 2.512 2.988 4.581 5.145 5.757 2.146 1.17 4.498 1.432 6.662.485 1.635-.716 3.417-2.173 4.947-4.052 1.446-1.776 2.596-3.843 3.172-5.849a7.249 7.249 0 01-4.878-4.566z" fill="url(#paint0_linear_230_6821)"/><defs><linearGradient id="paint0_linear_230_6821" x1="38.521" y1="-7.407" x2="49.782" y2="96.175" gradientUnits="userSpaceOnUse"><stop stop-color="#75B7FF"/><stop offset="1" stop-color="#0044E8"/></linearGradient></defs></svg>