<svg width="318" height="252" viewBox="0 0 318 252" fill="none" xmlns="http://www.w3.org/2000/svg">
<g opacity="0.6">
<path d="M31.878 60.8197C31.6094 60.3518 31.782 59.7332 32.2635 59.438C32.745 59.1428 33.3531 59.2828 33.6217 59.7507L31.878 60.8197ZM179.347 145.282L179.03 144.351L179.347 145.282ZM173.906 154.398L174.736 153.797L173.906 154.398ZM284.09 184.778C284.636 184.823 285.019 185.306 284.945 185.858C284.871 186.409 284.368 186.82 283.821 186.775L284.09 184.778ZM33.6217 59.7507C36.6285 64.988 44.3645 74.026 55.0766 84.3966C65.7647 94.7441 79.3463 106.352 93.9778 116.729C108.615 127.111 124.269 136.237 139.105 141.649C153.969 147.072 167.846 148.707 179.03 144.351L179.664 146.213C167.793 150.837 153.357 149.018 138.335 143.537C123.284 138.046 107.478 128.819 92.7677 118.386C78.0519 107.949 64.3988 96.2796 53.6506 85.8741C42.9264 75.4917 35.0247 66.3007 31.878 60.8197L33.6217 59.7507ZM179.03 144.351C186.169 141.57 190.656 138.717 193.209 136.033C195.73 133.383 196.325 130.956 195.847 128.852C195.353 126.675 193.661 124.615 191.135 122.913C188.625 121.222 185.394 119.957 182.031 119.326C178.666 118.694 175.234 118.709 172.32 119.512C169.416 120.312 167.091 121.872 165.759 124.298C164.421 126.735 163.98 130.238 165.241 135.115C166.502 139.993 169.446 146.153 174.736 153.797L173.076 154.999C167.717 147.256 164.645 140.89 163.306 135.715C161.968 130.539 162.344 126.462 164.022 123.405C165.706 120.338 168.596 118.49 171.889 117.582C175.173 116.677 178.921 116.684 182.5 117.356C186.082 118.029 189.56 119.38 192.308 121.231C195.04 123.072 197.153 125.479 197.795 128.308C198.454 131.21 197.516 134.327 194.618 137.374C191.752 140.387 186.934 143.381 179.664 146.213L179.03 144.351ZM174.736 153.797C191.575 178.126 213.753 185.465 234.278 186.935C244.559 187.671 254.423 186.933 263.01 186.107C271.534 185.286 278.937 184.358 284.09 184.778L283.821 186.775C278.899 186.373 271.768 187.266 263.094 188.101C254.483 188.93 244.483 189.682 234.03 188.933C213.088 187.434 190.316 179.907 173.076 154.999L174.736 153.797Z" fill="#7D9BD4"/>
<path d="M272.813 177.258C272.426 176.856 272.438 176.228 272.838 175.854C273.238 175.481 273.875 175.503 274.262 175.904L272.813 177.258ZM270.124 196.014C269.639 196.274 269.025 196.094 268.752 195.612C268.479 195.13 268.65 194.527 269.135 194.267L270.124 196.014ZM274.262 175.904C275.531 177.222 277.584 179.228 279.607 180.951C280.62 181.814 281.608 182.592 282.476 183.175C283.382 183.783 284.034 184.094 284.402 184.161L284.07 186.113C283.246 185.963 282.285 185.429 281.363 184.81C280.403 184.165 279.348 183.332 278.306 182.444C276.219 180.665 274.116 178.611 272.813 177.258L274.262 175.904ZM284.402 184.161C284.65 184.206 285.087 184.333 285.366 184.748C285.673 185.205 285.576 185.676 285.474 185.934C285.373 186.194 285.205 186.421 285.05 186.601C284.886 186.792 284.686 186.987 284.467 187.182C283.604 187.95 282.195 188.927 280.584 189.955C277.337 192.026 273.065 194.432 270.124 196.014L269.135 194.267C272.057 192.695 276.281 190.316 279.468 188.282C281.074 187.258 282.366 186.353 283.103 185.697C283.283 185.537 283.415 185.404 283.503 185.301C283.601 185.187 283.608 185.154 283.594 185.19C283.58 185.225 283.482 185.51 283.693 185.824C283.876 186.096 284.12 186.122 284.07 186.113L284.402 184.161Z" fill="#7D9BD4"/>
</g>
</svg>
