<svg width="219" height="24" viewBox="0 0 219 24" fill="none" xmlns="http://www.w3.org/2000/svg">
<g opacity="0.9">
<g clip-path="url(#clip0_848_1320)">
<path d="M187.629 7.32834C187.629 7.33073 187.63 7.33305 187.63 7.3354C187.631 7.34299 187.633 7.35048 187.635 7.35786C187.635 7.36021 187.636 7.36253 187.637 7.36485C187.639 7.37351 187.642 7.38199 187.645 7.39019C187.645 7.39094 187.645 7.39173 187.646 7.39244C187.65 7.40178 187.654 7.41084 187.659 7.41957C187.659 7.42003 187.66 7.42053 187.66 7.42099L194.051 18.5555C194.052 18.5574 194.053 18.5591 194.054 18.561C194.057 18.5653 194.059 18.5697 194.062 18.5738C194.064 18.5769 194.067 18.5798 194.069 18.5828C194.071 18.586 194.074 18.5892 194.077 18.5923C194.079 18.5956 194.082 18.5987 194.085 18.6019C194.088 18.6044 194.09 18.6069 194.092 18.6092C194.095 18.6124 194.099 18.6154 194.102 18.6184C194.105 18.6206 194.108 18.6227 194.11 18.6248C194.113 18.6275 194.117 18.6301 194.12 18.6326C194.123 18.6347 194.126 18.6368 194.129 18.6388C194.133 18.6409 194.136 18.6429 194.139 18.6448C194.143 18.6469 194.147 18.649 194.15 18.6509C194.153 18.6524 194.156 18.6537 194.159 18.6551C194.164 18.6571 194.168 18.659 194.172 18.6607C194.175 18.6618 194.178 18.6627 194.181 18.6637C194.185 18.6653 194.19 18.6668 194.194 18.6681C194.197 18.6689 194.2 18.6696 194.203 18.6704C194.208 18.6714 194.212 18.6725 194.217 18.6733C194.221 18.674 194.224 18.6744 194.228 18.6749C194.232 18.6755 194.236 18.676 194.24 18.6763C194.244 18.6767 194.249 18.6768 194.253 18.6769C194.256 18.677 194.258 18.6773 194.261 18.6772L196.084 18.6635C196.085 18.6635 196.086 18.6633 196.087 18.6633C196.095 18.6631 196.104 18.6624 196.112 18.6614C196.114 18.6611 196.116 18.6609 196.118 18.6606C196.137 18.6576 196.156 18.6524 196.174 18.6449C196.176 18.6441 196.178 18.6432 196.18 18.6422C196.187 18.639 196.194 18.6353 196.201 18.6314C196.203 18.6305 196.204 18.6297 196.206 18.6288C196.222 18.6188 196.238 18.6067 196.252 18.5926C196.253 18.591 196.255 18.5894 196.256 18.5878C196.261 18.5822 196.266 18.5764 196.271 18.5703C196.273 18.5683 196.274 18.5663 196.276 18.5642C196.281 18.5565 196.287 18.5484 196.292 18.5398C196.292 18.5397 196.292 18.5395 196.292 18.5394C196.292 18.5393 196.292 18.5393 196.292 18.5392L202.568 7.30952C202.61 7.23338 202.61 7.13994 202.566 7.0644L201.643 5.46872C201.642 5.46819 201.642 5.46773 201.642 5.46723C201.637 5.45846 201.631 5.44994 201.625 5.44181C201.625 5.44177 201.625 5.44177 201.625 5.44177C201.619 5.43407 201.612 5.42684 201.605 5.41989C201.604 5.41842 201.602 5.41703 201.601 5.41561C201.595 5.41005 201.589 5.40474 201.583 5.39967C201.581 5.39846 201.58 5.39718 201.578 5.39604C201.57 5.39015 201.562 5.38459 201.554 5.3796C201.545 5.37468 201.536 5.37055 201.527 5.36681C201.527 5.36652 201.526 5.36613 201.525 5.36584C201.495 5.35337 201.464 5.34745 201.433 5.34766C201.432 5.34766 201.432 5.34777 201.432 5.34777L188.766 5.44327C188.68 5.44391 188.601 5.49126 188.558 5.5674L187.659 7.17673C187.658 7.17734 187.658 7.17798 187.658 7.17858C187.653 7.18732 187.648 7.19634 187.645 7.20571C187.644 7.2061 187.644 7.20657 187.644 7.20699C187.641 7.21551 187.638 7.22432 187.636 7.23327C187.635 7.23569 187.634 7.23808 187.634 7.2405C187.632 7.24774 187.631 7.25505 187.63 7.2625C187.629 7.26507 187.629 7.2676 187.629 7.27013C187.628 7.27926 187.627 7.28849 187.627 7.29786C187.627 7.29833 187.627 7.29879 187.627 7.29925C187.627 7.29933 187.627 7.29943 187.627 7.29954C187.627 7.30931 187.628 7.31886 187.629 7.32834ZM201.438 6.0831L202.079 7.19063L196.078 17.9282L190.981 9.12198L192.246 9.11242L195.85 15.3375C195.85 15.3383 195.851 15.339 195.851 15.3397C195.854 15.3442 195.856 15.3485 195.86 15.3527C195.861 15.3552 195.863 15.3578 195.865 15.3602C195.868 15.3639 195.87 15.3675 195.873 15.3711C195.876 15.3738 195.878 15.3766 195.88 15.3792C195.883 15.382 195.885 15.3847 195.888 15.3875C195.891 15.3905 195.894 15.3936 195.897 15.3965C195.9 15.3985 195.902 15.4004 195.905 15.4024C195.909 15.4057 195.912 15.4089 195.916 15.4119C195.918 15.4135 195.921 15.4149 195.923 15.4165C195.927 15.4195 195.932 15.4225 195.937 15.4252C195.937 15.4256 195.938 15.4261 195.939 15.4265C195.941 15.4277 195.943 15.4285 195.945 15.4296C195.949 15.4319 195.953 15.4341 195.958 15.4362C195.961 15.4378 195.964 15.4392 195.968 15.4406C195.972 15.442 195.975 15.4435 195.979 15.4449C195.983 15.4463 195.987 15.4476 195.992 15.4488C195.995 15.4497 195.998 15.4507 196.001 15.4515C196.005 15.4526 196.01 15.4535 196.015 15.4543C196.018 15.4549 196.021 15.4555 196.024 15.4559C196.028 15.4566 196.033 15.457 196.038 15.4574C196.041 15.4578 196.044 15.458 196.048 15.4581C196.052 15.4583 196.056 15.4584 196.06 15.4583C196.064 15.4583 196.068 15.4582 196.071 15.458C196.075 15.4578 196.079 15.4574 196.083 15.457C196.087 15.4566 196.091 15.4561 196.095 15.4554C196.099 15.4549 196.102 15.4542 196.105 15.4535C196.11 15.4527 196.114 15.4517 196.118 15.4507C196.122 15.4497 196.125 15.4487 196.128 15.4476C196.132 15.4464 196.136 15.4452 196.14 15.4438C196.144 15.4423 196.148 15.4406 196.152 15.439C196.155 15.4376 196.158 15.4363 196.161 15.4347C196.166 15.4326 196.171 15.4301 196.175 15.4276C196.177 15.4266 196.178 15.4258 196.18 15.4248C196.181 15.4244 196.182 15.4239 196.182 15.4235C196.187 15.4206 196.192 15.4174 196.196 15.4142C196.198 15.4127 196.2 15.4113 196.202 15.4098C196.207 15.4067 196.21 15.4033 196.214 15.3999C196.217 15.3979 196.219 15.3961 196.221 15.3941C196.224 15.3911 196.227 15.3879 196.23 15.3847C196.233 15.382 196.235 15.3793 196.238 15.3766C196.24 15.3739 196.243 15.3711 196.245 15.3682C196.248 15.3646 196.251 15.361 196.253 15.3573C196.255 15.3548 196.256 15.3522 196.258 15.3497C196.261 15.3454 196.264 15.3411 196.266 15.3366C196.267 15.3359 196.268 15.3352 196.268 15.3344L201.438 6.0831ZM192.804 9.10818L197.396 9.07357L195.131 13.1275L192.804 9.10818ZM188.909 5.93241L201.018 5.84111L196.054 14.7231L195.413 13.6157L198.922 7.33701C198.943 7.29958 198.954 7.25712 198.954 7.21412C198.953 7.07869 198.843 6.96979 198.71 6.97082L197.112 6.98287C196.979 6.98387 196.871 7.09438 196.872 7.22981C196.873 7.3652 196.982 7.47411 197.116 7.47311L198.296 7.4642L197.671 8.58122L192.382 8.62111C192.382 8.62111 192.382 8.62107 192.382 8.62107L192.381 8.62111L190.698 8.6338L190.057 7.5263L196.15 7.48039C196.283 7.47939 196.39 7.36884 196.389 7.23345C196.388 7.09805 196.279 6.98915 196.146 6.99014L189.636 7.03923L189.635 7.0392C189.635 7.0392 189.635 7.03923 189.635 7.03923L188.285 7.04939L188.909 5.93241ZM189.5 7.53051L195.662 18.1764L194.397 18.186L188.287 7.53967L189.5 7.53051Z" fill="#B9B8B6"/>
<path d="M116.41 5.55876H119.075V18.6179H116.41V5.55876ZM122.468 5.55876H125.116L129.862 10.3212L134.608 5.55876H137.256V18.6179H134.608V9.22667L129.862 13.797L125.116 9.22667V18.6179H122.468V5.55876ZM140.974 5.55876H147.859C148.862 5.55876 149.731 5.66739 150.466 5.88459C151.201 6.10184 151.811 6.41654 152.296 6.82875C152.78 7.23536 153.14 7.73391 153.373 8.32433C153.613 8.91474 153.733 9.58037 153.733 10.3212C153.733 11.0175 153.616 11.6608 153.382 12.2513C153.148 12.8417 152.788 13.3542 152.304 13.7886C151.825 14.2175 151.218 14.5545 150.483 14.7996C149.747 15.0391 148.878 15.1589 147.876 15.1589L143.623 15.1505V18.6179H140.974V5.55876ZM147.926 12.8612C148.427 12.8612 148.864 12.8027 149.238 12.6857C149.616 12.5632 149.931 12.3933 150.182 12.1761C150.438 11.9533 150.627 11.6859 150.75 11.374C150.878 11.0565 150.942 10.7056 150.942 10.3212C150.942 9.54697 150.689 8.9454 150.182 8.51651C149.681 8.08202 148.929 7.86478 147.926 7.86478H143.623V12.8612H147.926ZM156.632 5.55876H163.275C164.277 5.55876 165.146 5.66461 165.881 5.87625C166.617 6.08234 167.226 6.38314 167.711 6.77863C168.195 7.17408 168.555 7.65591 168.789 8.22408C169.028 8.79222 169.148 9.43557 169.148 10.1541C169.148 10.6387 169.09 11.101 168.973 11.5411C168.856 11.9755 168.675 12.3766 168.43 12.7442C168.19 13.1118 167.886 13.4405 167.519 13.7301C167.151 14.0142 166.72 14.2509 166.224 14.4403L169.065 18.6179H165.823L163.366 14.9082H163.291L159.28 14.8998V18.6179H156.632V5.55876ZM163.341 12.6105C163.842 12.6105 164.28 12.5521 164.653 12.4351C165.032 12.3181 165.346 12.1538 165.597 11.9421C165.853 11.7305 166.043 11.4742 166.165 11.1734C166.293 10.8671 166.357 10.5273 166.357 10.1541C166.357 9.42441 166.107 8.86184 165.606 8.46635C165.104 8.0653 164.349 7.86478 163.341 7.86478H159.28V12.6105H163.341ZM171.521 12.0507C171.521 11.0648 171.702 10.1624 172.064 9.34367C172.426 8.52485 172.933 7.82303 173.585 7.23814C174.242 6.64773 175.027 6.19096 175.941 5.86791C176.86 5.54483 177.877 5.3833 178.99 5.3833C180.099 5.3833 181.113 5.54483 182.032 5.86791C182.951 6.19096 183.736 6.64773 184.388 7.23814C185.045 7.82303 185.555 8.52485 185.917 9.34367C186.279 10.1624 186.46 11.0648 186.46 12.0507C186.46 13.0422 186.279 13.9529 185.917 14.7829C185.555 15.6073 185.045 16.3175 184.388 16.9135C183.736 17.5094 182.951 17.9746 182.032 18.3088C181.113 18.6374 180.099 18.8017 178.99 18.8017C177.877 18.8017 176.86 18.6374 175.941 18.3088C175.027 17.9746 174.242 17.5094 173.585 16.9135C172.933 16.3175 172.426 15.6073 172.064 14.7829C171.702 13.9529 171.521 13.0422 171.521 12.0507ZM174.17 12.0507C174.17 12.7247 174.289 13.3319 174.529 13.8722C174.774 14.4125 175.111 14.8748 175.54 15.2591C175.974 15.6379 176.484 15.9303 177.069 16.1364C177.659 16.3425 178.3 16.4455 178.99 16.4455C179.681 16.4455 180.319 16.3425 180.904 16.1364C181.494 15.9303 182.004 15.6379 182.433 15.2591C182.862 14.8748 183.199 14.4125 183.444 13.8722C183.689 13.3319 183.811 12.7247 183.811 12.0507C183.811 11.3768 183.689 10.7724 183.444 10.2377C183.199 9.70293 182.862 9.25176 182.433 8.88412C182.004 8.51091 181.494 8.22686 180.904 8.0319C180.319 7.83694 179.681 7.73947 178.99 7.73947C178.3 7.73947 177.659 7.83694 177.069 8.0319C176.484 8.22686 175.974 8.51091 175.54 8.88412C175.111 9.25176 174.774 9.70293 174.529 10.2377C174.289 10.7724 174.17 11.3768 174.17 12.0507Z" fill="#B9B8B6"/>
<path d="M204.695 14.7327C205.169 15.0001 205.648 15.2424 206.132 15.4596C206.622 15.6713 207.129 15.8523 207.653 16.0027C208.177 16.1475 208.725 16.2589 209.299 16.3369C209.878 16.4149 210.494 16.4539 211.146 16.4539C211.931 16.4539 212.599 16.4038 213.151 16.3035C213.702 16.1976 214.151 16.0556 214.496 15.8774C214.847 15.6936 215.1 15.4763 215.256 15.2257C215.418 14.975 215.499 14.7021 215.499 14.4069C215.499 13.9334 215.301 13.5602 214.905 13.2873C214.51 13.0087 213.9 12.8695 213.076 12.8695C212.713 12.8695 212.332 12.8946 211.931 12.9447C211.53 12.9892 211.123 13.0394 210.711 13.0951C210.304 13.1508 209.901 13.2037 209.5 13.2538C209.104 13.2984 208.731 13.3207 208.38 13.3207C207.795 13.3207 207.232 13.2455 206.692 13.0951C206.158 12.9447 205.681 12.7191 205.263 12.4183C204.851 12.1175 204.523 11.7415 204.277 11.2904C204.033 10.8392 203.91 10.3128 203.91 9.71124C203.91 9.35475 203.957 9.00104 204.052 8.65015C204.152 8.29922 204.308 7.96502 204.52 7.64753C204.737 7.32444 205.015 7.02645 205.355 6.75353C205.695 6.475 206.104 6.23548 206.584 6.03495C207.068 5.83443 207.625 5.67847 208.254 5.56706C208.89 5.4501 209.611 5.3916 210.419 5.3916C211.003 5.3916 211.591 5.42504 212.181 5.49188C212.772 5.55316 213.346 5.64228 213.903 5.75925C214.465 5.87621 215.006 6.01824 215.524 6.18536C216.042 6.34688 216.524 6.52791 216.969 6.72843L215.808 8.86736C215.44 8.70583 215.044 8.55821 214.621 8.42453C214.198 8.28528 213.755 8.16554 213.293 8.06526C212.83 7.96501 212.352 7.88702 211.856 7.83133C211.365 7.77005 210.864 7.73943 210.352 7.73943C209.622 7.73943 209.021 7.79233 208.547 7.89817C208.079 8.00402 207.706 8.14048 207.427 8.30756C207.149 8.46909 206.954 8.65293 206.843 8.85902C206.737 9.05954 206.684 9.26006 206.684 9.46059C206.684 9.85048 206.859 10.1708 207.21 10.4214C207.561 10.6665 208.096 10.7891 208.814 10.7891C209.104 10.7891 209.435 10.7696 209.809 10.7306C210.187 10.686 210.583 10.6387 210.995 10.5886C211.413 10.5384 211.836 10.4938 212.265 10.4549C212.699 10.4103 213.12 10.388 213.527 10.388C214.295 10.388 214.975 10.4743 215.565 10.647C216.161 10.8197 216.66 11.0676 217.061 11.3906C217.462 11.7081 217.766 12.0952 217.972 12.552C218.178 13.0032 218.281 13.5101 218.281 14.0726C218.281 14.8246 218.105 15.4958 217.754 16.0862C217.409 16.6711 216.914 17.1669 216.267 17.5735C215.627 17.9745 214.852 18.2809 213.944 18.4925C213.036 18.6986 212.026 18.8017 210.912 18.8017C210.176 18.8017 209.458 18.7543 208.756 18.6596C208.054 18.5705 207.38 18.4424 206.734 18.2753C206.093 18.1026 205.481 17.8993 204.896 17.6654C204.317 17.4258 203.779 17.1641 203.283 16.88L204.695 14.7327Z" fill="#B9B8B6"/>
</g>
<path d="M0.699628 11.46C0.699628 10.6728 0.838906 9.90374 1.11746 9.15286C1.40813 8.38986 1.82596 7.69953 2.37096 7.08186C2.91596 6.45209 3.58206 5.95553 4.36928 5.5922C5.1565 5.21676 6.05272 5.02904 7.05794 5.02904C8.24483 5.02904 9.26822 5.28942 10.1281 5.8102C11.0001 6.33098 11.648 7.0092 12.0719 7.84486L10.1463 9.17102C9.92827 8.68658 9.64366 8.30508 9.29244 8.02653C8.94122 7.73586 8.56577 7.53603 8.16611 7.42703C7.76644 7.30592 7.37283 7.24536 6.98528 7.24536C6.3555 7.24536 5.80445 7.37253 5.33212 7.62686C4.87189 7.88119 4.48434 8.21425 4.16945 8.62603C3.85456 9.0378 3.6184 9.49802 3.46095 10.0067C3.31562 10.5154 3.24295 11.024 3.24295 11.5327C3.24295 12.1019 3.33379 12.653 3.51545 13.1858C3.69712 13.7066 3.95145 14.1729 4.27845 14.5847C4.61756 14.9843 5.01723 15.3053 5.47745 15.5475C5.94978 15.7776 6.4645 15.8927 7.02161 15.8927C7.42128 15.8927 7.827 15.8261 8.23877 15.6928C8.65055 15.5596 9.03205 15.3477 9.38327 15.057C9.73449 14.7663 10.007 14.3909 10.2008 13.9307L12.2536 15.1115C11.9993 15.7534 11.5814 16.2984 11.0001 16.7465C10.4309 17.1946 9.78899 17.5337 9.07444 17.7638C8.35989 17.9939 7.65139 18.109 6.94894 18.109C6.0285 18.109 5.18678 17.9213 4.42378 17.5458C3.66079 17.1583 3.00073 16.6496 2.44362 16.0198C1.89863 15.378 1.46868 14.6634 1.15379 13.8762C0.851017 13.0768 0.699628 12.2715 0.699628 11.46ZM13.9349 18V5.1017H19.6392C20.2326 5.1017 20.7776 5.22281 21.2742 5.46503C21.7828 5.70726 22.2188 6.03425 22.5822 6.44603C22.9576 6.85781 23.2422 7.31803 23.436 7.82669C23.6419 8.33536 23.7448 8.85614 23.7448 9.38902C23.7448 9.93402 23.6479 10.4609 23.4542 10.9695C23.2725 11.4661 23.0061 11.9021 22.6548 12.2775C22.3036 12.653 21.8918 12.9436 21.4195 13.1495L24.3625 18H21.6012L18.9488 13.6763H16.4419V18H13.9349ZM16.4419 11.4782H19.5847C19.8996 11.4782 20.1781 11.3874 20.4203 11.2057C20.6626 11.0119 20.8563 10.7576 21.0017 10.4427C21.147 10.1278 21.2197 9.77658 21.2197 9.38902C21.2197 8.97725 21.1349 8.61997 20.9653 8.31719C20.7958 8.0023 20.5778 7.75403 20.3113 7.57236C20.057 7.3907 19.7785 7.29986 19.4757 7.29986H16.4419V11.4782ZM34.9725 15.8018V18H26.0164V5.1017H34.809V7.29986H28.5234V10.4064H33.9552V12.441H28.5234V15.8018H34.9725ZM40.4331 5.1017H42.9765L47.718 18H45.1383L43.9393 14.7845H39.434L38.2531 18H35.6735L40.4331 5.1017ZM43.4851 13.0223L41.7048 7.69953L39.8518 13.0223H43.4851ZM57.5728 7.29986H53.449V18H50.9601V7.29986H46.8363V5.1017H57.5728V7.29986ZM68.1301 15.8018V18H59.174V5.1017H67.9666V7.29986H61.681V10.4064H67.1128V12.441H61.681V15.8018H68.1301ZM70.0846 18V5.1017H74.7716C76.1765 5.1017 77.3513 5.39237 78.2959 5.9737C79.2406 6.54292 79.9491 7.31803 80.4214 8.29903C80.8937 9.26791 81.1299 10.3458 81.1299 11.5327C81.1299 12.8407 80.8695 13.9791 80.3487 14.948C79.828 15.9169 79.0892 16.6678 78.1324 17.2007C77.1878 17.7336 76.0675 18 74.7716 18H70.0846ZM78.6048 11.5327C78.6048 10.697 78.4534 9.9643 78.1506 9.33452C77.8478 8.69264 77.4118 8.19608 76.8426 7.84486C76.2734 7.48153 75.583 7.29986 74.7716 7.29986H72.5916V15.8018H74.7716C75.5952 15.8018 76.2915 15.6202 76.8608 15.2568C77.43 14.8814 77.8599 14.3727 78.1506 13.7308C78.4534 13.0768 78.6048 12.3441 78.6048 11.5327ZM97.8442 14.6755C97.8442 15.4022 97.6565 16.0138 97.281 16.5103C96.9056 16.9948 96.3969 17.3642 95.755 17.6185C95.1252 17.8728 94.4349 18 93.684 18H87.4529V5.1017H94.3562C94.9617 5.1017 95.4825 5.2652 95.9185 5.5922C96.3666 5.90709 96.7057 6.31887 96.9359 6.82753C97.1781 7.32409 97.2992 7.84486 97.2992 8.38986C97.2992 9.00752 97.1417 9.59491 96.8269 10.152C96.512 10.7091 96.0517 11.1209 95.4462 11.3874C96.185 11.6054 96.7663 11.999 97.1902 12.5682C97.6262 13.1374 97.8442 13.8398 97.8442 14.6755ZM95.319 14.2032C95.319 13.8762 95.2524 13.5855 95.1192 13.3312C94.986 13.0647 94.8043 12.8588 94.5742 12.7135C94.3562 12.5561 94.1019 12.4773 93.8112 12.4773H89.9599V15.8745H93.684C93.9868 15.8745 94.2593 15.8018 94.5015 15.6565C94.7559 15.4991 94.9557 15.2932 95.101 15.0388C95.2464 14.7845 95.319 14.506 95.319 14.2032ZM89.9599 7.24536V10.4972H93.3025C93.5811 10.4972 93.8354 10.4306 94.0655 10.2974C94.2956 10.1641 94.4773 9.97641 94.6105 9.73419C94.7559 9.49197 94.8285 9.2013 94.8285 8.86219C94.8285 8.53519 94.7619 8.25058 94.6287 8.00836C94.5076 7.76614 94.338 7.57842 94.12 7.4452C93.9141 7.31197 93.678 7.24536 93.4115 7.24536H89.9599ZM100.668 5.1017L103.848 11.1694L107.081 5.1017H109.788L105.101 13.4947V18H102.612V13.4583L97.9434 5.1017H100.668Z" fill="#B9B8B6"/>
</g>
<defs>
<clipPath id="clip0_848_1320">
<rect width="104.109" height="13.9743" fill="white" transform="translate(114.891 5)"/>
</clipPath>
</defs>
</svg>
