<svg width="1440" height="317" viewBox="0 0 1440 317" fill="none" xmlns="http://www.w3.org/2000/svg">
<path opacity="0.43" d="M-24 125.799C3.10022 125.799 32.1755 128.055 58.8908 124.548C86.4986 120.923 116.554 104.002 131.641 86.4241C151.183 63.6548 161.68 28.1229 127.893 8.6749C103.201 -5.53773 73.985 4.46933 63.2999 24.3582C49.9449 49.2167 49.4113 72.503 49.4113 98.7705C49.4113 149.491 112.145 191.221 164.488 215.895C230.285 246.91 305.056 260.578 381.085 268.951C486.847 280.599 594.283 278.962 700.854 278.962C764.691 278.962 828.661 279.769 892.428 276.96C996.273 272.385 1099.65 262.122 1203.38 256.188C1252.26 253.391 1301.17 251.128 1350.2 250.598C1389.52 250.173 1430.04 249.123 1468.7 255.604C1505.89 261.839 1538.16 276.539 1568.01 293.978C1577.79 299.69 1591.38 306.487 1597 315" stroke="#7D9BD4" stroke-width="2.2" stroke-linecap="round"/>
</svg>
