<svg width="35" height="35" viewBox="0 0 35 35" fill="none" xmlns="http://www.w3.org/2000/svg">
<path d="M17.4348 34.4729C12.9582 34.4541 8.67243 32.6581 5.51987 29.4798C2.36732 26.3015 0.606149 22.0013 0.623665 17.5247C0.660572 8.21231 8.26869 0.684595 17.589 0.728093C26.8724 0.772908 34.3949 8.35597 34.3698 17.6447C34.3548 22.1217 32.5624 26.4095 29.3866 29.5652C26.2109 32.721 21.9118 34.4863 17.4348 34.4729ZM21.7845 26.4048C23.8777 26.4351 25.1523 25.4347 26.2042 24.1021C26.3452 23.9228 26.2371 23.3442 26.0447 23.1346C25.1114 22.1144 24.1176 21.1495 23.1303 20.1807C22.6466 19.7075 22.3395 19.7233 21.8333 20.2137C21.3061 20.7409 20.7933 21.2853 20.2516 21.8033C19.6018 22.4307 18.9045 22.494 18.169 21.976C16.2401 20.625 14.5477 18.9647 13.1602 17.0621C12.6435 16.3543 12.7054 15.6121 13.3118 14.9742C13.839 14.4193 14.4018 13.8907 14.937 13.3397C15.4313 12.8296 15.4365 12.4909 14.9462 11.9874C14.2568 11.2795 13.5517 10.5875 12.8531 9.88894C11.4163 8.4522 11.4203 8.45747 10.0112 9.92189C8.60216 11.3863 8.23837 13.0748 8.95673 14.9544C10.6703 19.4558 13.8034 22.7313 17.962 25.0551C19.2353 25.7642 20.5864 26.2915 21.7872 26.4061L21.7845 26.4048Z" fill="#F8E4AE"/>
</svg>
