<svg width="28" height="19" viewBox="0 0 28 19" fill="none" xmlns="http://www.w3.org/2000/svg">
<path d="M1.38977 0.177037C1.79891 0.108131 2.11833 0.00742063 2.43774 0.00636054C9.89062 -0.00212018 17.3438 -0.00212018 24.7974 0.00636054C25.1179 0.00636054 25.4469 0.0985872 25.9031 0.167493C25.6894 0.391172 25.5741 0.514144 25.4555 0.632874L14.5197 11.5105C13.8627 12.1624 13.4055 12.1688 12.7635 11.5295C9.10508 7.89202 5.44737 4.25238 1.79037 0.610613C1.68034 0.504604 1.57992 0.385875 1.38977 0.177037Z" fill="black"/>
<path d="M9.71253 10.7249C10.3535 11.361 11.0457 12.0628 11.7508 12.7571C12.8885 13.8787 14.3787 13.8745 15.5207 12.7486C16.2246 12.0564 16.9233 11.3578 17.5407 10.7451L25.8016 18.8431C25.4512 18.8982 25.1275 18.9926 24.8027 18.9936C17.352 19.0021 9.90055 19.0021 2.44838 18.9936C2.1279 18.9936 1.80742 18.8951 1.4314 18.8346L9.71253 10.7249Z" fill="black"/>
<path d="M0.177338 1.38236L8.38584 9.44541L0.17413 17.5116C0.129263 17.2784 0.00961432 16.9509 0.00961432 16.6233C-0.00320477 11.8741 -0.00320477 7.12558 0.00961432 2.37779C0.00854606 2.0534 0.115379 1.73007 0.177338 1.38236Z" fill="black"/>
<path d="M27.0868 17.6282L18.8794 9.57156L27.0889 1.51487C27.1306 1.72159 27.2513 2.04491 27.2524 2.37036C27.2638 7.11886 27.2638 11.867 27.2524 16.6148C27.2535 16.9339 27.1552 17.2583 27.0868 17.6282Z" fill="black"/>
</svg>
