<svg width="19" height="20" viewBox="0 0 19 20" fill="none" xmlns="http://www.w3.org/2000/svg">
<path d="M3.28539 1.00074C3.84187 1.00074 4.40133 0.993302 4.95483 1.00074C5.86693 1.01637 6.50004 1.62366 6.52682 2.52863C6.54726 3.64173 6.72125 4.74667 7.04387 5.81214C7.23581 6.42389 7.12868 6.9642 6.71207 7.47176C6.20989 8.08202 5.74492 8.72428 5.28441 9.3658C5.25089 9.42289 5.23073 9.48683 5.22544 9.55282C5.22016 9.61882 5.2299 9.68515 5.25391 9.74684C6.3944 11.9393 8.07425 13.6004 10.2608 14.7458C10.356 14.7956 10.5479 14.7659 10.6409 14.6989C11.3006 14.2196 11.9518 13.7284 12.5946 13.2253C13.0409 12.8785 13.5238 12.7721 14.0557 12.9276C15.1687 13.2628 16.3218 13.4463 17.4839 13.4732C18.3677 13.4925 18.9815 14.1385 18.9911 15.0278C19.003 16.1526 19.003 17.2776 18.9911 18.4029C18.9837 19.3629 18.3305 20.0156 17.3678 19.9925C11.5411 19.8526 6.85863 17.451 3.3583 12.8004C1.47459 10.2976 0.42635 7.44199 0.0848728 4.33263C0.0256233 3.74485 -0.00268735 3.15436 6.024e-05 2.56361C6.024e-05 1.67054 0.645816 1.0253 1.54229 1.00595C2.12332 0.994047 2.70436 1.00074 3.28539 1.00074Z" fill="black"/>
</svg>
