<svg xmlns="http://www.w3.org/2000/svg" viewBox="0 0 95.44 59.68"><defs><style>.cls-1{fill:#fff;}</style></defs><g id="Слой_2" data-name="Слой 2"><g id="Слой_1-2" data-name="Слой 1"><path class="cls-1" d="M95.38,25.34c-.49-.49-.84,1.2-2.12-.06l-9.4-9.19c-.25-.24-.38-.44-.55-.27a.7.7,0,0,0-.15.37c-.54,2.31-1.59,2.89-1.17,3.3s.87-1.17,2-.06l3.11,3.05a3.21,3.21,0,0,0-1.76,1,4.59,4.59,0,0,0-.15,5.81c1.27,2,4.12,3.73,6.19,1.62a4.13,4.13,0,0,0,1.11-3.18c.79.77,1,1,1.22.8a4.27,4.27,0,0,0,.43-.82c.51-1,1.54-2.09,1.23-2.39m-3.46,2.24A2.52,2.52,0,0,1,91.2,29c-1.27,1.3-3.71.12-4.7-.85s-2.06-2.56-.87-3.79a2.85,2.85,0,0,1,2.69-.7l3.08,3c.31.3.55.44.52.9m-9.69-18C86.35,5.54,85.06,4,85.06,4c-1.2-2.37-5-1.14-6.48-.53A13,13,0,0,0,56.65,13a12.83,12.83,0,0,0,.55,3.75,17,17,0,0,0-2.74,2.89l-.4-.71-.46.23-.34,2.34-2.14,1V23l1.85.52-.36,2.31.48.27L54.64,24l1.91.51.23-.42-.36-.69a19.5,19.5,0,0,0,4.26-.95,13,13,0,0,0,22-9.42,13.09,13.09,0,0,0-.48-3.5M80,15.16l.07-.2c.1.07.39.07.23.23a.19.19,0,0,1-.3,0m.19-.5c-.06-.15.15-.37.15-.37l.15.12c-.08.18-.25.41-.3.25m-.65,4.23a.9.9,0,0,0,0-.25l.2.07a1.2,1.2,0,0,1,.22-.29c.08-.07.18.11.18.11a1.78,1.78,0,0,0-.25.41,3.45,3.45,0,0,1-.2.43l-.18-.19a1,1,0,0,1,0-.29m-1,1.72A3.52,3.52,0,0,0,79,20a4.25,4.25,0,0,1,.48-.38,2.11,2.11,0,0,1-.27.45,2.31,2.31,0,0,1-.18.31c-.09.14,0,.21-.16.35s-.49.13-.28-.08m.17-5.16a.2.2,0,0,1-.24-.09l0-.19c.06.08.36.22.2.28m-.17,1.12s0,.09.06.08h.11s0,.17-.07.21-.39-.19-.1-.29m-1.34-1.76,0-.19c.06.08.37.22.21.28a.21.21,0,0,1-.25-.09m-.12-.14a.21.21,0,0,1-.25-.09l0-.19c.07.08.37.23.21.28m-1.36,7c.1-.11.56-.41.57-.31a1,1,0,0,1-.17.35L76,22ZM69.17,21a1.42,1.42,0,0,1,.37-.27,2.16,2.16,0,0,0,.52-.25.64.64,0,0,0,.2-.65.16.16,0,0,1,.07-.2l.2.07,0-.31,0-.2a2.33,2.33,0,0,0,.26-.27c.07-.1.19-.07.35,0a1.19,1.19,0,0,0,.51-.07,3,3,0,0,1-.08-.33c0-.17.2-.36.2-.36s-.23,0-.12-.13.49,0,.49,0l.39-.21c.18-.1.26-.17.38-.14s0,.17,0,.33,0,.34.09.36a3,3,0,0,0,.71.08l.38-.14c.16-.06.12-.26.09-.35a2.25,2.25,0,0,1-.11-.5c0-.31-.29-.34-.12-.46s.59.47.72.43a.18.18,0,0,0,.11-.19l.17.37.24.17.21.21a3.56,3.56,0,0,1,.56.16,2.69,2.69,0,0,1,1.09.86,1.43,1.43,0,0,1-.17.92,3,3,0,0,0-.27.85,1,1,0,0,1-.37.48,1,1,0,0,1-.26.06c-.11,0-.24.23-.33.3a.93.93,0,0,1-.41.14c-.17,0-.24-.16-.4-.22a.55.55,0,0,1-.21-.1l-.07-.3a1.71,1.71,0,0,1-.38.57c-.23.22-.2-.18-.2-.18l-.26-.12a1.13,1.13,0,0,0-.39,0,2.78,2.78,0,0,0-.47.28l-.46.23c-.34.16-.19.07-.24.23s-.36.3-.36.3l-.21.11c-.21.11-.08.07-.33.27a1.23,1.23,0,0,1-.53.22l-.23-.24-.09-.26-.17-.08a.7.7,0,0,0-.45-.27,1.06,1.06,0,0,1-.55-.34l.42.17-.1-.17-.28-.26a1.35,1.35,0,0,1-.18-.33c-.07-.19.17-.21.17-.21m7.41-6.3a.22.22,0,0,1-.24-.09l0-.19c.06.08.36.22.2.28M60.34,16.81a2,2,0,0,1,0-.3.77.77,0,0,1,.25.3c0,.1.12.25,0,.34s-.12.26-.2.14a1.14,1.14,0,0,1-.14-.48M54.7,21.64l1.23-.59L55,22.3l.17.31a1.08,1.08,0,0,1-.78-.55l-.64.22a1.84,1.84,0,0,0,1.81,1.08l.14.23-1.36-.36-.83,1.14.2-1.34-1.32-.36L53.88,22l.23-1.48Zm2.72-4.18a12.92,12.92,0,0,0,2.72,4.44,13.39,13.39,0,0,1-4.09.79l-.21-.36,1.49-2-.07-.61-2.26,1-.15-.32a10.14,10.14,0,0,1,2.57-3M69,.8l-.3.36-.19.06-.24.05,0,.2-.2.15a2.47,2.47,0,0,1-.65.19,4.2,4.2,0,0,0-1.27.24c-.85.22-.54.19-.84.33a2.91,2.91,0,0,1-.67.24c-.14,0-.35-.17-.35-.17l0,.27-.39-.18c-.17-.09-.42,0-.8.17a13.75,13.75,0,0,1,2.93-1.43A9.82,9.82,0,0,1,69,.8m.33.74a2.88,2.88,0,0,1,.54-.09.17.17,0,0,0-.12.26c.11.21.28.29.16.34a1,1,0,0,0-.31.25l-.17.13s-.08.35.13.35.22,0,.25.12,0,.26,0,.39a1.91,1.91,0,0,1,0,.53l-.56-.38c-.14-.09-.31-.06-.26-.22a2.57,2.57,0,0,0,.1-.65c0-.13,0-.16-.26,0s-.27.13-.36.2-.17.2,0,.2.06.16-.13.23a3.13,3.13,0,0,1-.52.14,1.21,1.21,0,0,0-.53.22c-.11.11-.09.36-.2.47s-.4.36-.14.4a1,1,0,0,0,.43,0l.2-.15.26.34a.19.19,0,0,0,0,.22c.08.12,0,.32,0,.43a2.14,2.14,0,0,1,0,.49,1.83,1.83,0,0,1-.2.54c-.09.17-.16.26-.33.29s-.27-.16-.3,0,.07.29,0,.39.07.19-.06.24a1.33,1.33,0,0,0-.29.17s0,.24.17.3A.9.9,0,0,1,67.2,8a.53.53,0,0,1,.13.24.32.32,0,0,1-.18.31.54.54,0,0,0-.22.19,1.06,1.06,0,0,0-.12-.46A.42.42,0,0,1,66.7,8h-.24s0-.11,0-.21,0-.16-.18-.12a.74.74,0,0,0-.29.29,2,2,0,0,1-.3.25,2,2,0,0,0,.1-.4c0-.15,0-.27-.06-.19a1,1,0,0,0-.23.26.26.26,0,0,1-.14.23c-.14.08-.08,0-.14.08a.31.31,0,0,0,.05.34c.06.09.25.31.32.21l.24-.34s.23-.15.24,0a.26.26,0,0,1-.14.3c-.1,0-.25.31-.25.31l.07.19A1.77,1.77,0,0,1,66,9.3l.16.12,0,.16-.22.3.28,0a.92.92,0,0,1,.09.47c0,.19-.06.41-.08.56a1.8,1.8,0,0,1-.23.66c-.13.15-.26.37-.37.48a1.89,1.89,0,0,1-.45.34l-.44.26.06.16s-.16.06-.21-.07-.2-.28-.29-.22,0,.3-.17.42-.27-.05-.17.35.19.43.35.48.4.11.47.3.06.37.12.45a1.07,1.07,0,0,1,.1.37,2.33,2.33,0,0,1-.21.32.64.64,0,0,1-.25.19l-.11.4-.19-.33-.14-.09a.44.44,0,0,1-.25-.09,2,2,0,0,0-.21-.21,1.07,1.07,0,0,1-.23,0,.39.39,0,0,1-.2-.17s0,.28,0,.42,0,.23,0,.4.11.21.22.31l.23.24a.83.83,0,0,1,.77.58,1.21,1.21,0,0,0,.19.33l.26.23a2,2,0,0,1-.66-.16,1.27,1.27,0,0,1-.41-.46c-.09-.15-.38-.26-.49-.36a1.14,1.14,0,0,1-.22-.42,3.35,3.35,0,0,0-.29-1,5.2,5.2,0,0,1-.36-.52,1.7,1.7,0,0,0-.23.27.46.46,0,0,1-.33.15,1.19,1.19,0,0,0,0-.5,4.39,4.39,0,0,0-.14-.49.81.81,0,0,1-.3-.25,1.6,1.6,0,0,0-.3-.32,1.56,1.56,0,0,0-.36.2c-.16.13-.18.17-.18.28a1.77,1.77,0,0,1-.14.4l-.14.3a.75.75,0,0,0-.12.29.82.82,0,0,1-.11.29l-.19.07.14.38a3.35,3.35,0,0,1,.06.59l-.08.28v.18s0,.45-.09.24-.66-1.37-.76-1.66a5.49,5.49,0,0,1-.17-.86l0-.44s-.13.26-.26.19-.07-.29-.07-.29a3.31,3.31,0,0,1-.23-.35,1.8,1.8,0,0,1-.14-.31l0-.13s-.25.09-.33,0a2.12,2.12,0,0,1-.35-.68c0,.36,0,.78,0,.78l.15-.19a5.33,5.33,0,0,1,.2.68c0,.1,0,.48,0,.48a1.85,1.85,0,0,1-.12.57.47.47,0,0,0,0,.34l.12.42s-.14.12-.1.21a1.46,1.46,0,0,0,.12.25s.14.59.14.7a7,7,0,0,0,.28.79,8.92,8.92,0,0,1-.85-4.13A13.41,13.41,0,0,1,61.2,4.22s0,.32.17.26.36-.09.43-.19A1.53,1.53,0,0,1,62,4.07l.32-.29.26,0a2.75,2.75,0,0,1,.31-.22l.48-.28a1.62,1.62,0,0,1,.48-.24c.35-.13,1.09-.67.74-.23s.18.08.46,0a.7.7,0,0,1,.5,0l.63-.25a4.62,4.62,0,0,1,.63-.33,3.92,3.92,0,0,1,.8-.07l.44-.27a1.8,1.8,0,0,1,.38-.24c.16,0,.36-.2.47-.17a.74.74,0,0,0,.45.06M67.72,17.05l0,.24s0,.2-.07.23a1.35,1.35,0,0,1-.34.12l-.61.11-.21-.1a1.36,1.36,0,0,0-.25-.2.63.63,0,0,0-.33-.1s-.28-.22,0-.37l.23-.15s-.08-.12.17-.32.24-.22.26-.37a.87.87,0,0,1,.15-.38,3.81,3.81,0,0,0,.21-.32l.15-.2c.1.11.09.18.28.19a.7.7,0,0,0,.34,0c.12-.05.38,0,.17.08a1,1,0,0,0-.33.3l0,.14a1.28,1.28,0,0,0,.21.29l.28.19-.28.1,0,.29.11.22Zm.92,0s.1.29.14.38,0,.33-.14.23-.14-.41-.14-.41l-.28,0a3.28,3.28,0,0,1,0-.38.23.23,0,0,0,0-.2l.08-.38a1.52,1.52,0,0,1,.3-.18L69,16c.16-.06.19-.18.3-.29l-.06.35s-.37.16-.72.29,0,.33.13.27l.45-.16-.28.21A1.15,1.15,0,0,0,69,17a4.55,4.55,0,0,0,.41.25s-.09.14-.2.14-.54-.31-.54-.31m.08-10.88c.09.07.36.23.36.23l.11.21.14.38c0,.13.1.29.1.29s-.05.16-.15.19a1.37,1.37,0,0,0-.3.25c-.09.07-.1.14-.22.19a.94.94,0,0,0-.29.2l-.27.14s0-.12-.15.19-.13.44-.13.44l0,.16-.17-.4s-.25-.31.23-.55a1.14,1.14,0,0,0,.59-.56,1.94,1.94,0,0,1,.25-.31.45.45,0,0,0,.15-.27l-.11-.42a1.09,1.09,0,0,0-.17-.26c-.12-.14-.12-.24,0-.31a.54.54,0,0,0,.13-.26l0-.14a2.24,2.24,0,0,0,.45.06l.16,0a.22.22,0,0,1-.1.21c-.12.08-.33.19-.33.19s-.27,0-.17.1m-.24-1.27,0,.23.23.17-.2.14A2.2,2.2,0,0,1,68.27,5c0-.13-.17-.26-.2-.36s-.25-.49-.11-.5.19.33.31.36.45.16.45.16Zm-1.21,8.18c0,.09.32.2.32.2l.32-.11s0,.17-.1.22l-.4.1A.83.83,0,0,1,67,13.3a.55.55,0,0,1-.12-.43c0-.18-.09-.36,0-.42a.8.8,0,0,1,.28-.11c.11.11.17.19.09.36a.43.43,0,0,0,0,.37m0,1.36a1.23,1.23,0,0,1-.23.44.25.25,0,0,1-.18.1s.27-.85.45-1,0,.26,0,.41m-.11-.82h.29s.09.25-.06.23-.23-.24-.23-.24m1-.15c.08-.06.26,0,.26,0l.06.19c0,.1.24.27.06.27a.5.5,0,0,1-.29-.11s-.17-.3-.09-.37m0,1.31c-.1.14-.25,0-.14-.09a3.28,3.28,0,0,0,.36-.38,1.2,1.2,0,0,1,.4-.28c.05.12,0,.17.13.27a.24.24,0,0,1,.08.22l-.15.09.06.16s0,.13-.06.13a.75.75,0,0,1-.3-.14s0-.23-.16-.16-.13,0-.22.18M68,14.25l-.17-.19-.14-.2h.21c.13.07.33,0,.41.15s.11.21,0,.25a.52.52,0,0,1-.29,0m-1.35-2.7a.21.21,0,0,1-.05.26,2.51,2.51,0,0,1,0-.87c.08-.17.19-.07.24.09s-.23.37-.14.52m-.77,7.09-.25.09s-.22.19-.5-.11a1.68,1.68,0,0,0-.53-.38s-.15,0-.35-.27-.25-.2-.39-.29-.1-.29-.47-.33a.65.65,0,0,1-.49-.47,1.46,1.46,0,0,0,.53,0l.2.25.46.19s.41,0,.5.11l.25.41a1.77,1.77,0,0,0,.3.14.73.73,0,0,1,.25.2l.3.14Zm-1.09-5.29c-.18,0-.33-.13-.24-.27s.38-.25.44-.09,0,.37-.2.36m5.33,2.43c0,.1.12.35.12.35l-.11.19-.21-.39-.13-.28.1-.33,0-.11.2.28a.48.48,0,0,0,0,.29M73.21,1.42l-1.49-.29s0,0,0,.16l0,0h.06c.13.06.45.27.45.27a2.51,2.51,0,0,1-.51-.28,1,1,0,0,0-.36.05,1.85,1.85,0,0,1-.41,0,.65.65,0,0,1-.36-.23,3.63,3.63,0,0,1-.43.12c-.17,0-.13-.17-.13-.17l-.32.11a.52.52,0,0,1-.5-.1c-.15-.13-.11-.22.07-.32a8.19,8.19,0,0,1,3.85.6m8.14,8,.46.54A48.86,48.86,0,0,1,76,14.48c.11.08.26.17.14.22a.21.21,0,0,1-.25-.09l0-.06-1.26.84,0,.13s.31.25.41.25a2.4,2.4,0,0,1,.48.16l-.44.15a4.27,4.27,0,0,1-.64-.2A.35.35,0,0,0,74,16c-.09.14,0,.38-.16.46a1.62,1.62,0,0,1-.57,0l-.45.23,0-.12-1.37.82A61.37,61.37,0,0,1,61,22.33l-.31-.62a51.39,51.39,0,0,0,6.63-2.85l-.24,0a2.3,2.3,0,0,0-.57-.09,4.8,4.8,0,0,1-.64,0c.23-.18.46-.34.63-.25a.54.54,0,0,0,.45,0,7.48,7.48,0,0,1,.74-.16l0,.13.49-.14h0c.92-.48,1.85-1,2.8-1.55l1.28-.77-.18,0-.4.1c-.09,0-.4.07-.47,0s0-.09.15-.2,0-.2,0-.2l-.08.1A2.25,2.25,0,0,1,71,16c-.17,0-.14-.17-.07-.3s.21-.11.31-.11a.87.87,0,0,1,.28.08l.22.31s.2.07.23,0a.78.78,0,0,1,.2-.36,2,2,0,0,0,.17-.24,1.58,1.58,0,0,1,.29,0,2.06,2.06,0,0,0,.71-.14,2.07,2.07,0,0,1,.45-.07,53.51,53.51,0,0,0,7.58-5.75M82,8.78A13,13,0,0,0,79.09,4c4.32-1.6,5.15,0,5.15,0,1.21,1-1.06,3.54-2.24,4.72M50.26,19.46l2.17.37V17.62l-6.27-1.3v2.45l2.16.41v18.9l1.94-.39ZM42.1,39.4l3.12-.66V16.12l-1.95-.41V35.79H43.2L40.52,15.2l-3.26-.73v26l2-.36V17.73h.07Zm-5.17,13a.71.71,0,0,0-.74.77v5.64a.75.75,0,1,0,1.49,0V56.68H40.8v2.17a.74.74,0,1,0,1.48,0V53.21a.74.74,0,1,0-1.48,0v2.1H37.68v-2.1a.71.71,0,0,0-.75-.77M34.35,41.11l2.45-.54-3.94-27-3.78-.79L24.59,43.24l2.63-.57,1.28-9.61,4.75-.43ZM32.78,29.38l-3.8.18,1.88-13.29h.07ZM22,43.79l3.61-31.68L23,11.58,20.51,36.51h-.09L17.84,10.43,15,9.89l4,34.58ZM16.64,45,11.36,9.12l-5-1-6,40.37,3.28-.7L5.45,35.12l6.62-.61,1.47,11.15ZM11.48,30.22l-5.42.16L8.75,12.71h.09ZM0,56a3.42,3.42,0,1,0,6.83,0,3.47,3.47,0,0,0-3.42-3.65A3.43,3.43,0,0,0,0,56m1.55,0c0-1.2.62-2.28,1.86-2.28S5.28,54.83,5.28,56s-.6,2.29-1.87,2.29S1.55,57.24,1.55,56m5.91-2.82v3.55a2.93,2.93,0,0,0,3,2.92,3,3,0,0,0,3-2.92V53.21a.75.75,0,1,0-1.49,0v3.47a1.57,1.57,0,0,1-1.52,1.64A1.52,1.52,0,0,1,9,56.68V53.21a.75.75,0,1,0-1.49,0m6.4,0a.64.64,0,0,0,.67.69h1.09v5a.74.74,0,1,0,1.48,0v-5h1.09a.64.64,0,0,0,.67-.69.66.66,0,0,0-.67-.68H14.53a.66.66,0,0,0-.67.68M21.57,56a3.42,3.42,0,1,0,6.83,0A3.47,3.47,0,0,0,25,52.38,3.43,3.43,0,0,0,21.57,56m1.55,0c0-1.2.62-2.28,1.86-2.28s1.87,1.08,1.87,2.28-.6,2.29-1.87,2.29S23.12,57.24,23.12,56m6-2.76v5.58a.75.75,0,1,0,1.49,0V56.68h1.54a.67.67,0,0,0,.71-.7.66.66,0,0,0-.71-.67H30.61V53.87h1.83a.65.65,0,0,0,.66-.69.64.64,0,0,0-.66-.68H29.9a.74.74,0,0,0-.78.77M43,56a3.42,3.42,0,1,0,6.83,0,3.47,3.47,0,0,0-3.42-3.65A3.43,3.43,0,0,0,43,56m1.55,0c0-1.2.62-2.28,1.86-2.28s1.87,1.08,1.87,2.28-.61,2.29-1.87,2.29S44.56,57.24,44.56,56m5.64,2.71v.17a.68.68,0,0,0,.71.71c.5,0,.7-.22.77-.69l.59-4h0l1.19,4.16a.84.84,0,0,0,1.59,0l1.19-4.16h0l.58,4a.75.75,0,0,0,1.49,0,1,1,0,0,0,0-.17l-.92-5.54a1,1,0,0,0-1-.76,1,1,0,0,0-1,.71l-1.18,3.93h0l-1.17-3.93a1.06,1.06,0,0,0-1-.71,1,1,0,0,0-1,.76Zm8.9-5.38v5.46a.73.73,0,0,0,.76.75h2.56a.68.68,0,0,0,.71-.69.66.66,0,0,0-.71-.68H60.59V56.68h1.62a.69.69,0,0,0,.73-.69.67.67,0,0,0-.73-.68H60.59V53.87h1.74a.68.68,0,0,0,.71-.69.66.66,0,0,0-.71-.68H59.87c-.52,0-.77.36-.77.86m.58-11.57c4.6,0,6.88-3.3,6.87-4.16,0-.13-.19-.24-.3-.24-.56,0-2,2.84-5.37,2.86C56.75,40.27,55,36,55,33s1.73-5.94,4.91-6c2.5,0,4.42,1.86,5.51,3.93.15.28.3.73.65.73s.28-.5.25-.71l-.4-4.11c0-.11-.16-.13-.26-.13-.31,0-.32.72-.74.72-.64,0-2.32-1.31-4.93-1.3-5.45,0-7.65,4.82-7.64,8.45,0,1.71,1,7.24,7.35,7.21m6.48,17a.52.52,0,0,0,0,.17.68.68,0,0,0,.72.71.67.67,0,0,0,.77-.69l.59-4h0l1.19,4.16a.84.84,0,0,0,1.59,0l1.19-4.16h0l.59,4c.07.47.26.69.77.69a.68.68,0,0,0,.71-.71,1,1,0,0,0,0-.17l-.92-5.54a1,1,0,0,0-1-.76,1.06,1.06,0,0,0-1,.71l-1.18,3.93h0L69,53.15a1.06,1.06,0,0,0-1-.71,1,1,0,0,0-1,.76ZM74,38.65a1.45,1.45,0,0,0,1.68.94c.76-.18,1.86-1.23,1.76-1.65a.21.21,0,0,0-.28-.13c-.15,0-.39.21-.65.27-.54.13-.63-.12-.88-1.17l-.88-3.61c-.52-2.12-1.79-2.83-4-2.31-1.47.36-3.7,1.53-3.25,3.36.09.4.48.35.65.31s1.49-.37,1.25-1.36-.12-1.21.68-1.41c1.66-.4,2.12.84,2.56,2.65-2,1.07-4.74,2.11-4.1,4.7a2,2,0,0,0,2.45,1.49,5.74,5.74,0,0,0,3-2.08m-.45-.6c.12.48-.88,1-1.34,1.08-1.09.27-1.37-.78-1.45-1.12-.34-1.4,1.14-2.52,2-2.72.19,0,.19.15.33.72Zm1.47,15.31v5.46a.73.73,0,0,0,.76.75h2.57a.67.67,0,0,0,.7-.69.66.66,0,0,0-.7-.68H76.54V56.68h1.63a.69.69,0,0,0,.72-.69.67.67,0,0,0-.72-.68H76.54V53.87h1.74a.68.68,0,0,0,.71-.69.66.66,0,0,0-.71-.68H75.82c-.52,0-.77.36-.77.86m4.6-15.44c.07.15.17.15.42,0,.49-.24,1-.6,1.92-1.05.64-.32,1.78-.79,2.24-1a.35.35,0,0,0,.13-.48c-.28-.56-1.79.92-2.68-.86L80.4,32c-.08-.16-.87-1.6.19-2.13s1.55.19,1.93,0,.56-1.41.2-2.12a2.54,2.54,0,0,0-2.14-.48c-.49.24-.83,1.3-1.18,2.73l-.74-1.48c-.13-.26-.19-.39-.43-.28a8.18,8.18,0,0,1-1.67,1.88c-.59.51-.87.67-.72,1,.27.54,1.24-.61,1.71.31l2.26,4.55c.72,1.43-.46,1.39-.16,2m.11,15.34v5.56a.73.73,0,0,0,.78.75h1.73a3.21,3.21,0,0,0,3.39-3.44,3.29,3.29,0,0,0-3.49-3.63H80.52a.72.72,0,0,0-.76.76m1.48.61h.91c1.37,0,2,.92,2,2.19s-.58,2.14-1.87,2.14h-1Zm5.19-.66v5.64a.75.75,0,1,0,1.49,0V53.21a.75.75,0,1,0-1.49,0m2,5.39a.86.86,0,0,0-.07.33.71.71,0,0,0,.74.69.68.68,0,0,0,.71-.52l.3-.93h2.76l.29.94a.69.69,0,0,0,.73.51.66.66,0,0,0,.68-.65,1.17,1.17,0,0,0-.08-.37l-1.94-5.4a1.13,1.13,0,0,0-1.06-.82,1.16,1.16,0,0,0-1.06.82Zm2.1-1.79,1-2.88h0l.92,2.88Z"/></g></g></svg>