<svg xmlns="http://www.w3.org/2000/svg" viewBox="0 0 122.12 42.2"><defs><style>.cls-1{fill:#fff;}</style></defs><g id="Слой_2" data-name="Слой 2"><g id="Слой_1-2" data-name="Слой 1"><path class="cls-1" d="M3.46,20.5V.5H6.6a16.08,16.08,0,0,1,4,.36,5.35,5.35,0,0,1,2.86,1.76,4.72,4.72,0,0,1,1.06,3.05A4.33,4.33,0,0,1,14,7.74a5.18,5.18,0,0,1-1.57,1.75,6.27,6.27,0,0,1,2.67,2.14,5.44,5.44,0,0,1,.84,3,5.66,5.66,0,0,1-.87,3.07,5.58,5.58,0,0,1-2.24,2.08,8.79,8.79,0,0,1-3.8.68ZM7.27,4.13V8.35H8.1a3.1,3.1,0,0,0,2.07-.59,2,2,0,0,0,.67-1.59,1.87,1.87,0,0,0-.64-1.49,3,3,0,0,0-1.95-.55Zm0,7.62v5.12h1a6,6,0,0,0,3.2-.59,2,2,0,0,0,.82-1.75,2.4,2.4,0,0,0-1-2,5.3,5.3,0,0,0-3.21-.75Z"/><path class="cls-1" d="M28.68,5.71h3.71V20.5H28.68V18.94a7.13,7.13,0,0,1-2.18,1.49,6.17,6.17,0,0,1-2.37.45,6.6,6.6,0,0,1-5-2.22,7.76,7.76,0,0,1-2.09-5.53,7.94,7.94,0,0,1,2-5.61A6.43,6.43,0,0,1,24,5.33a6.34,6.34,0,0,1,2.5.5,6.88,6.88,0,0,1,2.16,1.51Zm-3.9,3.05A3.75,3.75,0,0,0,21.92,10a4.38,4.38,0,0,0-1.14,3.12,4.46,4.46,0,0,0,1.16,3.16,3.76,3.76,0,0,0,2.85,1.24,3.81,3.81,0,0,0,2.9-1.22,4.45,4.45,0,0,0,1.15-3.19A4.32,4.32,0,0,0,27.69,10a3.88,3.88,0,0,0-2.91-1.19"/><polygon class="cls-1" points="34.03 0 34.03 20.5 37.75 20.5 37.75 13.69 44.03 20.5 48.64 20.5 41.5 12.8 47.87 5.71 43.21 5.71 37.75 11.81 37.75 0 34.03 0"/><path class="cls-1" d="M61.81,14.18H49.89a4,4,0,0,0,1.38,2.51,4.33,4.33,0,0,0,2.86.93,5,5,0,0,0,3.58-1.45l3.13,1.47A7.43,7.43,0,0,1,58,20.09a8.7,8.7,0,0,1-3.87.79,7.67,7.67,0,0,1-5.67-2.19,7.47,7.47,0,0,1-2.19-5.5,7.73,7.73,0,0,1,2.18-5.62A7.35,7.35,0,0,1,54,5.33a7.62,7.62,0,0,1,5.68,2.24,8.07,8.07,0,0,1,2.19,5.9ZM58.1,11.26a3.66,3.66,0,0,0-1.45-2,4.18,4.18,0,0,0-2.51-.78,4.42,4.42,0,0,0-2.72.87,4.75,4.75,0,0,0-1.37,1.92Z"/><path class="cls-1" d="M63.22,5.71H66.4V7.57A4,4,0,0,1,67.77,5.9a3.33,3.33,0,0,1,1.88-.57,3.54,3.54,0,0,1,1.51.38L70,8.91a2.5,2.5,0,0,0-1.07-.33,1.7,1.7,0,0,0-1.45,1.06,9.77,9.77,0,0,0-.59,4.16v6.7H63.22Z"/><polygon class="cls-1" points="16.49 21.82 11.81 35.77 7.17 21.82 3.46 21.82 0 41.82 3.71 41.82 5.91 29.19 10.12 41.82 13.47 41.82 17.72 29.19 19.87 41.82 23.55 41.82 20.19 21.82 16.49 21.82"/><path class="cls-1" d="M38.78,30l-3.09,1.7A4.58,4.58,0,0,0,32,30.1a4.64,4.64,0,0,0-3.37,1.24,4.23,4.23,0,0,0-1.29,3.19,4.13,4.13,0,0,0,1.24,3.08,4.53,4.53,0,0,0,3.26,1.19,4.72,4.72,0,0,0,3.88-1.7l2.92,2A8,8,0,0,1,31.9,42.2a8.07,8.07,0,0,1-6.12-2.31,7.69,7.69,0,0,1,1.87-12.21,8.9,8.9,0,0,1,4.3-1,8.8,8.8,0,0,1,4,.87A7.6,7.6,0,0,1,38.78,30"/><polygon class="cls-1" points="40.12 21.82 43.97 21.82 43.97 28.71 49.4 21.82 53.97 21.82 46.99 30.75 54.65 41.82 50.14 41.82 43.97 32.93 43.97 41.82 40.12 41.82 40.12 21.82"/><path class="cls-1" d="M68.4,35.5H56.48A4,4,0,0,0,57.86,38a4.33,4.33,0,0,0,2.86.93,5,5,0,0,0,3.58-1.46L67.42,39a7.35,7.35,0,0,1-2.8,2.46,8.76,8.76,0,0,1-3.87.79A7.67,7.67,0,0,1,55.08,40a7.49,7.49,0,0,1-2.19-5.5,7.71,7.71,0,0,1,2.18-5.63,7.32,7.32,0,0,1,5.47-2.23,7.62,7.62,0,0,1,5.69,2.23,8.08,8.08,0,0,1,2.19,5.91Zm-3.71-2.93a3.78,3.78,0,0,0-1.45-2,4.24,4.24,0,0,0-2.51-.77,4.45,4.45,0,0,0-2.73.87,4.86,4.86,0,0,0-1.36,1.91Z"/><path class="cls-1" d="M69.69,27H73.4v1.51a9.17,9.17,0,0,1,2.29-1.48,5.49,5.49,0,0,1,2.1-.41,5.07,5.07,0,0,1,3.73,1.53A5.28,5.28,0,0,1,82.81,32v9.78H79.14V35.34a16.28,16.28,0,0,0-.24-3.52A2.22,2.22,0,0,0,76.62,30a2.73,2.73,0,0,0-1.93.76,4,4,0,0,0-1.12,2.08,16.54,16.54,0,0,0-.17,3v5.94H69.69Z"/><polygon class="cls-1" points="84.87 27.03 96.2 27.03 89.55 38.68 95.82 38.68 95.82 41.82 83.85 41.82 90.53 30.17 84.87 30.17 84.87 27.03"/><path class="cls-1" d="M117.72,35.5H105.79A4,4,0,0,0,107.17,38a4.36,4.36,0,0,0,2.87.93,5,5,0,0,0,3.57-1.46L116.74,39a7.35,7.35,0,0,1-2.8,2.46,8.78,8.78,0,0,1-3.88.79A7.67,7.67,0,0,1,104.39,40a7.49,7.49,0,0,1-2.19-5.5,7.72,7.72,0,0,1,2.19-5.63,7.32,7.32,0,0,1,5.47-2.23,7.59,7.59,0,0,1,5.68,2.23,8.08,8.08,0,0,1,2.19,5.91ZM114,32.57a3.78,3.78,0,0,0-1.45-2,4.27,4.27,0,0,0-2.52-.77,4.44,4.44,0,0,0-2.72.87A4.86,4.86,0,0,0,106,32.57Z"/><rect class="cls-1" x="97.26" y="27.03" width="3.71" height="14.79"/><rect class="cls-1" x="97.25" y="22.99" width="3.71" height="2.8"/><rect class="cls-1" x="118.63" y="39" width="3.5" height="2.8"/></g></g></svg>