<svg xmlns="http://www.w3.org/2000/svg" viewBox="0 0 112.92 63.83"><defs><style>.cls-1{fill:#fff;}</style></defs><g id="Слой_2" data-name="Слой 2"><g id="Слой_1-2" data-name="Слой 1"><path class="cls-1" d="M42.75,59.84c0-1.16-.52-1.84-1.31-1.84s-1.31.67-1.31,1.84.53,1.84,1.31,1.84,1.31-.68,1.31-1.84m-3.36,0a2.08,2.08,0,1,1,2,2.41,2.12,2.12,0,0,1-2-2.41"/><path class="cls-1" d="M46.18,57.56h.65v1c.28-.77.7-1.15,1.33-1.15h.25v.69h-.12c-.87,0-1.43.64-1.43,1.7v2.29h-.68Z"/><path class="cls-1" d="M53,59.8c-1.23,0-1.86.36-1.86,1,0,.49.35.82.95.82a1.53,1.53,0,0,0,1.44-1.61v-.24H53m.53,1.46a1.7,1.7,0,0,1-1.57,1,1.43,1.43,0,0,1-1.57-1.39c0-1,.93-1.56,2.75-1.56h.39V59c0-.69-.37-1-1.14-1s-1.09.25-1.22.79l-.64-.09c.18-.82.85-1.25,2-1.25s1.68.57,1.68,1.81v1.95a2.72,2.72,0,0,0,.13.93h-.69a3.28,3.28,0,0,1-.1-.86"/><path class="cls-1" d="M57.11,62.12h.67V59.6A1.44,1.44,0,0,1,59.1,58c.59,0,.94.42.94,1.17v2.95h.66V59.24c0-1.19-.52-1.81-1.49-1.81a1.61,1.61,0,0,0-1.47,1v-.84h-.63Z"/><path class="cls-1" d="M64.29,59a1,1,0,1,0,1-1,1,1,0,0,0-1,1m-.38,3.54c0,.52.51.76,1.55.76s1.48-.25,1.48-.72-.34-.55-1-.59l-1.52-.08a.66.66,0,0,0-.48.63m-.31-3.5a1.6,1.6,0,0,1,1.69-1.59,2,2,0,0,1,1,.25.87.87,0,0,1,1-.79l.28,0v.5h-.23a.6.6,0,0,0-.68.54A1.59,1.59,0,0,1,67,59a1.54,1.54,0,0,1-1.74,1.51,1.94,1.94,0,0,1-.68-.11c-.31.09-.47.24-.47.43s.21.46.59.48l1.39.07c1,.06,1.51.45,1.51,1.13s-.78,1.29-2.26,1.29-2.12-.45-2.12-1.19a.93.93,0,0,1,.75-.92A.76.76,0,0,1,63.5,61c0-.37.23-.63.71-.79a1.35,1.35,0,0,1-.61-1.15"/><path class="cls-1" d="M72.79,59.4c0-.89-.51-1.4-1.24-1.4s-1.22.49-1.33,1.4Zm-1.28,2.85c-1.22,0-2-.93-2-2.41a2.13,2.13,0,0,1,2-2.41c1.23,0,2,.89,2,2.37v.09H70.21v0c0,1.11.53,1.75,1.36,1.75a1.31,1.31,0,0,0,1.25-.89l.65.12a2,2,0,0,1-2,1.35"/><path class="cls-1" d="M69.17,26c-1.24.41-1.52,1.86-2.68,1.93-.69.07-1.11-.55-1-1.58V23.47c0-2.75,1.38-5.3,2-7.91l-.34-.62a6.28,6.28,0,0,0-4.13,3,27.93,27.93,0,0,0-1.52,3.23c-.21.69-.76,1-1,1.45-1.31,2.27-5.92,8.19-3.79,6.33,6.68-5.85,4.2.55,5.92,1.45,1.93,1,4.2-.9,5.85-2.34.55-.49,1.38-2.21.76-2.07M71.86,6.27c1-.83-.28-1.45-.69-2L71,3.51A4.62,4.62,0,0,0,67.17,6c-.34.76.48,2.2,1.52,2.06a6.42,6.42,0,0,0,3.17-1.78"/><path class="cls-1" d="M94.89,27h-.22c-.23.67-1,.67-1.51.73a1.23,1.23,0,0,1-1.46-1.12c-.33-3,1-6.49.79-9.51-.06-.73.28-2.68-1-1.79-3.69,2.52-5.2,6.82-7.66,10.24h-.45a11.23,11.23,0,0,0,.06-2.74c0-1,.72-1.29.33-2.13-.17-.39.22-1.23.28-1.79.28-1.68.78-3.86-.39-4.92-.5-.39-1.29.39-1.79.84-1,.84-1.17,1.95-1.73,3a27,27,0,0,0-1.29,4,7.31,7.31,0,0,1-.51,1.35c-.27.67-.27,1.62-.89,2-.34.17-.5-.61-.39-.95a4,4,0,0,0,.45-1.68,9.88,9.88,0,0,1,.39-2.85c.39-1.9,2-6.72,1.88-7.17-.28-1.51,0-1.55-1.08-1.69-3-.39-3.6,2.6-5,5.73a29.86,29.86,0,0,0-1,3.89C72.28,21.8,72,24,71.56,25.33c-.11.39-1.7,4.2-2,5.38,0,0-.81,1.7-1.76,3.94-.56,1.28-.44.07-1.16,1.41s-2.51,1.55-3,2.89-.66,2.7,1.13,2.36a2.26,2.26,0,0,0,1.74-1.16c1.06-2,.53-.49,1.31-2.78.73-2.07,1.47-2.43,2-4,.17-1,1.46-2.62,1.74-3.63.84-3.08,1.46-4.22,2.33-8,.26-1.12.47-4.44,1.87-4.33.9.06,0,1.91-.05,2.74s-.39,2-.56,3l.11.12c-.67,1.45-.34,3.41-1,4.86l-.33,5.26.44.5c1.68.17,2.13-1.62,3-2.63s.67-2.57,1.34-3.85a15.24,15.24,0,0,0,.5-2.13c.17-.73.56-1.29.67-2a24.62,24.62,0,0,1,1.12-4c.11-.17.39-.51.56-.34.5.62.11,1.57-.06,2.52-.22,1.4-.33,3.07-.61,4.64-.17,1.06-.78,2.63-.12,3.47a.78.78,0,0,0,1.07,0,30.82,30.82,0,0,0,4.58-6.21c1.07-1.68,1.29-3.75,3.14-4.53.45-.22.5.67.45,1.06A16.22,16.22,0,0,1,89.35,24c-.11.39,0,.56-.11,1.23-.28,1.62-.33,3.58.56,4.92.11.17.28.06.73.11a2.78,2.78,0,0,0,2.35-.72,9.38,9.38,0,0,0,2-2.52"/><path class="cls-1" d="M63.59.55c0,2.48-1.51,4.75-2.55,7-.89,1.86-2.06,3.51-3,5.37S56.16,16.17,55.74,18a2.66,2.66,0,0,1-.13.48,66.58,66.58,0,0,0-2.07,7.3,25.35,25.35,0,0,0-.76,4.61,12.66,12.66,0,0,0,.9,6.4c.34.83.69,1.66,1,2.55.62,1.65,3.51,2,2.68,3.79a1.57,1.57,0,0,1-1.51,1c-.41-.07-.55.28-.62,0-.55-1.38-1.86-2.41-1.93-3.92-.07-.83-.68-1.17-.89-1.86A7.54,7.54,0,0,1,51.34,35a55.76,55.76,0,0,0-.55-6.6c-.07-1,.27-3.17-.83-2.55-2.13,1.24-3.65,4.41-5.71,3.79-1.59-.42,2-8.16,4.53-10.29l.45-.43c1.59-1.8,4.65-2.09,5.55-5.18,1-3.38,1.51-7.09,3.65-10,.62-.9.62-1.93,1.65-2.28S63.59-1,63.59.55M52.23,19.07c-.89-1-2.06,1.23-2.82,2.2-1.31,1.72-2.89,3.37-3,5.64,0,.21.48.21.69.07a17.06,17.06,0,0,0,3.72-4.27c.75-1,2.4-2.61,1.37-3.64"/><path class="cls-1" d="M19.74,2.77c0,2.48-1.52,4.75-2.55,7-.9,1.86-2.07,3.51-3,5.37s-1.93,3.23-2.34,5.09a1.9,1.9,0,0,1-.14.48A68.88,68.88,0,0,0,9.68,28a24.51,24.51,0,0,0-.75,4.61A12.65,12.65,0,0,0,9.82,39c.35.83.69,1.66,1,2.55.61,1.65,3.51,2,2.68,3.79a1.58,1.58,0,0,1-1.52,1c-.41-.07-.55.28-.61,0-.55-1.38-1.86-2.41-1.93-3.92-.07-.83-.69-1.17-.9-1.86a7.54,7.54,0,0,1-1.1-3.38,53.72,53.72,0,0,0-.55-6.6c-.07-1,.28-3.17-.82-2.55C4,29.27,2.46,32.44.39,31.82c-1.58-.42,2-8.16,4.53-10.29l.45-.43C7,19.3,10,19,10.92,15.92c1-3.38,1.52-7.09,3.65-10,.62-.9.62-1.93,1.65-2.28s3.52-2.4,3.52-.89M8.38,21.29c-.9-1-2.07,1.23-2.82,2.2-1.31,1.72-2.9,3.37-3,5.64,0,.21.48.21.68.07A16.86,16.86,0,0,0,7,24.93c.76-1,2.41-2.61,1.38-3.64"/><path class="cls-1" d="M25.7,26.61c-1.31.44-1.6,2-2.84,2-.73.07-1.16-.58-1.09-1.67V24c0-2.91,1-4.88,1.69-7.64l-.37-.66a6.72,6.72,0,0,0-4.36,3.13,17.52,17.52,0,0,0-1.18,2.7,19,19,0,0,1-1.43,2.71,28.72,28.72,0,0,1-1.75,2.67c-.29.41-.72,1.35-1.49,1.46a3.7,3.7,0,0,1-1.36.61l-.13,1.25c.09.28,1,0,2.65-1.69a4.92,4.92,0,0,1,1.26-.92c3.45-1.91,1.91,2.88,3.42,3.66,2,1.09,4.43-.95,6.18-2.47.15-.14,2.17-3.49,2.89-4.31A2.37,2.37,0,0,0,28,23c.26-.56-2,3.54-2.34,3.61"/><path class="cls-1" d="M38.7,30.47c4.08-2.26,10.24-7.37,11-11.66.15-.88-2.31,1.55-2.67,2.35-.65,1.6-.65,1.09-1.75,2.4-1.52,1.89-2.83,4.73-5.45,4.87-1.38.08-1.31-2.4-.95-3.93a60.87,60.87,0,0,0,1.82-9.38c.08-.8.44-1.82-.36-2.18-1.31-.59-2.55,1.16-3.78,1.74s-2.91,2.77-3.21,1.24c-.21-1.24.59-1.89,1-3.13.15-.65,1.38-1.53.44-1.74-.51-.15-.88.58-1.39.8-4.22,2-4.29,6-4.94,9.53-.44,2-1.24,3.49-1.24,5.6,0,.94-.73,1.53-.51,2.54s-1.6,2.7-.8,2.62a2.79,2.79,0,0,0,2.33-1.53c2-3.56,2.84-7.63,5.53-10.83.73-.8.94-2.55,2.25-2,.59.29.15,1.24.08,1.89,0,.22.07.29.07.66-.07,3.49-2,8.07,1,10.47.36.29.87.07,1.59-.29"/><path class="cls-1" d="M112.59,27c.37-.29.51-1.38,0-1.38a3.81,3.81,0,0,0-1.52.58c-.95.22-2.33.29-2.7-.58-.87-2.11.44-4.22.51-6.62.08-.8,1.38-2,.44-2.18-1.53-.15-2.33,1.52-3.49,2.47v.51c-.73,1.24-1.31,2.55-2.19,3.78-1.16,1.68-2,5-4.36,4.66-.87-.15-.22-1.75,0-2.77a17,17,0,0,1,1.31-3.56c.44-.8,1.31-.87,2.33-1.09,1.74-.44,2.62-2.84,3-4.59.15-.65,0-1.74-1-1.38a11.68,11.68,0,0,0-5.16,4.59,26.33,26.33,0,0,0-2.33,4.8c-.44,1.09-.87,2.11-1.38,3.2a6.63,6.63,0,0,0-.66,3.27c.15.8,1.24,1,2,.66,2.55-.8,3.93-3.06,5.82-4.8.29-.22.8-.59.87-.22.22,1.23.8,2.76,1.9,3.12,2.32.88,4.65-1,6.54-2.47"/><path class="cls-1" d="M28.22,8.31c1.13-1-.32-1.7-.81-2.34l-.24-.89A5.38,5.38,0,0,0,22.74,8c-.41.89.56,2.58,1.77,2.42a7.56,7.56,0,0,0,3.71-2.09"/><path class="cls-1" d="M76.32,46c-.07-.27-.27-.94-.6-2s-.8-2.66-1.4-4.72a.9.9,0,0,0,0-.15c0-.07,0-.12,0-.14s.13-.22.31-.25a1.65,1.65,0,0,1,.41,0,1,1,0,0,1,.56.24,1.62,1.62,0,0,1,.31.56l1,3.29.07.09a2,2,0,0,0,.24-.8c0-.29,0-.59.09-.87a2.33,2.33,0,0,1,.24-.76,1,1,0,0,1,.65-.49.63.63,0,0,1,.22,0,.6.6,0,0,1,.24.12l.2.17a.82.82,0,0,1,.12.2l.93,3,.19.26c0-.21.1-.54.18-1s.15-.94.22-1.44.15-1,.2-1.4.1-.73.12-.89,0-.06,0-.12a.68.68,0,0,0,0-.12.84.84,0,0,1,.38-.23.83.83,0,0,1,.43,0,.6.6,0,0,1,.18.07,1.12,1.12,0,0,1,.22.16.74.74,0,0,1,.16.2.38.38,0,0,1,.06.19l-1,7.07a.23.23,0,0,1-.12.17l-.23.1a.85.85,0,0,1-.26,0h-.2a1.65,1.65,0,0,1-.72-.51,4.28,4.28,0,0,1-.53-.78,8,8,0,0,1-.42-.89,5.71,5.71,0,0,0-.39-.82l-.06,0a1.09,1.09,0,0,0-.2.54c0,.27-.1.56-.13.87s-.06.59-.09.84,0,.38,0,.41a.5.5,0,0,1-.32.38.91.91,0,0,1-.51.1.68.68,0,0,1-.42-.23,2,2,0,0,1-.29-.39"/><path class="cls-1" d="M84.73,46.15c-.12-1.15-.21-2.13-.29-2.95s-.15-1.5-.21-2.05-.11-1-.15-1.32L84,39.08c0-.16,0-.27,0-.33a.31.31,0,0,1,0-.11v-.06a.38.38,0,0,1,.16-.32.52.52,0,0,1,.34-.13,2.36,2.36,0,0,1,.56.08.59.59,0,0,1,.41.37,16.1,16.1,0,0,1,.21,1.7c0,.58.08,1.15.1,1.72s.07,1.14.13,1.72a11.28,11.28,0,0,0,.28,1.71.7.7,0,0,0,0,.14c0,.06,0,.14,0,.22a2.07,2.07,0,0,1,0,.22c0,.07,0,.12,0,.14v0s0,0,0,0a.66.66,0,0,1-.19.42.47.47,0,0,1-.4.17l-.25-.06-.27-.08L85,46.59l-.16-.13a.47.47,0,0,1-.13-.15.12.12,0,0,1,0-.16m-1-12.58c0-.08.07-.15.2-.21a.73.73,0,0,1,.3-.1,1.35,1.35,0,0,1,.58.15.47.47,0,0,1,.32.44.68.68,0,0,1-.08.39c0,.07-.17.11-.37.11a1.18,1.18,0,0,1-.63-.21.66.66,0,0,1-.32-.57"/><path class="cls-1" d="M92.71,46.22a2.88,2.88,0,0,1-.41-1c-.11-.4-.21-.84-.31-1.29s-.19-.9-.27-1.33a7.62,7.62,0,0,0-.25-1c-.08-.25-.18-.4-.28-.44s-.23.13-.37.47l-1.5,4.63a.64.64,0,0,1-.2.33.62.62,0,0,1-.4.1,1,1,0,0,1-.29,0,.81.81,0,0,1-.3-.13.74.74,0,0,1-.23-.2.57.57,0,0,1-.11-.28,6.86,6.86,0,0,0,.09-.76c0-.37.05-.79.06-1.27s0-1,0-1.53V41c0-.47,0-.87,0-1.21s0-.56,0-.67,0-.23,0-.35a1.27,1.27,0,0,1,0-.34.58.58,0,0,1,.15-.25.6.6,0,0,1,.36-.09.87.87,0,0,1,.61.27.82.82,0,0,1,.28.59,8.7,8.7,0,0,1,0,.89,8.7,8.7,0,0,0,0,.89v.46a1.78,1.78,0,0,0,.07.47l.17-.48c.08-.23.17-.47.27-.73s.19-.49.27-.71.13-.39.17-.48a2.37,2.37,0,0,1,.36-.66.86.86,0,0,1,.64-.36.72.72,0,0,1,.47.14,1.33,1.33,0,0,1,.37.41,2.73,2.73,0,0,1,.26.51c.07.18.12.34.16.46l.93,4.3.72,2s0,0,0,.09v.11a1,1,0,0,1-.09.41.36.36,0,0,1-.34.2,1.27,1.27,0,0,1-.6-.17.88.88,0,0,1-.43-.42"/><path class="cls-1" d="M99.23,40.56a.21.21,0,0,0,.07-.21.5.5,0,0,0-.09-.24A.34.34,0,0,0,99,40a.25.25,0,0,0-.23.13l-.18.28c-.08.14-.17.28-.26.42l-.21.37c-.06.11-.07.15,0,.12Zm3.8,1.35a3.39,3.39,0,0,1-.08.48.89.89,0,0,1-.15.31,1.11,1.11,0,0,1-.29.28l-.52.42-.81.7c-.32.29-.71.66-1.17,1.12l-.57.53a5.57,5.57,0,0,1-.61.5,3.9,3.9,0,0,1-.67.35,2,2,0,0,1-.72.14,1.23,1.23,0,0,1-1.09-.5A2,2,0,0,1,96,45.08c0-.29,0-.53,0-.72a6.37,6.37,0,0,1,.13-.76,4.09,4.09,0,0,0-.33-.3.48.48,0,0,1-.13-.36q0-.21.09-.27a.55.55,0,0,1,.22-.1l.25-.06a.26.26,0,0,0,.18-.14c0-.07.06-.19.13-.38l.2-.57c.06-.21.13-.4.19-.57s.11-.31.13-.38.17-.39.27-.59a2.5,2.5,0,0,1,.35-.54,1.46,1.46,0,0,1,.46-.4,1.18,1.18,0,0,1,.63-.16,1.08,1.08,0,0,1,.51.19,3.55,3.55,0,0,1,.58.46,3.33,3.33,0,0,1,.46.56,1,1,0,0,1,.19.5,1,1,0,0,1-.12.48,1.85,1.85,0,0,1-.3.39,3.17,3.17,0,0,1-.39.34l-.38.29-.07,0-.08,0-.08.08-.13.13-.13.13s-.06.08-.08.09a1.26,1.26,0,0,1-.19.16l-.32.25-.32.24-.2.14-.07.14a1.5,1.5,0,0,0-.06.3c0,.16,0,.34-.06.53l-.06.6c0,.2,0,.36,0,.49l0,0s0,0,.05,0a.37.37,0,0,0,.26-.12.87.87,0,0,1,.26-.18l2.76-2.55.71-1.09a1.07,1.07,0,0,1,.33-.26,1.13,1.13,0,0,1,.52-.16.62.62,0,0,1,.45.16.9.9,0,0,1,.2.68"/><path class="cls-1" d="M107,46.15V46a.29.29,0,0,1,.08-.14l.47-.55c.17-.19.34-.37.5-.56a6.7,6.7,0,0,0,.45-.6,3.81,3.81,0,0,0,.34-.62v-.11l-2.26.47h-.26l-.59,0a3.84,3.84,0,0,1-.69-.15,1.44,1.44,0,0,1-.57-.32.69.69,0,0,1-.24-.55,1.57,1.57,0,0,1,.42-.88,7.51,7.51,0,0,1,.93-1c.36-.31.72-.6,1.08-.86l.87-.63a4.1,4.1,0,0,1,1.78-.46,1.26,1.26,0,0,1,.6.13.49.49,0,0,1,.26.51,1.36,1.36,0,0,1,0,.29c0,.09-.08.16-.21.19a3,3,0,0,0-1,.08,3.17,3.17,0,0,0-.91.39,4.3,4.3,0,0,0-.81.61c-.26.23-.5.48-.74.73-.07.08-.16.2-.26.34a.89.89,0,0,0-.16.25v0a4.41,4.41,0,0,0,.89-.09l.88-.18.88-.18a4.53,4.53,0,0,1,.91-.09l.38,0a1.19,1.19,0,0,1,.38.11.89.89,0,0,1,.3.23.62.62,0,0,1,.11.37,1.28,1.28,0,0,1-.16.63,4.88,4.88,0,0,1-.49.73c-.21.28-.48.62-.81,1s-.71.92-1.16,1.55a.27.27,0,0,1-.17.07l-.21,0a.76.76,0,0,1-.49-.21.6.6,0,0,1-.25-.47"/></g></g></svg>