<svg xmlns="http://www.w3.org/2000/svg" viewBox="0 0 22.41 22.41"><defs><style>.cls-1{fill:#dadbdc;}</style></defs><g id="Слой_2" data-name="Слой 2"><g id="Слой_1-2" data-name="Слой 1"><path class="cls-1" d="M16.53,6.31V7.69a.4.4,0,0,1-.4.4H14.79a.4.4,0,0,1-.4-.4V6.31a.4.4,0,0,1,.4-.4h1.34a.4.4,0,0,1,.4.4M11.37,13.1a1.84,1.84,0,1,0-1.84-1.84,1.84,1.84,0,0,0,1.84,1.84m11-1.89A11.21,11.21,0,1,1,11.21,0a11.19,11.19,0,0,1,11.2,11.21M17.67,9.4H14a3.15,3.15,0,0,1,.6,1.86A3.23,3.23,0,1,1,8.73,9.4H5.07v5.65a2.49,2.49,0,0,0,2.49,2.49h7.62a2.48,2.48,0,0,0,2.49-2.49Zm-6.31,4.35a2.5,2.5,0,0,0,2.49-2.49A2.53,2.53,0,0,0,12.39,9a2.54,2.54,0,0,0-1-.22,2.49,2.49,0,0,0-1,.22,2.3,2.3,0,0,0-.61.4,2.46,2.46,0,0,0-.85,1.86,2.49,2.49,0,0,0,2.48,2.49m6.31-6.39a2.49,2.49,0,0,0-2.49-2.49H8.37V8H7.86V4.87H7.5V8H7V4.94l-.36.11V8H6.12V5.33a2.47,2.47,0,0,0-1,2V9h4a3.22,3.22,0,0,1,4.59,0h4Z"/></g></g></svg>