<svg xmlns="http://www.w3.org/2000/svg" viewBox="0 0 118.58 61.07"><defs><style>.cls-1{fill:#fff;}</style></defs><g id="Слой_2" data-name="Слой 2"><g id="Слой_1-2" data-name="Слой 1"><path class="cls-1" d="M80.2,32.49,77.84,38h4.73Zm7.2,10.95H84.85l-1.4-3.31H77l-1.42,3.31H73.07L79.12,29.6h2.23Z"/><path class="cls-1" d="M90.68,43.44H88.3V33.08h2.38v2.33a3.68,3.68,0,0,1,3.67-2.53V35.4h-.14c-2.08,0-3.53,1.35-3.53,4.1Z"/><path class="cls-1" d="M99.28,40.2a1.13,1.13,0,0,0,1.27,1.3,3.32,3.32,0,0,0,1.48-.35v1.94a4.21,4.21,0,0,1-2.14.53c-1.75,0-3-.77-3-3V35.12H95.59v-2H96.9V30.23h2.38v2.85h2.79v2H99.28Z"/><path class="cls-1" d="M107.62,43.64a7.31,7.31,0,0,1-4.4-1.55l1.06-1.61a5.87,5.87,0,0,0,3.4,1.28c1,0,1.61-.44,1.61-1.12v0c0-.81-1.1-1.08-2.32-1.46-1.53-.43-3.24-1-3.24-3v0c0-2,1.63-3.16,3.69-3.16a7.15,7.15,0,0,1,3.81,1.18l-.94,1.69a6,6,0,0,0-2.92-1c-.93,0-1.46.43-1.46,1v0c0,.74,1.12,1.06,2.34,1.45,1.51.47,3.22,1.16,3.22,3v0c0,2.18-1.69,3.26-3.85,3.26"/><polygon class="cls-1" points="82.67 46.84 85.04 46.84 85.04 60.58 83.02 60.58 75.44 50.8 75.44 60.58 73.07 60.58 73.07 46.84 75.31 46.84 82.67 56.34 82.67 46.84"/><path class="cls-1" d="M93.09,52.61c2.91.71,4.42,1.74,4.42,4,0,2.59-2,4.12-4.91,4.12a8.46,8.46,0,0,1-5.73-2.19l1.45-1.73a6.32,6.32,0,0,0,4.34,1.78c1.49,0,2.44-.68,2.44-1.74s-.55-1.53-3.11-2.12c-2.92-.71-4.57-1.57-4.57-4.12,0-2.4,2-4,4.69-4a7.64,7.64,0,0,1,5,1.73l-1.3,1.82a6.23,6.23,0,0,0-3.73-1.41c-1.41,0-2.23.73-2.23,1.65,0,1.08.62,1.55,3.25,2.18"/><polygon class="cls-1" points="107.36 46.8 109.4 46.8 112.77 57.02 116.05 46.84 118.58 46.84 113.79 60.68 111.71 60.68 108.34 50.8 104.96 60.68 102.88 60.68 98.09 46.84 100.7 46.84 103.98 57.02 107.36 46.8"/><path class="cls-1" d="M51,36.27,48.56,46.93,46,36.27H42.37L39.73,46.81,37.32,36.27H33.41l4.33,16.65h3.85l2.54-10.53,2.59,10.53H50.5l0-.14L54.9,36.27ZM15.14,46.91,6.08,36.27H2.24V52.93H6V42.31l9,10.62h3.87V36.27H15.14Z"/><path class="cls-1" d="M1.84,58h0A2.62,2.62,0,0,1,4.5,55.36a2.81,2.81,0,0,1,2,.69l-.57.69a2,2,0,0,0-1.45-.55A1.74,1.74,0,0,0,2.79,58h0a1.72,1.72,0,0,0,1.75,1.84,2.09,2.09,0,0,0,1.25-.39v-1H4.47v-.79H6.66v2.16a3.23,3.23,0,0,1-2.15.81A2.56,2.56,0,0,1,1.84,58"/><path class="cls-1" d="M11.65,58h0A1.76,1.76,0,0,0,9.9,56.19,1.74,1.74,0,0,0,8.16,58h0a1.76,1.76,0,0,0,1.75,1.83A1.74,1.74,0,0,0,11.65,58M7.21,58h0a2.64,2.64,0,0,1,2.7-2.66A2.61,2.61,0,0,1,12.6,58h0a2.64,2.64,0,0,1-2.7,2.67A2.62,2.62,0,0,1,7.21,58"/><polygon class="cls-1" points="12.54 55.44 13.54 55.44 15.09 59.4 16.64 55.44 17.62 55.44 15.47 60.63 14.68 60.63 12.54 55.44"/><polygon class="cls-1" points="18.23 55.44 22.05 55.44 22.05 56.25 19.13 56.25 19.13 57.59 21.72 57.59 21.72 58.4 19.13 58.4 19.13 59.79 22.09 59.79 22.09 60.6 18.23 60.6 18.23 55.44"/><path class="cls-1" d="M25.2,58c.65,0,1.06-.34,1.06-.86v0c0-.55-.4-.85-1.07-.85H23.87V58ZM23,55.44h2.29a2.05,2.05,0,0,1,1.49.52,1.52,1.52,0,0,1,.43,1.11h0A1.56,1.56,0,0,1,26,58.65l1.39,2H26.27L25,58.8H23.87v1.8H23Z"/><polygon class="cls-1" points="27.98 55.44 28.82 55.44 31.58 59.01 31.58 55.44 32.47 55.44 32.47 60.6 31.71 60.6 28.87 56.93 28.87 60.6 27.98 60.6 27.98 55.44"/><polygon class="cls-1" points="33.39 55.44 34.35 55.44 35.92 57.88 37.49 55.44 38.46 55.44 38.46 60.6 37.55 60.6 37.55 56.9 35.92 59.33 35.89 59.33 34.28 56.91 34.28 60.6 33.39 60.6 33.39 55.44"/><polygon class="cls-1" points="39.32 55.44 43.14 55.44 43.14 56.25 40.23 56.25 40.23 57.59 42.81 57.59 42.81 58.4 40.23 58.4 40.23 59.79 43.18 59.79 43.18 60.6 39.32 60.6 39.32 55.44"/><polygon class="cls-1" points="44.07 55.44 44.91 55.44 47.67 59.01 47.67 55.44 48.56 55.44 48.56 60.6 47.81 60.6 44.97 56.93 44.97 60.6 44.07 60.6 44.07 55.44"/><polygon class="cls-1" points="50.92 56.28 49.28 56.28 49.28 55.44 53.47 55.44 53.47 56.28 51.83 56.28 51.83 60.6 50.92 60.6 50.92 56.28"/><path class="cls-1" d="M19.91,50.61,22.11,48A7.75,7.75,0,0,0,27.16,50c1.52,0,2.44-.61,2.44-1.6v0c0-.94-.58-1.42-3.41-2.15-3.41-.87-5.61-1.81-5.61-5.17V41c0-3.07,2.47-5.1,5.93-5.1a9.77,9.77,0,0,1,6.28,2.15l-1.93,2.81a7.93,7.93,0,0,0-4.4-1.67c-1.43,0-2.18.65-2.18,1.47v0c0,1.11.73,1.48,3.65,2.22,3.44.9,5.37,2.13,5.37,5.08v0c0,3.36-2.56,5.24-6.21,5.24a10.76,10.76,0,0,1-7.18-2.7"/><path class="cls-1" d="M11.14,4.66c-.35,0-.56.21-.63.62,0,0-.09.61-.18,1.64s-.19,2.44-.19,4.22c0,4,.52,9.71,3,14.07,1.91,3.33,4.62,5.21,7.63,5.31a9.62,9.62,0,0,1-3.32-4.71,25.77,25.77,0,0,1-1.06-7.74,42.68,42.68,0,0,1,.89-8.49.13.13,0,0,0,0-.05,1.82,1.82,0,0,1,.88-1.24A44,44,0,0,0,12,4.93c-.3-.14-.47-.2-.47-.2h0a.78.78,0,0,0-.33-.07"/><path class="cls-1" d="M37.36,9.34a.5.5,0,0,0-.26.11l-.27.22-.77.66c-.46.42-1.4,1.29-2.49,2.49a24,24,0,0,0-5.13,8.51,18.19,18.19,0,0,0-.94,5.29A6.07,6.07,0,0,0,28,29.36a3,3,0,0,0,1.56,1.55,2.69,2.69,0,0,0,1.13.2h0a7.87,7.87,0,0,0,6.83-5.66,25.18,25.18,0,0,0,1-7.38,43.4,43.4,0,0,0-.72-7.63c-.09-.42-.13-.65-.13-.65-.06-.2-.16-.45-.34-.45"/><path class="cls-1" d="M18.84,9.34c-.19,0-.3.24-.36.45,0,0-.05.27-.13.65s-.17.91-.3,1.79a41.52,41.52,0,0,0-.43,5.84,24.3,24.3,0,0,0,1,7.37,8,8,0,0,0,7,5.67h0a3.05,3.05,0,0,0,1.19-.21,4.11,4.11,0,0,0,.54-.29,4.68,4.68,0,0,1-.43-.73,7.55,7.55,0,0,1-.64-3.25,19.94,19.94,0,0,1,1-5.66c.05-.19.12-.39.19-.58a2.09,2.09,0,0,1,.08-.23c-2.3-5.71-7.58-10-8.17-10.48l-.29-.23a.53.53,0,0,0-.27-.11"/><path class="cls-1" d="M28.08,0c-.12,0-.26.1-.39.3,0,0-.11.16-.28.45s-.52.87-.77,1.32a48.63,48.63,0,0,0-2.32,4.66C23.7,8.11,23.15,9.55,22.66,11a28,28,0,0,1,5.53,7.61,28,28,0,0,1,5.33-7.51A53.5,53.5,0,0,0,28.75.75L28.46.29C28.28,0,28.13,0,28.08,0"/><path class="cls-1" d="M45,4.66a.8.8,0,0,0-.32.07h0l-.47.2q-.44.18-1.17.54l-.18.08A42.63,42.63,0,0,0,38.45,8L38,8.28a1.84,1.84,0,0,1,.89,1.24.15.15,0,0,0,0,.06,44.06,44.06,0,0,1,.87,8.49,26.5,26.5,0,0,1-1,7.73,9.48,9.48,0,0,1-3.25,4.71c3-.14,5.64-2,7.53-5.3,2.49-4.36,3-10.06,3-14.07,0-1.42-.07-2.84-.19-4.23-.1-1-.18-1.63-.18-1.64A.64.64,0,0,0,45,4.66"/><path class="cls-1" d="M36.75,1.27h-.13a.66.66,0,0,0-.28.11h0s-.66.4-1.67,1.13c-.56.4-1.44,1.06-2.53,2a53.11,53.11,0,0,1,2.1,5,42.41,42.41,0,0,1,4.33-3,43,43,0,0,0-1.18-4.68l0-.05a.65.65,0,0,0-.61-.5"/><path class="cls-1" d="M19.41,1.27a.66.66,0,0,0-.62.5v.05A42.18,42.18,0,0,0,17.59,6.5a40.3,40.3,0,0,1,4.33,3,51.25,51.25,0,0,1,2.11-5c-.86-.71-1.71-1.37-2.54-2-1-.73-1.66-1.13-1.66-1.13h0a.69.69,0,0,0-.29-.11h-.12"/><path class="cls-1" d="M4.85,12.1c-.88,0-1.38,0-1.39,0a1.14,1.14,0,0,0-.87.52,1.09,1.09,0,0,0-.18.64c.06.6.47,2.78,3.07,6.06,1.33-.66,2.66-1.24,3.94-1.73A37.72,37.72,0,0,1,9,12.31c-1.59-.15-2.85-.2-3.63-.21H4.85"/><path class="cls-1" d="M51.3,12.1h-.47c-.78,0-2,.06-3.62.21a41.25,41.25,0,0,1-.48,5.31c1.29.49,2.61,1.07,4,1.73,2.61-3.29,3-5.47,3.06-6.07a1.23,1.23,0,0,0-.17-.63,1.15,1.15,0,0,0-.88-.52s-.52,0-1.39,0"/><path class="cls-1" d="M46.52,18.84a23.32,23.32,0,0,1-2.48,7,12.37,12.37,0,0,1-4.32,4.61C52.11,29.74,55.6,25.76,56,25.3h0a1.1,1.1,0,0,0,.19-.61,1.13,1.13,0,0,0-.44-.9l-.41-.28h0c-.19-.15-.48-.34-.84-.57l-.29-.2a44.09,44.09,0,0,0-4.07-2.3,33.59,33.59,0,0,0-3.58-1.59"/><path class="cls-1" d="M9.64,18.84A42.66,42.66,0,0,0,.83,23.5l-.4.28a1.15,1.15,0,0,0-.43.9,1.11,1.11,0,0,0,.18.61l0,0,.08.1.05.06A5.87,5.87,0,0,0,.93,26a12.6,12.6,0,0,0,3,1.79,36.11,36.11,0,0,0,12.53,2.6,12.54,12.54,0,0,1-4.31-4.62,22.79,22.79,0,0,1-2.48-7"/><path class="cls-1" d="M45,31.32a25.83,25.83,0,0,0-3,.33l-.66.09a17,17,0,0,1-2.39.13l-1.93,0h-.06c-.64,0-1.36,0-2.1,0a20.08,20.08,0,0,0-5.2.55.19.19,0,0,0-.14.18s.11.07.2.07h.08q1-.09,2-.09a19.89,19.89,0,0,1,5.28.76A17,17,0,0,0,41.6,34c2,0,3.52-.42,4.16-1.12a1,1,0,0,0,.28-.76c0-.52-.22-.76-1.08-.76"/><path class="cls-1" d="M11.19,31.32c-.86,0-1,.24-1.08.76a1,1,0,0,0,.28.76C11,33.53,12.61,34,14.56,34a16.82,16.82,0,0,0,4.56-.69,19.9,19.9,0,0,1,5.29-.76c.62,0,1.29,0,2,.09h.09c.09,0,.19,0,.2-.07a.19.19,0,0,0-.14-.18,20.15,20.15,0,0,0-5.21-.55c-.73,0-1.46,0-2.1,0h-.06l-1.93,0a16.91,16.91,0,0,1-2.38-.13l-.68-.1a27.49,27.49,0,0,0-3-.32"/><path class="cls-1" d="M63.31,61.07a.48.48,0,0,1-.49-.49V11.22a.49.49,0,0,1,1,0V60.58a.48.48,0,0,1-.49.49"/></g></g></svg>