<svg xmlns="http://www.w3.org/2000/svg" viewBox="0 0 23.79 17.62"><defs><style>.cls-1{fill:#f36f21;}</style></defs><g id="Слой_2" data-name="Слой 2"><g id="Слой_1-2" data-name="Слой 1"><path class="cls-1" d="M2,15.68c0-.61-.26-1-.93-1s-.92.44-.92,1.07v.84c0,.62.25,1.06.92,1.06S2,17.18,2,16.56v-.08h-.6v.18c0,.33-.11.47-.33.47S.74,17,.74,16.66V15.61c0-.33.11-.47.32-.47s.33.14.33.47v.07Zm1,1.88V15.32a.7.7,0,0,1,.38-.18.19.19,0,0,1,.21.21v2.21h.6V15.25c0-.37-.19-.6-.5-.6A.89.89,0,0,0,3,15V13.73h-.6v3.83Zm2.88-.9c0,.33-.12.47-.33.47s-.33-.14-.33-.47V15.61c0-.33.12-.47.33-.47s.33.14.33.47Zm-1.26-.1c0,.62.25,1.06.93,1.06s.92-.44.92-1.06v-.84c0-.63-.24-1.07-.92-1.07s-.93.44-.93,1.07Zm2.89-1.85h-.6v2.85h.6Zm0-1h-.6v.54h.6ZM8.6,17.56v-2A.36.36,0,0,1,9,15.22a1.28,1.28,0,0,1,.39.06v-.63H9.25a.77.77,0,0,0-.67.39h0v-.33H8v2.85Zm2.65-2.15a.87.87,0,0,0-.87-.76.77.77,0,0,0-.8.77c0,.78,1.12,1,1.12,1.46a.24.24,0,0,1-.27.25c-.27,0-.35-.21-.39-.45l-.52.14a.87.87,0,0,0,.91.8.74.74,0,0,0,.83-.77c0-.85-1.11-1-1.11-1.48,0-.15.1-.23.26-.23s.29.13.34.36Zm-8-12.22-.95.16c-.08-.43-.29-.67-.65-.67s-.49.15-.49.43C1.19,4,3.3,4.3,3.3,5.91A1.41,1.41,0,0,1,1.72,7.38,1.64,1.64,0,0,1,0,5.86l1-.27c.07.46.23.86.74.86A.46.46,0,0,0,2.24,6C2.24,5,.12,4.68.12,3.2A1.45,1.45,0,0,1,1.63,1.75,1.65,1.65,0,0,1,3.28,3.19M5.44,5.32l.69-3.47H7.26L5.84,7.68C5.6,8.66,5.15,9,4.3,9H3.83V8.05H4.1c.56,0,.75-.3.75-.88a2.82,2.82,0,0,0-.13-.71L3.54,1.85H4.69l.73,3.47Zm5.65,1.95H10V6.71h0a1.35,1.35,0,0,1-1.21.67c-.7,0-1.14-.53-1.14-1.52V3.26c0-1,.44-1.51,1.14-1.51A1.63,1.63,0,0,1,10,2.32V0h1.13ZM10,6.17V3a1.13,1.13,0,0,0-.64-.28c-.3,0-.55.16-.55.88v2c0,.72.25.88.55.88A1.13,1.13,0,0,0,10,6.17m3.15,1.1H12V1.85H13V2.4a1.82,1.82,0,0,1,1.38-.65c.59,0,.94.44.94,1.14V7.27H14.23V3.07a.36.36,0,0,0-.4-.39,1.31,1.31,0,0,0-.72.34Zm4.21-3.42h1.25V3.57c0-.63-.23-.89-.63-.89s-.62.26-.62.89Zm2.37-.08v1H17.32v.78c0,.63.22.89.62.89s.63-.26.63-.89V5.44h1.12c0,1.15-.49,1.94-1.75,1.94s-1.75-.83-1.75-2V3.77c0-1.19.46-2,1.75-2s1.75.83,1.75,2M22,5.32l.69-3.47h1.13L22.37,7.68c-.24,1-.69,1.3-1.54,1.3h-.47V8.05h.27c.56,0,.75-.3.75-.88a2.78,2.78,0,0,0-.12-.71L20.08,1.85h1.14L22,5.32ZM.05,10.27V14h.6V12.89a.86.86,0,0,0,.61.29c.38,0,.61-.27.61-.79V11c0-.53-.23-.8-.61-.8a.7.7,0,0,0-.63.35h0v-.3Zm.6.59A.55.55,0,0,1,1,10.71c.16,0,.28.08.28.46v1.06c0,.38-.12.46-.28.46a.59.59,0,0,1-.34-.14ZM2.9,13.13V10.89a.7.7,0,0,1,.38-.18c.13,0,.21.06.21.2v2.22h.6V10.82c0-.37-.19-.6-.5-.6a.89.89,0,0,0-.69.32V9.3H2.3v3.83Zm2.26-2.86h-.6v2.86h.6Zm0-1h-.6v.54h.6Zm1.07,0h-.6v3.83h.6ZM7.3,13.13V10.89a.67.67,0,0,1,.38-.18c.13,0,.21.06.21.2v2.22h.6V10.82c0-.37-.19-.6-.5-.6a.88.88,0,0,0-.69.32V9.3H6.7v3.83Zm2.19-2c0-.24.06-.4.33-.4s.3.12.3.36v.17c-.86.33-1.27.67-1.27,1.3a.57.57,0,0,0,.6.64,1,1,0,0,0,.7-.27c0,.06,0,.14,0,.22h.57a1.65,1.65,0,0,1,0-.3V11c0-.52-.31-.77-.86-.77a.87.87,0,0,0-1,.89Zm.63,1.32a.55.55,0,0,1-.4.26c-.18,0-.28-.07-.28-.26s.14-.44.68-.75Zm1.68.7v-2a.38.38,0,0,1,.4-.38,1.26,1.26,0,0,1,.38.06v-.62h-.12a.78.78,0,0,0-.68.39h0v-.34h-.56v2.86Zm2.85,0V10.89a.67.67,0,0,1,.37-.18.19.19,0,0,1,.22.2v2.22h.59V10.82c0-.37-.18-.6-.56-.6-.21,0-.37.06-.66.34-.13-.24-.22-.34-.52-.34s-.41.13-.66.34v-.29h-.56v2.86h.59V10.89a.72.72,0,0,1,.39-.18.18.18,0,0,1,.2.2v2.22Zm2.87-.9c0,.33-.11.46-.32.46s-.33-.13-.33-.46V11.17c0-.32.11-.46.33-.46s.32.14.32.46Zm-1.25-.11c0,.63.25,1.06.93,1.06s.92-.43.92-1.06v-.84c0-.62-.24-1.06-.92-1.06s-.93.44-.93,1.06Zm2.88,1V10.89a.7.7,0,0,1,.38-.18c.13,0,.21.06.21.2v2.22h.6V10.82c0-.37-.19-.6-.5-.6a1,1,0,0,0-.72.34v-.29h-.57v2.86Zm2.26-2.86h-.6v2.86h.6Zm0-1h-.6v.54h.6Zm1,1.81c0-.24.07-.4.34-.4s.29.12.29.36v.17c-.85.33-1.27.67-1.27,1.3a.58.58,0,0,0,.61.64,1,1,0,0,0,.69-.27c0,.06,0,.14,0,.22h.56c0-.1,0-.21,0-.3V11c0-.52-.32-.77-.87-.77a.87.87,0,0,0-.95.89ZM23,12.43a.52.52,0,0,1-.39.26c-.19,0-.28-.07-.28-.26s.13-.44.67-.75ZM12.53,17v.37h.09c.12,0,.17-.06.17-.19s0-.18-.19-.18Zm0-.51v.33h.08a.14.14,0,0,0,.15-.15q0-.18-.15-.18Zm-.23,1.05V16.35h.34c.24,0,.35.12.35.32a.26.26,0,0,1-.16.26.28.28,0,0,1,.19.29.32.32,0,0,1-.36.35Zm1.15-1.05v.38h.08c.12,0,.17,0,.17-.19s0-.19-.17-.19Zm0,.55v.5h-.23V16.35h.32c.26,0,.39.1.39.36s-.08.28-.16.31l.19.55h-.23l-.16-.5h-.12m1.33.5h-.64V16.35h.62v.18h-.39v.32h.3V17h-.3v.36h.41Zm.32,0v-1h-.22v-.18h.67v.18h-.22v1Zm.72,0v-1h-.23v-.18h.68v.18H16v1Zm1.24-.44.15-.78h.19l.15.78h0l.13-.78h.22l-.24,1.22h-.19l-.17-.8h0l-.15.8H17l-.25-1.22h.21l.14.78Zm1.62.44H18V16.35h.62v.18h-.39v.32h.3V17h-.3v.36h.41Zm.6-.5v.5h-.23v-.5l-.28-.72H19l.16.47h0l.15-.47h.23Zm1-.72h.3v1.22h-.2v-.95h0l-.21.95h-.11l-.21-.95h0v.95h-.2V16.35H20l.16.72h0Zm.81.24-.09.53h.18l-.09-.53ZM21,17.3l0,.27h-.22L21,16.35h.28l.25,1.22h-.22l0-.27Zm.87-.78v.38h.08c.13,0,.17,0,.17-.19s0-.19-.17-.19Zm0,.55v.5h-.23V16.35H22c.26,0,.39.1.39.36s-.08.28-.16.31l.2.55h-.24l-.16-.5h-.12m.91.5h-.23V16.35h.23v.45h0l.24-.45h.23l-.25.46.28.76H23L22.86,17h0l-.08.13Zm-9.86-2.82-.16.71h0l-.17-.71h-.3V16h.2V15h0l.2,1h.11L13,15h0v1h.2V14.75Zm.52.92c0,.21.13.32.35.32a.31.31,0,0,0,.35-.32v-.92H13.9v.92c0,.09,0,.14-.12.14s-.13-.05-.13-.14v-.92h-.22ZM15,15a.31.31,0,0,0-.31-.3c-.23,0-.36.11-.36.31,0,.35.47.41.47.66,0,.07-.06.11-.14.11s-.12-.06-.13-.19l-.22,0a.34.34,0,0,0,.34.34c.22,0,.36-.11.36-.31s-.46-.44-.46-.64,0-.12.11-.12a.12.12,0,0,1,.13.13Zm.45-.28H15.2V16h.23Zm.94.41v-.09a.32.32,0,0,0-.34-.34.31.31,0,0,0-.35.32v.63A.31.31,0,0,0,16,16a.3.3,0,0,0,.34-.31v-.14h-.23v.14c0,.08,0,.13-.11.13s-.12-.05-.12-.14v-.62c0-.09,0-.13.12-.13s.11,0,.11.14v.1Zm.87-.24h.08c.13,0,.17,0,.17.17v.54c0,.13,0,.17-.17.17h-.08ZM17,16h.34a.33.33,0,0,0,.36-.37v-.48a.33.33,0,0,0-.36-.37H17Zm1.18-1.22H18V16h.23Zm.48.17h.08c.13,0,.17,0,.17.19s0,.19-.17.19h-.08Zm0,.55h.12L19,16h.24l-.2-.55c.08,0,.16-.11.16-.31s-.13-.36-.39-.36h-.32V16h.23ZM20,16v-.18h-.41v-.36h.29v-.18h-.29v-.32H20v-.18h-.61V16Zm.87-.81v-.09a.32.32,0,0,0-.34-.34.31.31,0,0,0-.35.32v.63a.31.31,0,0,0,.35.31.3.3,0,0,0,.34-.31v-.14h-.23v.14c0,.08,0,.13-.11.13s-.12-.05-.12-.14v-.62c0-.09,0-.13.12-.13s.11,0,.11.14v.1Zm.36.81h.23v-1h.22v-.18H21v.18h.22Zm.59-.29a.35.35,0,0,0,.7,0v-.63a.35.35,0,0,0-.7,0Zm.23-.63c0-.09,0-.13.12-.13s.12,0,.12.13v.62c0,.09,0,.14-.12.14s-.12-.05-.12-.14Zm.92-.13h.08c.13,0,.17,0,.17.19s0,.19-.17.19H23Zm0,.55h.12l.16.5h.23l-.19-.55c.08,0,.16-.11.16-.31s-.13-.36-.39-.36h-.32V16H23Z"/></g></g></svg>