<svg xmlns="http://www.w3.org/2000/svg" viewBox="0 0 154.46 114.36"><g id="Слой_2" data-name="Слой 2"><g id="Слой_1-2" data-name="Слой 1"><path d="M12.91,101.81c-.07-4-1.66-6.69-6-6.69s-6,2.83-6,6.9v5.44c0,4.07,1.59,6.9,6,6.9s6-2.83,6-6.9V107H9.05v1.17c0,2.14-.76,3-2.14,3s-2.14-.9-2.14-3v-6.82c0-2.14.76-3,2.14-3s2.14.9,2.14,3v.48ZM19.6,114V99.47a4.48,4.48,0,0,1,2.48-1.18,1.23,1.23,0,0,1,1.38,1.35V114h3.86V99c0-2.41-1.21-3.9-3.24-3.9-2.24,0-3.07.83-4.48,2.07V89.12H15.74V114Zm18.68-5.87c0,2.14-.76,3-2.14,3s-2.13-.9-2.13-3v-6.82c0-2.14.76-3,2.13-3s2.14.9,2.14,3Zm-8.13-.69c0,4.07,1.58,6.9,6,6.9s6-2.83,6-6.9V102c0-4.07-1.59-6.9-6-6.9s-6,2.83-6,6.9Zm18.72-12H45V114h3.87Zm0-6.35H45v3.52h3.87ZM55.79,114V101.26a2.43,2.43,0,0,1,2.59-2.48,8.44,8.44,0,0,1,2.48.38v-4h-.79a5,5,0,0,0-4.38,2.52h-.07V95.47H51.93V114Zm17.24-14c-.58-2.89-2.62-4.93-5.65-4.93a4.93,4.93,0,0,0-5.17,5c0,5.06,7.24,6.27,7.24,9.48a1.57,1.57,0,0,1-1.73,1.62c-1.75,0-2.31-1.38-2.55-2.93l-3.38.93c.59,3.24,2.52,5.17,5.9,5.17,3.14,0,5.41-1.69,5.41-5,0-5.51-7.24-6.69-7.24-9.58,0-1,.69-1.49,1.69-1.49,1.24,0,1.93.83,2.21,2.31ZM21.32,20.73l-6.21,1.05c-.52-2.82-1.84-4.39-4.19-4.39-1.9,0-3.2,1-3.2,2.81,0,5.5,13.73,7.72,13.73,18.19,0,6.27-4.32,9.48-10.27,9.48C4.77,47.87,1.11,44.21,0,38.06l6.41-1.77c.46,2.94,1.5,5.56,4.84,5.56a3,3,0,0,0,3.27-3.07c0-6.08-13.73-8.37-13.73-18,0-5.55,4.31-9.41,9.81-9.41,5.75,0,9.61,3.86,10.72,9.35m14,13.8L39.76,12h7.39l-9.22,37.8c-1.57,6.41-4.51,8.43-10,8.43H24.85v-6h1.77c3.66,0,4.83-2,4.83-5.69a18,18,0,0,0-.78-4.64L23,12h7.45l4.71,22.5ZM72,47.21H65.07V43.55h-.13c-2.42,3.08-4.19,4.32-7.85,4.32-4.58,0-7.45-3.4-7.45-9.81V21.19c0-6.41,2.87-9.81,7.45-9.81,3.2,0,4.71,1.31,7.59,3.66V0H72ZM64.68,40V19.22a7.46,7.46,0,0,0-4.19-1.83c-2,0-3.53,1.05-3.53,5.69V36.16c0,4.64,1.57,5.69,3.53,5.69A7.39,7.39,0,0,0,64.68,40m20.4,7.19H77.75V12h6.93v3.53c3.08-2.61,4.65-4.18,8.9-4.18,3.86,0,6.15,2.81,6.15,7.39V47.21H92.4V19.94a2.33,2.33,0,0,0-2.61-2.55c-1.57,0-3,1-4.71,2.23ZM112.41,25h8.11V23.15c0-4.06-1.44-5.76-4-5.76s-4.06,1.7-4.06,5.76Zm15.44-.52V31H112.41v5.1c0,4,1.44,5.75,4.06,5.75s4-1.7,4-5.75v-.79h7.33c-.13,7.46-3.21,12.56-11.38,12.56-8.37,0-11.38-5.37-11.38-13.08V24.46c0-7.72,3-13.08,11.38-13.08s11.38,5.36,11.38,13.08m14.77,10.07L147.07,12h7.39l-9.22,37.8c-1.57,6.41-4.51,8.43-10,8.43h-3.07v-6h1.76c3.67,0,4.84-2,4.84-5.69a18,18,0,0,0-.78-4.64L130.33,12h7.45l4.71,22.5ZM.34,66.68v24.4H4.21V83.64c1.52,1.24,2.31,1.93,4,1.93,2.42,0,3.93-1.8,3.93-5.17V71.5c0-3.38-1.51-5.17-3.93-5.17-1.93,0-2.86.66-4.13,2.28H4V66.68Zm3.87,3.79a3.88,3.88,0,0,1,2.2-1c1,0,1.86.55,1.86,3v6.9c0,2.44-.82,3-1.86,3a3.88,3.88,0,0,1-2.2-1ZM18.82,85.22V70.68a4.54,4.54,0,0,1,2.49-1.18,1.23,1.23,0,0,1,1.37,1.35V85.22h3.87v-15c0-2.42-1.21-3.9-3.25-3.9-2.24,0-3.06.83-4.48,2.07V60.33H15V85.22ZM33.47,66.68H29.61V85.22h3.86Zm0-6.35H29.61v3.52h3.86Zm7,0H36.58V85.22h3.86Zm6.93,24.89V70.68a4.48,4.48,0,0,1,2.48-1.18,1.23,1.23,0,0,1,1.38,1.35V85.22h3.86v-15c0-2.42-1.21-3.9-3.24-3.9-2.24,0-3.07.83-4.48,2.07V60.33H43.5V85.22Zm14.2-13.1c.07-1.58.45-2.62,2.21-2.62,1.27,0,1.89.83,1.89,2.38V73c-5.55,2.11-8.24,4.35-8.24,8.42,0,2.37,1.31,4.17,3.93,4.17a6.56,6.56,0,0,0,4.52-1.8c0,.45.17.94.21,1.45h3.69a12.52,12.52,0,0,1-.25-2V71.36c0-3.37-2-5-5.61-5s-6,2-6.21,5.79Zm4.1,8.55a3.4,3.4,0,0,1-2.58,1.73c-1.17,0-1.79-.49-1.79-1.69,0-1.62.86-2.9,4.37-4.9ZM76.6,85.22V72.47A2.43,2.43,0,0,1,79.19,70a8.85,8.85,0,0,1,2.48.38v-4h-.8a5,5,0,0,0-4.37,2.52h-.07V66.68H72.74V85.22Zm18.48,0V70.68a4.32,4.32,0,0,1,2.44-1.18,1.26,1.26,0,0,1,1.38,1.35V85.22h3.86v-15c0-2.42-1.2-3.9-3.61-3.9-1.42,0-2.45.41-4.31,2.21C94,67,93.39,66.33,91.46,66.33s-2.66.83-4.28,2.21V66.68H83.53V85.22h3.86V70.68a4.51,4.51,0,0,1,2.48-1.18,1.24,1.24,0,0,1,1.35,1.35V85.22Zm18.68-5.86c0,2.14-.75,3-2.13,3s-2.14-.9-2.14-3V72.54c0-2.14.76-3,2.14-3s2.13.9,2.13,3Zm-8.13-.69c0,4.07,1.58,6.9,6,6.9s6-2.83,6-6.9V73.23c0-4.07-1.58-6.9-6-6.9s-6,2.83-6,6.9Zm18.68,6.55V70.68a4.54,4.54,0,0,1,2.48-1.18,1.23,1.23,0,0,1,1.38,1.35V85.22H132v-15c0-2.42-1.2-3.9-3.24-3.9-2.24,0-3.06.83-4.69,2.21V66.68h-3.65V85.22ZM139,66.68H135.1V85.22H139Zm0-6.35H135.1v3.52H139Zm6.52,11.79c.07-1.58.45-2.62,2.2-2.62,1.28,0,1.9.83,1.9,2.38V73c-5.55,2.11-8.24,4.35-8.24,8.42,0,2.37,1.31,4.17,3.93,4.17a6.56,6.56,0,0,0,4.52-1.8c0,.45.17.94.21,1.45h3.68a13.78,13.78,0,0,1-.24-2V71.36c0-3.37-2-5-5.62-5s-6,2-6.2,5.79Zm4.1,8.55A3.38,3.38,0,0,1,147,82.4c-1.18,0-1.8-.49-1.8-1.69,0-1.62.86-2.9,4.38-4.9ZM81.31,110.51V113h.62c.8,0,1.08-.41,1.08-1.22s-.33-1.22-1.22-1.22Zm0-3.25v2.13h.54a.93.93,0,0,0,1-1c0-.74-.31-1.12-1-1.12Zm-1.49,6.82v-8H82c1.59,0,2.3.75,2.3,2.11a1.69,1.69,0,0,1-1,1.66,1.8,1.8,0,0,1,1.2,1.88,2.08,2.08,0,0,1-2.33,2.3Zm7.48-6.82v2.44h.53c.81,0,1.11-.28,1.11-1.22s-.3-1.22-1.11-1.22Zm0,3.56v3.26H85.82v-8H87.9c1.67,0,2.52.65,2.52,2.35,0,1.27-.54,1.79-1,2l1.26,3.6H89.13l-1.06-3.29c-.19,0-.5,0-.77,0M96,114.08H91.81v-8h4v1.19H93.3v2.05h1.92v1.19H93.3v2.33H96Zm2,0v-6.76H96.56v-1.19h4.37v1.19H99.49v6.76Zm4.67,0v-6.76h-1.44v-1.19h4.36v1.19h-1.44v6.76Zm8.06-2.89,1-5.06h1.22l1,5.06h0l.83-5.06h1.39l-1.52,8h-1.25l-1.08-5.25h0l-1,5.25h-1.25l-1.64-8h1.39l.91,5.06Zm10.54,2.89h-4.14v-8h4v1.19h-2.5v2.05h1.92v1.19h-1.92v2.33h2.66Zm3.86-3.3v3.3h-1.48v-3.3l-1.8-4.65h1.51l1,3h0l1-3h1.52Zm6.65-4.65h1.95v8h-1.29v-6.21h0l-1.34,6.21h-.72L129,107.87h0v6.21h-1.3v-8h1.95l1.06,4.65h0Zm5.25,1.59-.59,3.41h1.2l-.59-3.41Zm-.8,4.6-.27,1.76h-1.43l1.59-8H138l1.59,8h-1.44l-.26-1.76Zm5.68-5.06v2.44h.53c.8,0,1.1-.28,1.1-1.22s-.3-1.22-1.1-1.22Zm0,3.56v3.26h-1.49v-8h2.09c1.67,0,2.52.65,2.52,2.35,0,1.27-.54,1.79-1,2l1.25,3.6h-1.51l-1-3.29c-.2,0-.51,0-.77,0m5.93,3.26h-1.49v-8h1.49v2.94h0l1.56-2.94h1.48l-1.6,3,1.81,5H149.6l-1.21-3.7h0l-.52.88Zm-64-18.34-1.06,4.65h0l-1.06-4.65h-2v8H81V97.48h0l1.34,6.21h.72l1.34-6.21h0v6.21h1.29v-8Zm3.32,5.94a2.28,2.28,0,0,0,4.55,0V95.74H90.22v6c0,.58-.25.87-.79.87s-.79-.29-.79-.87v-6H87.15Zm10.12-4.12a2,2,0,0,0-2.06-1.93c-1.47,0-2.3.72-2.3,2,0,2.27,3,2.69,3,4.26,0,.48-.35.73-.87.73s-.82-.4-.88-1.2l-1.42.18A2.18,2.18,0,0,0,95,103.8c1.39,0,2.35-.73,2.35-2,0-2.15-3-2.8-3-4.16a.69.69,0,0,1,.74-.78c.34,0,.73.2.79.88Zm2.89-1.82H98.68v8h1.48Zm6.13,2.66v-.59a2.05,2.05,0,0,0-2.21-2.18,2,2,0,0,0-2.28,2v4.09a2,2,0,0,0,2.28,2,2,2,0,0,0,2.21-2v-.91H104.8v1c0,.51-.18.8-.72.8s-.79-.29-.79-.88v-4c0-.59.19-.88.79-.88.38,0,.72.29.72,1v.62Zm5.65-1.53h.52c.79,0,1.07.27,1.07,1.11v3.47c0,.84-.28,1.11-1.07,1.11h-.52Zm-1.48,6.82h2.21a2.1,2.1,0,0,0,2.35-2.4V98.14a2.11,2.11,0,0,0-2.35-2.4h-2.21Zm7.69-8h-1.49v8h1.49Zm3.12,1.13h.53c.81,0,1.11.27,1.11,1.22s-.3,1.22-1.11,1.22h-.53Zm0,3.56c.27,0,.58,0,.77,0l1.06,3.29h1.51l-1.26-3.6c.5-.21,1-.73,1-2,0-1.7-.85-2.35-2.52-2.35h-2.08v8h1.48Zm8.66,3.26V102.5h-2.66v-2.33h1.92V99h-1.92v-2h2.5V95.74h-4v8Zm5.66-5.29v-.59a2.05,2.05,0,0,0-2.2-2.18,2,2,0,0,0-2.28,2v4.09a2,2,0,0,0,2.28,2,2,2,0,0,0,2.2-2v-.91H134.1v1c0,.51-.18.8-.71.8s-.79-.29-.79-.88v-4c0-.59.19-.88.79-.88.38,0,.71.29.71,1v.62Zm2.38,5.29h1.48V96.93h1.44V95.74h-4.36v1.19H138Zm3.8-1.93a2.29,2.29,0,0,0,4.56,0V97.67a2.29,2.29,0,0,0-4.56,0Zm1.48-4.06c0-.59.2-.88.8-.88s.79.29.79.88v4c0,.59-.19.88-.79.88s-.8-.29-.8-.88Zm6-.83h.53c.8,0,1.1.27,1.1,1.22s-.3,1.22-1.1,1.22h-.53Zm0,3.56c.27,0,.58,0,.77,0l1,3.29h1.51l-1.26-3.6c.51-.21,1.05-.73,1.05-2,0-1.7-.86-2.35-2.52-2.35h-2.09v8h1.49Z"/></g></g></svg>