<svg xmlns="http://www.w3.org/2000/svg" viewBox="0 0 22.41 22.41"><defs><style>.cls-1{fill:#dadbdc;}</style></defs><g id="Слой_2" data-name="Слой 2"><g id="Слой_1-2" data-name="Слой 1"><path class="cls-1" d="M11.21,0a11.21,11.21,0,1,0,11.2,11.21A11.21,11.21,0,0,0,11.21,0m5.63,9.27A7.39,7.39,0,0,1,5.47,15.84a5.22,5.22,0,0,0,3.85-1.08A2.6,2.6,0,0,1,6.89,13a2.54,2.54,0,0,0,1.17-.05A2.59,2.59,0,0,1,6,10.33a2.6,2.6,0,0,0,1.18.33,2.61,2.61,0,0,1-.81-3.47A7.41,7.41,0,0,0,11.71,9.9a2.6,2.6,0,0,1,4.43-2.37,5,5,0,0,0,1.65-.63,2.6,2.6,0,0,1-1.14,1.44,5.07,5.07,0,0,0,1.49-.41,5.18,5.18,0,0,1-1.3,1.34"/></g></g></svg>