<svg xmlns="http://www.w3.org/2000/svg" viewBox="0 0 22.41 22.41"><defs><style>.cls-1{fill:#dadbdc;}</style></defs><g id="Слой_2" data-name="Слой 2"><g id="Слой_1-2" data-name="Слой 1"><path class="cls-1" d="M22.41,11.21a11.21,11.21,0,1,0-11.2,11.2,11.2,11.2,0,0,0,11.2-11.2M10,4,9,7.23V9.4H8.2V7.23a12.2,12.2,0,0,0-.49-1.69c-.17-.5-.35-1-.51-1.5H8l.57,2.11L9.16,4Zm2.14,4.07a1.52,1.52,0,0,1-.23.94,1,1,0,0,1-.84.41,1,1,0,0,1-.84-.41A1.59,1.59,0,0,1,10,8.11V6.71a1.56,1.56,0,0,1,.23-.94A1,1,0,0,1,11,5.36a1,1,0,0,1,.84.41,1.5,1.5,0,0,1,.23.94ZM14.79,9.4h-.73V9a1.18,1.18,0,0,1-.82.5.45.45,0,0,1-.47-.3,2,2,0,0,1-.06-.59V5.41h.72V8.63c0,.11.08.17.17.17s.3-.12.46-.34V5.41h.73Zm2.34,4.84a12.46,12.46,0,0,1-.21,2.8,1.5,1.5,0,0,1-1.28,1.16,38.6,38.6,0,0,1-4.43.17,38.68,38.68,0,0,1-4.44-.17A1.5,1.5,0,0,1,5.49,17a13.06,13.06,0,0,1-.2-2.8,12.5,12.5,0,0,1,.21-2.8,1.49,1.49,0,0,1,1.27-1.16,41.09,41.09,0,0,1,4.44-.16,40.9,40.9,0,0,1,4.43.16,1.49,1.49,0,0,1,1.28,1.16,12.5,12.5,0,0,1,.21,2.8M16.23,16c0-.07,0-.23,0-.46v-.1h-.73c0,.28,0,.44,0,.48a.31.31,0,0,1-.32.29c-.25,0-.37-.18-.37-.55V15h1.43v-.82a1.56,1.56,0,0,0-.22-.93,1,1,0,0,0-.84-.4,1,1,0,0,0-.86.4,1.56,1.56,0,0,0-.22.93v1.39a1.52,1.52,0,0,0,.23.92,1,1,0,0,0,.87.41,1,1,0,0,0,.86-.43,1.08,1.08,0,0,0,.17-.43m-1.42-1.64V14c0-.37.12-.55.36-.55s.36.18.36.55v.36Zm-1.34,2.05a3,3,0,0,0,.07-.79V14.05a3,3,0,0,0-.07-.8.56.56,0,0,0-.57-.44,1,1,0,0,0-.74.43V11.5h-.72v5.3h.72v-.38a1,1,0,0,0,.74.44.56.56,0,0,0,.57-.45m-.64-.73c0,.35-.11.53-.31.53a.52.52,0,0,1-.36-.18V13.62a.55.55,0,0,1,.36-.17c.2,0,.31.18.31.54ZM10.11,16.8h.72V12.86h-.72v3c-.16.23-.31.34-.45.34s-.15-.06-.17-.17a1.44,1.44,0,0,1,0-.28v-2.9H8.77V16a2,2,0,0,0,.06.58.44.44,0,0,0,.46.3,1.13,1.13,0,0,0,.82-.49Zm-2.3-4.55h.85V11.5H6.17v.75H7V16.8h.8Zm3.58-4V6.56c0-.36-.11-.55-.35-.55s-.34.19-.34.55V8.24c0,.37.11.56.34.56s.35-.19.35-.56"/></g></g></svg>