<svg width="562" height="178" fill="none" xmlns="http://www.w3.org/2000/svg"><path d="M151.982 79.236h-3v3h3v-3zm23.868 0h3v-3h-3v3zm0 41.931v3h3v-3h-3zm-23.868 0v-3h-3v3h3zm0 49.833v3h3v-3h-3zm-54.349 0h-3v3h3v-3zm0-49.833h3v-3h-3v3zm-90.796 0l-2.986.29.263 2.71h2.723v-3zM3.612 87.945L1.064 86.36l-.536.863.098 1.01 2.986-.29zM97.633-63.33l2.548 1.584.452-.727v-.857h-3zm0-.483v-3h-3v3h3zm54.349 0h3v-3h-3v3zM55.38 79.236l-2.593-1.51-2.625 4.51h5.218v-3zm42.253 0v3h3v-3h-3zm0-72.25h3V-3.58l-5.552 8.99 2.552 1.576zm-3.386 5.483l-2.553-1.576-.02.033-.02.034 2.593 1.51zm57.735 69.767h23.868v-6h-23.868v6zm20.868-3v41.931h6v-41.93h-6zm3 38.931h-23.868v6h23.868v-6zm-26.868 3V171h6v-49.833h-6zm3 46.833H97.633v6h54.349v-6zm-51.349 3v-49.833h-6V171h6zm-3-52.833H6.837v6h90.796v-6zm-87.81 2.71L6.598 87.655l-5.972.58 3.225 33.222 5.972-.58zM6.16 89.528l94.02-151.273-5.096-3.167L1.064 86.36l5.096 3.167zm94.473-152.857v-.483h-6v.483h6zm-3 2.517h54.349v-6H97.633v6zm51.349-3V79.236h6V-63.812h-6zM55.38 82.236h42.253v-6H55.38v6zm45.253-3V6.986h-6v72.25h6zM95.081 5.41l-3.387 5.483 5.105 3.153 3.387-5.483-5.105-3.153zm-3.427 5.55L52.787 77.727l5.186 3.018L96.839 13.98l-5.185-3.019zm249.662 137.462l-2.307-1.918-.007.009 2.314 1.909zM220.362-41.234l-2.307-1.918-.007.008 2.314 1.91zm120.954.16l-2.313 1.911 2.313-1.91zm-39.512 28.546l-2.655 1.396.003.007.004.007 2.648-1.41zm-41.447-.967l-2.622-1.458-.008.014-.008.015 2.638 1.428zm-6.773 35.157l-3-.062v.061h3zm6.612 98.537l-2.64 1.425.004.007.004.007 2.632-1.439zm41.447.323l2.616 1.469.004-.008.004-.007-2.624-1.454zm6.773-37.254l3 .019v-.02h-3zm51.349-8.225c0 31.304-7.059 54.984-20.756 71.461l4.614 3.836c14.902-17.928 22.142-43.168 22.142-75.297h-6zm-20.763 71.47c-13.527 16.396-32.663 24.712-57.841 24.712v6c26.645 0 47.612-8.885 62.469-26.894l-4.628-3.818zm-57.841 24.712c-25.394 0-44.692-8.372-58.325-24.875l-4.626 3.821c14.966 18.117 36.094 27.054 62.951 27.054v-6zm-58.325-24.875c-13.706-16.591-20.762-40.225-20.762-71.307h-6c0 31.922 7.243 57.1 22.136 75.128l4.626-3.821zm-20.762-71.307V32.144h-6v42.899h6zm0-42.899c0-31.308 7.007-54.991 20.602-71.47l-4.628-3.818C203.258-25.217 196.074.02 196.074 32.144h6zm20.595-71.46c13.633-16.402 32.881-24.722 58.17-24.722v-6c-26.748 0-47.819 8.882-62.784 26.886l4.614 3.835zm58.17-24.722c25.282 0 44.528 8.37 58.164 24.875l4.626-3.82c-14.964-18.114-36.036-27.055-62.79-27.055v6zm58.164 24.875c13.705 16.59 20.762 40.276 20.762 71.469h6c0-32.027-7.242-57.26-22.136-75.29l-4.626 3.822zm20.762 71.469v42.737h6V32.306h-6zm-48.349-7.096c0-17.037-2.206-30.213-6.964-39.148l-5.296 2.82c4.059 7.623 6.26 19.605 6.26 36.328h6zm-6.956-39.134c-2.418-4.6-5.622-8.188-9.66-10.61-4.036-2.423-8.729-3.573-13.961-3.573v6c4.336 0 7.922.946 10.874 2.717 2.951 1.77 5.445 4.471 7.436 8.258l5.311-2.792zm-23.621-14.183c-5.096 0-9.671 1.057-13.616 3.293-3.952 2.24-7.105 5.572-9.488 9.861l5.245 2.914c1.917-3.452 4.328-5.926 7.203-7.556 2.883-1.634 6.398-2.512 10.656-2.512v-6zm-23.12 13.183c-4.535 8.373-6.809 20.669-7.135 36.524l5.999.123c.319-15.538 2.561-26.68 6.412-33.79l-5.276-2.857zm-7.135 36.586v59.993h6V21.662h-6zm0 59.993c0 17.654 2.199 31.122 6.972 39.969l5.28-2.849c-4.044-7.496-6.252-19.724-6.252-37.12h-6zm6.98 39.983c2.43 4.447 5.645 7.904 9.68 10.231 4.028 2.324 8.705 3.426 13.917 3.426v-6c-4.356 0-7.958-.915-10.919-2.623-2.953-1.704-5.436-4.295-7.414-7.912l-5.264 2.878zm23.597 13.657c5.056 0 9.608-1.077 13.55-3.343 3.947-2.268 7.117-5.634 9.548-9.961l-5.232-2.938c-1.978 3.521-4.425 6.042-7.306 7.697-2.885 1.659-6.369 2.545-10.56 2.545v6zm23.106-13.319c4.781-8.63 7.041-21.669 7.149-38.689l-6-.038c-.106 16.74-2.362 28.536-6.397 35.819l5.248 2.908zm7.149-38.708V25.21h-6v58.058h6zm223.104-4.032h-3v3h3v-3zm23.868 0h3v-3h-3v3zm0 41.931v3h3v-3h-3zm-23.868 0v-3h-3v3h3zm0 49.833v3h3v-3h-3zm-54.349 0h-3v3h3v-3zm0-49.833h3v-3h-3v3zm-90.796 0l-2.986.29.263 2.71h2.723v-3zm-3.225-33.222l-2.548-1.584-.537.863.099 1.01 2.986-.29zM480.171-63.33l2.548 1.584.452-.727v-.857h-3zm0-.483v-3h-3v3h3zm54.349 0h3v-3h-3v3zM437.918 79.236l-2.593-1.51-2.625 4.51h5.218v-3zm42.253 0v3h3v-3h-3zm0-72.25h3V-3.58l-5.552 8.99 2.552 1.576zm-3.386 5.483l-2.553-1.576-.02.033-.02.034 2.593 1.51zm57.735 69.767h23.868v-6H534.52v6zm20.868-3v41.931h6v-41.93h-6zm3 38.931H534.52v6h23.868v-6zm-26.868 3V171h6v-49.833h-6zm3 46.833h-54.349v6h54.349v-6zm-51.349 3v-49.833h-6V171h6zm-3-52.833h-90.796v6h90.796v-6zm-87.81 2.71l-3.225-33.222-5.972.58 3.225 33.222 5.972-.58zm-3.663-31.349l94.021-151.273-5.096-3.167L383.602 86.36l5.096 3.167zm94.473-152.857v-.483h-6v.483h6zm-3 2.517h54.349v-6h-54.349v6zm51.349-3V79.236h6V-63.812h-6zM437.918 82.236h42.253v-6h-42.253v6zm45.253-3V6.986h-6v72.25h6zM477.619 5.41l-3.387 5.483 5.105 3.153 3.387-5.483-5.105-3.153zm-3.427 5.55l-38.867 66.767 5.186 3.018 38.866-66.766-5.185-3.019z" fill="#fff" fill-opacity=".2"/></svg>