<svg width="1440" height="964" fill="none" xmlns="http://www.w3.org/2000/svg"><path d="M1212.36 1880.05s-468.768 127.58-558.841-480.79c-89.71-608.42-885.663-232.44-890.353-708.983" stroke="url(#paint0_linear)" stroke-width="1.635" stroke-miterlimit="10"/><path d="M1231.26 1859.14s-468.767 127.57-558.84-480.79c-90.072-608.367-885.663-232.45-890.353-708.99" stroke="url(#paint1_linear)" stroke-width="1.635" stroke-miterlimit="10"/><path d="M1249.8 1838.27s-468.77 127.58-558.842-480.78C601.247 749.064-194.647 1125.4-199.396 648.5" stroke="url(#paint2_linear)" stroke-width="1.635" stroke-miterlimit="10"/><path d="M1284.72 2847.79s-374.752-231.2-53.61-1058.14c321.14-826.946-173.04-994.85-514.757-762.67-342.143 231.87-1073.52 218.92-846.599-542.883" stroke="url(#paint3_linear)" stroke-width="1.635" stroke-miterlimit="10"/><path d="M1312.6 2809.05s-374.746-231.2-53.61-1058.14c321.14-826.943-173.03-994.848-514.752-762.67-342.084 232.24-1073.519 218.92-846.598-542.881" stroke="url(#paint4_linear)" stroke-width="1.635" stroke-miterlimit="10"/><path d="M1340.5 2770.31s-374.746-231.2-53.61-1058.14c321.14-826.942-173.03-994.847-514.752-762.669C430.416 1181.68-301.019 1168.36-74.098 406.561" stroke="url(#paint5_linear)" stroke-width="1.635" stroke-miterlimit="10"/><path d="M1368.39 2731.58s-374.75-231.2-53.61-1058.15c321.14-826.939-173.03-994.844-514.755-762.666C457.94 1143-273.495 1129.68-46.574 367.883" stroke="url(#paint6_linear)" stroke-width="1.635" stroke-miterlimit="10"/><path d="M1395.92 2692.9s-374.75-231.2-53.61-1058.15c321.14-826.94-173.03-994.844-514.755-762.667C485.832 1104.26-245.603 1090.94-18.682 329.143" stroke="url(#paint7_linear)" stroke-width="1.635" stroke-miterlimit="10"/><path d="M1423.81 2654.16s-374.75-231.2-53.61-1058.14c321.14-826.947-173.03-994.851-514.752-762.674C513.726 1065.52-217.709 1052.21 9.212 290.407" stroke="url(#paint8_linear)" stroke-width="1.635" stroke-miterlimit="10"/><path d="M1451.71 2615.42s-374.75-231.2-53.61-1058.14c321.14-826.944-173.04-994.849-514.758-762.671C541.62 1026.79-190.177 1013.53 37.106 251.67" stroke="url(#paint9_linear)" stroke-width="1.635" stroke-miterlimit="10"/><path d="M1479.6 2576.68s-374.75-231.2-53.61-1058.14c321.14-826.943-173.04-994.848-514.757-762.671C569.511 988.047-161.924 974.73 64.997 212.93" stroke="url(#paint10_linear)" stroke-width="1.635" stroke-miterlimit="10"/><defs><linearGradient id="paint0_linear" x1="578.176" y1="1174.47" x2="376.616" y2="1421.7" gradientUnits="userSpaceOnUse"><stop stop-color="#fff"/><stop offset="1" stop-color="#fff" stop-opacity="0"/></linearGradient><linearGradient id="paint1_linear" x1="596.873" y1="1153.65" x2="395.314" y2="1400.87" gradientUnits="userSpaceOnUse"><stop stop-color="#fff"/><stop offset="1" stop-color="#fff" stop-opacity="0"/></linearGradient><linearGradient id="paint2_linear" x1="615.568" y1="1132.82" x2="414.009" y2="1380.04" gradientUnits="userSpaceOnUse"><stop stop-color="#fff"/><stop offset="1" stop-color="#fff" stop-opacity="0"/></linearGradient><linearGradient id="paint3_linear" x1="1156.7" y1="953.122" x2="277.46" y2="2031.57" gradientUnits="userSpaceOnUse"><stop stop-color="#fff"/><stop offset="1" stop-color="#fff" stop-opacity="0"/></linearGradient><linearGradient id="paint4_linear" x1="1184.56" y1="914.42" x2="305.32" y2="1992.86" gradientUnits="userSpaceOnUse"><stop stop-color="#fff"/><stop offset="1" stop-color="#fff" stop-opacity="0"/></linearGradient><linearGradient id="paint5_linear" x1="1212.43" y1="875.716" x2="333.195" y2="1954.16" gradientUnits="userSpaceOnUse"><stop stop-color="#fff"/><stop offset="1" stop-color="#fff" stop-opacity="0"/></linearGradient><linearGradient id="paint6_linear" x1="1240.29" y1="837.015" x2="361.056" y2="1915.46" gradientUnits="userSpaceOnUse"><stop stop-color="#fff"/><stop offset="1" stop-color="#fff" stop-opacity="0"/></linearGradient><linearGradient id="paint7_linear" x1="1268.16" y1="798.311" x2="388.922" y2="1876.75" gradientUnits="userSpaceOnUse"><stop stop-color="#fff"/><stop offset="1" stop-color="#fff" stop-opacity="0"/></linearGradient><linearGradient id="paint8_linear" x1="1296.03" y1="759.61" x2="416.79" y2="1838.05" gradientUnits="userSpaceOnUse"><stop stop-color="#fff"/><stop offset="1" stop-color="#fff" stop-opacity="0"/></linearGradient><linearGradient id="paint9_linear" x1="1323.9" y1="720.908" x2="444.659" y2="1799.35" gradientUnits="userSpaceOnUse"><stop stop-color="#fff"/><stop offset="1" stop-color="#fff" stop-opacity="0"/></linearGradient><linearGradient id="paint10_linear" x1="1351.76" y1="682.204" x2="472.524" y2="1760.65" gradientUnits="userSpaceOnUse"><stop stop-color="#fff"/><stop offset="1" stop-color="#fff" stop-opacity="0"/></linearGradient></defs></svg>