<svg width="1440" height="5604" fill="none" xmlns="http://www.w3.org/2000/svg"><g filter="url(#filter0_f)"><circle cx="-47.5" cy="1072.5" r="281.5" fill="#55B4ED" fill-opacity=".1"/></g><g filter="url(#filter1_f)"><circle cx="-44.5" cy="5022.5" r="281.5" fill="#55B4ED" fill-opacity=".1"/></g><g filter="url(#filter2_f)"><circle cx="1510.51" cy="3616.5" r="281.5" fill="#55B4ED" fill-opacity=".1"/></g><path d="M773.182 696.933S738.66 367.497 1157.93 373.501c419.28 6.253 253.42-570.571 574.63-521.543" stroke="url(#paint0_linear)" stroke-width="1.635" stroke-miterlimit="10"/><path d="M785.19 711.941s-34.522-329.435 384.75-323.432c419.28 6.004 253.42-570.57 574.63-521.543" stroke="url(#paint1_linear)" stroke-width="1.635" stroke-miterlimit="10"/><path d="M797.198 726.699s-34.523-329.435 384.752-323.432c419.27 6.254 253.17-570.57 574.63-521.543" stroke="url(#paint2_linear)" stroke-width="1.635" stroke-miterlimit="10"/><path d="M114 639.65s196.629-226.877 717.97 79.795c521.34 306.675 688.45-7.504 569.62-262.897-118.57-255.644-29.77-746.42 458.05-510.287" stroke="url(#paint3_linear)" stroke-width="1.635" stroke-miterlimit="10"/><path d="M137.016 662.664s196.628-226.878 717.97 79.795c521.344 306.671 688.454-7.505 569.624-262.898-118.83-255.644-29.77-746.42 458.05-510.287" stroke="url(#paint4_linear)" stroke-width="1.635" stroke-miterlimit="10"/><path d="M160.031 685.676s196.629-226.877 717.97 79.795c521.339 306.669 688.449-7.504 569.619-262.898-118.82-255.393-29.77-746.169 458.05-510.036" stroke="url(#paint5_linear)" stroke-width="1.635" stroke-miterlimit="10"/><path d="M183.045 708.69s196.629-226.878 717.97 79.794c521.345 306.676 688.455-7.504 569.625-262.897-118.83-255.644-29.77-746.42 458.05-510.287" stroke="url(#paint6_linear)" stroke-width="1.635" stroke-miterlimit="10"/><path d="M206.061 731.452s196.628-226.877 717.97 79.795c521.339 306.673 688.449-7.504 569.619-262.898-118.82-255.393-29.77-746.169 458.05-510.037" stroke="url(#paint7_linear)" stroke-width="1.635" stroke-miterlimit="10"/><path d="M229.076 754.465s196.629-226.878 717.97 79.795c521.344 306.67 688.454-7.504 569.624-262.898-118.83-255.394-29.77-746.17 458.05-510.037" stroke="url(#paint8_linear)" stroke-width="1.635" stroke-miterlimit="10"/><path d="M252.09 777.478s196.629-226.877 717.97 79.795c521.34 306.677 688.45-7.504 569.62-262.898-118.82-255.393-29.77-746.42 458.05-510.037" stroke="url(#paint9_linear)" stroke-width="1.635" stroke-miterlimit="10"/><path d="M275.105 800.491s196.629-226.878 717.971 79.795c521.344 306.674 688.454-7.505 569.624-262.898-118.83-255.394-29.77-746.17 458.05-510.037" stroke="url(#paint10_linear)" stroke-width="1.635" stroke-miterlimit="10"/><g opacity=".04" stroke-width="1.635" stroke-miterlimit="10"><path d="M-226.709 529.382s-139.803-131.607 46.591-287.604C6.369 85.892-284.708-104.664-125.101-204.664" stroke="url(#paint11_linear)"/><path d="M-215.758 531.43s-139.802-131.608 46.591-287.604c186.393-155.997-104.59-346.443 55.018-446.443" stroke="url(#paint12_linear)"/><path d="M-204.901 533.368S-344.703 401.76-158.31 245.764c186.488-155.887-104.7-346.348 55.017-446.443" stroke="url(#paint13_linear)"/><path d="M-537.857 753.629s.509-174.026 345.483-236.603C152.599 454.45 107.115 253.255-41.695 186.059c-148.796-67.4-295.482-316.522 8.082-397.393" stroke="url(#paint14_linear)"/><path d="M-519.042 755.027s.509-174.026 345.482-236.603c344.974-62.576 299.49-263.771 150.68-330.967-148.906-67.306-295.482-316.522 8.082-397.393" stroke="url(#paint15_linear)"/><path d="M-500.23 756.425s.509-174.026 345.483-236.603C190.226 457.246 144.742 256.051-4.069 188.855c-148.81-67.196-295.386-316.412 8.178-397.283" stroke="url(#paint16_linear)"/><path d="M-481.415 757.824s.509-174.026 345.482-236.603c344.974-62.576 299.49-263.771 150.68-330.967-148.906-67.306-295.482-316.522 8.081-397.393" stroke="url(#paint17_linear)"/><path d="M-462.697 759.112s.509-174.026 345.483-236.603c344.973-62.576 299.489-263.771 150.679-330.967-148.811-67.196-295.387-316.412 8.177-397.283" stroke="url(#paint18_linear)"/><path d="M-443.882 760.51s.509-174.026 345.482-236.603C246.574 461.331 201.09 260.136 52.28 192.94c-148.812-67.196-295.388-316.412 8.176-397.283" stroke="url(#paint19_linear)"/><path d="M-425.068 761.909s.509-174.027 345.482-236.603c344.974-62.577 299.49-263.771 150.68-330.967-148.811-67.196-295.482-316.523 8.176-397.283" stroke="url(#paint20_linear)"/><path d="M-406.253 763.307s.509-174.027 345.482-236.603c344.974-62.577 299.49-263.771 150.679-330.967-148.81-67.196-295.387-316.413 8.177-397.283" stroke="url(#paint21_linear)"/></g><defs><linearGradient id="paint0_linear" x1="1317.46" y1="347.413" x2="1173.16" y2="184.696" gradientUnits="userSpaceOnUse"><stop stop-color="#55B4ED"/><stop offset="1" stop-color="#fff" stop-opacity="0"/></linearGradient><linearGradient id="paint1_linear" x1="1329.43" y1="362.274" x2="1185.13" y2="199.558" gradientUnits="userSpaceOnUse"><stop stop-color="#55B4ED"/><stop offset="1" stop-color="#fff" stop-opacity="0"/></linearGradient><linearGradient id="paint2_linear" x1="1341.4" y1="377.135" x2="1197.1" y2="214.419" gradientUnits="userSpaceOnUse"><stop stop-color="#55B4ED"/><stop offset="1" stop-color="#fff" stop-opacity="0"/></linearGradient><linearGradient id="paint3_linear" x1="1403.07" y1="760.975" x2="773.596" y2="51.177" gradientUnits="userSpaceOnUse"><stop stop-color="#55B4ED"/><stop offset="1" stop-color="#fff" stop-opacity="0"/></linearGradient><linearGradient id="paint4_linear" x1="1426.07" y1="783.967" x2="796.591" y2="74.17" gradientUnits="userSpaceOnUse"><stop stop-color="#55B4ED"/><stop offset="1" stop-color="#fff" stop-opacity="0"/></linearGradient><linearGradient id="paint5_linear" x1="1449.06" y1="806.959" x2="819.586" y2="97.161" gradientUnits="userSpaceOnUse"><stop stop-color="#55B4ED"/><stop offset="1" stop-color="#fff" stop-opacity="0"/></linearGradient><linearGradient id="paint6_linear" x1="1472.06" y1="829.951" x2="842.578" y2="120.154" gradientUnits="userSpaceOnUse"><stop stop-color="#55B4ED"/><stop offset="1" stop-color="#fff" stop-opacity="0"/></linearGradient><linearGradient id="paint7_linear" x1="1495.05" y1="852.943" x2="865.573" y2="143.145" gradientUnits="userSpaceOnUse"><stop stop-color="#55B4ED"/><stop offset="1" stop-color="#fff" stop-opacity="0"/></linearGradient><linearGradient id="paint8_linear" x1="1518.05" y1="875.934" x2="888.567" y2="166.137" gradientUnits="userSpaceOnUse"><stop stop-color="#55B4ED"/><stop offset="1" stop-color="#fff" stop-opacity="0"/></linearGradient><linearGradient id="paint9_linear" x1="1541.04" y1="898.927" x2="911.56" y2="189.129" gradientUnits="userSpaceOnUse"><stop stop-color="#55B4ED"/><stop offset="1" stop-color="#fff" stop-opacity="0"/></linearGradient><linearGradient id="paint10_linear" x1="1564.03" y1="921.918" x2="934.555" y2="212.121" gradientUnits="userSpaceOnUse"><stop stop-color="#55B4ED"/><stop offset="1" stop-color="#fff" stop-opacity="0"/></linearGradient><linearGradient id="paint11_linear" x1="-119.933" y1="169.965" x2="-244.868" y2="153.106" gradientUnits="userSpaceOnUse"><stop stop-color="#414141"/><stop offset="1" stop-color="#fff" stop-opacity="0"/></linearGradient><linearGradient id="paint12_linear" x1="-109.054" y1="171.962" x2="-233.988" y2="155.103" gradientUnits="userSpaceOnUse"><stop stop-color="#414141"/><stop offset="1" stop-color="#fff" stop-opacity="0"/></linearGradient><linearGradient id="paint13_linear" x1="-98.175" y1="173.96" x2="-223.109" y2="157.101" gradientUnits="userSpaceOnUse"><stop/><stop offset="1" stop-color="#fff" stop-opacity="0"/></linearGradient><linearGradient id="paint14_linear" x1="74.136" y1="319.186" x2="-470.848" y2="245.646" gradientUnits="userSpaceOnUse"><stop/><stop offset="1" stop-color="#fff" stop-opacity="0"/></linearGradient><linearGradient id="paint15_linear" x1="92.933" y1="320.583" x2="-452.051" y2="247.043" gradientUnits="userSpaceOnUse"><stop stop-color="#414141"/><stop offset="1" stop-color="#fff" stop-opacity="0"/></linearGradient><linearGradient id="paint16_linear" x1="111.728" y1="321.98" x2="-433.256" y2="248.44" gradientUnits="userSpaceOnUse"><stop/><stop offset="1" stop-color="#fff" stop-opacity="0"/></linearGradient><linearGradient id="paint17_linear" x1="130.525" y1="323.377" x2="-414.458" y2="249.837" gradientUnits="userSpaceOnUse"><stop/><stop offset="1" stop-color="#fff" stop-opacity="0"/></linearGradient><linearGradient id="paint18_linear" x1="149.321" y1="324.774" x2="-395.662" y2="251.234" gradientUnits="userSpaceOnUse"><stop/><stop offset="1" stop-color="#fff" stop-opacity="0"/></linearGradient><linearGradient id="paint19_linear" x1="168.119" y1="326.171" x2="-376.865" y2="252.631" gradientUnits="userSpaceOnUse"><stop/><stop offset="1" stop-color="#fff" stop-opacity="0"/></linearGradient><linearGradient id="paint20_linear" x1="186.916" y1="327.568" x2="-358.068" y2="254.028" gradientUnits="userSpaceOnUse"><stop/><stop offset="1" stop-color="#fff" stop-opacity="0"/></linearGradient><linearGradient id="paint21_linear" x1="205.713" y1="328.964" x2="-339.271" y2="255.425" gradientUnits="userSpaceOnUse"><stop stop-color="#414141"/><stop offset="1" stop-color="#fff" stop-opacity="0"/></linearGradient><filter id="filter0_f" x="-629" y="491" width="1163" height="1163" filterUnits="userSpaceOnUse" color-interpolation-filters="sRGB"><feFlood flood-opacity="0" result="BackgroundImageFix"/><feBlend in="SourceGraphic" in2="BackgroundImageFix" result="shape"/><feGaussianBlur stdDeviation="150" result="effect1_foregroundBlur"/></filter><filter id="filter1_f" x="-626" y="4441" width="1163" height="1163" filterUnits="userSpaceOnUse" color-interpolation-filters="sRGB"><feFlood flood-opacity="0" result="BackgroundImageFix"/><feBlend in="SourceGraphic" in2="BackgroundImageFix" result="shape"/><feGaussianBlur stdDeviation="150" result="effect1_foregroundBlur"/></filter><filter id="filter2_f" x="929.008" y="3035" width="1163" height="1163" filterUnits="userSpaceOnUse" color-interpolation-filters="sRGB"><feFlood flood-opacity="0" result="BackgroundImageFix"/><feBlend in="SourceGraphic" in2="BackgroundImageFix" result="shape"/><feGaussianBlur stdDeviation="150" result="effect1_foregroundBlur"/></filter></defs></svg>