<svg width="451" height="1816" fill="none" xmlns="http://www.w3.org/2000/svg"><path d="M947.624 1262.24s201.516-186.36-62.953-411.718c-264.604-225.203 153.899-493.908-72.984-638.881" stroke="url(#paint0_linear)" stroke-width="1.635" stroke-miterlimit="10"/><path d="M931.944 1265.03s201.516-186.36-62.953-411.721c-264.467-225.358 153.899-493.907-72.984-638.88" stroke="url(#paint1_linear)" stroke-width="1.635" stroke-miterlimit="10"/><path d="M916.399 1267.66s201.511-186.36-62.953-411.718c-264.604-225.202 154.064-493.77-72.984-638.88" stroke="url(#paint2_linear)" stroke-width="1.635" stroke-miterlimit="10"/><path d="M1389.56 1586.74s1.48-248.77-490.858-342.6c-492.34-93.83-424.77-380.855-211.195-475.023 213.555-94.461 426.403-448.716-6.514-568.169" stroke="url(#paint3_linear)" stroke-width="1.635" stroke-miterlimit="10"/><path d="M1362.65 1588.5s1.48-248.77-490.861-342.6c-492.34-93.83-424.769-380.856-211.195-475.024 213.712-94.323 426.396-448.715-6.513-568.169" stroke="url(#paint4_linear)" stroke-width="1.635" stroke-miterlimit="10"/><path d="M1335.74 1590.26s1.48-248.77-490.863-342.6c-492.34-93.83-424.769-380.855-211.195-475.023 213.575-94.168 426.268-448.56-6.649-568.013" stroke="url(#paint5_linear)" stroke-width="1.635" stroke-miterlimit="10"/><path d="M1308.83 1592.02s1.48-248.77-490.864-342.6c-492.34-93.83-424.769-380.855-211.195-475.023 213.712-94.324 426.399-448.715-6.513-568.169" stroke="url(#paint6_linear)" stroke-width="1.635" stroke-miterlimit="10"/><path d="M1282.05 1593.63s1.48-248.78-490.859-342.6c-492.34-93.83-424.77-380.86-211.195-475.028s426.264-448.56-6.65-568.013" stroke="url(#paint7_linear)" stroke-width="1.635" stroke-miterlimit="10"/><path d="M1255.14 1595.39s1.48-248.78-490.861-342.61c-492.34-93.82-424.77-380.85-211.195-475.018 213.575-94.168 426.264-448.56-6.65-568.013" stroke="url(#paint8_linear)" stroke-width="1.635" stroke-miterlimit="10"/><path d="M1228.23 1597.15s1.48-248.78-490.864-342.61c-492.34-93.82-424.77-380.851-211.195-475.019s426.401-448.715-6.65-568.013" stroke="url(#paint9_linear)" stroke-width="1.635" stroke-miterlimit="10"/><path d="M1201.32 1598.91s1.47-248.78-490.865-342.61c-492.341-93.82-424.77-380.851-211.195-475.019 213.574-94.168 426.263-448.56-6.65-568.013" stroke="url(#paint10_linear)" stroke-width="1.635" stroke-miterlimit="10"/><defs><linearGradient id="paint0_linear" x1="799.549" y1="747.102" x2="978.354" y2="724.588" gradientUnits="userSpaceOnUse"><stop stop-color="#55B4ED"/><stop offset="1" stop-color="#fff" stop-opacity="0"/></linearGradient><linearGradient id="paint1_linear" x1="783.972" y1="749.819" x2="962.777" y2="727.305" gradientUnits="userSpaceOnUse"><stop stop-color="#55B4ED"/><stop offset="1" stop-color="#fff" stop-opacity="0"/></linearGradient><linearGradient id="paint2_linear" x1="768.395" y1="752.537" x2="947.2" y2="730.023" gradientUnits="userSpaceOnUse"><stop stop-color="#55B4ED"/><stop offset="1" stop-color="#fff" stop-opacity="0"/></linearGradient><linearGradient id="paint3_linear" x1="520.24" y1="957.95" x2="1300.22" y2="859.739" gradientUnits="userSpaceOnUse"><stop stop-color="#55B4ED"/><stop offset="1" stop-color="#fff" stop-opacity="0"/></linearGradient><linearGradient id="paint4_linear" x1="493.352" y1="959.708" x2="1273.33" y2="861.497" gradientUnits="userSpaceOnUse"><stop stop-color="#55B4ED"/><stop offset="1" stop-color="#fff" stop-opacity="0"/></linearGradient><linearGradient id="paint5_linear" x1="466.465" y1="961.467" x2="1246.44" y2="863.256" gradientUnits="userSpaceOnUse"><stop stop-color="#55B4ED"/><stop offset="1" stop-color="#fff" stop-opacity="0"/></linearGradient><linearGradient id="paint6_linear" x1="439.578" y1="963.226" x2="1219.56" y2="865.014" gradientUnits="userSpaceOnUse"><stop stop-color="#55B4ED"/><stop offset="1" stop-color="#fff" stop-opacity="0"/></linearGradient><linearGradient id="paint7_linear" x1="412.691" y1="964.985" x2="1192.67" y2="866.773" gradientUnits="userSpaceOnUse"><stop stop-color="#55B4ED"/><stop offset="1" stop-color="#fff" stop-opacity="0"/></linearGradient><linearGradient id="paint8_linear" x1="385.803" y1="966.743" x2="1165.78" y2="868.532" gradientUnits="userSpaceOnUse"><stop stop-color="#55B4ED"/><stop offset="1" stop-color="#fff" stop-opacity="0"/></linearGradient><linearGradient id="paint9_linear" x1="358.915" y1="968.501" x2="1138.89" y2="870.29" gradientUnits="userSpaceOnUse"><stop stop-color="#55B4ED"/><stop offset="1" stop-color="#fff" stop-opacity="0"/></linearGradient><linearGradient id="paint10_linear" x1="332.028" y1="970.259" x2="1112.01" y2="872.048" gradientUnits="userSpaceOnUse"><stop stop-color="#55B4ED"/><stop offset="1" stop-color="#fff" stop-opacity="0"/></linearGradient></defs></svg>