<svg width="375" height="351" fill="none" xmlns="http://www.w3.org/2000/svg"><path d="M371.135 801.552s-211.341 22.05-207.368-246.91c4.134-268.96-365.943-162.731-334.399-368.771" stroke="url(#paint0_linear)" stroke-width="1.635" stroke-miterlimit="10"/><path d="M380.767 793.855s-211.341 22.05-207.368-246.91c3.973-268.961-365.944-162.731-334.4-368.771" stroke="url(#paint1_linear)" stroke-width="1.635" stroke-miterlimit="10"/><path d="M390.239 786.155s-211.341 22.051-207.368-246.91c4.133-268.96-365.944-162.57-334.4-368.77" stroke="url(#paint2_linear)" stroke-width="1.635" stroke-miterlimit="10"/><path d="M334.2 1224.4s-145.484-126.2 51.396-460.553c196.88-334.348-4.613-441.639-168.481-365.486-164.029 75.993-478.833 18.88-327.213-293.984" stroke="url(#paint3_linear)" stroke-width="1.635" stroke-miterlimit="10"/><path d="M348.967 1209.64s-145.483-126.2 51.397-460.551c196.88-334.348-4.614-441.639-168.482-365.486C67.854 459.756-246.95 402.483-95.33 89.619" stroke="url(#paint4_linear)" stroke-width="1.635" stroke-miterlimit="10"/><path d="M363.739 1194.88s-145.483-126.2 51.397-460.547c196.88-334.348-4.614-441.639-168.482-365.486C82.786 445-232.017 387.727-80.398 74.862" stroke="url(#paint5_linear)" stroke-width="1.635" stroke-miterlimit="10"/><path d="M378.506 1180.13s-145.483-126.21 51.397-460.555c196.88-334.348-4.614-441.639-168.482-365.486-164.028 76.153-478.832 18.88-327.212-293.985" stroke="url(#paint6_linear)" stroke-width="1.635" stroke-miterlimit="10"/><path d="M393.114 1165.37s-145.483-126.2 51.397-460.553c196.88-334.348-4.614-441.639-168.482-365.486-163.867 76.153-478.671 18.88-327.052-293.984" stroke="url(#paint7_linear)" stroke-width="1.635" stroke-miterlimit="10"/><path d="M407.884 1150.61s-145.483-126.2 51.397-460.55c196.88-334.348-4.614-441.639-168.482-365.486-163.868 76.153-478.672 18.88-327.052-293.984" stroke="url(#paint8_linear)" stroke-width="1.635" stroke-miterlimit="10"/><path d="M422.654 1135.85s-145.483-126.2 51.397-460.547c196.88-334.348-4.614-441.639-168.482-365.486-163.868 76.153-478.832 18.88-327.052-293.984" stroke="url(#paint9_linear)" stroke-width="1.635" stroke-miterlimit="10"/><path d="M437.423 1121.1S291.94 994.894 488.82 660.545c196.88-334.348-4.614-441.639-168.482-365.486C156.47 371.212-158.334 313.939-6.714 1.075" stroke="url(#paint10_linear)" stroke-width="1.635" stroke-miterlimit="10"/><defs><linearGradient id="paint0_linear" x1="147.079" y1="452.299" x2="42.655" y2="544.821" gradientUnits="userSpaceOnUse"><stop stop-color="#fff"/><stop offset="1" stop-color="#fff" stop-opacity="0"/></linearGradient><linearGradient id="paint1_linear" x1="156.616" y1="444.626" x2="52.192" y2="537.148" gradientUnits="userSpaceOnUse"><stop stop-color="#fff"/><stop offset="1" stop-color="#fff" stop-opacity="0"/></linearGradient><linearGradient id="paint2_linear" x1="166.154" y1="436.951" x2="61.73" y2="529.474" gradientUnits="userSpaceOnUse"><stop stop-color="#fff"/><stop offset="1" stop-color="#fff" stop-opacity="0"/></linearGradient><linearGradient id="paint3_linear" x1="412.404" y1="397.499" x2="-43.11" y2="801.099" gradientUnits="userSpaceOnUse"><stop stop-color="#fff"/><stop offset="1" stop-color="#fff" stop-opacity="0"/></linearGradient><linearGradient id="paint4_linear" x1="427.158" y1="382.755" x2="-28.356" y2="786.355" gradientUnits="userSpaceOnUse"><stop stop-color="#fff"/><stop offset="1" stop-color="#fff" stop-opacity="0"/></linearGradient><linearGradient id="paint5_linear" x1="441.916" y1="368.012" x2="-13.597" y2="771.612" gradientUnits="userSpaceOnUse"><stop stop-color="#fff"/><stop offset="1" stop-color="#fff" stop-opacity="0"/></linearGradient><linearGradient id="paint6_linear" x1="456.67" y1="353.268" x2="1.156" y2="756.868" gradientUnits="userSpaceOnUse"><stop stop-color="#fff"/><stop offset="1" stop-color="#fff" stop-opacity="0"/></linearGradient><linearGradient id="paint7_linear" x1="471.425" y1="338.523" x2="15.911" y2="742.123" gradientUnits="userSpaceOnUse"><stop stop-color="#fff"/><stop offset="1" stop-color="#fff" stop-opacity="0"/></linearGradient><linearGradient id="paint8_linear" x1="486.181" y1="323.78" x2="30.667" y2="727.38" gradientUnits="userSpaceOnUse"><stop stop-color="#fff"/><stop offset="1" stop-color="#fff" stop-opacity="0"/></linearGradient><linearGradient id="paint9_linear" x1="500.937" y1="309.037" x2="45.424" y2="712.637" gradientUnits="userSpaceOnUse"><stop stop-color="#fff"/><stop offset="1" stop-color="#fff" stop-opacity="0"/></linearGradient><linearGradient id="paint10_linear" x1="515.693" y1="294.292" x2="60.179" y2="697.892" gradientUnits="userSpaceOnUse"><stop stop-color="#fff"/><stop offset="1" stop-color="#fff" stop-opacity="0"/></linearGradient></defs></svg>