<svg width="808" height="516" fill="none" xmlns="http://www.w3.org/2000/svg"><path d="M694.634 1111.15s-277.198 75.44-330.461-284.306c-53.049-359.783-523.725-137.455-526.498-419.25" stroke="url(#paint0_linear)" stroke-width="1.635" stroke-miterlimit="10"/><path d="M705.81 1098.78s-277.198 75.44-330.461-284.305C322.086 454.727-148.376 677.02-151.15 395.225" stroke="url(#paint1_linear)" stroke-width="1.635" stroke-miterlimit="10"/><path d="M716.772 1086.45s-277.198 75.44-330.461-284.31c-53.049-359.783-523.69-137.241-526.499-419.25" stroke="url(#paint2_linear)" stroke-width="1.635" stroke-miterlimit="10"/><path d="M737.422 1683.41s-221.604-136.72-31.702-625.72c189.901-488.999-102.321-588.287-304.394-450.993C199.005 743.813-233.485 736.152-99.298 285.672" stroke="url(#paint3_linear)" stroke-width="1.635" stroke-miterlimit="10"/><path d="M753.913 1660.5s-221.603-136.71-31.702-625.72C912.112 545.783 619.89 446.495 417.818 583.79 215.531 721.12-216.994 713.245-82.807 262.765" stroke="url(#paint4_linear)" stroke-width="1.635" stroke-miterlimit="10"/><path d="M770.411 1637.6s-221.603-136.72-31.702-625.72c189.902-489.004-102.321-588.292-304.393-450.997-202.073 137.294-634.597 129.42-500.41-321.06" stroke="url(#paint5_linear)" stroke-width="1.635" stroke-miterlimit="10"/><path d="M786.901 1614.69s-221.603-136.72-31.702-625.72c189.902-489.001-102.32-588.289-304.393-450.994-202.287 137.33-634.811 129.455-500.625-321.025" stroke="url(#paint6_linear)" stroke-width="1.635" stroke-miterlimit="10"/><path d="M803.18 1591.82s-221.603-136.72-31.701-625.723C961.38 477.095 669.158 377.808 467.085 515.102 265.013 652.397-167.512 644.523-33.325 194.043" stroke="url(#paint7_linear)" stroke-width="1.635" stroke-miterlimit="10"/><path d="M819.675 1568.91s-221.604-136.72-31.702-625.719c189.901-489.002-102.321-588.29-304.393-450.995-202.073 137.295-634.598 129.42-500.41-321.06" stroke="url(#paint8_linear)" stroke-width="1.635" stroke-miterlimit="10"/><path d="M836.17 1546s-221.604-136.71-31.702-625.716C994.369 431.283 702.147 331.995 500.075 469.29 298.002 606.584-134.737 598.745-.335 148.23" stroke="url(#paint9_linear)" stroke-width="1.635" stroke-miterlimit="10"/><path d="M852.663 1523.1s-221.603-136.72-31.702-625.724C1010.86 408.375 718.64 309.087 516.568 446.381 314.495 583.676-118.029 575.802 16.158 125.322" stroke="url(#paint10_linear)" stroke-width="1.635" stroke-miterlimit="10"/><defs><linearGradient id="paint0_linear" x1="319.62" y1="693.918" x2="200.43" y2="840.112" gradientUnits="userSpaceOnUse"><stop stop-color="#fff"/><stop offset="1" stop-color="#fff" stop-opacity="0"/></linearGradient><linearGradient id="paint1_linear" x1="330.675" y1="681.602" x2="211.485" y2="827.796" gradientUnits="userSpaceOnUse"><stop stop-color="#fff"/><stop offset="1" stop-color="#fff" stop-opacity="0"/></linearGradient><linearGradient id="paint2_linear" x1="341.73" y1="669.285" x2="222.541" y2="815.479" gradientUnits="userSpaceOnUse"><stop stop-color="#fff"/><stop offset="1" stop-color="#fff" stop-opacity="0"/></linearGradient><linearGradient id="paint3_linear" x1="661.719" y1="563.024" x2="141.793" y2="1200.75" gradientUnits="userSpaceOnUse"><stop stop-color="#fff"/><stop offset="1" stop-color="#fff" stop-opacity="0"/></linearGradient><linearGradient id="paint4_linear" x1="678.195" y1="540.138" x2="158.269" y2="1177.86" gradientUnits="userSpaceOnUse"><stop stop-color="#fff"/><stop offset="1" stop-color="#fff" stop-opacity="0"/></linearGradient><linearGradient id="paint5_linear" x1="694.678" y1="517.251" x2="174.753" y2="1154.97" gradientUnits="userSpaceOnUse"><stop stop-color="#fff"/><stop offset="1" stop-color="#fff" stop-opacity="0"/></linearGradient><linearGradient id="paint6_linear" x1="711.154" y1="494.366" x2="191.228" y2="1132.09" gradientUnits="userSpaceOnUse"><stop stop-color="#fff"/><stop offset="1" stop-color="#fff" stop-opacity="0"/></linearGradient><linearGradient id="paint7_linear" x1="727.632" y1="471.478" x2="207.706" y2="1109.2" gradientUnits="userSpaceOnUse"><stop stop-color="#fff"/><stop offset="1" stop-color="#fff" stop-opacity="0"/></linearGradient><linearGradient id="paint8_linear" x1="744.111" y1="448.593" x2="224.185" y2="1086.32" gradientUnits="userSpaceOnUse"><stop stop-color="#fff"/><stop offset="1" stop-color="#fff" stop-opacity="0"/></linearGradient><linearGradient id="paint9_linear" x1="760.591" y1="425.708" x2="240.665" y2="1063.43" gradientUnits="userSpaceOnUse"><stop stop-color="#fff"/><stop offset="1" stop-color="#fff" stop-opacity="0"/></linearGradient><linearGradient id="paint10_linear" x1="777.069" y1="402.82" x2="257.143" y2="1040.54" gradientUnits="userSpaceOnUse"><stop stop-color="#fff"/><stop offset="1" stop-color="#fff" stop-opacity="0"/></linearGradient></defs></svg>