<svg width="97" height="112" viewBox="0 0 97 112" fill="none" xmlns="http://www.w3.org/2000/svg">
<g filter="url(#filter0_f_4520_12803)">
<path d="M40.6705 27.6869C40.6705 26.3588 40.6705 25.1166 40.6705 23.8744C40.6705 21.853 41.7735 20.755 43.7866 20.7522C47.2337 20.7522 50.6808 20.7522 54.1279 20.7522C56.0941 20.7522 57.2054 21.8613 57.2192 23.8383C57.2192 25.0389 57.2192 26.2423 57.2192 27.4429C57.2295 27.5232 57.2443 27.6028 57.2634 27.6814H57.9693C60.5422 27.6814 63.1179 27.6814 65.6908 27.6814C72.0693 27.7091 76.9062 32.5338 76.9255 38.9556C76.9503 48.1751 76.9255 57.3946 76.9255 66.6141C76.9255 68.7575 75.2434 70.13 73.3571 69.556C72.8364 69.3986 72.3744 69.0882 72.0305 68.6647C71.6865 68.2413 71.4763 67.7242 71.4268 67.1798C71.3992 66.8803 71.4074 66.5781 71.4074 66.2786C71.4074 57.2449 71.4074 48.2102 71.4074 39.1746C71.4074 36.2854 69.9266 34.2169 67.3316 33.4516C67.0031 33.3451 66.6617 33.2845 66.3168 33.2713C63.3109 33.2547 60.305 33.2713 57.1999 33.2713C57.4122 36.3769 56.5684 39.0942 54.1031 41.0989C52.5647 42.3832 50.6008 43.0358 48.6043 42.9262C47.428 42.8906 46.2736 42.5975 45.2215 42.0674C44.1694 41.5373 43.245 40.7829 42.5126 39.8567C40.9517 37.9574 40.5022 35.6975 40.6815 33.2381H38.7511C36.6139 33.2381 34.4767 33.2381 32.3395 33.2381C28.8097 33.2381 26.4712 35.6005 26.4685 39.1552C26.4685 52.8583 26.4685 66.5605 26.4685 80.2618C26.4685 83.8525 28.8097 86.1928 32.3947 86.1928H65.4867C68.385 86.1928 70.4753 84.6733 71.1951 82.0336C71.309 81.5398 71.38 81.0369 71.4074 80.5307C71.5536 78.9336 72.7863 77.8106 74.303 77.891C74.6656 77.9105 75.0207 78.0018 75.3481 78.1596C75.6755 78.3175 75.9687 78.5388 76.2109 78.8108C76.453 79.0829 76.6393 79.4003 76.7591 79.745C76.8789 80.0896 76.9298 80.4546 76.909 80.8191C76.7656 84.7398 75.0696 87.8148 71.8156 89.9859C70.0816 91.1468 68.0413 91.7582 65.9583 91.7411C54.6049 91.7411 43.2516 91.7827 31.901 91.7411C30.4648 91.744 29.0421 91.4618 27.7146 90.9107C26.387 90.3596 25.1808 89.5504 24.1649 88.5295C23.1491 87.5086 22.3437 86.2961 21.7949 84.9616C21.2461 83.627 20.9647 82.1967 20.9669 80.7526C20.9173 66.7278 20.9173 52.7021 20.9669 38.6755C20.989 32.6003 25.8204 27.8117 31.8625 27.7147C34.7608 27.6509 37.6563 27.6869 40.6705 27.6869ZM46.2051 26.3338C46.2051 29.2203 46.2051 32.0541 46.2051 34.8879C46.2254 35.2321 46.3195 35.5679 46.4808 35.8722C46.7506 36.4126 47.1907 36.848 47.7325 37.1104C48.2743 37.3727 48.8873 37.4473 49.4757 37.3224C50.1023 37.1938 50.665 36.8502 51.0674 36.3505C51.4699 35.8507 51.6871 35.2259 51.6818 34.5829C51.7149 32.8083 51.6818 31.0309 51.6818 29.2536V26.3338H46.2051Z" fill="#15F2FD"/>
<path d="M46.9474 76.7653C44.6695 76.7514 42.946 76.0776 41.5341 74.6995C39.1294 72.3482 36.7394 69.9775 34.3641 67.5873C33.2445 66.4588 33.1783 64.9255 34.1297 63.772C34.5524 63.2612 35.1458 62.9231 35.7987 62.821C36.4516 62.7189 37.1192 62.8599 37.6761 63.2174C37.9759 63.4274 38.2531 63.668 38.5034 63.9356C40.6783 66.0891 42.8513 68.2482 45.0225 70.4128C46.2138 71.5968 47.1101 71.5219 48.056 70.1549C51.9314 64.5428 55.8068 58.9298 59.6823 53.3158C60.5647 52.0431 61.6678 51.5884 62.9198 51.9599C63.305 52.0737 63.6607 52.2712 63.9617 52.5384C64.2626 52.8057 64.5015 53.1361 64.6614 53.5064C64.8214 53.8767 64.8984 54.2778 64.8872 54.6814C64.876 55.0849 64.7767 55.4811 64.5965 55.8418C64.4789 56.066 64.3462 56.2819 64.1993 56.4879C60.2338 62.2368 56.2656 67.982 52.2945 73.7235C51.6993 74.6132 50.9062 75.3512 49.9781 75.8792C49.05 76.4072 48.0124 76.7105 46.9474 76.7653Z" fill="#15F2FD"/>
</g>
<g filter="url(#filter1_f_4520_12803)">
<path d="M40.6705 27.6869C40.6705 26.3588 40.6705 25.1166 40.6705 23.8744C40.6705 21.853 41.7735 20.755 43.7866 20.7522C47.2337 20.7522 50.6808 20.7522 54.1279 20.7522C56.0941 20.7522 57.2054 21.8613 57.2192 23.8383C57.2192 25.0389 57.2192 26.2423 57.2192 27.4429C57.2295 27.5232 57.2443 27.6028 57.2634 27.6814H57.9693C60.5422 27.6814 63.1179 27.6814 65.6908 27.6814C72.0693 27.7091 76.9062 32.5338 76.9255 38.9556C76.9503 48.1751 76.9255 57.3946 76.9255 66.6141C76.9255 68.7575 75.2434 70.13 73.3571 69.556C72.8364 69.3986 72.3744 69.0882 72.0305 68.6647C71.6865 68.2413 71.4763 67.7242 71.4268 67.1798C71.3992 66.8803 71.4074 66.5781 71.4074 66.2786C71.4074 57.2449 71.4074 48.2102 71.4074 39.1746C71.4074 36.2854 69.9266 34.2169 67.3316 33.4516C67.0031 33.3451 66.6617 33.2845 66.3168 33.2713C63.3109 33.2547 60.305 33.2713 57.1999 33.2713C57.4122 36.3769 56.5684 39.0942 54.1031 41.0989C52.5647 42.3832 50.6008 43.0358 48.6043 42.9262C47.428 42.8906 46.2736 42.5975 45.2215 42.0674C44.1694 41.5373 43.245 40.7829 42.5126 39.8567C40.9517 37.9574 40.5022 35.6975 40.6815 33.2381H38.7511C36.6139 33.2381 34.4767 33.2381 32.3395 33.2381C28.8097 33.2381 26.4712 35.6005 26.4685 39.1552C26.4685 52.8583 26.4685 66.5605 26.4685 80.2618C26.4685 83.8525 28.8097 86.1928 32.3947 86.1928H65.4867C68.385 86.1928 70.4753 84.6733 71.1951 82.0336C71.309 81.5398 71.38 81.0369 71.4074 80.5307C71.5536 78.9336 72.7863 77.8106 74.303 77.891C74.6656 77.9105 75.0207 78.0018 75.3481 78.1596C75.6755 78.3175 75.9687 78.5388 76.2109 78.8108C76.453 79.0829 76.6393 79.4003 76.7591 79.745C76.8789 80.0896 76.9298 80.4546 76.909 80.8191C76.7656 84.7398 75.0696 87.8148 71.8156 89.9859C70.0816 91.1468 68.0413 91.7582 65.9583 91.7411C54.6049 91.7411 43.2516 91.7827 31.901 91.7411C30.4648 91.744 29.0421 91.4618 27.7146 90.9107C26.387 90.3596 25.1808 89.5504 24.1649 88.5295C23.1491 87.5086 22.3437 86.2961 21.7949 84.9616C21.2461 83.627 20.9647 82.1967 20.9669 80.7526C20.9173 66.7278 20.9173 52.7021 20.9669 38.6755C20.989 32.6003 25.8204 27.8117 31.8625 27.7147C34.7608 27.6509 37.6563 27.6869 40.6705 27.6869ZM46.2051 26.3338C46.2051 29.2203 46.2051 32.0541 46.2051 34.8879C46.2254 35.2321 46.3195 35.5679 46.4808 35.8722C46.7506 36.4126 47.1907 36.848 47.7325 37.1104C48.2743 37.3727 48.8873 37.4473 49.4757 37.3224C50.1023 37.1938 50.665 36.8502 51.0674 36.3505C51.4699 35.8507 51.6871 35.2259 51.6818 34.5829C51.7149 32.8083 51.6818 31.0309 51.6818 29.2536V26.3338H46.2051Z" fill="#15F2FD"/>
<path d="M46.9474 76.7653C44.6695 76.7514 42.946 76.0776 41.5341 74.6995C39.1294 72.3482 36.7394 69.9775 34.3641 67.5873C33.2445 66.4588 33.1783 64.9255 34.1297 63.772C34.5524 63.2612 35.1458 62.9231 35.7987 62.821C36.4516 62.7189 37.1192 62.8599 37.6761 63.2174C37.9759 63.4274 38.2531 63.668 38.5034 63.9356C40.6783 66.0891 42.8513 68.2482 45.0225 70.4128C46.2138 71.5968 47.1101 71.5219 48.056 70.1549C51.9314 64.5428 55.8068 58.9298 59.6823 53.3158C60.5647 52.0431 61.6678 51.5884 62.9198 51.9599C63.305 52.0737 63.6607 52.2712 63.9617 52.5384C64.2626 52.8057 64.5015 53.1361 64.6614 53.5064C64.8214 53.8767 64.8984 54.2778 64.8872 54.6814C64.876 55.0849 64.7767 55.4811 64.5965 55.8418C64.4789 56.066 64.3462 56.2819 64.1993 56.4879C60.2338 62.2368 56.2656 67.982 52.2945 73.7235C51.6993 74.6132 50.9062 75.3512 49.9781 75.8792C49.05 76.4072 48.0124 76.7105 46.9474 76.7653Z" fill="#15F2FD"/>
</g>
<g filter="url(#filter2_f_4520_12803)">
<path d="M40.6705 27.6869C40.6705 26.3588 40.6705 25.1166 40.6705 23.8744C40.6705 21.853 41.7735 20.755 43.7866 20.7522C47.2337 20.7522 50.6808 20.7522 54.1279 20.7522C56.0941 20.7522 57.2054 21.8613 57.2192 23.8383C57.2192 25.0389 57.2192 26.2423 57.2192 27.4429C57.2295 27.5232 57.2443 27.6028 57.2634 27.6814H57.9693C60.5422 27.6814 63.1179 27.6814 65.6908 27.6814C72.0693 27.7091 76.9062 32.5338 76.9255 38.9556C76.9503 48.1751 76.9255 57.3946 76.9255 66.6141C76.9255 68.7575 75.2434 70.13 73.3571 69.556C72.8364 69.3986 72.3744 69.0882 72.0305 68.6647C71.6865 68.2413 71.4763 67.7242 71.4268 67.1798C71.3992 66.8803 71.4074 66.5781 71.4074 66.2786C71.4074 57.2449 71.4074 48.2102 71.4074 39.1746C71.4074 36.2854 69.9266 34.2169 67.3316 33.4516C67.0031 33.3451 66.6617 33.2845 66.3168 33.2713C63.3109 33.2547 60.305 33.2713 57.1999 33.2713C57.4122 36.3769 56.5684 39.0942 54.1031 41.0989C52.5647 42.3832 50.6008 43.0358 48.6043 42.9262C47.428 42.8906 46.2736 42.5975 45.2215 42.0674C44.1694 41.5373 43.245 40.7829 42.5126 39.8567C40.9517 37.9574 40.5022 35.6975 40.6815 33.2381H38.7511C36.6139 33.2381 34.4767 33.2381 32.3395 33.2381C28.8097 33.2381 26.4712 35.6005 26.4685 39.1552C26.4685 52.8583 26.4685 66.5605 26.4685 80.2618C26.4685 83.8525 28.8097 86.1928 32.3947 86.1928H65.4867C68.385 86.1928 70.4753 84.6733 71.1951 82.0336C71.309 81.5398 71.38 81.0369 71.4074 80.5307C71.5536 78.9336 72.7863 77.8106 74.303 77.891C74.6656 77.9105 75.0207 78.0018 75.3481 78.1596C75.6755 78.3175 75.9687 78.5388 76.2109 78.8108C76.453 79.0829 76.6393 79.4003 76.7591 79.745C76.8789 80.0896 76.9298 80.4546 76.909 80.8191C76.7656 84.7398 75.0696 87.8148 71.8156 89.9859C70.0816 91.1468 68.0413 91.7582 65.9583 91.7411C54.6049 91.7411 43.2516 91.7827 31.901 91.7411C30.4648 91.744 29.0421 91.4618 27.7146 90.9107C26.387 90.3596 25.1808 89.5504 24.1649 88.5295C23.1491 87.5086 22.3437 86.2961 21.7949 84.9616C21.2461 83.627 20.9647 82.1967 20.9669 80.7526C20.9173 66.7278 20.9173 52.7021 20.9669 38.6755C20.989 32.6003 25.8204 27.8117 31.8625 27.7147C34.7608 27.6509 37.6563 27.6869 40.6705 27.6869ZM46.2051 26.3338C46.2051 29.2203 46.2051 32.0541 46.2051 34.8879C46.2254 35.2321 46.3195 35.5679 46.4808 35.8722C46.7506 36.4126 47.1907 36.848 47.7325 37.1104C48.2743 37.3727 48.8873 37.4473 49.4757 37.3224C50.1023 37.1938 50.665 36.8502 51.0674 36.3505C51.4699 35.8507 51.6871 35.2259 51.6818 34.5829C51.7149 32.8083 51.6818 31.0309 51.6818 29.2536V26.3338H46.2051Z" fill="#15F2FD"/>
<path d="M46.9474 76.7653C44.6695 76.7514 42.946 76.0776 41.5341 74.6995C39.1294 72.3482 36.7394 69.9775 34.3641 67.5873C33.2445 66.4588 33.1783 64.9255 34.1297 63.772C34.5524 63.2612 35.1458 62.9231 35.7987 62.821C36.4516 62.7189 37.1192 62.8599 37.6761 63.2174C37.9759 63.4274 38.2531 63.668 38.5034 63.9356C40.6783 66.0891 42.8513 68.2482 45.0225 70.4128C46.2138 71.5968 47.1101 71.5219 48.056 70.1549C51.9314 64.5428 55.8068 58.9298 59.6823 53.3158C60.5647 52.0431 61.6678 51.5884 62.9198 51.9599C63.305 52.0737 63.6607 52.2712 63.9617 52.5384C64.2626 52.8057 64.5015 53.1361 64.6614 53.5064C64.8214 53.8767 64.8984 54.2778 64.8872 54.6814C64.876 55.0849 64.7767 55.4811 64.5965 55.8418C64.4789 56.066 64.3462 56.2819 64.1993 56.4879C60.2338 62.2368 56.2656 67.982 52.2945 73.7235C51.6993 74.6132 50.9062 75.3512 49.9781 75.8792C49.05 76.4072 48.0124 76.7105 46.9474 76.7653Z" fill="#15F2FD"/>
</g>
<g filter="url(#filter3_d_4520_12803)">
<path d="M40.6705 27.6869C40.6705 26.3588 40.6705 25.1166 40.6705 23.8744C40.6705 21.853 41.7735 20.755 43.7866 20.7522C47.2337 20.7522 50.6808 20.7522 54.1279 20.7522C56.0941 20.7522 57.2054 21.8613 57.2192 23.8383C57.2192 25.0389 57.2192 26.2423 57.2192 27.4429C57.2295 27.5232 57.2443 27.6028 57.2634 27.6814H57.9693C60.5422 27.6814 63.1179 27.6814 65.6908 27.6814C72.0693 27.7091 76.9062 32.5338 76.9255 38.9556C76.9503 48.1751 76.9255 57.3946 76.9255 66.6141C76.9255 68.7575 75.2434 70.13 73.3571 69.556C72.8364 69.3986 72.3744 69.0882 72.0305 68.6647C71.6865 68.2413 71.4763 67.7242 71.4268 67.1798C71.3992 66.8803 71.4074 66.5781 71.4074 66.2786C71.4074 57.2449 71.4074 48.2102 71.4074 39.1746C71.4074 36.2854 69.9266 34.2169 67.3316 33.4516C67.0031 33.3451 66.6617 33.2845 66.3168 33.2713C63.3109 33.2547 60.305 33.2713 57.1999 33.2713C57.4122 36.3769 56.5684 39.0942 54.1031 41.0989C52.5647 42.3832 50.6008 43.0358 48.6043 42.9262C47.428 42.8906 46.2736 42.5975 45.2215 42.0674C44.1694 41.5373 43.245 40.7829 42.5126 39.8567C40.9517 37.9574 40.5022 35.6975 40.6815 33.2381H38.7511C36.6139 33.2381 34.4767 33.2381 32.3395 33.2381C28.8097 33.2381 26.4712 35.6005 26.4685 39.1552C26.4685 52.8583 26.4685 66.5605 26.4685 80.2618C26.4685 83.8525 28.8097 86.1928 32.3947 86.1928H65.4867C68.385 86.1928 70.4753 84.6733 71.1951 82.0336C71.309 81.5398 71.38 81.0369 71.4074 80.5307C71.5536 78.9336 72.7863 77.8106 74.303 77.891C74.6656 77.9105 75.0207 78.0018 75.3481 78.1596C75.6755 78.3175 75.9687 78.5388 76.2109 78.8108C76.453 79.0829 76.6393 79.4003 76.7591 79.745C76.8789 80.0896 76.9298 80.4546 76.909 80.8191C76.7656 84.7398 75.0696 87.8148 71.8156 89.9859C70.0816 91.1468 68.0413 91.7582 65.9583 91.7411C54.6049 91.7411 43.2516 91.7827 31.901 91.7411C30.4648 91.744 29.0421 91.4618 27.7146 90.9107C26.387 90.3596 25.1808 89.5504 24.1649 88.5295C23.1491 87.5086 22.3437 86.2961 21.7949 84.9616C21.2461 83.627 20.9647 82.1967 20.9669 80.7526C20.9173 66.7278 20.9173 52.7021 20.9669 38.6755C20.989 32.6003 25.8204 27.8117 31.8625 27.7147C34.7608 27.6509 37.6563 27.6869 40.6705 27.6869ZM46.2051 26.3338C46.2051 29.2203 46.2051 32.0541 46.2051 34.8879C46.2254 35.2321 46.3195 35.5679 46.4808 35.8722C46.7506 36.4126 47.1907 36.848 47.7325 37.1104C48.2743 37.3727 48.8873 37.4473 49.4757 37.3224C50.1023 37.1938 50.665 36.8502 51.0674 36.3505C51.4699 35.8507 51.6871 35.2259 51.6818 34.5829C51.7149 32.8083 51.6818 31.0309 51.6818 29.2536V26.3338H46.2051Z" fill="white"/>
<path d="M46.9474 76.7653C44.6695 76.7514 42.946 76.0776 41.5341 74.6995C39.1294 72.3482 36.7394 69.9775 34.3641 67.5873C33.2445 66.4588 33.1783 64.9255 34.1297 63.772C34.5524 63.2612 35.1458 62.9231 35.7987 62.821C36.4516 62.7189 37.1192 62.8599 37.6761 63.2174C37.9759 63.4274 38.2531 63.668 38.5034 63.9356C40.6783 66.0891 42.8513 68.2482 45.0225 70.4128C46.2138 71.5968 47.1101 71.5219 48.056 70.1549C51.9314 64.5428 55.8068 58.9298 59.6823 53.3158C60.5647 52.0431 61.6678 51.5884 62.9198 51.9599C63.305 52.0737 63.6607 52.2712 63.9617 52.5384C64.2626 52.8057 64.5015 53.1361 64.6614 53.5064C64.8214 53.8767 64.8984 54.2778 64.8872 54.6814C64.876 55.0849 64.7767 55.4811 64.5965 55.8418C64.4789 56.066 64.3462 56.2819 64.1993 56.4879C60.2338 62.2368 56.2656 67.982 52.2945 73.7235C51.6993 74.6132 50.9062 75.3512 49.9781 75.8792C49.05 76.4072 48.0124 76.7105 46.9474 76.7653Z" fill="white"/>
</g>
<defs>
<filter id="filter0_f_4520_12803" x="0.929688" y="0.752197" width="96.0068" height="111.007" filterUnits="userSpaceOnUse" color-interpolation-filters="sRGB">
<feFlood flood-opacity="0" result="BackgroundImageFix"/>
<feBlend mode="normal" in="SourceGraphic" in2="BackgroundImageFix" result="shape"/>
<feGaussianBlur stdDeviation="10" result="effect1_foregroundBlur_4520_12803"/>
</filter>
<filter id="filter1_f_4520_12803" x="10.9297" y="10.7522" width="76.0068" height="91.0073" filterUnits="userSpaceOnUse" color-interpolation-filters="sRGB">
<feFlood flood-opacity="0" result="BackgroundImageFix"/>
<feBlend mode="normal" in="SourceGraphic" in2="BackgroundImageFix" result="shape"/>
<feGaussianBlur stdDeviation="5" result="effect1_foregroundBlur_4520_12803"/>
</filter>
<filter id="filter2_f_4520_12803" x="15.9297" y="15.7522" width="66.0068" height="81.0073" filterUnits="userSpaceOnUse" color-interpolation-filters="sRGB">
<feFlood flood-opacity="0" result="BackgroundImageFix"/>
<feBlend mode="normal" in="SourceGraphic" in2="BackgroundImageFix" result="shape"/>
<feGaussianBlur stdDeviation="2.5" result="effect1_foregroundBlur_4520_12803"/>
</filter>
<filter id="filter3_d_4520_12803" x="16.9297" y="20.7522" width="64.0068" height="79.0073" filterUnits="userSpaceOnUse" color-interpolation-filters="sRGB">
<feFlood flood-opacity="0" result="BackgroundImageFix"/>
<feColorMatrix in="SourceAlpha" type="matrix" values="0 0 0 0 0 0 0 0 0 0 0 0 0 0 0 0 0 0 127 0" result="hardAlpha"/>
<feOffset dy="4"/>
<feGaussianBlur stdDeviation="2"/>
<feComposite in2="hardAlpha" operator="out"/>
<feColorMatrix type="matrix" values="0 0 0 0 0 0 0 0 0 0 0 0 0 0 0 0 0 0 0.25 0"/>
<feBlend mode="normal" in2="BackgroundImageFix" result="effect1_dropShadow_4520_12803"/>
<feBlend mode="normal" in="SourceGraphic" in2="effect1_dropShadow_4520_12803" result="shape"/>
</filter>
</defs>
</svg>
