<svg width="107" height="107" viewBox="0 0 107 107" fill="none" xmlns="http://www.w3.org/2000/svg">
<g filter="url(#filter0_f_4522_15507)">
<path d="M50.5261 51.05H65.4487C70.5355 51.05 74.5854 53.7969 76.5097 58.511C76.6219 58.7467 76.8191 58.9312 77.0617 59.0273C79.5329 59.9128 81.1116 62.0582 81.109 64.5779C81.1064 67.0975 79.5355 69.2248 77.0463 70.1181C76.8043 70.2207 76.6105 70.4118 76.5046 70.6525C74.6215 75.2995 70.5587 78.0773 65.5622 78.1031C63.5656 78.1031 61.569 78.1161 59.5725 78.1031C59.4087 78.0791 59.2416 78.1132 59.1003 78.1995C58.959 78.2858 58.8523 78.4188 58.7986 78.5756C57.7359 80.7597 55.9611 81.9601 53.5364 81.9601C51.1116 81.9601 49.3395 80.7519 48.2741 78.5704C48.2288 78.4227 48.1334 78.2955 48.0044 78.2106C47.8753 78.1258 47.7208 78.0887 47.5673 78.1057C46.1924 78.129 44.8201 78.1212 43.4401 78.1057C42.2148 78.1057 41.3223 77.2538 41.3455 76.1411C41.3687 75.0284 42.238 74.2487 43.4375 74.241C44.8124 74.241 46.1847 74.241 47.5647 74.241C47.7075 74.2653 47.8542 74.2384 47.9792 74.1653C48.1042 74.0921 48.1995 73.9772 48.2483 73.8408C49.2956 71.6154 51.0703 70.3917 53.5312 70.3892C55.9921 70.3866 57.7668 71.6051 58.8218 73.8253C58.868 73.9624 58.9605 74.0789 59.0835 74.1548C59.2065 74.2307 59.352 74.2612 59.4951 74.241C61.6438 74.2255 63.7926 74.2926 65.9439 74.2152C68.8278 74.1093 70.9921 72.7333 72.4444 70.242C72.5195 70.0946 72.5858 69.9429 72.643 69.7876C68.459 67.3764 68.5157 61.7303 72.6585 59.3474C72.2724 58.4607 71.7119 57.6608 71.0103 56.9955C70.3088 56.3302 69.4806 55.8131 68.5751 55.4749C67.696 55.1346 66.7649 54.9486 65.8227 54.925C60.8648 54.8708 55.9044 54.9044 50.9465 54.8889C50.7916 54.8757 50.6368 54.9154 50.5075 55.0017C50.3781 55.088 50.2819 55.2157 50.2346 55.3639C49.1641 57.5222 47.3971 58.6994 45.0007 58.6968C42.6043 58.6943 40.8373 57.5248 39.7642 55.3665C39.7129 55.2207 39.6176 55.0944 39.4914 55.0051C39.3653 54.9159 39.2145 54.868 39.06 54.8683C32.8459 54.37 28.3059 49.4468 28.3034 43.2069C28.3034 41.3404 28.2518 39.4609 28.4452 37.6099C28.9611 32.6195 33.434 28.2152 38.4435 27.8564C41.4125 27.6447 44.4048 27.7454 47.3868 27.7299C47.8666 27.7299 48.1194 27.6241 48.3541 27.149C49.4143 25.0166 51.1916 23.8781 53.5596 23.8832C55.9276 23.8884 57.6868 25.0424 58.7548 27.1723C58.9714 27.6008 59.1907 27.766 59.6679 27.7325C60.3554 27.6975 61.0441 27.6975 61.7316 27.7325C62.9207 27.7686 63.7565 28.6154 63.7307 29.7229C63.7049 30.8305 62.8717 31.5817 61.6954 31.5946C60.9448 31.5946 60.1916 31.5714 59.4409 31.6127C59.3271 31.6268 59.2178 31.6662 59.121 31.7278C59.0242 31.7894 58.9422 31.8718 58.8812 31.969C57.8003 34.1737 56.072 35.4284 53.6009 35.4465C51.0755 35.462 49.3033 34.2099 48.2096 31.9483C48.1654 31.862 48.1023 31.7868 48.0251 31.7282C47.9478 31.6697 47.8584 31.6293 47.7634 31.6101C44.7788 31.6101 41.784 31.4991 38.8176 31.7263C35.2397 32.0025 32.3507 35.1625 32.201 38.7484C32.0904 40.6985 32.1283 42.6541 32.3145 44.5984C32.6886 47.9727 35.6679 50.7015 39.0807 50.9803C39.1925 50.9757 39.3018 50.9448 39.3995 50.8901C39.4972 50.8354 39.5806 50.7584 39.643 50.6653C40.7522 48.3831 42.5372 47.113 45.0936 47.1491C47.6499 47.1852 49.3936 48.5225 50.4151 50.8409C50.4484 50.9125 50.4854 50.9823 50.5261 51.05ZM53.5467 31.605C53.7992 31.6056 54.0493 31.5565 54.2827 31.4602C54.5161 31.364 54.7283 31.2226 54.9071 31.0442C55.0858 30.8658 55.2277 30.6538 55.3244 30.4204C55.4212 30.1871 55.471 29.9369 55.471 29.6842C55.4617 29.1745 55.2551 28.6883 54.8947 28.3281C54.5343 27.9679 54.0482 27.7617 53.5389 27.7531C53.0299 27.7644 52.545 27.9727 52.1862 28.3342C51.8274 28.6958 51.6225 29.1824 51.6146 29.6919C51.618 30.2018 51.8233 30.6896 52.1855 31.0482C52.5477 31.4068 53.0372 31.607 53.5467 31.605ZM53.5261 78.1109C54.0355 78.109 54.5241 77.9079 54.8875 77.5505C55.2509 77.1931 55.4603 76.7077 55.471 76.1979C55.4698 75.6878 55.269 75.1984 54.9118 74.8346C54.5545 74.4708 54.0692 74.2614 53.5596 74.2513C53.0505 74.2532 52.5624 74.454 52.1991 74.8108C51.8357 75.1677 51.6261 75.6524 51.6146 76.1617C51.6172 76.6717 51.8182 77.1605 52.1751 77.5245C52.5321 77.8884 53.0167 78.0988 53.5261 78.1109ZM77.2397 64.6037C77.2392 64.094 77.0394 63.6048 76.6832 63.2405C76.327 62.8763 75.8426 62.666 75.3334 62.6545C74.824 62.6531 74.3344 62.852 73.9701 63.2083C73.6059 63.5647 73.3961 64.0501 73.3859 64.5598C73.3844 65.0699 73.5831 65.5601 73.9391 65.9251C74.2951 66.2901 74.7801 66.5007 75.2896 66.5115C75.7989 66.5103 76.2876 66.3103 76.6518 65.954C77.016 65.5977 77.227 65.1132 77.2397 64.6037ZM45.0471 51.019C44.7951 51.0104 44.5439 51.0521 44.3081 51.1416C44.0723 51.2311 43.8567 51.3666 43.6738 51.5403C43.4908 51.714 43.3443 51.9224 43.2426 52.1534C43.1409 52.3843 43.0861 52.6332 43.0815 52.8855C43.0683 53.3956 43.2573 53.8901 43.6072 54.2611C43.9572 54.6321 44.4396 54.8495 44.9491 54.8657C45.458 54.8688 45.9484 54.6746 46.3173 54.3237C46.6862 53.9728 46.9049 53.4925 46.9276 52.9836C46.9359 52.4743 46.7431 51.9822 46.391 51.6143C46.0389 51.2465 45.5559 51.0325 45.0471 51.019Z" fill="#15F2FD"/>
<path d="M71.0849 35.0179V43.7026C71.5647 43.7026 72.029 43.7026 72.4908 43.7026C72.7492 43.6959 73.0062 43.7417 73.2464 43.8373C73.4866 43.9329 73.705 44.0763 73.8882 44.2587C74.0715 44.4411 74.2158 44.6589 74.3126 44.8988C74.4094 45.1386 74.4565 45.3957 74.4512 45.6543C74.452 45.9078 74.402 46.1589 74.3044 46.3927C74.2067 46.6266 74.0632 46.8385 73.8825 47.0161C73.7017 47.1936 73.4873 47.3332 73.2518 47.4265C73.0164 47.5198 72.7646 47.5651 72.5114 47.5596C70.2569 47.5802 68.0032 47.5802 65.7504 47.5596C65.4916 47.5649 65.2345 47.5177 64.9944 47.4209C64.7543 47.3242 64.5362 47.1798 64.3533 46.9965C64.1704 46.8132 64.0265 46.5948 63.9301 46.3544C63.8337 46.114 63.7869 45.8565 63.7926 45.5975C63.8027 45.0871 64.0139 44.6014 64.3801 44.2461C64.7463 43.8907 65.2378 43.6945 65.7478 43.7C66.1967 43.6871 66.6481 43.7 67.195 43.7V23.0803C67.195 21.4823 67.9173 20.7568 69.5166 20.7568C74.4177 20.7568 79.3188 20.7568 84.2019 20.7568C85.1073 20.7568 85.8605 20.9711 86.3016 21.8231C86.7427 22.675 86.4693 23.4263 85.9379 24.1466C84.9964 25.4374 84.0884 26.7282 83.1443 28.05C84.1116 29.297 85.0686 30.5336 86.0307 31.7676C86.4822 32.3485 86.6705 32.9784 86.4074 33.6935C86.3022 34.034 86.0995 34.3361 85.8244 34.5624C85.5493 34.7886 85.2138 34.9291 84.8596 34.9663C84.5615 34.9977 84.2618 35.0123 83.962 35.0102C79.9465 35.0102 75.9319 35.0102 71.9181 35.0102L71.0849 35.0179ZM80.7891 24.6913H71.0927V31.117H80.5957L79.373 29.5319C78.5991 28.5379 78.5991 27.7944 79.3059 26.7798L80.7891 24.6913Z" fill="#15F2FD"/>
<path d="M20.5234 67.8643C20.5544 62.732 24.2612 58.5445 29.2655 58.0308C31.6517 57.7949 34.0403 58.4546 35.9679 59.8819C37.8955 61.3093 39.2246 63.4024 39.6971 65.7551C40.1614 67.9908 39.8132 70.2059 39.3179 72.3899C38.1236 77.6798 35.5106 82.2002 31.7264 86.0495C30.7952 86.9995 29.6627 86.9918 28.7264 86.0495C24.3979 81.6245 21.6378 76.4018 20.7453 70.2394C20.6318 69.4494 20.5957 68.6543 20.5234 67.8643ZM30.2096 81.955C30.377 81.7876 30.5338 81.61 30.6791 81.4232C31.7109 79.8251 32.8639 78.2864 33.7332 76.6032C35.201 73.7634 36.0548 70.6964 36.0058 67.459C35.9491 63.935 32.6215 61.3017 29.17 61.9704C26.1546 62.5564 24.2302 65.0684 24.4572 68.3703C24.8132 73.5052 26.8768 77.9586 30.2096 81.955Z" fill="#15F2FD"/>
<path d="M30.2302 69.5966C29.7227 69.586 29.239 69.3794 28.8803 69.0199C28.5216 68.6604 28.3158 68.176 28.3059 67.6681C28.3059 67.4109 28.3571 67.1562 28.4566 66.9191C28.5561 66.6819 28.7019 66.467 28.8854 66.2869C29.0689 66.1068 29.2865 65.9652 29.5254 65.8703C29.7643 65.7755 30.0197 65.7293 30.2767 65.7344C30.7846 65.7439 31.2682 65.9538 31.6223 66.3183C31.9764 66.6829 32.1723 67.1726 32.1675 67.681C32.1542 68.1889 31.9451 68.6719 31.584 69.029C31.2229 69.386 30.7378 69.5894 30.2302 69.5966Z" fill="#15F2FD"/>
</g>
<g filter="url(#filter1_f_4522_15507)">
<path d="M50.5261 51.05H65.4487C70.5355 51.05 74.5854 53.7969 76.5097 58.511C76.6219 58.7467 76.8191 58.9312 77.0617 59.0273C79.5329 59.9128 81.1116 62.0582 81.109 64.5779C81.1064 67.0975 79.5355 69.2248 77.0463 70.1181C76.8043 70.2207 76.6105 70.4118 76.5046 70.6525C74.6215 75.2995 70.5587 78.0773 65.5622 78.1031C63.5656 78.1031 61.569 78.1161 59.5725 78.1031C59.4087 78.0791 59.2416 78.1132 59.1003 78.1995C58.959 78.2858 58.8523 78.4188 58.7986 78.5756C57.7359 80.7597 55.9611 81.9601 53.5364 81.9601C51.1116 81.9601 49.3395 80.7519 48.2741 78.5704C48.2288 78.4227 48.1334 78.2955 48.0044 78.2106C47.8753 78.1258 47.7208 78.0887 47.5673 78.1057C46.1924 78.129 44.8201 78.1212 43.4401 78.1057C42.2148 78.1057 41.3223 77.2538 41.3455 76.1411C41.3687 75.0284 42.238 74.2487 43.4375 74.241C44.8124 74.241 46.1847 74.241 47.5647 74.241C47.7075 74.2653 47.8542 74.2384 47.9792 74.1653C48.1042 74.0921 48.1995 73.9772 48.2483 73.8408C49.2956 71.6154 51.0703 70.3917 53.5312 70.3892C55.9921 70.3866 57.7668 71.6051 58.8218 73.8253C58.868 73.9624 58.9605 74.0789 59.0835 74.1548C59.2065 74.2307 59.352 74.2612 59.4951 74.241C61.6438 74.2255 63.7926 74.2926 65.9439 74.2152C68.8278 74.1093 70.9921 72.7333 72.4444 70.242C72.5195 70.0946 72.5858 69.9429 72.643 69.7876C68.459 67.3764 68.5157 61.7303 72.6585 59.3474C72.2724 58.4607 71.7119 57.6608 71.0103 56.9955C70.3088 56.3302 69.4806 55.8131 68.5751 55.4749C67.696 55.1346 66.7649 54.9486 65.8227 54.925C60.8648 54.8708 55.9044 54.9044 50.9465 54.8889C50.7916 54.8757 50.6368 54.9154 50.5075 55.0017C50.3781 55.088 50.2819 55.2157 50.2346 55.3639C49.1641 57.5222 47.3971 58.6994 45.0007 58.6968C42.6043 58.6943 40.8373 57.5248 39.7642 55.3665C39.7129 55.2207 39.6176 55.0944 39.4914 55.0051C39.3653 54.9159 39.2145 54.868 39.06 54.8683C32.8459 54.37 28.3059 49.4468 28.3034 43.2069C28.3034 41.3404 28.2518 39.4609 28.4452 37.6099C28.9611 32.6195 33.434 28.2152 38.4435 27.8564C41.4125 27.6447 44.4048 27.7454 47.3868 27.7299C47.8666 27.7299 48.1194 27.6241 48.3541 27.149C49.4143 25.0166 51.1916 23.8781 53.5596 23.8832C55.9276 23.8884 57.6868 25.0424 58.7548 27.1723C58.9714 27.6008 59.1907 27.766 59.6679 27.7325C60.3554 27.6975 61.0441 27.6975 61.7316 27.7325C62.9207 27.7686 63.7565 28.6154 63.7307 29.7229C63.7049 30.8305 62.8717 31.5817 61.6954 31.5946C60.9448 31.5946 60.1916 31.5714 59.4409 31.6127C59.3271 31.6268 59.2178 31.6662 59.121 31.7278C59.0242 31.7894 58.9422 31.8718 58.8812 31.969C57.8003 34.1737 56.072 35.4284 53.6009 35.4465C51.0755 35.462 49.3033 34.2099 48.2096 31.9483C48.1654 31.862 48.1023 31.7868 48.0251 31.7282C47.9478 31.6697 47.8584 31.6293 47.7634 31.6101C44.7788 31.6101 41.784 31.4991 38.8176 31.7263C35.2397 32.0025 32.3507 35.1625 32.201 38.7484C32.0904 40.6985 32.1283 42.6541 32.3145 44.5984C32.6886 47.9727 35.6679 50.7015 39.0807 50.9803C39.1925 50.9757 39.3018 50.9448 39.3995 50.8901C39.4972 50.8354 39.5806 50.7584 39.643 50.6653C40.7522 48.3831 42.5372 47.113 45.0936 47.1491C47.6499 47.1852 49.3936 48.5225 50.4151 50.8409C50.4484 50.9125 50.4854 50.9823 50.5261 51.05ZM53.5467 31.605C53.7992 31.6056 54.0493 31.5565 54.2827 31.4602C54.5161 31.364 54.7283 31.2226 54.9071 31.0442C55.0858 30.8658 55.2277 30.6538 55.3244 30.4204C55.4212 30.1871 55.471 29.9369 55.471 29.6842C55.4617 29.1745 55.2551 28.6883 54.8947 28.3281C54.5343 27.9679 54.0482 27.7617 53.5389 27.7531C53.0299 27.7644 52.545 27.9727 52.1862 28.3342C51.8274 28.6958 51.6225 29.1824 51.6146 29.6919C51.618 30.2018 51.8233 30.6896 52.1855 31.0482C52.5477 31.4068 53.0372 31.607 53.5467 31.605ZM53.5261 78.1109C54.0355 78.109 54.5241 77.9079 54.8875 77.5505C55.2509 77.1931 55.4603 76.7077 55.471 76.1979C55.4698 75.6878 55.269 75.1984 54.9118 74.8346C54.5545 74.4708 54.0692 74.2614 53.5596 74.2513C53.0505 74.2532 52.5624 74.454 52.1991 74.8108C51.8357 75.1677 51.6261 75.6524 51.6146 76.1617C51.6172 76.6717 51.8182 77.1605 52.1751 77.5245C52.5321 77.8884 53.0167 78.0988 53.5261 78.1109ZM77.2397 64.6037C77.2392 64.094 77.0394 63.6048 76.6832 63.2405C76.327 62.8763 75.8426 62.666 75.3334 62.6545C74.824 62.6531 74.3344 62.852 73.9701 63.2083C73.6059 63.5647 73.3961 64.0501 73.3859 64.5598C73.3844 65.0699 73.5831 65.5601 73.9391 65.9251C74.2951 66.2901 74.7801 66.5007 75.2896 66.5115C75.7989 66.5103 76.2876 66.3103 76.6518 65.954C77.016 65.5977 77.227 65.1132 77.2397 64.6037ZM45.0471 51.019C44.7951 51.0104 44.5439 51.0521 44.3081 51.1416C44.0723 51.2311 43.8567 51.3666 43.6738 51.5403C43.4908 51.714 43.3443 51.9224 43.2426 52.1534C43.1409 52.3843 43.0861 52.6332 43.0815 52.8855C43.0683 53.3956 43.2573 53.8901 43.6072 54.2611C43.9572 54.6321 44.4396 54.8495 44.9491 54.8657C45.458 54.8688 45.9484 54.6746 46.3173 54.3237C46.6862 53.9728 46.9049 53.4925 46.9276 52.9836C46.9359 52.4743 46.7431 51.9822 46.391 51.6143C46.0389 51.2465 45.5559 51.0325 45.0471 51.019Z" fill="#15F2FD"/>
<path d="M71.0849 35.0179V43.7026C71.5647 43.7026 72.029 43.7026 72.4908 43.7026C72.7492 43.6959 73.0062 43.7417 73.2464 43.8373C73.4866 43.9329 73.705 44.0763 73.8882 44.2587C74.0715 44.4411 74.2158 44.6589 74.3126 44.8988C74.4094 45.1386 74.4565 45.3957 74.4512 45.6543C74.452 45.9078 74.402 46.1589 74.3044 46.3927C74.2067 46.6266 74.0632 46.8385 73.8825 47.0161C73.7017 47.1936 73.4873 47.3332 73.2518 47.4265C73.0164 47.5198 72.7646 47.5651 72.5114 47.5596C70.2569 47.5802 68.0032 47.5802 65.7504 47.5596C65.4916 47.5649 65.2345 47.5177 64.9944 47.4209C64.7543 47.3242 64.5362 47.1798 64.3533 46.9965C64.1704 46.8132 64.0265 46.5948 63.9301 46.3544C63.8337 46.114 63.7869 45.8565 63.7926 45.5975C63.8027 45.0871 64.0139 44.6014 64.3801 44.2461C64.7463 43.8907 65.2378 43.6945 65.7478 43.7C66.1967 43.6871 66.6481 43.7 67.195 43.7V23.0803C67.195 21.4823 67.9173 20.7568 69.5166 20.7568C74.4177 20.7568 79.3188 20.7568 84.2019 20.7568C85.1073 20.7568 85.8605 20.9711 86.3016 21.8231C86.7427 22.675 86.4693 23.4263 85.9379 24.1466C84.9964 25.4374 84.0884 26.7282 83.1443 28.05C84.1116 29.297 85.0686 30.5336 86.0307 31.7676C86.4822 32.3485 86.6705 32.9784 86.4074 33.6935C86.3022 34.034 86.0995 34.3361 85.8244 34.5624C85.5493 34.7886 85.2138 34.9291 84.8596 34.9663C84.5615 34.9977 84.2618 35.0123 83.962 35.0102C79.9465 35.0102 75.9319 35.0102 71.9181 35.0102L71.0849 35.0179ZM80.7891 24.6913H71.0927V31.117H80.5957L79.373 29.5319C78.5991 28.5379 78.5991 27.7944 79.3059 26.7798L80.7891 24.6913Z" fill="#15F2FD"/>
<path d="M20.5234 67.8643C20.5544 62.732 24.2612 58.5445 29.2655 58.0308C31.6517 57.7949 34.0403 58.4546 35.9679 59.8819C37.8955 61.3093 39.2246 63.4024 39.6971 65.7551C40.1614 67.9908 39.8132 70.2059 39.3179 72.3899C38.1236 77.6798 35.5106 82.2002 31.7264 86.0495C30.7952 86.9995 29.6627 86.9918 28.7264 86.0495C24.3979 81.6245 21.6378 76.4018 20.7453 70.2394C20.6318 69.4494 20.5957 68.6543 20.5234 67.8643ZM30.2096 81.955C30.377 81.7876 30.5338 81.61 30.6791 81.4232C31.7109 79.8251 32.8639 78.2864 33.7332 76.6032C35.201 73.7634 36.0548 70.6964 36.0058 67.459C35.9491 63.935 32.6215 61.3017 29.17 61.9704C26.1546 62.5564 24.2302 65.0684 24.4572 68.3703C24.8132 73.5052 26.8768 77.9586 30.2096 81.955Z" fill="#15F2FD"/>
<path d="M30.2302 69.5966C29.7227 69.586 29.239 69.3794 28.8803 69.0199C28.5216 68.6604 28.3158 68.176 28.3059 67.6681C28.3059 67.4109 28.3571 67.1562 28.4566 66.9191C28.5561 66.6819 28.7019 66.467 28.8854 66.2869C29.0689 66.1068 29.2865 65.9652 29.5254 65.8703C29.7643 65.7755 30.0197 65.7293 30.2767 65.7344C30.7846 65.7439 31.2682 65.9538 31.6223 66.3183C31.9764 66.6829 32.1723 67.1726 32.1675 67.681C32.1542 68.1889 31.9451 68.6719 31.584 69.029C31.2229 69.386 30.7378 69.5894 30.2302 69.5966Z" fill="#15F2FD"/>
</g>
<g filter="url(#filter2_f_4522_15507)">
<path d="M50.5261 51.05H65.4487C70.5355 51.05 74.5854 53.7969 76.5097 58.511C76.6219 58.7467 76.8191 58.9312 77.0617 59.0273C79.5329 59.9128 81.1116 62.0582 81.109 64.5779C81.1064 67.0975 79.5355 69.2248 77.0463 70.1181C76.8043 70.2207 76.6105 70.4118 76.5046 70.6525C74.6215 75.2995 70.5587 78.0773 65.5622 78.1031C63.5656 78.1031 61.569 78.1161 59.5725 78.1031C59.4087 78.0791 59.2416 78.1132 59.1003 78.1995C58.959 78.2858 58.8523 78.4188 58.7986 78.5756C57.7359 80.7597 55.9611 81.9601 53.5364 81.9601C51.1116 81.9601 49.3395 80.7519 48.2741 78.5704C48.2288 78.4227 48.1334 78.2955 48.0044 78.2106C47.8753 78.1258 47.7208 78.0887 47.5673 78.1057C46.1924 78.129 44.8201 78.1212 43.4401 78.1057C42.2148 78.1057 41.3223 77.2538 41.3455 76.1411C41.3687 75.0284 42.238 74.2487 43.4375 74.241C44.8124 74.241 46.1847 74.241 47.5647 74.241C47.7075 74.2653 47.8542 74.2384 47.9792 74.1653C48.1042 74.0921 48.1995 73.9772 48.2483 73.8408C49.2956 71.6154 51.0703 70.3917 53.5312 70.3892C55.9921 70.3866 57.7668 71.6051 58.8218 73.8253C58.868 73.9624 58.9605 74.0789 59.0835 74.1548C59.2065 74.2307 59.352 74.2612 59.4951 74.241C61.6438 74.2255 63.7926 74.2926 65.9439 74.2152C68.8278 74.1093 70.9921 72.7333 72.4444 70.242C72.5195 70.0946 72.5858 69.9429 72.643 69.7876C68.459 67.3764 68.5157 61.7303 72.6585 59.3474C72.2724 58.4607 71.7119 57.6608 71.0103 56.9955C70.3088 56.3302 69.4806 55.8131 68.5751 55.4749C67.696 55.1346 66.7649 54.9486 65.8227 54.925C60.8648 54.8708 55.9044 54.9044 50.9465 54.8889C50.7916 54.8757 50.6368 54.9154 50.5075 55.0017C50.3781 55.088 50.2819 55.2157 50.2346 55.3639C49.1641 57.5222 47.3971 58.6994 45.0007 58.6968C42.6043 58.6943 40.8373 57.5248 39.7642 55.3665C39.7129 55.2207 39.6176 55.0944 39.4914 55.0051C39.3653 54.9159 39.2145 54.868 39.06 54.8683C32.8459 54.37 28.3059 49.4468 28.3034 43.2069C28.3034 41.3404 28.2518 39.4609 28.4452 37.6099C28.9611 32.6195 33.434 28.2152 38.4435 27.8564C41.4125 27.6447 44.4048 27.7454 47.3868 27.7299C47.8666 27.7299 48.1194 27.6241 48.3541 27.149C49.4143 25.0166 51.1916 23.8781 53.5596 23.8832C55.9276 23.8884 57.6868 25.0424 58.7548 27.1723C58.9714 27.6008 59.1907 27.766 59.6679 27.7325C60.3554 27.6975 61.0441 27.6975 61.7316 27.7325C62.9207 27.7686 63.7565 28.6154 63.7307 29.7229C63.7049 30.8305 62.8717 31.5817 61.6954 31.5946C60.9448 31.5946 60.1916 31.5714 59.4409 31.6127C59.3271 31.6268 59.2178 31.6662 59.121 31.7278C59.0242 31.7894 58.9422 31.8718 58.8812 31.969C57.8003 34.1737 56.072 35.4284 53.6009 35.4465C51.0755 35.462 49.3033 34.2099 48.2096 31.9483C48.1654 31.862 48.1023 31.7868 48.0251 31.7282C47.9478 31.6697 47.8584 31.6293 47.7634 31.6101C44.7788 31.6101 41.784 31.4991 38.8176 31.7263C35.2397 32.0025 32.3507 35.1625 32.201 38.7484C32.0904 40.6985 32.1283 42.6541 32.3145 44.5984C32.6886 47.9727 35.6679 50.7015 39.0807 50.9803C39.1925 50.9757 39.3018 50.9448 39.3995 50.8901C39.4972 50.8354 39.5806 50.7584 39.643 50.6653C40.7522 48.3831 42.5372 47.113 45.0936 47.1491C47.6499 47.1852 49.3936 48.5225 50.4151 50.8409C50.4484 50.9125 50.4854 50.9823 50.5261 51.05ZM53.5467 31.605C53.7992 31.6056 54.0493 31.5565 54.2827 31.4602C54.5161 31.364 54.7283 31.2226 54.9071 31.0442C55.0858 30.8658 55.2277 30.6538 55.3244 30.4204C55.4212 30.1871 55.471 29.9369 55.471 29.6842C55.4617 29.1745 55.2551 28.6883 54.8947 28.3281C54.5343 27.9679 54.0482 27.7617 53.5389 27.7531C53.0299 27.7644 52.545 27.9727 52.1862 28.3342C51.8274 28.6958 51.6225 29.1824 51.6146 29.6919C51.618 30.2018 51.8233 30.6896 52.1855 31.0482C52.5477 31.4068 53.0372 31.607 53.5467 31.605ZM53.5261 78.1109C54.0355 78.109 54.5241 77.9079 54.8875 77.5505C55.2509 77.1931 55.4603 76.7077 55.471 76.1979C55.4698 75.6878 55.269 75.1984 54.9118 74.8346C54.5545 74.4708 54.0692 74.2614 53.5596 74.2513C53.0505 74.2532 52.5624 74.454 52.1991 74.8108C51.8357 75.1677 51.6261 75.6524 51.6146 76.1617C51.6172 76.6717 51.8182 77.1605 52.1751 77.5245C52.5321 77.8884 53.0167 78.0988 53.5261 78.1109ZM77.2397 64.6037C77.2392 64.094 77.0394 63.6048 76.6832 63.2405C76.327 62.8763 75.8426 62.666 75.3334 62.6545C74.824 62.6531 74.3344 62.852 73.9701 63.2083C73.6059 63.5647 73.3961 64.0501 73.3859 64.5598C73.3844 65.0699 73.5831 65.5601 73.9391 65.9251C74.2951 66.2901 74.7801 66.5007 75.2896 66.5115C75.7989 66.5103 76.2876 66.3103 76.6518 65.954C77.016 65.5977 77.227 65.1132 77.2397 64.6037ZM45.0471 51.019C44.7951 51.0104 44.5439 51.0521 44.3081 51.1416C44.0723 51.2311 43.8567 51.3666 43.6738 51.5403C43.4908 51.714 43.3443 51.9224 43.2426 52.1534C43.1409 52.3843 43.0861 52.6332 43.0815 52.8855C43.0683 53.3956 43.2573 53.8901 43.6072 54.2611C43.9572 54.6321 44.4396 54.8495 44.9491 54.8657C45.458 54.8688 45.9484 54.6746 46.3173 54.3237C46.6862 53.9728 46.9049 53.4925 46.9276 52.9836C46.9359 52.4743 46.7431 51.9822 46.391 51.6143C46.0389 51.2465 45.5559 51.0325 45.0471 51.019Z" fill="#15F2FD"/>
<path d="M71.0849 35.0179V43.7026C71.5647 43.7026 72.029 43.7026 72.4908 43.7026C72.7492 43.6959 73.0062 43.7417 73.2464 43.8373C73.4866 43.9329 73.705 44.0763 73.8882 44.2587C74.0715 44.4411 74.2158 44.6589 74.3126 44.8988C74.4094 45.1386 74.4565 45.3957 74.4512 45.6543C74.452 45.9078 74.402 46.1589 74.3044 46.3927C74.2067 46.6266 74.0632 46.8385 73.8825 47.0161C73.7017 47.1936 73.4873 47.3332 73.2518 47.4265C73.0164 47.5198 72.7646 47.5651 72.5114 47.5596C70.2569 47.5802 68.0032 47.5802 65.7504 47.5596C65.4916 47.5649 65.2345 47.5177 64.9944 47.4209C64.7543 47.3242 64.5362 47.1798 64.3533 46.9965C64.1704 46.8132 64.0265 46.5948 63.9301 46.3544C63.8337 46.114 63.7869 45.8565 63.7926 45.5975C63.8027 45.0871 64.0139 44.6014 64.3801 44.2461C64.7463 43.8907 65.2378 43.6945 65.7478 43.7C66.1967 43.6871 66.6481 43.7 67.195 43.7V23.0803C67.195 21.4823 67.9173 20.7568 69.5166 20.7568C74.4177 20.7568 79.3188 20.7568 84.2019 20.7568C85.1073 20.7568 85.8605 20.9711 86.3016 21.8231C86.7427 22.675 86.4693 23.4263 85.9379 24.1466C84.9964 25.4374 84.0884 26.7282 83.1443 28.05C84.1116 29.297 85.0686 30.5336 86.0307 31.7676C86.4822 32.3485 86.6705 32.9784 86.4074 33.6935C86.3022 34.034 86.0995 34.3361 85.8244 34.5624C85.5493 34.7886 85.2138 34.9291 84.8596 34.9663C84.5615 34.9977 84.2618 35.0123 83.962 35.0102C79.9465 35.0102 75.9319 35.0102 71.9181 35.0102L71.0849 35.0179ZM80.7891 24.6913H71.0927V31.117H80.5957L79.373 29.5319C78.5991 28.5379 78.5991 27.7944 79.3059 26.7798L80.7891 24.6913Z" fill="#15F2FD"/>
<path d="M20.5234 67.8643C20.5544 62.732 24.2612 58.5445 29.2655 58.0308C31.6517 57.7949 34.0403 58.4546 35.9679 59.8819C37.8955 61.3093 39.2246 63.4024 39.6971 65.7551C40.1614 67.9908 39.8132 70.2059 39.3179 72.3899C38.1236 77.6798 35.5106 82.2002 31.7264 86.0495C30.7952 86.9995 29.6627 86.9918 28.7264 86.0495C24.3979 81.6245 21.6378 76.4018 20.7453 70.2394C20.6318 69.4494 20.5957 68.6543 20.5234 67.8643ZM30.2096 81.955C30.377 81.7876 30.5338 81.61 30.6791 81.4232C31.7109 79.8251 32.8639 78.2864 33.7332 76.6032C35.201 73.7634 36.0548 70.6964 36.0058 67.459C35.9491 63.935 32.6215 61.3017 29.17 61.9704C26.1546 62.5564 24.2302 65.0684 24.4572 68.3703C24.8132 73.5052 26.8768 77.9586 30.2096 81.955Z" fill="#15F2FD"/>
<path d="M30.2302 69.5966C29.7227 69.586 29.239 69.3794 28.8803 69.0199C28.5216 68.6604 28.3158 68.176 28.3059 67.6681C28.3059 67.4109 28.3571 67.1562 28.4566 66.9191C28.5561 66.6819 28.7019 66.467 28.8854 66.2869C29.0689 66.1068 29.2865 65.9652 29.5254 65.8703C29.7643 65.7755 30.0197 65.7293 30.2767 65.7344C30.7846 65.7439 31.2682 65.9538 31.6223 66.3183C31.9764 66.6829 32.1723 67.1726 32.1675 67.681C32.1542 68.1889 31.9451 68.6719 31.584 69.029C31.2229 69.386 30.7378 69.5894 30.2302 69.5966Z" fill="#15F2FD"/>
</g>
<g filter="url(#filter3_d_4522_15507)">
<path d="M50.5261 51.05H65.4487C70.5355 51.05 74.5854 53.7969 76.5097 58.511C76.6219 58.7467 76.8191 58.9312 77.0617 59.0273C79.5329 59.9128 81.1116 62.0582 81.109 64.5779C81.1064 67.0975 79.5355 69.2248 77.0463 70.1181C76.8043 70.2207 76.6105 70.4118 76.5046 70.6525C74.6215 75.2995 70.5587 78.0773 65.5622 78.1031C63.5656 78.1031 61.569 78.1161 59.5725 78.1031C59.4087 78.0791 59.2416 78.1132 59.1003 78.1995C58.959 78.2858 58.8523 78.4188 58.7986 78.5756C57.7359 80.7597 55.9611 81.9601 53.5364 81.9601C51.1116 81.9601 49.3395 80.7519 48.2741 78.5704C48.2288 78.4227 48.1334 78.2955 48.0044 78.2106C47.8753 78.1258 47.7208 78.0887 47.5673 78.1057C46.1924 78.129 44.8201 78.1212 43.4401 78.1057C42.2148 78.1057 41.3223 77.2538 41.3455 76.1411C41.3687 75.0284 42.238 74.2487 43.4375 74.241C44.8124 74.241 46.1847 74.241 47.5647 74.241C47.7075 74.2653 47.8542 74.2384 47.9792 74.1653C48.1042 74.0921 48.1995 73.9772 48.2483 73.8408C49.2956 71.6154 51.0703 70.3917 53.5312 70.3892C55.9921 70.3866 57.7668 71.6051 58.8218 73.8253C58.868 73.9624 58.9605 74.0789 59.0835 74.1548C59.2065 74.2307 59.352 74.2612 59.4951 74.241C61.6438 74.2255 63.7926 74.2926 65.9439 74.2152C68.8278 74.1093 70.9921 72.7333 72.4444 70.242C72.5195 70.0946 72.5858 69.9429 72.643 69.7876C68.459 67.3764 68.5157 61.7303 72.6585 59.3474C72.2724 58.4607 71.7119 57.6608 71.0103 56.9955C70.3088 56.3302 69.4806 55.8131 68.5751 55.4749C67.696 55.1346 66.7649 54.9486 65.8227 54.925C60.8648 54.8708 55.9044 54.9044 50.9465 54.8889C50.7916 54.8757 50.6368 54.9154 50.5075 55.0017C50.3781 55.088 50.2819 55.2157 50.2346 55.3639C49.1641 57.5222 47.3971 58.6994 45.0007 58.6968C42.6043 58.6943 40.8373 57.5248 39.7642 55.3665C39.7129 55.2207 39.6176 55.0944 39.4914 55.0051C39.3653 54.9159 39.2145 54.868 39.06 54.8683C32.8459 54.37 28.3059 49.4468 28.3034 43.2069C28.3034 41.3404 28.2518 39.4609 28.4452 37.6099C28.9611 32.6195 33.434 28.2152 38.4435 27.8564C41.4125 27.6447 44.4048 27.7454 47.3868 27.7299C47.8666 27.7299 48.1194 27.6241 48.3541 27.149C49.4143 25.0166 51.1916 23.8781 53.5596 23.8832C55.9276 23.8884 57.6868 25.0424 58.7548 27.1723C58.9714 27.6008 59.1907 27.766 59.6679 27.7325C60.3554 27.6975 61.0441 27.6975 61.7316 27.7325C62.9207 27.7686 63.7565 28.6154 63.7307 29.7229C63.7049 30.8305 62.8717 31.5817 61.6954 31.5946C60.9448 31.5946 60.1916 31.5714 59.4409 31.6127C59.3271 31.6268 59.2178 31.6662 59.121 31.7278C59.0242 31.7894 58.9422 31.8718 58.8812 31.969C57.8003 34.1737 56.072 35.4284 53.6009 35.4465C51.0755 35.462 49.3033 34.2099 48.2096 31.9483C48.1654 31.862 48.1023 31.7868 48.0251 31.7282C47.9478 31.6697 47.8584 31.6293 47.7634 31.6101C44.7788 31.6101 41.784 31.4991 38.8176 31.7263C35.2397 32.0025 32.3507 35.1625 32.201 38.7484C32.0904 40.6985 32.1283 42.6541 32.3145 44.5984C32.6886 47.9727 35.6679 50.7015 39.0807 50.9803C39.1925 50.9757 39.3018 50.9448 39.3995 50.8901C39.4972 50.8354 39.5806 50.7584 39.643 50.6653C40.7522 48.3831 42.5372 47.113 45.0936 47.1491C47.6499 47.1852 49.3936 48.5225 50.4151 50.8409C50.4484 50.9125 50.4854 50.9823 50.5261 51.05ZM53.5467 31.605C53.7992 31.6056 54.0493 31.5565 54.2827 31.4602C54.5161 31.364 54.7283 31.2226 54.9071 31.0442C55.0858 30.8658 55.2277 30.6538 55.3244 30.4204C55.4212 30.1871 55.471 29.9369 55.471 29.6842C55.4617 29.1745 55.2551 28.6883 54.8947 28.3281C54.5343 27.9679 54.0482 27.7617 53.5389 27.7531C53.0299 27.7644 52.545 27.9727 52.1862 28.3342C51.8274 28.6958 51.6225 29.1824 51.6146 29.6919C51.618 30.2018 51.8233 30.6896 52.1855 31.0482C52.5477 31.4068 53.0372 31.607 53.5467 31.605ZM53.5261 78.1109C54.0355 78.109 54.5241 77.9079 54.8875 77.5505C55.2509 77.1931 55.4603 76.7077 55.471 76.1979C55.4698 75.6878 55.269 75.1984 54.9118 74.8346C54.5545 74.4708 54.0692 74.2614 53.5596 74.2513C53.0505 74.2532 52.5624 74.454 52.1991 74.8108C51.8357 75.1677 51.6261 75.6524 51.6146 76.1617C51.6172 76.6717 51.8182 77.1605 52.1751 77.5245C52.5321 77.8884 53.0167 78.0988 53.5261 78.1109ZM77.2397 64.6037C77.2392 64.094 77.0394 63.6048 76.6832 63.2405C76.327 62.8763 75.8426 62.666 75.3334 62.6545C74.824 62.6531 74.3344 62.852 73.9701 63.2083C73.6059 63.5647 73.3961 64.0501 73.3859 64.5598C73.3844 65.0699 73.5831 65.5601 73.9391 65.9251C74.2951 66.2901 74.7801 66.5007 75.2896 66.5115C75.7989 66.5103 76.2876 66.3103 76.6518 65.954C77.016 65.5977 77.227 65.1132 77.2397 64.6037ZM45.0471 51.019C44.7951 51.0104 44.5439 51.0521 44.3081 51.1416C44.0723 51.2311 43.8567 51.3666 43.6738 51.5403C43.4908 51.714 43.3443 51.9224 43.2426 52.1534C43.1409 52.3843 43.0861 52.6332 43.0815 52.8855C43.0683 53.3956 43.2573 53.8901 43.6072 54.2611C43.9572 54.6321 44.4396 54.8495 44.9491 54.8657C45.458 54.8688 45.9484 54.6746 46.3173 54.3237C46.6862 53.9728 46.9049 53.4925 46.9276 52.9836C46.9359 52.4743 46.7431 51.9822 46.391 51.6143C46.0389 51.2465 45.5559 51.0325 45.0471 51.019Z" fill="white"/>
<path d="M71.0849 35.0179V43.7026C71.5647 43.7026 72.029 43.7026 72.4908 43.7026C72.7492 43.6959 73.0062 43.7417 73.2464 43.8373C73.4866 43.9329 73.705 44.0763 73.8882 44.2587C74.0715 44.4411 74.2158 44.6589 74.3126 44.8988C74.4094 45.1386 74.4565 45.3957 74.4512 45.6543C74.452 45.9078 74.402 46.1589 74.3044 46.3927C74.2067 46.6266 74.0632 46.8385 73.8825 47.0161C73.7017 47.1936 73.4873 47.3332 73.2518 47.4265C73.0164 47.5198 72.7646 47.5651 72.5114 47.5596C70.2569 47.5802 68.0032 47.5802 65.7504 47.5596C65.4916 47.5649 65.2345 47.5177 64.9944 47.4209C64.7543 47.3242 64.5362 47.1798 64.3533 46.9965C64.1704 46.8132 64.0265 46.5948 63.9301 46.3544C63.8337 46.114 63.7869 45.8565 63.7926 45.5975C63.8027 45.0871 64.0139 44.6014 64.3801 44.2461C64.7463 43.8907 65.2378 43.6945 65.7478 43.7C66.1967 43.6871 66.6481 43.7 67.195 43.7V23.0803C67.195 21.4823 67.9173 20.7568 69.5166 20.7568C74.4177 20.7568 79.3188 20.7568 84.2019 20.7568C85.1073 20.7568 85.8605 20.9711 86.3016 21.8231C86.7427 22.675 86.4693 23.4263 85.9379 24.1466C84.9964 25.4374 84.0884 26.7282 83.1443 28.05C84.1116 29.297 85.0686 30.5336 86.0307 31.7676C86.4822 32.3485 86.6705 32.9784 86.4074 33.6935C86.3022 34.034 86.0995 34.3361 85.8244 34.5624C85.5493 34.7886 85.2138 34.9291 84.8596 34.9663C84.5615 34.9977 84.2618 35.0123 83.962 35.0102C79.9465 35.0102 75.9319 35.0102 71.9181 35.0102L71.0849 35.0179ZM80.7891 24.6913H71.0927V31.117H80.5957L79.373 29.5319C78.5991 28.5379 78.5991 27.7944 79.3059 26.7798L80.7891 24.6913Z" fill="white"/>
<path d="M20.5234 67.8643C20.5544 62.732 24.2612 58.5445 29.2655 58.0308C31.6517 57.7949 34.0403 58.4546 35.9679 59.8819C37.8955 61.3093 39.2246 63.4024 39.6971 65.7551C40.1614 67.9908 39.8132 70.2059 39.3179 72.3899C38.1236 77.6798 35.5106 82.2002 31.7264 86.0495C30.7952 86.9995 29.6627 86.9918 28.7264 86.0495C24.3979 81.6245 21.6378 76.4018 20.7453 70.2394C20.6318 69.4494 20.5957 68.6543 20.5234 67.8643ZM30.2096 81.955C30.377 81.7876 30.5338 81.61 30.6791 81.4232C31.7109 79.8251 32.8639 78.2864 33.7332 76.6032C35.201 73.7634 36.0548 70.6964 36.0058 67.459C35.9491 63.935 32.6215 61.3017 29.17 61.9704C26.1546 62.5564 24.2302 65.0684 24.4572 68.3703C24.8132 73.5052 26.8768 77.9586 30.2096 81.955Z" fill="white"/>
<path d="M30.2302 69.5966C29.7227 69.586 29.239 69.3794 28.8803 69.0199C28.5216 68.6604 28.3158 68.176 28.3059 67.6681C28.3059 67.4109 28.3571 67.1562 28.4566 66.9191C28.5561 66.6819 28.7019 66.467 28.8854 66.2869C29.0689 66.1068 29.2865 65.9652 29.5254 65.8703C29.7643 65.7755 30.0197 65.7293 30.2767 65.7344C30.7846 65.7439 31.2682 65.9538 31.6223 66.3183C31.9764 66.6829 32.1723 67.1726 32.1675 67.681C32.1542 68.1889 31.9451 68.6719 31.584 69.029C31.2229 69.386 30.7378 69.5894 30.2302 69.5966Z" fill="white"/>
</g>
<defs>
<filter id="filter0_f_4522_15507" x="0.523438" y="0.756836" width="106.004" height="106.002" filterUnits="userSpaceOnUse" color-interpolation-filters="sRGB">
<feFlood flood-opacity="0" result="BackgroundImageFix"/>
<feBlend mode="normal" in="SourceGraphic" in2="BackgroundImageFix" result="shape"/>
<feGaussianBlur stdDeviation="10" result="effect1_foregroundBlur_4522_15507"/>
</filter>
<filter id="filter1_f_4522_15507" x="10.5234" y="10.7568" width="86.0039" height="86.0022" filterUnits="userSpaceOnUse" color-interpolation-filters="sRGB">
<feFlood flood-opacity="0" result="BackgroundImageFix"/>
<feBlend mode="normal" in="SourceGraphic" in2="BackgroundImageFix" result="shape"/>
<feGaussianBlur stdDeviation="5" result="effect1_foregroundBlur_4522_15507"/>
</filter>
<filter id="filter2_f_4522_15507" x="15.5234" y="15.7568" width="76.0039" height="76.0022" filterUnits="userSpaceOnUse" color-interpolation-filters="sRGB">
<feFlood flood-opacity="0" result="BackgroundImageFix"/>
<feBlend mode="normal" in="SourceGraphic" in2="BackgroundImageFix" result="shape"/>
<feGaussianBlur stdDeviation="2.5" result="effect1_foregroundBlur_4522_15507"/>
</filter>
<filter id="filter3_d_4522_15507" x="16.5234" y="20.7568" width="74.0039" height="74.0022" filterUnits="userSpaceOnUse" color-interpolation-filters="sRGB">
<feFlood flood-opacity="0" result="BackgroundImageFix"/>
<feColorMatrix in="SourceAlpha" type="matrix" values="0 0 0 0 0 0 0 0 0 0 0 0 0 0 0 0 0 0 127 0" result="hardAlpha"/>
<feOffset dy="4"/>
<feGaussianBlur stdDeviation="2"/>
<feComposite in2="hardAlpha" operator="out"/>
<feColorMatrix type="matrix" values="0 0 0 0 0 0 0 0 0 0 0 0 0 0 0 0 0 0 0.25 0"/>
<feBlend mode="normal" in2="BackgroundImageFix" result="effect1_dropShadow_4522_15507"/>
<feBlend mode="normal" in="SourceGraphic" in2="effect1_dropShadow_4522_15507" result="shape"/>
</filter>
</defs>
</svg>
