<svg width="102" height="102" viewBox="0 0 102 102" fill="none" xmlns="http://www.w3.org/2000/svg">
<g filter="url(#filter0_f_4264_13683)">
<path d="M49.6493 37.2497C51.4045 35.4849 53.0405 33.8394 54.6788 32.1962C57.9046 28.9703 61.132 25.7436 64.361 22.5161C66.7052 20.1741 69.5812 20.1693 71.9183 22.5161C74.5272 25.1251 77.137 27.7341 79.7475 30.3432C82.0536 32.6541 82.0536 35.5469 79.7475 37.8602C75.0352 42.5743 70.3197 47.2868 65.601 51.9977C65.4204 52.1545 65.2274 52.2965 65.0239 52.4222L64.9691 52.6941C65.1867 52.7971 65.3916 52.9252 65.5796 53.0757C69.9914 57.4749 74.3977 61.8806 78.7984 66.2926C80.3868 67.8669 81.3333 69.9755 81.454 72.2087C81.5748 74.4419 80.8612 76.6402 79.4518 78.3767C76.1465 82.4953 69.9318 82.927 66.1591 79.2209C61.671 74.8113 57.2496 70.3373 52.8044 65.8848C52.651 65.703 52.5138 65.5083 52.3942 65.3029L52.1104 65.2671C52.005 65.4804 51.8771 65.6819 51.7288 65.8681C47.034 70.5742 42.3344 75.2756 37.6301 79.9721C35.2453 82.3689 32.3836 82.357 29.9988 79.9721C27.401 77.3774 24.8048 74.7819 22.2102 72.1856C19.9089 69.8818 19.916 66.9842 22.2293 64.6732C26.959 59.9433 31.6888 55.2165 36.4186 50.4929C36.5877 50.3536 36.7708 50.2321 36.9647 50.1304L36.9862 49.8466C36.7854 49.7533 36.5965 49.6364 36.4234 49.4984C33.3232 46.3981 30.2349 43.2834 27.1228 40.1974C25.1352 38.2651 23.7445 35.8025 23.1164 33.1024C22.3199 29.7636 21.4471 26.4582 20.6267 23.1289C20.5312 22.6896 20.5627 22.2323 20.7173 21.8101C20.8735 21.4282 21.1657 21.1176 21.5373 20.9384C21.909 20.7591 22.3339 20.7239 22.73 20.8395C26.4765 21.7791 30.2278 22.6997 33.9599 23.7013C36.1873 24.2999 38.0737 25.5305 39.7025 27.1641C42.8694 30.344 46.0388 33.5158 49.2105 36.6797C49.3662 36.8623 49.5126 37.0525 49.6493 37.2497ZM62.6964 49.6892C60.9316 47.9291 59.1407 46.1572 57.3664 44.3685C57.1912 44.2061 57.0503 44.0101 56.9523 43.7922C56.8542 43.5743 56.8009 43.3389 56.7956 43.1C56.7903 42.8611 56.8329 42.6235 56.9212 42.4015C57.0094 42.1794 57.1414 41.9773 57.3092 41.8072C58.0246 41.0917 59.093 41.0917 59.868 41.8334C60.4428 42.382 60.9961 42.9496 61.5565 43.5028L65.1646 47.1445L67.9477 44.3709C67.1106 43.5386 66.2282 42.6562 65.3387 41.7786C65.1218 41.588 64.9537 41.3482 64.8483 41.0794C64.7429 40.8106 64.7034 40.5204 64.733 40.2332C64.7562 39.9035 64.8754 39.5879 65.0758 39.3252C65.2763 39.0624 65.5492 38.8641 65.861 38.7546C66.1833 38.6197 66.5394 38.5873 66.8808 38.662C67.2221 38.7367 67.5322 38.9147 67.7688 39.1719C68.7013 40.0853 69.6122 41.0154 70.4779 41.8835L73.2633 39.0956C72.8889 38.7403 72.4668 38.3539 72.0709 37.9509C70.6806 36.5653 69.2855 35.182 67.9071 33.7798C67.6177 33.5026 67.4304 33.1359 67.3754 32.7389C67.3204 32.342 67.4011 31.9382 67.6042 31.5928C67.7877 31.2585 68.079 30.9961 68.4306 30.8485C68.7822 30.7008 69.1735 30.6765 69.5407 30.7796C69.9332 30.9083 70.2901 31.1272 70.5828 31.4187C72.1997 32.9999 73.788 34.6097 75.3881 36.2075C75.536 36.3554 75.691 36.4985 75.8317 36.6297C75.8863 36.6006 75.9389 36.568 75.9891 36.5319C76.4398 36.0835 76.8929 35.6399 77.3389 35.1868C78.0781 34.4308 78.0805 33.7201 77.3245 32.9641C74.6488 30.282 71.9692 27.6022 69.2855 24.9248C68.4794 24.1234 67.7926 24.1306 66.9794 24.9462L24.6784 67.2513C23.8485 68.0836 23.8533 68.7585 24.6927 69.6004L30.2468 75.1571C31.0887 75.999 31.9162 76.848 32.7771 77.6779C33.3757 78.2622 34.0815 78.3504 34.6443 77.852C35.2453 77.3178 35.7819 76.7073 36.3614 76.111C36.2112 75.9537 36.08 75.8082 35.9441 75.6698C35.1595 74.8828 34.3606 74.1078 33.5927 73.3064C33.3237 73.0368 33.1495 72.6871 33.0962 72.31C33.0429 71.9329 33.1133 71.5486 33.297 71.2149C33.4596 70.8811 33.73 70.6118 34.0644 70.4504C34.3988 70.289 34.7779 70.245 35.1404 70.3254C35.5745 70.4456 35.9719 70.6718 36.297 70.9836C37.1889 71.8183 38.0307 72.7102 38.8606 73.5473L41.6317 70.7809C39.9123 69.0638 38.1548 67.3157 36.4019 65.5604C35.5577 64.7162 35.4981 63.612 36.2469 62.8703C36.9957 62.1286 38.0641 62.1787 38.9346 63.0444C40.5371 64.6343 42.1373 66.2329 43.7351 67.8403C43.8854 67.993 44.0451 68.1361 44.1644 68.2505L46.8973 65.5199C46.7924 65.4054 46.6588 65.2599 46.5229 65.1216C45.7407 64.3346 44.937 63.5667 44.1739 62.7606C43.9455 62.5371 43.7817 62.256 43.6999 61.9471C43.618 61.6382 43.6211 61.3129 43.7088 61.0056C43.7965 60.6983 43.9655 60.4204 44.1981 60.2012C44.4307 59.9821 44.7181 59.8298 45.03 59.7604C45.3406 59.6855 45.6658 59.6967 45.9705 59.7929C46.2752 59.8892 46.5478 60.0668 46.759 60.3066L49.3822 62.9538L52.2082 60.1301C52.0398 60.0257 51.8803 59.9076 51.7312 59.7771C50.1406 58.1983 48.5476 56.622 46.9832 55.0074C46.6799 54.6993 46.4564 54.322 46.3321 53.908C46.2373 53.5384 46.272 53.1474 46.4304 52.8003C46.5888 52.4532 46.8613 52.1707 47.2025 52.0001C47.5568 51.8129 47.963 51.748 48.3579 51.8152C48.7529 51.8825 49.1146 52.0783 49.387 52.3721C51.0349 54.0058 52.6708 55.6513 54.3116 57.2921C54.4594 57.44 54.6168 57.5783 54.7003 57.6546L57.3903 55.0026C57.2949 54.9001 57.1661 54.7642 57.0278 54.6187C56.2456 53.8317 55.4395 53.0637 54.6788 52.2553C54.4622 52.0406 54.3047 51.7737 54.2217 51.4802C54.1386 51.1868 54.1328 50.8769 54.2048 50.5806C54.2768 50.2842 54.4241 50.0115 54.6325 49.7889C54.8409 49.5663 55.1033 49.4013 55.3942 49.31C55.7262 49.1949 56.085 49.1814 56.4248 49.271C56.7645 49.3606 57.0699 49.5493 57.302 49.8132L59.9372 52.458L62.6964 49.6892ZM62.322 70.2395L69.9175 62.6461L62.5247 55.2721C60.0135 57.7858 57.4547 60.3423 54.9387 62.8584L62.322 70.2395ZM64.9452 72.8819C66.2115 74.1745 67.4159 75.4934 68.7156 76.6977C69.7427 77.6567 71.1025 78.1786 72.5074 78.1532C73.9124 78.1279 75.2524 77.5572 76.2442 76.5618C77.2476 75.5792 77.8306 74.2456 77.8707 72.8418C77.9107 71.438 77.4046 70.0734 76.4589 69.0352C75.2546 67.7235 73.9477 66.5001 72.6862 65.2408C72.6623 65.217 72.6147 65.217 72.6027 65.2122C70.0526 67.7863 67.5049 70.3452 64.9595 72.8891L64.9452 72.8819ZM38.3336 30.9322C36.6643 28.9909 34.7374 27.4789 32.1809 26.8994C30.8287 26.5942 29.4909 26.2293 28.1482 25.8906L24.8096 25.0488C24.8009 25.128 24.8009 25.208 24.8096 25.2873C25.4566 27.8391 26.1045 30.3901 26.7532 32.9403C27.3613 35.3251 28.8804 37.0899 30.6499 38.6353C33.2278 36.0501 35.7747 33.5031 38.3479 30.9322H38.3336ZM40.9569 33.608L33.3614 41.1943L39.4282 47.2447L47.0261 39.6656L40.9569 33.608Z" fill="#15F2FD"/>
</g>
<g filter="url(#filter1_f_4264_13683)">
<path d="M49.6493 37.2497C51.4045 35.4849 53.0405 33.8394 54.6788 32.1962C57.9046 28.9703 61.132 25.7436 64.361 22.5161C66.7052 20.1741 69.5812 20.1693 71.9183 22.5161C74.5272 25.1251 77.137 27.7341 79.7475 30.3432C82.0536 32.6541 82.0536 35.5469 79.7475 37.8602C75.0352 42.5743 70.3197 47.2868 65.601 51.9977C65.4204 52.1545 65.2274 52.2965 65.0239 52.4222L64.9691 52.6941C65.1867 52.7971 65.3916 52.9252 65.5796 53.0757C69.9914 57.4749 74.3977 61.8806 78.7984 66.2926C80.3868 67.8669 81.3333 69.9755 81.454 72.2087C81.5748 74.4419 80.8612 76.6402 79.4518 78.3767C76.1465 82.4953 69.9318 82.927 66.1591 79.2209C61.671 74.8113 57.2496 70.3373 52.8044 65.8848C52.651 65.703 52.5138 65.5083 52.3942 65.3029L52.1104 65.2671C52.005 65.4804 51.8771 65.6819 51.7288 65.8681C47.034 70.5742 42.3344 75.2756 37.6301 79.9721C35.2453 82.3689 32.3836 82.357 29.9988 79.9721C27.401 77.3774 24.8048 74.7819 22.2102 72.1856C19.9089 69.8818 19.916 66.9842 22.2293 64.6732C26.959 59.9433 31.6888 55.2165 36.4186 50.4929C36.5877 50.3536 36.7708 50.2321 36.9647 50.1304L36.9862 49.8466C36.7854 49.7533 36.5965 49.6364 36.4234 49.4984C33.3232 46.3981 30.2349 43.2834 27.1228 40.1974C25.1352 38.2651 23.7445 35.8025 23.1164 33.1024C22.3199 29.7636 21.4471 26.4582 20.6267 23.1289C20.5312 22.6896 20.5627 22.2323 20.7173 21.8101C20.8735 21.4282 21.1657 21.1176 21.5373 20.9384C21.909 20.7591 22.3339 20.7239 22.73 20.8395C26.4765 21.7791 30.2278 22.6997 33.9599 23.7013C36.1873 24.2999 38.0737 25.5305 39.7025 27.1641C42.8694 30.344 46.0388 33.5158 49.2105 36.6797C49.3662 36.8623 49.5126 37.0525 49.6493 37.2497ZM62.6964 49.6892C60.9316 47.9291 59.1407 46.1572 57.3664 44.3685C57.1912 44.2061 57.0503 44.0101 56.9523 43.7922C56.8542 43.5743 56.8009 43.3389 56.7956 43.1C56.7903 42.8611 56.8329 42.6235 56.9212 42.4015C57.0094 42.1794 57.1414 41.9773 57.3092 41.8072C58.0246 41.0917 59.093 41.0917 59.868 41.8334C60.4428 42.382 60.9961 42.9496 61.5565 43.5028L65.1646 47.1445L67.9477 44.3709C67.1106 43.5386 66.2282 42.6562 65.3387 41.7786C65.1218 41.588 64.9537 41.3482 64.8483 41.0794C64.7429 40.8106 64.7034 40.5204 64.733 40.2332C64.7562 39.9035 64.8754 39.5879 65.0758 39.3252C65.2763 39.0624 65.5492 38.8641 65.861 38.7546C66.1833 38.6197 66.5394 38.5873 66.8808 38.662C67.2221 38.7367 67.5322 38.9147 67.7688 39.1719C68.7013 40.0853 69.6122 41.0154 70.4779 41.8835L73.2633 39.0956C72.8889 38.7403 72.4668 38.3539 72.0709 37.9509C70.6806 36.5653 69.2855 35.182 67.9071 33.7798C67.6177 33.5026 67.4304 33.1359 67.3754 32.7389C67.3204 32.342 67.4011 31.9382 67.6042 31.5928C67.7877 31.2585 68.079 30.9961 68.4306 30.8485C68.7822 30.7008 69.1735 30.6765 69.5407 30.7796C69.9332 30.9083 70.2901 31.1272 70.5828 31.4187C72.1997 32.9999 73.788 34.6097 75.3881 36.2075C75.536 36.3554 75.691 36.4985 75.8317 36.6297C75.8863 36.6006 75.9389 36.568 75.9891 36.5319C76.4398 36.0835 76.8929 35.6399 77.3389 35.1868C78.0781 34.4308 78.0805 33.7201 77.3245 32.9641C74.6488 30.282 71.9692 27.6022 69.2855 24.9248C68.4794 24.1234 67.7926 24.1306 66.9794 24.9462L24.6784 67.2513C23.8485 68.0836 23.8533 68.7585 24.6927 69.6004L30.2468 75.1571C31.0887 75.999 31.9162 76.848 32.7771 77.6779C33.3757 78.2622 34.0815 78.3504 34.6443 77.852C35.2453 77.3178 35.7819 76.7073 36.3614 76.111C36.2112 75.9537 36.08 75.8082 35.9441 75.6698C35.1595 74.8828 34.3606 74.1078 33.5927 73.3064C33.3237 73.0368 33.1495 72.6871 33.0962 72.31C33.0429 71.9329 33.1133 71.5486 33.297 71.2149C33.4596 70.8811 33.73 70.6118 34.0644 70.4504C34.3988 70.289 34.7779 70.245 35.1404 70.3254C35.5745 70.4456 35.9719 70.6718 36.297 70.9836C37.1889 71.8183 38.0307 72.7102 38.8606 73.5473L41.6317 70.7809C39.9123 69.0638 38.1548 67.3157 36.4019 65.5604C35.5577 64.7162 35.4981 63.612 36.2469 62.8703C36.9957 62.1286 38.0641 62.1787 38.9346 63.0444C40.5371 64.6343 42.1373 66.2329 43.7351 67.8403C43.8854 67.993 44.0451 68.1361 44.1644 68.2505L46.8973 65.5199C46.7924 65.4054 46.6588 65.2599 46.5229 65.1216C45.7407 64.3346 44.937 63.5667 44.1739 62.7606C43.9455 62.5371 43.7817 62.256 43.6999 61.9471C43.618 61.6382 43.6211 61.3129 43.7088 61.0056C43.7965 60.6983 43.9655 60.4204 44.1981 60.2012C44.4307 59.9821 44.7181 59.8298 45.03 59.7604C45.3406 59.6855 45.6658 59.6967 45.9705 59.7929C46.2752 59.8892 46.5478 60.0668 46.759 60.3066L49.3822 62.9538L52.2082 60.1301C52.0398 60.0257 51.8803 59.9076 51.7312 59.7771C50.1406 58.1983 48.5476 56.622 46.9832 55.0074C46.6799 54.6993 46.4564 54.322 46.3321 53.908C46.2373 53.5384 46.272 53.1474 46.4304 52.8003C46.5888 52.4532 46.8613 52.1707 47.2025 52.0001C47.5568 51.8129 47.963 51.748 48.3579 51.8152C48.7529 51.8825 49.1146 52.0783 49.387 52.3721C51.0349 54.0058 52.6708 55.6513 54.3116 57.2921C54.4594 57.44 54.6168 57.5783 54.7003 57.6546L57.3903 55.0026C57.2949 54.9001 57.1661 54.7642 57.0278 54.6187C56.2456 53.8317 55.4395 53.0637 54.6788 52.2553C54.4622 52.0406 54.3047 51.7737 54.2217 51.4802C54.1386 51.1868 54.1328 50.8769 54.2048 50.5806C54.2768 50.2842 54.4241 50.0115 54.6325 49.7889C54.8409 49.5663 55.1033 49.4013 55.3942 49.31C55.7262 49.1949 56.085 49.1814 56.4248 49.271C56.7645 49.3606 57.0699 49.5493 57.302 49.8132L59.9372 52.458L62.6964 49.6892ZM62.322 70.2395L69.9175 62.6461L62.5247 55.2721C60.0135 57.7858 57.4547 60.3423 54.9387 62.8584L62.322 70.2395ZM64.9452 72.8819C66.2115 74.1745 67.4159 75.4934 68.7156 76.6977C69.7427 77.6567 71.1025 78.1786 72.5074 78.1532C73.9124 78.1279 75.2524 77.5572 76.2442 76.5618C77.2476 75.5792 77.8306 74.2456 77.8707 72.8418C77.9107 71.438 77.4046 70.0734 76.4589 69.0352C75.2546 67.7235 73.9477 66.5001 72.6862 65.2408C72.6623 65.217 72.6147 65.217 72.6027 65.2122C70.0526 67.7863 67.5049 70.3452 64.9595 72.8891L64.9452 72.8819ZM38.3336 30.9322C36.6643 28.9909 34.7374 27.4789 32.1809 26.8994C30.8287 26.5942 29.4909 26.2293 28.1482 25.8906L24.8096 25.0488C24.8009 25.128 24.8009 25.208 24.8096 25.2873C25.4566 27.8391 26.1045 30.3901 26.7532 32.9403C27.3613 35.3251 28.8804 37.0899 30.6499 38.6353C33.2278 36.0501 35.7747 33.5031 38.3479 30.9322H38.3336ZM40.9569 33.608L33.3614 41.1943L39.4282 47.2447L47.0261 39.6656L40.9569 33.608Z" fill="#15F2FD"/>
</g>
<g filter="url(#filter2_f_4264_13683)">
<path d="M49.6493 37.2497C51.4045 35.4849 53.0405 33.8394 54.6788 32.1962C57.9046 28.9703 61.132 25.7436 64.361 22.5161C66.7052 20.1741 69.5812 20.1693 71.9183 22.5161C74.5272 25.1251 77.137 27.7341 79.7475 30.3432C82.0536 32.6541 82.0536 35.5469 79.7475 37.8602C75.0352 42.5743 70.3197 47.2868 65.601 51.9977C65.4204 52.1545 65.2274 52.2965 65.0239 52.4222L64.9691 52.6941C65.1867 52.7971 65.3916 52.9252 65.5796 53.0757C69.9914 57.4749 74.3977 61.8806 78.7984 66.2926C80.3868 67.8669 81.3333 69.9755 81.454 72.2087C81.5748 74.4419 80.8612 76.6402 79.4518 78.3767C76.1465 82.4953 69.9318 82.927 66.1591 79.2209C61.671 74.8113 57.2496 70.3373 52.8044 65.8848C52.651 65.703 52.5138 65.5083 52.3942 65.3029L52.1104 65.2671C52.005 65.4804 51.8771 65.6819 51.7288 65.8681C47.034 70.5742 42.3344 75.2756 37.6301 79.9721C35.2453 82.3689 32.3836 82.357 29.9988 79.9721C27.401 77.3774 24.8048 74.7819 22.2102 72.1856C19.9089 69.8818 19.916 66.9842 22.2293 64.6732C26.959 59.9433 31.6888 55.2165 36.4186 50.4929C36.5877 50.3536 36.7708 50.2321 36.9647 50.1304L36.9862 49.8466C36.7854 49.7533 36.5965 49.6364 36.4234 49.4984C33.3232 46.3981 30.2349 43.2834 27.1228 40.1974C25.1352 38.2651 23.7445 35.8025 23.1164 33.1024C22.3199 29.7636 21.4471 26.4582 20.6267 23.1289C20.5312 22.6896 20.5627 22.2323 20.7173 21.8101C20.8735 21.4282 21.1657 21.1176 21.5373 20.9384C21.909 20.7591 22.3339 20.7239 22.73 20.8395C26.4765 21.7791 30.2278 22.6997 33.9599 23.7013C36.1873 24.2999 38.0737 25.5305 39.7025 27.1641C42.8694 30.344 46.0388 33.5158 49.2105 36.6797C49.3662 36.8623 49.5126 37.0525 49.6493 37.2497ZM62.6964 49.6892C60.9316 47.9291 59.1407 46.1572 57.3664 44.3685C57.1912 44.2061 57.0503 44.0101 56.9523 43.7922C56.8542 43.5743 56.8009 43.3389 56.7956 43.1C56.7903 42.8611 56.8329 42.6235 56.9212 42.4015C57.0094 42.1794 57.1414 41.9773 57.3092 41.8072C58.0246 41.0917 59.093 41.0917 59.868 41.8334C60.4428 42.382 60.9961 42.9496 61.5565 43.5028L65.1646 47.1445L67.9477 44.3709C67.1106 43.5386 66.2282 42.6562 65.3387 41.7786C65.1218 41.588 64.9537 41.3482 64.8483 41.0794C64.7429 40.8106 64.7034 40.5204 64.733 40.2332C64.7562 39.9035 64.8754 39.5879 65.0758 39.3252C65.2763 39.0624 65.5492 38.8641 65.861 38.7546C66.1833 38.6197 66.5394 38.5873 66.8808 38.662C67.2221 38.7367 67.5322 38.9147 67.7688 39.1719C68.7013 40.0853 69.6122 41.0154 70.4779 41.8835L73.2633 39.0956C72.8889 38.7403 72.4668 38.3539 72.0709 37.9509C70.6806 36.5653 69.2855 35.182 67.9071 33.7798C67.6177 33.5026 67.4304 33.1359 67.3754 32.7389C67.3204 32.342 67.4011 31.9382 67.6042 31.5928C67.7877 31.2585 68.079 30.9961 68.4306 30.8485C68.7822 30.7008 69.1735 30.6765 69.5407 30.7796C69.9332 30.9083 70.2901 31.1272 70.5828 31.4187C72.1997 32.9999 73.788 34.6097 75.3881 36.2075C75.536 36.3554 75.691 36.4985 75.8317 36.6297C75.8863 36.6006 75.9389 36.568 75.9891 36.5319C76.4398 36.0835 76.8929 35.6399 77.3389 35.1868C78.0781 34.4308 78.0805 33.7201 77.3245 32.9641C74.6488 30.282 71.9692 27.6022 69.2855 24.9248C68.4794 24.1234 67.7926 24.1306 66.9794 24.9462L24.6784 67.2513C23.8485 68.0836 23.8533 68.7585 24.6927 69.6004L30.2468 75.1571C31.0887 75.999 31.9162 76.848 32.7771 77.6779C33.3757 78.2622 34.0815 78.3504 34.6443 77.852C35.2453 77.3178 35.7819 76.7073 36.3614 76.111C36.2112 75.9537 36.08 75.8082 35.9441 75.6698C35.1595 74.8828 34.3606 74.1078 33.5927 73.3064C33.3237 73.0368 33.1495 72.6871 33.0962 72.31C33.0429 71.9329 33.1133 71.5486 33.297 71.2149C33.4596 70.8811 33.73 70.6118 34.0644 70.4504C34.3988 70.289 34.7779 70.245 35.1404 70.3254C35.5745 70.4456 35.9719 70.6718 36.297 70.9836C37.1889 71.8183 38.0307 72.7102 38.8606 73.5473L41.6317 70.7809C39.9123 69.0638 38.1548 67.3157 36.4019 65.5604C35.5577 64.7162 35.4981 63.612 36.2469 62.8703C36.9957 62.1286 38.0641 62.1787 38.9346 63.0444C40.5371 64.6343 42.1373 66.2329 43.7351 67.8403C43.8854 67.993 44.0451 68.1361 44.1644 68.2505L46.8973 65.5199C46.7924 65.4054 46.6588 65.2599 46.5229 65.1216C45.7407 64.3346 44.937 63.5667 44.1739 62.7606C43.9455 62.5371 43.7817 62.256 43.6999 61.9471C43.618 61.6382 43.6211 61.3129 43.7088 61.0056C43.7965 60.6983 43.9655 60.4204 44.1981 60.2012C44.4307 59.9821 44.7181 59.8298 45.03 59.7604C45.3406 59.6855 45.6658 59.6967 45.9705 59.7929C46.2752 59.8892 46.5478 60.0668 46.759 60.3066L49.3822 62.9538L52.2082 60.1301C52.0398 60.0257 51.8803 59.9076 51.7312 59.7771C50.1406 58.1983 48.5476 56.622 46.9832 55.0074C46.6799 54.6993 46.4564 54.322 46.3321 53.908C46.2373 53.5384 46.272 53.1474 46.4304 52.8003C46.5888 52.4532 46.8613 52.1707 47.2025 52.0001C47.5568 51.8129 47.963 51.748 48.3579 51.8152C48.7529 51.8825 49.1146 52.0783 49.387 52.3721C51.0349 54.0058 52.6708 55.6513 54.3116 57.2921C54.4594 57.44 54.6168 57.5783 54.7003 57.6546L57.3903 55.0026C57.2949 54.9001 57.1661 54.7642 57.0278 54.6187C56.2456 53.8317 55.4395 53.0637 54.6788 52.2553C54.4622 52.0406 54.3047 51.7737 54.2217 51.4802C54.1386 51.1868 54.1328 50.8769 54.2048 50.5806C54.2768 50.2842 54.4241 50.0115 54.6325 49.7889C54.8409 49.5663 55.1033 49.4013 55.3942 49.31C55.7262 49.1949 56.085 49.1814 56.4248 49.271C56.7645 49.3606 57.0699 49.5493 57.302 49.8132L59.9372 52.458L62.6964 49.6892ZM62.322 70.2395L69.9175 62.6461L62.5247 55.2721C60.0135 57.7858 57.4547 60.3423 54.9387 62.8584L62.322 70.2395ZM64.9452 72.8819C66.2115 74.1745 67.4159 75.4934 68.7156 76.6977C69.7427 77.6567 71.1025 78.1786 72.5074 78.1532C73.9124 78.1279 75.2524 77.5572 76.2442 76.5618C77.2476 75.5792 77.8306 74.2456 77.8707 72.8418C77.9107 71.438 77.4046 70.0734 76.4589 69.0352C75.2546 67.7235 73.9477 66.5001 72.6862 65.2408C72.6623 65.217 72.6147 65.217 72.6027 65.2122C70.0526 67.7863 67.5049 70.3452 64.9595 72.8891L64.9452 72.8819ZM38.3336 30.9322C36.6643 28.9909 34.7374 27.4789 32.1809 26.8994C30.8287 26.5942 29.4909 26.2293 28.1482 25.8906L24.8096 25.0488C24.8009 25.128 24.8009 25.208 24.8096 25.2873C25.4566 27.8391 26.1045 30.3901 26.7532 32.9403C27.3613 35.3251 28.8804 37.0899 30.6499 38.6353C33.2278 36.0501 35.7747 33.5031 38.3479 30.9322H38.3336ZM40.9569 33.608L33.3614 41.1943L39.4282 47.2447L47.0261 39.6656L40.9569 33.608Z" fill="#15F2FD"/>
</g>
<g filter="url(#filter3_d_4264_13683)">
<path d="M49.6493 37.2497C51.4045 35.4849 53.0405 33.8394 54.6788 32.1962C57.9046 28.9703 61.132 25.7436 64.361 22.5161C66.7052 20.1741 69.5812 20.1693 71.9183 22.5161C74.5272 25.1251 77.137 27.7341 79.7475 30.3432C82.0536 32.6541 82.0536 35.5469 79.7475 37.8602C75.0352 42.5743 70.3197 47.2868 65.601 51.9977C65.4204 52.1545 65.2274 52.2965 65.0239 52.4222L64.9691 52.6941C65.1867 52.7971 65.3916 52.9252 65.5796 53.0757C69.9914 57.4749 74.3977 61.8806 78.7984 66.2926C80.3868 67.8669 81.3333 69.9755 81.454 72.2087C81.5748 74.4419 80.8612 76.6402 79.4518 78.3767C76.1465 82.4953 69.9318 82.927 66.1591 79.2209C61.671 74.8113 57.2496 70.3373 52.8044 65.8848C52.651 65.703 52.5138 65.5083 52.3942 65.3029L52.1104 65.2671C52.005 65.4804 51.8771 65.6819 51.7288 65.8681C47.034 70.5742 42.3344 75.2756 37.6301 79.9721C35.2453 82.3689 32.3836 82.357 29.9988 79.9721C27.401 77.3774 24.8048 74.7819 22.2102 72.1856C19.9089 69.8818 19.916 66.9842 22.2293 64.6732C26.959 59.9433 31.6888 55.2165 36.4186 50.4929C36.5877 50.3536 36.7708 50.2321 36.9647 50.1304L36.9862 49.8466C36.7854 49.7533 36.5965 49.6364 36.4234 49.4984C33.3232 46.3981 30.2349 43.2834 27.1228 40.1974C25.1352 38.2651 23.7445 35.8025 23.1164 33.1024C22.3199 29.7636 21.4471 26.4582 20.6267 23.1289C20.5312 22.6896 20.5627 22.2323 20.7173 21.8101C20.8735 21.4282 21.1657 21.1176 21.5373 20.9384C21.909 20.7591 22.3339 20.7239 22.73 20.8395C26.4765 21.7791 30.2278 22.6997 33.9599 23.7013C36.1873 24.2999 38.0737 25.5305 39.7025 27.1641C42.8694 30.344 46.0388 33.5158 49.2105 36.6797C49.3662 36.8623 49.5126 37.0525 49.6493 37.2497ZM62.6964 49.6892C60.9316 47.9291 59.1407 46.1572 57.3664 44.3685C57.1912 44.2061 57.0503 44.0101 56.9523 43.7922C56.8542 43.5743 56.8009 43.3389 56.7956 43.1C56.7903 42.8611 56.8329 42.6235 56.9212 42.4015C57.0094 42.1794 57.1414 41.9773 57.3092 41.8072C58.0246 41.0917 59.093 41.0917 59.868 41.8334C60.4428 42.382 60.9961 42.9496 61.5565 43.5028L65.1646 47.1445L67.9477 44.3709C67.1106 43.5386 66.2282 42.6562 65.3387 41.7786C65.1218 41.588 64.9537 41.3482 64.8483 41.0794C64.7429 40.8106 64.7034 40.5204 64.733 40.2332C64.7562 39.9035 64.8754 39.5879 65.0758 39.3252C65.2763 39.0624 65.5492 38.8641 65.861 38.7546C66.1833 38.6197 66.5394 38.5873 66.8808 38.662C67.2221 38.7367 67.5322 38.9147 67.7688 39.1719C68.7013 40.0853 69.6122 41.0154 70.4779 41.8835L73.2633 39.0956C72.8889 38.7403 72.4668 38.3539 72.0709 37.9509C70.6806 36.5653 69.2855 35.182 67.9071 33.7798C67.6177 33.5026 67.4304 33.1359 67.3754 32.7389C67.3204 32.342 67.4011 31.9382 67.6042 31.5928C67.7877 31.2585 68.079 30.9961 68.4306 30.8485C68.7822 30.7008 69.1735 30.6765 69.5407 30.7796C69.9332 30.9083 70.2901 31.1272 70.5828 31.4187C72.1997 32.9999 73.788 34.6097 75.3881 36.2075C75.536 36.3554 75.691 36.4985 75.8317 36.6297C75.8863 36.6006 75.9389 36.568 75.9891 36.5319C76.4398 36.0835 76.8929 35.6399 77.3389 35.1868C78.0781 34.4308 78.0805 33.7201 77.3245 32.9641C74.6488 30.282 71.9692 27.6022 69.2855 24.9248C68.4794 24.1234 67.7926 24.1306 66.9794 24.9462L24.6784 67.2513C23.8485 68.0836 23.8533 68.7585 24.6927 69.6004L30.2468 75.1571C31.0887 75.999 31.9162 76.848 32.7771 77.6779C33.3757 78.2622 34.0815 78.3504 34.6443 77.852C35.2453 77.3178 35.7819 76.7073 36.3614 76.111C36.2112 75.9537 36.08 75.8082 35.9441 75.6698C35.1595 74.8828 34.3606 74.1078 33.5927 73.3064C33.3237 73.0368 33.1495 72.6871 33.0962 72.31C33.0429 71.9329 33.1133 71.5486 33.297 71.2149C33.4596 70.8811 33.73 70.6118 34.0644 70.4504C34.3988 70.289 34.7779 70.245 35.1404 70.3254C35.5745 70.4456 35.9719 70.6718 36.297 70.9836C37.1889 71.8183 38.0307 72.7102 38.8606 73.5473L41.6317 70.7809C39.9123 69.0638 38.1548 67.3157 36.4019 65.5604C35.5577 64.7162 35.4981 63.612 36.2469 62.8703C36.9957 62.1286 38.0641 62.1787 38.9346 63.0444C40.5371 64.6343 42.1373 66.2329 43.7351 67.8403C43.8854 67.993 44.0451 68.1361 44.1644 68.2505L46.8973 65.5199C46.7924 65.4054 46.6588 65.2599 46.5229 65.1216C45.7407 64.3346 44.937 63.5667 44.1739 62.7606C43.9455 62.5371 43.7817 62.256 43.6999 61.9471C43.618 61.6382 43.6211 61.3129 43.7088 61.0056C43.7965 60.6983 43.9655 60.4204 44.1981 60.2012C44.4307 59.9821 44.7181 59.8298 45.03 59.7604C45.3406 59.6855 45.6658 59.6967 45.9705 59.7929C46.2752 59.8892 46.5478 60.0668 46.759 60.3066L49.3822 62.9538L52.2082 60.1301C52.0398 60.0257 51.8803 59.9076 51.7312 59.7771C50.1406 58.1983 48.5476 56.622 46.9832 55.0074C46.6799 54.6993 46.4564 54.322 46.3321 53.908C46.2373 53.5384 46.272 53.1474 46.4304 52.8003C46.5888 52.4532 46.8613 52.1707 47.2025 52.0001C47.5568 51.8129 47.963 51.748 48.3579 51.8152C48.7529 51.8825 49.1146 52.0783 49.387 52.3721C51.0349 54.0058 52.6708 55.6513 54.3116 57.2921C54.4594 57.44 54.6168 57.5783 54.7003 57.6546L57.3903 55.0026C57.2949 54.9001 57.1661 54.7642 57.0278 54.6187C56.2456 53.8317 55.4395 53.0637 54.6788 52.2553C54.4622 52.0406 54.3047 51.7737 54.2217 51.4802C54.1386 51.1868 54.1328 50.8769 54.2048 50.5806C54.2768 50.2842 54.4241 50.0115 54.6325 49.7889C54.8409 49.5663 55.1033 49.4013 55.3942 49.31C55.7262 49.1949 56.085 49.1814 56.4248 49.271C56.7645 49.3606 57.0699 49.5493 57.302 49.8132L59.9372 52.458L62.6964 49.6892ZM62.322 70.2395L69.9175 62.6461L62.5247 55.2721C60.0135 57.7858 57.4547 60.3423 54.9387 62.8584L62.322 70.2395ZM64.9452 72.8819C66.2115 74.1745 67.4159 75.4934 68.7156 76.6977C69.7427 77.6567 71.1025 78.1786 72.5074 78.1532C73.9124 78.1279 75.2524 77.5572 76.2442 76.5618C77.2476 75.5792 77.8306 74.2456 77.8707 72.8418C77.9107 71.438 77.4046 70.0734 76.4589 69.0352C75.2546 67.7235 73.9477 66.5001 72.6862 65.2408C72.6623 65.217 72.6147 65.217 72.6027 65.2122C70.0526 67.7863 67.5049 70.3452 64.9595 72.8891L64.9452 72.8819ZM38.3336 30.9322C36.6643 28.9909 34.7374 27.4789 32.1809 26.8994C30.8287 26.5942 29.4909 26.2293 28.1482 25.8906L24.8096 25.0488C24.8009 25.128 24.8009 25.208 24.8096 25.2873C25.4566 27.8391 26.1045 30.3901 26.7532 32.9403C27.3613 35.3251 28.8804 37.0899 30.6499 38.6353C33.2278 36.0501 35.7747 33.5031 38.3479 30.9322H38.3336ZM40.9569 33.608L33.3614 41.1943L39.4282 47.2447L47.0261 39.6656L40.9569 33.608Z" fill="white"/>
</g>
<defs>
<filter id="filter0_f_4264_13683" x="0.489258" y="0.757812" width="100.988" height="101.008" filterUnits="userSpaceOnUse" color-interpolation-filters="sRGB">
<feFlood flood-opacity="0" result="BackgroundImageFix"/>
<feBlend mode="normal" in="SourceGraphic" in2="BackgroundImageFix" result="shape"/>
<feGaussianBlur stdDeviation="10" result="effect1_foregroundBlur_4264_13683"/>
</filter>
<filter id="filter1_f_4264_13683" x="10.4893" y="10.7578" width="80.9883" height="81.0076" filterUnits="userSpaceOnUse" color-interpolation-filters="sRGB">
<feFlood flood-opacity="0" result="BackgroundImageFix"/>
<feBlend mode="normal" in="SourceGraphic" in2="BackgroundImageFix" result="shape"/>
<feGaussianBlur stdDeviation="5" result="effect1_foregroundBlur_4264_13683"/>
</filter>
<filter id="filter2_f_4264_13683" x="15.4893" y="15.7578" width="70.9883" height="71.0076" filterUnits="userSpaceOnUse" color-interpolation-filters="sRGB">
<feFlood flood-opacity="0" result="BackgroundImageFix"/>
<feBlend mode="normal" in="SourceGraphic" in2="BackgroundImageFix" result="shape"/>
<feGaussianBlur stdDeviation="2.5" result="effect1_foregroundBlur_4264_13683"/>
</filter>
<filter id="filter3_d_4264_13683" x="16.4893" y="20.7578" width="68.9883" height="69.0076" filterUnits="userSpaceOnUse" color-interpolation-filters="sRGB">
<feFlood flood-opacity="0" result="BackgroundImageFix"/>
<feColorMatrix in="SourceAlpha" type="matrix" values="0 0 0 0 0 0 0 0 0 0 0 0 0 0 0 0 0 0 127 0" result="hardAlpha"/>
<feOffset dy="4"/>
<feGaussianBlur stdDeviation="2"/>
<feComposite in2="hardAlpha" operator="out"/>
<feColorMatrix type="matrix" values="0 0 0 0 0 0 0 0 0 0 0 0 0 0 0 0 0 0 0.25 0"/>
<feBlend mode="normal" in2="BackgroundImageFix" result="effect1_dropShadow_4264_13683"/>
<feBlend mode="normal" in="SourceGraphic" in2="effect1_dropShadow_4264_13683" result="shape"/>
</filter>
</defs>
</svg>
