<svg width="105" height="105" viewBox="0 0 105 105" fill="none" xmlns="http://www.w3.org/2000/svg">
<g filter="url(#filter0_f_4522_15508)">
<path d="M40.1068 56.9762C39.7236 56.0386 39.8563 55.106 40.1694 54.1784C40.7129 52.5857 41.2465 50.988 41.8075 49.4003C42.0755 48.6502 41.9227 48.3477 41.1262 48.3077C38.872 48.1977 36.8883 48.8328 35.2101 50.3629L35.1174 50.448C34.6841 50.888 34.1782 51.078 33.5871 50.823C32.996 50.568 32.8156 50.0579 32.8357 49.4428C32.9582 46.6254 33.7041 43.87 35.0198 41.3744C35.7824 39.8416 36.7824 38.4384 37.9828 37.2164C41.2389 33.966 45.2991 33.3535 49.3817 35.4862L49.9878 35.8062C50.2158 35.5562 50.4487 35.2912 50.6766 35.0261C55.3504 29.633 61.1964 25.9851 67.8438 23.5248C72.6807 21.7439 77.7353 20.6195 82.872 20.1819C83.0373 20.1669 83.2051 20.1544 83.3729 20.1494C84.4575 20.1144 85.0235 20.622 84.9133 21.6896C84.7129 23.6348 84.5125 25.5875 84.1619 27.5103C83.0623 33.641 81.0886 39.4667 77.9152 44.8598C75.7531 48.5311 72.9926 51.8165 69.7474 54.5809C69.5896 54.7135 69.4368 54.8535 69.3241 54.9535C69.7299 55.9961 70.2183 56.9712 70.4938 58.0038C71.2903 61.0042 70.6341 63.7045 68.6654 66.0723C66.3135 68.9001 63.1951 70.5378 59.7111 71.4804C58.356 71.848 56.9233 71.948 55.5232 72.1355C55.2499 72.1857 54.9677 72.1379 54.7262 72.0007C54.4848 71.8635 54.2995 71.6456 54.2032 71.3854C53.9528 70.8254 54.1206 70.3353 54.5339 69.9027C56.1218 68.2475 56.8056 66.2548 56.7305 63.9845C56.6979 63.0469 56.4374 62.8994 55.5708 63.2045C54.0004 63.7595 52.4274 64.3096 50.8394 64.8071C49.4618 65.2372 49.3567 65.2047 48.0267 64.9172C47.9916 64.9397 47.944 64.9572 47.929 64.9897C46.4262 68.115 43.9214 70.0102 40.6253 70.8603C38.594 71.3829 36.5151 71.738 34.4462 72.1105C33.4093 72.2905 32.743 71.6579 32.8482 70.6528C33.1413 67.85 33.6923 65.1047 34.7718 62.4794C35.7286 60.1566 37.3692 58.4789 39.5458 57.3063L39.9891 57.0712C40.0217 57.0787 40.0317 57.0587 40.1068 56.9762ZM79.1801 36.4063C79.0924 36.286 78.9979 36.1708 78.8971 36.0613C75.6076 32.7725 72.3205 29.4855 69.0361 26.2001C68.9492 26.0901 68.8267 26.0136 68.6896 25.984C68.5525 25.9543 68.4093 25.9733 68.2846 26.0376C64.3548 27.5553 60.6403 29.473 57.3516 32.1233C52.0592 36.3863 48.1794 41.7469 45.2389 47.8251C45.162 47.9451 45.1344 48.0901 45.1619 48.2298C45.1894 48.3696 45.27 48.4933 45.3867 48.5752C49.082 52.2423 52.7697 55.9253 56.45 59.624C56.4978 59.6893 56.558 59.7445 56.6273 59.7864C56.6966 59.8283 56.7735 59.8561 56.8536 59.8682C56.9337 59.8803 57.0154 59.8764 57.094 59.8568C57.1726 59.8372 57.2465 59.8023 57.3116 59.7541C58.629 59.0365 59.9841 58.3864 61.274 57.6263C69.5395 52.7507 75.6359 46.0049 78.9847 36.9264C79.0298 36.7789 79.0924 36.6238 79.1801 36.4063ZM35.5984 46.98C38.1657 45.8324 40.6077 45.4174 43.0799 46.1425L48.2345 37.7565C46.3109 36.3538 43.1951 36.3888 41.0085 37.944C38.6917 39.5892 37.3416 41.9295 36.3598 44.5173C36.0993 45.2674 35.8914 46.0499 35.5984 46.98ZM58.1406 69.2452C58.2183 69.2652 58.2608 69.2902 58.2959 69.2827C61.6597 68.4901 64.6754 67.0674 66.8745 64.3096C68.6854 62.0368 68.7831 58.9014 67.2978 56.7837L58.8169 61.9793C59.6084 63.427 59.393 65.9773 58.1532 69.2452H58.1406ZM35.5357 69.4677C37.6003 69.1929 39.6239 68.669 41.5621 67.9075C43.5032 67.1199 44.7906 65.6897 45.6998 63.857C45.8926 63.4695 45.8826 63.207 45.542 62.8844C44.3973 61.7893 43.2702 60.6767 42.1832 59.529C41.805 59.1265 41.5069 59.129 41.0536 59.359C39.2227 60.2841 37.8225 61.6093 37.0461 63.5395C36.3086 65.4479 35.8057 67.4384 35.5483 69.4677H35.5357ZM80.1193 33.556C81.2027 30.0397 81.9343 26.425 82.3034 22.7647C78.6382 23.1353 75.0188 23.8672 71.4982 24.95C74.3936 27.8178 77.2565 30.6756 80.1394 33.556H80.1193ZM54.2083 61.1592C50.7017 57.6738 47.3178 54.2834 43.8588 50.828C43.4005 52.2982 42.9446 53.8034 42.4612 55.2985C42.3815 55.5262 42.372 55.7726 42.4341 56.0057C42.4962 56.2389 42.6269 56.448 42.8094 56.6062C44.6754 58.4814 46.5414 60.3566 48.4374 62.2018C48.6879 62.4369 49.1463 62.6669 49.4393 62.5944C51.0473 62.1593 52.6428 61.6593 54.2083 61.1592Z" fill="#15F2FD"/>
<path d="M22.9146 84.1619C21.7348 84.1469 21.1362 83.1343 21.5896 82.3217C21.6978 82.1444 21.8302 81.9828 21.9828 81.8417C24.6779 79.1463 27.3654 76.4435 30.0855 73.7757C30.4033 73.4593 30.8229 73.2653 31.2702 73.2281C32.2345 73.2281 32.7305 74.3708 32.1744 75.1684C32.0733 75.301 31.961 75.4248 31.8388 75.5384C29.1671 78.2171 26.4821 80.8924 23.7837 83.5644C23.5165 83.7943 23.2251 83.9947 22.9146 84.1619Z" fill="#15F2FD"/>
<path d="M32.9358 84.1619C31.7837 84.1619 31.1826 83.1918 31.5833 82.3817C31.6798 82.1966 31.8049 82.0279 31.954 81.8817C34.6791 79.1563 37.3967 76.426 40.1469 73.7282C40.4553 73.4318 40.8592 73.2545 41.2865 73.2281C42.2508 73.2281 42.7492 74.3708 42.1932 75.1684C42.0937 75.3016 41.9822 75.4255 41.8601 75.5384C39.1801 78.2171 36.495 80.8924 33.805 83.5644C33.5376 83.7941 33.2462 83.9944 32.9358 84.1619Z" fill="#15F2FD"/>
<path d="M22.0429 73.7307C21.6396 73.4207 21.1813 73.2306 21.0235 72.8981C20.8657 72.5656 20.9583 72.078 21.0235 71.6705C21.0485 71.4979 21.2739 71.3454 21.4167 71.2004C24.0884 68.5334 26.755 65.8664 29.4167 63.1995C29.5448 63.0626 29.6839 62.9364 29.8325 62.8219C30.0629 62.6574 30.3425 62.5757 30.6254 62.5902C30.9084 62.6047 31.1781 62.7146 31.3904 62.9019C31.6107 63.0966 31.7534 63.3639 31.7925 63.655C31.8316 63.946 31.7644 64.2414 31.6033 64.4871C31.4869 64.6591 31.3516 64.8176 31.2 64.9597C28.5283 67.6267 25.8567 70.2886 23.185 72.9456C22.8278 73.2399 22.4457 73.5026 22.0429 73.7307Z" fill="#15F2FD"/>
<path d="M27.5407 58.3439C27.6565 58.0642 27.8117 57.8023 28.0016 57.5663C29.0987 56.4287 30.2233 55.3161 31.3479 54.2084C31.9215 53.6434 32.6729 53.6084 33.1863 54.0934C33.6998 54.5785 33.7198 55.3436 33.1187 55.9661C31.9941 57.1063 30.8645 58.2339 29.7198 59.3615C29.5486 59.5612 29.3165 59.6994 29.0591 59.755C28.8018 59.8105 28.5332 59.7803 28.2946 59.6691C27.8087 59.4566 27.5658 59.074 27.5407 58.3439Z" fill="#15F2FD"/>
<path d="M46.3911 77.5637C46.073 77.3136 45.6572 77.1086 45.4093 76.7786C45.2617 76.5818 45.1918 76.3377 45.2131 76.0928C45.2343 75.8479 45.3452 75.6194 45.5245 75.4509C46.7543 74.1833 47.9991 72.9306 49.2815 71.7005C49.5104 71.4947 49.8118 71.3881 50.1194 71.404C50.427 71.42 50.7158 71.5572 50.9221 71.7855C51.1452 71.9949 51.2792 72.2819 51.2964 72.5871C51.3137 72.8923 51.2129 73.1925 51.0148 73.4257C49.79 74.7008 48.5301 75.941 47.2577 77.1761C47.0824 77.3511 46.7818 77.3961 46.3911 77.5637Z" fill="#15F2FD"/>
<path d="M65.9903 45.3224C65.1697 45.3276 64.3562 45.1708 63.5965 44.8609C62.8369 44.551 62.1462 44.0941 61.5642 43.5166C60.9821 42.9391 60.5203 42.2523 60.2053 41.4959C59.8903 40.7395 59.7282 39.9283 59.7286 39.1091C59.7246 38.2858 59.8837 37.4697 60.1966 36.7079C60.5095 35.946 60.9701 35.2534 61.552 34.6698C62.1338 34.0862 62.8254 33.6231 63.5871 33.3071C64.3488 32.9911 65.1655 32.8284 65.9903 32.8284C67.6458 32.8402 69.2298 33.5031 70.3987 34.6733C71.5677 35.8435 72.2273 37.4266 72.2346 39.0791C72.2326 40.7326 71.5744 42.3179 70.4041 43.4881C69.2338 44.6582 67.6467 45.3177 65.9903 45.3224ZM65.9753 42.8221C66.4666 42.825 66.9536 42.7312 67.4085 42.546C67.8634 42.3607 68.2772 42.0877 68.6262 41.7426C68.9752 41.3974 69.2525 40.9869 69.4423 40.5346C69.6322 40.0823 69.7307 39.597 69.7324 39.1066C69.7347 38.6105 69.6384 38.1189 69.4491 37.6602C69.2597 37.2015 68.9811 36.7849 68.6293 36.4345C68.2776 36.084 67.8596 35.8067 67.3998 35.6186C66.9399 35.4305 66.4472 35.3354 65.9503 35.3387C64.96 35.346 64.013 35.7448 63.3167 36.4478C62.6205 37.1508 62.2318 38.1006 62.2358 39.0891C62.2328 39.5799 62.3275 40.0665 62.5145 40.5204C62.7014 40.9744 62.9768 41.3868 63.3247 41.7336C63.6726 42.0805 64.0861 42.3549 64.5411 42.5408C64.9961 42.7268 65.4836 42.8207 65.9753 42.8171V42.8221Z" fill="#15F2FD"/>
<path d="M59.0323 44.7998C59.3429 45.0498 59.7436 45.2799 59.9916 45.6149C60.1285 45.805 60.1929 46.0377 60.1731 46.2711C60.1534 46.5044 60.0508 46.723 59.8839 46.8875C59.2377 47.5876 58.5689 48.2727 57.8576 48.9078C57.6309 49.0978 57.3404 49.1949 57.0448 49.1796C56.7492 49.1643 56.4704 49.0377 56.2646 48.8253C55.8238 48.4102 55.696 47.7051 56.1018 47.2451C56.758 46.495 57.4844 45.8149 58.2108 45.1348C58.3761 44.9798 58.6566 44.9473 59.0323 44.7998Z" fill="#15F2FD"/>
<path d="M53.6071 52.6932C53.446 52.6986 53.2855 52.6718 53.1349 52.6145C52.9844 52.5571 52.8467 52.4704 52.7301 52.3594C52.6135 52.2483 52.5203 52.1152 52.4558 51.9677C52.3914 51.8203 52.357 51.6615 52.3548 51.5006C52.3476 51.3328 52.3748 51.1652 52.4347 51.0082C52.4946 50.8513 52.586 50.7081 52.7032 50.5876C52.8204 50.4671 52.9611 50.3717 53.1165 50.3073C53.2719 50.2428 53.4388 50.2107 53.6071 50.2129C53.9367 50.2129 54.2529 50.3426 54.4874 50.5738C54.7218 50.805 54.8555 51.1191 54.8595 51.4481C54.8611 51.6125 54.8299 51.7756 54.7675 51.9277C54.7051 52.0799 54.6128 52.218 54.4961 52.3341C54.3794 52.4501 54.2406 52.5416 54.088 52.6033C53.9353 52.665 53.7718 52.6956 53.6071 52.6932Z" fill="#15F2FD"/>
</g>
<g filter="url(#filter1_f_4522_15508)">
<path d="M40.1068 56.9762C39.7236 56.0386 39.8563 55.106 40.1694 54.1784C40.7129 52.5857 41.2465 50.988 41.8075 49.4003C42.0755 48.6502 41.9227 48.3477 41.1262 48.3077C38.872 48.1977 36.8883 48.8328 35.2101 50.3629L35.1174 50.448C34.6841 50.888 34.1782 51.078 33.5871 50.823C32.996 50.568 32.8156 50.0579 32.8357 49.4428C32.9582 46.6254 33.7041 43.87 35.0198 41.3744C35.7824 39.8416 36.7824 38.4384 37.9828 37.2164C41.2389 33.966 45.2991 33.3535 49.3817 35.4862L49.9878 35.8062C50.2158 35.5562 50.4487 35.2912 50.6766 35.0261C55.3504 29.633 61.1964 25.9851 67.8438 23.5248C72.6807 21.7439 77.7353 20.6195 82.872 20.1819C83.0373 20.1669 83.2051 20.1544 83.3729 20.1494C84.4575 20.1144 85.0235 20.622 84.9133 21.6896C84.7129 23.6348 84.5125 25.5875 84.1619 27.5103C83.0623 33.641 81.0886 39.4667 77.9152 44.8598C75.7531 48.5311 72.9926 51.8165 69.7474 54.5809C69.5896 54.7135 69.4368 54.8535 69.3241 54.9535C69.7299 55.9961 70.2183 56.9712 70.4938 58.0038C71.2903 61.0042 70.6341 63.7045 68.6654 66.0723C66.3135 68.9001 63.1951 70.5378 59.7111 71.4804C58.356 71.848 56.9233 71.948 55.5232 72.1355C55.2499 72.1857 54.9677 72.1379 54.7262 72.0007C54.4848 71.8635 54.2995 71.6456 54.2032 71.3854C53.9528 70.8254 54.1206 70.3353 54.5339 69.9027C56.1218 68.2475 56.8056 66.2548 56.7305 63.9845C56.6979 63.0469 56.4374 62.8994 55.5708 63.2045C54.0004 63.7595 52.4274 64.3096 50.8394 64.8071C49.4618 65.2372 49.3567 65.2047 48.0267 64.9172C47.9916 64.9397 47.944 64.9572 47.929 64.9897C46.4262 68.115 43.9214 70.0102 40.6253 70.8603C38.594 71.3829 36.5151 71.738 34.4462 72.1105C33.4093 72.2905 32.743 71.6579 32.8482 70.6528C33.1413 67.85 33.6923 65.1047 34.7718 62.4794C35.7286 60.1566 37.3692 58.4789 39.5458 57.3063L39.9891 57.0712C40.0217 57.0787 40.0317 57.0587 40.1068 56.9762ZM79.1801 36.4063C79.0924 36.286 78.9979 36.1708 78.8971 36.0613C75.6076 32.7725 72.3205 29.4855 69.0361 26.2001C68.9492 26.0901 68.8267 26.0136 68.6896 25.984C68.5525 25.9543 68.4093 25.9733 68.2846 26.0376C64.3548 27.5553 60.6403 29.473 57.3516 32.1233C52.0592 36.3863 48.1794 41.7469 45.2389 47.8251C45.162 47.9451 45.1344 48.0901 45.1619 48.2298C45.1894 48.3696 45.27 48.4933 45.3867 48.5752C49.082 52.2423 52.7697 55.9253 56.45 59.624C56.4978 59.6893 56.558 59.7445 56.6273 59.7864C56.6966 59.8283 56.7735 59.8561 56.8536 59.8682C56.9337 59.8803 57.0154 59.8764 57.094 59.8568C57.1726 59.8372 57.2465 59.8023 57.3116 59.7541C58.629 59.0365 59.9841 58.3864 61.274 57.6263C69.5395 52.7507 75.6359 46.0049 78.9847 36.9264C79.0298 36.7789 79.0924 36.6238 79.1801 36.4063ZM35.5984 46.98C38.1657 45.8324 40.6077 45.4174 43.0799 46.1425L48.2345 37.7565C46.3109 36.3538 43.1951 36.3888 41.0085 37.944C38.6917 39.5892 37.3416 41.9295 36.3598 44.5173C36.0993 45.2674 35.8914 46.0499 35.5984 46.98ZM58.1406 69.2452C58.2183 69.2652 58.2608 69.2902 58.2959 69.2827C61.6597 68.4901 64.6754 67.0674 66.8745 64.3096C68.6854 62.0368 68.7831 58.9014 67.2978 56.7837L58.8169 61.9793C59.6084 63.427 59.393 65.9773 58.1532 69.2452H58.1406ZM35.5357 69.4677C37.6003 69.1929 39.6239 68.669 41.5621 67.9075C43.5032 67.1199 44.7906 65.6897 45.6998 63.857C45.8926 63.4695 45.8826 63.207 45.542 62.8844C44.3973 61.7893 43.2702 60.6767 42.1832 59.529C41.805 59.1265 41.5069 59.129 41.0536 59.359C39.2227 60.2841 37.8225 61.6093 37.0461 63.5395C36.3086 65.4479 35.8057 67.4384 35.5483 69.4677H35.5357ZM80.1193 33.556C81.2027 30.0397 81.9343 26.425 82.3034 22.7647C78.6382 23.1353 75.0188 23.8672 71.4982 24.95C74.3936 27.8178 77.2565 30.6756 80.1394 33.556H80.1193ZM54.2083 61.1592C50.7017 57.6738 47.3178 54.2834 43.8588 50.828C43.4005 52.2982 42.9446 53.8034 42.4612 55.2985C42.3815 55.5262 42.372 55.7726 42.4341 56.0057C42.4962 56.2389 42.6269 56.448 42.8094 56.6062C44.6754 58.4814 46.5414 60.3566 48.4374 62.2018C48.6879 62.4369 49.1463 62.6669 49.4393 62.5944C51.0473 62.1593 52.6428 61.6593 54.2083 61.1592Z" fill="#15F2FD"/>
<path d="M22.9146 84.1619C21.7348 84.1469 21.1362 83.1343 21.5896 82.3217C21.6978 82.1444 21.8302 81.9828 21.9828 81.8417C24.6779 79.1463 27.3654 76.4435 30.0855 73.7757C30.4033 73.4593 30.8229 73.2653 31.2702 73.2281C32.2345 73.2281 32.7305 74.3708 32.1744 75.1684C32.0733 75.301 31.961 75.4248 31.8388 75.5384C29.1671 78.2171 26.4821 80.8924 23.7837 83.5644C23.5165 83.7943 23.2251 83.9947 22.9146 84.1619Z" fill="#15F2FD"/>
<path d="M32.9358 84.1619C31.7837 84.1619 31.1826 83.1918 31.5833 82.3817C31.6798 82.1966 31.8049 82.0279 31.954 81.8817C34.6791 79.1563 37.3967 76.426 40.1469 73.7282C40.4553 73.4318 40.8592 73.2545 41.2865 73.2281C42.2508 73.2281 42.7492 74.3708 42.1932 75.1684C42.0937 75.3016 41.9822 75.4255 41.8601 75.5384C39.1801 78.2171 36.495 80.8924 33.805 83.5644C33.5376 83.7941 33.2462 83.9944 32.9358 84.1619Z" fill="#15F2FD"/>
<path d="M22.0429 73.7307C21.6396 73.4207 21.1813 73.2306 21.0235 72.8981C20.8657 72.5656 20.9583 72.078 21.0235 71.6705C21.0485 71.4979 21.2739 71.3454 21.4167 71.2004C24.0884 68.5334 26.755 65.8664 29.4167 63.1995C29.5448 63.0626 29.6839 62.9364 29.8325 62.8219C30.0629 62.6574 30.3425 62.5757 30.6254 62.5902C30.9084 62.6047 31.1781 62.7146 31.3904 62.9019C31.6107 63.0966 31.7534 63.3639 31.7925 63.655C31.8316 63.946 31.7644 64.2414 31.6033 64.4871C31.4869 64.6591 31.3516 64.8176 31.2 64.9597C28.5283 67.6267 25.8567 70.2886 23.185 72.9456C22.8278 73.2399 22.4457 73.5026 22.0429 73.7307Z" fill="#15F2FD"/>
<path d="M27.5407 58.3439C27.6565 58.0642 27.8117 57.8023 28.0016 57.5663C29.0987 56.4287 30.2233 55.3161 31.3479 54.2084C31.9215 53.6434 32.6729 53.6084 33.1863 54.0934C33.6998 54.5785 33.7198 55.3436 33.1187 55.9661C31.9941 57.1063 30.8645 58.2339 29.7198 59.3615C29.5486 59.5612 29.3165 59.6994 29.0591 59.755C28.8018 59.8105 28.5332 59.7803 28.2946 59.6691C27.8087 59.4566 27.5658 59.074 27.5407 58.3439Z" fill="#15F2FD"/>
<path d="M46.3911 77.5637C46.073 77.3136 45.6572 77.1086 45.4093 76.7786C45.2617 76.5818 45.1918 76.3377 45.2131 76.0928C45.2343 75.8479 45.3452 75.6194 45.5245 75.4509C46.7543 74.1833 47.9991 72.9306 49.2815 71.7005C49.5104 71.4947 49.8118 71.3881 50.1194 71.404C50.427 71.42 50.7158 71.5572 50.9221 71.7855C51.1452 71.9949 51.2792 72.2819 51.2964 72.5871C51.3137 72.8923 51.2129 73.1925 51.0148 73.4257C49.79 74.7008 48.5301 75.941 47.2577 77.1761C47.0824 77.3511 46.7818 77.3961 46.3911 77.5637Z" fill="#15F2FD"/>
<path d="M65.9903 45.3224C65.1697 45.3276 64.3562 45.1708 63.5965 44.8609C62.8369 44.551 62.1462 44.0941 61.5642 43.5166C60.9821 42.9391 60.5203 42.2523 60.2053 41.4959C59.8903 40.7395 59.7282 39.9283 59.7286 39.1091C59.7246 38.2858 59.8837 37.4697 60.1966 36.7079C60.5095 35.946 60.9701 35.2534 61.552 34.6698C62.1338 34.0862 62.8254 33.6231 63.5871 33.3071C64.3488 32.9911 65.1655 32.8284 65.9903 32.8284C67.6458 32.8402 69.2298 33.5031 70.3987 34.6733C71.5677 35.8435 72.2273 37.4266 72.2346 39.0791C72.2326 40.7326 71.5744 42.3179 70.4041 43.4881C69.2338 44.6582 67.6467 45.3177 65.9903 45.3224ZM65.9753 42.8221C66.4666 42.825 66.9536 42.7312 67.4085 42.546C67.8634 42.3607 68.2772 42.0877 68.6262 41.7426C68.9752 41.3974 69.2525 40.9869 69.4423 40.5346C69.6322 40.0823 69.7307 39.597 69.7324 39.1066C69.7347 38.6105 69.6384 38.1189 69.4491 37.6602C69.2597 37.2015 68.9811 36.7849 68.6293 36.4345C68.2776 36.084 67.8596 35.8067 67.3998 35.6186C66.9399 35.4305 66.4472 35.3354 65.9503 35.3387C64.96 35.346 64.013 35.7448 63.3167 36.4478C62.6205 37.1508 62.2318 38.1006 62.2358 39.0891C62.2328 39.5799 62.3275 40.0665 62.5145 40.5204C62.7014 40.9744 62.9768 41.3868 63.3247 41.7336C63.6726 42.0805 64.0861 42.3549 64.5411 42.5408C64.9961 42.7268 65.4836 42.8207 65.9753 42.8171V42.8221Z" fill="#15F2FD"/>
<path d="M59.0323 44.7998C59.3429 45.0498 59.7436 45.2799 59.9916 45.6149C60.1285 45.805 60.1929 46.0377 60.1731 46.2711C60.1534 46.5044 60.0508 46.723 59.8839 46.8875C59.2377 47.5876 58.5689 48.2727 57.8576 48.9078C57.6309 49.0978 57.3404 49.1949 57.0448 49.1796C56.7492 49.1643 56.4704 49.0377 56.2646 48.8253C55.8238 48.4102 55.696 47.7051 56.1018 47.2451C56.758 46.495 57.4844 45.8149 58.2108 45.1348C58.3761 44.9798 58.6566 44.9473 59.0323 44.7998Z" fill="#15F2FD"/>
<path d="M53.6071 52.6932C53.446 52.6986 53.2855 52.6718 53.1349 52.6145C52.9844 52.5571 52.8467 52.4704 52.7301 52.3594C52.6135 52.2483 52.5203 52.1152 52.4558 51.9677C52.3914 51.8203 52.357 51.6615 52.3548 51.5006C52.3476 51.3328 52.3748 51.1652 52.4347 51.0082C52.4946 50.8513 52.586 50.7081 52.7032 50.5876C52.8204 50.4671 52.9611 50.3717 53.1165 50.3073C53.2719 50.2428 53.4388 50.2107 53.6071 50.2129C53.9367 50.2129 54.2529 50.3426 54.4874 50.5738C54.7218 50.805 54.8555 51.1191 54.8595 51.4481C54.8611 51.6125 54.8299 51.7756 54.7675 51.9277C54.7051 52.0799 54.6128 52.218 54.4961 52.3341C54.3794 52.4501 54.2406 52.5416 54.088 52.6033C53.9353 52.665 53.7718 52.6956 53.6071 52.6932Z" fill="#15F2FD"/>
</g>
<g filter="url(#filter2_f_4522_15508)">
<path d="M40.1068 56.9762C39.7236 56.0386 39.8563 55.106 40.1694 54.1784C40.7129 52.5857 41.2465 50.988 41.8075 49.4003C42.0755 48.6502 41.9227 48.3477 41.1262 48.3077C38.872 48.1977 36.8883 48.8328 35.2101 50.3629L35.1174 50.448C34.6841 50.888 34.1782 51.078 33.5871 50.823C32.996 50.568 32.8156 50.0579 32.8357 49.4428C32.9582 46.6254 33.7041 43.87 35.0198 41.3744C35.7824 39.8416 36.7824 38.4384 37.9828 37.2164C41.2389 33.966 45.2991 33.3535 49.3817 35.4862L49.9878 35.8062C50.2158 35.5562 50.4487 35.2912 50.6766 35.0261C55.3504 29.633 61.1964 25.9851 67.8438 23.5248C72.6807 21.7439 77.7353 20.6195 82.872 20.1819C83.0373 20.1669 83.2051 20.1544 83.3729 20.1494C84.4575 20.1144 85.0235 20.622 84.9133 21.6896C84.7129 23.6348 84.5125 25.5875 84.1619 27.5103C83.0623 33.641 81.0886 39.4667 77.9152 44.8598C75.7531 48.5311 72.9926 51.8165 69.7474 54.5809C69.5896 54.7135 69.4368 54.8535 69.3241 54.9535C69.7299 55.9961 70.2183 56.9712 70.4938 58.0038C71.2903 61.0042 70.6341 63.7045 68.6654 66.0723C66.3135 68.9001 63.1951 70.5378 59.7111 71.4804C58.356 71.848 56.9233 71.948 55.5232 72.1355C55.2499 72.1857 54.9677 72.1379 54.7262 72.0007C54.4848 71.8635 54.2995 71.6456 54.2032 71.3854C53.9528 70.8254 54.1206 70.3353 54.5339 69.9027C56.1218 68.2475 56.8056 66.2548 56.7305 63.9845C56.6979 63.0469 56.4374 62.8994 55.5708 63.2045C54.0004 63.7595 52.4274 64.3096 50.8394 64.8071C49.4618 65.2372 49.3567 65.2047 48.0267 64.9172C47.9916 64.9397 47.944 64.9572 47.929 64.9897C46.4262 68.115 43.9214 70.0102 40.6253 70.8603C38.594 71.3829 36.5151 71.738 34.4462 72.1105C33.4093 72.2905 32.743 71.6579 32.8482 70.6528C33.1413 67.85 33.6923 65.1047 34.7718 62.4794C35.7286 60.1566 37.3692 58.4789 39.5458 57.3063L39.9891 57.0712C40.0217 57.0787 40.0317 57.0587 40.1068 56.9762ZM79.1801 36.4063C79.0924 36.286 78.9979 36.1708 78.8971 36.0613C75.6076 32.7725 72.3205 29.4855 69.0361 26.2001C68.9492 26.0901 68.8267 26.0136 68.6896 25.984C68.5525 25.9543 68.4093 25.9733 68.2846 26.0376C64.3548 27.5553 60.6403 29.473 57.3516 32.1233C52.0592 36.3863 48.1794 41.7469 45.2389 47.8251C45.162 47.9451 45.1344 48.0901 45.1619 48.2298C45.1894 48.3696 45.27 48.4933 45.3867 48.5752C49.082 52.2423 52.7697 55.9253 56.45 59.624C56.4978 59.6893 56.558 59.7445 56.6273 59.7864C56.6966 59.8283 56.7735 59.8561 56.8536 59.8682C56.9337 59.8803 57.0154 59.8764 57.094 59.8568C57.1726 59.8372 57.2465 59.8023 57.3116 59.7541C58.629 59.0365 59.9841 58.3864 61.274 57.6263C69.5395 52.7507 75.6359 46.0049 78.9847 36.9264C79.0298 36.7789 79.0924 36.6238 79.1801 36.4063ZM35.5984 46.98C38.1657 45.8324 40.6077 45.4174 43.0799 46.1425L48.2345 37.7565C46.3109 36.3538 43.1951 36.3888 41.0085 37.944C38.6917 39.5892 37.3416 41.9295 36.3598 44.5173C36.0993 45.2674 35.8914 46.0499 35.5984 46.98ZM58.1406 69.2452C58.2183 69.2652 58.2608 69.2902 58.2959 69.2827C61.6597 68.4901 64.6754 67.0674 66.8745 64.3096C68.6854 62.0368 68.7831 58.9014 67.2978 56.7837L58.8169 61.9793C59.6084 63.427 59.393 65.9773 58.1532 69.2452H58.1406ZM35.5357 69.4677C37.6003 69.1929 39.6239 68.669 41.5621 67.9075C43.5032 67.1199 44.7906 65.6897 45.6998 63.857C45.8926 63.4695 45.8826 63.207 45.542 62.8844C44.3973 61.7893 43.2702 60.6767 42.1832 59.529C41.805 59.1265 41.5069 59.129 41.0536 59.359C39.2227 60.2841 37.8225 61.6093 37.0461 63.5395C36.3086 65.4479 35.8057 67.4384 35.5483 69.4677H35.5357ZM80.1193 33.556C81.2027 30.0397 81.9343 26.425 82.3034 22.7647C78.6382 23.1353 75.0188 23.8672 71.4982 24.95C74.3936 27.8178 77.2565 30.6756 80.1394 33.556H80.1193ZM54.2083 61.1592C50.7017 57.6738 47.3178 54.2834 43.8588 50.828C43.4005 52.2982 42.9446 53.8034 42.4612 55.2985C42.3815 55.5262 42.372 55.7726 42.4341 56.0057C42.4962 56.2389 42.6269 56.448 42.8094 56.6062C44.6754 58.4814 46.5414 60.3566 48.4374 62.2018C48.6879 62.4369 49.1463 62.6669 49.4393 62.5944C51.0473 62.1593 52.6428 61.6593 54.2083 61.1592Z" fill="#15F2FD"/>
<path d="M22.9146 84.1619C21.7348 84.1469 21.1362 83.1343 21.5896 82.3217C21.6978 82.1444 21.8302 81.9828 21.9828 81.8417C24.6779 79.1463 27.3654 76.4435 30.0855 73.7757C30.4033 73.4593 30.8229 73.2653 31.2702 73.2281C32.2345 73.2281 32.7305 74.3708 32.1744 75.1684C32.0733 75.301 31.961 75.4248 31.8388 75.5384C29.1671 78.2171 26.4821 80.8924 23.7837 83.5644C23.5165 83.7943 23.2251 83.9947 22.9146 84.1619Z" fill="#15F2FD"/>
<path d="M32.9358 84.1619C31.7837 84.1619 31.1826 83.1918 31.5833 82.3817C31.6798 82.1966 31.8049 82.0279 31.954 81.8817C34.6791 79.1563 37.3967 76.426 40.1469 73.7282C40.4553 73.4318 40.8592 73.2545 41.2865 73.2281C42.2508 73.2281 42.7492 74.3708 42.1932 75.1684C42.0937 75.3016 41.9822 75.4255 41.8601 75.5384C39.1801 78.2171 36.495 80.8924 33.805 83.5644C33.5376 83.7941 33.2462 83.9944 32.9358 84.1619Z" fill="#15F2FD"/>
<path d="M22.0429 73.7307C21.6396 73.4207 21.1813 73.2306 21.0235 72.8981C20.8657 72.5656 20.9583 72.078 21.0235 71.6705C21.0485 71.4979 21.2739 71.3454 21.4167 71.2004C24.0884 68.5334 26.755 65.8664 29.4167 63.1995C29.5448 63.0626 29.6839 62.9364 29.8325 62.8219C30.0629 62.6574 30.3425 62.5757 30.6254 62.5902C30.9084 62.6047 31.1781 62.7146 31.3904 62.9019C31.6107 63.0966 31.7534 63.3639 31.7925 63.655C31.8316 63.946 31.7644 64.2414 31.6033 64.4871C31.4869 64.6591 31.3516 64.8176 31.2 64.9597C28.5283 67.6267 25.8567 70.2886 23.185 72.9456C22.8278 73.2399 22.4457 73.5026 22.0429 73.7307Z" fill="#15F2FD"/>
<path d="M27.5407 58.3439C27.6565 58.0642 27.8117 57.8023 28.0016 57.5663C29.0987 56.4287 30.2233 55.3161 31.3479 54.2084C31.9215 53.6434 32.6729 53.6084 33.1863 54.0934C33.6998 54.5785 33.7198 55.3436 33.1187 55.9661C31.9941 57.1063 30.8645 58.2339 29.7198 59.3615C29.5486 59.5612 29.3165 59.6994 29.0591 59.755C28.8018 59.8105 28.5332 59.7803 28.2946 59.6691C27.8087 59.4566 27.5658 59.074 27.5407 58.3439Z" fill="#15F2FD"/>
<path d="M46.3911 77.5637C46.073 77.3136 45.6572 77.1086 45.4093 76.7786C45.2617 76.5818 45.1918 76.3377 45.2131 76.0928C45.2343 75.8479 45.3452 75.6194 45.5245 75.4509C46.7543 74.1833 47.9991 72.9306 49.2815 71.7005C49.5104 71.4947 49.8118 71.3881 50.1194 71.404C50.427 71.42 50.7158 71.5572 50.9221 71.7855C51.1452 71.9949 51.2792 72.2819 51.2964 72.5871C51.3137 72.8923 51.2129 73.1925 51.0148 73.4257C49.79 74.7008 48.5301 75.941 47.2577 77.1761C47.0824 77.3511 46.7818 77.3961 46.3911 77.5637Z" fill="#15F2FD"/>
<path d="M65.9903 45.3224C65.1697 45.3276 64.3562 45.1708 63.5965 44.8609C62.8369 44.551 62.1462 44.0941 61.5642 43.5166C60.9821 42.9391 60.5203 42.2523 60.2053 41.4959C59.8903 40.7395 59.7282 39.9283 59.7286 39.1091C59.7246 38.2858 59.8837 37.4697 60.1966 36.7079C60.5095 35.946 60.9701 35.2534 61.552 34.6698C62.1338 34.0862 62.8254 33.6231 63.5871 33.3071C64.3488 32.9911 65.1655 32.8284 65.9903 32.8284C67.6458 32.8402 69.2298 33.5031 70.3987 34.6733C71.5677 35.8435 72.2273 37.4266 72.2346 39.0791C72.2326 40.7326 71.5744 42.3179 70.4041 43.4881C69.2338 44.6582 67.6467 45.3177 65.9903 45.3224ZM65.9753 42.8221C66.4666 42.825 66.9536 42.7312 67.4085 42.546C67.8634 42.3607 68.2772 42.0877 68.6262 41.7426C68.9752 41.3974 69.2525 40.9869 69.4423 40.5346C69.6322 40.0823 69.7307 39.597 69.7324 39.1066C69.7347 38.6105 69.6384 38.1189 69.4491 37.6602C69.2597 37.2015 68.9811 36.7849 68.6293 36.4345C68.2776 36.084 67.8596 35.8067 67.3998 35.6186C66.9399 35.4305 66.4472 35.3354 65.9503 35.3387C64.96 35.346 64.013 35.7448 63.3167 36.4478C62.6205 37.1508 62.2318 38.1006 62.2358 39.0891C62.2328 39.5799 62.3275 40.0665 62.5145 40.5204C62.7014 40.9744 62.9768 41.3868 63.3247 41.7336C63.6726 42.0805 64.0861 42.3549 64.5411 42.5408C64.9961 42.7268 65.4836 42.8207 65.9753 42.8171V42.8221Z" fill="#15F2FD"/>
<path d="M59.0323 44.7998C59.3429 45.0498 59.7436 45.2799 59.9916 45.6149C60.1285 45.805 60.1929 46.0377 60.1731 46.2711C60.1534 46.5044 60.0508 46.723 59.8839 46.8875C59.2377 47.5876 58.5689 48.2727 57.8576 48.9078C57.6309 49.0978 57.3404 49.1949 57.0448 49.1796C56.7492 49.1643 56.4704 49.0377 56.2646 48.8253C55.8238 48.4102 55.696 47.7051 56.1018 47.2451C56.758 46.495 57.4844 45.8149 58.2108 45.1348C58.3761 44.9798 58.6566 44.9473 59.0323 44.7998Z" fill="#15F2FD"/>
<path d="M53.6071 52.6932C53.446 52.6986 53.2855 52.6718 53.1349 52.6145C52.9844 52.5571 52.8467 52.4704 52.7301 52.3594C52.6135 52.2483 52.5203 52.1152 52.4558 51.9677C52.3914 51.8203 52.357 51.6615 52.3548 51.5006C52.3476 51.3328 52.3748 51.1652 52.4347 51.0082C52.4946 50.8513 52.586 50.7081 52.7032 50.5876C52.8204 50.4671 52.9611 50.3717 53.1165 50.3073C53.2719 50.2428 53.4388 50.2107 53.6071 50.2129C53.9367 50.2129 54.2529 50.3426 54.4874 50.5738C54.7218 50.805 54.8555 51.1191 54.8595 51.4481C54.8611 51.6125 54.8299 51.7756 54.7675 51.9277C54.7051 52.0799 54.6128 52.218 54.4961 52.3341C54.3794 52.4501 54.2406 52.5416 54.088 52.6033C53.9353 52.665 53.7718 52.6956 53.6071 52.6932Z" fill="#15F2FD"/>
</g>
<g filter="url(#filter3_d_4522_15508)">
<path d="M40.1068 56.9762C39.7236 56.0386 39.8563 55.106 40.1694 54.1784C40.7129 52.5857 41.2465 50.988 41.8075 49.4003C42.0755 48.6502 41.9227 48.3477 41.1262 48.3077C38.872 48.1977 36.8883 48.8328 35.2101 50.3629L35.1174 50.448C34.6841 50.888 34.1782 51.078 33.5871 50.823C32.996 50.568 32.8156 50.0579 32.8357 49.4428C32.9582 46.6254 33.7041 43.87 35.0198 41.3744C35.7824 39.8416 36.7824 38.4384 37.9828 37.2164C41.2389 33.966 45.2991 33.3535 49.3817 35.4862L49.9878 35.8062C50.2158 35.5562 50.4487 35.2912 50.6766 35.0261C55.3504 29.633 61.1964 25.9851 67.8438 23.5248C72.6807 21.7439 77.7353 20.6195 82.872 20.1819C83.0373 20.1669 83.2051 20.1544 83.3729 20.1494C84.4575 20.1144 85.0235 20.622 84.9133 21.6896C84.7129 23.6348 84.5125 25.5875 84.1619 27.5103C83.0623 33.641 81.0886 39.4667 77.9152 44.8598C75.7531 48.5311 72.9926 51.8165 69.7474 54.5809C69.5896 54.7135 69.4368 54.8535 69.3241 54.9535C69.7299 55.9961 70.2183 56.9712 70.4938 58.0038C71.2903 61.0042 70.6341 63.7045 68.6654 66.0723C66.3135 68.9001 63.1951 70.5378 59.7111 71.4804C58.356 71.848 56.9233 71.948 55.5232 72.1355C55.2499 72.1857 54.9677 72.1379 54.7262 72.0007C54.4848 71.8635 54.2995 71.6456 54.2032 71.3854C53.9528 70.8254 54.1206 70.3353 54.5339 69.9027C56.1218 68.2475 56.8056 66.2548 56.7305 63.9845C56.6979 63.0469 56.4374 62.8994 55.5708 63.2045C54.0004 63.7595 52.4274 64.3096 50.8394 64.8071C49.4618 65.2372 49.3567 65.2047 48.0267 64.9172C47.9916 64.9397 47.944 64.9572 47.929 64.9897C46.4262 68.115 43.9214 70.0102 40.6253 70.8603C38.594 71.3829 36.5151 71.738 34.4462 72.1105C33.4093 72.2905 32.743 71.6579 32.8482 70.6528C33.1413 67.85 33.6923 65.1047 34.7718 62.4794C35.7286 60.1566 37.3692 58.4789 39.5458 57.3063L39.9891 57.0712C40.0217 57.0787 40.0317 57.0587 40.1068 56.9762ZM79.1801 36.4063C79.0924 36.286 78.9979 36.1708 78.8971 36.0613C75.6076 32.7725 72.3205 29.4855 69.0361 26.2001C68.9492 26.0901 68.8267 26.0136 68.6896 25.984C68.5525 25.9543 68.4093 25.9733 68.2846 26.0376C64.3548 27.5553 60.6403 29.473 57.3516 32.1233C52.0592 36.3863 48.1794 41.7469 45.2389 47.8251C45.162 47.9451 45.1344 48.0901 45.1619 48.2298C45.1894 48.3696 45.27 48.4933 45.3867 48.5752C49.082 52.2423 52.7697 55.9253 56.45 59.624C56.4978 59.6893 56.558 59.7445 56.6273 59.7864C56.6966 59.8283 56.7735 59.8561 56.8536 59.8682C56.9337 59.8803 57.0154 59.8764 57.094 59.8568C57.1726 59.8372 57.2465 59.8023 57.3116 59.7541C58.629 59.0365 59.9841 58.3864 61.274 57.6263C69.5395 52.7507 75.6359 46.0049 78.9847 36.9264C79.0298 36.7789 79.0924 36.6238 79.1801 36.4063ZM35.5984 46.98C38.1657 45.8324 40.6077 45.4174 43.0799 46.1425L48.2345 37.7565C46.3109 36.3538 43.1951 36.3888 41.0085 37.944C38.6917 39.5892 37.3416 41.9295 36.3598 44.5173C36.0993 45.2674 35.8914 46.0499 35.5984 46.98ZM58.1406 69.2452C58.2183 69.2652 58.2608 69.2902 58.2959 69.2827C61.6597 68.4901 64.6754 67.0674 66.8745 64.3096C68.6854 62.0368 68.7831 58.9014 67.2978 56.7837L58.8169 61.9793C59.6084 63.427 59.393 65.9773 58.1532 69.2452H58.1406ZM35.5357 69.4677C37.6003 69.1929 39.6239 68.669 41.5621 67.9075C43.5032 67.1199 44.7906 65.6897 45.6998 63.857C45.8926 63.4695 45.8826 63.207 45.542 62.8844C44.3973 61.7893 43.2702 60.6767 42.1832 59.529C41.805 59.1265 41.5069 59.129 41.0536 59.359C39.2227 60.2841 37.8225 61.6093 37.0461 63.5395C36.3086 65.4479 35.8057 67.4384 35.5483 69.4677H35.5357ZM80.1193 33.556C81.2027 30.0397 81.9343 26.425 82.3034 22.7647C78.6382 23.1353 75.0188 23.8672 71.4982 24.95C74.3936 27.8178 77.2565 30.6756 80.1394 33.556H80.1193ZM54.2083 61.1592C50.7017 57.6738 47.3178 54.2834 43.8588 50.828C43.4005 52.2982 42.9446 53.8034 42.4612 55.2985C42.3815 55.5262 42.372 55.7726 42.4341 56.0057C42.4962 56.2389 42.6269 56.448 42.8094 56.6062C44.6754 58.4814 46.5414 60.3566 48.4374 62.2018C48.6879 62.4369 49.1463 62.6669 49.4393 62.5944C51.0473 62.1593 52.6428 61.6593 54.2083 61.1592Z" fill="white"/>
<path d="M22.9146 84.1619C21.7348 84.1469 21.1362 83.1343 21.5896 82.3217C21.6978 82.1444 21.8302 81.9828 21.9828 81.8417C24.6779 79.1463 27.3654 76.4435 30.0855 73.7757C30.4033 73.4593 30.8229 73.2653 31.2702 73.2281C32.2345 73.2281 32.7305 74.3708 32.1744 75.1684C32.0733 75.301 31.961 75.4248 31.8388 75.5384C29.1671 78.2171 26.4821 80.8924 23.7837 83.5644C23.5165 83.7943 23.2251 83.9947 22.9146 84.1619Z" fill="white"/>
<path d="M32.9358 84.1619C31.7837 84.1619 31.1826 83.1918 31.5833 82.3817C31.6798 82.1966 31.8049 82.0279 31.954 81.8817C34.6791 79.1563 37.3967 76.426 40.1469 73.7282C40.4553 73.4318 40.8592 73.2545 41.2865 73.2281C42.2508 73.2281 42.7492 74.3708 42.1932 75.1684C42.0937 75.3016 41.9822 75.4255 41.8601 75.5384C39.1801 78.2171 36.495 80.8924 33.805 83.5644C33.5376 83.7941 33.2462 83.9944 32.9358 84.1619Z" fill="white"/>
<path d="M22.0429 73.7307C21.6396 73.4207 21.1813 73.2306 21.0235 72.8981C20.8657 72.5656 20.9583 72.078 21.0235 71.6705C21.0485 71.4979 21.2739 71.3454 21.4167 71.2004C24.0884 68.5334 26.755 65.8664 29.4167 63.1995C29.5448 63.0626 29.6839 62.9364 29.8325 62.8219C30.0629 62.6574 30.3425 62.5757 30.6254 62.5902C30.9084 62.6047 31.1781 62.7146 31.3904 62.9019C31.6107 63.0966 31.7534 63.3639 31.7925 63.655C31.8316 63.946 31.7644 64.2414 31.6033 64.4871C31.4869 64.6591 31.3516 64.8176 31.2 64.9597C28.5283 67.6267 25.8567 70.2886 23.185 72.9456C22.8278 73.2399 22.4457 73.5026 22.0429 73.7307Z" fill="white"/>
<path d="M27.5407 58.3439C27.6565 58.0642 27.8117 57.8023 28.0016 57.5663C29.0987 56.4287 30.2233 55.3161 31.3479 54.2084C31.9215 53.6434 32.6729 53.6084 33.1863 54.0934C33.6998 54.5785 33.7198 55.3436 33.1187 55.9661C31.9941 57.1063 30.8645 58.2339 29.7198 59.3615C29.5486 59.5612 29.3165 59.6994 29.0591 59.755C28.8018 59.8105 28.5332 59.7803 28.2946 59.6691C27.8087 59.4566 27.5658 59.074 27.5407 58.3439Z" fill="white"/>
<path d="M46.3911 77.5637C46.073 77.3136 45.6572 77.1086 45.4093 76.7786C45.2617 76.5818 45.1918 76.3377 45.2131 76.0928C45.2343 75.8479 45.3452 75.6194 45.5245 75.4509C46.7543 74.1833 47.9991 72.9306 49.2815 71.7005C49.5104 71.4947 49.8118 71.3881 50.1194 71.404C50.427 71.42 50.7158 71.5572 50.9221 71.7855C51.1452 71.9949 51.2792 72.2819 51.2964 72.5871C51.3137 72.8923 51.2129 73.1925 51.0148 73.4257C49.79 74.7008 48.5301 75.941 47.2577 77.1761C47.0824 77.3511 46.7818 77.3961 46.3911 77.5637Z" fill="white"/>
<path d="M65.9903 45.3224C65.1697 45.3276 64.3562 45.1708 63.5965 44.8609C62.8369 44.551 62.1462 44.0941 61.5642 43.5166C60.9821 42.9391 60.5203 42.2523 60.2053 41.4959C59.8903 40.7395 59.7282 39.9283 59.7286 39.1091C59.7246 38.2858 59.8837 37.4697 60.1966 36.7079C60.5095 35.946 60.9701 35.2534 61.552 34.6698C62.1338 34.0862 62.8254 33.6231 63.5871 33.3071C64.3488 32.9911 65.1655 32.8284 65.9903 32.8284C67.6458 32.8402 69.2298 33.5031 70.3987 34.6733C71.5677 35.8435 72.2273 37.4266 72.2346 39.0791C72.2326 40.7326 71.5744 42.3179 70.4041 43.4881C69.2338 44.6582 67.6467 45.3177 65.9903 45.3224ZM65.9753 42.8221C66.4666 42.825 66.9536 42.7312 67.4085 42.546C67.8634 42.3607 68.2772 42.0877 68.6262 41.7426C68.9752 41.3974 69.2525 40.9869 69.4423 40.5346C69.6322 40.0823 69.7307 39.597 69.7324 39.1066C69.7347 38.6105 69.6384 38.1189 69.4491 37.6602C69.2597 37.2015 68.9811 36.7849 68.6293 36.4345C68.2776 36.084 67.8596 35.8067 67.3998 35.6186C66.9399 35.4305 66.4472 35.3354 65.9503 35.3387C64.96 35.346 64.013 35.7448 63.3167 36.4478C62.6205 37.1508 62.2318 38.1006 62.2358 39.0891C62.2328 39.5799 62.3275 40.0665 62.5145 40.5204C62.7014 40.9744 62.9768 41.3868 63.3247 41.7336C63.6726 42.0805 64.0861 42.3549 64.5411 42.5408C64.9961 42.7268 65.4836 42.8207 65.9753 42.8171V42.8221Z" fill="white"/>
<path d="M59.0323 44.7998C59.3429 45.0498 59.7436 45.2799 59.9916 45.6149C60.1285 45.805 60.1929 46.0377 60.1731 46.2711C60.1534 46.5044 60.0508 46.723 59.8839 46.8875C59.2377 47.5876 58.5689 48.2727 57.8576 48.9078C57.6309 49.0978 57.3404 49.1949 57.0448 49.1796C56.7492 49.1643 56.4704 49.0377 56.2646 48.8253C55.8238 48.4102 55.696 47.7051 56.1018 47.2451C56.758 46.495 57.4844 45.8149 58.2108 45.1348C58.3761 44.9798 58.6566 44.9473 59.0323 44.7998Z" fill="white"/>
<path d="M53.6071 52.6932C53.446 52.6986 53.2855 52.6718 53.1349 52.6145C52.9844 52.5571 52.8467 52.4704 52.7301 52.3594C52.6135 52.2483 52.5203 52.1152 52.4558 51.9677C52.3914 51.8203 52.357 51.6615 52.3548 51.5006C52.3476 51.3328 52.3748 51.1652 52.4347 51.0082C52.4946 50.8513 52.586 50.7081 52.7032 50.5876C52.8204 50.4671 52.9611 50.3717 53.1165 50.3073C53.2719 50.2428 53.4388 50.2107 53.6071 50.2129C53.9367 50.2129 54.2529 50.3426 54.4874 50.5738C54.7218 50.805 54.8555 51.1191 54.8595 51.4481C54.8611 51.6125 54.8299 51.7756 54.7675 51.9277C54.7051 52.0799 54.6128 52.218 54.4961 52.3341C54.3794 52.4501 54.2406 52.5416 54.088 52.6033C53.9353 52.665 53.7718 52.6956 53.6071 52.6932Z" fill="white"/>
</g>
<defs>
<filter id="filter0_f_4522_15508" x="0.936523" y="0.147705" width="103.99" height="104.014" filterUnits="userSpaceOnUse" color-interpolation-filters="sRGB">
<feFlood flood-opacity="0" result="BackgroundImageFix"/>
<feBlend mode="normal" in="SourceGraphic" in2="BackgroundImageFix" result="shape"/>
<feGaussianBlur stdDeviation="10" result="effect1_foregroundBlur_4522_15508"/>
</filter>
<filter id="filter1_f_4522_15508" x="10.9365" y="10.1477" width="83.9902" height="84.0142" filterUnits="userSpaceOnUse" color-interpolation-filters="sRGB">
<feFlood flood-opacity="0" result="BackgroundImageFix"/>
<feBlend mode="normal" in="SourceGraphic" in2="BackgroundImageFix" result="shape"/>
<feGaussianBlur stdDeviation="5" result="effect1_foregroundBlur_4522_15508"/>
</filter>
<filter id="filter2_f_4522_15508" x="15.9365" y="15.1477" width="73.9902" height="74.0142" filterUnits="userSpaceOnUse" color-interpolation-filters="sRGB">
<feFlood flood-opacity="0" result="BackgroundImageFix"/>
<feBlend mode="normal" in="SourceGraphic" in2="BackgroundImageFix" result="shape"/>
<feGaussianBlur stdDeviation="2.5" result="effect1_foregroundBlur_4522_15508"/>
</filter>
<filter id="filter3_d_4522_15508" x="16.9365" y="20.1477" width="71.9902" height="72.0142" filterUnits="userSpaceOnUse" color-interpolation-filters="sRGB">
<feFlood flood-opacity="0" result="BackgroundImageFix"/>
<feColorMatrix in="SourceAlpha" type="matrix" values="0 0 0 0 0 0 0 0 0 0 0 0 0 0 0 0 0 0 127 0" result="hardAlpha"/>
<feOffset dy="4"/>
<feGaussianBlur stdDeviation="2"/>
<feComposite in2="hardAlpha" operator="out"/>
<feColorMatrix type="matrix" values="0 0 0 0 0 0 0 0 0 0 0 0 0 0 0 0 0 0 0.25 0"/>
<feBlend mode="normal" in2="BackgroundImageFix" result="effect1_dropShadow_4522_15508"/>
<feBlend mode="normal" in="SourceGraphic" in2="effect1_dropShadow_4522_15508" result="shape"/>
</filter>
</defs>
</svg>
