<svg width="101" height="101" viewBox="0 0 101 101" fill="none" xmlns="http://www.w3.org/2000/svg">
<g filter="url(#filter0_f_4522_15509)">
<path d="M49.4682 67.322C42.3822 67.25 35.461 65.1754 29.5036 61.3378C26.2411 59.2326 23.427 56.5031 21.2231 53.3064C20.2382 51.8797 20.2147 50.413 21.2231 49.0004C25.0519 43.632 30.0678 39.7161 36.059 37.0413C41.6402 34.5058 47.7986 33.5116 53.8941 34.1621C64.6286 35.2973 73.2523 40.2426 79.7301 48.8805C80.8771 50.4083 80.8395 51.8562 79.7301 53.4239C75.4241 59.535 69.501 63.3592 62.4521 65.5498C58.5527 66.765 54.564 67.322 49.4682 67.322ZM50.4907 63.8175C57.7488 63.8175 63.6532 57.9908 63.6532 50.8149C63.6532 43.263 57.8757 37.5373 50.2274 37.5302C43.2513 37.5302 37.3705 43.5098 37.3705 50.6175C37.3606 54.1076 38.7371 57.4588 41.1975 59.9341C43.6578 62.4095 47.0006 63.8063 50.4907 63.8175ZM37.843 61.6457C32.672 54.5944 32.4957 47.5572 37.3 40.3743C37.2415 40.3837 37.1841 40.3987 37.1284 40.4189C32.0045 42.8093 27.6633 46.1681 24.2904 50.7397C24.1842 50.8475 24.1246 50.9927 24.1246 51.144C24.1246 51.2953 24.1842 51.4405 24.2904 51.5483C27.0898 55.4782 30.74 58.3645 35.0718 60.4376C35.9603 60.863 36.8793 61.2273 37.843 61.6457ZM77.0483 51.1369C73.572 46.295 69.0733 42.8093 63.7119 40.3061C68.5256 47.5572 68.4128 54.5991 63.2536 61.594C68.8805 59.4763 73.5673 56.1716 77.0483 51.1369Z" fill="#15F2FD"/>
<path d="M24.0107 24.1469C24.0107 26.6759 24.0107 29.1157 24.0107 31.5554C24.0107 32.8411 22.8637 33.6708 21.7002 33.2901C21.3521 33.1775 21.0484 32.9578 20.8327 32.6623C20.617 32.3668 20.5002 32.0106 20.4991 31.6448C20.4873 29.0875 20.4662 26.5278 20.4991 23.9706C20.5248 23.0893 20.8883 22.2516 21.5144 21.6308C22.1404 21.01 22.9811 20.6536 23.8626 20.6353C26.4011 20.593 28.9419 20.6094 31.4803 20.6353C31.9457 20.634 32.3927 20.8165 32.7241 21.1431C33.0556 21.4698 33.2446 21.914 33.2502 22.3793C33.2496 22.6145 33.2022 22.8473 33.1107 23.064C33.0191 23.2807 32.8852 23.4769 32.717 23.6412C32.5487 23.8056 32.3493 23.9348 32.1305 24.0212C31.9117 24.1076 31.6779 24.1495 31.4427 24.1445C29.1981 24.1586 26.9511 24.1445 24.7041 24.1445L24.0107 24.1469Z" fill="#15F2FD"/>
<path d="M77.0389 24.1468H69.7197C68.5985 24.1468 67.7876 23.3947 67.7923 22.3817C67.797 21.3686 68.5961 20.633 69.6726 20.6283C72.1147 20.6283 74.5569 20.6118 76.9966 20.6283C77.4675 20.6209 77.935 20.7085 78.3711 20.8859C78.8073 21.0634 79.2032 21.327 79.5352 21.6609C79.8672 21.9949 80.1285 22.3924 80.3033 22.8296C80.4782 23.2668 80.563 23.7348 80.5528 24.2056C80.5693 26.6266 80.5528 29.0475 80.5528 31.4708C80.5528 32.5873 79.789 33.4005 78.7783 33.3911C77.7676 33.3817 77.0366 32.5708 77.0342 31.4403C77.0342 29.0499 77.0389 26.6501 77.0389 24.1468Z" fill="#15F2FD"/>
<path d="M24.0107 77.1821C26.5351 77.1821 28.9748 77.1821 31.4146 77.1821C32.7214 77.1821 33.584 78.3761 33.1327 79.5325C33.022 79.8715 32.8053 80.1659 32.5146 80.3724C32.2239 80.5789 31.8745 80.6866 31.518 80.6796C28.9584 80.6984 26.3987 80.7195 23.8414 80.6796C22.9516 80.6517 22.1071 80.281 21.4842 79.645C20.8613 79.009 20.5084 78.1569 20.4991 77.2667C20.4685 74.7682 20.4827 72.2673 20.4991 69.7688C20.4922 69.5337 20.532 69.2995 20.6161 69.0798C20.7002 68.8601 20.827 68.6592 20.9892 68.4888C21.1513 68.3183 21.3456 68.1817 21.5608 68.0867C21.776 67.9917 22.008 67.9403 22.2432 67.9355C23.2351 67.9355 24.0106 68.7276 24.0153 69.7994C24.0153 72.0252 24.0153 74.2511 24.0153 76.477L24.0107 77.1821Z" fill="#15F2FD"/>
<path d="M77.0389 77.1821V76.477C77.0389 74.2511 77.0389 72.0229 77.0389 69.797C77.0389 68.7229 77.8098 67.9167 78.8017 67.9167C79.7936 67.9167 80.5504 68.7205 80.5551 69.797C80.5551 72.2391 80.5692 74.6812 80.5551 77.121C80.563 77.5875 80.4774 78.0508 80.3033 78.4837C80.1293 78.9166 79.8704 79.3102 79.5418 79.6414C79.2132 79.9727 78.8216 80.2347 78.3901 80.4122C77.9587 80.5897 77.496 80.679 77.0295 80.6749C74.5686 80.6984 72.1077 80.689 69.6468 80.6749C68.575 80.6749 67.7664 79.8875 67.7852 78.9003C67.804 77.9131 68.5938 77.161 69.6656 77.1586C72.1053 77.1798 74.5263 77.1821 77.0389 77.1821Z" fill="#15F2FD"/>
<path d="M50.6035 55.8778C53.3296 55.8778 55.5395 53.6679 55.5395 50.9418C55.5395 48.2158 53.3296 46.0059 50.6035 46.0059C47.8775 46.0059 45.6676 48.2158 45.6676 50.9418C45.6676 53.6679 47.8775 55.8778 50.6035 55.8778Z" fill="#15F2FD"/>
</g>
<g filter="url(#filter1_f_4522_15509)">
<path d="M49.4682 67.322C42.3822 67.25 35.461 65.1754 29.5036 61.3378C26.2411 59.2326 23.427 56.5031 21.2231 53.3064C20.2382 51.8797 20.2147 50.413 21.2231 49.0004C25.0519 43.632 30.0678 39.7161 36.059 37.0413C41.6402 34.5058 47.7986 33.5116 53.8941 34.1621C64.6286 35.2973 73.2523 40.2426 79.7301 48.8805C80.8771 50.4083 80.8395 51.8562 79.7301 53.4239C75.4241 59.535 69.501 63.3592 62.4521 65.5498C58.5527 66.765 54.564 67.322 49.4682 67.322ZM50.4907 63.8175C57.7488 63.8175 63.6532 57.9908 63.6532 50.8149C63.6532 43.263 57.8757 37.5373 50.2274 37.5302C43.2513 37.5302 37.3705 43.5098 37.3705 50.6175C37.3606 54.1076 38.7371 57.4588 41.1975 59.9341C43.6578 62.4095 47.0006 63.8063 50.4907 63.8175ZM37.843 61.6457C32.672 54.5944 32.4957 47.5572 37.3 40.3743C37.2415 40.3837 37.1841 40.3987 37.1284 40.4189C32.0045 42.8093 27.6633 46.1681 24.2904 50.7397C24.1842 50.8475 24.1246 50.9927 24.1246 51.144C24.1246 51.2953 24.1842 51.4405 24.2904 51.5483C27.0898 55.4782 30.74 58.3645 35.0718 60.4376C35.9603 60.863 36.8793 61.2273 37.843 61.6457ZM77.0483 51.1369C73.572 46.295 69.0733 42.8093 63.7119 40.3061C68.5256 47.5572 68.4128 54.5991 63.2536 61.594C68.8805 59.4763 73.5673 56.1716 77.0483 51.1369Z" fill="#15F2FD"/>
<path d="M24.0107 24.1469C24.0107 26.6759 24.0107 29.1157 24.0107 31.5554C24.0107 32.8411 22.8637 33.6708 21.7002 33.2901C21.3521 33.1775 21.0484 32.9578 20.8327 32.6623C20.617 32.3668 20.5002 32.0106 20.4991 31.6448C20.4873 29.0875 20.4662 26.5278 20.4991 23.9706C20.5248 23.0893 20.8883 22.2516 21.5144 21.6308C22.1404 21.01 22.9811 20.6536 23.8626 20.6353C26.4011 20.593 28.9419 20.6094 31.4803 20.6353C31.9457 20.634 32.3927 20.8165 32.7241 21.1431C33.0556 21.4698 33.2446 21.914 33.2502 22.3793C33.2496 22.6145 33.2022 22.8473 33.1107 23.064C33.0191 23.2807 32.8852 23.4769 32.717 23.6412C32.5487 23.8056 32.3493 23.9348 32.1305 24.0212C31.9117 24.1076 31.6779 24.1495 31.4427 24.1445C29.1981 24.1586 26.9511 24.1445 24.7041 24.1445L24.0107 24.1469Z" fill="#15F2FD"/>
<path d="M77.0389 24.1468H69.7197C68.5985 24.1468 67.7876 23.3947 67.7923 22.3817C67.797 21.3686 68.5961 20.633 69.6726 20.6283C72.1147 20.6283 74.5569 20.6118 76.9966 20.6283C77.4675 20.6209 77.935 20.7085 78.3711 20.8859C78.8073 21.0634 79.2032 21.327 79.5352 21.6609C79.8672 21.9949 80.1285 22.3924 80.3033 22.8296C80.4782 23.2668 80.563 23.7348 80.5528 24.2056C80.5693 26.6266 80.5528 29.0475 80.5528 31.4708C80.5528 32.5873 79.789 33.4005 78.7783 33.3911C77.7676 33.3817 77.0366 32.5708 77.0342 31.4403C77.0342 29.0499 77.0389 26.6501 77.0389 24.1468Z" fill="#15F2FD"/>
<path d="M24.0107 77.1821C26.5351 77.1821 28.9748 77.1821 31.4146 77.1821C32.7214 77.1821 33.584 78.3761 33.1327 79.5325C33.022 79.8715 32.8053 80.1659 32.5146 80.3724C32.2239 80.5789 31.8745 80.6866 31.518 80.6796C28.9584 80.6984 26.3987 80.7195 23.8414 80.6796C22.9516 80.6517 22.1071 80.281 21.4842 79.645C20.8613 79.009 20.5084 78.1569 20.4991 77.2667C20.4685 74.7682 20.4827 72.2673 20.4991 69.7688C20.4922 69.5337 20.532 69.2995 20.6161 69.0798C20.7002 68.8601 20.827 68.6592 20.9892 68.4888C21.1513 68.3183 21.3456 68.1817 21.5608 68.0867C21.776 67.9917 22.008 67.9403 22.2432 67.9355C23.2351 67.9355 24.0106 68.7276 24.0153 69.7994C24.0153 72.0252 24.0153 74.2511 24.0153 76.477L24.0107 77.1821Z" fill="#15F2FD"/>
<path d="M77.0389 77.1821V76.477C77.0389 74.2511 77.0389 72.0229 77.0389 69.797C77.0389 68.7229 77.8098 67.9167 78.8017 67.9167C79.7936 67.9167 80.5504 68.7205 80.5551 69.797C80.5551 72.2391 80.5692 74.6812 80.5551 77.121C80.563 77.5875 80.4774 78.0508 80.3033 78.4837C80.1293 78.9166 79.8704 79.3102 79.5418 79.6414C79.2132 79.9727 78.8216 80.2347 78.3901 80.4122C77.9587 80.5897 77.496 80.679 77.0295 80.6749C74.5686 80.6984 72.1077 80.689 69.6468 80.6749C68.575 80.6749 67.7664 79.8875 67.7852 78.9003C67.804 77.9131 68.5938 77.161 69.6656 77.1586C72.1053 77.1798 74.5263 77.1821 77.0389 77.1821Z" fill="#15F2FD"/>
<path d="M50.6035 55.8778C53.3296 55.8778 55.5395 53.6679 55.5395 50.9418C55.5395 48.2158 53.3296 46.0059 50.6035 46.0059C47.8775 46.0059 45.6676 48.2158 45.6676 50.9418C45.6676 53.6679 47.8775 55.8778 50.6035 55.8778Z" fill="#15F2FD"/>
</g>
<g filter="url(#filter2_f_4522_15509)">
<path d="M49.4682 67.322C42.3822 67.25 35.461 65.1754 29.5036 61.3378C26.2411 59.2326 23.427 56.5031 21.2231 53.3064C20.2382 51.8797 20.2147 50.413 21.2231 49.0004C25.0519 43.632 30.0678 39.7161 36.059 37.0413C41.6402 34.5058 47.7986 33.5116 53.8941 34.1621C64.6286 35.2973 73.2523 40.2426 79.7301 48.8805C80.8771 50.4083 80.8395 51.8562 79.7301 53.4239C75.4241 59.535 69.501 63.3592 62.4521 65.5498C58.5527 66.765 54.564 67.322 49.4682 67.322ZM50.4907 63.8175C57.7488 63.8175 63.6532 57.9908 63.6532 50.8149C63.6532 43.263 57.8757 37.5373 50.2274 37.5302C43.2513 37.5302 37.3705 43.5098 37.3705 50.6175C37.3606 54.1076 38.7371 57.4588 41.1975 59.9341C43.6578 62.4095 47.0006 63.8063 50.4907 63.8175ZM37.843 61.6457C32.672 54.5944 32.4957 47.5572 37.3 40.3743C37.2415 40.3837 37.1841 40.3987 37.1284 40.4189C32.0045 42.8093 27.6633 46.1681 24.2904 50.7397C24.1842 50.8475 24.1246 50.9927 24.1246 51.144C24.1246 51.2953 24.1842 51.4405 24.2904 51.5483C27.0898 55.4782 30.74 58.3645 35.0718 60.4376C35.9603 60.863 36.8793 61.2273 37.843 61.6457ZM77.0483 51.1369C73.572 46.295 69.0733 42.8093 63.7119 40.3061C68.5256 47.5572 68.4128 54.5991 63.2536 61.594C68.8805 59.4763 73.5673 56.1716 77.0483 51.1369Z" fill="#15F2FD"/>
<path d="M24.0107 24.1469C24.0107 26.6759 24.0107 29.1157 24.0107 31.5554C24.0107 32.8411 22.8637 33.6708 21.7002 33.2901C21.3521 33.1775 21.0484 32.9578 20.8327 32.6623C20.617 32.3668 20.5002 32.0106 20.4991 31.6448C20.4873 29.0875 20.4662 26.5278 20.4991 23.9706C20.5248 23.0893 20.8883 22.2516 21.5144 21.6308C22.1404 21.01 22.9811 20.6536 23.8626 20.6353C26.4011 20.593 28.9419 20.6094 31.4803 20.6353C31.9457 20.634 32.3927 20.8165 32.7241 21.1431C33.0556 21.4698 33.2446 21.914 33.2502 22.3793C33.2496 22.6145 33.2022 22.8473 33.1107 23.064C33.0191 23.2807 32.8852 23.4769 32.717 23.6412C32.5487 23.8056 32.3493 23.9348 32.1305 24.0212C31.9117 24.1076 31.6779 24.1495 31.4427 24.1445C29.1981 24.1586 26.9511 24.1445 24.7041 24.1445L24.0107 24.1469Z" fill="#15F2FD"/>
<path d="M77.0389 24.1468H69.7197C68.5985 24.1468 67.7876 23.3947 67.7923 22.3817C67.797 21.3686 68.5961 20.633 69.6726 20.6283C72.1147 20.6283 74.5569 20.6118 76.9966 20.6283C77.4675 20.6209 77.935 20.7085 78.3711 20.8859C78.8073 21.0634 79.2032 21.327 79.5352 21.6609C79.8672 21.9949 80.1285 22.3924 80.3033 22.8296C80.4782 23.2668 80.563 23.7348 80.5528 24.2056C80.5693 26.6266 80.5528 29.0475 80.5528 31.4708C80.5528 32.5873 79.789 33.4005 78.7783 33.3911C77.7676 33.3817 77.0366 32.5708 77.0342 31.4403C77.0342 29.0499 77.0389 26.6501 77.0389 24.1468Z" fill="#15F2FD"/>
<path d="M24.0107 77.1821C26.5351 77.1821 28.9748 77.1821 31.4146 77.1821C32.7214 77.1821 33.584 78.3761 33.1327 79.5325C33.022 79.8715 32.8053 80.1659 32.5146 80.3724C32.2239 80.5789 31.8745 80.6866 31.518 80.6796C28.9584 80.6984 26.3987 80.7195 23.8414 80.6796C22.9516 80.6517 22.1071 80.281 21.4842 79.645C20.8613 79.009 20.5084 78.1569 20.4991 77.2667C20.4685 74.7682 20.4827 72.2673 20.4991 69.7688C20.4922 69.5337 20.532 69.2995 20.6161 69.0798C20.7002 68.8601 20.827 68.6592 20.9892 68.4888C21.1513 68.3183 21.3456 68.1817 21.5608 68.0867C21.776 67.9917 22.008 67.9403 22.2432 67.9355C23.2351 67.9355 24.0106 68.7276 24.0153 69.7994C24.0153 72.0252 24.0153 74.2511 24.0153 76.477L24.0107 77.1821Z" fill="#15F2FD"/>
<path d="M77.0389 77.1821V76.477C77.0389 74.2511 77.0389 72.0229 77.0389 69.797C77.0389 68.7229 77.8098 67.9167 78.8017 67.9167C79.7936 67.9167 80.5504 68.7205 80.5551 69.797C80.5551 72.2391 80.5692 74.6812 80.5551 77.121C80.563 77.5875 80.4774 78.0508 80.3033 78.4837C80.1293 78.9166 79.8704 79.3102 79.5418 79.6414C79.2132 79.9727 78.8216 80.2347 78.3901 80.4122C77.9587 80.5897 77.496 80.679 77.0295 80.6749C74.5686 80.6984 72.1077 80.689 69.6468 80.6749C68.575 80.6749 67.7664 79.8875 67.7852 78.9003C67.804 77.9131 68.5938 77.161 69.6656 77.1586C72.1053 77.1798 74.5263 77.1821 77.0389 77.1821Z" fill="#15F2FD"/>
<path d="M50.6035 55.8778C53.3296 55.8778 55.5395 53.6679 55.5395 50.9418C55.5395 48.2158 53.3296 46.0059 50.6035 46.0059C47.8775 46.0059 45.6676 48.2158 45.6676 50.9418C45.6676 53.6679 47.8775 55.8778 50.6035 55.8778Z" fill="#15F2FD"/>
</g>
<g filter="url(#filter3_d_4522_15509)">
<path d="M49.4682 67.322C42.3822 67.25 35.461 65.1754 29.5036 61.3378C26.2411 59.2326 23.427 56.5031 21.2231 53.3064C20.2382 51.8797 20.2147 50.413 21.2231 49.0004C25.0519 43.632 30.0678 39.7161 36.059 37.0413C41.6402 34.5058 47.7986 33.5116 53.8941 34.1621C64.6286 35.2973 73.2523 40.2426 79.7301 48.8805C80.8771 50.4083 80.8395 51.8562 79.7301 53.4239C75.4241 59.535 69.501 63.3592 62.4521 65.5498C58.5527 66.765 54.564 67.322 49.4682 67.322ZM50.4907 63.8175C57.7488 63.8175 63.6532 57.9908 63.6532 50.8149C63.6532 43.263 57.8757 37.5373 50.2274 37.5302C43.2513 37.5302 37.3705 43.5098 37.3705 50.6175C37.3606 54.1076 38.7371 57.4588 41.1975 59.9341C43.6578 62.4095 47.0006 63.8063 50.4907 63.8175ZM37.843 61.6457C32.672 54.5944 32.4957 47.5572 37.3 40.3743C37.2415 40.3837 37.1841 40.3987 37.1284 40.4189C32.0045 42.8093 27.6633 46.1681 24.2904 50.7397C24.1842 50.8475 24.1246 50.9927 24.1246 51.144C24.1246 51.2953 24.1842 51.4405 24.2904 51.5483C27.0898 55.4782 30.74 58.3645 35.0718 60.4376C35.9603 60.863 36.8793 61.2273 37.843 61.6457ZM77.0483 51.1369C73.572 46.295 69.0733 42.8093 63.7119 40.3061C68.5256 47.5572 68.4128 54.5991 63.2536 61.594C68.8805 59.4763 73.5673 56.1716 77.0483 51.1369Z" fill="white"/>
<path d="M24.0107 24.1469C24.0107 26.6759 24.0107 29.1157 24.0107 31.5554C24.0107 32.8411 22.8637 33.6708 21.7002 33.2901C21.3521 33.1775 21.0484 32.9578 20.8327 32.6623C20.617 32.3668 20.5002 32.0106 20.4991 31.6448C20.4873 29.0875 20.4662 26.5278 20.4991 23.9706C20.5248 23.0893 20.8883 22.2516 21.5144 21.6308C22.1404 21.01 22.9811 20.6536 23.8626 20.6353C26.4011 20.593 28.9419 20.6094 31.4803 20.6353C31.9457 20.634 32.3927 20.8165 32.7241 21.1431C33.0556 21.4698 33.2446 21.914 33.2502 22.3793C33.2496 22.6145 33.2022 22.8473 33.1107 23.064C33.0191 23.2807 32.8852 23.4769 32.717 23.6412C32.5487 23.8056 32.3493 23.9348 32.1305 24.0212C31.9117 24.1076 31.6779 24.1495 31.4427 24.1445C29.1981 24.1586 26.9511 24.1445 24.7041 24.1445L24.0107 24.1469Z" fill="white"/>
<path d="M77.0389 24.1468H69.7197C68.5985 24.1468 67.7876 23.3947 67.7923 22.3817C67.797 21.3686 68.5961 20.633 69.6726 20.6283C72.1147 20.6283 74.5569 20.6118 76.9966 20.6283C77.4675 20.6209 77.935 20.7085 78.3711 20.8859C78.8073 21.0634 79.2032 21.327 79.5352 21.6609C79.8672 21.9949 80.1285 22.3924 80.3033 22.8296C80.4782 23.2668 80.563 23.7348 80.5528 24.2056C80.5693 26.6266 80.5528 29.0475 80.5528 31.4708C80.5528 32.5873 79.789 33.4005 78.7783 33.3911C77.7676 33.3817 77.0366 32.5708 77.0342 31.4403C77.0342 29.0499 77.0389 26.6501 77.0389 24.1468Z" fill="white"/>
<path d="M24.0107 77.1821C26.5351 77.1821 28.9748 77.1821 31.4146 77.1821C32.7214 77.1821 33.584 78.3761 33.1327 79.5325C33.022 79.8715 32.8053 80.1659 32.5146 80.3724C32.2239 80.5789 31.8745 80.6866 31.518 80.6796C28.9584 80.6984 26.3987 80.7195 23.8414 80.6796C22.9516 80.6517 22.1071 80.281 21.4842 79.645C20.8613 79.009 20.5084 78.1569 20.4991 77.2667C20.4685 74.7682 20.4827 72.2673 20.4991 69.7688C20.4922 69.5337 20.532 69.2995 20.6161 69.0798C20.7002 68.8601 20.827 68.6592 20.9892 68.4888C21.1513 68.3183 21.3456 68.1817 21.5608 68.0867C21.776 67.9917 22.008 67.9403 22.2432 67.9355C23.2351 67.9355 24.0106 68.7276 24.0153 69.7994C24.0153 72.0252 24.0153 74.2511 24.0153 76.477L24.0107 77.1821Z" fill="white"/>
<path d="M77.0389 77.1821V76.477C77.0389 74.2511 77.0389 72.0229 77.0389 69.797C77.0389 68.7229 77.8098 67.9167 78.8017 67.9167C79.7936 67.9167 80.5504 68.7205 80.5551 69.797C80.5551 72.2391 80.5692 74.6812 80.5551 77.121C80.563 77.5875 80.4774 78.0508 80.3033 78.4837C80.1293 78.9166 79.8704 79.3102 79.5418 79.6414C79.2132 79.9727 78.8216 80.2347 78.3901 80.4122C77.9587 80.5897 77.496 80.679 77.0295 80.6749C74.5686 80.6984 72.1077 80.689 69.6468 80.6749C68.575 80.6749 67.7664 79.8875 67.7852 78.9003C67.804 77.9131 68.5938 77.161 69.6656 77.1586C72.1053 77.1798 74.5263 77.1821 77.0389 77.1821Z" fill="white"/>
<path d="M50.6035 55.8778C53.3296 55.8778 55.5395 53.6679 55.5395 50.9418C55.5395 48.2158 53.3296 46.0059 50.6035 46.0059C47.8775 46.0059 45.6676 48.2158 45.6676 50.9418C45.6676 53.6679 47.8775 55.8778 50.6035 55.8778Z" fill="white"/>
</g>
<defs>
<filter id="filter0_f_4522_15509" x="0.475586" y="0.609375" width="100.101" height="100.093" filterUnits="userSpaceOnUse" color-interpolation-filters="sRGB">
<feFlood flood-opacity="0" result="BackgroundImageFix"/>
<feBlend mode="normal" in="SourceGraphic" in2="BackgroundImageFix" result="shape"/>
<feGaussianBlur stdDeviation="10" result="effect1_foregroundBlur_4522_15509"/>
</filter>
<filter id="filter1_f_4522_15509" x="10.4756" y="10.6094" width="80.1006" height="80.0928" filterUnits="userSpaceOnUse" color-interpolation-filters="sRGB">
<feFlood flood-opacity="0" result="BackgroundImageFix"/>
<feBlend mode="normal" in="SourceGraphic" in2="BackgroundImageFix" result="shape"/>
<feGaussianBlur stdDeviation="5" result="effect1_foregroundBlur_4522_15509"/>
</filter>
<filter id="filter2_f_4522_15509" x="15.4756" y="15.6094" width="70.1006" height="70.0928" filterUnits="userSpaceOnUse" color-interpolation-filters="sRGB">
<feFlood flood-opacity="0" result="BackgroundImageFix"/>
<feBlend mode="normal" in="SourceGraphic" in2="BackgroundImageFix" result="shape"/>
<feGaussianBlur stdDeviation="2.5" result="effect1_foregroundBlur_4522_15509"/>
</filter>
<filter id="filter3_d_4522_15509" x="16.4756" y="20.6094" width="68.1006" height="68.0928" filterUnits="userSpaceOnUse" color-interpolation-filters="sRGB">
<feFlood flood-opacity="0" result="BackgroundImageFix"/>
<feColorMatrix in="SourceAlpha" type="matrix" values="0 0 0 0 0 0 0 0 0 0 0 0 0 0 0 0 0 0 127 0" result="hardAlpha"/>
<feOffset dy="4"/>
<feGaussianBlur stdDeviation="2"/>
<feComposite in2="hardAlpha" operator="out"/>
<feColorMatrix type="matrix" values="0 0 0 0 0 0 0 0 0 0 0 0 0 0 0 0 0 0 0.25 0"/>
<feBlend mode="normal" in2="BackgroundImageFix" result="effect1_dropShadow_4522_15509"/>
<feBlend mode="normal" in="SourceGraphic" in2="effect1_dropShadow_4522_15509" result="shape"/>
</filter>
</defs>
</svg>
