<svg width="109" height="109" viewBox="0 0 109 109" fill="none" xmlns="http://www.w3.org/2000/svg">
<g filter="url(#filter0_f_4522_15510)">
<path d="M72.77 69.1153L75.4113 71.7374C75.8374 71.2575 76.2889 70.6902 76.7997 70.185C77.7902 69.2028 79.0572 69.1803 80.0647 70.1596C82.3899 72.4571 84.7209 74.7488 86.9812 77.1084C88.8126 79.0163 89.4786 81.3166 88.5982 83.8652C87.7177 86.4138 85.8976 88.0169 83.2365 88.5306C82.2622 88.7356 81.2523 88.6977 80.2961 88.42C79.3399 88.1424 78.4666 87.6337 77.7535 86.9388C75.2363 84.5708 72.818 82.1012 70.3939 79.6372C70.1938 79.4349 70.0356 79.195 69.9285 78.9313C69.8214 78.6676 69.7675 78.3854 69.7699 78.1008C69.7722 77.8162 69.8308 77.5349 69.9422 77.273C70.0537 77.0111 70.2158 76.7739 70.4193 76.5749C70.93 76.0302 71.486 75.525 71.9996 75.0254L69.4006 72.4853C56.3859 83.6083 37.5721 80.7831 27.7151 68.7654C23.0644 63.1317 20.6786 55.9675 21.0229 48.6699C21.3673 41.3723 24.417 34.4647 29.5775 29.2942C40.2444 18.5888 57.1139 17.7365 68.9801 27.3185C80.9846 36.9852 84.0464 55.9743 72.77 69.1153ZM25.5027 50.0896C25.5026 53.36 26.1484 56.5983 27.4029 59.6185C28.6574 62.6387 30.4959 65.3814 32.8129 67.6891C35.13 69.9968 37.8799 71.8241 40.9048 73.0661C43.9298 74.3081 47.1702 74.9404 50.4401 74.9267C53.7098 74.9208 56.9463 74.2695 59.9639 73.0102C62.9816 71.751 65.7211 69.9084 68.0254 67.5882C70.3297 65.2681 72.1536 62.5158 73.3924 59.4893C74.6313 56.4628 75.2608 53.2216 75.2448 49.9513C75.2224 43.3708 72.5923 37.0677 67.9309 32.4236C63.2696 27.7795 56.9573 25.1733 50.3779 25.1763C47.108 25.1748 43.8699 25.8184 40.849 27.0703C37.8281 28.3222 35.0838 30.1578 32.7732 32.472C30.4626 34.7861 28.631 37.5334 27.3834 40.5565C26.1358 43.5796 25.4967 46.8191 25.5027 50.0896ZM75.3238 78.1527C77.1101 79.9533 78.8738 81.771 80.6855 83.5321C81.0537 83.8502 81.5108 84.0473 81.9948 84.0966C82.9007 84.201 83.8376 83.5519 84.2242 82.6854C84.4175 82.2915 84.4772 81.8453 84.3942 81.4145C84.3112 80.9836 84.09 80.5916 83.7642 80.2977C82.7285 79.2421 81.6732 78.2063 80.6319 77.1592C79.9095 76.431 79.1955 75.6972 78.4872 74.9718L75.3238 78.1527Z" fill="#15F2FD"/>
<path d="M42.2658 48.9388C37.2992 43.3928 38.8429 36.2381 43.0137 32.5943C45.092 30.7689 47.7681 29.7703 50.534 29.788C53.2999 29.8057 55.963 30.8384 58.0178 32.6903C62.1209 36.3255 63.5912 43.4972 58.6246 48.9529C59.4938 49.269 60.3601 49.5569 61.2066 49.89C63.8114 50.9156 66.2533 52.3141 68.4562 54.0417C69.7317 55.038 69.9913 55.8368 69.3676 57.3552C66.4215 64.5439 61.1305 68.8932 53.4576 70.1463C48.8429 70.8925 44.1123 70.0111 40.0758 67.653C36.0393 65.2948 32.9478 61.6066 31.3309 57.2197C30.8173 55.8085 31.0487 54.9985 32.2339 54.0784C35.0506 51.8706 38.2466 50.1958 41.6648 49.1364C41.8426 49.0828 42.0175 49.0207 42.2658 48.9388ZM36.4019 57.0024C37.6287 59.6659 39.5954 61.9204 42.0675 63.4972C44.5397 65.0741 47.413 65.9067 50.345 65.8958C53.2871 65.9196 56.1737 65.0944 58.6587 63.519C61.1437 61.9437 63.1218 59.685 64.3559 57.0137C55.6672 50.6549 44.673 50.8976 36.4019 57.0024ZM57.2277 41.0672C57.2318 40.1765 57.0595 39.2938 56.7206 38.4701C56.3817 37.6464 55.8829 36.8981 55.2532 36.2682C54.6235 35.6384 53.8753 35.1396 53.0517 34.8007C52.2282 34.4617 51.3456 34.2893 50.4551 34.2934C49.5605 34.2979 48.6756 34.4786 47.851 34.8254C47.0263 35.1721 46.278 35.678 45.649 36.3142C45.02 36.9504 44.5226 37.7044 44.1852 38.533C43.8477 39.3616 43.6769 40.2487 43.6824 41.1434C43.6996 42.9394 44.4292 44.6551 45.7109 45.9132C46.9926 47.1713 48.7215 47.8688 50.5172 47.8522C51.406 47.8546 52.2864 47.6798 53.107 47.3382C53.9275 46.9966 54.6718 46.495 55.2965 45.8626C55.9212 45.2302 56.4137 44.4797 56.7453 43.6549C57.0769 42.8302 57.2408 41.9476 57.2277 41.0587V41.0672Z" fill="#15F2FD"/>
</g>
<g filter="url(#filter1_f_4522_15510)">
<path d="M72.77 69.1153L75.4113 71.7374C75.8374 71.2575 76.2889 70.6902 76.7997 70.185C77.7902 69.2028 79.0572 69.1803 80.0647 70.1596C82.3899 72.4571 84.7209 74.7488 86.9812 77.1084C88.8126 79.0163 89.4786 81.3166 88.5982 83.8652C87.7177 86.4138 85.8976 88.0169 83.2365 88.5306C82.2622 88.7356 81.2523 88.6977 80.2961 88.42C79.3399 88.1424 78.4666 87.6337 77.7535 86.9388C75.2363 84.5708 72.818 82.1012 70.3939 79.6372C70.1938 79.4349 70.0356 79.195 69.9285 78.9313C69.8214 78.6676 69.7675 78.3854 69.7699 78.1008C69.7722 77.8162 69.8308 77.5349 69.9422 77.273C70.0537 77.0111 70.2158 76.7739 70.4193 76.5749C70.93 76.0302 71.486 75.525 71.9996 75.0254L69.4006 72.4853C56.3859 83.6083 37.5721 80.7831 27.7151 68.7654C23.0644 63.1317 20.6786 55.9675 21.0229 48.6699C21.3673 41.3723 24.417 34.4647 29.5775 29.2942C40.2444 18.5888 57.1139 17.7365 68.9801 27.3185C80.9846 36.9852 84.0464 55.9743 72.77 69.1153ZM25.5027 50.0896C25.5026 53.36 26.1484 56.5983 27.4029 59.6185C28.6574 62.6387 30.4959 65.3814 32.8129 67.6891C35.13 69.9968 37.8799 71.8241 40.9048 73.0661C43.9298 74.3081 47.1702 74.9404 50.4401 74.9267C53.7098 74.9208 56.9463 74.2695 59.9639 73.0102C62.9816 71.751 65.7211 69.9084 68.0254 67.5882C70.3297 65.2681 72.1536 62.5158 73.3924 59.4893C74.6313 56.4628 75.2608 53.2216 75.2448 49.9513C75.2224 43.3708 72.5923 37.0677 67.9309 32.4236C63.2696 27.7795 56.9573 25.1733 50.3779 25.1763C47.108 25.1748 43.8699 25.8184 40.849 27.0703C37.8281 28.3222 35.0838 30.1578 32.7732 32.472C30.4626 34.7861 28.631 37.5334 27.3834 40.5565C26.1358 43.5796 25.4967 46.8191 25.5027 50.0896ZM75.3238 78.1527C77.1101 79.9533 78.8738 81.771 80.6855 83.5321C81.0537 83.8502 81.5108 84.0473 81.9948 84.0966C82.9007 84.201 83.8376 83.5519 84.2242 82.6854C84.4175 82.2915 84.4772 81.8453 84.3942 81.4145C84.3112 80.9836 84.09 80.5916 83.7642 80.2977C82.7285 79.2421 81.6732 78.2063 80.6319 77.1592C79.9095 76.431 79.1955 75.6972 78.4872 74.9718L75.3238 78.1527Z" fill="#15F2FD"/>
<path d="M42.2658 48.9388C37.2992 43.3928 38.8429 36.2381 43.0137 32.5943C45.092 30.7689 47.7681 29.7703 50.534 29.788C53.2999 29.8057 55.963 30.8384 58.0178 32.6903C62.1209 36.3255 63.5912 43.4972 58.6246 48.9529C59.4938 49.269 60.3601 49.5569 61.2066 49.89C63.8114 50.9156 66.2533 52.3141 68.4562 54.0417C69.7317 55.038 69.9913 55.8368 69.3676 57.3552C66.4215 64.5439 61.1305 68.8932 53.4576 70.1463C48.8429 70.8925 44.1123 70.0111 40.0758 67.653C36.0393 65.2948 32.9478 61.6066 31.3309 57.2197C30.8173 55.8085 31.0487 54.9985 32.2339 54.0784C35.0506 51.8706 38.2466 50.1958 41.6648 49.1364C41.8426 49.0828 42.0175 49.0207 42.2658 48.9388ZM36.4019 57.0024C37.6287 59.6659 39.5954 61.9204 42.0675 63.4972C44.5397 65.0741 47.413 65.9067 50.345 65.8958C53.2871 65.9196 56.1737 65.0944 58.6587 63.519C61.1437 61.9437 63.1218 59.685 64.3559 57.0137C55.6672 50.6549 44.673 50.8976 36.4019 57.0024ZM57.2277 41.0672C57.2318 40.1765 57.0595 39.2938 56.7206 38.4701C56.3817 37.6464 55.8829 36.8981 55.2532 36.2682C54.6235 35.6384 53.8753 35.1396 53.0517 34.8007C52.2282 34.4617 51.3456 34.2893 50.4551 34.2934C49.5605 34.2979 48.6756 34.4786 47.851 34.8254C47.0263 35.1721 46.278 35.678 45.649 36.3142C45.02 36.9504 44.5226 37.7044 44.1852 38.533C43.8477 39.3616 43.6769 40.2487 43.6824 41.1434C43.6996 42.9394 44.4292 44.6551 45.7109 45.9132C46.9926 47.1713 48.7215 47.8688 50.5172 47.8522C51.406 47.8546 52.2864 47.6798 53.107 47.3382C53.9275 46.9966 54.6718 46.495 55.2965 45.8626C55.9212 45.2302 56.4137 44.4797 56.7453 43.6549C57.0769 42.8302 57.2408 41.9476 57.2277 41.0587V41.0672Z" fill="#15F2FD"/>
</g>
<g filter="url(#filter2_f_4522_15510)">
<path d="M72.77 69.1153L75.4113 71.7374C75.8374 71.2575 76.2889 70.6902 76.7997 70.185C77.7902 69.2028 79.0572 69.1803 80.0647 70.1596C82.3899 72.4571 84.7209 74.7488 86.9812 77.1084C88.8126 79.0163 89.4786 81.3166 88.5982 83.8652C87.7177 86.4138 85.8976 88.0169 83.2365 88.5306C82.2622 88.7356 81.2523 88.6977 80.2961 88.42C79.3399 88.1424 78.4666 87.6337 77.7535 86.9388C75.2363 84.5708 72.818 82.1012 70.3939 79.6372C70.1938 79.4349 70.0356 79.195 69.9285 78.9313C69.8214 78.6676 69.7675 78.3854 69.7699 78.1008C69.7722 77.8162 69.8308 77.5349 69.9422 77.273C70.0537 77.0111 70.2158 76.7739 70.4193 76.5749C70.93 76.0302 71.486 75.525 71.9996 75.0254L69.4006 72.4853C56.3859 83.6083 37.5721 80.7831 27.7151 68.7654C23.0644 63.1317 20.6786 55.9675 21.0229 48.6699C21.3673 41.3723 24.417 34.4647 29.5775 29.2942C40.2444 18.5888 57.1139 17.7365 68.9801 27.3185C80.9846 36.9852 84.0464 55.9743 72.77 69.1153ZM25.5027 50.0896C25.5026 53.36 26.1484 56.5983 27.4029 59.6185C28.6574 62.6387 30.4959 65.3814 32.8129 67.6891C35.13 69.9968 37.8799 71.8241 40.9048 73.0661C43.9298 74.3081 47.1702 74.9404 50.4401 74.9267C53.7098 74.9208 56.9463 74.2695 59.9639 73.0102C62.9816 71.751 65.7211 69.9084 68.0254 67.5882C70.3297 65.2681 72.1536 62.5158 73.3924 59.4893C74.6313 56.4628 75.2608 53.2216 75.2448 49.9513C75.2224 43.3708 72.5923 37.0677 67.9309 32.4236C63.2696 27.7795 56.9573 25.1733 50.3779 25.1763C47.108 25.1748 43.8699 25.8184 40.849 27.0703C37.8281 28.3222 35.0838 30.1578 32.7732 32.472C30.4626 34.7861 28.631 37.5334 27.3834 40.5565C26.1358 43.5796 25.4967 46.8191 25.5027 50.0896ZM75.3238 78.1527C77.1101 79.9533 78.8738 81.771 80.6855 83.5321C81.0537 83.8502 81.5108 84.0473 81.9948 84.0966C82.9007 84.201 83.8376 83.5519 84.2242 82.6854C84.4175 82.2915 84.4772 81.8453 84.3942 81.4145C84.3112 80.9836 84.09 80.5916 83.7642 80.2977C82.7285 79.2421 81.6732 78.2063 80.6319 77.1592C79.9095 76.431 79.1955 75.6972 78.4872 74.9718L75.3238 78.1527Z" fill="#15F2FD"/>
<path d="M42.2658 48.9388C37.2992 43.3928 38.8429 36.2381 43.0137 32.5943C45.092 30.7689 47.7681 29.7703 50.534 29.788C53.2999 29.8057 55.963 30.8384 58.0178 32.6903C62.1209 36.3255 63.5912 43.4972 58.6246 48.9529C59.4938 49.269 60.3601 49.5569 61.2066 49.89C63.8114 50.9156 66.2533 52.3141 68.4562 54.0417C69.7317 55.038 69.9913 55.8368 69.3676 57.3552C66.4215 64.5439 61.1305 68.8932 53.4576 70.1463C48.8429 70.8925 44.1123 70.0111 40.0758 67.653C36.0393 65.2948 32.9478 61.6066 31.3309 57.2197C30.8173 55.8085 31.0487 54.9985 32.2339 54.0784C35.0506 51.8706 38.2466 50.1958 41.6648 49.1364C41.8426 49.0828 42.0175 49.0207 42.2658 48.9388ZM36.4019 57.0024C37.6287 59.6659 39.5954 61.9204 42.0675 63.4972C44.5397 65.0741 47.413 65.9067 50.345 65.8958C53.2871 65.9196 56.1737 65.0944 58.6587 63.519C61.1437 61.9437 63.1218 59.685 64.3559 57.0137C55.6672 50.6549 44.673 50.8976 36.4019 57.0024ZM57.2277 41.0672C57.2318 40.1765 57.0595 39.2938 56.7206 38.4701C56.3817 37.6464 55.8829 36.8981 55.2532 36.2682C54.6235 35.6384 53.8753 35.1396 53.0517 34.8007C52.2282 34.4617 51.3456 34.2893 50.4551 34.2934C49.5605 34.2979 48.6756 34.4786 47.851 34.8254C47.0263 35.1721 46.278 35.678 45.649 36.3142C45.02 36.9504 44.5226 37.7044 44.1852 38.533C43.8477 39.3616 43.6769 40.2487 43.6824 41.1434C43.6996 42.9394 44.4292 44.6551 45.7109 45.9132C46.9926 47.1713 48.7215 47.8688 50.5172 47.8522C51.406 47.8546 52.2864 47.6798 53.107 47.3382C53.9275 46.9966 54.6718 46.495 55.2965 45.8626C55.9212 45.2302 56.4137 44.4797 56.7453 43.6549C57.0769 42.8302 57.2408 41.9476 57.2277 41.0587V41.0672Z" fill="#15F2FD"/>
</g>
<g filter="url(#filter3_d_4522_15510)">
<path d="M72.77 69.1153L75.4113 71.7374C75.8374 71.2575 76.2889 70.6902 76.7997 70.185C77.7902 69.2028 79.0572 69.1803 80.0647 70.1596C82.3899 72.4571 84.7209 74.7488 86.9812 77.1084C88.8126 79.0163 89.4786 81.3166 88.5982 83.8652C87.7177 86.4138 85.8976 88.0169 83.2365 88.5306C82.2622 88.7356 81.2523 88.6977 80.2961 88.42C79.3399 88.1424 78.4666 87.6337 77.7535 86.9388C75.2363 84.5708 72.818 82.1012 70.3939 79.6372C70.1938 79.4349 70.0356 79.195 69.9285 78.9313C69.8214 78.6676 69.7675 78.3854 69.7699 78.1008C69.7722 77.8162 69.8308 77.5349 69.9422 77.273C70.0537 77.0111 70.2158 76.7739 70.4193 76.5749C70.93 76.0302 71.486 75.525 71.9996 75.0254L69.4006 72.4853C56.3859 83.6083 37.5721 80.7831 27.7151 68.7654C23.0644 63.1317 20.6786 55.9675 21.0229 48.6699C21.3673 41.3723 24.417 34.4647 29.5775 29.2942C40.2444 18.5888 57.1139 17.7365 68.9801 27.3185C80.9846 36.9852 84.0464 55.9743 72.77 69.1153ZM25.5027 50.0896C25.5026 53.36 26.1484 56.5983 27.4029 59.6185C28.6574 62.6387 30.4959 65.3814 32.8129 67.6891C35.13 69.9968 37.8799 71.8241 40.9048 73.0661C43.9298 74.3081 47.1702 74.9404 50.4401 74.9267C53.7098 74.9208 56.9463 74.2695 59.9639 73.0102C62.9816 71.751 65.7211 69.9084 68.0254 67.5882C70.3297 65.2681 72.1536 62.5158 73.3924 59.4893C74.6313 56.4628 75.2608 53.2216 75.2448 49.9513C75.2224 43.3708 72.5923 37.0677 67.9309 32.4236C63.2696 27.7795 56.9573 25.1733 50.3779 25.1763C47.108 25.1748 43.8699 25.8184 40.849 27.0703C37.8281 28.3222 35.0838 30.1578 32.7732 32.472C30.4626 34.7861 28.631 37.5334 27.3834 40.5565C26.1358 43.5796 25.4967 46.8191 25.5027 50.0896ZM75.3238 78.1527C77.1101 79.9533 78.8738 81.771 80.6855 83.5321C81.0537 83.8502 81.5108 84.0473 81.9948 84.0966C82.9007 84.201 83.8376 83.5519 84.2242 82.6854C84.4175 82.2915 84.4772 81.8453 84.3942 81.4145C84.3112 80.9836 84.09 80.5916 83.7642 80.2977C82.7285 79.2421 81.6732 78.2063 80.6319 77.1592C79.9095 76.431 79.1955 75.6972 78.4872 74.9718L75.3238 78.1527Z" fill="white"/>
<path d="M42.2658 48.9388C37.2992 43.3928 38.8429 36.2381 43.0137 32.5943C45.092 30.7689 47.7681 29.7703 50.534 29.788C53.2999 29.8057 55.963 30.8384 58.0178 32.6903C62.1209 36.3255 63.5912 43.4972 58.6246 48.9529C59.4938 49.269 60.3601 49.5569 61.2066 49.89C63.8114 50.9156 66.2533 52.3141 68.4562 54.0417C69.7317 55.038 69.9913 55.8368 69.3676 57.3552C66.4215 64.5439 61.1305 68.8932 53.4576 70.1463C48.8429 70.8925 44.1123 70.0111 40.0758 67.653C36.0393 65.2948 32.9478 61.6066 31.3309 57.2197C30.8173 55.8085 31.0487 54.9985 32.2339 54.0784C35.0506 51.8706 38.2466 50.1958 41.6648 49.1364C41.8426 49.0828 42.0175 49.0207 42.2658 48.9388ZM36.4019 57.0024C37.6287 59.6659 39.5954 61.9204 42.0675 63.4972C44.5397 65.0741 47.413 65.9067 50.345 65.8958C53.2871 65.9196 56.1737 65.0944 58.6587 63.519C61.1437 61.9437 63.1218 59.685 64.3559 57.0137C55.6672 50.6549 44.673 50.8976 36.4019 57.0024ZM57.2277 41.0672C57.2318 40.1765 57.0595 39.2938 56.7206 38.4701C56.3817 37.6464 55.8829 36.8981 55.2532 36.2682C54.6235 35.6384 53.8753 35.1396 53.0517 34.8007C52.2282 34.4617 51.3456 34.2893 50.4551 34.2934C49.5605 34.2979 48.6756 34.4786 47.851 34.8254C47.0263 35.1721 46.278 35.678 45.649 36.3142C45.02 36.9504 44.5226 37.7044 44.1852 38.533C43.8477 39.3616 43.6769 40.2487 43.6824 41.1434C43.6996 42.9394 44.4292 44.6551 45.7109 45.9132C46.9926 47.1713 48.7215 47.8688 50.5172 47.8522C51.406 47.8546 52.2864 47.6798 53.107 47.3382C53.9275 46.9966 54.6718 46.495 55.2965 45.8626C55.9212 45.2302 56.4137 44.4797 56.7453 43.6549C57.0769 42.8302 57.2408 41.9476 57.2277 41.0587V41.0672Z" fill="white"/>
</g>
<defs>
<filter id="filter0_f_4522_15510" x="0.990234" y="0.661621" width="107.993" height="107.999" filterUnits="userSpaceOnUse" color-interpolation-filters="sRGB">
<feFlood flood-opacity="0" result="BackgroundImageFix"/>
<feBlend mode="normal" in="SourceGraphic" in2="BackgroundImageFix" result="shape"/>
<feGaussianBlur stdDeviation="10" result="effect1_foregroundBlur_4522_15510"/>
</filter>
<filter id="filter1_f_4522_15510" x="10.9902" y="10.6616" width="87.9932" height="87.999" filterUnits="userSpaceOnUse" color-interpolation-filters="sRGB">
<feFlood flood-opacity="0" result="BackgroundImageFix"/>
<feBlend mode="normal" in="SourceGraphic" in2="BackgroundImageFix" result="shape"/>
<feGaussianBlur stdDeviation="5" result="effect1_foregroundBlur_4522_15510"/>
</filter>
<filter id="filter2_f_4522_15510" x="15.9902" y="15.6616" width="77.9932" height="77.999" filterUnits="userSpaceOnUse" color-interpolation-filters="sRGB">
<feFlood flood-opacity="0" result="BackgroundImageFix"/>
<feBlend mode="normal" in="SourceGraphic" in2="BackgroundImageFix" result="shape"/>
<feGaussianBlur stdDeviation="2.5" result="effect1_foregroundBlur_4522_15510"/>
</filter>
<filter id="filter3_d_4522_15510" x="16.9902" y="20.6616" width="75.9932" height="75.999" filterUnits="userSpaceOnUse" color-interpolation-filters="sRGB">
<feFlood flood-opacity="0" result="BackgroundImageFix"/>
<feColorMatrix in="SourceAlpha" type="matrix" values="0 0 0 0 0 0 0 0 0 0 0 0 0 0 0 0 0 0 127 0" result="hardAlpha"/>
<feOffset dy="4"/>
<feGaussianBlur stdDeviation="2"/>
<feComposite in2="hardAlpha" operator="out"/>
<feColorMatrix type="matrix" values="0 0 0 0 0 0 0 0 0 0 0 0 0 0 0 0 0 0 0.25 0"/>
<feBlend mode="normal" in2="BackgroundImageFix" result="effect1_dropShadow_4522_15510"/>
<feBlend mode="normal" in="SourceGraphic" in2="effect1_dropShadow_4522_15510" result="shape"/>
</filter>
</defs>
</svg>
