<svg width="98" height="98" fill="none" xmlns="http://www.w3.org/2000/svg"><circle cx="60" cy="38" r="38" fill="#F0EBDF"/><path d="M19.867 78.82c-.615.42-1.231.924-1.847 1.428a68.928 68.928 0 001.232 3.864 36.933 36.933 0 011.764-1.344l.055-.028v-.028a62.526 62.526 0 01-1.203-3.892zm8.96 2.408c-.055-.252-.14-.475-.195-.728-.196-.7-.392-1.372-.56-2.072-.337-1.372-.673-2.744-.924-4.116A78.719 78.719 0 0126.7 72.1a91.349 91.349 0 012.128-41.328l.616-2.156c.112-.43.168-.872.167-1.316a4.921 4.921 0 00-9.52-1.736l-.195.532a83.023 83.023 0 00-3.445 11.76l-.168.756a82.72 82.72 0 000 34.776l.168.757c.28 1.288.588 2.575.952 3.864.168.756.392 1.484.616 2.24a69.093 69.093 0 001.232 3.864c.196.587.42 1.204.644 1.792l.112.336.084.196a4.945 4.945 0 004.649 3.17 4.88 4.88 0 004.872-4.9c0-.445-.056-.887-.168-1.317l-.616-2.162zm-4.175 6.216a2.804 2.804 0 01-2.547-1.764l-.196-.532c-.028-.112-.084-.224-.112-.336a45.048 45.048 0 01-.728-2.072v-.028a62.544 62.544 0 01-1.204-3.892 50.747 50.747 0 01-.616-2.212v-.029a53.806 53.806 0 01-.672-2.884l-.168-.784v.001a80.706 80.706 0 010-33.824l.168-.785a80.972 80.972 0 013.334-11.418l.196-.56a2.82 2.82 0 012.633-1.764 2.745 2.745 0 012.716 2.744c.003.248-.034.494-.112.728l-.616 2.156a93.612 93.612 0 00-3.612 25.816 94.95 94.95 0 001.567 17.136c.14.756.28 1.512.476 2.268.252 1.372.588 2.744.952 4.088.168.7.364 1.4.56 2.1a.652.652 0 00.057.224l.616 2.156c.077.234.115.48.112.728a2.76 2.76 0 01-2.803 2.739z" fill="#000"/><path d="M25.59 84.112a1.084 1.084 0 11-2.167 0 1.084 1.084 0 012.167 0zm.116-56.292a1.084 1.084 0 11-2.168.001 1.084 1.084 0 012.168 0zM70.52 46.453a13.379 13.379 0 00-4.593-3.78 1.022 1.022 0 00-1.12.084L40.42 60.733c-.449.322-.56.941-.252 1.4a4.89 4.89 0 01.728 2.855 4.986 4.986 0 01-1.036 2.717 49.275 49.275 0 00-8.848 2.492A42.052 42.052 0 0026.7 72.1a34.39 34.39 0 00-2.016 1.036c.14.756.28 1.512.476 2.268.64-.402 1.305-.767 1.988-1.092.42-.224.84-.448 1.288-.644 1.092-.532 2.184-1.064 3.332-1.512a49.182 49.182 0 018.764-2.437l.112-.028a.61.61 0 00.224-.084l.112-.028 28.476-21a12.89 12.89 0 011.568 3.697L41.932 73.725v-.001a51.414 51.414 0 00-8.988 2.492 47.352 47.352 0 00-4.872 2.212 19.2 19.2 0 00-1.96 1.064c.168.7.364 1.4.56 2.1a26.955 26.955 0 011.96-1.092 51.124 51.124 0 015.068-2.296 48.221 48.221 0 018.848-2.464h.056l30.21-22.148c.314-.244.466-.645.392-1.036a13.414 13.414 0 00-2.686-6.104zm-27.552 19.04c.022-.12.032-.242.028-.364a7.097 7.097 0 00-.589-3.248l8.68-6.384 14.448-10.64c.967.57 1.853 1.266 2.633 2.072l-25.2 18.564zM21.012 82.768c-.588.42-1.176.868-1.764 1.344a63.57 63.57 0 00-2.52 2.156c-.084.056-.672.616-.812.728-.455.432-1.1.601-1.707.449a1.795 1.795 0 01-.812-2.94 43.924 43.924 0 014.62-4.257c.616-.504 1.232-1.007 1.847-1.427a50.79 50.79 0 01-.616-2.212l-.252.167-.924.7c-.224.168-.448.364-.672.532a43.67 43.67 0 00-3.024 2.604l-.868.784c-.56.532-1.092 1.093-1.652 1.652a3.9 3.9 0 001.848 6.44 3.952 3.952 0 003.668-.952l.112-.112.868-.784a40.126 40.126 0 011.652-1.4 39.45 39.45 0 011.764-1.428h.029a45.085 45.085 0 01-.729-2.072l-.056.028z" fill="#000"/></svg>