<svg width="98" height="98" fill="none" xmlns="http://www.w3.org/2000/svg"><circle cx="60" cy="38" r="38" fill="#F0EBDF"/><path d="M48.946 89.6H35.159a3.26 3.26 0 01-3.187-2.615 150.92 150.92 0 01-2.926-29.528v-3.623a5.428 5.428 0 015.418-5.422h15.177a5.428 5.428 0 015.417 5.422v3.623a150.935 150.935 0 01-2.926 29.532 3.264 3.264 0 01-3.186 2.612zM34.464 50.582a3.25 3.25 0 00-3.25 3.25v3.624c0 9.777.965 19.532 2.88 29.12a1.09 1.09 0 001.065.871h13.787a1.09 1.09 0 001.063-.87 148.735 148.735 0 002.882-29.121v-3.623a3.255 3.255 0 00-3.251-3.25H34.464z" fill="#000"/><path d="M49.332 50.263L47.79 48.72l5.384-5.385a6.44 6.44 0 001.554-6.588l-2.617-7.84H31.995l-2.618 7.851a6.437 6.437 0 001.554 6.59l5.385 5.372-1.543 1.543-5.373-5.385a8.661 8.661 0 01-2.52-6.084 8.55 8.55 0 01.442-2.722l3.111-9.338h23.24l3.111 9.338c.294.877.443 1.797.442 2.722a8.661 8.661 0 01-2.52 6.084l-5.374 5.385z" fill="#000"/><path d="M53.974 27.818h-2.167v-3.25H32.296v3.25h-2.167v-3.25a2.17 2.17 0 012.167-2.168h19.51a2.171 2.171 0 012.168 2.167v3.25z" fill="#000"/><path d="M34.464 23.484h2.167v4.334h-2.167v-4.334zm4.336 0h2.168v4.334H38.8v-4.334zm4.335 0h2.167v4.334h-2.167v-4.334zm4.335 0h2.167v4.334H47.47v-4.334zM49.977 43.5h-1.484a1.092 1.092 0 01-1.093-1.09v-3.254c0-.627-1.87-2.158-5.336-2.158-3.467 0-5.337 1.531-5.337 2.158v3.254a1.095 1.095 0 01-1.092 1.092h-1.507a9.372 9.372 0 01-6.776-2.946 1.092 1.092 0 011.59-1.498 7.072 7.072 0 005.186 2.257h.403v-2.159c0-2.394 3.375-4.343 7.521-4.343 4.147 0 7.518 1.96 7.518 4.343v2.159h.406a7.088 7.088 0 005.188-2.257 1.09 1.09 0 011.585 1.498 9.36 9.36 0 01-6.773 2.946zm-1.094 16.106c-.252 0-.497-.087-.691-.25l-3.394-2.777a4.342 4.342 0 00-5.494 0l-3.393 2.78a1.09 1.09 0 01-1.844-.932 1.09 1.09 0 01.46-.747l3.392-2.781a6.542 6.542 0 018.263 0l3.393 2.78a1.091 1.091 0 01-.692 1.938v-.01z" fill="#000"/><path d="M46.907 63.39a4.778 4.778 0 00-1.32-2.19 5.085 5.085 0 00-7.072 0 4.778 4.778 0 00-1.319 2.19c-.17.467-.254.961-.252 1.459v3.113a5.107 5.107 0 1010.214 0v-3.114a4.217 4.217 0 00-.251-1.458zm-1.938 4.572a2.916 2.916 0 11-5.835 0v-3.113a2.613 2.613 0 01.42-1.46 2.895 2.895 0 014.995 0c.281.435.428.943.42 1.46v3.113zm2.683 9.696h-11.2a1.095 1.095 0 110-2.187h11.2a1.094 1.094 0 010 2.187zm-9.028 8.202a3.43 3.43 0 016.857 0v2.87h2.17v-2.87a5.61 5.61 0 10-11.222 0v2.87h2.184l.011-2.87z" fill="#000"/></svg>