<svg width="98" height="98" fill="none" xmlns="http://www.w3.org/2000/svg"><circle cx="60" cy="38" r="38" fill="#F0EBDF"/><path d="M43.12 71.094H12.785a3.254 3.254 0 110-6.504H43.12a3.254 3.254 0 110 6.504zm-30.335-4.337a1.083 1.083 0 000 2.168H43.12a1.084 1.084 0 100-2.168H12.785z" fill="#000"/><path d="M37.714 66.765H16.036a5.426 5.426 0 110-10.853h7.588a1.092 1.092 0 110 2.181h-7.588a3.245 3.245 0 000 6.49h21.678a5.412 5.412 0 000-10.824h-7.588a1.092 1.092 0 110-2.184h7.588a7.597 7.597 0 010 15.19z" fill="#000"/><path d="M17.119 58.094a1.089 1.089 0 01-1.092-1.09V55.94a8.357 8.357 0 017.305-8.274 3.992 3.992 0 003.08-2.172l2.327-4.657a1.097 1.097 0 011.582-.411l2.114 1.4a14.23 14.23 0 016.331 10.752c.046.6-.402 1.127-1.003 1.176a1.12 1.12 0 01-1.175-1.003 12.069 12.069 0 00-5.374-9.105l-1.083-.72-1.776 3.553a6.161 6.161 0 01-4.76 3.36 6.16 6.16 0 00-5.395 6.102v1.064a1.087 1.087 0 01-1.08 1.089h-.001zm21.636 29.962h-21.59a7.235 7.235 0 01-6.788-4.78l-.375-1.57a7.074 7.074 0 01-.059-.868v-9.24c0-.58.47-1.05 1.05-1.05h33.93c.58 0 1.05.47 1.05 1.05v9.254c0 .28-.017.561-.05.84l-.372 1.573a7.242 7.242 0 01-6.796 4.791zM10.993 71.094a.493.493 0 00-.49.49v9.255c.002.257.018.514.048.77l.362 1.509a6.683 6.683 0 006.252 4.382h21.59a6.678 6.678 0 006.258-4.413l.359-1.512a7.3 7.3 0 00.044-.737v-9.24a.493.493 0 00-.492-.49l-33.93-.014zm26.99 12.346H17.934c-.58 0-1.05-.47-1.05-1.05v-6.16c0-.58.47-1.05 1.05-1.05h20.049c.58 0 1.051.47 1.052 1.05v6.16a1.053 1.053 0 01-1.052 1.05zm-20.049-7.711a.493.493 0 00-.49.492v6.16c0 .271.22.492.49.493h20.049c.272 0 .493-.22.493-.493v-6.16a.493.493 0 00-.493-.492H17.934z" fill="#000"/><path d="M37.491 81.888H18.426V76.72H37.49v5.168zm-18.505-.56h17.945v-4.065H18.986v4.065z" fill="#000"/><path d="M45.693 69.415l-1.54-.144-32.393.001-1.543.143a2.308 2.308 0 00-1.543 2.17v9.254a8.496 8.496 0 008.49 8.48h21.59a8.494 8.494 0 008.481-8.483v-9.24a2.308 2.308 0 00-1.542-2.182zm0 11.423c-.002.269-.02.538-.05.804l-.367 1.54a6.95 6.95 0 01-6.524 4.597H17.164a6.94 6.94 0 01-6.524-4.597l-.367-1.54a6.902 6.902 0 01-.05-.804v-9.24a.77.77 0 01.77-.77h33.933a.77.77 0 01.77.77l-.003 9.24z" fill="#000"/><path d="M38.755 89.6H17.161A8.768 8.768 0 018.4 80.838v-9.24a2.592 2.592 0 011.73-2.435l1.608-.155h32.414l1.633.157a2.59 2.59 0 011.727 2.433v9.254a8.766 8.766 0 01-8.758 8.748h.001zm5.37-20.049H11.762l-1.518.143a2.03 2.03 0 00-1.288 1.89v9.254a8.211 8.211 0 008.207 8.2h21.594a8.21 8.21 0 008.201-8.203v-9.24a2.03 2.03 0 00-1.327-1.893l-1.504-.15zm-5.37 18.505h-21.59a7.236 7.236 0 01-6.788-4.78l-.375-1.57a7.062 7.062 0 01-.059-.868v-9.24c0-.58.47-1.05 1.05-1.05h33.93c.58 0 1.05.47 1.05 1.05v9.254c0 .28-.017.561-.05.84l-.372 1.573a7.242 7.242 0 01-6.796 4.791zM10.993 71.093a.493.493 0 00-.49.49v9.255c.002.257.018.514.048.77l.362 1.509a6.683 6.683 0 006.252 4.382h21.59a6.679 6.679 0 006.258-4.413l.358-1.512c.028-.245.043-.49.045-.737v-9.24a.493.493 0 00-.493-.49l-33.93-.014z" fill="#000"/><path d="M37.983 75.44H17.934a.772.772 0 00-.77.772v6.16c0 .426.345.77.77.77h20.049a.768.768 0 00.773-.77v-6.16a.773.773 0 00-.773-.772zm-.77 6.16H18.704v-4.618h18.508V81.6z" fill="#000"/><path d="M37.982 83.44H17.934c-.58 0-1.05-.47-1.05-1.05v-6.16c0-.58.47-1.05 1.05-1.05h20.048c.58 0 1.052.47 1.053 1.05v6.16a1.053 1.053 0 01-1.053 1.05zm-20.048-7.71a.493.493 0 00-.49.492v6.16c0 .272.219.492.49.493h20.048c.273 0 .493-.22.493-.492v-6.16a.493.493 0 00-.493-.493H17.934zm19.557 6.16H18.426v-5.17H37.49v5.168zm-18.505-.56h17.945v-4.066H18.986v4.065zm42.525 3.935a5.427 5.427 0 01-5.42-5.42h2.166a3.253 3.253 0 006.505 0h2.159a5.427 5.427 0 01-5.41 5.42z" fill="#000"/><path d="M69.096 89.6H53.922a3.257 3.257 0 01-3.242-3.251V78.76h21.678v7.588a3.257 3.257 0 01-3.262 3.25zM52.84 80.92v5.42c0 .599.485 1.084 1.083 1.084h15.174c.599 0 1.085-.485 1.087-1.084v-5.42H52.84z" fill="#000"/><path d="M72.28 80.92H50.74l-3.32-50.862v-5.866a1.792 1.792 0 011.793-1.792h24.595a1.798 1.798 0 011.792 1.792v5.796L72.28 80.92zm-19.511-2.167h17.48l3.186-48.838v-5.348H49.588v5.422l3.18 48.764z" fill="#000"/><path d="M48.504 28.904h26.012v2.167H48.504v-2.167z" fill="#000"/><path d="M51.755 23.483h2.167v6.505h-2.167v-6.505zm4.335 0h2.166v6.505H56.09v-6.505zm4.337 0h2.167v6.505h-2.167v-6.505zm4.335 0h2.167v6.505h-2.167v-6.505zm4.334 0h2.167v6.505h-2.167v-6.505zM51.755 74.427h19.51v2.167h-19.51v-2.167zm9.756-23.05a6.519 6.519 0 01-6.51-6.513c0-3.377 5.18-8.226 5.77-8.767a1.095 1.095 0 011.48 0c.587.541 5.77 5.39 5.77 8.768a6.522 6.522 0 01-6.51 6.512zm0-12.965c-1.915 1.904-4.329 4.842-4.329 6.44a4.33 4.33 0 008.658 0c0-1.598-2.417-4.533-4.329-6.44zm6.392 19.774H55.12a1.093 1.093 0 01-.81-1.887 1.1 1.1 0 01.81-.3h12.784a1.096 1.096 0 01.81 1.887 1.09 1.09 0 01-.81.3zm-1.36 5.707h-10.06a1.095 1.095 0 110-2.187h10.06a1.095 1.095 0 010 2.187z" fill="#000"/></svg>