<svg width="18" height="25" fill="none" xmlns="http://www.w3.org/2000/svg"><path d="M9 0a8.983 8.983 0 00-6.36 2.655A9.092 9.092 0 000 9.055c0 6.195 8.055 15.291 8.397 15.674a.812.812 0 00.932.2.812.812 0 00.273-.2C9.945 24.345 18 15.25 18 9.054a9.091 9.091 0 00-2.638-6.398A8.983 8.983 0 009 0zm0 13.61a4.509 4.509 0 01-2.515-.768 4.549 4.549 0 01-1.668-2.045A4.58 4.58 0 015.8 5.833a4.503 4.503 0 014.935-.987 4.534 4.534 0 012.032 1.678 4.575 4.575 0 01-.565 5.75 4.52 4.52 0 01-3.2 1.336z" fill="#C99E59"/></svg>