<svg width="24" height="24" fill="none" xmlns="http://www.w3.org/2000/svg"><path d="M12 8.75a3.25 3.25 0 100 6.5 3.25 3.25 0 000-6.5z" fill="#fff"/><path fill-rule="evenodd" clip-rule="evenodd" d="M6.77 3.082a47.47 47.47 0 0110.46 0c1.899.212 3.43 1.707 3.653 3.613a45.669 45.669 0 010 10.61c-.223 1.906-1.754 3.401-3.653 3.614a47.468 47.468 0 01-10.46 0c-1.899-.213-3.43-1.708-3.653-3.614a45.671 45.671 0 010-10.61C3.34 4.789 4.871 3.294 6.77 3.082zM17 6a1 1 0 100 2 1 1 0 000-2zm-9.75 6a4.75 4.75 0 119.5 0 4.75 4.75 0 01-9.5 0z" fill="#fff"/></svg>