<svg width="52" height="16" fill="none" xmlns="http://www.w3.org/2000/svg"><path d="M35.25 16a20.39 20.39 0 01-2.76-.189c-2.628-.36-4.797-1.566-6.463-3.59-1.448 1.806-3.258 2.932-5.393 3.352-1.628.324-3.291.44-4.95.341-4.193-.262-7.972-1.787-11.218-4.534C2.656 9.849 1.39 8.123.598 6.105a16.06 16.06 0 01-.367-1.087c-.057-.188-.12-.386-.19-.6a.85.85 0 011.398-.871c2.665 2.604 5.44 2.945 8.735 1.075.873-.494 1.747-1.062 2.596-1.611a70.647 70.647 0 011.984-1.257C16.18.896 17.634.343 19.081.112c2.245-.358 4.44.222 6.526 1.724.14.1.278.205.415.31 1.224-.945 2.38-1.544 3.595-1.868 2.261-.6 4.557-.234 7.017 1.13 1.57.871 3.062 1.843 4.314 2.678 1.874 1.25 3.54 1.781 5.241 1.67 1.655-.11 2.98-.738 4.049-1.92.057-.064.112-.118.183-.187l.132-.13a.848.848 0 011.446.645 8.636 8.636 0 01-1.191 4.006c-1.26 2.2-3.055 3.872-5.65 5.259-3.2 1.71-6.526 2.57-9.909 2.57V16zm-9.231-6.066c.284 0 .549.142.706.378 1.478 2.217 3.44 3.465 5.992 3.815 3.973.544 7.889-.2 11.638-2.2 2.296-1.23 3.881-2.692 4.976-4.605.17-.297.323-.606.455-.922-1.018.616-2.173.963-3.49 1.048-2.097.138-4.094-.482-6.291-1.95-1.224-.817-2.68-1.765-4.194-2.606-2.057-1.14-3.94-1.459-5.757-.975-1.144.305-2.248.928-3.477 1.959a.846.846 0 01-1.06.025l-.307-.236c-.207-.16-.4-.311-.6-.452-1.725-1.25-3.452-1.712-5.264-1.426-1.247.2-2.464.663-3.717 1.42-.65.39-1.304.815-1.937 1.227-.867.561-1.763 1.143-2.68 1.663-2.977 1.689-5.769 1.845-8.335.476.684 1.3 1.635 2.452 2.885 3.509 2.96 2.506 6.403 3.898 10.229 4.137 1.512.089 3.03-.016 4.516-.314 2.028-.4 3.71-1.605 5.001-3.585a.848.848 0 01.706-.385h.005z" fill="#211F19"/></svg>