<svg width="98" height="98" fill="none" xmlns="http://www.w3.org/2000/svg"><circle cx="60" cy="38" r="38" fill="#F0EBDF"/><path d="M36.84 60.97l-.386-.524-23.07-33.12a1.358 1.358 0 01-.22-1.012l1.427-7.98a1.355 1.355 0 011.572-1.095l7.98 1.427c.353.063.667.265.873.56L48.21 52.524l-4.733-2.627-20.172-28.96-6.552-1.172-1.172 6.549L36.15 55.842l-.975.68 2.295 4.44-.63.008z" fill="#000"/><path d="M14.815 19.063l1.955-1.361 23.108 33.174-1.955 1.361-23.108-33.174z" fill="#000"/><path d="M37.983 50.24A8.345 8.345 0 0148.76 62.876a8.342 8.342 0 01-14.227-7.255 8.345 8.345 0 013.45-5.38zm8.166 11.724a5.945 5.945 0 00-2.347-10.73 6.106 6.106 0 00-6.905 4.809 5.944 5.944 0 009.255 5.922l-.003-.001z" fill="#000"/><path d="M44.833 57.458a2.114 2.114 0 11-4.163-.744 2.114 2.114 0 014.163.744zm-9.651 13.26a7.059 7.059 0 00-4.991 8.646 7.062 7.062 0 104.991-8.646zm6.367 5.61a4.709 4.709 0 01-3.337 5.759 4.706 4.706 0 113.337-5.759z" fill="#000"/><path d="M42.219 64.233a6.238 6.238 0 001.547 6.299 9.4 9.4 0 012.476 4.018 6.773 6.773 0 002.605 3.674l3.482 2.373c.318.216.547.54.647.912a1.319 1.319 0 01-1.935 1.483l-1.665-.964a3.539 3.539 0 00-4.6.958 9.235 9.235 0 01-3.587 2.894 9.427 9.427 0 01-13.3-7.499 9.73 9.73 0 016.404-10.007 8.588 8.588 0 004.77-4.48l.33-.735-1.86-1.61-.62 1.38h.001a6.217 6.217 0 01-3.452 3.24 12.108 12.108 0 00-7.907 12.483A11.76 11.76 0 0040.273 88.68a11.905 11.905 0 001.881-.673 11.574 11.574 0 004.506-3.631 1.187 1.187 0 011.539-.331l1.662.963c.84.49 1.84.623 2.779.371a3.678 3.678 0 002.604-4.494 3.97 3.97 0 00-1.59-2.25l-3.48-2.375a4.515 4.515 0 01-1.685-2.423 11.736 11.736 0 00-3.096-5.005 3.917 3.917 0 01-.88-4.203l.22-.452-1.527.44-.987-.384zm27.434-1.442a7.06 7.06 0 10-9.838 1.7 7.065 7.065 0 009.838-1.7zm-9.615-6.783a4.71 4.71 0 016.559-1.133 4.706 4.706 0 11-6.56 1.133z" fill="#000"/><path d="M68.9 48.37a12.102 12.102 0 00-14.46 3.102 6.194 6.194 0 01-4.235 2.112l-1.561.108.865 2.302.864-.059a8.566 8.566 0 005.853-2.92 9.733 9.733 0 0111.61-2.538A9.43 9.43 0 0170.26 65.55a9.243 9.243 0 01-3.976 2.346 3.54 3.54 0 00-2.493 3.986l.327 1.894a1.318 1.318 0 01-2.06 1.304 1.608 1.608 0 01-.633-.927l-1.022-4.086a6.777 6.777 0 00-2.542-3.72 9.387 9.387 0 01-2.909-3.714 6.237 6.237 0 00-5.495-3.643l-.257 1.44-.804.931.76-.071a3.902 3.902 0 013.634 2.283 11.795 11.795 0 003.643 4.634 4.482 4.482 0 011.687 2.417l1.021 4.088c.232.92.787 1.725 1.562 2.271a3.67 3.67 0 005.74-3.607l-.327-1.896a1.178 1.178 0 01.843-1.326 11.633 11.633 0 004.968-2.968 11.78 11.78 0 00-3.023-18.802l-.003-.015z" fill="#000"/></svg>