<svg width="150" height="45" fill="none" xmlns="http://www.w3.org/2000/svg"><path d="M92.762 35.65c-8.643 6.057-21.17 9.288-31.956 9.288-15.123 0-28.738-5.318-39.038-14.162-.81-.696-.085-1.644.886-1.102 11.116 6.149 24.86 9.848 39.058 9.848 9.575 0 20.109-1.884 29.794-5.792 1.463-.59 2.687.911 1.256 1.92z" fill="#000" fill-opacity=".8"/><path d="M96.584 31.24c-1.148-1.422-7.613-.671-10.516-.338-.884.104-1.019-.64-.222-1.175 5.15-3.505 13.6-2.493 14.585-1.319.985 1.182-.257 9.372-5.096 13.281-.742.6-1.45.281-1.12-.515 1.086-2.624 3.523-8.504 2.369-9.933M86.225 5.273V1.758c0-.532.408-.89.898-.89h15.899c.51 0 .918.364.918.89v3.01c-.006.505-.435 1.166-1.197 2.21l-8.239 11.645c3.062-.074 6.293.377 9.069 1.926.626.35.796.862.844 1.367v3.752c0 .512-.572 1.111-1.17.802-4.892-2.54-11.39-2.816-16.798.027-.55.296-1.13-.297-1.13-.809v-3.563c0-.572.008-1.549.586-2.418L95.45 6.156h-8.307c-.51 0-.918-.357-.918-.883M31.83 26.576h-4.47a.855.855 0 01-.8-.782V2.213a.85.85 0 01.862-.847h4.17c.433.02.779.362.81.789v3.082h.082C33.572 2.257 35.616.87 38.37.87c2.799 0 4.547 1.389 5.804 4.368C45.256 2.257 47.714.87 50.35.87c1.873 0 3.923.794 5.175 2.578 1.415 1.984 1.126 4.866 1.126 7.393l-.007 14.883a.856.856 0 01-.861.853h-4.465a.863.863 0 01-.805-.853V13.225c0-.996.088-3.477-.126-4.42-.333-1.584-1.333-2.03-2.628-2.03-1.082 0-2.214.743-2.673 1.932-.459 1.19-.415 3.18-.415 4.518v12.498a.856.856 0 01-.861.853h-4.465a.858.858 0 01-.805-.853l-.006-12.498c0-2.63.421-6.502-2.755-6.502-3.213 0-3.087 3.775-3.087 6.502v12.498a.856.856 0 01-.862.853zM116.45.869c6.966 0 10.736 5.909 10.736 13.423 0 7.26-4.166 13.018-10.736 13.018-6.84 0-10.564-5.909-10.564-13.273 0-7.41 3.77-13.168 10.564-13.168m.04 4.859c-3.46 0-3.678 4.657-3.678 7.56 0 2.908-.046 9.117 3.638 9.117 3.638 0 3.81-5.009 3.81-8.061 0-2.01-.086-4.41-.7-6.314-.528-1.657-1.578-2.302-3.07-2.302m19.631 20.847h-4.451a.863.863 0 01-.805-.853l-.006-23.587a.853.853 0 01.861-.77h4.143c.39.02.71.291.798.66V5.63h.082c1.251-3.225 3.005-4.763 6.091-4.763 2.006 0 3.961.743 5.218 2.779 1.169 1.887 1.169 5.06 1.169 7.341v14.844a.866.866 0 01-.861.743h-4.482a.856.856 0 01-.792-.743V13.024c0-2.579.289-6.353-2.798-6.353-1.087 0-2.087.75-2.583 1.887-.629 1.441-.711 2.876-.711 4.466v12.698a.87.87 0 01-.873.853M74.21 15.642v-1.003c-3.221 0-6.624.716-6.624 4.66 0 1.998.997 3.352 2.707 3.352 1.254 0 2.375-.8 3.083-2.102.878-1.601.834-3.105.834-4.907m4.493 11.278c-.294.273-.72.293-1.053.11-1.479-1.275-1.742-1.867-2.556-3.084-2.444 2.59-4.174 3.364-7.345 3.364-3.747 0-6.667-2.401-6.667-7.21 0-3.756 1.961-6.313 4.75-7.563 2.419-1.106 5.796-1.301 8.378-1.607v-.599c0-1.1.081-2.401-.539-3.351-.545-.853-1.585-1.204-2.5-1.204-1.699 0-3.215.904-3.585 2.778-.075.417-.37.827-.77.846l-4.326-.48c-.363-.085-.764-.39-.664-.97.997-5.44 5.728-7.08 9.964-7.08 2.168 0 5 .598 6.712 2.303 2.168 2.102 1.961 4.907 1.961 7.96v7.21c0 2.168.865 3.118 1.68 4.29.288.416.35.917-.013 1.23a191.42 191.42 0 00-3.415 3.07l-.013-.012M14.434 15.642V14.64c-3.332 0-6.852.715-6.852 4.66 0 1.997 1.03 3.35 2.8 3.35 1.297 0 2.457-.8 3.19-2.101.907-1.601.862-3.104.862-4.907m4.648 11.278c-.305.273-.746.293-1.09.11-1.53-1.275-1.802-1.867-2.644-3.084-2.529 2.59-4.318 3.365-7.598 3.365-3.877 0-6.897-2.402-6.897-7.211 0-3.755 2.029-6.313 4.913-7.562 2.503-1.107 5.997-1.302 8.668-1.608v-.599c0-1.1.084-2.401-.558-3.351-.564-.853-1.64-1.204-2.586-1.204-1.757 0-3.326.904-3.708 2.779-.078.416-.383.826-.798.846l-4.473-.482c-.376-.084-.79-.39-.687-.97C2.654 2.51 7.549.87 11.931.87c2.243 0 5.174.599 6.943 2.304 2.243 2.102 2.03 4.907 2.03 7.959v7.21c0 2.168.894 3.118 1.737 4.29.298.416.363.917-.013 1.23-.94.787-2.613 2.251-3.533 3.071l-.013-.013" fill="#000" fill-opacity=".8"/></svg>