<svg width="235" height="85" fill="none" xmlns="http://www.w3.org/2000/svg"><path d="M136.243 60.528c-8.314 6.5-20.655 10.383-31.426 10.948-15.102.791-28.977-3.807-39.726-12.1-.844-.652-.17-1.637.828-1.147 11.423 5.559 25.342 8.533 39.52 7.79 9.562-.5 19.982-2.933 29.45-7.343 1.43-.666 2.73.77 1.354 1.852z" fill="#000" fill-opacity=".8"/><path d="M139.829 55.925c-1.22-1.361-7.638-.273-10.518.211-.878.15-1.052-.585-.284-1.161 4.959-3.77 13.45-3.202 14.496-2.08 1.046 1.128.234 9.372-4.394 13.53-.71.638-1.434.356-1.146-.457.948-2.677 3.074-8.676 1.846-10.043zm-11.704-25.39l-.184-3.51c-.028-.532.361-.91.851-.936l15.877-.832c.51-.027.936.315.964.84l.157 3.006c.02.505-.373 1.187-1.08 2.27l-7.618 12.06c3.054-.234 6.304.047 9.157 1.449.644.317.84.82.914 1.321l.197 3.747c.027.51-.513 1.14-1.127.861-5.018-2.28-11.52-2.215-16.773.906-.535.325-1.143-.236-1.17-.748l-.186-3.558c-.03-.572-.075-1.547.457-2.445l8.823-14.033-8.295.435c-.51.027-.936-.308-.964-.833zM74.92 54.655l-4.465.234a.855.855 0 01-.838-.739l-1.234-23.549a.85.85 0 01.816-.89l4.163-.219a.852.852 0 01.852.745l.16 3.079.083-.005c.93-3.032 2.898-4.526 5.649-4.67 2.794-.147 4.613 1.15 6.025 4.059.924-3.032 3.307-4.548 5.938-4.686 1.871-.098 3.96.588 5.303 2.304 1.517 1.907 1.379 4.8 1.511 7.324l.773 14.863a.856.856 0 01-.816.897l-4.459.233a.863.863 0 01-.848-.81l-.654-12.48c-.052-.995-.094-3.477-.357-4.408-.416-1.564-1.438-1.957-2.731-1.89-1.08.058-2.172.859-2.568 2.07-.396 1.212-.248 3.197-.178 4.533l.654 12.481a.856.856 0 01-.816.897l-4.458.234a.858.858 0 01-.849-.81l-.66-12.48c-.138-2.627.08-6.515-3.091-6.349-3.209.168-2.886 3.93-2.743 6.654l.654 12.481a.856.856 0 01-.816.897zm83.159-30.101c6.956-.364 11.03 5.34 11.424 12.843.38 7.25-3.48 13.22-10.04 13.563-6.831.358-10.86-5.348-11.245-12.702-.388-7.4 3.076-13.348 9.861-13.704zm.294 4.85c-3.455.182-3.429 4.844-3.277 7.742.152 2.905.431 9.109 4.11 8.916 3.633-.19 3.542-5.202 3.383-8.25-.106-2.006-.317-4.399-1.03-6.269-.614-1.627-1.696-2.216-3.186-2.138zm20.695 19.793l-4.445.232a.863.863 0 01-.848-.81l-1.241-23.554a.854.854 0 01.82-.813l4.137-.217a.862.862 0 01.832.616l.188 3.601.082-.004c1.081-3.286 2.751-4.913 5.834-5.075 2.002-.105 3.994.535 5.356 2.502 1.266 1.823 1.432 4.992 1.552 7.27l.777 14.824a.867.867 0 01-.822.787l-4.476.235a.857.857 0 01-.83-.701l-.67-12.791c-.135-2.575-.044-6.359-3.126-6.197-1.086.056-2.045.857-2.481 2.02-.553 1.471-.559 2.908-.476 4.496l.665 12.681a.87.87 0 01-.828.898zm-62.398-7.679l-.053-1.001c-3.216.169-6.577 1.062-6.371 5 .105 1.995 1.171 3.295 2.879 3.205 1.252-.065 2.33-.923 2.969-2.26.793-1.645.67-3.144.576-4.944zm5.077 11.028c-.28.288-.704.33-1.046.165-1.543-1.196-1.837-1.774-2.714-2.947-2.305 2.715-3.992 3.579-7.159 3.745-3.742.196-6.784-2.05-7.035-6.852-.197-3.75 1.628-6.407 4.347-7.8 2.358-1.232 5.721-1.604 8.283-2.044l-.031-.598c-.058-1.099-.045-2.403-.714-3.32-.589-.822-1.646-1.119-2.56-1.07-1.696.088-3.163 1.071-3.434 2.962-.053.42-.326.845-.725.885l-4.344-.254c-.367-.066-.783-.35-.714-.934.711-5.485 5.35-7.37 9.58-7.592 2.165-.114 5.025.336 6.823 1.95 2.275 1.985 2.215 4.797 2.375 7.845l.377 7.2c.114 2.165 1.027 3.069 1.902 4.196.31.4.399.898.052 1.229-.866.834-2.404 2.38-3.25 3.246l-.013-.012m-64.772-7.899l-.052-1.001c-3.328.174-6.805 1.073-6.599 5.012.105 1.995 1.205 3.293 2.972 3.2 1.295-.068 2.412-.928 3.075-2.266.823-1.646.699-3.145.604-4.945zm5.232 11.02c-.29.288-.729.33-1.081.167-1.595-1.194-1.898-1.771-2.803-2.943-2.39 2.72-4.136 3.587-7.411 3.758-3.872.203-7.014-2.037-7.266-6.84-.196-3.75 1.696-6.41 4.511-7.809 2.441-1.236 5.92-1.614 8.572-2.059l-.032-.598c-.057-1.098-.041-2.402-.732-3.318-.608-.821-1.7-1.116-2.646-1.066-1.754.091-3.274 1.077-3.557 2.969-.056.42-.339.845-.752.886l-4.492-.246c-.38-.065-.81-.35-.737-.933.744-5.487 5.546-7.381 9.922-7.61 2.24-.118 5.198.327 7.054 1.937 2.35 1.982 2.283 4.794 2.443 7.842l.377 7.201c.114 2.164 1.057 3.066 1.96 4.192.32.4.41.897.051 1.229a201.82 201.82 0 00-3.367 3.252l-.014-.012" fill="#000" fill-opacity=".8"/></svg>