<svg width="134" height="50" fill="none" xmlns="http://www.w3.org/2000/svg"><path fill-rule="evenodd" clip-rule="evenodd" d="M6.761 49.85C3.17 49.847.215 46.897.211 43.308V6.561C.215 2.973 3.17.023 6.761.018H126.5c3.591.005 6.546 2.955 6.55 6.543v36.746c-.004 3.589-2.959 6.539-6.55 6.544H6.761z" fill="#000" fill-opacity=".8"/><path fill-rule="evenodd" clip-rule="evenodd" d="M6.761 1.04c-3.03.003-5.523 2.494-5.527 5.521v36.746c.004 3.027 2.496 5.518 5.527 5.521h38.482V1.04H6.761zm90.593 33.258l.82-1.15c.59.615 1.406.961 2.259.958.831 0 1.236-.387 1.236-.788 0-.52-.661-.67-1.438-.86-1.162-.266-2.653-.582-2.653-2.204 0-1.181 1.024-2.16 2.696-2.16 1.13 0 2.068.34 2.772.988l-.843 1.11a3.064 3.064 0 00-2.068-.774c-.65 0-1.012.288-1.012.712 0 .459.651.606 1.416.788 1.163.277 2.665.629 2.665 2.236 0 1.299-.926 2.278-2.845 2.278-1.366-.013-2.346-.464-3.005-1.134zm-6.477 0l.82-1.15c.59.615 1.407.961 2.26.958.831 0 1.236-.387 1.236-.788 0-.52-.66-.67-1.438-.86-1.163-.266-2.653-.582-2.653-2.204 0-1.181 1.023-2.16 2.696-2.16 1.13 0 2.067.34 2.77.988l-.836 1.11a3.061 3.061 0 00-2.068-.774c-.65 0-1.011.288-1.011.712 0 .459.65.606 1.416.788 1.162.277 2.665.629 2.665 2.236 0 1.299-.927 2.278-2.845 2.278-1.364-.013-2.345-.464-3.012-1.134zm-23.593 0l.82-1.15c.59.615 1.408.961 2.26.958.831 0 1.237-.387 1.237-.788 0-.52-.662-.67-1.439-.86-1.162-.266-2.652-.582-2.652-2.204 0-1.181 1.023-2.16 2.695-2.16 1.13 0 2.068.34 2.771.988l-.843 1.11a3.052 3.052 0 00-2.067-.774c-.65 0-1.012.288-1.012.712 0 .459.65.606 1.416.788 1.163.277 2.665.629 2.665 2.236 0 1.299-.926 2.278-2.845 2.278-1.364-.013-2.345-.464-3.006-1.134zm-7.414-1.831v-4.27h1.55v4.218c0 .989.582 1.67 1.673 1.67 1.091 0 1.662-.681 1.662-1.67v-4.217h1.551v4.26c0 1.766-1.045 2.969-3.208 2.969-2.162 0-3.227-1.214-3.227-2.96zm22.261 2.832l-3.39-4.63v4.63h-1.513v-7.101h1.55l3.295 4.453v-4.453h1.513v7.101h-1.455zm-7.897 0v-7.101h1.514v7.101h-1.514zm10.839 0v-7.101h5.039v1.33h-3.525v1.5h3.442v1.33h-3.442v1.607h3.515v1.33l-5.03.004zm-32.336 0v-7.101h3.74c1.356 0 2.046.862 2.046 1.81 0 .894-.554 1.49-1.225 1.628.756.117 1.357.852 1.357 1.743 0 1.064-.713 1.916-2.068 1.916l-3.85.004zm4.38-2.13c0-.447-.32-.83-.918-.83H54.25v1.65h1.95c.57 0 .916-.312.916-.82zm-.138-2.903v-.002a.779.779 0 00-.832-.773H54.25v1.549h1.897c.51 0 .83-.32.83-.767l.002-.007zm2.78-10.71c0-2.181 1.652-3.678 3.783-3.678a3.258 3.258 0 012.973 1.742l-1.3.64a1.927 1.927 0 00-1.663-1.038c-1.288 0-2.226.99-2.226 2.323 0 1.334.938 2.323 2.226 2.323a1.908 1.908 0 001.672-1.032l1.293.645c-.512.883-1.407 1.742-2.972 1.742-2.125 0-3.785-1.483-3.785-3.667zm7.397 0c0-2.181 1.652-3.678 3.783-3.678a3.258 3.258 0 012.973 1.742l-1.3.64a1.927 1.927 0 00-1.673-1.038c-1.288 0-2.226.99-2.226 2.323 0 1.334.938 2.323 2.226 2.323a1.908 1.908 0 001.673-1.032l1.3.628c-.511.882-1.407 1.742-2.973 1.742-2.129.017-3.783-1.466-3.783-3.65zm11.756 3.547l-1.395-2.517h-1.109v2.517h-1.513v-7.1h3.326c1.48 0 2.387.968 2.387 2.288 0 1.256-.788 1.935-1.55 2.107l1.598 2.71-1.744-.005zm-21.274 0l-.436-1.202h-3.049l-.447 1.202h-1.727l2.75-7.1h1.897l2.739 7.1h-1.727zm53.762 0v-7.1h2.802c2.227 0 3.774 1.414 3.774 3.555 0 2.142-1.551 3.545-3.774 3.545H111.4zm-6.289 0v-7.1h5.039v1.329h-3.526v1.5h3.439v1.33h-3.439v1.607h3.518v1.33l-5.031.004zm-9.27 0v-7.1h1.513v7.1H95.84zm-7.73 0v-7.1h2.803c2.227 0 3.773 1.414 3.773 3.555 0 2.142-1.55 3.545-3.773 3.545h-2.802zm-6.288 0v-7.1h5.039v1.329h-3.526v1.5h3.442v1.33h-3.442v1.607h3.518v1.33l-5.03.004zm18.653 0v-5.771h-2.08v-1.33h5.67v1.33h-2.067v5.77h-1.523zm15.962-3.545c0-1.256-.775-2.224-2.226-2.224h-1.289v4.437h1.289c1.399 0 2.218-1.01 2.218-2.215l.008.002zm-23.288 0c0-1.256-.775-2.224-2.226-2.224h-1.29v4.437h1.29c1.397 0 2.218-1.01 2.218-2.215l.008.002zm-37.472-2.046l-1.108 3.055h2.216l-1.108-3.055zm23.377.779c0-.597-.456-.959-1.065-.959h-1.587v1.916h1.587c.614 0 1.065-.361 1.065-.957z" fill="#F84F38"/><path fill-rule="evenodd" clip-rule="evenodd" d="M16.132 41.074c1.009.45 1.505.745 1.698 1.998.326 2.187-1.689 3.017-3.592 3.017H9.78v-9.55h4.497c1.61 0 3.084.734 3.084 2.533 0 .899-.467 1.554-1.23 2.002zm8.926 0c1.01.45 1.505.745 1.698 1.998.326 2.187-1.691 3.017-3.592 3.017h-4.458v-9.55h4.497c1.61 0 3.085.734 3.085 2.533 0 .899-.468 1.554-1.23 2.002zm10.623 2c-.194-1.254-.69-1.55-1.7-1.998.764-.448 1.233-1.104 1.233-2.004 0-1.799-1.475-2.532-3.085-2.532h-4.497v9.55h4.458c1.9 0 3.918-.831 3.593-3.019l-.002.002zm1.241.73v-.018c0-1.208.994-2.202 2.203-2.202 1.208 0 2.201.99 2.204 2.196v.018a2.213 2.213 0 01-2.204 2.201c-1.206 0-2.2-.99-2.203-2.195zm4.207-.006v-.018a2.012 2.012 0 00-2.004-1.995 2.011 2.011 0 00-2.003 2v.02a2.012 2.012 0 002.003 1.993 2.012 2.012 0 002.004-2zM38.26 42.6h1.015a.942.942 0 01.67.238.594.594 0 01.182.438v.012c0 .364-.243.583-.584.663l.7.905h-.414l-.652-.85H38.6v.85h-.335l-.004-2.256zm-23.84 1.685h-2.61v-2.178h2.61c1.917 0 1.798 2.178 0 2.178zm8.928-.002h-2.607v-2.176h2.605c1.915 0 1.799 2.178 0 2.178l.002-.002zm6.32-2.176v2.178h2.604c1.799 0 1.915-2.178 0-2.178h-2.604zm9.573 1.6c.317 0 .536-.146.536-.406v-.012c0-.237-.195-.389-.517-.389h-.664v.803l.645.004zm-23.11-2.633l-.002.002.003-.002zm8.927 0l-.003.002.003-.002zM11.81 38.367h2.34c1.46 0 1.512 2.037.091 2.037H11.81v-2.037zm17.865-.002h2.327c1.46 0 1.513 2.036.092 2.036h-2.427l.008-2.036zm-8.931-.002h2.335c1.459 0 1.511 2.037.09 2.037h-2.428l.003-2.037zm-6.652-6.095h4.347l.776 2.632h7.104l.775-2.632h4.349l-.57-1.937H14.662l-.57 1.937zm5.266-15.61l-2.107 2.905c-1.056 1.453-.729 4.028.714 5.067l3.907 2.817c.67.484.722.968.404 1.473l.568.422 1.979-2.737c1.222-1.692 1.116-3.994-.698-5.312l-3.942-2.869c-.47-.345-.521-.823-.26-1.355l-.567-.405.002-.005zm3.38-12.815l-3.281 4.532c-1.539 2.126-.98 5.75 1.123 7.298l5.394 3.955c1.093.802 1.236 2.844.44 3.89l.457.342 3.72-5.227c1.671-2.348 1.575-5.817-1.049-7.72l-5.77-4.187c-.807-.581-1.211-1.582-.539-2.532l-.495-.351z" fill="#000" fill-opacity=".8"/></svg>