<svg width="84" height="84" fill="none" xmlns="http://www.w3.org/2000/svg"><path d="M41.046.721c.273-.961 1.636-.961 1.908 0l6.22 21.925a.992.992 0 001.438.595l19.902-11.104c.873-.487 1.836.476 1.35 1.35l-11.105 19.9a.992.992 0 00.595 1.438l21.925 6.22c.961.273.961 1.636 0 1.91l-21.925 6.22a.992.992 0 00-.595 1.437l11.104 19.902c.487.873-.476 1.836-1.35 1.35l-19.9-11.105a.992.992 0 00-1.438.595l-6.22 21.925c-.273.961-1.636.961-1.91 0l-6.22-21.925a.992.992 0 00-1.437-.595L13.486 71.863c-.873.487-1.836-.476-1.35-1.35l11.105-19.9a.992.992 0 00-.595-1.438L.72 42.955c-.961-.273-.961-1.636 0-1.91l21.925-6.22a.992.992 0 00.595-1.437L12.137 13.486c-.487-.873.476-1.836 1.35-1.35l19.9 11.105a.992.992 0 001.438-.595L41.045.72z" fill="#F84F38"/></svg>