<svg width="185" height="37" fill="none" xmlns="http://www.w3.org/2000/svg"><path d="M14.39 6.35c-2.203 0-2.754 1.1-2.754 3.022v3.571h5.786l-.552 5.769h-5.234v17.305H4.748V18.712H.064v-5.769h4.684V9.647c0-5.769 2.204-8.79 8.816-8.79 1.378 0 3.03 0 3.858.275V6.35m.55 17.308c0-6.318 3.03-11.262 9.368-11.262 3.581 0 5.51 1.648 6.612 4.12v-3.57h6.613v22.798h-6.613v-3.57c-1.102 2.197-3.03 3.845-6.612 3.845-6.337 0-9.368-4.67-9.368-11.262m6.888.55c0 3.296 1.378 5.768 4.408 5.768 2.755 0 4.409-2.198 4.409-5.22v-2.471c0-3.297-1.378-5.22-4.409-5.22-3.03-.274-4.408 2.198-4.408 5.494v1.648zM55.167 12.67c2.755 0 5.234.549 6.612 1.647l-1.653 4.945a10.68 10.68 0 00-4.684-1.1c-3.857 0-5.51 2.198-5.51 5.77v1.373c0 3.57 1.653 5.768 5.51 5.768 1.929 0 3.582-.55 4.684-1.099l1.653 4.945c-1.378 1.099-3.857 1.648-6.612 1.648-8.266 0-11.848-4.395-11.848-11.262V23.93c0-7.142 3.582-11.262 11.848-11.262zm7.439 12.635v-1.922c0-6.593 3.582-10.713 11.296-10.713 7.164 0 10.194 4.395 10.194 10.713v3.57H69.494c.276 3.022 1.653 4.396 5.51 4.396 2.48 0 5.235-.55 7.44-1.374l1.377 4.67c-1.929.824-5.51 1.648-8.817 1.648-9.092 0-12.398-4.12-12.398-10.988zm6.888-3.021h8.266v-.55c0-2.472-1.103-4.395-4.133-4.395-2.755 0-4.133 1.923-4.133 4.945zm40.501 3.02c0 6.318-3.031 11.262-9.368 11.262-3.581 0-5.785-1.648-6.887-3.846v3.572h-6.613V1.405l6.888-.55V16.24c1.102-1.923 3.306-3.57 6.337-3.57 6.337 0 9.367 4.669 9.367 11.261m-6.612-.274c0-3.296-1.378-5.494-4.684-5.494-2.755 0-4.408 1.923-4.408 5.22v2.197c0 3.296 1.653 5.219 4.408 5.219 3.306 0 4.684-2.472 4.684-5.494v-1.648zm9.092 1.373v-1.098c0-6.593 3.857-11.263 11.296-11.263 7.714 0 11.572 4.67 11.572 11.263v1.098c0 6.593-3.858 11.262-11.297 11.262-7.714 0-11.571-4.67-11.571-11.262zm15.98-1.648c0-3.021-1.378-5.494-4.409-5.494-3.306 0-4.408 2.473-4.408 5.494v2.198c0 3.021 1.378 5.494 4.408 5.494 3.307 0 4.409-2.473 4.409-5.494v-2.198zm9.092 1.646V23.93c0-6.593 3.857-11.262 11.296-11.262 7.715 0 11.296 4.67 11.296 11.262v1.098c0 6.593-3.857 11.263-11.296 11.263-7.439 0-11.296-4.67-11.296-11.263zm15.98-1.648c0-3.021-1.378-5.493-4.408-5.493-3.307 0-4.409 2.472-4.409 5.493v2.198c0 3.021 1.378 5.494 4.409 5.494 3.306 0 4.408-2.473 4.408-5.494V23.38zm16.531.55l6.888-10.987h7.439l-7.439 11.263 7.714 11.811h-7.439l-7.163-11.262v11.262h-6.888V1.407l6.888-.55" fill="#000" fill-opacity=".8"/></svg>