<svg width="306" height="63" fill="none" xmlns="http://www.w3.org/2000/svg"><path d="M30.68 13.463v.05h-2.293l-6.833 27.33h-.683l-6.784-27.33H12.28v-.05H1.349v34.164h7.418V22.2h.732l6.491 25.427h10.688L33.17 22.2h.733v25.427h7.418V13.463H30.68zm36.876.05H55.11L42.909 47.626h7.663l2.05-5.612h17.423l2.001 5.612h7.711L67.556 13.512zM55.013 35.23l5.369-14.984h1.903l5.32 14.984H55.013zm50.001-4.637l12.104-17.082h-9.322l-8.59 12.397h-.83l-8.589-12.397h-9.273L92.57 30.594 80.514 47.627h9.273l8.59-12.396h.83l8.589 12.396h9.322l-12.104-17.033z" fill="#F84F38"/><path d="M149.558 24.884c0-11.42-9.126-11.42-13.226-11.42-2.001 0-7.418.048-9.224.048v-.049h-7.419v34.164h7.419V36.256h9.663l5.564 11.371h8.053l-6.54-13.08c3.075-1.61 5.71-3.758 5.71-9.663zm-13.812 4.734h-8.638V20.15h8.785c2.294 0 6.784 0 6.784 4.734 0 4.783-4.783 4.734-6.931 4.734zm36.906-5.32c-1.854-2.44-4.929-4.05-10.005-4.05-11.567 0-12.787 9.712-12.787 13.714 0 3.66 1.269 13.665 12.738 13.665 5.174 0 8.297-1.415 10.152-3.807h.244v3.807h7.418v-27.38h-7.418v4.051h-.342zm-7.857 16.985c-7.077 0-7.858-5.37-7.858-7.321 0-2.148.732-7.321 7.858-7.321 6.393 0 7.711 3.612 7.711 7.32 0 4.15-1.318 7.322-7.711 7.322zm28.46-14.69h8.882v-6.248h-8.882V12.44h-7.468v7.906h-3.611v6.247h3.611v10.981c0 3.953 0 10.054 7.468 10.054 7.418 0 8.882-.488 8.882-.488v-7.223c-7.125.39-8.882.927-8.882-3.026V26.592zm18.262 21.034V20.443h-7.369v27.184h7.369zm0-29.137v-6.637h-7.369v6.638h7.369zm19.575 1.757c-4.929 0-7.418 1.611-9.175 4.051h-.342v-4.05h-7.418v27.38h7.418V34.45c0-3.71.927-7.81 7.37-7.81 7.076 0 6.637 5.174 6.637 7.322v13.665h7.37V33.962c0-4.002-.293-13.715-11.86-13.715zm36.799.293v4.051h-.439c-1.855-2.44-4.929-4.05-10.005-4.05-11.567 0-12.787 9.712-12.787 13.714 0 3.709 1.269 13.714 12.738 13.714 5.173 0 8.297-1.464 10.152-3.807h.341v1.952c0 5.027-2.245 8.297-7.272 8.297-5.808 0-7.077-2.83-7.272-4.295h-7.369c0 4.051 2.391 10.689 14.69 10.689 13.617 0 14.642-10.152 14.642-15.813V20.54h-7.419zm-8.297 21.035c-7.076 0-7.857-5.32-7.857-7.32 0-2.148.732-7.321 7.857-7.321 6.394 0 7.712 3.611 7.712 7.32 0 4.149-1.318 7.321-7.712 7.321zm31.829-10.542l-.634-.048c-4.783-.732-5.613-1.416-5.613-2.636 0-.83.878-2.343 5.027-2.343 4.295 0 6.149 1.172 6.149 3.32v.243h7.565v-.244c0-4.197-2.391-9.224-13.714-9.224-10.542 0-12.738 4.539-12.738 8.346 0 5.466 4.88 7.223 12.738 8.248l1.171.146c2.977.342 5.613.732 5.613 2.782 0 1.806-2.831 2.196-5.808 2.196-4.929 0-6.686-1.073-6.686-3.416v-.244h-7.614v.537c-.049 1.415-.049 3.709 1.855 5.612 2.196 2.197 6.442 3.32 12.64 3.32 8.395 0 13.275-1.319 13.275-8.102 0-6.492-7.028-7.565-13.226-8.493z" fill="#fff"/><path fill="#000" d="M202.654 9.561h10.294v9.966h-10.294z"/><path d="M207.508.147a.2.2 0 01.385 0l1.256 4.459a.2.2 0 00.29.12l4.017-2.258c.176-.099.371.097.272.275l-2.241 4.047a.202.202 0 00.12.293l4.425 1.265c.195.055.195.333 0 .388l-4.425 1.265a.202.202 0 00-.12.293l2.241 4.047c.099.178-.096.374-.272.275l-4.017-2.259a.2.2 0 00-.29.121l-1.256 4.46a.2.2 0 01-.385 0l-1.256-4.46a.2.2 0 00-.29-.12l-4.017 2.258c-.176.099-.371-.097-.272-.275l2.241-4.047a.202.202 0 00-.12-.293l-4.426-1.265c-.194-.055-.194-.333 0-.388l4.426-1.265a.202.202 0 00.12-.293l-2.241-4.047c-.099-.178.096-.374.272-.275l4.017 2.259a.2.2 0 00.29-.121l1.256-4.46z" fill="#F84F38"/></svg>