<svg width="615" height="613" fill="none" xmlns="http://www.w3.org/2000/svg"><path d="M590.375 187.422a306.933 306.933 0 1024.04 119.078 304.798 304.798 0 00-24.04-119.078zm11.816 164.547a228.04 228.04 0 01-2.013 25.065c-6.478 12.096-15.964 23.698-28.219 34.569a262.528 262.528 0 00.958-47.745 299.436 299.436 0 00-1.22-13.42 177.68 177.68 0 006.423-5.868c9.345-9.016 16.806-18.434 22.344-28.115a241.399 241.399 0 011.727 35.514zm-585.88-32.794c.097-.866.206-1.732.31-2.598 5.533 9.644 12.975 19.032 22.284 28.011a160.517 160.517 0 006.441 5.88 266.802 266.802 0 00-.22 61.19c-12.2-10.804-21.655-22.333-28.139-34.35a235.118 235.118 0 01-.677-58.133zM40.654 162.54a216.499 216.499 0 0121.405-32.495 66.898 66.898 0 00-5.49 25.943 263.826 263.826 0 00-12.975 17.794 251.2 251.2 0 00-19.263 34.508 75.744 75.744 0 016.71-26.175h-.061a298.117 298.117 0 019.638-19.588l.036.013zm460.55-82.832a243.348 243.348 0 00-20.075-11.566 258.321 258.321 0 00-34.983-14.756 59.016 59.016 0 00-11.438-14.524 183.706 183.706 0 0148.526 20.13c7.551 6.558 13.584 13.506 17.982 20.704l-.012.012zm75.14 82.832l.061-.031a300.75 300.75 0 019.638 19.587h-.061a75.769 75.769 0 016.71 26.175 251.203 251.203 0 00-19.27-34.501 262.425 262.425 0 00-12.975-17.794 66.868 66.868 0 00-5.404-25.705 213.68 213.68 0 0121.301 32.269zm7.729 84.838a305.19 305.19 0 00-31.995-58.791 74.347 74.347 0 006.43-16.702 64.656 64.656 0 001.866-12.981 261.64 261.64 0 0111.499 15.909 248.712 248.712 0 0120.935 38.271 74.17 74.17 0 01-6.46 29.488 99.153 99.153 0 01-2.275 4.794v.012zm-12.981 116.62a259.503 259.503 0 01-1.22 49.41c-12.682 10.889-28.17 21.021-46.232 30.14.091-.976.201-1.946.287-2.928a329.907 329.907 0 00-.311-58.755c17.848-8.955 33.44-19.007 46.36-29.957.467 4.03.839 8.056 1.116 12.078v.012zm-45.707 154.507c-10.151 8.796-22.32 16.842-36.125 24.022a150.536 150.536 0 0010.553-16.525 177.773 177.773 0 0011.139-24.577c14.914-7.454 28.121-15.701 39.437-24.656a133.24 133.24 0 002.805-2.269 179.435 179.435 0 01-27.809 43.993v.012zM451.033 574.9a241.589 241.589 0 01-36.46 14.383c7.479-5.921 14.189-13.745 20.13-23.472a313.026 313.026 0 0048.19-18.099 120.069 120.069 0 01-31.86 27.188zm-141.618 29.42v-21.576a493.5 493.5 0 0062.751-4.069c-.293.861-.61 1.709-.903 2.538-3.209 8.658-6.804 15.232-10.785 19.721a396.166 396.166 0 01-51.063 3.386zm-52.863-3.38c-4.41-4.971-8.338-12.474-11.724-22.265a493.5 493.5 0 0062.751 4.069v21.576a396.87 396.87 0 01-51.027-3.38zm-90.377-25.912a120.79 120.79 0 01-31.812-27.182 313.444 313.444 0 0048.062 18.019c5.923 9.675 12.7 17.556 20.216 23.51a242.085 242.085 0 01-36.466-14.347zM63.988 474.634c.866.714 1.732 1.421 2.623 2.123 11.334 8.967 24.564 17.226 39.503 24.686v.061c5.704 15.47 13.036 29.244 21.814 41.121-13.774-7.15-25.925-15.159-36.075-23.912a181.616 181.616 0 01-27.865-44.079zM47.01 351.914c12.944 10.98 28.548 21.027 46.421 29.982a325.247 325.247 0 00-.091 61.646c-18.032-9.107-33.501-19.215-46.171-30.079a263.687 263.687 0 01-.159-61.549zm9.614-193.034c.18 4.379.806 8.728 1.867 12.981a74.395 74.395 0 006.466 16.768 305.315 305.315 0 00-32.02 58.743 94.138 94.138 0 01-2.287-4.825 74.148 74.148 0 01-6.46-29.487 248.723 248.723 0 0120.935-38.272 258.53 258.53 0 0111.499-15.908zm48.745-48.44v.359a56.387 56.387 0 006.582 23.742 339.015 339.015 0 00-43.255 48.8 298.444 298.444 0 00-2.568 3.599 72.08 72.08 0 01-5.875-15.507 62.468 62.468 0 01-1.854-14.81 280.366 280.366 0 0146.97-46.183zm60.506-36.655a39.575 39.575 0 004.459 16.567 360.06 360.06 0 00-56.956 42.871 54.195 54.195 0 01-6.179-22.503c0-.555 0-1.116-.03-1.671a306.967 306.967 0 0149.239-30.69c3.129-1.597 6.301-3.104 9.467-4.574zM460.59 78.36a306.976 306.976 0 0149.209 30.689v1.671a54.132 54.132 0 01-6.1 22.418 356.798 356.798 0 00-56.998-42.786 39.575 39.575 0 004.459-16.567c3.129 1.47 6.301 2.977 9.43 4.575zm98.009 78.263a62.445 62.445 0 01-1.83 14.81 72.303 72.303 0 01-5.844 15.446 332.79 332.79 0 00-25.717-32.074 351.446 351.446 0 00-20.13-20.325 56.345 56.345 0 006.539-23.668v-.36a280.394 280.394 0 0146.982 46.171zm-32.409 60.78a402.155 402.155 0 00-41.187-58.255c8.271-7.235 14.713-14.951 19.19-23.009a344.183 344.183 0 0119.624 19.898 330.311 330.311 0 0126.12 32.659c-5.35 9.828-13.115 19.283-23.235 28.262-.171.146-.354.293-.518.445h.006zm-4.057 223.047c-.122 1.366-.262 2.714-.402 4.062-2.33 1.159-4.705 2.3-7.125 3.422a380.276 380.276 0 01-53.68 19.929 456.82 456.82 0 000-61.866 361.458 361.458 0 005.295-1.568 366.933 366.933 0 0055.656-21.679 327.906 327.906 0 01.25 57.7h.006zm-414.537 59.688c-5.924-16.287-9.968-34.251-12.084-53.473a373.67 373.67 0 006.099 2.928 381.816 381.816 0 0054.626 20.216c1.452 19.02 4.27 36.557 8.357 52.222-11.883-3.459-23.284-7.357-34.087-11.669-8.027-3.213-15.667-6.621-22.918-10.224h.007zM95.189 382.75a366.894 366.894 0 0055.589 21.661c1.782.543 3.569 1.067 5.368 1.592a510.206 510.206 0 00-.774 15.329 441.167 441.167 0 00.732 46.513 379.691 379.691 0 01-53.68-19.929 227.635 227.635 0 01-7.131-3.428 322.24 322.24 0 01-.104-61.738zm-4.88-165.811c-10.101-8.96-17.855-18.397-23.18-28.2a303.235 303.235 0 013.087-4.343 336.92 336.92 0 0142.663-48.19c4.478 8.034 10.901 15.726 19.154 22.936a402.222 402.222 0 00-41.157 58.298l-.567-.501zm155.3-184.47a261.867 261.867 0 0144.31 5.862c1.904.415 3.801.854 5.704 1.306a317.357 317.357 0 00-55.968-.372 31.346 31.346 0 015.954-6.796zm43.719-16.897a89.155 89.155 0 017.631 9.376 151.917 151.917 0 018.363 13.219 153.739 153.739 0 00-24.662-16.775 117.571 117.571 0 00-5.893-2.959 123.068 123.068 0 0114.561-2.86zm53.027 2.892a137.88 137.88 0 00-24.882 15.189c-1.952 1.476-3.91 3.05-5.868 4.63 5.411-9.547 10.797-17.172 16.067-22.71 4.948.666 9.852 1.632 14.683 2.89zm35.02 20.856a315.43 315.43 0 00-39.314-.757c-5.694.244-11.375.64-17.044 1.19a263.18 263.18 0 0150.441-7.223 31.42 31.42 0 015.917 6.79zm57.304 230.872c6.337 22.028 11.455 43.798 15.396 65.02a476.265 476.265 0 01-66.911 13.847 1360.43 1360.43 0 00-5.917-51.734 1261.026 1261.026 0 00-2.727-19.349 421.222 421.222 0 0058.878-12.2 584.95 584.95 0 011.281 4.41v.006zm24.332 198.25a504.385 504.385 0 01-71.174 14.726c.738-19.355.738-40.12 0-61.921a509.999 509.999 0 0071.236-14.707 456.582 456.582 0 01-.062 61.872v.03zM157.22 421.418c.171-4.921.419-9.882.744-14.884a510.119 510.119 0 0071.236 14.688 976.153 976.153 0 00-.543 28.585c-.049 11.59.134 22.71.531 33.33a503.134 503.134 0 01-71.199-14.731 438.185 438.185 0 01-.769-46.988zm115.29-279.74a280.133 280.133 0 0035.106 2.281v64.562a397.51 397.51 0 01-50.356-3.281c4.136-19.892 8.674-39.187 13.579-57.505a541.051 541.051 0 011.628-6.057h.043zm-15.5-65.093a89.532 89.532 0 0013.42 5.221 428.541 428.541 0 00-30.598 46.012 571.209 571.209 0 00-2.678 4.685 173.968 173.968 0 01-27.45-10.449 412.26 412.26 0 0122.546-23.62c8.109-7.832 16.362-15.115 24.76-21.85zm50.569-30.86v39.528a142.394 142.394 0 01-16.732-1.068 359.511 359.511 0 0116.732-38.46zM288.98 83.94a121.747 121.747 0 01-15.433-3.141 276.587 276.587 0 0131.83-34.715A366.645 366.645 0 00288.98 83.94zm20.411-38.229a359.262 359.262 0 0116.738 38.473 142.523 142.523 0 01-16.738 1.068v-39.54zm2.244.379c10.724 9.76 21.381 21.35 31.794 34.709a121.77 121.77 0 01-15.409 3.141 367.205 367.205 0 00-16.366-37.85h-.019zm27.749 26.718a273.26 273.26 0 00-24.851-26.578 274.196 274.196 0 0115.573 9.046 313.48 313.48 0 0128.371 20.033 90.678 90.678 0 01-13.121 4.94c-1.976-2.5-3.959-5.02-5.953-7.441h-.019zm-67.734 7.454a90.55 90.55 0 01-13.085-4.923 295.382 295.382 0 0143.92-29.09 282.873 282.873 0 00-30.835 34.013zm-30.213 48.477a423.935 423.935 0 0130.908-46.36 122.214 122.214 0 0016.025 3.3c-5.96 16.11-11.736 34.215-17.214 53.942a235.113 235.113 0 01-32.196-6.6 311.976 311.976 0 012.477-4.282zM290.2 85.948a145.34 145.34 0 0017.385 1.135v55.046a277.76 277.76 0 01-34.611-2.245c5.52-19.916 11.303-37.978 17.226-53.936zm17.379 124.379v70.205a491.844 491.844 0 01-62.983-4.124c3.52-23.546 7.638-46.848 12.286-69.393a398.894 398.894 0 0050.691 3.312h.006zm0 72.029v71.638a558.789 558.789 0 01-71.882-4.697 1354.708 1354.708 0 018.631-71.089 493.922 493.922 0 0063.245 4.148h.006zm0 73.468v68.827a592.488 592.488 0 01-76.5-5.021c.775-22.185 2.281-45.189 4.447-68.509a561.723 561.723 0 0072.047 4.703h.006zm1.83 0a561.324 561.324 0 0072.114-4.709 1210.948 1210.948 0 014.453 68.509 593.349 593.349 0 01-76.567 5.027v-68.827zm0-1.83v-71.638a493.602 493.602 0 0063.306-4.148c.943 6.409 1.852 12.859 2.726 19.349a1348.903 1348.903 0 015.911 51.734 558.766 558.766 0 01-71.949 4.703h.006zm0-73.462v-70.205a398.744 398.744 0 0050.764-3.318c4.587 22.252 8.705 45.506 12.273 69.393a491.684 491.684 0 01-63.043 4.13h.006zm0-71.98v-64.593a280.902 280.902 0 0035.154-2.287c5.49 19.904 10.602 41.217 15.25 63.562a397.242 397.242 0 01-50.41 3.287l.006.031zm0-66.392V87.113c5.815-.04 11.623-.43 17.391-1.165.085.232.177.458.262.69 5.972 16.183 11.664 34.056 17.001 53.24a277.21 277.21 0 01-34.66 2.251l.006.031zm19.374-56.12c-.037-.11-.08-.214-.116-.318a122.01 122.01 0 0015.988-3.336 432.244 432.244 0 0133.385 50.636 235.495 235.495 0 01-32.135 6.612c-5.386-19.331-11.114-37.332-17.129-53.625l.007.03zm17.781-4.203a90.505 90.505 0 0013.481-5.24 379.067 379.067 0 0147.324 45.439 173.58 173.58 0 01-27.499 10.449 433.211 433.211 0 00-33.312-50.679l.006.03zm15.281-6.143a56.706 56.706 0 0010.095-6.655 379.268 379.268 0 0118.233 10.492 375.82 375.82 0 0139.717 28.176 108.894 108.894 0 01-20.831 13.456 382.044 382.044 0 00-47.221-45.5l.007.031zm-1.544-1.22a315.237 315.237 0 00-29.231-20.746 277.348 277.348 0 00-13.511-7.93 325.82 325.82 0 0152.594 22.32 55.442 55.442 0 01-9.858 6.307l.006.049zm-103.541 0a55.645 55.645 0 01-9.87-6.314 343.913 343.913 0 0111.59-5.868 322.52 322.52 0 0140.907-16.47 299.206 299.206 0 00-42.633 28.628l.006.024zm-1.543 1.22c-8.203 6.617-16.279 13.762-24.23 21.435a405.228 405.228 0 00-22.936 24.095 108.617 108.617 0 01-20.88-13.462 373.757 373.757 0 0157.95-38.668c3.118 2.55 6.5 4.76 10.089 6.588l.007.012zm-48.404 46.97a463.427 463.427 0 00-41.663 56.028c-11.889-5.984-22.106-12.596-30.543-19.764l1.257-1.482a401.734 401.734 0 0149.837-48.519 110.14 110.14 0 0021.106 13.706l.006.031zm1.69.842a175.26 175.26 0 0027.749 10.687 585.884 585.884 0 00-29.39 60.664 251.516 251.516 0 01-37.161-13.908c-.976-.463-1.942-.931-2.898-1.403a461.167 461.167 0 0141.694-56.046l.006.006zm29.548 11.212a235.876 235.876 0 0032.592 6.746c-.528 1.928-1.057 3.87-1.586 5.826-4.922 18.385-9.479 37.753-13.627 57.724a337.313 337.313 0 01-46.805-9.638 583.885 583.885 0 0129.42-60.689l.006.031zm17.013 72.083c-4.642 22.57-8.76 45.854-12.279 69.4a419.355 419.355 0 01-58.603-12.109 687.59 687.59 0 0123.741-67.026 338.88 338.88 0 0047.135 9.705l.006.03zm-12.56 71.169a1360.076 1360.076 0 00-8.625 71.083 475.026 475.026 0 01-66.899-13.828 694.72 694.72 0 0116.677-69.412 420.191 420.191 0 0058.847 12.157zm-8.796 72.907c-2.172 23.314-3.66 46.317-4.459 68.503a506.969 506.969 0 01-71.181-14.713 603.769 603.769 0 018.583-67.637 477.545 477.545 0 0067.057 13.847zm-3.233 98.936c.037-9.26.22-18.727.537-28.347a594.507 594.507 0 0076.561 5.015v61.908a594.753 594.753 0 01-76.543-4.989c-.407-10.647-.592-21.842-.555-33.587zm77.104 40.406v51.289a556.684 556.684 0 01-72.102-4.776c-2.135-15.122-3.617-32.373-4.392-51.484a595.798 595.798 0 0076.494 4.971zm1.83 0a595.084 595.084 0 0076.518-4.989c-.406 9.914-1.016 19.428-1.83 28.542-.719 8.133-1.584 15.782-2.592 22.948a557.046 557.046 0 01-72.114 4.776c.018-15.012.018-32.19.012-51.277h.006zm0-1.83v-61.908a594.474 594.474 0 0076.628-5.021c.72 21.814.714 42.578-.036 61.934a594.903 594.903 0 01-76.598 4.995h.006zM387.8 419.35c-.769-21.96-2.257-44.896-4.459-68.503a475.811 475.811 0 0067.1-13.86 599.95 599.95 0 018.54 67.649A506.83 506.83 0 01387.8 419.35zm-13.542-143.21a1261.663 1261.663 0 00-12.273-69.375 339.08 339.08 0 0047.153-9.76 683.536 683.536 0 0123.741 67.045 419.554 419.554 0 01-58.627 12.114l.006-.024zm-12.639-71.157c-4.636-22.332-9.76-43.639-15.25-63.549a235.616 235.616 0 0032.574-6.753 581.252 581.252 0 0129.463 60.646 336.184 336.184 0 01-46.787 9.656zm19.203-70.839a174.808 174.808 0 0027.785-10.718 454.757 454.757 0 0141.639 56.066c-.97.475-1.946.951-2.94 1.427a251.907 251.907 0 01-37.082 13.89 581.78 581.78 0 00-29.402-60.665zm29.475-11.59a109.902 109.902 0 0021.051-13.694 402.176 402.176 0 0149.782 48.586l1.263 1.476c-8.43 7.162-18.63 13.768-30.5 19.746a457.157 457.157 0 00-41.596-56.089v-.025zm72.224 33.672a403.963 403.963 0 00-49.764-48.58 61.298 61.298 0 0013.042-15.702 354.466 354.466 0 0156.986 42.847 76.606 76.606 0 01-9.455 13.383 101.236 101.236 0 01-9.546 9.528l-1.263-1.476zm-51.24-49.758a379.288 379.288 0 00-40.199-28.523 364.208 364.208 0 00-17.708-10.193 31.666 31.666 0 006.1-7.485 364.549 364.549 0 0149.507 22.076 367.7 367.7 0 0115.25 8.668c-3.068 5.46-7.436 10.645-12.932 15.482l-.018-.025zm-59.622-39.65a328.495 328.495 0 00-51.532-22.13 346.485 346.485 0 0157.59 14.932 30.514 30.514 0 01-6.039 7.223l-.019-.025zm-48.952-23.545a347.93 347.93 0 0157.834 7.228 18.999 18.999 0 01-1.946 7.49 348.096 348.096 0 00-55.87-14.694l-.018-.024zm-.317-1.83c5.246-.476 10.49-.83 15.732-1.062a312.928 312.928 0 0140.321.854 19.058 19.058 0 012.074 7.412 350.1 350.1 0 00-58.109-7.198l-.018-.006zm-4.27-2.886a209.773 209.773 0 0124.802-9.29 179.51 179.51 0 0117.08-4.27 57.2 57.2 0 019.346 5.783 266.978 266.978 0 00-51.216 7.783l-.012-.006zm24.278-11.04A212.59 212.59 0 00314.765 38.1a205.547 205.547 0 013.812-2.971 133.484 133.484 0 0126.535-15.86 92.195 92.195 0 0112.2 4.471 186.524 186.524 0 00-14.902 3.782l-.012-.006zm-33.001 10.98V14.31c5.39.03 10.775.364 16.128 1-5.282 5.752-10.687 13.524-16.116 23.223l-.012-.037zm-1.83-.074c-5.405-9.662-10.779-17.41-16.055-23.18a143.708 143.708 0 0116.073-.933l-.018 24.113zm-5.362-.427a201.506 201.506 0 00-42.426-14.384 90.63 90.63 0 0112.2-4.453c9.998 4.429 20.124 10.773 30.244 18.874l-.018-.037zm-3.184.561a292.606 292.606 0 00-8.729-2.05 265.116 265.116 0 00-42.603-5.807 57.904 57.904 0 019.351-5.782 195.929 195.929 0 0141.999 13.676l-.018-.037zm-3.904 2.837a350.055 350.055 0 00-58.67 7.222 19.093 19.093 0 012.098-7.46 315.371 315.371 0 0156.59.274l-.018-.036zm-.281 1.83a353.388 353.388 0 00-56.431 14.81 18.916 18.916 0 01-1.983-7.557 348.988 348.988 0 0158.432-7.204l-.018-.05zm1.69 1.574a325.429 325.429 0 00-38.869 15.872 348.333 348.333 0 00-12.286 6.24 30.77 30.77 0 01-6.1-7.174 351.46 351.46 0 0157.273-14.89l-.018-.048zm-52.869 22.948a376.51 376.51 0 00-57.95 38.741c-5.49-4.844-9.9-10.047-12.962-15.519a362.538 362.538 0 0115.25-8.674 361.691 361.691 0 0149.544-22.015 31.792 31.792 0 006.136 7.515l-.018-.048zm-59.383 39.924a403.338 403.338 0 00-49.813 48.532c-.421.488-.836.988-1.257 1.476a100.828 100.828 0 01-9.534-9.479 76.82 76.82 0 01-9.406-13.298 358.028 358.028 0 0156.937-42.932 61.382 61.382 0 0013.091 15.75l-.018-.049zm-50.844 52.668c8.473 7.179 18.776 13.859 30.775 19.91-8.54 13.634-16.544 27.822-23.827 42.432a481.546 481.546 0 00-9.797 20.862c-14.841-7.436-27.651-15.732-38.29-24.882a400.392 400.392 0 0141.139-58.322zm8.54 63.153a490.02 490.02 0 0123.833-42.42c1.025.501 2.049 1.007 3.099 1.501a253.122 253.122 0 0037.21 13.951 690.932 690.932 0 00-23.729 67.033c-9.437-2.739-18.599-5.814-27.42-9.224-8.052-3.111-15.655-6.435-22.808-9.973a555.05 555.05 0 019.815-20.868zm12.359 32.549c8.863 3.429 18.074 6.515 27.559 9.272a695.73 695.73 0 00-16.677 69.4 402.87 402.87 0 01-16.72-5.252 332.645 332.645 0 01-40.583-16.647 478.419 478.419 0 0123.527-66.777c7.194 3.538 14.829 6.873 22.906 10.004h-.012zm-6.411 75.159a401.223 401.223 0 0016.964 5.319 608.231 608.231 0 00-8.614 67.63 561.757 561.757 0 01-4.959-1.47 363.874 363.874 0 01-55.937-21.862c.317-3.302.68-6.623 1.086-9.961a418.418 418.418 0 0110.98-56.242 335.849 335.849 0 0040.48 16.586zm10.211 139.159a507.361 507.361 0 0071.12 14.64c.762 18.94 2.226 36.222 4.361 51.484a480.462 480.462 0 01-66.953-13.859c-4.173-15.641-7.034-33.197-8.528-52.265zm75.75 68.003c1.36 9.363 2.977 17.94 4.843 25.62 1.086 4.473 2.251 8.633 3.495 12.48a419.16 419.16 0 01-58.56-12.157 139.96 139.96 0 01-10.858-22.57c-2.033-5.38-3.885-11.063-5.557-17.05a483.218 483.218 0 0066.637 13.677zm1.866.256a559.521 559.521 0 0071.834 4.721v37.576a491.155 491.155 0 01-63.403-4.184c-3.386-10.37-6.241-23.18-8.431-38.113zm73.664 4.721a559.707 559.707 0 0071.846-4.721c-2.184 14.933-5.002 27.688-8.443 38.131a490.97 490.97 0 01-63.403 4.166v-37.576zm73.725-4.977a484.177 484.177 0 0066.66-13.683c-4.196 15.189-9.65 28.524-16.317 39.614a419.213 419.213 0 01-58.658 12.2c3.361-10.437 6.155-23.193 8.315-38.131zm.268-1.885c.98-7.048 1.824-14.559 2.531-22.534.818-9.223 1.428-18.91 1.83-28.95a506.148 506.148 0 0071.096-14.64c-1.495 19.068-4.349 36.6-8.54 52.258a480.404 480.404 0 01-66.917 13.86v.006zm75.494-48.459a356.977 356.977 0 001.872-18.214 381.964 381.964 0 0054.601-20.21 271.223 271.223 0 006.143-2.94c-2.129 19.41-6.167 37.277-12.035 53.448-7.271 3.612-14.939 7.032-23.003 10.261-10.791 4.306-22.18 8.198-34.044 11.657a275.56 275.56 0 006.466-34.002zm6.795-85.339c-1.627.496-3.253.98-4.88 1.452a599.956 599.956 0 00-8.607-67.631 402.633 402.633 0 0016.891-5.3 335.844 335.844 0 0040.577-16.635 408.528 408.528 0 0112.041 66.221 364.485 364.485 0 01-56.022 21.893zm2.806-73.2a388.664 388.664 0 01-16.635 5.228c-3.989-21.399-9.15-43.17-15.427-65.008-.421-1.464-.854-2.922-1.287-4.386 9.467-2.751 18.66-5.831 27.511-9.253 8.077-3.123 15.71-6.46 22.9-10.01a475.892 475.892 0 0123.631 66.715 332.396 332.396 0 01-40.693 16.696v.018zM462 254.351c-8.802 3.404-17.952 6.472-27.364 9.211a691.609 691.609 0 00-23.705-67.039 253.809 253.809 0 0037.155-13.933 236.204 236.204 0 003.142-1.525c8.495 13.555 16.425 27.703 23.79 42.444a496.12 496.12 0 019.809 20.862c-7.162 3.522-14.77 6.842-22.827 9.961v.019zm14.641-31.653c-7.321-14.713-15.25-28.865-23.791-42.456 11.981-6.045 22.266-12.719 30.732-19.886a399.936 399.936 0 0141.169 58.279c-10.663 9.15-23.479 17.471-38.308 24.919a474.275 474.275 0 00-9.79-20.874l-.012.018zM445.079 89.395a389.763 389.763 0 00-15.219-8.668 366.276 366.276 0 00-49.52-22.095 20.647 20.647 0 002.031-7.722 334.492 334.492 0 0166.941 22.063 37.396 37.396 0 01-4.233 16.422zm-62.69-40.352a20.435 20.435 0 00-1.83-7.619 285.099 285.099 0 0164.276 13.457 37.736 37.736 0 014.453 16.067 336.167 336.167 0 00-66.899-21.905zm-2.781-9.54a30.728 30.728 0 00-5.588-7.082c6.865-.22 13.66-.14 20.386.237a209.282 209.282 0 0136.503 5.27 61.612 61.612 0 0112.578 14.574 287.917 287.917 0 00-63.879-13zm14.902-8.668a239.573 239.573 0 00-22.436-.171 54.61 54.61 0 00-9.18-6.198c15.86-2.849 31.171-3.215 45.634-1.128a112.5 112.5 0 0119.245 11.998 212.89 212.89 0 00-33.263-4.501zm-34.257-7.741a89.85 89.85 0 00-12.53-4.972c10.98-4.447 21.576-6.466 31.622-6.002a179.724 179.724 0 0123.961 8.729 148.035 148.035 0 00-43.053 2.245zm-15.287-5.801a120.59 120.59 0 00-15.689-3.337c5.49-5.362 10.864-8.4 15.976-8.912a240.14 240.14 0 0127.529 5.288c-8.949.507-18.264 2.843-27.816 6.96zM340.22 4.415c-4.27 1.599-8.644 4.691-13.121 9.236a145.286 145.286 0 00-17.69-1.171V2.634c10.295.027 20.581.622 30.811 1.781zm-32.635 8.065c-5.891.028-11.774.417-17.617 1.165-4.473-4.547-8.843-7.627-13.109-9.242a279.995 279.995 0 0130.726-1.769v9.846zm-35.813-7.436c5.075.5 10.407 3.483 15.958 8.906a121.592 121.592 0 00-15.58 3.312c-9.54-4.148-18.8-6.484-27.712-6.99a241.502 241.502 0 0127.334-5.228zm-2.373 13.042a89.29 89.29 0 00-12.548 4.959 186.027 186.027 0 00-8.466-1.434 143.1 143.1 0 00-34.435-.884 180.619 180.619 0 0123.839-8.65c10.211-.482 20.813 1.623 31.61 6.009zm-21.289 5.337c2.019.287 4.05.61 6.1.988a54.965 54.965 0 00-9.217 6.198 221.43 221.43 0 00-52.863 4.026l-2.732.573a112.818 112.818 0 0119.337-12.005 138.807 138.807 0 0139.375.22zm-55.638 13.005a218.622 218.622 0 0150.545-4.062 30.83 30.83 0 00-5.619 7.094 298.726 298.726 0 00-33.55 4.96 281.803 281.803 0 00-30.317 8.027 61.827 61.827 0 0112.695-14.64 202.33 202.33 0 016.264-1.379h-.018zm11.736 9.76a297.185 297.185 0 0132.214-4.825 20.438 20.438 0 00-1.83 7.656 336.196 336.196 0 00-66.88 21.93 37.813 37.813 0 014.484-16.13 277.973 277.973 0 0132.031-8.606l-.019-.025zm30.421 4.722c.17 2.706.868 5.352 2.056 7.79a363.65 363.65 0 00-49.544 22.033 356.79 356.79 0 00-15.22 8.674 37.449 37.449 0 01-4.233-16.434 334.513 334.513 0 0166.941-22.063zM65.939 190.44c5.43 9.699 13.165 19.026 23.15 27.883.28.25.58.5.866.75A372.21 372.21 0 0061.078 282.3c-11.657-10.242-20.74-21.246-27.03-32.806A302.722 302.722 0 0165.94 190.44zm25.401 29.847c10.73 9.15 23.595 17.477 38.43 24.931a480.44 480.44 0 00-23.522 66.771c-16.982-8.54-31.64-18.062-43.688-28.39a370.867 370.867 0 0128.78-63.312zm14.396 93.495a422.098 422.098 0 00-11.12 56.846 341.712 341.712 0 00-1.025 9.309c-17.903-9.028-33.495-19.167-46.36-30.214a316.195 316.195 0 0112.39-57.126c.743-2.387 1.52-4.768 2.33-7.143 12.12 10.309 26.821 19.825 43.809 28.328h-.024zm-12.2 131.919c2.025 19.093 5.923 36.978 11.657 53.247-14.121-7.18-26.669-15.08-37.472-23.626a176.398 176.398 0 01-5.41-4.471 207.642 207.642 0 01-12.2-39.437 223.26 223.26 0 01-2.6-15.25c12.72 10.663 28.164 20.594 46.05 29.537h-.025zm14.957 56.931c6.775 3.306 13.892 6.448 21.35 9.424 11.175 4.466 22.991 8.486 35.313 12.042 1.745 6.423 3.715 12.529 5.899 18.3a143.5 143.5 0 009.998 21.197 303.978 303.978 0 01-49.368-19.044c-9.339-11.974-17.128-26.022-23.167-41.919h-.025zm76.531 63.977a423.626 423.626 0 0057.81 11.797c3.239 9.51 6.972 16.94 11.126 22.186a335.455 335.455 0 01-46.116-9.663c-8.534-5.752-16.165-13.914-22.796-24.32h-.024zM374.16 578.4a423.274 423.274 0 0057.883-11.822c-6.508 10.267-14.109 18.471-22.765 24.303a336.766 336.766 0 01-46.207 9.699c4.184-5.253 7.899-12.682 11.114-22.18h-.025zm61.854-14.853l.44-.763c6.258-10.98 11.407-23.942 15.402-38.698 12.304-3.551 24.107-7.57 35.27-12.03 7.475-2.984 14.61-6.138 21.405-9.461a174.795 174.795 0 01-10.37 22.509 146.791 146.791 0 01-12.675 19.307 303.946 303.946 0 01-49.447 19.136h-.025zm113.216-88.225c-10.784 8.54-23.314 16.421-37.411 23.589 5.685-16.153 9.571-33.94 11.59-53.216 17.91-8.955 33.349-18.91 46.098-29.604a216.935 216.935 0 01-10.785 44.561 179.8 179.8 0 01-3.934 10.059 135.059 135.059 0 01-5.533 4.611h-.025zm-25.809-95.416a409.94 409.94 0 00-12.114-66.173c16.976-8.503 31.665-18.019 43.786-28.328a318.104 318.104 0 0114.64 64.306c-12.823 11.035-28.402 21.173-46.287 30.195h-.025zm-12.596-67.972a478.539 478.539 0 00-23.595-66.716c14.878-7.472 27.761-15.829 38.503-25.01a375.912 375.912 0 0119.246 38.595 353.466 353.466 0 019.534 24.723c-12.06 10.352-26.7 19.88-43.664 28.408h-.024zm35.782-53.827a378.329 378.329 0 00-19.52-39.095l.8-.689c10.01-8.875 17.757-18.227 23.18-27.95a302.69 302.69 0 0131.86 59.109c-6.259 11.547-15.348 22.57-26.987 32.775a353.16 353.16 0 00-9.308-24.15h-.025zm46.97-57.657a300.701 300.701 0 0113.744 49.319 239.387 239.387 0 00-12.67-37.064 71.622 71.622 0 00-1.074-12.255zm-35.044-46.805a283.048 283.048 0 00-46.872-45.494 54.723 54.723 0 00-5.381-22.924 225.573 225.573 0 0143.92 39.248c5.112 9.528 7.906 19.324 8.333 29.17zM509.8 106.719a309.14 309.14 0 00-48.385-30.03 273.42 273.42 0 00-10.266-4.88 38.98 38.98 0 00-3.843-16.068 255.492 255.492 0 0132.976 14.03 241.064 241.064 0 0122.906 13.383 54.16 54.16 0 016.612 23.565zm-35.673-54.87a188.305 188.305 0 00-42.334-15.58 104.708 104.708 0 00-17.488-11.95 116.08 116.08 0 0129.859 10.048l.031-.068a301.343 301.343 0 0117.732 9.596v.048a152.889 152.889 0 0112.194 7.906h.006zm-65.062-30.286a164.534 164.534 0 00-18.837-7.93c.799.189 1.586.39 2.373.61v-.086a300.093 300.093 0 0128.395 9.724 129.41 129.41 0 00-11.931-2.318zM224.399 14.31c.787-.232 1.58-.433 2.373-.61a166.147 166.147 0 00-18.562 7.777 120.904 120.904 0 00-11.785 2.312 294.269 294.269 0 0127.95-9.546l.024.067zm-51.563 20.044a117.05 117.05 0 0130.079-10.168 105.033 105.033 0 00-17.55 11.943 186.235 186.235 0 00-42.059 15.39c3.66-2.61 7.592-5.146 11.797-7.606v-.049a301.11 301.11 0 0117.733-9.595v.085zM134.04 58.797a181.049 181.049 0 0148.41-20.087 59.136 59.136 0 00-11.542 14.64 252.008 252.008 0 00-55.034 26.23c4.435-7.253 10.511-14.213 18.166-20.783zm35.716-3.135a38.968 38.968 0 00-3.868 16.122 376.703 376.703 0 00-10.266 4.88 308.649 308.649 0 00-48.422 30.055 54.255 54.255 0 016.71-23.717 248.556 248.556 0 0155.815-27.34h.031zm-64.386 52.49a283.034 283.034 0 00-46.872 45.494c.433-9.961 3.294-19.874 8.51-29.512a222.535 222.535 0 0141.577-37.509l2.238-1.543a54.837 54.837 0 00-5.453 23.07zM22.41 212.706A239.37 239.37 0 009.68 249.77a300.713 300.713 0 0113.743-49.319 71.642 71.642 0 00-1.074 12.255h.061zm.134 4.362a77.152 77.152 0 006.49 26.23 93.793 93.793 0 003.05 6.319 269.413 269.413 0 00-16.555 61.092c-5.862-11.731-8.863-23.79-8.887-35.935a235.127 235.127 0 0115.841-57.706h.061zm10.694 34.641c6.447 11.438 15.622 22.32 27.26 32.459a349.71 349.71 0 00-2.574 7.887 318.777 318.777 0 00-12.334 56.224 176.635 176.635 0 01-5.441-5.009c-9.876-9.528-17.617-19.52-23.18-29.755a267.011 267.011 0 0116.208-61.806h.06zm12.26 162.663a235.172 235.172 0 002.886 17.416 210.465 210.465 0 0010.895 36.313c-10.901-9.876-19.368-20.344-25.26-31.269a217.528 217.528 0 01-16.245-54.528c6.68 11.212 15.988 21.966 27.664 32.068h.06zm-24.845-9.76a299.982 299.982 0 01-9.961-36.563 95.566 95.566 0 004.569 9.821 223.12 223.12 0 005.32 26.748l.072-.006zm40.26 67.344a186.759 186.759 0 0021.35 37.546 107.766 107.766 0 01-3.398-3.74A302.167 302.167 0 0140.728 450.6a136.21 136.21 0 0020.112 21.362l.073-.006zm39.193 55.565a207.183 207.183 0 0030.457 18.416 128.506 128.506 0 0019.947 20.465 302.436 302.436 0 01-40.76-29.725 172.756 172.756 0 01-9.736-9.15l.092-.006zm106.963 65.069c.753.5 1.509.984 2.269 1.451a321.646 321.646 0 01-12.261-4.526 260.544 260.544 0 009.992 3.075zm6.71 1.83a345.684 345.684 0 0041.974 8.216 26.783 26.783 0 004.813 4.167 300.498 300.498 0 01-36.209-8.04v-.086a56.556 56.556 0 01-10.559-4.215l-.019-.042zm44.829 8.588a397.494 397.494 0 0048.959 3.099v4.429a306.602 306.602 0 01-39.351-2.629v-.043c-3.374-.409-6.582-2.056-9.59-4.813l-.018-.043zm50.789 3.099a399.172 399.172 0 0048.989-3.099c-3.05 2.776-6.24 4.405-9.644 4.88v.043a306.422 306.422 0 01-39.351 2.629l.006-4.453zm51.899-3.483a343.68 343.68 0 0042.035-8.204 57.363 57.363 0 01-10.73 4.27v.085a300.417 300.417 0 01-36.131 8.028 26.395 26.395 0 004.844-4.136l-.018-.043zm48.8-10.132c3.31-.952 6.563-1.954 9.76-3.007a296.213 296.213 0 01-12.036 4.447c.824-.421 1.574-.897 2.324-1.397l-.048-.043zm76.603-46.702a207.143 207.143 0 0030.348-18.379 182.414 182.414 0 01-9.87 9.211 302.975 302.975 0 01-40.321 29.457 126.644 126.644 0 0019.892-20.246l-.049-.043zm51.454-40.064a123.102 123.102 0 01-2.928 3.227 184.575 184.575 0 0021.075-37.174 136.298 136.298 0 0019.996-21.21 302.15 302.15 0 01-38.137 55.163l-.006-.006zm45.018-69.272c-5.868 10.98-14.341 21.527-25.279 31.464.883-2.2 1.731-4.437 2.544-6.71a219.556 219.556 0 0011.145-46.97c11.736-10.163 21.069-20.984 27.81-32.269a215.814 215.814 0 01-16.171 54.528l-.049-.043zm18.733-58.902a95.483 95.483 0 004.416-9.54 300.814 300.814 0 01-9.546 35.38 220.923 220.923 0 005.179-25.797l-.049-.043zm-25.108-34.324a156.847 156.847 0 01-5.423 4.99 320.215 320.215 0 00-14.81-64.142c11.59-10.126 20.789-21.002 27.224-32.434a267.116 267.116 0 0116.293 61.763c-5.563 10.291-13.322 20.307-23.235 29.865l-.049-.042zm8.132-93.678a98.9 98.9 0 003.05-6.301 77.156 77.156 0 006.49-26.23 235.11 235.11 0 0115.86 57.706c0 12.102-3.007 24.131-8.839 35.831a270.101 270.101 0 00-16.512-60.963l-.049-.043zm-46.769-142.368c2.39 2.747 4.63 5.62 6.71 8.607a228.923 228.923 0 00-40.321-33.952 81.221 81.221 0 00-13.176-17.69 171.795 171.795 0 0115.823 12.114 306.735 306.735 0 0116.281 15.159 309.324 309.324 0 0114.732 15.805l-.049-.043zM93.481 91.481a291 291 0 0116.281-15.159 174.406 174.406 0 0115.952-12.249 81.444 81.444 0 00-13.219 17.648 223.208 223.208 0 00-4.996 3.391 226.148 226.148 0 00-35.008 30.128c1.907-2.7 4.006-5.374 6.295-8.021a306.624 306.624 0 0114.695-15.738zM5.471 284.649a85.637 85.637 0 009.62 29.213c-.227 1.702-.434 3.41-.61 5.112a238.257 238.257 0 00.03 53.442 83.087 83.087 0 01-7.137-23.637h-.05A307.133 307.133 0 014.416 306.5c0-7.32.352-14.604 1.055-21.851zm604.21 64.142h-.048a82.636 82.636 0 01-6.997 23.326 228.962 228.962 0 001.385-20.093 243.521 243.521 0 00-2.062-38.253 85.566 85.566 0 009.571-29.109 225.778 225.778 0 011.055 21.838 307.13 307.13 0 01-2.904 42.291z" fill="#F84F38"/></svg>