<svg width="162" height="54" fill="none" xmlns="http://www.w3.org/2000/svg"><path d="M69.21 28.105c0 7.623-5.982 13.24-13.325 13.24-7.343 0-13.325-5.617-13.325-13.24 0-7.678 5.982-13.242 13.325-13.242 7.343 0 13.325 5.564 13.325 13.242zm-5.833 0c0-4.765-3.467-8.024-7.492-8.024s-7.492 3.26-7.492 8.024c0 4.716 3.467 8.023 7.492 8.023s7.492-3.313 7.492-8.023zm34.581 0c0 7.623-5.983 13.241-13.325 13.241-7.343 0-13.326-5.617-13.326-13.241 0-7.671 5.983-13.241 13.326-13.241 7.342 0 13.325 5.564 13.325 13.241zm-5.833 0c0-4.764-3.468-8.024-7.492-8.024-4.025 0-7.493 3.26-7.493 8.024 0 4.716 3.468 8.024 7.493 8.024 4.024 0 7.492-3.314 7.492-8.024zm33.382-12.443v23.772c0 9.778-5.785 13.772-12.625 13.772-6.438 0-10.313-4.292-11.774-7.802l5.079-2.108c.904 2.155 3.12 4.699 6.689 4.699 4.378 0 7.091-2.693 7.091-7.761v-1.905h-.203c-1.306 1.606-3.821 3.01-6.995 3.01-6.642 0-12.727-5.768-12.727-13.188 0-7.475 6.085-13.29 12.727-13.29 3.168 0 5.683 1.404 6.995 2.962h.203v-2.155h5.54v-.006zm-5.126 12.489c0-4.663-3.121-8.072-7.091-8.072-4.025 0-7.397 3.41-7.397 8.072 0 4.614 3.372 7.975 7.397 7.975 3.97 0 7.091-3.36 7.091-7.975zM134.64 1.73v38.804h-5.689V1.73h5.689zm22.172 30.732l4.528 3.008c-1.462 2.156-4.983 5.869-11.068 5.869-7.546 0-13.182-5.815-13.182-13.241 0-7.875 5.684-13.242 12.529-13.242 6.894 0 10.265 5.469 11.367 8.424l.605 1.504-17.757 7.331c1.359 2.657 3.474 4.012 6.438 4.012 2.971 0 5.031-1.457 6.54-3.665zm-13.936-4.764l11.87-4.913c-.653-1.654-2.617-2.806-4.929-2.806-2.965 0-7.091 2.608-6.941 7.719zM21.023 24.659V19.04h18.992c.185.979.281 2.137.281 3.39 0 4.215-1.156 9.427-4.881 13.14-3.623 3.762-8.253 5.767-14.386 5.767-11.367 0-20.925-9.23-20.925-20.56C.104 9.448 9.662.218 21.029.218c6.289 0 10.769 2.46 14.134 5.665l-3.976 3.964c-2.414-2.256-5.684-4.012-10.164-4.012-8.3 0-14.792 6.669-14.792 14.943 0 8.274 6.492 14.943 14.792 14.943 5.384 0 8.45-2.155 10.415-4.114 1.593-1.588 2.641-3.856 3.055-6.954l-13.47.006z" fill="#000" fill-opacity=".8"/></svg>