<svg width="261" height="517" fill="none" xmlns="http://www.w3.org/2000/svg"><path d="M261 167.4v223.977l-.012.004c-.063 4.855-3.026 9.482-9.047 12.95L65.255 511.778c-13.435 7.735-36.906 6.765-52.422-2.166C4.13 504.603-.218 498.157.007 492.093v.004-224.035L261 167.4" fill="#F84F38"/><path d="M65.255 287.943l186.673-107.824c13.439-7.761 11.752-21.317-3.764-30.276-15.512-8.963-38.981-9.935-52.419-2.174L9.072 255.492c-13.439 7.757-11.752 21.314 3.764 30.276 15.516 8.963 38.985 9.936 52.42 2.175" fill="#030101"/><path d="M46.665 272.836c8.905 0 16.123-7.202 16.123-16.091V157.2c0-33.947 24.898-76.974 54.366-93.947l42.815-24.665c11.309-6.519 21.526-8.101 28.022-4.364 6.495 3.742 10.221 13.36 10.221 26.389v99.545c0 8.889 7.218 16.091 16.123 16.091 8.904 0 16.122-7.202 16.122-16.091V60.613c0-25.2-9.357-44.468-26.344-54.252-16.99-9.788-38.392-8.238-60.267 4.363l-42.815 24.66C61.505 58.157 30.542 111.663 30.542 157.2v99.545c0 8.889 7.219 16.091 16.123 16.091" fill="#F84F38"/></svg>