<svg width="1493" height="241" fill="none" xmlns="http://www.w3.org/2000/svg"><path d="M144.993 8v.24h-11.28l-33.6 134.4h-3.36L63.393 8.24h-8.88V8H.753v168h36.48V50.96h3.6L72.753 176h52.56l31.92-125.04h3.6V176h36.48V8h-52.32zm181.335.24h-61.2l-60 167.76h37.68l10.08-27.6h85.68l9.84 27.6h37.92l-60-167.76zm-61.68 106.8l26.4-73.68h9.36l26.16 73.68h-61.92zm245.882-22.8l59.52-84h-45.84L481.97 69.2h-4.08L435.65 8.24h-45.6l59.28 84L390.05 176h45.6l42.24-60.96h4.08L524.21 176h45.84l-59.52-83.76z" fill="#F84F38"/><path d="M729.575 64.16C729.575 8 684.695 8 664.535 8c-9.84 0-36.48.24-45.36.24V8h-36.48v168h36.48v-55.92h47.52l27.36 55.92h39.6l-32.16-64.32c15.12-7.92 28.08-18.48 28.08-47.52zm-67.92 23.28h-42.48V40.88h43.2c11.28 0 33.36 0 33.36 23.28 0 23.52-23.52 23.28-34.08 23.28zM843.14 61.28c-9.12-12-24.24-19.92-49.2-19.92-56.88 0-62.88 47.76-62.88 67.44 0 18 6.24 67.2 62.64 67.2 25.44 0 40.8-6.96 49.92-18.72h1.2V176h36.48V41.36h-36.48v19.92h-1.68zM804.5 144.8c-34.8 0-38.64-26.4-38.64-36 0-10.56 3.6-36 38.64-36 31.44 0 37.92 17.76 37.92 36 0 20.4-6.48 36-37.92 36zm139.952-72.24h43.68V41.84h-43.68V2.96h-36.72v38.88h-17.76v30.72h17.76v54c0 19.44 0 49.44 36.72 49.44 36.48 0 43.68-2.4 43.68-2.4v-35.52c-35.04 1.92-43.68 4.56-43.68-14.88V72.56zM1034.26 176V42.32h-36.241V176h36.241zm0-143.28V.08h-36.241v32.64h36.241zm96.26 8.64c-24.24 0-36.48 7.92-45.12 19.92h-1.68V41.36h-36.48V176h36.48v-64.8c0-18.24 4.56-38.4 36.24-38.4 34.8 0 32.64 25.44 32.64 36V176h36.24v-67.2c0-19.68-1.44-67.44-58.32-67.44zm180.96 1.44v19.92h-2.16c-9.12-12-24.24-19.92-49.2-19.92-56.88 0-62.88 47.76-62.88 67.44 0 18.24 6.24 67.44 62.64 67.44 25.44 0 40.8-7.2 49.92-18.72h1.68v9.6c0 24.72-11.04 40.8-35.76 40.8-28.56 0-34.8-13.92-35.76-21.12h-36.24c0 19.92 11.76 52.56 72.24 52.56 66.96 0 72-49.92 72-77.76V42.8h-36.48zm-40.8 103.44c-34.8 0-38.64-26.16-38.64-36 0-10.56 3.6-36 38.64-36 31.44 0 37.92 17.76 37.92 36 0 20.4-6.48 36-37.92 36zM1427.2 94.4l-3.12-.24c-23.52-3.6-27.6-6.96-27.6-12.96 0-4.08 4.32-11.52 24.72-11.52 21.12 0 30.24 5.76 30.24 16.32v1.2h37.2V86c0-20.64-11.76-45.36-67.44-45.36-51.84 0-62.64 22.32-62.64 41.04 0 26.88 24 35.52 62.64 40.56l5.76.72c14.64 1.68 27.6 3.6 27.6 13.68 0 8.88-13.92 10.8-28.56 10.8-24.24 0-32.88-5.28-32.88-16.8v-1.2h-37.44v2.64c-.24 6.96-.24 18.24 9.12 27.6 10.8 10.8 31.68 16.32 62.16 16.32 41.28 0 65.28-6.48 65.28-39.84 0-31.92-34.56-37.2-65.04-41.76z" fill="#fff"/></svg>