<svg width="405" height="491" fill="none" xmlns="http://www.w3.org/2000/svg"><path d="M382.916 180.85C341.253 51.389 225.103-23.813 123.483 12.88 21.863 49.575-26.747 184.268 14.915 313.732c41.66 129.46 157.815 204.665 259.435 167.972 101.623-36.698 150.23-171.39 108.567-300.854z" fill="#F84F38"/><path d="M389.32 180.759C348.054 50.763 238.184-26.434 143.913 8.333 49.646 43.099 6.677 176.665 47.939 306.66c41.263 129.993 151.133 207.191 245.404 172.42 94.267-34.767 137.236-168.328 95.977-298.321z" fill="#000"/><path d="M156.81 199.425c7.251 24.468 5.501 47.277-3.903 50.953-9.407 3.674-22.91-13.178-30.158-37.642-7.252-24.465-5.504-47.279 3.899-50.949 9.407-3.68 22.911 13.173 30.162 37.638zm118.272-39.421c7.251 24.465 5.507 47.278-3.9 50.949-9.407 3.678-22.908-13.177-30.159-37.642-7.252-24.465-5.504-47.275 3.903-50.949 9.403-3.676 22.907 13.177 30.156 37.642zm53.945 82.553c-4.621-7.511-12.346-11.345-19.22-8.833-6.87 2.512-10.792 10.604-10.156 19.572.215 3 3.012 4.885 4.79 3.209a32.091 32.091 0 016.28-4.613c16.563 56.677-7.204 115.829-53.951 132.917-46.746 17.089-99.344-14.147-118.612-69.831a29.834 29.834 0 017.604-.464c2.366.16 3.501-3.161 1.958-5.675-4.625-7.513-12.349-11.346-19.22-8.833-6.873 2.512-10.792 10.604-10.159 19.571.214 3.001 3.015 4.886 4.793 3.21a31.672 31.672 0 016.351-4.652c21.282 62.034 79.418 97.007 130.951 78.165 51.529-18.838 77.549-84.579 58.948-147.589a29.68 29.68 0 017.689-.478c2.361.159 3.5-3.161 1.954-5.676z" fill="#F84F38"/></svg>