<svg width="182" height="46" fill="none" xmlns="http://www.w3.org/2000/svg"><path d="M48.025 16.382h18.341v3.403h-7.222v19.188h-3.958V19.785h-7.192l.03-3.403zm17.556 6.235h3.384v3.162h.06c.121-.451.332-.873.635-1.295a5.015 5.015 0 011.118-1.144 4.949 4.949 0 011.45-.844 4.234 4.234 0 011.602-.331c.423 0 .725.03.876.03.151.03.332.06.483.06v3.464a6.134 6.134 0 00-.785-.12c-.272-.03-.514-.06-.786-.06a4.22 4.22 0 00-1.722.36c-.544.242-.997.603-1.42 1.055a5.706 5.706 0 00-.967 1.747c-.242.693-.363 1.506-.363 2.41v7.771H65.52l.06-16.265zm26.227 16.356h-3.565v-2.29h-.06c-.454.844-1.119 1.476-1.995 1.988-.876.512-1.783.753-2.69.753-2.145 0-3.716-.512-4.683-1.596-.967-1.054-1.45-2.68-1.45-4.82V22.617h3.626v10.03c0 1.446.272 2.47.846 3.042.544.603 1.33.904 2.327.904.755 0 1.39-.12 1.903-.362.514-.24.937-.542 1.24-.933.332-.392.543-.874.694-1.416.151-.542.212-1.145.212-1.777v-9.488h3.626v16.356h-.03zm6.165-5.242c.12 1.055.513 1.778 1.208 2.23.695.421 1.541.632 2.508.632.333 0 .726-.03 1.149-.09.423-.06.846-.151 1.208-.302.393-.15.695-.361.937-.662.242-.302.363-.663.332-1.115-.03-.452-.181-.843-.513-1.144-.333-.302-.726-.512-1.209-.723a10.54 10.54 0 00-1.692-.452c-.635-.12-1.269-.271-1.934-.422a20.92 20.92 0 01-1.964-.542 5.634 5.634 0 01-1.692-.873c-.484-.362-.907-.814-1.179-1.386-.302-.572-.453-1.235-.453-2.078 0-.904.212-1.627.665-2.23.423-.602.997-1.084 1.662-1.445a7.558 7.558 0 012.236-.783 12.803 12.803 0 012.326-.211c.847 0 1.662.09 2.418.27.755.182 1.48.453 2.085.874a4.785 4.785 0 011.541 1.567c.423.632.665 1.415.785 2.319h-3.777c-.181-.873-.574-1.446-1.178-1.747-.635-.301-1.33-.452-2.146-.452-.241 0-.574.03-.906.06a5.28 5.28 0 00-.997.241c-.302.12-.574.302-.786.512-.211.211-.332.512-.332.874 0 .452.15.783.453 1.054.302.271.695.482 1.209.693.483.18 1.057.331 1.692.452.634.12 1.299.27 1.964.421a20.43 20.43 0 011.934.543c.634.21 1.208.482 1.692.873.483.362.906.814 1.209 1.356.302.542.453 1.235.453 2.018 0 .964-.212 1.777-.665 2.47a5.638 5.638 0 01-1.722 1.656c-.695.422-1.511.723-2.357.934-.876.18-1.722.301-2.569.301a10.85 10.85 0 01-2.87-.361c-.876-.241-1.662-.602-2.297-1.054-.634-.482-1.148-1.055-1.51-1.778-.363-.692-.575-1.536-.605-2.53h3.656v.03h.03zm11.935-11.114h2.75v-4.94h3.626v4.91h3.263v2.68h-3.263v8.736c0 .391.03.692.06.994.031.27.121.512.212.692.121.181.302.332.514.422.241.09.543.15.966.15.242 0 .514 0 .756-.03s.514-.06.755-.12v2.801c-.392.06-.785.09-1.178.12-.393.061-.756.061-1.179.061-.967 0-1.722-.09-2.296-.271-.574-.18-1.027-.452-1.36-.783a2.802 2.802 0 01-.665-1.295c-.12-.513-.181-1.145-.211-1.808v-9.639h-2.75v-2.74.06zm12.178 0h3.414v2.229h.06c.514-.964 1.209-1.627 2.116-2.049.906-.421 1.873-.632 2.961-.632 1.299 0 2.417.21 3.384.693.967.451 1.753 1.054 2.387 1.867a7.77 7.77 0 011.42 2.771c.303 1.055.484 2.2.484 3.374 0 1.114-.151 2.169-.423 3.193-.302 1.024-.725 1.958-1.3 2.74a6.424 6.424 0 01-2.205 1.899c-.907.481-1.934.722-3.143.722-.514 0-1.057-.06-1.571-.15a6.712 6.712 0 01-1.511-.452 5.416 5.416 0 01-1.329-.813 4.58 4.58 0 01-1.028-1.145h-.06v8.163h-3.626v-22.41h-.03zm12.66 8.193c0-.723-.09-1.446-.302-2.139a5.438 5.438 0 00-.876-1.837 4.828 4.828 0 00-1.42-1.296c-.574-.33-1.239-.482-1.964-.482-1.511 0-2.659.513-3.445 1.567-.756 1.054-1.148 2.47-1.148 4.217 0 .843.09 1.596.302 2.289.211.693.483 1.295.906 1.807a4.32 4.32 0 001.451 1.205c.574.301 1.208.452 1.964.452.846 0 1.511-.18 2.085-.512.574-.331 1.027-.783 1.42-1.295a5.303 5.303 0 00.786-1.838c.151-.723.241-1.415.241-2.138zm6.376-14.428h3.626v3.403h-3.626v-3.403zm0 6.235h3.626v16.356h-3.626V22.617zm6.859-6.235h3.626v22.59h-3.626v-22.59zm14.685 23.042c-1.299 0-2.477-.21-3.505-.662-1.027-.452-1.873-1.024-2.598-1.777-.695-.754-1.239-1.687-1.602-2.742a10.693 10.693 0 01-.574-3.463c0-1.235.181-2.38.574-3.434a8.013 8.013 0 011.602-2.741 7.25 7.25 0 012.598-1.777c1.028-.422 2.206-.663 3.505-.663 1.3 0 2.478.21 3.506.663a7.52 7.52 0 012.598 1.777c.695.753 1.239 1.686 1.602 2.74a10.51 10.51 0 01.574 3.435c0 1.265-.182 2.41-.574 3.463-.393 1.055-.907 1.958-1.602 2.742a7.25 7.25 0 01-2.598 1.777c-1.028.421-2.176.662-3.506.662zm0-2.861c.786 0 1.511-.18 2.085-.512.605-.332 1.058-.783 1.451-1.326.393-.542.665-1.174.846-1.837a8.194 8.194 0 000-4.187 5.383 5.383 0 00-.846-1.837 4.59 4.59 0 00-1.451-1.295 4.272 4.272 0 00-2.085-.512c-.785 0-1.51.18-2.085.512-.604.33-1.057.783-1.45 1.295a5.383 5.383 0 00-.846 1.837 8.194 8.194 0 000 4.187c.181.693.453 1.295.846 1.837.393.543.876.994 1.45 1.326.605.361 1.3.512 2.085.512zm9.368-13.946h2.749v-4.94h3.626v4.91h3.264v2.68h-3.264v8.736c0 .391.031.692.061.994.03.27.121.512.211.692.121.181.302.332.514.422.242.09.544.15.967.15.242 0 .514 0 .755-.03.242-.03.514-.06.756-.12v2.801c-.393.06-.786.09-1.179.12-.393.061-.755.061-1.178.061-.967 0-1.723-.09-2.297-.271-.574-.18-1.027-.452-1.359-.783-.333-.362-.544-.783-.665-1.295-.121-.513-.181-1.145-.212-1.808v-9.639h-2.749v-2.74.06zM44.322 16.674H27.485L22.302.957 17.09 16.674l-16.837-.03 13.616 9.726-5.213 15.718 13.617-9.726 13.616 9.726-5.183-15.718 13.617-9.696z" fill="#000" fill-opacity=".8"/><path d="M31.836 29.414l-1.163-3.484-8.386 5.876 9.549-2.392z" fill="#F84F38"/></svg>