<svg width="151" height="62" fill="none" xmlns="http://www.w3.org/2000/svg"><path d="M119.586 35.417l2.334-.528a3.05 3.05 0 00.229-.06 2.569 2.569 0 001.54-1.137c.344-.56.452-1.229.302-1.865l-.009-.04a2.481 2.481 0 00-.398-.85 3.22 3.22 0 00-.952-.8 8.877 8.877 0 00-1.353-.613l-2.559-.915a239.756 239.756 0 00-4.323-1.528c-.939-.327-1.735-.615-2.427-.826a7.473 7.473 0 01-.392-.117c-.836-.25-1.425-.354-1.921-.358a2.337 2.337 0 00-.97.173 2.47 2.47 0 00-.843.587 5.13 5.13 0 00-.33.407c-.2.3-.364.621-.491.957a12.737 12.737 0 00-.701 4.268c.009 1.31.045 2.992.781 4.133.179.293.417.547.7.743.525.354 1.053.402 1.606.44.825.057 1.622-.14 2.418-.32l7.753-1.753.006.002zm26.037-12.125a12.967 12.967 0 00-2.534-3.535 3.788 3.788 0 00-.431-.363 4.928 4.928 0 00-.439-.288 4.954 4.954 0 00-.48-.226 2.514 2.514 0 00-1.017-.165c-.332.019-.657.11-.951.263-.444.216-.926.565-1.567 1.146-.088.087-.199.184-.3.275-.527.487-1.115 1.086-1.814 1.784a258.507 258.507 0 00-3.204 3.228l-1.893 1.923c-.346.35-.661.73-.941 1.132-.241.34-.411.724-.501 1.128a2.52 2.52 0 00.023.936l.009.04a2.52 2.52 0 001.104 1.546 2.621 2.621 0 001.892.362 2.44 2.44 0 00.234-.044l10.089-2.282c.796-.18 1.602-.345 2.317-.752.479-.27.935-.54 1.248-1.083.167-.299.268-.629.296-.968.156-1.347-.562-2.875-1.14-4.056zm-18.061 4.152c.731-.899.731-2.238.795-3.335.221-3.66.452-7.32.637-10.982.07-1.387.222-2.755.137-4.153-.069-1.152-.077-2.477-.821-3.423-1.312-1.67-4.113-1.532-6.023-1.272a18.61 18.61 0 00-1.752.323c-.582.136-1.159.285-1.721.462-1.834.588-4.411 1.666-4.846 3.734-.247 1.168.337 2.363.787 3.43.55 1.292 1.298 2.457 1.98 3.673 1.805 3.212 3.642 6.406 5.474 9.602.549.954 1.143 2.161 2.202 2.657.071.029.143.055.216.078.474.177.993.21 1.486.098l.088-.019c.458-.123.87-.367 1.194-.702.06-.055.115-.11.169-.17h-.002zm-.875 9.798a2.328 2.328 0 00-1.157-.84 2.383 2.383 0 00-1.441-.016 2.318 2.318 0 00-.323.13c-.161.08-.314.174-.459.28a6.01 6.01 0 00-1.097 1.1c-.08.1-.155.234-.253.322l-1.623 2.183a243.578 243.578 0 00-2.726 3.699c-.588.805-1.094 1.486-1.497 2.086-.075.114-.154.238-.225.34-.482.727-.754 1.26-.894 1.733a2.214 2.214 0 00-.098.976c.045.341.163.67.345.965.097.146.202.29.315.427.243.274.516.52.815.734 1.121.763 2.347 1.312 3.637 1.735 1.074.349 2.189.558 3.318.62.193.01.386.006.577-.01.178-.017.354-.041.529-.074.175-.04.348-.089.517-.147.33-.12.63-.308.881-.55.238-.233.422-.514.536-.824.188-.458.312-1.038.394-1.9.006-.123.024-.27.038-.404.063-.715.093-1.56.138-2.546.081-1.521.143-3.035.191-4.552l.105-2.7c.025-.62.004-1.31-.172-1.928a2.856 2.856 0 00-.371-.839zm18.32 4.225c-.338-.365-.818-.726-1.575-1.174-.109-.06-.238-.14-.356-.209-.63-.372-1.389-.761-2.276-1.233a240.785 240.785 0 00-4.103-2.154l-2.431-1.262c-.126-.036-.253-.124-.373-.181a6.15 6.15 0 00-1.478-.516 2.77 2.77 0 00-.884-.035 2.357 2.357 0 00-1.288.635 2.27 2.27 0 00-.662 1.253 2.9 2.9 0 00.036.906c.118.635.407 1.26.706 1.81l1.298 2.382a241.029 241.029 0 002.204 4.01c.484.868.887 1.611 1.264 2.228.071.115.151.24.213.348.46.74.827 1.206 1.2 1.541a2.364 2.364 0 001.889.624c.179-.021.356-.052.531-.092a4.96 4.96 0 001.033-.398 12.853 12.853 0 002.705-1.981c.971-.936 1.829-1.956 2.497-3.123.093-.165.172-.335.24-.513.062-.163.117-.329.163-.497.039-.173.069-.345.09-.52a2.427 2.427 0 00-.118-1.014 2.254 2.254 0 00-.525-.837v.002z" fill="#000" fill-opacity=".8"/><path fill-rule="evenodd" clip-rule="evenodd" d="M61.28 18.297c0-1.963 1.633-3.567 3.605-3.567 1.944 0 3.522 1.604 3.606 3.596v27.837c0 1.963-1.634 3.567-3.606 3.567a3.66 3.66 0 01-1.388-.273 3.613 3.613 0 01-1.175-.775 3.524 3.524 0 01-.778-1.157 3.463 3.463 0 01-.264-1.362V18.297zm-3.353 17.195c-.029.552-.17 1.576-.9 2.322-.79.802-1.86.994-2.48.994-2.578.015-5.155.023-7.733.028-2.577.007-5.155.015-7.732.028a6.435 6.435 0 001.689 2.71 7 7 0 001.466 1.05c.309.193 1.38.747 2.703.747 1.41 0 2.649-.444 3.861-1.051l.1-.052c.843-.427 1.711-.867 2.632-1.027.9-.138 1.86.028 2.562.637.846.719 1.185 1.768.874 2.847-.366 1.216-1.408 2.267-2.507 2.902-.628.36-1.288.665-1.972.912a15.173 15.173 0 01-5.436.83c-.45 0-.93 0-1.41-.054a13.051 13.051 0 01-1.492-.277 10.744 10.744 0 01-2.255-.747c-.72-.313-1.41-.692-2.056-1.134a13.356 13.356 0 01-1.802-1.52 13.725 13.725 0 01-1.494-1.824c-1.52-2.267-2.225-5.06-2.084-7.77.112-2.652 1.014-5.306 2.649-7.462.176-.272.38-.5.573-.717.085-.096.167-.188.244-.28 2.017-2.413 4.713-3.177 5.824-3.492l.062-.019a12.9 12.9 0 016.902 0c.536.14 3.55 1.052 5.888 3.512.112.11.424.47.817.996a13.05 13.05 0 012.166 4.436l.003.014c.169.608.338 1.437.338 2.459v.002zM41.39 30.93a6.208 6.208 0 00-2.197 3.482h12.282a6.398 6.398 0 00-2.225-3.484 6.509 6.509 0 00-3.944-1.381 6.402 6.402 0 00-3.918 1.381l.002.002zm46.706-7.327c-3.21 0-6.14 1.41-8.225 3.706v-.085a3.486 3.486 0 00-1.142-2.419 3.639 3.639 0 00-2.547-.94 3.63 3.63 0 00-2.49 1.077 3.477 3.477 0 00-1.004 2.477v26.566c-.003.464.09.925.27 1.354.18.43.445.82.78 1.15a3.656 3.656 0 002.556 1.034c.475.001.945-.09 1.383-.268a3.605 3.605 0 001.172-.767c.335-.329.6-.72.78-1.15.18-.429.272-.889.27-1.353v-8.294c2.084 2.267 4.986 3.705 8.225 3.705 6.453 0 11.692-5.723 11.692-12.856-.028-7.13-5.267-12.937-11.72-12.937zM86.52 43.618c-3.663 0-6.65-3.125-6.65-7.021 0-3.926 2.959-7.05 6.65-7.05 3.66 0 6.647 3.124 6.647 7.05-.028 3.896-2.986 7.02-6.647 7.02zm-59.468-5.225l-1.183 2.544a116.308 116.308 0 00-1.578 3.372l-.49 1.064c-2.253 4.902-4.924 10.721-10.75 11.956-2.817.609-7.07-.22-8.65-2.82-1.576-2.625.762-5.64 3.776-4.947.476.102.943.33 1.415.56.786.386 1.582.773 2.445.6.817-.137 1.323-.718 1.972-1.465a6.84 6.84 0 001.464-2.737l-.041-.096a1.383 1.383 0 00-.043-.097 390.098 390.098 0 01-1.909-3.535c-.3-.565-.603-1.128-.909-1.69l-1.228-2.282c-.9-1.67-1.05-1.944-1.447-2.665a100.835 100.835 0 00-2.761-4.783c-1.042-1.715-2.113-3.621-1.24-5.641a3.404 3.404 0 011.728-1.773 3.515 3.515 0 012.498-.16c1.813.537 2.617 2.226 3.367 3.804.136.286.27.569.408.838 1.211 2.35 2.394 4.7 3.577 7.05.105.234.262.551.457.94.173.345.373.747.585 1.189l.313.638c.122.25.229.462.308.633.549-1.34 1.106-2.673 1.66-4.008a645.51 645.51 0 001.663-4.009c.015-.073.146-.36.345-.79.167-.366.38-.834.613-1.366l.238-.563c.731-1.742 1.612-3.84 3.566-4.412a3.548 3.548 0 012.113.055 3.47 3.47 0 011.69 1.244c.422.58.59 1.244.619 1.908.022 1.468-.701 3.042-1.324 4.392-.15.33-.296.646-.422.943l-.075.161c-.172.38-.64 1.407-1.447 3.1-.29.606-.57 1.215-.853 1.83l-.47 1.018z" fill="#000" fill-opacity=".8"/></svg>