<svg width="52" height="52" fill="none" xmlns="http://www.w3.org/2000/svg"><path fill-rule="evenodd" clip-rule="evenodd" d="M35.838 19.16c.34.35.583.785.702 1.26a29.13 29.13 0 01.46 5.33 28.999 28.999 0 01-.46 5.25 2.78 2.78 0 01-1.94 2c-1.72.46-8.6.46-8.6.46s-6.88 0-8.6-.46a2.78 2.78 0 01-1.94-1.92 29.005 29.005 0 01-.46-5.33 28.996 28.996 0 01.46-5.29 2.78 2.78 0 011.94-2C19.12 18 26 18 26 18s6.88 0 8.6.42c.47.133.898.388 1.238.74zM29.5 25.75l-5.75 3.27v-6.54l5.75 3.27z" fill="#F84F38"/><circle cx="26" cy="26" r="25.5" stroke="#F84F38"/></svg>