<svg width="44" height="44" fill="none" xmlns="http://www.w3.org/2000/svg"><path d="M37.125 0H6.875A6.875 6.875 0 000 6.875v30.25A6.875 6.875 0 006.875 44h30.25A6.875 6.875 0 0044 37.125V6.875A6.875 6.875 0 0037.125 0z" fill="#1877F2"/><path d="M33 22c0-6.05-4.95-11-11-11s-11 4.95-11 11c0 5.5 3.988 10.038 9.212 10.862v-7.7h-2.75V22h2.75v-2.475c0-2.75 1.65-4.262 4.125-4.262 1.238 0 2.476.274 2.476.274v2.75h-1.375c-1.375 0-1.788.826-1.788 1.65V22h3.025l-.55 3.163h-2.613V33c5.5-.825 9.488-5.5 9.488-11z" fill="#fff"/></svg>