<svg width="44" height="44" fill="none" xmlns="http://www.w3.org/2000/svg"><path d="M37.125 0H6.875A6.875 6.875 0 000 6.875v30.25A6.875 6.875 0 006.875 44h30.25A6.875 6.875 0 0044 37.125V6.875A6.875 6.875 0 0037.125 0z" fill="#F00073"/><path d="M22 12.65h4.675c1.1 0 1.65.275 2.062.412.55.276.963.413 1.375.825.413.413.688.825.825 1.375.138.413.275.963.413 2.063v9.35c0 1.1-.275 1.65-.413 2.063-.275.55-.412.962-.825 1.375-.412.412-.825.687-1.375.825-.412.137-.962.274-2.062.412h-9.35c-1.1 0-1.65-.275-2.063-.413-.55-.274-.962-.412-1.375-.825-.412-.412-.687-.824-.825-1.374-.137-.413-.275-.963-.412-2.063v-9.35c0-1.1.275-1.65.412-2.063.275-.55.413-.962.825-1.375.413-.412.825-.687 1.375-.825.413-.137.963-.274 2.063-.412H22zm0-2.063h-4.675c-1.238 0-2.063.276-2.75.55a6.004 6.004 0 00-2.063 1.375c-.687.688-.962 1.238-1.375 2.063-.275.688-.412 1.512-.55 2.75v9.35c0 1.238.275 2.063.55 2.75a6.004 6.004 0 001.375 2.063c.688.687 1.238.962 2.063 1.374.687.276 1.512.413 2.75.55h9.35c1.237 0 2.062-.274 2.75-.55a6.004 6.004 0 002.062-1.375c.688-.687.963-1.237 1.375-2.062.275-.688.413-1.512.55-2.75v-9.35c0-1.238-.275-2.063-.55-2.75a6.004 6.004 0 00-1.375-2.063c-.687-.687-1.237-.962-2.062-1.375-.688-.274-1.513-.412-2.75-.55H22z" fill="#fff"/><path d="M22 16.087A5.869 5.869 0 0016.087 22 5.87 5.87 0 0022 27.913c3.3 0 5.912-2.613 5.912-5.913 0-3.3-2.612-5.913-5.912-5.913zm0 9.763c-2.063 0-3.85-1.65-3.85-3.85 0-2.063 1.65-3.85 3.85-3.85 2.062 0 3.85 1.65 3.85 3.85 0 2.063-1.788 3.85-3.85 3.85zm6.05-8.525a1.375 1.375 0 100-2.75 1.375 1.375 0 000 2.75z" fill="#fff"/></svg>