<svg width="172" height="50" fill="none" xmlns="http://www.w3.org/2000/svg"><path d="M171.044 43.913c0 2.645-2.189 4.788-4.897 4.788H5.86c-2.707 0-4.904-2.143-4.904-4.788V5.731C.956 3.087 3.153.937 5.86.937h160.285c2.71 0 4.898 2.15 4.898 4.794l.001 38.182z" fill="#0E0E0E"/><path d="M165.63.994c2.949 0 5.349 2.338 5.349 5.21v37.229c0 2.873-2.4 5.21-5.349 5.21H6.37c-2.95 0-5.35-2.337-5.35-5.21V6.205c0-2.873 2.4-5.21 5.35-5.21h159.26zm0-.994H6.37C2.868 0 0 2.794 0 6.205v37.228c0 3.41 2.868 6.205 6.37 6.205h159.26c3.502 0 6.37-2.794 6.37-6.205V6.205C172 2.794 169.132 0 165.63 0z" fill="#AEAEAE"/><path d="M38.385 24.55c-.037-3.999 3.363-5.945 3.518-6.035-1.925-2.734-4.909-3.108-5.957-3.137-2.507-.257-4.938 1.46-6.214 1.46-1.302 0-3.268-1.436-5.387-1.393-2.726.04-5.277 1.578-6.676 3.966-2.887 4.868-.734 12.022 2.032 15.957 1.384 1.927 3 4.079 5.117 4.003 2.07-.083 2.843-1.285 5.342-1.285 2.475 0 3.202 1.285 5.36 1.237 2.222-.035 3.62-1.936 4.956-3.88 1.599-2.21 2.241-4.385 2.267-4.496-.053-.018-4.316-1.603-4.358-6.396zm-4.077-11.761c1.114-1.356 1.876-3.202 1.664-5.074-1.611.07-3.627 1.086-4.788 2.412-1.027 1.17-1.944 3.085-1.707 4.887 1.81.132 3.67-.89 4.831-2.225zm28.185-.369c0 1.461-.45 2.56-1.348 3.3-.832.68-2.014 1.022-3.545 1.022-.76 0-1.41-.033-1.953-.097v-7.98a14.79 14.79 0 012.3-.17c1.458 0 2.557.31 3.299.928.83.698 1.247 1.697 1.247 2.998zm-1.407.037c0-.947-.258-1.673-.773-2.18-.514-.504-1.266-.758-2.256-.758a5.8 5.8 0 00-1.075.085v6.067a7.4 7.4 0 00.902.036c1.022 0 1.81-.277 2.366-.83.555-.554.836-1.36.836-2.42zm8.872 1.239c0 .9-.263 1.637-.791 2.215-.553.595-1.285.891-2.2.891-.882 0-1.584-.284-2.108-.855-.522-.57-.783-1.288-.783-2.154 0-.906.269-1.65.809-2.226.54-.577 1.266-.866 2.181-.866.882 0 1.59.284 2.126.853.51.554.766 1.269.766 2.142zm-1.385.043c0-.54-.12-1.003-.358-1.39-.28-.466-.679-.699-1.197-.699-.537 0-.944.233-1.225.7-.24.386-.358.856-.358 1.412 0 .54.12 1.003.358 1.389.29.466.692.7 1.212.7.51 0 .91-.237 1.198-.713.247-.393.37-.86.37-1.4zm11.394-2.919l-1.879 5.85h-1.223l-.778-2.54a18.611 18.611 0 01-.483-1.89h-.025a13.55 13.55 0 01-.482 1.89l-.827 2.54h-1.237l-1.768-5.85h1.373l.679 2.78c.164.659.299 1.285.407 1.878h.025c.099-.489.263-1.112.495-1.865l.853-2.792h1.088L77 13.554c.198.666.358 1.308.482 1.926h.037c.09-.602.227-1.244.407-1.926l.73-2.733h1.31v-.001zm6.923 5.85h-1.336v-3.351c0-1.033-.403-1.549-1.21-1.549-.396 0-.716.142-.965.426-.246.284-.37.62-.37 1.002v3.47h-1.336v-4.177c0-.514-.016-1.07-.048-1.674h1.173l.063.915h.037a1.9 1.9 0 01.692-.706 2.302 2.302 0 011.21-.33c.56 0 1.027.177 1.398.53.46.434.691 1.08.691 1.939v3.504zm3.682 0h-1.335V8.134h1.335v8.534zm7.861-2.974c0 .9-.264 1.637-.792 2.215-.553.595-1.287.891-2.2.891-.883 0-1.585-.284-2.107-.855-.523-.57-.784-1.288-.784-2.154 0-.906.269-1.65.81-2.226.54-.577 1.266-.866 2.179-.866.883 0 1.59.284 2.128.853.51.554.766 1.269.766 2.142zm-1.387.043c0-.54-.12-1.003-.358-1.39-.279-.466-.679-.699-1.196-.699-.538 0-.946.233-1.225.7-.239.386-.358.856-.358 1.412 0 .54.12 1.003.358 1.389.29.466.692.7 1.212.7.51 0 .909-.237 1.197-.713.248-.393.37-.86.37-1.4zm7.849 2.931h-1.199l-.1-.674h-.037c-.41.537-.995.806-1.754.806-.567 0-1.026-.177-1.371-.53a1.64 1.64 0 01-.47-1.19c0-.716.306-1.26.921-1.638.614-.377 1.478-.562 2.59-.553v-.11c0-.77-.415-1.155-1.247-1.155-.593 0-1.115.146-1.566.434l-.271-.854c.558-.336 1.247-.505 2.06-.505 1.57 0 2.357.806 2.357 2.42v2.154c0 .584.029 1.05.087 1.395zm-1.387-2.01v-.903c-1.472-.025-2.209.369-2.209 1.179 0 .305.084.534.256.686a.949.949 0 00.653.229c.293 0 .566-.091.816-.27a1.11 1.11 0 00.484-.922zm8.974 2.01h-1.185l-.063-.94h-.037c-.378.715-1.023 1.072-1.929 1.072a2.284 2.284 0 01-1.804-.83c-.477-.553-.716-1.272-.716-2.154 0-.947.259-1.714.779-2.3.503-.546 1.12-.819 1.854-.819.806 0 1.37.265 1.691.794h.026V8.136h1.336v6.957c0 .57.016 1.095.048 1.576zm-1.384-2.468v-.975c0-.169-.013-.305-.037-.41a1.473 1.473 0 00-.483-.787 1.333 1.333 0 00-.893-.32c-.498 0-.888.193-1.175.579-.284.386-.428.879-.428 1.48 0 .579.137 1.048.41 1.409.29.384.68.577 1.168.577.438 0 .788-.16 1.054-.482.258-.296.384-.654.384-1.07zm12.803-.506c0 .9-.264 1.637-.791 2.215-.553.595-1.284.891-2.2.891-.881 0-1.583-.284-2.108-.855-.522-.57-.783-1.288-.783-2.154 0-.906.269-1.65.809-2.226.54-.577 1.266-.866 2.182-.866.881 0 1.59.284 2.125.853.51.554.766 1.269.766 2.142zm-1.383.043c0-.54-.12-1.003-.358-1.39-.282-.466-.68-.699-1.199-.699-.535 0-.943.233-1.225.7-.239.386-.358.856-.358 1.412 0 .54.12 1.003.358 1.389.289.466.692.7 1.212.7.51 0 .911-.237 1.199-.713.246-.393.371-.86.371-1.4zm8.563 2.931h-1.334v-3.351c0-1.033-.403-1.549-1.212-1.549-.396 0-.716.142-.963.426-.247.284-.371.62-.371 1.002v3.47h-1.336v-4.177c0-.514-.016-1.07-.048-1.674h1.173l.062.915h.037c.157-.284.388-.519.692-.706a2.306 2.306 0 011.211-.33c.56 0 1.026.177 1.397.53.462.434.692 1.08.692 1.939v3.504zm8.986-4.876h-1.471v2.841c0 .723.262 1.084.779 1.084.239 0 .438-.02.595-.06l.034.986c-.263.096-.61.145-1.037.145-.527 0-.938-.156-1.234-.47-.299-.312-.446-.838-.446-1.577v-2.95h-.878v-.973h.878V9.747l1.308-.384v1.455h1.47v.976h.002zm7.068 4.876h-1.336v-3.326c0-1.049-.403-1.574-1.209-1.574-.62 0-1.043.304-1.274.912-.04.128-.063.284-.063.468v3.518h-1.334V8.136h1.334v3.525h.026c.42-.642 1.023-.962 1.804-.962.553 0 1.01.177 1.373.53.452.44.679 1.096.679 1.962v3.478zm7.292-3.202c0 .233-.018.43-.05.59h-4.004c.017.578.209 1.018.579 1.323.339.274.776.41 1.311.41a4.53 4.53 0 001.62-.277l.209.904c-.57.24-1.24.36-2.016.36-.93 0-1.663-.266-2.193-.8-.532-.533-.796-1.25-.796-2.148 0-.882.246-1.617.742-2.202.517-.626 1.216-.938 2.099-.938.864 0 1.52.312 1.964.938.358.496.535 1.11.535 1.84zm-1.274-.336a1.717 1.717 0 00-.259-1c-.232-.36-.585-.542-1.063-.542a1.28 1.28 0 00-1.062.53 1.933 1.933 0 00-.396 1.012h2.78zM68.348 39.094h-2.894l-1.585-4.85H58.36l-1.51 4.85h-2.817l5.459-16.514h3.37l5.486 16.514zm-4.956-6.886l-1.434-4.312c-.151-.44-.435-1.478-.855-3.11h-.05c-.168.702-.436 1.739-.806 3.11L58.84 32.21h4.553zm18.992.786c0 2.025-.562 3.626-1.685 4.801-1.007 1.047-2.257 1.569-3.749 1.569-1.61 0-2.767-.563-3.472-1.69h-.05v6.273H70.71v-12.84c0-1.273-.034-2.58-.1-3.92h2.388l.152 1.887h.05c.907-1.422 2.282-2.132 4.126-2.132 1.443 0 2.647.555 3.61 1.666.966 1.111 1.447 2.573 1.447 4.386zm-2.767.097c0-1.159-.268-2.115-.805-2.867-.588-.784-1.376-1.176-2.365-1.176-.67 0-1.28.218-1.823.649a3 3 0 00-1.07 1.704 3.38 3.38 0 00-.125.806v1.986c0 .866.272 1.597.818 2.194.545.597 1.253.895 2.125.895 1.023 0 1.82-.385 2.389-1.152.57-.768.856-1.78.856-3.039zm16.829-.097c0 2.025-.562 3.626-1.687 4.801-1.005 1.047-2.255 1.569-3.747 1.569-1.61 0-2.767-.563-3.47-1.69h-.051v6.273h-2.717v-12.84c0-1.273-.034-2.58-.1-3.92h2.389l.151 1.887h.051c.905-1.422 2.28-2.132 4.126-2.132 1.44 0 2.645.555 3.61 1.666.962 1.111 1.445 2.573 1.445 4.386zm-2.767.097c0-1.159-.269-2.115-.807-2.867-.587-.784-1.373-1.176-2.363-1.176-.671 0-1.28.218-1.825.649a2.998 2.998 0 00-1.067 1.704 3.447 3.447 0 00-.126.806v1.986c0 .866.272 1.597.815 2.194.545.596 1.254.895 2.128.895 1.023 0 1.82-.385 2.389-1.152.57-.768.856-1.78.856-3.039zm18.489 1.372c0 1.405-.5 2.548-1.506 3.43-1.104.965-2.642 1.446-4.618 1.446-1.825 0-3.287-.343-4.394-1.029l.629-2.205a7.595 7.595 0 003.927 1.055c1.023 0 1.819-.226 2.391-.675.57-.45.854-1.053.854-1.804a2.27 2.27 0 00-.705-1.693c-.467-.458-1.248-.884-2.339-1.277-2.969-1.078-4.452-2.658-4.452-4.735 0-1.358.52-2.471 1.561-3.337 1.037-.868 2.421-1.3 4.151-1.3 1.543 0 2.825.261 3.848.783l-.679 2.157c-.956-.506-2.036-.76-3.245-.76-.956 0-1.703.23-2.238.687-.452.408-.679.906-.679 1.495 0 .653.259 1.193.779 1.617.452.392 1.274.817 2.466 1.275 1.459.572 2.531 1.24 3.22 2.008.687.764 1.029 1.72 1.029 2.862zm8.981-5.291h-2.994v5.782c0 1.47.528 2.205 1.585 2.205.485 0 .888-.041 1.207-.123l.075 2.009c-.535.195-1.24.293-2.113.293-1.072 0-1.911-.32-2.516-.956-.603-.637-.906-1.707-.906-3.21V29.17h-1.784v-1.986h1.784v-2.18l2.668-.785v2.965h2.994v1.988zm13.509 3.871c0 1.83-.538 3.333-1.61 4.508-1.125 1.21-2.619 1.813-4.48 1.813-1.794 0-3.222-.58-4.287-1.739-1.065-1.159-1.598-2.622-1.598-4.385 0-1.845.548-3.357 1.647-4.532 1.097-1.176 2.578-1.765 4.439-1.765 1.794 0 3.238.58 4.327 1.74 1.042 1.126 1.562 2.579 1.562 4.36zm-2.818.085c0-1.098-.241-2.04-.729-2.825-.569-.951-1.384-1.425-2.438-1.425-1.092 0-1.922.475-2.491 1.425-.488.786-.729 1.743-.729 2.875 0 1.098.241 2.04.729 2.824.587.95 1.408 1.425 2.466 1.425 1.037 0 1.852-.484 2.439-1.45.501-.8.753-1.752.753-2.849zm11.648-3.615a4.847 4.847 0 00-.857-.073c-.955 0-1.694.351-2.214 1.055-.452.62-.679 1.405-.679 2.351v6.249h-2.715l.025-8.158c0-1.373-.034-2.622-.102-3.75h2.366l.1 2.28h.075c.287-.784.739-1.414 1.358-1.887a3.342 3.342 0 011.963-.638c.251 0 .478.017.68.049v2.522zm12.148 3.064c0 .474-.032.874-.1 1.2h-8.149c.032 1.176.426 2.076 1.183 2.697.687.554 1.575.832 2.665.832 1.207 0 2.308-.187 3.297-.563l.426 1.837c-1.157.491-2.523.735-4.099.735-1.896 0-3.384-.543-4.467-1.629-1.08-1.086-1.621-2.544-1.621-4.373 0-1.796.503-3.291 1.511-4.484 1.054-1.273 2.48-1.91 4.274-1.91 1.762 0 3.096.637 4.002 1.91.717 1.012 1.078 2.263 1.078 3.748zm-2.59-.686c.017-.784-.16-1.462-.528-2.034-.47-.736-1.192-1.103-2.164-1.103-.889 0-1.611.358-2.163 1.078-.452.572-.721 1.258-.804 2.058h5.659z" fill="#fff"/></svg>