<svg width="172" height="51" fill="none" xmlns="http://www.w3.org/2000/svg"><path d="M165.63 50.275H6.37C2.868 50.275 0 47.481 0 44.07V6.842C0 3.432 2.868.638 6.37.638h159.26c3.502 0 6.37 2.793 6.37 6.204V44.07c0 3.411-2.868 6.205-6.37 6.205z" fill="#000"/><path d="M165.63 1.632c2.949 0 5.349 2.337 5.349 5.21V44.07c0 2.873-2.4 5.21-5.349 5.21H6.37c-2.95 0-5.35-2.337-5.35-5.21V6.842c0-2.873 2.4-5.21 5.35-5.21h159.26zm0-.994H6.37C2.868.638 0 3.43 0 6.842V44.07c0 3.411 2.868 6.205 6.37 6.205h159.26c3.502 0 6.37-2.794 6.37-6.205V6.842c0-3.41-2.868-6.204-6.37-6.204z" fill="#A6A6A6"/><path d="M12.34 9.993c-.375.382-.591.976-.591 1.745v27.443c0 .77.216 1.364.59 1.745l.093.084L28.22 25.638v-.363L12.43 9.903l-.092.09zm23.049 20.772l-5.257-5.127v-.363l5.263-5.127.118.067 6.234 3.455c1.779.98 1.779 2.593 0 3.58l-6.234 3.448-.124.067zm-.831.887l-5.382-5.24L13.295 41.88c.59.605 1.554.678 2.65.073l18.613-10.302zm0-12.392L15.945 8.96c-1.096-.6-2.06-.527-2.65.078l15.881 15.464 5.382-5.241z" fill="#fff"/><path d="M60.413 13.35c0 1.036-.318 1.865-.946 2.484-.721.734-1.66 1.103-2.812 1.103-1.1 0-2.04-.375-2.811-1.115-.772-.75-1.158-1.672-1.158-2.775s.386-2.024 1.158-2.769c.77-.746 1.71-1.122 2.81-1.122.549 0 1.071.11 1.57.315.497.207.901.486 1.194.83l-.666.655c-.51-.588-1.207-.878-2.097-.878a2.96 2.96 0 00-2.09.824c-.584.552-.877 1.267-.877 2.145 0 .878.293 1.6.877 2.151a2.987 2.987 0 002.09.824c.852 0 1.569-.28 2.134-.83.373-.364.584-.867.64-1.51h-2.774v-.896h3.701c.045.194.057.382.057.563zm5.872-3.11H62.81v2.36h3.134v.896H62.81v2.358h3.476v.914h-4.46v-7.44h4.46v.914zm4.145 6.527h-.985V10.24h-2.132v-.914h5.25v.914H70.43v6.526zm5.933 0v-7.44h.983v7.44h-.983zm5.338 0h-.976V10.24h-2.14v-.914h5.257v.914h-2.14v6.526zm12.082-.957c-.753.752-1.686 1.127-2.8 1.127-1.12 0-2.053-.375-2.806-1.128-.752-.75-1.126-1.672-1.126-2.762s.374-2.012 1.126-2.763c.753-.752 1.687-1.128 2.806-1.128 1.107 0 2.04.376 2.794 1.134.758.757 1.132 1.673 1.132 2.757 0 1.09-.374 2.012-1.126 2.762zm-4.878-.624c.567.557 1.257.836 2.078.836.816 0 1.512-.28 2.072-.836.566-.557.852-1.272.852-2.14 0-.866-.286-1.581-.852-2.138-.56-.557-1.256-.836-2.072-.836-.822 0-1.511.279-2.078.836-.565.557-.852 1.272-.852 2.139 0 .867.287 1.582.852 2.139zm7.385 1.581v-7.44h1.194l3.714 5.786h.043l-.043-1.43V9.327h.983v7.44h-1.026l-3.89-6.072h-.042l.043 1.437v4.635h-.976z" fill="#fff" stroke="#fff" stroke-width=".051" stroke-miterlimit="10"/><path d="M86.809 27.631c-2.992 0-5.437 2.218-5.437 5.279 0 3.036 2.445 5.277 5.437 5.277 2.999 0 5.444-2.241 5.444-5.277 0-3.06-2.445-5.279-5.444-5.279zm0 8.477c-1.642 0-3.055-1.32-3.055-3.198 0-1.903 1.413-3.2 3.055-3.2 1.642 0 3.061 1.297 3.061 3.2 0 1.878-1.419 3.198-3.061 3.198zm-11.863-8.477c-3 0-5.437 2.218-5.437 5.279 0 3.036 2.438 5.277 5.437 5.277 2.997 0 5.437-2.241 5.437-5.277 0-3.06-2.44-5.279-5.437-5.279zm0 8.477c-1.644 0-3.061-1.32-3.061-3.198 0-1.903 1.417-3.2 3.06-3.2S78 31.007 78 32.91c0 1.878-1.412 3.198-3.054 3.198zM60.829 29.25v2.243h5.5c-.162 1.253-.592 2.175-1.25 2.817-.804.776-2.054 1.637-4.25 1.637-3.384 0-6.034-2.66-6.034-5.957 0-3.296 2.65-5.957 6.034-5.957 1.83 0 3.161.697 4.144 1.6l1.623-1.58c-1.375-1.28-3.203-2.261-5.767-2.261-4.64 0-8.541 3.678-8.541 8.198 0 4.52 3.9 8.198 8.541 8.198 2.508 0 4.392-.8 5.873-2.302 1.518-1.478 1.991-3.557 1.991-5.235 0-.521-.044-1-.124-1.4h-7.74zm57.725 1.739c-.447-1.18-1.828-3.357-4.641-3.357-2.787 0-5.107 2.14-5.107 5.279 0 2.956 2.296 5.277 5.375 5.277a5.402 5.402 0 004.516-2.34l-1.847-1.198c-.616.878-1.456 1.46-2.669 1.46-1.206 0-2.071-.539-2.625-1.6l7.248-2.92-.25-.601zm-7.389 1.757c-.063-2.035 1.622-3.077 2.83-3.077.946 0 1.748.46 2.016 1.12l-4.846 1.957zm-5.892 5.12h2.383v-15.51h-2.383v15.51zm-3.901-9.058h-.08c-.535-.617-1.556-1.176-2.85-1.176-2.713 0-5.194 2.32-5.194 5.296 0 2.958 2.481 5.26 5.195 5.26 1.293 0 2.314-.563 2.849-1.2h.08v.758c0 2.018-1.107 3.102-2.892 3.102-1.456 0-2.36-1.024-2.732-1.885l-2.072.843c.597 1.399 2.179 3.12 4.803 3.12 2.794 0 5.151-1.6 5.151-5.495v-9.478h-2.258v.855zm-2.725 7.301c-1.642 0-3.017-1.338-3.017-3.181 0-1.86 1.375-3.217 3.017-3.217 1.618 0 2.893 1.357 2.893 3.217 0 1.843-1.275 3.181-2.893 3.181zm31.062-13.754h-5.699v15.512h2.376v-5.878h3.323c2.639 0 5.227-1.86 5.227-4.817s-2.595-4.817-5.227-4.817zm.062 7.477h-3.385v-5.32h3.385c1.774 0 2.787 1.436 2.787 2.66 0 1.2-1.013 2.66-2.787 2.66zm14.688-2.23c-1.717 0-3.502.74-4.236 2.376l2.109.86c.453-.86 1.288-1.14 2.17-1.14 1.233 0 2.483.722 2.502 1.995v.163c-.43-.242-1.35-.6-2.483-.6-2.271 0-4.585 1.217-4.585 3.49 0 2.079 1.86 3.417 3.951 3.417 1.599 0 2.482-.703 3.036-1.52h.081v1.199h2.295v-5.95c0-2.75-2.108-4.29-4.84-4.29zm-.286 8.501c-.778 0-1.861-.375-1.861-1.314 0-1.2 1.351-1.661 2.52-1.661 1.046 0 1.537.225 2.172.521-.186 1.437-1.455 2.454-2.831 2.454zm13.487-8.16l-2.731 6.724h-.081l-2.824-6.725h-2.562l4.242 9.398-2.421 5.229h2.483l6.538-14.627h-2.644zm-21.419 9.924h2.383V22.354h-2.383v15.512z" fill="#fff"/></svg>