<svg width="36" height="36" fill="none" xmlns="http://www.w3.org/2000/svg"><path d="M13.5 33h9C30 33 33 30 33 22.5v-9C33 6 30 3 22.5 3h-9C6 3 3 6 3 13.5v9C3 30 6 33 13.5 33z" stroke="#D9FF55" stroke-width="2" stroke-linecap="round" stroke-linejoin="round"/><path d="M23.355 27.752v-5.85m0-10.727V8.25m-.002 10.724a3.9 3.9 0 100-7.8 3.9 3.9 0 000 7.8zm-10.708 8.777v-2.925m0-10.726V8.25m-.003 16.577a3.9 3.9 0 100-7.8 3.9 3.9 0 000 7.8z" stroke="#D9FF55" stroke-width="2" stroke-miterlimit="10" stroke-linecap="round" stroke-linejoin="round"/></svg>