<svg width="36" height="36" fill="none" xmlns="http://www.w3.org/2000/svg"><path d="M5.25 30.75a3.178 3.178 0 004.5 0l19.5-19.5a3.178 3.178 0 000-4.5 3.178 3.178 0 00-4.5 0l-19.5 19.5a3.178 3.178 0 000 4.5zm21.765-17.265l-4.5-4.5" stroke="#D9FF55" stroke-width="2" stroke-linecap="round" stroke-linejoin="round"/><path d="M12.75 3.66L15 3l-.66 2.25L15 7.5l-2.25-.66-2.25.66.66-2.25L10.5 3l2.25.66zm-6 9L9 12l-.66 2.25L9 16.5l-2.25-.66-2.25.66.66-2.25L4.5 12l2.25.66zm22.5 7.5l2.25-.66-.66 2.25.66 2.25-2.25-.66L27 24l.66-2.25L27 19.5l2.25.66z" stroke="#D9FF55" stroke-width="1.5" stroke-linecap="round" stroke-linejoin="round"/></svg>