<svg width="60" height="48" fill="none" xmlns="http://www.w3.org/2000/svg"><path d="M29.442 25.33l-.002-.003c-.403-2.688-1.046-1.375-1.218 0-.172 1.373-.551 3.7-3.534 5.612-1.957 1.256-5.05 2.512-6.481 3.065-.444.17-.728.275-.766.288h5.805c.095 0 .176.072.221.18.02.047.033.101.036.158.008.168-.005.369-.082.517-.16.312-.752 1.898 0 2.889.705.928 1.686.394 2.009 0 .322-.395.594-1.65-.039-2.899a.978.978 0 01-.093-.534.47.47 0 01.03-.128c.044-.108.127-.18.223-.18 0 0 .575.098 1.17.18.428.06.865.11 1.11.11.14 0 .27.098.345.263.506 1.104.28 3.067.28 5.558 0 2.71-.637 3.376-.637 5.571 0 2.687 1.952 2.71 1.952 0 0-2.195-.638-2.86-.638-5.571 0-1.692-.104-3.273-.011-4.457.022-.132.144-.441.814-.441.851 0 2.1.111 2.883-.361.782-.472 1.486-.296 1.875-.443.388-.147 3.983.037 4.374-.186a1.51 1.51 0 01.09-.044c.423-.179 1.2-.18 1.2-.18s-6.698-2.494-7.996-3.115c-1.299-.623-2.518-3.164-2.92-5.85z" fill="#D9FF55"/><path d="M22.524 42.314c0 1.637 1.145 1.571 1.145 0 0-1.316-.573-2.556-.573-2.556s-.573 1.238-.573 2.556h.002zM16.133 11.3v18.147l5.456-18.146h-5.456zm22.938 8.305v-.003.003zm8.663-4.385c3.095-1.011 3.589-1.769 3.589-2.948v-.083c0-1.306-.549-2.486-3.698-2.486-3.672 0-3.863 2.655-3.945 4.003h-6.422l1.815 5.9c1.323-1.218 3.159-2.327 5.702-3.29l2.959-1.095zm-18.865-4.337l-3.096 10.702h6.247l-3.151-10.702z" fill="#D9FF55"/><path d="M1.366 3.842h22.093L24.837 0H0v34.175h8.764V11.302H1.366v-7.46zM32.992 0l3.318 10.641c.491-3.205 2.095-6.775 6.829-7.977l.25-.054a25.112 25.112 0 019.023.054h-.009c5.112 1.207 6.64 4.896 6.64 9.564v.337c0 5.813-2.848 8.13-9.505 9.605-1.068.21-2.192.506-3.095.8-3.945 1.011-4.547 1.979-4.547 2.654h16.74v7.207H42.677L43 34.228l17-.053V0H32.992z" fill="#D9FF55"/></svg>