<svg width="124" height="124" fill="none" xmlns="http://www.w3.org/2000/svg"><g filter="url(#filter0_b_2661_23626)"><rect width="124" height="124" rx="20" fill="#fff" fill-opacity=".1"/><path d="M33.905 14a1.17 1.17 0 110 2.341 1.17 1.17 0 010-2.341z" fill="#FBFBFB"/><path d="M36.245 14a1.17 1.17 0 110 2.341 1.17 1.17 0 010-2.341z" fill="#FBFBFB"/><path d="M38.585 14a1.17 1.17 0 110 2.341 1.17 1.17 0 010-2.341zm11.711 0a1.17 1.17 0 110 2.342 1.17 1.17 0 010-2.342z" fill="#FBFBFB"/><path d="M52.632 14a1.17 1.17 0 110 2.341 1.17 1.17 0 010-2.341zm11.711 0a1.17 1.17 0 110 2.341 1.17 1.17 0 010-2.341z" fill="#FBFBFB"/><path d="M66.686 14a1.17 1.17 0 110 2.341 1.17 1.17 0 010-2.341zm7.024 0a1.17 1.17 0 110 2.341 1.17 1.17 0 010-2.341zm4.68 0a1.17 1.17 0 110 2.341 1.17 1.17 0 010-2.341z" fill="#FBFBFB"/><path d="M80.73 14a1.17 1.17 0 110 2.341 1.17 1.17 0 010-2.341zm4.683 0a1.17 1.17 0 110 2.342 1.17 1.17 0 010-2.342z" fill="#FBFBFB"/><path d="M87.757 14a1.17 1.17 0 110 2.341 1.17 1.17 0 010-2.341zm-53.852 2.34a1.17 1.17 0 110 2.341 1.17 1.17 0 010-2.341z" fill="#FBFBFB"/><path d="M36.241 16.34a1.17 1.17 0 110 2.341 1.17 1.17 0 010-2.341zm7.023 0a1.17 1.17 0 110 2.341 1.17 1.17 0 010-2.341z" fill="#FBFBFB"/><path d="M45.608 16.34a1.17 1.17 0 110 2.341 1.17 1.17 0 010-2.341z" fill="#FBFBFB"/><path d="M47.952 16.34a1.17 1.17 0 110 2.341 1.17 1.17 0 010-2.341zm4.68 0a1.17 1.17 0 110 2.341 1.17 1.17 0 010-2.341z" fill="#FBFBFB"/><path d="M54.975 16.34a1.17 1.17 0 110 2.341 1.17 1.17 0 010-2.341zm4.68 0a1.17 1.17 0 110 2.341 1.17 1.17 0 010-2.341z" fill="#FBFBFB"/><path d="M61.999 16.34a1.17 1.17 0 110 2.341 1.17 1.17 0 010-2.341z" fill="#FBFBFB"/><path d="M64.343 16.34a1.17 1.17 0 110 2.341 1.17 1.17 0 010-2.341z" fill="#FBFBFB"/><path d="M66.686 16.34a1.17 1.17 0 110 2.341 1.17 1.17 0 010-2.341zm7.024 0a1.17 1.17 0 110 2.341 1.17 1.17 0 010-2.341z" fill="#FBFBFB"/><path d="M76.046 16.34a1.17 1.17 0 110 2.341 1.17 1.17 0 010-2.341z" fill="#FBFBFB"/><path d="M78.39 16.34a1.17 1.17 0 110 2.341 1.17 1.17 0 010-2.341zm4.687 0a1.17 1.17 0 110 2.341 1.17 1.17 0 010-2.341zm7.023 0a1.17 1.17 0 110 2.341 1.17 1.17 0 010-2.341zm-53.859 2.348a1.17 1.17 0 110 2.341 1.17 1.17 0 010-2.341z" fill="#FBFBFB"/><path d="M38.585 18.688a1.17 1.17 0 110 2.34 1.17 1.17 0 010-2.34z" fill="#FBFBFB"/><path d="M40.928 18.688a1.17 1.17 0 110 2.341 1.17 1.17 0 010-2.341z" fill="#FBFBFB"/><path d="M43.264 18.688a1.17 1.17 0 110 2.34 1.17 1.17 0 010-2.34z" fill="#FBFBFB"/><path d="M45.608 18.688a1.17 1.17 0 110 2.341 1.17 1.17 0 010-2.341zm4.688 0a1.17 1.17 0 110 2.341 1.17 1.17 0 010-2.341zm7.024 0a1.17 1.17 0 110 2.34 1.17 1.17 0 010-2.34z" fill="#FBFBFB"/><path d="M59.655 18.688a1.17 1.17 0 110 2.34 1.17 1.17 0 010-2.34z" fill="#FBFBFB"/><path d="M61.999 18.688a1.17 1.17 0 110 2.34 1.17 1.17 0 010-2.34zm4.687 0a1.17 1.17 0 110 2.34 1.17 1.17 0 010-2.34z" fill="#FBFBFB"/><path d="M69.022 18.688a1.17 1.17 0 110 2.34 1.17 1.17 0 010-2.34z" fill="#FBFBFB"/><path d="M71.366 18.688a1.17 1.17 0 110 2.341 1.17 1.17 0 010-2.341z" fill="#FBFBFB"/><path d="M73.71 18.688a1.17 1.17 0 110 2.34 1.17 1.17 0 010-2.34zm4.68 0a1.17 1.17 0 110 2.34 1.17 1.17 0 010-2.34zm4.687 0a1.17 1.17 0 110 2.34 1.17 1.17 0 010-2.34zm-49.172 2.335a1.17 1.17 0 110 2.342 1.17 1.17 0 010-2.342z" fill="#FBFBFB"/><path d="M36.245 21.023a1.17 1.17 0 110 2.342 1.17 1.17 0 010-2.342z" fill="#FBFBFB"/><path d="M38.585 21.024a1.17 1.17 0 110 2.341 1.17 1.17 0 010-2.341zm9.367-.001a1.17 1.17 0 110 2.342 1.17 1.17 0 010-2.342zm4.68 0a1.17 1.17 0 110 2.342 1.17 1.17 0 010-2.342z" fill="#FBFBFB"/><path d="M54.975 21.023a1.17 1.17 0 110 2.342 1.17 1.17 0 010-2.342zm7.024 0a1.17 1.17 0 110 2.342 1.17 1.17 0 010-2.342zm4.687 0a1.17 1.17 0 110 2.342 1.17 1.17 0 010-2.342zm4.68 0a1.17 1.17 0 110 2.342 1.17 1.17 0 010-2.342z" fill="#FBFBFB"/><path d="M73.71 21.023a1.17 1.17 0 110 2.342 1.17 1.17 0 010-2.342z" fill="#FBFBFB"/><path d="M76.046 21.023a1.17 1.17 0 110 2.342 1.17 1.17 0 010-2.342z" fill="#FBFBFB"/><path d="M78.39 21.023a1.17 1.17 0 110 2.342 1.17 1.17 0 010-2.342z" fill="#FBFBFB"/><path d="M80.73 21.024a1.17 1.17 0 110 2.341 1.17 1.17 0 010-2.341z" fill="#FBFBFB"/><path d="M83.077 21.023a1.17 1.17 0 110 2.342 1.17 1.17 0 010-2.342zm7.023 0a1.17 1.17 0 110 2.342 1.17 1.17 0 010-2.342zm-56.195 2.344a1.17 1.17 0 110 2.341 1.17 1.17 0 010-2.34z" fill="#FBFBFB"/><path d="M36.241 23.367a1.17 1.17 0 110 2.342 1.17 1.17 0 010-2.342z" fill="#FBFBFB"/><path d="M38.585 23.367a1.17 1.17 0 110 2.341 1.17 1.17 0 010-2.34zm7.023 0a1.17 1.17 0 110 2.342 1.17 1.17 0 010-2.342zm7.024 0a1.17 1.17 0 110 2.341 1.17 1.17 0 010-2.34z" fill="#FBFBFB"/><path d="M54.975 23.367a1.17 1.17 0 110 2.342 1.17 1.17 0 010-2.342zm7.024 0a1.17 1.17 0 110 2.341 1.17 1.17 0 010-2.34z" fill="#FBFBFB"/><path d="M64.343 23.367a1.17 1.17 0 110 2.341 1.17 1.17 0 010-2.34zm4.679 0a1.17 1.17 0 110 2.341 1.17 1.17 0 010-2.34zm4.688 0a1.17 1.17 0 110 2.341 1.17 1.17 0 010-2.34z" fill="#FBFBFB"/><path d="M76.046 23.367a1.17 1.17 0 110 2.342 1.17 1.17 0 010-2.342z" fill="#FBFBFB"/><path d="M78.39 23.367a1.17 1.17 0 110 2.341 1.17 1.17 0 010-2.34z" fill="#FBFBFB"/><path d="M80.73 23.367a1.17 1.17 0 110 2.342 1.17 1.17 0 010-2.342zm-46.825 2.336a1.17 1.17 0 110 2.342 1.17 1.17 0 010-2.342zm4.68 0a1.17 1.17 0 110 2.342 1.17 1.17 0 010-2.342z" fill="#FBFBFB"/><path d="M40.928 25.703a1.17 1.17 0 110 2.342 1.17 1.17 0 010-2.342zm4.68 0a1.17 1.17 0 110 2.342 1.17 1.17 0 010-2.342z" fill="#FBFBFB"/><path d="M47.952 25.703a1.17 1.17 0 110 2.342 1.17 1.17 0 010-2.342zm7.023 0a1.17 1.17 0 110 2.342 1.17 1.17 0 010-2.342zm14.047 0a1.17 1.17 0 110 2.342 1.17 1.17 0 010-2.342zm9.368 0a1.17 1.17 0 110 2.342 1.17 1.17 0 010-2.342zm9.367 0a1.17 1.17 0 110 2.342 1.17 1.17 0 010-2.342zM33.905 28.05a1.17 1.17 0 110 2.342 1.17 1.17 0 010-2.341zm4.68 0a1.17 1.17 0 110 2.342 1.17 1.17 0 010-2.341zm4.679 0a1.17 1.17 0 110 2.342 1.17 1.17 0 010-2.341zm4.688 0a1.17 1.17 0 110 2.342 1.17 1.17 0 010-2.341zm4.68 0a1.17 1.17 0 110 2.342 1.17 1.17 0 010-2.341zm4.688 0a1.17 1.17 0 110 2.342 1.17 1.17 0 010-2.341zm4.679 0a1.17 1.17 0 110 2.342 1.17 1.17 0 010-2.341zm4.687 0a1.17 1.17 0 110 2.342 1.17 1.17 0 010-2.341zm4.68 0a1.17 1.17 0 110 2.342 1.17 1.17 0 010-2.341zm4.68 0a1.17 1.17 0 110 2.342 1.17 1.17 0 010-2.341zm4.684 0a1.17 1.17 0 110 2.342 1.17 1.17 0 010-2.341zm4.683 0a1.17 1.17 0 110 2.342 1.17 1.17 0 010-2.341zm4.687 0a1.17 1.17 0 110 2.342 1.17 1.17 0 010-2.341zm-53.855 2.34a1.17 1.17 0 110 2.342 1.17 1.17 0 010-2.341z" fill="#FBFBFB"/><path d="M38.585 30.39a1.17 1.17 0 110 2.342 1.17 1.17 0 010-2.341zm7.023 0a1.17 1.17 0 110 2.342 1.17 1.17 0 010-2.341z" fill="#FBFBFB"/><path d="M47.952 30.39a1.17 1.17 0 110 2.342 1.17 1.17 0 010-2.341z" fill="#FBFBFB"/><path d="M50.296 30.39a1.17 1.17 0 110 2.342 1.17 1.17 0 010-2.341zm4.679 0a1.17 1.17 0 110 2.342 1.17 1.17 0 010-2.341zm4.68 0a1.17 1.17 0 110 2.342 1.17 1.17 0 010-2.341z" fill="#FBFBFB"/><path d="M61.999 30.39a1.17 1.17 0 110 2.342 1.17 1.17 0 010-2.341z" fill="#FBFBFB"/><path d="M64.343 30.39a1.17 1.17 0 110 2.342 1.17 1.17 0 010-2.341zm7.023 0a1.17 1.17 0 110 2.342 1.17 1.17 0 010-2.341z" fill="#FBFBFB"/><path d="M73.71 30.39a1.17 1.17 0 110 2.342 1.17 1.17 0 010-2.341zm4.68 0a1.17 1.17 0 110 2.342 1.17 1.17 0 010-2.341z" fill="#FBFBFB"/><path d="M80.73 30.39a1.17 1.17 0 110 2.342 1.17 1.17 0 010-2.341z" fill="#FBFBFB"/><path d="M83.077 30.39a1.17 1.17 0 110 2.342 1.17 1.17 0 010-2.341z" fill="#FBFBFB"/><path d="M85.413 30.39a1.17 1.17 0 110 2.342 1.17 1.17 0 010-2.341z" fill="#FBFBFB"/><path d="M87.757 30.39a1.17 1.17 0 110 2.342 1.17 1.17 0 010-2.341z" fill="#FBFBFB"/><path d="M90.1 30.39a1.17 1.17 0 110 2.342 1.17 1.17 0 010-2.341zm-67.906 2.344a1.17 1.17 0 110 2.342 1.17 1.17 0 010-2.342zm7.027 0a1.17 1.17 0 110 2.342 1.17 1.17 0 010-2.342zm7.02 0a1.17 1.17 0 110 2.342 1.17 1.17 0 010-2.342z" fill="#FBFBFB"/><path d="M38.585 32.734a1.17 1.17 0 110 2.342 1.17 1.17 0 010-2.342z" fill="#FBFBFB"/><path d="M40.928 32.734a1.17 1.17 0 110 2.342 1.17 1.17 0 010-2.342z" fill="#FBFBFB"/><path d="M43.264 32.734a1.17 1.17 0 110 2.342 1.17 1.17 0 010-2.342zm4.688 0a1.17 1.17 0 110 2.342 1.17 1.17 0 010-2.342z" fill="#FBFBFB"/><path d="M50.296 32.734a1.17 1.17 0 110 2.342 1.17 1.17 0 010-2.342z" fill="#FBFBFB"/><path d="M52.632 32.734a1.17 1.17 0 110 2.342 1.17 1.17 0 010-2.342z" fill="#FBFBFB"/><path d="M54.975 32.734a1.17 1.17 0 110 2.342 1.17 1.17 0 010-2.342zm4.68 0a1.17 1.17 0 110 2.342 1.17 1.17 0 010-2.342zm4.688 0a1.17 1.17 0 110 2.342 1.17 1.17 0 010-2.342z" fill="#FBFBFB"/><path d="M66.686 32.734a1.17 1.17 0 110 2.342 1.17 1.17 0 010-2.342zm4.68 0a1.17 1.17 0 110 2.342 1.17 1.17 0 010-2.342z" fill="#FBFBFB"/><path d="M73.71 32.734a1.17 1.17 0 110 2.342 1.17 1.17 0 010-2.342z" fill="#FBFBFB"/><path d="M76.046 32.734a1.17 1.17 0 110 2.342 1.17 1.17 0 010-2.342zm4.684 0a1.17 1.17 0 110 2.342 1.17 1.17 0 010-2.342zm7.027 0a1.17 1.17 0 110 2.342 1.17 1.17 0 010-2.342zm9.363 0a1.17 1.17 0 110 2.342 1.17 1.17 0 010-2.342z" fill="#FBFBFB"/><path d="M99.468 32.734a1.17 1.17 0 110 2.341 1.17 1.17 0 010-2.34z" fill="#FBFBFB"/><path d="M101.804 32.734a1.17 1.17 0 110 2.341 1.17 1.17 0 010-2.34zm4.683 0a1.17 1.17 0 110 2.342 1.17 1.17 0 010-2.342z" fill="#FBFBFB"/><path d="M108.827 32.734a1.17 1.17 0 110 2.342 1.17 1.17 0 010-2.342zM19.858 35.07a1.17 1.17 0 110 2.342 1.17 1.17 0 010-2.342zm4.68 0a1.17 1.17 0 110 2.342 1.17 1.17 0 010-2.342zm9.367 0a1.17 1.17 0 110 2.342 1.17 1.17 0 010-2.342zm4.68.004a1.17 1.17 0 110 2.342 1.17 1.17 0 010-2.342z" fill="#FBFBFB"/><path d="M40.928 35.07a1.17 1.17 0 110 2.342 1.17 1.17 0 010-2.342z" fill="#FBFBFB"/><path d="M43.264 35.07a1.17 1.17 0 110 2.342 1.17 1.17 0 010-2.342zm9.368.004a1.17 1.17 0 110 2.342 1.17 1.17 0 010-2.342zm4.688-.004a1.17 1.17 0 110 2.342 1.17 1.17 0 010-2.342zm4.679 0a1.17 1.17 0 110 2.342 1.17 1.17 0 010-2.342zm11.711.004a1.17 1.17 0 110 2.342 1.17 1.17 0 010-2.342z" fill="#FBFBFB"/><path d="M76.046 35.074a1.17 1.17 0 110 2.342 1.17 1.17 0 010-2.342zm4.684 0a1.17 1.17 0 110 2.342 1.17 1.17 0 010-2.342z" fill="#FBFBFB"/><path d="M83.077 35.074a1.17 1.17 0 110 2.342 1.17 1.17 0 010-2.342z" fill="#FBFBFB"/><path d="M85.413 35.074a1.17 1.17 0 110 2.342 1.17 1.17 0 010-2.342zm4.687 0a1.17 1.17 0 110 2.342 1.17 1.17 0 010-2.342zm4.68 0a1.17 1.17 0 110 2.342 1.17 1.17 0 010-2.342zm7.024-.004a1.17 1.17 0 11-.001 2.341 1.17 1.17 0 01.001-2.34z" fill="#FBFBFB"/><path d="M104.147 35.074a1.17 1.17 0 110 2.342 1.17 1.17 0 010-2.342zm4.68-.004a1.17 1.17 0 110 2.342 1.17 1.17 0 010-2.342zM15.17 37.414a1.17 1.17 0 110 2.342 1.17 1.17 0 010-2.342z" fill="#FBFBFB"/><path d="M17.51 37.414a1.17 1.17 0 110 2.341 1.17 1.17 0 010-2.34zm9.364 0a1.17 1.17 0 110 2.341 1.17 1.17 0 010-2.34z" fill="#FBFBFB"/><path d="M29.221 37.414a1.17 1.17 0 110 2.341 1.17 1.17 0 010-2.34zm9.364 0a1.17 1.17 0 110 2.341 1.17 1.17 0 010-2.34z" fill="#FBFBFB"/><path d="M40.928 37.414a1.17 1.17 0 110 2.342 1.17 1.17 0 010-2.342z" fill="#FBFBFB"/><path d="M43.264 37.414a1.17 1.17 0 110 2.341 1.17 1.17 0 010-2.34z" fill="#FBFBFB"/><path d="M45.608 37.414a1.17 1.17 0 110 2.342 1.17 1.17 0 010-2.342z" fill="#FBFBFB"/><path d="M47.952 37.414a1.17 1.17 0 110 2.341 1.17 1.17 0 010-2.34z" fill="#FBFBFB"/><path d="M50.296 37.414a1.17 1.17 0 110 2.342 1.17 1.17 0 010-2.342z" fill="#FBFBFB"/><path d="M52.632 37.414a1.17 1.17 0 110 2.341 1.17 1.17 0 010-2.34z" fill="#FBFBFB"/><path d="M54.975 37.414a1.17 1.17 0 110 2.342 1.17 1.17 0 010-2.342zm7.024 0a1.17 1.17 0 110 2.341 1.17 1.17 0 010-2.34z" fill="#FBFBFB"/><path d="M64.343 37.414a1.17 1.17 0 110 2.341 1.17 1.17 0 010-2.34z" fill="#FBFBFB"/><path d="M66.686 37.414a1.17 1.17 0 110 2.341 1.17 1.17 0 010-2.34z" fill="#FBFBFB"/><path d="M69.022 37.414a1.17 1.17 0 110 2.341 1.17 1.17 0 010-2.34zm18.735 0a1.17 1.17 0 110 2.341 1.17 1.17 0 010-2.34zm7.023 0a1.17 1.17 0 110 2.341 1.17 1.17 0 010-2.34z" fill="#FBFBFB"/><path d="M97.12 37.414a1.17 1.17 0 110 2.341 1.17 1.17 0 010-2.34z" fill="#FBFBFB"/><path d="M99.464 37.414a1.17 1.17 0 110 2.341 1.17 1.17 0 010-2.34z" fill="#FBFBFB"/><path d="M101.804 37.414a1.17 1.17 0 110 2.341 1.17 1.17 0 010-2.34z" fill="#FBFBFB"/><path d="M104.147 37.414a1.17 1.17 0 110 2.341 1.17 1.17 0 010-2.34zM15.17 39.758a1.17 1.17 0 110 2.341 1.17 1.17 0 010-2.341z" fill="#FBFBFB"/><path d="M17.51 39.758a1.17 1.17 0 110 2.341 1.17 1.17 0 010-2.341zm9.364 0a1.17 1.17 0 110 2.341 1.17 1.17 0 010-2.341zm4.687 0a1.17 1.17 0 110 2.341 1.17 1.17 0 010-2.341z" fill="#FBFBFB"/><path d="M33.905 39.758a1.17 1.17 0 110 2.341 1.17 1.17 0 010-2.341zm11.703 0a1.17 1.17 0 110 2.341 1.17 1.17 0 010-2.341z" fill="#FBFBFB"/><path d="M47.952 39.758a1.17 1.17 0 110 2.341 1.17 1.17 0 010-2.341z" fill="#FBFBFB"/><path d="M50.296 39.758a1.17 1.17 0 110 2.341 1.17 1.17 0 010-2.341zm9.359 0a1.17 1.17 0 110 2.341 1.17 1.17 0 010-2.341z" fill="#FBFBFB"/><path d="M61.999 39.758a1.17 1.17 0 110 2.341 1.17 1.17 0 010-2.341z" fill="#FBFBFB"/><path d="M64.343 39.758a1.17 1.17 0 110 2.341 1.17 1.17 0 010-2.341z" fill="#FBFBFB"/><path d="M66.686 39.758a1.17 1.17 0 110 2.341 1.17 1.17 0 010-2.341zm7.024 0a1.17 1.17 0 110 2.341 1.17 1.17 0 010-2.341zm7.02 0a1.17 1.17 0 110 2.341 1.17 1.17 0 010-2.341zm4.683 0a1.17 1.17 0 110 2.341 1.17 1.17 0 010-2.341zm14.055 0a1.17 1.17 0 110 2.341 1.17 1.17 0 010-2.341zm4.679 0a1.17 1.17 0 110 2.341 1.17 1.17 0 010-2.341z" fill="#FBFBFB"/><path d="M106.487 39.758a1.17 1.17 0 110 2.341 1.17 1.17 0 010-2.341z" fill="#FBFBFB"/><path d="M108.827 39.758a1.17 1.17 0 110 2.341 1.17 1.17 0 010-2.341zm-88.969 2.336a1.17 1.17 0 110 2.341 1.17 1.17 0 010-2.341zm4.68 0a1.17 1.17 0 110 2.341 1.17 1.17 0 010-2.341zm4.683 0a1.17 1.17 0 110 2.341 1.17 1.17 0 010-2.341z" fill="#FBFBFB"/><path d="M31.561 42.094a1.17 1.17 0 110 2.341 1.17 1.17 0 010-2.341zm7.024 0a1.17 1.17 0 110 2.341 1.17 1.17 0 010-2.341zm11.711 0a1.17 1.17 0 110 2.341 1.17 1.17 0 010-2.341zm7.024 0a1.17 1.17 0 110 2.341 1.17 1.17 0 010-2.341zm9.366 0a1.17 1.17 0 110 2.341 1.17 1.17 0 010-2.341zm4.68 0a1.17 1.17 0 110 2.341 1.17 1.17 0 010-2.341z" fill="#FBFBFB"/><path d="M73.71 42.094a1.17 1.17 0 110 2.341 1.17 1.17 0 010-2.341zm4.68 0a1.17 1.17 0 110 2.341 1.17 1.17 0 010-2.341zm4.687 0a1.17 1.17 0 110 2.341 1.17 1.17 0 010-2.341zm4.68 0a1.17 1.17 0 110 2.341 1.17 1.17 0 010-2.341z" fill="#FBFBFB"/><path d="M90.1 42.094a1.17 1.17 0 110 2.341 1.17 1.17 0 010-2.341zm4.68 0a1.17 1.17 0 110 2.341 1.17 1.17 0 010-2.341zm7.024 0a1.17 1.17 0 110 2.34 1.17 1.17 0 010-2.34zm4.683 0a1.17 1.17 0 110 2.341 1.17 1.17 0 010-2.341z" fill="#FBFBFB"/><path d="M108.827 42.094a1.17 1.17 0 110 2.341 1.17 1.17 0 010-2.341zM15.17 44.438a1.17 1.17 0 110 2.341 1.17 1.17 0 010-2.342z" fill="#FBFBFB"/><path d="M17.51 44.438a1.17 1.17 0 110 2.34 1.17 1.17 0 010-2.34zm18.731 0a1.17 1.17 0 110 2.341 1.17 1.17 0 010-2.342zm7.023 0a1.17 1.17 0 110 2.34 1.17 1.17 0 010-2.34z" fill="#FBFBFB"/><path d="M45.608 44.438a1.17 1.17 0 110 2.341 1.17 1.17 0 010-2.342zm4.688 0a1.17 1.17 0 110 2.341 1.17 1.17 0 010-2.342z" fill="#FBFBFB"/><path d="M52.632 44.438a1.17 1.17 0 110 2.34 1.17 1.17 0 010-2.34zm4.688 0a1.17 1.17 0 110 2.34 1.17 1.17 0 010-2.34z" fill="#FBFBFB"/><path d="M59.655 44.438a1.17 1.17 0 110 2.34 1.17 1.17 0 010-2.34zm4.688 0a1.17 1.17 0 110 2.34 1.17 1.17 0 010-2.34z" fill="#FBFBFB"/><path d="M66.686 44.438a1.17 1.17 0 110 2.34 1.17 1.17 0 010-2.34z" fill="#FBFBFB"/><path d="M69.022 44.438a1.17 1.17 0 110 2.34 1.17 1.17 0 010-2.34z" fill="#FBFBFB"/><path d="M71.366 44.438a1.17 1.17 0 110 2.341 1.17 1.17 0 010-2.342z" fill="#FBFBFB"/><path d="M73.71 44.438a1.17 1.17 0 110 2.34 1.17 1.17 0 010-2.34zm4.68 0a1.17 1.17 0 110 2.34 1.17 1.17 0 010-2.34z" fill="#FBFBFB"/><path d="M80.73 44.438a1.17 1.17 0 110 2.341 1.17 1.17 0 010-2.342z" fill="#FBFBFB"/><path d="M83.077 44.438a1.17 1.17 0 110 2.34 1.17 1.17 0 010-2.34z" fill="#FBFBFB"/><path d="M85.413 44.438a1.17 1.17 0 110 2.341 1.17 1.17 0 010-2.342zm4.687 0a1.17 1.17 0 110 2.341 1.17 1.17 0 010-2.342z" fill="#FBFBFB"/><path d="M92.436 44.438a1.17 1.17 0 110 2.34 1.17 1.17 0 010-2.34z" fill="#FBFBFB"/><path d="M94.78 44.438a1.17 1.17 0 110 2.34 1.17 1.17 0 010-2.34zm11.707 0a1.17 1.17 0 110 2.34 1.17 1.17 0 010-2.34zM15.17 46.781a1.17 1.17 0 110 2.342 1.17 1.17 0 010-2.342z" fill="#FBFBFB"/><path d="M17.51 46.781a1.17 1.17 0 110 2.342 1.17 1.17 0 010-2.342zm7.028 0a1.17 1.17 0 110 2.342 1.17 1.17 0 010-2.342zm4.683 0a1.17 1.17 0 110 2.342 1.17 1.17 0 010-2.342z" fill="#FBFBFB"/><path d="M31.561 46.781a1.17 1.17 0 110 2.341 1.17 1.17 0 010-2.341z" fill="#FBFBFB"/><path d="M33.905 46.781a1.17 1.17 0 110 2.342 1.17 1.17 0 010-2.342zm7.023 0a1.17 1.17 0 110 2.342 1.17 1.17 0 010-2.342zm11.704 0a1.17 1.17 0 110 2.342 1.17 1.17 0 010-2.342z" fill="#FBFBFB"/><path d="M54.975 46.781a1.17 1.17 0 110 2.342 1.17 1.17 0 010-2.342zm4.68 0a1.17 1.17 0 110 2.342 1.17 1.17 0 010-2.342zm16.391 0a1.17 1.17 0 110 2.342 1.17 1.17 0 010-2.342zm7.031 0a1.17 1.17 0 110 2.342 1.17 1.17 0 010-2.342zm4.68 0a1.17 1.17 0 110 2.342 1.17 1.17 0 010-2.342zm7.023 0a1.17 1.17 0 110 2.342 1.17 1.17 0 010-2.342z" fill="#FBFBFB"/><path d="M97.12 46.781a1.17 1.17 0 110 2.342 1.17 1.17 0 010-2.342zm9.367 0a1.17 1.17 0 110 2.341 1.17 1.17 0 010-2.341z" fill="#FBFBFB"/><path d="M108.827 46.781a1.17 1.17 0 110 2.342 1.17 1.17 0 010-2.342zm-86.633 2.344a1.17 1.17 0 110 2.341 1.17 1.17 0 010-2.341z" fill="#FBFBFB"/><path d="M24.538 49.125a1.17 1.17 0 110 2.342 1.17 1.17 0 010-2.342z" fill="#FBFBFB"/><path d="M26.874 49.125a1.17 1.17 0 110 2.341 1.17 1.17 0 010-2.341zm9.367 0a1.17 1.17 0 110 2.342 1.17 1.17 0 010-2.342zm7.023 0a1.17 1.17 0 110 2.341 1.17 1.17 0 010-2.341z" fill="#FBFBFB"/><path d="M45.608 49.125a1.17 1.17 0 110 2.342 1.17 1.17 0 010-2.342z" fill="#FBFBFB"/><path d="M47.952 49.125a1.17 1.17 0 110 2.341 1.17 1.17 0 010-2.341zm4.68 0a1.17 1.17 0 110 2.341 1.17 1.17 0 010-2.341zm14.054 0a1.17 1.17 0 110 2.341 1.17 1.17 0 010-2.341zm4.68 0a1.17 1.17 0 110 2.342 1.17 1.17 0 010-2.342z" fill="#FBFBFB"/><path d="M73.71 49.125a1.17 1.17 0 110 2.341 1.17 1.17 0 010-2.341z" fill="#FBFBFB"/><path d="M76.046 49.125a1.17 1.17 0 110 2.342 1.17 1.17 0 010-2.342z" fill="#FBFBFB"/><path d="M78.39 49.125a1.17 1.17 0 110 2.341 1.17 1.17 0 010-2.341zm4.687 0a1.17 1.17 0 110 2.341 1.17 1.17 0 010-2.341zm7.023 0a1.17 1.17 0 110 2.342 1.17 1.17 0 010-2.342zm4.68 0a1.17 1.17 0 110 2.341 1.17 1.17 0 010-2.341zm4.688 0a1.17 1.17 0 110 2.341 1.17 1.17 0 010-2.341zm9.359 0a1.17 1.17 0 110 2.341 1.17 1.17 0 010-2.341zM15.17 51.46a1.17 1.17 0 110 2.343 1.17 1.17 0 010-2.342zm7.024 0a1.17 1.17 0 110 2.342 1.17 1.17 0 010-2.341z" fill="#FBFBFB"/><path d="M24.538 51.46a1.17 1.17 0 110 2.343 1.17 1.17 0 010-2.342z" fill="#FBFBFB"/><path d="M26.874 51.46a1.17 1.17 0 110 2.342 1.17 1.17 0 010-2.341z" fill="#FBFBFB"/><path d="M29.221 51.46a1.17 1.17 0 110 2.342 1.17 1.17 0 010-2.341z" fill="#FBFBFB"/><path d="M31.561 51.46a1.17 1.17 0 110 2.342 1.17 1.17 0 010-2.341z" fill="#FBFBFB"/><path d="M33.905 51.46a1.17 1.17 0 110 2.342 1.17 1.17 0 010-2.341z" fill="#FBFBFB"/><path d="M36.241 51.46a1.17 1.17 0 110 2.343 1.17 1.17 0 010-2.342z" fill="#FBFBFB"/><path d="M38.585 51.46a1.17 1.17 0 110 2.342 1.17 1.17 0 010-2.341zm4.679 0a1.17 1.17 0 110 2.342 1.17 1.17 0 010-2.341zm7.032 0a1.17 1.17 0 110 2.343 1.17 1.17 0 010-2.342z" fill="#FBFBFB"/><path d="M52.632 51.46a1.17 1.17 0 110 2.342 1.17 1.17 0 010-2.341zm7.023 0a1.17 1.17 0 110 2.342 1.17 1.17 0 010-2.341zm4.688 0a1.17 1.17 0 110 2.342 1.17 1.17 0 010-2.341z" fill="#FBFBFB"/><path d="M66.686 51.46a1.17 1.17 0 110 2.342 1.17 1.17 0 010-2.341z" fill="#FBFBFB"/><path d="M69.022 51.46a1.17 1.17 0 110 2.342 1.17 1.17 0 010-2.341zm4.688 0a1.17 1.17 0 110 2.342 1.17 1.17 0 010-2.341zm7.02 0a1.17 1.17 0 110 2.343 1.17 1.17 0 010-2.342z" fill="#FBFBFB"/><path d="M83.077 51.46a1.17 1.17 0 110 2.342 1.17 1.17 0 010-2.341z" fill="#FBFBFB"/><path d="M85.413 51.46a1.17 1.17 0 110 2.343 1.17 1.17 0 010-2.342zm4.687 0a1.17 1.17 0 110 2.343 1.17 1.17 0 010-2.342zm7.02 0a1.17 1.17 0 110 2.342 1.17 1.17 0 010-2.341zm4.684 0a1.17 1.17 0 11-.001 2.342 1.17 1.17 0 01.001-2.341zm4.683 0a1.17 1.17 0 110 2.342 1.17 1.17 0 010-2.341z" fill="#FBFBFB"/><path d="M108.827 51.46a1.17 1.17 0 110 2.342 1.17 1.17 0 010-2.341zM17.51 53.805a1.17 1.17 0 110 2.341 1.17 1.17 0 010-2.341zm18.731 0a1.17 1.17 0 110 2.341 1.17 1.17 0 010-2.341zm4.687 0a1.17 1.17 0 110 2.341 1.17 1.17 0 010-2.341z" fill="#FBFBFB"/><path d="M43.264 53.805a1.17 1.17 0 110 2.341 1.17 1.17 0 010-2.341z" fill="#FBFBFB"/><path d="M45.608 53.805a1.17 1.17 0 110 2.341 1.17 1.17 0 010-2.341z" fill="#FBFBFB"/><path d="M47.952 53.805a1.17 1.17 0 110 2.341 1.17 1.17 0 010-2.341zm4.68 0a1.17 1.17 0 110 2.341 1.17 1.17 0 010-2.341zm4.688 0a1.17 1.17 0 110 2.341 1.17 1.17 0 010-2.341z" fill="#FBFBFB"/><path d="M59.655 53.805a1.17 1.17 0 110 2.341 1.17 1.17 0 010-2.341z" fill="#FBFBFB"/><path d="M61.999 53.805a1.17 1.17 0 110 2.341 1.17 1.17 0 010-2.341z" fill="#FBFBFB"/><path d="M64.343 53.805a1.17 1.17 0 110 2.341 1.17 1.17 0 010-2.341zm7.023 0a1.17 1.17 0 110 2.341 1.17 1.17 0 010-2.341zm4.68 0a1.17 1.17 0 110 2.341 1.17 1.17 0 010-2.341zm7.031 0a1.17 1.17 0 110 2.341 1.17 1.17 0 010-2.341z" fill="#FBFBFB"/><path d="M85.413 53.805a1.17 1.17 0 110 2.341 1.17 1.17 0 010-2.341zm9.367 0a1.17 1.17 0 110 2.341 1.17 1.17 0 010-2.341z" fill="#FBFBFB"/><path d="M97.12 53.805a1.17 1.17 0 110 2.341 1.17 1.17 0 010-2.341zm4.684 0a1.17 1.17 0 110 2.34 1.17 1.17 0 010-2.34zm7.023 0a1.17 1.17 0 110 2.341 1.17 1.17 0 010-2.341zM15.17 56.148a1.17 1.17 0 110 2.342 1.17 1.17 0 010-2.342z" fill="#FBFBFB"/><path d="M17.51 56.148a1.17 1.17 0 110 2.342 1.17 1.17 0 010-2.342zm11.711 0a1.17 1.17 0 110 2.342 1.17 1.17 0 010-2.342zm4.684 0a1.17 1.17 0 110 2.342 1.17 1.17 0 010-2.342zm4.68 0a1.17 1.17 0 110 2.342 1.17 1.17 0 010-2.342zm7.023 0a1.17 1.17 0 110 2.342 1.17 1.17 0 010-2.342zm4.688 0a1.17 1.17 0 110 2.342 1.17 1.17 0 010-2.342z" fill="#FBFBFB"/><path d="M52.632 56.148a1.17 1.17 0 110 2.342 1.17 1.17 0 010-2.342zm14.054 0a1.17 1.17 0 110 2.342 1.17 1.17 0 010-2.342z" fill="#FBFBFB"/><path d="M69.022 56.148a1.17 1.17 0 110 2.342 1.17 1.17 0 010-2.342zm7.024 0a1.17 1.17 0 110 2.342 1.17 1.17 0 010-2.342zm4.684 0a1.17 1.17 0 110 2.342 1.17 1.17 0 010-2.342z" fill="#FBFBFB"/><path d="M83.077 56.148a1.17 1.17 0 110 2.342 1.17 1.17 0 010-2.342zm11.703 0a1.17 1.17 0 110 2.342 1.17 1.17 0 010-2.342zm4.688 0a1.17 1.17 0 110 2.342 1.17 1.17 0 010-2.342z" fill="#FBFBFB"/><path d="M101.804 56.148a1.17 1.17 0 11-.001 2.341 1.17 1.17 0 01.001-2.34z" fill="#FBFBFB"/><path d="M104.147 56.148a1.17 1.17 0 110 2.342 1.17 1.17 0 010-2.342z" fill="#FBFBFB"/><path d="M106.487 56.148a1.17 1.17 0 110 2.342 1.17 1.17 0 010-2.342z" fill="#FBFBFB"/><path d="M108.827 56.148a1.17 1.17 0 110 2.342 1.17 1.17 0 010-2.342zm-93.657 2.34a1.17 1.17 0 110 2.342 1.17 1.17 0 010-2.342zm4.688-.004a1.17 1.17 0 110 2.342 1.17 1.17 0 010-2.342z" fill="#FBFBFB"/><path d="M22.194 58.488a1.17 1.17 0 110 2.342 1.17 1.17 0 010-2.342zm4.68-.004a1.17 1.17 0 110 2.342 1.17 1.17 0 010-2.342zm11.711.004a1.17 1.17 0 110 2.342 1.17 1.17 0 010-2.342z" fill="#FBFBFB"/><path d="M40.928 58.484a1.17 1.17 0 110 2.342 1.17 1.17 0 010-2.342zm7.024 0a1.17 1.17 0 110 2.342 1.17 1.17 0 010-2.342zm18.734 0a1.17 1.17 0 110 2.342 1.17 1.17 0 010-2.342zm11.704 0a1.17 1.17 0 110 2.342 1.17 1.17 0 010-2.342zm9.367 0a1.17 1.17 0 110 2.342 1.17 1.17 0 010-2.342z" fill="#FBFBFB"/><path d="M90.1 58.484a1.17 1.17 0 110 2.342 1.17 1.17 0 010-2.342zm7.02.004a1.17 1.17 0 110 2.342 1.17 1.17 0 010-2.342zm4.684-.004a1.17 1.17 0 110 2.341 1.17 1.17 0 010-2.34zm4.683 0a1.17 1.17 0 110 2.342 1.17 1.17 0 010-2.342z" fill="#FBFBFB"/><path d="M108.827 58.484a1.17 1.17 0 110 2.342 1.17 1.17 0 010-2.342zm-88.969 2.344a1.17 1.17 0 110 2.342 1.17 1.17 0 010-2.342zm9.363 0a1.17 1.17 0 110 2.342 1.17 1.17 0 010-2.342z" fill="#FBFBFB"/><path d="M31.561 60.828a1.17 1.17 0 110 2.342 1.17 1.17 0 010-2.342zm11.703 0a1.17 1.17 0 110 2.342 1.17 1.17 0 010-2.342z" fill="#FBFBFB"/><path d="M45.608 60.828a1.17 1.17 0 110 2.342 1.17 1.17 0 010-2.342z" fill="#FBFBFB"/><path d="M47.952 60.828a1.17 1.17 0 110 2.342 1.17 1.17 0 010-2.342z" fill="#FBFBFB"/><path d="M50.296 60.828a1.17 1.17 0 110 2.342 1.17 1.17 0 010-2.342zm7.024 0a1.17 1.17 0 110 2.342 1.17 1.17 0 010-2.342zm11.702 0a1.17 1.17 0 110 2.342 1.17 1.17 0 010-2.342z" fill="#FBFBFB"/><path d="M71.366 60.828a1.17 1.17 0 110 2.342 1.17 1.17 0 010-2.342z" fill="#FBFBFB"/><path d="M73.71 60.828a1.17 1.17 0 110 2.342 1.17 1.17 0 010-2.342zm9.367 0a1.17 1.17 0 110 2.342 1.17 1.17 0 010-2.342zm4.68 0a1.17 1.17 0 110 2.342 1.17 1.17 0 010-2.342zm4.679 0a1.17 1.17 0 110 2.342 1.17 1.17 0 010-2.342z" fill="#FBFBFB"/><path d="M94.78 60.828a1.17 1.17 0 110 2.342 1.17 1.17 0 010-2.342zm9.367 0a1.17 1.17 0 110 2.342 1.17 1.17 0 010-2.342zm4.68 0a1.17 1.17 0 110 2.342 1.17 1.17 0 010-2.342zM15.17 63.172a1.17 1.17 0 110 2.341 1.17 1.17 0 010-2.341z" fill="#FBFBFB"/><path d="M17.51 63.172a1.17 1.17 0 110 2.341 1.17 1.17 0 010-2.341zm14.051 0a1.17 1.17 0 110 2.341 1.17 1.17 0 010-2.341z" fill="#FBFBFB"/><path d="M33.905 63.172a1.17 1.17 0 110 2.341 1.17 1.17 0 010-2.341z" fill="#FBFBFB"/><path d="M36.241 63.172a1.17 1.17 0 110 2.341 1.17 1.17 0 010-2.341zm4.687 0a1.17 1.17 0 110 2.341 1.17 1.17 0 010-2.341z" fill="#FBFBFB"/><path d="M43.264 63.172a1.17 1.17 0 110 2.341 1.17 1.17 0 010-2.341zm9.368 0a1.17 1.17 0 110 2.341 1.17 1.17 0 010-2.341z" fill="#FBFBFB"/><path d="M54.975 63.172a1.17 1.17 0 110 2.341 1.17 1.17 0 010-2.341z" fill="#FBFBFB"/><path d="M57.32 63.172a1.17 1.17 0 110 2.341 1.17 1.17 0 010-2.341z" fill="#FBFBFB"/><path d="M59.655 63.172a1.17 1.17 0 110 2.341 1.17 1.17 0 010-2.341zm4.688 0a1.17 1.17 0 110 2.341 1.17 1.17 0 010-2.341zm7.023 0a1.17 1.17 0 110 2.341 1.17 1.17 0 010-2.341zm4.68 0a1.17 1.17 0 110 2.341 1.17 1.17 0 010-2.341zm4.684 0a1.17 1.17 0 110 2.341 1.17 1.17 0 010-2.341z" fill="#FBFBFB"/><path d="M83.077 63.172a1.17 1.17 0 110 2.341 1.17 1.17 0 010-2.341zm9.359 0a1.17 1.17 0 110 2.341 1.17 1.17 0 010-2.341z" fill="#FBFBFB"/><path d="M94.78 63.172a1.17 1.17 0 110 2.341 1.17 1.17 0 010-2.341z" fill="#FBFBFB"/><path d="M97.12 63.172a1.17 1.17 0 110 2.341 1.17 1.17 0 010-2.341zm4.684 0a1.17 1.17 0 110 2.34 1.17 1.17 0 010-2.34zm4.683 0a1.17 1.17 0 110 2.341 1.17 1.17 0 010-2.341z" fill="#FBFBFB"/><path d="M108.827 63.172a1.17 1.17 0 110 2.341 1.17 1.17 0 010-2.341zm-86.633 2.344a1.17 1.17 0 110 2.341 1.17 1.17 0 010-2.341z" fill="#FBFBFB"/><path d="M24.538 65.516a1.17 1.17 0 110 2.341 1.17 1.17 0 010-2.341z" fill="#FBFBFB"/><path d="M26.874 65.516a1.17 1.17 0 110 2.341 1.17 1.17 0 010-2.341z" fill="#FBFBFB"/><path d="M29.221 65.516a1.17 1.17 0 110 2.341 1.17 1.17 0 010-2.341zm9.364 0a1.17 1.17 0 110 2.341 1.17 1.17 0 010-2.341zm7.023 0a1.17 1.17 0 110 2.341 1.17 1.17 0 010-2.341z" fill="#FBFBFB"/><path d="M47.952 65.516a1.17 1.17 0 110 2.341 1.17 1.17 0 010-2.341zm7.023 0a1.17 1.17 0 110 2.341 1.17 1.17 0 010-2.341z" fill="#FBFBFB"/><path d="M57.32 65.516a1.17 1.17 0 110 2.341 1.17 1.17 0 010-2.341z" fill="#FBFBFB"/><path d="M59.655 65.516a1.17 1.17 0 110 2.341 1.17 1.17 0 010-2.341zm7.031 0a1.17 1.17 0 110 2.341 1.17 1.17 0 010-2.341z" fill="#FBFBFB"/><path d="M69.022 65.516a1.17 1.17 0 110 2.341 1.17 1.17 0 010-2.341zm4.688 0a1.17 1.17 0 110 2.341 1.17 1.17 0 010-2.341zm7.02 0a1.17 1.17 0 110 2.341 1.17 1.17 0 010-2.341zm4.683 0a1.17 1.17 0 110 2.341 1.17 1.17 0 010-2.341z" fill="#FBFBFB"/><path d="M87.757 65.516a1.17 1.17 0 110 2.341 1.17 1.17 0 010-2.341zm11.711 0a1.17 1.17 0 110 2.34 1.17 1.17 0 010-2.34zm4.679 0a1.17 1.17 0 110 2.341 1.17 1.17 0 010-2.341z" fill="#FBFBFB"/><path d="M106.487 65.516a1.17 1.17 0 110 2.341 1.17 1.17 0 010-2.341zm-84.293 2.336a1.17 1.17 0 110 2.34 1.17 1.17 0 010-2.34zm9.367 0a1.17 1.17 0 110 2.34 1.17 1.17 0 010-2.34zm4.68 0a1.17 1.17 0 110 2.341 1.17 1.17 0 010-2.341z" fill="#FBFBFB"/><path d="M38.585 67.852a1.17 1.17 0 110 2.34 1.17 1.17 0 010-2.34zm11.711 0a1.17 1.17 0 110 2.341 1.17 1.17 0 010-2.341z" fill="#FBFBFB"/><path d="M52.632 67.852a1.17 1.17 0 110 2.34 1.17 1.17 0 010-2.34z" fill="#FBFBFB"/><path d="M54.975 67.852a1.17 1.17 0 110 2.341 1.17 1.17 0 010-2.341zm11.711 0a1.17 1.17 0 110 2.34 1.17 1.17 0 010-2.34z" fill="#FBFBFB"/><path d="M69.022 67.852a1.17 1.17 0 110 2.34 1.17 1.17 0 010-2.34z" fill="#FBFBFB"/><path d="M71.366 67.852a1.17 1.17 0 110 2.341 1.17 1.17 0 010-2.341z" fill="#FBFBFB"/><path d="M73.71 67.852a1.17 1.17 0 110 2.34 1.17 1.17 0 010-2.34zm4.68 0a1.17 1.17 0 110 2.34 1.17 1.17 0 010-2.34zm9.367 0a1.17 1.17 0 110 2.34 1.17 1.17 0 010-2.34zm7.023 0a1.17 1.17 0 110 2.34 1.17 1.17 0 010-2.34zm7.024 0a1.17 1.17 0 110 2.34 1.17 1.17 0 010-2.34z" fill="#FBFBFB"/><path d="M104.147 67.852a1.17 1.17 0 110 2.34 1.17 1.17 0 010-2.34zM15.17 70.195a1.17 1.17 0 110 2.342 1.17 1.17 0 010-2.342z" fill="#FBFBFB"/><path d="M17.51 70.195a1.17 1.17 0 110 2.342 1.17 1.17 0 010-2.342zm4.684 0a1.17 1.17 0 110 2.342 1.17 1.17 0 010-2.342zm7.027 0a1.17 1.17 0 110 2.342 1.17 1.17 0 010-2.342z" fill="#FBFBFB"/><path d="M31.561 70.195a1.17 1.17 0 110 2.342 1.17 1.17 0 010-2.342z" fill="#FBFBFB"/><path d="M33.905 70.195a1.17 1.17 0 110 2.342 1.17 1.17 0 010-2.342zm4.68 0a1.17 1.17 0 110 2.342 1.17 1.17 0 010-2.342z" fill="#FBFBFB"/><path d="M40.928 70.195a1.17 1.17 0 110 2.342 1.17 1.17 0 010-2.342zm4.68 0a1.17 1.17 0 110 2.342 1.17 1.17 0 010-2.342zm4.688 0a1.17 1.17 0 110 2.342 1.17 1.17 0 010-2.342zm7.024 0a1.17 1.17 0 110 2.342 1.17 1.17 0 010-2.342z" fill="#FBFBFB"/><path d="M59.655 70.195a1.17 1.17 0 110 2.342 1.17 1.17 0 010-2.342z" fill="#FBFBFB"/><path d="M61.999 70.195a1.17 1.17 0 110 2.342 1.17 1.17 0 010-2.342z" fill="#FBFBFB"/><path d="M64.343 70.195a1.17 1.17 0 110 2.342 1.17 1.17 0 010-2.342z" fill="#FBFBFB"/><path d="M66.686 70.195a1.17 1.17 0 110 2.342 1.17 1.17 0 010-2.342zm7.024 0a1.17 1.17 0 110 2.342 1.17 1.17 0 010-2.342z" fill="#FBFBFB"/><path d="M76.046 70.195a1.17 1.17 0 110 2.342 1.17 1.17 0 010-2.342zm4.684 0a1.17 1.17 0 110 2.342 1.17 1.17 0 010-2.342z" fill="#FBFBFB"/><path d="M83.077 70.195a1.17 1.17 0 110 2.342 1.17 1.17 0 010-2.342zm4.68 0a1.17 1.17 0 110 2.342 1.17 1.17 0 010-2.342z" fill="#FBFBFB"/><path d="M90.1 70.195a1.17 1.17 0 110 2.342 1.17 1.17 0 010-2.342z" fill="#FBFBFB"/><path d="M92.436 70.195a1.17 1.17 0 110 2.342 1.17 1.17 0 010-2.342z" fill="#FBFBFB"/><path d="M94.78 70.195a1.17 1.17 0 110 2.342 1.17 1.17 0 010-2.342zm7.024 0a1.17 1.17 0 11-.001 2.341 1.17 1.17 0 01.001-2.34zm7.023 0a1.17 1.17 0 110 2.342 1.17 1.17 0 010-2.342zM15.17 72.54a1.17 1.17 0 110 2.34 1.17 1.17 0 010-2.34zm16.391 0a1.17 1.17 0 110 2.34 1.17 1.17 0 010-2.34zm7.024 0a1.17 1.17 0 110 2.34 1.17 1.17 0 010-2.34zm4.679 0a1.17 1.17 0 110 2.34 1.17 1.17 0 010-2.34z" fill="#FBFBFB"/><path d="M45.608 72.54a1.17 1.17 0 110 2.34 1.17 1.17 0 010-2.34zm4.688 0a1.17 1.17 0 110 2.34 1.17 1.17 0 010-2.34zm4.679 0a1.17 1.17 0 110 2.34 1.17 1.17 0 010-2.34zm4.68 0a1.17 1.17 0 110 2.34 1.17 1.17 0 010-2.34zm7.031 0a1.17 1.17 0 110 2.34 1.17 1.17 0 010-2.34zm14.044 0a1.17 1.17 0 110 2.34 1.17 1.17 0 010-2.34z" fill="#FBFBFB"/><path d="M83.077 72.54a1.17 1.17 0 110 2.34 1.17 1.17 0 010-2.34z" fill="#FBFBFB"/><path d="M85.413 72.54a1.17 1.17 0 110 2.34 1.17 1.17 0 010-2.34z" fill="#FBFBFB"/><path d="M87.757 72.54a1.17 1.17 0 110 2.34 1.17 1.17 0 010-2.34zm4.679 0a1.17 1.17 0 110 2.34 1.17 1.17 0 010-2.34zm9.368 0a1.17 1.17 0 110 2.34 1.17 1.17 0 010-2.34zM15.17 74.875a1.17 1.17 0 110 2.342 1.17 1.17 0 010-2.342z" fill="#FBFBFB"/><path d="M17.51 74.875a1.17 1.17 0 110 2.341 1.17 1.17 0 010-2.341z" fill="#FBFBFB"/><path d="M19.858 74.875a1.17 1.17 0 110 2.342 1.17 1.17 0 010-2.342z" fill="#FBFBFB"/><path d="M22.194 74.875a1.17 1.17 0 110 2.341 1.17 1.17 0 010-2.341z" fill="#FBFBFB"/><path d="M24.538 74.875a1.17 1.17 0 110 2.342 1.17 1.17 0 010-2.342zm4.683 0a1.17 1.17 0 110 2.341 1.17 1.17 0 010-2.341zm7.02 0a1.17 1.17 0 110 2.342 1.17 1.17 0 010-2.342z" fill="#FBFBFB"/><path d="M38.585 74.875a1.17 1.17 0 110 2.341 1.17 1.17 0 010-2.341zm7.023 0a1.17 1.17 0 110 2.342 1.17 1.17 0 010-2.342zm4.688 0a1.17 1.17 0 110 2.342 1.17 1.17 0 010-2.342zm7.024 0a1.17 1.17 0 110 2.341 1.17 1.17 0 010-2.341z" fill="#FBFBFB"/><path d="M59.655 74.875a1.17 1.17 0 110 2.341 1.17 1.17 0 010-2.341z" fill="#FBFBFB"/><path d="M61.999 74.875a1.17 1.17 0 110 2.341 1.17 1.17 0 010-2.341z" fill="#FBFBFB"/><path d="M64.343 74.875a1.17 1.17 0 110 2.341 1.17 1.17 0 010-2.341z" fill="#FBFBFB"/><path d="M66.686 74.875a1.17 1.17 0 110 2.341 1.17 1.17 0 010-2.341z" fill="#FBFBFB"/><path d="M69.022 74.875a1.17 1.17 0 110 2.341 1.17 1.17 0 010-2.341zm16.391 0a1.17 1.17 0 110 2.342 1.17 1.17 0 010-2.342zm4.687 0a1.17 1.17 0 110 2.342 1.17 1.17 0 010-2.342z" fill="#FBFBFB"/><path d="M92.436 74.875a1.17 1.17 0 110 2.341 1.17 1.17 0 010-2.341zm4.684 0a1.17 1.17 0 110 2.341 1.17 1.17 0 010-2.341z" fill="#FBFBFB"/><path d="M99.468 74.875a1.17 1.17 0 110 2.341 1.17 1.17 0 010-2.341zm9.359 0a1.17 1.17 0 110 2.341 1.17 1.17 0 010-2.341zM15.17 77.219a1.17 1.17 0 110 2.341 1.17 1.17 0 010-2.341zm4.688 0a1.17 1.17 0 110 2.341 1.17 1.17 0 010-2.341z" fill="#FBFBFB"/><path d="M22.194 77.219a1.17 1.17 0 110 2.341 1.17 1.17 0 010-2.341zm11.711 0a1.17 1.17 0 110 2.341 1.17 1.17 0 010-2.341z" fill="#FBFBFB"/><path d="M36.241 77.219a1.17 1.17 0 110 2.341 1.17 1.17 0 010-2.341zm4.687 0a1.17 1.17 0 110 2.341 1.17 1.17 0 010-2.341z" fill="#FBFBFB"/><path d="M43.264 77.219a1.17 1.17 0 110 2.341 1.17 1.17 0 010-2.341z" fill="#FBFBFB"/><path d="M45.608 77.219a1.17 1.17 0 110 2.341 1.17 1.17 0 010-2.341z" fill="#FBFBFB"/><path d="M47.952 77.219a1.17 1.17 0 110 2.341 1.17 1.17 0 010-2.341z" fill="#FBFBFB"/><path d="M50.296 77.219a1.17 1.17 0 110 2.341 1.17 1.17 0 010-2.341z" fill="#FBFBFB"/><path d="M52.632 77.219a1.17 1.17 0 110 2.341 1.17 1.17 0 010-2.341z" fill="#FBFBFB"/><path d="M54.975 77.219a1.17 1.17 0 110 2.341 1.17 1.17 0 010-2.341z" fill="#FBFBFB"/><path d="M57.32 77.219a1.17 1.17 0 110 2.341 1.17 1.17 0 010-2.341z" fill="#FBFBFB"/><path d="M59.655 77.219a1.17 1.17 0 110 2.341 1.17 1.17 0 010-2.341z" fill="#FBFBFB"/><path d="M61.999 77.219a1.17 1.17 0 110 2.341 1.17 1.17 0 010-2.341z" fill="#FBFBFB"/><path d="M64.343 77.219a1.17 1.17 0 110 2.341 1.17 1.17 0 010-2.341zm9.367 0a1.17 1.17 0 110 2.341 1.17 1.17 0 010-2.341z" fill="#FBFBFB"/><path d="M76.046 77.219a1.17 1.17 0 110 2.341 1.17 1.17 0 010-2.341zm7.031 0a1.17 1.17 0 110 2.341 1.17 1.17 0 010-2.341z" fill="#FBFBFB"/><path d="M85.413 77.219a1.17 1.17 0 110 2.341 1.17 1.17 0 010-2.341zm4.687 0a1.17 1.17 0 110 2.341 1.17 1.17 0 010-2.341z" fill="#FBFBFB"/><path d="M92.436 77.219a1.17 1.17 0 110 2.341 1.17 1.17 0 010-2.341z" fill="#FBFBFB"/><path d="M94.78 77.219a1.17 1.17 0 110 2.341 1.17 1.17 0 010-2.341zm11.707 0a1.17 1.17 0 110 2.341 1.17 1.17 0 010-2.341zm-91.317 2.34a1.17 1.17 0 110 2.341 1.17 1.17 0 010-2.341z" fill="#FBFBFB"/><path d="M17.51 79.559a1.17 1.17 0 110 2.341 1.17 1.17 0 010-2.341z" fill="#FBFBFB"/><path d="M19.858 79.559a1.17 1.17 0 110 2.341 1.17 1.17 0 010-2.341zm7.016 0a1.17 1.17 0 110 2.341 1.17 1.17 0 010-2.341z" fill="#FBFBFB"/><path d="M29.221 79.559a1.17 1.17 0 110 2.341 1.17 1.17 0 010-2.341zm9.364 0a1.17 1.17 0 110 2.341 1.17 1.17 0 010-2.341z" fill="#FBFBFB"/><path d="M40.928 79.559a1.17 1.17 0 110 2.341 1.17 1.17 0 010-2.341zm9.368 0a1.17 1.17 0 110 2.341 1.17 1.17 0 010-2.341zm7.024 0a1.17 1.17 0 110 2.341 1.17 1.17 0 010-2.341zm16.39 0a1.17 1.17 0 110 2.341 1.17 1.17 0 010-2.341zm9.367 0a1.17 1.17 0 110 2.341 1.17 1.17 0 010-2.341z" fill="#FBFBFB"/><path d="M85.413 79.559a1.17 1.17 0 110 2.341 1.17 1.17 0 010-2.341zm7.023 0a1.17 1.17 0 110 2.341 1.17 1.17 0 010-2.341z" fill="#FBFBFB"/><path d="M94.78 79.559a1.17 1.17 0 110 2.341 1.17 1.17 0 010-2.341zm-74.922 2.347a1.17 1.17 0 110 2.342 1.17 1.17 0 010-2.342zm4.68 0a1.17 1.17 0 110 2.342 1.17 1.17 0 010-2.342zm7.023 0a1.17 1.17 0 110 2.342 1.17 1.17 0 010-2.342zm4.68 0a1.17 1.17 0 110 2.342 1.17 1.17 0 010-2.342zm4.687 0a1.17 1.17 0 110 2.342 1.17 1.17 0 010-2.342zm11.704 0a1.17 1.17 0 110 2.342 1.17 1.17 0 010-2.342zm7.023 0a1.17 1.17 0 110 2.342 1.17 1.17 0 010-2.342z" fill="#FBFBFB"/><path d="M61.999 81.906a1.17 1.17 0 110 2.342 1.17 1.17 0 010-2.342z" fill="#FBFBFB"/><path d="M64.343 81.906a1.17 1.17 0 110 2.342 1.17 1.17 0 010-2.342z" fill="#FBFBFB"/><path d="M66.686 81.906a1.17 1.17 0 110 2.342 1.17 1.17 0 010-2.342zm4.68 0a1.17 1.17 0 110 2.342 1.17 1.17 0 010-2.342zm4.68 0a1.17 1.17 0 110 2.342 1.17 1.17 0 010-2.342z" fill="#FBFBFB"/><path d="M78.39 81.906a1.17 1.17 0 110 2.342 1.17 1.17 0 010-2.342z" fill="#FBFBFB"/><path d="M80.73 81.906a1.17 1.17 0 110 2.342 1.17 1.17 0 010-2.342zm7.027 0a1.17 1.17 0 110 2.342 1.17 1.17 0 010-2.342z" fill="#FBFBFB"/><path d="M90.1 81.906a1.17 1.17 0 110 2.342 1.17 1.17 0 010-2.342z" fill="#FBFBFB"/><path d="M92.436 81.906a1.17 1.17 0 110 2.342 1.17 1.17 0 010-2.342zm14.051 0a1.17 1.17 0 110 2.342 1.17 1.17 0 010-2.342z" fill="#FBFBFB"/><path d="M108.827 81.906a1.17 1.17 0 110 2.342 1.17 1.17 0 010-2.342zM15.17 84.242a1.17 1.17 0 110 2.342 1.17 1.17 0 010-2.342zm7.024 0a1.17 1.17 0 110 2.341 1.17 1.17 0 010-2.34z" fill="#FBFBFB"/><path d="M24.538 84.242a1.17 1.17 0 110 2.342 1.17 1.17 0 010-2.342z" fill="#FBFBFB"/><path d="M26.874 84.242a1.17 1.17 0 110 2.341 1.17 1.17 0 010-2.34z" fill="#FBFBFB"/><path d="M29.221 84.242a1.17 1.17 0 110 2.341 1.17 1.17 0 010-2.34z" fill="#FBFBFB"/><path d="M31.561 84.242a1.17 1.17 0 110 2.341 1.17 1.17 0 010-2.34zm4.68 0a1.17 1.17 0 110 2.342 1.17 1.17 0 010-2.342z" fill="#FBFBFB"/><path d="M38.585 84.242a1.17 1.17 0 110 2.341 1.17 1.17 0 010-2.34zm9.367 0a1.17 1.17 0 110 2.341 1.17 1.17 0 010-2.34zm4.68 0a1.17 1.17 0 110 2.341 1.17 1.17 0 010-2.34zm4.688 0a1.17 1.17 0 110 2.341 1.17 1.17 0 010-2.34z" fill="#FBFBFB"/><path d="M59.655 84.242a1.17 1.17 0 110 2.341 1.17 1.17 0 010-2.34zm4.688 0a1.17 1.17 0 110 2.341 1.17 1.17 0 010-2.34zm4.679 0a1.17 1.17 0 110 2.341 1.17 1.17 0 010-2.34zm9.368 0a1.17 1.17 0 110 2.341 1.17 1.17 0 010-2.34z" fill="#FBFBFB"/><path d="M80.73 84.242a1.17 1.17 0 110 2.342 1.17 1.17 0 010-2.342z" fill="#FBFBFB"/><path d="M83.077 84.242a1.17 1.17 0 110 2.341 1.17 1.17 0 010-2.34zm14.043 0a1.17 1.17 0 110 2.341 1.17 1.17 0 010-2.34z" fill="#FBFBFB"/><path d="M99.468 84.242a1.17 1.17 0 110 2.341 1.17 1.17 0 010-2.34zm4.679 0a1.17 1.17 0 110 2.341 1.17 1.17 0 010-2.34zm4.68 0a1.17 1.17 0 110 2.341 1.17 1.17 0 010-2.34zm-84.289 2.344a1.17 1.17 0 110 2.342 1.17 1.17 0 010-2.342z" fill="#FBFBFB"/><path d="M26.874 86.586a1.17 1.17 0 110 2.341 1.17 1.17 0 010-2.341zm9.367 0a1.17 1.17 0 110 2.342 1.17 1.17 0 010-2.342z" fill="#FBFBFB"/><path d="M38.585 86.586a1.17 1.17 0 110 2.341 1.17 1.17 0 010-2.341zm4.679 0a1.17 1.17 0 110 2.341 1.17 1.17 0 010-2.341zm7.032 0a1.17 1.17 0 110 2.342 1.17 1.17 0 010-2.342z" fill="#FBFBFB"/><path d="M52.632 86.586a1.17 1.17 0 110 2.341 1.17 1.17 0 010-2.341z" fill="#FBFBFB"/><path d="M54.975 86.586a1.17 1.17 0 110 2.342 1.17 1.17 0 010-2.342zm4.68 0a1.17 1.17 0 110 2.341 1.17 1.17 0 010-2.341zm4.688 0a1.17 1.17 0 110 2.341 1.17 1.17 0 010-2.341zm4.679 0a1.17 1.17 0 110 2.341 1.17 1.17 0 010-2.341zm4.688 0a1.17 1.17 0 110 2.341 1.17 1.17 0 010-2.341z" fill="#FBFBFB"/><path d="M76.046 86.586a1.17 1.17 0 110 2.342 1.17 1.17 0 010-2.342zm7.031 0a1.17 1.17 0 110 2.341 1.17 1.17 0 010-2.341zm9.359 0a1.17 1.17 0 110 2.341 1.17 1.17 0 010-2.341zm9.368 0a1.17 1.17 0 11-.001 2.34 1.17 1.17 0 01.001-2.34zm4.683 0a1.17 1.17 0 110 2.341 1.17 1.17 0 010-2.341z" fill="#FBFBFB"/><path d="M108.827 86.586a1.17 1.17 0 110 2.341 1.17 1.17 0 010-2.341zM15.17 88.93a1.17 1.17 0 110 2.341 1.17 1.17 0 010-2.341zm4.688 0a1.17 1.17 0 110 2.341 1.17 1.17 0 010-2.341z" fill="#FBFBFB"/><path d="M22.194 88.93a1.17 1.17 0 110 2.341 1.17 1.17 0 010-2.341zm7.027 0a1.17 1.17 0 110 2.341 1.17 1.17 0 010-2.341zm14.043 0a1.17 1.17 0 110 2.341 1.17 1.17 0 010-2.341z" fill="#FBFBFB"/><path d="M45.608 88.93a1.17 1.17 0 110 2.341 1.17 1.17 0 010-2.341z" fill="#FBFBFB"/><path d="M47.952 88.93a1.17 1.17 0 110 2.341 1.17 1.17 0 010-2.341zm4.68 0a1.17 1.17 0 110 2.341 1.17 1.17 0 010-2.341zm7.023 0a1.17 1.17 0 110 2.341 1.17 1.17 0 010-2.341z" fill="#FBFBFB"/><path d="M61.999 88.93a1.17 1.17 0 110 2.341 1.17 1.17 0 010-2.341zm4.687 0a1.17 1.17 0 110 2.341 1.17 1.17 0 010-2.341z" fill="#FBFBFB"/><path d="M69.022 88.93a1.17 1.17 0 110 2.341 1.17 1.17 0 010-2.341z" fill="#FBFBFB"/><path d="M71.366 88.93a1.17 1.17 0 110 2.341 1.17 1.17 0 010-2.341z" fill="#FBFBFB"/><path d="M73.71 88.93a1.17 1.17 0 110 2.341 1.17 1.17 0 010-2.341zm4.68 0a1.17 1.17 0 110 2.341 1.17 1.17 0 010-2.341zm7.023 0a1.17 1.17 0 110 2.341 1.17 1.17 0 010-2.341zm4.687 0a1.17 1.17 0 110 2.341 1.17 1.17 0 010-2.341z" fill="#FBFBFB"/><path d="M92.436 88.93a1.17 1.17 0 110 2.341 1.17 1.17 0 010-2.341z" fill="#FBFBFB"/><path d="M94.78 88.93a1.17 1.17 0 110 2.341 1.17 1.17 0 010-2.341z" fill="#FBFBFB"/><path d="M97.12 88.93a1.17 1.17 0 110 2.341 1.17 1.17 0 010-2.341z" fill="#FBFBFB"/><path d="M99.468 88.93a1.17 1.17 0 110 2.34 1.17 1.17 0 010-2.34zm4.679 0a1.17 1.17 0 110 2.341 1.17 1.17 0 010-2.341zm4.68 0a1.17 1.17 0 110 2.341 1.17 1.17 0 010-2.341zm-74.922 2.336a1.17 1.17 0 110 2.341 1.17 1.17 0 010-2.341zm9.359 0a1.17 1.17 0 110 2.341 1.17 1.17 0 010-2.341z" fill="#FBFBFB"/><path d="M45.608 91.266a1.17 1.17 0 110 2.341 1.17 1.17 0 010-2.341z" fill="#FBFBFB"/><path d="M47.952 91.266a1.17 1.17 0 110 2.341 1.17 1.17 0 010-2.341z" fill="#FBFBFB"/><path d="M50.296 91.266a1.17 1.17 0 110 2.341 1.17 1.17 0 010-2.341z" fill="#FBFBFB"/><path d="M52.632 91.266a1.17 1.17 0 110 2.341 1.17 1.17 0 010-2.341zm9.367 0a1.17 1.17 0 110 2.341 1.17 1.17 0 010-2.341zm7.023 0a1.17 1.17 0 110 2.341 1.17 1.17 0 010-2.341z" fill="#FBFBFB"/><path d="M71.366 91.266a1.17 1.17 0 110 2.341 1.17 1.17 0 010-2.341zm11.711 0a1.17 1.17 0 110 2.341 1.17 1.17 0 010-2.341z" fill="#FBFBFB"/><path d="M85.413 91.266a1.17 1.17 0 110 2.341 1.17 1.17 0 010-2.341z" fill="#FBFBFB"/><path d="M87.757 91.266a1.17 1.17 0 110 2.341 1.17 1.17 0 010-2.341z" fill="#FBFBFB"/><path d="M90.1 91.266a1.17 1.17 0 110 2.341 1.17 1.17 0 010-2.341zm9.368 0a1.17 1.17 0 110 2.34 1.17 1.17 0 010-2.34zm4.679 0a1.17 1.17 0 110 2.341 1.17 1.17 0 010-2.341zm4.68 0a1.17 1.17 0 110 2.341 1.17 1.17 0 010-2.341zM40.928 93.61a1.17 1.17 0 110 2.34 1.17 1.17 0 010-2.34z" fill="#FBFBFB"/><path d="M43.264 93.61a1.17 1.17 0 110 2.34 1.17 1.17 0 010-2.34zm9.368 0a1.17 1.17 0 110 2.34 1.17 1.17 0 010-2.34zm9.367 0a1.17 1.17 0 110 2.34 1.17 1.17 0 010-2.34z" fill="#FBFBFB"/><path d="M64.343 93.61a1.17 1.17 0 110 2.34 1.17 1.17 0 010-2.34zm7.023 0a1.17 1.17 0 110 2.34 1.17 1.17 0 010-2.34z" fill="#FBFBFB"/><path d="M73.71 93.61a1.17 1.17 0 110 2.34 1.17 1.17 0 010-2.34zm11.703 0a1.17 1.17 0 110 2.34 1.17 1.17 0 010-2.34zm4.687 0a1.17 1.17 0 110 2.34 1.17 1.17 0 010-2.34zm4.68 0a1.17 1.17 0 110 2.341 1.17 1.17 0 010-2.341zm4.688 0a1.17 1.17 0 110 2.34 1.17 1.17 0 010-2.34z" fill="#FBFBFB"/><path d="M101.804 93.61a1.17 1.17 0 110 2.34 1.17 1.17 0 010-2.34zm4.683 0a1.17 1.17 0 110 2.341 1.17 1.17 0 010-2.341zm-65.559 2.34a1.17 1.17 0 110 2.34 1.17 1.17 0 010-2.34zm9.368 0a1.17 1.17 0 110 2.34 1.17 1.17 0 010-2.34z" fill="#FBFBFB"/><path d="M52.632 95.95a1.17 1.17 0 110 2.34 1.17 1.17 0 010-2.34zm4.688 0a1.17 1.17 0 110 2.34 1.17 1.17 0 010-2.34z" fill="#FBFBFB"/><path d="M59.659 95.95a1.17 1.17 0 110 2.34 1.17 1.17 0 010-2.34zm4.684 0a1.17 1.17 0 110 2.34 1.17 1.17 0 010-2.34z" fill="#FBFBFB"/><path d="M66.686 95.95a1.17 1.17 0 110 2.34 1.17 1.17 0 010-2.34zm4.68 0a1.17 1.17 0 110 2.34 1.17 1.17 0 010-2.34zm7.024 0a1.17 1.17 0 110 2.34 1.17 1.17 0 010-2.34z" fill="#FBFBFB"/><path d="M80.73 95.95a1.17 1.17 0 110 2.34 1.17 1.17 0 010-2.34zm4.683 0a1.17 1.17 0 110 2.34 1.17 1.17 0 010-2.34z" fill="#FBFBFB"/><path d="M87.757 95.95a1.17 1.17 0 110 2.34 1.17 1.17 0 010-2.34z" fill="#FBFBFB"/><path d="M90.1 95.95a1.17 1.17 0 110 2.34 1.17 1.17 0 010-2.34zm9.364 0a1.17 1.17 0 110 2.34 1.17 1.17 0 010-2.34zm4.683 0a1.17 1.17 0 110 2.34 1.17 1.17 0 010-2.34zm-67.906 2.343a1.17 1.17 0 110 2.341 1.17 1.17 0 010-2.341z" fill="#FBFBFB"/><path d="M38.585 98.293a1.17 1.17 0 110 2.341 1.17 1.17 0 010-2.341z" fill="#FBFBFB"/><path d="M40.928 98.297a1.17 1.17 0 110 2.341 1.17 1.17 0 010-2.341z" fill="#FBFBFB"/><path d="M43.264 98.297a1.17 1.17 0 110 2.341 1.17 1.17 0 010-2.341zm4.688 0a1.17 1.17 0 110 2.341 1.17 1.17 0 010-2.341z" fill="#FBFBFB"/><path d="M50.296 98.297a1.17 1.17 0 110 2.341 1.17 1.17 0 010-2.341z" fill="#FBFBFB"/><path d="M52.632 98.293a1.17 1.17 0 110 2.341 1.17 1.17 0 010-2.341z" fill="#FBFBFB"/><path d="M54.975 98.297a1.17 1.17 0 110 2.341 1.17 1.17 0 010-2.341zm16.391 0a1.17 1.17 0 110 2.341 1.17 1.17 0 010-2.341z" fill="#FBFBFB"/><path d="M73.71 98.297a1.17 1.17 0 110 2.341 1.17 1.17 0 010-2.341z" fill="#FBFBFB"/><path d="M76.046 98.293a1.17 1.17 0 110 2.341 1.17 1.17 0 010-2.341zm4.684 0a1.17 1.17 0 110 2.341 1.17 1.17 0 010-2.341zm4.683.004a1.17 1.17 0 110 2.341 1.17 1.17 0 010-2.341zm4.687 0a1.17 1.17 0 110 2.341 1.17 1.17 0 010-2.341z" fill="#FBFBFB"/><path d="M92.436 98.297a1.17 1.17 0 110 2.341 1.17 1.17 0 010-2.341z" fill="#FBFBFB"/><path d="M94.78 98.297a1.17 1.17 0 110 2.341 1.17 1.17 0 010-2.341z" fill="#FBFBFB"/><path d="M97.12 98.293a1.17 1.17 0 110 2.341 1.17 1.17 0 010-2.341z" fill="#FBFBFB"/><path d="M99.468 98.293a1.17 1.17 0 110 2.341 1.17 1.17 0 010-2.341zm9.359.004a1.17 1.17 0 110 2.341 1.17 1.17 0 010-2.341zm-74.922 2.336a1.17 1.17 0 110 2.341 1.17 1.17 0 010-2.341zm4.68 0a1.17 1.17 0 110 2.341 1.17 1.17 0 010-2.341zm11.711 0a1.17 1.17 0 110 2.341 1.17 1.17 0 010-2.341z" fill="#FBFBFB"/><path d="M52.632 100.633a1.17 1.17 0 110 2.341 1.17 1.17 0 010-2.341z" fill="#FBFBFB"/><path d="M54.975 100.633a1.17 1.17 0 110 2.341 1.17 1.17 0 010-2.341z" fill="#FBFBFB"/><path d="M57.32 100.633a1.17 1.17 0 110 2.341 1.17 1.17 0 010-2.341z" fill="#FBFBFB"/><path d="M59.655 100.633a1.17 1.17 0 110 2.341 1.17 1.17 0 010-2.341zm4.688 0a1.17 1.17 0 110 2.341 1.17 1.17 0 010-2.341z" fill="#FBFBFB"/><path d="M66.686 100.633a1.17 1.17 0 110 2.341 1.17 1.17 0 010-2.341zm4.68 0a1.17 1.17 0 110 2.341 1.17 1.17 0 010-2.341zm11.711 0a1.17 1.17 0 110 2.341 1.17 1.17 0 010-2.341z" fill="#FBFBFB"/><path d="M85.413 100.633a1.17 1.17 0 110 2.341 1.17 1.17 0 010-2.341z" fill="#FBFBFB"/><path d="M87.757 100.633a1.17 1.17 0 110 2.341 1.17 1.17 0 010-2.341zm4.679 0a1.17 1.17 0 110 2.341 1.17 1.17 0 010-2.341z" fill="#FBFBFB"/><path d="M94.78 100.633a1.17 1.17 0 110 2.341 1.17 1.17 0 010-2.341zm4.688 0a1.17 1.17 0 110 2.341 1.17 1.17 0 010-2.341z" fill="#FBFBFB"/><path d="M101.804 100.633a1.17 1.17 0 110 2.34 1.17 1.17 0 010-2.34zm-49.172 2.344a1.17 1.17 0 110 2.34 1.17 1.17 0 010-2.34z" fill="#FBFBFB"/><path d="M54.975 102.977a1.17 1.17 0 11.001 2.341 1.17 1.17 0 010-2.341zm4.684 0a1.17 1.17 0 110 2.34 1.17 1.17 0 010-2.34z" fill="#FBFBFB"/><path d="M61.999 102.977a1.17 1.17 0 110 2.34 1.17 1.17 0 010-2.34z" fill="#FBFBFB"/><path d="M64.343 102.977a1.17 1.17 0 110 2.34 1.17 1.17 0 010-2.34z" fill="#FBFBFB"/><path d="M66.686 102.977a1.17 1.17 0 110 2.34 1.17 1.17 0 010-2.34zm4.68 0a1.17 1.17 0 110 2.341 1.17 1.17 0 010-2.341zm4.68 0a1.17 1.17 0 110 2.341 1.17 1.17 0 010-2.341zm7.031 0a1.17 1.17 0 110 2.34 1.17 1.17 0 010-2.34z" fill="#FBFBFB"/><path d="M85.413 102.977a1.17 1.17 0 110 2.341 1.17 1.17 0 010-2.341z" fill="#FBFBFB"/><path d="M87.757 102.977a1.17 1.17 0 110 2.34 1.17 1.17 0 010-2.34zm11.707 0a1.17 1.17 0 110 2.34 1.17 1.17 0 010-2.34z" fill="#FBFBFB"/><path d="M101.804 102.977a1.17 1.17 0 110 2.34 1.17 1.17 0 010-2.34z" fill="#FBFBFB"/><path d="M104.147 102.977a1.17 1.17 0 110 2.341 1.17 1.17 0 010-2.341zm4.68 0a1.17 1.17 0 11.001 2.34 1.17 1.17 0 01-.001-2.34zm-72.582 2.339a1.171 1.171 0 11-.001 2.343 1.171 1.171 0 01.001-2.343z" fill="#FBFBFB"/><path d="M38.585 105.316a1.171 1.171 0 11-.001 2.343 1.171 1.171 0 010-2.343zm4.679 0a1.171 1.171 0 110 2.343 1.171 1.171 0 010-2.343z" fill="#FBFBFB"/><path d="M45.608 105.316a1.171 1.171 0 110 2.343 1.171 1.171 0 010-2.343z" fill="#FBFBFB"/><path d="M47.952 105.316a1.17 1.17 0 110 2.341 1.17 1.17 0 010-2.341zm9.368 0a1.171 1.171 0 11-.002 2.343 1.171 1.171 0 01.001-2.343z" fill="#FBFBFB"/><path d="M59.655 105.316a1.171 1.171 0 11-.001 2.343 1.171 1.171 0 01.001-2.343zm7.031 0a1.171 1.171 0 110 2.343 1.171 1.171 0 010-2.343z" fill="#FBFBFB"/><path d="M69.022 105.316a1.171 1.171 0 110 2.343 1.171 1.171 0 010-2.343z" fill="#FBFBFB"/><path d="M71.366 105.316a1.171 1.171 0 11-.001 2.343 1.171 1.171 0 01.001-2.343z" fill="#FBFBFB"/><path d="M73.71 105.316a1.171 1.171 0 11-.001 2.343 1.171 1.171 0 010-2.343z" fill="#FBFBFB"/><path d="M76.046 105.316a1.171 1.171 0 11-.001 2.343 1.171 1.171 0 010-2.343zm4.684 0a1.171 1.171 0 11-.002 2.343 1.171 1.171 0 01.001-2.343z" fill="#FBFBFB"/><path d="M83.077 105.316a1.171 1.171 0 11-.001 2.343 1.171 1.171 0 01.001-2.343zm4.68 0a1.171 1.171 0 11-.001 2.343 1.171 1.171 0 010-2.343z" fill="#FBFBFB"/><path d="M90.1 105.316a1.171 1.171 0 110 2.343 1.171 1.171 0 010-2.343zm4.68 0a1.17 1.17 0 110 2.341 1.17 1.17 0 010-2.341z" fill="#FBFBFB"/><path d="M97.12 105.316a1.171 1.171 0 11-.001 2.343 1.171 1.171 0 01.001-2.343zm4.684 0a1.171 1.171 0 11-.002 2.342 1.171 1.171 0 01.002-2.342zm4.683 0a1.17 1.17 0 110 2.341 1.17 1.17 0 010-2.341zm-65.559 2.34a1.17 1.17 0 110 2.341 1.17 1.17 0 010-2.341zm4.68 0a1.17 1.17 0 110 2.341 1.17 1.17 0 010-2.341z" fill="#FBFBFB"/><path d="M47.952 107.656a1.17 1.17 0 110 2.341 1.17 1.17 0 010-2.341z" fill="#FBFBFB"/><path d="M50.296 107.656a1.17 1.17 0 110 2.341 1.17 1.17 0 010-2.341zm4.679 0a1.17 1.17 0 110 2.341 1.17 1.17 0 010-2.341zm4.68 0a1.17 1.17 0 110 2.341 1.17 1.17 0 010-2.341zm4.688 0a1.17 1.17 0 110 2.341 1.17 1.17 0 010-2.341zm4.679 0a1.17 1.17 0 110 2.341 1.17 1.17 0 010-2.341zm9.368 0a1.17 1.17 0 110 2.341 1.17 1.17 0 010-2.341z" fill="#FBFBFB"/><path d="M80.73 107.656a1.17 1.17 0 110 2.341 1.17 1.17 0 010-2.341z" fill="#FBFBFB"/><path d="M83.077 107.656a1.17 1.17 0 110 2.341 1.17 1.17 0 010-2.341zm7.023 0a1.17 1.17 0 110 2.341 1.17 1.17 0 010-2.341z" fill="#FBFBFB"/><path d="M92.436 107.656a1.17 1.17 0 110 2.341 1.17 1.17 0 010-2.341z" fill="#FBFBFB"/><path d="M94.78 107.656a1.17 1.17 0 110 2.341 1.17 1.17 0 010-2.341z" fill="#FBFBFB"/><path d="M97.12 107.656a1.17 1.17 0 110 2.341 1.17 1.17 0 010-2.341z" fill="#FBFBFB"/><path d="M99.468 107.656a1.17 1.17 0 110 2.341 1.17 1.17 0 010-2.341zm7.019 0a1.17 1.17 0 110 2.341 1.17 1.17 0 010-2.341zM24.794 14.004h-5.198a5.598 5.598 0 00-5.367 3.962 5.42 5.42 0 00-.229 1.57v5.322c0 3.051 2.511 5.533 5.596 5.533h5.198c3.085 0 5.596-2.482 5.596-5.533v-5.322c0-3.05-2.51-5.532-5.596-5.532zm3.138 10.854c0 1.695-1.408 3.075-3.138 3.075h-5.198c-1.73 0-3.137-1.38-3.137-3.075v-5.322c0-.53.137-1.029.379-1.464.232-.42.562-.78.958-1.053.51-.35 1.13-.557 1.8-.557h5.198c1.73 0 3.138 1.379 3.138 3.074v5.322zm76.472-10.854h-5.199a5.598 5.598 0 00-5.366 3.962 5.436 5.436 0 00-.23 1.57v5.322c0 3.051 2.511 5.533 5.596 5.533h5.199c3.084 0 5.596-2.482 5.596-5.533v-5.322c0-3.05-2.511-5.532-5.596-5.532zm3.137 10.854c0 1.695-1.407 3.075-3.138 3.075h-5.197c-1.73 0-3.138-1.38-3.138-3.075v-5.322c0-.53.137-1.029.379-1.464.233-.42.562-.78.959-1.053a3.17 3.17 0 011.799-.557h5.199c1.73 0 3.137 1.379 3.137 3.074v5.322zM24.794 93.613h-5.198a5.598 5.598 0 00-5.367 3.962 5.422 5.422 0 00-.229 1.57v5.322c0 3.052 2.511 5.533 5.596 5.533l2.6.001 2.598-.001c3.085 0 5.596-2.481 5.596-5.533v-5.322c0-3.05-2.51-5.532-5.596-5.532zm3.138 10.854c0 1.695-1.408 3.075-3.138 3.075h-5.198c-1.73 0-3.137-1.38-3.137-3.075v-5.322c0-.53.137-1.028.379-1.464.232-.419.562-.78.958-1.052a3.164 3.164 0 011.8-.557h5.198c1.73 0 3.138 1.378 3.138 3.073v5.322z" fill="#FBFBFB"/><path d="M20.602 25.712c-1.06 0-1.922-.845-1.922-1.883v-3.26c0-.324.084-.629.232-.896a1.94 1.94 0 011.69-.986h3.183c1.059 0 1.921.845 1.921 1.883v3.259c0 1.038-.862 1.883-1.921 1.883h-3.183zm79.613 0c-1.06 0-1.922-.845-1.922-1.883v-3.26c0-.324.084-.629.232-.896a1.939 1.939 0 011.69-.986h3.183c1.059 0 1.921.845 1.921 1.883v3.259c0 1.038-.862 1.883-1.921 1.883h-3.183zm-79.613 79.609c-1.06 0-1.922-.845-1.922-1.883v-3.259c0-.324.084-.63.232-.896a1.94 1.94 0 011.69-.986h3.183c1.059 0 1.921.844 1.921 1.882v3.259c0 1.038-.862 1.883-1.921 1.883h-3.183z" fill="#FBFBFB"/><g clip-path="url(#clip0_2661_23626)"><path d="M77.22 46.781H46.781V77.22h30.44V46.781z" fill="#2C2C2C"/><path d="M67.1 60.748c-.023-2.553 2.147-3.796 2.247-3.853-1.23-1.746-3.134-1.984-3.804-2.003-1.6-.164-3.152.932-3.967.932-.831 0-2.086-.916-3.439-.89-1.74.027-3.369 1.008-4.262 2.533-1.843 3.108-.468 7.675 1.297 10.187.884 1.23 1.916 2.604 3.267 2.556 1.322-.053 1.816-.821 3.41-.821 1.581 0 2.045.82 3.423.79 1.418-.022 2.311-1.236 3.164-2.478 1.02-1.41 1.43-2.798 1.447-2.87-.034-.01-2.755-1.023-2.782-4.083zm-2.602-7.508c.71-.867 1.197-2.045 1.062-3.24-1.029.044-2.316.693-3.056 1.54-.656.746-1.242 1.97-1.09 3.12 1.155.084 2.342-.568 3.084-1.42z" fill="#FBFBFB"/></g><rect x=".5" y=".5" width="123" height="123" rx="19.5" stroke="#D9FF55"/></g><defs><clipPath id="clip0_2661_23626"><path fill="#fff" transform="translate(46.781 46.781)" d="M0 0h30.439v30.439H0z"/></clipPath><filter id="filter0_b_2661_23626" x="-20" y="-20" width="164" height="164" filterUnits="userSpaceOnUse" color-interpolation-filters="sRGB"><feFlood flood-opacity="0" result="BackgroundImageFix"/><feGaussianBlur in="BackgroundImageFix" stdDeviation="10"/><feComposite in2="SourceAlpha" operator="in" result="effect1_backgroundBlur_2661_23626"/><feBlend in="SourceGraphic" in2="effect1_backgroundBlur_2661_23626" result="shape"/></filter></defs></svg>