<svg xmlns="http://www.w3.org/2000/svg" width="147" height="23" fill="none"><path d="M36.425.327c-6.058 0-10.99 4.93-10.99 10.995 0 6.063 4.93 10.994 10.99 10.994 6.062 0 10.99-4.93 10.99-10.994S42.484.327 36.425.327zm0 19.286c-4.57 0-8.287-3.72-8.287-8.291 0-4.57 3.719-8.292 8.287-8.292 4.572 0 8.288 3.721 8.288 8.292 0 4.57-3.719 8.29-8.288 8.29zM15.18 9.529a13.978 13.978 0 01-6.114 1.43 13.95 13.95 0 01-6.193-1.472V.327h-2.7v21.99h2.7V12.47c1.957.781 4.06 1.19 6.193 1.19 2.1 0 4.178-.4 6.113-1.16v9.815h2.702V.327H15.18V9.53zm124.115-.859c-2.974-.723-3.378-1.836-3.378-2.835 0-1.542 1.372-2.796 3.06-2.796h1.349V.335h-1.349c-3.175 0-5.759 2.467-5.759 5.498 0 2.747 1.831 4.584 5.44 5.458 2.221.54 4.813 1.958 4.813 4.183 0 2.285-2.015 4.144-4.492 4.144h-1.349v2.71h1.349c3.967 0 7.194-3.073 7.194-6.848-.003-3.793-3.705-6.04-6.878-6.81zm-19.497-3.786c2.021 0 4.011-.517 5.759-1.493l1.179-.66L125.42.37l-1.18.66c-2.641 1.477-6.061 1.499-8.733.074v-.002h-.005c-.063-.033-.127-.064-.19-.1l-1.176-.665-1.331.765v21.224h12.953v-2.703h-10.253V13.24h8.903v-2.703h-8.903V4.073c1.36.53 2.817.81 4.293.81zM70.569.327l-4.868 16.08L60.833.326h-2.35l-5.91 21.99h2.795l4.29-15.956 4.836 15.955h2.413L71.743 6.36l4.29 15.955h2.796L72.92.327h-2.35zM99.907 17.06L86.812.339h-2.01v21.99h2.702V5.603L100.6 22.327h2.007V.338h-2.7v16.723z" fill="#020203"/></svg>