<svg width="192" height="48" viewBox="0 0 192 48" fill="none" xmlns="http://www.w3.org/2000/svg">
<g clip-path="url(#clip0)">
<path d="M174.322 47.2692L172.795 46.8452L172.776 46.5954L175.963 45.8055L175.933 45.5951L171.45 45.0364L174.376 43.2099L170.546 42.6534L172.51 40.5848L168.404 40.2934L168.389 40.0337L169.738 39.3764C167.962 38.9129 166.357 37.9674 164.52 38.9206L165.576 39.51L163.842 40.3482L166.528 40.7481L163.456 42.0102V41.0395L160.819 40.6813V40.4709L162.085 39.7555L159.427 39.1616L159.395 38.8603L162.656 38.3673C162.139 38.2095 161.735 38.1482 161.389 37.9652C160.931 37.7275 160.516 37.401 160.08 37.1117C160.389 36.8652 160.699 36.6198 161.004 36.3689C161.052 36.3294 161.074 36.2593 161.245 35.981H157.109L157.096 35.6808L158.708 34.9424L156.497 34.2467L156.46 33.998L158.811 33.5488C158.292 33.3537 157.9 33.2814 157.605 33.0711C157.396 32.9221 157.317 32.5868 157.113 32.2088L155.737 31.8352V29.9836L153.303 29.5958L153.194 29.2988L154.811 28.6689L151.959 26.4327L154.697 25.8531L154.692 25.76H150.329C150.874 24.7246 152.323 24.3894 155.159 24.614L154.425 25.1618C155.583 25.5452 156.883 24.8988 158.229 25.6931L156.256 26.3001C156.642 26.7471 156.981 27.2862 157.456 27.6455C157.907 27.9929 158.496 28.1605 159.256 28.5155L157.279 29.0107L157.211 29.2462L159.829 29.8061C159.638 30.3966 159.448 30.9795 159.252 31.5865L161.48 31.6961C161.262 32.1343 161.138 32.394 160.974 32.7292L163.104 33.4677L163.098 33.7076L160.66 33.8588L160.584 34.0232C160.823 34.1207 161.067 34.2094 161.3 34.319C161.534 34.4285 161.763 34.56 162.16 34.7693L160.947 35.4551L160.996 35.6425L164.721 34.5469L163.946 34.1481V33.9103L167.027 33.4655L166.142 32.7435L168.085 31.6917L166.022 31.3334L165.959 31.0968L169.618 29.7897L167.403 29.438L167.357 29.2035C167.854 28.9844 168.356 28.7653 168.847 28.5275C169.134 28.3895 169.568 28.2733 169.651 28.0443C170.177 26.5894 171.402 26.3286 172.692 26.0459L169.369 25.5825C171.19 24.3773 173.193 24.6293 175.219 24.7717L173.767 25.2286L173.802 25.4017L176.975 26.1906L176.927 26.4031C176.091 26.6003 175.247 26.7669 174.427 27.0134C174.154 27.0944 173.791 27.3421 173.729 27.5798C173.481 28.5188 172.871 28.8606 171.984 28.9395C171.766 28.9581 171.562 29.1926 171.32 29.3481L174.084 29.7535L174.13 29.9343L170.355 30.9072L170.341 31.1581L172.591 31.5054L172.637 31.6577L170.194 32.5747L170.014 32.9966L170.928 33.5016L169.631 33.8457L169.442 34.9818L173.77 35.7115V35.8857L172.117 36.5749C172.598 37.7439 173.684 37.7943 174.582 38.3279L172.475 38.7661L173.388 39.0948L172.961 39.9713C173.594 40.0491 174.574 40.335 174.669 40.1543C175.279 38.9841 176.741 39.6634 177.492 38.6883C177.754 38.3487 178.264 37.9992 178.523 37.5565C178.997 36.7458 179.594 36.2341 180.583 36.2308C180.876 36.2308 181.17 36.0216 181.612 35.8496L178.111 34.9446L178.083 34.7003L181.217 34.2324L180.26 33.483L184.058 31.9053L180.71 31.2731L180.728 30.9675L185.091 30.4427C185.091 30.378 185.098 30.3123 185.103 30.2466L181.94 29.5322L181.897 29.2408L185.387 28.6524L183.892 28.2054L183.912 27.8636L187.632 27.1251C187.211 26.7296 186.133 26.9531 186.572 25.8553L184.855 25.3371C187.189 24.2414 189.603 24.6227 191.98 24.5636C191.987 24.6446 191.996 24.7257 192.004 24.8068L189.324 25.1048L189.255 25.2867L190.426 25.8794C190.337 26.1873 190.258 26.459 190.162 26.7877L191.799 27.445L191.768 27.7354L187.757 28.0531C187.757 28.1364 187.757 28.2207 187.757 28.304L189.875 28.751L189.881 29.014L186.064 29.4917L189.445 30.5117C189.445 30.595 189.445 30.6782 189.445 30.7615L184.825 31.237L188.724 32.2724L183.456 33.6758L185.957 34.2686L185.921 34.4789L183.275 34.8624L183.206 35.0815L185.715 36.1136L185.777 36.428C183.834 36.1344 182.567 37.2618 181.22 38.4002L182.385 38.8549C182.385 38.937 182.393 39.0203 182.397 39.1025L178.766 39.7423L182.5 40.6396L182.473 40.8248L177.18 42.4551L180.709 43.3984L180.693 43.6175L175.761 44.6156C175.745 44.7099 175.727 44.8052 175.711 44.8994L179.016 45.5458L179.059 45.834L174.228 46.6119L175.295 47.2692H174.322Z" fill="white"/>
<path d="M175.281 5.91502C173.385 8.65408 171.562 11.2737 169.781 13.9131C169.627 14.141 169.618 14.6482 169.768 14.8739C171.268 17.1331 172.813 19.366 174.355 21.5934C174.67 22.0513 175.025 22.4819 175.415 22.9969H171.452L163.269 11.1137C162.754 11.8117 162.223 12.4997 161.726 13.213C159.843 15.9137 157.824 18.5355 156.153 21.3633C155.281 22.8501 154.282 23.262 152.758 23.0659C152.297 23.0067 151.821 23.0571 151.113 23.0571L163.249 5.41651C164.694 7.53764 166.037 9.51305 167.446 11.5849L175.245 0.26709L191.042 23.1568C189.695 23.1568 188.524 23.2828 187.404 23.0966C186.933 23.0188 186.51 22.322 186.171 21.8333C184.656 19.6563 183.181 17.4508 181.689 15.2596C180.751 13.8813 179.82 12.4975 178.853 11.14" fill="white"/>
<path d="M0 8.85352H7.62616C9.28621 8.85352 10.53 9.2505 11.3574 10.0445C12.1849 10.8384 12.5983 11.9673 12.5976 13.431C12.5976 14.9379 12.1471 16.1146 11.2462 16.9611C10.3453 17.8077 8.96954 18.2324 7.11899 18.2353H4.61038V23.7693H0V8.85352ZM4.6082 15.2081H5.73162C6.61654 15.2081 7.23787 15.054 7.59562 14.7458C7.76845 14.6018 7.90652 14.4203 7.99946 14.2149C8.09241 14.0096 8.13781 13.7858 8.13225 13.5603C8.13684 13.3409 8.09803 13.1227 8.01809 12.9185C7.93814 12.7143 7.81865 12.528 7.66652 12.3705C7.35458 12.044 6.77033 11.8807 5.91377 11.8807H4.60493L4.6082 15.2081Z" fill="white"/>
<path d="M14.4209 16.32C14.4209 13.8855 15.096 11.9901 16.4463 10.6337C17.7966 9.27731 19.6766 8.59912 22.0863 8.59912C24.5586 8.59912 26.4626 9.26562 27.7983 10.5986C29.1341 11.9316 29.8027 13.7982 29.8041 16.1984C29.8041 17.9411 29.5133 19.3705 28.9316 20.4866C28.3612 21.5876 27.4782 22.4936 26.3946 23.0898C25.2908 23.7107 23.9154 24.0211 22.2685 24.0211C20.5961 24.0211 19.2102 23.7534 18.1107 23.218C17.0113 22.6826 16.1224 21.8346 15.444 20.674C14.7612 19.5148 14.4202 18.0635 14.4209 16.32ZM19.0084 16.3408C19.0084 17.8462 19.2869 18.9279 19.8439 19.586C20.4008 20.2441 21.1585 20.5728 22.1169 20.5721C23.1029 20.5721 23.8663 20.25 24.4073 19.6057C24.9483 18.9615 25.2181 17.8053 25.2166 16.137C25.2166 14.7331 24.9349 13.7073 24.3713 13.0594C23.8078 12.4115 23.0443 12.0879 22.0809 12.0887C21.156 12.0887 20.4132 12.4174 19.8526 13.0747C19.292 13.7321 19.0106 14.8208 19.0084 16.3408Z" fill="white"/>
<path d="M32.3359 23.7671V8.85352H39.9817C41.3996 8.85352 42.4831 8.97549 43.232 9.21945C43.9711 9.45538 44.6098 9.93382 45.0459 10.578C45.5047 11.2398 45.7344 12.0432 45.7352 12.9884C45.7352 13.8152 45.5596 14.5292 45.2084 15.1303C44.8555 15.7328 44.3564 16.2356 43.7577 16.5919C43.3665 16.8293 42.8296 17.0261 42.1468 17.1824C42.6929 17.3658 43.091 17.5484 43.3411 17.7302C43.6152 17.9623 43.8615 18.2255 44.0751 18.5147C44.318 18.8025 44.5331 19.1129 44.7176 19.4416L46.9393 23.7627H41.7552L39.3033 19.205C38.9921 18.6155 38.7151 18.2324 38.4722 18.0556C38.1428 17.8254 37.75 17.7044 37.3488 17.7094H36.943V23.7627L32.3359 23.7671ZM36.943 14.8926H38.878C39.0874 14.8926 39.4924 14.825 40.093 14.6899C40.3907 14.6326 40.6563 14.4658 40.8379 14.2221C41.0288 13.9747 41.1304 13.6695 41.1259 13.3565C41.1259 12.8752 40.9739 12.5056 40.67 12.2478C40.366 11.9899 39.7956 11.8614 38.9587 11.8621H36.943V14.8926Z" fill="white"/>
<path d="M47.1816 8.85352H61.1273V12.5381H56.4482V23.7671H51.8607V12.5381H47.1816V8.85352Z" fill="white"/>
<path d="M77.5831 18.3655V15.2627H84.6726V21.6173C83.3158 22.5464 82.116 23.1786 81.0733 23.5138C80.0306 23.8491 78.7945 24.0171 77.365 24.0178C75.6024 24.0178 74.1659 23.7161 73.0556 23.1128C71.9386 22.5029 71.0365 21.5612 70.4728 20.4165C69.862 19.2237 69.5566 17.8538 69.5566 16.3068C69.5566 14.6787 69.8908 13.2632 70.559 12.0602C71.2262 10.859 72.2542 9.9003 73.4962 9.32114C74.5019 8.84052 75.8554 8.59985 77.5569 8.59912C79.1973 8.59912 80.4244 8.74849 81.238 9.04723C82.0219 9.32511 82.72 9.80358 83.2635 10.4354C83.8001 11.0628 84.2036 11.8579 84.4741 12.8206L80.0481 13.6149C79.8941 13.091 79.5676 12.6351 79.1221 12.322C78.6858 12.024 78.1303 11.875 77.4555 11.875C76.4499 11.875 75.6482 12.226 75.0505 12.9279C74.4528 13.6298 74.1525 14.7415 74.1496 16.263C74.1496 17.8772 74.4517 19.0298 75.0559 19.7208C75.6602 20.4117 76.5026 20.7565 77.5831 20.755C78.0808 20.7587 78.576 20.6848 79.0512 20.5359C79.6114 20.3412 80.1481 20.0839 80.6512 19.769V18.3655H77.5831Z" fill="white"/>
<path d="M87.458 23.7671V8.85352H95.1093C96.5272 8.85352 97.6106 8.97549 98.3595 9.21945C99.0982 9.4556 99.7366 9.93402 100.172 10.578C100.632 11.2398 100.862 12.0432 100.862 12.9884C100.862 13.8152 100.686 14.5292 100.335 15.1303C99.9807 15.7333 99.4801 16.2362 98.8798 16.5919C98.4879 16.8293 97.9509 17.0261 97.2688 17.1824C97.8149 17.3658 98.2148 17.5484 98.4686 17.7302C98.7427 17.9623 98.9891 18.2255 99.2027 18.5147C99.4456 18.8025 99.6607 19.1129 99.8451 19.4416L102.067 23.7627H96.8773L94.4254 19.205C94.1142 18.6155 93.8371 18.2324 93.5943 18.0556C93.2649 17.8254 92.8721 17.7044 92.4709 17.7094H92.0651V23.7627L87.458 23.7671ZM92.0651 14.8926H94C94.2094 14.8926 94.6144 14.825 95.2151 14.6899C95.5125 14.6329 95.7779 14.466 95.9589 14.2221C96.1506 13.975 96.2526 13.6697 96.248 13.3565C96.248 12.8752 96.096 12.5056 95.792 12.2478C95.4881 11.9899 94.9177 11.8614 94.0807 11.8621H92.0651V14.8926Z" fill="white"/>
<path d="M102.598 16.32C102.598 13.8855 103.273 11.9901 104.623 10.6337C105.973 9.27731 107.853 8.59912 110.263 8.59912C112.735 8.59912 114.639 9.26562 115.975 10.5986C117.311 11.9316 117.979 13.7982 117.98 16.1984C117.98 17.9411 117.689 19.3705 117.107 20.4866C116.538 21.5868 115.657 22.4927 114.576 23.0898C113.472 23.7107 112.096 24.0211 110.449 24.0211C108.776 24.0211 107.391 23.7534 106.292 23.218C105.193 22.6826 104.301 21.8346 103.616 20.674C102.937 19.5148 102.598 18.0635 102.598 16.32ZM107.185 16.3408C107.185 17.8462 107.464 18.9279 108.021 19.586C108.578 20.2441 109.335 20.5728 110.294 20.5721C111.28 20.5721 112.043 20.25 112.584 19.6057C113.125 18.9615 113.395 17.8053 113.393 16.137C113.393 14.7331 113.112 13.7073 112.548 13.0594C111.985 12.4115 111.221 12.0879 110.258 12.0887C109.333 12.0887 108.59 12.4174 108.029 13.0747C107.469 13.7321 107.187 14.8208 107.185 16.3408Z" fill="white"/>
<path d="M130.113 8.85352H134.694V17.739C134.698 18.5883 134.56 19.4322 134.283 20.2348C134.015 21.0086 133.575 21.7108 132.996 22.288C132.481 22.8292 131.853 23.2506 131.159 23.5228C130.267 23.8551 129.197 24.0213 127.949 24.0213C127.158 24.0172 126.369 23.9664 125.584 23.869C124.73 23.7675 124.016 23.5659 123.442 23.2642C122.84 22.9399 122.306 22.5033 121.867 21.978C121.423 21.4813 121.088 20.8959 120.885 20.26C120.602 19.3105 120.46 18.4705 120.46 17.7401V8.85352H125.041V17.9472C125.041 18.7601 125.266 19.3952 125.715 19.8525C126.164 20.3097 126.787 20.5387 127.583 20.5394C128.373 20.5394 128.991 20.3141 129.438 19.8634C129.884 19.4128 130.109 18.774 130.112 17.9472L130.113 8.85352Z" fill="white"/>
<path d="M137.708 8.85352H145.333C146.995 8.85352 148.239 9.2505 149.065 10.0445C149.892 10.8384 150.306 11.9673 150.306 13.431C150.306 14.9379 149.855 16.1146 148.953 16.9611C148.051 17.8077 146.676 18.2324 144.827 18.2353H142.318V23.7693H137.711L137.708 8.85352ZM142.315 15.2081H143.44C144.325 15.2081 144.946 15.054 145.303 14.7458C145.475 14.6018 145.613 14.4203 145.706 14.2149C145.799 14.0096 145.845 13.7858 145.839 13.5603C145.844 13.3409 145.805 13.1226 145.725 12.9184C145.645 12.7141 145.526 12.5278 145.373 12.3705C145.063 12.0454 144.479 11.8825 143.622 11.8818H142.313L142.315 15.2081Z" fill="white"/>
</g>
<defs>
<clipPath id="clip0">
<rect width="192" height="47" fill="white" transform="translate(0 0.26709)"/>
</clipPath>
</defs>
</svg>
