<svg width="97" height="98" viewBox="0 0 97 98" fill="none" xmlns="http://www.w3.org/2000/svg">
<g filter="url(#filter0_f_4183_12929)">
<path d="M59.1829 60.602H45.6116C46.1757 61.1422 46.9424 61.7068 47.4885 62.4434C48.0631 63.2183 48.1291 64.1926 47.8785 65.1609C47.6833 65.9622 47.2296 66.6728 46.5908 67.1778C45.9519 67.6828 45.1652 67.9526 44.3578 67.9438C43.5504 67.9349 42.7696 67.6478 42.1415 67.1289C41.5133 66.61 41.0747 65.8896 40.8964 65.0841C40.4583 63.2428 41.2789 61.7897 43.5203 60.5744C42.9007 60.5744 42.3831 60.5913 41.87 60.5744C40.0697 60.5023 38.4029 59.0691 38.4495 57.2569C38.535 53.8674 37.4893 50.708 36.8412 47.4687C36.0266 43.3917 35.0859 39.3362 34.2008 35.2791C33.8947 33.9135 33.4911 33.5698 32.1619 33.5698C31.7878 33.5911 31.4127 33.5839 31.0397 33.5483C30.4276 33.4501 30.048 33.0542 30.0045 32.4143C29.9625 31.8006 30.2701 31.3771 30.8222 31.1868C32.663 30.5239 34.9029 31.3111 35.8825 33.0281C36.198 33.6344 36.4331 34.281 36.5817 34.9508C36.8817 36.1062 37.1022 37.2816 37.3663 38.48H64.3273C65.7525 38.48 66.1951 39.037 65.8575 40.4287C64.9064 44.3467 63.9537 48.26 62.9995 52.1687C62.47 54.317 60.7627 55.6642 58.5618 55.6657C52.9359 55.6657 47.3104 55.6657 41.6855 55.6657H40.8123C40.7933 56.1157 40.7963 56.5664 40.8214 57.016C40.8919 57.7173 41.3959 58.1132 42.2031 58.1147C44.653 58.1224 47.1029 58.1147 49.5543 58.1147C54.5311 58.1147 59.5065 58.1147 64.4803 58.1147C65.1029 58.1147 65.625 58.2405 65.9025 58.8819C66.2551 59.689 65.6985 60.556 64.7714 60.5698C63.5216 60.6005 62.2719 60.5775 60.9937 60.625C61.9314 61.0578 62.743 61.6224 63.2096 62.5876C63.4431 63.0417 63.5783 63.542 63.606 64.0543C63.6337 64.5666 63.5532 65.079 63.3701 65.5567C63.09 66.3165 62.5728 66.9606 61.8985 67.3892C61.2242 67.8178 60.4306 68.007 59.6405 67.9275C58.8389 67.8352 58.0896 67.4742 57.5097 66.9008C56.9297 66.3273 56.5516 65.5736 56.4345 64.7573C56.1779 63.0096 57.1126 61.538 59.1829 60.602ZM40.5603 53.2106H58.3488C59.7395 53.2106 60.3981 52.6782 60.7357 51.2926C61.5128 48.1009 62.2899 44.9088 63.0671 41.7161C63.1256 41.4798 63.1616 41.2374 63.2171 40.9688H37.9019C38.7915 45.0597 39.6692 49.106 40.5603 53.2106ZM44.3604 65.4862C44.5981 65.4946 44.8329 65.4306 45.035 65.3023C45.2371 65.174 45.3973 64.9872 45.4954 64.7656C45.5935 64.544 45.625 64.2976 45.5859 64.0576C45.5469 63.8177 45.439 63.595 45.2759 63.4179C45.1129 63.2408 44.9021 63.1172 44.6702 63.0628C44.4384 63.0085 44.196 63.0258 43.9738 63.1126C43.7517 63.1994 43.5597 63.3517 43.4223 63.5503C43.2849 63.7489 43.2083 63.9847 43.2023 64.2279C43.198 64.5503 43.3165 64.8618 43.5326 65.0966C43.7487 65.3314 44.0455 65.4711 44.3604 65.4862V65.4862ZM59.9405 65.4862C60.178 65.499 60.4138 65.4394 60.618 65.3149C60.8223 65.1905 60.9858 65.0068 61.0879 64.7871C61.1899 64.5675 61.2259 64.3218 61.1912 64.0812C61.1565 63.8406 61.0527 63.616 60.893 63.4358C60.7333 63.2557 60.5249 63.1281 60.2942 63.0692C60.0635 63.0104 59.8209 63.023 59.5972 63.1054C59.3735 63.1878 59.1788 63.3362 59.0377 63.532C58.8966 63.7278 58.8156 63.962 58.8049 64.2049C58.7952 64.5273 58.9082 64.8409 59.12 65.0799C59.3318 65.3188 59.6259 65.4645 59.9405 65.4862V65.4862Z" fill="#15F2FD"/>
</g>
<g filter="url(#filter1_f_4183_12929)">
<path d="M59.1829 60.602H45.6116C46.1757 61.1422 46.9424 61.7068 47.4885 62.4434C48.0631 63.2183 48.1291 64.1926 47.8785 65.1609C47.6833 65.9622 47.2296 66.6728 46.5908 67.1778C45.9519 67.6828 45.1652 67.9526 44.3578 67.9438C43.5504 67.9349 42.7696 67.6478 42.1415 67.1289C41.5133 66.61 41.0747 65.8896 40.8964 65.0841C40.4583 63.2428 41.2789 61.7897 43.5203 60.5744C42.9007 60.5744 42.3831 60.5913 41.87 60.5744C40.0697 60.5023 38.4029 59.0691 38.4495 57.2569C38.535 53.8674 37.4893 50.708 36.8412 47.4687C36.0266 43.3917 35.0859 39.3362 34.2008 35.2791C33.8947 33.9135 33.4911 33.5698 32.1619 33.5698C31.7878 33.5911 31.4127 33.5839 31.0397 33.5483C30.4276 33.4501 30.048 33.0542 30.0045 32.4143C29.9625 31.8006 30.2701 31.3771 30.8222 31.1868C32.663 30.5239 34.9029 31.3111 35.8825 33.0281C36.198 33.6344 36.4331 34.281 36.5817 34.9508C36.8817 36.1062 37.1022 37.2816 37.3663 38.48H64.3273C65.7525 38.48 66.1951 39.037 65.8575 40.4287C64.9064 44.3467 63.9537 48.26 62.9995 52.1687C62.47 54.317 60.7627 55.6642 58.5618 55.6657C52.9359 55.6657 47.3104 55.6657 41.6855 55.6657H40.8123C40.7933 56.1157 40.7963 56.5664 40.8214 57.016C40.8919 57.7173 41.3959 58.1132 42.2031 58.1147C44.653 58.1224 47.1029 58.1147 49.5543 58.1147C54.5311 58.1147 59.5065 58.1147 64.4803 58.1147C65.1029 58.1147 65.625 58.2405 65.9025 58.8819C66.2551 59.689 65.6985 60.556 64.7714 60.5698C63.5216 60.6005 62.2719 60.5775 60.9937 60.625C61.9314 61.0578 62.743 61.6224 63.2096 62.5876C63.4431 63.0417 63.5783 63.542 63.606 64.0543C63.6337 64.5666 63.5532 65.079 63.3701 65.5567C63.09 66.3165 62.5728 66.9606 61.8985 67.3892C61.2242 67.8178 60.4306 68.007 59.6405 67.9275C58.8389 67.8352 58.0896 67.4742 57.5097 66.9008C56.9297 66.3273 56.5516 65.5736 56.4345 64.7573C56.1779 63.0096 57.1126 61.538 59.1829 60.602ZM40.5603 53.2106H58.3488C59.7395 53.2106 60.3981 52.6782 60.7357 51.2926C61.5128 48.1009 62.2899 44.9088 63.0671 41.7161C63.1256 41.4798 63.1616 41.2374 63.2171 40.9688H37.9019C38.7915 45.0597 39.6692 49.106 40.5603 53.2106ZM44.3604 65.4862C44.5981 65.4946 44.8329 65.4306 45.035 65.3023C45.2371 65.174 45.3973 64.9872 45.4954 64.7656C45.5935 64.544 45.625 64.2976 45.5859 64.0576C45.5469 63.8177 45.439 63.595 45.2759 63.4179C45.1129 63.2408 44.9021 63.1172 44.6702 63.0628C44.4384 63.0085 44.196 63.0258 43.9738 63.1126C43.7517 63.1994 43.5597 63.3517 43.4223 63.5503C43.2849 63.7489 43.2083 63.9847 43.2023 64.2279C43.198 64.5503 43.3165 64.8618 43.5326 65.0966C43.7487 65.3314 44.0455 65.4711 44.3604 65.4862V65.4862ZM59.9405 65.4862C60.178 65.499 60.4138 65.4394 60.618 65.3149C60.8223 65.1905 60.9858 65.0068 61.0879 64.7871C61.1899 64.5675 61.2259 64.3218 61.1912 64.0812C61.1565 63.8406 61.0527 63.616 60.893 63.4358C60.7333 63.2557 60.5249 63.1281 60.2942 63.0692C60.0635 63.0104 59.8209 63.023 59.5972 63.1054C59.3735 63.1878 59.1788 63.3362 59.0377 63.532C58.8966 63.7278 58.8156 63.962 58.8049 64.2049C58.7952 64.5273 58.9082 64.8409 59.12 65.0799C59.3318 65.3188 59.6259 65.4645 59.9405 65.4862V65.4862Z" fill="#15F2FD"/>
</g>
<g filter="url(#filter2_f_4183_12929)">
<path d="M59.1829 60.602H45.6116C46.1757 61.1422 46.9424 61.7068 47.4885 62.4434C48.0631 63.2183 48.1291 64.1926 47.8785 65.1609C47.6833 65.9622 47.2296 66.6728 46.5908 67.1778C45.9519 67.6828 45.1652 67.9526 44.3578 67.9438C43.5504 67.9349 42.7696 67.6478 42.1415 67.1289C41.5133 66.61 41.0747 65.8896 40.8964 65.0841C40.4583 63.2428 41.2789 61.7897 43.5203 60.5744C42.9007 60.5744 42.3831 60.5913 41.87 60.5744C40.0697 60.5023 38.4029 59.0691 38.4495 57.2569C38.535 53.8674 37.4893 50.708 36.8412 47.4687C36.0266 43.3917 35.0859 39.3362 34.2008 35.2791C33.8947 33.9135 33.4911 33.5698 32.1619 33.5698C31.7878 33.5911 31.4127 33.5839 31.0397 33.5483C30.4276 33.4501 30.048 33.0542 30.0045 32.4143C29.9625 31.8006 30.2701 31.3771 30.8222 31.1868C32.663 30.5239 34.9029 31.3111 35.8825 33.0281C36.198 33.6344 36.4331 34.281 36.5817 34.9508C36.8817 36.1062 37.1022 37.2816 37.3663 38.48H64.3273C65.7525 38.48 66.1951 39.037 65.8575 40.4287C64.9064 44.3467 63.9537 48.26 62.9995 52.1687C62.47 54.317 60.7627 55.6642 58.5618 55.6657C52.9359 55.6657 47.3104 55.6657 41.6855 55.6657H40.8123C40.7933 56.1157 40.7963 56.5664 40.8214 57.016C40.8919 57.7173 41.3959 58.1132 42.2031 58.1147C44.653 58.1224 47.1029 58.1147 49.5543 58.1147C54.5311 58.1147 59.5065 58.1147 64.4803 58.1147C65.1029 58.1147 65.625 58.2405 65.9025 58.8819C66.2551 59.689 65.6985 60.556 64.7714 60.5698C63.5216 60.6005 62.2719 60.5775 60.9937 60.625C61.9314 61.0578 62.743 61.6224 63.2096 62.5876C63.4431 63.0417 63.5783 63.542 63.606 64.0543C63.6337 64.5666 63.5532 65.079 63.3701 65.5567C63.09 66.3165 62.5728 66.9606 61.8985 67.3892C61.2242 67.8178 60.4306 68.007 59.6405 67.9275C58.8389 67.8352 58.0896 67.4742 57.5097 66.9008C56.9297 66.3273 56.5516 65.5736 56.4345 64.7573C56.1779 63.0096 57.1126 61.538 59.1829 60.602ZM40.5603 53.2106H58.3488C59.7395 53.2106 60.3981 52.6782 60.7357 51.2926C61.5128 48.1009 62.2899 44.9088 63.0671 41.7161C63.1256 41.4798 63.1616 41.2374 63.2171 40.9688H37.9019C38.7915 45.0597 39.6692 49.106 40.5603 53.2106ZM44.3604 65.4862C44.5981 65.4946 44.8329 65.4306 45.035 65.3023C45.2371 65.174 45.3973 64.9872 45.4954 64.7656C45.5935 64.544 45.625 64.2976 45.5859 64.0576C45.5469 63.8177 45.439 63.595 45.2759 63.4179C45.1129 63.2408 44.9021 63.1172 44.6702 63.0628C44.4384 63.0085 44.196 63.0258 43.9738 63.1126C43.7517 63.1994 43.5597 63.3517 43.4223 63.5503C43.2849 63.7489 43.2083 63.9847 43.2023 64.2279C43.198 64.5503 43.3165 64.8618 43.5326 65.0966C43.7487 65.3314 44.0455 65.4711 44.3604 65.4862V65.4862ZM59.9405 65.4862C60.178 65.499 60.4138 65.4394 60.618 65.3149C60.8223 65.1905 60.9858 65.0068 61.0879 64.7871C61.1899 64.5675 61.2259 64.3218 61.1912 64.0812C61.1565 63.8406 61.0527 63.616 60.893 63.4358C60.7333 63.2557 60.5249 63.1281 60.2942 63.0692C60.0635 63.0104 59.8209 63.023 59.5972 63.1054C59.3735 63.1878 59.1788 63.3362 59.0377 63.532C58.8966 63.7278 58.8156 63.962 58.8049 64.2049C58.7952 64.5273 58.9082 64.8409 59.12 65.0799C59.3318 65.3188 59.6259 65.4645 59.9405 65.4862V65.4862Z" fill="#15F2FD"/>
</g>
<g filter="url(#filter3_d_4183_12929)">
<path d="M59.1829 60.602H45.6116C46.1757 61.1422 46.9424 61.7068 47.4885 62.4434C48.0631 63.2183 48.1291 64.1926 47.8785 65.1609C47.6833 65.9622 47.2296 66.6728 46.5908 67.1778C45.9519 67.6828 45.1652 67.9526 44.3578 67.9438C43.5504 67.9349 42.7696 67.6478 42.1415 67.1289C41.5133 66.61 41.0747 65.8896 40.8964 65.0841C40.4583 63.2428 41.2789 61.7897 43.5203 60.5744C42.9007 60.5744 42.3831 60.5913 41.87 60.5744C40.0697 60.5023 38.4029 59.0691 38.4495 57.2569C38.535 53.8674 37.4893 50.708 36.8412 47.4687C36.0266 43.3917 35.0859 39.3362 34.2008 35.2791C33.8947 33.9135 33.4911 33.5698 32.1619 33.5698C31.7878 33.5911 31.4127 33.5839 31.0397 33.5483C30.4276 33.4501 30.048 33.0542 30.0045 32.4143C29.9625 31.8006 30.2701 31.3771 30.8222 31.1868C32.663 30.5239 34.9029 31.3111 35.8825 33.0281C36.198 33.6344 36.4331 34.281 36.5817 34.9508C36.8817 36.1062 37.1022 37.2816 37.3663 38.48H64.3273C65.7525 38.48 66.1951 39.037 65.8575 40.4287C64.9064 44.3467 63.9537 48.26 62.9995 52.1687C62.47 54.317 60.7627 55.6642 58.5618 55.6657C52.9359 55.6657 47.3104 55.6657 41.6855 55.6657H40.8123C40.7933 56.1157 40.7963 56.5664 40.8214 57.016C40.8919 57.7173 41.3959 58.1132 42.2031 58.1147C44.653 58.1224 47.1029 58.1147 49.5543 58.1147C54.5311 58.1147 59.5065 58.1147 64.4803 58.1147C65.1029 58.1147 65.625 58.2405 65.9025 58.8819C66.2551 59.689 65.6985 60.556 64.7714 60.5698C63.5216 60.6005 62.2719 60.5775 60.9937 60.625C61.9314 61.0578 62.743 61.6224 63.2096 62.5876C63.4431 63.0417 63.5783 63.542 63.606 64.0543C63.6337 64.5666 63.5532 65.079 63.3701 65.5567C63.09 66.3165 62.5728 66.9606 61.8985 67.3892C61.2242 67.8178 60.4306 68.007 59.6405 67.9275C58.8389 67.8352 58.0896 67.4742 57.5097 66.9008C56.9297 66.3273 56.5516 65.5736 56.4345 64.7573C56.1779 63.0096 57.1126 61.538 59.1829 60.602ZM40.5603 53.2106H58.3488C59.7395 53.2106 60.3981 52.6782 60.7357 51.2926C61.5128 48.1009 62.2899 44.9088 63.0671 41.7161C63.1256 41.4798 63.1616 41.2374 63.2171 40.9688H37.9019C38.7915 45.0597 39.6692 49.106 40.5603 53.2106ZM44.3604 65.4862C44.5981 65.4946 44.8329 65.4306 45.035 65.3023C45.2371 65.174 45.3973 64.9872 45.4954 64.7656C45.5935 64.544 45.625 64.2976 45.5859 64.0576C45.5469 63.8177 45.439 63.595 45.2759 63.4179C45.1129 63.2408 44.9021 63.1172 44.6702 63.0628C44.4384 63.0085 44.196 63.0258 43.9738 63.1126C43.7517 63.1994 43.5597 63.3517 43.4223 63.5503C43.2849 63.7489 43.2083 63.9847 43.2023 64.2279C43.198 64.5503 43.3165 64.8618 43.5326 65.0966C43.7487 65.3314 44.0455 65.4711 44.3604 65.4862V65.4862ZM59.9405 65.4862C60.178 65.499 60.4138 65.4394 60.618 65.3149C60.8223 65.1905 60.9858 65.0068 61.0879 64.7871C61.1899 64.5675 61.2259 64.3218 61.1912 64.0812C61.1565 63.8406 61.0527 63.616 60.893 63.4358C60.7333 63.2557 60.5249 63.1281 60.2942 63.0692C60.0635 63.0104 59.8209 63.023 59.5972 63.1054C59.3735 63.1878 59.1788 63.3362 59.0377 63.532C58.8966 63.7278 58.8156 63.962 58.8049 64.2049C58.7952 64.5273 58.9082 64.8409 59.12 65.0799C59.3318 65.3188 59.6259 65.4645 59.9405 65.4862V65.4862Z" fill="white"/>
</g>
<defs>
<filter id="filter0_f_4183_12929" x="0.000732422" y="0.952881" width="96.0087" height="96.9924" filterUnits="userSpaceOnUse" color-interpolation-filters="sRGB">
<feFlood flood-opacity="0" result="BackgroundImageFix"/>
<feBlend mode="normal" in="SourceGraphic" in2="BackgroundImageFix" result="shape"/>
<feGaussianBlur stdDeviation="15" result="effect1_foregroundBlur_4183_12929"/>
</filter>
<filter id="filter1_f_4183_12929" x="15.0007" y="15.9529" width="66.0087" height="66.9924" filterUnits="userSpaceOnUse" color-interpolation-filters="sRGB">
<feFlood flood-opacity="0" result="BackgroundImageFix"/>
<feBlend mode="normal" in="SourceGraphic" in2="BackgroundImageFix" result="shape"/>
<feGaussianBlur stdDeviation="7.5" result="effect1_foregroundBlur_4183_12929"/>
</filter>
<filter id="filter2_f_4183_12929" x="25.0007" y="25.9529" width="46.0087" height="46.9924" filterUnits="userSpaceOnUse" color-interpolation-filters="sRGB">
<feFlood flood-opacity="0" result="BackgroundImageFix"/>
<feBlend mode="normal" in="SourceGraphic" in2="BackgroundImageFix" result="shape"/>
<feGaussianBlur stdDeviation="2.5" result="effect1_foregroundBlur_4183_12929"/>
</filter>
<filter id="filter3_d_4183_12929" x="26.0007" y="30.9529" width="44.0087" height="44.9924" filterUnits="userSpaceOnUse" color-interpolation-filters="sRGB">
<feFlood flood-opacity="0" result="BackgroundImageFix"/>
<feColorMatrix in="SourceAlpha" type="matrix" values="0 0 0 0 0 0 0 0 0 0 0 0 0 0 0 0 0 0 127 0" result="hardAlpha"/>
<feOffset dy="4"/>
<feGaussianBlur stdDeviation="2"/>
<feComposite in2="hardAlpha" operator="out"/>
<feColorMatrix type="matrix" values="0 0 0 0 0 0 0 0 0 0 0 0 0 0 0 0 0 0 0.25 0"/>
<feBlend mode="normal" in2="BackgroundImageFix" result="effect1_dropShadow_4183_12929"/>
<feBlend mode="normal" in="SourceGraphic" in2="effect1_dropShadow_4183_12929" result="shape"/>
</filter>
</defs>
</svg>
