<svg width="101" height="87" viewBox="0 0 101 87" fill="none" xmlns="http://www.w3.org/2000/svg">
<g filter="url(#filter0_f_4183_12923)">
<path d="M34.9808 42.2228C35.0733 42.1696 35.1537 42.0968 35.2167 42.0093C35.2797 41.9218 35.3238 41.8216 35.3462 41.7153C35.3686 41.609 35.3687 41.4991 35.3465 41.3928C35.3243 41.2864 35.2803 41.1862 35.2174 41.0986C33.4936 38.7522 33.5532 36.3528 35.3992 34.5604C36.2617 33.728 37.4059 33.2715 38.5906 33.2871C39.7752 33.3027 40.9077 33.7891 41.749 34.6439C43.501 36.4218 43.5261 38.8678 41.8681 41.0681C41.8016 41.1542 41.7538 41.2539 41.7279 41.3605C41.702 41.4671 41.6986 41.5782 41.7178 41.6863C41.7371 41.7943 41.7787 41.8969 41.8397 41.9872C41.9008 42.0776 41.9799 42.1535 42.0719 42.2099L43.4149 43.0258C43.527 43.0939 43.6545 43.1307 43.7848 43.1327C43.9151 43.1347 44.0436 43.1017 44.1577 43.0371L46.3516 41.802C46.4551 41.7427 46.5435 41.6592 46.6096 41.5583C46.6757 41.4574 46.7176 41.3419 46.732 41.2212C46.7463 41.1006 46.7327 40.9781 46.6922 40.8639C46.6517 40.7497 46.5855 40.6468 46.4989 40.5638C45.2452 39.3336 44.6011 37.7452 44.7296 35.7842C44.8346 34.1894 45.5132 32.8725 46.6713 31.8157C49.0031 29.6861 52.6482 29.9062 54.7622 32.2654C56.4734 34.1766 57.1755 37.7934 54.4488 40.575C54.3648 40.6585 54.301 40.761 54.2625 40.8742C54.2241 40.9875 54.212 41.1084 54.2272 41.2272C54.2424 41.3461 54.2845 41.4597 54.3502 41.559C54.4159 41.6582 54.5033 41.7403 54.6055 41.7988L56.8307 43.0547C56.9453 43.1186 57.0741 43.1511 57.2046 43.1488C57.335 43.1466 57.4627 43.1097 57.5751 43.0419L58.904 42.2308C58.9988 42.1727 59.08 42.0938 59.1417 41.9999C59.2034 41.9059 59.2442 41.7992 59.2611 41.6872C59.278 41.5753 59.2707 41.4609 59.2395 41.3522C59.2084 41.2436 59.1543 41.1432 59.0811 41.0584C58.665 40.5855 58.3497 40.0289 58.1551 39.4242C57.9606 38.8195 57.8911 38.1798 57.9512 37.546C57.9928 36.9453 58.1516 36.3593 58.4184 35.8227C58.6852 35.2861 59.0544 34.8099 59.5042 34.4223C60.3773 33.641 61.5086 33.2312 62.6669 33.2765C63.8251 33.3219 64.9226 33.8191 65.7349 34.6664C67.4728 36.4652 67.4995 38.7666 65.8211 41.0681C65.7588 41.1569 65.7158 41.2583 65.6949 41.3656C65.6741 41.4729 65.6759 41.5835 65.7002 41.6901C65.7246 41.7966 65.7709 41.8965 65.8361 41.9831C65.9013 42.0698 65.9838 42.1411 66.0781 42.1923C68.7923 43.6939 70.2779 46.0194 70.502 49.2684C70.5091 49.3739 70.495 49.4798 70.4605 49.5794C70.4259 49.679 70.3718 49.7703 70.3014 49.8476C70.231 49.9248 70.1458 49.9864 70.0512 50.0285C69.9566 50.0707 69.8545 50.0924 69.7514 50.0923H61.5822C61.4832 50.0926 61.3853 50.1128 61.294 50.1518C61.2028 50.1908 61.1199 50.2479 61.0502 50.3198C60.9804 50.3917 60.9252 50.477 60.8877 50.5708C60.8502 50.6646 60.8311 50.7651 60.8315 50.8664C60.8315 51.2824 60.8315 51.6695 60.8315 52.071C60.7814 54.4399 59.0215 56.298 56.7163 56.3173C52.8613 56.3494 49.0062 56.3521 45.1512 56.3253C44.4899 56.3216 43.8358 56.1841 43.2263 55.9209C42.6169 55.6577 42.0641 55.2739 41.5996 54.7915C41.1351 54.309 40.7681 53.7374 40.5194 53.1094C40.2708 52.4813 40.1455 51.8092 40.1506 51.1314C40.1506 51.0576 40.1506 50.9837 40.1506 50.9098C40.1517 50.8081 40.133 50.7072 40.0957 50.6129C40.0585 50.5187 40.0033 50.4329 39.9335 50.3606C39.8637 50.2884 39.7806 50.231 39.6891 50.1918C39.5975 50.1526 39.4992 50.1325 39.4 50.1325H31.2746C31.0919 50.1342 30.9149 50.0669 30.7776 49.9433C30.6403 49.8198 30.5522 49.6487 30.5302 49.4628C30.2623 46.8963 32.1114 43.8979 34.9808 42.2228ZM50.4464 55.0325C52.4523 55.0325 54.4566 55.0485 56.4625 55.0325C58.2897 55.0148 59.5089 53.8039 59.5371 51.9345C59.5571 51.1348 59.4861 50.3355 59.3255 49.5527C58.2881 44.77 53.9316 41.6109 49.3118 42.2517C44.6215 42.8941 41.2585 47.0007 41.398 51.8975C41.4544 53.8248 42.6219 55.018 44.5103 55.0325C46.4926 55.0453 48.4719 55.0341 50.4464 55.0325ZM50.4464 31.6423C49.8545 31.6397 49.268 31.7576 48.7209 31.9891C48.1738 32.2207 47.6771 32.5612 47.2594 32.9911C46.8418 33.4209 46.5116 33.9314 46.2879 34.4931C46.0643 35.0547 45.9517 35.6562 45.9567 36.2628C45.9582 36.9034 46.0895 37.5366 46.3422 38.1225C46.5949 38.7084 46.9635 39.2342 47.4247 39.6665C47.8859 40.0988 48.4297 40.4284 49.0215 40.6342C49.6134 40.8401 50.2405 40.9178 50.8632 40.8625C51.9899 40.7517 53.0357 40.214 53.7959 39.3547C54.5562 38.4954 54.9762 37.3762 54.9737 36.2163C54.963 34.9952 54.4805 33.8282 53.6319 32.9709C52.7834 32.1136 51.6379 31.6359 50.4464 31.6423ZM69.1261 48.7931C69.0211 46.3101 67.1657 43.9043 64.7759 43.0306C62.4534 42.1843 59.5402 42.7624 58.2552 44.2625C58.8632 45.3465 59.6421 46.3503 59.9947 47.4745C60.3692 48.6839 60.9914 48.8573 62.0711 48.8188C64.4045 48.732 66.7441 48.7931 69.1261 48.7931ZM31.8043 48.7128C31.8885 48.7431 31.9749 48.7662 32.0628 48.7818C34.3759 48.7818 36.6889 48.785 39.0019 48.7915C40.3481 48.7915 40.3324 48.7915 40.8824 47.4874C41.1204 46.9274 41.3985 46.3863 41.7146 45.8685C42.0499 45.3096 42.4433 44.7892 42.8115 44.2625C41.8856 43.4455 40.756 42.9089 39.5492 42.7126C38.3425 42.5163 37.1063 42.6681 35.979 43.1511C33.5767 44.187 32.2196 46.066 31.798 48.7128H31.8043ZM41.7819 37.9106C41.7757 37.0203 41.4263 36.1686 40.8098 35.5413C40.1933 34.914 39.3598 34.562 38.4911 34.562C37.6222 34.5749 36.7924 34.9344 36.1779 35.5641C35.5635 36.1938 35.2127 37.0442 35.2002 37.9347C35.2001 38.3821 35.2869 38.825 35.4555 39.2377C35.6241 39.6504 35.8712 40.0246 36.1823 40.3385C36.4933 40.6523 36.8623 40.8997 37.2675 41.066C37.6728 41.2323 38.1063 41.3144 38.5428 41.3074C38.9738 41.3047 39.3999 41.2144 39.7967 41.0418C40.1934 40.8692 40.5528 40.6176 40.854 40.3017C41.1552 39.9858 41.3924 39.6119 41.5517 39.2014C41.7109 38.791 41.7892 38.3523 41.7819 37.9106ZM62.2607 41.2833C62.7059 41.3137 63.1525 41.2517 63.5738 41.1009C63.995 40.9501 64.3822 40.7136 64.712 40.4057C65.0419 40.0978 65.3077 39.7247 65.4934 39.3089C65.6792 38.8932 65.781 38.4432 65.7929 37.9861C65.8337 36.1504 64.2885 34.5476 62.4848 34.5524C62.0407 34.5577 61.6022 34.6547 61.1955 34.8375C60.7888 35.0204 60.4222 35.2854 60.1177 35.6167C59.8132 35.948 59.5769 36.3388 59.423 36.7658C59.2691 37.1927 59.2008 37.6471 59.2221 38.1017C59.2633 38.9212 59.5946 39.6972 60.1539 40.2843C60.7133 40.8715 61.4623 41.2295 62.2607 41.2913V41.2833Z" fill="#15F2FD"/>
</g>
<g filter="url(#filter1_f_4183_12923)">
<path d="M34.9808 42.2228C35.0733 42.1696 35.1537 42.0968 35.2167 42.0093C35.2797 41.9218 35.3238 41.8216 35.3462 41.7153C35.3686 41.609 35.3687 41.4991 35.3465 41.3928C35.3243 41.2864 35.2803 41.1862 35.2174 41.0986C33.4936 38.7522 33.5532 36.3528 35.3992 34.5604C36.2617 33.728 37.4059 33.2715 38.5906 33.2871C39.7752 33.3027 40.9077 33.7891 41.749 34.6439C43.501 36.4218 43.5261 38.8678 41.8681 41.0681C41.8016 41.1542 41.7538 41.2539 41.7279 41.3605C41.702 41.4671 41.6986 41.5782 41.7178 41.6863C41.7371 41.7943 41.7787 41.8969 41.8397 41.9872C41.9008 42.0776 41.9799 42.1535 42.0719 42.2099L43.4149 43.0258C43.527 43.0939 43.6545 43.1307 43.7848 43.1327C43.9151 43.1347 44.0436 43.1017 44.1577 43.0371L46.3516 41.802C46.4551 41.7427 46.5435 41.6592 46.6096 41.5583C46.6757 41.4574 46.7176 41.3419 46.732 41.2212C46.7463 41.1006 46.7327 40.9781 46.6922 40.8639C46.6517 40.7497 46.5855 40.6468 46.4989 40.5638C45.2452 39.3336 44.6011 37.7452 44.7296 35.7842C44.8346 34.1894 45.5132 32.8725 46.6713 31.8157C49.0031 29.6861 52.6482 29.9062 54.7622 32.2654C56.4734 34.1766 57.1755 37.7934 54.4488 40.575C54.3648 40.6585 54.301 40.761 54.2625 40.8742C54.2241 40.9875 54.212 41.1084 54.2272 41.2272C54.2424 41.3461 54.2845 41.4597 54.3502 41.559C54.4159 41.6582 54.5033 41.7403 54.6055 41.7988L56.8307 43.0547C56.9453 43.1186 57.0741 43.1511 57.2046 43.1488C57.335 43.1466 57.4627 43.1097 57.5751 43.0419L58.904 42.2308C58.9988 42.1727 59.08 42.0938 59.1417 41.9999C59.2034 41.9059 59.2442 41.7992 59.2611 41.6872C59.278 41.5753 59.2707 41.4609 59.2395 41.3522C59.2084 41.2436 59.1543 41.1432 59.0811 41.0584C58.665 40.5855 58.3497 40.0289 58.1551 39.4242C57.9606 38.8195 57.8911 38.1798 57.9512 37.546C57.9928 36.9453 58.1516 36.3593 58.4184 35.8227C58.6852 35.2861 59.0544 34.8099 59.5042 34.4223C60.3773 33.641 61.5086 33.2312 62.6669 33.2765C63.8251 33.3219 64.9226 33.8191 65.7349 34.6664C67.4728 36.4652 67.4995 38.7666 65.8211 41.0681C65.7588 41.1569 65.7158 41.2583 65.6949 41.3656C65.6741 41.4729 65.6759 41.5835 65.7002 41.6901C65.7246 41.7966 65.7709 41.8965 65.8361 41.9831C65.9013 42.0698 65.9838 42.1411 66.0781 42.1923C68.7923 43.6939 70.2779 46.0194 70.502 49.2684C70.5091 49.3739 70.495 49.4798 70.4605 49.5794C70.4259 49.679 70.3718 49.7703 70.3014 49.8476C70.231 49.9248 70.1458 49.9864 70.0512 50.0285C69.9566 50.0707 69.8545 50.0924 69.7514 50.0923H61.5822C61.4832 50.0926 61.3853 50.1128 61.294 50.1518C61.2028 50.1908 61.1199 50.2479 61.0502 50.3198C60.9804 50.3917 60.9252 50.477 60.8877 50.5708C60.8502 50.6646 60.8311 50.7651 60.8315 50.8664C60.8315 51.2824 60.8315 51.6695 60.8315 52.071C60.7814 54.4399 59.0215 56.298 56.7163 56.3173C52.8613 56.3494 49.0062 56.3521 45.1512 56.3253C44.4899 56.3216 43.8358 56.1841 43.2263 55.9209C42.6169 55.6577 42.0641 55.2739 41.5996 54.7915C41.1351 54.309 40.7681 53.7374 40.5194 53.1094C40.2708 52.4813 40.1455 51.8092 40.1506 51.1314C40.1506 51.0576 40.1506 50.9837 40.1506 50.9098C40.1517 50.8081 40.133 50.7072 40.0957 50.6129C40.0585 50.5187 40.0033 50.4329 39.9335 50.3606C39.8637 50.2884 39.7806 50.231 39.6891 50.1918C39.5975 50.1526 39.4992 50.1325 39.4 50.1325H31.2746C31.0919 50.1342 30.9149 50.0669 30.7776 49.9433C30.6403 49.8198 30.5522 49.6487 30.5302 49.4628C30.2623 46.8963 32.1114 43.8979 34.9808 42.2228ZM50.4464 55.0325C52.4523 55.0325 54.4566 55.0485 56.4625 55.0325C58.2897 55.0148 59.5089 53.8039 59.5371 51.9345C59.5571 51.1348 59.4861 50.3355 59.3255 49.5527C58.2881 44.77 53.9316 41.6109 49.3118 42.2517C44.6215 42.8941 41.2585 47.0007 41.398 51.8975C41.4544 53.8248 42.6219 55.018 44.5103 55.0325C46.4926 55.0453 48.4719 55.0341 50.4464 55.0325ZM50.4464 31.6423C49.8545 31.6397 49.268 31.7576 48.7209 31.9891C48.1738 32.2207 47.6771 32.5612 47.2594 32.9911C46.8418 33.4209 46.5116 33.9314 46.2879 34.4931C46.0643 35.0547 45.9517 35.6562 45.9567 36.2628C45.9582 36.9034 46.0895 37.5366 46.3422 38.1225C46.5949 38.7084 46.9635 39.2342 47.4247 39.6665C47.8859 40.0988 48.4297 40.4284 49.0215 40.6342C49.6134 40.8401 50.2405 40.9178 50.8632 40.8625C51.9899 40.7517 53.0357 40.214 53.7959 39.3547C54.5562 38.4954 54.9762 37.3762 54.9737 36.2163C54.963 34.9952 54.4805 33.8282 53.6319 32.9709C52.7834 32.1136 51.6379 31.6359 50.4464 31.6423ZM69.1261 48.7931C69.0211 46.3101 67.1657 43.9043 64.7759 43.0306C62.4534 42.1843 59.5402 42.7624 58.2552 44.2625C58.8632 45.3465 59.6421 46.3503 59.9947 47.4745C60.3692 48.6839 60.9914 48.8573 62.0711 48.8188C64.4045 48.732 66.7441 48.7931 69.1261 48.7931ZM31.8043 48.7128C31.8885 48.7431 31.9749 48.7662 32.0628 48.7818C34.3759 48.7818 36.6889 48.785 39.0019 48.7915C40.3481 48.7915 40.3324 48.7915 40.8824 47.4874C41.1204 46.9274 41.3985 46.3863 41.7146 45.8685C42.0499 45.3096 42.4433 44.7892 42.8115 44.2625C41.8856 43.4455 40.756 42.9089 39.5492 42.7126C38.3425 42.5163 37.1063 42.6681 35.979 43.1511C33.5767 44.187 32.2196 46.066 31.798 48.7128H31.8043ZM41.7819 37.9106C41.7757 37.0203 41.4263 36.1686 40.8098 35.5413C40.1933 34.914 39.3598 34.562 38.4911 34.562C37.6222 34.5749 36.7924 34.9344 36.1779 35.5641C35.5635 36.1938 35.2127 37.0442 35.2002 37.9347C35.2001 38.3821 35.2869 38.825 35.4555 39.2377C35.6241 39.6504 35.8712 40.0246 36.1823 40.3385C36.4933 40.6523 36.8623 40.8997 37.2675 41.066C37.6728 41.2323 38.1063 41.3144 38.5428 41.3074C38.9738 41.3047 39.3999 41.2144 39.7967 41.0418C40.1934 40.8692 40.5528 40.6176 40.854 40.3017C41.1552 39.9858 41.3924 39.6119 41.5517 39.2014C41.7109 38.791 41.7892 38.3523 41.7819 37.9106ZM62.2607 41.2833C62.7059 41.3137 63.1525 41.2517 63.5738 41.1009C63.995 40.9501 64.3822 40.7136 64.712 40.4057C65.0419 40.0978 65.3077 39.7247 65.4934 39.3089C65.6792 38.8932 65.781 38.4432 65.7929 37.9861C65.8337 36.1504 64.2885 34.5476 62.4848 34.5524C62.0407 34.5577 61.6022 34.6547 61.1955 34.8375C60.7888 35.0204 60.4222 35.2854 60.1177 35.6167C59.8132 35.948 59.5769 36.3388 59.423 36.7658C59.2691 37.1927 59.2008 37.6471 59.2221 38.1017C59.2633 38.9212 59.5946 39.6972 60.1539 40.2843C60.7133 40.8715 61.4623 41.2295 62.2607 41.2913V41.2833Z" fill="#15F2FD"/>
</g>
<g filter="url(#filter2_f_4183_12923)">
<path d="M34.9808 42.2228C35.0733 42.1696 35.1537 42.0968 35.2167 42.0093C35.2797 41.9218 35.3238 41.8216 35.3462 41.7153C35.3686 41.609 35.3687 41.4991 35.3465 41.3928C35.3243 41.2864 35.2803 41.1862 35.2174 41.0986C33.4936 38.7522 33.5532 36.3528 35.3992 34.5604C36.2617 33.728 37.4059 33.2715 38.5906 33.2871C39.7752 33.3027 40.9077 33.7891 41.749 34.6439C43.501 36.4218 43.5261 38.8678 41.8681 41.0681C41.8016 41.1542 41.7538 41.2539 41.7279 41.3605C41.702 41.4671 41.6986 41.5782 41.7178 41.6863C41.7371 41.7943 41.7787 41.8969 41.8397 41.9872C41.9008 42.0776 41.9799 42.1535 42.0719 42.2099L43.4149 43.0258C43.527 43.0939 43.6545 43.1307 43.7848 43.1327C43.9151 43.1347 44.0436 43.1017 44.1577 43.0371L46.3516 41.802C46.4551 41.7427 46.5435 41.6592 46.6096 41.5583C46.6757 41.4574 46.7176 41.3419 46.732 41.2212C46.7463 41.1006 46.7327 40.9781 46.6922 40.8639C46.6517 40.7497 46.5855 40.6468 46.4989 40.5638C45.2452 39.3336 44.6011 37.7452 44.7296 35.7842C44.8346 34.1894 45.5132 32.8725 46.6713 31.8157C49.0031 29.6861 52.6482 29.9062 54.7622 32.2654C56.4734 34.1766 57.1755 37.7934 54.4488 40.575C54.3648 40.6585 54.301 40.761 54.2625 40.8742C54.2241 40.9875 54.212 41.1084 54.2272 41.2272C54.2424 41.3461 54.2845 41.4597 54.3502 41.559C54.4159 41.6582 54.5033 41.7403 54.6055 41.7988L56.8307 43.0547C56.9453 43.1186 57.0741 43.1511 57.2046 43.1488C57.335 43.1466 57.4627 43.1097 57.5751 43.0419L58.904 42.2308C58.9988 42.1727 59.08 42.0938 59.1417 41.9999C59.2034 41.9059 59.2442 41.7992 59.2611 41.6872C59.278 41.5753 59.2707 41.4609 59.2395 41.3522C59.2084 41.2436 59.1543 41.1432 59.0811 41.0584C58.665 40.5855 58.3497 40.0289 58.1551 39.4242C57.9606 38.8195 57.8911 38.1798 57.9512 37.546C57.9928 36.9453 58.1516 36.3593 58.4184 35.8227C58.6852 35.2861 59.0544 34.8099 59.5042 34.4223C60.3773 33.641 61.5086 33.2312 62.6669 33.2765C63.8251 33.3219 64.9226 33.8191 65.7349 34.6664C67.4728 36.4652 67.4995 38.7666 65.8211 41.0681C65.7588 41.1569 65.7158 41.2583 65.6949 41.3656C65.6741 41.4729 65.6759 41.5835 65.7002 41.6901C65.7246 41.7966 65.7709 41.8965 65.8361 41.9831C65.9013 42.0698 65.9838 42.1411 66.0781 42.1923C68.7923 43.6939 70.2779 46.0194 70.502 49.2684C70.5091 49.3739 70.495 49.4798 70.4605 49.5794C70.4259 49.679 70.3718 49.7703 70.3014 49.8476C70.231 49.9248 70.1458 49.9864 70.0512 50.0285C69.9566 50.0707 69.8545 50.0924 69.7514 50.0923H61.5822C61.4832 50.0926 61.3853 50.1128 61.294 50.1518C61.2028 50.1908 61.1199 50.2479 61.0502 50.3198C60.9804 50.3917 60.9252 50.477 60.8877 50.5708C60.8502 50.6646 60.8311 50.7651 60.8315 50.8664C60.8315 51.2824 60.8315 51.6695 60.8315 52.071C60.7814 54.4399 59.0215 56.298 56.7163 56.3173C52.8613 56.3494 49.0062 56.3521 45.1512 56.3253C44.4899 56.3216 43.8358 56.1841 43.2263 55.9209C42.6169 55.6577 42.0641 55.2739 41.5996 54.7915C41.1351 54.309 40.7681 53.7374 40.5194 53.1094C40.2708 52.4813 40.1455 51.8092 40.1506 51.1314C40.1506 51.0576 40.1506 50.9837 40.1506 50.9098C40.1517 50.8081 40.133 50.7072 40.0957 50.6129C40.0585 50.5187 40.0033 50.4329 39.9335 50.3606C39.8637 50.2884 39.7806 50.231 39.6891 50.1918C39.5975 50.1526 39.4992 50.1325 39.4 50.1325H31.2746C31.0919 50.1342 30.9149 50.0669 30.7776 49.9433C30.6403 49.8198 30.5522 49.6487 30.5302 49.4628C30.2623 46.8963 32.1114 43.8979 34.9808 42.2228ZM50.4464 55.0325C52.4523 55.0325 54.4566 55.0485 56.4625 55.0325C58.2897 55.0148 59.5089 53.8039 59.5371 51.9345C59.5571 51.1348 59.4861 50.3355 59.3255 49.5527C58.2881 44.77 53.9316 41.6109 49.3118 42.2517C44.6215 42.8941 41.2585 47.0007 41.398 51.8975C41.4544 53.8248 42.6219 55.018 44.5103 55.0325C46.4926 55.0453 48.4719 55.0341 50.4464 55.0325ZM50.4464 31.6423C49.8545 31.6397 49.268 31.7576 48.7209 31.9891C48.1738 32.2207 47.6771 32.5612 47.2594 32.9911C46.8418 33.4209 46.5116 33.9314 46.2879 34.4931C46.0643 35.0547 45.9517 35.6562 45.9567 36.2628C45.9582 36.9034 46.0895 37.5366 46.3422 38.1225C46.5949 38.7084 46.9635 39.2342 47.4247 39.6665C47.8859 40.0988 48.4297 40.4284 49.0215 40.6342C49.6134 40.8401 50.2405 40.9178 50.8632 40.8625C51.9899 40.7517 53.0357 40.214 53.7959 39.3547C54.5562 38.4954 54.9762 37.3762 54.9737 36.2163C54.963 34.9952 54.4805 33.8282 53.6319 32.9709C52.7834 32.1136 51.6379 31.6359 50.4464 31.6423ZM69.1261 48.7931C69.0211 46.3101 67.1657 43.9043 64.7759 43.0306C62.4534 42.1843 59.5402 42.7624 58.2552 44.2625C58.8632 45.3465 59.6421 46.3503 59.9947 47.4745C60.3692 48.6839 60.9914 48.8573 62.0711 48.8188C64.4045 48.732 66.7441 48.7931 69.1261 48.7931ZM31.8043 48.7128C31.8885 48.7431 31.9749 48.7662 32.0628 48.7818C34.3759 48.7818 36.6889 48.785 39.0019 48.7915C40.3481 48.7915 40.3324 48.7915 40.8824 47.4874C41.1204 46.9274 41.3985 46.3863 41.7146 45.8685C42.0499 45.3096 42.4433 44.7892 42.8115 44.2625C41.8856 43.4455 40.756 42.9089 39.5492 42.7126C38.3425 42.5163 37.1063 42.6681 35.979 43.1511C33.5767 44.187 32.2196 46.066 31.798 48.7128H31.8043ZM41.7819 37.9106C41.7757 37.0203 41.4263 36.1686 40.8098 35.5413C40.1933 34.914 39.3598 34.562 38.4911 34.562C37.6222 34.5749 36.7924 34.9344 36.1779 35.5641C35.5635 36.1938 35.2127 37.0442 35.2002 37.9347C35.2001 38.3821 35.2869 38.825 35.4555 39.2377C35.6241 39.6504 35.8712 40.0246 36.1823 40.3385C36.4933 40.6523 36.8623 40.8997 37.2675 41.066C37.6728 41.2323 38.1063 41.3144 38.5428 41.3074C38.9738 41.3047 39.3999 41.2144 39.7967 41.0418C40.1934 40.8692 40.5528 40.6176 40.854 40.3017C41.1552 39.9858 41.3924 39.6119 41.5517 39.2014C41.7109 38.791 41.7892 38.3523 41.7819 37.9106ZM62.2607 41.2833C62.7059 41.3137 63.1525 41.2517 63.5738 41.1009C63.995 40.9501 64.3822 40.7136 64.712 40.4057C65.0419 40.0978 65.3077 39.7247 65.4934 39.3089C65.6792 38.8932 65.781 38.4432 65.7929 37.9861C65.8337 36.1504 64.2885 34.5476 62.4848 34.5524C62.0407 34.5577 61.6022 34.6547 61.1955 34.8375C60.7888 35.0204 60.4222 35.2854 60.1177 35.6167C59.8132 35.948 59.5769 36.3388 59.423 36.7658C59.2691 37.1927 59.2008 37.6471 59.2221 38.1017C59.2633 38.9212 59.5946 39.6972 60.1539 40.2843C60.7133 40.8715 61.4623 41.2295 62.2607 41.2913V41.2833Z" fill="#15F2FD"/>
</g>
<g filter="url(#filter3_d_4183_12923)">
<path d="M34.9808 42.2228C35.0733 42.1696 35.1537 42.0968 35.2167 42.0093C35.2797 41.9218 35.3238 41.8216 35.3462 41.7153C35.3686 41.609 35.3687 41.4991 35.3465 41.3928C35.3243 41.2864 35.2803 41.1862 35.2174 41.0986C33.4936 38.7522 33.5532 36.3528 35.3992 34.5604C36.2617 33.728 37.4059 33.2715 38.5906 33.2871C39.7752 33.3027 40.9077 33.7891 41.749 34.6439C43.501 36.4218 43.5261 38.8678 41.8681 41.0681C41.8016 41.1542 41.7538 41.2539 41.7279 41.3605C41.702 41.4671 41.6986 41.5782 41.7178 41.6863C41.7371 41.7943 41.7787 41.8969 41.8397 41.9872C41.9008 42.0776 41.9799 42.1535 42.0719 42.2099L43.4149 43.0258C43.527 43.0939 43.6545 43.1307 43.7848 43.1327C43.9151 43.1347 44.0436 43.1017 44.1577 43.0371L46.3516 41.802C46.4551 41.7427 46.5435 41.6592 46.6096 41.5583C46.6757 41.4574 46.7176 41.3419 46.732 41.2212C46.7463 41.1006 46.7327 40.9781 46.6922 40.8639C46.6517 40.7497 46.5855 40.6468 46.4989 40.5638C45.2452 39.3336 44.6011 37.7452 44.7296 35.7842C44.8346 34.1894 45.5132 32.8725 46.6713 31.8157C49.0031 29.6861 52.6482 29.9062 54.7622 32.2654C56.4734 34.1766 57.1755 37.7934 54.4488 40.575C54.3648 40.6585 54.301 40.761 54.2625 40.8742C54.2241 40.9875 54.212 41.1084 54.2272 41.2272C54.2424 41.3461 54.2845 41.4597 54.3502 41.559C54.4159 41.6582 54.5033 41.7403 54.6055 41.7988L56.8307 43.0547C56.9453 43.1186 57.0741 43.1511 57.2046 43.1488C57.335 43.1466 57.4627 43.1097 57.5751 43.0419L58.904 42.2308C58.9988 42.1727 59.08 42.0938 59.1417 41.9999C59.2034 41.9059 59.2442 41.7992 59.2611 41.6872C59.278 41.5753 59.2707 41.4609 59.2395 41.3522C59.2084 41.2436 59.1543 41.1432 59.0811 41.0584C58.665 40.5855 58.3497 40.0289 58.1551 39.4242C57.9606 38.8195 57.8911 38.1798 57.9512 37.546C57.9928 36.9453 58.1516 36.3593 58.4184 35.8227C58.6852 35.2861 59.0544 34.8099 59.5042 34.4223C60.3773 33.641 61.5086 33.2312 62.6669 33.2765C63.8251 33.3219 64.9226 33.8191 65.7349 34.6664C67.4728 36.4652 67.4995 38.7666 65.8211 41.0681C65.7588 41.1569 65.7158 41.2583 65.6949 41.3656C65.6741 41.4729 65.6759 41.5835 65.7002 41.6901C65.7246 41.7966 65.7709 41.8965 65.8361 41.9831C65.9013 42.0698 65.9838 42.1411 66.0781 42.1923C68.7923 43.6939 70.2779 46.0194 70.502 49.2684C70.5091 49.3739 70.495 49.4798 70.4605 49.5794C70.4259 49.679 70.3718 49.7703 70.3014 49.8476C70.231 49.9248 70.1458 49.9864 70.0512 50.0285C69.9566 50.0707 69.8545 50.0924 69.7514 50.0923H61.5822C61.4832 50.0926 61.3853 50.1128 61.294 50.1518C61.2028 50.1908 61.1199 50.2479 61.0502 50.3198C60.9804 50.3917 60.9252 50.477 60.8877 50.5708C60.8502 50.6646 60.8311 50.7651 60.8315 50.8664C60.8315 51.2824 60.8315 51.6695 60.8315 52.071C60.7814 54.4399 59.0215 56.298 56.7163 56.3173C52.8613 56.3494 49.0062 56.3521 45.1512 56.3253C44.4899 56.3216 43.8358 56.1841 43.2263 55.9209C42.6169 55.6577 42.0641 55.2739 41.5996 54.7915C41.1351 54.309 40.7681 53.7374 40.5194 53.1094C40.2708 52.4813 40.1455 51.8092 40.1506 51.1314C40.1506 51.0576 40.1506 50.9837 40.1506 50.9098C40.1517 50.8081 40.133 50.7072 40.0957 50.6129C40.0585 50.5187 40.0033 50.4329 39.9335 50.3606C39.8637 50.2884 39.7806 50.231 39.6891 50.1918C39.5975 50.1526 39.4992 50.1325 39.4 50.1325H31.2746C31.0919 50.1342 30.9149 50.0669 30.7776 49.9433C30.6403 49.8198 30.5522 49.6487 30.5302 49.4628C30.2623 46.8963 32.1114 43.8979 34.9808 42.2228ZM50.4464 55.0325C52.4523 55.0325 54.4566 55.0485 56.4625 55.0325C58.2897 55.0148 59.5089 53.8039 59.5371 51.9345C59.5571 51.1348 59.4861 50.3355 59.3255 49.5527C58.2881 44.77 53.9316 41.6109 49.3118 42.2517C44.6215 42.8941 41.2585 47.0007 41.398 51.8975C41.4544 53.8248 42.6219 55.018 44.5103 55.0325C46.4926 55.0453 48.4719 55.0341 50.4464 55.0325ZM50.4464 31.6423C49.8545 31.6397 49.268 31.7576 48.7209 31.9891C48.1738 32.2207 47.6771 32.5612 47.2594 32.9911C46.8418 33.4209 46.5116 33.9314 46.2879 34.4931C46.0643 35.0547 45.9517 35.6562 45.9567 36.2628C45.9582 36.9034 46.0895 37.5366 46.3422 38.1225C46.5949 38.7084 46.9635 39.2342 47.4247 39.6665C47.8859 40.0988 48.4297 40.4284 49.0215 40.6342C49.6134 40.8401 50.2405 40.9178 50.8632 40.8625C51.9899 40.7517 53.0357 40.214 53.7959 39.3547C54.5562 38.4954 54.9762 37.3762 54.9737 36.2163C54.963 34.9952 54.4805 33.8282 53.6319 32.9709C52.7834 32.1136 51.6379 31.6359 50.4464 31.6423ZM69.1261 48.7931C69.0211 46.3101 67.1657 43.9043 64.7759 43.0306C62.4534 42.1843 59.5402 42.7624 58.2552 44.2625C58.8632 45.3465 59.6421 46.3503 59.9947 47.4745C60.3692 48.6839 60.9914 48.8573 62.0711 48.8188C64.4045 48.732 66.7441 48.7931 69.1261 48.7931ZM31.8043 48.7128C31.8885 48.7431 31.9749 48.7662 32.0628 48.7818C34.3759 48.7818 36.6889 48.785 39.0019 48.7915C40.3481 48.7915 40.3324 48.7915 40.8824 47.4874C41.1204 46.9274 41.3985 46.3863 41.7146 45.8685C42.0499 45.3096 42.4433 44.7892 42.8115 44.2625C41.8856 43.4455 40.756 42.9089 39.5492 42.7126C38.3425 42.5163 37.1063 42.6681 35.979 43.1511C33.5767 44.187 32.2196 46.066 31.798 48.7128H31.8043ZM41.7819 37.9106C41.7757 37.0203 41.4263 36.1686 40.8098 35.5413C40.1933 34.914 39.3598 34.562 38.4911 34.562C37.6222 34.5749 36.7924 34.9344 36.1779 35.5641C35.5635 36.1938 35.2127 37.0442 35.2002 37.9347C35.2001 38.3821 35.2869 38.825 35.4555 39.2377C35.6241 39.6504 35.8712 40.0246 36.1823 40.3385C36.4933 40.6523 36.8623 40.8997 37.2675 41.066C37.6728 41.2323 38.1063 41.3144 38.5428 41.3074C38.9738 41.3047 39.3999 41.2144 39.7967 41.0418C40.1934 40.8692 40.5528 40.6176 40.854 40.3017C41.1552 39.9858 41.3924 39.6119 41.5517 39.2014C41.7109 38.791 41.7892 38.3523 41.7819 37.9106ZM62.2607 41.2833C62.7059 41.3137 63.1525 41.2517 63.5738 41.1009C63.995 40.9501 64.3822 40.7136 64.712 40.4057C65.0419 40.0978 65.3077 39.7247 65.4934 39.3089C65.6792 38.8932 65.781 38.4432 65.7929 37.9861C65.8337 36.1504 64.2885 34.5476 62.4848 34.5524C62.0407 34.5577 61.6022 34.6547 61.1955 34.8375C60.7888 35.0204 60.4222 35.2854 60.1177 35.6167C59.8132 35.948 59.5769 36.3388 59.423 36.7658C59.2691 37.1927 59.2008 37.6471 59.2221 38.1017C59.2633 38.9212 59.5946 39.6972 60.1539 40.2843C60.7133 40.8715 61.4623 41.2295 62.2607 41.2913V41.2833Z" fill="white"/>
</g>
<defs>
<filter id="filter0_f_4183_12923" x="0.504517" y="0.3479" width="99.9993" height="85.9956" filterUnits="userSpaceOnUse" color-interpolation-filters="sRGB">
<feFlood flood-opacity="0" result="BackgroundImageFix"/>
<feBlend mode="normal" in="SourceGraphic" in2="BackgroundImageFix" result="shape"/>
<feGaussianBlur stdDeviation="15" result="effect1_foregroundBlur_4183_12923"/>
</filter>
<filter id="filter1_f_4183_12923" x="15.5045" y="15.3479" width="69.9993" height="55.9956" filterUnits="userSpaceOnUse" color-interpolation-filters="sRGB">
<feFlood flood-opacity="0" result="BackgroundImageFix"/>
<feBlend mode="normal" in="SourceGraphic" in2="BackgroundImageFix" result="shape"/>
<feGaussianBlur stdDeviation="7.5" result="effect1_foregroundBlur_4183_12923"/>
</filter>
<filter id="filter2_f_4183_12923" x="25.5045" y="25.3479" width="49.9993" height="35.9956" filterUnits="userSpaceOnUse" color-interpolation-filters="sRGB">
<feFlood flood-opacity="0" result="BackgroundImageFix"/>
<feBlend mode="normal" in="SourceGraphic" in2="BackgroundImageFix" result="shape"/>
<feGaussianBlur stdDeviation="2.5" result="effect1_foregroundBlur_4183_12923"/>
</filter>
<filter id="filter3_d_4183_12923" x="26.5045" y="30.3479" width="47.9993" height="33.9956" filterUnits="userSpaceOnUse" color-interpolation-filters="sRGB">
<feFlood flood-opacity="0" result="BackgroundImageFix"/>
<feColorMatrix in="SourceAlpha" type="matrix" values="0 0 0 0 0 0 0 0 0 0 0 0 0 0 0 0 0 0 127 0" result="hardAlpha"/>
<feOffset dy="4"/>
<feGaussianBlur stdDeviation="2"/>
<feComposite in2="hardAlpha" operator="out"/>
<feColorMatrix type="matrix" values="0 0 0 0 0 0 0 0 0 0 0 0 0 0 0 0 0 0 0.25 0"/>
<feBlend mode="normal" in2="BackgroundImageFix" result="effect1_dropShadow_4183_12923"/>
<feBlend mode="normal" in="SourceGraphic" in2="effect1_dropShadow_4183_12923" result="shape"/>
</filter>
</defs>
</svg>
