<svg width="88" height="88" viewBox="0 0 88 88" fill="none" xmlns="http://www.w3.org/2000/svg">
<g filter="url(#filter0_f_4183_12917)">
<path d="M49.1679 51.729C43.3863 55.8688 36.3215 54.3629 32.5962 49.7266C28.958 45.2014 29.1576 38.5193 33.1021 34.258C35.0417 32.1531 37.6728 30.8138 40.517 30.4835C43.3612 30.1532 46.2295 30.8538 48.6005 32.4581C53.1033 35.4714 56.1051 42.884 51.3952 49.5361L55.952 54.0734C56.1471 54.2669 56.3498 54.4544 56.5314 54.6599C57.1753 55.3873 57.1648 56.3098 56.5104 56.9412C55.88 57.5412 54.9644 57.5727 54.286 56.9232C53.1483 55.8343 52.0436 54.7109 50.9374 53.5919C50.3341 52.989 49.7637 52.3605 49.1679 51.729ZM41.8344 50.9566C42.9736 50.9667 44.1036 50.7517 45.1595 50.324C46.2153 49.8964 47.1762 49.2645 47.987 48.4646C48.7977 47.6647 49.4423 46.7126 49.8837 45.663C50.3252 44.6135 50.5547 43.4871 50.5592 42.3486C50.5689 41.2035 50.352 40.0678 49.9208 39.0068C49.4897 37.9459 48.8528 36.9806 48.047 36.1665C47.2411 35.3524 46.2822 34.7056 45.2252 34.2632C44.1683 33.8209 43.0343 33.5918 41.8884 33.589C37.1245 33.574 33.1996 37.4813 33.1831 42.2556C33.1775 44.5553 34.0854 46.7633 35.7075 48.3947C37.3295 50.026 39.5331 50.9474 41.8344 50.9566V50.9566Z" fill="#15F2FD"/>
</g>
<g filter="url(#filter1_f_4183_12917)">
<path d="M49.1679 51.729C43.3863 55.8688 36.3215 54.3629 32.5962 49.7266C28.958 45.2014 29.1576 38.5193 33.1021 34.258C35.0417 32.1531 37.6728 30.8138 40.517 30.4835C43.3612 30.1532 46.2295 30.8538 48.6005 32.4581C53.1033 35.4714 56.1051 42.884 51.3952 49.5361L55.952 54.0734C56.1471 54.2669 56.3498 54.4544 56.5314 54.6599C57.1753 55.3873 57.1648 56.3098 56.5104 56.9412C55.88 57.5412 54.9644 57.5727 54.286 56.9232C53.1483 55.8343 52.0436 54.7109 50.9374 53.5919C50.3341 52.989 49.7637 52.3605 49.1679 51.729ZM41.8344 50.9566C42.9736 50.9667 44.1036 50.7517 45.1595 50.324C46.2153 49.8964 47.1762 49.2645 47.987 48.4646C48.7977 47.6647 49.4423 46.7126 49.8837 45.663C50.3252 44.6135 50.5547 43.4871 50.5592 42.3486C50.5689 41.2035 50.352 40.0678 49.9208 39.0068C49.4897 37.9459 48.8528 36.9806 48.047 36.1665C47.2411 35.3524 46.2822 34.7056 45.2252 34.2632C44.1683 33.8209 43.0343 33.5918 41.8884 33.589C37.1245 33.574 33.1996 37.4813 33.1831 42.2556C33.1775 44.5553 34.0854 46.7633 35.7075 48.3947C37.3295 50.026 39.5331 50.9474 41.8344 50.9566V50.9566Z" fill="#15F2FD"/>
</g>
<g filter="url(#filter2_f_4183_12917)">
<path d="M49.1679 51.729C43.3863 55.8688 36.3215 54.3629 32.5962 49.7266C28.958 45.2014 29.1576 38.5193 33.1021 34.258C35.0417 32.1531 37.6728 30.8138 40.517 30.4835C43.3612 30.1532 46.2295 30.8538 48.6005 32.4581C53.1033 35.4714 56.1051 42.884 51.3952 49.5361L55.952 54.0734C56.1471 54.2669 56.3498 54.4544 56.5314 54.6599C57.1753 55.3873 57.1648 56.3098 56.5104 56.9412C55.88 57.5412 54.9644 57.5727 54.286 56.9232C53.1483 55.8343 52.0436 54.7109 50.9374 53.5919C50.3341 52.989 49.7637 52.3605 49.1679 51.729ZM41.8344 50.9566C42.9736 50.9667 44.1036 50.7517 45.1595 50.324C46.2153 49.8964 47.1762 49.2645 47.987 48.4646C48.7977 47.6647 49.4423 46.7126 49.8837 45.663C50.3252 44.6135 50.5547 43.4871 50.5592 42.3486C50.5689 41.2035 50.352 40.0678 49.9208 39.0068C49.4897 37.9459 48.8528 36.9806 48.047 36.1665C47.2411 35.3524 46.2822 34.7056 45.2252 34.2632C44.1683 33.8209 43.0343 33.5918 41.8884 33.589C37.1245 33.574 33.1996 37.4813 33.1831 42.2556C33.1775 44.5553 34.0854 46.7633 35.7075 48.3947C37.3295 50.026 39.5331 50.9474 41.8344 50.9566V50.9566Z" fill="#15F2FD"/>
</g>
<g filter="url(#filter3_d_4183_12917)">
<path d="M49.1679 51.729C43.3863 55.8688 36.3215 54.3629 32.5962 49.7266C28.958 45.2014 29.1576 38.5193 33.1021 34.258C35.0417 32.1531 37.6728 30.8138 40.517 30.4835C43.3612 30.1532 46.2295 30.8538 48.6005 32.4581C53.1033 35.4714 56.1051 42.884 51.3952 49.5361L55.952 54.0734C56.1471 54.2669 56.3498 54.4544 56.5314 54.6599C57.1753 55.3873 57.1648 56.3098 56.5104 56.9412C55.88 57.5412 54.9644 57.5727 54.286 56.9232C53.1483 55.8343 52.0436 54.7109 50.9374 53.5919C50.3341 52.989 49.7637 52.3605 49.1679 51.729ZM41.8344 50.9566C42.9736 50.9667 44.1036 50.7517 45.1595 50.324C46.2153 49.8964 47.1762 49.2645 47.987 48.4646C48.7977 47.6647 49.4423 46.7126 49.8837 45.663C50.3252 44.6135 50.5547 43.4871 50.5592 42.3486C50.5689 41.2035 50.352 40.0678 49.9208 39.0068C49.4897 37.9459 48.8528 36.9806 48.047 36.1665C47.2411 35.3524 46.2822 34.7056 45.2252 34.2632C44.1683 33.8209 43.0343 33.5918 41.8884 33.589C37.1245 33.574 33.1996 37.4813 33.1831 42.2556C33.1775 44.5553 34.0854 46.7633 35.7075 48.3947C37.3295 50.026 39.5331 50.9474 41.8344 50.9566V50.9566Z" fill="white"/>
</g>
<defs>
<filter id="filter0_f_4183_12917" x="-0.000488281" y="0.403564" width="87.0083" height="86.9973" filterUnits="userSpaceOnUse" color-interpolation-filters="sRGB">
<feFlood flood-opacity="0" result="BackgroundImageFix"/>
<feBlend mode="normal" in="SourceGraphic" in2="BackgroundImageFix" result="shape"/>
<feGaussianBlur stdDeviation="15" result="effect1_foregroundBlur_4183_12917"/>
</filter>
<filter id="filter1_f_4183_12917" x="14.9995" y="15.4036" width="57.0083" height="56.9973" filterUnits="userSpaceOnUse" color-interpolation-filters="sRGB">
<feFlood flood-opacity="0" result="BackgroundImageFix"/>
<feBlend mode="normal" in="SourceGraphic" in2="BackgroundImageFix" result="shape"/>
<feGaussianBlur stdDeviation="7.5" result="effect1_foregroundBlur_4183_12917"/>
</filter>
<filter id="filter2_f_4183_12917" x="24.9995" y="25.4036" width="37.0083" height="36.9973" filterUnits="userSpaceOnUse" color-interpolation-filters="sRGB">
<feFlood flood-opacity="0" result="BackgroundImageFix"/>
<feBlend mode="normal" in="SourceGraphic" in2="BackgroundImageFix" result="shape"/>
<feGaussianBlur stdDeviation="2.5" result="effect1_foregroundBlur_4183_12917"/>
</filter>
<filter id="filter3_d_4183_12917" x="25.9995" y="30.4036" width="35.0083" height="34.9973" filterUnits="userSpaceOnUse" color-interpolation-filters="sRGB">
<feFlood flood-opacity="0" result="BackgroundImageFix"/>
<feColorMatrix in="SourceAlpha" type="matrix" values="0 0 0 0 0 0 0 0 0 0 0 0 0 0 0 0 0 0 127 0" result="hardAlpha"/>
<feOffset dy="4"/>
<feGaussianBlur stdDeviation="2"/>
<feComposite in2="hardAlpha" operator="out"/>
<feColorMatrix type="matrix" values="0 0 0 0 0 0 0 0 0 0 0 0 0 0 0 0 0 0 0.25 0"/>
<feBlend mode="normal" in2="BackgroundImageFix" result="effect1_dropShadow_4183_12917"/>
<feBlend mode="normal" in="SourceGraphic" in2="effect1_dropShadow_4183_12917" result="shape"/>
</filter>
</defs>
</svg>
