<svg width="100" height="94" viewBox="0 0 100 94" fill="none" xmlns="http://www.w3.org/2000/svg">
<g filter="url(#filter0_f_4183_12909)">
<path d="M39.7581 56.337C38.9875 55.7895 38.1369 55.3848 37.5559 54.7294C36.6681 53.7171 35.8813 52.6155 35.2073 51.4413C34.6694 50.5193 34.7696 50.4003 35.1549 49.3942C33.5676 47.8819 32.5705 46.0188 32.2792 43.7828C32.1498 42.791 32.045 41.7833 33.2439 41.3295C31.9356 38.5571 31.9202 35.8292 33.2316 33.1156C33.8989 31.7349 34.7835 31.6381 35.7744 32.7982C39.1072 36.6999 43.2681 39.0469 48.2571 39.8393C48.3819 39.8584 48.5083 39.86 48.6454 39.8727C48.7441 39.0967 48.7811 38.3286 48.946 37.5907C50.3607 31.2811 57.9119 28.4643 62.885 32.4633C64.1995 33.5202 65.4278 33.498 66.8209 33.0077C67.1584 32.8886 67.4589 32.6173 67.7995 32.5601C68.2726 32.4824 68.8906 32.3586 69.2157 32.5935C69.5409 32.8283 69.7505 33.4901 69.732 33.9503C69.6688 35.5007 69.0015 36.8448 68.1462 38.0953C68.059 38.2576 67.9483 38.4053 67.818 38.5333C66.4896 39.56 66.3956 41.0216 66.2769 42.5784C65.494 53.0743 57.4434 61.8166 47.2924 63.3258C41.6952 64.1589 36.4663 63.1671 31.6058 60.1662C31.1157 59.8631 30.7197 59.514 30.7304 58.8776C30.7443 58.0366 31.4054 57.5573 32.3594 57.6605C34.7866 57.9255 37.1136 57.5113 39.3589 56.5496C39.4954 56.4858 39.6286 56.4148 39.7581 56.337V56.337ZM66.6714 36.0038L66.4973 35.8546C65.7021 35.8546 64.8899 35.9657 64.1209 35.8213C63.3966 35.6864 62.5799 35.4468 62.0482 34.9675C59.8552 33.0013 57.1029 32.5744 54.5524 33.9741C52.0867 35.3293 50.7521 38.0191 51.3161 40.7978C51.5766 42.0674 51.0202 42.6434 49.7643 42.5562C44.3104 42.1785 39.5932 40.0504 35.5663 36.2497C35.3752 36.0688 35.1749 35.899 34.8944 35.6515C34.4167 38.5555 35.252 40.7566 37.4326 42.4006C37.9673 42.8021 38.2509 43.2988 38.0244 43.9653C37.7839 44.6731 37.223 44.8778 36.5418 44.808C36.0472 44.7572 35.554 44.7017 34.99 44.6414C35.8499 47.0011 37.4172 48.4135 39.701 48.9927C40.3622 49.1593 40.732 49.5576 40.7274 50.2718C40.7228 50.9859 40.2944 51.3715 39.6579 51.5238C39.2171 51.6302 38.7641 51.6825 38.2925 51.7777C38.3094 51.8592 38.3374 51.9377 38.3757 52.011C38.4825 52.1591 38.5989 52.2996 38.724 52.4316C39.8736 53.6202 41.2498 54.3232 42.8849 54.4184C43.5491 54.4581 44.1178 54.6231 44.3458 55.3404C44.5847 56.1021 44.1655 56.5766 43.6015 56.9924C41.9556 58.2184 40.1064 59.1251 38.1446 59.6679C37.8672 59.7441 37.5944 59.8345 37.3185 59.9186C40.6084 61.1475 44.1643 61.4155 47.5929 60.6931C57.4342 58.7078 64.0932 50.2067 63.9283 39.8632C63.9175 39.1601 64.161 38.6984 64.6588 38.2302C65.3908 37.5478 66.0087 36.748 66.6714 36.0038Z" fill="#15F2FD"/>
</g>
<g filter="url(#filter1_f_4183_12909)">
<path d="M39.7581 56.337C38.9875 55.7895 38.1369 55.3848 37.5559 54.7294C36.6681 53.7171 35.8813 52.6155 35.2073 51.4413C34.6694 50.5193 34.7696 50.4003 35.1549 49.3942C33.5676 47.8819 32.5705 46.0188 32.2792 43.7828C32.1498 42.791 32.045 41.7833 33.2439 41.3295C31.9356 38.5571 31.9202 35.8292 33.2316 33.1156C33.8989 31.7349 34.7835 31.6381 35.7744 32.7982C39.1072 36.6999 43.2681 39.0469 48.2571 39.8393C48.3819 39.8584 48.5083 39.86 48.6454 39.8727C48.7441 39.0967 48.7811 38.3286 48.946 37.5907C50.3607 31.2811 57.9119 28.4643 62.885 32.4633C64.1995 33.5202 65.4278 33.498 66.8209 33.0077C67.1584 32.8886 67.4589 32.6173 67.7995 32.5601C68.2726 32.4824 68.8906 32.3586 69.2157 32.5935C69.5409 32.8283 69.7505 33.4901 69.732 33.9503C69.6688 35.5007 69.0015 36.8448 68.1462 38.0953C68.059 38.2576 67.9483 38.4053 67.818 38.5333C66.4896 39.56 66.3956 41.0216 66.2769 42.5784C65.494 53.0743 57.4434 61.8166 47.2924 63.3258C41.6952 64.1589 36.4663 63.1671 31.6058 60.1662C31.1157 59.8631 30.7197 59.514 30.7304 58.8776C30.7443 58.0366 31.4054 57.5573 32.3594 57.6605C34.7866 57.9255 37.1136 57.5113 39.3589 56.5496C39.4954 56.4858 39.6286 56.4148 39.7581 56.337V56.337ZM66.6714 36.0038L66.4973 35.8546C65.7021 35.8546 64.8899 35.9657 64.1209 35.8213C63.3966 35.6864 62.5799 35.4468 62.0482 34.9675C59.8552 33.0013 57.1029 32.5744 54.5524 33.9741C52.0867 35.3293 50.7521 38.0191 51.3161 40.7978C51.5766 42.0674 51.0202 42.6434 49.7643 42.5562C44.3104 42.1785 39.5932 40.0504 35.5663 36.2497C35.3752 36.0688 35.1749 35.899 34.8944 35.6515C34.4167 38.5555 35.252 40.7566 37.4326 42.4006C37.9673 42.8021 38.2509 43.2988 38.0244 43.9653C37.7839 44.6731 37.223 44.8778 36.5418 44.808C36.0472 44.7572 35.554 44.7017 34.99 44.6414C35.8499 47.0011 37.4172 48.4135 39.701 48.9927C40.3622 49.1593 40.732 49.5576 40.7274 50.2718C40.7228 50.9859 40.2944 51.3715 39.6579 51.5238C39.2171 51.6302 38.7641 51.6825 38.2925 51.7777C38.3094 51.8592 38.3374 51.9377 38.3757 52.011C38.4825 52.1591 38.5989 52.2996 38.724 52.4316C39.8736 53.6202 41.2498 54.3232 42.8849 54.4184C43.5491 54.4581 44.1178 54.6231 44.3458 55.3404C44.5847 56.1021 44.1655 56.5766 43.6015 56.9924C41.9556 58.2184 40.1064 59.1251 38.1446 59.6679C37.8672 59.7441 37.5944 59.8345 37.3185 59.9186C40.6084 61.1475 44.1643 61.4155 47.5929 60.6931C57.4342 58.7078 64.0932 50.2067 63.9283 39.8632C63.9175 39.1601 64.161 38.6984 64.6588 38.2302C65.3908 37.5478 66.0087 36.748 66.6714 36.0038Z" fill="#15F2FD"/>
</g>
<g filter="url(#filter2_f_4183_12909)">
<path d="M39.7581 56.337C38.9875 55.7895 38.1369 55.3848 37.5559 54.7294C36.6681 53.7171 35.8813 52.6155 35.2073 51.4413C34.6694 50.5193 34.7696 50.4003 35.1549 49.3942C33.5676 47.8819 32.5705 46.0188 32.2792 43.7828C32.1498 42.791 32.045 41.7833 33.2439 41.3295C31.9356 38.5571 31.9202 35.8292 33.2316 33.1156C33.8989 31.7349 34.7835 31.6381 35.7744 32.7982C39.1072 36.6999 43.2681 39.0469 48.2571 39.8393C48.3819 39.8584 48.5083 39.86 48.6454 39.8727C48.7441 39.0967 48.7811 38.3286 48.946 37.5907C50.3607 31.2811 57.9119 28.4643 62.885 32.4633C64.1995 33.5202 65.4278 33.498 66.8209 33.0077C67.1584 32.8886 67.4589 32.6173 67.7995 32.5601C68.2726 32.4824 68.8906 32.3586 69.2157 32.5935C69.5409 32.8283 69.7505 33.4901 69.732 33.9503C69.6688 35.5007 69.0015 36.8448 68.1462 38.0953C68.059 38.2576 67.9483 38.4053 67.818 38.5333C66.4896 39.56 66.3956 41.0216 66.2769 42.5784C65.494 53.0743 57.4434 61.8166 47.2924 63.3258C41.6952 64.1589 36.4663 63.1671 31.6058 60.1662C31.1157 59.8631 30.7197 59.514 30.7304 58.8776C30.7443 58.0366 31.4054 57.5573 32.3594 57.6605C34.7866 57.9255 37.1136 57.5113 39.3589 56.5496C39.4954 56.4858 39.6286 56.4148 39.7581 56.337V56.337ZM66.6714 36.0038L66.4973 35.8546C65.7021 35.8546 64.8899 35.9657 64.1209 35.8213C63.3966 35.6864 62.5799 35.4468 62.0482 34.9675C59.8552 33.0013 57.1029 32.5744 54.5524 33.9741C52.0867 35.3293 50.7521 38.0191 51.3161 40.7978C51.5766 42.0674 51.0202 42.6434 49.7643 42.5562C44.3104 42.1785 39.5932 40.0504 35.5663 36.2497C35.3752 36.0688 35.1749 35.899 34.8944 35.6515C34.4167 38.5555 35.252 40.7566 37.4326 42.4006C37.9673 42.8021 38.2509 43.2988 38.0244 43.9653C37.7839 44.6731 37.223 44.8778 36.5418 44.808C36.0472 44.7572 35.554 44.7017 34.99 44.6414C35.8499 47.0011 37.4172 48.4135 39.701 48.9927C40.3622 49.1593 40.732 49.5576 40.7274 50.2718C40.7228 50.9859 40.2944 51.3715 39.6579 51.5238C39.2171 51.6302 38.7641 51.6825 38.2925 51.7777C38.3094 51.8592 38.3374 51.9377 38.3757 52.011C38.4825 52.1591 38.5989 52.2996 38.724 52.4316C39.8736 53.6202 41.2498 54.3232 42.8849 54.4184C43.5491 54.4581 44.1178 54.6231 44.3458 55.3404C44.5847 56.1021 44.1655 56.5766 43.6015 56.9924C41.9556 58.2184 40.1064 59.1251 38.1446 59.6679C37.8672 59.7441 37.5944 59.8345 37.3185 59.9186C40.6084 61.1475 44.1643 61.4155 47.5929 60.6931C57.4342 58.7078 64.0932 50.2067 63.9283 39.8632C63.9175 39.1601 64.161 38.6984 64.6588 38.2302C65.3908 37.5478 66.0087 36.748 66.6714 36.0038Z" fill="#15F2FD"/>
</g>
<g filter="url(#filter3_d_4183_12909)">
<path d="M39.7581 56.337C38.9875 55.7895 38.1369 55.3848 37.5559 54.7294C36.6681 53.7171 35.8813 52.6155 35.2073 51.4413C34.6694 50.5193 34.7696 50.4003 35.1549 49.3942C33.5676 47.8819 32.5705 46.0188 32.2792 43.7828C32.1498 42.791 32.045 41.7833 33.2439 41.3295C31.9356 38.5571 31.9202 35.8292 33.2316 33.1156C33.8989 31.7349 34.7835 31.6381 35.7744 32.7982C39.1072 36.6999 43.2681 39.0469 48.2571 39.8393C48.3819 39.8584 48.5083 39.86 48.6454 39.8727C48.7441 39.0967 48.7811 38.3286 48.946 37.5907C50.3607 31.2811 57.9119 28.4643 62.885 32.4633C64.1995 33.5202 65.4278 33.498 66.8209 33.0077C67.1584 32.8886 67.4589 32.6173 67.7995 32.5601C68.2726 32.4824 68.8906 32.3586 69.2157 32.5935C69.5409 32.8283 69.7505 33.4901 69.732 33.9503C69.6688 35.5007 69.0015 36.8448 68.1462 38.0953C68.059 38.2576 67.9483 38.4053 67.818 38.5333C66.4896 39.56 66.3956 41.0216 66.2769 42.5784C65.494 53.0743 57.4434 61.8166 47.2924 63.3258C41.6952 64.1589 36.4663 63.1671 31.6058 60.1662C31.1157 59.8631 30.7197 59.514 30.7304 58.8776C30.7443 58.0366 31.4054 57.5573 32.3594 57.6605C34.7866 57.9255 37.1136 57.5113 39.3589 56.5496C39.4954 56.4858 39.6286 56.4148 39.7581 56.337V56.337ZM66.6714 36.0038L66.4973 35.8546C65.7021 35.8546 64.8899 35.9657 64.1209 35.8213C63.3966 35.6864 62.5799 35.4468 62.0482 34.9675C59.8552 33.0013 57.1029 32.5744 54.5524 33.9741C52.0867 35.3293 50.7521 38.0191 51.3161 40.7978C51.5766 42.0674 51.0202 42.6434 49.7643 42.5562C44.3104 42.1785 39.5932 40.0504 35.5663 36.2497C35.3752 36.0688 35.1749 35.899 34.8944 35.6515C34.4167 38.5555 35.252 40.7566 37.4326 42.4006C37.9673 42.8021 38.2509 43.2988 38.0244 43.9653C37.7839 44.6731 37.223 44.8778 36.5418 44.808C36.0472 44.7572 35.554 44.7017 34.99 44.6414C35.8499 47.0011 37.4172 48.4135 39.701 48.9927C40.3622 49.1593 40.732 49.5576 40.7274 50.2718C40.7228 50.9859 40.2944 51.3715 39.6579 51.5238C39.2171 51.6302 38.7641 51.6825 38.2925 51.7777C38.3094 51.8592 38.3374 51.9377 38.3757 52.011C38.4825 52.1591 38.5989 52.2996 38.724 52.4316C39.8736 53.6202 41.2498 54.3232 42.8849 54.4184C43.5491 54.4581 44.1178 54.6231 44.3458 55.3404C44.5847 56.1021 44.1655 56.5766 43.6015 56.9924C41.9556 58.2184 40.1064 59.1251 38.1446 59.6679C37.8672 59.7441 37.5944 59.8345 37.3185 59.9186C40.6084 61.1475 44.1643 61.4155 47.5929 60.6931C57.4342 58.7078 64.0932 50.2067 63.9283 39.8632C63.9175 39.1601 64.161 38.6984 64.6588 38.2302C65.3908 37.5478 66.0087 36.748 66.6714 36.0038Z" fill="white"/>
</g>
<defs>
<filter id="filter0_f_4183_12909" x="0.730225" y="0.609131" width="99.0029" height="92.9998" filterUnits="userSpaceOnUse" color-interpolation-filters="sRGB">
<feFlood flood-opacity="0" result="BackgroundImageFix"/>
<feBlend mode="normal" in="SourceGraphic" in2="BackgroundImageFix" result="shape"/>
<feGaussianBlur stdDeviation="15" result="effect1_foregroundBlur_4183_12909"/>
</filter>
<filter id="filter1_f_4183_12909" x="15.7302" y="15.6091" width="69.0029" height="62.9998" filterUnits="userSpaceOnUse" color-interpolation-filters="sRGB">
<feFlood flood-opacity="0" result="BackgroundImageFix"/>
<feBlend mode="normal" in="SourceGraphic" in2="BackgroundImageFix" result="shape"/>
<feGaussianBlur stdDeviation="7.5" result="effect1_foregroundBlur_4183_12909"/>
</filter>
<filter id="filter2_f_4183_12909" x="25.7302" y="25.6091" width="49.0029" height="42.9998" filterUnits="userSpaceOnUse" color-interpolation-filters="sRGB">
<feFlood flood-opacity="0" result="BackgroundImageFix"/>
<feBlend mode="normal" in="SourceGraphic" in2="BackgroundImageFix" result="shape"/>
<feGaussianBlur stdDeviation="2.5" result="effect1_foregroundBlur_4183_12909"/>
</filter>
<filter id="filter3_d_4183_12909" x="26.7302" y="30.6091" width="47.0029" height="40.9998" filterUnits="userSpaceOnUse" color-interpolation-filters="sRGB">
<feFlood flood-opacity="0" result="BackgroundImageFix"/>
<feColorMatrix in="SourceAlpha" type="matrix" values="0 0 0 0 0 0 0 0 0 0 0 0 0 0 0 0 0 0 127 0" result="hardAlpha"/>
<feOffset dy="4"/>
<feGaussianBlur stdDeviation="2"/>
<feComposite in2="hardAlpha" operator="out"/>
<feColorMatrix type="matrix" values="0 0 0 0 0 0 0 0 0 0 0 0 0 0 0 0 0 0 0.25 0"/>
<feBlend mode="normal" in2="BackgroundImageFix" result="effect1_dropShadow_4183_12909"/>
<feBlend mode="normal" in="SourceGraphic" in2="effect1_dropShadow_4183_12909" result="shape"/>
</filter>
</defs>
</svg>
