<svg width="124" height="118" viewBox="0 0 124 118" fill="none" xmlns="http://www.w3.org/2000/svg">
<g filter="url(#filter0_f_4183_12822)">
<path d="M52.327 65.5106C51.7454 67.895 51.1883 70.1906 50.6242 72.4826C50.3063 73.7789 50.1281 73.9193 48.8427 73.9211C47.9694 73.9211 47.0962 73.9318 46.2229 73.9211C45.2675 73.9069 44.9095 73.5513 44.9043 72.5751C44.8938 70.5 44.9043 68.4267 44.9043 66.3516V65.3843C44.286 65.3843 43.7411 65.395 43.1962 65.3843C41.3833 65.3417 40.0524 64.017 40.021 62.1837C39.993 60.2871 39.993 58.3904 40.021 56.4937C40.0489 54.6605 41.385 53.3216 43.1979 53.2931C45.0911 53.27 46.9879 53.1953 48.8741 53.3091C52.1506 53.5047 55.2193 52.7366 58.2216 51.5203C62.2526 49.8862 66.0268 47.8218 69.1514 44.6941C69.4506 44.3603 69.6394 43.9392 69.6911 43.4903C69.8762 41.954 71.0883 40.8 72.5816 40.8427C73.2889 40.8637 73.962 41.1571 74.4651 41.6637C74.9682 42.1703 75.2638 42.8523 75.2922 43.5721C75.3306 44.4612 75.3027 45.3502 75.3027 46.2393C75.3027 55.6337 75.3027 65.0281 75.3027 74.4225C75.3187 74.8651 75.2788 75.3079 75.1839 75.7401C75.0226 76.3813 74.643 76.9434 74.1127 77.3263C73.5824 77.7092 72.9359 77.8881 72.2882 77.8312C70.9416 77.7281 69.8919 76.6292 69.6893 75.2494C69.6237 74.7457 69.4058 74.2753 69.0658 73.9033C64.5545 69.602 59.1403 67.0682 53.1933 65.5977C52.9067 65.5495 52.6174 65.5203 52.327 65.5106ZM52.6257 63.2826C58.9551 64.6162 64.6087 67.2763 69.6457 71.446V47.2297C64.5807 51.4136 58.9272 54.0737 52.6257 55.3949V63.2826ZM73.1964 44.4345C73.1964 44.1678 73.275 43.8495 73.1614 43.6468C73.013 43.3819 72.7265 43.076 72.4628 43.0387C72.2777 43.012 71.979 43.3694 71.8376 43.6166C71.7345 43.7944 71.8026 44.0789 71.8026 44.3154V74.3318C71.8026 74.5683 71.7275 74.8653 71.8341 75.0289C72 75.2903 72.2725 75.5997 72.5327 75.6388C72.7178 75.6637 73.0304 75.3116 73.1579 75.0591C73.2645 74.8475 73.1946 74.5381 73.1946 74.2714L73.1964 44.4345ZM47.0473 55.4695V63.1919H50.4286V55.4695H47.0473ZM44.8414 63.1973V55.4269C44.3786 55.4269 43.9681 55.4269 43.5717 55.4269C42.4469 55.4375 42.1168 55.7647 42.1116 56.8956C42.1116 58.1669 42.1325 59.4383 42.1116 60.7097C42.0504 63.1279 42.0784 63.4053 44.8414 63.1973ZM47.0193 71.7856C47.3573 71.8118 47.6969 71.807 48.0341 71.7714C48.2751 71.7216 48.6471 71.5935 48.6925 71.4157C49.2165 69.4491 49.681 67.4683 50.1701 65.459H47.0263L47.0193 71.7856Z" fill="#15F2FD"/>
<path d="M80.9818 48.8269C81.3311 49.2021 81.787 49.4617 81.8551 49.8031C81.9232 50.1445 81.7381 50.7793 81.4691 50.9358C80.3592 51.5802 79.2039 52.1401 78.0127 52.6108C77.7315 52.7228 77.1115 52.4596 76.9316 52.1805C76.7517 51.9013 76.7779 51.1314 76.9735 51.0105C78.231 50.2388 79.5566 49.5844 80.9818 48.8269Z" fill="#15F2FD"/>
<path d="M81.0307 69.743C80.65 69.599 80.4282 69.5332 80.2221 69.4336C79.2772 68.9766 78.3323 68.5232 77.3997 68.0449C76.846 67.7604 76.5421 67.3052 76.8128 66.6651C77.0836 66.025 77.6215 65.8223 78.2485 66.1121C79.3052 66.6011 80.3793 67.0705 81.3643 67.6857C81.6752 67.8778 81.8883 68.5268 81.8376 68.9304C81.8027 69.2416 81.2945 69.4959 81.0307 69.743Z" fill="#15F2FD"/>
<path d="M81.2298 60.4063C80.6779 60.4063 80.1243 60.4187 79.5724 60.4063C78.8912 60.3867 78.4476 60.0382 78.4528 59.3252C78.4528 58.6584 78.879 58.2974 79.52 58.2832C80.6552 58.2619 81.7905 58.2654 82.924 58.2832C83.5702 58.2832 83.9893 58.6548 83.9998 59.3163C84.0103 60.0275 83.5737 60.3831 82.889 60.4063C82.3389 60.4187 81.787 60.4063 81.2298 60.4063Z" fill="#15F2FD"/>
</g>
<g filter="url(#filter1_f_4183_12822)">
<path d="M52.327 65.5106C51.7454 67.895 51.1883 70.1906 50.6242 72.4826C50.3063 73.7789 50.1281 73.9193 48.8427 73.9211C47.9694 73.9211 47.0962 73.9318 46.2229 73.9211C45.2675 73.9069 44.9095 73.5513 44.9043 72.5751C44.8938 70.5 44.9043 68.4267 44.9043 66.3516V65.3843C44.286 65.3843 43.7411 65.395 43.1962 65.3843C41.3833 65.3417 40.0524 64.017 40.021 62.1837C39.993 60.2871 39.993 58.3904 40.021 56.4937C40.0489 54.6605 41.385 53.3216 43.1979 53.2931C45.0911 53.27 46.9879 53.1953 48.8741 53.3091C52.1506 53.5047 55.2193 52.7366 58.2216 51.5203C62.2526 49.8862 66.0268 47.8218 69.1514 44.6941C69.4506 44.3603 69.6394 43.9392 69.6911 43.4903C69.8762 41.954 71.0883 40.8 72.5816 40.8427C73.2889 40.8637 73.962 41.1571 74.4651 41.6637C74.9682 42.1703 75.2638 42.8523 75.2922 43.5721C75.3306 44.4612 75.3027 45.3502 75.3027 46.2393C75.3027 55.6337 75.3027 65.0281 75.3027 74.4225C75.3187 74.8651 75.2788 75.3079 75.1839 75.7401C75.0226 76.3813 74.643 76.9434 74.1127 77.3263C73.5824 77.7092 72.9359 77.8881 72.2882 77.8312C70.9416 77.7281 69.8919 76.6292 69.6893 75.2494C69.6237 74.7457 69.4058 74.2753 69.0658 73.9033C64.5545 69.602 59.1403 67.0682 53.1933 65.5977C52.9067 65.5495 52.6174 65.5203 52.327 65.5106ZM52.6257 63.2826C58.9551 64.6162 64.6087 67.2763 69.6457 71.446V47.2297C64.5807 51.4136 58.9272 54.0737 52.6257 55.3949V63.2826ZM73.1964 44.4345C73.1964 44.1678 73.275 43.8495 73.1614 43.6468C73.013 43.3819 72.7265 43.076 72.4628 43.0387C72.2777 43.012 71.979 43.3694 71.8376 43.6166C71.7345 43.7944 71.8026 44.0789 71.8026 44.3154V74.3318C71.8026 74.5683 71.7275 74.8653 71.8341 75.0289C72 75.2903 72.2725 75.5997 72.5327 75.6388C72.7178 75.6637 73.0304 75.3116 73.1579 75.0591C73.2645 74.8475 73.1946 74.5381 73.1946 74.2714L73.1964 44.4345ZM47.0473 55.4695V63.1919H50.4286V55.4695H47.0473ZM44.8414 63.1973V55.4269C44.3786 55.4269 43.9681 55.4269 43.5717 55.4269C42.4469 55.4375 42.1168 55.7647 42.1116 56.8956C42.1116 58.1669 42.1325 59.4383 42.1116 60.7097C42.0504 63.1279 42.0784 63.4053 44.8414 63.1973ZM47.0193 71.7856C47.3573 71.8118 47.6969 71.807 48.0341 71.7714C48.2751 71.7216 48.6471 71.5935 48.6925 71.4157C49.2165 69.4491 49.681 67.4683 50.1701 65.459H47.0263L47.0193 71.7856Z" fill="#15F2FD"/>
<path d="M80.9818 48.8269C81.3311 49.2021 81.787 49.4617 81.8551 49.8031C81.9232 50.1445 81.7381 50.7793 81.4691 50.9358C80.3592 51.5802 79.2039 52.1401 78.0127 52.6108C77.7315 52.7228 77.1115 52.4596 76.9316 52.1805C76.7517 51.9013 76.7779 51.1314 76.9735 51.0105C78.231 50.2388 79.5566 49.5844 80.9818 48.8269Z" fill="#15F2FD"/>
<path d="M81.0307 69.743C80.65 69.599 80.4282 69.5332 80.2221 69.4336C79.2772 68.9766 78.3323 68.5232 77.3997 68.0449C76.846 67.7604 76.5421 67.3052 76.8128 66.6651C77.0836 66.025 77.6215 65.8223 78.2485 66.1121C79.3052 66.6011 80.3793 67.0705 81.3643 67.6857C81.6752 67.8778 81.8883 68.5268 81.8376 68.9304C81.8027 69.2416 81.2945 69.4959 81.0307 69.743Z" fill="#15F2FD"/>
<path d="M81.2298 60.4063C80.6779 60.4063 80.1243 60.4187 79.5724 60.4063C78.8912 60.3867 78.4476 60.0382 78.4528 59.3252C78.4528 58.6584 78.879 58.2974 79.52 58.2832C80.6552 58.2619 81.7905 58.2654 82.924 58.2832C83.5702 58.2832 83.9893 58.6548 83.9998 59.3163C84.0103 60.0275 83.5737 60.3831 82.889 60.4063C82.3389 60.4187 81.787 60.4063 81.2298 60.4063Z" fill="#15F2FD"/>
</g>
<g filter="url(#filter2_f_4183_12822)">
<path d="M52.327 65.5106C51.7454 67.895 51.1883 70.1906 50.6242 72.4826C50.3063 73.7789 50.1281 73.9193 48.8427 73.9211C47.9694 73.9211 47.0962 73.9318 46.2229 73.9211C45.2675 73.9069 44.9095 73.5513 44.9043 72.5751C44.8938 70.5 44.9043 68.4267 44.9043 66.3516V65.3843C44.286 65.3843 43.7411 65.395 43.1962 65.3843C41.3833 65.3417 40.0524 64.017 40.021 62.1837C39.993 60.2871 39.993 58.3904 40.021 56.4937C40.0489 54.6605 41.385 53.3216 43.1979 53.2931C45.0911 53.27 46.9879 53.1953 48.8741 53.3091C52.1506 53.5047 55.2193 52.7366 58.2216 51.5203C62.2526 49.8862 66.0268 47.8218 69.1514 44.6941C69.4506 44.3603 69.6394 43.9392 69.6911 43.4903C69.8762 41.954 71.0883 40.8 72.5816 40.8427C73.2889 40.8637 73.962 41.1571 74.4651 41.6637C74.9682 42.1703 75.2638 42.8523 75.2922 43.5721C75.3306 44.4612 75.3027 45.3502 75.3027 46.2393C75.3027 55.6337 75.3027 65.0281 75.3027 74.4225C75.3187 74.8651 75.2788 75.3079 75.1839 75.7401C75.0226 76.3813 74.643 76.9434 74.1127 77.3263C73.5824 77.7092 72.9359 77.8881 72.2882 77.8312C70.9416 77.7281 69.8919 76.6292 69.6893 75.2494C69.6237 74.7457 69.4058 74.2753 69.0658 73.9033C64.5545 69.602 59.1403 67.0682 53.1933 65.5977C52.9067 65.5495 52.6174 65.5203 52.327 65.5106ZM52.6257 63.2826C58.9551 64.6162 64.6087 67.2763 69.6457 71.446V47.2297C64.5807 51.4136 58.9272 54.0737 52.6257 55.3949V63.2826ZM73.1964 44.4345C73.1964 44.1678 73.275 43.8495 73.1614 43.6468C73.013 43.3819 72.7265 43.076 72.4628 43.0387C72.2777 43.012 71.979 43.3694 71.8376 43.6166C71.7345 43.7944 71.8026 44.0789 71.8026 44.3154V74.3318C71.8026 74.5683 71.7275 74.8653 71.8341 75.0289C72 75.2903 72.2725 75.5997 72.5327 75.6388C72.7178 75.6637 73.0304 75.3116 73.1579 75.0591C73.2645 74.8475 73.1946 74.5381 73.1946 74.2714L73.1964 44.4345ZM47.0473 55.4695V63.1919H50.4286V55.4695H47.0473ZM44.8414 63.1973V55.4269C44.3786 55.4269 43.9681 55.4269 43.5717 55.4269C42.4469 55.4375 42.1168 55.7647 42.1116 56.8956C42.1116 58.1669 42.1325 59.4383 42.1116 60.7097C42.0504 63.1279 42.0784 63.4053 44.8414 63.1973ZM47.0193 71.7856C47.3573 71.8118 47.6969 71.807 48.0341 71.7714C48.2751 71.7216 48.6471 71.5935 48.6925 71.4157C49.2165 69.4491 49.681 67.4683 50.1701 65.459H47.0263L47.0193 71.7856Z" fill="#15F2FD"/>
<path d="M80.9818 48.8269C81.3311 49.2021 81.787 49.4617 81.8551 49.8031C81.9232 50.1445 81.7381 50.7793 81.4691 50.9358C80.3592 51.5802 79.2039 52.1401 78.0127 52.6108C77.7315 52.7228 77.1115 52.4596 76.9316 52.1805C76.7517 51.9013 76.7779 51.1314 76.9735 51.0105C78.231 50.2388 79.5566 49.5844 80.9818 48.8269Z" fill="#15F2FD"/>
<path d="M81.0307 69.743C80.65 69.599 80.4282 69.5332 80.2221 69.4336C79.2772 68.9766 78.3323 68.5232 77.3997 68.0449C76.846 67.7604 76.5421 67.3052 76.8128 66.6651C77.0836 66.025 77.6215 65.8223 78.2485 66.1121C79.3052 66.6011 80.3793 67.0705 81.3643 67.6857C81.6752 67.8778 81.8883 68.5268 81.8376 68.9304C81.8027 69.2416 81.2945 69.4959 81.0307 69.743Z" fill="#15F2FD"/>
<path d="M81.2298 60.4063C80.6779 60.4063 80.1243 60.4187 79.5724 60.4063C78.8912 60.3867 78.4476 60.0382 78.4528 59.3252C78.4528 58.6584 78.879 58.2974 79.52 58.2832C80.6552 58.2619 81.7905 58.2654 82.924 58.2832C83.5702 58.2832 83.9893 58.6548 83.9998 59.3163C84.0103 60.0275 83.5737 60.3831 82.889 60.4063C82.3389 60.4187 81.787 60.4063 81.2298 60.4063Z" fill="#15F2FD"/>
</g>
<g filter="url(#filter3_d_4183_12822)">
<path d="M52.327 65.5106C51.7454 67.895 51.1883 70.1906 50.6242 72.4826C50.3063 73.7789 50.1281 73.9193 48.8427 73.9211C47.9694 73.9211 47.0962 73.9318 46.2229 73.9211C45.2675 73.9069 44.9095 73.5513 44.9043 72.5751C44.8938 70.5 44.9043 68.4267 44.9043 66.3516V65.3843C44.286 65.3843 43.7411 65.395 43.1962 65.3843C41.3833 65.3417 40.0524 64.017 40.021 62.1837C39.993 60.2871 39.993 58.3904 40.021 56.4937C40.0489 54.6605 41.385 53.3216 43.1979 53.2931C45.0911 53.27 46.9879 53.1953 48.8741 53.3091C52.1506 53.5047 55.2193 52.7366 58.2216 51.5203C62.2526 49.8862 66.0268 47.8218 69.1514 44.6941C69.4506 44.3603 69.6394 43.9392 69.6911 43.4903C69.8762 41.954 71.0883 40.8 72.5816 40.8427C73.2889 40.8637 73.962 41.1571 74.4651 41.6637C74.9682 42.1703 75.2638 42.8523 75.2922 43.5721C75.3306 44.4612 75.3027 45.3502 75.3027 46.2393C75.3027 55.6337 75.3027 65.0281 75.3027 74.4225C75.3187 74.8651 75.2788 75.3079 75.1839 75.7401C75.0226 76.3813 74.643 76.9434 74.1127 77.3263C73.5824 77.7092 72.9359 77.8881 72.2882 77.8312C70.9416 77.7281 69.8919 76.6292 69.6893 75.2494C69.6237 74.7457 69.4058 74.2753 69.0658 73.9033C64.5545 69.602 59.1403 67.0682 53.1933 65.5977C52.9067 65.5495 52.6174 65.5203 52.327 65.5106ZM52.6257 63.2826C58.9551 64.6162 64.6087 67.2763 69.6457 71.446V47.2297C64.5807 51.4136 58.9272 54.0737 52.6257 55.3949V63.2826ZM73.1964 44.4345C73.1964 44.1678 73.275 43.8495 73.1614 43.6468C73.013 43.3819 72.7265 43.076 72.4628 43.0387C72.2777 43.012 71.979 43.3694 71.8376 43.6166C71.7345 43.7944 71.8026 44.0789 71.8026 44.3154V74.3318C71.8026 74.5683 71.7275 74.8653 71.8341 75.0289C72 75.2903 72.2725 75.5997 72.5327 75.6388C72.7178 75.6637 73.0304 75.3116 73.1579 75.0591C73.2645 74.8475 73.1946 74.5381 73.1946 74.2714L73.1964 44.4345ZM47.0473 55.4695V63.1919H50.4286V55.4695H47.0473ZM44.8414 63.1973V55.4269C44.3786 55.4269 43.9681 55.4269 43.5717 55.4269C42.4469 55.4375 42.1168 55.7647 42.1116 56.8956C42.1116 58.1669 42.1325 59.4383 42.1116 60.7097C42.0504 63.1279 42.0784 63.4053 44.8414 63.1973ZM47.0193 71.7856C47.3573 71.8118 47.6969 71.807 48.0341 71.7714C48.2751 71.7216 48.6471 71.5935 48.6925 71.4157C49.2165 69.4491 49.681 67.4683 50.1701 65.459H47.0263L47.0193 71.7856Z" fill="white"/>
<path d="M80.9818 48.8269C81.3311 49.2021 81.787 49.4617 81.8551 49.8031C81.9232 50.1445 81.7381 50.7793 81.4691 50.9358C80.3592 51.5802 79.2039 52.1401 78.0127 52.6108C77.7315 52.7228 77.1115 52.4596 76.9316 52.1805C76.7517 51.9013 76.7779 51.1314 76.9735 51.0105C78.231 50.2388 79.5566 49.5844 80.9818 48.8269Z" fill="white"/>
<path d="M81.0307 69.743C80.65 69.599 80.4282 69.5332 80.2221 69.4336C79.2772 68.9766 78.3323 68.5232 77.3997 68.0449C76.846 67.7604 76.5421 67.3052 76.8128 66.6651C77.0836 66.025 77.6215 65.8223 78.2485 66.1121C79.3052 66.6011 80.3793 67.0705 81.3643 67.6857C81.6752 67.8778 81.8883 68.5268 81.8376 68.9304C81.8027 69.2416 81.2945 69.4959 81.0307 69.743Z" fill="white"/>
<path d="M81.2298 60.4063C80.6779 60.4063 80.1243 60.4187 79.5724 60.4063C78.8912 60.3867 78.4476 60.0382 78.4528 59.3252C78.4528 58.6584 78.879 58.2974 79.52 58.2832C80.6552 58.2619 81.7905 58.2654 82.924 58.2832C83.5702 58.2832 83.9893 58.6548 83.9998 59.3163C84.0103 60.0275 83.5737 60.3831 82.889 60.4063C82.3389 60.4187 81.787 60.4063 81.2298 60.4063Z" fill="white"/>
</g>
<defs>
<filter id="filter0_f_4183_12822" x="0" y="0.841553" width="124" height="117" filterUnits="userSpaceOnUse" color-interpolation-filters="sRGB">
<feFlood flood-opacity="0" result="BackgroundImageFix"/>
<feBlend mode="normal" in="SourceGraphic" in2="BackgroundImageFix" result="shape"/>
<feGaussianBlur stdDeviation="20" result="effect1_foregroundBlur_4183_12822"/>
</filter>
<filter id="filter1_f_4183_12822" x="25" y="25.8416" width="74" height="67" filterUnits="userSpaceOnUse" color-interpolation-filters="sRGB">
<feFlood flood-opacity="0" result="BackgroundImageFix"/>
<feBlend mode="normal" in="SourceGraphic" in2="BackgroundImageFix" result="shape"/>
<feGaussianBlur stdDeviation="7.5" result="effect1_foregroundBlur_4183_12822"/>
</filter>
<filter id="filter2_f_4183_12822" x="35" y="35.8416" width="54" height="47" filterUnits="userSpaceOnUse" color-interpolation-filters="sRGB">
<feFlood flood-opacity="0" result="BackgroundImageFix"/>
<feBlend mode="normal" in="SourceGraphic" in2="BackgroundImageFix" result="shape"/>
<feGaussianBlur stdDeviation="2.5" result="effect1_foregroundBlur_4183_12822"/>
</filter>
<filter id="filter3_d_4183_12822" x="36" y="40.8416" width="52" height="45" filterUnits="userSpaceOnUse" color-interpolation-filters="sRGB">
<feFlood flood-opacity="0" result="BackgroundImageFix"/>
<feColorMatrix in="SourceAlpha" type="matrix" values="0 0 0 0 0 0 0 0 0 0 0 0 0 0 0 0 0 0 127 0" result="hardAlpha"/>
<feOffset dy="4"/>
<feGaussianBlur stdDeviation="2"/>
<feComposite in2="hardAlpha" operator="out"/>
<feColorMatrix type="matrix" values="0 0 0 0 0 0 0 0 0 0 0 0 0 0 0 0 0 0 0.25 0"/>
<feBlend mode="normal" in2="BackgroundImageFix" result="effect1_dropShadow_4183_12822"/>
<feBlend mode="normal" in="SourceGraphic" in2="effect1_dropShadow_4183_12822" result="shape"/>
</filter>
</defs>
</svg>
