<svg width="147" height="125" viewBox="0 0 147 125" fill="none" xmlns="http://www.w3.org/2000/svg">
<g filter="url(#filter0_f_4183_12847)">
<path fill-rule="evenodd" clip-rule="evenodd" d="M80.2125 50.2261C79.7309 49.9557 79.1213 50.1269 78.8509 50.6085L66.5176 72.5772C66.2473 73.0588 66.4185 73.6684 66.9001 73.9387C67.3817 74.2091 67.9913 74.0379 68.2616 73.5563L80.5949 51.5876C80.8653 51.106 80.6941 50.4964 80.2125 50.2261ZM57.3 69.1536L50.9361 62.7896C50.5456 62.3991 50.5456 61.7659 50.9361 61.3754L57.3 55.0114C57.6906 54.6209 58.3237 54.6209 58.7142 55.0114C59.1048 55.4019 59.1048 56.0351 58.7142 56.4256L53.0574 62.0825L58.7142 67.7393C59.1048 68.1299 59.1048 68.763 58.7142 69.1536C58.3237 69.5441 57.6906 69.5441 57.3 69.1536ZM89.8125 55.0114L96.1764 61.3754C96.5669 61.7659 96.5669 62.3991 96.1764 62.7896L89.8125 69.1536C89.4219 69.5441 88.7888 69.5441 88.3982 69.1536C88.0077 68.763 88.0077 68.1299 88.3982 67.7393L94.0551 62.0825L88.3982 56.4256C88.0077 56.0351 88.0077 55.4019 88.3982 55.0114C88.7888 54.6209 89.4219 54.6209 89.8125 55.0114Z" fill="#15F2FD"/>
</g>
<g filter="url(#filter1_f_4183_12847)">
<path fill-rule="evenodd" clip-rule="evenodd" d="M80.2125 50.2261C79.7309 49.9557 79.1213 50.1269 78.8509 50.6085L66.5176 72.5772C66.2473 73.0588 66.4185 73.6684 66.9001 73.9387C67.3817 74.2091 67.9913 74.0379 68.2616 73.5563L80.5949 51.5876C80.8653 51.106 80.6941 50.4964 80.2125 50.2261ZM57.3 69.1536L50.9361 62.7896C50.5456 62.3991 50.5456 61.7659 50.9361 61.3754L57.3 55.0114C57.6906 54.6209 58.3237 54.6209 58.7142 55.0114C59.1048 55.4019 59.1048 56.0351 58.7142 56.4256L53.0574 62.0825L58.7142 67.7393C59.1048 68.1299 59.1048 68.763 58.7142 69.1536C58.3237 69.5441 57.6906 69.5441 57.3 69.1536ZM89.8125 55.0114L96.1764 61.3754C96.5669 61.7659 96.5669 62.3991 96.1764 62.7896L89.8125 69.1536C89.4219 69.5441 88.7888 69.5441 88.3982 69.1536C88.0077 68.763 88.0077 68.1299 88.3982 67.7393L94.0551 62.0825L88.3982 56.4256C88.0077 56.0351 88.0077 55.4019 88.3982 55.0114C88.7888 54.6209 89.4219 54.6209 89.8125 55.0114Z" fill="#15F2FD"/>
</g>
<g filter="url(#filter2_f_4183_12847)">
<path fill-rule="evenodd" clip-rule="evenodd" d="M80.2125 50.2261C79.7309 49.9557 79.1213 50.1269 78.8509 50.6085L66.5176 72.5772C66.2473 73.0588 66.4185 73.6684 66.9001 73.9387C67.3817 74.2091 67.9913 74.0379 68.2616 73.5563L80.5949 51.5876C80.8653 51.106 80.6941 50.4964 80.2125 50.2261ZM57.3 69.1536L50.9361 62.7896C50.5456 62.3991 50.5456 61.7659 50.9361 61.3754L57.3 55.0114C57.6906 54.6209 58.3237 54.6209 58.7142 55.0114C59.1048 55.4019 59.1048 56.0351 58.7142 56.4256L53.0574 62.0825L58.7142 67.7393C59.1048 68.1299 59.1048 68.763 58.7142 69.1536C58.3237 69.5441 57.6906 69.5441 57.3 69.1536ZM89.8125 55.0114L96.1764 61.3754C96.5669 61.7659 96.5669 62.3991 96.1764 62.7896L89.8125 69.1536C89.4219 69.5441 88.7888 69.5441 88.3982 69.1536C88.0077 68.763 88.0077 68.1299 88.3982 67.7393L94.0551 62.0825L88.3982 56.4256C88.0077 56.0351 88.0077 55.4019 88.3982 55.0114C88.7888 54.6209 89.4219 54.6209 89.8125 55.0114Z" fill="#15F2FD"/>
</g>
<g filter="url(#filter3_f_4183_12847)">
<path fill-rule="evenodd" clip-rule="evenodd" d="M80.2125 50.2261C79.7309 49.9557 79.1213 50.1269 78.8509 50.6085L66.5176 72.5772C66.2473 73.0588 66.4185 73.6684 66.9001 73.9387C67.3817 74.2091 67.9913 74.0379 68.2616 73.5563L80.5949 51.5876C80.8653 51.106 80.6941 50.4964 80.2125 50.2261ZM57.3 69.1536L50.9361 62.7896C50.5456 62.3991 50.5456 61.7659 50.9361 61.3754L57.3 55.0114C57.6906 54.6209 58.3237 54.6209 58.7142 55.0114C59.1048 55.4019 59.1048 56.0351 58.7142 56.4256L53.0574 62.0825L58.7142 67.7393C59.1048 68.1299 59.1048 68.763 58.7142 69.1536C58.3237 69.5441 57.6906 69.5441 57.3 69.1536ZM89.8125 55.0114L96.1764 61.3754C96.5669 61.7659 96.5669 62.3991 96.1764 62.7896L89.8125 69.1536C89.4219 69.5441 88.7888 69.5441 88.3982 69.1536C88.0077 68.763 88.0077 68.1299 88.3982 67.7393L94.0551 62.0825L88.3982 56.4256C88.0077 56.0351 88.0077 55.4019 88.3982 55.0114C88.7888 54.6209 89.4219 54.6209 89.8125 55.0114Z" fill="#15F2FD"/>
</g>
<g filter="url(#filter4_d_4183_12847)">
<path fill-rule="evenodd" clip-rule="evenodd" d="M80.2125 50.2261C79.7309 49.9557 79.1213 50.1269 78.8509 50.6085L66.5176 72.5772C66.2473 73.0588 66.4185 73.6684 66.9001 73.9387C67.3817 74.2091 67.9913 74.0379 68.2616 73.5563L80.5949 51.5876C80.8653 51.106 80.6941 50.4964 80.2125 50.2261ZM57.3 69.1536L50.9361 62.7896C50.5456 62.3991 50.5456 61.7659 50.9361 61.3754L57.3 55.0114C57.6906 54.6209 58.3237 54.6209 58.7142 55.0114C59.1048 55.4019 59.1048 56.0351 58.7142 56.4256L53.0574 62.0825L58.7142 67.7393C59.1048 68.1299 59.1048 68.763 58.7142 69.1536C58.3237 69.5441 57.6906 69.5441 57.3 69.1536ZM89.8125 55.0114L96.1764 61.3754C96.5669 61.7659 96.5669 62.3991 96.1764 62.7896L89.8125 69.1536C89.4219 69.5441 88.7888 69.5441 88.3982 69.1536C88.0077 68.763 88.0077 68.1299 88.3982 67.7393L94.0551 62.0825L88.3982 56.4256C88.0077 56.0351 88.0077 55.4019 88.3982 55.0114C88.7888 54.6209 89.4219 54.6209 89.8125 55.0114Z" fill="white"/>
</g>
<defs>
<filter id="filter0_f_4183_12847" x="0.643188" y="0.0979004" width="145.826" height="123.969" filterUnits="userSpaceOnUse" color-interpolation-filters="sRGB">
<feFlood flood-opacity="0" result="BackgroundImageFix"/>
<feBlend mode="normal" in="SourceGraphic" in2="BackgroundImageFix" result="shape"/>
<feGaussianBlur stdDeviation="25" result="effect1_foregroundBlur_4183_12847"/>
</filter>
<filter id="filter1_f_4183_12847" x="25.6432" y="25.0979" width="95.8262" height="73.969" filterUnits="userSpaceOnUse" color-interpolation-filters="sRGB">
<feFlood flood-opacity="0" result="BackgroundImageFix"/>
<feBlend mode="normal" in="SourceGraphic" in2="BackgroundImageFix" result="shape"/>
<feGaussianBlur stdDeviation="12.5" result="effect1_foregroundBlur_4183_12847"/>
</filter>
<filter id="filter2_f_4183_12847" x="40.6432" y="40.0979" width="65.8262" height="43.969" filterUnits="userSpaceOnUse" color-interpolation-filters="sRGB">
<feFlood flood-opacity="0" result="BackgroundImageFix"/>
<feBlend mode="normal" in="SourceGraphic" in2="BackgroundImageFix" result="shape"/>
<feGaussianBlur stdDeviation="5" result="effect1_foregroundBlur_4183_12847"/>
</filter>
<filter id="filter3_f_4183_12847" x="45.6432" y="45.0979" width="55.8262" height="33.969" filterUnits="userSpaceOnUse" color-interpolation-filters="sRGB">
<feFlood flood-opacity="0" result="BackgroundImageFix"/>
<feBlend mode="normal" in="SourceGraphic" in2="BackgroundImageFix" result="shape"/>
<feGaussianBlur stdDeviation="2.5" result="effect1_foregroundBlur_4183_12847"/>
</filter>
<filter id="filter4_d_4183_12847" x="46.6432" y="50.0979" width="53.8262" height="31.969" filterUnits="userSpaceOnUse" color-interpolation-filters="sRGB">
<feFlood flood-opacity="0" result="BackgroundImageFix"/>
<feColorMatrix in="SourceAlpha" type="matrix" values="0 0 0 0 0 0 0 0 0 0 0 0 0 0 0 0 0 0 127 0" result="hardAlpha"/>
<feOffset dy="4"/>
<feGaussianBlur stdDeviation="2"/>
<feComposite in2="hardAlpha" operator="out"/>
<feColorMatrix type="matrix" values="0 0 0 0 0 0 0 0 0 0 0 0 0 0 0 0 0 0 0.25 0"/>
<feBlend mode="normal" in2="BackgroundImageFix" result="effect1_dropShadow_4183_12847"/>
<feBlend mode="normal" in="SourceGraphic" in2="effect1_dropShadow_4183_12847" result="shape"/>
</filter>
</defs>
</svg>
