<svg width="54" height="47" fill="none" xmlns="http://www.w3.org/2000/svg"><path d="M34.054 25.749v4.172c0 .577 0 .577-.596.577H22.97c-.537 0-.487-.072-.489.505 0 1.002-.01 2.004.006 3.005 0 .27-.077.351-.344.341-.524-.02-1.05-.011-1.575-.003-.182 0-.253-.055-.253-.245a972.8 972.8 0 000-5.509c0-.262.148-.247.323-.246 1.074 0 2.148 0 3.222.003.207 0 .326-.019.325-.286-.009-2.967-.005-5.938-.006-8.904 0-.041-.006-.083-.019-.232-.224.38-.398.67-.567.962-1.617 2.798-3.233 5.595-4.85 8.39a.905.905 0 00-.13.473c0 2.312.008 4.624-.004 6.94 0 .297.102.352.37.35 1.062-.014 2.123 0 3.186-.011.252 0 .323.08.32.327-.011 1.037.006 2.075-.011 3.11-.005.31.052.46.402.418.285-.03.573-.03.859 0 .346.035.46-.055.457-.434-.022-2.277 0-4.554-.02-6.83 0-.358.101-.446.438-.423.453.028.908.028 1.36 0 .305-.019.371.08.37.373-.01 4.293-.012 8.584-.007 12.874 0 .298-.011.596.004.894.011.208-.035.322-.27.286a1.4 1.4 0 00-.215 0H.936c-.06 0-.12-.005-.179 0-.292.028-.315-.05-.17-.303 2.921-5.04 5.837-10.084 8.748-15.131A80840.476 80840.476 0 0027.041.557c.04-.068.054-.16.184-.194.27.463.545.93.817 1.401l8.66 14.977c2.544 4.405 5.088 8.812 7.63 13.219 3.11 5.385 6.224 10.77 9.34 16.152.047.082.089.169.143.247.154.223.072.272-.167.27-1.395-.005-2.793 0-4.188 0-6.992 0-13.984.003-20.975.008-.339 0-.459-.051-.458-.434.017-4.532.017-9.061 0-13.59 0-.326.08-.429.41-.408.453.027.907.027 1.36 0 .305-.017.405.058.402.386-.015 2.3 0 4.601-.017 6.901 0 .34.1.426.416.4a6.03 6.03 0 01.966 0c.274.022.337-.071.335-.337-.01-2.004-.006-4.007-.006-6.01 0-.346.013-.692-.004-1.037-.012-.233.064-.306.3-.303 1.062.01 2.124-.007 3.185.012.302.005.382-.088.377-.382-.017-1.013-.009-2.026-.005-3.04a.96.96 0 00-.119-.511c-.463-.792-.917-1.59-1.375-2.384a1.92 1.92 0 00-.122-.166l-.076.015zm-6.865-16.4l18.857 32.635a.486.486 0 01-.084.038c-2.04.005-4.082.006-6.12.017-.215 0-.222-.108-.22-.267.005-.512.022-1.026-.006-1.537-.017-.31.09-.373.379-.365.756.02 1.513.007 2.33.007l-4.337-7.503-.082.035v.39c0 .94-.005 1.883 0 2.825 0 .204-.04.304-.273.298a30.993 30.993 0 00-1.61 0c-.228.006-.287-.082-.28-.294.012-.333-.006-.667.006-1.002.006-.192-.043-.28-.257-.271-.393.015-.788.012-1.182 0-.202-.007-.266.063-.265.265.007 1.67.007 3.339 0 5.008 0 .215.082.26.274.254.393-.011.787-.011 1.18 0 .182.005.258-.046.25-.239-.013-.297.013-.596-.008-.893-.018-.272.06-.383.354-.368.488.024.979.02 1.467 0 .262-.01.352.06.347.336a70.792 70.792 0 000 2.896c.01.347-.086.433-.43.429-2.314-.017-4.63-.004-6.946-.016-.286 0-.367.079-.358.358.022.56.032 1.122 0 1.68-.022.362.107.422.44.422 6.349-.01 12.697-.013 19.042-.01.164 0 .401.08.473-.045.087-.154-.113-.315-.198-.464a13920.15 13920.15 0 00-6.834-11.82c-1.58-2.734-3.158-5.468-4.735-8.204-1.932-3.342-3.864-6.685-5.797-10.026a13205.31 13205.31 0 01-5.201-9.01c-.167-.29-.223-.235-.366.013a4619.237 4619.237 0 01-5.848 10.12l-8.483 14.667c-2.527 4.374-5.053 8.749-7.577 13.124l-.945 1.646h18.399c.44 0 .883-.011 1.324.005.228.008.315-.055.308-.298a36.74 36.74 0 010-1.86c.006-.24-.075-.301-.305-.3-1.061.012-2.124-.004-3.186.012-.286.005-.387-.063-.382-.37.02-1.048 0-2.097.014-3.148.004-.268-.072-.347-.341-.343-1.05.014-2.1-.004-3.151.012-.291.005-.386-.067-.383-.372.015-1.68.007-3.363.007-5.043v-.365l-.09-.012a9925.732 9925.732 0 00-4.319 7.475h.45c1.934 0 3.867.005 5.8-.005.245 0 .334.056.324.314-.02.511-.02 1.025 0 1.537.009.254-.072.318-.323.317-3.221-.007-6.444-.007-9.668 0-.319 0-.296-.089-.166-.314a8587.41 8587.41 0 007.054-12.188l9.142-15.812 2.535-4.37zm3.073 9.648l-.072.015v.387c0 2.3-.006 4.6.007 6.9 0 .285-.08.367-.358.357-.465-.025-.93-.025-1.395 0-.324.02-.416-.072-.414-.407.013-3.395-.028-6.791.032-10.186.016-.88-.375-1.515-.764-2.2-.108-.19-.176-.079-.242.035-.16.279-.326.555-.48.836-.113.204-.253.387-.252.652.007 4.218.007 8.435 0 12.653 0 .25.068.32.318.318 1.634-.01 3.268-.01 4.902 0 .286 0 .358-.087.358-.363-.011-1.966-.006-3.932-.007-5.898 0-.13.014-.26-.057-.383-.527-.905-1.053-1.81-1.576-2.716z" fill="#F8E4AE"/></svg>