<svg width="32" height="31" fill="none" xmlns="http://www.w3.org/2000/svg"><path fill-rule="evenodd" clip-rule="evenodd" d="M7.25.688c.726 0 1.313.587 1.313 1.312v2.918c4.949-.44 9.927-.44 14.875 0V2a1.312 1.312 0 112.625 0v3.179a5.907 5.907 0 015.027 5.072l.151 1.143a50.74 50.74 0 01-.163 14.469 5.266 5.266 0 01-4.688 4.431l-2.087.206a84.593 84.593 0 01-16.604 0l-2.088-.206a5.267 5.267 0 01-4.687-4.431 50.74 50.74 0 01-.164-14.47l.152-1.142a5.907 5.907 0 015.026-5.072V2c0-.725.588-1.313 1.313-1.313zm.78 6.917a81.222 81.222 0 0115.942 0l1.584.156a3.282 3.282 0 012.931 2.835l.152 1.143c.053.399.1.798.144 1.198H3.219c.043-.4.09-.8.144-1.198l.151-1.143A3.282 3.282 0 016.445 7.76l1.585-.156zm-5.02 7.957a48.116 48.116 0 00.507 9.897 2.642 2.642 0 002.352 2.223l2.087.206c5.35.527 10.74.527 16.09 0l2.087-.206a2.642 2.642 0 002.351-2.223c.51-3.276.68-6.592.507-9.896H3.011z" fill="#2758B7"/></svg>