<svg width="42" height="42" fill="none" xmlns="http://www.w3.org/2000/svg"><path d="M22.313 12.25a1.312 1.312 0 10-2.625 0V21c0 .453.233.873.616 1.113l5.25 3.281a1.312 1.312 0 101.392-2.226l-4.634-2.895V12.25z" fill="#2758B7"/><path fill-rule="evenodd" clip-rule="evenodd" d="M21 5.688C12.543 5.688 5.687 12.543 5.687 21c0 8.457 6.856 15.313 15.313 15.313S36.313 29.456 36.313 21 29.456 5.687 21 5.687zM8.312 21c0-7.007 5.68-12.688 12.688-12.688 7.007 0 12.688 5.68 12.688 12.688 0 7.007-5.68 12.688-12.688 12.688-7.007 0-12.688-5.68-12.688-12.688z" fill="#2758B7"/></svg>