<svg width="273" height="148" fill="none" xmlns="http://www.w3.org/2000/svg"><circle cx="162.793" cy="58.544" r="51.956" stroke="url(#paint0_radial_558_14368)" stroke-width="9.666"/><path fill-rule="evenodd" clip-rule="evenodd" d="M65.851 80.095c23.2-21.145 60.897-34.92 103.55-34.92 42.652 0 80.35 13.775 103.549 34.92-25.011-19.212-62.106-31.415-103.549-31.415-41.444.12-78.539 12.324-103.55 31.415z" fill="#016699"/><path d="M15.104 74.054c-3.746 0-3.988.604-3.988 7.128v22.958c0 6.887.484 7.37 5.68 7.733v1.45H0v-1.45c5.196-.363 5.679-.846 5.679-7.733V81.182c0-6.887-.483-7.37-5.679-7.733V72h43.74v1.45c-5.196.363-5.68.846-5.68 7.733v22.958c0 6.887.484 7.37 5.68 7.733v1.45H26.945v-1.45c5.195-.363 5.678-.846 5.678-7.733V81.182c0-6.524-.362-7.128-3.987-7.128H15.104z" fill="#fff"/><path d="M72.738 85.653v1.57c-4.229.363-4.591.726-4.591 4.23v16.19c0 3.504.362 3.867 4.591 4.229v1.45H58.481v-1.45c4.35-.362 4.591-.725 4.591-4.229V90.486c0-2.175-.12-2.78-2.416-2.78h-2.9c-2.538 0-2.538.363-2.659 2.66-.362 13.049-3.504 19.211-5.92 21.99-1.088 1.208-2.175 1.812-2.9 1.812-.846 0-2.175-.483-3.142-.725v-1.208c3.263-1.45 5.559-4.35 6.767-7.129.966-2.296 2.779-7.129 2.779-14.258 0-2.658-.242-3.141-4.108-3.504v-1.57h24.165v-.121z" fill="#fff"/><path d="M90.983 114.047c-2.175-.362-3.141-2.537-3.504-4.108-2.658 1.692-6.162 4.108-7.491 4.108-4.591 0-7.612-3.866-7.612-7.37 0-2.9 1.57-5.075 4.833-6.404 3.141-1.33 8.337-3.142 10.27-4.47v-2.176c0-3.987-1.812-6.041-5.195-6.041-3.142 0-4.47 2.658-5.196 5.316-.241.725-.725 1.209-1.45 1.209-.966 0-2.779-.967-2.779-2.175 0-.846.725-1.692 2.175-2.78 1.57-1.087 5.316-3.503 9.787-4.35 1.813 0 3.746.605 5.075 1.572 2.054 1.691 2.416 3.866 2.416 6.162v14.258c0 2.295.846 3.383 1.813 3.383.483 0 1.57-.242 2.779-.846l.604 1.45-6.525 3.262zm-3.504-16.19c-1.45.603-5.195 2.295-6.404 2.899-2.175 1.208-3.262 2.538-3.262 4.712 0 3.384 2.296 4.954 4.23 4.954 1.449 0 3.866-1.087 5.557-2.537V97.856h-.12z" fill="#fff"/><path d="M118.653 97.615v-6.162c0-3.504-.363-3.867-4.35-4.23v-1.45h13.533v1.45c-3.867.363-4.229.726-4.229 4.23v16.191c0 3.504.362 3.866 4.35 4.229v1.45h-13.412v-1.45c3.866-.363 4.229-.725 4.229-4.229V99.79h-12.929v7.854c0 3.504.363 3.866 4.229 4.229v1.45H96.541v-1.45c3.988-.363 4.35-.725 4.35-4.229V91.453c0-3.504-.362-3.867-4.47-4.23v-1.45h13.532v1.45c-3.745.363-4.108.726-4.108 4.23v6.283h12.808v-.121zm33.228 10.27c-3.504 4.954-7.854 6.283-9.546 6.283-8.095 0-12.928-6.041-12.928-13.412 0-8.578 5.92-15.707 13.653-15.707 4.954 0 9.062 4.591 9.062 8.82 0 1.933-.241 2.054-1.329 2.296-.846.242-8.82.846-16.674 1.087-.242 9.425 5.8 12.808 10.391 12.808 2.054 0 3.987-.725 6.525-3.021l.846.846zm-6.404-13.17c.846 0 1.087-.362 1.087-2.054 0-2.537-2.054-5.558-5.316-5.558-3.021 0-6.404 3.141-6.887 7.854l11.116-.242zm22.957 12.808c0 3.504.363 3.866 4.471 4.229v1.45h-14.137v-1.45c4.35-.363 4.591-.725 4.591-4.229V87.707h-2.416c-1.692 0-3.504.242-4.35 1.329-.846.967-1.45 2.537-1.933 4.954l-1.571-.242.483-8.095H178.1l.484 7.974-1.571.242c-.483-2.296-1.088-3.866-1.933-4.954-.846-1.087-2.659-1.329-4.35-1.329h-2.417v19.937h.121zm30.086 6.524c-2.175-.362-3.141-2.537-3.504-4.108-2.658 1.692-6.162 4.108-7.491 4.108-4.592 0-7.612-3.866-7.612-7.37 0-2.9 1.57-5.075 4.833-6.404 3.141-1.33 8.337-3.142 10.27-4.47v-2.176c0-3.987-1.812-6.041-5.196-6.041-3.141 0-4.47 2.658-5.195 5.316-.242.725-.725 1.209-1.45 1.209-.967 0-2.779-.967-2.779-2.175 0-.846.725-1.692 2.175-2.78 1.571-1.087 5.316-3.503 9.787-4.35 1.812 0 3.746.605 5.075 1.572 2.054 1.691 2.416 3.866 2.416 6.162v14.258c0 2.295.846 3.383 1.813 3.383.483 0 1.57-.242 2.779-.846l.604 1.45-6.525 3.262zm-3.504-16.19c-1.45.603-5.196 2.295-6.404 2.899-2.175 1.208-3.262 2.538-3.262 4.712 0 3.384 2.296 4.954 4.229 4.954 1.45 0 3.866-1.087 5.558-2.537V97.856h-.121zM47.002 133.138c-.725 0-1.45-.121-1.934-.363a4.342 4.342 0 01-1.45-.966c-.362-.484-.724-.967-.845-1.571-.242-.604-.242-1.208-.242-1.933 0-.725.121-1.329.242-1.933.241-.605.483-1.088.846-1.571.362-.484.845-.725 1.45-1.088a5.021 5.021 0 011.933-.362 5.02 5.02 0 011.933.362 3.297 3.297 0 011.45 1.088c.362.483.725.966.846 1.571.241.604.241 1.208.241 1.933 0 .725-.12 1.329-.241 1.933-.242.604-.484 1.087-.846 1.571-.362.483-.846.725-1.45.966a5.003 5.003 0 01-1.933.363zm0-1.329c.362 0 .725-.121 1.087-.242.363-.121.604-.362.967-.725.242-.241.483-.604.604-1.087.12-.484.242-.967.242-1.45a4.5 4.5 0 00-.242-1.45 2.342 2.342 0 00-.604-1.088c-.242-.241-.604-.483-.967-.725-.362-.12-.725-.241-1.087-.241-.363 0-.725.121-1.088.241-.362.121-.604.363-.966.725-.242.242-.484.725-.605 1.088-.12.483-.241.966-.241 1.45 0 .604.12 1.087.242 1.45.12.483.362.846.604 1.087.241.242.604.483.966.725.242.121.725.242 1.088.242zm5.196-.242h1.087c.121-.241.242-.604.363-1.087l.362-1.45c.121-.483.242-1.087.242-1.692.12-.604.12-1.208.12-1.812v-2.054h6.767v7.975h1.208v4.229h-1.45v-2.78h-7.37v2.78h-1.45v-4.109h.12zm7.491 0v-6.645h-3.746v.846c0 .604 0 1.208-.12 1.812-.121.604-.121 1.088-.242 1.692l-.363 1.45c-.12.362-.241.725-.362.966h4.833v-.121zm4.229-7.974h1.57v7.612l4.35-7.612h1.933v9.304h-1.57v-7.613l-4.35 7.613h-1.933v-9.304zm12.324 1.329H72.86v-1.329h8.216v1.329h-3.383v7.975h-1.57v-7.975h.12zm10.15 8.216c-.725 0-1.45-.121-1.933-.363a4.342 4.342 0 01-1.45-.966c-.363-.484-.725-.967-.846-1.571-.242-.604-.242-1.208-.242-1.933 0-.725.121-1.329.242-1.933.242-.605.483-1.088.846-1.571.362-.484.846-.725 1.45-1.088a5.021 5.021 0 011.933-.362 5.02 5.02 0 011.933.362 3.297 3.297 0 011.45 1.088c.363.483.725.966.846 1.571.242.604.242 1.208.242 1.933 0 .725-.121 1.329-.242 1.933-.242.604-.483 1.087-.846 1.571-.362.483-.846.725-1.45.966a5.002 5.002 0 01-1.933.363zm0-1.329c.362 0 .725-.121 1.087-.242.363-.121.605-.362.967-.725.242-.241.483-.604.604-1.087.12-.484.242-.967.242-1.45a4.5 4.5 0 00-.242-1.45 2.342 2.342 0 00-.604-1.088c-.242-.241-.604-.483-.967-.725-.362-.12-.725-.241-1.087-.241-.363 0-.725.121-1.088.241-.362.121-.604.363-.966.725-.242.242-.483.725-.604 1.088-.121.483-.242.966-.242 1.45 0 .604.12 1.087.242 1.45.12.483.362.846.604 1.087.242.242.604.483.966.725.363.121.725.242 1.088.242zm6.403-8.216h1.45v1.208c.242-.484.605-.846 1.209-1.088.483-.241 1.087-.362 1.812-.362.725 0 1.33.121 1.933.362a3.77 3.77 0 011.329 1.088c.363.483.605.966.846 1.571.121.604.242 1.208.242 1.812 0 .725-.121 1.329-.242 1.933-.121.604-.483 1.088-.846 1.571-.362.483-.845.725-1.329 1.087-.483.242-1.208.363-1.812.363-.242 0-.483 0-.725-.121-.242 0-.604-.121-.846-.242-.242-.12-.483-.241-.725-.483-.241-.242-.483-.362-.604-.725v4.833h-1.57v-12.807h-.122zm4.35 8.216c.484 0 .967-.121 1.33-.363a2.81 2.81 0 00.845-.846c.242-.362.363-.724.483-1.208.121-.483.121-.846.121-1.329s0-.846-.12-1.208c-.121-.363-.242-.725-.484-1.088-.242-.362-.483-.604-.846-.725-.362-.241-.846-.241-1.329-.241s-.966.121-1.329.362a2.834 2.834 0 00-.846.846c-.241.363-.362.725-.483 1.087-.12.363-.12.846-.12 1.33 0 .483 0 .845.12 1.329.12.483.242.846.483 1.087.242.363.484.604.967.725.242.121.725.242 1.208.242zm10.029 1.329a5.02 5.02 0 01-1.933-.362c-.604-.242-.967-.604-1.329-.967-.363-.362-.604-.967-.846-1.45-.242-.604-.242-1.208-.242-1.933 0-.725.121-1.329.242-1.933.121-.605.483-1.088.846-1.571a3.775 3.775 0 011.329-1.088 5.02 5.02 0 011.933-.362c.483 0 .967.121 1.45.242.483.12.846.362 1.208.604.363.241.604.604.846.966.242.363.363.846.483 1.45h-1.57c-.121-.604-.363-1.087-.725-1.329-.363-.362-.846-.483-1.571-.483-.604 0-.967.121-1.329.362-.363.242-.725.484-.846.846-.242.363-.363.725-.483 1.208-.121.484-.121.846-.121 1.33 0 .483 0 .845.121 1.208.12.362.241.725.483 1.087.242.363.483.604.846.725.362.242.725.242 1.208.242.725 0 1.329-.242 1.812-.604.484-.363.725-.967.725-1.692h1.571c-.121 1.208-.604 2.054-1.329 2.658-.604.484-1.571.846-2.779.846zm5.8-9.545h1.571v4.47l4.229-4.47h2.054l-3.746 3.625 4.229 5.679h-1.933l-3.383-4.592-1.45 1.45v3.142h-1.571v-9.304zm12.083 9.545c-.363 0-.846 0-1.209-.121-.362-.121-.725-.241-.966-.483-.242-.242-.484-.483-.725-.846-.121-.362-.242-.725-.242-1.208s.121-.967.242-1.329c.121-.363.362-.604.725-.846.241-.242.604-.362.966-.483.363-.121.725-.242 1.209-.242.362-.121.845-.121 1.208-.242.362 0 .725-.12.966-.12l.725-.363a.921.921 0 00.242-.604c0-.363-.121-.604-.242-.846a.941.941 0 00-.483-.483c-.242-.121-.362-.121-.725-.242h-.725c-.604 0-1.208.121-1.571.363-.483.241-.725.725-.725 1.45h-1.57c0-.605.121-1.088.362-1.45.242-.363.483-.725.846-.967.362-.242.725-.362 1.208-.483.484-.121.967-.121 1.45-.121.363 0 .846 0 1.208.121.363 0 .846.241 1.088.362.362.242.604.484.846.725.241.363.362.725.362 1.329v4.833c0 .363 0 .605.121.846 0 .121.242.242.362.242.121 0 .242 0 .484-.121v1.208a2.411 2.411 0 01-1.088.242c-.362 0-.725-.121-.966-.363-.242-.241-.363-.604-.363-1.087-.362.483-.966.846-1.45 1.087a5.348 5.348 0 01-1.57.242zm.362-1.329c.483 0 .967-.121 1.329-.242.363-.12.604-.362.846-.483.242-.242.362-.483.483-.725s.121-.483.121-.725v-1.571l-.725.363c-.362 0-.604.121-.967.121-.362 0-.724.121-1.087.121-.362 0-.604.12-.967.241-.241.121-.483.242-.725.483-.12.242-.241.484-.241.967 0 .242 0 .483.121.604.12.121.241.363.362.363a.923.923 0 00.604.241c.363.242.604.242.846.242zm8.7-2.537c-.604-.121-1.208-.363-1.571-.846-.362-.483-.604-1.088-.604-1.933 0-.846.242-1.571.725-2.054.483-.484 1.208-.725 2.175-.725h4.712v9.303h-1.571v-3.624h-2.054l-2.9 3.624h-2.054l3.142-3.745zm3.745-1.209v-3.02h-2.658c-.604 0-1.087.121-1.45.362-.241.242-.483.604-.483 1.088 0 .483.121.845.483 1.087.242.242.725.363 1.45.363h2.658v.12zm8.942-4.47h6.404v1.329h-4.834v7.975h-1.57v-9.304zm7.612 0h1.57v1.208c.242-.484.605-.846 1.209-1.088.483-.241 1.087-.362 1.812-.362a5.02 5.02 0 011.933.362c.484.242.967.604 1.329 1.088.363.483.605.966.846 1.571.121.604.242 1.208.242 1.812 0 .725-.121 1.329-.242 1.933-.121.604-.483 1.088-.846 1.571-.362.483-.845.725-1.329 1.087-.483.242-1.208.363-1.812.363-.242 0-.483 0-.725-.121-.242 0-.604-.121-.846-.242-.242-.12-.483-.241-.725-.483-.241-.242-.483-.362-.604-.725v4.833h-1.571v-12.807h-.241zm4.349 8.216c.484 0 .967-.121 1.33-.363.362-.241.604-.483.845-.846.242-.362.363-.724.484-1.208.12-.483.12-.846.12-1.329s0-.846-.12-1.208c-.121-.363-.242-.725-.484-1.088-.241-.362-.483-.604-.845-.725-.363-.241-.846-.241-1.33-.241-.483 0-.966.121-1.329.362a2.829 2.829 0 00-.845.846c-.242.363-.363.725-.484 1.087-.121.363-.121.846-.121 1.33 0 .483 0 .845.121 1.329.121.483.242.846.484 1.087.241.363.483.604.966.725.242.121.725.242 1.208.242zm7.25 4.833h-.483c-.121 0-.362-.121-.483-.121v-1.45c.121 0 .241.121.483.121.121 0 .242.121.483.121.363 0 .605-.121.725-.242.242-.12.363-.362.484-.604l.604-1.57-3.625-9.183h1.692l2.658 7.612 2.658-7.612h1.571l-3.988 10.512c-.12.483-.362.845-.483 1.208a1.239 1.239 0 01-.604.725c-.242.242-.483.362-.725.483-.362-.121-.725 0-.967 0zm7.975-13.049h7.612v9.304h-1.57v-7.975h-4.471v7.975h-1.571v-9.304zm9.908 0h7.612v9.304h-1.571v-7.975h-4.47v7.975H183.9v-9.304zm12.445 9.545c-.362 0-.846 0-1.208-.121-.363-.121-.725-.241-.967-.483s-.483-.483-.725-.846c-.121-.362-.242-.725-.242-1.208s.121-.967.242-1.329c.121-.363.363-.604.725-.846.242-.242.604-.362.967-.483.362-.121.725-.242 1.208-.242.363-.121.846-.121 1.208-.242.363 0 .725-.12.967-.12l.725-.363a.921.921 0 00.242-.604c0-.363-.121-.604-.242-.846a.948.948 0 00-.483-.483c-.242-.121-.363-.121-.725-.242h-.725c-.604 0-1.209.121-1.571.363-.483.241-.725.725-.725 1.45h-1.571c0-.605.121-1.088.363-1.45.241-.363.483-.725.845-.967.363-.242.725-.362 1.209-.483.483-.121.966-.121 1.45-.121.362 0 .845 0 1.208.121.362 0 .846.241 1.087.362.363.242.605.484.846.725.242.363.363.725.363 1.329v4.833c0 .363 0 .605.12.846 0 .121.242.242.363.242s.242 0 .483-.121v1.208a2.407 2.407 0 01-1.087.242c-.363 0-.725-.121-.967-.363-.241-.241-.362-.604-.362-1.087-.363.483-.967.846-1.45 1.087a5.361 5.361 0 01-1.571.242zm.363-1.329c.483 0 .966-.121 1.329-.242.362-.12.604-.362.845-.483.242-.242.363-.483.484-.725s.121-.483.121-.725v-1.571l-.725.363c-.363 0-.605.121-.967.121-.363 0-.725.121-1.087.121-.363 0-.605.12-.967.241-.242.121-.483.242-.725.483-.121.242-.242.484-.242.967 0 .242 0 .483.121.604s.242.363.363.363c.12.121.362.241.604.241.362.242.604.242.846.242z" fill="#fff"/><defs><radialGradient id="paint0_radial_558_14368" cx="0" cy="0" r="1" gradientUnits="userSpaceOnUse" gradientTransform="rotate(90 52.124 110.669) scale(56.7891)"><stop stop-color="#F90"/><stop offset="1" stop-color="#FFCD00" stop-opacity="0"/></radialGradient></defs></svg>