<svg width="184" height="110" fill="none" xmlns="http://www.w3.org/2000/svg"><g clip-path="url(#clip0_846_13795)"><path fill-rule="evenodd" clip-rule="evenodd" d="M116.025 81.705c22.655 0 41.02-18.355 41.02-40.996 0-22.641-18.365-40.996-41.02-40.996-22.654 0-41.019 18.355-41.019 40.996 0 22.641 18.365 40.996 41.019 40.996zm0-15.227c14.24 0 25.784-11.537 25.784-25.769 0-14.232-11.544-25.769-25.784-25.769-14.239 0-25.783 11.537-25.783 25.769 0 14.232 11.544 25.769 25.783 25.769z" fill="url(#paint0_radial_846_13795)"/><path fill-rule="evenodd" clip-rule="evenodd" d="M44.411 64.23c15.646-14.253 41.07-23.537 69.835-23.537 28.766 0 54.19 9.284 69.836 23.537-16.869-12.95-41.885-21.175-69.836-21.175-27.95.081-52.967 8.307-69.835 21.175z" fill="#016699"/><path d="M10.186 60.157c-2.526 0-2.69.408-2.69 4.806v15.474c0 4.642.327 4.968 3.83 5.212v.977H0v-.977c3.504-.245 3.83-.57 3.83-5.213V64.963c0-4.643-.326-4.968-3.83-5.213v-.977h29.499v.977c-3.504.245-3.83.57-3.83 5.213v15.474c0 4.642.326 4.968 3.83 5.212v.977H18.172v-.977c3.504-.245 3.83-.57 3.83-5.213V64.963c0-4.398-.245-4.805-2.69-4.805h-9.126z" fill="#fff"/><path d="M49.056 67.976v1.059c-2.852.244-3.097.488-3.097 2.85v10.913c0 2.362.245 2.606 3.097 2.85v.978H39.44v-.977c2.934-.245 3.097-.489 3.097-2.85V71.233c0-1.466-.082-1.874-1.63-1.874h-1.956c-1.711 0-1.711.245-1.793 1.792-.244 8.796-2.363 12.95-3.992 14.823-.734.814-1.467 1.221-1.956 1.221-.57 0-1.467-.326-2.119-.489v-.814c2.2-.977 3.749-2.932 4.563-4.805.652-1.547 1.875-4.805 1.875-9.61 0-1.792-.163-2.118-2.77-2.362v-1.059h16.297v-.081z" fill="#fff"/><path d="M61.36 87.115c-1.466-.245-2.118-1.71-2.363-2.77-1.792 1.14-4.155 2.77-5.052 2.77-3.096 0-5.134-2.606-5.134-4.968 0-1.955 1.06-3.42 3.26-4.317 2.119-.895 5.623-2.117 6.926-3.013v-1.466c0-2.688-1.222-4.072-3.504-4.072-2.118 0-3.015 1.792-3.504 3.583-.162.49-.488.815-.977.815-.652 0-1.875-.652-1.875-1.466 0-.57.49-1.14 1.467-1.873 1.06-.733 3.586-2.362 6.6-2.932 1.223 0 2.527.407 3.423 1.059 1.386 1.14 1.63 2.606 1.63 4.153v9.61c0 1.548.57 2.28 1.222 2.28.326 0 1.06-.162 1.874-.57l.408.978-4.4 2.199zm-2.363-10.913c-.977.407-3.504 1.547-4.319 1.954-1.466.815-2.2 1.71-2.2 3.176 0 2.28 1.549 3.34 2.852 3.34.978 0 2.608-.733 3.749-1.71v-6.76h-.082z" fill="#fff"/><path d="M80.021 76.039v-4.154c0-2.362-.244-2.606-2.933-2.85v-.978h9.126v.978c-2.607.244-2.852.488-2.852 2.85v10.913c0 2.362.245 2.606 2.934 2.85v.978H77.25v-.977c2.607-.245 2.852-.489 2.852-2.85v-5.294h-8.72v5.293c0 2.362.245 2.606 2.853 2.85v.978h-9.127v-.977c2.69-.245 2.934-.489 2.934-2.85V71.884c0-2.362-.245-2.606-3.016-2.85v-.978h9.127v.978c-2.526.244-2.77.488-2.77 2.85v4.235h8.637v-.081zm22.41 6.922c-2.364 3.34-5.297 4.235-6.438 4.235-5.46 0-8.72-4.072-8.72-9.04 0-5.782 3.994-10.587 9.209-10.587 3.341 0 6.112 3.094 6.112 5.945 0 1.303-.163 1.385-.897 1.547-.57.163-5.948.57-11.245.733-.163 6.353 3.911 8.633 7.008 8.633 1.385 0 2.689-.489 4.4-2.036l.571.57zm-4.32-8.877c.571 0 .734-.244.734-1.385 0-1.71-1.385-3.746-3.585-3.746-2.038 0-4.32 2.118-4.645 5.294l7.497-.163zm15.483 8.633c0 2.362.245 2.606 3.016 2.85v.978h-9.535v-.978c2.934-.244 3.097-.488 3.097-2.85V69.36h-1.63c-1.141 0-2.363.163-2.933.896-.571.652-.978 1.71-1.304 3.34l-1.06-.163.326-5.457h16.543l.325 5.375-1.059.163c-.326-1.547-.733-2.606-1.304-3.34-.57-.732-1.792-.895-2.933-.895h-1.63v13.438h.081zm20.291 4.398c-1.467-.245-2.119-1.71-2.363-2.77-1.793 1.14-4.156 2.77-5.052 2.77-3.097 0-5.134-2.606-5.134-4.968 0-1.955 1.059-3.42 3.259-4.317 2.119-.895 5.623-2.117 6.927-3.013v-1.466c0-2.688-1.222-4.072-3.504-4.072-2.119 0-3.015 1.792-3.504 3.583-.163.49-.489.815-.978.815-.652 0-1.874-.652-1.874-1.466 0-.57.489-1.14 1.467-1.873 1.059-.733 3.585-2.362 6.6-2.932 1.222 0 2.526.407 3.423 1.059 1.385 1.14 1.629 2.606 1.629 4.153v9.61c0 1.548.571 2.28 1.223 2.28.326 0 1.059-.162 1.874-.57l.407.978-4.4 2.199zm-2.363-10.913c-.978.407-3.504 1.547-4.319 1.954-1.467.815-2.2 1.71-2.2 3.176 0 2.28 1.548 3.34 2.852 3.34.978 0 2.607-.733 3.748-1.71v-6.76h-.081zM31.699 99.983c-.49 0-.978-.082-1.304-.245a2.93 2.93 0 01-.978-.651c-.244-.326-.489-.652-.57-1.059-.163-.407-.163-.814-.163-1.303s.081-.896.163-1.303c.163-.407.326-.733.57-1.059.245-.326.57-.489.978-.733a3.38 3.38 0 011.304-.244c.489 0 .896.081 1.304.244.407.163.733.407.977.733.245.326.49.652.57 1.059.164.407.164.814.164 1.303s-.082.896-.163 1.303c-.163.407-.326.733-.57 1.059-.245.325-.571.488-.978.651a3.38 3.38 0 01-1.304.245zm0-.896c.244 0 .489-.082.733-.163.245-.082.408-.244.652-.489a1.57 1.57 0 00.407-.733c.082-.326.163-.651.163-.977a3.02 3.02 0 00-.163-.977 1.575 1.575 0 00-.407-.733c-.163-.163-.407-.326-.652-.489-.244-.081-.489-.163-.733-.163-.245 0-.49.082-.734.163-.244.082-.407.244-.651.489-.163.162-.326.488-.408.733-.081.325-.163.651-.163.977 0 .407.082.733.163.977.082.326.245.57.408.733.163.163.407.326.651.489.163.081.49.163.734.163zm3.504-.163h.733c.082-.163.163-.407.245-.733l.244-.977a4.78 4.78 0 00.163-1.14c.082-.408.082-.815.082-1.222v-1.385h4.563v5.375h.815v2.851h-.978V99.82H36.1v1.873h-.979v-2.77h.082zm5.052 0v-4.48H37.73v.57c0 .408 0 .815-.081 1.222-.082.407-.082.733-.163 1.14l-.245.978a5.611 5.611 0 01-.244.651h3.26v-.081zm2.852-5.375h1.06v5.13l2.933-5.13h1.304v6.27h-1.06v-5.13l-2.933 5.13h-1.304v-6.27zm8.312.896h-2.282v-.896h5.541v.896h-2.281v5.375h-1.06v-5.375h.082zm6.845 5.538c-.489 0-.978-.082-1.304-.245a2.93 2.93 0 01-.978-.651c-.244-.326-.489-.652-.57-1.059-.163-.407-.163-.814-.163-1.303s.081-.896.163-1.303c.163-.407.326-.733.57-1.059.245-.326.57-.489.978-.733a3.38 3.38 0 011.304-.244c.489 0 .896.081 1.304.244.407.163.733.407.978.733.244.326.489.652.57 1.059.163.407.163.814.163 1.303s-.081.896-.163 1.303c-.163.407-.326.733-.57 1.059-.245.325-.57.488-.978.651a3.38 3.38 0 01-1.304.245zm0-.896c.244 0 .489-.082.733-.163.245-.082.408-.244.652-.489.163-.163.326-.407.408-.733.081-.326.163-.651.163-.977 0-.407-.082-.733-.163-.977a1.575 1.575 0 00-.408-.733c-.163-.163-.407-.326-.651-.489-.245-.081-.49-.163-.734-.163s-.489.082-.733.163c-.245.082-.408.244-.652.489-.163.163-.326.488-.408.733-.081.325-.163.651-.163.977 0 .407.082.733.163.977.082.326.245.57.408.733.163.163.407.326.652.489.244.081.489.163.733.163zm4.319-5.538h.977v.814c.163-.326.408-.57.815-.733.326-.163.734-.244 1.223-.244.489 0 .896.081 1.303.244.327.163.652.407.897.733.244.326.407.652.57 1.059.082.407.163.814.163 1.222 0 .488-.081.895-.163 1.303-.081.407-.326.733-.57 1.058-.245.326-.57.489-.897.733-.325.163-.814.245-1.222.245-.163 0-.326 0-.489-.082-.163 0-.407-.081-.57-.163a1.707 1.707 0 01-.49-.325c-.162-.163-.325-.245-.406-.49v3.259h-1.06v-8.633h-.081zm2.933 5.538c.326 0 .652-.082.897-.245a1.89 1.89 0 00.57-.57c.163-.244.245-.488.326-.814.081-.326.081-.57.081-.896 0-.326 0-.57-.081-.814-.081-.245-.163-.489-.326-.733-.163-.245-.326-.407-.57-.489-.245-.163-.57-.163-.897-.163-.326 0-.652.082-.896.245a1.904 1.904 0 00-.57.57c-.164.244-.245.488-.326.733-.082.244-.082.57-.082.895 0 .326 0 .57.081.896.082.326.163.57.326.733.163.245.326.407.652.489.163.081.49.163.815.163zm6.764.896a3.38 3.38 0 01-1.304-.245c-.407-.163-.652-.407-.896-.651-.245-.245-.408-.652-.57-.978-.164-.407-.164-.814-.164-1.303 0-.488.082-.895.163-1.303.082-.407.326-.733.57-1.058.245-.326.571-.57.897-.733a3.38 3.38 0 011.304-.245c.326 0 .652.082.978.163.326.082.57.245.815.407.244.163.407.408.57.652.163.244.245.57.326.977h-1.06c-.08-.407-.244-.733-.488-.896-.245-.244-.57-.325-1.06-.325-.407 0-.651.081-.896.244-.245.163-.489.326-.57.57-.163.244-.245.489-.326.814-.082.326-.082.57-.082.896 0 .326 0 .57.082.815.081.244.163.488.326.733.163.244.326.407.57.488.245.163.489.163.815.163.489 0 .896-.163 1.222-.407.326-.244.49-.651.49-1.14h1.058c-.081.814-.407 1.384-.896 1.791-.407.326-1.06.57-1.874.57zm3.912-6.434h1.059v3.013l2.852-3.013h1.385l-2.526 2.443 2.852 3.828H80.51l-2.281-3.095-.978.977v2.118h-1.06v-6.271zm8.148 6.434c-.244 0-.57 0-.815-.082-.244-.081-.489-.163-.652-.326-.163-.163-.326-.325-.489-.57-.081-.244-.163-.488-.163-.814 0-.326.082-.652.163-.896.082-.244.245-.407.49-.57.162-.163.407-.244.651-.326.245-.081.49-.163.815-.163.245-.081.57-.081.815-.163.245 0 .489-.081.652-.081l.489-.244a.622.622 0 00.163-.408c0-.244-.082-.407-.163-.57a.636.636 0 00-.326-.325c-.163-.082-.245-.082-.489-.163h-.489c-.407 0-.815.081-1.06.244-.325.163-.488.489-.488.977h-1.06c0-.407.082-.733.245-.977.163-.244.326-.489.57-.651.245-.163.49-.245.815-.326.326-.082.652-.082.978-.082.245 0 .57 0 .815.082.244 0 .57.163.733.244.245.163.408.326.57.489.164.244.245.488.245.896v3.257c0 .245 0 .407.082.57 0 .082.163.163.244.163.082 0 .163 0 .326-.081v.814a1.629 1.629 0 01-.733.163c-.245 0-.49-.081-.652-.244-.163-.163-.245-.407-.245-.733-.244.325-.652.57-.977.733a3.617 3.617 0 01-1.06.163zm.245-.896c.326 0 .652-.082.896-.163.244-.082.407-.244.57-.326.163-.163.245-.326.326-.489.082-.162.082-.325.082-.488v-1.059l-.49.244c-.244 0-.407.082-.651.082-.245 0-.489.081-.733.081-.245 0-.408.082-.652.163-.163.082-.326.163-.49.326-.08.163-.162.326-.162.651 0 .163 0 .326.081.408.082.081.163.244.245.244a.623.623 0 00.407.163.88.88 0 00.57.163zm5.867-1.711c-.408-.08-.815-.244-1.06-.57-.244-.325-.407-.733-.407-1.303s.163-1.058.489-1.384c.326-.326.815-.489 1.467-.489h3.178v6.271h-1.06v-2.443h-1.385l-1.956 2.443h-1.385l2.119-2.525zm2.526-.814v-2.036h-1.793c-.407 0-.733.082-.978.244a1.032 1.032 0 00-.326.733c0 .326.082.57.326.733.163.163.49.245.978.245h1.793v.081zm6.03-3.013h4.319v.896h-3.26v5.375h-1.059v-6.271zm5.134 0h1.059v.814c.163-.326.407-.57.815-.733.326-.163.733-.244 1.222-.244s.897.081 1.304.244c.326.163.652.407.896.733.245.326.408.652.571 1.059.081.407.163.814.163 1.222 0 .488-.082.895-.163 1.303-.082.407-.326.733-.571 1.058-.244.326-.57.489-.896.733-.326.163-.815.245-1.222.245-.163 0-.326 0-.489-.082-.163 0-.408-.081-.571-.163a1.706 1.706 0 01-.489-.325c-.163-.163-.326-.245-.407-.49v3.259h-1.059v-8.633h-.163zm2.933 5.538c.326 0 .652-.082.897-.245a1.89 1.89 0 00.57-.57c.163-.244.244-.488.326-.814.081-.326.081-.57.081-.896 0-.326 0-.57-.081-.814-.082-.245-.163-.489-.326-.733-.163-.245-.326-.407-.57-.489-.245-.163-.571-.163-.897-.163-.326 0-.652.082-.896.245a1.899 1.899 0 00-.571.57c-.163.244-.244.488-.326.733-.081.244-.081.57-.081.895 0 .326 0 .57.081.896.082.326.163.57.326.733.163.245.326.407.652.489.163.081.489.163.815.163zm4.89 3.257h-.326c-.082 0-.245-.081-.326-.081v-.977c.081 0 .163.081.326.081.081 0 .163.082.326.082.244 0 .407-.082.489-.163.163-.082.244-.245.326-.407l.407-1.06-2.445-6.189h1.141l1.793 5.131 1.793-5.13h1.059l-2.689 7.085c-.082.325-.245.57-.326.814a.84.84 0 01-.408.489 1.686 1.686 0 01-.488.325c-.245-.081-.489 0-.652 0zm5.378-8.795h5.134v6.27h-1.06v-5.374h-3.015v5.375h-1.059v-6.271zm6.682 0h5.134v6.27h-1.06v-5.374h-3.015v5.375h-1.059v-6.271zm8.393 6.434c-.244 0-.57 0-.815-.082-.244-.081-.489-.163-.652-.326-.163-.163-.326-.325-.489-.57-.081-.244-.163-.488-.163-.814 0-.326.082-.652.163-.896.082-.244.245-.407.489-.57.163-.163.408-.244.652-.326.245-.081.489-.163.815-.163.245-.081.571-.081.815-.163.244 0 .489-.081.652-.081l.489-.244a.624.624 0 00.163-.408c0-.244-.082-.407-.163-.57a.638.638 0 00-.326-.325c-.163-.082-.245-.082-.489-.163h-.489c-.407 0-.815.081-1.059.244-.326.163-.489.489-.489.977h-1.06c0-.407.082-.733.245-.977.163-.244.326-.489.57-.651.245-.163.489-.245.815-.326.326-.082.652-.082.978-.082.245 0 .57 0 .815.082.244 0 .57.163.733.244.245.163.408.326.571.489.163.244.244.488.244.896v3.257c0 .245 0 .407.082.57 0 .082.163.163.244.163.082 0 .163 0 .326-.081v.814a1.627 1.627 0 01-.733.163c-.245 0-.489-.081-.652-.244-.163-.163-.245-.407-.245-.733-.244.325-.652.57-.978.733a3.608 3.608 0 01-1.059.163zm.245-.896c.326 0 .651-.082.896-.163.244-.082.407-.244.57-.326.163-.163.245-.326.326-.489.082-.162.082-.325.082-.488v-1.059l-.489.244c-.245 0-.408.082-.652.082-.244 0-.489.081-.733.081-.245 0-.408.082-.652.163-.163.082-.326.163-.489.326a1.256 1.256 0 00-.163.651c0 .163 0 .326.081.408.082.081.163.244.245.244a.62.62 0 00.407.163.881.881 0 00.571.163z" fill="#fff"/></g><defs><radialGradient id="paint0_radial_846_13795" cx="0" cy="0" r="1" gradientUnits="userSpaceOnUse" gradientTransform="scale(41.0191 40.9959) rotate(90 .918 1.91)"><stop stop-color="#FFB443"/><stop offset="1" stop-color="#FFC700" stop-opacity="0"/></radialGradient><clipPath id="clip0_846_13795"><path fill="#fff" d="M0 0h184v110H0z"/></clipPath></defs></svg>