<svg width="157" height="94" fill="none" xmlns="http://www.w3.org/2000/svg"><g clip-path="url(#clip0_848_1289)"><path fill-rule="evenodd" clip-rule="evenodd" d="M99 70c19.33 0 35-15.67 35-35S118.33 0 99 0 64 15.67 64 35s15.67 35 35 35zm0-13c12.15 0 22-9.85 22-22s-9.85-22-22-22-22 9.85-22 22 9.85 22 22 22z" fill="url(#paint0_radial_848_1289)"/><path fill-rule="evenodd" clip-rule="evenodd" d="M37.894 55.08c13.35-12.167 35.043-20.094 59.588-20.094 24.544 0 46.238 7.927 59.587 20.095-14.392-11.056-35.738-18.078-59.587-18.078-23.85.07-45.195 7.092-59.588 18.078z" fill="#016699"/><path d="M8.691 51.604c-2.155 0-2.294.348-2.294 4.102v13.211c0 3.963.278 4.242 3.268 4.45v.835H0v-.835c2.99-.208 3.268-.487 3.268-4.45v-13.21c0-3.964-.278-4.242-3.268-4.45v-.835h25.17v.835c-2.99.208-3.268.486-3.268 4.45v13.21c0 3.963.278 4.242 3.268 4.45v.835h-9.665v-.835c2.99-.208 3.268-.487 3.268-4.45v-13.21c0-3.755-.208-4.103-2.294-4.103H8.69z" fill="#2D2D2D"/><path d="M41.857 58.28v.903c-2.433.209-2.642.417-2.642 2.434v9.317c0 2.016.209 2.225 2.642 2.433v.835h-8.204v-.835c2.503-.208 2.642-.417 2.642-2.433V61.06c0-1.251-.07-1.599-1.39-1.599h-1.67c-1.46 0-1.46.209-1.53 1.53-.208 7.509-2.015 11.055-3.406 12.654-.626.696-1.252 1.043-1.669 1.043-.486 0-1.251-.278-1.808-.417v-.695c1.878-.835 3.199-2.503 3.894-4.102.556-1.322 1.6-4.103 1.6-8.205 0-1.53-.14-1.808-2.365-2.017v-.903h13.906v-.07z" fill="#2D2D2D"/><path d="M52.356 74.619c-1.251-.209-1.807-1.46-2.016-2.364-1.53.973-3.546 2.364-4.31 2.364-2.643 0-4.381-2.225-4.381-4.242 0-1.668.904-2.92 2.781-3.685 1.808-.765 4.798-1.808 5.91-2.572v-1.252c0-2.294-1.043-3.477-2.99-3.477-1.808 0-2.572 1.53-2.99 3.06-.139.417-.417.695-.834.695-.556 0-1.6-.556-1.6-1.252 0-.486.418-.973 1.252-1.599.904-.625 3.06-2.016 5.632-2.503 1.043 0 2.156.348 2.92.904 1.183.974 1.391 2.225 1.391 3.546v8.205c0 1.32.487 1.947 1.043 1.947.278 0 .904-.14 1.6-.487l.347.834-3.755 1.878zm-2.016-9.317a95.09 95.09 0 00-3.685 1.668c-1.252.696-1.877 1.46-1.877 2.712 0 1.947 1.32 2.85 2.433 2.85.835 0 2.225-.625 3.199-1.46v-5.77h-.07z" fill="#2D2D2D"/><path d="M68.279 65.163v-3.546c0-2.017-.209-2.225-2.503-2.434v-.834h7.787v.834c-2.225.209-2.433.417-2.433 2.434v9.317c0 2.016.208 2.225 2.503 2.433v.835h-7.718v-.835c2.225-.208 2.433-.417 2.433-2.433v-4.52h-7.44v4.52c0 2.016.21 2.225 2.434 2.433v.835h-7.787v-.835c2.294-.208 2.503-.417 2.503-2.433v-9.317c0-2.017-.209-2.225-2.573-2.434v-.834h7.788v.834c-2.156.209-2.364.417-2.364 2.434v3.615h7.37v-.07zm19.121 5.91c-2.016 2.85-4.52 3.615-5.493 3.615-4.658 0-7.44-3.476-7.44-7.718 0-4.936 3.407-9.039 7.857-9.039 2.851 0 5.215 2.643 5.215 5.076 0 1.113-.139 1.182-.765 1.321-.487.14-5.076.487-9.595.626-.14 5.423 3.337 7.37 5.98 7.37 1.182 0 2.294-.417 3.754-1.738l.487.487zm-3.685-7.58c.487 0 .626-.208.626-1.181 0-1.46-1.182-3.199-3.06-3.199-1.738 0-3.685 1.808-3.963 4.52l6.397-.14zm13.211 7.371c0 2.016.208 2.225 2.572 2.434v.834h-8.135v-.834c2.503-.209 2.642-.418 2.642-2.434V59.461h-1.39c-.974 0-2.017.14-2.503.765-.487.556-.835 1.46-1.113 2.85l-.904-.138.279-4.659h14.114l.278 4.59-.904.138c-.278-1.32-.625-2.225-1.112-2.85-.487-.626-1.53-.765-2.503-.765h-1.39v11.472h.069zm17.313 3.755c-1.252-.209-1.808-1.46-2.017-2.364-1.529.973-3.546 2.364-4.311 2.364-2.642 0-4.38-2.225-4.38-4.242 0-1.668.904-2.92 2.781-3.685 1.808-.765 4.798-1.808 5.91-2.572v-1.252c0-2.294-1.043-3.477-2.989-3.477-1.808 0-2.573 1.53-2.99 3.06-.139.417-.417.695-.835.695-.556 0-1.599-.556-1.599-1.252 0-.486.417-.973 1.252-1.599.904-.625 3.059-2.016 5.632-2.503 1.043 0 2.155.348 2.92.904 1.182.974 1.391 2.225 1.391 3.546v8.205c0 1.32.486 1.947 1.043 1.947.278 0 .903-.14 1.599-.487l.347.834-3.754 1.878zm-2.017-9.317a95.774 95.774 0 00-3.685 1.668c-1.251.696-1.877 1.46-1.877 2.712 0 1.947 1.321 2.85 2.433 2.85.835 0 2.225-.625 3.199-1.46v-5.77h-.07zM27.047 85.604c-.417 0-.834-.07-1.112-.208a2.502 2.502 0 01-.835-.556c-.208-.279-.417-.557-.486-.904-.14-.348-.14-.696-.14-1.113 0-.417.07-.765.14-1.112.139-.348.278-.626.486-.904.209-.278.487-.417.835-.626.347-.14.695-.209 1.112-.209.417 0 .765.07 1.113.209.347.14.625.348.834.626.209.278.417.556.487.904.139.347.139.695.139 1.112 0 .417-.07.765-.14 1.113a3.75 3.75 0 01-.486.904c-.209.278-.487.417-.834.556a2.888 2.888 0 01-1.113.208zm0-.764c.209 0 .417-.07.626-.14.209-.069.348-.208.556-.417.14-.139.278-.347.348-.626.07-.278.139-.556.139-.834 0-.347-.07-.626-.14-.834a1.345 1.345 0 00-.347-.626c-.139-.139-.347-.278-.556-.417-.209-.07-.417-.14-.626-.14-.208 0-.417.07-.625.14-.21.07-.348.208-.557.417-.139.14-.278.417-.347.626-.07.278-.14.556-.14.834 0 .348.07.626.14.835.07.278.208.486.347.625.14.14.348.278.557.418.139.069.417.139.625.139zm2.99-.14h.626c.07-.139.14-.347.209-.625l.208-.835c.07-.278.14-.625.14-.973.069-.348.069-.695.069-1.043v-1.182h3.894v4.589h.695v2.434h-.834v-1.6h-4.242v1.6h-.834V84.7h.07zm4.311 0v-3.824h-2.155v.487c0 .348 0 .695-.07 1.043s-.07.626-.139.973l-.208.835c-.07.208-.14.417-.209.556h2.781v-.07zm2.434-4.588h.903v4.38l2.503-4.38h1.113v5.353h-.904v-4.38l-2.503 4.38h-1.112v-5.353zm7.092.764h-1.947v-.764h4.728v.764h-1.947v4.59h-.904v-4.59h.07zm5.84 4.728c-.417 0-.834-.07-1.112-.208a2.502 2.502 0 01-.834-.556c-.21-.279-.418-.557-.487-.904-.14-.348-.14-.696-.14-1.113 0-.417.07-.765.14-1.112.139-.348.278-.626.486-.904.21-.278.487-.417.835-.626.348-.14.695-.209 1.112-.209.418 0 .765.07 1.113.209a1.9 1.9 0 01.834.626c.209.278.417.556.487.904.139.347.139.695.139 1.112 0 .417-.07.765-.14 1.113a3.746 3.746 0 01-.486.904c-.208.278-.486.417-.834.556a2.884 2.884 0 01-1.113.208zm0-.764c.209 0 .418-.07.626-.14.209-.069.348-.208.556-.417.14-.139.279-.347.348-.626.07-.278.14-.556.14-.834 0-.347-.07-.626-.14-.834a1.345 1.345 0 00-.348-.626c-.139-.139-.347-.278-.556-.417-.209-.07-.417-.14-.626-.14-.208 0-.417.07-.625.14-.209.07-.348.208-.557.417-.139.14-.278.417-.347.626-.07.278-.14.556-.14.834 0 .348.07.626.14.835.07.278.208.486.347.625.14.14.348.278.557.418.208.069.417.139.625.139zm3.686-4.728h.834v.695c.139-.278.347-.487.695-.626.278-.14.626-.209 1.043-.209.417 0 .765.07 1.112.209.278.14.557.348.765.626.209.278.348.556.487.904.07.347.139.695.139 1.043 0 .417-.07.764-.139 1.112-.07.348-.278.626-.487.904-.208.278-.486.417-.765.626-.278.139-.695.208-1.043.208-.139 0-.278 0-.417-.07-.139 0-.347-.069-.486-.138-.14-.07-.279-.14-.418-.278-.139-.14-.278-.209-.347-.417v2.78h-.904v-7.37h-.07zm2.502 4.728a1.4 1.4 0 00.765-.209c.209-.14.348-.278.487-.487.139-.208.208-.417.278-.695.07-.278.07-.487.07-.765s0-.487-.07-.695c-.07-.209-.139-.417-.278-.626-.14-.209-.278-.348-.487-.417-.208-.14-.486-.14-.765-.14-.278 0-.556.07-.764.21a1.624 1.624 0 00-.487.486c-.14.209-.209.417-.278.626-.07.209-.07.487-.07.765s0 .486.07.764c.07.279.139.487.278.626.139.209.278.348.556.418.14.069.417.139.695.139zm5.771.764c-.417 0-.764-.07-1.112-.208-.348-.14-.556-.348-.765-.556-.208-.209-.347-.557-.486-.835-.14-.347-.14-.695-.14-1.112 0-.417.07-.765.14-1.113.069-.347.278-.626.486-.904.209-.278.487-.486.765-.625.348-.14.695-.209 1.112-.209.279 0 .557.07.835.14.278.069.487.208.695.347.209.139.348.347.487.556.139.209.209.487.278.834h-.904c-.07-.347-.209-.626-.417-.764-.209-.21-.487-.279-.904-.279-.348 0-.556.07-.765.209-.208.139-.417.278-.486.487-.14.208-.21.417-.279.695-.07.278-.07.487-.07.765s0 .487.07.695c.07.209.14.417.279.626.139.209.278.348.486.417.209.14.417.14.695.14.418 0 .765-.14 1.044-.349.278-.208.417-.556.417-.973h.903c-.069.695-.347 1.182-.764 1.53-.348.278-.904.486-1.6.486zm3.338-5.492h.904v2.572l2.434-2.572h1.182l-2.156 2.086 2.434 3.267h-1.113l-1.947-2.642-.834.835v1.807h-.904v-5.353zm6.953 5.492c-.209 0-.487 0-.695-.07-.209-.069-.417-.138-.556-.277-.14-.14-.279-.278-.418-.487-.07-.209-.139-.417-.139-.695 0-.278.07-.556.14-.765.069-.209.208-.348.416-.487.14-.139.348-.208.557-.278.208-.07.417-.139.695-.139.209-.07.487-.07.695-.139.209 0 .417-.07.557-.07l.417-.208a.53.53 0 00.139-.348c0-.208-.07-.348-.14-.487a.543.543 0 00-.277-.278c-.14-.07-.209-.07-.418-.139h-.417c-.347 0-.695.07-.904.209-.278.139-.417.417-.417.834h-.904c0-.347.07-.626.209-.834.139-.209.278-.417.487-.556.208-.14.417-.209.695-.278.278-.07.556-.07.834-.07.209 0 .487 0 .696.07.208 0 .486.139.625.208.209.14.348.278.487.417.14.209.209.418.209.765v2.781c0 .209 0 .348.07.487 0 .07.138.14.208.14.07 0 .139 0 .278-.07v.695c-.14.07-.348.139-.626.139a.79.79 0 01-.556-.209c-.14-.139-.209-.347-.209-.625-.208.278-.556.486-.834.625-.209.07-.556.14-.904.14zm.209-.764c.278 0 .556-.07.764-.14.21-.069.348-.208.487-.278.14-.139.209-.278.278-.417.07-.139.07-.278.07-.417v-.904l-.417.209c-.209 0-.348.07-.557.07-.208 0-.417.069-.625.069-.209 0-.348.07-.557.139-.139.07-.278.139-.417.278-.07.139-.139.278-.139.556 0 .14 0 .278.07.348.07.07.139.209.208.209.07.069.209.139.348.139a.75.75 0 00.487.139zm5.006-1.46c-.348-.07-.695-.209-.904-.487-.209-.278-.348-.626-.348-1.113 0-.486.14-.904.417-1.182.279-.278.696-.417 1.252-.417h2.712v5.354h-.904v-2.086h-1.182l-1.669 2.086h-1.182l1.808-2.155zm2.155-.696v-1.738h-1.53c-.347 0-.625.07-.834.209a.881.881 0 00-.278.625c0 .278.07.487.278.626.14.14.418.209.835.209h1.53v.07zm5.146-2.572h3.685v.764h-2.782v4.59h-.903v-5.354zm4.38 0h.904v.695c.139-.278.347-.487.695-.626.278-.14.626-.209 1.043-.209.417 0 .765.07 1.113.209.278.14.556.348.764.626.209.278.348.556.487.904.07.347.14.695.14 1.043 0 .417-.07.764-.14 1.112-.07.348-.278.626-.487.904-.208.278-.486.417-.764.626-.279.139-.696.208-1.043.208-.14 0-.279 0-.418-.07-.139 0-.347-.069-.486-.138-.14-.07-.279-.14-.418-.278-.139-.14-.278-.209-.347-.417v2.78h-.904v-7.37h-.14zm2.503 4.728c.278 0 .556-.07.765-.209a1.65 1.65 0 00.487-.487c.139-.208.208-.417.278-.695.07-.278.07-.487.07-.765s0-.487-.07-.695a2.526 2.526 0 00-.278-.626c-.14-.209-.279-.348-.487-.417-.209-.14-.487-.14-.765-.14s-.556.07-.765.21a1.624 1.624 0 00-.487.486c-.139.209-.208.417-.278.626-.07.209-.07.487-.07.765s0 .486.07.764c.07.279.14.487.278.626.14.209.278.348.557.418.139.069.417.139.695.139zm4.172 2.78h-.278c-.07 0-.209-.069-.278-.069v-.834c.07 0 .139.07.278.07.07 0 .139.07.278.07.209 0 .348-.07.417-.14.14-.07.209-.209.278-.348l.348-.903-2.086-5.285h.974l1.53 4.38 1.529-4.38h.904l-2.295 6.05c-.07.277-.208.486-.278.695a.712.712 0 01-.347.417c-.14.139-.279.208-.418.278-.208-.07-.417 0-.556 0zm4.589-7.508h4.381v5.353h-.904v-4.589h-2.573v4.59h-.904v-5.354zm5.702 0h4.38v5.353h-.904v-4.589h-2.573v4.59h-.903v-5.354zm7.161 5.492c-.208 0-.487 0-.695-.07-.209-.069-.417-.138-.556-.277-.139-.14-.279-.278-.418-.487-.069-.209-.139-.417-.139-.695 0-.278.07-.556.139-.765.07-.209.209-.348.418-.487.139-.139.347-.208.556-.278.208-.07.417-.139.695-.139.209-.07.487-.07.695-.139.209 0 .418-.07.557-.07l.417-.208a.533.533 0 00.139-.348c0-.208-.07-.348-.139-.487a.544.544 0 00-.278-.278c-.139-.07-.209-.07-.417-.139h-.418c-.347 0-.695.07-.904.209-.278.139-.417.417-.417.834h-.904c0-.347.07-.626.209-.834.139-.209.278-.417.487-.556.208-.14.417-.209.695-.278.278-.07.556-.07.834-.07.209 0 .487 0 .696.07.208 0 .486.139.625.208.209.14.348.278.487.417.139.209.209.418.209.765v2.781c0 .209 0 .348.069.487 0 .07.139.14.209.14.069 0 .139 0 .278-.07v.695a1.39 1.39 0 01-.626.139.79.79 0 01-.556-.209c-.139-.139-.209-.347-.209-.625-.208.278-.556.486-.834.625-.209.07-.556.14-.904.14zm.209-.764c.278 0 .556-.07.765-.14.208-.069.347-.208.486-.278.139-.139.209-.278.278-.417.07-.139.07-.278.07-.417v-.904l-.417.209c-.209 0-.348.07-.557.07-.208 0-.417.069-.625.069-.209 0-.348.07-.557.139-.139.07-.278.139-.417.278-.069.139-.139.278-.139.556 0 .14 0 .278.07.348.069.07.139.209.208.209.07.069.209.139.348.139.209.139.348.139.487.139z" fill="#2D2D2D"/></g><defs><radialGradient id="paint0_radial_848_1289" cx="0" cy="0" r="1" gradientUnits="userSpaceOnUse" gradientTransform="matrix(0 35 -35 0 99 35)"><stop stop-color="#FFB443"/><stop offset="1" stop-color="#FFC700" stop-opacity="0"/></radialGradient><clipPath id="clip0_848_1289"><path fill="#fff" d="M0 0h157v94H0z"/></clipPath></defs></svg>