<svg width="40" height="36" fill="none" xmlns="http://www.w3.org/2000/svg"><path opacity=".2" d="M36.25 18H30v-5c0-2.734 2.188-5 5-5h.625c1.016 0 1.875-.781 1.875-1.875v-3.75C37.5 1.359 36.64.5 35.625.5H35C28.047.5 22.5 6.125 22.5 13v18.75c0 2.11 1.64 3.75 3.75 3.75h10A3.75 3.75 0 0040 31.75v-10c0-2.031-1.719-3.75-3.75-3.75zm-22.5 0H7.5v-5c0-2.734 2.188-5 5-5h.625C14.141 8 15 7.219 15 6.125v-3.75C15 1.359 14.14.5 13.125.5H12.5C5.547.5 0 6.125 0 13v18.75c0 2.11 1.64 3.75 3.75 3.75h10a3.75 3.75 0 003.75-3.75v-10c0-2.031-1.719-3.75-3.75-3.75z" fill="#616161"/></svg>