<svg width="40" height="36" fill="none" xmlns="http://www.w3.org/2000/svg"><path d="M36.25 18.369H30v-5c0-2.735 2.188-5 5-5h.625c1.016 0 1.875-.781 1.875-1.875v-3.75c0-1.016-.86-1.875-1.875-1.875H35c-6.953 0-12.5 5.625-12.5 12.5v18.75c0 2.11 1.64 3.75 3.75 3.75h10a3.75 3.75 0 003.75-3.75v-10c0-2.031-1.719-3.75-3.75-3.75zm-22.5 0H7.5v-5c0-2.735 2.188-5 5-5h.625c1.016 0 1.875-.781 1.875-1.875v-3.75c0-1.016-.86-1.875-1.875-1.875H12.5C5.547.869 0 6.494 0 13.369v18.75c0 2.11 1.64 3.75 3.75 3.75h10a3.75 3.75 0 003.75-3.75v-10c0-2.031-1.719-3.75-3.75-3.75z" fill="#2758B7"/></svg>