<svg width="21" height="18" fill="none" xmlns="http://www.w3.org/2000/svg"><path fill-rule="evenodd" clip-rule="evenodd" d="M17.483 16.79v-.002l.018-.043L20.5 1.625v-.048c0-.377-.14-.706-.442-.903-.265-.173-.57-.185-.784-.169a2.681 2.681 0 00-.586.12 3.231 3.231 0 00-.24.088l-.013.005-16.72 6.559-.005.002a1.968 1.968 0 00-.149.061 2.27 2.27 0 00-.341.19c-.215.148-.624.496-.555 1.048.057.458.372.748.585.899a2.062 2.062 0 00.435.233l.01.004.007.003 2.926.985c-.01.183.008.37.057.555l1.465 5.559a1.5 1.5 0 002.834.196l2.288-2.446 3.929 3.012.056.024c.357.156.69.205.995.164a1.48 1.48 0 00.728-.315 1.742 1.742 0 00.492-.635l.007-.017.003-.006.001-.003zM6.135 10.875a.3.3 0 01.13-.33l9.921-6.3s.584-.355.563 0c0 0 .104.062-.209.353-.296.277-7.071 6.818-7.757 7.48a.278.278 0 00-.077.136L7.6 16.434l-1.465-5.56z" fill="#B9B8B6"/></svg>