<svg width="20" height="21" fill="none" xmlns="http://www.w3.org/2000/svg"><path fill-rule="evenodd" clip-rule="evenodd" d="M14.676.628a21.9 21.9 0 00-9.555 0l-.339.075a4.905 4.905 0 00-3.684 3.58 19.467 19.467 0 000 9.577 4.905 4.905 0 003.444 3.52l.465 2.776a.5.5 0 00.826.29l2.731-2.443a21.898 21.898 0 006.112-.487l.34-.075a4.905 4.905 0 003.684-3.58 19.469 19.469 0 000-9.577 4.905 4.905 0 00-3.685-3.58l-.339-.076zM5.965 4.202a.822.822 0 00-.537.106h-.014c-.375.22-.713.497-1.001.823-.24.277-.37.557-.404.827-.02.16-.006.322.041.475l.018.01c.27.793.622 1.556 1.052 2.274a13.374 13.374 0 002.03 2.775l.024.034.038.028.023.027.028.024a13.564 13.564 0 002.782 2.04c1.155.629 1.856.926 2.277 1.05v.006c.123.038.235.055.348.055a1.61 1.61 0 00.964-.414c.325-.288.6-.627.814-1.004v-.007c.201-.38.133-.738-.157-.981A12.126 12.126 0 0012.41 11c-.448-.243-.903-.096-1.087.15l-.393.496c-.202.246-.568.212-.568.212l-.01.006c-2.731-.697-3.46-3.462-3.46-3.462s-.034-.376.219-.568l.492-.396c.236-.192.4-.646.147-1.094a11.807 11.807 0 00-1.347-1.88.748.748 0 00-.44-.263zM10.579 3a.5.5 0 000 1c1.265 0 2.315.413 3.146 1.205.427.433.76.946.978 1.508.219.563.319 1.164.293 1.766a.5.5 0 101 .042 5.359 5.359 0 00-.361-2.17 5.442 5.442 0 00-1.204-1.854l-.01-.01C13.39 3.502 12.085 3 10.579 3zm-.034 1.644a.5.5 0 000 1h.017c.912.065 1.576.369 2.041.868.477.514.724 1.153.705 1.943a.5.5 0 001 .023c.024-1.037-.31-1.932-.972-2.646V5.83c-.677-.726-1.606-1.11-2.724-1.185l-.017-.002h-.05zm-.019 1.675a.5.5 0 10-.052.998c.418.022.685.148.853.317.169.17.295.443.318.87a.5.5 0 10.998-.053c-.032-.6-.22-1.13-.605-1.52-.387-.39-.914-.58-1.512-.612z" fill="#B9B8B6"/></svg>