<svg width="24" height="24" fill="none" xmlns="http://www.w3.org/2000/svg"><path d="M9.92 7.408h0c.132.293.35.822.523 1.245l.003.008a124.336 124.336 0 00.239.575l.022.052v.001c.101.2.203.523.023.892l-.81-2.773zm0 0c-.12-.268-.277-.48-.498-.608l.499.608zm0 0L9.423 6.8l.499.608zm3.334 6.557a4.013 4.013 0 00-.185-.083l-.009-.004h-.001a6.14 6.14 0 01-1.768-1.114h0c-.647-.574-1.11-1.28-1.291-1.581.087-.088.18-.201.256-.293l.01-.01c.049-.06.093-.114.135-.162h0c.157-.18.23-.33.298-.473l.004-.008.027-.056-.776.93-.028.016h0l-.402.233 3.73 2.605zm0 0l-.01.018.015-.016-.005-.002zm0 0h0l-.01.019-.033.038h0c-.013.015-.012.011.002.002l.002-.001.014-.008-.008.016v0l-.19.382.223-.448zm0 0l.005.002-.005-.002zm.005.002c.04.02.063.027.07.03h.002s-.014-.003-.038 0a.203.203 0 00-.064.018l-.008.016-.19.382.228-.446zm0 0c.189-.22.591-.693.732-.9l-.732.9zm-.228.446c.258.128.41.108.56-.064.148-.173.642-.749.816-1.005l-1.376 1.069zm0 0a3.446 3.446 0 00-.169-.076 6.635 6.635 0 01-1.903-1.2c-.767-.68-1.287-1.521-1.435-1.777l3.507 3.053zm.96-1.347a.068.068 0 00-.002.004l.417.274-.415-.278zm0 0l.001-.002.414.28-.415-.278zm0 0c.138-.208.338-.378.62-.412.227-.026.435.051.545.092l.004.002h0c.146.054.55.245.915.421.38.183.763.371.894.436h0c.047.024.092.045.136.066l-.216.451-2.898-1.056zm.415.278c.169-.256.342-.216.58-.128.237.089 1.503.71 1.76.837l.143.07-2.482-.779zM9.524 11.36l.401-.233h0l.03-.017.069-.72a9.265 9.265 0 00-.144.17c-.085.104-.17.206-.242.278-.129.128-.262.266-.114.522zm7.365 2.762l.216-.45.012.005c.08.038.175.084.256.134a.86.86 0 01.298.287l-.782.024zm0 0c.179.086.3.145.352.232l-.352-.232zm.782-.024l-.578 1.477c.212-.601.212-1.113.148-1.221l.43-.256zm0 0c.08.134.096.289.102.368.009.106.007.227-.004.356a3.766 3.766 0 01-.205.92l-.001.003c-.167.46-.602.83-.974 1.07-.378.242-.838.445-1.19.478l2.272-3.195zm0 0s0 0 0 0l-.43.255.43-.255zm-.43.255l-1.843 2.94 1.843-2.94zm-1.843 2.94a4.638 4.638 0 00-.122.014l-.06-.496.06.496c-.24.03-.54.064-1.046-.02-.487-.082-1.154-.273-2.154-.666-2.57-1.011-4.241-3.482-4.575-3.975l-.006-.009.414-.28-.414.28-.03-.045-.009-.012v-.002l-.005-.005h0a6.744 6.744 0 01-.625-1.005c-.26-.513-.523-1.207-.523-1.941 0-1.385.697-2.125.99-2.436l.044-.046s0 0 0 0l8.061 10.148zM9.422 6.8c-.21-.122-.418-.127-.512-.13l.512.13zm0 0l-.512-.13.512.13zm-.512-.13H8.9h.01zM7.516 20.182a.5.5 0 00-.364-.044l-4.44 1.16 1.185-4.3a.5.5 0 00-.05-.384 9.375 9.375 0 01-1.263-4.703v0c0-5.186 4.246-9.411 9.458-9.411 2.534 0 4.905.982 6.691 2.76a9.328 9.328 0 012.767 6.656c0 5.187-4.246 9.412-9.458 9.412h-.005a9.499 9.499 0 01-4.52-1.146z" fill="#B9B8B6" stroke="#B9B8B6" stroke-linejoin="round"/><path d="M9.083 7.005c.183.005.385.015.578.443.128.285.344.81.52 1.238.136.333.249.607.277.663.064.128.104.275.02.448l-.029.058c-.067.14-.115.24-.229.37a9.346 9.346 0 00-.143.17c-.085.104-.17.206-.242.278-.129.128-.263.266-.114.522.148.256.668 1.098 1.434 1.777a6.634 6.634 0 001.904 1.2c.07.03.127.055.169.076.257.128.41.108.559-.064.148-.173.643-.749.816-1.005.168-.256.342-.216.58-.128.236.089 1.503.71 1.76.837l.143.07c.179.085.3.144.352.23.064.109.064.621-.149 1.222-.217.6-1.266 1.176-1.74 1.22l-.137.016c-.435.053-.987.12-2.956-.655-2.425-.954-4.026-3.32-4.35-3.799l-.052-.076-.006-.008C7.901 11.911 7 10.706 7 9.462c0-1.19.586-1.81.854-2.092l.046-.05A.95.95 0 018.588 7c.173 0 .346 0 .495.005z" fill="#fff"/></svg>