<svg width="187" height="54" viewBox="0 0 187 54" fill="none" xmlns="http://www.w3.org/2000/svg">
<path d="M155.826 44.2336C153.627 44.3484 151.373 43.7426 149.324 42.4884C148.329 41.8807 147.527 41.8772 146.762 42.7586C145.104 44.6682 142.668 45.9153 142.715 49.1285C142.745 51.1139 140.518 52.2374 138.161 52.0802C137.221 52.0348 136.326 51.6622 135.631 51.0268C134.935 50.3914 134.484 49.5331 134.355 48.6003C133.986 46.1273 135.001 43.8945 137.344 43.6913C140.433 43.4246 141.998 41.4409 143.86 39.5508C144.632 38.77 144.743 38.1376 144.231 37.1996C141.922 32.9213 142.026 28.5935 144.127 24.2745C144.531 23.4443 144.388 22.9303 143.636 22.3509C138.816 18.6378 134.019 14.8959 129.244 11.1251C128.46 10.5104 127.642 10.4856 126.704 10.6641C123.224 11.3247 120.387 9.31802 119.976 5.9653C119.642 3.22907 122.092 0.358596 124.959 0.123659C128.026 -0.127177 130.666 2.2434 130.757 5.55195C130.788 6.76374 131.286 7.46678 132.148 8.1292C136.81 11.7116 141.47 15.2974 146.091 18.9187C147.071 19.6871 147.857 20.0333 149.009 19.1589C149.815 18.5424 150.816 17.9824 151.797 17.8341C153.826 17.5249 154.07 16.3432 154.019 14.6174C153.962 12.7449 153.955 11.1322 152.327 9.63775C150.521 7.97729 150.977 4.79061 152.793 3.10189C153.687 2.25961 154.867 1.78889 156.095 1.78528C157.323 1.78167 158.506 2.24545 159.405 3.08246C161.396 4.95313 161.837 7.97729 159.841 9.73667C157.626 11.6798 158.336 13.9761 158.297 16.2178C158.271 17.6309 159.728 17.5196 160.624 17.8553C165.243 19.5811 168.274 22.7536 169.396 27.5707C171.429 36.2846 165.004 44.2672 155.826 44.2336ZM156.137 23.7994C152.346 23.8153 149.143 27.0567 149.168 30.8528C149.193 34.4917 152.284 37.507 156.017 37.53C159.993 37.5547 163.056 34.5464 163.047 30.6249C163.037 26.8712 159.912 23.7852 156.137 23.7994Z" fill="#FB7555"/>
<path d="M0.273921 26.4684C0.272154 21.1443 0.30395 15.8273 0.247424 10.4962C0.235059 9.25968 0.542421 8.84457 1.85666 8.8269C6.83628 8.76154 6.83628 8.70678 6.83451 13.7588C6.83451 16.5251 6.87867 19.2913 6.81684 22.0611C6.78858 23.2447 7.04648 23.7993 8.40665 23.764C11.8636 23.6774 15.3241 23.6827 18.7828 23.764C20.1076 23.794 20.4008 23.2764 20.3726 22.0664C20.3125 18.3322 20.415 14.5979 20.3302 10.8654C20.2948 9.39393 20.6093 8.79864 22.2556 8.82514C26.9914 8.90286 26.9932 8.82514 26.9932 13.5945C26.9932 23.2058 26.9508 32.817 27.0285 42.4265C27.0409 44.0569 26.6099 44.5357 24.9671 44.5145C20.3602 44.4526 20.3602 44.5268 20.362 40.0118C20.362 37.2473 20.2931 34.4793 20.3938 31.7095C20.4432 30.3175 19.9469 29.9784 18.6273 30.0101C15.2393 30.0973 11.8495 30.0973 8.45787 30.0101C7.19486 29.9784 6.77975 30.3405 6.80801 31.6247C6.88397 35.2883 6.77092 38.9554 6.86807 42.6173C6.90693 44.0764 6.45649 44.4986 5.00094 44.495C0.277454 44.4774 0.277454 44.5357 0.277454 39.7433C0.277454 35.3189 0.276276 30.894 0.273921 26.4684Z" fill="#FCFCFC"/>
<path d="M64.0162 20.2948C70.4301 16.7319 75.9503 17.2371 80.2834 21.632C84.4522 25.8715 85.2983 32.4586 82.3466 37.7226C79.6651 42.5061 73.6009 45.3342 68.215 44.3114C62.769 43.2763 58.5914 38.975 58.0226 33.2181C57.2666 25.5765 57.846 17.8907 57.717 10.226C57.7011 9.30396 58.0986 9.00013 58.9535 9.02132C60.1282 9.05135 61.3082 9.09198 62.4776 9.02132C63.647 8.95067 64.0568 9.36225 64.0321 10.5511C63.9667 13.7183 64.0162 16.8873 64.0162 20.2948ZM64.2758 31.0843C64.2034 34.8945 67.3618 38.1872 71.1385 38.2419C74.8286 38.2967 78.0276 35.1489 78.0948 31.4111C78.1163 30.4933 77.9561 29.5803 77.6235 28.7247C77.2908 27.8691 76.7921 27.0877 76.1563 26.4256C75.5204 25.7634 74.7598 25.2336 73.9184 24.8666C73.0769 24.4995 72.1712 24.3026 71.2533 24.287C67.5491 24.2357 64.3412 27.3606 64.2705 31.0843H64.2758Z" fill="#FCFCFC"/>
<path d="M118.257 41.6176C118.257 44.5923 118.267 47.2544 118.257 49.9199C118.257 51.9637 117.354 52.8434 115.254 52.9123C114.901 52.9229 114.547 52.8646 114.219 52.9247C112.452 53.2356 111.885 52.6438 111.922 50.7537C112.065 44.0518 111.922 37.3446 112.032 30.6409C112.138 24.1846 116.084 19.1926 121.973 17.7794C127.449 16.4652 133.985 19.4911 136.755 24.612C139.62 29.9202 138.504 36.5126 134.049 40.7697C129.703 44.9209 122.652 45.2018 119.193 42.2129C118.893 41.9963 118.58 41.7975 118.257 41.6176ZM118.479 31.4482C118.107 33.6686 121.569 37.6113 124.959 37.7314C128.742 37.8657 132.182 34.9051 132.357 31.1338C132.434 29.3149 131.8 27.5373 130.589 26.1778C129.379 24.8182 127.686 23.9836 125.87 23.8507C121.472 23.5557 117.967 27.4543 118.479 31.4553V31.4482Z" fill="#FCFCFC"/>
<path d="M97.7561 8.82715C101.245 8.87661 104.126 10.0089 106.613 12.2134C107.496 12.9889 107.751 13.6425 106.79 14.5911C105.765 15.6121 105.076 17.1842 103.877 17.7583C102.541 18.396 101.702 16.5218 100.508 15.9671C97.2898 14.4462 94.2692 15.3718 93.6085 18.2476C93.2552 19.8074 93.7551 20.9556 95.1047 21.7611C96.3642 22.5136 97.7844 22.8545 99.1499 23.3403C100.523 23.8005 101.867 24.342 103.176 24.9619C106.617 26.6771 107.715 29.7313 107.917 33.3419C108.194 38.2791 106.327 41.9534 101.558 43.6103C96.509 45.3644 91.8544 44.6825 87.6997 40.92C86.0428 39.4203 86.0676 38.5229 87.6997 37.2899C88.0814 36.9901 88.4201 36.6395 88.7066 36.2477C89.8742 34.6985 90.8794 34.3046 92.266 36.1788C93.582 37.9453 96.6821 38.5635 98.6606 37.7386C100.084 37.1468 101.119 36.1311 101.245 34.5219C101.377 32.8349 100.538 31.5472 99.058 30.8654C96.8658 29.8549 94.5483 29.1166 92.3596 28.0991C86.2619 25.2728 84.5643 17.8537 88.8444 12.6285C91.162 9.80399 94.3999 8.9243 97.7561 8.82715Z" fill="#FCFCFC"/>
<path d="M30.8456 26.5746C30.8456 24.0857 30.8845 21.595 30.8262 19.1079C30.8015 18.048 31.1406 17.6947 32.2394 17.6276C37.0459 17.3467 37.0441 17.3096 37.0441 22.1515C37.0441 25.4706 37.0211 28.7898 37.0441 32.1089C37.0777 35.7725 39.2292 38.2367 42.3646 38.2685C45.463 38.3021 47.664 35.7955 47.6746 32.169C47.6887 27.8836 47.7187 23.5946 47.6551 19.3092C47.6357 18.0727 47.9537 17.6452 49.2608 17.6223C54.0002 17.5428 54.0038 17.4916 53.9914 22.215C53.9808 25.9493 54.0568 29.6854 53.9172 33.4143C53.6823 39.7117 48.4712 44.6207 42.3063 44.52C35.8782 44.4087 30.9375 39.4467 30.8633 33.0045C30.8386 30.8618 30.8633 28.7191 30.8633 26.5746H30.8456Z" fill="#FCFCFC"/>
<path d="M179.826 11.6958C179.826 13.5205 179.913 15.2287 179.8 16.9316C179.704 18.3447 180.241 18.8287 181.58 18.6379C181.925 18.6133 182.271 18.6133 182.616 18.6379C185.589 18.6591 185.442 18.6697 185.638 21.5314C185.792 23.7059 185.131 24.3436 182.956 24.2111C179.833 24.0203 179.825 24.174 179.823 27.3642C179.823 29.5051 179.81 31.6478 179.823 33.7888C179.846 37.4559 181.008 38.7437 184.638 38.6447C186.479 38.5935 186.671 39.1446 186.228 40.7397C185.133 44.7125 184.638 45.0817 180.517 44.3468C176.053 43.5502 173.573 40.7062 173.545 36.1876C173.502 29.4168 173.564 22.6442 173.501 15.8735C173.49 14.6369 173.895 13.9728 175.048 13.5965C176.61 13.0931 177.966 12.0615 179.826 11.6958Z" fill="#FCFCFC"/>
</svg>
