<svg width="221" height="63" viewBox="0 0 221 63" fill="none" xmlns="http://www.w3.org/2000/svg">
<path d="M163.611 62.795C162.972 62.4788 162.293 62.2191 161.699 61.8316C159.782 60.5749 158.794 58.8029 158.796 56.4948V6.30234C158.796 3.27998 160.62 0.967657 163.613 0.182221C163.695 0.161276 163.755 0.0628349 163.822 0H215.975C216.65 0.299513 217.349 0.548758 217.992 0.904822C219.624 1.80755 220.374 3.37633 221 5.02469V57.9819C220.627 58.2395 220.634 58.6898 220.476 59.0522C219.609 61.0692 217.963 62.1311 215.975 62.795H163.611ZM192.305 28.4474C192.305 27.3604 192.261 26.5226 192.318 25.689C192.364 25.0355 192.146 24.8658 191.503 24.8763C189.167 24.9154 186.83 24.9154 184.491 24.8763C183.863 24.8763 183.67 25.0292 183.672 25.6848C183.694 33.5657 183.694 41.4473 183.672 49.3295C183.672 49.9998 183.829 50.2302 184.535 50.2155C186.766 50.1715 189 50.1569 191.237 50.2155C192.111 50.2406 192.339 49.9935 192.331 49.1264C192.285 44.6986 192.289 40.2688 192.318 35.8389C192.333 33.2752 194.13 31.2059 196.453 30.9755C199.175 30.7032 200.868 31.9557 201.427 34.7309C201.521 35.3152 201.559 35.9072 201.54 36.4987C201.54 40.7547 201.561 45.0086 201.53 49.2625C201.53 49.9788 201.697 50.2281 202.451 50.2113C204.754 50.1638 207.058 50.1638 209.363 50.2113C210.113 50.226 210.291 49.983 210.287 49.2646C210.255 44.8012 210.268 40.3379 210.274 35.8745C210.274 34.5518 210.14 33.2325 209.874 31.9369C208.421 24.8658 199.666 21.7513 194.205 26.3467C193.537 26.9122 193.047 27.6306 192.305 28.4474ZM179.529 37.6821C179.529 33.7025 179.516 29.723 179.544 25.7581C179.544 25.1025 179.412 24.8596 178.706 24.8742C176.402 24.9224 174.098 24.935 171.794 24.8742C170.956 24.8491 170.843 25.1591 170.845 25.888C170.87 33.6627 170.87 41.4375 170.845 49.2123C170.845 49.9705 171.007 50.2448 171.821 50.2239C174.088 50.1673 176.356 50.1736 178.622 50.2239C179.357 50.2386 179.556 50.0312 179.548 49.2981C179.502 45.4212 179.529 41.5527 179.529 37.6821ZM175.103 21.345C175.382 21.345 175.661 21.3638 175.941 21.345C178.111 21.1795 179.734 19.6505 180.082 17.4555C180.206 16.5499 180.023 15.6289 179.562 14.8396C179.101 14.0503 178.389 13.4382 177.539 13.1011C176.701 12.747 175.793 12.5912 174.884 12.6457C173.976 12.7002 173.093 12.9635 172.303 13.4152C171.469 13.8733 170.839 14.6297 170.539 15.5328C169.475 18.507 171.7 21.3638 175.095 21.3513L175.103 21.345Z" fill="#00679E"/>
<path d="M142.494 26.1309C142.494 21.8267 142.521 17.7864 142.473 13.7461C142.462 12.879 142.682 12.6256 143.558 12.6528C145.791 12.7198 148.025 12.7136 150.26 12.6528C151.06 12.6319 151.232 12.8748 151.228 13.6477C151.203 22.9598 151.203 32.2727 151.228 41.5862C151.228 44.1645 151.188 46.747 151.437 49.319C151.502 49.9683 151.4 50.2385 150.648 50.2197C148.624 50.1631 146.599 50.1715 144.574 50.2197C143.885 50.2343 143.683 50.0102 143.663 49.3442C143.631 48.3828 143.474 47.4277 143.353 46.303C142.643 47.0654 142.192 47.8047 141.532 48.3702C137.004 52.2618 129.309 51.3591 125.466 46.4664C121.277 41.1317 121.564 32.029 126.094 26.9875C129.345 23.362 135.155 22.1053 139.631 24.0553C140.723 24.5334 141.7 25.2414 142.494 26.1309ZM142.494 36.6976C142.494 36.0693 142.444 35.4409 142.504 34.8126C142.714 32.7034 141.181 30.4854 139.153 29.7858C138.045 29.4021 136.845 29.3724 135.719 29.7007C134.594 30.029 133.598 30.6992 132.87 31.6185C130.83 34.2848 130.775 39.343 132.78 42.0574C134.13 43.8985 136.621 44.6672 138.958 43.9634C141.088 43.3246 142.383 41.5946 142.488 39.1985C142.515 38.3711 142.485 37.5333 142.485 36.6976H142.494Z" fill="white"/>
<path d="M96.0408 23.6865C94.1872 25.693 92.4969 27.5257 90.8046 29.3563C89.4075 30.8643 88.0314 32.3933 86.5946 33.8615C86.0898 34.3768 86.1506 34.6993 86.5464 35.2397C90.0066 39.9146 93.4478 44.6035 96.8702 49.3063C97.0503 49.5514 97.308 49.7546 97.3561 50.2028C94.5328 50.2028 91.7219 50.0855 88.9279 50.2468C87.2795 50.341 86.3936 49.7923 85.5872 48.3617C83.8571 45.31 81.9071 42.384 79.9928 39.3156C79.2995 40.1743 78.6691 40.9786 78.0072 41.7578C77.7182 42.0971 77.7852 42.4762 77.7852 42.849C77.7852 45.0126 77.7538 47.1741 77.7977 49.3419C77.8124 50.0289 77.6239 50.2279 76.9306 50.2133C74.5953 50.1714 72.2557 50.1797 69.9203 50.2133C69.3444 50.2133 69.1454 50.0876 69.1475 49.4718C69.1656 37.441 69.1656 25.4109 69.1475 13.3816C69.1475 12.7532 69.3842 12.6569 69.9329 12.6631C72.2369 12.6904 74.5408 12.7176 76.8447 12.6631C77.6825 12.638 77.7956 12.9208 77.7936 13.6601C77.7663 20.4924 77.7768 27.3267 77.7768 34.161C78.1601 34.3014 78.1747 33.9516 78.292 33.7819C80.5604 30.6528 82.8287 27.5215 85.0677 24.3693C85.2098 24.1391 85.4127 23.9528 85.6541 23.8308C85.8955 23.7088 86.1659 23.656 86.4354 23.6781C89.5374 23.7074 92.6414 23.6865 96.0408 23.6865Z" fill="white"/>
<path d="M47.9003 28.3363C47.93 28.2006 47.9779 28.0696 48.0427 27.9467C50.5687 24.3316 54.9671 23.6698 58.8168 24.7484C62.4717 25.7705 65.0102 29.0191 65.3768 33.1955C65.8103 38.1343 65.4794 43.0878 65.5569 48.035C65.5925 50.2007 65.5569 50.2028 63.3996 50.2028C61.5145 50.2028 59.6295 50.1672 57.7444 50.2196C57.0072 50.2405 56.8103 50.0269 56.8166 49.2917C56.8522 45.0399 56.8333 40.786 56.8333 36.5321C56.8578 35.8007 56.7874 35.0692 56.6239 34.3559C56.0123 32.0205 54.588 30.8916 52.2841 30.9502C50.089 30.9984 48.204 32.5169 47.7851 34.6072C47.6811 35.1546 47.6313 35.711 47.6364 36.2682C47.6238 40.5912 47.6092 44.9142 47.649 49.2373C47.649 50.0101 47.4814 50.2447 46.6771 50.2238C44.413 50.163 42.1425 50.1714 39.8763 50.2238C39.139 50.2405 38.9547 50.0143 38.9568 49.298C38.9966 42.0469 38.9987 34.7957 39.0071 27.5446C39.0071 26.8471 39.0071 26.1476 38.9652 25.4501C38.9359 24.9809 39.1139 24.8615 39.5621 24.8657C42.0378 24.8825 44.5156 24.8867 46.9913 24.8657C47.4898 24.8657 47.6615 24.9977 47.6406 25.5066C47.6008 26.3947 47.6301 27.2849 47.6301 28.1729L47.9003 28.3363Z" fill="white"/>
<path d="M102.741 39.5961C102.951 41.7345 104.186 42.9724 105.99 43.7557C108.377 44.803 110.887 44.6815 113.396 44.4846C114.856 44.3846 116.301 44.1283 117.706 43.7201C118.278 43.5484 118.437 43.739 118.534 44.2228C118.813 45.6191 119.101 47.0155 119.399 48.4118C119.491 48.8307 119.422 49.1155 118.93 49.2684C113.484 50.965 107.996 51.5724 102.525 49.614C97.4756 47.8107 94.935 43.984 94.4931 38.708C94.2396 35.6584 94.7276 32.7282 96.242 30.0389C99.0465 25.0561 103.508 23.0496 109.037 23.1564C113.304 23.2402 116.837 24.8173 119.103 28.623C120.32 30.6672 120.825 32.9272 120.988 35.2835C121.072 36.4397 120.9 37.5749 120.875 38.7206C120.859 39.4662 120.519 39.6128 119.828 39.6107C114.527 39.5835 109.226 39.5961 103.925 39.5961H102.741ZM102.693 33.9095C105.969 33.9095 109.236 33.9095 112.502 33.9095C112.87 33.9095 112.95 33.7713 112.971 33.4257C113.096 31.3459 111.383 29.0838 109.335 28.6628C105.963 27.9758 103.064 30.2358 102.693 33.9095Z" fill="white"/>
<path d="M0.265368 31.3986C0.265368 25.5026 0.288408 19.6066 0.240234 13.7127C0.240234 12.8058 0.502046 12.6319 1.34403 12.6654C3.53906 12.7262 5.74247 12.7304 7.9375 12.6654C8.79625 12.6403 8.96171 12.921 8.95962 13.7127C8.93658 22.9285 8.95962 32.1317 8.92192 41.3391C8.92192 42.4345 9.22771 42.6418 10.2498 42.6272C14.5771 42.5685 18.9043 42.6272 23.2357 42.5811C24.0735 42.5811 24.2829 42.8241 24.262 43.6284C24.2034 45.5448 24.2222 47.4655 24.262 49.3819C24.262 49.9914 24.1405 50.2197 23.4598 50.2197C15.9922 50.1946 8.52187 50.1946 1.04871 50.2197C0.242329 50.2197 0.254896 49.8637 0.254896 49.2877C0.267463 43.3226 0.267463 37.3581 0.254896 31.3944L0.265368 31.3986Z" fill="white"/>
<path d="M35.6515 37.6233C35.6515 41.4919 35.6326 45.3583 35.6682 49.2247C35.6682 49.9599 35.5635 50.249 34.7257 50.2259C32.3924 50.1568 30.055 50.184 27.7217 50.2154C27.1248 50.2154 26.9489 50.0416 26.9509 49.4489C26.9677 41.5065 26.9677 33.5642 26.9509 25.6219C26.9509 25.0354 27.1038 24.8511 27.7029 24.8595C30.0717 24.893 32.4427 24.8993 34.8116 24.8595C35.4902 24.8469 35.6766 25.027 35.6703 25.714C35.6368 29.681 35.6515 33.6522 35.6515 37.6233Z" fill="white"/>
<path d="M31.4486 21.3849C27.8482 21.3849 25.6217 18.5761 26.6313 15.5873C27.0502 14.3515 27.9257 13.5556 29.1049 13.0739C31.4758 12.1 34.2531 12.8645 35.4826 14.6175C37.1812 17.0388 35.8408 20.8843 32.1733 21.3472C31.8801 21.3828 31.5638 21.3807 31.4486 21.3849Z" fill="white"/>
<path d="M192.305 28.4478C193.041 27.6309 193.531 26.9125 194.19 26.3533C199.651 21.758 208.406 24.8725 209.859 31.9435C210.126 33.2391 210.26 34.5584 210.259 35.8811C210.259 40.3445 210.241 44.8079 210.272 49.2712C210.272 49.9897 210.098 50.2326 209.348 50.218C207.047 50.1705 204.743 50.1705 202.436 50.218C201.682 50.2347 201.509 49.9855 201.515 49.2692C201.546 45.0152 201.534 40.7613 201.525 36.5053C201.545 35.9138 201.507 35.3218 201.412 34.7375C200.853 31.9623 199.169 30.7098 196.438 30.9821C194.115 31.2125 192.318 33.2861 192.303 35.8455C192.274 40.2754 192.27 44.7052 192.316 49.133C192.316 50.0001 192.106 50.2473 191.223 50.2221C188.992 50.1572 186.757 50.1719 184.52 50.2221C183.814 50.2368 183.655 50.0127 183.657 49.3362C183.678 41.4539 183.678 33.5723 183.657 25.6914C183.657 25.0358 183.839 24.8725 184.476 24.883C186.814 24.9207 189.151 24.9207 191.489 24.883C192.132 24.883 192.349 25.0421 192.303 25.6956C192.268 26.5229 192.305 27.3607 192.305 28.4478Z" fill="#FDFDFD"/>
<path d="M179.529 37.6822C179.529 41.5529 179.51 45.4319 179.546 49.292C179.546 50.0251 179.355 50.2324 178.62 50.2178C176.354 50.1696 174.086 50.1633 171.819 50.2178C171.005 50.2387 170.841 49.9643 170.843 49.2061C170.868 41.4314 170.868 33.6566 170.843 25.8818C170.843 25.153 170.95 24.8346 171.792 24.8681C174.096 24.933 176.4 24.9205 178.704 24.8681C179.418 24.8534 179.554 25.0964 179.542 25.752C179.508 29.742 179.529 33.7069 179.529 37.6822Z" fill="#FDFDFD"/>
<path d="M175.096 21.3512C171.701 21.3512 169.466 18.5068 170.54 15.5369C170.84 14.6338 171.47 13.8773 172.304 13.4193C173.094 12.9676 173.977 12.7043 174.885 12.6498C175.793 12.5953 176.702 12.7511 177.54 13.1051C178.39 13.4423 179.102 14.0544 179.563 14.8437C180.024 15.633 180.207 16.554 180.083 17.4596C179.735 19.6546 178.112 21.1836 175.942 21.3491C175.653 21.3637 175.374 21.3512 175.096 21.3512Z" fill="#FDFDFD"/>
</svg>
