<svg width="202" height="41" viewBox="0 0 202 41" fill="none" xmlns="http://www.w3.org/2000/svg">
<path d="M8.18472 12.6194C8.18472 18.7353 8.18471 24.8513 8.19424 30.9673C8.20622 32.0351 8.579 33.0675 9.25201 33.8966C10.7386 35.8197 12.1871 37.7675 13.7594 39.8639H0.675537C1.09674 38.7871 1.93533 38.0019 2.59095 37.1099C6.76674 31.4285 6.00248 33.5059 6.02154 26.7115C6.04631 21.1005 6.0425 15.4877 6.06347 9.87679C6.07848 8.90451 5.75508 7.95724 5.14864 7.19712C4.0337 5.74865 2.9321 4.28302 1.81907 2.83265C2.13735 2.37905 2.53758 2.57345 2.8654 2.57154C6.27121 2.55439 9.67702 2.59822 13.0828 2.53724C14.0491 2.52008 14.5161 2.80787 14.922 3.71317C17.9829 10.5477 21.1085 17.3536 24.2246 24.1652C24.4152 24.5711 24.4743 25.0591 24.987 25.3697L30.8342 10.7897C31.8202 8.3578 32.7986 5.92717 33.7693 3.4978C33.9599 3.03658 34.0285 2.54486 34.7394 2.54486C38.5912 2.56964 42.4411 2.55629 46.6702 2.55629C45.3971 3.9838 44.3831 5.18832 43.2854 6.32613C43.0127 6.60037 42.8001 6.92844 42.6613 7.28941C42.5225 7.65038 42.4605 8.03632 42.4792 8.4226C42.502 17.1642 42.502 25.9053 42.4792 34.6456C42.4792 35.6157 42.807 36.2733 43.4817 36.9194C44.4441 37.8418 45.3056 38.8672 46.1995 39.8373H29.2371C30.1329 38.8672 31.101 37.7884 32.1074 36.7459C32.5 36.34 32.8697 35.9702 32.8697 35.3489C32.8697 27.5348 32.8697 19.7207 32.6391 11.8456L21.0837 40.6263L8.43629 12.5984L8.18472 12.6194Z" fill="white"/>
<path d="M185.405 40.0202C181.737 40.0202 178.07 40.0202 174.401 40.0202C173.537 40.0202 173.753 39.4199 173.757 38.9643C173.793 35.1526 173.846 31.3313 173.89 27.5157C173.917 25.2172 174.002 22.9092 173.36 20.666C172.945 19.2194 172.217 18.0282 170.56 17.7957C168.858 17.5575 167.526 18.2531 166.423 19.511C166.009 19.9818 166.055 20.5268 166.055 21.0738C166.055 25.8595 166.095 30.6433 166.026 35.427C166.011 36.6011 166.337 37.4473 167.24 38.162C167.871 38.6613 168.416 39.2674 169.282 40.0945C166.394 40.0945 163.888 40.1269 161.385 40.0793C160.067 40.0545 158.311 40.6739 157.555 39.8144C156.905 39.0768 157.339 37.3634 157.337 36.0827C157.337 30.4241 157.286 24.7655 157.366 19.107C157.387 17.6604 157.072 16.5302 155.967 15.583C155.355 15.0608 154.854 14.4071 154.116 13.6104C158.073 13.6104 161.74 13.6104 165.415 13.6104C166.021 13.6104 166.066 13.9325 166.063 14.3956C166.047 15.6268 166.063 16.858 166.167 18.1769C168.06 14.9083 170.741 13.0958 174.553 13.1873C178.476 13.2845 180.795 15.4439 182.019 19.2118C182.4 18.5352 182.649 18.053 182.931 17.5918C183.928 15.9445 185.417 14.6528 187.189 13.9002C188.961 13.1475 190.925 12.9721 192.802 13.3988C195.899 14.0792 197.519 16.2367 198.398 19.0917C199.111 21.4112 199.111 23.8088 199.08 26.2026C199.042 29.2844 199.038 32.3662 198.928 35.4442C198.893 36.4524 199.103 37.2109 199.917 37.8399C200.637 38.3945 201.285 39.0463 201.964 39.6562C201.916 39.7629 201.868 39.8696 201.823 39.9764H195.173C193.839 39.9764 192.505 39.9516 191.171 39.9878C190.517 40.005 190.181 39.9078 190.197 39.1111C190.279 35.1564 190.298 31.2017 190.342 27.247C190.364 25.1315 190.412 23.0102 189.892 20.9385C189.511 19.4519 188.855 18.1235 187.159 17.8167C185.333 17.487 183.82 18.154 182.585 19.4958C182.453 19.6233 182.357 19.7825 182.304 19.958C182.252 20.1335 182.245 20.3195 182.285 20.4983C183.099 24.655 182.678 28.8517 182.476 33.0123C182.333 35.9111 182.857 38.2211 185.598 39.7191L185.405 40.0202Z" fill="white"/>
<path d="M102.287 1.78431C102.308 6.14878 102.341 10.5152 102.346 14.8796C102.358 21.5502 102.388 28.2208 102.318 34.8781C102.303 36.2388 102.627 37.2642 103.694 38.0914C104.361 38.5913 104.908 39.2324 105.299 39.9687H101.946C99.5543 39.9687 97.1624 39.921 94.7725 39.9934C93.8195 40.0201 93.5794 39.7152 93.6442 38.8289C93.7019 37.8282 93.6706 36.8243 93.5508 35.8291C92.1995 38.0094 90.4613 39.6046 87.9513 40.1859C83.7984 41.1503 79.5197 39.3931 77.5376 35.5261C74.7016 29.9876 74.5987 24.2623 77.5376 18.7238C79.6207 14.7843 83.1618 13.0443 87.593 13.1967C90.1831 13.2863 92.089 14.6128 93.6709 17.1572V10.9116C93.647 10.5448 93.647 10.1768 93.6709 9.80998C94.052 7.08266 93.505 4.7289 91.0293 3.12795C90.894 3.04028 90.8235 2.85541 90.5871 2.5276L100.162 1.51367C100.814 2.09115 101.578 1.71379 102.287 1.78431ZM93.6632 26.151C93.6632 23.7191 93.6327 21.2872 93.6804 18.8553C93.6975 18.0624 93.385 17.5726 92.777 17.14C90.631 15.6305 87.8503 16.2519 86.3618 18.6456C84.7913 21.1728 84.6465 24.026 84.656 26.881C84.6656 29.3681 84.8466 31.8534 86.1502 34.07C87.6197 36.5609 90.5509 37.0832 92.7637 35.3069C93.3697 34.819 93.7013 34.2777 93.6823 33.4391C93.627 31.0148 93.6632 28.5829 93.6632 26.151Z" fill="white"/>
<path d="M132.201 40.2281C129.828 40.0375 128.198 38.7396 127.089 36.7365C125.923 34.6305 125.582 32.311 125.564 29.9458C125.553 26.2694 125.54 22.5891 125.66 18.9146C125.709 17.468 125.443 16.3092 124.242 15.4325C123.657 15.0056 123.114 14.5196 122.551 14.0603C122.626 13.9116 122.698 13.763 122.77 13.6162H125.978C128.37 13.6162 130.762 13.6601 133.154 13.5934C134.076 13.5686 134.297 13.8545 134.297 14.7502C134.28 19.9438 134.312 25.1392 134.36 30.3327C134.372 31.7183 134.581 33.0886 135.235 34.3351C135.963 35.7283 137.185 36.241 138.702 35.8598C140.524 35.3909 141.648 34.2131 141.65 32.7265C141.65 27.8532 141.599 22.9798 141.686 18.1084C141.711 16.7038 140.758 16.0824 140.005 15.2724C139.582 14.8169 138.984 14.5215 138.463 14.1537L138.776 13.6143H141.444C143.922 13.6143 146.417 13.702 148.894 13.5781C150.229 13.5095 150.442 13.9955 150.432 15.1886C150.377 21.7162 150.448 28.2458 150.373 34.7715C150.356 36.2257 150.646 37.3464 151.849 38.2193C152.42 38.6367 152.891 39.2046 153.676 39.9651H145.94C145.75 39.9651 145.572 39.9765 145.389 39.9651C144.166 39.8831 142.54 40.493 141.833 39.7078C141.229 39.0388 141.643 37.4455 141.62 36.26C141.62 35.9398 141.62 35.6177 141.62 34.9526C139.996 37.9105 137.979 39.9307 134.732 40.2471C133.897 39.702 133.049 39.723 132.201 40.2281Z" fill="white"/>
<path d="M64.8274 13.6849C69.0337 14.5368 71.9097 17.6243 72.5253 21.9736C72.6143 22.6104 72.6671 23.2519 72.6835 23.8947C72.7292 25.8177 72.7197 25.8177 70.8367 25.8177C66.6075 25.8177 62.3765 25.8635 58.1473 25.7872C56.9752 25.7663 56.695 26.1684 56.8856 27.2033C56.9771 27.7007 57 28.2096 57.0933 28.7051C57.6499 31.6269 58.923 34.0511 61.9705 34.9812C65.1076 35.9342 67.9683 35.3014 70.425 33.0868C70.9243 32.637 71.3608 32.1205 71.8544 31.6021C72.2356 32.1739 71.9535 32.6217 71.7934 33.0696C70.1696 37.6132 66.5446 40.2357 61.6503 40.4054C53.2377 40.6989 47.8898 35.5473 47.8593 27.1328C47.8422 22.8293 48.8294 18.9203 52.2981 16.0234C53.8038 14.725 55.6546 13.8926 57.6251 13.6277C58.0196 14.1042 58.3074 14.0699 58.477 13.4543L59.287 13.3628C59.8566 13.6177 60.4736 13.7494 61.0976 13.7494C61.7216 13.7494 62.3386 13.6177 62.9082 13.3628L63.7201 13.4543C63.9507 14.1747 64.3662 14.0584 64.8274 13.6849ZM60.5659 24.4055C61.6198 24.4055 62.6738 24.4055 63.7296 24.4055C64.1508 24.4055 64.5835 24.4512 64.5682 23.8147C64.5053 21.2093 64.6349 18.5659 63.5581 16.1073C62.5575 13.8202 59.9789 13.5896 58.498 15.6041C58.0785 16.2067 57.7664 16.8773 57.5755 17.5862C57.1399 19.1312 56.9023 20.7252 56.8685 22.33C56.7617 24.8915 56.6112 24.3502 58.7743 24.4055C59.3766 24.4264 59.9712 24.4055 60.5659 24.4055Z" fill="white"/>
<path d="M121.935 39.9652C117.965 39.9652 114.312 39.9557 110.654 39.9652C109.873 39.9652 110.067 39.4335 110.065 39.0123C110.058 35.8853 110.058 32.7578 110.065 29.6296C110.065 26.0427 110.006 22.4539 110.094 18.869C110.126 17.5177 109.829 16.4428 108.76 15.5966C108.123 15.0915 107.511 14.5579 106.888 14.0357L107.151 13.603H115.762C118.754 13.603 118.754 13.603 118.754 16.5705C118.754 22.6865 118.806 28.8043 118.718 34.9184C118.697 36.3936 119.05 37.4837 120.231 38.349C120.769 38.7588 121.211 39.2772 121.935 39.9652Z" fill="white"/>
<path d="M114.38 0.984176C117.169 0.957494 119.088 2.77761 119.128 5.48587C119.146 6.11547 119.038 6.74232 118.811 7.32993C118.584 7.91754 118.243 8.45417 117.807 8.90859C117.371 9.36302 116.849 9.72615 116.271 9.97686C115.693 10.2276 115.071 10.3608 114.441 10.3689C113.812 10.377 113.186 10.2598 112.602 10.024C112.018 9.78819 111.487 9.43859 111.039 8.99551C110.592 8.55244 110.237 8.02476 109.995 7.44317C109.753 6.86157 109.629 6.2377 109.631 5.60785C109.595 2.84813 111.481 1.01276 114.38 0.984176Z" fill="white"/>
<path d="M62.9119 13.3726C62.3424 13.6275 61.7254 13.7592 61.1014 13.7592C60.4773 13.7592 59.8604 13.6275 59.2908 13.3726C60.4822 13.0978 61.7205 13.0978 62.9119 13.3726Z" fill="white"/>
<path d="M132.2 40.228C133.048 39.723 133.891 39.702 134.731 40.2471C133.906 40.5058 133.021 40.4991 132.2 40.228Z" fill="white"/>
<path d="M102.288 1.78477C101.579 1.71425 100.814 2.09162 100.17 1.51414C100.755 1.42265 101.338 1.30449 101.927 1.24541C102.309 1.20729 102.37 1.46839 102.288 1.78477Z" fill="white"/>
<path d="M64.8274 13.6849C64.3662 14.066 63.9564 14.1747 63.7239 13.4543C64.1073 13.4002 64.4977 13.4818 64.8274 13.6849Z" fill="white"/>
<path d="M58.4769 13.454C58.3073 14.0696 58.0195 14.1039 57.625 13.6275C57.7435 13.5339 57.8823 13.4694 58.0303 13.4393C58.1783 13.4092 58.3313 13.4142 58.4769 13.454Z" fill="white"/>
</svg>
