<svg width="226" height="52" viewBox="0 0 226 52" fill="none" xmlns="http://www.w3.org/2000/svg">
<path d="M122.709 0.603343C125.475 0.603343 128.195 0.510735 130.893 0.635649C132.696 0.717488 133.796 1.97954 133.995 3.78002C134.055 4.31993 134.085 4.86278 134.085 5.40604C134.085 14.4759 134.085 23.5457 134.085 32.6156C134.085 33.5977 134.152 33.6666 135.138 33.6666C135.864 33.6666 136.59 33.6666 137.348 33.6666V40.6208C137.195 40.6337 137.036 40.6617 136.876 40.6617C134.701 40.6617 132.527 40.6617 130.355 40.6617C130.018 40.6652 129.68 40.6414 129.347 40.5907C127.839 40.3365 126.806 39.5504 126.5 37.877C126.31 38.0493 126.179 38.1635 126.056 38.2841C124.09 40.2439 121.686 41.1959 118.949 41.3143C115.047 41.4844 111.676 40.2719 109.055 37.302C107.091 35.0751 106.04 32.4067 105.598 29.5014C105.073 26.0964 105.232 22.7259 106.477 19.4846C108.155 15.1277 111.125 12.1191 115.8 11.1413C118.917 10.4952 121.953 10.7773 124.766 12.4206C125.18 12.6618 125.556 12.9633 126.035 13.295V11.2188C126.035 10.282 126.035 9.34512 126.035 8.40612C126.035 7.72555 125.901 7.59418 125.208 7.58772C124.385 7.58772 123.562 7.58772 122.709 7.58772V0.603343ZM126.185 26.245C126.246 24.7126 125.966 23.1857 125.367 21.774C124.357 19.5062 122.709 18.0912 120.129 18.0072C117.584 17.9254 115.673 19.069 114.588 21.3131C113.016 24.5673 113.061 27.9163 114.657 31.1619C115.675 33.2359 117.456 34.2998 119.778 34.3062C122.029 34.3062 123.786 33.3306 124.947 31.3858C125.914 29.7792 126.177 27.9917 126.185 26.245Z" fill="white"/>
<path d="M44.8713 18.5888V11.5656C45.0138 11.5406 45.1576 11.5241 45.3021 11.5161C47.4945 11.5161 49.6891 11.4816 51.8816 11.5398C52.5891 11.5725 53.2863 11.7224 53.9448 11.9834C54.9139 12.3496 55.3942 13.1744 55.5967 14.234C55.6945 14.1673 55.7887 14.0954 55.8788 14.0187C58.4632 11.4579 61.6356 10.5922 65.1504 10.9152C70.7047 11.4299 74.1958 14.6281 75.9187 19.7582C77.4414 24.3089 77.3876 28.9264 75.488 33.3824C73.6854 37.6057 70.5475 40.3387 65.9343 41.1356C62.5143 41.7236 59.3333 41.1485 56.5787 38.885C56.4969 38.8182 56.4043 38.7623 56.2363 38.6438V51.6391H48.2246V19.6118C48.2246 18.6254 48.1902 18.5909 47.221 18.5888H44.8713ZM68.8073 25.5581C68.787 24.2017 68.4771 22.8653 67.8985 21.6384C66.8712 19.4847 65.2516 18.1322 62.7856 18.0159C60.3584 17.8996 58.4029 18.8515 57.2894 21.0073C55.545 24.3822 55.5342 27.8819 57.3174 31.2459C59.568 35.4951 65.1396 35.1118 67.4268 31.5367C68.4821 29.8977 68.8052 28.0822 68.8073 25.5581Z" fill="white"/>
<path d="M11.5194 38.6092V51.6346H3.5508V50.9282C3.5508 40.4857 3.5508 30.044 3.5508 19.603C3.5508 18.636 3.50773 18.595 2.53427 18.5929H0.210449V11.5611C0.33202 11.5376 0.455073 11.5225 0.578728 11.5159C2.79055 11.5159 5.00453 11.5159 7.21636 11.5159C7.64674 11.5223 8.07507 11.5765 8.49349 11.6774C9.83308 12.0005 10.378 12.5647 10.9616 14.1649C11.0068 14.1498 11.0693 14.1477 11.0994 14.1154C13.0657 12.0672 15.5166 11.0572 18.3056 10.8849C22.2813 10.6264 25.7509 11.7959 28.4602 14.8132C30.3985 16.9669 31.4581 19.5513 31.9255 22.3704C32.5458 26.12 32.3735 29.8179 30.8487 33.3434C29.0051 37.5754 25.8952 40.3364 21.254 41.1333C17.8577 41.7169 14.6896 41.1333 11.9415 38.9064C11.8403 38.8288 11.7305 38.7599 11.5194 38.6092ZM11.3966 26.1178C11.352 27.8286 11.7339 29.5235 12.5079 31.0498C14.8102 35.51 20.455 35.1245 22.7444 31.5451C24.6138 28.6312 24.6073 23.5507 22.6841 20.6776C20.1147 16.8398 14.6078 17.137 12.4584 21.2333C11.6551 22.7624 11.4096 24.4186 11.3966 26.12V26.1178Z" fill="white"/>
<path d="M85.7224 27.869C85.9959 30.7657 88.3628 33.3609 91.2595 34.0156C94.3113 34.7048 97.0378 33.8605 99.5641 32.1785C100.152 31.7887 100.684 31.317 101.276 30.854C101.874 31.8476 102.47 32.8404 103.066 33.8325C103.538 34.6186 103.988 35.4198 104.483 36.1908C104.698 36.5289 104.666 36.7292 104.369 36.9941C102.288 38.8748 99.7568 40.1877 97.0206 40.8061C91.7096 42.0079 86.7626 41.2369 82.4854 37.6747C79.4444 35.142 77.8637 31.7801 77.4652 27.8798C77.0926 24.2185 77.6806 20.7296 79.5974 17.5572C82.0009 13.6074 85.5932 11.4903 90.1504 10.9519C92.6508 10.6547 95.1038 10.8787 97.4169 11.9016C101.399 13.6612 103.594 16.8551 104.524 21.0009C105.004 23.1266 104.94 25.2781 104.739 27.4318C104.694 27.9315 104.38 27.8626 104.067 27.8626H85.7224V27.869ZM96.6157 21.8538C96.2841 18.6771 93.7319 16.8551 90.6091 17.5012C88.2961 17.9772 86.375 19.8056 86.0412 21.8538H96.6157Z" fill="white"/>
<path d="M221.863 30.8195C223.03 32.7793 224.167 34.6961 225.324 36.6344C224.363 37.6129 223.255 38.4342 222.039 39.0681C216.547 41.9712 210.959 42.277 205.434 39.3028C201.127 36.9876 198.777 33.1971 198.138 28.3858C197.595 24.2788 198.258 20.3763 200.625 16.8981C203.048 13.3359 206.509 11.4515 210.748 10.9583C213.429 10.646 216.035 10.9238 218.475 12.1213C222.149 13.926 224.199 16.995 225.104 20.904C225.608 23.0856 225.535 25.291 225.334 27.5028C225.3 27.856 225.106 27.8733 224.843 27.8733C224.075 27.8733 223.306 27.8733 222.537 27.8733H206.292C206.444 29.0684 206.897 30.2053 207.61 31.177C209.464 33.6925 212.042 34.5152 215.036 34.1771C217.512 33.8949 219.632 32.775 221.497 31.1361C221.587 31.0499 221.688 30.9659 221.863 30.8195ZM206.634 21.8537H217.209C216.899 18.886 214.624 17.1156 211.717 17.4344C209.548 17.6734 207.282 19.1401 206.634 21.8537Z" fill="white"/>
<path d="M169.261 18.5885V11.5158C169.881 11.5158 170.474 11.505 171.068 11.5158C172.397 11.5438 173.73 11.5158 175.05 11.6321C176.644 11.7678 177.691 12.709 178.251 14.1778C178.839 15.7155 179.375 17.2726 179.924 18.8232C181.201 22.4127 182.474 26.0108 183.745 29.6175C183.883 30.0008 183.99 30.3949 184.119 30.8085C184.182 30.7589 184.247 30.7352 184.262 30.6943C185.569 26.9318 186.865 23.1564 188.177 19.4026C188.769 17.7076 189.381 16.0192 189.993 14.3307C190.639 12.569 191.931 11.6386 193.766 11.5503C195.409 11.4706 197.059 11.533 198.749 11.533V18.5885H197.797C196.936 18.5885 196.768 18.7005 196.466 19.4995C195.226 22.7918 193.987 26.0826 192.749 29.372C191.39 32.9772 190.025 36.5825 188.683 40.1963C188.651 40.3475 188.563 40.4808 188.436 40.5689C188.309 40.657 188.153 40.6932 188 40.6701C185.377 40.6529 182.754 40.6465 180.129 40.6701C179.631 40.6701 179.418 40.5194 179.248 40.065C176.969 33.9657 174.679 27.8716 172.378 21.7824C172.08 20.9941 171.762 20.2145 171.492 19.4133C171.288 18.8103 170.92 18.526 170.278 18.5756C169.959 18.61 169.64 18.5885 169.261 18.5885Z" fill="white"/>
<path d="M147.244 40.6272H139.234V39.9811C139.234 33.2516 139.234 26.5228 139.234 19.7947C139.234 19.6634 139.234 19.532 139.234 19.4006C139.219 18.6791 139.129 18.5844 138.418 18.5822C137.595 18.5822 136.771 18.5822 135.903 18.5822V11.516H136.699C138.707 11.516 140.712 11.516 142.717 11.516C143.204 11.5151 143.689 11.5576 144.168 11.6431C145.762 11.9424 146.753 13.0085 146.947 14.6108C147 15.0416 147.028 15.4917 147.076 16.0323C149.499 12.4636 152.654 10.6007 157.043 11.2942V19.2692C156.332 19.2283 155.648 19.1572 154.963 19.1551C151.394 19.14 148.459 21.4466 147.75 24.9549C147.45 26.4961 147.287 28.0607 147.263 29.6306C147.192 33.0592 147.242 36.49 147.242 39.9187L147.244 40.6272Z" fill="white"/>
<path d="M46.3638 33.6668V40.5779C46.3035 40.6102 46.2733 40.6425 46.241 40.6425C43.6566 40.6425 41.0722 40.6964 38.4878 40.6188C36.4095 40.5564 35.2056 39.2254 35.0548 37.048C35.0311 36.6927 35.0354 36.3373 35.0354 35.9712V19.6033C35.0354 18.6406 34.9687 18.576 34.0275 18.5738H31.6951V11.5162H32.227C34.4195 11.5162 36.6141 11.5162 38.8065 11.5162C39.3134 11.5136 39.819 11.567 40.3141 11.6756C42.0263 12.0805 42.9717 13.3834 43.0105 15.4014C43.0406 17.1072 43.0213 18.8129 43.0213 20.5186C43.0213 24.5675 43.0213 28.6157 43.0213 32.6632C43.0213 33.5483 43.1354 33.6603 44.027 33.6603L46.3638 33.6668Z" fill="white"/>
<path d="M157.89 11.6193C160.474 11.6193 162.994 11.5137 165.51 11.658C167.172 11.7528 168.18 12.9502 168.408 14.6107C168.478 15.1304 168.513 15.6542 168.514 16.1786C168.514 21.6489 168.514 27.12 168.514 32.5918C168.514 33.5997 168.583 33.6686 169.606 33.6686H171.865V40.6142C171.723 40.6401 171.579 40.6574 171.434 40.6659C169.13 40.6659 166.825 40.6659 164.521 40.6659C164.203 40.6689 163.885 40.6437 163.571 40.5905C161.7 40.2502 160.694 39.1239 160.556 37.2222C160.526 36.7914 160.517 36.3607 160.517 35.93C160.517 30.5128 160.517 25.0977 160.517 19.6848C160.517 18.6532 160.466 18.6079 159.44 18.6079H157.875L157.89 11.6193Z" fill="white"/>
<path d="M167.922 8.0701H160.875V0.532227H167.92L167.922 8.0701Z" fill="white"/>
<path d="M35.3823 8.04871V0.551758H42.4227V8.04871H35.3823Z" fill="white"/>
</svg>
