<svg width="56" height="56" fill="none" xmlns="http://www.w3.org/2000/svg"><g clip-path="url(#clip0_157_6630)"><path d="M49.878 42.28c-.01.205-.028.41-.056.607l-.047.242a6.513 6.513 0 01-5.03 5.246 6.22 6.22 0 01-2.53.056l-6.421-1.13-16.137-2.846h-.019l-6.841-1.204a1.86 1.86 0 01-1.382-1.11 1.753 1.753 0 01-.13-1.056 1.867 1.867 0 012.165-1.512l6.207 1.092h.009l23.081 4.07a2.866 2.866 0 003.202-1.708 2.813 2.813 0 00-2.119-3.79l-8.036-1.418h-.01l-21.363-3.762a1.867 1.867 0 01.644-3.677l29.194 5.143a6.698 6.698 0 015.619 6.757z" fill="#D4E4DB"/><path d="M45.948 43.027a2.866 2.866 0 01-3.202 1.708l-23.08-4.07h-.01l-6.207-1.092.97-5.516 21.365 3.762h.01l8.035 1.418a2.812 2.812 0 012.119 3.79z" fill="#EDEFEE"/><path d="M55.057 12.861a6.203 6.203 0 01-.093.859l-5.142 29.167a6.61 6.61 0 00.055-.607 6.697 6.697 0 00-5.618-6.757L15.064 30.38a1.867 1.867 0 00-2.156 1.512l3.696-21.01 1.484-8.4c.086-.489.365-.923.775-1.203a1.81 1.81 0 011.39-.308l29.195 5.142a6.686 6.686 0 015.61 6.748z" fill="#EDEFEE"/><path d="M49.449 6.113L20.254.971a1.805 1.805 0 00-1.307.262l27.702 4.88a6.686 6.686 0 015.609 6.748 6.204 6.204 0 01-.093.86l-4.191 23.748a6.412 6.412 0 011.904 4.811c-.01.206-.028.41-.056.607l5.143-29.167c.05-.284.082-.57.093-.859a6.686 6.686 0 00-5.61-6.748z" fill="#D4E4DB"/><path d="M40.803 18.823l-19.306-3.41a.934.934 0 00-1.082.757l-1.624 9.193a.933.933 0 00.757 1.082l19.306 3.41a.934.934 0 001.081-.757l1.624-9.193a.934.934 0 00-.756-1.082z" fill="#fff"/><path d="M44.744 48.375a1.867 1.867 0 01-1.484 1.4l-29.419 5.19a6.539 6.539 0 01-7.597-5.498 5.14 5.14 0 01-.065-.663 6.665 6.665 0 015.236-6.664c.243.58.762.998 1.38 1.11l6.842 1.205-7.41 1.316a2.805 2.805 0 00-2.128 3.78 2.884 2.884 0 003.21 1.717l22.484-3.967 6.422 1.13a6.22 6.22 0 002.529-.056z" fill="#B8D3C3"/><path d="M35.794 47.301L13.31 51.268a2.884 2.884 0 01-3.21-1.717 2.804 2.804 0 012.127-3.78l7.411-1.316h.019L35.794 47.3z" fill="#EDEFEE"/><path d="M14.42 34.057l-.97 5.517a1.867 1.867 0 00-2.165 1.512c-.067.356-.022.725.13 1.054a6.665 6.665 0 00-5.236 6.664c.007.222.03.444.065.663L1.092 20.254a6.533 6.533 0 01-.093-.86 6.68 6.68 0 015.61-6.747l9.995-1.764-3.696 21.01a1.86 1.86 0 001.512 2.164z" fill="#B8D3C3"/><path d="M.999 19.395c.02.591-.352-1.662 5.245 30.072a6.539 6.539 0 007.598 5.497l.295-.052a6.533 6.533 0 01-5.093-5.445c-5.6-31.734-5.226-29.48-5.245-30.072a6.68 6.68 0 015.61-6.748l9.995-1.764 1.484-8.4c.097-.524.416-.98.875-1.252C19.6.861 19.855.933 19.639.97a1.853 1.853 0 00-1.55 1.513l-1.485 8.4-9.996 1.764a6.68 6.68 0 00-5.61 6.748z" fill="#fff"/><path d="M.164 20.419l1.839-.323 1.291 7.354-1.838.323L.164 20.42z" fill="#fff"/><path d="M22.038 6.967l21.14 3.728a.933.933 0 10.324-1.839l-21.14-3.723a.934.934 0 00-.324 1.839v-.005zm3.19 3.406a.933.933 0 00-.324 1.838l13.787 2.431a.933.933 0 10.325-1.838l-13.788-2.43zM19.39 27.347l19.304 3.404a1.866 1.866 0 002.16-1.514l1.622-9.193a1.867 1.867 0 00-1.514-2.161l-19.301-3.4a1.867 1.867 0 00-2.162 1.513l-1.621 9.191a1.867 1.867 0 001.513 2.16zm1.946-11.026l19.303 3.403-1.62 9.192-19.303-3.403 1.62-9.192z" fill="#2E4939"/><path d="M5.363 49.823A7.467 7.467 0 0014 55.883l29.417-5.189a2.785 2.785 0 002.023-1.537 7.421 7.421 0 005.24-5.807c0-.019.017-.035.02-.053l5.187-29.414a7.467 7.467 0 00-6.277-8.689L20.416.047a2.744 2.744 0 00-2.08.46 2.75 2.75 0 00-1.162 1.81l-1.37 7.763-9.356 1.647a7.578 7.578 0 00-6.381 7.697c.012.33.047.658.105.983a.933.933 0 001.84-.306 5.61 5.61 0 014.76-6.533l8.689-1.534-3.475 19.7a2.8 2.8 0 001.381 2.911l-.707 4.014a2.765 2.765 0 00-2.295 2.265c-.033.19-.046.382-.04.574a7.74 7.74 0 00-3.978 3.198l-3.04-17.251a.934.934 0 00-1.839.324l3.885 22.055h.01zM19.01 2.643a.914.914 0 01.398-.605.883.883 0 01.684-.153l27.577 4.863-.846 4.794a.933.933 0 101.838.325l.84-4.775a5.702 5.702 0 014.624 5.73 6.046 6.046 0 01-.08.737L49.71 38.165a7.805 7.805 0 00-5.071-3.51l3.031-17.208a.933.933 0 10-1.837-.323l-3.03 17.198L15.23 29.46a2.813 2.813 0 00-.949.005l4.73-26.823zm24.66 37.52a1.867 1.867 0 011.411 2.529 1.96 1.96 0 01-2.168 1.126l-28.385-5.004.653-3.677 28.489 5.025zm-31.08.482a.933.933 0 01.697-.154l29.307 5.167a3.798 3.798 0 004.235-2.296 3.733 3.733 0 00-2.83-5.04l-29.417-5.189a.933.933 0 01.324-1.837l29.188 5.146a5.732 5.732 0 014.853 5.787 5.608 5.608 0 01-6.572 5.285L12.96 42.33a.933.933 0 01-.373-1.68l.002-.004zm17.832 6.658L13.155 50.35c-.9.178-1.805-.29-2.178-1.13a1.867 1.867 0 011.418-2.529l7.256-1.287 10.77 1.9zm-19.396-4.059c.415.484.984.81 1.61.922l1.65.292-2.219.393a3.733 3.733 0 00-2.839 5.033 3.764 3.764 0 003.547 2.364c.233 0 .466-.02.696-.06l22.322-3.935 5.368.944-27.48 4.848a5.616 5.616 0 01-4.473-1.15 5.552 5.552 0 01-2.096-4.132 5.656 5.656 0 013.914-5.519z" fill="#2E4939"/><path d="M1.758 24.863a.933.933 0 11-.009-1.866h.01a.933.933 0 110 1.866z" fill="#2E4939"/></g><defs><clipPath id="clip0_157_6630"><path fill="#fff" d="M0 0h56v56H0z"/></clipPath></defs></svg>