<svg width="56" height="56" fill="none" xmlns="http://www.w3.org/2000/svg"><g clip-path="url(#clip0_157_6703)"><path d="M42 14.933a13.936 13.936 0 01-3.556 9.324l-9.184.01a2.842 2.842 0 00-2.11.933l-.848.933-6.711-.01A14 14 0 1142 14.934z" fill="#D4E4DB"/><path d="M28 .933c-.472 0-.938.025-1.4.071a14 14 0 019.045 23.253h2.8A14 14 0 0028 .933z" fill="#B8D3C3"/><path d="M25.2 21.466c-.495 0-.97-.196-1.32-.547l-2.8-2.8a1.867 1.867 0 012.64-2.639l1.41 1.408 7.082-7.87a1.867 1.867 0 012.776 2.497l-8.4 9.334c-.342.38-.826.604-1.338.617h-.05zm-8.101 22.867c.001.248-.04.494-.122.728l-1.353 3.575a2.333 2.333 0 01-4.359-1.643l1.316-3.49c.072-.207.18-.4.318-.57a2.333 2.333 0 014.2 1.4z" fill="#EDEFEE"/><path d="M21.793 45.108c0 .277-.05.553-.15.812l-1.651 4.358a2.333 2.333 0 11-4.368-1.642l1.353-3.575.299-.784a2.333 2.333 0 014.517.83zm8.073 5.022c0 .277-.05.552-.15.811l-.569 1.512-.42 1.101a2.333 2.333 0 01-4.367-1.633l1.008-2.67a2.333 2.333 0 014.498.878z" fill="#EDEFEE"/><path d="M26.161 46.75c0 .278-.05.553-.15.812l-.643 1.69-1.008 2.67a2.333 2.333 0 01-4.368-1.644l1.652-4.358a2.333 2.333 0 014.517.83zm16.194-6.038a2.333 2.333 0 00-1.102-3.108l-11.536-5.918-5.357 4.835a2.78 2.78 0 01-4.63-2.081 2.727 2.727 0 01.72-1.867l5.851-6.44.85-.933a2.841 2.841 0 012.109-.933l9.184-.01 5.423-.01 3.06 16.82H42.14c.086-.11.158-.229.215-.355z" fill="#EDEFEE"/><path d="M43.867 24.248l-2.8.005 3.06 16.813h2.8l-3.06-16.818z" fill="#D4E4DB"/><path d="M55.067 24.267v16.8a1.872 1.872 0 01-1.867 1.866h-4.63a1.562 1.562 0 01-1.54-1.288l-.102-.578-3.061-16.82a1.564 1.564 0 011.54-1.847H53.2a1.872 1.872 0 011.867 1.867z" fill="#EDEFEE"/><path d="M53.2 22.4h-2.8a1.872 1.872 0 011.867 1.867v16.8a1.872 1.872 0 01-1.867 1.866h2.8a1.872 1.872 0 001.867-1.866v-16.8A1.872 1.872 0 0053.2 22.4z" fill="#D4E4DB"/><path d="M42.355 40.712a1.713 1.713 0 01-.215.354 2.3 2.3 0 01-2.893.747 2.333 2.333 0 011.325 2.11 2.434 2.434 0 01-.224 1.008 2.325 2.325 0 01-2.11 1.325 2.389 2.389 0 01-.998-.224 2.333 2.333 0 01-.998 4.433 2.434 2.434 0 01-1.008-.224 2.325 2.325 0 011.325 2.11 2.43 2.43 0 01-.224 1.008 2.317 2.317 0 01-3.099 1.091l-4.088-1.997.57-1.512a2.333 2.333 0 00-4.35-1.69l.644-1.688a2.333 2.333 0 10-4.368-1.643 2.333 2.333 0 10-4.368-1.643l-.298.784c.081-.234.122-.48.12-.728a2.333 2.333 0 00-4.2-1.4H9.073l3.062-16.819 7.457.01 6.71.01-5.851 6.44a2.727 2.727 0 00-.72 1.866 2.78 2.78 0 004.63 2.081l5.358-4.835 11.536 5.918a2.333 2.333 0 011.1 3.108z" fill="#EDEFEE"/><path d="M41.254 37.604l-11.536-5.918-1.015.916 9.75 5.002a2.333 2.333 0 01-.998 4.443c-.35 0-.694-.08-1.008-.234a2.333 2.333 0 01-1.008 4.443 2.39 2.39 0 01-.999-.224 2.333 2.333 0 01-.998 4.433 2.43 2.43 0 01-1.008-.224 2.343 2.343 0 011.101 3.117c-.17.351-.427.652-.747.875l.445.218a2.317 2.317 0 003.098-1.093 2.344 2.344 0 00-1.101-3.117c.316.146.66.223 1.008.224a2.333 2.333 0 00.999-4.433c.312.146.653.222.998.224a2.333 2.333 0 001.008-4.443 2.313 2.313 0 003.108-1.101 2.333 2.333 0 00-1.097-3.108z" fill="#D4E4DB"/><path d="M12.134 26.115L9.072 42.933l-.102.579A1.562 1.562 0 017.43 44.8H2.8a1.872 1.872 0 01-1.866-1.867v-16.8A1.872 1.872 0 012.8 24.267h7.794a1.565 1.565 0 011.54 1.848z" fill="#EDEFEE"/><path d="M10.594 24.267h-2.8a1.565 1.565 0 011.54 1.848L6.273 42.933l-.103.579A1.562 1.562 0 014.63 44.8h2.8c.758 0 1.407-.542 1.54-1.288l.103-.579 3.06-16.818a1.565 1.565 0 00-1.54-1.848z" fill="#D4E4DB"/><path d="M19.587 26.12h2.8a14 14 0 017.014-25.116 14 14 0 00-9.813 25.116zM2.8 44.8h2.8a1.872 1.872 0 01-1.866-1.867v-16.8A1.872 1.872 0 015.6 24.267H2.8a1.872 1.872 0 00-1.866 1.866v16.8A1.872 1.872 0 002.8 44.8z" fill="#fff"/><path d="M0 26.133h1.867V33.6H0v-7.467z" fill="#fff"/><path d="M27.282 21.473l8.4-9.333a2.8 2.8 0 00-4.163-3.747l-6.426 7.14-.712-.713a2.87 2.87 0 00-3.96 0 2.8 2.8 0 000 3.96l2.8 2.8a2.78 2.78 0 001.98.82h.074a2.813 2.813 0 002.007-.927zm-2.081-.006v-.934a.927.927 0 01-.66-.273l-2.8-2.8a.934.934 0 111.32-1.32l1.409 1.408a.892.892 0 00.684.274.933.933 0 00.669-.31l7.083-7.869a.933.933 0 111.389 1.248l-8.4 9.333a.934.934 0 01-.671.31l-.023.933z" fill="#2E4939"/><path d="M53.2 21.467h-7.792a2.496 2.496 0 00-2.413 1.849H40.34c4.415-6.475 3.075-15.26-3.07-20.124-6.145-4.864-15.004-4.15-20.29 1.635-5.287 5.784-5.204 14.671.192 20.355l-4.167-.005a2.498 2.498 0 00-2.414-1.844H2.8a2.8 2.8 0 00-2.8 2.8.933.933 0 101.867 0c0-.515.418-.933.933-.933h7.792a.633.633 0 01.623.747L8.052 43.346a.635.635 0 01-.625.52H2.8a.933.933 0 01-.933-.933V33.6A.933.933 0 100 33.6v9.333a2.8 2.8 0 002.8 2.8h4.627a2.494 2.494 0 002.41-1.866h1.61l-1.054 2.8a3.254 3.254 0 004.43 4.094c.005.011.007.022.011.034a3.26 3.26 0 004.356 1.609c0 .011.007.022.011.033a3.26 3.26 0 004.356 1.61c.005.01.006.022.01.032a3.267 3.267 0 006.035-.187l.056-.147 3.173 1.55a3.227 3.227 0 002.49.138 3.235 3.235 0 001.861-1.68 3.298 3.298 0 00.113-2.527l.033-.011a3.266 3.266 0 001.976-4.2l.03-.01a3.266 3.266 0 001.976-4.2c.473-.169.9-.444 1.25-.805h3.603a2.494 2.494 0 002.41 1.867H53.2a2.8 2.8 0 002.8-2.8v-16.8a2.8 2.8 0 00-2.8-2.8zm-38.267-6.534a13.067 13.067 0 1123.07 8.389l-8.743.011a3.79 3.79 0 00-2.8 1.238l-.57.629-5.962-.008a12.954 12.954 0 01-4.995-10.259zM12.95 49.12a1.39 1.39 0 01-.812-1.796l1.318-3.495a1.4 1.4 0 012.626.963l-.77 2.039-.56 1.476a1.4 1.4 0 01-1.802.813zm4.367 1.64a1.392 1.392 0 01-.816-1.796c.11-.29 1.68-4.453 1.647-4.357a1.4 1.4 0 012.62.983l-1.646 4.355a1.405 1.405 0 01-1.805.814zm4.367 1.642a1.393 1.393 0 01-.816-1.797l1.647-4.356a1.4 1.4 0 012.62.982l-1.646 4.357a1.4 1.4 0 01-1.805.814zm4.366 1.639a1.39 1.39 0 01-.815-1.796l.988-2.613a1.4 1.4 0 012.617.984l-.988 2.614a1.4 1.4 0 01-1.802.81zm15.46-13.72a1.413 1.413 0 01-1.855.653l-2.52-1.204a.933.933 0 00-.805 1.68l2.52 1.202.008.006a1.4 1.4 0 11-1.2 2.528L34.95 43.89a.933.933 0 00-.806 1.68l2.707 1.295a1.4 1.4 0 01-1.201 2.528h-.014l-2.556-1.227a.933.933 0 00-.808 1.68l2.567 1.232a1.41 1.41 0 01.653 1.872 1.383 1.383 0 01-1.846.653l-3.326-1.615.27-.713a3.238 3.238 0 00-3.517-4.364 3.249 3.249 0 00-4.627-3.123c0-.011-.007-.022-.012-.033a3.256 3.256 0 00-4.958-1.237A3.244 3.244 0 0012.484 42h-2.29l2.718-14.951 6.626.008c.02 0 .041.01.062.01.02 0 .028-.009.042-.009l4.555.006-4.435 4.877a3.717 3.717 0 005.227 5.275l4.878-4.405 10.985 5.634c.698.337.992 1.176.657 1.875zm-10.164-8.847l1.012-.914a.933.933 0 00-1.25-1.385l-7.366 6.651a1.85 1.85 0 01-2.6-2.628l6.701-7.374a1.92 1.92 0 011.419-.623l9.146-.012c.04.002.079.002.118 0l4.56-.006 2.72 14.951h-2.333a3.254 3.254 0 00-1.791-3.36l-10.336-5.3zm22.787 9.594A.933.933 0 0153.2 42h-4.628a.635.635 0 01-.624-.52l-3.163-17.4a.633.633 0 01.623-.747H53.2c.515 0 .933.418.933.934v16.8z" fill="#2E4939"/><path d="M.933 30.8a.933.933 0 100-1.867.933.933 0 000 1.867z" fill="#2E4939"/></g><defs><clipPath id="clip0_157_6703"><path fill="#fff" d="M0 0h56v56H0z"/></clipPath></defs></svg>