<svg width="60" height="52" fill="none" xmlns="http://www.w3.org/2000/svg"><path d="M55 5.2h2a1.998 1.998 0 012 1.983v38.675a1.998 1.998 0 01-2 1.984H35v.991a1.998 1.998 0 01-2 1.984h-6a1.998 1.998 0 01-2-1.984v-.991H3a1.998 1.998 0 01-2-1.984V7.183A1.998 1.998 0 013 5.2h52z" fill="#D4E4DB"/><path d="M57 5.2h-3a1.998 1.998 0 012 1.983v38.675a1.998 1.998 0 01-2 1.984h3a1.998 1.998 0 002-1.984V7.183A1.998 1.998 0 0057 5.2z" fill="#D4E4DB"/><path d="M55 37.925v3.967a1.998 1.998 0 01-2 1.983H33a2.977 2.977 0 00-2.84 2.043l-.16-.06v-2.975c0-1.643 1.343-2.975 3-2.975h20a1.998 1.998 0 002-1.983z" fill="#fff"/><path d="M30.16 45.918a2.61 2.61 0 00-.16.932c0-1.643-1.343-2.975-3-2.975H7a1.998 1.998 0 01-2-1.983v-3.967a1.998 1.998 0 002 1.983h20c1.657 0 3 1.332 3 2.975v2.975l.16.06z" fill="#fff"/><path d="M30 4.208v38.675c0-1.643-1.343-2.975-3-2.975H7a1.998 1.998 0 01-2-1.983V3.217a1.998 1.998 0 012-1.984h20c1.657 0 3 1.332 3 2.975z" fill="#EDEFEE"/><path d="M27 1.233h-3c1.657 0 3 1.332 3 2.975v35.7c1.657 0 3 1.332 3 2.975V4.208c0-1.643-1.343-2.975-3-2.975z" fill="#fff"/><path d="M55 3.217v34.708a1.998 1.998 0 01-2 1.983H33c-1.657 0-3 1.332-3 2.975V4.208c0-1.643 1.343-2.975 3-2.975h20a1.998 1.998 0 012 1.984z" fill="#EDEFEE"/><path d="M53 1.233h-3a1.998 1.998 0 012 1.984v34.708a1.998 1.998 0 01-2 1.983h3a1.998 1.998 0 002-1.983V3.217a1.998 1.998 0 00-2-1.984zm-29 11.9v1.984a.996.996 0 01-1 .991h-4v9.917a.996.996 0 01-1 .992h-2c-.552 0-1-.444-1-.992v-9.917h-4c-.552 0-1-.444-1-.991v-1.984a.996.996 0 011-.991h4V8.175a.996.996 0 011-.992h2c.552 0 1 .444 1 .992v3.967h4c.552 0 1 .444 1 .991z" fill="#fff"/><path d="M48.785 17.1l2.09-3.57a.922.922 0 00-.01-.938.939.939 0 00-.83-.45h-4.15l-2.043-3.494a.982.982 0 00-1.682 0l-2.043 3.494h-4.15a.939.939 0 00-.827.449.923.923 0 00-.014.934l2.09 3.575-2.09 3.575a.923.923 0 00.014.934.94.94 0 00.827.45h4.15l2.043 3.493a.981.981 0 00.84.473c.345 0 .665-.18.842-.473l2.043-3.494h4.15a.94.94 0 00.826-.449.923.923 0 00.015-.934L48.785 17.1zM5 5.2H3a1.998 1.998 0 00-2 1.983v38.675a1.998 1.998 0 002 1.984h3a1.998 1.998 0 01-2-1.984V7.183A1.998 1.998 0 016 5.2H5z" fill="#fff"/><path d="M0 7.183h2v7.934H0V7.183z" fill="#fff"/><path d="M1 12.142c.552 0 1-.444 1-.992a.996.996 0 00-1-.992c-.552 0-1 .444-1 .992s.448.992 1 .992z" fill="#2E4939"/><path d="M57 4.208h-1v-.991c0-1.643-1.343-2.975-3-2.975H33c-1.149 0-2.242.49-3 1.345a4.005 4.005 0 00-3-1.345H7c-1.657 0-3 1.332-3 2.975v.991H3c-1.657 0-3 1.332-3 2.975 0 .548.448.992 1 .992s1-.444 1-.992a.996.996 0 011-.991h1v35.7c0 1.643 1.343 2.975 3 2.975h20c1.105 0 2 .888 2 1.983 0 .548.448.992 1 .992s1-.444 1-.992c0-1.095.895-1.983 2-1.983h20c1.657 0 3-1.332 3-2.975v-35.7h1c.552 0 1 .444 1 .991v38.675a.996.996 0 01-1 .992H35c-.552 0-1 .444-1 .992v.991a.996.996 0 01-1 .992h-6c-.552 0-1-.444-1-.992v-.991a.996.996 0 00-1-.992H3c-.552 0-1-.444-1-.992V15.117a.996.996 0 00-1-.992c-.552 0-1 .444-1 .992v30.741c0 1.643 1.343 2.975 3 2.975h21c0 1.643 1.343 2.975 3 2.975h6c1.657 0 3-1.332 3-2.975h21c1.657 0 3-1.332 3-2.975V7.183c0-1.643-1.343-2.975-3-2.975zM33 2.225h20c.552 0 1 .444 1 .992v34.708a.996.996 0 01-1 .992H33a3.966 3.966 0 00-2 .557V4.208c0-1.095.895-1.983 2-1.983zM6 3.217a.996.996 0 011-.992h20c1.105 0 2 .888 2 1.983v35.266a3.966 3.966 0 00-2-.557H7c-.552 0-1-.444-1-.992V3.217zm21 39.666H7c-.552 0-1-.444-1-.991v-1.174c.32.117.659.179 1 .182h20c1.105 0 2 .888 2 1.983v.558a3.966 3.966 0 00-2-.558zm26 0H33a3.966 3.966 0 00-2 .558v-.558c0-1.095.895-1.983 2-1.983h20a2.99 2.99 0 001-.182v1.174a.996.996 0 01-1 .991z" fill="#2E4939"/><path d="M11 17.1h3v8.925c0 1.095.895 1.983 2 1.983h2c1.105 0 2-.888 2-1.983V17.1h3c1.105 0 2-.888 2-1.983v-1.984a1.992 1.992 0 00-2-1.983h-3V8.175a1.992 1.992 0 00-2-1.983h-2c-1.105 0-2 .888-2 1.983v2.975h-3c-1.105 0-2 .888-2 1.983v1.984c0 1.095.895 1.983 2 1.983zm0-3.967h4c.552 0 1-.444 1-.991V8.175h2v3.967c0 .547.448.991 1 .991h4v1.984h-4c-.552 0-1 .444-1 .991v9.917h-2v-9.917a.996.996 0 00-1-.991h-4v-1.984zM36.06 17.1l-1.8 3.074a1.865 1.865 0 000 1.9 1.977 1.977 0 001.706.976h3.574l1.754 2.999a1.985 1.985 0 003.412 0l1.754-2.999h3.574a1.977 1.977 0 001.709-.973 1.87 1.87 0 000-1.899L49.94 17.1l1.8-3.074a1.87 1.87 0 000-1.9 1.977 1.977 0 00-1.706-.976H46.46l-1.754-2.999A1.982 1.982 0 0043 7.183c-.702 0-1.35.369-1.706.968L39.54 11.15h-3.574a1.977 1.977 0 00-1.709.973 1.87 1.87 0 000 1.899L36.06 17.1zm-.008 3.967l1.16-1.997 1.168 1.997h-2.328zm2.312-3.98l2.3-3.962 4.634-.008 2.338 3.997-2.296 3.953h-4.648l-2.328-3.98zm4.66 7.967l-1.172-2.004h2.337l-1.165 2.004zm6.923-3.987H47.62l1.164-1.99 1.163 1.99zm.015-7.958l-1.174 2.022-1.18-2.018 2.354-.004zm-6.986-3.967l1.172 2.008h-2.337l1.165-2.008zm-4.593 3.991l-1.167 1.995-1.163-1.995h2.33zM23 31.975H11c-.552 0-1 .444-1 .992 0 .547.448.991 1 .991h12c.552 0 1-.444 1-.991a.996.996 0 00-1-.992zm26 0H37c-.552 0-1 .444-1 .992 0 .547.448.991 1 .991h12c.552 0 1-.444 1-.991a.996.996 0 00-1-.992z" fill="#2E4939"/></svg>