<svg width="56" height="56" fill="none" xmlns="http://www.w3.org/2000/svg"><g clip-path="url(#clip0_157_6655)"><path d="M23.333 30.8c0 .317-.01.625-.037.933-.498 6.085-5.77 10.654-11.863 10.284C5.339 41.645.66 36.47.905 30.37c.244-6.1 5.32-10.885 11.424-10.768 6.104.117 10.994 5.093 11.004 11.198z" fill="#D4E4DB"/><path d="M12.133 19.6c-.474.002-.948.033-1.42.093a11.193 11.193 0 01.02 22.214 11.131 11.131 0 0012.563-10.174A11.2 11.2 0 0012.133 19.6z" fill="#B8D3C3"/><path d="M12.133 37.333a6.533 6.533 0 100-13.066 6.533 6.533 0 000 13.066z" fill="#EDEFEE"/><path d="M12.133 24.267c-.47 0-.94.053-1.4.155a6.533 6.533 0 010 12.756 6.534 6.534 0 101.4-12.911zm42.933 8.4a9.333 9.333 0 11-18.62-.934 9.333 9.333 0 0118.62.934z" fill="#D4E4DB"/><path d="M52.266 26.003a9.284 9.284 0 00-6.533-2.67 9.392 9.392 0 00-1.4.115 9.321 9.321 0 010 18.435 9.326 9.326 0 007.933-15.88z" fill="#B8D3C3"/><path d="M45.733 37.333a4.667 4.667 0 100-9.333 4.667 4.667 0 000 9.333z" fill="#EDEFEE"/><path d="M45.733 28a4.614 4.614 0 00-1.4.238 4.635 4.635 0 010 8.857c.452.151.924.232 1.4.238a4.667 4.667 0 100-9.333z" fill="#D4E4DB"/><path d="M52.267 19.6v6.403a9.333 9.333 0 00-15.82 5.73H23.296a11.21 11.21 0 00-16.763-10.64V16.95a14.957 14.957 0 0118.555 6.422c.336.56.943.9 1.596.896h3.182a1.872 1.872 0 001.867-1.867V12.133H44.8a7.467 7.467 0 017.467 7.467z" fill="#EDEFEE"/><path d="M42.933 23.333a9.339 9.339 0 00-9.286 8.4h2.8a9.333 9.333 0 017.886-8.285 9.433 9.433 0 00-1.4-.115zm1.867-11.2H42a7.467 7.467 0 017.467 7.467v4.515a9.328 9.328 0 012.8 1.888V19.6a7.467 7.467 0 00-7.467-7.467z" fill="#D4E4DB"/><path d="M6.533 16.95c-.983.401-1.921.905-2.8 1.502l2.8-1.503z" fill="#EDEFEE"/><path d="M31.733 12.133v3.734h-19.6l2.8-11.2h15.866l.934 7.466z" fill="#D4E4DB"/><path d="M30.8 4.667H28l.933 7.466v3.734h2.8v-3.734L30.8 4.667z" fill="#B8D3C3"/><path d="M30.8 2.8v1.867H13.067a1.825 1.825 0 01-1.316-.551A1.825 1.825 0 0111.2 2.8 1.872 1.872 0 0113.066.933h15.867A1.872 1.872 0 0130.8 2.8z" fill="#EDEFEE"/><path d="M28.933.933h-2.8A1.872 1.872 0 0128 2.8v1.867h2.8V2.8A1.872 1.872 0 0028.932.933zm11.2 4.667v6.533h-3.734V5.6c0-.515.418-.933.934-.933h1.866c.516 0 .934.418.934.933zm-8.4 10.267V22.4a1.872 1.872 0 01-1.867 1.867h-3.183a1.844 1.844 0 01-1.596-.896 14.911 14.911 0 00-12.954-7.504h19.6zm23.333 28v2.062A86.83 86.83 0 0023.1 55.067H13.066a74.986 74.986 0 012.754-1.746 74.175 74.175 0 015.693-3.089 79.132 79.132 0 016.487-2.8A85.437 85.437 0 0153.2 42a1.872 1.872 0 011.866 1.867z" fill="#D4E4DB"/><path d="M53.2 42a63.64 63.64 0 00-2.095.14c.7.289 1.159.97 1.162 1.727v2.062A86.83 86.83 0 0020.3 55.067h2.8a86.83 86.83 0 0131.966-9.138v-2.062A1.872 1.872 0 0053.2 42z" fill="#B8D3C3"/><path d="M53.2 42A85.437 85.437 0 0028 47.432 85.437 85.437 0 002.8 42h50.4z" fill="#B8D3C3"/><path d="M28 47.432a79.119 79.119 0 00-6.487 2.8 89.042 89.042 0 00-20.58-4.303v-2.062A1.872 1.872 0 012.799 42 85.437 85.437 0 0128 47.432z" fill="#D4E4DB"/><path d="M21.513 50.232a74.192 74.192 0 00-5.694 3.09A90.57 90.57 0 00.933 50.063V45.93a89.047 89.047 0 0120.58 4.303z" fill="#B8D3C3"/><path d="M15.82 53.321a74.947 74.947 0 00-2.754 1.746H2.799A1.872 1.872 0 01.933 53.2v-3.136a90.56 90.56 0 0114.886 3.257z" fill="#D4E4DB"/><path d="M55.066 45.93v4.134a89.154 89.154 0 00-19.926 5.003H23.1a86.831 86.831 0 0131.966-9.138z" fill="#B8D3C3"/><path d="M55.066 50.064V53.2a1.872 1.872 0 01-1.866 1.867H35.14a89.16 89.16 0 0119.926-5.003z" fill="#D4E4DB"/><path d="M52.266 50.486V53.2a1.872 1.872 0 01-1.867 1.867h2.8a1.872 1.872 0 001.867-1.867v-3.136c-.869.115-1.817.26-2.8.422z" fill="#B8D3C3"/><path d="M14.933 15.867l2.8-11.2h-1.867a1.825 1.825 0 01-1.316-.551A1.825 1.825 0 0114 2.8 1.872 1.872 0 0115.867.933h-2.8A1.872 1.872 0 0011.2 2.8c-.003.495.196.97.55 1.316.346.355.821.553 1.316.55h1.867l-2.8 11.2a14.867 14.867 0 00-5.6 1.083v1.503c.879-.597 1.817-1.1 2.8-1.503a14.847 14.847 0 015.6-1.082z" fill="#fff"/><path d="M6.533 16.95c-.983.401-1.921.905-2.8 1.502l2.8-1.503zM2.8 55.067h2.8A1.872 1.872 0 013.732 53.2v-9.333A1.872 1.872 0 015.599 42H2.8a1.872 1.872 0 00-1.866 1.867V53.2A1.872 1.872 0 002.8 55.067zm8.451-13.112c.291.026.584.045.882.045.484-.004.967-.039 1.447-.105a11.19 11.19 0 01-4.247-20.802V16.95l-2.8 1.503v2.641a11.2 11.2 0 004.718 20.862zm.971-30.266l1.814-7.243 1.81.454-1.814 7.243-1.81-.454z" fill="#fff"/><path d="M14.046 9.221a.933.933 0 11-.009-1.866h.01a.933.933 0 110 1.866zm-1.913 14.112a7.467 7.467 0 107.466 7.467 7.475 7.475 0 00-7.466-7.467zm0 13.067a5.6 5.6 0 110-11.2 5.6 5.6 0 010 11.2z" fill="#2E4939"/><path d="M56 32.667a10.222 10.222 0 00-2.8-7.025V19.6a8.41 8.41 0 00-8.4-8.4h-3.734V5.6c0-1.03-.835-1.867-1.866-1.867h-1.867c-1.03 0-1.867.836-1.867 1.867v5.6h-2.909l-.824-6.591V2.8a2.8 2.8 0 00-2.8-2.8H13.066a2.8 2.8 0 100 5.6h16.91l.824 6.591v2.742H13.329l.699-2.8a.933.933 0 10-1.81-.452l-.82 3.276a15.783 15.783 0 00-5.2 1.12 15.716 15.716 0 00-2.991 1.597.938.938 0 001.052 1.553c.432-.293.88-.561 1.34-.803v2.168a12.102 12.102 0 00.094 20.475H2.8a2.8 2.8 0 00-2.8 2.8V53.2A2.8 2.8 0 002.8 56h50.4a2.8 2.8 0 002.8-2.8v-9.333a2.8 2.8 0 00-2.8-2.8h-1.587a10.258 10.258 0 004.387-8.4zM37.333 5.6H39.2v5.6h-1.867V5.6zm-7.467-1.867h-16.8a.933.933 0 010-1.866h15.867c.516 0 .933.418.933.933v.933zM30.8 16.8v5.6a.933.933 0 01-.934.933h-3.185a.896.896 0 01-.784-.43 15.857 15.857 0 00-6.325-6.103H30.8zm-23.334.805a13.989 13.989 0 0116.812 6.226A2.768 2.768 0 0026.68 25.2h3.185a2.8 2.8 0 002.8-2.8v-9.333H44.8a6.54 6.54 0 016.533 6.533v4.473A10.246 10.246 0 0035.645 30.8H24.266a12.128 12.128 0 00-16.8-11.2v-1.995zm20.525 28.83a87.65 87.65 0 00-11.804-3.502h23.622a87.042 87.042 0 00-11.818 3.502zm-9.418-5.368a12.141 12.141 0 005.538-8.4h11.355a10.258 10.258 0 004.387 8.4h-21.28zM1.866 30.8c0-5.67 4.597-10.267 10.267-10.267 5.67 0 10.267 4.597 10.267 10.267 0 5.67-4.597 10.267-10.267 10.267-5.667-.007-10.26-4.6-10.267-10.267zm.928 12.133A83.72 83.72 0 0125.37 47.47a82.055 82.055 0 00-3.92 1.76 89.763 89.763 0 00-19.584-4.15v-1.213c0-.514.415-.93.928-.934zm12.897 9.38a91.19 91.19 0 00-13.825-3.05v-2.31a87.899 87.899 0 0117.203 3.473 76.979 76.979 0 00-3.378 1.887zM1.866 53.2v-2.053a89.58 89.58 0 0111.685 2.49c-.253.162-.507.325-.76.492H2.8a.933.933 0 01-.934-.929zm52.267-3.942a89.075 89.075 0 00-19.158 4.875h-7.823a86.81 86.81 0 0126.981-7.179v2.304zm-.933 4.875H40.757a90.093 90.093 0 0113.376-2.986V53.2a.933.933 0 01-.933.933zm.933-9.053a87.459 87.459 0 00-31.254 9.053h-6.588a75.498 75.498 0 0111.976-5.808l.026-.01a84.21 84.21 0 0124.912-5.382c.514.003.928.42.928.934v1.213zm-8.4-4.013a8.4 8.4 0 118.4-8.4 8.41 8.41 0 01-8.4 8.4z" fill="#2E4939"/><path d="M45.733 27.067a5.6 5.6 0 100 11.2 5.6 5.6 0 000-11.2zm0 9.333a3.733 3.733 0 110-7.467 3.733 3.733 0 010 7.467z" fill="#2E4939"/><path d="M45.733 33.6a.933.933 0 100-1.867.933.933 0 000 1.867zm-33.6-1.867a.933.933 0 100-1.866.933.933 0 000 1.866z" fill="#2E4939"/></g><defs><clipPath id="clip0_157_6655"><path fill="#fff" d="M0 0h56v56H0z"/></clipPath></defs></svg>