<svg width="61" height="60" fill="none" xmlns="http://www.w3.org/2000/svg"><circle cx="30.5" cy="30" r="29.5" fill="#FDFBF7" fill-opacity=".15" stroke="#FDFBF7"/><circle cx="30.5" cy="30" r="23.364" stroke="#FDFBF7"/><g clip-path="url(#clip0_157_7497)"><path d="M38 23a7.466 7.466 0 01-1.905 4.995l-4.92.005c-.43 0-.841.181-1.13.5l-.455.5-3.595-.005A7.5 7.5 0 1138 23z" fill="#FDFBF7" fill-opacity=".15"/><path d="M30.5 15.5c-.253 0-.503.014-.75.038a7.5 7.5 0 014.845 12.457h1.5A7.5 7.5 0 0030.5 15.5z" fill="#FDFBF7" fill-opacity=".6"/><path d="M29 26.5a1 1 0 01-.707-.293l-1.5-1.5a1 1 0 011.414-1.414l.755.755 3.795-4.217a1 1 0 011.487 1.338l-4.5 5a1 1 0 01-.717.331H29zm-4.34 12.25c.001.133-.02.265-.065.39l-.725 1.915a1.25 1.25 0 01-2.335-.88l.705-1.87a1.05 1.05 0 01.17-.305 1.25 1.25 0 012.25.75z" fill="#FDFBF7" fill-opacity=".3"/><path d="M27.175 39.165c0 .149-.027.296-.08.435l-.885 2.335a1.25 1.25 0 11-2.34-.88l.725-1.915.16-.42a1.25 1.25 0 012.42.445zm4.325 2.69c0 .149-.027.296-.08.435l-.305.81-.225.59a1.25 1.25 0 01-2.34-.875l.54-1.43a1.25 1.25 0 012.41.47z" fill="#FDFBF7" fill-opacity=".3"/><path d="M29.515 40.045c0 .149-.027.296-.08.435l-.345.905-.54 1.43a1.25 1.25 0 11-2.34-.88l.885-2.335a1.25 1.25 0 012.42.445zm8.675-3.235a1.25 1.25 0 00-.59-1.665l-6.18-3.17-2.87 2.59a1.489 1.489 0 01-2.48-1.115 1.46 1.46 0 01.385-1L29.59 29l.455-.5c.29-.319.7-.5 1.13-.5l4.92-.005L39 27.99 40.64 37h-2.565a.915.915 0 00.115-.19z" fill="#FDFBF7" fill-opacity=".3"/><path d="M39 27.99l-1.499.003L39.141 37h1.5L39 27.99z" fill="#FDFBF7" fill-opacity=".15"/><path d="M45 28v9a1.003 1.003 0 01-1 1h-2.48a.837.837 0 01-.825-.69L40.64 37 39 27.99a.838.838 0 01.825-.99H44c.552.002.999.448 1 1z" fill="#FDFBF7" fill-opacity=".3"/><path d="M44 27h-1.5c.552.002.998.448 1 1v9a1.003 1.003 0 01-1 1H44a1.003 1.003 0 001-1v-9a1.003 1.003 0 00-1-1z" fill="#FDFBF7" fill-opacity=".15"/><path d="M38.19 36.81a.919.919 0 01-.115.19 1.232 1.232 0 01-1.55.4c.435.209.711.648.71 1.13a1.245 1.245 0 01-1.25 1.25 1.28 1.28 0 01-.535-.12 1.25 1.25 0 01-.535 2.375c-.186 0-.37-.042-.54-.12.436.208.712.648.71 1.13a1.242 1.242 0 01-1.78 1.125l-2.19-1.07.305-.81a1.25 1.25 0 00-2.33-.905l.345-.905a1.25 1.25 0 00-2.34-.88 1.25 1.25 0 00-2.34-.88l-.16.42A1.25 1.25 0 0022.41 38h-2.05L22 28.99l3.995.005L29.59 29l-3.135 3.45a1.46 1.46 0 00-.385 1 1.489 1.489 0 002.48 1.115l2.87-2.59 6.18 3.17a1.25 1.25 0 01.59 1.665z" fill="#FDFBF7" fill-opacity=".3"/><path d="M37.6 35.145l-6.18-3.17-.543.49 5.223 2.68a1.25 1.25 0 11-1.075 2.255 1.25 1.25 0 11-1.075 2.26 1.25 1.25 0 01-1.075 2.255c.623.3.887 1.046.59 1.67a1.224 1.224 0 01-.4.469l.239.116a1.241 1.241 0 001.66-.585 1.256 1.256 0 00-.59-1.67 1.25 1.25 0 001.075-2.255c.167.078.35.12.535.12a1.25 1.25 0 00.54-2.38 1.239 1.239 0 001.664-.59 1.25 1.25 0 00-.588-1.665z" fill="#FDFBF7" fill-opacity=".15"/><path d="M22 28.99L20.36 38l-.055.31c-.071.4-.42.69-.825.69H17a1.003 1.003 0 01-1-1v-9a1.003 1.003 0 011-1h4.175a.838.838 0 01.825.99z" fill="#FDFBF7" fill-opacity=".3"/><path d="M21.175 28h-1.5a.838.838 0 01.825.99L18.86 38l-.055.31c-.07.4-.419.69-.825.69h1.5c.406 0 .754-.29.825-.69l.055-.31L22 28.99a.838.838 0 00-.825-.99z" fill="#FDFBF7" fill-opacity=".15"/><path d="M25.993 28.993h1.5a7.5 7.5 0 013.757-13.455 7.5 7.5 0 00-5.257 13.455zM17 39h1.5a1.003 1.003 0 01-1-1v-9a1.003 1.003 0 011-1H17a1.003 1.003 0 00-1 1v9c.002.552.448.998 1 1z" fill="#fff" fill-opacity=".1"/><path d="M15.5 29h1v4h-1v-4z" fill="#fff" fill-opacity=".1"/><path d="M30.115 26.504l4.5-5a1.5 1.5 0 00-2.23-2.007l-3.443 3.825-.381-.382a1.538 1.538 0 00-2.122 0 1.5 1.5 0 000 2.121l1.5 1.5c.281.282.663.44 1.06.44h.04c.412-.013.8-.192 1.076-.497zM29 26.5V26a.497.497 0 01-.354-.146l-1.5-1.5a.5.5 0 11.707-.707l.755.754a.5.5 0 00.725-.019l3.795-4.216a.5.5 0 01.744.669l-4.5 5a.5.5 0 01-.36.166l-.012.5z" fill="#FDFBF7"/><path d="M44 26.5h-4.174c-.605 0-1.136.406-1.293.99h-1.422a8 8 0 10-12.412 1l-2.232-.002a1.338 1.338 0 00-1.293-.988H17a1.5 1.5 0 00-1.5 1.5.5.5 0 101 0 .5.5 0 01.5-.5h4.174a.34.34 0 01.334.4l-1.694 9.321a.34.34 0 01-.335.28H17a.5.5 0 01-.5-.5v-5a.5.5 0 00-1 0v5a1.5 1.5 0 001.5 1.5h2.479a1.338 1.338 0 001.291-1h.862l-.565 1.5a1.743 1.743 0 002.374 2.193l.006.018a1.746 1.746 0 002.334.862 1.746 1.746 0 002.34.88c.002.006.002.012.005.017a1.75 1.75 0 003.232-.1l.03-.079 1.7.83a1.729 1.729 0 001.334.075c.44-.154.799-.479.997-.9.2-.426.221-.913.06-1.354l.018-.006a1.75 1.75 0 001.059-2.25l.016-.006a1.75 1.75 0 001.058-2.25c.254-.09.483-.238.67-.43h1.93c.153.587.683.998 1.291 1H44a1.5 1.5 0 001.5-1.5v-9a1.5 1.5 0 00-1.5-1.5zM23.5 23a7 7 0 1112.358 4.494l-4.683.006a2.03 2.03 0 00-1.5.663l-.305.337-3.195-.004A6.94 6.94 0 0123.5 23zm-1.063 18.314a.744.744 0 01-.434-.962l.706-1.872a.75.75 0 011.407.515l-.413 1.093-.3.79a.75.75 0 01-.965.436zm2.34.878a.746.746 0 01-.437-.962c.059-.155.9-2.385.882-2.334a.75.75 0 011.403.527l-.881 2.333a.752.752 0 01-.967.436zm2.34.88a.747.747 0 01-.438-.962l.883-2.334a.75.75 0 011.403.526l-.881 2.334a.75.75 0 01-.968.436zm2.338.878a.745.745 0 01-.436-.962l.529-1.4a.75.75 0 011.402.528l-.529 1.4a.75.75 0 01-.965.434zm8.282-7.35a.757.757 0 01-.994.35l-1.35-.645a.5.5 0 00-.43.9l1.35.644.003.003a.75.75 0 11-.643 1.355l-1.45-.695a.5.5 0 00-.431.9l1.45.694a.75.75 0 01-.644 1.354h-.008l-1.369-.657a.5.5 0 00-.432.9l1.374.66a.754.754 0 01.35 1.003.741.741 0 01-.988.35l-1.782-.866.144-.381a1.735 1.735 0 00-1.884-2.338 1.74 1.74 0 00-2.479-1.673 1.745 1.745 0 00-2.663-.68 1.738 1.738 0 00-2.673-.278h-1.227l1.456-8.01 3.55.005c.011 0 .022.006.033.006.011 0 .015-.005.023-.005l2.44.003-2.376 2.613a1.992 1.992 0 002.8 2.825l2.613-2.36 5.885 3.019c.374.18.531.63.352 1.004zm-5.445-4.74l.542-.489a.5.5 0 00-.67-.742l-3.945 3.563a.991.991 0 01-1.393-1.408l3.59-3.95a1.03 1.03 0 01.76-.334l4.9-.006a.51.51 0 00.063 0l2.443-.003 1.457 8.01h-1.25a1.743 1.743 0 00-.96-1.8l-5.537-2.84zM44.5 37a.5.5 0 01-.5.5h-2.479a.34.34 0 01-.334-.279l-1.695-9.32a.339.339 0 01.334-.4H44a.5.5 0 01.5.5v9z" fill="#FDFBF7"/><path d="M16 31.5a.5.5 0 100-1 .5.5 0 000 1z" fill="#FDFBF7"/></g><defs><clipPath id="clip0_157_7497"><path fill="#fff" transform="translate(15.5 15)" d="M0 0h30v30H0z"/></clipPath></defs></svg>