<svg width="61" height="60" fill="none" xmlns="http://www.w3.org/2000/svg"><circle cx="30.5" cy="30" r="29.5" fill="#FDFBF7" fill-opacity=".15" stroke="#FDFBF7"/><circle cx="30.5" cy="30" r="23.364" stroke="#FDFBF7"/><g clip-path="url(#clip0_157_7532)"><path d="M30.5 39a9 9 0 100-18 9 9 0 000 18z" fill="#FDFBF7" fill-opacity=".3"/><path d="M30.5 21c-.253 0-.5.017-.75.038a8.993 8.993 0 010 17.924c.25.02.497.038.75.038a9 9 0 100-18zM23 22a.5.5 0 01-.5.5h-6a.5.5 0 01-.5-.5 3.479 3.479 0 011.025-2.475 3.4 3.4 0 01.985-.69 2 2 0 002.98 0A3.487 3.487 0 0123 22z" fill="#FDFBF7" fill-opacity=".15"/><path d="M20.99 18.835c-.199.22-.444.393-.718.505A3.485 3.485 0 0121.5 22a.5.5 0 01-.5.5h1.5a.5.5 0 00.5-.5 3.488 3.488 0 00-2.01-3.165z" fill="#FDFBF7" fill-opacity=".6"/><path d="M21.5 17.5a2 2 0 11-4 .002 2 2 0 014-.002z" fill="#FDFBF7" fill-opacity=".3"/><path d="M19.5 15.5a1.992 1.992 0 00-.75.15 2 2 0 01.74 3.185 1.973 1.973 0 01-.74.515c.78.325 1.68.118 2.24-.515A2 2 0 0019.5 15.5zM45 44a.5.5 0 01-.5.5h-6a.5.5 0 01-.5-.5 3.479 3.479 0 011.025-2.475 3.4 3.4 0 01.985-.69 2 2 0 002.98 0A3.487 3.487 0 0145 44z" fill="#FDFBF7" fill-opacity=".15"/><path d="M42.99 40.835c-.199.22-.444.393-.718.505A3.485 3.485 0 0143.5 44a.5.5 0 01-.5.5h1.5a.5.5 0 00.5-.5 3.488 3.488 0 00-2.01-3.165z" fill="#FDFBF7" fill-opacity=".6"/><path d="M43.5 39.5a2 2 0 11-4 .002 2 2 0 014-.002z" fill="#FDFBF7" fill-opacity=".3"/><path d="M41.5 37.5a1.992 1.992 0 00-.75.15 2 2 0 01.74 3.187 1.974 1.974 0 01-.74.513c.78.325 1.68.12 2.24-.513A2 2 0 0041.5 37.5z" fill="#FDFBF7" fill-opacity=".15"/><path d="M31.2 38.956a8.99 8.99 0 010-17.911 9.116 9.116 0 00-1.45-.007 8.992 8.992 0 000 17.924 9 9 0 001.45-.006zM16.5 22.5H18a.5.5 0 01-.5-.5 3.49 3.49 0 012.01-3.165 2 2 0 01.74-3.185 2 2 0 00-2.24 3.185A3.49 3.49 0 0016 22a.5.5 0 00.5.5z" fill="#fff" fill-opacity=".1"/><path d="M22.615 24.7l.83.559a8.803 8.803 0 00-1.353 3.493l-.991-.144a9.804 9.804 0 011.514-3.908z" fill="#fff" fill-opacity=".1"/><path d="M43.474 30.8a12.99 12.99 0 00-16.371-13.343.5.5 0 00.264.964A11.99 11.99 0 0142.475 30.75a11.802 11.802 0 01-.35 2.207l-.624-1.845a.501.501 0 00-.95.32l1.156 3.416a.5.5 0 00.804.215l2.708-2.38a.5.5 0 10-.66-.75l-1.473 1.295c.203-.785.33-1.588.381-2.397l.007-.03zm-21.355-3.554a.5.5 0 01-.005-1h.005a.5.5 0 010 1z" fill="#FDFBF7"/><path d="M37.715 36.163a.488.488 0 00.065-.071 9.491 9.491 0 00-14.559-12.18c-.009.01-.02.016-.028.027 0 .004 0 .008-.005.012-.2.242-.395.49-.573.75a.5.5 0 00.829.558c.092-.133.188-.263.287-.392a10.47 10.47 0 001.85.845 15.408 15.408 0 00-.567 3.788h-2.996c.015-.25.037-.5.073-.747a.5.5 0 10-.99-.146 9.492 9.492 0 0016.614 7.556zM22.026 30.5h2.989c.03 1.281.22 2.554.564 3.788-.64.22-1.256.501-1.84.84a8.443 8.443 0 01-1.712-4.628zm3.989 0H30v3.015a15.563 15.563 0 00-3.453.477c-.321-1.138-.5-2.31-.533-3.492zM30 34.515v3.926c-1.271-.28-2.4-1.61-3.13-3.5a14.646 14.646 0 013.13-.426zm1 3.926v-3.926a14.63 14.63 0 013.13.424c-.73 1.892-1.859 3.222-3.13 3.502zm0-4.926V30.5h3.986a14.307 14.307 0 01-.533 3.492A15.564 15.564 0 0031 33.515zM30 21.56v3.926a14.651 14.651 0 01-3.13-.425c.732-1.892 1.859-3.221 3.13-3.501zm4.13 3.5a14.654 14.654 0 01-3.13.426V21.56c1.271.28 2.4 1.61 3.13 3.501v-.001zM31 26.484a15.57 15.57 0 003.453-.476c.321 1.137.5 2.31.533 3.492H31v-3.016zm7.974 3.016h-2.988a15.417 15.417 0 00-.564-3.788c.64-.22 1.256-.502 1.84-.841a8.445 8.445 0 011.712 4.629zm-2.988 1h2.989a8.445 8.445 0 01-1.712 4.629 10.404 10.404 0 00-1.841-.841c.344-1.234.534-2.507.564-3.788zm.619-6.4a9.671 9.671 0 01-1.494.662 8.817 8.817 0 00-1.529-2.675 8.517 8.517 0 013.023 2.013zm-12.21 0a8.266 8.266 0 012.111-1.595 7.47 7.47 0 01.925-.43 8.771 8.771 0 00-1.542 2.688 9.6 9.6 0 01-1.494-.663zm2.15 1.909c1.13.287 2.29.447 3.455.475V29.5h-3.986c.033-1.182.212-2.355.533-3.492h-.002zm-2.15 9.89a9.671 9.671 0 011.494-.662c.349.975.866 1.88 1.529 2.675a8.515 8.515 0 01-3.023-2.012zm9.187 2.013a8.817 8.817 0 001.529-2.675c.516.179 1.016.4 1.494.663a8.515 8.515 0 01-3.023 2.012zM16.5 23h6a1 1 0 001-1 4.01 4.01 0 00-1.8-3.34 2.47 2.47 0 00.3-1.16 2.5 2.5 0 00-5 0c.003.408.107.809.303 1.167A3.926 3.926 0 0015.5 22a1 1 0 001 1zm3-7a1.5 1.5 0 110 3 1.5 1.5 0 010-3zm-2.121 3.878a2.94 2.94 0 01.571-.433 2.444 2.444 0 003.106 0A3 3 0 0122.5 22h-6a2.98 2.98 0 01.879-2.122zM43.7 40.66a2.46 2.46 0 00.3-1.16 2.5 2.5 0 00-5 0c.002.408.105.809.3 1.167A3.926 3.926 0 0037.5 44a1 1 0 001 1h6a1 1 0 001-1 4.01 4.01 0 00-1.8-3.34zM41.5 38a1.5 1.5 0 110 3 1.5 1.5 0 010-3zm-3 6a2.98 2.98 0 01.879-2.121c.171-.168.363-.314.57-.434.903.741 2.204.74 3.106-.003A3 3 0 0144.5 44h-6z" fill="#FDFBF7"/><path d="M17.526 29.2A13 13 0 0030.497 43a12.85 12.85 0 003.4-.457.5.5 0 00-.264-.964 11.99 11.99 0 01-14.76-14.534l.623 1.844a.501.501 0 10.95-.32l-1.156-3.415a.5.5 0 00-.803-.216l-2.71 2.383a.5.5 0 10.66.75l1.472-1.295a12.79 12.79 0 00-.381 2.397l-.002.027z" fill="#FDFBF7"/></g><defs><clipPath id="clip0_157_7532"><path fill="#fff" transform="translate(15.5 15)" d="M0 0h30v30H0z"/></clipPath></defs></svg>