<svg width="61" height="60" fill="none" xmlns="http://www.w3.org/2000/svg"><circle cx="30.5" cy="30" r="29.5" fill="#FDFBF7" fill-opacity=".15" stroke="#FDFBF7"/><circle cx="30.5" cy="30" r="23.364" stroke="#FDFBF7"/><g clip-path="url(#clip0_157_7564)"><path d="M19 33h-2a1 1 0 00-1 1v9.5a1 1 0 001 1h2a1 1 0 001-1V34a1 1 0 00-1-1z" fill="#FDFBF7" fill-opacity=".15"/><path d="M19 33h-1.5a1.003 1.003 0 011 1v9.5a1.003 1.003 0 01-1 1H19a1.003 1.003 0 001-1V34a1.003 1.003 0 00-1-1z" fill="#FDFBF7" fill-opacity=".6"/><path d="M24.205 39.86l.3-.2c.64-.43 1.394-.66 2.165-.66 3.981 0 3.716.006 3.845-.015" fill="#FDFBF7" fill-opacity=".3"/><path d="M40.43 38.14l-8.075 4.92a3 3 0 01-1.57.44H20V34c1.156 0 1.753-.054 2.56.245 1.1.378 1.287.915 2.43 1.435.433.201.903.31 1.38.32h2.395a2.312 2.312 0 012 1.18 1.384 1.384 0 01-.25 1.805c.145-.03 1.916-.627 8.93-2.975a1.19 1.19 0 011.32.41v.005a1.179 1.179 0 01-.335 1.715z" fill="#FDFBF7" fill-opacity=".3"/><path d="M45 16.5V26a1.003 1.003 0 01-1 1h-2a1 1 0 01-1-1v-9.5a1 1 0 011-1h2a1.003 1.003 0 011 1z" fill="#FDFBF7" fill-opacity=".15"/><path d="M44 15.5h-1.5a1.003 1.003 0 011 1V26a1.003 1.003 0 01-1 1H44a1.003 1.003 0 001-1v-9.5a1.003 1.003 0 00-1-1z" fill="#FDFBF7" fill-opacity=".6"/><path d="M41 16.5V26h-1.16a4.162 4.162 0 01-2.605-.915A4.371 4.371 0 0034.63 24h-2.395a2.312 2.312 0 01-2-1.18 1.384 1.384 0 01.25-1.805c-.128.026.503-.183-8.93 2.975a1.19 1.19 0 01-1.32-.41v-.005a1.177 1.177 0 01.335-1.715l8.075-4.92a3 3 0 011.57-.44H41z" fill="#FDFBF7" fill-opacity=".3"/><path d="M30.485 21.015c.13-.021-.17-.015 3.845-.015a3.88 3.88 0 002.165-.66l.3-.2" fill="#FDFBF7" fill-opacity=".3"/><path d="M35.905 37.195c-3.79 1.267-5.254 1.763-5.39 1.79a1.385 1.385 0 00.25-1.805 2.31 2.31 0 00-2-1.18H26.37a4.37 4.37 0 01-2.605-1.085 3.974 3.974 0 00-1.205-.67 9.003 9.003 0 012.535-11.44c3.805-1.272 5.255-1.762 5.39-1.79a1.384 1.384 0 00-.25 1.805 2.31 2.31 0 002 1.18h2.395c.964.064 1.88.445 2.605 1.085.36.292.767.519 1.205.67a9.003 9.003 0 01-2.535 11.44z" fill="#FDFBF7" fill-opacity=".15"/><path d="M17 44.5h1.5a1.003 1.003 0 01-1-1V34a1.003 1.003 0 011-1H17a1.003 1.003 0 00-1 1v9.5a1.003 1.003 0 001 1z" fill="#fff" fill-opacity=".1"/><path d="M15.501 39.5h1v4h-1v-4z" fill="#fff" fill-opacity=".1"/><path d="M16.01 42a.5.5 0 01-.005-1h.006a.5.5 0 010 1z" fill="#FDFBF7"/><path d="M40.592 26.5a1.5 1.5 0 001.408 1h2a1.5 1.5 0 001.5-1.5v-9.5A1.5 1.5 0 0044 15h-2a1.5 1.5 0 00-1.408 1H30.215a3.51 3.51 0 00-1.83.513l-8.073 4.918a1.68 1.68 0 00.871 3.119c.363 0 .445-.058 1.958-.564a9.488 9.488 0 00-1.458 9.546c-.424-.04-.85-.05-1.275-.032a1.5 1.5 0 00-1.408-1h-2a1.5 1.5 0 00-1.5 1.5v5.5a.5.5 0 001 0V34a.5.5 0 01.5-.5h2a.5.5 0 01.5.5v9.5a.5.5 0 01-.5.5h-2a.5.5 0 01-.5-.5.5.5 0 00-1 0A1.5 1.5 0 0017 45h2a1.5 1.5 0 001.408-1h10.377a3.51 3.51 0 001.83-.513l8.072-4.919a1.68 1.68 0 00-1.4-3.032l-1.427.477a9.49 9.49 0 001.458-9.546c.423.04.85.051 1.274.033zM42 16h2a.5.5 0 01.5.5V26a.5.5 0 01-.5.5h-2a.5.5 0 01-.5-.5v-9.5a.5.5 0 01.5-.5zm-20.604 7.515a.68.68 0 01-.566-1.228l8.076-4.92c.394-.24.847-.368 1.309-.367H40.5v8.5h-.66a3.67 3.67 0 01-2.294-.806A4.841 4.841 0 0034.63 23.5h-2.396a1.85 1.85 0 01-1.532-.856.521.521 0 00-.038-.08.854.854 0 01.059-1.064h3.607c.87.001 1.72-.258 2.442-.744l.3-.2a.5.5 0 00-.556-.832l-.3.2a3.369 3.369 0 01-1.886.576h-3.665c-.358 0-.362.037-9.268 3.015zm18.207 12.97a.68.68 0 01.566 1.228l-8.075 4.92a2.51 2.51 0 01-1.309.367H20.5v-8.5h.66c.834 0 1.643.285 2.293.806A4.839 4.839 0 0026.37 36.5h2.395a1.85 1.85 0 011.532.856c.01.028.023.055.038.08a.854.854 0 01-.059 1.064H26.67a4.365 4.365 0 00-2.443.744l-.3.2a.5.5 0 00.556.831l.3-.2a3.37 3.37 0 011.887-.575c4.124 0 3.639.007 3.841-.016.192 0-.2.108 9.092-3zm-3.938.262l-4.188 1.4c.144-1.2-1.069-2.65-2.712-2.65H26.37a2.927 2.927 0 01-1.173-.275c-1.047-.472-1.167-.922-2.274-1.372a8.48 8.48 0 012.412-10.598l4.187-1.4c-.143 1.2 1.07 2.65 2.712 2.65h2.395c.85.067 1.655.409 2.293.975.35.279.74.506 1.156.673a8.48 8.48 0 01-2.413 10.597z" fill="#FDFBF7"/><path d="M28.75 23.206a.5.5 0 00-.633-.315 7.5 7.5 0 00-4.527 10.025.5.5 0 00.92-.391 6.502 6.502 0 013.924-8.686.502.502 0 00.316-.633zm7.739 4.269a6.499 6.499 0 01-3.923 8.686.501.501 0 00.317.95 7.5 7.5 0 004.526-10.027.5.5 0 10-.92.391zM33.5 31.75c0-1.134-1.065-2.044-2.5-2.218v-2.485c.85.143 1.5.633 1.5 1.203a.5.5 0 001 0c0-1.134-1.065-2.044-2.5-2.218V25.5a.5.5 0 00-1 0v.532c-1.436.174-2.5 1.084-2.5 2.218s1.064 2.044 2.5 2.218v2.485c-.85-.143-1.5-.634-1.5-1.203a.5.5 0 00-1 0c0 1.133 1.064 2.044 2.5 2.218v.532a.5.5 0 001 0v-.532c1.435-.175 2.5-1.085 2.5-2.218zm-5-3.5c0-.57.65-1.06 1.5-1.203v2.406c-.85-.143-1.5-.633-1.5-1.203zm2.5 4.703v-2.407c.85.144 1.5.634 1.5 1.204s-.65 1.06-1.5 1.203z" fill="#FDFBF7"/></g><defs><clipPath id="clip0_157_7564"><path fill="#fff" transform="translate(15.5 15)" d="M0 0h30v30H0z"/></clipPath></defs></svg>