<svg width="61" height="60" fill="none" xmlns="http://www.w3.org/2000/svg"><circle cx="30.5" cy="30" r="29.5" fill="#FDFBF7" fill-opacity=".15" stroke="#FDFBF7"/><circle cx="30.5" cy="30" r="23.364" stroke="#FDFBF7"/><g clip-path="url(#clip0_157_7588)"><path fill-rule="evenodd" clip-rule="evenodd" d="M40.5 17v5.145c0 .818-.497 1.553-1.255 1.86L34.5 25.9V15.5H39a1.5 1.5 0 011.5 1.5z" fill="#FDFBF7" fill-opacity=".3"/><path fill-rule="evenodd" clip-rule="evenodd" d="M39 15.5h-1.5A1.5 1.5 0 0139 17v5.145c0 .818-.497 1.553-1.255 1.86L34.5 25.3v.6l4.745-1.895a2.008 2.008 0 001.255-1.86V17a1.5 1.5 0 00-1.5-1.5z" fill="#FDFBF7" fill-opacity=".15"/><path fill-rule="evenodd" clip-rule="evenodd" d="M34.5 15.5v10.4l-4 1.6-4-1.6V15.5h8zm-8 0v10.4l-4.745-1.895a2.008 2.008 0 01-1.255-1.86V17a1.5 1.5 0 011.5-1.5h4.5z" fill="#FDFBF7" fill-opacity=".3"/><path d="M30.5 29.5a1 1 0 100-2 1 1 0 000 2z" fill="#FDFBF7" fill-opacity=".15"/><path fill-rule="evenodd" clip-rule="evenodd" d="M32.605 33.025a4.483 4.483 0 00-4.21 0l1.37-3.05a.806.806 0 011.47 0l1.37 3.05zm-4.495.165a4.478 4.478 0 00-2.104 3.645l-1.956-2.71a.807.807 0 01.735-1.275l3.325.34zm0 7.62l-3.325.34a.807.807 0 01-.735-1.275l1.956-2.71a4.478 4.478 0 002.104 3.645zm4.495.165l-1.37 3.05a.805.805 0 01-1.47 0l-1.37-3.05c1.317.7 2.895.7 4.21 0zm3.611.175l-3.325-.34a4.478 4.478 0 002.105-3.645l1.955 2.71a.807.807 0 01-.735 1.275zm.734-7.025l-1.954 2.71a4.478 4.478 0 00-2.105-3.645l3.325-.34a.806.806 0 01.735 1.275z" fill="#FDFBF7" fill-opacity=".6"/><path fill-rule="evenodd" clip-rule="evenodd" d="M35 37c0 .055 0 .11-.005.165a4.478 4.478 0 01-2.39 3.81 4.483 4.483 0 01-4.495-.165 4.478 4.478 0 01-2.105-3.645C26 37.11 26 37.055 26 37c0-.055 0-.11.005-.165a4.478 4.478 0 012.39-3.81 4.483 4.483 0 014.495.165A4.478 4.478 0 0135 37z" fill="#FDFBF7" fill-opacity=".15"/><path fill-rule="evenodd" clip-rule="evenodd" d="M34.995 36.835a4.478 4.478 0 00-2.39-3.81 4.357 4.357 0 00-2.855-.454 4.472 4.472 0 013.745 4.264c.005.055.005.11.005.165 0 .055 0 .11-.005.165a4.478 4.478 0 01-3.745 4.265 4.357 4.357 0 002.855-.455 4.478 4.478 0 002.39-3.81C35 37.11 35 37.055 35 37c0-.055 0-.11-.005-.165z" fill="#FDFBF7" fill-opacity=".6"/><path d="M30.5 39.5a2.5 2.5 0 100-5 2.5 2.5 0 000 5z" fill="#FDFBF7" fill-opacity=".3"/><path fill-rule="evenodd" clip-rule="evenodd" d="M30.5 34.5a2.469 2.469 0 00-.75.127 2.483 2.483 0 010 4.744c.242.082.495.125.75.129a2.5 2.5 0 000-5z" fill="#FDFBF7" fill-opacity=".15"/><path fill-rule="evenodd" clip-rule="evenodd" d="M34.165 33.06c.075.041.15.083.225.13l2.309-.236a.779.779 0 00-.484-.104l-2.05.21zm2.535 7.986l-2.31-.236c-.075.05-.15.09-.225.13l2.05.21a.78.78 0 00.485-.104zm-10.694-3.881l-1.956 2.71a.807.807 0 00.735 1.275l1.017-.104c-.6-.35-.675-1.46.755-1.675l-.551-2.206zm.55-2.537c-1.429-.214-1.355-1.323-.755-1.674l-1.015-.104a.807.807 0 00-.736 1.275l1.956 2.71.55-2.207zM23.255 24.5C22.5 24.195 22 22.965 22 22.145V17a1.5 1.5 0 011.5-1.5H22a1.5 1.5 0 00-1.5 1.5v5.145c0 .818.497 1.553 1.255 1.86l1.5.495z" fill="#fff" fill-opacity=".1"/><path fill-rule="evenodd" clip-rule="evenodd" d="M20 17h1v4h-1v-4z" fill="#fff" fill-opacity=".1"/><path d="M20 21.808l.003.422a2.514 2.514 0 001.242 2.078c.262.133.532.25.808.35l.75.3 1.5.6 5.025 2.01a1.484 1.484 0 00.11 1.99 1.28 1.28 0 00-.132.21l-1.305 2.904h-.003l-3.164-.322a1.305 1.305 0 00-1.194 2.062l1.86 2.58v.017l-1.855 2.571a1.307 1.307 0 001.189 2.066L28 41.324h.003l1.303 2.9a1.306 1.306 0 002.384.003l1.305-2.904h.003l3.163.322a1.305 1.305 0 001.195-2.063L35.5 37.009v-.017l1.855-2.571a1.305 1.305 0 00-1.188-2.066L33 32.676h-.004l-1.303-2.9a1.268 1.268 0 00-.133-.212c.543-.537.59-1.398.11-1.99l7.759-3.104A2.488 2.488 0 0041 22.146V17a2 2 0 00-2-2H22a2 2 0 00-2 2 .5.5 0 001 0 1 1 0 011-1h4v9.162l-1.323-.53-1.502-.6-.75-.3a7.314 7.314 0 01-.677-.287 1.512 1.512 0 01-.745-1.247l-.003-.39V21a.5.5 0 00-1 0v.808zM30.5 29a.5.5 0 110-1 .5.5 0 010 1zm4 8a4 4 0 11-8 0 4 4 0 018 0zm-10.05-3.171a.292.292 0 01-.015-.329.305.305 0 01.296-.15l2.142.218a4.997 4.997 0 00-1.164 2.006l-1.259-1.745zm.28 6.821a.285.285 0 01-.293-.15.294.294 0 01.017-.332l1.257-1.741c.225.75.624 1.438 1.165 2.006l-2.146.217zm6.05 3.17a.306.306 0 01-.557-.002l-.883-1.96a4.825 4.825 0 002.32 0l-.88 1.963zm5.77-3.65a.292.292 0 01.015.33.296.296 0 01-.296.15l-2.142-.218a5 5 0 001.164-2.007l1.259 1.745zm-.28-6.82a.287.287 0 01.293.15.294.294 0 01-.017.332l-1.257 1.741a4.997 4.997 0 00-1.165-2.006l2.146-.217zm-5.491-3.169l.881 1.961a4.825 4.825 0 00-2.32 0l.883-1.964a.306.306 0 01.556.003zM40 17v5.146a1.492 1.492 0 01-.943 1.392L35 25.162V16h4a1 1 0 011 1zm-13-1h7v9.561l-3.5 1.4-3.5-1.4V16z" fill="#FDFBF7"/><path d="M20.5 19.5a.5.5 0 100-1 .5.5 0 000 1zm7 17.5a3 3 0 106 0 3 3 0 00-6 0zm5 0a2 2 0 11-4 0 2 2 0 014 0z" fill="#FDFBF7"/></g><defs><clipPath id="clip0_157_7588"><path fill="#fff" transform="translate(15.5 15)" d="M0 0h30v30H0z"/></clipPath></defs></svg>