<svg width="61" height="60" fill="none" xmlns="http://www.w3.org/2000/svg"><circle cx="30.5" cy="30" r="29.5" fill="#FDFBF7" fill-opacity=".15" stroke="#FDFBF7"/><circle cx="30.5" cy="30" r="23.364" stroke="#FDFBF7"/><g clip-path="url(#clip0_157_7632)"><path d="M37 28c-.007.55-.45.993-1 1H25a1 1 0 110-2h11c.552.002.998.448 1 1z" fill="#FDFBF7" fill-opacity=".6"/><path d="M36 26.5v.5H25v-.5a5.5 5.5 0 1111 0z" fill="#FDFBF7" fill-opacity=".15"/><path d="M30.5 21a5.537 5.537 0 00-.75.057A5.493 5.493 0 0134.5 26.5v.5H36v-.5a5.497 5.497 0 00-5.5-5.5z" fill="#FDFBF7" fill-opacity=".6"/><path d="M35.85 29v4.68l-5.13-2.105a.95.95 0 00-.74 0l-5.13 2.105V29h11z" fill="#FDFBF7" fill-opacity=".15"/><path d="M45 35v1a.5.5 0 01-.5.5h-7l-6.595-2.915a.994.994 0 00-.81 0L23.5 36.5h-7a.5.5 0 01-.5-.5v-1a.5.5 0 01.5-.5H23l2-.82 5.13-2.105a.95.95 0 01.74 0L36 33.68l2 .82h6.5a.5.5 0 01.5.5z" fill="#FDFBF7" fill-opacity=".15"/><path d="M44 36.5v7a1.003 1.003 0 01-1 1h-5.5v-8H44z" fill="#FDFBF7" fill-opacity=".3"/><path d="M42.5 36.5v7a1.003 1.003 0 01-1 1H43a1.003 1.003 0 001-1v-7h-1.5z" fill="#FDFBF7" fill-opacity=".15"/><path d="M37.5 36.5v8h-14v-8l6.595-2.915a.994.994 0 01.81 0L37.5 36.5z" fill="#FDFBF7" fill-opacity=".3"/><path d="M30.905 33.585a.994.994 0 00-.81 0l-.345.15L36 36.5v8h1.5v-8l-6.595-2.915z" fill="#FDFBF7" fill-opacity=".15"/><path d="M23.5 36.5v8H18a1.003 1.003 0 01-1-1v-7h6.5z" fill="#FDFBF7" fill-opacity=".3"/><path d="M22 36.5h1.5v8H22v-8zm6 1h5a.5.5 0 01.5.5v6.5h-6V38a.5.5 0 01.5-.5z" fill="#FDFBF7" fill-opacity=".15"/><path d="M30.5 15.5H34a.5.5 0 01.5.5v2a.5.5 0 01-.5.5h-3.5v-3z" fill="#FDFBF7" fill-opacity=".3"/><path d="M34 15.5h-1.5a.5.5 0 01.5.5v2a.5.5 0 01-.5.5H34a.5.5 0 00.5-.5v-2a.5.5 0 00-.5-.5z" fill="#FDFBF7" fill-opacity=".15"/><path d="M30.5 15.5H32v3h-1.5v-3zm-14 21h.5v7c.002.552.448.998 1 1h1.5a1.003 1.003 0 01-1-1v-7H18a.5.5 0 01-.5-.5v-1a.5.5 0 01.5-.5h-1.5a.5.5 0 00-.5.5v1a.5.5 0 00.5.5zm14-15.5c-.146 0-.29.009-.432.022A5.493 5.493 0 0025 26.5v.5a1 1 0 100 2h-.15v4.68l1.5-.615V29h.15a1 1 0 110-2v-.5a5.493 5.493 0 014.75-5.443A5.537 5.537 0 0030.5 21z" fill="#fff" fill-opacity=".1"/><path d="M16.5 36.5h1v4h-1v-4z" fill="#fff" fill-opacity=".1"/><path d="M17 39a.5.5 0 100-1 .5.5 0 000 1z" fill="#FDFBF7"/><path d="M44.5 34h-6.4l-1.6-.657v-3.939c.593-.215.99-.774 1-1.404 0-.636-.401-1.202-1-1.415V26.5a6.005 6.005 0 00-5.5-5.974V19h3a1 1 0 001-1v-2a1 1 0 00-1-1h-3.5a.5.5 0 00-.5.5v5.026a6.005 6.005 0 00-5.5 5.974v.09a1.524 1.524 0 00-1 1.41 1.5 1.5 0 001 1.408v3.935L22.9 34h-6.4a1 1 0 00-1 1v1a1 1 0 001 1H23v7h-5a.5.5 0 01-.5-.5v-3a.5.5 0 00-1 0v3A1.5 1.5 0 0018 45h25a1.5 1.5 0 001.5-1.5V37a1 1 0 001-1v-1a1 1 0 00-1-1zM34 18h-3v-2h3v2zm-3.5 3.5a5.005 5.005 0 015 5h-10a5.005 5.005 0 015-5zm-5.5 6h11a.5.5 0 01.5.5.513.513 0 01-.5.5H25a.5.5 0 01-.5-.5.513.513 0 01.5-.5zm.5 2h10v3.433l-4.439-1.823a1.474 1.474 0 00-1.122 0L25.5 32.933V29.5zM24 36.825l6.291-2.782a.53.53 0 01.412 0L37 36.825V44h-3v-6a1 1 0 00-1-1h-5a1 1 0 00-1 1v6h-3v-7.175zM28 38h2v6h-2v-6zm3 6v-6h2v6h-2zm12.5-.5a.5.5 0 01-.5.5h-5v-7h5.5v6.5zm1-7.5h-6.895l-6.5-2.876a1.536 1.536 0 00-1.211.002L23.394 36H16.5v-1H23c.065 0 .13-.013.19-.038l2-.82.012-.005 5.118-2.1a.476.476 0 01.363 0l5.118 2.1.014.005 1.997.82c.06.025.123.038.188.038h6.5v1z" fill="#FDFBF7"/></g><defs><clipPath id="clip0_157_7632"><path fill="#fff" transform="translate(15.5 15)" d="M0 0h30v30H0z"/></clipPath></defs></svg>