<svg width="61" height="60" fill="none" xmlns="http://www.w3.org/2000/svg"><circle cx="30.5" cy="30" r="29.5" fill="#FDFBF7" fill-opacity=".15" stroke="#FDFBF7"/><circle cx="30.5" cy="30" r="23.364" stroke="#FDFBF7"/><g clip-path="url(#clip0_157_7668)"><path d="M35 23h-9c0-2.21 2.015-4 4.5-4s4.5 1.79 4.5 4z" fill="#FDFBF7" fill-opacity=".3"/><path d="M29 23c0-2.209.672-4 1.5-4s1.5 1.791 1.5 4" fill="#FDFBF7" fill-opacity=".3"/><path d="M35 23v3h-3.055l-1.145-.895a.481.481 0 00-.6 0L29.055 26H26v-3h9z" fill="#FDFBF7" fill-opacity=".15"/><path d="M33.5 23H35v3h-1.5v-3z" fill="#FDFBF7" fill-opacity=".6"/><path d="M34.5 28h-8l2.555-2 1.145-.895a.481.481 0 01.6 0l1.145.895 2.555 2z" fill="#FDFBF7" fill-opacity=".3"/><path d="M42 27c-.004.55-.45.996-1 1h-6.5l-2.555-2H41c.552.002.999.448 1 1z" fill="#FDFBF7" fill-opacity=".3"/><path d="M41 26h-1.5c.552.002.998.448 1 1-.004.55-.45.996-1 1H41c.55-.004.996-.45 1-1a1.003 1.003 0 00-1-1z" fill="#FDFBF7" fill-opacity=".15"/><path d="M29.055 26L26.5 28H20a1.003 1.003 0 01-1-1c.004-.55.45-.996 1-1h9.055z" fill="#FDFBF7" fill-opacity=".3"/><path d="M34.5 28v2.9l-2.61-.64a1.983 1.983 0 00-1.82.45l-.825.745-2.745-.17V28h8z" fill="#FDFBF7" fill-opacity=".15"/><path d="M41 28v2.5h-1.5a.5.5 0 00-.5.5v1l-4.5-1.1V28H41z" fill="#FDFBF7" fill-opacity=".3"/><path d="M39.5 28H41v2.5h-1.5V28z" fill="#FDFBF7" fill-opacity=".15"/><path d="M26.5 28v3.285L22 31v-.5a.5.5 0 00-.5-.5H20v-2h6.5zM31 15.5h1.5a.5.5 0 01.5.5v1a.5.5 0 01-.5.5h-2V16a.5.5 0 01.5-.5z" fill="#FDFBF7" fill-opacity=".3"/><path d="M21.5 30h-5a.5.5 0 00-.5.5V38a.5.5 0 00.5.5h5a.5.5 0 00.5-.5v-7.5a.5.5 0 00-.5-.5zm23 .5h-5a.5.5 0 00-.5.5v7a.5.5 0 00.5.5h5a.5.5 0 00.5-.5v-7a.5.5 0 00-.5-.5z" fill="#FDFBF7" fill-opacity=".15"/><path d="M44.5 30.5H43a.5.5 0 01.5.5v7a.5.5 0 01-.5.5h1.5a.5.5 0 00.5-.5v-7a.5.5 0 00-.5-.5z" fill="#FDFBF7" fill-opacity=".6"/><path d="M26.35 38.55a.99.99 0 01-.29.705l-.355.355a1 1 0 01-1.41-1.415l.12-.12.23-.235a1 1 0 011.705.71z" fill="#FDFBF7" fill-opacity=".3"/><path d="M27.77 39.96a1 1 0 01-.295.71l-.705.71-.355.35A1 1 0 0125 40.315l.705-.705.355-.355a1.003 1.003 0 011.71.705z" fill="#FDFBF7" fill-opacity=".3"/><path d="M29.18 41.38a.992.992 0 01-.29.705l-.71.705a.997.997 0 11-1.41-1.41l.706-.71a1 1 0 011.705.71z" fill="#FDFBF7" fill-opacity=".3"/><path d="M30.6 42.79a1 1 0 01-.294.71l-.005.005-.705.7a1 1 0 01-1.415-1.415l.71-.705a1.002 1.002 0 011.71.705zM39 32v6l-2.064.825-5.485-5.845-2.695 2.36a1.275 1.275 0 01-.845.315 1.28 1.28 0 01-.855-2.23l2.19-1.97.825-.745a1.983 1.983 0 011.82-.45l2.61.64L39 32z" fill="#FDFBF7" fill-opacity=".3"/><path d="M31.89 30.26a1.978 1.978 0 00-1.205.072c2.915.715 1.407.346 6.815 1.668v6l-.974.389.409.436L39 38v-6c-5.424-1.326-3.834-.937-7.11-1.74z" fill="#FDFBF7" fill-opacity=".15"/><path d="M37.01 40.32a1 1 0 01-1.415 0l.355.35a1 1 0 01-1.415 1.415l-.355-.355a1 1 0 11-1.41 1.415l-.355-.35A1 1 0 0131 44.205l-.7-.7a1 1 0 10-1.41-1.42 1 1 0 00-1.415-1.415 1 1 0 10-1.415-1.415 1 1 0 00-1.415-1.415l-.23.235A5.755 5.755 0 0022 37.5V31c5.42.343 3.785.24 7.245.455l-2.19 1.97a1.28 1.28 0 001.7 1.915l2.695-2.36 5.56 5.925a1 1 0 010 1.415z" fill="#FDFBF7" fill-opacity=".3"/><path d="M37.01 38.905l-5.56-5.925-.823.72 4.884 5.205a1 1 0 01-1.416 1.415l.355.35a1 1 0 01.038 1.368l.047.047a1 1 0 101.416-1.415l-.355-.35a1 1 0 001.415-1.415z" fill="#FDFBF7" fill-opacity=".15"/><path d="M21.5 30v-2a1 1 0 010-2H20a1 1 0 000 2v2h1.5zm-5 8.5H18a.5.5 0 01-.5-.5v-7.5a.5.5 0 01.5-.5h-1.5a.5.5 0 00-.5.5V38a.5.5 0 00.5.5zM26 23v3h1.5v-3c0-1.983 1.622-3.622 3.75-3.94a5.064 5.064 0 00-.75-.06c-2.485 0-4.5 1.79-4.5 4z" fill="#fff" fill-opacity=".1"/><path d="M15.5 34h1v4h-1v-4z" fill="#fff" fill-opacity=".1"/><path d="M16.01 36.5a.5.5 0 01-.005-1h.005a.5.5 0 110 1z" fill="#FDFBF7"/><path d="M44.5 30h-3v-1.59a1.44 1.44 0 00.554-.347c.287-.279.448-.663.446-1.063a1.5 1.5 0 00-1.5-1.5h-5.5v-2a.5.5 0 000-1h-.032c-.26-2.1-2.128-3.767-4.468-3.977V18h1.5a1 1 0 001-1v-1a1 1 0 00-1-1H31a1 1 0 00-1 1v2.523c-2.34.21-4.208 1.878-4.468 3.977H25.5a.5.5 0 000 1v2H20a1.508 1.508 0 00-1.5 1.5 1.5 1.5 0 001 1.408V29.5h-3a1 1 0 00-1 1V34a.5.5 0 001 0v-3.5h5V38h-5a.5.5 0 00-1 0 1 1 0 001 1h5a1 1 0 00.997-.966c.388.04.772.123 1.143.245a1.486 1.486 0 00.771 2.002 1.49 1.49 0 001.625 2.203c.067.25.198.477.379.661.262.261.613.415.983.431a1.496 1.496 0 002.552.983l.35-.35.345.345c.28.286.664.447 1.064.445A1.503 1.503 0 0033.15 43.9a1.514 1.514 0 001.38-.4c.184-.182.319-.408.39-.658a1.5 1.5 0 001.787-1.786 1.5 1.5 0 00.993-1.998l1.041-.416A.994.994 0 0039.5 39h5a1 1 0 001-1v-7a1 1 0 00-1-1zm-5 0a1 1 0 00-1 1v.363l-3.5-.857V28.5h5.5V30h-1zm-7.33 3.016l.16-.14a.5.5 0 10-.66-.752l-.559.49h-.003l-2.681 2.346a.793.793 0 01-.957.05.783.783 0 01-.079-1.219l2.19-1.972.011-.01.814-.733c.37-.334.883-.46 1.367-.336l6.727 1.652v5.268l-1.434.574-4.897-5.218zm-2.796-6.64c.014-.01.028-.018.04-.03l1.078-.846 2.558 2h-5.105l1.43-1.123zM27 28.5h7v1.762l-1.986-.486a2.48 2.48 0 00-2.279.563l-.67.604-2.065-.13V28.5zM41.5 27a.487.487 0 01-.153.356.478.478 0 01-.347.144h-6.328l-1.277-1H41a.5.5 0 01.5.5zm-7.045-4.5h-1.968a7.916 7.916 0 00-.575-2.77 3.643 3.643 0 012.543 2.77zm-3.955-3c.268 0 .893 1.05.987 3h-1.974c.094-1.95.719-3 .987-3zM31 16h1.5v1H31v-1zm-1.913 3.73a7.916 7.916 0 00-.575 2.77h-1.966a3.643 3.643 0 012.541-2.77zM26.5 23.5h8v2h-2.383l-1.009-.79a.987.987 0 00-1.216 0l-1.009.79H26.5v-2zm-6.847 3.144A.478.478 0 0120 26.5h7.605l-1.277 1H20a.5.5 0 01-.5-.5c0-.135.055-.264.153-.356zM20.5 29.5v-1H26v2.25l-3.5-.22v-.03a1 1 0 00-1-1h-1zm5.207 9.403l-.354.354a.511.511 0 01-.707 0 .5.5 0 010-.707l.122-.122.004-.004.228-.228a.5.5 0 11.707.707zm-.354 2.474a.5.5 0 010-.707l1.061-1.06a.5.5 0 11.707.707l-1.06 1.06a.511.511 0 01-.707 0zm1.622.707c0-.132.052-.26.146-.353l.177-.177.53-.53a.5.5 0 11.707.707l-.707.707a.511.511 0 01-.707 0 .495.495 0 01-.146-.354zm1.56 1.768a.5.5 0 010-.706l.707-.708a.5.5 0 11.708.707l-.707.707a.5.5 0 01-.707 0zm8.122-3.886a.5.5 0 01-.7.005l-.009-.008-1.818-1.816a.5.5 0 00-.707.707l1.818 1.818.013.013.342.337a.5.5 0 11-.708.708l-.355-.355-1.747-1.747a.5.5 0 00-.706.707l1.746 1.746a.5.5 0 01.15.358.488.488 0 01-.15.35.505.505 0 01-.705-.003l-.355-.35-.247-.25a.5.5 0 00-.708.706l.25.25a.5.5 0 010 .705.492.492 0 01-.704 0l-.41-.41a1.486 1.486 0 00-1.269-2.14 1.453 1.453 0 00-1.413-1.4 1.454 1.454 0 00-1.415-1.414 1.488 1.488 0 00-.432-.996 1.535 1.535 0 00-2.1-.019 6.19 6.19 0 00-1.818-.44v-5.495l3.99.25h.016l1.518.095-1.304 1.175a1.78 1.78 0 002.364 2.663l2.332-2.041 5.24 5.583a.5.5 0 010 .707zM39.5 38v-7h5v7h-5z" fill="#FDFBF7"/></g><defs><clipPath id="clip0_157_7668"><path fill="#fff" transform="translate(15.5 15)" d="M0 0h30v30H0z"/></clipPath></defs></svg>