<svg width="160" height="160" fill="none" xmlns="http://www.w3.org/2000/svg"><g clip-path="url(#clip0_157_6532)"><path d="M80 160c44.183 0 80-35.817 80-80S124.183 0 80 0 0 35.817 0 80s35.817 80 80 80z" fill="#F1F2ED"/><path d="M160 80a81.16 81.16 0 00-.756-11.047l-34.1-34.097-10.807 11.578L87.5 19.581 72.894 33.047l8.98 8.966.763 26.562L48.91 34.856 34.847 48.92l32.43 32.412-23.124 2.778L33.334 73.2 19.16 87.116l26.513 26.512-10.816 11.516 34.1 34.1c3.66.505 7.35.758 11.044.756 44.181 0 80-35.816 80-80z" fill="#DFE0DC"/><path d="M75.313 26.094h9.374v43.065h-9.374V26.094z" fill="#597765"/><path d="M79.878 26.094h4.81v43.065h-4.81V26.094z" fill="#2E4939"/><path d="M89.285 29.566c1.937-5.138-.659-10.872-5.796-12.808-5.137-1.936-10.871.66-12.808 5.797-1.936 5.137.66 10.871 5.797 12.807s10.871-.659 12.807-5.796z" fill="#2E4939"/><path d="M80 16.156h-.122v19.869H80a9.938 9.938 0 000-19.875v.006z" fill="#152A1E"/><path d="M75.313 90.84h9.374v43.066h-9.374V90.841z" fill="#597765"/><path d="M79.878 90.84h4.81v43.066h-4.81V90.841z" fill="#2E4939"/><path d="M79.916 143.812c5.486 0 9.934-4.447 9.934-9.934 0-5.487-4.448-9.934-9.934-9.934-5.487 0-9.935 4.447-9.935 9.934 0 5.487 4.448 9.934 9.935 9.934z" fill="#2E4939"/><path d="M80 123.969h-.122v19.869H80a9.936 9.936 0 100-19.875v.006z" fill="#152A1E"/><path d="M90.84 75.313h43.066v9.374H90.841v-9.374z" fill="#2E4939"/><path d="M133.906 89.938c5.489 0 9.938-4.45 9.938-9.938s-4.449-9.938-9.938-9.938c-5.488 0-9.937 4.45-9.937 9.938s4.449 9.938 9.937 9.938z" fill="#152A1E"/><path d="M26.094 75.313h43.065v9.374H26.094v-9.374z" fill="#597765"/><path d="M26.088 89.91c5.486 0 9.934-4.448 9.934-9.935s-4.448-9.934-9.934-9.934c-5.487 0-9.935 4.447-9.935 9.934 0 5.487 4.448 9.934 9.935 9.934zm58.25-20.888l30.447-30.447 6.628 6.628L90.966 75.65l-6.628-6.628z" fill="#2E4939"/><path d="M127.494 45.1c1.756-5.197-1.034-10.835-6.232-12.591-5.198-1.757-10.835 1.033-12.592 6.231-1.756 5.198 1.034 10.835 6.232 12.592 5.198 1.756 10.835-1.034 12.592-6.232z" fill="#152A1E"/><path d="M38.553 114.797L69 84.35l6.625 6.628-30.447 30.447-6.625-6.628z" fill="#597765"/><path d="M43.981 127.845c5.373-1.125 8.817-6.394 7.692-11.767-1.126-5.374-6.394-8.817-11.768-7.692-5.373 1.126-8.817 6.394-7.691 11.767 1.125 5.374 6.394 8.818 11.767 7.692zm40.35-36.864l6.628-6.628 30.45 30.447-6.628 6.628-30.45-30.447z" fill="#2E4939"/><path d="M118.119 128.056c5.488 0 9.938-4.449 9.938-9.937 0-5.489-4.45-9.938-9.938-9.938s-9.937 4.449-9.937 9.938c0 5.488 4.449 9.937 9.937 9.937z" fill="#152A1E"/><path d="M38.56 45.197l6.628-6.628 30.437 30.45-6.628 6.628-30.437-30.45z" fill="#597765"/><path d="M41.88 51.819c5.49 0 9.938-4.45 9.938-9.938s-4.449-9.937-9.937-9.937c-5.489 0-9.938 4.449-9.938 9.937 0 5.489 4.45 9.938 9.938 9.938z" fill="#2E4939"/><path d="M79.985 109.644c16.371 0 29.643-13.272 29.643-29.644S96.356 50.356 79.985 50.356C63.613 50.356 50.34 63.628 50.34 80s13.272 29.644 29.644 29.644z" fill="#FDFBF7"/><path d="M80 50.353h-.122v59.291H80a29.646 29.646 0 0020.963-50.61A29.646 29.646 0 0080 50.35v.003z" fill="#E5E4E0"/><path d="M83.618 76.145c5.115-1.989 7.649-7.748 5.66-12.863-1.99-5.115-7.749-7.65-12.864-5.66-5.115 1.989-7.65 7.748-5.66 12.863 1.99 5.115 7.748 7.65 12.864 5.66z" fill="#F5E2DC"/><path d="M80 57h-.122v19.875H80a9.938 9.938 0 100-19.872V57z" fill="#E6C2B7"/><path d="M61.513 98.281a18.487 18.487 0 1136.975 0H61.513z" fill="#DF5643"/><path d="M80 79.794h-.122V98.28h18.61A18.487 18.487 0 0080 79.794z" fill="#BF4A39"/></g><defs><clipPath id="clip0_157_6532"><path fill="#fff" d="M0 0h160v160H0z"/></clipPath></defs></svg>