<svg width="160" height="160" fill="none" xmlns="http://www.w3.org/2000/svg"><g clip-path="url(#clip0_157_6512)"><path d="M80 160c44.183 0 80-35.817 80-80S124.183 0 80 0 0 35.817 0 80s35.817 80 80 80z" fill="#F1F2ED"/><path d="M80.775 159.988c43.825-.416 79.222-36.079 79.222-79.988 0-2.225-.091-4.425-.272-6.6l-33.844-33.844-30.444 27.457-20.74-20.744-21.703 6.562L80.58 80.42l-41.737 37.637 41.931 41.932z" fill="#DFE0DC"/><path d="M63.844 63.075h-7.116V49.95h7.116l4.947 6.563-4.947 6.562z" fill="#597765"/><path d="M63.844 49.966h7.122V63.09h-7.122V49.966z" fill="#2E4939"/><path d="M63.844 52.825H52.997v-6.563h10.847l7.538 3.272-7.538 3.291z" fill="#DF5643"/><path d="M63.844 46.269H74.7v6.562H63.844V46.27zM29.89 68.528l10.063-10.062L50.02 68.528 39.953 78.597 29.891 68.528z" fill="#BF4A39"/><path d="M84.162 92.787L63.85 128.339a35.55 35.55 0 010-71.1l20.312 35.55z" fill="#DF5643"/><path d="M99.4 92.787a35.551 35.551 0 01-35.553 35.551v-71.1A35.552 35.552 0 0199.4 92.787z" fill="#BF4A39"/><path d="M79.515 92.787l-15.669 27.419A27.417 27.417 0 0144.46 73.4a27.418 27.418 0 0119.387-8.031l15.67 27.418z" fill="#FDFBF7"/><path d="M91.269 92.787a27.423 27.423 0 01-27.422 27.419V65.369a27.42 27.42 0 0127.422 27.418z" fill="#E6E4E0"/><path d="M63.847 92.787h-2.813V72.25h2.813l1.965 10.269-1.965 10.268z" fill="#2E4939"/><path d="M63.847 72.25h2.812v20.537h-2.812V72.25z" fill="#152B1E"/><path d="M67.022 92.787l-3.172 5.554a5.552 5.552 0 110-11.103l3.172 5.55z" fill="#597765"/><path d="M69.4 92.787a5.553 5.553 0 01-5.55 5.554V87.238a5.55 5.55 0 015.55 5.55zm37.518-7.677a26.603 26.603 0 01-15.787-5.163L76.162 86.9l7.297-15.703a26.727 26.727 0 0123.459-39.538l13.363 26.725-13.363 26.725z" fill="#2E4939"/><path d="M106.919 85.11a26.727 26.727 0 0026.147-26.72 26.727 26.727 0 00-26.147-26.718v53.437z" fill="#152B1E"/><path d="M106.919 63.794a17.472 17.472 0 01-2.797-2.3c-3.947-3.947-3.963-7.078-3.963-7.078l5.038-5.038-8.697-8.697-6.672 6.666c-1.266 7.678 1.516 15.206 7.369 21.062a26.62 26.62 0 009.722 6.307l5.39-2.875-5.39-8.047z" fill="#FDFBF7"/><path d="M118.26 75.784l6.671-6.675-8.684-8.69-5.047 5.053s-1.75 0-4.281-1.663v10.938a22.388 22.388 0 0011.341 1.037z" fill="#E6E4E0"/></g><defs><clipPath id="clip0_157_6512"><path fill="#fff" d="M0 0h160v160H0z"/></clipPath></defs></svg>