<svg width="160" height="160" fill="none" xmlns="http://www.w3.org/2000/svg"><g clip-path="url(#clip0_157_6561)"><path d="M80 160c44.183 0 80-35.817 80-80S124.183 0 80 0 0 35.817 0 80s35.817 80 80 80z" fill="#F1F2ED"/><path d="M160 80a80.51 80.51 0 00-1.3-14.444l-17.45-17.45-40.85 7.856-28.775-28.775-32.069 23.829-20.806 8.359 10.488 10.49-7.675 52.029L56 156.334A80 80 0 0080 160c44.181 0 80-35.819 80-80z" fill="#DFE0DC"/><path d="M24.866 121.894h-3.303v-66.25h13.956l-10.653 66.25z" fill="#DF5643"/><path d="M135.135 121.894h3.303v-66.25h-13.944l10.641 66.25z" fill="#BF4A39"/><path d="M65 119.975h9.375l-2.26-47.26-9.375.447.603 12.6H50.625l.625-12.6-9.375-.446-2.26 47.259h9.375l1.19-24.837h13.607L65 119.975z" fill="#2E4939"/><path d="M37.813 65.813h38.356v10.18H37.813v-10.18z" fill="#DF5643"/><path d="M111 119.975h9.375l-2.25-47.26-9.375.447.625 12.6H96.653l.603-12.6-9.375-.446-2.256 47.259H95l1.188-24.837h13.625L111 119.975z" fill="#152A1E"/><path d="M83.831 65.813h38.356v10.18H83.831v-10.18z" fill="#BF4A39"/><path d="M37.813 27.188h33.812V49.79H37.812V27.188z" fill="#FDFBF7"/><path d="M18.75 48.106h122.5v11.25H18.75v-11.25z" fill="#2E4939"/><path d="M79.888 48.106h61.362v11.25H79.888v-11.25z" fill="#152A1E"/><path d="M54.719 41.428a4.2 4.2 0 100-8.4 4.2 4.2 0 000 8.4z" fill="#E5E4E0"/></g><defs><clipPath id="clip0_157_6561"><path fill="#fff" d="M0 0h160v160H0z"/></clipPath></defs></svg>