<svg width="44" height="44" fill="none" xmlns="http://www.w3.org/2000/svg"><path d="M5.77 10.459v5.77c0 .399.323.722.722.722h11.54a.721.721 0 00.722-.722v-5.77a.721.721 0 00-.721-.721H6.492a.721.721 0 00-.721.72z" fill="#FFCFC9"/><path d="M18.032 9.738h-2.164c.399 0 .722.323.722.721v5.77a.721.721 0 01-.722.722h2.164a.721.721 0 00.721-.721v-5.77a.721.721 0 00-.72-.722z" fill="#F9B2A8"/><path d="M6.491 19.836V16.95h11.541v2.885H6.492zm0-10.098V6.853h11.541v2.885H6.492z" fill="#F9B2A8"/><path d="M6.492 2.525a2.164 2.164 0 100 4.328h11.541a2.164 2.164 0 100-4.328H6.493z" fill="#FFCFC9"/><path d="M18.032 2.524h-2.164a2.164 2.164 0 010 4.328h2.164a2.164 2.164 0 000-4.328z" fill="#F9B2A8"/><path d="M6.492 19.836a2.164 2.164 0 100 4.328h11.541a2.164 2.164 0 100-4.328H6.493z" fill="#FFCFC9"/><path d="M18.032 19.836h-2.164a2.164 2.164 0 010 4.328h2.164a2.164 2.164 0 100-4.328zm.722-5.049V11.9H41.22a1.443 1.443 0 110 2.886H18.754z" fill="#F9B2A8"/><path d="M21.075 35.705H3.449c-.993 0-1.859.675-2.1 1.639l-.584 2.34a1.443 1.443 0 001.398 1.792H22.36a1.443 1.443 0 001.4-1.793l-.585-2.34a2.164 2.164 0 00-2.1-1.638z" fill="#FFCFC9"/><path d="M23.76 39.683l-.585-2.34a2.164 2.164 0 00-2.1-1.638h-2.164c.993 0 1.859.675 2.1 1.639l.584 2.34a1.442 1.442 0 01-1.398 1.792h2.163a1.443 1.443 0 001.4-1.793z" fill="#F9B2A8"/><path d="M5.77 32.82h12.984c.797 0 1.443.646 1.443 1.442v1.443H4.328v-1.443c0-.796.646-1.442 1.443-1.442z" fill="#F38F81"/><path d="M18.754 32.82H16.59c.797 0 1.442.646 1.442 1.442v1.443h2.164v-1.443c0-.796-.646-1.442-1.442-1.442z" fill="#EC6B59"/><path d="M4.328 22c0 1.195.969 2.164 2.164 2.164h2.164a2.164 2.164 0 010-4.328V16.95a.721.721 0 01-.721-.722v-5.77a.72.72 0 01.721-.721V6.852a2.164 2.164 0 010-4.328H6.492a2.164 2.164 0 000 4.328v2.886a.721.721 0 00-.721.72v5.771c0 .399.323.722.721.722v2.885A2.164 2.164 0 004.328 22zm-.001 13.705H3.45c-.993 0-1.859.675-2.1 1.639l-.584 2.34a1.443 1.443 0 001.398 1.792h2.164a1.443 1.443 0 01-1.399-1.793l.584-2.34a2.164 2.164 0 012.1-1.638h.88v-1.443c0-.796.645-1.442 1.442-1.442H5.77c-.797 0-1.443.646-1.443 1.442v1.443z" fill="#fff"/><path d="M6.491 1.803h5.77v1.443h-5.77V1.803z" fill="#fff"/><path d="M9.377 3.246a.721.721 0 100-1.443.721.721 0 000 1.443z" fill="#DF5643"/><path d="M41.221 11.18H19.475v-.721a1.438 1.438 0 00-.721-1.242V7.47a2.88 2.88 0 00-.721-5.668h-5.77a.721.721 0 100 1.443h5.77a1.443 1.443 0 010 2.885H6.492a1.443 1.443 0 110-2.885.721.721 0 100-1.443A2.88 2.88 0 005.77 7.47v1.746c-.445.256-.72.729-.72 1.242v5.77c0 .514.275.987.72 1.243v1.745a2.88 2.88 0 00.722 5.668h11.54a2.88 2.88 0 00.722-5.668v-1.745c.445-.256.72-.73.721-1.242v-.722h21.746a2.164 2.164 0 100-4.328zm-23.91 7.935H7.213v-1.443h10.098v1.443zM6.491 16.23v-5.771h11.542v5.77H6.492zm10.82-8.656v1.442H7.213V7.574h10.098zM19.475 22c0 .797-.646 1.443-1.442 1.443H6.492a1.443 1.443 0 010-2.886h11.54c.797 0 1.443.646 1.443 1.443zm21.746-7.934H19.475v-1.443h21.746a.721.721 0 010 1.443zM3.606 34.262v.721H3.45a2.886 2.886 0 00-2.8 2.186l-.584 2.339a2.164 2.164 0 002.099 2.688H22.36a2.164 2.164 0 002.1-2.688l-.585-2.339a2.885 2.885 0 00-2.8-2.186h-.157v-.72a2.164 2.164 0 00-2.164-2.165H5.77a2.164 2.164 0 00-2.164 2.164zm18.87 3.257l.584 2.339a.721.721 0 01-.7.896H2.164a.722.722 0 01-.7-.896l.584-2.34a1.443 1.443 0 011.401-1.092h17.626c.662 0 1.24.45 1.4 1.093zm-3-3.257v.721H5.048v-.72c0-.4.323-.722.721-.722h12.984c.398 0 .721.323.721.721zm-6.492-4.327V27.77a.721.721 0 00-1.443 0v2.164a.721.721 0 001.443 0zm-4.328.721a.721.721 0 00.645-1.044l-.722-1.443a.722.722 0 10-1.29.645l.72 1.443c.123.245.373.4.647.399zm7.212 0a.721.721 0 00.65-.4l.72-1.442a.722.722 0 10-1.29-.645l-.722 1.443a.721.721 0 00.642 1.044z" fill="#DF5643"/></svg>