<svg width="44" height="44" fill="none" xmlns="http://www.w3.org/2000/svg"><g clip-path="url(#clip0_157_7077)"><path d="M11.733 39.6h20.534v2.933a.733.733 0 01-.734.734H12.467a.733.733 0 01-.734-.734V39.6z" fill="#F38F81"/><path d="M30.066 39.6v2.933a.733.733 0 01-.733.734h2.2a.733.733 0 00.733-.734V39.6h-2.2z" fill="#EC6B59"/><path d="M11.733 42.533H1.467a.733.733 0 01-.734-.733v-1.467c0-.405.329-.733.734-.733h10.266v2.933zm20.534 0h10.266a.733.733 0 00.734-.733v-1.467a.733.733 0 00-.734-.733H32.267v2.933z" fill="#F38F81"/><path d="M42.533 39.6h-2.2c.405 0 .733.328.733.733V41.8a.733.733 0 01-.733.733h2.2a.733.733 0 00.733-.733v-1.467a.733.733 0 00-.733-.733z" fill="#EC6B59"/><path d="M13.2 22h17.6v17.6H13.2V22z" fill="#FFCFC9"/><path d="M28.6 22h2.2v17.6h-2.2V22z" fill="#F9B2A8"/><path d="M33.733 16.134v2.2a.733.733 0 01-.733.733H11a.733.733 0 01-.733-.733v-2.2h23.466z" fill="#FFCFC9"/><path d="M31.533 16.134v2.2a.733.733 0 01-.733.733H33a.733.733 0 00.733-.733v-2.2h-2.2z" fill="#F9B2A8"/><path d="M33.733 16.133H10.267l3.226-3.872c.278-.336.693-.53 1.13-.528h14.102c.39 0 .765.156 1.04.433l3.968 3.967z" fill="#FFCFC9"/><path d="M29.766 12.166a1.47 1.47 0 00-1.042-.433h-2.2c.391 0 .766.156 1.042.433l3.967 3.967h2.2l-3.967-3.967zm-18.033 6.901h20.534V22H11.733v-2.933z" fill="#F9B2A8"/><path d="M30.066 19.067h2.2V22h-2.2v-2.933z" fill="#F38F81"/><path d="M30.8 22h11.733v17.6H30.8V22z" fill="#FFCFC9"/><path d="M40.333 22h2.2v17.6h-2.2V22z" fill="#F9B2A8"/><path d="M42.533 22H32.267v-2.933H33a.733.733 0 00.733-.734V17.6h5.69c.557 0 1.066.316 1.314.814L42.533 22z" fill="#FFCFC9"/><path d="M40.736 18.414a1.467 1.467 0 00-1.312-.814h-2.2c.556 0 1.065.316 1.312.814L40.333 22h2.2l-1.797-3.586z" fill="#F9B2A8"/><path d="M1.467 22H13.2v17.6H1.467V22zm10.266-2.933V22H1.467l1.796-3.586a1.467 1.467 0 011.313-.814h5.69v.733c0 .405.33.734.734.734h.733z" fill="#FFCFC9"/><path d="M19.066 30.067h5.867V39.6h-5.867v-9.533z" fill="#EC6B59"/><path d="M31.724 4.745l-3.124.843-6.417 1.723a.775.775 0 01-.367 0L15.4 5.588l-3.124-.843a.733.733 0 010-1.423l9.54-2.567a.785.785 0 01.367 0l9.54 2.567a.733.733 0 010 1.423z" fill="#F38F81"/><path d="M31.724 3.322L22.184.755a.775.775 0 00-.367 0l-.917.247 8.624 2.32a.733.733 0 010 1.423l-3.124.843-5.5 1.477.917.246c.12.03.246.03.367 0L28.6 5.588l3.124-.843a.733.733 0 000-1.423z" fill="#EC6B59"/><path d="M28.6 5.588v6.145H15.4V5.588l6.417 1.723c.12.03.246.03.367 0L28.6 5.588z" fill="#EC6B59"/><path d="M1.467 42.533h2.2a.733.733 0 01-.734-.733v-1.467c0-.405.329-.733.734-.733V22l1.796-3.586a1.467 1.467 0 011.313-.814h-2.2c-.556 0-1.065.316-1.313.814L1.467 22v17.6a.733.733 0 00-.734.733V41.8c0 .405.329.733.734.733z" fill="#fff"/><path d="M.733 33.733H2.2V39.6H.733v-5.867z" fill="#fff"/><path d="M1.481 37.4a.733.733 0 11-.007-1.467h.007a.733.733 0 010 1.467z" fill="#DF5643"/><path d="M43.267 39.07V22a.719.719 0 00-.085-.325h.008l-1.795-3.59a2.188 2.188 0 00-1.968-1.218h-4.96v-.734a.734.734 0 00-.215-.518l-3.97-3.97a2.17 2.17 0 00-.949-.55V6.15l1.467-.394v1.782c0 .753.375 1.456 1.002 1.873a.733.733 0 10.815-1.22.783.783 0 01-.35-.653V5.297a1.467 1.467 0 00-.352-2.686L22.377.05a1.46 1.46 0 00-.754 0l-9.538 2.56a1.475 1.475 0 000 2.846l2.582.693V11h-.046c-.652 0-1.27.29-1.687.792l-3.227 3.872a.733.733 0 00-.174.47v.733h-4.96a2.188 2.188 0 00-1.967 1.216L.81 21.673h.008A.717.717 0 00.733 22v11.733a.733.733 0 001.467 0v-11h10.267v16.134h-11c-.81 0-1.467.656-1.467 1.467V41.8c0 .81.657 1.467 1.467 1.467h9.737c.26.452.741.731 1.263.733h19.066a1.461 1.461 0 001.263-.733h9.737c.81 0 1.467-.657 1.467-1.467v-1.466a1.461 1.461 0 00-.733-1.263zM11 41.8H1.467v-1.466H11V41.8zm23.467-23.467h4.96a.73.73 0 01.656.406l1.264 2.528H33V19.8c.81 0 1.467-.657 1.467-1.467zm-22-14.305L22 1.467l9.544 2.566h-.01L22.004 6.6l-9.537-2.572zm15.4 2.515V11H16.133V6.543l5.49 1.474c.247.066.507.066.754 0l5.49-1.474zm-13.81 6.188a.733.733 0 01.563-.264h14.105c.195 0 .382.077.52.215l2.718 2.718h-20.13l2.224-2.67zM11 21.267H2.653l1.264-2.528a.73.73 0 01.656-.406h4.96c0 .81.657 1.467 1.467 1.467v1.467zm0-2.934v-1.466h22v1.466H11zm13.933 11h-5.866a.733.733 0 00-.734.734v8.8h-4.4V22.733h16.134v16.134h-4.4v-8.8a.733.733 0 00-.734-.733zM24.2 30.8v8.067h-4.4V30.8h4.4zm-11.733-9.533V19.8h19.066v1.467H12.467zm0 21.266v-2.2h19.066v2.2H12.467zm19.8-3.666h-.734V22.733H41.8v16.134h-9.533zM42.533 41.8H33v-1.466h9.533V41.8z" fill="#DF5643"/><path d="M19.8 24.2a.733.733 0 00-.734.733V26.4a.733.733 0 101.467 0v-1.466a.733.733 0 00-.733-.734zM9.533 27.867a.733.733 0 00.734-.734v-1.466a.733.733 0 00-1.467 0v1.466c0 .405.328.734.733.734zm-4.399 0a.733.733 0 00.733-.734v-1.466a.733.733 0 00-1.467 0v1.466c0 .405.329.734.734.734zM8.8 31.534a.733.733 0 001.466 0v-1.467a.733.733 0 00-1.466 0v1.466zm-4.4 0a.733.733 0 001.467 0v-1.467a.733.733 0 00-1.467 0v1.466zm4.4 4.399a.733.733 0 001.466 0v-1.466a.733.733 0 00-1.466 0v1.466zm-4.4 0a.733.733 0 001.467 0v-1.466a.733.733 0 00-1.467 0v1.466zm34.467-11a.733.733 0 00-.733.734v1.466a.733.733 0 101.466 0v-1.466a.733.733 0 00-.733-.734zm-4.4 0a.733.733 0 00-.734.734v1.466a.733.733 0 101.467 0v-1.466a.733.733 0 00-.733-.734zm4.4 4.401a.733.733 0 00-.733.733v1.466a.733.733 0 101.466 0v-1.466a.733.733 0 00-.733-.733zm-4.4 0a.733.733 0 00-.734.733v1.466a.733.733 0 101.467 0v-1.466a.733.733 0 00-.733-.733zm4.4 4.399a.733.733 0 00-.733.734v1.466a.733.733 0 101.466 0v-1.466a.733.733 0 00-.733-.734zm-4.4 0a.733.733 0 00-.734.734v1.466a.733.733 0 101.467 0v-1.466a.733.733 0 00-.733-.734zM24.2 24.2a.733.733 0 00-.733.733V26.4a.733.733 0 101.466 0v-1.466a.733.733 0 00-.733-.734z" fill="#DF5643"/></g><defs><clipPath id="clip0_157_7077"><path fill="#fff" d="M0 0h44v44H0z"/></clipPath></defs></svg>