<svg width="44" height="44" fill="none" xmlns="http://www.w3.org/2000/svg"><g clip-path="url(#clip0_157_7035)"><path d="M28.6 11.733H15.4c0-3.241 2.956-5.866 6.6-5.866 3.645 0 6.6 2.625 6.6 5.866z" fill="#FFCFC9"/><path d="M19.8 11.733c0-3.24.985-5.866 2.2-5.866 1.215 0 2.2 2.626 2.2 5.866" fill="#FFCFC9"/><path d="M28.6 11.733v4.4h-4.48l-1.68-1.312a.706.706 0 00-.88 0l-1.679 1.312h-4.48v-4.4h13.2z" fill="#F38F81"/><path d="M26.4 11.733h2.2v4.4h-2.2v-4.4z" fill="#EC6B59"/><path d="M27.867 19.067H16.134l3.747-2.934 1.68-1.312a.705.705 0 01.88 0l1.679 1.312 3.747 2.934z" fill="#FFCFC9"/><path d="M38.867 17.6a1.478 1.478 0 01-1.467 1.467h-9.534l-3.747-2.934H37.4a1.471 1.471 0 011.468 1.467z" fill="#FFCFC9"/><path d="M37.4 16.133h-2.2a1.471 1.471 0 011.467 1.467 1.478 1.478 0 01-1.467 1.467h2.2a1.478 1.478 0 001.467-1.467 1.471 1.471 0 00-1.467-1.467z" fill="#F9B2A8"/><path d="M19.881 16.133l-3.747 2.934H6.6A1.471 1.471 0 015.134 17.6 1.478 1.478 0 016.6 16.133h13.281z" fill="#FFCFC9"/><path d="M27.867 19.067v4.253l-3.828-.939a2.908 2.908 0 00-2.67.66l-1.21 1.093-4.025-.25v-4.817h11.733z" fill="#F38F81"/><path d="M37.4 19.067v3.666h-2.2a.733.733 0 00-.733.734v1.466l-6.6-1.613v-4.253h9.534z" fill="#FFCFC9"/><path d="M35.2 19.067h2.2v3.666h-2.2v-3.666z" fill="#F9B2A8"/><path d="M16.133 19.067v4.818l-6.6-.418v-.734A.733.733 0 008.8 22H6.6v-2.933h9.533zm6.6-18.334h2.2c.405 0 .734.329.734.734v1.466a.733.733 0 01-.734.734H22v-2.2c0-.405.328-.734.733-.734z" fill="#FFCFC9"/><path d="M8.8 22H1.467a.733.733 0 00-.734.733v11c0 .405.329.734.734.734H8.8a.733.733 0 00.733-.734v-11A.733.733 0 008.8 22zm33.733.733H35.2a.733.733 0 00-.733.734v10.266c0 .405.328.734.733.734h7.333a.733.733 0 00.734-.734V23.467a.733.733 0 00-.734-.734z" fill="#F38F81"/><path d="M42.533 22.733h-2.2c.405 0 .733.329.733.734v10.266a.733.733 0 01-.733.734h2.2a.733.733 0 00.733-.734V23.467a.733.733 0 00-.733-.734z" fill="#EC6B59"/><path d="M15.913 34.54c.002.388-.151.76-.425 1.034l-.52.52a1.467 1.467 0 01-2.069-2.075l.176-.175.338-.345a1.467 1.467 0 012.5 1.041z" fill="#FFCFC9"/><path d="M17.995 36.608c0 .391-.155.766-.432 1.042l-1.034 1.04-.52.514a1.468 1.468 0 01-2.076-2.075l1.034-1.034.52-.52a1.47 1.47 0 012.508 1.033z" fill="#FFCFC9"/><path d="M20.064 38.69a1.46 1.46 0 01-.426 1.035l-1.041 1.034a1.462 1.462 0 11-2.068-2.068l1.034-1.042a1.467 1.467 0 012.5 1.042z" fill="#FFCFC9"/><path d="M22.146 40.759c0 .39-.155.766-.433 1.041l-.007.008-1.034 1.026a1.468 1.468 0 01-2.075-2.075l1.041-1.034a1.47 1.47 0 012.508 1.034zm12.32-15.826v8.8l-3.028 1.21-8.045-8.572-3.953 3.461a1.87 1.87 0 01-1.24.462 1.879 1.879 0 01-1.254-3.27l3.213-2.89 1.21-1.093a2.908 2.908 0 012.67-.66l3.827.94 6.6 1.612z" fill="#FFCFC9"/><path d="M24.039 22.381a2.894 2.894 0 00-1.768.107c4.276 1.047 2.064.506 9.996 2.445v8.8l-1.429.57.6.64 3.029-1.21v-8.8c-7.955-1.945-5.623-1.374-10.428-2.552z" fill="#F9B2A8"/><path d="M31.548 37.136a1.467 1.467 0 01-2.075 0l.52.514a1.467 1.467 0 11-2.075 2.075l-.52-.52a1.467 1.467 0 11-2.069 2.075l-.52-.514a1.467 1.467 0 01-2.076 2.068l-1.027-1.027a1.468 1.468 0 10-2.067-2.082 1.467 1.467 0 10-2.076-2.075 1.468 1.468 0 00-2.075-2.076 1.467 1.467 0 10-2.075-2.075l-.338.344A8.44 8.44 0 009.533 33v-9.533c7.949.503 5.55.353 10.626.667l-3.212 2.89a1.878 1.878 0 002.494 2.808l3.952-3.461 8.155 8.69a1.467 1.467 0 010 2.075z" fill="#FFCFC9"/><path d="M31.548 35.06l-8.155-8.69-1.207 1.057 7.162 7.634a1.467 1.467 0 11-2.075 2.075l.52.514c.545.549.57 1.427.056 2.006l.069.069a1.468 1.468 0 002.075-2.075l-.52-.514a1.467 1.467 0 102.075-2.075z" fill="#F9B2A8"/><path d="M8.8 22v-2.933a1.467 1.467 0 01-1.034-2.501 1.434 1.434 0 011.034-.433H6.6a1.434 1.434 0 00-1.034.433 1.467 1.467 0 001.034 2.5V22h2.2zM1.467 34.467h2.2a.733.733 0 01-.734-.734v-11c0-.405.329-.733.734-.733h-2.2a.733.733 0 00-.734.733v11c0 .405.329.734.734.734zM15.4 11.733v4.4h2.2v-4.4c0-2.907 2.38-5.312 5.5-5.778a7.43 7.43 0 00-1.1-.088c-3.644 0-6.6 2.625-6.6 5.866z" fill="#fff"/><path d="M0 27.867h1.467v5.866H0v-5.866z" fill="#fff"/><path d="M.748 31.533a.733.733 0 11-.008-1.466h.008a.733.733 0 110 1.466z" fill="#DF5643"/><path d="M42.533 22h-4.4v-2.333c.307-.104.585-.278.813-.508.42-.41.657-.972.654-1.559a2.2 2.2 0 00-2.2-2.2h-8.067v-2.933a.733.733 0 000-1.467h-.047c-.38-3.08-3.12-5.525-6.553-5.833V4.4h2.2c.81 0 1.467-.657 1.467-1.467V1.467C26.4.657 25.743 0 24.933 0h-2.2c-.81 0-1.466.657-1.466 1.467v3.7c-3.432.308-6.172 2.754-6.553 5.833h-.047a.733.733 0 100 1.467V15.4H6.6a2.211 2.211 0 00-2.2 2.2 2.2 2.2 0 001.467 2.065v1.602h-4.4c-.81 0-1.467.656-1.467 1.466v5.134a.733.733 0 001.467 0v-5.134H8.8v11H1.467a.733.733 0 00-1.467 0c0 .81.657 1.467 1.467 1.467H8.8a1.467 1.467 0 001.461-1.417c.57.06 1.133.18 1.678.36a2.18 2.18 0 00.44 2.47c.198.198.433.356.691.466a2.185 2.185 0 002.383 3.232c.098.365.29.7.556.968.384.384.898.61 1.44.633a2.194 2.194 0 003.744 1.442l.514-.513.506.506c.41.419.973.654 1.56.652a2.205 2.205 0 002.114-1.612 2.22 2.22 0 002.023-.587c.271-.267.468-.6.572-.965a2.2 2.2 0 002.622-2.62 2.2 2.2 0 001.456-2.93l1.527-.61c.276.33.683.523 1.113.525h7.333c.81 0 1.467-.657 1.467-1.467V23.467c0-.81-.657-1.467-1.467-1.467zM35.2 22c-.81 0-1.467.657-1.467 1.467v.531L28.6 22.743V19.8h8.067V22H35.2zm-10.751 4.424l.234-.206a.734.734 0 00-.966-1.104l-.82.72h-.005l-3.932 3.44a1.163 1.163 0 01-1.405.074 1.148 1.148 0 01-.489-.873 1.131 1.131 0 01.374-.915l3.213-2.893.015-.014 1.194-1.074a2.179 2.179 0 012.004-.494l9.867 2.423v7.727l-2.103.84-7.181-7.652zm-4.1-9.738c.02-.017.04-.028.058-.046l1.581-1.24 3.752 2.933h-7.487l2.096-1.647zM16.867 19.8h10.266v2.584l-2.912-.713a3.637 3.637 0 00-3.342.826l-.984.885-3.028-.19V19.8zm21.266-2.2a.71.71 0 01-.224.522.701.701 0 01-.509.211h-9.28l-1.875-1.466H37.4c.405 0 .733.328.733.733zM27.8 11h-2.885a11.612 11.612 0 00-.843-4.063A5.343 5.343 0 0127.8 11zM22 6.6c.393 0 1.31 1.54 1.448 4.4h-2.896C20.69 8.14 21.607 6.6 22 6.6zm.733-5.133h2.2v1.466h-2.2V1.467zm-2.805 5.47A11.612 11.612 0 0019.085 11H16.2a5.343 5.343 0 013.728-4.063zm-3.795 5.53h11.734V15.4h-3.495l-1.48-1.159a1.447 1.447 0 00-1.784 0l-1.48 1.159h-3.495v-2.933zm-10.042 4.61a.701.701 0 01.509-.21h11.155l-1.875 1.466H6.6a.733.733 0 01-.733-.733.71.71 0 01.224-.522zm1.242 4.19V19.8H15.4v3.3l-5.133-.322v-.045c0-.81-.657-1.466-1.467-1.466H7.333zm7.637 13.79l-.518.52a.75.75 0 01-1.037 0 .733.733 0 010-1.038l.178-.178.006-.006.334-.334a.734.734 0 111.037 1.037zm-.518 3.63a.733.733 0 010-1.037l1.556-1.555a.733.733 0 111.037 1.037l-1.556 1.555a.75.75 0 01-1.037 0zm2.378 1.037c0-.195.077-.381.215-.518l.259-.26.778-.777a.733.733 0 111.036 1.037l-1.038 1.037a.75.75 0 01-1.036 0 .726.726 0 01-.214-.52zm2.289 2.593a.733.733 0 010-1.037l1.037-1.038a.734.734 0 011.037 1.038l-1.037 1.037a.733.733 0 01-1.037 0zm11.91-5.7a.733.733 0 01-1.026.007l-.013-.012-2.666-2.663a.733.733 0 00-1.037 1.037l2.666 2.666.02.019.501.495a.733.733 0 11-1.038 1.037l-.52-.52-2.563-2.562a.733.733 0 00-1.036 1.037l2.561 2.561c.141.139.22.328.22.525a.71.71 0 01-.22.513.74.74 0 01-1.034-.004l-.52-.514-.364-.366a.733.733 0 00-1.037 1.036l.367.367a.733.733 0 010 1.034.722.722 0 01-.514.22.725.725 0 01-.52-.22l-.601-.602a2.18 2.18 0 00-1.86-3.14 2.13 2.13 0 00-2.073-2.052 2.133 2.133 0 00-2.075-2.075 2.182 2.182 0 00-.634-1.46 2.252 2.252 0 00-3.08-.027 9.074 9.074 0 00-2.666-.645v-8.061l5.85.366h.024l2.228.14-1.913 1.724a2.611 2.611 0 003.467 3.905l3.421-2.994 7.685 8.19a.733.733 0 010 1.037zm4.171-2.884V23.467h7.333v10.266H35.2z" fill="#DF5643"/></g><defs><clipPath id="clip0_157_7035"><path fill="#fff" d="M0 0h44v44H0z"/></clipPath></defs></svg>