<svg width="44" height="44" fill="none" xmlns="http://www.w3.org/2000/svg"><g clip-path="url(#clip0_157_7126)"><path d="M28.6 21.267V15.4a4.4 4.4 0 00-4.4-4.4h-4.4a4.4 4.4 0 00-4.4 4.4v5.867" fill="#F38F81"/><path d="M24.2 11H22a4.4 4.4 0 014.4 4.4v5.867h2.2V15.4a4.4 4.4 0 00-4.4-4.4z" fill="#EC6B59"/><path d="M22 11A5.133 5.133 0 1022 .733 5.133 5.133 0 0022 11z" fill="#FFCFC9"/><path d="M22 .733c-.37.001-.738.042-1.1.121a5.133 5.133 0 010 10.025A5.133 5.133 0 1022 .733z" fill="#F9B2A8"/><path d="M5.867 17.6a5.133 5.133 0 100-10.267 5.133 5.133 0 000 10.267z" fill="#FFCFC9"/><path d="M5.867 7.333c-.37.001-.74.042-1.1.122a5.133 5.133 0 010 10.024 5.133 5.133 0 101.1-10.145z" fill="#F9B2A8"/><path d="M34.51 25.153L32.693 22a1.472 1.472 0 00-1.276-.733H12.584a1.472 1.472 0 00-1.276.733L9.49 25.153l-2.12 3.682-6.439 11.16a1.41 1.41 0 00-.198.734v1.07c.003.81.658 1.465 1.467 1.468h39.6a1.471 1.471 0 001.467-1.467v-1.07a1.41 1.41 0 00-.198-.734L36.63 28.835l-2.12-3.682z" fill="#FFCFC9"/><path d="M43.07 39.996l-6.44-11.161-2.119-3.682L32.694 22a1.472 1.472 0 00-1.276-.733h-2.2a1.472 1.472 0 011.276.733l1.819 3.153 2.119 3.682 6.439 11.16c.131.223.2.476.198.734v1.07a1.471 1.471 0 01-1.467 1.468h2.2a1.471 1.471 0 001.466-1.467v-1.07a1.41 1.41 0 00-.198-.734z" fill="#F9B2A8"/><path d="M3.498 35.545a3.667 3.667 0 01-2.031-3.278V22a4.4 4.4 0 014.4-4.4 4.407 4.407 0 014.4 4.4v1.804l-6.769 11.74z" fill="#FFCFC9"/><path d="M8.977 18.89a4.355 4.355 0 00-4.21-1.143A4.4 4.4 0 018.068 22v1.804L2.05 34.247a3.692 3.692 0 001.449 1.298l6.768-11.741V22a4.358 4.358 0 00-1.29-3.11z" fill="#F9B2A8"/><path d="M8.173 22.847l1.82 3.187a.733.733 0 00.637.366h3.905a1.907 1.907 0 011.928 1.644 1.833 1.833 0 01-1.823 2.023H9.492a2.44 2.44 0 01-2.118-1.23L5.02 24.72a.733.733 0 01.255-.99l1.879-1.143a.733.733 0 011.018.26z" fill="#FFCFC9"/><path d="M14.535 26.4h-2.2a1.907 1.907 0 011.926 1.644 1.834 1.834 0 01-1.822 2.023h2.2a1.833 1.833 0 001.824-2.023 1.907 1.907 0 00-1.928-1.644z" fill="#F9B2A8"/><path d="M38.133 17.6a5.133 5.133 0 100-10.267 5.133 5.133 0 000 10.267z" fill="#FFCFC9"/><path d="M38.134 7.333a5.15 5.15 0 00-1.1.122 5.133 5.133 0 010 10.024 5.133 5.133 0 101.1-10.145z" fill="#F9B2A8"/><path d="M33.733 23.804V22a4.407 4.407 0 014.4-4.4 4.4 4.4 0 014.4 4.4v10.267a3.667 3.667 0 01-2.03 3.278l-6.77-11.74z" fill="#FFCFC9"/><path d="M38.134 17.6a4.402 4.402 0 00-1.1.147 4.4 4.4 0 013.3 4.253v10.267c.002.702-.2 1.39-.582 1.98l.75 1.298a3.667 3.667 0 002.032-3.278V22a4.4 4.4 0 00-4.4-4.4z" fill="#F9B2A8"/><path d="M35.828 22.847l-1.82 3.187a.733.733 0 01-.636.366h-3.906a1.907 1.907 0 00-1.928 1.644 1.833 1.833 0 001.824 2.023h5.148a2.44 2.44 0 002.118-1.23l2.353-4.117a.733.733 0 00-.255-.99l-1.879-1.143a.734.734 0 00-1.019.26z" fill="#FFCFC9"/><path d="M38.725 23.73l-1.879-1.143a.733.733 0 00-1.018.262l-.195.34.892.544a.733.733 0 01.256.99l-2.354 4.118a2.44 2.44 0 01-2.115 1.226h2.2c.875 0 1.683-.468 2.117-1.229l2.354-4.118a.733.733 0 00-.258-.99z" fill="#F9B2A8"/><path d="M43.267 40.73v1.07a1.471 1.471 0 01-1.467 1.467H2.2A1.471 1.471 0 01.734 41.8v-1.07a1.178 1.178 0 01.058-.396h42.416c.042.127.062.261.06.395z" fill="#F38F81"/><path d="M43.209 40.334h-2.2c.042.127.061.261.058.395V41.8a1.471 1.471 0 01-1.466 1.467h2.2a1.471 1.471 0 001.466-1.467v-1.07a1.18 1.18 0 00-.058-.396z" fill="#EC6B59"/><path d="M2.933 40.729v1.07A1.471 1.471 0 004.4 43.267H2.2A1.471 1.471 0 01.733 41.8v-1.071c.006-.257.074-.509.198-.733l2.567-4.452a3.592 3.592 0 01-.8-.542l-.014-.015a3.628 3.628 0 01-1.217-2.72V22a4.404 4.404 0 013.806-4.356c.014 0 .036-.008.051-.008.18-.023.361-.035.543-.036.384.002.766.054 1.136.154A4.38 4.38 0 003.667 22v10.266a3.701 3.701 0 002.031 3.278l-2.567 4.452a1.584 1.584 0 00-.198.733z" fill="#fff"/><path d="M5.296 17.566h.014a5.015 5.015 0 001.657-.088 5.13 5.13 0 010-10.023 5.014 5.014 0 00-1.66-.09H5.29a5.133 5.133 0 000 10.199l.006.002zM.733 26.4H2.2v5.867H.733V26.4z" fill="#fff"/><path d="M1.467 30.066a.733.733 0 100-1.466.733.733 0 000 1.466z" fill="#DF5643"/><path d="M44 12.466a5.867 5.867 0 10-8.597 5.189 5.107 5.107 0 00-.895.714 5.051 5.051 0 00-1.452 2.913 2.205 2.205 0 00-1.64-.749h-2.083V15.4a5.139 5.139 0 00-3.71-4.928 5.867 5.867 0 10-7.246 0 5.139 5.139 0 00-3.71 4.928v5.133h-2.083a2.204 2.204 0 00-1.639.749 5.125 5.125 0 00-2.347-3.626 5.867 5.867 0 10-5.454 0A5.133 5.133 0 00.734 22v4.4a.733.733 0 001.466 0V22a3.671 3.671 0 013.667-3.667A3.673 3.673 0 019.533 22v1.613l-.04.07-1.06-1.856a.733.733 0 00-1.273.727l2.194 3.84c.262.457.748.74 1.275.74h3.905a1.17 1.17 0 011.199.983c.034.311-.068.622-.279.854a1.085 1.085 0 01-.815.362H9.49a1.71 1.71 0 01-1.48-.858l-2.707-4.738a.733.733 0 00-1.273.728l2.493 4.367-3.271 5.674a2.909 2.909 0 01-1.052-2.24.733.733 0 00-1.467 0 4.364 4.364 0 001.78 3.52L.302 39.62c-.2.336-.304.72-.303 1.11v1.07A2.2 2.2 0 002.2 44h39.6a2.2 2.2 0 002.2-2.2v-1.07a2.152 2.152 0 00-.293-1.1l-2.219-3.843a4.366 4.366 0 001.779-3.52V22a5.133 5.133 0 00-2.409-4.343A5.867 5.867 0 0044 12.467zm-42.533 0a4.4 4.4 0 118.8 0 4.4 4.4 0 01-8.8 0zm16.133-6.6a4.4 4.4 0 118.8 0 4.4 4.4 0 01-8.8 0zM16.133 15.4a3.671 3.671 0 013.667-3.667h4.4a3.671 3.671 0 013.667 3.667v5.133H26.4V15.4a.733.733 0 10-1.467 0v5.133h-5.866V15.4a.733.733 0 10-1.467 0v5.133h-1.467V15.4zM9.49 30.8h5.149a2.567 2.567 0 002.553-2.829 2.646 2.646 0 00-2.658-2.305h-3.905l-.293-.513 1.606-2.787a.733.733 0 01.642-.366h18.832a.733.733 0 01.64.366l1.608 2.787-.293.514h-3.905a2.646 2.646 0 00-2.658 2.304A2.567 2.567 0 0029.36 30.8h5.149a3.173 3.173 0 001.996-.714l5.488 9.514H2.006l5.488-9.514c.564.46 1.269.712 1.996.714zM41.8 42.533H2.2a.733.733 0 01-.733-.733v-.733h41.066v.733a.733.733 0 01-.733.733zM41.8 22v10.267c0 .865-.385 1.686-1.052 2.24l-3.275-5.675 2.494-4.367a.733.733 0 00-1.273-.728l-2.707 4.738a1.71 1.71 0 01-1.477.858h-5.15a1.085 1.085 0 01-.815-.362 1.096 1.096 0 01-.279-.854 1.169 1.169 0 011.2-.984h3.904c.526 0 1.012-.282 1.273-.738l2.194-3.84a.733.733 0 00-1.273-.728l-1.058 1.852-.04-.066V22a3.673 3.673 0 013.666-3.667A3.671 3.671 0 0141.8 22zm-3.667-5.134a4.4 4.4 0 110-8.8 4.4 4.4 0 010 8.8z" fill="#DF5643"/></g><defs><clipPath id="clip0_157_7126"><path fill="#fff" d="M0 0h44v44H0z"/></clipPath></defs></svg>