<svg width="21" height="20" fill="none" xmlns="http://www.w3.org/2000/svg"><g clip-path="url(#clip0_157_7627)"><path d="M10.5 0C4.973 0 .5 4.473.5 10s4.473 10 10 10 10-4.473 10-10-4.473-10-10-10zm-.296 14.68c-.566 0-1-.473-1-1.013 0-.553.447-1.014 1-1.014.553 0 1.014.461 1.014 1.014 0 .54-.448 1.013-1.014 1.013zm1.5-5.12c-.723.566-.737.96-.737 1.645 0 .25-.131.54-.776.54-.54 0-.724-.197-.724-.882 0-1.132.5-1.672.882-2 .434-.37 1.171-.777 1.171-1.488 0-.606-.526-.895-1.184-.895-1.343 0-1.053 1.013-1.764 1.013-.356 0-.79-.237-.79-.75 0-.71.816-1.764 2.593-1.764 1.685 0 2.804.935 2.804 2.172 0 1.238-1.119 2.133-1.474 2.409z" fill="#FDFBF7" fill-opacity=".45"/></g><defs><clipPath id="clip0_157_7627"><path fill="#fff" transform="translate(.5)" d="M0 0h20v20H0z"/></clipPath></defs></svg>