<svg width="78" height="78" fill="none" xmlns="http://www.w3.org/2000/svg"><path d="M50.35 11.198c-8.385-.168-17.033 4.634-19.405 15.468-9.655-3.296-18.373 3.204-17.467 13.582a13.752 13.752 0 00-8.603 12.778 13.757 13.757 0 0013.787 13.787H35.41c-.004-4.642-.014-13.956-.014-15.72l-3.928 1.423c-2.849 1.228-4.953-2.36-2.513-4.594l7.431-7.222c1.698-1.697 3.725-1.503 5.228 0l7.431 7.222c2.44 2.234.336 5.822-2.514 4.595l-3.927-1.424v15.72h16.734a13.757 13.757 0 0013.787-13.787 13.749 13.749 0 00-8.14-12.578c9.308-18.147-2.381-29.005-14.635-29.25z" fill="#CEDAD0"/><path d="M50.35 11.196a23.3 23.3 0 00-1.448.028C38.193 28.1 54.744 40.445 64.984 40.445c9.309-18.147-2.38-29.004-14.634-29.249z" fill="#ACC2B5"/></svg>