<svg width="14" height="16" viewBox="0 0 14 16" fill="none" xmlns="http://www.w3.org/2000/svg">
<path d="M13.096 11.1041C13.0154 11.1041 12.938 11.1361 12.881 11.1931C12.824 11.2502 12.792 11.3275 12.792 11.4081V13.8961C12.793 14.067 12.7603 14.2364 12.6956 14.3945C12.631 14.5527 12.5357 14.6965 12.4152 14.8177C12.2948 14.9389 12.1516 15.0351 11.9938 15.1007C11.836 15.1663 11.6669 15.2001 11.496 15.2001H2.13599C1.7944 15.2001 1.46679 15.0644 1.22524 14.8229C0.983694 14.5813 0.847995 14.2537 0.847995 13.9121V6.3521C0.84694 6.18229 0.879476 6.01394 0.943732 5.85675C1.00799 5.69956 1.10269 5.55662 1.2224 5.43617C1.34211 5.31572 1.48445 5.22013 1.64124 5.1549C1.79803 5.08968 1.96618 5.0561 2.13599 5.0561H5.608L5.83999 9.1361H4.24V7.4401C4.24 7.19748 4.14417 6.96468 3.97337 6.79238C3.80256 6.62007 3.5706 6.52221 3.32799 6.5201C3.08464 6.52219 2.85185 6.61979 2.67977 6.79187C2.50768 6.96396 2.41008 7.19675 2.40799 7.4401V12.8001C2.42934 13.0283 2.53507 13.2403 2.7045 13.3946C2.87392 13.5489 3.09483 13.6344 3.32399 13.6344C3.55316 13.6344 3.77407 13.5489 3.94349 13.3946C4.11292 13.2403 4.21865 13.0283 4.24 12.8001V10.9601H5.89599V12.8001C5.89599 13.042 5.99208 13.2739 6.16311 13.445C6.33415 13.616 6.56612 13.7121 6.80799 13.7121C7.04923 13.71 7.27999 13.6133 7.45057 13.4427C7.62115 13.2721 7.71791 13.0413 7.71999 12.8001V10.9601H9.39999V12.8001C9.39999 13.042 9.49608 13.2739 9.66711 13.445C9.83815 13.616 10.0701 13.7121 10.312 13.7121C10.5504 13.7059 10.7771 13.6073 10.9443 13.4372C11.1115 13.267 11.206 13.0386 11.208 12.8001V7.4401C11.2059 7.19675 11.1083 6.96396 10.9362 6.79187C10.7641 6.61979 10.5313 6.52219 10.288 6.5201C10.0502 6.53035 9.82553 6.63154 9.66026 6.80276C9.495 6.97398 9.40182 7.20214 9.39999 7.4401V9.1361H7.79999L8.03999 5.0561H11.52C11.8637 5.0561 12.1934 5.19264 12.4364 5.43569C12.6795 5.67874 12.816 6.00838 12.816 6.3521V8.7521C12.816 8.83273 12.848 8.91005 12.905 8.96706C12.962 9.02407 13.0394 9.0561 13.12 9.0561C13.2006 9.0561 13.2779 9.02407 13.335 8.96706C13.392 8.91005 13.424 8.83273 13.424 8.7521V6.3521C13.4219 5.84778 13.2206 5.36471 12.864 5.0081C12.5074 4.65148 12.0243 4.45021 11.52 4.4481H8.08V3.7201C8.31252 3.45756 8.44062 3.11881 8.43999 2.7681V1.6001C8.43159 1.22522 8.27567 0.868784 8.00606 0.608169C7.73646 0.347553 7.37494 0.203795 6.99999 0.208102H6.59999C6.22781 0.208008 5.87037 0.353636 5.60422 0.613805C5.33807 0.873975 5.18436 1.22801 5.17599 1.6001V2.7681C5.17658 3.11619 5.30465 3.45201 5.536 3.7121L5.57599 4.4481H2.13599C1.88596 4.4481 1.63837 4.49735 1.40737 4.59304C1.17636 4.68872 0.966466 4.82897 0.789663 5.00577C0.612861 5.18257 0.472613 5.39247 0.376928 5.62347C0.281243 5.85448 0.231995 6.10207 0.231995 6.3521V13.8961C0.234111 14.3997 0.435644 14.8819 0.792484 15.2373C1.14932 15.5926 1.63241 15.7921 2.13599 15.7921H11.496C11.9996 15.7921 12.4827 15.5926 12.8395 15.2373C13.1963 14.8819 13.3979 14.3997 13.4 13.8961V11.4081C13.4 11.3275 13.368 11.2502 13.311 11.1931C13.2539 11.1361 13.1766 11.1041 13.096 11.1041ZM6.24799 4.1521C6.51341 4.1887 6.78258 4.1887 7.048 4.1521C7.19165 4.15102 7.33442 4.12947 7.47199 4.0881L7.15999 9.3841C7.15999 9.5921 7.15999 9.8001 7.15999 10.0081C7.15999 10.0561 7.15999 10.1121 7.15999 10.1601C7.14384 10.2264 7.10586 10.2853 7.05218 10.3274C6.99849 10.3694 6.93221 10.3922 6.86399 10.3921C6.82191 10.3934 6.78004 10.3855 6.74134 10.369C6.70264 10.3524 6.66804 10.3275 6.64 10.2961C6.58308 10.2296 6.55438 10.1435 6.55999 10.0561L6.51999 9.3841L6.33599 7.1281L6.19999 4.7361V4.1281H6.27999L6.24799 4.1521ZM3.93599 10.3521C3.85537 10.3521 3.77805 10.3841 3.72103 10.4411C3.66402 10.4982 3.63199 10.5755 3.63199 10.6561V12.8001C3.62997 12.8801 3.59729 12.9562 3.54071 13.0128C3.48413 13.0694 3.40798 13.1021 3.32799 13.1041C3.28636 13.1063 3.24472 13.1 3.20553 13.0858C3.16634 13.0716 3.13039 13.0497 3.09982 13.0213C3.06924 12.993 3.04465 12.9588 3.02751 12.9208C3.01036 12.8828 3.00101 12.8418 2.99999 12.8001V7.4401C2.9981 7.39406 3.00728 7.34823 3.02677 7.30646C3.04626 7.2647 3.07549 7.22823 3.11199 7.2001C3.14016 7.17157 3.17383 7.14906 3.21096 7.13393C3.24809 7.1188 3.28791 7.11138 3.32799 7.1121C3.40862 7.1121 3.48594 7.14413 3.54296 7.20114C3.59997 7.25815 3.63199 7.33548 3.63199 7.4161V9.4161C3.63199 9.49673 3.66402 9.57405 3.72103 9.63106C3.77805 9.68807 3.85537 9.7201 3.93599 9.7201H5.87199V9.9921C5.86415 10.104 5.86415 10.2162 5.87199 10.3281L3.93599 10.3521ZM7.13599 12.8081C7.13397 12.8881 7.10129 12.9642 7.04471 13.0208C6.98813 13.0774 6.91198 13.1101 6.83199 13.1121C6.78942 13.1155 6.74661 13.1099 6.70635 13.0956C6.66609 13.0813 6.62929 13.0588 6.59834 13.0293C6.5674 12.9999 6.543 12.9643 6.52674 12.9248C6.51049 12.8853 6.50274 12.8428 6.50399 12.8001V10.9921C6.70022 11.0643 6.91576 11.0643 7.112 10.9921V12.8001L7.13599 12.8081ZM9.70399 9.7441C9.78462 9.7441 9.86194 9.71207 9.91896 9.65506C9.97597 9.59805 10.008 9.52073 10.008 9.4401V7.4401C10.0017 7.39785 10.0041 7.35474 10.0151 7.31346C10.0261 7.27218 10.0455 7.23359 10.072 7.2001C10.1304 7.14464 10.2075 7.11322 10.288 7.1121C10.3686 7.1121 10.4459 7.14413 10.503 7.20114C10.56 7.25815 10.592 7.33548 10.592 7.4161V12.8001C10.59 12.8801 10.5573 12.9562 10.5007 13.0128C10.4441 13.0694 10.368 13.1021 10.288 13.1041C10.2481 13.1041 10.2085 13.0962 10.1717 13.081C10.1348 13.0657 10.1013 13.0433 10.073 13.0151C10.0448 12.9868 10.0224 12.9533 10.0071 12.9164C9.99186 12.8796 9.98399 12.84 9.98399 12.8001V10.6561C9.98399 10.5755 9.95197 10.4982 9.89496 10.4411C9.83794 10.3841 9.76062 10.3521 9.68 10.3521H7.69599C7.70428 10.2429 7.70428 10.1333 7.69599 10.0241V9.7441H9.70399ZM5.78399 1.6001C5.78399 1.38793 5.86828 1.18445 6.01831 1.03442C6.16834 0.884387 6.37182 0.800102 6.58399 0.800102H6.99999C7.21217 0.800102 7.41565 0.884387 7.56568 1.03442C7.71571 1.18445 7.79999 1.38793 7.79999 1.6001V2.7681C7.8024 2.92876 7.75637 3.08642 7.6679 3.22055C7.57943 3.35468 7.45263 3.45906 7.30399 3.5201C7.13693 3.57706 6.95989 3.59885 6.78399 3.5841C6.61186 3.59581 6.43896 3.5796 6.272 3.5361C6.1079 3.47904 5.96685 3.37011 5.87015 3.22578C5.77345 3.08145 5.72636 2.90956 5.73599 2.7361V1.6001H5.78399Z" fill="#3C84FC"/>
<path d="M11.496 15.952H2.13602C1.59138 15.9499 1.06965 15.7326 0.684533 15.3475C0.299414 14.9624 0.082124 14.4406 0.0800171 13.896V6.352C0.080013 5.80598 0.296371 5.2822 0.681718 4.89535C1.06706 4.50851 1.59 4.29012 2.13602 4.288H5.40002V3.768C5.16958 3.48542 5.04257 3.13262 5.04002 2.768V1.6C5.04002 1.17565 5.20859 0.768687 5.50865 0.468629C5.8087 0.168571 6.21567 0 6.64002 0L7.00002 0C7.42436 0 7.83133 0.168571 8.13139 0.468629C8.43145 0.768687 8.60002 1.17565 8.60002 1.6V2.768C8.6011 3.13707 8.47063 3.49444 8.23202 3.776V4.288H11.512C12.058 4.29012 12.581 4.50851 12.9663 4.89535C13.3517 5.2822 13.568 5.80598 13.568 6.352V8.752C13.5691 8.81255 13.5581 8.87271 13.5356 8.92896C13.5132 8.98521 13.4798 9.03643 13.4373 9.07963C13.3949 9.12282 13.3442 9.15713 13.2884 9.18054C13.2325 9.20395 13.1726 9.21601 13.112 9.216C12.989 9.216 12.8709 9.16711 12.7839 9.0801C12.6969 8.99308 12.648 8.87506 12.648 8.752V6.352C12.6491 6.20215 12.6205 6.05357 12.5639 5.91481C12.5072 5.77606 12.4237 5.64989 12.3181 5.54355C12.2125 5.43721 12.087 5.35282 11.9486 5.29523C11.8103 5.23764 11.6619 5.208 11.512 5.208H8.16802L7.94402 8.976H9.22402V7.44C9.21607 7.29213 9.23979 7.14426 9.2936 7.0063C9.3474 6.86833 9.43005 6.74345 9.53602 6.64C9.74623 6.4658 10.0157 6.37978 10.288 6.4C10.5669 6.39988 10.8348 6.50842 11.0349 6.70258C11.2351 6.89675 11.3517 7.16127 11.36 7.44V12.8C11.3558 13.0823 11.2413 13.3517 11.0409 13.5506C10.8406 13.7494 10.5703 13.8619 10.288 13.864C10.0065 13.8619 9.73706 13.7491 9.53797 13.55C9.33888 13.351 9.22611 13.0815 9.22402 12.8V11.12H7.88002V12.8C7.87383 13.0816 7.75866 13.3499 7.55872 13.5483C7.35879 13.7468 7.08968 13.8599 6.80802 13.864C6.52509 13.864 6.25362 13.7522 6.05281 13.5529C5.852 13.3535 5.73813 13.0829 5.73602 12.8V11.12H4.39202V12.8C4.36886 13.0673 4.24632 13.3162 4.04859 13.4975C3.85086 13.6789 3.59231 13.7795 3.32402 13.7795C3.05572 13.7795 2.79718 13.6789 2.59945 13.4975C2.40172 13.3162 2.27917 13.0673 2.25602 12.8V7.44C2.24319 7.29198 2.26128 7.14291 2.30913 7.00225C2.35698 6.86159 2.43354 6.73241 2.53396 6.62291C2.63439 6.51341 2.75648 6.42598 2.89248 6.36617C3.02849 6.30636 3.17544 6.27548 3.32402 6.27548C3.47259 6.27548 3.61955 6.30636 3.75555 6.36617C3.89156 6.42598 4.01365 6.51341 4.11407 6.62291C4.21449 6.73241 4.29106 6.86159 4.33891 7.00225C4.38675 7.14291 4.40484 7.29198 4.39202 7.44V8.976H5.67202L5.46402 5.208H2.13602C1.834 5.21011 1.54507 5.33157 1.33225 5.54589C1.11944 5.7602 1.00001 6.04997 1.00002 6.352V13.896C1.00211 14.1966 1.12247 14.4844 1.33506 14.697C1.54765 14.9095 1.83538 15.0299 2.13602 15.032H11.496C11.7917 15.0237 12.0725 14.9003 12.2787 14.6882C12.4849 14.476 12.6001 14.1918 12.6 13.896V11.408C12.6 11.2849 12.6489 11.1669 12.7359 11.0799C12.8229 10.9929 12.941 10.944 13.064 10.944C13.1246 10.944 13.1845 10.956 13.2404 10.9795C13.2962 11.0029 13.3469 11.0372 13.3893 11.0804C13.4318 11.1236 13.4652 11.1748 13.4876 11.231C13.5101 11.2873 13.5211 11.3474 13.52 11.408V13.896C13.518 14.4352 13.3051 14.9521 12.9269 15.3364C12.5487 15.7206 12.0351 15.9416 11.496 15.952ZM2.13602 4.6C1.67275 4.60212 1.22917 4.78763 0.902334 5.11597C0.575499 5.4443 0.392012 5.88872 0.392017 6.352V13.896C0.394121 14.3579 0.578539 14.8003 0.905148 15.1269C1.23176 15.4535 1.67413 15.6379 2.13602 15.64H11.496C11.725 15.64 11.9518 15.5949 12.1634 15.5072C12.375 15.4196 12.5673 15.2911 12.7292 15.1292C12.8912 14.9672 13.0196 14.775 13.1073 14.5634C13.1949 14.3518 13.24 14.125 13.24 13.896V11.408C13.2401 11.369 13.2252 11.3315 13.1984 11.3033C13.1716 11.275 13.1349 11.2581 13.096 11.256C13.0563 11.2579 13.0188 11.2746 12.9907 11.3027C12.9626 11.3308 12.946 11.3683 12.944 11.408V13.896C12.9419 14.2794 12.7887 14.6465 12.5176 14.9176C12.2465 15.1887 11.8794 15.3419 11.496 15.344H2.13602C1.75263 15.3419 1.38555 15.1887 1.11445 14.9176C0.843349 14.6465 0.690118 14.2794 0.688017 13.896V6.352C0.688011 5.96723 0.840312 5.59809 1.11164 5.32527C1.38296 5.05245 1.75125 4.89811 2.13602 4.896H5.75202L6.00002 9.296H4.08002V7.44C4.08659 7.33728 4.072 7.23431 4.03716 7.13746C4.00232 7.04061 3.94797 6.95194 3.87748 6.87695C3.80698 6.80195 3.72184 6.74223 3.62733 6.70147C3.53282 6.66071 3.43094 6.63979 3.32802 6.64C3.11584 6.64 2.91236 6.72429 2.76233 6.87431C2.6123 7.02434 2.52802 7.22783 2.52802 7.44V12.8C2.52781 12.9029 2.54873 13.0048 2.58949 13.0993C2.63024 13.1938 2.68997 13.279 2.76496 13.3495C2.83996 13.42 2.92863 13.4743 3.02548 13.5091C3.12233 13.544 3.2253 13.5586 3.32802 13.552C3.52373 13.5406 3.70844 13.4577 3.84706 13.319C3.98569 13.1804 4.06859 12.9957 4.08002 12.8V10.8H6.04802V12.8C6.05963 12.997 6.14366 13.1828 6.28395 13.3216C6.42424 13.4604 6.61089 13.5425 6.80802 13.552C7.01213 13.5524 7.20866 13.4747 7.35739 13.3349C7.50611 13.1951 7.59577 13.0037 7.60802 12.8V10.8H9.57602V12.8C9.57602 12.9994 9.65524 13.1907 9.79627 13.3317C9.9373 13.4728 10.1286 13.552 10.328 13.552C10.5321 13.5524 10.7287 13.4747 10.8774 13.3349C11.0261 13.1951 11.1158 13.0037 11.128 12.8V7.44C11.1275 7.29009 11.0826 7.1437 10.999 7.01923C10.9155 6.89476 10.797 6.79778 10.6585 6.74049C10.52 6.6832 10.3676 6.66815 10.2205 6.69725C10.0735 6.72634 9.93829 6.79827 9.83202 6.904C9.76171 6.97415 9.70633 7.0578 9.66921 7.14991C9.63209 7.24203 9.61399 7.34071 9.61602 7.44V9.296H7.69602L7.95202 4.896H11.576C11.9608 4.89811 12.3291 5.05245 12.6004 5.32527C12.8717 5.59809 13.024 5.96723 13.024 6.352V8.752C13.026 8.79169 13.0426 8.82923 13.0707 8.85733C13.0988 8.88542 13.1363 8.90206 13.176 8.904C13.2149 8.90195 13.2516 8.88503 13.2784 8.85675C13.3052 8.82846 13.3201 8.79096 13.32 8.752V6.352C13.3211 6.1223 13.2767 5.89466 13.1896 5.68214C13.1024 5.46963 12.9741 5.27642 12.812 5.11363C12.65 4.95084 12.4574 4.82166 12.2453 4.73352C12.0332 4.64537 11.8057 4.6 11.576 4.6H7.88802L7.94402 3.656L7.98402 3.616C8.18803 3.38032 8.30147 3.07971 8.30402 2.768V1.6C8.29987 1.43294 8.26284 1.26834 8.19505 1.1156C8.12726 0.962855 8.03004 0.824967 7.90894 0.709812C7.78785 0.594657 7.64524 0.504492 7.48929 0.44447C7.33333 0.384448 7.16707 0.355744 7.00002 0.36H6.60002C6.2689 0.35994 5.95098 0.489812 5.71461 0.721692C5.47825 0.953572 5.3423 1.26894 5.33602 1.6V2.768C5.3448 3.06264 5.45501 3.34521 5.64802 3.568L5.69602 4.52L2.13602 4.6ZM10.288 13.264C10.1671 13.264 10.0511 13.216 9.96558 13.1304C9.88006 13.0449 9.83202 12.9289 9.83202 12.808V10.656C9.82997 10.6171 9.81305 10.5805 9.78477 10.5537C9.75648 10.5269 9.71898 10.5119 9.68002 10.512H7.49602L7.54402 10.32C7.5523 10.2375 7.5523 10.1545 7.54402 10.072V9.592H9.62402C9.6637 9.59006 9.70125 9.57342 9.72935 9.54533C9.75744 9.51723 9.77408 9.47969 9.77602 9.44V7.44C9.7756 7.37901 9.78742 7.31856 9.81078 7.26222C9.83414 7.20588 9.86857 7.1548 9.91202 7.112C9.95302 7.0684 10.0026 7.0338 10.0577 7.01038C10.1128 6.98697 10.1722 6.97526 10.232 6.976C10.3551 6.976 10.4731 7.02489 10.5601 7.1119C10.6471 7.19892 10.696 7.31694 10.696 7.44V12.8C10.6968 12.9139 10.6557 13.0242 10.5805 13.1098C10.5052 13.1954 10.4011 13.2503 10.288 13.264ZM7.88802 10.2H9.69602C9.8177 10.2 9.93453 10.2478 10.0213 10.3331C10.1081 10.4184 10.1579 10.5343 10.16 10.656V12.8C10.16 12.8382 10.1752 12.8748 10.2022 12.9018C10.2292 12.9288 10.2658 12.944 10.304 12.944C10.3402 12.9402 10.3737 12.9236 10.3987 12.8972C10.4236 12.8708 10.4383 12.8363 10.44 12.8V7.44C10.4452 7.4177 10.4453 7.3945 10.4403 7.37215C10.4353 7.3498 10.4253 7.32887 10.4111 7.31092C10.3969 7.29297 10.3788 7.27847 10.3582 7.2685C10.3375 7.25854 10.3149 7.25336 10.292 7.25336C10.2691 7.25336 10.2465 7.25854 10.2259 7.2685C10.2053 7.27847 10.1871 7.29297 10.1729 7.31092C10.1587 7.32887 10.1487 7.3498 10.1437 7.37215C10.1387 7.3945 10.1388 7.4177 10.144 7.44V9.44C10.144 9.56306 10.0951 9.68108 10.0081 9.7681C9.9211 9.85511 9.80308 9.904 9.68002 9.904H7.88802V10.088C7.88671 10.1258 7.88135 10.1633 7.87202 10.2H7.88802ZM6.80802 13.264C6.68496 13.264 6.56694 13.2151 6.47992 13.1281C6.3929 13.0411 6.34402 12.9231 6.34402 12.8V10.768L6.55202 10.848C6.71563 10.9023 6.8924 10.9023 7.05602 10.848L7.26402 10.768V12.8C7.26403 12.9217 7.21625 13.0385 7.13095 13.1253C7.04566 13.2121 6.92969 13.2619 6.80802 13.264ZM6.65602 11.2V12.8C6.65602 12.8456 6.67414 12.8894 6.70639 12.9216C6.73865 12.9539 6.7824 12.972 6.82802 12.972C6.87363 12.972 6.91738 12.9539 6.94964 12.9216C6.9819 12.8894 7.00002 12.8456 7.00002 12.8V11.2H6.65602ZM3.32802 13.264C3.20496 13.264 3.08694 13.2151 2.99992 13.1281C2.9129 13.0411 2.86402 12.9231 2.86402 12.8V7.44C2.86402 7.37907 2.87602 7.31873 2.89934 7.26244C2.92266 7.20614 2.95683 7.15499 2.99992 7.1119C3.04301 7.06882 3.09416 7.03464 3.15045 7.01132C3.20675 6.988 3.26708 6.976 3.32802 6.976C3.38962 6.97494 3.45082 6.98616 3.50804 7.009C3.56526 7.03184 3.61736 7.06585 3.6613 7.10904C3.70524 7.15223 3.74013 7.20374 3.76395 7.26057C3.78777 7.31739 3.80003 7.37839 3.80002 7.44V9.44C3.80196 9.47969 3.81859 9.51723 3.84669 9.54533C3.87479 9.57342 3.91233 9.59006 3.95202 9.592H6.03202V10.064C6.02377 10.1491 6.02377 10.2349 6.03202 10.32L6.08002 10.512H3.93602C3.89705 10.5119 3.85956 10.5269 3.83127 10.5537C3.80298 10.5805 3.78607 10.6171 3.78402 10.656V12.8C3.78404 12.9217 3.73625 13.0385 3.65096 13.1253C3.56566 13.2121 3.44969 13.2619 3.32802 13.264ZM3.32802 7.288C3.28581 7.2886 3.24556 7.30585 3.21602 7.336C3.20379 7.36959 3.20379 7.40641 3.21602 7.44V12.8C3.21599 12.8196 3.21996 12.839 3.22769 12.857C3.23542 12.875 3.24675 12.8913 3.26098 12.9048C3.27521 12.9182 3.29205 12.9287 3.31045 12.9354C3.32886 12.9422 3.34844 12.9451 3.36802 12.944C3.39896 12.9351 3.42601 12.916 3.44487 12.8899C3.46372 12.8638 3.47328 12.8322 3.47202 12.8V10.656C3.47412 10.5343 3.52393 10.4184 3.61072 10.3331C3.69751 10.2478 3.81433 10.2 3.93602 10.2H5.74402C5.74006 10.1601 5.74006 10.1199 5.74402 10.08V9.904H3.93602C3.81296 9.904 3.69494 9.85511 3.60792 9.7681C3.5209 9.68108 3.47202 9.56306 3.47202 9.44V7.44C3.47311 7.42043 3.47019 7.40084 3.46344 7.38243C3.45669 7.36403 3.44626 7.3472 3.43278 7.33296C3.4193 7.31873 3.40305 7.30741 3.38504 7.29967C3.36702 7.29194 3.34762 7.28797 3.32802 7.288ZM6.80802 10.592C6.74451 10.5915 6.68183 10.5777 6.62397 10.5515C6.56611 10.5253 6.51435 10.4873 6.47202 10.44C6.38743 10.3488 6.34154 10.2284 6.34402 10.104L6.00002 3.904L6.20002 4H6.27202C6.47905 4.0283 6.68898 4.0283 6.89602 4H7.02402C7.1538 4.02149 7.28623 4.02149 7.41602 4L7.63202 3.936L7.27202 10.08C7.27596 10.1386 7.27596 10.1974 7.27202 10.256C7.24344 10.3559 7.18219 10.4432 7.09806 10.5042C7.01394 10.5651 6.91181 10.596 6.80802 10.592ZM6.33602 4.328L6.65602 10.088C6.64224 10.135 6.64224 10.185 6.65602 10.232C6.67547 10.2492 6.69883 10.2614 6.72407 10.2676C6.7493 10.2738 6.77566 10.2737 6.80087 10.2674C6.82608 10.2611 6.84937 10.2488 6.86873 10.2314C6.8881 10.2141 6.90296 10.1924 6.91202 10.168C6.91599 10.1254 6.91599 10.0826 6.91202 10.04L7.24802 4.328C7.16554 4.33588 7.0825 4.33588 7.00002 4.328H6.92002C6.72568 4.34396 6.53036 4.34396 6.33602 4.328ZM6.69602 3.744C6.54926 3.75021 6.40267 3.72849 6.26402 3.68C6.07788 3.61111 5.91742 3.48667 5.80438 3.32354C5.69133 3.16041 5.63116 2.96647 5.63202 2.768V1.6C5.63828 1.34745 5.74302 1.10736 5.92388 0.930983C6.10475 0.754607 6.34739 0.655922 6.60002 0.656H7.00002C7.12781 0.651736 7.25518 0.672831 7.37477 0.718067C7.49436 0.763304 7.60381 0.831785 7.69679 0.919557C7.78977 1.00733 7.86443 1.11265 7.91648 1.22944C7.96853 1.34623 7.99692 1.47218 8.00002 1.6V2.768C8.00081 2.95911 7.94501 3.14617 7.83966 3.30562C7.73431 3.46507 7.58412 3.58977 7.40802 3.664C7.24274 3.7288 7.06513 3.75613 6.88802 3.744H6.69602ZM6.60002 0.968C6.43011 0.967886 6.2668 1.0337 6.14444 1.15158C6.02208 1.26946 5.95023 1.43021 5.94402 1.6V2.768C5.94476 2.90343 5.9864 3.03547 6.06349 3.14682C6.14058 3.25817 6.24952 3.34363 6.37602 3.392C6.50316 3.41289 6.63287 3.41289 6.76002 3.392H6.88802C7.02384 3.40267 7.16035 3.38355 7.28802 3.336C7.40876 3.28669 7.51206 3.20252 7.58474 3.09422C7.65741 2.98592 7.69615 2.85842 7.69602 2.728V1.6C7.69191 1.51277 7.67065 1.4272 7.63343 1.3482C7.59621 1.2692 7.54377 1.19832 7.47912 1.13962C7.41447 1.08091 7.33888 1.03553 7.25666 1.00609C7.17445 0.976637 7.08724 0.963695 7.00002 0.968H6.60002Z" fill="#3C84FC"/>
<path d="M13.4 10.04C13.3881 9.97956 13.3582 9.92414 13.3141 9.88111C13.27 9.83808 13.2138 9.80946 13.1531 9.79905C13.0924 9.78864 13.0299 9.79693 12.974 9.82281C12.9181 9.8487 12.8714 9.89097 12.84 9.94401C12.8046 9.99587 12.7856 10.0572 12.7856 10.12C12.7856 10.1828 12.8046 10.2442 12.84 10.296C12.8829 10.3421 12.9381 10.375 12.9991 10.3906C13.0601 10.4062 13.1243 10.4039 13.184 10.384C13.2561 10.3634 13.318 10.3169 13.3579 10.2534C13.3978 10.1899 13.4128 10.1139 13.4 10.04Z" fill="#3C84FC"/>
<path d="M13.112 10.5601C13.0466 10.5597 12.982 10.5452 12.9226 10.5176C12.8633 10.49 12.8105 10.4499 12.768 10.4001C12.7042 10.3274 12.6652 10.2363 12.6565 10.1399C12.6479 10.0436 12.6702 9.94697 12.72 9.86409C12.7666 9.78354 12.837 9.71947 12.9216 9.68077C13.0061 9.64206 13.1007 9.63064 13.192 9.64809C13.2835 9.66362 13.3683 9.70622 13.4353 9.7704C13.5023 9.83457 13.5485 9.91737 13.568 10.0081C13.5869 10.1146 13.5686 10.2245 13.5162 10.3191C13.4638 10.4138 13.3804 10.4876 13.28 10.5281C13.2258 10.5464 13.1692 10.5572 13.112 10.5601ZM13.112 9.95209C13.0861 9.95058 13.0602 9.95657 13.0375 9.96933C13.0148 9.98209 12.9962 10.0011 12.984 10.0241C12.9665 10.0486 12.957 10.078 12.957 10.1081C12.957 10.1382 12.9665 10.1676 12.984 10.1921C13.0089 10.2086 13.0382 10.2174 13.068 10.2174C13.0979 10.2174 13.1271 10.2086 13.152 10.1921C13.1829 10.1797 13.2086 10.157 13.2246 10.1278C13.2407 10.0987 13.2461 10.0648 13.24 10.0321C13.232 10.0043 13.2166 9.97925 13.1955 9.95953C13.1744 9.93981 13.1483 9.92618 13.12 9.92009L13.112 9.95209Z" fill="#3C84FC"/>
</svg>
