<svg width="16" height="16" viewBox="0 0 16 16" fill="none" xmlns="http://www.w3.org/2000/svg">
<g clip-path="url(#clip0)">
<path d="M14.112 15.9521H1.89602C1.41438 15.9521 0.952477 15.7607 0.611911 15.4202C0.271345 15.0796 0.0800171 14.6177 0.0800171 14.1361V3.24007C0.0800171 2.75844 0.271345 2.29653 0.611911 1.95597C0.952477 1.6154 1.41438 1.42407 1.89602 1.42407H14.112C14.5936 1.42407 15.0556 1.6154 15.3961 1.95597C15.7367 2.29653 15.928 2.75844 15.928 3.24007V14.1361C15.928 14.6177 15.7367 15.0796 15.3961 15.4202C15.0556 15.7607 14.5936 15.9521 14.112 15.9521ZM1.89602 2.40007C1.68384 2.40007 1.48036 2.48436 1.33033 2.63439C1.1803 2.78442 1.09602 2.9879 1.09602 3.20007V14.1361C1.09602 14.3482 1.1803 14.5517 1.33033 14.7018C1.48036 14.8518 1.68384 14.9361 1.89602 14.9361H14.112C14.3242 14.9361 14.5277 14.8518 14.6777 14.7018C14.8277 14.5517 14.912 14.3482 14.912 14.1361V3.24007C14.912 3.0279 14.8277 2.82442 14.6777 2.67439C14.5277 2.52436 14.3242 2.44007 14.112 2.44007L1.89602 2.40007Z" fill="#B3BDD0"/>
<path d="M14.112 16H1.896C1.39865 16.0001 0.921177 15.8047 0.566514 15.456C0.21185 15.1074 0.00839417 14.6333 0 14.136L0 3.23999C0.0021057 2.73779 0.202538 2.25676 0.557652 1.90165C0.912766 1.54653 1.3938 1.3461 1.896 1.34399H14.112C14.6128 1.3482 15.0918 1.54956 15.4452 1.90445C15.7986 2.25933 15.9979 2.73917 16 3.23999V14.136C15.9916 14.6319 15.7893 15.1048 15.4363 15.4532C15.0834 15.8017 14.608 15.998 14.112 16ZM1.896 1.50399C1.43558 1.50399 0.994026 1.68689 0.668463 2.01246C0.342899 2.33802 0.16 2.77958 0.16 3.23999V14.136C0.16 14.5964 0.342899 15.038 0.668463 15.3635C0.994026 15.6891 1.43558 15.872 1.896 15.872H14.112C14.5724 15.872 15.014 15.6891 15.3395 15.3635C15.6651 15.038 15.848 14.5964 15.848 14.136V3.23999C15.848 2.77958 15.6651 2.33802 15.3395 2.01246C15.014 1.68689 14.5724 1.50399 14.112 1.50399H1.896ZM14.112 15.04H1.896C1.65689 15.0379 1.42817 14.942 1.25908 14.7729C1.09 14.6038 0.994088 14.3751 0.992 14.136V3.23999C0.994088 3.00089 1.09 2.77216 1.25908 2.60308C1.42817 2.434 1.65689 2.33808 1.896 2.33599H14.112C14.3511 2.33808 14.5798 2.434 14.7489 2.60308C14.918 2.77216 15.0139 3.00089 15.016 3.23999V14.136C15.0139 14.3751 14.918 14.6038 14.7489 14.7729C14.5798 14.942 14.3511 15.0379 14.112 15.04ZM1.896 2.49599C1.69868 2.49599 1.50944 2.57438 1.36991 2.71391C1.23039 2.85343 1.152 3.04267 1.152 3.23999V14.136C1.152 14.3333 1.23039 14.5226 1.36991 14.6621C1.50944 14.8016 1.69868 14.88 1.896 14.88H14.112C14.3093 14.88 14.4986 14.8016 14.6381 14.6621C14.7776 14.5226 14.856 14.3333 14.856 14.136V3.23999C14.856 3.04267 14.7776 2.85343 14.6381 2.71391C14.4986 2.57438 14.3093 2.49599 14.112 2.49599H1.896Z" fill="#B3BDD0"/>
<path d="M15.432 6.40011H0.576016C0.50614 6.40904 0.435164 6.40298 0.367813 6.38234C0.300461 6.3617 0.238279 6.32695 0.185405 6.2804C0.132531 6.23385 0.0901789 6.17657 0.0611674 6.11238C0.032156 6.04819 0.0171509 5.97855 0.0171509 5.90811C0.0171509 5.83767 0.032156 5.76803 0.0611674 5.70384C0.0901789 5.63965 0.132531 5.58237 0.185405 5.53582C0.238279 5.48927 0.300461 5.45452 0.367813 5.43388C0.435164 5.41324 0.50614 5.40718 0.576016 5.41611H15.432C15.5019 5.40718 15.5729 5.41324 15.6402 5.43388C15.7076 5.45452 15.7698 5.48927 15.8226 5.53582C15.8755 5.58237 15.9179 5.63965 15.9469 5.70384C15.9759 5.76803 15.9909 5.83767 15.9909 5.90811C15.9909 5.97855 15.9759 6.04819 15.9469 6.11238C15.9179 6.17657 15.8755 6.23385 15.8226 6.2804C15.7698 6.32695 15.7076 6.3617 15.6402 6.38234C15.5729 6.40298 15.5019 6.40904 15.432 6.40011Z" fill="#B3BDD0"/>
<path d="M15.432 6.45611H0.576015C0.49522 6.46568 0.413313 6.45802 0.335689 6.43365C0.258065 6.40927 0.186486 6.36873 0.125665 6.31469C0.0648444 6.26065 0.0161622 6.19434 -0.0171752 6.12012C-0.0505127 6.0459 -0.067749 5.96547 -0.067749 5.88411C-0.067749 5.80274 -0.0505127 5.72231 -0.0171752 5.64809C0.0161622 5.57387 0.0648444 5.50756 0.125665 5.45352C0.186486 5.39948 0.258065 5.35894 0.335689 5.33456C0.413313 5.31019 0.49522 5.30253 0.576015 5.31211H15.432C15.5128 5.30253 15.5947 5.31019 15.6723 5.33456C15.75 5.35894 15.8215 5.39948 15.8824 5.45352C15.9432 5.50756 15.9919 5.57387 16.0252 5.64809C16.0585 5.72231 16.0758 5.80274 16.0758 5.88411C16.0758 5.96547 16.0585 6.0459 16.0252 6.12012C15.9919 6.19434 15.9432 6.26065 15.8824 6.31469C15.8215 6.36873 15.75 6.40927 15.6723 6.43365C15.5947 6.45802 15.5128 6.46568 15.432 6.45611ZM0.576015 5.46411C0.493177 5.49323 0.421424 5.54735 0.370664 5.619C0.319905 5.69065 0.292642 5.7763 0.292642 5.86411C0.292642 5.95191 0.319905 6.03756 0.370664 6.10921C0.421424 6.18086 0.493177 6.23498 0.576015 6.26411H15.432C15.5149 6.23498 15.5866 6.18086 15.6374 6.10921C15.6881 6.03756 15.7154 5.95191 15.7154 5.86411C15.7154 5.7763 15.6881 5.69065 15.6374 5.619C15.5866 5.54735 15.5149 5.49323 15.432 5.46411H0.576015Z" fill="#B3BDD0"/>
<path d="M3.88003 4.072C3.8149 4.072 3.7504 4.05917 3.69022 4.03425C3.63004 4.00932 3.57537 3.97279 3.52931 3.92673C3.48325 3.88067 3.44672 3.82599 3.42179 3.76582C3.39686 3.70564 3.38403 3.64114 3.38403 3.576V0.600004C3.38403 0.468457 3.43629 0.342297 3.52931 0.249279C3.62233 0.156261 3.74849 0.104004 3.88003 0.104004C4.01158 0.104004 4.13774 0.156261 4.23076 0.249279C4.32378 0.342297 4.37603 0.468457 4.37603 0.600004V3.576C4.37603 3.64114 4.3632 3.70564 4.33828 3.76582C4.31335 3.82599 4.27682 3.88067 4.23076 3.92673C4.1847 3.97279 4.13002 4.00932 4.06984 4.03425C4.00967 4.05917 3.94517 4.072 3.88003 4.072Z" fill="#B3BDD0"/>
<path d="M3.88002 4.14417C3.80475 4.14523 3.73003 4.13132 3.66019 4.10325C3.59036 4.07518 3.52679 4.03351 3.4732 3.98066C3.4196 3.92781 3.37705 3.86484 3.348 3.7954C3.31896 3.72596 3.30401 3.65144 3.30402 3.57617V0.60017C3.30402 0.447405 3.3647 0.300897 3.47272 0.192876C3.58074 0.0848555 3.72725 0.0241699 3.88002 0.0241699C4.03278 0.0241699 4.17929 0.0848555 4.28731 0.192876C4.39533 0.300897 4.45602 0.447405 4.45602 0.60017V3.57617C4.45391 3.72754 4.3923 3.87201 4.28451 3.9783C4.17671 4.0846 4.0314 4.14418 3.88002 4.14417ZM3.88002 0.18417C3.76969 0.18417 3.66387 0.227998 3.58586 0.306014C3.50784 0.384029 3.46402 0.48984 3.46402 0.60017V3.57617C3.46295 3.63147 3.47293 3.68643 3.49336 3.73782C3.51379 3.78922 3.54426 3.83603 3.58299 3.87551C3.62173 3.91499 3.66795 3.94635 3.71895 3.96776C3.76995 3.98916 3.82471 4.00018 3.88002 4.00017C3.9897 3.99812 4.09433 3.95363 4.1719 3.87606C4.24948 3.79848 4.29397 3.69386 4.29602 3.58417V0.60017C4.29397 0.490481 4.24948 0.385858 4.1719 0.308283C4.09433 0.230708 3.9897 0.186221 3.88002 0.18417Z" fill="#B3BDD0"/>
<path d="M12.128 4.072C12.0629 4.072 11.9984 4.05917 11.9382 4.03425C11.878 4.00932 11.8234 3.97279 11.7773 3.92673C11.7312 3.88067 11.6947 3.82599 11.6698 3.76582C11.6448 3.70564 11.632 3.64114 11.632 3.576V0.600004C11.632 0.468457 11.6843 0.342297 11.7773 0.249279C11.8703 0.156261 11.9965 0.104004 12.128 0.104004C12.2596 0.104004 12.3857 0.156261 12.4787 0.249279C12.5718 0.342297 12.624 0.468457 12.624 0.600004V3.576C12.624 3.64114 12.6112 3.70564 12.5863 3.76582C12.5613 3.82599 12.5248 3.88067 12.4787 3.92673C12.4327 3.97279 12.378 4.00932 12.3178 4.03425C12.2577 4.05917 12.1932 4.072 12.128 4.072Z" fill="#B3BDD0"/>
<path d="M12.128 4.14406C11.9774 4.14406 11.8329 4.08422 11.7264 3.9777C11.6199 3.87118 11.56 3.72671 11.56 3.57606V0.600063C11.5505 0.519267 11.5581 0.437361 11.5825 0.359737C11.6069 0.282113 11.6474 0.210534 11.7014 0.149713C11.7555 0.0888923 11.8218 0.0402101 11.896 0.00687262C11.9702 -0.0264649 12.0507 -0.0437012 12.132 -0.0437012C12.2134 -0.0437012 12.2938 -0.0264649 12.368 0.00687262C12.4423 0.0402101 12.5086 0.0888923 12.5626 0.149713C12.6167 0.210534 12.6572 0.282113 12.6816 0.359737C12.7059 0.437361 12.7136 0.519267 12.704 0.600063V3.57606C12.704 3.65133 12.6891 3.72585 12.66 3.79529C12.631 3.86473 12.5884 3.92771 12.5348 3.98056C12.4813 4.0334 12.4177 4.07508 12.3479 4.10314C12.278 4.13121 12.2033 4.14512 12.128 4.14406ZM12.128 0.184063C12.0183 0.186114 11.9137 0.230601 11.8361 0.308176C11.7586 0.385751 11.7141 0.490375 11.712 0.600063V3.57606C11.7141 3.68575 11.7586 3.79038 11.8361 3.86795C11.9137 3.94553 12.0183 3.99001 12.128 3.99206C12.2384 3.99206 12.3442 3.94823 12.4222 3.87022C12.5002 3.7922 12.544 3.68639 12.544 3.57606V0.600063C12.544 0.489733 12.5002 0.383922 12.4222 0.305907C12.3442 0.227892 12.2384 0.184063 12.128 0.184063Z" fill="#B3BDD0"/>
</g>
<defs>
<clipPath id="clip0">
<rect width="16" height="16" fill="white"/>
</clipPath>
</defs>
</svg>
