<svg width="16" height="16" viewBox="0 0 16 16" fill="none" xmlns="http://www.w3.org/2000/svg">
<g clip-path="url(#clip0)">
<path d="M8 0.112061C6.4399 0.112061 4.91484 0.574684 3.61767 1.44143C2.32049 2.30817 1.30947 3.54011 0.712441 4.98145C0.115417 6.4228 -0.0407915 8.00881 0.263569 9.53893C0.567929 11.0691 1.31919 12.4746 2.42234 13.5777C3.5255 14.6809 4.93101 15.4321 6.46113 15.7365C7.99125 16.0409 9.57727 15.8846 11.0186 15.2876C12.46 14.6906 13.6919 13.6796 14.5586 12.3824C15.4254 11.0852 15.888 9.56016 15.888 8.00006C15.8859 5.90868 15.0542 3.90357 13.5753 2.42474C12.0965 0.945913 10.0914 0.114178 8 0.112061ZM8 14.9041C6.63452 14.9041 5.2997 14.4991 4.16435 13.7405C3.02899 12.9819 2.14409 11.9036 1.62154 10.6421C1.09899 9.38057 0.962269 7.9924 1.22866 6.65316C1.49505 5.31391 2.1526 4.08374 3.11814 3.1182C4.08368 2.15265 5.31386 1.49511 6.6531 1.22872C7.99234 0.962327 9.38051 1.09905 10.642 1.6216C11.9036 2.14414 12.9818 3.02905 13.7405 4.1644C14.4991 5.29976 14.904 6.63458 14.904 8.00006C14.9019 9.83047 14.1738 11.5853 12.8795 12.8796C11.5852 14.1739 9.83041 14.9019 8 14.9041Z" fill="#B3BDD0"/>
<path d="M8 16C6.41775 16 4.87104 15.5308 3.55544 14.6518C2.23985 13.7727 1.21447 12.5233 0.608967 11.0615C0.00346627 9.59966 -0.15496 7.99113 0.153721 6.43928C0.462403 4.88743 1.22433 3.46197 2.34315 2.34315C3.46197 1.22433 4.88743 0.462403 6.43928 0.153721C7.99113 -0.15496 9.59966 0.00346627 11.0615 0.608967C12.5233 1.21447 13.7727 2.23985 14.6518 3.55544C15.5308 4.87104 16 6.41775 16 8C16 10.1217 15.1571 12.1566 13.6569 13.6569C12.1566 15.1571 10.1217 16 8 16ZM8 0.192004C6.45573 0.192004 4.94613 0.649935 3.66211 1.50789C2.37809 2.36584 1.37732 3.58529 0.786352 5.01201C0.195383 6.43874 0.0407587 8.00867 0.342032 9.52327C0.643306 11.0379 1.38695 12.4291 2.47891 13.5211C3.57088 14.6131 4.96214 15.3567 6.47674 15.658C7.99134 15.9592 9.56127 15.8046 10.988 15.2137C12.4147 14.6227 13.6342 13.6219 14.4921 12.3379C15.3501 11.0539 15.808 9.54428 15.808 8C15.8059 5.92984 14.9826 3.94508 13.5188 2.48125C12.0549 1.01743 10.0702 0.194121 8 0.192004ZM8 14.984C6.6187 14.984 5.26841 14.5744 4.1199 13.807C2.97139 13.0396 2.07623 11.9488 1.54763 10.6727C1.01903 9.39651 0.88072 7.99226 1.1502 6.63749C1.41968 5.28273 2.08484 4.0383 3.06157 3.06157C4.0383 2.08484 5.28273 1.41968 6.63749 1.1502C7.99226 0.88072 9.39651 1.01903 10.6727 1.54763C11.9488 2.07623 13.0396 2.97139 13.807 4.1199C14.5744 5.26841 14.984 6.6187 14.984 8C14.9819 9.85163 14.2454 11.6268 12.9361 12.9361C11.6268 14.2454 9.85163 14.9819 8 14.984ZM8 1.176C6.65034 1.176 5.33099 1.57622 4.20879 2.32606C3.08659 3.07589 2.21194 4.14165 1.69545 5.38857C1.17896 6.63549 1.04382 8.00757 1.30712 9.3313C1.57043 10.655 2.22035 11.8709 3.17471 12.8253C4.12906 13.7797 5.34498 14.4296 6.66871 14.6929C7.99243 14.9562 9.36451 14.821 10.6114 14.3046C11.8584 13.7881 12.9241 12.9134 13.674 11.7912C14.4238 10.669 14.824 9.34966 14.824 8C14.8219 6.19082 14.1023 4.45634 12.823 3.17705C11.5437 1.89776 9.80919 1.17812 8 1.176Z" fill="#B3BDD0"/>
<path d="M8.49603 3.07202H7.50403V8.20802L10.608 11.304L11.304 10.608L8.49603 7.79202V3.07202Z" fill="#B3BDD0"/>
<path d="M10.608 11.4159L10.552 11.3599L7.43201 8.23994V2.99194H8.56801V7.79194L11.416 10.6399L10.608 11.4159ZM7.58401 8.16794L10.608 11.1999L11.192 10.6159L8.41601 7.83194V3.15194H7.61601L7.58401 8.16794Z" fill="#B3BDD0"/>
</g>
<defs>
<clipPath id="clip0">
<rect width="16" height="16" fill="white"/>
</clipPath>
</defs>
</svg>
