<svg width="25" height="25" viewBox="0 0 25 25" fill="none" xmlns="http://www.w3.org/2000/svg">
<g clip-path="url(#clip0)">
<path d="M23.6186 0.000976562H1.37979C0.61827 0.000976562 0 0.618011 0 1.38076V23.6195C0 24.3823 0.61827 25.0002 1.37979 25.0002H13.3525V15.319H10.0948V11.5456H13.3525V8.76295C13.3525 5.53453 15.3238 3.77563 18.2044 3.77563C19.5854 3.77563 20.7697 3.87895 21.115 3.92382V7.29837L19.117 7.29919C17.5507 7.29919 17.2486 8.04384 17.2486 9.13589V11.5443H20.9854L20.4968 15.3174H17.2482V24.9989H23.6182C24.3805 24.9989 24.9992 24.3802 24.9992 23.6195V1.37994C24.9988 0.618012 24.3809 0.000976562 23.6186 0.000976562Z" fill="#7CADFF"/>
</g>
<defs>
<clipPath id="clip0">
<rect width="25" height="24.9996" fill="white"/>
</clipPath>
</defs>
</svg>
