<svg width="18" height="16" viewBox="0 0 18 16" fill="none" xmlns="http://www.w3.org/2000/svg">
<path fill-rule="evenodd" clip-rule="evenodd" d="M1.31202 15.9519H13.176L13.184 15.9199C13.3078 15.9043 13.4216 15.8441 13.5041 15.7506C13.5866 15.6571 13.6321 15.5366 13.6321 15.4119C13.6321 15.2872 13.5866 15.1667 13.5041 15.0732C13.4216 14.9797 13.3078 14.9195 13.184 14.9039H12.176V10.5199C12.2877 10.9485 12.3468 11.389 12.352 11.8319C12.3515 12.2529 12.4759 12.6646 12.7094 13.015C12.943 13.3653 13.2752 13.6385 13.664 13.7999C13.9871 13.94 14.3359 14.0109 14.688 14.0079C15.3223 14.0264 15.9399 13.8033 16.416 13.3839C16.786 13.0489 17.0459 12.6098 17.1615 12.1243C17.2772 11.6388 17.2432 11.1297 17.064 10.6639C16.9778 10.2068 16.7821 9.77731 16.4937 9.41229C16.2053 9.04727 15.8328 8.75755 15.408 8.5679H15.36C15.0746 8.45467 14.8278 8.26171 14.6491 8.01205C14.4703 7.76238 14.3672 7.46657 14.352 7.1599H14.792C14.9278 7.1599 15.058 7.10595 15.1541 7.00994C15.2501 6.91392 15.304 6.78369 15.304 6.6479V3.6559C15.272 2.4719 13.856 1.3359 13.568 1.1199C13.4605 1.03923 13.3256 1.00409 13.1924 1.02205C13.0591 1.04001 12.9383 1.10964 12.856 1.2159C12.8139 1.26973 12.7831 1.33143 12.7652 1.39738C12.7473 1.46333 12.7429 1.53219 12.752 1.5999C12.7586 1.67048 12.7798 1.73892 12.8142 1.80089C12.8487 1.86286 12.8956 1.91701 12.952 1.9599C13.4 2.2719 14.2 3.0719 14.232 3.6719L12.424 4.6239C12.3413 4.66778 12.2722 4.73349 12.2243 4.81388C12.1925 4.86711 12.1709 4.92543 12.16 4.98594V2.6559C12.1812 2.33524 12.1337 2.01374 12.0206 1.71294C11.9075 1.41214 11.7314 1.13898 11.5042 0.911744C11.2769 0.684506 11.0038 0.508439 10.703 0.395331C10.4022 0.282223 10.0807 0.234684 9.76002 0.255897H4.71202C4.39136 0.234684 4.06987 0.282223 3.76907 0.395331C3.46827 0.508439 3.1951 0.684506 2.96787 0.911744C2.74063 1.13898 2.56456 1.41214 2.45145 1.71294C2.33835 2.01374 2.29081 2.33524 2.31202 2.6559V14.9359H1.31202C1.23996 14.9268 1.16679 14.9332 1.09738 14.9546C1.02797 14.976 0.963908 15.0119 0.909442 15.0599C0.854975 15.108 0.811354 15.1671 0.781476 15.2333C0.751597 15.2995 0.736145 15.3713 0.736145 15.4439C0.736145 15.5165 0.751597 15.5883 0.781476 15.6545C0.811354 15.7207 0.854975 15.7798 0.909442 15.8279C0.963908 15.8759 1.02797 15.9118 1.09738 15.9332C1.16679 15.9546 1.23996 15.961 1.31202 15.9519ZM12.16 6.77007V8.7999C12.688 9.0959 13.28 9.8719 13.352 11.8559C13.3454 12.0831 13.4085 12.3069 13.533 12.4972C13.6574 12.6874 13.8372 12.835 14.048 12.9199C14.3241 13.042 14.6291 13.0835 14.9278 13.0397C15.2265 12.9958 15.5067 12.8683 15.736 12.6719C15.956 12.4642 16.1057 12.1931 16.1645 11.8963C16.2233 11.5995 16.1882 11.2918 16.064 11.0159C16.01 10.6834 15.8723 10.3701 15.6637 10.1056C15.4552 9.84108 15.1827 9.63401 14.872 9.5039C14.4094 9.31583 14.0117 8.99696 13.7275 8.58632C13.4433 8.17569 13.285 7.6911 13.272 7.1919H12.664C12.5282 7.1919 12.398 7.13795 12.302 7.04194C12.2275 6.96744 12.1783 6.87236 12.16 6.77007ZM11.152 14.9359H3.33602V2.6559C3.31289 2.46931 3.33249 2.27991 3.39334 2.10202C3.45419 1.92413 3.55469 1.7624 3.68725 1.62907C3.81981 1.49574 3.98095 1.3943 4.15849 1.33243C4.33602 1.27055 4.52531 1.24985 4.71202 1.2719H9.76802C9.95535 1.24852 10.1455 1.26823 10.3241 1.32951C10.5027 1.3908 10.6649 1.49205 10.7984 1.62554C10.9319 1.75903 11.0331 1.92124 11.0944 2.09981C11.1557 2.27837 11.1754 2.46856 11.152 2.6559V14.9359ZM14.28 6.1359H13.216V5.3599L14.28 4.7999V6.1359Z" fill="#3C84FC"/>
<path fill-rule="evenodd" clip-rule="evenodd" d="M4.24175 6.04629C4.40679 6.21132 4.63062 6.30404 4.86401 6.30404H9.62401C9.85611 6.29993 10.0776 6.20589 10.2417 6.04174C10.4059 5.87759 10.4999 5.65614 10.504 5.42404V2.81604C10.4999 2.58393 10.4059 2.36248 10.2417 2.19833C10.0776 2.03418 9.85611 1.94014 9.62401 1.93604H4.86401C4.63126 1.93812 4.40864 2.03151 4.24406 2.19609C4.07948 2.36067 3.9861 2.58329 3.98401 2.81604V5.42404C3.98401 5.65743 4.07672 5.88126 4.24175 6.04629ZM9.48001 5.28004H5.00001V2.96004H9.48001V5.28004Z" fill="#3C84FC"/>
</svg>
