<svg width="12" height="16" viewBox="0 0 12 16" fill="none" xmlns="http://www.w3.org/2000/svg">
<path d="M5.99996 0.0720215C4.46023 0.074138 2.98417 0.68673 1.89542 1.77548C0.806664 2.86424 0.194072 4.34029 0.191956 5.88002C0.191956 7.35202 1.11996 9.43202 2.94396 12.064C3.78554 13.2688 4.69083 14.4278 5.65596 15.536L5.99996 15.928L6.34396 15.536C7.30908 14.4278 8.21437 13.2688 9.05596 12.064C10.88 9.43202 11.808 7.35202 11.808 5.88002C11.8058 4.34029 11.1932 2.86424 10.1045 1.77548C9.01574 0.68673 7.53968 0.074138 5.99996 0.0720215ZM8.29596 11.528C7.39196 12.824 6.47996 13.928 5.99996 14.512C5.51996 13.944 4.60796 12.832 3.70396 11.536C1.99996 9.09602 1.11996 7.14402 1.11996 5.88002C1.11996 4.58576 1.6341 3.34452 2.54927 2.42934C3.46445 1.51416 4.7057 1.00002 5.99996 1.00002C7.29421 1.00002 8.53546 1.51416 9.45064 2.42934C10.3658 3.34452 10.88 4.58576 10.88 5.88002C10.88 7.14402 9.99996 9.09602 8.29596 11.528Z" fill="#B3BDD0"/>
<path d="M6 16.0479L5.592 15.5839C4.62644 14.476 3.72113 13.317 2.88 12.1119C1.04 9.46394 0.112 7.36794 0.112 5.87994C0.112 4.31835 0.732341 2.82071 1.83655 1.7165C2.94077 0.612284 4.4384 -0.00805664 6 -0.00805664C7.56159 -0.00805664 9.05923 0.612284 10.1634 1.7165C11.2677 2.82071 11.888 4.31835 11.888 5.87994C11.888 7.36794 10.96 9.46394 9.12 12.1119C8.27887 13.317 7.37356 14.476 6.408 15.5839L6 16.0479ZM6 0.151943C4.48149 0.15406 3.02578 0.758223 1.95203 1.83197C0.878279 2.90572 0.274116 4.36143 0.271999 5.87994C0.271999 7.33594 1.2 9.39994 3.016 11.9999C3.85308 13.2013 4.753 14.3575 5.712 15.4639L6 15.7919L6.288 15.4639C7.24989 14.3599 8.14994 13.2035 8.984 11.9999C10.808 9.38394 11.728 7.31994 11.728 5.86394C11.7217 4.34821 11.1156 2.8966 10.0423 1.8263C8.96904 0.756009 7.51575 0.154044 6 0.151943ZM6 14.6399L5.936 14.5679C5.472 14.0159 4.56 12.8959 3.64 11.5759C1.936 9.12794 1.04 7.19994 1.04 5.87994C1.04 4.56447 1.56257 3.30287 2.49275 2.37269C3.42293 1.44251 4.68453 0.919943 6 0.919943C7.31547 0.919943 8.57707 1.44251 9.50725 2.37269C10.4374 3.30287 10.96 4.56447 10.96 5.87994C10.96 7.15994 10.064 9.12794 8.36 11.5679C7.456 12.8799 6.528 14.0079 6.064 14.5679L6 14.6399ZM6 1.07994C4.72696 1.07994 3.50606 1.58566 2.60589 2.48583C1.70571 3.38601 1.2 4.6069 1.2 5.87994C1.2 7.12794 2.088 9.07994 3.776 11.4799C4.648 12.7439 5.52 13.8239 6 14.3999C6.48 13.8239 7.36 12.7359 8.232 11.4879C9.912 9.08794 10.8 7.13594 10.8 5.88794C10.8011 5.25693 10.6777 4.63189 10.4369 4.04861C10.1962 3.46532 9.84277 2.93523 9.39694 2.48866C8.95112 2.04209 8.42161 1.68781 7.83873 1.44609C7.25584 1.20436 6.63102 1.07994 6 1.07994Z" fill="#B3BDD0"/>
<path d="M5.99999 2.22388C5.32086 2.22388 4.657 2.42537 4.09244 2.80283C3.52788 3.1803 3.088 3.71678 2.82847 4.34436C2.56895 4.97194 2.50145 5.66241 2.63453 6.32837C2.7676 6.99433 3.09526 7.60584 3.57604 8.0855C4.05681 8.56515 4.66908 8.89139 5.33535 9.0229C6.00162 9.15442 6.69193 9.08532 7.31891 8.82433C7.94588 8.56334 8.48133 8.12221 8.85748 7.55677C9.23363 6.99133 9.43357 6.327 9.43199 5.64788C9.42987 4.73904 9.06735 3.86815 8.42395 3.22626C7.78056 2.58436 6.90882 2.22387 5.99999 2.22388ZM5.99999 8.15188C5.50474 8.15188 5.02062 8.00502 4.60884 7.72988C4.19706 7.45473 3.87611 7.06366 3.68659 6.60612C3.49707 6.14857 3.44748 5.6451 3.5441 5.15937C3.64072 4.67364 3.8792 4.22747 4.22939 3.87728C4.57958 3.52709 5.02575 3.28861 5.51148 3.19199C5.99721 3.09537 6.50068 3.14496 6.95822 3.33448C7.41577 3.524 7.80684 3.84495 8.08199 4.25673C8.35713 4.66851 8.50399 5.15263 8.50399 5.64788C8.50399 6.31198 8.24017 6.94888 7.77058 7.41847C7.30099 7.88806 6.66409 8.15188 5.99999 8.15188Z" fill="#B3BDD0"/>
<path d="M5.99998 9.15999C5.30537 9.15999 4.62636 8.95401 4.04881 8.56811C3.47127 8.18221 3.02113 7.63371 2.75531 6.99197C2.4895 6.35024 2.41995 5.64409 2.55546 4.96283C2.69097 4.28157 3.02546 3.65579 3.51662 3.16463C4.00778 2.67347 4.63356 2.33898 5.31482 2.20347C5.99608 2.06796 6.70223 2.13751 7.34396 2.40332C7.9857 2.66914 8.5342 3.11928 8.9201 3.69683C9.306 4.27437 9.51198 4.95338 9.51198 5.64799C9.50987 6.57878 9.13917 7.47084 8.481 8.12901C7.82283 8.78718 6.93077 9.15787 5.99998 9.15999ZM5.99998 2.30399C5.33667 2.30399 4.68828 2.50078 4.13688 2.86946C3.58547 3.23814 3.15584 3.76212 2.90238 4.37509C2.64891 4.98805 2.583 5.66244 2.71298 6.31288C2.84297 6.96332 3.16301 7.56057 3.6326 8.02904C4.10218 8.49751 4.7002 8.81612 5.35095 8.94455C6.0017 9.07299 6.67593 9.00546 7.28829 8.75053C7.90064 8.4956 8.4236 8.06472 8.79096 7.51243C9.15832 6.96015 9.35356 6.31129 9.35198 5.64799C9.34986 4.76037 8.99577 3.90983 8.36738 3.28294C7.73898 2.65604 6.8876 2.30399 5.99998 2.30399ZM5.99998 8.23199C5.48891 8.23199 4.98932 8.08044 4.56438 7.7965C4.13945 7.51257 3.80825 7.10901 3.61267 6.63684C3.4171 6.16468 3.36592 5.64512 3.46563 5.14387C3.56533 4.64263 3.81143 4.1822 4.17281 3.82082C4.53419 3.45945 4.99462 3.21334 5.49586 3.11364C5.99711 3.01393 6.51667 3.06511 6.98883 3.26068C7.461 3.45626 7.86456 3.78746 8.1485 4.21239C8.43243 4.63733 8.58398 5.13692 8.58398 5.64799C8.58398 6.33331 8.31174 6.99056 7.82714 7.47515C7.34255 7.95975 6.6853 8.23199 5.99998 8.23199ZM5.99998 3.19999C5.5253 3.19999 5.06129 3.34075 4.66661 3.60446C4.27193 3.86818 3.96432 4.24301 3.78267 4.68155C3.60102 5.12009 3.55349 5.60265 3.64609 6.0682C3.7387 6.53376 3.96728 6.9614 4.30292 7.29704C4.63857 7.63269 5.06621 7.86127 5.53176 7.95387C5.99732 8.04648 6.47988 7.99895 6.91842 7.8173C7.35696 7.63565 7.73179 7.32803 7.9955 6.93336C8.25922 6.53868 8.39998 6.07466 8.39998 5.59999C8.39998 4.96347 8.14712 4.35302 7.69703 3.90293C7.24695 3.45284 6.6365 3.19999 5.99998 3.19999Z" fill="#B3BDD0"/>
</svg>
