<svg width="48" height="48" viewBox="0 0 48 48" fill="none" xmlns="http://www.w3.org/2000/svg">
<path d="M44.7824 20.8791C44.4142 9.30197 35.2363 0 24 0C12.7637 0 3.58575 9.30197 3.21759 20.8791C1.34878 21.254 0.003 22.8939 0 24.8V36C0.002625 38.2081 1.79194 39.9974 4.00003 40C4.00462 43.9746 7.2255 47.1954 11.2 47.2H18.6225C18.906 47.6933 19.431 47.9982 20 48H27.2C28.0833 47.9992 28.7991 47.2833 28.8 46.4V43.2C28.7992 42.3167 28.0833 41.6009 27.2 41.6H20C19.4309 41.6017 18.906 41.9066 18.6225 42.3999H11.2C9.87516 42.3985 8.80144 41.3248 8.80003 39.9999H11.2C12.0833 39.9991 12.7991 39.2832 12.8001 38.3999V22.4C12.7992 21.5167 12.0833 20.8009 11.2 20.7999H8.03859C8.44031 11.9089 15.4349 4.8 24 4.8C32.5651 4.8 39.5597 11.9089 39.9614 20.8H36.8001C35.9167 20.8009 35.201 21.5168 35.2 22.4001V38.4C35.2009 39.2833 35.9167 39.9991 36.8001 40H44.0001C46.2081 39.9974 47.9974 38.2081 48 36V24.8C47.997 22.8939 46.6512 21.254 44.7824 20.8791ZM20 43.2H27.2L27.2011 46.4H20V43.2ZM11.2 44H18.4V45.6H11.2C8.10872 45.5965 5.60353 43.0913 5.60006 40H7.2C7.20263 42.208 8.99194 43.9974 11.2 44ZM11.2 22.4L11.2012 38.4H4.00003C2.67516 38.3986 1.60144 37.3249 1.60003 36V24.8C1.60144 23.4751 2.67516 22.4014 4.00003 22.4H11.2ZM24 3.19997C14.552 3.19997 6.82181 11.0243 6.41944 20.7999H4.8195C5.2245 10.1418 13.6709 1.59994 24 1.59994C34.3291 1.59994 42.7755 10.1418 43.1805 20.7999H41.5806C41.1782 11.0243 33.448 3.19997 24 3.19997ZM46.4 36C46.3986 37.3249 45.3248 38.3986 44 38.4H36.8V22.4H44C45.3248 22.4014 46.3986 23.4751 46.4 24.8V36Z" fill="#3C84FC"/>
<path d="M32.8001 31.1999H31.2001V29.2C31.2001 28.7581 30.8419 28.4 30.4001 28.4C29.9582 28.4 29.6001 28.7581 29.6001 29.2V31.1999H26.2099L30.283 24.4117C30.4301 24.1666 30.4352 23.8617 30.2966 23.6118C30.1579 23.3619 29.8965 23.2049 29.6106 23.2001C29.3249 23.1952 29.0581 23.3432 28.911 23.5883L24.111 31.5882C23.9627 31.8354 23.9589 32.1432 24.1008 32.394C24.2428 32.6449 24.5087 32.8 24.7969 32.8H29.6V35.2C29.6 35.6418 29.9581 35.9999 30.4 35.9999C30.8418 35.9999 31.2 35.6418 31.2 35.2V32.8H32.8C33.2418 32.8 33.6 32.4418 33.6 32C33.6 31.5582 33.2419 31.1999 32.8001 31.1999Z" fill="#3C84FC"/>
<path d="M14.842 34.4849C14.5105 34.6511 14.3367 35.0233 14.422 35.3841C14.5072 35.745 14.8293 35.9999 15.2001 36.0001H22.4001C22.8419 36.0001 23.2 35.6419 23.2 35.2001C23.2 34.7583 22.8419 34.4001 22.4001 34.4001H17.9485C19.9236 32.9165 22.4001 30.4158 22.4001 27.2001C22.4001 25.5365 21.3704 24.0467 19.8143 23.4585C18.2581 22.8703 16.5004 23.3067 15.4 24.5544C15.1077 24.8858 15.1394 25.3914 15.4707 25.6837C15.8021 25.976 16.3077 25.9444 16.6 25.613C17.2601 24.8643 18.3148 24.6022 19.2486 24.9551C20.1823 25.308 20.8001 26.202 20.8 27.2001C20.8001 31.4438 14.9013 34.4548 14.842 34.4849Z" fill="#3C84FC"/>
</svg>
