<svg width="103" height="21" viewBox="0 0 103 21" fill="none" xmlns="http://www.w3.org/2000/svg">
<path d="M0.892 16V0.379999H3.73V13.558H10.484V16H0.892ZM13.0687 14.614C11.8807 13.4993 11.2867 12.0913 11.2867 10.39C11.2867 8.68867 11.8807 7.288 13.0687 6.188C14.2567 5.07333 15.7087 4.516 17.4247 4.516C19.1553 4.516 20.6147 5.07333 21.8027 6.188C23.0053 7.288 23.6067 8.68867 23.6067 10.39C23.6067 12.0913 23.0127 13.4993 21.8247 14.614C20.6367 15.714 19.1773 16.264 17.4467 16.264C15.716 16.264 14.2567 15.714 13.0687 14.614ZM14.1247 10.39C14.1247 11.4167 14.44 12.26 15.0707 12.92C15.716 13.5653 16.508 13.888 17.4467 13.888C18.3853 13.888 19.1773 13.5653 19.8227 12.92C20.468 12.26 20.7907 11.4167 20.7907 10.39C20.7907 9.378 20.4607 8.542 19.8007 7.882C19.1553 7.222 18.3707 6.892 17.4467 6.892C16.5227 6.892 15.738 7.222 15.0927 7.882C14.4473 8.542 14.1247 9.378 14.1247 10.39ZM27.188 17.518C28.1853 18.002 29.2193 18.244 30.29 18.244C31.2287 18.244 31.9913 18.024 32.578 17.584C33.1647 17.144 33.458 16.4547 33.458 15.516V14.812L33.502 14.218H33.458C32.7687 15.2593 31.72 15.78 30.312 15.78C28.7573 15.78 27.5327 15.2373 26.638 14.152C25.7433 13.0667 25.296 11.7173 25.296 10.104C25.296 8.49067 25.7287 7.156 26.594 6.1C27.474 5.044 28.6913 4.516 30.246 4.516C31.7713 4.516 32.886 5.00733 33.59 5.99H33.656C33.6267 5.902 33.612 5.79933 33.612 5.682V4.78H36.252V15.318C36.252 16.242 36.0833 17.056 35.746 17.76C35.4087 18.464 34.954 19.014 34.382 19.41C33.81 19.8207 33.1793 20.1213 32.49 20.312C31.8153 20.5173 31.0967 20.62 30.334 20.62C28.9113 20.62 27.5767 20.2973 26.33 19.652L27.188 17.518ZM28.112 10.016C28.112 11.028 28.354 11.8493 28.838 12.48C29.3367 13.1107 30.0333 13.426 30.928 13.426C31.676 13.426 32.292 13.1693 32.776 12.656C33.2747 12.1427 33.524 11.2993 33.524 10.126C33.524 7.97 32.6 6.892 30.752 6.892C29.916 6.892 29.2633 7.178 28.794 7.75C28.3393 8.30733 28.112 9.06267 28.112 10.016ZM40.3538 14.614C39.1658 13.4993 38.5718 12.0913 38.5718 10.39C38.5718 8.68867 39.1658 7.288 40.3538 6.188C41.5418 5.07333 42.9938 4.516 44.7098 4.516C46.4405 4.516 47.8998 5.07333 49.0878 6.188C50.2905 7.288 50.8918 8.68867 50.8918 10.39C50.8918 12.0913 50.2978 13.4993 49.1098 14.614C47.9218 15.714 46.4625 16.264 44.7318 16.264C43.0011 16.264 41.5418 15.714 40.3538 14.614ZM41.4098 10.39C41.4098 11.4167 41.7251 12.26 42.3558 12.92C43.0011 13.5653 43.7931 13.888 44.7318 13.888C45.6705 13.888 46.4625 13.5653 47.1078 12.92C47.7531 12.26 48.0758 11.4167 48.0758 10.39C48.0758 9.378 47.7458 8.542 47.0858 7.882C46.4405 7.222 45.6558 6.892 44.7318 6.892C43.8078 6.892 43.0231 7.222 42.3778 7.882C41.7325 8.542 41.4098 9.378 41.4098 10.39Z" fill="#FFB228"/>
<path d="M58.8512 12.942V0.467999H60.9632V12.59C60.9632 13.1913 61.0658 13.6093 61.2712 13.844C61.4912 14.064 61.7918 14.174 62.1732 14.174C62.3345 14.174 62.4592 14.1667 62.5472 14.152V16.044C62.2392 16.088 62.0045 16.11 61.8432 16.11C59.8485 16.11 58.8512 15.054 58.8512 12.942ZM63.9904 10.412C63.9904 8.75467 64.5697 7.376 65.7284 6.276C66.8871 5.16133 68.3024 4.604 69.9744 4.604C71.6611 4.604 73.0837 5.154 74.2424 6.254C75.4011 7.354 75.9804 8.74 75.9804 10.412C75.9804 12.084 75.4011 13.4773 74.2424 14.592C73.0837 15.7067 71.6684 16.264 69.9964 16.264C68.3244 16.264 66.9017 15.7067 65.7284 14.592C64.5697 13.4773 63.9904 12.084 63.9904 10.412ZM66.1684 10.412C66.1684 11.5707 66.5351 12.5313 67.2684 13.294C68.0164 14.042 68.9257 14.416 69.9964 14.416C71.0524 14.416 71.9544 14.0347 72.7024 13.272C73.4504 12.5093 73.8244 11.556 73.8244 10.412C73.8244 9.268 73.4504 8.322 72.7024 7.574C71.9544 6.826 71.0524 6.452 69.9964 6.452C68.9257 6.452 68.0164 6.826 67.2684 7.574C66.5351 8.322 66.1684 9.268 66.1684 10.412ZM79.6083 18.024C80.6057 18.5227 81.625 18.772 82.6663 18.772C83.7077 18.772 84.551 18.5153 85.1963 18.002C85.8563 17.5033 86.1863 16.726 86.1863 15.67V14.768L86.2523 14.064H86.2083C85.4897 15.2667 84.375 15.868 82.8643 15.868C81.3537 15.868 80.1437 15.3327 79.2343 14.262C78.3397 13.1913 77.8923 11.8347 77.8923 10.192C77.8923 8.54933 78.325 7.20733 79.1903 6.166C80.0557 5.12467 81.2437 4.604 82.7543 4.604C83.5023 4.604 84.1917 4.74333 84.8223 5.022C85.453 5.30067 85.937 5.726 86.2743 6.298H86.3403C86.2963 6.21 86.2743 6.1 86.2743 5.968V4.868H88.3203V15.538C88.3203 16.418 88.159 17.1953 87.8363 17.87C87.5283 18.5447 87.103 19.0727 86.5603 19.454C86.0177 19.85 85.4237 20.1433 84.7783 20.334C84.133 20.5247 83.4437 20.62 82.7103 20.62C81.405 20.62 80.1363 20.312 78.9043 19.696L79.6083 18.024ZM80.0483 10.126C80.0483 11.2993 80.3343 12.2453 80.9063 12.964C81.493 13.668 82.285 14.02 83.2823 14.02C84.1477 14.02 84.8517 13.7193 85.3943 13.118C85.9517 12.5167 86.2303 11.5413 86.2303 10.192C86.2303 7.69867 85.1817 6.452 83.0843 6.452C82.131 6.452 81.383 6.782 80.8403 7.442C80.3123 8.08733 80.0483 8.982 80.0483 10.126ZM90.8888 10.412C90.8888 8.75467 91.4682 7.376 92.6268 6.276C93.7855 5.16133 95.2008 4.604 96.8728 4.604C98.5595 4.604 99.9822 5.154 101.141 6.254C102.3 7.354 102.879 8.74 102.879 10.412C102.879 12.084 102.3 13.4773 101.141 14.592C99.9822 15.7067 98.5668 16.264 96.8948 16.264C95.2228 16.264 93.8002 15.7067 92.6268 14.592C91.4682 13.4773 90.8888 12.084 90.8888 10.412ZM93.0668 10.412C93.0668 11.5707 93.4335 12.5313 94.1668 13.294C94.9148 14.042 95.8242 14.416 96.8948 14.416C97.9508 14.416 98.8528 14.0347 99.6008 13.272C100.349 12.5093 100.723 11.556 100.723 10.412C100.723 9.268 100.349 8.322 99.6008 7.574C98.8528 6.826 97.9508 6.452 96.8948 6.452C95.8242 6.452 94.9148 6.826 94.1668 7.574C93.4335 8.322 93.0668 9.268 93.0668 10.412Z" fill="#252525"/>
</svg>
