<svg width="46" height="46" viewBox="0 0 46 46" fill="none" xmlns="http://www.w3.org/2000/svg">
<path d="M12.5 17.75H11V19.25H12.5V17.75Z" fill="#3C84FC"/>
<path d="M20 17.75H18.5V19.25H20V17.75Z" fill="#3C84FC"/>
<path d="M44.8565 26.0075L41.9262 25.589C41.7869 25.1792 41.6223 24.7785 41.4335 24.389L43.2065 22.025C43.3148 21.8806 43.3673 21.7019 43.3545 21.5219C43.3417 21.3418 43.2644 21.1724 43.1367 21.0448L39.9545 17.8625C39.8322 17.7411 39.6715 17.6661 39.5 17.6503V10.4308C40.2017 9.86893 40.7682 9.15661 41.1576 8.34643C41.5471 7.53626 41.7495 6.64892 41.75 5.75C41.7568 4.61336 41.4373 3.49863 40.8293 2.53822C40.2214 1.57781 39.3505 0.81209 38.3202 0.332004C38.2059 0.278032 38.0798 0.253822 37.9537 0.261623C37.8275 0.269424 37.7054 0.308983 37.5986 0.376626C37.4918 0.444268 37.4039 0.5378 37.3429 0.648532C37.282 0.759264 37.25 0.883605 37.25 1.01V5.21L35.75 5.71025L34.25 5.21V1.01C34.2494 0.88386 34.2171 0.759888 34.1559 0.64956C34.0948 0.539232 34.0068 0.446113 33.9001 0.37882C33.7934 0.311526 33.6714 0.272232 33.5455 0.264573C33.4196 0.256915 33.2938 0.281139 33.1797 0.335004C32.1499 0.814877 31.2793 1.58014 30.6714 2.53996C30.0635 3.49978 29.7437 4.61387 29.75 5.75C29.7504 6.64892 29.9528 7.53626 30.3423 8.34643C30.7317 9.15661 31.2982 9.86893 32 10.4308V15.5H29.75C29.5695 15.5 29.3951 15.565 29.2587 15.6832C29.1223 15.8014 29.0331 15.9649 29.0075 16.1435L28.5222 19.5403L30.0072 19.7525L30.4002 17H33.5997L33.9927 19.7525C34.0132 19.8951 34.0743 20.0288 34.1687 20.1376C34.2631 20.2464 34.3869 20.3257 34.5252 20.366C35.1503 20.5466 35.7539 20.7948 36.3252 21.1063C36.4516 21.1756 36.5953 21.207 36.7391 21.1967C36.8829 21.1865 37.0207 21.135 37.136 21.0485L39.3567 19.3835L41.6187 21.6455L39.95 23.8663C39.8634 23.9816 39.812 24.1193 39.8017 24.2631C39.7915 24.4069 39.8229 24.5506 39.8922 24.677C40.2036 25.2483 40.4519 25.8519 40.6325 26.477C40.6728 26.6153 40.7521 26.7391 40.8609 26.8335C40.9697 26.9279 41.1034 26.989 41.246 27.0095L43.9985 27.4025V30.602L41.246 30.995C41.1034 31.0155 40.9697 31.0766 40.8609 31.171C40.7521 31.2654 40.6728 31.3892 40.6325 31.5275C40.4519 32.1526 40.2036 32.7562 39.8922 33.3275C39.8229 33.4539 39.7915 33.5976 39.8017 33.7414C39.812 33.8852 39.8634 34.023 39.95 34.1383L41.615 36.359L39.353 38.621L37.1337 36.95C37.0184 36.8635 36.8806 36.812 36.7368 36.8018C36.5931 36.7915 36.4494 36.8229 36.323 36.8923C35.7516 37.2037 35.1481 37.4519 34.523 37.6325C34.3847 37.6728 34.2609 37.7521 34.1665 37.8609C34.072 37.9697 34.0109 38.1034 33.9905 38.246L33.5997 41H30.5V37.8283C30.4994 37.0359 30.3858 36.2477 30.1625 35.4875C31.591 35.9057 33.1171 35.846 34.5085 35.3174C35.9 34.7888 37.0808 33.8202 37.8714 32.559C38.6619 31.2977 39.019 29.8128 38.8882 28.3301C38.7575 26.8473 38.1461 25.4478 37.147 24.3444C36.148 23.241 34.8159 22.494 33.3534 22.217C31.8909 21.9401 30.3779 22.1483 29.0446 22.81C27.7113 23.4718 26.6305 24.5509 25.9667 25.8831C25.3029 27.2154 25.0923 28.7281 25.367 30.191C25.349 30.1835 25.3317 30.1745 25.3137 30.1678L19.25 27.7423V26.5895C20.2522 26.0768 21.1398 25.3659 21.8592 24.5H23.75C24.3467 24.5 24.919 24.263 25.341 23.841C25.7629 23.419 26 22.8467 26 22.25V20.612C26.4371 20.4574 26.8159 20.1716 27.0844 19.7935C27.3529 19.4155 27.498 18.9637 27.5 18.5V16.25C27.498 15.7863 27.3529 15.3345 27.0844 14.9565C26.8159 14.5784 26.4371 14.2926 26 14.138V13.25C26 10.4652 24.8937 7.79452 22.9246 5.82538C20.9555 3.85625 18.2847 2.75 15.5 2.75C12.7152 2.75 10.0445 3.85625 8.07534 5.82538C6.10621 7.79452 4.99997 10.4652 4.99997 13.25V14.138C4.56279 14.2926 4.18403 14.5784 3.91553 14.9565C3.64703 15.3345 3.50189 15.7863 3.49997 16.25V18.5C3.49997 19.0967 3.73702 19.669 4.15898 20.091C4.58093 20.513 5.15323 20.75 5.74997 20.75H7.24997C7.29797 20.75 7.34447 20.7425 7.39172 20.7395C7.62231 21.983 8.13513 23.157 8.8907 24.1712C9.64627 25.1854 10.6245 26.0127 11.75 26.5895V27.7423L5.68622 30.1678C4.15215 30.7757 2.83683 31.8318 1.91173 33.1982C0.986625 34.5647 0.494661 36.1781 0.499966 37.8283V44.75C0.499966 44.9489 0.578984 45.1397 0.719636 45.2803C0.860288 45.421 1.05105 45.5 1.24997 45.5H29.75C29.9489 45.5 30.1396 45.421 30.2803 45.2803C30.4209 45.1397 30.5 44.9489 30.5 44.75V42.5H34.25C34.4304 42.5 34.6049 42.435 34.7413 42.3168C34.8777 42.1986 34.9668 42.0352 34.9925 41.8565L35.411 38.9263C35.8207 38.7869 36.2215 38.6223 36.611 38.4335L38.975 40.2065C39.1194 40.3148 39.298 40.3674 39.4781 40.3545C39.6582 40.3417 39.8276 40.2644 39.9552 40.1368L43.1375 36.9545C43.2651 36.8269 43.3424 36.6575 43.3553 36.4774C43.3681 36.2973 43.3155 36.1187 43.2072 35.9743L41.4342 33.6103C41.623 33.2208 41.7876 32.82 41.927 32.4103L44.8572 31.9918C45.0356 31.966 45.1987 31.8768 45.3168 31.7406C45.4348 31.6044 45.4998 31.4302 45.5 31.25V26.75C45.5 26.5695 45.4349 26.3951 45.3167 26.2587C45.1985 26.1223 45.0351 26.0331 44.8565 26.0075ZM36.6065 19.5665C36.5712 19.5493 36.5315 19.538 36.4962 19.5215V10.25H35V16.1975L34.9925 16.1435C34.9668 15.9649 34.8777 15.8014 34.7413 15.6832C34.6049 15.565 34.4304 15.5 34.25 15.5H33.5V10.055C33.5 9.93403 33.4707 9.81485 33.4147 9.70763C33.3587 9.60041 33.2775 9.50833 33.1782 9.43925C32.6207 9.05111 32.1583 8.54177 31.8257 7.94944C31.4931 7.3571 31.2989 6.69715 31.2577 6.01907C31.2165 5.34099 31.3293 4.66238 31.5878 4.03413C31.8462 3.40588 32.2435 2.8443 32.75 2.3915V5.75C32.7499 5.90748 32.7995 6.06097 32.8915 6.18872C32.9836 6.31647 33.1136 6.41199 33.263 6.46176L35.513 7.21176C35.6668 7.263 35.8331 7.263 35.987 7.21176L38.237 6.46176C38.3864 6.41199 38.5163 6.31647 38.6084 6.18872C38.7005 6.06097 38.75 5.90748 38.75 5.75V2.3915C39.2568 2.84429 39.6545 3.406 39.9132 4.03448C40.1719 4.66295 40.2849 5.34186 40.2437 6.02025C40.2025 6.69863 40.0081 7.35888 39.6753 7.95141C39.3424 8.54395 38.8796 9.0534 38.3217 9.44151C38.2227 9.51036 38.1418 9.60208 38.0858 9.70888C38.0298 9.81568 38.0003 9.93441 38 10.055V18.5248L36.6065 19.5665ZM26.75 29C26.7417 27.8273 27.1236 26.6851 27.8354 25.7532C28.5473 24.8212 29.5488 24.1524 30.6824 23.8518C31.8159 23.5513 33.0172 23.6362 34.0973 24.0931C35.1774 24.55 36.0749 25.3529 36.6487 26.3757C37.2225 27.3985 37.44 28.583 37.267 29.7429C37.0939 30.9028 36.5402 31.9723 35.6929 32.783C34.8456 33.5938 33.7528 34.0999 32.5864 34.2217C31.42 34.3435 30.2462 34.074 29.2497 33.4558C28.7312 32.6252 28.068 31.8944 27.2915 31.298C26.9347 30.5846 26.7492 29.7977 26.75 29ZM23.75 23H22.8395C23.205 22.2882 23.464 21.5266 23.6082 20.7395C23.6555 20.7395 23.702 20.75 23.75 20.75H24.5V22.25C24.5 22.4489 24.4209 22.6397 24.2803 22.7803C24.1396 22.921 23.9489 23 23.75 23ZM22.25 14.75C21.9008 14.7491 21.5566 14.6674 21.2443 14.5113C20.932 14.3551 20.6602 14.1288 20.45 13.85L19.1 12.05C19.0397 11.9696 18.9639 11.9022 18.8771 11.8517C18.7902 11.8012 18.6941 11.7687 18.5945 11.756C18.4948 11.7438 18.3937 11.7515 18.297 11.7786C18.2003 11.8058 18.1099 11.8519 18.0312 11.9143L15.5142 13.925C14.8501 14.4564 14.0255 14.7473 13.175 14.75H8.74997V14C8.74997 12.2098 9.46112 10.4929 10.727 9.22703C11.9929 7.96116 13.7098 7.25001 15.5 7.25001C17.2902 7.25001 19.0071 7.96116 20.2729 9.22703C21.5388 10.4929 22.25 12.2098 22.25 14V14.75ZM26 18.5C26 18.6989 25.9209 18.8897 25.7803 19.0303C25.6396 19.171 25.4489 19.25 25.25 19.25H23.75V15.5H25.25C25.4489 15.5 25.6396 15.579 25.7803 15.7197C25.9209 15.8603 26 16.0511 26 16.25V18.5ZM15.5 4.25C17.8861 4.25259 20.1738 5.20163 21.8611 6.88889C23.5483 8.57616 24.4974 10.8638 24.5 13.25V14H23.75C23.75 11.812 22.8808 9.71355 21.3336 8.16637C19.7864 6.6192 17.688 5.75 15.5 5.75C13.3119 5.75 11.2135 6.6192 9.66634 8.16637C8.11916 9.71355 7.24997 11.812 7.24997 14H6.49997V13.25C6.50255 10.8638 7.45159 8.57616 9.13885 6.88889C10.8261 5.20163 13.1138 4.25259 15.5 4.25ZM5.74997 19.25C5.55105 19.25 5.36029 19.171 5.21964 19.0303C5.07898 18.8897 4.99997 18.6989 4.99997 18.5V16.25C4.99997 16.0511 5.07898 15.8603 5.21964 15.7197C5.36029 15.579 5.55105 15.5 5.74997 15.5H7.24997V19.25H5.74997ZM8.74997 19.25V16.25H13.175C14.3666 16.2484 15.5226 15.8428 16.454 15.0995L18.3672 13.5688L19.25 14.75C19.6003 15.2147 20.0534 15.5919 20.5739 15.8521C21.0944 16.1124 21.6681 16.2486 22.25 16.25V19.25C22.2512 20.5858 21.8537 21.8915 21.1085 23H15.5V24.5H19.733C18.7425 25.3008 17.5455 25.8048 16.2805 25.9535C15.0155 26.1022 13.7342 25.8896 12.585 25.3403C11.4359 24.7909 10.4658 23.9274 9.78705 22.8496C9.10834 21.7717 8.74877 20.5237 8.74997 19.25ZM15.5 27.5C16.2611 27.4981 17.0184 27.3906 17.75 27.1805V28.25C17.75 28.8467 17.5129 29.419 17.091 29.841C16.669 30.263 16.0967 30.5 15.5 30.5C14.9032 30.5 14.3309 30.263 13.909 29.841C13.487 29.419 13.25 28.8467 13.25 28.25V27.1805C13.9816 27.3906 14.7388 27.4981 15.5 27.5ZM29 44H24.5V35.75H23V44H7.99997V35.75H6.49997V44H1.99997V37.8283C1.9956 36.4781 2.39813 35.158 3.15507 34.0399C3.91202 32.9219 4.98825 32.0579 6.24347 31.5605L11.9157 29.2918C12.1372 30.0716 12.607 30.758 13.2538 31.2467C13.9007 31.7354 14.6893 31.9998 15.5 31.9998C16.3107 31.9998 17.0993 31.7354 17.7461 31.2467C18.3929 30.758 18.8627 30.0716 19.0842 29.2918L24.7565 31.5605C26.0117 32.0579 27.0879 32.9219 27.8449 34.0399C28.6018 35.158 29.0043 36.4781 29 37.8283V44Z" fill="#3C84FC"/>
<path d="M32.75 18.5H31.25V20H32.75V18.5Z" fill="#3C84FC"/>
<path d="M32.75 38H31.25V39.5H32.75V38Z" fill="#3C84FC"/>
<path d="M38.8935 34.8338L37.8329 35.8945L38.8935 36.9551L39.9542 35.8945L38.8935 34.8338Z" fill="#3C84FC"/>
<path d="M42.5 28.25H41V29.75H42.5V28.25Z" fill="#3C84FC"/>
<path d="M38.894 21.0455L37.8333 22.1061L38.894 23.1668L39.9546 22.1061L38.894 21.0455Z" fill="#3C84FC"/>
</svg>
