<svg width="17" height="14" viewBox="0 0 17 14" fill="none" xmlns="http://www.w3.org/2000/svg">
<path d="M4.72494 4.00978C4.56928 4.00576 4.41595 4.04823 4.28455 4.13179C4.15315 4.21534 4.04965 4.33617 3.98727 4.47884C3.92489 4.62152 3.90646 4.77955 3.93435 4.93275C3.96224 5.08594 4.03517 5.22735 4.14382 5.33889C4.25248 5.45043 4.39192 5.52704 4.54434 5.55893C4.69675 5.59082 4.85521 5.57654 4.99947 5.51792C5.14373 5.45929 5.26723 5.35899 5.3542 5.22983C5.44116 5.10066 5.48764 4.9485 5.48769 4.79278C5.4895 4.58806 5.41037 4.39091 5.26751 4.24426C5.12465 4.09761 4.92964 4.01334 4.72494 4.00978ZM4.72494 5.04928C4.66321 5.0393 4.60705 5.00767 4.56651 4.96005C4.52597 4.91244 4.50371 4.85194 4.50371 4.78941C4.50371 4.72687 4.52597 4.66638 4.56651 4.61876C4.60705 4.57115 4.66321 4.53951 4.72494 4.52953C4.76258 4.52345 4.80109 4.52561 4.83781 4.53587C4.87452 4.54613 4.90858 4.56424 4.93761 4.58896C4.96664 4.61367 4.98995 4.64439 5.00594 4.679C5.02193 4.71361 5.03021 4.75128 5.03021 4.78941C5.03021 4.82753 5.02193 4.8652 5.00594 4.89981C4.98995 4.93442 4.96664 4.96515 4.93761 4.98986C4.90858 5.01457 4.87452 5.03269 4.83781 5.04295C4.80109 5.05321 4.76258 5.05537 4.72494 5.04928Z" fill="#3C84FC"/>
<path d="M4.7249 5.69061C4.54491 5.69464 4.36782 5.64486 4.21628 5.54765C4.06475 5.45044 3.94567 5.31022 3.8743 5.14494C3.80292 4.97967 3.78249 4.79685 3.81562 4.61989C3.84875 4.44293 3.93393 4.27988 4.06027 4.15162C4.1866 4.02336 4.34834 3.93571 4.52477 3.89991C4.70121 3.8641 4.88432 3.88176 5.05066 3.95062C5.217 4.01949 5.359 4.13643 5.4585 4.28647C5.55799 4.43651 5.61045 4.61283 5.60915 4.79286C5.60745 5.02811 5.51416 5.25344 5.34908 5.42105C5.18399 5.58866 4.9601 5.68535 4.7249 5.69061ZM4.7249 4.13136C4.5914 4.13136 4.46089 4.17095 4.34989 4.24512C4.23888 4.31929 4.15237 4.42471 4.10128 4.54805C4.05019 4.67139 4.03682 4.80711 4.06287 4.93805C4.08891 5.06898 4.1532 5.18926 4.2476 5.28366C4.342 5.37806 4.46227 5.44235 4.59321 5.46839C4.72415 5.49444 4.85987 5.48107 4.98321 5.42998C5.10655 5.37889 5.21197 5.29237 5.28614 5.18137C5.36031 5.07037 5.3999 4.93986 5.3999 4.80636C5.3999 4.62734 5.32878 4.45565 5.20219 4.32906C5.07561 4.20248 4.90392 4.13136 4.7249 4.13136ZM4.7249 5.17086C4.63248 5.15854 4.54768 5.11308 4.48627 5.04293C4.42485 4.97278 4.391 4.88272 4.391 4.78949C4.391 4.69625 4.42485 4.60619 4.48627 4.53604C4.54768 4.46589 4.63248 4.42043 4.7249 4.40811C4.77924 4.40086 4.8345 4.40532 4.88698 4.42116C4.93946 4.43701 4.98795 4.46389 5.02919 4.50001C5.07044 4.53612 5.10349 4.58063 5.12614 4.63055C5.14878 4.68048 5.1605 4.73466 5.1605 4.78949C5.1605 4.84431 5.14878 4.89849 5.12614 4.94842C5.10349 4.99834 5.07044 5.04285 5.02919 5.07896C4.98795 5.11508 4.93946 5.14196 4.88698 5.15781C4.8345 5.17365 4.77924 5.17811 4.7249 5.17086ZM4.7249 4.65111C4.70659 4.65109 4.68846 4.65479 4.67163 4.66199C4.65479 4.66919 4.6396 4.67975 4.62697 4.69301C4.61434 4.70627 4.60454 4.72196 4.59817 4.73912C4.5918 4.75629 4.58898 4.77457 4.5899 4.79286C4.5899 4.82866 4.60412 4.863 4.62944 4.88832C4.65476 4.91364 4.68909 4.92786 4.7249 4.92786C4.74562 4.93246 4.76711 4.93236 4.78778 4.92754C4.80846 4.92273 4.82779 4.91334 4.84434 4.90006C4.8609 4.88677 4.87426 4.86994 4.88345 4.8508C4.89263 4.83167 4.8974 4.81071 4.8974 4.78949C4.8974 4.76826 4.89263 4.7473 4.88345 4.72817C4.87426 4.70903 4.8609 4.6922 4.84434 4.67891C4.82779 4.66563 4.80846 4.65624 4.78778 4.65143C4.76711 4.64661 4.74562 4.64651 4.7249 4.65111Z" fill="#3C84FC"/>
<path d="M16.254 3.7465L13.0275 0.520002C12.9302 0.424633 12.7993 0.371305 12.663 0.371502H11.988C11.8496 0.370257 11.7162 0.423608 11.6168 0.520002L8.60627 3.51025V4.79275H9.53777L9.80102 5.04925L8.34977 6.5005L6.89177 5.04925L7.15502 4.79275H8.10002V3.51025L5.09627 0.520002C4.99686 0.423608 4.86348 0.370257 4.72502 0.371502H4.05002C3.97915 0.368693 3.90845 0.380418 3.84229 0.405957C3.77612 0.431496 3.71588 0.470307 3.66527 0.520002L0.438771 3.7465C0.389207 3.79472 0.349904 3.85247 0.323225 3.91627C0.296545 3.98007 0.28304 4.0486 0.283521 4.11775V4.79275C0.283171 4.86088 0.296763 4.92837 0.323462 4.99105C0.350161 5.05374 0.389402 5.11029 0.438771 5.15725L3.42902 8.1475H4.72502V7.23625L4.96802 7L6.41927 8.45125L5.40002 9.47725H5.22452C4.81333 9.47725 4.41138 9.59918 4.06949 9.82763C3.7276 10.0561 3.46113 10.3808 3.30378 10.7607C3.14642 11.1405 3.10525 11.5586 3.18547 11.9618C3.26569 12.3651 3.46369 12.7356 3.75445 13.0263C4.0452 13.3171 4.41564 13.5151 4.81893 13.5953C5.22221 13.6755 5.64023 13.6343 6.02012 13.477C6.40001 13.3196 6.7247 13.0532 6.95315 12.7113C7.18159 12.3694 7.30352 11.9674 7.30352 11.5562C7.30688 11.5091 7.30688 11.4617 7.30352 11.4145L8.34977 10.375L9.39602 11.4212C9.39266 11.4684 9.39266 11.5158 9.39602 11.563C9.39869 11.9736 9.52288 12.3742 9.75294 12.7143C9.983 13.0544 10.3086 13.3188 10.6887 13.4741C11.0688 13.6294 11.4864 13.6686 11.8888 13.5869C12.2912 13.5052 12.6604 13.3061 12.9498 13.0148C13.2392 12.7235 13.4359 12.3531 13.515 11.9502C13.5941 11.5472 13.5522 11.1299 13.3944 10.7508C13.2367 10.3717 12.9702 10.0478 12.6286 9.81996C12.287 9.59211 11.8856 9.47051 11.475 9.4705H11.3265L10.2803 8.42425L11.7248 7L11.988 7.2565V8.188H13.2638L16.254 5.1775C16.3034 5.13055 16.3426 5.07399 16.3693 5.0113C16.396 4.94862 16.4096 4.88113 16.4093 4.813V4.138C16.4097 4.06885 16.3962 4.00032 16.3696 3.93652C16.3429 3.87272 16.3036 3.81497 16.254 3.76675V3.7465ZM12.663 0.925002L15.8895 4.1515V4.8265L15.822 4.88725L11.9003 0.925002L11.9678 0.864252L12.663 0.925002ZM15.4575 5.245L15.0458 5.65L11.1173 1.735L11.529 1.32325L15.4575 5.245ZM10.1655 5.4205L10.5773 5.83225L9.12602 7.2835L8.71427 6.87175L10.1655 5.4205ZM5.57552 1.735L1.64702 5.65L1.23527 5.245L5.16377 1.32325L5.57552 1.735ZM0.803271 4.11775L4.05002 0.925002H4.72502H4.79252L0.870771 4.87375L0.803271 4.813V4.11775ZM4.17827 7.02025V7.675H3.64502L2.02502 6.028L5.94002 2.0995L7.56677 3.72625V4.3H6.93902L4.17827 7.02025ZM6.77702 8.7955L7.18877 9.20725L6.51377 9.88225C6.35244 9.76 6.17534 9.66009 5.98727 9.58525L6.77702 8.7955ZM5.22452 13.1087C4.91613 13.1087 4.61467 13.0173 4.35825 12.846C4.10183 12.6746 3.90198 12.4311 3.78396 12.1462C3.66595 11.8613 3.63507 11.5478 3.69523 11.2453C3.7554 10.9428 3.9039 10.665 4.12196 10.4469C4.34003 10.2289 4.61786 10.0804 4.92033 10.0202C5.22279 9.96005 5.5363 9.99092 5.82122 10.1089C6.10613 10.227 6.34966 10.4268 6.52099 10.6832C6.69232 10.9396 6.78377 11.2411 6.78377 11.5495C6.78377 11.7543 6.74344 11.957 6.66508 12.1462C6.58672 12.3354 6.47187 12.5073 6.32708 12.6521C6.18229 12.7968 6.0104 12.9117 5.82122 12.9901C5.63204 13.0684 5.42928 13.1087 5.22452 13.1087ZM7.16852 10.807C7.097 10.6159 6.99436 10.438 6.86477 10.2805L7.53977 9.6055L7.95152 10.0173L7.16852 10.807ZM13.0275 11.5495C13.0275 11.8582 12.9359 12.1599 12.7643 12.4165C12.5926 12.673 12.3487 12.8729 12.0634 12.9907C11.7781 13.1085 11.4642 13.139 11.1616 13.0783C10.8589 13.0176 10.5811 12.8684 10.3633 12.6496C10.1455 12.4309 9.99756 12.1524 9.93816 11.8495C9.87876 11.5466 9.91061 11.2329 10.0297 10.9481C10.1487 10.6633 10.3496 10.4203 10.6069 10.2497C10.8642 10.0792 11.1663 9.98891 11.475 9.99025C11.8874 9.99204 12.2823 10.1571 12.5732 10.4493C12.8642 10.7415 13.0275 11.1371 13.0275 11.5495ZM10.1925 9.90925L8.26877 7.9855L7.90427 8.35675L9.82802 10.2805C9.69843 10.438 9.59579 10.6159 9.52427 10.807L5.33252 6.6085L5.74427 6.19675L7.64102 8.0935L8.01227 7.729L6.11552 5.83225L6.52727 5.4205L10.719 9.61225C10.5309 9.68709 10.3538 9.787 10.1925 9.90925ZM9.90902 8.05975L9.49727 7.675L10.9485 6.22375L11.3603 6.6355L9.90902 8.05975ZM13.0478 7.675H12.5078V7L9.75377 4.3H9.12602V3.76L10.7528 2.13325L14.6745 6.06175L13.0478 7.675Z" fill="#3C84FC"/>
<path d="M11.475 13.7501C10.8914 13.7501 10.3317 13.5183 9.919 13.1056C9.50633 12.6929 9.27449 12.1332 9.27449 11.5496V11.4551L8.35649 10.5303L7.42499 11.4551V11.5496C7.42499 11.9848 7.29593 12.4103 7.05414 12.7721C6.81234 13.134 6.46867 13.416 6.06658 13.5826C5.66449 13.7491 5.22205 13.7927 4.79519 13.7078C4.36834 13.6229 3.97624 13.4133 3.6685 13.1056C3.36075 12.7978 3.15118 12.4057 3.06627 11.9789C2.98136 11.552 3.02494 11.1096 3.19149 10.7075C3.35804 10.3054 3.64008 9.96173 4.00196 9.71994C4.36383 9.47815 4.78927 9.34909 5.22449 9.34909H5.32574L6.25049 8.42434L4.96799 7.14184L4.82624 7.28359V8.28259H3.37499V8.24884L0.350987 5.26534C0.233545 5.1436 0.166094 4.9822 0.161987 4.81309V4.13809C0.166094 3.96898 0.233545 3.80758 0.350987 3.68584L3.57749 0.432341C3.70537 0.312571 3.8748 0.247216 4.04999 0.250091H4.72499C4.89552 0.25068 5.0595 0.315792 5.18399 0.432341L8.20799 3.46309V4.90759H7.20224L7.06724 5.04934L8.34974 6.32509L9.62549 5.04259L9.49049 4.90084H8.48474V3.46309L11.5087 0.432341C11.6332 0.315792 11.7972 0.25068 11.9677 0.250091H12.6427C12.8133 0.25068 12.9773 0.315792 13.1017 0.432341L16.3282 3.66559C16.4457 3.78733 16.5131 3.94873 16.5172 4.11784V4.79284C16.5131 4.96195 16.4457 5.12335 16.3282 5.24509L13.3042 8.26909H11.8665V7.29034L11.7247 7.14859L10.449 8.43109L11.367 9.35584H11.475C11.7738 9.33927 12.0728 9.38382 12.3537 9.48675C12.6347 9.58968 12.8918 9.74883 13.1091 9.95448C13.3265 10.1601 13.4996 10.408 13.618 10.6828C13.7363 10.9576 13.7973 11.2537 13.7973 11.553C13.7973 11.8522 13.7363 12.1483 13.618 12.4231C13.4996 12.698 13.3265 12.9458 13.1091 13.1514C12.8918 13.3571 12.6347 13.5163 12.3537 13.6192C12.0728 13.7221 11.7738 13.7667 11.475 13.7501ZM8.35649 10.1861L9.52424 11.3606V11.4146C9.52135 11.4595 9.52135 11.5046 9.52424 11.5496C9.52424 11.9367 9.63904 12.3152 9.85414 12.6371C10.0692 12.959 10.3749 13.2099 10.7326 13.3581C11.0903 13.5062 11.4839 13.545 11.8636 13.4695C12.2433 13.3939 12.5921 13.2075 12.8659 12.9338C13.1397 12.66 13.3261 12.3112 13.4016 11.9315C13.4772 11.5518 13.4384 11.1582 13.2902 10.8005C13.1421 10.4428 12.8912 10.1371 12.5693 9.92199C12.2474 9.70689 11.8689 9.59209 11.4817 9.59209H11.3062H11.2522L10.125 8.43109L11.745 6.80434L12.1297 7.18909V8.04634H13.2367L16.2 5.09659C16.2732 5.02033 16.3143 4.91882 16.3147 4.81309V4.13809C16.318 4.08224 16.3095 4.02633 16.2897 3.97399C16.27 3.92165 16.2394 3.87407 16.2 3.83434L12.9397 0.607841C12.865 0.531533 12.7631 0.487863 12.6562 0.486341H11.9812C11.8744 0.487863 11.7725 0.531533 11.6977 0.607841L8.72774 3.56434V4.67134H9.59174L9.96974 5.04934L8.34974 6.67609L6.74999 5.04934L7.12799 4.67134H7.96499V3.56434L5.00849 0.607841C4.93371 0.531533 4.83181 0.487863 4.72499 0.486341H4.04999C3.94316 0.487863 3.84126 0.531533 3.76649 0.607841L0.519737 3.83434C0.482872 3.8717 0.453756 3.91598 0.434063 3.96464C0.41437 4.01329 0.404489 4.06536 0.404987 4.11784V4.79284C0.40542 4.89857 0.446508 5.00008 0.519737 5.07634L3.47624 8.02609H4.58324V7.18909L4.96799 6.80434L6.58799 8.43109L5.39999 9.60559H5.22449C4.83542 9.60425 4.45473 9.71849 4.13068 9.93381C3.80662 10.1491 3.55382 10.4558 3.40431 10.815C3.25481 11.1742 3.21534 11.5697 3.29091 11.9514C3.36649 12.333 3.5537 12.6837 3.82881 12.9588C4.10393 13.2339 4.45454 13.4211 4.8362 13.4967C5.21785 13.5722 5.61335 13.5328 5.97255 13.3833C6.33174 13.2338 6.63845 12.981 6.85377 12.6569C7.06909 12.3328 7.18332 11.9522 7.18199 11.5631V11.3943L7.22249 11.3336L8.35649 10.1861ZM11.475 13.2303C11.1426 13.2303 10.8176 13.1318 10.5412 12.9471C10.2648 12.7624 10.0494 12.4999 9.92218 12.1928C9.79496 11.8857 9.76168 11.5477 9.82653 11.2217C9.89139 10.8957 10.0515 10.5962 10.2865 10.3611C10.5216 10.1261 10.8211 9.96599 11.1471 9.90113C11.4731 9.83628 11.8111 9.86957 12.1182 9.99678C12.4253 10.124 12.6878 10.3394 12.8725 10.6158C13.0572 10.8922 13.1557 11.2172 13.1557 11.5496C13.1566 11.7706 13.1138 11.9895 13.0296 12.1938C12.9455 12.3982 12.8217 12.5838 12.6654 12.74C12.5092 12.8963 12.3236 13.0201 12.1192 13.1042C11.9149 13.1884 11.696 13.2312 11.475 13.2303ZM11.475 10.1118C11.1887 10.1105 10.9085 10.1943 10.6699 10.3525C10.4314 10.5107 10.2452 10.7362 10.135 11.0004C10.0248 11.2646 9.99566 11.5556 10.0512 11.8365C10.1067 12.1173 10.2444 12.3753 10.4468 12.5777C10.6493 12.7802 10.9073 12.9179 11.1881 12.9734C11.4689 13.0289 11.7599 12.9997 12.0241 12.8896C12.2884 12.7794 12.5139 12.5932 12.6721 12.3546C12.8303 12.1161 12.9141 11.8359 12.9127 11.5496C12.9127 11.1683 12.7613 10.8026 12.4916 10.5329C12.222 10.2633 11.8563 10.1118 11.475 10.1118ZM5.22449 13.2303C4.89207 13.2303 4.56711 13.1318 4.29071 12.9471C4.01432 12.7624 3.79889 12.4999 3.67168 12.1928C3.54447 11.8857 3.51118 11.5477 3.57603 11.2217C3.64088 10.8957 3.80096 10.5962 4.03602 10.3611C4.27108 10.1261 4.57056 9.96599 4.89659 9.90113C5.22262 9.83628 5.56057 9.86957 5.86768 9.99678C6.1748 10.124 6.4373 10.3394 6.62198 10.6158C6.80666 10.8922 6.90524 11.2172 6.90524 11.5496C6.90524 11.9954 6.72816 12.4229 6.41296 12.7381C6.09776 13.0533 5.67025 13.2303 5.22449 13.2303ZM5.22449 10.1118C4.93822 10.1105 4.65801 10.1943 4.41944 10.3525C4.18086 10.5107 3.99467 10.7362 3.8845 11.0004C3.77434 11.2646 3.74516 11.5556 3.80068 11.8365C3.8562 12.1173 3.99391 12.3753 4.19634 12.5777C4.39876 12.7802 4.65676 12.9179 4.9376 12.9734C5.21843 13.0289 5.50943 12.9997 5.77365 12.8896C6.03787 12.7794 6.2634 12.5932 6.42161 12.3546C6.57982 12.1161 6.66357 11.8359 6.66224 11.5496C6.66046 11.1688 6.50842 10.8042 6.23917 10.5349C5.96992 10.2657 5.60526 10.1136 5.22449 10.1118ZM9.57149 11.0501L5.16374 6.60859L5.74424 6.02809L7.64099 7.92484L7.83674 7.72909L5.93999 5.83234L6.52724 5.24509L10.935 9.65959L10.8 9.70009C10.6205 9.7666 10.4521 9.85991 10.3005 9.97684L10.2195 10.0443L8.30249 8.12734L8.09999 8.35009L10.0102 10.2603L9.92249 10.3751C9.80242 10.5232 9.70672 10.6896 9.63899 10.8678L9.57149 11.0501ZM5.52149 6.63559L9.51074 10.6181C9.56156 10.5126 9.62023 10.4111 9.68624 10.3143L7.72874 8.35009L8.26874 7.81009L10.206 9.74734C10.3007 9.67634 10.4025 9.61527 10.5097 9.56509L6.52724 5.58259L6.28424 5.82559L8.18099 7.72234L7.64099 8.25559L5.74424 6.36559L5.52149 6.63559ZM7.12124 11.0501L7.05374 10.8746C6.97824 10.6937 6.87584 10.5253 6.74999 10.3751L6.68924 10.2941L7.54649 9.43684L8.12699 10.0173L7.12124 11.0501ZM7.02674 10.3143C7.09275 10.4111 7.15141 10.5126 7.20224 10.6181L7.80974 10.0173L7.56674 9.77434L7.02674 10.3143ZM6.50699 10.0983L6.42599 10.0308C6.27681 9.89643 6.10847 9.78496 5.92649 9.70009L5.75774 9.63259L6.78374 8.59984L7.37099 9.18034L6.50699 10.0983ZM6.18299 9.59884C6.28869 9.64926 6.39026 9.70794 6.48674 9.77434L7.02674 9.23434L6.78374 8.99809L6.18299 9.59884ZM9.90899 8.24884L9.32174 7.67509L10.9485 6.05509L11.529 6.63559L9.90899 8.24884ZM9.66599 7.67509L9.90899 7.91809L11.1915 6.63559L10.9485 6.39259L9.66599 7.67509ZM13.1017 7.79659H12.3862V7.12159L9.68624 4.42159H9.01124V3.74659L10.7595 1.99834L14.85 6.02809L13.1017 7.79659ZM12.6292 7.55359H13.0005L14.5057 6.05509L10.7527 2.27509L9.24749 3.78034V4.15159H9.80099H9.84149L12.6292 7.00009V7.55359ZM4.30649 7.79659H3.59099L1.84949 6.02809L5.93999 1.93084L7.68824 3.67909V4.35409H7.01324L4.31324 7.05409L4.30649 7.79659ZM3.69224 7.55359H4.04999V7.00009L4.08374 6.96634L6.87824 4.17859H7.42499V3.78034L5.93999 2.27509L2.18699 6.02809L3.69224 7.55359ZM9.12599 7.47934L8.54549 6.89884L10.1655 5.27209L10.7527 5.85934L9.12599 7.47934ZM8.88299 6.89884L9.12599 7.14184L10.4085 5.85934L10.1655 5.61634L8.88299 6.89884ZM15.0457 5.85259L10.9485 1.73509L11.529 1.14784L15.6262 5.24509L15.0457 5.85259ZM11.2927 1.73509L15.0457 5.48809L15.282 5.24509L11.529 1.49209L11.2927 1.73509ZM1.64699 5.82559L1.06649 5.24509L5.16374 1.14784L5.74424 1.73509L1.64699 5.82559ZM1.41074 5.24509L1.64699 5.48809L5.39999 1.73509L5.16374 1.49209L1.41074 5.24509ZM15.822 5.04934L11.7315 0.925091L11.9137 0.742841H12.7102H12.744L16.011 4.00309V4.86034L15.822 5.04934ZM12.15 1.01284L15.7882 4.65109V4.16509L12.609 1.01284H12.15ZM0.890987 5.06284L0.674987 4.86034V4.06384L0.715487 4.03009L3.98249 0.769841H4.77899L4.96124 0.925091L0.890987 5.06284ZM0.924737 4.16509V4.65109L4.56299 1.01284H4.08374L0.924737 4.16509Z" fill="#3C84FC"/>
<path d="M11.9881 4.00979C11.8329 4.00846 11.6809 4.05324 11.5512 4.13846C11.4216 4.22368 11.3202 4.3455 11.2599 4.48845C11.1996 4.6314 11.1831 4.78904 11.2125 4.94137C11.242 5.0937 11.316 5.23385 11.4252 5.34403C11.5345 5.45421 11.674 5.52946 11.826 5.56022C11.9781 5.59098 12.1359 5.57588 12.2794 5.51682C12.4228 5.45776 12.5455 5.35741 12.6319 5.2285C12.7182 5.09959 12.7643 4.94794 12.7643 4.79279C12.7643 4.58629 12.6827 4.38815 12.5374 4.2415C12.392 4.09485 12.1945 4.01157 11.9881 4.00979ZM11.9881 5.04929C11.9504 5.05538 11.9119 5.05322 11.8752 5.04296C11.8385 5.0327 11.8044 5.01459 11.7754 4.98987C11.7464 4.96516 11.723 4.93443 11.7071 4.89982C11.6911 4.86521 11.6828 4.82754 11.6828 4.78942C11.6828 4.75129 11.6911 4.71363 11.7071 4.67902C11.723 4.64441 11.7464 4.61368 11.7754 4.58897C11.8044 4.56425 11.8385 4.54614 11.8752 4.53588C11.9119 4.52562 11.9504 4.52346 11.9881 4.52954C12.0498 4.53953 12.1059 4.57116 12.1465 4.61878C12.187 4.66639 12.2093 4.72688 12.2093 4.78942C12.2093 4.85195 12.187 4.91245 12.1465 4.96006C12.1059 5.00768 12.0498 5.03931 11.9881 5.04929Z" fill="#3C84FC"/>
<path d="M11.988 5.69057C11.8085 5.6919 11.6327 5.63982 11.483 5.54095C11.3332 5.44207 11.2162 5.30088 11.1469 5.13533C11.0776 4.96978 11.0592 4.78736 11.0938 4.61128C11.1285 4.4352 11.2148 4.27342 11.3417 4.14651C11.4686 4.01961 11.6304 3.93333 11.8065 3.89865C11.9826 3.86396 12.165 3.88244 12.3305 3.95174C12.4961 4.02103 12.6373 4.13801 12.7361 4.28778C12.835 4.43755 12.8871 4.61336 12.8858 4.79282C12.884 5.03037 12.7888 5.25769 12.6209 5.42567C12.4529 5.59365 12.2256 5.6888 11.988 5.69057ZM11.988 4.13132C11.8545 4.13132 11.724 4.17091 11.613 4.24508C11.502 4.31924 11.4155 4.42467 11.3644 4.54801C11.3133 4.67135 11.2999 4.80707 11.326 4.938C11.352 5.06894 11.4163 5.18921 11.5107 5.28361C11.6051 5.37801 11.7254 5.4423 11.8563 5.46835C11.9873 5.49439 12.123 5.48102 12.2463 5.42994C12.3697 5.37885 12.4751 5.29233 12.5493 5.18133C12.6234 5.07032 12.663 4.93982 12.663 4.80632C12.663 4.6273 12.5919 4.45561 12.4653 4.32902C12.3387 4.20243 12.167 4.13132 11.988 4.13132ZM11.988 5.17082C11.9337 5.17806 11.8784 5.17361 11.8259 5.15776C11.7734 5.14191 11.725 5.11503 11.6837 5.07892C11.6425 5.04281 11.6094 4.9983 11.5868 4.94838C11.5641 4.89845 11.5524 4.84426 11.5524 4.78944C11.5524 4.73462 11.5641 4.68043 11.5868 4.63051C11.6094 4.58058 11.6425 4.53607 11.6837 4.49996C11.725 4.46385 11.7734 4.43697 11.8259 4.42112C11.8784 4.40527 11.9337 4.40082 11.988 4.40807C12.0804 4.42039 12.1652 4.46585 12.2266 4.536C12.2881 4.60615 12.3219 4.69621 12.3219 4.78944C12.3219 4.88268 12.2881 4.97274 12.2266 5.04289C12.1652 5.11303 12.0804 5.15849 11.988 5.17082ZM11.988 4.65107C11.9673 4.64646 11.9458 4.64657 11.9251 4.65138C11.9044 4.6562 11.8851 4.66559 11.8686 4.67887C11.852 4.69215 11.8386 4.70898 11.8295 4.72812C11.8203 4.74726 11.8155 4.76822 11.8155 4.78944C11.8155 4.81067 11.8203 4.83162 11.8295 4.85076C11.8386 4.8699 11.852 4.88673 11.8686 4.90001C11.8851 4.91329 11.9044 4.92269 11.9251 4.9275C11.9458 4.93231 11.9673 4.93242 11.988 4.92782C12.0238 4.92782 12.0582 4.91359 12.0835 4.88828C12.1088 4.86296 12.123 4.82862 12.123 4.79282C12.1239 4.77453 12.1211 4.75625 12.1147 4.73908C12.1084 4.72191 12.0986 4.70622 12.0859 4.69296C12.0733 4.6797 12.0581 4.66915 12.0413 4.66195C12.0244 4.65475 12.0063 4.65104 11.988 4.65107Z" fill="#3C84FC"/>
<path d="M5.22449 10.51C5.07035 10.5105 4.91822 10.5451 4.77899 10.6113L5.00174 11.0838C5.08067 11.0463 5.16776 11.0294 5.25497 11.0345C5.34218 11.0396 5.42669 11.0666 5.50069 11.1131C5.5747 11.1595 5.63581 11.2238 5.67837 11.3001C5.72094 11.3764 5.7436 11.4622 5.74424 11.5495C5.74567 11.6272 5.72707 11.7039 5.69024 11.7723L6.16274 11.995C6.22955 11.856 6.26415 11.7037 6.26399 11.5495C6.26399 11.2738 6.15447 11.0094 5.95953 10.8145C5.76459 10.6195 5.50018 10.51 5.22449 10.51Z" fill="#3C84FC"/>
<path d="M6.21669 12.157L5.54169 11.833L5.58219 11.725C5.60908 11.6728 5.62298 11.6149 5.62269 11.5562C5.62051 11.4901 5.60218 11.4256 5.56929 11.3682C5.5364 11.3108 5.48996 11.2624 5.43403 11.2271C5.37809 11.1918 5.31436 11.1707 5.24841 11.1657C5.18246 11.1608 5.11629 11.172 5.05569 11.1985L4.94769 11.2525L4.61694 10.5775L4.72494 10.5032C4.8802 10.4249 5.05062 10.3811 5.22444 10.375C5.53236 10.375 5.82766 10.4973 6.04539 10.715C6.26312 10.9328 6.38544 11.2281 6.38544 11.536C6.38443 11.7089 6.34525 11.8795 6.27069 12.0355L6.21669 12.157ZM5.84544 11.725L6.10194 11.8465C6.12863 11.7544 6.14226 11.6589 6.14244 11.563C6.14244 11.3195 6.04572 11.086 5.87357 10.9139C5.70141 10.7417 5.46791 10.645 5.22444 10.645C5.12791 10.6441 5.03198 10.6601 4.94094 10.6923L5.06244 10.9488C5.14626 10.9254 5.23403 10.92 5.32008 10.9328C5.40613 10.9456 5.48853 10.9763 5.56194 11.023C5.65201 11.0822 5.72659 11.1621 5.77943 11.2561C5.83228 11.35 5.86186 11.4553 5.86569 11.563C5.86552 11.6176 5.85872 11.672 5.84544 11.725Z" fill="#3C84FC"/>
<path d="M4.72498 11.5495C4.72683 11.4722 4.74525 11.3963 4.77898 11.3268L4.30648 11.104C4.23136 11.2624 4.1975 11.4372 4.20807 11.6121C4.21863 11.7871 4.27326 11.9566 4.36689 12.1047C4.46051 12.2529 4.59009 12.375 4.74357 12.4597C4.89705 12.5444 5.06945 12.5888 5.24473 12.589C5.39895 12.5892 5.55123 12.5546 5.69023 12.4878L5.46748 12.0153C5.38855 12.0527 5.30146 12.0696 5.21425 12.0645C5.12704 12.0594 5.04253 12.0324 4.96853 11.986C4.89453 11.9395 4.83342 11.8752 4.79085 11.7989C4.74828 11.7226 4.72563 11.6369 4.72498 11.5495Z" fill="#3C84FC"/>
<path d="M5.22455 12.7106C5.07095 12.7124 4.91853 12.6837 4.77611 12.6262C4.63369 12.5686 4.5041 12.4834 4.39486 12.3754C4.28561 12.2674 4.19889 12.1388 4.1397 11.9971C4.08051 11.8553 4.05004 11.7032 4.05005 11.5496C4.05614 11.3758 4.0999 11.2054 4.1783 11.0501L4.2323 10.9421L4.9073 11.2729L4.8533 11.3809C4.82712 11.4333 4.81327 11.491 4.8128 11.5496C4.81425 11.6171 4.83224 11.6831 4.8652 11.742C4.89815 11.8008 4.94506 11.8507 5.0018 11.8871C5.05926 11.9203 5.12445 11.9378 5.1908 11.9378C5.25715 11.9378 5.32234 11.9203 5.3798 11.8871L5.49455 11.8399L5.81855 12.5149L5.71055 12.5621C5.56236 12.6489 5.39592 12.6997 5.22455 12.7106ZM4.3538 11.2729C4.32121 11.3615 4.30519 11.4553 4.30655 11.5496C4.30655 11.6702 4.33029 11.7896 4.37643 11.9009C4.42256 12.0123 4.49018 12.1135 4.57542 12.1988C4.66067 12.284 4.76187 12.3516 4.87325 12.3978C4.98462 12.4439 5.104 12.4676 5.22455 12.4676C5.32178 12.4587 5.41724 12.436 5.50805 12.4001L5.40005 12.1706C5.30571 12.1891 5.20852 12.1872 5.11498 12.165C5.02145 12.1429 4.93372 12.101 4.85767 12.0422C4.78162 11.9834 4.71901 11.909 4.67402 11.8241C4.62903 11.7392 4.6027 11.6456 4.5968 11.5496C4.5903 11.4958 4.5903 11.4414 4.5968 11.3876L4.3538 11.2729Z" fill="#3C84FC"/>
<path d="M11.0025 11.7723C10.9657 11.7039 10.9471 11.6272 10.9485 11.5495C10.9492 11.4622 10.9718 11.3764 11.0144 11.3001C11.057 11.2238 11.1181 11.1595 11.1921 11.1131C11.2661 11.0667 11.3506 11.0396 11.4378 11.0345C11.525 11.0294 11.6121 11.0463 11.691 11.0838L11.9138 10.6113C11.7554 10.5362 11.5806 10.5023 11.4056 10.5129C11.2307 10.5234 11.0612 10.5781 10.913 10.6717C10.7649 10.7653 10.6427 10.8949 10.5581 11.0484C10.4734 11.2019 10.4289 11.3743 10.4288 11.5495C10.4286 11.7038 10.4632 11.856 10.53 11.995L11.0025 11.7723Z" fill="#3C84FC"/>
<path d="M10.476 12.157L10.422 12.049C10.3475 11.893 10.3083 11.7224 10.3073 11.5495C10.3055 11.3954 10.3344 11.2424 10.3924 11.0995C10.4503 10.9566 10.5362 10.8268 10.6449 10.7174C10.7536 10.6081 10.883 10.5215 11.0255 10.4627C11.168 10.4039 11.3208 10.3741 11.475 10.375C11.6478 10.3769 11.8182 10.416 11.9745 10.4898L12.0825 10.5438L11.7518 11.2188L11.6438 11.1648C11.5868 11.1302 11.5214 11.1119 11.4548 11.1119C11.3881 11.1119 11.3228 11.1302 11.2658 11.1648C11.2083 11.1988 11.1606 11.2471 11.1275 11.3051C11.0943 11.3631 11.0769 11.4287 11.0768 11.4955C11.0765 11.5542 11.0904 11.6121 11.1173 11.6643L11.1645 11.779L10.476 12.157ZM11.475 10.6315C11.2315 10.6315 10.9981 10.7282 10.8259 10.9004C10.6537 11.0726 10.557 11.306 10.557 11.5495C10.5572 11.6454 10.5708 11.7409 10.5975 11.833L10.854 11.7115C10.8475 11.6577 10.8475 11.6033 10.854 11.5495C10.8579 11.4418 10.8874 11.3366 10.9403 11.2426C10.9931 11.1487 11.0677 11.0687 11.1578 11.0095C11.2312 10.9628 11.3136 10.9321 11.3996 10.9193C11.4857 10.9065 11.5735 10.912 11.6573 10.9353L11.7788 10.6788C11.6813 10.6442 11.5783 10.6282 11.475 10.6315Z" fill="#3C84FC"/>
<path d="M11.2455 12.0153L11.0228 12.4878C11.1618 12.5546 11.314 12.5892 11.4683 12.589C11.6436 12.5888 11.8159 12.5444 11.9694 12.4597C12.1229 12.375 12.2525 12.2529 12.3461 12.1047C12.4397 11.9566 12.4944 11.7871 12.5049 11.6121C12.5155 11.4372 12.4816 11.2624 12.4065 11.104L11.934 11.3268C11.9677 11.3963 11.9862 11.4722 11.988 11.5495C11.9874 11.6369 11.9647 11.7226 11.9221 11.7989C11.8796 11.8752 11.8185 11.9395 11.7445 11.986C11.6705 12.0324 11.586 12.0594 11.4987 12.0645C11.4115 12.0696 11.3244 12.0527 11.2455 12.0153Z" fill="#3C84FC"/>
<path d="M11.4749 12.7106C11.3017 12.7127 11.1304 12.6734 10.9754 12.5958L10.8674 12.5486L11.1914 11.8736L11.3062 11.9208C11.3636 11.954 11.4288 11.9715 11.4952 11.9715C11.5615 11.9715 11.6267 11.954 11.6842 11.9208C11.7409 11.8844 11.7878 11.8345 11.8208 11.7757C11.8537 11.7168 11.8717 11.6508 11.8732 11.5833C11.8727 11.5247 11.8589 11.467 11.8327 11.4146L11.7787 11.3066L12.4537 10.9758L12.5077 11.0838C12.5814 11.2401 12.6206 11.4105 12.6224 11.5833C12.6137 11.883 12.4894 12.1678 12.2755 12.3779C12.0616 12.588 11.7747 12.7072 11.4749 12.7106ZM11.1847 12.4001C11.2768 12.4268 11.3723 12.4404 11.4682 12.4406C11.7116 12.4406 11.9451 12.3439 12.1173 12.1717C12.2895 11.9995 12.3862 11.766 12.3862 11.5226C12.387 11.4261 12.371 11.3301 12.3389 11.2391L12.0892 11.3606C12.0957 11.4144 12.0957 11.4688 12.0892 11.5226C12.0833 11.6185 12.0569 11.7121 12.012 11.797C11.967 11.882 11.9044 11.9563 11.8283 12.0151C11.7523 12.0739 11.6645 12.1158 11.571 12.138C11.4775 12.1601 11.3803 12.162 11.2859 12.1436L11.1847 12.4001Z" fill="#3C84FC"/>
</svg>
