<svg width="48" height="48" viewBox="0 0 48 48" fill="none" xmlns="http://www.w3.org/2000/svg">
<g clip-path="url(#clip0)">
<path d="M31.9994 28.0005C31.1155 28.0005 30.3995 28.7169 30.3995 29.6004C30.3995 30.0422 30.0413 30.4004 29.5995 30.4004C29.1577 30.4004 28.7995 30.0422 28.7995 29.6004C28.805 28.1458 29.7909 26.8778 31.1995 26.5142V25.6005C31.1995 25.1587 31.5576 24.8005 31.9994 24.8005C32.4412 24.8005 32.7994 25.1587 32.7994 25.6005V26.5142C34.358 26.9153 35.3744 28.4133 35.1712 30.0098C34.9681 31.6062 33.6088 32.8023 31.9994 32.8004C31.1155 32.8004 30.3995 33.5168 30.3995 34.4003C30.3995 35.2839 31.1155 36.0003 31.9994 36.0003C32.883 36.0003 33.5994 35.2839 33.5994 34.4003C33.5994 33.9585 33.9576 33.6003 34.3994 33.6003C34.8412 33.6003 35.1994 33.9585 35.1994 34.4003C35.1939 35.855 34.2076 37.1229 32.7994 37.4866V38.4002C32.7994 38.842 32.4412 39.2002 31.9994 39.2002C31.5576 39.2002 31.1995 38.842 31.1995 38.4002V37.4889C29.6358 37.0917 28.6144 35.5909 28.8179 33.991C29.0214 32.3906 30.3862 31.1934 31.9994 31.2004C32.883 31.2004 33.5994 30.484 33.5994 29.6004C33.5994 28.7169 32.883 28.0005 31.9994 28.0005Z" fill="#3C84FC"/>
<path d="M29.5995 20.0008H34.3994C34.8412 20.0008 35.1994 20.359 35.1994 20.8008C35.1994 21.2426 34.8412 21.6008 34.3994 21.6008H29.5995C29.1577 21.6008 28.7995 21.2426 28.7995 20.8008C28.7995 20.359 29.1577 20.0008 29.5995 20.0008Z" fill="#3C84FC"/>
<path d="M29.5995 42.4003H34.3994C34.8412 42.4003 35.1994 42.7585 35.1994 43.2003C35.1994 43.642 34.8412 44.0002 34.3994 44.0002H29.5995C29.1577 44.0002 28.7995 43.642 28.7995 43.2003C28.7995 42.7585 29.1577 42.4003 29.5995 42.4003Z" fill="#3C84FC"/>
<path d="M4.16569 30.8004L15.91 10.4607C15.1873 9.74388 14.5479 8.94741 14.0045 8.08649C12.671 5.92638 12.4327 3.87604 13.3342 2.31475C15.1283 -0.793388 20.7946 -0.768389 26.2339 2.37139C26.9562 2.79442 27.6507 3.26277 28.3136 3.7737L28.9593 3.0409C29.7292 2.16905 30.8362 1.66906 31.9994 1.66828C33.1623 1.66906 34.2693 2.16905 35.0392 3.0409L43.7847 12.9512C44.4386 13.6918 44.7995 14.6461 44.7991 15.6344V40.8002C44.7944 44.7747 41.5738 47.9958 37.5993 48.0001H26.3996C22.425 47.9958 19.204 44.7747 19.1997 40.8002V15.6344C19.2013 14.8637 19.4235 14.1094 19.8396 13.4606H19.8333C18.8767 12.9075 17.9689 12.2743 17.1197 11.5681L5.5512 31.6004C4.00359 34.2789 4.92075 37.7046 7.59999 39.2514L17.299 44.8513C17.7255 45.095 18.1829 45.2814 18.6587 45.4048C19.0857 45.5185 19.34 45.9567 19.2263 46.3837C19.113 46.8106 18.6747 47.0649 18.2474 46.9513C17.6373 46.7907 17.0506 46.5505 16.5029 46.2368L6.80391 40.6369C3.35829 38.6499 2.17667 34.2453 4.16569 30.8004ZM20.7997 40.8002C20.8032 43.8916 23.3082 46.3966 26.3996 46.4001H37.5993C40.6902 46.3966 43.1957 43.8916 43.1992 40.8002V15.6344C43.1992 15.0359 42.9808 14.4582 42.5847 14.0094L33.8392 4.10025C33.3736 3.57175 32.7037 3.26863 31.9994 3.26824C31.2951 3.26863 30.6248 3.57175 30.1592 4.10025L22.3571 12.9422C24.1406 13.7836 26.0898 14.216 28.0616 14.2078C28.0253 14.0075 28.0046 13.8043 27.9995 13.6008C28.0019 11.3927 29.7913 9.60365 31.9994 9.60091C32.0873 9.60365 32.174 9.62122 32.2561 9.65286C32.6592 9.60326 33.0342 9.86731 33.124 10.2634C33.4088 11.3567 33.2689 12.5173 32.733 13.5118C32.2014 14.3922 31.3744 15.0551 30.3995 15.3816C31.1006 16.0215 32.1143 16.1851 32.9814 15.7992C33.849 15.4129 34.4052 14.55 34.3994 13.6008C34.3994 13.159 34.7576 12.8008 35.1994 12.8008C35.6411 12.8008 35.9993 13.159 35.9993 13.6008C36.0013 15.3742 34.8341 16.9367 33.1326 17.4375C31.4315 17.9382 29.6038 17.2574 28.6448 15.7656C28.33 15.7988 28.0136 15.8164 27.6968 15.8176C25.4636 15.75 23.2715 15.1981 21.2723 14.2C20.9673 14.6164 20.802 15.1184 20.7997 15.6344V40.8002ZM29.5995 13.6008C29.6026 13.718 29.6143 13.8348 29.6346 13.9504C30.3405 13.7668 30.9518 13.325 31.3471 12.7118C31.594 12.2614 31.6998 11.7473 31.6514 11.236C30.4764 11.4083 29.6042 12.4134 29.5995 13.6008ZM20.6341 12.068C20.7137 12.1145 20.7938 12.1544 20.8739 12.1993L27.2499 4.97289C26.6695 4.53266 26.0628 4.12799 25.434 3.76081C20.9274 1.15774 16.0205 0.863606 14.7205 3.12098C14.126 4.14908 14.3557 5.61702 15.3662 7.25292C15.7658 7.88767 16.2264 8.4818 16.742 9.02631L16.7502 9.01186C17.2435 8.15602 18.0333 7.50994 18.97 7.19511L22.1028 6.13615C22.5168 6.00998 22.9563 6.23614 23.0942 6.64629C23.2324 7.05683 23.0188 7.50252 22.6121 7.65213L19.4794 8.70562C18.9126 8.89663 18.4349 9.28764 18.1357 9.80559L17.9318 10.1583C18.7712 10.8782 19.6759 11.5181 20.6341 12.0704V12.068Z" fill="#3C84FC"/>
<path d="M17.4923 32.2462C17.2716 32.6286 16.7822 32.7598 16.3998 32.5388L10.8574 29.3388C10.6078 29.197 10.4535 28.9322 10.4527 28.6451C10.4523 28.358 10.6054 28.0928 10.8542 27.9498C11.1034 27.8068 11.4097 27.808 11.6573 27.9533L17.1998 31.1532C17.5822 31.3743 17.7134 31.8634 17.4923 32.2462Z" fill="#3C84FC"/>
<path d="M16.4795 37.2004C16.2592 37.5832 15.7697 37.7148 15.3869 37.4938L8.45897 33.4938C8.07617 33.2731 7.94492 32.7837 8.16601 32.4009C8.38671 32.0181 8.87615 31.8868 9.25895 32.1075L16.1869 36.1075C16.5693 36.3285 16.7006 36.8176 16.4795 37.2004Z" fill="#3C84FC"/>
<path d="M16.0275 27.5821C15.8873 27.5821 15.7494 27.545 15.6275 27.4747L12.8565 25.8747C12.6069 25.7329 12.4526 25.4681 12.4518 25.181C12.4514 24.8943 12.6045 24.6287 12.8534 24.4857C13.1022 24.3427 13.4088 24.3439 13.6565 24.4892L16.4275 26.0892C16.7412 26.2704 16.8939 26.6392 16.8002 26.9892C16.7064 27.3388 16.3896 27.5821 16.0275 27.5821Z" fill="#3C84FC"/>
</g>
<defs>
<clipPath id="clip0">
<rect width="48" height="48" fill="white" transform="matrix(-1 0 0 1 48 0)"/>
</clipPath>
</defs>
</svg>
