<svg width="64" height="34" viewBox="0 0 64 34" fill="none" xmlns="http://www.w3.org/2000/svg">
<path d="M60.966 20.3542L51.0158 31.3542C50.0679 32.4021 48.7208 33 47.3077 33H6C3.23857 33 1 30.7614 1 28V6C1 3.23858 3.23858 1 6 1H47.3077C48.7208 1 50.0679 1.59791 51.0158 2.64584L60.966 13.6458C62.6886 15.5502 62.6886 18.4498 60.966 20.3542Z" fill="white" stroke="#DE603E" stroke-miterlimit="10" stroke-linecap="round" stroke-linejoin="round"/>
<path d="M7.10287 20.32V18.544H11.9029V20.32H7.10287ZM13.7093 24C13.6453 23.6373 13.6133 23.3013 13.6133 22.992C13.6133 22.4373 13.7093 21.92 13.9013 21.44C14.1039 20.96 14.3599 20.5493 14.6693 20.208C14.9786 19.856 15.3199 19.5307 15.6933 19.232C16.0773 18.9333 16.4559 18.656 16.8293 18.4C17.2133 18.144 17.5599 17.8933 17.8693 17.648C18.1786 17.4027 18.4293 17.1413 18.6213 16.864C18.8239 16.576 18.9253 16.2827 18.9253 15.984C18.9253 15.504 18.7599 15.12 18.4293 14.832C18.0986 14.544 17.6879 14.4 17.1973 14.4C16.7813 14.4 16.3919 14.528 16.0293 14.784C15.6666 15.04 15.3733 15.36 15.1493 15.744L13.6133 14.72C13.9759 14.0587 14.4773 13.5147 15.1173 13.088C15.7573 12.6613 16.5093 12.448 17.3733 12.448C18.4079 12.448 19.2826 12.752 19.9973 13.36C20.7119 13.9573 21.0693 14.7733 21.0693 15.808C21.0693 16.2987 20.9733 16.7627 20.7812 17.2C20.5999 17.6267 20.3599 17.9947 20.0613 18.304C19.7626 18.6133 19.4266 18.9067 19.0533 19.184C18.6906 19.4613 18.3279 19.7173 17.9653 19.952C17.6026 20.1867 17.2666 20.4213 16.9573 20.656C16.6479 20.88 16.3919 21.1253 16.1893 21.392C15.9973 21.6587 15.8959 21.936 15.8853 22.224H21.2453V24H13.7093ZM29.0694 23.744C28.5254 24.0427 27.88 24.192 27.1334 24.192C26.3867 24.192 25.736 24.0427 25.1814 23.744C24.6374 23.4453 24.2107 23.0187 23.9014 22.464C23.592 21.9093 23.3627 21.2907 23.2134 20.608C23.0747 19.9253 23.0054 19.1573 23.0054 18.304C23.0054 17.4507 23.0747 16.6827 23.2134 16C23.3627 15.3173 23.592 14.704 23.9014 14.16C24.2107 13.616 24.6374 13.1947 25.1814 12.896C25.7254 12.5973 26.376 12.448 27.1334 12.448C29.8747 12.448 31.2454 14.4 31.2454 18.304C31.2454 19.1573 31.1707 19.9253 31.0214 20.608C30.8827 21.2907 30.6587 21.9093 30.3494 22.464C30.0507 23.0187 29.624 23.4453 29.0694 23.744ZM25.1334 18.304C25.1334 20.9707 25.8 22.304 27.1334 22.304C28.4667 22.304 29.1334 20.9707 29.1334 18.304C29.1334 15.6693 28.4667 14.352 27.1334 14.352C25.8 14.352 25.1334 15.6693 25.1334 18.304ZM37.3083 16.768C36.7963 17.2587 36.1776 17.504 35.4523 17.504C34.7269 17.504 34.1083 17.2587 33.5963 16.768C33.0949 16.2773 32.8443 15.68 32.8443 14.976C32.8443 14.2827 33.0949 13.6907 33.5963 13.2C34.1083 12.6987 34.7269 12.448 35.4523 12.448C36.1669 12.448 36.7803 12.6987 37.2923 13.2C37.8149 13.6907 38.0763 14.2827 38.0763 14.976C38.0763 15.68 37.8203 16.2773 37.3083 16.768ZM33.2443 24L41.9643 12.64H43.8363L35.1163 24H33.2443ZM34.7003 15.728C34.9029 15.9307 35.1536 16.032 35.4523 16.032C35.7509 16.032 36.0016 15.9307 36.2043 15.728C36.4176 15.5253 36.5243 15.2747 36.5243 14.976C36.5243 14.688 36.4176 14.4427 36.2043 14.24C36.0016 14.0267 35.7509 13.92 35.4523 13.92C35.1536 13.92 34.9029 14.0267 34.7003 14.24C34.4976 14.4427 34.3963 14.688 34.3963 14.976C34.3963 15.2747 34.4976 15.5253 34.7003 15.728ZM39.8043 23.456C39.3029 22.9653 39.0523 22.3733 39.0523 21.68C39.0523 20.9867 39.3029 20.3947 39.8043 19.904C40.3163 19.4027 40.9349 19.152 41.6603 19.152C42.3749 19.152 42.9883 19.4027 43.5003 19.904C44.0123 20.3947 44.2683 20.9867 44.2683 21.68C44.2683 22.3733 44.0123 22.9653 43.5003 23.456C42.9989 23.9467 42.3856 24.192 41.6603 24.192C40.9349 24.192 40.3163 23.9467 39.8043 23.456ZM40.6042 21.664C40.6042 21.9627 40.7056 22.2133 40.9083 22.416C41.1109 22.6187 41.3616 22.72 41.6603 22.72C41.9589 22.72 42.2096 22.6187 42.4123 22.416C42.6256 22.2133 42.7323 21.9627 42.7323 21.664C42.7323 21.376 42.6256 21.1307 42.4123 20.928C42.2096 20.7147 41.9589 20.608 41.6603 20.608C41.3616 20.608 41.1109 20.7147 40.9083 20.928C40.7056 21.1307 40.6042 21.376 40.6042 21.664Z" fill="#DE603E"/>
</svg>
