<svg width="48" height="48" viewBox="0 0 48 48" fill="none" xmlns="http://www.w3.org/2000/svg">
<path d="M20.8 15.2C19.4768 15.2 18.4 16.2768 18.4 17.6H20C20 17.1592 20.3584 16.8 20.8 16.8C21.2416 16.8 21.6 17.1592 21.6 17.6H23.2C23.2 16.2768 22.1232 15.2 20.8 15.2Z" fill="#3C84FC"/>
<path d="M27.2 15.2C25.8768 15.2 24.8 16.2768 24.8 17.6H26.4C26.4 17.1592 26.7584 16.8 27.2 16.8C27.6416 16.8 28 17.1592 28 17.6H29.6C29.6 16.2768 28.5232 15.2 27.2 15.2Z" fill="#3C84FC"/>
<path d="M24 36.8C22.2352 36.8 20.8 38.2352 20.8 40C20.8 41.7648 22.2352 43.2 24 43.2C25.7648 43.2 27.2 41.7648 27.2 40C27.2 38.2352 25.7648 36.8 24 36.8ZM24 41.6C23.1176 41.6 22.4 40.8824 22.4 40C22.4 39.1176 23.1176 38.4 24 38.4C24.8824 38.4 25.6 39.1176 25.6 40C25.6 40.8824 24.8824 41.6 24 41.6Z" fill="#3C84FC"/>
<path d="M43.2 46.4V36C43.2 29.3832 37.8168 24 31.2 24H30.3288C30.6136 23.7496 30.8816 23.4824 31.1352 23.2H32C34.2056 23.2 36 21.4056 36 19.2V17.7904C36.964 17.144 37.6 16.0448 37.6 14.8C37.6 13.5504 36.9592 12.4496 35.9904 11.804C35.884 5.2784 30.5512 0 24 0C17.4488 0 12.116 5.2784 12.0096 11.804C11.0408 12.4496 10.4 13.5504 10.4 14.8C10.4 16.7848 12.0152 18.4 14 18.4H14.5448C14.9192 20.6168 16.052 22.5744 17.672 24H16.8C10.1832 24 4.8 29.3832 4.8 36V46.4H0V48H5.6H9.6H38.4H42.4H48V46.4H43.2ZM34.4 19.2C34.4 20.4136 33.4912 21.4088 32.3208 21.5672C32.8752 20.6032 33.264 19.5352 33.4552 18.4H34C34.1368 18.4 34.2672 18.3744 34.4 18.3592V19.2ZM36 14.8C36 15.9024 35.1032 16.8 34 16.8H33.6V12.8H34C35.1032 12.8 36 13.6976 36 14.8ZM14.4 16.8H14C12.8968 16.8 12 15.9024 12 14.8C12 13.6976 12.8968 12.8 14 12.8H14.4V16.8ZM14 11.2C13.876 11.2 13.7592 11.224 13.6384 11.2368C14.032 5.8584 18.5232 1.6 24 1.6C29.4768 1.6 33.968 5.8584 34.3616 11.2368C34.2408 11.224 34.124 11.2 34 11.2H33.4552C32.6904 6.6672 28.7472 3.2 24 3.2C19.2528 3.2 15.3096 6.6672 14.5448 11.2H14ZM31.9992 12.78C26.2256 12.5768 22.4 10.216 22.4 8C22.4 7.5584 22.0424 7.2 21.6 7.2C21.1576 7.2 20.8 7.5584 20.8 8C20.8 9.9992 18.7328 11.656 16.0464 11.9496C16.4728 7.9368 19.8768 4.8 24 4.8C28.404 4.8 31.988 8.3784 31.9992 12.78ZM16 16.8V13.5552C18.4984 13.3384 20.6184 12.1336 21.6768 10.4464C23.3504 12.664 27.2616 14.2248 32 14.384V16.8C32 18.6024 31.3936 20.2608 30.3848 21.6H24V23.2H28.7792C28.32 23.544 27.8248 23.84 27.2968 24.08C25.1976 25.0336 22.8016 25.0336 20.7016 24.08C17.9336 22.8208 16 20.0352 16 16.8ZM21.5272 26.0656C22.3176 26.2768 23.144 26.4 24 26.4C24.856 26.4 25.6824 26.2768 26.4728 26.0656L24 31.0112L21.5272 26.0656ZM22.7056 32H21.2944L18.0944 25.6H19.5056L22.7056 32ZM28.4944 25.6H29.9056L26.7056 32H25.2944L28.4944 25.6ZM8.8 36V46.4H6.4V36C6.4 30.428 10.808 25.8792 16.3176 25.6248L19.5056 32H12.8C10.5944 32 8.8 33.7944 8.8 36ZM37.6 46.4H10.4V36C10.4 34.6768 11.4768 33.6 12.8 33.6H20.8H24H27.2H35.2C36.5232 33.6 37.6 34.6768 37.6 36V46.4ZM41.6 46.4H39.2V36C39.2 33.7944 37.4056 32 35.2 32H28.4944L31.6824 25.6248C37.192 25.8792 41.6 30.428 41.6 36V46.4Z" fill="#3C84FC"/>
<path d="M36 39.2H34.4V44.7999H36V39.2Z" fill="#3C84FC"/>
<path d="M36 36H34.4V37.6H36V36Z" fill="#3C84FC"/>
</svg>
