<svg width="100" height="320" viewBox="0 0 100 320" fill="none" xmlns="http://www.w3.org/2000/svg">
<path d="M96.4678 2.65747C42.3615 34.2012 6 92.8543 6 160C6 227.366 42.6001 286.183 97 317.652" stroke="#DF5643" stroke-width="2" stroke-dasharray="7 7"/>
<path d="M96 0L100 4L96 8L92 4L96 0Z" fill="#DF5643"/>
<path d="M96 312L100 316L96 320L92 316L96 312Z" fill="#DF5643"/>
<circle cx="59" cy="31" r="11" fill="#F1F2ED" stroke="#DF5643" stroke-width="2"/>
<circle cx="59" cy="31" r="6" fill="#DF5643"/>
<circle cx="12" cy="112" r="11" fill="#F1F2ED" stroke="#DF5643" stroke-width="2"/>
<circle cx="12" cy="112" r="6" fill="#DF5643"/>
<circle cx="12" cy="206" r="11" fill="#F1F2ED" stroke="#DF5643" stroke-width="2"/>
<circle cx="12" cy="206" r="6" fill="#DF5643"/>
<circle cx="61" cy="288" r="11" fill="#F1F2ED" stroke="#DF5643" stroke-width="2"/>
<circle cx="61" cy="288" r="6" fill="#DF5643"/>
</svg>
