<svg width="56" height="56" viewBox="0 0 56 56" fill="none" xmlns="http://www.w3.org/2000/svg">
<g clip-path="url(#clip0_157_6630)">
<path d="M49.878 42.28C49.8687 42.4854 49.85 42.6907 49.822 42.8867L49.7754 43.1294C49.3207 45.7379 47.332 47.8115 44.7447 48.3747C43.9143 48.5664 43.0534 48.5855 42.2154 48.4307L35.794 47.3014L19.6567 44.4547H19.638L12.7967 43.2507C12.1781 43.1379 11.6584 42.7201 11.4154 42.1401C11.2637 41.8105 11.2181 41.442 11.2847 41.0854C11.4431 40.1941 12.2182 39.545 13.1234 39.5454C13.2329 39.5454 13.3421 39.5548 13.45 39.5734L19.6567 40.6654H19.666L42.7474 44.7347C44.0849 44.9993 45.4236 44.285 45.9487 43.0267C46.2541 42.2439 46.1935 41.3656 45.7835 40.6321C45.3734 39.8987 44.6569 39.3871 43.83 39.2374L35.794 37.8187H35.7847L14.4207 34.0574C13.4678 33.8905 12.8004 33.0233 12.8829 32.0594C12.9655 31.0956 13.7707 30.3545 14.738 30.3521C14.8475 30.3521 14.9568 30.3615 15.0647 30.38L44.2594 35.5227C47.5548 36.0598 49.9513 38.942 49.878 42.28Z" fill="#D4E4DB"/>
<path d="M45.9479 43.0267C45.4228 44.285 44.0841 44.9992 42.7465 44.7347L19.6652 40.6654H19.6559L13.4492 39.5734L14.4199 34.0574L35.7839 37.8187H35.7932L43.8292 39.2374C44.656 39.3871 45.3726 39.8987 45.7826 40.6321C46.1927 41.3656 46.2533 42.2439 45.9479 43.0267Z" fill="#EDEFEE"/>
<path d="M55.0575 12.8613C55.0464 13.1494 55.0152 13.4363 54.9642 13.72L49.8215 42.8867C49.8495 42.6907 49.8682 42.4853 49.8775 42.28C49.9508 38.9419 47.5543 36.0597 44.2589 35.5227L15.0642 30.38C14.9563 30.3614 14.847 30.3521 14.7375 30.352C13.8358 30.3561 13.066 31.0042 12.9082 31.892L16.6042 10.8827L18.0882 2.48267C18.1739 1.99344 18.4531 1.55939 18.8629 1.27867C19.265 0.990537 19.7674 0.879267 20.2535 0.970674L49.4482 6.11334C52.7389 6.64958 55.1317 9.52809 55.0575 12.8613Z" fill="#EDEFEE"/>
<path d="M49.4486 6.11349L20.2539 0.970828C19.8009 0.888372 19.3334 0.982195 18.9473 1.23309L46.6486 6.11349C49.9393 6.64973 52.3321 9.52824 52.2579 12.8615C52.2468 13.1495 52.2156 13.4365 52.1646 13.7202L47.9739 37.4688C49.2563 38.734 49.9473 40.4801 49.8779 42.2802C49.8686 42.4855 49.8499 42.6908 49.8219 42.8868L54.9646 13.7202C55.0156 13.4365 55.0468 13.1495 55.0579 12.8615C55.1321 9.52824 52.7393 6.64973 49.4486 6.11349Z" fill="#D4E4DB"/>
<path d="M40.8025 18.823L21.4965 15.4126C20.9887 15.323 20.5044 15.6618 20.4147 16.1696L18.7907 25.3629C18.7011 25.8706 19.0399 26.355 19.5477 26.4446L38.8537 29.855C39.3614 29.9447 39.8457 29.6058 39.9354 29.0981L41.5594 19.9048C41.6491 19.397 41.3102 18.9127 40.8025 18.823Z" fill="white"/>
<path d="M44.7439 48.3748C44.5705 49.0944 43.9884 49.6436 43.2599 49.7748L13.8412 54.9641C12.1013 55.2685 10.3122 54.8561 8.88112 53.8206C7.45007 52.7851 6.49883 51.2147 6.24388 49.4668C6.20781 49.2476 6.18598 49.0262 6.17855 48.8041C6.10504 45.6163 8.29981 42.8229 11.4146 42.1401C11.6575 42.7201 12.1772 43.138 12.7959 43.2508L19.6372 44.4548L12.2266 45.7708C11.399 45.9163 10.6803 46.4251 10.2681 47.1572C9.85589 47.8894 9.79367 48.7678 10.0986 49.5508C10.6265 50.8119 11.9672 51.529 13.3092 51.2681L35.7932 47.3015L42.2146 48.4308C43.0526 48.5856 43.9135 48.5665 44.7439 48.3748Z" fill="#B8D3C3"/>
<path d="M35.794 47.3015L13.31 51.2682C11.968 51.5291 10.6273 50.8119 10.0994 49.5508C9.79447 48.7679 9.85669 47.8895 10.2689 47.1573C10.6811 46.4251 11.3998 45.9163 12.2274 45.7708L19.638 44.4548H19.6567L35.794 47.3015Z" fill="#EDEFEE"/>
<path d="M14.4202 34.0575L13.4495 39.5735C13.3416 39.5549 13.2324 39.5455 13.1229 39.5455C12.2177 39.5451 11.4426 40.1942 11.2842 41.0855C11.2176 41.4421 11.2632 41.8106 11.4149 42.1402C8.30013 42.8229 6.10536 45.6163 6.17887 48.8041C6.18631 49.0262 6.20813 49.2476 6.24421 49.4668L1.09221 20.2535C1.04219 19.9696 1.01101 19.6828 0.998875 19.3948C0.921893 16.0606 3.31604 13.1804 6.60821 12.6468L16.6042 10.8828L12.9082 31.8921C12.8193 32.3801 12.929 32.8833 13.2129 33.2899C13.4969 33.6966 13.9315 33.9729 14.4202 34.0575Z" fill="#B8D3C3"/>
<path d="M0.998875 19.3947C1.01847 19.9865 0.647008 17.7334 6.24421 49.4667C6.49915 51.2146 7.4504 52.785 8.88144 53.8205C10.3125 54.856 12.1016 55.2685 13.8415 54.9641L14.1374 54.9118C11.469 54.3388 9.43798 52.1674 9.04421 49.4667C3.44421 17.7334 3.81754 19.9865 3.79887 19.3947C3.72189 16.0605 6.11604 13.1804 9.40821 12.6467L19.4042 10.8827L20.8882 2.48275C20.985 1.9587 21.3039 1.50224 21.7627 1.23115C19.6002 0.861548 19.855 0.933415 19.6394 0.969815C18.8506 1.08765 18.2257 1.69711 18.0882 2.48275L16.6042 10.8827L6.60821 12.6467C3.31604 13.1804 0.921893 16.0605 0.998875 19.3947Z" fill="white"/>
<path d="M0.164062 20.4185L2.00273 20.0955L3.29446 27.4502L1.4558 27.7731L0.164062 20.4185Z" fill="white"/>
<path d="M22.0379 6.96729L43.1789 10.695C43.2328 10.7043 43.2874 10.709 43.3422 10.709C43.8262 10.7088 44.2297 10.3385 44.2715 9.85626C44.3133 9.37403 43.9795 8.93988 43.5027 8.85635L22.3627 5.13329C21.855 5.0436 21.3707 5.38249 21.281 5.89022C21.1913 6.39795 21.5302 6.88226 22.0379 6.97195V6.96729Z" fill="#2E4939"/>
<path d="M25.2281 10.3732C24.7275 10.2982 24.2584 10.6358 24.1706 11.1343C24.0827 11.6327 24.4082 12.1104 24.9042 12.211L38.6914 14.6423C38.7453 14.6523 38.8 14.6573 38.8548 14.6572C39.339 14.6574 39.7429 14.2873 39.785 13.8049C39.827 13.3225 39.4932 12.8881 39.0162 12.8046L25.2281 10.3732Z" fill="#2E4939"/>
<path d="M19.3908 27.3468L38.694 30.7506C38.8009 30.7696 38.9093 30.779 39.0179 30.7786C39.923 30.778 40.6972 30.1281 40.8546 29.2368L42.4758 20.0444C42.6544 19.0295 41.9767 18.0619 40.962 17.8828L21.6606 14.4826C20.6458 14.3041 19.6782 14.9817 19.499 15.9965L17.8778 25.187C17.7004 26.2009 18.3773 27.1671 19.3908 27.3468ZM21.3358 16.3213L40.639 19.7242L39.0197 28.9157L19.7156 25.5128L21.3358 16.3213Z" fill="#2E4939"/>
<path d="M5.36318 49.8233C6.07779 53.8799 9.94251 56.5915 14.0003 55.8834L43.4171 50.6941C44.2993 50.537 45.0521 49.9649 45.4396 49.1569C48.1477 48.3737 50.1782 46.1237 50.6803 43.3497C50.6803 43.331 50.6971 43.3151 50.6999 43.2965L55.8873 13.8825C56.2388 11.8936 55.7697 9.84715 54.5868 8.21005C53.404 6.57296 51.6084 5.48488 49.6097 5.19407L20.416 0.0467348C19.689 -0.0858433 18.9393 0.0803846 18.3365 0.507801C17.7193 0.928159 17.2995 1.58143 17.1736 2.31753L15.8044 10.0801L6.44772 11.7274C2.68998 12.3267 -0.0405032 15.6199 0.0665161 19.4237C0.0791771 19.7533 0.114415 20.0817 0.171983 20.4065C0.246746 20.8562 0.635439 21.1861 1.09132 21.1867C1.14289 21.1868 1.19439 21.1827 1.24532 21.1746C1.75343 21.0899 2.09681 20.6095 2.01252 20.1013C1.74738 18.5996 2.10495 17.0547 3.00291 15.8222C3.90087 14.5897 5.26184 13.7758 6.77252 13.5679L15.4609 12.0345L11.9861 31.7334C11.7857 32.8983 12.3385 34.0636 13.3674 34.6454L12.66 38.6587C11.4882 38.8432 10.5647 39.7547 10.3649 40.9239C10.3321 41.1134 10.3187 41.3057 10.3248 41.4979C8.67541 42.0834 7.27317 43.2105 6.34692 44.6955L3.30705 27.4447C3.21762 26.937 2.73352 26.5979 2.22578 26.6873C1.71805 26.7768 1.37895 27.2609 1.46838 27.7686L5.35292 49.8242L5.36318 49.8233ZM19.0095 2.64233C19.0532 2.39464 19.197 2.17589 19.4071 2.03753C19.6043 1.89461 19.8519 1.83956 20.0912 1.8854L47.6684 6.74807L46.8219 11.5417C46.7787 11.7855 46.8342 12.0365 46.9762 12.2394C47.1182 12.4422 47.3349 12.5804 47.5788 12.6234C47.6324 12.6327 47.6868 12.6373 47.7412 12.6374C48.1937 12.6371 48.5808 12.3121 48.6596 11.8665L49.4996 7.09153C52.2334 7.61666 54.1884 10.0391 54.1243 12.8222C54.1126 13.0691 54.0858 13.315 54.044 13.5586L49.7087 38.165C48.5718 36.3487 46.7382 35.0798 44.6379 34.6557L47.6693 17.4469C47.7378 17.114 47.6198 16.7702 47.3615 16.5494C47.1031 16.3286 46.7451 16.2657 46.427 16.3852C46.1088 16.5046 45.8807 16.7876 45.8316 17.1239L42.802 34.3215L15.2285 29.4598C14.9144 29.408 14.5937 29.4099 14.2803 29.4654L19.0095 2.64233ZM43.669 40.1623C44.2224 40.2595 44.7025 40.6008 44.9762 41.0914C45.25 41.582 45.2882 42.1698 45.0803 42.6917C44.7087 43.5268 43.8091 43.9942 42.9121 43.8182L14.5267 38.8137L15.18 35.1373L43.669 40.1623ZM12.5891 40.6449C12.7455 40.5352 12.9319 40.4763 13.1229 40.4759C13.1777 40.4763 13.2323 40.4813 13.2863 40.4909L42.5929 45.6578C44.3716 46.0005 46.1448 45.0393 46.8284 43.3618C47.2373 42.319 47.1564 41.1477 46.608 40.1711C46.0596 39.1944 45.1017 38.5156 43.9985 38.3218L14.5808 33.1334C14.0738 33.0434 13.7355 32.5597 13.8248 32.0526C13.9144 31.5457 14.3975 31.207 14.9047 31.2957L44.0928 36.4421C46.9321 36.8821 49.0071 39.3561 48.9461 42.2287C48.8774 43.8426 48.1162 45.3484 46.8574 46.3607C45.5987 47.373 43.9646 47.7933 42.3736 47.5142L12.9605 42.3286C12.5907 42.2617 12.2971 41.9795 12.2156 41.6127C12.1341 41.2458 12.2805 40.8658 12.5872 40.6486L12.5891 40.6449ZM30.4213 47.3033L13.1547 50.3497C12.2541 50.5282 11.35 50.0593 10.9772 49.2203C10.7693 48.6975 10.8083 48.1087 11.0834 47.6179C11.3585 47.127 11.8404 46.7865 12.3949 46.691L19.6507 45.4039L30.4213 47.3033ZM11.0248 43.2442C11.4398 43.7276 12.0087 44.0533 12.6357 44.1663L14.2859 44.4575L12.0664 44.8514C10.9634 45.0433 10.0047 45.72 9.4546 46.6951C8.90449 47.6702 8.82101 48.8407 9.22718 49.8839C9.80637 51.3299 11.2163 52.2698 12.7739 52.2481C13.0073 52.2481 13.2402 52.2278 13.4701 52.1874L35.7917 48.2534L41.1602 49.197L13.6801 54.0447C12.0931 54.3208 10.4639 53.902 9.20665 52.8949C7.93953 51.8887 7.17436 50.3798 7.11132 48.763C7.0505 46.26 8.64257 44.0148 11.0248 43.2442Z" fill="#2E4939"/>
<path d="M1.75832 24.8632C1.24286 24.8658 0.822902 24.45 0.820324 23.9346C0.817747 23.4191 1.23353 22.9992 1.74899 22.9966H1.75832C2.27379 22.9966 2.69166 23.4144 2.69166 23.9299C2.69166 24.4454 2.27379 24.8632 1.75832 24.8632Z" fill="#2E4939"/>
</g>
<defs>
<clipPath id="clip0_157_6630">
<rect width="56" height="56" fill="white"/>
</clipPath>
</defs>
</svg>
