<svg width="60" height="52" viewBox="0 0 60 52" fill="none" xmlns="http://www.w3.org/2000/svg">
<path d="M55 5.19995H57C58.1032 5.20322 58.9967 6.08928 59 7.18328V45.8583C58.9967 46.9523 58.1032 47.8384 57 47.8416H35V48.8333C34.9967 49.9273 34.1032 50.8134 33 50.8166H27C25.8968 50.8134 25.0033 49.9273 25 48.8333V47.8416H3C1.8968 47.8384 1.00329 46.9523 1 45.8583V7.18328C1.00329 6.08928 1.8968 5.20322 3 5.19995H55Z" fill="#D4E4DB"/>
<path d="M57 5.19995H54C55.1032 5.20322 55.9967 6.08928 56 7.18328V45.8583C55.9967 46.9523 55.1032 47.8384 54 47.8416H57C58.1032 47.8384 58.9967 46.9523 59 45.8583V7.18328C58.9967 6.08928 58.1032 5.20322 57 5.19995Z" fill="#D4E4DB"/>
<path d="M55 37.925V41.8917C54.9967 42.9857 54.1032 43.8718 53 43.875H33C31.7065 43.8723 30.559 44.6977 30.16 45.9179L30 45.8584V42.8834C30 41.2403 31.3431 39.9084 33 39.9084H53C54.1032 39.9051 54.9967 39.0191 55 37.925Z" fill="white"/>
<path d="M30.16 45.9179C30.0503 46.2165 29.9961 46.5323 30 46.85C30 45.207 28.6569 43.875 27 43.875H7C5.8968 43.8718 5.00329 42.9857 5 41.8917V37.925C5.00329 39.0191 5.8968 39.9051 7 39.9084H27C28.6569 39.9084 30 41.2403 30 42.8834V45.8584L30.16 45.9179Z" fill="white"/>
<path d="M30 4.2084V42.8834C30 41.2404 28.6569 39.9084 27 39.9084H7C5.8968 39.9051 5.00329 39.0191 5 37.9251V3.21673C5.00329 2.12272 5.8968 1.23667 7 1.2334H27C28.6569 1.2334 30 2.56535 30 4.2084Z" fill="#EDEFEE"/>
<path d="M27 1.2334H24C25.6569 1.2334 27 2.56535 27 4.2084V39.9084C28.6569 39.9084 30 41.2404 30 42.8834V4.2084C30 2.56535 28.6569 1.2334 27 1.2334Z" fill="white"/>
<path d="M55 3.21673V37.9251C54.9967 39.0191 54.1032 39.9051 53 39.9084H33C31.3431 39.9084 30 41.2404 30 42.8834V4.2084C30 2.56535 31.3431 1.2334 33 1.2334H53C54.1032 1.23667 54.9967 2.12272 55 3.21673Z" fill="#EDEFEE"/>
<path d="M53 1.2334H50C51.1032 1.23667 51.9967 2.12272 52 3.21673V37.9251C51.9967 39.0191 51.1032 39.9051 50 39.9084H53C54.1032 39.9051 54.9967 39.0191 55 37.9251V3.21673C54.9967 2.12272 54.1032 1.23667 53 1.2334Z" fill="white"/>
<path d="M24 13.1333V15.1167C24 15.6644 23.5523 16.1083 23 16.1083H19V26.025C19 26.5727 18.5523 27.0167 18 27.0167H16C15.4477 27.0167 15 26.5727 15 26.025V16.1083H11C10.4477 16.1083 10 15.6644 10 15.1167V13.1333C10 12.5857 10.4477 12.1417 11 12.1417H15V8.17502C15 7.62733 15.4477 7.18335 16 7.18335H18C18.5523 7.18335 19 7.62733 19 8.17502V12.1417H23C23.5523 12.1417 24 12.5857 24 13.1333Z" fill="white"/>
<path d="M48.7846 17.0999L50.8756 13.5299C51.043 13.2382 51.0387 12.8797 50.8644 12.5919C50.6901 12.3042 50.3729 12.1321 50.0346 12.1416H45.8846L43.8416 8.64797C43.6646 8.35463 43.3453 8.17505 43.0006 8.17505C42.6559 8.17505 42.3365 8.35463 42.1596 8.64797L40.1166 12.1416H35.9666C35.6298 12.1331 35.3143 12.3046 35.1404 12.5908C34.9665 12.8769 34.9608 13.2336 35.1256 13.525L37.2166 17.0999L35.1256 20.6749C34.9608 20.9663 34.9665 21.323 35.1404 21.6091C35.3143 21.8952 35.6298 22.0667 35.9666 22.0583H40.1166L42.1596 25.5519C42.3365 25.8453 42.6559 26.0248 43.0006 26.0248C43.3453 26.0248 43.6646 25.8453 43.8416 25.5519L45.8846 22.0583H50.0346C50.3714 22.0667 50.6868 21.8952 50.8608 21.6091C51.0347 21.323 51.0404 20.9663 50.8756 20.6749L48.7846 17.0999Z" fill="white"/>
<path d="M5 5.19995H3C1.8968 5.20322 1.00329 6.08928 1 7.18328V45.8583C1.00329 46.9523 1.8968 47.8384 3 47.8416H6C4.8968 47.8384 4.00329 46.9523 4 45.8583V7.18328C4.00329 6.08928 4.8968 5.20322 6 5.19995H5Z" fill="white"/>
<path d="M0 7.18335H2V15.1167H0V7.18335Z" fill="white"/>
<path d="M1 12.1418C1.55228 12.1418 2 11.6978 2 11.1501C2 10.6024 1.55228 10.1584 1 10.1584C0.447715 10.1584 0 10.6024 0 11.1501C0 11.6978 0.447715 12.1418 1 12.1418Z" fill="#2E4939"/>
<path d="M57 4.20837H56V3.2167C56 1.57365 54.6569 0.2417 53 0.2417H33C31.8513 0.241101 30.758 0.731492 30 1.58739C29.242 0.731492 28.1487 0.241101 27 0.2417H7C5.34315 0.2417 4 1.57365 4 3.2167V4.20837H3C1.34315 4.20837 0 5.54032 0 7.18337C0 7.73105 0.447715 8.17503 1 8.17503C1.55228 8.17503 2 7.73105 2 7.18337C2 6.63568 2.44772 6.1917 3 6.1917H4V41.8917C4 43.5347 5.34315 44.8667 7 44.8667H27C28.1046 44.8667 29 45.7547 29 46.85C29 47.3977 29.4477 47.8417 30 47.8417C30.5523 47.8417 31 47.3977 31 46.85C31 45.7547 31.8954 44.8667 33 44.8667H53C54.6569 44.8667 56 43.5347 56 41.8917V6.1917H57C57.5523 6.1917 58 6.63568 58 7.18337V45.8584C58 46.4061 57.5523 46.85 57 46.85H35C34.4477 46.85 34 47.294 34 47.8417V48.8334C34 49.3811 33.5523 49.825 33 49.825H27C26.4477 49.825 26 49.3811 26 48.8334V47.8417C26 47.294 25.5523 46.85 25 46.85H3C2.44772 46.85 2 46.4061 2 45.8584V15.1167C2 14.569 1.55228 14.125 1 14.125C0.447715 14.125 0 14.569 0 15.1167V45.8584C0 47.5014 1.34315 48.8334 3 48.8334H24C24 50.4764 25.3431 51.8084 27 51.8084H33C34.6569 51.8084 36 50.4764 36 48.8334H57C58.6569 48.8334 60 47.5014 60 45.8584V7.18337C60 5.54032 58.6569 4.20837 57 4.20837ZM33 2.22503H53C53.5523 2.22503 54 2.66902 54 3.2167V37.925C54 38.4727 53.5523 38.9167 53 38.9167H33C32.2951 38.9217 31.6044 39.1142 31 39.474V4.20837C31 3.113 31.8954 2.22503 33 2.22503ZM6 3.2167C6 2.66902 6.44772 2.22503 7 2.22503H27C28.1046 2.22503 29 3.113 29 4.20837V39.474C28.3956 39.1142 27.7049 38.9217 27 38.9167H7C6.44772 38.9167 6 38.4727 6 37.925V3.2167ZM27 42.8834H7C6.44772 42.8834 6 42.4394 6 41.8917V40.7176C6.32026 40.835 6.65856 40.8967 7 40.9H27C28.1046 40.9 29 41.788 29 42.8834V43.4407C28.3956 43.0809 27.7049 42.8884 27 42.8834ZM53 42.8834H33C32.2951 42.8884 31.6044 43.0809 31 43.4407V42.8834C31 41.788 31.8954 40.9 33 40.9H53C53.3414 40.8967 53.6797 40.835 54 40.7176V41.8917C54 42.4394 53.5523 42.8834 53 42.8834Z" fill="#2E4939"/>
<path d="M11 17.1H14V26.025C14 27.1203 14.8954 28.0083 16 28.0083H18C19.1046 28.0083 20 27.1203 20 26.025V17.1H23C24.1046 17.1 25 16.212 25 15.1167V13.1333C25 12.038 24.1046 11.15 23 11.15H20V8.17498C20 7.07962 19.1046 6.19165 18 6.19165H16C14.8954 6.19165 14 7.07962 14 8.17498V11.15H11C9.89543 11.15 9 12.038 9 13.1333V15.1167C9 16.212 9.89543 17.1 11 17.1ZM11 13.1333H15C15.5523 13.1333 16 12.6893 16 12.1417V8.17498H18V12.1417C18 12.6893 18.4477 13.1333 19 13.1333H23V15.1167H19C18.4477 15.1167 18 15.5606 18 16.1083V26.025H16V16.1083C16 15.5606 15.5523 15.1167 15 15.1167H11V13.1333Z" fill="#2E4939"/>
<path d="M36.06 17.1L34.2599 20.1742C33.9135 20.7606 33.9135 21.4868 34.2599 22.0732C34.6124 22.677 35.2624 23.0492 35.966 23.05H39.54L41.294 26.0488C41.6495 26.6485 42.2985 27.0167 43 27.0167C43.7014 27.0167 44.3504 26.6485 44.706 26.0488L46.46 23.05H50.034C50.7378 23.0511 51.3889 22.6804 51.743 22.0772C52.0882 21.4905 52.0882 20.7649 51.743 20.1782L49.9399 17.1L51.74 14.0259C52.0852 13.4391 52.0852 12.7135 51.74 12.1268C51.3875 11.523 50.7375 11.1509 50.034 11.15H46.46L44.706 8.15122C44.3504 7.55157 43.7014 7.18335 43 7.18335C42.2985 7.18335 41.6495 7.55157 41.294 8.15122L39.54 11.15H35.966C35.2621 11.149 34.611 11.5196 34.257 12.1228C33.9117 12.7096 33.9117 13.4352 34.257 14.0219L36.06 17.1ZM36.0519 21.0667L37.212 19.0695L38.38 21.0667H36.0519ZM38.364 17.0861L40.664 13.1254L45.298 13.1165L47.636 17.1139L45.34 21.0667H40.692L38.364 17.0861ZM43.0239 25.0542L41.852 23.05H44.189L43.0239 25.0542ZM49.9469 21.0667H47.62L48.784 19.0764L49.9469 21.0667ZM49.962 13.1086L48.7879 15.1306L47.608 13.1125L49.962 13.1086ZM42.976 9.14189L44.148 11.15H41.811L42.976 9.14189ZM38.383 13.1334L37.216 15.1276L36.053 13.1334H38.383Z" fill="#2E4939"/>
<path d="M23 31.9751H11C10.4477 31.9751 10 32.4191 10 32.9668C10 33.5144 10.4477 33.9584 11 33.9584H23C23.5523 33.9584 24 33.5144 24 32.9668C24 32.4191 23.5523 31.9751 23 31.9751Z" fill="#2E4939"/>
<path d="M49 31.9751H37C36.4477 31.9751 36 32.4191 36 32.9668C36 33.5144 36.4477 33.9584 37 33.9584H49C49.5523 33.9584 50 33.5144 50 32.9668C50 32.4191 49.5523 31.9751 49 31.9751Z" fill="#2E4939"/>
</svg>
