<svg width="56" height="56" viewBox="0 0 56 56" fill="none" xmlns="http://www.w3.org/2000/svg">
<g clip-path="url(#clip0_157_6655)">
<path d="M23.333 30.7999C23.333 31.1172 23.3237 31.4252 23.2957 31.7332C22.7979 37.8178 17.5263 42.3874 11.4327 42.0165C5.33907 41.6456 0.660633 36.4702 0.904633 30.3702C1.14863 24.2702 6.22549 19.485 12.3292 19.602C18.433 19.7189 23.3228 24.695 23.333 30.7999Z" fill="#D4E4DB"/>
<path d="M12.1335 19.6001C11.6588 19.6018 11.1847 19.633 10.7139 19.6934C16.3212 20.3865 20.5328 25.1501 20.5335 30.8001C20.5335 31.1174 20.5241 31.4254 20.4961 31.7334C20.0526 37.0045 15.9818 41.2466 10.7335 41.9068C13.7644 42.3092 16.8274 41.4471 19.2036 39.5229C21.5797 37.5987 23.0597 34.7818 23.2961 31.7334C23.3241 31.4254 23.3335 31.1174 23.3335 30.8001C23.3335 27.8297 22.1535 24.9809 20.0531 22.8805C17.9527 20.7801 15.1039 19.6001 12.1335 19.6001Z" fill="#B8D3C3"/>
<path d="M12.1329 37.3333C15.7412 37.3333 18.6663 34.4082 18.6663 30.7999C18.6663 27.1917 15.7412 24.2666 12.1329 24.2666C8.52468 24.2666 5.59961 27.1917 5.59961 30.7999C5.59961 34.4082 8.52468 37.3333 12.1329 37.3333Z" fill="#EDEFEE"/>
<path d="M12.1334 24.2666C11.6625 24.2677 11.1931 24.3196 10.7334 24.4216C13.724 25.0847 15.8524 27.7367 15.8524 30.8C15.8524 33.8632 13.724 36.5152 10.7334 37.1784C13.1804 37.7209 15.7222 36.8157 17.2754 34.8485C18.8286 32.8813 19.1195 30.1989 18.024 27.9445C16.9285 25.6901 14.6399 24.2611 12.1334 24.2666Z" fill="#D4E4DB"/>
<path d="M55.0661 32.6667C55.0661 37.8214 50.8874 42.0001 45.7327 42.0001C40.5781 42.0001 36.3994 37.8214 36.3994 32.6667C36.3994 32.3494 36.4181 32.0414 36.4461 31.7334C36.9428 26.7848 41.2327 23.0949 46.2 23.3439C51.1673 23.5929 55.0667 27.6932 55.0661 32.6667Z" fill="#D4E4DB"/>
<path d="M52.2663 26.0026C50.5249 24.2875 48.1773 23.3283 45.733 23.3333C45.2641 23.3366 44.7962 23.3749 44.333 23.4481C48.8945 24.1339 52.2683 28.0529 52.2683 32.6657C52.2683 37.2784 48.8945 41.1975 44.333 41.8833C48.3348 42.4939 52.2735 40.4532 54.0826 36.8318C55.8916 33.2105 55.1579 28.8356 52.2663 26.0026Z" fill="#B8D3C3"/>
<path d="M45.7331 37.3333C48.3104 37.3333 50.3997 35.244 50.3997 32.6667C50.3997 30.0893 48.3104 28 45.7331 28C43.1557 28 41.0664 30.0893 41.0664 32.6667C41.0664 35.244 43.1557 37.3333 45.7331 37.3333Z" fill="#EDEFEE"/>
<path d="M45.733 28C45.2569 28.0066 44.7846 28.0869 44.333 28.238C46.2756 28.8378 47.6006 30.6335 47.6006 32.6667C47.6006 34.6998 46.2756 36.4956 44.333 37.0953C44.7846 37.2465 45.2569 37.3267 45.733 37.3333C48.3103 37.3333 50.3997 35.244 50.3997 32.6667C50.3997 30.0893 48.3103 28 45.733 28Z" fill="#D4E4DB"/>
<path d="M52.2665 19.6V26.0026C49.704 23.4906 45.9281 22.6702 42.5542 23.8924C39.1803 25.1146 36.8058 28.1629 36.4465 31.7333H23.2959C23.3239 31.4253 23.3332 31.1173 23.3332 30.8C23.3294 26.8 21.1946 23.1051 17.7312 21.104C14.2677 19.1029 10.0005 19.0988 6.5332 21.0933V16.9493C13.454 14.1623 21.3703 16.902 25.0879 23.3706C25.4237 23.9308 26.0307 24.2717 26.6839 24.2666H29.8665C30.8962 24.2636 31.7301 23.4296 31.7332 22.4V12.1333H44.7999C48.9236 12.1333 52.2665 15.4762 52.2665 19.6Z" fill="#EDEFEE"/>
<path d="M42.9332 23.3333C38.1409 23.3358 34.1283 26.9653 33.6465 31.7333H36.4465C36.8767 27.4954 40.1216 24.0865 44.3332 23.4481C43.87 23.3751 43.402 23.3367 42.9332 23.3333Z" fill="#D4E4DB"/>
<path d="M44.8 12.1333H42C46.1237 12.1333 49.4667 15.4762 49.4667 19.6V24.1154C50.5071 24.5689 51.4559 25.2084 52.2667 26.0026V19.6C52.2667 15.4762 48.9237 12.1333 44.8 12.1333Z" fill="#D4E4DB"/>
<path d="M6.5334 16.9492C5.55017 17.351 4.61172 17.8546 3.7334 18.4519L6.5334 16.9492Z" fill="#EDEFEE"/>
<path d="M31.7328 12.1334V15.8667H12.1328L14.9328 4.66675H30.7995L31.7328 12.1334Z" fill="#D4E4DB"/>
<path d="M30.8 4.66675H28L28.9333 12.1334V15.8667H31.7333V12.1334L30.8 4.66675Z" fill="#B8D3C3"/>
<path d="M30.8002 2.80002V4.66671L13.0669 4.66668C12.5717 4.66932 12.0967 4.47055 11.7509 4.11602C11.3964 3.77025 11.1976 3.29523 11.2002 2.80002C11.2033 1.77036 12.0372 0.936425 13.0669 0.93335H28.9336C29.9632 0.936425 30.7971 1.77036 30.8002 2.80002Z" fill="#EDEFEE"/>
<path d="M28.9328 0.93335H26.1328C27.1625 0.936425 27.9964 1.77036 27.9995 2.80002V4.66668H30.7995V2.80002C30.7964 1.77036 29.9625 0.936425 28.9328 0.93335Z" fill="#D4E4DB"/>
<path d="M40.1327 5.60008V12.1334H36.3994V5.60008C36.3994 5.08462 36.8173 4.66675 37.3327 4.66675H39.1994C39.7149 4.66675 40.1327 5.08462 40.1327 5.60008Z" fill="#D4E4DB"/>
<path d="M31.7328 15.8667V22.4C31.7297 23.4297 30.8958 24.2636 29.8661 24.2667H26.6835C26.0304 24.2717 25.4233 23.9309 25.0875 23.3707C22.4289 18.7257 17.4848 15.8619 12.1328 15.8667H31.7328Z" fill="#D4E4DB"/>
<path d="M55.0664 43.8667V45.9293C43.9218 46.8876 33.0673 49.9903 23.0997 55.0667H13.0664C13.9811 54.46 14.9051 53.872 15.8197 53.3213C17.7144 52.1827 19.6184 51.156 21.5131 50.232C23.7064 49.168 25.8811 48.2347 27.9997 47.432C36.0766 44.3572 44.5733 42.5257 53.1997 42C54.2294 42.0031 55.0633 42.837 55.0664 43.8667Z" fill="#D4E4DB"/>
<path d="M53.1998 42C52.6445 42.0271 51.9295 42.0728 51.1054 42.1409C51.8056 42.4287 52.2637 43.1097 52.2665 43.8667V45.9293C41.1218 46.8876 30.2673 49.9903 20.2998 55.0667H23.0998C33.0673 49.9903 43.9218 46.8876 55.0665 45.9293V43.8667C55.0634 42.837 54.2295 42.0031 53.1998 42Z" fill="#B8D3C3"/>
<path d="M53.1998 42C44.5734 42.5257 36.0767 44.3572 27.9998 47.432C19.9229 44.3572 11.4262 42.5257 2.7998 42H53.1998Z" fill="#B8D3C3"/>
<path d="M27.9993 47.432C25.8806 48.2347 23.7059 49.168 21.5126 50.232C14.8466 47.99 7.93847 46.5458 0.932617 45.9293V43.8667C0.935692 42.837 1.76963 42.0031 2.79928 42C11.4257 42.5257 19.9224 44.3572 27.9993 47.432Z" fill="#D4E4DB"/>
<path d="M21.5126 50.2321C19.618 51.1561 17.714 52.1828 15.8193 53.3214C10.9574 51.8194 5.97754 50.7297 0.932617 50.0641V45.9294C7.93847 46.5459 14.8466 47.9902 21.5126 50.2321Z" fill="#B8D3C3"/>
<path d="M15.8193 53.3213C14.9046 53.872 13.9806 54.46 13.066 55.0666H2.79928C1.76963 55.0636 0.935692 54.2296 0.932617 53.2V50.064C5.97754 50.7296 10.9574 51.8192 15.8193 53.3213Z" fill="#D4E4DB"/>
<path d="M55.0663 45.9294V50.0641C48.2535 50.9582 41.5669 52.6369 35.1396 55.0668H23.0996C33.0671 49.9904 43.9216 46.8878 55.0663 45.9294Z" fill="#B8D3C3"/>
<path d="M55.0663 50.064V53.2C55.0632 54.2296 54.2293 55.0636 53.1996 55.0666H35.1396C41.5669 52.6368 48.2535 50.9581 55.0663 50.064Z" fill="#D4E4DB"/>
<path d="M52.2661 50.4858V53.2C52.263 54.2296 51.4291 55.0636 50.3994 55.0666H53.1994C54.2291 55.0636 55.063 54.2296 55.0661 53.2V50.064C54.1971 50.1788 53.2489 50.3244 52.2661 50.4858Z" fill="#B8D3C3"/>
<path d="M14.9332 15.8667L17.7332 4.66668H15.8665C15.3713 4.66932 14.8963 4.47055 14.5505 4.11602C14.196 3.77025 13.9972 3.29523 13.9999 2.80002C14.0029 1.77036 14.8369 0.936425 15.8665 0.93335H13.0665C12.0369 0.936425 11.2029 1.77036 11.1999 2.80002C11.1972 3.29523 11.396 3.77025 11.7505 4.11602C12.0963 4.47055 12.5713 4.66932 13.0665 4.66668H14.9332L12.1332 15.8667C10.2141 15.8623 8.31238 16.23 6.5332 16.9494V18.452C7.41152 17.8548 8.34997 17.3511 9.3332 16.9494C11.1124 16.23 13.0141 15.8623 14.9332 15.8667Z" fill="white"/>
<path d="M6.5334 16.9492C5.55017 17.351 4.61172 17.8546 3.7334 18.4519L6.5334 16.9492Z" fill="white"/>
<path d="M2.79928 55.0667H5.59928C4.56963 55.0636 3.73569 54.2297 3.73262 53.2V43.8667C3.73569 42.837 4.56963 42.0031 5.59928 42H2.79928C1.76963 42.0031 0.935692 42.837 0.932617 43.8667V53.2C0.935692 54.2297 1.76963 55.0636 2.79928 55.0667Z" fill="white"/>
<path d="M11.251 41.9551C11.5422 41.9812 11.8353 41.9999 12.133 41.9999C12.617 41.9963 13.1002 41.9614 13.5797 41.8954C8.79802 41.3171 4.9229 37.7439 3.95951 33.0247C2.99611 28.3056 5.16062 23.4994 9.33301 21.0932V16.9492L6.53301 18.4519V21.0932C2.2872 23.5471 0.131481 28.4776 1.2132 33.2607C2.29492 38.0439 6.36249 41.567 11.251 41.9551Z" fill="white"/>
<path d="M12.2217 11.689L14.0361 4.4463L15.8467 4.8999L14.0323 12.1426L12.2217 11.689Z" fill="white"/>
<path d="M14.0464 9.2214C13.5309 9.22398 13.111 8.8082 13.1084 8.29274C13.1058 7.77727 13.5216 7.35731 14.0371 7.35474H14.0464C14.5619 7.35474 14.9797 7.7726 14.9797 8.28807C14.9797 8.80354 14.5619 9.2214 14.0464 9.2214Z" fill="#2E4939"/>
<path d="M12.1327 23.3333C8.00896 23.3333 4.66602 26.6762 4.66602 30.7999C4.66602 34.9236 8.00896 38.2666 12.1327 38.2666C16.2564 38.2666 19.5993 34.9236 19.5993 30.7999C19.5947 26.6781 16.2545 23.3379 12.1327 23.3333ZM12.1327 36.3999C9.03989 36.3999 6.53268 33.8927 6.53268 30.7999C6.53268 27.7071 9.03989 25.1999 12.1327 25.1999C15.2255 25.1999 17.7327 27.7071 17.7327 30.7999C17.7296 33.8914 15.2242 36.3968 12.1327 36.3999Z" fill="#2E4939"/>
<path d="M55.9998 32.6667C55.999 30.0533 54.997 27.5396 53.1998 25.6424V19.6C53.1946 14.9629 49.4368 11.2051 44.7998 11.2H41.0664V5.6C41.0664 4.56907 40.2307 3.73333 39.1998 3.73333H37.3331C36.3022 3.73333 35.4664 4.56907 35.4664 5.6V11.2H32.5572L31.7331 4.6088V2.8C31.7331 1.2536 30.4795 0 28.9331 0H13.0664C11.52 0 10.2664 1.2536 10.2664 2.8C10.2664 4.3464 11.52 5.6 13.0664 5.6H29.9756L30.7998 12.1912V14.9333H13.3287L14.0278 12.1333C14.1152 11.8076 14.02 11.46 13.7789 11.2242C13.5378 10.9884 13.1882 10.901 12.8645 10.9956C12.5408 11.0902 12.2933 11.3521 12.2171 11.6807L11.3976 14.9567C9.61355 15.0332 7.85539 15.4119 6.19803 16.0767C6.17843 16.0841 6.16069 16.0925 6.14203 16.1009C5.11063 16.5197 4.12666 17.0469 3.20669 17.6736C2.92927 17.8617 2.77324 18.1835 2.7974 18.5177C2.82155 18.852 3.02221 19.148 3.3238 19.2943C3.62538 19.4405 3.98207 19.4147 4.25949 19.2267C4.69067 18.9339 5.13815 18.6659 5.59976 18.424V20.5921C2.09416 22.8243 -0.0207717 26.6992 -0.00182692 30.8551C0.0171178 35.0111 2.16729 38.8665 5.69309 41.0667H2.79976C1.25336 41.0667 -0.000239485 42.3203 -0.000239485 43.8667V53.2C-0.000239485 54.7464 1.25336 56 2.79976 56H53.1998C54.7462 56 55.9998 54.7464 55.9998 53.2V43.8667C55.9998 42.3203 54.7462 41.0667 53.1998 41.0667H51.6131C54.3586 39.1504 55.9961 36.0148 55.9998 32.6667ZM37.3331 5.6H39.1998V11.2H37.3331V5.6ZM29.8664 3.73333H13.0664C12.551 3.73333 12.1331 3.31547 12.1331 2.8C12.1331 2.28453 12.551 1.86667 13.0664 1.86667H28.9331C29.4486 1.86667 29.8664 2.28453 29.8664 2.8V3.73333ZM30.7998 16.8V22.4C30.7998 22.9155 30.3819 23.3333 29.8664 23.3333H26.681C26.3614 23.3397 26.0627 23.1754 25.897 22.9021C24.4057 20.3127 22.213 18.1974 19.5718 16.8H30.7998ZM7.46643 17.6045C13.8385 15.3448 20.9148 17.9656 24.2776 23.8308C24.777 24.6834 25.6929 25.2052 26.681 25.2H29.8664C31.4128 25.2 32.6664 23.9464 32.6664 22.4V13.0667H44.7998C48.4063 13.0708 51.329 15.9934 51.3331 19.6V24.0725C48.4612 22.1934 44.8392 21.877 41.685 23.2296C38.5307 24.5822 36.2632 27.4242 35.6447 30.8H24.2664C24.2692 26.7421 22.2424 22.9516 18.866 20.7007C15.4896 18.4498 11.2111 18.0367 7.46643 19.6V17.6045ZM27.9914 46.4352C24.1434 44.9926 20.1987 43.8224 16.1866 42.9333H39.8092C35.7921 43.8199 31.8429 44.9901 27.9914 46.4352ZM18.5731 41.0667C21.5468 39.1992 23.5664 36.1357 24.1106 32.6667H35.4664C35.4701 36.0148 37.1076 39.1504 39.8531 41.0667H18.5731ZM1.86643 30.8C1.86643 25.1299 6.46297 20.5333 12.1331 20.5333C17.8032 20.5333 22.3998 25.1299 22.3998 30.8C22.3998 36.4701 17.8032 41.0667 12.1331 41.0667C6.46574 41.06 1.87311 36.4674 1.86643 30.8ZM2.79416 42.9333C10.4923 43.3983 18.0893 44.9247 25.3696 47.4693C24.0754 48.0088 22.7687 48.5956 21.4496 49.2296C15.097 47.1206 8.52846 45.7287 1.86643 45.08V43.8667C1.86642 43.3534 2.28088 42.9364 2.79416 42.9333ZM15.691 52.3133C11.1688 50.9399 6.54669 49.9201 1.86643 49.2632V46.9523C7.70205 47.5335 13.4649 48.6972 19.0687 50.4261C17.9431 51.0179 16.8172 51.6469 15.691 52.3133ZM1.86643 53.2V51.1467C5.8123 51.7158 9.71578 52.5477 13.5508 53.6368C13.2979 53.7992 13.044 53.9616 12.7911 54.1287H2.79976C2.28611 54.1287 1.869 53.7136 1.86643 53.2ZM54.1331 49.2576C47.5861 50.167 41.1607 51.8023 34.9755 54.1333H27.1523C35.6996 50.3002 44.811 47.8758 54.1331 46.9541V49.2576ZM53.1998 54.1333H40.7566C45.1331 52.7996 49.6049 51.8011 54.1331 51.1467V53.2C54.1331 53.7155 53.7152 54.1333 53.1998 54.1333ZM54.1331 45.08C43.2406 46.1162 32.6393 49.1871 22.8795 54.1333H16.2911C20.1042 51.8485 24.1116 49.9049 28.2667 48.3252L28.2928 48.3149C36.2759 45.2675 44.6762 43.4528 53.2054 42.9333C53.7186 42.9364 54.1331 43.3534 54.1331 43.8667V45.08ZM45.7331 41.0667C41.0939 41.0667 37.3331 37.3059 37.3331 32.6667C37.3331 28.0275 41.0939 24.2667 45.7331 24.2667C50.3723 24.2667 54.1331 28.0275 54.1331 32.6667C54.1274 37.3035 50.3699 41.061 45.7331 41.0667Z" fill="#2E4939"/>
<path d="M45.7328 27.0667C42.64 27.0667 40.1328 29.5739 40.1328 32.6667C40.1328 35.7594 42.64 38.2667 45.7328 38.2667C48.8256 38.2667 51.3328 35.7594 51.3328 32.6667C51.3297 29.5751 48.8243 27.0697 45.7328 27.0667ZM45.7328 36.4C43.6709 36.4 41.9995 34.7285 41.9995 32.6667C41.9995 30.6048 43.6709 28.9333 45.7328 28.9333C47.7947 28.9333 49.4661 30.6048 49.4661 32.6667C49.4661 34.7285 47.7947 36.4 45.7328 36.4Z" fill="#2E4939"/>
<path d="M45.7331 33.6001C46.2486 33.6001 46.6665 33.1822 46.6665 32.6667C46.6665 32.1513 46.2486 31.7334 45.7331 31.7334C45.2177 31.7334 44.7998 32.1513 44.7998 32.6667C44.7998 33.1822 45.2177 33.6001 45.7331 33.6001Z" fill="#2E4939"/>
<path d="M12.1335 31.7334C12.649 31.7334 13.0669 31.3155 13.0669 30.8C13.0669 30.2846 12.649 29.8667 12.1335 29.8667C11.6181 29.8667 11.2002 30.2846 11.2002 30.8C11.2002 31.3155 11.6181 31.7334 12.1335 31.7334Z" fill="#2E4939"/>
</g>
<defs>
<clipPath id="clip0_157_6655">
<rect width="56" height="56" fill="white"/>
</clipPath>
</defs>
</svg>
