<svg width="56" height="56" viewBox="0 0 56 56" fill="none" xmlns="http://www.w3.org/2000/svg">
<g clip-path="url(#clip0_157_6738)">
<path d="M51.3399 7.30428C51.5863 7.30601 51.8221 7.4051 51.9957 7.57995C52.1693 7.7548 52.2667 7.99121 52.2667 8.23762V28C52.2667 43.4681 42.8979 49.154 28.6413 54.9463C28.2298 55.1115 27.7704 55.1115 27.3589 54.9463C13.1022 49.1503 3.7334 43.4644 3.7334 28V8.23482C3.73339 7.98841 3.83083 7.752 4.00445 7.57715C4.17807 7.4023 4.4138 7.30321 4.6602 7.30148C12.6983 7.2584 20.5847 5.1094 27.5334 1.06868C27.6731 0.980435 27.8349 0.933594 28.0001 0.933594C28.1653 0.933594 28.3271 0.980435 28.4667 1.06868C35.4152 5.11038 43.3016 7.26035 51.3399 7.30428Z" fill="#D4E4DB"/>
<path d="M52.2663 8.23206V28.0001C52.2663 43.4654 42.8956 49.1494 28.6436 54.9454C28.2289 55.104 27.7703 55.104 27.3556 54.9454C27.1036 54.8427 26.8516 54.7307 26.5996 54.6281C40.4223 48.9441 49.4663 43.1854 49.4663 28.0001V7.2334C50.0823 7.27073 50.7076 7.29873 51.3423 7.30807C51.5866 7.3105 51.8202 7.40863 51.993 7.58139C52.1657 7.75415 52.2638 7.98776 52.2663 8.23206Z" fill="#B8D3C3"/>
<path d="M28.2801 51.0533C28.1917 51.0916 28.0964 51.1113 28.0001 51.1113C27.9038 51.1113 27.8085 51.0916 27.7201 51.0533C15.1976 45.5009 7.4668 41.3793 7.4668 28V11.7787C7.46821 11.5445 7.55756 11.3195 7.71713 11.1482C7.8767 10.9768 8.09483 10.8717 8.32826 10.8537C15.0452 10.3198 21.5874 8.44752 27.5699 5.34705C27.7021 5.27582 27.8499 5.23853 28.0001 5.23853C28.1503 5.23853 28.2982 5.27582 28.4304 5.34705C34.413 8.4471 40.9551 10.3194 47.672 10.8537C47.9054 10.8717 48.1236 10.9768 48.2831 11.1482C48.4427 11.3195 48.5321 11.5445 48.5335 11.7787V28C48.5335 41.3793 40.8027 45.5009 28.2801 51.0533Z" fill="#EDEFEE"/>
<path d="M47.6715 10.8537C40.9546 10.3194 34.4125 8.4471 28.4299 5.34705C28.2976 5.27582 28.1498 5.23853 27.9996 5.23853C27.8494 5.23853 27.7016 5.27582 27.5693 5.34705C27.2725 5.50478 26.944 5.67278 26.5996 5.84358C32.3237 8.64014 38.5214 10.3386 44.8715 10.8509C45.1054 10.869 45.3239 10.9745 45.4836 11.1464C45.6432 11.3183 45.7322 11.544 45.7329 11.7787V28C45.7329 40.9733 38.4604 45.2415 26.5996 50.554C26.9686 50.7189 27.3419 50.885 27.7196 51.0524C27.808 51.0907 27.9033 51.1104 27.9996 51.1104C28.0959 51.1104 28.1912 51.0907 28.2796 51.0524C40.8021 45.5009 48.5329 41.3793 48.5329 28V11.7787C48.5315 11.5445 48.4422 11.3195 48.2826 11.1482C48.123 10.9768 47.9049 10.8717 47.6715 10.8537Z" fill="#D4E4DB"/>
<path d="M27.9997 42C36.2472 42 42.9331 35.3141 42.9331 27.0666C42.9331 18.8192 36.2472 12.1333 27.9997 12.1333C19.7523 12.1333 13.0664 18.8192 13.0664 27.0666C13.0664 35.3141 19.7523 42 27.9997 42Z" fill="#D4E4DB"/>
<path d="M27.9996 12.1333C27.5273 12.1333 27.0607 12.1613 26.5996 12.2042C30.3009 12.5517 33.7394 14.2677 36.2422 17.0165C38.7451 19.7653 40.1322 23.3491 40.1322 27.0666C40.1322 30.7842 38.7451 34.368 36.2422 37.1168C33.7394 39.8656 30.3009 41.5816 26.5996 41.929C27.0607 41.972 27.5273 42 27.9996 42C31.9602 42 35.7585 40.4266 38.5591 37.6261C41.3596 34.8256 42.9329 31.0272 42.9329 27.0666C42.9329 23.1061 41.3596 19.3077 38.5591 16.5072C35.7585 13.7066 31.9602 12.1333 27.9996 12.1333Z" fill="#B8D3C3"/>
<path d="M38.2667 26.1334V28C38.2653 28.4947 38.0681 28.9686 37.7184 29.3184C37.3686 29.6681 36.8947 29.8652 36.4001 29.8667H30.8001V35.4667C30.7986 35.9613 30.6014 36.4353 30.2517 36.785C29.9019 37.1348 29.428 37.3319 28.9334 37.3334H27.0667C26.5721 37.3319 26.0982 37.1348 25.7484 36.785C25.3987 36.4353 25.2015 35.9613 25.2001 35.4667V29.8667H19.6001C19.1054 29.8652 18.6315 29.6681 18.2818 29.3184C17.932 28.9686 17.7349 28.4947 17.7334 28V26.1334C17.7349 25.6388 17.932 25.1648 18.2818 24.8151C18.6315 24.4653 19.1054 24.2682 19.6001 24.2667H25.2001V18.6667C25.2015 18.1721 25.3987 17.6982 25.7484 17.3484C26.0982 16.9987 26.5721 16.8015 27.0667 16.8H28.9334C29.428 16.8015 29.9019 16.9987 30.2517 17.3484C30.6014 17.6982 30.7986 18.1721 30.8001 18.6667V24.2667H36.4001C36.8947 24.2682 37.3686 24.4653 37.7184 24.8151C38.0681 25.1648 38.2653 25.6388 38.2667 26.1334Z" fill="#EDEFEE"/>
<path d="M3.7334 8.23485V28C3.7334 43.191 12.7727 48.9468 26.6001 54.6346C28.0999 55.2515 28.0215 55.202 29.4001 54.6346C15.5727 48.9431 6.5334 43.1872 6.5334 28V8.23485C6.53339 7.98844 6.63083 7.75203 6.80445 7.57718C6.97808 7.40233 7.2138 7.30324 7.4602 7.30151H4.6602C4.4138 7.30324 4.17807 7.40233 4.00445 7.57718C3.83083 7.75203 3.73339 7.98844 3.7334 8.23485Z" fill="white"/>
<path d="M2.7998 20.5295H4.66647V27.9962H2.7998V20.5295Z" fill="white"/>
<path d="M3.75149 25.1999C3.50395 25.2012 3.26606 25.104 3.09016 24.9299C2.91425 24.7557 2.81473 24.5188 2.81349 24.2713C2.81225 24.0237 2.9094 23.7858 3.08356 23.6099C3.25771 23.434 3.49462 23.3345 3.74216 23.3333H3.75149C3.99902 23.3333 4.23642 23.4316 4.41145 23.6066C4.58649 23.7817 4.68482 24.019 4.68482 24.2666C4.68482 24.5141 4.58649 24.7515 4.41145 24.9266C4.23642 25.1016 3.99902 25.1999 3.75149 25.1999Z" fill="#2E4939"/>
<path d="M27.0077 55.8077C27.6441 56.0647 28.3555 56.0647 28.9919 55.8077C42.2369 50.4261 53.1998 44.6198 53.1998 28V8.23478C53.1967 7.74467 53.0023 7.27518 52.6579 6.92644C52.3135 6.57771 51.8465 6.37735 51.3565 6.36811C43.4866 6.34049 35.7627 4.24069 28.9621 0.279975C28.6743 0.0975758 28.3405 0.000732422 27.9998 0.000732422C27.6591 0.000732422 27.3253 0.0975758 27.0375 0.279975C20.2375 4.24188 12.514 6.34297 4.64407 6.37184C4.15453 6.38083 3.68783 6.58056 3.34336 6.92852C2.99888 7.27648 2.80386 7.74516 2.7998 8.23478V20.5333C2.7998 20.7808 2.89814 21.0182 3.07317 21.1933C3.24821 21.3683 3.4856 21.4666 3.73314 21.4666C3.98067 21.4666 4.21807 21.3683 4.3931 21.1933C4.56814 21.0182 4.66647 20.7808 4.66647 20.5333V8.29078C4.66647 8.27211 4.67767 8.25718 4.67767 8.23851C17.2683 8.00891 25.7337 3.29744 27.9709 1.85918C35.0629 6.00003 43.1208 8.19905 51.3331 8.23478V28C51.3331 42.1334 43.5734 47.8725 28.291 54.081C28.1041 54.1557 27.8956 54.1557 27.7086 54.081C12.4262 47.8688 4.66647 42.1297 4.66647 28C4.66647 27.7524 4.56814 27.515 4.3931 27.34C4.21807 27.165 3.98067 27.0666 3.73314 27.0666C3.4856 27.0666 3.24821 27.165 3.07317 27.34C2.89814 27.515 2.7998 27.7524 2.7998 28C2.7998 44.6198 13.7627 50.4261 27.0077 55.8077Z" fill="#2E4939"/>
<path d="M27.3409 51.9093C27.5485 52.001 27.7729 52.0483 27.9999 52.0483C28.2268 52.0483 28.4512 52.001 28.6588 51.9093C41.606 46.1655 49.4665 41.6902 49.4665 28.0001V11.7797C49.4679 11.3108 49.2918 10.8588 48.9736 10.5144C48.6553 10.1701 48.2186 9.95886 47.7511 9.92327C41.1614 9.3959 34.7428 7.56137 28.8697 4.52674C28.6022 4.38384 28.3036 4.30908 28.0003 4.30908C27.6971 4.30908 27.3985 4.38384 27.1309 4.52674C21.2581 7.56179 14.8393 9.39634 8.24961 9.92327C7.782 9.95885 7.34516 10.17 7.02679 10.5143C6.70842 10.8587 6.53209 11.3107 6.53321 11.7797V28.0001C6.53321 41.6902 14.3937 46.1655 27.3409 51.9093ZM8.40734 11.7834C15.2438 11.2367 21.9022 9.32957 27.9915 6.17407C34.0899 9.3277 40.7561 11.2334 47.5999 11.7797V28.0001C47.5999 40.7783 40.1537 44.7618 27.9999 50.1583C15.846 44.7637 8.39988 40.7802 8.39988 28.0001L8.40734 11.7834Z" fill="#2E4939"/>
<path d="M27.9995 42.9333C31.1376 42.9333 34.2053 42.0027 36.8145 40.2593C39.4238 38.5158 41.4575 36.0378 42.6584 33.1385C43.8593 30.2393 44.1735 27.049 43.5613 23.9712C42.9491 20.8934 41.4379 18.0662 39.2189 15.8472C36.9999 13.6282 34.1727 12.1171 31.0949 11.5048C28.0171 10.8926 24.8268 11.2068 21.9276 12.4077C19.0283 13.6086 16.5503 15.6423 14.8068 18.2516C13.0634 20.8608 12.1328 23.9285 12.1328 27.0666C12.1375 31.2733 13.8107 35.3063 16.7852 38.2809C19.7598 41.2554 23.7928 42.9286 27.9995 42.9333ZM27.9995 13.0666C30.7684 13.0666 33.4752 13.8877 35.7775 15.4261C38.0798 16.9644 39.8742 19.1509 40.9338 21.7091C41.9934 24.2672 42.2707 27.0822 41.7305 29.7979C41.1903 32.5136 39.8569 35.0082 37.899 36.9661C35.941 38.9241 33.4465 40.2574 30.7307 40.7976C28.015 41.3378 25.2001 41.0606 22.6419 40.0009C20.0837 38.9413 17.8972 37.1469 16.3589 34.8446C14.8206 32.5423 13.9995 29.8356 13.9995 27.0666C14.0037 23.3549 15.48 19.7964 18.1046 17.1718C20.7292 14.5472 24.2877 13.0708 27.9995 13.0666Z" fill="#2E4939"/>
<path d="M24.2665 30.8V35.4667C24.2665 36.2093 24.5615 36.9215 25.0866 37.4466C25.6117 37.9717 26.3239 38.2667 27.0665 38.2667H28.9331C29.6757 38.2667 30.3879 37.9717 30.913 37.4466C31.4381 36.9215 31.7331 36.2093 31.7331 35.4667V30.8H36.3998C37.1424 30.8 37.8546 30.505 38.3797 29.9799C38.9048 29.4548 39.1998 28.7426 39.1998 28V26.1334C39.1998 25.3908 38.9048 24.6786 38.3797 24.1535C37.8546 23.6284 37.1424 23.3334 36.3998 23.3334H31.7331V18.6667C31.7331 17.9241 31.4381 17.2119 30.913 16.6868C30.3879 16.1617 29.6757 15.8667 28.9331 15.8667H27.0665C26.3239 15.8667 25.6117 16.1617 25.0866 16.6868C24.5615 17.2119 24.2665 17.9241 24.2665 18.6667V23.3334H19.5998C18.8572 23.3334 18.145 23.6284 17.6199 24.1535C17.0948 24.6786 16.7998 25.3908 16.7998 26.1334V28C16.7998 28.7426 17.0948 29.4548 17.6199 29.9799C18.145 30.505 18.8572 30.8 19.5998 30.8H24.2665ZM18.6665 28V26.1334C18.6665 25.8858 18.7648 25.6484 18.9398 25.4734C19.1149 25.2984 19.3523 25.2 19.5998 25.2H25.1998C25.4473 25.2 25.6847 25.1017 25.8598 24.9267C26.0348 24.7516 26.1331 24.5142 26.1331 24.2667V18.6667C26.1331 18.4192 26.2315 18.1818 26.4065 18.0067C26.5815 17.8317 26.8189 17.7334 27.0665 17.7334H28.9331C29.1807 17.7334 29.4181 17.8317 29.5931 18.0067C29.7681 18.1818 29.8665 18.4192 29.8665 18.6667V24.2667C29.8665 24.5142 29.9648 24.7516 30.1398 24.9267C30.3149 25.1017 30.5523 25.2 30.7998 25.2H36.3998C36.6473 25.2 36.8847 25.2984 37.0598 25.4734C37.2348 25.6484 37.3331 25.8858 37.3331 26.1334V28C37.3331 28.2476 37.2348 28.485 37.0598 28.66C36.8847 28.835 36.6473 28.9334 36.3998 28.9334H30.7998C30.5523 28.9334 30.3149 29.0317 30.1398 29.2067C29.9648 29.3818 29.8665 29.6192 29.8665 29.8667V35.4667C29.8665 35.7142 29.7681 35.9516 29.5931 36.1267C29.4181 36.3017 29.1807 36.4 28.9331 36.4H27.0665C26.8189 36.4 26.5815 36.3017 26.4065 36.1267C26.2315 35.9516 26.1331 35.7142 26.1331 35.4667V29.8667C26.1331 29.6192 26.0348 29.3818 25.8598 29.2067C25.6847 29.0317 25.4473 28.9334 25.1998 28.9334H19.5998C19.3523 28.9334 19.1149 28.835 18.9398 28.66C18.7648 28.485 18.6665 28.2476 18.6665 28Z" fill="#2E4939"/>
</g>
<defs>
<clipPath id="clip0_157_6738">
<rect width="56" height="56" fill="white"/>
</clipPath>
</defs>
</svg>
