<svg width="56" height="56" viewBox="0 0 56 56" fill="none" xmlns="http://www.w3.org/2000/svg">
<g clip-path="url(#clip0_157_6787)">
<path d="M55.0668 44.7952C55.0668 50.4693 42.9532 55.0604 28.0029 55.0604C27.5364 55.0604 27.0699 55.0604 26.6124 55.0514H26.594C12.297 54.7712 0.939453 50.292 0.939453 44.7952C0.939453 42.4059 3.0857 40.2037 6.69724 38.4586C7.35982 38.1318 8.0694 37.8332 8.82512 37.5439C9.56374 38.6184 10.3946 39.627 11.3076 40.5583C11.4755 40.7355 11.6433 40.9034 11.8206 41.0619C12.1568 41.3981 12.502 41.7061 12.8566 42.0048C12.8754 42.0236 12.8848 42.0419 12.9032 42.0513C13.2206 42.3222 13.538 42.5832 13.8738 42.8258C13.9502 42.8912 14.0314 42.9501 14.1164 43.0031C14.4526 43.2646 14.7978 43.5072 15.1524 43.7405C15.2032 43.7751 15.2562 43.8063 15.3113 43.834C15.5911 44.0297 15.8709 44.198 16.1605 44.3659C16.3938 44.515 16.6364 44.6457 16.8791 44.7764C17.2055 44.9631 17.5417 45.131 17.8869 45.2895C18.1573 45.4296 18.4469 45.5509 18.7267 45.6817C19.1561 45.8683 19.5948 46.0362 20.0331 46.1947C20.2758 46.2789 20.509 46.363 20.7517 46.4374C21.0879 46.5497 21.4236 46.6523 21.7692 46.7454C21.7889 46.7573 21.8115 46.7638 21.8342 46.7642C21.8419 46.7714 21.8521 46.7749 21.8624 46.7736C22.0862 46.8389 22.3195 46.8949 22.5532 46.9415C22.569 46.9603 22.5946 46.9675 22.6181 46.9603C22.8513 47.0265 23.0884 47.0795 23.3277 47.1188C23.4157 47.1465 23.5062 47.1649 23.5981 47.1747C23.8501 47.2213 24.1022 47.2683 24.3636 47.3054C25.0805 47.4242 25.8033 47.5054 26.5287 47.5481H26.603C26.7154 47.5575 26.8367 47.5669 26.9392 47.5669C27.2938 47.5853 27.6484 47.5947 28.0029 47.5947C28.3575 47.5947 28.7121 47.5853 29.0671 47.5669C29.1974 47.5669 29.3375 47.5575 29.4776 47.5481C30.203 47.5054 30.9258 47.4242 31.6427 47.3054C31.9041 47.2683 32.1557 47.2213 32.4078 47.1747C32.4996 47.1649 32.5902 47.1465 32.6786 47.1188C32.9179 47.0795 33.1545 47.0265 33.3878 46.9603C33.4113 46.9675 33.4369 46.9603 33.4531 46.9415C33.6864 46.8949 33.9196 46.8389 34.1435 46.7736C34.1537 46.7749 34.1644 46.7714 34.1717 46.7642C34.1947 46.7638 34.2174 46.7573 34.237 46.7454C34.5822 46.6523 34.9184 46.5497 35.2542 46.4374C35.4969 46.363 35.7301 46.2789 35.9727 46.1947C36.4115 46.0362 36.8502 45.8683 37.2796 45.6817C37.5594 45.5509 37.8486 45.4296 38.1194 45.2895C38.4646 45.131 38.8004 44.9631 39.1272 44.7764C39.3698 44.6457 39.6125 44.515 39.8457 44.3659C40.1349 44.198 40.4152 44.0297 40.695 43.834C40.7497 43.8063 40.8027 43.7751 40.8535 43.7405C41.2081 43.5072 41.5537 43.2646 41.8895 43.0031C41.9749 42.9501 42.0556 42.8912 42.1321 42.8258C42.4683 42.5832 42.7853 42.3222 43.1027 42.0513C43.1215 42.0419 43.1309 42.0236 43.1493 42.0048C43.5038 41.7061 43.8494 41.3981 44.1852 41.0619C44.3625 40.9034 44.5304 40.7355 44.6987 40.5583C45.3493 39.9004 45.9543 39.1989 46.5092 38.4586C46.7424 38.16 46.9663 37.852 47.1807 37.5439C52.0619 39.401 55.0668 41.9672 55.0668 44.7952Z" fill="#B8D3C3"/>
<path d="M52.267 44.7951C52.267 50.2919 40.9095 54.7711 26.6124 55.0513H26.594C12.297 54.7711 0.939453 50.2919 0.939453 44.7951C0.939453 42.4058 3.0857 40.2036 6.69724 38.4585C7.25217 39.1988 7.85708 39.9003 8.50771 40.5582C8.67602 40.7355 8.84391 40.9034 9.0212 41.0618C9.35698 41.3981 9.70258 41.7061 10.0572 42.0047C10.0755 42.0235 10.0849 42.0418 10.1037 42.0512C10.4211 42.3221 10.7381 42.5831 11.0743 42.8258C11.1504 42.8911 11.2315 42.9501 11.317 43.003C11.6527 43.2645 11.9979 43.5071 12.3529 43.7404C12.4038 43.775 12.4567 43.8062 12.5114 43.8339C12.7912 44.0296 13.0715 44.1979 13.3607 44.3658C13.5939 44.5149 13.8366 44.6456 14.0792 44.7763C14.406 44.963 14.7418 45.1309 15.087 45.2894C15.3578 45.4295 15.6471 45.5509 15.9269 45.6816C16.3562 45.8683 16.7949 46.0361 17.2337 46.1946C17.4763 46.2788 17.7096 46.363 17.9522 46.4373C18.288 46.5496 18.6242 46.6522 18.9694 46.7453C18.989 46.7573 19.0117 46.7637 19.0347 46.7641C19.042 46.7714 19.0523 46.7748 19.0625 46.7735C19.2868 46.8389 19.52 46.8948 19.7533 46.9414C19.7695 46.9602 19.7952 46.9674 19.8187 46.9602C20.0519 47.0264 20.2886 47.0794 20.5278 47.1187C20.6158 47.1464 20.7068 47.1648 20.7986 47.1746C21.0503 47.2212 21.3023 47.2682 21.5638 47.3054C22.2806 47.4241 23.0034 47.5053 23.7288 47.548C23.8689 47.5574 24.0086 47.5668 24.1393 47.5668C24.4939 47.5852 24.8489 47.5946 25.2035 47.5946C25.5581 47.5946 25.9126 47.5852 26.2672 47.5668C26.3514 47.5668 26.4351 47.5574 26.5287 47.548H26.603C26.7154 47.5574 26.8367 47.5668 26.9392 47.5668C27.2938 47.5852 27.6484 47.5946 28.0029 47.5946C28.3575 47.5946 28.7121 47.5852 29.0671 47.5668C29.1974 47.5668 29.3375 47.5574 29.4776 47.548C30.203 47.5053 30.9258 47.4241 31.6427 47.3054C31.9041 47.2682 32.1557 47.2212 32.4078 47.1746C32.4996 47.1648 32.5902 47.1464 32.6786 47.1187C32.9179 47.0794 33.1545 47.0264 33.3878 46.9602C33.4113 46.9674 33.4369 46.9602 33.4531 46.9414C33.6864 46.8948 33.9196 46.8389 34.1435 46.7735C34.1537 46.7748 34.1644 46.7714 34.1717 46.7641C34.1947 46.7637 34.2174 46.7573 34.237 46.7453C34.5822 46.6522 34.9184 46.5496 35.2542 46.4373C35.4969 46.363 35.7301 46.2788 35.9727 46.1946C36.4115 46.0361 36.8502 45.8683 37.2796 45.6816C37.5594 45.5509 37.8486 45.4295 38.1194 45.2894C38.4646 45.1309 38.8004 44.963 39.1272 44.7763C39.3698 44.6456 39.6125 44.5149 39.8457 44.3658C40.1349 44.1979 40.4152 44.0296 40.695 43.8339C40.7497 43.8062 40.8027 43.775 40.8535 43.7404C41.2081 43.5071 41.5537 43.2645 41.8895 43.003C41.9749 42.9501 42.0556 42.8911 42.1321 42.8258C42.4683 42.5831 42.7853 42.3221 43.1027 42.0512C43.1215 42.0418 43.1309 42.0235 43.1493 42.0047C43.5038 41.7061 43.8494 41.3981 44.1852 41.0618C44.3625 40.9034 44.5304 40.7355 44.6987 40.5582C45.3493 39.9003 45.9543 39.1988 46.5092 38.4585C50.1207 40.2036 52.267 42.4058 52.267 44.7951Z" fill="#EDEFEE"/>
<path d="M50.3638 30.9181C50.289 31.1607 50.2142 31.4034 50.1305 31.646C49.981 32.1313 49.8037 32.6072 49.6076 33.0737C49.5145 33.307 49.4115 33.5308 49.309 33.7641C49.2065 33.9977 49.1039 34.2216 48.9916 34.4454C48.8237 34.8094 48.637 35.164 48.4414 35.5186C48.32 35.7428 48.1893 35.9667 48.0586 36.1905C47.7877 36.6481 47.4985 37.1052 47.1811 37.5439C46.4425 38.6183 45.612 39.6269 44.6991 40.5582C44.5308 40.7261 44.3629 40.894 44.1856 41.0619H41.3857C41.5635 40.894 41.7313 40.7261 41.8992 40.5582C42.8122 39.6269 43.6431 38.6183 44.3817 37.5439C44.6991 37.1052 44.9883 36.6481 45.2587 36.1905C45.3894 35.9667 45.5202 35.7428 45.6415 35.5186C45.8376 35.164 46.0243 34.8094 46.1922 34.4454C46.3041 34.2216 46.4066 33.9977 46.5096 33.7641C46.6121 33.5308 46.7146 33.307 46.8082 33.0737C47.0038 32.6072 47.1811 32.1313 47.3306 31.646C47.4148 31.4034 47.4891 31.1607 47.5639 30.9181C47.9232 29.7283 48.182 28.5108 48.3384 27.2783L50.3638 30.9181Z" fill="#D4E4DB"/>
<path d="M44.1854 41.062C43.8496 41.3888 43.504 41.7062 43.1495 42.0048C43.1311 42.0236 43.1217 42.042 43.1029 42.0514C42.7855 42.3222 42.4685 42.5833 42.1323 42.8259C42.0558 42.8913 41.9751 42.9502 41.8896 43.0032C41.5539 43.2646 41.2083 43.5073 40.8537 43.7405C40.8029 43.7752 40.7499 43.8063 40.6952 43.8341C40.4218 44.0268 40.1386 44.2041 39.8459 44.366C39.6127 44.5151 39.37 44.6458 39.1274 44.7765C38.7912 44.9538 38.4554 45.1311 38.1196 45.2896C37.8394 45.4297 37.569 45.551 37.2797 45.6817C36.8504 45.8684 36.4117 46.0363 35.9729 46.1948C35.7397 46.2884 35.497 46.3631 35.2544 46.4375C34.9186 46.5498 34.5824 46.6523 34.2372 46.7455C34.2176 46.7574 34.1949 46.7638 34.1719 46.7643L37.3357 41.062H44.1854Z" fill="#B8D3C3"/>
<path d="M21.8339 46.7643C21.8112 46.7638 21.7886 46.7574 21.7689 46.7455C21.4233 46.6523 21.0875 46.5498 20.7513 46.4375C20.5087 46.3631 20.266 46.2884 20.0328 46.1948C19.5945 46.0363 19.1557 45.8684 18.7264 45.6817C18.4372 45.551 18.1664 45.4297 17.8865 45.2896C17.5503 45.1311 17.2146 44.9538 16.8788 44.7765C16.6361 44.6458 16.3935 44.5151 16.1602 44.366C15.8676 44.2041 15.5839 44.0268 15.311 43.8341C15.2558 43.8063 15.2029 43.7752 15.152 43.7405C14.7975 43.5073 14.4523 43.2646 14.1161 43.0032C14.0311 42.9502 13.9499 42.8913 13.8734 42.8259C13.5377 42.5833 13.2202 42.3222 12.9028 42.0514C12.8845 42.042 12.8751 42.0236 12.8563 42.0048C12.5017 41.7062 12.1565 41.3888 11.8203 41.062H18.6704L21.8339 46.7643Z" fill="#B8D3C3"/>
<path d="M23.3367 32.6633L18.6704 41.062H11.8203C11.643 40.8942 11.4751 40.7263 11.3072 40.5584C10.3943 39.6271 9.56341 38.6185 8.82478 37.5441C8.50737 37.1053 8.21816 36.6482 7.94774 36.1907C7.81702 35.9668 7.6863 35.743 7.56497 35.5187C7.36889 35.1641 7.1822 34.8096 7.01431 34.4456C6.90239 34.2217 6.79986 33.9979 6.6969 33.7642C6.59438 33.531 6.49185 33.3071 6.39829 33.0739C6.20264 32.6074 6.02492 32.1315 5.87583 31.6462C5.79167 31.4035 5.71734 31.1609 5.64258 30.9182L9.33828 24.2642H18.6704L23.3367 32.6633Z" fill="#EDEFEE"/>
<path d="M9.33904 24.2642L5.64334 30.9182C4.34936 26.5766 4.34936 21.9517 5.64334 17.6101L9.33904 24.2642Z" fill="#B8D3C3"/>
<path d="M23.3367 15.865L18.6704 24.2641H9.33828L5.64258 17.6101C6.78491 13.7491 8.91407 10.2529 11.8203 7.46582H18.6704L23.3367 15.865Z" fill="#EDEFEE"/>
<path d="M37.3356 24.2641L32.6694 32.6633H23.3372L18.6709 24.2641L23.3372 15.865H32.6694L37.3356 24.2641Z" fill="#B8D3C3"/>
<path d="M50.3638 17.6101L48.3384 21.2498C48.182 20.0169 47.9232 18.7998 47.5639 17.6101C46.4216 13.7491 44.2924 10.2529 41.3857 7.46582H44.1856C47.0918 10.2529 49.2214 13.7491 50.3638 17.6101Z" fill="#D4E4DB"/>
<path d="M44.1854 7.46574H37.3357L34.8716 3.02373L34.1719 1.76392C37.9381 2.78706 41.3834 4.74875 44.1854 7.46574Z" fill="#B8D3C3"/>
<path d="M21.8339 1.76392L18.6704 7.46574H11.8203C14.6223 4.74875 18.0677 2.78706 21.8339 1.76392Z" fill="#B8D3C3"/>
<path d="M34.8719 3.02365C33.7429 2.50673 32.5719 2.08552 31.3723 1.76384C29.8148 1.33536 28.2166 1.0722 26.6035 0.979927C27.061 0.951731 27.5369 0.933362 28.0034 0.933362C30.0877 0.931226 32.1627 1.21061 34.1722 1.76384L34.8719 3.02365Z" fill="#D4E4DB"/>
<path d="M51.3343 24.2642C51.3377 26.5176 51.0109 28.7596 50.3637 30.9182L48.3383 27.2785L46.668 24.2642L48.3383 21.2498L50.3637 17.6101C51.0109 19.7687 51.3377 22.0107 51.3343 24.2642Z" fill="#B8D3C3"/>
<path d="M48.3377 27.2785C48.1814 28.5109 47.9225 29.7285 47.5632 30.9182C47.4885 31.1609 47.4141 31.4035 47.33 31.6462C47.1805 32.1315 47.0032 32.6074 46.8075 33.0739C46.714 33.3071 46.6114 33.531 46.5089 33.7642C46.406 33.9979 46.3034 34.2217 46.1915 34.4456C46.0236 34.8096 45.8369 35.1641 45.6408 35.5187C45.5195 35.743 45.3888 35.9668 45.2581 36.1907C44.9877 36.6482 44.6984 37.1053 44.381 37.5441C43.6424 38.6185 42.8115 39.6271 41.8986 40.5584C41.7307 40.7263 41.5628 40.8942 41.3851 41.062H37.3352L32.6689 32.6633L37.3352 24.2642H46.6674L48.3377 27.2785Z" fill="#EDEFEE"/>
<path d="M41.385 41.062C41.0492 41.3888 40.7041 41.7062 40.3495 42.0048C40.3307 42.0236 40.3213 42.042 40.3025 42.0514C39.9855 42.3222 39.6681 42.5833 39.3319 42.8259C39.2559 42.8913 39.1747 42.9502 39.0897 43.0032C38.7535 43.2646 38.4083 43.5073 38.0537 43.7405C38.0029 43.7752 37.9499 43.8063 37.8948 43.8341C37.6218 44.0268 37.3382 44.2041 37.0455 44.366C36.8123 44.5151 36.5696 44.6458 36.327 44.7765C35.9912 44.9538 35.655 45.1311 35.3192 45.2896C35.1697 45.3643 35.0206 45.4297 34.8711 45.4951L37.3352 41.062H41.385Z" fill="#B8D3C3"/>
<path d="M37.3356 41.0618L34.8716 45.4949V45.5043L34.1718 46.7641C34.1645 46.7713 34.1539 46.7747 34.1436 46.7735C33.9104 46.8388 33.6865 46.8948 33.4533 46.9414C33.437 46.9602 33.4114 46.9674 33.3879 46.9602C33.1546 47.0255 32.9214 47.0721 32.6787 47.1186C32.5903 47.1464 32.4998 47.1648 32.4079 47.1746C32.1559 47.2306 31.8948 47.2682 31.6428 47.3053C30.926 47.4241 30.2031 47.5053 29.4777 47.548C29.347 47.5574 29.2069 47.5668 29.0672 47.5668C28.7122 47.5851 28.3576 47.5945 28.0031 47.5945C27.6485 47.5945 27.2939 47.5851 26.9393 47.5668C26.8518 47.5651 26.7646 47.5587 26.6779 47.548H26.5288C25.8034 47.5053 25.0806 47.4241 24.3638 47.3053C24.1117 47.2682 23.8503 47.2306 23.5982 47.1746C23.5064 47.1648 23.4158 47.1464 23.3278 47.1186C23.0851 47.0721 22.8519 47.0255 22.6182 46.9602C22.5947 46.9674 22.5691 46.9602 22.5533 46.9414C22.3196 46.8948 22.0958 46.8388 21.8625 46.7735C21.8522 46.7747 21.842 46.7713 21.8343 46.7641L18.6709 41.0618L23.3372 32.6631H32.6694L37.3356 41.0618Z" fill="#EDEFEE"/>
<path d="M48.3377 21.2498L46.6674 24.2641H37.3352L32.6689 15.865L37.3352 7.46582H41.3851C44.2917 10.2529 46.4209 13.7491 47.5632 17.6101C47.9225 18.7998 48.1814 20.0169 48.3377 21.2498Z" fill="#EDEFEE"/>
<path d="M41.385 7.46569H37.3352L34.8711 3.02368C37.2805 4.12116 39.4836 5.62361 41.385 7.46569Z" fill="#B8D3C3"/>
<path d="M37.3356 7.46571L32.6694 15.8649H23.3372L18.6709 7.46571L21.8343 1.76389C23.3919 1.33541 24.9905 1.07226 26.6031 0.97998C28.2162 1.07226 29.8144 1.33541 31.3719 1.76389C32.5715 2.08557 33.7425 2.50679 34.8716 3.0237L37.3356 7.46571Z" fill="#EDEFEE"/>
<path d="M48.5344 24.2641C48.5353 25.2718 48.4699 26.2792 48.3383 27.2784L46.668 24.2641L48.3383 21.2498C48.4699 22.249 48.5353 23.2559 48.5344 24.2641Z" fill="#B8D3C3"/>
<path d="M26.594 55.0513H26.6124C27.0699 55.0603 27.5364 55.0603 28.0029 55.0603C28.4353 55.0603 28.8633 55.056 29.2909 55.0483C15.0421 54.7489 3.73889 50.2787 3.73889 44.7951C3.73889 42.4058 5.88556 40.2036 9.4971 38.4585C10.1597 38.1317 10.8688 37.8331 11.625 37.5439C11.3076 37.1051 11.0184 36.648 10.7475 36.1905C10.6168 35.9666 10.4865 35.7428 10.3652 35.5185C10.1691 35.1639 9.9824 34.8094 9.81451 34.4454C9.70258 34.2215 9.59963 33.9977 9.4971 33.764C9.39457 33.5308 9.29162 33.3069 9.19849 33.0737C9.0024 32.6072 8.82512 32.1313 8.67602 31.646C8.59187 31.4033 8.51711 31.1607 8.44235 30.918C5.95349 22.5603 8.33726 13.5126 14.6205 7.46565C18.6148 3.60719 23.8587 1.30629 29.4029 0.979914C28.9364 0.952574 28.4699 0.93335 28.0029 0.93335C27.5364 0.93335 27.0605 0.951719 26.603 0.979914C21.0588 1.30587 15.8149 3.60676 11.8206 7.46565C5.53611 13.5118 3.15234 22.5603 5.64291 30.918C5.71767 31.1607 5.792 31.4033 5.87616 31.646C6.02526 32.1313 6.20297 32.6072 6.39863 33.0737C6.49218 33.3069 6.59471 33.5308 6.69724 33.764C6.80019 33.9977 6.90272 34.2215 7.01465 34.4454C7.18254 34.8094 7.36922 35.1639 7.56531 35.5185C7.68663 35.7428 7.81735 35.9666 7.94808 36.1905C8.21849 36.648 8.50771 37.1051 8.82512 37.5439C8.0694 37.8331 7.35982 38.1317 6.69724 38.4585C3.0857 40.2036 0.939453 42.4058 0.939453 44.7951C0.939453 50.2919 12.297 54.7711 26.594 55.0513Z" fill="white"/>
<path d="M29.4771 47.5481H29.4023C29.5143 47.5575 29.6356 47.5669 29.7381 47.5669C29.651 47.5652 29.5638 47.5588 29.4771 47.5481Z" fill="white"/>
<path d="M49.2939 38.4539C49.2081 38.5649 49.129 38.6807 49.041 38.7896C49.1282 38.6786 49.2221 38.5722 49.3072 38.4603L49.2939 38.4539Z" fill="white"/>
<path d="M37.6765 45.4919L37.6709 45.4949V45.5022L37.6765 45.4919Z" fill="white"/>
<path d="M1.87229 44.7952C1.86417 46.36 3.17909 47.8334 4.70206 48.9014C6.31687 49.9754 8.06667 50.8302 9.90662 51.4432C15.7533 53.3127 21.8652 54.2192 28.0028 54.1273V55.9938C21.6537 56.086 15.3316 55.1428 9.2859 53.2007C7.2849 52.5305 5.38216 51.5966 3.62765 50.4235C2.71088 49.7981 1.89792 49.0326 1.2191 48.1547C0.463389 47.1947 0.0378992 46.0165 0.00585938 44.7952H1.87229Z" fill="white"/>
<path d="M3.06717 48.7939C3.3944 48.4321 3.4085 47.8857 3.10049 47.5072C2.36998 46.7861 1.93253 45.8197 1.87229 44.7953C1.87229 42.614 4.27913 40.4088 8.49814 38.6787C9.29273 39.7484 10.1732 40.751 11.131 41.6772C11.1579 41.7071 11.1869 41.7349 11.2177 41.7605C14.1231 44.5544 17.6786 46.5797 21.5636 47.6537L21.5824 47.661L21.614 47.6687C25.7963 48.8148 30.2097 48.8148 34.3919 47.6687L34.4377 47.6554C38.3243 46.5814 41.8816 44.5552 44.7878 41.7605C44.819 41.7349 44.8481 41.7071 44.8746 41.6772C45.8323 40.751 46.7128 39.7484 47.5074 38.6787C51.7264 40.4088 54.1332 42.614 54.1332 44.7953C54.1332 49.3018 43.6335 54.1275 28.0028 54.1275C21.8648 54.218 15.7533 53.3107 9.90662 51.4395L9.0582 51.1273C8.58273 50.9534 8.05429 51.1832 7.85735 51.6497C7.76123 51.8813 7.76379 52.1423 7.86375 52.3721C7.96329 52.602 8.15254 52.7814 8.3875 52.8694L9.28889 53.2009C15.3338 55.1425 21.6546 56.0858 28.0028 55.9939C43.7015 55.9939 55.9997 51.0747 55.9997 44.7953C55.9997 41.8506 53.3745 39.1435 48.5788 37.1028C49.7339 35.259 50.6349 33.2674 51.256 31.1822V31.1655C52.5979 26.6624 52.5979 21.8659 51.256 17.3627V17.3461C50.0637 13.3586 47.8662 9.74451 44.8746 6.85109C44.8481 6.82119 44.819 6.79342 44.7878 6.76779C41.8825 3.97434 38.3269 1.94899 34.4424 0.874583L34.4125 0.866039C30.2169 -0.28868 25.7877 -0.28868 21.5926 0.866039L21.5636 0.874583C17.6791 1.94942 14.1235 3.97476 11.2177 6.76779C11.1869 6.79342 11.1579 6.82119 11.131 6.85109C8.1393 9.74451 5.94179 13.3586 4.74948 17.3461V17.3627C3.40807 21.8659 3.40807 26.6624 4.74948 31.1655V31.1822C5.37105 33.2674 6.27158 35.259 7.42716 37.1028C2.631 39.1435 0.00585938 41.8506 0.00585938 44.7953C0.0643856 46.2828 0.673571 47.6956 1.71551 48.7584C1.88126 48.9575 2.12477 49.0754 2.38322 49.0823C2.6421 49.0891 2.89116 48.984 3.06717 48.7939ZM6.65051 31.0254L9.88782 25.1971H18.1208L20.4542 29.3969L22.2689 32.6633L20.455 35.9297L18.1217 40.129H12.2096C9.65158 37.5855 7.74457 34.4627 6.65051 31.0254ZM5.60515 24.2641C5.60686 22.8864 5.73588 21.5117 5.98963 20.1579L8.27045 24.2641L5.98963 28.3704C5.73588 27.0162 5.60686 25.6419 5.60515 24.2641ZM23.8863 16.7984H32.1192L34.4526 20.9978L36.2674 24.2641L34.4535 27.5305L32.1201 31.7299H23.8863L21.5533 27.5305L19.7382 24.2641L21.5525 20.9978L23.8863 16.7984ZM37.8847 41.9955H41.6633C39.9836 43.2933 38.1274 44.3455 36.1507 45.1209L37.8847 41.9955ZM36.2674 41.062L33.5482 45.9654C29.9094 46.8924 26.0962 46.8924 22.4577 45.9654L19.7382 41.062L20.4922 39.7044L23.8863 33.5963H32.1192L35.5133 39.7053L36.2674 41.062ZM18.1208 41.9955L19.8548 45.1209C17.8786 44.3455 16.0224 43.2933 14.3422 41.9955H18.1208ZM43.7959 40.129H37.8847L35.5518 35.9297L33.7366 32.6633L35.5509 29.3969L37.8839 25.1971H46.1168L49.3542 31.0254C48.2605 34.4627 46.3539 37.5855 43.7959 40.129ZM50.4004 24.2641C50.3987 25.6419 50.2701 27.0162 50.0159 28.3704L47.7351 24.2641L50.0159 20.1579C50.2701 21.5117 50.3987 22.8864 50.4004 24.2641ZM49.355 17.5029L46.1177 23.3307H37.8847L35.5518 19.1314L33.7366 15.865L35.5509 12.5986L37.8839 8.39926H43.795C46.3535 10.9424 48.261 14.0652 49.355 17.5029ZM37.8847 6.53283L36.1507 3.40744C38.1274 4.18281 39.9836 5.235 41.6633 6.53283H37.8847ZM33.5482 2.56202L36.2674 7.46583L35.5133 8.8239L32.1192 14.932H23.8863L20.4922 8.82304L19.7382 7.46583L22.4577 2.56287C26.0962 1.63585 29.9094 1.63585 33.5482 2.56287V2.56202ZM18.1208 6.53283H14.3422C16.0224 5.235 17.8786 4.18281 19.8548 3.40744L18.1208 6.53283ZM12.2096 8.39926H18.1208L20.4542 12.5986L22.2689 15.865L20.455 19.1314L18.1217 23.3307H9.88782L6.65051 17.5029C7.74457 14.0652 9.65158 10.9424 12.2096 8.39926Z" fill="#2E4939"/>
<path d="M5.81523 49.6029C5.60719 49.4893 5.36411 49.4559 5.133 49.5098L4.96767 49.5687C4.91085 49.5926 4.85703 49.6238 4.80833 49.6618C4.75749 49.6926 4.71178 49.7306 4.67205 49.7746C4.6289 49.8199 4.5896 49.8686 4.55329 49.9194C4.41872 50.1296 4.37301 50.3847 4.42556 50.6286C4.4576 50.7512 4.51569 50.8653 4.59558 50.9635C4.83353 51.2749 5.2351 51.4138 5.61445 51.3155C5.73193 51.2784 5.84087 51.2181 5.93485 51.1382C6.03011 51.0618 6.10829 50.9665 6.16511 50.8584C6.27447 50.6376 6.30053 50.3847 6.23901 50.1463C6.16639 49.9207 6.01644 49.7281 5.81523 49.6029Z" fill="#2E4939"/>
</g>
<defs>
<clipPath id="clip0_157_6787">
<rect width="56" height="56" fill="white"/>
</clipPath>
</defs>
</svg>
