<svg width="24" height="34" viewBox="0 0 24 34" fill="none" xmlns="http://www.w3.org/2000/svg">
<path d="M12.0006 0.000976562C5.38358 0.000976562 0.00195312 5.30161 0.00195312 11.8179C0.00195312 20.007 12.0141 33.9994 12.0141 33.9994C12.0141 33.9994 24.0009 19.6056 24.0009 11.8179C24.0003 5.30161 18.6171 0.000976562 12.0006 0.000976562ZM15.6182 15.2797C14.9021 15.9851 13.9897 16.4655 12.9963 16.6602C12.0029 16.8549 10.9732 16.755 10.0375 16.3734C9.10169 15.9917 8.30186 15.3453 7.73913 14.5159C7.1764 13.6865 6.87604 12.7114 6.87604 11.7139C6.87604 10.7164 7.1764 9.74129 7.73913 8.91191C8.30186 8.08252 9.10169 7.43612 10.0375 7.05443C10.9732 6.67275 12.0029 6.57294 12.9963 6.76762C13.9897 6.9623 14.9021 7.44273 15.6182 8.14815C16.0955 8.61525 16.4742 9.17064 16.7328 9.78239C16.9913 10.3941 17.1246 11.0502 17.1248 11.7128C17.1251 12.3754 16.9923 13.0316 16.7342 13.6435C16.4762 14.2555 16.0978 14.8111 15.6209 15.2786L15.6182 15.2797Z" fill="white"/>
</svg>
