<svg width="92" height="81" viewBox="0 0 92 81" fill="none" xmlns="http://www.w3.org/2000/svg">
<g opacity="0.8" clip-path="url(#clip0_157_7735)">
<path d="M77.5735 52.9069C77.6363 52.509 77.3918 52.2654 76.9619 51.9617V53.5435C77.2476 53.4475 77.5239 53.2242 77.5735 52.9069Z" fill="#F1F2ED"/>
<path d="M77.6887 50.4896C77.6672 50.1606 77.3206 49.8869 76.9619 49.6443V51.6823C77.5239 51.5115 77.7196 50.9622 77.6887 50.4896Z" fill="#F1F2ED"/>
<path d="M76.9619 47.5403V49.0746C77.537 48.7834 77.6419 48.272 77.3721 47.8479C77.2651 47.7085 77.1232 47.6021 76.9619 47.5403Z" fill="#F1F2ED"/>
<path d="M14.6284 47.8469C14.3596 48.271 14.4635 48.7863 15.0386 49.0736V47.5393C14.8773 47.6011 14.7355 47.7075 14.6284 47.8469Z" fill="#F1F2ED"/>
<path d="M22.2378 14.7647C21.9465 14.8453 21.5972 15.0083 21.4941 15.3198C22.9345 14.7579 24.26 13.9204 25.4017 12.8509C25.2293 12.7219 25.0542 12.6413 24.8847 12.6675C24.4463 12.7384 23.9846 13.0615 24.0033 13.6846C24.0054 13.7011 24.0022 13.7179 23.9942 13.7323C23.9862 13.7467 23.9738 13.758 23.959 13.7644C23.9442 13.7708 23.9278 13.772 23.9122 13.7677C23.8967 13.7635 23.883 13.754 23.8731 13.7409C23.4685 13.3372 23.1913 13.1062 22.8288 13.2556C22.4663 13.4051 22.3418 13.9194 22.4214 14.2533C22.4757 14.4881 22.4504 14.7055 22.2378 14.7647Z" fill="#F1F2ED"/>
<path d="M69.1716 13.2586C68.8092 13.1063 68.532 13.3372 68.1273 13.7439C68.1175 13.757 68.1038 13.7664 68.0882 13.7707C68.0727 13.775 68.0562 13.7738 68.0414 13.7674C68.0266 13.7609 68.0142 13.7497 68.0062 13.7352C67.9982 13.7208 67.995 13.7041 67.9971 13.6876C68.0159 13.0645 67.5541 12.7414 67.1158 12.6705C66.9481 12.6443 66.7739 12.7239 66.6025 12.851C67.7429 13.9197 69.0668 14.7572 70.5054 15.3199C70.4014 15.0103 70.053 14.8482 69.7626 14.7677C69.55 14.7085 69.5247 14.4911 69.5753 14.2592C69.6587 13.9224 69.535 13.41 69.1716 13.2586Z" fill="#F1F2ED"/>
<path d="M15.0385 51.6813V49.6433C14.6798 49.8859 14.3333 50.1596 14.3117 50.4886C14.2808 50.9612 14.4766 51.5115 15.0385 51.6813Z" fill="#F1F2ED"/>
<path d="M62.9946 1.53713C62.7922 1.55762 62.5985 1.63256 62.4326 1.75452C62.5124 1.90742 62.5539 2.07856 62.5534 2.25235V3.14518C62.6044 3.17536 62.6573 3.20196 62.7117 3.22476C62.8629 3.28521 63.0237 3.31552 63.1857 3.31406C63.2041 3.31233 63.2225 3.31707 63.238 3.32752C63.2535 3.33797 63.2652 3.35351 63.2711 3.37166C63.2771 3.38981 63.277 3.40948 63.2708 3.42755C63.2646 3.44562 63.2528 3.46102 63.2372 3.47126C63.0001 3.64681 62.7768 3.84151 62.5694 4.05354C62.5853 4.39612 62.6153 4.73287 62.6574 5.06865C62.9168 5.22718 63.2191 5.2933 63.5181 5.25691H63.5369C63.6689 5.24236 63.757 5.36077 63.697 5.47238C63.5097 5.81689 63.2072 6.39044 63.358 6.66217C63.5369 6.98631 63.9902 7.10469 64.4622 6.98532C64.5213 6.97076 64.5653 7.02318 64.5362 7.07268C64.3255 7.43272 64.3395 7.81023 64.5887 7.96453C64.7517 8.06158 64.9792 8.04896 65.2022 7.94318C65.2712 7.90513 65.3512 7.89398 65.4275 7.91179C65.5038 7.9296 65.5714 7.97518 65.618 8.04023C65.705 8.19781 65.8382 8.32256 65.9983 8.39638C66.3149 9.05055 66.6738 9.68181 67.0726 10.2859C65.9247 9.5583 64.7345 8.90491 63.5088 8.32943C63.7122 8.82992 63.9469 9.31617 64.2112 9.78513L64.3723 9.86857C64.333 9.86857 64.2965 9.86857 64.2581 9.86857C64.3736 10.0698 64.4935 10.2671 64.6177 10.4606C65.0377 10.4933 65.4529 10.5736 65.8559 10.7003C66.6932 11.1981 67.4304 11.6872 68.0101 12.1094C69.523 13.2221 70.9384 14.4708 72.2398 15.8408C72.751 15.955 73.2688 16.035 73.7899 16.0805C73.4621 15.7079 73.1258 15.343 72.7812 14.9858C72.3102 13.7097 72.002 12.3754 71.8642 11.0166C72.0255 10.9109 72.1418 10.7453 72.1892 10.5537C72.2181 10.4816 72.2708 10.4225 72.3379 10.3869C72.405 10.3514 72.4821 10.3417 72.5555 10.3596C72.7896 10.4023 73.0069 10.3596 73.138 10.2267C73.345 10.0151 73.271 9.64441 72.9844 9.34745C72.9451 9.30571 72.976 9.24457 73.0359 9.24457C73.522 9.24457 73.9351 9.01651 74.0344 8.65743C74.1177 8.35853 73.6944 7.8704 73.4452 7.58217C73.4271 7.56061 73.4154 7.53412 73.4114 7.50586C73.4074 7.4776 73.4113 7.44873 73.4226 7.42269C73.434 7.39666 73.4523 7.37453 73.4754 7.35894C73.4984 7.34334 73.5254 7.33493 73.5529 7.3347C74.1983 7.23765 74.6413 6.78057 74.542 6.31959C74.4718 5.99255 73.7927 5.69557 73.4284 5.52768C73.411 5.52143 73.3962 5.50936 73.3863 5.49339C73.3763 5.47742 73.3717 5.45846 73.3734 5.43952C73.375 5.42057 73.3826 5.40273 73.3951 5.38881C73.4077 5.3749 73.4243 5.36571 73.4424 5.3627C73.5957 5.32412 73.7406 5.25597 73.8695 5.16181C74.3378 4.82118 74.4427 4.24569 74.1037 3.87497C73.9887 3.76085 73.8499 3.67588 73.6979 3.62671C73.546 3.57755 73.3851 3.56553 73.2279 3.5916C73.2106 3.5953 73.1928 3.59501 73.1756 3.59077C73.1584 3.58653 73.1423 3.57844 73.1284 3.56706C73.1146 3.55567 73.1033 3.54129 73.0954 3.52491C73.0875 3.50852 73.0832 3.49054 73.0828 3.47224C73.0943 3.33234 73.0789 3.19146 73.0372 3.05785C72.9956 2.92423 72.9286 2.80058 72.8402 2.69413C72.7519 2.58769 72.6439 2.50058 72.5226 2.43794C72.4013 2.3753 72.2692 2.33838 72.134 2.32933C71.9987 2.32029 71.8631 2.3393 71.7351 2.38527C71.6071 2.43124 71.4892 2.50322 71.3883 2.59702C71.2875 2.69081 71.2057 2.80453 71.1478 2.93149C71.09 3.05845 71.0571 3.1961 71.0513 3.33638V3.34219C71.0484 3.36039 71.0416 3.3777 71.0315 3.39289C71.0214 3.40808 71.0082 3.42077 70.9928 3.43004C70.9774 3.43931 70.9602 3.44494 70.9425 3.44653C70.9247 3.44812 70.9069 3.44563 70.8902 3.43923C70.7343 3.38844 70.569 3.3764 70.4078 3.40405C70.2465 3.4317 70.0938 3.49827 69.962 3.5984C69.5799 3.9206 69.6126 4.50578 70.0351 4.90562C70.155 5.01872 70.2945 5.10729 70.4462 5.16667C70.464 5.1719 70.4796 5.18321 70.4905 5.19875C70.5013 5.21429 70.5068 5.23315 70.5061 5.25232C70.5053 5.27149 70.4984 5.28983 70.4863 5.30439C70.4743 5.31896 70.4578 5.3289 70.4397 5.33261C70.05 5.4481 69.3363 5.64705 69.2221 5.96439C69.0666 6.40789 69.4497 6.91738 70.0772 7.10274H70.095C70.1225 7.10685 70.1482 7.11904 70.1692 7.13786C70.1902 7.15667 70.2056 7.18131 70.2134 7.20889C70.2213 7.23646 70.2214 7.26582 70.2137 7.29345C70.206 7.32108 70.1908 7.34584 70.1699 7.36479C69.8777 7.61614 69.3935 8.03731 69.4394 8.34689C69.4937 8.71664 69.8749 8.99614 70.3572 9.06116C70.4162 9.0699 70.4397 9.1349 70.3947 9.16984C70.0734 9.42799 69.9554 9.78415 70.1343 10.0219C70.2514 10.1762 70.4687 10.2471 70.7141 10.2306C70.7915 10.221 70.8697 10.2404 70.9346 10.2852C70.9995 10.3301 71.0468 10.3974 71.0681 10.4751C71.0945 10.6543 71.1752 10.8201 71.2985 10.9487C71.3991 12.0211 71.6018 13.0804 71.9036 14.1114C70.8514 13.095 69.7353 12.1519 68.5627 11.2884L68.4484 11.2069C67.7059 10.294 67.0659 9.2968 66.5406 8.23432C66.654 8.07532 66.7046 7.87748 66.682 7.68116C66.6837 7.60322 66.7122 7.52847 66.7624 7.47032C66.8125 7.41216 66.8809 7.37441 66.9555 7.36382C67.1896 7.31626 67.377 7.19592 67.4528 7.02221C67.5727 6.74757 67.3751 6.42925 67.0042 6.25941C66.9929 6.25409 66.9835 6.2452 66.9773 6.23401C66.9712 6.22283 66.9686 6.2099 66.9699 6.1971C66.9713 6.1843 66.9765 6.17227 66.9848 6.16272C66.9932 6.15317 67.0042 6.1466 67.0164 6.14393C67.4697 5.96149 67.775 5.59562 67.7432 5.22296C67.7169 4.91435 67.1531 4.61641 66.8197 4.43979C66.7954 4.42642 66.7753 4.40615 66.7617 4.38134C66.7482 4.35653 66.7418 4.32822 66.7433 4.29976C66.7448 4.2713 66.7541 4.24389 66.7701 4.22072C66.7861 4.19756 66.8082 4.17961 66.8337 4.16902C67.3957 3.83421 67.6561 3.24516 67.4032 2.85212C67.2234 2.57359 66.4872 2.5503 66.0919 2.52895C66.0735 2.53002 66.0553 2.52459 66.0402 2.51352C66.0251 2.50246 66.0142 2.48641 66.009 2.46803C66.0039 2.44965 66.005 2.43003 66.012 2.41235C66.0191 2.39468 66.0318 2.38 66.0479 2.37075C66.1771 2.27679 66.2886 2.15904 66.3767 2.02334C66.6942 1.53131 66.5921 0.955821 66.1472 0.735525C66.0002 0.671954 65.841 0.644569 65.682 0.655514C65.5231 0.666459 65.3688 0.715427 65.2312 0.798596C65.2163 0.80852 65.1995 0.814945 65.182 0.817408C65.1645 0.819872 65.1466 0.81832 65.1298 0.812859C65.1129 0.807398 65.0974 0.798159 65.0843 0.785802C65.0712 0.773445 65.061 0.75828 65.0542 0.741354C65.017 0.605638 64.954 0.479008 64.8688 0.36897C64.7837 0.258933 64.678 0.167719 64.5582 0.100718C64.4384 0.0337168 64.3069 -0.00771615 64.1714 -0.0211117C64.0358 -0.0345072 63.8991 -0.0196027 63.7692 0.0227204C63.6393 0.0650435 63.519 0.13393 63.4153 0.225296C63.3115 0.316661 63.2265 0.428657 63.1653 0.554653C63.1041 0.680648 63.0679 0.818082 63.0588 0.958832C63.0498 1.09958 63.0681 1.24077 63.1126 1.37408V1.3799C63.1172 1.39853 63.1176 1.41799 63.1138 1.43679C63.11 1.4556 63.1021 1.47325 63.0907 1.48842C63.0793 1.50358 63.0647 1.51585 63.0481 1.52429C63.0314 1.53273 63.0131 1.53713 62.9946 1.53713Z" fill="#F1F2ED"/>
<path d="M15.0383 53.5435V51.9617C14.6084 52.2654 14.364 52.509 14.4267 52.9069C14.4764 53.2242 14.7527 53.4475 15.0383 53.5435Z" fill="#F1F2ED"/>
<path d="M5.88069 52.7798C5.99402 52.6381 6.18415 52.6605 6.23285 52.8235C6.38084 53.3252 6.63091 54.1754 7.02241 54.285C7.49071 54.417 8.0377 54.0803 8.37956 53.498C8.38581 53.4819 8.39678 53.4683 8.41092 53.459C8.42506 53.4498 8.44165 53.4454 8.45833 53.4465C8.47502 53.4476 8.49095 53.4541 8.50388 53.465C8.5168 53.476 8.52607 53.4909 8.53035 53.5077C8.66241 54.0609 9.02394 54.4083 9.40607 54.3083C9.64772 54.2443 9.84722 54.0172 9.96804 53.7018C9.99906 53.6022 10.0631 53.5171 10.1488 53.4617C10.2345 53.4063 10.3364 53.3841 10.4363 53.399C10.692 53.463 11.0273 53.4834 11.2671 53.2728C12.4284 54.1892 13.493 55.2302 14.4431 56.3783C14.7016 56.817 14.9701 57.2498 15.2486 57.6768C15.106 57.022 15.0347 56.3528 15.036 55.6815V55.4535C13.8779 53.4243 12.9357 51.2708 12.2262 49.0309C12.0052 47.221 12.3199 45.3344 12.8818 43.5886C13.135 43.4938 13.3593 43.331 13.5318 43.1169C13.6105 43.03 13.7173 42.9762 13.8318 42.9656C13.9463 42.9551 14.0606 42.9885 14.1528 43.0596C14.386 43.2324 14.6764 43.4391 15.0351 43.2935V34.5516H14.9826C14.4544 34.6069 14.194 35.0756 14.4207 35.6113C14.4903 35.7723 14.5896 35.9176 14.7129 36.0393C14.7831 36.1101 14.7241 36.2004 14.6192 36.179C14.1509 36.082 13.4494 35.9733 13.1431 36.1936C12.7001 36.5129 12.6364 37.1097 13.2302 37.6386L13.248 37.6541C13.2764 37.6735 13.2981 37.7016 13.3102 37.7345C13.3223 37.7673 13.3241 37.8033 13.3154 37.8373C13.3067 37.8712 13.2879 37.9015 13.2617 37.9239C13.2355 37.9462 13.2032 37.9595 13.1694 37.9618C12.6692 38.0588 12.0726 38.1559 11.9031 38.5246C11.6923 38.9778 11.6877 39.6106 12.2431 39.9803C12.258 39.9892 12.2698 40.0028 12.2769 40.019C12.2839 40.0353 12.2858 40.0535 12.2823 40.0709C12.2788 40.0884 12.27 40.1043 12.2572 40.1162C12.2444 40.1282 12.2283 40.1357 12.2112 40.1376C11.608 40.2647 11.2353 40.3812 11.1425 40.8169C11.0498 41.2526 11.4235 41.6826 11.7598 41.8165C11.9958 41.9087 12.1691 42.0669 12.0885 42.3017C11.9518 42.7025 11.8684 43.2663 12.3152 43.5245C11.9616 44.6308 11.7346 45.7764 11.6389 46.9376C10.9876 44.288 10.6582 41.5645 10.6583 38.8304C10.6583 38.4354 10.6677 38.0413 10.6817 37.6464C11.1706 35.9752 12.1232 34.438 13.2396 33.1094C13.5083 33.122 13.7754 33.0611 14.0142 32.9328C14.119 32.8839 14.2376 32.8766 14.3473 32.9124C14.4569 32.9482 14.5501 33.0246 14.6089 33.1269C14.7138 33.3026 14.8384 33.5035 15.0341 33.6122V27.9213C14.7063 27.8718 14.3991 27.8738 14.2118 28.0475C13.8493 28.3823 13.6105 28.9646 13.987 29.5245C13.9978 29.5387 14.0039 29.556 14.0045 29.574C14.0051 29.592 14.0001 29.6097 13.9902 29.6246C13.9804 29.6394 13.9662 29.6507 13.9498 29.6566C13.9334 29.6625 13.9156 29.6628 13.899 29.6575C13.2949 29.5352 12.908 29.4944 12.6617 29.8574C12.4154 30.2204 12.5962 30.7677 12.8603 31.022C13.0476 31.2005 13.1459 31.416 12.9839 31.6042C12.7095 31.9196 12.4219 32.4068 12.7395 32.8232C11.9738 33.7394 11.3198 34.7498 10.7923 35.8316C11.0641 32.7771 11.7473 29.7771 12.8219 26.9188C13.4503 26.0104 14.1945 25.1943 15.0341 24.4927V23.758C14.5133 24.1758 14.0205 24.6297 13.559 25.1167C13.7931 24.5897 14.0385 24.0686 14.3008 23.5552C14.5343 23.0978 14.7788 22.6449 15.0341 22.1965V20.3109C14.8506 20.5988 14.6714 20.89 14.4965 21.1844C14.6315 20.3895 14.7185 19.5866 14.7569 18.7805C14.9064 18.6469 15.0058 18.4631 15.0379 18.2613V17.1792C15.0379 16.8992 15.1453 16.6306 15.3364 16.4326C15.5275 16.2346 15.7867 16.1234 16.0569 16.1234H16.544C16.7113 15.9863 16.8208 15.7873 16.8493 15.5683C16.8858 15.2024 16.2929 14.7366 15.9361 14.458C15.82 14.3678 15.8602 14.197 16.0082 14.1465L16.0298 14.1397C16.7566 13.8845 17.1771 13.2663 16.9664 12.751C16.8184 12.3842 15.9698 12.1939 15.5043 12.0814C15.4795 12.0837 15.4548 12.0757 15.4356 12.0591C15.4165 12.0426 15.4045 12.0188 15.4022 11.9931C15.4 11.9673 15.4077 11.9417 15.4237 11.9219C15.4397 11.9021 15.4626 11.8896 15.4875 11.8873C15.6625 11.809 15.8215 11.6966 15.9558 11.5564C16.4297 11.0604 16.4353 10.3714 15.9679 10.0162C15.671 9.7901 15.2552 9.7542 14.8693 9.88522C14.8499 9.8937 14.8289 9.8976 14.8078 9.89664C14.7867 9.89568 14.7661 9.88989 14.7475 9.87967C14.7288 9.86946 14.7126 9.85507 14.7 9.83757C14.6874 9.82007 14.6787 9.79987 14.6745 9.77846C14.6745 9.77846 14.6745 9.7736 14.6745 9.77166C14.6566 9.6098 14.6082 9.45319 14.532 9.31073C14.4557 9.16827 14.3531 9.04276 14.2301 8.94138C14.107 8.84 13.9659 8.76472 13.8147 8.71985C13.6636 8.67499 13.5054 8.6614 13.3492 8.67988C13.193 8.69836 13.0418 8.74855 12.9043 8.82756C12.7668 8.90657 12.6457 9.01287 12.5479 9.14038C12.45 9.26789 12.3774 9.41414 12.3341 9.57074C12.2908 9.72734 12.2777 9.89125 12.2955 10.0531C12.2962 10.0746 12.2922 10.096 12.284 10.1158C12.2758 10.1356 12.2634 10.1532 12.2479 10.1675C12.2323 10.1817 12.2139 10.1923 12.194 10.1983C12.1741 10.2044 12.1531 10.2059 12.1325 10.2026C11.7382 10.1734 11.3533 10.3054 11.1182 10.5907C10.7436 11.0459 10.8962 11.7165 11.4657 12.0891C11.6231 12.1909 11.797 12.2622 11.9789 12.2997C12.0038 12.2963 12.0289 12.3032 12.0489 12.3189C12.0688 12.3346 12.0819 12.3579 12.0852 12.3837C12.0886 12.4094 12.0819 12.4355 12.0667 12.4561C12.0516 12.4768 12.0291 12.4903 12.0042 12.4938C11.5865 12.7131 10.8054 13.1023 10.7407 13.4915C10.6471 14.0388 11.1969 14.5464 11.9583 14.625C12.111 14.6405 12.1887 14.7938 12.0988 14.9093C11.8178 15.2635 11.3495 15.8623 11.4666 16.2088C11.6043 16.6251 12.1016 16.8667 12.673 16.8376C12.7432 16.8376 12.7835 16.9046 12.7395 16.9551C12.4191 17.3229 12.3536 17.7615 12.6083 17.9973C12.7704 18.1478 13.027 18.1837 13.3005 18.1196C13.3855 18.0946 13.4763 18.1015 13.5568 18.1392C13.6374 18.1768 13.7025 18.2428 13.7407 18.3254C13.8175 18.5369 13.9552 18.7844 14.1968 18.8727C14.1213 20.2331 13.9015 21.5808 13.5412 22.8914C13.5075 22.9564 13.4719 23.0215 13.4382 23.0855C13.0691 23.8082 12.7276 24.5454 12.4135 25.2972C12.288 25.065 12.094 24.8807 11.86 24.7712C11.7916 24.7372 11.8057 24.6441 11.8825 24.6169C12.5053 24.3956 12.939 23.9191 12.9127 23.4125C12.894 22.9894 12.141 22.5653 11.6886 22.312C11.5415 22.2295 11.5593 22.0277 11.7195 21.9442L11.742 21.9326C12.5268 21.5124 12.9034 20.7302 12.5849 20.1857C12.3554 19.7976 11.357 19.7296 10.8054 19.684C10.7803 19.6842 10.7558 19.6756 10.736 19.6596C10.7162 19.6437 10.7022 19.6212 10.6962 19.5959C10.6903 19.5707 10.6927 19.5441 10.7032 19.5204C10.7136 19.4968 10.7315 19.4775 10.7539 19.4657C10.94 19.3451 11.1024 19.189 11.2325 19.0057C11.6895 18.3574 11.5809 17.5713 10.9908 17.2501C10.6162 17.0453 10.1357 17.0793 9.71797 17.2967C9.69723 17.3097 9.67397 17.3178 9.64986 17.3204C9.62576 17.323 9.60138 17.3201 9.57849 17.3119C9.55559 17.3036 9.53474 17.2902 9.5174 17.2727C9.50006 17.2551 9.48668 17.2338 9.4782 17.2103V17.2016C9.43103 17.0205 9.34991 16.8509 9.23946 16.7023C9.12902 16.5538 8.99143 16.4292 8.83453 16.3358C8.67763 16.2423 8.50451 16.1818 8.32504 16.1577C8.14557 16.1336 7.96328 16.1463 7.78856 16.1952C7.61384 16.2441 7.45013 16.3281 7.30676 16.4425C7.16339 16.557 7.04318 16.6996 6.95299 16.8621C6.8628 17.0247 6.8044 17.2041 6.78111 17.39C6.75783 17.576 6.77012 17.7649 6.81729 17.9459C6.82138 17.9704 6.82026 17.9955 6.81401 18.0195C6.80776 18.0435 6.79653 18.0658 6.7811 18.0849C6.76567 18.1039 6.74641 18.1192 6.72468 18.1298C6.70295 18.1403 6.67926 18.1458 6.65526 18.1458C6.20195 18.1827 5.78516 18.402 5.56599 18.765C5.21102 19.3473 5.49949 20.0868 6.20944 20.409C6.40533 20.497 6.61519 20.547 6.82854 20.5565C6.85321 20.5556 6.87744 20.5633 6.89744 20.5783C6.91744 20.5933 6.93206 20.6148 6.93903 20.6393C6.94599 20.6638 6.9449 20.6901 6.93592 20.7139C6.92694 20.7377 6.91058 20.7578 6.88941 20.7709C6.45015 21.0951 5.62594 21.6783 5.61657 22.1296C5.60533 22.7682 6.31059 23.2485 7.19287 23.202C7.36989 23.1923 7.48322 23.3524 7.39987 23.4999C7.14417 23.9531 6.70865 24.7178 6.89597 25.0915C7.12169 25.5408 7.72862 25.7271 8.37394 25.5932C8.45355 25.5767 8.51068 25.6495 8.4676 25.7155C8.16414 26.19 8.16226 26.7014 8.49195 26.9247C8.70081 27.0663 8.99959 27.0615 9.30024 26.9402C9.50816 26.8558 9.74045 26.9188 9.83504 27.0955C9.96336 27.3342 10.175 27.604 10.4907 27.6438C10.5968 28.8185 10.6093 30.0004 10.5281 31.1772C10.0628 33.2556 9.78782 35.3748 9.70673 37.5066C9.47644 36.7362 9.20566 35.9794 8.89562 35.2396C9.04454 34.9825 8.99678 34.6573 8.91811 34.4021C8.89366 34.2955 8.90674 34.1834 8.95499 34.0859C9.00324 33.9884 9.08349 33.9119 9.18129 33.8703C9.48101 33.7199 9.69362 33.4879 9.73202 33.2249C9.79196 32.8222 9.42481 32.4816 8.88064 32.3981C8.80571 32.3865 8.78698 32.2943 8.85629 32.2438C9.3836 31.8362 9.65615 31.2442 9.48381 30.7697C9.34051 30.3727 8.49851 30.2077 7.99368 30.1097C7.82883 30.0777 7.78668 29.8807 7.91406 29.7507L7.9328 29.7313C8.55564 29.083 8.68208 28.2183 8.21378 27.8C7.87941 27.5011 6.91002 27.7554 6.37428 27.8864C6.34997 27.8957 6.32329 27.896 6.29881 27.8871C6.27434 27.8783 6.25361 27.8609 6.24019 27.8379C6.22677 27.8149 6.2215 27.7878 6.22529 27.7612C6.22908 27.7347 6.24169 27.7103 6.26096 27.6923C6.40284 27.5186 6.51126 27.3183 6.58034 27.1023C6.82385 26.3404 6.48668 25.6262 5.83105 25.5078C5.41332 25.4321 4.96563 25.6165 4.63313 25.9561C4.61728 25.9752 4.59753 25.9904 4.57531 26.0006C4.55309 26.0108 4.52896 26.0158 4.50466 26.0151C4.48037 26.0145 4.45652 26.0082 4.43484 25.9969C4.41316 25.9855 4.39419 25.9693 4.37931 25.9494V25.9426C4.28091 25.7852 4.15357 25.6495 4.00456 25.5432C3.85555 25.4368 3.68777 25.3619 3.51083 25.3228C3.33389 25.2836 3.15123 25.281 2.97329 25.315C2.79536 25.349 2.62562 25.4189 2.47378 25.5209C2.32194 25.6228 2.19097 25.7548 2.08835 25.9092C1.98572 26.0636 1.91345 26.2374 1.87566 26.4207C1.83787 26.6041 1.8353 26.7934 1.8681 26.9777C1.90091 27.1621 1.96843 27.338 2.06683 27.4953C2.07798 27.5172 2.08439 27.5414 2.08562 27.5661C2.08685 27.5909 2.08288 27.6156 2.07397 27.6386C2.06505 27.6616 2.05142 27.6823 2.03402 27.6992C2.01661 27.7162 1.99585 27.7291 1.97317 27.7369C1.55263 27.9165 1.22389 28.2561 1.11899 28.6725C0.95508 29.3421 1.4468 29.9515 2.21762 30.0311C2.43022 30.0527 2.64483 30.0336 2.85077 29.9748C2.87412 29.9659 2.8997 29.9652 2.92343 29.9731C2.94715 29.9809 2.96766 29.9968 2.98167 30.0181C2.99569 30.0395 3.0024 30.0651 3.00074 30.0908C2.99909 30.1166 2.98915 30.141 2.97253 30.1602C2.6494 30.6076 2.03593 31.4218 2.1633 31.8595C2.34032 32.4709 3.15329 32.7048 3.97938 32.3806C4.14516 32.3146 4.30063 32.4321 4.26036 32.598C4.14984 33.1104 3.96252 33.978 4.251 34.273C4.59848 34.6292 5.23068 34.6146 5.80576 34.2818C5.87694 34.241 5.95281 34.2925 5.93221 34.3681C5.78329 34.9174 5.93221 35.4046 6.31247 35.5123C6.55318 35.5812 6.83603 35.4822 7.08611 35.2707C7.25938 35.1241 7.49915 35.1105 7.64151 35.2493C7.83445 35.4356 8.11543 35.6249 8.42545 35.5637C8.98275 36.9139 9.40517 38.3197 9.68612 39.7591C9.74676 42.0685 10.0361 44.3653 10.5497 46.6135C10.1049 45.8425 9.61504 45.1003 9.08294 44.3911C9.1663 44.1 9.0408 43.7982 8.90499 43.574C8.79635 43.3964 8.85441 43.146 9.03143 42.9917C9.28619 42.7695 9.43605 42.49 9.40607 42.225C9.36767 41.8194 8.92934 41.5845 8.38237 41.6428C8.30744 41.6505 8.27091 41.5642 8.32242 41.4991C8.73546 40.9683 8.85723 40.3249 8.57718 39.9095C8.34303 39.5621 7.4879 39.6184 6.97558 39.6543C6.80793 39.6659 6.71989 39.4854 6.81261 39.3262C6.81643 39.3185 6.82081 39.311 6.82573 39.3039C7.27342 38.5149 7.18913 37.6444 6.6384 37.363C6.24316 37.1592 5.36462 37.6541 4.87759 37.9191C4.85645 37.9329 4.83146 37.9389 4.80662 37.9362C4.78177 37.9335 4.75853 37.9223 4.7406 37.9042C4.72267 37.8862 4.7111 37.8625 4.70775 37.8369C4.70439 37.8112 4.70945 37.7852 4.72211 37.7628C4.81708 37.5576 4.87396 37.3357 4.88976 37.1087C4.94221 36.3081 4.44675 35.7025 3.78176 35.7569C3.35935 35.7918 2.97066 36.0849 2.72901 36.4993C2.71824 36.5217 2.70282 36.5414 2.68386 36.5569C2.66489 36.5724 2.64286 36.5834 2.61932 36.589C2.59578 36.5947 2.57132 36.5949 2.5477 36.5896C2.52408 36.5843 2.50188 36.5737 2.48268 36.5585L2.47613 36.5527C2.34311 36.4255 2.18722 36.3268 2.01738 36.2621C1.84753 36.1974 1.66705 36.168 1.48623 36.1755C1.12106 36.1908 0.776708 36.3558 0.528925 36.6342C0.281143 36.9125 0.15023 37.2815 0.164984 37.6599C0.179739 38.0382 0.338949 38.395 0.607597 38.6518C0.623753 38.6701 0.63583 38.6919 0.642971 38.7156C0.650113 38.7393 0.652149 38.7644 0.648934 38.789C0.645718 38.8136 0.637331 38.8372 0.624364 38.8581C0.611396 38.879 0.594163 38.8967 0.57388 38.9099C0.209541 39.1923 -0.0302307 39.6077 -0.0292941 40.0366C-0.0292941 40.7276 0.594488 41.1905 1.36063 41.0711C1.57191 41.0379 1.77545 40.9646 1.96099 40.8547C1.98132 40.8399 2.00587 40.8327 2.03068 40.8341C2.05549 40.8355 2.0791 40.8456 2.09772 40.8626C2.11633 40.8797 2.12887 40.9027 2.13329 40.9281C2.13771 40.9534 2.13377 40.9795 2.12209 41.0022C1.91698 41.5195 1.51986 42.4677 1.74745 42.8568C2.06496 43.4042 2.90884 43.4206 3.6319 42.8937C3.77708 42.7879 3.95503 42.8607 3.96065 43.0315C3.97657 43.5565 4.00279 44.4445 4.35308 44.657C4.77549 44.9122 5.38335 44.7347 5.86196 44.2688C5.92097 44.2106 6.00619 44.2417 6.00432 44.3193C5.99215 44.8899 6.25346 45.3228 6.64684 45.3296C6.89691 45.3344 7.14698 45.1656 7.33898 44.8967C7.47198 44.7094 7.70145 44.6357 7.87191 44.7327C8.10232 44.8637 8.42077 44.9744 8.70549 44.8366C9.76548 46.2659 10.6466 47.8285 11.328 49.487C11.8642 51.1556 12.5259 52.778 13.307 54.3394C12.7284 53.7731 12.1195 53.2407 11.4835 52.7449C11.491 52.445 11.2961 52.184 11.1088 52.0054C10.959 51.8637 10.9515 51.6056 11.0835 51.4076C11.2709 51.1242 11.3467 50.8137 11.2559 50.5652C11.1163 50.1838 10.634 50.08 10.1207 50.2819C10.0505 50.31 9.99333 50.2362 10.027 50.1596C10.2921 49.5346 10.2462 48.8815 9.87157 48.5564C9.55781 48.2846 8.74764 48.5709 8.26061 48.7446C8.10232 48.8019 7.9712 48.6476 8.0199 48.4729L8.02739 48.4477C8.25967 47.5645 7.95902 46.7474 7.35397 46.6222C6.92126 46.5329 6.19914 47.2501 5.79546 47.6373C5.77858 47.6561 5.75613 47.6684 5.73169 47.6724C5.70724 47.6763 5.68223 47.6717 5.66065 47.6591C5.63906 47.6466 5.62216 47.6269 5.61264 47.6033C5.60312 47.5796 5.60153 47.5533 5.60814 47.5286C5.64968 47.3042 5.64968 47.0737 5.60814 46.8493C5.45641 46.0623 4.82513 45.6129 4.19667 45.8458C3.79768 45.9933 3.49703 46.3825 3.36965 46.8483C3.36468 46.8729 3.35459 46.896 3.34008 46.9161C3.32557 46.9361 3.307 46.9527 3.28567 46.9645C3.26433 46.9763 3.24076 46.9832 3.2166 46.9846C3.19243 46.986 3.16827 46.9819 3.1458 46.9726L3.13831 46.9677C2.9774 46.877 2.80065 46.8204 2.6184 46.8013C2.43615 46.7821 2.25204 46.8008 2.07684 46.8562C1.90164 46.9116 1.73885 47.0027 1.59798 47.1241C1.45712 47.2454 1.34101 47.3946 1.25644 47.563C1.17186 47.7313 1.12052 47.9155 1.1054 48.1046C1.09029 48.2938 1.11171 48.4842 1.16841 48.6647C1.22511 48.8452 1.31595 49.0121 1.43563 49.1558C1.55532 49.2995 1.70144 49.4171 1.86546 49.5016C1.88567 49.5149 1.90282 49.5327 1.9157 49.5536C1.92858 49.5745 1.93687 49.5981 1.94 49.6227C1.94312 49.6474 1.941 49.6724 1.93379 49.696C1.92657 49.7197 1.91444 49.7414 1.89824 49.7597C1.61726 50.1305 1.49176 50.5963 1.6004 51.0107C1.77742 51.6764 2.49486 51.9549 3.20387 51.6318C3.39942 51.5422 3.57725 51.4158 3.72837 51.2591C3.7444 51.2399 3.76611 51.2266 3.79013 51.2215C3.81416 51.2163 3.83915 51.2195 3.86124 51.2306C3.88333 51.2416 3.90129 51.2599 3.91232 51.2826C3.92335 51.3053 3.92684 51.3312 3.92225 51.3561C3.85481 51.9103 3.71057 52.9341 4.02715 53.2486C4.50201 53.6969 5.31591 53.4844 5.88069 52.7798ZM11.313 26.6966C11.313 26.487 11.491 26.3084 11.7204 26.2735C11.8407 26.2583 11.9583 26.2257 12.0698 26.1764C11.7201 27.0712 11.4079 27.9799 11.1332 28.9025C11.1169 28.4308 11.0857 27.9605 11.0395 27.4914C11.2652 27.2886 11.3168 26.9615 11.3158 26.6966H11.313Z" fill="#F1F2ED"/>
<path d="M18.4577 7.33665C18.4853 7.33688 18.5122 7.34529 18.5353 7.36089C18.5584 7.37649 18.5767 7.39861 18.5881 7.42465C18.5994 7.45069 18.6033 7.47955 18.5993 7.50781C18.5953 7.53607 18.5835 7.56256 18.5655 7.58413C18.3163 7.87527 17.893 8.36048 17.9763 8.65939C18.0765 9.01846 18.4887 9.24167 18.9748 9.24652C19.0347 9.24652 19.0684 9.30767 19.0263 9.3494C18.7397 9.64733 18.6657 10.0171 18.8727 10.2286C19.0047 10.3626 19.2211 10.4043 19.4552 10.3616C19.5286 10.3436 19.6057 10.3533 19.6728 10.3889C19.7399 10.4244 19.7926 10.4836 19.8214 10.5557C19.8689 10.7472 19.9852 10.9128 20.1464 11.0186C20.0087 12.3774 19.7004 13.7117 19.2295 14.9878C18.8848 15.3449 18.5486 15.7098 18.2208 16.0825C18.7413 16.0374 19.2584 15.9576 19.769 15.8438C21.0713 14.4736 22.4873 13.2247 24.0006 12.1113C24.5775 11.6872 25.3184 11.1972 26.1548 10.6974C26.5569 10.5714 26.9712 10.4916 27.3902 10.4596C27.5147 10.2655 27.6337 10.0714 27.7479 9.87053C27.7086 9.87053 27.6702 9.87053 27.6299 9.87053L27.7966 9.78319C28.0601 9.31421 28.2938 8.82795 28.4963 8.32749C27.2696 8.90303 26.0782 9.55608 24.9288 10.283C25.3277 9.67904 25.6866 9.04776 26.003 8.39348C26.1631 8.31965 26.2963 8.19491 26.3833 8.03733C26.4301 7.97244 26.4977 7.92699 26.5739 7.90919C26.6502 7.8914 26.7301 7.90243 26.7992 7.94028C27.0221 8.04606 27.2497 8.06255 27.4126 7.96163C27.6618 7.80732 27.6758 7.42982 27.4651 7.06977C27.436 7.02028 27.4801 6.97271 27.5391 6.98242C28.0074 7.10178 28.4644 6.98243 28.6443 6.65927C28.7941 6.38754 28.4888 5.81399 28.3043 5.46947C28.2443 5.35787 28.3324 5.23948 28.4644 5.25403H28.4832C28.7822 5.29042 29.0846 5.22428 29.3439 5.06574C29.3861 4.73093 29.416 4.39322 29.432 4.05064C29.2245 3.83861 29.0012 3.64391 28.7642 3.46836C28.7485 3.45811 28.7367 3.44272 28.7305 3.42465C28.7244 3.40658 28.7242 3.3869 28.7302 3.36876C28.7361 3.35061 28.7478 3.33506 28.7633 3.32462C28.7788 3.31417 28.7973 3.30943 28.8157 3.31116C28.9777 3.31262 29.1385 3.28231 29.2896 3.22186C29.344 3.19905 29.3969 3.17248 29.4479 3.1423V2.24945C29.4474 2.07565 29.489 1.90451 29.5687 1.75161C29.4029 1.62965 29.2091 1.55472 29.0067 1.53423C28.9889 1.53378 28.9713 1.52924 28.9553 1.52096C28.9393 1.51268 28.9252 1.50084 28.9141 1.4863C28.9031 1.47175 28.8952 1.45485 28.8911 1.4368C28.8871 1.41875 28.8869 1.39999 28.8906 1.38186C28.8906 1.38186 28.8906 1.38185 28.8906 1.37603C28.9351 1.24273 28.9534 1.10154 28.9444 0.960785C28.9353 0.820035 28.8991 0.682601 28.8379 0.556606C28.7766 0.43061 28.6917 0.318614 28.5879 0.227249C28.4842 0.135883 28.3638 0.0669966 28.234 0.0246736C28.1041 -0.0176496 27.9674 -0.0325541 27.8318 -0.0191586C27.6963 -0.00576303 27.5648 0.0356699 27.4449 0.102671C27.3251 0.169672 27.2195 0.260886 27.1343 0.370923C27.0492 0.480961 26.9861 0.607567 26.949 0.743283C26.9422 0.760209 26.932 0.775398 26.9189 0.787755C26.9058 0.800112 26.8903 0.809352 26.8734 0.814812C26.8565 0.820273 26.8387 0.821825 26.8212 0.819362C26.8037 0.816898 26.7869 0.810473 26.772 0.800549C26.6344 0.71738 26.4801 0.668412 26.3212 0.657467C26.1622 0.646522 26.003 0.673907 25.856 0.737478C25.4111 0.955833 25.309 1.53326 25.6265 2.02529C25.7146 2.161 25.8261 2.27875 25.9553 2.3727C25.9714 2.38196 25.9841 2.39663 25.9911 2.41431C25.9982 2.43198 25.9993 2.4516 25.9941 2.46998C25.989 2.48836 25.978 2.50441 25.963 2.51547C25.9479 2.52654 25.9297 2.53198 25.9113 2.5309C25.5132 2.55225 24.777 2.57552 24.6 2.85405C24.3471 3.24709 24.6 3.83617 25.1695 4.17098C25.195 4.18157 25.2171 4.19951 25.2331 4.22268C25.2491 4.24584 25.2584 4.27326 25.2599 4.30172C25.2614 4.33017 25.255 4.35848 25.2414 4.38329C25.2279 4.4081 25.2078 4.42838 25.1835 4.44174C24.8501 4.61837 24.2862 4.91631 24.26 5.22492C24.2282 5.59757 24.5335 5.96344 24.9868 6.14589C24.999 6.14855 25.01 6.15513 25.0184 6.16468C25.0267 6.17422 25.0319 6.18625 25.0333 6.19905C25.0346 6.21186 25.032 6.22478 25.0259 6.23597C25.0197 6.24716 25.0103 6.25604 24.999 6.26137C24.6244 6.4312 24.4305 6.74661 24.5504 7.02416C24.6262 7.19788 24.8136 7.31531 25.0477 7.36577C25.1222 7.37636 25.1907 7.41409 25.2408 7.47225C25.291 7.5304 25.3194 7.60515 25.3212 7.68309C25.2986 7.87941 25.3492 8.07727 25.4626 8.23628C24.9373 9.29875 24.2972 10.296 23.5548 11.2088L23.4414 11.2903C22.2684 12.1536 21.152 13.0967 20.0996 14.1134C20.4014 13.0824 20.6041 12.023 20.7047 10.9507C20.828 10.8221 20.9087 10.6562 20.9351 10.4771C20.9564 10.3993 21.0037 10.332 21.0686 10.2872C21.1335 10.2424 21.2117 10.223 21.2891 10.2325C21.5345 10.249 21.7527 10.1782 21.8689 10.0239C22.0478 9.7861 21.9297 9.42994 21.6085 9.17179C21.5635 9.13686 21.5869 9.07476 21.6459 9.06312C22.1283 8.99809 22.5095 8.71859 22.5648 8.34884C22.6097 8.03926 22.1255 7.61807 21.8333 7.36672C21.8124 7.34777 21.7972 7.32303 21.7895 7.2954C21.7818 7.26777 21.7819 7.23842 21.7897 7.21084C21.7976 7.18327 21.813 7.15862 21.834 7.13981C21.855 7.121 21.8807 7.1088 21.9082 7.1047H21.926C22.5535 6.91934 22.9366 6.40984 22.7811 5.96634C22.6706 5.649 21.9569 5.45005 21.5635 5.33457C21.5454 5.33086 21.5289 5.32091 21.5169 5.30635C21.5048 5.29178 21.4979 5.27344 21.4971 5.25427C21.4964 5.2351 21.5018 5.21624 21.5127 5.2007C21.5236 5.18516 21.5392 5.17386 21.557 5.16862C21.7087 5.10924 21.8482 5.02068 21.9681 4.90757C22.3906 4.50774 22.4233 3.92255 22.0412 3.60035C21.9094 3.50016 21.7567 3.43353 21.5955 3.40588C21.4342 3.37823 21.2689 3.39032 21.113 3.44118C21.0963 3.44758 21.0785 3.45007 21.0607 3.44848C21.043 3.44689 21.0258 3.44127 21.0104 3.43199C20.995 3.42272 20.9818 3.41003 20.9717 3.39484C20.9616 3.37965 20.9548 3.36234 20.9519 3.34414V3.33833C20.9463 3.19793 20.9137 3.06008 20.8559 2.93292C20.7982 2.80577 20.7165 2.69185 20.6157 2.59786C20.5148 2.50386 20.3969 2.4317 20.2688 2.38559C20.1407 2.33948 20.0049 2.32035 19.8696 2.32934C19.7343 2.33833 19.602 2.37525 19.4806 2.43793C19.3592 2.50061 19.2511 2.58777 19.1627 2.69433C19.0743 2.80089 19.0073 2.9247 18.9657 3.05845C18.9241 3.1922 18.9087 3.33321 18.9204 3.47322C18.92 3.49152 18.9156 3.5095 18.9077 3.52589C18.8999 3.54227 18.8886 3.55666 18.8748 3.56804C18.8609 3.57942 18.8448 3.58751 18.8276 3.59175C18.8104 3.596 18.7926 3.59628 18.7753 3.59258C18.6181 3.56651 18.4572 3.57853 18.3053 3.6277C18.1533 3.67686 18.0144 3.76183 17.8995 3.87595C17.5605 4.24667 17.6654 4.82216 18.1337 5.16279C18.2626 5.25695 18.4075 5.3251 18.5608 5.36369C18.5789 5.36669 18.5955 5.37588 18.608 5.38979C18.6205 5.40371 18.6282 5.42155 18.6298 5.4405C18.6314 5.45944 18.6269 5.47841 18.6169 5.49438C18.607 5.51035 18.5922 5.52241 18.5748 5.52866C18.2105 5.69655 17.5314 5.99353 17.4612 6.32058C17.3657 6.78252 17.8087 7.23669 18.4577 7.33665Z" fill="#F1F2ED"/>
<path d="M57.0454 78.3458C55.2348 77.1292 53.3323 76.0663 51.3564 75.1675C51.053 75.3926 50.7617 75.6226 50.4863 75.8575C52.5848 76.7833 54.602 77.8958 56.5153 79.1823C56.5941 79.2358 56.6861 79.2644 56.7803 79.2648C56.8842 79.2646 56.9853 79.2298 57.0686 79.1654C57.1519 79.101 57.213 79.0106 57.2427 78.9074C57.2725 78.8042 57.2693 78.6939 57.2338 78.5927C57.1982 78.4916 57.1322 78.405 57.0454 78.3458Z" fill="#F1F2ED"/>
<path d="M77.1627 67.5794H77.1543C77.1304 67.5752 77.1078 67.5657 77.0879 67.5514C77.068 67.5371 77.0514 67.5185 77.0392 67.4968C77.0271 67.4751 77.0197 67.4509 77.0175 67.426C77.0154 67.401 77.0186 67.3758 77.0269 67.3523C77.1543 66.8865 77.0953 66.3915 76.8302 66.049C76.4134 65.5094 75.6482 65.5482 75.1209 66.1363C74.9718 66.3031 74.8545 66.4978 74.7753 66.7099C74.7683 66.7347 74.7534 66.7563 74.733 66.7713C74.7127 66.7864 74.688 66.7938 74.6631 66.7926C74.6381 66.7914 74.6143 66.7815 74.5954 66.7646C74.5766 66.7476 74.5637 66.7246 74.559 66.6992C74.4119 66.1499 74.16 65.1464 73.746 64.9873C73.1681 64.765 72.4975 65.2969 72.2474 66.1751C72.2474 66.1829 72.2474 66.1916 72.2399 66.2004C72.1912 66.3789 72.0039 66.4352 71.8981 66.2974C71.5721 65.885 71.0261 65.2008 70.6224 65.2609C70.585 65.2668 70.548 65.2755 70.5119 65.2871C70.3836 65.3687 70.2543 65.4512 70.1232 65.5317C69.8737 65.8097 69.7173 66.1636 69.6774 66.541C69.6661 66.6244 69.5837 66.6555 69.535 66.5934C69.4087 66.4119 69.2398 66.267 69.0442 66.1722C68.7595 66.3346 68.4704 66.4947 68.1769 66.6526C68.1489 66.7755 68.1382 66.902 68.1451 67.0282C68.1571 67.1372 68.131 67.247 68.0715 67.3378C68.0121 67.4286 67.9232 67.4943 67.821 67.5231C67.57 67.5726 67.2694 67.6871 67.1242 67.9472C66.7246 67.9847 66.3262 68.0345 65.9291 68.0966C66.6553 67.6645 67.3658 67.2038 68.0608 66.7147C66.0003 67.8171 63.7599 68.8187 61.5401 69.8105L61.5261 69.8163C60.0219 70.4879 58.5046 71.1653 57.0501 71.8689C57.0304 71.9125 57.0107 71.9562 56.9929 72.0028C56.9889 72.0194 56.98 72.0344 56.9674 72.0456C56.9549 72.0568 56.9393 72.0637 56.9228 72.0654C56.9063 72.0671 56.8897 72.0635 56.8753 72.0551C56.8608 72.0466 56.8493 72.0338 56.8421 72.0183C56.8365 72.0047 56.83 71.9921 56.8243 71.9795C55.8559 72.4511 54.9193 72.9364 54.0342 73.4352C54.1091 73.6846 54.3152 73.869 54.5025 73.9893C54.6683 74.0961 54.7188 74.3396 54.6271 74.5512C54.4959 74.8569 54.4772 75.1655 54.6036 75.3887C54.8031 75.74 55.2958 75.7624 55.7688 75.4712C55.8334 75.4314 55.9018 75.4935 55.8812 75.5751C55.721 76.2369 55.8718 76.8735 56.2942 77.1278C56.6454 77.3394 57.4041 76.9259 57.8527 76.6824C57.9988 76.6037 58.1478 76.728 58.1337 76.9104V76.9153C58.0466 77.8256 58.4765 78.5787 59.0919 78.5971C59.5302 78.6097 60.1324 77.7848 60.4659 77.3452C60.4792 77.3233 60.4993 77.3068 60.5229 77.2983C60.5465 77.2898 60.5722 77.2898 60.5958 77.2983C60.6193 77.3069 60.6394 77.3235 60.6527 77.3454C60.6661 77.3673 60.6718 77.3932 60.6691 77.4189C60.6681 77.6401 60.7065 77.8596 60.7824 78.0662C61.0634 78.8164 61.7546 79.1503 62.3353 78.8116C62.6968 78.601 62.9273 78.1808 62.9853 77.713C62.9864 77.6882 62.9927 77.664 63.0038 77.642C63.0149 77.62 63.0304 77.6008 63.0495 77.5857C63.0685 77.5706 63.0905 77.56 63.1138 77.5547C63.1372 77.5493 63.1615 77.5494 63.1848 77.5548C63.3584 77.6176 63.5423 77.6438 63.7257 77.6318C63.9092 77.6198 64.0885 77.5698 64.253 77.485C64.4176 77.4001 64.564 77.2819 64.6839 77.1375C64.8037 76.993 64.8944 76.8252 64.9506 76.6439C65.0069 76.4626 65.0275 76.2714 65.0114 76.0817C64.9952 75.892 64.9426 75.7075 64.8566 75.5392C64.7706 75.3708 64.653 75.222 64.5106 75.1015C64.3683 74.981 64.2041 74.8913 64.0278 74.8375H64.0203C63.998 74.8276 63.978 74.8128 63.9619 74.794C63.9458 74.7752 63.9338 74.753 63.9269 74.7289C63.9201 74.7048 63.9184 74.6795 63.9221 74.6546C63.9257 74.6298 63.9346 74.6061 63.9482 74.5852C64.1776 74.164 64.2291 73.6691 64.054 73.2712C63.773 72.6442 63.0237 72.4948 62.3728 72.9373C62.1891 73.0626 62.0302 73.223 61.9045 73.4099C61.892 73.4325 61.8725 73.45 61.8492 73.4597C61.8259 73.4693 61.8001 73.4705 61.7761 73.4631C61.752 73.4557 61.7311 73.4401 61.7166 73.4188C61.7022 73.3976 61.6951 73.3719 61.6966 73.3459C61.6788 72.7762 61.6628 71.7398 61.2976 71.4846C60.7871 71.1264 60.0144 71.4787 59.5723 72.2706L59.5592 72.2939C59.4712 72.456 59.2782 72.4647 59.2033 72.3085C59.0619 72.0008 58.8577 71.5651 58.6226 71.2788C60.0375 70.8643 61.4234 70.3504 62.7708 69.7406C63.7124 69.8243 64.6096 70.1924 65.3512 70.7994C64.8061 70.977 64.6319 71.5699 64.6338 72.2755C64.6338 73.1188 65.3109 73.801 65.7277 73.7991C66.0639 73.7991 66.565 73.3488 66.7439 72.7316C67.2975 73.0053 67.9344 72.9519 68.1741 72.7093C68.487 72.3929 68.5057 71.371 67.9091 70.7382C67.3124 70.1055 66.6409 69.7843 66.0134 70.42C65.9768 70.4568 65.945 70.4937 65.9197 70.5306C65.2753 69.9516 64.51 69.5353 63.684 69.3146C63.8901 69.2175 64.0952 69.1088 64.2994 69.004C65.2119 68.7791 66.1382 68.6186 67.0717 68.5237C67.1654 68.8342 67.4651 68.9992 67.7152 69.0836C67.8093 69.1245 67.8861 69.199 67.9318 69.2935C67.9775 69.388 67.989 69.4963 67.9643 69.5989C67.9062 69.9279 67.9587 70.2326 68.1329 70.418C68.4064 70.7091 68.8906 70.6121 69.2831 70.2132C69.3374 70.1579 69.417 70.2026 69.417 70.286C69.417 70.9653 69.7036 71.5476 70.1728 71.6942C70.5615 71.8145 71.2031 71.2264 71.5852 70.88C71.7089 70.7674 71.8822 70.8528 71.9074 71.0342C72.0311 71.9407 72.6202 72.5666 73.2187 72.4337C73.6477 72.3366 74.0438 71.3894 74.2677 70.8809C74.2756 70.8563 74.2913 70.8352 74.3123 70.8211C74.3332 70.8069 74.3582 70.8005 74.3831 70.803C74.408 70.8055 74.4314 70.8167 74.4494 70.8347C74.4674 70.8527 74.4789 70.8766 74.4822 70.9023C74.5315 71.1176 74.6188 71.3216 74.7397 71.504C75.1799 72.1648 75.932 72.3182 76.4191 71.8465C76.7216 71.5554 76.8508 71.0896 76.7993 70.6208C76.7948 70.5964 76.7955 70.5713 76.8013 70.5472C76.8072 70.5231 76.818 70.5007 76.8331 70.4814C76.8481 70.4621 76.8671 70.4464 76.8886 70.4354C76.9101 70.4245 76.9337 70.4186 76.9576 70.418C77.3221 70.4454 77.6823 70.3217 77.9587 70.074C78.2352 69.8263 78.4054 69.4749 78.4318 69.0972C78.4583 68.7195 78.3389 68.3464 78.0998 68.0599C77.8607 67.7734 77.5216 67.5971 77.1571 67.5697L77.1627 67.5794Z" fill="#F1F2ED"/>
<path d="M91.3972 38.9187C91.3769 38.9056 91.3597 38.888 91.3467 38.8672C91.3337 38.8463 91.3254 38.8228 91.3221 38.7983C91.3189 38.7738 91.3209 38.7488 91.3281 38.7252C91.3352 38.7015 91.3473 38.6798 91.3634 38.6615C91.4965 38.5341 91.6039 38.3808 91.6798 38.2103C91.7556 38.0398 91.7983 37.8555 91.8054 37.6679C91.8124 37.4803 91.7838 37.2931 91.7211 37.117C91.6584 36.9409 91.5628 36.7793 91.4398 36.6415C91.3168 36.5037 91.1688 36.3923 91.0042 36.3137C90.8397 36.2352 90.6618 36.191 90.4808 36.1836C90.2998 36.1763 90.1191 36.2059 89.9491 36.2709C89.7792 36.3359 89.6232 36.435 89.4902 36.5624L89.4837 36.5682C89.4645 36.5835 89.4423 36.5941 89.4186 36.5994C89.395 36.6047 89.3706 36.6045 89.347 36.5988C89.3235 36.5932 89.3015 36.5821 89.2825 36.5666C89.2635 36.5511 89.2481 36.5314 89.2373 36.509C88.9957 36.0946 88.607 35.8016 88.1846 35.7666C87.5196 35.7123 87.0241 36.3179 87.0766 37.1185C87.0924 37.3455 87.1493 37.5674 87.2442 37.7726C87.2569 37.7949 87.262 37.821 87.2586 37.8466C87.2552 37.8723 87.2437 37.896 87.2257 37.914C87.2078 37.932 87.1846 37.9433 87.1597 37.946C87.1349 37.9487 87.1099 37.9426 87.0888 37.9288C86.6017 37.6639 85.7232 37.169 85.3279 37.3728C84.7763 37.6571 84.692 38.5276 85.1406 39.3137L85.1537 39.336C85.2474 39.4952 85.1537 39.6757 84.9908 39.664C84.4775 39.6281 83.6224 39.5718 83.3882 39.9193C83.1072 40.3346 83.2299 40.978 83.643 41.5089C83.6945 41.5739 83.658 41.6603 83.583 41.6525C83.0361 41.5933 82.5977 41.8282 82.5593 42.2348C82.534 42.4997 82.6839 42.7792 82.934 43.0015C83.111 43.1567 83.1691 43.4071 83.0604 43.5838C82.9246 43.8079 82.7991 44.1126 82.8825 44.4009C82.3504 45.1101 81.8605 45.8522 81.4157 46.6232C81.9293 44.3751 82.2187 42.0782 82.2793 39.7688C82.5602 38.3295 82.9827 36.9237 83.54 35.5735C83.85 35.6347 84.131 35.4454 84.3239 35.2591C84.4663 35.1203 84.706 35.1339 84.8793 35.2804C85.1294 35.492 85.4122 35.591 85.6529 35.5221C86.0332 35.4144 86.1821 34.9272 86.0332 34.3779C86.0126 34.3022 86.0885 34.2508 86.1596 34.2915C86.7347 34.6244 87.3669 34.639 87.7144 34.2828C88.0038 33.9916 87.8156 33.1182 87.705 32.6078C87.6695 32.4418 87.8249 32.3244 87.986 32.3904C88.8121 32.7145 89.6251 32.4806 89.803 31.8693C89.9285 31.4345 89.316 30.6173 88.9929 30.17C88.9763 30.1507 88.9663 30.1263 88.9647 30.1006C88.963 30.0748 88.9697 30.0492 88.9837 30.0279C88.9977 30.0066 89.0183 29.9907 89.042 29.9829C89.0657 29.975 89.0913 29.9756 89.1146 29.9846C89.3206 30.0434 89.5352 30.0624 89.7478 30.0409C90.5186 29.9594 91.0103 29.3499 90.8464 28.6822C90.7443 28.2659 90.4128 27.9262 89.9922 27.7467C89.9696 27.7388 89.9488 27.726 89.9314 27.709C89.914 27.692 89.9004 27.6713 89.8914 27.6483C89.8825 27.6253 89.8786 27.6006 89.8798 27.5759C89.881 27.5511 89.8874 27.527 89.8986 27.505C89.997 27.3477 90.0645 27.1719 90.0973 26.9875C90.1301 26.8031 90.1275 26.6139 90.0898 26.4305C90.052 26.2472 89.9797 26.0733 89.8771 25.9189C89.7744 25.7645 89.6435 25.6326 89.4916 25.5306C89.3398 25.4287 89.17 25.3587 88.9921 25.3247C88.8142 25.2908 88.6315 25.2934 88.4546 25.3326C88.2776 25.3717 88.1099 25.4466 87.9609 25.5529C87.8118 25.6593 87.6845 25.795 87.5861 25.9523V25.9591C87.5712 25.979 87.5523 25.9952 87.5306 26.0066C87.5089 26.018 87.485 26.0242 87.4607 26.0249C87.4364 26.0255 87.4123 26.0206 87.3901 26.0104C87.3679 26.0002 87.3481 25.985 87.3323 25.9659C86.9998 25.6262 86.5521 25.4418 86.1344 25.5175C85.4787 25.6359 85.1425 26.3502 85.3851 27.112C85.4541 27.3281 85.5626 27.5283 85.7045 27.7021C85.7237 27.72 85.7363 27.7444 85.7401 27.771C85.7439 27.7975 85.7386 27.8247 85.7252 27.8476C85.7118 27.8706 85.6911 27.888 85.6666 27.8969C85.6421 27.9058 85.6154 27.9055 85.5911 27.8961C85.0554 27.7651 84.086 27.508 83.7516 27.8098C83.2833 28.2281 83.4126 29.0927 84.0326 29.741L84.0504 29.7604C84.1778 29.8904 84.1356 30.0875 83.9708 30.1195C83.466 30.2165 82.624 30.3825 82.4807 30.7794C82.3083 31.254 82.5809 31.8469 83.1082 32.2536C83.1737 32.304 83.1588 32.3962 83.0838 32.4078C82.5406 32.4913 82.1725 32.8319 82.2325 33.2347C82.2709 33.4977 82.4835 33.7296 82.7832 33.8801C82.881 33.9217 82.9612 33.9981 83.0095 34.0956C83.0577 34.1931 83.0708 34.3053 83.0464 34.4119C82.9677 34.6642 82.9199 34.9941 83.0688 35.2494C82.7591 35.9892 82.4886 36.746 82.2587 37.5164C82.1767 35.3842 81.9014 33.2648 81.4363 31.186C81.3552 30.0095 81.3677 28.828 81.4738 27.6535C81.7866 27.6137 81.9983 27.344 82.1294 27.1052C82.2231 26.9286 82.4563 26.8655 82.6642 26.9499C82.9649 27.0712 83.2637 27.0761 83.4725 26.9344C83.8022 26.7112 83.8003 26.1998 83.4969 25.7252C83.4547 25.6592 83.5119 25.5864 83.5905 25.6029C84.2359 25.7369 84.8428 25.5505 85.0685 25.1012C85.2558 24.7276 84.8203 23.9628 84.5646 23.5096C84.4813 23.3621 84.5946 23.202 84.7716 23.2117C85.6539 23.2583 86.3638 22.7779 86.3479 22.1394C86.3395 21.6852 85.5143 21.1019 85.0751 20.7807C85.0539 20.7675 85.0375 20.7475 85.0285 20.7236C85.0196 20.6998 85.0185 20.6736 85.0254 20.6491C85.0324 20.6245 85.047 20.6031 85.067 20.5881C85.087 20.5731 85.1113 20.5654 85.1359 20.5662C85.3493 20.5568 85.5591 20.5068 85.755 20.4187C86.465 20.0965 86.7535 19.3609 86.3985 18.7747C86.1793 18.4118 85.7625 18.1925 85.3092 18.1556C85.2852 18.1556 85.2616 18.1501 85.2399 18.1395C85.2182 18.129 85.199 18.1137 85.1836 18.0946C85.1682 18.0755 85.1571 18.0532 85.151 18.0292C85.1448 18.0052 85.1439 17.9801 85.1481 17.9557C85.2434 17.59 85.1946 17.2002 85.0124 16.8719C84.8303 16.5435 84.5297 16.3036 84.1769 16.2049C84.0021 16.1561 83.8198 16.1433 83.6404 16.1675C83.4609 16.1916 83.2878 16.2521 83.1309 16.3455C82.814 16.5343 82.5825 16.8457 82.4872 17.2113C82.4868 17.2142 82.4868 17.2171 82.4872 17.22C82.4787 17.2436 82.4653 17.2649 82.448 17.2824C82.4307 17.3 82.4098 17.3134 82.3869 17.3216C82.364 17.3299 82.3397 17.3328 82.3155 17.3302C82.2914 17.3275 82.2682 17.3194 82.2474 17.3064C81.8307 17.089 81.3502 17.0551 80.9746 17.2598C80.3845 17.5811 80.2759 18.3671 80.733 19.0154C80.863 19.1987 81.0254 19.3548 81.2116 19.4754C81.2339 19.4872 81.2518 19.5065 81.2622 19.5302C81.2727 19.5538 81.2751 19.5804 81.2692 19.6057C81.2632 19.631 81.2492 19.6534 81.2294 19.6694C81.2096 19.6854 81.1851 19.694 81.16 19.6938C80.6121 19.7394 79.6137 19.8054 79.3805 20.1955C79.0602 20.7419 79.4367 21.5241 80.2234 21.9423L80.2459 21.954C80.4061 22.0374 80.4239 22.2393 80.2768 22.3218C79.8244 22.5751 79.0714 23.0011 79.0527 23.4223C79.0293 23.9289 79.4629 24.4054 80.0829 24.6266C80.1597 24.6538 80.1766 24.747 80.1054 24.781C79.8714 24.8904 79.6774 25.0748 79.5519 25.3069C79.2366 24.5571 78.895 23.8199 78.5272 23.0952C78.4945 23.0293 78.4579 22.9642 78.4242 22.9012C78.064 21.5906 77.8442 20.2429 77.7686 18.8825C78.0102 18.7941 78.1432 18.5467 78.2247 18.3351C78.2629 18.2525 78.328 18.1866 78.4086 18.1489C78.4891 18.1113 78.5799 18.1044 78.6649 18.1294C78.9384 18.1934 79.195 18.1575 79.3571 18.0071C79.6118 17.7713 79.5444 17.3326 79.226 16.9648C79.1819 16.9144 79.226 16.8445 79.2925 16.8474C79.8638 16.8765 80.3611 16.6349 80.4988 16.2185C80.6131 15.8721 80.1438 15.2733 79.8675 14.9191C79.7739 14.8036 79.8544 14.6503 80.0071 14.6347C80.7704 14.5561 81.3183 14.0525 81.2247 13.5012C81.16 13.113 80.3817 12.7249 79.9612 12.5036C79.9364 12.5001 79.9139 12.4865 79.8987 12.4659C79.8835 12.4452 79.8768 12.4192 79.8802 12.3934C79.8835 12.3677 79.8966 12.3444 79.9165 12.3286C79.9365 12.3129 79.9616 12.306 79.9865 12.3095C80.1684 12.272 80.3423 12.2006 80.4997 12.0989C81.0692 11.7262 81.2247 11.0556 80.8472 10.6005C80.6121 10.3181 80.2272 10.1861 79.8329 10.2123C79.8124 10.2154 79.7914 10.2139 79.7716 10.2077C79.7517 10.2016 79.7334 10.191 79.7179 10.1768C79.7024 10.1626 79.69 10.145 79.6817 10.1253C79.6734 10.1056 79.6694 10.0843 79.6699 10.0628C79.6877 9.90099 79.6746 9.73709 79.6313 9.58048C79.588 9.42388 79.5154 9.27766 79.4175 9.15015C79.3197 9.02263 79.1986 8.91634 79.0611 8.83733C78.9236 8.75831 78.7724 8.70813 78.6162 8.68965C78.46 8.67117 78.3018 8.68475 78.1507 8.72962C77.9996 8.77448 77.8584 8.84974 77.7353 8.95112C77.6123 9.0525 77.5097 9.17801 77.4334 9.32047C77.3572 9.46294 77.3088 9.61957 77.2909 9.78142C77.2909 9.78142 77.2909 9.78628 77.2909 9.78822C77.2868 9.80964 77.278 9.82983 77.2654 9.84734C77.2528 9.86484 77.2366 9.8792 77.2179 9.88942C77.1993 9.89963 77.1787 9.90544 77.1576 9.9064C77.1366 9.90736 77.1155 9.90344 77.0961 9.89496C76.7102 9.76395 76.2944 9.79792 75.9975 10.026C75.5292 10.3812 75.5357 11.0702 76.0096 11.5661C76.1439 11.7064 76.3029 11.8187 76.4779 11.897C76.4902 11.8982 76.5022 11.9018 76.5132 11.9078C76.5241 11.9137 76.5338 11.9218 76.5417 11.9316C76.5496 11.9415 76.5556 11.9528 76.5593 11.965C76.563 11.9772 76.5643 11.9901 76.5632 12.0028C76.5621 12.0156 76.5586 12.028 76.5528 12.0393C76.5471 12.0506 76.5393 12.0607 76.5298 12.0689C76.5203 12.0771 76.5094 12.0833 76.4976 12.0871C76.4858 12.0909 76.4734 12.0923 76.4611 12.0911C75.9928 12.2037 75.1498 12.3939 74.9991 12.7608C74.7921 13.2722 75.2126 13.8943 75.9357 14.1495L75.9572 14.1563C76.1052 14.2068 76.1445 14.3776 76.0293 14.4678C75.6725 14.7463 75.0796 15.2122 75.1161 15.578C75.1449 15.7985 75.2554 15.9987 75.4243 16.136H75.9122C76.1819 16.1371 76.4401 16.2487 76.6304 16.4467C76.8207 16.6446 76.9275 16.9126 76.9275 17.1919V18.2691C76.9596 18.4709 77.0591 18.6547 77.2085 18.7883C77.247 19.5944 77.3339 20.3973 77.4689 21.1922C77.2947 20.8984 77.1155 20.6073 76.9313 20.3188V22.2044C77.186 22.6501 77.4308 23.103 77.6656 23.563C77.9269 24.0764 78.1723 24.5975 78.4064 25.1245C77.9452 24.6373 77.4523 24.1834 76.9313 23.7659V24.5005C77.7709 25.2021 78.5151 26.0182 79.1435 26.9266C80.2181 29.7849 80.9013 32.7849 81.1732 35.8394C80.6458 34.7575 79.9918 33.7471 79.226 32.831C79.5425 32.4146 79.2559 31.9275 78.9815 31.6121C78.8195 31.4257 78.9216 31.2103 79.1051 31.0298C79.3693 30.7716 79.55 30.2253 79.3037 29.8652C79.0574 29.5052 78.6706 29.543 78.0664 29.6653C78.0498 29.6706 78.032 29.6703 78.0156 29.6644C77.9992 29.6585 77.985 29.6473 77.9752 29.6324C77.9653 29.6176 77.9604 29.5998 77.9609 29.5818C77.9615 29.5638 77.9676 29.5465 77.9784 29.5324C78.353 28.9724 78.1161 28.3901 77.7536 28.0553C77.5663 27.8816 77.2591 27.8797 76.9313 27.9291V33.62C77.127 33.5103 77.2516 33.3094 77.3565 33.1347C77.4153 33.0324 77.5085 32.956 77.6181 32.9202C77.7278 32.8844 77.8464 32.8917 77.9512 32.9406C78.1903 33.069 78.4578 33.1299 78.7267 33.1173C79.8422 34.4458 80.7948 35.983 81.2837 37.6542C81.2977 38.0482 81.3071 38.4432 81.3071 38.8382C81.3072 41.5723 80.9778 44.2958 80.3265 46.9454C80.2304 45.7843 80.0034 44.6388 79.6502 43.5323C80.097 43.2742 80.0136 42.7103 79.8769 42.3095C79.7963 42.0737 79.9706 41.9155 80.2056 41.8243C80.5456 41.6904 80.9156 41.2585 80.8229 40.8247C80.7301 40.3909 80.3546 40.2744 79.7542 40.1454C79.7371 40.1435 79.721 40.136 79.7082 40.124C79.6954 40.1121 79.6866 40.0962 79.6831 40.0788C79.6796 40.0613 79.6815 40.0431 79.6885 40.0269C79.6956 40.0106 79.7074 39.997 79.7224 39.9882C80.2778 39.6204 80.2731 38.9876 80.0623 38.5325C79.8928 38.1656 79.2962 38.0676 78.796 37.9696C78.7622 37.9673 78.7299 37.954 78.7037 37.9317C78.6775 37.9094 78.6587 37.879 78.65 37.8451C78.6413 37.8111 78.6432 37.7751 78.6552 37.7423C78.6673 37.7094 78.6891 37.6813 78.7174 37.662L78.7352 37.6464C79.329 37.1175 79.2653 36.5207 78.8223 36.2014C78.516 35.9811 77.8164 36.0859 77.3462 36.1869C77.2441 36.2082 77.1851 36.1179 77.2525 36.0471C77.3758 35.9254 77.4751 35.7801 77.5447 35.6191C77.7695 35.0834 77.5092 34.6147 76.9828 34.5594H76.9303V43.2858C77.2891 43.4314 77.5794 43.2247 77.8126 43.0519C77.9049 42.9808 78.0191 42.9474 78.1336 42.9579C78.2481 42.9685 78.3549 43.0223 78.4336 43.1092C78.6062 43.3231 78.8305 43.4859 79.0836 43.5808C79.6456 45.3277 79.9584 47.2133 79.7392 49.0232C79.0295 51.263 78.0874 53.4165 76.9294 55.4458V55.6738C76.9308 56.3454 76.8595 57.015 76.7168 57.6701C76.9946 57.2418 77.2631 56.8086 77.5223 56.3706C78.4725 55.2225 79.537 54.1815 80.6983 53.2651C80.9381 53.4757 81.2734 53.4592 81.5291 53.3913C81.6291 53.3764 81.7309 53.3986 81.8166 53.454C81.9023 53.5094 81.9664 53.5945 81.9974 53.6941C82.1135 54.0056 82.313 54.2366 82.5593 54.3006C82.9415 54.3977 83.303 54.0531 83.4351 53.5C83.4393 53.4832 83.4486 53.4683 83.4615 53.4573C83.4745 53.4463 83.4904 53.4398 83.5071 53.4388C83.5238 53.4377 83.5404 53.4421 83.5545 53.4513C83.5686 53.4606 83.5796 53.4742 83.5859 53.4903C83.9277 54.0725 84.4709 54.4093 84.943 54.2773C85.3345 54.1677 85.5846 53.3175 85.7326 52.8158C85.7813 52.6528 85.9714 52.6304 86.0847 52.7721C86.6467 53.4767 87.4681 53.6892 87.9139 53.2486C88.2305 52.9342 88.0862 51.9103 88.0197 51.3562C88.0147 51.3312 88.0178 51.3052 88.0286 51.2822C88.0395 51.2593 88.0574 51.2407 88.0796 51.2296C88.1018 51.2184 88.127 51.2153 88.1511 51.2207C88.1752 51.226 88.1969 51.2396 88.2127 51.2592C88.3638 51.4159 88.5416 51.5422 88.7372 51.6318C89.4462 51.955 90.1646 51.6765 90.3407 51.0107C90.4493 50.5963 90.3238 50.1305 90.0428 49.7598C90.0266 49.7415 90.0145 49.7198 90.0073 49.6961C90 49.6724 89.9979 49.6474 90.0011 49.6228C90.0042 49.5982 90.0125 49.5746 90.0254 49.5537C90.0382 49.5327 90.0554 49.515 90.0756 49.5017C90.2396 49.4171 90.3857 49.2996 90.5054 49.1559C90.6251 49.0122 90.716 48.8452 90.7727 48.6647C90.8294 48.4843 90.8508 48.2938 90.8357 48.1047C90.8205 47.9155 90.7692 47.7314 90.6846 47.563C90.6 47.3947 90.4839 47.2455 90.3431 47.1241C90.2022 47.0028 90.0394 46.9117 89.8642 46.8563C89.689 46.8009 89.5049 46.7822 89.3227 46.8013C89.1404 46.8205 88.9637 46.877 88.8028 46.9678L88.7953 46.9726C88.7729 46.9819 88.7487 46.986 88.7246 46.9846C88.7005 46.9833 88.677 46.9764 88.6558 46.9645C88.6345 46.9527 88.616 46.9361 88.6016 46.9161C88.5872 46.896 88.5772 46.8729 88.5723 46.8484C88.444 46.3826 88.1434 45.9934 87.7444 45.8459C87.1159 45.613 86.4846 46.0623 86.3329 46.8494C86.2914 47.0738 86.2914 47.3043 86.3329 47.5287C86.3395 47.5534 86.3379 47.5797 86.3284 47.6033C86.3189 47.627 86.302 47.6467 86.2804 47.6592C86.2588 47.6717 86.2338 47.6764 86.2094 47.6724C86.1849 47.6685 86.1625 47.6561 86.1456 47.6374C85.7419 47.2492 85.0217 46.533 84.5871 46.6223C83.982 46.7475 83.6814 47.5646 83.9137 48.4477C83.9137 48.4555 83.9137 48.4642 83.9212 48.4729C83.9699 48.6515 83.8387 48.8019 83.6805 48.7447C83.1944 48.571 82.3833 48.2847 82.0695 48.5564C81.6949 48.8815 81.649 49.5347 81.914 50.1596C81.9468 50.2363 81.8897 50.3101 81.8204 50.2819C81.3071 50.0762 80.8247 50.1849 80.6852 50.5653C80.5915 50.8137 80.6683 51.1243 80.8575 51.4076C80.9896 51.6017 80.9821 51.8638 80.8322 52.0055C80.6449 52.184 80.4463 52.4451 80.4576 52.7449C79.8215 53.2408 79.2127 53.7731 78.634 54.3394C79.4156 52.7783 80.0773 51.1558 80.6131 49.4871C81.2944 47.8285 82.1756 46.2659 83.2356 44.8366C83.5165 44.9744 83.8387 44.8638 84.0691 44.7328C84.1622 44.6895 84.2672 44.6823 84.365 44.7123C84.4628 44.7424 84.5469 44.8079 84.6021 44.8968C84.7894 45.1656 85.0441 45.3345 85.2942 45.3296C85.6876 45.3228 85.9498 44.89 85.9367 44.3193C85.9367 44.2417 86.0201 44.2107 86.0791 44.2689C86.5568 44.7386 87.1656 44.9162 87.588 44.6571C87.9383 44.4445 87.9626 43.5566 87.9804 43.0315C87.986 42.8607 88.1677 42.788 88.3092 42.8937C89.0322 43.4207 89.8761 43.4042 90.1936 42.8569C90.4203 42.4687 90.0232 41.5196 89.819 41.0023C89.8073 40.9796 89.8033 40.9534 89.8078 40.9281C89.8122 40.9028 89.8247 40.8797 89.8433 40.8627C89.862 40.8456 89.8856 40.8356 89.9104 40.8342C89.9352 40.8327 89.9597 40.84 89.9801 40.8548C90.1656 40.9646 90.3692 41.038 90.5804 41.0712C91.3466 41.1906 91.9694 40.7277 91.9704 40.0367C92.0013 39.6174 91.7615 39.2021 91.3972 38.9187ZM80.8622 28.8967C80.5887 27.9741 80.2765 27.0654 79.9256 26.1707C80.0367 26.2199 80.154 26.2526 80.274 26.2677C80.5035 26.3007 80.6814 26.4812 80.6814 26.6908C80.6814 26.9558 80.732 27.2828 80.9502 27.4808C80.9072 27.9537 80.8778 28.426 80.8622 28.8977V28.8967Z" fill="#F1F2ED"/>
<path d="M85.1984 57.3069H85.19C85.1657 57.3106 85.1409 57.3086 85.1175 57.3011C85.094 57.2935 85.0725 57.2806 85.0545 57.2632C85.0365 57.2459 85.0225 57.2246 85.0136 57.2009C85.0046 57.1772 85.0009 57.1518 85.0027 57.1264C85.0027 56.6412 84.806 56.1851 84.4585 55.9337C83.9115 55.5378 83.1885 55.7998 82.8429 56.516C82.745 56.7195 82.6855 56.9405 82.6677 57.1672C82.6679 57.1932 82.6596 57.2185 82.6442 57.239C82.6288 57.2595 82.6071 57.2741 82.5827 57.2803C82.5584 57.2864 82.5327 57.2839 82.5098 57.2731C82.487 57.2622 82.4684 57.2437 82.457 57.2205C82.1657 56.7353 81.6506 55.8483 81.2104 55.8172C80.596 55.7726 80.0977 56.4791 80.0986 57.3942V57.4204C80.0986 57.6068 79.9357 57.7116 79.798 57.6145C79.3728 57.3147 78.6628 56.8178 78.2919 56.9944C77.847 57.206 77.6363 57.8242 77.7346 58.4986C77.7468 58.5821 77.6737 58.6374 77.6119 58.5908C77.2195 58.291 76.7886 58.2366 76.5339 58.4579C76.4711 58.652 76.4009 58.8519 76.3241 59.0402C76.3314 59.1671 76.3563 59.2923 76.3981 59.4118C76.4749 59.638 76.3981 59.8845 76.222 59.9805C75.9953 60.1019 75.7378 60.2998 75.6685 60.5919L75.4811 60.6725C75.2734 60.9934 75.0496 61.3027 74.8105 61.5993C75.129 61.4459 75.4512 61.3007 75.7771 61.1635C75.9551 61.4324 76.2838 61.5032 76.547 61.5119C76.7418 61.5178 76.9039 61.706 76.9273 61.9331C76.9601 62.265 77.094 62.5416 77.3113 62.6697C77.6541 62.8696 78.0915 62.6338 78.3593 62.1359C78.3959 62.067 78.4848 62.0855 78.5073 62.167C78.689 62.8221 79.1274 63.2947 79.6163 63.2957C80.0228 63.2957 80.4789 62.5445 80.7496 62.101C80.8376 61.9564 81.0305 61.9875 81.0998 62.1544C81.4651 62.987 82.2013 63.416 82.7436 63.1113C83.1285 62.8949 83.2494 61.8681 83.3252 61.314C83.3261 61.2881 83.3355 61.2632 83.3519 61.2436C83.3682 61.2239 83.3904 61.2105 83.415 61.2057C83.4396 61.2008 83.465 61.2048 83.4872 61.2169C83.5093 61.229 83.5269 61.2485 83.5369 61.2722C83.6432 61.4642 83.7825 61.6342 83.9481 61.774C84.5503 62.2786 85.3136 62.2058 85.6527 61.6109C85.8634 61.2412 85.8597 60.7579 85.6827 60.3231C85.6717 60.3012 85.6654 60.2772 85.6643 60.2525C85.6631 60.2279 85.6671 60.2033 85.676 60.1804C85.6849 60.1576 85.6985 60.137 85.7158 60.1201C85.7331 60.1031 85.7538 60.0903 85.7763 60.0825C85.9569 60.0465 86.1287 59.9735 86.2817 59.8678C86.4346 59.762 86.5656 59.6257 86.6669 59.4667C86.7683 59.3077 86.8378 59.1293 86.8716 58.942C86.9054 58.7547 86.9027 58.5624 86.8637 58.3762C86.8246 58.19 86.75 58.0138 86.6443 57.8579C86.5385 57.7021 86.4037 57.5697 86.2479 57.4686C86.092 57.3676 85.9182 57.2998 85.7367 57.2694C85.5552 57.2389 85.3696 57.2464 85.1909 57.2914L85.1984 57.3069Z" fill="#F1F2ED"/>
<path d="M13.6407 62.1476C13.9085 62.6455 14.3459 62.8813 14.6887 62.6814C14.906 62.5533 15.04 62.2767 15.0727 61.9448C15.0962 61.7138 15.2601 61.5294 15.453 61.5236C15.7162 61.5148 16.0449 61.444 16.2229 61.1752C16.5488 61.3111 16.8701 61.4576 17.1885 61.6109C16.9495 61.3144 16.7256 61.005 16.5179 60.6841L16.3306 60.6036C16.2613 60.3124 16.0037 60.1183 15.7771 59.9922C15.5972 59.8951 15.5242 59.6496 15.601 59.4235C15.6428 59.3039 15.6677 59.1787 15.675 59.0518C15.5982 58.8577 15.5283 58.662 15.4652 58.4647C15.2104 58.2444 14.7796 58.2987 14.3872 58.5986C14.3253 58.6452 14.2523 58.5899 14.2645 58.5064C14.3581 57.8271 14.1521 57.2138 13.7025 57.0022C13.3279 56.8256 12.6217 57.3224 12.1964 57.6223C12.0588 57.7194 11.8939 57.6116 11.8958 57.4282V57.402C11.8958 56.4869 11.3984 55.7804 10.784 55.825C10.3438 55.8561 9.82869 56.744 9.53741 57.2283C9.526 57.2515 9.50738 57.27 9.48455 57.2808C9.46173 57.2917 9.43605 57.2942 9.41166 57.288C9.38727 57.2818 9.36561 57.2673 9.35018 57.2468C9.33476 57.2263 9.32648 57.201 9.32667 57.1749C9.30888 56.9483 9.24943 56.7272 9.15153 56.5237C8.80592 55.8046 8.08286 55.5426 7.53588 55.9415C7.1884 56.1928 6.9964 56.6499 6.99171 57.1342C6.99352 57.1595 6.9898 57.185 6.98082 57.2087C6.97185 57.2324 6.95785 57.2537 6.93987 57.271C6.92189 57.2883 6.90037 57.3013 6.87692 57.3088C6.85347 57.3164 6.82869 57.3184 6.80439 57.3147H6.79596C6.61728 57.2697 6.43173 57.2622 6.25022 57.2926C6.0687 57.3231 5.8949 57.3908 5.73903 57.4919C5.58317 57.593 5.44839 57.7254 5.34264 57.8812C5.23688 58.0371 5.16229 58.2133 5.12324 58.3995C5.08419 58.5856 5.08149 58.778 5.11527 58.9653C5.14906 59.1526 5.21866 59.331 5.31998 59.49C5.4213 59.649 5.55229 59.7853 5.70524 59.8911C5.85819 59.9968 6.03 60.0698 6.21058 60.1057C6.23313 60.1136 6.25378 60.1264 6.27109 60.1433C6.2884 60.1603 6.30197 60.1809 6.31087 60.2037C6.31977 60.2266 6.32379 60.2512 6.32264 60.2758C6.3215 60.3005 6.31522 60.3245 6.30424 60.3464C6.12722 60.7812 6.12348 61.2645 6.33421 61.6342C6.67327 62.2291 7.4366 62.3019 8.03884 61.7973C8.20438 61.6575 8.34375 61.4875 8.45001 61.2955C8.46005 61.2718 8.47758 61.2523 8.49972 61.2402C8.52186 61.2281 8.54731 61.2241 8.57189 61.229C8.59648 61.2338 8.61875 61.2472 8.63506 61.2668C8.65137 61.2865 8.66075 61.3113 8.66168 61.3373C8.73754 61.8914 8.85837 62.9182 9.24425 63.1346C9.78561 63.4393 10.5218 63.0103 10.8871 62.1777C10.9601 62.0108 11.1493 61.9836 11.2373 62.1243C11.508 62.5678 11.9642 63.3199 12.3706 63.3189C12.8595 63.3189 13.2979 62.8454 13.4796 62.1903C13.5152 62.0971 13.6042 62.0787 13.6407 62.1476Z" fill="#F1F2ED"/>
<path d="M35.704 77.1356C36.1264 76.8803 36.2772 76.2437 36.1171 75.5828C36.0974 75.5013 36.1648 75.4392 36.2295 75.479C36.6978 75.7701 37.1951 75.7478 37.3946 75.3965C37.5211 75.1733 37.5023 74.8647 37.3712 74.559C37.2775 74.3474 37.33 74.1038 37.4958 73.9971C37.6831 73.8767 37.8891 73.6924 37.9641 73.4429C37.079 72.9402 36.1414 72.455 35.1739 71.9872C35.1683 71.9999 35.1617 72.0125 35.1561 72.0261C35.149 72.0415 35.1374 72.0544 35.123 72.0628C35.1085 72.0713 35.092 72.0749 35.0755 72.0732C35.059 72.0715 35.0434 72.0645 35.0308 72.0533C35.0183 72.0421 35.0094 72.0272 35.0053 72.0105C34.9875 71.964 34.9679 71.9203 34.9482 71.8776C33.4946 71.174 31.9773 70.4966 30.4731 69.825C28.2505 68.8323 26.0074 67.8298 23.944 66.7273C24.6359 67.2158 25.3442 67.6748 26.0692 68.1044C25.6727 68.0429 25.2743 67.9931 24.8741 67.9549C24.7289 67.6949 24.4282 67.5804 24.1772 67.5309C24.0751 67.5019 23.9864 67.4362 23.927 67.3454C23.8675 67.2547 23.8414 67.1449 23.8532 67.0359C23.8599 66.9102 23.8495 66.7841 23.8223 66.6613C23.5282 66.5028 23.2381 66.3411 22.9521 66.1761C22.7577 66.2718 22.5896 66.4167 22.4632 66.5973C22.4173 66.6594 22.3321 66.6283 22.3209 66.5449C22.2811 66.1689 22.1258 65.8161 21.8779 65.5385C21.7449 65.4563 21.6131 65.3732 21.4826 65.2891C21.4476 65.2786 21.4119 65.2705 21.3758 65.2648C20.9722 65.2047 20.4261 65.8888 20.1011 66.3013C19.9943 66.4352 19.807 66.3789 19.7583 66.2042C19.7564 66.1956 19.7539 66.1872 19.7508 66.179C19.5026 65.3056 18.832 64.7689 18.2523 64.9911C17.8392 65.1503 17.5863 66.1557 17.4393 66.7031C17.4345 66.7285 17.4217 66.7515 17.4028 66.7684C17.3839 66.7854 17.3601 66.7952 17.3352 66.7965C17.3102 66.7977 17.2856 66.7902 17.2652 66.7752C17.2449 66.7602 17.23 66.7385 17.2229 66.7137C17.1437 66.5016 17.0265 66.307 16.8773 66.1402C16.35 65.5521 15.5848 65.5133 15.168 66.0528C14.903 66.3954 14.844 66.8904 14.9713 67.3562C14.9796 67.3797 14.9828 67.4049 14.9807 67.4298C14.9786 67.4548 14.9712 67.479 14.959 67.5007C14.9469 67.5224 14.9303 67.541 14.9104 67.5552C14.8905 67.5695 14.8678 67.5791 14.8439 67.5833H14.8355C14.655 67.5969 14.4789 67.6472 14.3172 67.7314C14.1554 67.8156 14.0113 67.9319 13.893 68.0738C13.7747 68.2157 13.6845 68.3804 13.6275 68.5584C13.5706 68.7364 13.5481 68.9242 13.5613 69.1113C13.5744 69.2983 13.623 69.4808 13.7042 69.6484C13.7855 69.8159 13.8978 69.9653 14.0347 70.0879C14.1716 70.2105 14.3305 70.3039 14.5023 70.3629C14.6741 70.4219 14.8555 70.4452 15.036 70.4316C15.0599 70.4321 15.0835 70.4381 15.105 70.449C15.1265 70.46 15.1454 70.4757 15.1605 70.495C15.1756 70.5143 15.1864 70.5367 15.1922 70.5608C15.1981 70.5849 15.1987 70.61 15.1942 70.6344C15.1427 71.1032 15.272 71.568 15.5745 71.8601C16.0615 72.3318 16.8136 72.1784 17.2538 71.5175C17.3748 71.3351 17.4621 71.1312 17.5114 70.9158C17.5146 70.8901 17.5262 70.8663 17.5442 70.8483C17.5622 70.8303 17.5855 70.8191 17.6104 70.8166C17.6353 70.8141 17.6603 70.8205 17.6813 70.8346C17.7023 70.8488 17.718 70.8699 17.7259 70.8945C17.9497 71.403 18.3459 72.3502 18.7749 72.4472C19.3771 72.5802 19.9662 71.9543 20.0861 71.0478C20.1114 70.8664 20.2847 70.781 20.4083 70.8935C20.7886 71.24 21.432 71.8281 21.8207 71.7078C22.289 71.5641 22.5813 70.9819 22.5766 70.2996C22.5766 70.2162 22.6562 70.1715 22.7105 70.2268C23.1029 70.6257 23.5872 70.7247 23.8607 70.4316C24.0349 70.2462 24.0873 69.9415 24.0292 69.6125C24.0045 69.5099 24.0161 69.4016 24.0617 69.3071C24.1074 69.2125 24.1843 69.1381 24.2784 69.0972C24.5285 69.0128 24.8244 68.8478 24.9218 68.5372C25.8557 68.6323 26.7822 68.7928 27.6951 69.0176C27.8984 69.1224 28.1035 69.2272 28.3095 69.3282C27.4837 69.5493 26.7185 69.9655 26.0739 70.5441C26.0439 70.5073 26.012 70.4704 25.9802 70.4335C25.3527 69.7979 24.6821 70.1201 24.0845 70.7518C23.487 71.3836 23.5066 72.4065 23.8194 72.7229C24.0592 72.9655 24.6961 73.0189 25.2496 72.7452C25.4285 73.3624 25.9296 73.8127 26.2659 73.8127C26.6826 73.8127 27.357 73.1334 27.3598 72.2891C27.3598 71.5835 27.1875 70.9906 26.6424 70.813C27.3845 70.2018 28.2839 69.8305 29.2283 69.7455C30.5758 70.3552 31.9617 70.8691 33.3766 71.2837C33.1415 71.5699 32.9373 72.0057 32.7959 72.3133C32.7228 72.4696 32.528 72.4608 32.44 72.2988L32.4269 72.2755C31.9848 71.4836 31.2093 71.1313 30.7016 71.4894C30.3363 71.7446 30.3204 72.7811 30.3026 73.3508C30.304 73.3767 30.297 73.4024 30.2825 73.4237C30.2681 73.445 30.2472 73.4606 30.2231 73.468C30.1991 73.4754 30.1733 73.4742 30.15 73.4645C30.1267 73.4549 30.1072 73.4373 30.0947 73.4148C29.969 73.2279 29.8101 73.0675 29.6264 72.9422C28.9792 72.4997 28.2215 72.651 27.9405 73.276C27.7616 73.6739 27.8169 74.1689 28.0463 74.59C28.0599 74.6109 28.0688 74.6346 28.0725 74.6594C28.0761 74.6843 28.0745 74.7097 28.0676 74.7338C28.0607 74.7579 28.0487 74.7801 28.0326 74.7989C28.0165 74.8176 27.9965 74.8325 27.9742 74.8423H27.9667C27.7904 74.8961 27.6262 74.9859 27.4839 75.1064C27.3415 75.2269 27.2239 75.3757 27.1379 75.544C27.0519 75.7123 26.9993 75.8968 26.9831 76.0865C26.967 76.2762 26.9876 76.4674 27.0439 76.6487C27.1001 76.8301 27.1908 76.9979 27.3107 77.1423C27.4305 77.2868 27.577 77.4049 27.7415 77.4898C27.906 77.5747 28.0853 77.6246 28.2688 77.6366C28.4522 77.6486 28.6361 77.6224 28.8097 77.5597C28.8331 77.5542 28.8573 77.5542 28.8807 77.5595C28.9041 77.5649 28.926 77.5754 28.945 77.5905C28.9641 77.6056 28.9797 77.6248 28.9907 77.6468C29.0018 77.6688 29.0081 77.6931 29.0092 77.7179C29.0672 78.1856 29.2977 78.6058 29.6592 78.8164C30.2399 79.1551 30.9358 78.8164 31.2121 78.0711C31.288 77.8644 31.3265 77.645 31.3254 77.4238C31.3227 77.3981 31.3284 77.3721 31.3418 77.3502C31.3551 77.3283 31.3752 77.3118 31.3987 77.3032C31.4223 77.2946 31.448 77.2946 31.4716 77.3031C31.4952 77.3116 31.5153 77.3282 31.5286 77.35C31.8621 77.7897 32.4653 78.6116 32.9026 78.6019C33.5189 78.5835 33.9479 77.8256 33.8608 76.9201V76.9153C33.843 76.7328 33.9919 76.6086 34.1418 76.6872C34.5942 76.9337 35.3528 77.3491 35.704 77.1356Z" fill="#F1F2ED"/>
<path d="M40.6466 75.1675C38.6711 76.0663 36.7689 77.1292 34.9586 78.3458C34.9029 78.3805 34.8545 78.4266 34.8164 78.4812C34.7782 78.5358 34.7511 78.5979 34.7367 78.6636C34.7222 78.7293 34.7207 78.7974 34.7323 78.8637C34.7438 78.93 34.7682 78.9933 34.8039 79.0496C34.8396 79.106 34.8859 79.1542 34.9401 79.1916C34.9942 79.229 35.0551 79.2546 35.1191 79.267C35.183 79.2794 35.2487 79.2783 35.3122 79.2637C35.3758 79.2492 35.4358 79.2215 35.4887 79.1823C37.4017 77.8958 39.4185 76.7834 41.5167 75.8575C41.2414 75.6226 40.9501 75.3936 40.6466 75.1675Z" fill="#F1F2ED"/>
<path d="M32.5068 19.9626H37.8727V20.771C37.1658 20.8913 36.8124 21.3174 36.8124 22.0491V26.062C37.8652 26.0775 38.6475 25.7974 39.1596 25.2216C39.6716 24.6458 40.1008 23.8872 40.4474 22.9458C40.837 21.9139 41.2741 21.1181 41.7586 20.5585C42.2432 19.9988 43.0043 19.7184 44.0421 19.7171C44.5172 19.7154 44.9902 19.7833 45.447 19.9189V23.5291H44.6687C44.5232 23.0205 44.2057 22.7663 43.7161 22.7663C43.5524 22.7658 43.3902 22.8 43.2396 22.8667C43.089 22.9335 42.9532 23.0314 42.8404 23.1545C42.5168 23.5028 42.2167 23.8738 41.9422 24.2647C41.6062 24.7672 41.2258 25.2364 40.8061 25.666C40.4383 26.0322 39.9298 26.3347 39.2804 26.5734V26.7306C40.4774 26.8652 41.4186 27.1754 42.1042 27.6613C42.7898 28.1472 43.2513 28.6515 43.4885 29.1743C43.7689 29.8306 43.9885 30.5129 44.1442 31.2123C44.2688 31.8193 44.428 32.4181 44.6209 33.0057C44.766 33.4472 45.0107 33.8464 45.3346 34.1702C45.6512 34.4834 46.0767 34.6626 46.6112 34.7079V35.5813C46.0675 35.8039 45.4862 35.9108 44.9019 35.8957C43.8772 35.8957 43.0655 35.679 42.4667 35.2455C41.8679 34.812 41.4605 34.33 41.2444 33.7995C41.012 33.2159 40.8308 32.6118 40.7031 31.9944C40.4439 30.5446 40.0471 29.3713 39.5126 28.4746C38.9782 27.5779 38.0768 27.1667 36.8087 27.2411V33.5637C36.8087 34.2961 37.1621 34.7221 37.8689 34.8418V35.6492H32.5068V34.8418C33.213 34.737 33.5661 34.311 33.5661 33.5637V22.0481C33.5661 21.3009 33.213 20.8748 32.5068 20.77V19.9626Z" fill="#F1F2ED"/>
<path d="M48.3417 19.9624H54.1833C56.2744 19.8887 57.7278 20.2325 58.5432 20.994C59.3587 21.7555 59.7664 22.6525 59.7664 23.6851C59.7664 24.4615 59.5932 25.1085 59.2466 25.6261C58.9117 26.1315 58.4612 26.5433 57.9354 26.8246C57.4708 27.086 56.9715 27.2751 56.4537 27.3855V27.6097C57.6506 27.73 58.6353 28.1561 59.4077 28.8878C60.1801 29.6195 60.5657 30.5463 60.5644 31.6682C60.5644 32.8036 60.2435 33.6741 59.6016 34.2797C59.0078 34.8588 58.2699 35.2547 57.4708 35.4229C56.7371 35.5754 55.9909 35.6543 55.2426 35.6587H48.3398V34.8513C49.0473 34.7465 49.4007 34.3205 49.4001 33.5732V22.0479C49.4001 21.3007 49.0467 20.8747 48.3398 20.7698L48.3417 19.9624ZM52.6501 21.1512V26.8906H53.819C54.6263 26.8906 55.282 26.6363 55.7859 26.1278C56.2898 25.6193 56.542 24.9244 56.5426 24.0432C56.5426 22.1152 55.4899 21.1512 53.3844 21.1512H52.6501ZM52.6501 28.0784V34.468H53.9051C56.0119 34.468 57.0649 33.4441 57.0643 31.3965C57.0643 30.261 56.7037 29.4242 55.9825 28.8859C55.2614 28.3476 54.4184 28.0784 53.4537 28.0784H52.6501Z" fill="#F1F2ED"/>
<path d="M38.8439 38.5304C39.9429 38.5159 41.0317 38.7494 42.0349 39.2146C42.9565 39.6418 43.7792 40.2686 44.4476 41.0527C45.093 41.82 45.6005 42.7008 45.9462 43.6535C46.2996 44.6165 46.4793 45.6385 46.4763 46.6688C46.4763 48.2215 46.1304 49.6125 45.4385 50.8418C44.7682 52.0449 43.7912 53.0337 42.6147 53.6998C41.461 54.3692 40.1609 54.7207 38.8387 54.7207C37.5165 54.7207 36.2164 54.3692 35.0628 53.6998C33.8862 53.0337 32.9093 52.0449 32.2389 50.8418C31.5465 49.6157 31.2005 48.2247 31.2012 46.6688C31.2049 45.3079 31.5198 43.9673 32.12 42.7568C32.7281 41.5001 33.658 40.4409 34.808 39.695C35.9838 38.9186 37.3291 38.5304 38.8439 38.5304ZM38.8439 39.7192C38.0209 39.7192 37.3141 39.891 36.7234 40.2346C36.1327 40.5781 35.6644 41.262 35.3185 42.2861C34.972 43.3096 34.799 44.7705 34.7996 46.6688C34.7996 49.2107 35.124 50.9899 35.7727 52.0063C36.4215 53.0227 37.4458 53.5309 38.8457 53.5309C39.768 53.5309 40.5288 53.322 41.1283 52.904C41.7277 52.4861 42.171 51.7721 42.4582 50.7622C42.7467 49.7542 42.8913 48.3904 42.8919 46.6707C42.8919 44.7737 42.7186 43.3129 42.3721 42.2881C42.0255 41.2633 41.5572 40.5794 40.9672 40.2365C40.3734 39.8884 39.6656 39.7144 38.8439 39.7144V39.7192Z" fill="#F1F2ED"/>
<path d="M61.3024 51.1465L61.973 52.02C59.9249 53.8134 57.9343 54.7101 56.0012 54.7101C53.8782 54.7101 52.0858 53.9515 50.6241 52.4343C49.1624 50.9172 48.4306 48.9491 48.4287 46.53C48.4287 44.8705 48.7678 43.4355 49.4459 42.225C50.124 41.0145 51.0147 40.0955 52.118 39.4679C53.186 38.8496 54.3891 38.5252 55.6125 38.5256C56.5304 38.5159 57.4438 38.6597 58.3174 38.9517C58.6808 39.0744 59.0593 39.1424 59.4413 39.1535C59.5715 39.1535 59.7373 39.0798 59.9387 38.9293C60.0015 38.8832 60.0595 38.8305 60.1119 38.7721H60.8912V42.4715H60.1119C59.8235 41.635 59.279 40.9663 58.4785 40.4656C57.7218 39.9779 56.8492 39.7178 55.9581 39.7144C54.3565 39.7144 53.2997 40.3682 52.7877 41.6757C52.2757 42.9833 52.0197 44.691 52.0197 46.7988C52.0063 47.84 52.1154 48.8789 52.3447 49.8927C52.5549 50.7791 53.0279 51.5749 53.6971 52.1684C54.384 52.7882 55.3755 53.0982 56.6718 53.0982C58.1697 53.0982 59.7132 52.4476 61.3024 51.1465Z" fill="#F1F2ED"/>
<path d="M46.5892 56.6782C46.2967 57.0211 46.1351 57.4628 46.1349 57.9204C46.1527 58.9676 46.2754 60.0127 46.2866 61.0599C46.31 62.0303 46.0281 62.9494 45.6853 63.8422C45.5692 64.0887 45.4465 64.3275 45.3219 64.5739L44.9585 64.4963C44.8805 64.4805 44.8062 64.4489 44.74 64.4033C44.6737 64.3577 44.6168 64.299 44.5725 64.2306C44.5282 64.1622 44.4974 64.0853 44.4819 64.0045C44.4663 63.9237 44.4663 63.8405 44.4818 63.7597C44.5096 63.6179 44.5836 63.4902 44.6913 63.398C44.799 63.3058 44.934 63.2547 45.0737 63.2531L45.2058 63.2677L44.9108 60.7115C44.8637 60.1634 44.706 59.6317 44.4478 59.1509C44.1896 58.6701 43.8368 58.2508 43.4122 57.9204C43.2666 57.8094 43.1142 57.7083 42.9561 57.6176V66.7061H44.9819C45.1318 67.5414 45.5732 68.2904 46.222 68.81C46.3745 68.917 46.5006 69.0596 46.5901 69.2264C46.6796 69.0596 46.8057 68.917 46.9582 68.81C47.6066 68.2901 48.048 67.5413 48.1982 66.7061H50.2241V57.6176C50.0658 57.7085 49.9131 57.8096 49.7671 57.9204C49.3425 58.2509 48.9897 58.6702 48.7316 59.151C48.4734 59.6318 48.3157 60.1635 48.2685 60.7115L47.9735 63.2677L48.1046 63.2531C48.2444 63.2546 48.3795 63.3057 48.4874 63.3979C48.5953 63.4901 48.6694 63.6178 48.6975 63.7597C48.713 63.8405 48.713 63.9237 48.6974 64.0045C48.6818 64.0853 48.651 64.1622 48.6067 64.2306C48.5624 64.299 48.5055 64.3577 48.4393 64.4033C48.373 64.4489 48.2988 64.4805 48.2207 64.4963L47.8573 64.5739C47.7328 64.3313 47.6101 64.0887 47.4939 63.8422C47.1511 62.9494 46.8692 62.0342 46.8917 61.0599C46.9039 60.0127 47.0256 58.9676 47.0443 57.9204C47.0441 57.4628 46.8826 57.0211 46.5901 56.6782H46.5892ZM43.5583 58.9307C43.9616 59.4173 44.2171 60.0166 44.2926 60.6533L44.5352 62.765C44.3803 62.8444 44.2436 62.9573 44.1344 63.0961C44.0252 63.2349 43.946 63.3963 43.902 63.5695H43.5583V58.9307ZM49.6135 58.9307V63.5685H49.2716C49.2275 63.3954 49.1482 63.2341 49.039 63.0953C48.9298 62.9566 48.7932 62.8436 48.6384 62.764L48.881 60.6523C48.9566 60.0158 49.2117 59.4166 49.6144 58.9297L49.6135 58.9307ZM46.5863 63.1716C46.7466 63.7173 46.9692 64.2412 47.2495 64.7321C46.9889 64.8147 46.758 64.9759 46.5863 65.195C46.415 64.9755 46.184 64.8142 45.9232 64.7321C46.2035 64.2412 46.4261 63.7173 46.5863 63.1716ZM43.5583 64.1974H43.902C43.9554 64.4106 44.062 64.6056 44.2112 64.7626C44.3603 64.9197 44.5466 65.0333 44.7515 65.0922L45.0419 65.163C44.9624 65.4618 44.9218 65.7702 44.9211 66.0801H43.5583V64.1974ZM49.2716 64.1974H49.6144V66.0801H48.2516C48.2512 65.7702 48.2109 65.4618 48.1317 65.163L48.4221 65.0922C48.6267 65.0328 48.8128 64.919 48.9619 64.762C49.1109 64.605 49.2177 64.4104 49.2716 64.1974ZM45.6357 65.3057C45.8159 65.3325 45.9808 65.4258 46.1 65.5684C46.2192 65.711 46.2848 65.8934 46.2848 66.082H45.5289C45.5293 65.8193 45.5652 65.558 45.6357 65.3057ZM47.5389 65.3057C47.6093 65.558 47.6453 65.8193 47.6456 66.082H46.8889C46.8891 65.8933 46.9548 65.7109 47.0742 65.5683C47.1936 65.4257 47.3586 65.3325 47.5389 65.3057ZM45.5973 66.709H46.2848V68.0327C45.9449 67.665 45.7074 67.209 45.5973 66.7128V66.709ZM46.8889 66.709H47.5773C47.4669 67.2052 47.229 67.6612 46.8889 68.0288V66.709Z" fill="#F1F2ED"/>
<path d="M74.8244 17.1005C67.5413 17.1005 61.6126 10.9633 61.6126 3.41694V2.16699H30.3871V3.41208C30.3871 10.9633 24.4584 17.0957 17.1753 17.0957H15.9746V55.6727C15.9746 62.2835 23.5311 65.6578 30.8432 68.9234C36.8094 71.5864 42.9732 74.3445 44.9139 78.6058L46.0003 80.9951L47.0859 78.6058C49.0218 74.3445 55.1903 71.5864 61.1565 68.9234C68.462 65.6578 76.0251 62.2835 76.0251 55.6727V17.1054L74.8244 17.1005ZM73.6236 55.6775C73.6236 60.6502 67.1049 63.5626 60.2068 66.6438C54.6433 69.1272 48.9122 71.6902 46.0013 75.6983C43.0847 71.6864 37.3583 69.1272 31.7948 66.6438C24.8967 63.5626 18.3779 60.6502 18.3779 55.6775V19.5442C26.03 18.9376 32.1601 12.5908 32.7417 4.65623H59.2599C59.8415 12.5859 65.9716 18.9376 73.6236 19.5442V55.6775Z" fill="#F1F2ED"/>
<path d="M71.366 20.9736C68.0411 20.2757 64.9885 18.5779 62.5898 16.0924C60.191 13.6069 58.5524 10.444 57.8789 6.99892L57.759 6.39624H34.2399L34.1247 6.99406C33.4498 10.4385 31.8107 13.6007 29.4122 16.0859C27.0136 18.5712 23.9618 20.2695 20.6375 20.9688L20.0615 21.093V55.6727C20.0615 59.5011 26.3639 62.3184 32.4753 65.0464C37.2454 67.1766 42.1795 69.3815 45.5129 72.5627L46.0036 73.0304L46.4935 72.5627C49.8269 69.3766 54.7656 67.1717 59.5413 65.0415C65.6377 62.3184 71.9448 59.5011 71.9448 55.6727V21.0979L71.366 20.9736ZM70.5006 55.6775C70.5006 58.52 64.1063 61.3771 58.9616 63.6771C54.302 65.7578 49.4878 67.9083 46.0008 71.0196C42.5129 67.9083 37.7034 65.7578 33.0298 63.6722C27.8944 61.3771 21.5001 58.52 21.5001 55.6775V22.3071C24.8822 21.4802 27.9751 19.6934 30.4321 17.1473C32.8891 14.6011 34.613 11.3962 35.4106 7.89174H56.5957C57.3931 11.3958 59.1166 14.6005 61.5731 17.1466C64.0295 19.6928 67.1218 21.4797 70.5034 22.3071L70.5006 55.6775Z" fill="#F1F2ED"/>
</g>
<defs>
<clipPath id="clip0_157_7735">
<rect width="92" height="81" fill="white"/>
</clipPath>
</defs>
</svg>
