<svg width="160" height="160" viewBox="0 0 160 160" fill="none" xmlns="http://www.w3.org/2000/svg">
<g clip-path="url(#clip0_157_6512)">
<path d="M80 160C124.183 160 160 124.183 160 80C160 35.8172 124.183 0 80 0C35.8172 0 0 35.8172 0 80C0 124.183 35.8172 160 80 160Z" fill="#F1F2ED"/>
<path d="M80.775 159.988C124.6 159.572 159.997 123.909 159.997 80C159.997 77.775 159.906 75.575 159.725 73.4L125.881 39.5563L95.4375 67.0125L74.6969 46.2688L52.9938 52.8313L80.5813 80.4188L38.8438 118.056L80.775 159.988Z" fill="#DFE0DC"/>
<path d="M63.8441 63.075H56.7285V49.95H63.8441L68.791 56.5125L63.8441 63.075Z" fill="#597765"/>
<path d="M63.8438 49.9656H70.9656V63.0906H63.8438V49.9656Z" fill="#2E4939"/>
<path d="M63.844 52.825H52.9971V46.2625H63.844L71.3815 49.5343L63.844 52.825Z" fill="#DF5643"/>
<path d="M63.8438 46.2688H74.7V52.8313H63.8438V46.2688Z" fill="#BF4A39"/>
<path d="M29.8906 68.5281L39.9531 58.4656L50.0188 68.5281L39.9531 78.5968L29.8906 68.5281Z" fill="#BF4A39"/>
<path d="M84.1623 92.7875L63.8498 128.338C54.4214 128.338 45.3791 124.592 38.7122 117.925C32.0452 111.258 28.2998 102.216 28.2998 92.7875C28.2998 83.3591 32.0452 74.3168 38.7122 67.6499C45.3791 60.983 54.4214 57.2375 63.8498 57.2375L84.1623 92.7875Z" fill="#DF5643"/>
<path d="M99.3998 92.7875C99.399 102.216 95.6528 111.259 88.9854 117.925C82.318 124.592 73.2754 128.338 63.8467 128.338V57.2375C68.5154 57.2371 73.1385 58.1564 77.452 59.9427C81.7655 61.7291 85.6849 64.3476 88.9863 67.6488C92.2878 70.95 94.9067 74.8691 96.6934 79.1824C98.4802 83.4957 99.3998 88.1188 99.3998 92.7875Z" fill="#BF4A39"/>
<path d="M79.5152 92.7875L63.8465 120.206C60.2458 120.206 56.6804 119.497 53.3538 118.119C50.0272 116.741 47.0046 114.722 44.4585 112.176C41.9124 109.629 39.8928 106.607 38.5149 103.28C37.1369 99.9536 36.4277 96.3882 36.4277 92.7875C36.4277 89.1868 37.1369 85.6214 38.5149 82.2948C39.8928 78.9682 41.9124 75.9456 44.4585 73.3996C47.0046 70.8535 50.0272 68.8338 53.3538 67.4559C56.6804 66.078 60.2458 65.3688 63.8465 65.3688L79.5152 92.7875Z" fill="#FDFBF7"/>
<path d="M91.2686 92.7875C91.2677 100.06 88.3783 107.034 83.2358 112.176C78.0933 117.318 71.1189 120.206 63.8467 120.206V65.3688C67.4476 65.3684 71.0134 66.0773 74.3403 67.455C77.6673 68.8328 80.6903 70.8523 83.2367 73.3984C85.7831 75.9446 87.803 78.9673 89.1811 82.2941C90.5592 85.6209 91.2686 89.1866 91.2686 92.7875Z" fill="#E6E4E0"/>
<path d="M63.8467 92.7875H61.0342V72.25H63.8467L65.8123 82.5187L63.8467 92.7875Z" fill="#2E4939"/>
<path d="M63.8467 72.25H66.6592V92.7875H63.8467V72.25Z" fill="#152B1E"/>
<path d="M67.0218 92.7875L63.8499 98.3406C63.1098 98.3582 62.3736 98.2276 61.6847 97.9565C60.9958 97.6854 60.368 97.2793 59.8384 96.762C59.3087 96.2448 58.8878 95.6269 58.6004 94.9446C58.3131 94.2623 58.165 93.5294 58.165 92.7891C58.165 92.0487 58.3131 91.3159 58.6004 90.6336C58.8878 89.9513 59.3087 89.3334 59.8384 88.8161C60.368 88.2989 60.9958 87.8928 61.6847 87.6217C62.3736 87.3506 63.1098 87.22 63.8499 87.2375L67.0218 92.7875Z" fill="#597765"/>
<path d="M69.3996 92.7875C69.3996 94.2598 68.815 95.6718 67.7742 96.7131C66.7335 97.7544 65.3218 98.3398 63.8496 98.3407V87.2375C65.3216 87.2375 66.7332 87.8223 67.7741 88.8631C68.8149 89.9039 69.3996 91.3156 69.3996 92.7875Z" fill="#2E4939"/>
<path d="M106.918 85.1094C101.24 85.1177 95.7075 83.3086 91.1309 79.9469L76.1621 86.9001L83.459 71.1969C81.2363 67.1263 80.111 62.5474 80.1939 57.9103C80.2767 53.2731 81.5647 48.7373 83.9313 44.7487C86.298 40.7601 89.6618 37.4559 93.6921 35.161C97.7224 32.866 102.28 31.6593 106.918 31.6594L120.281 58.3844L106.918 85.1094Z" fill="#2E4939"/>
<path d="M106.919 85.1094C113.905 84.9583 120.554 82.0769 125.442 77.0826C130.329 72.0883 133.066 65.3785 133.066 58.3906C133.066 51.4028 130.329 44.6929 125.442 39.6986C120.554 34.7044 113.905 31.823 106.919 31.6719V85.1094Z" fill="#152B1E"/>
<path d="M106.919 63.7938C105.909 63.1258 104.972 62.355 104.122 61.4938C100.175 57.5469 100.159 54.4156 100.159 54.4156L105.197 49.3781L96.4999 40.6813L89.828 47.3469C88.5624 55.025 91.3437 62.5532 97.1968 68.4094C99.9351 71.1998 103.254 73.3528 106.919 74.7157L112.309 71.8407L106.919 63.7938Z" fill="#FDFBF7"/>
<path d="M118.26 75.7843L124.931 69.1093L116.247 60.4187L111.2 65.4718C111.2 65.4718 109.45 65.4718 106.919 63.8093V74.7468C110.547 76.0644 114.453 76.4218 118.26 75.7843Z" fill="#E6E4E0"/>
</g>
<defs>
<clipPath id="clip0_157_6512">
<rect width="160" height="160" fill="white"/>
</clipPath>
</defs>
</svg>
