<svg width="160" height="160" viewBox="0 0 160 160" fill="none" xmlns="http://www.w3.org/2000/svg">
<g clip-path="url(#clip0_157_6561)">
<path d="M80 160C124.183 160 160 124.183 160 80C160 35.8172 124.183 0 80 0C35.8172 0 0 35.8172 0 80C0 124.183 35.8172 160 80 160Z" fill="#F1F2ED"/>
<path d="M160 80C160.002 75.1561 159.567 70.322 158.7 65.5563L141.25 48.1063L100.4 55.9625L71.625 27.1875L39.5562 51.0156L18.75 59.375L29.2375 69.8656L21.5625 121.894L56 156.334C63.7669 158.77 71.8601 160.006 80 160C124.181 160 160 124.181 160 80Z" fill="#DFE0DC"/>
<path d="M24.8656 121.894H21.5625V55.6438H35.5188L24.8656 121.894Z" fill="#DF5643"/>
<path d="M135.135 121.894H138.438V55.6438H124.494L135.135 121.894Z" fill="#BF4A39"/>
<path d="M64.9996 119.975H74.3746L72.1152 72.7156L62.7402 73.1624L63.3434 85.7625H50.6246L51.2496 73.1624L41.8746 72.7156L39.6152 119.975H48.9902L50.1809 95.1375H63.7871L64.9996 119.975Z" fill="#2E4939"/>
<path d="M37.8125 65.8125H76.1687V75.9937H37.8125V65.8125Z" fill="#DF5643"/>
<path d="M111 119.975H120.375L118.125 72.7156L108.75 73.1624L109.375 85.7625H96.6531L97.2562 73.1624L87.8813 72.7156L85.625 119.975H95L96.1875 95.1375H109.813L111 119.975Z" fill="#152A1E"/>
<path d="M83.8311 65.8125H122.187V75.9937H83.8311V65.8125Z" fill="#BF4A39"/>
<path d="M37.8125 27.1875H71.625V49.7906H37.8125V27.1875Z" fill="#FDFBF7"/>
<path d="M18.75 48.1062H141.25V59.3562H18.75V48.1062Z" fill="#2E4939"/>
<path d="M79.8877 48.1062H141.25V59.3562H79.8877V48.1062Z" fill="#152A1E"/>
<path d="M54.7186 41.4281C57.0382 41.4281 58.9186 39.5477 58.9186 37.2281C58.9186 34.9085 57.0382 33.0281 54.7186 33.0281C52.399 33.0281 50.5186 34.9085 50.5186 37.2281C50.5186 39.5477 52.399 41.4281 54.7186 41.4281Z" fill="#E5E4E0"/>
</g>
<defs>
<clipPath id="clip0_157_6561">
<rect width="160" height="160" fill="white"/>
</clipPath>
</defs>
</svg>
