<svg width="44" height="44" viewBox="0 0 44 44" fill="none" xmlns="http://www.w3.org/2000/svg">
<g clip-path="url(#clip0_157_6937)">
<path d="M33.9239 27.6541C32.9855 29.7969 32.6337 32.1506 32.9046 34.4741C33.0697 35.9864 33.3691 37.4809 33.7993 38.9401C34.0302 39.6958 34.3221 40.4316 34.6719 41.1401C35.1059 41.8068 35.4978 42.4999 35.8453 43.2154L17.4386 43.2668V43.2594C17.3799 43.0394 16.2726 38.7274 13.8233 37.6201C13.3686 37.7814 12.8846 37.9428 12.3933 38.1114C10.7645 38.6764 9.10734 39.1562 7.42861 39.5488C6.96616 39.6593 6.47904 39.5912 6.06461 39.3581C5.59291 39.0679 5.24147 38.6175 5.07461 38.0894C4.88253 37.5671 4.8123 37.0077 4.86928 36.4541C5.03822 35.8888 5.0955 35.296 5.03795 34.7088C4.84728 33.9681 4.14328 33.7848 3.58595 33.3888C3.13128 33.0661 3.94528 32.0321 3.94528 32.0321C3.94528 32.0321 3.07995 31.3941 2.77195 31.1154C2.44928 30.8514 2.90395 30.3968 3.30728 29.5388C3.4737 29.1662 3.52232 28.7517 3.44661 28.3508C3.29261 27.5661 2.10461 27.2654 1.51795 26.8328C1.23928 26.6274 0.791947 26.3194 0.740614 25.9454C0.659947 25.4248 1.27595 24.6914 1.57661 24.3248C2.85595 22.6761 3.95259 20.8934 4.84728 19.0081C4.96469 18.8091 5.03493 18.5858 5.05261 18.3554C5.03795 17.3068 3.51995 16.8741 3.38061 15.8548C3.35878 15.5556 3.4117 15.2557 3.53461 14.9821C3.95751 14.0832 4.32009 13.1572 4.61995 12.2101C4.80044 11.3413 5.03308 10.4842 5.31661 9.64344C5.93159 7.95653 6.87923 6.41038 8.10328 5.09677C9.89995 3.19744 12.5546 2.25877 15.0626 1.76011C17.293 1.27247 19.5547 0.941661 21.8313 0.770105C21.9046 0.762772 21.9779 0.762772 22.0513 0.755439C26.7446 0.520772 30.4553 2.11211 34.0926 4.95744C36.0746 6.43607 37.5234 8.51785 38.2213 10.8901C38.7531 12.8491 39.0025 14.874 38.9619 16.9034C38.9479 18.9077 38.3628 20.8665 37.2753 22.5501C36.1826 24.2734 34.7526 25.7694 33.9239 27.6541Z" fill="#F38F81"/>
<path d="M31.7239 27.654C30.7855 29.7968 30.4337 32.1505 30.7046 34.474C30.8697 35.9863 31.1691 37.4809 31.5993 38.94C31.8302 39.6957 32.1221 40.4315 32.4719 41.14C32.9059 41.8067 33.2978 42.4998 33.6453 43.2154L19.5433 43.252L17.4386 43.2594C17.3873 43.0614 16.4999 39.6147 14.5713 38.082C14.3417 37.8981 14.0905 37.743 13.8233 37.62C13.8013 37.6273 13.7866 37.6347 13.7646 37.642C13.3246 37.796 12.8626 37.95 12.3933 38.1114C12.3859 38.104 12.3713 38.0967 12.3639 38.0894C12.1408 37.8983 11.8913 37.7402 11.6233 37.62C10.3839 38.0527 8.95395 38.5294 7.64861 38.918C7.09128 39.0867 6.55595 39.2333 6.06461 39.358C5.59291 39.0678 5.24147 38.6174 5.07461 38.0894C4.88253 37.567 4.8123 37.0077 4.86928 36.454C5.03822 35.8887 5.0955 35.2959 5.03795 34.7087C4.84728 33.968 4.14328 33.7847 3.58595 33.3887C3.13128 33.066 3.94528 32.032 3.94528 32.032C3.94528 32.032 3.07995 31.394 2.77195 31.1154C2.44928 30.8514 2.90395 30.3967 3.30728 29.5387C3.4737 29.1661 3.52232 28.7516 3.44661 28.3507C3.29261 27.566 2.10461 27.2654 1.51795 26.8327C1.23928 26.6274 0.791947 26.3194 0.740614 25.9454C0.659947 25.4247 1.27595 24.6914 1.57661 24.3247C2.85595 22.676 3.95259 20.8933 4.84728 19.008C4.96469 18.809 5.03493 18.5857 5.05261 18.3554C5.03795 17.3067 3.51995 16.874 3.38061 15.8547C3.35878 15.5555 3.4117 15.2556 3.53461 14.982C3.95751 14.0831 4.32009 13.1571 4.61995 12.21C4.80044 11.3413 5.03308 10.4841 5.31661 9.64335C5.93159 7.95644 6.87923 6.41029 8.10328 5.09669C9.89995 3.19735 12.5546 2.25869 15.0626 1.76002C17.293 1.27239 19.5547 0.941576 21.8313 0.77002C22.1613 0.79202 22.4839 0.821353 22.7993 0.865353C26.154 1.35012 29.3049 2.76804 31.8926 4.95735C33.8746 6.43598 35.3234 8.51776 36.0213 10.89C36.5531 12.849 36.8025 14.8739 36.7619 16.9034C36.7479 18.9076 36.1628 20.8664 35.0753 22.55C33.9826 24.2734 32.5526 25.7694 31.7239 27.654Z" fill="white"/>
<path d="M31.7238 27.6541C30.7854 29.7969 30.4336 32.1506 30.7044 34.4741C30.8695 35.9864 31.1689 37.481 31.5991 38.9401C31.83 39.6959 32.1219 40.4316 32.4718 41.1401C32.9058 41.8068 33.2976 42.4999 33.6451 43.2155L19.5431 43.2521C19.4698 42.9735 18.3551 38.7201 15.9278 37.6201C15.4951 37.7741 15.0404 37.9282 14.5711 38.0821C14.548 38.095 14.5234 38.1049 14.4978 38.1115C14.2772 37.9206 14.0302 37.7625 13.7644 37.6422C13.7498 37.6348 13.7424 37.6275 13.7278 37.6201C13.2951 37.7741 12.8331 37.9281 12.3638 38.0895C10.9338 38.5661 9.4011 39.0501 8.16911 39.3581C7.9698 39.245 7.79324 39.0958 7.64844 38.9181C7.43967 38.675 7.28026 38.3936 7.17911 38.0895C6.98702 37.5671 6.91679 37.0078 6.97377 36.4541C7.14271 35.8888 7.2 35.296 7.14244 34.7088C6.95177 33.9682 6.24777 33.7848 5.69044 33.3888C5.23577 33.0661 6.04977 32.0321 6.04977 32.0321C6.04977 32.0321 5.18444 31.3941 4.87644 31.1155C4.55377 30.8515 5.00844 30.3968 5.41177 29.5388C5.5782 29.1663 5.62681 28.7518 5.55111 28.3508C5.3971 27.5661 4.20911 27.2655 3.62244 26.8328C3.34377 26.6275 2.89644 26.3195 2.84511 25.9455C2.76444 25.4248 3.38044 24.6915 3.68111 24.3248C4.96044 22.6761 6.05708 20.8935 6.95177 19.0081C7.06918 18.8091 7.13943 18.5859 7.15711 18.3555C7.14244 17.3068 5.62444 16.8741 5.48511 15.8548C5.46327 15.5557 5.51619 15.2558 5.63911 14.9821C6.062 14.0833 6.42458 13.1572 6.72444 12.2101C6.90493 11.3414 7.13758 10.4843 7.4211 9.64348C8.03608 7.95657 8.98372 6.41042 10.2078 5.09681C12.0044 3.19748 14.6591 2.25881 17.1671 1.76015C19.0266 1.3586 20.9067 1.05993 22.7991 0.865479C26.1538 1.35025 29.3048 2.76817 31.8924 4.95748C33.8744 6.43611 35.3232 8.51789 36.0211 10.8901C36.5529 12.8491 36.8023 14.874 36.7618 16.9035C36.7477 18.9078 36.1626 20.8665 35.0751 22.5501C33.9824 24.2735 32.5524 25.7695 31.7238 27.6541Z" fill="#FFCFC9"/>
<path d="M40.4723 17.0061C38.6869 18.7967 36.2616 19.8022 33.7329 19.8001C33.4836 19.8001 33.2416 19.7927 32.9996 19.7707L30.0663 19.0667C28.976 18.6139 27.9808 17.9596 27.1329 17.1381L26.2236 16.1334C23.9772 13.2627 23.5656 9.36189 25.1632 6.0855C26.7609 2.8091 30.0878 0.731322 33.7329 0.7334V10.2667L40.4723 17.0061Z" fill="#F38F81"/>
<path d="M43.2667 10.2666C43.2689 12.7953 42.2634 15.2205 40.4727 17.0059L33.7334 10.2666H43.2667Z" fill="white"/>
<path d="M43.2667 10.2667H33.7334V0.733398C38.9985 0.733398 43.2667 5.00162 43.2667 10.2667Z" fill="#F38F81"/>
<path d="M30.7997 13.2H32.2664C32.6714 13.2 32.9997 13.5283 32.9997 13.9333V23.4666H30.0664V13.9333C30.0664 13.5283 30.3947 13.2 30.7997 13.2Z" fill="#F38F81"/>
<path d="M24.9335 16.1333H26.4002C26.8052 16.1333 27.1335 16.4616 27.1335 16.8666V23.4666H24.2002V16.8666C24.2002 16.4616 24.5285 16.1333 24.9335 16.1333Z" fill="white"/>
<path d="M19.0663 19.0667H20.533C20.938 19.0667 21.2663 19.395 21.2663 19.8V23.4667H18.333V19.8C18.333 19.395 18.6613 19.0667 19.0663 19.0667Z" fill="#F38F81"/>
<path d="M40.4725 17.0061C38.6871 18.7968 36.2618 19.8023 33.7331 19.8001C33.4838 19.8001 33.2418 19.7928 32.9998 19.7708L32.7725 19.7194C35.3904 19.379 37.7492 17.9658 39.2845 15.8181L40.4725 17.0061Z" fill="#EC6B59"/>
<path d="M43.2662 10.2666C43.2683 12.7953 42.2628 15.2205 40.4722 17.0059L39.2842 15.8179C40.4459 14.2003 41.0693 12.2582 41.0662 10.2666H43.2662Z" fill="#FFCFC9"/>
<path d="M43.2667 10.2667H41.0667C41.067 5.84886 38.032 2.00957 33.7334 0.990065V0.733398C38.9985 0.733398 43.2667 5.00162 43.2667 10.2667Z" fill="#EC6B59"/>
<path d="M2.84863 14.7211C3.15663 13.921 3.5277 13.2243 3.7587 12.5453C3.8159 12.3766 3.86577 12.2094 3.90537 12.0437L4.04103 11.4636C4.1327 11.0735 4.22877 10.676 4.34317 10.2756C4.81284 8.66147 5.56598 7.14377 6.56737 5.79348C6.87784 5.37483 7.21257 4.97472 7.56983 4.59521L8.6361 5.60135C8.31863 5.93941 8.02113 6.29568 7.7451 6.66835C6.84951 7.87654 6.17517 9.23392 5.75337 10.6775C5.64997 11.0441 5.55903 11.4159 5.46883 11.7995L5.33317 12.3795C5.28037 12.5996 5.21657 12.8144 5.14617 13.0212C4.86017 13.8477 4.47883 14.5612 4.21997 15.2432L2.84863 14.7211Z" fill="white"/>
<path d="M4.77583 11.542C4.38458 11.453 3.99381 11.6926 3.89583 12.0817C3.59945 12.9817 3.24977 13.8633 2.84863 14.7217L4.21997 15.2439C4.64704 14.3309 5.01448 13.3913 5.31997 12.4308C5.36667 12.2407 5.33545 12.0399 5.23325 11.8729C5.13105 11.706 4.96636 11.5868 4.77583 11.542Z" fill="#DF5643"/>
<path d="M8.63608 5.59988L7.56981 4.59375C7.2125 4.97373 6.87777 5.37433 6.56735 5.79348C6.41237 6.00077 6.26424 6.21246 6.12295 6.42855C6.00985 6.59272 5.97002 6.79649 6.01299 6.99116C6.05595 7.18583 6.17785 7.35391 6.34955 7.45522C6.68892 7.65347 7.12367 7.55771 7.34835 7.23522C7.47448 7.03966 7.60672 6.85071 7.74508 6.66835C8.02106 6.29518 8.31857 5.93842 8.63608 5.59988Z" fill="#DF5643"/>
<path d="M4.71371 9.16666C4.64106 9.35628 4.64527 9.56677 4.72544 9.75333L4.79877 9.87506C4.82859 9.91502 4.86389 9.95057 4.90364 9.98066C4.93674 10.0135 4.97456 10.0412 5.01584 10.0628C5.05956 10.0855 5.10491 10.1048 5.15151 10.1207C5.33655 10.1751 5.53488 10.1618 5.71104 10.0833C5.79331 10.042 5.86776 9.98667 5.93104 9.9198C6.1232 9.7135 6.17762 9.41419 6.07037 9.15346C6.03107 9.06643 5.97642 8.98719 5.90904 8.91953C5.84306 8.84983 5.76442 8.79334 5.67731 8.75306C5.49852 8.67481 5.296 8.67059 5.11411 8.74133C4.93056 8.82585 4.787 8.97835 4.71371 9.16666Z" fill="#DF5643"/>
<path d="M6.97375 40.3334C5.76439 40.311 4.7122 39.4997 4.38288 38.3358C4.15174 37.7046 4.06943 37.0285 4.14235 36.3602C4.16655 36.1674 4.20908 35.9708 4.25161 35.7736C4.34075 35.4893 4.36579 35.1887 4.32495 34.8936C4.26555 34.664 4.09615 34.5489 3.66495 34.3018C3.49335 34.205 3.31955 34.1045 3.15675 33.9901C2.91816 33.8201 2.76071 33.5589 2.72188 33.2685C2.69382 32.8998 2.7771 32.5311 2.96095 32.2103C2.71088 32.0189 2.43735 31.8033 2.27895 31.6603C1.60061 31.1066 2.05015 30.3124 2.31928 29.838C2.41755 29.6634 2.53268 29.4618 2.64195 29.2271C2.743 28.9943 2.77186 28.7365 2.72482 28.4872C2.68815 28.2972 2.15648 28.0259 1.83895 27.8631C1.57377 27.7376 1.31942 27.5905 1.07848 27.4231C0.553352 27.1253 0.169742 26.6291 0.0136816 26.0459C-0.102918 25.2913 0.453682 24.5374 0.983882 23.8906C2.23937 22.273 3.31584 20.5241 4.19441 18.6744C4.25008 18.5742 4.29202 18.4669 4.31908 18.3554C4.31908 18.1538 4.08075 17.922 3.72215 17.5928C3.18073 17.1928 2.80144 16.6112 2.65368 15.9545C2.61258 15.5363 2.6787 15.1146 2.84581 14.7291C2.93168 14.4773 3.14719 14.2917 3.40896 14.2442C3.67074 14.1967 3.93771 14.2947 4.10658 14.5003C4.27545 14.7059 4.31973 14.9868 4.22228 15.2344C4.15124 15.3965 4.11167 15.5707 4.10568 15.7477C4.13795 15.9853 4.41808 16.242 4.71435 16.514C5.31989 16.9414 5.71066 17.61 5.78575 18.3474C5.77207 18.6953 5.67499 19.0348 5.50268 19.3374C4.58359 21.27 3.45744 23.0972 2.14402 24.7868C1.58521 25.4695 1.46641 25.7401 1.46641 25.8494C1.60199 25.981 1.74926 26.1001 1.90641 26.205C2.09749 26.3391 2.29964 26.4566 2.51068 26.5563C3.13695 26.876 3.99421 27.3146 4.17021 28.21C4.27522 28.7642 4.20685 29.3372 3.97441 29.8512C3.84681 30.1225 3.71481 30.3572 3.59968 30.5596C3.56375 30.6226 3.52635 30.693 3.48968 30.7568C3.79328 31.001 4.20835 31.312 4.38435 31.4418C4.54387 31.5602 4.64853 31.7382 4.67438 31.9352C4.70023 32.1322 4.64505 32.3312 4.52148 32.4868C4.41255 32.6285 4.31774 32.7805 4.23841 32.9407C4.28901 32.97 4.33961 32.9994 4.39095 33.028C5.03911 33.3073 5.53411 33.8542 5.74761 34.5269C5.85537 35.0443 5.8337 35.5804 5.68455 36.0874C5.65081 36.2407 5.61635 36.394 5.59655 36.548C5.55368 36.9915 5.61262 37.4389 5.76888 37.8562C5.93088 38.5322 6.59515 38.9618 7.27808 38.8323C9.41531 38.3189 11.521 37.6823 13.5847 36.9256C13.8336 36.8341 14.1126 36.884 14.3142 37.0562C14.5159 37.2285 14.6089 37.4961 14.5573 37.7563C14.5058 38.0164 14.3179 38.2285 14.0658 38.3109C11.9436 39.0897 9.77724 39.7422 7.57801 40.2652C7.37953 40.309 7.177 40.3319 6.97375 40.3334Z" fill="#DF5643"/>
<path d="M8.10274 5.82995C7.80983 5.83005 7.54495 5.65583 7.42903 5.38684C7.31311 5.11784 7.36838 4.80566 7.56961 4.59281C9.20934 2.85995 11.6132 1.69761 14.9191 1.04128C17.2552 0.528445 19.6258 0.187995 22.0119 0.02268C24.5251 -0.121993 27.0385 0.304216 29.3635 1.26935C29.6147 1.3631 29.7947 1.58646 29.833 1.85184C29.8712 2.11722 29.7615 2.3823 29.547 2.54313C29.3325 2.70396 29.0473 2.7349 28.8033 2.62381C26.6795 1.74282 24.3834 1.35542 22.0881 1.49081C19.774 1.65218 17.4748 1.98232 15.2087 2.47861C12.2497 3.06528 10.0387 4.11688 8.63514 5.60115C8.49692 5.74771 8.3042 5.83053 8.10274 5.82995Z" fill="#DF5643"/>
<path d="M17.4386 44.0001C17.1007 43.9999 16.8066 43.7689 16.7265 43.4406C16.4413 42.2819 15.3112 39.097 13.5211 38.2882C13.2468 38.1642 13.0761 37.8851 13.0907 37.5844C13.1053 37.2838 13.3021 37.0225 13.5871 36.9256C14.3645 36.6616 15.067 36.4123 15.6163 36.2238C16.1105 36.0515 16.4823 35.9217 16.6781 35.8572C19.7281 34.8936 20.3448 33.7928 20.3287 33.0382C20.3225 32.7762 20.4566 32.5309 20.6804 32.3945C20.9042 32.2582 21.1838 32.2516 21.4137 32.3773C21.6437 32.503 21.7892 32.7418 21.7953 33.0038C21.8379 34.832 20.2671 36.262 17.1247 37.2571C16.9399 37.3172 16.5791 37.4434 16.0981 37.6098L15.4095 37.8504C16.6209 39.1908 17.5052 40.7938 17.993 42.5334L34.6265 42.4872C34.6103 42.4623 34.5949 42.4381 34.5788 42.4139C34.3666 42.1074 34.1762 41.7864 34.009 41.4532C33.6439 40.714 33.3396 39.9464 33.0989 39.1579C32.654 37.657 32.3452 36.1191 32.1764 34.5628C31.8875 32.1097 32.2587 29.624 33.2515 27.3622C33.4567 26.8961 33.6936 26.4445 33.9606 26.0107C34.171 25.6646 34.6221 25.5546 34.9682 25.765C35.3143 25.9754 35.4243 26.4265 35.2139 26.7726C34.9814 27.1492 34.7748 27.5413 34.5957 27.946C33.7072 29.9682 33.3748 32.191 33.6328 34.3846C33.7908 35.8539 34.0812 37.306 34.5003 38.723C34.7191 39.4401 34.996 40.1381 35.3283 40.8101C35.4685 41.0855 35.6272 41.3511 35.8035 41.605C36.115 42.0324 36.3648 42.5014 36.5456 42.9984C36.6156 43.2209 36.5755 43.4634 36.4377 43.6516C36.2999 43.8398 36.0807 43.9512 35.8475 43.9517L17.4408 44.003L17.4386 44.0001Z" fill="#DF5643"/>
<path d="M7.4756 13.6152C7.25183 13.6152 7.04029 13.513 6.90116 13.3378C6.76203 13.1625 6.71054 12.9333 6.76134 12.7154L6.83467 12.3978C6.97612 11.726 7.15733 11.0631 7.37734 10.4127C7.88713 9.00139 8.67713 7.70776 9.69981 6.60964C10.8237 5.52628 12.2077 4.75067 13.7185 4.35758C14.1061 4.23931 14.5161 4.45765 14.6344 4.84524C14.7527 5.23284 14.5343 5.64291 14.1467 5.76118C12.8801 6.08176 11.7164 6.72066 10.7661 7.61724C9.88003 8.57072 9.19538 9.69309 8.75307 10.9172C8.55572 11.5105 8.39217 12.1146 8.2632 12.7264L8.18987 13.0468C8.11307 13.3794 7.81695 13.6151 7.4756 13.6152Z" fill="#F38F81"/>
<path d="M6.59954 16.1334C7.00455 16.1334 7.33288 15.8051 7.33288 15.4001C7.33288 14.9951 7.00455 14.6667 6.59954 14.6667C6.19454 14.6667 5.86621 14.9951 5.86621 15.4001C5.86621 15.8051 6.19454 16.1334 6.59954 16.1334Z" fill="#F38F81"/>
<path d="M30.0666 19.8002C29.9705 19.8003 29.8752 19.7814 29.7865 19.7444C28.6105 19.2575 27.5373 18.5523 26.6236 17.6662C26.332 17.3847 26.3238 16.9201 26.6053 16.6285C26.8868 16.3369 27.3513 16.3287 27.6429 16.6102C28.4237 17.3687 29.3412 17.9723 30.3467 18.3892C30.67 18.523 30.8537 18.8665 30.7856 19.2096C30.7175 19.5528 30.4164 19.8 30.0666 19.8002Z" fill="#DF5643"/>
<path d="M33.7336 20.5333C33.4615 20.5333 33.1975 20.5253 32.9335 20.5011C32.6725 20.4772 32.4441 20.316 32.3343 20.0781C32.2245 19.8402 32.2499 19.5617 32.401 19.3477C32.5522 19.1336 32.806 19.0164 33.067 19.0403C33.287 19.0601 33.507 19.0667 33.7336 19.0667C38.5937 19.0667 42.5336 15.1268 42.5336 10.2667C42.5336 5.40656 38.5937 1.46667 33.7336 1.46667C28.8734 1.46667 24.9336 5.40656 24.9336 10.2667C24.925 12.2305 25.5833 14.1391 26.8006 15.6801C26.9678 15.8856 27.0112 16.1653 26.9141 16.4118C26.817 16.6583 26.5945 16.8332 26.3321 16.8694C26.0696 16.9056 25.8081 16.7975 25.6478 16.5865C24.2262 14.7876 23.4573 12.5595 23.4669 10.2667C23.4669 4.59654 28.0634 0 33.7336 0C39.4037 0 44.0002 4.59654 44.0002 10.2667C44.0002 15.9368 39.4037 20.5333 33.7336 20.5333Z" fill="#DF5643"/>
<path d="M33.7333 11C33.3283 11 33 10.6717 33 10.2667V0.733333C33 0.328324 33.3283 0 33.7333 0C34.1383 0 34.4667 0.328324 34.4667 0.733333V10.2667C34.4667 10.6717 34.1383 11 33.7333 11Z" fill="#DF5643"/>
<path d="M43.2667 11.0001H33.7333C33.3283 11.0001 33 10.6718 33 10.2668C33 9.86177 33.3283 9.53345 33.7333 9.53345H43.2667C43.6717 9.53345 44 9.86177 44 10.2668C44 10.6718 43.6717 11.0001 43.2667 11.0001Z" fill="#DF5643"/>
<path d="M40.4739 17.7409C40.2794 17.7409 40.0929 17.6636 39.9554 17.5261L33.2146 10.7853C32.9367 10.4975 32.9407 10.0401 33.2236 9.75727C33.5064 9.4744 33.9638 9.47042 34.2516 9.74834L40.9931 16.4891C41.2028 16.6989 41.2655 17.0142 41.152 17.2882C41.0385 17.5622 40.7705 17.7409 40.4739 17.7409Z" fill="#DF5643"/>
<path d="M32.9997 24.2001H30.0663C29.6613 24.2001 29.333 23.8718 29.333 23.4668V13.9335C29.333 13.1234 29.9897 12.4668 30.7997 12.4668H32.2663C33.0764 12.4668 33.733 13.1234 33.733 13.9335V23.4668C33.733 23.8718 33.4047 24.2001 32.9997 24.2001ZM30.7997 22.7335H32.2663V13.9335H30.7997V22.7335Z" fill="#DF5643"/>
<path d="M27.1335 24.2001H24.2001C23.7951 24.2001 23.4668 23.8718 23.4668 23.4668V16.8668C23.4668 16.0568 24.1234 15.4001 24.9335 15.4001H26.4001C27.2101 15.4001 27.8668 16.0568 27.8668 16.8668V23.4668C27.8668 23.8718 27.5385 24.2001 27.1335 24.2001ZM24.9335 22.7335H26.4001V16.8668H24.9335V22.7335Z" fill="#DF5643"/>
<path d="M21.2663 24.2002H18.3329C17.9279 24.2002 17.5996 23.8718 17.5996 23.4668V19.8002C17.5996 18.9901 18.2563 18.3335 19.0663 18.3335H20.5329C21.343 18.3335 21.9996 18.9901 21.9996 19.8002V23.4668C21.9996 23.8718 21.6713 24.2002 21.2663 24.2002ZM19.0663 22.7335H20.5329V19.8002H19.0663V22.7335Z" fill="#DF5643"/>
<path d="M35.1994 24.2001H16.1327C15.7277 24.2001 15.3994 23.8717 15.3994 23.4667C15.3994 23.0617 15.7277 22.7334 16.1327 22.7334H35.1994C35.6044 22.7334 35.9327 23.0617 35.9327 23.4667C35.9327 23.8717 35.6044 24.2001 35.1994 24.2001Z" fill="#DF5643"/>
</g>
<defs>
<clipPath id="clip0_157_6937">
<rect width="44" height="44" fill="white"/>
</clipPath>
</defs>
</svg>
