<svg width="44" height="44" viewBox="0 0 44 44" fill="none" xmlns="http://www.w3.org/2000/svg">
<g clip-path="url(#clip0_157_7004)">
<path d="M25.2074 38.285L25.2292 38.3068L25.2218 38.3142C22.8967 40.0524 20.7109 39.1062 19.6476 37.412C19.152 37.9197 18.5326 38.2887 17.8506 38.4827C16.0738 38.9024 14.2295 38.1255 13.2884 36.5612C13.1675 36.3591 13.0738 36.1422 13.0097 35.9159C11.5297 35.9038 10.1605 35.1306 9.38624 33.8695C9.10957 33.389 8.95815 32.8467 8.94606 32.2924C6.37921 31.9624 4.91229 28.9698 6.57697 26.2266L6.62834 26.1753L6.78245 26.3368C7.33007 26.8928 8.0778 27.2057 8.85809 27.2057C9.63872 27.2057 10.3865 26.8928 10.9341 26.3368L17.0364 20.1753C16.4294 20.7545 15.4708 20.7414 14.8799 20.1461C14.4091 19.6112 14.1832 18.9038 14.2567 18.195C14.3014 17.3721 14.573 16.5777 15.0414 15.8995L18.452 10.7869C18.8421 10.2551 19.3182 9.7914 19.8601 9.41535C20.4249 8.99734 20.9826 8.56455 21.5691 8.17608C21.8794 7.9753 22.2 7.79164 22.5301 7.62578C23.4668 7.1208 24.4845 6.78336 25.5374 6.62825C26.6303 6.51107 27.7303 6.85555 28.8231 6.77497C29.8982 6.67894 30.9028 6.19982 31.6546 5.42557L31.8597 5.22747C32.1468 4.93201 32.541 4.76514 32.9526 4.76514C33.3646 4.76514 33.7587 4.93201 34.0455 5.22747L39.5099 10.7359L42.7959 14.0437C43.4043 14.6538 43.4043 15.6413 42.7959 16.2513L41.1162 17.953C40.8133 18.243 40.6505 18.6493 40.6689 19.068C40.7861 21.7598 39.1577 24.107 38.3364 25.1116L25.2074 38.285Z" fill="#FFCFC9"/>
<path d="M21.592 8.17581C21.0051 8.56427 20.4477 8.99706 19.883 9.41508L19.8756 9.42247C19.336 9.79616 18.8623 10.2572 18.4748 10.7866L18.4161 10.882L18.4087 10.8894L15.0642 15.8992C14.5958 16.5774 14.3242 17.3718 14.2792 18.1948C14.2057 18.9035 14.432 19.611 14.9027 20.1458C15.4936 20.7411 16.4522 20.7542 17.0589 20.175L10.9566 26.3365C10.8978 26.3949 10.832 26.4537 10.7733 26.5124L10.7367 26.5416C9.56991 27.4992 7.86595 27.4099 6.8053 26.3365L6.65119 26.175L6.10827 25.6321C6.10827 25.6321 3.16 22.6617 3.31377 19.0603C3.3309 18.644 3.16772 18.2404 2.86655 17.9527L1.18676 16.2511C0.578371 15.641 0.578371 14.6535 1.18676 14.0435L4.4728 10.7356L8.58749 6.5766C8.59488 6.5766 8.59488 6.56921 8.60226 6.56216L9.93723 5.21981C10.2256 4.92737 10.6191 4.76318 11.0301 4.76318C11.4407 4.76318 11.8342 4.92737 12.123 5.21981L12.3281 5.42529C13.1984 6.31236 14.3934 6.80525 15.636 6.78947L18.2841 6.59137C19.5257 6.75858 20.6831 7.31291 21.592 8.17581Z" fill="#F38F81"/>
<path d="M20.1251 9.64284C19.5382 10.0313 18.9808 10.4641 18.4161 10.8821L18.4087 10.8895C17.8691 11.2632 17.3954 11.7242 17.0079 12.254L13.597 17.3662C13.1286 18.0445 12.857 18.8389 12.8123 19.6618C12.7388 20.3706 12.9651 21.078 13.4358 21.6129C14.0267 22.2082 14.9853 22.2213 15.592 21.6424L10.7733 26.5126L10.7367 26.5418C9.56991 27.4993 7.86595 27.41 6.8053 26.3366L6.65118 26.1751L6.10827 25.6322C6.10827 25.6322 3.16 22.6618 3.31377 19.0605C3.3309 18.6441 3.16772 18.2405 2.86655 17.9528L1.18676 16.2512C0.578371 15.6411 0.578371 14.6537 1.18676 14.0436L4.4728 10.7357L8.58749 6.57672C8.59487 6.57672 8.59487 6.56933 8.60226 6.56228C9.21837 6.07342 10.1034 6.12714 10.6557 6.68685L10.8612 6.89233C11.7315 7.7794 12.9265 8.27229 14.1691 8.25651L16.8172 8.05841C17.9463 8.20984 19.0083 8.68359 19.8756 9.42259C19.9636 9.48873 20.0441 9.56931 20.1251 9.64284Z" fill="#FFCFC9"/>
<path d="M27.7235 21.1802C27.4337 21.4754 27.0365 21.6396 26.6232 21.6352C26.2273 21.6379 25.8469 21.4821 25.5669 21.2024L24.9948 20.6303L22.1929 17.8062C21.7799 17.3899 21.2175 17.1555 20.6306 17.1555C20.0441 17.1555 19.4817 17.3899 19.0684 17.8062L23.9167 12.9287L27.7235 16.7647C28.9255 17.9912 28.9255 19.9541 27.7235 21.1802Z" fill="#F38F81"/>
<path d="M32.7335 35.9377C32.2453 36.4165 31.5744 36.6626 30.8925 36.6125C30.3472 36.5692 29.8362 36.3295 29.4548 35.9377L28.4939 34.9697L25.692 32.153V32.1456C24.95 31.3929 24.8029 30.2365 25.3327 29.3219C25.4328 29.149 25.5533 28.9889 25.692 28.8452C26.1725 28.3536 26.849 28.1055 27.5333 28.1703C28.0785 28.2119 28.5902 28.452 28.9706 28.8452L30.0048 29.8867L32.7335 32.6298C32.7889 32.6849 32.8402 32.7436 32.8876 32.8057C33.6393 33.7371 33.5728 35.0845 32.7335 35.9377Z" fill="#F38F81"/>
<path d="M28.4859 38.285C27.9946 38.7584 27.3255 39.0008 26.6449 38.9524C26.1168 38.9145 25.6195 38.6879 25.2441 38.3142C25.2367 38.3142 25.2367 38.3068 25.2294 38.3068L25.2075 38.285L23.6453 36.7005V36.6931C22.9043 35.9404 22.7545 34.7864 23.2783 33.8694C23.3374 33.763 23.4062 33.6623 23.4838 33.5686V33.5612C23.5351 33.5025 23.5865 33.4514 23.6231 33.4145L23.6453 33.3927L23.7185 33.3191C24.0357 33.0277 24.4259 32.8273 24.8479 32.74C25.0561 32.7034 25.2686 32.696 25.4788 32.7178C25.5379 32.7215 25.5967 32.7289 25.6548 32.74C25.8109 32.7668 25.9633 32.8111 26.1097 32.8719C26.1755 32.8937 26.2417 32.9233 26.3075 32.9525C26.3988 33.0035 26.4871 33.0599 26.5717 33.121C26.6305 33.1509 26.6869 33.1855 26.7403 33.2238L26.7624 33.2459C26.8138 33.2899 26.8652 33.3413 26.9165 33.3927L28.4859 34.9768C29.3884 35.8951 29.3884 37.3667 28.4859 38.285Z" fill="#F38F81"/>
<path d="M35.9895 32.6447C35.1514 33.4901 33.8081 33.5599 32.8871 32.8058C32.8397 32.7437 32.7884 32.685 32.733 32.6299L30.0043 29.8868C29.2764 28.9574 29.3519 27.6322 30.1805 26.7914C30.6627 26.3029 31.3379 26.0555 32.0215 26.1166C32.5671 26.1582 33.0785 26.3983 33.4592 26.7914L34.1337 27.4663L35.608 28.9477L35.9895 29.3365C36.892 30.2548 36.892 31.7264 35.9895 32.6447Z" fill="#F38F81"/>
<path d="M38.8873 28.9473C38.5979 29.2371 38.2356 29.4422 37.8384 29.5416C37.0423 29.7588 36.1912 29.5322 35.6087 28.9473L34.1344 27.4659V27.4586C33.3937 26.7085 33.2436 25.5565 33.7677 24.6419C33.8661 24.4636 33.9896 24.3008 34.1344 24.1577C34.6155 23.6682 35.2924 23.4228 35.9756 23.4906C36.5202 23.5292 37.0319 23.7669 37.413 24.1577L38.0805 24.8252L38.3447 25.0969L38.8873 25.6394C39.7898 26.5577 39.7898 28.0293 38.8873 28.9473Z" fill="#F38F81"/>
<path d="M31.6772 36.5387C31.4223 36.6105 31.1564 36.6354 30.8925 36.6122C30.3472 36.5689 29.8362 36.3292 29.4548 35.9374L28.4939 34.9694L25.692 32.1527V32.1453C24.95 31.3926 24.8029 30.2362 25.3327 29.3216C25.5862 29.2548 25.8498 29.2347 26.1103 29.2629C26.6556 29.3045 27.1673 29.5446 27.5477 29.9377L28.5818 30.9793L31.3105 33.7224C31.3659 33.7774 31.4173 33.8362 31.4646 33.8983C32.0703 34.6514 32.1546 35.6983 31.6772 36.5387Z" fill="#FFCFC9"/>
<path d="M27.4299 38.8788C27.1747 38.9507 26.9088 38.9755 26.6449 38.9523C26.1168 38.9144 25.6195 38.6878 25.2441 38.3141C25.2367 38.3141 25.2367 38.3067 25.2294 38.3067L25.2075 38.2849L23.6453 36.7004V36.693C22.9043 35.9403 22.7545 34.7863 23.2783 33.8693C23.3263 33.8536 23.3753 33.8415 23.425 33.8324C23.6332 33.7961 23.8457 33.7888 24.0559 33.8106C24.115 33.8143 24.1737 33.8217 24.2318 33.8324C24.3856 33.8586 24.536 33.9029 24.6794 33.9647C24.7469 33.9872 24.8134 34.0141 24.8775 34.0453C24.9718 34.0946 25.0628 34.151 25.1488 34.2138C25.2002 34.2508 25.266 34.2726 25.3173 34.3166L25.3395 34.3387C25.3909 34.3827 25.4422 34.4341 25.4936 34.4855L27.0629 36.0696C27.8033 36.8169 27.9533 37.9666 27.4299 38.8788Z" fill="#FFCFC9"/>
<path d="M34.9335 33.2457C34.2203 33.4415 33.4565 33.2773 32.887 32.8056C32.8397 32.7434 32.7883 32.6847 32.7329 32.6296L30.0042 29.8865C29.4163 29.1358 29.3408 28.1036 29.8135 27.2753C30.0684 27.2025 30.335 27.18 30.5985 27.2092C31.1441 27.2508 31.6555 27.4909 32.0362 27.8841L32.7108 28.5589L34.1851 30.0403L34.5665 30.4291C35.3075 31.1792 35.4576 32.3311 34.9335 33.2457Z" fill="#FFCFC9"/>
<path d="M37.8384 29.5418C37.0423 29.7591 36.1912 29.5324 35.6087 28.9476L34.1344 27.4662V27.4588C33.3937 26.7087 33.2436 25.5568 33.7677 24.6422C34.0236 24.5753 34.2895 24.5555 34.5527 24.5837C35.0973 24.6224 35.609 24.8601 35.9901 25.2509L36.6576 25.9184L36.9218 26.19L37.4644 26.7326C38.1997 27.4816 38.3521 28.6262 37.8384 29.5418Z" fill="#FFCFC9"/>
<path d="M42.7967 16.2513L41.4618 17.6011C41.9654 16.9786 41.9177 16.0767 41.3517 15.5107L38.0656 12.2028L32.6015 6.69439C32.0875 6.16658 31.2706 6.08029 30.6578 6.48891C30.5689 6.54699 30.4876 6.61616 30.4158 6.69439L30.2103 6.89248C29.4588 7.66674 28.4539 8.14586 27.3792 8.24189C26.2863 8.32247 25.186 7.97798 24.0931 8.09516C23.0402 8.25028 22.0225 8.58772 21.0861 9.09269C20.7561 9.25856 20.4351 9.44221 20.1252 9.643C19.5383 10.0315 18.9809 10.4643 18.4162 10.8823C18.394 10.897 18.3796 10.9118 18.3574 10.9266L18.4528 10.7869C18.8429 10.2551 19.319 9.7914 19.8609 9.41535C20.4257 8.99734 20.9834 8.56455 21.5699 8.17608C21.8802 7.9753 22.2008 7.79164 22.5309 7.62578C23.4676 7.1208 24.4853 6.78336 25.5382 6.62825C26.6311 6.51107 27.731 6.85555 28.8239 6.77497C29.4236 6.72696 30.0061 6.55203 30.5329 6.2616C30.9476 6.04168 31.326 5.75965 31.6554 5.42557L31.8605 5.22747C32.1476 4.93201 32.5418 4.76514 32.9534 4.76514C33.3654 4.76514 33.7595 4.93201 34.0463 5.22747L39.5107 10.7359L42.7967 14.0437C43.4051 14.6538 43.4051 15.6413 42.7967 16.2513Z" fill="#F38F81"/>
<path d="M41.0213 18.0557C40.7782 18.3353 40.652 18.6976 40.6694 19.068C40.7866 21.7449 39.173 24.0848 38.3443 25.0971L38.0801 24.8255C38.85 23.5281 39.2458 22.0434 39.2243 20.5349C39.2059 20.1162 39.369 19.7099 39.6719 19.4198L41.0213 18.0557Z" fill="#F38F81"/>
<path d="M29.102 20.1461C28.8126 20.4412 28.4154 20.6054 28.0021 20.601C27.6062 20.6034 27.2258 20.4476 26.9458 20.1682L26.3737 19.5961L23.5718 16.7721C23.1588 16.3557 22.5961 16.1214 22.0095 16.1214C21.423 16.1214 20.8606 16.3557 20.4473 16.7721L25.2956 11.8945L29.102 15.7305C30.3044 16.9571 30.3044 18.9195 29.102 20.1461Z" fill="#FFCFC9"/>
<path d="M18.8488 6.71386C18.6608 6.66887 18.4748 6.61783 18.2824 6.59131L16.8682 6.69674C17.1868 6.76355 17.5118 6.79444 17.8372 6.7894L18.8488 6.71386Z" fill="white"/>
<path d="M2.86655 17.9527C3.16772 18.2404 3.3309 18.644 3.31377 19.0603C3.16 22.6616 6.10827 25.6321 6.10827 25.6321L6.65119 26.175L6.8053 26.3365C7.18168 26.7179 7.65677 26.9875 8.17753 27.1154C7.64905 26.9916 7.16623 26.7216 6.78381 26.3365L6.63003 26.175L6.57866 26.2264C4.91298 28.9695 6.37989 31.9621 8.94675 32.2921C8.95883 32.8465 9.11026 33.3887 9.38692 33.8692C10.1612 35.1303 11.5304 35.9035 13.0104 35.9156C13.0745 36.1419 13.1682 36.3588 13.2891 36.5609C14.2302 38.1252 16.0745 38.9022 17.8513 38.4825C17.8903 38.4731 17.9245 38.4556 17.9628 38.4438C16.9361 38.139 16.0564 37.4695 15.4896 36.5609C15.3687 36.3588 15.2751 36.1419 15.2106 35.9156C13.7309 35.9035 12.3617 35.1303 11.5875 33.8692C11.3105 33.3887 11.1594 32.8465 11.1473 32.2921C8.5801 31.9621 7.11318 28.9695 8.7782 26.2264L8.82957 26.175L8.98368 26.3365C9.36577 26.7216 9.84892 26.9916 10.3771 27.1154C9.85665 26.9875 9.38189 26.7179 9.0055 26.3365L8.85173 26.175L8.30881 25.6321C8.30881 25.6321 5.3602 22.6616 5.51432 19.0603C5.5311 18.644 5.36826 18.2404 5.06675 17.9527L3.3873 16.2511C2.77858 15.641 2.77858 14.6535 3.3873 14.0435L6.67301 10.7356L10.788 6.5766C10.7954 6.5766 10.7954 6.56921 10.8025 6.56216L12.13 5.2272L12.123 5.21981C11.8342 4.92737 11.4407 4.76318 11.0301 4.76318C10.6191 4.76318 10.2256 4.92737 9.93723 5.21981L8.60226 6.56216C8.59488 6.56921 8.59488 6.5766 8.58749 6.5766L4.4728 10.7356L1.18676 14.0435C0.578371 14.6535 0.578371 15.641 1.18676 16.2511L2.86655 17.9527Z" fill="white"/>
<path d="M0.664062 13.5322L7.32512 6.71028L9.00927 4.98584L10.0582 6.01124L8.37503 7.73501L1.71363 14.5569L0.664062 13.5322Z" fill="white"/>
<path d="M32.9982 9.60619C33.1826 9.79219 33.4525 9.86572 33.706 9.79891C33.9595 9.73209 34.1579 9.535 34.2268 9.28218C34.2956 9.02936 34.2241 8.75874 34.0397 8.57273L33.4925 8.02142C33.3091 7.83004 33.0368 7.75248 32.78 7.81862C32.5235 7.88477 32.3224 8.08387 32.2542 8.34005C32.186 8.5959 32.2612 8.86887 32.4509 9.05387L32.9982 9.60619Z" fill="#DF5643"/>
<path d="M39.0126 15.6717C39.1959 15.8631 39.4682 15.9406 39.7247 15.8745C39.9816 15.8087 40.1824 15.6092 40.2509 15.353C40.319 15.0972 40.2438 14.8242 40.0541 14.6392L36.2268 10.7797C36.0435 10.5883 35.7712 10.5108 35.5144 10.5769C35.2578 10.6431 35.0567 10.8422 34.9886 11.0984C34.9204 11.3542 34.9956 11.6272 35.1853 11.8122L39.0126 15.6717Z" fill="#DF5643"/>
<path d="M11.0062 9.60577L11.5525 9.05345C11.7419 8.86845 11.8167 8.59514 11.7479 8.3393C11.6794 8.08345 11.478 7.88469 11.2214 7.81888C10.9649 7.75307 10.6926 7.83096 10.5096 8.02235L9.96303 8.57399C9.7787 8.76034 9.70785 9.03062 9.77702 9.28344C9.84618 9.53627 10.045 9.73302 10.2984 9.7995C10.5519 9.86598 10.8219 9.79211 11.0062 9.60577Z" fill="#DF5643"/>
<path d="M3.95319 15.6767C4.24093 15.9617 4.70528 15.9597 4.99034 15.672L8.81762 11.8105C9.00161 11.6238 9.07212 11.3532 9.00262 11.1007C8.93312 10.8478 8.73402 10.6514 8.48052 10.5853C8.22703 10.5191 7.95741 10.5933 7.77308 10.78L3.94883 14.6395C3.66377 14.9269 3.66578 15.3913 3.95319 15.6767Z" fill="#DF5643"/>
<path d="M5.8001 9.32227C5.66177 9.18461 5.47408 9.10805 5.279 9.1104C5.08393 9.11242 4.89792 9.193 4.76295 9.33402C4.62965 9.47503 4.55411 9.66138 4.55176 9.85545L4.56855 9.99546C4.57828 10.0438 4.59473 10.0908 4.61689 10.1348C4.632 10.1791 4.65349 10.2211 4.68069 10.259C4.70956 10.2986 4.74112 10.3359 4.77537 10.3712C4.91639 10.5051 5.1024 10.5807 5.2968 10.583C5.6987 10.5669 6.01767 10.2399 6.02438 9.83799C6.02035 9.74162 5.99786 9.64694 5.95857 9.55931C5.92164 9.47067 5.86792 9.39009 5.8001 9.32227Z" fill="#DF5643"/>
<path d="M2.3492 18.4723C2.50365 18.6156 2.58893 18.8188 2.58221 19.0296C2.41669 22.9069 5.45897 26.0197 5.58958 26.1487L5.73093 26.2917C4.66491 28.2354 5.09467 30.6592 6.76372 32.1177C7.21799 32.478 7.74278 32.7392 8.30416 32.8843C8.37199 33.3711 8.53718 33.8395 8.79034 34.2609C9.59951 35.5857 10.9795 36.458 12.5229 36.6212C12.573 36.7327 12.6294 36.8411 12.6918 36.9462C13.5819 38.4178 15.1704 39.324 16.8901 39.3408C17.286 39.3412 17.6801 39.2918 18.0636 39.1941C18.6021 39.0457 19.1078 38.7969 19.554 38.4608C20.1909 39.2028 21.0572 39.7112 22.0158 39.9056C22.2575 39.9509 22.5029 39.9734 22.749 39.9724C23.6291 39.9593 24.4873 39.6974 25.2246 39.2169C25.6322 39.4859 26.1012 39.6474 26.5881 39.687C26.6797 39.6951 26.7707 39.6998 26.8617 39.6998C28.3689 39.6957 29.6435 38.583 29.8506 37.0899C30.1575 37.2303 30.4865 37.3156 30.823 37.3414C30.9156 37.3505 31.008 37.3538 31.0996 37.3538C31.9088 37.3532 32.6841 37.0278 33.2515 36.451C33.875 35.8147 34.1903 34.9381 34.115 34.0503C34.1963 34.0564 34.2779 34.0607 34.3585 34.0607C35.1673 34.0607 35.9426 33.7371 36.511 33.1616C37.2382 32.4212 37.5441 31.365 37.3245 30.351C38.1079 30.3349 38.8539 30.0145 39.4056 29.4582C40.5888 28.2522 40.5888 26.3212 39.4056 25.1152L39.332 25.042C40.6821 23.3216 41.4167 21.1983 41.4187 19.0115C41.4167 18.8033 41.5037 18.6039 41.6571 18.4635L43.3339 16.7656C44.222 15.8665 44.222 14.4204 43.3339 13.5212L34.5918 4.71737C34.1684 4.27854 33.5849 4.03109 32.9752 4.03176C32.3731 4.02907 31.7953 4.26948 31.3733 4.69857L31.153 4.90808C30.5262 5.55508 29.6891 5.95732 28.792 6.04294C28.3122 6.06107 27.8317 6.03555 27.3566 5.96672C26.7375 5.8717 26.1093 5.84853 25.4848 5.89688C24.3429 6.05737 23.2382 6.41932 22.2226 6.96559C22.0265 7.06397 21.8388 7.17108 21.6531 7.2802C20.712 6.52005 19.5812 6.03085 18.3829 5.86532C18.3318 5.85827 18.2801 5.85693 18.2288 5.86096L15.6213 6.05838C14.5801 6.06577 13.5799 5.65245 12.8479 4.91178L12.6448 4.70932C12.2429 4.32622 11.702 4.12309 11.147 4.14692C10.355 4.14659 9.59212 4.44608 9.01194 4.98531L6.81307 7.23487C6.62941 7.42222 6.55991 7.69351 6.63076 7.946C6.70126 8.19849 6.90138 8.39423 7.15554 8.45937C7.40971 8.52451 7.67899 8.4493 7.86264 8.26161L10.0548 6.01205C10.3613 5.75587 10.7478 5.61485 11.147 5.61384C11.3088 5.59974 11.4703 5.6444 11.602 5.74009L11.8058 5.94322C12.8295 6.98238 14.236 7.55384 15.6945 7.52295L18.2617 7.33224C19.0141 7.44673 19.7323 7.72407 20.3659 8.1451C20.1694 8.29183 19.9757 8.43486 19.7843 8.57856L19.4449 8.83307C18.8452 9.24504 18.3208 9.75707 17.895 10.347C17.8803 10.3661 17.8803 10.3661 14.4592 15.4891C13.916 16.2798 13.601 17.2045 13.5483 18.162C13.4624 19.0746 13.7649 19.9812 14.3817 20.6594C14.5821 20.8622 14.8219 21.0223 15.0858 21.1305L10.4406 25.8203C10.0299 26.2383 9.46823 26.4737 8.882 26.4737C8.2998 26.4733 7.74177 26.2386 7.3345 25.8223L6.63781 25.1182C6.61061 25.0904 3.91651 22.3214 4.05349 19.1139C4.08673 18.4867 3.846 17.8756 3.3934 17.4395L1.70656 15.7322C1.38457 15.4062 1.38759 14.8807 1.71328 14.5584L3.76239 12.4599C4.04611 12.1705 4.04107 11.7058 3.75131 11.4221C3.46189 11.1387 2.99721 11.1434 2.71349 11.4332L0.667063 13.5286C-0.222354 14.4247 -0.222354 15.8708 0.667063 16.767L2.3492 18.4723ZM22.2773 38.4615C21.636 38.3245 21.0592 37.9763 20.6388 37.4727L21.5564 36.5463L22.331 35.763C22.4496 36.2777 22.6997 36.7525 23.0573 37.1413C23.0764 37.1672 23.0976 37.1917 23.1201 37.2145L24.0679 38.1724C23.5189 38.4628 22.8897 38.5642 22.2773 38.4615ZM27.9664 37.7648C27.6326 38.0989 27.1676 38.2674 26.6972 38.2238C26.3295 38.1952 25.9851 38.0321 25.7299 37.7655L24.2197 36.2398C24.2022 36.217 24.1834 36.1951 24.1632 36.1747C23.5525 35.5545 23.5438 34.5617 24.1434 33.9308L24.1626 33.9103L24.1814 33.8912C24.5124 33.5685 24.9684 33.4077 25.4284 33.4513C25.796 33.4799 26.1405 33.6427 26.396 33.909L27.9603 35.4904C28.5801 36.1209 28.5828 37.1309 27.9664 37.7648ZM32.2093 35.4242C31.8769 35.759 31.4119 35.9272 30.9418 35.8826C30.5735 35.854 30.2287 35.6908 29.9732 35.4242L26.2718 31.6967C26.2547 31.6739 26.2359 31.6524 26.2154 31.6322C25.5942 31.0037 25.5942 29.9921 26.2154 29.3635C26.5478 29.0281 27.0135 28.8602 27.4835 28.9059C27.8519 28.9341 28.1963 29.0976 28.4512 29.3649L29.5028 30.4242C29.536 30.4638 29.5602 30.5078 29.5961 30.5461C29.6152 30.5719 29.6367 30.5964 29.6599 30.6192L31.2494 32.2181C31.2702 32.2554 31.295 32.2906 31.3226 32.3232C31.3494 32.3434 31.3776 32.3615 31.4068 32.3773L32.1918 33.1666C32.2224 33.1975 32.2587 33.221 32.2909 33.2502C32.8254 33.8885 32.7902 34.8279 32.2093 35.4242ZM35.4695 32.1345C35.1364 32.4686 34.6717 32.6365 34.2023 32.5932C33.882 32.5673 33.5785 32.4387 33.3374 32.2262C33.3065 32.1913 33.2847 32.153 33.2515 32.1184L30.5701 29.4099C30.086 28.7726 30.1421 27.8775 30.7014 27.3053C31.0342 26.9703 31.4998 26.802 31.9702 26.847C32.3386 26.8759 32.6837 27.0394 32.9392 27.3063L35.4681 29.8514C36.0903 30.4839 36.091 31.4983 35.4695 32.1318V32.1345ZM38.3661 28.4315C38.034 28.7682 37.5673 28.9364 37.0966 28.8891C36.7276 28.8612 36.3821 28.6974 36.1269 28.4291L34.7083 27.0099C34.6915 26.9887 34.6731 26.9679 34.6539 26.9474C34.0331 26.3189 34.0331 25.3083 34.6539 24.6797C34.9867 24.344 35.4527 24.1758 35.9228 24.2211C36.2921 24.2503 36.6376 24.4141 36.8934 24.6817L37.893 25.6823L38.363 26.1524C38.9822 26.7842 38.9835 27.7949 38.3661 28.4284V28.4315ZM8.87327 27.9429H8.87931C9.85636 27.9433 10.7928 27.5518 11.4787 26.8558L17.5811 20.6946L20.7731 17.4835L20.7788 17.4791L20.9669 17.2901C21.2422 17.0124 21.6169 16.8563 22.008 16.8563C22.3989 16.8563 22.7736 17.0124 23.0492 17.2901L26.4229 20.6903C26.8406 21.1083 27.4077 21.3416 27.9986 21.3386C28.6083 21.3437 29.1942 21.1002 29.621 20.6648C31.1003 19.1505 31.1003 16.7324 29.621 15.2185L26.3138 11.8797C26.5411 11.5923 26.5179 11.1803 26.26 10.9198C25.9736 10.6334 25.5096 10.6334 25.2229 10.9198L17.1087 19.0827L16.5476 19.6511C16.2297 19.9489 15.7324 19.9405 15.4245 19.632C15.0962 19.2405 14.9461 18.7298 15.0102 18.2228C15.0518 17.5345 15.2818 16.8707 15.6753 16.3043L19.0876 11.1941C19.4271 10.7318 19.8421 10.3305 20.3155 10.0065L20.6593 9.74901C21.3526 9.194 22.0937 8.70179 22.8746 8.2784C23.7358 7.81271 24.6712 7.50045 25.6396 7.35507C26.1556 7.32149 26.6734 7.34433 27.1844 7.42323C27.7515 7.50515 28.3253 7.53336 28.8977 7.5075C30.1437 7.40275 31.3098 6.85177 32.1814 5.95564L32.4017 5.7421C32.5501 5.58698 32.7559 5.49901 32.9711 5.49901C33.186 5.49901 33.3918 5.58698 33.5406 5.7421L42.2944 14.5601C42.4522 14.7155 42.5408 14.9277 42.5408 15.149C42.5408 15.3702 42.4522 15.5824 42.2944 15.7379L40.6186 17.4351C40.1691 17.8696 39.9287 18.4766 39.9585 19.1008C39.936 20.8686 39.3485 22.5826 38.2818 23.9924L37.9386 23.649C37.4384 23.1312 36.7662 22.8139 36.0483 22.7572C35.2425 22.6806 34.4394 22.9301 33.8189 23.4505C33.1988 23.9706 32.8127 24.7177 32.7479 25.5245C32.5363 25.454 32.3171 25.4083 32.0948 25.3888C30.5419 25.2465 29.1324 26.3011 28.8309 27.8315C28.4582 27.6109 28.0399 27.4776 27.6084 27.442C26.7042 27.3581 25.8105 27.6834 25.1719 28.3287C24.1968 29.3199 24.0058 30.8412 24.7052 32.0429C24.1753 32.1473 23.6828 32.39 23.2772 32.7463C23.2493 32.762 23.2225 32.7802 23.1973 32.8L23.1399 32.8564C23.1335 32.8631 23.1254 32.8675 23.118 32.8738C23.1123 32.8819 23.1063 32.8893 23.0996 32.8967L23.0915 32.9047C23.0475 32.9501 22.9881 33.0118 22.9626 33.0434C22.4835 33.5215 21.4487 34.5674 20.5112 35.5146L19.2058 36.8348C19.1729 36.8593 19.1427 36.8865 19.1155 36.9167C18.72 37.3169 18.2301 37.6107 17.6909 37.7712C16.3677 38.0875 14.983 37.5848 14.1705 36.4936C15.0001 36.2613 15.7516 35.8097 16.3458 35.1859C17.562 33.9499 20.3706 31.1182 20.3706 31.1182L23.6549 27.81C23.8396 27.624 23.9111 27.3537 23.8423 27.1005C23.7734 26.8474 23.575 26.6503 23.3215 26.5835C23.068 26.5163 22.7981 26.5898 22.6134 26.7759L19.329 30.0837C19.329 30.0837 16.5181 32.9202 15.3057 34.1501C14.8934 34.5919 14.3686 34.9129 13.7874 35.0794C12.3201 35.4236 10.7992 34.7759 10.0299 33.4799C9.94668 33.3405 9.88188 33.1908 9.83722 33.0347C11.2776 32.8638 12.62 32.2174 13.6511 31.1971C13.7008 31.1716 13.7471 31.14 13.7891 31.1034L20.3652 24.4954C20.5556 24.3111 20.6318 24.0384 20.5643 23.7819C20.4968 23.5257 20.2964 23.3256 20.0398 23.2588C19.7833 23.192 19.5107 23.2689 19.3267 23.4599L13.1693 29.6335L12.8187 29.9937C12.7932 30.0065 12.7687 30.0209 12.7452 30.037C10.5977 32.0267 8.72352 31.8266 7.68436 30.9802C6.64889 30.071 6.32085 28.5963 6.87317 27.3342C7.46544 27.7294 8.16113 27.9413 8.87327 27.9429ZM25.2927 12.9347L28.5801 16.2476C29.5008 17.1897 29.4991 18.6949 28.5764 19.6347C28.4253 19.7884 28.2175 19.8731 28.0023 19.8687C27.8005 19.871 27.6061 19.7918 27.4637 19.6488L24.0897 16.2529C23.719 15.8829 23.2554 15.6197 22.7477 15.4908L25.2927 12.9347Z" fill="#DF5643"/>
</g>
<defs>
<clipPath id="clip0_157_7004">
<rect width="44" height="44" fill="white"/>
</clipPath>
</defs>
</svg>
