<svg width="44" height="44" viewBox="0 0 44 44" fill="none" xmlns="http://www.w3.org/2000/svg">
<g clip-path="url(#clip0_157_7077)">
<path d="M11.7334 39.6001H32.2667V42.5334C32.2667 42.9384 31.9384 43.2668 31.5334 43.2668H12.4667C12.0617 43.2668 11.7334 42.9384 11.7334 42.5334V39.6001Z" fill="#F38F81"/>
<path d="M30.0663 39.6001V42.5334C30.0663 42.9384 29.738 43.2668 29.333 43.2668H31.533C31.938 43.2668 32.2663 42.9384 32.2663 42.5334V39.6001H30.0663Z" fill="#EC6B59"/>
<path d="M11.7334 42.5334H1.46673C1.06172 42.5334 0.733398 42.2051 0.733398 41.8001V40.3334C0.733398 39.9284 1.06172 39.6001 1.46673 39.6001H11.7334V42.5334Z" fill="#F38F81"/>
<path d="M32.2666 42.5334H42.5333C42.9383 42.5334 43.2666 42.2051 43.2666 41.8001V40.3334C43.2666 39.9284 42.9383 39.6001 42.5333 39.6001H32.2666V42.5334Z" fill="#F38F81"/>
<path d="M42.533 39.6001H40.333C40.738 39.6001 41.0663 39.9284 41.0663 40.3334V41.8001C41.0663 42.2051 40.738 42.5334 40.333 42.5334H42.533C42.938 42.5334 43.2663 42.2051 43.2663 41.8001V40.3334C43.2663 39.9284 42.938 39.6001 42.533 39.6001Z" fill="#EC6B59"/>
<path d="M13.2002 22H30.8002V39.6H13.2002V22Z" fill="#FFCFC9"/>
<path d="M28.5996 22H30.7996V39.6H28.5996V22Z" fill="#F9B2A8"/>
<path d="M33.7333 16.1335V18.3335C33.7333 18.7386 33.4049 19.0669 32.9999 19.0669H10.9999C10.5949 19.0669 10.2666 18.7386 10.2666 18.3335V16.1335H33.7333Z" fill="#FFCFC9"/>
<path d="M31.5331 16.1335V18.3335C31.5331 18.7386 31.2048 19.0669 30.7998 19.0669H32.9998C33.4048 19.0669 33.7331 18.7386 33.7331 18.3335V16.1335H31.5331Z" fill="#F9B2A8"/>
<path d="M33.7333 16.1334H10.2666L13.4933 12.2614C13.7715 11.925 14.186 11.7312 14.6226 11.7334H28.7246C29.1154 11.7336 29.4901 11.8893 29.7659 12.1661L33.7333 16.1334Z" fill="#FFCFC9"/>
<path d="M29.7657 12.1661C29.4899 11.8892 29.1152 11.7336 28.7244 11.7334H26.5244C26.9152 11.7336 27.2899 11.8892 27.5657 12.1661L31.5331 16.1334H33.7331L29.7657 12.1661Z" fill="#F9B2A8"/>
<path d="M11.7334 19.0669H32.2667V22.0002H11.7334V19.0669Z" fill="#F9B2A8"/>
<path d="M30.0664 19.0669H32.2664V22.0002H30.0664V19.0669Z" fill="#F38F81"/>
<path d="M30.7998 22H42.5331V39.6H30.7998V22Z" fill="#FFCFC9"/>
<path d="M40.333 22H42.533V39.6H40.333V22Z" fill="#F9B2A8"/>
<path d="M42.5333 22.0001H32.2666V19.0668H32.9999C33.4049 19.0668 33.7333 18.7384 33.7333 18.3334V17.6001H39.4239C39.9805 17.6004 40.4889 17.9157 40.7366 18.4141L42.5333 22.0001Z" fill="#FFCFC9"/>
<path d="M40.7363 18.4141C40.4886 17.9157 39.9802 17.6004 39.4236 17.6001H37.2236C37.7802 17.6004 38.2886 17.9157 38.5363 18.4141L40.333 22.0001H42.533L40.7363 18.4141Z" fill="#F9B2A8"/>
<path d="M1.4668 22H13.2001V39.6H1.4668V22Z" fill="#FFCFC9"/>
<path d="M11.7335 19.0668V22.0001H1.4668L3.26346 18.4141C3.51113 17.9157 4.01957 17.6004 4.57613 17.6001H10.2668V18.3334C10.2668 18.7384 10.5951 19.0668 11.0001 19.0668H11.7335Z" fill="#FFCFC9"/>
<path d="M19.0664 30.0669H24.9331V39.6002H19.0664V30.0669Z" fill="#EC6B59"/>
<path d="M31.7238 4.74473L28.5998 5.58806L22.1831 7.31139C22.0626 7.34072 21.9369 7.34072 21.8164 7.31139L15.3998 5.58806L12.2758 4.74473C11.9495 4.66296 11.7207 4.36973 11.7207 4.03339C11.7207 3.69705 11.9495 3.40382 12.2758 3.32206L21.8164 0.755391C21.9369 0.726067 22.0626 0.726067 22.1831 0.755391L31.7238 3.32206C32.05 3.40382 32.2788 3.69705 32.2788 4.03339C32.2788 4.36973 32.05 4.66296 31.7238 4.74473Z" fill="#F38F81"/>
<path d="M31.7244 3.32206L22.1837 0.755391C22.0633 0.726067 21.9375 0.726067 21.8171 0.755391L20.9004 1.00179L29.5244 3.32206C29.8506 3.40382 30.0794 3.69705 30.0794 4.03339C30.0794 4.36973 29.8506 4.66296 29.5244 4.74473L26.4004 5.58806L20.9004 7.06499L21.8171 7.31139C21.9375 7.34072 22.0633 7.34072 22.1837 7.31139L28.6004 5.58806L31.7244 4.74473C32.0506 4.66296 32.2794 4.36973 32.2794 4.03339C32.2794 3.69705 32.0506 3.40382 31.7244 3.32206Z" fill="#EC6B59"/>
<path d="M28.6004 5.58813V11.7335H15.4004V5.58813L21.8171 7.31147C21.9375 7.34079 22.0633 7.34079 22.1837 7.31147L28.6004 5.58813Z" fill="#EC6B59"/>
<path d="M1.46673 42.5334H3.66673C3.26172 42.5334 2.9334 42.2051 2.9334 41.8001V40.3334C2.9334 39.9284 3.26172 39.6001 3.66673 39.6001V22.0001L5.4634 18.4141C5.71107 17.9157 6.21951 17.6004 6.77606 17.6001H4.57607C4.01951 17.6004 3.51107 17.9157 3.2634 18.4141L1.46673 22.0001V39.6001C1.06172 39.6001 0.733398 39.9284 0.733398 40.3334V41.8001C0.733398 42.2051 1.06172 42.5334 1.46673 42.5334Z" fill="white"/>
<path d="M0.733398 33.7334H2.20007V39.6001H0.733398V33.7334Z" fill="white"/>
<path d="M1.48115 37.4C1.07614 37.402 0.746175 37.0754 0.74415 36.6704C0.742125 36.2653 1.06881 35.9354 1.47382 35.9333H1.48115C1.88616 35.9333 2.21448 36.2617 2.21448 36.6667C2.21448 37.0717 1.88616 37.4 1.48115 37.4Z" fill="#DF5643"/>
<path d="M43.2667 39.0707V22.0001C43.2646 21.8867 43.2357 21.7753 43.1823 21.6752H43.1897L41.3945 18.0856C41.0248 17.3372 40.2616 16.8644 39.4269 16.8668H34.4667V16.1334C34.4666 15.939 34.3893 15.7525 34.2518 15.615L30.2815 11.6447C30.0176 11.3835 29.6912 11.1944 29.3333 11.0954V6.14912L30.8 5.75532V7.53145V7.53658C30.7992 8.28964 31.1755 8.99306 31.8025 9.41025C32.0204 9.55566 32.2994 9.57373 32.5344 9.45765C32.7693 9.34158 32.9244 9.109 32.9414 8.84752C32.9583 8.58604 32.8344 8.33539 32.6165 8.18998C32.3977 8.04462 32.2663 7.79926 32.2667 7.53658V7.53145V5.29698C32.78 5.00049 33.0644 4.42415 32.9873 3.83638C32.9103 3.24862 32.487 2.765 31.9147 2.61078L22.3769 0.049982C22.13 -0.0160096 21.87 -0.0160096 21.6231 0.049982L12.0853 2.61078C11.4439 2.7859 10.999 3.36856 10.999 4.03345C10.999 4.69834 11.4439 5.281 12.0853 5.45612L14.6667 6.14912V11.0001H14.6205C13.9685 11.0004 13.3504 11.2906 12.9338 11.7921L9.70713 15.6641C9.59596 15.7953 9.53444 15.9615 9.53333 16.1334V16.8668H4.57307C3.73907 16.8639 2.97598 17.3354 2.60553 18.0826L0.810333 21.6723H0.817667C0.763805 21.7733 0.734889 21.8857 0.733333 22.0001V33.7335C0.733333 34.1385 1.06166 34.4668 1.46667 34.4668C1.87168 34.4668 2.2 34.1385 2.2 33.7335V22.7334H12.4667V38.8668H1.46667C0.656649 38.8668 0 39.5234 0 40.3335V41.8001C0 42.6101 0.656649 43.2668 1.46667 43.2668H11.2039C11.4638 43.7191 11.945 43.9985 12.4667 44.0001H31.5333C32.055 43.9985 32.5362 43.7191 32.7961 43.2668H42.5333C43.3434 43.2668 44 42.6101 44 41.8001V40.3335C43.9984 39.8118 43.719 39.3306 43.2667 39.0707ZM11 41.8001H1.46667V40.3335H11V41.8001ZM34.4667 18.3334H39.4269C39.7049 18.3326 39.9592 18.4899 40.0825 18.739L41.3468 21.2668H33V19.8001C33.81 19.8001 34.4667 19.1435 34.4667 18.3334ZM12.4667 4.02758L22 1.46678L31.5436 4.03345H31.5341L22.0037 6.60012L12.4667 4.02758ZM27.8667 6.54292V11.0001H16.1333V6.54292L21.6231 8.01692C21.87 8.08339 22.13 8.08339 22.3769 8.01692L27.8667 6.54292ZM14.0573 12.7308C14.1965 12.5636 14.4029 12.4669 14.6205 12.4668H28.7254C28.9201 12.4666 29.1069 12.5439 29.2446 12.6816L31.9631 15.4001H11.8323L14.0573 12.7308ZM11 21.2668H2.6532L3.91747 18.739C4.0408 18.4899 4.29508 18.3326 4.57307 18.3334H9.53333C9.53333 19.1435 10.19 19.8001 11 19.8001V21.2668ZM11 18.3334V16.8668H33V18.3334H11ZM24.9333 29.3335H19.0667C18.6617 29.3335 18.3333 29.6618 18.3333 30.0668V38.8668H13.9333V22.7334H30.0667V38.8668H25.6667V30.0668C25.6667 29.6618 25.3383 29.3335 24.9333 29.3335ZM24.2 30.8001V38.8668H19.8V30.8001H24.2ZM12.4667 21.2668V19.8001H31.5333V21.2668H12.4667ZM12.4667 42.5335V40.3335H31.5333V42.5335H12.4667ZM32.2667 38.8668H31.5333V22.7334H41.8V38.8668H32.2667ZM42.5333 41.8001H33V40.3335H42.5333V41.8001Z" fill="#DF5643"/>
<path d="M19.7997 24.2002C19.3947 24.2002 19.0664 24.5285 19.0664 24.9335V26.4002C19.0664 26.8052 19.3947 27.1335 19.7997 27.1335C20.2047 27.1335 20.5331 26.8052 20.5331 26.4002V24.9335C20.5331 24.5285 20.2047 24.2002 19.7997 24.2002Z" fill="#DF5643"/>
<path d="M9.53314 27.8667C9.93815 27.8667 10.2665 27.5384 10.2665 27.1333V25.6667C10.2665 25.2617 9.93815 24.9333 9.53314 24.9333C9.12813 24.9333 8.7998 25.2617 8.7998 25.6667V27.1333C8.7998 27.5384 9.12813 27.8667 9.53314 27.8667Z" fill="#DF5643"/>
<path d="M5.13372 27.8667C5.53873 27.8667 5.86706 27.5384 5.86706 27.1333V25.6667C5.86706 25.2617 5.53873 24.9333 5.13372 24.9333C4.72872 24.9333 4.40039 25.2617 4.40039 25.6667V27.1333C4.40039 27.5384 4.72872 27.8667 5.13372 27.8667Z" fill="#DF5643"/>
<path d="M8.7998 31.5335C8.7998 31.9385 9.12813 32.2668 9.53314 32.2668C9.93815 32.2668 10.2665 31.9385 10.2665 31.5335V30.0668C10.2665 29.6618 9.93815 29.3335 9.53314 29.3335C9.12813 29.3335 8.7998 29.6618 8.7998 30.0668V31.5335Z" fill="#DF5643"/>
<path d="M4.40039 31.5335C4.40039 31.9385 4.72872 32.2668 5.13372 32.2668C5.53873 32.2668 5.86706 31.9385 5.86706 31.5335V30.0668C5.86706 29.6618 5.53873 29.3335 5.13372 29.3335C4.72872 29.3335 4.40039 29.6618 4.40039 30.0668V31.5335Z" fill="#DF5643"/>
<path d="M8.7998 35.9334C8.7998 36.3384 9.12813 36.6667 9.53314 36.6667C9.93815 36.6667 10.2665 36.3384 10.2665 35.9334V34.4667C10.2665 34.0617 9.93815 33.7334 9.53314 33.7334C9.12813 33.7334 8.7998 34.0617 8.7998 34.4667V35.9334Z" fill="#DF5643"/>
<path d="M4.40039 35.9334C4.40039 36.3384 4.72872 36.6667 5.13372 36.6667C5.53873 36.6667 5.86706 36.3384 5.86706 35.9334V34.4667C5.86706 34.0617 5.53873 33.7334 5.13372 33.7334C4.72872 33.7334 4.40039 34.0617 4.40039 34.4667V35.9334Z" fill="#DF5643"/>
<path d="M38.8671 24.9333C38.4621 24.9333 38.1338 25.2617 38.1338 25.6667V27.1333C38.1338 27.5384 38.4621 27.8667 38.8671 27.8667C39.2721 27.8667 39.6005 27.5384 39.6005 27.1333V25.6667C39.6005 25.2617 39.2721 24.9333 38.8671 24.9333Z" fill="#DF5643"/>
<path d="M34.4667 24.9333C34.0617 24.9333 33.7334 25.2617 33.7334 25.6667V27.1333C33.7334 27.5384 34.0617 27.8667 34.4667 27.8667C34.8717 27.8667 35.2001 27.5384 35.2001 27.1333V25.6667C35.2001 25.2617 34.8717 24.9333 34.4667 24.9333Z" fill="#DF5643"/>
<path d="M38.8671 29.3335C38.4621 29.3335 38.1338 29.6618 38.1338 30.0668V31.5335C38.1338 31.9385 38.4621 32.2668 38.8671 32.2668C39.2721 32.2668 39.6005 31.9385 39.6005 31.5335V30.0668C39.6005 29.6618 39.2721 29.3335 38.8671 29.3335Z" fill="#DF5643"/>
<path d="M34.4667 29.3335C34.0617 29.3335 33.7334 29.6618 33.7334 30.0668V31.5335C33.7334 31.9385 34.0617 32.2668 34.4667 32.2668C34.8717 32.2668 35.2001 31.9385 35.2001 31.5335V30.0668C35.2001 29.6618 34.8717 29.3335 34.4667 29.3335Z" fill="#DF5643"/>
<path d="M38.8671 33.7334C38.4621 33.7334 38.1338 34.0617 38.1338 34.4667V35.9334C38.1338 36.3384 38.4621 36.6667 38.8671 36.6667C39.2721 36.6667 39.6005 36.3384 39.6005 35.9334V34.4667C39.6005 34.0617 39.2721 33.7334 38.8671 33.7334Z" fill="#DF5643"/>
<path d="M34.4667 33.7334C34.0617 33.7334 33.7334 34.0617 33.7334 34.4667V35.9334C33.7334 36.3384 34.0617 36.6667 34.4667 36.6667C34.8717 36.6667 35.2001 36.3384 35.2001 35.9334V34.4667C35.2001 34.0617 34.8717 33.7334 34.4667 33.7334Z" fill="#DF5643"/>
<path d="M24.2001 24.2002C23.7951 24.2002 23.4668 24.5285 23.4668 24.9335V26.4002C23.4668 26.8052 23.7951 27.1335 24.2001 27.1335C24.6051 27.1335 24.9335 26.8052 24.9335 26.4002V24.9335C24.9335 24.5285 24.6051 24.2002 24.2001 24.2002Z" fill="#DF5643"/>
</g>
<defs>
<clipPath id="clip0_157_7077">
<rect width="44" height="44" fill="white"/>
</clipPath>
</defs>
</svg>
