<svg width="44" height="44" viewBox="0 0 44 44" fill="none" xmlns="http://www.w3.org/2000/svg">
<g clip-path="url(#clip0_157_7126)">
<path d="M28.6004 21.2667V15.4C28.6004 12.9699 26.6304 11 24.2004 11H19.8004C17.3703 11 15.4004 12.9699 15.4004 15.4V21.2667" fill="#F38F81"/>
<path d="M24.2 11H22C24.4301 11 26.4 12.9699 26.4 15.4V21.2667H28.6V15.4C28.6 12.9699 26.6301 11 24.2 11Z" fill="#EC6B59"/>
<path d="M22.0005 11.0001C24.8356 11.0001 27.1339 8.70179 27.1339 5.86673C27.1339 3.03167 24.8356 0.733398 22.0005 0.733398C19.1655 0.733398 16.8672 3.03167 16.8672 5.86673C16.8672 8.70179 19.1655 11.0001 22.0005 11.0001Z" fill="#FFCFC9"/>
<path d="M22.0004 0.733405C21.6304 0.733982 21.2616 0.774551 20.9004 0.854405C23.2518 1.37418 24.9257 3.45861 24.9257 5.86674C24.9257 8.27487 23.2518 10.3593 20.9004 10.8791C22.8226 11.304 24.8184 10.5922 26.038 9.04687C27.2575 7.50155 27.4859 5.39492 26.6259 3.62413C25.7659 1.85335 23.969 0.730354 22.0004 0.733405Z" fill="#F9B2A8"/>
<path d="M5.86673 17.6002C8.70179 17.6002 11.0001 15.3019 11.0001 12.4668C11.0001 9.63177 8.70179 7.3335 5.86673 7.3335C3.03167 7.3335 0.733398 9.63177 0.733398 12.4668C0.733398 15.3019 3.03167 17.6002 5.86673 17.6002Z" fill="#FFCFC9"/>
<path d="M5.8666 7.3335C5.49665 7.33408 5.12784 7.37465 4.7666 7.4545C7.11797 7.97428 8.79195 10.0587 8.79195 12.4668C8.79195 14.875 7.11797 16.9594 4.7666 17.4792C6.68878 17.9041 8.68464 17.1923 9.90418 15.647C11.1237 14.1016 11.3521 11.995 10.4921 10.2242C9.6321 8.45345 7.83517 7.33045 5.8666 7.3335Z" fill="#F9B2A8"/>
<path d="M34.5108 25.1533L32.6921 21.9999C32.4283 21.5451 31.9419 21.2656 31.4161 21.2666H12.5841C12.0583 21.2656 11.5719 21.5451 11.3081 21.9999L9.48946 25.1533L7.37012 28.8346L0.931455 39.9959C0.799624 40.2177 0.73114 40.4713 0.733455 40.7293V41.7999C0.735871 42.609 1.39111 43.2642 2.20012 43.2666H41.8001C42.6091 43.2642 43.2644 42.609 43.2668 41.7999V40.7293C43.2691 40.4713 43.2006 40.2177 43.0688 39.9959L36.6301 28.8346L34.5108 25.1533Z" fill="#FFCFC9"/>
<path d="M43.0695 39.9959L36.6308 28.8346L34.5115 25.1533L32.6928 21.9999C32.429 21.5451 31.9426 21.2656 31.4168 21.2666L29.2168 21.2666C29.7426 21.2656 30.229 21.5451 30.4928 21.9999L32.3115 25.1533L34.4308 28.8346L40.8695 39.9959C41.0013 40.2177 41.0698 40.4713 41.0675 40.7293V41.7999C41.065 42.609 40.4098 43.2642 39.6008 43.2666H41.8008C42.6098 43.2642 43.265 42.609 43.2675 41.7999V40.7293C43.2698 40.4713 43.2013 40.2177 43.0695 39.9959Z" fill="#F9B2A8"/>
<path d="M3.49813 35.5448C2.2547 34.9252 1.46823 33.656 1.4668 32.2668V22.0001C1.4668 19.57 3.43674 17.6001 5.8668 17.6001C8.29534 17.6037 10.2632 19.5716 10.2668 22.0001V23.8041L3.49813 35.5448Z" fill="#FFCFC9"/>
<path d="M8.97687 18.8906C7.87958 17.7835 6.27427 17.3472 4.76754 17.7466C6.70772 18.2475 8.06437 19.9961 8.06754 21.9999V23.8039L2.0498 34.2466C2.40808 34.801 2.90848 35.2493 3.49887 35.5446L10.2675 23.8039V21.9999C10.2711 20.8324 9.80613 19.7124 8.97687 18.8906Z" fill="#F9B2A8"/>
<path d="M8.17311 22.8466L9.99324 26.0336C10.1245 26.261 10.3673 26.4008 10.6298 26.4003H14.5355C15.502 26.3803 16.3305 27.0869 16.4634 28.0444C16.517 28.5609 16.3491 29.0758 16.0014 29.4614C15.6537 29.847 15.1588 30.067 14.6396 30.067H9.49164C8.61628 30.067 7.80803 29.5979 7.37377 28.8379L5.02051 24.7202C4.82361 24.3756 4.93672 23.9368 5.27571 23.7302L7.15451 22.587C7.32333 22.4836 7.52678 22.4528 7.71862 22.5017C7.91045 22.5506 8.07437 22.675 8.17311 22.8466Z" fill="#FFCFC9"/>
<path d="M14.535 26.4003H12.335C13.3007 26.3815 14.1279 27.0877 14.2607 28.0444C14.3142 28.5605 14.1466 29.0751 13.7994 29.4606C13.4522 29.8461 12.9579 30.0664 12.4391 30.067H14.6391C15.1583 30.0671 15.6532 29.847 16.0009 29.4614C16.3486 29.0758 16.5165 28.5609 16.4629 28.0444C16.33 27.0869 15.5015 26.3804 14.535 26.4003Z" fill="#F9B2A8"/>
<path d="M38.1333 17.6002C40.9684 17.6002 43.2667 15.3019 43.2667 12.4668C43.2667 9.63177 40.9684 7.3335 38.1333 7.3335C35.2983 7.3335 33 9.63177 33 12.4668C33 15.3019 35.2983 17.6002 38.1333 17.6002Z" fill="#FFCFC9"/>
<path d="M38.1342 7.3335C37.7642 7.33408 37.3954 7.37465 37.0342 7.4545C39.3855 7.97428 41.0595 10.0587 41.0595 12.4668C41.0595 14.875 39.3855 16.9594 37.0342 17.4792C38.9564 17.9041 40.9522 17.1923 42.1718 15.647C43.3913 14.1016 43.6197 11.995 42.7597 10.2242C41.8997 8.45345 40.1028 7.33045 38.1342 7.3335Z" fill="#F9B2A8"/>
<path d="M33.7334 23.8041V22.0001C33.737 19.5716 35.7049 17.6037 38.1334 17.6001C40.5635 17.6001 42.5334 19.57 42.5334 22.0001V32.2668C42.532 33.656 41.7455 34.9252 40.5021 35.5448L33.7334 23.8041Z" fill="#FFCFC9"/>
<path d="M38.1342 17.6001C37.7628 17.6024 37.3932 17.6517 37.0342 17.7468C38.9744 18.2477 40.331 19.9963 40.3342 22.0001V32.2668C40.3355 32.9692 40.1333 33.6569 39.7519 34.2468L40.5028 35.5448C41.7463 34.9252 42.5327 33.656 42.5342 32.2668V22.0001C42.5342 20.8331 42.0706 19.714 41.2455 18.8888C40.4203 18.0637 39.3011 17.6001 38.1342 17.6001Z" fill="#F9B2A8"/>
<path d="M35.8285 22.8466L34.0083 26.0336C33.8771 26.261 33.6343 26.4008 33.3718 26.4003H29.4661C28.4995 26.3803 27.671 27.0869 27.5381 28.0444C27.4845 28.5609 27.6524 29.0758 28.0001 29.4614C28.3478 29.847 28.8427 30.067 29.3619 30.067H34.5099C35.3853 30.067 36.1935 29.5979 36.6278 28.8379L38.9811 24.7195C39.178 24.3748 39.0648 23.936 38.7259 23.7295L36.8471 22.587C36.6782 22.4836 36.4748 22.4528 36.2829 22.5017C36.0911 22.5506 35.9272 22.675 35.8285 22.8466Z" fill="#FFCFC9"/>
<path d="M38.7253 23.73L36.8465 22.5867C36.6773 22.4835 36.4736 22.4532 36.2817 22.5027C36.0898 22.5522 35.9261 22.6772 35.8279 22.8492L35.6335 23.1888L36.5253 23.7329C36.8642 23.9394 36.9774 24.3782 36.7805 24.7229L34.4272 28.8413C33.9924 29.5992 33.1853 30.0667 32.3115 30.0667H34.5115C35.3869 30.0673 36.1953 29.5985 36.6294 28.8384L38.9827 24.72C39.1792 24.3747 39.065 23.9358 38.7253 23.73Z" fill="#F9B2A8"/>
<path d="M43.2671 40.7295V41.8002C43.2646 42.6092 42.6094 43.2644 41.8004 43.2668H2.2004C1.39138 43.2644 0.736146 42.6092 0.733729 41.8002V40.7295C0.730543 40.5951 0.750385 40.4612 0.792396 40.3335H43.2084C43.2504 40.4612 43.2702 40.5951 43.2671 40.7295Z" fill="#F38F81"/>
<path d="M43.2086 40.3335H41.0086C41.0506 40.4612 41.0704 40.5951 41.0673 40.7295V41.8002C41.0648 42.6092 40.4096 43.2644 39.6006 43.2668H41.8006C42.6096 43.2644 43.2648 42.6092 43.2673 41.8002V40.7295C43.2704 40.5951 43.2506 40.4612 43.2086 40.3335Z" fill="#EC6B59"/>
<path d="M2.9334 40.7289V41.7996C2.93581 42.6086 3.59105 43.2639 4.40007 43.2663H2.20007C1.39105 43.2639 0.735815 42.6086 0.733398 41.7996V40.7289C0.738738 40.472 0.806705 40.2203 0.931398 39.9956L3.49807 35.5443C3.20841 35.4002 2.93953 35.2177 2.69873 35.0016L2.68407 34.9869C1.90735 34.2963 1.46412 33.3057 1.46673 32.2663V21.9996C1.47051 19.8012 3.09475 17.9423 5.27273 17.6436C5.2874 17.6436 5.3094 17.6363 5.32407 17.6363C5.50402 17.6129 5.68526 17.6006 5.86673 17.5996C6.25066 17.602 6.63269 17.6537 7.0034 17.7536C5.04709 18.2332 3.67018 19.9854 3.66673 21.9996V32.2663C3.67614 33.6532 4.46023 34.9186 5.69807 35.5443L3.1314 39.9956C3.0069 40.2204 2.93894 40.4721 2.9334 40.7289Z" fill="white"/>
<path d="M5.29581 17.5659H5.30974C5.86324 17.6288 6.42335 17.5991 6.96708 17.4779C4.6112 16.9636 2.93164 14.8777 2.93164 12.4663C2.93164 10.055 4.6112 7.96912 6.96708 7.45474C6.42277 7.33256 5.86189 7.30207 5.30754 7.36454H5.28994C2.69933 7.66301 0.744141 9.85639 0.744141 12.4641C0.744141 15.0719 2.69933 17.2653 5.28994 17.5637L5.29581 17.5659Z" fill="white"/>
<path d="M0.733398 26.3999H2.20007V32.2666H0.733398V26.3999Z" fill="white"/>
<path d="M1.46673 30.0663C1.87174 30.0663 2.20007 29.738 2.20007 29.3329C2.20007 28.9279 1.87174 28.5996 1.46673 28.5996C1.06172 28.5996 0.733398 28.9279 0.733398 29.3329C0.733398 29.738 1.06172 30.0663 1.46673 30.0663Z" fill="#DF5643"/>
<path d="M44 12.4665C44.0021 9.58969 41.9179 7.13576 39.0787 6.67219C36.2395 6.20862 33.483 7.8722 32.57 10.6003C31.657 13.3284 32.8568 16.316 35.4031 17.6549C35.0788 17.8586 34.7785 18.0982 34.5077 18.3691C33.7156 19.1532 33.2051 20.1774 33.0557 21.2819C32.6408 20.8101 32.0443 20.5378 31.416 20.5332H29.3333V15.3999C29.3296 13.1152 27.818 11.1072 25.6234 10.4719C27.5906 8.92703 28.3619 6.3049 27.5447 3.94096C26.7274 1.57702 24.5012 -0.00878906 22 -0.00878906C19.4988 -0.00878906 17.2726 1.57702 16.4554 3.94096C15.6381 6.3049 16.4095 8.92703 18.3766 10.4719C16.182 11.1072 14.6704 13.1152 14.6667 15.3999V20.5332H12.584C11.956 20.5379 11.3597 20.8102 10.945 21.2819C10.7352 19.7865 9.8766 18.4596 8.59835 17.6556C10.9881 16.4008 12.2133 13.6775 11.5672 11.0569C10.921 8.4363 8.57018 6.59471 5.87108 6.59471C3.17199 6.59471 0.82117 8.4363 0.17501 11.0569C-0.471151 13.6775 0.754101 16.4008 3.14381 17.6556C1.64642 18.5925 0.7359 20.2335 0.733348 21.9999V26.3999C0.733348 26.8049 1.06167 27.1332 1.46668 27.1332C1.87169 27.1332 2.20001 26.8049 2.20001 26.3999V21.9999C2.20244 19.9758 3.84264 18.3356 5.86668 18.3332C7.89022 18.3368 9.52972 19.9763 9.53335 21.9999V23.6132L9.49301 23.6829L8.43335 21.8268C8.22763 21.4858 7.78737 21.3713 7.44159 21.5689C7.09581 21.7665 6.97093 22.2039 7.16028 22.5543L9.35441 26.394C9.61569 26.8514 10.1022 27.1335 10.6289 27.1332H14.5339C15.1248 27.1106 15.6395 27.5327 15.7329 28.1166C15.7665 28.4281 15.6651 28.7391 15.4543 28.9709C15.247 29.2031 14.95 29.335 14.6388 29.3332H9.49008C8.8785 29.3323 8.31396 29.0049 8.00948 28.4745L5.30275 23.7371C5.09703 23.3961 4.65677 23.2816 4.31099 23.4792C3.96521 23.6768 3.84033 24.1142 4.02968 24.4646L6.52302 28.8323L3.25161 34.5061C2.58527 33.9533 2.1998 33.1324 2.20001 32.2665C2.20001 31.8615 1.87169 31.5332 1.46668 31.5332C1.06167 31.5332 0.733348 31.8615 0.733348 32.2665C0.732102 33.6562 1.39277 34.9634 2.51241 35.7865L0.302148 39.6189C0.102989 39.9549 -0.00142079 40.3386 1.46027e-05 40.7292V41.7999C1.46027e-05 43.0149 0.984988 43.9999 2.20001 43.9999H41.8C43.015 43.9999 44 43.0149 44 41.7999V40.7292C44.0028 40.3428 43.9014 39.9629 43.7067 39.6292L41.4883 35.7865C42.6074 34.963 43.2677 33.656 43.2667 32.2665V21.9999C43.2641 20.2344 42.3545 18.5942 40.8584 17.6571C42.7884 16.6447 43.9982 14.6459 44 12.4665ZM1.46668 12.4665C1.46668 10.0365 3.43663 8.06652 5.86668 8.06652C8.29673 8.06652 10.2667 10.0365 10.2667 12.4665C10.2667 14.8966 8.29673 16.8665 5.86668 16.8665C3.43763 16.8641 1.46911 14.8956 1.46668 12.4665ZM17.6 5.86652C17.6 3.43647 19.57 1.46652 22 1.46652C24.4301 1.46652 26.4 3.43647 26.4 5.86652C26.4 8.29657 24.4301 10.2665 22 10.2665C19.571 10.2641 17.6024 8.29557 17.6 5.86652ZM16.1333 15.3999C16.1358 13.3758 17.776 11.7356 19.8 11.7332H24.2C26.2241 11.7356 27.8643 13.3758 27.8667 15.3999V20.5332H26.4V15.3999C26.4 14.9948 26.0717 14.6665 25.6667 14.6665C25.2617 14.6665 24.9333 14.9948 24.9333 15.3999V20.5332H19.0667V15.3999C19.0667 14.9948 18.7384 14.6665 18.3333 14.6665C17.9283 14.6665 17.6 14.9948 17.6 15.3999V20.5332H16.1333V15.3999ZM9.49008 30.7999H14.6388C15.3651 30.7999 16.0575 30.4922 16.5442 29.9531C17.0309 29.414 17.2664 28.6939 17.1923 27.9714C17.0194 26.6399 15.8765 25.649 14.5339 25.6665H10.6289L10.3356 25.1532L11.9416 22.3665C12.0739 22.1373 12.3194 21.9972 12.584 21.9999H31.416C31.6801 21.9978 31.9249 22.1378 32.0569 22.3665L33.6644 25.1532L33.3711 25.6665H29.4661C28.1235 25.649 26.9807 26.6399 26.8077 27.9714C26.7337 28.6939 26.9692 29.414 27.4559 29.9531C27.9426 30.4922 28.6349 30.7999 29.3612 30.7999H34.5099C35.2375 30.7979 35.9422 30.546 36.5061 30.0863L41.9943 39.5999H2.00568L7.49395 30.0863C8.05783 30.546 8.76257 30.7979 9.49008 30.7999ZM41.8 42.5332H2.20001C1.79501 42.5332 1.46668 42.2049 1.46668 41.7999V41.0665H42.5333V41.7999C42.5333 42.2049 42.205 42.5332 41.8 42.5332ZM41.8 21.9999V32.2665C41.8002 33.1324 41.4148 33.9533 40.7484 34.5061L37.4733 28.8323L39.9667 24.4646C40.156 24.1142 40.0312 23.6768 39.6854 23.4792C39.3396 23.2816 38.8993 23.3961 38.6936 23.7371L35.9869 28.4745C35.6831 29.0037 35.1202 29.331 34.5099 29.3332H29.3612C29.05 29.335 28.753 29.2031 28.5457 28.9709C28.335 28.7391 28.2335 28.4281 28.2671 28.1166C28.3605 27.5327 28.8752 27.1106 29.4661 27.1332H33.3711C33.8972 27.1332 34.3829 26.8514 34.6441 26.3947L36.8383 22.5543C37.0276 22.2039 36.9027 21.7665 36.557 21.5689C36.2112 21.3713 35.7709 21.4858 35.5652 21.8268L34.507 23.6792L34.4667 23.6132V21.9999C34.4703 19.9763 36.1098 18.3368 38.1333 18.3332C40.1574 18.3356 41.7976 19.9758 41.8 21.9999ZM38.1333 16.8665C35.7033 16.8665 33.7333 14.8966 33.7333 12.4665C33.7333 10.0365 35.7033 8.06652 38.1333 8.06652C40.5634 8.06652 42.5333 10.0365 42.5333 12.4665C42.5309 14.8956 40.5624 16.8641 38.1333 16.8665Z" fill="#DF5643"/>
</g>
<defs>
<clipPath id="clip0_157_7126">
<rect width="44" height="44" fill="white"/>
</clipPath>
</defs>
</svg>
