<svg width="88" height="88" viewBox="0 0 88 88" fill="none" xmlns="http://www.w3.org/2000/svg">
<path d="M3.7811 8.68451L6.17351 10.3808C5.13817 11.8604 4.32734 13.4849 3.76735 15.2018C3.24674 16.931 2.96852 18.724 2.94067 20.5297H0C0.0295956 18.4227 0.354142 16.3302 0.964181 14.3132C1.61854 12.3075 2.56792 10.4105 3.7811 8.68451Z" fill="white"/>
<path d="M50.2938 37.0943L39.5984 47.7914L37.7079 45.9009C37.4297 45.6452 37.0636 45.5068 36.6859 45.5142C36.3082 45.5216 35.9479 45.6744 35.68 45.9408C35.4121 46.2072 35.2572 46.5666 35.2475 46.9442C35.2379 47.3219 35.3743 47.6888 35.6283 47.9684L38.5621 50.9022C38.837 51.177 39.2097 51.3313 39.5984 51.3313C39.9871 51.3313 40.3599 51.177 40.6348 50.9022L52.3682 39.1688C52.6276 38.8906 52.7689 38.5225 52.7623 38.1422C52.7556 37.7618 52.6016 37.3989 52.3326 37.13C52.0636 36.861 51.7007 36.7069 51.3204 36.7003C50.9401 36.6936 50.572 36.8349 50.2938 37.0943Z" fill="#2E4939"/>
<path d="M2.40633 16.2106C2.02583 16.1995 1.66454 16.041 1.39869 15.7685C1.13285 15.4961 0.983245 15.131 0.981461 14.7504C0.979677 14.3697 1.12585 14.0033 1.38913 13.7283C1.65241 13.4534 2.0122 13.2915 2.39258 13.2768H2.40633C2.60319 13.2701 2.79939 13.303 2.98325 13.3737C3.16711 13.4444 3.33485 13.5514 3.4765 13.6883C3.61814 13.8251 3.73079 13.9891 3.80772 14.1705C3.88466 14.3518 3.9243 14.5468 3.9243 14.7437C3.9243 14.9407 3.88466 15.1357 3.80772 15.317C3.73079 15.4983 3.61814 15.6623 3.4765 15.7992C3.33485 15.9361 3.16711 16.043 2.98325 16.1137C2.79939 16.1844 2.60319 16.2174 2.40633 16.2106Z" fill="#2E4939"/>
<path d="M67.4634 46.9321H67.2606C67.7341 43.3802 67.3827 39.767 66.2337 36.3729C65.0846 32.9788 63.1689 29.8952 60.6351 27.3614C58.1013 24.8276 55.0177 22.9118 51.6236 21.7628C48.2295 20.6138 44.6163 20.2624 41.0644 20.7359V20.5331C41.0589 15.0894 38.8941 9.87012 35.045 6.02064C31.1958 2.17117 25.9768 0.00591487 20.533 0C17.2507 0.020064 14.0189 0.810063 11.0975 2.30647C8.18598 3.82016 5.67771 6.00672 3.78102 8.6845C3.55356 8.98702 3.45549 9.36746 3.50834 9.74224C3.56119 10.117 3.76064 10.4555 4.06289 10.6833C4.1007 10.7126 4.14023 10.7383 4.18148 10.7641C4.50219 10.9576 4.88319 11.0255 5.25101 10.9548C5.61883 10.884 5.94742 10.6795 6.17343 10.3808C7.79988 8.08436 9.95117 6.20942 12.4483 4.912C14.9502 3.63269 17.7163 2.9553 20.5261 2.93379C25.1922 2.9388 29.6658 4.79461 32.9652 8.09404C36.2646 11.3935 38.1205 15.867 38.1255 20.5331C38.1255 20.8064 38.1169 21.0607 38.1066 21.3099C35.0083 22.1145 32.1085 23.5471 29.587 25.519C28.7956 24.9215 27.9199 24.4448 26.9884 24.1045C28.6375 22.7691 29.8322 20.9554 30.4082 18.9131C30.9841 16.8708 30.9131 14.7001 30.2047 12.6999C29.4964 10.6996 28.1855 8.96796 26.4526 7.74327C24.7197 6.51858 22.6499 5.86099 20.5279 5.86099C18.4059 5.86099 16.336 6.51858 14.6031 7.74327C12.8702 8.96796 11.5594 10.6996 10.851 12.6999C10.1427 14.7001 10.0716 16.8708 10.6476 18.9131C11.2235 20.9554 12.4183 22.7691 14.0673 24.1045C12.3312 24.7429 10.7994 25.8379 9.63366 27.2741C8.46788 28.7103 7.71124 30.4345 7.44354 32.2648C4.53755 29.0482 2.92815 24.868 2.92684 20.5331C2.93358 20.3362 2.90062 20.14 2.82994 19.9562C2.75926 19.7723 2.65229 19.6046 2.51541 19.4629C2.37853 19.3213 2.21454 19.2086 2.03321 19.1317C1.85188 19.0548 1.65692 19.0151 1.45994 19.0151C1.26297 19.0151 1.06801 19.0548 0.886677 19.1317C0.705346 19.2086 0.541357 19.3213 0.404478 19.4629C0.267598 19.6046 0.16063 19.7723 0.0899459 19.9562C0.0192616 20.14 -0.0136925 20.3362 -0.00695311 20.5331C-0.00541732 23.6186 0.692755 26.6639 2.03549 29.4419C3.37822 32.22 5.33085 34.659 7.74774 36.577C7.77181 36.6028 7.80618 36.6148 7.83024 36.6389C9.69492 38.1154 11.8018 39.2569 14.057 40.0127L14.1481 40.0453C16.2065 40.7216 18.3595 41.0656 20.5261 41.0645H20.729C20.2552 44.617 20.6067 48.2309 21.7561 51.6256C22.9055 55.0203 24.8219 58.1043 27.3565 60.6383C29.8911 63.1722 32.9756 65.0878 36.3706 66.2363C39.7656 67.3848 43.3796 67.7353 46.932 67.2607V67.4635C46.9331 70.5493 47.6311 73.595 48.9739 76.3733C50.3166 79.1517 52.2695 81.5909 54.6867 83.5091C54.7108 83.5331 54.7434 83.5469 54.7692 83.571C56.6329 85.0476 58.7393 86.1886 60.9943 86.943C61.0235 86.9568 61.0544 86.9653 61.0854 86.9774C65.2282 88.3471 69.702 88.3471 73.8448 86.9774C73.8758 86.9653 73.9067 86.9568 73.9359 86.943C76.1909 86.1886 78.2973 85.0476 80.161 83.571C80.1868 83.5469 80.2212 83.5331 80.2435 83.5091C83.579 80.8607 86.0075 77.2397 87.1918 73.1486C88.3762 69.0575 88.2577 64.6992 86.8529 60.6785C85.448 56.6578 82.8265 53.1741 79.352 50.7108C75.8775 48.2475 71.7225 46.9269 67.4634 46.9321ZM67.4634 70.3972C66.2852 70.4045 65.1228 70.1263 64.0756 69.5863C63.0285 69.0464 62.1276 68.2608 61.4503 67.2968C60.7729 66.3328 60.3392 65.219 60.1861 64.0508C60.0331 62.8826 60.1653 61.6947 60.5715 60.5887C61.706 59.4496 62.7213 58.1977 63.6015 56.8523C64.7567 56.1205 66.0959 55.7319 67.4634 55.7317C68.4358 55.7168 69.4014 55.8955 70.3041 56.2573C71.2068 56.6192 72.0285 57.1569 72.7215 57.8393C73.4144 58.5217 73.9646 59.3351 74.3402 60.2321C74.7158 61.1292 74.9093 62.092 74.9093 63.0645C74.9093 64.037 74.7158 64.9998 74.3402 65.8969C73.9646 66.7939 73.4144 67.6073 72.7215 68.2897C72.0285 68.9721 71.2068 69.5098 70.3041 69.8716C69.4014 70.2335 68.4358 70.4121 67.4634 70.3972ZM13.1994 16.1333C13.1991 14.6827 13.6289 13.2647 14.4345 12.0585C15.2401 10.8522 16.3854 9.912 17.7254 9.35667C19.0654 8.80134 20.54 8.65587 21.9627 8.93864C23.3854 9.22142 24.6923 9.91974 25.7181 10.9453C26.7439 11.9709 27.4425 13.2776 27.7256 14.7002C28.0087 16.1228 27.8636 17.5975 27.3086 18.9376C26.7536 20.2778 25.8136 21.4232 24.6075 22.2291C23.4015 23.035 21.9836 23.4652 20.533 23.4652C19.57 23.4654 18.6164 23.2759 17.7267 22.9076C16.837 22.5392 16.0285 21.9992 15.3475 21.3183C14.6665 20.6375 14.1262 19.8291 13.7577 18.9395C13.3891 18.0498 13.1994 17.0963 13.1994 16.1333ZM20.533 38.1324C19.0478 38.1259 17.5695 37.9313 16.1332 37.5532V33.7326C16.1399 33.5357 16.107 33.3395 16.0363 33.1557C15.9656 32.9718 15.8586 32.8041 15.7218 32.6624C15.5849 32.5208 15.4209 32.4081 15.2396 32.3312C15.0582 32.2543 14.8633 32.2146 14.6663 32.2146C14.4693 32.2146 14.2744 32.2543 14.093 32.3312C13.9117 32.4081 13.7477 32.5208 13.6108 32.6624C13.474 32.8041 13.367 32.9718 13.2963 33.1557C13.2256 33.3395 13.1927 33.5357 13.1994 33.7326V36.5186C12.1681 36.0422 11.1855 35.4666 10.2656 34.7999V33.7274C10.2693 31.784 11.0432 29.9213 12.4179 28.5476C13.7926 27.1739 15.6558 26.4012 17.5992 26.399H23.4651C24.8319 26.3971 26.1711 26.7833 27.327 27.5127C24.4221 30.454 22.3468 34.1113 21.3116 38.1135C21.0589 38.1238 20.796 38.1324 20.533 38.1324ZM23.4651 43.9983C23.4651 39.9372 24.6693 35.9674 26.9255 32.5907C29.1818 29.214 32.3886 26.5823 36.1405 25.0282C39.8925 23.4741 44.021 23.0674 48.004 23.8597C51.987 24.652 55.6457 26.6076 58.5173 29.4792C61.3889 32.3508 63.3445 36.0094 64.1368 39.9925C64.929 43.9755 64.5224 48.104 62.9683 51.856C61.4142 55.6079 58.7824 58.8147 55.4058 61.0709C52.0291 63.3271 48.0593 64.5314 43.9982 64.5314C38.5525 64.5314 33.3298 62.3681 29.4791 58.5174C25.6284 54.6667 23.4651 49.444 23.4651 43.9983ZM49.8641 67.4635C49.8641 67.1902 49.8727 66.9358 49.883 66.6866C52.501 66.0152 54.9824 64.894 57.2166 63.373C57.2605 64.8479 57.6224 66.2959 58.2777 67.618C58.9329 68.9401 59.866 70.1051 61.0132 71.0332C59.2756 71.671 57.7425 72.7663 56.5757 74.2032C55.4089 75.6401 54.6518 77.3654 54.3842 79.1969C51.477 75.9801 49.8664 71.7993 49.8641 67.4635ZM63.0635 84.4784V80.6629C63.0635 80.2741 62.9091 79.9012 62.6342 79.6263C62.3592 79.3514 61.9863 79.1969 61.5975 79.1969C61.2087 79.1969 60.8358 79.3514 60.5609 79.6263C60.2859 79.9012 60.1315 80.2741 60.1315 80.6629V83.4506C59.1006 82.9733 58.1181 82.3978 57.1977 81.732V80.6578C57.2 78.7136 57.9734 76.8498 59.3483 75.4753C60.7231 74.1007 62.5872 73.3277 64.5313 73.3259H70.3972C72.3413 73.3277 74.2053 74.1007 75.5802 75.4753C76.9551 76.8498 77.7285 78.7136 77.7308 80.6578V81.7251C76.8104 82.391 75.8279 82.9665 74.797 83.4438V80.6629C74.784 80.2826 74.6237 79.9222 74.3501 79.6577C74.0764 79.3932 73.7107 79.2454 73.3301 79.2454C72.9495 79.2454 72.5838 79.3932 72.3102 79.6577C72.0365 79.9222 71.8762 80.2826 71.8632 80.6629V84.4767C68.9807 85.2483 65.946 85.2483 63.0635 84.4767V84.4784ZM80.546 79.1969C80.2777 77.3656 79.5203 75.6407 78.3536 74.2039C77.1869 72.7671 75.6542 71.6717 73.917 71.0332C75.5624 69.6972 76.7539 67.8848 77.3281 65.8446C77.9023 63.8045 77.8309 61.6366 77.1238 59.6386C76.4167 57.6407 75.1085 55.9105 73.3788 54.6857C71.6492 53.4609 69.5828 52.8015 67.4634 52.7979C66.8625 52.8019 66.2632 52.8595 65.6725 52.9698C66.0815 51.9632 66.4203 50.9296 66.6865 49.8762C66.9375 49.8659 67.1918 49.8573 67.4634 49.8573C70.8647 49.8501 74.195 50.8303 77.0501 52.679C79.9052 54.5277 82.1623 57.1654 83.5475 60.2719C84.9327 63.3784 85.3865 66.8202 84.8537 70.1796C84.3209 73.539 82.8244 76.6714 80.546 79.1969Z" fill="#2E4939"/>
<path d="M52.3687 1.89057C52.0935 1.6157 51.7204 1.4613 51.3314 1.4613C50.9425 1.4613 50.5694 1.6157 50.2942 1.89057L45.8892 6.29555C45.6144 6.57076 45.46 6.94381 45.46 7.33277C45.46 7.72174 45.6144 8.09479 45.8892 8.37L50.2891 12.7698C50.5641 13.0456 50.9375 13.2008 51.327 13.2013C51.7166 13.2018 52.0903 13.0475 52.3661 12.7724C52.6419 12.4973 52.797 12.1239 52.7975 11.7344C52.798 11.3449 52.6437 10.9712 52.3687 10.6954L50.5434 8.87185C59.4866 9.42608 67.8827 13.3669 74.0232 19.8924C80.1637 26.418 83.5872 35.0379 83.5971 43.9983C83.6101 44.3786 83.7704 44.7391 84.0441 45.0035C84.3177 45.268 84.6834 45.4158 85.064 45.4158C85.4446 45.4158 85.8103 45.268 86.084 45.0035C86.3576 44.7391 86.5179 44.3786 86.5309 43.9983C86.5193 34.2381 82.7701 24.853 76.0537 17.7713C69.3374 10.6896 60.1638 6.44899 50.418 5.92088L52.3687 3.97017C52.5055 3.83381 52.6141 3.67176 52.6882 3.49332C52.7624 3.31489 52.8005 3.12358 52.8005 2.93037C52.8005 2.73716 52.7624 2.54585 52.6882 2.36741C52.6141 2.18898 52.5055 2.02693 52.3687 1.89057Z" fill="#2E4939"/>
<path d="M4.39961 43.9983C4.38659 43.6179 4.22634 43.2575 3.95267 42.993C3.67899 42.7286 3.31329 42.5807 2.93272 42.5807C2.55214 42.5807 2.18644 42.7286 1.91277 42.993C1.63909 43.2575 1.47884 43.6179 1.46582 43.9983C1.47744 53.7584 5.22661 63.1435 11.943 70.2253C18.6594 77.307 27.8329 81.5476 37.5788 82.0757L35.6281 84.0264C35.4827 84.1586 35.3653 84.3186 35.2828 84.4969C35.2004 84.6753 35.1547 84.8684 35.1483 85.0648C35.1419 85.2612 35.175 85.4569 35.2456 85.6402C35.3162 85.8236 35.423 85.9909 35.5595 86.1323C35.696 86.2736 35.8595 86.3861 36.0403 86.4631C36.2211 86.54 36.4155 86.5799 36.612 86.5804C36.8085 86.5808 37.003 86.5418 37.1842 86.4656C37.3653 86.3894 37.5293 86.2777 37.6664 86.1369L37.7025 86.1009L42.1024 81.701C42.3772 81.4258 42.5316 81.0528 42.5316 80.6638C42.5316 80.2748 42.3772 79.9018 42.1024 79.6266L37.7025 75.2268C37.4243 74.9673 37.0563 74.8261 36.6759 74.8327C36.2956 74.8394 35.9327 74.9934 35.6637 75.2624C35.3948 75.5314 35.2407 75.8943 35.2341 76.2746C35.2274 76.6549 35.3687 77.023 35.6281 77.3012L37.4533 79.1247C28.5101 78.5705 20.114 74.6297 13.9736 68.1041C7.83308 61.5786 4.40955 52.9586 4.39961 43.9983Z" fill="#2E4939"/>
</svg>
