<svg width="219" height="24" viewBox="0 0 219 24" fill="none" xmlns="http://www.w3.org/2000/svg">
<g opacity="0.9">
<g clip-path="url(#clip0_1011_53403)">
<path d="M187.128 7.21506C187.128 7.21745 187.129 7.21977 187.129 7.22212C187.13 7.22971 187.132 7.2372 187.134 7.24458C187.134 7.24693 187.135 7.24925 187.136 7.25157C187.138 7.26023 187.141 7.26871 187.144 7.27691C187.145 7.27766 187.145 7.27845 187.145 7.27916C187.149 7.2885 187.153 7.29755 187.158 7.30629C187.158 7.30675 187.159 7.30725 187.159 7.30771L193.55 18.4422C193.551 18.4441 193.552 18.4458 193.553 18.4477C193.556 18.4521 193.558 18.4564 193.561 18.4605C193.563 18.4636 193.566 18.4665 193.568 18.4695C193.57 18.4727 193.573 18.4759 193.576 18.479C193.578 18.4823 193.581 18.4855 193.584 18.4886C193.587 18.4911 193.589 18.4936 193.591 18.4959C193.594 18.4991 193.598 18.5021 193.601 18.5051C193.604 18.5073 193.607 18.5095 193.609 18.5116C193.612 18.5143 193.616 18.5168 193.619 18.5193C193.622 18.5215 193.625 18.5235 193.628 18.5255C193.632 18.5276 193.635 18.5296 193.638 18.5315C193.642 18.5336 193.646 18.5357 193.649 18.5376C193.652 18.5391 193.655 18.5405 193.658 18.5419C193.663 18.5438 193.667 18.5457 193.671 18.5474C193.674 18.5485 193.677 18.5494 193.68 18.5504C193.684 18.552 193.689 18.5535 193.693 18.5548C193.696 18.5557 193.699 18.5564 193.702 18.5571C193.707 18.5581 193.711 18.5592 193.716 18.56C193.72 18.5607 193.723 18.5611 193.727 18.5616C193.731 18.5622 193.735 18.5627 193.739 18.5631C193.743 18.5634 193.748 18.5635 193.752 18.5636C193.755 18.5637 193.757 18.564 193.76 18.564L195.583 18.5502C195.584 18.5502 195.585 18.55 195.586 18.55C195.594 18.5498 195.603 18.5492 195.611 18.5481C195.613 18.5478 195.615 18.5476 195.617 18.5473C195.636 18.5444 195.655 18.5391 195.673 18.5317C195.675 18.5308 195.677 18.5299 195.679 18.529C195.686 18.5257 195.693 18.522 195.7 18.5181C195.702 18.5172 195.703 18.5164 195.705 18.5155C195.721 18.5055 195.737 18.4934 195.751 18.4793C195.752 18.4778 195.754 18.4761 195.755 18.4745C195.76 18.469 195.765 18.4631 195.77 18.457C195.772 18.455 195.773 18.453 195.775 18.451C195.78 18.4432 195.786 18.4352 195.791 18.4266C195.791 18.4264 195.791 18.4262 195.791 18.4261C195.791 18.426 195.791 18.426 195.791 18.4259L202.067 7.19624C202.11 7.12009 202.109 7.02666 202.065 6.95112L201.142 5.35544C201.141 5.35491 201.141 5.35445 201.141 5.35395C201.136 5.34518 201.13 5.33666 201.124 5.32853C201.124 5.32849 201.124 5.32849 201.124 5.32849C201.118 5.32079 201.111 5.31356 201.104 5.3066C201.103 5.30514 201.101 5.30375 201.1 5.30233C201.094 5.29677 201.088 5.29145 201.082 5.28639C201.08 5.28518 201.079 5.2839 201.077 5.28276C201.069 5.27687 201.061 5.27131 201.053 5.26632C201.044 5.2614 201.035 5.25727 201.027 5.25352C201.026 5.25324 201.025 5.25285 201.024 5.25256C200.994 5.24008 200.963 5.23417 200.932 5.23438C200.931 5.23438 200.931 5.23449 200.931 5.23449L188.265 5.32999C188.179 5.33063 188.1 5.37797 188.057 5.45412L187.158 7.06345C187.157 7.06405 187.157 7.0647 187.157 7.0653C187.152 7.07404 187.147 7.08305 187.144 7.09243C187.143 7.09282 187.143 7.09329 187.143 7.09371C187.14 7.10223 187.137 7.11104 187.135 7.11999C187.134 7.12241 187.133 7.1248 187.133 7.12722C187.131 7.13446 187.13 7.14177 187.129 7.14922C187.128 7.15179 187.128 7.15432 187.128 7.15685C187.127 7.16597 187.126 7.17521 187.126 7.18458C187.126 7.18505 187.126 7.18551 187.126 7.18597C187.126 7.18604 187.126 7.18615 187.126 7.18626C187.126 7.19603 187.127 7.20558 187.128 7.21506ZM200.937 5.96981L201.578 7.07735L195.577 17.8149L190.48 9.00869L191.745 8.99914L195.349 15.2242C195.349 15.225 195.35 15.2257 195.35 15.2264C195.353 15.2309 195.355 15.2352 195.359 15.2395C195.36 15.242 195.362 15.2445 195.364 15.2469C195.367 15.2507 195.369 15.2542 195.372 15.2579C195.375 15.2606 195.377 15.2633 195.379 15.2659C195.382 15.2688 195.384 15.2714 195.387 15.2742C195.39 15.2772 195.393 15.2803 195.396 15.2832C195.399 15.2853 195.401 15.2872 195.404 15.2892C195.408 15.2924 195.411 15.2956 195.415 15.2986C195.418 15.3002 195.42 15.3017 195.422 15.3032C195.426 15.3062 195.431 15.3092 195.436 15.3119C195.436 15.3123 195.437 15.3129 195.438 15.3133C195.44 15.3144 195.442 15.3152 195.444 15.3163C195.448 15.3186 195.452 15.3208 195.457 15.3229C195.46 15.3245 195.464 15.3259 195.467 15.3273C195.471 15.3288 195.474 15.3303 195.478 15.3316C195.482 15.333 195.486 15.3343 195.491 15.3355C195.494 15.3365 195.497 15.3374 195.5 15.3382C195.505 15.3393 195.509 15.3402 195.514 15.3411C195.517 15.3416 195.52 15.3422 195.523 15.3426C195.527 15.3433 195.532 15.3438 195.537 15.3442C195.54 15.3445 195.543 15.3447 195.547 15.3448C195.551 15.3451 195.555 15.3451 195.559 15.3451C195.563 15.345 195.567 15.3449 195.57 15.3447C195.574 15.3445 195.578 15.3442 195.582 15.3438C195.586 15.3433 195.59 15.3428 195.594 15.3422C195.598 15.3416 195.601 15.341 195.604 15.3402C195.609 15.3394 195.613 15.3385 195.617 15.3374C195.621 15.3365 195.624 15.3354 195.627 15.3343C195.631 15.3331 195.635 15.3319 195.639 15.3305C195.643 15.329 195.647 15.3274 195.651 15.3257C195.654 15.3243 195.657 15.323 195.66 15.3215C195.665 15.3193 195.67 15.3168 195.674 15.3143C195.676 15.3133 195.677 15.3125 195.679 15.3115C195.68 15.3111 195.681 15.3106 195.681 15.3102C195.686 15.3073 195.691 15.3041 195.695 15.3009C195.697 15.2995 195.699 15.2981 195.701 15.2965C195.706 15.2934 195.709 15.29 195.713 15.2866C195.716 15.2847 195.718 15.2828 195.72 15.2808C195.723 15.2779 195.726 15.2746 195.729 15.2714C195.732 15.2687 195.734 15.2661 195.737 15.2633C195.739 15.2606 195.742 15.2578 195.744 15.255C195.747 15.2514 195.75 15.2478 195.752 15.244C195.754 15.2416 195.755 15.239 195.757 15.2365C195.76 15.2322 195.763 15.2278 195.765 15.2233C195.766 15.2226 195.767 15.2219 195.767 15.2211L200.937 5.96981ZM192.303 8.9949L196.895 8.96028L194.63 13.0142L192.303 8.9949ZM188.408 5.81913L200.517 5.72783L195.553 14.6099L194.912 13.5024L198.421 7.22373C198.442 7.18629 198.453 7.14384 198.453 7.10084C198.452 6.96541 198.343 6.85651 198.209 6.85754L196.611 6.86959C196.478 6.87059 196.37 6.9811 196.371 7.11653C196.372 7.25192 196.481 7.36083 196.615 7.35983L197.795 7.35092L197.17 8.46794L191.882 8.50783C191.881 8.50783 191.881 8.50779 191.881 8.50779L191.88 8.50783L190.197 8.52052L189.557 7.41302L195.649 7.3671C195.782 7.36611 195.89 7.25556 195.888 7.12017C195.887 6.98477 195.778 6.87586 195.645 6.87686L189.135 6.92595L189.134 6.92592C189.134 6.92592 189.134 6.92595 189.134 6.92595L187.784 6.93611L188.408 5.81913ZM188.999 7.41723L195.161 18.0632L193.896 18.0727L187.786 7.42639L188.999 7.41723Z" fill="#D1815E"/>
<path d="M115.911 5.4489H118.576V18.508H115.911V5.4489ZM121.969 5.4489H124.617L129.363 10.2114L134.109 5.4489H136.757V18.508H134.109V9.1168L129.363 13.6871L124.617 9.1168V18.508H121.969V5.4489ZM140.475 5.4489H147.36C148.363 5.4489 149.232 5.55752 149.967 5.77473C150.702 5.99197 151.312 6.30668 151.797 6.71889C152.281 7.1255 152.641 7.62405 152.874 8.21446C153.114 8.80488 153.234 9.47051 153.234 10.2114C153.234 10.9076 153.117 11.551 152.883 12.1414C152.649 12.7318 152.289 13.2443 151.805 13.6787C151.326 14.1076 150.719 14.4447 149.984 14.6897C149.248 14.9292 148.379 15.049 147.377 15.049L143.124 15.0406V18.508H140.475V5.4489ZM147.427 12.7513C147.928 12.7513 148.365 12.6928 148.739 12.5759C149.117 12.4533 149.432 12.2834 149.683 12.0662C149.939 11.8434 150.128 11.576 150.251 11.2641C150.379 10.9466 150.443 10.5957 150.443 10.2114C150.443 9.43711 150.19 8.83553 149.683 8.40664C149.181 7.97216 148.43 7.75491 147.427 7.75491H143.124V12.7513H147.427ZM156.133 5.4489H162.776C163.778 5.4489 164.647 5.55474 165.382 5.76639C166.118 5.97247 166.727 6.27328 167.212 6.66877C167.696 7.06422 168.056 7.54605 168.29 8.11422C168.529 8.68235 168.649 9.32571 168.649 10.0442C168.649 10.5289 168.591 10.9912 168.474 11.4312C168.357 11.8657 168.176 12.2667 167.931 12.6343C167.691 13.002 167.387 13.3306 167.02 13.6203C166.652 13.9043 166.221 14.1411 165.725 14.3304L168.566 18.508H165.324L162.867 14.7984H162.792L158.781 14.79V18.508H156.133V5.4489ZM162.842 12.5007C163.343 12.5007 163.781 12.4422 164.154 12.3252C164.533 12.2082 164.847 12.0439 165.098 11.8322C165.354 11.6206 165.544 11.3644 165.666 11.0636C165.794 10.7572 165.858 10.4174 165.858 10.0442C165.858 9.31455 165.608 8.75197 165.107 8.35649C164.605 7.95544 163.85 7.75491 162.842 7.75491H158.781V12.5007H162.842ZM171.022 11.9409C171.022 10.955 171.203 10.0526 171.565 9.2338C171.927 8.41499 172.434 7.71317 173.085 7.12828C173.743 6.53786 174.528 6.0811 175.442 5.75805C176.361 5.43496 177.378 5.27344 178.491 5.27344C179.6 5.27344 180.614 5.43496 181.533 5.75805C182.452 6.0811 183.237 6.53786 183.889 7.12828C184.546 7.71317 185.056 8.41499 185.418 9.2338C185.78 10.0526 185.961 10.955 185.961 11.9409C185.961 12.9324 185.78 13.8431 185.418 14.673C185.056 15.4974 184.546 16.2076 183.889 16.8036C183.237 17.3996 182.452 17.8647 181.533 18.1989C180.614 18.5275 179.6 18.6919 178.491 18.6919C177.378 18.6919 176.361 18.5275 175.442 18.1989C174.528 17.8647 173.743 17.3996 173.085 16.8036C172.434 16.2076 171.927 15.4974 171.565 14.673C171.203 13.8431 171.022 12.9324 171.022 11.9409ZM173.67 11.9409C173.67 12.6149 173.79 13.222 174.03 13.7623C174.275 14.3026 174.612 14.7649 175.041 15.1493C175.475 15.528 175.985 15.8204 176.57 16.0266C177.16 16.2327 177.801 16.3357 178.491 16.3357C179.182 16.3357 179.82 16.2327 180.405 16.0266C180.995 15.8204 181.505 15.528 181.934 15.1493C182.363 14.7649 182.7 14.3026 182.945 13.7623C183.19 13.222 183.312 12.6149 183.312 11.9409C183.312 11.2669 183.19 10.6625 182.945 10.1278C182.7 9.59307 182.363 9.1419 181.934 8.77425C181.505 8.40105 180.995 8.117 180.405 7.92203C179.82 7.72707 179.182 7.62961 178.491 7.62961C177.801 7.62961 177.16 7.72707 176.57 7.92203C175.985 8.117 175.475 8.40105 175.041 8.77425C174.612 9.1419 174.275 9.59307 174.03 10.1278C173.79 10.6625 173.67 11.2669 173.67 11.9409Z" fill="#D1815E"/>
<path d="M204.194 14.6224C204.668 14.8897 205.147 15.132 205.631 15.3492C206.121 15.5609 206.628 15.742 207.152 15.8924C207.676 16.0372 208.224 16.1486 208.798 16.2266C209.377 16.3045 209.993 16.3435 210.645 16.3435C211.43 16.3435 212.098 16.2934 212.65 16.1931C213.201 16.0873 213.65 15.9453 213.995 15.767C214.346 15.5832 214.599 15.366 214.755 15.1153C214.917 14.8646 214.998 14.5917 214.998 14.2965C214.998 13.8231 214.8 13.4498 214.404 13.1769C214.009 12.8984 213.399 12.7592 212.575 12.7592C212.212 12.7592 211.831 12.7842 211.43 12.8343C211.029 12.8789 210.622 12.9291 210.21 12.9847C209.803 13.0405 209.4 13.0934 208.999 13.1435C208.603 13.188 208.23 13.2103 207.879 13.2103C207.294 13.2103 206.731 13.1351 206.191 12.9847C205.657 12.8343 205.18 12.6087 204.763 12.308C204.35 12.0072 204.022 11.6312 203.776 11.18C203.532 10.7288 203.409 10.2025 203.409 9.60088C203.409 9.2444 203.456 8.89069 203.551 8.5398C203.651 8.18887 203.807 7.85466 204.019 7.53718C204.236 7.21409 204.514 6.9161 204.854 6.64318C205.194 6.36465 205.603 6.12513 206.083 5.9246C206.567 5.72408 207.124 5.56812 207.753 5.45671C208.389 5.33975 209.11 5.28125 209.918 5.28125C210.502 5.28125 211.09 5.31469 211.681 5.38153C212.271 5.44281 212.845 5.53193 213.402 5.6489C213.964 5.76586 214.505 5.90788 215.023 6.07501C215.541 6.23653 216.023 6.41755 216.468 6.61808L215.307 8.75701C214.939 8.59548 214.543 8.44786 214.12 8.31418C213.697 8.17493 213.254 8.05519 212.792 7.95491C212.329 7.85466 211.851 7.77666 211.355 7.72098C210.865 7.6597 210.363 7.62908 209.851 7.62908C209.121 7.62908 208.52 7.68198 208.046 7.78782C207.578 7.89366 207.205 8.03013 206.926 8.19721C206.648 8.35874 206.453 8.54258 206.342 8.74866C206.236 8.94919 206.183 9.14971 206.183 9.35024C206.183 9.74013 206.358 10.0604 206.709 10.3111C207.06 10.5562 207.595 10.6787 208.313 10.6787C208.603 10.6787 208.934 10.6592 209.308 10.6202C209.686 10.5757 210.082 10.5283 210.494 10.4782C210.912 10.428 211.335 10.3835 211.764 10.3445C212.198 10.3 212.619 10.2777 213.026 10.2777C213.794 10.2777 214.474 10.364 215.064 10.5367C215.66 10.7093 216.159 10.9572 216.56 11.2803C216.961 11.5978 217.265 11.9849 217.471 12.4417C217.677 12.8928 217.78 13.3997 217.78 13.9623C217.78 14.7143 217.604 15.3855 217.253 15.9759C216.908 16.5608 216.413 17.0565 215.766 17.4631C215.126 17.8642 214.351 18.1705 213.443 18.3822C212.535 18.5883 211.525 18.6913 210.411 18.6913C209.675 18.6913 208.957 18.644 208.255 18.5493C207.553 18.4602 206.879 18.3321 206.233 18.165C205.592 17.9923 204.98 17.789 204.395 17.555C203.816 17.3155 203.278 17.0537 202.782 16.7696L204.194 14.6224Z" fill="#D1815E"/>
</g>
<path d="M1.13977 11.7C1.13977 10.464 1.41577 9.36 1.96777 8.388C2.53177 7.404 3.29377 6.642 4.25377 6.102C5.22577 5.55 6.31177 5.274 7.51177 5.274C8.91577 5.274 10.1458 5.634 11.2018 6.354C12.2578 7.074 12.9958 8.07 13.4158 9.342H10.5178C10.2298 8.742 9.82177 8.292 9.29377 7.992C8.77777 7.692 8.17777 7.542 7.49377 7.542C6.76177 7.542 6.10777 7.716 5.53177 8.064C4.96777 8.4 4.52377 8.88 4.19977 9.504C3.88777 10.128 3.73177 10.86 3.73177 11.7C3.73177 12.528 3.88777 13.26 4.19977 13.896C4.52377 14.52 4.96777 15.006 5.53177 15.354C6.10777 15.69 6.76177 15.858 7.49377 15.858C8.17777 15.858 8.77777 15.708 9.29377 15.408C9.82177 15.096 10.2298 14.64 10.5178 14.04H13.4158C12.9958 15.324 12.2578 16.326 11.2018 17.046C10.1578 17.754 8.92777 18.108 7.51177 18.108C6.31177 18.108 5.22577 17.838 4.25377 17.298C3.29377 16.746 2.53177 15.984 1.96777 15.012C1.41577 14.04 1.13977 12.936 1.13977 11.7ZM22.0482 18L19.2762 13.104H18.0882V18H15.5682V5.436H20.2842C21.2562 5.436 22.0842 5.61 22.7682 5.958C23.4522 6.294 23.9622 6.756 24.2982 7.344C24.6462 7.92 24.8202 8.568 24.8202 9.288C24.8202 10.116 24.5802 10.866 24.1002 11.538C23.6202 12.198 22.9062 12.654 21.9582 12.906L24.9642 18H22.0482ZM18.0882 11.214H20.1942C20.8782 11.214 21.3882 11.052 21.7242 10.728C22.0602 10.392 22.2282 9.93 22.2282 9.342C22.2282 8.766 22.0602 8.322 21.7242 8.01C21.3882 7.686 20.8782 7.524 20.1942 7.524H18.0882V11.214ZM29.6194 7.47V10.62H33.8494V12.618H29.6194V15.948H34.3894V18H27.0994V5.418H34.3894V7.47H29.6194ZM44.3835 15.606H39.3795L38.5515 18H35.9055L40.4235 5.418H43.3575L47.8755 18H45.2115L44.3835 15.606ZM43.6995 13.59L41.8815 8.334L40.0635 13.59H43.6995ZM58.1143 5.436V7.47H54.7663V18H52.2463V7.47H48.8983V5.436H58.1143ZM62.4729 7.47V10.62H66.7029V12.618H62.4729V15.948H67.2429V18H59.9529V5.418H67.2429V7.47H62.4729ZM73.925 5.436C75.245 5.436 76.403 5.694 77.399 6.21C78.407 6.726 79.181 7.464 79.721 8.424C80.273 9.372 80.549 10.476 80.549 11.736C80.549 12.996 80.273 14.1 79.721 15.048C79.181 15.984 78.407 16.71 77.399 17.226C76.403 17.742 75.245 18 73.925 18H69.533V5.436H73.925ZM73.835 15.858C75.155 15.858 76.175 15.498 76.895 14.778C77.615 14.058 77.975 13.044 77.975 11.736C77.975 10.428 77.615 9.408 76.895 8.676C76.175 7.932 75.155 7.56 73.835 7.56H72.053V15.858H73.835ZM93.8524 11.556C94.5604 11.688 95.1424 12.042 95.5984 12.618C96.0544 13.194 96.2824 13.854 96.2824 14.598C96.2824 15.27 96.1144 15.864 95.7784 16.38C95.4544 16.884 94.9804 17.28 94.3564 17.568C93.7324 17.856 92.9944 18 92.1424 18H86.7244V5.436H91.9084C92.7604 5.436 93.4924 5.574 94.1044 5.85C94.7284 6.126 95.1964 6.51 95.5084 7.002C95.8324 7.494 95.9944 8.052 95.9944 8.676C95.9944 9.408 95.7964 10.02 95.4004 10.512C95.0164 11.004 94.5004 11.352 93.8524 11.556ZM89.2444 10.62H91.5484C92.1484 10.62 92.6104 10.488 92.9344 10.224C93.2584 9.948 93.4204 9.558 93.4204 9.054C93.4204 8.55 93.2584 8.16 92.9344 7.884C92.6104 7.608 92.1484 7.47 91.5484 7.47H89.2444V10.62ZM91.7824 15.948C92.3944 15.948 92.8684 15.804 93.2044 15.516C93.5524 15.228 93.7264 14.82 93.7264 14.292C93.7264 13.752 93.5464 13.332 93.1864 13.032C92.8264 12.72 92.3404 12.564 91.7284 12.564H89.2444V15.948H91.7824ZM108.281 5.436L104.033 13.626V18H101.513V13.626L97.2468 5.436H100.091L102.791 11.178L105.473 5.436H108.281Z" fill="#625E5C"/>
</g>
<defs>
<clipPath id="clip0_1011_53403">
<rect width="104.109" height="13.9743" fill="white" transform="translate(114.392 4.89062)"/>
</clipPath>
</defs>
</svg>
