<svg width="82" height="82" viewBox="0 0 82 82" fill="none" xmlns="http://www.w3.org/2000/svg">
<rect x="4.26514" y="4.26538" width="73.4694" height="73.4694" rx="10" fill="#F6E9D0"/>
<path d="M14.213 12.125H12.1914V14.1164H14.213V12.125Z" fill="#09101D"/>
<path d="M16.2345 12.125H14.213V14.1164H16.2345V12.125Z" fill="#09101D"/>
<path d="M18.2561 12.125H16.2345V14.1164H18.2561V12.125Z" fill="#09101D"/>
<path d="M20.2776 12.125H18.2561V14.1164H20.2776V12.125Z" fill="#09101D"/>
<path d="M22.2992 12.125H20.2776V14.1164H22.2992V12.125Z" fill="#09101D"/>
<path d="M24.3207 12.125H22.2992V14.1164H24.3207V12.125Z" fill="#09101D"/>
<path d="M26.3423 12.125H24.3207V14.1164H26.3423V12.125Z" fill="#09101D"/>
<path d="M30.3854 12.125H28.3638V14.1164H30.3854V12.125Z" fill="#09101D"/>
<path d="M32.4069 12.125H30.3854V14.1164H32.4069V12.125Z" fill="#09101D"/>
<path d="M36.45 12.125H34.4285V14.1164H36.45V12.125Z" fill="#09101D"/>
<path d="M38.4716 12.125H36.45V14.1164H38.4716V12.125Z" fill="#09101D"/>
<path d="M46.5578 12.125H44.5362V14.1164L46.5578 14.1164V12.125Z" fill="#09101D"/>
<path d="M48.5793 12.125H46.5578V14.1164H48.5793V12.125Z" fill="#09101D"/>
<path d="M50.6009 12.125H48.5793V14.1164H50.6009V12.125Z" fill="#09101D"/>
<path d="M52.6224 12.125H50.6009V14.1164H52.6224V12.125Z" fill="#09101D"/>
<path d="M54.644 12.125H52.6224V14.1164H54.644V12.125Z" fill="#09101D"/>
<path d="M58.6871 12.125H56.6655V14.1164H58.6871V12.125Z" fill="#09101D"/>
<path d="M60.7086 12.125H58.6871V14.1164H60.7086V12.125Z" fill="#09101D"/>
<path d="M62.7302 12.125H60.7086V14.1164H62.7302V12.125Z" fill="#09101D"/>
<path d="M64.7518 12.125H62.7302V14.1164H64.7518V12.125Z" fill="#09101D"/>
<path d="M66.7733 12.125H64.7518V14.1164H66.7733V12.125Z" fill="#09101D"/>
<path d="M68.7949 12.125H66.7733V14.1164H68.7949V12.125Z" fill="#09101D"/>
<path d="M70.8164 12.125H68.7949V14.1164H70.8164V12.125Z" fill="#09101D"/>
<path d="M14.213 14.1164H12.1914V16.1078H14.213V14.1164Z" fill="#09101D"/>
<path d="M26.3423 14.1164H24.3207V16.1078H26.3423V14.1164Z" fill="#09101D"/>
<path d="M34.4285 14.1164H32.4069V16.1078H34.4285V14.1164Z" fill="#09101D"/>
<path d="M38.4716 14.1164H36.45V16.1078H38.4716V14.1164Z" fill="#09101D"/>
<path d="M40.4931 14.1164H38.4716V16.1078H40.4931V14.1164Z" fill="#09101D"/>
<path d="M50.6009 14.1164H48.5793V16.1078H50.6009V14.1164Z" fill="#09101D"/>
<path d="M52.6224 14.1164H50.6009V16.1078H52.6224V14.1164Z" fill="#09101D"/>
<path d="M54.644 14.1164H52.6224V16.1078H54.644V14.1164Z" fill="#09101D"/>
<path d="M58.6871 14.1164H56.6655V16.1078H58.6871V14.1164Z" fill="#09101D"/>
<path d="M70.8164 14.1164H68.7949V16.1078H70.8164V14.1164Z" fill="#09101D"/>
<path d="M14.213 16.1078H12.1914V18.0991H14.213V16.1078Z" fill="#09101D"/>
<path d="M18.2561 16.1078H16.2345V18.0991H18.2561V16.1078Z" fill="#09101D"/>
<path d="M20.2776 16.1078H18.2561V18.0991H20.2776V16.1078Z" fill="#09101D"/>
<path d="M22.2992 16.1078H20.2776V18.0991H22.2992V16.1078Z" fill="#09101D"/>
<path d="M26.3423 16.1078H24.3207V18.0991H26.3423V16.1078Z" fill="#09101D"/>
<path d="M32.4069 16.1078H30.3854V18.0991H32.4069V16.1078Z" fill="#09101D"/>
<path d="M34.4285 16.1078H32.4069V18.0991H34.4285V16.1078Z" fill="#09101D"/>
<path d="M40.4931 16.1078H38.4716V18.0991H40.4931V16.1078Z" fill="#09101D"/>
<path d="M42.5147 16.1078H40.4931V18.0991H42.5147V16.1078Z" fill="#09101D"/>
<path d="M44.5362 16.1078H42.5147V18.0991H44.5362V16.1078Z" fill="#09101D"/>
<path d="M48.5793 16.1078H46.5578V18.0991H48.5793V16.1078Z" fill="#09101D"/>
<path d="M52.6224 16.1078H50.6009V18.0991H52.6224V16.1078Z" fill="#09101D"/>
<path d="M54.644 16.1078H52.6224V18.0991H54.644V16.1078Z" fill="#09101D"/>
<path d="M58.6871 16.1078H56.6655V18.0991H58.6871V16.1078Z" fill="#09101D"/>
<path d="M62.7302 16.1078H60.7086V18.0991H62.7302V16.1078Z" fill="#09101D"/>
<path d="M64.7518 16.1078H62.7302V18.0991H64.7518V16.1078Z" fill="#09101D"/>
<path d="M66.7733 16.1078H64.7518V18.0991H66.7733V16.1078Z" fill="#09101D"/>
<path d="M70.8164 16.1078H68.7949V18.0991H70.8164V16.1078Z" fill="#09101D"/>
<path d="M14.213 18.0991H12.1914V20.0905H14.213V18.0991Z" fill="#09101D"/>
<path d="M18.2561 18.0991H16.2345V20.0905H18.2561V18.0991Z" fill="#09101D"/>
<path d="M20.2776 18.0991H18.2561V20.0905H20.2776V18.0991Z" fill="#09101D"/>
<path d="M22.2992 18.0991H20.2776V20.0905H22.2992V18.0991Z" fill="#09101D"/>
<path d="M26.3423 18.0991H24.3207V20.0905H26.3423V18.0991Z" fill="#09101D"/>
<path d="M30.3854 18.0991H28.3638V20.0905H30.3854V18.0991Z" fill="#09101D"/>
<path d="M32.4069 18.0991H30.3854V20.0905H32.4069V18.0991Z" fill="#09101D"/>
<path d="M46.5578 18.0991H44.5362V20.0905H46.5578V18.0991Z" fill="#09101D"/>
<path d="M54.644 18.0991H52.6224V20.0905H54.644V18.0991Z" fill="#09101D"/>
<path d="M58.6871 18.0991H56.6655V20.0905H58.6871V18.0991Z" fill="#09101D"/>
<path d="M62.7302 18.0991H60.7086V20.0905H62.7302V18.0991Z" fill="#09101D"/>
<path d="M64.7518 18.0991H62.7302V20.0905H64.7518V18.0991Z" fill="#09101D"/>
<path d="M66.7733 18.0991H64.7518V20.0905H66.7733V18.0991Z" fill="#09101D"/>
<path d="M70.8164 18.0991H68.7949V20.0905H70.8164V18.0991Z" fill="#09101D"/>
<path d="M14.213 20.0905H12.1914V22.0819H14.213V20.0905Z" fill="#09101D"/>
<path d="M18.2561 20.0905H16.2345V22.0819H18.2561V20.0905Z" fill="#09101D"/>
<path d="M20.2776 20.0905H18.2561V22.0819H20.2776V20.0905Z" fill="#09101D"/>
<path d="M22.2992 20.0905H20.2776V22.0819H22.2992V20.0905Z" fill="#09101D"/>
<path d="M26.3423 20.0905H24.3207V22.0819H26.3423V20.0905Z" fill="#09101D"/>
<path d="M30.3854 20.0905H28.3638V22.0819H30.3854V20.0905Z" fill="#09101D"/>
<path d="M32.4069 20.0905H30.3854V22.0819H32.4069V20.0905Z" fill="#09101D"/>
<path d="M36.45 20.0905H34.4285V22.0819H36.45V20.0905Z" fill="#09101D"/>
<path d="M38.4716 20.0905H36.45V22.0819H38.4716V20.0905Z" fill="#09101D"/>
<path d="M40.4931 20.0905H38.4716V22.0819H40.4931V20.0905Z" fill="#09101D"/>
<path d="M42.5147 20.0905H40.4931V22.0819H42.5147V20.0905Z" fill="#09101D"/>
<path d="M44.5362 20.0905H42.5147V22.0819H44.5362V20.0905Z" fill="#09101D"/>
<path d="M46.5578 20.0905H44.5362V22.0819H46.5578V20.0905Z" fill="#09101D"/>
<path d="M48.5793 20.0905H46.5578V22.0819H48.5793V20.0905Z" fill="#09101D"/>
<path d="M50.6009 20.0905H48.5793V22.0819H50.6009V20.0905Z" fill="#09101D"/>
<path d="M52.6224 20.0905H50.6009V22.0819H52.6224V20.0905Z" fill="#09101D"/>
<path d="M54.644 20.0905H52.6224V22.0819H54.644V20.0905Z" fill="#09101D"/>
<path d="M58.6871 20.0905H56.6655V22.0819H58.6871V20.0905Z" fill="#09101D"/>
<path d="M62.7302 20.0905H60.7086V22.0819H62.7302V20.0905Z" fill="#09101D"/>
<path d="M64.7518 20.0905H62.7302V22.0819H64.7518V20.0905Z" fill="#09101D"/>
<path d="M66.7733 20.0905H64.7518V22.0819H66.7733V20.0905Z" fill="#09101D"/>
<path d="M70.8164 20.0905H68.7949V22.0819H70.8164V20.0905Z" fill="#09101D"/>
<path d="M14.213 22.0819H12.1914V24.0733H14.213V22.0819Z" fill="#09101D"/>
<path d="M26.3423 22.0819H24.3207V24.0733H26.3423V22.0819Z" fill="#09101D"/>
<path d="M30.3854 22.0819H28.3638V24.0733H30.3854V22.0819Z" fill="#09101D"/>
<path d="M32.4069 22.0819H30.3854V24.0733H32.4069V22.0819Z" fill="#09101D"/>
<path d="M34.4285 22.0819H32.4069V24.0733H34.4285V22.0819Z" fill="#09101D"/>
<path d="M38.4716 22.0819H36.45V24.0733H38.4716V22.0819Z" fill="#09101D"/>
<path d="M40.4931 22.0819H38.4716V24.0733H40.4931V22.0819Z" fill="#09101D"/>
<path d="M46.5578 22.0819H44.5362V24.0733H46.5578V22.0819Z" fill="#09101D"/>
<path d="M48.5793 22.0819H46.5578V24.0733H48.5793V22.0819Z" fill="#09101D"/>
<path d="M50.6009 22.0819H48.5793V24.0733H50.6009V22.0819Z" fill="#09101D"/>
<path d="M52.6224 22.0819H50.6009V24.0733H52.6224V22.0819Z" fill="#09101D"/>
<path d="M54.644 22.0819H52.6224V24.0733H54.644V22.0819Z" fill="#09101D"/>
<path d="M58.6871 22.0819H56.6655V24.0733H58.6871V22.0819Z" fill="#09101D"/>
<path d="M70.8164 22.0819H68.7949V24.0733H70.8164V22.0819Z" fill="#09101D"/>
<path d="M14.213 24.0733H12.1914V26.0647H14.213V24.0733Z" fill="#09101D"/>
<path d="M16.2345 24.0733H14.213V26.0647H16.2345V24.0733Z" fill="#09101D"/>
<path d="M18.2561 24.0733H16.2345V26.0647H18.2561V24.0733Z" fill="#09101D"/>
<path d="M20.2776 24.0733H18.2561V26.0647H20.2776V24.0733Z" fill="#09101D"/>
<path d="M22.2992 24.0733H20.2776V26.0647H22.2992V24.0733Z" fill="#09101D"/>
<path d="M24.3207 24.0733H22.2992V26.0647H24.3207V24.0733Z" fill="#09101D"/>
<path d="M26.3423 24.0733H24.3207V26.0647H26.3423V24.0733Z" fill="#09101D"/>
<path d="M30.3854 24.0733H28.3638V26.0647H30.3854V24.0733Z" fill="#09101D"/>
<path d="M34.4285 24.0733H32.4069V26.0647H34.4285V24.0733Z" fill="#09101D"/>
<path d="M38.4716 24.0733H36.45V26.0647H38.4716V24.0733Z" fill="#09101D"/>
<path d="M42.5147 24.0733H40.4931V26.0647H42.5147V24.0733Z" fill="#09101D"/>
<path d="M46.5578 24.0733H44.5362V26.0647H46.5578V24.0733Z" fill="#09101D"/>
<path d="M50.6009 24.0733H48.5793V26.0647H50.6009V24.0733Z" fill="#09101D"/>
<path d="M54.644 24.0733H52.6224V26.0647H54.644V24.0733Z" fill="#09101D"/>
<path d="M58.6871 24.0733H56.6655V26.0647H58.6871V24.0733Z" fill="#09101D"/>
<path d="M60.7086 24.0733H58.6871V26.0647H60.7086V24.0733Z" fill="#09101D"/>
<path d="M62.7302 24.0733H60.7086V26.0647H62.7302V24.0733Z" fill="#09101D"/>
<path d="M64.7518 24.0733H62.7302V26.0647H64.7518V24.0733Z" fill="#09101D"/>
<path d="M66.7733 24.0733H64.7518V26.0647H66.7733V24.0733Z" fill="#09101D"/>
<path d="M68.7949 24.0733H66.7733V26.0647H68.7949V24.0733Z" fill="#09101D"/>
<path d="M70.8164 24.0733H68.7949V26.0647H70.8164V24.0733Z" fill="#09101D"/>
<path d="M30.3854 26.0647H28.3638V28.056H30.3854V26.0647Z" fill="#09101D"/>
<path d="M40.4931 26.0647H38.4716V28.056H40.4931V26.0647Z" fill="#09101D"/>
<path d="M42.5147 26.0647H40.4931V28.056H42.5147V26.0647Z" fill="#09101D"/>
<path d="M44.5362 26.0647H42.5147V28.056H44.5362V26.0647Z" fill="#09101D"/>
<path d="M52.6224 26.0647H50.6009V28.056H52.6224V26.0647Z" fill="#09101D"/>
<path d="M14.213 28.056H12.1914V30.0474H14.213V28.056Z" fill="#09101D"/>
<path d="M16.2345 28.056H14.213V30.0474H16.2345V28.056Z" fill="#09101D"/>
<path d="M18.2561 28.056H16.2345V30.0474H18.2561V28.056Z" fill="#09101D"/>
<path d="M22.2992 28.056H20.2776V30.0474H22.2992V28.056Z" fill="#09101D"/>
<path d="M26.3423 28.056H24.3207V30.0474H26.3423V28.056Z" fill="#09101D"/>
<path d="M30.3854 28.056H28.3638V30.0474H30.3854V28.056Z" fill="#09101D"/>
<path d="M32.4069 28.056H30.3854V30.0474H32.4069V28.056Z" fill="#09101D"/>
<path d="M38.4716 28.056H36.45V30.0474H38.4716V28.056Z" fill="#09101D"/>
<path d="M46.5578 28.056H44.5362V30.0474H46.5578V28.056Z" fill="#09101D"/>
<path d="M52.6224 28.056H50.6009V30.0474H52.6224V28.056Z" fill="#09101D"/>
<path d="M56.6655 28.056H54.644V30.0474H56.6655V28.056Z" fill="#09101D"/>
<path d="M58.6871 28.056H56.6655V30.0474H58.6871V28.056Z" fill="#09101D"/>
<path d="M60.7086 28.056H58.6871V30.0474H60.7086V28.056Z" fill="#09101D"/>
<path d="M62.7302 28.056H60.7086V30.0474H62.7302V28.056Z" fill="#09101D"/>
<path d="M64.7518 28.056H62.7302V30.0474H64.7518V28.056Z" fill="#09101D"/>
<path d="M70.8164 28.056H68.7949V30.0474H70.8164V28.056Z" fill="#09101D"/>
<path d="M14.213 30.0474H12.1914V32.0388H14.213V30.0474Z" fill="#09101D"/>
<path d="M16.2345 30.0474H14.213V32.0388H16.2345V30.0474Z" fill="#09101D"/>
<path d="M28.3638 30.0474H26.3423V32.0388H28.3638V30.0474Z" fill="#09101D"/>
<path d="M34.4285 30.0474H32.4069V32.0388H34.4285V30.0474Z" fill="#09101D"/>
<path d="M36.45 30.0474H34.4285V32.0388H36.45V30.0474Z" fill="#09101D"/>
<path d="M38.4716 30.0474H36.45V32.0388H38.4716V30.0474Z" fill="#09101D"/>
<path d="M46.5578 30.0474H44.5362V32.0388H46.5578V30.0474Z" fill="#09101D"/>
<path d="M54.644 30.0474H52.6224V32.0388H54.644V30.0474Z" fill="#09101D"/>
<path d="M58.6871 30.0474H56.6655V32.0388H58.6871V30.0474Z" fill="#09101D"/>
<path d="M60.7086 30.0474H58.6871V32.0388H60.7086V30.0474Z" fill="#09101D"/>
<path d="M66.7733 30.0474H64.7518V32.0388H66.7733V30.0474Z" fill="#09101D"/>
<path d="M70.8164 30.0474H68.7949V32.0388H70.8164V30.0474Z" fill="#09101D"/>
<path d="M16.2345 32.0388H14.213V34.0302H16.2345V32.0388Z" fill="#09101D"/>
<path d="M18.2561 32.0388H16.2345V34.0302H18.2561V32.0388Z" fill="#09101D"/>
<path d="M22.2992 32.0388H20.2776V34.0302H22.2992V32.0388Z" fill="#09101D"/>
<path d="M26.3423 32.0388H24.3207V34.0302H26.3423V32.0388Z" fill="#09101D"/>
<path d="M28.3638 32.0388H26.3423V34.0302H28.3638V32.0388Z" fill="#09101D"/>
<path d="M30.3854 32.0388H28.3638V34.0302H30.3854V32.0388Z" fill="#09101D"/>
<path d="M36.45 32.0388H34.4285V34.0302H36.45V32.0388Z" fill="#09101D"/>
<path d="M40.4931 32.0388H38.4716V34.0302H40.4931V32.0388Z" fill="#09101D"/>
<path d="M58.6871 32.0388H56.6655V34.0302H58.6871V32.0388Z" fill="#09101D"/>
<path d="M64.7518 32.0388H62.7302V34.0302H64.7518V32.0388Z" fill="#09101D"/>
<path d="M66.7733 32.0388H64.7518V34.0302H66.7733V32.0388Z" fill="#09101D"/>
<path d="M70.8164 32.0388H68.7949V34.0302H70.8164V32.0388Z" fill="#09101D"/>
<path d="M14.213 34.0302H12.1914V36.0215H14.213V34.0302Z" fill="#09101D"/>
<path d="M22.2992 34.0302H20.2776V36.0215H22.2992V34.0302Z" fill="#09101D"/>
<path d="M28.3638 34.0302H26.3423V36.0215H28.3638V34.0302Z" fill="#09101D"/>
<path d="M38.4716 34.0302H36.45V36.0215H38.4716V34.0302Z" fill="#09101D"/>
<path d="M40.4931 34.0302H38.4716V36.0215H40.4931V34.0302Z" fill="#09101D"/>
<path d="M50.6009 34.0302H48.5793V36.0215H50.6009V34.0302Z" fill="#09101D"/>
<path d="M52.6224 34.0302H50.6009V36.0215H52.6224V34.0302Z" fill="#09101D"/>
<path d="M54.644 34.0302H52.6224V36.0215H54.644V34.0302Z" fill="#09101D"/>
<path d="M68.7949 34.0302H66.7733V36.0215H68.7949V34.0302Z" fill="#09101D"/>
<path d="M70.8164 34.0302H68.7949V36.0215H70.8164V34.0302Z" fill="#09101D"/>
<path d="M18.2561 36.0215H16.2345V38.0129H18.2561V36.0215Z" fill="#09101D"/>
<path d="M20.2776 36.0215H18.2561V38.0129H20.2776V36.0215Z" fill="#09101D"/>
<path d="M26.3423 36.0215H24.3207V38.0129H26.3423V36.0215Z" fill="#09101D"/>
<path d="M42.5147 36.0215H40.4931V38.0129H42.5147V36.0215Z" fill="#09101D"/>
<path d="M44.5362 36.0215H42.5147V38.0129H44.5362V36.0215Z" fill="#09101D"/>
<path d="M46.5578 36.0215H44.5362V38.0129H46.5578V36.0215Z" fill="#09101D"/>
<path d="M50.6009 36.0215H48.5793V38.0129H50.6009V36.0215Z" fill="#09101D"/>
<path d="M52.6224 36.0215H50.6009V38.0129H52.6224V36.0215Z" fill="#09101D"/>
<path d="M54.644 36.0215H52.6224V38.0129H54.644V36.0215Z" fill="#09101D"/>
<path d="M60.7086 36.0215H58.6871V38.0129H60.7086V36.0215Z" fill="#09101D"/>
<path d="M64.7518 36.0215H62.7302V38.0129H64.7518V36.0215Z" fill="#09101D"/>
<path d="M66.7733 36.0215H64.7518V38.0129H66.7733V36.0215Z" fill="#09101D"/>
<path d="M68.7949 36.0215H66.7733V38.0129H68.7949V36.0215Z" fill="#09101D"/>
<path d="M14.213 38.0129H12.1914V40.0043H14.213V38.0129Z" fill="#09101D"/>
<path d="M16.2345 38.0129H14.213V40.0043H16.2345V38.0129Z" fill="#09101D"/>
<path d="M18.2561 38.0129H16.2345V40.0043H18.2561V38.0129Z" fill="#09101D"/>
<path d="M22.2992 38.0129H20.2776V40.0043H22.2992V38.0129Z" fill="#09101D"/>
<path d="M24.3207 38.0129H22.2992V40.0043H24.3207V38.0129Z" fill="#09101D"/>
<path d="M30.3854 38.0129H28.3638V40.0043H30.3854V38.0129Z" fill="#09101D"/>
<path d="M38.4716 38.0129H36.45V40.0043H38.4716V38.0129Z" fill="#09101D"/>
<path d="M44.5362 38.0129H42.5147V40.0043H44.5362V38.0129Z" fill="#09101D"/>
<path d="M50.6009 38.0129H48.5793V40.0043H50.6009V38.0129Z" fill="#09101D"/>
<path d="M52.6224 38.0129H50.6009V40.0043H52.6224V38.0129Z" fill="#09101D"/>
<path d="M54.644 38.0129H52.6224V40.0043H54.644V38.0129Z" fill="#09101D"/>
<path d="M56.6655 38.0129H54.644V40.0043H56.6655V38.0129Z" fill="#09101D"/>
<path d="M58.6871 38.0129H56.6655V40.0043H58.6871V38.0129Z" fill="#09101D"/>
<path d="M60.7086 38.0129H58.6871V40.0043H60.7086V38.0129Z" fill="#09101D"/>
<path d="M62.7302 38.0129H60.7086V40.0043H62.7302V38.0129Z" fill="#09101D"/>
<path d="M66.7733 38.0129H64.7518V40.0043H66.7733V38.0129Z" fill="#09101D"/>
<path d="M70.8164 38.0129H68.7949V40.0043H70.8164V38.0129Z" fill="#09101D"/>
<path d="M14.213 40.0043H12.1914V41.9957H14.213V40.0043Z" fill="#09101D"/>
<path d="M16.2345 40.0043H14.213V41.9957H16.2345V40.0043Z" fill="#09101D"/>
<path d="M18.2561 40.0043H16.2345V41.9957H18.2561V40.0043Z" fill="#09101D"/>
<path d="M20.2776 40.0043H18.2561V41.9957H20.2776V40.0043Z" fill="#09101D"/>
<path d="M24.3207 40.0043H22.2992V41.9957H24.3207V40.0043Z" fill="#09101D"/>
<path d="M26.3423 40.0043H24.3207V41.9957H26.3423V40.0043Z" fill="#09101D"/>
<path d="M28.3638 40.0043H26.3423V41.9957H28.3638V40.0043Z" fill="#09101D"/>
<path d="M30.3854 40.0043H28.3638V41.9957H30.3854V40.0043Z" fill="#09101D"/>
<path d="M32.4069 40.0043H30.3854V41.9957H32.4069V40.0043Z" fill="#09101D"/>
<path d="M34.4285 40.0043H32.4069V41.9957H34.4285V40.0043Z" fill="#09101D"/>
<path d="M36.45 40.0043H34.4285V41.9957H36.45V40.0043Z" fill="#09101D"/>
<path d="M38.4716 40.0043H36.45V41.9957H38.4716V40.0043Z" fill="#09101D"/>
<path d="M42.5147 40.0043H40.4931V41.9957H42.5147V40.0043Z" fill="#09101D"/>
<path d="M44.5362 40.0043H42.5147V41.9957H44.5362V40.0043Z" fill="#09101D"/>
<path d="M50.6009 40.0043H48.5793V41.9957H50.6009V40.0043Z" fill="#09101D"/>
<path d="M64.7518 40.0043H62.7302V41.9957H64.7518V40.0043Z" fill="#09101D"/>
<path d="M70.8164 40.0043H68.7949V41.9957H70.8164V40.0043Z" fill="#09101D"/>
<path d="M14.213 41.9957H12.1914V43.9871H14.213V41.9957Z" fill="#09101D"/>
<path d="M16.2345 41.9957H14.213V43.9871H16.2345V41.9957Z" fill="#09101D"/>
<path d="M20.2776 41.9957H18.2561V43.9871H20.2776V41.9957Z" fill="#09101D"/>
<path d="M22.2992 41.9957H20.2776V43.9871H22.2992V41.9957Z" fill="#09101D"/>
<path d="M30.3854 41.9957H28.3638V43.9871H30.3854V41.9957Z" fill="#09101D"/>
<path d="M36.45 41.9957H34.4285V43.9871H36.45V41.9957Z" fill="#09101D"/>
<path d="M42.5147 41.9957H40.4931V43.9871H42.5147V41.9957Z" fill="#09101D"/>
<path d="M46.5578 41.9957H44.5362V43.9871H46.5578V41.9957Z" fill="#09101D"/>
<path d="M52.6224 41.9957H50.6009V43.9871H52.6224V41.9957Z" fill="#09101D"/>
<path d="M58.6871 41.9957H56.6655V43.9871H58.6871V41.9957Z" fill="#09101D"/>
<path d="M64.7518 41.9957H62.7302V43.9871H64.7518V41.9957Z" fill="#09101D"/>
<path d="M66.7733 41.9957H64.7518V43.9871H66.7733V41.9957Z" fill="#09101D"/>
<path d="M70.8164 41.9957H68.7949V43.9871H70.8164V41.9957Z" fill="#09101D"/>
<path d="M26.3423 43.9871H24.3207V45.9784H26.3423V43.9871Z" fill="#09101D"/>
<path d="M30.3854 43.9871H28.3638V45.9784H30.3854V43.9871Z" fill="#09101D"/>
<path d="M44.5362 43.9871H42.5147V45.9784H44.5362V43.9871Z" fill="#09101D"/>
<path d="M50.6009 43.9871H48.5793V45.9784H50.6009V43.9871Z" fill="#09101D"/>
<path d="M52.6224 43.9871H50.6009V45.9784H52.6224V43.9871Z" fill="#09101D"/>
<path d="M54.644 43.9871H52.6224V45.9784H54.644V43.9871Z" fill="#09101D"/>
<path d="M56.6655 43.9871H54.644V45.9784H56.6655V43.9871Z" fill="#09101D"/>
<path d="M60.7086 43.9871H58.6871V45.9784H60.7086V43.9871Z" fill="#09101D"/>
<path d="M62.7302 43.9871H60.7086V45.9784H62.7302V43.9871Z" fill="#09101D"/>
<path d="M64.7518 43.9871H62.7302V45.9784H64.7518V43.9871Z" fill="#09101D"/>
<path d="M66.7733 43.9871H64.7518V45.9784H66.7733V43.9871Z" fill="#09101D"/>
<path d="M70.8164 43.9871H68.7949V45.9784H70.8164V43.9871Z" fill="#09101D"/>
<path d="M14.213 45.9784H12.1914V47.9698H14.213V45.9784Z" fill="#09101D"/>
<path d="M20.2776 45.9784H18.2561V47.9698H20.2776V45.9784Z" fill="#09101D"/>
<path d="M22.2992 45.9784H20.2776V47.9698H22.2992V45.9784Z" fill="#09101D"/>
<path d="M24.3207 45.9784H22.2992V47.9698H24.3207V45.9784Z" fill="#09101D"/>
<path d="M30.3854 45.9784H28.3638V47.9698H30.3854V45.9784Z" fill="#09101D"/>
<path d="M32.4069 45.9784H30.3854V47.9698H32.4069V45.9784Z" fill="#09101D"/>
<path d="M34.4285 45.9784H32.4069V47.9698H34.4285V45.9784Z" fill="#09101D"/>
<path d="M36.45 45.9784H34.4285V47.9698H36.45V45.9784Z" fill="#09101D"/>
<path d="M46.5578 45.9784H44.5362V47.9698H46.5578V45.9784Z" fill="#09101D"/>
<path d="M48.5793 45.9784H46.5578V47.9698H48.5793V45.9784Z" fill="#09101D"/>
<path d="M54.644 45.9784H52.6224V47.9698H54.644V45.9784Z" fill="#09101D"/>
<path d="M56.6655 45.9784H54.644V47.9698H56.6655V45.9784Z" fill="#09101D"/>
<path d="M58.6871 45.9784H56.6655V47.9698H58.6871V45.9784Z" fill="#09101D"/>
<path d="M60.7086 45.9784H58.6871V47.9698H60.7086V45.9784Z" fill="#09101D"/>
<path d="M64.7518 45.9784H62.7302V47.9698H64.7518V45.9784Z" fill="#09101D"/>
<path d="M14.213 47.9698H12.1914V49.9612H14.213V47.9698Z" fill="#09101D"/>
<path d="M18.2561 47.9698H16.2345V49.9612H18.2561V47.9698Z" fill="#09101D"/>
<path d="M22.2992 47.9698H20.2776V49.9612H22.2992V47.9698Z" fill="#09101D"/>
<path d="M24.3207 47.9698H22.2992V49.9612H24.3207V47.9698Z" fill="#09101D"/>
<path d="M26.3423 47.9698H24.3207V49.9612H26.3423V47.9698Z" fill="#09101D"/>
<path d="M32.4069 47.9698H30.3854V49.9612H32.4069V47.9698Z" fill="#09101D"/>
<path d="M38.4716 47.9698H36.45V49.9612H38.4716V47.9698Z" fill="#09101D"/>
<path d="M40.4931 47.9698H38.4716V49.9612H40.4931V47.9698Z" fill="#09101D"/>
<path d="M42.5147 47.9698H40.4931V49.9612H42.5147V47.9698Z" fill="#09101D"/>
<path d="M44.5362 47.9698H42.5147V49.9612H44.5362V47.9698Z" fill="#09101D"/>
<path d="M50.6009 47.9698H48.5793V49.9612H50.6009V47.9698Z" fill="#09101D"/>
<path d="M56.6655 47.9698H54.644V49.9612H56.6655V47.9698Z" fill="#09101D"/>
<path d="M64.7518 47.9698H62.7302V49.9612H64.7518V47.9698Z" fill="#09101D"/>
<path d="M66.7733 47.9698H64.7518V49.9612H66.7733V47.9698Z" fill="#09101D"/>
<path d="M16.2345 49.9612H14.213V51.9526H16.2345V49.9612Z" fill="#09101D"/>
<path d="M18.2561 49.9612H16.2345V51.9526H18.2561V49.9612Z" fill="#09101D"/>
<path d="M28.3638 49.9612H26.3423V51.9526H28.3638V49.9612Z" fill="#09101D"/>
<path d="M30.3854 49.9612H28.3638V51.9526H30.3854V49.9612Z" fill="#09101D"/>
<path d="M32.4069 49.9612H30.3854V51.9526H32.4069V49.9612Z" fill="#09101D"/>
<path d="M36.45 49.9612H34.4285V51.9526H36.45V49.9612Z" fill="#09101D"/>
<path d="M42.5147 49.9612H40.4931V51.9526H42.5147V49.9612Z" fill="#09101D"/>
<path d="M44.5362 49.9612H42.5147V51.9526H44.5362V49.9612Z" fill="#09101D"/>
<path d="M48.5793 49.9612H46.5578V51.9526H48.5793V49.9612Z" fill="#09101D"/>
<path d="M50.6009 49.9612H48.5793V51.9526H50.6009V49.9612Z" fill="#09101D"/>
<path d="M54.644 49.9612H52.6224V51.9526H54.644V49.9612Z" fill="#09101D"/>
<path d="M56.6655 49.9612H54.644V51.9526H56.6655V49.9612Z" fill="#09101D"/>
<path d="M58.6871 49.9612H56.6655V51.9526H58.6871V49.9612Z" fill="#09101D"/>
<path d="M62.7302 49.9612H60.7086V51.9526H62.7302V49.9612Z" fill="#09101D"/>
<path d="M64.7518 49.9612H62.7302V51.9526H64.7518V49.9612Z" fill="#09101D"/>
<path d="M66.7733 49.9612H64.7518V51.9526H66.7733V49.9612Z" fill="#09101D"/>
<path d="M68.7949 49.9612H66.7733V51.9526H68.7949V49.9612Z" fill="#09101D"/>
<path d="M20.2776 51.9526H18.2561V53.944H20.2776V51.9526Z" fill="#09101D"/>
<path d="M26.3423 51.9526H24.3207V53.944H26.3423V51.9526Z" fill="#09101D"/>
<path d="M28.3638 51.9526H26.3423V53.944H28.3638V51.9526Z" fill="#09101D"/>
<path d="M32.4069 51.9526H30.3854V53.944H32.4069V51.9526Z" fill="#09101D"/>
<path d="M34.4285 51.9526H32.4069V53.944H34.4285V51.9526Z" fill="#09101D"/>
<path d="M40.4931 51.9526H38.4716V53.944H40.4931V51.9526Z" fill="#09101D"/>
<path d="M44.5362 51.9526H42.5147V53.944H44.5362V51.9526Z" fill="#09101D"/>
<path d="M50.6009 51.9526H48.5793V53.944H50.6009V51.9526Z" fill="#09101D"/>
<path d="M52.6224 51.9526H50.6009V53.944H52.6224V51.9526Z" fill="#09101D"/>
<path d="M54.644 51.9526H52.6224V53.944H54.644V51.9526Z" fill="#09101D"/>
<path d="M56.6655 51.9526H54.644V53.944H56.6655V51.9526Z" fill="#09101D"/>
<path d="M58.6871 51.9526H56.6655V53.944H58.6871V51.9526Z" fill="#09101D"/>
<path d="M60.7086 51.9526H58.6871V53.944H60.7086V51.9526Z" fill="#09101D"/>
<path d="M62.7302 51.9526H60.7086V53.944H62.7302V51.9526Z" fill="#09101D"/>
<path d="M64.7518 51.9526H62.7302V53.944H64.7518V51.9526Z" fill="#09101D"/>
<path d="M70.8164 51.9526H68.7949V53.944H70.8164V51.9526Z" fill="#09101D"/>
<path d="M30.3854 53.944H28.3638V55.9353H30.3854V53.944Z" fill="#09101D"/>
<path d="M32.4069 53.944H30.3854V55.9353H32.4069V53.944Z" fill="#09101D"/>
<path d="M34.4285 53.944H32.4069V55.9353H34.4285V53.944Z" fill="#09101D"/>
<path d="M40.4931 53.944H38.4716V55.9353H40.4931V53.944Z" fill="#09101D"/>
<path d="M46.5578 53.944H44.5362V55.9353H46.5578V53.944Z" fill="#09101D"/>
<path d="M50.6009 53.944H48.5793V55.9353H50.6009V53.944Z" fill="#09101D"/>
<path d="M54.644 53.944H52.6224V55.9353H54.644V53.944Z" fill="#09101D"/>
<path d="M62.7302 53.944H60.7086V55.9353H62.7302V53.944Z" fill="#09101D"/>
<path d="M70.8164 53.944H68.7949V55.9353H70.8164V53.944Z" fill="#09101D"/>
<path d="M14.213 55.9353H12.1914V57.9267H14.213V55.9353Z" fill="#09101D"/>
<path d="M16.2345 55.9353H14.213V57.9267H16.2345V55.9353Z" fill="#09101D"/>
<path d="M18.2561 55.9353H16.2345V57.9267H18.2561V55.9353Z" fill="#09101D"/>
<path d="M20.2776 55.9353H18.2561V57.9267H20.2776V55.9353Z" fill="#09101D"/>
<path d="M22.2992 55.9353H20.2776V57.9267H22.2992V55.9353Z" fill="#09101D"/>
<path d="M24.3207 55.9353H22.2992V57.9267H24.3207V55.9353Z" fill="#09101D"/>
<path d="M26.3423 55.9353H24.3207V57.9267H26.3423V55.9353Z" fill="#09101D"/>
<path d="M38.4716 55.9353H36.45V57.9267H38.4716V55.9353Z" fill="#09101D"/>
<path d="M40.4931 55.9353H38.4716V57.9267H40.4931V55.9353Z" fill="#09101D"/>
<path d="M42.5147 55.9353H40.4931V57.9267H42.5147V55.9353Z" fill="#09101D"/>
<path d="M44.5362 55.9353H42.5147V57.9267H44.5362V55.9353Z" fill="#09101D"/>
<path d="M50.6009 55.9353H48.5793V57.9267H50.6009V55.9353Z" fill="#09101D"/>
<path d="M54.644 55.9353H52.6224V57.9267H54.644V55.9353Z" fill="#09101D"/>
<path d="M58.6871 55.9353H56.6655V57.9267H58.6871V55.9353Z" fill="#09101D"/>
<path d="M62.7302 55.9353H60.7086V57.9267H62.7302V55.9353Z" fill="#09101D"/>
<path d="M68.7949 55.9353H66.7733V57.9267H68.7949V55.9353Z" fill="#09101D"/>
<path d="M70.8164 55.9353H68.7949V57.9267H70.8164V55.9353Z" fill="#09101D"/>
<path d="M14.213 57.9267H12.1914V59.9181H14.213V57.9267Z" fill="#09101D"/>
<path d="M26.3423 57.9267H24.3207V59.9181H26.3423V57.9267Z" fill="#09101D"/>
<path d="M32.4069 57.9267H30.3854V59.9181H32.4069V57.9267Z" fill="#09101D"/>
<path d="M38.4716 57.9267H36.45V59.9181H38.4716V57.9267Z" fill="#09101D"/>
<path d="M40.4931 57.9267H38.4716V59.9181H40.4931V57.9267Z" fill="#09101D"/>
<path d="M42.5147 57.9267H40.4931V59.9181H42.5147V57.9267Z" fill="#09101D"/>
<path d="M46.5578 57.9267H44.5362V59.9181H46.5578V57.9267Z" fill="#09101D"/>
<path d="M50.6009 57.9267H48.5793V59.9181H50.6009V57.9267Z" fill="#09101D"/>
<path d="M52.6224 57.9267H50.6009V59.9181H52.6224V57.9267Z" fill="#09101D"/>
<path d="M54.644 57.9267H52.6224V59.9181H54.644V57.9267Z" fill="#09101D"/>
<path d="M62.7302 57.9267H60.7086V59.9181H62.7302V57.9267Z" fill="#09101D"/>
<path d="M66.7733 57.9267H64.7518V59.9181H66.7733V57.9267Z" fill="#09101D"/>
<path d="M68.7949 57.9267H66.7733V59.9181H68.7949V57.9267Z" fill="#09101D"/>
<path d="M14.213 59.9181H12.1914V61.9095H14.213V59.9181Z" fill="#09101D"/>
<path d="M18.2561 59.9181H16.2345V61.9095H18.2561V59.9181Z" fill="#09101D"/>
<path d="M20.2776 59.9181H18.2561V61.9095H20.2776V59.9181Z" fill="#09101D"/>
<path d="M22.2992 59.9181H20.2776V61.9095H22.2992V59.9181Z" fill="#09101D"/>
<path d="M26.3423 59.9181H24.3207V61.9095H26.3423V59.9181Z" fill="#09101D"/>
<path d="M30.3854 59.9181H28.3638V61.9095H30.3854V59.9181Z" fill="#09101D"/>
<path d="M32.4069 59.9181H30.3854V61.9095H32.4069V59.9181Z" fill="#09101D"/>
<path d="M34.4285 59.9181H32.4069V61.9095H34.4285V59.9181Z" fill="#09101D"/>
<path d="M36.45 59.9181H34.4285V61.9095H36.45V59.9181Z" fill="#09101D"/>
<path d="M40.4931 59.9181H38.4716V61.9095H40.4931V59.9181Z" fill="#09101D"/>
<path d="M44.5362 59.9181H42.5147V61.9095H44.5362V59.9181Z" fill="#09101D"/>
<path d="M48.5793 59.9181H46.5578V61.9095H48.5793V59.9181Z" fill="#09101D"/>
<path d="M54.644 59.9181H52.6224V61.9095H54.644V59.9181Z" fill="#09101D"/>
<path d="M56.6655 59.9181H54.644V61.9095H56.6655V59.9181Z" fill="#09101D"/>
<path d="M58.6871 59.9181H56.6655V61.9095H58.6871V59.9181Z" fill="#09101D"/>
<path d="M60.7086 59.9181H58.6871V61.9095H60.7086V59.9181Z" fill="#09101D"/>
<path d="M62.7302 59.9181H60.7086V61.9095H62.7302V59.9181Z" fill="#09101D"/>
<path d="M66.7733 59.9181H64.7518V61.9095H66.7733V59.9181Z" fill="#09101D"/>
<path d="M14.213 61.9095H12.1914V63.9009H14.213V61.9095Z" fill="#09101D"/>
<path d="M18.2561 61.9095H16.2345V63.9009H18.2561V61.9095Z" fill="#09101D"/>
<path d="M20.2776 61.9095H18.2561V63.9009H20.2776V61.9095Z" fill="#09101D"/>
<path d="M22.2992 61.9095H20.2776V63.9009H22.2992V61.9095Z" fill="#09101D"/>
<path d="M26.3423 61.9095H24.3207V63.9009H26.3423V61.9095Z" fill="#09101D"/>
<path d="M32.4069 61.9095H30.3854V63.9009H32.4069V61.9095Z" fill="#09101D"/>
<path d="M36.45 61.9095H34.4285V63.9009H36.45V61.9095Z" fill="#09101D"/>
<path d="M38.4716 61.9095H36.45V63.9009H38.4716V61.9095Z" fill="#09101D"/>
<path d="M40.4931 61.9095H38.4716V63.9009H40.4931V61.9095Z" fill="#09101D"/>
<path d="M44.5362 61.9095H42.5147V63.9009H44.5362V61.9095Z" fill="#09101D"/>
<path d="M46.5578 61.9095H44.5362V63.9009H46.5578V61.9095Z" fill="#09101D"/>
<path d="M48.5793 61.9095H46.5578V63.9009H48.5793V61.9095Z" fill="#09101D"/>
<path d="M52.6224 61.9095H50.6009V63.9009H52.6224V61.9095Z" fill="#09101D"/>
<path d="M54.644 61.9095H52.6224V63.9009H54.644V61.9095Z" fill="#09101D"/>
<path d="M60.7086 61.9095H58.6871V63.9009H60.7086V61.9095Z" fill="#09101D"/>
<path d="M62.7302 61.9095H60.7086V63.9009H62.7302V61.9095Z" fill="#09101D"/>
<path d="M64.7518 61.9095H62.7302V63.9009H64.7518V61.9095Z" fill="#09101D"/>
<path d="M68.7949 61.9095H66.7733V63.9009H68.7949V61.9095Z" fill="#09101D"/>
<path d="M14.213 63.9009H12.1914V65.8922H14.213V63.9009Z" fill="#09101D"/>
<path d="M18.2561 63.9009H16.2345V65.8922H18.2561V63.9009Z" fill="#09101D"/>
<path d="M20.2776 63.9009H18.2561V65.8922H20.2776V63.9009Z" fill="#09101D"/>
<path d="M22.2992 63.9009H20.2776V65.8922H22.2992V63.9009Z" fill="#09101D"/>
<path d="M26.3423 63.9009H24.3207V65.8922H26.3423V63.9009Z" fill="#09101D"/>
<path d="M30.3854 63.9009H28.3638V65.8922H30.3854V63.9009Z" fill="#09101D"/>
<path d="M32.4069 63.9009H30.3854V65.8922H32.4069V63.9009Z" fill="#09101D"/>
<path d="M34.4285 63.9009H32.4069V65.8922H34.4285V63.9009Z" fill="#09101D"/>
<path d="M40.4931 63.9009H38.4716V65.8922H40.4931V63.9009Z" fill="#09101D"/>
<path d="M44.5362 63.9009H42.5147V65.8922H44.5362V63.9009Z" fill="#09101D"/>
<path d="M50.6009 63.9009H48.5793V65.8922H50.6009V63.9009Z" fill="#09101D"/>
<path d="M52.6224 63.9009H50.6009V65.8922H52.6224V63.9009Z" fill="#09101D"/>
<path d="M54.644 63.9009H52.6224V65.8922H54.644V63.9009Z" fill="#09101D"/>
<path d="M56.6655 63.9009H54.644V65.8922H56.6655V63.9009Z" fill="#09101D"/>
<path d="M58.6871 63.9009H56.6655V65.8922H58.6871V63.9009Z" fill="#09101D"/>
<path d="M62.7302 63.9009H60.7086V65.8922H62.7302V63.9009Z" fill="#09101D"/>
<path d="M64.7518 63.9009H62.7302V65.8922H64.7518V63.9009Z" fill="#09101D"/>
<path d="M66.7733 63.9009H64.7518V65.8922H66.7733V63.9009Z" fill="#09101D"/>
<path d="M68.7949 63.9009H66.7733V65.8922H68.7949V63.9009Z" fill="#09101D"/>
<path d="M14.213 65.8922H12.1914V67.8836H14.213V65.8922Z" fill="#09101D"/>
<path d="M26.3423 65.8922H24.3207V67.8836H26.3423V65.8922Z" fill="#09101D"/>
<path d="M30.3854 65.8922H28.3638V67.8836H30.3854V65.8922Z" fill="#09101D"/>
<path d="M32.4069 65.8922H30.3854V67.8836H32.4069V65.8922Z" fill="#09101D"/>
<path d="M36.45 65.8922H34.4285V67.8836H36.45V65.8922Z" fill="#09101D"/>
<path d="M38.4716 65.8922H36.45V67.8836H38.4716V65.8922Z" fill="#09101D"/>
<path d="M40.4931 65.8922H38.4716V67.8836H40.4931V65.8922Z" fill="#09101D"/>
<path d="M44.5362 65.8922H42.5147V67.8836H44.5362V65.8922Z" fill="#09101D"/>
<path d="M46.5578 65.8922H44.5362V67.8836H46.5578V65.8922Z" fill="#09101D"/>
<path d="M54.644 65.8922H52.6224V67.8836H54.644V65.8922Z" fill="#09101D"/>
<path d="M60.7086 65.8922H58.6871V67.8836H60.7086V65.8922Z" fill="#09101D"/>
<path d="M64.7518 65.8922H62.7302V67.8836H64.7518V65.8922Z" fill="#09101D"/>
<path d="M66.7733 65.8922H64.7518V67.8836H66.7733V65.8922Z" fill="#09101D"/>
<path d="M14.213 67.8836H12.1914V69.875H14.213V67.8836Z" fill="#09101D"/>
<path d="M16.2345 67.8836H14.213V69.875H16.2345V67.8836Z" fill="#09101D"/>
<path d="M18.2561 67.8836H16.2345V69.875H18.2561V67.8836Z" fill="#09101D"/>
<path d="M20.2776 67.8836H18.2561V69.875H20.2776V67.8836Z" fill="#09101D"/>
<path d="M22.2992 67.8836H20.2776V69.875H22.2992V67.8836Z" fill="#09101D"/>
<path d="M24.3207 67.8836H22.2992V69.875H24.3207V67.8836Z" fill="#09101D"/>
<path d="M26.3423 67.8836H24.3207V69.875H26.3423V67.8836Z" fill="#09101D"/>
<path d="M30.3854 67.8836H28.3638V69.875H30.3854V67.8836Z" fill="#09101D"/>
<path d="M38.4716 67.8836H36.45V69.875H38.4716V67.8836Z" fill="#09101D"/>
<path d="M40.4931 67.8836H38.4716V69.875H40.4931V67.8836Z" fill="#09101D"/>
<path d="M42.5147 67.8836H40.4931V69.875H42.5147V67.8836Z" fill="#09101D"/>
<path d="M44.5362 67.8836H42.5147V69.875H44.5362V67.8836Z" fill="#09101D"/>
<path d="M50.6009 67.8836H48.5793V69.875H50.6009V67.8836Z" fill="#09101D"/>
<path d="M52.6224 67.8836H50.6009V69.875H52.6224V67.8836Z" fill="#09101D"/>
<path d="M54.644 67.8836H52.6224V69.875H54.644V67.8836Z" fill="#09101D"/>
<path d="M56.6655 67.8836H54.644V69.875H56.6655V67.8836Z" fill="#09101D"/>
<path d="M66.7733 67.8836H64.7518V69.875H66.7733V67.8836Z" fill="#09101D"/>
<path d="M68.7949 67.8836H66.7733V69.875H68.7949V67.8836Z" fill="#09101D"/>
<rect x="1" y="1" width="80" height="80" rx="10" stroke="#CF7C58" stroke-width="2" stroke-dasharray="4.35 4.35"/>
</svg>
