<svg width="81" height="80" viewBox="0 0 81 80" fill="none" xmlns="http://www.w3.org/2000/svg">
<rect x="3.76514" y="3.26538" width="73.4694" height="73.4694" rx="10" fill="white"/>
<path d="M13.213 11.125H11.1914V13.1164H13.213V11.125Z" fill="#09101D"/>
<path d="M15.2345 11.125H13.213V13.1164H15.2345V11.125Z" fill="#09101D"/>
<path d="M17.2561 11.125H15.2345V13.1164H17.2561V11.125Z" fill="#09101D"/>
<path d="M19.2776 11.125H17.2561V13.1164H19.2776V11.125Z" fill="#09101D"/>
<path d="M21.2992 11.125H19.2776V13.1164H21.2992V11.125Z" fill="#09101D"/>
<path d="M23.3207 11.125H21.2992V13.1164H23.3207V11.125Z" fill="#09101D"/>
<path d="M25.3423 11.125H23.3207V13.1164H25.3423V11.125Z" fill="#09101D"/>
<path d="M29.3854 11.125H27.3638V13.1164H29.3854V11.125Z" fill="#09101D"/>
<path d="M31.4069 11.125H29.3854V13.1164H31.4069V11.125Z" fill="#09101D"/>
<path d="M35.45 11.125H33.4285V13.1164H35.45V11.125Z" fill="#09101D"/>
<path d="M37.4716 11.125H35.45V13.1164H37.4716V11.125Z" fill="#09101D"/>
<path d="M45.5578 11.125H43.5362V13.1164L45.5578 13.1164V11.125Z" fill="#09101D"/>
<path d="M47.5793 11.125H45.5578V13.1164H47.5793V11.125Z" fill="#09101D"/>
<path d="M49.6009 11.125H47.5793V13.1164H49.6009V11.125Z" fill="#09101D"/>
<path d="M51.6224 11.125H49.6009V13.1164H51.6224V11.125Z" fill="#09101D"/>
<path d="M53.644 11.125H51.6224V13.1164H53.644V11.125Z" fill="#09101D"/>
<path d="M57.6871 11.125H55.6655V13.1164H57.6871V11.125Z" fill="#09101D"/>
<path d="M59.7086 11.125H57.6871V13.1164H59.7086V11.125Z" fill="#09101D"/>
<path d="M61.7302 11.125H59.7086V13.1164H61.7302V11.125Z" fill="#09101D"/>
<path d="M63.7518 11.125H61.7302V13.1164H63.7518V11.125Z" fill="#09101D"/>
<path d="M65.7733 11.125H63.7518V13.1164H65.7733V11.125Z" fill="#09101D"/>
<path d="M67.7949 11.125H65.7733V13.1164H67.7949V11.125Z" fill="#09101D"/>
<path d="M69.8164 11.125H67.7949V13.1164H69.8164V11.125Z" fill="#09101D"/>
<path d="M13.213 13.1164H11.1914V15.1078H13.213V13.1164Z" fill="#09101D"/>
<path d="M25.3423 13.1164H23.3207V15.1078H25.3423V13.1164Z" fill="#09101D"/>
<path d="M33.4285 13.1164H31.4069V15.1078H33.4285V13.1164Z" fill="#09101D"/>
<path d="M37.4716 13.1164H35.45V15.1078H37.4716V13.1164Z" fill="#09101D"/>
<path d="M39.4931 13.1164H37.4716V15.1078H39.4931V13.1164Z" fill="#09101D"/>
<path d="M49.6009 13.1164H47.5793V15.1078L49.6009 15.1078V13.1164Z" fill="#09101D"/>
<path d="M51.6224 13.1164H49.6009V15.1078H51.6224V13.1164Z" fill="#09101D"/>
<path d="M53.644 13.1164H51.6224V15.1078H53.644V13.1164Z" fill="#09101D"/>
<path d="M57.6871 13.1164H55.6655V15.1078H57.6871V13.1164Z" fill="#09101D"/>
<path d="M69.8164 13.1164H67.7949V15.1078H69.8164V13.1164Z" fill="#09101D"/>
<path d="M13.213 15.1078H11.1914V17.0991H13.213V15.1078Z" fill="#09101D"/>
<path d="M17.2561 15.1078H15.2345V17.0991H17.2561V15.1078Z" fill="#09101D"/>
<path d="M19.2776 15.1078H17.2561V17.0991H19.2776V15.1078Z" fill="#09101D"/>
<path d="M21.2992 15.1078H19.2776V17.0991H21.2992V15.1078Z" fill="#09101D"/>
<path d="M25.3423 15.1078H23.3207V17.0991H25.3423V15.1078Z" fill="#09101D"/>
<path d="M31.4069 15.1078H29.3854V17.0991H31.4069V15.1078Z" fill="#09101D"/>
<path d="M33.4285 15.1078H31.4069V17.0991H33.4285V15.1078Z" fill="#09101D"/>
<path d="M39.4931 15.1078H37.4716V17.0991H39.4931V15.1078Z" fill="#09101D"/>
<path d="M41.5147 15.1078H39.4931V17.0991H41.5147V15.1078Z" fill="#09101D"/>
<path d="M43.5362 15.1078H41.5147V17.0991H43.5362V15.1078Z" fill="#09101D"/>
<path d="M47.5793 15.1078H45.5578V17.0991H47.5793V15.1078Z" fill="#09101D"/>
<path d="M51.6224 15.1078H49.6009V17.0991H51.6224V15.1078Z" fill="#09101D"/>
<path d="M53.644 15.1078H51.6224V17.0991H53.644V15.1078Z" fill="#09101D"/>
<path d="M57.6871 15.1078H55.6655V17.0991H57.6871V15.1078Z" fill="#09101D"/>
<path d="M61.7302 15.1078H59.7086V17.0991H61.7302V15.1078Z" fill="#09101D"/>
<path d="M63.7518 15.1078H61.7302V17.0991H63.7518V15.1078Z" fill="#09101D"/>
<path d="M65.7733 15.1078H63.7518V17.0991H65.7733V15.1078Z" fill="#09101D"/>
<path d="M69.8164 15.1078H67.7949V17.0991H69.8164V15.1078Z" fill="#09101D"/>
<path d="M13.213 17.0991H11.1914V19.0905H13.213V17.0991Z" fill="#09101D"/>
<path d="M17.2561 17.0991H15.2345V19.0905H17.2561V17.0991Z" fill="#09101D"/>
<path d="M19.2776 17.0991H17.2561V19.0905H19.2776V17.0991Z" fill="#09101D"/>
<path d="M21.2992 17.0991H19.2776V19.0905H21.2992V17.0991Z" fill="#09101D"/>
<path d="M25.3423 17.0991H23.3207V19.0905H25.3423V17.0991Z" fill="#09101D"/>
<path d="M29.3854 17.0991H27.3638V19.0905H29.3854V17.0991Z" fill="#09101D"/>
<path d="M31.4069 17.0991H29.3854V19.0905H31.4069V17.0991Z" fill="#09101D"/>
<path d="M45.5578 17.0991H43.5362V19.0905H45.5578V17.0991Z" fill="#09101D"/>
<path d="M53.644 17.0991H51.6224V19.0905H53.644V17.0991Z" fill="#09101D"/>
<path d="M57.6871 17.0991H55.6655V19.0905H57.6871V17.0991Z" fill="#09101D"/>
<path d="M61.7302 17.0991H59.7086V19.0905H61.7302V17.0991Z" fill="#09101D"/>
<path d="M63.7518 17.0991H61.7302V19.0905H63.7518V17.0991Z" fill="#09101D"/>
<path d="M65.7733 17.0991H63.7518V19.0905H65.7733V17.0991Z" fill="#09101D"/>
<path d="M69.8164 17.0991H67.7949V19.0905H69.8164V17.0991Z" fill="#09101D"/>
<path d="M13.213 19.0905H11.1914V21.0819H13.213V19.0905Z" fill="#09101D"/>
<path d="M17.2561 19.0905H15.2345V21.0819H17.2561V19.0905Z" fill="#09101D"/>
<path d="M19.2776 19.0905H17.2561V21.0819H19.2776V19.0905Z" fill="#09101D"/>
<path d="M21.2992 19.0905H19.2776V21.0819H21.2992V19.0905Z" fill="#09101D"/>
<path d="M25.3423 19.0905H23.3207V21.0819H25.3423V19.0905Z" fill="#09101D"/>
<path d="M29.3854 19.0905H27.3638V21.0819H29.3854V19.0905Z" fill="#09101D"/>
<path d="M31.4069 19.0905H29.3854V21.0819H31.4069V19.0905Z" fill="#09101D"/>
<path d="M35.45 19.0905H33.4285V21.0819H35.45V19.0905Z" fill="#09101D"/>
<path d="M37.4716 19.0905H35.45V21.0819H37.4716V19.0905Z" fill="#09101D"/>
<path d="M39.4931 19.0905H37.4716V21.0819H39.4931V19.0905Z" fill="#09101D"/>
<path d="M41.5147 19.0905H39.4931V21.0819H41.5147V19.0905Z" fill="#09101D"/>
<path d="M43.5362 19.0905H41.5147V21.0819H43.5362V19.0905Z" fill="#09101D"/>
<path d="M45.5578 19.0905H43.5362V21.0819H45.5578V19.0905Z" fill="#09101D"/>
<path d="M47.5793 19.0905H45.5578V21.0819H47.5793V19.0905Z" fill="#09101D"/>
<path d="M49.6009 19.0905H47.5793V21.0819H49.6009V19.0905Z" fill="#09101D"/>
<path d="M51.6224 19.0905H49.6009V21.0819H51.6224V19.0905Z" fill="#09101D"/>
<path d="M53.644 19.0905H51.6224V21.0819H53.644V19.0905Z" fill="#09101D"/>
<path d="M57.6871 19.0905H55.6655V21.0819H57.6871V19.0905Z" fill="#09101D"/>
<path d="M61.7302 19.0905H59.7086V21.0819H61.7302V19.0905Z" fill="#09101D"/>
<path d="M63.7518 19.0905H61.7302V21.0819H63.7518V19.0905Z" fill="#09101D"/>
<path d="M65.7733 19.0905H63.7518V21.0819H65.7733V19.0905Z" fill="#09101D"/>
<path d="M69.8164 19.0905H67.7949V21.0819H69.8164V19.0905Z" fill="#09101D"/>
<path d="M13.213 21.0819H11.1914V23.0733H13.213V21.0819Z" fill="#09101D"/>
<path d="M25.3423 21.0819H23.3207V23.0733H25.3423V21.0819Z" fill="#09101D"/>
<path d="M29.3854 21.0819H27.3638V23.0733H29.3854V21.0819Z" fill="#09101D"/>
<path d="M31.4069 21.0819H29.3854V23.0733H31.4069V21.0819Z" fill="#09101D"/>
<path d="M33.4285 21.0819H31.4069V23.0733H33.4285V21.0819Z" fill="#09101D"/>
<path d="M37.4716 21.0819H35.45V23.0733H37.4716V21.0819Z" fill="#09101D"/>
<path d="M39.4931 21.0819H37.4716V23.0733H39.4931V21.0819Z" fill="#09101D"/>
<path d="M45.5578 21.0819H43.5362V23.0733H45.5578V21.0819Z" fill="#09101D"/>
<path d="M47.5793 21.0819H45.5578V23.0733H47.5793V21.0819Z" fill="#09101D"/>
<path d="M49.6009 21.0819H47.5793V23.0733H49.6009V21.0819Z" fill="#09101D"/>
<path d="M51.6224 21.0819H49.6009V23.0733H51.6224V21.0819Z" fill="#09101D"/>
<path d="M53.644 21.0819H51.6224V23.0733H53.644V21.0819Z" fill="#09101D"/>
<path d="M57.6871 21.0819H55.6655V23.0733H57.6871V21.0819Z" fill="#09101D"/>
<path d="M69.8164 21.0819H67.7949V23.0733H69.8164V21.0819Z" fill="#09101D"/>
<path d="M13.213 23.0733H11.1914V25.0647H13.213V23.0733Z" fill="#09101D"/>
<path d="M15.2345 23.0733H13.213V25.0647H15.2345V23.0733Z" fill="#09101D"/>
<path d="M17.2561 23.0733H15.2345V25.0647H17.2561V23.0733Z" fill="#09101D"/>
<path d="M19.2776 23.0733H17.2561V25.0647H19.2776V23.0733Z" fill="#09101D"/>
<path d="M21.2992 23.0733H19.2776V25.0647H21.2992V23.0733Z" fill="#09101D"/>
<path d="M23.3207 23.0733H21.2992V25.0647H23.3207V23.0733Z" fill="#09101D"/>
<path d="M25.3423 23.0733H23.3207V25.0647H25.3423V23.0733Z" fill="#09101D"/>
<path d="M29.3854 23.0733H27.3638V25.0647H29.3854V23.0733Z" fill="#09101D"/>
<path d="M33.4285 23.0733H31.4069V25.0647H33.4285V23.0733Z" fill="#09101D"/>
<path d="M37.4716 23.0733H35.45V25.0647H37.4716V23.0733Z" fill="#09101D"/>
<path d="M41.5147 23.0733H39.4931V25.0647H41.5147V23.0733Z" fill="#09101D"/>
<path d="M45.5578 23.0733H43.5362V25.0647H45.5578V23.0733Z" fill="#09101D"/>
<path d="M49.6009 23.0733H47.5793V25.0647H49.6009V23.0733Z" fill="#09101D"/>
<path d="M53.644 23.0733H51.6224V25.0647H53.644V23.0733Z" fill="#09101D"/>
<path d="M57.6871 23.0733H55.6655V25.0647H57.6871V23.0733Z" fill="#09101D"/>
<path d="M59.7086 23.0733H57.6871V25.0647H59.7086V23.0733Z" fill="#09101D"/>
<path d="M61.7302 23.0733H59.7086V25.0647H61.7302V23.0733Z" fill="#09101D"/>
<path d="M63.7518 23.0733H61.7302V25.0647H63.7518V23.0733Z" fill="#09101D"/>
<path d="M65.7733 23.0733H63.7518V25.0647H65.7733V23.0733Z" fill="#09101D"/>
<path d="M67.7949 23.0733H65.7733V25.0647H67.7949V23.0733Z" fill="#09101D"/>
<path d="M69.8164 23.0733H67.7949V25.0647H69.8164V23.0733Z" fill="#09101D"/>
<path d="M29.3854 25.0647H27.3638V27.056H29.3854V25.0647Z" fill="#09101D"/>
<path d="M39.4931 25.0647H37.4716V27.056H39.4931V25.0647Z" fill="#09101D"/>
<path d="M41.5147 25.0647H39.4931V27.056H41.5147V25.0647Z" fill="#09101D"/>
<path d="M43.5362 25.0647H41.5147V27.056H43.5362V25.0647Z" fill="#09101D"/>
<path d="M51.6224 25.0647H49.6009V27.056H51.6224V25.0647Z" fill="#09101D"/>
<path d="M13.213 27.056H11.1914V29.0474H13.213V27.056Z" fill="#09101D"/>
<path d="M15.2345 27.056H13.213V29.0474H15.2345V27.056Z" fill="#09101D"/>
<path d="M17.2561 27.056H15.2345V29.0474H17.2561V27.056Z" fill="#09101D"/>
<path d="M21.2992 27.056H19.2776V29.0474H21.2992V27.056Z" fill="#09101D"/>
<path d="M25.3423 27.056H23.3207V29.0474H25.3423V27.056Z" fill="#09101D"/>
<path d="M29.3854 27.056H27.3638V29.0474H29.3854V27.056Z" fill="#09101D"/>
<path d="M31.4069 27.056H29.3854V29.0474H31.4069V27.056Z" fill="#09101D"/>
<path d="M37.4716 27.056H35.45V29.0474H37.4716V27.056Z" fill="#09101D"/>
<path d="M45.5578 27.056H43.5362V29.0474H45.5578V27.056Z" fill="#09101D"/>
<path d="M51.6224 27.056H49.6009V29.0474H51.6224V27.056Z" fill="#09101D"/>
<path d="M55.6655 27.056H53.644V29.0474H55.6655V27.056Z" fill="#09101D"/>
<path d="M57.6871 27.056H55.6655V29.0474H57.6871V27.056Z" fill="#09101D"/>
<path d="M59.7086 27.056H57.6871V29.0474H59.7086V27.056Z" fill="#09101D"/>
<path d="M61.7302 27.056H59.7086V29.0474H61.7302V27.056Z" fill="#09101D"/>
<path d="M63.7518 27.056H61.7302V29.0474H63.7518V27.056Z" fill="#09101D"/>
<path d="M69.8164 27.056H67.7949V29.0474H69.8164V27.056Z" fill="#09101D"/>
<path d="M13.213 29.0474H11.1914V31.0388H13.213V29.0474Z" fill="#09101D"/>
<path d="M15.2345 29.0474H13.213V31.0388H15.2345V29.0474Z" fill="#09101D"/>
<path d="M27.3638 29.0474H25.3423V31.0388H27.3638V29.0474Z" fill="#09101D"/>
<path d="M33.4285 29.0474H31.4069V31.0388H33.4285V29.0474Z" fill="#09101D"/>
<path d="M35.45 29.0474H33.4285V31.0388H35.45V29.0474Z" fill="#09101D"/>
<path d="M37.4716 29.0474H35.45V31.0388H37.4716V29.0474Z" fill="#09101D"/>
<path d="M45.5578 29.0474H43.5362V31.0388H45.5578V29.0474Z" fill="#09101D"/>
<path d="M53.644 29.0474H51.6224V31.0388H53.644V29.0474Z" fill="#09101D"/>
<path d="M57.6871 29.0474H55.6655V31.0388H57.6871V29.0474Z" fill="#09101D"/>
<path d="M59.7086 29.0474H57.6871V31.0388H59.7086V29.0474Z" fill="#09101D"/>
<path d="M65.7733 29.0474H63.7518V31.0388H65.7733V29.0474Z" fill="#09101D"/>
<path d="M69.8164 29.0474H67.7949V31.0388H69.8164V29.0474Z" fill="#09101D"/>
<path d="M15.2345 31.0388H13.213V33.0302H15.2345V31.0388Z" fill="#09101D"/>
<path d="M17.2561 31.0388H15.2345V33.0302H17.2561V31.0388Z" fill="#09101D"/>
<path d="M21.2992 31.0388H19.2776V33.0302H21.2992V31.0388Z" fill="#09101D"/>
<path d="M25.3423 31.0388H23.3207V33.0302H25.3423V31.0388Z" fill="#09101D"/>
<path d="M27.3638 31.0388H25.3423V33.0302H27.3638V31.0388Z" fill="#09101D"/>
<path d="M29.3854 31.0388H27.3638V33.0302H29.3854V31.0388Z" fill="#09101D"/>
<path d="M35.45 31.0388H33.4285V33.0302H35.45V31.0388Z" fill="#09101D"/>
<path d="M39.4931 31.0388H37.4716V33.0302H39.4931V31.0388Z" fill="#09101D"/>
<path d="M57.6871 31.0388H55.6655V33.0302H57.6871V31.0388Z" fill="#09101D"/>
<path d="M63.7518 31.0388H61.7302V33.0302H63.7518V31.0388Z" fill="#09101D"/>
<path d="M65.7733 31.0388H63.7518V33.0302H65.7733V31.0388Z" fill="#09101D"/>
<path d="M69.8164 31.0388H67.7949V33.0302H69.8164V31.0388Z" fill="#09101D"/>
<path d="M13.213 33.0302H11.1914V35.0215H13.213V33.0302Z" fill="#09101D"/>
<path d="M21.2992 33.0302H19.2776V35.0215H21.2992V33.0302Z" fill="#09101D"/>
<path d="M27.3638 33.0302H25.3423V35.0215H27.3638V33.0302Z" fill="#09101D"/>
<path d="M37.4716 33.0302H35.45V35.0215H37.4716V33.0302Z" fill="#09101D"/>
<path d="M39.4931 33.0302H37.4716V35.0215H39.4931V33.0302Z" fill="#09101D"/>
<path d="M49.6009 33.0302H47.5793V35.0215H49.6009V33.0302Z" fill="#09101D"/>
<path d="M51.6224 33.0302H49.6009V35.0215H51.6224V33.0302Z" fill="#09101D"/>
<path d="M53.644 33.0302H51.6224V35.0215H53.644V33.0302Z" fill="#09101D"/>
<path d="M67.7949 33.0302H65.7733V35.0215H67.7949V33.0302Z" fill="#09101D"/>
<path d="M69.8164 33.0302H67.7949V35.0215H69.8164V33.0302Z" fill="#09101D"/>
<path d="M17.2561 35.0215H15.2345V37.0129H17.2561V35.0215Z" fill="#09101D"/>
<path d="M19.2776 35.0215H17.2561V37.0129H19.2776V35.0215Z" fill="#09101D"/>
<path d="M25.3423 35.0215H23.3207V37.0129H25.3423V35.0215Z" fill="#09101D"/>
<path d="M41.5147 35.0215H39.4931V37.0129H41.5147V35.0215Z" fill="#09101D"/>
<path d="M43.5362 35.0215H41.5147V37.0129H43.5362V35.0215Z" fill="#09101D"/>
<path d="M45.5578 35.0215H43.5362V37.0129H45.5578V35.0215Z" fill="#09101D"/>
<path d="M49.6009 35.0215H47.5793V37.0129H49.6009V35.0215Z" fill="#09101D"/>
<path d="M51.6224 35.0215H49.6009V37.0129H51.6224V35.0215Z" fill="#09101D"/>
<path d="M53.644 35.0215H51.6224V37.0129H53.644V35.0215Z" fill="#09101D"/>
<path d="M59.7086 35.0215H57.6871V37.0129H59.7086V35.0215Z" fill="#09101D"/>
<path d="M63.7518 35.0215H61.7302V37.0129H63.7518V35.0215Z" fill="#09101D"/>
<path d="M65.7733 35.0215H63.7518V37.0129H65.7733V35.0215Z" fill="#09101D"/>
<path d="M67.7949 35.0215H65.7733V37.0129H67.7949V35.0215Z" fill="#09101D"/>
<path d="M13.213 37.0129H11.1914V39.0043H13.213V37.0129Z" fill="#09101D"/>
<path d="M15.2345 37.0129H13.213V39.0043H15.2345V37.0129Z" fill="#09101D"/>
<path d="M17.2561 37.0129H15.2345V39.0043H17.2561V37.0129Z" fill="#09101D"/>
<path d="M21.2992 37.0129H19.2776V39.0043H21.2992V37.0129Z" fill="#09101D"/>
<path d="M23.3207 37.0129H21.2992V39.0043H23.3207V37.0129Z" fill="#09101D"/>
<path d="M29.3854 37.0129H27.3638V39.0043H29.3854V37.0129Z" fill="#09101D"/>
<path d="M37.4716 37.0129H35.45V39.0043H37.4716V37.0129Z" fill="#09101D"/>
<path d="M43.5362 37.0129H41.5147V39.0043H43.5362V37.0129Z" fill="#09101D"/>
<path d="M49.6009 37.0129H47.5793V39.0043H49.6009V37.0129Z" fill="#09101D"/>
<path d="M51.6224 37.0129H49.6009V39.0043H51.6224V37.0129Z" fill="#09101D"/>
<path d="M53.644 37.0129H51.6224V39.0043H53.644V37.0129Z" fill="#09101D"/>
<path d="M55.6655 37.0129H53.644V39.0043H55.6655V37.0129Z" fill="#09101D"/>
<path d="M57.6871 37.0129H55.6655V39.0043H57.6871V37.0129Z" fill="#09101D"/>
<path d="M59.7086 37.0129H57.6871V39.0043H59.7086V37.0129Z" fill="#09101D"/>
<path d="M61.7302 37.0129H59.7086V39.0043H61.7302V37.0129Z" fill="#09101D"/>
<path d="M65.7733 37.0129H63.7518V39.0043H65.7733V37.0129Z" fill="#09101D"/>
<path d="M69.8164 37.0129H67.7949V39.0043H69.8164V37.0129Z" fill="#09101D"/>
<path d="M13.213 39.0043H11.1914V40.9957H13.213V39.0043Z" fill="#09101D"/>
<path d="M15.2345 39.0043H13.213V40.9957H15.2345V39.0043Z" fill="#09101D"/>
<path d="M17.2561 39.0043H15.2345V40.9957H17.2561V39.0043Z" fill="#09101D"/>
<path d="M19.2776 39.0043H17.2561V40.9957H19.2776V39.0043Z" fill="#09101D"/>
<path d="M23.3207 39.0043H21.2992V40.9957H23.3207V39.0043Z" fill="#09101D"/>
<path d="M25.3423 39.0043H23.3207V40.9957H25.3423V39.0043Z" fill="#09101D"/>
<path d="M27.3638 39.0043H25.3423V40.9957H27.3638V39.0043Z" fill="#09101D"/>
<path d="M29.3854 39.0043H27.3638V40.9957H29.3854V39.0043Z" fill="#09101D"/>
<path d="M31.4069 39.0043H29.3854V40.9957H31.4069V39.0043Z" fill="#09101D"/>
<path d="M33.4285 39.0043H31.4069V40.9957H33.4285V39.0043Z" fill="#09101D"/>
<path d="M35.45 39.0043H33.4285V40.9957H35.45V39.0043Z" fill="#09101D"/>
<path d="M37.4716 39.0043H35.45V40.9957H37.4716V39.0043Z" fill="#09101D"/>
<path d="M41.5147 39.0043H39.4931V40.9957H41.5147V39.0043Z" fill="#09101D"/>
<path d="M43.5362 39.0043H41.5147V40.9957H43.5362V39.0043Z" fill="#09101D"/>
<path d="M49.6009 39.0043H47.5793V40.9957H49.6009V39.0043Z" fill="#09101D"/>
<path d="M63.7518 39.0043H61.7302V40.9957H63.7518V39.0043Z" fill="#09101D"/>
<path d="M69.8164 39.0043H67.7949V40.9957H69.8164V39.0043Z" fill="#09101D"/>
<path d="M13.213 40.9957H11.1914V42.9871H13.213V40.9957Z" fill="#09101D"/>
<path d="M15.2345 40.9957H13.213V42.9871H15.2345V40.9957Z" fill="#09101D"/>
<path d="M19.2776 40.9957H17.2561V42.9871H19.2776V40.9957Z" fill="#09101D"/>
<path d="M21.2992 40.9957H19.2776V42.9871H21.2992V40.9957Z" fill="#09101D"/>
<path d="M29.3854 40.9957H27.3638V42.9871H29.3854V40.9957Z" fill="#09101D"/>
<path d="M35.45 40.9957H33.4285V42.9871H35.45V40.9957Z" fill="#09101D"/>
<path d="M41.5147 40.9957H39.4931V42.9871H41.5147V40.9957Z" fill="#09101D"/>
<path d="M45.5578 40.9957H43.5362V42.9871H45.5578V40.9957Z" fill="#09101D"/>
<path d="M51.6224 40.9957H49.6009V42.9871H51.6224V40.9957Z" fill="#09101D"/>
<path d="M57.6871 40.9957H55.6655V42.9871H57.6871V40.9957Z" fill="#09101D"/>
<path d="M63.7518 40.9957H61.7302V42.9871H63.7518V40.9957Z" fill="#09101D"/>
<path d="M65.7733 40.9957H63.7518V42.9871H65.7733V40.9957Z" fill="#09101D"/>
<path d="M69.8164 40.9957H67.7949V42.9871H69.8164V40.9957Z" fill="#09101D"/>
<path d="M25.3423 42.9871H23.3207V44.9784H25.3423V42.9871Z" fill="#09101D"/>
<path d="M29.3854 42.9871H27.3638V44.9784H29.3854V42.9871Z" fill="#09101D"/>
<path d="M43.5362 42.9871H41.5147V44.9784H43.5362V42.9871Z" fill="#09101D"/>
<path d="M49.6009 42.9871H47.5793V44.9784H49.6009V42.9871Z" fill="#09101D"/>
<path d="M51.6224 42.9871H49.6009V44.9784H51.6224V42.9871Z" fill="#09101D"/>
<path d="M53.644 42.9871H51.6224V44.9784H53.644V42.9871Z" fill="#09101D"/>
<path d="M55.6655 42.9871H53.644V44.9784H55.6655V42.9871Z" fill="#09101D"/>
<path d="M59.7086 42.9871H57.6871V44.9784H59.7086V42.9871Z" fill="#09101D"/>
<path d="M61.7302 42.9871H59.7086V44.9784H61.7302V42.9871Z" fill="#09101D"/>
<path d="M63.7518 42.9871H61.7302V44.9784H63.7518V42.9871Z" fill="#09101D"/>
<path d="M65.7733 42.9871H63.7518V44.9784H65.7733V42.9871Z" fill="#09101D"/>
<path d="M69.8164 42.9871H67.7949V44.9784H69.8164V42.9871Z" fill="#09101D"/>
<path d="M13.213 44.9784H11.1914V46.9698H13.213V44.9784Z" fill="#09101D"/>
<path d="M19.2776 44.9784H17.2561V46.9698H19.2776V44.9784Z" fill="#09101D"/>
<path d="M21.2992 44.9784H19.2776V46.9698H21.2992V44.9784Z" fill="#09101D"/>
<path d="M23.3207 44.9784H21.2992V46.9698H23.3207V44.9784Z" fill="#09101D"/>
<path d="M29.3854 44.9784H27.3638V46.9698H29.3854V44.9784Z" fill="#09101D"/>
<path d="M31.4069 44.9784H29.3854V46.9698H31.4069V44.9784Z" fill="#09101D"/>
<path d="M33.4285 44.9784H31.4069V46.9698H33.4285V44.9784Z" fill="#09101D"/>
<path d="M35.45 44.9784H33.4285V46.9698H35.45V44.9784Z" fill="#09101D"/>
<path d="M45.5578 44.9784H43.5362V46.9698H45.5578V44.9784Z" fill="#09101D"/>
<path d="M47.5793 44.9784H45.5578V46.9698H47.5793V44.9784Z" fill="#09101D"/>
<path d="M53.644 44.9784H51.6224V46.9698H53.644V44.9784Z" fill="#09101D"/>
<path d="M55.6655 44.9784H53.644V46.9698H55.6655V44.9784Z" fill="#09101D"/>
<path d="M57.6871 44.9784H55.6655V46.9698H57.6871V44.9784Z" fill="#09101D"/>
<path d="M59.7086 44.9784H57.6871V46.9698H59.7086V44.9784Z" fill="#09101D"/>
<path d="M63.7518 44.9784H61.7302V46.9698H63.7518V44.9784Z" fill="#09101D"/>
<path d="M13.213 46.9698H11.1914V48.9612H13.213V46.9698Z" fill="#09101D"/>
<path d="M17.2561 46.9698H15.2345V48.9612H17.2561V46.9698Z" fill="#09101D"/>
<path d="M21.2992 46.9698H19.2776V48.9612H21.2992V46.9698Z" fill="#09101D"/>
<path d="M23.3207 46.9698H21.2992V48.9612H23.3207V46.9698Z" fill="#09101D"/>
<path d="M25.3423 46.9698H23.3207V48.9612H25.3423V46.9698Z" fill="#09101D"/>
<path d="M31.4069 46.9698H29.3854V48.9612H31.4069V46.9698Z" fill="#09101D"/>
<path d="M37.4716 46.9698H35.45V48.9612H37.4716V46.9698Z" fill="#09101D"/>
<path d="M39.4931 46.9698H37.4716V48.9612H39.4931V46.9698Z" fill="#09101D"/>
<path d="M41.5147 46.9698H39.4931V48.9612H41.5147V46.9698Z" fill="#09101D"/>
<path d="M43.5362 46.9698H41.5147V48.9612H43.5362V46.9698Z" fill="#09101D"/>
<path d="M49.6009 46.9698H47.5793V48.9612H49.6009V46.9698Z" fill="#09101D"/>
<path d="M55.6655 46.9698H53.644V48.9612H55.6655V46.9698Z" fill="#09101D"/>
<path d="M63.7518 46.9698H61.7302V48.9612H63.7518V46.9698Z" fill="#09101D"/>
<path d="M65.7733 46.9698H63.7518V48.9612H65.7733V46.9698Z" fill="#09101D"/>
<path d="M15.2345 48.9612H13.213V50.9526H15.2345V48.9612Z" fill="#09101D"/>
<path d="M17.2561 48.9612H15.2345V50.9526H17.2561V48.9612Z" fill="#09101D"/>
<path d="M27.3638 48.9612H25.3423V50.9526H27.3638V48.9612Z" fill="#09101D"/>
<path d="M29.3854 48.9612H27.3638V50.9526H29.3854V48.9612Z" fill="#09101D"/>
<path d="M31.4069 48.9612H29.3854V50.9526H31.4069V48.9612Z" fill="#09101D"/>
<path d="M35.45 48.9612H33.4285V50.9526H35.45V48.9612Z" fill="#09101D"/>
<path d="M41.5147 48.9612H39.4931V50.9526H41.5147V48.9612Z" fill="#09101D"/>
<path d="M43.5362 48.9612H41.5147V50.9526H43.5362V48.9612Z" fill="#09101D"/>
<path d="M47.5793 48.9612H45.5578V50.9526H47.5793V48.9612Z" fill="#09101D"/>
<path d="M49.6009 48.9612H47.5793V50.9526H49.6009V48.9612Z" fill="#09101D"/>
<path d="M53.644 48.9612H51.6224V50.9526H53.644V48.9612Z" fill="#09101D"/>
<path d="M55.6655 48.9612H53.644V50.9526H55.6655V48.9612Z" fill="#09101D"/>
<path d="M57.6871 48.9612H55.6655V50.9526H57.6871V48.9612Z" fill="#09101D"/>
<path d="M61.7302 48.9612H59.7086V50.9526H61.7302V48.9612Z" fill="#09101D"/>
<path d="M63.7518 48.9612H61.7302V50.9526H63.7518V48.9612Z" fill="#09101D"/>
<path d="M65.7733 48.9612H63.7518V50.9526H65.7733V48.9612Z" fill="#09101D"/>
<path d="M67.7949 48.9612H65.7733V50.9526H67.7949V48.9612Z" fill="#09101D"/>
<path d="M19.2776 50.9526H17.2561V52.944H19.2776V50.9526Z" fill="#09101D"/>
<path d="M25.3423 50.9526H23.3207V52.944H25.3423V50.9526Z" fill="#09101D"/>
<path d="M27.3638 50.9526H25.3423V52.944H27.3638V50.9526Z" fill="#09101D"/>
<path d="M31.4069 50.9526H29.3854V52.944H31.4069V50.9526Z" fill="#09101D"/>
<path d="M33.4285 50.9526H31.4069V52.944H33.4285V50.9526Z" fill="#09101D"/>
<path d="M39.4931 50.9526H37.4716V52.944H39.4931V50.9526Z" fill="#09101D"/>
<path d="M43.5362 50.9526H41.5147V52.944H43.5362V50.9526Z" fill="#09101D"/>
<path d="M49.6009 50.9526H47.5793V52.944H49.6009V50.9526Z" fill="#09101D"/>
<path d="M51.6224 50.9526H49.6009V52.944H51.6224V50.9526Z" fill="#09101D"/>
<path d="M53.644 50.9526H51.6224V52.944H53.644V50.9526Z" fill="#09101D"/>
<path d="M55.6655 50.9526H53.644V52.944H55.6655V50.9526Z" fill="#09101D"/>
<path d="M57.6871 50.9526H55.6655V52.944H57.6871V50.9526Z" fill="#09101D"/>
<path d="M59.7086 50.9526H57.6871V52.944H59.7086V50.9526Z" fill="#09101D"/>
<path d="M61.7302 50.9526H59.7086V52.944H61.7302V50.9526Z" fill="#09101D"/>
<path d="M63.7518 50.9526H61.7302V52.944H63.7518V50.9526Z" fill="#09101D"/>
<path d="M69.8164 50.9526H67.7949V52.944H69.8164V50.9526Z" fill="#09101D"/>
<path d="M29.3854 52.944H27.3638V54.9353H29.3854V52.944Z" fill="#09101D"/>
<path d="M31.4069 52.944H29.3854V54.9353H31.4069V52.944Z" fill="#09101D"/>
<path d="M33.4285 52.944H31.4069V54.9353H33.4285V52.944Z" fill="#09101D"/>
<path d="M39.4931 52.944H37.4716V54.9353H39.4931V52.944Z" fill="#09101D"/>
<path d="M45.5578 52.944H43.5362V54.9353H45.5578V52.944Z" fill="#09101D"/>
<path d="M49.6009 52.944H47.5793V54.9353H49.6009V52.944Z" fill="#09101D"/>
<path d="M53.644 52.944H51.6224V54.9353H53.644V52.944Z" fill="#09101D"/>
<path d="M61.7302 52.944H59.7086V54.9353H61.7302V52.944Z" fill="#09101D"/>
<path d="M69.8164 52.944H67.7949V54.9353H69.8164V52.944Z" fill="#09101D"/>
<path d="M13.213 54.9353H11.1914V56.9267H13.213V54.9353Z" fill="#09101D"/>
<path d="M15.2345 54.9353H13.213V56.9267H15.2345V54.9353Z" fill="#09101D"/>
<path d="M17.2561 54.9353H15.2345V56.9267H17.2561V54.9353Z" fill="#09101D"/>
<path d="M19.2776 54.9353H17.2561V56.9267H19.2776V54.9353Z" fill="#09101D"/>
<path d="M21.2992 54.9353H19.2776V56.9267H21.2992V54.9353Z" fill="#09101D"/>
<path d="M23.3207 54.9353H21.2992V56.9267H23.3207V54.9353Z" fill="#09101D"/>
<path d="M25.3423 54.9353H23.3207V56.9267H25.3423V54.9353Z" fill="#09101D"/>
<path d="M37.4716 54.9353H35.45V56.9267H37.4716V54.9353Z" fill="#09101D"/>
<path d="M39.4931 54.9353H37.4716V56.9267H39.4931V54.9353Z" fill="#09101D"/>
<path d="M41.5147 54.9353H39.4931V56.9267H41.5147V54.9353Z" fill="#09101D"/>
<path d="M43.5362 54.9353H41.5147V56.9267H43.5362V54.9353Z" fill="#09101D"/>
<path d="M49.6009 54.9353H47.5793V56.9267H49.6009V54.9353Z" fill="#09101D"/>
<path d="M53.644 54.9353H51.6224V56.9267H53.644V54.9353Z" fill="#09101D"/>
<path d="M57.6871 54.9353H55.6655V56.9267H57.6871V54.9353Z" fill="#09101D"/>
<path d="M61.7302 54.9353H59.7086V56.9267H61.7302V54.9353Z" fill="#09101D"/>
<path d="M67.7949 54.9353H65.7733V56.9267H67.7949V54.9353Z" fill="#09101D"/>
<path d="M69.8164 54.9353H67.7949V56.9267H69.8164V54.9353Z" fill="#09101D"/>
<path d="M13.213 56.9267H11.1914V58.9181H13.213V56.9267Z" fill="#09101D"/>
<path d="M25.3423 56.9267H23.3207V58.9181H25.3423V56.9267Z" fill="#09101D"/>
<path d="M31.4069 56.9267H29.3854V58.9181H31.4069V56.9267Z" fill="#09101D"/>
<path d="M37.4716 56.9267H35.45V58.9181H37.4716V56.9267Z" fill="#09101D"/>
<path d="M39.4931 56.9267H37.4716V58.9181H39.4931V56.9267Z" fill="#09101D"/>
<path d="M41.5147 56.9267H39.4931V58.9181H41.5147V56.9267Z" fill="#09101D"/>
<path d="M45.5578 56.9267H43.5362V58.9181H45.5578V56.9267Z" fill="#09101D"/>
<path d="M49.6009 56.9267H47.5793V58.9181H49.6009V56.9267Z" fill="#09101D"/>
<path d="M51.6224 56.9267H49.6009V58.9181H51.6224V56.9267Z" fill="#09101D"/>
<path d="M53.644 56.9267H51.6224V58.9181H53.644V56.9267Z" fill="#09101D"/>
<path d="M61.7302 56.9267H59.7086V58.9181H61.7302V56.9267Z" fill="#09101D"/>
<path d="M65.7733 56.9267H63.7518V58.9181H65.7733V56.9267Z" fill="#09101D"/>
<path d="M67.7949 56.9267H65.7733V58.9181H67.7949V56.9267Z" fill="#09101D"/>
<path d="M13.213 58.9181H11.1914V60.9095H13.213V58.9181Z" fill="#09101D"/>
<path d="M17.2561 58.9181H15.2345V60.9095H17.2561V58.9181Z" fill="#09101D"/>
<path d="M19.2776 58.9181H17.2561V60.9095H19.2776V58.9181Z" fill="#09101D"/>
<path d="M21.2992 58.9181H19.2776V60.9095H21.2992V58.9181Z" fill="#09101D"/>
<path d="M25.3423 58.9181H23.3207V60.9095H25.3423V58.9181Z" fill="#09101D"/>
<path d="M29.3854 58.9181H27.3638V60.9095H29.3854V58.9181Z" fill="#09101D"/>
<path d="M31.4069 58.9181H29.3854V60.9095H31.4069V58.9181Z" fill="#09101D"/>
<path d="M33.4285 58.9181H31.4069V60.9095H33.4285V58.9181Z" fill="#09101D"/>
<path d="M35.45 58.9181H33.4285V60.9095H35.45V58.9181Z" fill="#09101D"/>
<path d="M39.4931 58.9181H37.4716V60.9095H39.4931V58.9181Z" fill="#09101D"/>
<path d="M43.5362 58.9181H41.5147V60.9095H43.5362V58.9181Z" fill="#09101D"/>
<path d="M47.5793 58.9181H45.5578V60.9095H47.5793V58.9181Z" fill="#09101D"/>
<path d="M53.644 58.9181H51.6224V60.9095H53.644V58.9181Z" fill="#09101D"/>
<path d="M55.6655 58.9181H53.644V60.9095H55.6655V58.9181Z" fill="#09101D"/>
<path d="M57.6871 58.9181H55.6655V60.9095H57.6871V58.9181Z" fill="#09101D"/>
<path d="M59.7086 58.9181H57.6871V60.9095H59.7086V58.9181Z" fill="#09101D"/>
<path d="M61.7302 58.9181H59.7086V60.9095H61.7302V58.9181Z" fill="#09101D"/>
<path d="M65.7733 58.9181H63.7518V60.9095H65.7733V58.9181Z" fill="#09101D"/>
<path d="M13.213 60.9095H11.1914V62.9009H13.213V60.9095Z" fill="#09101D"/>
<path d="M17.2561 60.9095H15.2345V62.9009H17.2561V60.9095Z" fill="#09101D"/>
<path d="M19.2776 60.9095H17.2561V62.9009H19.2776V60.9095Z" fill="#09101D"/>
<path d="M21.2992 60.9095H19.2776V62.9009H21.2992V60.9095Z" fill="#09101D"/>
<path d="M25.3423 60.9095H23.3207V62.9009H25.3423V60.9095Z" fill="#09101D"/>
<path d="M31.4069 60.9095H29.3854V62.9009H31.4069V60.9095Z" fill="#09101D"/>
<path d="M35.45 60.9095H33.4285V62.9009H35.45V60.9095Z" fill="#09101D"/>
<path d="M37.4716 60.9095H35.45V62.9009H37.4716V60.9095Z" fill="#09101D"/>
<path d="M39.4931 60.9095H37.4716V62.9009H39.4931V60.9095Z" fill="#09101D"/>
<path d="M43.5362 60.9095H41.5147V62.9009H43.5362V60.9095Z" fill="#09101D"/>
<path d="M45.5578 60.9095H43.5362V62.9009H45.5578V60.9095Z" fill="#09101D"/>
<path d="M47.5793 60.9095H45.5578V62.9009H47.5793V60.9095Z" fill="#09101D"/>
<path d="M51.6224 60.9095H49.6009V62.9009H51.6224V60.9095Z" fill="#09101D"/>
<path d="M53.644 60.9095H51.6224V62.9009H53.644V60.9095Z" fill="#09101D"/>
<path d="M59.7086 60.9095H57.6871V62.9009H59.7086V60.9095Z" fill="#09101D"/>
<path d="M61.7302 60.9095H59.7086V62.9009H61.7302V60.9095Z" fill="#09101D"/>
<path d="M63.7518 60.9095H61.7302V62.9009H63.7518V60.9095Z" fill="#09101D"/>
<path d="M67.7949 60.9095H65.7733V62.9009H67.7949V60.9095Z" fill="#09101D"/>
<path d="M13.213 62.9009H11.1914V64.8922H13.213V62.9009Z" fill="#09101D"/>
<path d="M17.2561 62.9009H15.2345V64.8922H17.2561V62.9009Z" fill="#09101D"/>
<path d="M19.2776 62.9009H17.2561V64.8922H19.2776V62.9009Z" fill="#09101D"/>
<path d="M21.2992 62.9009H19.2776V64.8922H21.2992V62.9009Z" fill="#09101D"/>
<path d="M25.3423 62.9009H23.3207V64.8922H25.3423V62.9009Z" fill="#09101D"/>
<path d="M29.3854 62.9009H27.3638V64.8922H29.3854V62.9009Z" fill="#09101D"/>
<path d="M31.4069 62.9009H29.3854V64.8922H31.4069V62.9009Z" fill="#09101D"/>
<path d="M33.4285 62.9009H31.4069V64.8922H33.4285V62.9009Z" fill="#09101D"/>
<path d="M39.4931 62.9009H37.4716V64.8922H39.4931V62.9009Z" fill="#09101D"/>
<path d="M43.5362 62.9009H41.5147V64.8922H43.5362V62.9009Z" fill="#09101D"/>
<path d="M49.6009 62.9009H47.5793V64.8922H49.6009V62.9009Z" fill="#09101D"/>
<path d="M51.6224 62.9009H49.6009V64.8922H51.6224V62.9009Z" fill="#09101D"/>
<path d="M53.644 62.9009H51.6224V64.8922H53.644V62.9009Z" fill="#09101D"/>
<path d="M55.6655 62.9009H53.644V64.8922H55.6655V62.9009Z" fill="#09101D"/>
<path d="M57.6871 62.9009H55.6655V64.8922H57.6871V62.9009Z" fill="#09101D"/>
<path d="M61.7302 62.9009H59.7086V64.8922H61.7302V62.9009Z" fill="#09101D"/>
<path d="M63.7518 62.9009H61.7302V64.8922H63.7518V62.9009Z" fill="#09101D"/>
<path d="M65.7733 62.9009H63.7518V64.8922H65.7733V62.9009Z" fill="#09101D"/>
<path d="M67.7949 62.9009H65.7733V64.8922H67.7949V62.9009Z" fill="#09101D"/>
<path d="M13.213 64.8922H11.1914V66.8836H13.213V64.8922Z" fill="#09101D"/>
<path d="M25.3423 64.8922H23.3207V66.8836H25.3423V64.8922Z" fill="#09101D"/>
<path d="M29.3854 64.8922H27.3638V66.8836H29.3854V64.8922Z" fill="#09101D"/>
<path d="M31.4069 64.8922H29.3854V66.8836H31.4069V64.8922Z" fill="#09101D"/>
<path d="M35.45 64.8922H33.4285V66.8836H35.45V64.8922Z" fill="#09101D"/>
<path d="M37.4716 64.8922H35.45V66.8836H37.4716V64.8922Z" fill="#09101D"/>
<path d="M39.4931 64.8922H37.4716V66.8836H39.4931V64.8922Z" fill="#09101D"/>
<path d="M43.5362 64.8922H41.5147V66.8836H43.5362V64.8922Z" fill="#09101D"/>
<path d="M45.5578 64.8922H43.5362V66.8836H45.5578V64.8922Z" fill="#09101D"/>
<path d="M53.644 64.8922H51.6224V66.8836H53.644V64.8922Z" fill="#09101D"/>
<path d="M59.7086 64.8922H57.6871V66.8836H59.7086V64.8922Z" fill="#09101D"/>
<path d="M63.7518 64.8922H61.7302V66.8836H63.7518V64.8922Z" fill="#09101D"/>
<path d="M65.7733 64.8922H63.7518V66.8836H65.7733V64.8922Z" fill="#09101D"/>
<path d="M13.213 66.8836H11.1914V68.875H13.213V66.8836Z" fill="#09101D"/>
<path d="M15.2345 66.8836H13.213V68.875H15.2345V66.8836Z" fill="#09101D"/>
<path d="M17.2561 66.8836H15.2345V68.875H17.2561V66.8836Z" fill="#09101D"/>
<path d="M19.2776 66.8836H17.2561V68.875H19.2776V66.8836Z" fill="#09101D"/>
<path d="M21.2992 66.8836H19.2776V68.875H21.2992V66.8836Z" fill="#09101D"/>
<path d="M23.3207 66.8836H21.2992V68.875H23.3207V66.8836Z" fill="#09101D"/>
<path d="M25.3423 66.8836H23.3207V68.875H25.3423V66.8836Z" fill="#09101D"/>
<path d="M29.3854 66.8836H27.3638V68.875H29.3854V66.8836Z" fill="#09101D"/>
<path d="M37.4716 66.8836H35.45V68.875H37.4716V66.8836Z" fill="#09101D"/>
<path d="M39.4931 66.8836H37.4716V68.875H39.4931V66.8836Z" fill="#09101D"/>
<path d="M41.5147 66.8836H39.4931V68.875H41.5147V66.8836Z" fill="#09101D"/>
<path d="M43.5362 66.8836H41.5147V68.875H43.5362V66.8836Z" fill="#09101D"/>
<path d="M49.6009 66.8836H47.5793V68.875H49.6009V66.8836Z" fill="#09101D"/>
<path d="M51.6224 66.8836H49.6009V68.875H51.6224V66.8836Z" fill="#09101D"/>
<path d="M53.644 66.8836H51.6224V68.875H53.644V66.8836Z" fill="#09101D"/>
<path d="M55.6655 66.8836H53.644V68.875H55.6655V66.8836Z" fill="#09101D"/>
<path d="M65.7733 66.8836H63.7518V68.875H65.7733V66.8836Z" fill="#09101D"/>
<path d="M67.7949 66.8836H65.7733V68.875H67.7949V66.8836Z" fill="#09101D"/>
<rect x="1" y="0.5" width="79" height="79" rx="12.5" stroke="white"/>
</svg>
