<svg width="47" height="47" fill="none" xmlns="http://www.w3.org/2000/svg"><path d="M13.537.941H1.273a.767.767 0 00-.766.767V13.97c0 .424.343.767.766.767h12.264a.767.767 0 00.767-.767V1.708a.766.766 0 00-.767-.767zm-.766 12.264H2.04V2.474h10.73v10.73zM45.4 5.693l-6.898-4.599a.767.767 0 00-.843 0l-6.898 4.6a.766.766 0 00-.33.766l1.533 7.664a.767.767 0 00.766.614h10.7c.37.007.693-.25.767-.614L45.73 6.46a.767.767 0 00-.33-.767zm-2.598 7.512h-9.474l-1.31-6.546 6.047-4.032 6.048 4.032-1.311 6.546zM15.73 45.78l-6.9-12.263a.766.766 0 00-1.333 0L.6 45.78a.766.766 0 00.674 1.15H15.07a.766.766 0 00.66-1.15zm-13.146-.383l5.588-9.964 5.587 9.964H2.584zM38.83 31.6a7.665 7.665 0 100 15.33 7.665 7.665 0 000-15.33zm0 13.797a6.132 6.132 0 11.001-12.263 6.132 6.132 0 010 12.264zM28.867 7.073H18.45l1.763-1.755-1.088-1.089-3.066 3.066a.766.766 0 000 1.089l3.066 3.066 1.088-1.089-1.763-1.755h10.417V7.073zm0 32.192H18.45l1.763-1.755-1.088-1.088-3.066 3.066a.767.767 0 00-.005 1.084l.005.004 3.066 3.066 1.088-1.088-1.763-1.756h10.417v-1.533zM39.375 17.26a.766.766 0 00-1.088 0l-3.066 3.066 1.088 1.088 1.755-1.763v10.417h1.533V19.65l1.756 1.763 1.088-1.088-3.066-3.066zm-32.191 0a.766.766 0 00-1.084-.005l-.005.005-3.066 3.066 1.089 1.088 1.755-1.763v10.417h1.533V19.65l1.755 1.763 1.089-1.088-3.066-3.066z" fill="#4F4F4F"/></svg>