<svg width="170" height="32" fill="none" xmlns="http://www.w3.org/2000/svg"><g clip-path="url(#clip0_5180_18058)"><path d="M163.407 17.406c.446-.574.497-1.22.709-1.796a87.044 87.044 0 001.23-3.682c.421-1.32.884-2.635 1.282-3.965.236-.79.223-.791 1.031-.791.491 0 .982.016 1.474 0 .358-.017.421.117.32.425-.787 2.19-1.581 4.377-2.358 6.57-.587 1.664-1.137 3.339-1.735 4.999-.21.564-.435 1.12-.608 1.699a.723.723 0 01-.185.353c-.565.461-1.234.104-1.851.207-.28.048-.408-.163-.484-.38-.459-1.323-.908-2.653-1.369-3.976-.37-1.064-.755-2.125-1.13-3.19-.236-.675-.465-1.353-.701-2.03-.032-.088-.015-.22-.158-.233-.143-.012-.211.118-.24.23-.411 1.172-.813 2.344-1.223 3.514-.47 1.333-.946 2.662-1.411 3.998-.173.496-.337.996-.486 1.5-.116.39-.314.62-.779.577a4.118 4.118 0 00-.996 0c-.493.069-.697-.206-.83-.582a5513.352 5513.352 0 01-3.463-9.832c-.421-1.174-.842-2.349-1.263-3.515-.072-.206-.044-.326.21-.324h2.156c.268 0 .36.149.421.364l1.895 5.89c.396 1.209.811 2.414 1.219 3.619.028.085 0 .232.16.207.122-.017.162-.124.196-.221.349-1.034.7-2.068 1.053-3.101.391-1.166.802-2.326 1.191-3.492.299-.895.651-1.778.882-2.687.112-.44.31-.666.788-.585.07.006.14.006.21 0 1.474 0 1.426.01 1.866 1.377.711 2.216 1.473 4.415 2.221 6.615.265.713.495 1.442.756 2.238zm-24.058 4.089a7.243 7.243 0 01-6.895-10.065 7.3 7.3 0 011.642-2.392 7.466 7.466 0 012.457-1.583 7.567 7.567 0 012.889-.527c4.301.018 7.48 3.307 7.471 7.299a7.11 7.11 0 01-.569 2.824 7.218 7.218 0 01-1.646 2.383 7.376 7.376 0 01-2.461 1.564 7.492 7.492 0 01-2.888.497zm-4.752-7.313c0 .324-.015.65 0 .977.039.268.114.53.223.778a4.775 4.775 0 002.221 2.657 4.92 4.92 0 003.464.493c2.265-.509 3.509-2.423 3.724-4.246a5.188 5.188 0 00-.581-3.037 4.743 4.743 0 00-2.314-2.188 4.863 4.863 0 00-3.202-.256 4.785 4.785 0 00-2.644 1.792 4.633 4.633 0 00-.893 3.03h.002zm-27.308.049V7.686c0-.384.078-.529.514-.525 3.228.018 6.456.018 9.684 0 .434 0 .539.135.51.523a7.782 7.782 0 000 1.24c.031.395-.087.526-.516.522-2.331-.021-4.661-.01-6.992 0-.693 0-.693 0-.695.676 0 .876.025 1.753 0 2.627-.017.413.135.52.535.519 2.051-.015 4.101 0 6.152-.017.499 0 .657.17.631.62a10.23 10.23 0 000 1.135c.021.414-.176.573-.598.57-2.014 0-4.029 0-6.046-.016-.529 0-.684.141-.67.67.04 1.495-.01 2.99.028 4.484 0 .494-.156.62-.617.575a8.848 8.848 0 00-1.366 0c-.422.03-.533-.098-.529-.507-.025-2.187-.025-4.368-.025-6.55z" fill="#fff"/><path d="M6.83 8.03a5.045 5.045 0 001.63 2.962c.962.914 1.895 1.86 2.855 2.774.364.34.364.573 0 .912-1.026.973-2.007 1.988-3.034 2.958-1.352 1.28-1.722 2.871-1.362 4.58.324 1.55 1.343 2.688 2.859 3.273 2.027.788 3.838.389 5.387-1.12.386-.374.775-.742 1.16-1.114a.454.454 0 01.326-.185.463.463 0 01.357.118c.368.288.777.523 1.212.7.247.082.255.26.076.435-1.442 1.435-2.777 3.008-4.94 3.477-2.64.571-5.601-.206-7.368-2.598a6.708 6.708 0 01-1.373-4.013c-.025-2.03.752-3.72 2.19-5.143.478-.471.947-.95 1.453-1.391.372-.322.332-.533-.013-.858-.686-.64-1.4-1.265-1.876-2.094-.59-1.034-.711-2.053-.11-3.1.112-.254.316-.458.571-.573z" fill="#FDB604"/><path d="M21.69 23.89c-2.425.047-4.21-.954-5.718-2.512-.356-.366-.741-.705-1.072-1.092-.299-.347-.518-.283-.796.014a11.477 11.477 0 01-1.873 1.723c-1.217.826-2.6.862-3.719.113-.136-.093-.294-.184-.26-.335.033-.15.237-.089.366-.117a4.79 4.79 0 002.377-1.3c1.031-1.018 2.071-2.027 3.086-3.06.31-.315.51-.32.842 0 1.169 1.164 2.278 2.396 3.58 3.423a4.882 4.882 0 002.09.979 4.928 4.928 0 002.315-.087 4.865 4.865 0 002.008-1.133 4.746 4.746 0 001.244-1.92c.646-1.796.235-3.48-1.119-4.894-.42-.434-.858-.846-1.288-1.268-.21-.206-.28-.413-.036-.686.252-.314.464-.657.632-1.021.154-.306.295-.434.579-.135.914.962 2.017 1.77 2.674 2.936.774 1.375 1.155 2.824.892 4.444-.47 2.882-2.16 4.691-4.876 5.665a4.675 4.675 0 01-1.928.262z" fill="#fff"/><path d="M17.37 2.562c-1.253.08-2.422.434-3.352 1.364-.421.426-.87.827-1.29 1.257-.247.25-.44.302-.754.06a6.844 6.844 0 00-1.154-.657c-.246-.122-.34-.222-.11-.445.908-.876 1.718-1.86 2.798-2.553A6.703 6.703 0 0116.728.52c3.073-.206 5.353 1 6.865 3.608.441.78.704 1.646.77 2.536.232 2.497-.717 4.488-2.551 6.146-.407.368-.777.775-1.181 1.143-.21.207-.228.329 0 .533.406.37.79.765 1.172 1.158.878.9 1.447 1.912 1.304 3.219-.081.49-.277.956-.573 1.36-.053.08-.093.207-.227.174-.135-.034-.137-.145-.16-.244a5.475 5.475 0 00-.421-1.212c-.52-1.033-1.443-1.703-2.228-2.499a51.186 51.186 0 00-1.895-1.827c-.305-.277-.297-.472 0-.75 1.03-.98 2.038-1.98 3.053-2.971 2.305-2.256 2.122-5.524-.459-7.442-.804-.6-1.779-.844-2.827-.89z" fill="#FDB604"/><path d="M.5 11.77C.448 8.326 2.465 5.682 5.444 4.835c2.705-.77 5.147-.126 7.181 1.833.53.51 1.07 1.011 1.57 1.547.247.262.405.219.632 0 .582-.559 1.116-1.168 1.777-1.654 1.346-.972 2.84-1.05 3.982-.207.092.068.237.112.21.26 0 .046-.099.096-.158.104-1.387.207-2.356 1.052-3.271 2.007-.777.81-1.624 1.559-2.394 2.375-.369.389-.59.3-.916-.027-1.006-1.01-2.049-1.986-3.055-2.997a4.89 4.89 0 00-2-1.226 4.962 4.962 0 00-2.352-.161 4.92 4.92 0 00-2.154.94 4.802 4.802 0 00-1.452 1.824c-.83 1.738-.543 3.681.911 5.224.422.45.868.893 1.327 1.312.242.224.307.377.076.67a7.98 7.98 0 00-.708 1.185c-.122.227-.236.277-.42.087-1.313-1.292-2.793-2.45-3.382-4.296a6.992 6.992 0 01-.35-1.867zm119.932 2.472c0-2.181.013-4.362 0-6.543 0-.44.135-.567.565-.536.472.038.946.038 1.419 0 .456-.039.545.143.543.554-.015 3.515 0 7.008 0 10.512 0 .784 0 .784.779.784 2.086 0 4.17.01 6.255 0 .404 0 .57.09.537.512-.03.463-.03.927 0 1.39.014.3-.101.374-.392.374-3.084 0-6.169-.013-9.253 0-.421 0-.436-.184-.436-.498-.012-2.186-.017-4.367-.017-6.55zm-56.894-.002c.044-2.913 1.284-5.154 3.939-6.552 1.339-.702 2.77-.826 4.29-.653a6.683 6.683 0 012.725.877A6.55 6.55 0 0176.58 9.84c2.548 3.515 1.598 8.85-2.66 10.992a7.015 7.015 0 01-4.473.593c-2.69-.498-4.553-2.04-5.497-4.616a7.19 7.19 0 01-.412-2.57zm7.227 6.257a5.202 5.202 0 003.06-.788c1.736-1.033 2.669-2.575 2.928-4.548a6.406 6.406 0 00-1.044-4.601c-1.127-1.654-2.691-2.514-4.72-2.605-1.569-.07-2.988.316-4.148 1.346-1.834 1.629-2.461 3.688-2.09 6.073.43 2.748 2.778 5.22 6.014 5.123zm-9.408.673c-.956.24-1.533.077-2.051-.636-1.196-1.654-2.495-3.22-3.745-4.827a.683.683 0 00-.617-.29c-1.28.013-2.558.017-3.838 0-.37 0-.474.117-.47.472.017 1.654 0 3.308.02 4.947 0 .444-.211.455-.536.447-.324-.009-.547.024-.545-.435.02-4.41.02-8.825 0-13.246 0-.337.095-.439.442-.437 2.068.019 4.14-.053 6.203.04 1.642.074 3.158.62 4.03 2.114 1.052 1.805.59 4.474-1.974 5.48-.4.17-.816.3-1.242.39-.42.076-.39.175-.16.462 1.373 1.724 2.737 3.465 4.095 5.193.089.104.112.259.388.327zm-10.702-9.858c0 .875.023 1.751-.01 2.626-.017.413.134.529.534.523 1.506-.017 3.011 0 4.518 0a5.177 5.177 0 002.137-.434 3.019 3.019 0 001.596-1.543 2.94 2.94 0 00.089-2.197c-.476-1.398-1.885-2-3.2-2.067-1.746-.087-3.5-.021-5.251-.035-.314 0-.421.082-.421.413.008.893.008 1.805.008 2.714zM86.294 21.49a8.622 8.622 0 01-5.707-2.018c-.37-.302-.1-.457.054-.656.154-.198.325-.469.66-.17.751.668 1.583 1.241 2.564 1.508 1.667.453 3.34.645 4.872-.44.808-.571 1.088-1.381 1.019-2.332-.072-.997-.702-1.576-1.563-1.962-.894-.4-1.857-.583-2.81-.79-1.108-.24-2.184-.554-3.14-1.189-1.785-1.186-1.84-3.859-.227-5.242 1.461-1.255 3.186-1.422 5.036-1.094a8.075 8.075 0 013.032 1.3c.255.166.394.358.126.586-.21.18-.284.696-.787.297a6.049 6.049 0 00-2.216-1.13 6.116 6.116 0 00-2.494-.15c-1.511.208-2.947 1.144-2.699 3.087.135 1.05.89 1.544 1.764 1.925.956.413 1.988.575 2.998.812.863.2 1.694.511 2.472.926 2.242 1.201 2.032 4.49.124 5.76-1.031.688-2.16 1.008-3.078.971zm12.994.001a8.556 8.556 0 01-5.566-1.995c-.278-.227-.272-.396-.03-.62.211-.192.327-.58.727-.219a6.35 6.35 0 002.564 1.503c1.684.459 3.369.62 4.914-.48 1.278-.913 1.535-3.433-.632-4.283-1.162-.455-2.387-.633-3.579-.96-.991-.274-1.964-.595-2.72-1.322-1.442-1.391-1.292-3.868.32-5.065 1.474-1.087 3.118-1.27 4.889-.94a7.522 7.522 0 012.979 1.29c.223.155.471.322.181.576-.211.186-.286.728-.825.3a5.966 5.966 0 00-2.197-1.12 6.031 6.031 0 00-2.47-.143c-1.65.217-3.073 1.273-2.685 3.266.183.943.91 1.412 1.718 1.732 1.01.38 2.052.666 3.116.856a6.25 6.25 0 012.92 1.296c1.669 1.423 1.362 4.22-.611 5.485a5.496 5.496 0 01-3.013.843zm-58.29.004c-3.112.127-5.703-1.916-6.674-4.34-1.227-3.08-.375-6.802 2.337-8.807 1.853-1.362 3.907-1.668 6.141-1.216 1.356.275 2.455.97 3.49 1.82.279.227.192.339 0 .556-.332.378-.576.45-1 .062-1.56-1.447-3.477-1.915-5.524-1.538-2.166.399-3.682 1.717-4.408 3.768-.889 2.514-.543 4.875 1.3 6.898a5.526 5.526 0 001.753 1.284 5.6 5.6 0 002.122.517c1.924.136 3.532-.502 4.935-1.74.438-.39.71-.362 1.01.13.095.15.057.258-.086.39-1.034.953-2.175 1.69-3.58 2.026a9.294 9.294 0 01-1.816.19zm26.521 7.887c.444-.192.39-.62.522-.926.282-.64.459-1.321.682-1.985.029-.08.064-.159.108-.233a.308.308 0 01.155-.17.317.317 0 01.232-.017c.231.075.141.242.093.383-.377 1.044-.75 2.088-1.137 3.126a3.302 3.302 0 01-.27.717c-.082.122-.13.248-.303.219a.387.387 0 01-.316-.236c-.294-.862-.587-1.722-.86-2.59a.943.943 0 00-.33-.486c-.35 1.003-.688 1.966-1.033 2.925-.059.168-.076.401-.345.383-.236-.015-.284-.192-.354-.383-.446-1.228-.912-2.447-1.364-3.67-.05-.135-.146-.336.092-.38.192-.034.392-.034.485.249.334 1.017.703 2.024 1.07 3.06.42-.207.374-.62.496-.925.267-.663.457-1.36.661-2.048a.442.442 0 01.13-.245.455.455 0 01.251-.123c.21-.033.238.155.29.295.214.494.395 1.001.542 1.518.118.527.387.994.503 1.542zm53.288-2.313a8.61 8.61 0 00-1.343 1.792c-.265.413-.438.26-.632 0-.4-.56-.772-1.14-1.17-1.733-.211.176-.135.375-.137.546v2.421c0 .18 0 .366-.253.368-.252.002-.332-.145-.332-.37v-3.709a.292.292 0 01.05-.218.3.3 0 01.192-.12.48.48 0 01.307.028.466.466 0 01.223.209c.404.579.828 1.147 1.192 1.751.21.347.337.244.499 0 .38-.551.756-1.106 1.128-1.664.141-.207.297-.414.581-.327.285.087.194.335.194.532v3.514c-.019.171-.027.374-.263.378-.236.004-.24-.207-.242-.376v-2.067l.006-.955zm-31.35 1.804v1.034c.044 1.1-.746 1.497-1.54 1.583a2.596 2.596 0 01-1.263-.26c-.166-.066-.408-.153-.27-.413.117-.207.317-.1.464-.023.41.204.878.262 1.326.163a.804.804 0 00.442-.203.78.78 0 00.239-.417c.035-.143.16-.312 0-.414-.16-.1-.293.019-.422.09a1.588 1.588 0 01-1.534-.042 1.55 1.55 0 01-.555-.557 1.514 1.514 0 01-.008-1.507c.131-.23.32-.424.549-.562a1.587 1.587 0 011.534-.057c.238.113.442.386.703-.066.128-.224.353.018.358.266v1.392l-.023-.007zm-1.664.86c.653 0 1.232-.535 1.213-1.112-.019-.577-.632-1.079-1.242-1.069a1.111 1.111 0 00-.797.327 1.073 1.073 0 00-.306.794 1.03 1.03 0 00.33.773 1.069 1.069 0 00.802.287zm51.116-.433v-1.752c0-.15-.025-.322.185-.376.152-.037.32 0 .36.132.12.395.289.139.444.052a1.523 1.523 0 011.883.17c.522.465.678 1.368.358 2.098-.15.29-.384.531-.673.69a1.69 1.69 0 01-.951.205 1.329 1.329 0 01-.669-.263c-.375-.291-.348-.033-.352.207v.62c0 .207-.036.387-.292.4-.257.011-.299-.18-.293-.383v-1.803.002zm.577-.47c-.04.798.501 1.182 1.13 1.222.63.039 1.162-.521 1.158-1.24-.004-.72-.539-1.272-1.179-1.254-.64.02-1.116.552-1.109 1.272zm-47.219-.581a2.037 2.037 0 01.265-1.197 2.09 2.09 0 01.908-.84c.813-.444 1.642-.365 2.425.116.183.114.455.228.263.5-.162.23-.347.08-.534-.038-.97-.606-2.089-.352-2.596.576-.341.62-.129 1.79.4 2.274.488.445 1.585.517 2.185.077a1.1 1.1 0 00.12-.098.287.287 0 01.221-.121.293.293 0 01.234.097c.1.132.025.277-.141.413a2.37 2.37 0 01-2.862.076 2.3 2.3 0 01-.669-.756 2.628 2.628 0 01-.219-1.079zm36.751-.132v-1.753c0-.207-.114-.515.259-.498.373.016.242.32.244.523.013.653 0 1.306 0 1.96 0 .123-.046.285.137.349s.211-.106.28-.178c.383-.356.754-.728 1.128-1.094.08-.087.171-.164.27-.23.124-.072.314-.099.392 0 .077.1-.032.222-.139.323-.257.24-.478.52-.737.759-.259.24-.276.413-.026.68.31.33.592.683.843 1.059.078.113.313.283.115.43a.38.38 0 01-.509-.122c-.23-.29-.463-.575-.705-.852-.137-.157-.211-.478-.493-.354a.901.901 0 00-.55.693c-.042.24.142.668-.28.64-.421-.026-.21-.442-.225-.686-.023-.55-.004-1.1-.004-1.65zm-16.645 1.13v.927a.271.271 0 01-.187.279.245.245 0 01-.181.01.238.238 0 01-.137-.116c-.11-.248-.196-.147-.375-.047-.8.448-1.684.23-1.989-.463a.97.97 0 01.334-1.162.996.996 0 01.4-.174c.374-.09.764-.1 1.141-.027.133.033.337.12.421-.076a.465.465 0 00-.117-.48c-.27-.302-.632-.34-1.007-.3-.21.021-.41.077-.619.108-.113.017-.252.058-.282-.126-.029-.184.036-.234.198-.296 1.08-.413 2.543-.231 2.413 1.532v.414l-.013-.003zm-1.408-.403l-.434.042c-.274.027-.497.126-.558.413a.598.598 0 00.356.705c.476.26.863.076 1.236-.18a.686.686 0 00.259-.732c-.066-.31-.373-.159-.567-.22a1.402 1.402 0 00-.292-.028zm14.333.43c0 .292.017.583 0 .875-.017.291-.267.477-.421.242-.236-.34-.366-.122-.554-.033-.737.345-1.52.157-1.855-.45a.972.972 0 01-.008-.86.996.996 0 01.682-.54 2.977 2.977 0 011.246-.023c.438.095.438-.168.301-.443-.197-.399-.589-.448-.985-.43-.225 0-.448.077-.674.108-.126.016-.288.097-.317-.133-.024-.165.05-.229.21-.289 1.053-.413 2.499-.233 2.398 1.513-.01.153 0 .308 0 .463h-.023zm-1.398-.428c-.135.013-.31.025-.48.046a.537.537 0 00-.349.128.518.518 0 00-.175.323.56.56 0 00.305.635 1.131 1.131 0 001.322-.179.72.72 0 00.211-.744c-.074-.254-.358-.126-.543-.18a1.595 1.595 0 00-.291-.029zm23.811.401v.877a.292.292 0 01-.196.325.252.252 0 01-.206.009.255.255 0 01-.145-.144c-.112-.267-.192-.097-.329-.02-.757.413-1.631.26-1.976-.354a.97.97 0 01-.028-.879.99.99 0 01.695-.554c.39-.1.799-.111 1.194-.03.124.03.313.103.383-.048a.459.459 0 00-.084-.484c-.276-.333-.655-.362-1.053-.326-.192.018-.379.072-.569.103-.117.02-.258.066-.298-.106-.04-.171 0-.237.176-.314 1.31-.589 2.424.083 2.43 1.482l.006.463zm-.577 0c0-.146.034-.31-.21-.337a3.217 3.217 0 00-1.249 0 .582.582 0 00-.387.375.56.56 0 00.099.525.922.922 0 001.053.25c.366-.135.73-.314.684-.815l.01.002zm-90.687-.031v.926c0 .168-.05.319-.253.33-.202.01-.23-.17-.231-.325 0-.548.017-1.098-.02-1.654-.027-.413-.21-.767-.669-.872a.997.997 0 00-.586.025.977.977 0 00-.467.35.701.701 0 00-.124.482 28.81 28.81 0 000 1.594c0 .22-.063.383-.305.389-.242.006-.284-.19-.284-.395v-3.855c0-.207.023-.348.26-.35.239-.002.346.093.331.343-.02.344 0 .687 0 1.034 0 .143.01.263.236.166 1.415-.62 2.118-.16 2.129 1.345v.463l-.017.004zm23.262-2.009c-.27.385-.59.733-.954 1.034-.303.279-.278.49-.027.773.299.34.564.709.842 1.069.084.11.293.225.099.368a.374.374 0 01-.482-.075c-.25-.279-.463-.587-.708-.87-.145-.166-.21-.51-.522-.387a.9.9 0 00-.37.271.877.877 0 00-.186.416c-.046.24.144.682-.275.65-.42-.03-.211-.475-.211-.723a99.322 99.322 0 010-3.452c0-.163-.103-.413.227-.413.282 0 .261.219.261.413 0 .686 0 1.375.013 2.067 0 .128-.036.296.13.36.167.064.238-.116.327-.207.373-.358.728-.728 1.088-1.098a.642.642 0 01.747-.196zm54.528 1.846h-.892c-.131 0-.302-.045-.36.128-.047.139.035.252.117.37a1.188 1.188 0 00.779.496 1.216 1.216 0 00.906-.202c.181-.114.362-.225.494-.046.133.18-.096.306-.231.414a1.77 1.77 0 01-2.198-.143 1.846 1.846 0 01-.491-1.183c-.016-.439.127-.87.402-1.215a1.572 1.572 0 012.022-.337c.551.325.671.875.745 1.43.023.183-.16.286-.36.286h-.933v.002zm-.276-.39h.735c.276 0 .358-.156.263-.364-.172-.38-.433-.716-.886-.767-.453-.052-.762.194-.992.55-.229.355-.143.566.306.578.183.009.374.002.566.002h.008zm-74.786.392h-.842c-.42 0-.42.207-.263.488.314.533 1.09.695 1.71.329.179-.108.364-.25.488-.073.166.238-.122.364-.274.468a1.764 1.764 0 01-1.993-.087 1.874 1.874 0 01-.586-.907c-.1-.352-.095-.725.017-1.074.12-.34.353-.631.662-.827a1.672 1.672 0 011.04-.254c.39.051.748.245 1 .544.253.298.38.68.36 1.067a.313.313 0 01-.109.25.324.324 0 01-.266.076h-.946.002zm-.282-.393h.474c.21-.01.461.073.53-.206a.609.609 0 00-.21-.598c-.482-.48-1.103-.44-1.533.097a.548.548 0 00-.137.565c.087.207.3.124.461.136.163.013.276.006.415.006zm95.134.391h-.787c-.133 0-.31-.047-.375.106a.472.472 0 00.112.475 1.252 1.252 0 001.648.22c.183-.11.369-.23.491-.048.122.181-.101.337-.253.432a1.673 1.673 0 01-1.781.093 1.509 1.509 0 01-.627-.567 1.465 1.465 0 01-.215-.81c-.017-1.162.632-1.89 1.684-1.842a1.58 1.58 0 011.04.525c.265.3.402.689.381 1.085-.023.242-.137.333-.368.33-.318-.003-.632 0-.95.001zm-.275-.39h.526c.488-.013.615-.249.356-.66a.997.997 0 00-.8-.46 1.012 1.012 0 00-.84.384.611.611 0 00-.156.56c.069.244.309.167.495.175.141.007.273 0 .421 0h-.002zm-53.822.502v1.033c0 .116-.037.244-.191.273-.095.017-.196 0-.21-.093-.085-.293-.194-.192-.394-.087-.493.26-1.007.348-1.543.064a.943.943 0 01-.475-.447.917.917 0 01-.064-.642.944.944 0 01.275-.506.974.974 0 01.522-.257 2.98 2.98 0 011.247-.014c.36.068.438-.087.297-.401-.188-.414-.562-.476-.954-.505-.101 0-.21.052-.307.044-.23-.017-.57.316-.668-.048-.097-.364.364-.34.588-.413.407-.118.845-.08 1.225.105a.99.99 0 01.447.34.962.962 0 01.185.524c.016.341.042.684.063 1.034l-.042-.004zm-1.345-.325c-.094 0-.233.023-.372.03-.392.02-.605.206-.613.603-.008.397.259.554.596.634a1.12 1.12 0 00.842-.192.768.768 0 00.346-.346.748.748 0 00.062-.48c-.067-.334-.402-.156-.608-.232a1.073 1.073 0 00-.253-.01v-.007zm-26.99 1.685a1.7 1.7 0 01-1.244-.475 1.637 1.637 0 01-.493-1.218 1.628 1.628 0 01.484-1.23c.162-.162.357-.29.571-.374.215-.084.445-.125.675-.118.458.001.897.178 1.224.492.327.314.517.741.528 1.19a1.73 1.73 0 01-.515 1.214c-.326.324-.767.51-1.23.519zm1.198-1.654a1.268 1.268 0 00-.323-.896 1.314 1.314 0 00-.863-.431c-.614-.027-1.214.552-1.263 1.207.006.324.13.635.35.877.219.241.52.398.846.44.325 0 .638-.123.872-.345.234-.222.37-.524.38-.843v-.009zm28.824-1.234c.992-.682 1.771-.686 2.375-.017a1.882 1.882 0 01.015 2.361c-.632.705-1.339.718-2.457-.012v1.05c0 .17.086.434-.211.442-.341 0-.238-.283-.238-.463a165.765 165.765 0 010-3.307c0-.184-.111-.461.183-.519.367-.062.188.339.333.465zm-.072 1.166c-.007.323.115.637.34.873.225.236.536.377.865.392.631 0 1.113-.523 1.126-1.226.013-.703-.505-1.288-1.137-1.284a1.292 1.292 0 00-.845.393 1.25 1.25 0 00-.349.852zm-19.264.002V27.52c0-.136 0-.29.171-.339.17-.05.29-.037.347.13.089.255.192.129.34.048 1.052-.577 1.966-.136 2.105 1.034.037.565.043 1.131.019 1.697 0 .207-.072.382-.325.376-.252-.006-.21-.223-.21-.382v-1.545c0-.583-.381-.965-.918-.959a.97.97 0 00-.68.277.936.936 0 00-.278.67c-.017.531 0 1.063 0 1.594 0 .194-.046.351-.284.339-.2 0-.255-.151-.255-.323l-.032-1.33zm-31.658-.349c0-.532-.012-1.063 0-1.594 0-.275-.096-.366-.364-.354-.267.013-.56 0-.842 0-.15 0-.29-.018-.31-.206a.228.228 0 01.06-.195.239.239 0 01.193-.074h3.047a.228.228 0 01.19.07.218.218 0 01.054.192c0 .155-.101.207-.242.207h-.263c-.975.013-.975.013-.975.947v2.522c0 .227 0 .49-.314.49-.313 0-.23-.29-.233-.47-.009-.506 0-1.02 0-1.535zm97.93.376a1.633 1.633 0 01.222-.87 1.67 1.67 0 01.652-.629 1.657 1.657 0 011.788.046c.151.095.398.186.265.413-.152.27-.339.095-.522 0-.617-.345-1.169-.275-1.556.184a1.429 1.429 0 000 1.654 1.21 1.21 0 001.592.207c.193-.129.397-.248.534-.048s-.122.306-.267.413a1.59 1.59 0 01-1.766.135 1.65 1.65 0 01-.697-.616 1.607 1.607 0 01-.245-.89zm-40.212 1.16c.175-.015.331-.108.367.12a.298.298 0 01-.211.357.97.97 0 01-1.062-.26.929.929 0 01-.188-.331c-.141-.486-.061-.988-.08-1.482a1.191 1.191 0 010-.358c.122-.399-.6-.378-.404-.72.138-.24.484-.353.408-.733a.297.297 0 01.041-.274.31.31 0 01.249-.13c.285 0 .259.253.236.414-.071.496.192.583.611.546.179-.017.421-.064.421.232 0 .295-.246.289-.446.264-.457-.056-.632.108-.592.569.026.375.026.753 0 1.128-.004.498.208.722.65.658zm28.174-1.241a2.573 2.573 0 010-.667c.122-.428-.499-.377-.446-.712.044-.266.547-.244.446-.653-.059-.233-.025-.537.32-.519.295.015.238.306.211.494-.049.424.174.486.53.47.183 0 .466-.108.482.223.017.37-.288.287-.488.269-.421-.042-.552.134-.524.529.023.413.023.827 0 1.24-.017.457.21.62.646.585.135 0 .324-.136.358.132.034.27-.141.33-.341.373-.632.142-1.154-.259-1.206-.935-.022-.273 0-.548 0-.827l.012-.002zm-61.648-1.006c.23-.27.528-.476.865-.596.139-.039.337-.093.35.157 0 .16.052.319-.2.397-.856.271-1.053.565-1.08 1.447v.924c0 .207-.03.393-.287.414-.257.02-.28-.197-.28-.393v-2.313c0-.207-.13-.534.227-.596.358-.062.325.263.404.559zm51.511 1.062v-1.335c0-.114-.021-.25.135-.302a.261.261 0 01.205.001.262.262 0 01.142.146c.141.31.31.262.539.08.151-.113.322-.2.503-.256.124-.041.301-.06.322.145.015.144.07.355-.139.388-1.097.168-1.147.964-1.149 1.795v.62c0 .207-.093.382-.329.386-.235.005-.21-.217-.223-.38-.01-.432-.006-.86-.006-1.288zm17.445-.661v1.957c0 .186-.013.364-.255.364s-.331-.138-.331-.368v-3.915c0-.234.123-.302.314-.319.24-.022.278.12.276.323-.011.653-.004 1.304-.004 1.958zm-29.787.008v1.902c0 .244-.063.424-.334.413-.272-.01-.253-.231-.251-.413v-3.808c0-.217.027-.38.295-.366.267.014.303.155.297.38-.017.629-.007 1.249-.007 1.892zm-33.422.633v-1.288c0-.153-.017-.325.21-.337a.275.275 0 01.296.152.263.263 0 01.025.114c.01.926.01 1.854 0 2.783a.254.254 0 01-.097.207.266.266 0 01-.225.051c-.19-.016-.211-.143-.211-.291.004-.463.004-.928.002-1.392zm24.814-.003v-1.333c0-.134 0-.287.21-.29.211-.002.236.123.236.271v2.773c0 .15-.053.275-.24.264-.187-.01-.211-.159-.211-.297.003-.462.005-.925.005-1.388zm.219-2.28c-.211.02-.289-.124-.293-.279-.004-.155.074-.324.314-.31.24.015.301.151.296.335-.004.184-.138.26-.317.254zm-24.751-.002c-.2.025-.3-.047-.29-.252 0-.17-.025-.35.252-.34.21 0 .335.05.34.282.004.232-.079.325-.302.31z" fill="#fff"/></g><defs><clipPath id="clip0_5180_18058"><path fill="#fff" transform="translate(.5 .497)" d="M0 0h169v31H0z"/></clipPath></defs></svg>