<svg width="64" height="66" fill="none" xmlns="http://www.w3.org/2000/svg"><path d="M12.242 42.922a15.428 15.428 0 00-3.447 4.703l-.446.94-7.248 9.148a.947.947 0 101.486 1.177L9.9 49.656a.956.956 0 00.114-.182l.492-1.037a13.54 13.54 0 013.025-4.128.948.948 0 00-1.29-1.387zm50.004-6.415a3.645 3.645 0 00-5.132-.423l-.49.415a3.617 3.617 0 00-.795-1.657 3.646 3.646 0 00-5.132-.423l-.434.368a3.646 3.646 0 00-5.92-2.027l-7.283 6.171a4.305 4.305 0 00-1.176-.164H22.8c-2.427 0-4.855.582-7.021 1.684a.947.947 0 00.859 1.689 13.666 13.666 0 016.162-1.478h13.085a2.429 2.429 0 012.425 2.426 2.41 2.41 0 01-.73 1.735c-.47.46-1.087.702-1.748.69h-8.466a.947.947 0 100 1.895h8.435l.087.001a4.285 4.285 0 003.352-1.599h8.005a3.61 3.61 0 002.33-.855l8.764-7.426a1.749 1.749 0 012.461.203c.623.735.532 1.84-.203 2.462L46.764 51.917a8.593 8.593 0 01-4.542 1.982l-1.706.205a.947.947 0 10.226 1.881l1.707-.205a10.48 10.48 0 005.54-2.417L61.822 41.64a3.646 3.646 0 00.424-5.133zm-16.68-2.302a1.749 1.749 0 012.463.203 1.74 1.74 0 01-.047 2.311L40.2 43.315a4.309 4.309 0 00-1.378-3.393l6.746-5.717zm-3.144 9.71l9.5-8.05a1.749 1.749 0 012.462.203 1.748 1.748 0 01-.203 2.461l-5.83 4.98a1.713 1.713 0 01-1.106.406h-4.823zM36.49 54.588l-9.714 1.169a.948.948 0 00-.614.333l-6.338 7.587a.947.947 0 001.454 1.215l6.097-7.299 9.342-1.124a.947.947 0 10-.226-1.88z" fill="#000"/><path d="M28.967 27.866s-5.536-8.62-5.544-8.63a10.532 10.532 0 01-1.8-4.487.947.947 0 10-1.874.28 12.434 12.434 0 002.113 5.281l5.36 8.346v1.382c0 .4.142.767.376 1.056v3.256a2.767 2.767 0 002.765 2.765h3.342a2.767 2.767 0 002.764-2.765v-3.256c.235-.289.376-.656.376-1.056v-1.382l5.36-8.346a12.344 12.344 0 002.252-7.133c0-4.107-2.027-7.943-5.422-10.263-3.468-2.37-7.813-2.81-11.919-1.21a11.553 11.553 0 00-6.526 6.484 14.17 14.17 0 00-.73 2.473.947.947 0 001.858.366 12.33 12.33 0 01.634-2.141 9.653 9.653 0 015.453-5.416c3.514-1.37 7.218-1.003 10.16 1.008a10.533 10.533 0 014.597 8.7 10.46 10.46 0 01-1.917 6.058c-.008.01-5.545 8.63-5.545 8.63a.949.949 0 00-.15.512v1.445h-.232l.54-9.159h.903a2.638 2.638 0 002.635-2.635v-.105a2.638 2.638 0 00-2.635-2.635 2.638 2.638 0 00-2.63 2.48l-.06 1h-2.866l-.06-1a2.638 2.638 0 00-2.63-2.48 2.638 2.638 0 00-2.635 2.635v.105a2.638 2.638 0 002.635 2.635h.903l.54 9.159h-.24v-1.445a.947.947 0 00-.15-.512zm6.455-9.986a.741.741 0 011.48.044v.104a.74.74 0 01-.74.74h-.792l.052-.888zm-7.507.89a.741.741 0 01-.74-.741v-.105a.741.741 0 011.48-.043l.052.888h-.792zm6.66 15.58c0 .48-.39.87-.87.87h-3.343a.87.87 0 01-.869-.87v-2.633h5.081v2.634zm-3.859-13.686h2.644l-.54 9.159h-1.564l-.54-9.16zm17.726-6.458c0 .524.424.948.948.948h2.233a.947.947 0 100-1.895H49.39a.947.947 0 00-.948.947zm-.551-5.009c.11 0 .22-.02.33-.06l2.093-.776a.947.947 0 10-.658-1.776l-2.094.776a.947.947 0 00.33 1.836zm-.329 11.855l2.094.776a.948.948 0 10.658-1.777l-2.094-.776a.948.948 0 00-.658 1.777zm-35.118-5.898h2.233a.947.947 0 100-1.895h-2.233a.947.947 0 100 1.895zm1.309-6.792l2.094.776a.947.947 0 10.659-1.777l-2.094-.776a.948.948 0 00-.659 1.777zm3.312 11.472a.947.947 0 00-1.218-.56l-2.094.777a.947.947 0 00.659 1.777l2.094-.776a.947.947 0 00.559-1.218z" fill="#000"/></svg>