<svg width="31" height="50" fill="none" xmlns="http://www.w3.org/2000/svg"><path d="M30.096 17.759c-.173-.327-.433-.49-.78-.49H19.09L29.23 2.161a.706.706 0 000-.817.924.924 0 00-.78-.408H14.582a.923.923 0 00-.78.408l-13 24.5a.706.706 0 000 .817c.173.245.52.408.78.408h8.927L.802 48.874c-.173.327 0 .735.347.98.086.082.26.082.433.082.26 0 .52-.082.693-.245L30.01 18.657c.173-.245.26-.571.086-.898zM4.616 44.464l7.973-17.967c.087-.245.087-.49-.086-.735-.174-.163-.434-.326-.694-.326H2.97L15.104 2.569H26.89L16.663 17.677a.706.706 0 000 .817.924.924 0 00.78.408h10.053L4.616 44.464z" fill="#4F4F4F"/></svg>