<svg width="40" height="50" fill="none" xmlns="http://www.w3.org/2000/svg"><path d="M34.234 6.62h-4.448V4.63c0-.643-.702-.935-1.346-.935h-3.452C24.168 1.354 22.12.183 19.779.183a5.326 5.326 0 00-5.208 3.512h-3.394c-.644 0-1.288.292-1.288.936v1.99H5.441a4.974 4.974 0 00-4.916 4.74v33.533c0 2.575 2.341 4.448 4.916 4.448h28.793c2.575 0 4.916-1.873 4.916-4.448V11.36a4.974 4.974 0 00-4.916-4.74zM12.23 6.036h3.219a1.288 1.288 0 001.112-1.053 3.394 3.394 0 013.218-2.633 3.336 3.336 0 013.16 2.633c.105.577.587 1.01 1.17 1.053h3.337v4.682H12.23V6.035zm24.58 38.86c0 1.287-1.288 2.106-2.576 2.106H5.441c-1.287 0-2.575-.82-2.575-2.107V11.361a2.633 2.633 0 012.575-2.4H9.89v2.985a1.23 1.23 0 001.287 1.112H28.44a1.287 1.287 0 001.346-1.112V8.961h4.448a2.634 2.634 0 012.575 2.4v33.533z" fill="#4F4F4F"/><path d="M15.332 26.343a1.17 1.17 0 00-1.64-.059l-3.745 3.57-1.58-1.639a1.17 1.17 0 00-1.638-.058 1.229 1.229 0 000 1.697l2.399 2.458c.208.232.508.36.82.35a1.17 1.17 0 00.819-.35l4.564-4.33a1.112 1.112 0 000-1.64zm16.796 2.516h-13.46a1.17 1.17 0 000 2.34h13.46a1.17 1.17 0 100-2.34zM15.332 16.98a1.17 1.17 0 00-1.64-.06l-3.745 3.57-1.58-1.638a1.17 1.17 0 00-1.638-.059 1.229 1.229 0 000 1.698l2.399 2.457c.208.233.508.362.82.352a1.17 1.17 0 00.819-.352l4.564-4.33a1.112 1.112 0 000-1.639zm16.796 2.515h-13.46a1.17 1.17 0 000 2.341h13.46a1.17 1.17 0 100-2.34zM15.332 35.706a1.17 1.17 0 00-1.64-.059l-3.745 3.57-1.58-1.638a1.17 1.17 0 00-1.638-.059 1.229 1.229 0 000 1.697l2.399 2.458c.208.233.508.361.82.351a1.17 1.17 0 00.819-.35l4.564-4.331a1.112 1.112 0 000-1.639zm16.796 2.517h-13.46a1.17 1.17 0 100 2.34h13.46a1.17 1.17 0 000-2.34z" fill="#4F4F4F"/></svg>