<svg width="223" height="42" fill="none" xmlns="http://www.w3.org/2000/svg"><g clip-path="url(#clip0_4919_14883)"><path d="M214.96 22.91c.589-.779.656-1.652.937-2.434.586-1.647 1.111-3.321 1.622-4.988.556-1.79 1.167-3.57 1.692-5.372.311-1.07.294-1.072 1.361-1.072.647 0 1.295.022 1.945 0 .472-.023.555.16.422.577-1.039 2.966-2.086 5.929-3.111 8.9-.775 2.255-1.501 4.524-2.29 6.773-.277.764-.575 1.518-.802 2.302a.992.992 0 01-.245.479c-.744.624-1.628.14-2.442.28-.369.064-.539-.221-.639-.516-.605-1.792-1.197-3.593-1.805-5.385-.489-1.443-.998-2.88-1.492-4.322-.311-.916-.614-1.834-.925-2.75-.042-.12-.02-.3-.209-.317-.189-.017-.278.16-.316.311-.542 1.588-1.073 3.176-1.614 4.761-.62 1.807-1.248 3.608-1.862 5.417-.228.672-.444 1.35-.641 2.033-.153.527-.414.84-1.028.782a5.281 5.281 0 00-1.314 0c-.65.092-.92-.28-1.095-.79-1.528-4.44-3.051-8.88-4.57-13.32-.555-1.591-1.111-3.182-1.667-4.762-.094-.28-.058-.442.278-.44h2.845c.353 0 .475.202.555.494l2.501 7.979c.522 1.638 1.069 3.271 1.608 4.904.036.115 0 .314.211.28.161-.022.214-.168.259-.3.461-1.4.924-2.8 1.389-4.2.516-1.58 1.058-3.152 1.572-4.731.395-1.213.859-2.409 1.164-3.641.147-.597.409-.902 1.039-.793.093.009.186.009.278 0 1.945 0 1.881.014 2.461 1.866.939 3.002 1.945 5.982 2.931 8.962.35.966.653 1.955.997 3.033zm-31.744 5.54c-5.601.134-9.846-4.433-9.854-9.802a9.998 9.998 0 01.755-3.835 9.93 9.93 0 012.167-3.24 9.831 9.831 0 013.242-2.145 9.762 9.762 0 013.812-.715c5.675.025 9.87 4.481 9.859 9.89a9.863 9.863 0 01-.751 3.826 9.805 9.805 0 01-2.171 3.228 9.715 9.715 0 01-3.249 2.119 9.648 9.648 0 01-3.81.674zm-6.27-9.909c0 .44-.02.882 0 1.325.051.363.15.717.294 1.053a6.428 6.428 0 002.93 3.6 6.344 6.344 0 004.571.668c2.989-.689 4.631-3.282 4.914-5.753a7.186 7.186 0 00-.767-4.114 6.332 6.332 0 00-3.053-2.964 6.262 6.262 0 00-4.225-.347 6.31 6.31 0 00-3.489 2.427 6.393 6.393 0 00-1.178 4.105h.003zm-36.035.067V9.741c0-.52.103-.717.678-.711 4.26.024 8.519.024 12.779 0 .572 0 .711.182.672.708-.043.56-.043 1.121 0 1.68.042.536-.114.712-.68.707-3.076-.028-6.151-.014-9.226 0-.914 0-.914 0-.917.915 0 1.188.033 2.375 0 3.56-.022.56.178.706.706.703 2.705-.02 5.411 0 8.117-.022.659 0 .867.23.834.84a14.083 14.083 0 000 1.538c.027.56-.234.775-.789.773-2.659 0-5.318 0-7.979-.023-.697 0-.903.19-.883.908.052 2.024-.014 4.05.036 6.074 0 .67-.206.84-.814.779a11.4 11.4 0 00-1.803 0c-.556.042-.703-.132-.698-.686-.033-2.963-.033-5.918-.033-8.876z" fill="#292425"/><path d="M8.353 10.206a6.887 6.887 0 002.15 4.013c1.27 1.238 2.5 2.521 3.768 3.759.48.46.48.776 0 1.235-1.353 1.32-2.648 2.694-4.003 4.008-1.784 1.733-2.273 3.89-1.798 6.206.428 2.098 1.773 3.641 3.773 4.434 2.675 1.067 5.064.527 7.109-1.518.508-.507 1.022-1.006 1.53-1.51a.605.605 0 01.683-.22.601.601 0 01.218.13 6.62 6.62 0 001.6.947c.325.112.336.353.1.591-1.903 1.944-3.665 4.075-6.518 4.711-3.483.773-7.392-.28-9.723-3.52a9.247 9.247 0 01-1.811-5.437c-.033-2.75.992-5.041 2.89-6.968.63-.639 1.25-1.288 1.916-1.885.492-.437.439-.722-.017-1.162-.905-.868-1.847-1.714-2.475-2.837-.778-1.4-.939-2.781-.144-4.201a1.51 1.51 0 01.752-.776z" fill="#FDB604"/><path d="M27.961 31.693c-3.2.065-5.556-1.29-7.545-3.403-.47-.495-.978-.955-1.414-1.479-.395-.47-.684-.383-1.05.02a15.302 15.302 0 01-2.473 2.333c-1.605 1.12-3.43 1.168-4.906.154-.18-.126-.389-.25-.344-.454.044-.204.314-.12.483-.16a6.275 6.275 0 003.136-1.76c1.362-1.379 2.734-2.746 4.073-4.146.409-.426.672-.434 1.111 0 1.542 1.577 3.006 3.246 4.723 4.638.8.66 1.747 1.115 2.76 1.326a6.34 6.34 0 003.053-.118 6.377 6.377 0 002.65-1.535 6.448 6.448 0 001.64-2.6c.854-2.433.312-4.716-1.474-6.632-.556-.588-1.134-1.145-1.7-1.717-.278-.28-.37-.56-.048-.93a6.66 6.66 0 00.834-1.383c.203-.415.389-.588.764-.182 1.205 1.302 2.661 2.397 3.528 3.977 1.022 1.862 1.525 3.826 1.178 6.021-.62 3.905-2.85 6.355-6.434 7.675a6.02 6.02 0 01-2.545.355z" fill="#292425"/><path d="M22.26 2.798c-1.653.11-3.194.588-4.422 1.848-.556.577-1.148 1.12-1.703 1.703-.325.34-.58.41-.995.081a8.969 8.969 0 00-1.522-.89c-.325-.165-.447-.3-.145-.602 1.198-1.188 2.267-2.521 3.692-3.46A8.69 8.69 0 0121.413.032c4.056-.28 7.065 1.355 9.06 4.887a8.391 8.391 0 011.016 3.437c.306 3.383-.947 6.08-3.367 8.326-.536.499-1.025 1.05-1.558 1.549-.278.28-.3.445 0 .723.536.5 1.041 1.036 1.547 1.568 1.158 1.218 1.909 2.59 1.72 4.36a4.364 4.364 0 01-.756 1.844c-.07.109-.122.28-.3.235-.178-.045-.18-.196-.211-.33a7.552 7.552 0 00-.556-1.642c-.686-1.4-1.903-2.308-2.939-3.386a68.292 68.292 0 00-2.5-2.476c-.403-.375-.392-.638 0-1.017 1.358-1.327 2.689-2.68 4.028-4.024 3.042-3.056 2.8-7.484-.606-10.083-1.06-.812-2.347-1.143-3.73-1.204z" fill="#FDB604"/><path d="M0 15.272C-.067 10.61 2.594 7.027 6.525 5.88c3.57-1.042 6.793-.171 9.476 2.484.7.692 1.412 1.37 2.073 2.095.325.356.533.297.833 0 .767-.756 1.473-1.583 2.345-2.24C23.027 6.9 25 6.794 26.505 7.937c.122.092.314.15.278.352 0 .062-.13.129-.208.14-1.831.28-3.109 1.426-4.317 2.72-1.026 1.098-2.142 2.111-3.16 3.218-.485.526-.777.406-1.208-.037-1.328-1.37-2.703-2.691-4.03-4.06a6.427 6.427 0 00-2.64-1.662 6.384 6.384 0 00-5.945 1.056 6.479 6.479 0 00-1.917 2.47c-1.094 2.356-.716 4.989 1.203 7.078.556.61 1.145 1.21 1.75 1.778.32.303.406.51.1.908a10.916 10.916 0 00-.933 1.605c-.161.308-.311.375-.556.117-1.73-1.75-3.683-3.319-4.461-5.82A9.7 9.7 0 010 15.273zm158.255 3.35c0-2.955.017-5.91 0-8.864 0-.597.178-.768.744-.726.624.05 1.25.05 1.873 0 .603-.053.719.194.717.751-.02 4.761 0 9.495 0 14.242 0 1.061 0 1.061 1.027 1.061 2.753 0 5.504.014 8.254 0 .533 0 .753.124.708.695a15.55 15.55 0 000 1.882c.02.406-.133.507-.516.507-4.07 0-8.14-.017-12.21 0-.555 0-.575-.25-.575-.675-.017-2.96-.022-5.915-.022-8.873zM83.18 18.62c.059-3.947 1.695-6.983 5.198-8.876 1.767-.953 3.656-1.12 5.662-.885a8.658 8.658 0 013.595 1.188 8.74 8.74 0 012.756 2.612c3.361 4.762 2.108 11.99-3.512 14.892a9.041 9.041 0 01-5.9.804c-3.55-.675-6.01-2.765-7.254-6.254a9.978 9.978 0 01-.544-3.482zm9.538 8.477a6.729 6.729 0 004.036-1.067c2.292-1.4 3.523-3.49 3.865-6.162a8.866 8.866 0 00-1.378-6.234c-1.487-2.24-3.55-3.406-6.229-3.529-2.07-.095-3.942.428-5.472 1.823-2.42 2.207-3.248 4.997-2.76 8.229.57 3.722 3.668 7.072 7.938 6.94zm-12.416.913c-1.26.325-2.022.104-2.705-.862-1.578-2.241-3.292-4.364-4.943-6.54a.908.908 0 00-.814-.392c-1.689.017-3.375.022-5.064 0-.489 0-.625.157-.62.638.023 2.241 0 4.482.025 6.703 0 .602-.277.616-.705.605-.428-.012-.722.033-.72-.589.026-5.975.026-11.957 0-17.947 0-.456.125-.594.584-.59 2.728.024 5.461-.074 8.184.052 2.167.101 4.167.84 5.317 2.866 1.39 2.445.78 6.06-2.603 7.424a8.8 8.8 0 01-1.639.527c-.556.104-.514.238-.211.627 1.811 2.336 3.611 4.694 5.403 7.036.117.14.147.35.511.442zm-14.12-13.357c0 1.185.03 2.373-.014 3.557-.023.56.177.717.705.709 1.987-.022 3.973 0 5.962 0a6.678 6.678 0 002.82-.588 4.033 4.033 0 002.105-2.09 4.08 4.08 0 00.117-2.977c-.628-1.893-2.486-2.708-4.222-2.8-2.303-.118-4.618-.028-6.929-.048-.414 0-.556.112-.556.56.011 1.21.011 2.445.011 3.677zm47.026 13.789a11.197 11.197 0 01-7.531-2.734c-.489-.409-.13-.619.072-.888.203-.269.428-.636.87-.23.992.905 2.089 1.681 3.384 2.042 2.2.614 4.408.874 6.428-.596 1.067-.773 1.436-1.871 1.345-3.16-.095-1.35-.925-2.134-2.062-2.657-1.18-.54-2.45-.79-3.708-1.07-1.462-.325-2.881-.75-4.142-1.61-2.356-1.608-2.429-5.23-.301-7.103 1.928-1.7 4.204-1.927 6.646-1.482 1.44.3 2.803.9 4 1.762.336.224.519.484.167.792-.278.244-.375.944-1.039.404a7.91 7.91 0 00-2.925-1.533 7.865 7.865 0 00-3.29-.201c-1.994.28-3.889 1.549-3.561 4.181.177 1.423 1.175 2.093 2.328 2.608 1.261.56 2.622.779 3.956 1.1 1.137.27 2.234.693 3.261 1.255 2.959 1.628 2.681 6.084.164 7.803-1.361.933-2.85 1.367-4.062 1.317zm17.146.002a11.113 11.113 0 01-7.345-2.702c-.366-.308-.358-.538-.039-.84.278-.261.431-.788.959-.297a8.342 8.342 0 003.384 2.036c2.222.622 4.444.84 6.484-.65 1.686-1.238 2.025-4.652-.834-5.803-1.533-.616-3.15-.857-4.723-1.3-1.308-.372-2.592-.806-3.589-1.792-1.903-1.885-1.706-5.24.422-6.862 1.945-1.473 4.115-1.72 6.451-1.274a9.796 9.796 0 013.931 1.747c.294.21.622.437.239.782-.278.252-.378.986-1.089.406a7.76 7.76 0 00-6.159-1.711c-2.175.294-4.053 1.725-3.542 4.425.242 1.277 1.2 1.913 2.267 2.347 1.332.513 2.708.9 4.111 1.16a8.147 8.147 0 013.854 1.755c2.203 1.927 1.797 5.717-.806 7.43a7.113 7.113 0 01-3.976 1.143zm-76.915.006c-4.106.17-7.526-2.596-8.807-5.881-1.62-4.174-.494-9.215 3.084-11.932 2.444-1.845 5.156-2.26 8.103-1.647 1.79.373 3.24 1.314 4.606 2.465.367.308.253.46 0 .754-.438.512-.76.61-1.32.084-2.058-1.961-4.588-2.594-7.289-2.084-2.858.54-4.859 2.327-5.817 5.106-1.172 3.405-.717 6.604 1.717 9.346a7.305 7.305 0 002.312 1.739c.878.419 1.83.657 2.8.7 2.539.185 4.661-.68 6.511-2.358.578-.527.936-.49 1.334.176.125.205.075.35-.114.53-1.364 1.29-2.87 2.288-4.723 2.744a11.95 11.95 0 01-2.397.258zm34.995 10.685c.586-.26.514-.84.689-1.255.372-.865.605-1.79.9-2.689.037-.11.085-.215.142-.316a.413.413 0 01.51-.252c.306.1.187.328.123.518-.497 1.414-.99 2.829-1.5 4.235-.081.336-.2.663-.356.971-.108.166-.172.337-.4.297a.503.503 0 01-.417-.319 156.205 156.205 0 01-1.136-3.51 1.28 1.28 0 00-.433-.657c-.464 1.358-.909 2.663-1.364 3.963-.078.226-.1.543-.456.518-.311-.02-.375-.26-.467-.518-.589-1.664-1.202-3.316-1.8-4.974-.066-.182-.191-.454.123-.513.252-.048.516-.048.639.336.441 1.378.927 2.742 1.41 4.145.556-.28.495-.84.656-1.252.353-.899.603-1.843.873-2.775a.604.604 0 01.502-.499c.278-.045.314.21.384.4a17 17 0 01.714 2.056c.155.715.511 1.348.664 2.09zM158.749 36a11.661 11.661 0 00-1.772 2.429c-.35.56-.578.353-.834 0-.527-.759-1.019-1.543-1.544-2.347-.278.238-.178.507-.181.74V40.1c0 .244 0 .496-.333.498-.333.003-.439-.195-.439-.5v-5.025a.402.402 0 01.319-.46.62.62 0 01.701.322c.533.785 1.091 1.555 1.572 2.373.278.47.444.33.658 0 .502-.747.999-1.499 1.489-2.255.186-.28.392-.56.767-.443.375.118.256.454.256.72v4.761c-.025.233-.036.508-.348.513-.311.006-.316-.28-.319-.51v-2.8l.008-1.294zm-41.368 2.446v1.4c.058 1.49-.983 2.028-2.031 2.146a3.346 3.346 0 01-1.666-.353c-.22-.09-.539-.207-.356-.56.153-.28.417-.135.611-.031.54.277 1.159.355 1.75.221a1.051 1.051 0 00.898-.84c.047-.193.211-.423 0-.56-.212-.138-.387.025-.556.12a2.052 2.052 0 01-2.756-.81 2.092 2.092 0 01.713-2.804 2.05 2.05 0 012.024-.077c.313.154.583.523.927-.09.17-.302.467.025.473.361v1.885l-.031-.008zm-2.195 1.165c.862 0 1.626-.725 1.601-1.507-.025-.781-.834-1.462-1.639-1.448a1.436 1.436 0 00-1.364.939 1.467 1.467 0 00-.092.58 1.428 1.428 0 00.435 1.047 1.407 1.407 0 001.059.39zm67.449-.588V36.65c0-.204-.033-.436.245-.51.2-.05.422 0 .475.18.158.535.38.188.586.07a1.968 1.968 0 012.483.23c.689.63.895 1.854.473 2.843a2.21 2.21 0 01-.888.936 2.18 2.18 0 01-1.254.276 1.727 1.727 0 01-.884-.355c-.494-.395-.458-.045-.464.28v.84c0 .28-.047.524-.386.54-.339.017-.394-.243-.386-.518V39.02v.003zm.761-.636c-.053 1.081.661 1.602 1.492 1.655.831.053 1.534-.706 1.528-1.68-.006-.975-.711-1.723-1.556-1.698-.844.026-1.472.748-1.464 1.723zM121.09 37.6a2.818 2.818 0 01.349-1.621 2.793 2.793 0 011.198-1.138c1.073-.602 2.167-.495 3.201.157.241.154.6.308.347.678-.214.31-.458.106-.706-.053-1.28-.82-2.755-.476-3.425.781-.45.84-.169 2.426.528 3.081.644.602 2.092.7 2.883.104.056-.04.109-.084.159-.132a.378.378 0 01.6-.034c.133.18.033.376-.186.56a3.07 3.07 0 01-2.546.65 3.081 3.081 0 01-2.113-1.57 3.65 3.65 0 01-.289-1.463zm48.494-.18v-2.374c0-.28-.15-.698.341-.675.492.022.32.434.323.708.016.885 0 1.77 0 2.655 0 .169-.062.387.18.474.242.087.278-.143.37-.241.505-.482.994-.986 1.489-1.482a1.87 1.87 0 01.355-.31c.164-.099.414-.135.517 0 .103.134-.042.3-.183.436-.339.325-.631.703-.973 1.028-.341.325-.364.56-.033.922.409.446.781.925 1.111 1.434.103.154.414.383.153.582a.492.492 0 01-.672-.165 31.778 31.778 0 00-.931-1.154c-.181-.213-.278-.647-.65-.479a1.2 1.2 0 00-.725.938c-.056.325.186.905-.37.869-.555-.037-.277-.6-.297-.93-.03-.745-.005-1.49-.005-2.235zm-21.964 1.533v1.255a.361.361 0 01-.247.378.315.315 0 01-.419-.143c-.145-.336-.259-.2-.495-.065-1.056.608-2.222.311-2.625-.627a1.343 1.343 0 01.441-1.575c.157-.116.337-.196.528-.234a3.458 3.458 0 011.506-.037c.175.045.445.163.556-.103a.65.65 0 00-.156-.65c-.355-.409-.833-.462-1.328-.406-.278.028-.541.103-.817.145-.15.023-.333.079-.372-.17-.039-.25.047-.317.261-.4 1.426-.561 3.356-.315 3.184 2.074v.56l-.017-.002zm-1.858-.546l-.572.056c-.362.036-.656.17-.737.56a.806.806 0 00.47.955c.628.353 1.139.103 1.631-.244a.93.93 0 00.341-.991c-.086-.42-.491-.216-.747-.3a1.803 1.803 0 00-.386-.036zm18.913.583c0 .394.022.789 0 1.184-.022.395-.353.647-.556.328-.311-.46-.483-.166-.73-.045-.973.468-2.006.213-2.448-.608a1.349 1.349 0 01.356-1.637c.156-.127.338-.216.533-.262a3.83 3.83 0 011.645-.03c.577.128.577-.228.397-.6-.261-.54-.778-.608-1.3-.583-.297 0-.592.104-.889.146-.167.022-.381.132-.42-.18-.03-.223.067-.31.278-.391 1.389-.56 3.298-.317 3.164 2.05-.014.207 0 .417 0 .627h-.03zm-1.845-.58c-.178.016-.408.033-.633.061a.694.694 0 00-.46.174.705.705 0 00-.232.437.756.756 0 00.403.86 1.458 1.458 0 001.744-.242.981.981 0 00.278-1.008c-.097-.344-.472-.17-.716-.243a2.059 2.059 0 00-.384-.04zm31.42.543v1.187a.402.402 0 01-.258.44.336.336 0 01-.464-.182c-.148-.361-.253-.132-.434-.028-1 .56-2.153.353-2.608-.479a1.354 1.354 0 01-.037-1.19 1.34 1.34 0 01.917-.75 3.4 3.4 0 011.575-.043c.164.042.414.14.506-.064a.63.63 0 00-.111-.656c-.364-.45-.864-.49-1.389-.442-.253.025-.5.098-.75.14-.156.028-.342.09-.395-.143-.052-.233 0-.322.234-.426 1.728-.798 3.197.112 3.206 2.008l.008.628zm-.761 0c0-.2.044-.42-.278-.457a4.133 4.133 0 00-1.647 0 .763.763 0 00-.512.507.782.782 0 00.131.712 1.19 1.19 0 001.389.338c.483-.182.964-.425.903-1.103l.014.003zM73.824 38.91v1.256c0 .227-.067.43-.333.445-.267.014-.303-.23-.306-.44 0-.742.022-1.487-.025-2.24-.036-.56-.278-1.04-.883-1.182a1.282 1.282 0 00-1.39.51.97.97 0 00-.163.652c-.017.72-.023 1.44 0 2.16 0 .296-.084.518-.403.526-.32.008-.375-.258-.375-.535v-5.223c0-.28.03-.47.344-.474.314-.003.456.126.436.465-.027.465 0 .93 0 1.4 0 .194.014.356.312.225 1.866-.84 2.794-.216 2.808 1.823v.627l-.022.006zm30.695-2.722a7.005 7.005 0 01-1.259 1.4c-.4.379-.367.665-.036 1.048.394.462.745.96 1.111 1.448.111.149.386.305.131.499a.483.483 0 01-.636-.101c-.331-.378-.612-.795-.934-1.18-.192-.223-.278-.69-.689-.523a1.191 1.191 0 00-.733.93c-.061.325.189.924-.364.882-.553-.042-.278-.644-.278-.98a140.23 140.23 0 010-4.677c0-.222-.136-.56.3-.56.372 0 .345.296.345.56 0 .93 0 1.862.016 2.8 0 .174-.047.4.172.488.22.087.314-.157.431-.28.492-.485.961-.986 1.436-1.487a.836.836 0 01.987-.267zm71.952 2.502h-1.178c-.173 0-.398-.062-.475.173-.062.188.047.342.155.502a1.576 1.576 0 001.653.656c.205-.047.399-.135.57-.259.239-.154.477-.305.652-.061.175.243-.127.414-.305.56a2.29 2.29 0 01-2.9-.194 2.534 2.534 0 01-.117-3.248 2.027 2.027 0 012.667-.456c.728.439.886 1.184.983 1.937.031.247-.211.387-.475.387h-1.23v.003zm-.364-.53h.969c.364 0 .472-.21.347-.493-.227-.515-.572-.969-1.169-1.039-.597-.07-1.006.264-1.309.745-.302.482-.189.768.403.784.242.012.495.003.747.003h.012zm-98.683.532h-1.111c-.556 0-.556.28-.347.661.414.723 1.439.941 2.256.445.236-.145.48-.338.644-.098.22.323-.161.493-.361.633a2.28 2.28 0 01-2.63-.117 2.563 2.563 0 01-.75-2.683 2.19 2.19 0 01.872-1.121 2.16 2.16 0 011.372-.344c.516.069.988.332 1.32.736.334.405.503.921.474 1.446a.432.432 0 01-.307.431.422.422 0 01-.187.011H77.42h.003zm-.372-.532h.625c.278-.014.608.098.7-.28a.846.846 0 00-.278-.81c-.636-.65-1.455-.596-2.022.132a.746.746 0 00-.18.765c.113.28.394.168.608.185.214.017.364.008.547.008zm125.532.53h-1.039c-.175 0-.408-.065-.494.142a.653.653 0 00.147.645 1.62 1.62 0 002.175.297c.242-.149.486-.312.647-.065.161.246-.133.456-.333.585a2.17 2.17 0 01-2.35.126 2.022 2.022 0 01-1.111-1.865c-.023-1.574.833-2.56 2.222-2.495.531.05 1.023.304 1.372.71.35.407.53.934.503 1.471-.03.328-.18.451-.486.446-.42-.003-.833 0-1.253.003zm-.364-.53h.695c.644-.017.811-.336.469-.893a1.32 1.32 0 00-1.055-.624 1.307 1.307 0 00-1.109.52.844.844 0 00-.206.76c.092.33.409.226.653.237.186.009.361 0 .556 0h-.003zm-71.018.68v1.401c0 .157-.05.33-.253.37-.125.022-.258 0-.278-.126-.111-.398-.255-.26-.519-.118-.65.353-1.328.47-2.037.087a1.27 1.27 0 01-.711-1.476 1.3 1.3 0 01.364-.685c.189-.185.429-.307.689-.348a3.833 3.833 0 011.645-.02c.475.092.578-.118.391-.543-.247-.56-.741-.645-1.258-.684-.133 0-.278.07-.406.06-.302-.023-.752.428-.88-.065s.48-.462.775-.56a2.207 2.207 0 011.617.142 1.312 1.312 0 01.833 1.171c.022.462.056.927.083 1.4l-.055-.005zm-1.775-.439c-.125 0-.309.03-.492.04-.517.027-.797.28-.808.817-.012.538.341.75.786.86a1.441 1.441 0 001.111-.26 1.04 1.04 0 00.539-1.12c-.089-.452-.531-.21-.803-.315a1.38 1.38 0 00-.333-.014v-.008zm-35.615 2.283a2.19 2.19 0 01-1.64-.644 2.224 2.224 0 01-.651-1.65 2.257 2.257 0 01.638-1.667 2.22 2.22 0 011.645-.666 2.31 2.31 0 011.615.667c.431.426.681 1.004.696 1.613a2.38 2.38 0 01-.679 1.644 2.34 2.34 0 01-1.624.703zm1.581-2.241a1.745 1.745 0 00-.426-1.214 1.717 1.717 0 00-1.138-.584c-.811-.037-1.603.748-1.667 1.636.008.438.171.86.46 1.187.29.327.687.54 1.118.597a1.658 1.658 0 001.653-1.611v-.011zm38.034-1.672c1.309-.924 2.337-.93 3.134-.022a2.6 2.6 0 01.019 3.198c-.833.955-1.767.972-3.242-.017v1.423c0 .23.114.588-.278.6-.45 0-.313-.384-.313-.628a223.13 223.13 0 010-4.481c0-.25-.148-.625.241-.703.484-.084.248.46.439.63zm-.094 1.58c-.009.438.152.862.448 1.183.297.32.707.51 1.141.53.833 0 1.469-.708 1.486-1.66.017-.952-.667-1.745-1.5-1.74-.425.03-.823.22-1.115.533a1.713 1.713 0 00-.46 1.154zm-25.419.002v-1.742c0-.185 0-.392.225-.459s.383-.05.458.176c.117.345.253.174.447.065 1.389-.782 2.595-.185 2.778 1.4.049.766.057 1.533.025 2.3 0 .28-.094.518-.428.51-.333-.01-.277-.303-.277-.519v-2.092c0-.79-.503-1.308-1.212-1.3a1.249 1.249 0 00-.898.375 1.29 1.29 0 00-.366.908c-.022.72 0 1.44 0 2.16 0 .263-.061.476-.375.459-.264 0-.336-.205-.336-.437l-.041-1.804zM66.14 37.88c0-.72-.016-1.44 0-2.16 0-.372-.128-.495-.48-.478-.353.017-.74 0-1.112 0-.197 0-.383-.025-.408-.28a.319.319 0 01.195-.343.312.312 0 01.138-.021h4.02a.292.292 0 01.318.216.299.299 0 01.004.14c0 .21-.133.28-.32.28h-.346c-1.287.016-1.287.016-1.287 1.282v3.417c0 .308 0 .664-.413.664-.414 0-.303-.392-.309-.636-.011-.686 0-1.383 0-2.08zm129.221.51a2.26 2.26 0 01.293-1.18c.203-.358.501-.652.86-.85a2.145 2.145 0 012.359.06c.2.13.525.253.35.561-.2.367-.447.129-.689 0-.814-.468-1.542-.373-2.053.25a1.972 1.972 0 000 2.24 1.562 1.562 0 002.1.28c.256-.174.525-.336.706-.064.18.271-.161.414-.353.56a2.063 2.063 0 01-2.331.182 2.204 2.204 0 01-1.242-2.04zM142.3 39.961c.231-.02.436-.145.484.163a.405.405 0 01-.278.485 1.25 1.25 0 01-1.401-.354 1.25 1.25 0 01-.249-.448c-.187-.658-.081-1.339-.106-2.008a1.64 1.64 0 010-.485c.161-.54-.792-.512-.533-.974.183-.325.639-.48.539-.995a.404.404 0 01-.017-.192.403.403 0 01.071-.179.403.403 0 01.329-.175c.375 0 .342.342.311.56-.094.673.253.79.806.74.236-.022.555-.087.555.314 0 .4-.325.392-.589.358-.603-.076-.833.146-.78.77.034.51.034 1.02 0 1.53-.006.674.275.977.858.89zm37.176-1.681a3.512 3.512 0 010-.904c.162-.58-.658-.51-.589-.963.059-.362.723-.33.589-.885-.077-.317-.033-.729.423-.703.389.02.314.414.278.669-.064.574.23.658.7.636.241 0 .614-.146.636.302.022.502-.381.39-.645.364-.555-.056-.728.182-.691.717.03.56.03 1.121 0 1.68-.023.62.277.841.852.793.178 0 .428-.184.473.18.044.364-.186.445-.45.504-.834.193-1.523-.35-1.592-1.266-.028-.37 0-.742 0-1.12l.016-.003zM98.13 36.917a2.67 2.67 0 011.141-.807c.183-.053.445-.126.461.213 0 .216.07.431-.264.538-1.128.367-1.389.764-1.425 1.96v1.252c0 .28-.039.532-.378.56-.339.028-.37-.266-.37-.532v-3.134c0-.28-.171-.722.3-.806.473-.084.429.355.534.756zm67.97 1.439v-1.809c0-.154-.028-.339.178-.409a.344.344 0 01.458.199c.186.42.408.356.711.11.2-.155.425-.272.664-.348.164-.056.397-.081.425.196.02.196.092.482-.183.526-1.447.227-1.514 1.306-1.517 2.431v.84c0 .28-.122.519-.433.525-.311.005-.278-.295-.295-.516-.014-.585-.008-1.165-.008-1.745zm23.019-.896v2.652c0 .252-.017.493-.336.493-.32 0-.436-.188-.436-.498v-5.305c0-.316.161-.409.414-.431.316-.031.366.162.364.437-.014.885-.006 1.767-.006 2.652zm-39.304.011v2.577c0 .33-.084.574-.442.56-.358-.014-.333-.314-.331-.56v-5.16c0-.293.037-.515.389-.495.353.02.4.21.392.515-.022.852-.008 1.692-.008 2.563zm-44.102.857v-1.745c0-.207-.022-.44.278-.456a.357.357 0 01.422.361c.013 1.255.013 2.511 0 3.77a.344.344 0 01-.127.28.344.344 0 01-.298.07c-.25-.022-.278-.193-.278-.395.006-.627.006-1.257.003-1.885zm32.742-.003V36.52c0-.182 0-.39.278-.392.278-.003.311.165.311.367v3.755c0 .205-.069.373-.316.359-.248-.014-.278-.216-.278-.403.002-.625.005-1.252.005-1.88zm.289-3.089c-.278.028-.38-.168-.386-.378-.005-.21.097-.44.414-.42.317.02.397.204.392.454-.006.249-.184.352-.42.344zm-32.658-.003c-.264.034-.398-.064-.384-.341 0-.23-.033-.474.334-.46.277 0 .441.068.447.381.005.314-.103.44-.397.42z" fill="#292425"/></g><defs><clipPath id="clip0_4919_14883"><path fill="#fff" d="M0 0h223v42H0z"/></clipPath></defs></svg>