<svg width="42" height="36" fill="none" xmlns="http://www.w3.org/2000/svg"><path d="M38.903.188H3.176C1.823.188.723 1.268.723 2.596v24.218c0 1.328 1.1 2.409 2.453 2.409h12.242v1.752c0 1.607-1.331 2.914-2.967 2.914H9.752a.928.928 0 00-.936.92c0 .507.42.919.936.919h22.573a.928.928 0 00.937-.92c0-.508-.42-.92-.937-.92h-2.698c-1.636 0-2.967-1.306-2.967-2.913v-1.752h12.242c1.353 0 2.453-1.08 2.453-2.408V2.596c0-1.328-1.1-2.408-2.452-2.408zm-22.632 33.7a4.673 4.673 0 001.02-2.913v-1.752h7.496v1.752c0 1.098.382 2.108 1.02 2.914h-9.536zm23.211-7.073c0 .313-.26.569-.58.569H3.176a.575.575 0 01-.58-.57v-4.833h36.886v4.834zm0-6.673H2.596V2.596c0-.314.26-.569.58-.569h35.726c.32 0 .58.255.58.57v17.545z" fill="#4F4F4F"/></svg>