<svg width="48" height="44" fill="none" xmlns="http://www.w3.org/2000/svg"><path d="M46.586 37.725h-2.308c.178-.346.279-.738.279-1.154V17.806a.692.692 0 10-1.384 0v18.765c0 .636-.516 1.153-1.152 1.153l-35.963.001a1.154 1.154 0 01-1.153-1.153V12.597c0-.635.516-1.152 1.152-1.152l18.352-.001c-.238.42-.274.93-.087 1.383H6.98a.692.692 0 00-.692.692l.001 14.607a.692.692 0 101.383 0V14.21H19.03c-.095.376-.2.837-.25 1.193a.2.2 0 01-.1.143l-1.156.666a.2.2 0 01-.174.014 14.267 14.267 0 00-1.356-.436 1.588 1.588 0 00-1.799.734l-.625 1.08a1.585 1.585 0 00.264 1.927c.297.291.72.692 1.055.952a.197.197 0 01.074.156v1.33a.199.199 0 01-.074.157c-.334.26-.758.661-1.055.952a1.585 1.585 0 00-.264 1.927l.625 1.08a1.587 1.587 0 001.799.734 14.28 14.28 0 001.356-.436.2.2 0 01.174.014l1.157.666a.2.2 0 01.099.143c.059.419.195.985.299 1.386a1.588 1.588 0 001.537 1.191h1.251c.724 0 1.356-.49 1.537-1.19.104-.402.24-.968.3-1.387a.2.2 0 01.098-.143l1.157-.666a.2.2 0 01.174-.014c.393.158.954.325 1.356.436a1.589 1.589 0 001.799-.734l.625-1.08a1.585 1.585 0 00-.264-1.927c-.297-.29-.721-.692-1.055-.952a.198.198 0 01-.074-.156v-1.33a.2.2 0 01.074-.157c.334-.26.758-.661 1.055-.952.518-.507.627-1.3.264-1.927l-.625-1.08a1.588 1.588 0 00-1.8-.734c-.401.112-.962.278-1.355.436a.202.202 0 01-.174-.014l-1.157-.666a.2.2 0 01-.099-.143 12.82 12.82 0 00-.25-1.194h1.66a1.587 1.587 0 001.727.622 14.27 14.27 0 001.356-.436.201.201 0 01.174.014l1.156.667a.2.2 0 01.1.142c.058.419.194.985.298 1.386a1.588 1.588 0 001.537 1.191h1.252c.724 0 1.356-.49 1.537-1.19.104-.402.24-.968.299-1.387a.2.2 0 01.099-.142l1.156-.667a.2.2 0 01.175-.014c.392.159.954.325 1.356.436a1.589 1.589 0 001.727-.622h1.345l.001 20.748H7.672V31.11a.692.692 0 10-1.384 0v4.54c0 .381.31.69.692.69h34.119a.692.692 0 00.691-.692V13.52a.692.692 0 00-.692-.692H39.85a1.583 1.583 0 00-.086-1.383h2.256c.636 0 1.153.517 1.153 1.152v2.276a.692.692 0 101.383 0v-2.276a2.539 2.539 0 00-2.536-2.536h-3.639a.203.203 0 01-.016-.077v-1.33c0-.063.027-.12.074-.157.334-.26.758-.661 1.055-.952.518-.507.627-1.3.264-1.927l-.626-1.08a1.588 1.588 0 00-1.798-.734c-.403.112-.964.278-1.357.436a.202.202 0 01-.173-.014l-1.157-.666a.199.199 0 01-.099-.143c-.06-.419-.195-.985-.299-1.386A1.588 1.588 0 0032.712.84H31.46a1.59 1.59 0 00-1.537 1.191c-.103.401-.24.967-.298 1.386a.2.2 0 01-.1.143l-1.156.666a.2.2 0 01-.174.014 14.264 14.264 0 00-1.356-.436 1.588 1.588 0 00-1.799.734l-.625 1.08a1.585 1.585 0 00.264 1.927c.297.29.72.692 1.055.952a.198.198 0 01.073.156v1.33a.203.203 0 01-.016.078l-19.734.001a2.539 2.539 0 00-2.536 2.536v23.975c0 .415.102.807.28 1.153h-2.31c-.585 0-1.06.476-1.06 1.06v1.845a3.093 3.093 0 003.089 3.09h32.31a.691.691 0 100-1.384H3.52c-.94 0-1.705-.765-1.705-1.706v-1.522h17.29v.415a1.8 1.8 0 001.799 1.798h6.27a1.8 1.8 0 001.798-1.798v-.415h17.29v1.522c0 .94-.764 1.706-1.705 1.706h-5.742a.692.692 0 100 1.383h5.742a3.093 3.093 0 003.09-3.09v-1.843c0-.585-.477-1.06-1.061-1.06zm-24.522-23.36c.134.518.23.955.268 1.232.069.484.353.903.779 1.148l1.157.667c.425.245.928.28 1.38.098.26-.105.69-.242 1.21-.386a.204.204 0 01.231.094l.626 1.08a.202.202 0 01-.035.246c-.384.376-.716.677-.937.849a1.57 1.57 0 00-.607 1.247v1.33c0 .493.221.948.607 1.248.22.172.553.474.937.85.067.064.08.165.035.245l-.626 1.08a.205.205 0 01-.231.094 12.42 12.42 0 01-1.209-.386 1.573 1.573 0 00-1.382.099l-1.156.666c-.427.245-.71.664-.779 1.148-.039.277-.134.715-.268 1.233a.205.205 0 01-.198.154h-1.252a.205.205 0 01-.198-.154 12.457 12.457 0 01-.268-1.233 1.572 1.572 0 00-.778-1.148l-1.157-.666a1.584 1.584 0 00-1.381-.099c-.26.105-.69.242-1.209.386a.204.204 0 01-.232-.094l-.625-1.08a.202.202 0 01.035-.246c.383-.375.716-.677.937-.849.386-.3.607-.755.607-1.247v-1.33a1.57 1.57 0 00-.607-1.248 12.32 12.32 0 01-.937-.85.202.202 0 01-.035-.245l.625-1.08a.205.205 0 01.232-.094c.52.144.949.281 1.209.386a1.57 1.57 0 001.381-.099l1.157-.666a1.57 1.57 0 00.778-1.148c.04-.277.134-.714.269-1.233a.205.205 0 01.194-.154h1.257a.205.205 0 01.196.154zm3.582-7.81a.202.202 0 01-.034-.245l.625-1.08a.205.205 0 01.232-.094c.52.144.95.281 1.208.386.453.182.957.147 1.382-.099l1.157-.666a1.57 1.57 0 00.778-1.148c.04-.277.134-.715.268-1.233a.205.205 0 01.198-.154h1.252c.093 0 .174.064.198.154.134.518.23.956.268 1.233.069.484.352.903.779 1.148l1.156.667c.426.245.93.28 1.382.098.26-.105.688-.242 1.208-.386a.204.204 0 01.232.094l.625 1.08c.046.08.032.18-.034.246a12.57 12.57 0 01-.937.849 1.57 1.57 0 00-.607 1.247v1.33c0 .493.221.948.607 1.248.22.172.553.474.937.85.066.064.08.165.034.245l-.625 1.08a.205.205 0 01-.232.094c-.52-.144-.948-.281-1.208-.386a1.573 1.573 0 00-1.382.099l-1.156.666c-.427.245-.71.664-.779 1.148-.039.277-.134.715-.268 1.233a.205.205 0 01-.198.154H31.46a.205.205 0 01-.198-.154 12.457 12.457 0 01-.268-1.233 1.571 1.571 0 00-.778-1.148l-1.157-.666a1.584 1.584 0 00-1.381-.099c-.26.105-.69.242-1.209.386a.204.204 0 01-.232-.094l-.122-.211-.013-.022-.49-.847a.202.202 0 01.035-.246c.383-.375.716-.677.937-.849.386-.3.607-.755.607-1.247v-1.33a1.57 1.57 0 00-.607-1.248 12.536 12.536 0 01-.938-.85zm1.943 32.968a.416.416 0 01-.415.415h-6.27a.415.415 0 01-.415-.415v-.415h7.1v.415z" fill="#4F4F4F"/><path d="M32.086 13.084a3.775 3.775 0 003.774-3.766 3.774 3.774 0 00-7.547 0 3.774 3.774 0 003.773 3.766zm-1.077-1.64h2.155a2.383 2.383 0 01-2.155 0zm1.077-4.51a2.39 2.39 0 012.39 2.384c0 .259-.041.509-.119.742h-4.542a2.369 2.369 0 01-.12-.742 2.39 2.39 0 012.391-2.383zM17.467 21.306a3.774 3.774 0 007.548 0 3.774 3.774 0 00-7.548 0zm6.164 0a2.39 2.39 0 01-2.39 2.383 2.39 2.39 0 01-2.391-2.383 2.39 2.39 0 012.39-2.383 2.39 2.39 0 012.391 2.383z" fill="#4F4F4F"/></svg>