<svg width="81" height="65" viewBox="0 0 81 65" fill="none" xmlns="http://www.w3.org/2000/svg">
<path d="M2.26761 62.1803V53.7742C2.26761 48.2803 6.25555 44.346 11.828 44.3305H13.1718V43.3732C13.1718 40.3097 13.1718 37.2462 13.1718 34.1827C13.1718 33.3798 13.6188 32.895 14.297 32.8795C14.9752 32.8641 15.4534 33.3427 15.5097 34.1148C15.5097 34.3186 15.5097 34.5255 15.5097 34.7324C15.5097 37.6147 15.5097 40.4971 15.5097 43.3794C15.5097 43.6573 15.5097 43.9352 15.5097 44.2718H18.1505V23.0714H15.5534C15.5378 23.303 15.5065 23.547 15.5065 23.794C15.5065 25.2331 15.5065 26.6753 15.5065 28.1175C15.5065 29.2447 15.1408 29.7759 14.3438 29.7944C13.5469 29.8129 13.1563 29.2818 13.1531 28.1669C13.1531 26.7247 13.1531 25.2856 13.1531 23.8434C13.1531 23.5933 13.1281 23.3432 13.1125 23.0312C11.8936 22.9849 10.456 23.2659 9.88094 21.9813C9.43089 20.9745 9.44965 19.7609 9.25587 18.5596C7.60258 17.9419 7.22754 17.3891 7.22754 15.4714C7.22754 14.057 7.22754 12.6395 7.22754 11.2251C7.22754 9.56673 8.22447 8.60938 9.91528 8.60938H11.5404C11.331 7.40189 11.1342 6.29324 10.9435 5.18149C10.631 3.34401 11.8811 1.86475 13.7563 1.82769C14.3814 1.82769 15.0064 1.82769 15.6034 1.82769C15.7909 0.570799 16.1409 0.116851 16.8723 0.126115C17.6036 0.13538 17.9787 0.629475 18.0787 1.82769C18.6819 1.82769 19.2944 1.82769 19.9069 1.82769C21.829 1.8524 23.0604 3.26989 22.7698 5.13516C22.5948 6.25 22.3947 7.35866 22.1822 8.60938C22.8229 8.60938 23.3792 8.60938 23.9387 8.60938C25.4701 8.63717 26.4764 9.61923 26.492 11.1294C26.5077 12.6395 26.492 14.2175 26.492 15.7616C26.492 17.3768 25.9357 18.1025 24.2855 18.5873C24.2855 19.171 24.2855 19.7794 24.2855 20.3908C24.2855 22.1171 23.3792 23.0127 21.6478 23.0251H20.6039V44.1761C22.0478 44.8864 23.4761 45.4485 24.7481 46.2514C26.2439 47.2283 27.3489 48.6892 27.8734 50.3834C28.0859 51.001 28.3922 51.1338 28.9892 51.1184C30.6018 51.0813 32.2176 51.1184 33.8334 51.1184C35.1233 51.0935 36.3756 51.5475 37.3432 52.3907C38.1912 53.1195 39.0246 53.8607 39.8434 54.6142C40.4841 55.201 40.5529 55.8495 40.0716 56.3683C39.5903 56.8871 38.9121 56.881 38.2745 56.3282C37.49 55.6488 36.7118 54.957 35.9493 54.2622C35.3496 53.7156 34.5583 53.421 33.7428 53.4407C28.7422 53.4407 23.7417 53.4407 18.7412 53.4407C18.3235 53.426 17.9073 53.4972 17.5188 53.6498C17.1304 53.8024 16.7783 54.033 16.4847 54.327C13.9699 56.8655 11.4572 59.4061 8.94647 61.9487C8.88946 62.0239 8.84018 62.1046 8.79951 62.1896H44.8345C44.422 61.8128 44.097 61.5132 43.7657 61.2199C43.4344 60.9265 43.0562 60.6022 42.725 60.2934C42.1561 59.7344 42.1249 59.0859 42.6125 58.5856C43.1 58.0853 43.7126 58.0915 44.2876 58.5856C45.2388 59.3487 46.1475 60.1621 47.0098 61.0222C47.9474 62.0043 48.9662 62.2853 50.3101 62.2791C59.8705 62.2204 69.4309 62.2482 78.9913 62.2482C79.1994 62.2359 79.4082 62.2359 79.6163 62.2482C79.905 62.2671 80.1763 62.3914 80.3774 62.597C80.5786 62.8025 80.6951 63.0746 80.7045 63.3604C80.7138 63.6461 80.6153 63.9251 80.428 64.1431C80.2408 64.361 79.9782 64.5024 79.6913 64.5397C79.4333 64.5727 79.1727 64.581 78.9131 64.5644H2.40823C2.22697 64.5644 2.04257 64.5644 1.8613 64.5644C1.55972 64.5612 1.27109 64.4429 1.05571 64.2343C0.840324 64.0257 0.714914 63.7429 0.705633 63.445C0.696351 63.1471 0.803895 62.8572 1.00588 62.6359C1.20787 62.4146 1.48862 62.279 1.78943 62.2575C1.91756 62.2112 2.04884 62.2112 2.26761 62.1803ZM4.64602 62.4304C5.15545 62.1216 5.58356 61.9919 5.84297 61.7201C8.73389 58.8296 11.6217 55.9329 14.4689 53.0022C15.045 52.371 15.754 51.8722 16.5461 51.5409C17.3382 51.2096 18.1941 51.0537 19.0537 51.0844C21.0039 51.1276 22.9573 51.0844 24.9106 51.0844C25.1294 51.0844 25.3481 51.0535 25.67 51.0319C24.5324 48.6077 22.776 46.9709 20.1664 46.7887C17.0163 46.5901 13.8568 46.5839 10.706 46.7702C9.12456 46.8693 7.6349 47.5384 6.51961 48.6507C5.40432 49.763 4.74095 51.241 4.65533 52.8045C4.50218 55.8958 4.63038 59.0118 4.63038 62.4304H4.64602ZM24.1261 10.9688H9.63716V16.16H24.1261V10.9688ZM19.7694 8.56923C19.9976 7.2938 20.2508 6.03691 20.4195 4.76766C20.3938 4.6281 20.3314 4.49763 20.2388 4.38927C20.1461 4.28091 20.0263 4.19842 19.8913 4.15002C17.8619 4.10679 15.8325 4.10679 13.8032 4.15002C13.6125 4.15002 13.2469 4.53606 13.2687 4.69973C13.45 5.9906 13.7032 7.27219 13.9345 8.55688L19.7694 8.56923ZM21.8853 18.6028H11.8467V20.6348H21.8853V18.6028Z" fill="white"/>
<path d="M62.2749 35.5388C62.3827 35.9913 62.46 36.4504 62.5062 36.913C62.5164 37.4083 62.3621 37.8933 62.0669 38.2937C61.7718 38.6942 61.3519 38.988 60.8717 39.1303C59.1559 39.6492 57.4338 40.1402 55.693 40.5818C54.3428 40.9246 53.1928 40.2483 52.7615 38.9358L52.5271 38.2317C51.1894 38.6084 49.8674 38.8987 48.6079 39.3527C45.2169 40.588 41.7103 40.7702 38.1537 40.7115C35.991 40.6806 33.8282 40.7393 31.6655 40.7485C30.0091 40.7485 28.7683 39.8468 28.5058 38.4447C28.2182 36.9006 29.0183 35.6221 30.6435 35.0477C31.0779 34.8933 31.5155 34.7389 32.0374 34.566C31.4123 33.5963 30.8716 32.7131 30.3091 31.8206C29.4434 30.4463 28.5651 29.0783 27.7088 27.6947C27.0431 26.62 27.3963 25.743 28.587 25.3662C28.9589 25.2489 29.3403 25.1624 29.7091 25.042C31.4811 24.4614 33.0031 24.8196 34.397 26.0796C36.2722 27.7843 38.2349 29.4087 40.1351 31.0918C40.2999 31.2651 40.5162 31.3821 40.7527 31.4259C40.9892 31.4698 41.2338 31.4382 41.4509 31.3357C44.9044 30.1159 48.3704 28.9393 51.8333 27.7503C51.9801 27.7009 52.127 27.6453 52.277 27.599C53.0396 27.3736 53.6303 27.6206 53.8741 28.263C54.1179 28.9053 53.8178 29.4983 53.0615 29.7731C51.155 30.4525 49.2392 31.1103 47.3233 31.7712L31.6342 37.1755C31.5842 37.194 31.5186 37.1755 31.4873 37.2218C31.2654 37.4596 31.0529 37.7067 30.8373 37.9476C31.1185 38.1081 31.3999 38.4015 31.6843 38.4015C34.2377 38.4201 36.7973 38.2379 39.3413 38.4015C43.4918 38.6609 47.2702 37.2218 51.1581 36.2182C51.4245 36.16 51.6733 36.0409 51.8845 35.8703C52.0956 35.6997 52.2633 35.4825 52.3739 35.2361C52.7095 34.6697 53.2312 34.2338 53.8522 34.0008C55.468 33.4388 57.1401 33.0373 58.7902 32.571C59.191 32.453 59.6151 32.435 60.0247 32.5185C60.4343 32.602 60.8166 32.7845 61.1374 33.0497C61.2563 33.1259 61.3894 33.1777 61.529 33.2021C61.6686 33.2265 61.8117 33.223 61.9499 33.1917C66.5108 31.9565 71.0675 30.6955 75.6201 29.4087C76.6639 29.1184 77.0702 28.5687 76.8702 27.7874C76.6733 27.0586 75.5482 26.4656 74.7387 26.6787C73.6573 26.9628 72.5823 27.2624 71.5009 27.5465C70.5883 27.7843 69.9757 27.5465 69.7757 26.8517C69.557 26.1198 69.9289 25.6009 70.879 25.3076C71.0415 25.2582 71.1915 25.1809 71.479 25.0667C69.6281 24.6254 67.6867 24.7328 65.8972 25.3755C63.6907 26.1445 61.4779 26.9011 59.2683 27.6639C59.0964 27.7225 58.9277 27.7905 58.7527 27.8337C58.4661 27.9287 58.1534 27.91 57.8805 27.7815C57.6076 27.653 57.3959 27.4248 57.2901 27.1451C57.2325 27.0067 57.204 26.8582 57.2061 26.7087C57.2081 26.5591 57.2408 26.4115 57.3021 26.2748C57.3634 26.138 57.4521 26.0149 57.5628 25.9129C57.6736 25.8109 57.804 25.7321 57.9463 25.6812C60.9935 24.6529 64.0251 23.5535 67.1223 22.695C69.2194 22.1175 71.3697 22.4448 73.4011 23.2508C74.6513 23.748 75.9014 24.2915 77.1171 24.8567C77.7933 25.1439 78.3629 25.6309 78.7478 26.2507C79.1328 26.8705 79.3143 27.5928 79.2674 28.3186C79.2411 29.0606 78.9718 29.7742 78.5002 30.3522C78.0285 30.9302 77.3798 31.3414 76.6514 31.5241C72.1322 32.8181 67.588 34.0657 63.0688 35.3319L62.2749 35.5388ZM30.2716 27.3674L34.3345 33.7847L38.1099 32.4753C38.0116 32.3579 37.9072 32.2455 37.7974 32.1387C36.0566 30.6316 34.3064 29.1369 32.5781 27.6175C31.8811 27.0061 31.1498 26.9598 30.2748 27.3674H30.2716ZM54.4272 36.2089L55.0523 38.3706L60.1685 36.9192C59.9466 36.1626 59.7528 35.5079 59.5434 34.776L54.4272 36.2089Z" fill="white"/>
<path d="M19.6691 60.9765C19.4361 60.9935 19.2021 60.9935 18.9691 60.9765C18.692 60.9538 18.4339 60.828 18.2471 60.6245C18.0603 60.421 17.9586 60.1549 17.9627 59.8802C17.9471 59.7433 17.959 59.6047 17.9977 59.4723C18.0364 59.3399 18.1011 59.2164 18.1882 59.1088C18.2753 59.0012 18.383 58.9117 18.5052 58.8453C18.6274 58.779 18.7617 58.7371 18.9003 58.7221C19.4381 58.631 19.9877 58.631 20.5255 58.7221C20.6629 58.7411 20.7952 58.7866 20.9148 58.8563C21.0343 58.9259 21.1388 59.0181 21.2221 59.1277C21.3055 59.2374 21.3661 59.3622 21.4005 59.495C21.4349 59.6279 21.4423 59.7661 21.4225 59.9018C21.4182 60.1765 21.3088 60.4394 21.1163 60.6377C20.9238 60.8359 20.6624 60.9547 20.3849 60.9703C20.1518 60.9858 19.9179 60.9858 19.6848 60.9703L19.6691 60.9765Z" fill="white"/>
<path d="M28.546 60.9761C28.3119 60.9931 28.0769 60.9931 27.8428 60.9761C27.5638 60.9428 27.3065 60.8109 27.1184 60.6046C26.9303 60.3984 26.8241 60.1318 26.8195 59.8542C26.8149 59.5766 26.9123 59.3068 27.0935 59.0946C27.2747 58.8824 27.5275 58.7423 27.8052 58.7001C28.2437 58.6434 28.6872 58.6362 29.1272 58.6784C29.4372 58.6834 29.7326 58.8098 29.9483 59.0298C30.1639 59.2499 30.2824 59.5456 30.2774 59.852C30.2724 60.1583 30.1445 60.4501 29.9218 60.6632C29.6991 60.8763 29.3998 60.9933 29.0898 60.9884C28.9085 60.9884 28.7272 60.9884 28.546 60.9884V60.9761Z" fill="white"/>
<path d="M32.9342 61.0256C32.6029 60.9762 32.1653 61.0256 31.9685 60.8496C31.6243 60.5438 31.3915 60.1347 31.3058 59.6853C31.2527 59.1109 31.7247 58.7589 32.2935 58.6847C32.6548 58.6477 33.0187 58.6415 33.3811 58.6662C34.2031 58.6909 34.7406 59.1727 34.725 59.8552C34.7094 60.5377 34.1936 60.9546 33.4061 60.9824C33.2498 60.9824 33.0935 60.9824 32.9404 60.9824L32.9342 61.0256Z" fill="white"/>
<path d="M24.1454 55.0444C24.3798 55.0444 24.6142 55.0444 24.8455 55.0815C25.1085 55.1028 25.3541 55.2198 25.5348 55.4098C25.7155 55.5998 25.8185 55.8492 25.8238 56.1099C25.8482 56.2444 25.8448 56.3825 25.8138 56.5158C25.7828 56.649 25.7248 56.7747 25.6433 56.8852C25.5619 56.9957 25.4586 57.0888 25.3397 57.1588C25.2209 57.2288 25.0889 57.2744 24.9518 57.2926C24.3895 57.3791 23.817 57.3791 23.2547 57.2926C22.6296 57.1938 22.3484 56.7244 22.3921 56.1068C22.3954 55.8458 22.4977 55.5956 22.6789 55.4057C22.8601 55.2158 23.1069 55.1001 23.3704 55.0815C23.636 55.0444 23.8985 55.0568 24.1454 55.0444Z" fill="white"/>
<path d="M33.0124 55.041C33.2437 55.041 33.4812 55.041 33.7125 55.0781C33.9896 55.0986 34.248 55.2241 34.4337 55.4284C34.6195 55.6326 34.7183 55.8999 34.7094 56.1744C34.739 56.436 34.6646 56.6988 34.502 56.9074C34.3393 57.1159 34.1011 57.2539 33.8374 57.2923C33.3209 57.3761 32.7953 57.3906 32.2748 57.3355C31.9862 57.3007 31.7214 57.1596 31.5334 56.9405C31.3453 56.7214 31.2476 56.4404 31.2598 56.1533C31.272 55.8663 31.3932 55.5943 31.5993 55.3916C31.8053 55.1889 32.0811 55.0704 32.3717 55.0595C32.578 55.0441 32.7874 55.0595 32.9967 55.0595L33.0124 55.041Z" fill="white"/>
<path d="M14.8759 60.9769C14.6677 60.9878 14.459 60.9878 14.2508 60.9769C13.9596 60.9736 13.6816 60.8564 13.4777 60.6508C13.2738 60.4453 13.1607 60.1683 13.1632 59.8806C13.1505 59.7326 13.168 59.5836 13.2147 59.4425C13.2615 59.3013 13.3366 59.171 13.4355 59.0591C13.5344 58.9473 13.655 58.8563 13.7903 58.7916C13.9255 58.7268 14.0726 58.6897 14.2227 58.6823C14.6633 58.6391 15.1072 58.6391 15.5478 58.6823C15.6983 58.6929 15.8452 58.7327 15.9801 58.7994C16.115 58.8662 16.2353 58.9586 16.334 59.0713C16.4327 59.1841 16.5079 59.3149 16.5553 59.4564C16.6028 59.5979 16.6215 59.7473 16.6104 59.896C16.6008 60.1831 16.4801 60.4557 16.2731 60.6574C16.066 60.8591 15.7885 60.9746 15.4978 60.9799C15.2947 60.9954 15.0822 60.9769 14.8759 60.9769Z" fill="white"/>
<path d="M24.1024 60.9764C23.8696 60.998 23.6352 60.998 23.4023 60.9764C23.1255 60.9529 22.868 60.8262 22.6823 60.622C22.4965 60.4178 22.3964 60.1515 22.4022 59.877C22.3866 59.7402 22.3985 59.6018 22.4372 59.4696C22.4759 59.3374 22.5407 59.2141 22.6279 59.1068C22.715 58.9994 22.8228 58.9102 22.945 58.8441C23.0672 58.7781 23.2013 58.7366 23.3398 58.722C23.8572 58.6376 24.385 58.6376 24.9024 58.722C25.0467 58.736 25.1867 58.7787 25.3139 58.8474C25.4412 58.9161 25.5531 59.0095 25.6429 59.122C25.7328 59.2344 25.7987 59.3636 25.8369 59.5018C25.8751 59.64 25.8847 59.7844 25.8651 59.9264C25.8599 60.201 25.7497 60.4636 25.5566 60.6613C25.3636 60.8589 25.1019 60.977 24.8243 60.9918C24.5912 61.0073 24.3573 61.0073 24.1242 60.9918L24.1024 60.9764Z" fill="white"/>
<path d="M37.928 60.9768C37.7186 60.9768 37.5092 60.9768 37.3029 60.9768C37 60.9687 36.7126 60.8428 36.5031 60.6266C36.2936 60.4103 36.1789 60.1211 36.184 59.8218C36.1762 59.5339 36.282 59.2543 36.4792 59.0422C36.6764 58.83 36.9493 58.7021 37.2403 58.6853C37.6286 58.6446 38.0199 58.6395 38.4092 58.6699C39.1811 58.7069 39.6594 59.1887 39.6344 59.8774C39.6094 60.566 39.1437 60.9552 38.3842 60.986C38.228 60.986 38.0717 60.986 37.9154 60.986L37.928 60.9768Z" fill="white"/>
<path d="M19.6296 57.3972C19.3707 57.384 19.1129 57.3552 18.8576 57.3108C18.5833 57.2658 18.337 57.1182 18.17 56.8985C18.003 56.6788 17.9279 56.404 17.9606 56.1311C17.9564 55.8553 18.0629 55.5891 18.2567 55.3906C18.4506 55.1921 18.716 55.0775 18.9951 55.0718C19.4113 55.0438 19.829 55.0438 20.2452 55.0718C20.5478 55.0667 20.8405 55.1784 21.0611 55.3831C21.2817 55.5878 21.4128 55.8694 21.4266 56.1681C21.4325 56.4662 21.3233 56.7552 21.1213 56.9766C20.9193 57.198 20.6396 57.3351 20.339 57.3602C20.1059 57.3756 19.8721 57.3756 19.639 57.3602L19.6296 57.3972Z" fill="white"/>
<path d="M28.6179 55.0444C28.8519 55.0448 29.0857 55.0592 29.3179 55.0877C29.5666 55.1125 29.7979 55.2247 29.9699 55.4037C30.142 55.5828 30.2433 55.8169 30.2555 56.0636C30.3181 56.641 30.0899 57.1506 29.5148 57.2556C28.8812 57.3668 28.2327 57.3668 27.599 57.2556C27.4696 57.2299 27.3466 57.179 27.2373 57.1058C27.128 57.0327 27.0345 56.9387 26.9624 56.8295C26.8902 56.7202 26.8408 56.5979 26.817 56.4695C26.7932 56.3412 26.7956 56.2095 26.8239 56.0821C26.8381 55.821 26.9493 55.5742 27.1361 55.389C27.3229 55.2038 27.5723 55.0932 27.8365 55.0784C28.0958 55.0645 28.3555 55.0645 28.6147 55.0784L28.6179 55.0444Z" fill="white"/>
<path d="M54.6334 32.1542C54.6399 32.3085 54.6143 32.4624 54.5584 32.6065C54.5024 32.7507 54.4173 32.882 54.3081 32.9925C54.1989 33.103 54.068 33.1902 53.9235 33.2489C53.779 33.3076 53.6239 33.3365 53.4677 33.3339C53.1653 33.3318 52.8753 33.2149 52.6577 33.0074C52.4401 32.7998 52.3117 32.5176 52.2988 32.2191C52.2987 31.9068 52.4222 31.607 52.643 31.3836C52.8638 31.1603 53.1643 31.0312 53.4802 31.0239C53.7825 31.0301 54.0708 31.1509 54.2854 31.3613C54.5001 31.5717 54.6247 31.8556 54.6334 32.1542Z" fill="white"/>
<path d="M57.171 29.8602C57.3272 29.8564 57.4826 29.8839 57.6278 29.941C57.773 29.998 57.905 30.0835 58.0159 30.1922C58.1269 30.301 58.2144 30.4308 58.2733 30.5738C58.3322 30.7168 58.3612 30.8701 58.3586 31.0245C58.3574 31.2526 58.2879 31.4752 58.1591 31.6645C58.0302 31.8538 57.8477 32.0013 57.6343 32.0884C57.421 32.1756 57.1863 32.1985 56.9598 32.1544C56.7333 32.1102 56.5251 32.001 56.3612 31.8403C56.1973 31.6796 56.0851 31.4747 56.0386 31.2513C55.9922 31.0278 56.0135 30.7958 56.1 30.5843C56.1865 30.3728 56.3343 30.1912 56.5248 30.0624C56.7154 29.9336 56.9401 29.8632 57.171 29.8602Z" fill="white"/>
<path d="M60.9114 28.6828C61.2135 28.6841 61.5035 28.8004 61.7212 29.0074C61.9389 29.2144 62.0674 29.4963 62.0803 29.7946C62.0804 30.106 61.9572 30.405 61.737 30.6278C61.5168 30.8506 61.2171 30.9794 60.9021 30.9866C60.7462 30.9843 60.5922 30.9511 60.4495 30.8891C60.3067 30.8271 60.178 30.7375 60.0708 30.6255C59.9636 30.5136 59.8802 30.3815 59.8254 30.2373C59.7706 30.093 59.7456 29.9393 59.7519 29.7853C59.7548 29.6377 59.787 29.4921 59.8468 29.3567C59.9067 29.2214 59.9929 29.0991 60.1005 28.9967C60.2082 28.8943 60.3353 28.8139 60.4744 28.7601C60.6136 28.7062 60.762 28.68 60.9114 28.6828Z" fill="white"/>
<path d="M50.9114 33.3776C50.9084 33.675 50.7901 33.96 50.5807 34.1737C50.3714 34.3875 50.0871 34.5137 49.7863 34.5264C49.4713 34.5264 49.1692 34.4027 48.9465 34.1826C48.7238 33.9626 48.5986 33.6641 48.5986 33.3528C48.5978 33.1986 48.6293 33.0459 48.6909 32.9043C48.7525 32.7626 48.8431 32.635 48.9569 32.5295C49.0707 32.424 49.2054 32.3429 49.3524 32.2911C49.4994 32.2394 49.6556 32.2181 49.8113 32.2287C49.9604 32.2311 50.1075 32.2629 50.244 32.3222C50.3805 32.3816 50.5036 32.4673 50.6061 32.5743C50.7086 32.6813 50.7884 32.8075 50.8409 32.9455C50.8933 33.0834 50.9172 33.2303 50.9114 33.3776Z" fill="white"/>
<path d="M47.2165 34.5757C47.2102 34.73 47.1725 34.8816 47.1057 35.0212C47.039 35.1609 46.9445 35.2859 46.8279 35.3888C46.7112 35.4916 46.5748 35.5703 46.4268 35.62C46.2788 35.6697 46.1222 35.6895 45.9663 35.6782C45.8169 35.6739 45.6698 35.64 45.5339 35.5783C45.3981 35.5166 45.2762 35.4285 45.1755 35.3193C45.0749 35.21 44.9975 35.0819 44.9482 34.9424C44.8988 34.803 44.8784 34.6552 44.8881 34.5077C44.8914 34.2098 45.0132 33.9252 45.2273 33.7154C45.4413 33.5056 45.7304 33.3875 46.0319 33.3867C46.3481 33.3908 46.6498 33.5179 46.8716 33.7406C47.0934 33.9632 47.2173 34.2633 47.2165 34.5757Z" fill="white"/>
<path d="M64.612 29.7861C64.4562 29.7885 64.3017 29.7591 64.158 29.6996C64.0144 29.6402 63.8848 29.5519 63.7774 29.4405C63.6699 29.3291 63.587 29.197 63.5337 29.0523C63.4805 28.9077 63.4582 28.7538 63.4681 28.6002C63.4689 28.4469 63.5009 28.2953 63.5622 28.1544C63.6235 28.0136 63.7129 27.8863 63.8251 27.7804C63.9372 27.6744 64.0698 27.5918 64.2149 27.5374C64.36 27.4831 64.5147 27.4582 64.6698 27.4643C64.8249 27.4703 64.9771 27.5071 65.1175 27.5724C65.2578 27.6378 65.3835 27.7304 65.4868 27.8448C65.5902 27.9591 65.6693 28.0929 65.7192 28.2381C65.7692 28.3832 65.7891 28.5368 65.7777 28.6898C65.774 28.8374 65.741 28.9829 65.6804 29.1179C65.6198 29.2529 65.533 29.3748 65.4247 29.4766C65.3165 29.5784 65.1889 29.6581 65.0495 29.7112C64.91 29.7644 64.7614 29.7898 64.612 29.7861Z" fill="white"/>
<path d="M17.0071 12.4333C17.1566 12.4361 17.3041 12.4683 17.4408 12.5282C17.5775 12.5881 17.7008 12.6743 17.8033 12.7819C17.9058 12.8895 17.9854 13.0163 18.0377 13.1548C18.0899 13.2933 18.1135 13.4406 18.1072 13.5883C18.1049 13.7428 18.0713 13.8953 18.0084 14.0367C17.9454 14.1782 17.8545 14.3057 17.7409 14.4119C17.6273 14.5181 17.4934 14.6008 17.347 14.655C17.2006 14.7093 17.0446 14.734 16.8884 14.7278C16.5869 14.7118 16.3036 14.5803 16.0987 14.3611C15.8939 14.142 15.7836 13.8526 15.7914 13.5543C15.7896 13.3997 15.8204 13.2464 15.882 13.1042C15.9435 12.962 16.0344 12.8341 16.1488 12.7286C16.2632 12.6231 16.3987 12.5424 16.5465 12.4915C16.6943 12.4407 16.8511 12.4208 17.0071 12.4333Z" fill="white"/>
<path d="M22.1176 13.5914C22.116 13.8896 21.9958 14.1752 21.783 14.3867C21.5701 14.5981 21.2818 14.7184 20.98 14.7217C20.665 14.7201 20.3632 14.5961 20.1398 14.3766C19.9164 14.157 19.7894 13.8595 19.7861 13.5482C19.7917 13.3944 19.8282 13.2433 19.8936 13.1037C19.9589 12.964 20.0518 12.8387 20.1667 12.7349C20.2817 12.6311 20.4163 12.551 20.563 12.4992C20.7096 12.4474 20.8652 12.425 21.0206 12.4333C21.17 12.4369 21.3172 12.4698 21.4536 12.5302C21.5899 12.5906 21.7128 12.6772 21.8149 12.785C21.917 12.8928 21.9964 13.0197 22.0484 13.1581C22.1004 13.2966 22.1239 13.4439 22.1176 13.5914Z" fill="white"/>
<path d="M12.7765 12.4328C13.0783 12.4361 13.3665 12.557 13.5784 12.7693C13.7903 12.9816 13.9087 13.268 13.9079 13.5662C13.9062 13.72 13.8738 13.872 13.8126 14.0134C13.7513 14.1548 13.6624 14.2829 13.5508 14.3902C13.4393 14.4976 13.3074 14.5821 13.1627 14.6389C13.018 14.6956 12.8634 14.7236 12.7077 14.7212C12.5509 14.7167 12.3967 14.6807 12.2545 14.6153C12.1123 14.5499 11.9852 14.4565 11.8807 14.3409C11.7763 14.2253 11.6968 14.0898 11.6472 13.9428C11.5975 13.7958 11.5788 13.6403 11.592 13.4859C11.5984 13.3394 11.6342 13.1957 11.6975 13.0631C11.7607 12.9304 11.8501 12.8116 11.9604 12.7136C12.0707 12.6155 12.1997 12.5402 12.3398 12.492C12.48 12.4438 12.6284 12.4237 12.7765 12.4328Z" fill="white"/>
</svg>
