<svg width="54" height="54" viewBox="0 0 54 54" fill="none" xmlns="http://www.w3.org/2000/svg">
<path d="M51.3903 27.129H40.3425V25.1821C40.3425 24.4537 39.7499 23.861 39.0214 23.861H30.0949C29.3664 23.861 28.7739 24.4537 28.7739 25.1821V27.129H27.3275V19.8827C27.3275 18.4622 26.1719 17.3064 24.7514 17.3064H21.6022V3.2777C21.6022 2.42626 20.9096 1.73353 20.0581 1.73353H18.8544V1.38285C18.8543 0.713304 18.3094 0.168457 17.6398 0.168457H11.5988C10.9293 0.168457 10.3844 0.713304 10.3844 1.38285V1.73353H9.18077C8.32934 1.73353 7.6366 2.42626 7.6366 3.2777V17.3064H3.5451C2.12459 17.3064 0.96875 18.4622 0.96875 19.8827V27.9001C0.96875 28.3309 1.31787 28.6801 1.74874 28.6801C2.1796 28.6801 2.52873 28.3309 2.52873 27.9001V19.8827C2.52873 19.3224 2.98465 18.8664 3.5451 18.8664H24.7513C25.3116 18.8664 25.7675 19.3224 25.7675 19.8827V47.1219C25.7675 47.6823 25.3115 48.1382 24.7513 48.1382H3.5451C2.98465 48.1382 2.52873 47.6823 2.52873 47.1219V31.0201C2.52873 30.5893 2.1796 30.2401 1.74874 30.2401C1.31787 30.2401 0.96875 30.5893 0.96875 31.0201V47.1218C0.96875 48.5424 2.12448 49.6981 3.5451 49.6981H5.13108V52.5146C5.13108 52.9453 5.4802 53.2946 5.91106 53.2946C6.34193 53.2946 6.69105 52.9453 6.69105 52.5146V49.6981H15.4646V51.0356C15.4646 52.2827 16.4791 53.2972 17.726 53.2972H51.3903C52.6372 53.2972 53.6517 52.2827 53.6517 51.0356V29.3904C53.6517 28.1435 52.6373 27.129 51.3903 27.129ZM11.9444 1.72843H17.2942V3.2986H11.9444V1.72843ZM9.19658 3.2935H10.3844V3.64419C10.3844 4.31383 10.9292 4.85857 11.5988 4.85857H17.6398C18.3094 4.85857 18.8543 4.31383 18.8543 3.64419V3.2935H20.0422V17.3064H9.19658V3.2935ZM45.7608 28.689V51.6267H44.2001V28.689H45.7608ZM27.3274 47.1219V28.689H34.5581C34.989 28.689 35.3381 28.3397 35.3381 27.909C35.3381 27.4782 34.989 27.129 34.5581 27.129H30.3337V25.421H38.7824V27.129H37.6781C37.2472 27.129 36.8981 27.4782 36.8981 27.909C36.8981 28.3397 37.2472 28.689 37.6781 28.689H42.6402V51.7372H23.1653V49.6981H24.7513C26.1718 49.6982 27.3274 48.5425 27.3274 47.1219ZM17.0245 51.0357V49.6982H21.6053V51.7373H17.726C17.3391 51.7373 17.0245 51.4225 17.0245 51.0357ZM52.0917 51.0357C52.0917 51.4226 51.7771 51.7373 51.3903 51.7373H47.3208V28.689H51.3903C51.7771 28.689 52.0917 29.0037 52.0917 29.3905V51.0357Z" fill="white"/>
<path d="M30.8932 45.9317H36.6564C37.6207 45.9317 38.4052 45.1472 38.4052 44.1829V41.9133C38.4052 40.949 37.6207 40.1646 36.6564 40.1646H30.8932C29.929 40.1646 29.1445 40.949 29.1445 41.9133V44.1829C29.1445 45.1472 29.929 45.9317 30.8932 45.9317ZM30.7045 41.9133C30.7045 41.8092 30.7892 41.7245 30.8932 41.7245H36.6564C36.7605 41.7245 36.8452 41.8092 36.8452 41.9133V44.1829C36.8452 44.287 36.7605 44.3717 36.6564 44.3717H30.8932C30.7892 44.3717 30.7045 44.287 30.7045 44.1829V41.9133Z" fill="white"/>
<path d="M7.58439 44.1149V22.8903C7.58439 22.4596 7.23527 22.1104 6.8044 22.1104C6.37354 22.1104 6.02441 22.4596 6.02441 22.8903V44.115C6.02441 44.5458 6.37354 44.895 6.8044 44.895C7.23527 44.8949 7.58439 44.5457 7.58439 44.1149Z" fill="white"/>
<path d="M12.4809 44.1149V22.8903C12.4809 22.4596 12.1318 22.1104 11.7009 22.1104C11.27 22.1104 10.9209 22.4596 10.9209 22.8903V44.115C10.9209 44.5458 11.27 44.895 11.7009 44.895C12.1316 44.8949 12.4809 44.5457 12.4809 44.1149Z" fill="white"/>
<path d="M17.3764 44.1149V22.8903C17.3764 22.4596 17.0273 22.1104 16.5964 22.1104C16.1655 22.1104 15.8164 22.4596 15.8164 22.8903V44.115C15.8164 44.5458 16.1655 44.895 16.5964 44.895C17.0273 44.895 17.3764 44.5457 17.3764 44.1149Z" fill="white"/>
<path d="M22.2709 44.1149V22.8903C22.2709 22.4596 21.9218 22.1104 21.4909 22.1104C21.0601 22.1104 20.7109 22.4596 20.7109 22.8903V44.115C20.7109 44.5458 21.0601 44.895 21.4909 44.895C21.9218 44.8949 22.2709 44.5457 22.2709 44.1149Z" fill="white"/>
</svg>
