<svg width="61" height="33" viewBox="0 0 61 33" fill="none" xmlns="http://www.w3.org/2000/svg">
<path d="M48.5578 10.0305C46.7381 10.0305 45.0217 10.4541 43.4914 11.1844L37.8378 2.18684H44.0579C44.6413 2.18684 45.1168 1.72848 45.1168 1.16414C45.1168 0.599474 44.6413 0.141113 44.0579 0.141113H36.1169C35.5334 0.141113 35.058 0.599474 35.058 1.16414C35.058 1.20712 35.079 1.24387 35.0828 1.28685C35.0519 1.50963 35.0828 1.74357 35.2152 1.95126L37.1303 5.00197H20.4106C20.3702 5.00197 20.3382 5.02691 20.2958 5.03084L18.5131 2.18881H22.0876C22.6697 2.18881 23.1466 1.73045 23.1466 1.16578C23.1466 0.601115 22.6701 0.142754 22.0876 0.142754H13.0877C12.5056 0.142754 12.0288 0.601115 12.0288 1.16578C12.0288 1.73045 12.5053 2.18881 13.0877 2.18881H16.0377L18.8161 6.61427L16.1266 10.9817C14.7101 10.3743 13.1448 10.0308 11.4976 10.0308C5.1726 10.0305 0.0263672 15.0013 0.0263672 21.1125C0.0263672 27.2241 5.1726 32.1946 11.4973 32.1946C17.3713 32.1946 22.2231 27.899 22.8857 22.3911H29.3235C29.5158 22.3911 29.7029 22.3373 29.8591 22.2451C29.8632 22.2432 29.8693 22.2451 29.8744 22.2412C30.016 22.1572 30.1216 22.0434 30.2062 21.9177C30.2126 21.9055 30.2279 21.9016 30.2364 21.8898L38.8919 7.8148L41.6856 12.26C38.9001 14.2837 37.0845 17.4945 37.0845 21.1125C37.0845 27.2241 42.2294 32.1946 48.5554 32.1946C54.8815 32.1946 60.0264 27.2241 60.0264 21.1125C60.0267 15.0013 54.8818 10.0305 48.5578 10.0305ZM20.0611 8.59208L27.4427 20.3434H22.9302C22.683 16.8734 20.7804 13.8375 17.9793 11.9765L20.0611 8.59208ZM20.7723 20.3454H12.8334L16.8887 13.7512C19.0725 15.2467 20.5335 17.6261 20.7723 20.3454ZM11.4997 30.1469C6.34123 30.1469 2.14592 26.0935 2.14592 21.1106C2.14592 16.1276 6.34089 12.0742 11.4997 12.0742C12.7529 12.0742 13.9429 12.322 15.0378 12.7554L10.059 20.8428C9.86477 21.1581 9.86069 21.5499 10.0509 21.8695C10.237 22.1894 10.5885 22.3869 10.9723 22.3869H20.7196C20.0693 26.7648 16.2075 30.1469 11.4997 30.1469ZM29.3174 19.3805L21.5663 7.04573H36.9024L29.3174 19.3805ZM48.5578 30.1469C43.4 30.1469 39.2044 26.0935 39.2044 21.1106C39.2044 18.2334 40.6291 15.6962 42.8067 14.0379L47.7431 21.8957C47.9434 22.2133 48.2909 22.3892 48.6488 22.3892C48.837 22.3892 49.0292 22.3413 49.1987 22.2392C49.6972 21.9475 49.8582 21.3182 49.5546 20.8346L44.6016 12.9493C45.8072 12.4017 47.1392 12.0723 48.5575 12.0723C53.7152 12.0723 57.9112 16.124 57.9112 21.1089C57.9112 26.0938 53.7152 30.1469 48.5578 30.1469Z" fill="white"/>
</svg>
