<svg width="78" height="32" viewBox="0 0 78 32" fill="none" xmlns="http://www.w3.org/2000/svg">
<path d="M16.8105 25.1361C16.9312 25.1182 16.9821 25.2012 17.0471 25.2485C19.1346 26.7845 21.4266 27.8693 23.9797 28.3716C25.3835 28.6394 26.8152 28.7298 28.2414 28.6406C30.3987 28.5188 32.4824 28.0468 34.5398 27.3972C37.3341 26.5136 40.0003 25.3202 42.658 24.0929C44.8651 23.0798 47.0582 22.0328 49.3144 21.1293C51.3878 20.2994 53.5375 19.902 55.7767 20.0379C58.2902 20.1956 60.5832 21.0094 62.7197 22.3245C64.1211 23.1823 65.3934 24.2358 66.498 25.4533C66.5394 25.5005 66.5799 25.5487 66.6195 25.5978C66.6271 25.6072 66.6195 25.6261 66.6252 25.6554C66.2331 25.5676 65.8467 25.4731 65.4575 25.3948C64.0071 25.1021 62.5425 25.0813 61.0751 25.206C58.0782 25.4533 55.1698 26.1567 52.2709 26.9176C49.1608 27.7352 46.0677 28.6416 42.9473 29.4299C40.4328 30.0662 37.9062 30.6506 35.3455 31.0698C33.8293 31.3252 32.2918 31.432 30.7549 31.3889C27.7617 31.2945 24.9042 30.6336 22.222 29.2788C20.2373 28.28 18.4523 26.9988 16.9557 25.3429C16.9133 25.2966 16.8746 25.2485 16.836 25.1984C16.8249 25.1788 16.8164 25.1579 16.8105 25.1361V25.1361Z" fill="black"/>
<path d="M37.116 9.50805C38.802 8.37512 39.1545 5.00748 37.5523 3.64797C38.3333 3.77424 39.0895 4.02275 39.7934 4.38437C40.5574 4.75659 41.252 5.2573 41.847 5.86474C42.4031 6.45197 42.9186 7.06753 43.305 7.80016C43.7314 8.59331 44.034 9.44726 44.2022 10.3323C44.288 10.7486 44.3272 11.1732 44.319 11.5983C44.2832 12.5046 44.2568 13.4157 43.9421 14.2833C43.4435 15.6495 42.7452 16.8881 41.651 17.871C40.7406 18.6895 39.8905 19.5704 39.0433 20.4531C38.1178 21.4151 37.1631 22.3479 36.2329 23.3071C36.1038 23.4412 36.0322 23.4308 35.9049 23.3071C34.0012 21.3915 32.072 19.5005 30.189 17.5641C28.3362 15.658 27.5719 13.3525 27.897 10.708C28.1016 9.04191 28.8119 7.4789 29.9319 6.23028C31.0519 4.98166 32.5276 4.10762 34.1595 3.72633C35.038 3.51495 35.9458 3.4543 36.8445 3.54695C36.9133 3.5545 36.9859 3.54695 37.033 3.61398C37.3723 4.06149 37.672 4.52977 37.7568 5.09906C37.8511 5.71934 37.5853 6.21783 37.1914 6.65967C36.6692 7.24219 36.0114 7.66609 35.3847 8.12399C34.6515 8.66024 33.89 9.16251 33.2708 9.83849C32.5876 10.5751 32.1297 11.4925 31.9514 12.482C31.8166 13.2005 31.8722 13.9208 31.8948 14.6364C31.9372 16.013 32.4396 17.1988 33.5366 18.0824C34.1388 18.5677 34.1463 18.5658 34.7137 18.0579C35.2107 17.6129 35.7032 17.1629 36.1914 16.7078C36.329 16.5785 36.3893 16.5294 36.4883 16.756C36.7955 17.4748 37.3416 18.0649 38.0339 18.4261C38.081 18.4592 38.1384 18.4742 38.1956 18.4685C38.2529 18.4628 38.3062 18.4367 38.3459 18.3949C39.1821 17.6812 40.0209 16.9706 40.8622 16.2631C40.9724 16.1687 40.9649 16.1026 40.8952 15.9894C40.636 15.5749 40.6407 15.5721 40.2647 15.8628C40.0598 16.0215 39.8544 16.1788 39.6483 16.3349C39.2996 16.6011 38.9236 16.5454 38.6644 16.181C38.4212 15.8383 38.3364 15.4389 38.2752 15.0339C38.1753 14.3627 38.1809 13.6857 38.1809 13.0097C38.1809 11.9165 38.1762 10.8232 38.1856 9.72991C38.1856 9.54109 38.1338 9.49011 37.951 9.49955C37.6758 9.52032 37.3949 9.50805 37.116 9.50805Z" fill="black"/>
<path d="M18.0715 18.876C17.261 18.2737 16.4938 17.7025 15.7248 17.1351C15.6136 17.0529 15.6372 16.9463 15.6372 16.8358C15.6372 13.9179 15.6372 10.9996 15.6372 8.08108C15.6372 7.694 15.6032 7.31258 15.4298 6.95571C15.1546 6.38924 14.6759 6.16077 14.0793 6.12867C13.871 6.11734 13.7202 6.30994 13.7202 6.55257C13.7202 9.45476 13.7202 12.3573 13.7202 15.2601C13.7202 16.4553 13.7202 17.6515 13.7202 18.8477C13.7202 19.0648 13.7052 19.2338 13.4959 19.3736C12.807 19.8343 12.1351 20.3177 11.4056 20.8284V20.5046C11.4056 16.7219 11.4056 12.9385 11.4056 9.15453C11.4056 8.19626 11.2482 7.25971 10.8458 6.38075C10.221 5.01368 9.14563 4.29521 7.65374 4.17153C5.25806 3.97233 3.71811 5.6585 3.13568 7.41643C2.68331 8.79294 2.70969 10.144 3.41841 11.4346C4.09885 12.6779 5.12329 13.3813 6.58501 13.3228C6.91485 13.3056 7.24095 13.2446 7.55479 13.1415C7.71123 13.0924 7.75553 13.1292 7.81961 13.2822C7.92799 13.5437 7.82904 13.6513 7.60662 13.7599C6.01389 14.5416 4.44567 14.433 2.91138 13.6183C1.16032 12.693 0.352647 11.1759 0.241439 9.2395C0.0425838 5.79634 2.57587 3.25292 5.50874 2.70345C6.80083 2.46081 8.06842 2.50613 9.30961 2.95175C10.6937 3.43338 11.8625 4.39113 12.6082 5.65473C12.725 5.84355 12.7872 5.87565 12.9748 5.71704C13.6222 5.1704 14.2942 4.64925 14.9482 4.11205C14.9897 4.07732 15.0379 4.05151 15.0898 4.03624C15.1417 4.02098 15.1962 4.01657 15.2498 4.02331C15.956 4.06636 16.6187 4.3797 17.1008 4.8985C17.2158 5.02029 17.2761 5.02029 17.3995 4.92115C18.0159 4.42172 18.6436 3.93739 19.258 3.43607C19.318 3.38139 19.3919 3.34442 19.4716 3.32925C19.5513 3.31409 19.6336 3.32133 19.7095 3.35016C20.7263 3.66077 21.4454 4.32353 21.9261 5.25915C22.3125 6.01443 22.4246 6.82164 22.4237 7.65718C22.4237 10.5679 22.4152 13.4776 22.4237 16.3883C22.4237 17.3107 22.5113 18.2284 22.8742 19.0913C23.1164 19.6681 23.4736 20.1458 24.1154 20.3186C24.5366 20.4271 24.9805 20.4074 25.3905 20.262C25.5677 20.2044 25.6506 20.2233 25.7109 20.4196C25.8278 20.8039 25.8429 20.8039 25.4715 20.9285C24.5743 21.2306 23.6658 21.3477 22.7469 21.0446C21.6085 20.667 20.9101 19.8428 20.4681 18.7684C20.153 17.9771 19.9955 17.1316 20.0044 16.2797C19.9975 13.4398 19.9975 10.6003 20.0044 7.76103C20.0044 7.07278 19.8602 6.43928 19.3956 5.90303C19.1755 5.64452 18.8866 5.45397 18.5625 5.35356C18.5051 5.3292 18.4417 5.32248 18.3805 5.33424C18.3192 5.34601 18.2629 5.37573 18.2185 5.41964C18.0696 5.55748 17.8415 5.64623 17.7586 5.81145C17.6757 5.97667 17.8528 6.18909 17.899 6.37791C18.0047 6.7974 18.0629 7.22748 18.0724 7.66001C18.0724 11.325 18.0724 14.9904 18.0724 18.656L18.0715 18.876Z" fill="black"/>
<path d="M45.8093 11.5404C45.8093 10.4632 45.8046 9.38504 45.8093 8.30782C45.8093 8.13032 45.765 8.08123 45.5888 8.08595C45.3645 8.09256 45.0639 8.19075 44.9357 8.04535C44.8254 7.92073 44.9046 7.62617 44.9027 7.40619C44.9027 7.20226 44.9121 6.99645 44.9027 6.79346C44.8923 6.64052 44.9517 6.59426 45.0912 6.61503C45.1147 6.61786 45.1384 6.61786 45.1619 6.61503C45.3702 6.59898 45.6435 6.70944 45.7716 6.56877C45.8998 6.42809 45.8075 6.16374 45.8084 5.95321C45.8084 4.78912 45.815 3.62504 45.8084 2.46001C45.8027 2.38382 45.8192 2.30761 45.8558 2.24059C45.8924 2.17358 45.9477 2.11862 46.0148 2.08236C46.5803 1.70472 47.1297 1.32141 47.6876 0.941882C47.7564 0.894676 47.829 0.796489 47.9044 0.828589C47.9798 0.860689 47.9411 0.983423 47.9411 1.06367C47.9411 2.83293 47.9468 4.60313 47.9411 6.37239C47.9411 6.56593 47.9873 6.62353 48.1862 6.62069C48.9552 6.60842 49.7252 6.62069 50.4942 6.61314C50.6733 6.61314 50.7242 6.6358 50.6092 6.81046C50.3623 7.1881 50.1295 7.56575 49.9005 7.95094C49.8765 7.99916 49.8384 8.03886 49.7912 8.06469C49.744 8.09051 49.69 8.10123 49.6366 8.09539C49.1267 8.08784 48.6159 8.09539 48.1051 8.08973C47.9883 8.08973 47.9421 8.11427 47.943 8.24456C47.9496 10.2659 47.943 12.2872 47.9609 14.3086C47.9666 14.8967 48.0467 15.4859 48.3539 16.0136C48.4394 16.174 48.568 16.3071 48.7252 16.3979C48.8278 16.4616 48.9473 16.4924 49.0678 16.486C49.1883 16.4796 49.3039 16.4363 49.3991 16.362C49.761 16.1231 49.9693 15.8748 49.7987 15.4179C49.7421 15.2631 49.7695 15.0752 49.7695 14.9024C49.7695 13.4787 49.7695 12.055 49.7638 10.6313C49.7594 10.5514 49.7743 10.4716 49.8071 10.3987C49.8399 10.3257 49.8897 10.2617 49.9523 10.2121C50.9683 9.31014 51.9786 8.40286 52.9832 7.49022C53.0359 7.43039 53.1073 7.39031 53.1858 7.37658C53.2642 7.36285 53.345 7.37629 53.4148 7.41469C55.0453 8.09161 55.836 9.36238 55.7738 11.2072C55.7417 12.1824 55.4807 13.0727 54.853 13.8337C54.6147 14.1063 54.3301 14.3345 54.0123 14.5078C53.9077 14.5621 53.7889 14.5829 53.6721 14.5673C53.1698 14.5427 52.6684 14.5248 52.1642 14.4898C52.0021 14.4785 51.9512 14.5144 51.9493 14.6862C51.9399 15.7889 52.4837 16.5017 53.6363 16.8577C53.9351 16.9521 54.2451 17.0078 54.5467 17.0937C54.6589 17.1258 54.7258 17.0701 54.8012 17.0153C55.1904 16.7321 55.5815 16.4602 55.9641 16.1732C56.0876 16.0788 56.1526 16.0948 56.2469 16.2109C56.5371 16.5565 56.5437 16.5518 56.2111 16.8558C55.5199 17.4852 54.831 18.1146 54.1443 18.744C54.0717 18.8101 54.0076 18.8696 53.8993 18.845C52.9568 18.6345 52.0285 18.3947 51.2152 17.8376C50.8432 17.5884 50.5294 17.2615 50.2954 16.8794C50.2011 16.7208 50.1446 16.6962 49.9928 16.8274C49.3765 17.3628 48.7441 17.8792 48.1221 18.4088C48.0815 18.4548 48.0255 18.4843 47.9647 18.4916C47.9039 18.4989 47.8425 18.4835 47.7922 18.4485C46.7914 17.9151 46.2627 17.0418 46.0016 15.974C45.8661 15.3923 45.8006 14.7964 45.8065 14.1991C45.8065 13.3182 45.8093 12.4288 45.8093 11.5404ZM51.9569 11.5839C51.9569 12.1957 51.9569 12.8112 51.9569 13.4202C51.9569 13.5722 51.9974 13.6137 52.1539 13.6203C52.3304 13.6314 52.5068 13.597 52.6663 13.5205C52.8258 13.444 52.9631 13.3279 53.0652 13.1832C53.3555 12.8055 53.4638 12.3703 53.5034 11.9115C53.5901 10.9136 53.2829 10.0875 52.4225 9.51816C52.3405 9.4634 52.25 9.36144 52.1265 9.43886C52.0696 9.4721 52.0234 9.52097 51.9933 9.57969C51.9633 9.63842 51.9506 9.70454 51.9569 9.77024C51.9625 10.3745 51.9569 10.9796 51.9569 11.5848V11.5839Z" fill="black"/>
<path d="M73.9868 9.4918C74.2592 9.4918 74.5334 9.50124 74.8058 9.4918C74.9736 9.48425 75.016 9.54184 75.015 9.70422C75.0094 11.0807 75.0065 12.4563 75.015 13.8319C75.015 14.4852 75.0461 15.1376 75.2676 15.7635C75.3618 16.0467 75.5023 16.2998 75.7859 16.4329C75.9886 16.5273 76.1799 16.5415 76.374 16.3772C76.6568 16.1336 76.9715 15.9183 77.2656 15.6833C77.3777 15.5889 77.4418 15.5747 77.5361 15.7182C77.8244 16.16 77.8292 16.1525 77.4286 16.4914C76.7029 17.1041 75.9725 17.7112 75.261 18.34C75.0603 18.5165 74.9142 18.5288 74.6955 18.3881C74.0481 17.9822 73.542 17.4601 73.2489 16.7454C73.2291 16.6953 73.2027 16.651 73.1716 16.5821C72.5176 17.1816 71.8644 17.7641 71.233 18.3683C71.0671 18.5269 70.9503 18.5241 70.7712 18.4165C69.6488 17.732 68.9891 16.7312 68.7666 15.4444C68.6139 14.4881 68.5999 13.5148 68.7252 12.5545C68.8449 11.5481 69.3142 10.6795 69.9937 9.92609C70.6949 9.15003 71.544 8.55713 72.3866 7.95385C72.9859 7.52428 73.5957 7.10415 74.0745 6.53769C74.3264 6.25412 74.4902 5.90302 74.5457 5.52749C74.5617 5.40287 74.6296 5.37832 74.7266 5.35378C74.8435 5.32356 74.8982 5.38115 74.9443 5.47651C75.1875 5.975 75.2026 6.50559 75.1658 7.04278C75.1027 7.96895 74.7794 8.76861 74.0405 9.36529C74.0171 9.38638 73.9962 9.41014 73.9783 9.4361C73.9783 9.4361 73.9783 9.44271 73.9868 9.4918ZM72.7343 10.3481C72.4656 10.5243 72.2133 10.7243 71.9804 10.9457C71.4092 11.4688 70.9899 12.0853 70.9145 12.8764C70.8312 13.5867 70.847 14.3052 70.9616 15.0111C71.0351 15.4161 71.1256 15.8145 71.4375 16.126C71.691 16.3781 71.9709 16.4197 72.2424 16.2082C72.4148 16.0732 72.5854 15.9344 72.7626 15.8051C72.813 15.7775 72.8514 15.7323 72.8705 15.6781C72.8897 15.6239 72.8881 15.5646 72.8663 15.5114C72.8254 15.3202 72.8039 15.1254 72.8022 14.9299C72.7258 13.4939 72.7833 12.056 72.7645 10.6191C72.7805 10.5277 72.77 10.4337 72.7343 10.3481V10.3481Z" fill="black"/>
<path d="M65.4477 14.0394C65.4477 15.4471 65.4477 16.8547 65.4477 18.2624C65.4477 18.4682 65.411 18.5456 65.182 18.5456C64.609 18.5277 64.036 18.5353 63.462 18.5456C63.3103 18.5456 63.2424 18.5211 63.2424 18.3436C63.2474 15.7479 63.2474 13.1526 63.2424 10.5575C63.2404 10.5032 63.2513 10.4492 63.2743 10.4C63.2972 10.3507 63.3315 10.3077 63.3744 10.2743C64.3922 9.37112 65.4069 8.46635 66.4184 7.56C66.4938 7.49203 66.5532 7.42216 66.6814 7.46559C67.85 7.88383 68.6973 8.62213 69.0714 9.84191C69.1063 9.95615 69.1072 10.0204 68.9856 10.0864C68.3787 10.4159 67.7774 10.7539 67.1771 11.0957C67.047 11.1693 66.9952 11.1684 66.9783 11.0013C66.9029 10.2403 66.4307 9.77394 65.7889 9.45105C65.6259 9.36892 65.4572 9.49354 65.4487 9.69841C65.4402 9.90328 65.4487 10.0921 65.4487 10.2885C65.448 11.5397 65.4477 12.79 65.4477 14.0394Z" fill="black"/>
<path d="M59.1704 14.0398C59.1704 15.4635 59.1704 16.8872 59.1704 18.31C59.1704 18.4988 59.1186 18.5479 58.9339 18.5441C58.3458 18.5318 57.7568 18.5337 57.1677 18.5441C57.0113 18.5441 56.9793 18.4997 56.9793 18.3477C56.983 15.7451 56.983 13.1422 56.9793 10.539C56.9758 10.4894 56.9843 10.4397 57.004 10.394C57.0237 10.3483 57.054 10.3081 57.0924 10.2765C58.114 9.3702 59.1337 8.46165 60.1515 7.5509C60.2269 7.48387 60.29 7.42816 60.4163 7.47348C61.5595 7.88417 62.3879 8.61019 62.7819 9.79127C62.8365 9.9546 62.8148 10.0367 62.6546 10.1226C62.0599 10.4408 61.4756 10.776 60.8876 11.1064C60.7933 11.1602 60.7226 11.2244 60.7047 11.029C60.634 10.2501 60.1553 9.77144 59.4918 9.44384C59.3467 9.37303 59.178 9.50992 59.1733 9.69969C59.1667 9.95177 59.1733 10.2029 59.1733 10.455V14.0426L59.1704 14.0398Z" fill="black"/>
<path d="M25.9177 7.70801V7.99785C25.9177 10.1051 25.9177 12.2136 25.9177 14.3234C25.9177 14.9285 25.9535 15.5337 26.1693 16.1096C26.2937 16.441 26.4596 16.7384 26.846 16.83C26.9058 16.8472 26.969 16.8493 27.0298 16.8362C27.0906 16.823 27.1473 16.7949 27.1947 16.7545C27.501 16.5099 27.8186 16.2824 28.1239 16.0322C28.2493 15.9302 28.32 15.9029 28.4283 16.0662C28.7111 16.5005 28.7243 16.4939 28.3237 16.8319C27.5622 17.4748 26.7979 18.1149 26.0421 18.7654C26.0034 18.8077 25.9504 18.834 25.8934 18.8393C25.8365 18.8445 25.7796 18.8283 25.7339 18.7937C24.8715 18.3424 24.3457 17.6221 24.0478 16.7101C23.8424 16.0518 23.7422 15.3652 23.751 14.6755C23.7444 12.8987 23.751 11.1219 23.751 9.34604C23.751 9.22425 23.751 9.12417 23.8773 9.04392C24.52 8.62379 25.1571 8.19422 25.797 7.76749C25.836 7.74524 25.8763 7.72537 25.9177 7.70801V7.70801Z" fill="black"/>
<path d="M13.633 21.0721C14.1447 21.2675 14.6358 21.5102 15.1569 21.6839C16.0542 22.0001 17.004 22.1395 17.9541 22.0946C17.9954 22.0878 18.0379 22.0932 18.0763 22.1099C18.1147 22.1266 18.1475 22.1541 18.1708 22.189C19.4733 23.9479 21.1923 25.1563 23.195 25.9862C24.6904 26.5935 26.2599 26.9989 27.862 27.1918C29.4346 27.3988 31.024 27.4465 32.6062 27.3344L32.6901 27.3249C32.3716 27.4732 32.0153 27.5194 31.6694 27.5968C28.0287 28.3806 24.2337 27.9858 20.8314 26.4696C18.1044 25.2605 15.6734 23.4704 13.7074 21.2241C13.6707 21.1807 13.6 21.1467 13.6377 21.0674L13.633 21.0721Z" fill="black"/>
<path d="M35.9812 10.29C35.9812 11.0718 35.9812 11.8091 35.9812 12.5465C35.9869 13.4556 35.9181 14.3714 36.0755 15.2721C36.1358 15.6224 36.0613 15.8386 35.7579 15.9953C35.6593 16.0595 35.5661 16.1315 35.4789 16.2105C35.2292 16.3994 35.0473 16.4088 34.7758 16.2351C34.4498 16.0255 34.2961 15.6979 34.2104 15.341C34.0132 14.4333 33.992 13.4961 34.1482 12.5804C34.2509 11.9111 34.6618 11.3946 35.1472 10.9415C35.405 10.6996 35.6842 10.4815 35.9812 10.29V10.29Z" fill="black"/>
<path d="M71.6359 26.1138C71.2939 26.0476 70.9427 26.0437 70.5992 26.1025C71.5586 26.2299 72.3663 26.6 72.8979 27.5271C72.0666 26.9663 71.1864 26.9654 70.2995 27.039C69.5814 27.0995 68.8736 27.1231 68.1913 26.8361C67.7156 26.6529 67.3027 26.3362 67.002 25.9241C68.3214 25.5464 69.6304 25.2858 70.9649 25.7862C71.2029 25.8633 71.4287 25.9735 71.6359 26.1138V26.1138Z" fill="black"/>
<path d="M54.6578 6.43578C54.6267 6.40557 54.5985 6.38103 54.5721 6.35459C54.1725 5.95523 53.7757 5.55304 53.3723 5.15841C53.2866 5.07532 53.3026 5.03567 53.378 4.9592C53.7732 4.56645 54.1637 4.16929 54.5495 3.76773C54.6333 3.67993 54.688 3.67804 54.7756 3.76773C55.1734 4.16804 55.5767 4.56456 55.981 4.95825C56.0574 5.03189 56.0753 5.08193 55.9895 5.16501C55.5692 5.56437 55.1526 5.96845 54.7351 6.37064C54.7125 6.39235 54.6889 6.40935 54.6578 6.43578Z" fill="black"/>
<path d="M51.8759 3.69142C51.9165 3.72067 51.9556 3.75219 51.9927 3.78583C52.3282 4.11627 52.6685 4.44671 52.9955 4.77903C53.2622 5.05282 53.2528 5.10097 52.9776 5.36532C52.6439 5.68632 52.3084 6.00543 51.9795 6.3302C51.8853 6.42461 51.8297 6.42461 51.7364 6.3302C51.3594 5.94217 50.973 5.56264 50.5894 5.18028C50.5225 5.11702 50.4622 5.07076 50.5564 4.97635C50.957 4.57794 51.3481 4.17103 51.7439 3.76884C51.775 3.73391 51.8033 3.69048 51.8759 3.69142Z" fill="black"/>
<path d="M24.922 6.76346C24.8824 6.72947 24.8447 6.70209 24.8127 6.66905C24.4301 6.29141 24.0493 5.90149 23.6639 5.52101C23.5771 5.4351 23.5526 5.3794 23.6544 5.27838C24.0446 4.89224 24.4263 4.49666 24.807 4.10202C24.8871 4.01894 24.9437 4.00761 25.0351 4.09352C25.4341 4.49319 25.8362 4.89035 26.2414 5.28499C26.3357 5.37184 26.3272 5.42849 26.2414 5.51157C25.8371 5.89488 25.4366 6.28197 25.0351 6.66811C25.0012 6.70021 24.9644 6.72853 24.922 6.76346Z" fill="black"/>
<path d="M16.6994 24.9805C16.7324 25.0248 16.8078 25.0362 16.8021 25.1278C16.7856 25.126 16.7696 25.1207 16.7554 25.1122C16.7411 25.1036 16.7288 25.0921 16.7194 25.0784C16.71 25.0647 16.7037 25.049 16.7009 25.0326C16.6981 25.0162 16.6988 24.9994 16.7032 24.9833L16.6994 24.9805Z" fill="black"/>
<path d="M13.6374 21.0673L13.6094 21.0547C13.6094 21.0547 13.62 21.0547 13.6219 21.0547C13.6272 21.0598 13.6312 21.0661 13.6335 21.0731L13.6374 21.0673Z" fill="black"/>
<path d="M16.7039 24.9833L16.6934 24.9814L16.7001 24.9805L16.7039 24.9833Z" fill="black"/>
</svg>
