<svg width="61" height="49" viewBox="0 0 61 49" fill="none" xmlns="http://www.w3.org/2000/svg">
<path d="M60.4443 43.4133C60.4443 43.3936 60.4443 43.3739 60.4443 43.3542L56.8144 15.794L59.3229 12.274C59.4249 12.131 59.4855 11.9626 59.4982 11.7874C59.5108 11.6121 59.475 11.4368 59.3946 11.2806C59.3141 11.1244 59.1923 10.9933 59.0423 10.9018C58.8923 10.8103 58.72 10.7618 58.5443 10.7617H52.6472L49.0933 1.06415C49.026 0.879991 48.9036 0.720976 48.7429 0.608631C48.5822 0.496286 48.3908 0.436035 48.1948 0.436035C47.9987 0.436035 47.8073 0.496286 47.6466 0.608631C47.4859 0.720976 47.3635 0.879991 47.2962 1.06415L43.7423 10.7617H37.8484C37.6728 10.7616 37.5004 10.8098 37.3504 10.9012C37.2003 10.9925 37.0783 11.1234 36.9977 11.2796C36.9172 11.4357 36.8812 11.611 36.8937 11.7862C36.9063 11.9615 36.9668 12.1299 37.0688 12.2729L39.5729 15.7934L38.9228 20.7343H21.6944L21.0443 15.794L23.5489 12.2735C23.6506 12.1303 23.711 11.9619 23.7234 11.7867C23.7358 11.6116 23.6998 11.4364 23.6193 11.2803C23.5388 11.1242 23.4169 10.9933 23.267 10.9018C23.1171 10.8103 22.9449 10.7619 22.7693 10.7617H16.8256L13.2718 1.06415C13.2043 0.880174 13.082 0.721351 12.9213 0.60915C12.7607 0.496949 12.5694 0.436782 12.3735 0.436782C12.1775 0.436782 11.9863 0.496949 11.8256 0.60915C11.665 0.721351 11.5426 0.880174 11.4752 1.06415L7.92134 10.7617H2.07501C1.89927 10.7617 1.72692 10.8101 1.57687 10.9016C1.42682 10.9931 1.30486 11.1241 1.22438 11.2803C1.14389 11.4366 1.10799 11.6119 1.12061 11.7872C1.13322 11.9625 1.19387 12.1309 1.2959 12.274L3.80545 15.794L0.175077 43.3542V43.4089C0.175077 43.4089 0.167969 43.4537 0.167969 43.4772V47.3044C0.167969 47.5582 0.268775 47.8016 0.44821 47.981C0.627645 48.1604 0.871011 48.2612 1.12477 48.2612H9.35764C9.6114 48.2612 9.85476 48.1604 10.0342 47.981C10.2136 47.8016 10.3144 47.5582 10.3144 47.3044C10.3144 47.0507 10.2136 46.8073 10.0342 46.6279C9.85476 46.4485 9.6114 46.3476 9.35764 46.3476H2.08048V44.434H58.5372V46.3476H53.1846C52.9308 46.3476 52.6875 46.4485 52.508 46.6279C52.3286 46.8073 52.2278 47.0507 52.2278 47.3044C52.2278 47.5582 52.3286 47.8016 52.508 47.981C52.6875 48.1604 52.9308 48.2612 53.1846 48.2612H59.494C59.6197 48.2613 59.7442 48.2366 59.8603 48.1886C59.9764 48.1405 60.0819 48.07 60.1708 47.9812C60.2596 47.8923 60.3301 47.7868 60.3781 47.6707C60.4262 47.5546 60.4509 47.4301 60.4508 47.3044V43.4772C60.4508 43.4565 60.4459 43.4357 60.4443 43.4133ZM55.3218 14.5889H52.8801V12.6753H56.6854L55.3218 14.5889ZM36.8419 42.5193H23.7266V39.1744C23.7187 38.3082 23.8825 37.4491 24.2085 36.6465C24.5345 35.844 25.0162 35.114 25.6259 34.4988C26.2356 33.8835 26.9611 33.3951 27.7607 33.0618C28.5602 32.7285 29.4178 32.5568 30.284 32.5568C31.1502 32.5568 32.0078 32.7285 32.8073 33.0618C33.6068 33.3951 34.3324 33.8835 34.9421 34.4988C35.5517 35.114 36.0335 35.844 36.3595 36.6465C36.6855 37.4491 36.8493 38.3082 36.8413 39.1744L36.8419 42.5193ZM30.2843 30.7031C28.3656 30.7057 26.5045 31.3588 25.005 32.5557C23.5055 33.7526 22.4562 35.4227 22.0284 37.293C22.0178 37.327 22.0088 37.3615 22.0016 37.3964C21.8754 37.9806 21.8115 38.5766 21.8108 39.1744V42.5221H17.0591V26.7977H43.5089V42.5221H38.7522V39.1744C38.7498 36.929 37.8569 34.7762 36.2695 33.1882C34.6821 31.6001 32.5296 30.7065 30.2843 30.7031ZM43.5089 22.6479V24.8841H17.0591V22.6479H43.5089ZM45.4225 11.7377L48.1945 4.17348L50.9665 11.7371V15.5293V15.5452C50.9665 15.5452 50.9665 15.5556 50.9665 15.5611V42.5193H45.4225V11.7377ZM43.5089 12.6753V14.5889H41.0644L39.7035 12.6753H43.5089ZM41.4105 16.5026H43.5089V20.7343H40.8534L41.4105 16.5026ZM17.0591 20.7343V16.5026H19.21L19.7676 20.7343H17.0591ZM19.5528 14.5889H17.0591V12.6753H20.9142L19.5528 14.5889ZM12.3757 4.17348L15.1477 11.7371V42.5188H9.60148V15.5643C9.60148 15.5578 9.60148 15.5523 9.60148 15.5457C9.60148 15.5392 9.60148 15.5337 9.60148 15.5272V11.7377L12.3757 4.17348ZM7.68788 12.6753V14.5889H5.29588L3.92902 12.6753H7.68788ZM5.64197 16.5026H7.68788V42.5221H2.21498L5.64197 16.5026ZM52.8806 42.5221V16.5026H54.9757L58.4033 42.5221H52.8806ZM24.2313 48.2629H15.4757C15.2219 48.2629 14.9786 48.1621 14.7991 47.9827C14.6197 47.8032 14.5189 47.5598 14.5189 47.3061C14.5189 47.0523 14.6197 46.809 14.7991 46.6295C14.9786 46.4501 15.2219 46.3493 15.4757 46.3493H24.2291C24.4828 46.3493 24.7262 46.4501 24.9056 46.6295C25.0851 46.809 25.1859 47.0523 25.1859 47.3061C25.1859 47.5598 25.0851 47.8032 24.9056 47.9827C24.7262 48.1621 24.4828 48.2629 24.2291 48.2629H24.2313ZM47.0687 48.2629H30.3471C30.0934 48.2629 29.85 48.1621 29.6706 47.9827C29.4911 47.8032 29.3903 47.5598 29.3903 47.3061C29.3903 47.0523 29.4911 46.809 29.6706 46.6295C29.85 46.4501 30.0934 46.3493 30.3471 46.3493H47.0665C47.3203 46.3493 47.5637 46.4501 47.7431 46.6295C47.9225 46.809 48.0233 47.0523 48.0233 47.3061C48.0233 47.5598 47.9225 47.8032 47.7431 47.9827C47.5637 48.1621 47.3203 48.2629 47.0665 48.2629H47.0687Z" fill="white"/>
</svg>
