<svg width="22" height="22" viewBox="0 0 22 22" fill="none" xmlns="http://www.w3.org/2000/svg">
<path d="M21.6275 3.34558L17.387 0.0680175C17.2928 -0.00470163 17.1657 -0.0175491 17.0588 0.0348386C16.9521 0.087268 16.8845 0.195827 16.8845 0.314739V1.89194C15.011 2.2276 13.3086 3.11906 11.9465 4.48069C10.8276 5.59962 10.0163 6.96994 9.5802 8.46885C8.43274 7.49997 7.0759 6.82471 5.61611 6.49841V5.11238C5.61611 4.99346 5.54847 4.88486 5.44174 4.83248C5.33497 4.78009 5.20766 4.79298 5.11357 4.86565L3.18491 6.35634C3.04866 6.46165 3.02359 6.65748 3.12886 6.79377C3.23422 6.93002 3.43001 6.95513 3.5663 6.84982L4.99241 5.74756V6.75182C4.99241 6.90108 5.09818 7.02943 5.2447 7.05791C6.79638 7.3596 8.23301 8.08143 9.41065 9.14898C9.27744 9.78249 9.20921 10.4341 9.20921 11.0892V12.8906C9.03375 12.5296 8.82258 12.1833 8.57627 11.8559C7.78164 10.7991 6.65206 10.0052 5.39559 9.62022C5.30112 9.59132 5.19834 9.60878 5.11885 9.66766C5.03931 9.72645 4.99241 9.8195 4.99241 9.91837V11.0324L1.57369 8.38994L2.48237 7.68761C2.61862 7.58229 2.64369 7.38646 2.53838 7.25017C2.43306 7.11388 2.23723 7.08881 2.10094 7.19412L0.873069 8.14321C0.796691 8.20225 0.751953 8.29339 0.751953 8.38994C0.751953 8.48648 0.796691 8.57762 0.873069 8.63666L5.11357 11.9142C5.20774 11.987 5.33497 11.9998 5.44174 11.9474C5.54851 11.895 5.61611 11.7864 5.61611 11.6675V10.3574C6.58487 10.7387 7.44802 11.393 8.07788 12.2307C8.81804 13.2149 9.20925 14.3863 9.20925 15.6182V20.6911C9.20925 20.8633 9.34882 21.0029 9.52108 21.0029H12.5949C12.7672 21.0029 12.9067 20.8633 12.9067 20.6911V17.2155C12.9067 17.0433 12.7672 16.9037 12.5949 16.9037C12.4227 16.9037 12.2831 17.0433 12.2831 17.2155V20.3792H9.83291V11.0892C9.83291 10.4196 9.90829 9.75406 10.0569 9.11077C10.4217 7.53015 11.2277 6.08159 12.3876 4.92174C13.7186 3.59114 15.3974 2.74162 17.2425 2.46505C17.3952 2.44218 17.5082 2.31104 17.5082 2.15667V0.949878L20.927 3.5923L17.5082 6.23472V5.28534C17.5082 5.19013 17.4647 5.10015 17.3901 5.04103C17.3155 4.98186 17.2179 4.96004 17.1253 4.98174C15.7713 5.29873 14.5423 6.07444 13.6649 7.16602C12.7738 8.27452 12.2831 9.66778 12.2831 11.0892V15.9681C12.2831 16.1403 12.4227 16.2799 12.595 16.2799C12.7672 16.2799 12.9068 16.1403 12.9068 15.9681V11.0892C12.9068 9.80939 13.3486 8.55487 14.151 7.55672C14.8579 6.67719 15.8177 6.02538 16.8845 5.6933V6.86986C16.8845 6.98877 16.9522 7.09737 17.0589 7.14976C17.1657 7.20219 17.293 7.18926 17.3871 7.11658L21.6276 3.83902C21.7039 3.77998 21.7487 3.68884 21.7487 3.5923C21.7487 3.49576 21.7039 3.40462 21.6275 3.34558Z" fill="#E96B67"/>
</svg>
