<svg width="104" height="43" viewBox="0 0 104 43" fill="none" xmlns="http://www.w3.org/2000/svg">
<g clip-path="url(#clip0)">
<path d="M89.1129 34.3064C88.4525 34.1893 87.8225 34.0369 87.1828 33.9226C85.4032 33.6249 83.5943 33.5557 81.7979 33.7165C77.3864 34.058 73.1126 35.1673 68.8624 36.333C65.3538 37.294 61.8562 38.2918 58.3463 39.243C55.0376 40.1405 51.6958 40.9237 48.3251 41.5588C45.8836 42.0189 43.4228 42.2941 40.9344 42.2051C38.3882 42.1294 35.8637 41.7022 33.4292 40.935C30.656 40.0505 28.0466 38.6977 25.7089 36.9327C24.8768 36.3063 24.0865 35.6236 23.3432 34.8892C22.9297 34.4659 22.534 34.027 22.1094 33.5726C22.2955 33.5076 22.3658 33.6389 22.4526 33.7052C24.2322 35.0747 26.1876 36.1869 28.2635 37.0104C31.3526 38.2098 34.6633 38.6919 37.9566 38.4216C40.9371 38.2 43.8157 37.4958 46.6418 36.5418C50.4248 35.2717 54.0381 33.5683 57.6542 31.8847C58.8192 31.3386 59.9979 30.8164 61.1573 30.2632C62.8916 29.4362 64.6355 28.6403 66.4195 27.9431C68.9644 26.9354 71.6903 26.496 74.4146 26.6545C77.1389 26.8129 79.7986 27.5655 82.2156 28.8618C84.4887 30.05 86.5627 31.6006 88.3601 33.4554C88.6207 33.7278 88.8619 34.0227 89.1129 34.3064Z" fill="#FE9400"/>
<path d="M48.4923 21.8551C48.6137 22.102 48.7115 22.3264 48.8301 22.5381C49.2612 23.3269 49.8992 23.9765 50.6719 24.4137C50.8801 24.5322 51.0069 24.5012 51.182 24.3473C52.2629 23.3999 53.3515 22.4591 54.448 21.5248C54.6341 21.3668 54.6906 21.2327 54.521 21.038C54.483 20.9935 54.4522 20.943 54.43 20.8884C54.2798 20.561 54.113 20.5483 53.8496 20.7966C53.5367 21.0734 53.21 21.3334 52.8708 21.5756C52.3952 21.9369 51.8975 21.8438 51.5543 21.3372C51.1517 20.7458 51.0442 20.067 51.0028 19.3699C50.8512 17.1119 50.9642 14.8539 50.9435 12.5959C50.9435 12.284 50.8787 12.1598 50.5534 12.1895C50.2046 12.2205 49.8517 12.1895 49.3953 12.1895C50.7381 11.1762 51.2827 9.84115 51.4247 8.3029C51.5667 6.76464 51.2868 5.33929 50.0943 4.16373C50.6866 4.23144 51.2675 4.37951 51.8217 4.60404C53.6373 5.27438 55.2131 6.33281 56.447 7.84989C57.2741 8.87305 58.0227 9.96677 58.4515 11.2482C58.8899 12.5606 59.2345 13.8985 59.1408 15.2914C59.0622 16.5446 59.0029 17.809 58.5576 19.0114C57.9524 20.6259 57.1101 22.0752 55.9093 23.303C53.3846 25.8799 50.8654 28.463 48.3517 31.0521C48.1601 31.2497 48.0567 31.2906 47.8416 31.0691C45.6359 28.8012 43.4301 26.5531 41.2243 24.2852C40.4688 23.5062 39.6789 22.7597 39.0599 21.848C37.298 19.2485 36.6363 16.3851 37.2042 13.2846C37.9776 9.05086 40.415 6.18462 44.3082 4.61673C45.7461 4.03812 47.2654 3.88289 48.8053 3.95487C49.1306 3.97039 49.394 4.03249 49.5759 4.39941C49.7579 4.76634 50.0157 5.07257 50.1674 5.44796C50.5809 6.48522 50.3424 7.3997 49.6366 8.21681C48.8508 9.12424 47.8596 9.76918 46.9042 10.4593C45.8606 11.2129 44.8514 12.0116 44.0174 12.9995C43.3059 13.8185 42.8289 14.8225 42.6387 15.901C42.3175 17.85 42.2817 19.8003 43.011 21.6772C43.4533 22.8129 44.2585 23.7616 45.2953 24.3685C45.5145 24.5096 45.6593 24.4899 45.8564 24.2979C46.7167 23.4964 47.5962 22.6905 48.4923 21.8551Z" fill="#FE9400"/>
<path d="M23.8837 25.0092L22.0556 23.6304C21.6875 23.3482 21.3319 23.049 20.9527 22.7936C20.717 22.6355 20.6646 22.4464 20.6646 22.1783C20.6701 18.1685 20.6701 14.1591 20.6646 10.1502C20.6765 9.67981 20.592 9.21205 20.4165 8.77711C20.0994 8.0348 19.5121 7.69045 18.7621 7.57332C18.3734 7.51263 18.0728 7.7977 18.0797 8.21966C18.0976 13.8646 18.0894 19.5096 18.0962 25.1546C18.1067 25.2739 18.0837 25.3939 18.03 25.5003C17.9763 25.6068 17.8941 25.6954 17.793 25.7558C16.8776 26.3781 15.9773 27.0259 14.9806 27.723V26.9991C14.9806 21.8847 14.9806 16.7704 14.9806 11.656C14.9924 10.4187 14.7579 9.19183 14.2913 8.05032C13.3262 5.73165 11.4182 4.75506 9.11456 4.88772C6.89775 5.01614 5.36059 6.24957 4.3804 8.20273C3.18789 10.5778 3.09277 12.9798 4.54032 15.3041C5.61426 17.0301 7.33753 17.7413 9.29654 17.3222C9.41878 17.2958 9.54148 17.2662 9.66463 17.2333C10.0575 17.1331 10.274 17.3137 10.2574 17.7244C10.2574 17.8824 10.1196 17.898 10.0258 17.9488C8.01167 19.0622 5.96994 19.0044 3.942 18.0306C0.979353 16.6067 -0.158007 13.9239 0.0198343 10.7359C0.248685 6.63626 3.47327 3.46802 7.30169 2.83296C9.47438 2.47309 11.5533 2.72429 13.5055 3.83352C14.8046 4.57698 15.8882 5.65941 16.6459 6.97071C16.7673 7.17817 16.8334 7.22192 17.0402 7.04693C17.9336 6.2905 18.8476 5.56088 19.7478 4.81292C19.8026 4.7633 19.8671 4.7262 19.937 4.70406C20.0069 4.68192 20.0806 4.67526 20.1531 4.68451C21.0916 4.74672 21.9722 5.17023 22.6181 5.86994C22.7863 6.05199 22.88 6.04353 23.0579 5.89535C23.8768 5.21513 24.7122 4.55467 25.5394 3.87446C25.6095 3.80701 25.6959 3.76004 25.7898 3.73845C25.8836 3.71685 25.9814 3.7214 26.0729 3.75166C27.5715 4.17503 28.5696 5.18691 29.2175 6.5911C29.6628 7.55639 29.7855 8.59223 29.7869 9.64643C29.7869 13.7729 29.7869 17.8994 29.7938 22.0273C29.7793 23.1883 29.9941 24.3403 30.4252 25.4142C31.0222 26.8481 32.1623 27.4069 33.6332 27.0075C33.7794 26.968 33.9669 26.7973 34.0758 26.9384C34.1978 27.1355 34.2855 27.3527 34.335 27.5805C34.3722 27.7047 34.244 27.7216 34.164 27.7597C31.9251 28.6615 29.5057 28.4654 27.9285 26.3118C27.1372 25.2308 26.787 23.9776 26.612 22.6609C26.5545 22.1825 26.5287 21.7006 26.5348 21.2186C26.5348 17.4205 26.5348 13.6228 26.5348 9.82566C26.5348 8.85754 26.3404 7.96 25.6786 7.22051C25.541 7.06264 25.3828 6.92493 25.2085 6.81124C24.4696 6.33424 24.0822 6.40339 23.5252 7.09349C23.4467 7.19228 23.4811 7.26144 23.5156 7.34752C23.874 8.24507 23.9526 9.18213 23.9512 10.1446C23.9439 14.9541 23.9439 19.7632 23.9512 24.5717C23.9686 24.7211 23.9452 24.8726 23.8837 25.0092Z" fill="#FC0303"/>
<path d="M64.002 0.222046V2.48991C64.002 4.27654 64.0102 6.06318 63.9937 7.85263C63.9937 8.17157 64.0819 8.24355 64.3797 8.2379C65.3778 8.21814 66.3773 8.22943 67.3768 8.2379C67.7297 8.2379 67.7339 8.23791 67.5436 8.56249C67.2514 9.05361 66.9439 9.53624 66.6613 10.033C66.6253 10.1118 66.566 10.177 66.4918 10.2194C66.4175 10.2617 66.3321 10.2789 66.2477 10.2687C65.5818 10.256 64.9146 10.2687 64.2487 10.2602C64.0557 10.2602 63.9923 10.3153 63.9951 10.5171C64.0199 13.3607 63.9454 16.2058 64.0378 19.0494C64.0385 19.8052 64.2324 20.5477 64.6003 21.203C64.7294 21.4279 64.9256 21.6045 65.16 21.7068C65.2829 21.7659 65.4192 21.7892 65.5542 21.7742C65.6891 21.7593 65.8174 21.7067 65.9251 21.6221C66.4421 21.2848 66.5772 20.9165 66.5221 20.2617C66.3484 18.1886 66.489 16.1042 66.438 14.024C66.4254 13.8237 66.4614 13.6233 66.5427 13.4406C66.624 13.258 66.7481 13.0987 66.9039 12.9769C68.1998 11.8182 69.4792 10.6398 70.753 9.44876C70.8311 9.35889 70.9368 9.29899 71.0526 9.27897C71.1684 9.25895 71.2874 9.28001 71.39 9.33868C73.3738 10.2024 74.4229 11.7208 74.5112 13.9309C74.5732 15.4211 74.2823 16.807 73.3807 18.015C73.0765 18.3993 72.7071 18.7244 72.2902 18.9747C72.0978 19.1023 71.8694 19.1609 71.6409 19.1412C70.9764 19.0946 70.3105 19.0777 69.646 19.0297C69.4434 19.0142 69.4034 19.072 69.3951 19.2696C69.3634 20.0119 69.5206 20.7048 69.9893 21.2693C70.345 21.6927 70.8427 21.9749 71.3583 22.1739C71.8441 22.351 72.3417 22.4924 72.8472 22.5973C72.9071 22.6129 72.9699 22.6135 73.0301 22.599C73.0904 22.5846 73.1463 22.5554 73.1932 22.514C73.7047 22.1344 74.2272 21.7717 74.7262 21.3752C74.9303 21.2129 75.0364 21.234 75.195 21.4288C75.5506 21.8818 75.5575 21.8705 75.1508 22.2487C74.2341 23.0955 73.3145 23.9521 72.4074 24.8172C72.3345 24.8969 72.241 24.9538 72.1378 24.9812C72.0345 25.0087 71.9258 25.0057 71.8242 24.9724C70.9419 24.7565 70.0665 24.5279 69.2448 24.1257C68.3954 23.7276 67.6691 23.0983 67.1452 22.3066C67.0073 22.0991 66.9591 22.0667 66.7468 22.2586C65.9375 22.9953 65.0924 23.6896 64.2653 24.4136C64.2052 24.4814 64.1225 24.5237 64.0335 24.5324C63.9445 24.541 63.8556 24.5152 63.7841 24.4602C62.5351 23.763 61.8293 22.6594 61.4598 21.2863C61.2395 20.4106 61.1333 19.509 61.1441 18.6049C61.1303 15.9489 61.1303 13.2925 61.1441 10.6356C61.1441 10.3124 61.0545 10.2376 60.7594 10.2546C60.492 10.2687 60.1308 10.3872 59.9736 10.1995C59.8358 10.0401 59.9323 9.68442 59.9254 9.41487C59.9254 9.3683 59.9254 9.32032 59.9254 9.27375C59.9254 8.94634 59.8234 8.52862 59.9791 8.31553C60.1349 8.10243 60.5788 8.24214 60.8932 8.24355C61.1689 8.24355 61.1358 8.07278 61.1358 7.8992C61.1358 6.11162 61.1358 4.32405 61.1358 2.53647C61.1358 2.4024 61.0848 2.25422 61.2309 2.14979C62.1422 1.52461 63.0383 0.895209 64.002 0.222046ZM69.4048 15.0401C69.4048 15.8615 69.4185 16.6828 69.3965 17.5027C69.3896 17.7963 69.4875 17.8499 69.7453 17.8457C69.9587 17.8491 70.1698 17.7996 70.3604 17.7013C70.5511 17.6029 70.7156 17.4588 70.8399 17.2812C71.4947 16.3751 71.5981 15.3449 71.4051 14.2752C71.3338 13.8519 71.1735 13.4495 70.9352 13.0959C70.6969 12.7424 70.3864 12.446 70.0251 12.2275C69.9011 12.1485 69.7797 11.9975 69.595 12.1245C69.5252 12.1743 69.4699 12.2427 69.4352 12.3223C69.4005 12.4018 69.3876 12.4896 69.3979 12.5761C69.4103 13.3988 69.4048 14.2202 69.4048 15.0401Z" fill="#FC0303"/>
<path d="M98.895 12.1739C99.2962 12.1739 99.6588 12.1922 100.02 12.1739C100.296 12.1556 100.341 12.2572 100.34 12.514C100.329 14.3345 100.333 16.1564 100.34 17.9783C100.322 18.7892 100.399 19.5993 100.569 20.3916C100.641 20.7485 100.787 21.0855 100.997 21.3794C101.348 21.8367 101.798 21.8988 102.238 21.5544C102.623 21.2567 103.01 20.9631 103.382 20.6512C103.545 20.5101 103.62 20.5567 103.724 20.7176C104.112 21.3103 104.117 21.3075 103.586 21.7647C102.572 22.6453 101.552 23.5217 100.542 24.4108C100.484 24.4794 100.402 24.5226 100.313 24.5318C100.224 24.5409 100.135 24.5154 100.064 24.4602C99.1497 23.9579 98.4228 23.1607 97.9962 22.1923C97.8969 21.9679 97.8418 21.9101 97.6281 22.1147C96.834 22.8867 96.0096 23.6261 95.2114 24.3953C95.1517 24.4707 95.0652 24.5189 94.9709 24.5292C94.8766 24.5395 94.7821 24.5112 94.7082 24.4503C93.2744 23.6036 92.3562 22.3334 92.0309 20.7133C91.6807 18.9719 91.649 17.1852 92.1067 15.448C92.4845 14.0142 93.3668 12.9077 94.4242 11.9382C95.4512 10.9927 96.63 10.2447 97.7191 9.39798C98.3408 8.91392 98.946 8.41012 99.3638 7.71296C99.5447 7.42549 99.6614 7.10072 99.7057 6.76179C99.725 6.58256 99.816 6.53316 99.9635 6.49506C100.137 6.45272 100.184 6.56985 100.239 6.68416C100.515 7.23314 100.571 7.83009 100.559 8.43128C100.53 9.86793 100.114 11.1324 98.9695 12.061C98.9413 12.0962 98.9164 12.134 98.895 12.1739ZM97.322 13.3029C97.0463 13.5202 96.8326 13.6783 96.6327 13.8476C95.7532 14.5899 95.0225 15.4494 94.8681 16.6504C94.7384 17.6539 94.7482 18.6711 94.897 19.6718C94.9715 20.1686 95.0349 20.6597 95.3837 21.0831C95.8235 21.6024 96.2536 21.6871 96.7623 21.2708C96.9608 21.1099 97.158 20.949 97.3606 20.7966C97.4096 20.7675 97.4477 20.7227 97.4692 20.6691C97.4906 20.6155 97.4942 20.5561 97.4792 20.5002C97.2931 19.4192 97.3179 18.3255 97.3193 17.2318C97.3207 15.956 97.3207 14.6775 97.3207 13.3071L97.322 13.3029Z" fill="#FC0303"/>
<path d="M89.6112 14.4996C89.534 14.1581 89.5216 13.8392 89.3906 13.5456C89.1069 12.9358 88.6249 12.4459 88.0272 12.1598C87.7515 12.0187 87.5336 12.14 87.5074 12.4604C87.4992 12.5535 87.5074 12.6481 87.5074 12.7426C87.5074 16.5483 87.5074 20.3544 87.5074 24.161C87.5074 24.4898 87.4454 24.6069 87.0939 24.5928C86.3494 24.5618 85.6022 24.5688 84.8564 24.5928C84.5806 24.5999 84.542 24.5082 84.542 24.257C84.5503 20.7317 84.5503 17.2069 84.542 13.6825C84.5368 13.5965 84.5518 13.5104 84.5859 13.4316C84.62 13.3527 84.6721 13.2834 84.7378 13.2295C86.0861 12.0064 87.4298 10.7787 88.7689 9.54617C88.833 9.47496 88.9183 9.42738 89.0115 9.4108C89.1047 9.39422 89.2006 9.40955 89.2845 9.45444C90.7444 10.0274 91.8074 10.9955 92.3174 12.5422C92.3988 12.7864 92.3919 12.9261 92.1382 13.063C91.3042 13.5202 90.4715 14.0099 89.6112 14.4996Z" fill="#FC0303"/>
<path d="M81.1781 14.5067C81.1285 14.1228 81.0899 13.777 80.9286 13.4595C80.6316 12.8837 80.1592 12.4229 79.583 12.1471C79.5352 12.1157 79.4801 12.0978 79.4233 12.0953C79.3665 12.0927 79.3101 12.1055 79.2597 12.1325C79.2094 12.1594 79.1668 12.1994 79.1365 12.2486C79.1061 12.2978 79.0889 12.3543 79.0867 12.4124C79.0798 12.5063 79.0798 12.6007 79.0867 12.6946C79.0867 16.5247 79.0867 20.3544 79.0867 24.1835C79.0867 24.4968 79.0219 24.6069 78.6979 24.5914C77.9411 24.5646 77.1815 24.573 76.4246 24.5914C76.1916 24.5914 76.1489 24.518 76.1489 24.2964C76.1544 20.7486 76.1544 17.2007 76.1489 13.6528C76.1455 13.5667 76.1621 13.4811 76.1973 13.4028C76.2325 13.3245 76.2854 13.256 76.3515 13.2027C77.6906 11.9881 79.0284 10.7692 80.3647 9.54613C80.4286 9.47504 80.5136 9.42752 80.6066 9.41094C80.6996 9.39435 80.7953 9.40963 80.8789 9.4544C82.3513 10.0316 83.417 11.0166 83.9284 12.5775C84.0001 12.7976 83.9919 12.919 83.763 13.0446C82.8986 13.5089 82.0577 14.0043 81.1781 14.5067Z" fill="#FC0303"/>
<path d="M34.4722 14.7678C34.4722 16.2948 34.4612 17.8231 34.4722 19.3501C34.4692 20.0211 34.5865 20.6869 34.8183 21.3146C34.9133 21.6061 35.0879 21.8637 35.3215 22.0569C35.6468 22.3053 35.9336 22.3053 36.2507 22.0569C36.6642 21.7365 37.0778 21.4204 37.4776 21.0902C37.6155 20.9731 37.6913 20.9985 37.7961 21.1438C38.2428 21.7633 38.2455 21.7563 37.6817 22.2417C36.6794 23.1026 35.6758 23.9621 34.6859 24.837C34.6188 24.9136 34.5262 24.9617 34.4262 24.9719C34.3262 24.9821 34.2261 24.9536 34.1455 24.8921C32.7669 24.1243 32.0859 22.8683 31.7633 21.364C31.6171 20.675 31.544 19.9719 31.5455 19.2669C31.5455 16.8461 31.5455 14.4258 31.5455 12.006C31.5356 11.904 31.5552 11.8012 31.6017 11.7104C31.6483 11.6196 31.7198 11.5448 31.8074 11.4951C32.5973 10.9744 33.3735 10.4311 34.1593 9.90184C34.2379 9.84822 34.3123 9.71132 34.4199 9.7847C34.5274 9.85808 34.4571 9.97947 34.4571 10.0811C34.4571 11.6438 34.4571 13.206 34.4571 14.7678H34.4722Z" fill="#FC0303"/>
<path d="M18.0059 28.0814C18.3546 28.2225 18.709 28.3637 19.0508 28.5231C19.8561 28.889 20.6992 29.1603 21.5641 29.3318C22.2587 29.4975 22.9762 29.5382 23.6844 29.4517C23.7671 29.4356 23.8527 29.4463 23.9291 29.4825C24.0055 29.5187 24.0689 29.5785 24.1104 29.6535C25.9398 32.1514 28.3606 33.8209 31.1744 34.9499C32.9716 35.6608 34.8442 36.1529 36.7536 36.4162C38.9028 36.7258 41.0774 36.8066 43.2428 36.6575C43.3076 36.6575 43.3724 36.6575 43.5406 36.6575C42.7784 36.8943 42.0007 37.0754 41.2135 37.1995C39.2573 37.5518 37.2651 37.6467 35.2854 37.4817C32.9536 37.2761 30.6639 36.7202 28.4902 35.832C24.7032 34.2796 21.4441 31.9341 18.6373 28.9169C18.3893 28.6746 18.1696 28.4037 17.9824 28.1097C17.991 28.1009 17.9988 28.0915 18.0059 28.0814Z" fill="#FE9400"/>
<path d="M47.9747 13.2578C47.9747 14.892 47.9747 16.443 47.9747 17.9939C47.9617 18.8167 48.0124 19.6392 48.1263 20.4537C48.149 20.5311 48.1452 20.6141 48.1156 20.689C48.0861 20.7639 48.0325 20.8262 47.9637 20.8658C47.7527 21.0069 47.5625 21.1805 47.3653 21.3414C46.938 21.69 46.5961 21.6773 46.1811 21.3061C45.9093 21.0485 45.7196 20.7132 45.6366 20.3436C45.3065 19.0415 45.2707 17.6795 45.5318 16.3611C45.7951 14.9527 46.8277 14.0947 47.9747 13.2578Z" fill="#FE9400"/>
<path d="M74.8997 6.0773C74.8997 6.18596 74.8211 6.23112 74.7618 6.28475C74.2366 6.80973 73.703 7.32483 73.1819 7.85405C73.0441 7.99517 72.9696 7.95425 72.8552 7.8357C72.3658 7.32483 71.8598 6.82807 71.3773 6.31014C71.2078 6.12809 71.1154 6.14785 70.9513 6.31861C70.4702 6.82243 69.9615 7.29801 69.4776 7.79759C69.3094 7.96977 69.2019 7.97259 69.0406 7.79759C68.5815 7.30366 68.1086 6.82525 67.6289 6.35248C67.4566 6.18313 67.4166 6.07024 67.6165 5.87972C68.1142 5.39425 68.5912 4.89184 69.064 4.37392C69.2102 4.21586 69.3025 4.21022 69.45 4.36405C69.9574 4.89185 70.4826 5.3999 70.9844 5.93194C71.1361 6.09141 71.2229 6.06035 71.3511 5.92346C71.8392 5.40977 72.3368 4.90737 72.8207 4.39085C72.9586 4.23562 73.0537 4.1961 73.2219 4.37392C73.7072 4.88902 74.2159 5.38156 74.7149 5.88396C74.7853 5.94323 74.85 6.01803 74.8997 6.0773Z" fill="#FC0303"/>
<path d="M95.6765 34.9089C95.2891 34.8976 94.9073 34.8525 94.5144 34.9513C95.671 35.1573 96.6843 35.5934 97.3557 36.6673C97.2854 36.6899 97.244 36.7181 97.2178 36.7068C96.1301 36.1212 94.9624 36.1423 93.7892 36.2581C92.6422 36.3724 91.5448 36.2581 90.5412 35.6244C90.1571 35.3884 89.8278 35.0696 89.5762 34.6902C90.8376 34.4263 92.0577 34.0029 93.3522 34.1652C94.169 34.245 94.9607 34.4983 95.6765 34.9089Z" fill="#FC0303"/>
<path d="M33.1632 4.68018C33.2018 4.71546 33.2542 4.75922 33.301 4.8072C33.8235 5.33218 34.3447 5.85856 34.8685 6.38072C34.9761 6.48798 35.0588 6.56842 34.903 6.7166C34.3681 7.22841 33.8405 7.74587 33.3203 8.26897C33.1825 8.41009 33.086 8.43126 32.9343 8.26897C32.4518 7.75339 31.9592 7.2477 31.4565 6.75188C31.2993 6.59664 31.3186 6.50069 31.4565 6.35533C31.9665 5.83599 32.4684 5.30536 32.9729 4.78038C33.0239 4.74792 33.0598 4.6703 33.1632 4.68018Z" fill="#FC0303"/>
<path d="M17.9799 28.1054L17.9316 28.0659C17.9661 28.0249 17.9882 28.0461 18.0061 28.0814C17.998 28.0901 17.9893 28.0981 17.9799 28.1054Z" fill="#FE9400"/>
</g>
<defs>
<clipPath id="clip0">
<rect width="104" height="42" fill="white" transform="translate(0 0.222046)"/>
</clipPath>
</defs>
</svg>
