<svg width="18" height="17" viewBox="0 0 18 17" fill="none" xmlns="http://www.w3.org/2000/svg">
<path d="M17.1101 2.14826C17.1 2.13876 15.1031 0.234398 15.1031 0.234398C15.0268 0.161152 14.9478 0.0854492 14.8004 0.0854492H6.76127C6.52646 0.0854492 6.33541 0.276467 6.33541 0.511279V1.81892L3.50202 2.30461C3.27491 2.34446 3.12218 2.5618 3.16152 2.78868L3.30533 3.62713C2.38437 3.93705 1.43885 4.25653 0.526058 4.58441C0.310371 4.66326 0.197181 4.90309 0.274146 5.12007L2.08986 10.1675C2.12638 10.269 2.22211 10.3323 2.32421 10.3323C2.35216 10.3323 2.38065 10.3275 2.40848 10.3175C2.5379 10.271 2.60507 10.1283 2.55852 9.99891L0.76967 5.02614C1.62963 4.71825 2.5202 4.4169 3.39056 4.12395L4.24624 9.11255L5.23084 14.8578C5.2664 15.0606 5.44467 15.2049 5.64588 15.2049C5.66866 15.2049 5.69177 15.203 5.71494 15.1992L8.38168 14.7415L10.4655 14.3843L7.33144 15.5108L4.85996 16.3994L2.94056 11.0607C2.89404 10.9313 2.75143 10.8641 2.62197 10.9107C2.49255 10.9572 2.42538 11.0998 2.47189 11.2292L4.41853 16.6438C4.48078 16.8141 4.64208 16.9199 4.81258 16.9199C4.8597 16.9199 4.90754 16.9118 4.95416 16.8948L7.49988 15.9795L13.2803 13.9019L14.3846 13.7126H16.8241C17.0589 13.7126 17.25 13.5211 17.25 13.2858V2.42886C17.25 2.27981 17.1691 2.20378 17.1101 2.14826ZM16.4503 2.20723H15.2042L15.1733 2.20736C15.1137 2.20776 14.974 2.20879 14.9385 2.17359C14.9304 2.16546 14.9208 2.1383 14.9208 2.08786L14.9179 0.745959L16.4503 2.20723ZM16.752 13.2145H6.83346V8.36126C6.83346 8.22373 6.72196 8.11224 6.58443 8.11224C6.44691 8.11224 6.33541 8.22373 6.33541 8.36126V13.2857C6.33541 13.521 6.52646 13.7125 6.76127 13.7125H11.4367L8.29748 14.2506L5.70824 14.695L4.73711 9.02835L3.66568 2.78184L6.33538 2.3242V7.20579C6.33538 7.34332 6.44687 7.45482 6.5844 7.45482C6.72193 7.45482 6.83342 7.34332 6.83342 7.20579V0.583463H14.4195L14.4228 2.08843C14.4228 2.27085 14.4782 2.4184 14.5876 2.52704C14.7558 2.69395 14.9934 2.70557 15.1409 2.70557C15.1536 2.70557 15.1656 2.70547 15.1769 2.70541L16.752 2.70531V13.2145Z" fill="#E96B67"/>
<path d="M8.0332 3.95215C8.0332 4.08968 8.1447 4.20117 8.28223 4.20117H15.4022C15.5397 4.20117 15.6512 4.08968 15.6512 3.95215C15.6512 3.81462 15.5397 3.70312 15.4022 3.70312H8.28223C8.1447 3.70312 8.0332 3.81462 8.0332 3.95215Z" fill="#E96B67"/>
<path d="M15.4022 5.47217H8.28223C8.1447 5.47217 8.0332 5.58366 8.0332 5.72119C8.0332 5.85872 8.1447 5.97021 8.28223 5.97021H15.4022C15.5397 5.97021 15.6512 5.85872 15.6512 5.72119C15.6512 5.58366 15.5397 5.47217 15.4022 5.47217Z" fill="#E96B67"/>
<path d="M15.4022 7.2417H8.28223C8.1447 7.2417 8.0332 7.3532 8.0332 7.49072C8.0332 7.62825 8.1447 7.73975 8.28223 7.73975H15.4022C15.5397 7.73975 15.6512 7.62825 15.6512 7.49072C15.6512 7.3532 15.5397 7.2417 15.4022 7.2417Z" fill="#E96B67"/>
<path d="M15.4022 9.01025H8.28223C8.1447 9.01025 8.0332 9.12175 8.0332 9.25928C8.0332 9.3968 8.1447 9.5083 8.28223 9.5083H15.4022C15.5397 9.5083 15.6512 9.3968 15.6512 9.25928C15.6512 9.12175 15.5397 9.01025 15.4022 9.01025Z" fill="#E96B67"/>
<path d="M15.4022 10.7798H8.28223C8.1447 10.7798 8.0332 10.8913 8.0332 11.0288C8.0332 11.1663 8.1447 11.2778 8.28223 11.2778H15.4022C15.5397 11.2778 15.6512 11.1663 15.6512 11.0288C15.6512 10.8913 15.5397 10.7798 15.4022 10.7798Z" fill="#E96B67"/>
</svg>
