<svg width="17" height="17" viewBox="0 0 17 17" fill="none" xmlns="http://www.w3.org/2000/svg">
<path d="M16.5082 2.47448C16.2728 2.2387 15.8909 2.23829 15.6555 2.47348L8.42134 9.68854L5.81128 6.85376C5.58575 6.60895 5.20444 6.59307 4.95922 6.81857C4.71419 7.0441 4.6985 7.4256 4.92403 7.67064L7.95922 10.9669C8.07037 11.0877 8.22594 11.1579 8.38997 11.1613C8.39437 11.1615 8.39862 11.1615 8.40284 11.1615C8.56225 11.1615 8.71559 11.0982 8.82856 10.9856L16.507 3.32732C16.7429 3.09216 16.7433 2.71026 16.5082 2.47448Z" fill="#EB5B31"/>
<path d="M16.3628 7.68408C16.0297 7.68408 15.7598 7.95402 15.7598 8.28711C15.7598 12.0335 12.7122 15.0811 8.96582 15.0811C5.2197 15.0811 2.17185 12.0335 2.17185 8.28711C2.17185 4.54098 5.2197 1.49314 8.96582 1.49314C9.29888 1.49314 9.56885 1.2232 9.56885 0.890141C9.56885 0.557047 9.29888 0.287109 8.96582 0.287109C4.55457 0.287109 0.96582 3.87586 0.96582 8.28711C0.96582 12.6982 4.55457 16.2871 8.96582 16.2871C13.3769 16.2871 16.9658 12.6982 16.9658 8.28711C16.9658 7.95405 16.6959 7.68408 16.3628 7.68408Z" fill="#EB5B31"/>
</svg>
