<svg width="76" height="46" viewBox="0 0 76 46" fill="none" xmlns="http://www.w3.org/2000/svg">
<path d="M72.7463 38.7526C72.7129 38.6403 72.6617 38.5314 72.5893 38.4306L62.7236 24.69C63.8827 22.3679 64.4936 19.7832 64.4936 17.178C64.4936 13.9164 63.5547 10.7474 61.7785 8.01346C60.0497 5.35264 57.6138 3.22239 54.7339 1.85296C54.1875 1.59309 53.5307 1.81943 53.2673 2.35882C53.0038 2.89806 53.2333 3.546 53.78 3.80586C56.2932 5.00099 58.4194 6.86053 59.9287 9.18344C61.4776 11.5675 62.2963 14.3319 62.2963 17.1779C62.2963 19.0475 61.9352 20.9042 61.2453 22.6311L55.9937 15.3169C55.6428 14.8285 54.9573 14.7128 54.462 15.0589C54.3486 15.1381 54.2562 15.2354 54.1835 15.3431C54.1834 15.3431 54.1825 15.3431 54.1825 15.3431L46.459 26.7972L34.2331 9.76966C36.9189 5.17183 41.8469 2.34277 47.2608 2.34277C47.918 2.34277 48.5792 2.38498 49.2261 2.46823C49.8272 2.5457 50.3791 2.12713 50.4576 1.53354C50.5359 0.939953 50.1119 0.395938 49.5101 0.318469C48.7693 0.223223 48.0126 0.174805 47.2608 0.174805C41.3922 0.174805 36.0223 3.0754 32.8532 7.84782L30.2812 4.26562C30.0724 3.97453 29.7355 3.80326 29.3701 3.80832C29.0086 3.81309 28.6726 3.99289 28.4716 4.28946L5.14014 38.6956H3.89282C2.02734 38.6956 0.509766 40.1929 0.509766 42.0336V44.741C0.509766 45.3397 1.00151 45.825 1.6084 45.825H11.4278C12.0347 45.825 12.5265 45.3397 12.5265 44.741C12.5265 44.1424 12.0347 43.657 11.4278 43.657H2.70703V42.0336C2.70703 41.3885 3.23906 40.8635 3.89297 40.8635H5.72402C5.72476 40.8635 5.72534 40.8637 5.72607 40.8637C5.72681 40.8637 5.72769 40.8635 5.72842 40.8635H54.434H60.1654C60.167 40.8635 60.1686 40.8637 60.1704 40.8637C60.1717 40.8637 60.1731 40.8635 60.1745 40.8635H72.1267C72.7806 40.8635 73.3126 41.3885 73.3126 42.0336V43.657H15.8224C15.2155 43.657 14.7237 44.1424 14.7237 44.741C14.7237 45.3397 15.2155 45.825 15.8224 45.825H74.4111C75.018 45.825 75.5098 45.3397 75.5098 44.741V42.0336C75.5098 40.4019 74.3168 39.0408 72.7463 38.7526ZM61.0632 38.6956L57.2604 20.8316L70.0868 38.6956H61.0632ZM49.7924 25.7678C49.81 25.7687 49.8274 25.7704 49.8451 25.7704H52.6838C53.2907 25.7704 53.7825 25.2851 53.7825 24.6864C53.7825 24.0878 53.2907 23.6024 52.6838 23.6024H51.2524L54.5606 18.6963L56.6295 28.4156H54.7699C54.163 28.4156 53.6713 28.901 53.6713 29.4996C53.6713 30.0983 54.163 30.5836 54.7699 30.5836H57.0911L58.8179 38.6956H55.002L52.7836 35.6059H54.1033C54.7102 35.6059 55.2019 35.1206 55.2019 34.5219C55.2019 33.9233 54.7102 33.4379 54.1033 33.4379H51.2645C51.2524 33.4379 51.2404 33.4394 51.2284 33.4398L47.8201 28.693L49.7924 25.7678ZM30.5281 25.1806H32.5812L34.5458 34.4098H32.9193C32.3124 34.4098 31.8207 34.8951 31.8207 35.4938C31.8207 36.0924 32.3124 36.5777 32.9193 36.5777H35.0074L35.4583 38.6956H7.78403L14.6178 28.6181H17.2418C17.8487 28.6181 18.3404 28.1328 18.3404 27.5341C18.3404 26.9355 17.8487 26.4501 17.2418 26.4501H16.0879L17.5521 24.2911L21.5023 18.4661H24.3023C24.9092 18.4661 25.401 17.9808 25.401 17.3821C25.401 16.7835 24.9092 16.2981 24.3023 16.2981H22.9726L28.8466 7.63609L32.1199 23.0126H30.5284C29.9215 23.0126 29.4297 23.498 29.4297 24.0966C29.4294 24.6953 29.9212 25.1806 30.5281 25.1806ZM37.7033 38.6956L31.548 9.78035L52.3091 38.6956H37.7033Z" fill="black"/>
<path d="M25.7206 30.6108H22.8818C22.275 30.6108 21.7832 31.0962 21.7832 31.6948C21.7832 32.2935 22.275 32.7788 22.8818 32.7788H25.7206C26.3274 32.7788 26.8192 32.2935 26.8192 31.6948C26.8192 31.0962 26.3274 30.6108 25.7206 30.6108Z" fill="black"/>
<path d="M15.8221 34.9397H12.9834C12.3765 34.9397 11.8848 35.425 11.8848 36.0237C11.8848 36.6223 12.3765 37.1077 12.9834 37.1077H15.8221C16.429 37.1077 16.9208 36.6223 16.9208 36.0237C16.9208 35.425 16.429 34.9397 15.8221 34.9397Z" fill="black"/>
</svg>
