<svg width="22" height="15" viewBox="0 0 22 15" fill="none" xmlns="http://www.w3.org/2000/svg">
<path d="M20.9116 3.93753L15.5867 7.55755C15.7736 7.7577 15.9385 7.94362 16.1118 8.12079C17.3676 9.38945 18.6245 10.6574 19.8825 11.9246C19.9485 11.9845 20.009 12.0508 20.0631 12.1225C20.1228 12.2043 20.1526 12.3056 20.147 12.4083C20.1414 12.5109 20.1009 12.6081 20.0327 12.6824C19.9646 12.7567 19.8732 12.8032 19.775 12.8137C19.6768 12.8241 19.5783 12.7977 19.4971 12.7393C19.4057 12.6688 19.321 12.5893 19.2441 12.502L14.88 8.1022C14.4537 8.29578 14.0537 8.52218 13.6263 8.66217C12.214 9.12697 10.8762 8.91151 9.63609 8.07595C7.44883 6.6006 5.28152 5.09353 3.08271 3.63896C2.65429 3.3557 2.67004 3.00244 2.70154 2.60982C2.80655 1.33023 3.68018 0.503418 4.91505 0.503418H19.5402C20.8527 0.503418 21.7516 1.43631 21.7516 2.80011C21.7516 5.93529 21.7516 9.07046 21.7516 12.2056C21.7516 13.5672 20.8496 14.5023 19.5391 14.5023H6.30847C5.98085 14.5023 5.7887 14.3317 5.7929 14.0583C5.7971 13.7849 5.9861 13.6274 6.31792 13.6274H19.4436C20.4285 13.6274 20.9063 13.1276 20.9063 12.0963C20.9063 9.49917 20.9063 6.90172 20.9063 4.3039C20.9116 4.20547 20.9116 4.10595 20.9116 3.93753ZM12.2486 1.37835C9.79009 1.37835 7.33227 1.37835 4.87515 1.37835C4.10231 1.37835 3.58778 1.90987 3.55628 2.69075C3.55037 2.75714 3.56449 2.8238 3.59668 2.88143C3.62887 2.93907 3.67751 2.9848 3.73584 3.01228C5.9189 4.48982 8.09671 5.9783 10.2871 7.4449C11.0673 7.96768 11.9399 8.1011 12.8545 7.96111C13.5475 7.85174 14.1293 7.49302 14.7026 7.1004C16.7187 5.72129 18.7442 4.3553 20.7603 2.97729C20.8013 2.94381 20.8352 2.90183 20.8598 2.85401C20.8843 2.80619 20.8991 2.75357 20.9031 2.69949C20.9157 1.94486 20.3508 1.37506 19.5948 1.37397C17.1461 1.37689 14.6973 1.37835 12.2486 1.37835Z" fill="#E96B67"/>
<path d="M8.38736 11.878C7.1378 11.878 5.88754 11.878 4.63658 11.878C4.33626 11.878 4.16511 11.7577 4.1189 11.5247C4.06115 11.2349 4.27116 11.0041 4.60612 11.0041C5.84729 11.0041 7.0888 11.0041 8.33066 11.0041C9.62433 11.0041 10.919 10.9976 12.2159 11.0151C12.3829 11.0288 12.5379 11.1105 12.6474 11.2425C12.6801 11.3072 12.6962 11.3795 12.6942 11.4525C12.6921 11.5255 12.6721 11.5967 12.6359 11.6592C12.5109 11.7891 12.3448 11.8669 12.1686 11.878C10.9085 11.8955 9.64848 11.8878 8.38841 11.8878L8.38736 11.878Z" fill="#E96B67"/>
<path d="M5.63175 9.25347C4.73081 9.25347 3.82986 9.25347 2.92892 9.25347C2.679 9.25347 2.49944 9.15722 2.43959 8.89584C2.37344 8.6093 2.5908 8.37744 2.92576 8.37744C4.00242 8.37744 5.07837 8.37744 6.15362 8.37744C6.87046 8.37744 7.588 8.37744 8.30623 8.37744C8.6601 8.37744 8.84596 8.53713 8.83966 8.82695C8.83336 9.11677 8.6517 9.25237 8.31463 9.25237C7.41859 9.2531 6.5243 9.25347 5.63175 9.25347Z" fill="#E96B67"/>
<path d="M2.87977 5.75303C3.41319 5.75303 3.94557 5.75303 4.47899 5.75303C4.78561 5.75303 4.97777 5.92364 4.98197 6.18393C4.98617 6.44422 4.79296 6.62139 4.49054 6.62139C3.40689 6.62139 2.32183 6.62139 1.23538 6.62139C0.930865 6.62139 0.742904 6.44313 0.748154 6.17737C0.753404 5.91161 0.939267 5.74975 1.25008 5.74756C1.80031 5.75303 2.33794 5.75303 2.87977 5.75303Z" fill="#E96B67"/>
</svg>
