<svg width="61" height="61" viewBox="0 0 61 61" fill="none" xmlns="http://www.w3.org/2000/svg">
<path d="M48.0469 33.1509C47.7594 33.1509 47.4744 33.0534 47.2419 32.8559C46.7644 32.4559 35.5469 22.8859 35.5469 13.1509C35.5469 6.25839 41.1544 0.650879 48.0469 0.650879C54.9394 0.650879 60.5469 6.25839 60.5469 13.1509C60.5469 22.8859 49.3294 32.4559 48.8519 32.8559C48.6194 33.0534 48.3344 33.1509 48.0469 33.1509ZM48.0469 3.15088C42.5319 3.15088 38.0469 7.63589 38.0469 13.1509C38.0469 20.3209 45.5394 27.8909 48.0469 30.2209C50.5544 27.8884 58.0469 20.3209 58.0469 13.1509C58.0469 7.63589 53.5619 3.15088 48.0469 3.15088Z" fill="white"/>
<path d="M48.0469 18.1509C45.2894 18.1509 43.0469 15.9084 43.0469 13.1509C43.0469 10.3934 45.2894 8.15088 48.0469 8.15088C50.8044 8.15088 53.0469 10.3934 53.0469 13.1509C53.0469 15.9084 50.8044 18.1509 48.0469 18.1509ZM48.0469 10.6509C46.6694 10.6509 45.5469 11.7709 45.5469 13.1509C45.5469 14.5309 46.6694 15.6509 48.0469 15.6509C49.4244 15.6509 50.5469 14.5309 50.5469 13.1509C50.5469 11.7709 49.4244 10.6509 48.0469 10.6509Z" fill="white"/>
<path d="M8.04689 58.1514C7.75189 58.1514 7.45439 58.0464 7.21689 57.8364C6.94689 57.5964 0.546875 51.8639 0.546875 45.9639C0.546875 41.6564 3.91188 38.1514 8.04689 38.1514C12.1819 38.1514 15.5469 41.6564 15.5469 45.9639C15.5469 51.8639 9.14689 57.5964 8.87689 57.8364C8.63939 58.0464 8.34189 58.1514 8.04689 58.1514ZM8.04689 40.6514C5.28938 40.6514 3.04688 43.0339 3.04688 45.9639C3.04688 49.6214 6.43689 53.5164 8.04689 55.1614C9.65689 53.5189 13.0469 49.6214 13.0469 45.9639C13.0469 43.0339 10.8044 40.6514 8.04689 40.6514Z" fill="white"/>
<path d="M40.3319 60.6509H8.04688C7.35688 60.6509 6.79688 60.0909 6.79688 59.4009C6.79688 58.7109 7.35688 58.1509 8.04688 58.1509H40.3319C41.1269 58.1509 41.4244 57.5409 41.4969 57.3534C41.5695 57.1659 41.7595 56.5109 41.172 55.9759L23.2419 39.6759C22.0869 38.6234 21.7044 37.0034 22.2669 35.5484C22.8294 34.0909 24.2019 33.1509 25.7619 33.1509H48.047C48.737 33.1509 49.297 33.7109 49.297 34.4009C49.297 35.0909 48.737 35.6509 48.047 35.6509H25.7619C24.9669 35.6509 24.6694 36.2609 24.5969 36.4484C24.5244 36.6359 24.3344 37.2909 24.9219 37.8259L42.852 54.1259C44.007 55.1784 44.3895 56.7984 43.827 58.2534C43.2645 59.7109 41.892 60.6509 40.3319 60.6509Z" fill="white"/>
<path d="M8.04688 48.1509C6.66938 48.1509 5.54688 47.0309 5.54688 45.6509C5.54688 44.2709 6.66938 43.1509 8.04688 43.1509C9.42438 43.1509 10.5469 44.2709 10.5469 45.6509C10.5469 47.0309 9.42438 48.1509 8.04688 48.1509ZM8.04688 45.6484C8.04688 45.6484 8.04688 45.6509 8.04688 45.6484L9.29688 45.6509L8.04688 45.6484Z" fill="white"/>
</svg>
