<svg width="56" height="56" viewBox="0 0 56 56" fill="none" xmlns="http://www.w3.org/2000/svg">
<path d="M15.6077 25.3262H9.19191C8.68574 25.3262 8.27539 25.7421 8.27539 26.2552V35.5461C8.27539 36.0592 8.68574 36.4752 9.19191 36.4752H15.6077C16.1139 36.4752 16.5242 36.0592 16.5242 35.5461V26.2552C16.5242 25.7421 16.1139 25.3262 15.6077 25.3262ZM14.6912 34.6171H10.1084V27.1843H14.6912V34.6171Z" fill="white"/>
<path d="M31.1887 25.3262H24.773C24.2668 25.3262 23.8564 25.7421 23.8564 26.2552V35.5461C23.8564 36.0592 24.2668 36.4752 24.773 36.4752H31.1887C31.6949 36.4752 32.1053 36.0592 32.1053 35.5461V26.2552C32.1053 25.7421 31.6949 25.3262 31.1887 25.3262ZM30.2722 34.6171H25.6896V27.1843H30.2722V34.6171Z" fill="white"/>
<path d="M31.1887 40.1914H24.773C24.2668 40.1914 23.8564 40.6074 23.8564 41.1205V50.4114C23.8564 50.9245 24.2668 51.3405 24.773 51.3405H31.1887C31.6949 51.3405 32.1053 50.9245 32.1053 50.4114V41.1205C32.1053 40.6075 31.6949 40.1914 31.1887 40.1914ZM30.2722 49.4823H25.6896V42.0496H30.2722V49.4823Z" fill="white"/>
<path d="M45.8528 25.3262H39.437C38.9309 25.3262 38.5205 25.7421 38.5205 26.2552V35.5461C38.5205 36.0592 38.9309 36.4752 39.437 36.4752H45.8528C46.359 36.4752 46.7693 36.0592 46.7693 35.5461V26.2552C46.7693 25.7421 46.359 25.3262 45.8528 25.3262ZM44.9363 34.6171H40.3537V27.1843H44.9363V34.6171Z" fill="white"/>
<path d="M15.6077 40.1914H9.19191C8.68574 40.1914 8.27539 40.6074 8.27539 41.1205V50.4114C8.27539 50.9245 8.68574 51.3405 9.19191 51.3405H15.6077C16.1139 51.3405 16.5242 50.9245 16.5242 50.4114V41.1205C16.5242 40.6075 16.1139 40.1914 15.6077 40.1914ZM14.6912 49.4823H10.1084V42.0496H14.6912V49.4823Z" fill="white"/>
<path d="M45.8528 40.1914H39.437C38.9309 40.1914 38.5205 40.6074 38.5205 41.1205V50.4114C38.5205 50.9245 38.9309 51.3405 39.437 51.3405H45.8528C46.359 51.3405 46.7693 50.9245 46.7693 50.4114V41.1205C46.7693 40.6075 46.359 40.1914 45.8528 40.1914ZM44.9363 49.4823H40.3537V42.0496H44.9363V49.4823Z" fill="white"/>
<path d="M51.3523 54.1279V22.5388H52.2688C52.775 22.5388 53.1854 22.1229 53.1854 21.6097V16.9644C53.1854 16.4512 52.775 16.0353 52.2688 16.0353H51.3523V12.319C51.3523 11.8059 50.942 11.3899 50.4358 11.3899H48.6028V1.1698C48.6028 0.656696 48.1924 0.240723 47.6862 0.240723H7.35866C6.85249 0.240723 6.44214 0.656696 6.44214 1.1698V11.3898H4.60909C4.10292 11.3898 3.69257 11.8057 3.69257 12.3189V16.0352H2.77604C2.26987 16.0352 1.85952 16.4511 1.85952 16.9642V21.6096C1.85952 22.1227 2.26987 22.5387 2.77604 22.5387H3.69257V54.1277H0.0263672V55.9859H4.60909H50.4358H55.0264V54.1277H51.3523V54.1279ZM8.27519 2.09888H46.7696V11.3898H8.27519V2.09888ZM5.52562 13.2479H7.35866H47.6861H49.5192V16.0352H5.52562V13.2479ZM49.5192 54.1279H5.52562V22.5388H49.5193V54.1279H49.5192ZM4.60909 20.6807H3.69257V17.8934H4.60909H50.4358H51.3523V20.6807H50.4358H4.60909Z" fill="white"/>
<path d="M26.1149 5.27732C25.9691 4.89968 25.7643 4.57354 25.5003 4.29902C25.2364 4.0245 24.9187 3.80911 24.5476 3.65307C24.1763 3.49702 23.7653 3.41895 23.3144 3.41895C22.8634 3.41895 22.4517 3.49626 22.0791 3.651C21.7066 3.80573 21.3876 4.02102 21.1223 4.29695C20.857 4.57289 20.6515 4.89968 20.5057 5.27743C20.3599 5.65507 20.2871 6.06549 20.2871 6.50869C20.2871 6.95188 20.3599 7.3623 20.5057 7.73994C20.6515 8.11759 20.857 8.44438 21.1223 8.72042C21.3876 8.99636 21.7066 9.21164 22.0791 9.36638C22.4517 9.52111 22.8634 9.59843 23.3144 9.59843C23.7653 9.59843 24.1763 9.52111 24.5476 9.36638C24.9188 9.21175 25.2364 8.99636 25.5003 8.72042C25.7642 8.44448 25.9691 8.1177 26.1149 7.73994C26.2606 7.3623 26.3335 6.95188 26.3335 6.50869C26.3335 6.06538 26.2605 5.65496 26.1149 5.27732ZM25.0651 7.40118C24.9785 7.66459 24.854 7.8876 24.6918 8.07011C24.5296 8.25272 24.3323 8.39276 24.0999 8.49033C23.8676 8.5879 23.6057 8.63668 23.3143 8.63668C23.0228 8.63668 22.7602 8.5879 22.5265 8.49033C22.2928 8.39276 22.0942 8.25272 21.9306 8.07011C21.767 7.8875 21.6412 7.66459 21.5532 7.40118C21.4652 7.13776 21.4212 6.84027 21.4212 6.50858C21.4212 6.17689 21.4652 5.87939 21.5532 5.61598C21.6412 5.35257 21.767 5.1289 21.9306 4.94498C22.0942 4.76106 22.2928 4.62026 22.5265 4.52269C22.7603 4.42512 23.0228 4.37634 23.3143 4.37634C23.6057 4.37634 23.8676 4.42512 24.0999 4.52269C24.3323 4.62026 24.5295 4.76106 24.6918 4.94498C24.854 5.1289 24.9784 5.35257 25.0651 5.61598C25.1517 5.87939 25.195 6.17689 25.195 6.50858C25.195 6.84027 25.1518 7.13776 25.0651 7.40118Z" fill="white"/>
<path d="M18.291 3.48584V6.08632H15.4947V3.48584H14.377V9.53138H15.4947V6.88908H18.291V9.53138H19.4087V3.48584H18.291Z" fill="white"/>
<path d="M37.6262 8.60317V3.48584H36.5166V9.53138H40.0142V8.60317H37.6262Z" fill="white"/>
<path d="M26.3828 3.48584V4.4098H28.1852V9.53138H29.2947V4.4098H31.0888V3.48584H26.3828Z" fill="white"/>
<path d="M35.5554 4.38051V3.48584H31.7939V9.53138H35.5554V8.63247H32.9117V6.92251H34.9945V6.05703H32.9117V4.38051H35.5554Z" fill="white"/>
</svg>
