<svg width="37" height="37" viewBox="0 0 37 37" fill="none" xmlns="http://www.w3.org/2000/svg">
<path d="M36.5307 11.0866C36.5102 9.551 36.2222 8.0307 35.6797 6.59366C35.2093 5.38154 34.4907 4.2807 33.57 3.36151C32.6493 2.44231 31.5466 1.72496 30.3325 1.25529C28.9116 0.722787 27.4104 0.434852 25.893 0.403748C23.9393 0.316566 23.3199 0.292236 18.3605 0.292236C13.4012 0.292236 12.7655 0.292236 10.826 0.403748C9.30929 0.435081 7.80887 0.723012 6.38859 1.25529C5.17425 1.72463 4.07141 2.44187 3.15064 3.36111C2.22987 4.28034 1.51144 5.38135 1.04132 6.59366C0.50686 8.01115 0.219071 9.50941 0.190389 11.0237C0.103061 12.9762 0.0766602 13.5946 0.0766602 18.5457C0.0766602 23.4968 0.0766601 24.1294 0.190389 26.0677C0.220851 27.5842 0.507203 29.0805 1.04132 30.5018C1.51223 31.7137 2.2312 32.8143 3.15227 33.7331C4.07335 34.652 5.17629 35.3689 6.39062 35.8381C7.80701 36.392 9.30769 36.7006 10.8281 36.7505C12.7838 36.8377 13.4032 36.864 18.3626 36.864C23.3219 36.864 23.9576 36.864 25.8971 36.7505C27.4144 36.7207 28.9157 36.4334 30.3365 35.901C31.5504 35.4308 32.6527 34.7132 33.5734 33.7941C34.4941 32.875 35.2128 31.7744 35.6838 30.5626C36.2179 29.1434 36.5043 27.6471 36.5347 26.1285C36.6221 24.1781 36.6485 23.5597 36.6485 18.6065C36.6444 13.6554 36.6444 13.0269 36.5307 11.0866ZM18.3483 27.9086C13.1615 27.9086 8.95966 23.7138 8.95966 18.5356C8.95966 13.3574 13.1615 9.16249 18.3483 9.16249C20.8384 9.16249 23.2264 10.15 24.9871 11.9078C26.7479 13.6656 27.737 16.0497 27.737 18.5356C27.737 21.0215 26.7479 23.4055 24.9871 25.1633C23.2264 26.9211 20.8384 27.9086 18.3483 27.9086ZM28.1107 11.0014C26.8983 11.0014 25.9214 10.0242 25.9214 8.81579C25.9214 8.5289 25.978 8.24482 26.088 7.97977C26.198 7.71472 26.3592 7.47389 26.5624 7.27103C26.7656 7.06817 27.0068 6.90725 27.2723 6.79747C27.5378 6.68768 27.8223 6.63117 28.1097 6.63117C28.3971 6.63117 28.6816 6.68768 28.9471 6.79747C29.2126 6.90725 29.4538 7.06817 29.657 7.27103C29.8602 7.47389 30.0214 7.71472 30.1314 7.97977C30.2413 8.24482 30.2979 8.5289 30.2979 8.81579C30.2979 10.0242 29.3191 11.0014 28.1107 11.0014Z" fill="white"/>
<path d="M18.3623 25.228C22.0347 25.228 25.0117 22.251 25.0117 18.5786C25.0117 14.9062 22.0347 11.9292 18.3623 11.9292C14.6899 11.9292 11.7129 14.9062 11.7129 18.5786C11.7129 22.251 14.6899 25.228 18.3623 25.228Z" fill="white"/>
</svg>
