<svg width="51" height="49" viewBox="0 0 51 49" fill="none" xmlns="http://www.w3.org/2000/svg">
<path fill-rule="evenodd" clip-rule="evenodd" d="M31.3896 19.1079H32.8849V19.134H47.2146H50.6172L47.8644 21.134L35.0686 30.4307L39.9562 45.4731L41.0076 48.7092L38.2549 46.7092L25.459 37.4125L12.6631 46.7092L9.9104 48.7092L10.9618 45.4731L15.8494 30.4307L3.05359 21.134L0.300781 19.134H3.70337H18.5918V19.1079H19.5283L24.4075 4.09154L25.459 0.855469L26.5105 4.09154L31.3896 19.1079ZM21.6312 19.1079L25.459 7.32761L29.2867 19.1079H21.6312ZM20.983 21.1033L20.973 21.134H20.9498L18.1932 29.6998L25.4478 34.9485L25.459 34.9403L25.4744 34.9515L32.7262 29.7048L29.9681 21.134H29.9449L29.9349 21.1033H20.983ZM34.373 28.4639L32.0143 21.134H44.4618L34.373 28.4639ZM33.3325 31.5887L27.076 36.1152L30.7886 38.8126L31.7307 39.4941L31.7294 39.496L37.1428 43.4291L33.3325 31.5887ZM18.1202 40.2722L15.9475 41.8442L15.9507 41.8486L13.7751 43.4292L17.6101 31.5121L23.907 36.0679L18.1202 40.2722ZM6.45618 21.134H19.059L16.6708 28.5553L6.45618 21.134Z" fill="black"/>
</svg>
