<svg width="14" height="20" viewBox="0 0 14 20" fill="none" xmlns="http://www.w3.org/2000/svg">
<path d="M8.15298 0.00292969H1.81967C0.946602 0.00292969 0.236328 0.713203 0.236328 1.58628V12.9863C0.236328 13.8593 0.946602 14.5696 1.81967 14.5696H7.51968V13.9363H1.81967C1.29591 13.9363 0.869674 13.51 0.869674 12.9863V1.58628C0.869674 1.06251 1.29591 0.636275 1.81967 0.636275H8.15302C8.67678 0.636275 9.10302 1.06251 9.10302 1.58628V10.7696H9.73633V1.58628C9.73633 0.713203 9.02606 0.00292969 8.15298 0.00292969Z" fill="#E96B67"/>
<path d="M12.7737 8.43752L9.66722 4.55518L9.17225 4.95102L12.2788 8.83303C12.6819 9.33654 12.9035 9.96925 12.9032 10.6143V18.3694H8.27042C6.63453 18.3694 5.30327 17.0385 5.30327 15.4023V14.2528H4.66992V15.4023C4.66992 17.3875 6.28526 19.0028 8.27042 19.0028H13.2199C13.395 19.0028 13.5366 18.8613 13.5366 18.6861V10.6146C13.5369 9.82675 13.2662 9.05343 12.7737 8.43752Z" fill="#E96B67"/>
<path d="M5.6192 7.47081C5.84148 7.47715 6.04829 7.56959 6.20059 7.73109L10.4563 12.2531L10.9177 11.819L6.66134 7.29662C6.39248 7.01191 6.02863 6.84885 5.63723 6.83776C5.24172 6.82447 4.87345 6.96853 4.59223 7.23423C4.58875 7.23772 4.5634 7.26177 4.56025 7.26526C4.01908 7.80802 3.98264 8.65987 4.47634 9.24824L7.20381 12.4687V13.4485C7.20347 15.1984 8.30391 16.7859 9.94266 17.3995L10.1649 16.8064C8.77223 16.2849 7.83682 14.9355 7.83711 13.4485V12.3528C7.83711 12.2781 7.81051 12.2053 7.76208 12.148L4.96054 8.83974C4.68029 8.50597 4.70089 8.02114 5.02389 7.69784C5.18535 7.54521 5.39625 7.46951 5.6192 7.47081Z" fill="#E96B67"/>
<path d="M7.83647 0.63623H7.20312V8.55288H7.83647V0.63623Z" fill="#E96B67"/>
<path d="M6.25444 10.4531H5.62109V14.2531H6.25444V10.4531Z" fill="#E96B67"/>
<path d="M6.25444 0.319336H5.62109V7.28599H6.25444V0.319336Z" fill="#E96B67"/>
<path d="M2.45366 1.58643H1.82031V5.70308H2.45366V1.58643Z" fill="#E96B67"/>
<path d="M4.03569 1.58643H3.40234V4.11977H4.03569V1.58643Z" fill="#E96B67"/>
<path d="M4.03697 10.4531H2.13697C1.96218 10.4531 1.82031 10.5947 1.82031 10.7698V12.6698C1.82031 12.8449 1.96218 12.9864 2.13697 12.9864H4.03697C4.21175 12.9864 4.35362 12.8449 4.35362 12.6698V10.7698C4.35362 10.5947 4.21175 10.4531 4.03697 10.4531ZM3.72031 12.3531H2.45366V11.0865H3.72031V12.3531Z" fill="#E96B67"/>
</svg>
