<svg width="75" height="75" viewBox="0 0 75 75" fill="none" xmlns="http://www.w3.org/2000/svg">
<path d="M74.3186 14.2258L71.2756 8.16529C70.8802 7.37742 70.0869 6.88814 69.2054 6.88814H41.4543V2.28284C41.4543 1.03479 40.4391 0.0195312 39.1912 0.0195312H32.9237C31.6758 0.0195312 30.6604 1.03479 30.6604 2.28284V6.88814H22.7666C22.1608 6.88814 21.6699 7.37917 21.6699 7.98485C21.6699 8.59052 22.1608 9.08155 22.7666 9.08155H69.2054C69.2522 9.08155 69.2942 9.10744 69.3154 9.1494L72.3585 15.2101C72.3759 15.2448 72.3759 15.286 72.3587 15.3207L69.3152 21.3815C69.2942 21.4233 69.2522 21.4492 69.2054 21.4492H5.53686C5.49095 21.4492 5.44883 21.4239 5.42778 21.3831L2.26268 15.3221C2.24411 15.2866 2.24411 15.244 2.26282 15.2083L5.42763 9.14779C5.44898 9.10685 5.49095 9.08155 5.53686 9.08155H18.0927C18.6985 9.08155 19.1894 8.59052 19.1894 7.98485C19.1894 7.37917 18.6985 6.88814 18.0927 6.88814H5.53686C4.6712 6.88814 3.88434 7.36484 3.48339 8.13239L0.318728 14.1929C-0.0320725 14.8644 -0.0319263 15.6663 0.318581 16.3377L3.48368 22.3987C3.88449 23.1661 4.67134 23.6426 5.53701 23.6426H30.6605V29.8628L13.7581 31.4281C13.2689 31.4734 12.8221 31.7493 12.5628 32.1658L9.17823 37.5976C8.79189 38.2174 8.87875 39.0151 9.38923 39.5377L13.8635 44.1141C14.1612 44.4185 14.5737 44.5891 14.9963 44.5891C15.0604 44.5891 15.125 44.5852 15.1894 44.5772L30.6602 42.6407V49.6619L15.0224 48.8162C15.0222 48.8162 15.0222 48.8162 15.0222 48.8162C14.2098 48.7724 13.5149 49.3921 13.4583 50.1973L12.9768 57.0533C12.9205 57.8583 13.5286 58.5695 14.3325 58.639L30.6602 60.0499V73.8525C30.6602 74.4582 31.1511 74.9492 31.757 74.9492C32.3628 74.9492 32.8537 74.4582 32.8537 73.8525V60.2395L39.2608 60.7931V64.4828C39.2608 65.0885 39.7517 65.5795 40.3575 65.5795C40.9633 65.5795 41.4542 65.0885 41.4542 64.4828V60.9826L53.5507 62.0278C53.5927 62.0315 53.6345 62.0332 53.6765 62.0332C54.0937 62.0332 54.4993 61.8556 54.7811 61.5442L58.254 57.7087C58.7152 57.1991 58.7684 56.4456 58.3827 55.876L55.4799 51.5926C55.2208 51.2102 54.7906 50.967 54.3291 50.9419L41.4542 50.2455V41.2894L63.502 38.5298C64.3526 38.4233 64.9692 37.6433 64.8764 36.791L63.9564 28.3402C63.8636 27.4878 63.0921 26.8585 62.2402 26.9379L50.5289 28.0224C49.9257 28.0783 49.4822 28.6125 49.5381 29.2156C49.594 29.8188 50.1281 30.2612 50.7312 30.2066L61.8414 29.1776L62.6306 36.4282L15.2189 42.3625L11.2946 38.3487L14.2634 33.5842L31.8691 31.9538H31.8694L46.076 30.6381C46.6792 30.5823 47.1227 30.0481 47.0668 29.4449C47.011 28.8417 46.4773 28.3984 45.8738 28.4539L41.4543 28.8632V23.6426H69.2053C70.0867 23.6426 70.88 23.1533 71.2753 22.3656L74.3187 16.3048C74.6455 15.6539 74.6455 14.8768 74.3186 14.2258ZM32.8538 2.28284C32.8538 2.24424 32.8851 2.21295 32.9237 2.21295H39.1912C39.2298 2.21295 39.2611 2.24424 39.2611 2.28284V6.88814H32.854V2.28284H32.8538ZM56.2559 56.6477L53.3903 59.8128L40.4699 58.6963C40.4698 58.6963 40.4696 58.6963 40.4695 58.6963L15.2135 56.5139L15.5976 51.0442L53.8609 53.1135L56.2559 56.6477ZM39.2609 50.1271L32.8538 49.7805V42.366L39.2609 41.5641V50.1271ZM39.2609 29.0663L32.8538 29.6597V23.6426H39.2609V29.0663Z" fill="#FCFCFC"/>
<path d="M7.14062 15.2656C7.14062 17.063 8.6029 18.5253 10.4003 18.5253C12.1978 18.5253 13.66 17.063 13.66 15.2656C13.66 13.4681 12.1978 12.0059 10.4003 12.0059C8.6029 12.0059 7.14062 13.4681 7.14062 15.2656ZM11.4666 15.2656C11.4666 15.8535 10.9883 16.3319 10.4003 16.3319C9.81235 16.3319 9.33404 15.8535 9.33404 15.2656C9.33404 14.6776 9.81235 14.1993 10.4003 14.1993C10.9883 14.1993 11.4666 14.6776 11.4666 15.2656Z" fill="#FCFCFC"/>
<path d="M67.1679 15.2656C67.1679 13.4681 65.7056 12.0059 63.9081 12.0059C62.1107 12.0059 60.6484 13.4681 60.6484 15.2656C60.6484 17.063 62.1107 18.5253 63.9081 18.5253C65.7056 18.5253 67.1679 17.063 67.1679 15.2656ZM62.8419 15.2656C62.8419 14.6776 63.3202 14.1993 63.9081 14.1993C64.4961 14.1993 64.9744 14.6776 64.9744 15.2656C64.9744 15.8535 64.4961 16.3319 63.9081 16.3319C63.3202 16.3319 62.8419 15.8535 62.8419 15.2656Z" fill="#FCFCFC"/>
<path d="M40.3574 68.0601C39.7516 68.0601 39.2607 68.5511 39.2607 69.1568V73.8526C39.2607 74.4583 39.7516 74.9493 40.3574 74.9493C40.9633 74.9493 41.4542 74.4583 41.4542 73.8526V69.1568C41.4542 68.5511 40.9633 68.0601 40.3574 68.0601Z" fill="#FCFCFC"/>
</svg>
