<svg width="21" height="21" viewBox="0 0 21 21" fill="none" xmlns="http://www.w3.org/2000/svg">
<path d="M20.2979 13.1277C20.2847 13.1249 20.2715 13.1228 20.2584 13.1214C20.0613 13.0996 19.8764 13.2304 19.8341 13.4282C19.3702 15.6031 17.9182 17.5168 15.9504 18.5541L14.4578 17.0612C14.3266 16.9299 14.2543 16.7556 14.2543 16.5702V15.3948C14.2543 15.2095 14.3266 15.0351 14.4578 14.9038L16.661 12.7007C17.1148 12.2468 17.3648 11.6432 17.3648 11.0011V9.50692C17.3648 8.68133 16.676 7.99246 15.8503 7.99246C15.5755 7.99246 15.3519 7.76887 15.3519 7.49403V7.02293C15.3519 6.74786 15.5755 6.52411 15.8503 6.52411H17.836C18.8161 7.5284 19.5147 8.80575 19.8198 10.1762C19.8667 10.3868 20.0755 10.5194 20.286 10.4726C20.4778 10.4299 20.6251 10.1982 20.5824 10.0064C19.7687 6.35336 16.5074 3.62758 12.7681 3.46344C12.9021 3.16149 12.9692 2.83028 12.9582 2.49297L12.9355 1.80145C12.918 1.26582 12.4846 0.832464 11.949 0.814925L11.2575 0.792269C10.6235 0.770902 10.0115 1.0236 9.57616 1.48403C9.57389 1.48641 9.57171 1.48879 9.56952 1.49121L8.35432 2.84282L3.55132 1.10618C3.40882 1.05469 3.2494 1.0902 3.14225 1.19731L2.19257 2.14696C2.11077 2.22875 2.06944 2.34262 2.07968 2.45782C2.08999 2.57305 2.15077 2.67782 2.24577 2.74387L6.05901 5.39575L3.88397 7.81504C3.72026 7.99715 3.47858 8.08102 3.23702 8.03938L2.28116 7.87442C2.1562 7.85293 2.02831 7.89336 1.93854 7.98317L0.897605 9.02414C0.804128 9.11762 0.764285 9.25203 0.791707 9.38137C0.819089 9.51071 0.910066 9.61739 1.03343 9.66489L3.23694 10.5135L4.06479 12.6632C4.47932 16.8867 8.16663 20.2148 12.4035 20.2148C16.311 20.2148 19.7848 17.4049 20.5985 13.5913C20.6435 13.3803 20.5089 13.1727 20.2979 13.1277ZM10.2723 5.96762L11.6808 10.0805L11.2373 10.524L8.94893 7.15715L10.2723 5.96762ZM3.07526 2.36914L3.51917 1.92528L7.79065 3.46973L6.58546 4.81024L3.07526 2.36914ZM3.67952 9.84672L1.87483 9.15172L2.3478 8.67875L3.10413 8.80926C3.61171 8.89676 4.1205 8.72047 4.46491 8.33735L10.1469 2.01743C10.4284 1.7216 10.8232 1.55985 11.2318 1.57309L11.9233 1.59575C12.0489 1.59985 12.1505 1.70149 12.1546 1.82703L12.1773 2.5186C12.1907 2.9268 12.0288 3.32192 11.733 3.6034L5.41311 9.28536C5.03452 9.62575 4.85456 10.1445 4.94116 10.6462L5.07171 11.4025L4.59866 11.8755L3.90366 10.0709C3.86401 9.96785 3.78257 9.88641 3.67952 9.84672ZM9.50741 16.8882V18.8614C7.88909 18.194 6.50022 16.9447 5.6871 15.3914L6.63534 14.4436C6.67542 14.4033 6.72905 14.3812 6.78632 14.3812H8.90389C9.16999 14.3812 9.4201 14.2776 9.60819 14.0894L9.98639 13.7113C10.0688 13.6289 10.2074 13.6289 10.2898 13.7113L11.1292 14.5507C11.2131 14.6519 11.2131 14.753 11.1293 14.8541L9.79921 16.1839C9.611 16.372 9.50741 16.6221 9.50741 16.8882ZM10.2887 19.1345V16.8882C10.2887 16.8308 10.311 16.7769 10.3516 16.7363L11.6816 15.4066C12.0582 15.03 12.0529 14.3696 11.6817 13.9983L10.8422 13.1589C10.4584 12.775 9.81776 12.775 9.43397 13.1589L9.05577 13.537C9.01518 13.5776 8.96124 13.5999 8.90386 13.5999H6.78628C6.51979 13.5999 6.2696 13.7037 6.08241 13.8916L5.33811 14.6357C5.09647 14.0261 4.93331 13.3838 4.85643 12.7227L5.76725 11.812C5.85706 11.7222 5.89764 11.5944 5.87604 11.4693L5.71112 10.5131C5.67003 10.2748 5.75553 10.0281 5.93534 9.86637L8.36253 7.68418L10.8566 11.3536C10.992 11.5528 11.2852 11.5809 11.4558 11.4102L12.4055 10.4606C12.511 10.3551 12.5472 10.1989 12.4989 10.0578L10.9037 5.39961L12.1941 4.23942C12.2629 4.23754 12.3329 4.23657 12.4035 4.23657C14.0388 4.23657 15.6393 4.76953 16.9446 5.74282H15.8504C15.1448 5.74282 14.5707 6.31707 14.5707 7.02289V7.49399C14.5707 8.19961 15.1448 8.77368 15.8504 8.77368C16.2503 8.77368 16.5836 9.107 16.5836 9.50688V11.001C16.5836 11.4345 16.4149 11.8419 16.1086 12.1482L13.9055 14.3514C13.6266 14.6302 13.4731 15.0007 13.4731 15.3948V16.5702C13.4731 16.9642 13.6267 17.3348 13.9054 17.6135L15.1932 18.9016C14.3105 19.2497 13.3634 19.4334 12.4036 19.4334C11.6804 19.4335 10.9694 19.3313 10.2887 19.1345Z" fill="#E96B67"/>
<path d="M20.7754 11.7589C20.7332 11.5507 20.5248 11.4103 20.3161 11.4523C20.1075 11.4942 19.9674 11.7027 20.0094 11.9116C20.0513 12.12 20.2596 12.26 20.4684 12.2183C20.6762 12.1768 20.8177 11.9674 20.7754 11.7589Z" fill="#E96B67"/>
</svg>
