<svg width="68" height="68" viewBox="0 0 68 68" fill="none" xmlns="http://www.w3.org/2000/svg">
<path d="M43.7106 29.1922L46.9256 32.7161L44.539 36.8463C44.0162 37.751 44.9744 38.8798 45.9753 38.4329L50.357 36.477L53.5766 40.0059C54.2779 40.7759 55.6374 40.1923 55.5318 39.1371L55.3519 37.067C55.2734 36.1613 53.8723 36.2831 53.9511 37.1888L54.0606 38.4498L51.2603 35.3804C50.9315 35.0202 50.4121 34.9125 49.9667 35.1113L46.1922 36.7961L48.2475 33.2394C48.4933 32.8141 48.436 32.2846 48.1049 31.9218L45.3363 28.8872L49.3838 29.7255C49.8614 29.8244 50.3461 29.6075 50.5899 29.1858L52.6538 25.6139L53.096 29.6994C53.1487 30.1859 53.5067 30.5795 53.9867 30.6788L58.0236 31.5149L54.2591 33.1953C53.4288 33.5657 54.0022 34.8501 54.8323 34.4794L59.3968 32.442C60.3559 32.0138 60.2133 30.5325 59.1666 30.3157L54.4717 29.3433L53.9595 24.6114C53.8468 23.5696 52.3945 23.2517 51.8627 24.172L49.4727 28.3079L44.774 27.3348C43.749 27.1226 42.9896 28.4021 43.7106 29.1922Z" fill="black"/>
<path d="M50.7817 49.7194C50.4093 49.2326 49.759 49.1108 49.2356 49.4301C42.4056 53.5962 33.6427 53.0242 27.4301 48.0068C27.4118 47.992 27.3939 47.9775 27.3756 47.9626C23.5045 44.8127 21.0929 40.3489 20.583 35.3861C20.0708 30.3999 21.5404 25.517 24.7211 21.637C29.7837 15.4613 38.2472 13.1196 45.7816 15.81C46.359 16.0162 46.971 15.7649 47.2366 15.2124C47.501 14.6624 47.3166 14.0304 46.797 13.7098C42.7844 11.2307 38.1138 9.98978 33.2899 10.1212C32.3811 10.1459 32.4194 11.5517 33.3282 11.5269C37.1431 11.423 40.8546 12.2281 44.1819 13.8675C36.6501 12.0511 28.6116 14.6729 23.6335 20.7455C20.2135 24.9175 18.6332 30.1681 19.1841 35.5298C19.7323 40.8667 22.325 45.6661 26.4878 49.0532C26.5073 49.069 26.527 49.085 26.5465 49.1008C32.6545 54.0337 41.0576 54.9665 48.0622 51.6582C44.351 54.551 39.7627 56.2535 34.9293 56.4982C29.2811 56.7841 23.8051 55.031 19.5098 51.562C19.4877 51.5441 19.4659 51.5265 19.4438 51.5086C14.7685 47.7043 11.857 42.3226 11.2429 36.3457C10.626 30.3405 12.4019 24.4525 16.2434 19.7663C19.6067 15.6634 24.4012 12.8694 29.7437 11.899C30.6382 11.7365 30.387 10.3529 29.4924 10.5154C23.822 11.5454 18.7305 14.5141 15.1558 18.8749C11.075 23.8531 9.1885 30.1087 9.84407 36.4894C10.4965 42.8406 13.589 48.5579 18.5561 52.5992C18.5793 52.6181 18.603 52.6374 18.6262 52.6562C23.191 56.3429 29.0061 58.2061 35.0003 57.9026C40.9022 57.6038 46.4624 55.2518 50.6568 51.2801C51.0999 50.8604 51.1524 50.2042 50.7817 49.7194Z" fill="black"/>
</svg>
