<svg width="58" height="51" viewBox="0 0 58 51" fill="none" xmlns="http://www.w3.org/2000/svg">
<path d="M56.7154 17.5288H54.2416L54.5596 16.7574C54.9199 15.8884 55.0138 14.9319 54.8296 14.0094C54.6453 13.0869 54.1911 12.2399 53.5246 11.5759L51.3321 9.38291V6.71514C51.3321 6.5096 51.2504 6.31247 51.1051 6.16713C50.9597 6.02179 50.7626 5.94014 50.5571 5.94014C50.3515 5.94014 50.1544 6.02179 50.0091 6.16713C49.8637 6.31247 49.7821 6.5096 49.7821 6.71514V9.38336L47.589 11.5764C46.9226 12.2403 46.4684 13.0873 46.2841 14.0098C46.0998 14.9323 46.1938 15.8888 46.5541 16.7578L46.872 17.5293H44.3987C44.1931 17.5293 43.996 17.6109 43.8507 17.7563C43.7053 17.9016 43.6237 18.0987 43.6237 18.3043V22.9065C43.6237 23.112 43.7053 23.3091 43.8507 23.4545C43.996 23.5998 44.1931 23.6815 44.3987 23.6815H46.1976V28.6919H42.7654V25.758C42.7653 25.5525 42.6836 25.3554 42.5383 25.2101C42.393 25.0648 42.1959 24.9831 41.9904 24.983H40.3519C41.3802 23.4366 41.9119 21.6131 41.8759 19.7563C41.8399 17.8996 41.2379 16.0981 40.1504 14.5927C38.3332 12.0669 35.7788 10.1656 32.8379 9.14953L31.9841 8.84396C32.3323 8.09025 32.4977 7.265 32.4669 6.43531C32.4362 5.60562 32.21 4.79491 31.8069 4.06907L29.8238 0.523108C29.7566 0.402767 29.6585 0.30254 29.5396 0.232771C29.4207 0.163003 29.2854 0.126221 29.1476 0.126221C29.0097 0.126221 28.8744 0.163003 28.7555 0.232771C28.6366 0.30254 28.5385 0.402767 28.4713 0.523108L26.4878 4.06907C26.0847 4.79491 25.8585 5.60562 25.8277 6.43531C25.797 7.265 25.9624 8.09025 26.3106 8.84396L25.4568 9.14953C22.5165 10.1659 19.9628 12.0672 18.1461 14.5927C17.0584 16.098 16.4562 17.8994 16.42 19.7561C16.3838 21.6129 16.9152 23.4364 17.9433 24.983H16.3047C16.0992 24.9831 15.9021 25.0648 15.7568 25.2101C15.6115 25.3554 15.5298 25.5525 15.5297 25.758V28.6919H12.0976V23.6823H13.8969C13.9987 23.6823 14.0995 23.6622 14.1936 23.6231C14.2877 23.5841 14.3731 23.527 14.4451 23.4549C14.517 23.3829 14.5741 23.2973 14.613 23.2032C14.6519 23.1091 14.6719 23.0083 14.6719 22.9065V18.3007C14.6718 18.0952 14.5901 17.8982 14.4448 17.7529C14.2994 17.6075 14.1024 17.5259 13.8969 17.5257H11.4226L11.7411 16.7543C12.1013 15.8852 12.1952 14.9288 12.0109 14.0063C11.8267 13.0838 11.3725 12.2368 10.7061 11.5728L8.51306 9.37981V6.71514C8.51306 6.5096 8.43141 6.31247 8.28607 6.16713C8.14073 6.02179 7.94361 5.94014 7.73806 5.94014C7.53252 5.94014 7.3354 6.02179 7.19005 6.16713C7.04471 6.31247 6.96306 6.5096 6.96306 6.71514V9.38336L4.77048 11.5764C4.10401 12.2403 3.64982 13.0873 3.46555 14.0098C3.28128 14.9323 3.37525 15.8888 3.73552 16.7578L4.05349 17.5293H1.57969C1.37426 17.5294 1.17727 17.611 1.03197 17.7562C0.886663 17.9015 0.804922 18.0984 0.804688 18.3038V22.9065C0.804805 23.112 0.886494 23.309 1.03181 23.4543C1.17712 23.5996 1.37418 23.6813 1.57969 23.6815H3.37902V50.225C3.37902 50.4305 3.46067 50.6277 3.60601 50.773C3.75135 50.9183 3.94848 51 4.15402 51H54.1411C54.3466 51 54.5438 50.9183 54.6891 50.773C54.8345 50.6277 54.9161 50.4305 54.9161 50.225V23.6823H56.7154C56.8173 23.6823 56.9181 23.6622 57.0122 23.6231C57.1062 23.5841 57.1917 23.527 57.2636 23.4549C57.3356 23.3829 57.3927 23.2973 57.4316 23.2032C57.4705 23.1091 57.4905 23.0083 57.4904 22.9065V18.3007C57.4895 18.0958 57.4075 17.8995 57.2622 17.7549C57.117 17.6102 56.9204 17.5289 56.7154 17.5288ZM47.9867 16.1666C47.744 15.5805 47.6808 14.9355 47.8051 14.3134C47.9295 13.6914 48.2357 13.1202 48.6851 12.6725L50.5571 10.8005L52.429 12.6725C52.8784 13.1202 53.1847 13.6914 53.3089 14.3135C53.4332 14.9356 53.3699 15.5806 53.127 16.1666L52.565 17.5288H48.5487L47.9867 16.1666ZM27.8407 4.82547L29.1476 2.49072L30.4544 4.82724C30.7507 5.35983 30.9116 5.95706 30.923 6.56641C30.9343 7.17576 30.7958 7.77857 30.5195 8.32183L29.4084 7.92326C29.2397 7.86304 29.0554 7.86304 28.8867 7.92326L27.7756 8.32183C27.499 7.77835 27.3603 7.17521 27.3717 6.56552C27.383 5.95583 27.5441 5.35828 27.8407 4.82547ZM19.4193 15.4766C21.0515 13.2165 23.3427 11.5163 25.9789 10.6092L29.1476 9.47547L32.3162 10.6092C34.9524 11.5163 37.2436 13.2165 38.8758 15.4766C39.8831 16.8796 40.3873 18.5815 40.3069 20.3068C40.2266 22.0321 39.5663 23.6797 38.433 24.983H19.8631C18.7296 23.6798 18.0691 22.0322 17.9886 20.307C17.9081 18.5817 18.4122 16.8797 19.4193 15.4766ZM17.0797 26.533H41.2154V28.6919H17.0797V26.533ZM5.16816 16.1666C4.92526 15.5806 4.86193 14.9356 4.98619 14.3135C5.11045 13.6914 5.41671 13.1202 5.86611 12.6725L7.73806 10.8005L9.61002 12.6725C10.0594 13.1202 10.3657 13.6914 10.4899 14.3135C10.6142 14.9356 10.5509 15.5806 10.308 16.1666L9.74642 17.5288H5.73015L5.16816 16.1666ZM2.35469 19.0788H13.1219V22.1346H2.35469V19.0788ZM4.92902 23.6846H10.5476V49.4531H4.92902V23.6846ZM12.0976 30.2419H46.1976V49.4509H44.7428V43.5985C44.7415 42.8308 44.5834 42.0714 44.278 41.3671C43.9726 40.6627 43.5264 40.0282 42.9669 39.5025L41.2668 37.9105C41.1231 37.7762 40.9338 37.7016 40.7371 37.7016C40.5405 37.7016 40.3512 37.7762 40.2075 37.9105L38.5074 39.5025C37.9478 40.0282 37.5017 40.6627 37.1963 41.3671C36.8909 42.0714 36.7327 42.8308 36.7315 43.5985V49.4509H34.6558V40.5171C34.6541 39.4416 34.4326 38.3778 34.0047 37.391C33.5769 36.4042 32.9518 35.5154 32.1678 34.779L29.679 32.4469C29.5354 32.3125 29.346 32.2377 29.1493 32.2377C28.9526 32.2377 28.7633 32.3125 28.6197 32.4469L26.1273 34.779C25.3434 35.5154 24.7184 36.4043 24.2906 37.391C23.8628 38.3778 23.6413 39.4416 23.6397 40.5171V49.4509H21.5636V43.5985C21.5624 42.8308 21.4042 42.0714 21.0988 41.3671C20.7934 40.6627 20.3473 40.0282 19.7878 39.5025L18.0876 37.9105C17.9439 37.7762 17.7546 37.7016 17.558 37.7016C17.3613 37.7016 17.172 37.7762 17.0283 37.9105L15.3304 39.5025C14.7709 40.0282 14.3247 40.6627 14.0194 41.3671C13.714 42.0714 13.5558 42.8308 13.5546 43.5985V49.4509H12.0976V30.2419ZM15.1023 49.4509V43.5985C15.103 43.0429 15.2172 42.4933 15.4381 41.9835C15.6589 41.4737 15.9817 41.0145 16.3866 40.634L17.5567 39.538L18.7267 40.634C19.1316 41.0145 19.4544 41.4737 19.6752 41.9835C19.8961 42.4933 20.0103 43.0429 20.011 43.5985V49.4509H15.1023ZM25.1897 49.4509V40.5171C25.1911 39.6539 25.3689 38.8 25.7123 38.008C26.0557 37.2159 26.5574 36.5025 27.1866 35.9114L29.1476 34.0744L31.1085 35.9105C31.7378 36.5015 32.2396 37.215 32.583 38.007C32.9265 38.799 33.1044 39.6529 33.1058 40.5162V49.45L25.1897 49.4509ZM38.2815 49.4509V43.5985C38.2821 43.0429 38.3964 42.4933 38.6172 41.9835C38.8381 41.4737 39.1609 41.0145 39.5658 40.634L40.7358 39.538L41.9063 40.634C42.3112 41.0145 42.634 41.4737 42.8548 41.9835C43.0757 42.4933 43.1899 43.0429 43.1906 43.5985V49.4509H38.2815ZM53.3661 49.4509H47.7476V23.6823H53.3661V49.4509ZM55.9404 22.1323H45.1732V19.0766H55.9404V22.1323Z" fill="black"/>
<path d="M31.6444 12.4857C31.4506 12.4164 31.2373 12.427 31.0513 12.5151C30.8653 12.6032 30.7219 12.7615 30.6527 12.9553C30.5834 13.1491 30.594 13.3625 30.6821 13.5485C30.7702 13.7345 30.9285 13.8779 31.1223 13.9471C33.0645 14.6031 34.7566 15.8431 35.9672 17.4975C36.0253 17.5811 36.0994 17.6524 36.1851 17.7074C36.2708 17.7624 36.3665 17.7999 36.4668 17.8179C36.567 17.8359 36.6698 17.834 36.7693 17.8122C36.8688 17.7905 36.963 17.7494 37.0466 17.6912C37.1302 17.6331 37.2016 17.559 37.2565 17.4733C37.3115 17.3876 37.3491 17.2919 37.3671 17.1916C37.3851 17.0914 37.3831 16.9886 37.3614 16.8891C37.3397 16.7896 37.2985 16.6954 37.2404 16.6118C35.8451 14.6923 33.8906 13.2512 31.6444 12.4857Z" fill="black"/>
</svg>
