<svg width="357" height="347" fill="none" xmlns="http://www.w3.org/2000/svg"><g filter="url(#filter0_f_4328_14705)"><path fill-rule="evenodd" clip-rule="evenodd" d="M261.408 57.245l-.002.006c-.809 3.05-1.531 5.767-2.662 8.299-.56 1.25-3.41 2.51-4.72 2.11a5.351 5.351 0 01-2.86-4.34 39.627 39.627 0 012.95-10.95c.55-1.29 3.14-2.53 4.62-2.35 1.037.126 1.912 1.16 2.732 2.13.35.414.69.816 1.028 1.13-.401 1.386-.751 2.704-1.086 3.965zm2.876 44.855c-6.1-11.04-16.581-15.04-32.311-12.33a3.335 3.335 0 01-.689-.66c-2.398-4.102-4.773-8.209-7.147-12.314l-.001-.002-.004-.005a2826.706 2826.706 0 00-7.898-13.599c-8.06-13.77-23.63-14.28-32.261-.91A262.778 262.778 0 01107.244 140c-3.99 2.63-4.941 5.09-2.391 9.39 6.827 11.505 13.482 23.11 20.138 34.717 1.71 2.981 3.42 5.963 5.132 8.943 1.63 2.74 3.47 5.59 7 3.57s2.12-5.05.53-7.8c-7.26-12.54-14.503-25.083-21.73-37.63-.554-.975-1.067-1.974-1.59-2.989l-.002-.004c-.297-.578-.596-1.16-.908-1.747.444-.329.843-.629 1.214-.908l.001-.001c.7-.527 1.301-.98 1.916-1.411a271.653 271.653 0 0074-76.32c5.9-9.12 13.3-8.93 18.73.45 18.846 32.56 37.67 65.137 56.47 97.73 5.31 9.21 1.98 15.83-8.49 16.41-33.55 1.82-66.131 8.62-96.551 23-13.265 6.267-26.039 13.572-38.813 20.877-5.734 3.279-11.468 6.558-17.247 9.743-8.97 4.95-16.96 2.87-22.14-5.95a3051.641 3051.641 0 01-20.24-35c-5.14-9-2.85-17.16 6.15-22.46 7.188-4.229 14.417-8.371 21.65-12.516l.006-.003 1.695-.971c2.61-1.47 4.38-3.47 2.69-6.47-1.69-3-4.28-2.53-6.9-1-2.825 1.641-5.664 3.263-8.502 4.886-5.552 3.173-11.103 6.346-16.548 9.654-11.31 6.92-14.85 20.13-8.39 31.76 7.04 12.62 14.33 25.18 21.74 37.62 5.08 8.51 12.9 12.43 22.74 11.43 2.236-.212 4.441-.927 6.753-1.675 1.172-.38 2.372-.769 3.617-1.105.34.558.711 1.132 1.093 1.722l.001.001c.547.846 1.115 1.724 1.645 2.637a8358.482 8358.482 0 019.163 15.87 5809.395 5809.395 0 0013.837 23.92c5.071 8.65 12.36 10.58 21.17 5.65l.239-.134c2.531-1.426 5.068-2.855 7.521-4.406 7.05-4.45 9.171-11.76 5.171-19-3.529-6.362-7.194-12.667-10.856-18.966-2.45-4.215-4.899-8.428-7.305-12.654-1.53-2.67-3.54-4.25-6.53-2.48s-2.319 4.37-.819 6.94c3.337 5.723 6.644 11.462 9.95 17.197l.003.006.004.006.061.107.036.062c1.315 2.281 2.629 4.562 3.946 6.842 3.484 6.025 5.219 9.025 4.571 11.366-.642 2.321-3.627 3.993-9.571 7.324-5.43 3.04-7.41 2.57-10.5-2.73-5.52-9.5-11.024-19.01-16.51-28.53-2.01-3.501-4.005-7.007-6.062-10.621l-.027-.047-.057-.101-.203-.355-2.651-4.656c3.957-2.252 7.843-4.531 11.7-6.792l.023-.014.007-.004c8.394-4.922 16.646-9.76 25.169-14.06a255.004 255.004 0 01105-27.23c5.201-.22 9.831-1.67 13.551-5.43 5.93-6.06 6.88-14.14 2.429-22.06-3.371-5.956-6.787-11.875-10.18-17.756l-.015-.025-.02-.034-.003-.006c-1.939-3.359-3.87-6.706-5.782-10.039 10.25-11.4 12.211-22.6 6.111-33.64zm-10.661 25.72L236.264 97.9h.02c9.34-1.69 16.339 1.1 20.339 7.92s3.16 14.61-3 22zm30.118-34.26c.524.41 1.094.857 1.663 1.38a665.7 665.7 0 013.559-2.317c3.799-2.463 7.472-4.843 10.971-7.463.639-.47.32-3.4-.53-4.39-.851-.99-3.27-1.78-4.33-1.26a94.662 94.662 0 00-12.47 7.27c-.971.67-1.47 3.07-1.08 4.37.262.875 1.141 1.564 2.217 2.41zm12.593 31.784c-1.238-.293-2.544-.602-3.93-.974-.267.228-.643.475-1.048.742-1.035.683-2.264 1.493-2.372 2.428-.18 1.66.95 4.46 2.31 5.1a31.996 31.996 0 0010.46 2.82c1.58.1 4.34-1.53 4.74-2.9.4-1.37-1.18-4.25-2.6-4.91-2.26-1.05-4.733-1.636-7.56-2.306z" fill="#15F2FD"/></g><g filter="url(#filter1_f_4328_14705)"><path fill-rule="evenodd" clip-rule="evenodd" d="M261.407 57.25v.001c-.81 3.05-1.532 5.767-2.663 8.299-.56 1.25-3.41 2.51-4.72 2.11a5.351 5.351 0 01-2.86-4.34 39.627 39.627 0 012.95-10.95c.55-1.29 3.14-2.53 4.62-2.35 1.037.126 1.912 1.16 2.732 2.13.35.414.69.816 1.028 1.13a184.036 184.036 0 00-1.087 3.97zm2.877 44.85c-6.1-11.04-16.58-15.04-32.31-12.33a3.315 3.315 0 01-.69-.66 2947.218 2947.218 0 01-7.155-12.327c-2.624-4.536-5.246-9.07-7.895-13.593-8.06-13.77-23.63-14.28-32.26-.91a262.793 262.793 0 01-76.73 77.72c-3.99 2.63-4.941 5.09-2.391 9.39 6.827 11.505 13.483 23.111 20.139 34.718 1.709 2.981 3.419 5.962 5.131 8.942 1.63 2.74 3.47 5.59 7 3.57s2.12-5.05.53-7.8c-7.26-12.54-14.503-25.083-21.73-37.63a80.42 80.42 0 01-1.589-2.989c-.298-.579-.598-1.163-.911-1.751.443-.329.842-.629 1.213-.908.701-.527 1.303-.98 1.918-1.412a271.653 271.653 0 0074-76.32c5.9-9.12 13.3-8.93 18.73.45 18.846 32.56 37.67 65.137 56.47 97.73 5.31 9.21 1.98 15.83-8.49 16.41-33.55 1.82-66.13 8.62-96.55 23-13.266 6.267-26.04 13.572-38.814 20.877-5.734 3.279-11.468 6.558-17.247 9.743-8.97 4.95-16.96 2.87-22.14-5.95a3050.17 3050.17 0 01-20.24-35c-5.14-9-2.85-17.16 6.15-22.46 7.19-4.23 14.42-8.373 21.656-12.519l.002-.001 1.693-.97c2.61-1.47 4.38-3.47 2.69-6.47-1.69-3-4.28-2.53-6.9-1-2.825 1.64-5.663 3.263-8.5 4.885h-.001c-5.552 3.174-11.103 6.346-16.55 9.655-11.31 6.92-14.85 20.13-8.39 31.76 7.04 12.62 14.33 25.18 21.74 37.62 5.08 8.51 12.9 12.43 22.74 11.43 2.236-.212 4.442-.927 6.754-1.675 1.172-.38 2.372-.769 3.617-1.105.34.559.712 1.132 1.093 1.722a64.604 64.604 0 011.647 2.638c3.061 5.286 6.112 10.579 9.162 15.87v.001l.001.001.002.004v.001c4.6 7.98 9.199 15.959 13.835 23.913 5.07 8.65 12.359 10.58 21.169 5.65l.238-.134h.001c2.531-1.426 5.069-2.855 7.521-4.406 7.05-4.45 9.171-11.76 5.171-19-3.529-6.362-7.194-12.667-10.856-18.966-2.45-4.215-4.899-8.428-7.305-12.654-1.53-2.67-3.54-4.25-6.53-2.48s-2.319 4.37-.819 6.94a3905.64 3905.64 0 019.952 17.202c1.349 2.34 2.698 4.68 4.048 7.018 3.484 6.025 5.219 9.025 4.572 11.366-.643 2.321-3.628 3.993-9.572 7.324-5.43 3.04-7.41 2.57-10.5-2.73-5.52-9.5-11.024-19.01-16.51-28.53a3284.29 3284.29 0 01-6.091-10.671c-.954-1.676-1.921-3.376-2.909-5.109 3.966-2.258 7.863-4.542 11.729-6.809l.001-.001c8.394-4.922 16.646-9.76 25.169-14.06a255.004 255.004 0 01105-27.23c5.201-.22 9.831-1.67 13.551-5.43 5.93-6.06 6.879-14.14 2.429-22.06-3.382-5.975-6.809-11.914-10.214-17.813l-.001-.002c-1.939-3.361-3.872-6.71-5.785-10.045 10.25-11.4 12.211-22.6 6.111-33.64zm-10.661 25.72L236.264 97.9h.02c9.34-1.69 16.339 1.1 20.339 7.92s3.16 14.61-3 22zm30.118-34.261h.001c.523.41 1.093.858 1.662 1.381 1.196-.786 2.382-1.554 3.556-2.315l.002-.002c3.8-2.462 7.473-4.843 10.972-7.463.64-.47.32-3.4-.53-4.39-.85-.99-3.27-1.78-4.33-1.26a94.738 94.738 0 00-12.471 7.27c-.97.67-1.469 3.07-1.079 4.37.262.875 1.14 1.564 2.217 2.409zm12.594 31.785a132.177 132.177 0 01-3.931-.974c-.267.228-.643.475-1.048.742-1.035.683-2.264 1.493-2.372 2.428-.18 1.66.95 4.46 2.31 5.1a31.996 31.996 0 0010.46 2.82c1.58.1 4.34-1.53 4.74-2.9.4-1.37-1.18-4.25-2.6-4.91-2.26-1.05-4.733-1.636-7.559-2.306z" fill="#15F2FD"/></g><g filter="url(#filter2_f_4328_14705)"><path fill-rule="evenodd" clip-rule="evenodd" d="M261.407 57.25v.001c-.81 3.05-1.532 5.767-2.663 8.299-.56 1.25-3.41 2.51-4.72 2.11a5.351 5.351 0 01-2.86-4.34 39.627 39.627 0 012.95-10.95c.55-1.29 3.14-2.53 4.62-2.35 1.037.126 1.912 1.16 2.732 2.13.35.414.69.816 1.028 1.13a184.036 184.036 0 00-1.087 3.97zm2.877 44.85c-6.1-11.04-16.58-15.04-32.31-12.33a3.315 3.315 0 01-.69-.66 2947.218 2947.218 0 01-7.155-12.327c-2.624-4.536-5.246-9.07-7.895-13.593-8.06-13.77-23.63-14.28-32.26-.91a262.793 262.793 0 01-76.73 77.72c-3.99 2.63-4.941 5.09-2.391 9.39 6.827 11.505 13.483 23.111 20.139 34.718 1.709 2.981 3.419 5.962 5.131 8.942 1.63 2.74 3.47 5.59 7 3.57s2.12-5.05.53-7.8c-7.26-12.54-14.503-25.083-21.73-37.63a80.42 80.42 0 01-1.589-2.989c-.298-.579-.598-1.163-.911-1.751.443-.329.842-.629 1.213-.908.701-.527 1.303-.98 1.918-1.412a271.653 271.653 0 0074-76.32c5.9-9.12 13.3-8.93 18.73.45 18.846 32.56 37.67 65.137 56.47 97.73 5.31 9.21 1.98 15.83-8.49 16.41-33.55 1.82-66.13 8.62-96.55 23-13.266 6.267-26.04 13.572-38.814 20.877-5.734 3.279-11.468 6.558-17.247 9.743-8.97 4.95-16.96 2.87-22.14-5.95a3050.17 3050.17 0 01-20.24-35c-5.14-9-2.85-17.16 6.15-22.46 7.19-4.23 14.42-8.373 21.656-12.519l.002-.001 1.693-.97c2.61-1.47 4.38-3.47 2.69-6.47-1.69-3-4.28-2.53-6.9-1-2.825 1.64-5.663 3.263-8.5 4.885h-.001c-5.552 3.174-11.103 6.346-16.55 9.655-11.31 6.92-14.85 20.13-8.39 31.76 7.04 12.62 14.33 25.18 21.74 37.62 5.08 8.51 12.9 12.43 22.74 11.43 2.236-.212 4.442-.927 6.754-1.675 1.172-.38 2.372-.769 3.617-1.105.34.559.712 1.132 1.093 1.722a64.604 64.604 0 011.647 2.638c3.061 5.286 6.112 10.579 9.162 15.87v.001l.001.001.002.004v.001c4.6 7.98 9.199 15.959 13.835 23.913 5.07 8.65 12.359 10.58 21.169 5.65l.238-.134h.001c2.531-1.426 5.069-2.855 7.521-4.406 7.05-4.45 9.171-11.76 5.171-19-3.529-6.362-7.194-12.667-10.856-18.966-2.45-4.215-4.899-8.428-7.305-12.654-1.53-2.67-3.54-4.25-6.53-2.48s-2.319 4.37-.819 6.94a3905.64 3905.64 0 019.952 17.202c1.349 2.34 2.698 4.68 4.048 7.018 3.484 6.025 5.219 9.025 4.572 11.366-.643 2.321-3.628 3.993-9.572 7.324-5.43 3.04-7.41 2.57-10.5-2.73-5.52-9.5-11.024-19.01-16.51-28.53a3284.29 3284.29 0 01-6.091-10.671c-.954-1.676-1.921-3.376-2.909-5.109 3.966-2.258 7.863-4.542 11.729-6.809l.001-.001c8.394-4.922 16.646-9.76 25.169-14.06a255.004 255.004 0 01105-27.23c5.201-.22 9.831-1.67 13.551-5.43 5.93-6.06 6.879-14.14 2.429-22.06-3.382-5.975-6.809-11.914-10.214-17.813l-.001-.002c-1.939-3.361-3.872-6.71-5.785-10.045 10.25-11.4 12.211-22.6 6.111-33.64zm-10.661 25.72L236.264 97.9h.02c9.34-1.69 16.339 1.1 20.339 7.92s3.16 14.61-3 22zm30.118-34.261h.001c.523.41 1.093.858 1.662 1.381 1.196-.786 2.382-1.554 3.556-2.315l.002-.002c3.8-2.462 7.473-4.843 10.972-7.463.64-.47.32-3.4-.53-4.39-.85-.99-3.27-1.78-4.33-1.26a94.738 94.738 0 00-12.471 7.27c-.97.67-1.469 3.07-1.079 4.37.262.875 1.14 1.564 2.217 2.409zm12.594 31.785a132.177 132.177 0 01-3.931-.974c-.267.228-.643.475-1.048.742-1.035.683-2.264 1.493-2.372 2.428-.18 1.66.95 4.46 2.31 5.1a31.996 31.996 0 0010.46 2.82c1.58.1 4.34-1.53 4.74-2.9.4-1.37-1.18-4.25-2.6-4.91-2.26-1.05-4.733-1.636-7.559-2.306z" fill="#15F2FD"/></g><g filter="url(#filter3_d_4328_14705)"><path fill-rule="evenodd" clip-rule="evenodd" d="M261.407 57.25v.001c-.81 3.05-1.532 5.767-2.663 8.299-.56 1.25-3.41 2.51-4.72 2.11a5.351 5.351 0 01-2.86-4.34 39.627 39.627 0 012.95-10.95c.55-1.29 3.14-2.53 4.62-2.35 1.037.126 1.912 1.16 2.732 2.13.35.414.69.816 1.028 1.13a184.036 184.036 0 00-1.087 3.97zm2.877 44.85c-6.1-11.04-16.58-15.04-32.31-12.33a3.315 3.315 0 01-.69-.66 2947.218 2947.218 0 01-7.155-12.327c-2.624-4.536-5.246-9.07-7.895-13.593-8.06-13.77-23.63-14.28-32.26-.91a262.793 262.793 0 01-76.73 77.72c-3.99 2.63-4.941 5.09-2.391 9.39 6.827 11.505 13.483 23.111 20.139 34.718 1.709 2.981 3.419 5.962 5.131 8.942 1.63 2.74 3.47 5.59 7 3.57s2.12-5.05.53-7.8c-7.26-12.54-14.503-25.083-21.73-37.63a80.42 80.42 0 01-1.589-2.989c-.298-.579-.598-1.163-.911-1.751.443-.329.842-.629 1.213-.908.701-.527 1.303-.98 1.918-1.412a271.653 271.653 0 0074-76.32c5.9-9.12 13.3-8.93 18.73.45 18.846 32.56 37.67 65.137 56.47 97.73 5.31 9.21 1.98 15.83-8.49 16.41-33.55 1.82-66.13 8.62-96.55 23-13.266 6.267-26.04 13.572-38.814 20.877-5.734 3.279-11.468 6.558-17.247 9.743-8.97 4.95-16.96 2.87-22.14-5.95a3050.17 3050.17 0 01-20.24-35c-5.14-9-2.85-17.16 6.15-22.46 7.19-4.23 14.42-8.373 21.656-12.519l.002-.001 1.693-.97c2.61-1.47 4.38-3.47 2.69-6.47-1.69-3-4.28-2.53-6.9-1-2.825 1.64-5.663 3.263-8.5 4.885h-.001c-5.552 3.174-11.103 6.346-16.55 9.655-11.31 6.92-14.85 20.13-8.39 31.76 7.04 12.62 14.33 25.18 21.74 37.62 5.08 8.51 12.9 12.43 22.74 11.43 2.236-.212 4.442-.927 6.754-1.675 1.172-.38 2.372-.769 3.617-1.105.34.559.712 1.132 1.093 1.722a64.604 64.604 0 011.647 2.638c3.061 5.286 6.112 10.579 9.162 15.87v.001l.001.001.002.004v.001c4.6 7.98 9.199 15.959 13.835 23.913 5.07 8.65 12.359 10.58 21.169 5.65l.238-.134h.001c2.531-1.426 5.069-2.855 7.521-4.406 7.05-4.45 9.171-11.76 5.171-19-3.529-6.362-7.194-12.667-10.856-18.966-2.45-4.215-4.899-8.428-7.305-12.654-1.53-2.67-3.54-4.25-6.53-2.48s-2.319 4.37-.819 6.94a3905.64 3905.64 0 019.952 17.202c1.349 2.34 2.698 4.68 4.048 7.018 3.484 6.025 5.219 9.025 4.572 11.366-.643 2.321-3.628 3.993-9.572 7.324-5.43 3.04-7.41 2.57-10.5-2.73-5.52-9.5-11.024-19.01-16.51-28.53a3284.29 3284.29 0 01-6.091-10.671c-.954-1.676-1.921-3.376-2.909-5.109 3.966-2.258 7.863-4.542 11.729-6.809l.001-.001c8.394-4.922 16.646-9.76 25.169-14.06a255.004 255.004 0 01105-27.23c5.201-.22 9.831-1.67 13.551-5.43 5.93-6.06 6.879-14.14 2.429-22.06-3.382-5.975-6.809-11.914-10.214-17.813l-.001-.002c-1.939-3.361-3.872-6.71-5.785-10.045 10.25-11.4 12.211-22.6 6.111-33.64zm-10.661 25.72L236.264 97.9h.02c9.34-1.69 16.339 1.1 20.339 7.92s3.16 14.61-3 22zm30.118-34.261h.001c.523.41 1.093.858 1.662 1.381 1.196-.786 2.382-1.554 3.556-2.315l.002-.002c3.8-2.462 7.473-4.843 10.972-7.463.64-.47.32-3.4-.53-4.39-.85-.99-3.27-1.78-4.33-1.26a94.738 94.738 0 00-12.471 7.27c-.97.67-1.469 3.07-1.079 4.37.262.875 1.14 1.564 2.217 2.409zm12.594 31.785a132.177 132.177 0 01-3.931-.974c-.267.228-.643.475-1.048.742-1.035.683-2.264 1.493-2.372 2.428-.18 1.66.95 4.46 2.31 5.1a31.996 31.996 0 0010.46 2.82c1.58.1 4.34-1.53 4.74-2.9.4-1.37-1.18-4.25-2.6-4.91-2.26-1.05-4.733-1.636-7.559-2.306z" fill="#fff"/></g><defs><filter id="filter0_f_4328_14705" x=".914" y=".002" width="355.643" height="346.681" filterUnits="userSpaceOnUse" color-interpolation-filters="sRGB"><feFlood flood-opacity="0" result="BackgroundImageFix"/><feBlend in="SourceGraphic" in2="BackgroundImageFix" result="shape"/><feGaussianBlur stdDeviation="25" result="effect1_foregroundBlur_4328_14705"/></filter><filter id="filter1_f_4328_14705" x="25.914" y="25.002" width="305.643" height="296.681" filterUnits="userSpaceOnUse" color-interpolation-filters="sRGB"><feFlood flood-opacity="0" result="BackgroundImageFix"/><feBlend in="SourceGraphic" in2="BackgroundImageFix" result="shape"/><feGaussianBlur stdDeviation="12.5" result="effect1_foregroundBlur_4328_14705"/></filter><filter id="filter2_f_4328_14705" x="35.914" y="35.002" width="285.643" height="276.681" filterUnits="userSpaceOnUse" color-interpolation-filters="sRGB"><feFlood flood-opacity="0" result="BackgroundImageFix"/><feBlend in="SourceGraphic" in2="BackgroundImageFix" result="shape"/><feGaussianBlur stdDeviation="7.5" result="effect1_foregroundBlur_4328_14705"/></filter><filter id="filter3_d_4328_14705" x="46.914" y="50.002" width="263.643" height="254.681" filterUnits="userSpaceOnUse" color-interpolation-filters="sRGB"><feFlood flood-opacity="0" result="BackgroundImageFix"/><feColorMatrix in="SourceAlpha" values="0 0 0 0 0 0 0 0 0 0 0 0 0 0 0 0 0 0 127 0" result="hardAlpha"/><feOffset dy="4"/><feGaussianBlur stdDeviation="2"/><feComposite in2="hardAlpha" operator="out"/><feColorMatrix values="0 0 0 0 0 0 0 0 0 0 0 0 0 0 0 0 0 0 0.25 0"/><feBlend in2="BackgroundImageFix" result="effect1_dropShadow_4328_14705"/><feBlend in="SourceGraphic" in2="effect1_dropShadow_4328_14705" result="shape"/></filter></defs></svg>