<svg width="351" height="318" fill="none" xmlns="http://www.w3.org/2000/svg"><g filter="url(#filter0_f_4264_14370)"><path d="M175.847 50.853c20.423 0 40.846.084 61.269 0a26.76 26.76 0 0111.656 2.252 26.842 26.842 0 019.547 7.077c11.653 12.968 23.523 25.744 35.26 38.641 9.022 9.907 9.346 19.285.997 29.554-35.816 44.25-71.644 88.484-107.484 132.702-7.304 9.027-15.618 9.027-22.946 0A155011.79 155011.79 0 0156.674 128.377c-8.41-10.366-8.085-19.634.949-29.542C69.36 85.94 81.229 73.162 92.883 60.194a26.82 26.82 0 019.53-7.094 26.74 26.74 0 0111.649-2.272c20.567.109 41.17.025 61.785.025zm-14.596 192.303l.817-.482c-.541-1.675-1.07-3.351-1.634-5.014-10.82-31.868-21.633-63.731-32.437-95.591-.648-1.893-1.826-3.881-1.657-5.713.204-2.025 1.669-3.942 2.582-5.894a30.42 30.42 0 015.647 3.194c.913.783.985 2.555 1.442 3.881 12.389 36.416 24.775 72.823 37.157 109.223.601 1.76 1.382 3.447 2.655 6.545a725622.57 725622.57 0 0145.735-134.607H60.446L161.25 243.156zm129.925-125.085c-19.474 0-37.025.145-54.577-.108-4.12-.06-5.815 1.205-7.112 5.147-11.04 33.049-22.321 66.001-33.529 98.99-2.319 6.834-4.602 13.68-6.908 20.49l.925.446 101.201-124.965zm-.805-9.292l-40.653-44.487c-.985 2.76-1.61 4.435-2.187 6.122-2.402 7.003-4.805 14.018-7.208 21.02-1.045 3.026-2.546 5.882-6.391 4.4-3.844-1.483-3.267-4.411-2.09-7.557 1.466-3.93 2.667-7.967 4.012-11.945 1.742-5.17 3.508-10.329 5.322-15.668h-54.685c14.572 15.994 28.424 31.229 42.36 46.379a5.517 5.517 0 003.604 1.675c18.789.097 37.457.061 57.916.061zM175.559 62.182l-42.215 46.235h84.442l-42.227-46.235zm-114.5 46.271h55.478c-5.01-14.716-9.851-28.927-15.053-44.246l-40.426 44.246zm48.762-47.994c5.01 14.728 9.839 28.927 14.945 43.872l40.077-43.872h-55.022z" fill="#15F2FD"/></g><g filter="url(#filter1_f_4264_14370)"><path d="M175.847 50.853c20.423 0 40.846.084 61.269 0a26.76 26.76 0 0111.656 2.252 26.842 26.842 0 019.547 7.077c11.653 12.968 23.523 25.744 35.26 38.641 9.022 9.907 9.346 19.285.997 29.554-35.816 44.25-71.644 88.484-107.484 132.702-7.304 9.027-15.618 9.027-22.946 0A155011.79 155011.79 0 0156.674 128.377c-8.41-10.366-8.085-19.634.949-29.542C69.36 85.94 81.229 73.162 92.883 60.194a26.82 26.82 0 019.53-7.094 26.74 26.74 0 0111.649-2.272c20.567.109 41.17.025 61.785.025zm-14.596 192.303l.817-.482c-.541-1.675-1.07-3.351-1.634-5.014-10.82-31.868-21.633-63.731-32.437-95.591-.648-1.893-1.826-3.881-1.657-5.713.204-2.025 1.669-3.942 2.582-5.894a30.42 30.42 0 015.647 3.194c.913.783.985 2.555 1.442 3.881 12.389 36.416 24.775 72.823 37.157 109.223.601 1.76 1.382 3.447 2.655 6.545a725622.57 725622.57 0 0145.735-134.607H60.446L161.25 243.156zm129.925-125.085c-19.474 0-37.025.145-54.577-.108-4.12-.06-5.815 1.205-7.112 5.147-11.04 33.049-22.321 66.001-33.529 98.99-2.319 6.834-4.602 13.68-6.908 20.49l.925.446 101.201-124.965zm-.805-9.292l-40.653-44.487c-.985 2.76-1.61 4.435-2.187 6.122-2.402 7.003-4.805 14.018-7.208 21.02-1.045 3.026-2.546 5.882-6.391 4.4-3.844-1.483-3.267-4.411-2.09-7.557 1.466-3.93 2.667-7.967 4.012-11.945 1.742-5.17 3.508-10.329 5.322-15.668h-54.685c14.572 15.994 28.424 31.229 42.36 46.379a5.517 5.517 0 003.604 1.675c18.789.097 37.457.061 57.916.061zM175.559 62.182l-42.215 46.235h84.442l-42.227-46.235zm-114.5 46.271h55.478c-5.01-14.716-9.851-28.927-15.053-44.246l-40.426 44.246zm48.762-47.994c5.01 14.728 9.839 28.927 14.945 43.872l40.077-43.872h-55.022z" fill="#15F2FD"/></g><g filter="url(#filter2_f_4264_14370)"><path d="M175.847 50.853c20.423 0 40.846.084 61.269 0a26.76 26.76 0 0111.656 2.252 26.842 26.842 0 019.547 7.077c11.653 12.968 23.523 25.744 35.26 38.641 9.022 9.907 9.346 19.285.997 29.554-35.816 44.25-71.644 88.484-107.484 132.702-7.304 9.027-15.618 9.027-22.946 0A155011.79 155011.79 0 0156.674 128.377c-8.41-10.366-8.085-19.634.949-29.542C69.36 85.94 81.229 73.162 92.883 60.194a26.82 26.82 0 019.53-7.094 26.74 26.74 0 0111.649-2.272c20.567.109 41.17.025 61.785.025zm-14.596 192.303l.817-.482c-.541-1.675-1.07-3.351-1.634-5.014-10.82-31.868-21.633-63.731-32.437-95.591-.648-1.893-1.826-3.881-1.657-5.713.204-2.025 1.669-3.942 2.582-5.894a30.42 30.42 0 015.647 3.194c.913.783.985 2.555 1.442 3.881 12.389 36.416 24.775 72.823 37.157 109.223.601 1.76 1.382 3.447 2.655 6.545a725622.57 725622.57 0 0145.735-134.607H60.446L161.25 243.156zm129.925-125.085c-19.474 0-37.025.145-54.577-.108-4.12-.06-5.815 1.205-7.112 5.147-11.04 33.049-22.321 66.001-33.529 98.99-2.319 6.834-4.602 13.68-6.908 20.49l.925.446 101.201-124.965zm-.805-9.292l-40.653-44.487c-.985 2.76-1.61 4.435-2.187 6.122-2.402 7.003-4.805 14.018-7.208 21.02-1.045 3.026-2.546 5.882-6.391 4.4-3.844-1.483-3.267-4.411-2.09-7.557 1.466-3.93 2.667-7.967 4.012-11.945 1.742-5.17 3.508-10.329 5.322-15.668h-54.685c14.572 15.994 28.424 31.229 42.36 46.379a5.517 5.517 0 003.604 1.675c18.789.097 37.457.061 57.916.061zM175.559 62.182l-42.215 46.235h84.442l-42.227-46.235zm-114.5 46.271h55.478c-5.01-14.716-9.851-28.927-15.053-44.246l-40.426 44.246zm48.762-47.994c5.01 14.728 9.839 28.927 14.945 43.872l40.077-43.872h-55.022z" fill="#15F2FD"/></g><g filter="url(#filter3_d_4264_14370)"><path d="M175.847 50.853c20.423 0 40.846.084 61.269 0a26.76 26.76 0 0111.656 2.252 26.842 26.842 0 019.547 7.077c11.653 12.968 23.523 25.744 35.26 38.641 9.022 9.907 9.346 19.285.997 29.554-35.816 44.25-71.644 88.484-107.484 132.702-7.304 9.027-15.618 9.027-22.946 0A155011.79 155011.79 0 0156.674 128.377c-8.41-10.366-8.085-19.634.949-29.542C69.36 85.94 81.229 73.162 92.883 60.194a26.82 26.82 0 019.53-7.094 26.74 26.74 0 0111.649-2.272c20.567.109 41.17.025 61.785.025zm-14.596 192.303l.817-.482c-.541-1.675-1.07-3.351-1.634-5.014-10.82-31.868-21.633-63.731-32.437-95.591-.648-1.893-1.826-3.881-1.657-5.713.204-2.025 1.669-3.942 2.582-5.894a30.42 30.42 0 015.647 3.194c.913.783.985 2.555 1.442 3.881 12.389 36.416 24.775 72.823 37.157 109.223.601 1.76 1.382 3.447 2.655 6.545a725622.57 725622.57 0 0145.735-134.607H60.446L161.25 243.156zm129.925-125.085c-19.474 0-37.025.145-54.577-.108-4.12-.06-5.815 1.205-7.112 5.147-11.04 33.049-22.321 66.001-33.529 98.99-2.319 6.834-4.602 13.68-6.908 20.49l.925.446 101.201-124.965zm-.805-9.292l-40.653-44.487c-.985 2.76-1.61 4.435-2.187 6.122-2.402 7.003-4.805 14.018-7.208 21.02-1.045 3.026-2.546 5.882-6.391 4.4-3.844-1.483-3.267-4.411-2.09-7.557 1.466-3.93 2.667-7.967 4.012-11.945 1.742-5.17 3.508-10.329 5.322-15.668h-54.685c14.572 15.994 28.424 31.229 42.36 46.379a5.517 5.517 0 003.604 1.675c18.789.097 37.457.061 57.916.061zM175.559 62.182l-42.215 46.235h84.442l-42.227-46.235zm-114.5 46.271h55.478c-5.01-14.716-9.851-28.927-15.053-44.246l-40.426 44.246zm48.762-47.994c5.01 14.728 9.839 28.927 14.945 43.872l40.077-43.872h-55.022z" fill="#fff"/></g><defs><filter id="filter0_f_4264_14370" x=".598" y=".815" width="350.003" height="317.034" filterUnits="userSpaceOnUse" color-interpolation-filters="sRGB"><feFlood flood-opacity="0" result="BackgroundImageFix"/><feBlend in="SourceGraphic" in2="BackgroundImageFix" result="shape"/><feGaussianBlur stdDeviation="25" result="effect1_foregroundBlur_4264_14370"/></filter><filter id="filter1_f_4264_14370" x="25.598" y="25.815" width="300.003" height="267.034" filterUnits="userSpaceOnUse" color-interpolation-filters="sRGB"><feFlood flood-opacity="0" result="BackgroundImageFix"/><feBlend in="SourceGraphic" in2="BackgroundImageFix" result="shape"/><feGaussianBlur stdDeviation="12.5" result="effect1_foregroundBlur_4264_14370"/></filter><filter id="filter2_f_4264_14370" x="35.598" y="35.815" width="280.003" height="247.034" filterUnits="userSpaceOnUse" color-interpolation-filters="sRGB"><feFlood flood-opacity="0" result="BackgroundImageFix"/><feBlend in="SourceGraphic" in2="BackgroundImageFix" result="shape"/><feGaussianBlur stdDeviation="7.5" result="effect1_foregroundBlur_4264_14370"/></filter><filter id="filter3_d_4264_14370" x="46.598" y="50.815" width="258.003" height="225.034" filterUnits="userSpaceOnUse" color-interpolation-filters="sRGB"><feFlood flood-opacity="0" result="BackgroundImageFix"/><feColorMatrix in="SourceAlpha" values="0 0 0 0 0 0 0 0 0 0 0 0 0 0 0 0 0 0 127 0" result="hardAlpha"/><feOffset dy="4"/><feGaussianBlur stdDeviation="2"/><feComposite in2="hardAlpha" operator="out"/><feColorMatrix values="0 0 0 0 0 0 0 0 0 0 0 0 0 0 0 0 0 0 0.25 0"/><feBlend in2="BackgroundImageFix" result="effect1_dropShadow_4264_14370"/><feBlend in="SourceGraphic" in2="effect1_dropShadow_4264_14370" result="shape"/></filter></defs></svg>