<svg width="356" height="304" fill="none" xmlns="http://www.w3.org/2000/svg"><g filter="url(#filter0_f_4264_14378)" fill="#15F2FD"><path d="M201.483 61.42c-2.34 15.39-4.7 31-7.08 46.56l-20.46 133.87c-1.29 8.48-5 12.73-11 12-6.41-.73-9.32-5.67-8-14.36 6.42-42.5 12.893-84.993 19.42-127.48 2.5-16.4 5.01-32.803 7.53-49.21.215-1.649.55-3.28 1-4.88a9.401 9.401 0 0110.73-6.79 9.807 9.807 0 017.86 10.29zm81.2 90.95c-17-18-33.62-35.63-50.24-53.28a30.264 30.264 0 01-3.55-4.14 9.471 9.471 0 0113.31-12.92 26.465 26.465 0 014 3.74 40076.92 40076.92 0 0154.37 57.6c6.78 7.2 6.76 11-.11 18.24-18.1 19.22-36.22 38.423-54.36 57.61a30.317 30.317 0 01-3.2 3.12 9.49 9.49 0 01-13.65-13 49.204 49.204 0 014-4.44l45.82-48.53c1.09-1.16 2.17-2.39 3.61-4zm-209.55.19c17 18 33.64 35.65 50.27 53.3a29.629 29.629 0 013.53 4.16 9.562 9.562 0 01-1.5 11.86 9.697 9.697 0 01-11.94 1 16.796 16.796 0 01-2.58-2.34 61023.888 61023.888 0 01-57.08-60.52c-4.89-5.21-5-9.77-.12-14.92 19.08-20.347 38.22-40.64 57.42-60.88 3.84-4.05 8.58-4.88 12.55-2.44 3.97 2.44 5.52 6.31 4.23 10.7-.67 2.25-2.41 4.32-4.07 6.09a12251.75 12251.75 0 01-47.84 50.76c-.93.92-1.73 1.92-2.87 3.23z"/></g><g filter="url(#filter1_f_4264_14378)" fill="#15F2FD"><path d="M201.483 61.42c-2.34 15.39-4.7 31-7.08 46.56l-20.46 133.87c-1.29 8.48-5 12.73-11 12-6.41-.73-9.32-5.67-8-14.36 6.42-42.5 12.893-84.993 19.42-127.48 2.5-16.4 5.01-32.803 7.53-49.21.215-1.649.55-3.28 1-4.88a9.401 9.401 0 0110.73-6.79 9.807 9.807 0 017.86 10.29zm81.2 90.95c-17-18-33.62-35.63-50.24-53.28a30.264 30.264 0 01-3.55-4.14 9.471 9.471 0 0113.31-12.92 26.465 26.465 0 014 3.74 40076.92 40076.92 0 0154.37 57.6c6.78 7.2 6.76 11-.11 18.24-18.1 19.22-36.22 38.423-54.36 57.61a30.317 30.317 0 01-3.2 3.12 9.49 9.49 0 01-13.65-13 49.204 49.204 0 014-4.44l45.82-48.53c1.09-1.16 2.17-2.39 3.61-4zm-209.55.19c17 18 33.64 35.65 50.27 53.3a29.629 29.629 0 013.53 4.16 9.562 9.562 0 01-1.5 11.86 9.697 9.697 0 01-11.94 1 16.796 16.796 0 01-2.58-2.34 61023.888 61023.888 0 01-57.08-60.52c-4.89-5.21-5-9.77-.12-14.92 19.08-20.347 38.22-40.64 57.42-60.88 3.84-4.05 8.58-4.88 12.55-2.44 3.97 2.44 5.52 6.31 4.23 10.7-.67 2.25-2.41 4.32-4.07 6.09a12251.75 12251.75 0 01-47.84 50.76c-.93.92-1.73 1.92-2.87 3.23z"/></g><g filter="url(#filter2_f_4264_14378)" fill="#15F2FD"><path d="M201.483 61.42c-2.34 15.39-4.7 31-7.08 46.56l-20.46 133.87c-1.29 8.48-5 12.73-11 12-6.41-.73-9.32-5.67-8-14.36 6.42-42.5 12.893-84.993 19.42-127.48 2.5-16.4 5.01-32.803 7.53-49.21.215-1.649.55-3.28 1-4.88a9.401 9.401 0 0110.73-6.79 9.807 9.807 0 017.86 10.29zm81.2 90.95c-17-18-33.62-35.63-50.24-53.28a30.264 30.264 0 01-3.55-4.14 9.471 9.471 0 0113.31-12.92 26.465 26.465 0 014 3.74 40076.92 40076.92 0 0154.37 57.6c6.78 7.2 6.76 11-.11 18.24-18.1 19.22-36.22 38.423-54.36 57.61a30.317 30.317 0 01-3.2 3.12 9.49 9.49 0 01-13.65-13 49.204 49.204 0 014-4.44l45.82-48.53c1.09-1.16 2.17-2.39 3.61-4zm-209.55.19c17 18 33.64 35.65 50.27 53.3a29.629 29.629 0 013.53 4.16 9.562 9.562 0 01-1.5 11.86 9.697 9.697 0 01-11.94 1 16.796 16.796 0 01-2.58-2.34 61023.888 61023.888 0 01-57.08-60.52c-4.89-5.21-5-9.77-.12-14.92 19.08-20.347 38.22-40.64 57.42-60.88 3.84-4.05 8.58-4.88 12.55-2.44 3.97 2.44 5.52 6.31 4.23 10.7-.67 2.25-2.41 4.32-4.07 6.09a12251.75 12251.75 0 01-47.84 50.76c-.93.92-1.73 1.92-2.87 3.23z"/></g><g filter="url(#filter3_d_4264_14378)"><path fill-rule="evenodd" clip-rule="evenodd" d="M201.483 61.42l-2.3 15.145-.013.085c-1.58 10.411-3.169 20.882-4.767 31.33l-20.46 133.87c-1.29 8.48-5 12.73-11 12-6.41-.73-9.32-5.67-8-14.36 6.42-42.5 12.893-84.993 19.42-127.48 2.5-16.4 5.01-32.803 7.53-49.21.215-1.649.55-3.28 1-4.88a9.401 9.401 0 0110.73-6.79 9.813 9.813 0 017.86 10.29zm81.2 90.95c-17-18-33.62-35.63-50.24-53.28a30.195 30.195 0 01-3.55-4.14 9.465 9.465 0 011.392-11.882 9.467 9.467 0 0111.918-1.038 26.46 26.46 0 014 3.74 40076.92 40076.92 0 0154.37 57.6c6.78 7.2 6.76 11-.11 18.24-18.1 19.22-36.22 38.423-54.36 57.61a30.317 30.317 0 01-3.2 3.12 9.49 9.49 0 01-13.65-13 49.204 49.204 0 014-4.44l45.82-48.53c.842-.896 1.678-1.834 2.678-2.956l.004-.004.537-.603.391-.437zm-159.28 53.49c-16.63-17.65-33.27-35.3-50.27-53.3.313-.36.601-.696.873-1.014.717-.839 1.323-1.549 1.997-2.216a12251.75 12251.75 0 0047.84-50.76c1.66-1.77 3.4-3.84 4.07-6.09 1.29-4.39-.26-8.26-4.23-10.7-3.97-2.44-8.71-1.61-12.55 2.44a14538.86 14538.86 0 00-57.42 60.88c-4.88 5.15-4.77 9.71.12 14.92 19.014 20.187 38.04 40.36 57.08 60.52a16.796 16.796 0 002.58 2.34 9.7 9.7 0 0011.94-1 9.562 9.562 0 001.5-11.86 29.629 29.629 0 00-3.53-4.16z" fill="#fff"/></g><defs><filter id="filter0_f_4264_14378" x=".109" y=".982" width="355.528" height="302.948" filterUnits="userSpaceOnUse" color-interpolation-filters="sRGB"><feFlood flood-opacity="0" result="BackgroundImageFix"/><feBlend in="SourceGraphic" in2="BackgroundImageFix" result="shape"/><feGaussianBlur stdDeviation="25" result="effect1_foregroundBlur_4264_14378"/></filter><filter id="filter1_f_4264_14378" x="25.109" y="25.982" width="305.528" height="252.948" filterUnits="userSpaceOnUse" color-interpolation-filters="sRGB"><feFlood flood-opacity="0" result="BackgroundImageFix"/><feBlend in="SourceGraphic" in2="BackgroundImageFix" result="shape"/><feGaussianBlur stdDeviation="12.5" result="effect1_foregroundBlur_4264_14378"/></filter><filter id="filter2_f_4264_14378" x="35.109" y="35.982" width="285.528" height="232.948" filterUnits="userSpaceOnUse" color-interpolation-filters="sRGB"><feFlood flood-opacity="0" result="BackgroundImageFix"/><feBlend in="SourceGraphic" in2="BackgroundImageFix" result="shape"/><feGaussianBlur stdDeviation="7.5" result="effect1_foregroundBlur_4264_14378"/></filter><filter id="filter3_d_4264_14378" x="46.109" y="50.982" width="263.528" height="210.948" filterUnits="userSpaceOnUse" color-interpolation-filters="sRGB"><feFlood flood-opacity="0" result="BackgroundImageFix"/><feColorMatrix in="SourceAlpha" values="0 0 0 0 0 0 0 0 0 0 0 0 0 0 0 0 0 0 127 0" result="hardAlpha"/><feOffset dy="4"/><feGaussianBlur stdDeviation="2"/><feComposite in2="hardAlpha" operator="out"/><feColorMatrix values="0 0 0 0 0 0 0 0 0 0 0 0 0 0 0 0 0 0 0.25 0"/><feBlend in2="BackgroundImageFix" result="effect1_dropShadow_4264_14378"/><feBlend in="SourceGraphic" in2="effect1_dropShadow_4264_14378" result="shape"/></filter></defs></svg>