<svg width="303" height="303" fill="none" xmlns="http://www.w3.org/2000/svg"><g filter="url(#filter0_f_4190_15321)" fill="#15F2FD"><path d="M151.161 50.502a101.043 101.043 0 0171.399 29.675 100.984 100.984 0 01-.185 142.836 101.04 101.04 0 01-71.475 29.489c-55.785-.031-100.862-45.404-100.798-101.316C50.22 95.582 95.47 50.494 151.16 50.502zm-.166 7.913c-51.25 0-92.994 41.939-92.963 93.222.032 51.283 41.95 93 93.224 92.96 51.274-.039 93.01-41.938 92.962-93.229-.047-51.291-41.902-93-93.223-92.953z"/><path d="M224.565 151.455a73.192 73.192 0 00-9.973-36.827c-.791-1.321-1.701-2.975-1.496-4.304.206-1.33 1.876-3.205 2.794-3.165 1.647.103 3.855 1.068 4.702 2.374a72.323 72.323 0 0110.234 26.254c8.39 45.753-20.516 87.493-66.336 95.881-44.522 8.142-89.052-25.013-93.936-69.958-4.828-44.423 23.286-82.46 67.215-90.357 19.186-3.45 37.367.237 54.305 9.899 2.549 1.448 5.066 3.165 3.103 6.449-1.963 3.284-4.623 1.812-7.124.372-43.192-24.53-96.5-1.733-108.23 46.282-10.345 42.31 18.909 84.565 62.18 89.827 44.032 5.389 82.578-28.573 82.562-72.727z"/><path d="M125.239 150.838v-22.053c0-5.112 1.813-9.274 6.459-11.767 4.472-2.374 8.825-1.788 13.02.91 11.699 7.525 23.468 14.932 35.103 22.552 8.367 5.475 8.39 15.62 0 21.103a2052.972 2052.972 0 01-35.467 22.71c-8.794 5.539-18.782.174-19.083-10.215-.206-7.739-.024-15.494-.032-23.24zm7.915-.111c0 7.351-.134 14.71.095 22.061.056 1.749.903 4.368 2.145 4.946 1.48.688 4.124.15 5.667-.792 11.264-6.987 22.392-14.195 33.536-21.364 4.868-3.166 4.805-5.951-.166-9.148-11.033-7.121-22.051-14.243-33.195-21.167-1.584-.981-4.283-1.717-5.644-.997-1.361.72-2.264 3.371-2.374 5.215-.23 7.05-.072 14.148-.072 21.246h.008zm77.109-53.008c-1.528 1.012-3.127 2.888-4.575 2.785-1.449-.103-3.356-2.16-3.625-3.632a3.159 3.159 0 01.884-2.932 3.169 3.169 0 012.954-.81c1.583.276 2.882 1.827 4.306 2.808l.056 1.78z"/></g><g filter="url(#filter1_f_4190_15321)" fill="#15F2FD"><path d="M151.161 50.502a101.043 101.043 0 0171.399 29.675 100.984 100.984 0 01-.185 142.836 101.04 101.04 0 01-71.475 29.489c-55.785-.031-100.862-45.404-100.798-101.316C50.22 95.582 95.47 50.494 151.16 50.502zm-.166 7.913c-51.25 0-92.994 41.939-92.963 93.222.032 51.283 41.95 93 93.224 92.96 51.274-.039 93.01-41.938 92.962-93.229-.047-51.291-41.902-93-93.223-92.953z"/><path d="M224.565 151.455a73.192 73.192 0 00-9.973-36.827c-.791-1.321-1.701-2.975-1.496-4.304.206-1.33 1.876-3.205 2.794-3.165 1.647.103 3.855 1.068 4.702 2.374a72.323 72.323 0 0110.234 26.254c8.39 45.753-20.516 87.493-66.336 95.881-44.522 8.142-89.052-25.013-93.936-69.958-4.828-44.423 23.286-82.46 67.215-90.357 19.186-3.45 37.367.237 54.305 9.899 2.549 1.448 5.066 3.165 3.103 6.449-1.963 3.284-4.623 1.812-7.124.372-43.192-24.53-96.5-1.733-108.23 46.282-10.345 42.31 18.909 84.565 62.18 89.827 44.032 5.389 82.578-28.573 82.562-72.727z"/><path d="M125.239 150.838v-22.053c0-5.112 1.813-9.274 6.459-11.767 4.472-2.374 8.825-1.788 13.02.91 11.699 7.525 23.468 14.932 35.103 22.552 8.367 5.475 8.39 15.62 0 21.103a2052.972 2052.972 0 01-35.467 22.71c-8.794 5.539-18.782.174-19.083-10.215-.206-7.739-.024-15.494-.032-23.24zm7.915-.111c0 7.351-.134 14.71.095 22.061.056 1.749.903 4.368 2.145 4.946 1.48.688 4.124.15 5.667-.792 11.264-6.987 22.392-14.195 33.536-21.364 4.868-3.166 4.805-5.951-.166-9.148-11.033-7.121-22.051-14.243-33.195-21.167-1.584-.981-4.283-1.717-5.644-.997-1.361.72-2.264 3.371-2.374 5.215-.23 7.05-.072 14.148-.072 21.246h.008zm77.109-53.008c-1.528 1.012-3.127 2.888-4.575 2.785-1.449-.103-3.356-2.16-3.625-3.632a3.159 3.159 0 01.884-2.932 3.169 3.169 0 012.954-.81c1.583.276 2.882 1.827 4.306 2.808l.056 1.78z"/></g><g filter="url(#filter2_f_4190_15321)" fill="#15F2FD"><path d="M151.161 50.502a101.043 101.043 0 0171.399 29.675 100.984 100.984 0 01-.185 142.836 101.04 101.04 0 01-71.475 29.489c-55.785-.031-100.862-45.404-100.798-101.316C50.22 95.582 95.47 50.494 151.16 50.502zm-.166 7.913c-51.25 0-92.994 41.939-92.963 93.222.032 51.283 41.95 93 93.224 92.96 51.274-.039 93.01-41.938 92.962-93.229-.047-51.291-41.902-93-93.223-92.953z"/><path d="M224.565 151.455a73.192 73.192 0 00-9.973-36.827c-.791-1.321-1.701-2.975-1.496-4.304.206-1.33 1.876-3.205 2.794-3.165 1.647.103 3.855 1.068 4.702 2.374a72.323 72.323 0 0110.234 26.254c8.39 45.753-20.516 87.493-66.336 95.881-44.522 8.142-89.052-25.013-93.936-69.958-4.828-44.423 23.286-82.46 67.215-90.357 19.186-3.45 37.367.237 54.305 9.899 2.549 1.448 5.066 3.165 3.103 6.449-1.963 3.284-4.623 1.812-7.124.372-43.192-24.53-96.5-1.733-108.23 46.282-10.345 42.31 18.909 84.565 62.18 89.827 44.032 5.389 82.578-28.573 82.562-72.727z"/><path d="M125.239 150.838v-22.053c0-5.112 1.813-9.274 6.459-11.767 4.472-2.374 8.825-1.788 13.02.91 11.699 7.525 23.468 14.932 35.103 22.552 8.367 5.475 8.39 15.62 0 21.103a2052.972 2052.972 0 01-35.467 22.71c-8.794 5.539-18.782.174-19.083-10.215-.206-7.739-.024-15.494-.032-23.24zm7.915-.111c0 7.351-.134 14.71.095 22.061.056 1.749.903 4.368 2.145 4.946 1.48.688 4.124.15 5.667-.792 11.264-6.987 22.392-14.195 33.536-21.364 4.868-3.166 4.805-5.951-.166-9.148-11.033-7.121-22.051-14.243-33.195-21.167-1.584-.981-4.283-1.717-5.644-.997-1.361.72-2.264 3.371-2.374 5.215-.23 7.05-.072 14.148-.072 21.246h.008zm77.109-53.008c-1.528 1.012-3.127 2.888-4.575 2.785-1.449-.103-3.356-2.16-3.625-3.632a3.159 3.159 0 01.884-2.932 3.169 3.169 0 012.954-.81c1.583.276 2.882 1.827 4.306 2.808l.056 1.78z"/></g><g filter="url(#filter3_d_4190_15321)" fill="#fff"><path d="M151.161 50.502a101.043 101.043 0 0171.399 29.675 100.984 100.984 0 01-.185 142.836 101.04 101.04 0 01-71.475 29.489c-55.785-.031-100.862-45.404-100.798-101.316C50.22 95.582 95.47 50.494 151.16 50.502zm-.166 7.913c-51.25 0-92.994 41.939-92.963 93.222.032 51.283 41.95 93 93.224 92.96 51.274-.039 93.01-41.938 92.962-93.229-.047-51.291-41.902-93-93.223-92.953z"/><path d="M224.565 151.455a73.192 73.192 0 00-9.973-36.827c-.791-1.321-1.701-2.975-1.496-4.304.206-1.33 1.876-3.205 2.794-3.165 1.647.103 3.855 1.068 4.702 2.374a72.323 72.323 0 0110.234 26.254c8.39 45.753-20.516 87.493-66.336 95.881-44.522 8.142-89.052-25.013-93.936-69.958-4.828-44.423 23.286-82.46 67.215-90.357 19.186-3.45 37.367.237 54.305 9.899 2.549 1.448 5.066 3.165 3.103 6.449-1.963 3.284-4.623 1.812-7.124.372-43.192-24.53-96.5-1.733-108.23 46.282-10.345 42.31 18.909 84.565 62.18 89.827 44.032 5.389 82.578-28.573 82.562-72.727z"/><path d="M125.239 150.838v-22.053c0-5.112 1.813-9.274 6.459-11.767 4.472-2.374 8.825-1.788 13.02.91 11.699 7.525 23.468 14.932 35.103 22.552 8.367 5.475 8.39 15.62 0 21.103a2052.972 2052.972 0 01-35.467 22.71c-8.794 5.539-18.782.174-19.083-10.215-.206-7.739-.024-15.494-.032-23.24zm7.915-.111c0 7.351-.134 14.71.095 22.061.056 1.749.903 4.368 2.145 4.946 1.48.688 4.124.15 5.667-.792 11.264-6.987 22.392-14.195 33.536-21.364 4.868-3.166 4.805-5.951-.166-9.148-11.033-7.121-22.051-14.243-33.195-21.167-1.584-.981-4.283-1.717-5.644-.997-1.361.72-2.264 3.371-2.374 5.215-.23 7.05-.072 14.148-.072 21.246h.008zm77.109-53.008c-1.528 1.012-3.127 2.888-4.575 2.785-1.449-.103-3.356-2.16-3.625-3.632a3.159 3.159 0 01.884-2.932 3.169 3.169 0 012.954-.81c1.583.276 2.882 1.827 4.306 2.808l.056 1.78z"/></g><defs><filter id="filter0_f_4190_15321" x=".102" y=".502" width="301.957" height="302" filterUnits="userSpaceOnUse" color-interpolation-filters="sRGB"><feFlood flood-opacity="0" result="BackgroundImageFix"/><feBlend in="SourceGraphic" in2="BackgroundImageFix" result="shape"/><feGaussianBlur stdDeviation="25" result="effect1_foregroundBlur_4190_15321"/></filter><filter id="filter1_f_4190_15321" x="25.102" y="25.502" width="251.957" height="252" filterUnits="userSpaceOnUse" color-interpolation-filters="sRGB"><feFlood flood-opacity="0" result="BackgroundImageFix"/><feBlend in="SourceGraphic" in2="BackgroundImageFix" result="shape"/><feGaussianBlur stdDeviation="12.5" result="effect1_foregroundBlur_4190_15321"/></filter><filter id="filter2_f_4190_15321" x="35.102" y="35.502" width="231.957" height="232" filterUnits="userSpaceOnUse" color-interpolation-filters="sRGB"><feFlood flood-opacity="0" result="BackgroundImageFix"/><feBlend in="SourceGraphic" in2="BackgroundImageFix" result="shape"/><feGaussianBlur stdDeviation="7.5" result="effect1_foregroundBlur_4190_15321"/></filter><filter id="filter3_d_4190_15321" x="46.102" y="50.502" width="209.957" height="210" filterUnits="userSpaceOnUse" color-interpolation-filters="sRGB"><feFlood flood-opacity="0" result="BackgroundImageFix"/><feColorMatrix in="SourceAlpha" values="0 0 0 0 0 0 0 0 0 0 0 0 0 0 0 0 0 0 127 0" result="hardAlpha"/><feOffset dy="4"/><feGaussianBlur stdDeviation="2"/><feComposite in2="hardAlpha" operator="out"/><feColorMatrix values="0 0 0 0 0 0 0 0 0 0 0 0 0 0 0 0 0 0 0.25 0"/><feBlend in2="BackgroundImageFix" result="effect1_dropShadow_4190_15321"/><feBlend in="SourceGraphic" in2="effect1_dropShadow_4190_15321" result="shape"/></filter></defs></svg>