<svg width="52" height="52" fill="none" xmlns="http://www.w3.org/2000/svg"><path d="M50.233 25.35c-.061-.163-1.788-3.981-5.606-7.82C39.528 12.45 33.089 9.75 26 9.75a26.898 26.898 0 00-4.469.366 1.645 1.645 0 00-.934 2.701l20.576 22.628a1.625 1.625 0 001.199.528 1.747 1.747 0 001.097-.406c4.631-4.164 6.683-8.714 6.764-8.897a1.665 1.665 0 000-1.32zM10.948 7.028a1.625 1.625 0 00-2.396 2.194l3.9 4.286C5.078 18.038 1.909 25.025 1.767 25.35a1.666 1.666 0 000 1.32c.061.142 1.788 3.961 5.607 7.8C12.472 39.548 18.91 42.25 26 42.25c3.643.025 7.25-.723 10.583-2.194l4.469 4.916a1.624 1.624 0 001.198.528 1.666 1.666 0 001.097-.427 1.606 1.606 0 00.102-2.295l-32.5-35.75zM26 33.312a7.312 7.312 0 01-5.992-11.496l9.587 10.542a7.19 7.19 0 01-3.595.954z" fill="#fff"/></svg>