<svg width="277" height="238" fill="none" xmlns="http://www.w3.org/2000/svg"><path d="M136.191 13.89C27.237 121.3 76.944 197.537 115.416 222.23 24.929 211.118 28.469 97.226 41.55 41.668l41.55 18.52C97.72 40.124 128.805 0 136.19 0c7.386 0 41.55 40.125 57.709 60.187l41.55-18.519c24.006 148.153-40.781 182.105-76.175 180.562C255.3 162.969 183.896 58.644 136.19 13.89z" fill="#FDFAF8"/><path d="M25.392 141.203H0c35.087 100.004 93.103 103.399 117.725 92.596-64.633 0-88.486-61.731-92.333-92.596zm226.216 0H277c-35.087 100.004-93.103 103.399-117.725 92.596 64.633 0 88.486-61.731 92.333-92.596z" fill="#FDFAF8"/></svg>