<svg width="351" height="302" fill="none" xmlns="http://www.w3.org/2000/svg"><path d="M172.362 17.562c-137.89 135.816-74.983 232.214-26.293 263.436-114.52-14.05-110.039-158.061-93.484-228.31l52.585 23.416C123.673 50.736 163.014 0 172.362 0c9.348 0 52.585 50.736 73.036 76.104l52.585-23.417c30.382 187.332-51.612 230.262-96.406 228.311 121.53-74.933 31.161-206.846-29.215-263.436z" fill="#F9F4EF"/><path d="M32.135 178.544H0c44.405 126.449 117.83 130.742 148.991 117.082-81.799 0-111.987-78.055-116.856-117.082zm286.298 0h32.135c-44.405 126.449-117.829 130.742-148.991 117.082 81.799 0 111.987-78.055 116.856-117.082z" fill="#F9F4EF"/></svg>