<svg width="441" height="380" fill="none" xmlns="http://www.w3.org/2000/svg"><path d="M216.683 22.098c-173.347 170.894-94.264 292.19-33.053 331.476C39.662 335.895 45.295 154.689 66.107 66.295l66.107 29.465C155.474 63.84 204.932 0 216.683 0c11.752 0 66.108 63.84 91.817 95.76l66.107-29.465c38.195 235.716-64.883 289.734-121.197 287.279 152.781-94.287 39.174-260.27-36.727-331.476z" fill="#FDFAF8"/><path d="M40.399 224.658H0c55.824 159.108 148.129 164.51 187.303 147.322-102.833 0-140.783-98.215-146.904-147.322zm359.917 0h40.398c-55.823 159.108-148.129 164.51-187.303 147.322 102.833 0 140.784-98.215 146.905-147.322z" fill="#FDFAF8"/></svg>