<svg width="28" height="28" fill="none" xmlns="http://www.w3.org/2000/svg"><path fill-rule="evenodd" clip-rule="evenodd" d="M14 0c7.732 0 14 6.268 14 14s-6.268 14-14 14S0 21.732 0 14 6.268 0 14 0zm2.807 10.83c-.726-.693-1.648-1.046-2.676-1.046-1.823 0-3.366 1.231-3.917 2.886-.14.42-.22.869-.22 1.33 0 .461.08.91.22 1.33.55 1.655 2.094 2.886 3.917 2.886.942 0 1.744-.248 2.37-.668a3.22 3.22 0 001.397-2.113h-3.767v-2.708h6.593c.083.458.127.936.127 1.432 0 2.132-.764 3.926-2.087 5.145C17.606 20.374 16.02 21 14.13 21a6.997 6.997 0 01-6.255-10.144A6.997 6.997 0 0114.13 7c1.887 0 3.471.694 4.683 1.823l-2.007 2.008z" fill="#EEB663"/></svg>