<svg width="23" height="23" fill="none" xmlns="http://www.w3.org/2000/svg"><mask id="path-1-inside-1_2073_6475" fill="#fff"><path d="M11.2 8.515a2.687 2.687 0 100 5.373 2.687 2.687 0 000-5.373zM21.956 5.86a7.075 7.075 0 00-.455-2.449A4.333 4.333 0 0018.988.9 7.075 7.075 0 0016.54.444C15.143.368 14.731.368 11.2.368c-3.532 0-3.944 0-5.342.076A7.074 7.074 0 003.41.899 4.333 4.333 0 00.897 3.412a7.074 7.074 0 00-.455 2.449C.366 7.258.366 7.67.366 11.2c0 3.532 0 3.944.076 5.341.011.84.165 1.671.455 2.46a4.27 4.27 0 00.986 1.516c.431.436.952.772 1.527.986.783.295 1.612.45 2.448.455 1.398.076 1.81.076 5.341.076 3.532 0 3.944 0 5.341-.076a7.076 7.076 0 002.448-.455 4.215 4.215 0 001.528-.986c.433-.43.77-.946.986-1.517a7.145 7.145 0 00.455-2.459c.076-1.397.076-1.809.076-5.34 0-3.532 0-3.944-.076-5.341zm-2.752 8.666a6.204 6.204 0 01-.422 1.95 4.181 4.181 0 01-2.308 2.308 6.206 6.206 0 01-1.96.379H7.883a6.207 6.207 0 01-1.96-.38 3.802 3.802 0 01-1.42-.93 3.803 3.803 0 01-.888-1.377 5.947 5.947 0 01-.368-1.96v-6.63c.011-.67.136-1.332.368-1.96a3.8 3.8 0 01.932-1.42 3.89 3.89 0 011.375-.888 6.207 6.207 0 011.961-.379h6.63a6.2 6.2 0 011.961.38 3.812 3.812 0 011.42.93c.392.39.695.859.888 1.377.231.629.36 1.29.379 1.96v3.315c0 2.232.076 2.46.043 3.316v.01zm-1.733-8.06a2.579 2.579 0 00-1.528-1.527A4.333 4.333 0 0014.45 4.7h-6.5c-.51.005-1.017.1-1.495.282a2.578 2.578 0 00-1.527 1.474A4.626 4.626 0 004.7 7.951v6.5c.011.51.106 1.015.282 1.495a2.578 2.578 0 001.527 1.527c.463.17.95.265 1.441.282h6.5a4.334 4.334 0 001.495-.282 2.579 2.579 0 001.528-1.527c.181-.478.276-.984.281-1.495v-6.5c0-.512-.095-1.02-.281-1.495v.01zm-6.273 8.873A4.128 4.128 0 017.072 11.2a4.138 4.138 0 114.127 4.139zm4.334-7.464a.975.975 0 010-1.94.975.975 0 010 1.94z"/></mask><path d="M11.2 8.515a2.687 2.687 0 100 5.373 2.687 2.687 0 000-5.373v0zM21.956 5.86a7.075 7.075 0 00-.455-2.449A4.333 4.333 0 0018.988.9 7.075 7.075 0 0016.54.444C15.143.368 14.731.368 11.2.368c-3.532 0-3.944 0-5.342.076A7.074 7.074 0 003.41.899 4.333 4.333 0 00.897 3.412a7.074 7.074 0 00-.455 2.449C.366 7.258.366 7.67.366 11.2c0 3.532 0 3.944.076 5.341.011.84.165 1.671.455 2.46a4.27 4.27 0 00.986 1.516c.431.436.952.772 1.527.986.783.295 1.612.45 2.448.455 1.398.076 1.81.076 5.341.076 3.532 0 3.944 0 5.341-.076a7.076 7.076 0 002.448-.455 4.215 4.215 0 001.528-.986c.433-.43.77-.946.986-1.517a7.145 7.145 0 00.455-2.459c.076-1.397.076-1.809.076-5.34 0-3.532 0-3.944-.076-5.341v0zm-2.752 8.666a6.204 6.204 0 01-.422 1.95 4.181 4.181 0 01-2.308 2.308 6.206 6.206 0 01-1.96.379H7.883a6.207 6.207 0 01-1.96-.38 3.802 3.802 0 01-1.42-.93 3.803 3.803 0 01-.888-1.377 5.947 5.947 0 01-.368-1.96v-6.63c.011-.67.136-1.332.368-1.96a3.8 3.8 0 01.932-1.42 3.89 3.89 0 011.375-.888 6.207 6.207 0 011.961-.379v0h6.63a6.2 6.2 0 011.961.38 3.812 3.812 0 011.42.93c.392.39.695.859.888 1.377.231.629.36 1.29.379 1.96v3.315c0 2.232.076 2.46.043 3.316v.01zm-1.733-8.06a2.579 2.579 0 00-1.528-1.527A4.333 4.333 0 0014.45 4.7h-6.5c-.51.005-1.017.1-1.495.282a2.578 2.578 0 00-1.527 1.474A4.626 4.626 0 004.7 7.951v6.5c.011.51.106 1.015.282 1.495a2.578 2.578 0 001.527 1.527c.463.17.95.265 1.441.282v0h6.5a4.334 4.334 0 001.495-.282 2.579 2.579 0 001.528-1.527c.181-.478.276-.984.281-1.495v-6.5c0-.512-.095-1.02-.281-1.495v.01zm-6.273 8.873A4.128 4.128 0 017.072 11.2v0a4.138 4.138 0 114.127 4.139v0zm4.334-7.464a.975.975 0 010-1.94v0a.975.975 0 010 1.94z" fill="#EEB663" stroke="#EEB663" stroke-width="2" mask="url(#path-1-inside-1_2073_6475)"/></svg>