<svg width="21" height="24" fill="none" xmlns="http://www.w3.org/2000/svg"><path d="M7.965 20.073c.67 0 1.33-.175 1.914-.508a3.927 3.927 0 001.373-1.316 3.949 3.949 0 00.597-1.808v-.011a.669.669 0 00.004-.055l.001-.023.003-.056c.009-.213.008-.427.008-.63V.512h2.985l.096.57c.133.792.495 1.915 1.45 3.015h0l.01.01c.38.414.809.78 1.276 1.09l.003.002c.163.107.332.206.505.296h0L7.965 12.7v-.5c-2.157 0-3.895 1.767-3.895 3.937 0 2.168 1.738 3.935 3.895 3.936zm0 0v-.5.5s0 0 0 0zM3.918 22.32l.015-.022.265-.377a7.692 7.692 0 01-.787-.633v.662c.157.13.319.253.486.37l.008.006.006-.006h.007zm0 0h.01m-.01 0l-.003.004.005.006m.01-.01h.48v.314a6.604 6.604 0 01-.49-.304m.01-.01l.345-.342-.01-.01-.024-.025a4.054 4.054 0 01-.039-.026l-.24.352-.035.051m.003 0h-.003m.003 0l-.01.01m.007-.01l-.007.01M15.39 7.89h.5v.33c-.195-.13-.469-.31-.5-.33zm0 0l-.258.429.003.001.026.018.084.055c.043.028.093.06.145.096V7.89zm-6.88 4.855c.17.028.337.068.5.122l.001-.523a3.85 3.85 0 00-.5-.105v.506zm12.44-3.057v-.5l-.036-.002a12.548 12.548 0 01-.464-.033v.502c.302.025.5.033.5.033zm0-3.515v-.502c-.12.013-.27.014-.442 0h-.058v.497c.187.015.355.017.5.005zm-7.785 14.539h0l.39.313-.39-.313zm1.272-2.119l.468.177-.466-.18-.001.002-.001.002zm-6.408 4.981l-.02-.5h0l.02.5zm-4.452-12.75c0-.002.002-.002.003-.004l.003-.002-.329-.377.323.382zm4.939-2.078V9.2c.145.01.29.024.435.042l.065-.495-.5-.001zm-6.942 9.917v-.08a3.855 3.855 0 01-.028-.077s0 0 0 0l-.038.013-.406.144-.028.01h.5v-.01zm.987 1.705l-.394.309.394-.308s0 0 0 0v-.001zM16.365 7.935l-.003-.002h-.002v-.001l-.27.42.276-.416h0l-.001-.001zm2.253.932s0 0 0 0 0 0 0 0l-.13.482.13-.482z" fill="#EEB663" stroke="#EEB663"/></svg>