<svg width="23" height="17" fill="none" xmlns="http://www.w3.org/2000/svg"><path d="M5.81.997a69.03 69.03 0 0110.78 0l2.427.19a2.452 2.452 0 012.228 2.04c.55 3.293.55 6.654 0 9.946a2.453 2.453 0 01-2.228 2.04s0 0 0 0l-2.427.19a69.03 69.03 0 01-10.78 0l-2.427-.19s0 0 0 0a2.452 2.452 0 01-2.228-2.04 30.175 30.175 0 010-9.946l-.492-.082.492.082a2.452 2.452 0 012.228-2.04l-.04-.499.04.499L5.81.997zm2.723 4.527v5.352c0 .641.7 1.038 1.25.708l4.46-2.676a.825.825 0 000-1.415l-4.46-2.676a.825.825 0 00-1.25.707z" fill="#EEB663" stroke="#EEB663"/></svg>