<svg width="24" height="24" fill="none" xmlns="http://www.w3.org/2000/svg"><path d="M11.703 5.616c.03-.905.279-2.237 1.146-3.113.804-.812 1.784-1.208 2.394-1.389a.347.347 0 01.45.353c-.04.866-.268 2.157-.856 2.85-.553.651-1.444 1.516-2.749 1.662a.348.348 0 01-.385-.363z" fill="#D8A88B"/><path d="M13.936 22.17c.627.24 1.26.482 1.834.482 1.226 0 4.797-2.83 4.926-5.768a.4.4 0 00-.216-.36c-.908-.508-2.392-1.773-2.443-3.615-.06-2.146 1.017-3.85 1.833-4.555.183-.159.246-.438.082-.617-.742-.81-2.234-1.925-3.596-1.898-.99.02-1.883.39-2.65.706-.587.243-1.1.455-1.526.455-.403 0-.887-.21-1.442-.453-.749-.325-1.626-.708-2.611-.708-1.824 0-5.428 1.513-5.428 7.352 0 3.095 3.196 9.544 5.892 9.461.582 0 1.204-.24 1.822-.48.608-.235 1.211-.47 1.767-.47.537 0 1.143.233 1.756.468z" fill="#D8A88B"/></svg>