<svg width="210" height="210" fill="none" xmlns="http://www.w3.org/2000/svg"><path fill-rule="evenodd" clip-rule="evenodd" d="M210 105.257l-10-.024v-.466l10-.024v.514zm-.271-7.857l-9.974.714-.034-.462 9.97-.762.038.51zm-.851-7.802l-9.893 1.454-.068-.456 9.886-1.502.075.504zm-1.433-7.724l-9.757 2.193-.102-.45 9.746-2.242.113.5zm-2.009-7.589a43.349 43.349 0 00-.15-.487l-9.549 2.968c.045.146.091.293.135.44l9.564-2.92zm-2.576-7.42l-9.316 3.633-.169-.43 9.298-3.679.187.476zm-3.125-7.202l-9.017 4.323-.201-.416 8.996-4.367.222.46zm-3.659-6.95l-8.668 4.987a70.282 70.282 0 00-.232-.4l8.644-5.03.256.443zm-4.168-6.654l-8.271 5.62-.132-.195-.129-.188 8.244-5.66c.096.14.193.281.288.422zm-4.653-6.327a79.676 79.676 0 00-.319-.4l-7.799 6.259c.096.12.193.24.289.362l7.829-6.221zm-5.11-5.962l-7.346 6.785a38.128 38.128 0 00-.315-.34l7.313-6.82.348.374zm-5.54-5.567l-6.821 7.313-.339-.315 6.786-7.346.374.348zm-5.937-5.14l-6.259 7.8-.362-.289 6.221-7.83.4.32zm-6.304-4.683l-5.66 8.244-.383-.261 5.621-8.271.422.288zm-6.635-4.2l-5.029 8.644a69.795 69.795 0 00-.4-.232l4.987-8.668.442.256zm-6.932-3.693l-4.367 8.996a72.955 72.955 0 00-.416-.2l4.323-9.018.46.222zm-7.186-3.16l-3.679 9.298-.43-.169 3.633-9.316.476.187zm-7.409-2.613l-2.968 9.55-.44-.136 2.921-9.564.487.15zm-7.577-2.046l-2.241 9.746-.451-.102 2.193-9.757.499.113zm-7.719-1.471l-1.502 9.887a89.555 89.555 0 00-.456-.069l1.454-9.893.504.075zM113.11.309l-.762 9.97a89.667 89.667 0 00-.462-.034L112.6.271l.51.038zM105.257 0a107.213 107.213 0 00-.514 0l.024 10h.466l.024-10zM97.4.27l.714 9.975-.462.035L96.89.309 97.4.27zm-7.802.852l1.454 9.893-.456.069-1.502-9.887.504-.075zm-7.724 1.433l-.499.113 2.241 9.746c.15-.034.3-.069.451-.102l-2.193-9.757zM66.865 7.14l-.476.187 3.679 9.298.43-.169-3.633-9.316zm-14.152 6.784l4.987 8.668-.4.232-5.03-8.644.443-.256zm-6.654 4.168l5.62 8.27-.383.262-5.66-8.244.422-.288zm-6.327 4.653l6.22 7.83-.361.288-6.259-7.8.4-.318zm-5.962 5.11l6.785 7.346-.34.315-6.82-7.313.374-.348zm-5.567 5.54l7.313 6.82-.315.34-7.346-6.785.348-.375zm-5.14 5.937l7.8 6.259c-.096.12-.193.24-.289.362l-7.83-6.221.32-.4zm-4.683 6.304l8.244 5.66-.261.383-8.271-5.62.288-.423zm-4.2 6.634l8.644 5.03-.232.4-8.668-4.987.256-.443zm-3.693 6.932l8.996 4.368-.2.416-9.018-4.323.222-.46zm-3.16 7.187l9.298 3.679a93.6 93.6 0 00-.169.43L7.14 66.865l.187-.476zm-2.613 7.409l9.55 2.968-.136.44-9.564-2.92.15-.488zm-2.046 7.577l9.746 2.241c-.034.15-.069.3-.102.451l-9.757-2.193.113-.499zm-1.471 7.719l9.887 1.502a86.22 86.22 0 00-.069.456l-9.893-1.454.075-.504zM.309 96.89l9.97.762-.034.462L.271 97.4l.038-.51zM0 104.743a107.213 107.213 0 000 .514l10-.024v-.466l-10-.024zm.27 7.857l9.975-.714.035.462-9.971.762-.038-.51zm.852 7.802l9.893-1.454.069.456-9.887 1.502-.075-.504zm1.433 7.724l9.757-2.193.102.451-9.746 2.241a113.31 113.31 0 01-.113-.499zm2.009 7.589l9.564-2.921c.044.147.09.294.135.44l-9.55 2.968-.15-.487zm2.576 7.42l9.316-3.633.17.43-9.3 3.679a82.683 82.683 0 01-.186-.476zm3.125 7.202l9.017-4.323.201.416-8.996 4.367a81.66 81.66 0 01-.222-.46zm3.66 6.95l8.667-4.987.232.4-8.644 5.03-.256-.443zm4.167 6.655l8.27-5.621.262.383-8.244 5.66-.288-.422zm4.653 6.326l7.83-6.221.158.199.13.163-7.8 6.259a79.86 79.86 0 01-.318-.4zm5.11 5.963l7.346-6.786.315.339-7.313 6.821a77.623 77.623 0 01-.348-.374zm5.54 5.566l6.82-7.313.34.315-6.785 7.346-.375-.348zm5.937 5.139l6.259-7.799c.12.096.24.193.362.289l-6.221 7.829a79.676 79.676 0 01-.4-.319zm6.304 4.684l5.66-8.244c.128.087.255.175.383.261l-5.62 8.271c-.142-.095-.282-.192-.423-.288zm6.634 4.2l5.03-8.644.4.232-4.987 8.668-.443-.256zm6.932 3.693l.461.222 4.323-9.017c-.07-.035-.142-.069-.213-.103a18.875 18.875 0 00-.203-.098l-4.367 8.996zm7.187 3.16l3.679-9.298.43.169-3.633 9.316a80.948 80.948 0 01-.476-.187zm7.409 2.613l2.968-9.549c.146.045.293.091.44.135l-2.92 9.564a43.349 43.349 0 01-.488-.15zm7.577 2.046l2.241-9.746.265.06.186.042-2.193 9.757a85.557 85.557 0 01-.499-.113zm7.719 1.471l1.502-9.886.235.035.22.033-1.453 9.893-.504-.075zm7.796.888l.762-9.97.462.034-.714 9.974-.51-.038zm7.853.309l.024-10h.466l.024 10h-.514zm7.857-.271l-.714-9.974.462-.034.762 9.97-.51.038zm7.802-.851l-1.454-9.893.31-.046.146-.022 1.502 9.886-.504.075zm7.724-1.433l-2.193-9.757.238-.053.213-.049 2.241 9.746-.499.113zm7.589-2.009c.162-.049.325-.099.487-.15l-2.968-9.549-.111.034-.329.101 2.921 9.564zm7.42-2.576l-3.633-9.316.43-.169 3.679 9.298-.476.187zm7.202-3.125l-4.323-9.017.416-.201 4.367 8.996-.46.222zm6.95-3.659l-4.987-8.668.4-.232 5.03 8.644-.443.256zm6.655-4.168l-5.621-8.271c.128-.086.255-.174.383-.261l5.66 8.244c-.141.096-.281.193-.422.288zm6.326-4.653l.4-.319-6.259-7.799-.362.289 6.221 7.829zm5.963-5.11l-6.786-7.346.339-.315 6.821 7.313-.374.348zm5.566-5.54l-7.313-6.821.315-.339 7.346 6.786-.348.374zm5.139-5.937l.319-.4-7.829-6.221-.289.362 7.799 6.259zm4.684-6.304l-8.244-5.66c.087-.128.175-.255.261-.383l8.271 5.621c-.095.141-.192.281-.288.422zm4.2-6.635l-8.644-5.029.232-.4 8.668 4.987-.256.442zm3.693-6.932l-8.996-4.367.201-.416 9.017 4.323-.222.46zm3.16-7.186l-9.298-3.679.169-.43 9.316 3.633-.187.476zm2.613-7.409l-9.549-2.968.075-.244.06-.196 9.564 2.921c-.049.162-.099.325-.15.487zm2.046-7.577l-9.746-2.241.102-.451 9.757 2.193-.113.499zm1.471-7.719l-9.886-1.502.068-.456 9.893 1.454-.075.504zm.888-7.796l-9.97-.762.034-.462 9.974.714-.038.51zM59.203 10.487l4.367 8.996.416-.2-4.323-9.018-.46.222zm14.595-5.773l2.968 9.55.44-.136-2.92-9.564-.488.15z" fill="#5D5B5C"/><circle cx="105" cy="105" r="100" stroke="#D8A88B" stroke-width="10" stroke-dasharray="0.5 120"/><path opacity=".4" d="M97.058 31.04c1.464 0 2.616.588 3.456 1.764.852 1.164 1.278 2.718 1.278 4.662 0 2.04-.408 3.672-1.224 4.896-.816 1.212-1.998 1.818-3.546 1.818-1.248 0-2.232-.312-2.952-.936-.72-.624-1.08-1.26-1.08-1.908 0-.252.078-.45.234-.594a.842.842 0 01.594-.216c.216 0 .402.102.558.306.156.192.294.432.414.72s.258.576.414.864c.168.288.414.534.738.738.324.192.72.288 1.188.288 1.056 0 1.83-.528 2.322-1.584s.738-2.466.738-4.23c-.636 1.104-1.758 1.656-3.366 1.656-1.2 0-2.184-.384-2.952-1.152-.756-.768-1.134-1.8-1.134-3.096 0-1.116.402-2.058 1.206-2.826.816-.78 1.854-1.17 3.114-1.17zm.234 7.506c.828 0 1.494-.252 1.998-.756.516-.516.774-1.158.774-1.926-.168-1.224-.528-2.208-1.08-2.952-.552-.756-1.266-1.134-2.142-1.134-.756 0-1.368.276-1.836.828-.468.54-.702 1.254-.702 2.142 0 1.032.276 1.926.828 2.682.552.744 1.272 1.116 2.16 1.116zm12.418 5.634c-1.536 0-2.796-.6-3.78-1.8-.984-1.212-1.476-2.826-1.476-4.842 0-2.016.45-3.6 1.35-4.752.912-1.164 2.172-1.746 3.78-1.746 1.488 0 2.718.612 3.69 1.836.972 1.224 1.458 2.808 1.458 4.752 0 2.016-.468 3.612-1.404 4.788-.936 1.176-2.142 1.764-3.618 1.764zm.234-.72c.936 0 1.698-.456 2.286-1.368.6-.924.9-2.172.9-3.744 0-1.836-.366-3.39-1.098-4.662-.72-1.272-1.632-1.908-2.736-1.908-.96 0-1.74.462-2.34 1.386-.6.924-.9 2.184-.9 3.78 0 1.872.36 3.426 1.08 4.662.732 1.236 1.668 1.854 2.808 1.854z" fill="#D8A88B"/></svg>