<svg width="547" height="553" fill="none" xmlns="http://www.w3.org/2000/svg"><path opacity=".4" d="M446.361 245.521c8.892-68.709-80.599-144.607-169.597-150.819-67.758-4.729-81.71 70.964-135.725 77.135-54.015 6.171-57.01 160.316-18.944 203.538 27.78 31.542 103.226-.93 119.688 56.664 16.461 57.594 144.438 10.146 185.078-50.534 40.639-60.679 9.61-59.564 19.5-135.984z" stroke="url(#paint0_linear_2912_117)"/><path opacity=".5" d="M426.232 146.586c-30.595-73.472-164.224-91.563-256.551-46.497-70.291 34.31-47.153 94.869-83.078 149.005-34.618 52.165 35.219 192.308 98.008 213.387 45.821 15.382 95.222-60.369 144.718-12.553 49.497 47.816 127.694-80.831 133.374-164.595 5.68-83.764-2.443-57.03-36.471-138.747z" stroke="url(#paint1_linear_2912_117)"/><path opacity=".2" d="M393.644 174.725c-23.746-56.981-126.633-75.667-198.094-40.8-54.406 26.545-31.453 91.171-70.395 120.003-38.943 28.832 27.417 149.111 76.055 165.499 35.494 11.96 79.26-46.718 117.625-9.612 38.364 37.106 116.004-56.536 120.339-121.469 4.335-64.933-19.118-50.245-45.53-113.621z" stroke="url(#paint2_linear_2912_117)"/><defs><linearGradient id="paint0_linear_2912_117" x1="272.514" y1="94.49" x2="272.514" y2="458.069" gradientUnits="userSpaceOnUse"><stop stop-color="#F0C6AC"/><stop offset="1" stop-color="#AB836A"/></linearGradient><linearGradient id="paint1_linear_2912_117" x1="166.108" y1="96.444" x2="374.928" y2="458.131" gradientUnits="userSpaceOnUse"><stop stop-color="#F0C6AC"/><stop offset="1" stop-color="#AB836A"/></linearGradient><linearGradient id="paint2_linear_2912_117" x1="192.175" y1="135.655" x2="354.151" y2="416.206" gradientUnits="userSpaceOnUse"><stop stop-color="#F0C6AC"/><stop offset="1" stop-color="#AB836A"/></linearGradient></defs></svg>