<svg width="120" height="158" fill="none" xmlns="http://www.w3.org/2000/svg"><path d="M12.471 135.976c0 1.932 4.74.396 4.74 3.792 0 1.404-1.296 2.304-3.204 2.304-2.004 0-3.192-.9-3.192-2.508l1.464.012c0 .804.624 1.26 1.8 1.26 1.056 0 1.668-.384 1.668-1.068 0-2.016-4.74-.48-4.74-3.756-.012-1.392 1.224-2.328 3.06-2.328 1.872 0 3.024.924 3.024 2.472h-1.464c0-.84-.588-1.236-1.584-1.236-1.08 0-1.572.384-1.572 1.056zm9.472 4.812c1.416 0 2.016-.804 2.16-1.788h1.452c-.192 1.752-1.308 3.072-3.648 3.072-2.22 0-3.804-1.62-3.804-4.188 0-2.532 1.608-4.2 3.804-4.2 2.304 0 3.468 1.32 3.648 3.096h-1.452c-.144-.996-.78-1.812-2.16-1.812-1.332 0-2.364 1.116-2.364 2.916.012 1.836 1.02 2.904 2.364 2.904zM32.028 142l-.636-1.872H27.96L27.324 142h-1.476l2.976-8.232h1.704L33.504 142h-1.476zm-3.648-3.072h2.592l-1.296-3.792-1.296 3.792zm11.428-5.16h1.44V142h-1.404l-3.936-6v6h-1.44v-8.232h1.404l3.936 6.024v-6.024zm14.374 0h1.464L53.33 142h-1.632l-1.632-6.492-1.62 6.492h-1.644l-2.316-8.232h1.464l1.692 6.792 1.656-6.792h1.548l1.656 6.768 1.68-6.768zM56.666 142v-8.232h1.465V142h-1.465zm5.09 0v-6.972h-2.628v-1.26h6.732v1.26h-2.64V142h-1.464zm10.428-8.232h1.464V142h-1.464v-3.576H68.32V142h-1.464v-8.232h1.464v3.372h3.864v-3.372zm11.737 0l-2.892 5.004V142h-1.476v-3.228l-2.892-5.004h1.584l2.052 3.684 2.052-3.684h1.572zm4.058 8.304c-2.316 0-4.068-1.572-4.068-4.164 0-2.592 1.752-4.224 4.068-4.224s4.068 1.584 4.068 4.176-1.752 4.212-4.068 4.212zm0-1.272c1.428 0 2.58-1.092 2.58-2.916 0-1.836-1.152-2.916-2.58-2.916-1.428 0-2.58 1.08-2.58 2.916 0 1.824 1.152 2.916 2.58 2.916zm10.604-7.032h1.464v4.98c0 2.076-1.296 3.324-3.36 3.324-2.136 0-3.372-1.248-3.372-3.324v-4.98h1.464v4.98c0 1.356.684 2.052 1.908 2.052 1.212 0 1.896-.696 1.896-2.052v-4.98zm9.828 7.008l.084 1.176c-.204.06-.468.108-.792.108-1.152 0-1.596-.54-2.016-1.332l-.972-1.836h-1.44V142h-1.464v-8.232h3.192c1.752 0 2.892.912 2.892 2.58 0 1.176-.624 1.968-1.596 2.328l.84 1.62c.216.432.492.54.792.54.204 0 .36-.024.48-.06zm-5.136-5.784v2.736h1.728c.924 0 1.404-.564 1.404-1.368 0-.804-.48-1.368-1.404-1.368h-1.728zm-63.186 12.22c0 .552-.42.936-.96.936s-.96-.384-.96-.936c0-.528.42-.924.96-.924s.96.396.96.924zM38.385 155v-5.88h1.464V155h-1.464zm6.395-8.232c1.74 0 2.88.888 2.88 2.532 0 1.632-1.14 2.568-2.88 2.568h-1.824V155h-1.464v-8.232h3.288zm0 3.876c.912 0 1.392-.564 1.392-1.332 0-.756-.48-1.32-1.392-1.32h-1.824v2.652h1.824zm9.373-3.876h1.464V155h-1.464v-3.576H50.29V155h-1.464v-8.232h1.464v3.372h3.864v-3.372zm6.906 8.304c-2.316 0-4.068-1.572-4.068-4.164 0-2.592 1.752-4.224 4.068-4.224s4.068 1.584 4.068 4.176-1.752 4.212-4.068 4.212zm0-1.272c1.428 0 2.58-1.092 2.58-2.916 0-1.836-1.152-2.916-2.58-2.916-1.428 0-2.58 1.08-2.58 2.916 0 1.824 1.152 2.916 2.58 2.916zm10.773-7.032h1.44V155h-1.404l-3.936-6v6h-1.44v-8.232h1.403l3.937 6.024v-6.024zm4.746 6.984h4.26V155h-5.724v-8.232h5.652v1.248h-4.188v2.148h3.756v1.224h-3.756v2.364z" fill="#C8C4C2"/><rect x="4.898" y="4.898" width="110.204" height="110.204" rx="10" fill="#D8A88B"/><rect x=".5" y=".5" width="119" height="119" rx="12.5" stroke="#D8A88B"/><path d="M45.154 18.182a1.484 1.484 0 110 2.968 1.484 1.484 0 010-2.968zm8.906 0a1.484 1.484 0 110 2.968 1.484 1.484 0 010-2.968z" fill="#000"/><path d="M57.031 18.182a1.484 1.484 0 110 2.968 1.484 1.484 0 010-2.968z" fill="#000"/><path d="M59.997 18.182a1.484 1.484 0 110 2.968 1.484 1.484 0 010-2.968zm5.94 0a1.484 1.484 0 110 2.968 1.484 1.484 0 010-2.968z" fill="#000"/><path d="M68.903 18.182a1.484 1.484 0 110 2.968 1.484 1.484 0 010-2.968zm5.941 0a1.484 1.484 0 110 2.968 1.484 1.484 0 010-2.968z" fill="#000"/><path d="M77.81 18.182a1.484 1.484 0 110 2.968 1.484 1.484 0 010-2.968zM42.189 21.15a1.484 1.484 0 110 2.968 1.484 1.484 0 010-2.968z" fill="#000"/><path d="M45.154 21.15a1.484 1.484 0 110 2.968 1.484 1.484 0 010-2.968z" fill="#000"/><path d="M48.125 21.15a1.484 1.484 0 110 2.968 1.484 1.484 0 010-2.968z" fill="#000"/><path d="M51.095 21.15a1.484 1.484 0 110 2.968 1.484 1.484 0 010-2.968zm5.936 0a1.484 1.484 0 110 2.968 1.484 1.484 0 010-2.968zm8.906 0a1.484 1.484 0 110 2.968 1.484 1.484 0 010-2.968zm11.873 0a1.484 1.484 0 110 2.968 1.484 1.484 0 010-2.968zm-35.621 2.97a1.484 1.484 0 110 2.968 1.484 1.484 0 010-2.969z" fill="#000"/><path d="M45.154 24.12a1.484 1.484 0 110 2.968 1.484 1.484 0 010-2.969z" fill="#000"/><path d="M48.125 24.119a1.484 1.484 0 110 2.968 1.484 1.484 0 010-2.968z" fill="#000"/><path d="M51.095 24.12a1.484 1.484 0 110 2.968 1.484 1.484 0 010-2.969z" fill="#000"/><path d="M54.06 24.12a1.484 1.484 0 110 2.968 1.484 1.484 0 010-2.969z" fill="#000"/><path d="M57.031 24.12a1.484 1.484 0 110 2.968 1.484 1.484 0 010-2.969z" fill="#000"/><path d="M59.997 24.12a1.484 1.484 0 110 2.968 1.484 1.484 0 010-2.969z" fill="#000"/><path d="M62.967 24.12a1.484 1.484 0 110 2.968 1.484 1.484 0 010-2.969z" fill="#000"/><path d="M65.937 24.12a1.484 1.484 0 110 2.968 1.484 1.484 0 010-2.969z" fill="#000"/><path d="M68.903 24.12a1.484 1.484 0 110 2.968 1.484 1.484 0 010-2.969z" fill="#000"/><path d="M71.873 24.12a1.484 1.484 0 110 2.968 1.484 1.484 0 010-2.969z" fill="#000"/><path d="M74.844 24.12a1.484 1.484 0 110 2.968 1.484 1.484 0 010-2.969z" fill="#000"/><path d="M77.81 24.12a1.484 1.484 0 11-.001 2.968 1.484 1.484 0 010-2.969zm-35.621 2.967a1.484 1.484 0 110 2.968 1.484 1.484 0 010-2.968z" fill="#000"/><path d="M45.154 27.087a1.484 1.484 0 110 2.969 1.484 1.484 0 010-2.969z" fill="#000"/><path d="M48.125 27.087a1.484 1.484 0 110 2.969 1.484 1.484 0 010-2.969z" fill="#000"/><path d="M51.095 27.087a1.484 1.484 0 110 2.969 1.484 1.484 0 010-2.969z" fill="#000"/><path d="M54.06 27.087a1.484 1.484 0 110 2.969 1.484 1.484 0 010-2.969zm8.907 0a1.484 1.484 0 110 2.969 1.484 1.484 0 010-2.969zm5.936 0a1.484 1.484 0 110 2.969 1.484 1.484 0 010-2.969z" fill="#000"/><path d="M71.873 27.087a1.484 1.484 0 110 2.969 1.484 1.484 0 010-2.969zm5.937 0a1.484 1.484 0 11-.001 2.969 1.484 1.484 0 010-2.969zm-35.621 2.969a1.484 1.484 0 110 2.968 1.484 1.484 0 010-2.968zm5.936 0a1.484 1.484 0 110 2.969 1.484 1.484 0 010-2.969zm5.935 0a1.484 1.484 0 110 2.969 1.484 1.484 0 010-2.969z" fill="#000"/><path d="M57.031 30.056a1.484 1.484 0 110 2.968 1.484 1.484 0 010-2.968z" fill="#000"/><path d="M60.001 30.056a1.484 1.484 0 110 2.968 1.484 1.484 0 010-2.968z" fill="#000"/><path d="M62.967 30.056a1.484 1.484 0 110 2.969 1.484 1.484 0 010-2.969z" fill="#000"/><path d="M65.937 30.056a1.484 1.484 0 110 2.969 1.484 1.484 0 010-2.969zm-23.748 2.968a1.484 1.484 0 110 2.968 1.484 1.484 0 010-2.968zm5.936 0a1.484 1.484 0 110 2.969 1.484 1.484 0 010-2.969z" fill="#000"/><path d="M51.095 33.024a1.484 1.484 0 110 2.969 1.484 1.484 0 010-2.969z" fill="#000"/><path d="M54.06 33.024a1.484 1.484 0 110 2.969 1.484 1.484 0 010-2.969zm11.877 0a1.484 1.484 0 110 2.969 1.484 1.484 0 010-2.969z" fill="#000"/><path d="M68.903 33.024a1.484 1.484 0 110 2.969 1.484 1.484 0 010-2.969z" fill="#000"/><path d="M71.873 33.024a1.484 1.484 0 110 2.969 1.484 1.484 0 010-2.969zm5.937 0a1.484 1.484 0 110 2.969 1.484 1.484 0 010-2.969zm-35.621 2.969a1.484 1.484 0 110 2.969 1.484 1.484 0 010-2.969zm5.936 0a1.484 1.484 0 110 2.969 1.484 1.484 0 010-2.969zm5.935 0a1.484 1.484 0 110 2.969 1.484 1.484 0 010-2.969zm5.941 0a1.484 1.484 0 110 2.969 1.484 1.484 0 010-2.969zm5.936 0a1.484 1.484 0 110 2.969 1.484 1.484 0 010-2.969zm5.936 0a1.484 1.484 0 110 2.969 1.484 1.484 0 010-2.969zm5.937 0a1.484 1.484 0 110 2.969 1.484 1.484 0 010-2.969z" fill="#000"/><path d="M65.937 38.961a1.484 1.484 0 110 2.969 1.484 1.484 0 010-2.969z" fill="#000"/><path d="M68.903 38.961a1.484 1.484 0 110 2.969 1.484 1.484 0 010-2.969zm8.907 0a1.484 1.484 0 110 2.969 1.484 1.484 0 010-2.969zM24.376 41.93a1.484 1.484 0 110 2.967 1.484 1.484 0 010-2.968zm8.907 0a1.484 1.484 0 110 2.968 1.484 1.484 0 010-2.969z" fill="#000"/><path d="M36.253 41.93a1.484 1.484 0 110 2.968 1.484 1.484 0 010-2.969z" fill="#000"/><path d="M39.219 41.93a1.484 1.484 0 110 2.967 1.484 1.484 0 010-2.968z" fill="#000"/><path d="M42.189 41.93a1.484 1.484 0 110 2.967 1.484 1.484 0 010-2.968z" fill="#000"/><path d="M45.154 41.93a1.484 1.484 0 110 2.968 1.484 1.484 0 010-2.969zm8.906 0a1.484 1.484 0 110 2.968 1.484 1.484 0 010-2.969zm5.941 0a1.484 1.484 0 110 2.967 1.484 1.484 0 010-2.968zm5.936 0a1.484 1.484 0 110 2.968 1.484 1.484 0 010-2.969z" fill="#000"/><path d="M68.903 41.93a1.484 1.484 0 110 2.968 1.484 1.484 0 010-2.969zm8.907 0a1.484 1.484 0 110 2.968 1.484 1.484 0 010-2.969z" fill="#000"/><path d="M80.78 41.93a1.484 1.484 0 110 2.968 1.484 1.484 0 010-2.969zm5.935 0a1.484 1.484 0 110 2.968 1.484 1.484 0 010-2.969z" fill="#000"/><path d="M89.686 41.93a1.484 1.484 0 110 2.968 1.484 1.484 0 010-2.969z" fill="#000"/><path d="M92.651 41.93a1.484 1.484 0 110 2.968 1.484 1.484 0 010-2.969z" fill="#000"/><path d="M95.622 41.93a1.484 1.484 0 110 2.968 1.484 1.484 0 010-2.969z" fill="#000"/><path d="M98.587 41.93a1.484 1.484 0 110 2.967 1.484 1.484 0 010-2.968zM18.44 44.898a1.484 1.484 0 110 2.969 1.484 1.484 0 010-2.969zm8.907 0a1.484 1.484 0 110 2.969 1.484 1.484 0 010-2.969z" fill="#000"/><path d="M30.317 44.898a1.484 1.484 0 110 2.969 1.484 1.484 0 010-2.969z" fill="#000"/><path d="M33.283 44.898a1.484 1.484 0 110 2.968 1.484 1.484 0 010-2.968zm5.936 0a1.484 1.484 0 110 2.969 1.484 1.484 0 010-2.969zm5.935 0a1.484 1.484 0 110 2.969 1.484 1.484 0 010-2.969zm8.906 0a1.484 1.484 0 110 2.969 1.484 1.484 0 010-2.969z" fill="#000"/><path d="M57.031 44.898a1.484 1.484 0 110 2.969 1.484 1.484 0 010-2.969zm8.906 0a1.484 1.484 0 110 2.969 1.484 1.484 0 010-2.969z" fill="#000"/><path d="M68.903 44.898a1.484 1.484 0 110 2.969 1.484 1.484 0 010-2.969zm8.907 0a1.484 1.484 0 110 2.969 1.484 1.484 0 010-2.969zm5.935 0a1.484 1.484 0 110 2.969 1.484 1.484 0 010-2.969z" fill="#000"/><path d="M86.715 44.898a1.484 1.484 0 110 2.969 1.484 1.484 0 010-2.969zm5.936 0a1.484 1.484 0 110 2.969 1.484 1.484 0 010-2.969zm5.936 0a1.484 1.484 0 110 2.968 1.484 1.484 0 010-2.968z" fill="#000"/><path d="M101.557 44.898a1.485 1.485 0 110 2.97 1.485 1.485 0 010-2.97zM18.44 47.867a1.484 1.484 0 110 2.968 1.484 1.484 0 010-2.968z" fill="#000"/><path d="M21.411 47.866a1.484 1.484 0 110 2.969 1.484 1.484 0 010-2.969zm14.842 0a1.484 1.484 0 110 2.969 1.484 1.484 0 010-2.969zm41.557 0a1.484 1.484 0 11-.001 2.969 1.484 1.484 0 010-2.969z" fill="#000"/><path d="M80.78 47.866a1.484 1.484 0 110 2.969 1.484 1.484 0 010-2.969zm8.906 0a1.484 1.484 0 110 2.969 1.484 1.484 0 010-2.969z" fill="#000"/><path d="M92.651 47.866a1.484 1.484 0 110 2.969 1.484 1.484 0 010-2.969zm8.906.001a1.485 1.485 0 110 2.969 1.485 1.485 0 010-2.97zm-80.146 2.968a1.484 1.484 0 110 2.969 1.484 1.484 0 010-2.969zm8.906 0a1.484 1.484 0 110 2.969 1.484 1.484 0 010-2.969zm8.902 0a1.484 1.484 0 110 2.969 1.484 1.484 0 010-2.969z" fill="#000"/><path d="M42.189 50.835a1.484 1.484 0 110 2.969 1.484 1.484 0 010-2.969z" fill="#000"/><path d="M45.154 50.835a1.484 1.484 0 110 2.969 1.484 1.484 0 010-2.969zm29.685 0a1.484 1.484 0 110 2.969 1.484 1.484 0 010-2.969z" fill="#000"/><path d="M77.81 50.835a1.484 1.484 0 11-.001 2.969 1.484 1.484 0 010-2.969zm5.935 0a1.484 1.484 0 110 2.969 1.484 1.484 0 010-2.969z" fill="#000"/><path d="M86.715 50.835a1.484 1.484 0 110 2.969 1.484 1.484 0 010-2.969zm5.936 0a1.484 1.484 0 110 2.969 1.484 1.484 0 010-2.969zm-68.275 2.968a1.484 1.484 0 110 2.969 1.484 1.484 0 010-2.968zm5.941 0a1.484 1.484 0 110 2.969 1.484 1.484 0 010-2.968zm5.936 0a1.484 1.484 0 110 2.969 1.484 1.484 0 010-2.968zm41.557 0a1.484 1.484 0 110 2.969 1.484 1.484 0 010-2.968z" fill="#000"/><path d="M80.78 53.803a1.484 1.484 0 110 2.969 1.484 1.484 0 010-2.968z" fill="#000"/><path d="M83.745 53.803a1.484 1.484 0 110 2.969 1.484 1.484 0 010-2.968zm14.842 0a1.484 1.484 0 110 2.968 1.484 1.484 0 010-2.968zm-80.147 2.97a1.484 1.484 0 110 2.968 1.484 1.484 0 010-2.968zm8.907 0a1.484 1.484 0 110 2.968 1.484 1.484 0 010-2.968zm14.842 0a1.484 1.484 0 110 2.968 1.484 1.484 0 010-2.968zm32.65 0a1.484 1.484 0 110 2.968 1.484 1.484 0 010-2.968z" fill="#000"/><path d="M77.81 56.773a1.484 1.484 0 110 2.968 1.484 1.484 0 010-2.968zm5.935 0a1.484 1.484 0 110 2.968 1.484 1.484 0 010-2.968zm8.906 0a1.484 1.484 0 110 2.968 1.484 1.484 0 010-2.968zm5.936 0a1.484 1.484 0 110 2.967 1.484 1.484 0 010-2.967z" fill="#000"/><path d="M101.557 56.773a1.485 1.485 0 110 2.969 1.485 1.485 0 010-2.97zM21.411 59.74a1.484 1.484 0 110 2.969 1.484 1.484 0 010-2.969z" fill="#000"/><path d="M24.376 59.74a1.484 1.484 0 110 2.969 1.484 1.484 0 010-2.969z" fill="#000"/><path d="M27.347 59.74a1.484 1.484 0 110 2.969 1.484 1.484 0 010-2.969zm5.936 0a1.484 1.484 0 110 2.969 1.484 1.484 0 010-2.969z" fill="#000"/><path d="M36.253 59.74a1.484 1.484 0 110 2.969 1.484 1.484 0 010-2.969zm5.936 0a1.484 1.484 0 110 2.969 1.484 1.484 0 010-2.969z" fill="#000"/><path d="M45.154 59.74a1.484 1.484 0 110 2.969 1.484 1.484 0 010-2.969zm29.69 0a1.484 1.484 0 110 2.969 1.484 1.484 0 010-2.969zm5.936 0a1.484 1.484 0 110 2.969 1.484 1.484 0 010-2.969z" fill="#000"/><path d="M83.745 59.74a1.484 1.484 0 110 2.969 1.484 1.484 0 010-2.969zm8.906 0a1.484 1.484 0 110 2.969 1.484 1.484 0 010-2.969z" fill="#000"/><path d="M95.622 59.74a1.484 1.484 0 110 2.969 1.484 1.484 0 010-2.969zm5.935 0a1.485 1.485 0 110 2.97 1.485 1.485 0 010-2.97zm-80.146 2.969a1.484 1.484 0 110 2.968 1.484 1.484 0 010-2.969z" fill="#000"/><path d="M24.376 62.709a1.484 1.484 0 110 2.968 1.484 1.484 0 010-2.969zm56.404 0a1.484 1.484 0 110 2.968 1.484 1.484 0 010-2.969z" fill="#000"/><path d="M83.745 62.709a1.484 1.484 0 110 2.968 1.484 1.484 0 010-2.969zm8.906 0a1.484 1.484 0 110 2.968 1.484 1.484 0 010-2.969zm5.936 0a1.484 1.484 0 110 2.967 1.484 1.484 0 010-2.968z" fill="#000"/><path d="M101.557 62.709a1.485 1.485 0 110 2.969 1.485 1.485 0 010-2.97zM18.44 65.677a1.484 1.484 0 110 2.969 1.484 1.484 0 010-2.969z" fill="#000"/><path d="M21.411 65.678a1.484 1.484 0 110 2.968 1.484 1.484 0 010-2.968zm14.842 0a1.484 1.484 0 110 2.968 1.484 1.484 0 010-2.968z" fill="#000"/><path d="M39.219 65.678a1.484 1.484 0 110 2.968 1.484 1.484 0 010-2.968z" fill="#000"/><path d="M42.189 65.678a1.484 1.484 0 110 2.968 1.484 1.484 0 010-2.968z" fill="#000"/><path d="M45.154 65.678a1.484 1.484 0 110 2.968 1.484 1.484 0 010-2.968zm32.656 0a1.484 1.484 0 110 2.968 1.484 1.484 0 010-2.968zm5.935 0a1.484 1.484 0 110 2.968 1.484 1.484 0 010-2.968z" fill="#000"/><path d="M86.715 65.677a1.484 1.484 0 110 2.969 1.484 1.484 0 010-2.969zm-65.304 2.969a1.484 1.484 0 110 2.968 1.484 1.484 0 010-2.968zm62.334 0a1.484 1.484 0 110 2.968 1.484 1.484 0 010-2.968z" fill="#000"/><path d="M86.715 68.646a1.484 1.484 0 110 2.968 1.484 1.484 0 010-2.968zm14.842 0a1.485 1.485 0 110 2.97 1.485 1.485 0 010-2.97zM18.44 71.615a1.484 1.484 0 110 2.968 1.484 1.484 0 010-2.968z" fill="#000"/><path d="M21.411 71.615a1.484 1.484 0 110 2.968 1.484 1.484 0 010-2.968z" fill="#000"/><path d="M24.376 71.615a1.484 1.484 0 110 2.968 1.484 1.484 0 010-2.968z" fill="#000"/><path d="M27.347 71.615a1.484 1.484 0 110 2.968 1.484 1.484 0 010-2.968zm8.906 0a1.484 1.484 0 110 2.968 1.484 1.484 0 010-2.968zm5.936 0a1.484 1.484 0 110 2.968 1.484 1.484 0 010-2.968zm32.65 0a1.484 1.484 0 110 2.968 1.484 1.484 0 010-2.968zm11.876 0a1.484 1.484 0 110 2.968 1.484 1.484 0 010-2.968z" fill="#000"/><path d="M89.686 71.615a1.484 1.484 0 110 2.968 1.484 1.484 0 010-2.968zm11.871 0a1.485 1.485 0 110 2.97 1.485 1.485 0 010-2.97zm-71.24 2.968a1.484 1.484 0 110 2.968 1.484 1.484 0 010-2.968z" fill="#000"/><path d="M33.283 74.583a1.484 1.484 0 110 2.968 1.484 1.484 0 010-2.968zm8.906 0a1.484 1.484 0 110 2.968 1.484 1.484 0 010-2.968z" fill="#000"/><path d="M45.154 74.583a1.484 1.484 0 110 2.968 1.484 1.484 0 010-2.968zm8.906 0a1.484 1.484 0 110 2.968 1.484 1.484 0 010-2.968z" fill="#000"/><path d="M57.031 74.583a1.484 1.484 0 110 2.968 1.484 1.484 0 010-2.968zm5.936 0a1.484 1.484 0 110 2.968 1.484 1.484 0 010-2.968zm11.877 0a1.484 1.484 0 110 2.968 1.484 1.484 0 010-2.968z" fill="#000"/><path d="M77.81 74.583a1.484 1.484 0 11-.001 2.968 1.484 1.484 0 010-2.968z" fill="#000"/><path d="M80.78 74.583a1.484 1.484 0 110 2.968 1.484 1.484 0 010-2.968z" fill="#000"/><path d="M83.745 74.583a1.484 1.484 0 110 2.968 1.484 1.484 0 010-2.968z" fill="#000"/><path d="M86.715 74.583a1.484 1.484 0 110 2.968 1.484 1.484 0 010-2.968zm11.872 0a1.484 1.484 0 110 2.967 1.484 1.484 0 010-2.967zM18.44 77.55a1.484 1.484 0 110 2.97 1.484 1.484 0 010-2.97z" fill="#000"/><path d="M21.411 77.55a1.484 1.484 0 110 2.97 1.484 1.484 0 010-2.97z" fill="#000"/><path d="M24.376 77.55a1.484 1.484 0 110 2.969 1.484 1.484 0 010-2.968zm5.941 0a1.484 1.484 0 110 2.97 1.484 1.484 0 010-2.97zm5.936 0a1.484 1.484 0 110 2.97 1.484 1.484 0 010-2.97z" fill="#000"/><path d="M39.219 77.55a1.484 1.484 0 110 2.969 1.484 1.484 0 010-2.968z" fill="#000"/><path d="M42.189 77.55a1.484 1.484 0 110 2.969 1.484 1.484 0 010-2.968zm20.778 0a1.484 1.484 0 110 2.97 1.484 1.484 0 010-2.97z" fill="#000"/><path d="M65.937 77.55a1.484 1.484 0 110 2.97 1.484 1.484 0 010-2.97zm5.936 0a1.484 1.484 0 110 2.97 1.484 1.484 0 010-2.97zm5.937 0a1.484 1.484 0 110 2.97 1.484 1.484 0 010-2.97z" fill="#000"/><path d="M80.78 77.55a1.484 1.484 0 110 2.97 1.484 1.484 0 010-2.97z" fill="#000"/><path d="M83.745 77.55a1.484 1.484 0 110 2.97 1.484 1.484 0 010-2.97z" fill="#000"/><path d="M86.715 77.55a1.484 1.484 0 110 2.97 1.484 1.484 0 010-2.97z" fill="#000"/><path d="M89.686 77.55a1.484 1.484 0 110 2.97 1.484 1.484 0 010-2.97z" fill="#000"/><path d="M92.651 77.55a1.484 1.484 0 110 2.97 1.484 1.484 0 010-2.97zm8.906 0a1.485 1.485 0 110 2.97 1.485 1.485 0 010-2.97zm-59.368 2.97a1.484 1.484 0 110 2.968 1.484 1.484 0 010-2.968z" fill="#000"/><path d="M45.154 80.52a1.484 1.484 0 110 2.968 1.484 1.484 0 010-2.968zm5.941 0a1.484 1.484 0 110 2.968 1.484 1.484 0 010-2.968zm5.936 0a1.484 1.484 0 110 2.968 1.484 1.484 0 010-2.968zm5.936 0a1.484 1.484 0 110 2.968 1.484 1.484 0 010-2.968z" fill="#000"/><path d="M65.937 80.52a1.484 1.484 0 110 2.968 1.484 1.484 0 010-2.968zm11.873 0a1.484 1.484 0 110 2.968 1.484 1.484 0 010-2.968zm11.876 0a1.484 1.484 0 110 2.968 1.484 1.484 0 010-2.968z" fill="#000"/><path d="M92.651 80.52a1.484 1.484 0 110 2.968 1.484 1.484 0 010-2.968zm8.906 0a1.485 1.485 0 110 2.97 1.485 1.485 0 010-2.97zm-59.368 2.968a1.484 1.484 0 110 2.968 1.484 1.484 0 010-2.968z" fill="#000"/><path d="M45.154 83.488a1.484 1.484 0 110 2.968 1.484 1.484 0 010-2.968z" fill="#000"/><path d="M48.125 83.488a1.484 1.484 0 110 2.968 1.484 1.484 0 010-2.968z" fill="#000"/><path d="M51.095 83.488a1.484 1.484 0 110 2.968 1.484 1.484 0 010-2.968z" fill="#000"/><path d="M54.06 83.488a1.484 1.484 0 110 2.968 1.484 1.484 0 010-2.968z" fill="#000"/><path d="M57.031 83.488a1.484 1.484 0 110 2.968 1.484 1.484 0 010-2.968zm11.872 0a1.484 1.484 0 110 2.968 1.484 1.484 0 010-2.968z" fill="#000"/><path d="M71.873 83.488a1.484 1.484 0 110 2.968 1.484 1.484 0 010-2.968zm5.937 0a1.484 1.484 0 110 2.968 1.484 1.484 0 010-2.968zm5.935 0a1.484 1.484 0 110 2.968 1.484 1.484 0 010-2.968zm5.941 0a1.484 1.484 0 110 2.968 1.484 1.484 0 010-2.968z" fill="#000"/><path d="M92.651 83.488a1.484 1.484 0 110 2.968 1.484 1.484 0 010-2.968z" fill="#000"/><path d="M95.622 83.488a1.484 1.484 0 110 2.968 1.484 1.484 0 010-2.968zm5.935 0a1.485 1.485 0 110 2.97 1.485 1.485 0 010-2.97zm-59.368 2.969a1.484 1.484 0 110 2.968 1.484 1.484 0 010-2.968z" fill="#000"/><path d="M45.154 86.457a1.484 1.484 0 110 2.968 1.484 1.484 0 010-2.968zm17.813 0a1.484 1.484 0 110 2.968 1.484 1.484 0 010-2.968z" fill="#000"/><path d="M65.937 86.457a1.484 1.484 0 110 2.968 1.484 1.484 0 010-2.968z" fill="#000"/><path d="M68.903 86.457a1.484 1.484 0 110 2.968 1.484 1.484 0 010-2.968zm5.941 0a1.484 1.484 0 110 2.968 1.484 1.484 0 010-2.968z" fill="#000"/><path d="M77.81 86.457a1.484 1.484 0 110 2.968 1.484 1.484 0 010-2.968zm11.876 0a1.484 1.484 0 110 2.968 1.484 1.484 0 010-2.968z" fill="#000"/><path d="M92.651 86.457a1.484 1.484 0 110 2.968 1.484 1.484 0 010-2.968zm8.906 0a1.485 1.485 0 110 2.97 1.485 1.485 0 010-2.97zm-50.462 2.968a1.484 1.484 0 110 2.968 1.484 1.484 0 010-2.968zm17.808 0a1.484 1.484 0 110 2.968 1.484 1.484 0 010-2.968z" fill="#000"/><path d="M71.873 89.425a1.484 1.484 0 110 2.968 1.484 1.484 0 010-2.968z" fill="#000"/><path d="M74.844 89.425a1.484 1.484 0 110 2.968 1.484 1.484 0 010-2.968z" fill="#000"/><path d="M77.81 89.425a1.484 1.484 0 110 2.968 1.484 1.484 0 010-2.968z" fill="#000"/><path d="M80.78 89.425a1.484 1.484 0 110 2.968 1.484 1.484 0 010-2.968z" fill="#000"/><path d="M83.745 89.425a1.484 1.484 0 110 2.968 1.484 1.484 0 010-2.968z" fill="#000"/><path d="M86.715 89.425a1.484 1.484 0 110 2.969 1.484 1.484 0 010-2.969z" fill="#000"/><path d="M89.686 89.425a1.484 1.484 0 110 2.968 1.484 1.484 0 010-2.968zm8.901 0a1.484 1.484 0 110 2.967 1.484 1.484 0 010-2.967z" fill="#000"/><path d="M101.557 89.425a1.485 1.485 0 110 2.97 1.485 1.485 0 010-2.97zM54.06 92.394a1.484 1.484 0 110 2.968 1.484 1.484 0 010-2.968z" fill="#000"/><path d="M57.031 92.394a1.484 1.484 0 110 2.968 1.484 1.484 0 010-2.968z" fill="#000"/><path d="M60.001 92.394a1.484 1.484 0 110 2.968 1.484 1.484 0 010-2.968zm5.936 0a1.484 1.484 0 110 2.968 1.484 1.484 0 010-2.968z" fill="#000"/><path d="M68.903 92.394a1.484 1.484 0 110 2.968 1.484 1.484 0 010-2.968zm5.936 0a1.484 1.484 0 110 2.968 1.484 1.484 0 010-2.968z" fill="#000"/><path d="M77.81 92.394a1.484 1.484 0 110 2.968 1.484 1.484 0 010-2.968zm8.905 0a1.484 1.484 0 110 2.968 1.484 1.484 0 010-2.968z" fill="#000"/><path d="M89.686 92.394a1.484 1.484 0 110 2.968 1.484 1.484 0 010-2.968z" fill="#000"/><path d="M92.651 92.394a1.484 1.484 0 110 2.968 1.484 1.484 0 010-2.968z" fill="#000"/><path d="M95.622 92.394a1.484 1.484 0 110 2.968 1.484 1.484 0 010-2.968z" fill="#000"/><path d="M98.587 92.394a1.484 1.484 0 110 2.967 1.484 1.484 0 010-2.967zm-56.398 2.968a1.484 1.484 0 110 2.968 1.484 1.484 0 010-2.968zm8.906 0a1.484 1.484 0 110 2.968 1.484 1.484 0 010-2.968z" fill="#000"/><path d="M54.06 95.362a1.484 1.484 0 110 2.969 1.484 1.484 0 010-2.97zm14.843 0a1.484 1.484 0 110 2.969 1.484 1.484 0 010-2.97zm11.877 0a1.484 1.484 0 110 2.968 1.484 1.484 0 010-2.968zm8.906 0a1.484 1.484 0 110 2.969 1.484 1.484 0 010-2.97z" fill="#000"/><path d="M92.651 95.362a1.484 1.484 0 110 2.969 1.484 1.484 0 010-2.97zm5.936 0a1.484 1.484 0 110 2.968 1.484 1.484 0 010-2.968z" fill="#000"/><path d="M101.557 95.362a1.485 1.485 0 110 2.97 1.485 1.485 0 010-2.97zM48.125 98.33a1.484 1.484 0 110 2.968 1.484 1.484 0 010-2.968z" fill="#000"/><path d="M51.095 98.33a1.484 1.484 0 110 2.968 1.484 1.484 0 010-2.968zm5.936 0a1.484 1.484 0 110 2.968 1.484 1.484 0 010-2.968z" fill="#000"/><path d="M60.001 98.33a1.484 1.484 0 110 2.968 1.484 1.484 0 010-2.968z" fill="#000"/><path d="M62.967 98.33a1.484 1.484 0 110 2.968 1.484 1.484 0 010-2.968z" fill="#000"/><path d="M65.937 98.33a1.484 1.484 0 110 2.968 1.484 1.484 0 010-2.968z" fill="#000"/><path d="M68.903 98.33a1.484 1.484 0 110 2.968 1.484 1.484 0 010-2.968z" fill="#000"/><path d="M71.873 98.33a1.484 1.484 0 110 2.968 1.484 1.484 0 010-2.968zm5.937 0a1.484 1.484 0 11-.001 2.968 1.484 1.484 0 010-2.968zm5.935 0a1.484 1.484 0 110 2.968 1.484 1.484 0 010-2.968zm8.906 0a1.484 1.484 0 110 2.968 1.484 1.484 0 010-2.968zm-44.526 2.969a1.484 1.484 0 11.001 2.968 1.484 1.484 0 010-2.968zm5.935 0a1.485 1.485 0 110 2.969 1.485 1.485 0 010-2.969zm5.937 0a1.484 1.484 0 110 2.969 1.484 1.484 0 010-2.969z" fill="#000"/><path d="M62.967 101.299a1.484 1.484 0 110 2.969 1.484 1.484 0 010-2.969z" fill="#000"/><path d="M65.937 101.299a1.484 1.484 0 110 2.969 1.484 1.484 0 010-2.969zm5.936 0a1.485 1.485 0 110 2.969 1.485 1.485 0 010-2.969z" fill="#000"/><path d="M74.844 101.299a1.484 1.484 0 110 2.969 1.484 1.484 0 010-2.969z" fill="#000"/><path d="M77.81 101.299a1.484 1.484 0 11-.001 2.969 1.484 1.484 0 010-2.969z" fill="#000"/><path d="M80.78 101.299a1.484 1.484 0 11-.001 2.969 1.484 1.484 0 010-2.969z" fill="#000"/><path d="M83.745 101.299a1.484 1.484 0 110 2.969 1.484 1.484 0 010-2.969z" fill="#000"/><path d="M86.715 101.299a1.484 1.484 0 110 2.968 1.484 1.484 0 010-2.968z" fill="#000"/><path d="M89.686 101.299a1.485 1.485 0 110 2.969 1.485 1.485 0 010-2.969zm11.871 0a1.484 1.484 0 11.001 2.969 1.484 1.484 0 01-.001-2.969zM30.641 18.183h-6.59c-3.212 0-5.934 2.122-6.804 5.023a6.878 6.878 0 00-.29 1.99v6.747c0 3.87 3.183 7.015 7.093 7.015h6.592c3.91 0 7.095-3.146 7.095-7.015v-6.747c0-3.867-3.184-7.013-7.095-7.013zm3.978 13.76c0 2.15-1.785 3.898-3.979 3.898l-3.294.001H24.05c-2.194 0-3.978-1.75-3.978-3.899v-6.747c0-.671.174-1.304.48-1.856a3.954 3.954 0 011.216-1.334 4.012 4.012 0 012.281-.706h6.591c2.194 0 3.978 1.748 3.978 3.896v6.747zm61.327-13.76h-6.591c-3.212 0-5.933 2.122-6.803 5.023a6.874 6.874 0 00-.291 1.99v6.747c0 3.87 3.183 7.015 7.094 7.015l3.295.001h3.296c3.91 0 7.094-3.147 7.094-7.016v-6.747c0-3.867-3.183-7.013-7.094-7.013zm3.977 13.76c0 2.15-1.784 3.899-3.978 3.899h-6.589c-2.194 0-3.978-1.75-3.978-3.899v-6.747c0-.671.174-1.303.48-1.856a3.955 3.955 0 011.215-1.334 4.012 4.012 0 012.282-.706h6.59c2.194 0 3.978 1.748 3.978 3.896v6.747zM30.641 83.49h-6.59c-3.212 0-5.934 2.122-6.804 5.023a6.873 6.873 0 00-.29 1.99v6.747c0 3.869 3.183 7.015 7.093 7.015l3.296.001 3.295-.001c3.91 0 7.095-3.146 7.095-7.015v-6.747c0-3.867-3.184-7.013-7.095-7.013zm3.978 13.76c0 2.15-1.785 3.898-3.979 3.898l-3.294.001-3.295-.001c-2.194 0-3.978-1.748-3.978-3.898v-6.747c0-.671.174-1.303.48-1.856a3.953 3.953 0 011.216-1.334 4.011 4.011 0 012.281-.706h6.591c2.194 0 3.978 1.748 3.978 3.896v6.747z" fill="#000"/><path d="M25.329 33.024c-1.344 0-2.437-1.071-2.437-2.387v-4.132c0-.411.107-.798.294-1.136.18-.326.436-.606.744-.817a2.459 2.459 0 011.398-.433h4.036c1.343 0 2.436 1.07 2.436 2.386v4.132c0 1.316-1.093 2.387-2.436 2.387H25.33zm65.305.001c-1.344 0-2.437-1.072-2.437-2.388v-4.132c0-.41.107-.798.294-1.136a2.41 2.41 0 01.744-.817 2.458 2.458 0 011.397-.433h4.037c1.343 0 2.436 1.07 2.436 2.386v4.132c0 1.316-1.093 2.387-2.436 2.387h-4.035zM25.329 98.33c-1.344 0-2.437-1.071-2.437-2.387v-4.132c0-.41.107-.798.294-1.136a2.41 2.41 0 01.744-.817 2.458 2.458 0 011.398-.433h4.036c1.343 0 2.436 1.07 2.436 2.386v4.132c0 1.316-1.093 2.387-2.436 2.387H25.33zm34.677-42.686c.933 0 1.555-.598 1.555-1.483 0-.886-.622-1.508-1.555-1.508-.981 0-1.603.622-1.603 1.508 0 .885.622 1.483 1.603 1.483zm-1.388 13.76h2.943c.288 0 .503-.12.503-.311v-.096c0-.454-.957-.454-.957-1.292V58.11c0-.335-.24-.574-.742-.335l-1.843.91c-.215.12-.359.19-.359.358v.048c0 .36.862.55.862 1.484v7.131c0 .838-.862.838-.862 1.292v.096c0 .191.168.311.455.311z" fill="#000"/></svg>