<svg width="98" height="98" fill="none" xmlns="http://www.w3.org/2000/svg"><path d="M36.876 14.848a1.212 1.212 0 110 2.425 1.212 1.212 0 010-2.425zm7.274 0a1.212 1.212 0 110 2.425 1.212 1.212 0 010-2.425z" fill="#C8C4C2"/><path d="M46.575 14.848a1.212 1.212 0 110 2.425 1.212 1.212 0 010-2.425z" fill="#C8C4C2"/><path d="M48.997 14.848a1.212 1.212 0 110 2.425 1.212 1.212 0 010-2.425zm4.852 0a1.212 1.212 0 110 2.425 1.212 1.212 0 010-2.425z" fill="#C8C4C2"/><path d="M56.27 14.848a1.212 1.212 0 110 2.425 1.212 1.212 0 010-2.425zm4.852 0a1.212 1.212 0 110 2.425 1.212 1.212 0 010-2.425z" fill="#C8C4C2"/><path d="M63.544 14.848a1.212 1.212 0 110 2.425 1.212 1.212 0 010-2.425zm-29.09 2.424a1.212 1.212 0 110 2.424 1.212 1.212 0 010-2.424z" fill="#C8C4C2"/><path d="M36.876 17.272a1.212 1.212 0 110 2.425 1.212 1.212 0 010-2.425z" fill="#C8C4C2"/><path d="M39.302 17.272a1.212 1.212 0 110 2.425 1.212 1.212 0 010-2.425z" fill="#C8C4C2"/><path d="M41.728 17.272a1.212 1.212 0 110 2.425 1.212 1.212 0 010-2.425zm4.847 0a1.212 1.212 0 110 2.424 1.212 1.212 0 010-2.424zm7.274 0a1.212 1.212 0 110 2.425 1.212 1.212 0 010-2.425zm9.695 0a1.212 1.212 0 110 2.425 1.212 1.212 0 010-2.425zm-29.09 2.425a1.212 1.212 0 110 2.424 1.212 1.212 0 010-2.424z" fill="#C8C4C2"/><path d="M36.876 19.697a1.212 1.212 0 110 2.424 1.212 1.212 0 010-2.424z" fill="#C8C4C2"/><path d="M39.302 19.697a1.212 1.212 0 110 2.424 1.212 1.212 0 010-2.424z" fill="#C8C4C2"/><path d="M41.728 19.697a1.212 1.212 0 110 2.424 1.212 1.212 0 010-2.424z" fill="#C8C4C2"/><path d="M44.15 19.697a1.212 1.212 0 110 2.424 1.212 1.212 0 010-2.424z" fill="#C8C4C2"/><path d="M46.575 19.697a1.212 1.212 0 110 2.424 1.212 1.212 0 010-2.424z" fill="#C8C4C2"/><path d="M48.997 19.697a1.212 1.212 0 110 2.424 1.212 1.212 0 010-2.424z" fill="#C8C4C2"/><path d="M51.423 19.697a1.212 1.212 0 110 2.424 1.212 1.212 0 010-2.424z" fill="#C8C4C2"/><path d="M53.849 19.697a1.212 1.212 0 110 2.424 1.212 1.212 0 010-2.424z" fill="#C8C4C2"/><path d="M56.27 19.697a1.212 1.212 0 110 2.424 1.212 1.212 0 010-2.424z" fill="#C8C4C2"/><path d="M58.697 19.697a1.212 1.212 0 110 2.424 1.212 1.212 0 010-2.424z" fill="#C8C4C2"/><path d="M61.122 19.697a1.212 1.212 0 110 2.424 1.212 1.212 0 010-2.424z" fill="#C8C4C2"/><path d="M63.544 19.697a1.212 1.212 0 110 2.424 1.212 1.212 0 010-2.424zm-29.09 2.424a1.212 1.212 0 110 2.424 1.212 1.212 0 010-2.424z" fill="#C8C4C2"/><path d="M36.876 22.121a1.212 1.212 0 110 2.424 1.212 1.212 0 010-2.424z" fill="#C8C4C2"/><path d="M39.302 22.121a1.212 1.212 0 110 2.424 1.212 1.212 0 010-2.424z" fill="#C8C4C2"/><path d="M41.728 22.121a1.212 1.212 0 110 2.424 1.212 1.212 0 010-2.424z" fill="#C8C4C2"/><path d="M44.15 22.121a1.212 1.212 0 110 2.424 1.212 1.212 0 010-2.424zm7.273 0a1.212 1.212 0 110 2.424 1.212 1.212 0 010-2.424zm4.847 0a1.212 1.212 0 110 2.424 1.212 1.212 0 010-2.424z" fill="#C8C4C2"/><path d="M58.697 22.121a1.212 1.212 0 110 2.424 1.212 1.212 0 010-2.424zm4.847 0a1.212 1.212 0 110 2.424 1.212 1.212 0 010-2.424zm-29.09 2.425a1.212 1.212 0 110 2.424 1.212 1.212 0 010-2.424zm4.848 0a1.212 1.212 0 110 2.424 1.212 1.212 0 010-2.424zm4.848 0a1.212 1.212 0 110 2.424 1.212 1.212 0 010-2.424z" fill="#C8C4C2"/><path d="M46.575 24.546a1.212 1.212 0 110 2.424 1.212 1.212 0 010-2.424z" fill="#C8C4C2"/><path d="M49.001 24.546a1.212 1.212 0 110 2.424 1.212 1.212 0 010-2.424z" fill="#C8C4C2"/><path d="M51.423 24.546a1.212 1.212 0 110 2.424 1.212 1.212 0 010-2.424z" fill="#C8C4C2"/><path d="M53.849 24.546a1.212 1.212 0 110 2.424 1.212 1.212 0 010-2.424zM34.454 26.97a1.212 1.212 0 110 2.424 1.212 1.212 0 010-2.424zm4.848 0a1.212 1.212 0 110 2.424 1.212 1.212 0 010-2.424z" fill="#C8C4C2"/><path d="M41.728 26.97a1.212 1.212 0 110 2.424 1.212 1.212 0 010-2.424z" fill="#C8C4C2"/><path d="M44.15 26.97a1.212 1.212 0 110 2.424 1.212 1.212 0 010-2.424zm9.699 0a1.212 1.212 0 110 2.424 1.212 1.212 0 010-2.424z" fill="#C8C4C2"/><path d="M56.27 26.97a1.212 1.212 0 110 2.424 1.212 1.212 0 010-2.424z" fill="#C8C4C2"/><path d="M58.697 26.97a1.212 1.212 0 110 2.424 1.212 1.212 0 010-2.424zm4.847 0a1.212 1.212 0 110 2.424 1.212 1.212 0 010-2.424zm-29.09 2.424a1.212 1.212 0 110 2.425 1.212 1.212 0 010-2.425zm4.848 0a1.212 1.212 0 110 2.425 1.212 1.212 0 010-2.425zm4.848 0a1.212 1.212 0 110 2.425 1.212 1.212 0 010-2.425zm4.851 0a1.212 1.212 0 110 2.425 1.212 1.212 0 010-2.425zm4.848 0a1.212 1.212 0 110 2.425 1.212 1.212 0 010-2.425zm4.848 0a1.212 1.212 0 110 2.425 1.212 1.212 0 010-2.425zm4.847 0a1.212 1.212 0 110 2.425 1.212 1.212 0 010-2.425z" fill="#C8C4C2"/><path d="M53.849 31.818a1.212 1.212 0 110 2.425 1.212 1.212 0 010-2.425z" fill="#C8C4C2"/><path d="M56.27 31.818a1.212 1.212 0 110 2.424 1.212 1.212 0 010-2.424zm7.274 0a1.212 1.212 0 110 2.425 1.212 1.212 0 010-2.425zm-43.637 2.424a1.212 1.212 0 110 2.424 1.212 1.212 0 010-2.424zm7.273 0a1.212 1.212 0 110 2.424 1.212 1.212 0 010-2.424z" fill="#C8C4C2"/><path d="M29.607 34.242a1.212 1.212 0 110 2.424 1.212 1.212 0 010-2.424z" fill="#C8C4C2"/><path d="M32.029 34.242a1.212 1.212 0 110 2.424 1.212 1.212 0 010-2.424z" fill="#C8C4C2"/><path d="M34.454 34.242a1.212 1.212 0 110 2.424 1.212 1.212 0 010-2.424z" fill="#C8C4C2"/><path d="M36.876 34.242a1.212 1.212 0 110 2.424 1.212 1.212 0 010-2.424zm7.274 0a1.212 1.212 0 110 2.424 1.212 1.212 0 010-2.424zm4.851 0a1.212 1.212 0 110 2.424 1.212 1.212 0 010-2.424zm4.848 0a1.212 1.212 0 110 2.424 1.212 1.212 0 010-2.424z" fill="#C8C4C2"/><path d="M56.27 34.242a1.212 1.212 0 110 2.424 1.212 1.212 0 010-2.424zm7.274 0a1.212 1.212 0 110 2.424 1.212 1.212 0 010-2.424z" fill="#C8C4C2"/><path d="M65.97 34.242a1.212 1.212 0 110 2.424 1.212 1.212 0 010-2.424zm4.848 0a1.212 1.212 0 110 2.424 1.212 1.212 0 010-2.424z" fill="#C8C4C2"/><path d="M73.243 34.242a1.212 1.212 0 110 2.424 1.212 1.212 0 010-2.424z" fill="#C8C4C2"/><path d="M75.665 34.242a1.212 1.212 0 110 2.424 1.212 1.212 0 010-2.424z" fill="#C8C4C2"/><path d="M78.091 34.242a1.212 1.212 0 110 2.424 1.212 1.212 0 010-2.424z" fill="#C8C4C2"/><path d="M80.513 34.242a1.212 1.212 0 110 2.424 1.212 1.212 0 010-2.424zM15.06 36.667a1.212 1.212 0 110 2.424 1.212 1.212 0 010-2.424zm7.273 0a1.212 1.212 0 110 2.424 1.212 1.212 0 010-2.424z" fill="#C8C4C2"/><path d="M24.759 36.667a1.212 1.212 0 110 2.424 1.212 1.212 0 010-2.424z" fill="#C8C4C2"/><path d="M27.18 36.667a1.212 1.212 0 110 2.424 1.212 1.212 0 010-2.424zm4.849 0a1.212 1.212 0 110 2.424 1.212 1.212 0 010-2.424zm4.847 0a1.212 1.212 0 110 2.424 1.212 1.212 0 010-2.424zm7.274 0a1.212 1.212 0 110 2.424 1.212 1.212 0 010-2.424z" fill="#C8C4C2"/><path d="M46.575 36.667a1.212 1.212 0 110 2.424 1.212 1.212 0 010-2.424zm7.274 0a1.212 1.212 0 110 2.424 1.212 1.212 0 010-2.424z" fill="#C8C4C2"/><path d="M56.27 36.667a1.212 1.212 0 110 2.424 1.212 1.212 0 010-2.424zm7.274 0a1.212 1.212 0 110 2.424 1.212 1.212 0 010-2.424zm4.848 0a1.212 1.212 0 110 2.424 1.212 1.212 0 010-2.424z" fill="#C8C4C2"/><path d="M70.817 36.667a1.212 1.212 0 110 2.424 1.212 1.212 0 010-2.424zm4.848 0a1.212 1.212 0 110 2.424 1.212 1.212 0 010-2.424zm4.848 0a1.212 1.212 0 110 2.424 1.212 1.212 0 010-2.424z" fill="#C8C4C2"/><path d="M82.939 36.667a1.212 1.212 0 110 2.424 1.212 1.212 0 010-2.424zM15.06 39.09a1.212 1.212 0 110 2.425 1.212 1.212 0 010-2.424z" fill="#C8C4C2"/><path d="M17.486 39.09a1.212 1.212 0 110 2.425 1.212 1.212 0 010-2.424zm12.121 0a1.212 1.212 0 110 2.425 1.212 1.212 0 010-2.424zm33.937 0a1.212 1.212 0 110 2.425 1.212 1.212 0 010-2.424z" fill="#C8C4C2"/><path d="M65.97 39.09a1.212 1.212 0 110 2.425 1.212 1.212 0 010-2.424zm7.273 0a1.212 1.212 0 110 2.425 1.212 1.212 0 010-2.424z" fill="#C8C4C2"/><path d="M75.665 39.09a1.212 1.212 0 110 2.425 1.212 1.212 0 010-2.424zm7.274 0a1.212 1.212 0 110 2.425 1.212 1.212 0 010-2.424zm-65.453 2.426a1.212 1.212 0 110 2.424 1.212 1.212 0 010-2.424zm7.273 0a1.212 1.212 0 110 2.424 1.212 1.212 0 010-2.424zm7.27 0a1.212 1.212 0 110 2.424 1.212 1.212 0 010-2.424z" fill="#C8C4C2"/><path d="M34.454 41.516a1.212 1.212 0 110 2.424 1.212 1.212 0 010-2.424z" fill="#C8C4C2"/><path d="M36.876 41.516a1.212 1.212 0 110 2.424 1.212 1.212 0 010-2.424zm24.242 0a1.212 1.212 0 110 2.424 1.212 1.212 0 010-2.424z" fill="#C8C4C2"/><path d="M63.544 41.516a1.212 1.212 0 110 2.424 1.212 1.212 0 010-2.424zm4.848 0a1.212 1.212 0 110 2.424 1.212 1.212 0 010-2.424z" fill="#C8C4C2"/><path d="M70.818 41.516a1.212 1.212 0 110 2.424 1.212 1.212 0 010-2.424zm4.847 0a1.212 1.212 0 110 2.424 1.212 1.212 0 010-2.424zM19.907 43.94a1.212 1.212 0 110 2.424 1.212 1.212 0 010-2.424zm4.852 0a1.212 1.212 0 110 2.423 1.212 1.212 0 010-2.424zm4.848 0a1.212 1.212 0 110 2.424 1.212 1.212 0 010-2.425zm33.937 0a1.212 1.212 0 110 2.424 1.212 1.212 0 010-2.425z" fill="#C8C4C2"/><path d="M65.97 43.94a1.212 1.212 0 110 2.424 1.212 1.212 0 010-2.424z" fill="#C8C4C2"/><path d="M68.392 43.94a1.212 1.212 0 110 2.423 1.212 1.212 0 010-2.424zm12.121 0a1.212 1.212 0 110 2.423 1.212 1.212 0 010-2.424zM15.06 46.364a1.212 1.212 0 110 2.424 1.212 1.212 0 010-2.424zm7.273 0a1.212 1.212 0 110 2.424 1.212 1.212 0 010-2.424zm12.121 0a1.212 1.212 0 110 2.424 1.212 1.212 0 010-2.424zm26.664 0a1.212 1.212 0 110 2.424 1.212 1.212 0 010-2.424z" fill="#C8C4C2"/><path d="M63.544 46.364a1.212 1.212 0 110 2.424 1.212 1.212 0 010-2.424zm4.848 0a1.212 1.212 0 110 2.424 1.212 1.212 0 010-2.424zm7.273 0a1.212 1.212 0 110 2.424 1.212 1.212 0 010-2.424zm4.848 0a1.212 1.212 0 110 2.424 1.212 1.212 0 010-2.424z" fill="#C8C4C2"/><path d="M82.939 46.364a1.212 1.212 0 110 2.424 1.212 1.212 0 010-2.424zm-65.453 2.424a1.212 1.212 0 110 2.424 1.212 1.212 0 010-2.424z" fill="#C8C4C2"/><path d="M19.907 48.788a1.212 1.212 0 110 2.424 1.212 1.212 0 010-2.424z" fill="#C8C4C2"/><path d="M22.333 48.788a1.212 1.212 0 110 2.424 1.212 1.212 0 010-2.424zm4.847 0a1.212 1.212 0 110 2.424 1.212 1.212 0 010-2.424z" fill="#C8C4C2"/><path d="M29.607 48.788a1.212 1.212 0 110 2.424 1.212 1.212 0 010-2.424zm4.847 0a1.212 1.212 0 110 2.424 1.212 1.212 0 010-2.424z" fill="#C8C4C2"/><path d="M36.876 48.788a1.212 1.212 0 110 2.424 1.212 1.212 0 010-2.424zm24.246 0a1.212 1.212 0 110 2.424 1.212 1.212 0 010-2.424zm4.848 0a1.212 1.212 0 110 2.424 1.212 1.212 0 010-2.424z" fill="#C8C4C2"/><path d="M68.392 48.788a1.212 1.212 0 110 2.424 1.212 1.212 0 010-2.424zm7.273 0a1.212 1.212 0 110 2.424 1.212 1.212 0 010-2.424z" fill="#C8C4C2"/><path d="M78.091 48.788a1.212 1.212 0 110 2.424 1.212 1.212 0 010-2.424zm4.848 0a1.212 1.212 0 110 2.424 1.212 1.212 0 010-2.424zm-65.453 2.424a1.212 1.212 0 110 2.424 1.212 1.212 0 010-2.424z" fill="#C8C4C2"/><path d="M19.907 51.212a1.212 1.212 0 110 2.424 1.212 1.212 0 010-2.424zm46.063 0a1.212 1.212 0 110 2.424 1.212 1.212 0 010-2.424z" fill="#C8C4C2"/><path d="M68.392 51.212a1.212 1.212 0 110 2.424 1.212 1.212 0 010-2.424zm7.273 0a1.212 1.212 0 110 2.424 1.212 1.212 0 010-2.424zm4.848 0a1.212 1.212 0 110 2.424 1.212 1.212 0 010-2.424z" fill="#C8C4C2"/><path d="M82.939 51.212a1.212 1.212 0 110 2.424 1.212 1.212 0 010-2.424zM15.06 53.636a1.212 1.212 0 110 2.425 1.212 1.212 0 010-2.425z" fill="#C8C4C2"/><path d="M17.486 53.637a1.212 1.212 0 110 2.424 1.212 1.212 0 010-2.424zm12.121 0a1.212 1.212 0 110 2.424 1.212 1.212 0 010-2.424z" fill="#C8C4C2"/><path d="M32.029 53.636a1.212 1.212 0 110 2.424 1.212 1.212 0 010-2.424z" fill="#C8C4C2"/><path d="M34.454 53.637a1.212 1.212 0 110 2.424 1.212 1.212 0 010-2.424z" fill="#C8C4C2"/><path d="M36.876 53.636a1.212 1.212 0 110 2.425 1.212 1.212 0 010-2.425zm26.668.001a1.212 1.212 0 110 2.424 1.212 1.212 0 010-2.424zm4.848 0a1.212 1.212 0 110 2.424 1.212 1.212 0 010-2.424z" fill="#C8C4C2"/><path d="M70.817 53.636a1.212 1.212 0 110 2.425 1.212 1.212 0 010-2.425zM17.486 56.06a1.212 1.212 0 110 2.425 1.212 1.212 0 010-2.425zm50.906 0a1.212 1.212 0 110 2.425 1.212 1.212 0 010-2.425z" fill="#C8C4C2"/><path d="M70.817 56.06a1.212 1.212 0 110 2.425 1.212 1.212 0 010-2.424zm12.122 0a1.212 1.212 0 110 2.425 1.212 1.212 0 010-2.424zM15.06 58.485a1.212 1.212 0 110 2.425 1.212 1.212 0 010-2.425z" fill="#C8C4C2"/><path d="M17.486 58.485a1.212 1.212 0 110 2.425 1.212 1.212 0 010-2.425z" fill="#C8C4C2"/><path d="M19.907 58.485a1.212 1.212 0 110 2.425 1.212 1.212 0 010-2.425z" fill="#C8C4C2"/><path d="M22.333 58.485a1.212 1.212 0 110 2.424 1.212 1.212 0 010-2.424zm7.274 0a1.212 1.212 0 110 2.425 1.212 1.212 0 010-2.425zm4.847 0a1.212 1.212 0 110 2.424 1.212 1.212 0 010-2.424zm26.664 0a1.212 1.212 0 110 2.425 1.212 1.212 0 010-2.425zm9.7 0a1.212 1.212 0 110 2.424 1.212 1.212 0 010-2.424z" fill="#C8C4C2"/><path d="M73.243 58.485a1.212 1.212 0 110 2.425 1.212 1.212 0 010-2.425zm9.696 0a1.212 1.212 0 110 2.425 1.212 1.212 0 010-2.425zm-58.18 2.425a1.212 1.212 0 110 2.423 1.212 1.212 0 010-2.424z" fill="#C8C4C2"/><path d="M27.18 60.91a1.212 1.212 0 110 2.423 1.212 1.212 0 010-2.424zm7.274 0a1.212 1.212 0 110 2.423 1.212 1.212 0 010-2.424z" fill="#C8C4C2"/><path d="M36.876 60.91a1.212 1.212 0 110 2.423 1.212 1.212 0 010-2.424zm7.274 0a1.212 1.212 0 110 2.423 1.212 1.212 0 010-2.424z" fill="#C8C4C2"/><path d="M46.575 60.91a1.212 1.212 0 110 2.423 1.212 1.212 0 010-2.424zm4.848 0a1.212 1.212 0 110 2.423 1.212 1.212 0 010-2.424zm9.699 0a1.212 1.212 0 110 2.423 1.212 1.212 0 010-2.424z" fill="#C8C4C2"/><path d="M63.544 60.91a1.212 1.212 0 110 2.423 1.212 1.212 0 010-2.424z" fill="#C8C4C2"/><path d="M65.97 60.91a1.212 1.212 0 110 2.423 1.212 1.212 0 010-2.424z" fill="#C8C4C2"/><path d="M68.392 60.91a1.212 1.212 0 110 2.423 1.212 1.212 0 010-2.424z" fill="#C8C4C2"/><path d="M70.817 60.91a1.212 1.212 0 110 2.423 1.212 1.212 0 010-2.424zm9.696 0a1.212 1.212 0 110 2.423 1.212 1.212 0 010-2.424zM15.06 63.333a1.212 1.212 0 110 2.424 1.212 1.212 0 010-2.424z" fill="#C8C4C2"/><path d="M17.486 63.333a1.212 1.212 0 110 2.424 1.212 1.212 0 010-2.424z" fill="#C8C4C2"/><path d="M19.907 63.333a1.212 1.212 0 110 2.424 1.212 1.212 0 010-2.424zm4.852 0a1.212 1.212 0 110 2.424 1.212 1.212 0 010-2.424zm4.848 0a1.212 1.212 0 110 2.424 1.212 1.212 0 010-2.424z" fill="#C8C4C2"/><path d="M32.029 63.333a1.212 1.212 0 110 2.424 1.212 1.212 0 010-2.424z" fill="#C8C4C2"/><path d="M34.454 63.333a1.212 1.212 0 110 2.424 1.212 1.212 0 010-2.424zm16.969 0a1.212 1.212 0 110 2.424 1.212 1.212 0 010-2.424z" fill="#C8C4C2"/><path d="M53.849 63.333a1.212 1.212 0 110 2.424 1.212 1.212 0 010-2.424zm4.848 0a1.212 1.212 0 110 2.424 1.212 1.212 0 010-2.424zm4.847 0a1.212 1.212 0 110 2.424 1.212 1.212 0 010-2.424z" fill="#C8C4C2"/><path d="M65.97 63.333a1.212 1.212 0 110 2.424 1.212 1.212 0 010-2.424z" fill="#C8C4C2"/><path d="M68.392 63.333a1.212 1.212 0 110 2.424 1.212 1.212 0 010-2.424z" fill="#C8C4C2"/><path d="M70.818 63.333a1.212 1.212 0 110 2.424 1.212 1.212 0 010-2.424z" fill="#C8C4C2"/><path d="M73.243 63.333a1.212 1.212 0 110 2.424 1.212 1.212 0 010-2.424z" fill="#C8C4C2"/><path d="M75.665 63.333a1.212 1.212 0 110 2.424 1.212 1.212 0 010-2.424zm7.274 0a1.212 1.212 0 110 2.424 1.212 1.212 0 010-2.424zm-48.485 2.425a1.212 1.212 0 110 2.424 1.212 1.212 0 010-2.424z" fill="#C8C4C2"/><path d="M36.876 65.758a1.212 1.212 0 110 2.424 1.212 1.212 0 010-2.424zm4.852 0a1.212 1.212 0 110 2.424 1.212 1.212 0 010-2.424zm4.847 0a1.212 1.212 0 110 2.424 1.212 1.212 0 010-2.424zm4.848 0a1.212 1.212 0 110 2.424 1.212 1.212 0 010-2.424z" fill="#C8C4C2"/><path d="M53.849 65.758a1.212 1.212 0 110 2.424 1.212 1.212 0 010-2.424zm9.695 0a1.212 1.212 0 110 2.424 1.212 1.212 0 010-2.424zm9.699 0a1.212 1.212 0 110 2.424 1.212 1.212 0 010-2.424z" fill="#C8C4C2"/><path d="M75.665 65.758a1.212 1.212 0 110 2.424 1.212 1.212 0 010-2.424zm7.274 0a1.212 1.212 0 110 2.424 1.212 1.212 0 010-2.424zm-48.485 2.423a1.212 1.212 0 110 2.425 1.212 1.212 0 010-2.424z" fill="#C8C4C2"/><path d="M36.876 68.181a1.212 1.212 0 110 2.425 1.212 1.212 0 010-2.424z" fill="#C8C4C2"/><path d="M39.302 68.181a1.212 1.212 0 110 2.425 1.212 1.212 0 010-2.424z" fill="#C8C4C2"/><path d="M41.728 68.181a1.212 1.212 0 110 2.425 1.212 1.212 0 010-2.424z" fill="#C8C4C2"/><path d="M44.15 68.181a1.212 1.212 0 110 2.425 1.212 1.212 0 010-2.424z" fill="#C8C4C2"/><path d="M46.575 68.181a1.212 1.212 0 110 2.425 1.212 1.212 0 010-2.424zm9.695 0a1.212 1.212 0 110 2.425 1.212 1.212 0 010-2.424z" fill="#C8C4C2"/><path d="M58.697 68.181a1.212 1.212 0 110 2.425 1.212 1.212 0 010-2.424zm4.847 0a1.212 1.212 0 110 2.425 1.212 1.212 0 010-2.424zm4.848 0a1.212 1.212 0 110 2.425 1.212 1.212 0 010-2.424zm4.851 0a1.212 1.212 0 110 2.425 1.212 1.212 0 010-2.424z" fill="#C8C4C2"/><path d="M75.665 68.181a1.212 1.212 0 110 2.425 1.212 1.212 0 010-2.424z" fill="#C8C4C2"/><path d="M78.091 68.181a1.212 1.212 0 110 2.425 1.212 1.212 0 010-2.424zm4.848 0a1.212 1.212 0 110 2.425 1.212 1.212 0 010-2.424zm-48.485 2.425a1.212 1.212 0 110 2.424 1.212 1.212 0 010-2.424z" fill="#C8C4C2"/><path d="M36.876 70.606a1.212 1.212 0 110 2.424 1.212 1.212 0 010-2.424zm14.547 0a1.212 1.212 0 110 2.425 1.212 1.212 0 010-2.425z" fill="#C8C4C2"/><path d="M53.849 70.606a1.212 1.212 0 110 2.424 1.212 1.212 0 010-2.424z" fill="#C8C4C2"/><path d="M56.27 70.606a1.212 1.212 0 110 2.424 1.212 1.212 0 010-2.424zm4.852 0a1.212 1.212 0 110 2.424 1.212 1.212 0 010-2.424z" fill="#C8C4C2"/><path d="M63.544 70.606a1.212 1.212 0 110 2.425 1.212 1.212 0 010-2.425zm9.699 0a1.212 1.212 0 110 2.424 1.212 1.212 0 010-2.424z" fill="#C8C4C2"/><path d="M75.665 70.606a1.212 1.212 0 110 2.425 1.212 1.212 0 010-2.425zm7.274 0a1.212 1.212 0 110 2.424 1.212 1.212 0 010-2.424zM41.728 73.03a1.212 1.212 0 110 2.424 1.212 1.212 0 010-2.424zm14.542 0a1.212 1.212 0 110 2.424 1.212 1.212 0 010-2.424z" fill="#C8C4C2"/><path d="M58.697 73.03a1.212 1.212 0 110 2.424 1.212 1.212 0 010-2.424z" fill="#C8C4C2"/><path d="M61.122 73.03a1.212 1.212 0 110 2.425 1.212 1.212 0 010-2.425z" fill="#C8C4C2"/><path d="M63.544 73.03a1.212 1.212 0 110 2.424 1.212 1.212 0 010-2.424z" fill="#C8C4C2"/><path d="M65.97 73.03a1.212 1.212 0 110 2.425 1.212 1.212 0 010-2.425z" fill="#C8C4C2"/><path d="M68.392 73.03a1.212 1.212 0 110 2.424 1.212 1.212 0 010-2.424z" fill="#C8C4C2"/><path d="M70.817 73.03a1.212 1.212 0 110 2.425 1.212 1.212 0 010-2.425z" fill="#C8C4C2"/><path d="M73.243 73.03a1.212 1.212 0 110 2.425 1.212 1.212 0 010-2.425zm7.27 0a1.212 1.212 0 110 2.424 1.212 1.212 0 010-2.424z" fill="#C8C4C2"/><path d="M82.939 73.03a1.212 1.212 0 110 2.425 1.212 1.212 0 010-2.425zM44.15 75.455a1.212 1.212 0 110 2.424 1.212 1.212 0 010-2.424z" fill="#C8C4C2"/><path d="M46.575 75.455a1.212 1.212 0 110 2.424 1.212 1.212 0 010-2.424z" fill="#C8C4C2"/><path d="M49.001 75.455a1.212 1.212 0 110 2.424 1.212 1.212 0 010-2.424zm4.848 0a1.212 1.212 0 110 2.424 1.212 1.212 0 010-2.424z" fill="#C8C4C2"/><path d="M56.27 75.455a1.212 1.212 0 110 2.424 1.212 1.212 0 010-2.424zm4.848 0a1.212 1.212 0 110 2.424 1.212 1.212 0 010-2.424z" fill="#C8C4C2"/><path d="M63.544 75.455a1.212 1.212 0 110 2.424 1.212 1.212 0 010-2.424zm7.274 0a1.212 1.212 0 110 2.424 1.212 1.212 0 010-2.424z" fill="#C8C4C2"/><path d="M73.243 75.455a1.212 1.212 0 110 2.424 1.212 1.212 0 010-2.424z" fill="#C8C4C2"/><path d="M75.665 75.455a1.212 1.212 0 110 2.424 1.212 1.212 0 010-2.424z" fill="#C8C4C2"/><path d="M78.091 75.455a1.212 1.212 0 110 2.424 1.212 1.212 0 010-2.424z" fill="#C8C4C2"/><path d="M80.513 75.455a1.212 1.212 0 110 2.424 1.212 1.212 0 010-2.424zm-46.059 2.424a1.212 1.212 0 110 2.424 1.212 1.212 0 010-2.424zm7.274 0a1.212 1.212 0 110 2.424 1.212 1.212 0 010-2.424z" fill="#C8C4C2"/><path d="M44.15 77.879a1.212 1.212 0 110 2.424 1.212 1.212 0 010-2.424zm12.12 0a1.212 1.212 0 110 2.424 1.212 1.212 0 010-2.424zm9.7 0a1.212 1.212 0 110 2.424 1.212 1.212 0 010-2.424zm7.273 0a1.212 1.212 0 110 2.424 1.212 1.212 0 010-2.424z" fill="#C8C4C2"/><path d="M75.665 77.879a1.212 1.212 0 110 2.424 1.212 1.212 0 010-2.424zm4.848 0a1.212 1.212 0 110 2.424 1.212 1.212 0 010-2.424z" fill="#C8C4C2"/><path d="M82.939 77.879a1.212 1.212 0 110 2.424 1.212 1.212 0 010-2.424zm-43.637 2.424a1.212 1.212 0 110 2.424 1.212 1.212 0 010-2.424z" fill="#C8C4C2"/><path d="M41.728 80.303a1.212 1.212 0 110 2.424 1.212 1.212 0 010-2.424zm4.847 0a1.212 1.212 0 110 2.424 1.212 1.212 0 010-2.424z" fill="#C8C4C2"/><path d="M49.001 80.303a1.212 1.212 0 110 2.424 1.212 1.212 0 010-2.424z" fill="#C8C4C2"/><path d="M51.423 80.303a1.212 1.212 0 110 2.424 1.212 1.212 0 010-2.424z" fill="#C8C4C2"/><path d="M53.849 80.303a1.212 1.212 0 110 2.424 1.212 1.212 0 010-2.424z" fill="#C8C4C2"/><path d="M56.27 80.303a1.212 1.212 0 110 2.424 1.212 1.212 0 010-2.424z" fill="#C8C4C2"/><path d="M58.697 80.303a1.212 1.212 0 110 2.424 1.212 1.212 0 010-2.424zm4.847 0a1.212 1.212 0 110 2.424 1.212 1.212 0 010-2.424zm4.848 0a1.212 1.212 0 110 2.424 1.212 1.212 0 010-2.424zm7.273 0a1.212 1.212 0 110 2.424 1.212 1.212 0 010-2.424zm-36.363 2.424a1.212 1.212 0 110 2.424 1.212 1.212 0 010-2.424zm4.848 0a1.212 1.212 0 110 2.424 1.212 1.212 0 010-2.424zm4.847 0a1.212 1.212 0 110 2.425 1.212 1.212 0 010-2.425z" fill="#C8C4C2"/><path d="M51.423 82.727a1.212 1.212 0 110 2.425 1.212 1.212 0 010-2.425z" fill="#C8C4C2"/><path d="M53.849 82.727a1.212 1.212 0 110 2.425 1.212 1.212 0 010-2.425zm4.848 0a1.212 1.212 0 110 2.425 1.212 1.212 0 010-2.425z" fill="#C8C4C2"/><path d="M61.122 82.727a1.212 1.212 0 110 2.425 1.212 1.212 0 010-2.425z" fill="#C8C4C2"/><path d="M63.544 82.727a1.212 1.212 0 110 2.425 1.212 1.212 0 010-2.425z" fill="#C8C4C2"/><path d="M65.97 82.727a1.212 1.212 0 110 2.425 1.212 1.212 0 010-2.425z" fill="#C8C4C2"/><path d="M68.392 82.727a1.212 1.212 0 110 2.425 1.212 1.212 0 010-2.425z" fill="#C8C4C2"/><path d="M70.817 82.727a1.212 1.212 0 110 2.425 1.212 1.212 0 010-2.425z" fill="#C8C4C2"/><path d="M73.243 82.727a1.212 1.212 0 110 2.425 1.212 1.212 0 010-2.425zm9.696 0a1.212 1.212 0 110 2.425 1.212 1.212 0 010-2.425zM25.024 14.85H19.64a5.797 5.797 0 00-5.556 4.101 5.637 5.637 0 00-.237 1.626v5.51c0 3.16 2.6 5.729 5.793 5.729h5.382c3.194 0 5.794-2.57 5.794-5.73v-5.51c0-3.157-2.6-5.726-5.793-5.726zm3.248 11.237c0 1.755-1.457 3.183-3.249 3.183l-2.69.001h-2.691c-1.792 0-3.249-1.429-3.249-3.184v-5.51c0-.549.142-1.065.393-1.516.24-.434.581-.807.992-1.09a3.276 3.276 0 011.863-.576h5.383c1.79 0 3.248 1.427 3.248 3.182v5.51zM78.356 14.85h-5.383a5.797 5.797 0 00-5.556 4.101 5.621 5.621 0 00-.237 1.626v5.51c0 3.16 2.6 5.729 5.793 5.729h5.382c3.194 0 5.794-2.57 5.794-5.73v-5.51c0-3.157-2.6-5.726-5.793-5.726zm3.248 11.237c0 1.755-1.457 3.183-3.249 3.183l-2.69.001h-2.691c-1.792 0-3.249-1.429-3.249-3.184v-5.51c0-.549.142-1.065.393-1.516.24-.434.582-.807.992-1.09a3.276 3.276 0 011.863-.576h5.383c1.79 0 3.248 1.427 3.248 3.182v5.51zm-56.58 42.096H19.64a5.798 5.798 0 00-5.556 4.102 5.637 5.637 0 00-.237 1.626v5.51c0 3.16 2.6 5.729 5.793 5.729h5.382c3.194 0 5.794-2.57 5.794-5.73v-5.51c0-3.157-2.6-5.727-5.793-5.727zm3.248 11.238c0 1.755-1.457 3.183-3.249 3.183l-2.69.001h-2.691c-1.792 0-3.249-1.429-3.249-3.184v-5.51c0-.549.142-1.065.393-1.516.24-.434.581-.807.992-1.09a3.276 3.276 0 011.863-.576h5.383c1.79 0 3.248 1.427 3.248 3.182v5.51z" fill="#C8C4C2"/><path d="M20.685 26.97c-1.097 0-1.99-.875-1.99-1.95v-3.374c0-.336.087-.652.24-.928a2.008 2.008 0 011.75-1.02h3.296c1.096-.001 1.989.873 1.989 1.948v3.374c0 1.075-.893 1.95-1.99 1.95h-3.295zm53.332 0c-1.097 0-1.99-.875-1.99-1.95v-3.374c0-.336.088-.652.24-.928a2.008 2.008 0 011.749-1.02h3.297c1.096-.001 1.99.873 1.99 1.948v3.374c0 1.075-.894 1.95-1.99 1.95h-3.296zM20.685 80.303c-1.097 0-1.99-.875-1.99-1.95V74.98c0-.336.087-.652.24-.928a2.008 2.008 0 011.75-1.02h3.296c1.096 0 1.989.873 1.989 1.948v3.374c0 1.075-.893 1.95-1.99 1.95h-3.295zm28.32-34.86c.762 0 1.27-.489 1.27-1.212S49.767 43 49.005 43c-.802 0-1.31.508-1.31 1.231 0 .723.508 1.212 1.31 1.212zM47.87 56.68h2.404c.235 0 .41-.098.41-.254v-.078c0-.371-.781-.371-.781-1.056v-7.836c0-.274-.196-.47-.606-.274l-1.505.743c-.176.098-.293.156-.293.293v.039c0 .293.703.45.703 1.212v5.823c0 .684-.703.684-.703 1.056v.078c0 .156.137.254.371.254z" fill="#C8C4C2"/><rect x="4.5" y="4.5" width="89" height="89" rx="9.5" stroke="#625E5C"/><rect x=".5" y=".5" width="97" height="97" rx="12.5" stroke="#625E5C"/></svg>