<svg width="113" height="136" fill="none" xmlns="http://www.w3.org/2000/svg"><path d="M21.941 120.072c-2.316 0-4.068-1.572-4.068-4.164 0-2.592 1.752-4.224 4.068-4.224s4.068 1.584 4.068 4.176-1.752 4.212-4.068 4.212zm0-1.272c1.428 0 2.58-1.092 2.58-2.916 0-1.836-1.152-2.916-2.58-2.916-1.428 0-2.58 1.08-2.58 2.916 0 1.824 1.152 2.916 2.58 2.916zm8.72-7.032c1.74 0 2.88.888 2.88 2.532 0 1.632-1.14 2.568-2.88 2.568h-1.823V120h-1.464v-8.232h3.288zm0 3.876c.913 0 1.393-.564 1.393-1.332 0-.756-.48-1.32-1.392-1.32h-1.824v2.652h1.824zm5.51 3.108h4.26V120h-5.724v-8.232h5.652v1.248H36.17v2.148h3.756v1.224H36.17v2.364zm11.021-6.984h1.44V120h-1.404l-3.936-6v6h-1.44v-8.232h1.404l3.936 6.024v-6.024zm7.252.444c0 .552-.42.936-.96.936s-.96-.384-.96-.936c0-.528.42-.924.96-.924s.96.396.96.924zM52.74 120v-5.88h1.464V120H52.74zm6.396-8.232c1.74 0 2.88.888 2.88 2.532 0 1.632-1.14 2.568-2.88 2.568h-1.824V120h-1.464v-8.232h3.288zm0 3.876c.912 0 1.392-.564 1.392-1.332 0-.756-.48-1.32-1.392-1.32h-1.824v2.652h1.824zm9.373-3.876h1.464V120h-1.464v-3.576h-3.864V120h-1.464v-8.232h1.464v3.372h3.864v-3.372zm6.906 8.304c-2.316 0-4.068-1.572-4.068-4.164 0-2.592 1.752-4.224 4.068-4.224s4.068 1.584 4.068 4.176-1.752 4.212-4.068 4.212zm0-1.272c1.428 0 2.58-1.092 2.58-2.916 0-1.836-1.152-2.916-2.58-2.916-1.428 0-2.58 1.08-2.58 2.916 0 1.824 1.152 2.916 2.58 2.916zm10.772-7.032h1.44V120h-1.404l-3.936-6v6h-1.44v-8.232h1.404l3.936 6.024v-6.024zm4.746 6.984h4.26V120H89.47v-8.232h5.652v1.248h-4.188v2.148h3.756v1.224h-3.756v2.364zM5.98 131.788c1.416 0 2.016-.804 2.16-1.788h1.452c-.192 1.752-1.308 3.072-3.648 3.072-2.22 0-3.804-1.62-3.804-4.188 0-2.532 1.608-4.2 3.804-4.2 2.304 0 3.468 1.32 3.648 3.096H8.14c-.144-.996-.78-1.812-2.16-1.812-1.332 0-2.364 1.116-2.364 2.916.012 1.836 1.02 2.904 2.364 2.904zM16.064 133l-.636-1.872h-3.432L11.36 133H9.884l2.976-8.232h1.704L17.54 133h-1.476zm-3.648-3.072h2.592l-1.296-3.792-1.296 3.792zm12.376-5.16h2.064L26.844 133h-1.416v-6.648L23.22 133h-1.092l-2.208-6.648V133h-1.416l-.012-8.232h2.064l2.124 6.492 2.112-6.492zm5.38 6.984h4.26V133h-5.724v-8.232h5.652v1.248h-4.188v2.148h3.756v1.224h-3.756v2.364zm12.282.024l.084 1.176c-.204.06-.468.108-.792.108-1.152 0-1.596-.54-2.016-1.332l-.972-1.836h-1.44V133h-1.464v-8.232h3.192c1.752 0 2.892.912 2.892 2.58 0 1.176-.624 1.968-1.596 2.328l.84 1.62c.216.432.492.54.792.54.204 0 .36-.024.48-.06zm-5.136-5.784v2.736h1.728c.924 0 1.404-.564 1.404-1.368 0-.804-.48-1.368-1.404-1.368h-1.728zM48.936 133l-.636-1.872h-3.432L44.232 133h-1.476l2.976-8.232h1.704L50.412 133h-1.476zm-3.648-3.072h2.592l-1.296-3.792-1.296 3.792zM58.493 133l-.637-1.872h-3.431L53.788 133h-1.477l2.977-8.232h1.703L59.97 133h-1.477zm-3.649-3.072h2.593l-1.296-3.792-1.297 3.792zm11.428-5.16h1.44V133h-1.404l-3.936-6v6h-1.44v-8.232h1.404l3.936 6.024v-6.024zm6.414 0c2.352 0 3.972 1.524 3.972 4.116 0 2.592-1.62 4.116-3.972 4.116h-3.132v-8.232h3.132zm0 7.008c1.464 0 2.496-1.008 2.496-2.892s-1.032-2.88-2.496-2.88h-1.668v5.76l1.668.012zm8.936-4.8c0 1.932 4.74.396 4.74 3.792 0 1.404-1.296 2.304-3.204 2.304-2.004 0-3.192-.9-3.192-2.508l1.464.012c0 .804.624 1.26 1.8 1.26 1.056 0 1.668-.384 1.668-1.068 0-2.016-4.74-.48-4.74-3.756-.012-1.392 1.224-2.328 3.06-2.328 1.872 0 3.024.924 3.024 2.472h-1.464c0-.84-.588-1.236-1.584-1.236-1.08 0-1.572.384-1.572 1.056zm9.472 4.812c1.416 0 2.016-.804 2.16-1.788h1.452c-.192 1.752-1.308 3.072-3.648 3.072-2.22 0-3.804-1.62-3.804-4.188 0-2.532 1.608-4.2 3.804-4.2 2.304 0 3.468 1.32 3.648 3.096h-1.452c-.144-.996-.78-1.812-2.16-1.812-1.332 0-2.364 1.116-2.364 2.916.012 1.836 1.02 2.904 2.364 2.904zM101.179 133l-.636-1.872h-3.432L96.475 133h-1.476l2.976-8.232h1.704l2.976 8.232h-1.476zm-3.648-3.072h2.592l-1.296-3.792-1.296 3.792zm11.428-5.16h1.44V133h-1.404l-3.936-6v6h-1.44v-8.232h1.404l3.936 6.024v-6.024z" fill="#C8C4C2"/><rect x="12" y="4" width="90" height="90" rx="10" fill="#D8A88B"/><rect x="8.5" y=".5" width="97" height="97" rx="12.5" stroke="#D8A88B"/><path d="M44.876 14.849a1.212 1.212 0 110 2.424 1.212 1.212 0 010-2.424zm7.274 0a1.212 1.212 0 110 2.424 1.212 1.212 0 010-2.424z" fill="#000"/><path d="M54.575 14.849a1.212 1.212 0 110 2.424 1.212 1.212 0 010-2.424z" fill="#000"/><path d="M56.997 14.849a1.212 1.212 0 110 2.424 1.212 1.212 0 010-2.424zm4.852 0a1.212 1.212 0 110 2.424 1.212 1.212 0 010-2.424z" fill="#000"/><path d="M64.27 14.849a1.212 1.212 0 110 2.424 1.212 1.212 0 010-2.424zm4.852 0a1.212 1.212 0 110 2.424 1.212 1.212 0 010-2.424z" fill="#000"/><path d="M71.544 14.849a1.212 1.212 0 110 2.424 1.212 1.212 0 010-2.424zm-29.09 2.424a1.212 1.212 0 110 2.424 1.212 1.212 0 010-2.424z" fill="#000"/><path d="M44.876 17.273a1.212 1.212 0 110 2.424 1.212 1.212 0 010-2.424z" fill="#000"/><path d="M47.302 17.273a1.212 1.212 0 110 2.424 1.212 1.212 0 010-2.424z" fill="#000"/><path d="M49.728 17.273a1.212 1.212 0 110 2.424 1.212 1.212 0 010-2.424zm4.847 0a1.212 1.212 0 110 2.424 1.212 1.212 0 010-2.424zm7.274 0a1.212 1.212 0 110 2.424 1.212 1.212 0 010-2.424zm9.695 0a1.212 1.212 0 110 2.424 1.212 1.212 0 010-2.424zm-29.09 2.424a1.212 1.212 0 110 2.424 1.212 1.212 0 010-2.424z" fill="#000"/><path d="M44.876 19.697a1.212 1.212 0 110 2.425 1.212 1.212 0 010-2.425z" fill="#000"/><path d="M47.302 19.697a1.212 1.212 0 110 2.424 1.212 1.212 0 010-2.424z" fill="#000"/><path d="M49.728 19.697a1.212 1.212 0 110 2.425 1.212 1.212 0 010-2.425z" fill="#000"/><path d="M52.15 19.697a1.212 1.212 0 110 2.424 1.212 1.212 0 010-2.424z" fill="#000"/><path d="M54.575 19.697a1.212 1.212 0 110 2.424 1.212 1.212 0 010-2.424z" fill="#000"/><path d="M56.997 19.697a1.212 1.212 0 110 2.425 1.212 1.212 0 010-2.425z" fill="#000"/><path d="M59.423 19.697a1.212 1.212 0 110 2.425 1.212 1.212 0 010-2.425z" fill="#000"/><path d="M61.849 19.697a1.212 1.212 0 110 2.425 1.212 1.212 0 010-2.425z" fill="#000"/><path d="M64.27 19.697a1.212 1.212 0 110 2.424 1.212 1.212 0 010-2.424z" fill="#000"/><path d="M66.697 19.697a1.212 1.212 0 110 2.424 1.212 1.212 0 010-2.424z" fill="#000"/><path d="M69.122 19.697a1.212 1.212 0 110 2.425 1.212 1.212 0 010-2.425z" fill="#000"/><path d="M71.544 19.697a1.212 1.212 0 110 2.425 1.212 1.212 0 010-2.425zm-29.09 2.424a1.212 1.212 0 110 2.424 1.212 1.212 0 010-2.424z" fill="#000"/><path d="M44.876 22.121a1.212 1.212 0 110 2.424 1.212 1.212 0 010-2.424z" fill="#000"/><path d="M47.302 22.121a1.212 1.212 0 110 2.424 1.212 1.212 0 010-2.424z" fill="#000"/><path d="M49.728 22.121a1.212 1.212 0 110 2.424 1.212 1.212 0 010-2.424z" fill="#000"/><path d="M52.15 22.121a1.212 1.212 0 110 2.424 1.212 1.212 0 010-2.424zm7.273 0a1.212 1.212 0 110 2.424 1.212 1.212 0 010-2.424zm4.847 0a1.212 1.212 0 110 2.424 1.212 1.212 0 010-2.424z" fill="#000"/><path d="M66.697 22.121a1.212 1.212 0 110 2.424 1.212 1.212 0 010-2.424zm4.847 0a1.212 1.212 0 110 2.424 1.212 1.212 0 010-2.424zm-29.09 2.425a1.212 1.212 0 110 2.424 1.212 1.212 0 010-2.424zm4.848 0a1.212 1.212 0 110 2.424 1.212 1.212 0 010-2.424zm4.848 0a1.212 1.212 0 110 2.424 1.212 1.212 0 010-2.424z" fill="#000"/><path d="M54.575 24.546a1.212 1.212 0 110 2.424 1.212 1.212 0 010-2.424z" fill="#000"/><path d="M57.001 24.546a1.212 1.212 0 110 2.424 1.212 1.212 0 010-2.424z" fill="#000"/><path d="M59.423 24.546a1.212 1.212 0 110 2.424 1.212 1.212 0 010-2.424z" fill="#000"/><path d="M61.849 24.546a1.212 1.212 0 110 2.424 1.212 1.212 0 010-2.424zM42.454 26.97a1.212 1.212 0 110 2.424 1.212 1.212 0 010-2.424zm4.848 0a1.212 1.212 0 110 2.424 1.212 1.212 0 010-2.424z" fill="#000"/><path d="M49.728 26.97a1.212 1.212 0 110 2.424 1.212 1.212 0 010-2.424z" fill="#000"/><path d="M52.15 26.97a1.212 1.212 0 110 2.424 1.212 1.212 0 010-2.424zm9.699 0a1.212 1.212 0 110 2.424 1.212 1.212 0 010-2.424z" fill="#000"/><path d="M64.27 26.97a1.212 1.212 0 110 2.424 1.212 1.212 0 010-2.424z" fill="#000"/><path d="M66.697 26.97a1.212 1.212 0 110 2.424 1.212 1.212 0 010-2.424zm4.847 0a1.212 1.212 0 110 2.424 1.212 1.212 0 010-2.424zm-29.09 2.425a1.212 1.212 0 110 2.424 1.212 1.212 0 010-2.424zm4.848 0a1.212 1.212 0 110 2.424 1.212 1.212 0 010-2.424zm4.848 0a1.212 1.212 0 110 2.424 1.212 1.212 0 010-2.424zm4.851 0a1.212 1.212 0 110 2.424 1.212 1.212 0 010-2.424zm4.848 0a1.212 1.212 0 110 2.424 1.212 1.212 0 010-2.424zm4.848 0a1.212 1.212 0 110 2.424 1.212 1.212 0 010-2.424zm4.847 0a1.212 1.212 0 110 2.424 1.212 1.212 0 010-2.424z" fill="#000"/><path d="M61.849 31.818a1.212 1.212 0 110 2.425 1.212 1.212 0 010-2.425z" fill="#000"/><path d="M64.27 31.818a1.212 1.212 0 110 2.425 1.212 1.212 0 010-2.425zm7.274 0a1.212 1.212 0 110 2.425 1.212 1.212 0 010-2.425zm-43.637 2.424a1.212 1.212 0 110 2.425 1.212 1.212 0 010-2.425zm7.273 0a1.212 1.212 0 110 2.424 1.212 1.212 0 010-2.424z" fill="#000"/><path d="M37.607 34.242a1.212 1.212 0 110 2.424 1.212 1.212 0 010-2.424z" fill="#000"/><path d="M40.029 34.242a1.212 1.212 0 110 2.424 1.212 1.212 0 010-2.424z" fill="#000"/><path d="M42.454 34.242a1.212 1.212 0 110 2.424 1.212 1.212 0 010-2.424z" fill="#000"/><path d="M44.876 34.242a1.212 1.212 0 110 2.424 1.212 1.212 0 010-2.424zm7.274 0a1.212 1.212 0 110 2.424 1.212 1.212 0 010-2.424zm4.851 0a1.212 1.212 0 110 2.424 1.212 1.212 0 010-2.424zm4.848 0a1.212 1.212 0 110 2.425 1.212 1.212 0 010-2.425z" fill="#000"/><path d="M64.27 34.242a1.212 1.212 0 110 2.424 1.212 1.212 0 010-2.424zm7.274 0a1.212 1.212 0 110 2.424 1.212 1.212 0 010-2.424z" fill="#000"/><path d="M73.97 34.242a1.212 1.212 0 110 2.425 1.212 1.212 0 010-2.425zm4.848 0a1.212 1.212 0 110 2.424 1.212 1.212 0 010-2.424z" fill="#000"/><path d="M81.243 34.242a1.212 1.212 0 110 2.424 1.212 1.212 0 010-2.424z" fill="#000"/><path d="M83.665 34.242a1.212 1.212 0 110 2.425 1.212 1.212 0 010-2.425z" fill="#000"/><path d="M86.091 34.242a1.212 1.212 0 110 2.424 1.212 1.212 0 010-2.424z" fill="#000"/><path d="M88.513 34.242a1.212 1.212 0 110 2.424 1.212 1.212 0 010-2.424zM23.06 36.667a1.212 1.212 0 110 2.424 1.212 1.212 0 010-2.424zm7.273 0a1.212 1.212 0 110 2.424 1.212 1.212 0 010-2.424z" fill="#000"/><path d="M32.759 36.667a1.212 1.212 0 110 2.424 1.212 1.212 0 010-2.424z" fill="#000"/><path d="M35.18 36.667a1.212 1.212 0 110 2.424 1.212 1.212 0 010-2.424zm4.849 0a1.212 1.212 0 110 2.424 1.212 1.212 0 010-2.424zm4.847 0a1.212 1.212 0 110 2.424 1.212 1.212 0 010-2.424zm7.274 0a1.212 1.212 0 110 2.424 1.212 1.212 0 010-2.424z" fill="#000"/><path d="M54.575 36.667a1.212 1.212 0 110 2.424 1.212 1.212 0 010-2.424zm7.274 0a1.212 1.212 0 110 2.424 1.212 1.212 0 010-2.424z" fill="#000"/><path d="M64.27 36.667a1.212 1.212 0 110 2.424 1.212 1.212 0 010-2.424zm7.274 0a1.212 1.212 0 110 2.424 1.212 1.212 0 010-2.424zm4.848 0a1.212 1.212 0 110 2.424 1.212 1.212 0 010-2.424z" fill="#000"/><path d="M78.818 36.667a1.212 1.212 0 110 2.424 1.212 1.212 0 010-2.424zm4.847 0a1.212 1.212 0 110 2.424 1.212 1.212 0 010-2.424zm4.848 0a1.212 1.212 0 110 2.424 1.212 1.212 0 010-2.424z" fill="#000"/><path d="M90.939 36.667a1.212 1.212 0 110 2.424 1.212 1.212 0 010-2.424zM23.06 39.091a1.212 1.212 0 110 2.424 1.212 1.212 0 010-2.424z" fill="#000"/><path d="M25.486 39.09a1.212 1.212 0 110 2.425 1.212 1.212 0 010-2.424zm12.121 0a1.212 1.212 0 110 2.425 1.212 1.212 0 010-2.424zm33.937 0a1.212 1.212 0 110 2.425 1.212 1.212 0 010-2.424z" fill="#000"/><path d="M73.97 39.09a1.212 1.212 0 110 2.425 1.212 1.212 0 010-2.424zm7.273 0a1.212 1.212 0 110 2.425 1.212 1.212 0 010-2.424z" fill="#000"/><path d="M83.665 39.09a1.212 1.212 0 110 2.425 1.212 1.212 0 010-2.424zm7.274.001a1.212 1.212 0 110 2.424 1.212 1.212 0 010-2.424zm-65.453 2.425a1.212 1.212 0 110 2.424 1.212 1.212 0 010-2.424zm7.273 0a1.212 1.212 0 110 2.424 1.212 1.212 0 010-2.424zm7.27 0a1.212 1.212 0 110 2.424 1.212 1.212 0 010-2.424z" fill="#000"/><path d="M42.454 41.516a1.212 1.212 0 110 2.424 1.212 1.212 0 010-2.424z" fill="#000"/><path d="M44.876 41.516a1.212 1.212 0 110 2.424 1.212 1.212 0 010-2.424zm24.242 0a1.212 1.212 0 110 2.424 1.212 1.212 0 010-2.424z" fill="#000"/><path d="M71.544 41.516a1.212 1.212 0 110 2.424 1.212 1.212 0 010-2.424zm4.848 0a1.212 1.212 0 110 2.424 1.212 1.212 0 010-2.424z" fill="#000"/><path d="M78.818 41.516a1.212 1.212 0 110 2.424 1.212 1.212 0 010-2.424zm4.847 0a1.212 1.212 0 110 2.424 1.212 1.212 0 010-2.424zM27.907 43.94a1.212 1.212 0 110 2.424 1.212 1.212 0 010-2.424zm4.852 0a1.212 1.212 0 110 2.424 1.212 1.212 0 010-2.424zm4.848 0a1.212 1.212 0 110 2.424 1.212 1.212 0 010-2.424zm33.937 0a1.212 1.212 0 110 2.424 1.212 1.212 0 010-2.424z" fill="#000"/><path d="M73.97 43.94a1.212 1.212 0 110 2.424 1.212 1.212 0 010-2.424z" fill="#000"/><path d="M76.392 43.94a1.212 1.212 0 110 2.424 1.212 1.212 0 010-2.424zm12.121 0a1.212 1.212 0 110 2.424 1.212 1.212 0 010-2.424zM23.06 46.364a1.212 1.212 0 110 2.424 1.212 1.212 0 010-2.424zm7.273 0a1.212 1.212 0 110 2.424 1.212 1.212 0 010-2.424zm12.121 0a1.212 1.212 0 110 2.424 1.212 1.212 0 010-2.424zm26.664 0a1.212 1.212 0 110 2.424 1.212 1.212 0 010-2.424z" fill="#000"/><path d="M71.544 46.364a1.212 1.212 0 110 2.424 1.212 1.212 0 010-2.424zm4.848 0a1.212 1.212 0 110 2.424 1.212 1.212 0 010-2.424zm7.273 0a1.212 1.212 0 110 2.424 1.212 1.212 0 010-2.424zm4.848 0a1.212 1.212 0 110 2.424 1.212 1.212 0 010-2.424z" fill="#000"/><path d="M90.939 46.364a1.212 1.212 0 110 2.424 1.212 1.212 0 010-2.424zm-65.453 2.424a1.212 1.212 0 110 2.424 1.212 1.212 0 010-2.424z" fill="#000"/><path d="M27.907 48.788a1.212 1.212 0 110 2.424 1.212 1.212 0 010-2.424z" fill="#000"/><path d="M30.333 48.788a1.212 1.212 0 110 2.424 1.212 1.212 0 010-2.424zm4.847 0a1.212 1.212 0 110 2.424 1.212 1.212 0 010-2.424z" fill="#000"/><path d="M37.607 48.788a1.212 1.212 0 110 2.424 1.212 1.212 0 010-2.424zm4.847 0a1.212 1.212 0 110 2.424 1.212 1.212 0 010-2.424z" fill="#000"/><path d="M44.876 48.788a1.212 1.212 0 110 2.424 1.212 1.212 0 010-2.424zm24.246 0a1.212 1.212 0 110 2.424 1.212 1.212 0 010-2.424zm4.848 0a1.212 1.212 0 110 2.424 1.212 1.212 0 010-2.424z" fill="#000"/><path d="M76.392 48.788a1.212 1.212 0 110 2.424 1.212 1.212 0 010-2.424zm7.273 0a1.212 1.212 0 110 2.424 1.212 1.212 0 010-2.424z" fill="#000"/><path d="M86.091 48.788a1.212 1.212 0 110 2.424 1.212 1.212 0 010-2.424zm4.848 0a1.212 1.212 0 110 2.424 1.212 1.212 0 010-2.424zm-65.453 2.424a1.212 1.212 0 110 2.424 1.212 1.212 0 010-2.424z" fill="#000"/><path d="M27.907 51.212a1.212 1.212 0 110 2.424 1.212 1.212 0 010-2.424zm46.063 0a1.212 1.212 0 110 2.424 1.212 1.212 0 010-2.424z" fill="#000"/><path d="M76.392 51.212a1.212 1.212 0 110 2.424 1.212 1.212 0 010-2.424zm7.273 0a1.212 1.212 0 110 2.424 1.212 1.212 0 010-2.424zm4.848 0a1.212 1.212 0 110 2.424 1.212 1.212 0 010-2.424z" fill="#000"/><path d="M90.939 51.212a1.212 1.212 0 110 2.424 1.212 1.212 0 010-2.424zM23.06 53.636a1.212 1.212 0 110 2.425 1.212 1.212 0 010-2.425z" fill="#000"/><path d="M25.486 53.637a1.212 1.212 0 110 2.424 1.212 1.212 0 010-2.424zm12.121 0a1.212 1.212 0 110 2.424 1.212 1.212 0 010-2.424z" fill="#000"/><path d="M40.029 53.637a1.212 1.212 0 110 2.424 1.212 1.212 0 010-2.424z" fill="#000"/><path d="M42.454 53.637a1.212 1.212 0 110 2.424 1.212 1.212 0 010-2.424z" fill="#000"/><path d="M44.876 53.637a1.212 1.212 0 110 2.424 1.212 1.212 0 010-2.424zm26.668 0a1.212 1.212 0 110 2.424 1.212 1.212 0 010-2.424zm4.848 0a1.212 1.212 0 110 2.424 1.212 1.212 0 010-2.424z" fill="#000"/><path d="M78.818 53.636a1.212 1.212 0 110 2.425 1.212 1.212 0 010-2.425zM25.486 56.06a1.212 1.212 0 110 2.425 1.212 1.212 0 010-2.425zm50.906 0a1.212 1.212 0 110 2.425 1.212 1.212 0 010-2.425z" fill="#000"/><path d="M78.818 56.06a1.212 1.212 0 110 2.425 1.212 1.212 0 010-2.424zm12.121 0a1.212 1.212 0 110 2.425 1.212 1.212 0 010-2.424zM23.06 58.485a1.212 1.212 0 110 2.425 1.212 1.212 0 010-2.425z" fill="#000"/><path d="M25.486 58.485a1.212 1.212 0 110 2.425 1.212 1.212 0 010-2.425z" fill="#000"/><path d="M27.907 58.485a1.212 1.212 0 110 2.425 1.212 1.212 0 010-2.425z" fill="#000"/><path d="M30.333 58.485a1.212 1.212 0 110 2.424 1.212 1.212 0 010-2.424zm7.274 0a1.212 1.212 0 110 2.425 1.212 1.212 0 010-2.425zm4.847 0a1.212 1.212 0 110 2.424 1.212 1.212 0 010-2.424zm26.664 0a1.212 1.212 0 110 2.425 1.212 1.212 0 010-2.425zm9.7 0a1.212 1.212 0 110 2.424 1.212 1.212 0 010-2.424z" fill="#000"/><path d="M81.243 58.485a1.212 1.212 0 110 2.425 1.212 1.212 0 010-2.425zm9.696 0a1.212 1.212 0 110 2.425 1.212 1.212 0 010-2.425zm-58.18 2.425a1.212 1.212 0 110 2.423 1.212 1.212 0 010-2.424z" fill="#000"/><path d="M35.18 60.91a1.212 1.212 0 110 2.424 1.212 1.212 0 010-2.425zm7.274 0a1.212 1.212 0 110 2.423 1.212 1.212 0 010-2.424z" fill="#000"/><path d="M44.876 60.91a1.212 1.212 0 110 2.423 1.212 1.212 0 010-2.424zm7.274 0a1.212 1.212 0 110 2.423 1.212 1.212 0 010-2.424z" fill="#000"/><path d="M54.575 60.91a1.212 1.212 0 110 2.423 1.212 1.212 0 010-2.424zm4.848 0a1.212 1.212 0 110 2.423 1.212 1.212 0 010-2.424zm9.699 0a1.212 1.212 0 110 2.423 1.212 1.212 0 010-2.424z" fill="#000"/><path d="M71.544 60.91a1.212 1.212 0 110 2.423 1.212 1.212 0 010-2.424z" fill="#000"/><path d="M73.97 60.91a1.212 1.212 0 110 2.424 1.212 1.212 0 010-2.425z" fill="#000"/><path d="M76.392 60.91a1.212 1.212 0 110 2.423 1.212 1.212 0 010-2.424z" fill="#000"/><path d="M78.818 60.91a1.212 1.212 0 110 2.423 1.212 1.212 0 010-2.424zm9.695 0a1.212 1.212 0 110 2.423 1.212 1.212 0 010-2.424zM23.06 63.333a1.212 1.212 0 110 2.424 1.212 1.212 0 010-2.424z" fill="#000"/><path d="M25.486 63.333a1.212 1.212 0 110 2.424 1.212 1.212 0 010-2.424z" fill="#000"/><path d="M27.907 63.333a1.212 1.212 0 110 2.424 1.212 1.212 0 010-2.424zm4.852 0a1.212 1.212 0 110 2.424 1.212 1.212 0 010-2.424zm4.848 0a1.212 1.212 0 110 2.424 1.212 1.212 0 010-2.424z" fill="#000"/><path d="M40.029 63.333a1.212 1.212 0 110 2.424 1.212 1.212 0 010-2.424z" fill="#000"/><path d="M42.454 63.333a1.212 1.212 0 110 2.424 1.212 1.212 0 010-2.424zm16.969 0a1.212 1.212 0 110 2.424 1.212 1.212 0 010-2.424z" fill="#000"/><path d="M61.849 63.333a1.212 1.212 0 110 2.424 1.212 1.212 0 010-2.424zm4.848 0a1.212 1.212 0 110 2.424 1.212 1.212 0 010-2.424zm4.847 0a1.212 1.212 0 110 2.424 1.212 1.212 0 010-2.424z" fill="#000"/><path d="M73.97 63.333a1.212 1.212 0 110 2.424 1.212 1.212 0 010-2.424z" fill="#000"/><path d="M76.392 63.333a1.212 1.212 0 110 2.424 1.212 1.212 0 010-2.424z" fill="#000"/><path d="M78.818 63.333a1.212 1.212 0 110 2.424 1.212 1.212 0 010-2.424z" fill="#000"/><path d="M81.243 63.333a1.212 1.212 0 110 2.424 1.212 1.212 0 010-2.424z" fill="#000"/><path d="M83.665 63.333a1.212 1.212 0 110 2.424 1.212 1.212 0 010-2.424zm7.274 0a1.212 1.212 0 110 2.424 1.212 1.212 0 010-2.424zm-48.485 2.425a1.212 1.212 0 110 2.424 1.212 1.212 0 010-2.424z" fill="#000"/><path d="M44.876 65.758a1.212 1.212 0 110 2.424 1.212 1.212 0 010-2.424zm4.852 0a1.212 1.212 0 110 2.424 1.212 1.212 0 010-2.424zm4.847 0a1.212 1.212 0 110 2.424 1.212 1.212 0 010-2.424zm4.848 0a1.212 1.212 0 110 2.424 1.212 1.212 0 010-2.424z" fill="#000"/><path d="M61.849 65.758a1.212 1.212 0 110 2.424 1.212 1.212 0 010-2.424zm9.695 0a1.212 1.212 0 110 2.424 1.212 1.212 0 010-2.424zm9.699 0a1.212 1.212 0 110 2.424 1.212 1.212 0 010-2.424z" fill="#000"/><path d="M83.665 65.758a1.212 1.212 0 110 2.424 1.212 1.212 0 010-2.424zm7.274 0a1.212 1.212 0 110 2.424 1.212 1.212 0 010-2.424zm-48.485 2.424a1.212 1.212 0 110 2.424 1.212 1.212 0 010-2.424z" fill="#000"/><path d="M44.876 68.182a1.212 1.212 0 110 2.424 1.212 1.212 0 010-2.424z" fill="#000"/><path d="M47.302 68.182a1.212 1.212 0 110 2.424 1.212 1.212 0 010-2.424z" fill="#000"/><path d="M49.728 68.182a1.212 1.212 0 110 2.424 1.212 1.212 0 010-2.424z" fill="#000"/><path d="M52.15 68.182a1.212 1.212 0 110 2.424 1.212 1.212 0 010-2.424z" fill="#000"/><path d="M54.575 68.182a1.212 1.212 0 110 2.424 1.212 1.212 0 010-2.424zm9.695 0a1.212 1.212 0 110 2.424 1.212 1.212 0 010-2.424z" fill="#000"/><path d="M66.697 68.182a1.212 1.212 0 110 2.424 1.212 1.212 0 010-2.424zm4.847 0a1.212 1.212 0 110 2.424 1.212 1.212 0 010-2.424zm4.848 0a1.212 1.212 0 110 2.424 1.212 1.212 0 010-2.424zm4.851 0a1.212 1.212 0 110 2.424 1.212 1.212 0 010-2.424z" fill="#000"/><path d="M83.665 68.182a1.212 1.212 0 110 2.424 1.212 1.212 0 010-2.424z" fill="#000"/><path d="M86.091 68.182a1.212 1.212 0 110 2.424 1.212 1.212 0 010-2.424zm4.848 0a1.212 1.212 0 110 2.424 1.212 1.212 0 010-2.424zm-48.485 2.424a1.212 1.212 0 110 2.425 1.212 1.212 0 010-2.425z" fill="#000"/><path d="M44.876 70.606a1.212 1.212 0 110 2.425 1.212 1.212 0 010-2.425zm14.547 0a1.212 1.212 0 110 2.425 1.212 1.212 0 010-2.425z" fill="#000"/><path d="M61.849 70.606a1.212 1.212 0 110 2.425 1.212 1.212 0 010-2.425z" fill="#000"/><path d="M64.27 70.606a1.212 1.212 0 110 2.425 1.212 1.212 0 010-2.425zm4.852 0a1.212 1.212 0 110 2.425 1.212 1.212 0 010-2.425z" fill="#000"/><path d="M71.544 70.606a1.212 1.212 0 110 2.425 1.212 1.212 0 010-2.425zm9.699 0a1.212 1.212 0 110 2.425 1.212 1.212 0 010-2.425z" fill="#000"/><path d="M83.665 70.606a1.212 1.212 0 110 2.425 1.212 1.212 0 010-2.425zm7.274 0a1.212 1.212 0 110 2.424 1.212 1.212 0 010-2.424zM49.728 73.03a1.212 1.212 0 110 2.425 1.212 1.212 0 010-2.425zm14.542 0a1.212 1.212 0 110 2.424 1.212 1.212 0 010-2.424z" fill="#000"/><path d="M66.697 73.03a1.212 1.212 0 110 2.424 1.212 1.212 0 010-2.424z" fill="#000"/><path d="M69.122 73.03a1.212 1.212 0 110 2.425 1.212 1.212 0 010-2.425z" fill="#000"/><path d="M71.544 73.03a1.212 1.212 0 110 2.425 1.212 1.212 0 010-2.425z" fill="#000"/><path d="M73.97 73.03a1.212 1.212 0 110 2.425 1.212 1.212 0 010-2.425z" fill="#000"/><path d="M76.392 73.03a1.212 1.212 0 110 2.424 1.212 1.212 0 010-2.424z" fill="#000"/><path d="M78.818 73.03a1.212 1.212 0 110 2.425 1.212 1.212 0 010-2.424z" fill="#000"/><path d="M81.243 73.03a1.212 1.212 0 110 2.425 1.212 1.212 0 010-2.425zm7.27 0a1.212 1.212 0 110 2.424 1.212 1.212 0 010-2.424z" fill="#000"/><path d="M90.939 73.03a1.212 1.212 0 110 2.425 1.212 1.212 0 010-2.424zM52.15 75.455a1.212 1.212 0 110 2.424 1.212 1.212 0 010-2.424z" fill="#000"/><path d="M54.575 75.455a1.212 1.212 0 110 2.424 1.212 1.212 0 010-2.424z" fill="#000"/><path d="M57.001 75.455a1.212 1.212 0 110 2.424 1.212 1.212 0 010-2.424zm4.848 0a1.212 1.212 0 110 2.424 1.212 1.212 0 010-2.424z" fill="#000"/><path d="M64.27 75.455a1.212 1.212 0 110 2.424 1.212 1.212 0 010-2.424zm4.848 0a1.212 1.212 0 110 2.424 1.212 1.212 0 010-2.424z" fill="#000"/><path d="M71.544 75.455a1.212 1.212 0 110 2.424 1.212 1.212 0 010-2.424zm7.274 0a1.212 1.212 0 110 2.424 1.212 1.212 0 010-2.424z" fill="#000"/><path d="M81.243 75.455a1.212 1.212 0 110 2.424 1.212 1.212 0 010-2.424z" fill="#000"/><path d="M83.665 75.455a1.212 1.212 0 110 2.424 1.212 1.212 0 010-2.424z" fill="#000"/><path d="M86.091 75.455a1.212 1.212 0 110 2.424 1.212 1.212 0 010-2.424z" fill="#000"/><path d="M88.513 75.455a1.212 1.212 0 110 2.424 1.212 1.212 0 010-2.424zm-46.059 2.424a1.212 1.212 0 110 2.424 1.212 1.212 0 010-2.424zm7.274 0a1.212 1.212 0 110 2.424 1.212 1.212 0 010-2.424z" fill="#000"/><path d="M52.15 77.879a1.212 1.212 0 110 2.424 1.212 1.212 0 010-2.424zm12.12 0a1.212 1.212 0 110 2.424 1.212 1.212 0 010-2.424zm9.7 0a1.212 1.212 0 110 2.424 1.212 1.212 0 010-2.424zm7.273 0a1.212 1.212 0 110 2.424 1.212 1.212 0 010-2.424z" fill="#000"/><path d="M83.665 77.879a1.212 1.212 0 110 2.424 1.212 1.212 0 010-2.424zm4.848 0a1.212 1.212 0 110 2.424 1.212 1.212 0 010-2.424z" fill="#000"/><path d="M90.939 77.879a1.212 1.212 0 110 2.424 1.212 1.212 0 010-2.424zm-43.637 2.424a1.212 1.212 0 110 2.424 1.212 1.212 0 010-2.424z" fill="#000"/><path d="M49.728 80.303a1.212 1.212 0 110 2.424 1.212 1.212 0 010-2.424zm4.847 0a1.212 1.212 0 110 2.424 1.212 1.212 0 010-2.424z" fill="#000"/><path d="M57.001 80.303a1.212 1.212 0 110 2.424 1.212 1.212 0 010-2.424z" fill="#000"/><path d="M59.423 80.303a1.212 1.212 0 110 2.424 1.212 1.212 0 010-2.424z" fill="#000"/><path d="M61.849 80.303a1.212 1.212 0 110 2.424 1.212 1.212 0 010-2.424z" fill="#000"/><path d="M64.27 80.303a1.212 1.212 0 110 2.424 1.212 1.212 0 010-2.424z" fill="#000"/><path d="M66.697 80.303a1.212 1.212 0 110 2.424 1.212 1.212 0 010-2.424zm4.847 0a1.212 1.212 0 110 2.424 1.212 1.212 0 010-2.424zm4.848 0a1.212 1.212 0 110 2.424 1.212 1.212 0 010-2.424zm7.273 0a1.212 1.212 0 110 2.424 1.212 1.212 0 010-2.424zm-36.363 2.424a1.212 1.212 0 110 2.425 1.212 1.212 0 010-2.425zm4.848.001a1.212 1.212 0 110 2.424 1.212 1.212 0 010-2.424zm4.847 0a1.212 1.212 0 110 2.424 1.212 1.212 0 010-2.424z" fill="#000"/><path d="M59.423 82.728a1.212 1.212 0 110 2.424 1.212 1.212 0 010-2.424z" fill="#000"/><path d="M61.849 82.728a1.212 1.212 0 110 2.424 1.212 1.212 0 010-2.424zm4.848 0a1.212 1.212 0 110 2.424 1.212 1.212 0 010-2.424z" fill="#000"/><path d="M69.122 82.728a1.212 1.212 0 110 2.424 1.212 1.212 0 010-2.424z" fill="#000"/><path d="M71.544 82.728a1.212 1.212 0 110 2.424 1.212 1.212 0 010-2.424z" fill="#000"/><path d="M73.97 82.728a1.212 1.212 0 110 2.424 1.212 1.212 0 010-2.424z" fill="#000"/><path d="M76.392 82.728a1.212 1.212 0 110 2.424 1.212 1.212 0 010-2.424z" fill="#000"/><path d="M78.818 82.727a1.212 1.212 0 110 2.425 1.212 1.212 0 010-2.425z" fill="#000"/><path d="M81.243 82.728a1.212 1.212 0 110 2.424 1.212 1.212 0 010-2.424zm9.696-.001a1.212 1.212 0 110 2.425 1.212 1.212 0 010-2.425zM33.024 14.85H27.64a5.797 5.797 0 00-5.556 4.101 5.64 5.64 0 00-.237 1.626v5.51c0 3.16 2.6 5.73 5.793 5.73h2.692l2.69-.001c3.194 0 5.794-2.57 5.794-5.73v-5.51c0-3.157-2.6-5.726-5.793-5.726zm3.248 11.237c0 1.756-1.457 3.184-3.249 3.184h-5.381c-1.792 0-3.249-1.429-3.249-3.184v-5.51c0-.548.142-1.065.393-1.516.24-.434.581-.807.992-1.09a3.276 3.276 0 011.863-.576h5.383c1.79 0 3.248 1.427 3.248 3.182v5.51zM86.356 14.85h-5.383a5.797 5.797 0 00-5.556 4.101 5.625 5.625 0 00-.237 1.626v5.51c0 3.16 2.6 5.73 5.793 5.73h2.692l2.69-.001c3.194 0 5.794-2.57 5.794-5.73v-5.51c0-3.157-2.6-5.726-5.793-5.726zm3.248 11.237c0 1.756-1.457 3.184-3.249 3.184h-5.381c-1.792 0-3.249-1.429-3.249-3.184v-5.51c0-.548.142-1.065.393-1.516.24-.434.582-.807.992-1.09a3.276 3.276 0 011.863-.576h5.383c1.79 0 3.248 1.427 3.248 3.182v5.51zm-56.58 42.097H27.64a5.797 5.797 0 00-5.556 4.102 5.64 5.64 0 00-.237 1.625v5.51c0 3.16 2.6 5.73 5.793 5.73h2.692l2.69-.001c3.194 0 5.794-2.57 5.794-5.73v-5.51c0-3.157-2.6-5.726-5.793-5.726zm3.248 11.237c0 1.755-1.457 3.184-3.249 3.184h-5.381c-1.792 0-3.249-1.429-3.249-3.184v-5.51c0-.548.142-1.065.393-1.516.24-.434.581-.807.992-1.09a3.276 3.276 0 011.863-.576h5.383c1.79 0 3.248 1.427 3.248 3.182v5.51z" fill="#000"/><path d="M28.686 26.97c-1.098 0-1.99-.875-1.99-1.95v-3.374c0-.336.087-.652.24-.928.147-.266.356-.495.607-.668a2.008 2.008 0 011.141-.353h3.297c1.096 0 1.99.874 1.99 1.949v3.374c0 1.075-.894 1.95-1.99 1.95h-3.295zm53.331 0c-1.097 0-1.99-.875-1.99-1.95v-3.374c0-.336.088-.652.24-.928a2.008 2.008 0 011.749-1.02h3.297c1.096 0 1.99.873 1.99 1.948v3.374c0 1.075-.894 1.95-1.99 1.95h-3.296zM28.686 80.303c-1.098 0-1.99-.875-1.99-1.95V74.98c0-.336.087-.651.24-.928a1.96 1.96 0 01.607-.667 2.008 2.008 0 011.141-.353h3.297c1.096 0 1.99.873 1.99 1.948v3.374c0 1.075-.894 1.95-1.99 1.95h-3.295zm28.319-34.86c.762 0 1.27-.489 1.27-1.212S57.767 43 57.005 43c-.802 0-1.31.508-1.31 1.231 0 .723.508 1.212 1.31 1.212zM55.87 56.68h2.404c.235 0 .41-.098.41-.254v-.078c0-.371-.781-.371-.781-1.056v-7.836c0-.274-.196-.47-.606-.274l-1.505.743c-.176.098-.293.156-.293.293v.039c0 .293.703.45.703 1.212v5.823c0 .684-.703.684-.703 1.056v.078c0 .156.137.254.371.254z" fill="#000"/></svg>