<svg width="134" height="45" fill="none" xmlns="http://www.w3.org/2000/svg"><g clip-path="url(#clip0_450_24975)"><path d="M123.329 0H10.677c-.41 0-.816 0-1.226.002-.343.003-.683.01-1.029.015C7.67.026 6.92.092 6.178.215A7.21 7.21 0 00.918 4.07a7.45 7.45 0 00-.7 2.142 14.683 14.683 0 00-.201 2.252C.007 8.81.005 9.155 0 9.5v26.004c.005.349.007.687.017 1.037.009.755.076 1.508.2 2.252.124.746.36 1.468.7 2.142.34.673.785 1.286 1.32 1.816.53.537 1.141.985 1.812 1.326.67.343 1.388.582 2.13.71a15.04 15.04 0 002.243.199c.346.008.686.012 1.03.012.409.002.814.002 1.225.002h112.652c.403 0 .811 0 1.214-.002.341 0 .691-.005 1.032-.012a14.83 14.83 0 002.24-.199 7.607 7.607 0 002.137-.71 7.053 7.053 0 001.811-1.326 7.21 7.21 0 001.323-1.816 7.447 7.447 0 00.693-2.142c.125-.745.194-1.497.208-2.252.004-.35.004-.688.004-1.037.009-.41.009-.816.009-1.231V10.728c0-.412 0-.82-.009-1.228 0-.345 0-.691-.004-1.036a15.317 15.317 0 00-.208-2.252 7.472 7.472 0 00-.693-2.141 7.26 7.26 0 00-3.134-3.15 7.564 7.564 0 00-2.137-.706c-.74-.124-1.489-.19-2.24-.198-.341-.006-.691-.013-1.032-.015C124.14 0 123.732 0 123.329 0z" fill="#A6A6A6"/><path d="M9.456 44.016c-.34 0-.674-.005-1.012-.012-.701-.01-1.401-.07-2.093-.184a6.567 6.567 0 01-1.855-.616A6.053 6.053 0 012.93 42.06a5.983 5.983 0 01-1.143-1.571 6.459 6.459 0 01-.608-1.864 14.027 14.027 0 01-.186-2.11c-.007-.237-.016-1.027-.016-1.027V9.5s.01-.778.016-1.006c.009-.706.07-1.41.185-2.107.107-.65.312-1.28.609-1.87a6.044 6.044 0 011.137-1.572 6.234 6.234 0 013.421-1.762 14.03 14.03 0 012.1-.185L9.458.984h115.08L125.56 1c.697.008 1.393.07 2.081.183a6.627 6.627 0 011.871.616 6.276 6.276 0 012.704 2.722 6.52 6.52 0 01.6 1.855c.116.702.181 1.412.194 2.123.004.32.004.661.004 1.002.008.422.008.823.008 1.228v23.545c0 .409 0 .807-.008 1.21 0 .365 0 .7-.005 1.045a14.427 14.427 0 01-.191 2.086 6.5 6.5 0 01-.605 1.878 6.168 6.168 0 01-1.137 1.56 6.08 6.08 0 01-1.567 1.15 6.556 6.556 0 01-1.868.618c-.692.114-1.392.175-2.093.184a47.7 47.7 0 01-1.005.012l-1.214.002-113.873-.002z" fill="#000"/><path d="M27.736 22.838c.012-.939.26-1.86.722-2.676a5.556 5.556 0 011.917-1.995 5.682 5.682 0 00-1.949-1.744 5.651 5.651 0 00-2.52-.683c-1.88-.199-3.704 1.13-4.662 1.13-.977 0-2.452-1.11-4.04-1.078a5.933 5.933 0 00-2.908.872 5.967 5.967 0 00-2.101 2.197c-2.166 3.767-.55 9.303 1.524 12.348 1.038 1.491 2.25 3.157 3.838 3.098 1.553-.065 2.133-.995 4.008-.995 1.858 0 2.402.995 4.021.957 1.667-.027 2.717-1.497 3.719-3.003a12.355 12.355 0 001.7-3.479 5.36 5.36 0 01-2.376-1.98 5.398 5.398 0 01-.893-2.969zm-3.059-9.101a5.498 5.498 0 001.248-3.927 5.543 5.543 0 00-3.592 1.867 5.22 5.22 0 00-1.28 3.782 4.573 4.573 0 003.624-1.722zM47.37 30.532h-5.3l-1.273 3.776h-2.245l5.02-13.97h2.333l5.02 13.97h-2.283l-1.272-3.776zm-4.75-1.742h4.201l-2.071-6.128h-.058L42.62 28.79zm19.148.426c0 3.165-1.686 5.199-4.231 5.199a3.425 3.425 0 01-1.85-.43 3.445 3.445 0 01-1.34-1.352h-.048v5.045h-2.081V24.123h2.014v1.694h.038a3.605 3.605 0 011.367-1.349 3.583 3.583 0 011.862-.452c2.573 0 4.269 2.044 4.269 5.2zm-2.14 0c0-2.062-1.06-3.418-2.678-3.418-1.59 0-2.66 1.384-2.66 3.418 0 2.052 1.07 3.427 2.66 3.427 1.618 0 2.679-1.346 2.679-3.427zm13.299 0c0 3.165-1.687 5.199-4.231 5.199a3.425 3.425 0 01-1.85-.43 3.445 3.445 0 01-1.34-1.352h-.049v5.045h-2.08V24.123h2.014v1.694h.038a3.604 3.604 0 011.367-1.349 3.583 3.583 0 011.861-.452c2.573 0 4.27 2.044 4.27 5.2zm-2.14 0c0-2.062-1.06-3.418-2.679-3.418-1.59 0-2.66 1.384-2.66 3.418 0 2.052 1.07 3.427 2.66 3.427 1.619 0 2.68-1.346 2.68-3.427zm9.514 1.2c.155 1.385 1.494 2.295 3.325 2.295 1.754 0 3.016-.91 3.016-2.16 0-1.083-.761-1.733-2.563-2.178l-1.803-.436c-2.553-.62-3.739-1.82-3.739-3.766 0-2.41 2.091-4.066 5.06-4.066 2.939 0 4.953 1.656 5.02 4.066h-2.1c-.126-1.394-1.273-2.236-2.95-2.236-1.676 0-2.823.852-2.823 2.09 0 .989.733 1.57 2.525 2.015l1.532.378c2.853.678 4.039 1.829 4.039 3.872 0 2.614-2.072 4.25-5.368 4.25-3.084 0-5.166-1.598-5.3-4.124h2.13zm13.03-8.704v2.41h1.928v1.656h-1.928v5.615c0 .873.386 1.28 1.234 1.28.228-.005.457-.02.684-.05v1.647a5.694 5.694 0 01-1.156.096c-2.052 0-2.853-.774-2.853-2.75v-5.838h-1.474v-1.655h1.474v-2.41h2.091zm3.045 7.504c0-3.205 1.878-5.219 4.808-5.219 2.939 0 4.809 2.014 4.809 5.219 0 3.213-1.86 5.218-4.809 5.218-2.948 0-4.808-2.005-4.808-5.218zm7.497 0c0-2.198-1.003-3.496-2.689-3.496-1.686 0-2.688 1.308-2.688 3.496 0 2.207 1.002 3.495 2.688 3.495 1.686 0 2.689-1.288 2.689-3.495zm3.836-5.093h1.985v1.733h.048a2.414 2.414 0 012.439-1.84c.24 0 .479.025.713.078v1.956a2.9 2.9 0 00-.935-.127 2.09 2.09 0 00-2.077 1.447 2.112 2.112 0 00-.092.897v6.041h-2.081V24.123zm14.78 7.194c-.28 1.849-2.073 3.117-4.366 3.117-2.949 0-4.78-1.985-4.78-5.17 0-3.194 1.841-5.267 4.693-5.267 2.805 0 4.569 1.936 4.569 5.024v.717h-7.161v.126a2.671 2.671 0 00.716 2.061 2.637 2.637 0 002.011.824c.492.046.986-.068 1.407-.326.422-.258.75-.646.935-1.107h1.976zm-7.035-3.04h5.068a2.458 2.458 0 00-.681-1.839 2.428 2.428 0 00-1.805-.746 2.56 2.56 0 00-2.387 1.592c-.13.315-.196.652-.195.993zM42.358 9.822a2.942 2.942 0 012.358.92 2.973 2.973 0 01.786 2.416c0 2.144-1.154 3.377-3.144 3.377h-2.414V9.822h2.414zm-1.376 5.764h1.26a2.092 2.092 0 001.674-.68 2.113 2.113 0 00.53-1.735 2.126 2.126 0 00-.539-1.722 2.107 2.107 0 00-1.665-.678h-1.26v4.815zM46.674 14a2.41 2.41 0 01.61-1.843 2.389 2.389 0 011.768-.786 2.38 2.38 0 011.768.786A2.402 2.402 0 0151.43 14a2.41 2.41 0 01-.609 1.845 2.39 2.39 0 01-1.769.788 2.38 2.38 0 01-1.77-.788A2.404 2.404 0 0146.675 14zm3.732 0c0-1.098-.49-1.74-1.352-1.74-.865 0-1.352.642-1.352 1.74 0 1.107.487 1.744 1.352 1.744.861 0 1.352-.642 1.352-1.744zm7.346 2.535h-1.033l-1.042-3.731H55.6l-1.038 3.731h-1.023l-1.39-5.066h1.01l.903 3.866h.074l1.037-3.866h.955l1.036 3.866h.08l.898-3.866h.995l-1.384 5.066zm2.553-5.065h.958v.804h.075a1.515 1.515 0 011.504-.903 1.632 1.632 0 011.324.52 1.651 1.651 0 01.422 1.364v3.28h-.995v-3.028c0-.814-.353-1.22-1.089-1.22a1.153 1.153 0 00-1.15.79 1.168 1.168 0 00-.054.494v2.964h-.995v-5.066zm5.868-1.978h.995v7.043h-.995V9.492zM68.552 14a2.412 2.412 0 01.61-1.843 2.39 2.39 0 011.768-.786 2.38 2.38 0 011.768.786 2.403 2.403 0 01.61 1.843 2.413 2.413 0 01-.609 1.845 2.39 2.39 0 01-1.769.788 2.38 2.38 0 01-1.77-.787A2.404 2.404 0 0168.552 14zm3.732 0c0-1.098-.491-1.74-1.353-1.74-.865 0-1.351.642-1.351 1.74 0 1.107.486 1.744 1.351 1.744.862 0 1.353-.642 1.353-1.744zm2.072 1.102c0-.912.676-1.437 1.875-1.512l1.366-.079v-.437c0-.535-.352-.837-1.032-.837-.556 0-.94.204-1.051.563h-.963c.101-.87.916-1.429 2.06-1.429 1.264 0 1.977.633 1.977 1.703v3.461h-.958v-.712h-.079a1.7 1.7 0 01-1.514.795 1.514 1.514 0 01-1.176-.383 1.53 1.53 0 01-.505-1.133zm3.241-.433v-.423l-1.231.08c-.695.046-1.01.283-1.01.73 0 .456.394.72.936.72a1.185 1.185 0 001.18-.648c.072-.143.114-.299.125-.459zM79.896 14c0-1.6.819-2.615 2.093-2.615a1.656 1.656 0 011.546.889h.075V9.492h.995v7.043h-.954v-.8h-.079a1.754 1.754 0 01-1.583.884c-1.283 0-2.093-1.015-2.093-2.62zm1.028 0c0 1.074.504 1.72 1.347 1.72.839 0 1.357-.655 1.357-1.716 0-1.056-.524-1.72-1.357-1.72-.838 0-1.347.65-1.347 1.716zm7.798 0a2.41 2.41 0 01.61-1.843 2.389 2.389 0 011.768-.786 2.38 2.38 0 011.768.786 2.402 2.402 0 01.61 1.843 2.41 2.41 0 01-.609 1.845 2.39 2.39 0 01-1.77.788 2.38 2.38 0 01-1.769-.788A2.401 2.401 0 0188.722 14zm3.732 0c0-1.098-.49-1.74-1.353-1.74-.865 0-1.351.642-1.351 1.74 0 1.107.486 1.744 1.351 1.744.862 0 1.353-.642 1.353-1.744zm2.359-2.53h.958v.804h.074a1.515 1.515 0 011.505-.903 1.633 1.633 0 011.324.52 1.65 1.65 0 01.421 1.364v3.28H98.1v-3.028c0-.814-.352-1.22-1.088-1.22a1.153 1.153 0 00-1.15.79 1.168 1.168 0 00-.054.494v2.964h-.995v-5.066zm9.905-1.262v1.284h1.093v.842h-1.093v2.605c0 .53.218.763.713.763.127 0 .254-.008.38-.023v.833c-.179.032-.36.05-.542.051-1.106 0-1.547-.391-1.547-1.368v-2.86h-.8v-.843h.8v-1.284h.996zm2.452-.716h.987v2.791h.078a1.548 1.548 0 011.538-.908 1.651 1.651 0 011.31.535 1.673 1.673 0 01.426 1.354v3.271h-.996v-3.024c0-.81-.375-1.219-1.078-1.219a1.174 1.174 0 00-1.204.777 1.18 1.18 0 00-.066.507v2.959h-.995V9.492zm10.142 5.675a2.053 2.053 0 01-2.185 1.466 2.286 2.286 0 01-2.251-1.628 2.304 2.304 0 01-.078-.987 2.348 2.348 0 01.561-1.856 2.324 2.324 0 011.764-.79c1.403 0 2.249.962 2.249 2.553v.349h-3.561v.056a1.349 1.349 0 00.803 1.343c.17.073.355.11.54.108a1.206 1.206 0 001.2-.614h.958zm-3.501-1.632h2.547a1.22 1.22 0 00-1.241-1.313 1.28 1.28 0 00-.928.38 1.295 1.295 0 00-.378.933z" fill="#fff"/></g><defs><clipPath id="clip0_450_24975"><path fill="#fff" d="M0 0h134v45H0z"/></clipPath></defs></svg>