<svg width="104" height="15" viewBox="0 0 104 15" fill="none" xmlns="http://www.w3.org/2000/svg">
<g clip-path="url(#clip0_163_99)">
<path d="M72.6625 2.7624C72.6629 2.7648 72.6633 2.76712 72.6636 2.76947C72.6647 2.77708 72.6665 2.78458 72.6682 2.79197C72.6686 2.79433 72.6693 2.79665 72.67 2.79897C72.6725 2.80765 72.6754 2.81615 72.6786 2.82437C72.6789 2.82512 72.6789 2.8259 72.6793 2.82662C72.6832 2.83597 72.6878 2.84505 72.6928 2.8538C72.6928 2.85426 72.6932 2.85476 72.6932 2.85522L79.0772 14.0102C79.0783 14.0121 79.0794 14.0138 79.0808 14.0157C79.0833 14.02 79.0858 14.0244 79.089 14.0285C79.0911 14.0316 79.0933 14.0345 79.0954 14.0375C79.0979 14.0407 79.1004 14.0439 79.1032 14.047C79.1057 14.0504 79.1089 14.0535 79.1118 14.0567C79.1143 14.0592 79.1164 14.0617 79.1189 14.064C79.1221 14.0672 79.1257 14.0702 79.1289 14.0732C79.1317 14.0754 79.1342 14.0775 79.1367 14.0797C79.1399 14.0824 79.1435 14.0849 79.147 14.0874C79.1499 14.0896 79.1531 14.0917 79.1559 14.0937C79.1595 14.0958 79.1627 14.0977 79.1659 14.0997C79.1695 14.1018 79.1734 14.1038 79.177 14.1057C79.1798 14.1072 79.183 14.1086 79.1859 14.11C79.1901 14.112 79.1944 14.1138 79.1987 14.1155C79.2015 14.1167 79.2044 14.1176 79.2072 14.1186C79.2115 14.1202 79.2161 14.1217 79.2208 14.123C79.224 14.1238 79.2268 14.1245 79.2297 14.1253C79.2343 14.1263 79.2389 14.1274 79.2436 14.1282C79.2471 14.1289 79.2507 14.1293 79.2542 14.1298C79.2582 14.1304 79.2621 14.1309 79.2663 14.1313C79.2706 14.1316 79.2752 14.1317 79.2799 14.1318C79.2824 14.1319 79.2849 14.1322 79.2874 14.1322L81.1085 14.1184C81.1096 14.1184 81.1107 14.1182 81.1117 14.1182C81.1199 14.1179 81.1285 14.1173 81.1367 14.1163C81.1388 14.116 81.1406 14.1158 81.1427 14.1155C81.1619 14.1125 81.1805 14.1073 81.1983 14.0998C81.2004 14.0989 81.2025 14.098 81.2043 14.0971C81.2118 14.0938 81.2189 14.0902 81.2257 14.0862C81.2271 14.0853 81.2289 14.0845 81.2303 14.0836C81.2467 14.0736 81.262 14.0615 81.2763 14.0474C81.2777 14.0458 81.2791 14.0442 81.2805 14.0425C81.2859 14.037 81.2909 14.0311 81.2955 14.025C81.2973 14.023 81.2987 14.021 81.3001 14.0189C81.3058 14.0112 81.3112 14.0031 81.3161 13.9945C81.3161 13.9944 81.3161 13.9942 81.3165 13.994C81.3165 13.994 81.3165 13.9939 81.3165 13.9939L87.5859 2.74355C87.6283 2.66726 87.6276 2.57365 87.5841 2.49797L86.6614 0.899367C86.6611 0.898832 86.6607 0.898367 86.6604 0.897867C86.6554 0.889082 86.6497 0.880546 86.6436 0.872403C86.6436 0.872367 86.6436 0.872367 86.6436 0.872367C86.6376 0.864653 86.6312 0.857403 86.624 0.850439C86.6226 0.848974 86.6212 0.847582 86.6198 0.846153C86.6141 0.840582 86.608 0.83526 86.6016 0.830189C86.6002 0.828975 86.5988 0.827689 86.597 0.826546C86.5891 0.820653 86.5813 0.815082 86.5724 0.810082C86.5639 0.805153 86.5553 0.80101 86.5464 0.79726C86.5457 0.796974 86.545 0.796582 86.5443 0.796296C86.5144 0.783796 86.483 0.777867 86.452 0.778082C86.4513 0.778082 86.451 0.778189 86.4506 0.778189L73.7985 0.873867C73.7124 0.87451 73.633 0.921939 73.5906 0.998225L72.6921 2.61051C72.6917 2.61112 72.6914 2.61176 72.691 2.61237C72.6864 2.62112 72.6818 2.63015 72.6782 2.63955C72.6779 2.63994 72.6778 2.6404 72.6778 2.64083C72.6743 2.64937 72.6714 2.65819 72.6693 2.66715C72.6686 2.66958 72.6679 2.67197 72.6675 2.6744C72.6657 2.68165 72.6643 2.68897 72.6632 2.69644C72.6629 2.69901 72.6625 2.70155 72.6622 2.70408C72.6611 2.71322 72.6604 2.72247 72.6604 2.73187C72.6608 2.73233 72.6604 2.7328 72.6604 2.73326C72.6604 2.73333 72.6604 2.73344 72.6604 2.73355C72.6608 2.74333 72.6615 2.7529 72.6625 2.7624ZM86.4574 1.51487L87.0977 2.62444L81.1028 13.3817L76.0111 4.55933L77.2749 4.54976L80.8746 10.7863C80.8749 10.787 80.8756 10.7878 80.876 10.7885C80.8785 10.793 80.8813 10.7973 80.8845 10.8015C80.886 10.804 80.8877 10.8066 80.8895 10.809C80.8924 10.8128 80.8952 10.8163 80.8981 10.82C80.9006 10.8227 80.9027 10.8255 80.9048 10.828C80.9077 10.8309 80.9102 10.8335 80.913 10.8363C80.9162 10.8394 80.9191 10.8425 80.9223 10.8454C80.9244 10.8474 80.9269 10.8493 80.9294 10.8513C80.9333 10.8546 80.9372 10.8578 80.9412 10.8608C80.9433 10.8624 80.9458 10.8639 80.9479 10.8654C80.9522 10.8684 80.9568 10.8714 80.9615 10.8741C80.9622 10.8745 80.9629 10.8751 80.9636 10.8755C80.9654 10.8766 80.9675 10.8775 80.9693 10.8785C80.9736 10.8808 80.9778 10.8831 80.9825 10.8851C80.9857 10.8867 80.9892 10.8881 80.9928 10.8895C80.9964 10.891 80.9999 10.8925 81.0038 10.8938C81.0077 10.8953 81.012 10.8965 81.0163 10.8978C81.0195 10.8987 81.0223 10.8997 81.0256 10.9004C81.0302 10.9015 81.0348 10.9025 81.0394 10.9033C81.0423 10.9039 81.0455 10.9045 81.0487 10.9049C81.053 10.9055 81.0576 10.906 81.0622 10.9064C81.0654 10.9068 81.069 10.907 81.0722 10.9071C81.0765 10.9073 81.0807 10.9074 81.0847 10.9073C81.0886 10.9073 81.0922 10.9072 81.0961 10.907C81.1 10.9068 81.1035 10.9064 81.1075 10.906C81.1114 10.9056 81.1157 10.9051 81.1196 10.9044C81.1231 10.9039 81.1267 10.9032 81.1299 10.9025C81.1342 10.9017 81.1384 10.9007 81.1427 10.8997C81.1463 10.8987 81.1495 10.8977 81.153 10.8966C81.157 10.8954 81.1609 10.8942 81.1644 10.8927C81.1687 10.8913 81.1723 10.8896 81.1762 10.888C81.1794 10.8866 81.1826 10.8852 81.1858 10.8837C81.1904 10.8815 81.1951 10.879 81.1993 10.8765C81.2011 10.8755 81.2029 10.8747 81.2047 10.8737C81.2054 10.8733 81.2061 10.8728 81.2068 10.8724C81.2114 10.8695 81.2161 10.8663 81.2207 10.8631C81.2225 10.8617 81.2246 10.8603 81.2268 10.8587C81.231 10.8556 81.235 10.8522 81.2389 10.8488C81.241 10.8468 81.2435 10.845 81.2456 10.843C81.2485 10.84 81.2517 10.8368 81.2549 10.8336C81.2574 10.8309 81.2599 10.8282 81.2624 10.8254C81.2649 10.8227 81.267 10.8199 81.2691 10.8171C81.272 10.8135 81.2752 10.8099 81.2777 10.8061C81.2795 10.8037 81.2809 10.801 81.2827 10.7985C81.2855 10.7942 81.2884 10.7899 81.2909 10.7854C81.2912 10.7847 81.2919 10.7839 81.2923 10.7832L86.4574 1.51487ZM77.8323 4.54551L82.4194 4.51083L80.1563 8.57223L77.8323 4.54551ZM73.9413 1.3639L86.0375 1.27244L81.079 10.1708L80.4383 9.0613L83.9436 2.77108C83.9646 2.73358 83.9756 2.69105 83.9753 2.64797C83.9742 2.5123 83.8652 2.40319 83.732 2.40422L82.1356 2.4163C82.0024 2.4173 81.8952 2.52801 81.8963 2.66369C81.897 2.79933 82.0059 2.90844 82.1391 2.90744L83.3179 2.89851L82.6943 4.01758L77.411 4.05755C77.4106 4.05755 77.4106 4.05751 77.4103 4.05751L77.4099 4.05755L75.7287 4.07026L75.0884 2.96072L81.1744 2.91472C81.3076 2.91372 81.4148 2.80297 81.4137 2.66733C81.4127 2.53169 81.3037 2.42258 81.1705 2.42358L74.6671 2.47276L74.6668 2.47272C74.6664 2.47272 74.6664 2.47276 74.6664 2.47276L73.3178 2.48294L73.9413 1.3639ZM74.5314 2.96494L80.6869 13.6304L79.4237 13.64L73.3196 2.97412L74.5314 2.96494Z" fill="#FCF1EA"/>
<path d="M1.51795 0.989506H4.18047V14.0726H1.51795V0.989506ZM7.56913 0.989506H10.215L14.9557 5.76072L19.6965 0.989506H22.3424V14.0726H19.6965V4.66415L14.9557 9.24286L10.215 4.66415V14.0726H7.56913V0.989506ZM26.0565 0.989506H32.934C33.9356 0.989506 34.8036 1.09833 35.5381 1.31594C36.2725 1.53358 36.8818 1.84886 37.3661 2.26183C37.8501 2.66919 38.209 3.16865 38.4426 3.76015C38.682 4.35165 38.8016 5.01851 38.8016 5.76072C38.8016 6.45826 38.6848 7.10279 38.4512 7.69429C38.2172 8.28583 37.8583 8.79922 37.3743 9.23447C36.8957 9.66415 36.2892 10.0018 35.5548 10.2473C34.8203 10.4873 33.9523 10.6073 32.9507 10.6073L28.7024 10.5989V14.0726H26.0565V0.989506ZM33.0008 8.30536C33.5016 8.30536 33.9384 8.24676 34.3112 8.12958C34.6896 8.00679 35.004 7.83661 35.2543 7.61897C35.5103 7.39576 35.6995 7.1279 35.822 6.8154C35.9498 6.49733 36.0139 6.14576 36.0139 5.76072C36.0139 4.98504 35.7607 4.38236 35.2543 3.95269C34.7536 3.5174 34.0024 3.29976 33.0008 3.29976H28.7024V8.30536H33.0008ZM41.6979 0.989506H48.3334C49.3348 0.989506 50.203 1.09554 50.9373 1.30758C51.672 1.51404 52.2809 1.8154 52.7653 2.21161C53.2492 2.60779 53.6082 3.09051 53.8418 3.65972C54.0811 4.2289 54.2008 4.87344 54.2008 5.59329C54.2008 6.07879 54.1424 6.54197 54.0255 6.98279C53.9087 7.41808 53.7278 7.81986 53.4832 8.18815C53.2439 8.55647 52.9405 8.88572 52.5733 9.1759C52.2061 9.46047 51.7749 9.69765 51.2795 9.88736L54.1174 14.0726H50.8789L48.4249 10.3561H48.3498L44.3435 10.3478V14.0726H41.6979V0.989506ZM48.4 8.05422C48.9007 8.05422 49.3376 7.99565 49.7105 7.87844C50.0887 7.76126 50.4031 7.59665 50.6535 7.38458C50.9095 7.17254 51.0986 6.91583 51.2211 6.61451C51.349 6.30758 51.4131 5.96719 51.4131 5.59329C51.4131 4.86226 51.1627 4.29865 50.662 3.90243C50.161 3.50065 49.4071 3.29976 48.4 3.29976H44.3435V8.05422H48.4ZM56.5711 7.4934C56.5711 6.50569 56.752 5.60165 57.1138 4.78136C57.4752 3.96104 57.9816 3.25794 58.6326 2.67197C59.2893 2.08047 60.0738 1.62286 60.9865 1.29922C61.9046 0.975542 62.9202 0.813721 64.0328 0.813721C65.1403 0.813721 66.1531 0.975542 67.0711 1.29922C67.9892 1.62286 68.7737 2.08047 69.4247 2.67197C70.0814 3.25794 70.5906 3.96104 70.9521 4.78136C71.3139 5.60165 71.4948 6.50569 71.4948 7.4934C71.4948 8.48672 71.3139 9.39911 70.9521 10.2306C70.5906 11.0565 70.0814 11.768 69.4247 12.3651C68.7737 12.9621 67.9892 13.4281 67.0711 13.7629C66.1531 14.0922 65.1403 14.2568 64.0328 14.2568C62.9202 14.2568 61.9046 14.0922 60.9865 13.7629C60.0738 13.4281 59.2893 12.9621 58.6326 12.3651C57.9816 11.768 57.4752 11.0565 57.1138 10.2306C56.752 9.39911 56.5711 8.48672 56.5711 7.4934ZM59.217 7.4934C59.217 8.16865 59.3367 8.7769 59.576 9.31818C59.8206 9.85947 60.1575 10.3226 60.5859 10.7077C61.02 11.0871 61.5289 11.3801 62.1133 11.5866C62.703 11.7931 63.343 11.8963 64.0328 11.8963C64.7229 11.8963 65.36 11.7931 65.9444 11.5866C66.5341 11.3801 67.0434 11.0871 67.4718 10.7077C67.9002 10.3226 68.2367 9.85947 68.4817 9.31818C68.7263 8.7769 68.8489 8.16865 68.8489 7.4934C68.8489 6.81819 68.7263 6.21272 68.4817 5.67701C68.2367 5.14129 67.9002 4.68929 67.4718 4.32097C67.0434 3.94708 66.5341 3.66251 65.9444 3.46719C65.36 3.27186 64.7229 3.17422 64.0328 3.17422C63.343 3.17422 62.703 3.27186 62.1133 3.46719C61.5289 3.66251 61.02 3.94708 60.5859 4.32097C60.1575 4.68929 59.8206 5.14129 59.576 5.67701C59.3367 6.21272 59.217 6.81819 59.217 7.4934Z" fill="#FCF1EA"/>
<path d="M89.7109 10.1803C90.1838 10.4482 90.6624 10.6909 91.1464 10.9085C91.636 11.1206 92.1424 11.3019 92.6656 11.4526C93.1887 11.5977 93.7368 11.7093 94.3098 11.7874C94.8884 11.8656 95.5034 11.9046 96.1544 11.9046C96.9389 11.9046 97.6067 11.8544 98.1576 11.754C98.7085 11.6479 99.1565 11.5056 99.5012 11.3271C99.852 11.1429 100.105 10.9253 100.261 10.6742C100.422 10.423 100.503 10.1496 100.503 9.85384C100.503 9.37952 100.305 9.00563 99.9104 8.7322C99.5151 8.45316 98.9058 8.31366 98.0824 8.31366C97.7206 8.31366 97.3396 8.33877 96.939 8.38899C96.5383 8.43363 96.132 8.48388 95.7203 8.53966C95.314 8.59549 94.9109 8.64848 94.5102 8.6987C94.115 8.74334 93.7421 8.76566 93.3917 8.76566C92.8073 8.76566 92.2453 8.69034 91.7058 8.53966C91.1717 8.38899 90.6959 8.16298 90.2785 7.86166C89.8669 7.56031 89.5385 7.18363 89.2935 6.73163C89.0489 6.27963 88.9264 5.75227 88.9264 5.14959C88.9264 4.79245 88.9737 4.43809 89.0681 4.08656C89.1685 3.73499 89.3241 3.40016 89.5357 3.08209C89.7525 2.75841 90.0307 2.45988 90.3704 2.18645C90.7098 1.90741 91.1186 1.66745 91.5972 1.46656C92.0812 1.26566 92.6378 1.10941 93.2663 0.997807C93.9009 0.880629 94.6213 0.822021 95.4283 0.822021C96.0123 0.822021 96.5996 0.855521 97.1893 0.922486C97.779 0.983878 98.3524 1.07316 98.9086 1.19034C99.4706 1.30752 100.01 1.44981 100.528 1.61724C101.045 1.77906 101.527 1.96041 101.972 2.16131L100.812 4.30416C100.445 4.14234 100.049 3.99445 99.6266 3.86052C99.2035 3.72102 98.7612 3.60106 98.2993 3.50059C97.8374 3.40016 97.3592 3.32202 96.8638 3.26624C96.3742 3.20484 95.8735 3.17416 95.3614 3.17416C94.6324 3.17416 94.0316 3.22716 93.5587 3.3332C93.0911 3.43924 92.7183 3.57595 92.4401 3.74334C92.162 3.90516 91.9672 4.08934 91.8561 4.29581C91.7503 4.4967 91.6973 4.69759 91.6973 4.89849C91.6973 5.28909 91.8725 5.60998 92.2233 5.86109C92.5737 6.10663 93.1079 6.22941 93.8258 6.22941C94.115 6.22941 94.4461 6.20988 94.819 6.17081C95.1972 6.12616 95.5925 6.07874 96.0041 6.02852C96.4215 5.97827 96.8442 5.93363 97.2726 5.89459C97.7067 5.84995 98.1269 5.82763 98.5333 5.82763C99.3011 5.82763 99.9798 5.91409 100.57 6.08709C101.165 6.26009 101.663 6.50841 102.064 6.83209C102.464 7.15016 102.767 7.53798 102.973 7.99559C103.179 8.44759 103.282 8.95541 103.282 9.51902C103.282 10.2724 103.107 10.9448 102.756 11.5363C102.411 12.1223 101.916 12.6189 101.271 13.0263C100.631 13.4281 99.8573 13.735 98.9503 13.947C98.0433 14.1535 97.0337 14.2567 95.9208 14.2567C95.1861 14.2567 94.4682 14.2093 93.7674 14.1144C93.0662 14.0252 92.3928 13.8968 91.7475 13.7294C91.1076 13.5564 90.4954 13.3527 89.9114 13.1183C89.3327 12.8784 88.7957 12.6161 88.3003 12.3315L89.7109 10.1803Z" fill="#FCF1EA"/>
</g>
<defs>
<clipPath id="clip0_163_99">
<rect width="104" height="14" fill="white" transform="translate(0 0.429688)"/>
</clipPath>
</defs>
</svg>
