<svg width="31" height="30" viewBox="0 0 31 30" fill="none" xmlns="http://www.w3.org/2000/svg">
<path d="M24.5 5H6.5C5.70461 5.00086 4.94204 5.3196 4.37962 5.88628C3.81719 6.45297 3.50085 7.22131 3.5 8.02273V20.9773C3.50085 21.7787 3.81719 22.547 4.37962 23.1137C4.94204 23.6804 5.70461 23.9991 6.5 24H24.5C25.2954 23.9991 26.058 23.6804 26.6204 23.1137C27.1828 22.547 27.4991 21.7787 27.5 20.9773V8.02273C27.4991 7.22131 27.1828 6.45297 26.6204 5.88628C26.058 5.3196 25.2954 5.00086 24.5 5ZM23.7404 9.99992L16.0261 16.0454C15.8756 16.1632 15.6905 16.2272 15.5 16.2272C15.3095 16.2272 15.1244 16.1632 14.9739 16.0454L7.25964 9.99992C7.16901 9.93095 7.09288 9.84452 7.03568 9.74566C6.97848 9.64679 6.94135 9.53746 6.92646 9.42401C6.91156 9.31056 6.91918 9.19526 6.94889 9.08481C6.9786 8.97436 7.0298 8.87095 7.09952 8.78061C7.16923 8.69027 7.25607 8.61479 7.35499 8.55855C7.45391 8.50232 7.56293 8.46645 7.67572 8.45304C7.78852 8.43962 7.90283 8.44893 8.01203 8.48042C8.12122 8.5119 8.22311 8.56494 8.31179 8.63645L15.5 14.2695L22.6882 8.63645C22.868 8.49968 23.0939 8.4397 23.3172 8.46947C23.5405 8.49924 23.7432 8.61637 23.8814 8.79553C24.0197 8.9747 24.0824 9.20149 24.056 9.42687C24.0296 9.65225 23.9162 9.85811 23.7404 9.99992Z" fill="url(#paint0_linear_163_77)"/>
<defs>
<linearGradient id="paint0_linear_163_77" x1="15.5" y1="5" x2="15.5" y2="24" gradientUnits="userSpaceOnUse">
<stop stop-color="#D8B242"/>
<stop offset="1" stop-color="#FFED79"/>
</linearGradient>
</defs>
</svg>
