<svg width="45" height="55" viewBox="0 0 45 55" fill="none" xmlns="http://www.w3.org/2000/svg">
<g clip-path="url(#clip0_2082_3067)">
<path d="M5.71394 0.000195048C2.56407 0.000195048 0 2.55097 0 5.68214V49.3178C0 52.449 2.56407 54.9998 5.71394 54.9998H39.2788C42.4286 54.9998 44.9927 52.4491 44.9927 49.3178V13.4372C44.9927 13.4372 45.0826 12.3865 44.6238 11.3641C44.1937 10.4057 43.4928 9.73872 43.4928 9.73872C43.491 9.73636 43.4893 9.73401 43.4875 9.73167L35.16 1.61163C35.1554 1.607 35.1508 1.60241 35.1461 1.59788C35.1461 1.59788 34.4352 0.924856 33.3812 0.475258C32.1402 -0.0541207 30.8611 0.00176216 30.8611 0.00176216L30.8802 0L5.71394 0.000195048Z" fill="#FF2116"/>
<path d="M5.71436 1.86646H30.8806C30.887 1.86652 30.8933 1.86652 30.8997 1.86646C30.8997 1.86646 31.906 1.87615 32.6421 2.19015C33.3505 2.49237 33.8529 2.94985 33.8562 2.95292C33.8562 2.95293 33.8597 2.95644 33.8597 2.95644L42.1665 11.0575C42.1665 11.0575 42.6669 11.5828 42.9095 12.1233C43.1053 12.5596 43.1174 13.3579 43.1174 13.3579C43.1165 13.3711 43.1159 13.3842 43.1156 13.3974V49.3177C43.1156 51.4475 41.4216 53.1333 39.2792 53.1333H5.71436C3.57194 53.1333 1.87793 51.4476 1.87793 49.3177V5.68204C1.87793 3.55216 3.57194 1.86646 5.71436 1.86646Z" fill="#F5F5F5"/>
<path d="M11.2346 32.7463C9.94286 31.4621 11.3405 29.6975 15.1334 27.8236L17.52 26.6446L18.4498 24.6223C18.9611 23.51 19.7243 21.6952 20.1458 20.5893L20.9121 18.5786L20.384 17.0906C19.7347 15.261 19.5032 12.5114 19.9152 11.5228C20.4732 10.1836 22.3009 10.321 23.0245 11.7565C23.5896 12.8777 23.5318 14.908 22.8619 17.4686L22.3128 19.5678L22.7965 20.3842C23.0626 20.8332 23.8397 21.8993 24.5235 22.7533L25.8087 24.3425L27.4079 24.1351C32.4884 23.476 34.2285 24.5961 34.2285 26.2021C34.2285 28.229 30.2393 28.3963 26.8893 26.0573C26.1356 25.5311 25.6179 25.0083 25.6179 25.0083C25.6179 25.0083 23.5193 25.433 22.486 25.7098C21.4195 25.9956 20.8874 26.1746 19.3251 26.6988C19.3251 26.6988 18.7769 27.4902 18.4197 28.0655C17.0908 30.2058 15.5391 31.9796 14.431 32.6252C13.1902 33.348 11.8895 33.3973 11.2346 32.7463ZM13.2619 32.0263C13.988 31.5802 15.4578 29.8521 16.4751 28.2483L16.887 27.599L15.0115 28.5364C12.1147 29.9843 10.7895 31.3489 11.4786 32.1743C11.8657 32.638 12.3288 32.5996 13.2619 32.0263ZM32.078 26.7759C32.7882 26.2814 32.6851 25.2848 31.8822 24.883C31.2573 24.5703 30.7536 24.5061 29.1303 24.5299C28.1328 24.5975 26.5287 24.7973 26.2568 24.8581C26.2568 24.8581 27.138 25.4636 27.5293 25.6861C28.0501 25.9818 29.3157 26.5308 30.2398 26.8119C31.1513 27.0893 31.6785 27.0601 32.078 26.7759ZM24.5123 23.6499C24.0825 23.2008 23.3516 22.2633 22.8881 21.5666C22.282 20.7764 21.978 20.2188 21.978 20.2188C21.978 20.2188 21.535 21.6354 21.1715 22.4879L20.0375 25.2743L19.7087 25.9064C19.7087 25.9064 21.4566 25.3366 22.3459 25.1057C23.2879 24.8611 25.1995 24.4874 25.1995 24.4874L24.5123 23.6499ZM22.0742 13.93C22.1838 13.0154 22.2303 12.1021 21.9347 11.6416C21.1148 10.7506 20.1251 11.4936 20.2928 13.6121C20.3492 14.3247 20.5273 15.543 20.7654 16.2939L21.1983 17.6591L21.503 16.6308C21.6705 16.0653 21.9276 14.8499 22.0742 13.93Z" fill="#FF2116"/>
<path d="M13.4312 38.692H15.5284C16.1985 38.692 16.7425 38.7558 17.1603 38.8832C17.5781 39.0066 17.9297 39.2842 18.2151 39.716C18.5006 40.1436 18.6433 40.6597 18.6433 41.2642C18.6433 41.8193 18.5275 42.2964 18.2958 42.6952C18.0641 43.0941 17.7518 43.382 17.3589 43.5588C16.97 43.7356 16.3702 43.824 15.5594 43.824H14.8335V47.1118H13.4312V38.692ZM14.8335 39.7715V42.7076H15.5284C16.1489 42.7076 16.577 42.5924 16.8128 42.3622C17.0527 42.1319 17.1727 41.7577 17.1727 41.2395C17.1727 40.853 17.0941 40.5404 16.9369 40.3019C16.7797 40.0593 16.606 39.9113 16.4157 39.8578C16.2296 39.8002 15.9338 39.7714 15.5284 39.7714L14.8335 39.7715ZM19.7167 38.692H21.6216C22.5441 38.692 23.2804 38.8544 23.8306 39.1793C24.3849 39.5042 24.8027 39.9874 25.084 40.6289C25.3694 41.2704 25.5121 41.9818 25.5121 42.7631C25.5121 43.5855 25.3839 44.3196 25.1274 44.9652C24.8751 45.6067 24.4862 46.1248 23.9609 46.5196C23.4397 46.9144 22.6951 47.1118 21.7271 47.1118H19.7167V38.692ZM21.119 39.8085V45.9953H21.7023C22.5172 45.9953 23.1087 45.7156 23.4769 45.1564C23.8451 44.593 24.0291 43.8425 24.0291 42.905C24.0291 40.8406 23.2535 39.8085 21.7023 39.8085H21.119ZM26.8586 38.692H31.5619V39.8085H28.2609V42.3251H30.9042V43.4416H28.2609V47.1118H26.8586V38.692Z" fill="#2C2C2C"/>
</g>
<defs>
<clipPath id="clip0_2082_3067">
<rect width="45" height="55" fill="white"/>
</clipPath>
</defs>
</svg>
