<svg width="54" height="47" viewBox="0 0 54 47" fill="none" xmlns="http://www.w3.org/2000/svg">
<path d="M34.0536 25.7487V29.9214C34.0536 30.498 34.0536 30.498 33.4585 30.498C29.9624 30.498 26.4663 30.498 22.9702 30.498C22.4331 30.498 22.4825 30.4265 22.481 31.0032C22.481 32.0048 22.4717 33.0065 22.4868 34.0082C22.4868 34.2779 22.4101 34.3595 22.143 34.3495C21.6188 34.3294 21.0932 34.338 20.5676 34.3459C20.3857 34.3459 20.3148 34.2908 20.3148 34.1012C20.32 32.2653 20.32 30.4289 20.3148 28.592C20.3148 28.3301 20.463 28.3452 20.6377 28.3459C21.7119 28.3459 22.7861 28.3459 23.8603 28.3495C24.0673 28.3495 24.1861 28.3301 24.1854 28.0633C24.1761 25.0955 24.1797 22.1248 24.179 19.1591C24.179 19.1176 24.1725 19.0761 24.1604 18.9266C23.9362 19.3065 23.7615 19.5963 23.5925 19.8889C21.9764 22.6874 20.3601 25.4842 18.7436 28.2793C18.6575 28.4218 18.6124 28.5852 18.6132 28.7516C18.6132 31.064 18.6211 33.3764 18.6089 35.6917C18.6089 35.9886 18.7106 36.0444 18.9785 36.0416C20.0405 36.028 21.1025 36.0416 22.1645 36.0308C22.4173 36.0308 22.4882 36.1117 22.4853 36.3578C22.4739 37.3945 22.4911 38.4327 22.4739 39.4687C22.4689 39.7778 22.5262 39.9273 22.8756 39.8865C23.1612 39.8556 23.4494 39.8556 23.735 39.8865C24.0809 39.9209 24.1954 39.8307 24.1919 39.4515C24.1704 37.1749 24.1919 34.8982 24.1718 32.6216C24.1718 32.2638 24.2735 32.1765 24.6101 32.1987C25.0632 32.2267 25.5176 32.2267 25.9707 32.1987C26.2751 32.1801 26.341 32.2789 26.3402 32.5722C26.3302 36.8651 26.3278 41.1565 26.3331 45.4465C26.3331 45.7442 26.3216 46.0425 26.3374 46.3402C26.3481 46.5476 26.3016 46.6621 26.0667 46.6264C25.9952 46.6209 25.9234 46.6209 25.8519 46.6264H0.936378C0.876224 46.6264 0.816069 46.6213 0.757347 46.6264C0.465167 46.6543 0.441535 46.5756 0.587625 46.323C3.50799 41.2827 6.42381 36.239 9.3351 31.192C12.381 25.9204 15.4277 20.6497 18.475 15.38C21.3305 10.4398 24.1857 5.49898 27.0406 0.557403C27.0807 0.489433 27.095 0.397136 27.2247 0.362793C27.4946 0.825708 27.7703 1.29291 28.0425 1.76442C30.9294 6.75655 33.8157 11.7489 36.7012 16.7415C39.2463 21.1465 41.7897 25.5526 44.3315 29.96C47.4428 35.3452 50.5563 40.7291 53.6719 46.1119C53.7192 46.1942 53.7607 46.2808 53.8152 46.3595C53.9691 46.582 53.8868 46.6314 53.6483 46.6299C52.2526 46.6235 50.8554 46.6299 49.4604 46.6299C42.4681 46.6299 35.4764 46.6323 28.4851 46.6371C28.1463 46.6371 28.026 46.5856 28.0274 46.2028C28.0441 41.6714 28.0441 37.1417 28.0274 32.6137C28.0274 32.2874 28.1076 32.1844 28.4371 32.2052C28.8902 32.2321 29.3445 32.2321 29.7977 32.2052C30.1021 32.188 30.2016 32.2631 30.1995 32.5908C30.1837 34.8918 30.1995 37.1921 30.1823 39.4923C30.1823 39.8315 30.2825 39.918 30.5983 39.8923C30.9196 39.8665 31.2424 39.8665 31.5637 39.8923C31.838 39.9137 31.901 39.8207 31.8995 39.5546C31.8881 37.5512 31.8931 35.5479 31.8931 33.5445C31.8931 33.199 31.906 32.8527 31.8888 32.5078C31.8773 32.2753 31.9532 32.2023 32.1889 32.2045C33.2509 32.2159 34.3129 32.198 35.3742 32.2166C35.6764 32.2216 35.7559 32.1293 35.7509 31.8353C35.7337 30.8221 35.7423 29.809 35.7458 28.7959C35.7547 28.6174 35.7135 28.44 35.627 28.2836C35.1644 27.4916 34.7103 26.6945 34.252 25.8997C34.2144 25.8422 34.1738 25.7868 34.1303 25.7337L34.0536 25.7487ZM27.1889 9.34992L46.0459 41.9843C46.0192 41.9993 45.9911 42.0118 45.9621 42.0215C43.9219 42.0265 41.8802 42.028 39.8421 42.0387C39.6272 42.0387 39.6201 41.9314 39.6215 41.7725C39.6265 41.2596 39.6437 40.7458 39.6158 40.235C39.5986 39.9252 39.7053 39.8622 39.9946 39.8701C40.7509 39.8908 41.5078 39.8772 42.3249 39.8772L37.988 32.374L37.9057 32.4091V32.7983C37.9057 33.7399 37.9007 34.6822 37.9057 35.6237C37.9057 35.8276 37.8663 35.9278 37.6328 35.9221C37.0965 35.9078 36.5587 35.9085 36.0223 35.9221C35.7953 35.9278 35.7358 35.8398 35.7423 35.628C35.7552 35.2946 35.7373 34.9605 35.7487 34.6263C35.7552 34.4339 35.7057 34.3459 35.4916 34.3545C35.0985 34.3695 34.7039 34.3673 34.31 34.3545C34.1081 34.348 34.0443 34.4181 34.045 34.6199C34.0517 36.2894 34.0517 37.9588 34.045 39.6283C34.045 39.8429 34.1267 39.8873 34.3186 39.8822C34.712 39.8708 35.1056 39.8708 35.4995 39.8822C35.6814 39.8873 35.7573 39.8357 35.7494 39.6433C35.7365 39.3464 35.7616 39.0466 35.7415 38.7496C35.7229 38.4778 35.8003 38.3669 36.0946 38.3819C36.583 38.4055 37.0736 38.4019 37.562 38.3819C37.8241 38.3712 37.9143 38.442 37.9093 38.7175C37.8928 39.6826 37.8863 40.6492 37.9093 41.6137C37.9186 41.9614 37.8233 42.0466 37.4796 42.043C35.1651 42.0265 32.8498 42.0394 30.5332 42.0273C30.2467 42.0273 30.1665 42.106 30.1751 42.385C30.1966 42.9445 30.2066 43.5069 30.1751 44.0649C30.1529 44.427 30.2825 44.4871 30.6141 44.4871C36.9637 44.4771 43.3115 44.4737 49.6573 44.4771C49.8206 44.4771 50.0584 44.5579 50.13 44.432C50.2166 44.2782 50.0175 44.1172 49.9316 43.9683C47.6558 40.027 45.3777 36.0866 43.0976 32.1472C41.5178 29.4141 39.9395 26.6798 38.3626 23.9443C36.4309 20.6015 34.4988 17.2593 32.5663 13.9175C30.8313 10.9154 29.0976 7.91252 27.365 4.90894C27.1982 4.61846 27.1416 4.67284 26.9991 4.92111C25.0541 8.29673 23.1048 11.67 21.1512 15.0408C18.323 19.9299 15.4952 24.819 12.668 29.7081C10.141 34.0821 7.61545 38.4568 5.09135 42.8322C4.78484 43.3631 4.4812 43.8961 4.14605 44.4778H22.5448C22.9859 44.4778 23.4278 44.467 23.8689 44.4828C24.0973 44.4907 24.184 44.4284 24.1775 44.1851C24.1618 43.5651 24.1618 42.945 24.1775 42.3249C24.1833 42.0852 24.1023 42.0237 23.8718 42.0258C22.8105 42.0366 21.7477 42.0208 20.6864 42.0373C20.4 42.0416 20.299 41.9736 20.304 41.6674C20.3241 40.6192 20.304 39.5696 20.3176 38.5193C20.3219 38.251 20.246 38.1723 19.9767 38.1758C18.9269 38.1901 17.8763 38.1723 16.8258 38.188C16.535 38.193 16.4405 38.1215 16.4427 37.8159C16.4577 36.1353 16.4498 34.4532 16.4498 32.7733V32.4084L16.3603 32.3962C14.9281 34.8732 13.4958 37.3509 12.0413 39.8715H12.4911C14.4246 39.8715 16.3582 39.8758 18.2917 39.8665C18.5359 39.8665 18.6247 39.9216 18.6147 40.1799C18.5946 40.6915 18.5953 41.2052 18.6147 41.7167C18.624 41.9714 18.5431 42.0351 18.2917 42.0344C15.0706 42.0268 11.848 42.0268 8.62399 42.0344C8.30532 42.0344 8.32823 41.945 8.45785 41.7203C10.8125 37.6593 13.1638 33.5965 15.5117 29.5321C18.5595 24.2614 21.6069 18.9908 24.6538 13.7201L27.1889 9.34992ZM30.2617 18.9967L30.1901 19.0117V19.3995C30.1901 21.6991 30.1844 23.9986 30.1966 26.2982C30.1966 26.5844 30.1164 26.6659 29.8385 26.6559C29.3739 26.6309 28.9082 26.6309 28.4435 26.6559C28.1198 26.6752 28.0282 26.5844 28.0296 26.2488C28.0432 22.8539 28.0017 19.4575 28.0625 16.0625C28.0783 15.1839 27.6873 14.5479 27.2977 13.8632C27.1896 13.6721 27.1222 13.7845 27.0564 13.8982C26.8952 14.1765 26.7298 14.4527 26.5751 14.7339C26.4627 14.9385 26.3231 15.121 26.3238 15.3857C26.3314 19.6037 26.3314 23.8214 26.3238 28.0389C26.3238 28.2894 26.3918 28.3588 26.6425 28.3573C28.2762 28.3464 29.9099 28.3464 31.5436 28.3573C31.8301 28.3573 31.9017 28.27 31.9017 27.9939C31.8909 26.0277 31.896 24.0623 31.8952 22.0962C31.8952 21.966 31.9088 21.8357 31.8379 21.7134C31.3109 20.8081 30.7855 19.9025 30.2617 18.9967Z" fill="#F8E4AE"/>
</svg>
