<svg width="154" height="71" viewBox="0 0 154 71" fill="none" xmlns="http://www.w3.org/2000/svg">
<g clip-path="url(#clip0_3929:7562)">
<path d="M23.4794 -0.00866699C18.9311 -0.00866699 14.485 1.35763 10.7033 3.91742C6.92153 6.47722 3.97402 10.1155 2.23348 14.3723C0.492931 18.6291 0.0375308 23.3132 0.924853 27.8321C1.81218 32.3511 4.00239 36.5021 7.2185 39.7601C10.4346 43.0181 14.5322 45.2368 18.993 46.1357C23.4539 47.0346 28.0777 46.5732 32.2797 44.81C36.4818 43.0468 40.0733 40.0609 42.6002 36.2299C45.1271 32.3989 46.4758 27.8948 46.4758 23.2873C46.4758 17.1088 44.053 11.1834 39.7403 6.81456C35.4277 2.44571 29.5784 -0.00866699 23.4794 -0.00866699ZM14.0682 36.8034V9.74928L40.4577 23.2873L14.0682 36.8034Z" fill="#39B1BE"/>
<path d="M51.2874 12.8128V46.5568H63.5059V26.6849C63.5059 26.6849 64.0743 22.7949 68.0661 22.7949C72.0579 22.7949 72.2619 27.0453 72.2619 27.0453V46.5568H84.1115V23.0455C84.1115 23.0455 83.9467 12.3205 73.85 12.3205C68.0444 12.3205 64.1567 17.5951 64.1567 17.5951C63.9185 17.5951 63.6901 17.4992 63.5216 17.3286C63.3532 17.1579 63.2586 16.9265 63.2586 16.6852V12.8084L51.2874 12.8128Z" fill="#39B1BE"/>
<path d="M109.646 24.241H89.4875V34.6363H109.646V24.241Z" fill="#39B1BE"/>
<path d="M109.156 46.5568L124.546 23.9113L110.011 2.37794H124.546L131.389 14.7512L139.329 2.37794H153.014L138.474 24.4652L153.5 46.5568H139.576L131.328 33.0671L123.084 46.5568H109.156Z" fill="#39B1BE"/>
<path d="M11.7943 59.0575C11.8094 59.7519 11.6846 60.4422 11.4276 61.0861C11.1706 61.73 10.7868 62.3142 10.2996 62.8028C9.8123 63.2915 9.23184 63.6744 8.59363 63.9283C7.95543 64.1821 7.27285 64.3016 6.58756 64.2793H2.17483V70.7319H0.907837V53.8137H6.58756C7.27472 53.7913 7.95912 53.9114 8.59882 54.1666C9.23853 54.4218 9.82004 54.8067 10.3076 55.2977C10.7952 55.7888 11.1785 56.3756 11.4342 57.0221C11.6898 57.6686 11.8124 58.3613 11.7943 59.0575ZM10.5316 59.0575C10.554 58.5253 10.4677 57.9942 10.2782 57.4973C10.0887 57.0004 9.8 56.5485 9.43023 56.1698C9.06045 55.7911 8.61756 55.4937 8.12918 55.2963C7.6408 55.0989 7.11747 55.0057 6.5919 55.0225H2.17917V63.0706H6.5919C7.11574 63.0878 7.63747 62.9957 8.12462 62.7998C8.61177 62.604 9.05386 62.3086 9.42345 61.9322C9.79303 61.5557 10.0822 61.1062 10.2728 60.6116C10.4635 60.1171 10.5516 59.5881 10.5316 59.0575Z" fill="#39B1BE"/>
<path d="M21.7955 63.7958H16.5194V70.7319H15.2568V53.8137H21.8433C23.0389 53.814 24.1937 54.2549 25.0921 55.0542C25.9904 55.8534 26.5711 56.9565 26.7256 58.1576C26.8802 59.3587 26.5982 60.5757 25.9322 61.5816C25.2661 62.5875 24.2615 63.3136 23.1059 63.6244L27.2583 70.7319H25.8004L21.7955 63.7958ZM16.5194 62.5871H21.8433C22.8115 62.5536 23.729 62.1405 24.4022 61.4348C25.0755 60.7292 25.4518 59.7862 25.4518 58.8048C25.4518 57.8234 25.0755 56.8804 24.4022 56.1747C23.729 55.469 22.8115 55.0559 21.8433 55.0225H16.5194V62.5871Z" fill="#39B1BE"/>
<path d="M29.2629 62.2706C29.2629 60.5441 29.7682 58.8564 30.7151 57.4208C31.662 55.9853 33.0078 54.8664 34.5824 54.2057C36.157 53.545 37.8896 53.3721 39.5612 53.7089C41.2327 54.0458 42.7681 54.8772 43.9733 56.098C45.1784 57.3188 45.9991 58.8742 46.3316 60.5676C46.6641 62.2609 46.4935 64.0161 45.8413 65.6112C45.189 67.2063 44.0845 68.5697 42.6674 69.5289C41.2504 70.4881 39.5843 71 37.88 71C36.7466 71.0064 35.6233 70.785 34.5749 70.3486C33.5266 69.9122 32.5741 69.2694 31.7727 68.4575C30.9712 67.6457 30.3368 66.6808 29.9059 65.6188C29.4751 64.5568 29.2566 63.4188 29.2629 62.2706ZM45.2258 62.2706C45.2207 60.7989 44.7852 59.3617 43.9742 58.1406C43.1632 56.9195 42.0132 55.9693 40.6695 55.4099C39.3257 54.8505 37.8485 54.7071 36.4243 54.9977C35.0001 55.2883 33.6928 56 32.6677 57.0428C31.6425 58.0856 30.9454 59.4128 30.6644 60.8567C30.3833 62.3007 30.531 63.7966 31.0888 65.1555C31.6465 66.5145 32.5893 67.6755 33.798 68.492C35.0068 69.3085 36.4272 69.7438 37.88 69.7429C38.8484 69.747 39.8079 69.5563 40.703 69.1819C41.5981 68.8074 42.4108 68.2567 43.0941 67.5616C43.7775 66.8665 44.3178 66.0409 44.6837 65.1326C45.0496 64.2244 45.2339 63.2516 45.2258 62.2706Z" fill="#39B1BE"/>
<path d="M64.1741 62.2706C64.1741 66.9386 60.9069 70.7319 56.2989 70.7319H50.0248V53.8137H56.2989C60.9069 53.8137 64.1741 57.607 64.1741 62.2706ZM62.9332 62.2706C62.9332 58.2619 60.2387 55.0225 56.2989 55.0225H51.2918V69.5275H56.2989C60.2387 69.5231 62.9332 66.2837 62.9332 62.2706Z" fill="#39B1BE"/>
<path d="M67.3502 65.0749V53.8137H68.6172V65.0749C68.6172 67.8309 70.3094 69.7649 73.4594 69.7649C76.6095 69.7649 78.3277 67.8309 78.3277 65.0749V53.8137H79.5904V65.0749C79.5904 68.6528 77.1345 71 73.4594 71C69.7843 71 67.3502 68.6528 67.3502 65.0749Z" fill="#39B1BE"/>
<path d="M82.8879 62.2706C82.8677 61.1136 83.0788 59.9644 83.5085 58.8922C83.9383 57.82 84.5778 56.847 85.3886 56.0318C86.1994 55.2166 87.1646 54.5761 88.2262 54.1488C89.2879 53.7216 90.4239 53.5164 91.5658 53.5456C93.0071 53.5206 94.4292 53.8833 95.6869 54.5968C96.9447 55.3103 97.9931 56.3491 98.7251 57.607L97.6057 58.2619C97.0003 57.1857 96.12 56.2945 95.0572 55.6819C93.9944 55.0693 92.7884 54.758 91.5658 54.7807C89.6044 54.7807 87.7232 55.5701 86.3363 56.9751C84.9493 58.3802 84.1701 60.2858 84.1701 62.2728C84.1701 64.2598 84.9493 66.1654 86.3363 67.5705C87.7232 68.9755 89.6044 69.7649 91.5658 69.7649C92.8009 69.7856 94.0184 69.4661 95.0882 68.8406C96.1581 68.2151 97.0402 67.307 97.6404 66.2133L98.7598 66.8639C98.0332 68.143 96.9813 69.2014 95.7138 69.9288C94.4463 70.6563 93.0094 71.0261 91.5528 71C90.4116 71.0274 89.2766 70.8208 88.2162 70.3924C87.1559 69.9641 86.192 69.3229 85.3825 68.5074C84.5731 67.6919 83.9348 66.719 83.5061 65.6472C83.0774 64.5754 82.8671 63.4269 82.8879 62.2706Z" fill="#39B1BE"/>
<path d="M112.119 55.0225H106.869V70.7319H105.568V55.0225H100.318V53.8137H112.106L112.119 55.0225Z" fill="#39B1BE"/>
<path d="M116.346 53.8137V70.7319H115.079V53.8137H116.346Z" fill="#39B1BE"/>
<path d="M119.877 62.2706C119.878 60.5452 120.384 58.8587 121.331 57.4245C122.278 55.9902 123.623 54.8726 125.197 54.2129C126.771 53.5532 128.503 53.381 130.173 53.7182C131.844 54.0553 133.378 54.8867 134.582 56.1071C135.786 57.3274 136.606 58.8821 136.938 60.5744C137.27 62.2668 137.099 64.0209 136.447 65.6149C135.795 67.209 134.691 68.5714 133.275 69.5299C131.859 70.4884 130.194 71 128.49 71C127.357 71.0064 126.234 70.785 125.186 70.3485C124.138 69.912 123.186 69.2692 122.384 68.4573C121.583 67.6453 120.949 66.6804 120.519 65.6185C120.089 64.5565 119.871 63.4186 119.877 62.2706ZM135.84 62.2706C135.835 60.7991 135.4 59.3621 134.589 58.1411C133.778 56.9201 132.629 55.9698 131.285 55.4103C129.942 54.8508 128.465 54.7071 127.04 54.9973C125.616 55.2876 124.309 55.9988 123.284 57.0412C122.258 58.0836 121.561 59.4104 121.279 60.854C120.998 62.2977 121.145 63.7934 121.702 65.1525C122.259 66.5115 123.201 67.6728 124.409 68.4899C125.618 69.3069 127.038 69.7429 128.49 69.7429C129.459 69.747 130.419 69.5563 131.314 69.1819C132.209 68.8075 133.022 68.2569 133.706 67.5618C134.39 66.8668 134.93 66.0412 135.297 65.1329C135.663 64.2247 135.848 63.2518 135.84 62.2706Z" fill="#39B1BE"/>
<path d="M152.88 53.8137V70.7319H151.756L141.902 56.1829V70.7319H140.635V53.8137H141.733L151.613 68.3627V53.8137H152.88Z" fill="#39B1BE"/>
</g>
<defs>
<clipPath id="clip0_3929:7562">
<rect width="153" height="71" fill="white" transform="translate(0.5)"/>
</clipPath>
</defs>
</svg>
