<svg width="61" height="49" fill="none" xmlns="http://www.w3.org/2000/svg"><path d="M60.444 43.413v-.059l-3.63-27.56 2.509-3.52a.957.957 0 00-.779-1.512h-5.897l-3.554-9.698a.957.957 0 00-1.797 0l-3.554 9.698h-5.894a.956.956 0 00-.78 1.51l2.505 3.521-.65 4.941H21.694l-.65-4.94 2.505-3.52a.957.957 0 00-.78-1.512h-5.943l-3.554-9.698a.957.957 0 00-1.797 0l-3.554 9.698H2.075a.957.957 0 00-.78 1.512l2.51 3.52-3.63 27.56v.055s-.007.045-.007.068v3.827a.957.957 0 00.957.957h8.233a.957.957 0 000-1.913H2.08v-1.914h56.457v1.914h-5.352a.957.957 0 000 1.913h6.309a.957.957 0 00.957-.957v-3.827c0-.02-.005-.041-.007-.064zM55.322 14.59H52.88v-1.914h3.805l-1.363 1.914zm-18.48 27.93H23.727v-3.345a6.558 6.558 0 1113.114 0v3.345zm-6.558-11.816a8.481 8.481 0 00-8.256 6.59.97.97 0 00-.026.103 8.467 8.467 0 00-.191 1.778v3.348h-4.752V26.798h26.45v15.724h-4.757v-3.348a8.48 8.48 0 00-8.468-8.47zm13.225-8.055v2.236h-26.45v-2.236h26.45zm1.913-10.91l2.773-7.565 2.772 7.564V42.52h-5.544V11.738zm-1.913.937v1.914h-2.445l-1.36-1.914h3.805zm-2.099 3.828h2.099v4.231h-2.656l.557-4.231zm-24.35 4.231v-4.231h2.15l.558 4.231h-2.709zm2.493-6.145h-2.494v-1.914h3.855l-1.361 1.914zM12.376 4.173l2.772 7.564V42.52H9.6V11.737l2.775-7.564zm-4.688 8.502v1.914H5.296l-1.367-1.914h3.759zm-2.046 3.828h2.046v26.02H2.215l3.427-26.02zm47.239 26.02v-26.02h2.095l3.427 26.02h-5.522zm-28.65 5.74h-8.755a.957.957 0 010-1.914h8.753a.957.957 0 010 1.914h.002zm22.838 0H30.347a.957.957 0 010-1.914h16.72a.957.957 0 110 1.914h.002z" fill="#fff"/></svg>