<svg width="22" height="22" fill="none" xmlns="http://www.w3.org/2000/svg"><path d="M21.628 3.346L17.387.068a.312.312 0 00-.503.247v1.577a9.256 9.256 0 00-4.938 2.589A9.323 9.323 0 009.58 8.469a9.277 9.277 0 00-3.964-1.97V5.111a.312.312 0 00-.502-.246l-1.93 1.49a.312.312 0 00.382.494l1.426-1.102v1.004c0 .15.106.277.253.306A8.658 8.658 0 019.41 9.149a9.44 9.44 0 00-.202 1.94v1.802a6.333 6.333 0 00-3.814-3.27.312.312 0 00-.403.297v1.114L1.574 8.39l.908-.702a.312.312 0 00-.381-.494l-1.228.95a.312.312 0 000 .493l4.24 3.277a.312.312 0 00.503-.246v-1.31a5.718 5.718 0 012.462 1.873 5.594 5.594 0 011.131 3.387v5.073c0 .172.14.312.312.312h3.074c.172 0 .312-.14.312-.312v-3.476a.312.312 0 10-.624 0v3.164h-2.45v-9.29a8.686 8.686 0 012.555-6.167 8.636 8.636 0 014.854-2.457.312.312 0 00.266-.308V.95l3.419 2.642-3.419 2.643v-.95a.312.312 0 00-.383-.303 6.283 6.283 0 00-4.842 6.107v4.88a.312.312 0 00.624 0v-4.88a5.657 5.657 0 013.977-5.396V6.87a.312.312 0 00.503.247l4.24-3.278a.312.312 0 000-.493z" fill="#E96B67"/></svg>