<svg width="56" height="56" fill="none" xmlns="http://www.w3.org/2000/svg"><path d="M15.608 25.326H9.192a.923.923 0 00-.917.93v9.29c0 .513.41.93.917.93h6.416a.923.923 0 00.916-.93v-9.29a.923.923 0 00-.916-.93zm-.917 9.291h-4.583v-7.433h4.583v7.433zm16.498-9.291h-6.416a.923.923 0 00-.917.93v9.29c0 .513.41.93.917.93h6.416a.923.923 0 00.916-.93v-9.29a.923.923 0 00-.916-.93zm-.917 9.291H25.69v-7.433h4.582v7.433zm.917 5.574h-6.416a.923.923 0 00-.917.93v9.29c0 .514.41.93.917.93h6.416a.923.923 0 00.916-.93v-9.29c0-.514-.41-.93-.916-.93zm-.917 9.291H25.69V42.05h4.582v7.432zm15.581-24.156h-6.416a.923.923 0 00-.916.93v9.29c0 .513.41.93.916.93h6.416a.923.923 0 00.916-.93v-9.29a.923.923 0 00-.916-.93zm-.917 9.291h-4.582v-7.433h4.582v7.433zm-29.328 5.574H9.192a.923.923 0 00-.917.93v9.29c0 .514.41.93.917.93h6.416a.923.923 0 00.916-.93v-9.29c0-.514-.41-.93-.916-.93zm-.917 9.291h-4.583V42.05h4.583v7.432zm31.162-9.291h-6.416a.923.923 0 00-.916.93v9.29c0 .514.41.93.916.93h6.416a.923.923 0 00.916-.93v-9.29c0-.514-.41-.93-.916-.93zm-.917 9.291h-4.582V42.05h4.582v7.432z" fill="#fff"/><path d="M51.352 54.128v-31.59h.917a.923.923 0 00.916-.928v-4.646a.923.923 0 00-.916-.929h-.917V12.32c0-.513-.41-.93-.916-.93h-1.833V1.17a.923.923 0 00-.917-.928H7.36a.923.923 0 00-.917.929v10.22H4.61a.923.923 0 00-.916.929v3.716h-.917a.923.923 0 00-.916.93v4.645c0 .513.41.929.916.929h.917v31.589H.026v1.858h55v-1.858h-3.674zM8.275 2.098H46.77v9.292H8.275V2.099zm-2.75 11.15H49.52v2.787H5.526v-2.787zm43.994 40.88H5.526v-31.59h43.993v31.59zM4.61 20.68h-.916v-2.788h47.658v2.788H4.61z" fill="#fff"/><path d="M26.115 5.277A2.9 2.9 0 0025.5 4.3a2.82 2.82 0 00-.952-.646 3.152 3.152 0 00-1.234-.234 3.19 3.19 0 00-1.235.232 2.799 2.799 0 00-1.573 1.626 3.39 3.39 0 00-.219 1.232c0 .443.073.853.219 1.23a2.799 2.799 0 001.573 1.626 3.19 3.19 0 001.235.233c.451 0 .862-.077 1.234-.232a2.78 2.78 0 00.952-.646c.264-.276.47-.602.615-.98.146-.378.219-.788.219-1.231 0-.444-.073-.854-.22-1.232zm-1.05 2.124a1.873 1.873 0 01-.373.67c-.162.182-.36.322-.592.42a2.011 2.011 0 01-.786.146c-.291 0-.554-.05-.788-.147a1.633 1.633 0 01-.595-.42 1.88 1.88 0 01-.378-.669 2.81 2.81 0 01-.132-.892c0-.332.044-.63.132-.893.088-.263.214-.487.378-.671.163-.184.362-.325.595-.422.234-.098.497-.147.788-.147.292 0 .554.05.786.147.232.097.43.238.592.422.162.184.286.408.373.671.087.263.13.56.13.893 0 .331-.043.629-.13.892zm-6.774-3.915v2.6h-2.796v-2.6h-1.118V9.53h1.118V6.89h2.796v2.642h1.118V3.486H18.29zm19.335 5.117V3.486h-1.11V9.53h3.498v-.928h-2.388zM26.383 3.486v.924h1.802v5.12h1.11V4.41h1.794v-.924h-4.706zm9.172.894v-.894h-3.761V9.53h3.761v-.899h-2.643v-1.71h2.083v-.865h-2.083V4.381h2.643z" fill="#fff"/></svg>