<svg width="37" height="37" fill="none" xmlns="http://www.w3.org/2000/svg"><path d="M36.53 11.087a13.22 13.22 0 00-.85-4.493 9.345 9.345 0 00-5.348-5.339 13.436 13.436 0 00-4.439-.851C23.939.317 23.32.292 18.36.292c-4.959 0-5.595 0-7.534.112a13.428 13.428 0 00-4.437.851A9.358 9.358 0 001.04 6.594a13.269 13.269 0 00-.85 4.43c-.088 1.952-.114 2.57-.114 7.522 0 4.95 0 5.583.113 7.522a13.35 13.35 0 00.851 4.434 9.345 9.345 0 005.35 5.336 13.39 13.39 0 004.437.913c1.956.087 2.575.113 7.535.113 4.959 0 5.595 0 7.534-.113a13.402 13.402 0 004.44-.85 9.374 9.374 0 005.347-5.338c.534-1.42.82-2.916.85-4.434.088-1.95.114-2.57.114-7.523-.004-4.95-.004-5.58-.117-7.52zM18.349 27.909c-5.186 0-9.388-4.195-9.388-9.373 0-5.179 4.201-9.374 9.388-9.374 2.49 0 4.878.988 6.64 2.746a9.365 9.365 0 010 13.255 9.396 9.396 0 01-6.64 2.746zM28.111 11a2.185 2.185 0 11-.001-4.37 2.191 2.191 0 012.02 1.35 2.185 2.185 0 01-2.02 3.022z" fill="#fff"/><path d="M18.362 25.228a6.65 6.65 0 100-13.299 6.65 6.65 0 000 13.299z" fill="#fff"/></svg>