<svg width="51" height="49" fill="none" xmlns="http://www.w3.org/2000/svg"><path fill-rule="evenodd" clip-rule="evenodd" d="M31.39 19.108h1.495v.026h17.732l-2.753 2-12.795 9.297 4.887 15.042 1.052 3.236-2.753-2-12.796-9.297-12.796 9.297-2.753 2 1.052-3.236 4.887-15.042-12.795-9.297-2.753-2h18.291v-.026h.936l4.88-15.016 1.05-3.237 1.052 3.237 4.879 15.016zm-9.759 0l3.828-11.78 3.828 11.78H21.63zm-.648 1.995l-.01.031h-.023L18.193 29.7l7.255 5.249.011-.009.015.012 7.252-5.247-2.758-8.571h-.023l-.01-.03h-8.952zm13.39 7.36l-2.359-7.329h12.448l-10.089 7.33zm-1.04 3.126l-6.257 4.526 3.713 2.698.942.681-.002.002 5.414 3.933-3.81-11.84zM18.12 40.272l-2.173 1.572.004.005-2.176 1.58 3.835-11.917 6.297 4.556-5.787 4.204zM6.456 21.134H19.06l-2.388 7.421-10.215-7.421z" fill="#000"/></svg>