<svg width="14" height="20" fill="none" xmlns="http://www.w3.org/2000/svg"><path d="M8.153.003H1.82C.947.003.236.713.236 1.586v11.4c0 .873.71 1.584 1.584 1.584h5.7v-.634h-5.7a.951.951 0 01-.95-.95v-11.4c0-.523.426-.95.95-.95h6.333c.524 0 .95.427.95.95v9.184h.633V1.586c0-.873-.71-1.583-1.583-1.583z" fill="#E96B67"/><path d="M12.774 8.438L9.667 4.555l-.495.396 3.107 3.882a2.86 2.86 0 01.624 1.781v7.755H8.27a2.97 2.97 0 01-2.967-2.967v-1.15H4.67v1.15c0 1.986 1.615 3.6 3.6 3.6h4.95a.316.316 0 00.317-.316v-8.071c0-.788-.27-1.562-.763-2.177z" fill="#E96B67"/><path d="M5.62 7.47a.83.83 0 01.58.261l4.256 4.522.462-.434L6.66 7.297a1.456 1.456 0 00-1.024-.46 1.438 1.438 0 00-1.045.397l-.032.031a1.462 1.462 0 00-.084 1.983l2.728 3.22v.98c0 1.75 1.1 3.338 2.739 3.951l.222-.593a3.601 3.601 0 01-2.328-3.358v-1.095a.318.318 0 00-.075-.205l-2.8-3.308a.836.836 0 01.063-1.142.847.847 0 01.595-.227z" fill="#E96B67"/><path d="M7.836.636h-.633v7.917h.633V.636zm-1.582 9.817h-.633v3.8h.633v-3.8zm0-10.133h-.633v6.966h.633V.319zm-3.8 1.266H1.82v4.117h.634V1.586zm1.582 0h-.634V4.12h.634V1.586zm.001 8.867h-1.9a.317.317 0 00-.317.317v1.9c0 .175.142.316.317.316h1.9a.317.317 0 00.317-.316v-1.9a.317.317 0 00-.317-.317zm-.317 1.9H2.454v-1.267H3.72v1.267z" fill="#E96B67"/></svg>