<svg width="21" height="21" fill="none" xmlns="http://www.w3.org/2000/svg"><path d="M20.298 13.128a.39.39 0 00-.464.3 7.664 7.664 0 01-3.884 5.126l-1.492-1.493a.69.69 0 01-.204-.49v-1.176a.69.69 0 01.204-.491L16.66 12.7a2.388 2.388 0 00.704-1.7V9.507c0-.826-.689-1.515-1.515-1.515a.499.499 0 01-.498-.498v-.471a.5.5 0 01.498-.499h1.986a7.642 7.642 0 011.984 3.652.39.39 0 00.466.297.418.418 0 00.296-.467c-.813-3.653-4.075-6.378-7.814-6.543.134-.302.201-.633.19-.97l-.023-.692a1.023 1.023 0 00-.986-.986l-.691-.023a2.212 2.212 0 00-1.688.7l-1.216 1.35L3.55 1.106a.39.39 0 00-.409.091l-.95.95a.39.39 0 00.054.597l3.813 2.652-2.175 2.419a.704.704 0 01-.647.224l-.956-.165a.39.39 0 00-.342.11L.898 9.023a.39.39 0 00.135.64l2.204.85.828 2.15c.414 4.223 4.102 7.55 8.338 7.55 3.908 0 7.382-2.81 8.196-6.623a.39.39 0 00-.301-.463zm-10.026-7.16l1.409 4.113-.444.443L8.95 7.157l1.323-1.19zM3.075 2.369l.444-.444L7.791 3.47 6.585 4.81l-3.51-2.44zm.605 7.478l-1.805-.695.473-.473.756.13a1.482 1.482 0 001.36-.472l5.683-6.32a1.434 1.434 0 011.085-.444l.691.023a.24.24 0 01.232.231l.022.692c.014.408-.148.803-.444 1.084l-6.32 5.682a1.5 1.5 0 00-.472 1.361l.13.756-.472.474-.695-1.805a.39.39 0 00-.224-.224zm5.827 7.041v1.973a7.64 7.64 0 01-3.82-3.47l.948-.947a.211.211 0 01.151-.063h2.118a.99.99 0 00.704-.292l.378-.378a.217.217 0 01.304 0l.84.84c.083.1.083.202 0 .303l-1.33 1.33a.99.99 0 00-.293.704zm.782 2.246v-2.246c0-.057.022-.111.063-.152l1.33-1.33c.376-.376.37-1.036 0-1.408l-.84-.84a1.005 1.005 0 00-1.408 0l-.378.379a.213.213 0 01-.152.063H6.786a.987.987 0 00-.704.292l-.744.744a7.559 7.559 0 01-.482-1.913l.911-.911a.39.39 0 00.109-.343l-.165-.956a.712.712 0 01.224-.647l2.428-2.182 2.494 3.67a.394.394 0 00.599.056l.95-.95a.39.39 0 00.093-.402L10.904 5.4l1.29-1.16a7.617 7.617 0 014.75 1.503H15.85c-.705 0-1.28.574-1.28 1.28v.471c0 .706.575 1.28 1.28 1.28.4 0 .734.333.734.733V11c0 .434-.17.84-.475 1.147l-2.204 2.203c-.278.28-.432.65-.432 1.044v1.175c0 .394.154.765.432 1.043l1.288 1.289a7.61 7.61 0 01-4.904.232z" fill="#E96B67"/><path d="M20.775 11.759a.395.395 0 00-.459-.307.394.394 0 00-.307.46c.042.208.25.348.46.306a.395.395 0 00.306-.46z" fill="#E96B67"/></svg>