<svg width="58" height="51" fill="none" xmlns="http://www.w3.org/2000/svg"><path d="M56.715 17.529h-2.473l.318-.772a4.748 4.748 0 00-1.035-5.181l-2.193-2.193V6.715a.775.775 0 00-1.55 0v2.668l-2.193 2.193a4.748 4.748 0 00-1.035 5.182l.318.771h-2.473a.775.775 0 00-.775.775v4.603a.775.775 0 00.775.774h1.799v5.01h-3.433v-2.933a.775.775 0 00-.775-.775h-1.638a9.12 9.12 0 00-.202-10.39 15.071 15.071 0 00-7.312-5.443l-.854-.306a5.276 5.276 0 00-.177-4.775L29.824.523a.774.774 0 00-1.353 0L26.488 4.07a5.277 5.277 0 00-.177 4.775l-.854.306a15.07 15.07 0 00-7.31 5.443 9.12 9.12 0 00-.204 10.39h-1.638a.775.775 0 00-.775.775v2.934h-3.432v-5.01h1.799a.773.773 0 00.775-.775V18.3a.775.775 0 00-.775-.775h-2.474l.318-.772a4.748 4.748 0 00-1.035-5.181L8.513 9.38V6.715a.775.775 0 10-1.55 0v2.668L4.77 11.576a4.747 4.747 0 00-1.034 5.182l.317.771H1.58a.775.775 0 00-.775.775v4.603a.775.775 0 00.775.774h1.799v26.544a.775.775 0 00.775.775h49.987a.775.775 0 00.775-.775V23.682h1.8a.773.773 0 00.774-.775V18.3a.775.775 0 00-.775-.772zm-8.728-1.362a3.203 3.203 0 01.698-3.495l1.872-1.872 1.872 1.872a3.201 3.201 0 01.698 3.495l-.562 1.362h-4.016l-.562-1.362zM27.84 4.825l1.307-2.334 1.306 2.336a3.72 3.72 0 01.066 3.495l-1.112-.399a.776.776 0 00-.521 0l-1.111.399a3.719 3.719 0 01.065-3.497zm-8.422 10.652a13.516 13.516 0 016.56-4.868l3.169-1.134 3.168 1.134a13.516 13.516 0 016.56 4.868 7.67 7.67 0 01-.443 9.506h-18.57a7.67 7.67 0 01-.444-9.506zm-2.34 11.056h24.136v2.159H17.08v-2.159zM5.17 16.167a3.202 3.202 0 01.697-3.495L7.738 10.8l1.872 1.872a3.201 3.201 0 01.698 3.495l-.562 1.362H5.73l-.562-1.362zm-2.814 2.912h10.767v3.056H2.355v-3.056zm2.574 4.606h5.619v25.768h-5.62V23.685zm7.169 6.557h34.1V49.45h-1.455v-5.852a5.633 5.633 0 00-1.776-4.096l-1.7-1.593a.776.776 0 00-1.06 0l-1.7 1.593a5.632 5.632 0 00-1.776 4.096v5.852h-2.075v-8.934a7.889 7.889 0 00-2.488-5.738l-2.489-2.332a.775.775 0 00-1.06 0l-2.492 2.332a7.89 7.89 0 00-2.487 5.738v8.934h-2.076v-5.852a5.631 5.631 0 00-1.776-4.096l-1.7-1.593a.776.776 0 00-1.06 0l-1.698 1.593a5.632 5.632 0 00-1.775 4.096v5.852h-1.457V30.24zm3.004 19.209v-5.852a4.075 4.075 0 011.285-2.965l1.17-1.096 1.17 1.096a4.074 4.074 0 011.284 2.965v5.852h-4.909zm10.088 0v-8.934a6.333 6.333 0 011.997-4.606l1.96-1.837 1.962 1.837a6.331 6.331 0 011.997 4.605v8.934H25.19zm13.091 0v-5.852a4.075 4.075 0 011.285-2.965l1.17-1.096 1.17 1.096a4.074 4.074 0 011.285 2.965v5.852h-4.91zm15.085 0h-5.618V23.682h5.618v25.769zm2.574-27.319H45.173v-3.055H55.94v3.055z" fill="#000"/><path d="M31.644 12.486a.775.775 0 10-.522 1.461 9.948 9.948 0 014.845 3.55.775.775 0 101.273-.885 11.507 11.507 0 00-5.596-4.126z" fill="#000"/></svg>