<svg width="14" height="16" fill="none" xmlns="http://www.w3.org/2000/svg"><path d="M13.096 11.104a.304.304 0 00-.304.304v2.488a1.296 1.296 0 01-1.296 1.304h-9.36a1.288 1.288 0 01-1.288-1.288v-7.56a1.288 1.288 0 011.288-1.296h3.472l.232 4.08h-1.6V7.44a.92.92 0 00-.912-.92.928.928 0 00-.92.92v5.36a.92.92 0 001.832 0v-1.84h1.656v1.84a.912.912 0 00.912.912.92.92 0 00.912-.912v-1.84H9.4v1.84a.912.912 0 00.912.912.92.92 0 00.896-.912V7.44a.928.928 0 00-.92-.92.928.928 0 00-.888.92v1.696H7.8l.24-4.08h3.48a1.296 1.296 0 011.296 1.296v2.4a.304.304 0 10.608 0v-2.4a1.912 1.912 0 00-1.904-1.904H8.08V3.72c.233-.262.36-.601.36-.952V1.6A1.424 1.424 0 007 .208h-.4A1.424 1.424 0 005.176 1.6v1.168c0 .348.129.684.36.944l.04.736h-3.44A1.904 1.904 0 00.232 6.352v7.544a1.904 1.904 0 001.904 1.896h9.36a1.904 1.904 0 001.904-1.896v-2.488a.304.304 0 00-.304-.304zM6.248 4.152c.265.037.535.037.8 0 .144-.001.286-.023.424-.064L7.16 9.384v.776a.304.304 0 01-.296.232.29.29 0 01-.224-.096.336.336 0 01-.08-.24l-.04-.672-.184-2.256L6.2 4.736v-.608h.08l-.032.024zm-2.312 6.2a.304.304 0 00-.304.304V12.8a.312.312 0 01-.304.304A.311.311 0 013 12.8V7.44a.288.288 0 01.112-.24.296.296 0 01.216-.088.304.304 0 01.304.304v2a.304.304 0 00.304.304h1.936v.272a2.403 2.403 0 000 .336l-1.936.024zm3.2 2.456a.312.312 0 01-.304.304.303.303 0 01-.328-.312v-1.808a.88.88 0 00.608 0V12.8l.024.008zm2.568-3.064a.304.304 0 00.304-.304v-2a.313.313 0 01.064-.24.304.304 0 01.52.216V12.8a.312.312 0 01-.304.304.305.305 0 01-.304-.304v-2.144a.304.304 0 00-.304-.304H7.696c.008-.11.008-.219 0-.328v-.28h2.008zM5.784 1.6a.8.8 0 01.8-.8H7a.8.8 0 01.8.8v1.168a.8.8 0 01-.496.752 1.28 1.28 0 01-.52.064 1.6 1.6 0 01-.512-.048.8.8 0 01-.536-.8V1.6h.048z" fill="#3C84FC"/><path d="M11.496 15.952h-9.36A2.064 2.064 0 01.08 13.896V6.352a2.064 2.064 0 012.056-2.064H5.4v-.52a1.6 1.6 0 01-.36-1V1.6A1.6 1.6 0 016.64 0H7a1.6 1.6 0 011.6 1.6v1.168c.001.37-.13.726-.368 1.008v.512h3.28a2.064 2.064 0 012.056 2.064v2.4a.454.454 0 01-.456.464.464.464 0 01-.464-.464v-2.4a1.135 1.135 0 00-1.136-1.144H8.168l-.224 3.768h1.28V7.44a1.04 1.04 0 01.312-.8c.21-.174.48-.26.752-.24a1.072 1.072 0 011.072 1.04v5.36a1.08 1.08 0 01-1.072 1.064A1.072 1.072 0 019.224 12.8v-1.68H7.88v1.68a1.088 1.088 0 01-1.072 1.064A1.072 1.072 0 015.736 12.8v-1.68H4.392v1.68a1.072 1.072 0 01-2.136 0V7.44a1.072 1.072 0 112.136 0v1.536h1.28l-.208-3.768H2.136A1.144 1.144 0 001 6.352v7.544a1.144 1.144 0 001.136 1.136h9.36a1.136 1.136 0 001.104-1.136v-2.488a.464.464 0 01.79-.328.455.455 0 01.13.328v2.488a2.064 2.064 0 01-2.024 2.056zM2.136 4.6A1.752 1.752 0 00.392 6.352v7.544a1.752 1.752 0 001.744 1.744h9.36a1.743 1.743 0 001.744-1.744v-2.488a.151.151 0 00-.144-.152.16.16 0 00-.152.152v2.488a1.456 1.456 0 01-1.448 1.448h-9.36a1.456 1.456 0 01-1.448-1.448V6.352a1.456 1.456 0 011.448-1.456h3.616L6 9.296H4.08V7.44a.752.752 0 00-.752-.8.8.8 0 00-.8.8v5.36a.752.752 0 00.8.752.8.8 0 00.752-.752v-2h1.968v2a.8.8 0 00.76.752.8.8 0 00.8-.752v-2h1.968v2a.752.752 0 00.752.752.8.8 0 00.8-.752V7.44a.76.76 0 00-1.459-.29.736.736 0 00-.053.29v1.856h-1.92l.256-4.4h3.624a1.456 1.456 0 011.448 1.456v2.4a.16.16 0 00.152.152.152.152 0 00.144-.152v-2.4A1.744 1.744 0 0011.576 4.6H7.888l.056-.944.04-.04c.204-.236.317-.536.32-.848V1.6A1.272 1.272 0 007 .36h-.4A1.264 1.264 0 005.336 1.6v1.168c.009.295.119.577.312.8l.048.952-3.56.08zm8.152 8.664a.456.456 0 01-.456-.456v-2.152a.152.152 0 00-.152-.144H7.496l.048-.192a1.241 1.241 0 000-.248v-.48h2.08a.16.16 0 00.152-.152v-2a.456.456 0 01.136-.328.432.432 0 01.32-.136.464.464 0 01.464.464v5.36a.465.465 0 01-.408.464zm-2.4-3.064h1.808a.464.464 0 01.464.456V12.8a.144.144 0 00.144.144.152.152 0 00.136-.144V7.44a.152.152 0 10-.296-.068.152.152 0 000 .068v2a.464.464 0 01-.464.464H7.888v.184a.529.529 0 01-.016.112h.016zm-1.08 3.064a.464.464 0 01-.464-.464v-2.032l.208.08a.8.8 0 00.504 0l.208-.08V12.8a.464.464 0 01-.456.464zM6.656 11.2v1.6a.172.172 0 10.344 0v-1.6h-.344zm-3.328 2.064a.464.464 0 01-.464-.464V7.44a.464.464 0 01.464-.464.464.464 0 01.472.464v2a.16.16 0 00.152.152h2.08v.472c-.008.085-.008.17 0 .256l.048.192H3.936a.152.152 0 00-.152.144V12.8a.464.464 0 01-.456.464zm0-5.976a.16.16 0 00-.112.048.152.152 0 000 .104v5.36a.144.144 0 00.152.144.144.144 0 00.104-.144v-2.144a.464.464 0 01.464-.456h1.808a.608.608 0 010-.12v-.176H3.936a.464.464 0 01-.464-.464v-2a.144.144 0 00-.144-.152zm3.48 3.304a.455.455 0 01-.336-.152.48.48 0 01-.128-.336L6 3.904 6.2 4h.072c.207.028.417.028.624 0h.128a1.2 1.2 0 00.392 0l.216-.064-.36 6.144c.004.059.004.117 0 .176a.464.464 0 01-.464.336zm-.472-6.264l.32 5.76a.256.256 0 000 .144.16.16 0 00.256-.064.69.69 0 000-.128l.336-5.712a1.304 1.304 0 01-.248 0h-.08c-.194.016-.39.016-.584 0zm.36-.584a1.16 1.16 0 01-.432-.064.968.968 0 01-.632-.912V1.6A.968.968 0 016.6.656H7A.968.968 0 018 1.6v1.168a.968.968 0 01-.592.896 1.2 1.2 0 01-.52.08h-.192zM6.6.968a.656.656 0 00-.656.632v1.168a.672.672 0 00.432.624c.127.02.257.02.384 0h.128a.936.936 0 00.4-.056.656.656 0 00.408-.608V1.6A.664.664 0 007 .968h-.4z" fill="#3C84FC"/><path d="M13.4 10.04a.304.304 0 00-.56-.096.312.312 0 000 .352.329.329 0 00.344.088.304.304 0 00.216-.344z" fill="#3C84FC"/><path d="M13.112 10.56a.456.456 0 01-.344-.16.457.457 0 01-.048-.536.448.448 0 01.472-.216.464.464 0 01.376.36.472.472 0 01-.288.52.624.624 0 01-.168.032zm0-.608a.136.136 0 00-.128.072.145.145 0 000 .168.152.152 0 00.168 0 .144.144 0 00.088-.16.16.16 0 00-.12-.112l-.008.032z" fill="#3C84FC"/></svg>