<svg width="16" height="16" fill="none" xmlns="http://www.w3.org/2000/svg"><g clip-path="url(#clip0)" fill="#B3BDD0"><path d="M14.112 15.952H1.896A1.816 1.816 0 01.08 14.136V3.24a1.816 1.816 0 011.816-1.816h12.216a1.816 1.816 0 011.816 1.816v10.896a1.816 1.816 0 01-1.816 1.816zM1.896 2.4a.8.8 0 00-.8.8v10.936a.8.8 0 00.8.8h12.216a.8.8 0 00.8-.8V3.24a.8.8 0 00-.8-.8L1.896 2.4z"/><path d="M14.112 16H1.896A1.896 1.896 0 010 14.136V3.24a1.904 1.904 0 011.896-1.896h12.216A1.904 1.904 0 0116 3.24v10.896A1.896 1.896 0 0114.112 16zM1.896 1.504A1.736 1.736 0 00.16 3.24v10.896a1.736 1.736 0 001.736 1.736h12.216a1.736 1.736 0 001.736-1.736V3.24a1.736 1.736 0 00-1.736-1.736H1.896zM14.112 15.04H1.896a.912.912 0 01-.904-.904V3.24a.912.912 0 01.904-.904h12.216a.912.912 0 01.904.904v10.896a.912.912 0 01-.904.904zM1.896 2.496a.744.744 0 00-.744.744v10.896a.744.744 0 00.744.744h12.216a.744.744 0 00.744-.744V3.24a.744.744 0 00-.744-.744H1.896z"/><path d="M15.432 6.4H.576a.496.496 0 110-.984h14.856a.496.496 0 110 .984z"/><path d="M15.432 6.456H.576a.576.576 0 110-1.144h14.856a.576.576 0 110 1.144zM.576 5.464a.424.424 0 000 .8h14.856a.424.424 0 000-.8H.576zM3.88 4.072a.496.496 0 01-.496-.496V.6a.496.496 0 01.992 0v2.976a.496.496 0 01-.496.496z"/><path d="M3.88 4.144a.568.568 0 01-.576-.568V.6a.576.576 0 111.152 0v2.976a.576.576 0 01-.576.568zm0-3.96A.416.416 0 003.464.6v2.976A.416.416 0 003.88 4a.424.424 0 00.416-.416V.6A.424.424 0 003.88.184zm8.248 3.888a.496.496 0 01-.496-.496V.6a.496.496 0 01.992 0v2.976a.496.496 0 01-.496.496z"/><path d="M12.128 4.144a.568.568 0 01-.568-.568V.6a.577.577 0 111.144 0v2.976a.567.567 0 01-.576.568zm0-3.96a.424.424 0 00-.416.416v2.976a.425.425 0 00.416.416.416.416 0 00.416-.416V.6a.416.416 0 00-.416-.416z"/></g><defs><clipPath id="clip0"><path fill="#fff" d="M0 0h16v16H0z"/></clipPath></defs></svg>