<svg width="16" height="16" fill="none" xmlns="http://www.w3.org/2000/svg"><g clip-path="url(#clip0)" fill="#B3BDD0"><path d="M8 .112A7.888 7.888 0 1015.888 8 7.896 7.896 0 008 .112zm0 14.792A6.904 6.904 0 1114.904 8 6.912 6.912 0 018 14.904z"/><path d="M8 16A8 8 0 118 0a8 8 0 010 16zM8 .192A7.808 7.808 0 1015.808 8 7.816 7.816 0 008 .192zm0 14.792A6.984 6.984 0 1114.984 8 6.992 6.992 0 018 14.984zM8 1.176A6.824 6.824 0 1014.824 8 6.832 6.832 0 008 1.176z"/><path d="M8.496 3.072h-.992v5.136l3.104 3.096.696-.696-2.808-2.816v-4.72z"/><path d="M10.608 11.416l-.056-.056-3.12-3.12V2.992h1.136v4.8l2.848 2.848-.808.776zM7.584 8.168l3.024 3.032.584-.584-2.776-2.784v-4.68h-.8l-.032 5.016z"/></g><defs><clipPath id="clip0"><path fill="#fff" d="M0 0h16v16H0z"/></clipPath></defs></svg>