<svg width="25" height="25" fill="none" xmlns="http://www.w3.org/2000/svg"><g clip-path="url(#clip0)"><path d="M23.619.001H1.379A1.38 1.38 0 000 1.381v22.238A1.38 1.38 0 001.38 25h11.973v-9.68h-3.258v-3.773h3.257V8.763c0-3.228 1.972-4.987 4.852-4.987 1.381 0 2.566.103 2.911.148v3.374l-1.998.001c-1.566 0-1.868.745-1.868 1.837v2.408h3.736l-.488 3.773h-3.249V25h6.37c.763 0 1.381-.619 1.381-1.38V1.38A1.38 1.38 0 0023.62.002z" fill="#7CADFF"/></g><defs><clipPath id="clip0"><path fill="#fff" d="M0 0h25v25H0z"/></clipPath></defs></svg>