<svg width="12" height="16" fill="none" xmlns="http://www.w3.org/2000/svg"><path d="M6 .072A5.816 5.816 0 00.192 5.88c0 1.472.928 3.552 2.752 6.184a41.283 41.283 0 002.712 3.472l.344.392.344-.392a41.287 41.287 0 002.712-3.472c1.824-2.632 2.752-4.712 2.752-6.184A5.817 5.817 0 006 .072zm2.296 11.456c-.904 1.296-1.816 2.4-2.296 2.984a42.03 42.03 0 01-2.296-2.976C2 9.096 1.12 7.144 1.12 5.88a4.88 4.88 0 119.76 0c0 1.264-.88 3.216-2.584 5.648z" fill="#B3BDD0"/><path d="M6 16.048l-.408-.464a41.006 41.006 0 01-2.712-3.472C1.04 9.464.112 7.368.112 5.88a5.888 5.888 0 0111.776 0c0 1.488-.928 3.584-2.768 6.232a41.006 41.006 0 01-2.712 3.472L6 16.048zM6 .152A5.736 5.736 0 00.272 5.88c0 1.456.928 3.52 2.744 6.12a41.582 41.582 0 002.696 3.464l.288.328.288-.328A39.663 39.663 0 008.984 12c1.824-2.616 2.744-4.68 2.744-6.136A5.736 5.736 0 006 .152zM6 14.64l-.064-.072a43.445 43.445 0 01-2.296-2.992C1.936 9.128 1.04 7.2 1.04 5.88a4.96 4.96 0 019.92 0c0 1.28-.896 3.248-2.6 5.688a42.92 42.92 0 01-2.296 3L6 14.64zM6 1.08a4.8 4.8 0 00-4.8 4.8c0 1.248.888 3.2 2.576 5.6A41.683 41.683 0 006 14.4c.48-.576 1.36-1.664 2.232-2.912 1.68-2.4 2.568-4.352 2.568-5.6A4.798 4.798 0 006 1.08z" fill="#B3BDD0"/><path d="M6 2.224a3.432 3.432 0 100 6.864 3.432 3.432 0 000-6.864zm0 5.928a2.504 2.504 0 110-5.008 2.504 2.504 0 010 5.008z" fill="#B3BDD0"/><path d="M6 9.16a3.512 3.512 0 113.512-3.512A3.52 3.52 0 016 9.16zm0-6.856a3.352 3.352 0 100 6.704 3.352 3.352 0 000-6.704zm0 5.928a2.584 2.584 0 110-5.168 2.584 2.584 0 010 5.168zM6 3.2A2.4 2.4 0 106 8a2.4 2.4 0 000-4.8z" fill="#B3BDD0"/></svg>