<svg width="48" height="48" fill="none" xmlns="http://www.w3.org/2000/svg"><path d="M44.782 20.88C44.414 9.301 35.236 0 24 0S3.586 9.302 3.218 20.88A4.005 4.005 0 000 24.8V36a4.005 4.005 0 004 4 7.208 7.208 0 007.2 7.2h7.422c.284.493.809.798 1.378.8h7.2a1.6 1.6 0 001.6-1.6v-3.2a1.6 1.6 0 00-1.6-1.6H20a1.594 1.594 0 00-1.378.8H11.2A2.403 2.403 0 018.8 40h2.4a1.6 1.6 0 001.6-1.6v-16a1.6 1.6 0 00-1.6-1.6H8.039c.401-8.891 7.396-16 15.961-16 8.565 0 15.56 7.109 15.961 16h-3.16c-.884 0-1.6.717-1.601 1.6v16a1.6 1.6 0 001.6 1.6H44a4.005 4.005 0 004-4V24.8a4.005 4.005 0 00-3.218-3.92zM20 43.2h7.2l.001 3.2H20v-3.2zm-8.8.8h7.2v1.6h-7.2A5.606 5.606 0 015.6 40h1.6a4.005 4.005 0 004 4zm0-21.6l.001 16H4A2.403 2.403 0 011.6 36V24.8A2.403 2.403 0 014 22.4h7.2zM24 3.2c-9.448 0-17.178 7.824-17.58 17.6h-1.6C5.223 10.142 13.67 1.6 24 1.6s18.776 8.542 19.18 19.2h-1.6C41.179 11.024 33.449 3.2 24 3.2zM46.4 36a2.403 2.403 0 01-2.4 2.4h-7.2v-16H44a2.403 2.403 0 012.4 2.4V36z" fill="#3C84FC"/><path d="M32.8 31.2h-1.6v-2a.8.8 0 10-1.6 0v2h-3.39l4.073-6.788a.8.8 0 00-1.372-.824l-4.8 8a.8.8 0 00.686 1.212H29.6v2.4a.8.8 0 101.6 0v-2.4h1.6a.8.8 0 000-1.6zm-17.958 3.285A.8.8 0 0015.2 36h7.2a.8.8 0 000-1.6h-4.45c1.975-1.483 4.451-3.984 4.451-7.2a4 4 0 00-7-2.646.8.8 0 001.2 1.059 2.4 2.4 0 014.2 1.587c0 4.244-5.899 7.255-5.958 7.285z" fill="#3C84FC"/></svg>