<svg width="25" height="25" fill="none" xmlns="http://www.w3.org/2000/svg"><path d="M18.233 0H6.767A6.775 6.775 0 000 6.767v11.466A6.775 6.775 0 006.767 25h11.466A6.775 6.775 0 0025 18.233V6.767A6.775 6.775 0 0018.233 0zM12.5 19.336A6.843 6.843 0 015.664 12.5 6.843 6.843 0 0112.5 5.664a6.843 6.843 0 016.836 6.836 6.843 6.843 0 01-6.836 6.836zm7-12.06a2.022 2.022 0 01-2.02-2.02c0-1.113.905-2.02 2.02-2.02 1.113 0 2.02.907 2.02 2.02 0 1.114-.907 2.02-2.02 2.02z" fill="#7CADFF"/><path d="M12.5 7.13a5.376 5.376 0 00-5.37 5.37c0 2.96 2.409 5.37 5.37 5.37 2.961 0 5.37-2.41 5.37-5.37a5.376 5.376 0 00-5.37-5.37zm7-2.428a.555.555 0 100 1.11.555.555 0 000-1.11z" fill="#7CADFF"/></svg>