<svg width="103" height="21" fill="none" xmlns="http://www.w3.org/2000/svg"><path d="M.892 16V.38H3.73v13.178h6.754V16H.892zm12.177-1.386c-1.188-1.115-1.782-2.523-1.782-4.224s.594-3.102 1.782-4.202c1.188-1.115 2.64-1.672 4.356-1.672 1.73 0 3.19.557 4.378 1.672 1.202 1.1 1.804 2.5 1.804 4.202 0 1.701-.594 3.11-1.782 4.224-1.188 1.1-2.648 1.65-4.378 1.65-1.731 0-3.19-.55-4.378-1.65zm1.056-4.224c0 1.027.315 1.87.946 2.53.645.645 1.437.968 2.376.968.938 0 1.73-.323 2.376-.968.645-.66.968-1.503.968-2.53 0-1.012-.33-1.848-.99-2.508a3.169 3.169 0 00-2.354-.99c-.924 0-1.709.33-2.354.99-.646.66-.968 1.496-.968 2.508zm13.063 7.128a7.024 7.024 0 003.102.726c.939 0 1.701-.22 2.288-.66.587-.44.88-1.13.88-2.068v-.704l.044-.594h-.044c-.69 1.041-1.738 1.562-3.146 1.562-1.555 0-2.78-.543-3.674-1.628-.895-1.085-1.342-2.435-1.342-4.048s.433-2.948 1.298-4.004c.88-1.056 2.097-1.584 3.652-1.584 1.525 0 2.64.491 3.344 1.474h.066a.976.976 0 01-.044-.308V4.78h2.64v10.538c0 .924-.169 1.738-.506 2.442-.337.704-.792 1.254-1.364 1.65a5.926 5.926 0 01-1.892.902 7.368 7.368 0 01-2.156.308 8.585 8.585 0 01-4.004-.968l.858-2.134zm.924-7.502c0 1.012.242 1.833.726 2.464.499.63 1.195.946 2.09.946.748 0 1.364-.257 1.848-.77.499-.513.748-1.357.748-2.53 0-2.156-.924-3.234-2.772-3.234-.836 0-1.489.286-1.958.858-.455.557-.682 1.313-.682 2.266zm12.242 4.598c-1.188-1.115-1.782-2.523-1.782-4.224s.594-3.102 1.782-4.202c1.188-1.115 2.64-1.672 4.356-1.672 1.73 0 3.19.557 4.378 1.672 1.203 1.1 1.804 2.5 1.804 4.202 0 1.701-.594 3.11-1.782 4.224-1.188 1.1-2.648 1.65-4.378 1.65s-3.19-.55-4.378-1.65zm1.056-4.224c0 1.027.315 1.87.946 2.53.645.645 1.437.968 2.376.968.938 0 1.73-.323 2.376-.968.645-.66.968-1.503.968-2.53 0-1.012-.33-1.848-.99-2.508a3.169 3.169 0 00-2.354-.99c-.924 0-1.709.33-2.354.99-.645.66-.968 1.496-.968 2.508z" fill="#FFB228"/><path d="M58.851 12.942V.468h2.112V12.59c0 .601.103 1.02.308 1.254.22.22.52.33.902.33.161 0 .286-.007.374-.022v1.892a5.4 5.4 0 01-.704.066c-1.995 0-2.992-1.056-2.992-3.168zm5.14-2.53c0-1.657.579-3.036 1.737-4.136 1.16-1.115 2.574-1.672 4.246-1.672 1.687 0 3.11.55 4.268 1.65 1.16 1.1 1.738 2.486 1.738 4.158 0 1.672-.579 3.065-1.738 4.18-1.158 1.115-2.574 1.672-4.246 1.672-1.672 0-3.094-.557-4.268-1.672-1.158-1.115-1.738-2.508-1.738-4.18zm2.177 0c0 1.159.367 2.12 1.1 2.882.748.748 1.658 1.122 2.728 1.122 1.056 0 1.958-.381 2.706-1.144.748-.763 1.122-1.716 1.122-2.86s-.374-2.09-1.122-2.838a3.688 3.688 0 00-2.706-1.122c-1.07 0-1.98.374-2.728 1.122-.733.748-1.1 1.694-1.1 2.838zm13.44 7.612c.998.499 2.017.748 3.058.748 1.042 0 1.885-.257 2.53-.77.66-.499.99-1.276.99-2.332v-.902l.066-.704h-.044c-.718 1.203-1.833 1.804-3.344 1.804-1.51 0-2.72-.535-3.63-1.606-.894-1.07-1.342-2.427-1.342-4.07 0-1.643.433-2.985 1.298-4.026.866-1.041 2.054-1.562 3.564-1.562.748 0 1.438.14 2.068.418a3.085 3.085 0 011.452 1.276h.066a.735.735 0 01-.066-.33v-1.1h2.046v10.67c0 .88-.161 1.657-.484 2.332-.308.675-.733 1.203-1.276 1.584a5.778 5.778 0 01-1.782.88 7.263 7.263 0 01-2.068.286c-1.305 0-2.574-.308-3.806-.924l.704-1.672zm.44-7.898c0 1.173.286 2.12.858 2.838.587.704 1.379 1.056 2.376 1.056.866 0 1.57-.3 2.112-.902.558-.601.836-1.577.836-2.926 0-2.493-1.048-3.74-3.146-3.74-.953 0-1.701.33-2.244.99-.528.645-.792 1.54-.792 2.684zm10.84.286c0-1.657.58-3.036 1.739-4.136 1.159-1.115 2.574-1.672 4.246-1.672 1.686 0 3.11.55 4.268 1.65 1.159 1.1 1.738 2.486 1.738 4.158 0 1.672-.579 3.065-1.738 4.18-1.159 1.115-2.574 1.672-4.246 1.672-1.672 0-3.095-.557-4.268-1.672-1.159-1.115-1.738-2.508-1.738-4.18zm2.179 0c0 1.159.367 2.12 1.1 2.882.748.748 1.657 1.122 2.728 1.122 1.056 0 1.958-.381 2.706-1.144.748-.763 1.122-1.716 1.122-2.86s-.374-2.09-1.122-2.838a3.688 3.688 0 00-2.706-1.122c-1.07 0-1.98.374-2.728 1.122-.734.748-1.1 1.694-1.1 2.838z" fill="#252525"/></svg>