<svg width="46" height="46" fill="none" xmlns="http://www.w3.org/2000/svg"><path d="M12.5 17.75H11v1.5h1.5v-1.5zm7.5 0h-1.5v1.5H20v-1.5z" fill="#3C84FC"/><path d="M44.856 26.008l-2.93-.419c-.14-.41-.304-.81-.492-1.2l1.773-2.364a.75.75 0 00-.07-.98l-3.182-3.183a.742.742 0 00-.455-.212v-7.22a6 6 0 002.25-4.68A5.938 5.938 0 0038.32.332a.75.75 0 00-1.07.678v4.2l-1.5.5-1.5-.5v-4.2a.75.75 0 00-1.07-.675 5.938 5.938 0 00-3.43 5.415A5.998 5.998 0 0032 10.43v5.07h-2.25a.75.75 0 00-.742.643l-.486 3.397 1.485.213L30.4 17h3.2l.393 2.753a.75.75 0 00.532.613c.625.18 1.229.429 1.8.74a.75.75 0 00.811-.058l2.22-1.664 2.263 2.261-1.669 2.221a.75.75 0 00-.058.811 8.88 8.88 0 01.74 1.8.75.75 0 00.614.532l2.752.393v3.2l-2.752.393a.75.75 0 00-.614.532 8.954 8.954 0 01-.74 1.8.75.75 0 00.058.811l1.665 2.221-2.262 2.262-2.22-1.671a.75.75 0 00-.81-.058 8.956 8.956 0 01-1.8.74.75.75 0 00-.533.614L33.6 41h-3.1v-3.172c0-.792-.114-1.58-.337-2.34a6.832 6.832 0 10-4.796-5.297c-.018-.008-.035-.017-.053-.023l-6.064-2.426V26.59a8.317 8.317 0 002.61-2.09h1.89A2.25 2.25 0 0026 22.25v-1.638a2.25 2.25 0 001.5-2.112v-2.25a2.25 2.25 0 00-1.5-2.112v-.888a10.5 10.5 0 00-21 0v.888a2.25 2.25 0 00-1.5 2.112v2.25a2.25 2.25 0 002.25 2.25h1.5c.048 0 .094-.008.142-.01a8.267 8.267 0 004.358 5.85v1.152l-6.064 2.426A8.212 8.212 0 00.5 37.828v6.922a.75.75 0 00.75.75h28.5a.75.75 0 00.75-.75V42.5h3.75a.75.75 0 00.742-.644l.419-2.93c.41-.14.81-.304 1.2-.492l2.364 1.773a.75.75 0 00.98-.07l3.183-3.182a.75.75 0 00.07-.98l-1.774-2.365c.189-.39.354-.79.493-1.2l2.93-.418a.75.75 0 00.643-.742v-4.5a.75.75 0 00-.644-.742zm-8.25-6.441c-.035-.018-.075-.029-.11-.046V10.25H35v5.948l-.008-.055a.75.75 0 00-.742-.643h-.75v-5.445a.75.75 0 00-.322-.616 4.5 4.5 0 01-.428-7.047V5.75a.75.75 0 00.513.712l2.25.75a.75.75 0 00.474 0l2.25-.75a.75.75 0 00.513-.712V2.392a4.5 4.5 0 01-.428 7.05.75.75 0 00-.322.613v8.47l-1.394 1.042zM26.75 29a5.287 5.287 0 112.5 4.456 8.188 8.188 0 00-1.959-2.158A5.126 5.126 0 0126.75 29zm-3-6h-.91a8.173 8.173 0 00.768-2.26c.047 0 .094.01.142.01h.75v1.5a.75.75 0 01-.75.75zm-1.5-8.25a2.262 2.262 0 01-1.8-.9l-1.35-1.8a.75.75 0 00-1.069-.136l-2.517 2.011a3.763 3.763 0 01-2.339.825H8.75V14a6.75 6.75 0 1113.5 0v.75zM26 18.5a.75.75 0 01-.75.75h-1.5V15.5h1.5a.75.75 0 01.75.75v2.25zM15.5 4.25a9.01 9.01 0 019 9V14h-.75a8.25 8.25 0 00-16.5 0H6.5v-.75a9.01 9.01 0 019-9zm-9.75 15A.75.75 0 015 18.5v-2.25a.75.75 0 01.75-.75h1.5v3.75h-1.5zm3 0v-3h4.425a5.268 5.268 0 003.279-1.15l1.913-1.531.883 1.181a3.768 3.768 0 003 1.5v3A6.71 6.71 0 0121.108 23H15.5v1.5h4.233A6.744 6.744 0 018.75 19.25zm6.75 8.25a8.226 8.226 0 002.25-.32v1.07a2.25 2.25 0 01-4.5 0v-1.07c.732.21 1.489.318 2.25.32zM29 44h-4.5v-8.25H23V44H8v-8.25H6.5V44H2v-6.172a6.719 6.719 0 014.243-6.268l5.673-2.268a3.726 3.726 0 007.168 0l5.672 2.268A6.72 6.72 0 0129 37.828V44z" fill="#3C84FC"/><path d="M32.75 18.5h-1.5V20h1.5v-1.5zm0 19.5h-1.5v1.5h1.5V38zm6.144-3.166l-1.061 1.06 1.06 1.061 1.061-1.06-1.06-1.061zM42.5 28.25H41v1.5h1.5v-1.5zm-3.606-7.204l-1.06 1.06 1.06 1.06 1.06-1.06-1.06-1.06z" fill="#3C84FC"/></svg>