<svg width="17" height="14" fill="none" xmlns="http://www.w3.org/2000/svg"><path d="M4.725 4.01a.783.783 0 10.763.783.776.776 0 00-.763-.783zm0 1.04a.263.263 0 11.084-.52.263.263 0 01-.084.52z" fill="#3C84FC"/><path d="M4.725 5.69a.904.904 0 11-.04-1.808.904.904 0 01.04 1.809zm0-1.559a.675.675 0 100 1.35.675.675 0 000-1.35zm0 1.04a.385.385 0 11.102-.763.385.385 0 01-.102.763zm0-.52a.135.135 0 00-.135.142.135.135 0 00.135.135.142.142 0 100-.277z" fill="#3C84FC"/><path d="M16.254 3.747L13.027.52a.52.52 0 00-.364-.148h-.675a.526.526 0 00-.371.148l-3.01 2.99v1.283h.93l.264.256L8.35 6.5 6.892 5.05l.263-.257H8.1V3.51L5.096.52a.527.527 0 00-.371-.148H4.05a.52.52 0 00-.385.148L.44 3.747a.513.513 0 00-.155.37v.676a.5.5 0 00.155.364l2.99 2.99h1.296v-.91L4.968 7l1.451 1.451L5.4 9.477h-.175a2.079 2.079 0 102.079 2.08.997.997 0 000-.143l1.046-1.039 1.046 1.046a.999.999 0 000 .142 2.079 2.079 0 102.079-2.093h-.149L10.28 8.425 11.725 7l.263.256v.932h1.276l2.99-3.01a.499.499 0 00.155-.365v-.675a.516.516 0 00-.155-.371v-.02zM12.663.925l3.226 3.227v.675l-.067.06L11.9.925l.068-.06.695.06zm2.794 4.32l-.411.405-3.929-3.915.412-.412 3.928 3.922zm-5.292.175l.412.412-1.451 1.452-.412-.412 1.451-1.452zm-4.59-3.685L1.648 5.65l-.412-.405 3.929-3.922.412.412zM.804 4.118L4.05.925h.743L.87 4.874l-.068-.061v-.695zM4.178 7.02v.655h-.533l-1.62-1.647L5.94 2.1l1.627 1.626V4.3h-.628l-2.76 2.72zm2.599 1.776l.412.411-.675.675a2.248 2.248 0 00-.527-.297l.79-.79zm-1.552 4.313a1.56 1.56 0 110-3.12 1.56 1.56 0 010 3.12zm1.944-2.302a1.848 1.848 0 00-.304-.527l.675-.675.412.412-.783.79zm5.859.742a1.56 1.56 0 11-3.12 0 1.56 1.56 0 013.12 0zm-2.835-1.64L8.269 7.985l-.365.372 1.924 1.924c-.13.157-.232.335-.304.526L5.333 6.608l.411-.411 1.897 1.897.371-.365-1.896-1.897.411-.412 4.192 4.192a2.247 2.247 0 00-.526.297zm-.284-1.85l-.412-.384 1.451-1.451.412.412L9.91 8.06zm3.139-.384h-.54V7L9.754 4.3h-.628v-.54l1.627-1.627 3.921 3.929-1.626 1.613z" fill="#3C84FC"/><path d="M11.475 13.75a2.2 2.2 0 01-2.2-2.2v-.095l-.919-.925-.931.925v.095a2.2 2.2 0 11-2.2-2.2h.1l.925-.926-1.282-1.282-.142.142v.999H3.375v-.034L.351 5.265a.675.675 0 01-.189-.452v-.675a.675.675 0 01.189-.452L3.577.432A.675.675 0 014.05.25h.675c.17 0 .335.066.459.182l3.024 3.031v1.445H7.202l-.135.141L8.35 6.325l1.275-1.282L9.49 4.9H8.485V3.463l3.024-3.03a.675.675 0 01.459-.183h.675c.17 0 .334.066.459.182l3.226 3.234a.675.675 0 01.19.452v.675a.675.675 0 01-.19.452L13.304 8.27h-1.438v-.98l-.141-.141-1.276 1.282.918.925h.108a2.2 2.2 0 110 4.394zm-3.119-3.564l1.168 1.175v.054c-.003.045-.003.09 0 .135a1.957 1.957 0 101.958-1.958h-.23l-1.127-1.16 1.62-1.628.385.385v.857h1.107l2.963-2.95a.412.412 0 00.115-.283v-.675a.397.397 0 00-.115-.304L12.94.608a.405.405 0 00-.284-.122h-.675a.405.405 0 00-.283.122l-2.97 2.956v1.107h.864l.378.378-1.62 1.627-1.6-1.627.378-.378h.837V3.564L5.008.608a.405.405 0 00-.283-.122H4.05a.405.405 0 00-.284.122L.52 3.834a.398.398 0 00-.115.284v.675c0 .106.042.207.115.283l2.956 2.95h1.107V7.19l.385-.385 1.62 1.627L5.4 9.606h-.176a1.964 1.964 0 101.958 1.957v-.169l.04-.06 1.134-1.148zm3.119 3.044a1.68 1.68 0 111.555-1.036 1.671 1.671 0 01-1.555 1.036zm0-3.118a1.445 1.445 0 10-.013 2.89 1.445 1.445 0 00.013-2.89zm-6.25 3.118a1.68 1.68 0 110-3.36 1.68 1.68 0 010 3.36zm0-3.118a1.445 1.445 0 10-.014 2.89 1.445 1.445 0 00.013-2.89zm4.346.938L5.164 6.61l.58-.58 1.897 1.896.196-.196L5.94 5.832l.587-.587 4.408 4.415-.135.04c-.18.067-.348.16-.5.277l-.08.067-1.918-1.917-.202.223 1.91 1.91-.088.115c-.12.148-.215.315-.283.493l-.068.182zm-4.05-4.414l3.99 3.982c.05-.105.11-.207.175-.304L7.73 8.35l.54-.54 1.937 1.937c.095-.07.197-.132.304-.182L6.527 5.583l-.243.243 1.897 1.896-.54.534-1.897-1.89-.223.27zm1.6 4.414l-.067-.175a1.943 1.943 0 00-.304-.5l-.06-.08.856-.858.581.58-1.006 1.033zm-.094-.736c.066.097.124.199.175.304l.608-.6-.243-.244-.54.54zm-.52-.216l-.081-.067a2.026 2.026 0 00-.5-.33l-.168-.068L6.784 8.6l.587.58-.864.918zm-.324-.5c.106.051.207.11.304.176l.54-.54-.243-.236-.601.6zm3.726-1.35l-.587-.573 1.627-1.62.58.58-1.62 1.614zm-.243-.573l.243.243 1.282-1.282-.243-.243-1.282 1.282zm3.436.122h-.716v-.675l-2.7-2.7h-.675v-.675l1.748-1.749 4.091 4.03-1.748 1.769zm-.473-.243h.372l1.505-1.499-3.753-3.78L9.247 3.78v.372h.594L12.63 7v.554zm-8.323.243h-.715L1.849 6.028 5.94 1.931l1.748 1.748v.675h-.675l-2.7 2.7-.007.743zm-.614-.243h.358V7l.034-.034L6.878 4.18h.547v-.4L5.94 2.275 2.187 6.028l1.505 1.526zm5.434-.075l-.58-.58 1.62-1.627.587.587-1.627 1.62zm-.243-.58l.243.243 1.283-1.283-.244-.243L8.883 6.9zm6.163-1.046l-4.098-4.118.581-.587 4.097 4.097-.58.608zm-3.753-4.118l3.753 3.753.236-.243-3.753-3.753-.236.243zm-9.646 4.09l-.58-.58 4.097-4.097.58.587-4.097 4.09zm-.236-.58l.236.243L5.4 1.735l-.236-.243L1.41 5.245zm14.411-.196L11.732.925l.182-.182h.83l3.267 3.26v.857l-.189.19zM12.15 1.013l3.638 3.638v-.486L12.61 1.013h-.459zM.891 5.063L.675 4.86v-.796l.04-.034L3.982.77h.797l.182.155-4.07 4.138zm.034-.898v.486l3.638-3.638h-.48L.926 4.165z" fill="#3C84FC"/><path d="M11.988 4.01a.783.783 0 10-.013 1.566.783.783 0 00.013-1.566zm0 1.04a.263.263 0 11-.084-.52.263.263 0 01.084.52z" fill="#3C84FC"/><path d="M11.988 5.69a.904.904 0 11-.014-1.808.904.904 0 01.014 1.809zm0-1.559a.675.675 0 100 1.35.675.675 0 000-1.35zm0 1.04a.385.385 0 11-.102-.763.385.385 0 01.102.763zm0-.52a.142.142 0 100 .277.135.135 0 00.135-.135.135.135 0 00-.135-.142zM5.224 10.51c-.154 0-.306.035-.445.101l.223.473a.52.52 0 01.742.466.452.452 0 01-.054.222l.473.223a1.04 1.04 0 00-.938-1.485z" fill="#3C84FC"/><path d="M6.217 12.157l-.675-.324.04-.108a.365.365 0 00-.013-.357.405.405 0 00-.513-.17l-.108.054-.331-.675.108-.074c.155-.078.326-.122.5-.128a1.161 1.161 0 011.046 1.66l-.054.122zm-.372-.432l.257.122c.027-.093.04-.188.04-.284a.918.918 0 00-1.201-.87l.121.256a.62.62 0 01.5.074.674.674 0 01.304.54.675.675 0 01-.02.162zm-1.12-.175a.54.54 0 01.054-.223l-.473-.223a1.04 1.04 0 001.384 1.384l-.223-.473a.52.52 0 01-.742-.466z" fill="#3C84FC"/><path d="M5.225 12.71a1.161 1.161 0 01-1.175-1.16c.006-.174.05-.345.128-.5l.054-.108.675.33-.054.109a.384.384 0 00-.04.169.412.412 0 00.189.337.378.378 0 00.378 0l.115-.047.324.675-.108.047a1.1 1.1 0 01-.486.149zm-.871-1.437a.77.77 0 00-.047.277.917.917 0 00.918.918c.097-.01.192-.032.283-.068l-.108-.23a.673.673 0 01-.803-.62.675.675 0 010-.162l-.243-.115zm6.648.499a.453.453 0 01-.054-.223.52.52 0 01.743-.465l.223-.473a1.04 1.04 0 00-1.384 1.384l.473-.223z" fill="#3C84FC"/><path d="M10.476 12.157l-.054-.108a1.175 1.175 0 01.603-1.586 1.16 1.16 0 01.95.027l.107.054-.33.675-.108-.054a.364.364 0 00-.378 0 .384.384 0 00-.149.5l.047.114-.688.378zm.999-1.525a.918.918 0 00-.918.918c0 .095.014.19.04.283l.257-.122a.675.675 0 010-.162.675.675 0 01.304-.54.62.62 0 01.5-.074l.12-.256a.829.829 0 00-.303-.047zm-.23 1.383l-.222.473a1.025 1.025 0 00.946-.028 1.04 1.04 0 00.438-1.356l-.473.223a.54.54 0 01.054.223.519.519 0 01-.742.465z" fill="#3C84FC"/><path d="M11.475 12.71a1.086 1.086 0 01-.5-.114l-.108-.047.324-.675.115.047a.378.378 0 00.378 0 .412.412 0 00.19-.338.384.384 0 00-.041-.168l-.054-.108.675-.331.054.108a1.2 1.2 0 01.114.5 1.161 1.161 0 01-1.147 1.127zm-.29-.31c.092.027.187.04.283.04a.918.918 0 00.87-1.2l-.249.12a.675.675 0 010 .163.676.676 0 01-.803.62l-.101.257z" fill="#3C84FC"/></svg>