<svg width="48" height="48" fill="none" xmlns="http://www.w3.org/2000/svg"><g clip-path="url(#clip0)" fill="#3C84FC"><path d="M32 28a1.6 1.6 0 00-1.6 1.6.8.8 0 01-1.6 0 3.2 3.2 0 012.4-3.086v-.913a.8.8 0 111.6 0v.913A3.193 3.193 0 0132 32.8a1.6 1.6 0 101.6 1.6.8.8 0 011.6 0 3.2 3.2 0 01-2.4 3.087v.913a.8.8 0 01-1.6 0v-.911A3.193 3.193 0 0132 31.2a1.6 1.6 0 000-3.2zm-2.4-8h4.8a.8.8 0 010 1.6h-4.8a.8.8 0 010-1.6zm0 22.4h4.8a.8.8 0 010 1.6h-4.8a.8.8 0 010-1.6z"/><path d="M4.166 30.8L15.91 10.46a13.473 13.473 0 01-1.905-2.374c-1.334-2.16-1.572-4.21-.67-5.771 1.793-3.108 7.46-3.083 12.899.056.722.423 1.417.892 2.08 1.403l.645-.733A4.06 4.06 0 0132 1.668a4.06 4.06 0 013.04 1.373l8.746 9.91a4.052 4.052 0 011.014 2.683V40.8a7.208 7.208 0 01-7.2 7.2H26.4a7.208 7.208 0 01-7.2-7.2V15.634c.002-.77.224-1.525.64-2.173h-.006a19.544 19.544 0 01-2.713-1.893L5.55 31.6a5.6 5.6 0 002.05 7.651l9.699 5.6c.427.244.884.43 1.36.554a.8.8 0 01-.412 1.546c-.61-.16-1.196-.4-1.744-.714l-9.7-5.6A7.2 7.2 0 014.167 30.8zm16.634 10a5.606 5.606 0 005.6 5.6h11.2a5.606 5.606 0 005.6-5.6V15.634c0-.598-.22-1.176-.615-1.625L33.839 4.1a2.454 2.454 0 00-3.68 0l-7.802 8.842a13.242 13.242 0 005.705 1.266 3.963 3.963 0 01-.063-.607 4.004 4.004 0 014-4 .78.78 0 01.257.052.791.791 0 01.868.61 4.472 4.472 0 01-.391 3.249 4.334 4.334 0 01-2.333 1.87 2.39 2.39 0 004-1.781.8.8 0 011.6 0 3.995 3.995 0 01-7.355 2.165c-.315.033-.631.05-.948.052a15.428 15.428 0 01-6.425-1.618 2.44 2.44 0 00-.472 1.434V40.8zm8.8-27.2c.003.118.014.235.035.35a2.908 2.908 0 001.712-1.238c.247-.45.353-.965.304-1.476a2.4 2.4 0 00-2.052 2.365zm-8.966-1.532c.08.046.16.086.24.131l6.376-7.226c-.58-.44-1.187-.845-1.816-1.212C20.927 1.158 16.02.864 14.72 3.12c-.594 1.028-.364 2.496.646 4.132.4.635.86 1.229 1.376 1.773l.008-.014a4.052 4.052 0 012.22-1.817l3.133-1.059a.8.8 0 01.51 1.516l-3.134 1.054a2.458 2.458 0 00-1.343 1.1l-.204.352c.84.72 1.744 1.36 2.702 1.912v-.002z"/><path d="M17.492 32.246a.8.8 0 01-1.092.293l-5.543-3.2a.8.8 0 11.8-1.386l5.543 3.2a.8.8 0 01.292 1.093zM16.48 37.2a.8.8 0 01-1.093.294l-6.928-4a.8.8 0 11.8-1.386l6.928 4a.8.8 0 01.293 1.092zm-.453-9.618a.8.8 0 01-.4-.107l-2.77-1.6a.8.8 0 11.8-1.386l2.77 1.6a.8.8 0 01-.4 1.493z"/></g><defs><clipPath id="clip0"><path fill="#fff" transform="matrix(-1 0 0 1 48 0)" d="M0 0h48v48H0z"/></clipPath></defs></svg>