<svg width="48" height="48" fill="none" xmlns="http://www.w3.org/2000/svg"><path d="M20.8 15.2a2.403 2.403 0 00-2.4 2.4H20a.8.8 0 011.6 0h1.6c0-1.323-1.077-2.4-2.4-2.4zm6.4 0a2.403 2.403 0 00-2.4 2.4h1.6a.8.8 0 011.6 0h1.6c0-1.323-1.077-2.4-2.4-2.4zM24 36.8a3.203 3.203 0 00-3.2 3.2c0 1.765 1.435 3.2 3.2 3.2 1.765 0 3.2-1.435 3.2-3.2 0-1.765-1.435-3.2-3.2-3.2zm0 4.8c-.882 0-1.6-.718-1.6-1.6 0-.882.718-1.6 1.6-1.6.882 0 1.6.718 1.6 1.6 0 .882-.718 1.6-1.6 1.6z" fill="#3C84FC"/><path d="M43.2 46.4V36c0-6.617-5.383-12-12-12h-.871c.285-.25.553-.518.806-.8H32c2.206 0 4-1.794 4-4v-1.41a3.598 3.598 0 001.6-2.99c0-1.25-.64-2.35-1.61-2.996C35.884 5.278 30.551 0 24 0S12.116 5.278 12.01 11.804A3.597 3.597 0 0014 18.4h.545a9.583 9.583 0 003.127 5.6H16.8c-6.617 0-12 5.383-12 12v10.4H0V48h48v-1.6h-4.8zm-8.8-27.2a2.395 2.395 0 01-2.08 2.367 9.514 9.514 0 001.135-3.167H34c.137 0 .267-.026.4-.04v.84zm1.6-4.4c0 1.102-.897 2-2 2h-.4v-4h.4c1.103 0 2 .898 2 2zm-21.6 2H14c-1.103 0-2-.898-2-2 0-1.102.897-2 2-2h.4v4zm-.4-5.6c-.124 0-.24.024-.362.037C14.032 5.858 18.523 1.6 24 1.6s9.968 4.258 10.362 9.637c-.121-.013-.238-.037-.362-.037h-.545c-.765-4.533-4.708-8-9.455-8s-8.69 3.467-9.455 8H14zm18 1.58c-5.774-.203-9.6-2.564-9.6-4.78a.8.8 0 10-1.6 0c0 2-2.067 3.656-4.754 3.95.427-4.013 3.83-7.15 7.954-7.15 4.404 0 7.988 3.578 8 7.98zM16 16.8v-3.245c2.498-.217 4.618-1.421 5.677-3.109 1.673 2.218 5.585 3.779 10.323 3.938V16.8a7.95 7.95 0 01-1.615 4.8H24v1.6h4.78a7.96 7.96 0 01-8.078.88C17.934 22.82 16 20.035 16 16.8zm5.527 9.266c.79.21 1.617.334 2.473.334a9.57 9.57 0 002.473-.334L24 31.01l-2.473-4.945zM22.706 32h-1.412l-3.2-6.4h1.412l3.2 6.4zm5.788-6.4h1.412l-3.2 6.4h-1.412l3.2-6.4zM8.8 36v10.4H6.4V36c0-5.572 4.408-10.12 9.918-10.375L19.506 32H12.8c-2.206 0-4 1.794-4 4zm28.8 10.4H10.4V36c0-1.323 1.077-2.4 2.4-2.4h22.4c1.323 0 2.4 1.077 2.4 2.4v10.4zm4 0h-2.4V36c0-2.206-1.794-4-4-4h-6.706l3.188-6.375c5.51.254 9.918 4.803 9.918 10.375v10.4z" fill="#3C84FC"/><path d="M36 39.2h-1.6v5.6H36v-5.6zm0-3.2h-1.6v1.6H36V36z" fill="#3C84FC"/></svg>