<svg width="64" height="34" fill="none" xmlns="http://www.w3.org/2000/svg"><path d="M60.966 20.354l-9.95 11A5 5 0 0147.308 33H6a5 5 0 01-5-5V6a5 5 0 015-5h41.308a5 5 0 013.708 1.646l9.95 11a5 5 0 010 6.708z" fill="#fff" stroke="#DE603E" stroke-miterlimit="10" stroke-linecap="round" stroke-linejoin="round"/><path d="M7.103 20.32v-1.776h4.8v1.776h-4.8zM13.709 24a5.827 5.827 0 01-.096-1.008c0-.555.096-1.072.288-1.552.203-.48.459-.89.768-1.232a8.07 8.07 0 011.024-.976c.384-.299.763-.576 1.136-.832.384-.256.73-.507 1.04-.752.31-.245.56-.507.752-.784.203-.288.304-.581.304-.88 0-.48-.165-.864-.496-1.152-.33-.288-.741-.432-1.232-.432-.416 0-.805.128-1.168.384a3.03 3.03 0 00-.88.96l-1.536-1.024a4.591 4.591 0 011.504-1.632c.64-.427 1.392-.64 2.256-.64 1.035 0 1.91.304 2.624.912.715.597 1.072 1.413 1.072 2.448 0 .49-.096.955-.288 1.392a3.595 3.595 0 01-.72 1.104c-.298.31-.634.603-1.008.88-.362.277-.725.533-1.088.768-.362.235-.698.47-1.008.704a3.63 3.63 0 00-.768.736 1.503 1.503 0 00-.304.832h5.36V24H13.71zm15.36-.256c-.544.299-1.189.448-1.936.448-.746 0-1.397-.15-1.952-.448a3.213 3.213 0 01-1.28-1.28 6.744 6.744 0 01-.688-1.856 11.622 11.622 0 01-.208-2.304c0-.853.07-1.621.208-2.304.15-.683.379-1.296.688-1.84.31-.544.736-.965 1.28-1.264.544-.299 1.195-.448 1.952-.448 2.742 0 4.112 1.952 4.112 5.856 0 .853-.074 1.621-.224 2.304a6.402 6.402 0 01-.672 1.856 3.085 3.085 0 01-1.28 1.28zm-3.936-5.44c0 2.667.667 4 2 4 1.334 0 2-1.333 2-4 0-2.635-.666-3.952-2-3.952-1.333 0-2 1.317-2 3.952zm12.175-1.536c-.512.49-1.13.736-1.856.736a2.585 2.585 0 01-1.856-.736 2.413 2.413 0 01-.752-1.792c0-.693.25-1.285.752-1.776a2.556 2.556 0 011.856-.752c.715 0 1.328.25 1.84.752.523.49.784 1.083.784 1.776 0 .704-.256 1.301-.768 1.792zM33.244 24l8.72-11.36h1.872L35.116 24h-1.872zm1.456-8.272c.203.203.454.304.752.304.299 0 .55-.101.752-.304a.996.996 0 00.32-.752.978.978 0 00-.32-.736.996.996 0 00-.752-.32.996.996 0 00-.752.32 1.002 1.002 0 00-.304.736c0 .299.102.55.304.752zm5.104 7.728a2.394 2.394 0 01-.752-1.776c0-.693.25-1.285.752-1.776a2.556 2.556 0 011.856-.752c.715 0 1.328.25 1.84.752.512.49.768 1.083.768 1.776 0 .693-.256 1.285-.768 1.776-.501.49-1.114.736-1.84.736a2.585 2.585 0 01-1.856-.736zm.8-1.792c0 .299.102.55.304.752.203.203.454.304.752.304.299 0 .55-.101.752-.304a.996.996 0 00.32-.752.978.978 0 00-.32-.736.996.996 0 00-.752-.32.996.996 0 00-.752.32 1.002 1.002 0 00-.304.736z" fill="#DE603E"/></svg>