<svg width="122" height="109" fill="none" xmlns="http://www.w3.org/2000/svg"><path d="M99.885 89.95a35.664 35.664 0 01-5.349-7.793 37.226 37.226 0 00-22.124-18.635 37.103 37.103 0 00-12.827-1.609 12.534 12.534 0 0113.14 10.864 37.04 37.04 0 0025.634 29.248 37.246 37.246 0 0022.981-.355 36.83 36.83 0 01-21.456-11.72zM46.318 62.331a37.357 37.357 0 005.014 11.93 12.64 12.64 0 012.842-16.84A37.125 37.125 0 0066.709 20.57 37.082 37.082 0 0054.905.826a36.979 36.979 0 01.48 24.548 36.19 36.19 0 01-4.178 8.545 37.167 37.167 0 00-5.077 28.475l.188-.063zM66.27 75.117a12.535 12.535 0 01-15.982 5.954 37.104 37.104 0 00-38.232 7.52A37.105 37.105 0 00.9 108.712a37.02 37.02 0 0121.017-12.703 38.079 38.079 0 019.422-.73 37.145 37.145 0 0027.16-9.84 37.311 37.311 0 007.813-10.321h-.042z" fill="#414042"/></svg>