<svg width="127" height="123" fill="none" xmlns="http://www.w3.org/2000/svg"><path d="M39.836 50.215L20.1 38.742.341 50.215V73.11L20.1 84.558 39.835 73.11V50.215zm-4.25 20.432l-15.485 8.959-15.485-8.959v-17.97L20.1 43.694l15.485 8.985v17.97zM82.49 50.19L63.52 38.741 44.576 50.189v22.895l18.946 11.473 18.97-11.474V50.19zm24.475-11.448L87.23 50.215V73.11l19.735 11.448 19.761-11.448V50.215l-19.761-11.473zm15.486 31.905l-15.486 8.959-15.485-8.959v-17.97l15.485-8.984 15.486 8.985v17.97zM22.458 88.131v22.895l19.787 11.447 19.708-11.447V88.131L42.244 76.658 22.459 88.13zm35.173 20.511l-15.386 8.88-15.622-8.88V90.593l15.622-8.984 15.439 8.984-.053 18.049zm7.482-20.511v22.895l19.735 11.447 19.76-11.447V88.131l-19.76-11.473L65.113 88.13zm35.22 20.511L84.848 117.6l-15.46-8.958V90.593l15.46-8.984 15.485 8.984v18.049zm-38.38-73.448V12.22L42.271.826 22.458 12.221v22.894L42.27 46.641l19.682-11.447zM26.63 14.84l15.64-9.063 15.407 9.064v17.97L42.27 41.69l-15.642-8.96V14.84zm77.978 20.433V12.3L84.848.826 65.113 12.3v22.894L84.848 46.64l19.76-11.368zm-35.22-20.354l15.46-8.985 15.485 8.985v17.97l-15.485 8.958-15.46-8.958v-17.97z" fill="#414042"/></svg>