<svg width="121" height="119" fill="none" xmlns="http://www.w3.org/2000/svg"><path d="M22.32 33.643l8.363 4.181a10.766 10.766 0 009.657-.522l7.903-5.143a10.64 10.64 0 004.39-8.613l-.502-9.428a10.706 10.706 0 00-5.268-8.09L38.5 1.743a10.703 10.703 0 00-9.658.501L20.94 7.387A10.68 10.68 0 0016.551 16l.502 9.428a10.684 10.684 0 005.268 8.215zm50.443 12.209l-8.361-4.286a10.723 10.723 0 00-9.637.523l-7.986 5.143a10.767 10.767 0 00-4.39 8.612l.502 9.428a10.703 10.703 0 005.268 8.09l8.362 4.181a10.663 10.663 0 009.637-.501l7.922-5.143a10.805 10.805 0 004.39-8.634l-.501-9.407a10.747 10.747 0 00-5.206-8.006zM98.56 85.613l-8.362-4.181a10.7 10.7 0 00-9.658.501l-7.902 5.143a10.72 10.72 0 00-4.39 8.613l.502 9.428a10.74 10.74 0 005.226 7.964l8.362 4.181c1.539.672 3.214.975 4.89.885a10.775 10.775 0 004.768-1.407l7.922-5.143a10.678 10.678 0 004.37-8.612l-.439-9.261a10.692 10.692 0 00-5.29-8.111z" fill="#414042"/><path d="M36.954 62.2l-.397-7.339a10.761 10.761 0 014.39-8.612l15.406-10.014a10.724 10.724 0 019.637-.522l6.565 3.345a10.705 10.705 0 009.657-.502l7.902-5.164a10.7 10.7 0 004.39-8.612l-.501-9.407a10.702 10.702 0 00-5.268-8.111l-8.362-4.286a10.768 10.768 0 00-9.658.523l-8.07 5.059a10.683 10.683 0 00-4.368 8.612l.376 7.338a10.682 10.682 0 01-4.37 8.613L38.878 43.134a10.703 10.703 0 01-9.658.502l-6.543-3.324a10.704 10.704 0 00-9.658.502l-7.902 5.142a10.682 10.682 0 00-4.39 8.613l.502 9.428a10.684 10.684 0 005.268 8.11l8.362 4.182a10.765 10.765 0 009.658-.523l7.901-5.142a10.702 10.702 0 004.537-8.425zm82.762-7.066a10.797 10.797 0 00-5.268-8.111l-8.362-4.181a10.791 10.791 0 00-9.658.522l-7.902 5.143a10.726 10.726 0 00-4.39 8.613l.397 7.358a10.724 10.724 0 01-4.39 8.613l-15.386 9.992a10.767 10.767 0 01-9.658.523l-6.564-3.345a10.724 10.724 0 00-9.637.523l-7.986 5.121a10.767 10.767 0 00-4.39 8.613l.502 9.428a10.705 10.705 0 005.268 8.09l8.362 4.286a10.664 10.664 0 009.637-.502l7.923-5.143a10.785 10.785 0 004.39-8.612l-.397-7.359a10.7 10.7 0 014.39-8.613L81.982 76.08a10.704 10.704 0 019.658-.502l6.544 3.324a10.705 10.705 0 009.658-.501l7.923-5.143a10.71 10.71 0 004.368-8.613l-.417-9.511z" fill="#414042"/></svg>