<svg width="37" height="37" fill="none" xmlns="http://www.w3.org/2000/svg"><path d="M7.16 24.197a8.853 8.853 0 00-1.978 2.699l-.255.54-4.16 5.25a.544.544 0 10.853.674l4.198-5.298a.545.545 0 00.065-.105l.282-.595A7.77 7.77 0 017.9 24.993a.544.544 0 00-.74-.796zm28.695-3.681a2.092 2.092 0 00-2.945-.243l-.28.238a2.092 2.092 0 00-3.401-1.194l-.25.212a2.092 2.092 0 00-3.398-1.163l-4.179 3.54a2.473 2.473 0 00-.674-.093H13.22a8.933 8.933 0 00-4.03.966.544.544 0 00.493.97 7.842 7.842 0 013.537-.849h7.508a1.394 1.394 0 01.973 2.388c-.27.264-.624.403-1.003.396H15.84a.544.544 0 100 1.087h4.84l.05.001a2.459 2.459 0 001.923-.917h4.594c.49 0 .964-.175 1.338-.491l5.028-4.262a1.004 1.004 0 011.413.117 1.004 1.004 0 01-.117 1.413l-7.938 6.727a4.932 4.932 0 01-2.606 1.137l-.98.118a.544.544 0 10.13 1.08l.98-.118a6.013 6.013 0 003.18-1.387l7.937-6.728a2.092 2.092 0 00.243-2.945zm-9.571-1.321a1.004 1.004 0 011.386 1.443l-4.466 3.785a2.473 2.473 0 00-.791-1.947l3.871-3.281zm-1.804 5.572l5.451-4.62a1.003 1.003 0 011.296 1.53l-3.345 2.857a.983.983 0 01-.635.233H24.48zm-3.404 6.125l-5.575.67a.544.544 0 00-.352.192l-3.638 4.354a.544.544 0 00.835.697l3.499-4.189 5.36-.645a.544.544 0 10-.13-1.08z" fill="#000"/><path d="M16.759 15.557l-3.182-4.952a6.045 6.045 0 01-1.033-2.575.544.544 0 10-1.075.161 7.134 7.134 0 001.212 3.03l3.077 4.79v.792c0 .23.08.44.215.607v1.868c0 .875.712 1.587 1.586 1.587h1.918c.875 0 1.587-.712 1.587-1.587V17.41a.96.96 0 00.215-.607v-.793l3.076-4.789a7.13 7.13 0 00-1.82-9.983c-1.99-1.36-4.482-1.613-6.839-.693a6.63 6.63 0 00-3.745 3.72 8.132 8.132 0 00-.419 1.419.544.544 0 001.067.21 6.97 6.97 0 01.363-1.229 5.539 5.539 0 013.13-3.107c2.016-.787 4.142-.576 5.83.578a6.044 6.044 0 011.538 8.469l-3.182 4.952a.544.544 0 00-.086.294v.83h-.133l.31-5.257h.518c.834 0 1.512-.678 1.512-1.512v-.06a1.513 1.513 0 00-3.022-.089l-.034.574h-1.645l-.034-.574a1.514 1.514 0 00-1.51-1.423c-.833 0-1.512.678-1.512 1.512v.06c0 .834.679 1.512 1.513 1.512h.518l.31 5.256h-.138v-.829a.544.544 0 00-.086-.294zm3.704-5.73a.425.425 0 01.849.025v.06c0 .234-.19.425-.425.425h-.454l.03-.51zm-4.308.51a.425.425 0 01-.425-.425v-.06a.425.425 0 01.849-.025l.03.51h-.454zm3.821 8.942a.5.5 0 01-.499.498H17.56a.5.5 0 01-.499-.498v-1.512h2.916v1.512zm-2.214-7.855h1.517l-.31 5.256h-.897l-.31-5.256zm10.172-3.706c0 .3.244.544.544.544h1.282a.544.544 0 100-1.087h-1.282c-.3 0-.544.243-.544.543zm-.316-2.874a.543.543 0 00.189-.034l1.202-.446a.544.544 0 00-.378-1.02l-1.202.446a.544.544 0 00.19 1.054zm-.188 6.803l1.2.445a.542.542 0 00.7-.32.544.544 0 00-.321-.7l-1.202-.445a.544.544 0 00-.378 1.02zM7.277 8.262h1.281a.544.544 0 100-1.087H7.277a.544.544 0 100 1.087zm.751-3.897l1.201.445a.543.543 0 10.378-1.02l-1.201-.445a.544.544 0 00-.378 1.02zm1.9 6.583a.544.544 0 00-.699-.32l-1.201.445a.544.544 0 00.378 1.02l1.201-.446a.544.544 0 00.321-.699z" fill="#000"/></svg>