<svg width="38" height="38" fill="none" xmlns="http://www.w3.org/2000/svg"><g clip-path="url(#clip0)" fill="#000"><path d="M.342 14.015l10.104 4.743a.558.558 0 00.326.045l3.688-.602a6.615 6.615 0 015.763 1.877l3.087 3.124a.92.92 0 01.267.714.92.92 0 01-.355.674.937.937 0 01-1.113.027l-3.01-2.133a1.1 1.1 0 00-1.383.084l-2.2 1.996a.556.556 0 00.748.824l2.192-1.996 3.01 2.133c.351.249.766.373 1.18.373.448 0 .895-.145 1.262-.433a2.046 2.046 0 00.193-3.045l-2.447-2.477a7.006 7.006 0 013.936.163l1.304.444a1.36 1.36 0 001.105-.102l.008-.005 9.615-5.608a.556.556 0 00-.56-.96l-9.611 5.604a.25.25 0 01-.2.017l-1.303-.443a8.12 8.12 0 00-5.192-.006 7.73 7.73 0 00-6.475-1.944l-3.518.575-9.949-4.67a.556.556 0 00-.472 1.007z"/><path d="M37.922 24.442a.556.556 0 00-.744-.255l-4.895 2.39a.555.555 0 00-.21.179l-.393.555a5.603 5.603 0 01-1.794 1.625 1.96 1.96 0 00-.188-.257l-.972-1.119a1.96 1.96 0 00-2.763-.193l-.08.07a1.95 1.95 0 00-.669 1.365l-.025-.002a1.946 1.946 0 00-1.422.475l-.08.07c-.414.36-.64.857-.669 1.366a1.951 1.951 0 00-1.446.472l-.08.07c-.415.36-.64.858-.67 1.367a1.951 1.951 0 00-1.447.472l-.08.07a1.945 1.945 0 00-.669 1.34 1.946 1.946 0 00.476 1.421l.47.541-.188.166-.01.01a.974.974 0 01-1.316-.018.897.897 0 01-.02-1.184.556.556 0 00-.804-.767l-.06.056a.974.974 0 01-1.315-.017.895.895 0 01-.014-1.193.556.556 0 00-.799-.773l-.016.016a.974.974 0 01-1.316-.017.897.897 0 01-.02-1.186.556.556 0 00-.674-.857.898.898 0 01-1.082-.21c-.314-.36-.274-.928.089-1.27l.598-.53 1.866-1.694a.556.556 0 10-.748-.823l-1.86 1.688-.6.53-.01.01a2.055 2.055 0 00-.599 1.03l-.004-.003a9.2 9.2 0 01-2.644-2.248l-.317-.395a.557.557 0 00-.19-.151L.824 23.358a.556.556 0 00-.49 1l6.586 3.22.24.299a10.308 10.308 0 002.963 2.519l.693.392c.074.155.17.301.286.435.338.386.798.617 1.281.673a2.01 2.01 0 00.524 1.612l.014.014c.43.43 1.016.63 1.59.594a2.006 2.006 0 00.555 1.373 2.07 2.07 0 001.648.59 2.005 2.005 0 00.551 1.323c.398.398.93.598 1.462.598.504 0 1.008-.18 1.4-.541l.198-.176a1.943 1.943 0 001.23.433c.472 0 .923-.168 1.282-.48l.08-.07c.415-.36.64-.858.67-1.367a1.95 1.95 0 001.447-.472l.08-.07c.414-.36.64-.857.668-1.366a1.95 1.95 0 001.447-.472l.08-.07c.395-.343.632-.819.669-1.34l.001-.027a1.95 1.95 0 001.446-.472l.08-.07c.423-.366.649-.877.67-1.396a6.715 6.715 0 002.413-2.09l.312-.439 4.767-2.329a.556.556 0 00.256-.744zM22.187 36.326l-.08.07a.84.84 0 01-.614.205.84.84 0 01-.58-.289l-.971-1.118a.84.84 0 01-.206-.614.84.84 0 01.29-.579l.08-.07a.844.844 0 011.192.084l.972 1.119a.846.846 0 01-.084 1.192zm2.195-1.908l-.08.07a.846.846 0 01-1.192-.084l-.972-1.119a.846.846 0 01.083-1.192l.08-.07a.846.846 0 011.193.084l.972 1.118a.846.846 0 01-.084 1.193zm2.485-2.487a.84.84 0 01-.289.579l-.08.07a.846.846 0 01-1.192-.084l-.972-1.12a.846.846 0 01.083-1.192l.08-.07a.84.84 0 01.614-.204.84.84 0 01.579.288l.972 1.12a.84.84 0 01.205.613zm1.907-1.33l-.08.07a.846.846 0 01-1.192-.084l-.972-1.119a.84.84 0 01-.206-.613.84.84 0 01.29-.579l.08-.07a.846.846 0 011.192.084l.972 1.119a.846.846 0 01-.084 1.192zM16.988 15.568l1.54.565a1.275 1.275 0 00.877 0l1.54-.565a8.644 8.644 0 003.6-2.508 8.655 8.655 0 001.892-3.901.556.556 0 10-1.091-.219 7.565 7.565 0 01-4.784 5.583l-1.54.565a.16.16 0 01-.111 0l-1.54-.565a7.546 7.546 0 01-4.93-7.06V2.628c0-.132.093-.245.222-.27L19 1.123l6.27 1.233a.276.276 0 01.222.27v4.052a.556.556 0 001.112 0V2.626a1.39 1.39 0 00-1.12-1.361L19.11.01a.557.557 0 00-.214 0L12.45 1.265a1.39 1.39 0 00-1.122 1.363v4.835a8.663 8.663 0 005.66 8.105z"/><path d="M19.107 2.278a.556.556 0 00-.214 0l-4.89.952a.556.556 0 00-.45.546v3.687a6.43 6.43 0 004.201 6.016l1.02.374a.555.555 0 00.384 0l1.02-.374a6.43 6.43 0 004.202-6.016v-3.69a.556.556 0 00-.449-.546l-4.825-.95zm4.16 5.185a5.313 5.313 0 01-3.471 4.97l-.83.305-.829-.304a5.313 5.313 0 01-3.472-4.971V4.235L19 3.39l4.268.84v3.232z"/><path d="M17.539 8.494a.556.556 0 00-.763.81l.898.845a.556.556 0 00.811-.052l2.909-3.534a.556.556 0 10-.86-.707l-2.53 3.075-.465-.437z"/></g><defs><clipPath id="clip0"><path fill="#fff" d="M0 0h38v38H0z"/></clipPath></defs></svg>