<svg width="40" height="40" fill="none" xmlns="http://www.w3.org/2000/svg"><g clip-path="url(#clip0)" fill="#000"><path d="M39.923 21.848a15.811 15.811 0 00-4.545-9.59 15.687 15.687 0 00-7.717-4.237V6.036a2.66 2.66 0 002.015-2.578A2.66 2.66 0 0027.02.802h-5.625a2.66 2.66 0 00-2.657 2.656c0 1.244.86 2.29 2.016 2.578v1.99a15.687 15.687 0 00-7.694 4.232c-.48.48-.922.983-1.327 1.506a.774.774 0 00-.059-.003H6.107a.781.781 0 000 1.562h4.563a15.664 15.664 0 00-1.386 3.003H.781a.781.781 0 000 1.563h8.062a15.886 15.886 0 00-.388 3.003H5a.781.781 0 100 1.562h3.48c.066 1.011.228 2.017.488 3.003H3.906a.781.781 0 000 1.563h5.56a15.69 15.69 0 003.594 5.557 15.81 15.81 0 0011.148 4.622c3.048 0 6.058-.883 8.612-2.546a.781.781 0 10-.853-1.31c-5.59 3.641-13.077 2.854-17.802-1.871-5.544-5.544-5.544-14.565 0-20.109 5.544-5.544 14.564-5.544 20.108 0 4.72 4.719 5.51 12.2 1.882 17.787a.781.781 0 101.31.851 15.832 15.832 0 002.458-10.153zM20.3 3.458c0-.603.49-1.094 1.094-1.094h5.625a1.095 1.095 0 010 2.188h-5.624c-.603 0-1.094-.49-1.094-1.094zm2.015 4.3V6.114H26.1v1.64a15.92 15.92 0 00-3.783.004z"/><path d="M34.826 33.243a.786.786 0 00-.781.781.784.784 0 00.781.781.785.785 0 00.782-.781.787.787 0 00-.23-.552.789.789 0 00-.552-.23zM24.22 11.298c-6.683 0-12.12 5.437-12.12 12.12 0 6.682 5.437 12.12 12.12 12.12 6.682 0 12.119-5.438 12.119-12.12 0-6.683-5.437-12.12-12.12-12.12zm0 22.677c-5.822 0-10.558-4.736-10.558-10.558 0-5.82 4.736-10.557 10.557-10.557 5.822 0 10.557 4.736 10.557 10.558 0 5.82-4.736 10.557-10.557 10.557z"/><path d="M29.161 17.37l-3.87 3.87a2.413 2.413 0 00-2.144 0l-1.732-1.732a.781.781 0 00-1.105 1.105l1.732 1.732a2.43 2.43 0 002.177 3.5 2.43 2.43 0 002.177-3.5l3.756-3.756.114-.113a.781.781 0 10-1.105-1.105zm-4.942 6.913a.866.866 0 010-1.73.866.866 0 010 1.73zm8.353-1.637h-.724a.781.781 0 000 1.562h.724a.781.781 0 100-1.562zm-15.982-.019h-.724a.781.781 0 000 1.562h.724a.781.781 0 000-1.562zm7.639-6.057c.431 0 .781-.35.781-.782v-.724a.781.781 0 10-1.563 0v.724c0 .432.35.781.782.781zm-.019 13.695a.781.781 0 00-.782.782v.723a.781.781 0 101.563 0v-.723a.781.781 0 00-.781-.782zM.781 27.457a.787.787 0 00-.552.229.787.787 0 00-.229.552.785.785 0 00.781.781.787.787 0 00.553-.229.787.787 0 00.228-.552.787.787 0 00-.228-.552.787.787 0 00-.553-.23z"/></g><defs><clipPath id="clip0"><path fill="#fff" d="M0 0h40v40H0z"/></clipPath></defs></svg>