<svg width="31" height="31" fill="none" xmlns="http://www.w3.org/2000/svg"><path d="M22.958 2.903h-4.67a3.31 3.31 0 00-6.056 0H7.56a3.195 3.195 0 00-3.192 3.192v20.706a3.195 3.195 0 003.192 3.192h15.397A3.196 3.196 0 0026.15 26.8V6.095a3.196 3.196 0 00-3.192-3.192zm-10.2 1.453a.726.726 0 00.709-.57c.178-.813.932-1.403 1.792-1.403s1.615.59 1.793 1.403c.073.333.368.57.71.57h1.44v.638a1.74 1.74 0 01-1.738 1.739h-4.41a1.74 1.74 0 01-1.738-1.739v-.638h1.441zm11.939 22.445a1.74 1.74 0 01-1.74 1.739H7.562a1.74 1.74 0 01-1.739-1.74V6.096a1.74 1.74 0 011.739-1.739h2.302v.638a3.195 3.195 0 003.192 3.192h4.409a3.195 3.195 0 003.192-3.192v-.638h2.302a1.74 1.74 0 011.739 1.74V26.8z" fill="#000"/><path d="M18.855 14.354l-4.77 4.658-2.422-2.365a.726.726 0 00-1.024 1.03l.01.01 2.929 2.86a.727.727 0 001.015 0l5.277-5.152a.727.727 0 00-1.015-1.04z" fill="#000"/></svg>