<svg width="17" height="13" fill="none" xmlns="http://www.w3.org/2000/svg"><path d="M15.506.523H1.494C.67.523 0 1.196 0 2.018v8.964c0 .827.674 1.495 1.494 1.495h14.012c.819 0 1.494-.665 1.494-1.495V2.018c0-.82-.666-1.495-1.494-1.495zm-.21.997l-5.74 5.71a1.484 1.484 0 01-1.056.437c-.4 0-.774-.155-1.057-.439L1.703 1.52h13.594zm-14.3 9.26V2.22L5.3 6.503.996 10.78zm.708.7l4.303-4.275.732.729c.47.47 1.096.73 1.761.73.665 0 1.29-.26 1.76-.73l.733-.729 4.303 4.275H1.704zm14.3-.7l-4.305-4.277 4.305-4.282v8.559z" fill="#000"/></svg>