<svg width="60" height="61" fill="none" xmlns="http://www.w3.org/2000/svg"><path d="M18.4.019h23.18c4.843.824 7.52 3.072 8.39 7.39.906 4.495-.294 8.618-4 11.218-.96.675-2.04 1.05-3.217 1.376 2.595.8 4.726 2.096 6.134 4.485 1.408 2.39 1.52 4.896 1.25 7.48-.47 4.472-4.47 8-9.333 8.368-5.048.382-9.419-2.597-10.693-7.285.11.563.15 1.139.117 1.712 0 5.333.064 10.65-.024 15.973-.059 3.528-1.619 6.286-4.69 8.15-1.222.738-2.58.88-3.913 1.114h-3.733c-3.758-.682-6.43-2.712-7.587-6.4-1.707-5.448.587-11.2 6.21-13.267a.965.965 0 00.606-.343c-5.219-1.977-7.76-5.731-7.267-11.32.283-3.2 2.448-7.091 7.507-8.606-1.066-.464-2.082-.8-2.978-1.408A10.352 10.352 0 0115.347.8C16.32.267 17.395.31 18.4.02z" fill="#EB5B31"/><path d="M21.6 60c.267-.533.787-.25 1.176-.352 4.31-1.112 7.107-4.645 7.141-9.25.043-6.086 0-12.171.1-18.326.8 3.08 2.4 5.52 5.332 6.883a10.665 10.665 0 008.769.227c4.224-1.68 6.415-5.942 5.703-11.011a9.27 9.27 0 00-8.36-7.979c.089-.296.302-.365.595-.413 4.099-.67 7.035-3.662 7.747-7.861.899-5.305-1.941-10.083-6.768-11.486-.483-.141-1.067.09-1.453-.4 5.866 0 11.733 0 17.584-.019.666 0 .818.152.818.816-.02 19.451-.014 38.908.016 58.371 0 .917-.384.8-.962.8-12.48-.01-24.96-.01-37.438 0zM18.4.019c-2.28.706-4.432 1.616-6.016 3.541a9.985 9.985 0 004.76 16c.384.12.933.019 1.123.563-4.512 1.066-7.688 4.365-8.136 8.48-.574 5.28 1.584 8.362 7.976 11.397-.107.413-.51.288-.76.365-4.507 1.403-7.272 5.048-7.291 9.651-.019 4.835 2.43 8.107 7.181 9.614.23.072.56 0 .635.362-5.675 0-11.352 0-17.027.014C.237 60 0 59.94 0 59.213.027 39.74.027 20.268 0 .8 0 .061.24 0 .845 0 6.7.027 12.552.019 18.4.019z" fill="#FEFEFE"/><path d="M29.93 27.92c0-2.344.027-4.688 0-7.032 0-.699.198-.907.894-.893 2.288.04 4.576 0 6.933.11-4.101 1.146-6.77 3.628-7.826 7.815z" fill="#FAFAFA"/></svg>