<svg width="40" height="40" fill="none" xmlns="http://www.w3.org/2000/svg"><path d="M37.5 10h-5.125c-.625-2.875-3.125-5-6.125-5s-5.5 2.125-6.125 5H2.5v2.5h17.625c.625 2.875 3.125 5 6.125 5s5.5-2.125 6.125-5H37.5V10zm-11.25 5c-2.125 0-3.75-1.625-3.75-3.75s1.625-3.75 3.75-3.75S30 9.125 30 11.25 28.375 15 26.25 15zM2.5 30h5.125c.625 2.875 3.125 5 6.125 5s5.5-2.125 6.125-5H37.5v-2.5H19.875c-.625-2.875-3.125-5-6.125-5s-5.5 2.125-6.125 5H2.5V30zm11.25-5c2.125 0 3.75 1.625 3.75 3.75s-1.625 3.75-3.75 3.75S10 30.875 10 28.75 11.625 25 13.75 25z" fill="#F15A24"/></svg>