<svg width="34" height="34" fill="none" xmlns="http://www.w3.org/2000/svg"><path d="M21.69 8.4c.915 0 1.66-.744 1.66-1.66 0-.915-.745-1.66-1.66-1.66a1.662 1.662 0 00-1.327 2.658l-2.727 3.811a1.652 1.652 0 00-1.647.363L14.17 10.88a1.662 1.662 0 00-1.623-2.01 1.662 1.662 0 00-1.622 2.01l-1.818 1.032a1.654 1.654 0 00-1.13-.446 1.662 1.662 0 000 3.321 1.662 1.662 0 001.622-2.01l1.819-1.031a1.654 1.654 0 002.26 0l1.818 1.032a1.66 1.66 0 102.95-.648l2.727-3.812c.163.053.336.083.517.083zm0-2.324a.665.665 0 11-.002 1.33.665.665 0 01.002-1.33zM7.976 13.791a.665.665 0 11.002-1.33.665.665 0 01-.002 1.33zm4.571-2.596a.665.665 0 11.002-1.33.665.665 0 01-.002 1.33zm4.572 2.596a.665.665 0 11.001-1.33.665.665 0 01-.001 1.33z" fill="#fff"/><path d="M27.81 24.597H1.41a.413.413 0 01-.413-.412V3.637c0-.227.185-.412.413-.412h2.348a.498.498 0 100-.997H1.409A1.41 1.41 0 000 3.638v20.547a1.41 1.41 0 001.409 1.408h3.434v1.096c0 .625.508 1.133 1.132 1.133h4.986l-2.347 4.582a.498.498 0 10.886.454l2.58-5.036h5.506l2.58 5.036a.498.498 0 10.886-.454l-2.346-4.582h4.985c.624 0 1.132-.508 1.132-1.133v-1.096h2.988a.498.498 0 100-.996zm-3.983 2.092a.136.136 0 01-.136.137H5.975a.137.137 0 01-.136-.137v-1.096h17.988v1.096zM5.749 3.225h22.509c.227 0 .412.185.412.412v4.736a.498.498 0 10.996 0V3.637a1.41 1.41 0 00-1.409-1.409h-10.66V1.25a1.25 1.25 0 00-1.25-1.249H13.32c-.69 0-1.25.56-1.25 1.25v.978H5.75a.498.498 0 100 .997zm7.316-1.976c0-.14.114-.253.254-.253h3.029c.14 0 .253.114.253.254v.978h-3.536V1.25z" fill="#fff"/><path d="M6.966 17.333a.498.498 0 00-.498.498v4.401c0 .275.223.498.498.498h2.02a.498.498 0 00.499-.498v-4.4a.498.498 0 00-.498-.499h-2.02zm1.523 4.401H7.464V18.33H8.49v3.405zm3.048-6.946a.498.498 0 00-.498.498v6.946c0 .275.223.498.498.498h2.02a.498.498 0 00.499-.498v-6.946a.498.498 0 00-.498-.498h-2.02zm1.523 6.946h-1.024v-5.95h1.024v5.95zm3.048-4.401a.498.498 0 00-.498.498v4.401c0 .275.223.498.498.498h2.02a.498.498 0 00.499-.498v-4.4a.498.498 0 00-.498-.499h-2.02zm1.523 4.401h-1.025V18.33h1.025v3.405zm3.049-1.462a.498.498 0 00-.499.498v1.462c0 .275.223.498.498.498H22.7a.498.498 0 000-.996h-1.523v-.964a.498.498 0 00-.498-.498zm13.066 4.794l-2.857-4.95a6.477 6.477 0 001.532-2.764c.45-1.68.22-3.434-.65-4.94a6.517 6.517 0 00-8.892-2.383 6.517 6.517 0 00-2.383 8.893 6.468 6.468 0 003.953 3.033c.56.15 1.13.224 1.695.224.494 0 .986-.057 1.466-.17l2.857 4.95a1.894 1.894 0 003.279-1.893zm-9.04-4.073a5.478 5.478 0 01-3.347-2.57 5.52 5.52 0 012.018-7.531 5.517 5.517 0 017.532 2.018 5.477 5.477 0 01.55 4.184 5.477 5.477 0 01-2.569 3.348 5.478 5.478 0 01-4.184.55zm7.85 5.796a.898.898 0 01-1.226-.328L28.58 21.7a6.603 6.603 0 001.553-.898l2.75 4.762a.898.898 0 01-.329 1.225z" fill="#fff"/><path d="M30.65 17.07a4.714 4.714 0 00-.236-3.414.498.498 0 10-.902.424c.398.843.464 1.8.186 2.694-.28.9-.882 1.654-1.698 2.125a3.706 3.706 0 01-2.832.373 3.708 3.708 0 01-2.267-1.739 3.737 3.737 0 011.366-5.099 3.727 3.727 0 014.12.256.498.498 0 10.602-.794 4.722 4.722 0 00-5.22-.324 4.698 4.698 0 00-2.203 2.87 4.698 4.698 0 00.472 3.589 4.698 4.698 0 002.872 2.203 4.7 4.7 0 003.588-.472 4.713 4.713 0 002.151-2.692z" fill="#fff"/></svg>