<svg width="40" height="40" fill="none" xmlns="http://www.w3.org/2000/svg"><path d="M8.516 3.007l-1.76 1.758 2.619 2.617 1.758-1.757-2.618-2.618h.001zm22.969 0l-2.619 2.618 1.759 1.757 2.617-2.616-1.758-1.759h.001zM20 3.787c-.413.005-.83.03-1.25.08-.012 0-.025-.002-.038 0-5.07.582-9.104 4.678-9.806 9.725-.56 4.063 1.115 7.747 3.906 10.12A6.547 6.547 0 0115 27.498v7.5h2.85a2.484 2.484 0 002.15 1.25c.921 0 1.715-.504 2.15-1.25H25v-5h.117v-1.485c0-1.833.953-3.68 2.5-5.117 2.07-2.072 3.633-5.016 3.633-8.397 0-6.175-5.082-11.27-11.25-11.213zm0 2.5c4.831-.067 8.75 3.888 8.75 8.713 0 2.617-1.212 4.922-2.891 6.6l.04.04a9.74 9.74 0 00-3.05 5.86H17.38c-.275-2.143-1.194-4.216-2.93-5.704-2.209-1.875-3.525-4.7-3.085-7.89.546-3.937 3.742-7.104 7.657-7.537.323-.045.648-.072.974-.08L20 6.287zM2.5 15v2.5h3.75V15H2.5zm31.25 0v2.5h3.75V15h-3.75zM9.375 25.117l-2.617 2.617 1.758 1.758 2.615-2.617-1.756-1.758zm21.25 0l-1.758 1.758 2.617 2.617 1.758-1.758-2.617-2.617zM17.5 30h5v2.5h-5V30z" fill="#EB5B31"/></svg>