<svg width="70" height="70" fill="none" xmlns="http://www.w3.org/2000/svg"><g clip-path="url(#clip0)" fill="#000"><path d="M35.007.034h29.355c3.544 0 5.631 2.09 5.631 5.63v46.144c0 3.525-2.096 5.63-5.631 5.63-6.639 0-13.274.017-19.91-.018-.807 0-1.01.253-1.036 1.007a7.968 7.968 0 001.077 4.255c.666 1.176 1.335 2.352 1.977 3.544 1.032 1.927-.06 3.776-2.23 3.78H25.811c-2.19 0-3.288-1.834-2.255-3.755.626-1.192 1.314-2.362 1.98-3.54a7.98 7.98 0 001.073-4.409c-.031-.675-.247-.87-.938-.866-6.714.022-13.428 0-20.142 0-1.533 0-2.881-.407-3.976-1.492A5.138 5.138 0 01.02 52.142V37.621C.037 27.025.1 16.432 0 5.84-.035 2.333 2.418-.035 5.806 0c9.732.1 19.465.034 29.201.034zM2.077 50.319c0 .453.028.791 0 1.126-.229 2.343 1.132 3.96 3.9 3.945 14.523-.072 29.046-.032 43.568-.035h15.227c1.617 0 2.815-.91 3.081-2.427.138-.823.025-1.686.025-2.597H20.704a3.77 3.77 0 01-.78-.028.955.955 0 01-.841-1.051.92.92 0 01.867-.939c.466-.036.934-.045 1.401-.028h46.561V10.301H59.69c-.89 0-1.373-.363-1.395-1.017-.021-.654.467-1.048 1.418-1.06h7.339c.279 0 .557-.029.907-.044V5.477c0-2.109-1.304-3.404-3.41-3.407H44.04v4.292c0 1.395.457 1.858 1.877 1.862h8.353c.804 0 1.223.353 1.252.982.028.629-.42 1.073-1.252 1.076-2.916 0-5.831.031-8.744 0-2.096-.025-3.504-1.47-3.554-3.56-.022-.91 0-1.82-.019-2.731 0-1.442-.488-1.924-1.924-1.924H29.88c-1.317 0-1.824.522-1.827 1.861 0 .989.022 1.98-.021 2.966a3.44 3.44 0 01-3.238 3.388c-.467.038-.939.025-1.405.025H3.087c-.313 0-.648.028-.96.044v37.928h12.442c.26-.014.52-.014.779 0a.94.94 0 01.938.96.964.964 0 01-.938 1.055 4.765 4.765 0 01-.701 0H2.077v.025zm26.554 7.148v.476a9.836 9.836 0 01-1.414 5.968c-.579.986-1.12 1.996-1.674 2.997-.553 1.001-.494 1.042.588 1.042h17.87c.977 0 1.033-.1.548-.973-.4-.729-.788-1.467-1.226-2.19-1.364-2.19-2.19-4.533-1.915-7.17 0-.04-.047-.087-.097-.169l-12.68.019zM2.13 8.167c.212.022.39.06.566.06h21.618c1.17 0 1.652-.507 1.677-1.668l.103-4.448c.04 0-.038-.019-.113-.019H5.064a2.916 2.916 0 00-2.906 2.565c-.138 1.145-.028 2.318-.028 3.51z"/><path d="M57.608 12.345c1.305.053 2.55.794 3.222 2.32a3.698 3.698 0 01-.66 4.215 3.667 3.667 0 01-4.189 1.073 1.011 1.011 0 00-1.251.29 1653.78 1653.78 0 01-10.427 10.43c-.366.363-.504.626-.285 1.192a3.82 3.82 0 01-1.314 4.461 3.998 3.998 0 01-4.608.085 3.785 3.785 0 01-1.461-4.408c.234-.657.087-1.01-.37-1.464-2.559-2.503-5.09-5.062-7.617-7.608-.313-.313-.585-.491-1.077-.272-.938.419-1.914.338-2.894 0a1.001 1.001 0 00-.85.178 592.75 592.75 0 00-7.246 7.245.992.992 0 00-.16.851c.792 2.293-.344 4.605-2.627 5.265a3.933 3.933 0 01-4.834-2.815 3.857 3.857 0 013.241-4.834c.66-.097 1.37.172 2.062.216.299.043.603-.024.857-.188a512.906 512.906 0 007.227-7.226 1.004 1.004 0 00.15-.854c-.591-1.799-.113-3.576 1.305-4.62a3.9 3.9 0 014.724 0c1.404 1.025 1.877 2.837 1.288 4.626a.988.988 0 00.17.842 725.715 725.715 0 007.999 8.005.978.978 0 00.838.188 4.199 4.199 0 013.048 0 .908.908 0 00.782-.16c3.622-3.588 7.217-7.195 10.837-10.796.344-.337.24-.6.106-.96-.967-2.556.92-5.268 4.014-5.277zm-15.414 20.85a1.877 1.877 0 00-1.811-1.877 1.903 1.903 0 00-1.912 1.877 1.877 1.877 0 003.723 0zM57.32 14.406a1.876 1.876 0 00-1.93 1.843 1.877 1.877 0 001.815 1.877 1.86 1.86 0 00.115-3.717v-.003zM12.827 34.265a1.877 1.877 0 001.827-1.877 1.943 1.943 0 00-1.915-1.877 1.878 1.878 0 00-1.814 1.877 1.857 1.857 0 001.902 1.877zm15.18-15.26a1.858 1.858 0 10-3.714.022 1.893 1.893 0 001.914 1.858 1.852 1.852 0 001.8-1.88zm28.39 21.038h3.044c1.396.016 2.034.66 2.053 2.07 0 .755.025 1.512 0 2.266-.041 1.154-.726 1.836-1.877 1.842a401.7 401.7 0 01-6.401 0c-1.158 0-1.85-.672-1.903-1.827a31.79 31.79 0 010-2.502c.05-1.173.704-1.815 1.878-1.846 1.073-.003 2.14-.003 3.206-.003zm-2.981 4.126h4.599c1.492 0 1.645-.172 1.392-1.633-.025-.153-.222-.394-.341-.394-1.877-.025-3.732-.019-5.65-.019v2.046zM13.55 46.24c-1.042 0-2.081.019-3.129 0-1.158-.022-1.836-.691-1.877-1.849a38.517 38.517 0 010-2.502c.037-1.13.694-1.809 1.814-1.824a266.46 266.46 0 016.57 0 1.683 1.683 0 011.784 1.69c.051.909.051 1.82 0 2.73-.057 1.108-.751 1.733-1.878 1.752-1.126.019-2.19 0-3.275 0l-.01.003zm.146-2.058h1.718c1.377-.022 1.233.25 1.273-1.305 0-.585-.181-.77-.76-.754-1.298.038-2.6 0-3.901 0-1.564.025-1.395-.347-1.417 1.467 0 .438.153.604.594.592.83-.016 1.661 0 2.494 0zm14.173 2.058H24.74c-1.236-.016-1.914-.698-1.933-1.943 0-.832-.02-1.667 0-2.502.031-.992.67-1.702 1.658-1.724 2.263-.044 4.526-.044 6.789 0 1.02.019 1.67.742 1.705 1.77.03.858.028 1.715 0 2.575a1.743 1.743 0 01-1.83 1.812c-1.092.025-2.19 0-3.28 0l.02.012zm-2.91-4.11c-.313 2.042-.313 2.042 1.564 2.045h4.405c0-.625.031-1.129-.018-1.636a.585.585 0 00-.407-.397c-1.837-.022-3.676-.013-5.544-.013zm17.151 4.104h-3.13c-1.233-.019-1.92-.717-1.933-1.95 0-.806-.02-1.613 0-2.42.034-1.067.694-1.777 1.764-1.793 2.209-.033 4.42-.033 6.633 0 1.082 0 1.733.71 1.76 1.786.026.858.026 1.718 0 2.575-.027 1.098-.716 1.777-1.832 1.802-1.117.025-2.172 0-3.264 0zm3.062-2.096v-.985c0-1.027 0-1.027-.988-1.027h-5.012v2.006l6 .006zM10.287 5.177a.98.98 0 01-.961.98.967.967 0 01-1.07-.976.976.976 0 01.939-1.042 1.042 1.042 0 011.091 1.038zm3.128.993c-.626-.032-.992-.314-1.051-.94a1.017 1.017 0 01.963-1.1 1.054 1.054 0 011.064 1.029.985.985 0 01-.976 1.01zm-8.162-.01c-.67 0-1.17-.476-1.12-1.033a1.01 1.01 0 011.01-.994.988.988 0 011.014 1.048.939.939 0 01-.904.979z"/></g><defs><clipPath id="clip0"><path fill="#fff" d="M0 0h70v70H0z"/></clipPath></defs></svg>