<svg width="76" height="76" fill="none" xmlns="http://www.w3.org/2000/svg"><path d="M35.328 55.143a1.113 1.113 0 100 2.227h5.344a1.113 1.113 0 100-2.227h-5.344zM13.36 37.857h7.358a3.12 3.12 0 002.908 2.004 3.12 3.12 0 002.908-2.004h1.471a1.113 1.113 0 000-2.227h-1.47a3.12 3.12 0 00-2.909-2.004 3.12 3.12 0 00-2.908 2.004H13.36a1.113 1.113 0 100 2.227zm10.266-2.004a.892.892 0 010 1.78.892.892 0 010-1.78zM13.36 31.474h1.42a3.12 3.12 0 002.909 2.004 3.12 3.12 0 002.908-2.004h7.408a1.113 1.113 0 000-2.227h-7.408a3.12 3.12 0 00-2.908-2.004 3.12 3.12 0 00-2.908 2.004h-1.422a1.113 1.113 0 100 2.227zm4.329-2.004a.892.892 0 010 1.781.892.892 0 010-1.781zm10.539-8.238a1.113 1.113 0 100-2.227 1.113 1.113 0 000 2.227zm-3.068 0a1.113 1.113 0 100-2.227 1.113 1.113 0 000 2.227zm-3.068 0a1.113 1.113 0 100-2.227 1.113 1.113 0 000 2.227z" fill="#fff"/><path d="M72.66 7.494h-.417l.311-.311a2.392 2.392 0 000-3.379l-2.437-2.437a2.392 2.392 0 00-3.379 0l-6.126 6.126H3.34A3.344 3.344 0 000 10.833v46.233a4.087 4.087 0 004.082 4.082h26.37v7.876h-5.366a2.6 2.6 0 00-2.598 2.597v1.113a2.6 2.6 0 002.598 2.597h25.828a2.6 2.6 0 002.598-2.597V71.62a2.6 2.6 0 00-2.598-2.597H45.55v-7.876h11.896a1.113 1.113 0 100-2.226H4.082a1.857 1.857 0 01-1.855-1.856V53.77h71.546v3.295a1.857 1.857 0 01-1.855 1.856h-9.277a1.113 1.113 0 000 2.226h9.277A4.087 4.087 0 0076 57.066V10.833a3.344 3.344 0 00-3.34-3.34zM50.914 71.25c.205 0 .371.167.371.371v1.113a.372.372 0 01-.37.37h-25.83a.372.372 0 01-.37-.37V71.62a.37.37 0 01.37-.37h25.83zM32.678 61.148h10.644v7.876H32.678v-7.876zM68.313 2.942a.163.163 0 01.23 0l2.437 2.436a.163.163 0 010 .23l-2.326 2.326-2.666-2.667 2.325-2.325zm-3.9 3.9l2.667 2.666-.777.777-2.666-2.667.776-.777zm-2.35 2.35l2.666 2.667-13.174 13.174-2.667-2.667L62.062 9.192zm-1.65 10.178a2.75 2.75 0 012.746 2.747 2.75 2.75 0 01-2.746 2.746 2.75 2.75 0 01-2.746-2.746c0-.018.002-.035.003-.053l2.691-2.69.052-.003zm-10.791 6.88l-3.295 1.345 1.346-3.295 1.949 1.95zm24.151 25.296H2.227V10.833c0-.613.499-1.113 1.113-1.113h55.046l-1.698 1.698H18.852a1.113 1.113 0 100 2.226h35.61l-7.853 7.853a2.375 2.375 0 00-.514.778l-2.487 6.088c-.228.56-.1 1.196.327 1.623a1.492 1.492 0 001.624.327l6.088-2.486c.284-.116.538-.284.758-.497l3.386-3.387a4.978 4.978 0 004.623 3.146 4.978 4.978 0 004.973-4.972 4.978 4.978 0 00-3.145-4.623l3.85-3.85h3.757v33.977h-.59l-4.034-6.988a1.113 1.113 0 10-1.928 1.113l3.391 5.875H51.137l-1.668-2.89 7.776-13.468 3.454 5.984a1.113 1.113 0 101.928-1.114l-3.685-6.383a1.94 1.94 0 00-1.698-.98 1.94 1.94 0 00-1.697.98l-7.364 12.755-9.449-16.365a1.94 1.94 0 00-1.697-.98 1.94 1.94 0 00-1.698.98l-2.51 4.348V18.554a2.6 2.6 0 00-2.598-2.597H11.133a2.6 2.6 0 00-2.598 2.597v24.344c0 1.023.832 1.856 1.856 1.856h14.202l-1.655 2.867H6.15V13.644h7.505a1.113 1.113 0 100-2.226H5.78a1.857 1.857 0 00-1.856 1.855v34.719c0 1.023.833 1.855 1.856 1.855h64.44a1.858 1.858 0 001.856-1.855V13.273a1.858 1.858 0 00-1.856-1.855h-1.9l1.697-1.698h2.644c.614 0 1.113.5 1.113 1.113v40.712zM30.603 24.72v17.807H10.762V24.72h19.84zm-19.841-2.227v-3.939c0-.204.166-.371.37-.371h19.1a.37.37 0 01.37.371v3.94h-19.84zm16.402 22.26h3.81a1.858 1.858 0 001.856-1.855V40.54c.278.133.588.206.913.206.76 0 1.44-.394 1.82-1.052l1.895-3.281a.23.23 0 01.208-.12.23.23 0 01.208.12l1.168 2.023a2.08 2.08 0 001.82 1.051c.76 0 1.441-.393 1.821-1.05l.29-.503 5.593 9.686H25.509l1.655-2.867zm5.666-7.94V34.94l4.207-7.287 4.65 8.054-.825 1.43-1.06-1.838a2.442 2.442 0 00-2.136-1.233c-.892 0-1.69.461-2.137 1.233l-1.787 3.095-.912-1.581z" fill="#fff"/></svg>