<svg width="64" height="35" fill="none" xmlns="http://www.w3.org/2000/svg"><path d="M31.505 0c-4.45 0-8.067 3.898-8.067 8.689-.009 4.836 3.59 10.674 8.067 10.674 4.468 0 8.066-5.838 8.066-10.674C39.57 3.898 35.955 0 31.505 0zm0 17.869c-3.554 0-6.604-5.055-6.604-9.18 0-3.971 2.96-7.195 6.604-7.195 3.642 0 6.603 3.233 6.603 7.195 0 4.134-3.05 9.18-6.603 9.18z" fill="#6A6969"/><path d="M45.77 24.79c-.34-2.786-2.251-5.172-4.871-6.083a30.41 30.41 0 00-2.737-.774l-.502-.119-6.155 9.836-6.156-9.836-.502.119c-1.059.255-1.93.5-2.737.774-2.62.901-4.53 3.287-4.872 6.084L16 35h31l-1.23-10.21zm-28.11 8.726l1.032-8.543c.269-2.223 1.794-4.126 3.885-4.855.628-.218 1.3-.41 2.09-.61l6.837 10.92 6.838-10.92c.79.2 1.462.392 2.09.61 2.09.72 3.616 2.623 3.885 4.855l1.032 8.543H17.66z" fill="#6A6969"/><path d="M42.514 27.55h-4.406v1.494h4.406V27.55zM54.245 6.887c-2.572 0-4.661 2.253-4.661 5.02-.005 2.796 2.074 6.17 4.661 6.17 2.582 0 4.662-3.374 4.662-6.17 0-2.767-2.09-5.02-4.662-5.02zm0 10.326c-2.053 0-3.816-2.92-3.816-5.305 0-2.295 1.711-4.158 3.816-4.158 2.105 0 3.817 1.868 3.817 4.158 0 2.39-1.764 5.305-3.817 5.305z" fill="#6A6969"/><path d="M62.49 21.213c-.198-1.61-1.302-2.99-2.816-3.516-.467-.157-.964-.3-1.581-.447l-.29-.068-3.558 5.684-3.557-5.684-.29.068a18.08 18.08 0 00-1.582.447c-1.514.521-2.618 1.9-2.815 3.516l-.716 5.9H63.2l-.71-5.9zm-16.245 5.042l.596-4.937a3.417 3.417 0 012.245-2.805c.363-.126.752-.237 1.208-.353l3.951 6.311 3.951-6.31c.457.115.845.226 1.208.352a3.403 3.403 0 012.245 2.805l.597 4.937H46.244z" fill="#6A6969"/><path d="M60.607 22.808h-2.546v.863h2.546v-.863zM8.96 6.887c-2.572 0-4.662 2.253-4.662 5.02-.005 2.796 2.075 6.17 4.662 6.17 2.582 0 4.661-3.374 4.661-6.17 0-2.767-2.09-5.02-4.661-5.02zm0 10.326c-2.053 0-3.816-2.92-3.816-5.305 0-2.295 1.71-4.158 3.816-4.158 2.105 0 3.816 1.868 3.816 4.158 0 2.39-1.763 5.305-3.816 5.305z" fill="#6A6969"/><path d="M17.204 21.213c-.197-1.61-1.301-2.99-2.815-3.516-.467-.157-.965-.3-1.582-.447l-.29-.068-3.557 5.684-3.557-5.684-.29.068c-.612.147-1.115.29-1.582.447-1.514.521-2.618 1.9-2.815 3.516L0 27.113h17.915l-.71-5.9zM.96 26.255l.597-4.937A3.417 3.417 0 013.8 18.513c.363-.126.752-.237 1.208-.353l3.95 6.311 3.952-6.31c.456.115.845.226 1.208.352a3.402 3.402 0 012.245 2.805l.597 4.937H.959z" fill="#6A6969"/><path d="M15.322 22.808h-2.546v.863h2.546v-.863z" fill="#6A6969"/></svg>