<svg width="40" height="40" fill="none" xmlns="http://www.w3.org/2000/svg"><path d="M20.028 0h17.631c1.525 0 2.34.816 2.34 2.34v28.655c0 1.52-.819 2.336-2.345 2.338H26.94c-.516 0-.521.009-.284.484.305.612.623 1.217.912 1.837a.511.511 0 00.547.343 31.36 31.36 0 011.786 0c1.217.014 2.107.873 2.096 2.023-.01 1.15-.891 1.976-2.088 1.976H10.09c-1.198 0-2.082-.848-2.091-1.98-.01-1.132.875-2.001 2.053-2.021a34.89 34.89 0 011.83 0 .508.508 0 00.536-.341c.297-.635.61-1.26.94-1.875.178-.346.125-.452-.279-.45-3.064.01-6.128 0-9.194 0H2.143C.85 33.311 0 32.451 0 31.161V2.151C0 .874.893 0 2.173 0h17.855zm-.04 1.341H2.311c-.732 0-.97.234-.97.955 0 8.409-.004 16.816-.01 25.221 0 .414.131.497.506.482.715-.025 1.429-.009 2.143 0a.641.641 0 01.663.495.62.62 0 01-.22.682.947.947 0 01-.634.163c-.686 0-1.37.01-2.053-.011-.316-.01-.413.102-.399.409.024.49 0 .982.013 1.473.012.49.286.762.78.789h35.58c.696 0 .946-.252.952-.936v-.892c0-.836 0-.838-.855-.838H7.18a3.617 3.617 0 01-.623-.03.603.603 0 01-.548-.652.621.621 0 01.571-.637c.192-.022.385-.03.579-.022h30.98c.379 0 .536-.062.536-.5-.015-8.363-.02-16.726-.012-25.087 0-.871-.204-1.071-1.082-1.071l-17.593.007zM20 35.99c1.932 0 3.864-.008 5.796 0 .393 0 .422-.089.25-.412a53.44 53.44 0 01-.97-1.964.465.465 0 00-.483-.297c-3.06.008-6.122.008-9.184 0a.463.463 0 00-.482.297c-.316.657-.634 1.31-.973 1.964-.179.318-.145.421.252.418 1.93-.014 3.862-.006 5.794-.006zm0 2.666h8.482c.49 0 .982.011 1.473 0 .491-.01.825-.435.655-.875-.146-.378-.466-.45-.837-.45H10.266a1.686 1.686 0 00-.358.015.627.627 0 00-.555.651.61.61 0 00.56.645c.146.018.295.023.444.014h9.642z" fill="#6A6969"/><path d="M26.165 5.335c6.089-.039 10.38 4.023 10.474 9.214.058 3.08-1.283 5.58-3.694 7.48a9.07 9.07 0 01-5.759 1.963c-2.125 0-4.255.124-6.376-.08-2.198-.209-4.262-.835-6.01-2.248-1.324-1.062-2.188-2.393-2.122-4.166.064-1.692.98-2.919 2.255-3.928.431-.344.9-.638 1.397-.877a4.06 4.06 0 001.905-1.92c1.84-3.572 4.834-5.307 7.93-5.438zM24.59 22.677h2.454a8.307 8.307 0 004.18-1.088c3.7-2.075 5.178-6.785 3.214-10.45-1.545-2.872-3.984-4.413-7.259-4.447-3.439-.035-6.037 1.493-7.658 4.54-.64 1.204-1.463 2.144-2.702 2.733a5.77 5.77 0 00-1.9 1.455c-1.193 1.37-1.216 3.025-.054 4.42.191.227.4.439.627.631 1.132.977 2.477 1.504 3.907 1.864 1.71.424 3.457.327 5.191.342zM6.54 24.66h3.949c.535 0 .835.248.846.654.011.405-.305.673-.82.675H4.85c-.477 0-.741-.191-.872-.65-.398-1.407-.714-2.823-.621-4.302a4.03 4.03 0 01.45-1.665.57.57 0 000-.579 1.921 1.921 0 01.823-2.602.843.843 0 00.463-.635 40.957 40.957 0 013.262-9.307c.389-.82.877-1.59 1.454-2.29a3.12 3.12 0 01.914-.774c.657-.342 1.27-.146 1.607.52.234.503.35 1.052.34 1.607.042 1.952-.374 3.84-.828 5.714a39.306 39.306 0 01-1.987 6.142.65.65 0 00.025.623 1.945 1.945 0 01-.784 2.679c-.13.075-.254.123-.282.305-.243 1.503-1.091 2.646-2.125 3.687a2.37 2.37 0 00-.148.198zm4.822-19.002c-.018-.289-.028-.601-.063-.91 0-.091 0-.238-.126-.248-.066 0-.154.075-.211.135a5.416 5.416 0 00-.714.965c-1.882 3.165-2.98 6.626-3.84 10.177-.055.227 0 .322.219.382.5.145 1.001.288 1.487.472.346.13.514.084.655-.293.438-1.17.86-2.345 1.216-3.54.693-2.324 1.245-4.68 1.379-7.14h-.002zM5.034 24.123a7.9 7.9 0 001.25-1.209c.503-.571.955-1.17 1.142-1.936.072-.289 0-.392-.27-.467a17.335 17.335 0 01-1.7-.536c-.378-.146-.504 0-.597.32-.379 1.283-.1 2.523.175 3.828zm.584-6.855c-.37.029-.613.21-.675.557-.072.377.13.63.48.745.787.259 1.582.502 2.373.748.47.144.825 0 .957-.368s-.062-.734-.559-.893c-.746-.242-1.496-.473-2.246-.714a10.738 10.738 0 01-.33-.075zm8.683 8.726c-.327 0-.655.016-.98 0a.657.657 0 110-1.314 31.27 31.27 0 012.003 0 .637.637 0 01.665.675c-.011.357-.26.605-.665.64h-1.023z" fill="#6A6969"/><path d="M18.662 19.998a2.668 2.668 0 112.678-2.659A2.679 2.679 0 0118.662 20zm1.337-2.667a1.332 1.332 0 10-1.33 1.326 1.341 1.341 0 001.33-1.326zm4.989-.661a2.335 2.335 0 11-2.321 2.321 2.321 2.321 0 012.321-2.321zm-.975 2.321a.987.987 0 10.072-.374.987.987 0 00-.072.381v-.007zm6.343-5.661a2.335 2.335 0 01-1.669-3.979 2.334 2.334 0 013.99 1.64 2.322 2.322 0 01-2.321 2.338zm-.013-1.338a.994.994 0 00.73-1.709.993.993 0 00-.73-.275.992.992 0 00-.91 1.373.977.977 0 00.905.61h.005zm2.986 5.662a2.334 2.334 0 11-2.322-2.321 2.322 2.322 0 012.322 2.32zm-1.338.032a.981.981 0 00-.97-1.005.987.987 0 10.97 1.005zM24.27 13.33a2.336 2.336 0 01.149-4.67 2.35 2.35 0 012.043 3.296 2.322 2.322 0 01-2.192 1.373zm.079-1.336a.995.995 0 10-.015-1.99.995.995 0 00.015 1.99z" fill="#6A6969"/></svg>