<svg width="35" height="35" fill="none" xmlns="http://www.w3.org/2000/svg"><path d="M35 33.701H0v1.13h35v-1.13zM1.695 24.104v8.467h4.513v-8.467H1.695zm3.39 7.338h-2.26v-6.208h2.26v6.207zm3.389-10.728v11.857h4.513V20.714H8.474zm3.383 10.727h-2.26v-9.597h2.26v9.597zm3.39-14.11v15.24h4.513v-15.24h-4.513zm3.383 14.117h-2.26V18.461h2.26v12.987zm3.39-17.507v18.63h4.512v-18.63H22.02zm3.383 17.5h-2.26v-16.37h2.26v16.37zm3.389-20.882V32.57h4.513V10.56h-4.513zm3.383 20.883h-2.26v-19.76h2.26v19.76zM27.029.169l1.48 2.563L.36 18.964l1.694 2.935L30.205 5.674l1.481 2.563 2.37-6.745L27.03.169zm4.409 5.38l-.82-1.412L2.467 20.363l-.565-.979L30.06 3.16l-.82-1.42 3.314.628-1.116 3.183z" fill="#6A6969"/></svg>