<svg width="74" height="74" fill="none" xmlns="http://www.w3.org/2000/svg"><path d="M69.375 19.656H57.812v-8.093A10.418 10.418 0 0047.407 1.155h-2.312a10.374 10.374 0 00-7.516 3.22 10.373 10.373 0 00-7.516-3.22H27.75a10.418 10.418 0 00-10.406 10.406v8.094H4.625a1.156 1.156 0 00-1.156 1.157v50.874a1.156 1.156 0 001.156 1.157h64.75a1.156 1.156 0 001.156-1.156V20.812a1.156 1.156 0 00-1.156-1.156zm-8.094 34.688a1.156 1.156 0 001.157-1.157V21.97h5.78v46.64l-6.067-6.934a1.159 1.159 0 00-1.74 0l-6.067 6.934V21.97h5.781v31.218a1.156 1.156 0 001.156 1.157zm5.546 16.187H55.736l5.545-6.338 5.546 6.338zM45.094 3.47h2.312a8.103 8.103 0 018.094 8.094v8.093H40.469v-8.093a10.341 10.341 0 00-1.467-5.32 8.076 8.076 0 016.092-2.774zm-7.516 5.095c.382.954.579 1.971.578 2.998v8.094H37v-8.093c0-1.028.196-2.045.578-2.999zm-17.922 2.998A8.103 8.103 0 0127.75 3.47h2.313a8.075 8.075 0 016.092 2.774 10.34 10.34 0 00-1.468 5.32v8.093h-15.03v-8.093zM5.781 70.532V21.968h11.563v3.468a1.156 1.156 0 102.312 0V21.97h18.5v3.468a1.156 1.156 0 002.313 0V21.97H52.03v48.56H5.781z" fill="#000"/><path d="M17.344 52.031h24.281a1.156 1.156 0 00.992-1.75l-6.938-11.563a1.157 1.157 0 00-1.983 0l-1.321 2.202-4.212-7.02a1.157 1.157 0 00-1.983 0l-9.828 16.38a1.156 1.156 0 00.992 1.751zM34.687 41.56l4.896 8.159h-1.928l-3.931-6.552.964-1.607zm-7.515-4.817l7.786 12.976H19.386l7.786-12.976zm12.718-7.837a4.047 4.047 0 10.001 8.095 4.047 4.047 0 000-8.095zm0 5.782a1.734 1.734 0 110-3.468 1.734 1.734 0 010 3.468zm2.891 19.656H17.344a1.156 1.156 0 100 2.312H42.78a1.156 1.156 0 100-2.312zm-4.625 3.469H17.344a1.156 1.156 0 100 2.312h20.812a1.156 1.156 0 100-2.313zm4.625 0h-1.156a1.156 1.156 0 100 2.312h1.156a1.156 1.156 0 100-2.313zm17.344 0a1.156 1.156 0 102.313 0v-1.157a1.156 1.156 0 10-2.313 0v1.157z" fill="#000"/></svg>