<svg width="15" height="15" fill="none" xmlns="http://www.w3.org/2000/svg"><path d="M13.816 9.876a8.562 8.562 0 01-2.692-.428c-.419-.145-.894-.034-1.17.248L8.25 10.982C6.298 9.939 5.047 8.69 4.018 6.749l1.251-1.662c.315-.316.428-.776.293-1.208a8.585 8.585 0 01-.43-2.695C5.132.531 4.6 0 3.947 0H1.184C.531 0 0 .531 0 1.184 0 8.802 6.198 15 13.816 15c.653 0 1.184-.531 1.184-1.184V11.06c0-.652-.531-1.184-1.184-1.184zm.394 3.94a.395.395 0 01-.394.394C6.633 14.21.789 8.367.789 1.184A.396.396 0 011.184.79h2.763c.218 0 .395.177.395.395 0 1.008.158 1.998.467 2.937.046.148.01.3-.135.45L3.237 6.474a.395.395 0 00-.036.417c1.17 2.3 2.592 3.722 4.909 4.909a.392.392 0 00.417-.037l1.944-1.473a.396.396 0 01.402-.094 9.36 9.36 0 002.943.47c.217 0 .395.177.395.394v2.756z" fill="#000"/></svg>