<svg width="29" height="35" fill="none" xmlns="http://www.w3.org/2000/svg"><path d="M25.458 16.56l-4.953-4.953v-8.53A3.08 3.08 0 0017.43 0H4.031A3.08 3.08 0 00.954 3.076v28.848A3.08 3.08 0 004.031 35h20.917c.489 0 .91-.344 1.006-.824l1.91-9.512c.598-2.97-.302-6-2.406-8.104zM4.031 2.05h13.398c.565 0 1.025.46 1.025 1.026v13.226a3.211 3.211 0 00-4.527.016 3.211 3.211 0 00-.008 4.536l3.927 4.083c-.851.636-1.954 1.745-2.746 3.569H3.005V3.076c0-.565.46-1.025 1.026-1.025zM3.005 31.925v-1.367h11.432a14.653 14.653 0 00-.328 2.392H4.03c-.566 0-1.026-.46-1.026-1.025zm22.85-7.663l-1.746 8.688h-7.945c.148-2.178.775-4.003 1.835-5.32.88-1.093 1.775-1.485 1.846-1.514.67-.24.91-1.111.374-1.67l-4.842-5.033a1.162 1.162 0 011.64-1.647c2.168 2.217 1.114 1.153 4.907 4.947a1.025 1.025 0 101.45-1.45l-2.869-2.87v-3.885l3.503 3.503c1.617 1.617 2.308 3.954 1.846 6.25z" fill="#F95353"/></svg>