<svg width="44" height="44" fill="none" xmlns="http://www.w3.org/2000/svg"><path d="M20.527 19.281l-.788-.92a9.083 9.083 0 013.107-1.865c4.003-1.411 7.704-.816 10.897 1.994 3.152 2.775 4.194 6.356 3.357 10.458-.192.963-.65 1.874-1.06 2.775-.168.372-.157.566.131.852a697.14 697.14 0 016.514 6.548c.175.18.219.493.305.75a.897.897 0 010 .286c0 1.556 0 1.556-1.151 2.618a1.225 1.225 0 01-.106.098c-.365.264-2.365.102-2.688-.22-2.144-2.153-4.287-4.293-6.408-6.446-.311-.316-.528-.4-.96-.17-6.5 3.444-14.399-.514-15.59-7.794a10.635 10.635 0 01.79-6.069c.05-.114.115-.221.204-.385l1.092.55c-1.211 2.697-1.315 5.378-.136 8.053a9.243 9.243 0 004.507 4.683 9.406 9.406 0 006.387.672 9.433 9.433 0 005.336-3.585c2.66-3.57 2.4-8.68-.588-11.997-3.254-3.603-9.134-4.27-13.152-.886zm12.835 15.876c-.036-.084-.03-.05-.01-.028a5052.96 5052.96 0 006.373 6.392c.192.193 1.161.27 1.413.129.68-.385.837-1.454.29-2.007a4615.696 4615.696 0 01-6.132-6.163 1.234 1.234 0 00-.165-.131l-1.769 1.808zM1.238 10.104H.015V0H.52c7.776 0 15.55.004 23.324.012.276.003.542.103.753.283a473.39 473.39 0 015.435 5.44.93.93 0 01.301.561c.017 2.89.012 5.778 0 8.667-.007.06-.02.12-.038.18h-1.229v-.627c0-2.103-.017-4.206.017-6.307 0-.513-.155-.605-.624-.597-1.71.025-3.423 0-5.133 0-.142 0-.284-.014-.474-.024V1.302H1.238v8.802zm22.886-8.31V6.31h4.535l-4.535-4.517z" fill="#F95353"/><path d="M12.072 17.058c-.899-.494-.68-1.32-.684-2.07 0-1.54.016-3.082-.011-4.622 0-.52.175-.934.384-1.397.507-1.123 1.26-1.498 2.496-1.408 1.814.133 3.647.031 5.467.031.156 0 .311.014.576.025-.384.617-.768 1.156-1.083 1.716a1.866 1.866 0 00-.245.846c-.02 1.893-.016 3.788 0 5.682a1.31 1.31 0 01-.35.895c-.635.807-1.388 1.156-2.436 1.036-.835-.1-1.693-.025-2.54-.017a.91.91 0 00-.503.096c-1.008.76-1.998 1.541-2.993 2.312l.023.14h6.207v1.248h-6.245v1.188h4.31v1.28H10.12v1.305h4.35c0 .385.022.71-.011 1.036a.365.365 0 01-.267.235c-1.743.012-3.486 0-5.23 0-.026 0-.055-.027-.118-.06 0-.136-.022-.292-.022-.448V20.04a.834.834 0 01.384-.757c.745-.553 1.475-1.129 2.208-1.699.194-.15.39-.312.657-.526zm5.59-5.646H12.65v4.07a1 1 0 001.021 1.005h2.88c.757 0 1.138-.377 1.14-1.131v-3.413c-.008-.171-.029-.345-.029-.531zm.192-2.552h-4.302a.355.355 0 00-.252.096c-.238.347-.455.709-.712 1.115h5.015l.251-1.211zM32.43 22.829l.99-.638c1.701 2.183 2.262 7.063-1.3 10.332a8.073 8.073 0 01-5.961 2.101 8.057 8.057 0 01-5.646-2.847 8.114 8.114 0 01-1.876-6.053 8.123 8.123 0 013.042-5.557c3.693-2.954 8.539-1.768 10.649.651l-.826.84c-3.185-2.966-7.55-2.269-9.839.237a6.88 6.88 0 00-.223 9.033c2.226 2.637 6.075 3.218 8.905 1.38 2.989-1.94 4.125-6.016 2.084-9.48z" fill="#F95353"/><path d="M0 36.762V13.929h1.213v21.59h17.714v1.243H0z" fill="#F95353"/><path d="M5.09 31.725v-2.744c0-1.067 0-1.066 1.048-1.067 2.83 0 5.661 0 8.491-.01.37 0 .595.064.526.493-.056.339.21.817-.509.807-2.559-.03-5.118-.012-7.679 0H6.41v1.256h.55c2.541 0 5.085.01 7.627 0 .42 0 .599.083.576.549-.045.824.069.732-.718.732H5.713l-.624-.016zm5.085-27.938c0 1.219 0 2.403-.011 3.586 0 .08-.175.23-.27.23-2.41 0-4.824 0-7.235-.016-.012 0-.025-.02-.067-.058V3.787h7.583zM8.864 5.048H3.86V6.34h3.947c1.225.002 1.225.002 1.056-1.292zm18.322 22.026v1.207h-1.268c0-.77-.01-1.527.013-2.288 0-.065.203-.173.319-.179.384-.023.767-.01 1.151-.01.688 0 1.026-.334 1.028-1.014 0-.305.017-.61 0-.915a.667.667 0 00-.415-.624.662.662 0 00-.26-.048 20.743 20.743 0 00-1.727 0 .707.707 0 00-.413.192 6.21 6.21 0 00-.52.601l-.937-1.076c.328-.291.678-.619 1.048-.915a.702.702 0 01.405-.095c.849 0 1.695-.02 2.542 0 .211.026.41.111.576.245.749.541.977 1.254 1.02 2.207.05 1.138-.365 1.891-1.187 2.529a.939.939 0 01-.468.17c-.275.032-.56.013-.907.013zm-8.351-5.859l-1.036-.713.812-1.07.948.826c-.242.317-.466.616-.724.957zM0 12.606V11.41h1.2v1.196H0zm27.154 17.01v1.189h-1.22v-1.189h1.22z" fill="#F95353"/></svg>