<svg width="42" height="38" fill="none" xmlns="http://www.w3.org/2000/svg"><path d="M41.848 35.017a.696.696 0 00-.869-.432c-.218.069-5.39 1.61-9.893-6.497-2.003-3.604-4.86-6.07-8.492-7.328-2.5-.866-5.262-.964-7.99-.282l-2.784.696a4.68 4.68 0 01-4.42-1.225 3.514 3.514 0 01-.942-1.65c-1.597-6.597 2.457-11.2 3.687-12.414.864.366 2.729.817 4.783-.803.55-.433.851-1.108.807-1.806a2.114 2.114 0 00-1.022-1.679l-.83-.497a5.663 5.663 0 00-6.309.3C4.054 4.011-1.533 10.13.576 21.73c.646 3.556 2.737 6.602 6.094 8.953 0 .014-.005.027-.003.04l.72 6.379c.04.35.337.615.69.615h5.844a.694.694 0 00.686-.593l.421-2.896c.92.153 1.846.232 2.775.232.878 0 1.758-.08 2.637-.217l.594 2.92c.066.322.35.554.68.554h2.922a.694.694 0 00.686-.593l.547-3.765c3.823 2.637 7.575 3.323 10.44 3.323 2.955 0 4.965-.728 5.13-.79a.692.692 0 00.409-.876zM8.165 31.636a23.35 23.35 0 001.558.83c.021.01.043.008.064.015l.436 3.85H8.696l-.53-4.695zm17.928.18l.203-1.393a.694.694 0 00-1.373-.2l-.887 6.109H22.28l-1.835-9.019a.693.693 0 10-1.36.277l1.078 5.292c-1.65.25-3.303.234-4.933-.04l.351-2.418a.694.694 0 00-1.372-.2l-.888 6.108h-1.703l-.905-8a.693.693 0 10-1.378.156l.268 2.361c-4.37-2.293-6.949-5.44-7.663-9.366C-.035 10.62 5.14 4.934 8.4 2.512a4.28 4.28 0 014.77-.223l.829.497a.717.717 0 01.35.578.732.732 0 01-.28.63c-1.954 1.539-3.596.518-3.66.477a.695.695 0 00-.836.05c-.266.229-6.501 5.69-4.463 14.104.208.86.661 1.657 1.309 2.305a6.071 6.071 0 005.738 1.59l2.783-.697c2.467-.616 4.955-.53 7.2.247 3.3 1.143 5.902 3.395 7.735 6.692 2.04 3.672 4.255 5.562 6.195 6.502-2.763-.044-6.38-.775-9.977-3.448z" fill="#F95353"/><path d="M11.552 3.2a.495.495 0 100-.99.495.495 0 000 .99z" fill="#F95353"/></svg>