<svg width="60" height="60" fill="none" xmlns="http://www.w3.org/2000/svg"><path d="M39.745 40.629c-2.012 0-4.587-.897-5.836-1.646l-1.205 4.849c1.646.897 4.19 1.521 7.041 1.521 6.23 0 9.449-2.984 9.449-7.053-.047-3.203-1.783-5.305-5.93-6.721-2.664-.945-3.503-1.48-3.503-2.501 0-1.112.928-1.783 2.575-1.783 1.872 0 3.733.718 4.724 1.252l1.201-4.681c-1.338-.671-3.608-1.248-6.156-1.248-5.39 0-8.867 3.078-8.867 7.13-.047 2.591 1.69 5.045 6.203 6.555 2.528.854 3.199 1.385 3.199 2.496 0 1.116-.855 1.83-2.895 1.83zm-22.216-6.46c.624.09 1.432.12 2.313.12 4.01 0 7.451-.974 9.753-3.151 1.798-1.693 2.773-4.194 2.773-7.131 0-2.942-1.28-5.442-3.214-6.952-1.997-1.615-4.982-2.407-9.175-2.407-4.143 0-7.085.273-9.172.624v29.64h6.722V34.17zm.012-14.126c.476-.136 1.42-.273 2.789-.273 3.398 0 5.305 1.642 5.32 4.4 0 3.082-2.242 4.908-5.85 4.908-.976 0-1.678-.043-2.26-.168v-8.867z" fill="#EB5B31"/><path d="M0 0v60h60V0H0zm56.289 56.289H3.71V3.71h52.58v52.58z" fill="#EB5B31"/></svg>