<svg width="33" height="33" fill="none" xmlns="http://www.w3.org/2000/svg"><path d="M30.554 5.168H27.96v-2.67A2.5 2.5 0 0025.463 0a2.5 2.5 0 00-2.498 2.498v2.67H6.74V4.144c0-.71-.577-1.287-1.287-1.287H3.6A2.797 2.797 0 00.804 5.652v21.693a2.8 2.8 0 002.798 2.798H23.61l.65 1.985c.174.53.646.872 1.203.872.558 0 1.03-.342 1.203-.872l.65-1.985h3.238c.905 0 1.641-.737 1.641-1.642V6.81c0-.906-.736-1.642-1.641-1.642zm-6.622 21.963V7.248h1.048v19.883h-1.048zm0-20.85v-1.26h3.063v1.26h-3.063zM25.463.967c.845 0 1.532.687 1.532 1.53v1.558h-3.063V2.498c0-.844.687-1.531 1.531-1.531zM1.771 5.65A1.83 1.83 0 013.6 3.824h1.854a.32.32 0 01.32.32v20.087a.32.32 0 01-.32.32H3.6c-.698 0-1.337.257-1.828.682V5.65zm1.83 23.525a1.83 1.83 0 01-.003-3.658h1.855c.71 0 1.287-.578 1.287-1.287V6.135h16.226v21.479c0 .37.058.737.174 1.09l.154.472H3.602zm22.146 2.652a.286.286 0 01-.284.205.286.286 0 01-.283-.206c-.057-.17-1.157-3.503-1.201-3.73h2.97c-.045.225-1.142 3.55-1.202 3.73zM31.23 28.5a.676.676 0 01-.675.675h-2.921l.155-.472c.115-.353.173-.72.173-1.09V11.521a.483.483 0 10-.966 0v15.61h-1.048V7.248h1.048v2.013a.483.483 0 10.966 0V6.135h2.593c.372 0 .675.303.675.675V28.5z" fill="#fff"/><path d="M20.547 12.61l-4.759-2.746a1.322 1.322 0 00-1.318 0L9.712 12.61a1.32 1.32 0 00-.66 1.142v1.745a.483.483 0 10.967 0v-1.39l4.627 2.671v5.342l-4.451-2.57a.353.353 0 01-.176-.304v-1.49a.483.483 0 10-.967 0v1.49c0 .47.253.907.66 1.142l4.758 2.747a1.32 1.32 0 001.318 0l4.759-2.747c.406-.235.659-.672.659-1.142v-5.495c0-.469-.253-.906-.66-1.141zm-5.594-1.91a.353.353 0 01.352 0l4.45 2.57-4.626 2.672-4.626-2.671 4.45-2.57zm5.11 8.852l-4.45 2.57v-5.343l4.626-2.671v5.14a.353.353 0 01-.176.304z" fill="#fff"/></svg>