<svg width="30" height="32" fill="none" xmlns="http://www.w3.org/2000/svg"><path d="M23.75 0H7.25a.48.48 0 00-.083.008h-.01a.452.452 0 00-.138.055.469.469 0 00-.097.072L.869 6.19a.463.463 0 00-.074.098l-.013.025a.467.467 0 00-.04.114v.005a.467.467 0 00-.01.086v24.597a.464.464 0 00.466.465H23.75a.465.465 0 00.464-.465V.465A.465.465 0 0023.752 0zM6.786 1.587v4.467H2.32l4.466-4.467zm16.5 29.062H1.663V6.982H7.25a.465.465 0 00.465-.465V.93h15.57v29.72zM29.264 7.86c0-.012 0-.023-.002-.035l-.404-2.749a.465.465 0 00-.46-.398h-1.69a.465.465 0 00-.46.398l-.405 2.75-.001.033c-.002.012-.004.022-.004.034v14.915c0 .01.002.02.003.029a.431.431 0 00.017.097l.006.026 1.248 3.627a.465.465 0 00.879 0l1.252-3.625.006-.027a.429.429 0 00.016-.097c0-.01.003-.018.003-.028V7.893c0-.012-.003-.022-.004-.034zm-.927 9.02h-1.569V8.359h1.57v8.523zm-1.569.93h1.57v4.534h-1.57V17.81zm1.229-12.2l.267 1.819h-1.423l.268-1.819h.888zm-.444 19.4l-.598-1.736h1.195l-.597 1.735z" fill="#fff"/><path d="M19.108 12.568H5.84a.465.465 0 000 .93h13.268a.465.465 0 000-.93zm0 2.902H5.84a.465.465 0 000 .93h13.268a.465.465 0 000-.93zm0-5.805H5.84a.465.465 0 100 .93h13.268a.465.465 0 100-.93zm-7.06-4.995h7.06a.465.465 0 000-.93h-7.06a.465.465 0 100 .93zM7.613 22.913H5.84a.465.465 0 00-.465.465v3.996a.464.464 0 00.465.465h1.773a.465.465 0 00.464-.465v-3.996a.465.465 0 00-.464-.465zm-.465 3.996h-.844v-3.066h.844v3.066zm4.296-6.804H9.671a.465.465 0 00-.465.466v6.804a.465.465 0 00.465.465h1.773a.466.466 0 00.465-.465V20.57a.465.465 0 00-.465-.466zm-.465 6.805h-.843v-5.875h.843v5.875zm4.297-5.72h-1.773a.465.465 0 00-.465.464v5.72a.465.465 0 00.465.465h1.773a.465.465 0 00.465-.465v-5.72a.465.465 0 00-.465-.465zm-.465 5.72h-.843v-4.791h.843v4.79zm4.297-8.741h-1.773a.465.465 0 00-.465.465v8.74a.462.462 0 00.465.465h1.773a.462.462 0 00.464-.465v-8.74a.464.464 0 00-.464-.465zm-.465 8.74H17.8V19.1h.843v7.81z" fill="#fff"/></svg>