<svg width="26" height="34" fill="none" xmlns="http://www.w3.org/2000/svg"><path d="M4.462 9.017a.996.996 0 00.812-1.151c-.53-3.074 1.84-5.874 4.94-5.874 3.09 0 5.466 2.787 4.943 5.862a.996.996 0 001.964.334C17.849 3.908 14.546 0 10.214 0 5.888 0 2.57 3.908 3.311 8.205a.996.996 0 001.15.812z" fill="#fff"/><path d="M20.814 15.98a2.987 2.987 0 00-3.985-1.328 2.987 2.987 0 00-3.641-1.471v-6.1c0-1.627-1.306-2.985-2.913-3.03A2.99 2.99 0 007.197 7.04v15.345l-1.17-1.225c-1.123-1.176-3.004-1.259-4.193-.184a2.986 2.986 0 00-.162 4.278l6.725 7.173A5 5 0 0012.031 34h8.111a4.986 4.986 0 004.98-4.98V18.66c0-2.207-2.327-3.66-4.308-2.68zm2.316 13.04a2.992 2.992 0 01-2.988 2.988h-8.111a2.999 2.999 0 01-2.18-.945c-.024-.025-6.71-7.157-6.735-7.182a.996.996 0 01.054-1.428c.396-.358 1.031-.321 1.416.082l2.886 3.023c.62.648 1.717.208 1.717-.688V7.04a1 1 0 011.032-.997c.537.015.975.48.975 1.037 0 10.961-.019 5.993-.019 11.912a.995.995 0 001.006.996.995.995 0 001.005-.996v-3.177a.997.997 0 011.974.189v2.988a.996.996 0 101.992 0v-1.66a.997.997 0 011.992 0v1.66a.996.996 0 101.992 0v-.332a.997.997 0 011.992 0v10.36z" fill="#fff"/></svg>