<svg width="33" height="33" fill="none" xmlns="http://www.w3.org/2000/svg"><path d="M11.07 8.25h.936a.645.645 0 000-1.29h-.935a.148.148 0 01-.148-.147v-.625h.837a.645.645 0 100-1.29h-.837v-.625c0-.082.066-.148.148-.148h.935a.645.645 0 000-1.29h-.935a1.44 1.44 0 00-1.437 1.438v2.54c0 .792.644 1.437 1.437 1.437zm4.35-1.29h-1.105a.645.645 0 100 1.29h1.106c.924 0 1.676-.752 1.676-1.676 0-.924-.752-1.676-1.676-1.676h-.075a.387.387 0 010-.773h.742a.645.645 0 000-1.29h-.742c-.924 0-1.676.753-1.676 1.677s.752 1.676 1.676 1.676h.075a.387.387 0 010 .773zM8.331 2.836H6.204a.645.645 0 000 1.289h.42v3.48a.645.645 0 001.288 0v-3.48h.419a.645.645 0 000-1.29zm10.28 1.289h.42v3.48a.645.645 0 001.288 0v-3.48h.42a.645.645 0 000-1.29H18.61a.645.645 0 000 1.29zM7.764 10.828H5.186a.645.645 0 00-.644.645v2.578c0 .356.288.644.644.644h2.578a.645.645 0 00.645-.644v-2.578a.645.645 0 00-.645-.645zm-.644 2.578H5.83v-1.289h1.29v1.29zm13.739.644c0 .17.069.337.189.457a.65.65 0 00.455.188.646.646 0 00.456-1.1.648.648 0 00-.911 0 .65.65 0 00-.19.456zm-1.934-.644h-8.604a.645.645 0 000 1.29h8.604a.645.645 0 100-1.29zM7.764 17.531H5.186a.645.645 0 00-.644.645v2.578c0 .356.288.644.644.644h2.578a.645.645 0 00.645-.644v-2.578a.645.645 0 00-.645-.645zM7.12 20.11H5.83v-1.29h1.29v1.29zm.644 4.124H5.186a.645.645 0 00-.644.645v2.578c0 .356.288.645.644.645h2.578a.645.645 0 00.645-.645v-2.578a.644.644 0 00-.645-.645zm-.644 2.578H5.83v-1.289h1.29v1.29zm8.736.001h-5.535a.645.645 0 000 1.289h5.535a.645.645 0 000-1.29z" fill="#fff"/><path d="M31.325 5.13a2.433 2.433 0 00-1.859-.245c-.632.17-1.16.575-1.487 1.141l-.62 1.075-.868 1.503V2.191A2.194 2.194 0 0024.299 0H2.643A2.194 2.194 0 00.452 2.191V30.81c0 1.208.983 2.191 2.191 2.191H24.3a2.194 2.194 0 002.192-2.191V18.498a.642.642 0 00-.007-.086l5.117-8.862.62-1.074a2.452 2.452 0 00-.896-3.346zm-1.525 1a1.161 1.161 0 011.305 1.7l-.298.517-2.01-1.16.298-.516c.155-.269.405-.46.705-.54zm-7.845 17.55l-2.01-1.16 8.208-14.216 2.01 1.16-8.208 14.215zm-2.38.114l1.46.843-1.754 1.353.295-2.196zm5.627 7.015a.903.903 0 01-.903.902H2.643a.903.903 0 01-.902-.902V2.19c0-.497.404-.902.902-.902h21.656c.498 0 .903.405.903.902v8.645l-5.354 9.273h-9.527a.645.645 0 100 1.29h8.783l-.597 1.034a.645.645 0 00-.081.236l-.63 4.702a.645.645 0 001.032.596l3.756-2.897a.647.647 0 00.165-.188l2.453-4.248v10.175z" fill="#fff"/></svg>