<svg width="34" height="34" fill="none" xmlns="http://www.w3.org/2000/svg"><path d="M20.599 28.33l1.36 4.534h1.813v1.117H10.233v-1.106h1.808c.457-1.519.9-3 1.362-4.533H1.943C.663 28.342 0 27.678 0 26.399V1.943C0 .672.673 0 1.943 0h30.111c1.28 0 1.943.664 1.943 1.943v24.445c0 1.28-.664 1.943-1.943 1.943H20.6zM1.133 23.77h31.73V2.02c0-.737-.152-.883-.912-.883H2.01c-.716-.003-.878.16-.878.881V23.77zm31.73 1.195H1.134v1.321c0 .774.14.913.918.913h30.142c.407 0 .648-.194.66-.555.022-.555.01-1.106.01-1.679zm-18.277 3.387l-1.345 4.489h7.518l-1.342-4.49h-4.83z" fill="#fff"/><path d="M21.531 22.665h-8.256c-1.28 0-1.943-.664-1.943-1.943V9.272c0-1.23.675-1.903 1.9-1.904h6.03a1.842 1.842 0 011.405.597c.429.448.882.873 1.31 1.323a1.088 1.088 0 00.86.354c2.332-.013 4.665 0 6.998 0 1.206 0 1.894.678 1.895 1.872v9.346c0 1.107-.715 1.817-1.827 1.817H21.53v-.012zm.02-1.134h8.256c.607 0 .79-.186.79-.8v-9.145c0-.647-.173-.809-.81-.809h-7.082a1.896 1.896 0 01-1.444-.609c-.43-.447-.882-.874-1.311-1.32a1.051 1.051 0 00-.823-.346c-1.93.012-3.86 0-5.787 0-.706 0-.865.162-.865.847v11.29c0 .742.15.89.908.89l8.168.002z" fill="#fff"/><path d="M20.256 5.807l-.792.83c-.31-.307-.615-.587-.895-.89a.392.392 0 00-.523-.115 17.69 17.69 0 01-1.54.61c-.207.066-.43.066-.638 0a13.572 13.572 0 01-1.457-.6.854.854 0 01-.377-.376c-.249-.523-.45-1.07-.7-1.591a.525.525 0 00-.37-.26c-1.237-.064-1.295-.078-1.714 1.098-.287.81-.784 1.211-1.553 1.516-.66.26-1.23.362-1.852-.012a3.813 3.813 0 00-.56-.225c-.681-.276-.647-.246-1.22.243-.457.392-.595.763-.253 1.295.623.972.536 1.914-.008 2.901-.214.389-.416.682-.85.828-.444.156-.877.344-1.295.561-.112.055-.162.227-.248.345v.04c-.036 1.212-.058 1.276 1.093 1.676.827.288 1.225.81 1.536 1.585.26.648.364 1.211-.014 1.818a1.251 1.251 0 00-.09.225c-.451 1.166-.454 1.169.541 1.974a.463.463 0 00.387.034c.557-.206 1.101-.44 1.655-.658a.555.555 0 01.34-.056c.513.194 1.016.416 1.567.647l-.436 1.028c-.296-.116-.578-.202-.835-.333a.852.852 0 00-.81 0c-.566.25-1.152.46-1.722.702a.415.415 0 01-.531-.116 67.356 67.356 0 00-1.689-1.69.415.415 0 01-.105-.533c.256-.609.486-1.225.735-1.84.17-.43-.228-1.393-.647-1.579-.619-.269-1.244-.523-1.852-.81a.517.517 0 01-.25-.375 44.78 44.78 0 010-2.467.521.521 0 01.253-.374 27.66 27.66 0 011.78-.779.988.988 0 00.52-.513 1.574 1.574 0 00.02-1.601 9.37 9.37 0 01-.554-1.39.533.533 0 01.09-.446A45.878 45.878 0 016.14 4.389a.528.528 0 01.448-.092c.598.215 1.187.45 1.767.7.259.107.55.107.809 0a1.58 1.58 0 001.112-1.099c.166-.47.364-.929.591-1.373a.53.53 0 01.374-.252 44.818 44.818 0 012.469 0 .517.517 0 01.375.256c.282.607.525 1.238.81 1.842.094.169.231.31.398.406a1.592 1.592 0 001.742.04 9.06 9.06 0 011.313-.525.437.437 0 01.363 0c.526.495 1.026 1.002 1.546 1.515z" fill="#fff"/><path d="M10.451 16.545l-.466.928c-1.43-.277-3.004-2.566-3.171-4.575-.188-2.255 1.229-4.74 3.152-5.466.152.303.309.61.486.954-1.585.902-2.5 2.234-2.503 4.06-.004 1.826.879 3.178 2.502 4.1zm8.109 1.695l-.798.81-3.132-3.17 3.157-3.149.69.75-2.429 2.326 2.513 2.433zm5.961-4.737l.773-.822 3.155 3.218-3.155 3.149-.656-.797 2.436-2.315-2.553-2.433zm-3.618 5.485l-.99-.557 2.832-5.096.99.552-2.832 5.101z" fill="#fff"/></svg>