<svg width="35" height="35" fill="none" xmlns="http://www.w3.org/2000/svg"><path d="M31.87 16.881c-.95 0-1.79.476-2.298 1.201l-2.067-.358a6.836 6.836 0 00-.504-2.827l3.501-2.112a2.787 2.787 0 001.695.572A2.807 2.807 0 0035 10.554a2.806 2.806 0 00-2.803-2.803 2.806 2.806 0 00-2.762 3.284l-3.482 2.102a6.876 6.876 0 00-4.293-2.446v-4.3a3.243 3.243 0 002.213-3.071A3.242 3.242 0 0020.635.082a3.242 3.242 0 00-3.238 3.238c0 1.427.929 2.641 2.213 3.07v4.301a6.895 6.895 0 00-5.248 3.99l-6.414-1.97a3.994 3.994 0 00-3.959-4.472A3.992 3.992 0 000 12.226c0 2.2 1.79 3.99 3.99 3.99a3.985 3.985 0 003.19-1.598l6.631 2.036a6.85 6.85 0 001.865 5.591l-2.889 3.076a3.375 3.375 0 00-1.379-.294 3.4 3.4 0 00-3.396 3.396 3.4 3.4 0 003.396 3.396 3.4 3.4 0 003.397-3.396c0-.637-.177-1.233-.483-1.743l2.984-3.176a6.832 6.832 0 003.329.862c1.153 0 2.24-.287 3.196-.79l2.978 4.527a3.976 3.976 0 00-1.176 2.825c0 2.2 1.79 3.99 3.99 3.99s3.989-1.79 3.989-3.99a3.994 3.994 0 00-5.026-3.852l-3.102-4.716a6.888 6.888 0 001.648-2.622l1.964.34a2.807 2.807 0 002.774 2.409 2.807 2.807 0 002.804-2.804 2.807 2.807 0 00-2.804-2.803zm-16.062.61a4.832 4.832 0 014.827-4.827 4.832 4.832 0 014.827 4.827 4.832 4.832 0 01-4.827 4.827 4.832 4.832 0 01-4.827-4.827z" fill="#fff"/></svg>