<svg width="583" height="73" fill="none" xmlns="http://www.w3.org/2000/svg"><path d="M13.873 69.04l-.286.958.007.002.008.002.271-.962zM1.97 63.376l-.911-.411-.326.723.63.482.607-.794zm5.28-11.712l.592-.806-.996-.73-.507 1.125.911.411zm10.272 5.088l.307-.952-.307.952zm21.696 0l.519.855.009-.005.01-.006-.538-.844zm1.248-9.216l-.667.745.021.019.022.017.624-.781zm-4.8-2.592l-.316.949.01.003.306-.952zm-7.872-2.112l-.23.973.005.001.225-.974zm-12.576-3.648l.35-.937-.35.937zM6.77 33.328l-.76.65.01.011.75-.661zm-.288-21.312l.83.559.005-.008-.835-.551zm9.504-7.584l-.397-.918-.005.002.402.916zM44.21 3.184l.243-.97-.243.97zM54.961 7.6l.927.377.316-.78-.713-.445-.53.848zm-4.8 11.808l-.493.87.99.562.43-1.055-.927-.377zm-28.32-3.168l-.554-.832-.006.004-.006.004.566.824zm.48 10.752l-.437.9.014.006.015.007.408-.913zm11.04 3.264l.231-.973-.007-.002-.008-.002-.216.977zm12.576 3.648l.35-.937-.35.937zm8.352 5.76l-.751.66.009.01.742-.67zm.288 21.216l-.827-.562-.002.003.83.559zm-9.6 7.488l-.397-.918.397.918zM29.33 70.152c-5.222 0-10.283-.692-15.184-2.074l-.543 1.924c5.082 1.434 10.326 2.15 15.727 2.15v-2zm-15.17-2.07c-4.85-1.449-8.698-3.29-11.582-5.5L1.361 64.17c3.132 2.399 7.22 4.333 12.226 5.828l.572-1.916zM2.881 63.787l5.28-11.712-1.823-.822-5.28 11.712 1.823.822zM6.658 52.47c2.98 2.185 6.503 3.926 10.556 5.234l.614-1.904c-3.883-1.252-7.207-2.903-9.987-4.942L6.658 52.47zm10.556 5.234c4.062 1.31 8.134 1.968 12.211 1.968v-2c-3.858 0-7.723-.622-11.597-1.872l-.614 1.904zm12.211 1.968c4.475 0 7.962-.642 10.31-2.065l-1.036-1.71c-1.876 1.137-4.916 1.775-9.274 1.775v2zm10.33-2.076c2.349-1.495 3.63-3.55 3.63-6.124h-2c0 1.778-.83 3.243-2.705 4.436l1.074 1.688zm3.63-6.124c0-1.912-.785-3.508-2.295-4.717l-1.25 1.562c1.05.84 1.545 1.867 1.545 3.155h2zm-2.253-4.681c-1.345-1.203-3.078-2.127-5.16-2.799l-.614 1.904c1.887.608 3.353 1.413 4.44 2.385l1.334-1.49zm-5.15-2.796c-1.964-.654-4.623-1.366-7.964-2.137l-.45 1.948c3.315.765 5.904 1.461 7.781 2.087l.633-1.898zm-7.958-2.136c-5.098-1.21-9.246-2.416-12.458-3.612l-.698 1.874c3.317 1.236 7.552 2.463 12.694 3.684l.462-1.946zm-12.458-3.612c-3.105-1.157-5.784-3.012-8.046-5.58l-1.501 1.322c2.474 2.808 5.426 4.857 8.85 6.132l.697-1.874zm-8.037-5.57c-2.111-2.462-3.216-5.794-3.216-10.101h-2c0 4.654 1.2 8.49 3.697 11.403l1.519-1.302zM4.313 22.576c0-3.712 1-7.036 2.998-10.001l-1.66-1.118c-2.226 3.307-3.338 7.023-3.338 11.119h2zm3.003-10.01c1.986-3.008 4.987-5.424 9.071-7.218l-.804-1.832c-4.364 1.918-7.698 4.558-9.936 7.95l1.669 1.1zm9.066-7.216c4.13-1.788 9.203-2.702 15.251-2.702v-2c-6.24 0-11.599.942-16.045 2.866l.795 1.836zm15.251-2.702c4.208 0 8.318.502 12.334 1.506l.485-1.94A52.656 52.656 0 0031.633.648v2zm12.334 1.506c4.01 1.003 7.494 2.438 10.464 4.294l1.06-1.696c-3.174-1.984-6.858-3.493-11.04-4.538l-.484 1.94zm10.068 3.07l-4.8 11.807 1.853.754 4.8-11.808-1.853-.754zm-3.38 11.314c-6.336-3.592-12.712-5.41-19.118-5.41v2c6.01 0 12.05 1.702 18.131 5.15l.986-1.74zm-19.118-5.41c-4.424 0-7.894.71-10.25 2.28l1.109 1.664c1.868-1.245 4.861-1.944 9.141-1.944v-2zm-10.262 2.288c-2.294 1.577-3.506 3.73-3.506 6.392h2c0-1.945.837-3.505 2.639-4.744l-1.133-1.648zm-3.506 6.392c0 1.333.346 2.542 1.063 3.59.712 1.039 1.751 1.86 3.052 2.493l.875-1.798c-1.068-.52-1.805-1.138-2.277-1.826-.466-.681-.713-1.488-.713-2.459h-2zm4.144 6.097c2.526 1.13 6.286 2.235 11.233 3.328l.43-1.954c-4.909-1.083-8.509-2.154-10.846-3.2l-.817 1.826zm11.217 3.324c5.098 1.21 9.247 2.416 12.458 3.612l.698-1.874c-3.316-1.236-7.552-2.463-12.694-3.684l-.462 1.946zm12.458 3.612a19.453 19.453 0 017.95 5.483l1.503-1.32a21.455 21.455 0 00-8.755-6.037l-.698 1.874zm7.959 5.493c2.161 2.395 3.294 5.685 3.294 9.986h2c0-4.659-1.235-8.473-3.81-11.326l-1.484 1.34zm3.294 9.986c0 3.638-1.026 6.962-3.09 9.998l1.653 1.124c2.288-3.364 3.437-7.08 3.437-11.122h-2zm-3.093 10.001c-1.983 2.944-5.014 5.331-9.168 7.13l.794 1.835c4.422-1.914 7.791-4.52 10.033-7.847l-1.66-1.118zm-9.168 7.13c-4.13 1.787-9.202 2.701-15.25 2.701v2c6.239 0 11.598-.942 16.044-2.866l-.794-1.836zm37.52-.811l-.475.88.004.002.471-.882zM68.948 54.256l-.861.508.004.006.003.007.854-.521zm0-35.616l-.857-.516-.001.003.858.513zM82.1 6.16l-.471-.882-.004.002.475.88zm50.88 12.48l-.857.516.003.005.854-.521zm0 35.616l.854.52.003-.004-.857-.516zM119.828 66.64l.475.88-.475-.88zm-8.064-11.424l.489.873.006-.004.007-.004-.502-.865zm7.488-7.68l-.869-.494-.004.006-.004.007.877.481zm0-22.272l-.877.481.004.007.004.006.869-.494zm-7.488-7.584l-.502.865.007.004.006.003.489-.872zm-21.504 0l.489.872.006-.003.007-.004-.502-.865zm-7.584 7.584l-.87-.494-.003.006-.004.007.877.481zm0 22.272l-.877.481.004.007.004.006.869-.494zm7.584 7.68l-.502.865.007.004.006.004.489-.873zm10.752 14.936c-6.827 0-12.967-1.47-18.44-4.394l-.943 1.764c5.79 3.093 12.258 4.63 19.383 4.63v-2zM82.575 65.76c-5.417-2.926-9.668-6.932-12.773-12.025l-1.708 1.042c3.295 5.403 7.812 9.653 13.53 12.743l.951-1.76zM69.81 53.748C66.77 48.6 65.244 42.826 65.244 36.4h-2c0 6.758 1.61 12.888 4.843 18.364l1.722-1.016zM65.244 36.4c0-6.426 1.526-12.166 4.562-17.247l-1.716-1.026c-3.236 5.415-4.846 11.515-4.846 18.273h2zm4.56-17.244c3.106-5.155 7.357-9.191 12.771-12.116l-.95-1.76c-5.722 3.091-10.24 7.375-13.534 12.844l1.714 1.032zM82.572 7.042c5.474-2.923 11.614-4.394 18.441-4.394v-2c-7.125 0-13.593 1.537-19.383 4.63l.942 1.764zm18.441-4.394c6.827 0 12.933 1.47 18.341 4.392l.95-1.76C114.575 2.185 108.137.648 101.012.648v2zm18.341 4.392c5.414 2.925 9.665 6.96 12.77 12.116l1.714-1.032c-3.295-5.468-7.812-9.753-13.534-12.844l-.95 1.76zm12.773 12.12c3.098 5.08 4.654 10.818 4.654 17.24h2c0-6.762-1.644-12.864-4.946-18.28l-1.708 1.04zm4.654 17.24c0 6.422-1.556 12.194-4.657 17.34l1.714 1.032c3.299-5.478 4.943-11.61 4.943-18.372h-2zm-4.654 17.335c-3.105 5.093-7.356 9.099-12.773 12.025l.95 1.76c5.719-3.09 10.236-7.34 13.531-12.743l-1.708-1.042zM119.353 65.76c-5.408 2.921-11.514 4.392-18.341 4.392v2c7.125 0 13.563-1.537 19.291-4.632l-.95-1.76zm-18.341-6.856c4.125 0 7.879-.933 11.241-2.816l-.978-1.745c-3.038 1.702-6.452 2.561-10.263 2.561v2zm11.254-2.823c3.358-1.948 5.984-4.641 7.863-8.064l-1.754-.962c-1.705 3.105-4.071 5.532-7.113 7.296l1.004 1.73zm7.855-8.05c1.951-3.431 2.915-7.317 2.915-11.631h-2c0 4.006-.892 7.544-2.653 10.642l1.738.988zm2.915-11.631c0-4.314-.964-8.2-2.915-11.63l-1.738.988c1.761 3.098 2.653 6.636 2.653 10.642h2zm-2.907-11.617c-1.881-3.426-4.51-6.09-7.876-7.976l-.978 1.745c3.034 1.7 5.397 4.09 7.1 7.193l1.754-.962zm-7.863-7.968c-3.364-1.95-7.123-2.919-11.254-2.919v2c3.805 0 7.214.888 10.25 2.649l1.004-1.73zm-11.254-2.919c-4.131 0-7.89.968-11.254 2.919l1.004 1.73c3.036-1.761 6.445-2.649 10.25-2.649v-2zm-11.24 2.912c-3.364 1.883-6.022 4.543-7.965 7.962l1.738.988c1.769-3.11 4.166-5.505 7.204-7.206l-.978-1.744zm-7.973 7.975c-1.882 3.428-2.811 7.309-2.811 11.617h2c0-4.012.863-7.555 2.565-10.655l-1.754-.962zM78.988 36.4c0 4.308.93 8.19 2.811 11.617l1.754-.962c-1.702-3.1-2.565-6.643-2.565-10.655h-2zm2.819 11.63c1.942 3.416 4.596 6.105 7.951 8.051l1.004-1.73c-3.045-1.766-5.447-4.197-7.217-7.31l-1.738.99zm7.964 8.059c3.362 1.882 7.116 2.815 11.241 2.815v-2c-3.811 0-7.225-.859-10.263-2.56l-.978 1.745zM149.468 2.8v-1h-1v1h1zm15.552 0h1v-1h-1v1zm0 54.528h-1v1h1v-1zm33.696 0h1v-1h-1v1zm0 12.672v1h1v-1h-1zm-49.248 0h-1v1h1v-1zm0-66.2h15.552v-2h-15.552v2zm14.552-1v54.528h2V2.8h-2zm1 55.528h33.696v-2H165.02v2zm32.696-1V70h2V57.328h-2zm1 11.672h-49.248v2h49.248v-2zm-48.248 1V2.8h-2V70h2zm63.486-6.816l-.707.707.004.004.703-.711zM205.986 2.8v-1h-1v1h1zm15.552 0h1v-1h-1v1zm26.112 50.784l.747.664.007-.008-.754-.656zM251.49 2.8v-1h-1v1h1zm15.36 0h1v-1h-1v1zm-8.064 60.384l-.703-.711-.004.004.707.707zm-22.368 6.968c-9.412 0-16.62-2.599-21.761-7.68l-1.406 1.423c5.61 5.544 13.378 8.257 23.167 8.257v-2zm-21.757-7.675c-5.071-5.071-7.675-12.368-7.675-22.045h-2c0 10.035 2.708 17.907 8.261 23.46l1.414-1.415zm-7.675-22.045V2.8h-2v37.632h2zm-1-36.632h15.552v-2h-15.552v2zm14.552-1v37.056h2V2.8h-2zm0 37.056c0 6.13 1.267 10.913 3.974 14.175 2.737 3.297 6.801 4.873 12.002 4.873v-2c-4.784 0-8.207-1.432-10.463-4.15-2.285-2.755-3.513-6.995-3.513-12.898h-2zm15.976 19.048c5.069 0 9.086-1.509 11.883-4.656l-1.495-1.328c-2.322 2.613-5.729 3.984-10.388 3.984v2zm11.89-4.664c2.789-3.207 4.086-8.07 4.086-14.384h-2c0 6.102-1.263 10.39-3.595 13.072l1.509 1.312zm4.086-14.384V2.8h-2v37.056h2zm-1-36.056h15.36v-2h-15.36v2zm14.36-1v37.632h2V2.8h-2zm0 37.632c0 9.673-2.634 16.969-7.767 22.04l1.406 1.423c5.619-5.552 8.361-13.425 8.361-23.463h-2zm-7.771 22.045c-5.076 5.076-12.249 7.675-21.661 7.675v2c9.788 0 17.527-2.713 23.075-8.26l-1.414-1.415zm36.934-47.005h1v-1h-1v1zm-21.504 0h-1v1h1v-1zm0-12.672v-1h-1v1h1zm58.56 0h1v-1h-1v1zm0 12.672v1h1v-1h-1zm-21.504 0v-1h-1v1h1zm0 54.528v1h1v-1h-1zm-15.552 0h-1v1h1v-1zm0-55.528h-21.504v2h21.504v-2zm-20.504 1V2.8h-2v12.672h2zm-1-11.672h58.56v-2h-58.56v2zm57.56-1v12.672h2V2.8h-2zm1 11.672h-21.504v2h21.504v-2zm-22.504 1V70h2V15.472h-2zm1 53.528h-15.552v2h15.552v-2zm-14.552 1V15.472h-2V70h2zm44.424-67.2v-1h-1v1h1zm15.552 0h1v-1h-1v1zm0 67.2v1h1v-1h-1zm-15.552 0h-1v1h1v-1zm0-66.2h15.552v-2h-15.552v2zm14.552-1V70h2V2.8h-2zm1 66.2h-15.552v2h15.552v-2zm-14.552 1V2.8h-2V70h2zm44.132-3.36l-.476.88.005.002.471-.882zm-13.152-12.384l-.861.508.003.006.004.007.854-.521zm0-35.616l-.857-.516-.002.003.859.513zm13.152-12.48l-.471-.882-.005.002.476.88zm50.88 12.48l-.857.516.003.005.854-.521zm0 35.616l.854.52.002-.004-.856-.516zM423.297 66.64l.475.88-.475-.88zm-8.064-11.424l.488.873.007-.004.006-.004-.501-.865zm7.488-7.68l-.87-.494-.003.006-.004.007.877.481zm0-22.272l-.877.481.004.007.003.006.87-.494zm-7.488-7.584l-.502.865.007.004.006.003.489-.872zm-21.504 0l.488.872.007-.003.006-.004-.501-.865zm-7.584 7.584l-.87-.494-.003.006-.004.007.877.481zm0 22.272l-.877.481.004.007.003.006.87-.494zm7.584 7.68l-.502.865.007.004.006.004.489-.873zm10.752 14.936c-6.827 0-12.967-1.47-18.441-4.394l-.942 1.764c5.79 3.093 12.258 4.63 19.383 4.63v-2zm-18.437-4.392c-5.417-2.926-9.668-6.932-12.773-12.025l-1.708 1.042c3.295 5.403 7.812 9.653 13.53 12.743l.951-1.76zm-12.766-12.012c-3.039-5.148-4.565-10.922-4.565-17.348h-2c0 6.758 1.609 12.888 4.843 18.364l1.722-1.016zM368.713 36.4c0-6.426 1.526-12.166 4.562-17.247l-1.717-1.026c-3.236 5.415-4.845 11.515-4.845 18.273h2zm4.56-17.244c3.106-5.155 7.357-9.191 12.771-12.116l-.951-1.76c-5.722 3.091-10.239 7.375-13.533 12.844l1.713 1.032zM386.04 7.042c5.474-2.923 11.614-4.394 18.441-4.394v-2c-7.125 0-13.593 1.537-19.383 4.63l.942 1.764zm18.441-4.394c6.827 0 12.933 1.47 18.34 4.392l.951-1.76C418.044 2.185 411.605.648 404.481.648v2zm18.34 4.392c5.415 2.925 9.665 6.96 12.771 12.116l1.713-1.032c-3.294-5.468-7.811-9.753-13.533-12.844l-.951 1.76zm12.774 12.12c3.097 5.08 4.654 10.818 4.654 17.24h2c0-6.762-1.644-12.864-4.946-18.28l-1.708 1.04zm4.654 17.24c0 6.422-1.557 12.194-4.657 17.34l1.713 1.032c3.3-5.478 4.944-11.61 4.944-18.372h-2zm-4.654 17.335c-3.105 5.093-7.356 9.099-12.774 12.025l.951 1.76c5.719-3.09 10.236-7.34 13.531-12.743l-1.708-1.042zM422.821 65.76c-5.407 2.921-11.513 4.392-18.34 4.392v2c7.124 0 13.563-1.537 19.291-4.632l-.951-1.76zm-18.34-6.856c4.124 0 7.879-.933 11.24-2.816l-.977-1.745c-3.038 1.702-6.452 2.561-10.263 2.561v2zm11.253-2.823c3.359-1.948 5.984-4.641 7.863-8.064l-1.753-.962c-1.705 3.105-4.072 5.532-7.113 7.296l1.003 1.73zm7.856-8.05c1.951-3.431 2.915-7.317 2.915-11.631h-2c0 4.006-.892 7.544-2.654 10.642l1.739.988zm2.915-11.631c0-4.314-.964-8.2-2.915-11.63l-1.739.988c1.762 3.098 2.654 6.636 2.654 10.642h2zm-2.908-11.617c-1.88-3.426-4.51-6.09-7.876-7.976l-.977 1.745c3.034 1.7 5.397 4.09 7.1 7.193l1.753-.962zm-7.863-7.968c-3.363-1.95-7.122-2.919-11.253-2.919v2c3.805 0 7.214.888 10.25 2.649l1.003-1.73zm-11.253-2.919c-4.131 0-7.89.968-11.254 2.919l1.003 1.73c3.037-1.761 6.446-2.649 10.251-2.649v-2zm-11.241 2.912c-3.363 1.883-6.021 4.543-7.965 7.962l1.739.988c1.768-3.11 4.166-5.505 7.203-7.206l-.977-1.744zm-7.972 7.975c-1.882 3.428-2.811 7.309-2.811 11.617h2c0-4.012.862-7.555 2.564-10.655l-1.753-.962zM382.457 36.4c0 4.308.929 8.19 2.811 11.617l1.753-.962c-1.702-3.1-2.564-6.643-2.564-10.655h-2zm2.818 11.63c1.943 3.416 4.596 6.105 7.952 8.051l1.003-1.73c-3.044-1.766-5.446-4.197-7.216-7.31l-1.739.99zm7.965 8.059c3.362 1.882 7.116 2.815 11.241 2.815v-2c-3.812 0-7.225-.859-10.264-2.56l-.977 1.745zM514.569 2.8h1v-1h-1v1zm0 67.2v1h1v-1h-1zm-12.768 0l-.773.635.3.365h.473v-1zm-33.504-40.8l.773-.635-1.773-2.159V29.2h1zm0 40.8v1h1v-1h-1zm-15.36 0h-1v1h1v-1zm0-67.2v-1h-1v1h1zm12.864 0l.773-.634-.3-.366h-.473v1zm33.408 40.8l-.774.633 1.774 2.167v-2.8h-1zm0-40.8v-1h-1v1h1zm14.36 0V70h2V2.8h-2zm1 66.2h-12.768v2h12.768v-2zm-11.995.365l-33.504-40.8-1.546 1.27 33.504 40.8 1.546-1.27zM467.297 29.2V70h2V29.2h-2zm1 39.8h-15.36v2h15.36v-2zm-14.36 1V2.8h-2V70h2zm-1-66.2h12.864v-2h-12.864v2zm12.09-.366l33.408 40.8 1.547-1.267-33.408-40.8-1.547 1.267zM500.209 43.6V2.8h-2v40.8h2zm-1-39.8h15.36v-2h-15.36v2zm37.883 65.24l-.286.958.007.002.008.002.271-.962zm-11.904-5.664l-.912-.411-.325.723.629.482.608-.794zm5.28-11.712l.591-.806-.995-.73-.508 1.125.912.411zm10.272 5.088l.307-.952-.307.952zm21.696 0l.518.855.01-.005.009-.006-.537-.844zm1.248-9.216l-.667.745.021.019.021.017.625-.781zm-4.8-2.592l-.316.949.009.003.307-.952zm-7.872-2.112l-.231.973.006.001.225-.974zm-12.576-3.648l.349-.937-.349.937zm-8.448-5.856l-.759.65.009.011.75-.661zm-.288-21.312l.829.559.006-.008-.835-.551zm9.504-7.584l-.397-.918-.005.002.402.916zm28.224-1.248l.243-.97-.243.97zM578.18 7.6l.926.377.317-.78-.713-.445-.53.848zm-4.8 11.808l-.493.87.991.562.428-1.055-.926-.377zm-28.32-3.168l-.555-.832-.006.004-.006.004.567.824zm.48 10.752l-.437.9.014.006.015.007.408-.913zm11.04 3.264l.231-.973-.008-.002-.007-.002-.216.977zm12.576 3.648l.349-.937-.349.937zm8.352 5.76l-.752.66.01.01.742-.67zm.288 21.216l-.827-.562-.002.003.829.559zm-9.6 7.488l-.397-.918.397.918zm-15.648 1.784c-5.222 0-10.283-.692-15.185-2.074l-.542 1.924c5.082 1.434 10.325 2.15 15.727 2.15v-2zm-15.17-2.07c-4.85-1.449-8.698-3.29-11.582-5.5l-1.216 1.588c3.132 2.399 7.22 4.333 12.226 5.828l.572-1.916zM526.1 63.787l5.28-11.712-1.824-.822-5.28 11.712 1.824.822zm3.777-11.317c2.979 2.185 6.503 3.926 10.556 5.234l.614-1.904c-3.883-1.252-7.207-2.903-9.988-4.942l-1.182 1.612zm10.556 5.234c4.062 1.31 8.134 1.968 12.211 1.968v-2c-3.859 0-7.723-.622-11.597-1.872l-.614 1.904zm12.211 1.968c4.474 0 7.962-.642 10.31-2.065l-1.036-1.71c-1.876 1.137-4.916 1.775-9.274 1.775v2zm10.329-2.076c2.349-1.495 3.631-3.55 3.631-6.124h-2c0 1.778-.83 3.243-2.705 4.436l1.074 1.688zm3.631-6.124c0-1.912-.785-3.508-2.295-4.717l-1.25 1.562c1.05.84 1.545 1.867 1.545 3.155h2zm-2.253-4.681c-1.345-1.203-3.078-2.127-5.16-2.799l-.614 1.904c1.887.608 3.353 1.413 4.44 2.385l1.334-1.49zm-5.151-2.796c-1.963-.654-4.622-1.366-7.963-2.137l-.45 1.948c3.315.765 5.904 1.461 7.781 2.087l.632-1.898zm-7.957-2.136c-5.098-1.21-9.247-2.416-12.458-3.612l-.698 1.874c3.317 1.236 7.552 2.463 12.694 3.684l.462-1.946zm-12.458-3.612c-3.105-1.157-5.784-3.012-8.047-5.58l-1.5 1.322c2.473 2.808 5.426 4.857 8.849 6.132l.698-1.874zm-8.038-5.57c-2.111-2.462-3.215-5.794-3.215-10.101h-2c0 4.654 1.2 8.49 3.697 11.403l1.518-1.302zm-3.215-10.101c0-3.712 1-7.036 2.997-10.001l-1.658-1.118c-2.227 3.307-3.339 7.023-3.339 11.119h2zm3.003-10.01c1.986-3.008 4.987-5.424 9.071-7.218l-.804-1.832c-4.364 1.918-7.699 4.558-9.937 7.95l1.67 1.1zm9.066-7.216c4.13-1.788 9.203-2.702 15.251-2.702v-2c-6.24 0-11.599.942-16.045 2.866l.794 1.836zm15.251-2.702c4.208 0 8.318.502 12.333 1.506l.486-1.94A52.665 52.665 0 00554.852.648v2zm12.333 1.506c4.011 1.003 7.495 2.438 10.465 4.294l1.06-1.696c-3.174-1.984-6.858-3.493-11.039-4.538l-.486 1.94zm10.069 3.07l-4.8 11.807 1.852.754 4.8-11.808-1.852-.754zm-3.381 11.314c-6.335-3.592-12.712-5.41-19.117-5.41v2c6.011 0 12.05 1.702 18.131 5.15l.986-1.74zm-19.117-5.41c-4.424 0-7.894.71-10.251 2.28l1.11 1.664c1.867-1.245 4.861-1.944 9.141-1.944v-2zm-10.263 2.288c-2.294 1.577-3.505 3.73-3.505 6.392h2c0-1.945.837-3.505 2.639-4.744l-1.134-1.648zm-3.505 6.392c0 1.333.346 2.542 1.063 3.59.712 1.039 1.751 1.86 3.052 2.493l.874-1.798c-1.067-.52-1.804-1.138-2.276-1.826-.467-.681-.713-1.488-.713-2.459h-2zm4.144 6.097c2.526 1.13 6.286 2.235 11.232 3.328l.432-1.954c-4.91-1.083-8.51-2.154-10.848-3.2l-.816 1.826zm11.217 3.324c5.098 1.21 9.247 2.416 12.458 3.612l.698-1.874c-3.317-1.236-7.552-2.463-12.694-3.684l-.462 1.946zm12.458 3.612a19.458 19.458 0 017.95 5.483l1.502-1.32a21.45 21.45 0 00-8.754-6.037l-.698 1.874zm7.959 5.493c2.161 2.395 3.294 5.685 3.294 9.986h2c0-4.659-1.235-8.473-3.81-11.326l-1.484 1.34zm3.294 9.986c0 3.638-1.027 6.962-3.091 9.998l1.654 1.124c2.288-3.364 3.437-7.08 3.437-11.122h-2zm-3.093 10.001c-1.983 2.944-5.014 5.331-9.168 7.13l.794 1.835c4.422-1.914 7.791-4.52 10.032-7.847l-1.658-1.118zm-9.168 7.13c-4.13 1.787-9.203 2.701-15.251 2.701v2c6.24 0 11.599-.942 16.045-2.866l-.794-1.836z" fill="#039B12"/></svg>