<svg width="38" height="38" fill="none" xmlns="http://www.w3.org/2000/svg"><path d="M18.478 26.588l-1.303.475c.33.636.33.636-.166 1.13l-.728.734c-.438.44-.605.437-1.053-.018-.213-.215-.428-.43-.644-.642a.813.813 0 00-.12-.072l-1.295 1.287c-.495.496-.618.496-1.108 0L8.5 25.918c-.395-.398-.4-.573 0-.964.457-.453.925-.899 1.465-1.42-.352-.316-.66-.571-.938-.851-.278-.28-.294-.513 0-.818.294-.304.583-.586.876-.879.46-.462.517-.468 1.08-.1.165-.428.31-.846.473-1.293a5.418 5.418 0 00-2.49-.151 11.206 11.206 0 00-4.035 1.415c-1.051.6-2.05 1.29-3.066 1.947-.228.147-.446.304-.708.09-.263-.213-.154-.43-.062-.674.914-2.414 2.061-4.698 3.748-6.671 2.748-3.213 6.19-4.955 10.468-4.743.727.035 1.123-.165 1.563-.708a26.724 26.724 0 0111.092-8.22A25.542 25.542 0 0137.258 0c.628 0 .747.114.742.752A25.553 25.553 0 0136.306 9.6a26.855 26.855 0 01-5.017 8.353 27.295 27.295 0 01-3.851 3.613.593.593 0 00-.255.595c.367 4.178-1.099 7.65-4.098 10.506-1.926 1.842-4.232 3.104-6.7 4.08a3.06 3.06 0 01-.661.247.824.824 0 01-.582-.104c-.223-.18-.089-.419.045-.628.66-1.018 1.368-2.008 1.95-3.067.951-1.731 1.637-3.559 1.487-5.593-.01-.32-.084-.621-.146-1.015zm11.67-24.534c-.114.028-.194.043-.27.068-4.959 1.634-9.066 4.5-12.355 8.552-2.607 3.19-4.395 6.823-5.77 10.68a.447.447 0 00.14.54 591.9 591.9 0 014.234 4.24c.193.194.354.252.611.138 1.818-.796 3.685-1.477 5.438-2.387C28.274 20.72 32.795 16.057 35.354 9.6c.223-.558.41-1.13.621-1.723-3.071-.83-4.998-2.746-5.828-5.824zM15.567 11.72c-.11-.017-.175-.033-.24-.037-3.475-.185-6.408 1.048-8.875 3.447-1.368 1.324-2.407 2.897-3.283 4.578-.243.466-.45.949-.672 1.424a.761.761 0 00.353-.11c1.21-.617 2.388-1.31 3.635-1.833 1.555-.648 3.198-.944 4.882-.535.353.086.472-.02.614-.318.618-1.286 1.231-2.585 1.907-3.847.496-.93 1.092-1.81 1.679-2.77zm1.244 23.86c.139-.042.189-.052.233-.072 2.046-.912 3.95-2.05 5.575-3.626 2.132-2.073 3.449-4.55 3.697-7.542.05-.607 0-1.222 0-1.854a.828.828 0 00-.18.05 36.513 36.513 0 01-6.582 3.593c-.234.1-.234.232-.208.45.08.653.201 1.315.165 1.966-.097 1.986-.854 3.77-1.8 5.484-.264.5-.566.983-.9 1.55zM36.25 6.952c.505-1.968.872-3.958.854-6-1.087-.184-5.233.427-6.031.869.33 2.403 2.85 4.921 5.177 5.131zM9.38 25.396l3.242 3.241 1.144-1.076-3.274-3.297-1.112 1.132zm6.883 2.318c-1.995-2.002-3.938-3.955-5.903-5.928l-.383.395c1.973 1.987 3.916 3.944 5.88 5.917l.406-.384z" fill="#00BE4C"/><path d="M3.974 34.62c-.44 0-.644-.331-.472-.641.083-.126.183-.241.297-.341l4.726-4.736c.078-.078.154-.204.243-.215.195-.027.476-.068.575.036.099.105.043.383.018.58-.01.077-.12.144-.188.212a9794.6 9794.6 0 01-4.792 4.79c-.128.115-.264.22-.407.315zm-.685-7.29c-.399.016-.623-.305-.496-.591a.91.91 0 01.19-.264c1.101-1.11 2.21-2.22 3.323-3.329l.058-.06c.208-.191.438-.259.66-.044.224.215.166.459-.03.662l-1.486 1.49c-.632.632-1.261 1.268-1.899 1.895-.1.09-.207.17-.32.24zm7.868 8.044c-.149-.109-.319-.165-.368-.284a.579.579 0 01.016-.456c.136-.19.293-.362.47-.514a714.96 714.96 0 012.884-2.892c.078-.078.154-.202.243-.215.195-.027.475-.07.579.033.104.102.04.38.02.578 0 .064-.106.12-.166.178-1.069 1.071-2.135 2.152-3.207 3.212-.15.13-.307.25-.47.36zm-3.592-8.382a3.35 3.35 0 01-.286.417 551.956 551.956 0 01-3.209 3.215c-.208.207-.44.316-.684.082-.245-.233-.152-.496.068-.715 1.07-1.072 2.135-2.152 3.219-3.21a.72.72 0 01.54-.165c.127.035.231.237.352.376zm.175 7.831c-.383 0-.613-.33-.477-.607.068-.119.155-.226.257-.318l3.036-3.042c.05-.048.096-.1.147-.145.2-.18.416-.228.624-.03.209.196.194.446-.01.653-.598.61-1.203 1.213-1.804 1.82-.477.48-.95.96-1.434 1.431-.105.09-.219.17-.339.238zM25.657 8.66a3.72 3.72 0 013.422 2.327 3.738 3.738 0 01-.832 4.058 3.722 3.722 0 01-6.343-2.668 3.739 3.739 0 012.323-3.441 3.72 3.72 0 011.43-.275zm-.018 6.57a2.838 2.838 0 002.62-1.763 2.85 2.85 0 00-.621-3.1 2.839 2.839 0 00-4.845 2.023 2.855 2.855 0 002.846 2.839z" fill="#00BE4C"/></svg>