<svg width="34" height="34" fill="none" xmlns="http://www.w3.org/2000/svg"><path d="M30.113.104a1.812 1.812 0 00-.6-.103c-1.004 0-1.821.82-1.821 1.83v3.483H13.699c-.488 0-.946.19-1.29.535L11.08 7.177a.83.83 0 01-1.174 0L8.578 5.849a1.814 1.814 0 00-1.291-.535H6.31V1.83c0-.592-.29-1.15-.773-1.493A1.793 1.793 0 003.888.104 5.818 5.818 0 00.001 5.588V28.19A5.817 5.817 0 005.811 34h13.586c.488 0 .947-.19 1.292-.535l1.328-1.328a.83.83 0 011.174 0l1.328 1.328c.345.345.803.535 1.29.535h2.38c1.21 0 2.37-.368 3.354-1.065a.498.498 0 10-.575-.813 4.782 4.782 0 01-2.778.882h-2.38a.824.824 0 01-.587-.243l-1.328-1.328a1.828 1.828 0 00-2.583 0l-1.328 1.328a.824.824 0 01-.587.243H5.812A4.82 4.82 0 01.997 28.19a4.828 4.828 0 013.844-4.717 1.832 1.832 0 001.469-1.78v-3.387a.498.498 0 10-.996 0v3.386a.822.822 0 01-.673.805 5.803 5.803 0 00-3.644 2.447V5.588a4.82 4.82 0 013.221-4.544.809.809 0 01.743.106.825.825 0 01.353.68v14.484a.498.498 0 10.996 0V6.31h.977c.222 0 .43.086.587.243l1.328 1.328a1.82 1.82 0 001.291.534 1.82 1.82 0 001.291-.534l1.329-1.328a.824.824 0 01.586-.243h13.993v6.455c0 .488.19.947.535 1.292l1.328 1.328a.825.825 0 01.243.587.83.83 0 01-.243.587l-1.328 1.328a1.814 1.814 0 00-.535 1.291v2.514c0 .858.617 1.607 1.469 1.781a4.828 4.828 0 013.843 4.716c0 .971-.287 1.907-.831 2.706a.498.498 0 00.823.56A5.781 5.781 0 0034 28.19V5.587A5.818 5.818 0 0030.113.104zm-.753 22.393a.822.822 0 01-.672-.805v-2.514c0-.222.086-.43.243-.587l1.328-1.328a1.828 1.828 0 000-2.583l-1.328-1.328a.836.836 0 01-.243-.587V1.832c0-.46.37-.834.825-.834.09 0 .182.016.27.047a4.82 4.82 0 013.221 4.544v19.356a5.803 5.803 0 00-3.644-2.447z" fill="#00BE4C"/><path d="M13.78 12.156a2.493 2.493 0 00-2.49-2.49 2.493 2.493 0 00-2.49 2.49 2.493 2.493 0 002.49 2.49 2.493 2.493 0 002.49-2.49zm-2.49 1.494c-.825 0-1.495-.67-1.495-1.494s.67-1.494 1.494-1.494 1.494.67 1.494 1.494-.67 1.494-1.494 1.494zm13.765 7.572a.498.498 0 00-.704 0l-.976.976-.976-.976a.498.498 0 00-.704.704l.976.976-.976.976a.498.498 0 10.704.704l.976-.976.976.976a.497.497 0 10.704-.704l-.976-.976.976-.976a.498.498 0 000-.704zm-9.117-8.568h.498a.498.498 0 000-.996h-.498a.498.498 0 100 .996zm7.675 2.702l.025.001a.498.498 0 00.497-.473 3.065 3.065 0 00-.16-1.149.498.498 0 00-.944.322 2.069 2.069 0 01.109.777.498.498 0 00.473.522zm-3.744-3.2a.498.498 0 00-.498-.498h-.979a.498.498 0 100 .996h.979a.498.498 0 00.498-.498zm.718 5.146a.498.498 0 00-.498-.498h-.978a.498.498 0 100 .996h.978a.498.498 0 00.498-.498zm1.671-4.356a.498.498 0 00.23-.94 3.045 3.045 0 00-1.112-.333.498.498 0 00-.099.992c.264.026.516.101.75.224a.498.498 0 00.23.057zm-.236 4.671a.497.497 0 00.185-.036c.363-.145.692-.356.976-.627a.498.498 0 00-.686-.721 2.068 2.068 0 01-.66.423.498.498 0 00.185.961zm-8.141 11.917c.044 0 .09-.006.134-.018a3.565 3.565 0 001.028-.474.498.498 0 00-.554-.828 2.57 2.57 0 01-.742.342.498.498 0 00.134.978zM13.24 17.8h.979a.498.498 0 100-.996h-.978a.498.498 0 100 .996zm-2.438 11.056c.296.239.627.428.982.562a.5.5 0 00.641-.29.498.498 0 00-.29-.642 2.58 2.58 0 01-.709-.406.498.498 0 10-.624.776zm4.981-1.273a.497.497 0 00.638-.299c.13-.356.2-.73.212-1.111a.498.498 0 00-.482-.513h-.016a.498.498 0 00-.498.482c-.008.276-.06.546-.153.803a.498.498 0 00.299.638zm-5.822-6.09a.498.498 0 00.498-.498v-.978a.498.498 0 10-.996 0v.978c0 .275.223.498.498.498zm-.498 2.437a.498.498 0 10.996 0v-.978a.498.498 0 10-.996 0v.978zm1.491-5.4c.172-.202.378-.367.612-.491a.498.498 0 10-.466-.88c-.346.183-.65.427-.905.725a.498.498 0 10.759.646zm-1.491 7.532c0 .312.04.622.12.922a.498.498 0 00.963-.256 2.603 2.603 0 01-.087-.666v-.175a.498.498 0 10-.996 0v.175zm7.691-9.258h-.978a.498.498 0 100 .996h.978a.498.498 0 100-.996zm-.271 7.686c.126-.233.293-.438.497-.608a.498.498 0 10-.639-.764 3.07 3.07 0 00-.734.898.498.498 0 00.876.474zm2.009-1.09h.499a.498.498 0 100-.996h-.498a.498.498 0 100 .996z" fill="#00BE4C"/></svg>