<svg width="31" height="34" fill="none" xmlns="http://www.w3.org/2000/svg"><path d="M15.006 13.7a3.101 3.101 0 100 6.203 3.101 3.101 0 000-6.203zm0 5.404a2.303 2.303 0 110-4.607 2.303 2.303 0 010 4.607z" fill="#00BE4C"/><path d="M19.83 17.246c.033-.37.023-.741-.028-1.108l.448-.43a.399.399 0 00.089-.447l-.598-1.367a.398.398 0 00-.395-.237l-.617.045a4.492 4.492 0 00-.804-.766l.018-.616a.398.398 0 00-.255-.383l-1.391-.537a.398.398 0 00-.445.111l-.401.465a4.976 4.976 0 00-1.108.028l-.43-.447a.399.399 0 00-.446-.09l-1.368.599a.399.399 0 00-.237.394l.045.618a4.493 4.493 0 00-.766.804l-.616-.018a.4.4 0 00-.383.255l-.537 1.391a.398.398 0 00.111.445l.465.4c-.032.37-.023.742.028 1.109l-.447.429a.398.398 0 00-.09.447l.599 1.367a.398.398 0 00.394.238l.617-.046c.236.288.506.545.805.766l-.018.616a.397.397 0 00.254.384l1.392.537a.399.399 0 00.445-.112l.4-.464c.37.032.741.022 1.108-.029l.43.448a.398.398 0 00.446.09l1.368-.6a.398.398 0 00.237-.393l-.045-.618c.288-.235.545-.505.766-.804l.616.018a.4.4 0 00.383-.255l.537-1.391a.398.398 0 00-.111-.445l-.464-.401zm-.602 1.687l-.549-.016a.4.4 0 00-.343.177 3.698 3.698 0 01-.882.926.398.398 0 00-.16.35l.04.549-.854.373-.381-.397a.398.398 0 00-.36-.116c-.426.078-.863.09-1.293.033a.399.399 0 00-.353.135l-.353.41-.867-.334.016-.549a.398.398 0 00-.177-.343 3.703 3.703 0 01-.926-.882.398.398 0 00-.35-.16l-.549.04-.373-.854.397-.381a.398.398 0 00.116-.36 4.178 4.178 0 01-.033-1.292.399.399 0 00-.135-.353l-.41-.354.335-.867.548.016a.4.4 0 00.343-.177c.238-.357.537-.67.882-.926a.398.398 0 00.16-.35l-.04-.548.854-.374.381.397a.4.4 0 00.36.117c.426-.079.862-.09 1.293-.034a.398.398 0 00.353-.134l.353-.41.867.334-.016.548a.399.399 0 00.177.343c.358.238.671.537.926.882a.398.398 0 00.35.16l.549-.04.373.854-.397.381a.397.397 0 00-.116.36c.078.426.089.863.033 1.293a.399.399 0 00.135.353l.41.354-.335.866zm-4.222 9.297a1.487 1.487 0 100 2.975 1.487 1.487 0 000-2.974zm0 2.177a.69.69 0 110-1.38.69.69 0 010 1.38z" fill="#00BE4C"/><path d="M24.103 3.984A3.055 3.055 0 0021.048.93H8.963a3.055 3.055 0 00-3.055 3.054V29.95a3.055 3.055 0 003.055 3.055h12.086a3.055 3.055 0 003.054-3.055V3.984zM6.705 5.512h16.601v21.316H6.705V5.512zm14.353 26.761H8.953c-1.245 0-2.248-1.037-2.248-2.282v-2.366h16.601v2.366c0 1.245-1.003 2.282-2.248 2.282zm2.248-27.558H6.705v-.706c0-1.245 1.003-2.282 2.248-2.282h12.105c1.245 0 2.248 1.037 2.248 2.282v.706z" fill="#00BE4C"/><path d="M7.834 6.087a.398.398 0 00-.399.398v.338a.398.398 0 00.797 0v-.338a.398.398 0 00-.398-.398zm0 1.655a.398.398 0 00-.399.398v3.214a.398.398 0 10.797 0V8.14a.398.398 0 00-.398-.398z" fill="#00BE4C"/><path d="M22.27 17.2h3.889a1.946 1.946 0 100-.797h-3.887a6.826 6.826 0 00-.4-1.993h.41a1.992 1.992 0 001.976-1.992 1.195 1.195 0 011.18-1.195h.373c.07.375.255.72.53.985a1.946 1.946 0 100-2.754c-.262.27-.445.606-.53.972h-.374a1.992 1.992 0 00-1.976 1.992 1.195 1.195 0 01-1.18 1.195h-.745a7.286 7.286 0 00-13.089 0H7.73a1.195 1.195 0 01-1.18-1.195 1.992 1.992 0 00-1.976-1.992H4.2a2.07 2.07 0 00-.53-.972 1.953 1.953 0 100 2.754c.275-.265.46-.61.53-.985h.374a1.195 1.195 0 011.18 1.195A1.992 1.992 0 007.73 14.41h.385a7.146 7.146 0 00-.396 1.992H3.852a1.947 1.947 0 100 .797h3.866a6.85 6.85 0 00.4 1.992H7.73a1.992 1.992 0 00-1.977 1.992 1.194 1.194 0 01-1.179 1.196H4.2a1.84 1.84 0 00-.53-.986 1.94 1.94 0 100 2.755 2.07 2.07 0 00.53-.972h.374a1.992 1.992 0 001.976-1.992 1.194 1.194 0 011.18-1.196h.723a7.291 7.291 0 005.827 4.055c.244.024.487.04.728.04a7.31 7.31 0 006.535-4.095h.739a1.195 1.195 0 011.179 1.195 1.992 1.992 0 001.976 1.993h.374c.085.366.268.702.53.972a1.95 1.95 0 100-2.755 1.84 1.84 0 00-.53.986h-.374a1.194 1.194 0 01-1.18-1.196 1.992 1.992 0 00-1.976-1.992h-.406a7.153 7.153 0 00.395-1.992zm4.982-1.213a1.15 1.15 0 111.627 1.627 1.15 1.15 0 01-1.627-1.627zm-.348-5.963a1.15 1.15 0 111.627 1.627 1.15 1.15 0 01-1.627-1.627zM3.107 11.652a1.151 1.151 0 11-1.627-1.629 1.151 1.151 0 011.627 1.629zm-.348 5.962a1.15 1.15 0 11-1.626-1.626 1.15 1.15 0 011.626 1.626zm.348 5.963a1.15 1.15 0 11-1.626-1.626 1.15 1.15 0 011.626 1.626zm23.797-1.627a1.15 1.15 0 111.628 1.628 1.15 1.15 0 01-1.628-1.628zm-7.792-.132a6.49 6.49 0 112.342-4.38 6.45 6.45 0 01-2.342 4.38z" fill="#00BE4C"/></svg>