<svg width="68" height="68" fill="none" xmlns="http://www.w3.org/2000/svg"><path d="M34 0C15.258 0 0 15.246 0 34c0 18.742 15.258 34 34 34s34-15.258 34-34C68 15.243 52.742 0 34 0zM3.428 33.997c0-4.428.944-8.636 2.647-12.435l14.586 39.95C10.458 56.55 3.428 46.092 3.428 33.997zM34 64.572a30.38 30.38 0 01-8.636-1.25l9.171-26.65 9.393 25.746c.068.153.139.287.218.425A30.612 30.612 0 0134 64.572zm4.208-44.895v-.002a64.33 64.33 0 003.493-.287c1.646-.192 1.453-2.618-.193-2.524 0 0-4.95.383-8.143.383-3.003 0-8.05-.383-8.05-.383-1.643-.096-1.832 2.428-.189 2.524 0 0 1.561.193 3.207.287l4.758 13.05-6.69 20.057-11.13-33.107c1.84-.097 3.497-.287 3.497-.287 1.646-.192 1.453-2.618-.193-2.524 0 0-4.95.383-8.143.383-.575 0-1.25-.015-1.975-.04C13.93 8.91 23.319 3.428 34 3.428c7.953 0 15.204 3.046 20.647 8.019a3.767 3.767 0 00-.397-.026c-3.004 0-5.129 2.618-5.129 5.429 0 2.521 1.454 4.646 3.004 7.171 1.164 2.029 2.524 4.647 2.524 8.432 0 2.618-1 5.647-2.331 9.886l-3.046 10.185-11.064-32.847zm22.624-.345a30.448 30.448 0 013.742 14.67c0 11.283-6.114 21.126-15.203 26.419l-.003-.003 9.336-26.996c1.74-4.36 2.332-7.84 2.332-10.954 0-1.122-.068-2.164-.204-3.136z" fill="#EB5B31"/></svg>