<svg width="84" height="74" fill="none" xmlns="http://www.w3.org/2000/svg"><g clip-path="url(#clip0_3384:4608)" fill="#F8E4AE"><path d="M73.562 39.93a24.237 24.237 0 01-1.945 9.452 24.56 24.56 0 01-5.49 7.987 25.015 25.015 0 01-8.19 5.294 25.332 25.332 0 01-9.63 1.786C34.67 64.357 23.52 53.217 23.6 39.755a24.23 24.23 0 011.953-9.45 24.565 24.565 0 015.497-7.983 25.023 25.023 0 018.195-5.29 25.34 25.34 0 019.632-1.78c13.653.077 24.747 11.168 24.685 24.679zM48.633 60.79a21.55 21.55 0 0011.84-3.535 21.04 21.04 0 007.845-9.414 20.651 20.651 0 001.206-12.117 20.861 20.861 0 00-5.841-10.732 21.414 21.414 0 00-10.918-5.728 21.625 21.625 0 00-12.311 1.208A21.232 21.232 0 0030.9 28.21a20.723 20.723 0 00-1.946 19.67 20.917 20.917 0 004.62 6.792 21.303 21.303 0 006.91 4.533 21.577 21.577 0 008.148 1.585z"/><path d="M84 35.563V48.72c0 1.303.05 2.755-1.797 2.778-1.848.023-1.86-1.372-1.856-2.714V23.805c0-5.295-2.662-8.016-7.986-8.164-4.842-.13-8.746-2.004-11.47-6.014-4.806-7.085-4.178-5.85-11.96-5.968-1.677-.023-3.362.076-5.035 0-2.324-.134-3.978.815-5.252 2.61-.887 1.25-1.762 2.508-2.653 3.755-2.743 3.81-6.53 5.633-11.233 5.637H11.391c-4.369.026-7.127 2.427-7.665 6.723-.159 1.25-.596 2.13-1.99 2.039C.34 24.33.053 23.303.08 22.098c.113-4.985 4.327-9.582 9.498-9.91 4.384-.271 8.78-.308 13.169-.11 5.267.236 9.098-1.738 11.72-6.205a21.576 21.576 0 012.413-3.209A7.466 7.466 0 0139.484.699a7.583 7.583 0 013.207-.68c3.936-.03 7.873-.03 11.814 0a7.678 7.678 0 013.47.776 7.548 7.548 0 012.727 2.25c1.026 1.304 1.972 2.668 2.909 4.04 2.092 3.05 4.942 4.741 8.715 4.905a18.32 18.32 0 013.64.416c4.649 1.166 7.778 5.042 8.046 9.806 0 .19.027.381.027.572-.029 4.263-.042 8.523-.039 12.779zM41.824 73.996H11.802C4.536 73.996.066 69.632.047 62.51c-.028-9.471 0-18.942 0-28.41 0-.445-.136-1.01.085-1.307.441-.594 1.135-1.494 1.638-1.444.397.086.768.262 1.083.515.315.253.565.575.73.94.317.916.108 2.01.108 3.027V62.51c0 4.985 2.824 7.81 7.917 7.813 20.273.023 40.543.023 60.81 0 5.094 0 7.899-2.828 7.926-7.81 0-1.203-.186-2.458.089-3.6.162-.675 1.034-1.594 1.634-1.632.6-.038 1.767.884 1.786 1.414.093 2.462.228 5.008-.31 7.379-1.096 4.81-5.376 7.878-10.543 7.9-10.388.046-20.784.023-31.176.023z"/><path d="M14.444 25.444c-1.337.054-2.634-1.143-2.553-2.39.085-1.39.918-2.225 2.324-2.362a2.451 2.451 0 011.764.666 2.345 2.345 0 01.738 1.712c-.085 1.38-.925 2.172-2.273 2.374zm34.189 8.827a6.133 6.133 0 013.338 1.046 5.988 5.988 0 012.193 2.687 5.88 5.88 0 01.318 3.433 5.94 5.94 0 01-1.664 3.033 6.097 6.097 0 01-3.09 1.622 6.157 6.157 0 01-3.487-.33 6.047 6.047 0 01-2.72-2.172 5.902 5.902 0 01-1.046-3.29 5.93 5.93 0 01.465-2.316 6.008 6.008 0 011.336-1.962 6.12 6.12 0 012-1.305c.748-.3 1.55-.452 2.357-.446zm-.21 8.347a2.584 2.584 0 001.687-.725 2.505 2.505 0 00.758-1.65 2.48 2.48 0 00-.776-1.681 2.559 2.559 0 00-1.738-.697c-1.313.054-2.467 1.288-2.293 2.558.178 1.383 1.073 2.084 2.355 2.195h.008z"/></g><defs><clipPath id="clip0_3384:4608"><path fill="#fff" d="M0 0h84v74H0z"/></clipPath></defs></svg>