<svg width="68" height="68" fill="none" xmlns="http://www.w3.org/2000/svg"><g clip-path="url(#clip0_3385:4616)" fill="#F8E4AE"><path d="M24.555 53.828c-3.535 3.642-6.863 7.085-10.213 10.509-.712.726-1.403 1.81-2.618.821-.786-.646-.545-1.366.801-2.748 3.313-3.398 6.62-6.803 9.786-10.06l-6.348-6.473c-2.118 2.114-4.451 4.437-6.769 6.753-.34.342-.652.824-1.063.954-.469.146-1.262.17-1.503-.114-.307-.36-.325-1.106-.225-1.638.068-.37.523-.675.84-.986 2.357-2.347 4.727-4.692 7.236-7.178-1.813-1.108-1.464-2.565-1.231-4.032.262-1.704.393-3.432.694-5.128.141-.816-.115-1.308-.658-1.861-2.982-2.985-5.936-6-8.903-9.012-1.34-1.364-1.336-1.762.031-3.155 2.404-2.446 4.81-4.889 7.22-7.33 4.26-4.308 9.297-5.667 15.129-4.175a2.182 2.182 0 001.6-.4c8.38-6.1 17.71-9.037 28.004-8.53 2.77.133 5.512.798 8.27 1.2 1.016.145 1.45.725 1.676 1.722 2.996 13.291.555 25.464-7.154 36.573a2.478 2.478 0 00-.43 2.278c1.286 5.168.296 9.894-3.229 13.858-2.713 3.054-5.68 5.88-8.56 8.772-.933.939-1.48.873-2.548-.207-3.03-3.062-6.063-6.114-9.059-9.219a1.832 1.832 0 00-.828-.578 1.808 1.808 0 00-1.005-.047c-1.801.317-3.626.5-5.439.777-1.296.215-2.548.358-3.504-1.346zm40.56-40.51c-.344-2.76-.703-5.521-1.022-8.286-.113-.978-.61-1.393-1.55-1.56-3.928-.71-7.856-1.114-11.845-.612-16.78 2.127-28.468 11.056-34.97 26.94-.356.87-.228 1.406.435 2.073a3264.203 3264.203 0 0119.886 20.204c.752.77 1.338.797 2.268.457 15.806-6.04 26.617-21.929 26.797-39.216zm-51.77 15.365a45.186 45.186 0 0111.684-17.337c-4.113-.697-7.573.111-10.474 2.738-2.305 2.09-4.405 4.407-6.636 6.585-.461.449-1.092.72-1.485.973l6.91 7.041zm32.21 32.743c2.802-2.674 5.761-5.36 8.53-8.214.848-.87 1.337-2.164 1.8-3.342.82-2.081.907-4.253.443-6.739a44.242 44.242 0 01-17.087 11.891l6.314 6.404zm-13.803-9.472L16.34 36.307c-.198 1.439-.45 2.994-.6 4.56-.03.308.263.72.525.978 3.346 3.424 6.705 6.834 10.076 10.229.228.231.584.532.849.5 1.587-.173 3.158-.425 4.57-.625l-.008.005z"/><path d="M2.084 68C.937 68.042.251 67.03.67 66.166c.17-.31.386-.588.642-.827 3.165-3.23 6.338-6.452 9.519-9.668.896-.907 1.959-1.035 2.289-.208.204.516.091 1.476-.262 1.861-3.268 3.437-6.62 6.792-9.951 10.155a3.68 3.68 0 01-.823.52zm3.185-11.484c-.485.324-.94.853-1.456.922-.81.112-1.412-.505-1.197-1.307.126-.479.786-1.085 1.26-1.117.474-.032.935.6 1.406.944l-.013.558zm31.267-32.522c-.963-.877-1.82-1.568-2.571-2.36-.93-.984-.665-2.074.618-2.43 5.586-1.553 11.18-3.073 16.778-4.562 1.31-.343 2.077.473 1.733 1.805a1709.01 1709.01 0 01-4.496 17.021c-.348 1.287-1.435 1.526-2.41.566-.785-.76-1.452-1.624-2.248-2.527l-8.8 8.947c-1.335 1.356-2.094 1.595-2.694.798-.93-1.23.113-1.925.833-2.658 2.95-3.013 5.908-6.02 8.874-9.02 1.48-1.505 1.85-1.52 3.284-.021.328.342.524.818.786 1.233l.448-.284c1.105-4.169 2.207-8.337 3.378-12.76l-12.536 3.402-.262.418c.569.454 1.17.872 1.695 1.374.725.691.764 1.462.041 2.201-1.906 1.95-3.818 3.891-5.735 5.825-.591.598-1.283.858-1.956.204s-.523-1.438.12-2.09c1.622-1.62 3.274-3.25 5.12-5.082zm-9.05 12.159c-.34-.508-.964-1.034-.935-1.523.024-.439.707-1.085 1.197-1.196a1.016 1.016 0 01.976.266 1.05 1.05 0 01.283.986c-.078.518-.615.965-.948 1.443l-.573.024z"/></g><defs><clipPath id="clip0_3385:4616"><path fill="#fff" transform="translate(.55)" d="M0 0h67v68H0z"/></clipPath></defs></svg>