<svg width="74" height="79" fill="none" xmlns="http://www.w3.org/2000/svg"><g clip-path="url(#clip0_3385:4623)" fill="#F8E4AE"><path d="M32.8 49.708v-2.02c0-6.307.015-12.614 0-18.924 0-3.107-1.937-5.04-5.037-5.049-6.681-.018-13.36-.018-20.038 0-3.216 0-5.092 1.868-5.177 5.086-.019.71.106 1.457-.077 2.121-.112.41-.682.965-1.041.962a1.456 1.456 0 01-1.069-.946c-.767-6.047 2.436-9.601 7.714-9.546 7.172.076 14.347.018 21.674.018 0-3.787-.037-7.59.021-11.395a11.997 11.997 0 01.466-3.444 8.368 8.368 0 012.986-4.125A8.297 8.297 0 0138.035.83c5.21-.055 10.421 0 15.635-.02.828 0 1.59.107 1.596 1.154.006 1.047-.81 1.142-1.608 1.142h-14.42c-4.857 0-7.257 2.45-7.263 7.326 0 3.674-.03 7.327.03 10.988.021.63.268 1.23.695 1.69a7.518 7.518 0 012.363 5.734c-.025 3.674.06 7.327-.04 10.986-.036 1.307.49 1.892 1.63 2.081.747.122 1.502.182 2.259.181h12.297c1.782 0 2.004.242 2.022 2.027v3.594c1.81-1.39 3.423-2.48 4.855-3.775 1.608-1.454 3.35-2.088 5.512-1.87 4.747.471 7.491-2.955 7.412-7.33-.143-8.086-.037-16.174-.043-24.263 0-4.984-2.387-7.37-7.36-7.384-.807 0-1.639.073-2.415-.098-.363-.083-.914-.698-.856-1.008.055-.422.57-1.105.914-1.117 2.36-.08 4.772-.395 7.004.725 3.124 1.565 4.91 4.094 4.933 7.618.064 8.903.052 17.803 0 26.706-.024 4.644-3.62 8.533-8.222 8.41-2.88-.077-5.019.863-7.068 2.66-1.483 1.302-3.094 2.45-4.7 3.613-.398.285-1.153.557-1.452.368-.402-.251-.691-.953-.722-1.476-.088-1.614-.03-3.236-.03-5.205H35.136v5.416h4.507c1.77 0 3.542-.03 5.311 0 3.35.08 5.466 2.232 5.51 5.588.02 1.68.081 3.367-.047 5.033-.036.493-.59 1.255-1.017 1.34-.862.172-1.175-.532-1.17-1.365.02-1.628.028-3.254 0-4.883-.042-2.238-1.162-3.368-3.404-3.368-4.706-.018-9.412-.018-14.118 0-2.132 0-3.283 1.152-3.298 3.313-.033 4.73-.033 9.46 0 14.194.015 2.121 1.218 3.257 3.35 3.278 2.131.022 4.351 0 6.526 0 2.226 0 2.275.046 2.543 2.373.342-.177.669-.382.977-.612 1.319-1.173 2.69-1.972 4.608-1.837 1.54.12 2.658-1.206 2.802-2.841.063-.708-.095-1.455.085-2.122.11-.42.645-.986 1.014-1.001.369-.015 1.038.536 1.09.918.61 4.437-1.38 7.348-5.567 7.468a3.882 3.882 0 00-1.897.713c-1.136.762-2.15 1.702-3.286 2.45-.438.305-1.218.547-1.577.345-.36-.202-.564-.97-.667-1.53-.104-.56-.025-1.198-.025-2.024-1.964 0-3.819-.101-5.664.018-4.17.272-6.825-2.214-6.6-6.54.196-3.747.04-7.513.04-11.658-1.812 1.4-3.35 2.667-4.985 3.809-.557.388-1.328.471-2.004.691-.198-.636-.502-1.267-.566-1.92-.098-.997-.024-2.014-.024-3.241-2.132 0-4.124.024-6.128 0-1.867-.03-3.764.07-5.591-.23-3.28-.54-5.515-3.317-5.558-6.662-.048-3.714 0-7.427-.024-11.141 0-.848.13-1.61 1.148-1.601 1.017.009 1.108.826 1.105 1.644v10.225c.016 3.644 1.791 5.41 5.427 5.42h9.563c2.162 0 2.28.131 2.29 2.366v1.963c2.168-2.186 4.845-3.007 5.987-5.722.82-1.948 2.591-2.756 4.662-2.87.713-.002 1.416.025 2.336.025z"/><path d="M56.127 18.82c1.873 0 3.539-.018 5.202 0 2.046.028 3.234 1.136 3.264 3.184.053 3.507.053 7.011 0 10.514-.027 1.98-1.187 3.123-3.14 3.144-3.636.034-7.275 0-10.914 0-.15.016-.303.007-.45-.027-3.201-1.2-6.49-.16-9.727-.398-1.7-.126-2.001-.337-2.004-2.091-.012-4.015-.012-8.029 0-12.042 0-1.794.234-2.048 2-2.017 2.01.034 4.017.159 6.027.196.324-.04.621-.2.832-.45 1.958-2.226 4.263-4.216 4.303-7.611 0-.659 1.066-1.553 1.827-1.883 1.032-.447 1.964.186 2.5 1.178a8.921 8.921 0 01.758 6.641c-.121.487-.277.964-.478 1.662zm-2.01-6.533c-.913 1.727-1.711 3.674-2.883 5.4-1.307 1.911-3.527 3.368-4.264 5.432-.737 2.063-.046 4.632-.225 6.956-.128 1.675.66 2.45 2.01 2.905a6.809 6.809 0 002.064.426c3.39.046 6.78 0 10.169.037.99 0 1.328-.377 1.315-1.36-.04-3.202-.04-6.407 0-9.613 0-.98-.304-1.384-1.303-1.363-1.669.034-3.35-.015-5.01-.024-3.188-.018-3.307-.187-2.058-3.187.825-1.993 1.093-3.956.185-5.609zm-13.32 9.09v11.42h3.557v-11.42h-3.557zM22.02 35.521h2.667c.801 0 1.757 0 1.72 1.167-.033 1.026-.858 1.099-1.665 1.09h-3.116l-.462 2.774c1.312 0 2.482-.126 3.602.049.61.095 1.496.64 1.587 1.114.186.958-.695 1.182-1.523 1.182h-4.035c-.237 1.32-.356 2.587-.73 3.769-.162.52-.85.875-1.298 1.304-.29-.557-.807-1.112-.816-1.675-.018-1.05.259-2.103.432-3.282H15.7c-.192 1.176-.374 2.37-.59 3.555-.147.793-.418 1.57-1.435 1.371-1.017-.199-.971-1.02-.84-1.815.164-.998.34-1.997.554-3.23-1.075 0-2.092.14-3.045-.055-.536-.11-.966-.766-1.44-1.176.465-.37.913-.98 1.409-1.06 1.081-.162 2.205-.048 3.417-.048.158-.934.304-1.764.472-2.777h-3.295c-.868 0-1.943.11-1.964-1.087-.025-1.335 1.133-1.157 2.028-1.167h3.578c.229-1.282.454-2.47.643-3.674.128-.82.365-1.58 1.376-1.426 1.011.153 1.045.918.886 1.754-.192 1.038-.304 2.088-.487 3.242h2.656c.21-1.17.435-2.345.633-3.53.131-.793.305-1.6 1.33-1.472 1.18.15.997 1.084.896 1.892-.119 1.007-.283 1.993-.463 3.211zm-2.8 2.388c-2.892-.324-2.956-.269-2.96 2.541h2.562c.137-.863.262-1.656.399-2.54zm25.134 24.447c-.018 1.323-1.102 2.936-2.799 4.106-4.087 2.826-3.368 2.804-7.437.027-1.748-1.194-2.859-2.853-2.829-5.094.046-3.252 2.878-5.116 5.887-3.891a2.01 2.01 0 001.343-.028c2.966-1.172 5.841.8 5.835 4.88zm-2.287-1.34c-.222-.282-.582-1.143-1.19-1.39-.503-.203-1.505.116-1.92.553-.937.99-1.522.796-2.347-.104a2.03 2.03 0 00-1.69-.56c-.503.14-1.048.805-1.219 1.353-.536 1.767 2.345 5.29 4.163 5.22 1.477-.058 4.209-3.028 4.203-5.073z"/></g><defs><clipPath id="clip0_3385:4623"><path fill="#fff" transform="translate(.242 .785)" d="M0 0h73v78H0z"/></clipPath></defs></svg>