<svg width="95" height="126" viewBox="0 0 95 126" fill="none" xmlns="http://www.w3.org/2000/svg">
<path d="M35.0895 0.000107501C20.7759 0.000107501 9.1335 11.6436 9.1335 25.9561V40.923C4.06151 41.2187 0 45.3922 0 50.5345V93.5946C0 98.9299 4.35808 103.289 9.69442 103.289H25.7515C24.7996 99.9825 24.2733 96.4755 24.2733 92.8429C24.2733 72.2023 41.0569 55.4189 61.6972 55.4189C64.6033 55.4189 67.434 55.7449 70.1641 56.396V50.5344C70.1641 45.3867 66.1184 41.2112 61.0432 40.9208V25.956C61.0432 11.6456 49.3999 0.000107501 35.0895 0.000107501ZM14.1438 25.9561C14.1438 14.4061 23.5395 5.00929 35.0906 5.00929C46.6385 5.00929 56.0342 14.405 56.0342 25.9561V40.8632H14.1443L14.1438 25.9561Z" fill="url(#paint0_linear_2815_115)"/>
<path d="M29.2842 92.8439C29.2842 110.704 43.8128 125.257 61.6973 125.257C79.5577 125.257 94.1105 110.703 94.1105 92.8439C94.1105 74.9583 79.5566 60.4308 61.6973 60.4308C43.8117 60.4308 29.2842 74.9594 29.2842 92.8439ZM64.1933 75.1293V75.3652C68.585 76.487 71.8539 80.4425 71.8539 85.1772C71.8539 86.56 70.7321 87.6818 69.3493 87.6818C67.9665 87.6818 66.8447 86.56 66.8447 85.1772C66.8447 82.336 64.533 80.0244 61.6898 80.0244C58.8487 80.0244 56.5371 82.334 56.5371 85.1772C56.5371 87.5843 58.4955 89.3509 62.3586 90.4201C68.3952 92.0986 71.855 95.7712 71.855 100.495C71.855 105.232 68.586 109.187 64.1944 110.312V110.545C64.1944 111.928 63.0726 113.05 61.6898 113.05C60.307 113.05 59.1852 111.928 59.1852 110.545V110.312C54.7966 109.187 51.5279 105.232 51.5279 100.498C51.5279 99.1155 52.6496 97.9937 54.0325 97.9937C55.4153 97.9937 56.5371 99.1155 56.5371 100.498C56.5371 103.339 58.8467 105.651 61.6869 105.653H61.6921H61.6974C64.5385 105.651 66.8501 103.338 66.8501 100.498C66.8501 97.4999 63.6807 95.9924 61.0232 95.25C54.9037 93.5537 51.5322 89.9767 51.5322 85.1772C51.5322 80.4425 54.8011 76.487 59.1895 75.3652V75.1293C59.1895 73.7465 60.3113 72.6247 61.6941 72.6247C63.0769 72.6237 64.1933 73.7465 64.1933 75.1293Z" fill="url(#paint1_linear_2815_115)"/>
<defs>
<linearGradient id="paint0_linear_2815_115" x1="35.082" y1="0" x2="35.082" y2="258.223" gradientUnits="userSpaceOnUse">
<stop stop-color="#E4BC6D"/>
<stop offset="1" stop-color="#E4BC6D" stop-opacity="0.22"/>
</linearGradient>
<linearGradient id="paint1_linear_2815_115" x1="61.6973" y1="60.4308" x2="61.6973" y2="222.497" gradientUnits="userSpaceOnUse">
<stop stop-color="#E4BC6D"/>
<stop offset="1" stop-color="#E4BC6D" stop-opacity="0.22"/>
</linearGradient>
</defs>
</svg>
