<svg width="95" height="133" viewBox="0 0 95 133" fill="none" xmlns="http://www.w3.org/2000/svg">
<path d="M47.4994 61.75C34.9014 61.75 22.8195 66.7546 13.9129 75.6629C5.0046 84.5701 0 96.6519 0 109.249C0 110.509 0.50046 111.718 1.39107 112.608C2.28168 113.499 3.49041 113.999 4.75 113.999H14.25V90.2494C14.25 87.7303 15.2509 85.3138 17.0321 83.5316C18.8144 81.7503 21.2309 80.7494 23.75 80.7494H71.25C73.7692 80.7494 76.1856 81.7503 77.9678 83.5316C79.7491 85.3139 80.75 87.7303 80.75 90.2494V113.999H90.25C91.5096 113.999 92.7183 113.499 93.6089 112.608C94.4995 111.718 95 110.509 95 109.249C95 100.911 92.8052 92.72 88.6363 85.4994C84.4675 78.2789 78.4705 72.2822 71.25 68.1131C64.0294 63.9442 55.838 61.7495 47.5 61.7495L47.4994 61.75Z" fill="url(#paint0_linear_689_11075)"/>
<path d="M75.9994 28.5C75.9994 44.2396 63.239 57 47.4994 57C31.7598 57 18.9994 44.2396 18.9994 28.5C18.9994 12.7604 31.7598 0 47.4994 0C63.239 0 75.9994 12.7604 75.9994 28.5Z" fill="url(#paint1_linear_689_11075)"/>
<path fill-rule="evenodd" clip-rule="evenodd" d="M71.25 85.5H52.25V85.5678H42.75V85.5H23.75C22.4904 85.5 21.2817 86.0005 20.3911 86.8911C19.5005 87.7817 19 88.9904 19 90.25V128.25C19 129.51 19.5005 130.718 20.3911 131.609C21.2817 132.5 22.4904 133 23.75 133H71.25C72.5096 133 73.7183 132.5 74.6089 131.609C75.4995 130.718 76 129.51 76 128.25V90.25C76 88.9904 75.4995 87.7817 74.6089 86.8911C73.7183 86.0005 72.5096 85.5 71.25 85.5ZM55.5562 104.634C55.494 105.79 55.1171 106.908 54.4659 107.867C55.8939 108.359 57.1007 109.34 57.8715 110.635C58.6422 111.931 58.927 113.457 58.675 114.942C58.4231 116.427 57.6508 117.775 56.4956 118.745C55.3404 119.716 53.8772 120.247 52.3664 120.243H49.1675V121.837C49.1675 122.26 48.9989 122.666 48.699 122.965C48.399 123.264 47.9922 123.432 47.568 123.432C47.1438 123.432 46.7369 123.264 46.437 122.965C46.137 122.666 45.9685 122.26 45.9685 121.837V120.243H42.7695V121.837C42.7695 122.26 42.601 122.666 42.301 122.965C42.0011 123.264 41.5942 123.432 41.17 123.432C40.7458 123.432 40.339 123.264 40.039 122.965C39.739 122.666 39.5705 122.26 39.5705 121.837V120.243H37.971C37.5468 120.243 37.14 120.075 36.84 119.776C36.5401 119.477 36.3715 119.071 36.3715 118.648C36.3715 118.225 36.5401 117.82 36.84 117.521C37.14 117.222 37.5468 117.054 37.971 117.054H39.5705V101.107H37.971C37.5468 101.107 37.14 100.939 36.84 100.64C36.5401 100.341 36.3715 99.9354 36.3715 99.5125C36.3715 99.0896 36.5401 98.684 36.84 98.3849C37.14 98.0859 37.5468 97.9179 37.971 97.9179H39.5705V96.3232C39.5705 95.9003 39.739 95.4947 40.039 95.1956C40.339 94.8966 40.7458 94.7286 41.17 94.7286C41.5942 94.7286 42.0011 94.8966 42.301 95.1956C42.601 95.4947 42.7695 95.9003 42.7695 96.3232V97.9179H45.9685V96.3232C45.9685 95.9003 46.137 95.4947 46.437 95.1956C46.7369 94.8966 47.1438 94.7286 47.568 94.7286C47.9922 94.7286 48.399 94.8966 48.699 95.1956C48.9989 95.4947 49.1675 95.9003 49.1675 96.3232V97.9179C50.329 97.9172 51.4688 98.232 52.4645 98.8285C53.4601 99.425 54.274 100.281 54.8187 101.303C55.3634 102.326 55.6184 103.478 55.5562 104.634ZM49.1675 101.107H42.7695V107.486H49.1675C50.0159 107.486 50.8296 107.15 51.4295 106.552C52.0294 105.953 52.3664 105.142 52.3664 104.296C52.3664 103.451 52.0294 102.639 51.4295 102.041C50.8296 101.443 50.0159 101.107 49.1675 101.107ZM42.7695 110.675V117.054H52.3664C53.2149 117.054 54.0285 116.718 54.6285 116.119C55.2284 115.521 55.5654 114.71 55.5654 113.864C55.5654 113.018 55.2284 112.207 54.6285 111.609C54.0285 111.011 53.2149 110.675 52.3664 110.675H42.7695Z" fill="url(#paint2_linear_689_11075)"/>
<defs>
<linearGradient id="paint0_linear_689_11075" x1="47.5" y1="61.7495" x2="47.5" y2="192.374" gradientUnits="userSpaceOnUse">
<stop stop-color="#E4BC6D"/>
<stop offset="1" stop-color="#E4BC6D" stop-opacity="0.22"/>
</linearGradient>
<linearGradient id="paint1_linear_689_11075" x1="47.4994" y1="0" x2="47.4994" y2="142.5" gradientUnits="userSpaceOnUse">
<stop stop-color="#E4BC6D"/>
<stop offset="1" stop-color="#E4BC6D" stop-opacity="0.22"/>
</linearGradient>
<linearGradient id="paint2_linear_689_11075" x1="47.5" y1="85.5" x2="47.5" y2="204.25" gradientUnits="userSpaceOnUse">
<stop stop-color="#E4BC6D"/>
<stop offset="1" stop-color="#E4BC6D" stop-opacity="0.22"/>
</linearGradient>
</defs>
</svg>
