<svg width="76" height="129" viewBox="0 0 76 129" fill="none" xmlns="http://www.w3.org/2000/svg">
<path d="M75.1717 57.6311L20.4905 128.191C20.1093 128.674 19.5262 128.954 18.9101 128.951C18.5896 128.959 18.2726 128.883 17.9905 128.731C17.1307 128.289 16.7101 127.296 16.9905 126.371L31.7306 77.6506H2.48948C1.7368 77.6479 1.04841 77.2229 0.709119 76.5506C0.400182 75.9033 0.461802 75.1407 0.86983 74.5506L53.9098 1.77114C54.45 1.02471 55.4295 0.743456 56.2831 1.08988C57.1367 1.43541 57.6429 2.32023 57.5099 3.23185L50.4902 54.4113H73.5896C74.3548 54.4095 75.053 54.8443 75.3897 55.5318C75.7218 56.2166 75.637 57.03 75.17 57.6318L75.1717 57.6311Z" fill="url(#paint0_linear_689_11055)"/>
<defs>
<linearGradient id="paint0_linear_689_11055" x1="38.0522" y1="0.942871" x2="38.0522" y2="320.964" gradientUnits="userSpaceOnUse">
<stop stop-color="#E4BC6D"/>
<stop offset="1" stop-color="#E4BC6D" stop-opacity="0.22"/>
</linearGradient>
</defs>
</svg>
