<svg width="201" height="171" viewBox="0 0 201 171" fill="none" xmlns="http://www.w3.org/2000/svg">
<path d="M173.437 143.202C173.567 143.852 173.162 144.333 173.086 144.869C172.757 147.062 171.503 148.599 169.821 149.952C167.444 151.863 165.166 153.904 162.835 155.884C162.553 156.181 162.192 156.39 161.795 156.488C162.617 154.524 163.329 152.515 163.928 150.472C164.137 149.297 164.681 148.207 165.495 147.334C166.309 146.461 167.357 145.841 168.514 145.549C170.213 144.894 171.859 144.109 173.437 143.202Z" fill="black"/>
<path d="M161.191 148.966C160.732 150.097 160.281 151.336 159.731 152.521C159.18 153.705 158.584 154.676 157.995 155.746C157.661 156.359 157.404 157.012 157.231 157.688C157.154 158.127 156.961 158.537 156.67 158.875C156.379 159.213 156.002 159.466 155.58 159.607C154.25 160.05 152.942 160.57 151.62 161.044C151.436 161.113 151.207 161.258 151.024 161.082C150.84 160.906 151.024 160.685 151.024 160.486C151.964 157.329 152.919 154.172 153.86 151.015C153.897 150.826 153.99 150.652 154.126 150.516C154.262 150.38 154.435 150.287 154.624 150.25C156.642 149.769 158.653 149.249 160.625 148.599C160.931 148.507 161.229 148.385 161.191 148.966Z" fill="black"/>
<path d="M151.04 151.649C149.755 154.487 148.481 157.324 147.217 160.157C147.013 160.499 146.856 160.866 146.751 161.25C146.552 162.435 145.818 162.878 144.702 163.047C143.441 163.245 142.195 163.574 140.941 163.849C140.383 163.972 140.177 163.849 140.345 163.215C141.331 159.76 142.096 156.243 142.768 152.711C142.829 152.367 142.967 152.13 143.326 152.092C145.811 151.825 148.295 151.519 150.634 151.06C151.361 150.984 151.192 151.305 151.04 151.649Z" fill="black"/>
<path d="M136.018 152.589C137.547 152.497 138.671 152.444 139.841 152.36C140.46 152.36 140.75 152.36 140.429 153.124C139.183 156.182 138.006 159.24 136.806 162.297C136.696 162.515 136.617 162.747 136.569 162.985C136.5 164.407 135.659 164.812 134.367 164.851C133.075 164.889 131.569 165.095 130.171 165.195C129.1 165.263 129.108 165.241 129.345 164.247C130.201 160.562 131.065 156.885 131.898 153.193C131.904 153.096 131.931 153.001 131.976 152.915C132.021 152.829 132.084 152.754 132.161 152.694C132.237 152.634 132.326 152.591 132.42 152.567C132.514 152.544 132.613 152.541 132.708 152.559C133.909 152.589 135.132 152.589 136.018 152.589Z" fill="black"/>
<path d="M123.879 165.455C123.115 165.386 122.35 165.455 121.586 165.455V165.363H118.842C118.329 165.363 118.154 165.203 118.276 164.599C119.152 160.588 120.006 156.567 120.837 152.536C120.936 152.077 121.051 151.771 121.601 151.878C123.841 152.169 126.096 152.322 128.351 152.398C129.024 152.398 129.2 152.612 128.879 153.277C127.451 156.513 126.218 159.832 125.186 163.215C125.042 163.555 124.981 163.925 125.01 164.293C125.179 165.287 124.766 165.531 123.879 165.455Z" fill="black"/>
<path d="M118.276 151.519C118.926 151.618 119.002 151.771 118.75 152.368C117.06 156.259 115.638 160.249 114.347 164.285C114.079 165.134 113.582 164.973 113.016 164.942C110.471 164.667 107.925 164.369 105.372 163.956C104.784 163.857 104.654 163.589 104.791 163.093C105.013 162.328 105.219 161.503 105.487 160.731C106.481 157.879 107.191 154.936 108.369 152.146C108.459 151.919 108.533 151.687 108.59 151.45C108.973 149.921 108.965 149.921 110.586 150.227C113.162 150.686 115.715 151.122 118.276 151.519Z" fill="black"/>
<path d="M103.98 148.698C104.668 148.866 104.745 149.05 104.378 149.654C102.925 152.276 102.306 155.196 101.503 158.062C101.106 159.469 100.739 160.891 100.364 162.305C100.265 162.672 100.166 163.07 99.7529 162.924C97.0086 162.351 94.4019 161.716 91.8104 160.998C89.6471 160.394 89.6089 160.379 90.1822 158.231C91.1912 154.408 92.2767 150.64 93.2857 146.833C93.5151 145.969 93.8515 145.717 94.7535 146.03C97.7806 147.062 100.869 147.918 103.98 148.698Z" fill="black"/>
<path d="M88.9139 144.02C89.426 144.211 89.533 144.379 89.3649 144.945C88.0347 149.386 86.5365 153.782 85.3592 158.277C85.2981 158.514 85.3593 158.858 84.9389 158.858C84.7477 158.804 84.5719 158.766 84.396 158.705C81.3383 157.65 78.3723 156.526 75.4063 155.311C74.7795 155.051 74.5808 154.776 74.7719 154.088C75.9873 149.608 77.1646 145.121 78.3418 140.626C78.5176 139.969 78.7775 139.862 79.4272 140.137C82.5461 141.574 85.7185 142.843 88.9139 144.02Z" fill="black"/>
<path d="M74.8555 137.966C75.5741 138.302 75.62 138.592 75.2225 139.257C73.5636 142.208 72.6922 145.465 71.6067 148.637C71.2092 149.822 70.8423 151.014 70.4601 152.215C70.2919 152.78 70.0778 152.979 69.4892 152.666C66.5461 151.251 63.6413 149.768 60.79 148.171C60.4995 148.003 60.2396 147.888 60.3924 147.406C61.5773 143.584 62.6858 139.831 63.8783 136.039C64.1611 135.137 64.4287 134.227 64.7192 133.325C64.7956 133.088 64.8033 132.76 65.2084 132.76L65.7511 133.058C68.7248 134.808 71.7443 136.475 74.8555 137.966Z" fill="black"/>
<path d="M62.5482 131.109C63.1521 131.483 62.8846 131.873 62.6629 132.248C60.9964 135.306 59.5058 138.447 58.0763 141.62C57.5871 142.705 57.1743 143.821 56.7232 144.922C56.6239 145.159 56.6162 145.488 56.2034 145.465L55.7447 145.205C53.1151 143.584 50.5543 141.872 48.024 140.106C47.9173 140.058 47.8222 139.987 47.7452 139.899C47.6682 139.81 47.6111 139.706 47.5778 139.594C47.5444 139.482 47.5356 139.363 47.5519 139.247C47.5682 139.131 47.6093 139.02 47.6724 138.921C49.4994 134.335 51.4027 129.832 52.557 125.032C52.687 124.512 52.8323 124.412 53.268 124.741C56.2697 126.999 59.3631 129.121 62.5482 131.109Z" fill="black"/>
<path d="M50.4093 122.54C50.7303 122.792 50.9749 122.991 50.6921 123.503C48.3988 127.646 46.4189 131.911 44.2632 136.146C44.1333 136.399 44.1027 136.758 43.6899 136.827C43.5389 136.739 43.3934 136.642 43.2542 136.536C40.6551 134.498 38.1325 132.378 35.6863 130.176C35.2353 129.771 35.2735 129.481 35.5793 129.022C37.0414 126.877 38.2932 124.596 39.3173 122.211C39.6456 121.593 40.0658 121.029 40.5634 120.537C41.433 119.511 42.1796 118.388 42.7879 117.188C43.086 116.615 43.3154 116.47 43.8505 116.967C45.9603 118.954 48.1542 120.766 50.4093 122.54Z" fill="black"/>
<path d="M39.9905 113.603C39.9446 113.702 39.8911 113.848 39.83 113.985C37.9189 118.381 35.4115 122.47 33.1335 126.675C32.8125 127.271 32.5372 127.225 32.1168 126.782C30.672 125.253 29.2043 123.724 27.7442 122.195C27.5725 122.071 27.4532 121.887 27.4094 121.679C27.3656 121.471 27.4005 121.255 27.5073 121.071C29.3419 117.387 30.8402 113.549 32.736 109.895C33.1029 109.192 33.5004 108.519 33.8979 107.824C34.1349 107.388 34.3642 107.342 34.7235 107.724C36.367 109.49 38.0335 111.233 39.6847 112.984C39.7781 113.058 39.854 113.152 39.9068 113.259C39.9597 113.366 39.9882 113.484 39.9905 113.603Z" fill="black"/>
<path d="M31.1616 103.574C31.2966 103.715 31.38 103.897 31.398 104.092C31.4161 104.286 31.3677 104.481 31.261 104.644C29.1282 108.933 27.0337 113.236 24.9239 117.54C24.7939 117.8 24.771 118.136 24.4499 118.259C24.19 118.221 24.0753 118.022 23.9454 117.861C22.256 115.813 20.6431 113.695 19.1065 111.532C18.9766 111.385 18.9004 111.198 18.8907 111.002C18.881 110.806 18.9382 110.613 19.053 110.454C21.4457 106.433 23.846 102.435 26.4298 98.5363C26.7891 97.9936 26.9878 98.0777 27.3318 98.5363C28.5854 100.241 29.8697 101.908 31.1616 103.574Z" fill="black"/>
<path d="M24.2884 94.0335C24.3939 94.1416 24.476 94.2703 24.5293 94.4116C24.5826 94.5529 24.606 94.7038 24.5981 94.8546C24.5902 95.0055 24.5512 95.153 24.4834 95.288C24.4156 95.4229 24.3205 95.5424 24.2043 95.6388C23.544 96.3604 23.0045 97.1839 22.6066 98.0774C20.9555 101.456 19.2431 104.797 17.7296 108.237C17.6341 108.429 17.5269 108.616 17.4085 108.795C17.074 108.556 16.8099 108.231 16.644 107.854C15.0132 105.306 13.5124 102.682 12.1415 99.9808C12.0195 99.809 11.9466 99.6073 11.9304 99.3973C11.9143 99.1872 11.9555 98.9767 12.0498 98.7883C14.464 94.2251 16.6007 89.5204 18.4481 84.6998C18.5016 84.5699 18.5705 84.4399 18.6316 84.3023C19.0215 84.4246 19.0673 84.7686 19.1973 85.0285C20.7077 88.1319 22.4079 91.1393 24.2884 94.0335Z" fill="black"/>
<path d="M14.7185 73.8526C15.5286 76.4158 16.4676 78.9366 17.5317 81.4052C17.6157 81.5476 17.6601 81.7099 17.6601 81.8753C17.6601 82.0407 17.6157 82.203 17.5317 82.3454C15.2384 86.0529 13.4191 90.0509 11.0723 93.7432C10.7741 94.2095 10.6135 95.0427 10.0402 94.9968C9.46688 94.9509 9.49746 94.1254 9.27577 93.6285C8.61836 91.8779 8.00684 90.1197 7.38765 88.3692C7.29591 88.1093 7.23479 87.8417 7.22715 87.8188C7.17356 87.4333 7.24883 87.041 7.44121 86.7027C9.38327 82.2872 11.5572 77.9775 13.9541 73.7915C14.0611 73.5927 14.1147 73.2487 14.4281 73.3175C14.7416 73.3863 14.6574 73.6462 14.7185 73.8526Z" fill="black"/>
<path d="M11.775 52.5709C11.5638 57.5471 12.0007 62.5297 13.0746 67.3933C13.215 68.1632 13.0593 68.9577 12.6388 69.6178C10.4034 74.1968 8.42049 78.8949 6.69916 83.691C6.63036 83.8821 6.64567 84.1191 6.33225 84.249C5.95905 83.2947 5.70238 82.2988 5.56782 81.283C4.8945 78.3417 4.51806 75.3403 4.44412 72.3239C4.39834 68.7422 5.1449 65.1947 6.63039 61.9352C8.10575 58.694 9.68812 55.491 11.217 52.2728C11.3317 52.0435 11.3928 51.753 11.6756 51.6077C11.905 51.9211 11.7827 52.2575 11.775 52.5709Z" fill="black"/>
<path d="M140.429 113.71C140.681 114.23 140.605 114.475 140.039 114.597C138.532 114.989 136.999 115.275 135.453 115.453C132.571 115.79 129.75 116.409 126.906 116.982C126.547 117.051 126.188 117.097 125.821 117.158C125.278 117.257 125.179 116.791 125.01 116.462C124.07 114.513 123.229 112.51 122.197 110.614C117.611 102.137 113.254 93.4987 108.254 85.2428C108.139 85.0627 108.035 84.8765 107.941 84.6848C107.772 84.3561 107.75 84.1115 108.246 84.1115C111.138 83.985 114.016 83.6349 116.854 83.0642C117.993 82.8807 119.147 82.552 120.24 82.2997C120.811 82.1113 121.431 82.1415 121.98 82.3844C122.53 82.6274 122.97 83.0658 123.214 83.6146C124.858 86.527 126.471 89.4548 128.114 92.3749C131.371 98.1617 134.23 104.155 138.235 109.521C139.099 110.844 139.833 112.247 140.429 113.71Z" fill="black"/>
<path d="M151.528 65.4821C152.293 66.0555 152.354 66.4683 151.666 67.2021C151.129 67.745 150.519 68.2106 149.854 68.5857C146.062 70.7517 142.036 72.4778 137.853 73.7304C130.929 75.9354 123.861 77.662 116.701 78.898C108.109 80.4924 99.43 81.5772 90.7099 82.1468C83.1421 82.636 75.5666 82.9112 68.0293 81.7493C66.1143 81.5291 64.2419 81.0294 62.4718 80.2663C61.3023 79.7159 61.2411 79.3566 62.1814 78.4928C64.0067 76.9413 66.0721 75.6968 68.2968 74.8082C74.4123 72.0028 80.91 70.0535 87.4076 68.1424C89.1353 67.6302 90.8629 67.1333 92.5829 66.6135C92.7067 66.5459 92.8438 66.5063 92.9847 66.4976C93.1255 66.4888 93.2665 66.5111 93.3978 66.5629C93.529 66.6147 93.6474 66.6946 93.7444 66.7972C93.8413 66.8997 93.9145 67.0223 93.9588 67.1562C95.3348 69.7783 96.8178 72.3391 97.9644 75.0834C99.1111 77.8277 99.3328 77.9348 102.322 77.8583C107.297 77.7439 112.25 77.1551 117.113 76.1001C118.061 75.8861 118.994 75.6185 119.934 75.3357C121.004 75.0299 121.218 74.533 120.645 73.6081C118.818 70.6421 117.243 67.5385 115.539 64.5037C114.981 63.5023 114.988 63.5023 116.158 63.4029C120.515 63.036 124.88 62.906 128.649 62.7531C134.131 62.5694 139.619 62.825 145.061 63.5176C147.007 63.7335 148.911 64.2357 150.71 65.0082C150.996 65.1421 151.27 65.3007 151.528 65.4821Z" fill="black"/>
<path d="M128.489 42.3583C128.955 43.0233 128.489 43.2374 128 43.3521C126.372 43.719 124.743 44.1165 123.1 44.3764C119.354 45.0185 115.67 45.9053 111.985 46.8302C109.623 47.4188 107.253 47.9616 104.883 48.512C103.645 48.7948 103.607 49.1847 104.241 50.232C105.006 51.4398 105.617 52.724 106.236 53.993C107.428 56.1792 108.467 58.4447 109.348 60.7735C109.936 62.547 111.312 63.9153 112.184 65.5665C113.223 67.5311 114.278 69.4804 115.348 71.4297C115.624 71.9342 115.685 72.1941 114.943 72.2935C111.84 72.7445 108.751 73.2643 105.656 73.7689C104.631 73.9294 103.614 74.1052 102.475 74.2963C102.131 74.388 101.956 74.0899 101.757 73.7459C99.7541 70.2295 97.7359 66.7131 95.5879 63.2732C93.6844 60.2155 91.5364 57.3488 89.4724 54.421C88.9022 53.8314 88.5055 53.0962 88.3258 52.2959C88.2493 51.6309 87.5079 51.5315 86.9116 51.5697C84.859 51.639 82.8147 51.8638 80.7961 52.2424C78.5716 52.617 76.3395 52.9075 74.0997 53.1903C69.2073 53.8095 64.2462 53.8707 59.4303 55.0479C58.9334 55.1702 58.7193 55.0479 58.5205 54.6427C57.4061 52.2138 56.1634 49.8458 54.7978 47.5488C53.9875 46.1575 53.1083 44.8121 52.2751 43.4285C51.7782 42.6029 51.977 42.2666 52.9401 42.0984C55.8373 41.6091 58.7346 41.074 61.6318 40.5695C63.8181 40.1949 66.0197 39.8892 68.1983 39.4993C70.591 39.0636 72.9683 38.5208 75.3534 38.0851C78.3499 37.5424 81.3313 36.9614 84.3584 36.6327C87.3856 36.304 90.3974 35.8683 93.4169 35.4478L101.658 34.3317C103.829 34.0413 106.007 33.7355 108.186 33.4909C109.791 33.3074 111.404 33.2386 113.009 33.0552C115.585 32.7723 118.146 32.3672 120.738 32.2907C121.105 32.274 121.464 32.1719 121.785 31.9926C122.603 31.5186 122.924 31.9009 123.314 32.6271C124.934 35.9065 126.372 39.3235 128.489 42.3583Z" fill="black"/>
<path d="M186.119 95.2567C186.119 95.8606 186.31 96.0211 186.883 95.7765C187.694 95.4249 188.527 95.1267 189.353 94.8133C189.582 94.7216 189.88 94.6681 189.88 94.3776C189.88 93.6131 189.88 92.8487 189.765 92.0843C189.765 91.7632 189.46 91.8779 189.261 91.9238L187.38 92.3442C185.806 92.7111 185.958 92.306 186.073 94.0642C186.069 94.0946 186.069 94.1254 186.073 94.1559H186.111C186.127 94.5305 186.134 94.8974 186.119 95.2567ZM187.747 101.8C188.003 101.8 188.259 101.82 188.512 101.861C189.276 102.052 189.651 101.785 189.658 100.975C189.658 100.333 189.75 99.698 189.811 99.0635C189.872 98.4291 189.628 98.3603 189.108 98.5055C188.265 98.7639 187.4 98.9456 186.524 99.0483C186.442 99.0473 186.361 99.0625 186.285 99.0932C186.209 99.1238 186.14 99.1693 186.081 99.2269C186.023 99.2845 185.977 99.3531 185.945 99.4287C185.914 99.5044 185.897 99.5855 185.897 99.6675C185.576 101.731 185.561 101.724 187.61 101.8H187.747ZM173.888 128.555C173.124 128.013 172.359 127.424 171.641 126.835C171.582 126.776 171.513 126.729 171.436 126.697C171.359 126.664 171.277 126.648 171.193 126.648C171.11 126.648 171.028 126.664 170.951 126.697C170.874 126.729 170.805 126.776 170.746 126.835C169.73 127.6 168.698 128.273 167.689 128.991C167.49 129.129 167.207 129.305 167.474 129.557C168.323 130.321 169.21 131.086 170.081 131.85C170.081 131.85 170.196 131.85 170.288 131.85C170.417 131.793 170.542 131.726 170.662 131.651L173.919 129.274C174.255 129.106 174.293 128.892 173.888 128.601V128.555ZM174.125 126.338C176.495 127.294 176.495 127.294 178.199 125.436C178.236 125.39 178.277 125.346 178.322 125.307C178.666 125.001 178.62 124.771 178.222 124.542C177.404 124.068 176.609 123.556 175.807 123.013C175.547 122.853 175.318 122.784 175.042 123.013L172.321 125.597C173.001 125.941 173.567 126.155 174.125 126.384V126.338ZM148.899 31.847C148.899 32.3974 148.899 32.9401 148.899 33.4905H148.838C148.838 33.888 148.838 34.2549 148.731 34.6754C148.666 34.9119 148.683 35.1635 148.78 35.3886C148.878 35.6138 149.049 35.799 149.266 35.9138C149.77 36.2501 150.252 36.6247 150.733 36.9993C151.07 37.2668 151.307 37.3203 151.498 36.8234C151.765 35.952 152.048 35.0805 152.354 34.2244C152.42 34.1037 152.438 33.9623 152.404 33.8289C152.37 33.6954 152.287 33.58 152.171 33.5058L149.51 31.5641C149.082 31.3501 148.876 31.4495 148.868 31.8928L148.899 31.847ZM141.805 26.7941C141.369 27.0387 141.767 28.0325 141.736 28.6669C141.17 30.3411 142.072 31.1896 143.395 31.8393C143.806 32.0471 144.191 32.3037 144.541 32.6038C145.092 33.0471 145.306 32.8407 145.443 32.2445C146.208 29.2708 146.208 29.2632 143.578 27.6579C142.967 27.3368 142.34 26.5265 141.774 26.8399L141.805 26.7941ZM114.14 137.622C114.239 138.439 114.346 139.257 114.43 140.075C114.43 140.278 114.511 140.473 114.654 140.616C114.798 140.759 114.992 140.84 115.195 140.84C116.043 140.947 116.884 141.107 117.733 141.23C118.864 141.39 118.864 141.375 118.979 140.198C119.032 139.586 119.124 138.982 119.201 138.317C119.353 137.767 119.04 137.553 118.49 137.484C117.282 137.323 116.074 137.148 114.874 136.949C114.262 136.819 114.094 137.079 114.14 137.622ZM103.759 10.9168C103.163 10.7716 103.17 11.085 103.293 11.5207C103.545 12.3922 103.79 13.2713 104.011 14.158C104.032 14.3079 104.097 14.4482 104.198 14.5611C104.298 14.6741 104.43 14.7546 104.577 14.7925C105.288 14.9683 105.991 15.1518 106.694 15.3429C107.1 15.4499 107.337 15.3429 107.375 14.8995C107.451 14.1351 107.566 13.3324 107.681 12.4304C107.765 12.1399 107.612 11.8876 107.214 11.7883L103.759 10.9168ZM112.038 137.522C112.091 136.911 112.275 136.483 111.663 136.36C110.471 136.123 109.286 135.871 108.093 135.596C107.688 135.512 107.451 135.596 107.466 136.077C107.466 136.995 107.466 137.904 107.466 138.814C107.458 138.89 107.465 138.966 107.487 139.039C107.509 139.112 107.545 139.179 107.593 139.238C107.642 139.296 107.702 139.345 107.769 139.379C107.837 139.414 107.91 139.435 107.986 139.441C108.972 139.64 109.951 139.831 110.929 140.052C111.396 140.152 111.61 139.984 111.694 139.517C111.847 138.784 111.969 138.065 112.053 137.522H112.038ZM100.969 11.5589C101.168 10.6416 100.892 10.1447 99.868 10.0301C98.8702 9.89984 97.8801 9.71611 96.902 9.47968C95.6712 9.22742 95.6178 9.25797 95.9236 10.4887C96.1223 11.3067 95.9235 12.3463 96.5504 12.9043C97.1772 13.4624 98.2169 13.3553 99.0807 13.5235C100.831 13.8751 100.831 13.8675 100.931 12.094C100.938 11.9147 100.955 11.7361 100.984 11.5589H100.969ZM24.3344 72.4231C25.0417 72.1061 25.8005 71.9196 26.5742 71.8727C26.8341 71.8115 27.4686 72.2472 27.2163 71.4064C26.8571 70.2444 26.4519 69.0749 26.1232 67.9129C26.0314 67.6072 25.8862 67.3549 25.4964 67.3625C24.4887 67.369 23.4827 67.2794 22.4921 67.095C21.9035 66.988 21.7965 67.2402 21.957 67.76C22.4081 69.1589 22.8514 70.5502 23.2565 71.9644C23.4553 72.6142 23.7917 72.66 24.3497 72.4231H24.3344ZM196.446 96.5409C196.722 114.765 188.932 128.647 173.643 138.409C166.679 142.843 159.012 145.526 150.963 147.192C141.688 149.038 132.194 149.527 122.778 148.645C113.302 147.884 103.955 145.966 94.9451 142.934C73.6021 135.657 54.95 124.099 39.4549 107.64C31.4962 99.3554 25.1594 89.6531 20.7721 79.0354C17.4468 70.8178 15.5358 62.3096 15.9027 53.3963C16.5372 38.0389 23.1648 25.8768 35.5486 16.8182C42.9024 11.4672 51.2042 8.23364 60.0104 6.29198C66.5438 4.90442 73.2066 4.21765 79.8857 4.24331C94.4305 4.43726 108.825 7.21723 122.396 12.4533C141.507 19.6696 158.324 30.3793 172.39 45.2475C180.562 53.8856 187.235 63.548 191.699 74.6323C194.632 81.5764 196.247 89.0058 196.462 96.5409H196.446ZM188.756 88.3768C189.123 88.2698 189.375 88.1169 189.314 87.6735C189.123 86.7485 188.94 85.8159 188.756 84.891C188.695 84.5699 188.481 84.5164 188.206 84.6158C187.204 84.9674 185.913 85.0744 185.278 85.7624C184.644 86.4504 185.492 87.5283 185.515 88.4685C185.524 88.5279 185.537 88.5866 185.553 88.6443C185.614 89.1947 185.905 89.2712 186.387 89.103C187.166 88.8584 187.961 88.6291 188.756 88.3768ZM188.275 108.122C188.397 107.426 188.863 106.784 188.611 106.043C188.573 105.943 188.29 105.921 188.114 105.882C187.35 105.699 186.501 105.561 185.714 105.34C185.217 105.21 184.949 105.34 184.881 105.836C184.881 106.073 184.751 106.303 184.69 106.54C184.17 108.474 184.17 108.474 186.172 108.512C186.623 108.512 187.082 108.512 187.533 108.596C187.984 108.68 188.198 108.565 188.29 108.145L188.275 108.122ZM187.311 80.2738C187.487 80.1821 187.487 79.9604 187.426 79.7769C187.105 78.7984 186.776 77.8123 186.448 76.8338C186.318 76.4593 186.096 76.3828 185.744 76.5969C184.98 77.0785 184.216 77.5524 183.398 78.0111C183.246 78.0867 183.131 78.219 183.076 78.3794C183.022 78.5397 183.033 78.7151 183.107 78.8672C183.375 79.6775 183.635 80.4878 183.872 81.2981C183.948 81.5351 184.009 81.7874 184.361 81.7339C185.355 81.2752 186.341 80.8013 187.311 80.2967V80.2738ZM186.455 113.213C186.685 112.739 186.455 112.556 186.027 112.449C185.133 112.281 184.246 112.105 183.352 111.914C183.28 111.883 183.203 111.867 183.125 111.867C183.047 111.867 182.97 111.883 182.899 111.914C182.827 111.944 182.763 111.989 182.709 112.046C182.656 112.102 182.614 112.169 182.587 112.242C182.197 113.007 181.823 113.817 181.395 114.597C181.211 114.948 181.227 115.162 181.662 115.254C182.648 115.426 183.621 115.664 184.575 115.965C184.949 116.08 185.148 115.866 185.293 115.568C185.699 114.819 186.065 114.024 186.455 113.236V113.213ZM184.628 73.3175C184.919 73.1034 184.881 72.8817 184.743 72.5989C184.233 71.5287 183.724 70.4534 183.214 69.373C183.015 68.9373 182.832 68.8455 182.45 69.2278C180.103 71.521 180.095 71.4828 181.41 74.4641C181.479 74.6323 181.548 74.8005 181.624 74.9686C181.652 75.0422 181.701 75.1059 181.765 75.1521C181.829 75.1983 181.905 75.2248 181.983 75.2285C182.052 75.1903 182.136 75.1597 182.205 75.1139C183.023 74.5329 183.826 73.929 184.628 73.3404V73.3175ZM182.503 120.269C182.778 119.841 182.702 119.642 182.282 119.436C181.517 119.046 180.714 118.625 179.927 118.213L179.507 117.999C179.4 118.067 179.262 118.106 179.201 118.197C178.742 118.862 177.855 119.443 177.894 120.192C177.894 120.712 179.033 120.659 179.644 120.903C179.872 120.99 180.104 121.064 180.34 121.125C181.716 121.546 181.701 121.538 182.503 120.292V120.269ZM181.12 66.2617C181.219 66.1455 181.273 65.9978 181.273 65.8451C181.273 65.6924 181.219 65.5447 181.12 65.4285C180.355 64.1519 179.591 62.8677 178.826 61.6064C178.589 61.2089 178.375 61.0712 178.062 61.5452C177.542 62.2638 176.984 62.9517 176.411 63.6244C176.274 63.743 176.187 63.9089 176.167 64.0889C176.147 64.2689 176.196 64.4498 176.304 64.5953C177.068 65.8872 177.833 67.1867 178.551 68.4786C178.658 68.6443 178.775 68.8026 178.903 68.9525C179.03 68.8545 179.148 68.7444 179.254 68.6238C179.881 67.8518 180.485 67.0568 181.12 66.2847V66.2617ZM175.769 57.379C175.876 56.5382 174.729 55.7661 174.148 54.9481C174.08 54.8473 174.003 54.7526 173.919 54.6653C173.851 54.6188 173.779 54.5779 173.705 54.543C173.406 54.6729 173.422 54.9328 173.376 55.1622C173.237 56.1561 173.03 57.1394 172.757 58.1052C172.375 59.1907 173.147 59.7411 173.605 60.4368C173.766 60.6814 173.964 60.5744 174.102 60.345C174.668 59.3818 175.623 58.4416 175.746 57.402L175.769 57.379ZM171.618 52.5096C171.717 52.2726 171.793 52.0356 171.618 51.8216C170.481 50.5068 169.332 49.2021 168.17 47.9077C167.948 47.6554 167.742 47.6937 167.704 48.0759C167.587 49.3422 167.383 50.5989 167.092 51.8369C167.112 51.9998 167.161 52.1577 167.237 52.3032C168.132 53.3887 169.026 54.4665 169.944 55.5291C170.272 55.919 170.402 55.5291 170.502 55.3074C170.846 54.3977 171.213 53.4651 171.595 52.5325L171.618 52.5096ZM166.557 133.968C166.505 133.875 166.444 133.788 166.374 133.708C165.64 133.008 164.975 132.24 164.386 131.414C164.142 131.086 163.874 131.2 163.622 131.346C162.712 131.789 161.818 132.248 160.893 132.637C160.266 132.905 160.342 133.15 160.755 133.547C161.408 134.101 161.97 134.754 162.422 135.481C162.697 135.993 163.01 136.001 163.454 135.772C164.348 135.313 165.258 134.87 166.152 134.411C166.267 134.365 166.504 134.304 166.534 133.99L166.557 133.968ZM163.943 47.9001C165.349 44.8882 165.357 44.8959 162.934 42.6178L162.169 41.8534C161.841 41.54 161.596 41.4712 161.535 42.0445C161.405 43.1682 161.26 44.2843 161.13 45.408C161.096 45.5251 161.097 45.6494 161.132 45.7659C161.168 45.8825 161.236 45.9865 161.328 46.0654C161.993 46.7381 162.666 47.4032 163.331 48.0682C163.629 48.4581 163.759 48.2593 163.92 47.923L163.943 47.9001ZM158.982 39.8276C159.072 39.6352 159.088 39.4158 159.026 39.2123C158.964 39.0088 158.828 38.8357 158.645 38.7269C157.72 37.9624 156.811 37.198 155.893 36.4336C155.756 36.3189 155.603 36.2272 155.48 36.1431C155.144 36.189 155.144 36.4336 155.121 36.6323L154.8 39.7283C154.785 39.8724 154.807 40.018 154.863 40.1515C154.919 40.2851 155.008 40.4024 155.121 40.4927C155.886 41.1425 156.65 41.7999 157.415 42.4573C157.812 42.8013 158.018 42.7172 158.179 42.205C158.385 41.4635 158.653 40.6456 158.959 39.8506L158.982 39.8276ZM158.08 137.943C158.232 137.889 158.462 137.874 158.416 137.583C158.064 137.109 157.652 136.628 157.346 136.131C156.214 134.472 156.214 134.472 154.288 135.099C154.173 135.137 154.066 135.191 153.944 135.221C153.546 135.328 153.516 135.55 153.661 135.909C153.997 136.765 154.303 137.629 154.594 138.493C154.716 138.86 154.915 138.998 155.274 138.875C156.184 138.592 157.132 138.287 158.057 137.966L158.08 137.943ZM154.257 69.2583C156.207 66.7433 155.725 64.2284 152.981 62.6307C151.01 61.571 148.858 60.8891 146.636 60.6202C138.648 59.3207 130.583 59.5959 122.595 60.2151C119.881 60.4215 117.182 60.712 114.492 61.1095C114.048 61.1706 113.658 61.1859 113.391 60.7043C111.801 57.8835 109.951 55.2157 108.453 52.3414C107.467 50.438 107.474 50.4074 109.553 49.9793C112.871 49.299 116.189 48.6492 119.491 47.9842C124.162 47.0439 128.748 45.7673 133.388 44.6818C133.778 44.5901 134.153 44.5366 133.763 43.9938C131.638 41.1119 130.086 37.8784 128.152 34.8741C127.235 33.5736 126.536 32.1331 126.08 30.6086C125.767 29.3473 125.484 29.0797 124.047 29.118C123.818 29.118 123.42 29.1562 123.03 29.2173C118.444 29.9359 113.765 30.4863 109.118 30.8991C100.434 31.6635 91.8109 32.8025 83.2111 34.1403C73.411 35.6691 63.6492 37.3968 53.9562 39.4913C51.9763 39.9194 50.027 40.4927 48.0624 41.0202C47.4203 41.1807 47.2979 41.5247 47.6037 42.098C47.9095 42.6713 48.1847 43.3746 48.5516 43.9709C51.2959 48.481 54.1472 52.93 56.5781 57.6313C56.665 57.8396 56.828 58.007 57.034 58.0993C57.2399 58.1917 57.4733 58.202 57.6866 58.1282C59.0747 57.9151 60.473 57.7747 61.8757 57.7077C63.9473 57.616 66.0189 57.4096 68.0905 57.2873C71.0565 57.1268 73.9155 56.1942 76.8892 56.1177C79.3933 56.0494 81.8857 55.7501 84.3347 55.2233C85.8636 54.9099 87.1479 54.9023 87.7747 56.6681C87.9372 56.9972 88.1429 57.3031 88.3863 57.5778C89.6476 59.4201 90.7636 61.3464 91.8644 63.2881C92.0708 63.6474 92.2924 64.0143 91.6427 64.1825C89.9686 64.6182 88.3098 65.1304 86.6204 65.4973C81.7216 66.4558 76.874 67.66 72.0962 69.1054C68.248 70.2266 64.5647 71.8511 61.1419 73.9366C59.7938 74.731 58.656 75.8373 57.8242 77.1625C57.3022 78.002 57.0928 78.9986 57.2326 79.9772C57.3724 80.9558 57.8524 81.8538 58.5886 82.5136C59.5263 83.3947 60.642 84.0646 61.8604 84.4782C65.2468 85.7548 68.8091 86.1064 72.379 86.3281C82.7294 86.9702 93.0187 86.2058 103.277 84.8757C103.551 84.7984 103.844 84.827 104.098 84.9559C104.351 85.0849 104.547 85.3046 104.646 85.5713C105.586 87.49 106.549 89.3935 107.604 91.2587C112.068 99.1171 116.553 106.965 121.058 114.803C121.922 116.332 122.778 117.861 123.672 119.321C123.915 119.8 124.318 120.179 124.811 120.391C125.304 120.603 125.856 120.636 126.371 120.483C129.429 119.589 132.67 119.321 135.842 118.87C138.411 118.5 140.937 117.883 143.387 117.028C144.396 116.684 144.671 116.103 144.228 115.216C142.775 112.19 141.154 109.248 139.374 106.402C134.322 98.581 129.841 90.4059 125.966 81.9403C125.591 81.1376 125.782 80.9159 126.562 80.7477C129.872 79.9833 133.151 79.1348 136.393 78.141C141.063 76.7115 145.719 75.2362 149.977 72.7441C151.601 71.8686 153.042 70.6876 154.219 69.266L154.257 69.2583ZM150.581 140.129C150.833 140.052 151.016 139.907 150.94 139.594C150.672 138.749 150.52 137.872 150.489 136.987C150.489 136.314 150.175 136.223 149.625 136.353C148.371 136.62 147.118 136.88 145.856 137.117C145.344 137.216 145.145 137.385 145.436 137.881C145.94 138.814 146.2 140.106 146.965 140.618C147.729 141.13 148.998 140.396 150.022 140.221C150.197 140.208 150.371 140.185 150.542 140.152L150.581 140.129ZM141.461 141.658C142.913 141.451 142.906 141.451 142.424 140.129C142.256 139.737 142.128 139.33 142.042 138.913C141.912 137.988 141.461 137.606 140.689 137.881H140.36C138.426 138.004 138.426 138.004 138.747 139.854C139.083 142.002 139.083 142.002 141.423 141.673L141.461 141.658ZM138.495 25.2117C138.525 25.1414 138.541 25.0659 138.542 24.9894C138.543 24.9129 138.529 24.837 138.501 24.766C138.472 24.695 138.43 24.6302 138.377 24.5755C138.323 24.5209 138.259 24.4773 138.189 24.4473C137.386 24.0115 136.584 23.5682 135.789 23.1172C135.322 22.8573 135.108 23.0101 135.024 23.5147L134.795 26.2513C134.758 26.3682 134.766 26.4945 134.817 26.606C134.868 26.7174 134.958 26.8062 135.07 26.8552L137.226 28.0783C137.547 28.2541 137.707 28.1471 137.799 27.7802C137.998 26.9317 138.227 26.0755 138.457 25.227L138.495 25.2117ZM133.549 142.17C134.871 142.17 134.902 142.124 134.741 140.847C134.642 140.083 135.063 139.005 134.42 138.501C133.778 137.996 132.823 138.455 132.127 138.386H130.72C129.253 138.386 129.192 138.386 129.818 139.731C130.17 140.534 130.101 141.727 130.843 142.078C131.584 142.43 132.601 142.162 133.511 142.147L133.549 142.17ZM132.463 22.154C132.723 21.6647 132.586 21.4431 132.142 21.2367C130.04 20.2658 127.938 19.2797 125.836 18.3012L125.576 18.1866C125.163 18.133 125.247 18.4159 125.27 18.6529C125.354 19.6313 125.461 20.6022 125.53 21.573C125.535 21.742 125.59 21.9056 125.69 22.0421C125.79 22.1787 125.928 22.2817 126.088 22.3374C127.617 23.1019 129.146 23.8051 130.675 24.5619C131.095 24.7683 131.324 24.7225 131.5 24.2562C131.761 23.5381 132.071 22.8384 132.425 22.1616L132.463 22.154ZM124.819 141.918C126.516 142.086 126.516 142.086 126.47 140.427C126.409 138.233 126.409 138.233 124.452 138.088C122.495 137.943 122.396 137.935 122.763 140.014C123.015 141.757 123.015 141.757 124.766 141.925L124.819 141.918ZM122.159 17.3151C122.179 17.2408 122.185 17.1631 122.175 17.0867C122.165 17.0102 122.139 16.9366 122.1 16.8702C122.061 16.8039 122.008 16.7461 121.946 16.7004C121.884 16.6547 121.813 16.6219 121.738 16.6042C120.798 16.2525 119.866 15.8856 118.925 15.5416C118.719 15.4652 118.344 15.3199 118.367 15.6945C118.365 16.8464 118.491 17.9949 118.742 19.1192C118.742 19.2338 118.956 19.3409 119.086 19.3944C119.705 19.6543 120.324 19.8913 120.951 20.1588C121.287 20.2964 121.532 20.2582 121.624 19.8377C121.738 18.9663 121.922 18.1331 122.105 17.2845L122.159 17.3151ZM115.669 14.8383C115.686 14.7781 115.691 14.715 115.683 14.6528C115.676 14.5906 115.655 14.5306 115.624 14.4764C115.593 14.4222 115.551 14.3748 115.501 14.3372C115.45 14.2996 115.393 14.2724 115.333 14.2574L111.946 13.1719C111.61 13.0572 111.541 13.2101 111.533 13.5312C111.487 16.6653 111.617 16.8641 114.469 17.7203L114.637 17.7814C115.065 17.9496 115.264 17.7814 115.317 17.3457C115.432 16.5583 115.547 15.7557 115.669 14.8383ZM102.979 137.736C103.239 136.735 104.011 135.68 103.744 134.793C103.491 134.029 102.138 134.197 101.313 133.861L101.137 133.807C100.778 133.715 100.556 133.807 100.487 134.22C100.334 135.091 100.166 135.955 100.006 136.819C99.9779 136.882 99.9648 136.95 99.9675 137.018C99.9701 137.087 99.9883 137.154 100.021 137.214C100.053 137.275 100.099 137.327 100.155 137.367C100.21 137.407 100.274 137.434 100.342 137.446L102.452 138.05C102.507 138.072 102.567 138.082 102.627 138.078C102.687 138.074 102.745 138.056 102.797 138.025C102.849 137.995 102.893 137.953 102.926 137.903C102.959 137.853 102.98 137.796 102.987 137.736H102.979ZM98.1633 133.654C98.4462 133.142 98.2627 132.951 97.7964 132.798C96.3516 132.316 94.8992 131.85 93.462 131.33C92.9651 131.154 92.7435 131.33 92.5065 131.72C92.1469 132.357 91.7353 132.963 91.2758 133.532C90.733 134.166 91.0083 134.365 91.6275 134.571C93.0417 135.053 94.4482 135.565 95.8547 136.1C96.084 136.184 96.321 136.246 96.558 136.322C96.795 136.398 96.9708 136.146 97.0854 135.909C97.4371 135.129 97.7658 134.365 98.171 133.654H98.1633ZM92.1778 9.58669C92.3078 8.88341 91.9409 8.66938 91.3217 8.62352C90.5572 8.56236 89.747 8.46297 88.9596 8.36359C88.4169 8.30243 88.1952 8.47827 88.3863 9.02867C88.6233 9.7931 88.8602 10.5575 89.0437 11.322C89.0809 11.5463 89.1951 11.7507 89.3667 11.9C89.5383 12.0492 89.7566 12.1341 89.9839 12.1399C92.0938 12.4992 92.0861 12.5145 92.1702 10.4123C92.1485 10.1372 92.1536 9.86073 92.1855 9.58669H92.1778ZM88.7379 131.567C89.2959 129.786 89.2883 129.778 87.5759 129.068L85.512 128.204C85.1757 128.204 85.0839 128.448 84.9463 128.639C84.5718 129.159 84.1818 129.687 83.8072 130.168C83.1192 131.032 83.1117 131.032 84.1666 131.498C84.9769 131.85 85.7795 132.217 86.5974 132.546C88.3786 133.28 88.1493 133.57 88.7455 131.567H88.7379ZM85.0915 8.80697C85.1756 8.24894 84.9769 8.04254 84.4265 8.04254C82.6606 7.88201 80.8948 7.88201 79.1289 7.8285C78.3645 7.8285 78.1276 7.98137 78.441 8.74581C78.7544 9.51024 78.7467 10.7792 79.4424 11.3296C80.138 11.88 81.2082 11.4366 82.1102 11.5436L83.6391 11.643C84.9463 11.7424 84.9386 11.7424 84.9615 10.4734C84.9692 9.91574 85.0127 9.35912 85.0915 8.80697ZM81.5445 127.202C81.7739 126.721 81.728 126.438 81.1929 126.216C80.375 125.872 79.6182 125.452 78.8079 125.062C77.9976 124.672 77.2331 123.831 76.4457 124.045C75.6584 124.259 75.3909 125.383 74.8099 126.04C74.8099 126.086 74.7411 126.14 74.6953 126.186C74.3971 126.537 74.5271 126.774 74.9017 126.95L79.9393 129.534C80.0157 129.534 80.1075 129.595 80.1533 129.618C80.5355 129.694 80.589 129.412 80.6807 129.198C80.9865 128.548 81.2694 127.86 81.5599 127.202H81.5445ZM74.2671 11.5895C74.7564 11.5895 74.9704 11.406 74.9245 10.8633C74.8589 10.1007 74.8437 9.33461 74.8787 8.57C74.8787 7.99668 74.7029 7.80557 74.1143 7.85143C73.0517 7.94316 71.9891 8.01197 70.9266 8.07312C68.8626 8.18014 68.9619 8.13428 69.757 10.0301C70.3379 11.4137 71.0183 12.2087 72.5931 11.6812C73.1893 11.6583 73.732 11.6048 74.2824 11.5895H74.2671ZM72.0962 123.411C72.8606 121.882 72.8606 121.882 71.4158 121.026C69.069 119.65 69.069 119.65 67.3491 121.79C67.2864 121.855 67.2277 121.924 67.1733 121.997C67.1416 122.031 67.118 122.072 67.1041 122.116C67.0902 122.161 67.0864 122.208 67.093 122.254C67.0996 122.3 67.1164 122.344 67.1422 122.383C67.168 122.422 67.2021 122.454 67.242 122.478C68.4855 123.243 69.7367 124.007 70.9954 124.771C71.052 124.794 71.111 124.809 71.1712 124.817C71.3929 124.817 71.4923 124.672 71.5688 124.496L72.0962 123.411ZM65.7055 12.461C66.126 12.3922 66.1871 12.1781 66.0954 11.8188C65.889 10.9856 65.6902 10.16 65.5068 9.32678C65.4227 8.92163 65.2162 8.73817 64.8034 8.79932L61.2947 9.44144C60.8055 9.53317 60.7444 9.78544 60.9508 10.2059C61.2871 10.9244 61.5775 11.666 61.8451 12.4151C61.8712 12.5163 61.9179 12.6111 61.9821 12.6935C62.0463 12.776 62.1267 12.8444 62.2184 12.8946C62.3102 12.9447 62.4112 12.9755 62.5153 12.9851C62.6194 12.9947 62.7243 12.9828 62.8236 12.9502C63.7944 12.782 64.75 12.6138 65.7132 12.461H65.7055ZM65.7055 118.113C65.7546 118.055 65.7893 117.985 65.8068 117.911C65.8243 117.837 65.8241 117.759 65.8063 117.685C65.7885 117.61 65.7534 117.541 65.704 117.483C65.6547 117.425 65.5924 117.379 65.5221 117.349L62.6554 115.415C62.5298 115.34 62.3965 115.278 62.2579 115.231C62.1601 115.249 62.0666 115.285 61.9827 115.338C61.3253 115.919 60.6526 116.493 60.0104 117.097C59.697 117.395 60.0105 117.578 60.2168 117.731C61.3788 118.557 62.5561 119.367 63.7257 120.192C64.1002 120.46 64.3754 120.422 64.6047 120.001C64.9563 119.359 65.3157 118.725 65.7055 118.113ZM59.3149 113.45C59.3465 113.416 59.3706 113.376 59.3856 113.332C59.4006 113.288 59.4061 113.242 59.4017 113.195C59.3974 113.149 59.3834 113.104 59.3605 113.064C59.3376 113.024 59.3064 112.988 59.269 112.961L55.9513 110.377C55.8842 110.348 55.8152 110.322 55.7449 110.301C55.5385 110.301 55.4086 110.484 55.2633 110.629C54.82 111.088 54.3919 111.57 53.9179 111.998C53.444 112.426 53.5892 112.586 53.9179 112.869C54.4454 113.29 54.9576 113.718 55.4468 114.146C57.5184 115.851 57.6179 115.835 59.1467 113.595C59.2384 113.542 59.2843 113.496 59.3149 113.45ZM56.2571 14.6014C58.0153 14.0204 58.0229 14.0433 57.8395 12.2546C57.8395 11.8265 57.8395 11.3984 57.8395 10.9703C57.8395 10.5422 57.656 10.29 57.1744 10.4199C54.4337 11.1428 51.7424 12.0416 49.1173 13.1107C48.7198 13.2789 48.6204 13.4777 48.8421 13.8752C49.2549 14.5937 49.6065 15.3199 49.9964 16.0614C50.2486 16.5889 50.5392 16.6424 51.0819 16.436C52.7637 15.7557 54.5142 15.1747 56.2265 14.6014H56.2571ZM50.7608 110.064C51.1583 110.064 52.8095 107.992 52.6872 107.663C52.6688 107.604 52.6344 107.551 52.5878 107.511C51.8234 106.868 51.1736 105.791 50.2181 105.615C49.6066 105.5 49.1555 106.654 48.5516 107.144L48.4828 107.205C48.093 107.526 48.1924 107.809 48.5287 108.099C49.1709 108.665 49.7977 109.246 50.4322 109.819C50.5247 109.909 50.6244 109.99 50.7303 110.064H50.7608ZM47.6037 103.092C47.6954 102.488 46.7858 102.114 46.3806 101.563C46.3042 101.472 46.2125 101.387 46.1284 101.296C44.5154 99.5834 44.5307 99.5987 42.5585 100.99C42.0769 101.326 41.9546 101.579 42.4133 102.03C43.3917 102.993 44.332 103.994 45.2875 104.973C45.4508 105.122 45.6217 105.262 45.7997 105.393C45.9113 105.34 46.0143 105.27 46.1054 105.187C46.5718 104.491 47.4509 103.933 47.5732 103.092H47.6037ZM46.0748 18.7369C46.3195 18.607 46.5871 18.5 46.5336 18.0948C46.235 17.0904 45.995 16.0694 45.815 15.0371C45.7309 14.6014 45.4175 14.7619 45.1729 14.8919L41.5723 16.8565C41.1825 17.0705 41.152 17.2769 41.4654 17.6209C42.056 18.2751 42.6097 18.9616 43.1241 19.6772C43.4299 20.1129 43.6898 20.1129 44.095 19.8607C44.7524 19.4708 45.4251 19.1115 46.1054 18.7369H46.0748ZM41.8628 96.7091C41.5789 96.1548 41.174 95.6714 40.678 95.2949C40.2958 95.0426 40.0817 95.5778 39.7836 95.7459C39.6308 95.8447 39.4876 95.9572 39.3555 96.0823C37.949 97.1984 37.9719 97.1831 39.1338 98.5208C39.539 98.9871 39.8141 99.1171 40.2499 98.5667C40.6473 98.1093 41.0711 97.6754 41.5189 97.2671C41.6794 97.0837 41.8628 96.9613 41.8705 96.6709L41.8628 96.7091ZM40.1276 22.5591C40.1276 22.1616 40.0282 22.0699 39.9059 21.9858C39.059 21.4428 38.3009 20.7724 37.6584 19.9983C37.3909 19.639 37.1233 19.8377 36.894 19.9983C36.2977 20.4722 35.7015 20.9385 35.1206 21.4278C33.9051 22.4521 33.9051 22.4521 35.3346 23.0178C35.6327 23.0868 35.9187 23.2002 36.1831 23.3541C37.712 24.5161 38.7975 23.6828 39.883 22.6585C39.9575 22.6035 40.0438 22.5668 40.1352 22.5515L40.1276 22.5591ZM37.6967 92.2601C37.7717 92.2098 37.8347 92.1435 37.881 92.0659C37.9273 91.9884 37.9558 91.9016 37.9646 91.8116C37.9734 91.7217 37.9621 91.631 37.9317 91.546C37.9012 91.4609 37.8523 91.3837 37.7884 91.3199C36.9781 90.1732 36.1907 89.0266 35.3957 87.857C35.2734 87.6888 35.197 87.4671 34.8607 87.4824C34.0962 87.8799 33.3318 88.3156 32.4756 88.7131C32.0323 88.9348 31.9787 89.1794 32.2539 89.5693C33.2732 90.9759 34.2924 92.385 35.3117 93.7966C35.5945 94.1865 35.8391 94.2247 36.1755 93.7966C36.6647 93.2921 37.1769 92.757 37.6967 92.2601ZM34.7154 27.2298C35.0517 26.8552 34.8454 26.6412 34.5549 26.4195C33.8189 25.8757 33.1447 25.2527 32.5444 24.5619C32.2998 24.2867 32.0858 24.2027 31.78 24.5084C30.5518 25.7795 29.403 27.1249 28.34 28.537C28.1336 28.8198 28.1413 29.0415 28.5388 29.1332L31.9252 29.8518C32.0441 29.8812 32.169 29.8752 32.2844 29.8344C32.3999 29.7937 32.501 29.72 32.575 29.6225C33.3089 28.8198 34.0045 27.9866 34.7307 27.2222L34.7154 27.2298ZM31.8335 85.3802C33.3623 84.2641 33.3623 84.1112 32.2233 82.59C32.1597 82.4711 32.0534 82.3805 31.9258 82.3366C31.7983 82.2927 31.6587 82.2985 31.5353 82.3531L29.0204 83.1175C28.6229 83.2474 28.4623 83.4385 28.7223 83.8819C29.1733 84.6005 29.586 85.342 30.0218 86.0758C30.0612 86.1788 30.1358 86.2645 30.2324 86.3176C30.3289 86.3708 30.4412 86.3881 30.5493 86.3663C30.9391 86.0835 31.3901 85.7242 31.8488 85.3802H31.8335ZM28.0572 80.0292C30.5569 78.829 30.5569 78.829 29.1656 76.3905C29.0433 76.1764 28.9592 75.9318 28.6382 76.0465C27.782 76.2605 26.9259 76.4975 26.062 76.6733C25.3511 76.8186 25.2441 77.132 25.5804 77.7435C25.9168 78.3551 26.1308 78.9054 26.406 79.4788C26.9487 80.5719 26.9947 80.5719 28.0725 80.0368L28.0572 80.0292ZM29.2803 34.4384C29.5325 34.018 29.4561 33.8039 29.0357 33.5899C28.1948 33.1541 27.3692 32.7031 26.5665 32.2139C26.1843 31.9769 25.9626 32.0381 25.8021 32.4127L24.105 35.6386C23.9522 35.9214 23.914 36.166 24.3115 36.2501L27.4151 36.854C27.9196 36.9763 28.0725 36.7164 28.2254 36.4336C28.5617 35.7762 28.9057 35.0958 29.2879 34.4461L29.2803 34.4384ZM25.9168 42.0827C25.9664 41.9891 25.9937 41.8853 25.9966 41.7795C25.9995 41.6736 25.9779 41.5684 25.9335 41.4723C25.8892 41.3761 25.8231 41.2915 25.7407 41.225C25.6582 41.1585 25.5615 41.112 25.4581 41.089C24.6478 40.745 23.8452 40.3781 23.0731 39.9576C22.6068 39.7053 22.3622 39.7359 22.2169 40.271C21.8653 41.5553 21.4983 42.8472 21.139 44.1314C21.1064 44.2017 21.0916 44.279 21.0957 44.3564C21.0999 44.4338 21.123 44.5089 21.163 44.5753C21.203 44.6417 21.2587 44.6973 21.3251 44.7372C21.3916 44.7771 21.4668 44.8001 21.5442 44.8041L24.5026 45.3469C24.9536 45.4539 25.0835 45.1634 25.1753 44.8118C25.4658 43.9097 25.6492 42.9924 25.9321 42.098L25.9168 42.0827ZM24.3115 63.8003C24.9459 63.8003 25.0759 63.5633 24.9765 62.967C24.8083 62.1032 24.6861 61.2318 24.5561 60.3603C24.5432 60.1682 24.4635 59.9867 24.3309 59.8471C24.1983 59.7075 24.0211 59.6186 23.8299 59.5959C22.9379 59.3879 22.0576 59.1328 21.1926 58.8315C20.5123 58.6021 20.237 58.7321 20.3746 59.4965C20.5122 60.2609 20.6116 61.1859 20.7492 62.0268C21.1314 64.3201 20.8257 63.9073 22.7979 63.8538C23.4706 63.8461 23.9369 63.7926 24.3268 63.8156L24.3115 63.8003ZM24.2427 50.8049C24.2427 50.438 24.2426 50.1399 23.8069 50.0405C22.8244 49.7091 21.8729 49.2922 20.9632 48.7945C20.5275 48.5651 20.3517 48.7104 20.3211 49.169C20.2676 49.9335 20.1912 50.7514 20.13 51.5388H20.1147C20.1147 52.2115 20.1147 52.8765 20.1147 53.5492C20.0961 53.6469 20.0984 53.7473 20.1214 53.844C20.1445 53.9407 20.1879 54.0314 20.2485 54.1102C20.3092 54.1889 20.3859 54.2539 20.4735 54.3008C20.5611 54.3477 20.6577 54.3756 20.7568 54.3825C21.6512 54.5659 22.5456 54.7417 23.44 54.9405C23.9904 55.0628 24.2044 54.8946 24.2044 54.306C24.1739 53.1517 24.2198 51.9974 24.258 50.8431L24.2427 50.8049Z" fill="black"/>
<path d="M187.641 101.808C185.592 101.732 185.608 101.739 185.929 99.6755C185.929 99.5935 185.945 99.5123 185.976 99.4367C186.008 99.3611 186.054 99.2925 186.113 99.2349C186.171 99.1773 186.24 99.1318 186.316 99.1012C186.392 99.0705 186.473 99.0552 186.555 99.0562C187.431 98.9535 188.296 98.7719 189.139 98.5135C189.659 98.3683 189.904 98.5135 189.842 99.0715C189.781 99.6296 189.697 100.34 189.69 100.983C189.69 101.793 189.323 102.06 188.543 101.869C188.29 101.828 188.035 101.808 187.778 101.808H187.641Z" fill="url(#paint0_linear_689_15940)"/>
<path d="M189.314 87.6966C189.375 88.14 189.123 88.2929 188.756 88.3999C187.992 88.6292 187.166 88.8586 186.387 89.1643C185.905 89.3325 185.622 89.2561 185.553 88.7057C185.537 88.6479 185.524 88.5892 185.515 88.5299C185.515 87.5896 184.705 86.4124 185.278 85.8238C185.851 85.2351 187.205 85.0593 188.206 84.6771C188.481 84.5777 188.695 84.6312 188.756 84.9523C188.94 85.839 189.123 86.7716 189.314 87.6966Z" fill="url(#paint1_linear_689_15940)"/>
<path d="M186.172 108.535C184.169 108.535 184.169 108.535 184.689 106.563C184.75 106.326 184.842 106.096 184.88 105.859C184.964 105.347 185.217 105.233 185.714 105.363C186.478 105.584 187.311 105.722 188.114 105.905C188.29 105.943 188.573 105.966 188.611 106.066C188.863 106.83 188.397 107.449 188.274 108.145C188.198 108.565 187.915 108.657 187.51 108.619C187.105 108.581 186.623 108.566 186.172 108.535Z" fill="url(#paint2_linear_689_15940)"/>
<path d="M187.427 79.7998C187.488 79.9833 187.488 80.205 187.312 80.2967C186.341 80.8012 185.355 81.2752 184.384 81.7568C184.033 81.8103 183.972 81.558 183.895 81.3211C183.635 80.5108 183.375 79.7005 183.131 78.8902C183.056 78.738 183.045 78.5626 183.1 78.4023C183.154 78.2419 183.27 78.1096 183.421 78.034C184.186 77.5753 184.996 77.1014 185.768 76.6198C186.12 76.4058 186.341 76.4822 186.471 76.8568C186.762 77.8352 187.106 78.8214 187.427 79.7998Z" fill="url(#paint3_linear_689_15940)"/>
<path d="M189.36 94.8209C188.535 95.1343 187.701 95.4325 186.891 95.7841C186.31 96.0364 186.127 95.8682 186.127 95.2643C186.127 94.8974 186.127 94.4999 186.127 94.1711H186.088C186.085 94.1407 186.085 94.1099 186.088 94.0794C185.974 92.3212 185.821 92.7264 187.396 92.3594L189.276 91.939C189.475 91.8931 189.758 91.7785 189.781 92.0995C189.857 92.864 189.888 93.6284 189.895 94.3928C189.888 94.6757 189.59 94.7292 189.36 94.8209Z" fill="url(#paint4_linear_689_15940)"/>
<path d="M185.317 115.614C185.171 115.912 184.973 116.126 184.598 116.011C183.644 115.71 182.671 115.472 181.686 115.3C181.25 115.209 181.235 114.995 181.418 114.643C181.823 113.878 182.182 113.076 182.61 112.288C182.637 112.215 182.679 112.149 182.732 112.092C182.786 112.036 182.851 111.991 182.922 111.96C182.994 111.929 183.071 111.913 183.149 111.913C183.226 111.913 183.303 111.929 183.375 111.96C184.269 112.151 185.156 112.327 186.05 112.495C186.509 112.579 186.708 112.762 186.479 113.259C186.066 114.024 185.699 114.819 185.317 115.614Z" fill="url(#paint5_linear_689_15940)"/>
<path d="M184.629 73.3405C183.864 73.9291 183.023 74.533 182.213 75.1369C182.144 75.1828 182.06 75.2134 181.991 75.2516C181.913 75.2479 181.837 75.2213 181.773 75.1752C181.709 75.129 181.66 75.0652 181.632 74.9917C181.556 74.8235 181.487 74.6553 181.418 74.4872C180.103 71.5059 180.111 71.5135 182.458 69.2508C182.863 68.8686 183.046 68.9603 183.222 69.3961C183.732 70.4714 184.241 71.5467 184.751 72.622C184.881 72.9048 184.919 73.1265 184.629 73.3405Z" fill="url(#paint6_linear_689_15940)"/>
<path d="M179.927 118.236C180.692 118.648 181.456 119.069 182.281 119.459C182.702 119.665 182.778 119.864 182.503 120.292C181.739 121.538 181.739 121.546 180.34 121.148C180.104 121.087 179.872 121.013 179.644 120.926C179.033 120.682 177.924 120.735 177.894 120.216C177.855 119.451 178.742 118.885 179.201 118.22C179.262 118.129 179.4 118.09 179.507 118.022L179.927 118.236Z" fill="url(#paint7_linear_689_15940)"/>
<path d="M181.142 65.444C181.241 65.5602 181.296 65.7079 181.296 65.8606C181.296 66.0133 181.241 66.161 181.142 66.2772C180.508 67.0417 179.881 67.8061 179.247 68.6241C179.14 68.7446 179.022 68.8547 178.895 68.9528C178.767 68.8029 178.65 68.6445 178.543 68.4788C177.779 67.1869 177.014 65.8874 176.296 64.5955C176.188 64.45 176.139 64.2691 176.159 64.0891C176.179 63.9091 176.266 63.7432 176.403 63.6247C176.976 62.952 177.534 62.264 178.054 61.5454C178.398 61.0714 178.612 61.2091 178.818 61.6066C179.591 62.8908 180.363 64.175 181.142 65.444Z" fill="url(#paint8_linear_689_15940)"/>
<path d="M175.807 123.09C176.572 123.594 177.405 124.106 178.223 124.619C178.62 124.856 178.666 125.085 178.322 125.383C178.277 125.423 178.237 125.466 178.2 125.513C176.495 127.371 176.495 127.371 174.125 126.415C173.567 126.186 173.009 125.972 172.344 125.712L175.066 123.128C175.295 122.86 175.547 122.929 175.807 123.09Z" fill="url(#paint9_linear_689_15940)"/>
<path d="M174.125 54.9712C174.706 55.7892 175.853 56.5613 175.745 57.4022C175.623 58.4418 174.668 59.382 174.079 60.3681C173.941 60.5975 173.743 60.7045 173.582 60.4599C173.124 59.7643 172.351 59.2139 172.734 58.1284C173.007 57.1625 173.214 56.1792 173.353 55.1853C173.399 54.956 173.353 54.6961 173.682 54.5661C173.756 54.601 173.828 54.6419 173.896 54.6884C173.98 54.7757 174.057 54.8704 174.125 54.9712Z" fill="url(#paint10_linear_689_15940)"/>
<path d="M173.889 128.601C174.294 128.892 174.255 129.106 173.889 129.366L170.632 131.743C170.512 131.818 170.387 131.885 170.258 131.942C170.166 131.942 170.089 131.942 170.051 131.942C169.18 131.178 168.293 130.413 167.444 129.649C167.177 129.396 167.444 129.221 167.658 129.083C168.683 128.365 169.715 127.661 170.716 126.927C170.775 126.868 170.844 126.821 170.921 126.789C170.998 126.756 171.08 126.74 171.163 126.74C171.247 126.74 171.329 126.756 171.406 126.789C171.483 126.821 171.552 126.868 171.611 126.927C172.375 127.47 173.124 128.059 173.889 128.601Z" fill="url(#paint11_linear_689_15940)"/>
<path d="M171.579 51.8449C171.771 52.0589 171.694 52.2959 171.579 52.5329C171.197 53.4655 170.815 54.3981 170.448 55.3307C170.349 55.5753 170.219 55.9422 169.89 55.5524C168.973 54.4898 168.078 53.412 167.184 52.3265C167.108 52.181 167.059 52.0231 167.039 51.8602C167.329 50.6221 167.534 49.3654 167.65 48.0992C167.65 47.7169 167.895 47.6787 168.117 47.931C169.289 49.2254 170.443 50.53 171.579 51.8449Z" fill="url(#paint12_linear_689_15940)"/>
<path d="M166.351 133.731C166.421 133.811 166.482 133.898 166.534 133.991C166.534 134.304 166.267 134.365 166.091 134.457C165.196 134.916 164.287 135.359 163.392 135.818C162.949 136.047 162.628 136.039 162.36 135.527C161.909 134.8 161.347 134.147 160.694 133.593C160.281 133.196 160.205 132.951 160.832 132.684C161.756 132.294 162.651 131.835 163.561 131.392C163.851 131.246 164.119 131.132 164.325 131.46C164.927 132.28 165.605 133.04 166.351 133.731Z" fill="url(#paint13_linear_689_15940)"/>
<path d="M162.911 42.6409C165.334 44.9342 165.327 44.9341 163.92 47.9231C163.759 48.2594 163.63 48.4582 163.278 48.1066C162.613 47.4415 161.94 46.7764 161.275 46.1037C161.182 46.0248 161.114 45.9208 161.079 45.8042C161.044 45.6877 161.043 45.5634 161.076 45.4463C161.206 44.3226 161.352 43.2065 161.481 42.0828C161.543 41.5095 161.787 41.5783 162.116 41.8917L162.911 42.6409Z" fill="url(#paint14_linear_689_15940)"/>
<path d="M158.623 38.7501C158.806 38.8589 158.942 39.032 159.004 39.2355C159.066 39.439 159.05 39.6584 158.959 39.8508C158.654 40.6153 158.386 41.4638 158.149 42.2818C158.004 42.7939 157.797 42.878 157.385 42.534C156.62 41.8766 155.856 41.2192 155.091 40.5694C154.978 40.4791 154.889 40.3618 154.833 40.2282C154.777 40.0946 154.755 39.9491 154.77 39.805L155.091 36.709C155.091 36.5103 155.091 36.2657 155.451 36.2198C155.573 36.3039 155.726 36.3956 155.863 36.5103C156.788 37.2288 157.713 38.0009 158.623 38.7501Z" fill="url(#paint15_linear_689_15940)"/>
<path d="M157.323 136.154C157.667 136.651 158.042 137.133 158.393 137.607C158.439 137.897 158.21 137.912 158.057 137.966C157.132 138.287 156.2 138.593 155.275 138.898C154.915 139.021 154.717 138.898 154.594 138.516C154.304 137.652 153.998 136.789 153.662 135.932C153.516 135.573 153.547 135.351 153.944 135.244C154.067 135.244 154.174 135.16 154.288 135.122C156.184 134.495 156.184 134.495 157.323 136.154Z" fill="url(#paint16_linear_689_15940)"/>
<path d="M48.0401 41.0357C50.0047 40.5312 51.954 39.9579 53.9339 39.5069C63.6269 37.397 73.3887 35.6847 83.1887 34.1558C91.7886 32.8181 100.411 31.6714 109.095 30.9146C113.743 30.5018 118.391 29.9514 123.008 29.2329C123.398 29.1717 123.773 29.1564 124.025 29.1335C125.462 29.0953 125.745 29.3628 126.058 30.6242C126.514 32.1486 127.213 33.5892 128.13 34.8897C130.064 37.8863 131.616 41.1274 133.741 44.0094C134.138 44.5521 133.741 44.6056 133.366 44.6973C128.726 45.7828 124.139 47.0594 119.469 47.9997C116.151 48.6648 112.833 49.3145 109.531 49.9949C107.452 50.423 107.444 50.4535 108.43 52.357C109.959 55.2312 111.779 57.8991 113.369 60.7199C113.636 61.2015 114.026 61.1862 114.469 61.125C117.16 60.7275 119.82 60.437 122.572 60.2306C130.599 59.6114 138.625 59.3362 146.614 60.6358C148.835 60.9047 150.987 61.5866 152.959 62.6462C155.703 64.2439 156.184 66.7589 154.235 69.2739C153.058 70.6865 151.62 71.8595 150 72.7291C145.742 75.2212 141.087 76.6965 136.416 78.126C133.175 79.1198 129.896 79.9989 126.586 80.7327C125.821 80.9009 125.615 81.1226 125.989 81.9252C129.865 90.3909 134.346 98.566 139.398 106.387C141.178 109.233 142.798 112.175 144.252 115.201C144.695 116.088 144.42 116.669 143.411 117.013C140.961 117.868 138.434 118.485 135.866 118.855C132.693 119.306 129.49 119.574 126.395 120.468C125.87 120.652 125.296 120.64 124.78 120.434C124.264 120.227 123.841 119.84 123.589 119.344C122.695 117.854 121.838 116.34 120.975 114.826C116.485 106.983 112 99.1352 107.521 91.2819C106.466 89.4243 105.503 87.5132 104.562 85.5945C104.463 85.3278 104.268 85.1081 104.014 84.9791C103.761 84.8502 103.468 84.8216 103.194 84.8989C92.9353 86.229 82.646 86.9934 72.2956 86.3513C68.7257 86.1296 65.1634 85.778 61.777 84.5014C60.5586 84.0878 59.4429 83.4179 58.5052 82.5368C57.769 81.877 57.2889 80.979 57.1491 80.0004C57.0093 79.0218 57.2188 78.0252 57.7407 77.1857C58.5726 75.8605 59.7104 74.7542 61.0585 73.9599C64.4813 71.8743 68.1646 70.2498 72.0127 69.1286C76.7906 67.6832 81.6381 66.479 86.537 65.5205C88.2264 65.1536 89.8851 64.6414 91.5592 64.2057C92.209 64.0375 91.9874 63.6706 91.781 63.3113C90.6802 61.3696 89.5641 59.4433 88.3028 57.601C88.0594 57.3263 87.8538 57.0204 87.6913 56.6913C87.0644 54.9255 85.7496 54.9331 84.2513 55.2465C81.8023 55.7733 79.3099 56.0726 76.8058 56.1409C73.8321 56.2173 70.9731 57.15 68.0071 57.3105C65.9355 57.4328 63.8639 57.6392 61.7923 57.7309C60.3895 57.7979 58.9913 57.9383 57.6032 58.1514C57.3899 58.2252 57.1565 58.2149 56.9506 58.1225C56.7446 58.0302 56.5815 57.8628 56.4947 57.6545C54.0638 52.9532 51.2125 48.4813 48.4682 43.9941C48.1012 43.3978 47.849 42.7328 47.5203 42.1212C47.1916 41.5097 47.398 41.1963 48.0401 41.0357ZM52.963 42.0983C51.9999 42.2664 51.8011 42.6028 52.298 43.4284C53.1312 44.812 54.0104 46.1574 54.8207 47.5487C56.1863 49.8457 57.429 52.2137 58.5434 54.6426C58.7422 55.0707 58.9562 55.1701 59.4531 55.0478C64.269 53.8705 69.2302 53.8094 74.1226 53.1902C76.3624 52.9074 78.5945 52.6169 80.819 52.2423C82.8376 51.8637 84.8819 51.6388 86.9345 51.5696C87.5307 51.5696 88.2722 51.6307 88.3487 52.2958C88.5284 53.0961 88.9251 53.8313 89.4953 54.4209C91.5669 57.3487 93.715 60.223 95.6108 63.2731C97.7588 66.713 99.7769 70.2294 101.78 73.7458C101.978 74.0898 102.154 74.3879 102.498 74.2962C103.637 74.1051 104.654 73.9293 105.678 73.7687C108.736 73.2642 111.863 72.7444 114.966 72.2934C115.731 72.1864 115.647 71.9341 115.371 71.4296C114.301 69.4803 113.246 67.531 112.207 65.5664C111.335 63.9152 109.959 62.5087 109.371 60.7734C108.49 58.4446 107.45 56.1791 106.259 53.9928C105.64 52.7239 104.998 51.4397 104.264 50.2318C103.63 49.1846 103.668 48.7947 104.906 48.5119C107.276 47.9615 109.646 47.4187 112.008 46.8301C115.692 45.9204 119.377 45.0184 123.123 44.3763C124.766 44.0935 126.395 43.7189 128.023 43.352C128.512 43.2373 128.978 43.0232 128.512 42.3582C126.372 39.3004 124.957 35.9064 123.329 32.604C122.97 31.8396 122.649 31.4956 121.8 31.9695C121.479 32.1489 121.12 32.2509 120.753 32.2677C118.162 32.3823 115.601 32.7875 113.025 33.0321C111.419 33.2156 109.806 33.2844 108.201 33.4678C106.022 33.7125 103.844 34.0182 101.673 34.3087L93.4322 35.4248C90.3744 35.8223 87.4008 36.2809 84.3737 36.6096C81.3465 36.9384 78.3652 37.5193 75.3686 38.0621C72.9836 38.4978 70.6062 39.0405 68.2135 39.4763C66.0349 39.8661 63.8333 40.1719 61.647 40.5465C58.7574 41.0739 55.8603 41.609 52.986 42.0983H52.963ZM151.667 67.2022C152.355 66.4378 152.316 66.0556 151.529 65.4823C151.257 65.2879 150.968 65.119 150.665 64.9778C148.866 64.2053 146.962 63.703 145.016 63.4871C139.574 62.7946 134.086 62.539 128.604 62.7227C124.835 62.8756 120.47 63.0055 116.113 63.3725C114.943 63.4718 114.936 63.4718 115.494 64.4732C117.198 67.531 118.773 70.5887 120.6 73.5776C121.173 74.5026 120.959 74.9995 119.889 75.3052C118.949 75.5728 118.016 75.8403 117.068 76.0697C112.205 77.1247 107.252 77.7134 102.277 77.8279C99.2877 77.9043 99.0813 77.8279 97.9194 75.053C96.7574 72.2781 95.2897 69.7478 93.9138 67.1258C93.8694 66.9919 93.7962 66.8693 93.6992 66.7668C93.6023 66.6642 93.484 66.5842 93.3528 66.5325C93.2215 66.4807 93.0805 66.4584 92.9397 66.4671C92.7988 66.4759 92.6616 66.5154 92.5377 66.5831C90.8178 67.1182 89.0901 67.615 87.3625 68.1119C80.8954 70.023 74.436 71.9723 68.2517 74.7778C66.027 75.6664 63.9615 76.9108 62.1362 78.4623C61.196 79.3262 61.2571 79.6854 62.4267 80.2358C64.1968 80.999 66.0692 81.4986 67.9842 81.7188C75.5215 82.8578 83.097 82.6056 90.6649 82.1163C99.385 81.5467 108.064 80.4619 116.656 78.8675C123.816 77.6315 130.884 75.9049 137.807 73.6999C141.991 72.4473 146.017 70.7213 149.809 68.5553C150.488 68.1932 151.114 67.7377 151.667 67.2022ZM140.04 114.597C140.605 114.444 140.682 114.23 140.429 113.71C139.838 112.239 139.105 110.829 138.243 109.498C134.268 104.147 131.363 98.1389 128.122 92.3521C126.479 89.432 124.866 86.5042 123.222 83.5917C122.98 83.0418 122.543 82.6013 121.995 82.3555C121.447 82.1098 120.827 82.0763 120.256 82.2616C119.125 82.5062 118.009 82.8349 116.87 83.026C114.032 83.5967 111.154 83.9468 108.262 84.0733C107.765 84.0733 107.788 84.3179 107.956 84.6466C108.05 84.8383 108.155 85.0246 108.27 85.2047C113.269 93.4605 117.604 102.099 122.213 110.576C123.245 112.472 124.086 114.475 125.026 116.424C125.194 116.753 125.294 117.188 125.836 117.12C126.203 117.059 126.601 117.013 126.922 116.944C129.766 116.401 132.586 115.782 135.468 115.415C137.009 115.248 138.537 114.975 140.04 114.597Z" fill="url(#paint17_linear_689_15940)"/>
<path d="M150.45 137.01C150.482 137.895 150.633 138.772 150.901 139.617C150.978 139.93 150.794 140.075 150.542 140.152C150.364 140.199 150.182 140.235 149.999 140.259C148.96 140.435 147.706 141.191 146.942 140.656C146.177 140.121 145.917 138.852 145.413 137.92C145.122 137.4 145.321 137.232 145.833 137.155C147.095 136.926 148.348 136.666 149.602 136.391C150.137 136.253 150.443 136.337 150.45 137.01Z" fill="url(#paint18_linear_689_15940)"/>
<path d="M149.442 31.6104L152.102 33.552C152.218 33.6262 152.302 33.7417 152.336 33.8751C152.37 34.0085 152.352 34.1499 152.286 34.2706C151.98 35.1268 151.697 35.9982 151.429 36.8697C151.276 37.3666 151.039 37.313 150.665 37.0455C150.183 36.6709 149.702 36.2811 149.197 35.96C148.98 35.8453 148.809 35.66 148.712 35.4349C148.615 35.2097 148.597 34.9581 148.662 34.7216C148.739 34.3318 148.731 33.9572 148.769 33.5368H148.83C148.83 32.9864 148.83 32.4436 148.83 31.8932C148.83 31.3428 149.083 31.3505 149.442 31.6104Z" fill="url(#paint19_linear_689_15940)"/>
<path d="M143.548 27.6964C146.17 29.3017 146.154 29.3094 145.413 32.283C145.268 32.8793 145.061 33.0857 144.511 32.6423C144.161 32.3422 143.776 32.0856 143.364 31.8779C142.042 31.2281 141.14 30.349 141.705 28.7055C141.705 28.071 141.339 27.0772 141.774 26.8326C142.34 26.5268 142.967 27.3371 143.548 27.6964Z" fill="url(#paint20_linear_689_15940)"/>
<path d="M140.414 153.117C140.735 152.352 140.414 152.306 139.825 152.352C138.671 152.436 137.532 152.49 136.003 152.582C135.116 152.582 133.893 152.582 132.678 152.582C132.582 152.564 132.484 152.567 132.389 152.59C132.295 152.614 132.206 152.657 132.13 152.717C132.053 152.777 131.99 152.852 131.945 152.938C131.9 153.024 131.873 153.119 131.867 153.216C131.034 156.908 130.17 160.585 129.314 164.27C129.077 165.264 129.07 165.287 130.14 165.218C131.539 165.118 132.938 164.912 134.336 164.874C135.735 164.836 136.469 164.43 136.538 163.009C136.586 162.77 136.666 162.538 136.775 162.321C137.99 159.24 139.168 156.167 140.414 153.117ZM142.745 152.712C142.073 156.243 141.308 159.76 140.322 163.215C140.139 163.872 140.322 163.979 140.918 163.849C142.172 163.574 143.418 163.245 144.679 163.047C145.795 162.879 146.529 162.435 146.728 161.25C146.833 160.867 146.99 160.499 147.194 160.157C148.473 157.324 149.747 154.488 151.016 151.649C151.169 151.305 151.337 150.984 150.588 151.06C148.249 151.519 145.765 151.825 143.28 152.092C142.944 152.131 142.806 152.368 142.745 152.712ZM118.75 152.368C119.002 151.771 118.926 151.603 118.276 151.519C115.715 151.122 113.162 150.686 110.631 150.227C109.011 149.937 109.018 149.906 108.636 151.45C108.579 151.687 108.504 151.919 108.415 152.146C107.237 154.936 106.526 157.879 105.533 160.731C105.265 161.495 105.059 162.298 104.837 163.093C104.699 163.589 104.837 163.857 105.418 163.956C107.948 164.369 110.494 164.667 113.062 164.943C113.628 164.943 114.125 165.134 114.392 164.285C115.669 160.234 117.06 156.259 118.727 152.368H118.75ZM121.601 151.901C121.058 151.832 120.944 152.1 120.837 152.559C120.006 156.58 119.152 160.601 118.276 164.621C118.153 165.187 118.329 165.386 118.841 165.386H121.586V165.478C122.35 165.478 123.115 165.424 123.879 165.478C124.766 165.554 125.179 165.309 125.01 164.339C124.981 163.97 125.042 163.601 125.186 163.261C126.217 159.878 127.45 156.559 128.878 153.323C129.199 152.658 129.024 152.467 128.351 152.444C126.096 152.345 123.841 152.192 121.601 151.901ZM62.6633 132.248C62.8849 131.843 63.1525 131.483 62.5486 131.109C59.3583 129.121 56.2624 126.999 53.2607 124.741C52.825 124.412 52.6798 124.512 52.5498 125.032C51.3955 129.832 49.4921 134.365 47.6651 138.921C47.602 139.02 47.5609 139.131 47.5446 139.247C47.5283 139.363 47.5371 139.482 47.5705 139.594C47.6038 139.706 47.6609 139.81 47.7379 139.899C47.8149 139.987 47.91 140.058 48.0167 140.106C50.547 141.872 53.1078 143.584 55.7374 145.205L56.1961 145.465C56.6089 145.465 56.6166 145.159 56.7159 144.922C57.167 143.821 57.5798 142.705 58.069 141.62C59.5061 138.447 60.9968 135.305 62.6633 132.248ZM65.2088 132.76C64.8036 132.76 64.796 133.089 64.7195 133.326C64.4291 134.228 64.1615 135.137 63.8787 136.039C62.7244 139.861 61.5853 143.622 60.3928 147.406C60.2399 147.888 60.4999 148.003 60.7903 148.171C63.6417 149.769 66.5465 151.229 69.4896 152.666C70.0782 152.949 70.2923 152.78 70.4604 152.215C70.8197 151.015 71.2249 149.822 71.6071 148.637C72.6926 145.465 73.564 142.208 75.2228 139.258C75.5974 138.593 75.5745 138.302 74.8559 137.966C71.7447 136.437 68.7404 134.809 65.7515 133.058L65.2088 132.76ZM6.69907 83.691C8.42039 78.8949 10.4033 74.1968 12.6387 69.6178C13.0592 68.9577 13.2149 68.1632 13.0745 67.3932C12.0006 62.5297 11.5637 57.5471 11.7749 52.5709C11.7749 52.2575 11.9049 51.9211 11.6755 51.5848C11.3927 51.73 11.3316 52.0205 11.2169 52.2498C9.68802 55.4681 8.10565 58.6711 6.63029 61.9123C5.14149 65.1787 4.39485 68.7344 4.44403 72.3239C4.51643 75.348 4.89288 78.3572 5.56772 81.3059C5.70228 82.3218 5.95895 83.3176 6.33215 84.2719C6.64557 84.119 6.63027 83.8821 6.69907 83.691ZM11.0487 93.7356C13.3955 90.0434 15.1919 86.0454 17.5082 82.3379C17.5922 82.1955 17.6366 82.0331 17.6366 81.8678C17.6366 81.7024 17.5922 81.5401 17.5082 81.3977C16.444 78.929 15.5052 76.4083 14.6951 73.8451C14.6339 73.6463 14.6416 73.3558 14.4123 73.31C14.1829 73.2641 14.0453 73.5852 13.9383 73.7839C11.5414 77.97 9.3674 82.2797 7.42533 86.6952C7.23296 87.0335 7.15769 87.4258 7.21127 87.8113C7.21127 87.8113 7.28004 88.1018 7.37177 88.3617C7.99096 90.1122 8.60258 91.8704 9.25999 93.6209C9.4511 94.1178 9.5199 94.9511 10.0244 94.9893C10.5289 95.0275 10.7506 94.2019 11.0487 93.728V93.7356ZM18.456 84.7C16.6086 89.5206 14.472 94.2253 12.0577 98.7885C11.9635 98.9769 11.9222 99.1874 11.9384 99.3975C11.9546 99.6075 12.0275 99.8092 12.1495 99.981C13.5153 102.682 15.0161 105.307 16.652 107.855C16.8179 108.231 17.0819 108.556 17.4164 108.795C17.5348 108.616 17.6421 108.429 17.7375 108.237C19.2664 104.797 20.9634 101.456 22.6146 98.0776C23.0125 97.1841 23.552 96.3606 24.2122 95.6391C24.3285 95.5426 24.4236 95.4232 24.4914 95.2882C24.5591 95.1532 24.5981 95.0057 24.606 94.8548C24.6139 94.704 24.5905 94.5531 24.5372 94.4118C24.4839 94.2705 24.4019 94.1418 24.2963 94.0338C22.4185 91.1393 20.7208 88.132 19.2128 85.0287C19.0829 84.7688 19.037 84.4248 18.6472 84.3025C18.586 84.4401 18.5096 84.5548 18.456 84.7ZM194.604 70.6803C198.534 79.6471 200.804 89.0267 200.643 98.8497C200.572 107.794 198.109 116.557 193.511 124.229C188.318 132.691 182.548 140.785 176.243 148.454C171.777 153.933 166.255 158.459 160.006 161.762C154.847 164.502 149.338 166.523 143.632 167.771C132.065 170.385 120.113 170.828 108.384 169.078C74.8253 164.288 46.521 149.445 23.4708 124.55C15.2452 115.744 8.77685 105.449 4.41342 94.2172C2.19742 88.4523 0.725505 82.4285 0.0332334 76.2913C-0.0869619 74.1676 0.119322 72.0381 0.644817 69.977C0.874147 68.7234 1.17992 67.4926 1.31752 66.2237C1.45512 64.9547 2.17369 63.8387 2.46417 62.585C3.74842 57.0046 6.37035 51.9517 8.7936 46.8147C10.8686 42.2214 13.2992 37.7971 16.0634 33.5824C17.21 31.9006 18.0356 29.9972 19.1211 28.2314C24.6862 19.2034 32.5217 12.721 41.9395 8.05035C49.2596 4.49306 57.0985 2.12177 65.163 1.02521C70.0028 0.321312 74.8883 -0.021079 79.7789 0.000869684C95.5615 0.160124 111.175 3.2714 125.813 9.17406C142.848 15.7698 158.4 25.6884 171.564 38.3525C181.204 47.7091 189.177 58.2965 194.604 70.6803ZM173.659 138.409C188.948 128.663 196.737 114.765 196.462 96.5411C196.252 89.0069 194.643 81.5776 191.715 74.6324C187.25 63.5482 180.577 53.8857 172.405 45.2476C158.332 30.3794 141.499 19.6697 122.411 12.4535C108.84 7.21739 94.446 4.43741 79.9012 4.24346C73.2221 4.2178 66.5593 4.90457 60.0259 6.29214C51.1967 8.2338 42.895 11.4597 35.5641 16.8184C23.1802 25.8616 16.5526 38.039 15.9182 53.3965C15.5512 62.3098 17.447 70.8179 20.7876 79.0356C25.1748 89.6533 31.5116 99.3555 39.4703 107.641C54.9654 124.099 73.6176 135.657 94.9605 142.935C103.971 145.966 113.318 147.884 122.793 148.645C132.209 149.528 141.703 149.038 150.978 147.192C159.028 145.526 166.695 142.843 173.659 138.409ZM173.086 144.869C173.162 144.333 173.567 143.852 173.437 143.202C171.859 144.109 170.213 144.894 168.514 145.549C167.357 145.841 166.309 146.461 165.495 147.334C164.681 148.207 164.137 149.297 163.928 150.472C163.329 152.515 162.617 154.524 161.795 156.488C162.192 156.39 162.553 156.181 162.834 155.884C165.128 153.904 167.421 151.863 169.821 149.952C171.473 148.599 172.757 147.062 173.086 144.869ZM161.191 148.966C161.191 148.385 160.931 148.507 160.664 148.591C158.691 149.241 156.681 149.761 154.663 150.242C154.474 150.28 154.3 150.372 154.164 150.508C154.028 150.645 153.936 150.818 153.898 151.007C152.958 154.164 152.003 157.321 151.062 160.478C151.001 160.677 150.848 160.891 151.062 161.074C151.276 161.258 151.475 161.074 151.658 161.036C152.981 160.562 154.288 160.043 155.618 159.599C156.041 159.458 156.418 159.205 156.708 158.868C156.999 158.53 157.193 158.119 157.269 157.68C157.443 157.004 157.699 156.352 158.034 155.739C158.623 154.669 159.249 153.614 159.769 152.513C160.289 151.412 160.771 150.097 161.191 148.966ZM104.378 149.654C104.715 149.05 104.669 148.889 103.981 148.698C100.87 147.934 97.7813 147.062 94.7541 146.008C93.8521 145.694 93.5157 145.946 93.2864 146.81C92.2773 150.632 91.1919 154.401 90.1828 158.208C89.6095 160.356 89.6477 160.371 91.8111 160.975C94.4025 161.694 97.0092 162.328 99.7536 162.901C100.166 163.024 100.266 162.649 100.365 162.282C100.747 160.868 101.129 159.446 101.504 158.04C102.307 155.196 102.926 152.276 104.378 149.654ZM89.3801 144.945C89.5483 144.379 89.4413 144.181 88.9292 144.02C85.7185 142.843 82.5461 141.574 79.4425 140.137C78.7928 139.831 78.5328 139.968 78.357 140.626C77.1798 145.121 76.0026 149.608 74.7871 154.088C74.596 154.776 74.7871 155.051 75.4216 155.311C78.3876 156.526 81.3842 157.65 84.4113 158.705C84.5872 158.766 84.7629 158.804 84.954 158.858C85.3592 158.858 85.3134 158.514 85.3745 158.277C86.5518 153.782 88.05 149.386 89.3801 144.945ZM50.6922 123.541C50.9751 123.029 50.6922 122.83 50.4094 122.578C48.1161 120.804 45.9604 118.954 43.8506 117.005C43.3155 116.508 43.0861 116.653 42.788 117.227C42.1797 118.426 41.4331 119.549 40.5635 120.575C40.0659 121.067 39.6457 121.631 39.3175 122.249C38.2933 124.634 37.0415 126.915 35.5794 129.06C35.2736 129.519 35.2354 129.824 35.6864 130.214C38.1428 132.426 40.6654 134.546 43.2543 136.574C43.3935 136.68 43.539 136.777 43.69 136.865C44.1028 136.796 44.1334 136.437 44.2633 136.185C46.419 131.95 48.3989 127.646 50.6922 123.541ZM39.799 114.008C39.8602 113.871 39.9137 113.726 39.9595 113.626C39.953 113.512 39.9224 113.401 39.8697 113.299C39.817 113.198 39.7435 113.109 39.6539 113.038C38.0027 111.287 36.3361 109.544 34.6926 107.778C34.3333 107.396 34.104 107.442 33.867 107.878C33.4848 108.573 33.1026 109.246 32.7051 109.949C30.8093 113.603 29.311 117.441 27.4764 121.125C27.3696 121.309 27.3347 121.525 27.3785 121.733C27.4223 121.94 27.5416 122.124 27.7133 122.249C29.1734 123.778 30.6412 125.307 32.0859 126.836C32.5064 127.279 32.7815 127.325 33.1026 126.729C35.4035 122.455 37.888 118.366 39.799 113.97V114.008ZM31.2603 104.682C31.3671 104.519 31.4154 104.324 31.3974 104.13C31.3793 103.935 31.296 103.753 31.1609 103.612C29.869 101.946 28.5848 100.279 27.3388 98.5821C26.9948 98.1158 26.7961 98.0317 26.4368 98.5821C23.853 102.481 21.4527 106.479 19.06 110.5C18.9452 110.659 18.888 110.852 18.8977 111.048C18.9074 111.244 18.9835 111.431 19.1134 111.577C20.6423 113.741 22.263 115.858 23.9524 117.907C24.0823 118.068 24.197 118.266 24.4569 118.305C24.778 118.182 24.8009 117.846 24.9309 117.586C27.0331 113.236 29.1275 108.933 31.2603 104.644V104.682Z" fill="url(#paint21_linear_689_15940)"/>
<path d="M142.424 140.129C142.906 141.467 142.914 141.467 141.461 141.658C139.122 141.987 139.122 141.987 138.747 139.861C138.426 138.012 138.426 138.012 140.36 137.889H140.689C141.453 137.614 141.912 137.996 142.042 138.921C142.129 139.335 142.257 139.74 142.424 140.129Z" fill="url(#paint22_linear_689_15940)"/>
<path d="M138.151 24.4628C138.222 24.4928 138.286 24.5363 138.339 24.591C138.392 24.6457 138.435 24.7104 138.463 24.7815C138.492 24.8525 138.506 24.9284 138.505 25.0049C138.504 25.0814 138.487 25.157 138.457 25.2272C138.228 26.0757 137.998 26.9319 137.8 27.7957C137.708 28.1626 137.547 28.2696 137.226 28.0938L135.071 26.8707C134.959 26.8217 134.868 26.7329 134.818 26.6214C134.767 26.51 134.759 26.3837 134.796 26.2668L135.025 23.5302C135.071 23.0256 135.285 22.8727 135.789 23.1326C136.546 23.5837 137.349 24.027 138.151 24.4628Z" fill="url(#paint23_linear_689_15940)"/>
<path d="M134.704 140.825C134.864 142.101 134.834 142.117 133.511 142.147C132.602 142.147 131.554 142.407 130.805 142.055C130.056 141.704 130.133 140.527 129.781 139.709C129.192 138.363 129.215 138.356 130.683 138.363H132.09C132.785 138.432 133.779 138.012 134.383 138.478C134.987 138.944 134.605 140.03 134.704 140.825Z" fill="url(#paint24_linear_689_15940)"/>
<path d="M132.104 21.2444C132.548 21.4508 132.685 21.6725 132.425 22.1617C132.068 22.8383 131.756 23.538 131.493 24.2562C131.317 24.7225 131.087 24.7684 130.667 24.562C129.138 23.7976 127.609 23.0714 126.08 22.3375C125.921 22.2817 125.782 22.1787 125.682 22.0422C125.583 21.9057 125.527 21.7421 125.522 21.5731C125.454 20.6022 125.347 19.6314 125.262 18.653C125.262 18.416 125.155 18.1331 125.568 18.1866L125.828 18.3013C127.9 19.2874 130.002 20.2735 132.104 21.2444Z" fill="url(#paint25_linear_689_15940)"/>
<path d="M126.417 140.435C126.463 142.093 126.463 142.093 124.765 141.925C123.068 141.757 123.015 141.757 122.709 140.022C122.342 137.943 122.342 137.943 124.399 138.095C126.455 138.248 126.371 138.241 126.417 140.435Z" fill="url(#paint26_linear_689_15940)"/>
<path d="M121.685 16.5891C121.76 16.6069 121.831 16.6396 121.893 16.6853C121.955 16.7311 122.008 16.7888 122.047 16.8552C122.086 16.9216 122.112 16.9952 122.122 17.0716C122.132 17.1481 122.126 17.2257 122.106 17.3001C121.922 18.1333 121.739 18.9665 121.571 19.7998C121.479 20.2202 121.234 20.2584 120.898 20.1208C120.271 19.8762 119.652 19.6392 119.033 19.3564C118.903 19.3029 118.719 19.1959 118.689 19.0812C118.438 17.957 118.312 16.8084 118.314 15.6565C118.314 15.282 118.666 15.4272 118.872 15.5037C119.813 15.8706 120.745 16.2375 121.685 16.5891Z" fill="url(#paint27_linear_689_15940)"/>
<path d="M118.49 137.461C119.04 137.538 119.354 137.744 119.201 138.294C119.125 138.959 119.033 139.563 118.979 140.175C118.865 141.352 118.865 141.367 117.733 141.207C116.885 141.084 116.044 140.924 115.195 140.817C114.993 140.817 114.798 140.736 114.655 140.593C114.511 140.45 114.431 140.255 114.431 140.052C114.347 139.235 114.24 138.417 114.14 137.599C114.079 137.056 114.247 136.834 114.859 136.903C116.074 137.125 117.282 137.301 118.49 137.461Z" fill="url(#paint28_linear_689_15940)"/>
<path d="M115.325 17.3458C115.271 17.7739 115.073 17.9498 114.645 17.7816L114.476 17.7204C111.625 16.8643 111.495 16.6655 111.541 13.5313C111.541 13.2103 111.617 13.0574 111.954 13.1721L115.34 14.2576C115.401 14.2726 115.458 14.2998 115.508 14.3374C115.558 14.375 115.6 14.4224 115.632 14.4766C115.663 14.5308 115.683 14.5908 115.691 14.653C115.699 14.7152 115.694 14.7783 115.676 14.8385C115.547 15.7558 115.432 16.5585 115.325 17.3458Z" fill="url(#paint29_linear_689_15940)"/>
<path d="M111.679 136.361C112.291 136.483 112.107 136.911 112.054 137.522C112 138.134 111.832 138.784 111.725 139.533C111.664 139.999 111.45 140.167 110.961 140.068C109.982 139.846 109.004 139.655 108.018 139.457C107.942 139.451 107.868 139.43 107.8 139.395C107.733 139.36 107.673 139.312 107.624 139.254C107.576 139.195 107.54 139.127 107.518 139.055C107.496 138.982 107.489 138.905 107.498 138.83C107.498 137.92 107.498 137.01 107.498 136.093C107.498 135.604 107.719 135.527 108.125 135.611C109.302 135.871 110.487 136.124 111.679 136.361Z" fill="url(#paint30_linear_689_15940)"/>
<path d="M107.261 11.7886C107.658 11.888 107.811 12.1403 107.727 12.4307C107.612 13.3328 107.497 14.1125 107.421 14.8999C107.383 15.3738 107.146 15.4502 106.741 15.3432C106.037 15.1521 105.334 14.9687 104.623 14.7928C104.477 14.7549 104.345 14.6744 104.244 14.5615C104.143 14.4485 104.079 14.3082 104.058 14.1584C103.836 13.2716 103.591 12.3925 103.339 11.5211C103.217 11.0853 103.209 10.7566 103.805 10.9172L107.261 11.7886Z" fill="url(#paint31_linear_689_15940)"/>
<path d="M100.472 134.243C100.541 133.838 100.762 133.738 101.122 133.83L101.297 133.884C102.123 134.22 103.476 134.052 103.728 134.816C104.019 135.703 103.247 136.758 102.964 137.759C102.957 137.821 102.936 137.88 102.903 137.932C102.869 137.983 102.823 138.026 102.769 138.057C102.715 138.088 102.655 138.105 102.593 138.108C102.531 138.111 102.47 138.098 102.414 138.073L100.304 137.469C100.236 137.457 100.172 137.43 100.116 137.39C100.061 137.35 100.015 137.298 99.9824 137.237C99.95 137.177 99.9318 137.11 99.9292 137.041C99.9265 136.973 99.9396 136.905 99.9673 136.842C100.151 135.955 100.319 135.091 100.472 134.243Z" fill="url(#paint32_linear_689_15940)"/>
<path d="M100.947 12.1097C100.847 13.8831 100.847 13.8908 99.0966 13.5391C98.2328 13.371 97.1932 13.4933 96.5664 12.92C95.9396 12.3466 96.1383 11.3223 95.9395 10.5043C95.6337 9.27361 95.6873 9.24302 96.918 9.49529C97.8961 9.73172 98.8862 9.91545 99.884 10.0457C100.908 10.1451 101.184 10.6419 100.985 11.5745C100.961 11.752 100.949 11.9307 100.947 12.1097Z" fill="url(#paint33_linear_689_15940)"/>
<path d="M97.8039 132.798C98.2703 132.951 98.4537 133.142 98.1709 133.654C97.7657 134.365 97.4064 135.13 97.093 135.871C96.9783 136.108 96.8713 136.315 96.5656 136.284C96.2598 136.253 96.0916 136.146 95.8623 136.062C94.4557 135.565 93.0492 135.053 91.635 134.533C91.0158 134.327 90.7406 134.128 91.2833 133.494C91.7428 132.925 92.1545 132.319 92.514 131.682C92.751 131.292 92.9727 131.116 93.4696 131.292C94.9067 131.85 96.3592 132.317 97.8039 132.798Z" fill="url(#paint34_linear_689_15940)"/>
<path d="M91.3298 8.62353C91.949 8.6694 92.3159 8.88343 92.186 9.5867C92.1592 9.86125 92.1592 10.1378 92.186 10.4123C92.1019 12.5145 92.1096 12.4992 89.9997 12.1399C89.7724 12.1341 89.5541 12.0493 89.3825 11.9C89.211 11.7507 89.0966 11.5463 89.0594 11.322C88.8759 10.5575 88.639 9.79312 88.402 9.02868C88.2338 8.47829 88.402 8.30245 88.9753 8.36361C89.755 8.46298 90.5425 8.56238 91.3298 8.62353Z" fill="url(#paint35_linear_689_15940)"/>
<path d="M87.5842 129.068C89.2965 129.779 89.3041 129.786 88.7461 131.567C88.1116 133.57 88.3791 133.28 86.6057 132.561C85.7877 132.232 84.9851 131.865 84.1748 131.514C83.1199 131.048 83.1275 131.048 83.8155 130.184C84.213 129.687 84.5799 129.159 84.9545 128.655C85.0921 128.464 85.1839 128.219 85.5202 128.219L87.5842 129.068Z" fill="url(#paint36_linear_689_15940)"/>
<path d="M84.4424 8.01204C84.9928 8.05791 85.2068 8.24901 85.1074 8.77647C85.0376 9.31899 85.0018 9.86537 85.0004 10.4124C85.0004 11.6813 85.0004 11.6813 83.678 11.582L82.1491 11.4826C81.2471 11.3756 80.1463 11.796 79.4812 11.2685C78.8162 10.7411 78.8391 9.54855 78.4798 8.68475C78.1205 7.82094 78.411 7.75213 79.1678 7.76742C80.9107 7.8515 82.6766 7.85151 84.4424 8.01204Z" fill="url(#paint37_linear_689_15940)"/>
<path d="M81.2082 126.216C81.7433 126.446 81.7892 126.721 81.5598 127.202C81.2464 127.86 80.9865 128.548 80.696 129.213C80.6043 129.427 80.5508 129.71 80.1686 129.633C80.1227 129.633 80.031 129.587 79.9545 129.549L74.9169 126.965C74.5423 126.774 74.4124 126.537 74.7105 126.201C74.7564 126.155 74.7869 126.102 74.8251 126.056C75.4061 125.398 75.6889 124.275 76.461 124.061C77.2331 123.846 77.99 124.718 78.8232 125.077C79.6564 125.437 80.3903 125.872 81.2082 126.216Z" fill="url(#paint38_linear_689_15940)"/>
<path d="M74.9401 10.8634C74.986 11.4062 74.772 11.5743 74.2827 11.5896C73.7935 11.6049 73.1896 11.6584 72.6392 11.6966C71.0644 12.2241 70.3459 11.4291 69.8032 10.0455C69.0387 8.14968 68.9088 8.19554 70.9728 8.08852C72.0353 8.02737 73.0978 7.95856 74.1604 7.86683C74.7184 7.81332 74.9248 8.01208 74.9248 8.5854C74.8802 9.34426 74.8854 10.1052 74.9401 10.8634Z" fill="url(#paint39_linear_689_15940)"/>
<path d="M71.424 121.026C72.8764 121.882 72.8764 121.882 72.1043 123.411L71.5768 124.473C71.5004 124.649 71.4011 124.794 71.1794 124.794C71.1192 124.786 71.0601 124.771 71.0035 124.749C69.7498 123.989 68.4988 123.225 67.2502 122.455C67.2102 122.431 67.1761 122.399 67.1504 122.36C67.1246 122.321 67.1078 122.277 67.1012 122.231C67.0946 122.185 67.0983 122.138 67.1122 122.093C67.1261 122.049 67.1497 122.008 67.1813 121.974C67.2358 121.901 67.2946 121.833 67.3572 121.767C69.0772 119.65 69.0772 119.65 71.424 121.026Z" fill="url(#paint40_linear_689_15940)"/>
<path d="M66.1037 11.819C66.1954 12.1782 66.1037 12.3923 65.7138 12.4611C64.7506 12.614 63.7951 12.7821 62.8319 12.9732C62.7326 13.0058 62.6276 13.0177 62.5236 13.0081C62.4195 12.9986 62.3184 12.9678 62.2267 12.9176C62.135 12.8675 62.0546 12.799 61.9904 12.7166C61.9262 12.6341 61.8795 12.5393 61.8534 12.4381C61.5858 11.6737 61.2954 10.9093 60.9591 10.2289C60.7527 9.78555 60.8138 9.53328 61.303 9.46448L64.8117 8.82236C65.2245 8.76121 65.431 8.94467 65.515 9.34982C65.6985 10.1601 65.8973 10.9857 66.1037 11.819Z" fill="url(#paint41_linear_689_15940)"/>
<path d="M65.522 117.349C65.5924 117.379 65.6546 117.425 65.704 117.483C65.7534 117.541 65.7884 117.61 65.8063 117.685C65.8241 117.759 65.8242 117.837 65.8067 117.911C65.7892 117.985 65.7546 118.055 65.7055 118.113C65.3156 118.725 64.941 119.359 64.6047 120.001C64.3753 120.422 64.1002 120.46 63.7256 120.192C62.5561 119.367 61.3788 118.557 60.2168 117.731C59.9951 117.578 59.697 117.395 60.0104 117.097C60.6525 116.493 61.3253 115.919 61.9827 115.338C62.0666 115.285 62.1601 115.249 62.2579 115.231C62.3965 115.278 62.5298 115.34 62.6554 115.415L65.522 117.349Z" fill="url(#paint42_linear_689_15940)"/>
<path d="M59.2696 112.961C59.3071 112.988 59.3383 113.024 59.3612 113.064C59.3841 113.104 59.3981 113.149 59.4024 113.195C59.4068 113.242 59.4013 113.288 59.3863 113.332C59.3713 113.376 59.3472 113.416 59.3155 113.45C59.3155 113.496 59.2391 113.542 59.2085 113.595C57.6796 115.835 57.5803 115.889 55.5087 114.146C54.9889 113.718 54.4767 113.29 53.9798 112.869C53.6205 112.586 53.567 112.342 53.9798 111.998C54.3926 111.654 54.8819 111.088 55.3252 110.629C55.4705 110.484 55.6003 110.301 55.8067 110.301C55.877 110.322 55.946 110.348 56.0131 110.377L59.2696 112.961Z" fill="url(#paint43_linear_689_15940)"/>
<path d="M57.8091 12.2547C57.9926 14.0435 57.9849 14.0205 56.2267 14.6015C54.4685 15.1825 52.7638 15.7788 51.0591 16.4362C50.5164 16.6426 50.2259 16.589 49.9737 16.0616C49.6144 15.2972 49.2092 14.5939 48.8194 13.8753C48.5977 13.4778 48.6971 13.2791 49.0946 13.1109C51.7197 12.0418 54.4109 11.143 57.1516 10.4201C57.6332 10.2901 57.832 10.4965 57.8167 10.9705C57.8014 11.4444 57.8091 11.8266 57.8091 12.2547Z" fill="url(#paint44_linear_689_15940)"/>
<path d="M52.6568 107.663C52.7791 107.992 51.128 110.094 50.7305 110.064C50.6146 109.997 50.5046 109.92 50.4017 109.834C49.7672 109.261 49.1404 108.68 48.4983 108.114C48.1619 107.824 48.0625 107.541 48.4524 107.22L48.5213 107.159C49.1252 106.654 49.5761 105.5 50.1877 105.63C51.1432 105.806 51.7547 106.884 52.5574 107.526C52.6017 107.562 52.6359 107.61 52.6568 107.663Z" fill="url(#paint45_linear_689_15940)"/>
<path d="M46.3503 101.594C46.7554 102.114 47.6652 102.488 47.5735 103.123C47.4511 103.964 46.5721 104.522 46.0446 105.248C45.9535 105.331 45.8504 105.401 45.7388 105.454C45.5608 105.323 45.3898 105.183 45.2266 105.034C44.2711 104.055 43.3308 103.054 42.3523 102.091C41.8937 101.64 42.016 101.387 42.4976 101.051C44.4698 99.6599 44.4545 99.6445 46.0675 101.357C46.1821 101.418 46.2738 101.502 46.3503 101.594Z" fill="url(#paint46_linear_689_15940)"/>
<path d="M46.5416 18.0951C46.5951 18.5002 46.3275 18.6072 46.0829 18.7372C45.4255 19.1118 44.7528 19.5016 44.1031 19.8686C43.6979 20.1208 43.438 20.1208 43.1322 19.6851C42.6178 18.9695 42.064 18.283 41.4734 17.6288C41.1599 17.2771 41.1905 17.0707 41.5804 16.8643L45.1809 14.8997C45.4256 14.7698 45.7389 14.6093 45.823 15.045C46.0034 16.0747 46.2433 17.0931 46.5416 18.0951Z" fill="url(#paint47_linear_689_15940)"/>
<path d="M40.6855 95.2571C41.1816 95.6336 41.5865 96.1169 41.8704 96.6713C41.8704 96.9617 41.6793 97.0841 41.5264 97.2293C41.0786 97.6376 40.6549 98.0715 40.2574 98.5289C39.8217 99.0793 39.5465 98.9493 39.1414 98.483C37.9794 97.1452 37.9565 97.1605 39.3631 96.0445C39.4951 95.9194 39.6384 95.8068 39.7911 95.7081C40.0892 95.5399 40.3033 95.0048 40.6855 95.2571Z" fill="url(#paint48_linear_689_15940)"/>
<path d="M39.8752 22.6816C38.7897 23.7059 37.6813 24.5391 36.1753 23.3772C35.9109 23.2233 35.6249 23.1099 35.3268 23.0409C33.8973 22.4752 33.8973 22.4752 35.1128 21.4508C35.6937 20.9616 36.29 20.4953 36.8862 20.0213C37.1308 19.8302 37.3984 19.6315 37.6506 20.0213C38.2932 20.7954 39.0513 21.4658 39.8981 22.0089C40.0204 22.0929 40.1428 22.1847 40.1198 22.5822C40.0318 22.5964 39.9481 22.6303 39.8752 22.6816Z" fill="url(#paint49_linear_689_15940)"/>
<path d="M37.8035 91.32C37.8673 91.3839 37.9162 91.4611 37.9467 91.5461C37.9772 91.6311 37.9884 91.7219 37.9796 91.8118C37.9709 91.9017 37.9424 91.9885 37.896 92.0661C37.8497 92.1436 37.7867 92.2099 37.7117 92.2602C37.1766 92.7571 36.6645 93.2922 36.1829 93.835C35.8465 94.2248 35.6019 94.1866 35.319 93.835C34.2998 92.4182 33.2806 91.0091 32.2613 89.6076C31.9861 89.2178 32.0397 88.9732 32.483 88.7515C33.3086 88.354 34.1113 87.9183 34.8681 87.5208C35.2044 87.5208 35.2808 87.7271 35.4031 87.8953C36.2058 89.0114 36.9932 90.1733 37.8035 91.32Z" fill="url(#paint50_linear_689_15940)"/>
<path d="M34.5698 26.4579C34.8603 26.6796 35.0667 26.8937 34.7303 27.2682C34.0041 28.0327 33.3084 28.8582 32.6052 29.6609C32.5311 29.7584 32.4301 29.8321 32.3147 29.8728C32.1992 29.9136 32.0743 29.9196 31.9554 29.8902L28.569 29.1717C28.1715 29.0799 28.1639 28.8582 28.3703 28.5754C29.4332 27.1633 30.582 25.8179 31.8102 24.5468C32.1007 24.2411 32.3147 24.3252 32.5746 24.6004C33.1701 25.2903 33.8391 25.9132 34.5698 26.4579Z" fill="url(#paint51_linear_689_15940)"/>
<path d="M31.8492 85.3803C31.3905 85.7243 30.9396 86.0759 30.565 86.3664C30.4569 86.3881 30.3447 86.3709 30.2481 86.3177C30.1516 86.2645 30.0769 86.1789 30.0375 86.0759C29.6018 85.3115 29.189 84.6005 28.738 83.882C28.4781 83.4692 28.6386 83.2781 29.0361 83.1175L31.5511 82.3531C31.6745 82.2986 31.814 82.2927 31.9416 82.3367C32.0692 82.3806 32.1754 82.4711 32.2391 82.5901C33.3704 84.1113 33.3551 84.2642 31.8492 85.3803Z" fill="url(#paint52_linear_689_15940)"/>
<path d="M29.0513 33.5978C29.4718 33.8118 29.5483 34.0259 29.296 34.4463C28.9062 35.0961 28.5315 35.7764 28.2028 36.4415C28.0499 36.7243 27.8971 36.9842 27.3926 36.8619L24.2889 36.258C23.8914 36.1739 23.9296 35.9293 24.0825 35.6465L25.7796 32.4206C25.9784 32.046 26.2001 31.9848 26.5441 32.2218C27.385 32.7111 28.2105 33.1621 29.0513 33.5978Z" fill="url(#paint53_linear_689_15940)"/>
<path d="M26.078 76.6811C26.9418 76.5053 27.7979 76.2683 28.6541 76.0542C28.9752 75.9396 29.0592 76.1842 29.1815 76.3982C30.5728 78.8368 30.5728 78.8368 28.0731 80.0369C26.9571 80.572 26.9494 80.572 26.4219 79.4865C26.1467 78.9132 25.9022 78.3093 25.5964 77.7513C25.2906 77.1933 25.3671 76.8263 26.078 76.6811Z" fill="url(#paint54_linear_689_15940)"/>
<path d="M27.2321 71.4066C27.4844 72.2475 26.8498 71.8118 26.5899 71.8729C25.8163 71.9199 25.0575 72.1063 24.3502 72.4233C23.7922 72.6603 23.4558 72.6144 23.2723 71.9647C22.8672 70.5505 22.4238 69.1592 21.9728 67.7603C21.8123 67.2405 21.9193 66.9959 22.5079 67.0952C23.4985 67.2797 24.5045 67.3693 25.5122 67.3628C25.902 67.3628 26.0472 67.6074 26.139 67.9132C26.5059 69.0751 26.8728 70.2447 27.2321 71.4066Z" fill="url(#paint55_linear_689_15940)"/>
<path d="M25.4658 41.1045C25.5692 41.1275 25.6659 41.174 25.7484 41.2405C25.8309 41.307 25.8969 41.3916 25.9413 41.4878C25.9857 41.584 26.0073 41.6891 26.0044 41.795C26.0015 41.9009 25.9741 42.0047 25.9245 42.0983C25.6416 42.9926 25.42 43.91 25.16 44.8273C25.0683 45.1789 24.9384 45.4694 24.4873 45.3624L21.529 44.8196C21.4516 44.8156 21.3763 44.7926 21.3099 44.7527C21.2434 44.7128 21.1878 44.6573 21.1478 44.5909C21.1078 44.5245 21.0847 44.4493 21.0805 44.3719C21.0763 44.2945 21.0912 44.2173 21.1238 44.147C21.4831 42.8627 21.8883 41.5708 22.2017 40.2866C22.3469 39.7515 22.5916 39.7209 23.0579 39.9731C23.8605 40.3936 24.7014 40.7605 25.4658 41.1045Z" fill="url(#paint56_linear_689_15940)"/>
<path d="M24.9919 62.9824C25.1142 63.5787 24.9919 63.8462 24.3268 63.8156C23.8987 63.8156 23.4706 63.8157 22.7979 63.8768C20.8257 63.9303 21.1314 64.3584 20.7492 62.0498C20.6116 61.2089 20.5275 60.3604 20.3747 59.5195C20.2218 58.6787 20.5123 58.6252 21.1926 58.8545C22.0576 59.1558 22.9379 59.411 23.8299 59.6189C24.0211 59.6417 24.1983 59.7305 24.3309 59.8701C24.4635 60.0097 24.5433 60.1912 24.5562 60.3834C24.7014 61.2472 24.8237 62.1186 24.9919 62.9824Z" fill="url(#paint57_linear_689_15940)"/>
<path d="M23.8221 50.0482C24.2272 50.1782 24.2731 50.4763 24.2578 50.8126C24.2196 51.9669 24.1737 53.1059 24.1813 54.2832C24.1813 54.8718 23.952 55.0476 23.4169 54.9177C22.5225 54.7189 21.6282 54.5431 20.7338 54.3596C20.6347 54.3527 20.538 54.3249 20.4504 54.278C20.3628 54.231 20.2861 54.1661 20.2254 54.0873C20.1648 54.0086 20.1215 53.9179 20.0984 53.8212C20.0754 53.7245 20.073 53.624 20.0916 53.5264C20.0916 52.8537 20.0916 52.1886 20.0916 51.5159H20.1528C20.214 50.7515 20.2904 49.9336 20.344 49.1462C20.344 48.6875 20.5503 48.5423 20.9861 48.7716C21.8922 49.2795 22.8411 49.7066 23.8221 50.0482Z" fill="url(#paint58_linear_689_15940)"/>
<defs>
<linearGradient id="paint0_linear_689_15940" x1="185.768" y1="100.195" x2="189.85" y2="100.195" gradientUnits="userSpaceOnUse">
<stop stop-color="#E4BC6C"/>
<stop offset="1" stop-color="#E9C786" stop-opacity="0"/>
</linearGradient>
<linearGradient id="paint1_linear_689_15940" x1="185.072" y1="86.9016" x2="189.322" y2="86.9016" gradientUnits="userSpaceOnUse">
<stop stop-color="#E4BC6C"/>
<stop offset="1" stop-color="#E9C786" stop-opacity="0"/>
</linearGradient>
<linearGradient id="paint2_linear_689_15940" x1="184.399" y1="106.968" x2="188.687" y2="106.968" gradientUnits="userSpaceOnUse">
<stop stop-color="#E4BC6C"/>
<stop offset="1" stop-color="#E9C786" stop-opacity="0"/>
</linearGradient>
<linearGradient id="paint3_linear_689_15940" x1="183.047" y1="79.1348" x2="187.465" y2="79.1348" gradientUnits="userSpaceOnUse">
<stop stop-color="#E4BC6C"/>
<stop offset="1" stop-color="#E9C786" stop-opacity="0"/>
</linearGradient>
<linearGradient id="paint4_linear_689_15940" x1="186.012" y1="93.8883" x2="189.888" y2="93.8883" gradientUnits="userSpaceOnUse">
<stop stop-color="#E4BC6C"/>
<stop offset="1" stop-color="#E9C786" stop-opacity="0"/>
</linearGradient>
<linearGradient id="paint5_linear_689_15940" x1="181.303" y1="113.985" x2="186.555" y2="113.985" gradientUnits="userSpaceOnUse">
<stop stop-color="#E4BC6C"/>
<stop offset="1" stop-color="#E9C786" stop-opacity="0"/>
</linearGradient>
<linearGradient id="paint6_linear_689_15940" x1="180.539" y1="72.1327" x2="184.85" y2="72.1327" gradientUnits="userSpaceOnUse">
<stop stop-color="#E4BC6C"/>
<stop offset="1" stop-color="#E9C786" stop-opacity="0"/>
</linearGradient>
<linearGradient id="paint7_linear_689_15940" x1="177.894" y1="119.703" x2="182.664" y2="119.703" gradientUnits="userSpaceOnUse">
<stop stop-color="#E4BC6C"/>
<stop offset="1" stop-color="#E9C786" stop-opacity="0"/>
</linearGradient>
<linearGradient id="paint8_linear_689_15940" x1="176.135" y1="65.1077" x2="181.288" y2="65.1077" gradientUnits="userSpaceOnUse">
<stop stop-color="#E4BC6C"/>
<stop offset="1" stop-color="#E9C786" stop-opacity="0"/>
</linearGradient>
<linearGradient id="paint9_linear_689_15940" x1="172.344" y1="124.978" x2="178.551" y2="124.978" gradientUnits="userSpaceOnUse">
<stop stop-color="#E4BC6C"/>
<stop offset="1" stop-color="#E9C786" stop-opacity="0"/>
</linearGradient>
<linearGradient id="paint10_linear_689_15940" x1="172.634" y1="57.5856" x2="175.753" y2="57.5856" gradientUnits="userSpaceOnUse">
<stop stop-color="#E4BC6C"/>
<stop offset="1" stop-color="#E9C786" stop-opacity="0"/>
</linearGradient>
<linearGradient id="paint11_linear_689_15940" x1="167.353" y1="129.32" x2="174.179" y2="129.32" gradientUnits="userSpaceOnUse">
<stop stop-color="#E4BC6C"/>
<stop offset="1" stop-color="#E9C786" stop-opacity="0"/>
</linearGradient>
<linearGradient id="paint12_linear_689_15940" x1="167.054" y1="51.7455" x2="171.694" y2="51.7455" gradientUnits="userSpaceOnUse">
<stop stop-color="#E4BC6C"/>
<stop offset="1" stop-color="#E9C786" stop-opacity="0"/>
</linearGradient>
<linearGradient id="paint13_linear_689_15940" x1="160.373" y1="133.609" x2="166.534" y2="133.609" gradientUnits="userSpaceOnUse">
<stop stop-color="#E4BC6C"/>
<stop offset="1" stop-color="#E9C786" stop-opacity="0"/>
</linearGradient>
<linearGradient id="paint14_linear_689_15940" x1="161.046" y1="44.9724" x2="164.876" y2="44.9724" gradientUnits="userSpaceOnUse">
<stop stop-color="#E4BC6C"/>
<stop offset="1" stop-color="#E9C786" stop-opacity="0"/>
</linearGradient>
<linearGradient id="paint15_linear_689_15940" x1="154.77" y1="39.461" x2="159.043" y2="39.461" gradientUnits="userSpaceOnUse">
<stop stop-color="#E4BC6C"/>
<stop offset="1" stop-color="#E9C786" stop-opacity="0"/>
</linearGradient>
<linearGradient id="paint16_linear_689_15940" x1="153.585" y1="136.842" x2="158.401" y2="136.842" gradientUnits="userSpaceOnUse">
<stop stop-color="#E4BC6C"/>
<stop offset="1" stop-color="#E9C786" stop-opacity="0"/>
</linearGradient>
<linearGradient id="paint17_linear_689_15940" x1="47.4209" y1="74.8695" x2="155.405" y2="74.8695" gradientUnits="userSpaceOnUse">
<stop stop-color="#E4BC6C"/>
<stop offset="1" stop-color="#E9C786" stop-opacity="0"/>
</linearGradient>
<linearGradient id="paint18_linear_689_15940" x1="145.26" y1="138.585" x2="150.917" y2="138.585" gradientUnits="userSpaceOnUse">
<stop stop-color="#E4BC6C"/>
<stop offset="1" stop-color="#E9C786" stop-opacity="0"/>
</linearGradient>
<linearGradient id="paint19_linear_689_15940" x1="148.67" y1="34.3547" x2="152.347" y2="34.3547" gradientUnits="userSpaceOnUse">
<stop stop-color="#E4BC6C"/>
<stop offset="1" stop-color="#E9C786" stop-opacity="0"/>
</linearGradient>
<linearGradient id="paint20_linear_689_15940" x1="141.537" y1="29.8215" x2="145.841" y2="29.8215" gradientUnits="userSpaceOnUse">
<stop stop-color="#E4BC6C"/>
<stop offset="1" stop-color="#E9C786" stop-opacity="0"/>
</linearGradient>
<linearGradient id="paint21_linear_689_15940" x1="-0.0661395" y1="85.0975" x2="200.651" y2="85.0975" gradientUnits="userSpaceOnUse">
<stop stop-color="#E4BC6C"/>
<stop offset="1" stop-color="#E9C786" stop-opacity="0"/>
</linearGradient>
<linearGradient id="paint22_linear_689_15940" x1="138.549" y1="139.816" x2="142.677" y2="139.816" gradientUnits="userSpaceOnUse">
<stop stop-color="#E4BC6C"/>
<stop offset="1" stop-color="#E9C786" stop-opacity="0"/>
</linearGradient>
<linearGradient id="paint23_linear_689_15940" x1="134.773" y1="25.5941" x2="138.495" y2="25.5941" gradientUnits="userSpaceOnUse">
<stop stop-color="#E4BC6C"/>
<stop offset="1" stop-color="#E9C786" stop-opacity="0"/>
</linearGradient>
<linearGradient id="paint24_linear_689_15940" x1="129.422" y1="140.251" x2="134.773" y2="140.251" gradientUnits="userSpaceOnUse">
<stop stop-color="#E4BC6C"/>
<stop offset="1" stop-color="#E9C786" stop-opacity="0"/>
</linearGradient>
<linearGradient id="paint25_linear_689_15940" x1="125.209" y1="21.4355" x2="132.555" y2="21.4355" gradientUnits="userSpaceOnUse">
<stop stop-color="#E4BC6C"/>
<stop offset="1" stop-color="#E9C786" stop-opacity="0"/>
</linearGradient>
<linearGradient id="paint26_linear_689_15940" x1="122.526" y1="140.014" x2="126.432" y2="140.014" gradientUnits="userSpaceOnUse">
<stop stop-color="#E4BC6C"/>
<stop offset="1" stop-color="#E9C786" stop-opacity="0"/>
</linearGradient>
<linearGradient id="paint27_linear_689_15940" x1="118.314" y1="17.8122" x2="122.121" y2="17.8122" gradientUnits="userSpaceOnUse">
<stop stop-color="#E4BC6C"/>
<stop offset="1" stop-color="#E9C786" stop-opacity="0"/>
</linearGradient>
<linearGradient id="paint28_linear_689_15940" x1="114.14" y1="139.089" x2="119.239" y2="139.089" gradientUnits="userSpaceOnUse">
<stop stop-color="#E4BC6C"/>
<stop offset="1" stop-color="#E9C786" stop-opacity="0"/>
</linearGradient>
<linearGradient id="paint29_linear_689_15940" x1="111.533" y1="15.4883" x2="115.684" y2="15.4883" gradientUnits="userSpaceOnUse">
<stop stop-color="#E4BC6C"/>
<stop offset="1" stop-color="#E9C786" stop-opacity="0"/>
</linearGradient>
<linearGradient id="paint30_linear_689_15940" x1="107.482" y1="137.836" x2="112.123" y2="137.836" gradientUnits="userSpaceOnUse">
<stop stop-color="#E4BC6C"/>
<stop offset="1" stop-color="#E9C786" stop-opacity="0"/>
</linearGradient>
<linearGradient id="paint31_linear_689_15940" x1="103.24" y1="13.134" x2="107.719" y2="13.134" gradientUnits="userSpaceOnUse">
<stop stop-color="#E4BC6C"/>
<stop offset="1" stop-color="#E9C786" stop-opacity="0"/>
</linearGradient>
<linearGradient id="paint32_linear_689_15940" x1="99.9597" y1="135.925" x2="103.79" y2="135.925" gradientUnits="userSpaceOnUse">
<stop stop-color="#E4BC6C"/>
<stop offset="1" stop-color="#E9C786" stop-opacity="0"/>
</linearGradient>
<linearGradient id="paint33_linear_689_15940" x1="95.7866" y1="11.544" x2="101.046" y2="11.544" gradientUnits="userSpaceOnUse">
<stop stop-color="#E4BC6C"/>
<stop offset="1" stop-color="#E9C786" stop-opacity="0"/>
</linearGradient>
<linearGradient id="paint34_linear_689_15940" x1="90.9928" y1="133.777" x2="98.3085" y2="133.777" gradientUnits="userSpaceOnUse">
<stop stop-color="#E4BC6C"/>
<stop offset="1" stop-color="#E9C786" stop-opacity="0"/>
</linearGradient>
<linearGradient id="paint35_linear_689_15940" x1="88.3332" y1="10.3358" x2="92.2089" y2="10.3358" gradientUnits="userSpaceOnUse">
<stop stop-color="#E4BC6C"/>
<stop offset="1" stop-color="#E9C786" stop-opacity="0"/>
</linearGradient>
<linearGradient id="paint36_linear_689_15940" x1="83.3339" y1="130.65" x2="89.0748" y2="130.65" gradientUnits="userSpaceOnUse">
<stop stop-color="#E4BC6C"/>
<stop offset="1" stop-color="#E9C786" stop-opacity="0"/>
</linearGradient>
<linearGradient id="paint37_linear_689_15940" x1="78.3269" y1="9.72437" x2="85.1227" y2="9.72437" gradientUnits="userSpaceOnUse">
<stop stop-color="#E4BC6C"/>
<stop offset="1" stop-color="#E9C786" stop-opacity="0"/>
</linearGradient>
<linearGradient id="paint38_linear_689_15940" x1="74.5423" y1="126.828" x2="81.6898" y2="126.828" gradientUnits="userSpaceOnUse">
<stop stop-color="#E4BC6C"/>
<stop offset="1" stop-color="#E9C786" stop-opacity="0"/>
</linearGradient>
<linearGradient id="paint39_linear_689_15940" x1="69.2757" y1="9.86201" x2="74.9478" y2="9.86201" gradientUnits="userSpaceOnUse">
<stop stop-color="#E4BC6C"/>
<stop offset="1" stop-color="#E9C786" stop-opacity="0"/>
</linearGradient>
<linearGradient id="paint40_linear_689_15940" x1="67.0973" y1="122.432" x2="72.6165" y2="122.432" gradientUnits="userSpaceOnUse">
<stop stop-color="#E4BC6C"/>
<stop offset="1" stop-color="#E9C786" stop-opacity="0"/>
</linearGradient>
<linearGradient id="paint41_linear_689_15940" x1="60.8444" y1="10.894" x2="66.1419" y2="10.894" gradientUnits="userSpaceOnUse">
<stop stop-color="#E4BC6C"/>
<stop offset="1" stop-color="#E9C786" stop-opacity="0"/>
</linearGradient>
<linearGradient id="paint42_linear_689_15940" x1="59.8728" y1="117.8" x2="65.8202" y2="117.8" gradientUnits="userSpaceOnUse">
<stop stop-color="#E4BC6C"/>
<stop offset="1" stop-color="#E9C786" stop-opacity="0"/>
</linearGradient>
<linearGradient id="paint43_linear_689_15940" x1="53.6588" y1="112.831" x2="59.3996" y2="112.831" gradientUnits="userSpaceOnUse">
<stop stop-color="#E4BC6C"/>
<stop offset="1" stop-color="#E9C786" stop-opacity="0"/>
</linearGradient>
<linearGradient id="paint44_linear_689_15940" x1="48.7047" y1="13.4625" x2="57.8856" y2="13.4625" gradientUnits="userSpaceOnUse">
<stop stop-color="#E4BC6C"/>
<stop offset="1" stop-color="#E9C786" stop-opacity="0"/>
</linearGradient>
<linearGradient id="paint45_linear_689_15940" x1="48.2001" y1="107.839" x2="52.6644" y2="107.839" gradientUnits="userSpaceOnUse">
<stop stop-color="#E4BC6C"/>
<stop offset="1" stop-color="#E9C786" stop-opacity="0"/>
</linearGradient>
<linearGradient id="paint46_linear_689_15940" x1="42.0924" y1="102.718" x2="47.5811" y2="102.718" gradientUnits="userSpaceOnUse">
<stop stop-color="#E4BC6C"/>
<stop offset="1" stop-color="#E9C786" stop-opacity="0"/>
</linearGradient>
<linearGradient id="paint47_linear_689_15940" x1="41.2593" y1="17.3994" x2="46.5492" y2="17.3994" gradientUnits="userSpaceOnUse">
<stop stop-color="#E4BC6C"/>
<stop offset="1" stop-color="#E9C786" stop-opacity="0"/>
</linearGradient>
<linearGradient id="paint48_linear_689_15940" x1="38.2852" y1="97.0382" x2="41.8704" y2="97.0382" gradientUnits="userSpaceOnUse">
<stop stop-color="#E4BC6C"/>
<stop offset="1" stop-color="#E9C786" stop-opacity="0"/>
</linearGradient>
<linearGradient id="paint49_linear_689_15940" x1="34.226" y1="21.8636" x2="40.1351" y2="21.8636" gradientUnits="userSpaceOnUse">
<stop stop-color="#E4BC6C"/>
<stop offset="1" stop-color="#E9C786" stop-opacity="0"/>
</linearGradient>
<linearGradient id="paint50_linear_689_15940" x1="32.1008" y1="90.7925" x2="37.9792" y2="90.7925" gradientUnits="userSpaceOnUse">
<stop stop-color="#E4BC6C"/>
<stop offset="1" stop-color="#E9C786" stop-opacity="0"/>
</linearGradient>
<linearGradient id="paint51_linear_689_15940" x1="28.2327" y1="27.0924" x2="34.9061" y2="27.0924" gradientUnits="userSpaceOnUse">
<stop stop-color="#E4BC6C"/>
<stop offset="1" stop-color="#E9C786" stop-opacity="0"/>
</linearGradient>
<linearGradient id="paint52_linear_689_15940" x1="28.6081" y1="84.3406" x2="33.0417" y2="84.3406" gradientUnits="userSpaceOnUse">
<stop stop-color="#E4BC6C"/>
<stop offset="1" stop-color="#E9C786" stop-opacity="0"/>
</linearGradient>
<linearGradient id="paint53_linear_689_15940" x1="23.9755" y1="34.4845" x2="29.4412" y2="34.4845" gradientUnits="userSpaceOnUse">
<stop stop-color="#E4BC6C"/>
<stop offset="1" stop-color="#E9C786" stop-opacity="0"/>
</linearGradient>
<linearGradient id="paint54_linear_689_15940" x1="25.4129" y1="78.2099" x2="30.1141" y2="78.2099" gradientUnits="userSpaceOnUse">
<stop stop-color="#E4BC6C"/>
<stop offset="1" stop-color="#E9C786" stop-opacity="0"/>
</linearGradient>
<linearGradient id="paint55_linear_689_15940" x1="21.904" y1="69.809" x2="27.2933" y2="69.809" gradientUnits="userSpaceOnUse">
<stop stop-color="#E4BC6C"/>
<stop offset="1" stop-color="#E9C786" stop-opacity="0"/>
</linearGradient>
<linearGradient id="paint56_linear_689_15940" x1="21.1238" y1="42.6028" x2="26.001" y2="42.6028" gradientUnits="userSpaceOnUse">
<stop stop-color="#E4BC6C"/>
<stop offset="1" stop-color="#E9C786" stop-opacity="0"/>
</linearGradient>
<linearGradient id="paint57_linear_689_15940" x1="20.3517" y1="61.3465" x2="25.0301" y2="61.3465" gradientUnits="userSpaceOnUse">
<stop stop-color="#E4BC6C"/>
<stop offset="1" stop-color="#E9C786" stop-opacity="0"/>
</linearGradient>
<linearGradient id="paint58_linear_689_15940" x1="20.0764" y1="51.837" x2="24.2578" y2="51.837" gradientUnits="userSpaceOnUse">
<stop stop-color="#E4BC6C"/>
<stop offset="1" stop-color="#E9C786" stop-opacity="0"/>
</linearGradient>
</defs>
</svg>
