<svg width="267" height="180" viewBox="0 0 267 180" fill="none" xmlns="http://www.w3.org/2000/svg">
<path d="M260.546 74.0381C260.802 78.3134 259.902 82.3024 259.084 86.3731C258.869 87.4777 258.869 88.6539 258.061 89.554C257.621 89.554 257.683 89.1346 257.621 88.8994C255.801 81.8353 254.001 74.7575 252.221 67.6661C251.802 66.0092 251.525 64.3114 251.198 62.6238C251.065 62.0663 251.119 61.4804 251.351 60.9566C253.473 56.6215 254.968 52.0069 255.791 47.2512C255.868 46.9959 255.964 46.7464 256.077 46.5045C258.425 55.5222 259.922 64.7406 260.546 74.0381Z" fill="black"/>
<path d="M253.653 96.8772C252.569 98.3603 251.475 99.8434 250.36 101.306C250.186 101.541 250.043 101.971 249.644 101.838C249.245 101.705 249.399 101.347 249.337 101.081C247.81 94.3032 246.105 87.5698 244.223 80.8807C243.773 79.2647 243.2 77.6896 242.689 76.094C242.556 75.7156 242.321 75.3474 242.628 74.9485C244.469 72.5143 246.197 69.988 247.824 67.4105L248.141 67.4923C248.672 70.1209 249.266 72.7393 249.716 75.3883C250.595 80.5023 252.099 85.4015 253.05 90.4541C253.398 92.2951 253.203 94.218 253.95 95.9976C254.124 96.3147 253.848 96.6215 253.653 96.8772Z" fill="black"/>
<path d="M245.112 104.712C245.353 105.436 245.366 106.217 245.148 106.949C244.93 107.681 244.493 108.328 243.895 108.803C242.197 110.327 240.612 111.984 239.006 113.61C238.362 114.244 238.096 114.193 237.84 113.273C236.214 107.33 235.201 101.234 233.381 95.343C232.706 93.1542 231.969 90.9961 231.233 88.8278C231.079 88.3777 230.946 88.0095 231.356 87.6106C234.363 84.7264 237.175 81.658 239.886 78.4873C240.021 78.3899 240.169 78.3108 240.326 78.2521C240.571 79.8783 240.776 81.4329 241.062 82.9876C242.381 90.2085 243.629 97.4908 245.112 104.712Z" fill="black"/>
<path d="M234.097 117.538C234.158 117.988 233.811 118.192 233.535 118.417C232.055 119.645 230.568 120.862 229.075 122.069C228.001 122.928 227.96 122.897 227.654 121.598C226.222 115.305 224.612 109.059 222.826 102.861C222.315 101.091 221.803 99.3421 221.179 97.6034C221.075 97.4097 221.045 97.1849 221.094 96.9706C221.143 96.7563 221.267 96.5669 221.445 96.4374C223.624 94.5862 225.792 92.7042 227.93 90.812C228.656 90.1677 228.707 90.587 228.84 91.2416C230.527 99.424 231.683 107.657 233.637 115.789C233.78 116.361 233.944 116.944 234.097 117.538Z" fill="black"/>
<path d="M223.491 125.597C223.593 126.334 223.143 126.559 222.785 126.804C220.811 128.185 218.796 129.515 216.853 130.895C215.983 131.529 215.697 131.233 215.462 130.343C213.876 124.38 212.24 118.427 210.184 112.608C209.612 110.818 208.929 109.066 208.138 107.361C208.064 107.265 208.013 107.154 207.989 107.036C207.964 106.917 207.966 106.795 207.996 106.678C208.025 106.56 208.081 106.451 208.159 106.359C208.237 106.266 208.335 106.193 208.445 106.144C211.596 104.016 214.654 101.756 217.651 99.4239C218.131 99.0455 218.469 98.8614 218.551 99.7308C219.338 107.565 221.281 115.175 222.918 122.846C223.153 123.838 223.327 124.81 223.491 125.597Z" fill="black"/>
<path d="M211.279 133.524C211.432 133.995 211.473 134.383 210.972 134.68L204.661 138.444C204.559 138.498 204.453 138.546 204.344 138.587C203.925 138.587 203.874 138.301 203.802 138.025C201.757 130.231 198.688 122.785 196.285 115.094C196.101 114.511 196.101 114.132 196.684 113.774C199.506 112.025 202.288 110.245 205.091 108.486C205.449 108.271 205.878 107.832 205.97 108.742C206.564 114.449 208.292 119.931 209.376 125.536C209.841 128.236 210.476 130.905 211.279 133.524Z" fill="black"/>
<path d="M199.169 140.96C199.282 141.563 198.791 141.717 198.412 141.911C195.344 143.466 192.368 144.979 189.361 146.555C188.573 146.974 188.338 146.708 188.102 145.951C186.722 141.42 185.331 136.889 183.889 132.389C182.947 129.472 181.834 126.613 180.554 123.828C180.217 123.092 180.329 122.805 181.035 122.417C184.727 120.586 188.338 118.602 191.938 116.587C192.255 116.403 192.797 115.748 192.961 116.781C193.881 122.611 195.763 128.185 197.41 133.821C198.095 136.183 198.668 138.556 199.169 140.96Z" fill="black"/>
<path d="M183.478 148.038C183.796 148.938 183.53 149.347 182.681 149.694C180.042 150.789 177.413 151.914 174.826 153.121C173.864 153.571 173.506 153.213 173.22 152.384C172.32 149.797 171.614 147.148 170.919 144.509C169.676 139.81 168.129 135.198 166.285 130.701C165.927 129.822 166.081 129.443 166.96 129.054C170.029 127.725 172.974 126.313 175.981 124.963L176.667 124.667C177.188 124.82 177.096 125.311 177.188 125.689C178.832 131.635 180.468 137.578 182.098 143.517C182.527 144.99 182.957 146.534 183.478 148.038Z" fill="black"/>
<path d="M168.721 154.471C169.017 155.177 168.833 155.494 168.148 155.749C165.427 156.772 162.696 157.734 159.965 158.818C159.116 159.145 158.81 158.889 158.656 158.04C157.633 152.078 155.956 146.268 154.361 140.438C153.9 138.751 153.338 137.094 152.816 135.621C152.632 134.915 153.01 134.782 153.348 134.598C156.232 133.452 159.127 132.317 162.001 131.151C163.024 130.742 162.85 131.591 162.962 132.051C164.629 138.699 166.256 145.348 167.913 152.016C168.113 152.855 168.384 153.676 168.721 154.471Z" fill="black"/>
<path d="M155.864 159.728C155.915 160.362 155.403 160.352 155.045 160.464C152.488 161.293 149.931 162.06 147.354 162.929C146.403 163.257 146.045 162.929 145.789 162.06C144.125 156.594 142.095 151.247 139.714 146.053C138.977 144.407 138.272 142.76 137.474 141.144C137.126 140.428 137.29 140.121 138.016 139.937C140.89 139.006 143.764 138.086 146.607 137.063C147.518 136.736 147.804 137.063 148.111 137.82C150.555 144.182 152.754 150.635 154.943 157.089L155.864 159.728Z" fill="black"/>
<path d="M140.766 163.901C140.879 164.321 140.961 164.75 140.398 164.924L130.671 167.461C129.567 167.542 129.649 166.908 129.485 166.489C128.462 162.459 127.439 158.409 126.417 154.379C125.619 151.311 124.79 148.242 123.911 145.174C123.665 144.345 123.911 144.018 124.688 143.803C127.531 143.067 130.365 142.249 133.188 141.451C133.74 141.297 134.21 141.144 134.364 141.962C135.714 148.283 138.056 154.318 139.826 160.516C140.153 161.631 140.46 162.756 140.766 163.901Z" fill="black"/>
<path d="M125.599 167.614C125.824 168.228 125.691 168.524 125.057 168.637C121.682 169.281 118.317 169.925 114.962 170.6C114.042 170.785 113.939 170.161 113.796 169.578C112.773 165.343 111.842 161.068 110.994 156.793C110.411 153.868 109.909 150.932 109.378 147.997C109.306 147.465 109.562 147.26 110.042 147.158C112.599 146.616 115.156 146.084 117.703 145.501C118.368 145.348 118.562 145.624 118.726 146.166C121.099 153.295 122.981 160.608 125.599 167.614Z" fill="black"/>
<path d="M111.177 170.068C111.587 170.856 111.546 171.204 110.584 171.326C106.779 171.817 102.975 172.349 99.1698 172.881C98.4538 172.963 98.147 172.687 98.0243 171.95C96.6333 164.954 95.1195 157.969 93.2273 151.085C92.9818 150.185 93.2273 149.96 94.0966 149.837C97.0934 149.428 100.08 148.978 103.056 148.467C103.946 148.303 104.273 148.467 104.468 149.387C105.831 155.357 107.608 161.225 109.786 166.949C110.183 168.017 110.647 169.059 111.177 170.068Z" fill="black"/>
<path d="M94.1988 172.267C94.4852 173.045 94.2601 173.29 93.4828 173.341C92.2964 173.403 91.1202 173.515 89.9337 173.607C88.9109 173.607 87.97 173.689 86.9983 173.781C86.2005 173.863 85.8527 173.566 85.6482 172.758C84.2844 167.528 82.9207 162.316 81.557 157.12C81.1479 155.575 80.7388 154.051 80.2274 152.527C79.8797 151.505 80.2274 151.239 81.1888 151.187C82.9378 151.095 84.697 150.952 86.4357 150.737C87.3972 150.615 87.8165 150.942 88.0824 151.852C89.6575 157.304 91.2839 162.745 92.8999 168.217C93.309 169.557 93.7181 170.927 94.1988 172.267Z" fill="black"/>
<path d="M81.5479 171.603C82.4071 173.976 82.499 173.945 79.9114 173.986H78.1931H76.2293V173.904H70.9619C70.3994 173.904 70.113 173.74 70.0005 173.086C68.8243 166.417 67.1572 159.841 65.6946 153.223C65.3673 151.74 65.3468 151.75 66.8912 151.74C68.9368 151.74 71.0642 151.74 73.1405 151.648C74.1633 151.587 74.6031 151.985 74.9304 152.947C77.0919 159.166 79.2978 165.384 81.5479 171.603Z" fill="black"/>
<path d="M64.2825 173.474C63.1063 173.321 61.7153 173.474 60.8255 172.942C59.9356 172.411 60.1095 170.795 59.8027 169.68C58.1355 164.034 56.7956 158.306 55.3944 152.599C55.0466 151.188 55.0466 151.167 56.5399 151.269C57.6343 151.341 58.9128 151.136 59.7822 151.627C60.6516 152.118 60.5493 153.601 60.8868 154.624C62.8608 160.679 64.5894 166.826 67.0952 172.697C67.3816 173.382 67.3406 173.72 66.5122 173.597C65.6837 173.474 65.0189 173.525 64.2825 173.474Z" fill="black"/>
<path d="M43.1515 150.462C42.9264 149.786 43.223 149.643 43.8981 149.786C45.463 150.022 47.1199 150.298 48.7768 150.513C49.5439 150.605 49.6155 151.177 49.7996 151.72C51.2827 156.516 52.6328 161.344 54.392 166.039C55.0975 168 55.9382 169.911 56.908 171.756C57.2762 172.441 57.2047 172.779 56.3558 172.595C54.4636 172.288 52.5714 171.961 50.669 171.695C49.8712 171.582 49.6462 171.071 49.3802 170.426C47.1183 164.301 45.1691 158.064 43.5401 151.74C43.4072 151.321 43.2946 150.881 43.1515 150.462Z" fill="black"/>
<path d="M46.3324 169.813C46.5637 170.102 46.6802 170.466 46.6596 170.836C44.0206 170.292 41.4124 169.609 38.8456 168.79C38.4058 168.657 38.2523 168.279 38.0989 167.88C35.4191 160.945 32.9134 153.939 29.8552 147.158C29.7427 146.923 29.487 146.636 29.7734 146.381C30.0598 146.125 30.2438 146.381 30.4688 146.463C32.5144 147.046 34.4577 147.669 36.4624 148.212C36.7358 148.284 36.9842 148.431 37.1807 148.634C37.3772 148.838 37.5142 149.091 37.5772 149.367C39.05 153.182 40.5025 156.997 41.9958 160.802C43.2021 163.915 44.6522 166.928 46.3324 169.813Z" fill="black"/>
<path d="M29.8244 158.429C31.1131 161.242 32.5245 164.003 34.0178 167.072C30.0596 165.578 26.3163 164.371 23.9945 160.771C23.1416 159.524 22.3596 158.23 21.6523 156.895C18.5839 150.663 15.6451 144.372 12.8358 138.024C12.7625 137.845 12.7043 137.661 12.6619 137.472C15.1665 139.188 17.7764 140.746 20.476 142.136C21.3382 142.481 22.1074 143.024 22.722 143.72C23.3366 144.416 23.7794 145.247 24.015 146.145C25.3651 150.482 27.9425 154.297 29.8244 158.429Z" fill="black"/>
<path d="M86.1399 107.903C79.7189 107.86 73.3002 108.161 66.9113 108.803C66.591 108.819 66.2702 108.819 65.95 108.803C66.2127 108.065 66.6312 107.391 67.1773 106.829C71.3707 101.398 75.5539 95.9466 79.778 90.536C81.2918 88.6029 82.3453 86.3732 83.8692 84.3992C84.4931 83.5708 84.0943 82.7525 83.0408 82.4559C81.8263 82.232 80.5742 82.3308 79.4098 82.7423C76.6688 83.4378 73.7436 83.448 71.2275 85.1254L71.0639 84.8288C72.639 82.9776 74.2755 81.1774 75.7585 79.2546C77.0644 77.4359 78.9939 76.1616 81.1793 75.6748C85.025 74.7747 88.6661 73.1076 92.5527 72.2484C93.8904 71.9156 95.2656 71.7575 96.6439 71.7779C97.2196 71.7442 97.7789 71.5735 98.2752 71.2799C98.7716 70.9864 99.1907 70.5785 99.4976 70.0903C102.31 66.8583 105.276 63.749 107.936 60.3738C112.886 54.0734 117.908 47.8241 122.551 41.2987C123.748 39.611 125.62 38.5167 126.735 36.8495C128.371 34.3539 130.754 33.8527 133.321 33.5459C138.558 32.9424 143.754 32.1242 148.97 31.3571C152.519 30.8355 156.068 30.232 159.617 29.6695C159.935 29.6183 160.252 29.6183 160.579 29.5876C160.579 30.1706 160.221 30.4775 159.965 30.815C154.268 38.4144 148.172 45.666 141.862 52.7539C140.44 54.3495 140.103 55.3314 140.839 56.3951C141.575 57.4588 142.741 57.7043 144.715 56.9167C148.939 55.2393 153.297 53.9813 157.643 52.6721C158.175 52.5085 158.728 52.3857 159.28 52.2528C159.546 52.7846 159.137 52.9994 158.942 53.2756C156.904 55.7285 155.009 58.2966 153.266 60.967C152.925 61.4229 152.443 61.7536 151.895 61.908C148.52 63.3092 144.889 63.8206 141.422 64.8741C138.48 65.8712 135.485 66.7077 132.452 67.3799C131.543 67.6085 130.605 67.6947 129.67 67.6356C128.831 67.5334 128.34 68.1266 127.89 68.73C126.857 70.2469 125.941 71.8402 125.149 73.4962C123.802 75.7879 122.147 77.8838 120.23 79.7251C118.46 81.5457 117.028 83.6321 115.238 85.422C115.019 85.6879 114.871 86.0049 114.807 86.3435C114.743 86.6821 114.766 87.0313 114.873 87.3588C114.98 87.6863 115.168 87.9814 115.42 88.2168C115.671 88.4522 115.978 88.6202 116.312 88.7052C116.955 88.8379 117.612 88.8792 118.266 88.8279C123.699 88.5995 129.115 88.0633 134.487 87.2221C142.506 86.1994 150.586 85.5652 158.554 84.1538C161.254 83.6628 163.954 83.223 166.624 82.6093C170.43 81.824 174.297 81.3689 178.181 81.249C178.529 81.249 178.989 81.0547 179.204 81.4024C179.419 81.7502 179.02 82.0775 178.795 82.3332C174.704 87.2017 171.032 92.4486 166.951 97.3478C166.774 97.5695 166.545 97.7442 166.285 97.8566C166.024 97.969 165.74 98.0155 165.458 97.9922C155.158 97.9001 145.002 99.4343 134.835 100.815C129.455 101.541 124.178 103.004 118.808 103.812C110.626 105.029 102.443 106.318 94.2608 107.739C91.5636 108.027 88.8466 108.081 86.1399 107.903Z" fill="black"/>
<path d="M234.865 35.0493C234.128 35.0493 234.057 35.4073 234.272 35.9903C234.837 37.487 235.182 39.0582 235.295 40.6542C235.295 41.36 235.632 41.677 236.317 41.677C237.376 41.6924 238.432 41.7847 239.478 41.9532C240.357 42.0964 240.746 41.8918 240.582 41.1759C240.426 39.3554 240.129 37.5498 239.693 35.7755C239.674 35.6154 239.622 35.4611 239.539 35.323C239.456 35.185 239.344 35.0663 239.211 34.9752C239.078 34.884 238.928 34.8225 238.769 34.7947C238.61 34.7669 238.447 34.7735 238.291 34.8141C237.156 34.9266 236.062 35.0084 234.865 35.0493ZM237.402 32.1037C237.678 32.0218 238.107 32.0218 237.984 31.4184C237.315 30.0069 236.462 28.6898 235.448 27.5011C235.264 27.2965 234.988 27.3579 234.752 27.4397C233.343 27.8589 231.904 28.1667 230.446 28.3603C229.72 28.4932 229.761 28.7591 230.17 29.2092C231.167 30.2929 232.042 31.4831 232.778 32.7583C232.812 32.858 232.866 32.9495 232.937 33.0266C233.008 33.1038 233.095 33.1647 233.192 33.2054C233.289 33.2461 233.394 33.2656 233.499 33.2625C233.604 33.2595 233.707 33.2341 233.801 33.1878C234.977 32.8094 236.195 32.4821 237.402 32.1037ZM127.175 83.8264C126.146 84.1259 125.073 84.2436 124.004 84.1741C123.943 83.7957 124.168 83.6321 124.301 83.448C126.756 80.0727 129.415 76.8407 130.714 72.7802C130.877 72.2688 131.286 72.1563 131.737 72.0847C133.639 71.8086 135.531 71.5017 137.433 71.2153C141.187 70.6528 144.982 70.1926 148.469 68.5663C149.407 68.0402 150.463 67.7588 151.538 67.7481C153.716 67.8708 155.026 66.5718 156.059 64.9354C157.766 62.2425 159.659 59.6724 161.725 57.244C163.166 55.5171 164.505 53.707 165.734 51.8232C166.45 50.7186 166.941 49.5321 166.164 48.2741C165.387 47.016 164.118 46.924 162.799 47.0467C159.873 47.372 156.996 48.0415 154.228 49.0412L150.137 50.3912C150.137 49.6957 150.556 49.3685 150.863 49.0616C156.468 42.7203 162.247 36.5426 167.074 29.5569C168.054 28.1466 168.777 26.5747 169.212 24.9134C169.529 23.727 168.721 22.7451 167.688 23.0826C165.901 23.496 164.091 23.8 162.267 23.9929C157.971 24.8316 153.655 25.5475 149.308 26.0385C143.928 26.6317 138.794 28.4114 133.496 29.4239C131.57 29.9471 129.612 30.3468 127.635 30.6206C125.682 30.7229 124.986 31.807 124.127 33.0958C122.877 35.1979 121.468 37.2016 119.913 39.0894C112.395 47.2717 104.99 55.5768 97.2377 63.5546C95.1016 65.897 92.2751 67.4984 89.1678 68.1265C85.4653 68.8936 81.9366 70.4585 78.2648 71.3994C77.3591 71.6058 76.5037 71.9906 75.7485 72.5315C74.9933 73.0725 74.3537 73.7585 73.8668 74.5496C70.3791 79.725 66.7072 84.7776 63.2093 89.953C62.906 90.2604 62.699 90.6495 62.6136 91.0728C62.5282 91.4961 62.5682 91.9351 62.7286 92.3361C63.2707 93.2975 64.2423 92.9088 65.0606 92.8065C65.4991 92.722 65.9299 92.6022 66.3492 92.4485C69.121 91.6201 72.0257 91.4258 74.9407 90.4541C74.7008 91.1197 74.3166 91.7239 73.8157 92.2236C70.4407 96.2256 66.8414 100.033 63.0353 103.628C60.8977 105.745 58.6272 107.719 57.6044 110.726C57.1237 112.117 57.2975 113.068 58.6272 113.15C59.742 113.222 60.7751 113.61 61.8592 113.753C69.4543 114.648 77.121 114.761 84.7392 114.091C91.1729 113.514 97.5735 112.612 103.917 111.391C109.746 110.368 115.658 109.764 121.509 108.844C126.919 108.005 132.217 106.471 137.659 105.868C146.956 104.845 156.222 103.382 165.622 103.413C167.667 103.413 169.621 102.871 170.408 100.559C170.47 100.385 170.674 100.252 170.807 100.099C176.443 92.9395 183.316 86.7004 186.783 77.976C187.1 77.168 187.571 76.3907 186.978 75.5622C186.384 74.7338 185.382 74.9383 184.513 75.1633C183.159 75.6177 181.746 75.8727 180.319 75.9202C177.497 75.874 174.674 76.0175 171.871 76.3498C167.135 76.7896 162.564 78.1192 157.9 78.9886C147.723 80.8808 137.352 81.7194 127.175 83.8264ZM245.42 24.7805C251.363 32.4821 252.293 41.0838 249.9 50.2481C247.773 58.3384 243.589 65.3752 238.537 71.9313C230.262 82.6911 220.126 91.5485 209.213 99.4445C190.21 113.14 169.437 123.439 147.477 131.437C133.711 136.48 119.552 140.376 105.144 143.087C92.6983 145.467 80.063 146.716 67.3925 146.82C56.6122 146.82 45.474 145.798 34.663 142.729C28.2029 141.024 22.0973 138.184 16.6311 134.342C5.72815 126.375 1.64722 115.196 4.88948 102.104C6.96102 93.5923 11.0476 85.7032 16.8051 79.1011C24.2934 70.4417 32.6949 62.6162 41.8635 55.7609C62.9024 40.1837 86.0176 28.6262 110.667 19.9631C124.925 14.9184 139.596 11.1298 154.514 8.64076C171.165 5.89967 187.888 4.71323 204.713 6.7179C214.634 7.89412 224.279 10.1443 233.198 14.8389C237.941 17.2321 242.111 20.6236 245.42 24.7805ZM240.081 48.2229C240.184 47.6297 239.918 47.4251 239.355 47.3331C238.199 47.1285 237.043 46.8933 235.908 46.5967C235.213 46.4126 234.957 46.5967 234.885 47.2922C234.736 48.1324 234.535 48.9625 234.282 49.7776C234.077 50.4219 234.221 50.8004 234.885 50.9538C236.062 51.2811 237.238 51.6186 238.394 51.9766C238.915 52.1607 239.15 51.9766 239.283 51.5061C239.508 50.4219 239.795 49.3173 240.081 48.2229ZM236.931 57.4894C237.166 56.9883 237.003 56.7428 236.532 56.5792C235.336 56.1695 234.193 55.6202 233.126 54.9427C232.697 54.6665 232.431 54.7074 232.185 55.1984C231.428 56.6814 230.651 58.1645 229.833 59.6169C229.495 60.1999 229.7 60.4862 230.191 60.7726C231.214 61.3761 232.236 62.0102 233.259 62.6239C233.433 62.7364 233.617 62.8284 233.771 62.9103C233.892 62.8789 234.005 62.8202 234.101 62.7387C234.197 62.6572 234.273 62.5549 234.323 62.4398C235.274 60.834 236.144 59.1819 236.931 57.4894ZM231.428 24.3304C232.073 24.1566 232.267 23.8906 231.674 23.3792C230.255 22.1419 228.74 21.0201 227.143 20.0244C226.867 19.8403 226.56 19.6869 226.243 19.9529C224.803 21.0873 223.217 22.023 221.528 22.7349C223.328 23.7577 224.729 24.9236 226.294 25.6294C228.033 26.4067 229.516 24.6884 231.203 24.4122L231.428 24.3304ZM230.15 68.5561C230.375 68.2697 230.856 67.8299 230.671 67.6458C229.475 66.5105 228.196 65.457 226.897 64.3319C226.652 64.5979 226.447 64.7922 226.274 65.007C225.66 65.7741 225.077 66.5616 224.463 67.3287C223.185 68.9243 223.174 68.955 225.005 69.8141C226.028 70.2642 226.959 71.3688 227.941 71.0721C228.923 70.7755 229.444 69.3948 230.15 68.5561ZM224.524 75.061C224.443 74.9397 224.354 74.8236 224.259 74.7133L221.262 71.9927C220.904 71.6654 220.638 71.7472 220.331 72.0745C219.779 72.6814 219.216 73.2746 218.643 73.8541C217.15 75.3781 217.15 75.3781 218.93 76.6157C221.548 78.426 221.548 78.4261 223.768 76.0736C224.116 75.798 224.378 75.429 224.524 75.0099V75.061ZM220.709 17.58C221.323 17.222 221.252 16.9458 220.648 16.7004C219.513 16.2503 218.377 15.8208 217.232 15.3912C217.007 15.2991 216.731 15.1969 216.536 15.3912C214.91 16.6867 213.202 17.8756 211.423 18.9505L215.33 20.2393C215.496 20.303 215.674 20.3278 215.852 20.3119C216.029 20.2959 216.2 20.2396 216.352 20.1472C217.812 19.2403 219.267 18.3675 220.72 17.5288L220.709 17.58ZM217.293 82.3945C217.621 82.0979 217.416 81.8013 217.191 81.5456C216.404 80.6046 215.595 79.6841 214.828 78.7329C214.44 78.242 214.112 78.1806 213.642 78.6408C212.875 79.3772 212.067 80.0625 211.269 80.758C209.162 82.5888 209.162 82.5888 211.586 83.9798L213.795 85.2685C213.925 85.2453 214.049 85.2003 214.164 85.1356C215.217 84.1741 216.26 83.2639 217.293 82.3434V82.3945ZM210.257 14.2457C210.768 13.7649 210.85 13.4683 210.062 13.3149L204.171 12.1796C203.854 12.1183 203.486 12.0569 203.261 12.3637C202.078 13.8338 200.818 15.2404 199.486 16.5776L206.513 17.7948C206.891 17.8561 207.117 17.6209 207.321 17.355C208.206 16.2184 209.188 15.1609 210.257 14.1945V14.2457ZM209.162 89.2574C209.622 88.9097 209.356 88.6642 209.06 88.3983C208.139 87.5289 207.219 86.6698 206.329 85.7697C205.992 85.4322 205.715 85.2992 205.306 85.6265C203.588 86.9255 201.849 88.204 200.11 89.4825C199.742 89.7586 199.66 90.0143 200.11 90.3518C201.133 91.211 202.156 92.1008 203.179 92.9702C203.34 93.0855 203.507 93.1913 203.68 93.2872C203.843 93.2266 204.001 93.1512 204.15 93.0622L209.162 89.2574ZM198.29 97.0818C198.515 96.9284 198.811 96.8159 198.801 96.4375C198.76 96.3303 198.709 96.2275 198.648 96.1306L196.183 92.9395C195.835 92.4895 195.508 92.6531 195.16 92.9395C193.626 93.9418 192.081 94.9305 190.527 95.9056C189.954 96.2738 189.903 96.5909 190.527 96.9898C191.611 97.7773 192.695 98.5751 193.769 99.3831C193.946 99.5231 194.167 99.5948 194.392 99.5855C194.617 99.5761 194.832 99.4861 194.996 99.332C196.04 98.5035 197.195 97.7773 198.29 97.0307V97.0818ZM196.49 11.9853C196.95 11.3818 196.664 11.2489 196.07 11.208C194.771 11.1261 193.472 11.0136 192.163 10.9114H189.842C189.361 10.9114 189.074 11.0443 189.044 11.5864C188.982 12.7728 188.88 13.9491 188.778 15.1253C188.778 15.6162 188.901 15.9026 189.432 15.9231C190.578 15.9742 191.713 16.0458 192.859 16.1174C193.04 16.1318 193.222 16.0977 193.385 16.0186C193.549 15.9395 193.688 15.8183 193.79 15.6674C194.69 14.348 195.579 13.1411 196.49 11.9342V11.9853ZM188.737 103.075C189.197 102.809 189.228 102.533 188.901 102.053C188.144 101.03 187.428 100.007 186.691 98.9842C186.558 98.7899 186.436 98.5649 186.108 98.5751C186.027 98.5751 185.904 98.6467 185.801 98.7081C183.92 99.7786 182.034 100.849 180.145 101.92C179.542 102.257 179.839 102.574 180.145 102.85C181.24 103.761 182.365 104.661 183.459 105.571C183.567 105.665 183.705 105.716 183.848 105.716C183.991 105.716 184.129 105.665 184.237 105.571L188.737 103.075ZM184.738 11.6478C184.973 10.9829 184.738 10.7579 184.073 10.7682C182.938 10.7682 181.792 10.7682 180.657 10.7682V10.9727C179.47 10.9727 178.284 10.9727 177.108 10.9727C176.371 10.9727 176.197 11.2693 176.33 11.9955C176.535 13.0797 176.688 14.1741 176.821 15.2582C176.893 15.8106 177.118 16.0458 177.681 16.0253C179.44 15.964 181.189 15.9128 182.948 15.8821C183.49 15.8821 183.776 15.6674 183.838 15.115C184.006 13.9125 184.308 12.7324 184.738 11.5966V11.6478ZM179.143 108.148C179.096 108.05 179.038 107.957 178.969 107.872C177.935 106.943 177.073 105.839 176.422 104.61C176.136 104.098 175.768 104.293 175.4 104.477C173.139 105.612 170.879 106.747 168.608 107.862C167.882 108.21 167.892 108.466 168.608 108.885C169.846 109.713 171.36 110.143 172.28 111.462C172.515 111.8 172.863 111.616 173.16 111.462L178.714 108.629C178.867 108.517 179.123 108.445 179.143 108.097V108.148ZM171.308 12.5683C171.411 11.6069 170.971 11.3614 170.091 11.5455C169.069 11.6887 167.984 11.7603 166.941 11.8728C164.589 12.108 164.589 12.1183 165.356 14.3275C166.266 16.9663 166.266 16.9663 169.069 16.6595C171.411 16.414 171.411 16.414 171.308 14.082C171.308 13.4888 171.267 12.9978 171.308 12.5171V12.5683ZM167.616 114.163C166.14 113.309 164.847 112.173 163.811 110.818C163.443 110.337 163.085 110.44 162.635 110.634C160.59 111.554 158.452 112.485 156.335 113.344C155.476 113.702 155.537 114.03 156.099 114.633C156.928 115.533 157.705 116.484 158.452 117.446C158.5 117.532 158.564 117.608 158.642 117.669C158.72 117.73 158.809 117.775 158.905 117.801C159 117.827 159.1 117.833 159.198 117.819C159.296 117.806 159.39 117.773 159.475 117.722C162.093 116.515 164.711 115.38 167.616 114.111V114.163ZM160.549 17.6209C161.152 17.5493 161.418 17.355 161.336 16.7004C161.193 15.606 161.091 14.5014 161.04 13.407C161.04 12.7524 160.763 12.5069 160.119 12.6297C157.664 13.0388 155.22 13.4581 152.755 13.8468C152.039 13.9695 151.947 14.215 152.417 14.7775C153.211 15.658 153.898 16.6296 154.463 17.672C154.56 17.9389 154.758 18.157 155.014 18.2794C155.271 18.4018 155.565 18.4188 155.834 18.3266C157.399 17.9993 158.974 17.7743 160.549 17.5697V17.6209ZM153.082 120.33C153.655 120.115 153.727 119.829 153.328 119.307C152.593 118.366 151.981 117.335 151.507 116.239C151.282 115.727 151.047 115.441 150.403 115.686C148.275 116.525 146.127 117.313 143.979 118.111C143.601 118.254 143.315 118.417 143.386 118.888C143.754 120.228 144.123 121.568 144.501 122.907C144.613 123.337 144.931 123.316 145.278 123.184L153.082 120.33ZM149.421 19.4517C149.86 19.3596 149.922 19.1142 149.799 18.7357C149.431 17.6107 149.063 16.4856 148.715 15.3503C148.572 14.89 148.336 14.6752 147.815 14.7877C145.708 15.248 143.581 15.6878 141.463 16.1378C140.942 16.2503 140.758 16.506 141.116 16.9867C142.086 18.1461 143.146 19.2268 144.286 20.2188C144.429 20.3517 144.736 20.3313 144.951 20.3824L149.421 19.4517ZM138.426 125.526C138.743 125.434 139.08 125.342 138.988 124.82C138.374 123.539 138.026 122.148 137.965 120.729C137.904 120.136 137.464 120.361 137.127 120.463L130.121 122.652C129.609 122.805 129.333 122.999 129.65 123.603C130.233 124.718 130.775 125.863 131.307 127.009C131.34 127.109 131.394 127.2 131.465 127.277C131.537 127.354 131.624 127.415 131.722 127.455C131.819 127.494 131.924 127.513 132.029 127.508C132.134 127.504 132.236 127.476 132.33 127.428L138.426 125.526ZM134.928 22.7144C136.073 22.4894 136.278 22.0394 135.858 20.9859C135.577 20.1322 135.369 19.2563 135.235 18.3675C135.142 17.8561 134.907 17.672 134.396 17.8152L127.533 19.6869C127.021 19.8301 126.889 20.0858 127.185 20.5768C127.799 21.5996 128.361 22.6224 128.955 23.6451C129.098 23.8906 129.241 24.1463 129.63 24.0849L130.315 23.9008C131.849 23.5531 133.373 23.0315 134.928 22.7144ZM125.426 129.423C125.947 129.29 126.04 129.034 125.845 128.533C125.426 127.387 125.047 126.221 124.669 125.055C124.536 124.677 124.393 124.37 123.82 124.503L116.804 126.303C116.231 126.446 116.344 126.907 116.446 127.326C116.763 128.471 117.1 129.596 117.469 130.742C117.477 130.844 117.51 130.942 117.565 131.028C117.619 131.115 117.694 131.186 117.782 131.238C117.871 131.289 117.97 131.318 118.072 131.323C118.174 131.327 118.276 131.307 118.369 131.264C120.69 130.619 123.053 130.016 125.426 129.423ZM123.053 26.0487C123.575 25.8953 123.841 25.6805 123.585 25.0975C123.158 24.0829 122.849 23.0225 122.664 21.9371C122.603 21.6098 122.531 21.262 122.04 21.3029C119.719 22.07 117.397 22.8269 115.085 23.6247C114.482 23.8293 114.799 24.177 115.085 24.4327C116.108 25.343 117.131 26.2431 118.082 27.1431C118.217 27.2699 118.386 27.3532 118.568 27.3824C118.751 27.4116 118.938 27.3853 119.105 27.3068C120.421 26.8499 121.737 26.4306 123.053 26.0487ZM112.119 29.6899C112.815 29.4342 112.805 29.1478 112.426 28.6671C111.817 27.8999 111.321 27.0491 110.953 26.1408C110.667 25.3634 110.258 25.3021 109.542 25.5782C107.343 26.4578 105.113 27.2556 102.904 28.125C101.857 28.439 100.859 28.8968 99.9379 29.4853C101.053 30.5081 102.127 31.5309 103.19 32.5537C103.548 32.9014 103.916 32.7992 104.315 32.6458C106.913 31.6332 109.511 30.6411 112.119 29.6899ZM111.035 132.88C111.414 132.798 111.751 132.655 111.608 132.02C111.352 130.788 111.205 129.535 111.168 128.277C111.168 127.684 110.78 127.653 110.319 127.745C108.519 128.103 106.729 128.471 104.929 128.768C104.285 128.891 104.152 129.187 104.356 129.791C104.735 130.906 105.062 132.041 105.379 133.186C105.389 133.302 105.427 133.413 105.49 133.51C105.552 133.608 105.637 133.689 105.738 133.746C105.838 133.803 105.951 133.835 106.067 133.839C106.183 133.844 106.298 133.82 106.402 133.769L111.035 132.88ZM99.6822 134.976C100.163 134.905 100.592 134.762 100.367 133.851C100.306 132.951 100.214 131.806 100.173 130.589C100.173 129.862 99.856 129.719 99.1503 129.832C96.6956 130.207 94.2341 130.548 91.7657 130.854C91.1112 130.936 90.9474 131.212 91.06 131.877C91.2747 133.043 91.4589 134.209 91.5918 135.386C91.6634 136.02 92.0214 136.091 92.5226 136.03L99.6822 134.976ZM98.3218 35.0391C98.5775 34.9368 98.8946 34.8754 98.8741 34.5175C98.8741 34.4152 98.8025 34.3436 98.7616 34.272C98.148 33.2492 97.524 32.1548 96.9308 31.0911C96.7058 30.6922 96.4297 30.7434 96.1024 30.8866L89.2701 33.9549C88.7689 34.1902 88.6564 34.4561 89.178 34.8141C90.2008 35.571 91.3055 36.338 92.3589 37.1154C92.5198 37.2384 92.7135 37.3108 92.9156 37.3236C93.1178 37.3363 93.3191 37.2887 93.4942 37.1869C95.1 36.4505 96.716 35.755 98.3218 35.0493V35.0391ZM86.9995 40.1531C87.5518 39.8769 87.5007 39.6007 87.1325 39.2325C86.3099 38.4381 85.576 37.5568 84.9437 36.604C84.6164 36.113 84.2788 36.2767 83.9209 36.471L75.1146 41.002C74.5112 41.3088 74.4089 41.5747 74.9817 42.0248C75.8817 42.7305 76.7408 43.4772 77.6204 44.2136C77.7092 44.3081 77.8173 44.3825 77.9373 44.4319C78.0572 44.4813 78.1863 44.5045 78.316 44.5C78.4554 44.4534 78.592 44.3988 78.7251 44.3363C81.4764 42.9862 84.2277 41.5543 86.9995 40.1735V40.1531ZM85.9767 133.596C86.0687 131.55 86.0687 131.55 83.9311 131.663H83.205C80.5866 131.836 80.5865 131.836 80.5661 134.485C80.5661 136.971 80.5662 136.971 82.9595 136.817H83.8084C85.854 136.684 85.8539 136.684 85.9255 134.567C85.9255 134.404 85.9255 134.24 85.9255 134.076C85.9971 133.943 85.9869 133.78 85.9972 133.616L85.9767 133.596ZM76.2294 133.084C76.4033 132.379 76.2294 132.061 75.4828 132.133C74.2964 132.133 73.1202 132.133 71.9337 132.133V132.205H69.2438C67.1982 132.205 67.28 131.785 66.963 134.148C66.891 134.797 66.7713 135.439 66.6049 136.071C66.298 137.094 66.7276 137.278 67.6277 137.267C69.8267 137.267 72.036 137.216 74.2248 137.267C75.3396 137.267 75.7283 136.909 75.759 135.815C75.8304 134.897 75.9949 133.989 76.2499 133.105L76.2294 133.084ZM72.077 47.9979C72.5883 47.7013 72.5167 47.4251 72.169 47.0467C71.4797 46.3531 70.8406 45.6114 70.2563 44.8272C70.1975 44.6881 70.1056 44.5654 69.9887 44.4698C69.8717 44.3741 69.7334 44.3083 69.5854 44.2781C69.4374 44.2479 69.2842 44.2542 69.1392 44.2964C68.9941 44.3386 68.8615 44.4155 68.7529 44.5204C66.605 45.8603 64.4161 47.1285 62.2682 48.4582C59.6192 50.1049 59.6193 50.1253 62.3502 51.7004C62.9062 52.1174 63.5238 52.4453 64.1809 52.6721C64.3352 52.6179 64.4857 52.5529 64.631 52.4777C67.1368 51.0049 69.6119 49.5014 72.0973 48.0184L72.077 47.9979ZM62.8104 132.747C63.0047 132.215 62.8104 131.99 62.299 131.949C61.2762 131.867 60.3454 131.734 59.3738 131.703C58.1567 131.703 56.7248 130.875 55.8145 131.581C54.9042 132.286 55.1291 133.851 54.7098 134.997C54.7098 135.068 54.7098 135.15 54.6382 135.232C54.3825 135.928 54.5461 136.255 55.3541 136.357C56.8167 136.48 58.2691 136.684 59.7317 136.858C60.3454 136.705 61.1739 137.319 61.5319 136.326C61.9819 135.15 62.3808 133.954 62.8308 132.767L62.8104 132.747ZM59.6602 55.6689C59.575 55.5167 59.4756 55.3729 59.3635 55.2393L56.6225 52.7948C56.2748 52.4777 55.9577 52.5902 55.5997 52.7948C53.5541 54.2472 51.5699 55.7098 49.5345 57.1519C48.9822 57.5406 49.0742 57.8372 49.6265 58.1031C50.7311 58.6554 51.8358 59.1771 52.9098 59.7498C53.1052 59.863 53.3325 59.9083 53.5564 59.8787C53.7803 59.8491 53.988 59.7463 54.1473 59.5862C55.7736 58.4202 57.4101 57.2746 59.0363 56.1189C59.2818 56.0268 59.4557 55.8632 59.6807 55.6893L59.6602 55.6689ZM51.4778 131.427C51.7335 130.926 51.621 130.691 51.0789 130.568L44.5023 129.146C44.3577 129.07 44.1903 129.05 44.0319 129.09C43.8734 129.13 43.735 129.226 43.6432 129.361C42.7124 130.384 41.7817 131.407 40.8407 132.43C40.2884 133.033 40.7691 133.186 41.2192 133.319C43.7148 134.097 46.2514 134.731 48.8084 135.263C49.0158 135.319 49.2366 135.294 49.4264 135.193C49.6162 135.092 49.7609 134.924 49.8312 134.721C50.3494 133.637 50.888 132.546 51.4471 131.448L51.4778 131.427ZM47.9594 64.4649C48.4094 64.0865 48.3072 63.8512 47.8878 63.5239C47.0082 62.8591 46.1491 62.1738 45.3206 61.4783C45.2563 61.4063 45.1775 61.3486 45.0894 61.3091C45.0012 61.2696 44.9058 61.2492 44.8092 61.2492C44.7126 61.2492 44.6172 61.2696 44.529 61.3091C44.4409 61.3486 44.3621 61.4063 44.2978 61.4783L38.4679 66.5412C38.0179 66.9298 38.1201 67.206 38.6519 67.4106C39.96 67.866 41.3049 68.2082 42.6716 68.4333C42.832 68.468 42.9982 68.4657 43.1576 68.4267C43.3171 68.3878 43.4656 68.3131 43.592 68.2083C45.0239 66.8992 46.4763 65.6513 47.9594 64.4649ZM39.235 128.574C39.726 127.899 39.6543 127.551 38.8361 127.265C36.4649 126.384 34.1838 125.278 32.0243 123.961C31.8197 123.838 31.5947 123.736 31.3697 123.613C31.2119 123.672 31.0611 123.747 30.9197 123.838C29.8969 124.667 28.9354 125.516 27.9433 126.364C27.4421 126.794 27.7796 127.05 28.1478 127.295C30.7209 129.02 33.4624 130.48 36.3302 131.652C36.4324 131.716 36.5475 131.757 36.6672 131.771C36.7868 131.785 36.9082 131.773 37.0225 131.735C37.1368 131.696 37.2413 131.634 37.3285 131.55C37.4157 131.467 37.4834 131.366 37.5269 131.253C38.0588 130.292 38.6622 129.392 39.235 128.533V128.574ZM38.7644 72.6473C39.1633 72.2586 39.1224 71.9927 38.6008 71.737C37.5759 71.2293 36.6175 70.5972 35.7472 69.855C35.6836 69.7883 35.6059 69.7366 35.5199 69.7035C35.4338 69.6704 35.3415 69.6568 35.2496 69.6637C35.1576 69.6705 35.0683 69.6976 34.9881 69.7431C34.9079 69.7886 34.8388 69.8512 34.7858 69.9266C32.1189 72.5712 29.6153 75.3754 27.2887 78.3238C26.9103 78.8045 27.0228 79.0499 27.5956 79.1522L31.6868 79.8477C31.8357 79.862 31.9857 79.8341 32.1195 79.7672C32.2534 79.7002 32.3657 79.597 32.4436 79.4693C34.462 77.1032 36.5688 74.8292 38.7644 72.6473ZM28.0456 85.2583C28.3626 84.7878 28.2808 84.5424 27.7387 84.3787C26.7845 84.1537 25.8479 83.8597 24.9362 83.4991C24.0055 83.09 23.5146 83.3968 23.0748 84.1946C22.1543 85.8822 21.1417 87.5085 20.2416 89.2063C19.8632 89.9018 19.0347 90.7303 19.4643 91.3746C19.8939 92.019 20.9064 91.3746 21.5099 91.3746C22.3179 91.3746 22.9726 91.2928 23.6272 91.2723C23.8517 91.2927 24.0773 91.2463 24.2756 91.1389C24.474 91.0316 24.6362 90.868 24.742 90.6689C25.7346 88.7947 26.8377 86.9812 28.0456 85.2379V85.2583ZM27.1148 121.261C27.5341 120.811 27.4217 120.524 27.0228 120.156C25.9137 119.132 24.916 117.994 24.0464 116.76C23.8418 116.494 23.6475 116.229 23.2691 116.31C21.9906 116.556 20.7019 116.791 19.4336 117.077C18.7585 117.231 19.0552 117.66 19.2598 118.018C20.5191 120.169 22.0754 122.132 23.8828 123.848C24.3022 124.257 24.5987 124.237 24.9669 123.777C25.6522 122.897 26.3886 122.048 27.1148 121.24V121.261ZM20.7735 112.802C21.4179 112.628 21.6633 112.332 21.4179 111.646C20.9981 110.539 20.7331 109.379 20.6303 108.2C20.6303 107.739 20.3643 107.555 19.9348 107.514L16.5289 107.177C15.9766 107.085 15.8027 107.279 15.9357 107.852C16.2323 109.161 16.4573 110.491 16.7539 111.81C17.2755 114.04 17.2858 114.04 19.3928 113.283C19.853 113.099 20.303 112.904 20.7735 112.782V112.802ZM21.1724 100.324C21.6122 98.1148 21.6121 98.1149 19.3006 97.8489C16.9891 97.583 16.8357 97.5625 16.355 100.038C15.8743 102.513 15.8845 102.421 18.2983 102.298C20.7121 102.175 20.8042 102.155 21.1724 100.263V100.324Z" fill="black"/>
<path d="M239.477 41.9637C238.432 41.7952 237.375 41.7029 236.317 41.6875C235.58 41.6875 235.294 41.3909 235.294 40.6647C235.181 39.0687 234.837 37.4975 234.271 36.0008C234.056 35.4178 234.128 35.0905 234.864 35.0598C236.01 35.0598 237.155 34.9371 238.291 34.8041C238.447 34.7635 238.609 34.7569 238.768 34.7847C238.927 34.8125 239.078 34.874 239.211 34.9652C239.343 35.0563 239.455 35.175 239.538 35.3131C239.621 35.4511 239.674 35.6054 239.692 35.7655C240.128 37.5398 240.426 39.3454 240.582 41.1659C240.745 41.8716 240.357 42.0762 239.477 41.9637Z" fill="url(#paint0_linear_689_16020)"/>
<path d="M239.354 47.3329C239.917 47.425 240.183 47.6295 240.081 48.2228C239.794 49.3172 239.508 50.4218 239.232 51.5264C239.099 52.0071 238.864 52.181 238.342 51.9969C237.186 51.6184 236.01 51.2809 234.834 50.9741C234.169 50.8002 234.026 50.4422 234.23 49.7979C234.483 48.9828 234.685 48.1527 234.834 47.3125C234.957 46.6374 235.212 46.4329 235.857 46.617C237.084 46.8931 238.199 47.1284 239.354 47.3329Z" fill="url(#paint1_linear_689_16020)"/>
<path d="M235.447 27.5009C236.461 28.6896 237.314 30.0067 237.984 31.4182C238.107 32.0216 237.677 32.0216 237.401 32.1034C236.194 32.4819 234.977 32.8092 233.77 33.1876C233.676 33.2338 233.572 33.2593 233.467 33.2623C233.362 33.2654 233.258 33.2459 233.161 33.2052C233.064 33.1645 232.977 33.1035 232.906 33.0264C232.834 32.9493 232.78 32.8578 232.747 32.758C232.011 31.4829 231.136 30.2927 230.139 29.209C229.73 28.7589 229.689 28.493 230.415 28.36C231.872 28.1665 233.312 27.8587 234.721 27.4395C235.038 27.3577 235.263 27.2963 235.447 27.5009Z" fill="url(#paint2_linear_689_16020)"/>
<path d="M236.532 56.5791C237.002 56.7428 237.166 56.9882 236.931 57.4894C236.128 59.1829 235.24 60.8351 234.272 62.4397C234.221 62.5549 234.145 62.6571 234.05 62.7387C233.954 62.8202 233.841 62.8789 233.719 62.9102C233.566 62.8284 233.382 62.7364 233.208 62.6239C232.185 62.0102 231.162 61.3761 230.14 60.7726C229.649 60.4862 229.444 60.1998 229.782 59.6168C230.6 58.1645 231.377 56.6814 232.134 55.1984C232.38 54.7074 232.645 54.6665 233.075 54.9427C234.158 55.6238 235.319 56.1732 236.532 56.5791Z" fill="url(#paint3_linear_689_16020)"/>
<path d="M227.142 20.0246C228.739 21.0202 230.254 22.1421 231.672 23.3794C232.266 23.8908 232.071 24.1567 231.427 24.3306L231.202 24.4124C229.514 24.6886 228.031 26.458 226.293 25.6295C224.728 24.9238 223.326 23.7783 221.526 22.735C223.216 22.0232 224.801 21.0875 226.241 19.953C226.559 19.6871 226.855 19.8405 227.142 20.0246Z" fill="url(#paint4_linear_689_16020)"/>
<path d="M230.671 67.595C230.855 67.7791 230.374 68.2189 230.149 68.5053C229.443 69.3951 228.942 70.7247 227.94 71.0213C226.938 71.318 225.996 70.2133 225.004 69.7633C223.174 68.9041 223.184 68.8735 224.462 67.2779C225.076 66.5108 225.659 65.7233 226.273 64.9562C226.447 64.7414 226.651 64.5471 226.897 64.2811C228.196 65.4062 229.474 66.5108 230.671 67.595Z" fill="url(#paint5_linear_689_16020)"/>
<path d="M224.258 74.6927C224.353 74.803 224.442 74.9191 224.523 75.0404C224.37 75.4447 224.108 75.7987 223.767 76.0632C221.547 78.4157 221.547 78.4157 218.929 76.6053C217.149 75.3677 217.149 75.3677 218.642 73.8438C219.215 73.2574 219.778 72.6641 220.33 72.0641C220.637 71.7368 220.903 71.655 221.261 71.9823L224.258 74.6927Z" fill="url(#paint6_linear_689_16020)"/>
<path d="M220.648 16.6493C221.251 16.8947 221.323 17.1709 220.709 17.5288C219.257 18.3675 217.821 19.2165 216.403 20.0756C216.251 20.168 216.08 20.2243 215.902 20.2403C215.725 20.2563 215.546 20.2314 215.38 20.1677L211.473 18.8789C213.253 17.804 214.961 16.6151 216.587 15.3196C216.781 15.1458 217.058 15.248 217.283 15.3196C218.377 15.7697 219.512 16.1992 220.648 16.6493Z" fill="url(#paint7_linear_689_16020)"/>
<path d="M217.19 81.4946C217.415 81.7503 217.62 82.0469 217.293 82.3435C216.27 83.264 215.247 84.1743 214.163 85.0846C214.048 85.1494 213.924 85.1943 213.795 85.2176L211.585 83.9288C209.161 82.5378 209.161 82.5378 211.268 80.707C212.066 80.0115 212.874 79.3263 213.641 78.5898C214.112 78.1296 214.439 78.191 214.828 78.6819C215.605 79.6331 216.403 80.5536 217.19 81.4946Z" fill="url(#paint8_linear_689_16020)"/>
<path d="M210.061 13.264C210.848 13.4175 210.767 13.7141 210.255 14.1948C209.191 15.1319 208.209 16.1585 207.32 17.2632C207.115 17.5291 206.89 17.7643 206.512 17.703L199.485 16.4858C200.816 15.1486 202.076 13.742 203.259 12.2719C203.484 11.9651 203.852 12.0265 204.169 12.0878L210.061 13.264Z" fill="url(#paint9_linear_689_16020)"/>
<path d="M209.059 88.3472C209.355 88.6131 209.621 88.8586 209.161 89.2063L204.047 93.0111C203.897 93.1001 203.74 93.1754 203.577 93.2361C203.403 93.1402 203.236 93.0344 203.075 92.9191C202.053 92.0497 201.03 91.1599 200.007 90.3007C199.598 89.9632 199.68 89.7075 200.007 89.4313C201.746 88.1528 203.484 86.8744 205.203 85.5754C205.632 85.2481 205.908 85.3811 206.226 85.7186C207.218 86.6186 208.138 87.4778 209.059 88.3472Z" fill="url(#paint10_linear_689_16020)"/>
<path d="M198.8 96.3863C198.8 96.7648 198.514 96.8773 198.289 97.0307C197.164 97.7773 196.039 98.5035 194.913 99.2399C194.749 99.3941 194.535 99.484 194.309 99.4934C194.084 99.5028 193.863 99.431 193.686 99.2911C192.663 98.483 191.528 97.6853 190.444 96.8977C189.871 96.4988 189.922 96.1818 190.444 95.8136C191.998 94.8453 193.543 93.8566 195.077 92.8475C195.456 92.602 195.783 92.4383 196.1 92.8475L198.565 96.0386C198.657 96.1444 198.736 96.2612 198.8 96.3863Z" fill="url(#paint11_linear_689_16020)"/>
<path d="M192.162 10.8193C193.471 10.9216 194.77 11.0341 196.069 11.116C196.662 11.116 196.949 11.2899 196.488 11.8933C195.578 13.1002 194.688 14.3173 193.788 15.5344C193.687 15.6854 193.547 15.8066 193.384 15.8857C193.22 15.9648 193.039 15.9989 192.857 15.9845C191.712 15.9129 190.577 15.8413 189.431 15.7901C188.899 15.7901 188.736 15.4833 188.776 14.9924C188.879 13.8162 188.981 12.6399 189.042 11.4535C189.042 10.9114 189.36 10.7682 189.84 10.7785L192.162 10.8193Z" fill="url(#paint12_linear_689_16020)"/>
<path d="M188.899 102.042C189.227 102.482 189.196 102.758 188.736 103.065L184.266 105.622C184.158 105.716 184.02 105.767 183.878 105.767C183.735 105.767 183.597 105.716 183.489 105.622C182.394 104.712 181.269 103.812 180.175 102.902C179.837 102.625 179.541 102.308 180.175 101.971C182.071 100.907 183.956 99.8365 185.831 98.7592C185.933 98.6978 186.056 98.6671 186.138 98.6262C186.465 98.6262 186.588 98.841 186.721 99.0353C187.427 99.9865 188.143 101.04 188.899 102.042Z" fill="url(#paint13_linear_689_16020)"/>
<path d="M186.966 75.5621C187.559 76.3905 187.089 77.1678 186.772 77.9758C183.305 86.7003 176.431 92.9598 170.796 100.099C170.663 100.252 170.458 100.385 170.397 100.559C169.609 102.871 167.697 103.423 165.61 103.413C156.211 103.413 146.944 104.845 137.647 105.867C132.206 106.471 126.908 108.005 121.497 108.844C115.647 109.764 109.735 110.358 103.905 111.391C97.5619 112.612 91.1613 113.514 84.7275 114.091C77.1094 114.761 69.4427 114.648 61.8476 113.753C60.7635 113.61 59.7304 113.221 58.6156 113.15C57.245 113.068 57.0711 112.127 57.5928 110.726C58.6156 107.719 60.8861 105.745 63.0237 103.628C66.8298 100.033 70.4291 96.2255 73.804 92.2234C74.305 91.7238 74.6891 91.1195 74.9291 90.4539C72.0141 91.3847 69.1095 91.6199 66.3377 92.4484C65.9184 92.6021 65.4875 92.7218 65.049 92.8064C64.2307 92.9086 63.2591 93.2973 62.717 92.3359C62.5566 91.935 62.5166 91.4959 62.602 91.0727C62.6874 90.6494 62.8944 90.2602 63.1977 89.9528C66.7365 84.8388 70.3573 79.7248 73.8552 74.5495C74.342 73.7583 74.9817 73.0723 75.7369 72.5314C76.4921 71.9905 77.3475 71.6056 78.2532 71.3993C81.925 70.4583 85.4128 68.8934 89.1562 68.1263C92.2635 67.4982 95.09 65.8969 97.2261 63.5544C104.979 55.5766 112.384 47.2818 119.901 39.0892C121.457 37.2014 122.865 35.1977 124.115 33.0956C124.975 31.8069 125.67 30.7227 127.624 30.6204C129.601 30.3466 131.558 29.9469 133.484 29.4238C138.782 28.401 143.917 26.6315 149.297 26.0383C153.643 25.5474 157.96 24.8314 162.255 23.9927C164.079 23.7998 165.889 23.4958 167.676 23.0824C168.699 22.7449 169.517 23.7268 169.2 24.9132C168.766 26.5745 168.042 28.1464 167.063 29.5567C162.235 36.5424 156.456 42.7201 150.851 49.0614C150.544 49.399 150.094 49.6955 150.125 50.3911L154.216 49.041C156.985 48.0413 159.862 47.3719 162.787 47.0465C164.117 46.9238 165.375 47.0465 166.152 48.2739C166.93 49.5012 166.439 50.7184 165.723 51.823C164.493 53.7068 163.155 55.5169 161.713 57.2438C159.647 59.6722 157.754 62.2423 156.047 64.9352C155.024 66.5717 153.705 67.8706 151.526 67.7479C150.451 67.7586 149.396 68.0401 148.458 68.5661C144.97 70.2026 141.176 70.6117 137.422 71.2152C135.52 71.5016 133.627 71.8084 131.725 72.0846C131.254 72.1562 130.845 72.2687 130.702 72.78C129.403 76.8712 126.744 80.0726 124.289 83.4478C124.156 83.6319 123.931 83.7955 123.993 84.174C125.062 84.2434 126.135 84.1258 127.163 83.8262C137.391 81.7193 147.711 80.8806 157.919 78.9884C162.583 78.119 167.124 76.7894 171.89 76.3496C174.693 76.0173 177.516 75.8738 180.338 75.92C181.766 75.8725 183.178 75.6175 184.532 75.1631C185.411 74.9381 186.352 74.6927 186.966 75.5621ZM178.784 82.292C179.009 82.0363 179.428 81.7499 179.193 81.3613C178.958 80.9726 178.518 81.1874 178.17 81.2079C174.286 81.3278 170.419 81.7829 166.612 82.5682C163.943 83.1819 161.243 83.591 158.543 84.1126C150.575 85.565 142.495 86.1582 134.476 87.181C129.104 88.0222 123.688 88.5583 118.255 88.7868C117.601 88.838 116.943 88.7967 116.301 88.6641C115.967 88.579 115.66 88.411 115.409 88.1757C115.157 87.9403 114.969 87.6452 114.862 87.3177C114.755 86.9902 114.732 86.6409 114.796 86.3023C114.86 85.9637 115.008 85.6468 115.227 85.3809C117.017 83.591 118.449 81.5045 120.218 79.6839C122.136 77.8426 123.791 75.7468 125.138 73.4551C125.93 71.7991 126.846 70.2057 127.879 68.6889C128.329 68.0854 128.82 67.4922 129.659 67.5945C130.594 67.6536 131.532 67.5673 132.441 67.3388C135.474 66.6665 138.468 65.83 141.411 64.8329C144.878 63.8101 148.509 63.268 151.884 61.8668C152.432 61.7124 152.914 61.3817 153.255 60.9259C154.998 58.2554 156.893 55.6874 158.931 53.2344C159.126 52.9889 159.535 52.7742 159.269 52.2116C158.717 52.3446 158.164 52.4673 157.632 52.631C153.285 53.9402 148.928 55.1982 144.704 56.8756C142.73 57.6631 141.544 57.4586 140.828 56.354C140.112 55.2493 140.46 54.3084 141.851 52.7128C148.161 45.6248 154.257 38.3937 159.954 30.7738C160.21 30.4363 160.588 30.1295 160.568 29.5465C160.24 29.5465 159.923 29.5465 159.606 29.6283C156.057 30.1909 152.508 30.7943 148.959 31.3159C143.743 32.083 138.547 32.9013 133.31 33.5047C130.743 33.8116 128.36 34.3127 126.723 36.8083C125.629 38.4755 123.737 39.5699 122.54 41.2575C117.897 47.7829 112.875 54.0322 107.924 60.3326C105.265 63.7078 102.299 66.8171 99.4864 70.0492C99.1795 70.5374 98.7605 70.9452 98.2641 71.2388C97.7677 71.5323 97.2086 71.703 96.6329 71.7368C95.2546 71.7163 93.8794 71.8745 92.5417 72.2073C88.6551 73.0664 85.014 74.7336 81.1682 75.6337C78.9829 76.1205 77.0532 77.3948 75.7474 79.2134C74.2643 81.1363 72.679 82.9364 71.0528 84.7877L71.2163 85.0843C73.7017 83.4069 76.6269 83.3966 79.3987 82.7011C80.5631 82.2896 81.8152 82.1909 83.0297 82.4148C84.0525 82.7114 84.482 83.5296 83.8581 84.3581C82.375 86.3116 81.3215 88.5413 79.7669 90.4949C75.5427 95.9055 71.3596 101.357 67.1661 106.788C66.6201 107.35 66.2015 108.024 65.9388 108.762C66.2591 108.778 66.5799 108.778 66.9002 108.762C73.2891 108.12 79.7078 107.819 86.1288 107.862C88.823 108.024 91.5263 107.956 94.2089 107.657C102.391 106.236 110.574 104.947 118.756 103.73C124.126 102.922 129.403 101.459 134.783 100.733C144.939 99.3523 155.106 97.8181 165.406 97.9101C165.688 97.9335 165.972 97.8869 166.233 97.7745C166.493 97.6622 166.722 97.4874 166.899 97.2658C171.01 92.4075 174.693 87.1605 178.784 82.292Z" fill="url(#paint14_linear_689_16020)"/>
<path d="M184.072 10.7172C184.737 10.7172 184.972 10.932 184.737 11.5968C184.314 12.703 184.012 13.8518 183.837 15.0231C183.775 15.5755 183.489 15.78 182.947 15.7902C181.188 15.7902 179.439 15.8721 177.679 15.9334C177.117 15.9334 176.892 15.7186 176.82 15.1663C176.687 14.0822 176.534 12.9878 176.329 11.9036C176.196 11.2183 176.329 10.8808 177.107 10.8808C178.283 10.8808 179.469 10.8808 180.656 10.8808V10.6763C181.791 10.7274 182.937 10.7376 184.072 10.7172Z" fill="url(#paint15_linear_689_16020)"/>
<path d="M170.09 11.4435C170.969 11.3106 171.409 11.556 171.307 12.4663C171.307 12.947 171.307 13.4891 171.307 13.9289C171.409 16.2609 171.409 16.2609 169.067 16.5064C166.264 16.8132 166.264 16.8132 165.354 14.1744C164.587 11.9651 164.587 11.9549 166.939 11.7197C167.983 11.6583 169.046 11.5867 170.09 11.4435Z" fill="url(#paint16_linear_689_16020)"/>
<path d="M168.556 107.811C170.827 106.696 173.087 105.561 175.348 104.425C175.726 104.241 176.094 104.047 176.371 104.558C177.021 105.787 177.883 106.892 178.917 107.821C178.986 107.906 179.044 107.999 179.091 108.097C179.091 108.435 178.815 108.517 178.6 108.619L173.046 111.452C172.75 111.595 172.402 111.779 172.167 111.452C171.246 110.133 169.732 109.703 168.495 108.875C167.881 108.445 167.871 108.159 168.556 107.811Z" fill="url(#paint17_linear_689_16020)"/>
<path d="M163.81 110.767C164.846 112.122 166.139 113.258 167.615 114.112C164.71 115.38 162.092 116.515 159.484 117.671C159.399 117.722 159.305 117.755 159.207 117.768C159.109 117.782 159.009 117.776 158.914 117.75C158.818 117.724 158.729 117.679 158.651 117.618C158.573 117.557 158.509 117.481 158.461 117.395C157.714 116.433 156.937 115.482 156.108 114.582C155.546 113.979 155.485 113.651 156.344 113.293C158.461 112.434 160.547 111.503 162.644 110.583C163.084 110.389 163.442 110.286 163.81 110.767Z" fill="url(#paint18_linear_689_16020)"/>
<path d="M161.335 16.6494C161.417 17.304 161.151 17.4984 160.547 17.57C158.972 17.7745 157.397 17.9995 155.832 18.2757C155.564 18.3679 155.269 18.3509 155.013 18.2285C154.757 18.1061 154.559 17.888 154.462 17.6211C153.897 16.5787 153.21 15.607 152.416 14.7266C151.946 14.1641 152.038 13.9186 152.754 13.7958C155.219 13.4072 157.663 12.9878 160.118 12.5787C160.762 12.456 161.008 12.7015 161.038 13.356C161.089 14.4504 161.192 15.5551 161.335 16.6494Z" fill="url(#paint19_linear_689_16020)"/>
<path d="M153.327 119.287C153.726 119.778 153.655 120.064 153.082 120.31L145.278 123.225C144.93 123.358 144.613 123.378 144.501 122.948C144.122 121.609 143.754 120.269 143.386 118.929C143.314 118.458 143.601 118.295 143.979 118.151C146.127 117.354 148.275 116.566 150.402 115.727C151.046 115.482 151.282 115.727 151.507 116.28C151.986 117.354 152.597 118.364 153.327 119.287Z" fill="url(#paint20_linear_689_16020)"/>
<path d="M149.798 18.6848C149.921 19.0632 149.86 19.3087 149.42 19.4008L144.95 20.3315C144.735 20.2804 144.428 20.3315 144.285 20.1679C143.145 19.1759 142.085 18.0952 141.115 16.9358C140.757 16.4551 140.941 16.1994 141.462 16.0869C143.58 15.6369 145.707 15.1971 147.814 14.7368C148.336 14.6243 148.571 14.8391 148.714 15.2994C149.062 16.3937 149.43 17.5597 149.798 18.6848Z" fill="url(#paint21_linear_689_16020)"/>
<path d="M137.872 120.78C137.933 122.199 138.281 123.59 138.895 124.871C138.987 125.393 138.649 125.485 138.332 125.577L132.195 127.53C132.102 127.578 131.999 127.606 131.894 127.61C131.789 127.615 131.684 127.597 131.587 127.557C131.49 127.517 131.403 127.456 131.331 127.379C131.259 127.302 131.205 127.211 131.173 127.111C130.641 125.965 130.15 124.82 129.516 123.705C129.199 123.101 129.516 122.907 129.986 122.754L136.992 120.565C137.412 120.412 137.872 120.187 137.872 120.78Z" fill="url(#paint22_linear_689_16020)"/>
<path d="M135.827 20.9858C136.246 22.0086 136.042 22.4893 134.896 22.7143C133.342 23.0314 131.828 23.5121 130.284 23.9212L129.598 24.1053C129.21 24.1667 129.066 23.911 128.923 23.6655C128.33 22.6427 127.768 21.6199 127.154 20.5971C126.857 20.1062 126.99 19.8505 127.502 19.7073L134.364 17.8356C134.876 17.6924 135.111 17.8356 135.203 18.3879C135.338 19.2698 135.547 20.1387 135.827 20.9858Z" fill="url(#paint23_linear_689_16020)"/>
<path d="M125.845 128.533C126.039 129.034 125.947 129.29 125.425 129.423C123.052 130.016 120.69 130.619 118.317 131.233C118.224 131.276 118.123 131.296 118.021 131.292C117.918 131.287 117.819 131.258 117.731 131.207C117.642 131.156 117.568 131.084 117.513 130.998C117.458 130.911 117.425 130.813 117.417 130.711C117.1 129.566 116.762 128.441 116.394 127.295C116.292 126.907 116.179 126.446 116.752 126.272L123.768 124.472C124.341 124.339 124.484 124.646 124.617 125.025C125.047 126.221 125.425 127.387 125.845 128.533Z" fill="url(#paint24_linear_689_16020)"/>
<path d="M123.554 25.0977C123.81 25.6807 123.554 25.8955 123.022 26.0489C121.706 26.4444 120.387 26.8637 119.064 27.3069C118.897 27.3854 118.71 27.4118 118.528 27.3826C118.345 27.3534 118.176 27.27 118.041 27.1433C117.019 26.2432 115.996 25.3431 115.045 24.4329C114.758 24.1772 114.441 23.8294 115.045 23.6249C117.356 22.8271 119.678 22.0702 122 21.3031C122.49 21.3031 122.562 21.61 122.623 21.9373C122.811 23.023 123.123 24.0835 123.554 25.0977Z" fill="url(#paint25_linear_689_16020)"/>
<path d="M112.425 28.6671C112.804 29.1785 112.814 29.4649 112.118 29.6899C109.51 30.6309 106.912 31.623 104.314 32.6049C103.916 32.7583 103.547 32.8606 103.189 32.5128C102.167 31.49 101.052 30.4672 99.937 29.4444C100.858 28.856 101.856 28.3981 102.903 28.0841C105.112 27.2147 107.342 26.4169 109.541 25.5373C110.257 25.2612 110.666 25.3225 110.953 26.0999C111.316 27.0225 111.812 27.8873 112.425 28.6671Z" fill="url(#paint26_linear_689_16020)"/>
<path d="M111.607 132.031C111.75 132.665 111.413 132.808 111.035 132.89L106.36 133.831C106.256 133.881 106.141 133.905 106.025 133.901C105.91 133.897 105.797 133.865 105.696 133.807C105.596 133.75 105.511 133.669 105.448 133.572C105.386 133.474 105.348 133.363 105.337 133.248C105.031 132.102 104.703 130.967 104.315 129.852C104.11 129.239 104.243 128.942 104.888 128.829C106.688 128.492 108.478 128.124 110.278 127.807C110.738 127.715 111.106 127.745 111.127 128.339C111.18 129.581 111.34 130.816 111.607 132.031Z" fill="url(#paint27_linear_689_16020)"/>
<path d="M100.367 133.861C100.592 134.772 100.162 134.884 99.6814 134.986L92.5218 136.009C92.0207 136.071 91.6627 136.009 91.5911 135.365C91.4581 134.189 91.274 133.023 91.0592 131.857C90.9467 131.243 91.0592 130.967 91.765 130.834C94.2265 130.527 96.688 130.186 99.1495 129.811C99.8348 129.699 100.172 129.811 100.172 130.568C100.213 131.785 100.305 132.992 100.367 133.861Z" fill="url(#paint28_linear_689_16020)"/>
<path d="M96.96 31.1014C97.5533 32.1242 98.1772 33.2186 98.7909 34.2823C98.7909 34.3539 98.8522 34.4255 98.9034 34.5278C98.9034 34.8858 98.6067 34.9471 98.351 35.0494C96.7452 35.7551 95.1293 36.4506 93.5235 37.1666C93.3484 37.2684 93.147 37.3159 92.9449 37.3032C92.7428 37.2904 92.5491 37.218 92.3882 37.095C91.3654 36.3177 90.271 35.5506 89.2073 34.7937C88.6857 34.4357 88.7982 34.1698 89.2993 33.9346L96.1315 30.8662C96.4281 30.7128 96.7044 30.7128 96.96 31.1014Z" fill="url(#paint29_linear_689_16020)"/>
<path d="M87.1318 39.2531C87.5 39.6213 87.5512 39.8974 86.9988 40.1736C84.2271 41.5544 81.4758 42.9658 78.704 44.3568C78.5709 44.4193 78.4343 44.4739 78.2949 44.5205C78.1652 44.525 78.0361 44.5019 77.9162 44.4525C77.7962 44.4031 77.6881 44.3286 77.5993 44.2341C76.7197 43.4977 75.8606 42.751 74.9605 42.0453C74.3878 41.5953 74.49 41.3293 75.0935 41.0225L83.8997 36.4915C84.2782 36.2972 84.6157 36.1336 84.9225 36.6245C85.5613 37.5783 86.3021 38.4597 87.1318 39.2531Z" fill="url(#paint30_linear_689_16020)"/>
<path d="M83.9611 131.683C86.0885 131.55 86.0885 131.55 86.0067 133.616C86.0067 133.78 86.0067 133.943 86.0067 134.107C86.0067 134.271 86.0067 134.434 86.0067 134.598C86.0067 136.715 86.0066 136.715 83.8894 136.848H83.0406C80.6165 137.001 80.6166 137.001 80.6473 134.516C80.6473 131.867 80.6472 131.867 83.286 131.693L83.9611 131.683Z" fill="url(#paint31_linear_689_16020)"/>
<path d="M75.4823 132.154C76.2187 132.154 76.4028 132.399 76.2289 133.105C75.9739 134.006 75.8129 134.932 75.7482 135.866C75.7482 136.961 75.3289 137.36 74.214 137.319C72.0252 137.247 69.816 137.268 67.617 137.319C66.7272 137.319 66.2976 137.114 66.5942 136.122C66.7606 135.491 66.8802 134.848 66.9522 134.199C67.2693 131.837 67.1465 132.256 69.233 132.256H71.923V132.184C73.1401 132.164 74.3163 132.195 75.4823 132.154Z" fill="url(#paint32_linear_689_16020)"/>
<path d="M72.1894 47.0772C72.5371 47.4556 72.6086 47.7318 72.0972 48.0284C69.6118 49.5114 67.1367 51.0149 64.6514 52.5082C64.5061 52.5834 64.3556 52.6483 64.2013 52.7025C63.5442 52.4757 62.9266 52.1479 62.3705 51.7309C59.6397 50.1558 59.6396 50.1353 62.2886 48.4886C64.4365 47.159 66.6253 45.8907 68.7731 44.5509C68.8818 44.446 69.0145 44.3691 69.1595 44.3269C69.3046 44.2847 69.4576 44.2784 69.6056 44.3086C69.7537 44.3388 69.8921 44.4046 70.009 44.5002C70.1259 44.5959 70.2178 44.7186 70.2767 44.8577C70.8609 45.6418 71.5001 46.3835 72.1894 47.0772Z" fill="url(#paint33_linear_689_16020)"/>
<path d="M61.5515 136.347C61.1935 137.37 60.365 136.725 59.7514 136.879C58.2888 136.705 56.8364 136.5 55.3738 136.378C54.5658 136.306 54.4022 135.948 54.6579 135.253C54.6579 135.171 54.6578 135.089 54.7294 135.017C55.1488 133.872 54.9545 132.286 55.8341 131.601C56.7137 130.916 58.1763 131.693 59.3934 131.724C60.4162 131.724 61.3469 131.887 62.3186 131.969C62.8607 131.969 63.0243 132.235 62.83 132.767C62.38 133.954 61.9811 135.15 61.5515 136.347Z" fill="url(#paint34_linear_689_16020)"/>
<path d="M59.384 55.2598C59.4961 55.3935 59.5954 55.5373 59.6807 55.6894C59.4557 55.8633 59.2817 56.0269 59.0874 56.1599C57.4611 57.3157 55.8246 58.4612 54.1984 59.6272C54.0391 59.7872 53.8313 59.8901 53.6074 59.9197C53.3836 59.9493 53.1562 59.904 52.9608 59.7908C51.938 59.2181 50.7823 58.6964 49.6777 58.1441C49.1254 57.8782 49.0334 57.5816 49.5857 57.1929C51.6313 55.7508 53.6768 54.2882 55.6508 52.8358C55.9781 52.6108 56.2952 52.4983 56.6736 52.8358L59.384 55.2598Z" fill="url(#paint35_linear_689_16020)"/>
<path d="M51.0473 130.589C51.5894 130.712 51.7019 130.947 51.4462 131.448C50.8871 132.539 50.3551 133.644 49.8506 134.762C49.7803 134.965 49.6357 135.134 49.4459 135.234C49.2561 135.335 49.0352 135.36 48.8278 135.304C46.2708 134.772 43.7139 134.138 41.2387 133.361C40.7887 133.228 40.308 133.074 40.8603 132.471C41.8012 131.448 42.732 130.425 43.6627 129.402C43.7545 129.267 43.8928 129.171 44.0513 129.131C44.2097 129.092 44.3773 129.112 44.5218 129.188L51.0473 130.589Z" fill="url(#paint36_linear_689_16020)"/>
<path d="M43.5495 68.147C43.4231 68.2517 43.2746 68.3264 43.1152 68.3654C42.9557 68.4044 42.7895 68.4066 42.629 68.372C41.2623 68.1469 39.9174 67.8047 38.6094 67.3492C38.0775 67.1446 37.9753 66.8685 38.4253 66.4798L44.2552 61.417C44.3195 61.3449 44.3983 61.2873 44.4864 61.2478C44.5746 61.2083 44.67 61.1879 44.7666 61.1879C44.8632 61.1879 44.9586 61.2083 45.0468 61.2478C45.1349 61.2873 45.2137 61.3449 45.278 61.417C46.1065 62.1432 46.9656 62.8284 47.8452 63.4626C48.2646 63.7899 48.3669 64.0251 47.9169 64.4035C46.4747 65.6514 45.0224 66.8992 43.5495 68.147Z" fill="url(#paint37_linear_689_16020)"/>
<path d="M38.8354 127.224C39.6536 127.52 39.7252 127.858 39.2343 128.533C38.6206 129.392 38.058 130.292 37.5262 131.213C37.4827 131.325 37.415 131.426 37.3278 131.51C37.2406 131.593 37.1361 131.656 37.0218 131.694C36.9074 131.732 36.7861 131.744 36.6664 131.73C36.5468 131.716 36.4317 131.675 36.3295 131.611C33.4617 130.44 30.7202 128.98 28.1471 127.254C27.7789 127.009 27.4414 126.753 27.9426 126.324C28.9654 125.475 29.9269 124.626 30.919 123.797C31.0603 123.706 31.2112 123.631 31.3689 123.572C31.5939 123.695 31.819 123.797 32.0235 123.92C34.1831 125.237 36.4642 126.343 38.8354 127.224Z" fill="url(#paint38_linear_689_16020)"/>
<path d="M38.6007 71.7167C39.1223 71.9724 39.1633 72.2383 38.7644 72.627C36.5688 74.8157 34.4585 77.0897 32.4333 79.449C32.3554 79.5767 32.2431 79.6799 32.1092 79.7468C31.9754 79.8137 31.8254 79.8417 31.6765 79.8274L27.5853 79.1319C27.0125 79.0296 26.9 78.7842 27.2784 78.3035C29.605 75.3551 32.1086 72.5509 34.7755 69.9063C34.8285 69.8309 34.8977 69.7683 34.9778 69.7228C35.058 69.6773 35.1474 69.6502 35.2393 69.6433C35.3312 69.6365 35.4235 69.6501 35.5096 69.6832C35.5956 69.7163 35.6733 69.768 35.7369 69.8347C36.6104 70.5776 37.5722 71.2097 38.6007 71.7167Z" fill="url(#paint39_linear_689_16020)"/>
<path d="M24.046 116.74C24.9156 117.974 25.9133 119.112 27.0224 120.136C27.4213 120.504 27.5338 120.79 27.1144 121.24C26.3575 122.048 25.6518 122.897 24.9666 123.756C24.5984 124.217 24.3018 124.237 23.8825 123.828C22.0751 122.112 20.5187 120.149 19.2594 117.998C19.0549 117.64 18.7582 117.211 19.4332 117.057C20.7015 116.771 21.9902 116.536 23.2687 116.29C23.6471 116.208 23.8415 116.474 24.046 116.74Z" fill="url(#paint40_linear_689_16020)"/>
<path d="M23.6265 91.283C22.9719 91.283 22.3172 91.3443 21.5092 91.3852C20.9058 91.3341 19.8319 91.9171 19.4636 91.3852C19.0954 90.8534 19.8625 89.9124 20.241 89.2169C21.141 87.5191 22.1536 85.8928 23.0741 84.2052C23.5139 83.4074 24.0048 83.1006 24.9356 83.5097C25.8472 83.8704 26.7838 84.1643 27.738 84.3893C28.2801 84.553 28.362 84.7984 28.0449 85.2689C26.8367 87.0155 25.7336 88.8325 24.7413 90.7102C24.6312 90.9037 24.4671 91.0608 24.2691 91.1626C24.0711 91.2643 23.8479 91.3061 23.6265 91.283Z" fill="url(#paint41_linear_689_16020)"/>
<path d="M21.4173 111.626C21.6628 112.311 21.4173 112.649 20.7729 112.782C20.3024 112.904 19.8524 113.099 19.3922 113.262C17.2852 114.019 17.2749 114.019 16.7533 111.79C16.4567 110.47 16.2317 109.141 15.9351 107.831C15.8022 107.259 15.9351 107.064 16.5283 107.156L19.9342 107.494C20.3637 107.494 20.6093 107.719 20.6297 108.179C20.7325 109.359 20.9975 110.519 21.4173 111.626Z" fill="url(#paint42_linear_689_16020)"/>
<path d="M19.3001 97.8284C21.6116 98.0943 21.6117 98.0943 21.1719 100.304C20.8037 102.155 20.8037 102.155 18.2978 102.278C15.792 102.4 15.884 102.4 16.3545 100.017C16.825 97.6341 16.8352 97.542 19.3001 97.8284Z" fill="url(#paint43_linear_689_16020)"/>
<path d="M242.73 76.0942C243.251 77.6897 243.814 79.2648 244.264 80.8808C246.132 87.5699 247.837 94.3033 249.378 101.081C249.439 101.347 249.378 101.736 249.685 101.838C249.991 101.94 250.227 101.541 250.401 101.306C251.515 99.8435 252.61 98.3604 253.694 96.8774C253.888 96.6217 254.164 96.3148 254.031 95.9977C253.285 94.2181 253.479 92.2952 253.131 90.4542C252.18 85.4016 250.677 80.4615 249.797 75.3884C249.347 72.7394 248.774 70.121 248.222 67.4924L247.905 67.4106C246.279 69.9881 244.55 72.5246 242.709 74.9486C242.361 75.3475 242.597 75.7157 242.73 76.0942ZM240.326 78.2113C240.17 78.2701 240.022 78.3492 239.886 78.4466C237.176 81.6173 234.363 84.6856 231.356 87.5699C230.947 87.9688 231.08 88.337 231.233 88.787C231.97 90.9554 232.706 93.1135 233.381 95.3022C235.202 101.194 236.214 107.289 237.841 113.232C238.096 114.152 238.362 114.255 239.007 113.569C240.612 111.943 242.198 110.286 243.896 108.762C244.494 108.287 244.931 107.64 245.149 106.908C245.366 106.177 245.354 105.395 245.113 104.671C243.63 97.4501 242.382 90.1678 241.022 82.906C240.776 81.3922 240.572 79.8069 240.326 78.2113ZM205.97 108.742C205.878 107.831 205.449 108.271 205.091 108.486C202.288 110.245 199.506 112.025 196.683 113.774C196.1 114.132 196.1 114.51 196.285 115.093C198.647 122.785 201.777 130.231 203.802 138.024C203.874 138.301 203.925 138.607 204.344 138.587C204.453 138.546 204.559 138.498 204.661 138.444L210.972 134.68C211.473 134.383 211.432 133.995 211.279 133.524C210.476 130.904 209.841 128.236 209.376 125.536C208.292 119.931 206.564 114.449 205.97 108.742ZM208.159 107.402C208.949 109.107 209.633 110.859 210.205 112.649C212.25 118.469 213.897 124.421 215.482 130.384C215.718 131.274 216.004 131.571 216.873 130.936C218.817 129.515 220.832 128.185 222.806 126.845C223.164 126.6 223.614 126.375 223.511 125.638C223.409 124.902 223.174 123.879 222.969 122.928C221.333 115.257 219.39 107.647 218.602 99.8128C218.52 98.9434 218.183 99.1275 217.702 99.5059C214.695 101.838 211.637 104.098 208.497 106.226C208.387 106.272 208.289 106.343 208.21 106.433C208.131 106.522 208.074 106.628 208.041 106.743C208.009 106.858 208.003 106.979 208.023 107.096C208.043 107.214 208.09 107.325 208.159 107.422V107.402ZM228.84 91.2417C228.707 90.5872 228.656 90.1678 227.93 90.8122C225.792 92.7044 223.624 94.5863 221.445 96.4376C221.268 96.567 221.143 96.7564 221.094 96.9707C221.045 97.1851 221.075 97.4098 221.179 97.6035C221.752 99.3423 222.315 101.091 222.826 102.861C224.619 109.059 226.229 115.305 227.654 121.598C227.961 122.897 228.001 122.928 229.075 122.069C230.569 120.862 232.055 119.645 233.535 118.417C233.811 118.192 234.159 117.988 234.097 117.538C234.036 117.088 233.78 116.362 233.637 115.758C231.683 107.658 230.528 99.4036 228.84 91.2417ZM110.584 171.327C111.546 171.204 111.607 170.856 111.178 170.069C110.65 169.076 110.185 168.051 109.787 167C107.609 161.277 105.832 155.409 104.468 149.439C104.274 148.549 103.947 148.355 103.057 148.518C100.08 149.03 97.0938 149.48 94.097 149.889C93.2481 150.012 92.9822 150.237 93.2277 151.137C95.1199 158.02 96.6337 165.006 98.0247 172.002C98.1679 172.738 98.4542 173.024 99.1702 172.932C102.975 172.36 106.78 171.858 110.584 171.327ZM113.827 169.578C113.98 170.171 114.072 170.795 114.993 170.6C118.348 169.925 121.713 169.281 125.088 168.637C125.722 168.514 125.855 168.217 125.63 167.614C122.981 160.577 121.099 153.295 118.767 146.135C118.593 145.593 118.399 145.317 117.744 145.47C115.197 146.053 112.63 146.585 110.083 147.127C109.603 147.23 109.347 147.434 109.419 147.966C109.95 150.901 110.441 153.837 111.035 156.762C111.873 161.068 112.753 165.343 113.827 169.578ZM70.0001 173.035C70.1126 173.689 70.3989 173.853 70.9614 173.853H76.2288V174.006H78.1927H79.9109C82.4986 174.006 82.4066 174.006 81.5475 171.623C79.2837 165.405 77.0777 159.169 74.9299 152.916C74.6026 151.955 74.2139 151.556 73.14 151.617C71.0944 151.74 68.9772 151.699 66.8907 151.709C65.3463 151.709 65.3668 151.709 65.6941 153.192C67.1567 159.789 68.8238 166.366 70.0001 173.035ZM66.4918 173.638C67.3203 173.73 67.3613 173.423 67.0749 172.738C64.569 166.867 62.8404 160.72 60.8664 154.665C60.5289 153.642 60.6722 152.2 59.7619 151.669C58.8516 151.137 57.614 151.382 56.5196 151.31C55.0263 151.208 55.0263 151.229 55.374 152.64C56.7753 158.347 58.1152 164.075 59.7823 169.721C60.1096 170.836 59.8949 172.38 60.8051 172.984C61.7154 173.587 63.086 173.362 64.2622 173.515C65.0191 173.526 65.7554 173.556 66.4918 173.638ZM43.5199 151.75C45.1488 158.074 47.098 164.311 49.36 170.437C49.5952 171.081 49.851 171.592 50.6487 171.705C52.5511 171.971 54.4434 172.298 56.3355 172.605C57.1845 172.748 57.256 172.452 56.8878 171.766C55.9179 169.921 55.0773 168.011 54.3717 166.049C52.6125 161.344 51.3033 156.517 49.7794 151.73C49.6157 151.188 49.5441 150.615 48.7566 150.523C47.0997 150.308 45.4427 150.032 43.8778 149.797C43.2028 149.654 42.9062 149.797 43.1312 150.472C43.2949 150.881 43.4074 151.321 43.5199 151.75ZM46.6598 170.846C46.6803 170.476 46.5639 170.112 46.3326 169.823C44.6499 166.922 43.1998 163.892 41.9959 160.761C40.5026 156.956 39.0502 153.141 37.5774 149.326C37.5143 149.05 37.3773 148.797 37.1809 148.593C36.9844 148.39 36.736 148.243 36.4626 148.171C34.417 147.628 32.4635 147.005 30.469 146.422C30.244 146.35 29.9884 146.156 29.7736 146.34C29.5588 146.524 29.7735 146.882 29.8554 147.117C32.9237 153.898 35.4193 160.904 38.099 167.839C38.2524 168.238 38.406 168.616 38.8458 168.749C41.4118 169.582 44.02 170.279 46.6598 170.836V170.846ZM16.7022 79.0909C10.9448 85.6931 6.85818 93.5821 4.78664 102.094C1.54438 115.185 5.62531 126.365 16.5283 134.332C21.9945 138.174 28.1001 141.014 34.5602 142.719C45.4223 145.787 56.5605 146.81 67.2896 146.81C79.9602 146.706 92.5955 145.457 105.041 143.077C119.466 140.369 133.643 136.472 147.426 131.427C169.385 123.429 190.158 113.13 209.161 99.4343C220.126 91.5384 230.211 82.681 238.485 71.9212C243.538 65.3651 247.69 58.3282 249.848 50.2379C252.242 41.0327 251.311 32.472 245.368 24.7703C242.028 20.6093 237.822 17.2241 233.044 14.8492C224.125 10.1546 214.48 7.90441 204.559 6.72819C187.734 4.6826 171.011 5.90996 154.36 8.65105C139.442 11.1401 124.771 14.9287 110.513 19.9734C85.8636 28.6058 62.7484 40.1634 41.7095 55.7712C32.5598 62.623 24.1756 70.4415 16.7022 79.0909ZM12.8463 79.5819C25.0278 62.0103 41.7606 49.6344 59.7004 38.7519C84.5429 23.8223 111.63 12.9953 139.918 6.6873C158.042 2.52453 176.371 0.223243 194.996 0.969883C206.247 1.40968 217.313 3.01546 227.92 6.96345C235.754 9.89887 243.057 13.8162 248.376 20.4439C253.518 26.6625 257.364 33.8471 259.688 41.5748C261.754 48.6435 263.46 55.8122 264.802 63.0535C265.824 68.5766 266.847 74.0384 266.581 79.6944C266.481 83.8647 265.432 87.9573 263.513 91.6611C258.47 101.224 251.659 109.366 243.885 116.771C231.857 128.246 218.223 137.523 203.679 145.491C176.452 160.364 146.963 170.654 116.394 175.95C104.716 178.034 92.8873 179.16 81.0258 179.315C72.4737 179.391 63.9276 178.841 55.4559 177.668C48.582 176.894 41.7538 175.757 35 174.262C33.0133 173.775 31.062 173.153 29.1598 172.401C24.7945 170.761 21.1644 167.606 18.9319 163.512C14.7389 156.041 11.0785 148.282 7.97776 140.295C5.85034 134.721 3.63088 129.198 1.84099 123.501C-1.84108 111.841 0.265878 100.999 5.7992 90.5053C7.93342 86.73 10.2865 83.0826 12.8463 79.5819ZM259.084 86.3733C259.902 82.2821 260.802 78.3136 260.547 74.0383C259.919 64.7404 258.419 55.5221 256.067 46.5047C255.954 46.7466 255.859 46.9961 255.781 47.2514C254.958 52.0071 253.463 56.6217 251.342 60.9568C251.109 61.4806 251.055 62.0665 251.188 62.624C251.516 64.3116 251.792 66.0094 252.211 67.6663C253.984 74.7509 255.784 81.8286 257.611 88.8996C257.673 89.1348 257.611 89.503 258.051 89.5541C258.869 88.6541 258.869 87.4779 259.084 86.3733ZM198.412 141.911C198.79 141.717 199.281 141.563 199.169 140.96C198.668 138.556 198.146 136.183 197.41 133.8C195.763 128.165 193.881 122.55 192.96 116.76C192.797 115.738 192.255 116.382 191.938 116.566C188.337 118.612 184.778 120.565 181.035 122.396C180.329 122.744 180.216 123.071 180.554 123.808C181.833 126.593 182.947 129.451 183.888 132.368C185.33 136.869 186.721 141.4 188.102 145.931C188.327 146.688 188.573 146.953 189.36 146.534C192.367 144.979 195.395 143.466 198.412 141.911ZM182.681 149.695C183.53 149.347 183.796 148.938 183.479 148.038C182.957 146.534 182.528 144.969 182.098 143.455C180.462 137.51 178.825 131.567 177.189 125.628C177.097 125.28 177.189 124.789 176.667 124.605L175.982 124.902C172.975 126.283 169.988 127.694 166.961 128.993C166.081 129.382 165.938 129.76 166.286 130.64C168.129 135.137 169.677 139.749 170.919 144.448C171.615 147.086 172.321 149.735 173.221 152.323C173.507 153.152 173.865 153.51 174.826 153.059C177.414 151.914 180.043 150.789 182.681 149.695ZM168.147 155.78C168.833 155.535 169.017 155.207 168.72 154.502C168.394 153.706 168.134 152.885 167.943 152.047C166.286 145.399 164.66 138.751 162.993 132.082C162.88 131.622 162.993 130.773 162.031 131.182C159.157 132.348 156.263 133.483 153.378 134.629C153.041 134.772 152.662 134.905 152.846 135.651C153.327 137.124 153.931 138.781 154.391 140.469C155.986 146.299 157.654 152.108 158.687 158.071C158.84 158.92 159.147 159.176 159.996 158.849C162.696 157.764 165.427 156.772 168.147 155.78ZM155.045 160.465C155.403 160.352 155.915 160.362 155.864 159.728L154.943 157.089C152.754 150.635 150.555 144.182 148.111 137.82C147.804 137.022 147.518 136.736 146.607 137.063C143.764 138.086 140.89 139.006 138.016 139.937C137.29 140.162 137.126 140.428 137.474 141.144C138.272 142.76 138.977 144.407 139.714 146.053C142.095 151.247 144.125 156.594 145.789 162.06C146.045 162.95 146.403 163.257 147.354 162.929C149.901 162.06 152.488 161.293 155.045 160.465ZM140.399 164.893C140.962 164.75 140.88 164.32 140.767 163.87C140.46 162.725 140.154 161.579 139.837 160.444C138.067 154.246 135.745 148.171 134.375 141.891C134.201 141.072 133.751 141.226 133.199 141.379C130.376 142.177 127.542 142.995 124.699 143.732C123.871 143.946 123.676 144.274 123.922 145.102C124.801 148.171 125.63 151.239 126.428 154.307C127.45 158.337 128.473 162.387 129.496 166.417C129.609 166.837 129.578 167.44 130.682 167.389L140.399 164.893ZM93.4834 173.342C94.2607 173.342 94.5063 173.045 94.1994 172.268C93.7187 170.928 93.3096 169.557 92.9005 168.176C91.2844 162.735 89.6581 157.294 88.083 151.812C87.8171 150.901 87.3977 150.574 86.4363 150.697C84.6976 150.912 82.9384 151.055 81.1894 151.147C80.2177 151.198 79.8803 151.464 80.228 152.487C80.7394 153.99 81.1484 155.555 81.5576 157.079C82.9213 162.282 84.285 167.495 85.6487 172.718C85.8533 173.515 86.2011 173.812 86.9989 173.74C88.0217 173.648 88.9524 173.618 89.9343 173.567C91.1208 173.515 92.297 173.403 93.4834 173.342ZM34.0181 167.072C32.5248 164.003 31.1134 161.242 29.8246 158.429C27.9427 154.338 25.3449 150.482 24.0152 146.156C23.7797 145.257 23.3368 144.427 22.7223 143.73C22.1077 143.034 21.3384 142.492 20.4763 142.146C17.7766 140.757 15.1668 139.199 12.6621 137.482C12.7045 137.671 12.7627 137.856 12.836 138.035C15.6385 144.39 18.5773 150.68 21.6525 156.905C22.3598 158.24 23.1418 159.534 23.9948 160.782C26.3165 164.372 30.0599 165.579 34.0181 167.072Z" fill="url(#paint44_linear_689_16020)"/>
<defs>
<linearGradient id="paint0_linear_689_16020" x1="234.169" y1="38.3737" x2="240.623" y2="38.3737" gradientUnits="userSpaceOnUse">
<stop stop-color="#E4BC6C"/>
<stop offset="1" stop-color="#E9C786" stop-opacity="0"/>
</linearGradient>
<linearGradient id="paint1_linear_689_16020" x1="234.148" y1="49.2967" x2="240.101" y2="49.2967" gradientUnits="userSpaceOnUse">
<stop stop-color="#E4BC6C"/>
<stop offset="1" stop-color="#E9C786" stop-opacity="0"/>
</linearGradient>
<linearGradient id="paint2_linear_689_16020" x1="229.873" y1="30.3033" x2="238.004" y2="30.3033" gradientUnits="userSpaceOnUse">
<stop stop-color="#E4BC6C"/>
<stop offset="1" stop-color="#E9C786" stop-opacity="0"/>
</linearGradient>
<linearGradient id="paint3_linear_689_16020" x1="229.669" y1="58.8395" x2="237.033" y2="58.8395" gradientUnits="userSpaceOnUse">
<stop stop-color="#E4BC6C"/>
<stop offset="1" stop-color="#E9C786" stop-opacity="0"/>
</linearGradient>
<linearGradient id="paint4_linear_689_16020" x1="221.526" y1="22.8169" x2="232.03" y2="22.8169" gradientUnits="userSpaceOnUse">
<stop stop-color="#E4BC6C"/>
<stop offset="1" stop-color="#E9C786" stop-opacity="0"/>
</linearGradient>
<linearGradient id="paint5_linear_689_16020" x1="223.562" y1="67.6768" x2="230.712" y2="67.6768" gradientUnits="userSpaceOnUse">
<stop stop-color="#E4BC6C"/>
<stop offset="1" stop-color="#E9C786" stop-opacity="0"/>
</linearGradient>
<linearGradient id="paint6_linear_689_16020" x1="217.558" y1="74.795" x2="224.523" y2="74.795" gradientUnits="userSpaceOnUse">
<stop stop-color="#E4BC6C"/>
<stop offset="1" stop-color="#E9C786" stop-opacity="0"/>
</linearGradient>
<linearGradient id="paint7_linear_689_16020" x1="211.442" y1="17.7334" x2="221.139" y2="17.7334" gradientUnits="userSpaceOnUse">
<stop stop-color="#E4BC6C"/>
<stop offset="1" stop-color="#E9C786" stop-opacity="0"/>
</linearGradient>
<linearGradient id="paint8_linear_689_16020" x1="209.724" y1="81.7503" x2="217.466" y2="81.7503" gradientUnits="userSpaceOnUse">
<stop stop-color="#E4BC6C"/>
<stop offset="1" stop-color="#E9C786" stop-opacity="0"/>
</linearGradient>
<linearGradient id="paint9_linear_689_16020" x1="199.485" y1="14.921" x2="210.644" y2="14.921" gradientUnits="userSpaceOnUse">
<stop stop-color="#E4BC6C"/>
<stop offset="1" stop-color="#E9C786" stop-opacity="0"/>
</linearGradient>
<linearGradient id="paint10_linear_689_16020" x1="199.772" y1="89.3086" x2="209.406" y2="89.3086" gradientUnits="userSpaceOnUse">
<stop stop-color="#E4BC6C"/>
<stop offset="1" stop-color="#E9C786" stop-opacity="0"/>
</linearGradient>
<linearGradient id="paint11_linear_689_16020" x1="190.035" y1="96.0488" x2="198.8" y2="96.0488" gradientUnits="userSpaceOnUse">
<stop stop-color="#E4BC6C"/>
<stop offset="1" stop-color="#E9C786" stop-opacity="0"/>
</linearGradient>
<linearGradient id="paint12_linear_689_16020" x1="188.766" y1="13.4275" x2="196.713" y2="13.4275" gradientUnits="userSpaceOnUse">
<stop stop-color="#E4BC6C"/>
<stop offset="1" stop-color="#E9C786" stop-opacity="0"/>
</linearGradient>
<linearGradient id="paint13_linear_689_16020" x1="179.797" y1="102.124" x2="189.114" y2="102.124" gradientUnits="userSpaceOnUse">
<stop stop-color="#E4BC6C"/>
<stop offset="1" stop-color="#E9C786" stop-opacity="0"/>
</linearGradient>
<linearGradient id="paint14_linear_689_16020" x1="57.3473" y1="68.7605" x2="187.293" y2="68.7605" gradientUnits="userSpaceOnUse">
<stop stop-color="#E4BC6C"/>
<stop offset="1" stop-color="#E9C786" stop-opacity="0"/>
</linearGradient>
<linearGradient id="paint15_linear_689_16020" x1="176.288" y1="13.3253" x2="184.829" y2="13.3253" gradientUnits="userSpaceOnUse">
<stop stop-color="#E4BC6C"/>
<stop offset="1" stop-color="#E9C786" stop-opacity="0"/>
</linearGradient>
<linearGradient id="paint16_linear_689_16020" x1="164.894" y1="14.0517" x2="171.337" y2="14.0517" gradientUnits="userSpaceOnUse">
<stop stop-color="#E4BC6C"/>
<stop offset="1" stop-color="#E9C786" stop-opacity="0"/>
</linearGradient>
<linearGradient id="paint17_linear_689_16020" x1="168.045" y1="107.934" x2="179.142" y2="107.934" gradientUnits="userSpaceOnUse">
<stop stop-color="#E4BC6C"/>
<stop offset="1" stop-color="#E9C786" stop-opacity="0"/>
</linearGradient>
<linearGradient id="paint18_linear_689_16020" x1="155.679" y1="114.101" x2="167.615" y2="114.101" gradientUnits="userSpaceOnUse">
<stop stop-color="#E4BC6C"/>
<stop offset="1" stop-color="#E9C786" stop-opacity="0"/>
</linearGradient>
<linearGradient id="paint19_linear_689_16020" x1="152.13" y1="15.4323" x2="161.345" y2="15.4323" gradientUnits="userSpaceOnUse">
<stop stop-color="#E4BC6C"/>
<stop offset="1" stop-color="#E9C786" stop-opacity="0"/>
</linearGradient>
<linearGradient id="paint20_linear_689_16020" x1="143.376" y1="119.44" x2="153.583" y2="119.44" gradientUnits="userSpaceOnUse">
<stop stop-color="#E4BC6C"/>
<stop offset="1" stop-color="#E9C786" stop-opacity="0"/>
</linearGradient>
<linearGradient id="paint21_linear_689_16020" x1="140.931" y1="17.5188" x2="149.849" y2="17.5188" gradientUnits="userSpaceOnUse">
<stop stop-color="#E4BC6C"/>
<stop offset="1" stop-color="#E9C786" stop-opacity="0"/>
</linearGradient>
<linearGradient id="paint22_linear_689_16020" x1="129.465" y1="123.961" x2="139.007" y2="123.961" gradientUnits="userSpaceOnUse">
<stop stop-color="#E4BC6C"/>
<stop offset="1" stop-color="#E9C786" stop-opacity="0"/>
</linearGradient>
<linearGradient id="paint23_linear_689_16020" x1="127.031" y1="20.9449" x2="136.062" y2="20.9449" gradientUnits="userSpaceOnUse">
<stop stop-color="#E4BC6C"/>
<stop offset="1" stop-color="#E9C786" stop-opacity="0"/>
</linearGradient>
<linearGradient id="paint24_linear_689_16020" x1="116.363" y1="127.878" x2="125.937" y2="127.878" gradientUnits="userSpaceOnUse">
<stop stop-color="#E4BC6C"/>
<stop offset="1" stop-color="#E9C786" stop-opacity="0"/>
</linearGradient>
<linearGradient id="paint25_linear_689_16020" x1="114.738" y1="24.3408" x2="123.687" y2="24.3408" gradientUnits="userSpaceOnUse">
<stop stop-color="#E4BC6C"/>
<stop offset="1" stop-color="#E9C786" stop-opacity="0"/>
</linearGradient>
<linearGradient id="paint26_linear_689_16020" x1="99.937" y1="29.0864" x2="112.681" y2="29.0864" gradientUnits="userSpaceOnUse">
<stop stop-color="#E4BC6C"/>
<stop offset="1" stop-color="#E9C786" stop-opacity="0"/>
</linearGradient>
<linearGradient id="paint27_linear_689_16020" x1="104.264" y1="130.793" x2="111.638" y2="130.793" gradientUnits="userSpaceOnUse">
<stop stop-color="#E4BC6C"/>
<stop offset="1" stop-color="#E9C786" stop-opacity="0"/>
</linearGradient>
<linearGradient id="paint28_linear_689_16020" x1="91.049" y1="132.91" x2="100.428" y2="132.91" gradientUnits="userSpaceOnUse">
<stop stop-color="#E4BC6C"/>
<stop offset="1" stop-color="#E9C786" stop-opacity="0"/>
</linearGradient>
<linearGradient id="paint29_linear_689_16020" x1="88.8391" y1="34.0471" x2="98.8727" y2="34.0471" gradientUnits="userSpaceOnUse">
<stop stop-color="#E4BC6C"/>
<stop offset="1" stop-color="#E9C786" stop-opacity="0"/>
</linearGradient>
<linearGradient id="paint30_linear_689_16020" x1="74.5821" y1="40.4088" x2="87.408" y2="40.4088" gradientUnits="userSpaceOnUse">
<stop stop-color="#E4BC6C"/>
<stop offset="1" stop-color="#E9C786" stop-opacity="0"/>
</linearGradient>
<linearGradient id="paint31_linear_689_16020" x1="80.5859" y1="134.291" x2="86.0271" y2="134.291" gradientUnits="userSpaceOnUse">
<stop stop-color="#E4BC6C"/>
<stop offset="1" stop-color="#E9C786" stop-opacity="0"/>
</linearGradient>
<linearGradient id="paint32_linear_689_16020" x1="66.5226" y1="134.741" x2="76.3107" y2="134.741" gradientUnits="userSpaceOnUse">
<stop stop-color="#E4BC6C"/>
<stop offset="1" stop-color="#E9C786" stop-opacity="0"/>
</linearGradient>
<linearGradient id="paint33_linear_689_16020" x1="60.3147" y1="48.4886" x2="72.4655" y2="48.4886" gradientUnits="userSpaceOnUse">
<stop stop-color="#E4BC6C"/>
<stop offset="1" stop-color="#E9C786" stop-opacity="0"/>
</linearGradient>
<linearGradient id="paint34_linear_689_16020" x1="54.5454" y1="134.117" x2="62.9118" y2="134.117" gradientUnits="userSpaceOnUse">
<stop stop-color="#E4BC6C"/>
<stop offset="1" stop-color="#E9C786" stop-opacity="0"/>
</linearGradient>
<linearGradient id="paint35_linear_689_16020" x1="49.2175" y1="56.2724" x2="59.6807" y2="56.2724" gradientUnits="userSpaceOnUse">
<stop stop-color="#E4BC6C"/>
<stop offset="1" stop-color="#E9C786" stop-opacity="0"/>
</linearGradient>
<linearGradient id="paint36_linear_689_16020" x1="40.5637" y1="132.215" x2="51.5791" y2="132.215" gradientUnits="userSpaceOnUse">
<stop stop-color="#E4BC6C"/>
<stop offset="1" stop-color="#E9C786" stop-opacity="0"/>
</linearGradient>
<linearGradient id="paint37_linear_689_16020" x1="38.1389" y1="64.7615" x2="48.2544" y2="64.7615" gradientUnits="userSpaceOnUse">
<stop stop-color="#E4BC6C"/>
<stop offset="1" stop-color="#E9C786" stop-opacity="0"/>
</linearGradient>
<linearGradient id="paint38_linear_689_16020" x1="27.6869" y1="127.653" x2="39.5411" y2="127.653" gradientUnits="userSpaceOnUse">
<stop stop-color="#E4BC6C"/>
<stop offset="1" stop-color="#E9C786" stop-opacity="0"/>
</linearGradient>
<linearGradient id="paint39_linear_689_16020" x1="27.0636" y1="74.7441" x2="39.0303" y2="74.7441" gradientUnits="userSpaceOnUse">
<stop stop-color="#E4BC6C"/>
<stop offset="1" stop-color="#E9C786" stop-opacity="0"/>
</linearGradient>
<linearGradient id="paint40_linear_689_16020" x1="19.0139" y1="120.197" x2="27.3803" y2="120.197" gradientUnits="userSpaceOnUse">
<stop stop-color="#E4BC6C"/>
<stop offset="1" stop-color="#E9C786" stop-opacity="0"/>
</linearGradient>
<linearGradient id="paint41_linear_689_16020" x1="19.3409" y1="87.4475" x2="28.229" y2="87.4475" gradientUnits="userSpaceOnUse">
<stop stop-color="#E4BC6C"/>
<stop offset="1" stop-color="#E9C786" stop-opacity="0"/>
</linearGradient>
<linearGradient id="paint42_linear_689_16020" x1="15.8942" y1="110.429" x2="21.5093" y2="110.429" gradientUnits="userSpaceOnUse">
<stop stop-color="#E4BC6C"/>
<stop offset="1" stop-color="#E9C786" stop-opacity="0"/>
</linearGradient>
<linearGradient id="paint43_linear_689_16020" x1="16.109" y1="100.007" x2="21.3969" y2="100.007" gradientUnits="userSpaceOnUse">
<stop stop-color="#E4BC6C"/>
<stop offset="1" stop-color="#E9C786" stop-opacity="0"/>
</linearGradient>
<linearGradient id="paint44_linear_689_16020" x1="0.0306383" y1="90.086" x2="266.581" y2="90.086" gradientUnits="userSpaceOnUse">
<stop stop-color="#E4BC6C"/>
<stop offset="1" stop-color="#E9C786" stop-opacity="0"/>
</linearGradient>
</defs>
</svg>
