<svg width="317" height="393" viewBox="0 0 317 393" fill="none" xmlns="http://www.w3.org/2000/svg">
<path d="M75.6215 60.1208C75.8614 60.2935 75.7917 60.5918 75.7122 60.8253C74.9692 63.1147 74.5335 65.3476 72.0739 66.8919C68.3421 69.2235 65.5591 72.7826 62.4063 75.8472C57.0889 81.0458 51.7168 86.1686 46.3698 91.3232C46.1874 91.4984 45.984 91.6538 45.817 91.7961C45.0923 92.058 45.1284 91.5533 45.1907 91.1212C45.3795 90.1579 45.8326 89.266 46.4993 88.5455C50.4978 83.6141 54.7058 78.8847 59.1233 74.3572C63.2686 70.0348 67.6721 65.9676 72.3094 62.1779C73.1621 61.5147 74.0236 60.8757 74.885 60.2367C75.1289 60.0803 75.3859 59.9601 75.6215 60.1208Z" fill="black"/>
<path d="M71.4515 75.9782C72.466 75.6116 72.4504 76.2863 72.4337 76.9204C72.3477 79.3274 72.2211 81.7354 72.1515 84.1501C72.1226 85.4304 72.1628 86.7131 72.1788 88.0045C72.2192 88.3372 72.1593 88.6743 72.0068 88.9726C71.8543 89.271 71.6162 89.5171 71.323 89.6793C67.7478 91.6129 65.0701 94.6697 62.0346 97.2276C55.505 102.851 49.0094 108.53 42.8181 114.522C42.2629 115.064 41.6586 116.074 40.8311 115.636C40.0036 115.198 40.505 114.129 40.5505 113.348C40.8062 109.608 41.2856 105.888 41.9861 102.206C42.2551 100.588 43.15 99.1417 44.477 98.1786C50.8507 93.1445 57.0918 88.0081 63.3571 82.863C65.8924 80.7725 68.3358 78.5787 70.8252 76.4366C71.0241 76.2691 71.2241 76.1423 71.4515 75.9782Z" fill="black"/>
<path d="M72.3344 96.8238C73.0916 96.2362 73.7085 96.0542 73.9638 97.3274C74.3742 100.579 74.7812 103.859 75.1892 107.18C75.1838 107.59 75.235 107.999 75.3414 108.395C76.428 110.911 75.1306 112.308 73.1671 113.714C65.4166 119.246 57.7766 124.97 50.119 130.645C47.638 132.47 45.2489 134.399 42.8302 136.283C41.6544 137.186 41.183 137.015 40.9941 135.472C40.5174 131.296 40.2673 127.097 40.2449 122.894C40.2372 122.404 40.359 121.922 40.5981 121.495C40.8371 121.068 41.1848 120.712 41.6059 120.463C47.3484 116.667 52.5032 112.114 57.9852 107.976C62.842 104.337 67.5653 100.554 72.3344 96.8238Z" fill="black"/>
<path d="M75.3053 118.84C76.5744 117.931 77.0008 118.091 77.5471 119.791C78.4832 124.573 79.869 129.466 81.1856 134.357C81.4458 135.341 80.9215 135.818 80.1912 136.177C75.9578 138.594 71.8766 141.243 67.7154 143.785C60.7092 148.051 53.9479 152.692 47.0728 157.17C45.0865 158.475 44.7883 158.406 44.3288 156.114C43.5474 151.835 42.6037 147.561 41.9814 143.307C41.8713 142.811 41.927 142.292 42.1399 141.831C42.3529 141.369 42.7114 140.99 43.1605 140.751C51.1613 135.484 59.1411 130.184 67.0996 124.85C69.8947 122.911 72.5518 120.818 75.3053 118.84Z" fill="black"/>
<path d="M81.2411 140.14C82.3311 139.377 82.8703 139.661 83.2695 140.841C83.9154 142.628 84.5569 144.404 85.2029 146.191L84.8888 146.305C85.5347 148.092 86.1981 149.928 86.8266 151.667C87.0547 152.125 87.1085 152.65 86.9781 153.144C86.8477 153.638 86.542 154.068 86.1179 154.354C75.4063 163.632 64.605 172.787 53.714 181.821C52.5117 182.801 52.1312 182.693 51.5484 181.156C49.8332 176.409 48.4814 171.572 47.0648 166.745C46.9046 166.226 46.9282 165.668 47.1317 165.164C47.3351 164.66 47.706 164.242 48.1818 163.979C51.6222 161.371 55.0386 158.771 58.525 156.214C63.209 152.814 67.939 149.467 72.6328 146.132C75.5027 144.098 78.3911 142.153 81.2411 140.14Z" fill="black"/>
<path d="M96.3296 174.751C96.8092 175.738 96.5742 176.41 95.6819 177.115C85.5897 185.008 75.0401 192.316 65.2543 200.604L62.2969 203.038C61.1145 203.998 60.6527 203.892 60.0247 202.494C58.9827 200.14 57.9387 197.704 56.8958 195.309L56.6905 195.383C55.9267 193.27 55.1586 191.144 54.3948 189.03C53.6311 186.917 53.7515 186.532 55.5872 185.377C61.0083 182.053 66.1254 178.265 71.1845 174.429C77.0688 169.968 82.9772 165.498 88.5943 160.751C89.5054 159.985 90.0965 160.071 90.5715 161.197C92.4232 165.717 94.1595 170.333 96.3296 174.751Z" fill="black"/>
<path d="M106.028 194.718C106.523 195.672 105.98 196.21 105.304 196.795C102.215 199.253 99.0035 201.553 95.6823 203.686C87.4587 209.307 79.407 215.138 71.6124 221.341C70.0552 222.587 69.8556 222.563 68.8839 220.743C67.0673 217.303 65.3615 213.905 63.6184 210.48C61.8753 207.054 62.6109 207.389 65.1322 205.713C70.4265 202.189 75.5896 198.453 80.9899 195.108C86.1212 191.889 90.9911 188.285 96.2198 185.222C97.0382 184.694 97.8089 184.096 98.523 183.434C99.322 182.735 99.9881 182.727 100.484 183.722C102.347 187.391 104.195 191.056 106.028 194.718Z" fill="black"/>
<path d="M116.364 213.227C116.813 214.28 116.582 214.773 115.936 215.252C104.718 223.47 93.9538 232.262 83.0931 240.939C81.5359 242.184 81.142 242.19 80.125 240.509C77.7215 236.503 75.3861 232.458 73.0353 228.447C72.861 228.239 72.7364 227.994 72.671 227.73C72.6056 227.467 72.6011 227.192 72.6579 226.927C72.7147 226.661 72.8313 226.412 72.9988 226.199C73.1663 225.985 73.3803 225.813 73.6245 225.694C76.9335 223.515 80.2899 221.278 83.6439 219.111C91.1077 214.297 98.5845 209.52 106.036 204.71C106.758 204.224 107.452 203.7 108.117 203.139C109.614 201.916 109.883 201.941 110.885 203.655C112.073 205.697 113.201 207.761 114.378 209.807C115.051 211.066 115.809 212.294 116.364 213.227Z" fill="black"/>
<path d="M126.308 228.995C126.877 230.155 126.334 230.843 125.601 231.422L113.909 240.631C107.044 246.006 100.367 251.601 93.3679 256.793C91.8241 257.924 91.6816 257.907 90.5985 256.346C88.4566 253.215 86.3586 250.054 84.2211 246.935C83.5931 246.028 83.6668 245.401 84.6423 244.775L114.384 225.057C116.184 223.87 117.846 222.487 119.339 220.931C119.877 220.382 120.398 220.084 120.986 220.842C122.807 223.652 124.606 226.402 126.308 228.995Z" fill="black"/>
<path d="M138.431 246.216C139.025 247.067 138.689 247.762 137.944 248.345C135.397 250.33 132.931 252.423 130.284 254.281C122.401 259.86 114.861 265.862 107.166 271.66C106.309 272.311 105.427 272.931 104.837 273.376C103.821 273.852 103.329 273.511 102.934 272.985C100.277 269.411 97.5284 265.885 94.8015 262.269C93.9907 261.196 94.6831 260.619 95.4556 259.998C97.7371 258.15 100.382 256.853 102.777 255.168C109.393 250.578 116.077 246.101 122.714 241.532C125.106 239.875 127.754 238.55 129.637 236.204C130.255 235.42 130.917 235.741 131.402 236.44C133.78 239.732 136.107 242.96 138.431 246.216Z" fill="black"/>
<path d="M149.684 260.543C150.375 261.399 150.251 262.113 149.32 262.709C142.616 266.981 136.141 271.6 129.919 276.547C125.66 279.875 121.457 283.36 117.259 286.857C116.093 287.824 115.338 287.851 114.353 286.637C112.304 284.141 110.14 281.742 108.027 279.296C107.793 279.026 107.591 278.73 107.415 278.507C107.031 277.444 107.715 277.033 108.341 276.575C111.049 274.736 113.839 272.895 116.503 271.086C121.121 267.956 125.759 264.846 130.359 261.668C134.241 258.996 138.296 256.575 141.945 253.563C142.079 253.383 142.257 253.241 142.463 253.151C142.668 253.061 142.894 253.027 143.116 253.051C143.339 253.076 143.552 253.158 143.733 253.29C143.914 253.422 144.058 253.599 144.149 253.804C145.972 256.054 147.848 258.298 149.684 260.543Z" fill="black"/>
<path d="M161.582 274.199C162.773 275.53 162.718 275.946 161.221 276.979C155.045 281.313 149.377 286.297 143.528 291.046C139.658 294.165 135.826 297.352 131.928 300.509C131.322 300.987 130.683 301.409 130.299 301.671C130.014 301.844 129.676 301.911 129.346 301.86C129.016 301.81 128.714 301.645 128.493 301.395L119.299 292.087C118.528 291.314 118.662 290.665 119.524 290.066C126.798 285.103 133.876 279.828 141.339 275.124C144.766 272.971 148.037 270.573 151.372 268.276C151.589 268.132 151.783 267.956 151.948 267.754C153.774 265.25 154.079 266.096 155.736 267.846C157.79 269.903 159.652 272.07 161.582 274.199Z" fill="black"/>
<path d="M279.424 218.849C283.008 228.417 285.876 238.238 288.007 248.231C290.889 261.951 292.507 275.799 291.005 289.819C289.969 299.232 287.487 308.158 281.862 315.981C279.364 319.578 276.17 322.636 272.467 324.974C268.39 327.444 265.017 330.807 261.335 333.694C253.732 339.55 245.554 344.619 236.926 348.823C232.09 351.153 227.007 352.931 221.772 354.121C221.301 354.275 220.802 354.324 220.31 354.267C219.817 354.209 219.343 354.045 218.92 353.786C218.22 353.467 217.452 353.328 216.684 353.379C207.177 352.5 197.708 351.538 188.471 348.8C173.803 344.446 160.517 337.341 147.942 328.803C133.777 319.03 120.678 307.795 108.861 295.285C99.8788 285.908 91.5028 275.968 83.7844 265.526C78.9677 259.074 74.4193 252.306 70.0917 245.432C64.4267 236.507 59.2439 227.286 54.5654 217.807C47.356 203.497 41.4608 188.561 36.9525 173.185C34.7777 165.734 32.998 158.173 31.621 150.533C28.5955 132.865 27.8334 115.226 32.4888 97.6904C33.3125 94.5663 34.3402 91.4776 35.4017 88.445C36.2639 86.6885 37.4335 85.1005 38.8552 83.7561C44.5934 77.3277 50.7631 71.2979 57.3216 65.7088C63.0151 60.6064 68.6211 55.4128 74.6157 50.6522C79.2024 46.8503 84.1112 43.4546 89.2864 40.5034C91.0968 39.2719 93.2318 38.605 95.4212 38.587C95.7834 38.5832 96.1409 38.5051 96.4717 38.3575C104.977 35.2159 113.603 35.6217 122.25 37.6722C134.028 40.4892 144.613 45.9766 154.744 52.4746C168.554 61.3302 180.914 71.9931 192.499 83.496C199.891 90.7653 206.847 98.4517 213.54 106.356C219.413 113.314 224.972 120.536 230.352 127.904C236.611 136.484 242.518 145.273 248.073 154.272C260.719 174.66 271.225 196.301 279.424 218.849ZM279.977 255.257C277.541 242.96 273.93 230.966 268.2 215.108C263.857 203.791 258.907 192.717 253.372 181.933C246.799 168.937 239.505 156.32 231.522 144.14C226.674 136.77 221.635 129.552 216.349 122.518C210.934 115.317 205.23 108.349 199.236 101.612C191.753 93.0905 183.753 85.0368 175.283 77.4961C164.288 67.8146 152.655 58.9371 139.524 52.1851C130.871 47.7746 121.907 44.2819 112.091 43.5687C106.434 42.9889 100.727 43.9923 95.6062 46.4671C89.3647 49.6374 85.5939 54.9598 83.0709 61.2788C80.7886 67.4406 79.4442 73.9101 79.0825 80.471C78.693 85.3636 79.5038 90.3277 78.2071 95.1657C78.0801 95.931 78.1121 96.7143 78.3011 97.4667C78.6377 99.2294 78.8042 101.013 79.0475 102.782C80.0922 109.94 81.6279 117.018 83.6436 123.965C88.0371 139.374 93.7217 154.384 100.637 168.838C108.827 185.967 118.237 202.485 128.794 218.266C134.053 226.169 139.569 233.875 145.341 241.384C150.036 247.539 154.982 253.48 160.007 259.298C170.335 271.271 181.624 282.38 193.762 292.515C204.923 301.713 216.728 309.969 230.083 315.753C238.074 319.201 246.312 321.631 255.126 321.423C264.386 321.203 271.819 317.589 276.618 309.369C279.651 303.922 281.527 297.907 282.128 291.702C283.704 279.513 282.327 267.352 279.977 255.257ZM256.78 330.875C256.693 330.332 256.159 330.403 255.774 330.433C251.771 330.649 247.756 330.424 243.802 329.761C243.476 329.674 243.131 329.697 242.819 329.827C242.508 329.957 242.249 330.186 242.081 330.479C240.324 333.476 237.506 335.313 234.665 337.05C228.355 341.004 221.674 344.333 214.717 346.99C214.185 347.182 213.261 347.27 213.385 347.99C213.508 348.71 214.357 348.376 214.898 348.399C220.127 348.776 225.288 348.659 228.621 346.471C233.674 344.167 237.391 342.551 241.043 340.794C246.272 338.283 251.275 335.329 255.999 331.963C256.324 331.654 256.838 331.413 256.777 330.903L256.78 330.875ZM234.991 327.975C234.959 327.358 234.253 327.368 233.805 327.188C231.356 326.23 228.885 325.361 226.504 324.365C226.268 324.212 226.002 324.111 225.724 324.066C225.446 324.022 225.162 324.036 224.89 324.108C224.618 324.179 224.364 324.306 224.143 324.481C223.923 324.656 223.742 324.875 223.61 325.123C223.04 325.91 222.385 326.632 221.657 327.277C214.512 333.955 206.144 338.495 197.415 342.564C196.575 342.963 195.165 343.104 195.243 344.113C195.321 345.123 196.685 345.08 197.508 345.316C200.028 346.016 202.526 347.339 205.378 346.049C205.596 345.971 205.934 345.848 206.272 345.726C212.906 342.712 219.299 339.192 225.394 335.198C228.372 333.275 231.228 331.164 234.122 329.122C234.439 328.83 235.009 328.515 234.979 327.979L234.991 327.975ZM218.083 322.109C219.036 321.383 219.063 320.813 217.914 320.204C215.959 319.177 214.026 318.1 212.154 316.961C211.958 316.797 211.729 316.678 211.483 316.61C211.237 316.543 210.979 316.529 210.727 316.57C210.475 316.61 210.235 316.704 210.023 316.846C209.81 316.987 209.63 317.172 209.496 317.389C208.765 318.177 207.983 318.915 207.154 319.6C201.916 324.224 195.879 327.771 190.043 331.573C186.993 333.563 183.808 335.328 180.699 337.23C179.495 337.979 179.524 338.323 180.803 338.954C182.447 339.725 184.092 340.496 185.736 341.268C186.455 341.665 187.286 341.811 188.098 341.684C190.426 340.569 192.483 339.799 194.351 338.659C200.602 334.823 206.654 330.672 212.483 326.222L218.083 322.109ZM204.269 314.375C205.442 313.501 205.512 312.902 204.4 312.13C201.027 309.785 197.697 307.41 194.449 304.884C194.322 304.754 194.169 304.652 194 304.586C193.831 304.52 193.65 304.49 193.469 304.499C193.287 304.507 193.11 304.554 192.948 304.637C192.786 304.719 192.644 304.835 192.53 304.976C191.514 305.944 190.426 306.938 189.315 307.831C180.849 314.632 172.609 321.569 163.72 327.69C162.809 328.306 162.579 328.84 163.659 329.487C166.752 331.319 169.825 333.171 172.913 334.991C173.218 335.21 173.58 335.337 173.955 335.358C174.33 335.38 174.703 335.295 175.032 335.113L175.617 334.765C178.52 332.938 181.305 330.934 184.116 328.963C190.894 324.179 197.546 319.235 204.269 314.375ZM188.851 302.919C189.625 302.34 190.314 301.64 189.205 300.688L180.257 292.93C180.114 292.765 179.936 292.634 179.735 292.547C179.534 292.46 179.316 292.42 179.097 292.429C178.879 292.439 178.665 292.497 178.473 292.601C178.28 292.705 178.113 292.85 177.985 293.027C176.777 294.356 175.444 295.565 174.005 296.637L149.702 313.42C148.653 314.06 147.652 314.773 146.704 315.555C145.978 316.227 145.882 316.794 146.739 317.427C149.781 319.687 152.82 321.975 155.843 324.255C156.123 324.463 156.456 324.587 156.804 324.614C157.152 324.641 157.5 324.568 157.809 324.405C158.062 324.313 158.497 324.006 158.929 323.727C166.985 318.513 174.901 313.099 182.677 307.485C184.714 305.944 186.789 304.429 188.833 302.871L188.851 302.919ZM173.749 289.656C175.219 288.51 175.204 288.243 173.854 286.887C172.188 285.223 170.489 283.583 168.822 281.878C167.317 280.36 167.089 280.333 165.371 281.623C160.697 285.128 156.058 288.689 151.321 292.094C145.737 296.353 139.94 300.325 133.952 303.996C132.823 304.65 132.785 305.414 133.766 306.276C136.241 308.44 138.692 310.613 141.147 312.798C141.391 313.068 141.726 313.239 142.088 313.279C142.449 313.32 142.813 313.226 143.111 313.017C143.51 312.722 144.21 312.278 144.826 311.755C152.288 305.577 159.83 299.506 167.8 293.977C169.816 292.566 171.787 291.103 173.731 289.608L173.749 289.656ZM161.286 277.009C162.736 275.994 162.79 275.578 161.648 274.23C159.718 272.101 157.856 269.933 155.898 267.842C154.254 266.087 153.96 265.237 152.11 267.749C151.946 267.952 151.751 268.128 151.534 268.272C148.26 270.547 144.928 272.966 141.501 275.12C134.038 279.824 126.96 285.099 119.687 290.062C118.824 290.66 118.69 291.31 119.461 292.082L128.655 301.391C128.876 301.641 129.178 301.806 129.508 301.856C129.838 301.906 130.176 301.839 130.462 301.666C130.845 301.405 131.484 300.983 132.09 300.504C135.94 297.365 139.772 294.178 143.691 291.042C149.425 286.28 155.093 281.296 161.269 276.961L161.286 277.009ZM149.312 262.766C150.268 262.161 150.368 261.456 149.676 260.6C147.837 258.343 145.965 256.111 144.165 253.812C144.073 253.607 143.93 253.43 143.749 253.298C143.568 253.166 143.355 253.083 143.132 253.059C142.909 253.035 142.684 253.069 142.479 253.159C142.273 253.248 142.095 253.39 141.961 253.57C138.311 256.582 134.257 259.003 130.375 261.676C125.746 264.81 121.156 267.943 116.508 270.988C113.784 272.819 111.006 274.656 108.346 276.477C107.711 276.911 107.012 277.355 107.42 278.41C107.596 278.633 107.798 278.928 108.033 279.199C110.145 281.644 112.309 284.043 114.358 286.539C115.343 287.754 116.146 287.709 117.264 286.759C121.462 283.262 125.605 279.799 129.924 276.449C136.146 271.535 142.62 266.949 149.319 262.709L149.312 262.766ZM75.7043 60.8821C75.7959 60.6442 75.8535 60.3503 75.6136 60.1776C75.3736 60.0048 75.121 60.1371 74.9057 60.2968C74.0442 60.9358 73.1827 61.5748 72.33 62.238C67.6927 66.0277 63.2893 70.095 59.1439 74.4173C54.6913 78.9484 50.4834 83.6779 46.52 88.6057C45.8533 89.3262 45.4002 90.218 45.2114 91.1814C45.1491 91.6135 45.0955 92.0698 45.8376 91.8562C46.0047 91.7139 46.208 91.5586 46.3905 91.3834C51.7374 86.2287 57.1095 81.1059 62.427 75.9073C65.5754 72.8307 68.3584 69.2716 72.0945 66.952C74.5323 65.3474 74.968 63.1145 75.711 60.8251L75.7043 60.8821ZM137.936 248.402C138.681 247.819 139.017 247.124 138.423 246.274C136.099 243.017 133.764 239.765 131.404 236.521C130.928 235.846 130.257 235.502 129.639 236.285C127.756 238.631 125.108 239.957 122.716 241.613C116.079 246.183 109.395 250.66 102.778 255.249C100.374 256.91 97.7385 258.231 95.457 260.079C94.6845 260.7 94.0008 261.302 94.8029 262.35C97.4596 265.924 100.197 269.454 102.935 273.066C103.33 273.592 103.822 273.934 104.838 273.457C105.428 273.012 106.311 272.393 107.168 271.742C114.863 265.943 122.394 259.917 130.286 254.362C132.931 252.423 135.397 250.33 137.943 248.345L137.936 248.402ZM72.4265 76.9774C72.4431 76.3433 72.4369 75.6082 71.4443 76.0352C71.2289 76.1949 71.0169 76.3262 70.8179 76.4936C68.3286 78.6358 65.8852 80.8296 63.3498 82.92C57.0242 88.087 50.8357 93.218 44.4698 98.2357C43.1427 99.1987 42.2479 100.645 41.9788 102.263C41.2783 105.945 40.7989 109.665 40.5432 113.405C40.4978 114.186 40.0458 115.278 40.8239 115.693C41.6021 116.108 42.2732 115.169 42.8109 114.579C49.0022 108.587 55.4978 102.908 62.0273 97.2847C65.0497 94.6905 67.7405 91.6699 71.3157 89.7363C71.6089 89.5741 71.8471 89.3281 71.9995 89.0297C72.152 88.7313 72.2119 88.3942 72.1716 88.0615C72.1434 86.7745 72.1032 85.4919 72.1442 84.2072C72.2205 81.7354 72.3931 79.379 72.4332 76.9204L72.4265 76.9774ZM125.594 231.479C126.327 230.9 126.892 230.272 126.301 229.052C124.599 226.459 122.787 223.672 120.919 220.92C120.391 220.141 119.81 220.461 119.272 221.01C117.779 222.565 116.117 223.949 114.317 225.135L84.5753 244.854C83.6239 245.471 83.5261 246.107 84.1541 247.014C86.2916 250.133 88.3896 253.293 90.5315 256.425C91.6146 257.986 91.7572 258.003 93.301 256.871C100.279 251.619 106.977 246.085 113.842 240.71L125.594 231.479ZM115.928 215.309C116.574 214.83 116.805 214.337 116.357 213.284C115.908 212.231 115.043 211.123 114.347 209.914C113.17 207.867 112.042 205.803 110.854 203.761C109.852 202.048 109.584 202.022 108.087 203.246C107.422 203.806 106.727 204.331 106.006 204.817C98.5538 209.626 91.077 214.403 83.6132 219.217C80.2954 221.372 76.9391 223.609 73.5938 225.801C73.3496 225.919 73.1356 226.092 72.9681 226.305C72.8006 226.519 72.684 226.768 72.6272 227.033C72.5704 227.299 72.5749 227.573 72.6403 227.837C72.7057 228.1 72.8302 228.345 73.0046 228.553C75.3916 232.552 77.727 236.596 80.0942 240.616C81.1112 242.296 81.5052 242.29 83.0624 241.045C93.9529 232.262 104.717 223.47 115.922 215.216L115.928 215.309ZM73.9566 97.3844C73.7013 96.1112 73.0974 96.3294 72.3272 96.8808C67.558 100.611 62.8392 104.406 58.0022 108.024C52.5201 112.163 47.3653 116.715 41.6228 120.511C41.2018 120.76 40.854 121.116 40.615 121.543C40.376 121.97 40.2542 122.453 40.2618 122.942C40.2842 127.145 40.5343 131.344 41.0111 135.52C41.2 137.063 41.6352 137.247 42.8472 136.331C45.2658 134.447 47.6549 132.518 50.136 130.693C57.7935 125.018 65.451 119.342 73.1841 113.762C75.1234 112.365 76.4208 110.968 75.3584 108.443C75.252 108.047 75.2008 107.638 75.2062 107.228C74.785 103.871 74.3737 100.579 73.9633 97.3273L73.9566 97.3844ZM105.269 196.808C105.945 196.223 106.488 195.685 105.993 194.731C104.152 191.072 102.304 187.407 100.449 183.735C99.9531 182.74 99.3002 182.785 98.488 183.447C97.7739 184.109 97.0032 184.707 96.1848 185.235C90.9561 188.299 86.1038 191.95 80.955 195.121C75.5459 198.441 70.3915 202.202 65.0972 205.726C62.5758 207.402 61.9208 206.874 63.5834 210.493C65.246 214.111 67.0498 217.365 68.8489 220.756C69.8206 222.576 70.0203 222.6 71.5774 221.354C79.3721 215.151 87.4238 209.32 95.6473 203.699C98.9686 201.566 102.18 199.266 105.269 196.808ZM77.5112 119.804C76.9046 118.126 76.5385 117.944 75.2694 118.853C72.5159 120.831 69.9071 122.907 67.0463 124.815C59.1016 130.162 51.1219 135.462 43.1072 140.716C42.6581 140.955 42.2996 141.334 42.0867 141.795C41.8737 142.257 41.818 142.776 41.9281 143.272C42.5075 147.596 43.5116 151.849 44.2754 156.079C44.6866 158.388 45.0333 158.44 47.0195 157.135C53.8946 152.657 60.6558 148.016 67.6621 143.75C71.8232 141.208 75.9045 138.559 80.1379 136.142C80.8507 135.734 81.3924 135.306 81.1322 134.322C79.8693 129.466 78.4836 124.573 77.5649 119.84L77.5112 119.804ZM95.6448 177.128C96.5371 176.423 96.7722 175.751 96.2926 174.764C94.1225 170.345 92.3862 165.73 90.5214 161.174C90.1068 160.026 89.4552 159.961 88.5441 160.728C82.9072 165.495 77.0186 169.945 71.1343 174.406C66.0753 178.241 60.9407 181.981 55.537 185.354C53.6969 186.497 53.581 186.894 54.3447 189.007C55.1085 191.121 55.8766 193.246 56.6404 195.36L56.9181 195.259C57.948 197.618 58.992 200.054 60.047 202.444C60.6882 203.879 61.1498 203.985 62.3192 202.989L65.2766 200.555C75.0392 192.316 85.5889 185.008 95.6811 177.115L95.6448 177.128ZM83.2333 140.854C82.7969 139.646 82.2707 139.399 81.205 140.153C78.3549 142.166 75.4665 144.111 72.6208 146.136C67.8908 149.484 63.1608 152.832 58.513 156.218C55.0222 158.763 51.6321 161.435 48.1698 163.984C47.694 164.246 47.3232 164.664 47.1197 165.168C46.9163 165.672 46.8926 166.231 47.0528 166.75C48.4694 171.577 49.7729 176.431 51.5364 181.16C52.095 182.706 52.4997 182.805 53.702 181.825C64.631 172.796 75.4324 163.64 86.1059 154.358C86.53 154.072 86.8357 153.642 86.9661 153.148C87.0965 152.654 87.0427 152.129 86.8146 151.671C86.1687 149.884 85.5053 148.048 84.8768 146.309L85.1909 146.195C84.5449 144.408 83.8672 142.646 83.2696 140.841L83.2333 140.854Z" fill="url(#paint0_linear_689_15870)"/>
<path d="M268.175 215.117C273.906 230.975 277.54 242.961 279.952 255.266C282.351 267.344 283.679 279.522 282.163 291.84C281.562 298.045 279.687 304.059 276.654 309.506C271.855 317.726 264.422 321.341 255.161 321.56C246.348 321.768 238.109 319.338 230.118 315.89C216.763 310.106 204.959 301.851 193.797 292.653C181.66 282.518 170.371 271.408 160.042 259.435C154.949 253.615 150.003 247.674 145.376 241.522C139.628 234.004 134.113 226.298 128.829 218.403C118.269 202.615 108.856 186.088 100.664 168.951C93.7484 154.498 88.0638 139.487 83.6703 124.078C81.6565 117.135 80.1223 110.061 79.0785 102.907C78.8352 101.138 78.6688 99.3548 78.3322 97.5921C78.1432 96.8397 78.1112 96.0564 78.2381 95.2911C79.5348 90.4531 78.7241 85.489 79.1136 80.5965C79.4752 74.0355 80.8197 67.566 83.102 61.4042C85.6075 55.037 89.3957 49.7628 95.6372 46.5926C100.758 44.1178 106.465 43.1143 112.122 43.6941C121.938 44.4073 130.902 47.9001 139.555 52.3105C152.669 59.0142 164.289 67.8554 175.314 77.6215C183.784 85.1623 191.784 93.2159 199.267 101.737C205.231 108.467 210.935 115.435 216.38 122.644C221.654 129.682 226.705 136.896 231.553 144.265C239.536 156.445 246.83 169.063 253.403 182.058C258.915 192.805 263.846 203.841 268.175 215.117ZM264.65 227.314C264.073 225.72 263.693 225.612 262.167 226.491L261.367 226.958C257.255 229.222 257.255 229.222 258.643 233.704C258.8 234.139 258.957 234.574 259.114 235.009C259.271 235.444 259.428 235.878 259.586 236.313C260.153 237.883 260.571 238.019 261.834 236.866C262.914 235.771 264.108 234.794 265.397 233.954C265.77 233.768 266.059 233.448 266.207 233.058C266.354 232.668 266.349 232.237 266.193 231.85C265.646 230.3 265.178 228.776 264.637 227.278L264.65 227.314ZM260.256 219.426C260.604 219.19 260.854 218.835 260.959 218.427C261.063 218.02 261.014 217.588 260.822 217.214C259.81 214.753 258.81 212.288 257.794 209.815C257.431 208.813 256.76 208.618 255.893 209.355C254.747 210.379 253.501 211.287 252.175 212.064C251.994 212.156 251.833 212.284 251.703 212.44C251.573 212.595 251.477 212.776 251.419 212.971C251.362 213.166 251.344 213.37 251.369 213.572C251.393 213.773 251.458 213.968 251.561 214.143C251.997 215.351 252.464 216.643 252.918 217.899L253.123 217.825C253.643 219.262 254.166 220.712 254.69 222.161C254.974 222.946 255.525 223.225 256.234 222.654C257.583 221.552 258.877 220.484 260.243 219.39L260.256 219.426ZM269.322 241.984C268.643 239.84 268.459 239.784 266.824 240.852C265.617 241.63 264.389 242.388 263.173 243.141C262.751 243.347 262.42 243.701 262.242 244.136C262.064 244.57 262.052 245.055 262.208 245.497C262.902 247.909 263.588 250.337 264.08 252.795C264.273 253.818 264.87 253.998 265.762 253.443C267.202 252.554 268.668 251.697 270.146 250.876C270.526 250.711 270.83 250.409 270.997 250.03C271.164 249.65 271.181 249.222 271.045 248.831C270.428 246.405 269.8 244.024 269.309 241.948L269.322 241.984ZM253.379 203.682C253.759 203.419 254.022 203.019 254.113 202.566C254.204 202.113 254.115 201.642 253.867 201.253C253.083 199.652 252.295 198.038 251.52 196.421C250.239 193.784 250.239 193.784 247.997 195.741C244.629 198.665 244.629 198.665 246.464 202.835C246.973 204.017 247.524 205.279 248.034 206.501C248.448 207.457 249.033 207.601 249.799 206.887C251.006 205.769 252.144 204.647 253.366 203.646L253.379 203.682ZM273.08 259.374C272.917 258.354 272.301 258.085 271.436 258.603C270.13 259.411 268.74 260.073 267.289 260.579C267.054 260.638 266.832 260.743 266.638 260.887C266.443 261.032 266.279 261.214 266.155 261.423C266.031 261.631 265.95 261.862 265.915 262.103C265.881 262.343 265.895 262.587 265.956 262.822C266.149 264.186 266.329 265.555 266.481 266.92C266.701 268.739 267.01 268.914 268.738 268.139L270.4 267.375C271.125 267.113 271.85 266.851 272.562 266.593C272.768 266.564 272.966 266.492 273.144 266.383C273.321 266.274 273.474 266.129 273.593 265.958C273.712 265.787 273.794 265.593 273.834 265.389C273.875 265.184 273.873 264.974 273.829 264.77C273.592 262.944 273.356 261.118 273.059 259.314L273.08 259.374ZM245.498 187.126C245.649 187.027 245.778 186.9 245.878 186.75C245.979 186.601 246.049 186.433 246.084 186.256C246.119 186.08 246.119 185.898 246.084 185.722C246.048 185.545 245.978 185.377 245.877 185.228C244.739 183.059 243.595 180.878 242.432 178.717C241.934 177.791 241.386 177.825 240.657 178.567C239.719 179.511 238.71 180.382 237.639 181.173C236.666 181.88 236.449 182.641 236.97 183.477L240.082 189.521C240.561 190.467 241.215 190.613 242.051 189.943L245.498 187.126ZM237.896 172.928C238.129 172.673 238.272 172.349 238.303 172.005C238.334 171.66 238.252 171.315 238.068 171.023C238.024 170.902 237.842 170.586 237.671 170.265C236.835 168.669 236.476 168.621 235.249 169.911C234.683 170.498 234.138 171.105 233.539 171.676C231.516 173.636 231.462 174.393 233.255 176.558C233.812 177.231 234.265 177.313 234.848 176.583C235.81 175.28 236.836 174.076 237.874 172.868L237.896 172.928ZM274.417 273.993C274.39 272.938 273.884 272.82 273.002 273.139L270.391 274.301C269.527 274.518 268.885 274.668 268.244 274.858C267.942 274.926 267.67 275.088 267.466 275.321C267.263 275.554 267.14 275.846 267.114 276.154C266.423 280.664 267.009 281.531 271.506 282.527C271.76 282.586 272.004 282.621 272.262 282.691C273.456 283.011 274.019 282.453 274.117 281.325C274.365 278.868 274.462 276.397 274.407 273.928L274.417 273.993ZM231.274 162.158C231.521 161.914 231.686 161.599 231.746 161.257C231.806 160.915 231.758 160.562 231.608 160.249C231.284 159.806 230.993 158.887 230.173 159.566C228.749 160.734 227.527 162.131 226.559 163.698C226.387 164.11 226.375 164.573 226.527 164.993C226.679 165.414 226.983 165.762 227.38 165.969C228.182 166.525 228.491 165.567 228.881 165.098C229.652 164.096 230.431 163.077 231.252 162.098L231.274 162.158ZM226.839 155.063C227.141 154.814 227.342 154.463 227.403 154.076C227.465 153.689 227.382 153.293 227.172 152.962C226.352 151.675 225.495 150.401 224.699 149.104C224.12 148.18 223.574 148.145 222.971 149.046C222.069 150.328 221.235 151.571 220.402 152.856C220.21 153.098 220.09 153.389 220.056 153.696C220.022 154.003 220.075 154.313 220.21 154.591C220.706 155.657 221.326 156.661 222.056 157.583C222.141 157.743 222.266 157.878 222.418 157.976C222.569 158.075 222.743 158.134 222.924 158.147C223.104 158.161 223.285 158.129 223.45 158.055C223.614 157.98 223.758 157.865 223.867 157.721L226.839 155.063ZM219.862 143.615C220.054 143.479 220.185 143.272 220.226 143.04C220.267 142.808 220.216 142.569 220.083 142.375C219.107 140.884 218.151 139.372 217.103 137.908C216.787 137.449 216.224 137.174 215.819 137.717C214.646 139.197 213.621 140.789 212.757 142.469C212.579 142.847 212.732 143.27 212.983 143.889C213.603 144.771 214.321 145.891 215.116 146.955C215.481 147.438 216.012 147.396 216.48 146.954C217.623 145.845 218.753 144.74 219.862 143.615ZM272.068 291.337C272.32 290.522 272.054 289.976 271.169 289.982C269.772 289.874 268.422 289.424 267.24 288.671C266.363 288.169 265.766 288.37 265.477 289.308C264.847 291.417 263.935 293.432 262.767 295.298C262.605 295.537 262.515 295.817 262.508 296.105C262.501 296.394 262.577 296.678 262.727 296.924C263.497 297.847 264.529 299.004 265.465 300.195C266.167 301.116 266.831 301.067 267.431 300.195C269.502 297.559 271.077 294.57 272.081 291.373L272.068 291.337ZM213.12 133.762C213.21 133.689 213.284 133.598 213.338 133.496C213.393 133.393 213.426 133.28 213.436 133.165C213.447 133.049 213.434 132.933 213.399 132.822C213.363 132.712 213.306 132.609 213.231 132.521C211.973 130.777 210.831 128.978 209.421 127.343C208.769 126.596 208.294 126.604 207.77 127.421C207.008 128.638 206.23 129.848 205.442 130.993C205.237 131.268 205.122 131.6 205.116 131.943C205.11 132.286 205.213 132.622 205.409 132.903C206.245 134.229 207.161 135.503 208.153 136.718C208.23 136.831 208.33 136.925 208.446 136.996C208.562 137.067 208.692 137.113 208.827 137.13C208.963 137.147 209.1 137.135 209.23 137.095C209.36 137.055 209.481 136.987 209.583 136.898C210.843 135.943 212.023 134.886 213.111 133.738L213.12 133.762ZM204.758 123.922C205.08 123.728 205.324 123.426 205.445 123.07C205.566 122.714 205.557 122.326 205.42 121.976C205.382 121.848 205.337 121.723 205.284 121.601C203.782 119.673 202.287 117.728 200.765 115.82C200.152 115.031 199.57 115.46 199.154 116.047C198.306 117.254 197.517 118.509 196.7 119.76C196.491 120.067 196.4 120.439 196.446 120.807C196.491 121.175 196.668 121.514 196.945 121.761C197.847 122.937 198.718 124.138 199.593 125.31C200.965 127.067 201.351 127.078 202.942 125.547C203.471 124.933 204.141 124.445 204.749 123.897L204.758 123.922ZM196.011 111.052C196.103 110.838 196.124 110.601 196.072 110.374C196.019 110.147 195.896 109.943 195.719 109.792C194.388 108.225 193.057 106.657 191.755 105.093C191.147 104.357 190.614 104.318 190.049 105.136C189.251 106.326 188.414 107.488 187.615 108.678C187.401 108.939 187.289 109.27 187.303 109.608C187.317 109.945 187.454 110.266 187.69 110.509C188.865 111.872 190.045 113.248 191.148 114.639C191.208 114.741 191.288 114.83 191.382 114.9C191.477 114.971 191.584 115.022 191.699 115.051C191.814 115.079 191.933 115.085 192.05 115.067C192.166 115.048 192.278 115.007 192.379 114.945C193.414 113.615 195.006 112.617 196.014 111.023L196.011 111.052ZM217.639 173.476C217.404 172.823 217.203 172.268 216.939 171.803C216.798 171.411 216.545 171.069 216.212 170.818C215.879 170.567 215.48 170.419 215.064 170.392C214.647 170.403 214.246 170.553 213.923 170.817C213.601 171.082 213.376 171.447 213.285 171.854C212.846 172.853 212.503 173.891 212.261 174.955C211.114 180.735 209.657 186.451 209.346 192.394C209.142 197.521 208.218 202.594 206.599 207.464C205.846 209.539 205.294 211.682 204.952 213.863C204.796 214.943 204.311 215.227 203.29 215.009C200.473 214.43 197.66 213.862 194.913 213.025C185.433 210.142 176.912 205.343 168.561 200.181C164.014 197.287 159.3 194.663 154.443 192.325C153.823 192.044 153.065 191.457 152.542 192.315C152.019 193.174 152.834 193.576 153.378 194.062C154.408 194.986 155.415 195.92 156.482 196.832C169.678 208.449 182.657 220.144 196.047 231.541C203.738 238.088 211.145 244.983 219.294 250.982C224.249 254.37 228.981 258.074 233.46 262.071C234.596 263.176 236.046 264.619 237.76 263.467C239.474 262.315 238.868 260.335 238.326 258.797C237.336 255.666 236.738 252.424 236.545 249.145C235.88 242.091 234.651 235.101 232.87 228.243C229.409 214.474 225.814 200.821 221.257 187.379C219.671 182.764 218.798 178.041 217.643 173.447L217.639 173.476ZM185.998 100.537C186.218 100.323 186.354 100.038 186.381 99.7324C186.408 99.427 186.326 99.1219 186.147 98.8722C184.546 96.88 182.812 94.9975 180.957 93.2378C180.467 92.7869 179.982 93.2216 179.689 93.696C178.876 94.8091 178.088 95.954 177.296 97.0869C177.07 97.3744 176.966 97.7396 177.008 98.103C177.05 98.4664 177.234 98.7985 177.519 99.0271C178.789 100.425 180.063 101.835 181.345 103.229C181.458 103.383 181.604 103.51 181.771 103.6C181.939 103.691 182.125 103.743 182.316 103.752C182.506 103.762 182.696 103.729 182.873 103.656C183.049 103.583 183.206 103.471 183.334 103.33C184.24 102.361 185.127 101.453 186.002 100.509L185.998 100.537ZM208.748 164.099C209.229 162.872 209.313 161.526 208.986 160.249C208.66 158.973 207.94 157.832 206.929 156.987C203.02 153.197 199.178 149.328 194.965 145.908C182.181 135.507 170.151 124.247 156.981 114.327C148.771 108.118 141.559 100.784 134.404 93.415C131.465 90.381 127.844 88.2211 124.57 85.6219C124.322 85.3863 123.997 85.2493 123.655 85.2369C123.314 85.2245 122.98 85.3375 122.716 85.5545C122.142 86.0076 122.214 86.6232 122.372 87.2489C122.608 88.2423 122.921 89.2216 123.085 90.2412C123.935 95.6089 125.162 100.91 126.756 106.106C129.922 116.568 133.124 127.017 135.443 137.704C137.194 145.837 138.888 153.964 140.64 162.098C142.06 168.712 143.384 175.361 146.198 181.486C146.47 184.05 148.377 184.795 150.359 185.444C154.305 186.571 158.158 188 161.885 189.718C168.472 193.058 175.118 196.296 181.527 199.975C187.627 203.255 194.012 205.975 200.603 208.102C200.83 208.201 201.079 208.241 201.325 208.218C201.572 208.195 201.809 208.109 202.013 207.97C202.218 207.83 202.384 207.641 202.496 207.42C202.608 207.199 202.661 206.953 202.652 206.706C202.748 205.988 202.699 205.323 202.773 204.546C203.589 197.888 204.471 191.22 205.214 184.547C205.957 177.875 206.431 170.685 208.752 164.07L208.748 164.099ZM258.677 307.181C259.309 306.775 259.432 306.321 258.99 305.703C258.18 304.521 257.378 303.322 256.681 302.072C256.497 301.647 256.161 301.305 255.738 301.114C255.316 300.924 254.837 300.897 254.396 301.041C252.849 301.393 251.26 301.536 249.674 301.463C248.434 301.393 247.959 302.083 247.759 303.152C247.543 304.596 247.22 305.969 246.922 307.374C246.624 308.779 246.822 309.212 248.402 309.242C251.049 309.352 253.694 309.001 256.221 308.205C257.092 307.994 257.926 307.651 258.694 307.189L258.677 307.181ZM176.134 89.3002C176.348 89.0593 176.295 88.7234 176.118 88.3095C176.04 88.1642 175.945 88.0288 175.835 87.9062C173.978 86.0651 172.121 84.228 170.266 82.3949C169.633 81.7771 169.153 82.0735 168.804 82.7322C168.152 83.9509 167.529 85.173 166.898 86.4115C166.702 86.748 166.634 87.1433 166.705 87.5259C166.775 87.9085 166.98 88.2533 167.283 88.4979C168.587 89.8018 169.879 91.11 171.195 92.4095C171.67 92.8932 172.28 93.2192 172.824 92.7222C173.991 91.6449 175.067 90.4644 176.151 89.308L176.134 89.3002ZM165.417 79.5183C165.579 79.3786 165.687 79.1879 165.726 78.9779C165.764 78.768 165.73 78.5512 165.628 78.3634C165.562 78.2427 165.485 78.129 165.396 78.024C163.768 76.3972 162.033 74.88 160.205 73.4823C159.563 72.9905 159.152 73.4395 158.876 73.9623C158.356 75.1399 157.743 76.2745 157.044 77.3554C156.935 77.4995 156.856 77.6639 156.811 77.8391C156.767 78.0143 156.759 78.1965 156.786 78.375C156.814 78.5536 156.877 78.7248 156.972 78.8784C157.067 79.032 157.192 79.165 157.339 79.2695C158.478 80.3053 159.605 81.3455 160.74 82.3692C160.868 82.5118 161.026 82.6238 161.203 82.6971C161.381 82.7704 161.572 82.8031 161.763 82.7929C161.955 82.7827 162.141 82.7297 162.31 82.6379C162.478 82.5461 162.624 82.4178 162.736 82.2624C163.614 81.3305 164.53 80.4261 165.429 79.514L165.417 79.5183ZM241.076 301.211C241.116 300.85 241.018 300.487 240.801 300.196C240.584 299.905 240.265 299.706 239.908 299.64C238.227 299.032 236.534 298.428 234.88 297.743C234.681 297.628 234.459 297.558 234.23 297.538C234.001 297.517 233.77 297.547 233.554 297.625C233.338 297.704 233.141 297.828 232.978 297.99C232.815 298.152 232.689 298.348 232.61 298.563C231.841 299.952 230.996 301.297 230.078 302.591C229.149 303.801 229.562 304.375 230.773 304.893C233.252 305.965 235.801 306.869 238.401 307.599C238.785 307.694 239.174 307.763 239.568 307.805C239.836 307.724 240.07 307.557 240.235 307.33C240.399 307.103 240.485 306.828 240.479 306.548C240.739 304.774 240.914 302.99 241.076 301.211ZM154.713 70.5648C155.353 69.842 155.259 69.3568 154.543 68.8101C152.698 67.4832 150.945 66.1093 149.132 64.7573C148.916 64.5564 148.647 64.4209 148.356 64.3664C148.066 64.3118 147.766 64.3405 147.491 64.449C146.55 65.6221 145.542 66.9148 144.56 68.2392C144.274 68.6567 144.695 69.1052 145.081 69.4164C146.961 70.84 148.836 72.2514 150.716 73.6749C151.565 74.3239 152.182 74.1419 152.741 73.2708C153.334 72.3235 153.993 71.4192 154.713 70.5648ZM142.517 62.0954C143.254 61.1874 143.047 60.5385 142.122 59.9442C140.645 59.0306 139.156 58.1213 137.659 57.2285C137.5 57.0911 137.308 56.9975 137.102 56.9571C136.896 56.9166 136.682 56.9307 136.483 56.998C136.369 57.0884 136.264 57.1904 136.17 57.3023C135.383 58.4879 134.556 59.6744 133.818 60.8831C133.397 61.568 133.839 62.0363 134.368 62.4049C135.759 63.2678 137.173 64.1221 138.552 64.9894C138.708 65.1253 138.892 65.2238 139.092 65.2776C139.292 65.3314 139.501 65.339 139.704 65.2999C139.907 65.2608 140.098 65.1759 140.264 65.0517C140.429 64.9276 140.564 64.7674 140.658 64.5833C141.295 63.7387 141.875 62.8874 142.517 62.0954ZM225.563 294.706C225.673 294.547 225.746 294.366 225.776 294.176C225.807 293.986 225.794 293.791 225.739 293.606C225.684 293.422 225.588 293.252 225.459 293.109C225.329 292.966 225.169 292.855 224.99 292.782C223.746 292.058 222.528 291.296 221.311 290.534C221.108 290.383 220.869 290.286 220.618 290.253C220.367 290.219 220.112 290.25 219.876 290.343C218.198 291.782 216.462 293.215 214.777 294.711C214.201 295.234 214.555 295.72 215.116 296.064C217.151 297.349 219.193 298.618 221.216 299.908C221.376 300.032 221.562 300.117 221.76 300.155C221.958 300.193 222.163 300.184 222.357 300.129C222.551 300.073 222.729 299.973 222.877 299.836C223.025 299.698 223.139 299.528 223.209 299.339L225.563 294.706ZM130.43 55.362C131.265 54.4596 131.202 53.7178 129.987 53.2282C128.772 52.7386 127.437 52.1423 126.18 51.5726C124.922 51.0028 124.227 51.3086 123.741 52.6451C122.287 56.5568 122.242 56.5458 126.12 58.1346C126.404 58.318 126.726 58.4319 127.061 58.4673C127.397 58.5027 127.736 58.4584 128.051 58.3382C128.925 57.4133 129.72 56.4178 130.43 55.362ZM213.572 287.105C213.727 286.962 213.844 286.783 213.914 286.584C213.984 286.385 214.004 286.172 213.972 285.964C213.939 285.755 213.856 285.558 213.73 285.389C213.604 285.221 213.438 285.086 213.247 284.996C211.939 284.022 210.646 283.014 209.334 282.027C209.102 281.833 208.818 281.712 208.517 281.682C208.216 281.652 207.913 281.713 207.648 281.858C206.153 283.275 204.585 284.612 202.95 285.863C202.299 286.44 202.901 286.973 203.386 287.371C205.031 288.675 206.704 289.941 208.33 291.265C209.396 292.137 210.177 291.881 210.911 290.851C211.786 289.607 212.652 288.338 213.572 287.105ZM202.135 276.313C202.048 276.162 201.947 276.02 201.832 275.89L197.762 272.185C197.122 271.625 196.539 271.862 196 272.372C194.827 273.583 193.559 274.699 192.208 275.708C191.477 276.218 191.473 276.888 192.147 277.505C193.747 278.948 195.352 280.443 196.931 281.825C197.047 281.965 197.196 282.074 197.365 282.142C197.533 282.21 197.716 282.236 197.897 282.216C198.077 282.197 198.251 282.133 198.401 282.031C198.551 281.928 198.674 281.791 198.758 281.629C199.793 280.3 200.861 278.985 201.896 277.655C202.058 277.477 202.166 277.256 202.208 277.018C202.25 276.781 202.225 276.536 202.135 276.313ZM117.393 52.1945C118.343 49.12 118.343 49.12 115.137 48.599C111.564 48.0059 111.382 48.1811 111.786 51.6808L111.814 51.9847C111.874 52.946 111.759 54.0253 113.146 54.2344C114.087 54.4752 115.052 54.6118 116.024 54.6417C116.597 54.339 116.812 53.9883 117.393 52.1945ZM190.665 267.622C190.852 267.386 190.974 267.104 191.017 266.805C191.06 266.507 191.024 266.202 190.911 265.922C190.832 265.774 190.74 265.634 190.636 265.502C188.451 263.233 186.261 260.953 183.967 258.723C183.3 258.049 182.694 258.336 182.166 258.991C181.161 260.215 180.156 261.438 179.117 262.646C178.975 262.778 178.863 262.938 178.789 263.116C178.714 263.295 178.679 263.487 178.686 263.681C178.692 263.874 178.74 264.063 178.826 264.237C178.912 264.41 179.034 264.562 179.185 264.684C181.431 266.995 183.679 269.3 185.93 271.6C186.706 272.385 187.442 272.419 188.079 271.424L190.665 267.622ZM104.009 50.49C103.948 49.6385 103.573 49.2823 102.677 49.524C100.342 50.1501 98.198 51.347 96.4395 53.007C96.1339 53.295 95.8612 53.5984 95.9743 54.0627C96.242 55.1813 99.1771 56.7286 100.227 56.3084C104.397 54.6238 104.397 54.6238 104.05 50.8303L104.009 50.49ZM175.965 251.92C176.119 251.699 176.221 251.446 176.262 251.181C176.303 250.915 176.283 250.643 176.203 250.386C174.862 248.905 173.553 247.398 172.164 245.974C171.685 245.478 171.114 245.903 170.647 246.236C169.571 247.034 168.422 247.9 167.259 248.648C166.303 249.253 166.141 249.899 166.882 250.778C168.401 252.564 169.937 254.358 171.436 256.164C172.127 256.98 172.729 256.871 173.282 256.057C174.23 254.677 175.122 253.29 176.001 251.907L175.965 251.92ZM165.44 239.911C165.695 239.69 165.858 239.382 165.898 239.047C165.939 238.712 165.853 238.373 165.659 238.098C164.526 236.664 163.168 234.983 161.842 233.319C161.767 233.227 161.672 233.154 161.564 233.104C161.457 233.053 161.34 233.027 161.221 233.027C161.103 233.027 160.985 233.053 160.878 233.103C160.77 233.153 160.675 233.226 160.599 233.317C159.36 234.39 158.064 235.396 156.718 236.331C156.598 236.405 156.494 236.502 156.413 236.618C156.332 236.733 156.275 236.864 156.247 237.003C156.219 237.141 156.219 237.283 156.249 237.422C156.278 237.56 156.336 237.69 156.418 237.805C157.719 239.492 159.06 241.161 160.439 242.811C160.531 242.953 160.656 243.073 160.802 243.16C160.949 243.247 161.113 243.299 161.283 243.311C161.453 243.324 161.624 243.297 161.781 243.233C161.939 243.169 162.08 243.069 162.193 242.941C163.338 241.954 164.413 240.924 165.476 239.898L165.44 239.911ZM155.8 226.913C156.05 226.509 155.957 226.024 155.683 225.303C154.49 223.741 153.104 221.948 151.756 220.182C151.354 219.672 150.788 219.958 150.435 220.304C149.394 221.297 148.293 222.224 147.137 223.08C146.992 223.165 146.868 223.283 146.775 223.424C146.683 223.565 146.623 223.725 146.602 223.892C146.581 224.059 146.598 224.229 146.652 224.388C146.707 224.548 146.797 224.693 146.916 224.812C148.377 226.851 149.769 228.929 151.266 230.955C151.64 231.461 152.153 231.822 152.727 231.219C153.904 229.886 154.946 228.439 155.836 226.9L155.8 226.913ZM93.3489 66.0307C95.2124 63.0633 94.9565 62.0907 91.9537 60.4312C91.0846 59.9533 90.5391 60.0685 90.0766 60.9047C89.1592 62.6734 88.431 64.5339 87.904 66.4553C87.5969 67.4948 88.123 67.7416 89.0174 67.6096C89.9119 67.4775 90.9174 67.2371 91.7538 67.0577C92.4124 66.9369 92.9977 66.5637 93.3851 66.0176L93.3489 66.0307ZM146.002 212.607C145.987 212.5 145.95 212.397 145.893 212.305C145.139 210.81 144.238 209.392 143.203 208.075C141.811 205.847 141.591 205.804 139.428 207.227L137.506 208.481C137.313 208.563 137.143 208.689 137.011 208.851C136.878 209.013 136.787 209.204 136.746 209.409C136.704 209.614 136.713 209.825 136.772 210.026C136.83 210.227 136.937 210.41 137.083 210.56C138.374 212.51 139.671 214.472 140.987 216.413C141.282 216.853 141.637 217.23 142.239 217.121C143.83 215.917 145.128 214.37 146.038 212.594L146.002 212.607ZM136.609 200.408C136.764 200.293 136.894 200.148 136.992 199.982C137.089 199.816 137.152 199.631 137.176 199.44C137.2 199.249 137.185 199.055 137.132 198.87C137.079 198.684 136.988 198.512 136.867 198.362C135.78 196.639 134.7 194.898 133.625 193.171C133.346 192.739 132.942 192.148 132.433 192.441C130.945 193.238 129.629 194.322 128.56 195.629C128.34 195.927 128.456 196.322 128.719 196.937C129.919 198.633 130.855 200.808 132.331 202.664C132.814 203.281 133.309 203.253 133.913 202.884C134.876 202.131 135.777 201.303 136.609 200.408ZM91.7168 75.6462C91.7434 74.9265 91.5946 74.1746 90.7619 74.1752C89.3839 74.1406 87.895 73.081 86.5136 74.2083C86.3345 74.355 86.3533 74.7851 86.3363 75.078C86.2202 76.6083 86.08 78.1474 86.0286 79.6679C85.8938 82.8845 86.0428 82.9945 89.0914 82.0977C90.2267 81.6875 91.6597 81.6476 91.6049 79.9468C91.6177 78.5085 91.6755 77.0812 91.7288 75.6418L91.7168 75.6462ZM127.771 186.151C128.066 185.905 128.256 185.555 128.301 185.172C128.346 184.79 128.242 184.406 128.012 184.098C126.716 181.835 125.468 179.664 124.234 177.42C123.56 176.162 122.788 175.99 121.681 176.895C121.122 177.342 120.526 177.74 119.899 178.085C119.694 178.171 119.511 178.3 119.362 178.465C119.213 178.63 119.103 178.825 119.039 179.038C118.974 179.251 118.958 179.475 118.991 179.694C119.023 179.914 119.105 180.123 119.228 180.308C120.813 183.108 122.386 185.912 123.984 188.708C124.391 189.42 124.899 189.428 125.392 188.827C126.234 187.908 126.971 187 127.783 186.147L127.771 186.151ZM91.997 88.4758C91.9113 87.4827 91.4515 86.9662 90.3913 87.1308C89.3311 87.2954 88.4859 87.4506 87.5136 87.5562C87.333 87.5468 87.1528 87.5809 86.9881 87.6557C86.8235 87.7304 86.6791 87.8436 86.5673 87.9857C86.4554 88.1278 86.3793 88.2947 86.3453 88.4723C86.3113 88.65 86.3204 88.8331 86.3719 89.0065C86.6431 91.0796 86.9308 93.1604 87.2503 95.216C87.3659 96.1027 87.8437 96.367 88.6287 96.0834L89.955 95.6724C92.4527 94.8381 92.6607 94.5445 92.4169 91.9426C92.2918 90.8408 92.1285 89.6709 92.0705 88.4903L91.997 88.4758ZM118.07 169.434C118.641 168.859 119.008 168.249 118.689 167.367C118.096 166.216 117.49 165.069 116.921 163.91C115.265 160.575 115.208 160.569 112.292 162.851C112.079 162.968 111.893 163.13 111.747 163.324C111.601 163.519 111.499 163.742 111.446 163.98C111.394 164.217 111.392 164.463 111.443 164.701C111.493 164.939 111.593 165.164 111.737 165.36C112.352 166.419 112.899 167.517 113.375 168.646C114.927 172.372 115.154 172.359 118.096 169.466L118.07 169.434ZM110.827 154.942C111.136 154.707 111.354 154.371 111.444 153.992C111.534 153.614 111.49 153.216 111.319 152.866C110.314 150.356 109.184 147.898 107.934 145.501C107.5 144.716 106.942 144.494 106.178 144.988C105.742 145.255 105.315 145.546 104.865 145.777C104.633 145.855 104.423 145.986 104.249 146.159C104.076 146.332 103.945 146.542 103.866 146.774C103.787 147.006 103.763 147.253 103.795 147.495C103.828 147.738 103.915 147.97 104.052 148.174C104.534 149.242 104.851 150.384 105.248 151.483L105.357 151.443C105.845 152.796 106.438 154.097 107.02 155.403C107.721 156.966 108.023 157.048 109.368 156.084C109.904 155.753 110.382 155.376 110.852 154.974L110.827 154.942ZM92.7764 101.931C92.5171 100.987 92.2271 100.108 90.9052 100.531C90.6519 100.576 90.4122 100.678 90.2045 100.83C89.9969 100.982 89.8268 101.179 89.7074 101.407C89.5879 101.635 89.5223 101.887 89.5156 102.144C89.5088 102.401 89.561 102.656 89.6683 102.89C89.946 103.923 90.2117 104.96 90.4488 105.994C90.6859 107.028 91.0543 107.141 91.9843 106.805C93.7019 105.966 93.8655 105.361 93.0392 102.696C93.008 102.421 92.9207 102.179 92.8377 101.95L92.7764 101.931ZM95.9011 113.337C95.5721 112.199 94.9319 111.939 93.8231 112.271C92.7143 112.604 91.9047 113.047 92.2674 114.39C92.63 115.734 93.125 117.33 93.5598 118.798C93.7518 119.329 93.9395 119.849 94.047 120.411C94.1544 120.973 94.4616 121.558 94.5986 122.164C94.7356 122.77 94.987 123.239 95.7114 123.127C96.0587 123.068 96.3911 122.942 96.6892 122.754C96.9874 122.566 97.2454 122.321 97.4485 122.033C97.6517 121.745 97.7958 121.42 97.8727 121.076C97.9496 120.733 97.9577 120.377 97.8965 120.03C97.3502 117.838 96.5998 115.61 95.9263 113.368L95.9011 113.337ZM101.041 139.198C101.896 138.823 102.603 138.174 103.048 137.353C103.493 136.532 103.652 135.586 103.499 134.664C102.857 132.889 102.042 131.162 101.352 129.404C100.981 128.378 100.323 128.029 99.3113 128.517C98.2998 129.006 96.7648 129.028 97.3088 130.797C97.6848 132.027 98.2165 133.309 98.6704 134.566C99.1243 135.822 99.5738 137.066 100.028 138.322C100.175 138.842 100.367 139.373 101.066 139.23L101.041 139.198Z" fill="black"/>
<path d="M262.155 226.455C263.681 225.576 264.073 225.68 264.637 227.278C265.201 228.877 265.647 230.3 266.148 231.798C266.304 232.185 266.309 232.616 266.162 233.006C266.014 233.396 265.725 233.716 265.351 233.902C264.063 234.743 262.869 235.719 261.789 236.814C260.534 237.991 260.117 237.856 259.541 236.261C259.383 235.827 259.226 235.392 259.069 234.957C258.912 234.522 258.755 234.087 258.598 233.653C257.21 229.17 257.21 229.17 261.321 226.906L262.155 226.455Z" fill="url(#paint1_linear_689_15870)"/>
<path d="M260.773 217.191C260.965 217.565 261.014 217.997 260.909 218.404C260.805 218.812 260.555 219.167 260.207 219.403C258.841 220.497 257.487 221.587 256.108 222.645C255.395 223.203 254.848 222.937 254.564 222.152C254.04 220.702 253.516 219.253 252.997 217.816L252.792 217.89C252.355 216.682 251.884 215.378 251.435 214.134C251.332 213.959 251.267 213.764 251.243 213.563C251.218 213.361 251.235 213.157 251.293 212.962C251.35 212.767 251.447 212.586 251.577 212.43C251.707 212.274 251.868 212.147 252.049 212.055C253.375 211.278 254.621 210.37 255.767 209.346C256.634 208.609 257.252 208.809 257.667 209.806C258.761 212.265 259.761 214.73 260.773 217.191Z" fill="url(#paint2_linear_689_15870)"/>
<path d="M266.813 240.816C268.448 239.747 268.632 239.804 269.311 241.948C269.99 244.092 270.43 246.404 271.034 248.794C271.17 249.186 271.152 249.614 270.985 249.993C270.819 250.372 270.515 250.675 270.135 250.84C268.656 251.661 267.191 252.518 265.751 253.407C264.859 253.961 264.261 253.781 264.069 252.758C263.577 250.301 262.891 247.873 262.197 245.461C262.04 245.018 262.052 244.533 262.23 244.099C262.408 243.665 262.74 243.311 263.161 243.105C264.377 242.351 265.606 241.594 266.813 240.816Z" fill="url(#paint3_linear_689_15870)"/>
<path d="M253.89 201.203C254.139 201.593 254.227 202.063 254.136 202.516C254.045 202.969 253.782 203.37 253.402 203.633C252.18 204.634 251.042 205.755 249.871 206.82C249.104 207.534 248.52 207.39 248.106 206.434C247.67 205.226 247.058 203.986 246.536 202.769C244.689 198.602 244.689 198.602 248.068 195.674C250.311 193.717 250.311 193.717 251.591 196.354C252.319 197.989 253.106 199.602 253.89 201.203Z" fill="url(#paint4_linear_689_15870)"/>
<path d="M271.409 258.599C272.28 258.025 272.896 258.294 273.053 259.371C273.35 261.175 273.587 263.001 273.795 264.824C273.839 265.028 273.841 265.238 273.8 265.442C273.76 265.647 273.677 265.841 273.559 266.012C273.44 266.183 273.287 266.327 273.11 266.437C272.932 266.546 272.734 266.618 272.528 266.647C271.816 266.905 271.091 267.167 270.366 267.428L268.704 268.193C266.976 268.967 266.667 268.792 266.447 266.974C266.312 265.657 266.115 264.24 265.922 262.876C265.861 262.641 265.847 262.397 265.881 262.156C265.916 261.916 265.997 261.685 266.121 261.476C266.245 261.268 266.409 261.086 266.604 260.941C266.798 260.796 267.02 260.692 267.255 260.633C268.71 260.11 270.103 259.428 271.409 258.599Z" fill="url(#paint5_linear_689_15870)"/>
<path d="M245.808 185.185C245.908 185.334 245.979 185.502 246.014 185.679C246.05 185.855 246.05 186.037 246.014 186.213C245.979 186.39 245.909 186.558 245.809 186.707C245.708 186.857 245.579 186.984 245.429 187.083L242.042 189.878C241.205 190.549 240.556 190.415 240.073 189.456L236.96 183.412C236.44 182.576 236.656 181.815 237.63 181.108C238.701 180.317 239.71 179.446 240.648 178.502C241.377 177.76 241.924 177.726 242.423 178.652C243.574 180.817 244.717 182.998 245.808 185.185Z" fill="url(#paint6_linear_689_15870)"/>
<path d="M238.048 170.962C238.232 171.255 238.314 171.599 238.283 171.944C238.252 172.288 238.109 172.612 237.876 172.867C236.838 174.075 235.812 175.279 234.827 176.522C234.244 177.252 233.792 177.17 233.234 176.497C231.442 174.332 231.472 173.584 233.519 171.616C234.118 171.044 234.663 170.437 235.229 169.85C236.456 168.56 236.815 168.608 237.651 170.204C237.785 170.538 237.98 170.85 238.048 170.962Z" fill="url(#paint7_linear_689_15870)"/>
<path d="M273.02 273.146C273.875 272.755 274.399 272.921 274.434 274.001C274.487 276.456 274.39 278.913 274.143 281.356C274.045 282.484 273.483 283.043 272.288 282.723C272.031 282.652 271.786 282.618 271.533 282.559C267.072 281.55 266.449 280.696 267.14 276.186C267.166 275.878 267.29 275.586 267.493 275.353C267.696 275.12 267.968 274.957 268.27 274.89C268.898 274.663 269.517 274.562 270.417 274.333L273.02 273.146Z" fill="url(#paint8_linear_689_15870)"/>
<path d="M231.587 160.188C231.737 160.502 231.785 160.854 231.725 161.197C231.665 161.539 231.5 161.854 231.253 162.098C230.432 163.077 229.636 164.048 228.812 165.055C228.413 165.5 228.113 166.482 227.311 165.926C226.914 165.719 226.61 165.371 226.458 164.95C226.306 164.53 226.318 164.068 226.49 163.655C227.458 162.088 228.679 160.691 230.104 159.523C230.972 158.827 231.263 159.746 231.587 160.188Z" fill="url(#paint9_linear_689_15870)"/>
<path d="M227.152 152.902C227.362 153.232 227.444 153.628 227.383 154.015C227.321 154.402 227.12 154.753 226.818 155.002L223.846 157.66C223.737 157.805 223.594 157.919 223.429 157.994C223.264 158.068 223.083 158.1 222.903 158.087C222.723 158.073 222.549 158.014 222.397 157.916C222.245 157.817 222.121 157.682 222.035 157.523C221.305 156.601 220.685 155.596 220.189 154.53C220.055 154.252 220.002 153.942 220.036 153.635C220.07 153.328 220.189 153.037 220.381 152.795C221.214 151.511 222.085 150.254 222.951 148.985C223.558 148.097 224.099 148.12 224.679 149.044C225.475 150.34 226.331 151.614 227.152 152.902Z" fill="url(#paint10_linear_689_15870)"/>
<path d="M220.083 142.375C220.216 142.569 220.267 142.808 220.226 143.04C220.185 143.272 220.054 143.478 219.862 143.615C218.753 144.74 217.605 145.796 216.492 146.949C216.048 147.383 215.517 147.424 215.127 146.951C214.329 145.874 213.615 144.766 212.995 143.884C212.768 143.256 212.616 142.833 212.769 142.464C213.633 140.784 214.658 139.193 215.831 137.712C216.235 137.17 216.799 137.444 217.115 137.903C218.151 139.372 219.107 140.884 220.083 142.375Z" fill="url(#paint11_linear_689_15870)"/>
<path d="M271.183 290.018C272.081 290.048 272.334 290.558 272.082 291.372C271.104 294.609 269.543 297.64 267.476 300.315C266.854 301.127 266.211 301.236 265.509 300.315C264.565 299.1 263.541 297.968 262.771 297.045C262.621 296.798 262.545 296.514 262.552 296.226C262.559 295.937 262.649 295.657 262.811 295.419C263.98 293.553 264.891 291.538 265.521 289.428C265.814 288.462 266.398 288.265 267.285 288.791C268.465 289.51 269.803 289.931 271.183 290.018Z" fill="url(#paint12_linear_689_15870)"/>
<path d="M213.223 132.496C213.298 132.585 213.355 132.687 213.391 132.798C213.426 132.908 213.439 133.025 213.428 133.141C213.418 133.256 213.385 133.369 213.33 133.471C213.276 133.574 213.202 133.665 213.112 133.738C212.028 134.894 210.851 135.959 209.592 136.922C209.49 137.012 209.37 137.079 209.24 137.119C209.109 137.159 208.972 137.171 208.837 137.154C208.702 137.137 208.572 137.091 208.455 137.02C208.339 136.949 208.239 136.855 208.162 136.742C207.171 135.528 206.254 134.254 205.418 132.927C205.222 132.646 205.12 132.31 205.126 131.967C205.132 131.624 205.246 131.292 205.452 131.017C206.222 129.824 207 128.614 207.779 127.445C208.303 126.628 208.839 126.598 209.431 127.367C210.823 128.953 211.965 130.753 213.223 132.496Z" fill="url(#paint13_linear_689_15870)"/>
<path d="M205.375 121.964C205.513 122.315 205.522 122.702 205.4 123.059C205.279 123.415 205.036 123.717 204.713 123.911C204.105 124.458 203.435 124.946 202.848 125.513C201.257 127.044 200.871 127.033 199.499 125.276C198.601 124.112 197.73 122.911 196.851 121.727C196.583 121.485 196.41 121.157 196.361 120.8C196.312 120.443 196.39 120.08 196.583 119.776C197.401 118.524 198.19 117.27 199.037 116.062C199.453 115.475 200.035 115.046 200.648 115.835C202.17 117.743 203.665 119.688 205.168 121.616C205.244 121.728 205.313 121.845 205.375 121.964Z" fill="url(#paint14_linear_689_15870)"/>
<path d="M195.719 109.751C195.895 109.902 196.019 110.106 196.071 110.333C196.124 110.56 196.102 110.797 196.01 111.011C195.026 112.595 193.41 113.603 192.374 114.892C192.274 114.954 192.162 114.995 192.045 115.014C191.928 115.032 191.809 115.026 191.694 114.998C191.58 114.969 191.472 114.918 191.377 114.847C191.283 114.777 191.203 114.688 191.144 114.586C189.992 113.213 188.861 111.819 187.685 110.455C187.45 110.213 187.312 109.892 187.298 109.555C187.285 109.217 187.396 108.886 187.611 108.625C188.41 107.435 189.246 106.273 190.045 105.083C190.609 104.265 191.13 104.308 191.75 105.04C193.061 106.628 194.388 108.184 195.719 109.751Z" fill="url(#paint15_linear_689_15870)"/>
<path d="M216.943 171.774C217.191 172.272 217.383 172.803 217.643 173.447C218.785 178.004 219.647 182.772 221.212 187.328C225.747 200.709 229.364 214.422 232.824 228.192C234.605 235.049 235.834 242.039 236.499 249.093C236.692 252.372 237.291 255.614 238.28 258.745C238.847 260.315 239.445 262.271 237.714 263.415C235.984 264.559 234.573 263.185 233.414 262.019C228.935 258.022 224.203 254.318 219.248 250.93C211.099 244.931 203.668 238.045 196.001 231.489C182.652 220.091 169.615 208.348 156.436 196.78C155.393 195.859 154.399 194.921 153.332 194.01C152.797 193.548 152.026 193.116 152.496 192.264C152.967 191.411 153.765 191.996 154.398 192.273C159.254 194.611 163.969 197.235 168.516 200.129C176.871 205.303 185.387 210.091 194.868 212.973C197.614 213.81 200.427 214.378 203.245 214.957C204.266 215.175 204.75 214.891 204.906 213.811C205.249 211.63 205.8 209.487 206.554 207.412C208.172 202.543 209.097 197.469 209.301 192.342C209.611 186.399 211.069 180.684 212.216 174.903C212.457 173.839 212.8 172.801 213.239 171.802C213.331 171.395 213.555 171.03 213.878 170.766C214.2 170.501 214.601 170.351 215.018 170.34C215.446 170.36 215.857 170.507 216.2 170.763C216.543 171.018 216.802 171.371 216.943 171.774ZM217.222 193.63C217.04 192.738 216.669 191.894 216.136 191.155C215.831 191.911 215.696 192.724 215.741 193.537C215.498 198.98 214.518 204.364 212.826 209.542C211.895 212.209 211.205 214.953 210.765 217.743C210.648 218.291 210.644 218.857 210.753 219.407C210.863 219.957 211.083 220.478 211.401 220.94C215.274 226.518 218.867 232.306 223.048 237.678C224.818 239.933 226.645 242.154 228.46 244.379C228.707 244.686 228.96 245.195 229.406 245.034C229.853 244.872 229.691 244.234 229.672 243.804C229.653 243.374 229.576 243.197 229.536 242.898C228.635 237.27 227.367 231.72 225.957 226.194C223.172 215.348 220.583 204.405 217.222 193.63ZM221.385 244.601C220.763 243.069 219.927 241.633 218.902 240.337C215.146 234.402 210.859 228.81 207.271 222.774C207.071 222.448 206.798 222.172 206.474 221.969C206.15 221.767 205.782 221.642 205.402 221.606C199.609 220.34 193.979 218.416 188.623 215.871C184.87 214.101 181.288 212.009 177.651 210.032L177.316 210.427L221.019 245.061L221.385 244.601Z" fill="url(#paint16_linear_689_15870)"/>
<path d="M186.152 98.8438C186.33 99.0935 186.413 99.3986 186.386 99.704C186.358 100.009 186.222 100.295 186.003 100.509C185.124 101.441 184.241 102.361 183.326 103.265C183.198 103.407 183.04 103.518 182.864 103.591C182.688 103.664 182.498 103.697 182.307 103.688C182.117 103.678 181.931 103.626 181.763 103.536C181.595 103.445 181.45 103.318 181.337 103.165C180.055 101.771 178.78 100.361 177.511 98.9625C177.225 98.7339 177.041 98.4017 177 98.0383C176.958 97.6749 177.061 97.3097 177.287 97.0222C178.08 95.8894 178.867 94.7444 179.681 93.6314C179.986 93.1931 180.471 92.7585 180.949 93.1731C182.809 94.9441 184.547 96.8387 186.152 98.8438Z" fill="url(#paint17_linear_689_15870)"/>
<path d="M206.934 156.958C207.944 157.803 208.664 158.944 208.991 160.221C209.317 161.497 209.234 162.844 208.753 164.07C206.444 170.68 205.971 177.61 205.201 184.47C204.43 191.33 203.576 197.811 202.76 204.469C202.664 205.186 202.713 205.851 202.639 206.629C202.648 206.876 202.594 207.122 202.483 207.343C202.371 207.565 202.205 207.754 202 207.893C201.796 208.033 201.559 208.118 201.312 208.141C201.066 208.164 200.817 208.124 200.59 208.025C193.999 205.898 187.614 203.178 181.514 199.898C175.105 196.22 168.459 192.982 161.872 189.641C158.145 187.923 154.292 186.494 150.346 185.367C148.4 184.705 146.514 184.021 146.185 181.409C143.371 175.284 142.047 168.635 140.626 162.021C138.875 153.887 137.181 145.761 135.43 137.627C133.135 126.932 129.933 116.483 126.743 106.029C125.149 100.833 123.922 95.5321 123.072 90.1644C122.908 89.1448 122.595 88.1655 122.359 87.1721C122.141 86.5682 122.116 85.8945 122.703 85.4777C122.967 85.2607 123.301 85.1477 123.642 85.1601C123.984 85.1725 124.309 85.3094 124.557 85.5451C127.831 88.1442 131.434 90.2558 134.391 93.3382C141.502 100.736 148.709 108.059 156.968 114.251C170.114 124.179 182.172 135.442 194.952 145.831C199.182 149.3 203.024 153.168 206.934 156.958ZM201.937 164.594C202.142 164.152 202.188 163.653 202.068 163.181C201.707 162.561 200.976 162.538 200.389 162.313C189.506 158.381 177.902 156.539 167.607 150.947C166.824 150.519 166.207 150.852 165.786 151.537C164.847 152.949 164.012 154.428 163.288 155.962C160.061 162.944 156.355 169.694 152.196 176.165C151.527 177.185 151.715 177.704 152.801 178.103C155.415 179.172 157.961 180.4 160.424 181.78C167.476 185.559 174.736 188.935 182.171 191.891C186.874 193.797 191.673 195.517 195.746 198.701C196.811 199.532 197.014 198.885 197.125 197.944C197.862 191.519 198.632 185.11 199.34 178.682C199.722 173.91 200.592 169.189 201.937 164.594ZM189.349 149.863C189.094 149.267 188.66 148.765 188.107 148.427C184.234 145.266 180.382 142.166 176.593 138.933C168.986 132.356 162.028 125.08 153.683 119.329C151.617 117.807 149.633 116.176 147.74 114.445C142.515 109.888 137.596 105.002 132.72 100.087C132.416 99.7735 132.116 99.1716 131.631 99.4153C131.145 99.659 131.418 100.339 131.536 100.815C132.232 103.649 132.88 106.501 133.706 109.316C137.783 123.31 141.068 137.522 143.545 151.886C144.599 157.936 145.13 164.094 147.053 169.981C147.214 170.427 147.087 171.17 147.777 171.153C148.467 171.135 148.345 170.497 148.526 170.09C150.825 164.89 153.066 159.642 155.443 154.468C156.951 151.083 158.398 147.529 161.159 144.893C161.528 144.555 161.488 144.064 161.537 143.596C161.783 141.595 162.897 140.974 164.771 141.813C166.127 142.429 167.428 143.16 168.823 143.694C175.213 146.202 181.759 148.298 188.418 149.967C188.63 150.027 188.927 150.206 189.349 149.863Z" fill="url(#paint18_linear_689_15870)"/>
<path d="M258.989 305.662C259.449 306.329 259.386 306.761 258.677 307.141C257.892 307.6 257.041 307.935 256.155 308.134C253.628 308.93 250.983 309.281 248.336 309.17C246.755 309.141 246.549 308.833 246.856 307.302C247.163 305.771 247.468 304.5 247.692 303.081C247.871 301.951 248.416 301.304 249.608 301.392C251.194 301.464 252.782 301.322 254.33 300.969C254.771 300.826 255.249 300.852 255.672 301.043C256.094 301.234 256.43 301.575 256.615 302.001C257.378 303.282 258.171 304.456 258.989 305.662Z" fill="url(#paint19_linear_689_15870)"/>
<path d="M216.149 191.191C216.682 191.93 217.052 192.774 217.235 193.667C220.582 204.405 223.171 215.349 225.97 226.23C227.38 231.756 228.612 237.319 229.549 242.934C229.649 243.212 229.669 243.532 229.685 243.841C229.701 244.149 230.043 244.831 229.419 245.07C228.796 245.309 228.72 244.722 228.473 244.415C226.658 242.19 224.831 239.969 223.061 237.714C218.898 232.391 215.287 226.554 211.414 220.976C211.096 220.515 210.876 219.993 210.766 219.443C210.657 218.894 210.661 218.327 210.777 217.779C211.218 214.989 211.908 212.245 212.839 209.579C214.531 204.4 215.511 199.016 215.754 193.574C215.709 192.76 215.844 191.947 216.149 191.191Z" fill="black"/>
<path d="M176.135 88.317C176.288 88.7398 176.401 89.0538 176.152 89.3078C175.068 90.4642 173.992 91.6448 172.841 92.7297C172.297 93.2267 171.688 92.9008 171.213 92.4171C169.897 91.1176 168.605 89.8093 167.3 88.5055C166.998 88.2608 166.793 87.9161 166.722 87.5335C166.651 87.1509 166.72 86.7556 166.915 86.4191C167.546 85.1805 168.17 83.9585 168.822 82.7397C169.171 82.081 169.651 81.7847 170.284 82.4025C172.147 84.2327 174.003 86.0698 175.853 87.9138C175.963 88.0364 176.058 88.1718 176.135 88.317Z" fill="url(#paint20_linear_689_15870)"/>
<path d="M202.071 163.194C202.191 163.666 202.145 164.165 201.94 164.606C200.593 169.185 199.717 173.889 199.326 178.646C198.617 185.074 197.843 191.471 197.11 197.908C197 198.849 196.797 199.496 195.732 198.665C191.671 195.476 186.859 193.761 182.156 191.855C174.722 188.899 167.461 185.523 160.41 181.744C157.946 180.364 155.4 179.136 152.787 178.067C151.696 177.656 151.517 177.161 152.182 176.129C156.355 169.659 160.075 162.908 163.315 155.925C164.038 154.391 164.873 152.912 165.812 151.5C166.282 150.797 166.814 150.495 167.633 150.91C177.874 156.576 189.465 158.423 200.415 162.276C200.979 162.551 201.711 162.573 202.071 163.194Z" fill="black"/>
<path d="M165.64 78.3591C165.742 78.5468 165.776 78.7636 165.738 78.9736C165.699 79.1836 165.59 79.3742 165.429 79.514C164.53 80.4261 163.614 81.3305 162.752 82.2701C162.64 82.4255 162.494 82.5538 162.326 82.6456C162.158 82.7374 161.971 82.7904 161.78 82.8006C161.588 82.8108 161.397 82.7781 161.22 82.7048C161.043 82.6315 160.884 82.5194 160.756 82.3769C159.621 81.3532 158.495 80.313 157.356 79.2772C157.208 79.1728 157.083 79.0398 156.988 78.8861C156.893 78.7325 156.83 78.5613 156.802 78.3828C156.775 78.2042 156.784 78.022 156.828 77.8468C156.872 77.6717 156.951 77.5072 157.06 77.3631C157.759 76.2822 158.372 75.1476 158.892 73.97C159.15 73.3989 159.562 72.9499 160.221 73.4899C162.05 74.8877 163.784 76.4049 165.412 78.0317C165.499 78.1331 165.575 78.2427 165.64 78.3591Z" fill="url(#paint21_linear_689_15870)"/>
<path d="M255.761 330.437C256.146 330.407 256.68 330.337 256.767 330.879C256.854 331.421 256.323 331.654 255.952 331.911C251.223 335.265 246.215 338.208 240.983 340.706C237.331 342.463 233.614 344.079 228.561 346.383C225.252 348.562 220.068 348.688 214.838 348.311C214.309 348.283 213.433 348.504 213.325 347.902C213.216 347.299 214.125 347.094 214.657 346.902C221.614 344.245 228.295 340.916 234.606 336.962C237.446 335.225 240.264 333.388 242.021 330.391C242.189 330.098 242.448 329.869 242.76 329.739C243.071 329.61 243.416 329.586 243.742 329.673C247.708 330.37 251.739 330.626 255.761 330.437Z" fill="black"/>
<path d="M188.047 148.449C188.6 148.787 189.034 149.288 189.289 149.884C188.928 150.206 188.631 150.027 188.344 149.952C181.685 148.283 175.14 146.187 168.75 143.679C167.355 143.145 166.053 142.414 164.697 141.798C162.824 140.959 161.71 141.58 161.464 143.581C161.414 144.049 161.455 144.54 161.086 144.878C158.288 147.528 156.914 151.055 155.37 154.454C152.993 159.627 150.752 164.875 148.453 170.075C148.272 170.482 148.207 171.134 147.703 171.138C147.2 171.142 147.129 170.417 146.98 169.966C145.057 164.079 144.525 157.922 143.472 151.871C140.995 137.507 137.71 123.295 133.633 109.301C132.807 106.486 132.159 103.635 131.462 100.8C131.305 100.366 130.94 99.7329 131.557 99.4006C132.175 99.0684 132.342 99.7588 132.647 100.072C137.522 104.987 142.442 109.873 147.666 114.43C149.56 116.162 151.544 117.792 153.61 119.315C161.899 125.099 168.913 132.341 176.519 138.919C180.298 142.196 184.198 145.279 188.047 148.449Z" fill="black"/>
<path d="M218.916 240.373C219.941 241.67 220.777 243.106 221.399 244.637L220.983 245.074L177.256 210.449L177.592 210.054C181.228 212.031 184.811 214.123 188.564 215.894C193.943 218.448 199.597 220.377 205.416 221.643C205.796 221.679 206.164 221.803 206.488 222.006C206.812 222.209 207.085 222.484 207.285 222.811C210.873 228.847 215.16 234.439 218.916 240.373Z" fill="black"/>
<path d="M239.909 299.64C240.266 299.706 240.585 299.904 240.802 300.196C241.018 300.487 241.117 300.85 241.077 301.211C240.914 302.99 240.74 304.774 240.549 306.55C240.555 306.83 240.469 307.105 240.305 307.332C240.14 307.559 239.906 307.726 239.638 307.807C239.244 307.765 238.854 307.697 238.471 307.601C235.87 306.871 233.322 305.967 230.843 304.895C229.632 304.377 229.268 303.785 230.148 302.593C231.066 301.299 231.911 299.954 232.679 298.565C232.759 298.35 232.885 298.154 233.048 297.992C233.211 297.83 233.408 297.706 233.624 297.628C233.84 297.549 234.071 297.519 234.3 297.54C234.529 297.56 234.751 297.63 234.95 297.745C236.535 298.428 238.228 299.032 239.909 299.64Z" fill="url(#paint22_linear_689_15870)"/>
<path d="M154.592 68.7927C155.309 69.3394 155.415 69.8608 154.762 70.5474C154.04 71.4108 153.38 72.3247 152.787 73.2819C152.228 74.153 151.611 74.335 150.762 73.686C148.882 72.2625 147.007 70.851 145.127 69.4275C144.75 69.1404 144.329 68.6919 144.606 68.2503C145.571 66.8775 146.627 65.5674 147.538 64.46C147.812 64.3515 148.112 64.3229 148.402 64.3774C148.693 64.432 148.962 64.5675 149.178 64.7684C150.898 66.1268 152.747 67.4658 154.592 68.7927Z" fill="url(#paint23_linear_689_15870)"/>
<path d="M142.123 59.9442C143.039 60.5144 143.255 61.1874 142.518 62.0954C141.781 63.0035 141.296 63.7387 140.688 64.5867C140.593 64.7707 140.459 64.9309 140.293 65.0551C140.128 65.1793 139.937 65.2641 139.734 65.3033C139.531 65.3424 139.321 65.3348 139.122 65.281C138.922 65.2272 138.737 65.1286 138.581 64.9928C137.203 64.1255 135.788 63.2712 134.398 62.4082C133.82 62.0571 133.378 61.5888 133.848 60.8865C134.581 59.6657 135.408 58.4792 136.2 57.3057C136.293 57.1938 136.398 57.0918 136.513 57.0013C136.712 56.9341 136.925 56.92 137.131 56.9604C137.338 57.0009 137.53 57.0945 137.689 57.2319C139.157 58.1213 140.646 59.0306 142.123 59.9442Z" fill="url(#paint24_linear_689_15870)"/>
<path d="M224.991 292.782C225.17 292.855 225.33 292.966 225.46 293.109C225.589 293.252 225.685 293.422 225.74 293.606C225.795 293.791 225.808 293.986 225.777 294.176C225.747 294.367 225.674 294.548 225.564 294.706L223.149 299.361C223.079 299.55 222.966 299.72 222.818 299.857C222.67 299.995 222.492 300.095 222.297 300.151C222.103 300.206 221.899 300.215 221.701 300.177C221.503 300.139 221.316 300.054 221.157 299.93C219.134 298.64 217.091 297.371 215.057 296.086C214.496 295.742 214.142 295.256 214.718 294.733C216.403 293.237 218.138 291.804 219.817 290.365C220.052 290.272 220.308 290.241 220.559 290.275C220.81 290.308 221.048 290.405 221.251 290.556C222.529 291.296 223.747 292.058 224.991 292.782Z" fill="url(#paint25_linear_689_15870)"/>
<path d="M233.793 327.193C234.24 327.372 234.947 327.363 234.979 327.979C235.01 328.596 234.439 328.83 234.024 329.116C231.13 331.159 228.274 333.27 225.296 335.192C219.201 339.187 212.809 342.707 206.174 345.721C205.836 345.843 205.498 345.965 205.281 346.044C202.429 347.334 199.93 346.011 197.41 345.31C196.587 345.075 195.173 345.053 195.146 344.108C195.118 343.162 196.526 342.94 197.317 342.558C206.046 338.489 214.429 333.876 221.56 327.271C222.287 326.626 222.942 325.905 223.512 325.118C223.644 324.869 223.825 324.65 224.046 324.475C224.266 324.301 224.52 324.173 224.792 324.102C225.064 324.031 225.348 324.017 225.626 324.061C225.904 324.105 226.17 324.207 226.406 324.359C228.873 325.366 231.344 326.234 233.793 327.193Z" fill="black"/>
<path d="M129.988 53.2279C131.166 53.7306 131.266 54.4593 130.431 55.3616C129.721 56.4175 128.926 57.4129 128.052 58.3378C127.737 58.4581 127.398 58.5024 127.062 58.467C126.727 58.4316 126.405 58.3177 126.121 58.1343C122.243 56.5455 122.288 56.5565 123.742 52.6448C124.228 51.3083 124.931 50.9861 126.181 51.5723C127.43 52.1585 128.723 52.6746 129.988 53.2279Z" fill="url(#paint26_linear_689_15870)"/>
<path d="M213.248 284.996C213.439 285.086 213.605 285.221 213.731 285.389C213.858 285.558 213.941 285.755 213.973 285.964C214.005 286.172 213.985 286.385 213.915 286.584C213.846 286.783 213.728 286.962 213.573 287.105C212.653 288.338 211.751 289.62 210.883 290.808C210.161 291.833 209.379 292.088 208.301 291.221C206.676 289.897 205.003 288.631 203.358 287.328C202.872 286.929 202.257 286.36 202.922 285.819C204.557 284.568 206.125 283.231 207.619 281.814C207.885 281.669 208.188 281.608 208.488 281.638C208.789 281.668 209.074 281.789 209.305 281.983C210.647 283.014 211.891 284.039 213.248 284.996Z" fill="url(#paint27_linear_689_15870)"/>
<path d="M217.902 320.209C219.05 320.818 219.024 321.387 218.071 322.114L212.561 326.29C206.732 330.74 200.68 334.891 194.43 338.727C192.561 339.866 190.469 340.65 188.177 341.751C187.365 341.879 186.534 341.732 185.814 341.335C184.17 340.564 182.526 339.792 180.882 339.021C179.603 338.391 179.574 338.046 180.778 337.297C183.886 335.395 187.081 333.654 190.122 331.64C195.957 327.838 202.016 324.352 207.233 319.667C208.061 318.983 208.843 318.244 209.574 317.456C209.709 317.239 209.889 317.054 210.101 316.913C210.314 316.771 210.554 316.677 210.806 316.637C211.058 316.596 211.315 316.61 211.562 316.678C211.808 316.745 212.036 316.864 212.232 317.028C214.014 318.104 215.946 319.181 217.902 320.209Z" fill="black"/>
<path d="M201.831 275.89C201.947 276.02 202.048 276.162 202.135 276.313C202.222 276.543 202.242 276.794 202.191 277.035C202.14 277.276 202.021 277.497 201.848 277.672C200.813 279.002 199.745 280.317 198.709 281.647C198.625 281.808 198.503 281.946 198.352 282.048C198.202 282.15 198.029 282.214 197.848 282.234C197.668 282.253 197.485 282.227 197.316 282.159C197.148 282.091 196.999 281.982 196.882 281.843C195.287 280.412 193.677 278.905 192.099 277.522C191.425 276.905 191.429 276.235 192.159 275.725C193.51 274.716 194.778 273.6 195.951 272.389C196.491 271.88 197.05 271.65 197.714 272.203L201.831 275.89Z" fill="url(#paint28_linear_689_15870)"/>
<path d="M115.125 48.5629C118.331 49.0839 118.331 49.0839 117.38 52.1584C116.812 53.9884 116.646 54.3217 116.026 54.5728C115.055 54.5428 114.09 54.4062 113.148 54.1654C111.722 53.998 111.886 52.9011 111.817 51.9157L111.789 51.6118C111.369 48.145 111.563 47.9654 115.125 48.5629Z" fill="url(#paint29_linear_689_15870)"/>
<path d="M190.92 265.946C191.033 266.226 191.07 266.531 191.027 266.829C190.984 267.128 190.862 267.41 190.674 267.646L188.089 271.448C187.443 272.419 186.715 272.409 185.94 271.624C183.689 269.324 181.44 267.019 179.194 264.708C179.044 264.586 178.922 264.434 178.835 264.26C178.749 264.087 178.702 263.898 178.695 263.704C178.689 263.511 178.724 263.319 178.799 263.14C178.873 262.962 178.985 262.802 179.127 262.67C180.165 261.462 181.17 260.239 182.176 259.015C182.704 258.36 183.31 258.073 183.977 258.747C186.162 261.016 188.436 263.266 190.646 265.526C190.75 265.658 190.841 265.798 190.92 265.946Z" fill="url(#paint30_linear_689_15870)"/>
<path d="M204.383 312.081C205.495 312.854 205.424 313.453 204.252 314.327C197.546 319.235 190.882 324.183 184.062 328.928C181.252 330.899 178.466 332.903 175.563 334.73L174.978 335.078C174.65 335.26 174.276 335.345 173.901 335.323C173.526 335.302 173.165 335.174 172.859 334.956C169.771 333.136 166.698 331.284 163.606 329.452C162.525 328.804 162.756 328.271 163.666 327.655C172.592 321.521 180.893 314.602 189.261 307.796C190.372 306.903 191.424 305.922 192.476 304.941C192.59 304.8 192.733 304.684 192.894 304.602C193.056 304.519 193.234 304.472 193.415 304.463C193.596 304.455 193.778 304.484 193.947 304.551C194.116 304.617 194.268 304.719 194.395 304.848C197.68 307.362 201.009 309.736 204.383 312.081Z" fill="black"/>
<path d="M102.714 49.5108C103.569 49.27 103.984 49.6252 104.046 50.4768L104.074 50.7807C104.434 54.6106 104.434 54.6106 100.25 56.2588C99.1873 56.6429 96.2653 55.1317 95.9976 54.0132C95.8362 53.5663 96.1572 53.2455 96.4628 52.9575C98.2288 51.3087 100.377 50.1244 102.714 49.5108Z" fill="url(#paint31_linear_689_15870)"/>
<path d="M176.24 250.373C176.321 250.63 176.341 250.902 176.3 251.167C176.258 251.433 176.157 251.686 176.002 251.907C175.135 253.285 174.268 254.663 173.319 256.044C172.767 256.858 172.164 256.966 171.474 256.151C169.974 254.344 168.438 252.551 166.919 250.765C166.178 249.886 166.365 249.231 167.297 248.635C168.4 247.908 169.56 247.039 170.685 246.222C171.152 245.89 171.771 245.448 172.202 245.961C173.59 247.385 174.899 248.891 176.24 250.373Z" fill="url(#paint32_linear_689_15870)"/>
<path d="M189.235 300.692C190.347 301.655 189.654 302.343 188.88 302.923C186.835 304.481 184.761 305.995 182.694 307.493C174.921 313.115 167.005 318.529 158.946 323.735C158.526 324.009 158.074 324.269 157.826 324.413C157.517 324.576 157.169 324.648 156.821 324.622C156.473 324.595 156.14 324.471 155.86 324.263C152.837 321.982 149.777 319.634 146.756 317.435C145.9 316.802 145.995 316.235 146.722 315.563C147.669 314.781 148.67 314.068 149.719 313.428L174.005 296.637C175.445 295.565 176.778 294.356 177.985 293.027C178.114 292.85 178.281 292.705 178.473 292.601C178.666 292.498 178.88 292.439 179.098 292.429C179.317 292.42 179.535 292.46 179.735 292.547C179.936 292.634 180.115 292.765 180.258 292.93L189.235 300.692Z" fill="black"/>
<path d="M165.695 238.085C165.89 238.36 165.975 238.698 165.935 239.033C165.895 239.368 165.731 239.677 165.476 239.898C164.413 240.924 163.338 241.954 162.238 242.952C162.125 243.08 161.984 243.18 161.827 243.244C161.669 243.308 161.498 243.335 161.329 243.322C161.159 243.31 160.994 243.258 160.848 243.171C160.701 243.084 160.577 242.965 160.484 242.822C159.116 241.177 157.776 239.508 156.463 237.816C156.381 237.701 156.324 237.571 156.294 237.433C156.265 237.295 156.264 237.152 156.292 237.014C156.32 236.875 156.377 236.744 156.458 236.629C156.539 236.513 156.643 236.416 156.763 236.342C158.11 235.407 159.405 234.401 160.645 233.328C160.721 233.237 160.816 233.164 160.923 233.114C161.031 233.064 161.148 233.038 161.266 233.038C161.385 233.038 161.502 233.064 161.61 233.115C161.717 233.165 161.812 233.238 161.888 233.33C163.249 234.981 164.562 236.651 165.695 238.085Z" fill="url(#paint33_linear_689_15870)"/>
<path d="M155.72 225.29C155.982 226.015 156.157 226.498 155.838 226.9C154.929 228.449 153.867 229.903 152.668 231.241C152.155 231.822 151.642 231.461 151.207 230.976C149.759 228.933 148.354 226.86 146.857 224.833C146.738 224.714 146.648 224.569 146.594 224.41C146.539 224.25 146.522 224.081 146.543 223.913C146.564 223.746 146.624 223.586 146.716 223.445C146.809 223.305 146.933 223.187 147.078 223.102C148.234 222.246 149.335 221.319 150.376 220.326C150.765 219.967 151.331 219.68 151.697 220.203C153.19 221.917 154.588 223.706 155.72 225.29Z" fill="url(#paint34_linear_689_15870)"/>
<path d="M91.9904 60.4178C94.989 62.0652 95.2492 63.0499 93.3857 66.0172C93.0045 66.5506 92.4339 66.918 91.7906 67.0443C90.9542 67.2236 90.0091 67.4422 89.0543 67.5961C88.0994 67.75 87.6458 67.477 87.9408 66.4419C88.4678 64.5204 89.196 62.6599 90.1134 60.8913C90.5758 60.0551 91.1214 59.9399 91.9904 60.4178Z" fill="url(#paint35_linear_689_15870)"/>
<path d="M173.846 286.863C175.188 288.195 175.203 288.462 173.741 289.632C171.796 291.127 169.826 292.59 167.81 294.001C159.835 299.518 152.298 305.601 144.836 311.78C144.207 312.307 143.519 312.747 143.12 313.041C142.823 313.251 142.459 313.344 142.097 313.304C141.735 313.264 141.401 313.092 141.157 312.822C138.702 310.637 136.25 308.464 133.775 306.3C132.795 305.439 132.809 304.683 133.962 304.02C139.949 300.35 145.747 296.377 151.331 292.118C156.068 288.714 160.707 285.153 165.38 281.648C167.099 280.358 167.327 280.385 168.831 281.903C170.482 283.56 172.18 285.199 173.846 286.863Z" fill="black"/>
<path d="M145.977 212.275C146.034 212.367 146.071 212.47 146.086 212.577C145.197 214.333 143.928 215.868 142.372 217.073C141.77 217.182 141.415 216.805 141.12 216.365C139.804 214.424 138.507 212.462 137.216 210.512C137.07 210.362 136.963 210.179 136.904 209.978C136.846 209.777 136.837 209.566 136.879 209.361C136.92 209.156 137.011 208.964 137.144 208.803C137.276 208.641 137.446 208.514 137.639 208.433L139.561 207.179C141.772 205.738 141.935 205.775 143.336 208.027C144.355 209.352 145.239 210.775 145.977 212.275Z" fill="url(#paint36_linear_689_15870)"/>
<path d="M136.88 198.358C137.002 198.507 137.092 198.68 137.145 198.865C137.198 199.05 137.213 199.244 137.189 199.436C137.165 199.627 137.102 199.811 137.005 199.978C136.907 200.144 136.777 200.289 136.622 200.403C135.779 201.295 134.867 202.118 133.893 202.864C133.289 203.233 132.794 203.262 132.312 202.644C130.835 200.788 129.899 198.614 128.699 196.917C128.481 196.313 128.341 195.927 128.54 195.609C129.609 194.302 130.925 193.219 132.413 192.421C132.922 192.128 133.327 192.719 133.605 193.151C134.713 194.894 135.793 196.634 136.88 198.358Z" fill="url(#paint37_linear_689_15870)"/>
<path d="M90.774 74.1709C91.6067 74.1704 91.7555 74.9223 91.7288 75.6419C91.658 77.033 91.6177 78.5086 91.617 79.9426C91.6114 81.6651 90.2781 81.7919 89.1035 82.0934C86.0549 82.9903 85.9059 82.8803 86.0407 79.6637C86.1162 78.1344 86.2927 76.5823 86.3484 75.0738C86.3654 74.7809 86.3465 74.3508 86.5257 74.2041C87.8708 73.0899 89.3598 74.1494 90.774 74.1709Z" fill="url(#paint38_linear_689_15870)"/>
<path d="M127.988 184.106C128.218 184.414 128.322 184.799 128.277 185.181C128.232 185.563 128.042 185.913 127.747 186.16C126.935 187.013 126.198 187.921 125.429 188.813C124.888 189.432 124.38 189.425 124.02 188.694C122.423 185.899 120.85 183.094 119.264 180.295C119.141 180.11 119.06 179.901 119.027 179.681C118.994 179.461 119.011 179.237 119.075 179.025C119.139 178.812 119.25 178.616 119.398 178.452C119.547 178.287 119.731 178.157 119.936 178.072C120.563 177.727 121.159 177.328 121.718 176.882C122.825 175.977 123.614 176.197 124.27 177.407C125.48 179.66 126.746 181.879 127.988 184.106Z" fill="url(#paint39_linear_689_15870)"/>
<path d="M90.4173 87.1625C91.4654 87.0022 91.9131 87.5231 92.023 88.5075C92.1329 89.4919 92.2926 90.8406 92.3989 92.0038C92.6558 94.6419 92.4347 94.8993 89.937 95.7336L88.6108 96.1446C87.8258 96.4283 87.3435 96.1519 87.2323 95.2772C86.9611 93.2042 86.6734 91.1234 86.3539 89.0678C86.3024 88.8944 86.2933 88.7112 86.3273 88.5335C86.3613 88.3559 86.4374 88.189 86.5493 88.0469C86.6612 87.9048 86.8055 87.7916 86.9702 87.7169C87.1349 87.6422 87.3151 87.608 87.4957 87.6174C88.5119 87.4823 89.4581 87.3043 90.4173 87.1625Z" fill="url(#paint40_linear_689_15870)"/>
<path d="M118.678 167.412C119.082 168.263 118.667 168.891 118.06 169.479C115.118 172.371 114.891 172.385 113.355 168.776C112.878 167.647 112.331 166.55 111.716 165.49C111.573 165.294 111.472 165.069 111.422 164.831C111.372 164.593 111.373 164.347 111.425 164.11C111.478 163.873 111.581 163.649 111.726 163.455C111.872 163.26 112.058 163.099 112.271 162.982C115.179 160.675 115.236 160.681 116.9 164.04C117.488 165.138 118.089 166.273 118.678 167.412Z" fill="url(#paint41_linear_689_15870)"/>
<path d="M111.345 152.898C111.516 153.248 111.56 153.645 111.47 154.024C111.38 154.402 111.162 154.738 110.853 154.974C110.384 155.376 109.906 155.753 109.407 156.111C108.062 157.075 107.759 156.993 107.058 155.43C106.477 154.125 105.944 152.801 105.395 151.471L105.286 151.51C104.889 150.411 104.56 149.274 104.09 148.201C103.954 147.997 103.866 147.765 103.834 147.523C103.802 147.28 103.826 147.033 103.905 146.801C103.983 146.569 104.114 146.359 104.288 146.186C104.461 146.013 104.672 145.882 104.904 145.804C105.353 145.573 105.78 145.282 106.217 145.015C106.989 144.545 107.49 144.76 107.972 145.528C109.219 147.927 110.345 150.387 111.345 152.898Z" fill="url(#paint42_linear_689_15870)"/>
<path d="M90.968 100.55C92.2603 100.083 92.5075 101.032 92.8392 101.95C92.9221 102.179 93.0094 102.421 93.0967 102.662C93.9229 105.327 93.7594 105.932 92.0417 106.771C91.1467 107.204 90.7335 106.93 90.5062 105.96C90.2788 104.991 90.0035 103.889 89.7258 102.856C89.6284 102.625 89.5841 102.374 89.5962 102.123C89.6082 101.872 89.6764 101.627 89.7955 101.406C89.9147 101.185 90.0818 100.993 90.2847 100.845C90.4876 100.697 90.7211 100.596 90.968 100.55Z" fill="url(#paint43_linear_689_15870)"/>
<path d="M93.8485 112.303C94.9355 111.91 95.5975 112.231 95.9266 113.368C96.6001 115.61 97.3504 117.838 97.9877 120.093C98.0489 120.44 98.0408 120.795 97.9639 121.139C97.887 121.483 97.7428 121.808 97.5397 122.096C97.3366 122.384 97.0786 122.629 96.7805 122.816C96.4823 123.004 96.1499 123.131 95.8025 123.19C95.0607 123.253 94.8446 122.73 94.6898 122.226C94.535 121.723 94.2752 121.079 94.1381 120.473C94.0011 119.867 93.8188 119.401 93.651 118.861C93.2162 117.393 92.7693 115.929 92.3586 114.453C91.948 112.976 92.7233 112.628 93.8485 112.303Z" fill="url(#paint44_linear_689_15870)"/>
<path d="M103.477 134.713C103.63 135.635 103.471 136.581 103.026 137.402C102.581 138.223 101.874 138.873 101.019 139.247C100.32 139.391 100.128 138.859 99.9453 138.393C99.5088 137.185 99.0375 135.881 98.588 134.637C98.1384 133.393 97.6802 132.124 97.2263 130.868C96.6824 129.099 98.2754 129.124 99.2288 128.588C100.182 128.053 100.863 128.462 101.27 129.475C102.044 131.203 102.787 132.955 103.477 134.713Z" fill="url(#paint45_linear_689_15870)"/>
<defs>
<linearGradient id="paint0_linear_689_15870" x1="57.9355" y1="232.688" x2="258.278" y2="160.292" gradientUnits="userSpaceOnUse">
<stop stop-color="#E4BC6C"/>
<stop offset="1" stop-color="#E9C786" stop-opacity="0"/>
</linearGradient>
<linearGradient id="paint1_linear_689_15870" x1="258.384" y1="233.061" x2="265.763" y2="230.394" gradientUnits="userSpaceOnUse">
<stop stop-color="#E4BC6C"/>
<stop offset="1" stop-color="#E9C786" stop-opacity="0"/>
</linearGradient>
<linearGradient id="paint2_linear_689_15870" x1="252.567" y1="217.193" x2="259.826" y2="214.57" gradientUnits="userSpaceOnUse">
<stop stop-color="#E4BC6C"/>
<stop offset="1" stop-color="#E9C786" stop-opacity="0"/>
</linearGradient>
<linearGradient id="paint3_linear_689_15870" x1="262.469" y1="248.407" x2="270.61" y2="245.466" gradientUnits="userSpaceOnUse">
<stop stop-color="#E4BC6C"/>
<stop offset="1" stop-color="#E9C786" stop-opacity="0"/>
</linearGradient>
<linearGradient id="paint4_linear_689_15870" x1="246.091" y1="202.028" x2="253.277" y2="199.431" gradientUnits="userSpaceOnUse">
<stop stop-color="#E4BC6C"/>
<stop offset="1" stop-color="#E9C786" stop-opacity="0"/>
</linearGradient>
<linearGradient id="paint5_linear_689_15870" x1="265.572" y1="264.969" x2="274.039" y2="261.909" gradientUnits="userSpaceOnUse">
<stop stop-color="#E4BC6C"/>
<stop offset="1" stop-color="#E9C786" stop-opacity="0"/>
</linearGradient>
<linearGradient id="paint6_linear_689_15870" x1="237.638" y1="185.475" x2="245.029" y2="182.804" gradientUnits="userSpaceOnUse">
<stop stop-color="#E4BC6C"/>
<stop offset="1" stop-color="#E9C786" stop-opacity="0"/>
</linearGradient>
<linearGradient id="paint7_linear_689_15870" x1="231.877" y1="174.216" x2="238.387" y2="171.863" gradientUnits="userSpaceOnUse">
<stop stop-color="#E4BC6C"/>
<stop offset="1" stop-color="#E9C786" stop-opacity="0"/>
</linearGradient>
<linearGradient id="paint8_linear_689_15870" x1="267.083" y1="280.071" x2="275.634" y2="276.981" gradientUnits="userSpaceOnUse">
<stop stop-color="#E4BC6C"/>
<stop offset="1" stop-color="#E9C786" stop-opacity="0"/>
</linearGradient>
<linearGradient id="paint9_linear_689_15870" x1="226.072" y1="163.82" x2="232.111" y2="161.638" gradientUnits="userSpaceOnUse">
<stop stop-color="#E4BC6C"/>
<stop offset="1" stop-color="#E9C786" stop-opacity="0"/>
</linearGradient>
<linearGradient id="paint10_linear_689_15870" x1="220.129" y1="154.402" x2="226.832" y2="151.98" gradientUnits="userSpaceOnUse">
<stop stop-color="#E4BC6C"/>
<stop offset="1" stop-color="#E9C786" stop-opacity="0"/>
</linearGradient>
<linearGradient id="paint11_linear_689_15870" x1="212.872" y1="143.505" x2="219.648" y2="141.057" gradientUnits="userSpaceOnUse">
<stop stop-color="#E4BC6C"/>
<stop offset="1" stop-color="#E9C786" stop-opacity="0"/>
</linearGradient>
<linearGradient id="paint12_linear_689_15870" x1="262.445" y1="296.179" x2="272.807" y2="292.435" gradientUnits="userSpaceOnUse">
<stop stop-color="#E4BC6C"/>
<stop offset="1" stop-color="#E9C786" stop-opacity="0"/>
</linearGradient>
<linearGradient id="paint13_linear_689_15870" x1="205.477" y1="133.165" x2="212.591" y2="130.595" gradientUnits="userSpaceOnUse">
<stop stop-color="#E4BC6C"/>
<stop offset="1" stop-color="#E9C786" stop-opacity="0"/>
</linearGradient>
<linearGradient id="paint14_linear_689_15870" x1="196.919" y1="122.33" x2="204.516" y2="119.585" gradientUnits="userSpaceOnUse">
<stop stop-color="#E4BC6C"/>
<stop offset="1" stop-color="#E9C786" stop-opacity="0"/>
</linearGradient>
<linearGradient id="paint15_linear_689_15870" x1="187.786" y1="111.074" x2="195.358" y2="108.338" gradientUnits="userSpaceOnUse">
<stop stop-color="#E4BC6C"/>
<stop offset="1" stop-color="#E9C786" stop-opacity="0"/>
</linearGradient>
<linearGradient id="paint16_linear_689_15870" x1="168.42" y1="237.387" x2="232.394" y2="214.269" gradientUnits="userSpaceOnUse">
<stop stop-color="#E4BC6C"/>
<stop offset="1" stop-color="#E9C786" stop-opacity="0"/>
</linearGradient>
<linearGradient id="paint17_linear_689_15870" x1="177.604" y1="99.7888" x2="185.491" y2="96.9389" gradientUnits="userSpaceOnUse">
<stop stop-color="#E4BC6C"/>
<stop offset="1" stop-color="#E9C786" stop-opacity="0"/>
</linearGradient>
<linearGradient id="paint18_linear_689_15870" x1="136.826" y1="155.925" x2="199.303" y2="133.348" gradientUnits="userSpaceOnUse">
<stop stop-color="#E4BC6C"/>
<stop offset="1" stop-color="#E9C786" stop-opacity="0"/>
</linearGradient>
<linearGradient id="paint19_linear_689_15870" x1="246.299" y1="307.121" x2="258.05" y2="302.875" gradientUnits="userSpaceOnUse">
<stop stop-color="#E4BC6C"/>
<stop offset="1" stop-color="#E9C786" stop-opacity="0"/>
</linearGradient>
<linearGradient id="paint20_linear_689_15870" x1="167.192" y1="88.886" x2="175.284" y2="85.9619" gradientUnits="userSpaceOnUse">
<stop stop-color="#E4BC6C"/>
<stop offset="1" stop-color="#E9C786" stop-opacity="0"/>
</linearGradient>
<linearGradient id="paint21_linear_689_15870" x1="157.138" y1="79.3557" x2="164.977" y2="76.5233" gradientUnits="userSpaceOnUse">
<stop stop-color="#E4BC6C"/>
<stop offset="1" stop-color="#E9C786" stop-opacity="0"/>
</linearGradient>
<linearGradient id="paint22_linear_689_15870" x1="230.035" y1="305.078" x2="241.183" y2="301.05" gradientUnits="userSpaceOnUse">
<stop stop-color="#E4BC6C"/>
<stop offset="1" stop-color="#E9C786" stop-opacity="0"/>
</linearGradient>
<linearGradient id="paint23_linear_689_15870" x1="145.272" y1="70.8497" x2="154.403" y2="67.5503" gradientUnits="userSpaceOnUse">
<stop stop-color="#E4BC6C"/>
<stop offset="1" stop-color="#E9C786" stop-opacity="0"/>
</linearGradient>
<linearGradient id="paint24_linear_689_15870" x1="134.054" y1="62.6281" x2="142.472" y2="59.5861" gradientUnits="userSpaceOnUse">
<stop stop-color="#E4BC6C"/>
<stop offset="1" stop-color="#E9C786" stop-opacity="0"/>
</linearGradient>
<linearGradient id="paint25_linear_689_15870" x1="215.167" y1="297.411" x2="225.747" y2="293.588" gradientUnits="userSpaceOnUse">
<stop stop-color="#E4BC6C"/>
<stop offset="1" stop-color="#E9C786" stop-opacity="0"/>
</linearGradient>
<linearGradient id="paint26_linear_689_15870" x1="122.882" y1="56.1233" x2="130.672" y2="53.3083" gradientUnits="userSpaceOnUse">
<stop stop-color="#E4BC6C"/>
<stop offset="1" stop-color="#E9C786" stop-opacity="0"/>
</linearGradient>
<linearGradient id="paint27_linear_689_15870" x1="203.473" y1="288.706" x2="213.619" y2="285.04" gradientUnits="userSpaceOnUse">
<stop stop-color="#E4BC6C"/>
<stop offset="1" stop-color="#E9C786" stop-opacity="0"/>
</linearGradient>
<linearGradient id="paint28_linear_689_15870" x1="192.364" y1="278.86" x2="201.82" y2="275.443" gradientUnits="userSpaceOnUse">
<stop stop-color="#E4BC6C"/>
<stop offset="1" stop-color="#E9C786" stop-opacity="0"/>
</linearGradient>
<linearGradient id="paint29_linear_689_15870" x1="111.621" y1="52.3959" x2="118.071" y2="50.0653" gradientUnits="userSpaceOnUse">
<stop stop-color="#E4BC6C"/>
<stop offset="1" stop-color="#E9C786" stop-opacity="0"/>
</linearGradient>
<linearGradient id="paint30_linear_689_15870" x1="179.885" y1="267.148" x2="190.03" y2="263.482" gradientUnits="userSpaceOnUse">
<stop stop-color="#E4BC6C"/>
<stop offset="1" stop-color="#E9C786" stop-opacity="0"/>
</linearGradient>
<linearGradient id="paint31_linear_689_15870" x1="96.2726" y1="54.7741" x2="104.594" y2="51.767" gradientUnits="userSpaceOnUse">
<stop stop-color="#E4BC6C"/>
<stop offset="1" stop-color="#E9C786" stop-opacity="0"/>
</linearGradient>
<linearGradient id="paint32_linear_689_15870" x1="167.512" y1="252.858" x2="176.026" y2="249.781" gradientUnits="userSpaceOnUse">
<stop stop-color="#E4BC6C"/>
<stop offset="1" stop-color="#E9C786" stop-opacity="0"/>
</linearGradient>
<linearGradient id="paint33_linear_689_15870" x1="157.091" y1="239.705" x2="165.231" y2="236.764" gradientUnits="userSpaceOnUse">
<stop stop-color="#E4BC6C"/>
<stop offset="1" stop-color="#E9C786" stop-opacity="0"/>
</linearGradient>
<linearGradient id="paint34_linear_689_15870" x1="147.683" y1="227.157" x2="155.389" y2="224.372" gradientUnits="userSpaceOnUse">
<stop stop-color="#E4BC6C"/>
<stop offset="1" stop-color="#E9C786" stop-opacity="0"/>
</linearGradient>
<linearGradient id="paint35_linear_689_15870" x1="87.1359" y1="65.1214" x2="94.4307" y2="62.4854" gradientUnits="userSpaceOnUse">
<stop stop-color="#E4BC6C"/>
<stop offset="1" stop-color="#E9C786" stop-opacity="0"/>
</linearGradient>
<linearGradient id="paint36_linear_689_15870" x1="137.994" y1="213.043" x2="145.301" y2="210.403" gradientUnits="userSpaceOnUse">
<stop stop-color="#E4BC6C"/>
<stop offset="1" stop-color="#E9C786" stop-opacity="0"/>
</linearGradient>
<linearGradient id="paint37_linear_689_15870" x1="129.446" y1="199.023" x2="136.282" y2="196.553" gradientUnits="userSpaceOnUse">
<stop stop-color="#E4BC6C"/>
<stop offset="1" stop-color="#E9C786" stop-opacity="0"/>
</linearGradient>
<linearGradient id="paint38_linear_689_15870" x1="85.0763" y1="79.1109" x2="92.2625" y2="76.5142" gradientUnits="userSpaceOnUse">
<stop stop-color="#E4BC6C"/>
<stop offset="1" stop-color="#E9C786" stop-opacity="0"/>
</linearGradient>
<linearGradient id="paint39_linear_689_15870" x1="120.558" y1="183.951" x2="127.153" y2="181.568" gradientUnits="userSpaceOnUse">
<stop stop-color="#E4BC6C"/>
<stop offset="1" stop-color="#E9C786" stop-opacity="0"/>
</linearGradient>
<linearGradient id="paint40_linear_689_15870" x1="86.1933" y1="92.5531" x2="92.7273" y2="90.192" gradientUnits="userSpaceOnUse">
<stop stop-color="#E4BC6C"/>
<stop offset="1" stop-color="#E9C786" stop-opacity="0"/>
</linearGradient>
<linearGradient id="paint41_linear_689_15870" x1="112.403" y1="167.427" x2="117.97" y2="165.415" gradientUnits="userSpaceOnUse">
<stop stop-color="#E4BC6C"/>
<stop offset="1" stop-color="#E9C786" stop-opacity="0"/>
</linearGradient>
<linearGradient id="paint42_linear_689_15870" x1="105.28" y1="151.567" x2="110.219" y2="149.782" gradientUnits="userSpaceOnUse">
<stop stop-color="#E4BC6C"/>
<stop offset="1" stop-color="#E9C786" stop-opacity="0"/>
</linearGradient>
<linearGradient id="paint43_linear_689_15870" x1="89.8261" y1="104.267" x2="93.2199" y2="103.041" gradientUnits="userSpaceOnUse">
<stop stop-color="#E4BC6C"/>
<stop offset="1" stop-color="#E9C786" stop-opacity="0"/>
</linearGradient>
<linearGradient id="paint44_linear_689_15870" x1="93.2801" y1="118.325" x2="97.2174" y2="116.903" gradientUnits="userSpaceOnUse">
<stop stop-color="#E4BC6C"/>
<stop offset="1" stop-color="#E9C786" stop-opacity="0"/>
</linearGradient>
<linearGradient id="paint45_linear_689_15870" x1="98.5598" y1="134.483" x2="102.835" y2="132.938" gradientUnits="userSpaceOnUse">
<stop stop-color="#E4BC6C"/>
<stop offset="1" stop-color="#E9C786" stop-opacity="0"/>
</linearGradient>
</defs>
</svg>
