<svg width="244" height="241" viewBox="0 0 244 241" fill="none" xmlns="http://www.w3.org/2000/svg">
<path d="M145.59 202.085C149.407 201.306 153.757 198.69 155.966 195.922C151.486 196.189 148.488 198.901 145.59 202.085ZM58.2075 68.7684C59.3228 67.8614 59.9334 66.3473 60.8378 65.1598C62.0854 63.5185 63.3651 61.9001 64.6909 60.3227C65.9718 58.7976 67.3309 57.3363 68.8106 55.6738C64.8149 57.9657 54.3621 68.6316 52.2883 72.5204C54.4228 71.1978 56.4735 70.1792 58.2075 68.7684ZM140.162 199.22C139.765 199.28 139.284 199.347 139.012 199.598C136.632 201.792 134.287 204.025 132.042 206.569C134.866 205.732 137.922 205.321 140.446 203.943C142.996 202.553 145.024 200.206 147.429 198.148C144.86 198.522 142.509 198.857 140.162 199.22ZM129.989 205.187C131.651 203.243 133.718 201.647 135.865 199.649C133.428 199.68 131.258 199.703 129.093 199.743C128.957 199.742 128.807 199.866 128.697 199.968C125.908 202.488 123.124 205.016 120.341 207.54C120.412 207.709 120.482 207.876 120.547 208.041C123.81 207.533 127.341 208.291 129.989 205.187ZM46.8452 85.0077C48.4814 83.6684 50.0952 82.2968 51.7046 80.924C51.9681 80.6967 52.2103 80.4066 52.3652 80.0954C53.5113 77.7835 54.6336 75.4628 55.7979 73.0652C49.6508 75.5242 43.0535 81.7802 41.644 89.1571C43.4924 87.684 45.1836 86.3617 46.8452 85.0077ZM83.1788 185.636C82.9088 185.488 82.2942 185.673 82.0005 185.907C79.4572 187.928 76.9517 189.994 74.164 192.269C76.0592 193.397 77.7896 194.454 79.5553 195.441C79.7682 195.563 80.2646 195.427 80.4867 195.238C83.029 193.079 85.5445 190.886 88.1899 188.599C86.4514 187.554 84.8447 186.542 83.1788 185.636ZM69.2473 174.234C66.4351 176.636 63.6801 178.994 60.7739 181.48C62.1662 182.758 63.4822 184.055 64.9135 185.205C65.1951 185.426 66.0609 185.272 66.4202 184.99C68.9339 183.035 71.3859 180.999 73.9137 178.938C72.4016 177.413 70.8538 175.852 69.2473 174.234ZM103.876 206.276C105.451 206.796 106.724 206.553 108.011 205.273C110.414 202.885 113.042 200.725 115.764 198.304C113.528 197.765 111.459 197.248 109.377 196.786C109.145 196.735 108.792 196.939 108.571 197.116C105.579 199.557 102.601 202.01 99.3485 204.684C101.066 205.29 102.465 205.805 103.876 206.276ZM90.3912 189.749C90.1169 189.626 89.5761 189.776 89.3178 189.993C86.7419 192.127 84.1993 194.305 81.3988 196.681C83.5338 197.723 85.509 198.703 87.5074 199.631C87.7235 199.732 88.1499 199.644 88.3474 199.485C91.0944 197.237 93.8167 194.966 96.5382 192.707C94.4575 191.694 92.4397 190.687 90.3912 189.749ZM115.853 207.906C116.364 207.964 117.086 207.905 117.415 207.59C120.122 205.005 122.759 202.347 125.537 199.593C123.049 199.282 120.714 198.98 118.372 198.719C118.111 198.69 117.757 198.845 117.545 199.032C114.613 201.604 111.694 204.199 108.622 206.924C111.181 207.28 113.514 207.636 115.853 207.906ZM40.5169 92.9277C39.8507 93.4928 39.6314 94.6494 39.3516 95.5777C38.7146 97.6971 38.1698 99.8461 37.4694 102.416C39.6742 100.733 41.4633 99.17 43.4362 97.8994C46.5617 95.8844 48.8269 93.4338 49.2132 89.5195C49.3602 88.0551 50.0032 86.6427 50.4903 84.9669C47.0175 87.7086 43.6951 90.2357 40.5169 92.9277ZM75.3533 180.058C75.1459 179.907 74.5989 179.929 74.4135 180.097C71.9353 182.328 69.4945 184.598 66.9269 186.968C68.5713 188.195 70.2374 189.492 71.9717 190.686C72.267 190.891 73.0053 190.848 73.2934 190.618C75.8526 188.546 78.3611 186.407 80.9714 184.215C79.075 182.799 77.2352 181.403 75.3533 180.058ZM63.3506 167.648C60.6067 170.044 57.8797 172.43 55.0212 174.934C56.5364 176.705 58.0341 178.453 59.6402 180.33C62.5508 177.916 65.3781 175.574 68.2694 173.179C66.6584 171.365 65.0554 169.565 63.3506 167.648ZM58.4365 160.373C55.5257 162.832 52.6676 165.245 49.6695 167.78C51.1226 169.757 52.5169 171.651 54.0077 173.673C56.856 171.145 59.535 168.76 62.2807 166.322C60.9655 164.285 59.7355 162.382 58.4365 160.373ZM38.6696 142.067C38.355 142.343 38.1357 143.064 38.2627 143.453C38.9025 145.414 39.6726 147.334 40.4837 149.5C42.3591 147.82 44.0981 146.275 45.8185 144.71C47.1102 143.536 49.02 142.527 49.4525 141.082C49.8659 139.708 48.73 137.864 48.2628 136.228C48.0946 135.637 47.8962 135.053 47.6684 134.32C44.5944 136.951 41.6032 139.479 38.6696 142.067ZM44.2806 158.232C47.2865 155.462 50.1863 152.796 53.1701 150.047C52.338 147.896 51.4679 145.647 50.5223 143.208C47.4181 145.944 44.4278 148.584 41.2749 151.359C42.2572 153.607 43.2293 155.831 44.2806 158.232ZM57.5498 158.746C56.4452 156.501 55.354 154.285 54.15 151.842C51.8512 153.902 49.6762 155.864 47.4871 157.809C45.1359 159.895 45.1254 159.89 46.6573 162.596C47.3166 163.764 47.9928 164.922 48.7839 166.292C51.7878 163.708 54.6236 161.263 57.5498 158.746ZM96.9232 203.739C97.2205 203.857 97.766 203.76 98.0158 203.548C100.884 201.114 103.717 198.636 106.677 196.074C104.029 195.16 101.509 194.273 98.9754 193.439C98.6883 193.345 98.2094 193.434 97.9834 193.628C95.3033 195.946 92.6545 198.298 89.8472 200.78C92.2772 201.805 94.586 202.803 96.9232 203.739ZM41.9678 110.005C45.1994 107.959 46.7846 105.236 46.7305 101.418C46.7097 100.099 47.0983 98.7734 47.309 97.4001C43.9868 99.7842 40.7157 102.12 37.4686 104.491C37.1723 104.707 36.9234 105.129 36.8508 105.498C36.2445 108.615 35.6843 111.746 35.1123 114.877C35.2095 114.941 35.3111 115.006 35.41 115.073C37.5872 113.369 39.647 111.48 41.9678 110.005ZM47.1379 132.262C46.7 129.218 46.2256 125.954 45.7727 122.807C42.5523 125.478 39.2784 128.18 36.0406 130.925C35.7823 131.142 35.6082 131.667 35.6622 132.008C36.1219 134.855 36.6437 137.693 37.2041 140.857C40.7437 137.795 43.8924 135.071 47.1379 132.262ZM45.3192 120.452C45.4938 120.299 45.6857 120.045 45.6864 119.838C45.7109 116.358 45.7058 112.873 45.7074 109.425C42.2791 112.009 38.8636 114.564 35.4843 117.162C35.1692 117.404 34.9018 117.93 34.9064 118.322C34.9301 121.827 35.0163 125.329 35.0852 128.834C35.2324 128.881 35.378 128.925 35.5251 128.971C38.7924 126.134 42.0613 123.299 45.3192 120.452ZM205.023 96.3518C201.078 80.8723 192.581 68.1862 180.493 57.915C161.531 41.8026 139.617 34.3439 114.702 36.1515C111.715 36.3687 108.749 36.9419 105.793 37.4868C104.661 37.6934 103.595 38.2824 102.5 38.6967C101.774 38.9693 101.058 39.4425 100.32 39.4853C95.3751 39.7617 91.2206 42.2017 87.0412 44.4229C75.9732 50.3056 66.9725 58.5581 59.9607 68.9402C54.1811 77.4982 50.9005 87.038 49.2683 97.1673C47.5302 107.985 46.8114 118.85 48.3168 129.765C49.1963 136.133 50.9163 142.361 53.9042 147.965C61.3079 161.85 70.9737 173.937 84.5125 182.393C101.83 193.208 120.654 198.473 141.114 196.103C160.18 193.891 175.382 184.393 187.603 169.849C192.026 164.585 195.628 158.78 198.728 152.619C207.174 134.59 210.003 115.883 205.023 96.3518ZM66.864 191.24C53.7008 181.729 44.2409 169.283 37.9116 154.297C33.7544 144.447 30.5434 134.419 30.5008 123.674C30.4468 110.188 33.3134 97.2746 39.2469 85.1093C39.99 83.5902 40.8786 82.1149 41.899 80.7702C44.3686 77.5213 46.9269 74.3415 49.5006 71.1753C51.7073 68.4541 53.7585 65.5482 56.2819 63.1478C60.6995 58.9434 65.4429 55.0884 70.0163 51.0496C73.9639 47.5676 78.2548 44.5565 83.0801 42.5036C87.3138 40.7021 91.7633 39.4112 96.1023 37.8571C106.709 34.0599 117.625 32.7645 128.845 33.5903C146.994 34.9264 163.176 41.4618 177.781 52.0908C189.985 60.9753 199.465 72.1352 205.002 86.3014C213.759 108.697 211.629 130.672 202.192 152.356C197.179 163.876 189.08 173.214 180.822 182.323C176.562 187.023 171.088 190.653 165.992 194.55C156.696 201.665 146.196 206.122 134.694 208.357C124.172 210.406 113.638 210.899 103.284 207.908C95.7373 205.728 88.4102 202.79 81.8284 200.486C76.2746 197.084 71.3417 194.478 66.864 191.24Z" fill="url(#paint0_linear_689_15808)"/>
<path d="M105.866 47.0496C107.081 46.6864 108.252 46.1947 109.438 45.7355C109.239 45.2676 109.168 44.5908 108.815 44.3771C107.845 43.7907 105.919 44.5306 105.286 45.9147C105.404 46.1585 105.776 47.0754 105.866 47.0496ZM194.058 142.359C194.289 141.339 194.656 140.029 193.448 139.636C192.199 139.23 191.991 140.601 191.692 141.496C191.517 142.033 191.339 142.609 191.363 143.159C191.385 143.654 191.679 144.142 191.852 144.632C192.27 144.406 192.743 144.242 193.092 143.935C193.432 143.637 193.644 143.192 193.822 142.939C193.943 142.647 194.023 142.507 194.058 142.359ZM162.317 178.231C161.185 177.911 159.07 178.91 158.583 179.981C158.431 180.317 158.648 181.128 158.941 181.297C159.949 181.884 162.656 180.746 163.32 179.253C163.071 178.984 162.766 178.359 162.317 178.231ZM110.504 185.517C110.926 185.48 111.372 184.782 111.614 184.289C111.674 184.165 111.019 183.467 110.621 183.389C109.368 183.139 108.081 183.014 106.8 182.949C106.526 182.938 105.948 183.538 105.988 183.613C106.272 184.171 106.677 184.67 107.134 185.312C108.294 185.402 109.414 185.616 110.504 185.517ZM162.793 57.3844C163.113 57.4892 163.683 57.4156 163.861 57.1964C164.025 56.9925 163.96 56.2862 163.759 56.1466C162.36 55.2023 160.94 54.2856 159.443 53.515C159.114 53.3436 158.462 53.8028 157.959 53.973C158.208 54.4758 158.342 55.1314 158.738 55.4518C159.329 55.9297 160.107 56.1689 160.807 56.509C160.816 56.4924 160.825 56.4758 160.831 56.4608C161.483 56.7761 162.113 57.1569 162.793 57.3844ZM197.128 107.147C197.841 105.829 197.233 101.794 196.145 100.809C195.885 100.572 195.291 100.359 195.082 100.491C194.77 100.693 194.458 101.234 194.502 101.589C194.612 102.502 194.888 103.403 195.142 104.294C195.464 105.416 195.833 106.526 196.266 107.919C196.702 107.535 196.997 107.388 197.128 107.147ZM171.802 171.496C171.534 171.278 170.778 171.35 170.449 171.593C169.169 172.535 167.94 173.556 166.766 174.629C166.505 174.866 166.344 175.583 166.507 175.808C166.702 176.079 167.433 176.292 167.697 176.136C169.21 175.229 170.658 174.208 172.133 173.214C172 172.378 172.078 171.712 171.802 171.496ZM142.528 46.7903C142.137 46.7452 141.667 47.3247 141.231 47.6177C141.552 48.0039 141.813 48.6314 142.21 48.733C144.042 49.2167 145.908 49.5786 147.776 49.9171C148.029 49.9633 148.551 49.6957 148.585 49.507C148.631 49.2431 148.416 48.8112 148.175 48.6418C147.72 48.3148 147.173 48.1231 146.66 47.8738C146.679 47.7954 146.698 47.7169 146.714 47.6402C145.322 47.3387 143.937 46.958 142.528 46.7903ZM76.9175 66.8793C77.5447 66.7352 78.3513 66.7845 78.7603 66.4056C79.7655 65.4643 80.6235 64.3525 81.4584 63.2465C81.6868 62.9454 81.617 62.4144 81.6834 61.9889C81.2549 61.9694 80.7226 61.7768 80.423 61.961C79.0938 62.7773 77.8337 63.7003 76.4135 64.6781C76.6235 65.6019 76.7713 66.242 76.9175 66.8793ZM175.434 67.0915C175.747 67.1588 176.22 67.1902 176.389 67.0138C176.572 66.822 176.636 66.2887 176.496 66.0535C175.358 64.1136 173.642 62.8413 171.539 62.1157C171.241 62.0097 170.535 62.2329 170.483 62.4285C170.389 62.7871 170.508 63.3837 170.769 63.6277C171.972 64.7339 173.251 65.751 174.504 66.8017C174.547 66.7466 174.589 66.6959 174.634 66.6436C174.9 66.7983 175.15 67.0298 175.434 67.0915ZM131.995 46.2294C132.22 46.2159 132.604 45.716 132.582 45.4694C132.552 45.1372 132.235 44.5874 131.984 44.5514C130.166 44.312 128.335 44.1287 126.501 44.0521C126.216 44.04 125.672 44.6401 125.662 44.9688C125.649 45.3751 126.069 45.7976 126.408 46.4029C128.312 46.3557 130.158 46.3353 131.995 46.2294ZM73.4224 70.9496C71.6576 71.9948 70.1547 73.3437 69.5544 75.3705C69.391 75.9272 69.7741 76.6495 69.9062 77.2949C70.4718 76.9984 71.2367 76.8388 71.5661 76.3742C72.7393 74.7082 73.7675 72.9342 75.1038 70.802C74.2093 70.8673 73.7308 70.7677 73.4224 70.9496ZM182.412 161.453C182.417 160.582 181.788 160.235 181.213 160.789C179.757 162.212 178.416 163.757 177.102 165.316C176.896 165.559 176.938 166.392 177.122 166.496C177.491 166.7 178.222 166.801 178.478 166.574C179.775 165.427 180.968 164.167 182.008 163.13C182.206 162.339 182.405 161.897 182.412 161.453ZM153.453 184.104C153.856 183.214 153.314 182.606 152.597 182.809C150.698 183.342 148.851 184.089 147.036 184.877C146.844 184.962 147.006 185.861 147.005 186.203C148.89 187.014 152.806 185.542 153.453 184.104ZM197.569 128.751C197.553 128.372 196.959 128.02 196.629 127.658C196.259 128.026 195.648 128.348 195.56 128.775C195.231 130.386 195.01 132.021 194.9 133.66C194.867 134.156 195.329 134.682 195.563 135.193C196.006 134.84 196.452 134.493 196.88 134.121C196.987 134.026 197.02 133.849 197.089 133.708C197.235 133.713 197.38 133.716 197.529 133.721C197.556 132.062 197.646 130.401 197.569 128.751ZM66.6318 145.91C66.8994 145.606 66.9208 144.796 66.7042 144.395C65.83 142.757 64.8398 141.179 63.8472 139.609C63.7199 139.408 63.2762 139.232 63.0706 139.306C62.7819 139.405 62.4562 139.713 62.3654 139.999C61.8888 141.511 63.6033 145.144 65.4738 146.105C65.6506 146.086 66.3723 146.203 66.6318 145.91ZM185.684 154.847C185.627 155.218 185.828 155.827 186.108 155.993C186.391 156.156 187.036 156.043 187.316 155.806C188.917 154.45 189.737 152.635 190.039 150.6C190.089 150.263 189.733 149.652 189.425 149.529C189.096 149.396 188.447 149.56 188.196 149.837C187.512 150.585 186.959 151.464 186.385 152.247C186.125 153.164 185.817 153.992 185.684 154.847ZM58.3817 103.443C58.3448 103.945 58.9493 104.491 59.2609 105.017C59.7206 104.609 60.479 104.269 60.5826 103.784C60.9961 101.877 61.2422 99.9266 61.4447 97.979C61.4753 97.687 60.8113 97.0253 60.7219 97.0657C60.1775 97.3273 59.7049 97.7393 59.1362 98.154C58.8597 99.9864 58.5092 101.704 58.3817 103.443ZM96.1301 51.4566C96.4101 51.7723 97.1464 52.084 97.4389 51.9264C99.1428 51.0103 100.858 50.0688 102.397 48.9059C103.138 48.3466 102.719 47.5813 101.779 47.3795C100.343 47.0734 96.8766 48.8041 96.0269 50.3923C96.0383 50.6074 95.8988 51.1992 96.1301 51.4566ZM190.088 87.6877C190.983 89.4979 191.917 91.2853 192.913 93.0369C193.064 93.3035 193.666 93.5532 193.923 93.4503C194.204 93.3445 194.571 92.7303 194.479 92.4937C193.682 90.383 192.875 88.2627 191.874 86.243C191.532 85.5533 190.634 85.2936 189.834 86.3422C189.9 86.7174 189.876 87.2614 190.088 87.6877ZM65.5211 83.4503C64.4235 85.4034 63.391 87.3978 62.4034 89.4114C62.2133 89.7918 62.223 90.3425 62.3202 90.7713C62.4129 91.1727 62.7472 91.5173 62.9749 91.8857C63.3312 91.6499 63.8704 91.4965 64.0098 91.1716C64.8986 89.0911 65.708 86.9772 66.5219 84.8647C66.753 84.2689 66.9037 83.6444 67.0916 83.0322C66.9595 82.9205 66.8273 82.8089 66.698 82.6956C66.2957 82.9429 65.7214 83.0941 65.5211 83.4503ZM59.9421 118.991C59.7914 116.529 59.514 114.069 59.2035 111.617C59.1654 111.324 58.718 110.965 58.3909 110.861C58.2082 110.805 57.6789 111.197 57.6493 111.432C57.3389 113.987 56.9712 116.56 57.9744 119.059C58.103 119.38 58.3738 119.641 58.833 120.293C59.2866 119.783 59.9632 119.366 59.9421 118.991ZM123.369 187.629C123.842 187.642 124.334 186.925 124.82 186.543C124.381 186.18 123.983 185.568 123.5 185.494C121.365 185.162 119.209 184.964 117.052 184.788C116.749 184.764 116.413 185.146 116.094 185.342C116.477 185.869 116.859 186.4 117.385 187.122C119.413 187.316 121.387 187.582 123.369 187.629ZM186.615 79.6413C186.891 79.3695 187.143 78.7579 187.018 78.4504C186.196 76.4024 185.053 74.5517 183.092 73.402C182.735 73.1945 182.044 73.2331 181.686 73.4543C181.422 73.6146 181.222 74.4142 181.388 74.6565C182.607 76.4297 183.93 78.1354 185.201 79.8341C185.873 79.7617 186.396 79.8542 186.615 79.6413ZM61.9705 133.104C61.7519 131.794 61.2742 130.517 60.8208 129.257C60.5292 128.433 60.1368 127.629 59.682 126.881C59.5022 126.582 59.0453 126.331 58.7011 126.308C58.4814 126.292 58.1093 126.702 58.0202 126.991C57.5049 128.611 58.976 133.171 60.3005 134.196C60.3815 134.258 60.4762 134.305 60.5641 134.359C61.4281 134.807 62.1647 134.273 61.9705 133.104ZM87.0549 58.9289C88.8606 57.6421 90.6434 56.3159 92.3759 54.9284C92.6905 54.6791 92.7169 54.0737 92.8801 53.6337C92.4155 53.5712 91.883 53.326 91.5025 53.4743C89.3291 54.3194 87.1288 55.2026 85.7139 57.1922C85.3564 57.6993 85.357 58.4621 85.082 59.5418C86.128 59.2311 86.6774 59.1995 87.0549 58.9289ZM140.601 187.443C141.057 187.205 141.279 186.528 141.61 186.052C141.132 185.817 140.628 185.341 140.18 185.392C137.925 185.634 135.683 185.982 133.45 186.38C133.11 186.441 132.693 186.904 132.607 187.257C132.547 187.491 133.007 187.857 133.083 187.964C135.852 188.677 138.299 188.651 140.601 187.443ZM198.41 114.563C198.381 114.219 197.637 113.732 197.193 113.699C196.882 113.675 196.237 114.315 196.237 114.66C196.233 117.016 196.336 119.377 196.488 121.729C196.506 121.982 197.052 122.354 197.382 122.385C197.69 122.418 198.038 122.07 198.727 121.695C198.64 119.336 198.6 116.942 198.41 114.563ZM84.8639 169.527C84.6935 168.9 84.7228 168.052 84.317 167.681C82.5627 166.081 80.6987 164.598 78.8272 163.133C78.5346 162.9 77.9943 162.987 77.5677 162.925C77.5653 163.396 77.3635 164.042 77.5952 164.307C79.2286 166.153 80.9522 167.921 82.762 169.838C83.5613 169.719 84.2134 169.624 84.8639 169.527ZM111.54 43.8563C111.262 43.9984 110.984 44.5795 111.056 44.8655C111.149 45.2361 111.614 45.8062 111.893 45.788C114.182 45.6652 116.47 45.4608 118.744 45.174C119.018 45.1401 119.389 44.4746 119.387 44.0999C119.39 43.7337 118.977 43.3632 118.777 43.0427C116.181 42.6166 113.79 42.7076 111.54 43.8563ZM73.299 156.417C73.573 155.928 73.5718 154.936 73.2372 154.513C71.896 152.821 70.3958 151.251 68.9114 149.676C68.7215 149.478 68.0621 149.377 67.9855 149.486C67.7166 149.866 67.3755 150.428 67.4781 150.801C68.1411 153.147 69.3142 155.172 71.8496 156.641C72.164 156.606 73.1251 156.727 73.299 156.417ZM98.4107 180.327C99.0035 180.436 99.6922 180.027 100.341 179.848C100.064 179.252 99.9455 178.343 99.4838 178.11C97.292 176.996 95.0224 176.021 92.7322 175.114C92.3944 174.978 91.6621 175.364 91.3875 175.721C91.2385 175.913 91.5409 176.723 91.8585 176.961C92.9662 177.798 94.1698 178.509 95.2413 179.206C96.3733 179.624 97.3637 180.135 98.4107 180.327ZM149.541 81.6536C144.596 71.2775 134.113 64.2864 120.311 67.8042C115.177 69.1143 110.918 71.8741 107.104 75.3918C106.006 76.4013 105.395 76.4424 104.409 75.2823C102.093 72.5599 99.6631 69.9332 97.2445 67.3C96.6906 66.6988 96.0774 66.0079 95.3519 65.7539C94.7663 65.5469 93.817 65.7191 93.2942 66.0961C91.8082 67.1683 90.5506 68.571 89.0325 69.5941C84.9995 72.3097 84.6999 73.2946 87.7789 76.9674C90.0318 79.6587 92.5391 82.1392 95.0056 84.647C95.7171 85.3715 95.7996 85.7749 94.8563 86.218C91.9921 83.1842 89.1153 80.2067 86.3217 77.1585C84.8796 75.5853 83.4062 75.6766 82.1798 77.4523C81.7906 78.0152 81.1181 78.3998 80.5263 78.7941C79.0637 79.7701 77.4606 80.5678 76.1218 81.6866C74.404 83.1256 74.4564 84.3622 75.8441 86.0757C78.6127 89.4842 81.3438 92.9256 84.2035 96.4919C81.84 98.6158 79.4676 100.764 77.0673 102.882C74.8971 104.801 74.7934 104.921 76.5726 107.299C78.3074 109.62 80.2182 111.81 82.0815 114.035C82.9818 115.112 83.8627 115.356 85.0816 114.231C86.5618 112.869 88.359 111.854 89.8563 110.508C91.0342 109.456 91.7308 109.738 92.6094 110.817C94.9402 113.663 97.2754 116.509 99.7228 119.257C105.506 125.759 111.37 132.192 117.172 138.679C121.976 144.051 126.731 149.467 131.535 154.839C132.184 155.566 131.899 155.937 131.32 156.478C129.849 157.857 128.401 159.268 127.019 160.735C126.014 161.8 126.029 162.927 127.085 164.039C129.259 166.333 131.355 168.708 133.568 170.964C134.988 172.415 135.167 172.217 136.655 170.895C139.977 167.944 143.413 165.126 146.841 162.222C149.165 164.579 151.421 166.847 153.651 169.146C156.909 172.497 157.529 172.575 160.975 169.5C162.556 168.091 163.994 166.513 165.45 164.973C166.48 163.878 166.144 162.802 165.252 161.79C162.92 159.145 160.591 156.497 158.262 153.85C157.961 153.505 157.661 153.155 157.243 152.672C157.83 152.119 158.37 151.615 159.031 150.996C159.972 152.118 160.761 153.204 161.695 154.146C163.775 156.238 165.987 158.201 168.03 160.326C169.119 161.456 170.111 161.353 171.149 160.494C172.225 159.61 173.24 158.641 174.224 157.648C175.335 156.525 176.535 155.441 177.392 154.138C177.845 153.452 177.913 152.255 177.666 151.436C177.397 150.553 176.635 149.768 175.95 149.081C173.904 147.022 171.877 144.925 169.67 143.05C168.39 141.958 168.609 141.328 169.593 140.226C171.521 138.064 173.615 135.949 175.049 133.471C182.613 120.432 179.56 106.994 166.365 99.6854C165.009 98.9384 163.547 98.3728 162.101 97.8018C158.731 96.4698 155.339 96.3044 151.979 97.8493C151.512 98.0626 151.097 98.385 150.657 98.6579C151.732 92.5452 152.035 86.8783 149.541 81.6536ZM187.605 169.848C175.384 184.392 160.182 193.89 141.116 196.102C120.656 198.473 101.832 193.207 84.5146 182.392C70.9757 173.936 61.3099 161.85 53.9062 147.965C50.9183 142.36 49.1983 136.132 48.3188 129.765C46.8134 118.85 47.5322 107.985 49.2704 97.1668C50.9026 87.0376 54.1831 77.4978 59.9627 68.9398C66.9745 58.5577 75.9752 50.3051 87.0433 44.4224C91.2226 42.2012 95.3771 39.7612 100.322 39.4849C101.061 39.442 101.776 38.9688 102.502 38.6963C103.597 38.282 104.663 37.6929 105.795 37.4864C108.751 36.9414 111.717 36.3682 114.704 36.151C139.619 34.3434 161.533 41.8021 180.496 57.9145C192.583 68.1857 201.08 80.8718 205.025 96.3513C210.005 115.883 207.176 134.59 198.73 152.619C195.63 158.78 192.028 164.585 187.605 169.848Z" fill="#0C0B0A"/>
<path d="M35.5255 128.971C38.7928 126.134 42.0617 123.3 45.3196 120.453C45.4942 120.299 45.6861 120.046 45.6868 119.838C45.7112 116.359 45.7062 112.873 45.7078 109.425C42.2795 112.01 38.864 114.564 35.4846 117.162C35.1696 117.404 34.9022 117.931 34.9068 118.323C34.9304 121.827 35.0167 125.33 35.0856 128.835C35.2328 128.881 35.3783 128.925 35.5255 128.971Z" fill="#0C0B0A"/>
<path d="M37.2024 140.858C40.742 137.796 43.8907 135.072 47.1362 132.262C46.6983 129.219 46.2239 125.955 45.771 122.808C42.5506 125.479 39.2767 128.181 36.0389 130.926C35.7806 131.143 35.6065 131.668 35.6605 132.009C36.1202 134.856 36.642 137.694 37.2024 140.858Z" fill="#0C0B0A"/>
<path d="M35.4128 115.072C37.5901 113.368 39.6498 111.479 41.9706 110.004C45.2023 107.958 46.7875 105.235 46.7333 101.417C46.7125 100.098 47.1011 98.7723 47.3118 97.3989C43.9896 99.7831 40.7185 102.119 37.4714 104.49C37.1752 104.706 36.9263 105.128 36.8536 105.497C36.2473 108.613 35.6871 111.745 35.1151 114.875C35.2123 114.94 35.314 115.005 35.4128 115.072Z" fill="#0C0B0A"/>
<path d="M89.8484 200.779C92.2785 201.805 94.5873 202.802 96.9245 203.738C97.2218 203.856 97.7673 203.759 98.0171 203.547C100.886 201.113 103.718 198.636 106.678 196.073C104.03 195.159 101.51 194.272 98.9767 193.438C98.6896 193.344 98.2107 193.433 97.9846 193.627C95.3046 195.945 92.6557 198.298 89.8484 200.779Z" fill="#0C0B0A"/>
<path d="M48.7836 166.292C51.7876 163.708 54.6233 161.263 57.5496 158.746C56.445 156.501 55.3538 154.285 54.1498 151.842C51.8509 153.902 49.676 155.864 47.4869 157.809C45.1357 159.895 45.1252 159.89 46.657 162.596C47.3164 163.764 47.9926 164.922 48.7836 166.292Z" fill="#0C0B0A"/>
<path d="M41.2768 151.358C42.2591 153.606 43.2312 155.83 44.2825 158.231C47.2884 155.461 50.1882 152.795 53.172 150.046C52.3399 147.895 51.4699 145.646 50.5242 143.207C47.4201 145.943 44.4297 148.583 41.2768 151.358Z" fill="#0C0B0A"/>
<path d="M47.6695 134.319C44.5956 136.951 41.6043 139.479 38.6707 142.067C38.3562 142.343 38.1369 143.063 38.2638 143.452C38.9036 145.413 39.6737 147.333 40.4849 149.5C42.3602 147.819 44.0993 146.274 45.8197 144.709C47.1114 143.535 49.0212 142.526 49.4537 141.081C49.8671 139.707 48.7311 137.864 48.2639 136.228C48.0957 135.637 47.8973 135.052 47.6695 134.319Z" fill="#0C0B0A"/>
<path d="M62.2789 166.322C60.9636 164.285 59.7337 162.383 58.4347 160.374C55.5239 162.832 52.6658 165.246 49.6677 167.781C51.1208 169.757 52.5151 171.651 54.0059 173.674C56.8542 171.146 59.5332 168.761 62.2789 166.322Z" fill="#0C0B0A"/>
<path d="M68.2689 173.179C66.6578 171.365 65.0548 169.565 63.35 167.648C60.6061 170.044 57.8791 172.43 55.0206 174.934C56.5358 176.705 58.0335 178.453 59.6396 180.33C62.5502 177.917 65.3776 175.574 68.2689 173.179Z" fill="#0C0B0A"/>
<path d="M80.9729 184.214C79.0765 182.798 77.2367 181.402 75.3548 180.057C75.1474 179.906 74.6004 179.928 74.415 180.096C71.9368 182.327 69.496 184.597 66.9284 186.967C68.5728 188.194 70.2389 189.491 71.9732 190.685C72.2685 190.89 73.0068 190.847 73.2949 190.617C75.8541 188.546 78.3626 186.406 80.9729 184.214Z" fill="#0C0B0A"/>
<path d="M50.488 84.9676C47.0152 87.7094 43.6928 90.2364 40.5145 92.9284C39.8484 93.4935 39.629 94.6501 39.3493 95.5784C38.7123 97.6978 38.1675 99.8468 37.467 102.416C39.6719 100.734 41.4609 99.1708 43.4338 97.9002C46.5594 95.8851 48.8245 93.4345 49.2109 89.5202C49.3578 88.0558 50.0008 86.6434 50.488 84.9676Z" fill="#0C0B0A"/>
<path d="M108.62 206.924C111.179 207.281 113.512 207.637 115.851 207.906C116.362 207.964 117.084 207.905 117.413 207.591C120.12 205.006 122.757 202.348 125.535 199.594C123.047 199.282 120.712 198.98 118.37 198.72C118.109 198.69 117.755 198.846 117.543 199.032C114.611 201.604 111.692 204.199 108.62 206.924Z" fill="#0C0B0A"/>
<path d="M96.5384 192.707C94.4576 191.695 92.4399 190.687 90.3913 189.75C90.117 189.626 89.5762 189.777 89.318 189.993C86.7421 192.127 84.1995 194.306 81.399 196.682C83.5339 197.723 85.5092 198.703 87.5076 199.632C87.7236 199.733 88.15 199.644 88.3475 199.485C91.0945 197.237 93.8168 194.967 96.5384 192.707Z" fill="#0C0B0A"/>
<path d="M99.3491 204.685C101.067 205.29 102.466 205.806 103.877 206.277C105.451 206.796 106.724 206.554 108.011 205.273C110.414 202.886 113.043 200.726 115.765 198.305C113.529 197.765 111.46 197.249 109.377 196.786C109.145 196.736 108.793 196.939 108.572 197.116C105.58 199.558 102.601 202.01 99.3491 204.685Z" fill="#0C0B0A"/>
<path d="M73.916 178.937C72.4039 177.411 70.8562 175.85 69.2496 174.233C66.4375 176.635 63.6825 178.992 60.7762 181.478C62.1685 182.757 63.4846 184.053 64.9158 185.204C65.1974 185.425 66.0633 185.271 66.4226 184.988C68.9363 183.033 71.3882 180.998 73.916 178.937Z" fill="#0C0B0A"/>
<path d="M88.1904 188.599C86.452 187.554 84.8453 186.543 83.1793 185.636C82.9093 185.488 82.2948 185.673 82.001 185.907C79.4577 187.928 76.9522 189.994 74.1646 192.269C76.0597 193.397 77.7901 194.454 79.5558 195.442C79.7687 195.563 80.2652 195.427 80.4872 195.238C83.0295 193.079 85.545 190.886 88.1904 188.599Z" fill="#0C0B0A"/>
<path d="M41.6465 89.156C43.4949 87.6829 45.1861 86.3606 46.8476 85.0066C48.4839 83.6673 50.0977 82.2957 51.7071 80.9229C51.9705 80.6956 52.2128 80.4055 52.3676 80.0943C53.5138 77.7824 54.6361 75.4617 55.8004 73.0641C49.6533 75.5231 43.0559 81.7791 41.6465 89.156Z" fill="#0C0B0A"/>
<path d="M120.549 208.041C123.812 207.533 127.343 208.291 129.99 205.187C131.653 203.242 133.72 201.647 135.866 199.648C133.43 199.679 131.259 199.703 129.095 199.743C128.959 199.742 128.809 199.866 128.698 199.968C125.909 202.488 123.125 205.016 120.342 207.54C120.414 207.709 120.483 207.876 120.549 208.041Z" fill="#0C0B0A"/>
<path d="M147.43 198.147C144.861 198.522 142.51 198.857 140.163 199.219C139.765 199.28 139.285 199.346 139.013 199.598C136.633 201.791 134.288 204.025 132.043 206.569C134.867 205.731 137.923 205.32 140.446 203.942C142.997 202.552 145.025 200.205 147.43 198.147Z" fill="#0C0B0A"/>
<path d="M52.2874 72.5208C54.4219 71.1982 56.4726 70.1796 58.2066 68.7688C59.3219 67.8617 59.9325 66.3477 60.8369 65.1602C62.0845 63.5189 63.3642 61.9005 64.6901 60.3231C65.9709 58.798 67.33 57.3367 68.8097 55.6742C64.814 57.9661 54.3612 68.632 52.2874 72.5208Z" fill="#0C0B0A"/>
<path d="M155.967 195.921C151.487 196.188 148.489 198.9 145.591 202.084C149.408 201.305 153.758 198.689 155.967 195.921Z" fill="#0C0B0A"/>
<path d="M89.6695 105.973C90.6226 105.111 91.5445 104.846 92.492 105.908C96.0019 109.858 99.7081 113.653 102.961 117.809C110.454 127.376 118.681 136.274 126.998 145.106C129.626 147.9 132.18 150.768 134.704 153.655C136.334 155.522 136.239 156.378 134.346 158.106C133.043 159.294 131.695 160.43 130.338 161.556C129.576 162.183 129.517 162.732 130.208 163.48C132.029 165.455 133.795 167.479 135.592 169.491C139.287 165.981 142.881 162.557 146.485 159.145C148.087 157.635 148.035 157.702 149.541 159.385C152.162 162.311 154.87 165.164 157.661 168.176C159.194 166.716 160.711 165.269 162.227 163.826C159.174 160.255 156.163 156.734 152.978 153.006C154.959 151.145 156.898 149.236 158.967 147.481C159.232 147.257 160.35 147.663 160.785 148.078C162.85 150.039 164.842 152.077 166.802 154.144C167.834 155.228 168.743 156.425 169.885 157.785C171.539 156.138 173.126 154.556 174.848 152.844C174.242 152.239 173.659 151.685 173.105 151.103C170.677 148.558 168.288 145.982 165.827 143.471C164.855 142.477 164.87 141.825 165.95 140.845C169.875 137.285 172.996 133.126 174.784 128.072C175.904 124.907 176.455 121.623 176.192 118.283C175.674 111.827 172.057 107.202 166.893 103.752C163.528 101.511 159.914 99.4134 155.653 99.8442C153.156 100.098 150.727 101 148.258 101.561C147.741 101.683 147.177 101.584 146.637 101.587C146.722 101.083 146.807 100.579 146.887 100.079C147.302 97.4183 147.792 94.771 148.126 92.1009C149.325 82.5563 142.918 72.7871 133.708 70.124C128.477 68.615 123.502 69.4911 118.6 71.6974C114.054 73.7394 110.004 76.4458 106.249 79.6814C104.531 81.1584 104.438 81.1027 102.892 79.4658C100.132 76.541 97.4051 73.5821 94.5711 70.5422C93.402 71.4991 92.0602 72.5932 90.5571 73.8181C93.8083 77.6133 97.0847 81.4391 100.443 85.3606C98.2792 87.4404 96.2098 89.4358 94.0338 91.5265C90.6351 88.1398 87.3539 84.8657 84.0107 81.5296C82.4913 82.5309 80.8624 83.6028 79.2262 84.6753C82.0953 87.7175 84.8909 90.6781 87.6865 93.6387C87.9344 93.9053 88.1546 94.1955 88.4133 94.4483C89.346 95.3607 89.3272 96.0181 88.2005 96.9054C84.9965 99.4356 81.909 102.109 78.6549 104.826C80.2508 106.946 81.8532 109.077 83.5774 111.366C85.7256 109.468 87.7162 107.74 89.6695 105.973ZM151.978 97.8494C155.338 96.3045 158.73 96.4699 162.1 97.8018C163.546 98.3728 165.008 98.9385 166.364 99.6855C179.56 106.994 182.612 120.432 175.048 133.471C173.615 135.949 171.52 138.064 169.592 140.226C168.608 141.328 168.389 141.958 169.67 143.05C171.877 144.925 173.903 147.022 175.949 149.081C176.635 149.768 177.396 150.553 177.665 151.436C177.913 152.255 177.845 153.452 177.391 154.139C176.535 155.441 175.334 156.526 174.223 157.648C173.24 158.641 172.224 159.61 171.149 160.494C170.111 161.353 169.118 161.456 168.029 160.326C165.987 158.201 163.774 156.238 161.695 154.146C160.76 153.204 159.971 152.118 159.031 150.997C158.369 151.615 157.829 152.119 157.242 152.672C157.661 153.156 157.96 153.505 158.261 153.85C160.59 156.498 162.919 159.145 165.251 161.791C166.143 162.802 166.479 163.878 165.449 164.973C163.993 166.513 162.555 168.091 160.974 169.5C157.528 172.576 156.908 172.498 153.65 169.146C151.421 166.847 149.164 164.579 146.841 162.222C143.413 165.126 139.977 167.944 136.655 170.895C135.166 172.217 134.987 172.415 133.567 170.964C131.355 168.708 129.258 166.333 127.084 164.039C126.029 162.927 126.014 161.8 127.019 160.735C128.401 159.268 129.849 157.857 131.319 156.478C131.898 155.937 132.183 155.566 131.535 154.839C126.73 149.467 121.976 144.051 117.172 138.679C111.37 132.192 105.506 125.759 99.7222 119.257C97.2747 116.509 94.9395 113.663 92.6088 110.817C91.7302 109.738 91.0336 109.456 89.8556 110.508C88.3584 111.854 86.5612 112.869 85.081 114.231C83.8621 115.356 82.9812 115.112 82.0808 114.035C80.2176 111.81 78.3068 109.621 76.5719 107.299C74.7928 104.921 74.8964 104.801 77.0667 102.883C79.467 100.764 81.8393 98.6159 84.2029 96.492C81.3432 92.9256 78.612 89.4842 75.8435 86.0757C74.4557 84.3622 74.4034 83.1257 76.1211 81.6866C77.4599 80.5679 79.063 79.7701 80.5256 78.7942C81.1174 78.3999 81.79 78.0153 82.1792 77.4523C83.4056 75.6767 84.879 75.5853 86.321 77.1585C89.1146 80.2067 91.9915 83.1843 94.8557 86.218C95.799 85.7749 95.7164 85.3715 95.005 84.6471C92.5384 82.1393 90.0312 79.6587 87.7782 76.9675C84.6992 73.2947 84.9989 72.3097 89.0319 69.5941C90.55 68.5711 91.8075 67.1684 93.2935 66.0962C93.8164 65.7192 94.7657 65.547 95.3513 65.7539C96.0768 66.0079 96.69 66.6989 97.2438 67.3C99.6625 69.9332 102.092 72.5599 104.408 75.2824C105.394 76.4425 106.006 76.4014 107.103 75.3919C110.917 71.8741 115.176 69.1143 120.31 67.8042C134.112 64.2864 144.595 71.2776 149.541 81.6537C152.035 86.8784 151.732 92.5452 150.656 98.658C151.096 98.3851 151.511 98.0626 151.978 97.8494Z" fill="url(#paint1_linear_689_15808)"/>
<path d="M95.2421 179.205C96.3741 179.623 97.3645 180.134 98.4115 180.326C99.0043 180.435 99.693 180.026 100.341 179.847C100.065 179.251 99.9463 178.343 99.4846 178.109C97.2927 176.995 95.0232 176.02 92.733 175.113C92.3952 174.978 91.6629 175.363 91.3883 175.721C91.2393 175.912 91.5417 176.722 91.8593 176.96C92.967 177.797 94.1706 178.508 95.2421 179.205Z" fill="url(#paint2_linear_689_15808)"/>
<path d="M71.8488 156.64C72.1632 156.605 73.1243 156.727 73.2981 156.416C73.5721 155.927 73.571 154.936 73.2364 154.512C71.8951 152.821 70.395 151.251 68.9105 149.676C68.7207 149.478 68.0613 149.377 67.9846 149.485C67.7158 149.866 67.3747 150.428 67.4773 150.801C68.1402 153.147 69.3134 155.172 71.8488 156.64Z" fill="url(#paint3_linear_689_15808)"/>
<path d="M118.774 43.044C116.179 42.6178 113.788 42.7088 111.538 43.8575C111.259 43.9997 110.982 44.5808 111.053 44.8667C111.147 45.2374 111.611 45.8075 111.89 45.7893C114.18 45.6664 116.468 45.462 118.742 45.1753C119.015 45.1414 119.387 44.4759 119.385 44.1012C119.387 43.7349 118.974 43.3645 118.774 43.044Z" fill="url(#paint4_linear_689_15808)"/>
<path d="M82.7568 169.839C83.5562 169.72 84.2083 169.625 84.8587 169.528C84.6884 168.901 84.7177 168.053 84.3119 167.682C82.5576 166.083 80.6936 164.599 78.822 163.135C78.5294 162.901 77.9892 162.988 77.5625 162.926C77.5602 163.397 77.3583 164.044 77.5901 164.308C79.2235 166.154 80.947 167.922 82.7568 169.839Z" fill="url(#paint5_linear_689_15808)"/>
<path d="M198.724 121.696C198.636 119.337 198.596 116.943 198.406 114.564C198.377 114.22 197.633 113.732 197.189 113.699C196.879 113.676 196.233 114.315 196.233 114.661C196.229 117.016 196.333 119.377 196.484 121.729C196.502 121.982 197.048 122.355 197.378 122.386C197.686 122.419 198.035 122.071 198.724 121.696Z" fill="url(#paint6_linear_689_15808)"/>
<path d="M133.082 187.963C135.851 188.676 138.298 188.651 140.6 187.442C141.057 187.205 141.279 186.528 141.609 186.051C141.131 185.816 140.627 185.34 140.179 185.392C137.925 185.634 135.682 185.981 133.45 186.379C133.109 186.44 132.692 186.903 132.607 187.257C132.546 187.491 133.006 187.857 133.082 187.963Z" fill="url(#paint7_linear_689_15808)"/>
<path d="M85.0778 59.5426C86.1238 59.2319 86.6732 59.2003 87.0507 58.9297C88.8564 57.6429 90.6392 56.3167 92.3717 54.9293C92.6863 54.6799 92.7127 54.0746 92.8759 53.6345C92.4113 53.572 91.8788 53.3268 91.4983 53.4751C89.3249 54.3202 87.1246 55.2034 85.7097 57.193C85.3522 57.7002 85.3528 58.4629 85.0778 59.5426Z" fill="url(#paint8_linear_689_15808)"/>
<path d="M60.562 134.36C61.4261 134.808 62.1626 134.274 61.9684 133.104C61.7498 131.794 61.2721 130.518 60.8187 129.257C60.5271 128.433 60.1347 127.63 59.68 126.881C59.5002 126.583 59.0432 126.332 58.6991 126.309C58.4793 126.293 58.1073 126.703 58.0181 126.991C57.5028 128.612 58.9739 133.172 60.2984 134.196C60.3795 134.258 60.4741 134.305 60.562 134.36Z" fill="url(#paint9_linear_689_15808)"/>
<path d="M185.201 79.8335C185.873 79.761 186.396 79.8536 186.615 79.6406C186.891 79.3688 187.143 78.7572 187.018 78.4497C186.197 76.4018 185.053 74.5511 183.092 73.4014C182.736 73.1938 182.044 73.2324 181.686 73.4537C181.422 73.6139 181.222 74.4135 181.388 74.6558C182.607 76.429 183.931 78.1348 185.201 79.8335Z" fill="url(#paint10_linear_689_15808)"/>
<path d="M117.384 187.122C119.413 187.315 121.386 187.582 123.368 187.629C123.841 187.642 124.333 186.925 124.819 186.543C124.381 186.18 123.982 185.568 123.499 185.494C121.365 185.162 119.209 184.964 117.051 184.788C116.748 184.764 116.412 185.146 116.093 185.342C116.476 185.868 116.858 186.4 117.384 187.122Z" fill="url(#paint11_linear_689_15808)"/>
<path d="M58.8318 120.293C59.2853 119.783 59.9619 119.366 59.9408 118.991C59.7902 116.53 59.5127 114.07 59.2022 111.618C59.1641 111.324 58.7168 110.966 58.3896 110.862C58.2069 110.806 57.6777 111.198 57.648 111.433C57.3376 113.988 56.9699 116.561 57.9731 119.06C58.1017 119.38 58.3726 119.641 58.8318 120.293Z" fill="url(#paint12_linear_689_15808)"/>
<path d="M66.6968 82.6951C66.2946 82.9424 65.7203 83.0936 65.52 83.4498C64.4223 85.4029 63.3898 87.3973 62.4023 89.4109C62.2122 89.7913 62.2219 90.342 62.3191 90.7708C62.4117 91.1721 62.746 91.5167 62.9737 91.8852C63.33 91.6494 63.8692 91.496 64.0087 91.1711C64.8974 89.0905 65.7068 86.9767 66.5207 84.8642C66.7519 84.2684 66.9025 83.6438 67.0904 83.0317C66.9583 82.92 66.8261 82.8084 66.6968 82.6951Z" fill="url(#paint13_linear_689_15808)"/>
<path d="M189.833 86.3421C189.9 86.7173 189.876 87.2614 190.088 87.6876C190.983 89.4978 191.917 91.2852 192.913 93.0368C193.063 93.3034 193.666 93.5531 193.922 93.4502C194.203 93.3444 194.57 92.7302 194.479 92.4936C193.681 90.3829 192.874 88.2627 191.874 86.243C191.532 85.5532 190.634 85.2936 189.833 86.3421Z" fill="url(#paint14_linear_689_15808)"/>
<path d="M96.0257 50.3923C96.0371 50.6075 95.8976 51.1992 96.1289 51.4566C96.409 51.7723 97.1452 52.084 97.4377 51.9264C99.1416 51.0103 100.857 50.0688 102.396 48.9059C103.137 48.3466 102.718 47.5813 101.778 47.3795C100.342 47.0734 96.8754 48.8041 96.0257 50.3923Z" fill="url(#paint15_linear_689_15808)"/>
<path d="M59.1358 98.1542C58.8593 99.9866 58.5089 101.704 58.3813 103.443C58.3444 103.945 58.9489 104.491 59.2605 105.018C59.7202 104.609 60.4786 104.269 60.5822 103.785C60.9957 101.877 61.2418 99.9267 61.4443 97.9792C61.4749 97.6871 60.811 97.0255 60.7215 97.0658C60.1772 97.3275 59.7045 97.7394 59.1358 98.1542Z" fill="url(#paint16_linear_689_15808)"/>
<path d="M186.383 152.247C186.123 153.163 185.816 153.991 185.682 154.847C185.625 155.218 185.827 155.827 186.106 155.992C186.389 156.156 187.034 156.043 187.314 155.806C188.915 154.45 189.735 152.635 190.037 150.599C190.087 150.262 189.731 149.652 189.423 149.529C189.094 149.396 188.445 149.56 188.194 149.836C187.51 150.585 186.958 151.464 186.383 152.247Z" fill="url(#paint17_linear_689_15808)"/>
<path d="M65.4711 146.106C65.6479 146.087 66.3696 146.204 66.6291 145.911C66.8967 145.606 66.9181 144.797 66.7015 144.396C65.8273 142.758 64.8371 141.179 63.8445 139.61C63.7172 139.409 63.2735 139.233 63.0679 139.306C62.7792 139.405 62.4535 139.714 62.3627 139.999C61.8861 141.511 63.6006 145.145 65.4711 146.106Z" fill="url(#paint18_linear_689_15808)"/>
<path d="M197.528 133.72C197.555 132.062 197.645 130.401 197.568 128.751C197.552 128.372 196.958 128.02 196.629 127.658C196.258 128.026 195.648 128.348 195.56 128.775C195.23 130.386 195.009 132.021 194.899 133.659C194.866 134.156 195.328 134.682 195.563 135.193C196.005 134.84 196.451 134.492 196.88 134.121C196.986 134.026 197.019 133.849 197.088 133.707C197.234 133.713 197.379 133.716 197.528 133.72Z" fill="url(#paint19_linear_689_15808)"/>
<path d="M147.001 186.205C148.885 187.015 152.802 185.543 153.449 184.105C153.852 183.215 153.31 182.607 152.593 182.811C150.694 183.343 148.847 184.09 147.032 184.879C146.84 184.963 147.002 185.862 147.001 186.205Z" fill="url(#paint20_linear_689_15808)"/>
<path d="M182.006 163.131C182.204 162.34 182.403 161.898 182.41 161.454C182.415 160.583 181.786 160.236 181.211 160.79C179.755 162.213 178.414 163.758 177.1 165.317C176.894 165.56 176.935 166.393 177.12 166.497C177.489 166.701 178.22 166.802 178.476 166.575C179.773 165.428 180.966 164.168 182.006 163.131Z" fill="url(#paint21_linear_689_15808)"/>
<path d="M75.1025 70.8016C74.208 70.867 73.7295 70.7673 73.421 70.9492C71.6563 71.9944 70.1534 73.3433 69.5531 75.3701C69.3896 75.9268 69.7728 76.6491 69.9048 77.2945C70.4704 76.998 71.2353 76.8384 71.5647 76.3738C72.738 74.7078 73.7662 72.9338 75.1025 70.8016Z" fill="url(#paint22_linear_689_15808)"/>
<path d="M126.405 46.4036C128.31 46.3563 130.155 46.336 131.992 46.2301C132.217 46.2166 132.602 45.7166 132.58 45.47C132.549 45.1378 132.232 44.5881 131.982 44.552C130.163 44.3126 128.332 44.1294 126.499 44.0527C126.214 44.0407 125.669 44.6407 125.66 44.9695C125.646 45.3757 126.067 45.7982 126.405 46.4036Z" fill="url(#paint23_linear_689_15808)"/>
<path d="M174.633 66.643C174.899 66.7976 175.15 67.0291 175.433 67.0908C175.747 67.1581 176.22 67.1895 176.388 67.0131C176.571 66.8213 176.635 66.288 176.495 66.0528C175.357 64.1129 173.641 62.8406 171.538 62.1151C171.24 62.009 170.534 62.2322 170.482 62.4278C170.388 62.7864 170.507 63.3831 170.768 63.627C171.971 64.7332 173.25 65.7504 174.503 66.8011C174.546 66.746 174.588 66.6953 174.633 66.643Z" fill="url(#paint24_linear_689_15808)"/>
<path d="M76.4117 64.6785C76.6217 65.6023 76.7695 66.2424 76.9157 66.8797C77.5429 66.7356 78.3495 66.7849 78.7584 66.4059C79.7637 65.4647 80.6216 64.3529 81.4566 63.2469C81.685 62.9458 81.6152 62.4148 81.6815 61.9893C81.253 61.9698 80.7208 61.7772 80.4212 61.9614C79.0919 62.7777 77.8318 63.7007 76.4117 64.6785Z" fill="url(#paint25_linear_689_15808)"/>
<path d="M146.712 47.6403C145.32 47.3388 143.935 46.9582 142.526 46.7904C142.136 46.7453 141.666 47.3248 141.23 47.6178C141.551 48.004 141.811 48.6316 142.208 48.7332C144.04 49.2168 145.907 49.5787 147.775 49.9173C148.027 49.9634 148.549 49.6958 148.583 49.5071C148.63 49.2432 148.414 48.8113 148.174 48.642C147.718 48.3149 147.171 48.1232 146.659 47.8739C146.678 47.7955 146.696 47.7171 146.712 47.6403Z" fill="url(#paint26_linear_689_15808)"/>
<path d="M172.132 173.215C171.998 172.378 172.076 171.713 171.801 171.496C171.533 171.279 170.777 171.35 170.447 171.593C169.168 172.535 167.939 173.557 166.765 174.629C166.503 174.867 166.342 175.584 166.506 175.809C166.7 176.08 167.432 176.293 167.695 176.137C169.209 175.229 170.657 174.209 172.132 173.215Z" fill="url(#paint27_linear_689_15808)"/>
<path d="M196.265 107.919C196.701 107.536 196.996 107.388 197.127 107.147C197.84 105.83 197.232 101.794 196.144 100.809C195.884 100.573 195.29 100.359 195.081 100.491C194.769 100.693 194.458 101.234 194.501 101.589C194.611 102.503 194.887 103.404 195.142 104.294C195.463 105.417 195.833 106.526 196.265 107.919Z" fill="url(#paint28_linear_689_15808)"/>
<path d="M160.832 56.4601C161.484 56.7754 162.113 57.1562 162.794 57.3837C163.113 57.4885 163.684 57.4149 163.862 57.1956C164.026 56.9918 163.96 56.2855 163.759 56.1459C162.361 55.2016 160.941 54.2849 159.443 53.5142C159.115 53.3429 158.463 53.8021 157.96 53.9723C158.209 54.4751 158.343 55.1307 158.738 55.4511C159.33 55.929 160.107 56.1682 160.807 56.5083C160.816 56.4917 160.826 56.4751 160.832 56.4601Z" fill="url(#paint29_linear_689_15808)"/>
<path d="M107.13 185.314C108.291 185.403 109.411 185.617 110.5 185.518C110.922 185.481 111.369 184.784 111.611 184.291C111.67 184.166 111.016 183.469 110.617 183.391C109.364 183.141 108.077 183.015 106.796 182.951C106.523 182.939 105.945 183.54 105.984 183.615C106.268 184.172 106.673 184.672 107.13 185.314Z" fill="url(#paint30_linear_689_15808)"/>
<path d="M163.318 179.254C163.069 178.984 162.765 178.36 162.315 178.232C161.183 177.912 159.068 178.911 158.581 179.982C158.429 180.317 158.646 181.128 158.939 181.298C159.947 181.885 162.654 180.746 163.318 179.254Z" fill="url(#paint31_linear_689_15808)"/>
<path d="M193.82 142.94C193.941 142.648 194.022 142.508 194.056 142.36C194.287 141.339 194.655 140.03 193.447 139.637C192.197 139.231 191.989 140.602 191.69 141.497C191.515 142.034 191.337 142.61 191.361 143.16C191.384 143.655 191.677 144.143 191.851 144.633C192.269 144.407 192.742 144.243 193.091 143.936C193.43 143.638 193.643 143.192 193.82 142.94Z" fill="url(#paint32_linear_689_15808)"/>
<path d="M105.283 45.9159C105.402 46.1597 105.773 47.0766 105.863 47.0508C107.078 46.6876 108.249 46.1959 109.435 45.7367C109.236 45.2688 109.165 44.592 108.812 44.3783C107.842 43.7919 105.916 44.5318 105.283 45.9159Z" fill="url(#paint33_linear_689_15808)"/>
<path d="M138.855 111.09C136.016 111.909 133.487 113.231 131.479 115.484C130.344 116.759 129.04 117.88 127.838 119.093C126.344 120.606 126.278 121.678 127.658 123.215C133.988 130.278 140.334 137.331 146.684 144.377C148.139 145.992 148.466 145.961 150.082 144.475C152.103 142.617 154.245 140.884 156.176 138.942C158.497 136.614 160.519 133.984 161.497 130.807C163.395 124.655 161.427 119.352 157.351 114.733C156.107 113.32 154.449 112.278 152.981 111.065C148.188 109.039 143.521 109.745 138.855 111.09ZM134.024 88.4765C131.252 84.0283 127.158 82.028 122.01 82.038C116.405 82.0492 111.852 84.6064 107.707 88.0784C106.278 89.2755 104.923 90.5615 103.527 91.7961C101.728 93.3873 101.534 94.8748 103.111 96.7535C105.34 99.4024 107.586 102.049 109.993 104.538C113.008 107.658 116.156 110.663 119.329 113.632C121.32 115.493 122.22 115.488 124.578 114.104C128.837 111.604 131.766 107.92 133.928 103.8C136.346 98.5667 137.165 93.5267 134.024 88.4765ZM78.6518 104.827C81.9059 102.11 84.9933 99.4365 88.1974 96.9063C89.324 96.019 89.3429 95.3616 88.4101 94.4492C88.1514 94.1963 87.9313 93.9062 87.6834 93.6396C84.8877 90.679 82.0921 87.7184 79.223 84.6762C80.8592 83.6037 82.4881 82.5318 84.0076 81.5305C87.3508 84.8666 90.6319 88.1407 94.0307 91.5274C96.2066 89.4366 98.276 87.4413 100.439 85.3614C97.0815 81.44 93.8052 77.6142 90.554 73.819C92.057 72.5941 93.3988 71.5 94.568 70.5431C97.4019 73.583 100.129 76.5418 102.889 79.4666C104.435 81.1035 104.528 81.1593 106.246 79.6823C110.001 76.4466 114.051 73.7402 118.597 71.6983C123.499 69.492 128.474 68.6158 133.705 70.1249C142.915 72.788 149.322 82.5572 148.123 92.1018C147.789 94.7718 147.298 97.4192 146.884 100.08C146.804 100.58 146.719 101.084 146.634 101.588C147.174 101.585 147.738 101.684 148.254 101.562C150.724 101.001 153.153 100.098 155.649 99.8451C159.911 99.4142 163.524 101.512 166.889 103.753C172.054 107.203 175.671 111.828 176.189 118.284C176.452 121.624 175.901 124.908 174.781 128.073C172.993 133.127 169.872 137.286 165.947 140.845C164.866 141.826 164.851 142.478 165.824 143.472C168.285 145.983 170.674 148.558 173.102 151.104C173.656 151.686 174.239 152.24 174.844 152.845C173.123 154.557 171.536 156.139 169.882 157.785C168.74 156.426 167.831 155.229 166.799 154.145C164.839 152.078 162.846 150.04 160.782 148.079C160.347 147.664 159.229 147.257 158.964 147.482C156.894 149.237 154.956 151.146 152.974 153.007C156.16 156.735 159.17 160.256 162.224 163.827C160.708 165.27 159.191 166.717 157.658 168.177C154.867 165.165 152.159 162.312 149.538 159.386C148.032 157.703 148.083 157.635 146.482 159.146C142.878 162.558 139.284 165.982 135.589 169.491C133.792 167.48 132.026 165.455 130.205 163.481C129.514 162.733 129.573 162.184 130.335 161.556C131.692 160.431 133.04 159.295 134.342 158.107C136.235 156.379 136.331 155.523 134.701 153.656C132.177 150.768 129.623 147.901 126.995 145.107C118.678 136.275 110.45 127.377 102.957 117.81C99.705 113.654 95.9987 109.859 92.4889 105.908C91.5413 104.847 90.6194 105.112 89.6663 105.974C87.713 107.741 85.7224 109.469 83.5743 111.367C81.85 109.077 80.2477 106.947 78.6518 104.827Z" fill="#0C0B0A"/>
<path d="M132.818 97.284C134.177 90.3725 128.849 84.6077 121.809 85.1235C118.301 85.3822 115.094 86.5533 112.347 88.6959C110.195 90.3784 108.243 92.3244 106.281 94.239C105.991 94.5233 105.881 95.4925 106.118 95.7393C111.45 101.374 116.841 106.949 122.367 112.685C127.67 108.556 131.547 103.747 132.818 97.284ZM124.577 114.105C122.219 115.489 121.319 115.493 119.327 113.632C116.155 110.664 113.007 107.659 109.992 104.539C107.584 102.05 105.339 99.403 103.11 96.7541C101.533 94.8755 101.727 93.3879 103.526 91.7967C104.922 90.5622 106.277 89.2761 107.705 88.079C111.851 84.607 116.404 82.0498 122.009 82.0386C127.157 82.0286 131.251 84.0289 134.022 88.4771C137.164 93.5273 136.345 98.5673 133.927 103.801C131.765 107.921 128.836 111.604 124.577 114.105Z" fill="url(#paint34_linear_689_15808)"/>
<path d="M156.799 118.345C153.479 113.312 149.112 111.574 143.236 112.907C138.558 113.965 134.347 115.949 130.925 119.47C129.785 120.639 129.839 121.476 130.828 122.597C134.016 126.21 137.133 129.884 140.344 133.473C142.76 136.179 145.318 138.754 147.718 141.473C148.52 142.379 148.992 142.332 149.818 141.554C153 138.563 156.089 135.509 158.256 131.533C160.356 126.915 159.53 122.483 156.799 118.345ZM157.355 114.732C161.432 119.351 163.4 124.654 161.501 130.806C160.523 133.983 158.501 136.613 156.18 138.941C154.249 140.883 152.107 142.616 150.086 144.474C148.471 145.959 148.143 145.991 146.688 144.376C140.338 137.329 133.992 130.277 127.663 123.214C126.283 121.676 126.348 120.605 127.843 119.092C129.044 117.879 130.348 116.758 131.483 115.482C133.491 113.23 136.021 111.908 138.859 111.089C143.526 109.744 148.193 109.038 152.986 111.063C154.453 112.276 156.111 113.319 157.355 114.732Z" fill="url(#paint35_linear_689_15808)"/>
<path d="M122.371 112.684C127.674 108.555 131.551 103.745 132.823 97.2825C134.181 90.3711 128.853 84.6062 121.814 85.1221C118.305 85.3808 115.099 86.5519 112.351 88.6944C110.199 90.3769 108.247 92.3229 106.286 94.2375C105.995 94.5219 105.885 95.491 106.122 95.7379C111.454 101.373 116.845 106.947 122.371 112.684Z" fill="#0C0B0A"/>
<path d="M158.252 131.534C160.352 126.916 159.526 122.484 156.795 118.346C153.476 113.313 149.108 111.575 143.232 112.908C138.554 113.966 134.343 115.95 130.921 119.471C129.781 120.64 129.836 121.477 130.825 122.598C134.012 126.211 137.129 129.885 140.34 133.474C142.756 136.18 145.314 138.755 147.715 141.474C148.516 142.38 148.988 142.333 149.814 141.555C152.996 138.564 156.086 135.51 158.252 131.534Z" fill="#0C0B0A"/>
<defs>
<linearGradient id="paint0_linear_689_15808" x1="58.8289" y1="214.49" x2="179.966" y2="271.255" gradientUnits="userSpaceOnUse">
<stop stop-color="#E7C177"/>
<stop offset="1" stop-color="#E9C786" stop-opacity="0"/>
</linearGradient>
<linearGradient id="paint1_linear_689_15808" x1="106.945" y1="170.849" x2="184.894" y2="189.926" gradientUnits="userSpaceOnUse">
<stop stop-color="#E7C177"/>
<stop offset="1" stop-color="#E9C786" stop-opacity="0"/>
</linearGradient>
<linearGradient id="paint2_linear_689_15808" x1="93.9736" y1="181.526" x2="99.2885" y2="183.098" gradientUnits="userSpaceOnUse">
<stop stop-color="#E7C177"/>
<stop offset="1" stop-color="#E9C786" stop-opacity="0"/>
</linearGradient>
<linearGradient id="paint3_linear_689_15808" x1="69.9444" y1="156.262" x2="73.9238" y2="156.208" gradientUnits="userSpaceOnUse">
<stop stop-color="#E7C177"/>
<stop offset="1" stop-color="#E9C786" stop-opacity="0"/>
</linearGradient>
<linearGradient id="paint4_linear_689_15808" x1="112.164" y1="47.8279" x2="115.462" y2="50.2231" gradientUnits="userSpaceOnUse">
<stop stop-color="#E7C177"/>
<stop offset="1" stop-color="#E9C786" stop-opacity="0"/>
</linearGradient>
<linearGradient id="paint5_linear_689_15808" x1="80.4432" y1="169.783" x2="85.052" y2="169.919" gradientUnits="userSpaceOnUse">
<stop stop-color="#E7C177"/>
<stop offset="1" stop-color="#E9C786" stop-opacity="0"/>
</linearGradient>
<linearGradient id="paint6_linear_689_15808" x1="195.91" y1="121.444" x2="200.778" y2="122.598" gradientUnits="userSpaceOnUse">
<stop stop-color="#E7C177"/>
<stop offset="1" stop-color="#E9C786" stop-opacity="0"/>
</linearGradient>
<linearGradient id="paint7_linear_689_15808" x1="133.692" y1="190.321" x2="136.777" y2="192.806" gradientUnits="userSpaceOnUse">
<stop stop-color="#E7C177"/>
<stop offset="1" stop-color="#E9C786" stop-opacity="0"/>
</linearGradient>
<linearGradient id="paint8_linear_689_15808" x1="84.4817" y1="59.7196" x2="86.2341" y2="61.6657" gradientUnits="userSpaceOnUse">
<stop stop-color="#E7C177"/>
<stop offset="1" stop-color="#E9C786" stop-opacity="0"/>
</linearGradient>
<linearGradient id="paint9_linear_689_15808" x1="59.4576" y1="133.545" x2="63.2448" y2="133.442" gradientUnits="userSpaceOnUse">
<stop stop-color="#E7C177"/>
<stop offset="1" stop-color="#E9C786" stop-opacity="0"/>
</linearGradient>
<linearGradient id="paint10_linear_689_15808" x1="183.858" y1="79.3261" x2="187.42" y2="79.2659" gradientUnits="userSpaceOnUse">
<stop stop-color="#E7C177"/>
<stop offset="1" stop-color="#E9C786" stop-opacity="0"/>
</linearGradient>
<linearGradient id="paint11_linear_689_15808" x1="117.955" y1="189.434" x2="122.017" y2="191.688" gradientUnits="userSpaceOnUse">
<stop stop-color="#E7C177"/>
<stop offset="1" stop-color="#E9C786" stop-opacity="0"/>
</linearGradient>
<linearGradient id="paint12_linear_689_15808" x1="57.5529" y1="118.959" x2="62.4177" y2="119.67" gradientUnits="userSpaceOnUse">
<stop stop-color="#E7C177"/>
<stop offset="1" stop-color="#E9C786" stop-opacity="0"/>
</linearGradient>
<linearGradient id="paint13_linear_689_15808" x1="61.8404" y1="91.0532" x2="66.1691" y2="93.6621" gradientUnits="userSpaceOnUse">
<stop stop-color="#E7C177"/>
<stop offset="1" stop-color="#E9C786" stop-opacity="0"/>
</linearGradient>
<linearGradient id="paint14_linear_689_15808" x1="192.323" y1="92.3261" x2="195.294" y2="91.9312" gradientUnits="userSpaceOnUse">
<stop stop-color="#E7C177"/>
<stop offset="1" stop-color="#E9C786" stop-opacity="0"/>
</linearGradient>
<linearGradient id="paint15_linear_689_15808" x1="95.9892" y1="52.1581" x2="97.6986" y2="53.8912" gradientUnits="userSpaceOnUse">
<stop stop-color="#E7C177"/>
<stop offset="1" stop-color="#E9C786" stop-opacity="0"/>
</linearGradient>
<linearGradient id="paint16_linear_689_15808" x1="58.2116" y1="104.113" x2="62.4163" y2="105.76" gradientUnits="userSpaceOnUse">
<stop stop-color="#E7C177"/>
<stop offset="1" stop-color="#E9C786" stop-opacity="0"/>
</linearGradient>
<linearGradient id="paint17_linear_689_15808" x1="185.425" y1="155.741" x2="188.779" y2="157.788" gradientUnits="userSpaceOnUse">
<stop stop-color="#E7C177"/>
<stop offset="1" stop-color="#E9C786" stop-opacity="0"/>
</linearGradient>
<linearGradient id="paint18_linear_689_15808" x1="64.1346" y1="145.529" x2="67.2169" y2="145.31" gradientUnits="userSpaceOnUse">
<stop stop-color="#E7C177"/>
<stop offset="1" stop-color="#E9C786" stop-opacity="0"/>
</linearGradient>
<linearGradient id="paint19_linear_689_15808" x1="194.657" y1="134.248" x2="198.671" y2="135.642" gradientUnits="userSpaceOnUse">
<stop stop-color="#E7C177"/>
<stop offset="1" stop-color="#E9C786" stop-opacity="0"/>
</linearGradient>
<linearGradient id="paint20_linear_689_15808" x1="147.211" y1="187.461" x2="149.138" y2="189.284" gradientUnits="userSpaceOnUse">
<stop stop-color="#E7C177"/>
<stop offset="1" stop-color="#E9C786" stop-opacity="0"/>
</linearGradient>
<linearGradient id="paint21_linear_689_15808" x1="176.695" y1="166.709" x2="179.181" y2="168.794" gradientUnits="userSpaceOnUse">
<stop stop-color="#E7C177"/>
<stop offset="1" stop-color="#E9C786" stop-opacity="0"/>
</linearGradient>
<linearGradient id="paint22_linear_689_15808" x1="69.1439" y1="76.9419" x2="71.7536" y2="79.1428" gradientUnits="userSpaceOnUse">
<stop stop-color="#E7C177"/>
<stop offset="1" stop-color="#E9C786" stop-opacity="0"/>
</linearGradient>
<linearGradient id="paint23_linear_689_15808" x1="126.881" y1="48.0567" x2="130.186" y2="49.9883" gradientUnits="userSpaceOnUse">
<stop stop-color="#E7C177"/>
<stop offset="1" stop-color="#E9C786" stop-opacity="0"/>
</linearGradient>
<linearGradient id="paint24_linear_689_15808" x1="172.675" y1="67.4575" x2="176.571" y2="67.921" gradientUnits="userSpaceOnUse">
<stop stop-color="#E7C177"/>
<stop offset="1" stop-color="#E9C786" stop-opacity="0"/>
</linearGradient>
<linearGradient id="paint25_linear_689_15808" x1="76.505" y1="66.9872" x2="78.5275" y2="68.7784" gradientUnits="userSpaceOnUse">
<stop stop-color="#E7C177"/>
<stop offset="1" stop-color="#E9C786" stop-opacity="0"/>
</linearGradient>
<linearGradient id="paint26_linear_689_15808" x1="143.042" y1="51.451" x2="146.904" y2="53.1855" gradientUnits="userSpaceOnUse">
<stop stop-color="#E7C177"/>
<stop offset="1" stop-color="#E9C786" stop-opacity="0"/>
</linearGradient>
<linearGradient id="paint27_linear_689_15808" x1="166.307" y1="176.31" x2="167.954" y2="177.94" gradientUnits="userSpaceOnUse">
<stop stop-color="#E7C177"/>
<stop offset="1" stop-color="#E9C786" stop-opacity="0"/>
</linearGradient>
<linearGradient id="paint28_linear_689_15808" x1="195.329" y1="106.739" x2="199.077" y2="107.056" gradientUnits="userSpaceOnUse">
<stop stop-color="#E7C177"/>
<stop offset="1" stop-color="#E9C786" stop-opacity="0"/>
</linearGradient>
<linearGradient id="paint29_linear_689_15808" x1="159.891" y1="58.1042" x2="163.559" y2="59.0533" gradientUnits="userSpaceOnUse">
<stop stop-color="#E7C177"/>
<stop offset="1" stop-color="#E9C786" stop-opacity="0"/>
</linearGradient>
<linearGradient id="paint30_linear_689_15808" x1="107.266" y1="186.417" x2="110.183" y2="187.879" gradientUnits="userSpaceOnUse">
<stop stop-color="#E7C177"/>
<stop offset="1" stop-color="#E9C786" stop-opacity="0"/>
</linearGradient>
<linearGradient id="paint31_linear_689_15808" x1="158.826" y1="181.828" x2="160.682" y2="183.283" gradientUnits="userSpaceOnUse">
<stop stop-color="#E7C177"/>
<stop offset="1" stop-color="#E9C786" stop-opacity="0"/>
</linearGradient>
<linearGradient id="paint32_linear_689_15808" x1="191.23" y1="144.082" x2="194.003" y2="145.417" gradientUnits="userSpaceOnUse">
<stop stop-color="#E7C177"/>
<stop offset="1" stop-color="#E9C786" stop-opacity="0"/>
</linearGradient>
<linearGradient id="paint33_linear_689_15808" x1="105.687" y1="47.3043" x2="107.372" y2="48.5382" gradientUnits="userSpaceOnUse">
<stop stop-color="#E7C177"/>
<stop offset="1" stop-color="#E9C786" stop-opacity="0"/>
</linearGradient>
<linearGradient id="paint34_linear_689_15808" x1="110.886" y1="114.29" x2="132.686" y2="123.869" gradientUnits="userSpaceOnUse">
<stop stop-color="#E7C177"/>
<stop offset="1" stop-color="#E9C786" stop-opacity="0"/>
</linearGradient>
<linearGradient id="paint35_linear_689_15808" x1="137.081" y1="143.595" x2="160.937" y2="152.349" gradientUnits="userSpaceOnUse">
<stop stop-color="#E7C177"/>
<stop offset="1" stop-color="#E9C786" stop-opacity="0"/>
</linearGradient>
</defs>
</svg>
