<svg width="239" height="49" viewBox="0 0 239 49" fill="none" xmlns="http://www.w3.org/2000/svg">
<path d="M9.69563 34L0.227716 1.45405H6.9645L11.1977 17.6132L12.6088 24.7142H12.6999C13.2461 22.0134 13.7468 19.7071 14.202 17.7953L17.7525 1.45405H24.1251L27.6756 17.7498L29.1777 24.7142H29.2687C29.906 21.8313 30.437 19.4492 30.8619 17.5677L34.9586 1.45405H41.4678L32.1819 34H26.0369L22.0767 16.5663L20.9388 10.7854H20.8477C20.5139 13.0613 20.165 14.9883 19.8008 16.5663L15.7951 34H9.69563ZM49.4343 1.45405V13.6986H49.5708C50.4508 12.4241 51.4067 11.4985 52.4385 10.922C53.5006 10.315 54.8055 10.0116 56.3531 10.0116C58.7504 10.0116 60.6926 10.8309 62.1795 12.4696C63.6665 14.0779 64.4099 16.1718 64.4099 18.7512V34H58.2194V19.6616C58.2194 18.387 57.8552 17.3553 57.1269 16.5663C56.429 15.7773 55.4427 15.3828 54.1682 15.3828C52.8027 15.3828 51.6647 15.8835 50.7543 16.8849C49.8743 17.8863 49.4343 19.176 49.4343 20.754V34H43.2437V1.45405H49.4343ZM82.4731 34C82.1696 33.6055 81.9269 32.7406 81.7448 31.4054H81.6538C80.9861 32.4068 80.1365 33.1807 79.1047 33.7269C78.0729 34.2731 76.6315 34.5462 74.7804 34.5462C72.3224 34.5462 70.3499 33.9241 68.863 32.68C67.376 31.4358 66.6326 29.6757 66.6326 27.3998C66.6326 25.0328 67.4519 23.3031 69.0906 22.2106C70.7292 21.0878 73.0355 20.314 76.0094 19.8892C78.1943 19.5857 79.6813 19.2823 80.4703 18.9788C81.2593 18.645 81.6538 18.0684 81.6538 17.2491C81.6538 16.3994 81.32 15.7318 80.6523 15.2462C79.9847 14.7304 79.0137 14.4724 77.7391 14.4724C74.917 14.4724 73.4149 15.5649 73.2328 17.7498H67.725C67.816 15.5345 68.7112 13.6986 70.4106 12.242C72.11 10.7854 74.568 10.0571 77.7847 10.0571C84.3394 10.0571 87.6167 12.9248 87.6167 18.6602V30.5406C87.6167 32.3006 87.8898 33.3779 88.4361 33.7724V34H82.4731ZM76.2825 30.2219C77.9819 30.2219 79.3171 29.7819 80.2882 28.9019C81.2896 28.0219 81.7903 26.9749 81.7903 25.7611V22.2561C81.1227 22.6506 79.6813 23.1058 77.466 23.6217C75.706 24.0162 74.4618 24.4714 73.7335 24.9873C73.0052 25.4728 72.641 26.2315 72.641 27.2632C72.641 29.2357 73.8549 30.2219 76.2825 30.2219ZM89.2871 14.7455V10.6488H92.5189V3.36584H98.5729V10.6488H102.579V14.7455H98.5729V27.1267C98.5729 28.6743 99.3467 29.4481 100.894 29.4481L102.715 29.4026V33.9545C101.774 34.0152 100.485 34.0455 98.846 34.0455C97.0556 34.0455 95.5535 33.6207 94.3396 32.771C93.1258 31.891 92.5189 30.4495 92.5189 28.4467V14.7455H89.2871Z" fill="#FDFDFD"/>
<path d="M107.669 34.5318V1.98584H116.955L121.552 18.3271C121.886 19.5409 122.22 20.8913 122.553 22.3783C122.918 23.8349 123.191 24.988 123.373 25.8377L123.6 27.1122H123.691C124.268 23.9866 124.936 21.0582 125.694 18.3271L130.292 1.98584H139.714V34.5318H133.569V15.8691L133.842 9.13229H133.751C133.266 11.6813 132.795 13.7449 132.34 15.3228L126.741 34.5318H120.414L114.952 15.3228L113.541 9.13229H113.45C113.632 11.8634 113.723 14.109 113.723 15.8691V34.5318H107.669Z" fill="#FDFDFD"/>
<path d="M175.522 11.1806V14.367H175.659C177.267 11.8179 179.574 10.5434 182.578 10.5434C184.975 10.5434 186.917 11.3627 188.404 13.0014C189.891 14.6097 190.635 16.7036 190.635 19.283V34.5318H184.444V20.1934C184.444 18.9188 184.08 17.8871 183.352 17.0981C182.654 16.3091 181.667 15.9146 180.393 15.9146C179.027 15.9146 177.889 16.4153 176.979 17.4167C176.099 18.4181 175.659 19.7078 175.659 21.2858V34.5318H169.468V11.1806H175.522Z" fill="#FDFDFD"/>
<path d="M204.965 35.2146C201.202 35.2146 198.244 34.0614 196.089 31.7551C193.935 29.4185 192.857 26.4446 192.857 22.8335C192.857 19.3437 193.935 16.4305 196.089 14.0938C198.244 11.7269 201.005 10.5434 204.374 10.5434C208.045 10.5434 210.883 11.8179 212.886 14.367C214.888 16.916 215.89 20.3299 215.89 24.6087H198.957C199.2 26.4598 199.822 27.9012 200.823 28.933C201.824 29.9344 203.19 30.4351 204.92 30.4351C207.196 30.4351 208.698 29.4792 209.426 27.5674H215.526C215.07 29.7523 213.917 31.5731 212.066 33.0297C210.215 34.4863 207.848 35.2146 204.965 35.2146ZM204.465 15.3228C201.46 15.3228 199.655 16.9919 199.048 20.3299H209.426C209.335 18.843 208.834 17.6443 207.924 16.7339C207.014 15.7932 205.86 15.3228 204.465 15.3228Z" fill="#FDFDFD"/>
<path d="M218.134 42.1789V37.3084H220.319C222.625 37.3084 223.778 36.2463 223.778 34.1221C223.778 33.0904 223.186 30.9813 222.003 27.795L215.721 11.1806H222.23L225.69 21.6955L227.192 26.7936H227.283C227.708 24.8211 228.163 23.1217 228.649 21.6955L231.926 11.1806H238.162L230.014 35.1235C229.104 37.794 228.072 39.6299 226.919 40.6313C225.796 41.6631 224.081 42.1789 221.775 42.1789H218.134Z" fill="#FDFDFD"/>
<path fill-rule="evenodd" clip-rule="evenodd" d="M143.028 20.897C143.442 18.4349 144.515 16.3151 146.246 14.5378C148.522 12.1708 151.451 10.9873 155.032 10.9873C158.612 10.9873 161.541 12.1708 163.817 14.5378C166.093 16.8744 167.231 19.8028 167.231 23.3229C167.231 26.0247 166.56 28.3868 165.22 30.4093C166.1 36.4563 171.819 41.9528 174.698 44.0225C171.037 43.6664 164.2 40.7736 158.53 38.0581C158.53 38.0337 158.531 38.0092 158.531 37.9847C158.531 35.384 156.422 33.2758 153.822 33.2758C152.427 33.2758 151.174 33.8821 150.312 34.8455C148.781 34.2622 147.426 33.3648 146.246 32.1536C143.971 29.7866 142.833 26.843 142.833 23.3229C142.833 23.2152 142.834 23.108 142.836 23.0014C142.834 22.9209 142.833 22.8402 142.833 22.7592C142.833 22.1232 142.9 21.5008 143.028 20.897ZM151.625 32.0888C151.625 30.3435 151.795 29.0951 152.134 28.3436C152.498 27.5921 153.164 26.8164 154.134 26.0164C154.425 25.7498 154.946 25.3619 155.698 24.8529C156.449 24.3438 156.982 23.8711 157.298 23.4348C157.637 22.9984 157.807 22.4409 157.807 21.7621C157.807 20.9379 157.516 20.2834 156.934 19.7986C156.352 19.2895 155.613 19.035 154.716 19.035C153.601 19.035 152.704 19.3744 152.025 20.0531C151.371 20.7076 151.043 21.6167 151.043 22.7802H145.189C145.238 20.1622 146.135 18.0653 147.88 16.4897C149.625 14.914 151.989 14.1262 154.97 14.1262C157.685 14.1262 159.867 14.817 161.516 16.1988C163.188 17.5563 164.025 19.338 164.025 21.5439C164.025 22.6106 163.831 23.556 163.443 24.3802C163.055 25.2044 162.655 25.8104 162.243 26.1982C161.831 26.5861 161.285 26.9982 160.607 27.4345C160.388 27.58 160.11 27.7618 159.77 27.98C159.431 28.1739 159.176 28.3315 159.007 28.4527L158.461 28.8163C158.243 28.9617 158.061 29.0951 157.916 29.2163C157.795 29.3375 157.673 29.4708 157.552 29.6162C157.092 30.198 156.861 31.0222 156.861 32.0888H151.625Z" fill="url(#paint0_linear_686_10651)"/>
<defs>
<linearGradient id="paint0_linear_686_10651" x1="158.765" y1="10.9873" x2="158.765" y2="93.5754" gradientUnits="userSpaceOnUse">
<stop stop-color="#E4BC6D"/>
<stop offset="1" stop-color="#E4BC6D" stop-opacity="0.22"/>
</linearGradient>
</defs>
</svg>
