<svg width="22" height="19" viewBox="0 0 22 19" fill="none" xmlns="http://www.w3.org/2000/svg">
<path d="M10.6091 0C7.7954 1.86305e-05 5.09694 0.931022 3.10735 2.58821C1.11777 4.24541 1.9062e-05 6.49304 0 8.83666C0.00256413 10.3611 0.478537 11.859 1.38166 13.1849C2.28479 14.5108 3.58435 15.6195 5.15404 16.4033C4.73597 17.3393 4.10896 18.2169 3.29896 19C4.86974 18.7243 6.34427 18.145 7.60777 17.3073C8.582 17.5484 9.59277 17.6717 10.6091 17.6733C13.4228 17.6733 16.1213 16.7423 18.1108 15.0851C20.1004 13.4279 21.2182 11.1803 21.2182 8.83666C21.2182 6.49304 20.1004 4.24541 18.1108 2.58821C16.1213 0.931022 13.4228 1.85437e-05 10.6091 0Z" fill="url(#paint0_linear_2815_116)"/>
<defs>
<linearGradient id="paint0_linear_2815_116" x1="10.6091" y1="0" x2="10.6091" y2="47.5" gradientUnits="userSpaceOnUse">
<stop stop-color="#E4BC6D"/>
<stop offset="1" stop-color="#E4BC6D" stop-opacity="0.22"/>
</linearGradient>
</defs>
</svg>
