<svg width="20" height="21" viewBox="0 0 20 21" fill="none" xmlns="http://www.w3.org/2000/svg">
<path d="M1.33359 8.50392C3.56939 13.3734 7.54772 17.245 12.4938 19.3439L13.2867 19.6971C15.1007 20.5054 17.233 19.8914 18.3394 18.2423L19.3755 16.698C19.7124 16.1958 19.6099 15.5195 19.1393 15.1399L15.6254 12.3051C15.1094 11.8887 14.3504 11.9858 13.9555 12.5185L12.8685 13.9854C10.0793 12.6094 7.81466 10.3449 6.43881 7.5556L7.90554 6.46859C8.43836 6.07377 8.53531 5.31483 8.11892 4.79872L5.28413 1.28479C4.90456 0.814296 4.22847 0.711664 3.72638 1.04833L2.1714 2.09098C0.511999 3.20363 -0.098611 5.35362 0.728241 7.1724L1.33268 8.50195L1.33359 8.50392Z" fill="#0C0B0A"/>
</svg>
