<svg width="983" height="981" fill="none" xmlns="http://www.w3.org/2000/svg"><path opacity=".4" d="M638.745 665.747c83.591-34.839 111.02-185.748 59.885-290.555-38.93-79.793-133.734-46.116-176.022-103.229-42.287-57.112-218.738 40.241-242.787 111.581-17.55 52.062 68.518 116.244 14.08 172.52-54.438 56.276 82.914 170.136 178.164 176.483 95.251 6.347 73.708-28.05 166.68-66.8z" stroke="url(#paint0_linear_2920_152)"/><path opacity=".5" d="M737.587 578.301c63.175-82.652-3.681-245.745-115.037-320.806-84.779-57.147-138.211 8.626-222.973 3.339-81.675-5.094-194.676 165.555-177.5 250.408 12.534 61.923 130.571 68.338 108.792 155.619-21.778 87.28 174.958 91.722 273.491 43.406 98.534-48.316 62.962-40.039 133.227-131.966z" stroke="url(#paint1_linear_2920_152)"/><path opacity=".2" d="M684.436 559.803c48.983-64.123 2.893-192.804-83.281-250.91-65.608-44.239-123.763 23.981-181.853-1.258-58.089-25.24-150.875 128.491-137.639 194.259 9.659 47.996 104.687 59.19 87.756 126.87-16.93 67.68 139.817 94.368 216.155 56.838 76.337-37.531 44.382-54.481 98.862-125.799z" stroke="url(#paint2_linear_2920_152)"/><defs><linearGradient id="paint0_linear_2920_152" x1="696.093" y1="370.242" x2="284.519" y2="607.865" gradientUnits="userSpaceOnUse"><stop stop-color="#F0C6AC"/><stop offset="1" stop-color="#AB836A"/></linearGradient><linearGradient id="paint1_linear_2920_152" x1="624.341" y1="251.067" x2="351.386" y2="723.84" gradientUnits="userSpaceOnUse"><stop stop-color="#F0C6AC"/><stop offset="1" stop-color="#AB836A"/></linearGradient><linearGradient id="paint2_linear_2920_152" x1="596.991" y1="306.203" x2="385.266" y2="672.92" gradientUnits="userSpaceOnUse"><stop stop-color="#F0C6AC"/><stop offset="1" stop-color="#AB836A"/></linearGradient></defs></svg>