<svg width="983" height="981" fill="none" xmlns="http://www.w3.org/2000/svg"><path opacity=".4" d="M412.793 705.636c71.968 54.972 216.373 3.271 281.571-93.416 49.637-73.611-26.929-138.875 1.388-204.054 28.317-65.178-144.219-169.313-218.026-154.469-53.861 10.832-66.411 117.46-142.367 98.453-75.955-19.006-105.885 156.874-63.756 242.536 42.129 85.663 61.146 49.808 141.19 110.95z" stroke="url(#paint0_linear_2920_160)"/><path opacity=".5" d="M537.946 747.511c103.166 13.385 210.981-126.06 220.308-260.028 7.1-101.994-76.576-115.381-114.379-191.431-36.426-73.28-240.712-85.817-305.609-28.516-47.361 41.817 6.103 147.247-80.374 172.027-86.477 24.779 8.045 197.378 99.155 258.553 91.109 61.175 66.155 34.507 180.899 49.395z" stroke="url(#paint1_linear_2920_160)"/><path opacity=".2" d="M527.387 692.231c80.023 10.36 168.419-93.896 175.654-197.578 5.507-78.937-82.65-95.191-89.837-158.118-7.187-62.927-186.714-66.417-237.053-22.07-36.737 32.364 1.083 120.257-65.995 139.435-67.078 19.178-11.817 168.268 58.855 215.614 70.671 47.345 69.372 11.195 158.376 22.717z" stroke="url(#paint2_linear_2920_160)"/><defs><linearGradient id="paint0_linear_2920_160" x1="697.382" y1="607.548" x2="285.808" y2="369.926" gradientUnits="userSpaceOnUse"><stop stop-color="#F0C6AC"/><stop offset="1" stop-color="#AB836A"/></linearGradient><linearGradient id="paint1_linear_2920_160" x1="764.715" y1="485.82" x2="218.805" y2="485.82" gradientUnits="userSpaceOnUse"><stop stop-color="#F0C6AC"/><stop offset="1" stop-color="#AB836A"/></linearGradient><linearGradient id="paint2_linear_2920_160" x1="703.288" y1="489.702" x2="279.84" y2="489.702" gradientUnits="userSpaceOnUse"><stop stop-color="#F0C6AC"/><stop offset="1" stop-color="#AB836A"/></linearGradient></defs></svg>