<svg width="715" height="722" fill="none" xmlns="http://www.w3.org/2000/svg"><path opacity=".4" d="M131.549 400.705c-11.624 89.812 105.353 189.02 221.685 197.14 88.568 6.181 106.805-92.759 177.41-100.825 70.605-8.066 74.52-209.554 24.762-266.051-36.312-41.229-134.929 1.216-156.447-74.067-21.517-75.282-188.799-13.262-241.92 66.054-53.122 79.316-12.562 77.858-25.49 177.749z" stroke="url(#paint0_linear_2920_168)"/><path opacity=".5" d="M157.86 530.027c39.991 96.037 214.661 119.684 335.344 60.778 91.881-44.848 61.636-124.007 108.595-194.77 45.249-68.186-46.037-251.372-128.109-278.924-59.895-20.107-124.468 78.909-189.166 16.408-64.698-62.501-166.913 105.656-174.337 215.147-7.424 109.49 3.194 74.546 47.673 181.361z" stroke="url(#paint1_linear_2920_168)"/><path opacity=".2" d="M200.452 493.243c31.04 74.482 165.526 98.907 258.935 53.331 71.115-34.698 41.113-119.171 92.016-156.859 50.903-37.688-35.839-194.908-99.414-216.329-46.396-15.633-103.604 61.066-153.751 12.564-50.148-48.502-151.634 73.901-157.3 158.777-5.666 84.875 24.99 65.676 59.514 148.516z" stroke="url(#paint2_linear_2920_168)"/><defs><linearGradient id="paint0_linear_2920_168" x1="358.79" y1="598.123" x2="358.79" y2="122.877" gradientUnits="userSpaceOnUse"><stop stop-color="#F0C6AC"/><stop offset="1" stop-color="#AB836A"/></linearGradient><linearGradient id="paint1_linear_2920_168" x1="497.875" y1="595.569" x2="224.92" y2="122.797" gradientUnits="userSpaceOnUse"><stop stop-color="#F0C6AC"/><stop offset="1" stop-color="#AB836A"/></linearGradient><linearGradient id="paint2_linear_2920_168" x1="463.798" y1="544.313" x2="252.074" y2="177.596" gradientUnits="userSpaceOnUse"><stop stop-color="#F0C6AC"/><stop offset="1" stop-color="#AB836A"/></linearGradient></defs></svg>