<svg width="981" height="983" fill="none" xmlns="http://www.w3.org/2000/svg"><path opacity=".4" d="M314.274 638.746c34.839 83.591 185.748 111.02 290.555 59.886 79.793-38.931 46.116-133.735 103.229-176.022 57.112-42.288-40.241-218.739-111.581-242.788-52.062-17.55-116.244 68.518-172.52 14.08-56.277-54.438-170.136 82.914-176.483 178.164-6.347 95.251 28.05 73.708 66.8 166.68z" stroke="url(#paint0_linear_2920_164)"/><path opacity=".5" d="M401.724 737.586c82.652 63.176 245.745-3.681 320.806-115.037 57.147-84.779-8.626-138.21-3.339-222.972 5.094-81.676-165.555-194.676-250.408-177.501-61.924 12.534-68.338 130.571-155.619 108.793-87.281-21.779-91.722 174.957-43.406 273.491 48.316 98.533 40.039 62.961 131.966 133.226z" stroke="url(#paint1_linear_2920_164)"/><path opacity=".2" d="M420.22 684.435c64.122 48.983 192.804 2.893 250.91-83.281 44.239-65.608-23.981-123.762 1.258-181.852 25.24-58.09-128.491-150.876-194.259-137.64-47.996 9.66-59.19 104.687-126.87 87.757-67.68-16.931-94.368 139.816-56.838 216.154 37.531 76.338 54.481 44.382 125.799 98.862z" stroke="url(#paint2_linear_2920_164)"/><defs><linearGradient id="paint0_linear_2920_164" x1="609.779" y1="696.095" x2="372.156" y2="284.52" gradientUnits="userSpaceOnUse"><stop stop-color="#F0C6AC"/><stop offset="1" stop-color="#AB836A"/></linearGradient><linearGradient id="paint1_linear_2920_164" x1="728.957" y1="624.34" x2="256.185" y2="351.385" gradientUnits="userSpaceOnUse"><stop stop-color="#F0C6AC"/><stop offset="1" stop-color="#AB836A"/></linearGradient><linearGradient id="paint2_linear_2920_164" x1="673.82" y1="596.99" x2="307.103" y2="385.266" gradientUnits="userSpaceOnUse"><stop stop-color="#F0C6AC"/><stop offset="1" stop-color="#AB836A"/></linearGradient></defs></svg>