<svg width="722" height="715" fill="none" xmlns="http://www.w3.org/2000/svg"><path opacity=".4" d="M400.706 583.451c89.812 11.624 189.021-105.353 197.14-221.685 6.182-88.568-92.759-106.805-100.825-177.41-8.066-70.605-209.554-74.52-266.05-24.762-41.23 36.312 1.216 134.929-74.067 156.447-75.283 21.517-13.262 188.799 66.053 241.92 79.316 53.122 77.859 12.562 177.749 25.49z" stroke="url(#paint0_linear_2920_156)"/><path opacity=".5" d="M530.026 557.14c96.037-39.991 119.685-214.661 60.778-335.344-44.848-91.881-124.007-61.636-194.77-108.595-68.186-45.25-251.371 46.037-278.923 128.109-20.107 59.895 78.909 124.468 16.407 189.166-62.5 64.698 105.657 166.913 215.147 174.337 109.491 7.424 74.546-3.194 181.361-47.673z" stroke="url(#paint1_linear_2920_156)"/><path opacity=".2" d="M493.243 514.544c74.482-31.04 98.907-165.526 53.331-258.935-34.698-71.115-119.172-41.113-156.859-92.016-37.688-50.903-194.908 35.839-216.33 99.414-15.632 46.396 61.067 103.604 12.565 153.751-48.502 50.148 73.9 151.634 158.776 157.3 84.876 5.666 65.676-24.99 148.517-59.514z" stroke="url(#paint2_linear_2920_156)"/><defs><linearGradient id="paint0_linear_2920_156" x1="598.124" y1="356.21" x2="122.879" y2="356.21" gradientUnits="userSpaceOnUse"><stop stop-color="#F0C6AC"/><stop offset="1" stop-color="#AB836A"/></linearGradient><linearGradient id="paint1_linear_2920_156" x1="595.569" y1="217.125" x2="122.796" y2="490.08" gradientUnits="userSpaceOnUse"><stop stop-color="#F0C6AC"/><stop offset="1" stop-color="#AB836A"/></linearGradient><linearGradient id="paint2_linear_2920_156" x1="544.313" y1="251.198" x2="177.596" y2="462.922" gradientUnits="userSpaceOnUse"><stop stop-color="#F0C6AC"/><stop offset="1" stop-color="#AB836A"/></linearGradient></defs></svg>