<svg width="981" height="983" fill="none" xmlns="http://www.w3.org/2000/svg"><g opacity=".2"><path opacity=".4" d="M705.634 569.657c54.972-71.967 3.272-216.373-93.415-281.571-73.612-49.637-138.876 26.93-204.054-1.387-65.179-28.317-169.314 144.218-154.47 218.025 10.832 53.862 117.46 66.412 98.453 142.367-19.006 75.956 156.874 105.885 242.537 63.756 85.662-42.128 49.808-61.146 110.949-141.19z" stroke="url(#paint0_linear_2920_148)"/><path opacity=".5" d="M747.511 444.506c13.386-103.166-126.06-210.98-260.028-220.307-101.994-7.101-115.381 76.575-191.43 114.378-73.28 36.426-85.817 240.712-28.516 305.61 41.816 47.36 147.246-6.104 172.026 80.373s197.379-8.045 258.553-99.154c61.175-91.11 34.507-66.156 49.395-180.9z" stroke="url(#paint1_linear_2920_148)"/><path opacity=".2" d="M692.232 455.064c10.359-80.024-93.897-168.42-197.579-175.654-78.937-5.508-95.191 82.649-158.118 89.836-62.927 7.187-66.417 186.715-22.069 237.054 32.363 36.736 120.256-1.084 139.434 65.994 19.178 67.078 168.269 11.817 215.614-58.854 47.345-70.672 11.196-69.373 22.718-158.376z" stroke="url(#paint2_linear_2920_148)"/></g><defs><linearGradient id="paint0_linear_2920_148" x1="607.547" y1="285.068" x2="369.924" y2="696.643" gradientUnits="userSpaceOnUse"><stop stop-color="#F0C6AC"/><stop offset="1" stop-color="#AB836A"/></linearGradient><linearGradient id="paint1_linear_2920_148" x1="485.82" y1="217.737" x2="485.82" y2="763.647" gradientUnits="userSpaceOnUse"><stop stop-color="#F0C6AC"/><stop offset="1" stop-color="#AB836A"/></linearGradient><linearGradient id="paint2_linear_2920_148" x1="489.702" y1="279.162" x2="489.702" y2="702.611" gradientUnits="userSpaceOnUse"><stop stop-color="#F0C6AC"/><stop offset="1" stop-color="#AB836A"/></linearGradient></defs></svg>