<svg width="318" height="252" fill="none" xmlns="http://www.w3.org/2000/svg"><g opacity=".6" fill="#7D9BD4"><path d="M31.878 60.82c-.269-.468-.096-1.087.386-1.382.481-.295 1.09-.155 1.358.313l-1.744 1.069zm147.469 84.462l-.317-.931.317.931zm-5.441 9.116l.83-.601-.83.601zm110.184 30.38a.94.94 0 01.855 1.08 1.065 1.065 0 01-1.124.917l.269-1.997zM33.622 59.751c3.007 5.237 10.742 14.275 21.455 24.646 10.688 10.347 24.27 21.955 38.9 32.332 14.638 10.382 30.292 19.508 45.128 24.92 14.864 5.423 28.741 7.058 39.925 2.702l.634 1.862c-11.871 4.624-26.307 2.805-41.329-2.676-15.051-5.491-30.857-14.718-45.567-25.151-14.716-10.437-28.37-22.106-39.117-32.512C42.926 75.492 35.025 66.301 31.878 60.82l1.744-1.07zm145.408 84.6c7.139-2.781 11.626-5.634 14.179-8.318 2.521-2.65 3.116-5.077 2.638-7.181-.494-2.177-2.186-4.237-4.712-5.939-2.51-1.691-5.741-2.956-9.104-3.587-3.365-.632-6.797-.617-9.711.186-2.904.8-5.229 2.36-6.561 4.786-1.338 2.437-1.779 5.94-.518 10.817 1.261 4.878 4.205 11.038 9.495 18.682l-1.66 1.202c-5.359-7.743-8.431-14.109-9.77-19.284-1.338-5.176-.962-9.253.716-12.31 1.684-3.067 4.574-4.915 7.867-5.823 3.284-.905 7.032-.898 10.611-.226 3.582.673 7.06 2.024 9.808 3.875 2.732 1.841 4.845 4.248 5.487 7.077.659 2.902-.279 6.019-3.177 9.066-2.866 3.013-7.684 6.007-14.954 8.839l-.634-1.862zm-4.294 9.446c16.839 24.329 39.017 31.668 59.542 33.138 10.281.736 20.145-.002 28.732-.828 8.524-.821 15.927-1.749 21.08-1.329l-.269 1.997c-4.922-.402-12.053.491-20.727 1.326-8.611.829-18.611 1.581-29.064.832-20.942-1.499-43.714-9.026-60.954-33.934l1.66-1.202z"/><path d="M272.813 177.258a.982.982 0 01.025-1.404 1.02 1.02 0 011.424.05l-1.449 1.354zm-2.689 18.756c-.485.26-1.099.08-1.372-.402a.973.973 0 01.383-1.345l.989 1.747zm4.138-20.11c1.269 1.318 3.322 3.324 5.345 5.047 1.013.863 2.001 1.641 2.869 2.224.906.608 1.558.919 1.926.986l-.332 1.952c-.824-.15-1.785-.684-2.707-1.303-.96-.645-2.015-1.478-3.057-2.366-2.087-1.779-4.19-3.833-5.493-5.186l1.449-1.354zm10.14 8.257c.248.045.685.172.964.587.307.457.21.928.108 1.186-.101.26-.269.487-.424.667a6.272 6.272 0 01-.583.581c-.863.768-2.272 1.745-3.883 2.773-3.247 2.071-7.519 4.477-10.46 6.059l-.989-1.747c2.922-1.572 7.146-3.951 10.333-5.985 1.606-1.024 2.898-1.929 3.635-2.585.18-.16.312-.293.4-.396.098-.114.105-.147.091-.111a.708.708 0 00.099.634c.183.272.427.298.377.289l.332-1.952z"/></g></svg>