<svg width="219" height="24" fill="none" xmlns="http://www.w3.org/2000/svg"><g opacity=".9" fill="#B9B8B6"><g clip-path="url(#clip0_848_1320)"><path d="M187.629 7.328l.001.007a.173.173 0 00.005.023l.002.007a.216.216 0 00.022.055l.001.001 6.391 11.134.003.006.008.013.007.009a.062.062 0 00.008.01l.008.009.007.007.01.01.008.006.01.008a.483.483 0 00.009.006l.01.006a.17.17 0 01.011.006l.009.004.013.006.009.003.013.004.009.002.014.003a.208.208 0 00.023.003h.013l.008.001 1.823-.014h.003c.008 0 .017 0 .025-.002h.006a.246.246 0 00.083-.03l.005-.002a.257.257 0 00.046-.036l.004-.005a.544.544 0 00.015-.018l.005-.006.016-.024 6.276-11.23a.249.249 0 00-.002-.246l-.923-1.595-.001-.002a.236.236 0 00-.037-.047l-.004-.004a.525.525 0 00-.018-.016l-.005-.004a.38.38 0 00-.024-.016.28.28 0 00-.029-.014.234.234 0 00-.092-.018h-.001l-12.666.095a.241.241 0 00-.208.124l-.899 1.61-.001.002a.146.146 0 00-.013.027l-.001.001a.233.233 0 00-.008.026l-.002.008a.163.163 0 00-.004.022l-.001.007a.254.254 0 00-.002.028v.001l.002.03zm13.809-1.245l.641 1.108-6.001 10.737-5.097-8.806 1.265-.01 3.604 6.226.001.002.009.013a.03.03 0 00.005.007l.008.011.007.008.008.008.009.01.008.005.011.01.007.004a.116.116 0 00.016.01l.006.004a.112.112 0 00.013.006.068.068 0 00.01.005l.011.004a.128.128 0 00.013.004l.009.002a.138.138 0 00.014.003l.009.002a.163.163 0 00.024.002.16.16 0 00.023 0 .243.243 0 00.069-.014l.012-.005.009-.004a.102.102 0 00.014-.007l.005-.003.002-.002a.117.117 0 00.014-.009l.006-.004.012-.01a.408.408 0 00.016-.015l.008-.008.007-.009.008-.01.005-.008.008-.013.002-.003 5.17-9.25zm-8.634 3.025l4.592-.034-2.265 4.053-2.327-4.019zm-3.895-3.176l12.109-.09-4.964 8.881-.641-1.107 3.509-6.279a.244.244 0 00-.212-.366l-1.598.012a.244.244 0 00-.24.247c.001.135.11.244.244.243l1.18-.009-.625 1.117-5.289.04h-.001l-1.683.013-.641-1.108 6.093-.046a.243.243 0 00.239-.247.243.243 0 00-.243-.243l-6.51.05h-.001l-1.35.01.624-1.118zm.591 1.599l6.162 10.645-1.265.01-6.11-10.646 1.213-.01zm-73.09-1.972h2.665v13.059h-2.665V5.558zm6.058 0h2.648l4.746 4.762 4.746-4.762h2.648v13.059h-2.648V9.227l-4.746 4.57-4.746-4.57v9.39h-2.648V5.56zm18.506 0h6.885c1.003 0 1.872.108 2.607.326.735.217 1.345.532 1.83.944.484.406.844.905 1.077 1.495.24.59.36 1.256.36 1.997 0 .697-.117 1.34-.351 1.93a4.049 4.049 0 01-1.078 1.538c-.479.428-1.086.766-1.821 1.01-.736.24-1.605.36-2.607.36l-4.253-.009v3.468h-2.649V5.558zm6.952 7.302c.501 0 .938-.058 1.312-.175.378-.123.693-.293.944-.51.256-.223.445-.49.568-.802.128-.318.192-.668.192-1.053 0-.774-.253-1.376-.76-1.804-.501-.435-1.253-.652-2.256-.652h-4.303v4.996h4.303zm8.706-7.302h6.643c1.002 0 1.871.106 2.606.317.736.206 1.345.507 1.83.903.484.395.844.877 1.078 1.445.239.568.359 1.212.359 1.93 0 .485-.058.947-.175 1.387a4.134 4.134 0 01-1.454 2.189 5.05 5.05 0 01-1.295.71l2.841 4.178h-3.242l-2.457-3.71h-.075l-4.011-.008v3.718h-2.648V5.558zm6.709 7.051c.501 0 .939-.058 1.312-.175a2.66 2.66 0 00.944-.493c.256-.212.446-.468.568-.769.128-.306.192-.646.192-1.019 0-.73-.25-1.292-.751-1.688-.502-.4-1.257-.601-2.265-.601h-4.061v4.745h4.061zm8.18-.56c0-.985.181-1.888.543-2.706a6.114 6.114 0 011.521-2.106c.657-.59 1.442-1.047 2.356-1.37.919-.323 1.936-.485 3.049-.485 1.109 0 2.123.162 3.042.485.919.323 1.704.78 2.356 1.37a6.07 6.07 0 011.529 2.106c.362.818.543 1.72.543 2.707 0 .991-.181 1.902-.543 2.732a6.218 6.218 0 01-1.529 2.13c-.652.596-1.437 1.062-2.356 1.396-.919.328-1.933.493-3.042.493-1.113 0-2.13-.165-3.049-.493-.914-.334-1.699-.8-2.356-1.396a6.264 6.264 0 01-1.521-2.13c-.362-.83-.543-1.74-.543-2.732zm2.649 0c0 .675.119 1.282.359 1.822.245.54.582 1.003 1.011 1.387a4.64 4.64 0 001.529.877 5.79 5.79 0 001.921.31c.691 0 1.329-.104 1.914-.31a4.54 4.54 0 001.529-.877 4.126 4.126 0 001.011-1.387c.245-.54.367-1.147.367-1.821 0-.674-.122-1.279-.367-1.813a3.891 3.891 0 00-1.011-1.354 4.405 4.405 0 00-1.529-.852 6.02 6.02 0 00-1.914-.293 6.09 6.09 0 00-1.921.293 4.497 4.497 0 00-1.529.852 3.891 3.891 0 00-1.011 1.354c-.24.534-.359 1.139-.359 1.813zm30.525 2.683c.474.267.953.51 1.437.727.49.211.997.392 1.521.543a12.48 12.48 0 001.646.334 13.85 13.85 0 001.847.117c.785 0 1.453-.05 2.005-.15.551-.106 1-.248 1.345-.427.351-.183.604-.4.76-.651a1.48 1.48 0 00.243-.82c0-.473-.198-.846-.594-1.119-.395-.278-1.005-.418-1.829-.418-.363 0-.744.026-1.145.076-.401.044-.808.094-1.22.15-.407.056-.81.109-1.211.159-.396.044-.769.067-1.12.067a6.264 6.264 0 01-1.688-.226 4.524 4.524 0 01-1.429-.677c-.412-.3-.74-.676-.986-1.128-.244-.45-.367-.977-.367-1.579 0-.356.047-.71.142-1.06.1-.352.256-.686.468-1.003.217-.324.495-.622.835-.894.34-.279.749-.519 1.229-.719a8.03 8.03 0 011.67-.468 12.04 12.04 0 012.165-.175c.584 0 1.172.033 1.762.1a16.811 16.811 0 013.343.693c.518.162 1 .343 1.445.543l-1.161 2.14c-.368-.162-.764-.31-1.187-.443-.423-.14-.866-.26-1.328-.36-.463-.1-.941-.178-1.437-.234a12.13 12.13 0 00-1.504-.092c-.73 0-1.331.053-1.805.16-.468.105-.841.241-1.12.409-.278.161-.473.345-.584.551-.106.2-.159.401-.159.602 0 .39.175.71.526.96.351.245.886.368 1.604.368.29 0 .621-.02.995-.058l1.186-.142c.418-.05.841-.095 1.27-.134.434-.045.855-.067 1.262-.067.768 0 1.448.086 2.038.259.596.173 1.095.42 1.496.744.401.317.705.704.911 1.161.206.451.309.958.309 1.52 0 .753-.176 1.424-.527 2.014-.345.585-.84 1.08-1.487 1.488-.64.4-1.415.707-2.323.918-.908.207-1.918.31-3.032.31-.736 0-1.454-.048-2.156-.142a16.228 16.228 0 01-2.022-.385 16.52 16.52 0 01-1.838-.61 14.06 14.06 0 01-1.613-.785l1.412-2.147z"/></g><path d="M.7 11.46c0-.787.139-1.556.417-2.307a6.726 6.726 0 011.254-2.071 5.845 5.845 0 011.998-1.49c.788-.375 1.684-.563 2.689-.563 1.187 0 2.21.26 3.07.781.872.521 1.52 1.2 1.944 2.035L10.146 9.17c-.218-.484-.502-.866-.854-1.144a2.996 2.996 0 00-1.126-.6 4.058 4.058 0 00-1.18-.182c-.63 0-1.182.128-1.654.382-.46.254-.848.587-1.163.999a4.39 4.39 0 00-.708 1.38 5.532 5.532 0 00-.218 1.527c0 .569.09 1.12.272 1.653.182.52.436.987.763 1.399.34.4.74.72 1.2.962.472.23.987.346 1.544.346.4 0 .805-.067 1.217-.2a3.45 3.45 0 001.144-.636c.351-.29.624-.666.818-1.126l2.053 1.18A3.818 3.818 0 0111 16.747a6.114 6.114 0 01-1.926 1.017 6.904 6.904 0 01-2.125.345c-.92 0-1.762-.188-2.525-.563a6.619 6.619 0 01-1.98-1.526 7.717 7.717 0 01-1.29-2.144A6.775 6.775 0 01.7 11.46zM13.935 18V5.102h5.704a3.68 3.68 0 011.635.363c.509.242.945.57 1.308.981.376.412.66.872.854 1.38.206.51.309 1.03.309 1.563 0 .545-.097 1.072-.29 1.58a3.806 3.806 0 01-.8 1.309 3.696 3.696 0 01-1.236.871L24.363 18H21.6l-2.652-4.324h-2.507V18h-2.507zm2.507-6.522h3.143c.315 0 .593-.09.835-.272.243-.194.436-.448.582-.763a2.49 2.49 0 00.218-1.054c0-.412-.085-.769-.255-1.072a2.065 2.065 0 00-.654-.745 1.407 1.407 0 00-.835-.272h-3.034v4.178zm18.53 4.324V18h-8.956V5.102h8.793V7.3h-6.286v3.106h5.432v2.035h-5.432v3.36h6.45zm5.461-10.7h2.544L47.718 18h-2.58l-1.199-3.216h-4.505L38.254 18h-2.58l4.76-12.898zm3.052 7.92L41.705 7.7l-1.853 5.322h3.633zM57.573 7.3h-4.124V18H50.96V7.3h-4.124V5.102h10.737V7.3zm10.557 8.502V18h-8.956V5.102h8.793V7.3H61.68v3.106h5.432v2.035H61.68v3.36h6.45zM70.085 18V5.102h4.687c1.404 0 2.58.29 3.524.872a5.398 5.398 0 012.125 2.325c.473.969.709 2.047.709 3.234 0 1.308-.26 2.446-.781 3.415a5.514 5.514 0 01-2.217 2.253c-.944.533-2.065.799-3.36.799h-4.687zm8.52-6.467c0-.836-.152-1.569-.454-2.198a3.415 3.415 0 00-1.308-1.49c-.57-.363-1.26-.545-2.071-.545h-2.18v8.502h2.18c.823 0 1.52-.182 2.089-.545a3.537 3.537 0 001.29-1.526c.302-.654.454-1.387.454-2.198zm19.24 3.143c0 .726-.189 1.338-.564 1.834-.375.485-.884.854-1.526 1.108-.63.255-1.32.382-2.071.382h-6.231V5.102h6.903c.606 0 1.127.163 1.563.49.448.315.787.727 1.017 1.236a3.53 3.53 0 01-.109 3.324 2.865 2.865 0 01-1.38 1.235c.738.218 1.32.612 1.743 1.181.436.57.654 1.272.654 2.107zm-2.526-.473c0-.327-.067-.617-.2-.872a1.508 1.508 0 00-.545-.617 1.269 1.269 0 00-.763-.237H89.96v3.397h3.724c.303 0 .575-.072.817-.218a1.72 1.72 0 00.6-.617 1.66 1.66 0 00.218-.836zm-5.36-6.958v3.252h3.343c.28 0 .533-.066.763-.2.23-.133.412-.32.546-.563.145-.242.218-.533.218-.872a1.75 1.75 0 00-.2-.854 1.351 1.351 0 00-.509-.563 1.275 1.275 0 00-.709-.2H89.96zm10.709-2.143l3.18 6.067 3.233-6.067h2.707l-4.687 8.393V18h-2.489v-4.542l-4.669-8.356h2.725z"/></g><defs><clipPath id="clip0_848_1320"><path fill="#fff" transform="translate(114.891 5)" d="M0 0h104.109v13.974H0z"/></clipPath></defs></svg>