<svg width="1440" height="317" fill="none" xmlns="http://www.w3.org/2000/svg"><path opacity=".43" d="M-24 125.799c27.1 0 56.175 2.256 82.89-1.251 27.609-3.625 57.664-20.546 72.751-38.124 19.542-22.77 30.039-58.301-3.748-77.75C103.201-5.537 73.985 4.47 63.3 24.359 49.945 49.217 49.41 72.503 49.41 98.77c0 50.721 62.734 92.451 115.077 117.125 65.797 31.015 140.568 44.683 216.597 53.056 105.762 11.648 213.198 10.011 319.769 10.011 63.837 0 127.807.807 191.574-2.002 103.845-4.575 207.222-14.838 310.952-20.772 48.88-2.797 97.79-5.06 146.82-5.59 39.32-.425 79.84-1.475 118.5 5.006 37.19 6.235 69.46 20.935 99.31 38.374 9.78 5.712 23.37 12.509 28.99 21.022" stroke="#7D9BD4" stroke-width="2.2" stroke-linecap="round"/></svg>