<svg width="9" height="15" viewBox="0 0 9 15" fill="none" xmlns="http://www.w3.org/2000/svg">
<path d="M1.99981 14.0292C1.76615 14.0297 1.53972 13.9483 1.35981 13.7992C1.25855 13.7153 1.17485 13.6122 1.11349 13.4958C1.05214 13.3795 1.01435 13.2522 1.00227 13.1212C0.990194 12.9902 1.00408 12.8582 1.04312 12.7326C1.08217 12.607 1.1456 12.4903 1.22981 12.3892L5.70981 7.02924L1.38981 1.65924C1.30674 1.55695 1.24471 1.43925 1.20728 1.31291C1.16985 1.18657 1.15775 1.05408 1.17169 0.923055C1.18563 0.792027 1.22533 0.665045 1.2885 0.549408C1.35168 0.433772 1.43708 0.33176 1.53981 0.249237C1.64327 0.158201 1.76444 0.0895333 1.8957 0.0475443C2.02696 0.00555526 2.16549 -0.00884844 2.30258 0.00523645C2.43967 0.0193213 2.57238 0.0615911 2.69236 0.129393C2.81234 0.197195 2.91701 0.289065 2.99981 0.399237L7.82981 6.39924C7.97689 6.57817 8.05729 6.80261 8.05729 7.03424C8.05729 7.26586 7.97689 7.49031 7.82981 7.66924L2.82981 13.6692C2.72949 13.7903 2.60206 13.8859 2.45785 13.9485C2.31364 14.011 2.15671 14.0387 1.99981 14.0292Z" fill="#C99E59"/>
</svg>
