<svg width="98" height="98" viewBox="0 0 98 98" fill="none" xmlns="http://www.w3.org/2000/svg">
<circle cx="60" cy="38" r="38" fill="#F0EBDF"/>
<path d="M19.8675 78.8204C19.2516 79.2404 18.6356 79.7443 18.0198 80.2481C18.384 81.5362 18.804 82.8239 19.2517 84.112C19.8395 83.6362 20.4278 83.1881 21.0156 82.7681L21.0714 82.74V82.7119C20.6237 81.4243 20.2314 80.1361 19.8676 78.8203L19.8675 78.8204ZM28.8277 81.2283C28.7719 80.9761 28.6875 80.7525 28.6318 80.5003C28.4358 79.8005 28.2399 79.1282 28.0716 78.4284C27.7355 77.0563 27.3994 75.6844 27.1477 74.3123C26.9799 73.5562 26.8397 72.8282 26.6996 72.1002C24.2381 58.3434 24.9662 44.2038 28.8277 30.7722L29.4436 28.6164C29.5561 28.1866 29.6123 27.7445 29.6114 27.3001C29.6044 25.757 28.8741 24.3058 27.638 23.3814C26.4019 22.4566 24.804 22.165 23.3212 22.5939C21.8386 23.0228 20.6428 24.1225 20.0916 25.5644L19.8956 26.0964C18.4593 29.9261 17.3082 33.8571 16.4513 37.8564L16.2835 38.6125C13.8193 50.0735 13.8193 61.9273 16.2835 73.3885L16.4513 74.1446C16.7311 75.4327 17.0391 76.7204 17.4033 78.0085C17.5711 78.7646 17.7952 79.4925 18.0192 80.2486C18.3835 81.5367 18.8035 82.8244 19.2511 84.1125C19.4471 84.7003 19.6711 85.3167 19.8952 85.9046L20.0072 86.2407L20.0911 86.4366H20.0916C20.4521 87.3746 21.0905 88.1808 21.9207 88.7471C22.7513 89.3134 23.7342 89.6129 24.7397 89.6063C26.0358 89.604 27.2779 89.0865 28.1921 88.1668C29.1062 87.2476 29.6166 86.0026 29.6115 84.7065C29.6124 84.2621 29.5561 83.8201 29.4436 83.3902L28.8277 81.2283ZM24.6525 87.4444C24.1013 87.4336 23.5655 87.2607 23.1122 86.9471C22.6589 86.633 22.3088 86.1924 22.1049 85.68L21.9089 85.148C21.8808 85.0359 21.825 84.9239 21.7969 84.8119C21.5447 84.1397 21.293 83.4398 21.0689 82.7399V82.7118C20.6208 81.4237 20.2289 80.136 19.8647 78.8197C19.6407 78.0918 19.4447 77.3638 19.2488 76.6077V76.5795C18.9966 75.6275 18.773 74.6473 18.5766 73.6953L18.4088 72.9111V72.912C16.0196 61.7638 16.0196 50.2368 18.4088 39.0876L18.5766 38.3034V38.3039C19.4063 34.4208 20.521 30.6042 21.9113 26.8852L22.1072 26.325L22.1077 26.3255C22.3191 25.8019 22.6833 25.3538 23.1525 25.0392C23.6218 24.7247 24.1744 24.5583 24.7398 24.5611C25.4626 24.5686 26.153 24.8611 26.6617 25.3748C27.1704 25.8886 27.4558 26.5823 27.4558 27.3051C27.4595 27.5526 27.4215 27.7987 27.3437 28.0331L26.7278 30.1889V30.1894C24.3254 38.5842 23.11 47.2738 23.1156 56.005C23.1184 61.7527 23.6434 67.4884 24.6835 73.141C24.8236 73.8971 24.9633 74.6532 25.1593 75.4087C25.4114 76.7808 25.7471 78.1528 26.1113 79.4967C26.2791 80.1965 26.4755 80.8968 26.6714 81.5967C26.6766 81.674 26.6958 81.7499 26.7277 81.8207L27.3436 83.9765V83.977C27.4214 84.2114 27.4594 84.4575 27.4557 84.705C27.4496 85.4404 27.1505 86.1435 26.6241 86.6573C26.0982 87.1716 25.3885 87.4547 24.6525 87.4435L24.6525 87.4444Z" fill="black"/>
<path d="M25.5904 84.1124C25.5904 84.711 25.1052 85.1961 24.5071 85.1961C23.9085 85.1961 23.4233 84.711 23.4233 84.1124C23.4233 83.5143 23.9085 83.0291 24.5071 83.0291C25.1052 83.0291 25.5904 83.5143 25.5904 84.1124Z" fill="black"/>
<path d="M25.7056 27.8209C25.7056 28.4195 25.2204 28.9047 24.6223 28.9047C24.0237 28.9047 23.5386 28.4195 23.5386 27.8209C23.5386 27.2228 24.0237 26.7377 24.6223 26.7377C25.2204 26.7377 25.7056 27.2228 25.7056 27.8209Z" fill="black"/>
<path d="M70.5195 46.4528C69.2919 44.8642 67.7221 43.5723 65.9271 42.6728C65.5704 42.475 65.1302 42.5078 64.8073 42.7567L40.4197 60.7327C39.9715 61.0547 39.86 61.6744 40.1679 62.1329C40.6986 62.9869 40.9531 63.9845 40.8959 64.9885C40.8279 65.9771 40.4675 66.9225 39.86 67.7049C36.8393 68.2581 33.8769 69.0924 31.0119 70.1969C29.54 70.7505 28.1004 71.3861 26.6998 72.1009C26.0276 72.4089 25.3559 72.7731 24.6837 73.1368C24.8238 73.8929 24.9635 74.6491 25.1595 75.4046H25.1599C25.8007 75.0029 26.4645 74.6382 27.1479 74.3129C27.5679 74.0888 27.9879 73.8647 28.4359 73.6688C29.5281 73.1368 30.6198 72.6047 31.7679 72.1566C34.6075 71.0756 37.5414 70.26 40.5316 69.7204L40.6436 69.6923V69.6928C40.7233 69.6797 40.7992 69.6511 40.8677 69.6084L40.9797 69.5803L69.4557 48.5803V48.5808C70.1682 49.7231 70.697 50.9704 71.0236 52.2769L41.932 73.7245V73.724C38.8664 74.2809 35.8585 75.1148 32.9438 76.2164C31.2797 76.8609 29.6531 77.5997 28.072 78.428C27.3984 78.7444 26.7441 79.0997 26.1117 79.4921C26.2795 80.1919 26.4759 80.8922 26.6719 81.5921C27.3159 81.2002 27.9599 80.836 28.6317 80.4999V80.5004C30.2785 79.6435 31.9701 78.8771 33.6998 78.2044C36.5638 77.1033 39.5269 76.2783 42.5479 75.7402H42.6036L72.8136 53.5918C73.1282 53.3476 73.2796 52.9473 73.2055 52.5559C72.8385 50.3275 71.915 48.2279 70.5205 46.4518L70.5195 46.4528ZM42.9675 65.4932C42.9905 65.3732 42.9998 65.2509 42.9956 65.129C43.0575 64.0152 42.8559 62.9024 42.4073 61.8811L51.0872 55.4972L65.5352 44.857H65.5357C66.5022 45.4261 67.3877 46.1231 68.1677 46.9289L42.9675 65.4932ZM21.0123 82.7684C20.4245 83.1884 19.8362 83.6365 19.2484 84.1123C18.3803 84.8121 17.5403 85.54 16.7284 86.2681C16.6445 86.3239 16.0562 86.884 15.9165 86.996V86.9965C15.4609 87.4282 14.8169 87.597 14.2085 87.4446C13.6127 87.2693 13.15 86.7987 12.9846 86.2001C12.8191 85.602 12.9752 84.9603 13.3966 84.5046C14.8329 82.9774 16.3769 81.5553 18.0166 80.2484C18.6326 79.7445 19.2485 79.2406 19.8644 78.8206C19.6403 78.0926 19.4444 77.3646 19.2484 76.6085L18.9962 76.7763L18.0723 77.4762C17.8483 77.644 17.6242 77.8404 17.4002 78.0082C16.3642 78.8201 15.356 79.6882 14.3763 80.6121L13.5081 81.3963C12.948 81.9283 12.416 82.4885 11.8562 83.0482C10.9164 84.0504 10.5723 85.4726 10.9515 86.7931C11.3303 88.1135 12.3761 89.1377 13.7045 89.4884C15.0095 89.816 16.3914 89.4575 17.3724 88.5364L17.4844 88.4243L18.3525 87.6401C18.8846 87.1643 19.4447 86.6881 20.0045 86.2399C20.5923 85.736 21.1805 85.2598 21.7683 84.8122H21.7965C21.5443 84.14 21.2926 83.4401 21.0685 82.7403L21.0123 82.7684Z" fill="black"/>
</svg>
