<svg width="98" height="98" viewBox="0 0 98 98" fill="none" xmlns="http://www.w3.org/2000/svg">
<circle cx="60" cy="38" r="38" fill="#F0EBDF"/>
<path d="M48.9457 89.6001H35.1589C34.4079 89.5978 33.6805 89.3362 33.1002 88.8595C32.5194 88.3832 32.1214 87.7209 31.9723 86.985C30.0294 77.2622 29.0493 67.371 29.0464 57.4566V53.8337C29.0478 52.3969 29.6192 51.0193 30.6345 50.003C31.6502 48.9868 33.0274 48.4149 34.4641 48.4125H49.6405C51.0773 48.4149 52.4544 48.9868 53.4702 50.003C54.4855 51.0193 55.057 52.3969 55.0583 53.8337V57.4566C55.0555 67.3725 54.0753 77.265 52.1323 86.9886C51.9828 87.7241 51.5844 88.3855 51.0041 88.8617C50.4233 89.3374 49.6967 89.5985 48.9458 89.6009L48.9457 89.6001ZM34.4641 50.5821C33.602 50.5826 32.7757 50.9253 32.1663 51.5351C31.5569 52.1445 31.2143 52.9709 31.2133 53.8329V57.4558C31.2143 67.2334 32.1794 76.9882 34.0948 86.5762C34.1984 87.082 34.6423 87.4452 35.1589 87.4471H48.9456H48.9452C49.4617 87.4452 49.9056 87.082 50.0092 86.5762C51.9246 76.9879 52.8897 67.2334 52.8907 57.4558V53.8329C52.8897 52.9708 52.5471 52.1445 51.9377 51.5351C51.3283 50.9253 50.5019 50.5826 49.64 50.5821H34.4641Z" fill="black"/>
<path d="M49.3321 50.2629L47.789 48.7198L53.1735 43.3353V43.3358C54.0187 42.4897 54.6116 41.4256 54.8859 40.2622C55.1606 39.0983 55.1058 37.8814 54.7275 36.7471L52.1096 28.9072H31.9952L29.3772 36.7583C28.999 37.8927 28.9441 39.1096 29.2188 40.2735C29.493 41.4369 30.086 42.5009 30.9312 43.3471L36.3157 48.7198L34.7726 50.2629L29.3999 44.8784C27.7916 43.2611 26.886 41.075 26.8799 38.794C26.8789 37.8687 27.0285 36.9495 27.3219 36.0724L30.433 26.7345H53.6734L56.7841 36.0724C57.0775 36.9494 57.227 37.8687 57.2261 38.794C57.22 41.075 56.3144 43.2613 54.7061 44.8784L49.3321 50.2629Z" fill="black"/>
<path d="M53.9736 27.8179H51.8065V24.5671H32.2957V27.8179H30.1287V24.5671C30.1291 23.9929 30.3579 23.4421 30.7638 23.0357C31.1702 22.6292 31.721 22.401 32.2957 22.4H51.8065C52.3812 22.401 52.932 22.6292 53.3385 23.0357C53.7444 23.4421 53.9732 23.9928 53.9736 24.5671V27.8179Z" fill="black"/>
<path d="M34.4641 23.4839H36.6312V27.8184H34.4641V23.4839Z" fill="black"/>
<path d="M38.8008 23.4839H40.9679V27.8184H38.8008V23.4839Z" fill="black"/>
<path d="M43.1353 23.4839H45.3023V27.8184H43.1353V23.4839Z" fill="black"/>
<path d="M47.4697 23.4839H49.6368V27.8184H47.4697V23.4839Z" fill="black"/>
<path d="M49.9766 43.5009H48.4925C47.8892 43.5009 47.4003 43.012 47.4003 42.4087V39.1552C47.4003 38.528 45.53 36.9966 42.0636 36.9966C38.5971 36.9966 36.7268 38.5281 36.7268 39.1552V42.4087C36.7249 43.0116 36.237 43.4995 35.6346 43.5009H34.128C31.5616 43.4883 29.1124 42.4237 27.3522 40.5553C26.9388 40.1161 26.9594 39.4247 27.3986 39.0113C27.8374 38.5974 28.5288 38.618 28.9427 39.0572C30.2819 40.4982 32.1611 41.3156 34.128 41.3143H34.5311L34.5316 39.1552C34.5316 36.7614 37.9056 34.8123 42.0522 34.8123C46.1993 34.8123 49.57 36.7722 49.57 39.1552V41.3138H49.9759L49.9764 41.3143C51.9438 41.3147 53.8235 40.4972 55.1645 39.0572C55.3632 38.8472 55.637 38.7244 55.9262 38.7164C56.2154 38.7084 56.4957 38.8153 56.7057 39.0141C57.1435 39.4275 57.1632 40.1175 56.7493 40.5553C54.9906 42.4242 52.5422 43.4892 49.9764 43.501L49.9766 43.5009Z" fill="black"/>
<path d="M48.8833 59.6061C48.6307 59.6066 48.386 59.5185 48.1919 59.3567L44.7982 56.579C44.0229 55.9457 43.0526 55.5993 42.0513 55.5993C41.05 55.5993 40.0797 55.9457 39.3043 56.579L35.9106 59.3596C35.6922 59.5734 35.3941 59.6854 35.0889 59.669C34.7833 59.6521 34.4992 59.5087 34.3047 59.2724C34.1106 59.0366 34.0239 58.7301 34.0666 58.4273C34.1087 58.1245 34.2761 57.853 34.5278 57.6796L37.9188 54.899H37.9183C39.0855 53.9483 40.5447 53.4294 42.0499 53.4294C43.5551 53.4294 45.0143 53.9483 46.1815 54.899L49.5752 57.6796H49.5748C49.9324 57.9716 50.0679 58.4573 49.9123 58.8922C49.7571 59.3272 49.3451 59.6174 48.8833 59.6174L48.8833 59.6061Z" fill="black"/>
<path d="M46.9068 63.3897C46.6743 62.5535 46.2182 61.7965 45.5877 61.1997C44.6394 60.2819 43.3714 59.7686 42.0514 59.7686C40.7314 59.7686 39.4635 60.2819 38.5152 61.1997C37.8847 61.7965 37.4286 62.5535 37.1961 63.3897C37.0269 63.8571 36.9416 64.3511 36.9444 64.8485V67.9619C36.9444 69.7867 37.9175 71.4723 39.4976 72.3849C41.0778 73.2971 43.025 73.2971 44.6051 72.3849C46.1852 71.4723 47.1583 69.7867 47.1583 67.9619V64.8485C47.1611 64.3511 47.0758 63.8571 46.9066 63.3897H46.9068ZM44.969 67.962C44.969 69.0045 44.4131 69.9678 43.5103 70.4886C42.6075 71.0098 41.4956 71.0098 40.5928 70.4886C39.69 69.9678 39.1341 69.0045 39.1341 67.962V64.8486C39.1266 64.3315 39.2729 63.8239 39.5541 63.3899C40.0735 62.5035 41.0241 61.9587 42.0516 61.9587C43.079 61.9587 44.0296 62.5034 44.549 63.3899C44.8303 63.8239 44.9765 64.3316 44.969 64.8486V67.962Z" fill="black"/>
<path d="M47.6522 77.6577H36.4518C36.1523 77.6727 35.8598 77.5644 35.6423 77.3577C35.4248 77.151 35.302 76.8641 35.302 76.5641C35.302 76.2641 35.4248 75.9772 35.6423 75.7705C35.8598 75.5643 36.1523 75.4555 36.4518 75.471H47.6522C48.2344 75.5001 48.6914 75.981 48.6914 76.5641C48.6914 77.1473 48.2344 77.6282 47.6522 77.6577Z" fill="black"/>
<path d="M38.6244 85.8597C38.6586 84.6578 39.3195 83.562 40.3663 82.9709C41.413 82.3798 42.6927 82.3798 43.7394 82.9709C44.7861 83.5619 45.447 84.6579 45.4813 85.8597V88.7299L47.6516 88.7294V85.8597C47.6516 83.8549 46.5819 82.0023 44.8456 81.0002C43.1098 79.9976 40.971 79.9976 39.2347 81.0002C37.4984 82.0024 36.4292 83.8549 36.4292 85.8597V88.7299H38.6131L38.6244 85.8597Z" fill="black"/>
</svg>
