<svg width="98" height="98" viewBox="0 0 98 98" fill="none" xmlns="http://www.w3.org/2000/svg">
<circle cx="60" cy="38" r="38" fill="#F0EBDF"/>
<path d="M43.1196 71.0945H12.7848C11.9059 71.1202 11.0537 70.7893 10.4228 70.1767C9.79182 69.564 9.43604 68.7217 9.43604 67.8423C9.43604 66.9629 9.79181 66.121 10.4228 65.5084C11.0537 64.8958 11.9058 64.5644 12.7848 64.5901H43.1196C43.999 64.5644 44.8508 64.8958 45.4817 65.5084C46.1127 66.1211 46.4689 66.9629 46.4689 67.8423C46.4689 68.7217 46.1127 69.5641 45.4817 70.1767C44.8508 70.7893 43.9991 71.1203 43.1196 71.0945ZM12.7848 66.7575C12.1867 66.7575 11.7016 67.2427 11.7016 67.8408C11.7016 68.4394 12.1867 68.9246 12.7848 68.9246H43.1196C43.7182 68.9246 44.2034 68.4394 44.2034 67.8408C44.2034 67.2427 43.7182 66.7575 43.1196 66.7575H12.7848Z" fill="black"/>
<path d="M37.7136 66.7648H16.0356C14.0969 66.7648 12.3058 65.7308 11.3364 64.0518C10.367 62.3732 10.367 60.3045 11.3364 58.6255C12.3058 56.9464 14.0969 55.9124 16.0356 55.9124H23.6237C23.9227 55.8974 24.2143 56.0052 24.4313 56.2115C24.6484 56.4177 24.7712 56.7037 24.7712 57.0027C24.7712 57.3023 24.6484 57.5882 24.4313 57.7944C24.2143 58.0007 23.9227 58.1085 23.6237 58.0935H16.0356C14.8764 58.0935 13.8048 58.7123 13.2254 59.7163C12.6456 60.7203 12.6456 61.9574 13.2254 62.9614C13.8048 63.9655 14.8764 64.5838 16.0356 64.5838H37.7136C39.6472 64.5838 41.4341 63.5521 42.4007 61.8777C43.3677 60.2033 43.3677 58.1399 42.4007 56.4655C41.4341 54.7906 39.6473 53.7589 37.7136 53.7589H30.1255C29.5222 53.7589 29.0333 53.27 29.0333 52.6671C29.0333 52.0639 29.5222 51.575 30.1255 51.575H37.7136C40.392 51.6265 42.846 53.0853 44.1707 55.414C45.4954 57.7427 45.4954 60.5974 44.1707 62.9262C42.846 65.255 40.3921 66.7137 37.7136 66.7648V66.7648Z" fill="black"/>
<path d="M17.119 58.0937C16.8298 58.0946 16.5519 57.9802 16.347 57.7759C16.1422 57.5715 16.0269 57.294 16.0269 57.0043V55.9402V55.9407C16.0306 53.9091 16.7745 51.9483 18.1189 50.4254C19.4633 48.9025 21.3167 47.9218 23.3323 47.6664C24.6575 47.5028 25.8135 46.6876 26.412 45.4938L28.7389 40.8372C28.881 40.5606 29.1332 40.3572 29.4336 40.2775C29.7369 40.1954 30.0608 40.2498 30.321 40.4256L32.435 41.8258C36.0879 44.244 38.4232 48.2101 38.766 52.578C38.8124 53.1789 38.3642 53.7049 37.7633 53.7536C37.1671 53.7869 36.6491 53.3458 36.5877 52.7514C36.2919 49.0516 34.3104 45.693 31.2144 43.646L30.1307 42.9264L28.3555 46.4795C27.4321 48.3264 25.6452 49.5877 23.5954 49.8395C22.1076 50.0256 20.7388 50.7479 19.7455 51.8711C18.7523 52.9943 18.2025 54.4413 18.2001 55.9408V57.0048V57.0044C18.2015 57.6034 17.7182 58.0905 17.1191 58.0937L17.119 58.0937Z" fill="black"/>
<path d="M38.7554 88.0565H17.165C15.68 88.0523 14.2321 87.5915 13.0179 86.736C11.8039 85.881 10.8818 84.6735 10.3774 83.2767L10.0024 81.7059C9.96492 81.418 9.94523 81.1284 9.94336 80.8377V71.5977C9.94336 71.0179 10.4135 70.5477 10.9934 70.5477H44.9234C45.5032 70.5477 45.9734 71.0179 45.9734 71.5977V80.8518C45.9729 81.1325 45.956 81.4133 45.9232 81.6918L45.551 83.2653H45.5505C45.0471 84.665 44.1246 85.8758 42.9086 86.7331C41.6927 87.59 40.2423 88.0521 38.7551 88.0563L38.7554 88.0565ZM10.9934 71.0933C10.7234 71.0952 10.5049 71.3136 10.5035 71.5836V80.8376V80.8372C10.5049 81.0945 10.5209 81.3519 10.5514 81.6073L10.9128 83.1167H10.9123C11.382 84.3983 12.2333 85.5054 13.3507 86.2888C14.4687 87.0721 15.7994 87.4944 17.1649 87.4986H38.7553C40.125 87.4935 41.46 87.0678 42.5793 86.2785C43.6992 85.4891 44.5485 84.3744 45.0131 83.0859L45.3716 81.5736C45.3988 81.3294 45.4138 81.0833 45.4162 80.8372V71.5972C45.4148 71.3263 45.1945 71.1074 44.9235 71.1074L10.9934 71.0933ZM37.9826 83.4389H17.9342C17.3543 83.4389 16.8842 82.9687 16.8842 82.3889V76.2286C16.8842 75.6487 17.3543 75.1786 17.9342 75.1786H37.9826C38.5629 75.1786 39.034 75.6483 39.0354 76.2286V82.3889C39.034 82.9692 38.5629 83.4389 37.9826 83.4389ZM17.9342 75.7275C17.6632 75.7289 17.4443 75.9492 17.4443 76.2201V82.3804C17.4443 82.6514 17.6632 82.8717 17.9342 82.8731H37.9826C38.2549 82.8731 38.4757 82.6523 38.4757 82.3804V76.2201C38.4757 75.9482 38.2549 75.7275 37.9826 75.7275H17.9342Z" fill="black"/>
<path d="M37.4914 81.8885H18.4258V76.7201H37.4914V81.8885ZM18.9862 81.3283L36.931 81.3288V77.2628H18.9862V81.3283Z" fill="black"/>
<path d="M45.6934 69.4145L44.1536 69.2715L11.7596 69.272L10.217 69.4149V69.4145C9.76696 69.5729 9.37742 69.8663 9.10133 70.2549C8.82523 70.6435 8.6757 71.108 8.67383 71.5848V80.8388V80.8383C8.67758 83.0883 9.57383 85.2446 11.1653 86.8346C12.7567 88.4246 14.9138 89.3185 17.1638 89.3199H38.7542C41.0028 89.3162 43.1586 88.4209 44.7481 86.8304C46.3381 85.2404 47.2325 83.0846 47.2354 80.8356V71.5956C47.2358 71.117 47.0877 70.6501 46.8111 70.2596C46.535 69.8687 46.1441 69.5734 45.6927 69.4144L45.6934 69.4145ZM45.6934 80.8383C45.6906 81.1069 45.6737 81.3755 45.6428 81.6422L45.2757 83.1821H45.2762C44.7929 84.526 43.9075 85.6885 42.7403 86.5111C41.5731 87.3342 40.1804 87.7768 38.7522 87.7795H17.1642C15.7354 87.7776 14.3427 87.3351 13.1751 86.5124C12.0075 85.6893 11.122 84.5263 10.6401 83.182L10.2731 81.6421C10.2408 81.3754 10.2239 81.1068 10.2229 80.8382V71.5982C10.2229 71.1731 10.5675 70.8285 10.9926 70.8285H44.9262C45.3514 70.8285 45.6964 71.1731 45.6964 71.5982L45.6934 80.8383Z" fill="black"/>
<path d="M38.7552 89.5996H17.1612C14.8381 89.5973 12.6111 88.6739 10.9686 87.0309C9.3257 85.3884 8.40218 83.1614 8.3999 80.8383V71.5983C8.40178 71.0635 8.56913 70.5422 8.87897 70.1062C9.18881 69.6698 9.62569 69.3403 10.1306 69.1626L11.738 69.0084H44.1524L45.7846 69.1655H45.7851C46.2885 69.3436 46.7249 69.6731 47.0338 70.1086C47.3432 70.5441 47.5105 71.0644 47.5124 71.5983V80.8523C47.5072 83.1726 46.5829 85.3963 44.9408 87.036C43.2992 88.6752 41.0745 89.5973 38.7542 89.5996L38.7552 89.5996ZM44.1257 69.5512H11.7605L10.2427 69.6942C9.86352 69.8433 9.53774 70.1034 9.30805 70.4405C9.07836 70.778 8.95508 71.1759 8.95508 71.5842V80.8383V80.8378C8.9579 83.0133 9.82368 85.0983 11.3622 86.6357C12.901 88.1731 14.9865 89.0376 17.162 89.0389H38.756C40.9305 89.0361 43.0155 88.1708 44.5526 86.6328C46.09 85.0949 46.955 83.0099 46.9573 80.8349V71.5949C46.9549 71.1819 46.8265 70.7797 46.5893 70.4413C46.3521 70.1033 46.0174 69.8455 45.6298 69.7021L44.1257 69.5512ZM38.7552 88.0564H17.1648C15.6798 88.0522 14.2319 87.5914 13.0177 86.736C11.8037 85.881 10.8816 84.6734 10.3773 83.2766L10.0023 81.7058C9.96476 81.418 9.94508 81.1283 9.9432 80.8377V71.5977C9.9432 71.0178 10.4134 70.5477 10.9932 70.5477H44.9232C45.503 70.5477 45.9732 71.0178 45.9732 71.5977V80.8517C45.9727 81.1325 45.9559 81.4133 45.923 81.6917L45.5509 83.2653H45.5504C45.0469 84.665 44.1244 85.8758 42.9085 86.733C41.6925 87.5899 40.2422 88.0521 38.7549 88.0563L38.7552 88.0564ZM10.9932 71.0932C10.7232 71.0951 10.5048 71.3136 10.5034 71.5836V80.8376V80.8371C10.5048 81.0945 10.5207 81.3518 10.5512 81.6073L10.9126 83.1166H10.9121C11.3818 84.3982 12.2331 85.5054 13.3505 86.2887C14.4685 87.072 15.7993 87.4944 17.1647 87.4986H38.7551C40.1248 87.4934 41.4598 87.0678 42.5792 86.2784C43.699 85.489 44.5484 84.3744 45.0129 83.0858L45.3715 81.5736C45.3987 81.3293 45.4137 81.0833 45.416 80.8372V71.5972C45.4146 71.3262 45.1943 71.1073 44.9234 71.1073L10.9932 71.0932Z" fill="black"/>
<path d="M37.9826 75.4396H17.9342C17.5086 75.441 17.1646 75.7865 17.1646 76.2121V82.3725C17.1646 82.7976 17.5091 83.1421 17.9342 83.1421H37.9826C38.1875 83.1431 38.3839 83.0625 38.5292 82.9176C38.674 82.7732 38.7556 82.5773 38.7556 82.3725V76.2121C38.7556 75.7856 38.4097 75.4396 37.9826 75.4396V75.4396ZM37.2125 81.5995H18.7049V76.9822H37.2125V81.5995Z" fill="black"/>
<path d="M37.9822 83.4401H17.9338C17.3539 83.4401 16.8838 82.9699 16.8838 82.3901V76.2297C16.8838 75.6499 17.3539 75.1797 17.9338 75.1797H37.9822C38.5625 75.1797 39.0336 75.6494 39.035 76.2297V82.3901C39.0336 82.9704 38.5625 83.4401 37.9822 83.4401ZM17.9338 75.7286C17.6629 75.73 17.4439 75.9503 17.4439 76.2213V82.3816C17.4439 82.6525 17.6629 82.8729 17.9338 82.8743H37.9822C38.2545 82.8743 38.4753 82.6535 38.4753 82.3816V76.2213C38.4753 75.9494 38.2545 75.7286 37.9822 75.7286H17.9338ZM37.4914 81.8885H18.4258V76.7201H37.4914V81.8885ZM18.9862 81.3283L36.931 81.3288V77.2628H18.9862V81.3283Z" fill="black"/>
<path d="M61.511 85.2652C60.0742 85.2634 58.6966 84.6915 57.6803 83.6752C56.6641 82.659 56.0927 81.2818 56.0903 79.8446H58.2574C58.2907 80.9837 58.9179 82.0224 59.9107 82.5825C60.903 83.1427 62.1161 83.1427 63.1089 82.5825C64.1012 82.0224 64.7284 80.9836 64.7617 79.8446H66.9207C66.9193 81.2799 66.3488 82.6562 65.3354 83.672C64.3215 84.6883 62.9462 85.261 61.5109 85.2652H61.511Z" fill="black"/>
<path d="M69.0961 89.5996H53.9221C53.0619 89.5959 52.2383 89.2518 51.6308 88.6429C51.0233 88.034 50.6811 87.209 50.6797 86.3489V78.7608H72.3577V86.3489C72.3563 87.2123 72.0118 88.0402 71.4 88.65C70.7883 89.2594 69.9591 89.6011 69.0957 89.5997L69.0961 89.5996ZM52.8397 80.9198V86.3405C52.8397 86.939 53.3248 87.4242 53.9229 87.4242H69.0969C69.696 87.4242 70.1816 86.9395 70.1835 86.3405V80.9198H52.8397Z" fill="black"/>
<path d="M72.2796 80.9201H50.7396L47.4214 30.0581V24.1921C47.4214 23.7168 47.6103 23.2612 47.9464 22.925C48.2825 22.5889 48.7381 22.4 49.2135 22.4H73.8087C74.2835 22.401 74.7391 22.5899 75.0753 22.9255C75.4109 23.2616 75.5998 23.7172 75.6007 24.1921V29.9882L72.2796 80.9201ZM52.7688 78.753H70.2492L73.4353 29.9154V24.5675H49.5877V29.9886L52.7688 78.753Z" fill="black"/>
<path d="M48.5039 28.9041H74.5163V31.0711H48.5039V28.9041Z" fill="black"/>
<path d="M51.7549 23.4834H53.922V29.9878H51.7549V23.4834Z" fill="black"/>
<path d="M56.0894 23.4834H58.2564V29.9878H56.0894V23.4834Z" fill="black"/>
<path d="M60.4272 23.4834H62.5943V29.9878H60.4272V23.4834Z" fill="black"/>
<path d="M64.7617 23.4834H66.9288V29.9878H64.7617V23.4834Z" fill="black"/>
<path d="M69.0962 23.4834H71.2633V29.9878H69.0962V23.4834Z" fill="black"/>
<path d="M51.7549 74.4269H71.2657V76.594H51.7549V74.4269Z" fill="black"/>
<path d="M61.511 51.3773C59.785 51.3745 58.1303 50.6873 56.9102 49.4661C55.6895 48.2455 55.0033 46.5903 55.001 44.8644C55.001 41.4875 60.1811 36.6378 60.7718 36.0973V36.0978C61.1904 35.7148 61.8321 35.7148 62.2502 36.0978C62.838 36.6382 68.021 41.4879 68.021 44.8649V44.8644C68.0186 46.5903 67.3324 48.2455 66.1123 49.4661C64.8916 50.6873 63.2374 51.3744 61.511 51.3773V51.3773ZM61.511 38.4125C59.5957 40.3165 57.1821 43.2537 57.1821 44.8526C57.1821 46.3991 58.0076 47.8283 59.3468 48.6017C60.686 49.3746 62.336 49.3746 63.6757 48.6017C65.0149 47.8282 65.8399 46.3991 65.8399 44.8526C65.8399 43.2537 63.4234 40.3194 61.511 38.4125Z" fill="black"/>
<path d="M67.9034 58.1861H55.1186C54.819 58.2016 54.5265 58.0928 54.309 57.8861C54.0915 57.6794 53.9683 57.393 53.9683 57.093C53.9683 56.793 54.0915 56.5061 54.309 56.2994C54.5265 56.0926 54.819 55.9844 55.1186 55.9994H67.9034C68.2029 55.9844 68.4959 56.0926 68.7134 56.2994C68.9304 56.5061 69.0537 56.793 69.0537 57.093C69.0537 57.393 68.9304 57.6794 68.7134 57.8861C68.4959 58.0928 68.2029 58.2016 67.9034 58.1861Z" fill="black"/>
<path d="M66.5427 63.8933H56.4823C56.1828 63.9083 55.8903 63.8 55.6728 63.5933C55.4553 63.3865 55.332 63.0997 55.332 62.7997C55.332 62.4997 55.4553 62.2128 55.6728 62.0065C55.8903 61.7998 56.1828 61.6911 56.4823 61.7065H66.5427C67.1253 61.7361 67.5823 62.2165 67.5823 62.7997C67.5823 63.3828 67.1253 63.8637 66.5427 63.8933Z" fill="black"/>
</svg>
