<svg width="18" height="25" viewBox="0 0 18 25" fill="none" xmlns="http://www.w3.org/2000/svg">
<path d="M9.00061 0C6.61429 0.00258333 4.32644 0.957346 2.63905 2.6548C0.951669 4.35225 0.00256801 6.65375 0 9.05431C0 15.2503 8.05471 24.3461 8.39669 24.7292C8.47276 24.8141 8.56573 24.882 8.66955 24.9285C8.77338 24.975 8.88576 24.999 8.9994 24.999C9.11304 24.999 9.22541 24.975 9.32924 24.9285C9.43306 24.882 9.52603 24.8141 9.6021 24.7292C9.94529 24.3449 17.9988 15.2491 17.9988 9.05431C17.9962 6.65417 17.0475 4.35304 15.3606 2.65566C13.6737 0.958277 11.3865 0.00322895 9.00061 0V0ZM9.00061 13.6095C8.10502 13.6095 7.22954 13.3424 6.48488 12.8418C5.74022 12.3413 5.15983 11.6299 4.8171 10.7975C4.47437 9.96516 4.3847 9.04926 4.55942 8.16563C4.73414 7.28201 5.16541 6.47035 5.79869 5.83329C6.43197 5.19623 7.23882 4.76239 8.1172 4.58662C8.99559 4.41086 9.90606 4.50107 10.7335 4.84584C11.5609 5.19062 12.2681 5.77447 12.7657 6.52357C13.2632 7.27267 13.5288 8.15337 13.5288 9.05431C13.5275 10.262 13.05 11.4199 12.2011 12.2739C11.3522 13.1279 10.2012 13.6082 9.00061 13.6095Z" fill="#C99E59"/>
</svg>
