<svg width="52" height="16" viewBox="0 0 52 16" fill="none" xmlns="http://www.w3.org/2000/svg">
<path d="M35.2492 16C34.3264 15.9996 33.405 15.9364 32.4909 15.8112C29.8617 15.4503 27.6927 14.2446 26.0269 12.2207C24.5788 14.0271 22.7695 15.1526 20.6345 15.5727L20.6349 15.5723C19.0059 15.8974 17.3426 16.0124 15.6846 15.9143C11.4905 15.6523 7.71184 14.1268 4.46577 11.38C2.65644 9.84873 1.39126 8.1233 0.598086 6.10517C0.462339 5.75828 0.355307 5.41549 0.231455 5.0185C0.17363 4.83047 0.111708 4.63178 0.0407582 4.41872L0.0411683 4.41831C-0.0785788 4.0472 0.0694651 3.64242 0.40001 3.43633C0.730958 3.22984 1.15911 3.27582 1.4392 3.54677C4.10364 6.15069 6.87843 6.49151 10.1739 4.6223C11.0466 4.12762 11.9206 3.5599 12.7702 3.01099C13.4153 2.59226 14.0826 2.15915 14.7543 1.75438C16.1793 0.895562 17.6345 0.342965 19.0813 0.111863C21.3262 -0.246109 23.5219 0.33396 25.6072 1.83604C25.7479 1.9358 25.8848 2.04089 26.0218 2.14599C27.2459 1.20137 28.4025 0.60236 29.6167 0.278459C31.8785 -0.321314 34.1742 0.0444561 36.634 1.40822C38.2039 2.27895 39.6958 3.25063 40.9479 4.08603C42.8221 5.33644 44.4871 5.86727 46.1894 5.75524C47.8442 5.64645 49.1684 5.01835 50.2376 3.83601C50.2954 3.77196 50.3503 3.71819 50.4213 3.64922L50.5529 3.51908V3.5195C50.8015 3.27236 51.1763 3.20339 51.4966 3.34626C51.8165 3.48912 52.0162 3.81425 51.999 4.16444C51.9358 5.57701 51.5265 6.95269 50.8076 8.1699C49.5473 10.3691 47.7527 12.0424 45.1584 13.4287C41.958 15.1382 38.6316 15.9998 35.2495 15.9998L35.2492 16ZM26.019 9.93406V9.93447C26.3028 9.93406 26.5677 10.0761 26.7252 10.3122C28.2032 12.5294 30.1643 13.777 32.7168 14.1268C36.6903 14.6715 40.6055 13.9268 44.3545 11.9276C46.651 10.6972 48.2361 9.23452 49.3306 7.32233C49.5016 7.02471 49.6537 6.7164 49.7858 6.39989C48.7683 7.0165 47.6127 7.36257 46.2958 7.44837C44.199 7.58631 42.2018 6.96642 40.0049 5.49719C38.7807 4.68066 37.3256 3.73276 35.8108 2.89201C33.7537 1.75237 31.8714 1.43341 30.0538 1.91743C28.9104 2.22244 27.806 2.84521 26.5765 3.87565C26.2726 4.13182 25.8322 4.14208 25.5168 3.90069C25.4118 3.82064 25.3101 3.74264 25.21 3.66464C25.0033 3.50454 24.8106 3.35388 24.6109 3.21265C22.8848 1.96339 21.1582 1.50077 19.3456 1.78652C18.0985 1.98644 16.8821 2.45034 15.6289 3.20613C14.9797 3.59696 14.3248 4.02184 13.6916 4.43364C12.8246 4.99524 11.929 5.57738 11.0124 6.09707C8.03548 7.78551 5.24348 7.94242 2.67699 6.57286C3.36104 7.87214 4.31162 9.02492 5.562 10.0816C8.52293 12.5879 11.9649 13.98 15.7908 14.2189C17.3032 14.308 18.8214 14.2025 20.3073 13.9053C22.3352 13.5054 24.0179 12.2997 25.3081 10.3197V10.3193C25.4639 10.0804 25.7293 9.93591 26.0143 9.93467L26.019 9.93406Z" fill="#211F19"/>
</svg>
