<svg width="23" height="23" viewBox="0 0 23 23" fill="none" xmlns="http://www.w3.org/2000/svg">
<path d="M1.66689 9.14741C4.22209 14.7126 8.76876 19.1372 14.4214 21.5359L15.3276 21.9396C17.4008 22.8634 19.8377 22.1616 21.1021 20.277L22.2862 18.512C22.6713 17.9382 22.5541 17.1652 22.0162 16.7314L18.0004 13.4916C17.4106 13.0158 16.5433 13.1267 16.092 13.7355L14.8497 15.4119C11.662 13.8394 9.07382 11.2514 7.50142 8.06361L9.17769 6.82132C9.78662 6.37009 9.89742 5.50273 9.42156 4.91289L6.1818 0.896971C5.748 0.359265 4.97533 0.241972 4.4015 0.626732L2.62438 1.81833C0.727929 3.08993 0.0300891 5.54707 0.975062 7.62567L1.66585 9.14516L1.66689 9.14741Z" fill="#C99E58"/>
</svg>
