<svg width="98" height="98" viewBox="0 0 98 98" fill="none" xmlns="http://www.w3.org/2000/svg">
<circle cx="60" cy="38" r="38" fill="#F0EBDF"/>
<path d="M36.8405 60.9698L36.4538 60.4455L13.3836 27.3257C13.1792 27.0306 13.1005 26.6665 13.1636 26.3135L14.5908 18.334C14.7226 17.5971 15.4264 17.1068 16.1633 17.2386L24.1428 18.6657C24.4962 18.7294 24.8102 18.9308 25.0156 19.2256L48.21 52.5236L43.4774 49.8968L23.3045 20.9365L16.7527 19.7647L15.5814 26.3137L36.15 55.8421L35.1753 56.5211L37.4701 60.962L36.8405 60.9698Z" fill="black"/>
<path d="M14.8152 19.0634L16.7702 17.7016L39.8782 50.8757L37.9233 52.2375L14.8152 19.0634Z" fill="black"/>
<path d="M37.9829 50.2406C40.2701 48.6507 43.1997 48.3065 45.7935 49.3238C48.3868 50.3414 50.3011 52.5857 50.8973 55.3071C51.493 58.0279 50.6914 60.8674 48.7604 62.8749C46.8298 64.883 44.0245 65.7949 41.2819 65.3059C39.1019 64.9174 37.1659 63.6783 35.8999 61.8615C34.6339 60.0446 34.1427 57.7991 34.533 55.6195C34.9238 53.4398 36.165 51.5051 37.983 50.2408L37.9829 50.2406ZM46.149 61.964C47.4434 61.0636 48.3266 59.6853 48.6051 58.1333C48.8831 56.5816 48.5334 54.9824 47.6324 53.6884C46.7315 52.394 45.3538 51.5109 43.8016 51.2332C42.2535 50.9964 40.6735 51.3638 39.3887 52.2588C38.1038 53.1542 37.2116 54.5084 36.8967 56.0426C36.6185 57.5956 36.9691 59.195 37.8714 60.4897C38.7732 61.7839 40.1525 62.6663 41.7059 62.9432C43.2589 63.2199 44.8584 62.8679 46.1519 61.9645L46.149 61.964Z" fill="black"/>
<path d="M44.8328 57.4584C44.6272 58.6079 43.5285 59.3728 42.3796 59.1673C41.2302 58.9617 40.4652 57.8635 40.6708 56.7141C40.8763 55.5647 41.9746 54.7997 43.124 55.0052C44.2729 55.2107 45.0384 56.3091 44.8328 57.4584Z" fill="black"/>
<path d="M35.1822 70.7182C33.3741 71.2029 31.8325 72.3863 30.8968 74.0075C29.9606 75.6291 29.7066 77.5556 30.1907 79.3641C30.6744 81.1725 31.8567 82.7144 33.4772 83.6519C35.0981 84.5889 37.0245 84.8439 38.8332 84.3612C40.6419 83.8785 42.1851 82.6974 43.1234 81.0772C44.0612 79.4573 44.3176 77.5308 43.8359 75.7217C43.3528 73.9101 42.1697 72.3647 40.5461 71.4262C38.9231 70.4879 36.9934 70.2327 35.1823 70.7184L35.1822 70.7182ZM41.5488 76.3283C41.8698 77.5343 41.6986 78.8189 41.0731 79.8989C40.4471 80.9788 39.4177 81.7661 38.2117 82.087C37.0057 82.4085 35.721 82.2373 34.6411 81.6117C33.5611 80.9862 32.7737 79.9568 32.4523 78.7508C32.1309 77.5447 32.3021 76.2601 32.9276 75.1801C33.5532 74.0996 34.5821 73.3122 35.7882 72.9908C36.9949 72.6709 38.2786 72.8424 39.3584 73.4684C40.4385 74.0939 41.2264 75.1225 41.5489 76.3282L41.5488 76.3283Z" fill="black"/>
<path d="M42.219 64.2333C41.8749 65.3242 41.8371 66.4884 42.1103 67.5995C42.3831 68.7102 42.956 69.7245 43.7664 70.5319C44.9198 71.6387 45.7719 73.022 46.242 74.5499C46.6657 76.0361 47.5853 77.3329 48.8472 78.2243L52.3286 80.5965C52.6465 80.8134 52.8763 81.1369 52.976 81.5085C53.1143 82.0242 52.9281 82.5723 52.5044 82.897C52.0806 83.2217 51.5029 83.2593 51.0413 82.9915L49.376 82.028C48.625 81.597 47.7417 81.4562 46.894 81.6326C46.0462 81.8091 45.2924 82.291 44.7757 82.9862C43.8441 84.2382 42.6098 85.234 41.189 85.8799C38.4426 87.1406 35.2587 87.0083 32.626 85.5241C29.9938 84.04 28.2327 81.3841 27.8897 78.3813C27.7021 76.2406 28.2283 74.0971 29.3869 72.2868C30.5454 70.4764 32.2704 69.1006 34.2934 68.3738C36.4121 67.5685 38.1263 65.958 39.0628 63.8935L39.3932 63.1588L37.5335 61.549L36.9139 62.9287L36.9144 62.9288C36.2359 64.4222 34.9947 65.5864 33.4622 66.1686C30.9507 67.0846 28.8133 68.8061 27.3828 71.0641C25.9522 73.3225 25.3098 75.9904 25.5546 78.6524C25.9426 82.0503 27.7904 85.1112 30.6174 87.0373C33.444 88.9627 36.9686 89.5626 40.2729 88.6803C40.9179 88.509 41.5472 88.2835 42.1543 88.0068C43.9395 87.1975 45.4901 85.9482 46.6604 84.3757C47.0163 83.8926 47.676 83.7506 48.1987 84.0446L49.8612 85.0076C50.7008 85.4973 51.7006 85.6314 52.6395 85.3793C53.5798 85.1275 54.382 84.5129 54.8704 83.6702C55.3587 82.8275 55.4927 81.8258 55.2438 80.8847C54.9995 79.9691 54.436 79.1712 53.6548 78.6348L50.1744 76.2599L50.1743 76.2604C49.3566 75.6642 48.7631 74.8109 48.4886 73.8371C47.8988 71.9325 46.8331 70.2101 45.393 68.8315C44.8531 68.293 44.4827 67.6082 44.3262 66.8616C44.1696 66.1155 44.2342 65.3394 44.5121 64.6291L44.7326 64.1767L43.2061 64.6175L42.219 64.2333Z" fill="black"/>
<path d="M69.6532 62.7911C70.7321 61.2612 71.1593 59.3653 70.8406 57.5206C70.5215 55.6759 69.4833 54.0336 67.9534 52.9547C66.4236 51.8754 64.528 51.4483 62.6835 51.7669C60.8384 52.0855 59.1961 53.1237 58.1167 54.6535C57.0374 56.1829 56.6103 58.0789 56.9285 59.9234C57.2471 61.768 58.2852 63.4108 59.8146 64.4901C61.3451 65.5681 63.2406 65.9947 65.0857 65.6761C66.9302 65.3579 68.573 64.3199 69.653 62.7911L69.6532 62.7911ZM60.0379 56.0081C60.7574 54.9883 61.8526 54.2961 63.0826 54.0831C64.3125 53.8707 65.5766 54.1559 66.5965 54.8754C67.6164 55.595 68.3092 56.6898 68.5215 57.9201C68.7344 59.1501 68.4493 60.4138 67.7302 61.4343C67.0106 62.4541 65.9153 63.1468 64.6855 63.3593C63.4555 63.5721 62.1912 63.2874 61.1713 62.5684C60.1521 61.8475 59.4604 60.7523 59.2479 59.5225C59.0355 58.2926 59.3192 57.0286 60.0379 56.0081L60.0379 56.0081Z" fill="black"/>
<path d="M68.9009 48.3694C66.4868 47.2153 63.7578 46.8934 61.1416 47.455C58.525 48.0161 56.1682 49.4288 54.4399 51.4716C53.3635 52.7086 51.8404 53.4685 50.2049 53.5842L48.6439 53.6916L49.5093 55.994L50.3731 55.9352L50.3731 55.9356C52.6339 55.7743 54.7383 54.7239 56.226 53.0143C57.6094 51.3685 59.4983 50.2272 61.5989 49.7681C63.6992 49.309 65.8921 49.5583 67.8359 50.4769C70.5321 51.8401 72.412 54.4124 72.8917 57.3959C73.3716 60.3789 72.3926 63.4109 70.2599 65.5509C69.1546 66.6565 67.7868 67.4643 66.2845 67.8975C65.4532 68.1417 64.7399 68.6817 64.2804 69.4166C63.821 70.1511 63.6468 71.029 63.7912 71.8834L64.1183 73.7767L64.1179 73.7761C64.21 74.3021 63.9753 74.8316 63.5243 75.1171C63.0737 75.4027 62.4948 75.3882 62.0589 75.0807C61.7431 74.8576 61.5181 74.5288 61.4252 74.1536L60.4034 70.0684C60.0049 68.5748 59.1078 67.262 57.8607 66.3485C56.5909 65.378 55.5896 64.0995 54.9522 62.6336C54.468 61.5736 53.6966 60.6709 52.7251 60.0267C51.7541 59.383 50.6215 59.0243 49.457 58.9913L49.1997 60.43L48.396 61.3615L49.1568 61.29C49.9193 61.2735 50.6698 61.4806 51.3159 61.8861C51.9619 62.2921 52.4746 62.8786 52.7904 63.5727C53.593 65.4005 54.846 66.9951 56.4331 68.2066C57.2519 68.7992 57.8462 69.6512 58.1198 70.6244L59.141 74.7122C59.3733 75.6314 59.9277 76.4372 60.703 76.983C61.4969 77.5445 62.4811 77.7681 63.4399 77.6044C64.3982 77.441 65.2529 76.9039 65.816 76.1113C66.3788 75.3186 66.6043 74.3347 66.4424 73.3758L66.1158 71.4798L66.1163 71.4799C66.0188 70.8882 66.3818 70.3174 66.959 70.1545C68.8384 69.5992 70.5476 68.5782 71.927 67.1858C72.3967 66.7112 72.8266 66.1981 73.2113 65.6522C75.1727 62.8567 75.8246 59.3481 74.998 56.0351C74.1715 52.722 71.9484 49.9306 68.9041 48.3838L68.9009 48.3694Z" fill="black"/>
</svg>
