<svg width="49" height="46" fill="none" xmlns="http://www.w3.org/2000/svg"><g filter="url(#filter0_f_4451_14990)"><path d="M24.575 15.104c-1.463 0-2.926.006-4.389 0a1.918 1.918 0 00-1.519.668c-.835.929-1.685 1.844-2.526 2.768-.646.71-.67 1.381-.071 2.117 2.566 3.17 5.132 6.338 7.7 9.506.523.646 1.118.646 1.643 0 2.567-3.166 5.133-6.335 7.699-9.506.602-.743.579-1.407-.068-2.116-.841-.924-1.691-1.84-2.526-2.768A1.922 1.922 0 0029 15.102c-1.474.008-2.95.002-4.426.002zm1.045 13.775l-.058-.035c.039-.12.076-.24.117-.359l2.324-6.847c.046-.136.13-.278.118-.41-.014-.145-.12-.282-.185-.422a2.178 2.178 0 00-.404.229c-.066.056-.07.183-.104.278l-2.661 7.824c-.043.126-.1.247-.19.469L21.3 19.963h11.542L25.62 28.88zm-9.307-8.96c1.395 0 2.653.01 3.91-.008.295-.005.417.086.51.368.79 2.368 1.598 4.728 2.401 7.091l.495 1.468-.066.032-7.25-8.951zm.058-.666l2.912-3.187c.07.198.116.318.157.439l.516 1.506c.075.216.183.42.458.315.275-.107.234-.316.15-.542-.105-.281-.191-.57-.288-.855-.124-.37-.251-.74-.38-1.123h3.916c-1.044 1.146-2.036 2.237-3.034 3.323a.395.395 0 01-.258.12c-1.346.007-2.683.004-4.149.004zm8.225-3.338l3.023 3.312h-6.048l3.024-3.312zm8.202 3.315h-3.975l1.079-3.17 2.896 3.17zm-3.494-3.438c-.358 1.055-.704 2.072-1.07 3.142l-2.87-3.142h3.94z" fill="#7C2BFF"/></g><g filter="url(#filter1_f_4451_14990)"><path d="M24.575 15.104c-1.463 0-2.926.006-4.389 0a1.918 1.918 0 00-1.519.668c-.835.929-1.685 1.844-2.526 2.768-.646.71-.67 1.381-.071 2.117 2.566 3.17 5.132 6.338 7.7 9.506.523.646 1.118.646 1.643 0 2.567-3.166 5.133-6.335 7.699-9.506.602-.743.579-1.407-.068-2.116-.841-.924-1.691-1.84-2.526-2.768A1.922 1.922 0 0029 15.102c-1.474.008-2.95.002-4.426.002zm1.045 13.775l-.058-.035c.039-.12.076-.24.117-.359l2.324-6.847c.046-.136.13-.278.118-.41-.014-.145-.12-.282-.185-.422a2.178 2.178 0 00-.404.229c-.066.056-.07.183-.104.278l-2.661 7.824c-.043.126-.1.247-.19.469L21.3 19.963h11.542L25.62 28.88zm-9.307-8.96c1.395 0 2.653.01 3.91-.008.295-.005.417.086.51.368.79 2.368 1.598 4.728 2.401 7.091l.495 1.468-.066.032-7.25-8.951zm.058-.666l2.912-3.187c.07.198.116.318.157.439l.516 1.506c.075.216.183.42.458.315.275-.107.234-.316.15-.542-.105-.281-.191-.57-.288-.855-.124-.37-.251-.74-.38-1.123h3.916c-1.044 1.146-2.036 2.237-3.034 3.323a.395.395 0 01-.258.12c-1.346.007-2.683.004-4.149.004zm8.225-3.338l3.023 3.312h-6.048l3.024-3.312zm8.202 3.315h-3.975l1.079-3.17 2.896 3.17zm-3.494-3.438c-.358 1.055-.704 2.072-1.07 3.142l-2.87-3.142h3.94z" fill="#7C2BFF"/></g><g filter="url(#filter2_f_4451_14990)"><path d="M24.575 15.104c-1.463 0-2.926.006-4.389 0a1.918 1.918 0 00-1.519.668c-.835.929-1.685 1.844-2.526 2.768-.646.71-.67 1.381-.071 2.117 2.566 3.17 5.132 6.338 7.7 9.506.523.646 1.118.646 1.643 0 2.567-3.166 5.133-6.335 7.699-9.506.602-.743.579-1.407-.068-2.116-.841-.924-1.691-1.84-2.526-2.768A1.922 1.922 0 0029 15.102c-1.474.008-2.95.002-4.426.002zm1.045 13.775l-.058-.035c.039-.12.076-.24.117-.359l2.324-6.847c.046-.136.13-.278.118-.41-.014-.145-.12-.282-.185-.422a2.178 2.178 0 00-.404.229c-.066.056-.07.183-.104.278l-2.661 7.824c-.043.126-.1.247-.19.469L21.3 19.963h11.542L25.62 28.88zm-9.307-8.96c1.395 0 2.653.01 3.91-.008.295-.005.417.086.51.368.79 2.368 1.598 4.728 2.401 7.091l.495 1.468-.066.032-7.25-8.951zm.058-.666l2.912-3.187c.07.198.116.318.157.439l.516 1.506c.075.216.183.42.458.315.275-.107.234-.316.15-.542-.105-.281-.191-.57-.288-.855-.124-.37-.251-.74-.38-1.123h3.916c-1.044 1.146-2.036 2.237-3.034 3.323a.395.395 0 01-.258.12c-1.346.007-2.683.004-4.149.004zm8.225-3.338l3.023 3.312h-6.048l3.024-3.312zm8.202 3.315h-3.975l1.079-3.17 2.896 3.17zm-3.494-3.438c-.358 1.055-.704 2.072-1.07 3.142l-2.87-3.142h3.94z" fill="#7C2BFF"/></g><g filter="url(#filter3_d_4451_14990)"><path d="M24.575 15.104c-1.463 0-2.926.006-4.389 0a1.918 1.918 0 00-1.519.668c-.835.929-1.685 1.844-2.526 2.768-.646.71-.67 1.381-.071 2.117 2.566 3.17 5.132 6.338 7.7 9.506.523.646 1.118.646 1.643 0 2.567-3.166 5.133-6.335 7.699-9.506.602-.743.579-1.407-.068-2.116-.841-.924-1.691-1.84-2.526-2.768A1.922 1.922 0 0029 15.102c-1.474.008-2.95.002-4.426.002zm1.045 13.775l-.058-.035c.039-.12.076-.24.117-.359l2.324-6.847c.046-.136.13-.278.118-.41-.014-.145-.12-.282-.185-.422a2.178 2.178 0 00-.404.229c-.066.056-.07.183-.104.278l-2.661 7.824c-.043.126-.1.247-.19.469L21.3 19.963h11.542L25.62 28.88zm-9.307-8.96c1.395 0 2.653.01 3.91-.008.295-.005.417.086.51.368.79 2.368 1.598 4.728 2.401 7.091l.495 1.468-.066.032-7.25-8.951zm.058-.666l2.912-3.187c.07.198.116.318.157.439l.516 1.506c.075.216.183.42.458.315.275-.107.234-.316.15-.542-.105-.281-.191-.57-.288-.855-.124-.37-.251-.74-.38-1.123h3.916c-1.044 1.146-2.036 2.237-3.034 3.323a.395.395 0 01-.258.12c-1.346.007-2.683.004-4.149.004zm8.225-3.338l3.023 3.312h-6.048l3.024-3.312zm8.202 3.315h-3.975l1.079-3.17 2.896 3.17zm-3.494-3.438c-.358 1.055-.704 2.072-1.07 3.142l-2.87-3.142h3.94z" fill="#fff"/></g><defs><filter id="filter0_f_4451_14990" x=".638" y=".101" width="47.909" height="45.547" filterUnits="userSpaceOnUse" color-interpolation-filters="sRGB"><feFlood flood-opacity="0" result="BackgroundImageFix"/><feBlend in="SourceGraphic" in2="BackgroundImageFix" result="shape"/><feGaussianBlur stdDeviation="7.5" result="effect1_foregroundBlur_4451_14990"/></filter><filter id="filter1_f_4451_14990" x="5.638" y="5.101" width="37.909" height="35.547" filterUnits="userSpaceOnUse" color-interpolation-filters="sRGB"><feFlood flood-opacity="0" result="BackgroundImageFix"/><feBlend in="SourceGraphic" in2="BackgroundImageFix" result="shape"/><feGaussianBlur stdDeviation="5" result="effect1_foregroundBlur_4451_14990"/></filter><filter id="filter2_f_4451_14990" x="10.638" y="10.101" width="27.909" height="25.547" filterUnits="userSpaceOnUse" color-interpolation-filters="sRGB"><feFlood flood-opacity="0" result="BackgroundImageFix"/><feBlend in="SourceGraphic" in2="BackgroundImageFix" result="shape"/><feGaussianBlur stdDeviation="2.5" result="effect1_foregroundBlur_4451_14990"/></filter><filter id="filter3_d_4451_14990" x="11.638" y="15.101" width="25.909" height="23.547" filterUnits="userSpaceOnUse" color-interpolation-filters="sRGB"><feFlood flood-opacity="0" result="BackgroundImageFix"/><feColorMatrix in="SourceAlpha" values="0 0 0 0 0 0 0 0 0 0 0 0 0 0 0 0 0 0 127 0" result="hardAlpha"/><feOffset dy="4"/><feGaussianBlur stdDeviation="2"/><feComposite in2="hardAlpha" operator="out"/><feColorMatrix values="0 0 0 0 0 0 0 0 0 0 0 0 0 0 0 0 0 0 0.75 0"/><feBlend in2="BackgroundImageFix" result="effect1_dropShadow_4451_14990"/><feBlend in="SourceGraphic" in2="effect1_dropShadow_4451_14990" result="shape"/></filter></defs></svg>