<svg width="21" height="16" fill="none" xmlns="http://www.w3.org/2000/svg"><path d="M18.684.03H2.434c-.521 0-.964.183-1.329.547A1.808 1.808 0 00.56 1.906v11.25c0 .52.182.963.546 1.328.365.364.808.546 1.329.546h16.25c.52 0 .963-.182 1.328-.546.364-.365.547-.808.547-1.329V1.905c0-.52-.183-.963-.547-1.328a1.808 1.808 0 00-1.328-.546zM2.434 1.28h16.25a.52.52 0 01.43.196.52.52 0 01.195.43v1.601c-.912.781-2.878 2.37-5.899 4.766l-.39.312c-.521.443-.925.755-1.211.938-.495.338-.912.508-1.25.508-.339 0-.756-.17-1.25-.508-.313-.183-.73-.495-1.25-.938l-.352-.312C4.687 5.877 2.72 4.288 1.809 3.507V1.906a.58.58 0 01.156-.43.64.64 0 01.469-.195zm16.25 12.5H2.434a.727.727 0 01-.47-.156.727.727 0 01-.155-.469V5.149c.911.729 2.617 2.096 5.117 4.101l.39.313c.6.52 1.094.898 1.485 1.133.65.39 1.237.585 1.758.585.52 0 1.106-.195 1.757-.585.365-.235.86-.612 1.485-1.133l.39-.313c2.5-2.005 4.206-3.372 5.118-4.101v8.008a.64.64 0 01-.196.468.581.581 0 01-.43.156z" fill="#7C2BFF"/></svg>