<svg width="16" height="21" fill="none" xmlns="http://www.w3.org/2000/svg"><path d="M8.059 4.28c-1.042 0-1.927.365-2.657 1.094-.729.73-1.093 1.615-1.093 2.657 0 1.041.364 1.927 1.093 2.656.73.729 1.615 1.094 2.657 1.094 1.041 0 1.927-.365 2.656-1.094.729-.73 1.094-1.615 1.094-2.656 0-1.042-.365-1.928-1.094-2.657-.73-.729-1.615-1.093-2.656-1.093zm0 6.25c-.677 0-1.263-.247-1.758-.742-.495-.494-.742-1.08-.742-1.757 0-.678.247-1.264.742-1.758.495-.495 1.08-.742 1.758-.742.677 0 1.263.247 1.757.742.495.495.743 1.08.743 1.758 0 .677-.248 1.263-.743 1.757-.494.495-1.08.742-1.757.742zm0-10a7.24 7.24 0 00-3.75 1.016 7.643 7.643 0 00-2.735 2.735A7.239 7.239 0 00.56 8.03c0 .833.104 1.575.312 2.226.208.625.612 1.406 1.211 2.344.417.65 1.276 1.914 2.578 3.789l2.617 3.75c.183.26.443.39.782.39.338 0 .599-.13.78-.39l2.618-3.75c1.302-1.875 2.161-3.138 2.578-3.79.6-.937 1.003-1.718 1.211-2.343.208-.651.313-1.393.313-2.226a7.239 7.239 0 00-1.016-3.75 7.644 7.644 0 00-2.734-2.735A7.239 7.239 0 008.059.531zm0 18.516a377.37 377.37 0 00-2.422-3.476 589.625 589.625 0 01-2.461-3.555c-.547-.886-.912-1.589-1.094-2.11-.182-.546-.273-1.171-.273-1.874a6.17 6.17 0 011.836-4.415A6.17 6.17 0 018.059 1.78a6.17 6.17 0 014.414 1.836 6.17 6.17 0 011.836 4.414c0 .704-.092 1.329-.274 1.876-.182.52-.547 1.223-1.094 2.109-.39.573-1.21 1.758-2.46 3.555l-2.422 3.476z" fill="#7C2BFF"/></svg>