<svg width="17" height="17" fill="none" xmlns="http://www.w3.org/2000/svg"><path fill-rule="evenodd" clip-rule="evenodd" d="M8.56.03c-2.173 0-2.446.01-3.3.049-.85.039-1.431.174-1.94.371a3.917 3.917 0 00-1.417.922A3.927 3.927 0 00.978 2.79C.78 3.299.645 3.88.607 4.732.569 5.585.559 5.858.559 8.03s.01 2.444.048 3.297c.04.852.174 1.433.372 1.942.204.526.477.973.922 1.417.445.445.891.72 1.417.924.509.197 1.09.332 1.942.371.853.039 1.126.049 3.298.049 2.173 0 2.445-.01 3.298-.049.852-.039 1.434-.174 1.943-.371a3.914 3.914 0 001.416-.924c.445-.444.718-.89.923-1.417.197-.509.332-1.09.372-1.941.038-.854.048-1.126.048-3.298 0-2.173-.01-2.446-.048-3.3-.04-.85-.175-1.432-.372-1.94a3.926 3.926 0 00-.923-1.418A3.91 3.91 0 0013.798.45c-.51-.198-1.091-.333-1.943-.372C11.002.04 10.73.03 8.557.03h.002zm-.718 1.442h.717c2.136 0 2.39.008 3.233.046.78.036 1.203.166 1.485.276.374.145.64.318.92.598.28.28.453.547.598.92.11.282.24.705.276 1.485.038.843.047 1.097.047 3.232 0 2.135-.009 2.388-.047 3.231-.036.78-.166 1.204-.276 1.485-.145.374-.318.64-.598.92-.28.28-.546.453-.92.598-.281.11-.705.24-1.485.275-.843.039-1.097.047-3.233.047s-2.389-.008-3.232-.047c-.78-.036-1.204-.166-1.486-.276a2.478 2.478 0 01-.92-.598 2.48 2.48 0 01-.598-.92c-.11-.281-.24-.704-.276-1.484-.038-.844-.046-1.097-.046-3.233 0-2.137.008-2.389.046-3.232.036-.78.166-1.203.276-1.485.145-.374.318-.64.598-.92.28-.28.547-.454.92-.599.282-.11.706-.24 1.486-.276.738-.033 1.024-.043 2.515-.045v.002zm4.988 1.329a.96.96 0 100 1.92.96.96 0 000-1.92zM8.56 3.922a4.109 4.109 0 100 8.217 4.109 4.109 0 000-8.217zm0 1.442a2.667 2.667 0 110 5.333 2.667 2.667 0 010-5.333z" fill="#7C2BFF"/></svg>