<svg width="226" height="276" fill="none" xmlns="http://www.w3.org/2000/svg"><path d="M68.295 164.971l1.86-3.638H9.646a6.112 6.112 0 01-5.194-9.411l.006-.01.006-.01L96.419 5.532l.005-.009a6.111 6.111 0 014.908-2.8h115.663l.059-.004a6.113 6.113 0 015.85 3.571 6.115 6.115 0 01-1.144 6.757l-.037.038-.034.04-78.017 88.78-3.647 4.151h51.824a6.113 6.113 0 015.887 7.043 6.114 6.114 0 01-1.431 3.079L53.125 271.154l-.022.023-.02.023a6.114 6.114 0 01-4.51 2.078H22.78a6.111 6.111 0 01-5.366-8.783l.008-.017 50.873-99.507zm-33.472 92.448l-1.856 3.637H45.98l.743-.805 127.186-137.777 3.873-4.196h-51.15l-.059.003a6.117 6.117 0 01-6.314-7.125 6.105 6.105 0 011.609-3.203l.036-.038.035-.04 78.017-88.78 3.647-4.15h-98.96l-.735 1.17-81.117 129.167-2.405 3.829h59.867a6.111 6.111 0 015.366 8.783l-.008.017-50.788 99.508z" stroke="url(#paint0_linear_4643_15513)" stroke-width="5"/><defs><linearGradient id="paint0_linear_4643_15513" x1="113.469" y1=".213" x2="113.469" y2="275.778" gradientUnits="userSpaceOnUse"><stop stop-color="#FAB2FF"/><stop offset="1" stop-color="#1904E5"/></linearGradient></defs></svg>