<svg width="42" height="47" fill="none" xmlns="http://www.w3.org/2000/svg"><g filter="url(#filter0_f_5308_19044)"><path d="M26.29 14.917l-9.778 6.029a5.974 5.974 0 010 4.3l9.764 6.019c.352-.284.672-.588 1.026-.838a5.93 5.93 0 016.736-.067 5.923 5.923 0 012.214 2.738 5.908 5.908 0 01-1.526 6.55 5.96 5.96 0 01-3.215 1.49 5.974 5.974 0 01-2.945-.345 5.944 5.944 0 01-2.412-1.718 5.885 5.885 0 01-1.1-5.609c.092-.283.03-.403-.214-.552a1505.673 1505.673 0 01-9.145-5.63c-.242-.15-.373-.16-.59.053a5.942 5.942 0 01-6.67 1.133c-2.24-1.045-3.648-3.39-3.409-5.824.24-2.434 1.527-4.198 3.843-5.069 2.316-.87 4.4-.38 6.212 1.265.24.216.378.232.648.064 3.036-1.888 6.083-3.767 9.141-5.637.21-.13.285-.235.195-.498a5.89 5.89 0 01.93-5.45 5.947 5.947 0 012.236-1.779 5.978 5.978 0 012.812-.533c3.005.13 5.408 2.561 5.617 5.663.184 2.832-1.965 5.552-4.803 6.062-2.055.368-3.843-.185-5.349-1.617-.067-.066-.136-.126-.217-.2zm.647 20.342a3.729 3.729 0 001.087 2.664 3.766 3.766 0 002.666 1.112c1 .006 1.963-.383 2.675-1.082a3.747 3.747 0 001.125-2.646 3.75 3.75 0 00-1.098-2.675 3.787 3.787 0 00-5.344-.021 3.745 3.745 0 00-1.111 2.648zm0-24.369a3.749 3.749 0 001.08 2.664c.7.71 1.654 1.116 2.654 1.128a3.8 3.8 0 002.678-1.074 3.739 3.739 0 00.06-5.32 3.775 3.775 0 00-2.675-1.124 3.78 3.78 0 00-2.678 1.078 3.742 3.742 0 00-1.12 2.648zM7.183 23.1a3.73 3.73 0 001.103 2.655 3.767 3.767 0 002.668 1.098c1 .001 1.96-.392 2.67-1.094a3.748 3.748 0 00.827-4.095 3.755 3.755 0 00-2.054-2.041 3.794 3.794 0 00-1.453-.283 3.78 3.78 0 00-2.665 1.104A3.743 3.743 0 007.183 23.1z" fill="#15F2FD"/></g><path d="M26.29 14.917l-9.778 6.029a5.974 5.974 0 010 4.3l9.764 6.019c.352-.284.672-.588 1.026-.838a5.93 5.93 0 016.736-.067 5.923 5.923 0 012.214 2.738 5.908 5.908 0 01-1.526 6.55 5.96 5.96 0 01-3.215 1.49 5.974 5.974 0 01-2.945-.345 5.944 5.944 0 01-2.412-1.718 5.885 5.885 0 01-1.1-5.609c.092-.283.03-.403-.214-.552a1505.673 1505.673 0 01-9.145-5.63c-.242-.15-.373-.16-.59.053a5.942 5.942 0 01-6.67 1.133c-2.24-1.045-3.648-3.39-3.409-5.824.24-2.434 1.527-4.198 3.843-5.069 2.316-.87 4.4-.38 6.212 1.265.24.216.378.232.648.064 3.036-1.888 6.083-3.767 9.141-5.637.21-.13.285-.235.195-.498a5.89 5.89 0 01.93-5.45 5.947 5.947 0 012.236-1.779 5.978 5.978 0 012.812-.533c3.005.13 5.408 2.561 5.617 5.663.184 2.832-1.965 5.552-4.803 6.062-2.055.368-3.843-.185-5.349-1.617-.067-.066-.136-.126-.217-.2zm.647 20.342a3.729 3.729 0 001.087 2.664 3.766 3.766 0 002.666 1.112c1 .006 1.963-.383 2.675-1.082a3.747 3.747 0 001.125-2.646 3.75 3.75 0 00-1.098-2.675 3.787 3.787 0 00-5.344-.021 3.745 3.745 0 00-1.111 2.648zm0-24.369a3.749 3.749 0 001.08 2.664c.7.71 1.654 1.116 2.654 1.128a3.8 3.8 0 002.678-1.074 3.739 3.739 0 00.06-5.32 3.775 3.775 0 00-2.675-1.124 3.78 3.78 0 00-2.678 1.078 3.742 3.742 0 00-1.12 2.648zM7.183 23.1a3.73 3.73 0 001.103 2.655 3.767 3.767 0 002.668 1.098c1 .001 1.96-.392 2.67-1.094a3.748 3.748 0 00.827-4.095 3.755 3.755 0 00-2.054-2.041 3.794 3.794 0 00-1.453-.283 3.78 3.78 0 00-2.665 1.104A3.743 3.743 0 007.183 23.1z" fill="#fff"/><defs><filter id="filter0_f_5308_19044" x="0" y="0" width="41.672" height="46.192" filterUnits="userSpaceOnUse" color-interpolation-filters="sRGB"><feFlood flood-opacity="0" result="BackgroundImageFix"/><feBlend in="SourceGraphic" in2="BackgroundImageFix" result="shape"/><feGaussianBlur stdDeviation="2.5" result="effect1_foregroundBlur_5308_19044"/></filter></defs></svg>