<svg width="40" height="40" fill="none" xmlns="http://www.w3.org/2000/svg"><path d="M33.4.93H6.155A5.651 5.651 0 00.512 6.575v27.243a5.651 5.651 0 005.644 5.644h27.243a5.651 5.651 0 005.645-5.644V6.575A5.651 5.651 0 0033.399.93zM14.132 31.485H9.618V15.681h4.515v15.804zm0-18.062H9.618V8.908h4.515v4.515zm15.805 18.062h-4.516v-9.03a2.26 2.26 0 00-2.258-2.259 2.26 2.26 0 00-2.257 2.258v9.031H16.39V15.681h4.516v.851c1.183-.368 1.951-.851 3.386-.851 3.063.003 5.645 2.75 5.645 5.997v9.807z" fill="#fff"/></svg>