<svg width="21" height="22" fill="none" xmlns="http://www.w3.org/2000/svg"><path d="M19.121 20.093l.899-3.945c.078-.287.039-.56-.118-.82a1.277 1.277 0 00-.586-.586l-4.218-1.797a1.35 1.35 0 00-.782-.079c-.26.079-.481.222-.664.43l-1.718 2.11A13.886 13.886 0 018.3 12.787a13.886 13.886 0 01-2.617-3.632l2.109-1.72a1.16 1.16 0 00.39-.663c.079-.26.066-.521-.038-.782L6.348 1.773a1.503 1.503 0 00-.586-.625 1.118 1.118 0 00-.82-.078l-3.946.898c-.26.078-.482.221-.664.43a1.242 1.242 0 00-.273.781c0 3.23.807 6.224 2.421 8.984 1.589 2.709 3.724 4.844 6.407 6.407 2.786 1.64 5.807 2.46 9.062 2.46.26 0 .495-.09.703-.273.235-.182.391-.404.47-.664zM1.31 3.179l3.906-.898 1.797 4.218L4.16 8.804c.938 2.031 2.018 3.659 3.242 4.883 1.224 1.224 2.852 2.305 4.883 3.242l2.305-2.852 4.219 1.797-.899 3.906a16.26 16.26 0 01-8.36-2.265c-2.525-1.485-4.517-3.477-5.976-5.977A16.252 16.252 0 011.31 3.18z" fill="#7C2BFF"/></svg>