<svg width="53" height="52" fill="none" xmlns="http://www.w3.org/2000/svg"><g filter="url(#filter0_f_4451_14991)" fill="#7C2BFF"><path d="M26.747 15.241a10.783 10.783 0 0110.768 10.793A10.778 10.778 0 0126.72 36.799c-5.953-.003-10.764-4.846-10.757-10.813.013-5.934 4.842-10.746 10.785-10.745zm-.017.845c-5.47 0-9.925 4.475-9.922 9.948.004 5.474 4.477 9.926 9.95 9.921 5.472-.004 9.926-4.475 9.92-9.95-.004-5.473-4.471-9.925-9.948-9.92z"/><path d="M34.581 26.015a7.81 7.81 0 00-1.064-3.93c-.085-.141-.182-.318-.16-.46.022-.142.2-.342.298-.337.176.01.412.113.502.253a7.722 7.722 0 011.092 2.802c.896 4.883-2.19 9.337-7.08 10.232-4.75.87-9.503-2.669-10.024-7.466-.516-4.74 2.485-8.8 7.173-9.643 2.048-.368 3.988.025 5.796 1.057.272.154.54.337.33.688-.209.35-.492.193-.76.04-4.61-2.618-10.298-.185-11.55 4.939-1.104 4.515 2.018 9.025 6.636 9.587 4.7.575 8.813-3.05 8.811-7.762z"/><path d="M23.98 25.95v-2.354c0-.546.194-.99.69-1.256.477-.254.942-.191 1.39.097 1.248.803 2.504 1.593 3.746 2.407.893.584.895 1.667 0 2.252a220.28 220.28 0 01-3.785 2.424c-.939.59-2.005.018-2.037-1.09-.022-.827-.002-1.654-.003-2.48zm.846-.013c0 .785-.015 1.57.01 2.355.006.186.096.466.229.527.158.074.44.017.604-.084 1.203-.746 2.39-1.515 3.58-2.28.519-.338.512-.635-.018-.976-1.178-.76-2.354-1.52-3.543-2.26-.169-.104-.457-.183-.602-.106-.146.077-.242.36-.254.557-.024.752-.007 1.51-.007 2.267zm8.229-5.657c-.163.108-.334.308-.488.297-.155-.01-.359-.23-.387-.387a.337.337 0 01.41-.4c.168.03.307.195.459.3l.006.19z"/></g><g filter="url(#filter1_f_4451_14991)" fill="#7C2BFF"><path d="M26.747 15.241a10.783 10.783 0 0110.768 10.793A10.778 10.778 0 0126.72 36.799c-5.953-.003-10.764-4.846-10.757-10.813.013-5.934 4.842-10.746 10.785-10.745zm-.017.845c-5.47 0-9.925 4.475-9.922 9.948.004 5.474 4.477 9.926 9.95 9.921 5.472-.004 9.926-4.475 9.92-9.95-.004-5.473-4.471-9.925-9.948-9.92z"/><path d="M34.581 26.015a7.81 7.81 0 00-1.064-3.93c-.085-.141-.182-.318-.16-.46.022-.142.2-.342.298-.337.176.01.412.113.502.253a7.722 7.722 0 011.092 2.802c.896 4.883-2.19 9.337-7.08 10.232-4.75.87-9.503-2.669-10.024-7.466-.516-4.74 2.485-8.8 7.173-9.643 2.048-.368 3.988.025 5.796 1.057.272.154.54.337.33.688-.209.35-.492.193-.76.04-4.61-2.618-10.298-.185-11.55 4.939-1.104 4.515 2.018 9.025 6.636 9.587 4.7.575 8.813-3.05 8.811-7.762z"/><path d="M23.98 25.95v-2.354c0-.546.194-.99.69-1.256.477-.254.942-.191 1.39.097 1.248.803 2.504 1.593 3.746 2.407.893.584.895 1.667 0 2.252a220.28 220.28 0 01-3.785 2.424c-.939.59-2.005.018-2.037-1.09-.022-.827-.002-1.654-.003-2.48zm.846-.013c0 .785-.015 1.57.01 2.355.006.186.096.466.229.527.158.074.44.017.604-.084 1.203-.746 2.39-1.515 3.58-2.28.519-.338.512-.635-.018-.976-1.178-.76-2.354-1.52-3.543-2.26-.169-.104-.457-.183-.602-.106-.146.077-.242.36-.254.557-.024.752-.007 1.51-.007 2.267zm8.229-5.657c-.163.108-.334.308-.488.297-.155-.01-.359-.23-.387-.387a.337.337 0 01.41-.4c.168.03.307.195.459.3l.006.19z"/></g><g filter="url(#filter2_f_4451_14991)" fill="#7C2BFF"><path d="M26.747 15.241a10.783 10.783 0 0110.768 10.793A10.778 10.778 0 0126.72 36.799c-5.953-.003-10.764-4.846-10.757-10.813.013-5.934 4.842-10.746 10.785-10.745zm-.017.845c-5.47 0-9.925 4.475-9.922 9.948.004 5.474 4.477 9.926 9.95 9.921 5.472-.004 9.926-4.475 9.92-9.95-.004-5.473-4.471-9.925-9.948-9.92z"/><path d="M34.581 26.015a7.81 7.81 0 00-1.064-3.93c-.085-.141-.182-.318-.16-.46.022-.142.2-.342.298-.337.176.01.412.113.502.253a7.722 7.722 0 011.092 2.802c.896 4.883-2.19 9.337-7.08 10.232-4.75.87-9.503-2.669-10.024-7.466-.516-4.74 2.485-8.8 7.173-9.643 2.048-.368 3.988.025 5.796 1.057.272.154.54.337.33.688-.209.35-.492.193-.76.04-4.61-2.618-10.298-.185-11.55 4.939-1.104 4.515 2.018 9.025 6.636 9.587 4.7.575 8.813-3.05 8.811-7.762z"/><path d="M23.98 25.95v-2.354c0-.546.194-.99.69-1.256.477-.254.942-.191 1.39.097 1.248.803 2.504 1.593 3.746 2.407.893.584.895 1.667 0 2.252a220.28 220.28 0 01-3.785 2.424c-.939.59-2.005.018-2.037-1.09-.022-.827-.002-1.654-.003-2.48zm.846-.013c0 .785-.015 1.57.01 2.355.006.186.096.466.229.527.158.074.44.017.604-.084 1.203-.746 2.39-1.515 3.58-2.28.519-.338.512-.635-.018-.976-1.178-.76-2.354-1.52-3.543-2.26-.169-.104-.457-.183-.602-.106-.146.077-.242.36-.254.557-.024.752-.007 1.51-.007 2.267zm8.229-5.657c-.163.108-.334.308-.488.297-.155-.01-.359-.23-.387-.387a.337.337 0 01.41-.4c.168.03.307.195.459.3l.006.19z"/></g><g filter="url(#filter3_d_4451_14991)" fill="#fff"><path d="M26.747 15.241a10.783 10.783 0 0110.768 10.793A10.778 10.778 0 0126.72 36.799c-5.953-.003-10.764-4.846-10.757-10.813.013-5.934 4.842-10.746 10.785-10.745zm-.017.845c-5.47 0-9.925 4.475-9.922 9.948.004 5.474 4.477 9.926 9.95 9.921 5.472-.004 9.926-4.475 9.92-9.95-.004-5.473-4.471-9.925-9.948-9.92z"/><path d="M34.581 26.015a7.81 7.81 0 00-1.064-3.93c-.085-.141-.182-.318-.16-.46.022-.142.2-.342.298-.337.176.01.412.113.502.253a7.722 7.722 0 011.092 2.802c.896 4.883-2.19 9.337-7.08 10.232-4.75.87-9.503-2.669-10.024-7.466-.516-4.74 2.485-8.8 7.173-9.643 2.048-.368 3.988.025 5.796 1.057.272.154.54.337.33.688-.209.35-.492.193-.76.04-4.61-2.618-10.298-.185-11.55 4.939-1.104 4.515 2.018 9.025 6.636 9.587 4.7.575 8.813-3.05 8.811-7.762z"/><path d="M23.98 25.95v-2.354c0-.546.194-.99.69-1.256.477-.254.942-.191 1.39.097 1.248.803 2.504 1.593 3.746 2.407.893.584.895 1.667 0 2.252a220.28 220.28 0 01-3.785 2.424c-.939.59-2.005.018-2.037-1.09-.022-.827-.002-1.654-.003-2.48zm.846-.013c0 .785-.015 1.57.01 2.355.006.186.096.466.229.527.158.074.44.017.604-.084 1.203-.746 2.39-1.515 3.58-2.28.519-.338.512-.635-.018-.976-1.178-.76-2.354-1.52-3.543-2.26-.169-.104-.457-.183-.602-.106-.146.077-.242.36-.254.557-.024.752-.007 1.51-.007 2.267zm8.229-5.657c-.163.108-.334.308-.488.297-.155-.01-.359-.23-.387-.387a.337.337 0 01.41-.4c.168.03.307.195.459.3l.006.19z"/></g><defs><filter id="filter0_f_4451_14991" x=".962" y=".241" width="51.553" height="51.558" filterUnits="userSpaceOnUse" color-interpolation-filters="sRGB"><feFlood flood-opacity="0" result="BackgroundImageFix"/><feBlend in="SourceGraphic" in2="BackgroundImageFix" result="shape"/><feGaussianBlur stdDeviation="7.5" result="effect1_foregroundBlur_4451_14991"/></filter><filter id="filter1_f_4451_14991" x="5.962" y="5.241" width="41.553" height="41.558" filterUnits="userSpaceOnUse" color-interpolation-filters="sRGB"><feFlood flood-opacity="0" result="BackgroundImageFix"/><feBlend in="SourceGraphic" in2="BackgroundImageFix" result="shape"/><feGaussianBlur stdDeviation="5" result="effect1_foregroundBlur_4451_14991"/></filter><filter id="filter2_f_4451_14991" x="10.962" y="10.241" width="31.553" height="31.558" filterUnits="userSpaceOnUse" color-interpolation-filters="sRGB"><feFlood flood-opacity="0" result="BackgroundImageFix"/><feBlend in="SourceGraphic" in2="BackgroundImageFix" result="shape"/><feGaussianBlur stdDeviation="2.5" result="effect1_foregroundBlur_4451_14991"/></filter><filter id="filter3_d_4451_14991" x="11.962" y="15.241" width="29.553" height="29.558" filterUnits="userSpaceOnUse" color-interpolation-filters="sRGB"><feFlood flood-opacity="0" result="BackgroundImageFix"/><feColorMatrix in="SourceAlpha" values="0 0 0 0 0 0 0 0 0 0 0 0 0 0 0 0 0 0 127 0" result="hardAlpha"/><feOffset dy="4"/><feGaussianBlur stdDeviation="2"/><feComposite in2="hardAlpha" operator="out"/><feColorMatrix values="0 0 0 0 0 0 0 0 0 0 0 0 0 0 0 0 0 0 0.75 0"/><feBlend in2="BackgroundImageFix" result="effect1_dropShadow_4451_14991"/><feBlend in="SourceGraphic" in2="effect1_dropShadow_4451_14991" result="shape"/></filter></defs></svg>