<svg width="51" height="50" fill="none" xmlns="http://www.w3.org/2000/svg"><g filter="url(#filter0_f_4203_12370)"><path fill-rule="evenodd" clip-rule="evenodd" d="M32.192 15.677c-.064.238-.12.45-.208.648-.044.097-.266.195-.369.164a.417.417 0 01-.223-.339c.035-.294.113-.582.23-.854.043-.101.245-.198.361-.184.081.01.15.09.213.166.028.033.054.064.08.089l-.084.31zm.224 3.5c-.476-.861-1.294-1.173-2.522-.962a.26.26 0 01-.054-.051c-.187-.32-.372-.642-.558-.962-.205-.355-.41-.709-.616-1.062-.63-1.075-1.845-1.114-2.519-.07a20.514 20.514 0 01-5.989 6.066c-.312.205-.386.397-.187.733.533.898 1.053 1.804 1.572 2.71l.4.698c.128.214.272.436.547.279.276-.158.166-.395.042-.61-.567-.978-1.132-1.957-1.697-2.937-.043-.076-.083-.154-.124-.233a13.02 13.02 0 00-.07-.137l.094-.07c.055-.042.102-.077.15-.11A21.202 21.202 0 0026.66 16.5c.46-.712 1.038-.697 1.462.035a5791.35 5791.35 0 014.408 7.629c.415.719.155 1.235-.663 1.28-2.618.143-5.162.674-7.536 1.796-1.036.49-2.033 1.06-3.03 1.63-.448.256-.895.512-1.346.76-.7.386-1.324.224-1.728-.464-.533-.908-1.06-1.819-1.58-2.732-.401-.703-.223-1.34.48-1.753.561-.33 1.126-.654 1.69-.978l.132-.076c.204-.114.342-.27.21-.505-.131-.234-.334-.197-.538-.078-.22.128-.442.255-.664.381a56.47 56.47 0 00-1.292.754c-.882.54-1.159 1.572-.654 2.48a116.24 116.24 0 001.697 2.936c.396.664 1.006.97 1.774.892.175-.016.347-.072.528-.13.091-.03.185-.06.282-.087l.085.135c.043.066.087.134.129.206.239.412.477.825.715 1.239.36.623.718 1.245 1.08 1.867.396.675.965.825 1.653.44l.018-.01c.198-.111.396-.223.588-.344.55-.347.715-.918.403-1.483a84.25 84.25 0 00-.847-1.48c-.192-.33-.383-.658-.57-.988-.12-.209-.277-.332-.51-.194-.234.138-.181.341-.064.542.26.447.518.895.777 1.343l.316.548c.272.47.407.704.357.887-.05.18-.284.312-.748.572-.424.237-.578.2-.82-.214a275.972 275.972 0 01-1.764-3.06l-.227-.398c.31-.177.614-.355.916-.532.655-.384 1.3-.762 1.965-1.098a19.905 19.905 0 018.196-2.125c.406-.017.767-.13 1.058-.424.462-.473.537-1.104.19-1.722-.265-.466-.532-.93-.798-1.39l-.001-.002c-.151-.262-.302-.523-.45-.783.8-.89.952-1.764.476-2.625zm-.832 2.008L30.23 18.85h.002c.729-.132 1.275.086 1.587.618.313.532.247 1.14-.234 1.717zm2.351-2.674c.04.032.085.067.13.108.093-.062.186-.122.278-.181.296-.192.583-.378.856-.583.05-.037.025-.265-.041-.343-.067-.077-.256-.138-.338-.098a7.384 7.384 0 00-.974.568c-.075.052-.114.24-.084.34.02.07.089.123.173.189zm.983 2.48a10.558 10.558 0 01-.307-.075c-.02.018-.05.037-.081.058-.081.053-.177.116-.186.19-.014.129.075.347.18.397.258.12.534.194.817.22.123.008.339-.119.37-.226.031-.107-.092-.332-.203-.383a3.057 3.057 0 00-.59-.18z" fill="#7C2BFF"/></g><g filter="url(#filter1_f_4203_12370)"><path fill-rule="evenodd" clip-rule="evenodd" d="M32.192 15.677c-.064.238-.12.45-.208.648-.044.097-.266.195-.369.164a.417.417 0 01-.223-.339c.035-.294.113-.582.23-.854.043-.101.245-.198.361-.184.081.01.15.09.213.166.028.033.054.064.08.089l-.084.31zm.224 3.5c-.476-.861-1.294-1.174-2.522-.962a.258.258 0 01-.054-.052c-.187-.32-.372-.64-.558-.961-.205-.355-.41-.709-.616-1.062-.63-1.075-1.845-1.114-2.519-.07a20.512 20.512 0 01-5.989 6.066c-.312.205-.386.397-.187.733.533.898 1.053 1.804 1.572 2.71l.4.698c.128.214.272.436.547.279.276-.158.166-.395.042-.61-.567-.978-1.132-1.957-1.697-2.937-.043-.076-.083-.154-.124-.233l-.07-.137.094-.07a5.73 5.73 0 01.15-.11A21.203 21.203 0 0026.66 16.5c.46-.712 1.038-.697 1.462.035 1.471 2.542 2.94 5.084 4.408 7.629.415.719.155 1.235-.663 1.28-2.618.143-5.162.674-7.536 1.796-1.036.49-2.033 1.06-3.03 1.63-.448.256-.895.512-1.346.76-.7.386-1.324.224-1.728-.464-.533-.908-1.06-1.819-1.58-2.732-.401-.703-.223-1.34.48-1.754.561-.33 1.126-.653 1.69-.977l.132-.076c.204-.114.342-.27.21-.505-.131-.234-.334-.197-.538-.078-.22.128-.442.255-.664.381-.433.248-.866.496-1.292.754-.882.54-1.159 1.572-.654 2.48a116.24 116.24 0 001.697 2.936c.396.664 1.006.97 1.774.892.175-.016.347-.072.528-.13.091-.03.185-.06.282-.087l.085.135c.043.066.087.134.129.206.239.412.477.825.715 1.239.36.623.718 1.245 1.08 1.867.396.675.965.825 1.653.44l.018-.01c.198-.111.396-.223.588-.344.55-.347.715-.918.403-1.483a84.623 84.623 0 00-.847-1.48c-.192-.33-.383-.658-.57-.988-.12-.209-.277-.332-.51-.194-.234.138-.181.341-.064.542.26.447.518.895.777 1.343l.316.548c.272.47.407.704.357.887-.05.18-.284.311-.748.571-.424.238-.578.201-.82-.213a275.799 275.799 0 01-1.764-3.06l-.227-.398c.31-.177.614-.355.916-.532.655-.384 1.3-.762 1.965-1.098a19.905 19.905 0 018.196-2.125c.406-.017.767-.13 1.058-.424.462-.473.537-1.104.19-1.722-.265-.466-.532-.93-.798-1.39l-.001-.002c-.151-.262-.302-.523-.45-.783.8-.89.952-1.764.476-2.626zm-.832 2.008L30.23 18.85h.002c.729-.132 1.275.085 1.587.618.313.532.247 1.14-.234 1.717zm2.351-2.674c.04.032.085.067.13.108.093-.062.186-.122.278-.181.296-.192.583-.378.856-.583.05-.037.025-.265-.041-.343-.067-.077-.256-.138-.338-.098a7.406 7.406 0 00-.974.568c-.075.052-.114.24-.084.34.02.069.089.123.173.189zm.983 2.48a10.558 10.558 0 01-.307-.075.892.892 0 01-.081.058c-.081.053-.177.116-.186.19-.014.129.075.347.18.397.258.12.534.194.817.22.123.008.339-.119.37-.226.031-.107-.092-.332-.203-.383a3.072 3.072 0 00-.59-.18z" fill="#7C2BFF"/></g><g filter="url(#filter2_f_4203_12370)"><path fill-rule="evenodd" clip-rule="evenodd" d="M32.192 15.677c-.064.238-.12.45-.208.648-.044.097-.266.195-.369.164a.417.417 0 01-.223-.339c.035-.294.113-.582.23-.854.043-.101.245-.198.361-.184.081.01.15.09.213.166.028.033.054.064.08.089l-.084.31zm.224 3.5c-.476-.861-1.294-1.174-2.522-.962a.258.258 0 01-.054-.052c-.187-.32-.372-.64-.558-.961-.205-.355-.41-.709-.616-1.062-.63-1.075-1.845-1.114-2.519-.07a20.512 20.512 0 01-5.989 6.066c-.312.205-.386.397-.187.733.533.898 1.053 1.804 1.572 2.71l.4.698c.128.214.272.436.547.279.276-.158.166-.395.042-.61-.567-.978-1.132-1.957-1.697-2.937-.043-.076-.083-.154-.124-.233l-.07-.137.094-.07a5.73 5.73 0 01.15-.11A21.203 21.203 0 0026.66 16.5c.46-.712 1.038-.697 1.462.035 1.471 2.542 2.94 5.084 4.408 7.629.415.719.155 1.235-.663 1.28-2.618.143-5.162.674-7.536 1.796-1.036.49-2.033 1.06-3.03 1.63-.448.256-.895.512-1.346.76-.7.386-1.324.224-1.728-.464-.533-.908-1.06-1.819-1.58-2.732-.401-.703-.223-1.34.48-1.754.561-.33 1.126-.653 1.69-.977l.132-.076c.204-.114.342-.27.21-.505-.131-.234-.334-.197-.538-.078-.22.128-.442.255-.664.381-.433.248-.866.496-1.292.754-.882.54-1.159 1.572-.654 2.48a116.24 116.24 0 001.697 2.936c.396.664 1.006.97 1.774.892.175-.016.347-.072.528-.13.091-.03.185-.06.282-.087l.085.135c.043.066.087.134.129.206.239.412.477.825.715 1.239.36.623.718 1.245 1.08 1.867.396.675.965.825 1.653.44l.018-.01c.198-.111.396-.223.588-.344.55-.347.715-.918.403-1.483a84.623 84.623 0 00-.847-1.48c-.192-.33-.383-.658-.57-.988-.12-.209-.277-.332-.51-.194-.234.138-.181.341-.064.542.26.447.518.895.777 1.343l.316.548c.272.47.407.704.357.887-.05.18-.284.311-.748.571-.424.238-.578.201-.82-.213a275.799 275.799 0 01-1.764-3.06l-.227-.398c.31-.177.614-.355.916-.532.655-.384 1.3-.762 1.965-1.098a19.905 19.905 0 018.196-2.125c.406-.017.767-.13 1.058-.424.462-.473.537-1.104.19-1.722-.265-.466-.532-.93-.798-1.39l-.001-.002c-.151-.262-.302-.523-.45-.783.8-.89.952-1.764.476-2.626zm-.832 2.008L30.23 18.85h.002c.729-.132 1.275.085 1.587.618.313.532.247 1.14-.234 1.717zm2.351-2.674c.04.032.085.067.13.108.093-.062.186-.122.278-.181.296-.192.583-.378.856-.583.05-.037.025-.265-.041-.343-.067-.077-.256-.138-.338-.098a7.406 7.406 0 00-.974.568c-.075.052-.114.24-.084.34.02.069.089.123.173.189zm.983 2.48a10.558 10.558 0 01-.307-.075.892.892 0 01-.081.058c-.081.053-.177.116-.186.19-.014.129.075.347.18.397.258.12.534.194.817.22.123.008.339-.119.37-.226.031-.107-.092-.332-.203-.383a3.072 3.072 0 00-.59-.18z" fill="#7C2BFF"/></g><g filter="url(#filter3_d_4203_12370)"><path fill-rule="evenodd" clip-rule="evenodd" d="M32.192 15.677c-.064.238-.12.45-.208.648-.044.097-.266.195-.369.164a.417.417 0 01-.223-.339c.035-.294.113-.582.23-.854.043-.101.245-.198.361-.184.081.01.15.09.213.166.028.033.054.064.08.089l-.084.31zm.224 3.5c-.476-.861-1.294-1.174-2.522-.962a.258.258 0 01-.054-.052c-.187-.32-.372-.64-.558-.961-.205-.355-.41-.709-.616-1.062-.63-1.075-1.845-1.114-2.519-.07a20.512 20.512 0 01-5.989 6.066c-.312.205-.386.397-.187.733.533.898 1.053 1.804 1.572 2.71l.4.698c.128.214.272.436.547.279.276-.158.166-.395.042-.61-.567-.978-1.132-1.957-1.697-2.937-.043-.076-.083-.154-.124-.233l-.07-.137.094-.07a5.73 5.73 0 01.15-.11A21.203 21.203 0 0026.66 16.5c.46-.712 1.038-.697 1.462.035 1.471 2.542 2.94 5.084 4.408 7.629.415.719.155 1.235-.663 1.28-2.618.143-5.162.674-7.536 1.796-1.036.49-2.033 1.06-3.03 1.63-.448.256-.895.512-1.346.76-.7.386-1.324.224-1.728-.464-.533-.908-1.06-1.819-1.58-2.732-.401-.703-.223-1.34.48-1.754.561-.33 1.126-.653 1.69-.977l.132-.076c.204-.114.342-.27.21-.505-.131-.234-.334-.197-.538-.078-.22.128-.442.255-.664.381-.433.248-.866.496-1.292.754-.882.54-1.159 1.572-.654 2.48a116.24 116.24 0 001.697 2.936c.396.664 1.006.97 1.774.892.175-.016.347-.072.528-.13.091-.03.185-.06.282-.087l.085.135c.043.066.087.134.129.206.239.412.477.825.715 1.239.36.623.718 1.245 1.08 1.867.396.675.965.825 1.653.44l.018-.01c.198-.111.396-.223.588-.344.55-.347.715-.918.403-1.483a84.623 84.623 0 00-.847-1.48c-.192-.33-.383-.658-.57-.988-.12-.209-.277-.332-.51-.194-.234.138-.181.341-.064.542.26.447.518.895.777 1.343l.316.548c.272.47.407.704.357.887-.05.18-.284.311-.748.571-.424.238-.578.201-.82-.213a275.799 275.799 0 01-1.764-3.06l-.227-.398c.31-.177.614-.355.916-.532.655-.384 1.3-.762 1.965-1.098a19.905 19.905 0 018.196-2.125c.406-.017.767-.13 1.058-.424.462-.473.537-1.104.19-1.722-.265-.466-.532-.93-.798-1.39l-.001-.002c-.151-.262-.302-.523-.45-.783.8-.89.952-1.764.476-2.626zm-.832 2.008L30.23 18.85h.002c.729-.132 1.275.085 1.587.618.313.532.247 1.14-.234 1.717zm2.351-2.674c.04.032.085.067.13.108.093-.062.186-.122.278-.181.296-.192.583-.378.856-.583.05-.037.025-.265-.041-.343-.067-.077-.256-.138-.338-.098a7.406 7.406 0 00-.974.568c-.075.052-.114.24-.084.34.02.069.089.123.173.189zm.983 2.48a10.558 10.558 0 01-.307-.075.892.892 0 01-.081.058c-.081.053-.177.116-.186.19-.014.129.075.347.18.397.258.12.534.194.817.22.123.008.339-.119.37-.226.031-.107-.092-.332-.203-.383a3.072 3.072 0 00-.59-.18z" fill="#fff"/></g><defs><filter id="filter0_f_4203_12370" x=".761" y=".111" width="49.955" height="49.256" filterUnits="userSpaceOnUse" color-interpolation-filters="sRGB"><feFlood flood-opacity="0" result="BackgroundImageFix"/><feBlend in="SourceGraphic" in2="BackgroundImageFix" result="shape"/><feGaussianBlur stdDeviation="7.5" result="effect1_foregroundBlur_4203_12370"/></filter><filter id="filter1_f_4203_12370" x="5.761" y="5.111" width="39.955" height="39.256" filterUnits="userSpaceOnUse" color-interpolation-filters="sRGB"><feFlood flood-opacity="0" result="BackgroundImageFix"/><feBlend in="SourceGraphic" in2="BackgroundImageFix" result="shape"/><feGaussianBlur stdDeviation="5" result="effect1_foregroundBlur_4203_12370"/></filter><filter id="filter2_f_4203_12370" x="10.761" y="10.111" width="29.955" height="29.256" filterUnits="userSpaceOnUse" color-interpolation-filters="sRGB"><feFlood flood-opacity="0" result="BackgroundImageFix"/><feBlend in="SourceGraphic" in2="BackgroundImageFix" result="shape"/><feGaussianBlur stdDeviation="2.5" result="effect1_foregroundBlur_4203_12370"/></filter><filter id="filter3_d_4203_12370" x="11.761" y="15.111" width="27.955" height="27.256" filterUnits="userSpaceOnUse" color-interpolation-filters="sRGB"><feFlood flood-opacity="0" result="BackgroundImageFix"/><feColorMatrix in="SourceAlpha" values="0 0 0 0 0 0 0 0 0 0 0 0 0 0 0 0 0 0 127 0" result="hardAlpha"/><feOffset dy="4"/><feGaussianBlur stdDeviation="2"/><feComposite in2="hardAlpha" operator="out"/><feColorMatrix values="0 0 0 0 0 0 0 0 0 0 0 0 0 0 0 0 0 0 0.75 0"/><feBlend in2="BackgroundImageFix" result="effect1_dropShadow_4203_12370"/><feBlend in="SourceGraphic" in2="effect1_dropShadow_4203_12370" result="shape"/></filter></defs></svg>