<svg width="46" height="40" fill="none" xmlns="http://www.w3.org/2000/svg"><path d="M40.772 7.066l4.604-1.286.225.23c-1.27 1.317-2.48 2.686-3.832 3.92-.582.54-.835 1.02-.832 1.83.031 12.247-7.699 23.188-18.862 26.487C14.38 40.523 7 39.592.059 35.407c2.33-.325 4.66-.505 6.918-1.006 2.315-.514 4.407-1.658 6.448-3.315-2.095-.23-3.882-.817-5.41-2.046a9.37 9.37 0 01-3.252-4.738h3.65c-4.25-1.803-6.675-4.842-6.988-9.615l3.717 1.047.199-.23C1.567 11.896.327 7.787 2.789 2.75c5.164 6.094 11.497 9.548 19.387 10.072 0-1.31-.153-2.537.03-3.717.572-3.69 2.646-6.26 6.046-7.538C31.65.29 34.858.894 37.636 3.299c.677.583 1.227.737 2 .433 1.526-.602 3.061-1.183 4.666-1.8-.593 2.141-1.981 3.64-3.53 5.134z" fill="#fff"/></svg>