<svg width="20" height="17" fill="none" xmlns="http://www.w3.org/2000/svg"><path fill-rule="evenodd" clip-rule="evenodd" d="M9.495 4.287l.042.692-.7-.085c-2.546-.325-4.77-1.426-6.659-3.277L1.255.7l-.238.678c-.504 1.512-.182 3.107.867 4.18.56.594.434.679-.531.326-.336-.113-.63-.198-.658-.156-.098.1.238 1.384.504 1.893.364.706 1.105 1.398 1.916 1.808l.686.325-.811.014c-.784 0-.812.014-.728.31.28.918 1.385 1.893 2.616 2.317l.868.296-.756.452a7.877 7.877 0 01-3.75 1.045c-.629.014-1.146.07-1.146.113 0 .141 1.706.932 2.7 1.243 2.98.918 6.519.523 9.177-1.045 1.889-1.116 3.777-3.333 4.658-5.48.476-1.144.952-3.234.952-4.237 0-.65.042-.734.825-1.511.462-.452.896-.946.98-1.088.14-.268.125-.268-.588-.028-1.19.424-1.357.367-.77-.268.434-.452.952-1.271.952-1.511 0-.043-.21.028-.448.155-.252.141-.811.353-1.231.48l-.755.24-.686-.466c-.378-.254-.91-.537-1.19-.621-.713-.198-1.804-.17-2.447.056-1.749.636-2.854 2.274-2.728 4.068z" fill="#7C2BFF"/></svg>