<svg width="51" height="47" fill="none" xmlns="http://www.w3.org/2000/svg"><g filter="url(#filter0_f_4203_12371)"><path fill-rule="evenodd" clip-rule="evenodd" d="M27.596 15.855l-.18 1.19c-.125.822-.25 1.65-.377 2.475l-1.61 10.535c-.101.668-.393 1.002-.866.945-.504-.058-.733-.447-.63-1.13.506-3.345 1.015-6.69 1.53-10.033.196-1.291.393-2.582.592-3.873a2.73 2.73 0 01.078-.384.74.74 0 01.845-.535.773.773 0 01.618.81zm6.391 7.158a3833.75 3833.75 0 01-3.954-4.193 2.383 2.383 0 01-.28-.326.746.746 0 011.048-1.017c.115.087.22.186.315.295 1.428 1.51 2.854 3.02 4.279 4.533.534.567.532.866-.009 1.435-1.424 1.513-2.85 3.024-4.278 4.534a2.44 2.44 0 01-.252.246.746.746 0 01-1.074-1.023c.098-.123.203-.24.315-.35l3.606-3.819c.066-.07.132-.145.21-.233l.074-.082zm-12.535 4.21a4814.35 4814.35 0 00-3.957-4.195l.069-.08c.056-.066.104-.122.157-.174a966.98 966.98 0 003.765-3.995c.13-.14.268-.302.32-.48.102-.345-.02-.65-.332-.841-.313-.192-.686-.127-.988.192-1.511 1.593-3.017 3.19-4.519 4.79-.384.406-.375.765.01 1.175 1.496 1.589 2.993 3.177 4.492 4.763.06.068.129.13.203.184a.763.763 0 00.94-.079.753.753 0 00.117-.933 2.321 2.321 0 00-.277-.327z" fill="#7C2BFF"/></g><g filter="url(#filter1_f_4203_12371)"><path fill-rule="evenodd" clip-rule="evenodd" d="M27.596 15.855l-.18 1.19c-.125.822-.25 1.65-.377 2.475l-1.61 10.535c-.101.668-.393 1.002-.866.945-.504-.058-.733-.447-.63-1.13.506-3.345 1.015-6.69 1.53-10.033.196-1.29.393-2.582.592-3.873a2.73 2.73 0 01.078-.384.74.74 0 01.845-.534.773.773 0 01.618.81zm6.391 7.158a3833.75 3833.75 0 01-3.954-4.193 2.383 2.383 0 01-.28-.326.746.746 0 011.048-1.017c.115.087.22.186.315.295 1.428 1.51 2.854 3.02 4.279 4.533.534.567.532.866-.009 1.436-1.424 1.512-2.85 3.023-4.278 4.533a2.44 2.44 0 01-.252.246.746.746 0 01-1.074-1.023c.098-.123.203-.24.315-.35l3.606-3.819c.066-.07.132-.144.21-.233l.074-.082zm-12.535 4.21a4814.35 4814.35 0 00-3.957-4.195l.069-.08c.056-.066.104-.122.157-.174a966.98 966.98 0 003.765-3.995c.13-.14.268-.302.32-.48.102-.345-.02-.65-.332-.841-.313-.192-.686-.127-.988.192-1.511 1.593-3.017 3.19-4.519 4.791-.384.405-.375.764.01 1.174 1.496 1.589 2.993 3.177 4.492 4.763.06.068.129.13.203.184a.763.763 0 00.94-.078.753.753 0 00.117-.934 2.321 2.321 0 00-.277-.327z" fill="#7C2BFF"/></g><g filter="url(#filter2_f_4203_12371)"><path fill-rule="evenodd" clip-rule="evenodd" d="M27.596 15.855l-.18 1.19c-.125.822-.25 1.65-.377 2.475l-1.61 10.535c-.101.668-.393 1.002-.866.945-.504-.058-.733-.447-.63-1.13.506-3.345 1.015-6.69 1.53-10.033.196-1.29.393-2.582.592-3.873a2.73 2.73 0 01.078-.384.74.74 0 01.845-.534.773.773 0 01.618.81zm6.391 7.158a3833.75 3833.75 0 01-3.954-4.193 2.383 2.383 0 01-.28-.326.746.746 0 011.048-1.017c.115.087.22.186.315.295 1.428 1.51 2.854 3.02 4.279 4.533.534.567.532.866-.009 1.436-1.424 1.512-2.85 3.023-4.278 4.533a2.44 2.44 0 01-.252.246.746.746 0 01-1.074-1.023c.098-.123.203-.24.315-.35l3.606-3.819c.066-.07.132-.144.21-.233l.074-.082zm-12.535 4.21a4814.35 4814.35 0 00-3.957-4.195l.069-.08c.056-.066.104-.122.157-.174a966.98 966.98 0 003.765-3.995c.13-.14.268-.302.32-.48.102-.345-.02-.65-.332-.841-.313-.192-.686-.127-.988.192-1.511 1.593-3.017 3.19-4.519 4.791-.384.405-.375.764.01 1.174 1.496 1.589 2.993 3.177 4.492 4.763.06.068.129.13.203.184a.763.763 0 00.94-.078.753.753 0 00.117-.934 2.321 2.321 0 00-.277-.327z" fill="#7C2BFF"/></g><g filter="url(#filter3_d_4203_12371)"><path fill-rule="evenodd" clip-rule="evenodd" d="M27.596 15.855l-.18 1.19c-.125.822-.25 1.65-.377 2.475l-1.61 10.535c-.101.668-.393 1.002-.866.945-.504-.058-.733-.447-.63-1.13.506-3.345 1.015-6.69 1.53-10.033.196-1.291.393-2.582.592-3.873a2.73 2.73 0 01.078-.384.74.74 0 01.845-.535.773.773 0 01.618.81zm6.391 7.158a3833.75 3833.75 0 01-3.954-4.193 2.383 2.383 0 01-.28-.326.746.746 0 011.048-1.017c.115.087.22.186.315.295 1.428 1.51 2.854 3.02 4.279 4.533.534.567.532.866-.009 1.435-1.424 1.513-2.85 3.024-4.278 4.534a2.44 2.44 0 01-.252.246.746.746 0 01-1.074-1.023c.098-.123.203-.24.315-.35l3.606-3.819c.066-.07.132-.145.21-.233l.074-.082zm-12.535 4.21a4814.35 4814.35 0 00-3.957-4.195l.069-.08c.056-.066.104-.122.157-.174a966.98 966.98 0 003.765-3.995c.13-.14.268-.302.32-.48.102-.345-.02-.65-.332-.841-.313-.192-.686-.127-.988.192-1.511 1.593-3.017 3.19-4.519 4.79-.384.406-.375.765.01 1.175 1.496 1.589 2.993 3.177 4.492 4.763.06.068.129.13.203.184a.763.763 0 00.94-.079.753.753 0 00.117-.933 2.321 2.321 0 00-.277-.327z" fill="#fff"/></g><defs><filter id="filter0_f_4203_12371" x=".683" y=".034" width="50.11" height="45.972" filterUnits="userSpaceOnUse" color-interpolation-filters="sRGB"><feFlood flood-opacity="0" result="BackgroundImageFix"/><feBlend in="SourceGraphic" in2="BackgroundImageFix" result="shape"/><feGaussianBlur stdDeviation="7.5" result="effect1_foregroundBlur_4203_12371"/></filter><filter id="filter1_f_4203_12371" x="5.683" y="5.034" width="40.11" height="35.972" filterUnits="userSpaceOnUse" color-interpolation-filters="sRGB"><feFlood flood-opacity="0" result="BackgroundImageFix"/><feBlend in="SourceGraphic" in2="BackgroundImageFix" result="shape"/><feGaussianBlur stdDeviation="5" result="effect1_foregroundBlur_4203_12371"/></filter><filter id="filter2_f_4203_12371" x="10.683" y="10.034" width="30.11" height="25.972" filterUnits="userSpaceOnUse" color-interpolation-filters="sRGB"><feFlood flood-opacity="0" result="BackgroundImageFix"/><feBlend in="SourceGraphic" in2="BackgroundImageFix" result="shape"/><feGaussianBlur stdDeviation="2.5" result="effect1_foregroundBlur_4203_12371"/></filter><filter id="filter3_d_4203_12371" x="11.683" y="15.034" width="28.11" height="23.972" filterUnits="userSpaceOnUse" color-interpolation-filters="sRGB"><feFlood flood-opacity="0" result="BackgroundImageFix"/><feColorMatrix in="SourceAlpha" values="0 0 0 0 0 0 0 0 0 0 0 0 0 0 0 0 0 0 127 0" result="hardAlpha"/><feOffset dy="4"/><feGaussianBlur stdDeviation="2"/><feComposite in2="hardAlpha" operator="out"/><feColorMatrix values="0 0 0 0 0 0 0 0 0 0 0 0 0 0 0 0 0 0 0.75 0"/><feBlend in2="BackgroundImageFix" result="effect1_dropShadow_4203_12371"/><feBlend in="SourceGraphic" in2="effect1_dropShadow_4203_12371" result="shape"/></filter></defs></svg>