<svg width="23" height="17" fill="none" xmlns="http://www.w3.org/2000/svg"><path fill-rule="evenodd" clip-rule="evenodd" d="M22.354 2.529a2.826 2.826 0 00-1.968-2.02C18.65.03 11.69.03 11.69.03s-6.961 0-8.697.477A2.826 2.826 0 001.024 2.53C.559 4.311.559 8.031.559 8.031s0 3.718.465 5.501a2.827 2.827 0 001.968 2.021c1.736.477 8.697.477 8.697.477s6.961 0 8.697-.477a2.827 2.827 0 001.968-2.02c.466-1.784.466-5.502.466-5.502s0-3.72-.466-5.502z" fill="#7C2BFF"/><path fill-rule="evenodd" clip-rule="evenodd" d="M9.602 11.857V4.9l5.565 3.479-5.565 3.478z" fill="#1B1B1B"/></svg>