<svg width="20" height="20" viewBox="0 0 20 20" fill="none" xmlns="http://www.w3.org/2000/svg">
<path fill-rule="evenodd" clip-rule="evenodd" d="M18.979 4.36296C18.9532 4.33225 18.9106 4.32183 18.8743 4.33858C18.3361 4.57957 17.77 4.75282 17.1869 4.85518C17.8059 4.3851 18.2672 3.73415 18.5037 2.98773C18.5151 2.952 18.5033 2.91292 18.4744 2.88966C18.4453 2.8664 18.4049 2.86342 18.373 2.88259C17.6758 3.29999 16.9206 3.59421 16.1276 3.75741C15.4248 3.02123 14.4435 2.6001 13.4278 2.6001C11.3623 2.6001 9.68211 4.29615 9.68211 6.38096C9.68211 6.63311 9.70626 6.88285 9.75419 7.12533C6.89336 6.94705 4.21836 5.56066 2.3995 3.30874C2.38088 3.28567 2.35268 3.27282 2.32318 3.2758C2.29387 3.27804 2.26769 3.29478 2.25294 3.32028C1.9211 3.89493 1.74578 4.5524 1.74578 5.22122C1.74578 6.3804 2.2675 7.4642 3.15591 8.17936C2.69853 8.12391 2.25183 7.97857 1.84902 7.75283C1.82192 7.73739 1.78818 7.73758 1.76108 7.75339C1.73398 7.76902 1.71683 7.79806 1.7161 7.82969L1.71573 7.87808C1.71573 9.54287 2.8025 11.0046 4.3487 11.49C3.94145 11.5562 3.51891 11.5517 3.10356 11.4717C3.07295 11.466 3.04088 11.4766 3.01986 11.5004C2.99903 11.5242 2.99202 11.5575 3.00161 11.5877C3.46526 13.0485 4.75354 14.0729 6.25309 14.2006C5.00224 15.1257 3.5237 15.613 1.96147 15.613C1.67369 15.613 1.38389 15.5957 1.09998 15.5621C1.05942 15.5574 1.01923 15.5818 1.00522 15.621C0.991209 15.6607 1.00614 15.705 1.04117 15.7275C2.73171 16.8219 4.68643 17.4001 6.69425 17.4001C13.2619 17.4001 17.1865 12.0149 17.1865 6.80878C17.1865 6.66382 17.1837 6.51959 17.178 6.37574C17.8865 5.85264 18.4947 5.21229 18.9851 4.47108C19.007 4.43796 19.0046 4.39385 18.979 4.36296Z" fill="white"/>
</svg>
