<svg width="32" height="32" fill="none" xmlns="http://www.w3.org/2000/svg"><g clip-path="url(#clip0_260_2348)"><path fill-rule="evenodd" clip-rule="evenodd" d="M16 0a16 16 0 1016 16A16.018 16.018 0 0016 0zm13.818 15.273h-5.09c-.219-4.778-2.249-9.666-5.644-12.735a13.847 13.847 0 0110.734 12.735zM14.545 2.909v12.364h-5.09c.208-4.56 2.005-9.818 5.09-12.364zm0 14.546V29.09c-2.87-2.531-4.677-7.564-5.09-11.637h5.09zm2.182 11.636V17.454h5.805c-.477 4.139-2.61 9.099-5.805 11.637zm0-13.818V2.909c3.435 2.538 5.578 7.746 5.819 12.364h-5.819zM12.474 2.654c-3.188 3.019-5.002 7.782-5.2 12.619H2.217A13.797 13.797 0 0112.474 2.654zM2.26 17.454h5.004c.405 4.451 2.015 8.67 5.1 11.637A13.128 13.128 0 012.26 17.454zm16.654 12.052a19.225 19.225 0 005.813-12.052h5.091a13.911 13.911 0 01-10.904 12.052z" fill="#fff"/></g><defs><clipPath id="clip0_260_2348"><path fill="#fff" d="M0 0h32v32H0z"/></clipPath></defs></svg>