<svg width="710" height="211" fill="none" xmlns="http://www.w3.org/2000/svg"><circle cx="96.5" cy="107.5" r="86" stroke="#FF3DB2" stroke-width="17"/><path d="M179.006 118.484a29.47 29.47 0 00-2.478-10.089c-1.298-3.186-3.127-5.9-5.487-8.142-2.242-2.36-4.956-4.189-8.142-5.487-3.068-1.416-6.49-2.124-10.266-2.124-3.894 0-7.434.708-10.62 2.124-3.068 1.298-5.723 3.127-7.965 5.487-2.242 2.36-4.012 5.133-5.31 8.319-1.298 3.068-2.065 6.372-2.301 9.912h52.569zm14.514 25.488c-2.006 10.266-6.431 17.995-13.275 23.187s-15.458 7.788-25.842 7.788c-7.316 0-13.688-1.18-19.116-3.54-5.31-2.36-9.794-5.664-13.452-9.912-3.658-4.248-6.431-9.322-8.319-15.222-1.77-5.9-2.773-12.331-3.009-19.293 0-6.962 1.062-13.334 3.186-19.116 2.124-5.782 5.074-10.797 8.85-15.045 3.894-4.248 8.437-7.552 13.629-9.912 5.31-2.36 11.092-3.54 17.346-3.54 8.142 0 14.868 1.711 20.178 5.133 5.428 3.304 9.735 7.552 12.921 12.744 3.304 5.192 5.546 10.856 6.726 16.992 1.298 6.136 1.829 11.977 1.593 17.523h-68.499c-.118 4.012.354 7.847 1.416 11.505a26.814 26.814 0 005.133 9.558c2.36 2.714 5.369 4.897 9.027 6.549 3.658 1.652 7.965 2.478 12.921 2.478 6.372 0 11.564-1.475 15.576-4.425 4.13-2.95 6.844-7.434 8.142-13.452h14.868zM245.578 173h-16.107l-33.984-91.509h16.815l25.665 76.287h.354l24.957-76.287h15.753L245.578 173zm104.607-54.516a29.47 29.47 0 00-2.478-10.089c-1.298-3.186-3.127-5.9-5.487-8.142-2.242-2.36-4.956-4.189-8.142-5.487-3.068-1.416-6.49-2.124-10.266-2.124-3.894 0-7.434.708-10.62 2.124-3.068 1.298-5.723 3.127-7.965 5.487-2.242 2.36-4.012 5.133-5.31 8.319-1.298 3.068-2.065 6.372-2.301 9.912h52.569zm14.514 25.488c-2.006 10.266-6.431 17.995-13.275 23.187s-15.458 7.788-25.842 7.788c-7.316 0-13.688-1.18-19.116-3.54-5.31-2.36-9.794-5.664-13.452-9.912-3.658-4.248-6.431-9.322-8.319-15.222-1.77-5.9-2.773-12.331-3.009-19.293 0-6.962 1.062-13.334 3.186-19.116 2.124-5.782 5.074-10.797 8.85-15.045 3.894-4.248 8.437-7.552 13.629-9.912 5.31-2.36 11.092-3.54 17.346-3.54 8.142 0 14.868 1.711 20.178 5.133 5.428 3.304 9.735 7.552 12.921 12.744 3.304 5.192 5.546 10.856 6.726 16.992 1.298 6.136 1.829 11.977 1.593 17.523h-68.499c-.118 4.012.354 7.847 1.416 11.505a26.814 26.814 0 005.133 9.558c2.36 2.714 5.369 4.897 9.027 6.549 3.658 1.652 7.965 2.478 12.921 2.478 6.372 0 11.564-1.475 15.576-4.425 4.13-2.95 6.844-7.434 8.142-13.452h14.868zm13.117-97.35h17.877l66.552 102.483h.354V46.622h15.93V173h-18.408L394.1 71.579h-.354V173h-15.93V46.622zM560.6 118.484a29.47 29.47 0 00-2.478-10.089c-1.298-3.186-3.127-5.9-5.487-8.142-2.242-2.36-4.956-4.189-8.142-5.487-3.068-1.416-6.49-2.124-10.266-2.124-3.894 0-7.434.708-10.62 2.124-3.068 1.298-5.723 3.127-7.965 5.487-2.242 2.36-4.012 5.133-5.31 8.319-1.298 3.068-2.065 6.372-2.301 9.912H560.6zm14.514 25.488c-2.006 10.266-6.431 17.995-13.275 23.187s-15.458 7.788-25.842 7.788c-7.316 0-13.688-1.18-19.116-3.54-5.31-2.36-9.794-5.664-13.452-9.912-3.658-4.248-6.431-9.322-8.319-15.222-1.77-5.9-2.773-12.331-3.009-19.293 0-6.962 1.062-13.334 3.186-19.116 2.124-5.782 5.074-10.797 8.85-15.045 3.894-4.248 8.437-7.552 13.629-9.912 5.31-2.36 11.092-3.54 17.346-3.54 8.142 0 14.868 1.711 20.178 5.133 5.428 3.304 9.735 7.552 12.921 12.744 3.304 5.192 5.546 10.856 6.726 16.992 1.298 6.136 1.829 11.977 1.593 17.523h-68.499c-.118 4.012.354 7.847 1.416 11.505a26.814 26.814 0 005.133 9.558c2.36 2.714 5.369 4.897 9.027 6.549 3.658 1.652 7.965 2.478 12.921 2.478 6.372 0 11.564-1.475 15.576-4.425 4.13-2.95 6.844-7.434 8.142-13.452h14.868zM676.555 173h-15.93l-18.585-72.747h-.354L623.278 173h-16.284l-29.382-91.509h16.638l20.709 74.871h.354l18.408-74.871h16.461l19.116 74.871h.354l20.532-74.871h15.576L676.555 173z" fill="#fff"/><ellipse cx="127.218" cy="134.948" rx="15.029" ry="41.806" transform="rotate(-19.66 127.218 134.948)" fill="url(#paint0_radial_35_402)" fill-opacity=".6"/><path d="M31.452 45.622h60.357c13.924 0 24.367 3.009 31.329 9.027 6.962 6.018 10.443 14.396 10.443 25.134 0 6.018-.885 11.033-2.655 15.045-1.77 3.894-3.835 7.08-6.195 9.558-2.36 2.36-4.72 4.071-7.08 5.133-2.242 1.062-3.894 1.77-4.956 2.124v.354c1.888.236 3.894.826 6.018 1.77 2.242.944 4.307 2.478 6.195 4.602 1.888 2.006 3.422 4.661 4.602 7.965 1.298 3.304 1.947 7.434 1.947 12.39 0 7.434.531 14.219 1.593 20.355 1.18 6.018 2.95 10.325 5.31 12.921h-23.718c-1.652-2.714-2.655-5.723-3.009-9.027-.236-3.304-.354-6.49-.354-9.558 0-5.782-.354-10.738-1.062-14.868-.708-4.248-2.006-7.729-3.894-10.443-1.888-2.832-4.484-4.897-7.788-6.195-3.186-1.298-7.316-1.947-12.39-1.947H53.577V172H31.452V45.622zm22.125 57.525h36.285c7.08 0 12.449-1.652 16.107-4.956 3.658-3.422 5.487-8.496 5.487-15.222 0-4.012-.59-7.257-1.77-9.735-1.18-2.596-2.832-4.602-4.956-6.018-2.006-1.416-4.366-2.36-7.08-2.832-2.596-.472-5.31-.708-8.142-.708H53.577v39.471z" fill="#FF3DB2"/><path d="M126 184.5c-4.4-2.4-10.5-11-11.8-14.5l22.8 1.5c1.5 1.5 3 2 6.5 3.5l-17.5 9.5z" fill="#FF3DB2" stroke="#FF3DB2"/><defs><radialGradient id="paint0_radial_35_402" cx="0" cy="0" r="1" gradientUnits="userSpaceOnUse" gradientTransform="matrix(0 41.8057 -15.0292 0 127.218 134.948)"><stop stop-color="#010101"/><stop offset="1" stop-color="#010101" stop-opacity="0"/></radialGradient></defs></svg>