<svg width="496" height="86" fill="none" xmlns="http://www.w3.org/2000/svg"><path d="M217.013 0l-35.019 85.99h-21.62L125.291 0h23.791l22.102 57.754L193.222 0h23.791zm56.073 0v19.546h-31.103V29.5h31.038v19.252h-31.038v17.454h31.103V85.99h-52.723V0h52.723zM121.469 0v85.99H68.746V66.206H99.85V48.75H68.81V29.499h31.038v-9.953H68.746V0h52.723zm288.257 0v85.99h-52.722V66.206h31.103V48.75h-31.038V29.499h31.038v-9.953h-31.103V0h52.722zm63.245 0l-12.675 50.557L445.803 0h-17.992l-14.549 50.557V85.99h8.091l15.459-48.207 15.449 48.207h20.228L495.5 0h-22.529z" fill="#fff"/><path d="M43.34 50.317c3.86-1.557 7.489-3.953 10.022-7.077 3.563-4.498 5.678-10.193 5.678-16.671 0-10.073-4.713-17.934-11.895-22.431C42.793 1.382 37.54 0 29.933 0H.5v19.73h27.679c2.598 0 3.86.185 4.955.664 2.598 1.078 4.528 3.18 4.528 6.175 0 2.995-2.05 5.16-4.528 6.174-1.15.48-2.357.664-4.955.664H.5v19.61h20.2L39.778 86h25.117L43.341 50.317zM300.282.055V46.98L339.466.056h12.128v85.52h-21.49V37.333l-39.129 48.244h-12.193V.055h21.5z" fill="#FF3DB2"/></svg>