<svg width="235" height="85" viewBox="0 0 235 85" fill="none" xmlns="http://www.w3.org/2000/svg">
<path d="M136.243 60.5283C127.929 67.0287 115.588 70.9112 104.817 71.4757C89.7147 72.2672 75.8402 67.6692 65.0912 59.3759C64.2467 58.7237 64.9211 57.7392 65.9193 58.2292C77.3418 63.7878 91.2609 66.7624 105.439 66.0194C115.001 65.5183 125.421 63.0862 134.889 58.6763C136.319 58.0097 137.619 59.4454 136.243 60.5283Z" fill="black" fill-opacity="0.8"/>
<path d="M139.829 55.9247C138.609 54.564 132.191 55.6519 129.311 56.1362C128.433 56.2867 128.259 55.5508 129.027 54.9747C133.986 51.2054 142.477 51.7733 143.523 52.8949C144.569 54.023 143.757 62.2672 139.129 66.4244C138.419 67.0628 137.695 66.7806 137.983 65.9681C138.931 63.2913 141.057 57.2916 139.829 55.9247Z" fill="black" fill-opacity="0.8"/>
<path d="M128.125 30.5351L127.941 27.0241C127.913 26.4927 128.302 26.1149 128.792 26.0892L144.669 25.2571C145.179 25.2304 145.605 25.5723 145.633 26.0969L145.79 29.1035C145.81 29.6083 145.417 30.2899 144.71 31.3723L137.092 43.433C140.146 43.1988 143.396 43.4803 146.249 44.882C146.893 45.199 147.089 45.7013 147.163 46.2033L147.36 49.9497C147.387 50.4609 146.847 51.0894 146.233 50.8114C141.215 48.5316 134.713 48.5959 129.46 51.7174C128.925 52.0422 128.317 51.4806 128.29 50.9694L128.104 47.4112C128.074 46.8395 128.029 45.8639 128.561 44.9659L137.384 30.9334L129.089 31.3682C128.579 31.3949 128.153 31.0598 128.125 30.5351Z" fill="black" fill-opacity="0.8"/>
<path d="M74.9203 54.6551L70.4553 54.8891C70.0266 54.8792 69.6703 54.5679 69.6169 54.15L68.3827 30.6011C68.3581 30.13 68.7215 29.7356 69.1988 29.7106L73.3623 29.4924C73.7966 29.4891 74.1599 29.813 74.2136 30.2373L74.3749 33.3156L74.4566 33.3114C75.3871 30.2793 77.3553 28.7849 80.1058 28.6407C82.9003 28.4943 84.7188 29.7903 86.1307 32.6995C87.0549 29.6679 89.4376 28.1517 92.0688 28.0138C93.9402 27.9157 96.029 28.6022 97.372 30.3179C98.8888 32.2251 98.7508 35.1185 98.883 37.6418L99.6556 52.5046C99.6803 52.9757 99.3172 53.3765 98.8399 53.4016L94.3813 53.6352C93.9338 53.6263 93.5565 53.2772 93.5329 52.8255L92.8787 40.3444C92.8267 39.3505 92.7847 36.8678 92.5218 35.9367C92.1061 34.3731 91.0843 33.9801 89.7907 34.0479C88.7105 34.1045 87.6191 34.9059 87.2229 36.1174C86.8267 37.3288 86.9748 39.3142 87.0448 40.6501L87.6989 53.1312C87.7236 53.6023 87.3605 54.0032 86.8832 54.0282L82.4246 54.2618C81.9708 54.2533 81.5998 53.9039 81.5761 53.4521L80.9158 40.9713C80.7781 38.3447 80.9963 34.457 77.825 34.6232C74.616 34.7914 74.9391 38.5537 75.0818 41.2771L75.736 53.7582C75.7606 54.2293 75.3975 54.6301 74.9203 54.6551Z" fill="black" fill-opacity="0.8"/>
<path d="M158.079 24.5543C165.035 24.1897 169.109 29.8936 169.503 37.3971C169.883 44.6466 166.023 50.6161 159.463 50.9599C152.632 51.3179 148.603 45.6116 148.218 38.2579C147.83 30.8586 151.294 24.9099 158.079 24.5543ZM158.373 29.4047C154.918 29.5858 154.944 34.2478 155.096 37.1463C155.248 40.0514 155.527 46.2546 159.206 46.0618C162.839 45.8714 162.748 40.86 162.589 37.8117C162.483 35.8056 162.272 33.4131 161.559 31.5433C160.945 29.9165 159.863 29.3267 158.373 29.4047Z" fill="black" fill-opacity="0.8"/>
<path d="M179.068 49.1966L174.623 49.4295C174.176 49.4206 173.799 49.0715 173.775 48.6197L172.534 25.0647C172.549 24.6303 172.902 24.2753 173.354 24.2517L177.491 24.0348C177.881 24.0338 178.215 24.2881 178.323 24.6513L178.511 28.2524L178.593 28.2481C179.674 24.9623 181.344 23.3346 184.427 23.1731C186.429 23.0681 188.421 23.7079 189.783 25.675C191.049 27.4982 191.215 30.6669 191.335 32.945L192.112 47.7688C192.083 48.1844 191.73 48.533 191.29 48.556L186.814 48.7906C186.405 48.7797 186.049 48.4877 185.984 48.0899L185.314 35.299C185.179 32.724 185.27 28.94 182.188 29.1016C181.102 29.1585 180.143 29.9594 179.707 31.1212C179.154 32.5933 179.148 34.0302 179.231 35.6178L179.896 48.299C179.914 48.7704 179.545 49.1716 179.068 49.1966Z" fill="black" fill-opacity="0.8"/>
<path d="M116.67 41.5179L116.617 40.517C113.401 40.6856 110.04 41.5786 110.246 45.517C110.351 47.5122 111.417 48.8119 113.125 48.7224C114.377 48.6568 115.455 47.7987 116.094 46.4618C116.887 44.8171 116.764 43.3181 116.67 41.5179ZM121.747 52.5456C121.467 52.834 121.043 52.8758 120.701 52.7112C119.158 51.5148 118.864 50.9371 117.987 49.7644C115.682 52.479 113.995 53.3429 110.828 53.5088C107.086 53.7049 104.044 51.4596 103.793 46.6568C103.596 42.9069 105.421 40.2501 108.14 38.8563C110.498 37.6249 113.861 37.2532 116.423 36.8126L116.392 36.2147C116.334 35.1163 116.347 33.8123 115.678 32.8959C115.089 32.073 114.032 31.7765 113.118 31.8244C111.422 31.9133 109.955 32.896 109.684 34.7871C109.631 35.207 109.358 35.6318 108.959 35.6723L104.615 35.4177C104.248 35.3522 103.832 35.0677 103.901 34.4841C104.612 28.9987 109.251 27.1134 113.481 26.8917C115.646 26.7782 118.506 27.2278 120.304 28.8411C122.579 30.8268 122.519 33.6387 122.679 36.6867L123.056 43.8877C123.17 46.0519 124.083 46.9555 124.958 48.0827C125.268 48.4835 125.357 48.9807 125.01 49.3116C124.144 50.1456 122.606 51.6925 121.76 52.5579L121.747 52.5456" fill="black" fill-opacity="0.8"/>
<path d="M56.9754 44.6465L56.9229 43.6457C53.5954 43.8201 50.1176 44.7192 50.324 48.6576C50.4286 50.6528 51.5287 51.9507 53.2961 51.8581C54.5908 51.7902 55.7077 50.9301 56.3712 49.5919C57.1937 47.9457 57.0697 46.4468 56.9754 44.6465ZM62.2073 55.6661C61.9173 55.955 61.4781 55.9976 61.1255 55.8336C59.5309 54.6399 59.228 54.0627 58.3228 52.8915C55.9336 55.6104 54.1873 56.4775 50.9116 56.6491C47.0403 56.852 43.8978 54.612 43.6461 49.8092C43.4496 46.0592 45.342 43.3989 48.1575 42.0001C50.5984 40.7643 54.0776 40.3865 56.7288 39.9412L56.6974 39.3433C56.6399 38.245 56.6559 36.9408 55.9653 36.0255C55.3574 35.2036 54.2644 34.909 53.3192 34.9585C51.5648 35.0505 50.0455 36.036 49.7617 37.9277C49.7058 38.3477 49.423 38.7731 49.0097 38.8143L44.5176 38.5675C44.1377 38.5027 43.7073 38.2189 43.7806 37.6351C44.5252 32.1479 49.3271 30.254 53.7033 30.0247C55.9432 29.9073 58.9007 30.3518 60.7573 31.962C63.1072 33.9438 63.0404 36.7561 63.2001 39.8041L63.5775 47.0051C63.6909 49.1692 64.634 50.0713 65.5369 51.197C65.8565 51.5973 65.9475 52.0944 65.5884 52.426C64.6909 53.2616 63.0973 54.8114 62.2209 55.6785L62.2073 55.6661" fill="black" fill-opacity="0.8"/>
</svg>
