<svg width="150" height="45" viewBox="0 0 150 45" fill="none" xmlns="http://www.w3.org/2000/svg">
<path d="M92.7619 35.6504C84.1191 41.7068 71.5918 44.9381 60.806 44.9381C45.6827 44.9381 32.0678 39.6203 21.7676 30.7757C20.9583 30.0802 21.6834 29.1324 22.6545 29.674C33.7704 35.8227 47.5148 39.5218 61.7124 39.5218C71.2875 39.5218 81.8208 37.6384 91.5059 33.7301C92.9691 33.1392 94.1927 34.641 92.7619 35.6504Z" fill="black" fill-opacity="0.8"/>
<path d="M96.5837 31.2408C95.4364 29.8181 88.9707 30.5686 86.0685 30.9015C85.1844 31.0059 85.0494 30.2619 85.8458 29.7267C90.9954 26.2221 99.4454 27.2337 100.431 28.4084C101.416 29.5897 100.174 37.7802 95.3351 41.6894C94.5927 42.2899 93.8841 41.9701 94.2148 41.1739C95.3014 38.5503 97.7379 32.6701 96.5837 31.2408" fill="black" fill-opacity="0.8"/>
<path d="M86.2247 5.27345V1.7576C86.2247 1.2255 86.6329 0.86853 87.1227 0.86853H103.022C103.532 0.86853 103.94 1.23224 103.94 1.7576V4.7683C103.934 5.27345 103.505 5.93352 102.743 6.9775L94.5043 18.6229C97.5658 18.5488 100.797 19.0001 103.573 20.5492C104.199 20.8995 104.369 21.4114 104.417 21.9165V25.6681C104.417 26.18 103.845 26.7794 103.247 26.4696C98.355 23.9304 91.8578 23.6542 86.4492 26.4966C85.8981 26.7929 85.3198 26.2002 85.3198 25.6883V22.1253C85.3198 21.5528 85.3266 20.5762 85.9049 19.7073L95.45 6.15578H87.1431C86.6329 6.15578 86.2247 5.79881 86.2247 5.27345" fill="black" fill-opacity="0.8"/>
<path d="M31.8302 26.5759H27.3592C26.9316 26.5436 26.592 26.214 26.5605 25.7939V2.21271C26.5605 1.74096 26.9441 1.36613 27.4221 1.36613H31.5913C32.0252 1.38551 32.371 1.72803 32.4025 2.15454V5.23711H32.4842C33.5721 2.25794 35.6158 0.86853 38.3702 0.86853C41.1685 0.86853 42.9167 2.25794 44.1743 5.23711C45.2559 2.25794 47.7147 0.86853 50.3496 0.86853C52.2235 0.86853 54.2735 1.6634 55.5249 3.44702C56.9398 5.43097 56.6505 8.3132 56.6505 10.84L56.6442 25.7229C56.6442 26.1946 56.2606 26.5759 55.7827 26.5759H51.318C50.8715 26.5436 50.5131 26.1752 50.5131 25.7229V13.2246C50.5131 12.2294 50.6011 9.74785 50.3873 8.80434C50.054 7.22106 49.0541 6.77515 47.7587 6.77515C46.6771 6.77515 45.5452 7.51832 45.0862 8.7074C44.6271 9.89648 44.6711 11.8869 44.6711 13.2246V25.7229C44.6711 26.1946 44.2875 26.5759 43.8096 26.5759H39.3449C38.8921 26.5436 38.5399 26.1752 38.5399 25.7229L38.5337 13.2246C38.5337 10.5944 38.955 6.72345 35.7793 6.72345C32.566 6.72345 32.6917 10.4975 32.6917 13.2246V25.7229C32.6917 26.1946 32.3081 26.5759 31.8302 26.5759Z" fill="black" fill-opacity="0.8"/>
<path d="M116.45 0.86853C123.416 0.86853 127.186 6.77784 127.186 14.2917C127.186 21.5511 123.02 27.3104 116.45 27.3104C109.61 27.3104 105.886 21.4011 105.886 14.0373C105.886 6.62782 109.656 0.86853 116.45 0.86853M116.49 5.72773C113.03 5.72773 112.812 10.3847 112.812 13.2872C112.812 16.1962 112.766 22.4055 116.45 22.4055C120.088 22.4055 120.26 17.3963 120.26 14.3438C120.26 12.3349 120.174 9.93469 119.56 8.03014C119.032 6.37345 117.982 5.72773 116.49 5.72773" fill="black" fill-opacity="0.8"/>
<path d="M136.121 26.5754H131.67C131.223 26.5431 130.865 26.1747 130.865 25.7224L130.859 2.13467C130.897 1.70169 131.267 1.36565 131.72 1.36565H135.863C136.253 1.38502 136.573 1.65645 136.661 2.02481V5.63082H136.743C137.994 2.40609 139.748 0.868042 142.834 0.868042C144.84 0.868042 146.795 1.61122 148.052 3.64687C149.221 5.53388 149.221 8.70692 149.221 10.9881V25.8322C149.171 26.2458 148.8 26.5754 148.36 26.5754H143.878C143.469 26.5431 143.13 26.2329 143.086 25.8322V13.0238C143.086 10.4453 143.375 6.67126 140.288 6.67126C139.201 6.67126 138.201 7.4209 137.705 8.55828C137.076 9.99939 136.994 11.434 136.994 13.0238V25.7224C136.988 26.1941 136.598 26.5754 136.121 26.5754" fill="black" fill-opacity="0.8"/>
<path d="M74.21 15.6416V14.6394C70.989 14.6394 67.5862 15.3553 67.5862 19.2991C67.5862 21.297 68.5826 22.6507 70.2934 22.6507C71.5467 22.6507 72.6684 21.8502 73.3765 20.5486C74.2538 18.9477 74.21 17.4443 74.21 15.6416M78.7031 26.9199C78.4086 27.1932 77.9824 27.2128 77.6503 27.0306C76.1714 25.755 75.9082 25.1628 75.0936 23.9458C72.6496 26.5359 70.92 27.3104 67.7492 27.3104C64.0018 27.3104 61.0815 24.909 61.0815 20.0996C61.0815 16.3445 63.043 13.7868 65.8316 12.5373C68.2505 11.431 71.6282 11.2357 74.21 10.9298V10.3311C74.21 9.23126 74.2914 7.92967 73.6711 6.97951C73.1259 6.12697 72.0856 5.77554 71.1707 5.77554C69.4725 5.77554 67.956 6.68014 67.5862 8.55444C67.511 8.97095 67.2165 9.38095 66.8154 9.40047L62.4915 8.91888C62.1281 8.83428 61.727 8.5284 61.8273 7.9492C62.8236 2.50854 67.5549 0.86853 71.7911 0.86853C73.9593 0.86853 76.7918 1.46726 78.5026 3.17235C80.6708 5.27442 80.464 8.07935 80.464 11.1316V18.3424C80.464 20.5096 81.3288 21.4597 82.1434 22.6312C82.4317 23.0477 82.4944 23.5488 82.1309 23.8612C81.2223 24.6486 79.6055 26.1129 78.7156 26.9329L78.7031 26.9199" fill="black" fill-opacity="0.8"/>
<path d="M14.4337 15.6419V14.6396C11.1016 14.6396 7.58152 15.3555 7.58152 19.2993C7.58152 21.2973 8.61226 22.6509 10.382 22.6509C11.6786 22.6509 12.8389 21.8505 13.5715 20.5489C14.4791 18.9479 14.4337 17.4446 14.4337 15.6419M19.0817 26.9202C18.7771 27.1935 18.3362 27.213 17.9926 27.0308C16.4627 25.7552 16.1905 25.163 15.3477 23.946C12.8195 26.5362 11.0303 27.3106 7.75007 27.3106C3.87345 27.3106 0.852539 24.9092 0.852539 20.0998C0.852539 16.3447 2.88161 13.7871 5.76638 12.5376C8.26868 11.4312 11.7628 11.236 14.4337 10.9301V10.3314C14.4337 9.23151 14.518 7.92991 13.8762 6.97976C13.3122 6.12721 12.2361 5.77578 11.2896 5.77578C9.5328 5.77578 7.964 6.68039 7.58152 8.55468C7.50373 8.97119 7.19905 9.38119 6.78416 9.40072L2.31113 8.91913C1.93514 8.83453 1.52025 8.52865 1.62397 7.94944C2.65471 2.50879 7.54911 0.868774 11.9314 0.868774C14.1744 0.868774 17.1045 1.46751 18.8743 3.17259C21.1173 5.27467 20.9034 8.0796 20.9034 11.1318V18.3427C20.9034 20.5098 21.798 21.46 22.6407 22.6314C22.9389 23.0479 23.0037 23.549 22.6277 23.8614C21.6878 24.6489 20.0152 26.1132 19.0947 26.9332L19.0817 26.9201" fill="black" fill-opacity="0.8"/>
</svg>
