<svg width="134" height="50" viewBox="0 0 134 50" fill="none" xmlns="http://www.w3.org/2000/svg">
<path fill-rule="evenodd" clip-rule="evenodd" d="M6.76139 49.8509C3.16989 49.846 0.215448 46.8956 0.211426 43.3072V6.56142C0.215448 2.97298 3.16989 0.0225212 6.76139 0.0177002H126.499C130.09 0.0225212 133.045 2.97298 133.049 6.56142V43.3072C133.045 46.8956 130.09 49.846 126.499 49.8509H6.76139Z" fill="black" fill-opacity="0.8"/>
<path fill-rule="evenodd" clip-rule="evenodd" d="M6.76131 1.03943C3.73045 1.04264 1.23771 3.5335 1.2345 6.56109V43.3068C1.23771 46.3344 3.73045 48.8253 6.76131 48.8285H45.243V1.03943H6.76131ZM97.354 34.298L98.1737 33.1482C98.7633 33.7628 99.5805 34.1091 100.433 34.1059C101.264 34.1059 101.669 33.7194 101.669 33.3185C101.669 32.7978 101.008 32.6484 100.231 32.4571C99.0689 32.192 97.5784 31.8762 97.5784 30.2539C97.5784 29.0728 98.6016 28.0933 100.274 28.0933C101.404 28.0933 102.342 28.434 103.046 29.0824L102.203 30.1921C101.634 29.6859 100.896 29.4095 100.135 29.4175C99.4856 29.4175 99.1228 29.706 99.1228 30.1302C99.1228 30.589 99.7743 30.736 100.539 30.9176C101.702 31.1948 103.204 31.5468 103.204 33.1538C103.204 34.453 102.278 35.4325 100.359 35.4325C98.9933 35.4189 98.0128 34.9681 97.354 34.298V34.298ZM90.8772 34.298L91.6969 33.1482C92.2865 33.7628 93.1037 34.1091 93.9564 34.1059C94.7881 34.1059 95.1927 33.7194 95.1927 33.3185C95.1927 32.7978 94.5323 32.6484 93.7553 32.4571C92.5921 32.192 91.1017 31.8762 91.1017 30.2539C91.1017 29.0728 92.1248 28.0933 93.7979 28.0933C94.9272 28.0933 95.8651 28.434 96.5689 29.0824L95.7316 30.1921C95.1637 29.6859 94.4253 29.4095 93.6636 29.4175C93.0144 29.4175 92.6525 29.706 92.6525 30.1302C92.6525 30.589 93.3032 30.736 94.069 30.9176C95.2313 31.1948 96.7338 31.5468 96.7338 33.1538C96.7338 34.453 95.8072 35.4325 93.8888 35.4325C92.5246 35.4189 91.5441 34.9681 90.8772 34.298V34.298ZM67.2843 34.298L68.1048 33.1482C68.6944 33.7628 69.5116 34.1091 70.3643 34.1059C71.1952 34.1059 71.6006 33.7194 71.6006 33.3185C71.6006 32.7978 70.9394 32.6484 70.1624 32.4571C69 32.192 67.5096 31.8762 67.5096 30.2539C67.5096 29.0728 68.5327 28.0933 70.205 28.0933C71.3351 28.0933 72.273 28.434 72.976 29.0824L72.1331 30.1921C71.5652 29.6851 70.8276 29.4087 70.0658 29.4175C69.4167 29.4175 69.0539 29.706 69.0539 30.1302C69.0539 30.589 69.7031 30.736 70.4704 30.9176C71.6335 31.1948 73.1353 31.5468 73.1353 33.1538C73.1353 34.453 72.2087 35.4325 70.2903 35.4325C68.926 35.4189 67.9455 34.9681 67.2843 34.298V34.298ZM59.8705 32.4668V28.1978H61.4205V32.4146C61.4205 33.4037 62.002 34.085 63.0928 34.085C64.1843 34.085 64.7554 33.4037 64.7554 32.4146V28.1978H66.3062V32.4571C66.3062 34.224 65.2613 35.4269 63.0984 35.4269C60.9363 35.4269 59.8705 34.2128 59.8705 32.4668ZM82.1313 35.2991L78.7417 30.6686V35.2991H77.2279V28.1978H78.7787L82.0734 32.6508V28.1978H83.5864V35.2991H82.1313ZM74.2341 35.2991V28.1978H75.7479V35.2991H74.2341ZM85.0729 35.2991V28.1978H90.1115V29.5284H86.5867V31.0285H90.0286V32.3583H86.5867V33.9653H90.1018V35.2951L85.0729 35.2991ZM52.7365 35.2991V28.1978H56.4768C57.833 28.1978 58.5232 29.0599 58.5232 30.0081C58.5232 30.9024 57.969 31.4986 57.2981 31.636C58.0542 31.7525 58.6551 32.4877 58.6551 33.3788C58.6551 34.4434 57.9416 35.2951 56.587 35.2951L52.7365 35.2991ZM57.1163 33.169C57.1163 32.7223 56.7962 32.339 56.1993 32.339H54.2504V33.9886H56.1993C56.7696 33.9886 57.1163 33.6769 57.1163 33.169V33.169ZM56.9788 30.266V30.2636C56.9788 29.8385 56.6289 29.489 56.2034 29.489C56.1849 29.489 56.1664 29.4898 56.1471 29.4914H54.2504V31.0398H56.1471C56.657 31.0398 56.9772 30.7208 56.9772 30.2732L56.9788 30.266ZM59.7595 19.5561C59.7595 17.3746 61.4108 15.8785 63.5424 15.8785C64.7836 15.8439 65.9402 16.5221 66.5154 17.6205L65.2147 18.2593C64.8921 17.6374 64.2535 17.2388 63.5521 17.222C62.2635 17.222 61.3256 18.2111 61.3256 19.5449C61.3256 20.8787 62.2635 21.8678 63.5521 21.8678C64.2567 21.8598 64.9018 21.462 65.2243 20.8361L66.517 21.4805C66.0054 22.3636 65.1101 23.2233 63.5448 23.2233C61.4205 23.2233 59.7595 21.74 59.7595 19.5561V19.5561ZM67.1564 19.5561C67.1564 17.3746 68.8078 15.8785 70.9394 15.8785C72.1805 15.8439 73.3372 16.5221 73.9123 17.6205L72.6117 18.2593C72.2875 17.6341 71.644 17.2356 70.9394 17.222C69.6508 17.222 68.7129 18.2111 68.7129 19.5449C68.7129 20.8787 69.6508 21.8678 70.9394 21.8678C71.644 21.8598 72.2891 21.462 72.6117 20.8361L73.9123 21.4636C73.4007 22.3459 72.5055 23.2056 70.9394 23.2056C68.8102 23.2233 67.1564 21.74 67.1564 19.5561ZM78.9123 23.1028L77.5167 20.5862H76.4083V23.1028H74.8953V16.0022H78.2205C79.7014 16.0022 80.6079 16.9705 80.6079 18.2906C80.6079 19.5465 79.8196 20.2262 79.0579 20.3982L80.6561 23.1084L78.9123 23.1028ZM57.6376 23.1028L57.2016 21.9007H54.153L53.7058 23.1028H51.9788L54.729 16.0022H56.6257L59.3645 23.1028H57.6376ZM111.4 23.1028V16.0022H114.202C116.429 16.0022 117.976 17.4172 117.976 19.5585C117.976 21.6999 116.425 23.1028 114.202 23.1028H111.4ZM105.111 23.1028V16.0022H110.15V17.332H106.624V18.8322H110.063V20.1628H106.624V21.769H110.142V23.0988L105.111 23.1028ZM95.8402 23.1028V16.0022H97.354V23.1028H95.8402ZM88.1118 23.1028V16.0022H90.9142C93.1407 16.0022 94.6867 17.4172 94.6867 19.5585C94.6867 21.6999 93.1367 23.1028 90.9142 23.1028H88.1118ZM81.8233 23.1028V16.0022H86.8618V17.332H83.3363V18.8322H86.7782V20.1628H83.3363V21.769H86.8538V23.0988L81.8233 23.1028ZM100.476 23.1028V17.332H98.3965V16.0022H104.066V17.332H101.999V23.1028H100.476ZM116.438 19.5585C116.438 18.3019 115.663 17.3344 114.212 17.3344H112.923V21.7714H114.212C115.611 21.7714 116.43 20.7606 116.43 19.5561L116.438 19.5585ZM93.1504 19.5585C93.1504 18.3019 92.375 17.3344 90.9239 17.3344H89.6345V21.7714H90.9239C92.3211 21.7714 93.1423 20.7606 93.1423 19.5561L93.1504 19.5585ZM55.6781 17.512L54.5697 20.5669H56.7865L55.6781 17.512ZM79.0554 18.2906C79.0554 17.6944 78.5986 17.332 77.9897 17.332H76.4026V19.2484H77.9897C78.6042 19.2484 79.0554 18.8868 79.0554 18.2906V18.2906Z" fill="#F84F38"/>
<path fill-rule="evenodd" clip-rule="evenodd" d="M16.1316 41.074C17.141 41.5231 17.6373 41.8188 17.8304 43.0715C18.1562 45.2586 16.1412 46.0894 14.2381 46.0894H9.78027V36.5398H14.2767C15.887 36.5398 17.3614 37.2734 17.3614 39.0716C17.3614 39.9707 16.8941 40.6264 16.1316 41.074V41.074ZM25.0584 41.074C26.0671 41.5231 26.5634 41.8188 26.7565 43.0715C27.0822 45.2586 25.0649 46.0894 23.1641 46.0894H18.7063V36.5398H23.2028C24.8131 36.5398 26.2875 37.2734 26.2875 39.0716C26.2875 39.9707 25.8202 40.6264 25.0584 41.074V41.074ZM35.6809 43.0731C35.4871 41.8204 34.9908 41.5247 33.9813 41.0756C34.7446 40.628 35.2144 39.9723 35.2144 39.0716C35.2144 37.2734 33.7392 36.5398 32.1288 36.5398H27.6324V46.0894H32.0902C33.9909 46.0894 36.0083 45.2586 35.6833 43.0715L35.6809 43.0731ZM36.922 43.8042V43.7858C36.922 42.5781 37.9162 41.5842 39.1252 41.5842C40.3326 41.5842 41.326 42.5749 41.3292 43.7801V43.7978C41.3292 45.0055 40.335 45.9994 39.1252 45.9994C37.9187 45.9994 36.9253 45.0095 36.922 43.8042V43.8042ZM41.1289 43.7978V43.7801C41.1249 42.685 40.2224 41.785 39.1252 41.785C38.0264 41.785 37.1223 42.6882 37.1223 43.7858V43.8042C37.1264 44.8994 38.0289 45.7985 39.1252 45.7985C40.224 45.7985 41.1289 44.8954 41.1289 43.7978V43.7978ZM38.2613 42.5998H39.2756C39.521 42.5885 39.7623 42.6737 39.9457 42.8376C40.0647 42.9517 40.1307 43.11 40.1283 43.2755V43.2876C40.1283 43.6524 39.8845 43.8709 39.5435 43.9505L40.2441 44.856H39.8298L39.1783 44.0051H38.6V44.856H38.2653L38.2613 42.5998ZM14.4199 44.2847H11.8097V42.1073H14.4199C16.3367 42.1073 16.2184 44.2847 14.4199 44.2847ZM23.3483 44.2831H20.7414V42.1073H23.3459C25.2611 42.1073 25.1445 44.2847 23.3459 44.2847L23.3483 44.2831ZM29.6675 42.1073V44.2847H32.272C34.0706 44.2847 34.1872 42.1073 32.272 42.1073H29.6675ZM39.241 43.707C39.558 43.707 39.7767 43.5608 39.7767 43.3013V43.2892C39.7767 43.0522 39.5821 42.9003 39.2595 42.9003H38.5959V43.703L39.241 43.707ZM16.1316 41.074L16.1308 41.0731L16.1291 41.0756L16.1316 41.074ZM25.0584 41.074L25.0576 41.0731L25.0552 41.0756L25.0584 41.074ZM11.8097 38.367H14.1504C15.6095 38.367 15.6618 40.4038 14.2413 40.4038H11.8097V38.367ZM29.6755 38.3653H32.0025C33.4625 38.3653 33.5147 40.4014 32.0942 40.4014H29.6675L29.6755 38.3653ZM20.7438 38.3629H23.0789C24.538 38.3629 24.5903 40.3998 23.1698 40.3998H20.7414L20.7438 38.3629ZM14.0925 32.2676H18.4393L19.2147 34.8998H26.3189L27.0943 32.2676H31.4427L30.8732 30.3311H14.662L14.0925 32.2676ZM19.3579 16.6587L17.2512 19.5626C16.1951 21.0161 16.5225 23.5906 17.9647 24.6303L21.8715 27.4474C22.5416 27.9311 22.5938 28.4148 22.2761 28.9202L22.844 29.342L24.8228 26.6053C26.0454 24.9131 25.9392 22.6111 24.1254 21.2933L20.1832 18.424C19.7126 18.0793 19.6619 17.6013 19.9233 17.0693L19.3563 16.6644L19.3579 16.6587ZM22.7378 3.8429L19.4568 8.37545C17.9181 10.5007 18.4779 14.1245 20.5805 15.6729L25.9738 19.6285C27.0669 20.4296 27.2101 22.4721 26.4138 23.5174L26.8715 23.8597L30.5917 18.633C32.2623 16.2851 32.1658 12.8156 29.542 10.9129L23.7722 6.72586C22.9647 6.14493 22.5609 5.14376 23.2333 4.19403L22.7378 3.8429Z" fill="black" fill-opacity="0.8"/>
</svg>
