<svg width="84" height="84" viewBox="0 0 84 84" fill="none" xmlns="http://www.w3.org/2000/svg">
<path d="M41.0456 0.721288C41.3185 -0.240429 42.6815 -0.240429 42.9544 0.721287L49.1746 22.6457C49.3493 23.2617 50.0532 23.5532 50.6124 23.2412L70.5136 12.1367C71.3866 11.6496 72.3504 12.6134 71.8633 13.4864L60.7588 33.3876C60.4468 33.9468 60.7383 34.6506 61.3543 34.8254L83.2787 41.0456C84.2404 41.3185 84.2404 42.6815 83.2787 42.9544L61.3543 49.1746C60.7383 49.3493 60.4468 50.0532 60.7588 50.6124L71.8633 70.5136C72.3504 71.3866 71.3866 72.3504 70.5136 71.8633L50.6124 60.7588C50.0532 60.4468 49.3493 60.7383 49.1746 61.3543L42.9544 83.2787C42.6815 84.2404 41.3185 84.2404 41.0456 83.2787L34.8254 61.3543C34.6506 60.7383 33.9468 60.4468 33.3876 60.7588L13.4864 71.8633C12.6134 72.3504 11.6496 71.3866 12.1367 70.5136L23.2412 50.6124C23.5532 50.0532 23.2617 49.3493 22.6457 49.1746L0.721288 42.9544C-0.240429 42.6815 -0.240429 41.3185 0.721287 41.0456L22.6457 34.8254C23.2617 34.6506 23.5532 33.9468 23.2412 33.3876L12.1367 13.4864C11.6496 12.6134 12.6134 11.6496 13.4864 12.1367L33.3876 23.2412C33.9468 23.5532 34.6506 23.2617 34.8254 22.6457L41.0456 0.721288Z" fill="#F84F38"/>
</svg>
