<svg width="185" height="37" viewBox="0 0 185 37" fill="none" xmlns="http://www.w3.org/2000/svg">
<path d="M14.3908 6.35068C12.1867 6.35068 11.6356 7.44943 11.6356 9.37224V12.9432H17.4215L16.8704 18.7116H11.6356V36.0169H4.74774V18.7116H0.0639648V12.9432H4.74774V9.64693C4.74774 3.87849 6.95186 0.856934 13.5642 0.856934C14.9418 0.856934 16.5949 0.856934 17.4215 1.13162V6.35068" fill="black" fill-opacity="0.8"/>
<path d="M17.9722 23.6582C17.9722 17.3404 21.0028 12.396 27.3397 12.396C30.9214 12.396 32.85 14.0441 33.9521 16.5163V12.9454H40.5645V35.7444H33.9521V32.1735C32.85 34.371 30.9214 36.0191 27.3397 36.0191C21.0028 36.0191 17.9722 31.3494 17.9722 24.7569M24.8601 25.3063C24.8601 28.6025 26.2376 31.0747 29.2683 31.0747C32.0235 31.0747 33.6766 28.8772 33.6766 25.8557V23.3835C33.6766 20.0872 32.299 18.1644 29.2683 18.1644C26.2376 17.8897 24.8601 20.3619 24.8601 23.6582V25.3063Z" fill="black" fill-opacity="0.8"/>
<path d="M55.1666 12.6692C57.9218 12.6692 60.4014 13.2186 61.779 14.3173L60.1259 19.2617C59.0239 18.7123 57.3708 18.1629 55.4422 18.1629C51.5849 18.1629 49.9318 20.3604 49.9318 23.9314V25.3048C49.9318 28.8757 51.5849 31.0732 55.4422 31.0732C57.3708 31.0732 59.0239 30.5239 60.1259 29.9745L61.779 34.9189C60.4014 36.0176 57.9218 36.567 55.1666 36.567C46.9012 36.567 43.3195 32.172 43.3195 25.3048V23.9314C43.3195 16.7895 46.9012 12.6692 55.1666 12.6692Z" fill="black" fill-opacity="0.8"/>
<path d="M62.6062 25.3054V23.3826C62.6062 16.7901 66.1879 12.6698 73.9024 12.6698C81.0658 12.6698 84.0964 17.0648 84.0964 23.3826V26.9535H69.4941C69.7696 29.9751 71.1472 31.3485 75.0044 31.3485C77.4841 31.3485 80.2392 30.7992 82.4433 29.9751L83.8209 34.6448C81.8923 35.4688 78.3106 36.2929 75.0044 36.2929C65.9124 36.2929 62.6062 32.1726 62.6062 25.3054ZM69.4941 22.2839H77.7596V21.7345C77.7596 19.2623 76.6575 17.3395 73.6268 17.3395C70.8717 17.3395 69.4941 19.2623 69.4941 22.2839Z" fill="black" fill-opacity="0.8"/>
<path d="M109.995 25.304C109.995 31.6218 106.964 36.5662 100.627 36.5662C97.0456 36.5662 94.8415 34.918 93.7395 32.7205V36.2915H87.1271V1.40619L94.015 0.856812V16.2393C95.117 14.3165 97.3212 12.6684 100.352 12.6684C106.689 12.6684 109.719 17.338 109.719 23.9305M103.107 23.6559C103.107 20.3596 101.729 18.1621 98.4232 18.1621C95.6681 18.1621 94.015 20.0849 94.015 23.3812V25.5787C94.015 28.8749 95.6681 30.7977 98.4232 30.7977C101.729 30.7977 103.107 28.3255 103.107 25.304V23.6559Z" fill="black" fill-opacity="0.8"/>
<path d="M112.199 25.0304V23.9316C112.199 17.3391 116.056 12.6694 123.495 12.6694C131.209 12.6694 135.067 17.3391 135.067 23.9316V25.0304C135.067 31.6229 131.209 36.2925 123.77 36.2925C116.056 36.2925 112.199 31.6229 112.199 25.0304ZM128.179 23.3822C128.179 20.3607 126.801 17.8885 123.77 17.8885C120.464 17.8885 119.362 20.3607 119.362 23.3822V25.5797C119.362 28.6013 120.74 31.0735 123.77 31.0735C127.077 31.0735 128.179 28.6013 128.179 25.5797V23.3822Z" fill="black" fill-opacity="0.8"/>
<path d="M137.271 25.0284V23.9297C137.271 17.3372 141.128 12.6675 148.567 12.6675C156.282 12.6675 159.863 17.3372 159.863 23.9297V25.0284C159.863 31.6209 156.006 36.2906 148.567 36.2906C141.128 36.2906 137.271 31.6209 137.271 25.0284ZM153.251 23.3803C153.251 20.3587 151.873 17.8865 148.843 17.8865C145.536 17.8865 144.434 20.3587 144.434 23.3803V25.5778C144.434 28.5993 145.812 31.0715 148.843 31.0715C152.149 31.0715 153.251 28.5993 153.251 25.5778V23.3803Z" fill="black" fill-opacity="0.8"/>
<path d="M169.782 23.9308L176.67 12.9433H184.109L176.67 24.2055L184.384 36.017H176.945L169.782 24.7548V36.017H162.894V1.40643L169.782 0.857056" fill="black" fill-opacity="0.8"/>
</svg>
