<svg width="306" height="63" viewBox="0 0 306 63" fill="none" xmlns="http://www.w3.org/2000/svg">
<path d="M30.6805 13.4635V13.5123H28.3866L21.5539 40.8433H20.8706L14.0867 13.5123H12.2809V13.4635H1.34852V47.6272H8.76692V22.1997H9.499L15.9901 47.6272H26.6784L33.1695 22.1997H33.9016V47.6272H41.32V13.4635H30.6805ZM67.5559 13.5123H55.1106L42.9092 47.6272H50.5717L52.6215 42.0146H70.045L72.046 47.6272H79.7572L67.5559 13.5123ZM55.013 35.2307L60.3815 20.2474H62.2849L67.6047 35.2307H55.013ZM105.014 30.5942L117.118 13.5123H107.796L99.2065 25.9089H98.3768L89.7871 13.5123H80.5141L92.569 30.5942L80.5141 47.6272H89.7871L98.3768 35.2307H99.2065L107.796 47.6272H117.118L105.014 30.5942Z" fill="#F84F38"/>
<path d="M149.558 24.8839C149.558 13.4635 140.432 13.4635 136.332 13.4635C134.331 13.4635 128.914 13.5123 127.108 13.5123V13.4635H119.689V47.6272H127.108V36.2556C128.621 36.2556 133.697 36.2556 134.966 36.2556C135.405 36.2556 136.039 36.2556 136.771 36.2556L142.335 47.6272H150.388L143.848 34.5474C146.923 32.9368 149.558 30.7894 149.558 24.8839ZM135.746 29.6181C135.112 29.6181 128.718 29.6181 127.108 29.6181V20.1498C129.06 20.1498 134.526 20.1498 135.893 20.1498C138.187 20.1498 142.677 20.1498 142.677 24.8839C142.677 29.6669 137.894 29.6181 135.746 29.6181ZM172.652 24.2983C170.798 21.858 167.723 20.2474 162.647 20.2474C151.08 20.2474 149.86 29.9597 149.86 33.9617C149.86 37.6221 151.129 47.6272 162.598 47.6272C167.772 47.6272 170.895 46.2118 172.75 43.8204H172.994V47.6272H180.412V20.2474H172.994V24.2983H172.652ZM164.795 41.2825C157.718 41.2825 156.937 35.9139 156.937 33.9617C156.937 31.8143 157.669 26.6409 164.795 26.6409C171.188 26.6409 172.506 30.2525 172.506 33.9617C172.506 38.1102 171.188 41.2825 164.795 41.2825ZM193.255 26.5921H202.137V20.3451H193.255V12.4386H185.787V20.3451H182.176V26.5921H185.787V37.5733C185.787 41.5265 185.787 47.6272 193.255 47.6272C200.673 47.6272 202.137 47.1391 202.137 47.1391V39.916C195.012 40.3064 193.255 40.8433 193.255 36.89V36.3044V26.5921ZM211.517 47.6272V20.4427H204.148V47.6272H211.517ZM211.517 18.4905V11.8529H204.148V18.4905H211.517ZM231.092 20.2474C226.163 20.2474 223.674 21.858 221.917 24.2983H221.575V20.2474H214.157V47.6272H221.575V34.4498C221.575 30.7406 222.502 26.6409 228.945 26.6409C236.021 26.6409 235.582 31.8143 235.582 33.9617V47.6272H242.952V33.9617C242.952 29.9597 242.659 20.2474 231.092 20.2474ZM267.891 20.5403V24.5911H267.452C265.597 22.1509 262.523 20.5403 257.447 20.5403C245.88 20.5403 244.66 30.2525 244.66 34.2546C244.66 37.9638 245.929 47.9688 257.398 47.9688C262.571 47.9688 265.695 46.5047 267.55 44.162H267.891V46.1142C267.891 51.1412 265.646 54.4111 260.619 54.4111C254.811 54.4111 253.542 51.5804 253.347 50.1163C252.127 50.1163 247.93 50.1163 245.978 50.1163C245.978 54.1671 248.369 60.8046 260.668 60.8046C274.285 60.8046 275.31 50.6531 275.31 44.9917V20.5403H267.891ZM259.594 41.5753C252.518 41.5753 251.737 36.2556 251.737 34.2546C251.737 32.1071 252.469 26.9338 259.594 26.9338C265.988 26.9338 267.306 30.5454 267.306 34.2546C267.306 38.403 265.988 41.5753 259.594 41.5753ZM291.423 31.0334L290.789 30.9846C286.006 30.2525 285.176 29.5693 285.176 28.3491C285.176 27.5194 286.054 26.0065 290.203 26.0065C294.498 26.0065 296.352 27.1778 296.352 29.3252V29.5693H303.917V29.3252C303.917 25.128 301.526 20.101 290.203 20.101C279.661 20.101 277.465 24.6399 277.465 28.4467C277.465 33.9129 282.345 35.6699 290.203 36.6948C290.593 36.7436 290.984 36.7924 291.374 36.8412C294.351 37.1829 296.987 37.5733 296.987 39.6231C296.987 41.4289 294.156 41.8194 291.179 41.8194C286.25 41.8194 284.493 40.7457 284.493 38.403V38.159H276.879V38.6958C276.83 40.1112 276.83 42.405 278.734 44.3084C280.93 46.5047 285.176 47.6272 291.374 47.6272C299.769 47.6272 304.649 46.3095 304.649 39.5255C304.649 33.0344 297.621 31.9607 291.423 31.0334Z" fill="white"/>
<rect x="202.654" y="9.56055" width="10.2942" height="9.96576" fill="black"/>
<path d="M207.508 0.146698C207.563 -0.0488991 207.838 -0.0488992 207.893 0.146697L209.149 4.60574C209.184 4.73102 209.326 4.79032 209.439 4.72687L213.456 2.46839C213.632 2.36933 213.827 2.56535 213.728 2.7429L211.487 6.79047C211.424 6.90419 211.483 7.04735 211.607 7.08289L216.032 8.34797C216.227 8.40346 216.227 8.68069 216.032 8.73619L211.607 10.0013C211.483 10.0368 211.424 10.18 211.487 10.2937L213.728 14.3413C213.827 14.5188 213.632 14.7148 213.456 14.6158L209.439 12.3573C209.326 12.2938 209.184 12.3531 209.149 12.4784L207.893 16.9375C207.838 17.1331 207.563 17.1331 207.508 16.9375L206.252 12.4784C206.217 12.3531 206.075 12.2938 205.962 12.3573L201.945 14.6158C201.769 14.7148 201.574 14.5188 201.673 14.3413L203.914 10.2937C203.977 10.18 203.918 10.0368 203.794 10.0013L199.368 8.73619C199.174 8.68069 199.174 8.40346 199.368 8.34797L203.794 7.08289C203.918 7.04735 203.977 6.90419 203.914 6.79047L201.673 2.7429C201.574 2.56535 201.769 2.36932 201.945 2.46839L205.962 4.72687C206.075 4.79032 206.217 4.73102 206.252 4.60574L207.508 0.146698Z" fill="#F84F38"/>
</svg>
