<svg width="615" height="613" viewBox="0 0 615 613" fill="none" xmlns="http://www.w3.org/2000/svg">
<path d="M590.375 187.422C560.844 117.264 506.296 60.5823 437.323 28.3816C368.349 -3.81921 289.871 -9.24171 217.125 13.1668C144.378 35.5753 82.5533 84.216 43.6534 149.645C4.75358 215.075 -8.44587 292.625 6.61767 367.239C21.6812 441.854 63.9329 508.209 125.17 553.422C186.407 598.635 262.26 619.481 338.002 611.912C413.745 604.342 483.973 568.898 535.051 512.461C586.13 456.024 614.415 382.619 614.415 306.5C614.473 265.596 606.297 225.099 590.375 187.422ZM602.191 351.969C601.981 360.355 601.31 368.722 600.178 377.034C593.7 389.13 584.214 400.732 571.959 411.603C573.728 395.75 574.049 379.769 572.917 363.858C572.612 359.385 572.205 354.911 571.697 350.438C573.917 348.506 576.058 346.55 578.12 344.57C587.465 335.554 594.926 326.136 600.464 316.455C601.912 328.234 602.489 340.105 602.191 351.969ZM16.3101 319.175C16.4077 318.309 16.5175 317.443 16.6212 316.577C22.1539 326.221 29.5959 335.609 38.9045 344.588C40.9663 346.577 43.1135 348.537 45.3461 350.468C42.9264 370.789 42.8527 391.32 45.1264 411.658C32.9264 400.854 23.4714 389.325 16.9871 377.308C14.3574 358.033 14.1299 338.507 16.3101 319.175ZM40.6552 162.54C46.8004 151.088 53.9642 140.212 62.0601 130.045C58.5173 138.24 56.6506 147.061 56.5701 155.988C51.9829 161.759 47.658 167.69 43.5954 173.782C36.2779 184.761 29.8367 196.299 24.3316 208.29C24.9814 199.233 27.2542 190.367 31.0416 182.115H30.9806C33.9614 175.453 37.1741 168.924 40.6186 162.527L40.6552 162.54ZM501.205 79.7078C494.735 75.5557 488.043 71.7005 481.13 68.1422C469.847 62.3721 458.154 57.4402 446.147 53.3863C443.121 47.9741 439.261 43.0726 434.709 38.8622C451.765 43.2125 468.107 49.9919 483.235 58.9922C490.786 65.5497 496.819 72.4976 501.217 79.6956L501.205 79.7078ZM576.345 162.54L576.406 162.509C579.846 168.902 583.059 175.431 586.044 182.096H585.983C589.77 190.349 592.043 199.215 592.693 208.271C587.186 196.283 580.742 184.746 573.423 173.77C569.356 167.67 565.032 161.739 560.448 155.976C560.364 147.135 558.527 138.398 555.044 130.271C563.105 140.361 570.234 151.162 576.345 162.54ZM584.074 247.378C575.597 226.667 564.867 206.952 552.079 188.587C554.887 183.299 557.046 177.691 558.509 171.885C559.569 167.632 560.195 163.283 560.375 158.904C564.417 164.077 568.25 169.38 571.874 174.813C579.96 186.932 586.965 199.739 592.809 213.084C592.7 223.252 590.501 233.289 586.349 242.572C585.641 244.174 584.883 245.772 584.074 247.366V247.378ZM571.093 363.998C572.259 380.47 571.851 397.015 569.873 413.408C557.191 424.297 541.703 434.429 523.641 443.548C523.732 442.572 523.842 441.602 523.928 440.62C525.572 421.065 525.468 401.402 523.617 381.865C541.465 372.91 557.057 362.858 569.977 351.908C570.444 355.938 570.816 359.964 571.093 363.986V363.998ZM525.386 518.505C515.235 527.301 503.066 535.347 489.261 542.527C493.134 537.254 496.659 531.734 499.814 526.002C504.144 518.104 507.868 509.888 510.953 501.425C525.867 493.971 539.074 485.724 550.39 476.769C551.341 476.021 552.276 475.264 553.195 474.5C546.113 490.438 536.744 505.258 525.386 518.493V518.505ZM451.033 574.9C439.289 580.674 427.096 585.484 414.573 589.283C422.052 583.362 428.762 575.538 434.703 565.811C451.236 561.111 467.354 555.058 482.893 547.712C473.948 558.571 463.164 567.774 451.033 574.9ZM309.415 604.32C309.415 599.44 309.415 592.193 309.415 582.744C330.397 582.723 351.357 581.364 372.166 578.675C371.873 579.536 371.556 580.384 371.263 581.213C368.054 589.871 364.459 596.445 360.478 600.934C343.548 603.162 326.491 604.293 309.415 604.32ZM256.552 600.94C252.142 595.969 248.214 588.466 244.828 578.675C265.637 581.364 286.597 582.723 307.579 582.744V604.32C290.515 604.291 273.471 603.163 256.552 600.94ZM166.175 575.028C154.07 567.887 143.305 558.688 134.363 547.846C149.864 555.156 165.939 561.183 182.425 565.865C188.348 575.54 195.125 583.421 202.641 589.375C190.118 585.586 177.923 580.788 166.175 575.028ZM63.9877 474.634C64.8539 475.348 65.7201 476.055 66.6106 476.757C77.9445 485.724 91.1754 493.983 106.114 501.443V501.504C111.818 516.974 119.15 530.748 127.928 542.625C114.154 535.475 102.003 527.466 91.8525 518.713C80.4922 505.437 71.1073 490.591 63.9877 474.634ZM47.0113 351.914C59.9555 362.894 75.5593 372.941 93.4324 381.896C91.4502 402.395 91.4196 423.037 93.3409 443.542C75.3093 434.435 59.8397 424.327 47.17 413.463C44.7146 393.023 44.6614 372.366 47.0113 351.914ZM56.625 158.88C56.8056 163.259 57.431 167.608 58.4916 171.861C59.9615 177.691 62.1327 183.322 64.9576 188.629C52.1648 206.978 41.4274 226.678 32.9387 247.372C32.1253 245.774 31.3628 244.166 30.6512 242.547C26.4988 233.265 24.2999 223.228 24.1913 213.06C30.0352 199.714 37.0405 186.908 45.1264 174.788C48.7376 169.368 52.5705 164.065 56.625 158.88ZM105.37 110.44C105.37 110.562 105.37 110.684 105.37 110.799C105.787 119.102 108.035 127.209 111.952 134.541C95.9991 149.38 81.5137 165.722 68.6969 183.341C67.8307 184.536 66.9746 185.736 66.1288 186.94C63.5807 182.014 61.6095 176.811 60.2545 171.433C59.0467 166.588 58.4241 161.616 58.4001 156.623C72.188 139.436 87.9534 123.935 105.37 110.44ZM165.876 73.7847C166.133 79.5669 167.655 85.2224 170.335 90.3523C149.978 102.723 130.9 117.084 113.379 133.223C109.71 126.26 107.601 118.581 107.2 110.72C107.2 110.165 107.2 109.604 107.17 109.049C122.577 97.2876 139.064 87.012 156.409 78.3597C159.538 76.7615 162.71 75.2548 165.876 73.7847ZM460.591 78.3597C477.926 87.0137 494.402 97.2892 509.8 109.049C509.8 109.604 509.8 110.165 509.8 110.72C509.413 118.546 507.332 126.195 503.7 133.138C486.176 117.009 467.081 102.676 446.702 90.3523C449.382 85.2224 450.904 79.5669 451.161 73.7847C454.29 75.2548 457.462 76.7615 460.591 78.3597ZM558.6 156.623C558.584 161.615 557.97 166.587 556.77 171.433C555.418 176.788 553.458 181.97 550.926 186.879C543.023 175.668 534.434 164.956 525.209 154.805C518.779 147.761 512.069 140.986 505.079 134.48C508.972 127.167 511.205 119.086 511.618 110.812C511.618 110.696 511.618 110.574 511.618 110.452C529.038 123.943 544.808 139.44 558.6 156.623ZM526.191 217.403C514.215 196.803 500.432 177.308 485.004 159.148C493.275 151.913 499.717 144.197 504.194 136.139C511.01 142.511 517.551 149.144 523.818 156.037C533.206 166.361 541.93 177.269 549.938 188.696C544.588 198.524 536.823 207.979 526.703 216.958C526.532 217.104 526.349 217.251 526.185 217.403H526.191ZM522.134 440.45C522.012 441.816 521.872 443.164 521.732 444.512C519.402 445.671 517.027 446.812 514.607 447.934C497.24 455.917 479.296 462.578 460.927 467.863C462.325 447.265 462.325 426.595 460.927 405.997C462.702 405.484 464.465 404.966 466.222 404.429C485.332 398.727 503.946 391.477 521.878 382.75C523.657 401.938 523.74 421.246 522.128 440.45H522.134ZM107.597 500.138C101.673 483.851 97.6292 465.887 95.5125 446.665C97.5255 447.654 99.5588 448.63 101.612 449.593C119.28 457.713 137.541 464.471 156.238 469.809C157.69 488.829 160.508 506.366 164.595 522.031C152.712 518.572 141.311 514.674 130.508 510.362C122.481 507.149 114.841 503.741 107.59 500.138H107.597ZM95.1892 382.75C113.1 391.467 131.691 398.712 150.778 404.411C152.56 404.954 154.347 405.478 156.146 406.003C155.809 411.151 155.551 416.261 155.372 421.332C154.798 436.838 155.042 452.364 156.104 467.845C137.734 462.562 119.79 455.901 102.424 447.916C99.9838 446.794 97.6068 445.651 95.2929 444.488C93.2825 423.959 93.2477 403.285 95.1892 382.75ZM90.3092 216.939C80.2076 207.979 72.4545 198.542 67.1292 188.739C68.1418 187.287 69.1706 185.84 70.2158 184.396C82.8665 167.008 97.1528 150.871 112.879 136.206C117.357 144.24 123.78 151.932 132.033 159.142C116.614 177.317 102.841 196.826 90.8764 217.44L90.3092 216.939ZM245.609 32.4694C260.519 33.1571 275.343 35.1182 289.919 38.3315C291.823 38.7463 293.72 39.1855 295.623 39.6369C277.014 37.8648 258.286 37.7403 239.655 39.2648C241.301 36.7239 243.307 34.4349 245.609 32.4694ZM289.328 15.5724C292.081 18.5212 294.63 21.6537 296.959 24.9481C299.972 29.2078 302.763 33.6199 305.322 38.1668C297.664 31.7889 289.405 26.1708 280.66 21.3918C278.683 20.3304 276.719 19.3442 274.767 18.4333C279.559 17.1876 284.421 16.2323 289.328 15.5724ZM342.355 18.4638C333.548 22.6332 325.207 27.7246 317.473 33.6528C315.521 35.129 313.563 36.7028 311.605 38.2827C317.016 28.7362 322.402 21.1112 327.672 15.5724C332.62 16.2394 337.524 17.205 342.355 18.4638ZM377.375 39.3197C364.299 38.2502 351.169 37.9976 338.061 38.5633C332.367 38.8073 326.686 39.2038 321.017 39.7528C337.558 35.7194 354.451 33.3006 371.458 32.5304C373.746 34.4976 375.739 36.7842 377.375 39.3197ZM434.679 270.192C441.016 292.22 446.134 313.99 450.075 335.212C428.132 341.424 405.77 346.051 383.164 349.059C381.554 332.089 379.583 314.796 377.247 297.325C376.381 290.819 375.472 284.369 374.52 277.976C394.412 275.317 414.088 271.24 433.398 265.776C433.833 267.252 434.26 268.722 434.679 270.186V270.192ZM459.011 468.442C435.672 475.056 411.885 479.977 387.837 483.168C388.575 463.813 388.575 443.048 387.837 421.247C411.902 418.046 435.708 413.132 459.073 406.54C460.451 427.141 460.431 447.813 459.011 468.412V468.442ZM157.22 421.418C157.391 416.497 157.639 411.536 157.964 406.534C181.33 413.119 205.135 418.027 229.2 421.222C228.877 430.921 228.694 440.468 228.657 449.807C228.608 461.397 228.791 472.517 229.188 483.137C205.131 479.95 181.335 475.027 157.989 468.406C156.892 452.768 156.636 437.083 157.22 421.418ZM272.51 141.678C284.153 143.173 295.877 143.935 307.616 143.959V208.521C290.778 208.495 273.959 207.399 257.26 205.24C261.396 185.348 265.934 166.053 270.839 147.735C271.375 145.694 271.918 143.674 272.467 141.678H272.51ZM257.01 76.5846C261.336 78.6827 265.824 80.4289 270.43 81.8062C259.251 96.4692 249.031 111.839 239.832 127.818C238.934 129.372 238.041 130.934 237.154 132.503C227.726 129.8 218.544 126.305 209.704 122.054C217.008 113.778 224.523 105.905 232.25 98.4348C240.359 90.6024 248.612 83.319 257.01 76.5846ZM307.579 45.7247V85.2527C301.985 85.2258 296.398 84.8693 290.847 84.1852C295.671 71.0504 301.258 58.2084 307.579 45.7247ZM288.98 83.9412C283.773 83.2282 278.618 82.1788 273.547 80.7997C283.151 68.344 293.799 56.7302 305.377 46.0846C299.205 58.3857 293.731 71.0246 288.98 83.9412ZM309.391 45.7125C315.715 58.1998 321.304 71.0459 326.129 84.1852C320.575 84.8693 314.986 85.2258 309.391 85.2527V45.7125ZM311.635 46.0907C322.359 55.8507 333.016 67.4407 343.429 80.7997C338.366 82.1777 333.219 83.2271 328.02 83.9412C323.278 71.0278 317.814 58.391 311.654 46.0907H311.635ZM339.384 72.8087C331.7 63.4072 323.398 54.5283 314.533 46.231C319.714 49.0126 324.905 52.028 330.106 55.2773C339.926 61.4256 349.398 68.1133 358.477 75.3097C354.238 77.2927 349.851 78.9446 345.356 80.2507C343.38 77.7497 341.397 75.2304 339.403 72.8087H339.384ZM271.65 80.2629C267.168 78.9618 262.794 77.316 258.565 75.3402C272.31 64.3542 287.008 54.6185 302.485 46.2493C291.302 56.7329 280.99 68.1082 271.65 80.2629ZM241.437 128.74C250.712 112.625 261.037 97.1386 272.345 82.3796C277.607 83.8364 282.961 84.9389 288.37 85.6797C282.41 101.79 276.634 119.895 271.156 139.622C260.283 138.176 249.525 135.97 238.96 133.022C239.773 131.59 240.599 130.163 241.437 128.74ZM290.2 85.9481C295.967 86.6736 301.773 87.0525 307.585 87.0827V142.129C296.012 142.102 284.453 141.353 272.974 139.884C278.494 119.968 284.277 101.906 290.2 85.9481ZM307.579 210.327V280.532C286.518 280.507 265.481 279.13 244.596 276.408C248.116 252.862 252.234 229.56 256.882 207.015C273.691 209.195 290.623 210.301 307.573 210.327H307.579ZM307.579 282.356V353.994C283.542 353.976 259.531 352.407 235.697 349.297C237.923 325.727 240.821 301.858 244.328 278.208C265.299 280.943 286.424 282.329 307.573 282.356H307.579ZM307.579 355.824V424.651C281.997 424.63 256.444 422.954 231.079 419.63C231.854 397.445 233.36 374.441 235.526 351.121C259.416 354.232 283.481 355.803 307.573 355.824H307.579ZM309.409 355.824C333.523 355.805 357.611 354.232 381.523 351.115C383.725 374.728 385.183 397.689 385.976 419.624C360.589 422.95 335.013 424.629 309.409 424.651V355.824ZM309.409 353.994V282.356C330.578 282.332 351.724 280.947 372.715 278.208C373.658 284.617 374.567 291.067 375.441 297.557C377.778 315.034 379.748 332.327 381.352 349.291C357.495 352.406 333.462 353.977 309.403 353.994H309.409ZM309.409 280.532V210.327C326.384 210.303 343.34 209.194 360.173 207.009C364.76 229.261 368.878 252.515 372.446 276.402C351.542 279.129 330.484 280.508 309.403 280.532H309.409ZM309.409 208.552V143.959C321.163 143.933 332.905 143.169 344.563 141.672C350.053 161.576 355.165 182.889 359.813 205.234C343.097 207.398 326.259 208.496 309.403 208.521L309.409 208.552ZM309.409 142.16C309.409 121.92 309.409 103.486 309.409 87.1132C315.224 87.0727 321.032 86.6836 326.8 85.9481C326.885 86.1799 326.977 86.4056 327.062 86.6374C333.034 102.821 338.726 120.694 344.063 139.878C332.568 141.352 320.992 142.104 309.403 142.129L309.409 142.16ZM328.783 86.0396C328.746 85.9298 328.703 85.8261 328.667 85.7224C334.065 84.9685 339.406 83.8538 344.655 82.3857C356.955 98.4618 368.111 115.382 378.04 133.022C367.495 135.97 356.758 138.18 345.905 139.634C340.519 120.303 334.791 102.302 328.776 86.0091L328.783 86.0396ZM346.564 81.8367C351.19 80.4526 355.698 78.7004 360.045 76.5968C377.103 90.3471 392.937 105.55 407.369 122.036C398.515 126.291 389.316 129.786 379.87 132.485C369.964 114.835 358.832 97.9001 346.558 81.8062L346.564 81.8367ZM361.845 75.694C365.437 73.8419 368.822 71.6108 371.94 69.0389C378.04 72.3248 384.118 75.8221 390.173 79.5309C404.007 88.0544 417.274 97.4661 429.89 107.707C423.481 112.971 416.492 117.486 409.059 121.163C394.652 104.671 378.853 89.4488 361.838 75.6635L361.845 75.694ZM360.301 74.474C350.959 67.0098 341.199 60.0833 331.07 53.7279C326.56 50.9097 322.056 48.2664 317.559 45.7979C335.71 51.6834 353.309 59.1521 370.153 68.1178C367.099 70.5622 363.794 72.6764 360.295 74.4252L360.301 74.474ZM256.76 74.474C253.257 72.7228 249.949 70.6066 246.89 68.1605C250.725 66.1272 254.588 64.1711 258.48 62.2923C271.724 55.8755 285.391 50.3727 299.387 45.8223C284.382 54.1254 270.118 63.7031 256.754 74.4496L256.76 74.474ZM255.217 75.694C247.014 82.3105 238.938 89.4556 230.987 97.1294C223.131 104.722 215.485 112.754 208.051 121.224C200.599 117.55 193.593 113.033 187.171 107.762C205.242 93.0962 224.643 80.1507 245.121 69.0938C248.239 71.6447 251.621 73.8533 255.21 75.6818L255.217 75.694ZM206.813 122.664C191.536 140.266 177.609 158.995 165.15 178.692C153.261 172.708 143.044 166.096 134.607 158.928L135.864 157.446C151.042 139.863 167.717 123.629 185.701 108.927C192.19 114.287 199.271 118.886 206.807 122.633L206.813 122.664ZM208.503 123.506C217.433 127.848 226.716 131.423 236.252 134.193C225.299 153.834 215.486 174.089 206.862 194.857C194.128 191.207 181.702 186.556 169.701 180.949C168.725 180.486 167.759 180.018 166.803 179.546C179.264 159.837 193.202 141.101 208.497 123.5L208.503 123.506ZM238.051 134.718C248.743 137.731 259.634 139.986 270.643 141.464C270.115 143.392 269.586 145.334 269.057 147.29C264.135 165.675 259.578 185.043 255.43 205.014C239.62 202.912 223.979 199.691 208.625 195.376C217.254 174.597 227.077 154.333 238.045 134.687L238.051 134.718ZM255.064 206.801C250.422 229.371 246.304 252.655 242.785 276.201C222.987 273.565 203.403 269.519 184.182 264.092C190.934 241.356 198.859 218.983 207.923 197.066C223.385 201.414 239.136 204.657 255.058 206.771L255.064 206.801ZM242.504 277.97C239.003 301.614 236.105 325.483 233.879 349.053C211.276 346.055 188.919 341.434 166.98 335.225C171.346 311.817 176.912 288.649 183.657 265.813C202.958 271.265 222.624 275.327 242.504 277.97ZM233.708 350.877C231.536 374.191 230.048 397.194 229.249 419.38C205.2 416.185 181.412 411.268 158.068 404.667C159.653 381.978 162.518 359.396 166.651 337.03C188.643 343.244 211.053 347.872 233.708 350.877ZM230.475 449.813C230.512 440.553 230.695 431.086 231.012 421.466C256.398 424.785 281.971 426.459 307.573 426.481V488.389C281.978 488.375 256.41 486.708 231.03 483.4C230.623 472.753 230.438 461.558 230.475 449.813ZM307.579 490.219V541.508C283.467 541.479 259.382 539.884 235.477 536.732C233.342 521.61 231.86 504.359 231.085 485.248C256.45 488.545 282.001 490.206 307.579 490.219ZM309.409 490.219C334.996 490.203 360.555 488.536 385.927 485.23C385.521 495.144 384.911 504.658 384.097 513.772C383.378 521.905 382.513 529.554 381.505 536.72C357.596 539.871 333.507 541.467 309.391 541.496C309.409 526.484 309.409 509.306 309.403 490.219H309.409ZM309.409 488.389V426.481C335.033 426.46 360.629 424.784 386.037 421.46C386.757 443.274 386.751 464.038 386.001 483.394C360.602 486.706 335.016 488.375 309.403 488.389H309.409ZM387.8 419.35C387.031 397.39 385.543 374.454 383.341 350.847C406.012 347.845 428.436 343.214 450.441 336.987C454.568 359.357 457.419 381.943 458.981 404.636C435.637 411.238 411.849 416.155 387.8 419.35ZM374.258 276.14C370.72 252.277 366.572 229.03 361.985 206.765C377.914 204.633 393.671 201.372 409.138 197.005C418.21 218.926 426.134 241.305 432.879 264.05C413.65 269.479 394.058 273.527 374.252 276.164L374.258 276.14ZM361.619 204.983C356.983 182.651 351.859 161.344 346.369 141.434C357.372 139.953 368.258 137.697 378.943 134.681C389.929 154.309 399.767 174.559 408.406 195.327C393.059 199.651 377.424 202.878 361.619 204.983ZM380.822 134.144C390.371 131.368 399.667 127.783 408.607 123.426C423.903 141.02 437.824 159.763 450.246 179.492C449.276 179.967 448.3 180.443 447.306 180.919C435.329 186.515 422.93 191.159 410.224 194.809C401.604 174.036 391.787 153.78 380.822 134.144ZM410.297 122.554C417.814 118.809 424.877 114.214 431.348 108.86C449.314 123.587 465.97 139.843 481.13 157.446L482.393 158.922C473.963 166.084 463.763 172.69 451.893 178.668C439.478 158.939 425.572 140.187 410.297 122.579V122.554ZM482.521 156.226C467.36 138.632 450.711 122.379 432.757 107.646C437.951 103.178 442.36 97.8703 445.799 91.9444C466.186 104.275 485.278 118.63 502.785 134.791C500.121 139.577 496.951 144.064 493.33 148.174C490.363 151.559 487.174 154.742 483.784 157.702L482.521 156.226ZM431.281 106.468C418.514 96.0989 405.086 86.5709 391.082 77.9449C385.234 74.3581 379.331 70.9604 373.374 67.7518C375.778 65.5835 377.835 63.0593 379.474 60.2671C396.501 66.3868 413.049 73.7658 428.981 82.343C434.15 85.1205 439.233 88.0099 444.231 91.0111C441.163 96.4706 436.795 101.656 431.299 106.493L431.281 106.468ZM371.659 66.8185C355.144 57.9861 337.904 50.5822 320.127 44.6877C339.716 48.0049 358.984 53.0009 377.717 59.6205C376.09 62.326 374.052 64.7625 371.678 66.8429L371.659 66.8185ZM322.707 43.2725C342.153 44.0602 361.499 46.4782 380.541 50.501C380.413 53.1049 379.751 55.6547 378.595 57.9918C360.411 51.554 341.724 46.6388 322.725 43.2969L322.707 43.2725ZM322.39 41.4425C327.636 40.9667 332.88 40.6129 338.122 40.3811C351.566 39.7985 365.035 40.0837 378.443 41.2351C379.631 43.5387 380.337 46.0607 380.517 48.6466C361.382 44.6289 341.945 42.2211 322.408 41.4486L322.39 41.4425ZM318.12 38.5572C326.183 34.9412 334.467 31.8383 342.922 29.2669C348.681 27.5304 354.374 26.1071 360.002 24.9969C363.296 26.62 366.425 28.5565 369.348 30.7797C352.064 31.7079 334.911 34.3147 318.132 38.5633L318.12 38.5572ZM342.398 27.5162C332.952 30.398 323.719 33.9344 314.765 38.0997C316.034 37.0871 317.309 36.0928 318.577 35.129C326.778 28.8324 335.683 23.51 345.112 19.269C349.279 20.4708 353.356 21.9649 357.312 23.7403C352.383 24.7732 347.416 26.0339 342.41 27.5223L342.398 27.5162ZM309.397 38.4962V14.3097C314.787 14.3396 320.172 14.6736 325.525 15.3101C320.243 21.0624 314.838 28.8338 309.409 38.5328L309.397 38.4962ZM307.567 38.423C302.162 28.7606 296.788 21.0136 291.512 15.243C296.848 14.6318 302.214 14.3202 307.585 14.3097L307.567 38.423ZM302.205 37.996C288.642 31.6395 274.412 26.8152 259.779 23.6122C263.734 21.838 267.811 20.3499 271.979 19.1592C281.977 23.5878 292.103 29.9318 302.223 38.0326L302.205 37.996ZM299.021 38.5572C296.117 37.8313 293.207 37.142 290.292 36.5076C276.271 33.4216 262.024 31.4794 247.689 30.7004C250.616 28.4803 253.747 26.544 257.04 24.9176C271.511 27.8789 285.6 32.4667 299.039 38.5938L299.021 38.5572ZM295.117 41.3937C275.391 42.1427 255.765 44.5588 236.447 48.6161C236.629 46.0121 237.343 43.4731 238.545 41.1558C257.379 39.5513 276.318 39.6431 295.135 41.4303L295.117 41.3937ZM294.836 43.2237C275.65 46.5967 256.775 51.5506 238.405 58.0345C237.225 55.6807 236.55 53.1064 236.422 50.4766C255.662 46.4336 275.209 44.0237 294.854 43.2725L294.836 43.2237ZM296.526 44.7975C283.241 49.2462 270.258 54.548 257.657 60.6697C253.541 62.6583 249.446 64.7384 245.371 66.91C242.982 64.846 240.924 62.4265 239.271 59.7364C257.91 53.1718 277.068 48.1907 296.544 44.8463L296.526 44.7975ZM243.657 67.7457C223.184 78.8397 203.784 91.809 185.707 106.487C180.217 101.643 175.807 96.4401 172.745 90.9684C177.742 87.9631 182.826 85.0717 187.995 82.2942C203.935 73.7269 220.497 66.3679 237.539 60.2793C239.188 63.0835 241.257 65.6181 243.675 67.7945L243.657 67.7457ZM184.274 107.67C166.303 122.383 149.637 138.621 134.461 156.202C134.04 156.69 133.625 157.19 133.204 157.678C129.819 154.734 126.633 151.567 123.67 148.199C120.072 144.112 116.919 139.654 114.264 134.901C131.767 118.731 150.841 104.349 171.201 91.9688C174.652 97.9151 179.077 103.239 184.292 107.719L184.274 107.67ZM133.43 160.338C141.903 167.517 152.206 174.197 164.205 180.248C155.665 193.882 147.661 208.07 140.378 222.68C136.938 229.573 133.672 236.527 130.581 243.542C115.74 236.106 102.93 227.81 92.2917 218.66C104.241 198.033 118.009 178.515 133.43 160.338ZM141.97 223.491C149.253 208.887 157.22 194.699 165.803 181.071C166.828 181.572 167.852 182.078 168.902 182.572C180.92 188.19 193.362 192.855 206.112 196.523C197.057 218.445 189.137 240.819 182.383 263.556C172.946 260.817 163.784 257.742 154.963 254.332C146.911 251.221 139.308 247.897 132.155 244.359C135.274 237.352 138.546 230.396 141.97 223.491ZM154.329 256.04C163.192 259.469 172.403 262.555 181.888 265.312C175.145 288.145 169.579 311.309 165.211 334.712C159.518 333.057 153.944 331.306 148.491 329.46C134.612 324.81 121.055 319.249 107.908 312.813C114.09 290.004 121.954 267.684 131.435 246.036C138.629 249.574 146.264 252.909 154.341 256.04H154.329ZM147.918 331.199C153.469 333.077 159.123 334.85 164.882 336.518C160.748 358.883 157.873 381.462 156.268 404.148C154.609 403.665 152.956 403.174 151.309 402.678C132.093 396.945 113.384 389.632 95.3721 380.816C95.6893 377.514 96.0513 374.193 96.458 370.855C98.8287 351.878 102.497 333.087 107.438 314.613C120.556 321.015 134.078 326.556 147.918 331.199ZM158.129 470.358C181.455 476.93 205.223 481.823 229.249 484.998C230.011 503.938 231.475 521.22 233.61 536.482C210.992 533.458 188.617 528.827 166.657 522.623C162.484 506.982 159.623 489.426 158.129 470.358ZM233.879 538.361C235.239 547.724 236.856 556.301 238.722 563.981C239.808 568.454 240.973 572.614 242.217 576.461C222.433 573.808 202.863 569.746 183.657 564.304C179.37 557.12 175.737 549.567 172.799 541.734C170.766 536.354 168.914 530.671 167.242 524.684C189.106 530.803 211.373 535.373 233.879 538.361ZM235.745 538.617C259.564 541.731 283.558 543.308 307.579 543.338V580.914C286.376 580.889 265.198 579.492 244.176 576.73C240.79 566.36 237.935 553.55 235.745 538.617ZM309.409 543.338C333.434 543.308 357.432 541.731 381.255 538.617C379.071 553.55 376.253 566.305 372.812 576.748C351.79 579.504 330.611 580.896 309.409 580.914V543.338ZM383.134 538.361C405.647 535.369 427.922 530.797 449.794 524.678C445.598 539.867 440.144 553.202 433.477 564.292C414.24 569.752 394.638 573.83 374.819 576.492C378.18 566.055 380.974 553.299 383.134 538.361ZM383.402 536.476C384.382 529.428 385.226 521.917 385.933 513.942C386.751 504.719 387.361 495.032 387.763 484.992C411.782 481.82 435.541 476.927 458.859 470.352C457.364 489.42 454.51 506.952 450.319 522.61C428.371 528.813 406.008 533.444 383.402 536.47V536.476ZM458.896 488.017C459.664 482.076 460.288 476.004 460.768 469.803C479.456 464.465 497.71 457.709 515.369 449.593C517.447 448.63 519.495 447.65 521.512 446.653C519.383 466.063 515.345 483.93 509.477 500.101C502.206 503.713 494.538 507.133 486.474 510.362C475.683 514.668 464.294 518.56 452.43 522.019C455.296 510.832 457.455 499.475 458.896 488.017ZM465.691 402.678C464.064 403.174 462.438 403.658 460.811 404.13C459.226 381.442 456.353 358.862 452.204 336.499C457.938 334.836 463.568 333.069 469.095 331.199C482.969 326.544 496.523 320.987 509.672 314.564C515.5 336.269 519.528 358.418 521.713 380.785C503.674 389.614 484.936 396.936 465.691 402.678ZM468.497 329.478C463.056 331.325 457.511 333.067 451.862 334.706C447.873 313.307 442.712 291.536 436.435 269.698C436.014 268.234 435.581 266.776 435.148 265.312C444.615 262.561 453.808 259.481 462.659 256.059C470.736 252.936 478.369 249.599 485.559 246.049C495.081 267.67 502.98 289.97 509.19 312.764C496.009 319.222 482.415 324.799 468.497 329.46V329.478ZM462 254.351C453.198 257.755 444.048 260.823 434.636 263.562C427.889 240.824 419.977 218.448 410.931 196.523C423.661 192.855 436.084 188.197 448.086 182.59C449.148 182.084 450.191 181.578 451.228 181.065C459.723 194.62 467.653 208.768 475.018 223.509C478.466 230.423 481.736 237.377 484.827 244.371C477.665 247.893 470.057 251.213 462 254.332V254.351ZM476.641 222.698C469.32 207.985 461.391 193.833 452.85 180.242C464.831 174.197 475.116 167.523 483.582 160.356C499.014 178.517 512.792 198.021 524.751 218.635C514.088 227.785 501.272 236.106 486.443 243.554C483.369 236.559 480.105 229.601 476.653 222.68L476.641 222.698ZM445.079 89.3946C440.089 86.4015 435.016 83.5122 429.86 80.7265C413.922 72.1484 397.37 64.7634 380.34 58.6323C381.513 56.215 382.203 53.5916 382.371 50.9097C405.4 55.8864 427.838 63.282 449.312 72.9734C449.177 78.699 447.729 84.3171 445.079 89.3946ZM382.389 49.0431C382.276 46.4093 381.655 43.8222 380.559 41.4242C402.431 43.419 424 47.9345 444.835 54.8808C447.499 59.8377 449.02 65.3274 449.288 70.9482C427.817 61.3255 405.394 53.9836 382.389 49.0431ZM379.608 39.5027C378.104 36.88 376.221 34.4937 374.02 32.4206C380.885 32.201 387.68 32.2803 394.406 32.6585C406.705 33.3376 418.92 35.1013 430.909 37.9289C435.839 42.0974 440.084 47.0151 443.487 52.5018C422.755 45.7644 401.324 41.4035 379.608 39.5027ZM394.51 30.8346C387.117 30.4279 379.638 30.371 372.074 30.6638C369.232 28.2921 366.156 26.2156 362.894 24.4662C378.754 21.6175 394.065 21.2515 408.528 23.3377C415.331 26.679 421.779 30.699 427.773 35.3364C416.821 32.9627 405.699 31.4574 394.51 30.8346ZM360.253 23.0937C356.206 21.1249 352.018 19.4631 347.723 18.1222C358.703 13.6753 369.299 11.6562 379.345 12.1198C387.529 14.4586 395.536 17.3756 403.306 20.8489C388.922 19.4923 374.417 20.2486 360.253 23.0937ZM344.966 17.2926C339.816 15.8334 334.575 14.7187 329.277 13.9559C334.767 8.594 340.141 5.55619 345.253 5.04379C354.524 6.26904 363.716 8.03496 372.782 10.3325C363.833 10.8388 354.518 13.1751 344.966 17.2926ZM340.22 4.41549C335.95 6.01369 331.576 9.1064 327.099 13.6509C321.232 12.9008 315.324 12.5096 309.409 12.4797C309.409 7.56309 309.409 4.24469 309.409 2.63429C319.704 2.66095 329.99 3.25558 340.22 4.41549ZM307.585 12.4797C301.694 12.5076 295.811 12.8967 289.968 13.6448C285.495 9.09826 281.125 6.01776 276.859 4.40329C287.061 3.25075 297.318 2.66019 307.585 2.63429V12.4797ZM271.772 5.04379C276.847 5.54399 282.179 8.5269 287.73 13.9498C282.47 14.7122 277.265 15.8187 272.15 17.2621C262.61 13.1141 253.35 10.7778 244.438 10.2715C253.441 8.00497 262.568 6.25951 271.772 5.04379ZM269.399 18.0856C265.097 19.4198 260.903 21.0777 256.851 23.0449C254.005 22.4959 251.182 22.0181 248.385 21.6114C236.984 19.9311 225.422 19.6341 213.95 20.7269C221.684 17.2886 229.65 14.3982 237.789 12.0771C248 11.5952 258.602 13.6997 269.399 18.0856ZM248.11 23.4231C250.129 23.7098 252.16 24.0331 254.21 24.4113C250.936 26.1608 247.848 28.2373 244.993 30.6089C227.274 29.829 209.526 31.1807 192.13 34.6349L189.398 35.2083C195.422 30.5653 201.901 26.5432 208.735 23.2035C221.803 21.4053 235.062 21.4792 248.11 23.4231ZM192.472 36.4283C209.106 33.1181 226.068 31.7548 243.017 32.3657C240.805 34.4412 238.912 36.8318 237.398 39.46C226.13 40.4764 214.929 42.1321 203.848 44.4193C193.602 46.5302 183.48 49.2102 173.531 52.4469C176.967 46.93 181.251 41.9893 186.226 37.8069C188.304 37.3148 190.392 36.8553 192.49 36.4283H192.472ZM204.208 46.1883C214.85 43.9922 225.604 42.3814 236.422 41.3632C235.322 43.7722 234.7 46.3723 234.592 49.0187C211.593 53.9683 189.177 61.3184 167.712 70.9482C167.983 65.3046 169.515 59.7935 172.196 54.8198C182.692 51.3158 193.388 48.4417 204.227 46.2127L204.208 46.1883ZM234.629 50.9097C234.799 53.6157 235.497 56.2621 236.685 58.6994C219.645 64.8007 203.084 72.1656 187.141 80.7326C181.992 83.502 176.919 86.3934 171.921 89.4068C169.271 84.3249 167.823 78.7029 167.688 72.9734C189.162 63.282 211.601 55.8864 234.629 50.9097ZM65.9396 190.441C71.3686 200.14 79.1035 209.467 89.0892 218.324C89.3698 218.574 89.6687 218.824 89.9554 219.074C78.3783 239.203 68.7104 260.371 61.078 282.301C49.4209 272.059 40.338 261.055 34.0489 249.495C42.4574 228.689 53.1534 208.883 65.9396 190.441ZM91.3401 220.288C102.07 229.438 114.935 237.765 129.77 245.219C120.298 266.867 112.436 289.185 106.248 311.99C89.2661 303.45 74.6078 293.928 62.5603 283.6C70.1493 261.641 79.7849 240.444 91.3401 220.288ZM105.736 313.783C100.732 332.455 97.0164 351.448 94.6158 370.629C94.2294 373.748 93.8878 376.851 93.591 379.938C75.6875 370.91 60.0959 360.771 47.231 349.724C49.5879 330.34 53.7354 311.217 59.6201 292.598C60.3643 290.211 61.141 287.83 61.9503 285.455C74.071 295.764 88.772 305.28 105.76 313.783H105.736ZM93.5361 445.702C95.5613 464.795 99.4592 482.68 105.193 498.949C91.0717 491.769 78.524 483.869 67.7209 475.323C65.8543 473.847 64.0609 472.353 62.3102 470.852C56.9437 458.144 52.8569 444.934 50.1102 431.415C49.0732 426.393 48.207 421.31 47.5116 416.165C60.2301 426.828 75.6753 436.759 93.5605 445.702H93.5361ZM108.493 502.633C115.268 505.939 122.385 509.081 129.843 512.057C141.018 516.523 152.834 520.543 165.156 524.099C166.901 530.522 168.871 536.628 171.055 542.399C173.804 549.725 177.148 556.815 181.053 563.596C164.075 558.695 147.556 552.323 131.685 544.552C122.346 532.578 114.557 518.53 108.518 502.633H108.493ZM185.024 566.61C203.996 571.881 223.313 575.823 242.834 578.407C246.073 587.917 249.806 595.347 253.96 600.593C238.381 598.457 222.971 595.228 207.844 590.93C199.31 585.178 191.679 577.016 185.048 566.61H185.024ZM374.16 578.401C393.707 575.813 413.048 571.863 432.043 566.579C425.535 576.846 417.934 585.05 409.278 590.882C394.122 595.192 378.681 598.433 363.071 600.581C367.255 595.328 370.97 587.899 374.185 578.401H374.16ZM436.014 563.548L436.454 562.785C442.712 551.805 447.861 538.843 451.856 524.087C464.16 520.536 475.963 516.517 487.126 512.057C494.601 509.073 501.736 505.919 508.531 502.596C505.611 510.335 502.146 517.857 498.161 525.105C494.45 531.864 490.211 538.319 485.486 544.412C469.592 552.219 453.047 558.622 436.039 563.548H436.014ZM549.23 475.323C538.446 483.863 525.916 491.744 511.819 498.912C517.504 482.759 521.39 464.972 523.409 445.696C541.319 436.741 556.758 426.786 569.507 416.092C567.496 431.285 563.881 446.222 558.722 460.653C557.502 464.069 556.191 467.422 554.788 470.712C553.031 472.261 551.176 473.804 549.255 475.323H549.23ZM523.421 379.907C521.203 357.555 517.151 335.423 511.307 313.734C528.283 305.231 542.972 295.715 555.093 285.406C562.188 306.276 567.094 327.827 569.733 349.712C556.91 360.747 541.331 370.885 523.446 379.907H523.421ZM510.825 311.935C504.617 289.144 496.731 266.845 487.23 245.219C502.108 237.747 514.991 229.39 525.733 220.209C532.882 232.695 539.307 245.581 544.979 258.804C548.505 267.027 551.683 275.268 554.513 283.527C542.453 293.879 527.813 303.407 510.849 311.935H510.825ZM546.607 258.108C540.859 244.712 534.342 231.658 527.087 219.013L527.887 218.324C537.897 209.449 545.644 200.097 551.067 190.374C563.846 208.834 574.532 228.659 582.927 249.483C576.668 261.03 567.579 272.053 555.94 282.258C553.171 274.194 550.068 266.144 546.632 258.108H546.607ZM593.577 200.451C599.552 216.47 604.15 232.969 607.321 249.77C604.117 237.09 599.88 224.694 594.651 212.706C594.645 208.598 594.286 204.498 593.577 200.451ZM558.533 153.646C544.717 136.723 528.988 121.457 511.661 108.152C511.552 100.211 509.716 92.3887 506.28 85.2283C522.573 96.3353 537.338 109.53 550.2 124.476C555.312 134.004 558.106 143.8 558.533 153.646ZM509.8 106.719C494.63 95.2414 478.433 85.1886 461.415 76.6883C458.031 74.9925 454.609 73.3658 451.149 71.8083C451.031 66.2394 449.72 60.7605 447.306 55.7409C458.613 59.64 469.632 64.3282 480.282 69.7709C488.157 73.8081 495.804 78.276 503.188 83.1543C507.161 90.4017 509.423 98.4622 509.8 106.719ZM474.127 51.8491C460.691 44.9785 446.478 39.7478 431.793 36.2697C426.383 31.7056 420.523 27.7018 414.305 24.3198C424.668 26.2962 434.714 29.6763 444.164 34.3665L444.195 34.2994C450.221 37.3046 456.132 40.5031 461.927 43.8947V43.9435C466.271 46.4851 470.335 49.1204 474.121 51.8491H474.127ZM409.065 21.5626C402.956 18.5317 396.665 15.8833 390.228 13.6326C391.027 13.8217 391.814 14.023 392.601 14.2426V14.1572C402.198 16.9144 411.663 20.1555 420.996 23.8806C417.096 22.929 413.119 22.1563 409.065 21.5626ZM224.399 14.3097C225.186 14.0779 225.979 13.8766 226.772 13.6997C220.433 15.9147 214.235 18.5119 208.21 21.4772C204.212 22.0587 200.284 22.8294 196.425 23.7891C205.611 20.1291 214.928 16.9469 224.375 14.2426L224.399 14.3097ZM172.836 34.3543C182.354 29.6143 192.473 26.1933 202.915 24.1856C196.677 27.5637 190.797 31.5654 185.365 36.1294C170.778 39.5487 156.656 44.7162 143.306 51.5197C146.966 48.9089 150.898 46.3733 155.103 43.913V43.8642C160.898 40.4726 166.809 37.2742 172.836 34.2689V34.3543ZM134.04 58.797C149.117 49.7887 165.424 43.022 182.45 38.7097C177.853 42.9487 173.957 47.8901 170.908 53.3497C151.57 59.8335 133.09 68.6412 115.874 79.5797C120.309 72.3268 126.385 65.3667 134.04 58.797ZM169.756 55.6616C167.325 60.696 166.006 66.1946 165.888 71.7839C162.436 73.3618 159.013 74.9884 155.622 76.6639C138.589 85.1676 122.379 95.2287 107.2 106.719C107.588 98.4029 109.883 90.2879 113.91 83.0018C131.298 71.5891 150.049 62.4039 169.725 55.6616H169.756ZM105.37 108.152C88.0426 121.457 72.3137 136.723 58.4977 153.646C58.9308 143.685 61.7916 133.772 67.0071 124.134C79.2319 109.93 93.2016 97.3278 108.585 86.6252L110.823 85.0819C107.345 92.2822 105.484 100.156 105.37 108.152ZM22.4101 212.706C17.1606 224.692 12.9028 237.088 9.67936 249.77C12.8502 232.969 17.448 216.47 23.4227 200.451C22.7141 204.498 22.3549 208.598 22.3491 212.706H22.4101ZM22.5443 217.068C23.1478 226.125 25.3449 235.004 29.0346 243.298C29.9618 245.42 30.9785 247.527 32.0846 249.617C24.1849 269.26 18.6281 289.765 15.5293 310.709C9.66716 298.978 6.66595 286.919 6.64155 274.774C9.44294 254.942 14.7666 235.55 22.4833 217.068H22.5443ZM33.2376 251.709C39.6853 263.147 48.8597 274.029 60.4985 284.168C59.6079 286.791 58.7498 289.42 57.9243 292.055C52.1258 310.386 47.9976 329.204 45.5901 348.279C43.7153 346.623 41.9016 344.954 40.1488 343.27C30.2729 333.742 22.532 323.75 16.9688 313.515C19.8781 292.338 25.3196 271.588 33.1766 251.709H33.2376ZM45.4986 414.372C46.2509 420.265 47.2126 426.07 48.3838 431.788C50.9155 444.195 54.5618 456.349 59.2785 468.101C48.3778 458.225 39.911 447.757 34.0184 436.832C26.2398 419.446 20.7783 401.113 17.7741 382.304C24.4536 393.516 33.7622 404.27 45.4376 414.372H45.4986ZM20.6533 404.612C16.5655 392.646 13.2384 380.434 10.692 368.049C12.0279 371.406 13.5533 374.685 15.2609 377.87C16.4869 386.886 18.2633 395.819 20.5801 404.618L20.6533 404.612ZM60.9133 471.956C66.5538 485.255 73.7184 497.854 82.2633 509.502C81.0982 508.282 79.9575 507.019 78.8655 505.762C64.1458 488.847 51.3546 470.345 40.7284 450.6C46.6435 458.424 53.3865 465.586 60.8401 471.962L60.9133 471.956ZM100.106 527.521C109.711 534.522 119.901 540.683 130.563 545.937C136.43 553.479 143.121 560.343 150.51 566.402C136.119 557.646 122.485 547.703 109.75 536.677C106.387 533.753 103.142 530.703 100.014 527.527L100.106 527.521ZM207.069 592.59C207.822 593.09 208.578 593.574 209.338 594.041C205.227 592.618 201.14 591.109 197.077 589.515C200.355 590.597 203.686 591.622 207.069 592.59ZM213.779 594.42C227.588 598.022 241.606 600.767 255.753 602.636C257.186 604.212 258.802 605.61 260.566 606.803C248.342 604.871 236.249 602.186 224.357 598.763V598.677C220.704 597.63 217.167 596.218 213.798 594.462L213.779 594.42ZM258.608 603.008C274.848 605.048 291.199 606.083 307.567 606.107V610.536C294.407 610.505 281.263 609.627 268.216 607.907V607.864C264.842 607.455 261.634 605.808 258.626 603.051L258.608 603.008ZM309.397 606.107C325.775 606.08 342.135 605.045 358.386 603.008C355.336 605.784 352.146 607.413 348.742 607.888V607.931C335.695 609.651 322.551 610.53 309.391 610.56L309.397 606.107ZM361.296 602.624C375.464 600.766 389.503 598.026 403.331 594.42C399.907 596.201 396.312 597.631 392.601 598.69V598.775C380.734 602.191 368.668 604.872 356.47 606.803C358.246 605.625 359.872 604.236 361.314 602.667L361.296 602.624ZM410.096 592.492C413.406 591.54 416.659 590.538 419.856 589.485C415.874 591.055 411.863 592.537 407.82 593.932C408.644 593.511 409.394 593.035 410.144 592.535L410.096 592.492ZM486.699 545.79C497.322 540.543 507.475 534.394 517.047 527.411C513.879 530.595 510.589 533.666 507.177 536.622C494.57 547.534 481.084 557.386 466.856 566.079C474.224 560.097 480.897 553.306 486.748 545.833L486.699 545.79ZM538.153 505.726C537.207 506.811 536.225 507.885 535.225 508.953C543.666 497.419 550.738 484.944 556.3 471.779C563.704 465.444 570.408 458.334 576.296 450.569C565.67 470.315 552.879 488.816 538.159 505.732L538.153 505.726ZM583.171 436.454C577.303 447.434 568.83 457.981 557.892 467.918C558.775 465.718 559.623 463.481 560.436 461.208C565.866 446.008 569.604 430.257 571.581 414.238C583.317 404.075 592.65 393.254 599.391 381.969C596.43 400.779 590.992 419.114 583.22 436.497L583.171 436.454ZM601.904 377.552C603.55 374.456 605.024 371.271 606.32 368.012C603.86 379.988 600.672 391.804 596.774 403.392C599.011 394.904 600.741 386.289 601.953 377.595L601.904 377.552ZM576.796 343.228C575.052 344.911 573.244 346.575 571.373 348.218C568.653 326.385 563.69 304.891 556.563 284.076C568.153 273.95 577.352 263.074 583.787 251.642C591.669 271.504 597.139 292.24 600.08 313.405C594.517 323.696 586.758 333.712 576.845 343.27L576.796 343.228ZM584.928 249.55C586.03 247.464 587.046 245.363 587.978 243.249C591.667 234.955 593.865 226.076 594.468 217.019C602.191 235.5 607.521 254.892 610.328 274.725C610.328 286.827 607.321 298.856 601.489 310.556C598.388 289.659 592.846 269.198 584.977 249.593L584.928 249.55ZM538.159 107.182C540.549 109.929 542.789 112.802 544.869 115.789C532.781 102.957 519.251 91.5639 504.548 81.8367C500.981 75.3684 496.548 69.4169 491.372 64.1467C496.876 67.8754 502.16 71.9204 507.195 76.2613C512.783 81.0965 518.21 86.1494 523.476 91.4198C528.592 96.5397 533.503 101.808 538.208 107.225L538.159 107.182ZM93.4812 91.4808C98.7434 86.1941 104.17 81.1413 109.762 76.3223C114.839 71.9362 120.165 67.8465 125.714 64.0735C120.528 69.3296 116.081 75.2664 112.495 81.7208C110.811 82.831 109.146 83.9615 107.499 85.1124C94.832 93.934 83.1016 104.029 72.4911 115.24C74.3983 112.54 76.4967 109.866 78.7863 107.219C83.4955 101.806 88.3938 96.5601 93.4812 91.4808ZM5.47035 284.649C6.88786 294.888 10.147 304.785 15.0901 313.862C14.8644 315.564 14.657 317.272 14.4801 318.974C12.486 336.733 12.4962 354.66 14.5105 372.416C10.9676 364.937 8.56201 356.969 7.37356 348.779H7.32475C5.38255 334.77 4.41035 320.643 4.41506 306.5C4.41506 299.18 4.76682 291.896 5.47035 284.649ZM609.681 348.791H609.633C608.465 356.869 606.108 364.73 602.636 372.117C603.388 365.501 603.85 358.803 604.021 352.024C604.339 339.239 603.65 326.448 601.959 313.771C606.875 304.723 610.117 294.862 611.53 284.662C612.233 291.9 612.585 299.18 612.585 306.5C612.592 320.647 611.622 334.778 609.681 348.791Z" fill="#F84F38"/>
</svg>
