<svg width="162" height="54" viewBox="0 0 162 54" fill="none" xmlns="http://www.w3.org/2000/svg">
<path d="M69.2105 28.1045C69.2105 35.728 63.2275 41.3457 55.885 41.3457C48.5425 41.3457 42.5596 35.728 42.5596 28.1045C42.5596 20.4272 48.5425 14.8633 55.885 14.8633C63.2275 14.8633 69.2105 20.4272 69.2105 28.1045V28.1045ZM63.3772 28.1045C63.3772 23.3405 59.9096 20.081 55.885 20.081C51.8604 20.081 48.3928 23.3405 48.3928 28.1045C48.3928 32.8207 51.8604 36.128 55.885 36.128C59.9096 36.128 63.3772 32.8147 63.3772 28.1045Z" fill="black" fill-opacity="0.8"/>
<path d="M97.9581 28.105C97.9581 35.7285 91.9751 41.3462 84.6326 41.3462C77.2901 41.3462 71.3071 35.7285 71.3071 28.105C71.3071 20.4336 77.2901 14.8638 84.6326 14.8638C91.9751 14.8637 97.9581 20.4277 97.9581 28.105V28.105ZM92.1248 28.105C92.1248 23.341 88.6572 20.0815 84.6326 20.0815C80.608 20.0815 77.1404 23.341 77.1404 28.105C77.1404 32.8211 80.608 36.1285 84.6326 36.1285C88.6572 36.1285 92.1248 32.8152 92.1248 28.105Z" fill="black" fill-opacity="0.8"/>
<path d="M125.507 15.6617V39.4338C125.507 49.2124 119.722 53.2063 112.882 53.2063C106.444 53.2063 102.569 48.9139 101.108 45.4037L106.187 43.2963C107.091 45.4514 109.307 47.9946 112.876 47.9946C117.254 47.9946 119.967 45.3022 119.967 40.2337V38.3293H119.764C118.458 39.9352 115.943 41.3381 112.769 41.3381C106.127 41.3381 100.042 35.5712 100.042 28.1506C100.042 20.6764 106.127 14.8617 112.769 14.8617C115.937 14.8617 118.452 16.2646 119.764 17.8227H119.967V15.6676H125.507V15.6617ZM120.381 28.1507C120.381 23.4882 117.26 20.0794 113.29 20.0794C109.265 20.0794 105.893 23.4882 105.893 28.1507C105.893 32.7654 109.265 36.1264 113.29 36.1264C117.26 36.1264 120.381 32.7654 120.381 28.1507V28.1507Z" fill="black" fill-opacity="0.8"/>
<path d="M134.64 1.72974V40.534H128.951V1.72974H134.64Z" fill="black" fill-opacity="0.8"/>
<path d="M156.812 32.4616L161.34 35.4704C159.878 37.6256 156.357 41.3388 150.272 41.3388C142.726 41.3388 137.09 35.5242 137.09 28.0976C137.09 20.2234 142.774 14.8564 149.619 14.8564C156.513 14.8564 159.884 20.3248 160.986 23.2799L161.591 24.7844L143.834 32.1154C145.193 34.7719 147.308 36.1272 150.272 36.1272C153.243 36.1272 155.303 34.6705 156.812 32.4616V32.4616ZM142.876 27.6977L154.746 22.7845C154.093 21.1308 152.129 19.9786 149.817 19.9786C146.852 19.9786 142.726 22.5874 142.876 27.6977Z" fill="black" fill-opacity="0.8"/>
<path d="M21.0235 24.6585V19.0408H40.0146C40.2002 20.0199 40.296 21.178 40.296 22.4317C40.296 26.6464 39.1402 31.8582 35.415 35.5714C31.7917 39.3325 27.1622 41.3383 21.0295 41.3383C9.66241 41.3383 0.104004 32.1089 0.104004 20.7781C0.104004 9.44725 9.66241 0.217773 21.0295 0.217773C27.3179 0.217773 31.7976 2.67736 35.1635 5.88321L31.1867 9.84723C28.7732 7.59065 25.5032 5.83545 21.0234 5.83545C12.7227 5.83545 6.23063 12.5038 6.23063 20.7781C6.23063 29.0523 12.7227 35.7207 21.0234 35.7207C26.4075 35.7207 29.4739 33.5656 31.4383 31.6074C33.0313 30.0194 34.0794 27.7509 34.4926 24.6525L21.0235 24.6585Z" fill="black" fill-opacity="0.8"/>
</svg>
