<svg width="52" height="52" viewBox="0 0 52 52" fill="none" xmlns="http://www.w3.org/2000/svg">
<path d="M31 16H21C18.2386 16 16 18.2386 16 21V31C16 33.7614 18.2386 36 21 36H31C33.7614 36 36 33.7614 36 31V21C36 18.2386 33.7614 16 31 16Z" stroke="#F84F38" stroke-width="2" stroke-linecap="round" stroke-linejoin="round"/>
<path d="M30 25.3701C30.1234 26.2023 29.9812 27.0523 29.5937 27.7991C29.2062 28.5459 28.5931 29.1515 27.8416 29.5297C27.0901 29.908 26.2384 30.0397 25.4077 29.906C24.5771 29.7723 23.8097 29.3801 23.2148 28.7852C22.6199 28.1903 22.2277 27.4229 22.094 26.5923C21.9604 25.7616 22.092 24.91 22.4703 24.1584C22.8485 23.4069 23.4541 22.7938 24.2009 22.4063C24.9477 22.0188 25.7977 21.8766 26.63 22.0001C27.4789 22.1259 28.2648 22.5215 28.8716 23.1284C29.4785 23.7352 29.8741 24.5211 30 25.3701Z" stroke="#F84F38" stroke-width="2" stroke-linecap="round" stroke-linejoin="round"/>
<path d="M31.5 20.5H31.51" stroke="#F84F38" stroke-width="2" stroke-linecap="round" stroke-linejoin="round"/>
<circle cx="26" cy="26" r="25.5" stroke="#F84F38"/>
</svg>
