<svg width="261" height="517" viewBox="0 0 261 517" fill="none" xmlns="http://www.w3.org/2000/svg">
<path d="M261 167.4V391.377L260.988 391.381C260.925 396.236 257.962 400.863 251.941 404.331L65.2552 511.778C51.8201 519.513 28.3494 518.543 12.8325 509.612C4.13065 504.603 -0.216137 498.157 0.00826519 492.093V492.097V268.062L261 167.4" fill="#F84F38"/>
<path d="M65.2554 287.943L251.928 180.119C265.367 172.358 263.68 158.802 248.164 149.843C232.652 140.88 209.183 139.908 195.745 147.669L9.07155 255.492C-4.36671 263.249 -2.67963 276.806 12.8363 285.768C28.3522 294.731 51.8213 295.704 65.2554 287.943" fill="#030101"/>
<path d="M46.6653 272.836C55.5698 272.836 62.788 265.634 62.788 256.745V157.2C62.788 123.253 87.6865 80.2261 117.154 63.2526L159.969 38.5879C171.278 32.0695 181.495 30.4866 187.991 34.2245C194.486 37.9664 198.212 47.5844 198.212 60.6129V160.158C198.212 169.047 205.43 176.249 214.335 176.249C223.239 176.249 230.457 169.047 230.457 160.158V60.6129C230.457 35.4137 221.1 16.1445 204.113 6.36071C187.123 -3.42724 165.721 -1.8775 143.846 10.7242L101.031 35.3847C61.5047 58.1555 30.5425 111.662 30.5425 157.2V256.745C30.5425 265.634 37.7608 272.836 46.6653 272.836" fill="#F84F38"/>
</svg>
