<svg width="1493" height="241" viewBox="0 0 1493 241" fill="none" xmlns="http://www.w3.org/2000/svg">
<path d="M144.993 7.99999V8.23999H133.713L100.113 142.64H96.7534L63.3934 8.23999H54.5134V7.99999H0.753438V176H37.2334V50.96H40.8334L72.7534 176H125.313L157.233 50.96H160.833V176H197.313V7.99999H144.993ZM326.328 8.23999H265.128L205.128 176H242.808L252.888 148.4H338.568L348.408 176H386.328L326.328 8.23999ZM264.648 115.04L291.048 41.36H300.408L326.568 115.04H264.648ZM510.53 92.24L570.05 8.23999H524.21L481.97 69.2H477.89L435.65 8.23999H390.05L449.33 92.24L390.05 176H435.65L477.89 115.04H481.97L524.21 176H570.05L510.53 92.24Z" fill="#F84F38"/>
<path d="M729.575 64.16C729.575 7.99999 684.695 7.99999 664.535 7.99999C654.695 7.99999 628.055 8.23999 619.175 8.23999V7.99999H582.695V176H619.175V120.08C626.615 120.08 651.575 120.08 657.815 120.08C659.975 120.08 663.095 120.08 666.695 120.08L694.055 176H733.655L701.495 111.68C716.615 103.76 729.575 93.2 729.575 64.16ZM661.655 87.44C658.535 87.44 627.095 87.44 619.175 87.44V40.88C628.775 40.88 655.655 40.88 662.375 40.88C673.655 40.88 695.735 40.88 695.735 64.16C695.735 87.68 672.215 87.44 661.655 87.44ZM843.14 61.28C834.02 49.28 818.9 41.36 793.94 41.36C737.06 41.36 731.06 89.12 731.06 108.8C731.06 126.8 737.3 176 793.7 176C819.14 176 834.5 169.04 843.62 157.28H844.82V176H881.3V41.36H844.82V61.28H843.14ZM804.5 144.8C769.7 144.8 765.86 118.4 765.86 108.8C765.86 98.24 769.46 72.8 804.5 72.8C835.94 72.8 842.42 90.56 842.42 108.8C842.42 129.2 835.94 144.8 804.5 144.8ZM944.452 72.56H988.132V41.84H944.452V2.96H907.732V41.84H889.972V72.56H907.732V126.56C907.732 146 907.732 176 944.452 176C980.932 176 988.132 173.6 988.132 173.6V138.08C953.092 140 944.452 142.64 944.452 123.2V120.32V72.56ZM1034.26 176V42.32H998.019V176H1034.26ZM1034.26 32.72V0.0799904H998.019V32.72H1034.26ZM1130.52 41.36C1106.28 41.36 1094.04 49.28 1085.4 61.28H1083.72V41.36H1047.24V176H1083.72V111.2C1083.72 92.96 1088.28 72.8 1119.96 72.8C1154.76 72.8 1152.6 98.24 1152.6 108.8V176H1188.84V108.8C1188.84 89.12 1187.4 41.36 1130.52 41.36ZM1311.48 42.8V62.72H1309.32C1300.2 50.72 1285.08 42.8 1260.12 42.8C1203.24 42.8 1197.24 90.56 1197.24 110.24C1197.24 128.48 1203.48 177.68 1259.88 177.68C1285.32 177.68 1300.68 170.48 1309.8 158.96H1311.48V168.56C1311.48 193.28 1300.44 209.36 1275.72 209.36C1247.16 209.36 1240.92 195.44 1239.96 188.24C1233.96 188.24 1213.32 188.24 1203.72 188.24C1203.72 208.16 1215.48 240.8 1275.96 240.8C1342.92 240.8 1347.96 190.88 1347.96 163.04V42.8H1311.48ZM1270.68 146.24C1235.88 146.24 1232.04 120.08 1232.04 110.24C1232.04 99.68 1235.64 74.24 1270.68 74.24C1302.12 74.24 1308.6 92 1308.6 110.24C1308.6 130.64 1302.12 146.24 1270.68 146.24ZM1427.2 94.4L1424.08 94.16C1400.56 90.56 1396.48 87.2 1396.48 81.2C1396.48 77.12 1400.8 69.68 1421.2 69.68C1442.32 69.68 1451.44 75.44 1451.44 86V87.2H1488.64V86C1488.64 65.36 1476.88 40.64 1421.2 40.64C1369.36 40.64 1358.56 62.96 1358.56 81.68C1358.56 108.56 1382.56 117.2 1421.2 122.24C1423.12 122.48 1425.04 122.72 1426.96 122.96C1441.6 124.64 1454.56 126.56 1454.56 136.64C1454.56 145.52 1440.64 147.44 1426 147.44C1401.76 147.44 1393.12 142.16 1393.12 130.64V129.44H1355.68V132.08C1355.44 139.04 1355.44 150.32 1364.8 159.68C1375.6 170.48 1396.48 176 1426.96 176C1468.24 176 1492.24 169.52 1492.24 136.16C1492.24 104.24 1457.68 98.96 1427.2 94.4Z" fill="white"/>
</svg>
