<svg width="405" height="491" viewBox="0 0 405 491" fill="none" xmlns="http://www.w3.org/2000/svg">
<path d="M382.916 180.85C341.253 51.3888 225.103 -23.8126 123.483 12.8809C21.8627 49.5743 -26.7475 184.267 14.9153 313.731C56.5746 443.192 172.729 518.397 274.349 481.704C375.972 445.006 424.579 310.314 382.916 180.85Z" fill="#F84F38"/>
<path d="M389.32 180.759C348.054 50.7634 238.184 -26.4341 143.913 8.3327C49.6457 43.0992 6.67675 176.665 47.9392 306.66C89.2017 436.653 199.072 513.851 293.343 479.08C387.61 444.313 430.579 310.752 389.32 180.759Z" fill="black"/>
<path d="M156.81 199.425C164.061 223.893 162.311 246.702 152.907 250.378C143.5 254.052 129.997 237.2 122.749 212.736C115.497 188.271 117.245 165.457 126.648 161.787C136.055 158.107 149.559 174.96 156.81 199.425Z" fill="#F84F38"/>
<path d="M275.082 160.004C282.333 184.469 280.589 207.282 271.182 210.953C261.775 214.631 248.274 197.776 241.023 173.311C233.771 148.846 235.519 126.036 244.926 122.362C254.329 118.686 267.833 135.539 275.082 160.004Z" fill="#F84F38"/>
<path d="M329.027 242.557C324.406 235.046 316.681 231.212 309.807 233.724C302.937 236.236 299.015 244.328 299.651 253.296C299.866 256.296 302.663 258.181 304.441 256.505C306.392 254.678 308.5 253.132 310.721 251.892C327.284 308.569 303.517 367.721 256.77 384.809C210.024 401.898 157.426 370.662 138.158 314.978C140.625 314.503 143.176 314.344 145.762 314.514C148.128 314.674 149.263 311.353 147.72 308.839C143.095 301.326 135.371 297.493 128.5 300.006C121.627 302.518 117.708 310.61 118.341 319.577C118.555 322.578 121.356 324.463 123.134 322.787C125.102 320.938 127.235 319.379 129.485 318.135C150.767 380.169 208.903 415.142 260.436 396.3C311.965 377.462 337.985 311.721 319.384 248.711C321.879 248.222 324.455 248.059 327.073 248.233C329.434 248.392 330.573 245.072 329.027 242.557Z" fill="#F84F38"/>
</svg>
