<svg width="182" height="46" viewBox="0 0 182 46" fill="none" xmlns="http://www.w3.org/2000/svg">
<path d="M48.0246 16.3816H66.3661V19.7853H59.1443V38.9726H55.1859V19.7853H47.9944L48.0246 16.3816ZM65.5805 22.6167H68.9647V25.7794H69.0251C69.146 25.3276 69.3575 24.9059 69.6597 24.4842C69.9619 24.0625 70.3245 23.6709 70.7777 23.3396C71.2007 22.9781 71.6842 22.7071 72.2281 22.4962C72.7418 22.2854 73.2857 22.1649 73.8296 22.1649C74.2526 22.1649 74.5548 22.195 74.7059 22.195C74.857 22.2251 75.0383 22.2552 75.1893 22.2552V25.7192C74.9476 25.659 74.6757 25.6288 74.4037 25.5987C74.1318 25.5686 73.89 25.5385 73.6181 25.5385C73.0137 25.5385 72.4396 25.6589 71.8957 25.8999C71.3518 26.1409 70.8986 26.5023 70.4755 26.9542C70.0827 27.4361 69.7503 28.0084 69.5086 28.7012C69.2669 29.394 69.146 30.2073 69.146 31.1109V38.8822H65.52L65.5805 22.6167ZM91.8085 38.9726H88.2429V36.6833H88.1825C87.7292 37.5267 87.0645 38.1593 86.1882 38.6714C85.3119 39.1834 84.4054 39.4244 83.4989 39.4244C81.3535 39.4244 79.7823 38.9123 78.8153 37.828C77.8484 36.7737 77.3649 35.1472 77.3649 33.0085V22.6167H80.9909V32.6471C80.9909 34.0929 81.2629 35.117 81.837 35.6893C82.3809 36.2918 83.1665 36.593 84.1637 36.593C84.9191 36.593 85.5536 36.4725 86.0673 36.2315C86.581 35.9906 87.004 35.6893 87.3062 35.2978C87.6386 34.9062 87.8501 34.4242 88.0012 33.8821C88.1523 33.3399 88.2127 32.7375 88.2127 32.1049V22.6167H91.8387V38.9726H91.8085ZM97.9727 33.7315C98.0935 34.7857 98.4863 35.5086 99.1813 35.9604C99.8763 36.3821 100.722 36.593 101.689 36.593C102.022 36.593 102.415 36.5629 102.838 36.5026C103.261 36.4424 103.684 36.352 104.046 36.2014C104.439 36.0508 104.741 35.8399 104.983 35.5387C105.225 35.2375 105.346 34.8761 105.315 34.4242C105.285 33.9724 105.134 33.5808 104.802 33.2796C104.469 32.9784 104.076 32.7676 103.593 32.5567C103.109 32.376 102.535 32.2254 101.901 32.1049C101.266 31.9844 100.632 31.8338 99.967 31.6832C99.3022 31.5326 98.6374 31.3519 98.0029 31.141C97.3683 30.9302 96.8244 30.6591 96.3107 30.2675C95.8273 29.906 95.4043 29.4542 95.1323 28.8819C94.8301 28.3096 94.6791 27.647 94.6791 26.8036C94.6791 25.8999 94.8906 25.177 95.3438 24.5746C95.7668 23.9722 96.341 23.4902 97.0057 23.1288C97.6705 22.7673 98.4259 22.4962 99.2418 22.3456C100.058 22.195 100.843 22.1348 101.568 22.1348C102.415 22.1348 103.23 22.2251 103.986 22.4059C104.741 22.5866 105.466 22.8577 106.071 23.2794C106.705 23.6709 107.219 24.2131 107.612 24.8457C108.035 25.4782 108.277 26.2614 108.397 27.165H104.62C104.439 26.2915 104.046 25.7192 103.442 25.418C102.807 25.1168 102.112 24.9662 101.296 24.9662C101.055 24.9662 100.722 24.9963 100.39 25.0264C100.027 25.0866 99.7252 25.1469 99.3928 25.2674C99.0907 25.3879 98.8187 25.5686 98.6072 25.7794C98.3957 25.9903 98.2748 26.2915 98.2748 26.6529C98.2748 27.1048 98.4259 27.4361 98.7281 27.7072C99.0302 27.9783 99.4231 28.1891 99.9367 28.4C100.42 28.5807 100.994 28.7313 101.629 28.8518C102.263 28.9723 102.928 29.1229 103.593 29.2735C104.258 29.4241 104.892 29.6048 105.527 29.8157C106.161 30.0265 106.735 30.2976 107.219 30.6892C107.702 31.0507 108.125 31.5025 108.428 32.0447C108.73 32.5869 108.881 33.2796 108.881 34.0628C108.881 35.0267 108.669 35.8399 108.216 36.5327C107.763 37.1954 107.189 37.7677 106.494 38.1894C105.799 38.6111 104.983 38.9123 104.137 39.1232C103.261 39.3039 102.415 39.4244 101.568 39.4244C100.541 39.4244 99.5741 39.3039 98.6979 39.0629C97.8216 38.822 97.0359 38.4605 96.4014 38.0087C95.7668 37.5267 95.2532 36.9544 94.8906 36.2315C94.528 35.5387 94.3164 34.6953 94.2862 33.7013H97.9424V33.7315H97.9727ZM109.908 22.6167H112.658V17.6768H116.284V22.5866H119.547V25.2674H116.284V34.0026C116.284 34.3941 116.314 34.6953 116.344 34.9966C116.375 35.2676 116.465 35.5086 116.556 35.6893C116.677 35.8701 116.858 36.0207 117.07 36.111C117.311 36.2014 117.613 36.2616 118.036 36.2616C118.278 36.2616 118.55 36.2616 118.792 36.2315C119.034 36.2014 119.306 36.1713 119.547 36.111V38.9123C119.155 38.9726 118.762 39.0027 118.369 39.0328C117.976 39.093 117.613 39.093 117.19 39.093C116.223 39.093 115.468 39.0027 114.894 38.822C114.32 38.6412 113.867 38.3701 113.534 38.0388C113.202 37.6773 112.99 37.2556 112.869 36.7436C112.749 36.2315 112.688 35.599 112.658 34.9363V25.2975H109.908V22.5565V22.6167ZM122.086 22.6167H125.5V24.8457H125.56C126.074 23.8818 126.769 23.2191 127.676 22.7974C128.582 22.3757 129.549 22.1649 130.637 22.1649C131.936 22.1649 133.054 22.3757 134.021 22.8577C134.988 23.3095 135.774 23.9119 136.408 24.7252C137.043 25.5083 137.526 26.4421 137.828 27.4963C138.131 28.5506 138.312 29.6952 138.312 30.8699C138.312 31.9844 138.161 33.0387 137.889 34.0628C137.587 35.0869 137.164 36.0207 136.589 36.8038C136.015 37.587 135.29 38.2195 134.384 38.7015C133.477 39.1834 132.45 39.4244 131.241 39.4244C130.727 39.4244 130.184 39.3641 129.67 39.2738C129.156 39.1834 128.643 39.0328 128.159 38.822C127.676 38.6111 127.222 38.34 126.83 38.0087C126.406 37.6773 126.074 37.2858 125.802 36.8641H125.742V45.0269H122.116V22.6167H122.086ZM134.746 30.8097C134.746 30.0868 134.656 29.3639 134.444 28.6711C134.263 27.9783 133.961 27.3759 133.568 26.8337C133.175 26.2915 132.692 25.8698 132.148 25.5385C131.574 25.2071 130.909 25.0565 130.184 25.0565C128.673 25.0565 127.525 25.5686 126.739 26.6228C125.983 27.6771 125.591 29.0928 125.591 30.8398C125.591 31.6832 125.681 32.4362 125.893 33.129C126.104 33.8218 126.376 34.4242 126.799 34.9363C127.192 35.4484 127.676 35.8399 128.25 36.1412C128.824 36.4424 129.458 36.593 130.214 36.593C131.06 36.593 131.725 36.4123 132.299 36.0809C132.873 35.7496 133.326 35.2978 133.719 34.7857C134.082 34.2435 134.353 33.6411 134.505 32.9483C134.656 32.2254 134.746 31.5326 134.746 30.8097ZM141.122 16.3816H144.748V19.7853H141.122V16.3816ZM141.122 22.6167H144.748V38.9726H141.122V22.6167ZM147.981 16.3816H151.607V38.9726H147.981V16.3816ZM162.666 39.4244C161.367 39.4244 160.189 39.2135 159.161 38.7617C158.134 38.3099 157.288 37.7376 156.563 36.9846C155.868 36.2315 155.324 35.2978 154.961 34.2435C154.599 33.1893 154.387 32.0145 154.387 30.7796C154.387 29.5446 154.568 28.4 154.961 27.3457C155.324 26.2915 155.868 25.3879 156.563 24.6047C157.258 23.8517 158.134 23.2492 159.161 22.8275C160.189 22.4058 161.367 22.1649 162.666 22.1649C163.966 22.1649 165.144 22.3757 166.172 22.8275C167.199 23.2492 168.045 23.8517 168.77 24.6047C169.465 25.3577 170.009 26.2915 170.372 27.3457C170.734 28.4 170.946 29.5446 170.946 30.7796C170.946 32.0447 170.764 33.1893 170.372 34.2435C169.979 35.2978 169.465 36.2014 168.77 36.9846C168.075 37.7376 167.199 38.34 166.172 38.7617C165.144 39.1834 163.996 39.4244 162.666 39.4244ZM162.666 36.5629C163.452 36.5629 164.177 36.3821 164.751 36.0508C165.356 35.7195 165.809 35.2676 166.202 34.7255C166.595 34.1833 166.867 33.5507 167.048 32.8881C167.229 32.1953 167.32 31.5025 167.32 30.7796C167.32 30.0868 167.229 29.394 167.048 28.7012C166.867 28.0084 166.595 27.406 166.202 26.8638C165.809 26.3216 165.325 25.8999 164.751 25.5686C164.147 25.2373 163.452 25.0565 162.666 25.0565C161.881 25.0565 161.156 25.2373 160.581 25.5686C159.977 25.8999 159.524 26.3517 159.131 26.8638C158.738 27.406 158.466 28.0084 158.285 28.7012C158.104 29.394 158.013 30.0868 158.013 30.7796C158.013 31.5025 158.104 32.1953 158.285 32.8881C158.466 33.5809 158.738 34.1833 159.131 34.7255C159.524 35.2676 160.007 35.7195 160.581 36.0508C161.186 36.4123 161.881 36.5629 162.666 36.5629ZM172.034 22.6167H174.783V17.6768H178.409V22.5866H181.673V25.2674H178.409V34.0026C178.409 34.3941 178.44 34.6953 178.47 34.9966C178.5 35.2676 178.591 35.5086 178.681 35.6893C178.802 35.8701 178.983 36.0207 179.195 36.111C179.437 36.2014 179.739 36.2616 180.162 36.2616C180.404 36.2616 180.676 36.2616 180.917 36.2315C181.159 36.2014 181.431 36.1713 181.673 36.111V38.9123C181.28 38.9726 180.887 39.0027 180.494 39.0328C180.101 39.093 179.739 39.093 179.316 39.093C178.349 39.093 177.593 39.0027 177.019 38.822C176.445 38.6412 175.992 38.3701 175.66 38.0388C175.327 37.6773 175.116 37.2556 174.995 36.7436C174.874 36.2315 174.814 35.599 174.783 34.9363V25.2975H172.034V22.5565V22.5565V22.6167Z" fill="black" fill-opacity="0.8"/>
<path d="M44.3217 16.6745H27.485L22.3022 0.956543L17.0886 16.6745L0.251953 16.6444L13.8685 26.3703L8.65496 42.0883L22.2715 32.3624L35.888 42.0883L30.7052 26.3703L44.3217 16.6745Z" fill="black" fill-opacity="0.8"/>
<path d="M31.8356 29.4144L30.6726 25.9302L22.2871 31.8061L31.8356 29.4144Z" fill="#F84F38"/>
</svg>
