<svg width="52" height="52" viewBox="0 0 52 52" fill="none" xmlns="http://www.w3.org/2000/svg">
<path d="M37 17C36.0424 17.6755 34.9821 18.1922 33.86 18.53C33.2577 17.8376 32.4573 17.3467 31.567 17.124C30.6767 16.9012 29.7395 16.9572 28.8821 17.2845C28.0247 17.6118 27.2884 18.1944 26.773 18.9538C26.2575 19.7131 25.9877 20.6124 26 21.53V22.53C24.2426 22.5756 22.5013 22.1859 20.931 21.3955C19.3607 20.6051 18.0103 19.4387 17 18C17 18 13 27 22 31C19.9405 32.398 17.4872 33.099 15 33C24 38 35 33 35 21.5C34.9991 21.2215 34.9723 20.9436 34.92 20.67C35.9406 19.6635 36.6608 18.3928 37 17Z" fill="#F84F38"/>
<circle cx="26" cy="26" r="25.5" stroke="#F84F38"/>
</svg>
