<svg width="151" height="62" viewBox="0 0 151 62" fill="none" xmlns="http://www.w3.org/2000/svg">
<path d="M119.586 35.417L121.92 34.8886C121.969 34.8776 122.051 34.8593 122.149 34.8281C122.793 34.6589 123.346 34.2515 123.689 33.6916C124.033 33.1318 124.141 32.4632 123.991 31.8268L123.982 31.7864C123.905 31.4815 123.77 31.1934 123.584 30.937C123.323 30.6124 123 30.3407 122.632 30.1372C122.2 29.8959 121.747 29.6909 121.279 29.5244L118.72 28.609C117.284 28.0861 115.848 27.578 114.397 27.0808C113.458 26.7543 112.662 26.4662 111.97 26.2553C111.838 26.2196 111.707 26.1805 111.578 26.1379C110.742 25.8884 110.153 25.7838 109.657 25.7801C109.325 25.768 108.994 25.8269 108.687 25.9526C108.367 26.0882 108.08 26.2882 107.844 26.5396C107.727 26.6697 107.617 26.8057 107.514 26.9469C107.314 27.2472 107.15 27.5684 107.023 27.9045C106.547 29.2787 106.311 30.721 106.322 32.1717C106.331 33.4815 106.367 35.1638 107.103 36.3049C107.282 36.5984 107.52 36.8516 107.803 37.0479C108.328 37.4019 108.856 37.4496 109.409 37.4882C110.234 37.545 111.031 37.3487 111.827 37.1671L119.58 35.4151L119.586 35.417ZM145.623 23.2925C144.986 21.9838 144.13 20.7889 143.089 19.7573C142.955 19.6261 142.811 19.5047 142.658 19.3941C142.517 19.2906 142.371 19.1945 142.219 19.1061C142.064 19.0226 141.903 18.9472 141.739 18.8804C141.416 18.7559 141.069 18.6996 140.722 18.7153C140.39 18.7337 140.065 18.8254 139.771 18.9777C139.327 19.1941 138.845 19.5427 138.204 20.1242C138.116 20.2105 138.005 20.3077 137.904 20.3994C137.377 20.8856 136.789 21.4855 136.09 22.1826C135.008 23.2521 133.945 24.3272 132.886 25.4114L130.993 27.334C130.647 27.6846 130.332 28.0633 130.052 28.4659C129.811 28.8066 129.641 29.1898 129.551 29.5941C129.5 29.9048 129.508 30.2218 129.574 30.5298L129.583 30.5701C129.733 31.2059 130.128 31.76 130.687 32.1159C131.246 32.4718 131.924 32.6016 132.579 32.478C132.657 32.4672 132.736 32.4525 132.813 32.434L142.902 30.1518C143.698 29.9721 144.504 29.8069 145.219 29.3997C145.698 29.13 146.154 28.8603 146.467 28.3173C146.634 28.0182 146.735 27.6882 146.763 27.3487C146.919 26.0021 146.201 24.4739 145.623 23.2925V23.2925ZM127.562 27.4441C128.293 26.5451 128.293 25.2059 128.357 24.1089C128.578 20.449 128.809 16.789 128.994 13.1273C129.064 11.7404 129.216 10.3718 129.131 8.9739C129.062 7.82181 129.054 6.49727 128.31 5.55065C126.998 3.88121 124.197 4.01881 122.287 4.27931C121.698 4.35897 121.113 4.46672 120.535 4.60219C119.953 4.73794 119.376 4.88654 118.814 5.06449C116.98 5.65155 114.403 6.73026 113.968 8.79778C113.721 9.96639 114.305 11.1607 114.755 12.2284C115.305 13.5199 116.053 14.6848 116.735 15.9011C118.54 19.1134 120.377 22.3073 122.209 25.5031C122.758 26.4571 123.352 27.6642 124.411 28.1595C124.482 28.1889 124.554 28.2146 124.627 28.2384C125.101 28.4145 125.62 28.4476 126.113 28.3356L126.201 28.3173C126.659 28.1944 127.071 27.9504 127.395 27.6147C127.455 27.5596 127.51 27.5046 127.564 27.4441H127.562ZM126.687 37.2423C126.402 36.8495 125.997 36.5551 125.53 36.4012C125.063 36.2474 124.559 36.2419 124.089 36.3856C123.978 36.4213 123.87 36.4648 123.766 36.5159C123.605 36.5963 123.452 36.6902 123.307 36.7965C122.894 37.1148 122.526 37.4842 122.21 37.8954C122.13 37.9963 122.055 38.1303 121.957 38.2183L120.334 40.4014C119.415 41.6269 118.506 42.8542 117.608 44.0999C117.02 44.9052 116.514 45.5858 116.111 46.1857C116.036 46.2995 115.957 46.4242 115.886 46.5269C115.404 47.2534 115.132 47.7854 114.992 48.2588C114.887 48.5732 114.853 48.9063 114.894 49.2347C114.939 49.576 115.057 49.9043 115.239 50.1997C115.336 50.3465 115.441 50.4896 115.554 50.6271C115.797 50.9008 116.07 51.1469 116.369 51.361C117.49 52.1241 118.716 52.6727 120.006 53.0964C121.08 53.445 122.195 53.6541 123.324 53.7165C123.517 53.7257 123.71 53.722 123.901 53.7055C124.079 53.6893 124.255 53.6648 124.43 53.6321C124.605 53.5923 124.778 53.5433 124.947 53.4854C125.277 53.3644 125.577 53.1769 125.828 52.935C126.066 52.702 126.25 52.4213 126.364 52.1113C126.552 51.6527 126.676 51.0729 126.758 50.2107C126.764 50.0878 126.782 49.941 126.796 49.8071C126.859 49.0916 126.889 48.2477 126.934 47.2608C127.015 45.7399 127.077 44.2264 127.125 42.7093L127.23 40.0088C127.255 39.3888 127.234 38.699 127.058 38.0807C126.981 37.7838 126.855 37.5008 126.687 37.2423V37.2423ZM145.007 41.4673C144.669 41.1022 144.189 40.7408 143.432 40.2932C143.323 40.2326 143.194 40.1538 143.076 40.084C142.446 39.7116 141.687 39.3227 140.8 38.8512C139.437 38.1174 138.075 37.4056 136.697 36.6975L134.266 35.4353C134.14 35.3986 134.013 35.3106 133.893 35.2537C133.425 35.02 132.929 34.8467 132.415 34.7382C132.239 34.7048 132.059 34.6864 131.879 34.6832C131.763 34.6826 131.646 34.6893 131.531 34.7033C131.044 34.7769 130.593 34.999 130.243 35.338C129.893 35.677 129.661 36.1155 129.581 36.5911C129.546 36.8938 129.557 37.2001 129.617 37.4973C129.735 38.1321 130.024 38.7577 130.323 39.3062L131.621 41.6893C132.344 43.0322 133.075 44.3677 133.825 45.6996C134.309 46.5673 134.712 47.3103 135.089 47.9267C135.16 48.0423 135.24 48.167 135.302 48.2753C135.762 49.0146 136.129 49.4806 136.502 49.8163C136.75 50.0502 137.049 50.2274 137.375 50.3352C137.702 50.4431 138.049 50.4789 138.391 50.44C138.57 50.4188 138.747 50.3881 138.922 50.3483C139.281 50.2543 139.627 50.1208 139.955 49.9502C140.942 49.4089 141.851 48.7428 142.66 47.9689C143.631 47.0333 144.489 46.0133 145.157 44.8465C145.25 44.6814 145.329 44.5108 145.397 44.3328C145.459 44.1699 145.514 44.004 145.56 43.8357C145.599 43.6632 145.629 43.4908 145.65 43.3165C145.683 42.974 145.643 42.6284 145.532 42.302C145.422 41.9888 145.242 41.7032 145.007 41.4655V41.4673Z" fill="black" fill-opacity="0.8"/>
<path fill-rule="evenodd" clip-rule="evenodd" d="M61.2802 18.2965C61.2802 16.3335 62.9129 14.7301 64.8849 14.7301C66.8288 14.7301 68.4072 16.3335 68.4915 18.3258V46.1631C68.4915 48.1261 66.8569 49.7295 64.8849 49.7295C64.4083 49.7293 63.9364 49.6366 63.4966 49.4568C63.0568 49.277 62.6577 49.0137 62.3225 48.6821C61.9873 48.3504 61.7226 47.9571 61.5437 47.5247C61.3648 47.0923 61.2752 46.6296 61.2802 46.1631V18.2965ZM57.9266 35.4916C57.8985 36.0438 57.7579 37.0675 57.0268 37.8141C56.2377 38.6158 55.1673 38.8084 54.5468 38.8084C51.9693 38.8231 49.3918 38.8305 46.8143 38.836C44.2368 38.8433 41.6593 38.8506 39.0818 38.8635C39.3068 39.5551 39.7567 40.6063 40.7708 41.5731C41.3894 42.1547 41.9818 42.4849 42.2367 42.6243C42.546 42.8169 43.6164 43.371 44.9398 43.371C46.3494 43.371 47.5885 42.927 48.8013 42.3198L48.9007 42.2684C49.7442 41.8409 50.6122 41.4007 51.5326 41.2411C52.4323 41.1035 53.3921 41.2686 54.0951 41.8776C54.9405 42.5968 55.2798 43.6461 54.9686 44.7248C54.6031 45.9411 53.5608 46.9923 52.4623 47.6271C51.8337 47.9871 51.1738 48.2923 50.4903 48.5389C48.7468 49.1443 46.9032 49.4261 45.0541 49.3699C44.6042 49.3699 44.1244 49.3699 43.6445 49.3149C43.1383 49.2598 42.6322 49.1479 42.1523 49.0378C41.3744 48.8727 40.6179 48.6223 39.8973 48.2912C39.1764 47.9784 38.4878 47.5988 37.8409 47.1574C37.1957 46.7036 36.5928 46.1947 36.0395 45.6366C35.4892 45.0716 34.9893 44.4616 34.5454 43.8131C33.0252 41.5456 32.3204 38.7534 32.461 36.0438C32.5734 33.3911 33.4751 30.7365 35.1097 28.5809C35.2859 28.3094 35.4902 28.0801 35.6833 27.8636C35.7676 27.7682 35.8501 27.6765 35.927 27.5847C37.944 25.1705 40.6396 24.4073 41.7512 24.0918L41.813 24.0734C44.0691 23.4465 46.459 23.4465 48.7151 24.0734C49.2512 24.2128 52.2655 25.1246 54.6031 27.5847C54.7155 27.6948 55.0267 28.0544 55.4204 28.5809C56.4202 29.9134 57.1547 31.4183 57.5855 33.0168L57.5892 33.0315C57.7579 33.6387 57.9266 34.4679 57.9266 35.4898V35.4916ZM41.3913 30.9309C40.279 31.8162 39.5048 33.0431 39.1943 34.4129H51.4763C51.1449 33.0443 50.3631 31.8203 49.2512 30.9291C48.1313 30.0502 46.7427 29.5638 45.3072 29.5477C43.8793 29.5616 42.4983 30.0485 41.3894 30.9291L41.3913 30.9309ZM88.0974 23.6038C84.8863 23.6038 81.9564 25.0145 79.8719 27.3095V27.2252C79.8301 26.3035 79.4199 25.4349 78.7298 24.8064C78.0397 24.178 77.1249 23.8401 76.1826 23.8656C75.2403 23.8911 74.3459 24.278 73.6924 24.9428C73.0388 25.6076 72.6783 26.4971 72.6886 27.4196V53.9856C72.6864 54.4502 72.7781 54.9106 72.9585 55.3403C73.1388 55.77 73.4042 56.1606 73.7395 56.4895C74.0747 56.8185 74.4731 57.0792 74.9117 57.2569C75.3504 57.4345 75.8206 57.5254 76.2953 57.5244C76.7698 57.5252 77.2398 57.434 77.6782 57.2563C78.1167 57.0786 78.5148 56.8178 78.8499 56.4889C79.1849 56.16 79.4501 55.7695 79.6304 55.3399C79.8106 54.9103 79.9022 54.45 79.9 53.9856V45.6916C81.9845 47.9591 84.8863 49.3974 88.1255 49.3974C94.5777 49.3974 99.817 43.6737 99.817 36.541C99.7889 29.4101 94.5496 23.6038 88.0974 23.6038ZM86.5209 43.6186C82.8581 43.6186 79.8719 40.4944 79.8719 36.5978C79.8719 32.6719 82.8299 29.5477 86.5209 29.5477C90.1819 29.5477 93.168 32.6719 93.168 36.5978C93.1399 40.4944 90.1819 43.6186 86.5209 43.6186V43.6186ZM27.0529 38.3938L25.8701 40.9384C25.3339 42.0427 24.7978 43.1765 24.2917 44.3102L23.8024 45.3743C21.5492 50.2762 18.878 56.0953 13.0519 57.33C10.2345 57.939 5.98115 57.1098 4.40278 54.5103C2.82629 51.8851 5.16385 48.8709 8.17811 49.5625C8.65425 49.6653 9.12101 49.8927 9.59339 50.1239C10.3788 50.5092 11.1755 50.8962 12.0378 50.7238C12.8551 50.5862 13.3612 50.0047 14.0098 49.258C14.9096 48.2362 15.3051 47.1574 15.4738 46.5209L15.4326 46.4255C15.4195 46.3925 15.4051 46.3601 15.3895 46.3282C14.6565 44.989 14.0154 43.7929 13.4812 42.7931C13.1808 42.2285 12.8778 41.6653 12.572 41.1035L11.3442 38.8213C10.4444 37.1519 10.2945 36.8767 9.89707 36.1557C9.02097 34.5374 8.10023 32.9426 7.13587 31.3731C6.09362 29.6578 5.02326 27.7517 5.89679 25.7318C6.22512 24.9498 6.84166 24.317 7.62423 23.9589C8.4068 23.6008 9.29828 23.5434 10.122 23.7982C11.9347 24.3358 12.7389 26.0254 13.4887 27.6031C13.6255 27.8893 13.7586 28.1718 13.8973 28.4415C15.1083 30.7915 16.2911 33.1416 17.474 35.4916C17.5789 35.7246 17.7364 36.042 17.9314 36.4309C18.1038 36.7758 18.3044 37.1775 18.5162 37.6197L18.8293 38.2581C18.9511 38.5076 19.058 38.7204 19.1367 38.891C19.6859 37.5518 20.2427 36.2181 20.7975 34.8825C21.3543 33.5488 21.911 32.2151 22.4603 30.8741C22.4753 30.8007 22.6065 30.5145 22.8052 30.0834C22.972 29.7183 23.1857 29.2505 23.4182 28.7185L23.6562 28.1553C24.3873 26.4125 25.2683 24.3156 27.2216 23.7432C27.9149 23.5463 28.6536 23.5656 29.3352 23.7983C30.0168 24.0311 30.6074 24.4658 31.025 25.0421C31.4468 25.6218 31.6155 26.2859 31.6436 26.95C31.6661 28.4176 30.9426 29.9916 30.3202 31.3419C30.1703 31.6721 30.024 31.9876 29.8985 32.2848L29.8235 32.4463C29.651 32.826 29.1824 33.8534 28.3763 35.5466C28.0858 36.152 27.8065 36.7611 27.5234 37.3757L27.0529 38.3938Z" fill="black" fill-opacity="0.8"/>
</svg>
