<svg width="52" height="52" viewBox="0 0 52 52" fill="none" xmlns="http://www.w3.org/2000/svg">
<path fill-rule="evenodd" clip-rule="evenodd" d="M35.8382 19.1594C36.1789 19.5106 36.4208 19.9454 36.5396 20.42C36.8568 22.1787 37.0108 23.963 36.9996 25.75C37.0059 27.5103 36.852 29.2676 36.5396 31C36.4208 31.4746 36.1789 31.9094 35.8382 32.2606C35.4976 32.6118 35.0703 32.8668 34.5996 33C32.8796 33.46 25.9996 33.46 25.9996 33.46C25.9996 33.46 19.1196 33.46 17.3996 33C16.9384 32.8738 16.5176 32.6308 16.1777 32.2945C15.8379 31.9581 15.5906 31.5398 15.4596 31.08C15.1424 29.3213 14.9884 27.537 14.9996 25.75C14.9908 23.9763 15.1448 22.2056 15.4596 20.46C15.5784 19.9854 15.8203 19.5506 16.1609 19.1994C16.5016 18.8482 16.9288 18.5932 17.3996 18.46C19.1196 18 25.9996 18 25.9996 18C25.9996 18 32.8796 18 34.5996 18.42C35.0703 18.5532 35.4976 18.8082 35.8382 19.1594ZM29.5 25.75L23.75 29.02V22.48L29.5 25.75Z" fill="#F84F38"/>
<circle cx="26" cy="26" r="25.5" stroke="#F84F38"/>
</svg>
