<svg width="46" height="46" viewBox="0 0 46 46" fill="none" xmlns="http://www.w3.org/2000/svg">
<path d="M22.9987 43.6029C11.6329 43.6029 2.39453 34.3645 2.39453 22.9987C2.39453 11.6329 11.6329 2.39453 22.9987 2.39453C34.3645 2.39453 43.6029 11.6329 43.6029 22.9987C43.6029 34.3645 34.3645 43.6029 22.9987 43.6029ZM22.9987 5.26953C13.2237 5.26953 5.26953 13.2237 5.26953 22.9987C5.26953 32.7737 13.2237 40.7279 22.9987 40.7279C32.7737 40.7279 40.7279 32.7737 40.7279 22.9987C40.7279 13.2237 32.7737 5.26953 22.9987 5.26953Z" fill="#0F6EFE"/>
<path d="M17.249 41.6875H15.3323C14.5465 41.6875 13.8948 41.0358 13.8948 40.25C13.8948 39.4642 14.5082 38.8317 15.294 38.8125C12.2848 28.5392 12.2848 17.4608 15.294 7.1875C14.5082 7.16833 13.8948 6.53583 13.8948 5.75C13.8948 4.96417 14.5465 4.3125 15.3323 4.3125H17.249C17.709 4.3125 18.1498 4.5425 18.4182 4.90667C18.6865 5.29 18.7632 5.76917 18.6098 6.21C15.0065 17.0392 15.0065 28.9608 18.6098 39.8092C18.7632 40.25 18.6865 40.7292 18.4182 41.1125C18.1498 41.4575 17.709 41.6875 17.249 41.6875Z" fill="#0F6EFE"/>
<path d="M28.7506 41.6881C28.5973 41.6881 28.4439 41.669 28.2906 41.6115C27.5431 41.3623 27.1214 40.5381 27.3898 39.7906C30.9931 28.9615 30.9931 17.0398 27.3898 6.19146C27.1406 5.44396 27.5431 4.6198 28.2906 4.37063C29.0573 4.12146 29.8623 4.52396 30.1114 5.27146C33.9256 16.6948 33.9256 29.2681 30.1114 40.6723C29.9198 41.3048 29.3448 41.6881 28.7506 41.6881Z" fill="#0F6EFE"/>
<path d="M23 32.9642C17.6525 32.9642 12.3242 32.2167 7.1875 30.7026C7.16833 31.4692 6.53583 32.1017 5.75 32.1017C4.96417 32.1017 4.3125 31.4501 4.3125 30.6642V28.7476C4.3125 28.2876 4.5425 27.8467 4.90667 27.5784C5.29 27.3101 5.76917 27.2334 6.21 27.3867C17.0392 30.9901 28.98 30.9901 39.8092 27.3867C40.25 27.2334 40.7292 27.3101 41.1125 27.5784C41.4958 27.8467 41.7067 28.2876 41.7067 28.7476V30.6642C41.7067 31.4501 41.055 32.1017 40.2692 32.1017C39.4833 32.1017 38.8508 31.4884 38.8317 30.7026C33.6758 32.2167 28.3475 32.9642 23 32.9642Z" fill="#0F6EFE"/>
<path d="M40.2493 18.6863C40.0959 18.6863 39.9426 18.6671 39.7893 18.6096C28.9601 15.0063 17.0193 15.0063 6.19009 18.6096C5.42343 18.8588 4.61843 18.4563 4.36926 17.7088C4.13926 16.9421 4.54176 16.1371 5.28926 15.888C16.7126 12.0738 29.2859 12.0738 40.6901 15.888C41.4376 16.1371 41.8593 16.9613 41.5909 17.7088C41.4184 18.303 40.8434 18.6863 40.2493 18.6863Z" fill="#0F6EFE"/>
</svg>
