<svg width="46" height="46" viewBox="0 0 46 46" fill="none" xmlns="http://www.w3.org/2000/svg">
<path d="M42.1654 43.6055H3.83203C3.0462 43.6055 2.39453 42.9538 2.39453 42.168C2.39453 41.3821 3.0462 40.7305 3.83203 40.7305H42.1654C42.9512 40.7305 43.6029 41.3821 43.6029 42.168C43.6029 42.9538 42.9512 43.6055 42.1654 43.6055Z" fill="#0F6EFE"/>
<path d="M7.0918 42.1682H4.2168L4.31263 19.1107C4.31263 17.4815 5.06013 15.9674 6.3443 14.9707L19.761 4.52484C21.6585 3.04901 24.3226 3.04901 26.2393 4.52484L39.656 14.9515C40.921 15.9482 41.6876 17.5007 41.6876 19.1107V42.1682H38.8126V19.1298C38.8126 18.4015 38.4676 17.6924 37.8926 17.2324L24.476 6.80568C23.6135 6.13485 22.406 6.13485 21.5243 6.80568L8.10763 17.2515C7.53263 17.6924 7.18763 18.4015 7.18763 19.1298L7.0918 42.1682Z" fill="#0F6EFE"/>
<path d="M27.7904 43.6029H18.207C17.4212 43.6029 16.7695 42.9512 16.7695 42.1654V35.457C16.7695 33.0804 18.7054 31.1445 21.082 31.1445H24.9154C27.292 31.1445 29.2279 33.0804 29.2279 35.457V42.1654C29.2279 42.9512 28.5762 43.6029 27.7904 43.6029ZM19.6445 40.7279H26.3529V35.457C26.3529 34.6712 25.7012 34.0195 24.9154 34.0195H21.082C20.2962 34.0195 19.6445 34.6712 19.6445 35.457V40.7279Z" fill="#0F6EFE"/>
<path d="M18.207 27.7904H14.3737C12.5337 27.7904 11.0195 26.2762 11.0195 24.4362V21.5612C11.0195 19.7212 12.5337 18.207 14.3737 18.207H18.207C20.047 18.207 21.5612 19.7212 21.5612 21.5612V24.4362C21.5612 26.2762 20.047 27.7904 18.207 27.7904ZM14.3737 21.082C14.1054 21.082 13.8945 21.2929 13.8945 21.5612V24.4362C13.8945 24.7045 14.1054 24.9154 14.3737 24.9154H18.207C18.4754 24.9154 18.6862 24.7045 18.6862 24.4362V21.5612C18.6862 21.2929 18.4754 21.082 18.207 21.082H14.3737Z" fill="#0F6EFE"/>
<path d="M31.625 27.7904H27.7917C25.9517 27.7904 24.4375 26.2762 24.4375 24.4362V21.5612C24.4375 19.7212 25.9517 18.207 27.7917 18.207H31.625C33.465 18.207 34.9792 19.7212 34.9792 21.5612V24.4362C34.9792 26.2762 33.465 27.7904 31.625 27.7904ZM27.7917 21.082C27.5233 21.082 27.3125 21.2929 27.3125 21.5612V24.4362C27.3125 24.7045 27.5233 24.9154 27.7917 24.9154H31.625C31.8933 24.9154 32.1042 24.7045 32.1042 24.4362V21.5612C32.1042 21.2929 31.8933 21.082 31.625 21.082H27.7917Z" fill="#0F6EFE"/>
<path d="M36.417 14.8555C35.6311 14.8555 34.9795 14.223 34.9795 13.4372L34.9411 9.10547H27.9453C27.1595 9.10547 26.5078 8.4538 26.5078 7.66797C26.5078 6.88214 27.1595 6.23047 27.9453 6.23047H36.3786C37.1645 6.23047 37.8161 6.86295 37.8161 7.64878L37.8736 13.3988C37.8545 14.2038 37.222 14.8555 36.417 14.8555C36.4361 14.8555 36.417 14.8555 36.417 14.8555Z" fill="#0F6EFE"/>
</svg>
