<svg width="185" height="87" viewBox="0 0 185 87" fill="none" xmlns="http://www.w3.org/2000/svg">
<g clip-path="url(#clip0_224_1654)">
<path d="M62.6067 30.9023C62.6067 30.9023 62.4543 36.9798 61.3025 44.5851V44.5951C60.2524 51.5181 58.3766 59.7051 55.0286 65.7272C53.7526 68.0283 52.2861 70.135 50.7194 72.0501C50.4936 72.3239 50.2691 72.5921 50.0405 72.8588C44.0432 79.8655 36.8462 84.1654 33.3782 85.9884C32.0811 86.6679 31.3062 87.0027 31.3062 87.0027L31.3034 86.9999C31.2511 86.9786 30.4833 86.6438 29.2313 85.9884C25.7605 84.1668 18.5678 79.8683 12.5719 72.8644C10.7511 70.7393 9.0404 68.3617 7.58095 65.7286C4.22732 59.6937 2.34867 51.4797 1.30137 44.544C0.152438 36.9585 0 30.9023 0 30.9023C5.76581 29.2226 8.90772 26.025 10.6184 23.1025H51.9869C53.7004 26.025 56.8409 29.2226 62.6081 30.9023H62.6067Z" fill="url(#paint0_linear_224_1654)"/>
<path d="M61.3054 44.5864C60.2581 51.5122 58.3795 59.7006 55.0329 65.727C53.5721 68.3572 51.8628 70.732 50.042 72.8586C36.3777 65.8788 33.1172 38.0166 33.1172 38.0166H46.3948C48.9368 42.1761 45.9234 53.4898 50.7181 52.7095C52.7125 52.3847 54.8819 51.5221 57.1176 49.7914C58.8608 48.4437 60.2299 46.6335 61.3054 44.5878V44.5864Z" fill="url(#paint1_linear_224_1654)"/>
<path d="M29.5108 38.0156C29.5108 38.0156 26.2503 65.8935 12.5747 72.8619C10.7539 70.7353 9.04318 68.3591 7.58232 65.7261C4.2301 59.6897 2.35145 51.4772 1.30273 44.5428C2.38109 46.6055 3.75585 48.4342 5.51171 49.7904C7.74605 51.5212 9.91687 52.3837 11.9113 52.7086C16.7032 53.4888 13.6911 42.1751 16.2317 38.0156H29.5093H29.5108Z" fill="url(#paint2_linear_224_1654)"/>
<path d="M55.6915 50.8878C53.4205 52.7647 50.6484 53.7024 47.8762 53.7024C45.1041 53.7024 42.332 52.7647 40.061 50.8878L45.7224 39.9415H33.3777V85.9866C32.0806 86.6661 31.3057 87.0009 31.3057 87.0009L31.3029 86.9981C31.2507 86.9768 30.4828 86.642 29.2309 85.9866V39.9415H16.8891L22.5476 50.8878C20.2794 52.7647 17.5073 53.7024 14.7352 53.7024C11.9631 53.7024 9.19096 52.7647 6.91992 50.8878L6.96509 50.8013L14.7324 35.7764H47.8762L55.652 50.8098L55.6915 50.8892V50.8878Z" fill="white"/>
<path d="M51.7139 17.0224C51.7139 7.6607 44.3645 0 35.3834 0H27.2251C18.2426 0 10.8945 7.6607 10.8945 17.0224V19.4624H16.8594V17.0224H45.7082V19.4624H51.7154V17.0224H51.7139Z" fill="url(#paint3_linear_224_1654)"/>
<path d="M97.7492 19.1266C97.7492 20.3282 97.5305 21.3908 97.0943 22.3129C96.6568 23.2237 96.0287 23.9245 95.21 24.4125C94.3914 24.9005 93.4302 25.1459 92.3264 25.1459C91.3003 25.1459 90.4054 24.9416 89.6432 24.5331C88.881 24.1245 88.2741 23.5372 87.821 22.7711C87.3679 22.005 87.0885 21.0843 86.9854 20.009H84.6918V24.9814H82.2754V13.3797H84.6918V17.9988H87.0094C87.2 16.4624 87.7617 15.2792 88.6933 14.4507C89.6249 13.6223 90.8415 13.208 92.3433 13.208C93.4739 13.208 94.4422 13.4449 95.2467 13.9202C96.0512 14.3954 96.6709 15.0749 97.1028 15.9573C97.5347 16.8412 97.7506 17.8981 97.7506 19.1266H97.7492ZM95.2834 19.1266C95.2834 17.847 95.0293 16.8596 94.5212 16.1631C94.0131 15.4665 93.2876 15.1175 92.3419 15.1175C91.3962 15.1175 90.6482 15.4693 90.1429 16.1716C89.6376 16.8738 89.3849 17.8598 89.3849 19.128C89.3849 19.9948 89.5007 20.7354 89.7335 21.3468C89.965 21.9582 90.3024 22.4264 90.7456 22.7513C91.1873 23.0747 91.7181 23.2364 92.3349 23.2364C93.2848 23.2364 94.0145 22.8846 94.5226 22.1824C95.0308 21.4801 95.2848 20.4616 95.2848 19.128L95.2834 19.1266Z" fill="#1D1D1B"/>
<path d="M109.072 17.0508C109.072 17.8027 108.901 18.468 108.559 19.0468C108.218 19.6257 107.734 20.0796 107.105 20.4059C106.477 20.7322 105.729 20.8953 104.861 20.8953H101.995V24.9796H99.5781V13.3779H104.764C106.146 13.3779 107.208 13.6971 107.955 14.3369C108.7 14.9767 109.073 15.8804 109.073 17.0494L109.072 17.0508ZM106.638 17.0919C106.638 15.8733 105.923 15.2647 104.491 15.2647H101.993V19.027H104.558C105.224 19.027 105.738 18.861 106.098 18.529C106.458 18.1971 106.638 17.7176 106.638 17.0919Z" fill="#1D1D1B"/>
<path d="M118.5 16.0464L113.51 24.9796H110.758V13.3779H112.905V20.1208C112.905 20.4116 112.899 20.7464 112.888 21.1252C112.876 21.5039 112.861 21.9239 112.838 22.3849L117.86 13.3779H120.58V24.9796H118.435V18.1375C118.435 17.9233 118.44 17.6424 118.452 17.2934C118.463 16.9444 118.478 16.5287 118.501 16.0464H118.5Z" fill="#1D1D1B"/>
<path d="M123.898 24.9796V28.339H121.85V22.9708H123.127C123.521 22.2516 123.869 21.3635 124.176 20.3066C124.482 19.2497 124.713 18.1616 124.872 17.0423L125.371 13.3779H131.834V22.9694H133.35V28.3376H131.302V24.9782H123.896L123.898 24.9796ZM125.659 22.9708H129.501V15.3882H127.354L127.1 17.3147C126.996 18.0609 126.867 18.7915 126.715 19.5051C126.562 20.2186 126.396 20.8726 126.215 21.4685C126.035 22.0643 125.85 22.5651 125.658 22.9708H125.659Z" fill="#1D1D1B"/>
<path d="M142.509 16.0464L137.52 24.9796H134.768V13.3779H136.914V20.1208C136.914 20.4116 136.909 20.7464 136.897 21.1252C136.886 21.5039 136.871 21.9239 136.848 22.3849L141.87 13.3779H144.59V24.9796H142.445V18.1375C142.445 17.9233 142.45 17.6424 142.461 17.2934C142.473 16.9444 142.488 16.5287 142.511 16.0464H142.509Z" fill="#1D1D1B"/>
<path d="M153.955 24.9801V20.4759C153.327 20.7014 152.716 20.8717 152.12 20.9866C151.524 21.1015 150.948 21.1597 150.391 21.1597C149.08 21.1597 148.123 20.849 147.52 20.229C146.916 19.6091 146.615 18.643 146.615 17.3307V13.3784H148.941V17.0754C148.941 17.9422 149.115 18.5394 149.462 18.8657C149.809 19.192 150.392 19.3551 151.211 19.3551C152.03 19.3551 152.978 19.209 153.955 18.9182V13.377H156.371V24.9787H153.955V24.9801Z" fill="#1D1D1B"/>
<path d="M161.039 20.0073V24.9796H158.623V13.3779H161.039V17.997H166.07V13.3779H168.486V24.9796H166.07V20.0073H161.039Z" fill="#1D1D1B"/>
<path d="M173.475 22.0161L172.452 24.9796H170.035L174.246 13.3779H177.097L181.29 24.9796H178.898L177.873 22.0161H173.473H173.475ZM175.67 15.1654C175.615 15.3853 175.538 15.6492 175.441 15.9556C175.344 16.262 175.272 16.4805 175.228 16.6068L174.015 20.1889H177.332L176.087 16.533C176.011 16.3074 175.941 16.0805 175.874 15.8492C175.808 15.618 175.74 15.391 175.67 15.1654Z" fill="#1D1D1B"/>
<path d="M83.7749 32.1191V41.8425H81.3585V32.1191H77.6309V30.2422H87.5097V32.1191H83.7735H83.7749Z" fill="#1D1D1B"/>
<path d="M90.4925 38.8784L89.4692 41.8419H87.0527L91.2631 30.2402H94.1143L98.3077 41.8419H95.9153L94.8906 38.8784H90.491H90.4925ZM92.6873 32.0277C92.6322 32.2476 92.556 32.5115 92.4572 32.8179C92.3584 33.1258 92.2878 33.3428 92.2441 33.4691L91.0316 37.0512H94.35L93.1051 33.3953C93.0289 33.1697 92.9583 32.9428 92.8919 32.7115C92.8256 32.4803 92.7579 32.2533 92.6873 32.0277Z" fill="#1D1D1B"/>
<path d="M106.941 32.2505V41.8419H104.533V30.2402H114.347V41.8419H112.013V32.2505H106.943H106.941Z" fill="#1D1D1B"/>
<path d="M126.087 33.9131C126.087 34.665 125.916 35.3303 125.575 35.9091C125.233 36.488 124.749 36.9419 124.121 37.2682C123.493 37.5945 122.745 37.7576 121.877 37.7576H119.01V41.8419H116.594V30.2402H121.779C123.161 30.2402 124.224 30.5594 124.971 31.1992C125.716 31.839 126.089 32.7427 126.089 33.9117L126.087 33.9131ZM123.654 33.9543C123.654 32.7356 122.938 32.127 121.507 32.127H119.009V35.8893H121.572C122.238 35.8893 122.752 35.7233 123.112 35.3913C123.472 35.0594 123.652 34.5799 123.652 33.9543H123.654Z" fill="#1D1D1B"/>
<path d="M129.043 38.8784L128.02 41.8419H125.604L129.814 30.2402H132.665L136.858 41.8419H134.466L133.441 38.8784H129.042H129.043ZM131.238 32.0277C131.183 32.2476 131.107 32.5115 131.009 32.8179C130.912 33.1243 130.84 33.3428 130.796 33.4691L129.584 37.0512H132.901L131.656 33.3953C131.58 33.1697 131.509 32.9428 131.443 32.7115C131.376 32.4803 131.309 32.2533 131.238 32.0277Z" fill="#1D1D1B"/>
<path d="M148.655 38.5322C148.655 39.5863 148.261 40.402 147.475 40.978C146.689 41.554 145.596 41.8419 144.198 41.8419H138.422V30.2402H143.705C145.114 30.2402 146.181 30.4857 146.903 30.9765C147.627 31.4674 147.989 32.1937 147.989 33.1541C147.989 33.8124 147.807 34.3685 147.444 34.821C147.081 35.2736 146.528 35.58 145.785 35.7389C146.72 35.8481 147.431 36.1432 147.92 36.6241C148.408 37.1051 148.652 37.7392 148.652 38.5308L148.655 38.5322ZM145.558 33.4847C145.558 32.9626 145.393 32.5924 145.063 32.3725C144.733 32.1526 144.243 32.0433 143.592 32.0433H140.84V34.9175H143.609C144.292 34.9175 144.788 34.7983 145.095 34.5586C145.403 34.3188 145.558 33.9613 145.558 33.4847ZM146.23 38.3421C146.23 37.2554 145.455 36.7121 143.904 36.7121H140.84V40.0388H143.993C144.768 40.0388 145.335 39.897 145.692 39.6147C146.049 39.3323 146.229 38.9082 146.229 38.3421H146.23Z" fill="#1D1D1B"/>
<path d="M161.343 35.9889C161.343 37.1962 161.102 38.2517 160.618 39.1553C160.135 40.059 159.455 40.7598 158.578 41.2592C157.702 41.7585 156.674 42.0082 155.494 42.0082C154.314 42.0082 153.25 41.7656 152.382 41.279C151.514 40.7939 150.848 40.1002 150.383 39.2007C149.919 38.2999 149.688 37.2302 149.688 35.9903C149.688 34.7504 149.918 33.6879 150.379 32.804C150.841 31.9202 151.507 31.2435 152.378 30.774C153.249 30.3044 154.293 30.0703 155.511 30.0703C156.729 30.0703 157.781 30.3072 158.649 30.7825C159.517 31.2577 160.183 31.9373 160.647 32.8197C161.112 33.7035 161.343 34.7604 161.343 35.9889ZM158.878 35.9889C158.878 34.7377 158.583 33.756 157.993 33.0452C157.403 32.3345 156.575 31.9784 155.511 31.9784C154.447 31.9784 153.594 32.3316 153.004 33.0367C152.414 33.7418 152.119 34.7263 152.119 35.9889C152.119 36.8344 152.256 37.565 152.529 38.1793C152.801 38.7936 153.191 39.2674 153.696 39.5994C154.201 39.9313 154.801 40.0973 155.494 40.0973C156.575 40.0973 157.41 39.7412 157.997 39.0262C158.584 38.3127 158.878 37.2997 158.878 35.9875V35.9889Z" fill="#1D1D1B"/>
<path d="M173.402 38.5322C173.402 39.5863 173.008 40.402 172.222 40.978C171.435 41.554 170.343 41.8419 168.946 41.8419H163.17V30.2402H168.453C169.862 30.2402 170.929 30.4857 171.651 30.9765C172.375 31.4674 172.737 32.1937 172.737 33.1541C172.737 33.8124 172.555 34.3685 172.192 34.821C171.829 35.2736 171.276 35.58 170.533 35.7389C171.468 35.8481 172.179 36.1432 172.668 36.6241C173.156 37.1051 173.402 37.7392 173.402 38.5308V38.5322ZM170.305 33.4847C170.305 32.9626 170.14 32.5924 169.809 32.3725C169.479 32.1526 168.989 32.0433 168.339 32.0433H165.586V34.9175H168.356C169.039 34.9175 169.534 34.7983 169.843 34.5586C170.151 34.3203 170.306 33.9613 170.306 33.4847H170.305ZM170.977 38.3421C170.977 37.2554 170.202 36.7121 168.651 36.7121H165.586V40.0388H168.74C169.514 40.0388 170.082 39.897 170.439 39.6147C170.796 39.3323 170.975 38.9082 170.975 38.3421H170.977Z" fill="#1D1D1B"/>
<path d="M177.186 38.8784L176.163 41.8419H173.746L177.956 30.2402H180.808L185.001 41.8419H182.609L181.584 38.8784H177.184H177.186ZM179.381 32.0277C179.326 32.2476 179.249 32.5115 179.152 32.8179C179.055 33.1243 178.983 33.3428 178.939 33.4691L177.726 37.0512H181.043L179.798 33.3953C179.722 33.1697 179.652 32.9428 179.585 32.7115C179.519 32.4803 179.451 32.2533 179.381 32.0277Z" fill="#1D1D1B"/>
<path d="M84.7863 58.7042V62.0636H82.7383V56.6954H84.0157C84.4094 55.9762 84.7581 55.0881 85.0644 54.0312C85.3707 52.9743 85.6021 51.8862 85.7602 50.7669L86.2599 47.1025H92.7229V56.694H94.2389V62.0622H92.1908V58.7028H84.7849L84.7863 58.7042ZM86.5478 56.6954H90.3898V49.1128H88.243L87.9889 51.0393C87.8845 51.7855 87.7574 52.5161 87.6036 53.2297C87.4511 53.9433 87.2846 54.5987 87.1039 55.1931C86.9233 55.7889 86.7384 56.2897 86.5464 56.6954H86.5478Z" fill="#1D1D1B"/>
<path d="M106.888 52.8507C106.888 54.058 106.647 55.1134 106.163 56.0171C105.68 56.9208 105 57.6216 104.123 58.121C103.247 58.6203 102.219 58.87 101.039 58.87C99.8592 58.87 98.7949 58.6274 97.9269 58.1408C97.0588 57.6556 96.3926 56.9619 95.9283 56.0611C95.4639 55.1617 95.2324 54.0906 95.2324 52.8507C95.2324 51.6108 95.4625 50.5482 95.924 49.6644C96.3856 48.7806 97.0518 48.1039 97.9227 47.6343C98.7935 47.1647 99.838 46.9307 101.056 46.9307C102.274 46.9307 103.326 47.1676 104.194 47.6428C105.062 48.1181 105.728 48.7976 106.192 49.68C106.657 50.5638 106.888 51.6207 106.888 52.8493V52.8507ZM104.422 52.8507C104.422 51.5994 104.127 50.6177 103.537 49.907C102.947 49.1962 102.12 48.8402 101.055 48.8402C99.989 48.8402 99.1379 49.1934 98.5479 49.8985C97.9579 50.6035 97.663 51.5881 97.663 52.8507C97.663 53.6962 97.7999 54.4268 98.0723 55.0411C98.3447 55.6553 98.7343 56.1292 99.2396 56.4611C99.7449 56.7931 100.345 56.9591 101.038 56.9591C102.119 56.9591 102.953 56.603 103.54 55.8894C104.127 55.1758 104.421 54.1629 104.421 52.8507H104.422Z" fill="#1D1D1B"/>
<path d="M111.123 49.1123V58.7038H108.715V47.1035H118.529V58.7038H116.194V49.1123H111.124H111.123Z" fill="#1D1D1B"/>
<path d="M131.996 52.8507C131.996 54.058 131.754 55.1134 131.27 56.0171C130.787 56.9208 130.107 57.6216 129.231 58.121C128.354 58.6203 127.327 58.87 126.147 58.87C124.967 58.87 123.902 58.6274 123.034 58.1408C122.166 57.6542 121.5 56.9619 121.036 56.0611C120.571 55.1617 120.34 54.0906 120.34 52.8507C120.34 51.6108 120.57 50.5482 121.031 49.6644C121.493 48.7806 122.159 48.1039 123.03 47.6343C123.901 47.1647 124.945 46.9307 126.164 46.9307C127.382 46.9307 128.433 47.1676 129.301 47.6428C130.169 48.1181 130.835 48.7976 131.3 49.68C131.764 50.5638 131.996 51.6207 131.996 52.8493V52.8507ZM129.53 52.8507C129.53 51.5994 129.235 50.6177 128.645 49.907C128.055 49.1962 127.228 48.8402 126.164 48.8402C125.099 48.8402 124.247 49.1934 123.657 49.8985C123.067 50.6035 122.772 51.5881 122.772 52.8507C122.772 53.6962 122.909 54.4268 123.181 55.0411C123.454 55.6553 123.843 56.1292 124.348 56.4611C124.854 56.7931 125.454 56.9591 126.147 56.9591C127.228 56.9591 128.062 56.603 128.649 55.8894C129.236 55.1758 129.53 54.1629 129.53 52.8507Z" fill="#1D1D1B"/>
<path d="M135.969 51.673V58.7038H133.822V47.1035H137.057L139.122 53.591C139.215 53.9527 139.31 54.3173 139.409 54.6819C139.508 55.0465 139.602 55.4111 139.695 55.7729C139.756 55.5643 139.813 55.3572 139.868 55.1515C139.923 54.9458 139.978 54.7387 140.036 54.5301C140.093 54.3216 140.151 54.1159 140.212 53.913L142.333 47.1035H145.553V58.7038H143.406V51.673C143.406 51.5141 143.413 51.1935 143.427 50.714C143.441 50.2345 143.461 49.711 143.489 49.145C143.297 49.8812 143.131 50.5069 142.985 51.0218C142.841 51.5382 142.722 51.9411 142.63 52.2319L140.549 58.7038H138.829L136.748 52.2319L135.872 49.145C135.904 49.7819 135.93 50.3097 135.945 50.7296C135.962 51.1495 135.969 51.4644 135.969 51.673Z" fill="#1D1D1B"/>
<path d="M159.021 52.8507C159.021 54.058 158.78 55.1134 158.296 56.0171C157.813 56.9208 157.133 57.6216 156.256 58.121C155.38 58.6203 154.352 58.87 153.172 58.87C151.992 58.87 150.928 58.6274 150.06 58.1408C149.192 57.6556 148.525 56.9619 148.061 56.0611C147.597 55.1617 147.365 54.0906 147.365 52.8507C147.365 51.6108 147.597 50.5482 148.058 49.6644C148.52 48.7806 149.186 48.1039 150.057 47.6343C150.928 47.1647 151.972 46.9307 153.19 46.9307C154.408 46.9307 155.46 47.1676 156.328 47.6428C157.196 48.1181 157.862 48.7976 158.327 49.68C158.791 50.5638 159.022 51.6207 159.022 52.8493L159.021 52.8507ZM156.555 52.8507C156.555 51.5994 156.26 50.6177 155.67 49.907C155.08 49.1962 154.253 48.8402 153.188 48.8402C152.122 48.8402 151.271 49.1934 150.681 49.8985C150.091 50.6035 149.796 51.5881 149.796 52.8507C149.796 53.6962 149.933 54.4268 150.205 55.0411C150.478 55.6553 150.867 56.1292 151.372 56.4611C151.878 56.7931 152.478 56.9591 153.171 56.9591C154.252 56.9591 155.086 56.603 155.673 55.8894C156.26 55.1758 156.554 54.1629 156.554 52.8507H156.555Z" fill="#1D1D1B"/>
<path d="M163.264 48.9808V58.6957H160.848V47.1025H168.908V48.9794H163.264V48.9808Z" fill="#1D1D1B"/>
<path d="M172.037 55.7402L171.014 58.7038H168.598L172.808 47.1035H175.659L179.853 58.7038H177.46L176.437 55.7402H172.037ZM174.232 48.8896C174.177 49.1095 174.101 49.3734 174.002 49.6798C173.903 49.9876 173.833 50.2047 173.789 50.3309L172.577 53.913H175.895L174.65 50.2572C174.574 50.0316 174.502 49.8046 174.437 49.5734C174.372 49.3421 174.303 49.1152 174.232 48.8896Z" fill="#1D1D1B"/>
<path d="M90.4069 72.2568C90.4069 73.3109 90.0131 74.1266 89.2269 74.7026C88.4407 75.2786 87.3483 75.5665 85.9495 75.5665H80.1738V63.9648H85.4569C86.8656 63.9648 87.9326 64.2103 88.6553 64.7011C89.3794 65.192 89.7407 65.9183 89.7407 66.8787C89.7407 67.537 89.5586 68.0931 89.1959 68.5457C88.8331 68.9982 88.2798 69.3046 87.5374 69.4635C88.4718 69.5728 89.1832 69.8678 89.6715 70.3488C90.1599 70.8297 90.4041 71.4652 90.4041 72.2554L90.4069 72.2568ZM87.3102 67.2093C87.3102 66.6872 87.145 66.317 86.8147 66.0985C86.4845 65.8786 85.9947 65.7694 85.344 65.7694H82.5917V68.6421H85.3609C86.0441 68.6421 86.5395 68.523 86.8472 68.2832C87.1563 68.0449 87.3102 67.686 87.3102 67.2093ZM87.982 72.0667C87.982 70.9801 87.2071 70.4367 85.6559 70.4367H82.5917V73.7634H85.7449C86.5197 73.7634 87.0872 73.6216 87.4443 73.3393C87.8014 73.057 87.9806 72.6328 87.9806 72.0667H87.982Z" fill="#1D1D1B"/>
<path d="M101.704 73.6897V75.5665H92.291V63.9648H101.368V65.8417H94.7088V68.757H100.868V70.6339H94.7088V73.6883H101.704V73.6897Z" fill="#1D1D1B"/>
<path d="M108.691 65.8427V75.5661H106.275V65.8427H102.547V63.9658H112.426V65.8427H108.69H108.691Z" fill="#1D1D1B"/>
<path d="M123.14 73.6897V75.5665H113.727V63.9648H122.804V65.8417H116.144V68.757H122.304V70.6339H116.144V73.6883H123.14V73.6897Z" fill="#1D1D1B"/>
<path d="M134.413 67.6377C134.413 68.3896 134.243 69.055 133.901 69.6338C133.559 70.2126 133.075 70.6665 132.447 70.9928C131.819 71.3191 131.071 71.4823 130.203 71.4823H127.336V75.5665H124.92V63.9648H130.106C131.487 63.9648 132.552 64.284 133.297 64.9239C134.042 65.5637 134.415 66.4673 134.415 67.6363L134.413 67.6377ZM131.98 67.6789C131.98 66.4602 131.264 65.8516 129.833 65.8516H127.335V69.6139H129.9C130.566 69.6139 131.08 69.4479 131.439 69.116C131.799 68.784 131.98 68.3045 131.98 67.6789Z" fill="#1D1D1B"/>
<path d="M137.369 72.603L136.346 75.5665H133.93L138.14 63.9648H140.991L145.185 75.5665H142.792L141.769 72.603H137.369ZM139.564 65.7523C139.509 65.9722 139.433 66.2347 139.334 66.5425C139.235 66.8504 139.165 67.066 139.121 67.1923L137.909 70.7744H141.227L139.982 67.1185C139.906 66.8929 139.834 66.6659 139.769 66.4347C139.704 66.2049 139.635 65.9765 139.564 65.7509V65.7523Z" fill="#1D1D1B"/>
<path d="M149.166 70.5942V75.5665H146.75V63.9648H149.166V68.584H154.197V63.9648H156.613V75.5665H154.197V70.5942H149.166Z" fill="#1D1D1B"/>
<path d="M161.602 72.603L160.579 75.5665H158.162L162.372 63.9648H165.224L169.417 75.5665H167.025L166 72.603H161.6H161.602ZM163.797 65.7523C163.742 65.9722 163.665 66.2347 163.568 66.5425C163.469 66.8504 163.399 67.066 163.355 67.1923L162.142 70.7744H165.459L164.214 67.1185C164.138 66.8929 164.068 66.6659 164.001 66.4347C163.936 66.2049 163.867 65.9765 163.797 65.7509V65.7523Z" fill="#1D1D1B"/>
<path d="M173.127 68.5357V75.5665H170.98V63.9648H174.217L176.281 70.4523C176.374 70.8141 176.47 71.1787 176.567 71.5433C176.664 71.9079 176.76 72.2724 176.854 72.6342C176.914 72.4257 176.971 72.2185 177.026 72.0128C177.081 71.8071 177.136 71.6 177.194 71.3915C177.252 71.1829 177.309 70.9772 177.37 70.7744L179.492 63.9648H182.711V75.5665H180.564V68.5357C180.564 68.3768 180.571 68.0562 180.585 67.5767C180.6 67.0958 180.619 66.5737 180.648 66.0077C180.457 66.744 180.289 67.3696 180.144 67.8846C179.998 68.401 179.88 68.8039 179.787 69.0947L177.706 75.5665H175.985L173.905 69.0947L173.028 66.0077C173.061 66.6447 173.086 67.1724 173.102 67.5923C173.117 68.0122 173.126 68.3272 173.126 68.5357H173.127Z" fill="#1D1D1B"/>
</g>
<defs>
<linearGradient id="paint0_linear_224_1654" x1="31.3034" y1="-26.099" x2="31.3034" y2="94.0945" gradientUnits="userSpaceOnUse">
<stop offset="0.35" stop-color="#222F1A"/>
<stop offset="0.93" stop-color="#1D1D1B"/>
</linearGradient>
<linearGradient id="paint1_linear_224_1654" x1="47.2106" y1="-31.3638" x2="47.2106" y2="119.617" gradientUnits="userSpaceOnUse">
<stop stop-color="white"/>
<stop offset="0.89" stop-color="#222F1A"/>
</linearGradient>
<linearGradient id="paint2_linear_224_1654" x1="15.406" y1="-31.3633" x2="15.406" y2="119.618" gradientUnits="userSpaceOnUse">
<stop stop-color="white"/>
<stop offset="0.89" stop-color="#222F1A"/>
</linearGradient>
<linearGradient id="paint3_linear_224_1654" x1="31.3028" y1="-44.0646" x2="31.3028" y2="35.9684" gradientUnits="userSpaceOnUse">
<stop stop-color="white"/>
<stop offset="0.89" stop-color="#222F1A"/>
</linearGradient>
<clipPath id="clip0_224_1654">
<rect width="185" height="87" fill="white"/>
</clipPath>
</defs>
</svg>
