<svg width="97" height="137" viewBox="0 0 97 137" fill="none" xmlns="http://www.w3.org/2000/svg">
<path d="M96.9636 48.1277C96.9636 48.1277 96.7275 57.5928 94.9437 69.4375V69.453C93.3173 80.2349 90.4121 92.9854 85.2268 102.364C83.2506 105.948 80.9793 109.229 78.5528 112.212C78.2031 112.638 77.8555 113.056 77.5014 113.471C68.2129 124.383 57.0663 131.08 51.6953 133.919C49.6863 134.978 48.4862 135.499 48.4862 135.499L48.4818 135.495C48.4009 135.461 47.2117 134.94 45.2727 133.919C39.8973 131.082 28.7572 124.388 19.471 113.48C16.651 110.17 14.0015 106.467 11.7412 102.367C6.54716 92.9678 3.63756 80.1752 2.01552 69.3734C0.236091 57.5597 0 48.1277 0 48.1277C8.92994 45.5118 13.796 40.5317 16.4455 35.9803H80.5159C83.1697 40.5317 88.0337 45.5118 96.9658 48.1277H96.9636Z" fill="url(#paint0_linear_224_1170)"/>
<path d="M94.9482 69.4383C93.3262 80.2247 90.4166 92.9774 85.2335 102.363C82.971 106.459 80.3237 110.158 77.5037 113.47C56.3407 102.599 51.291 59.2065 51.291 59.2065H71.855C75.792 65.6845 71.1249 83.3046 78.5508 82.0894C81.6397 81.5835 84.9996 80.2402 88.4623 77.5447C91.162 75.4457 93.2825 72.6265 94.9482 69.4405V69.4383Z" fill="url(#paint1_linear_224_1170)"/>
<path d="M45.7054 59.2042C45.7054 59.2042 40.6557 102.621 19.4752 113.474C16.6552 110.162 14.0058 106.461 11.7432 102.361C6.55141 92.9596 3.6418 80.1694 2.01758 69.3697C3.68771 72.5822 5.8169 75.4302 8.53632 77.5424C11.9968 80.2378 15.3589 81.5812 18.4478 82.0871C25.8694 83.3023 21.2044 65.6822 25.1392 59.2042H45.7032H45.7054Z" fill="url(#paint2_linear_224_1170)"/>
<path d="M86.251 79.2545C82.7336 82.1776 78.4403 83.638 74.1469 83.638C69.8535 83.638 65.5602 82.1776 62.0429 79.2545L70.811 62.2067H51.692V133.918C49.683 134.976 48.4829 135.497 48.4829 135.497L48.4785 135.493C48.3976 135.46 47.2084 134.938 45.2694 133.918V62.2067H26.1548L34.9186 79.2545C31.4056 82.1776 27.1123 83.638 22.8189 83.638C18.5255 83.638 14.2322 82.1776 10.7148 79.2545L10.7848 79.1198L22.8145 55.7198H74.1469L86.1898 79.133L86.251 79.2567V79.2545Z" fill="#44593D"/>
<path d="M80.095 26.5108C80.095 11.9308 68.7124 0 54.8026 0H42.1674C28.2555 0 16.875 11.9308 16.875 26.5108V30.3109H26.1132V26.5108H70.7935V30.3109H80.0972V26.5108H80.095Z" fill="url(#paint3_linear_224_1170)"/>
<defs>
<linearGradient id="paint0_linear_224_1170" x1="48.4818" y1="-40.6465" x2="48.4818" y2="146.544" gradientUnits="userSpaceOnUse">
<stop offset="0.35" stop-color="#222F1A"/>
<stop offset="0.93" stop-color="#1D1D1B"/>
</linearGradient>
<linearGradient id="paint1_linear_224_1170" x1="73.1185" y1="-48.847" x2="73.1185" y2="186.292" gradientUnits="userSpaceOnUse">
<stop stop-color="white"/>
<stop offset="0.89" stop-color="#222F1A"/>
</linearGradient>
<linearGradient id="paint2_linear_224_1170" x1="23.8604" y1="-48.8471" x2="23.8604" y2="186.292" gradientUnits="userSpaceOnUse">
<stop stop-color="white"/>
<stop offset="0.89" stop-color="#222F1A"/>
</linearGradient>
<linearGradient id="paint3_linear_224_1170" x1="48.4828" y1="-68.6266" x2="48.4828" y2="56.0175" gradientUnits="userSpaceOnUse">
<stop stop-color="white"/>
<stop offset="0.89" stop-color="#222F1A"/>
</linearGradient>
</defs>
</svg>
