<svg width="34" height="34" fill="none" xmlns="http://www.w3.org/2000/svg"><g clip-path="url(#clip0_1584_56463)"><path d="M12.592 22.667h-5.51a1.417 1.417 0 01-1.416-1.417v-8.5a1.417 1.417 0 011.417-1.416h5.51l7.499-6.137a.709.709 0 011.157.548v22.51a.708.708 0 01-1.157.549l-7.498-6.137h-.002zm14.13.837l-2.015-2.014A5.656 5.656 0 0026.916 17a5.66 5.66 0 00-2.663-4.805l2.038-2.039A8.488 8.488 0 0129.75 17a8.481 8.481 0 01-3.027 6.504z" fill="#fff"/></g><defs><clipPath id="clip0_1584_56463"><path fill="#fff" d="M0 0h34v34H0z"/></clipPath></defs></svg>