<svg width="34" height="34" fill="none" xmlns="http://www.w3.org/2000/svg"><g clip-path="url(#clip0_1584_56471)"><path d="M8.342 22.667h-5.51a1.417 1.417 0 01-1.416-1.417v-8.5a1.417 1.417 0 011.417-1.416h5.51l7.499-6.137a.709.709 0 011.157.548v22.51a.708.708 0 01-1.157.549l-7.5-6.137zM28.92 17l5.01 5.01-2.004 2.003-5.009-5.01-5.01 5.01-2.002-2.003L24.913 17l-5.01-5.009 2.004-2.003 5.009 5.01 5.01-5.01 2.003 2.003-5.01 5.01z" fill="#fff"/></g><defs><clipPath id="clip0_1584_56471"><path fill="#fff" d="M0 0h34v34H0z"/></clipPath></defs></svg>