<svg width="22" height="19" viewBox="0 0 22 19" fill="none" xmlns="http://www.w3.org/2000/svg">
<path d="M14.4801 16.2593C14.516 16.265 14.5516 16.2678 14.5868 16.2678C14.8962 16.2678 15.1693 16.0546 15.2218 15.7536L15.8663 12.0622C15.9249 11.7271 15.6877 11.4101 15.3365 11.3542C14.9854 11.2982 14.6533 11.5248 14.5948 11.8599L13.9503 15.5513C13.8918 15.8865 14.1289 16.2035 14.4801 16.2593Z" fill="white"/>
<path d="M6.81747 15.7536C6.87002 16.0545 7.14304 16.2678 7.45246 16.2678C7.48765 16.2678 7.52331 16.265 7.55919 16.2593C7.91034 16.2034 8.14752 15.8865 8.089 15.5513L7.44447 11.8599C7.38594 11.5247 7.05392 11.2983 6.70274 11.3542C6.3516 11.41 6.11441 11.727 6.17293 12.0622L6.81747 15.7536Z" fill="white"/>
<path d="M21.3555 6.42382H19.0871L14.1244 0.502395C13.9021 0.237147 13.4965 0.19404 13.2185 0.406337C12.9405 0.618592 12.8954 1.00574 13.1178 1.27107L17.4363 6.42382H4.56367L8.8822 1.27107C9.10456 1.00574 9.05949 0.618551 8.78157 0.406337C8.50356 0.19404 8.09798 0.237106 7.87566 0.502395L2.91289 6.42382H0.644531C0.288578 6.42382 0 6.69928 0 7.03906V9.49999C0 9.83977 0.288578 10.1152 0.644531 10.1152H1.44745L3.89202 18.2823C3.97104 18.5464 4.22396 18.7285 4.51172 18.7285H17.4883C17.776 18.7285 18.029 18.5464 18.108 18.2823L20.5526 10.1152H21.3555C21.7114 10.1152 22 9.83977 22 9.49999V7.03906C22 6.69928 21.7114 6.42382 21.3555 6.42382ZM17.0021 17.498H4.99787L2.78807 10.1152H19.212L17.0021 17.498ZM20.7109 8.88476C18.503 8.88476 3.38078 8.88476 1.28906 8.88476V7.65429H20.7109V8.88476Z" fill="white"/>
<path d="M11 16.2676C11.356 16.2676 11.6445 15.9921 11.6445 15.6523V11.9609C11.6445 11.6212 11.356 11.3457 11 11.3457C10.644 11.3457 10.3555 11.6212 10.3555 11.9609V15.6523C10.3555 15.9922 10.644 16.2676 11 16.2676Z" fill="white"/>
</svg>
