<svg width="22" height="23" viewBox="0 0 22 23" fill="none" xmlns="http://www.w3.org/2000/svg">
<path d="M21.9291 6.94848C21.9168 6.02475 21.7436 5.1102 21.4173 4.24574C21.1343 3.51658 20.702 2.85437 20.1481 2.30142C19.5943 1.74847 18.931 1.31694 18.2006 1.03441C17.3458 0.714079 16.4428 0.54087 15.53 0.522159C14.3547 0.469714 13.9821 0.455078 10.9988 0.455078C8.01544 0.455078 7.63305 0.455078 6.46635 0.522159C5.55395 0.541007 4.65136 0.714214 3.79698 1.03441C3.06649 1.31675 2.40307 1.7482 1.84917 2.30118C1.29528 2.85415 0.863103 3.51646 0.580298 4.24574C0.25879 5.09844 0.085668 5.99973 0.068414 6.91067C0.0158818 8.08519 0 8.45719 0 11.4356C0 14.4139 -9.10222e-09 14.7945 0.068414 15.9605C0.0867392 16.8728 0.258996 17.7729 0.580298 18.6278C0.863578 19.3569 1.29607 20.0189 1.85016 20.5717C2.40424 21.1244 3.06771 21.5557 3.7982 21.8379C4.65024 22.1711 5.55299 22.3568 6.46757 22.3868C7.64405 22.4392 8.01666 22.4551 11 22.4551C13.9833 22.4551 14.3657 22.4551 15.5324 22.3868C16.4452 22.3688 17.3483 22.196 18.203 21.8757C18.9332 21.5929 19.5964 21.1612 20.1502 20.6083C20.704 20.0554 21.1364 19.3934 21.4197 18.6644C21.741 17.8107 21.9133 16.9106 21.9316 15.997C21.9841 14.8237 22 14.4518 22 11.4722C21.9976 8.49378 21.9976 8.11568 21.9291 6.94848ZM10.9914 17.0679C7.87128 17.0679 5.34363 14.5444 5.34363 11.4295C5.34363 8.31449 7.87128 5.79104 10.9914 5.79104C12.4893 5.79104 13.9259 6.38508 14.9851 7.44249C16.0442 8.49991 16.6393 9.93406 16.6393 11.4295C16.6393 12.9249 16.0442 14.359 14.9851 15.4164C13.9259 16.4739 12.4893 17.0679 10.9914 17.0679ZM16.8641 6.89726C16.1347 6.89726 15.5471 6.30939 15.5471 5.58248C15.5471 5.4099 15.5811 5.23901 15.6473 5.07957C15.7134 4.92012 15.8104 4.77525 15.9326 4.65322C16.0549 4.53119 16.2 4.43438 16.3597 4.36834C16.5194 4.3023 16.6906 4.26831 16.8635 4.26831C17.0363 4.26831 17.2075 4.3023 17.3672 4.36834C17.5269 4.43438 17.672 4.53119 17.7943 4.65322C17.9165 4.77525 18.0135 4.92012 18.0796 5.07957C18.1458 5.23901 18.1798 5.4099 18.1798 5.58248C18.1798 6.30939 17.591 6.89726 16.8641 6.89726Z" fill="#2D649F"/>
<path d="M11 15.4551C13.2091 15.4551 15 13.6642 15 11.4551C15 9.24594 13.2091 7.45508 11 7.45508C8.79086 7.45508 7 9.24594 7 11.4551C7 13.6642 8.79086 15.4551 11 15.4551Z" fill="#2D649F"/>
</svg>
