<svg width="109" height="118" viewBox="0 0 109 118" fill="none" xmlns="http://www.w3.org/2000/svg">
<path d="M92.2806 61.1695C92.2806 64.3232 92.3052 67.4768 92.2663 70.6304C92.2667 71.6851 92.1539 72.7369 91.9299 73.7676C91.8129 74.2696 91.7698 74.7676 91.6693 75.2614C91.5504 75.8352 91.3227 76.3864 91.1647 76.954C91.015 77.4847 90.9144 78.0318 90.7544 78.5584C90.6108 79.0134 90.3996 79.4457 90.2314 79.8904C90.1021 80.2326 90.0078 80.585 89.8744 80.9149C89.6693 81.4436 89.4518 81.9743 89.2036 82.4866C88.9554 82.9989 88.6764 83.4661 88.4077 83.9538C88.1882 84.3513 87.9728 84.7509 87.7451 85.1443C87.3574 85.8124 86.9882 86.4947 86.5656 87.1402C85.8128 88.2877 85.0702 89.4475 84.2435 90.5397C83.1132 92.0335 81.9727 93.5294 80.7132 94.9105C79.6669 96.0164 78.5404 97.0437 77.3428 97.9842C76.6844 98.519 75.87 98.8592 75.1254 99.2895C74.1161 99.8694 73.0289 100.296 72.0791 101.017C71.4371 101.505 70.5694 101.691 69.8227 102.041C68.9529 102.451 68.0093 102.488 67.1026 102.697C66.1959 102.906 65.3364 102.732 64.5118 102.968C63.121 103.365 61.7056 103.105 60.3148 103.283C56.9034 103.72 53.4797 103.476 50.0581 103.445C48.8273 103.435 47.5965 103.293 46.3657 103.183C45.617 103.113 44.8375 103.097 44.14 102.859C43.5349 102.654 42.9297 102.716 42.3451 102.582C41.1882 102.318 40.0394 102.005 38.905 101.654C38.1912 101.433 37.506 101.115 36.8127 100.835C36.0024 100.503 35.149 100.242 34.4003 99.81C33.4594 99.2584 32.5672 98.6277 31.7336 97.9248C30.9418 97.2588 30.2976 96.4289 29.512 95.7465C29.032 95.3244 28.4084 95.0703 27.8832 94.6933C26.9971 94.0642 26.0986 93.4433 25.2801 92.7302C24.5798 92.0959 23.9271 91.411 23.3272 90.6811C23.0503 90.2995 22.8125 89.891 22.6175 89.4619C22.2195 88.7365 21.8154 88.0111 21.44 87.2734C21.3117 86.9777 21.1994 86.6754 21.1036 86.3677C20.8759 85.7673 20.6625 85.1607 20.4041 84.5726C20.0471 83.753 19.6389 82.962 19.2799 82.1465C19.124 81.7961 19.0522 81.4088 18.9107 81.0502C18.7692 80.6916 18.5948 80.3781 18.4471 80.0359C18.3138 79.7265 18.1866 79.4211 18.0799 79.0953C17.842 78.3925 17.6286 77.6814 17.3825 76.9827C17.2327 76.5606 17.0276 76.163 16.8696 75.7368C16.7507 75.4212 16.6645 75.0913 16.5742 74.7635C16.4327 74.2409 16.3158 73.7102 16.164 73.1897C16.0224 72.7102 15.844 72.243 15.6799 71.7697C15.6563 71.7292 15.6364 71.6867 15.6204 71.6426C15.5055 71.0054 15.4296 70.3578 15.2778 69.7308C14.927 68.2964 14.9824 66.8292 14.9722 65.3723C14.9409 64.5961 14.9581 63.8186 15.0234 63.0445C15.1178 62.2658 15.3558 61.5036 15.5281 60.7331C15.647 60.1942 15.7332 59.6491 15.8809 59.1143C16.0286 58.5794 16.2112 58.0323 16.3794 57.4914C16.4124 57.4193 16.4391 57.3446 16.4594 57.268C16.5804 56.4156 16.7342 55.5652 16.806 54.7086C16.9373 53.139 16.9845 51.5612 17.1425 49.9956C17.2143 49.303 17.4809 48.633 17.6409 47.9465C17.7886 47.3318 17.8891 46.6925 18.0512 46.0757C18.1743 45.6249 18.3712 45.1945 18.5333 44.7519C18.6502 44.4261 18.7569 44.0942 18.8799 43.7704C19.2061 42.9016 19.5261 42.0307 19.8748 41.1721C20.0984 40.625 20.3815 40.1004 20.6195 39.5574C20.8861 38.9529 21.1159 38.3279 21.3969 37.7296C21.6308 37.2275 21.9262 36.7542 22.1744 36.2583C22.4226 35.7624 22.6359 35.246 22.8903 34.7522C23.2616 34.035 23.6493 33.3178 24.0431 32.617C24.4534 31.8773 24.8637 31.1334 25.3191 30.4142C25.6411 29.9039 26.0432 29.4429 26.3755 28.9368C27.1311 27.8426 27.9698 26.8082 28.8843 25.8426C29.8792 24.736 30.7407 23.5025 31.7808 22.441C32.541 21.7064 33.3843 21.0628 34.2936 20.523C35.2496 19.9226 36.2875 19.4513 37.2906 18.9288C37.8076 18.6583 38.3163 18.3714 38.8517 18.1399C39.262 17.9678 39.6927 17.8858 40.1092 17.7465C40.5687 17.5907 41.0179 17.4063 41.4753 17.2485C41.8118 17.1317 42.1502 17.019 42.501 16.935C43.1041 16.7854 43.7113 16.6604 44.3185 16.5252L46.7411 15.9822C46.7878 15.9723 46.8351 15.9655 46.8826 15.9617C48.1442 15.8572 49.375 15.7301 50.6386 15.6379C52.1033 15.5355 53.572 15.4023 55.0408 15.4084C56.4767 15.4084 57.9126 15.5621 59.3486 15.6809C59.999 15.7434 60.6455 15.8419 61.285 15.976C62.1384 16.1461 62.9958 16.31 63.8266 16.56C64.5549 16.7793 65.2462 17.1215 65.96 17.3961C66.3149 17.5313 66.6882 17.6133 67.039 17.7588C67.6442 18.0088 68.2452 18.2731 68.8319 18.56C69.4986 18.8858 70.1509 19.2403 70.8053 19.5845C71.0206 19.6972 71.2299 19.8161 71.4371 19.9411L73.4248 21.1583C74.073 21.5537 74.7356 21.9287 75.3654 22.355C75.9359 22.7325 76.4839 23.143 77.0064 23.5844C77.8074 24.2444 78.5723 24.9469 79.2978 25.6889C79.8537 26.2831 80.2845 26.9942 80.7665 27.6581C81.1009 28.1171 81.4352 28.5802 81.7573 29.0474C82.2271 29.7298 82.6866 30.4162 83.1481 31.0965C83.6999 31.9162 84.2435 32.7502 84.7892 33.5719C85.14 34.0924 85.5051 34.5964 85.86 35.121C86.5738 36.1599 87.3103 37.1824 87.9892 38.2439C88.3687 38.8381 88.6416 39.498 88.9821 40.1188C89.2365 40.584 89.5647 41.0143 89.7862 41.4938C90.057 42.0799 90.2478 42.7028 90.4775 43.3073C90.6355 43.7171 90.8139 44.1269 90.9575 44.5368C91.1046 44.947 91.2292 45.365 91.3309 45.7888C91.4683 46.3892 91.5893 46.9937 91.6898 47.6023C91.8786 48.7416 92.0509 49.885 92.2273 51.0284C92.2544 51.2006 92.2681 51.3746 92.2683 51.5489C92.2683 54.7483 92.2683 57.9463 92.2683 61.1429L92.2806 61.1695ZM51.9884 17.642L51.9781 17.5252C51.8592 17.5887 51.7422 17.7034 51.6212 17.7055C50.3904 17.728 49.1801 17.7055 47.9719 17.9944C47.1514 18.185 46.2857 18.2383 45.4406 18.3551C45.4099 18.3627 45.3798 18.3723 45.3503 18.3837C44.7349 18.5641 44.1318 18.7362 43.5246 18.9247C43.2497 19.0087 42.9872 19.1296 42.7143 19.2198C42.023 19.4411 41.2948 19.5825 40.6425 19.8858C39.7297 20.3079 38.8701 20.8447 37.9922 21.3386C37.2332 21.7648 36.4393 22.1439 35.7357 22.6377C34.747 23.3283 33.8136 24.0988 32.8639 24.8508C32.4592 25.1334 32.09 25.4636 31.7643 25.8344C31.0874 26.7175 30.5335 27.6909 29.8279 28.5515C29.0074 29.5617 28.0658 30.4756 27.2165 31.4633C26.9335 31.8388 26.6915 32.2434 26.4945 32.6703C26.316 32.9981 26.2032 33.3629 26.0083 33.6805C25.8134 33.9981 25.4852 34.2768 25.315 34.619C24.8575 35.5288 24.4555 36.4632 24.0288 37.3894C23.9098 37.6476 23.7785 37.9017 23.6554 38.1599C23.3785 38.7377 23.0913 39.3115 22.8349 39.8934C22.5149 40.5983 22.2195 41.3114 21.9036 42.0204C21.6103 42.6885 21.2882 43.3483 21.0133 44.0204C20.8718 44.3564 20.7774 44.713 20.6502 45.0552C20.4861 45.4917 20.2769 45.9158 20.1456 46.3625C19.9733 46.9445 19.8502 47.5428 19.7169 48.135C19.5405 48.924 19.3374 49.7108 19.2164 50.51C19.0953 51.3091 19.0358 52.1493 18.9825 52.9792C18.9333 53.7517 18.962 54.5304 18.8922 55.3008C18.8225 56.0713 18.6748 56.7742 18.5599 57.5098C18.5554 57.5248 18.5492 57.5392 18.5415 57.5528C18.3651 58.0856 18.1702 58.6122 18.0184 59.1511C17.7989 59.9319 17.5732 60.7146 17.4214 61.5097C17.2696 62.3048 17.085 63.1736 17.1014 64.0035C17.1363 65.7084 16.8307 67.4296 17.3455 69.1263C17.5507 69.8169 17.5794 70.5607 17.6902 71.284C17.6996 71.347 17.7154 71.4088 17.7373 71.4685C17.9035 71.9131 18.084 72.3516 18.2338 72.8004C18.3835 73.2492 18.4984 73.7225 18.644 74.1815C18.7446 74.5135 18.8492 74.8434 18.9805 75.1671C19.1446 75.5913 19.3312 76.0073 19.4953 76.4315C19.6389 76.8044 19.7579 77.1876 19.9056 77.5626C20.08 78.0298 20.2707 78.4908 20.4431 78.958C20.5702 79.3023 20.6482 79.6609 20.8 79.999C21.1733 80.8986 21.5795 81.7858 21.9467 82.6895C22.1928 83.294 22.3569 83.9292 22.6257 84.5337C22.9785 85.3534 23.3641 86.1587 23.7662 86.9578C24.1888 87.798 24.5662 88.6811 25.1098 89.4414C25.6681 90.1733 26.3035 90.8431 27.0053 91.4393C27.5119 91.8962 28.1294 92.2282 28.6915 92.6257C29.2843 93.0355 29.8833 93.4454 30.4494 93.9064C31.0156 94.3675 31.549 94.8552 32.0905 95.3408C32.6956 95.8941 33.2618 96.4945 33.8977 97.0108C34.2382 97.2895 34.6895 97.435 35.0896 97.6461C35.5696 97.8981 36.0455 98.1645 36.5255 98.4084C36.8763 98.5846 37.2393 98.7444 37.6024 98.894C38.1953 99.1419 38.786 99.4001 39.3953 99.6071C39.8856 99.7751 40.4004 99.8714 40.9051 100.001C42.0046 100.277 43.0979 100.582 44.2057 100.82C44.899 100.97 45.6108 100.937 46.3247 101.074C47.6211 101.326 48.9914 101.017 50.3043 101.412C53.5864 101.341 56.8685 101.707 60.1506 101.191C61.4922 100.986 62.8625 101.15 64.2369 100.937C65.6933 100.712 67.2052 100.767 68.6206 100.269C69.4206 99.9862 70.2617 99.7034 70.9406 99.2157C71.8843 98.5313 72.953 98.1133 73.9417 97.5334C74.5571 97.1686 75.2525 96.9186 75.8454 96.5088C76.4382 96.099 76.9572 95.5683 77.5172 95.1011C78.9839 93.8716 80.1839 92.3983 81.3819 90.9352C81.9378 90.259 82.4076 89.5213 82.9368 88.8143C83.224 88.423 83.5522 88.0562 83.8066 87.6463C84.2743 86.9045 84.6928 86.1341 85.1543 85.3923C85.5092 84.8165 85.942 84.2837 86.262 83.6915C86.7974 82.7018 87.2877 81.6813 87.7677 80.667C87.9081 80.3623 88.0267 80.048 88.1226 79.7265C88.2498 79.3166 88.3277 78.9068 88.4734 78.497C88.7359 77.7286 89.0641 76.9786 89.2939 76.1979C89.5511 75.3061 89.7566 74.4002 89.9093 73.4848C90.081 72.4791 90.177 71.4619 90.1965 70.4419C90.2355 65.8026 90.1965 61.1614 90.2416 56.5221C90.2683 53.9833 90.057 51.4608 89.9011 48.9403C89.897 48.83 89.8826 48.7202 89.858 48.6125C89.6878 47.9281 89.5093 47.2457 89.337 46.5634C89.2077 46.049 89.0949 45.5388 88.9513 45.0224C88.8611 44.702 88.7466 44.389 88.6087 44.086C88.3626 43.5409 88.0898 43.0061 87.8292 42.4671C87.4826 41.7541 87.1913 41.0102 86.781 40.3402C86.1656 39.3361 85.462 38.3853 84.8035 37.4078C84.1649 36.4653 83.5303 35.5186 82.8999 34.5678C82.4999 33.9694 82.1142 33.3649 81.7101 32.7686C81.4147 32.3301 81.0947 31.908 80.7952 31.4695C80.4957 31.031 80.2598 30.6211 79.9747 30.2031C79.6547 29.7298 79.3306 29.2564 78.9901 28.7974C78.5352 28.1304 78.0406 27.4913 77.509 26.8835C76.8986 26.2385 76.2358 25.6449 75.5274 25.109C74.7459 24.5106 73.9028 23.9922 73.0781 23.4533C72.5099 23.0824 71.9314 22.7299 71.353 22.3795C70.7745 22.0291 70.2124 21.689 69.6257 21.3714C68.9857 21.023 68.3368 20.6924 67.679 20.3796C67.0472 20.0804 66.4079 19.7983 65.761 19.5333C65.4144 19.3919 65.0431 19.3099 64.6923 19.1768C64.2492 19.0087 63.8287 18.7792 63.3774 18.6481C62.6102 18.4206 61.8307 18.226 61.0471 18.0641C60.364 17.9227 59.6686 17.8264 58.9752 17.7485C57.9024 17.6256 56.8254 17.7793 55.7362 17.519C54.8828 17.3141 53.9392 17.4739 53.0346 17.4821C52.9156 17.4821 52.8007 17.5682 52.6797 17.5846C52.452 17.6153 52.2202 17.6235 51.9884 17.642Z" fill="white"/>
<path d="M67.0639 2.1543C67.5829 2.27315 67.9972 2.37355 68.4116 2.46372C68.5812 2.49958 68.7533 2.52219 68.9265 2.53134C69.9309 2.58955 70.9011 2.91731 71.7347 3.48008C72.0662 3.68292 72.3496 3.95527 72.5653 4.2783C72.781 4.60133 72.9239 4.96732 72.984 5.35094C73.1091 6.1501 72.5286 7.32835 71.7819 7.69309C71.5399 7.81194 71.2752 7.898 71.0414 8.023C70.8982 8.10635 70.7794 8.22575 70.6968 8.3693C70.6722 8.41029 70.8219 8.57422 70.9019 8.65208C71.2075 8.9697 71.5173 9.27912 71.8291 9.59263C71.8414 9.60288 71.8558 9.61312 71.8599 9.62542C71.9665 10.0352 72.1532 10.4451 72.1614 10.8549C72.1882 11.3599 72.0808 11.8629 71.8503 12.3131C71.6197 12.7633 71.2741 13.1446 70.8486 13.4184C69.9378 14.0085 68.8957 14.238 67.8003 13.8815C67.6321 13.8347 67.4607 13.8005 67.2875 13.779C66.6495 13.6643 66.0074 13.5741 65.3736 13.4307C65.22 13.3957 65.0768 13.3254 64.9554 13.2251C64.834 13.1249 64.7378 12.9977 64.6746 12.8536C64.6114 12.7095 64.5828 12.5527 64.5913 12.3956C64.5998 12.2385 64.645 12.0856 64.7233 11.9491C64.7937 11.829 64.8482 11.7002 64.8853 11.5659C65.0228 10.8795 65.1213 10.1828 65.2813 9.50247C65.4166 8.92872 65.6197 8.37135 65.7941 7.80579C65.7941 7.79145 65.7941 7.77506 65.8043 7.76071C65.9233 7.10909 66.0095 6.45132 66.1695 5.80789C66.3295 5.16447 66.5182 4.59071 66.6967 3.98417C66.709 3.93704 66.7274 3.89401 66.7357 3.84688C66.8382 3.33459 66.9367 2.82026 67.0639 2.1543ZM67.1213 8.10701C66.8116 8.35291 66.7398 8.732 66.6946 9.17256C66.6331 9.75656 66.4895 10.3324 66.3705 10.9123C66.3705 10.941 66.3438 10.9676 66.3377 10.9983C66.2536 11.4491 66.1654 11.9 66.0915 12.3528C66.088 12.392 66.0947 12.4314 66.1109 12.4673C66.127 12.5032 66.1522 12.5343 66.1838 12.5577C66.4544 12.7043 66.7466 12.8066 67.0495 12.861C67.7818 12.9143 68.5203 13.0659 69.2567 12.8938C69.3955 12.8716 69.5299 12.8273 69.6547 12.7626C70.0195 12.5222 70.3129 12.1881 70.5039 11.7954C70.6678 11.5273 70.7651 11.224 70.788 10.9107C70.8108 10.5975 70.7584 10.2833 70.6352 9.99426C70.188 8.98609 69.2137 8.53938 68.1736 8.29963C67.8372 8.22382 67.5049 8.17669 67.1213 8.10701ZM71.7204 5.64806C71.6322 5.37758 71.5563 5.10299 71.4558 4.82841C71.3814 4.60888 71.2508 4.4126 71.077 4.2591C70.9032 4.1056 70.6922 4.00022 70.465 3.95343C69.8311 3.79975 69.2239 3.54361 68.5901 3.38992C68.1798 3.29361 67.9747 3.51082 67.9295 3.95958C67.868 4.55178 67.7244 5.13373 67.6013 5.71773C67.587 5.7833 67.5111 5.83658 67.468 5.9001C67.1336 6.40214 67.3613 7.33449 67.8782 7.31605C68.6988 7.27507 69.4557 7.93079 70.3398 7.42056C70.8711 7.12343 71.8045 6.52099 71.7204 5.65626V5.64806Z" fill="white"/>
<path d="M46.8593 12.4744C46.1147 12.6138 45.4049 12.7265 44.7074 12.8842C44.01 13.042 43.292 13.2551 42.5823 13.4252C42.3997 13.4682 42.1987 13.4252 42.014 13.4559C41.7145 13.5133 41.4212 13.5994 41.1258 13.6834C40.8304 13.7674 40.6396 13.792 40.5884 13.4047C40.4837 12.6199 40.3832 11.831 40.2253 11.0544C40.0878 10.37 39.8786 9.69989 39.7022 9.02368C39.6967 8.99251 39.6933 8.96103 39.6919 8.92942C39.5709 8.10977 39.4581 7.29012 39.3247 6.47047C39.2283 5.86802 39.1996 5.24099 38.9719 4.68158C38.7565 4.16315 38.7668 3.65701 38.695 3.13449C38.6408 2.96403 38.5605 2.80297 38.457 2.65704C38.4816 2.6263 38.4981 2.58532 38.5186 2.58122C39.3801 2.46237 40.2478 2.37631 41.1012 2.22262C41.7925 2.09353 42.4633 1.84968 43.1525 1.70215C43.566 1.63526 43.9832 1.59351 44.4018 1.57715C44.6336 2.3968 44.4018 2.71851 43.6018 2.80663C42.7033 2.89679 41.8069 3.01154 40.9145 3.16112C40.6411 3.2116 40.3816 3.3199 40.1535 3.47874C40.0509 3.55046 40.0222 3.79021 40.0366 3.94594C40.0571 4.15085 40.1822 4.33732 40.2171 4.53814C40.3402 5.26968 40.4222 6.00941 40.5761 6.7348C40.6101 6.82214 40.6654 6.89959 40.7371 6.96008C40.8088 7.02057 40.8944 7.06217 40.9863 7.08111C41.3644 7.0417 41.7388 6.97319 42.1064 6.87619C42.1371 6.87619 42.1638 6.8516 42.1946 6.84751C43.0602 6.72456 43.9259 6.59751 44.7936 6.49506C44.8548 6.50261 44.9135 6.52386 44.9654 6.5572C45.0172 6.59055 45.0609 6.63515 45.0931 6.68767C45.1808 6.87115 45.2529 7.06172 45.3085 7.25733C45.2962 7.27168 45.2818 7.31471 45.2592 7.31881C44.5741 7.4397 43.889 7.55241 43.2079 7.67945C42.6294 7.78601 42.0469 7.88437 41.4786 8.0401C41.2946 8.12154 41.1275 8.23694 40.9863 8.38025C41.0479 8.77369 41.0868 9.09745 41.1525 9.40482C41.3433 10.3228 41.5422 11.249 41.7556 12.1527C41.7838 12.2024 41.8242 12.2441 41.873 12.2739C41.9218 12.3036 41.9774 12.3205 42.0346 12.3228C42.5823 12.2285 43.1895 12.4293 43.6756 12.0072C43.6888 11.9976 43.7045 11.9919 43.7207 11.9908C44.5803 11.8781 45.4398 11.7531 46.3013 11.6548C46.5516 11.6322 46.5557 11.6568 46.8593 12.4744Z" fill="white"/>
<path d="M59.3771 0.976562C59.4366 1.49909 59.4571 1.86384 59.1535 2.26546C58.3781 3.29003 57.6909 4.38221 56.9483 5.43342C56.6099 5.91291 56.1996 6.34323 55.8591 6.82478C55.4939 7.33911 55.1821 7.89237 54.8334 8.41695C54.5093 8.8862 54.1872 9.34111 53.8529 9.78782C53.6067 10.1218 53.3339 10.4394 53.098 10.7816C53.0713 10.8206 53.1862 11.0337 53.26 11.0501C53.4652 11.0952 53.7031 11.0624 53.9206 11.0911C54.3165 11.1464 54.7083 11.2366 55.1042 11.2857C55.3235 11.2991 55.5434 11.2991 55.7627 11.2857C56.8253 11.2857 57.8878 11.2857 58.9504 11.2857C59.3402 11.2857 59.4161 11.4599 59.4222 11.8103C59.4284 12.1607 59.2581 12.2529 58.934 12.2509C56.5709 12.2324 54.216 12.2304 51.8467 12.214C51.6579 12.214 51.3113 12.1505 51.3051 12.0931C51.2785 11.7919 51.2333 11.4107 51.3831 11.1853C52.0703 10.1608 52.819 9.19767 53.5452 8.20794C54.0703 7.48869 54.5975 6.77355 55.1103 6.04406C55.8119 5.04613 56.5032 4.03796 57.1986 3.03389C57.3278 2.84742 57.4714 2.66709 57.5925 2.47448C57.7135 2.28186 57.5432 1.99498 57.2253 1.97859C56.5299 1.9417 55.8345 1.90482 55.137 1.89457C54.1715 1.88228 53.2047 1.88228 52.2364 1.89457C51.9021 1.89457 51.8385 1.74089 51.8549 1.45606C51.8672 1.21221 51.8262 0.976562 52.1974 0.978612C54.5749 0.976562 56.9524 0.976562 59.3771 0.976562Z" fill="white"/>
<path d="M107.5 49.7725C107.743 49.8993 107.969 50.0578 108.171 50.2438C108.741 50.8954 108.458 51.6433 107.637 51.8298C107.022 51.9691 106.423 52.1843 105.818 52.3667C105.787 52.3667 105.758 52.3892 105.728 52.3953C105.125 52.506 104.515 52.588 103.925 52.7376C103.383 52.8728 102.864 53.0921 102.327 53.2539C101.881 53.3871 101.424 53.4896 100.973 53.6023C100.474 53.7252 99.9163 53.7437 99.4916 53.9937C98.9932 54.2867 98.5029 54.1801 98.0065 54.2519C97.5531 54.3154 97.4054 53.9588 97.3152 53.7109C97.2077 53.4042 97.2262 53.0676 97.3665 52.7744C97.7316 52.1781 98.3921 52.0081 99.0404 51.8646C99.6886 51.7212 100.349 51.504 101.001 51.3175C101.047 51.3052 101.09 51.2806 101.135 51.2724C101.736 51.1556 102.343 51.0675 102.938 50.92C103.469 50.7929 103.988 50.6085 104.513 50.4466C104.554 50.4246 104.597 50.4054 104.64 50.3892C105.342 50.2561 106.044 50.1311 106.743 49.9917C106.967 49.9507 107.182 49.8667 107.5 49.7725Z" fill="white"/>
<path d="M101.461 28.3418C102.167 28.4053 102.749 28.9401 102.614 29.5713C102.542 29.8991 102.204 30.3602 101.921 30.4176C101.129 30.5794 100.53 31.0323 99.9123 31.4667C99.2456 31.936 98.5974 32.4319 97.9574 32.9359C97.2722 33.4769 96.6589 34.1244 95.9204 34.5752C95.344 34.9257 94.8681 35.5998 94.0024 35.3662C93.8571 35.3244 93.7234 35.2497 93.6115 35.148C93.4997 35.0463 93.4127 34.9202 93.3574 34.7796C93.3021 34.639 93.2799 34.4876 93.2925 34.337C93.3051 34.1865 93.3522 34.0408 93.4301 33.9113C93.8876 33.2372 94.5727 32.8437 95.1983 32.3683C96.224 31.5999 97.1963 30.7864 98.2138 30.02C98.5955 29.7611 98.9951 29.5296 99.4097 29.3274C99.8692 29.0774 100.329 28.8315 100.796 28.5979C101.008 28.4975 101.239 28.434 101.461 28.3418Z" fill="white"/>
<path d="M105.175 39.3195C105.872 39.1719 106.239 39.6453 106.568 40.0941C106.896 40.5428 106.268 41.4198 105.665 41.4321C104.902 41.4633 104.156 41.6627 103.48 42.0161C103.181 42.1616 102.836 42.221 102.533 42.3563C101.948 42.6309 101.384 42.9464 100.801 43.2272C100.508 43.3686 100.186 43.4587 99.8884 43.594C99.3797 43.8255 98.8832 44.0817 98.3725 44.3112C98.0196 44.471 97.636 44.7476 97.3017 44.7025C97.1087 44.6606 96.9262 44.5802 96.7651 44.4661C96.6041 44.352 96.4677 44.2066 96.3642 44.0386C96.235 43.8153 96.3314 43.3255 96.5078 43.0899C96.7293 42.7948 97.1232 42.6186 97.4637 42.4301C98.0053 42.1309 98.5612 41.8502 99.1232 41.5858C99.6525 41.3379 100.202 41.135 100.736 40.8912C101.32 40.6227 101.888 40.3215 102.473 40.051C102.754 39.9195 103.047 39.8139 103.347 39.7355C103.96 39.5797 104.574 39.4568 105.175 39.3195Z" fill="white"/>
<path d="M21.6362 94.9685C21.7695 95.5832 21.2259 95.8476 20.9326 96.198C20.2105 97.0689 19.4023 97.868 18.631 98.7C17.8597 99.5319 17.1253 100.323 16.3889 101.159C16.0545 101.536 15.7735 101.938 15.2894 102.183C14.8975 102.388 14.5632 102.409 14.235 102.077C13.677 101.515 13.6709 101.122 14.1919 100.536C15.1499 99.4602 16.0873 98.366 17.0638 97.3066C18.0402 96.2472 19.0638 95.2062 20.0607 94.153C20.3233 93.8763 20.6474 93.7739 20.951 93.9726C21.2936 94.196 21.7675 94.3927 21.6362 94.9685Z" fill="white"/>
<path d="M90.367 26.5718C89.8644 26.6067 89.6059 26.2255 89.4069 25.9038C89.31 25.7558 89.2709 25.5774 89.297 25.4025C89.323 25.2276 89.4126 25.0684 89.5485 24.9551C90.0572 24.5186 90.5844 24.1047 91.0808 23.658C91.8111 23.0043 92.5167 22.3281 93.2429 21.6662C94.0819 20.9019 94.884 20.0863 95.7886 19.4122C96.1681 19.1273 96.765 19.115 97.2717 19.029C97.3866 19.0085 97.5446 19.1847 97.6676 19.2892C98.2051 19.7503 97.9692 20.7646 97.3333 21.0699C96.7508 21.3415 96.2105 21.6956 95.7291 22.1211C94.6029 23.1457 93.5547 24.2625 92.4326 25.2952C91.9104 25.7319 91.3564 26.1291 90.7752 26.4837C90.6456 26.5376 90.5073 26.5674 90.367 26.5718Z" fill="white"/>
<path d="M84.3841 19.6805C84.0825 19.4755 83.662 19.3546 83.6005 19.1313C83.5061 18.7829 83.5287 18.2747 83.7297 17.9981C84.3451 17.1395 85.0754 16.3588 85.7626 15.5392C86.8067 14.3097 87.8755 13.1068 88.8868 11.8507C89.1986 11.4634 89.4365 11.0639 89.9781 10.988C90.4294 10.9225 90.8643 11.0372 91.0345 11.4286C91.2048 11.82 91.254 12.2483 90.9094 12.6212C90.1832 13.4245 89.4735 14.2441 88.7801 15.0802C88.0191 15.9879 87.2929 16.9244 86.5236 17.826C86.0928 18.3281 85.6353 18.807 85.1533 19.2604C84.9749 19.4407 84.7 19.5165 84.3841 19.6805Z" fill="white"/>
<path d="M100.29 63.7418C99.7258 63.6415 99.1687 63.5046 98.6223 63.332C98.2633 63.1968 98.1074 62.8177 98.1362 62.4099C98.1608 62.0759 98.1074 61.7583 98.53 61.539C98.7159 61.4327 98.9245 61.3721 99.1385 61.3621C99.3525 61.3521 99.5658 61.3931 99.7608 61.4816C100.245 61.6538 100.846 61.5247 101.402 61.4816C101.656 61.4652 101.902 61.3341 102.159 61.3034C103.26 61.1702 104.366 61.0595 105.468 60.9284C106.118 60.8505 106.764 60.7132 107.416 60.664C107.857 60.6333 108.132 60.9735 108.186 61.4099C108.305 62.3853 107.864 62.7255 106.955 62.7746C105.941 62.83 104.903 62.8669 103.935 63.1496C103.23 63.3545 102.547 63.2705 101.863 63.3853C101.34 63.4754 100.834 63.6209 100.29 63.7418Z" fill="white"/>
<path d="M6.42221 91.7775C6.40785 91.0091 6.85709 90.5624 7.63454 90.4927C7.88998 90.4523 8.13238 90.3527 8.34225 90.2017C9.27561 89.6095 10.1987 88.9989 11.1218 88.3882C12.0018 87.8063 12.8716 87.2079 13.7557 86.6342C14.166 86.3699 14.9639 86.5645 15.1916 86.9518C15.3031 87.1948 15.3299 87.468 15.2678 87.728C15.2057 87.9879 15.0583 88.2197 14.8491 88.3862C14.0285 88.9395 13.2367 89.5153 12.4162 90.0603C11.5957 90.6054 10.7485 91.1218 9.91767 91.6566C9.31458 92.0439 8.73611 92.4763 8.11866 92.8267C7.37197 93.2426 6.43862 92.6484 6.42221 91.7775Z" fill="white"/>
<path d="M30.8179 15.7623C30.9923 16.4283 30.381 16.5307 30.0487 16.7377C29.7163 16.9447 29.2897 16.7377 29.0579 16.4385C28.5922 15.8238 28.1819 15.1742 27.7553 14.5349C27.3799 13.9693 27.0065 13.4038 26.6496 12.8259C26.3973 12.4161 26.1839 11.9796 25.9337 11.5657C25.6834 11.1518 25.425 10.8075 25.1932 10.4141C25.0171 10.1338 24.8726 9.83482 24.7624 9.52271C24.6516 9.18256 25.1296 8.45307 25.4824 8.35266C25.7333 8.27918 26.0019 8.29404 26.2431 8.39476C26.4843 8.49548 26.6836 8.67594 26.8076 8.90593C27.0096 9.30314 27.2357 9.68772 27.4845 10.0575C27.7368 10.451 28.0199 10.8239 28.2681 11.2194C28.5163 11.6149 28.7235 12.0124 28.9553 12.4058C29.2527 12.914 29.5461 13.4304 29.864 13.9242C30.1225 14.3341 30.4343 14.7111 30.6846 15.1271C30.7607 15.3309 30.8057 15.5451 30.8179 15.7623Z" fill="white"/>
<path d="M3.42855 82.0491C3.06956 81.9077 2.63468 81.8442 2.37006 81.6044C2.10544 81.3647 1.88595 80.9036 1.9598 80.6352C2.06852 80.2704 2.28596 79.7868 2.88905 79.8155C3.81625 79.8688 4.69422 79.6229 5.55578 79.2991C6.00502 79.1311 6.49323 79.0758 6.94453 78.916C7.30445 78.7675 7.65396 78.5949 7.99071 78.3996C8.56713 78.0963 9.12714 77.7644 9.71587 77.4898C10.1446 77.2849 10.9077 77.7971 10.9631 78.2684C10.9976 78.5809 10.932 78.8962 10.7757 79.1691C10.6194 79.4419 10.3805 79.6582 10.0933 79.7868C9.23381 80.1823 8.38661 80.6065 7.5148 80.961C7.05737 81.1158 6.59083 81.2424 6.11784 81.3401C5.50244 81.5102 4.88704 81.7007 4.27164 81.8544C4.008 81.9017 3.74136 81.9305 3.47368 81.9405L3.42855 82.0491Z" fill="white"/>
<path d="M87.99 106.882C87.391 107.087 87.1695 106.607 86.9315 106.267C86.47 105.652 86.07 104.989 85.6495 104.343C85.2043 103.663 84.7469 102.989 84.3263 102.294C83.953 101.679 83.5058 101.064 83.5222 100.286C83.5267 100.174 83.4966 100.064 83.4361 99.9702C83.0709 99.46 83.2453 99.0214 83.8463 98.5563C84.1827 98.2981 84.8146 98.4272 85.1735 98.8124C85.2414 98.8786 85.2841 98.9662 85.2946 99.0604C85.2679 99.7858 85.6618 100.386 85.9489 100.989C86.2895 101.704 86.8085 102.333 87.2433 103.005C87.7295 103.757 88.1767 104.538 88.7039 105.259C89.0813 105.775 89.0793 106.222 88.6526 106.654C88.4579 106.8 88.243 106.917 88.0146 107.001L87.99 106.882Z" fill="white"/>
<path d="M6.25167 33.3083C6.62091 33.421 7.34503 33.6321 8.05889 33.8718C8.65473 34.0558 9.23845 34.2768 9.80663 34.5337C10.422 34.8329 11.0087 35.2202 11.6097 35.5583C11.8777 35.7259 12.1598 35.8699 12.4528 35.9886C12.7416 36.0853 12.9897 36.2755 13.158 36.529C13.3264 36.7825 13.4052 37.0848 13.3821 37.3881C13.3736 37.5689 13.2993 37.7403 13.1731 37.8701C13.0469 38 12.8776 38.0792 12.697 38.093C12.0508 38.1873 11.5236 37.9455 10.9902 37.5951C10.3913 37.2037 9.73073 36.9066 9.09687 36.5705C8.79327 36.4066 8.49788 36.2242 8.18403 36.0828C7.85367 35.9284 7.51049 35.8029 7.15836 35.7079C6.6004 35.5644 6.03218 35.4579 5.46601 35.3554C5.24344 35.3229 5.03881 35.215 4.88643 35.0498C4.73404 34.8845 4.64318 34.6719 4.62907 34.4476C4.61881 33.7018 5.08652 33.2673 6.25167 33.3083Z" fill="white"/>
<path d="M10.3748 23.4326C10.9512 23.6826 11.6056 23.8834 12.182 24.2318C13.075 24.7811 13.9315 25.3876 14.7462 26.0473C15.531 26.6977 16.2756 27.395 16.976 28.1354C17.3862 28.5595 16.9042 29.4898 16.297 29.5903C15.6262 29.7009 15.22 29.2583 14.7831 28.9058C13.8846 28.1805 13.062 27.3547 12.1164 26.6989C11.462 26.244 10.8281 25.701 9.95633 25.5822C9.70732 25.5507 9.4769 25.4341 9.30415 25.2522C9.13141 25.0703 9.02699 24.8343 9.00862 24.5842C8.99221 24.2974 9.23016 23.9347 9.45786 23.7195C9.64453 23.5474 9.9871 23.5433 10.3748 23.4326Z" fill="white"/>
<path d="M22.5107 22.3937C22.2522 22.2421 21.9363 22.1417 21.7435 21.9306C20.6768 20.7647 19.6388 19.5659 18.5865 18.3938C18.0839 17.8364 17.5383 17.318 17.0172 16.775C16.6562 16.398 16.7137 15.5312 17.1157 15.1357C17.3598 14.8959 18.0942 14.9615 18.4224 15.2955C19.4727 16.3611 20.5141 17.4355 21.5466 18.5188C22.162 19.1766 22.7917 19.8405 23.36 20.5454C23.5466 20.7749 23.7189 21.197 23.6307 21.4327C23.3128 22.2872 23.2348 22.2974 22.5107 22.3937Z" fill="white"/>
<path d="M82.142 7.45063C81.9122 7.94037 81.6866 8.43421 81.4527 8.9219C81.3358 9.16575 81.2168 9.40755 81.0835 9.6391C80.6855 10.3379 80.2342 11.01 79.8896 11.7333C79.545 12.4567 78.985 13.0079 78.8311 13.8296C78.7368 14.3398 77.8547 14.6308 77.3644 14.1759C76.7121 13.5734 76.7326 13.3009 77.0547 12.5079C77.5142 11.3768 78.3429 10.4833 78.8844 9.41369C79.1368 8.91371 79.3296 8.38913 79.5778 7.88505C79.8506 7.34203 80.1296 6.79901 80.6896 6.47115C80.8141 6.38746 80.9584 6.3381 81.1081 6.32808C81.2578 6.31805 81.4075 6.34772 81.542 6.41407C81.6765 6.48042 81.7911 6.5811 81.8741 6.70591C81.9571 6.83073 82.0057 6.97524 82.0148 7.12482C82.025 7.21908 82.0291 7.31334 82.0353 7.4076L82.142 7.45063Z" fill="white"/>
<path d="M102.304 88.4371C101.803 88.2322 101.299 88.0273 100.802 87.8039C100.306 87.5805 99.84 87.3613 99.3662 87.1338C98.8246 86.8756 98.2892 86.6011 97.7394 86.3552C97.3497 86.183 96.9189 86.0806 96.5517 85.8839C96.2563 85.7302 95.8666 85.5294 95.7784 85.2691C95.643 84.8593 95.5158 84.3491 96.0081 83.9905C96.2543 83.8101 97.2389 83.7856 97.5282 83.9331C97.8851 84.1278 98.2748 84.261 98.6461 84.4249C98.9251 84.5478 99.202 84.6708 99.4667 84.8019C100.29 85.1586 101.096 85.5566 101.879 85.9945C102.238 86.2117 102.576 86.1994 102.935 86.2609C103.294 86.3224 103.594 86.5273 103.614 86.9494C103.635 87.4187 103.756 87.9473 103.184 88.1932C102.917 88.2779 102.642 88.3342 102.363 88.3613L102.304 88.4371Z" fill="white"/>
<path d="M38.0649 110.761C37.8967 110.435 37.7552 110.185 37.6424 109.923C37.5762 109.782 37.5438 109.628 37.548 109.472C37.6321 108.472 37.7326 107.474 37.829 106.441L38.7214 106.747C38.6294 107.007 38.5608 107.274 38.5162 107.546C38.4588 108.284 38.3275 109.042 38.4465 109.755C38.5142 110.15 38.988 110.511 39.345 110.808C39.616 110.986 39.9203 111.106 40.2394 111.163C40.3016 111.162 40.3627 111.145 40.4168 111.114C40.4709 111.083 40.5164 111.039 40.5491 110.986C40.7809 110.419 40.9758 109.833 41.2035 109.263C41.3881 108.794 41.6137 108.339 41.8189 107.864L42.5533 108.273L39.7942 115.677C39.3286 115.513 38.8157 115.333 38.3008 115.156C37.9706 115.044 37.6362 114.941 37.308 114.828C36.6659 114.607 36.2823 114.14 35.95 113.562C35.7575 113.282 35.6697 112.943 35.7018 112.605C35.7668 112.141 35.9874 111.713 36.3276 111.39C36.6677 111.067 37.1074 110.869 37.5747 110.829C37.6854 110.81 37.8167 110.796 38.0649 110.761ZM40.266 111.855C40.0465 111.775 39.8824 111.724 39.7265 111.65C39.3675 111.497 39.025 111.273 38.6496 111.193C38.3372 111.118 38.0091 111.141 37.7105 111.26C37.4118 111.378 37.1573 111.586 36.9818 111.855C36.7254 112.265 36.3521 112.771 36.8054 113.464C37.2157 114.097 37.6731 114.437 38.3685 114.558C38.4614 114.565 38.5523 114.588 38.6373 114.626C39.1029 114.913 39.2055 114.855 39.3634 114.341C39.505 113.882 39.7265 113.447 39.8947 112.995C40.0322 112.626 40.147 112.245 40.266 111.855Z" fill="white"/>
<path d="M3.45529 55.9844C4.32505 56.1155 5.19071 56.259 6.06253 56.3676C6.51891 56.4175 6.97782 56.4407 7.43692 56.4372C7.91693 56.4372 8.34566 56.5909 8.58977 56.9987C8.73131 57.2364 8.84003 57.6134 8.75387 57.8388C8.64515 58.1318 8.49951 58.5314 8.01334 58.513C7.28512 58.4843 6.51382 58.6482 5.83688 58.4597C4.36198 58.0499 2.89322 58.2548 1.42242 58.2753C0.626504 58.2917 0.242905 57.8245 0.378293 57.1237C0.406564 56.9936 0.460253 56.8703 0.536285 56.761C0.612317 56.6516 0.709199 56.5583 0.82138 56.4864C1.35644 56.1806 1.97076 56.0415 2.58552 56.0868C2.87048 56.1012 3.15597 56.1012 3.44093 56.0868L3.45529 55.9844Z" fill="white"/>
<path d="M71.9531 106.772C72.2459 106.482 72.5548 106.208 72.8783 105.952C73.5532 105.473 74.187 104.903 75.067 104.809C75.2045 104.795 75.3358 104.719 75.4773 104.69C75.7666 104.631 76.0927 104.485 76.343 104.551C77.0281 104.756 77.7461 104.87 78.3287 105.37C78.8666 105.837 79.2987 106.413 79.5964 107.059C79.9328 107.741 80.1708 108.415 80.1133 109.186C80.0886 109.676 79.9638 110.155 79.7465 110.595C79.5291 111.035 79.2239 111.426 78.8497 111.743C78.2736 112.205 77.6555 112.612 77.0035 112.958C76.7266 113.114 76.3696 113.128 75.9778 113.223L75.6496 112.542C75.7023 112.51 75.7598 112.487 75.8199 112.473C76.6117 112.473 77.1656 111.958 77.822 111.643C78.6241 111.26 78.903 110.536 79.1718 109.879C79.3769 109.393 79.1718 108.725 79.0795 108.149C79.0242 107.832 78.8918 107.533 78.6938 107.278C78.2692 106.737 77.8733 106.122 77.3092 105.758C77.0193 105.558 76.6885 105.425 76.3408 105.368C75.993 105.312 75.6371 105.334 75.2988 105.432C74.544 105.688 73.7501 105.95 73.227 106.622C73.1798 106.692 73.1488 106.772 73.1364 106.855C73.1239 106.938 73.1304 107.023 73.1552 107.104C73.3829 107.575 73.7214 108 73.9019 108.483C74.1316 109.098 74.3983 109.233 74.905 108.782C75.0146 108.679 75.1477 108.605 75.2927 108.565C75.4588 108.526 75.703 108.475 75.7953 108.565C75.9204 108.684 76.0004 108.899 75.6989 109.053C75.2004 109.315 74.747 109.667 74.2629 109.938C73.9245 110.129 73.6721 109.879 73.5244 109.631C73.1839 109.055 72.909 108.446 72.5829 107.856C72.3819 107.493 72.1747 107.153 71.9531 106.772Z" fill="white"/>
<path d="M90.418 92.1894C90.4734 91.6976 90.6231 91.3246 91.0457 91.1525C91.2674 91.0756 91.508 91.0717 91.7321 91.1414C91.9562 91.2111 92.152 91.3507 92.2908 91.5398C92.6703 92.0357 93.0068 92.5644 93.4232 93.0295C93.975 93.6442 94.5986 94.1955 95.1668 94.7959C95.735 95.3962 96.2745 95.9987 96.7976 96.6257C97.0315 96.9085 96.5925 97.6749 96.1822 97.7773C95.935 97.8482 95.6728 97.8473 95.4261 97.7747C95.1795 97.7021 94.9586 97.5609 94.7893 97.3675C94.3893 96.9577 93.9155 96.6032 93.497 96.1995C93.0785 95.7958 92.6908 95.3799 92.3093 94.97C91.8568 94.4955 91.4328 93.9947 91.0395 93.4701C90.7964 93.0615 90.5884 92.6331 90.418 92.1894Z" fill="white"/>
<path d="M99.2658 71.9993C100.214 72.0874 101.178 72.0977 102.105 72.2821C103.221 72.5054 104.308 72.8702 105.403 73.1898C105.855 73.323 106.175 74.2472 105.963 74.7328C105.779 75.157 104.979 75.4131 104.546 75.2041C104.158 74.9797 103.745 74.8022 103.315 74.6754C102.505 74.5033 101.674 74.4214 100.854 74.3087C100.095 74.2041 99.3192 74.1693 98.5848 73.9746C98.2894 73.8968 98.0043 73.5136 97.8627 73.2021C97.6966 72.8312 97.9058 72.4603 98.2545 72.2575C98.5661 72.0989 98.8882 71.9619 99.2186 71.8477L99.2658 71.9993Z" fill="white"/>
<path d="M8.09005 67.9526C8.2357 68.2211 8.32595 68.3973 8.42647 68.5674C8.67058 68.9772 8.12903 69.719 7.5526 69.7579C5.82128 69.8788 4.08996 70.0018 2.35863 70.1165C2.04273 70.1391 1.72272 70.1165 1.40477 70.135C0.848856 70.1636 0.649877 69.7579 0.442692 69.3604C0.323715 69.1309 0.658082 68.4137 0.935012 68.3235C1.08501 68.2729 1.24075 68.2413 1.39861 68.2293C2.79147 68.135 4.18637 68.0612 5.57717 67.9485C6.03462 67.9117 6.48591 67.7129 6.94131 67.7129C7.35567 67.7129 7.77004 67.8809 8.09005 67.9526Z" fill="white"/>
<path d="M67.1478 116.547L62.3867 109.553C63.2072 109.244 63.5006 109.404 63.9478 110.229C64.1344 110.641 64.3781 111.024 64.6719 111.367C64.8114 111.506 65.2093 111.397 65.4924 111.379C65.5704 111.379 65.636 111.256 65.716 111.238C66.2473 111.117 66.7786 111.006 67.312 110.893C67.6402 110.824 67.8945 110.156 67.8843 109.744C67.8703 109.17 67.9289 108.598 68.0586 108.039C68.0853 107.92 68.5263 107.895 68.7766 107.834L68.8915 107.967C68.8238 108.154 68.7479 108.338 68.6863 108.529C68.6428 108.661 68.6172 108.799 68.6104 108.938C68.5858 110.078 68.5981 111.219 68.5407 112.358C68.4771 113.588 68.3581 114.799 68.235 116.016C68.2227 116.137 68.0299 116.272 67.8863 116.336C67.6455 116.424 67.3987 116.494 67.1478 116.547ZM67.673 111.51C67.5838 111.484 67.4909 111.473 67.3981 111.477C66.713 111.682 66.0299 111.887 65.3468 112.113C65.3136 112.216 65.3202 112.329 65.3652 112.428C65.6073 112.838 65.863 113.248 66.1324 113.658C66.5037 114.201 66.8873 114.735 67.275 115.266C67.3469 115.337 67.4301 115.396 67.5212 115.44C67.5805 115.341 67.6235 115.232 67.6484 115.119C67.6648 114.518 67.6648 113.918 67.6668 113.317C67.6689 112.717 67.673 112.113 67.673 111.504V111.51Z" fill="white"/>
<path d="M5.68385 44.326C6.63772 44.4162 7.59159 44.4899 8.54341 44.6006C9.05113 44.6577 9.55424 44.7501 10.0491 44.8772C10.2542 44.9305 10.5476 45.0944 10.5783 45.2501C10.6819 45.6611 10.6819 46.0912 10.5783 46.5022C10.4614 46.8341 10.0532 46.9735 9.63266 46.9222C8.64187 46.8013 7.64493 46.7173 6.65208 46.6046C6.19464 46.5493 5.74334 46.3997 5.28795 46.3997C4.99871 46.3997 4.70742 46.6046 4.41203 46.6231C3.5915 46.6599 3.16892 45.7317 3.45816 45.0411C3.5897 44.8269 3.79925 44.6719 4.04279 44.6088C4.57614 44.4448 5.12999 44.3485 5.68385 44.2256V44.326Z" fill="white"/>
<path d="M24.5596 106.884C25.054 106.289 25.5258 105.732 25.9955 105.164C26.3545 104.726 26.2971 104.527 25.8458 104.201C25.3452 103.845 24.9001 103.406 24.3914 103.064C24.0016 102.804 24.0078 102.548 24.2806 102.136L26.7832 104.185C27.2099 103.656 27.6448 103.105 28.0899 102.562C28.2356 102.388 28.4633 102.259 28.5453 102.064C28.6274 101.869 28.6233 101.57 28.5145 101.47C27.9833 100.98 27.4048 100.538 26.8386 100.087C26.7217 99.9945 26.5576 99.9576 26.455 99.8552C26.3344 99.7473 26.2517 99.6037 26.2191 99.4453C26.2068 99.3203 26.3073 99.0949 26.4017 99.0683C26.5572 99.0597 26.7098 99.1127 26.8263 99.2158C27.774 99.9699 28.7115 100.74 29.6551 101.499C29.8602 101.667 29.9095 101.8 29.7187 102.029C28.9494 102.953 28.2027 103.898 27.4397 104.828C27.1258 105.21 26.7935 105.574 26.4714 105.945C25.9935 106.496 25.4847 107.027 25.0499 107.609C24.8057 107.935 24.6663 107.845 24.4221 107.646C23.5811 106.968 22.7113 106.322 21.8846 105.623C21.7164 105.48 21.6918 105.167 21.6016 104.933L21.7944 104.769C22.0363 104.881 22.2688 105.013 22.4898 105.162C23.1811 105.726 23.8601 106.302 24.5596 106.884Z" fill="white"/>
<path d="M46.0741 113.796V113.269C46.8946 113.388 47.7152 113.152 48.4988 113.523C49.0547 113.787 49.3193 113.595 49.4034 112.986C49.4875 112.378 49.6352 111.82 49.707 111.232C49.7829 110.599 49.5388 110.335 48.8988 110.253C48.0782 110.148 47.2454 110.033 46.3654 109.917C46.3654 109.751 46.351 109.589 46.3387 109.343C47.8062 109.42 49.2645 109.621 50.6978 109.945C50.6506 110.56 50.6424 111.058 50.5665 111.55C50.4229 112.482 50.2383 113.41 50.0701 114.339C50.0496 114.447 50.0147 114.543 50.0024 114.662C49.8711 115.699 49.7439 116.734 49.6065 117.832C49.1654 117.793 48.7244 117.978 48.3059 117.65C48.187 117.558 47.9736 117.586 47.8013 117.562C47.0916 117.459 46.3777 117.357 45.67 117.244C45.6144 117.219 45.5663 117.179 45.5304 117.13C45.4945 117.08 45.4719 117.022 45.4648 116.961C45.4833 116.847 45.6372 116.664 45.7172 116.67C46.1787 116.713 46.6321 116.822 47.0915 116.875C47.5941 116.933 48.0988 116.963 48.6034 116.992C48.6411 116.987 48.6771 116.974 48.7085 116.952C48.7398 116.931 48.7657 116.903 48.7839 116.869C49.0808 116.093 49.1781 115.254 49.067 114.431C49.0547 114.33 48.8106 114.211 48.6567 114.185C47.8095 114.048 46.9582 113.929 46.0741 113.796Z" fill="white"/>
<path d="M58.1985 117.777C58.1985 116.914 58.3031 116.016 58.1739 115.154C57.9687 113.748 57.9687 112.342 57.9339 110.933C57.9339 110.613 57.7287 110.523 57.4641 110.537C56.7523 110.558 56.0384 110.584 55.3266 110.609C55.1523 110.609 54.9779 110.629 54.8035 110.623C54.3256 110.611 54.2907 110.562 54.3768 109.976C54.8835 109.976 55.4025 109.976 55.9215 109.976C56.7318 109.965 57.54 109.959 58.3482 109.933C58.6744 109.933 58.781 110.041 58.7852 110.373C58.8016 111.64 58.8303 112.906 58.8877 114.17C58.9328 115.176 59.0436 116.18 59.0929 117.187C59.1257 117.916 59.0518 117.957 58.1985 117.777Z" fill="white"/>
<path d="M33.6819 104.234L34.4225 104.644C33.0665 106.984 31.7106 109.326 30.3383 111.691L29.6367 111.146L33.6819 104.234Z" fill="white"/>
<path d="M31.4586 43.0273C31.4586 42.1401 31.4176 41.2507 31.4709 40.3635C31.5246 39.3736 31.6307 38.3873 31.7889 37.4086C31.9099 36.6187 32.1077 35.8425 32.3797 35.0911C32.6689 34.3267 33.1407 33.6321 33.4648 32.878C33.8042 32.13 34.2431 31.4311 34.7695 30.8002C35.4911 29.8903 36.3442 29.0926 37.3008 28.4334C38.0639 27.9068 38.8496 27.4089 39.6598 26.9581C40.1945 26.7026 40.7423 26.4755 41.3009 26.2777C41.986 25.9929 42.6548 25.663 43.3522 25.4171C43.8054 25.2797 44.2664 25.1696 44.7328 25.0872L47.0405 24.5544C47.1011 24.5369 47.1628 24.5232 47.2251 24.5134C48.4436 24.3844 49.6744 24.327 50.8786 24.1036C52.2602 23.8744 53.6629 23.7988 55.0612 23.8782C56.1734 23.9243 57.2826 24.0269 58.3844 24.1856C59.41 24.3352 60.4357 24.5749 61.4614 24.8126C62.1483 24.967 62.8246 25.1655 63.486 25.4069C64.124 25.6446 64.7168 25.9806 65.3466 26.2614C66.0584 26.581 66.7989 26.8454 67.482 27.2142C68.1152 27.5662 68.7195 27.9678 69.2892 28.415C70.0318 28.9805 70.758 29.5727 71.4452 30.2039C72.2091 30.9097 72.8043 31.7781 73.1868 32.7448C73.515 33.5644 73.9294 34.3493 74.2719 35.1648C74.4422 35.5746 74.5304 36.0193 74.6658 36.4435C74.836 36.9803 75.0166 37.5111 75.1909 38.0459C75.2116 38.1053 75.2233 38.1675 75.2258 38.2303C75.3284 40.009 75.474 41.7856 75.513 43.558C75.5294 44.3613 75.3181 45.1687 75.2484 45.9781C75.1949 46.451 75.2011 46.9288 75.2668 47.4002C75.3814 47.9023 75.5385 48.3939 75.7366 48.8694C75.8658 49.23 76.0586 49.5681 76.1674 49.9329C76.3725 50.5989 76.5776 50.646 77.2197 50.4493C77.7346 50.2935 78.3192 50.3816 78.8608 50.3161C79.671 50.2177 80.3664 50.5968 80.9408 51.0087C81.4926 51.4206 81.8748 52.0195 82.0157 52.6931C82.1531 53.3078 82.3275 53.8959 82.2372 54.5004C82.106 55.3713 81.8824 56.2299 81.6875 57.0905C81.5788 57.5679 81.4598 58.0454 81.3224 58.5146C81.1603 59.0617 80.9757 59.6027 80.8013 60.1539C80.7863 60.1988 80.7747 60.2447 80.7664 60.2912C80.6659 61.0187 80.4834 61.7482 80.4834 62.4756C80.4841 62.9299 80.3927 63.3797 80.2147 63.7977C80.0366 64.2157 79.7756 64.5934 79.4474 64.9079C79.3838 64.9755 79.2956 65.035 79.269 65.1128C78.9315 66.1279 78.8332 67.2072 78.9818 68.2664C79.0414 68.7564 79.1312 69.2423 79.2505 69.7213C79.3962 70.2787 79.6013 70.8196 79.7695 71.3729C79.8844 71.752 79.9972 72.1331 80.0813 72.5204C80.2146 73.1352 80.2372 73.7847 80.4628 74.3646C80.9572 75.6126 80.7623 76.8892 80.7111 78.1494C80.6844 78.8235 80.3808 79.4875 80.2003 80.1555C80.1798 80.2313 80.149 80.303 80.1346 80.3809C80.0198 80.9956 79.9767 81.6104 79.7777 82.1985C79.2874 83.6329 79.5192 85.0877 79.5972 86.5201C79.6321 87.1553 79.8495 87.8213 79.7613 88.4647C79.665 89.3139 79.4666 90.1485 79.1705 90.9503C78.7602 91.9564 77.4966 92.5322 76.4669 92.2433C75.9032 92.064 75.4005 91.732 75.0145 91.2843C74.5407 90.77 74.2842 90.1573 74.0401 89.5036C73.4945 88.0282 73.7735 86.5365 73.8206 85.0529C73.837 84.5795 74.1365 84.1205 74.276 83.6451C74.434 83.1103 74.5017 82.5448 74.7089 82.0325C75.0145 81.2784 74.9776 80.5059 74.9878 79.7293C75.0022 78.4998 74.6535 77.3072 74.473 76.0982C74.3294 75.1536 74.2124 74.1515 74.5981 73.2007C74.6468 73.084 74.6698 72.9583 74.6658 72.8319C74.6124 71.711 75.152 70.7274 75.3796 69.6721C75.5316 69.0787 75.7193 68.495 75.9417 67.9242C76.1981 67.1845 76.4771 66.455 76.7274 65.7132C76.7787 65.568 76.7713 65.4085 76.7069 65.2686C76.4689 64.8874 76.1879 64.535 75.9273 64.1682C75.7345 63.8956 75.4678 63.8752 75.2545 64.1231C74.8258 64.621 74.4524 65.1886 73.9519 65.6005C73.5724 65.912 73.2401 66.3095 72.6986 66.455C71.878 66.6702 71.6729 67.1169 71.5806 67.9632C71.4719 68.9222 71.2442 69.8689 71.0657 70.8217C71.0657 70.8524 71.0472 70.8832 71.0411 70.9139C70.9139 71.6803 70.8093 72.4508 70.6554 73.211C70.5118 73.9282 70.3149 74.6331 70.1426 75.3421C70.1241 75.4199 70.1118 75.4978 70.0975 75.5757C70.0031 76.0777 69.8923 76.5798 69.8164 77.0838C69.6852 77.9035 69.6113 78.7231 69.4267 79.5325C69.289 80.1623 69.0676 80.7709 68.7682 81.3419C68.0584 82.6554 66.9528 83.6533 65.9476 84.7353C65.0542 85.7217 64.2159 86.7568 63.4368 87.8356C63.1209 88.2639 62.9753 88.8192 62.7476 89.3151C62.4706 89.9298 62.1814 90.522 61.9147 91.1327C61.6768 91.6736 61.4921 92.2433 61.2234 92.772C60.9362 93.3334 60.5875 93.8642 60.247 94.399C59.693 95.2587 58.9998 96.0205 58.1956 96.653C57.8059 96.9624 57.3402 97.0628 56.8705 97.2001C55.6212 97.5915 54.3576 97.4665 53.1063 97.4173C52.3104 97.3886 51.5206 97.0997 50.735 96.9071C50.4293 96.8313 50.1442 96.6858 49.8426 96.5915C48.3718 96.1325 47.3216 95.0936 46.3554 93.9768C45.7748 93.3068 45.3133 92.5425 44.8005 91.8048C44.3205 91.1245 43.8199 90.4544 43.3645 89.7556C42.9091 89.0569 42.544 88.3458 42.1173 87.6594C41.5327 86.7332 40.8722 85.8521 40.3245 84.9054C39.8362 84.0611 39.4465 83.1575 39.028 82.2743C38.7367 81.6595 38.4475 81.0448 38.2075 80.4198C38.0495 80.0223 37.9675 79.6002 37.8403 79.1903C37.67 78.6432 37.4895 78.1002 37.3111 77.551C37.2896 77.5086 37.2711 77.4648 37.2557 77.4199C37.1387 76.8052 37.0505 76.1699 36.9028 75.5531C36.7551 74.9364 36.5521 74.2929 36.3736 73.6638C36.3648 73.6336 36.358 73.6028 36.3531 73.5716C36.2321 72.8298 36.1295 72.084 35.9859 71.3463C35.8218 70.5 35.6167 69.6598 35.4341 68.8156C35.4132 68.7069 35.4035 68.5964 35.4054 68.4857C35.3678 67.1966 35.1841 65.9159 34.8577 64.6682C34.7572 64.246 34.8207 63.787 34.8125 63.3424C34.8002 62.8158 34.1971 62.0023 33.7069 61.8854C33.5017 61.8383 33.2863 61.8117 33.1899 62.1313C33.0351 62.5644 32.715 62.9187 32.2997 63.117C31.914 63.3321 31.635 63.6006 31.6699 64.1129C31.715 64.7583 31.633 65.4202 31.7294 66.0575C31.8258 66.6948 32.0822 67.3648 32.2607 68.0185C32.3838 68.4775 32.4802 68.9447 32.6135 69.4016C32.7468 69.8586 32.9151 70.3279 33.071 70.7889C33.1056 70.8596 33.1364 70.9321 33.1633 71.0061C33.3007 71.6106 33.3848 72.2356 33.5735 72.8216C34.4289 75.4117 34.113 78.0777 34.0802 80.719C34.0802 81.471 33.7602 82.221 33.5858 82.973C33.5858 83.0038 33.5715 83.0345 33.5674 83.0652C33.4381 83.9505 33.3971 84.8603 33.1571 85.7127C32.9786 86.3418 33.0402 87.0283 32.6566 87.6143C32.4802 87.8827 32.4392 88.2393 32.3202 88.5508C31.9612 89.4913 31.6248 89.688 30.6976 89.602C29.6001 89.5036 29.1447 88.7024 28.7037 87.8889C28.1662 86.893 28.0247 85.809 28.0288 84.6841C28.0288 84.1984 27.7252 83.6759 27.8237 83.2312C28.1108 81.9874 28.0062 80.7292 28.1088 79.4813C28.1908 78.4567 28.3139 77.4465 28.4206 76.4302C28.5006 75.6105 28.6627 74.8011 28.6134 73.9978C28.5683 73.2684 28.2749 72.5635 28.1108 71.834C27.965 71.2869 27.858 70.7302 27.7908 70.168C27.7246 69.4864 27.7287 68.7997 27.8031 68.1189C27.879 67.5165 28.1149 66.9325 28.2914 66.3444C28.4103 65.9591 28.5375 65.5759 28.6811 65.1989C28.8534 64.746 29.0914 64.3137 29.2165 63.8526C29.2969 63.6321 29.3299 63.3972 29.3132 63.1631C29.2966 62.929 29.2308 62.701 29.1201 62.494C28.7919 61.9059 28.5991 61.242 28.3488 60.6109C28.1744 60.1744 28.0001 59.7359 27.8319 59.2974C27.7399 58.9956 27.6289 58.7 27.4995 58.4122C27.1159 57.7052 26.6277 57.0475 26.3159 56.3139C26.0041 55.5803 25.6103 54.9369 25.5775 54.1008C25.5323 52.9185 25.6923 51.7996 26.3118 50.8017C26.517 50.4657 26.9724 50.2689 27.3375 50.0353C27.9529 49.6255 28.677 49.7157 29.3724 49.7218C30.1683 49.7218 30.2032 49.7075 30.5171 48.9882C30.7294 48.5912 30.9151 48.1804 31.073 47.7588C31.2609 47.1519 31.384 46.5268 31.4402 45.8941C31.4996 44.9474 31.4566 43.9945 31.4566 43.0437L31.4586 43.0273ZM70.6554 67.5718C69.9846 68.0595 69.4534 68.4857 68.8831 68.8525C68.1151 69.3518 67.4908 70.0425 67.0718 70.8565C66.7641 71.4323 66.6266 72.086 66.364 72.7007C66.1828 73.0482 65.9772 73.3823 65.7486 73.7007L65.5948 73.6597C65.5547 73.4571 65.5321 73.2515 65.5271 73.045C65.5835 72.3659 65.794 71.7086 66.1425 71.1229C66.4827 70.4609 66.8793 69.8295 67.3282 69.2357C67.7179 68.7582 68.2615 68.416 68.7374 68.0062C68.8442 67.9037 68.9594 67.8104 69.0821 67.7275C69.4923 67.4816 69.9272 67.2501 70.3518 67.0124C71.0329 66.6312 71.7201 66.2542 72.4032 65.8649C72.6799 65.7228 72.9325 65.5381 73.1519 65.3177C74.075 64.2645 74.9796 63.1962 75.8658 62.1129C76.1182 61.7783 76.329 61.4143 76.4935 61.0289C76.7232 60.5988 76.8982 60.1417 77.0146 59.6683C77.2714 58.3949 77.2644 57.0824 76.994 55.8118C76.871 55.277 76.6638 54.7586 76.5263 54.2258C76.3889 53.693 76.3212 53.1418 76.1694 52.6111C76.0176 52.0804 75.8125 51.5701 75.6422 51.0476C75.4063 50.3181 75.2319 49.5599 74.9325 48.8632C74.6022 48.1215 74.5755 47.3325 74.4422 46.5682C74.3683 46.1584 74.6207 45.6932 74.6473 45.2506C74.7259 44.3314 74.7492 43.4083 74.7171 42.4864C74.6371 41.1606 74.8299 39.8225 74.4196 38.509C74.2247 37.8943 74.2268 37.2037 74.0094 36.591C73.6996 35.6894 73.2811 34.8226 72.9057 33.9415C72.5361 32.9805 72.0206 32.0821 71.3775 31.2776C70.48 30.2736 69.4584 29.3874 68.3374 28.6404C67.9046 28.3351 67.4574 28.0482 66.9979 27.788C66.4298 27.4513 65.8421 27.1489 65.2379 26.8822C64.5753 26.6036 63.8778 26.4089 63.1865 26.1794C62.366 25.9028 61.5455 25.5954 60.7106 25.3597C60.1957 25.2163 59.6541 25.2347 59.1146 25.0831C58.1865 24.8582 57.2348 24.7447 56.2797 24.745C54.6797 24.6897 53.0755 24.7143 51.4734 24.7184C51.0456 24.7158 50.6183 24.7473 50.1955 24.8126C49.2888 24.9622 48.3944 25.1671 47.4877 25.3106C47.018 25.3843 46.5544 25.4274 46.0805 25.5483C45.2477 25.7532 44.3964 25.9028 43.582 26.1978C42.6466 26.5359 41.6824 26.8126 40.7717 27.1978C39.9667 27.5351 39.1988 27.9547 38.4803 28.4498C37.6877 29.0472 36.9302 29.6896 36.2115 30.374C35.0218 31.4375 34.2484 32.794 33.5612 34.2058C33.4172 34.4935 33.2965 34.7923 33.2002 35.0992C33.0648 35.5439 32.9684 35.9988 32.8515 36.4496C32.673 37.1484 32.3899 37.8389 32.3345 38.5479C32.2443 39.7303 32.2997 40.9229 32.2853 42.1114C32.2853 42.4945 32.5048 42.5376 32.7284 42.3532C33.0543 42.1035 33.3364 41.8016 33.5633 41.4597C33.83 41.0274 33.9202 40.4741 34.2218 40.0766C34.8355 39.2073 35.6915 38.5375 36.6834 38.1504C37.0752 38.007 37.4752 37.8861 37.8772 37.7693C38.4926 37.591 39.108 37.343 39.7234 37.2754C40.5542 37.1873 41.4014 37.2529 42.2425 37.2365C42.7943 37.2262 43.2476 37.4742 43.7071 37.7303C44.3225 38.0746 44.9379 38.4516 45.5738 38.7405C46.4269 39.123 47.1039 39.8131 47.4692 40.6729C47.7512 41.305 48.1794 41.8612 48.7185 42.2958C48.8785 42.4372 49.059 42.4761 49.0857 42.2118C49.1217 41.9285 49.1015 41.6409 49.0262 41.3655C48.7841 40.5991 48.4703 39.8553 48.2303 39.0889C47.9912 38.2776 47.6887 37.4862 47.3257 36.7222C46.94 35.9414 46.3246 35.4517 45.6148 35.0378C45.2046 34.798 44.743 34.6279 44.3307 34.38C43.305 33.7653 42.3676 32.9886 41.0978 32.9251C41.0178 32.9251 40.8927 32.7776 40.8927 32.6895C40.8927 32.6014 40.9829 32.3985 41.0342 32.3985C41.5368 32.3985 42.0599 32.3473 42.5337 32.4866C43.0609 32.6464 43.5368 32.9804 44.0271 33.255C44.7369 33.6526 45.4302 34.0747 46.1441 34.4702C47.2149 35.0542 47.8446 36.0357 48.3821 37.0541C48.766 37.8358 49.0804 38.6497 49.3216 39.4864C49.5678 40.2467 49.7442 41.0294 49.9185 41.8101C50.1852 42.9884 50.2857 44.1953 50.5339 45.3838C50.7391 46.4289 50.7227 47.5313 50.8211 48.6071C51.0529 51.0845 50.8211 53.5844 51.0939 56.0803C51.2519 57.5352 51.3893 59.0577 50.8888 60.5228C50.7821 60.8342 50.6693 60.9326 50.3432 60.8486C50.3329 60.6437 50.3124 60.4572 50.3124 60.2687C50.3124 59.2544 50.3596 58.24 50.3267 57.2278C50.2467 54.8139 50.4539 52.4 50.097 49.9821C49.8919 48.5292 49.9739 47.0334 49.7708 45.56C49.6724 44.8408 49.6026 44.2138 49.098 43.6421C48.3575 42.806 48.1975 42.722 47.338 42.9413C46.9277 43.0478 46.899 43.2937 46.9605 43.6072C46.9872 43.7363 47.141 43.847 47.1492 43.9699C47.1677 44.2486 47.2395 44.6707 47.0959 44.7896C46.78 45.0334 46.5851 44.6297 46.4046 44.4289C46.3205 44.3326 46.3595 44.1257 46.3431 43.9699C46.3357 43.8502 46.2985 43.7343 46.2347 43.6327C46.1709 43.5311 46.0826 43.4471 45.9779 43.3884C45.8732 43.3296 45.7555 43.2981 45.6354 43.2966C45.5154 43.2951 45.3969 43.3237 45.2907 43.3798C45.0854 43.4765 44.8681 43.5454 44.6446 43.5847C44.3635 43.6339 44.2035 43.7343 44.2733 44.0519C44.3619 44.4063 44.4304 44.7655 44.4784 45.1277C44.501 45.3326 44.5707 45.6973 44.2138 45.6584C44.0087 45.6359 43.8302 45.3736 43.6702 45.1933C43.6127 45.1256 43.6333 44.9781 43.6374 44.8695C43.6825 43.6707 43.4466 43.8675 42.6117 43.8777C41.1306 43.8941 41.1245 43.8921 41.1224 45.3551C41.1224 45.726 41.0794 46.0457 40.6978 46.2014C40.0824 46.0191 40.2773 45.5088 40.2691 45.101C40.2404 43.6871 40.3942 43.9371 39.0793 43.9125C38.5295 43.9002 38.2588 44.1175 38.0865 44.6461C37.8813 45.2609 37.6639 45.4494 37.1326 45.308C37.268 44.7547 37.4054 44.2056 37.5244 43.722C37.2557 43.5806 37.0546 43.4843 36.8659 43.3716C36.5582 43.1872 35.7787 43.2937 35.5797 43.5929C35.3479 43.9453 35.1695 44.3265 34.9643 44.6912C34.4577 44.4535 34.431 44.3265 34.6238 43.8716C34.7273 43.6089 34.7929 43.333 34.8187 43.0519C34.872 42.6175 34.5007 42.6769 34.2464 42.5929C34.1561 42.5622 34.0884 42.4597 34.0002 42.388C33.6761 42.5929 33.3643 42.7978 33.071 43.0027C32.8125 43.1913 32.4556 43.3634 32.3591 43.6175C32.232 43.931 32.3202 44.3326 32.3161 44.6974C32.3161 45.015 32.3161 45.3305 32.3038 45.6482C32.305 45.7579 32.2926 45.8673 32.2668 45.974C32.0781 46.644 31.8894 47.3141 31.6884 47.9801C31.5817 48.3305 31.5325 48.7382 31.3171 49.0046C30.7694 49.689 30.6873 50.5292 30.5642 51.3058C30.3078 52.9 30.5273 54.5065 30.8206 56.0926C30.8248 56.124 30.8323 56.155 30.8432 56.1848C31.1181 56.8241 31.354 57.4839 31.6822 58.0946C32.0045 58.6914 32.3772 59.2597 32.7961 59.7933C33.5735 60.7871 34.5746 61.535 35.5674 62.3096C36.7018 63.1833 37.6673 64.2561 38.4167 65.4755C38.9603 66.3689 39.3891 67.3402 40.0045 68.1804C40.5029 68.8607 40.4681 69.6619 40.7655 70.377C40.8188 70.5061 40.6075 70.7418 40.5193 70.9283C40.3686 70.877 40.2293 70.7969 40.1091 70.6926C40.027 70.5518 39.9786 70.3941 39.9675 70.2316C39.9306 70 39.9675 69.7418 39.8834 69.5328C39.7333 69.2433 39.5675 68.9622 39.387 68.6906C38.9378 67.871 38.5665 66.9939 38.0352 66.2317C37.4629 65.3956 36.7531 64.6497 36.0946 63.8752C35.988 63.7848 35.8683 63.7109 35.7397 63.6559C35.6837 63.7771 35.651 63.9078 35.6433 64.0411C35.7213 64.576 35.8362 65.1046 35.9203 65.6374C36.0249 66.3034 36.1254 66.9693 36.1972 67.6394C36.2915 68.6209 36.1972 69.6086 36.5418 70.5799C36.7757 71.2397 36.7859 71.9815 36.8946 72.6864C36.8946 72.7028 36.8946 72.7171 36.8946 72.7335C37.0752 73.3811 37.2762 74.0224 37.4321 74.6761C37.6782 75.715 37.8936 76.7601 38.1234 77.8031C38.141 77.8633 38.1629 77.9222 38.189 77.9793C38.347 78.3891 38.5193 78.799 38.6629 79.2252C38.8065 79.6514 38.909 80.0674 39.0424 80.4854C39.1234 80.753 39.2249 81.014 39.346 81.2661C39.7111 81.9935 40.0906 82.7128 40.4722 83.43C40.8537 84.1472 41.186 84.8398 41.6045 85.5078C42.1153 86.3275 42.7081 87.0877 43.2456 87.893C43.783 88.6983 44.2712 89.5323 44.7779 90.3622C45.0384 90.7905 45.2641 91.2392 45.5369 91.6593C45.8662 92.1899 46.2251 92.7016 46.6118 93.192C47.0421 93.7582 47.5302 94.278 48.0682 94.7432C48.7924 95.319 49.5842 95.819 50.5298 96.0301C51.2047 96.1817 51.8611 96.485 52.5381 96.5321C53.8043 96.6113 55.074 96.6209 56.3413 96.5608C56.7868 96.5341 57.2148 96.3773 57.572 96.11C58.3475 95.5116 59.1023 94.8805 59.5741 93.9748C59.9208 93.317 60.368 92.7146 60.7147 92.0568C60.9711 91.5732 61.125 91.0322 61.3465 90.5323C61.6296 89.8765 61.927 89.2249 62.2327 88.5794C62.4207 88.1041 62.655 87.6484 62.9322 87.2188C63.4655 86.4914 64.0666 85.8111 64.6594 85.1308C65.2522 84.4505 65.8902 83.8009 66.481 83.1124C67.0247 82.526 67.5167 81.8939 67.9518 81.2231C68.2841 80.6596 68.4072 79.9752 68.6554 79.3563C68.9502 78.6004 69.1427 77.8086 69.2277 77.0019C69.318 76.2416 69.4718 75.4876 69.601 74.7314C69.601 74.7007 69.6318 74.6741 69.638 74.6433C69.8041 73.9036 70.0031 73.17 70.1262 72.4241C70.2698 71.5348 70.3477 70.6352 70.4565 69.7418C70.4713 69.665 70.4998 69.5914 70.5406 69.5246C70.8544 68.9242 70.7108 68.3033 70.6554 67.5718ZM78.3561 67.3997H78.3336C78.3336 66.9407 78.3336 66.4816 78.3336 66.0226C78.3336 65.8177 78.4525 65.5145 78.0607 65.4878C77.7428 65.4673 77.4946 65.5534 77.3982 65.8976C77.2771 66.3075 77.1643 66.7357 77.0412 67.1517C76.9263 67.5308 76.8094 67.9099 76.6781 68.2828C76.5243 68.7275 76.3356 69.1619 76.194 69.6086C76.0299 70.127 75.8966 70.6537 75.7591 71.1782C75.5848 71.8483 75.2873 72.5163 75.2791 73.1905C75.2627 74.5819 75.033 75.9855 75.4843 77.3728C75.6668 77.926 75.5786 78.5653 75.6279 79.1657C75.6443 79.3707 75.7735 79.6125 75.7202 79.7989C75.4453 80.7497 75.6914 81.7702 75.2648 82.7066C75.0596 83.1738 75.0371 83.7312 74.8976 84.2271C74.7437 84.7845 74.4873 85.3193 74.3889 85.8848C74.1837 87.0672 74.4135 88.2331 74.7007 89.3807C74.7876 89.6825 74.9388 89.9621 75.1437 90.2003C75.4642 90.5626 75.8068 90.9047 76.1694 91.2249C76.4915 91.5302 77.6484 91.5917 77.9397 91.2966C78.4964 90.768 78.8431 90.0563 78.9161 89.2925C78.9589 88.186 78.9452 87.0781 78.8751 85.9729C78.8587 85.4832 78.6351 84.9586 78.752 84.516C79.0331 83.4669 78.7377 82.3603 79.2054 81.3276C79.4454 80.7969 79.4536 80.1596 79.5705 79.5715C79.5828 79.5121 79.6238 79.4567 79.6382 79.3953C79.8146 78.6555 80.071 77.9199 80.1367 77.1699C80.1818 76.6269 79.9705 76.0613 79.8823 75.506C79.7551 74.7212 79.6362 73.9364 79.5151 73.1516C79.5151 73.1208 79.5008 73.0901 79.4926 73.0593L78.9325 71.086C78.9059 70.9959 78.8751 70.9057 78.8505 70.8135C78.6823 70.1619 78.471 69.5164 78.3643 68.8545C78.3229 68.3671 78.3201 67.8772 78.3561 67.3894V67.3997ZM30.835 64.6313C30.8183 64.4459 30.8183 64.2593 30.835 64.0739C30.8489 64.0051 30.8486 63.9343 30.8342 63.8656C30.8198 63.7969 30.7917 63.7319 30.7514 63.6744C30.7111 63.6169 30.6596 63.5682 30.5999 63.5312C30.5402 63.4942 30.4737 63.4697 30.4042 63.4592C30.2606 63.4305 29.9632 63.6948 29.8893 63.8874C29.6329 64.5514 29.4463 65.2419 29.2309 65.9243C29.2124 65.9817 29.1857 66.039 29.1673 66.0964C28.9806 66.6456 28.7775 67.1906 28.6175 67.748C28.5232 68.0779 28.5068 68.4263 28.4452 68.7726C28.2893 69.6168 28.6134 70.4119 28.757 71.211C28.8596 71.7971 29.2104 72.3626 29.2145 72.9384C29.2145 74.6659 29.4196 76.3953 29.0093 78.1268C28.7714 79.1514 28.837 80.219 28.718 81.2682C28.4924 83.223 28.4432 85.2066 29.1796 87.1348C29.4575 87.8584 29.9554 88.4768 30.6032 88.9032C30.7199 88.9516 30.8471 88.9691 30.9725 88.954C31.0979 88.9389 31.2173 88.8918 31.3191 88.8171C31.6225 88.4323 31.8533 87.9956 32.0002 87.5282C32.2504 86.6902 32.4207 85.8275 32.593 84.9689C32.7345 84.2496 32.8392 83.5242 32.9458 82.7989C32.991 82.4874 32.9786 82.1657 33.0258 81.8542C33.1858 80.8153 33.3787 79.7825 33.5243 78.7416C33.7294 77.2539 33.2905 75.8052 33.2207 74.3339C33.2168 74.3026 33.21 74.2717 33.2002 74.2417L32.3571 71.3729L31.7602 69.3443C31.555 68.6312 31.2842 67.9304 31.1448 67.207C30.9868 66.3423 30.9335 65.4612 30.835 64.6313ZM31.8607 62.3936C31.9735 62.3178 32.0658 62.2522 32.1745 62.1887C32.6115 61.8814 32.8084 61.0781 32.5335 60.7133C32.2156 60.3035 31.9038 59.8732 31.5653 59.4736C30.9027 58.6929 30.5847 57.7319 30.277 56.7995C30.0104 55.9983 29.9899 55.1172 29.8668 54.2729C29.8205 54.0742 29.7849 53.8731 29.7601 53.6705C29.7334 53.2033 29.7068 52.734 29.7252 52.2668C29.7355 51.9554 29.8483 51.6521 29.8688 51.3386C29.9119 50.7054 29.3273 50.1706 28.7303 50.3673C27.9467 50.6255 27.0216 50.6685 26.7262 51.7505C26.558 52.3652 26.1641 52.9369 26.2236 53.6111C26.2695 53.9588 26.3627 54.2987 26.5005 54.6213C26.7262 55.1991 26.9108 55.82 27.2472 56.32C27.7968 57.1625 28.2522 58.0627 28.6052 59.0044C28.9755 59.8915 29.2806 60.8044 29.5181 61.7359C29.6555 62.2871 30.0452 62.5002 30.4412 62.7379C30.5622 62.8096 30.7899 62.7256 30.956 62.6744C30.995 62.6641 31.0032 62.4858 30.9889 62.3916C30.9212 61.9531 30.8412 61.5187 30.7612 61.0494C32.0679 60.8588 31.4053 62.0023 31.8627 62.3936H31.8607ZM79.1213 53.8713C78.7396 54.0171 78.3694 54.1911 78.0136 54.3918C77.6607 54.6192 77.5315 55.8118 77.7735 56.2667C78.1961 57.0597 77.9787 57.906 77.9315 58.7257C77.8843 59.363 77.6074 59.9962 77.3674 60.6068C77.0515 61.4142 76.672 62.199 76.3068 63.0207C76.4771 63.4059 76.6761 63.8526 76.8894 64.3301C77.3448 63.9776 77.1869 63.1498 77.9951 63.1108V64.6313C78.2002 64.619 78.4054 64.662 78.5387 64.5882C78.8644 64.4084 79.1462 64.1587 79.364 63.8573C79.5817 63.5558 79.73 63.2099 79.7982 62.8444C79.9869 61.9428 80.0403 61.0105 80.1736 60.0966C80.2659 59.4675 80.3972 58.8445 80.5121 58.2196C80.5253 58.1738 80.5424 58.1292 80.5634 58.0864C80.7357 57.5556 80.908 57.0249 81.0844 56.4942C81.1213 56.3601 81.1707 56.2297 81.2321 56.1049C81.5172 55.5905 81.4372 54.7258 81.027 54.3877C80.8916 54.275 80.6454 54.2811 80.5326 54.1582C80.229 53.8262 79.9295 53.941 79.6628 54.0393C79.71 54.4492 79.7798 54.8221 79.7839 55.1889C79.8159 55.8333 79.8001 56.4792 79.7367 57.1212C79.6177 57.9655 79.4126 58.8015 79.2115 59.6335C79.1092 59.9659 78.9831 60.2905 78.8341 60.6047L78.6187 60.5248C78.7454 60.1741 78.8489 59.8154 78.9284 59.4511C79.0679 58.5802 79.1664 57.7011 79.2854 56.8262C79.2997 56.7175 79.3346 56.6212 79.351 56.5044C79.4064 56.1233 79.5274 55.736 79.4946 55.361C79.4556 54.9164 79.2833 54.4738 79.1213 53.8713ZM39.2332 41.9864H39.1019C39.1019 41.847 39.0834 41.7077 39.0855 41.5765C39.0855 40.8552 39.0732 40.8081 38.3408 40.8778C37.6085 40.9475 36.8885 40.9905 36.2198 41.2159C35.7479 41.3737 35.1079 41.3757 34.8495 42.011L36.2259 42.4331L36.5787 42.5478C37.108 42.7179 37.6311 42.9064 38.1685 43.0499C38.5788 43.1605 39.0157 43.2199 39.4444 43.2917C39.581 43.3015 39.7181 43.3015 39.8547 43.2917L39.6496 42.7773C40.0041 42.9874 40.4087 43.0983 40.8209 43.0983C41.2331 43.0983 41.6377 42.9874 41.9922 42.7773L42.1358 43.2384L46.9421 42.3368L46.981 42.1462C46.6856 41.9946 46.3964 41.8306 46.0949 41.6933C45.66 41.4884 45.2169 41.3183 44.7779 41.1278C44.6686 41.0821 44.563 41.0279 44.462 40.9659C44.0845 40.7221 43.0876 40.8266 42.8763 41.0704C42.679 40.8866 42.4583 40.7295 42.2199 40.6032C41.9906 40.5335 41.7456 40.5335 41.5163 40.6032C41.2826 40.6663 41.075 40.8019 40.9234 40.9905C40.8558 41.0847 40.9706 41.3778 41.0855 41.511C41.2898 41.7038 41.5147 41.8736 41.7563 42.0171C41.705 42.0868 41.6414 42.2691 41.5183 42.3265C41.3869 42.3759 41.2463 42.396 41.1063 42.3853C40.9664 42.3746 40.8304 42.3334 40.7081 42.2647C40.5857 42.196 40.4799 42.1013 40.398 41.9874C40.3161 41.8735 40.2602 41.743 40.2342 41.6052C40.2276 41.4634 40.2104 41.3224 40.1829 41.1831C40.1704 41.1172 40.1435 41.055 40.1041 41.0007C40.0647 40.9464 40.0138 40.9015 39.955 40.8692C39.8962 40.8369 39.8309 40.818 39.764 40.8138C39.697 40.8096 39.6299 40.8203 39.5675 40.845C39.4909 40.8879 39.4243 40.9466 39.3723 41.0173C39.3203 41.088 39.2841 41.169 39.266 41.2548C39.2336 41.4938 39.2254 41.7355 39.2414 41.9761L39.2332 41.9864ZM46.6508 40.7856C45.9964 39.7917 45.1041 39.2241 44.1461 38.7467C43.7864 38.5671 43.4157 38.4104 43.0363 38.2774C42.5502 38.1074 42.0578 37.8676 41.5614 37.8471C40.946 37.8246 40.3306 37.9824 39.7152 38.091C39.0588 38.2037 38.3798 38.2713 37.7644 38.5008C36.9787 38.7979 36.1849 39.1319 35.5367 39.6975C35.3108 39.9247 35.1049 40.1708 34.9213 40.4331L35.0361 40.5971C35.6044 40.5233 36.1459 40.5971 36.751 40.3696C37.4875 40.093 38.3326 40.0581 39.1367 40.0254C40.4496 39.9741 41.7686 39.9741 43.0835 40.0254C43.7256 40.0479 44.3635 40.22 45.0035 40.3266C45.0466 40.3266 45.0815 40.3799 45.1225 40.3962C45.5328 40.552 45.9431 40.7098 46.3533 40.8532C46.4169 40.8593 46.5051 40.8122 46.659 40.7753L46.6508 40.7856ZM78.592 50.8919C78.126 50.9756 77.6671 51.0955 77.2197 51.2505C76.9489 51.3632 76.6535 51.5988 76.7581 52.0046C76.8628 52.4103 76.9879 52.7955 77.0638 53.1971C77.0754 53.2973 77.1126 53.3929 77.1717 53.4746C77.2308 53.5564 77.3099 53.6217 77.4015 53.6642C77.493 53.7068 77.594 53.7252 77.6946 53.7177C77.7953 53.7101 77.8924 53.677 77.9766 53.6213C78.3798 53.403 78.8074 53.2331 79.2505 53.1152C79.5441 53.0766 79.8424 53.0961 80.1285 53.1726C80.43 53.2217 80.7213 53.3447 81.0229 53.3775C81.3244 53.4103 81.4085 53.2033 81.3326 52.9513C81.2679 52.6838 81.1635 52.4276 81.0229 52.191C80.4444 51.3591 79.5521 51.0804 78.592 50.8919Z" fill="white"/>
<path d="M49.0873 64.2095C49.0996 63.9923 49.1098 63.7997 49.118 63.6235C49.6165 63.6542 50.0863 63.6091 50.5088 63.7321C50.941 63.8798 51.3458 64.0979 51.7068 64.3775C52.8925 65.2238 53.114 65.0189 54.1971 64.2259C54.4782 64.021 54.7059 63.7341 55.0012 63.5558C55.0924 63.5058 55.1939 63.4775 55.2978 63.4732C55.4018 63.469 55.5053 63.4888 55.6002 63.5312C55.7213 63.605 55.7725 63.9062 55.7315 64.0784C55.7069 64.187 55.469 64.2833 55.311 64.3202C54.8043 64.4575 54.4905 64.8058 54.1951 65.2095C53.8381 65.689 53.914 66.2177 53.914 66.7422C53.914 69.5454 53.9038 72.3487 53.9489 75.1437C53.9633 76.1088 54.1274 77.0719 54.2381 78.035C54.2505 78.1354 54.3694 78.3034 54.4433 78.3014C54.8643 78.3109 55.2848 78.2668 55.6946 78.1702C56.0741 78.0514 56.3982 77.9653 56.7469 78.2092C56.8251 78.2622 56.9171 78.2913 57.0116 78.2932C57.8321 78.2788 58.4475 78.7563 59.1142 79.1128C59.7808 79.4694 60.427 79.7931 61.0773 80.1374C61.1932 80.2261 61.2985 80.3279 61.3911 80.4407C61.8527 80.8648 62.3163 81.2849 62.8743 81.791C62.5481 81.9591 62.2937 82.0943 62.0353 82.2214C61.5655 82.4509 61.0875 82.666 60.626 82.9078C59.8383 83.3176 59.2701 83.9836 58.7162 84.6496C58.5061 84.9419 58.3306 85.2575 58.1931 85.5901C57.6762 86.6536 57.3131 87.8585 56.2731 88.5265C55.6884 88.9056 55.0156 89.2765 54.2217 89.2212C53.5428 89.1741 52.8576 89.2212 52.1704 89.2089C51.4524 89.2089 50.8083 88.9323 50.1416 88.6987C49.3496 88.4414 48.6336 87.9922 48.0575 87.3913C47.6723 86.9328 47.3226 86.4458 47.0113 85.9344C46.7118 85.5 46.4328 85.0512 46.1333 84.6168C45.8338 84.1824 45.5282 83.7971 45.2513 83.375C44.9374 82.8935 44.3528 82.8648 43.9487 82.5554C43.8051 82.4427 43.6 82.3013 43.5856 82.1578C43.563 81.9119 43.5856 81.5595 43.7374 81.414C44.2782 80.9274 44.8467 80.4725 45.44 80.0513C45.8503 79.7522 46.2851 79.496 46.7118 79.2317C47.0975 78.9858 47.5077 78.7768 47.8647 78.4981C48.2269 78.2547 48.6434 78.1039 49.0776 78.0589C49.5118 78.0139 49.9504 78.076 50.355 78.2399C50.5765 78.3465 50.8719 78.3014 51.1755 78.3301C51.1981 78.0288 51.2309 77.7973 51.2309 77.5637C51.2405 73.572 51.2473 69.5803 51.2514 65.5886C51.2514 64.8529 51.0606 64.6788 50.3099 64.564C49.8951 64.4724 49.4867 64.3539 49.0873 64.2095ZM47.1488 81.8197C46.6236 81.9468 46.0903 82.0533 45.5713 82.2091C45.3292 82.2808 45.2985 82.4365 45.5344 82.6189C45.7657 82.78 45.9729 82.9732 46.1498 83.1926C46.6236 83.832 47.0831 84.4836 47.518 85.1516C47.8298 85.6291 48.076 86.1475 48.3795 86.6311C48.6643 87.0627 49.0765 87.3951 49.5591 87.5819C50.117 87.8237 50.636 88.1679 51.2001 88.3606C51.6966 88.5286 52.2443 88.5511 52.7694 88.629C52.9109 88.6495 53.0546 88.6495 53.1961 88.629C53.6593 88.5784 54.1189 88.4997 54.5725 88.3933C55.0177 88.2888 55.4454 88.1203 55.8423 87.8934C56.6628 87.379 56.8864 86.4487 57.3069 85.6557C57.5524 85.1376 57.8263 84.6334 58.1275 84.1455C58.6686 83.4031 59.3597 82.7824 60.1562 82.3238C60.2444 82.2705 60.2978 82.1537 60.3614 82.0677C60.2779 82.005 60.1842 81.9572 60.0844 81.9263C58.987 81.752 57.8627 81.8861 56.8372 82.3136C56.0685 82.6795 55.2271 82.8679 54.3756 82.8648C54.0269 82.8504 53.6761 82.8484 53.3274 82.8648C52.1683 82.9159 51.0078 82.8014 49.8811 82.5246C49.8192 82.5123 49.7582 82.4959 49.6986 82.4755C48.8862 82.1927 48.078 81.8382 47.1488 81.8197ZM45.3497 81.205L45.4297 81.3546C45.5812 81.3689 45.7337 81.3689 45.8851 81.3546C46.2482 81.2829 46.6093 81.1025 46.9662 81.121C47.6327 81.1551 48.2951 81.2469 48.9457 81.3956C49.518 81.5247 50.0555 81.8177 50.6299 81.9222C51.4801 82.0918 52.3436 82.1865 53.2104 82.205C54.0569 82.178 54.9002 82.089 55.7336 81.9386C56.1089 81.863 56.4784 81.761 56.8392 81.6333C56.8823 81.6189 56.9172 81.58 56.9603 81.5656C57.4464 81.4038 57.9223 81.1558 58.4208 81.1005C59.0608 81.0185 59.7173 81.0861 60.3675 81.0759C60.4695 81.0557 60.5673 81.0183 60.6568 80.9652C60.6239 80.8874 60.6096 80.7747 60.5521 80.7419C60.0147 80.4325 59.4773 80.1272 58.9254 79.8444C58.3736 79.5616 57.7911 79.3075 57.2146 79.0596C56.899 78.9147 56.5558 78.8397 56.2085 78.8397C55.8611 78.8397 55.5179 78.9147 55.2023 79.0596C54.673 79.2972 54.1766 79.6395 53.6187 79.7706C52.8839 79.9187 52.1202 79.7856 51.4791 79.3977C51.0013 79.1396 50.4808 78.9695 49.9427 78.8956C49.3888 78.8239 48.8165 78.7686 48.2729 79.1518C47.6041 79.6272 46.837 79.9714 46.1498 80.4161C45.8566 80.6538 45.5885 80.9209 45.3497 81.2132V81.205ZM52.1355 65.5435C52.1212 65.6972 52.0986 65.8222 52.0966 65.9533C52.0884 70.0352 52.0788 74.1171 52.0678 78.1989C52.0678 78.6087 52.1745 78.8731 52.6114 79.0596C53.1509 79.2891 53.6597 79.0944 53.6371 78.5083C53.6186 78.0801 53.432 77.6621 53.4053 77.2338C53.2843 75.615 53.1427 73.9962 53.1038 72.3753C53.0545 70.3671 53.1038 68.3569 53.1038 66.3488C53.0997 65.6255 52.9315 65.482 52.1355 65.5517V65.5435Z" fill="white"/>
<path d="M59.3651 46.0411C58.7805 45.6313 58.7722 45.5678 59.082 45.0842C59.2133 44.8793 59.4225 44.6395 59.3938 44.4469C59.3586 44.3295 59.2966 44.2219 59.2125 44.1326C59.1285 44.0433 59.0248 43.9748 58.9097 43.9326C58.4379 43.8055 57.9435 43.7932 57.5743 44.244C57.4611 44.35 57.3389 44.446 57.2091 44.5309C56.9507 44.7481 56.7127 44.9407 56.6635 45.3506C56.5219 46.4612 56.2696 47.5595 56.1568 48.6722C56.0481 49.7418 56.1568 50.8361 56.0009 51.8975C55.5906 54.6987 55.8286 57.5101 55.7199 60.3153C55.7199 60.5203 55.5147 60.7252 55.3958 60.9567C55.2333 60.864 55.1005 60.7272 55.0127 60.5622C54.9248 60.3972 54.8855 60.2107 54.8993 60.0244C54.9281 58.7109 54.7639 57.3707 54.965 56.0859C55.285 54.0594 54.9773 52.0143 55.2665 50.0185C55.4122 48.9939 55.4142 47.9919 55.5619 46.9858C55.6624 46.3034 55.7199 45.6108 55.8532 44.9366C55.9865 44.2625 56.206 43.5637 56.3783 42.8773C56.5014 42.3896 56.5712 41.8834 56.7373 41.4121C56.9182 40.9251 57.1384 40.4536 57.3958 40.0023C57.765 39.3241 58.1445 38.6479 58.5651 38.0003C59.3295 36.8282 60.2713 35.7816 61.3569 34.898C61.69 34.6138 62.0812 34.4056 62.5032 34.2881C62.9252 34.1706 63.3678 34.1466 63.8001 34.2176C64.1201 34.2771 64.319 34.5844 64.2616 35.0373C63.9884 35.0554 63.7143 35.0554 63.4411 35.0373C62.3969 34.8939 61.6626 35.4799 61.0451 36.1541C60.2707 37.0045 59.5616 37.9121 58.924 38.8692C58.3558 39.7155 57.802 40.5884 57.5312 41.6007C57.4143 42.0371 57.1866 42.4429 57.0409 42.8732C57.0227 43.0231 57.0318 43.1752 57.0676 43.3219L57.2502 43.3588L57.6604 42.3732C57.8839 41.8166 58.2353 41.3204 58.6861 40.9244C59.3276 40.3987 60.0412 39.9674 60.8051 39.6437C61.6256 39.2749 62.479 39.1601 63.3406 38.9778C64.0436 38.8301 64.7626 38.773 65.4801 38.8077C66.1786 38.8227 66.873 38.9176 67.5499 39.0905C68.3807 39.3087 69.1814 39.6287 69.9335 40.0433C70.4479 40.3824 70.8808 40.831 71.2013 41.3568C71.8923 42.3908 72.6989 43.343 73.6054 44.1949C73.8393 44.4182 74.1736 44.6252 73.9931 45.1764L72.9674 44.7153C72.6413 44.5657 71.5766 44.8485 71.3797 45.1456C71.3608 45.1698 71.347 45.1974 71.3389 45.227C71.3308 45.2565 71.3286 45.2874 71.3325 45.3178C71.4433 45.6395 71.5664 45.9571 71.6854 46.2768C71.7838 46.5473 71.8905 46.8198 71.9828 47.0964C71.4413 47.2665 71.2033 47.1149 71.07 46.6641C70.9592 46.2901 70.8221 45.9244 70.6597 45.5698C70.6187 45.4776 70.4259 45.412 70.3007 45.4079C69.8412 45.3956 69.3817 45.4223 68.9222 45.4202C68.6473 45.4202 68.5612 45.5719 68.5591 45.8075C68.5591 46.2358 68.5715 46.6641 68.5448 47.0903C68.5448 47.2235 68.434 47.4427 68.3397 47.4571C68.263 47.4627 68.1862 47.4489 68.1163 47.417C68.0464 47.3852 67.9856 47.3362 67.9396 47.2747C67.8012 46.9691 67.7166 46.6419 67.6894 46.3075C67.6566 45.4366 67.6791 45.4346 66.7929 45.4346C66.6022 45.4346 66.4114 45.4346 66.2227 45.4346C65.7324 45.4674 65.5252 45.6866 65.5129 46.1764C65.5129 46.3341 65.5129 46.494 65.5129 46.6518C65.5129 47.1313 65.5129 47.1313 65.1026 47.3894C64.6431 47.1313 64.5508 46.8054 64.7539 46.16C64.9078 45.6702 64.7314 45.4407 64.2226 45.3874C63.8893 45.3432 63.5615 45.2649 63.2441 45.1538C62.8031 45.0043 62.5487 45.1887 62.4646 45.6641C62.3751 46.1391 62.2419 46.6049 62.0667 47.0554C62.0421 47.1272 61.7323 47.1313 61.5703 47.0964C61.48 47.0759 61.4246 46.9079 61.4 46.8751C61.4718 46.5964 61.5313 46.3813 61.5805 46.1641C61.5977 46.0072 61.6258 45.8518 61.6646 45.6989C61.7692 45.4264 62.0092 45.1518 61.7344 44.8793C61.3959 44.5391 60.4625 44.3219 60.1918 44.5473C60.0025 44.7539 59.8517 44.9926 59.7466 45.2522C59.6194 45.4981 59.5046 45.7542 59.3651 46.0411ZM66.6022 44.4018C66.7786 44.5637 66.9078 44.7871 67.0596 44.8014C68.2987 44.9181 69.5487 44.8154 70.752 44.4981C70.9316 44.4373 71.0965 44.3396 71.2361 44.2112C71.2632 44.1739 71.2819 44.1311 71.2907 44.0858C71.2996 44.0405 71.2985 43.9938 71.2874 43.949C71.0688 43.8087 70.8381 43.688 70.5982 43.5883C70.2638 43.4551 69.9048 43.3834 69.5725 43.2277C69.0022 42.9715 68.432 42.4347 67.8945 42.4736C67.3571 42.5125 67.1847 42.2687 66.8299 42.1314C66.4196 41.9654 65.8924 42.0576 65.4186 42.0494C65.3529 42.0494 65.2319 42.1129 65.2319 42.1519C65.1985 42.4932 65.2075 42.8373 65.2585 43.1764C65.277 43.2645 65.6298 43.2809 65.8309 43.3281C65.9211 43.3506 66.0134 43.3691 66.1057 43.3895L66.1365 43.533C65.8719 43.6416 65.5827 43.8731 65.3509 43.826C65.0584 43.7292 64.8122 43.5278 64.6596 43.2605C64.4646 42.8602 64.304 42.4441 64.1795 42.0166L63.5088 42.1744C63.3439 42.1177 63.1733 42.0793 63 42.0597C62.241 42.0474 61.4821 42.0064 60.76 42.3445C60.3969 42.5166 59.9907 42.5945 59.6215 42.7543C59.5087 42.8055 59.4451 42.9961 59.3959 43.1375C59.3815 43.1744 59.4902 43.2912 59.562 43.3178C60.0995 43.5125 60.639 43.7072 61.1846 43.8793C61.878 44.1006 62.5754 44.3137 63.279 44.494C63.4144 44.5289 63.6893 44.4776 63.7262 44.3854C63.8821 44.0801 64.116 44.2112 64.2431 44.3055C65.0329 44.9161 65.8288 44.6948 66.6022 44.4059V44.4018ZM71.2833 43.0105C71.1295 42.6355 71.0925 42.3568 70.9325 42.1908C70.3397 41.5761 69.8576 40.8732 69.0412 40.4286C68.2248 39.9839 67.3263 39.7913 66.4524 39.6519C65.4965 39.4983 64.4955 39.611 63.5129 39.6171C63.3225 39.6101 63.1324 39.6357 62.9508 39.6929C62.2205 39.9552 61.5149 40.2892 60.7723 40.5126C59.9866 40.7421 59.4348 41.2523 58.9076 41.8158C58.8728 41.8547 58.9528 42.0883 58.9897 42.0924C59.1438 42.1042 59.2987 42.0847 59.4451 42.0351C59.9189 41.8752 60.3784 41.6806 60.8543 41.533C61.2056 41.4045 61.5727 41.3245 61.9457 41.2953C63.4 41.2666 64.8565 41.2318 66.3068 41.2953C66.8524 41.3199 67.3796 41.6273 67.9232 41.7851C68.3725 41.9162 68.832 42.0125 69.2874 42.1273C69.3302 42.144 69.3713 42.1646 69.4104 42.1888C69.7756 42.3691 70.1387 42.5576 70.5079 42.7277C70.7212 42.824 70.9428 42.8896 71.2833 43.0146V43.0105Z" fill="white"/>
<path d="M74.928 55.8532C74.928 56.4065 75.0101 56.9761 74.9034 57.5089C74.7853 58.0452 74.572 58.5559 74.2736 59.0171C73.7669 59.8367 73.3074 60.6892 72.5218 61.2937C71.7361 61.8981 70.9156 62.4801 69.931 62.8407C68.9463 63.2014 67.9576 63.0948 66.9914 63.0211C66.376 62.9739 65.8078 62.517 65.2067 62.269C64.3862 61.9309 63.8426 61.2834 63.3277 60.6297C63.0042 60.1819 62.7292 59.7011 62.5072 59.1953C62.3431 58.8531 62.2816 58.4618 62.1318 58.1093C61.6949 57.0663 61.7892 55.9536 61.9821 54.9332C62.1941 53.7145 62.8696 52.6249 63.8672 51.8923C64.5943 51.366 65.3746 50.9175 66.1955 50.5542C67.0776 50.1587 67.9432 49.88 68.893 50.0439C69.5781 50.1826 70.2553 50.3577 70.9218 50.5685C71.3328 50.6524 71.7298 50.7938 72.1013 50.9886C72.6727 51.3229 73.1936 51.7368 73.648 52.2181C74.1509 52.8007 74.5655 53.4538 74.8788 54.1565C75.0634 54.5766 74.9547 55.1258 74.9772 55.6155C74.9772 55.6934 74.9772 55.7733 74.9772 55.8532H74.928ZM74.4788 55.7508C74.3618 55.3041 74.2223 54.8614 74.13 54.4106C73.9146 53.3738 73.1515 52.7365 72.4069 52.1177C72.0254 51.798 71.5166 51.6177 71.0448 51.4251C70.544 51.2197 70.03 51.0479 69.5063 50.9107C69.0827 50.8146 68.6539 50.7421 68.2222 50.6935C68.1312 50.6857 68.0395 50.6976 67.9535 50.7284C67.4365 50.8902 66.9278 51.0583 66.4047 51.2242C66.3435 51.2389 66.2848 51.2623 66.2304 51.2939C65.5083 51.7673 64.7698 52.2222 64.0683 52.7283C63.4426 53.1771 62.9277 53.8287 62.8375 54.5438C62.7452 55.2098 62.4272 55.8758 62.7062 56.6278C62.9113 57.2282 62.6693 57.9495 63.0426 58.5704C63.26 58.9331 63.3154 59.4085 63.5739 59.7281C64.177 60.474 64.776 61.2055 65.6704 61.6953C66.3135 62.0508 67.0164 62.2856 67.7442 62.3879C68.4471 62.4558 69.1562 62.3605 69.8161 62.1092C70.7481 61.7793 71.5907 61.2377 72.2777 60.5273C72.7946 59.9797 73.2267 59.3581 73.5598 58.6831C74.0488 57.7724 74.3606 56.7774 74.4788 55.7508Z" fill="white"/>
<path d="M37.529 47.9635C38.526 48.0454 39.5599 47.9942 40.5096 48.2483C41.4943 48.5126 42.4912 48.8528 43.3425 49.5003C44.0176 49.9672 44.5393 50.6231 44.842 51.3855C45.1559 52.2256 45.4369 53.0678 45.3241 53.9592C45.2523 54.5268 45.0103 55.076 44.842 55.6313C44.747 56.0137 44.625 56.389 44.4769 56.7542C44.2929 57.1498 44.0622 57.522 43.7897 57.8628C43.3313 58.4527 42.8272 59.0056 42.282 59.5164C41.8225 59.9263 41.2973 60.2869 40.6409 60.3566C40.3866 60.3832 40.1281 60.6209 39.9004 60.582C39.1775 60.4659 38.4638 60.2981 37.765 60.08C37.2252 59.8962 36.7005 59.6708 36.1957 59.4058C35.3341 58.9775 34.7105 58.3013 34.1649 57.5104C33.2561 56.1907 33.1392 54.7215 33.3156 53.2195C33.4061 52.3777 33.6054 51.5512 33.9085 50.7605C34.2469 49.8958 34.7167 49.0597 35.5105 48.5065C36.0912 48.0786 36.8118 47.8847 37.529 47.9635ZM37.9865 48.6602L37.9721 48.7483C37.6562 48.7483 37.3362 48.7237 37.0224 48.7483C36.29 48.8179 35.6685 49.1089 35.2972 49.7728C35.0415 50.2095 34.8167 50.6635 34.6244 51.1314C34.424 51.6729 34.2581 52.2266 34.1279 52.7892C34.0254 53.2261 33.9493 53.6688 33.9002 54.1149C33.8674 54.3793 33.8079 54.6866 33.9002 54.9121C34.1813 55.5637 34.1608 56.3301 34.6921 56.8895C35.1946 57.4181 35.6131 58.037 36.1588 58.5124C36.5737 58.826 37.0392 59.0664 37.5352 59.2234C38.1108 59.4464 38.7026 59.6252 39.3055 59.7582C40.1753 59.9447 40.9466 59.6435 41.605 59.0943C42.1078 58.7068 42.5587 58.2564 42.9466 57.7542C43.3671 57.1661 43.6543 56.4817 43.9866 55.8321C44.2861 55.2461 44.5343 54.6313 44.5179 53.9633C44.5015 53.2256 44.6143 52.4941 44.2574 51.7584C43.9532 51.0599 43.4629 50.4581 42.8399 50.0187C42.1834 49.6145 41.4678 49.3152 40.7189 49.1315C39.8306 48.8856 38.8993 48.8077 37.9865 48.6602Z" fill="white"/>
<path d="M44.3088 28.6387C44.6576 28.733 44.9571 28.8436 45.2668 28.8908C45.6771 28.9604 46.112 28.9912 46.5366 29.0342C47.6771 29.1489 48.8197 29.2535 49.9582 29.3805C50.311 29.4215 50.6721 29.6284 51.0023 29.5854C51.5111 29.5116 51.9972 29.2862 52.4916 29.1223C52.8875 28.9891 53.2875 28.8662 53.6752 28.7125C54.787 28.2719 55.946 28.3027 57.0948 28.4277C57.6076 28.4809 58.0917 28.7658 58.6005 28.9072C59.2197 29.0869 59.8484 29.2326 60.4836 29.3436C61.0333 29.4297 61.2733 29.6305 61.2036 30.1633C60.7667 30.1797 60.3174 30.3292 59.9133 29.9891C59.8743 29.9618 59.8292 29.9443 59.782 29.9379C59.2118 29.8129 58.6353 29.7084 58.0712 29.5608C57.5071 29.4133 56.9184 29.1735 56.3296 29.0444C55.9578 28.9717 55.5761 28.9634 55.2014 29.0199C54.8514 29.0994 54.5084 29.207 54.1757 29.3416C53.5603 29.5342 52.908 29.6387 52.3501 29.9297C51.468 30.3866 50.5633 30.1797 49.6833 30.1612C48.637 30.166 47.5934 30.0553 46.5715 29.8313C45.997 29.7006 45.4134 29.6136 44.8258 29.5711C44.4052 29.5383 44.2145 29.235 44.3088 28.6387Z" fill="white"/>
<path d="M46.2852 32.0011C46.3832 31.8246 46.5277 31.6781 46.7031 31.5777C46.8784 31.4773 47.078 31.4267 47.2801 31.4315C48.279 31.3577 49.1714 31.7757 50.115 31.9458C51.0053 32.1077 51.8996 32.5175 52.8453 32.1507C53.0459 32.0978 53.2538 32.0784 53.4607 32.0934C54.2857 32.0692 55.0961 31.8702 55.8382 31.5094C55.9423 31.474 56.0529 31.4614 56.1623 31.4725C56.7326 31.4725 57.3049 31.4294 57.8711 31.4725C58.3464 31.5411 58.817 31.639 59.2803 31.7655L59.3193 32.0216C59.1326 32.1261 58.948 32.3208 58.7613 32.3208C58.3565 32.2947 57.954 32.2392 57.5572 32.1548C57.4957 32.1548 57.43 32.0975 57.3746 32.1077C56.7346 32.2238 56.0953 32.3454 55.4566 32.4724C55.3828 32.4868 55.3213 32.5565 55.2515 32.5729C53.8156 32.872 52.3797 33.0933 50.9171 32.9089C50.3611 32.8392 49.8319 32.579 49.2883 32.411C49.156 32.3651 49.0179 32.3382 48.878 32.3311C48.2626 32.3311 47.6472 32.1261 47.0195 32.2614C46.8082 32.3003 46.5559 32.1036 46.2852 32.0011Z" fill="white"/>
<path d="M59.6113 66.083C59.8014 66.1626 59.9768 66.2734 60.1302 66.4109C60.3468 66.6492 60.5029 66.9359 60.5856 67.2469C60.7292 68.1567 60.8769 69.0747 61.0185 69.9825C61.2544 71.4907 61.1456 72.9947 61.2769 74.4906C61.3282 75.0561 61.5887 75.6053 61.759 76.1606C61.8862 76.5704 62.0181 76.9803 62.1549 77.3901C62.1939 77.5069 62.278 77.6094 62.3046 77.7282C62.3611 77.9608 62.3955 78.1982 62.4072 78.4372C62.4072 78.4761 62.1549 78.5888 62.0995 78.5499C61.9051 78.4433 61.744 78.2852 61.6339 78.0929C61.3139 77.302 61.0185 76.5131 60.9364 75.634C60.8687 74.843 60.5938 74.0726 60.4523 73.2836C60.3975 72.8762 60.3755 72.4651 60.3867 72.0542C60.3867 71.4517 60.4297 70.8452 60.3743 70.2489C60.2999 69.4358 60.178 68.6277 60.0092 67.8289C59.919 67.419 59.6687 67.0297 59.5107 66.624C59.4808 66.4895 59.4705 66.3515 59.48 66.2141L59.6113 66.083Z" fill="white"/>
<path d="M44.133 77.9951C43.5833 77.6406 43.5669 77.4664 43.7617 77.0382C43.9566 76.6099 44.0838 76.116 44.2397 75.655C44.3402 75.3558 44.4448 75.0587 44.5412 74.7575C44.652 74.3948 44.6848 73.9931 44.8612 73.6673C45.2366 72.9809 45.1525 72.2534 45.1341 71.5403C45.1115 70.692 44.9289 69.8457 44.9433 68.9974C44.9433 68.4277 45.1484 67.8601 45.2633 67.2925C45.2961 67.1388 45.3761 66.9974 45.4089 66.8437C45.4992 66.4093 45.4951 66.4073 46.1043 66.5364C46.0038 66.9564 45.8992 67.3744 45.8069 67.7986C45.7554 68.0302 45.7273 68.2663 45.7228 68.5035C45.7228 70.1428 45.7597 71.8006 45.6818 73.444C45.651 74.069 45.3454 74.6837 45.1566 75.3005C45.0356 75.698 44.9207 76.0976 44.771 76.4849C44.5823 76.9808 44.3607 77.4644 44.133 77.9951Z" fill="white"/>
<path d="M57.1294 92.4907C56.8381 92.9784 56.7191 92.9948 56.2658 92.6649C55.7482 92.2746 55.1422 92.0177 54.5016 91.917C53.9724 91.835 53.4247 91.5912 52.9077 91.7223C51.9846 91.9539 50.9651 91.9662 50.241 92.7469C50.12 92.8739 49.841 92.8698 49.6256 92.8842C49.5538 92.8842 49.4102 92.7633 49.4102 92.6977C49.4085 92.5658 49.456 92.4379 49.5435 92.3391C50.043 91.9039 50.6278 91.5773 51.2605 91.3801C52.2516 91.0513 53.3088 90.9732 54.3375 91.1526C55.2371 91.2501 56.0984 91.569 56.8442 92.0809C56.9605 92.2015 57.0567 92.3399 57.1294 92.4907Z" fill="white"/>
<path d="M39.6367 73.7881H40.168C40.289 74.4213 40.3895 75.0585 40.5393 75.6835C40.689 76.3085 40.8757 76.8741 41.0459 77.4683C41.0668 77.528 41.0839 77.5889 41.0972 77.6507C41.2203 78.2818 41.3331 78.915 41.4706 79.5441C41.53 79.8146 41.6634 80.0707 41.727 80.3412C41.8049 80.6752 41.61 80.8617 41.2223 81.0277C41.1054 80.6178 40.9946 80.249 40.8859 79.8719C40.6986 79.2353 40.5126 78.5988 40.328 77.9622C40.3133 77.9343 40.3003 77.9055 40.289 77.8761C40.1762 77.2737 40.0716 76.6712 39.9546 76.0688C39.8562 75.5606 39.729 75.0565 39.6449 74.5463C39.6215 74.2942 39.6187 74.0406 39.6367 73.7881Z" fill="white"/>
<path d="M33.5834 47.1041C33.528 47.5406 33.489 47.977 33.4131 48.4094C33.3572 48.6478 33.2888 48.8831 33.208 49.1143C33.0275 49.7434 32.8511 50.3745 32.6726 51.0056C32.6521 51.0814 32.6377 51.1593 32.6234 51.2372C32.5085 51.8745 32.4818 52.5445 32.2562 53.1388C32.0146 53.7937 31.9536 54.5014 32.0798 55.1879C32.1823 55.8231 32.1946 56.4973 32.5639 57.0895C32.8182 57.4993 32.9064 58.0075 33.1629 58.4112C33.5936 59.0853 34.1065 59.7062 34.5721 60.3578C34.6611 60.4939 34.7049 60.6545 34.6973 60.8168C33.9663 60.2369 33.3635 59.512 32.927 58.6878C32.6357 58.1817 32.289 57.6837 32.1064 57.1366C31.9013 56.5096 31.8623 55.8313 31.7598 55.1735C31.5792 54.026 31.9936 52.9339 32.1085 51.815C32.1823 51.0958 32.4572 50.395 32.6562 49.6901C32.9023 48.8213 33.1629 47.9586 33.4172 47.0918L33.5834 47.1041Z" fill="white"/>
<path d="M54.8744 41.5107C54.8539 42.2546 54.8744 43.0025 54.8047 43.7422C54.7185 44.7914 54.698 45.8672 54.4313 46.8754C54.0662 48.2544 54.296 49.6335 54.1811 51.0085C54.0826 52.1928 54.0457 53.3834 53.9759 54.5719C53.9526 54.731 53.9163 54.888 53.8672 55.0411H53.7257C53.6973 54.8853 53.6782 54.7279 53.6682 54.5698C53.6682 53.6211 53.5123 52.6293 53.7257 51.7297C54.1072 50.1273 53.8365 48.5167 54.0375 46.9225C54.1421 46.0844 54.2118 45.2402 54.3083 44.398C54.4047 43.5558 54.5134 42.6542 54.6324 41.7853C54.6467 41.6911 54.8006 41.6152 54.8888 41.5292L54.8744 41.5107Z" fill="white"/>
<path d="M48.7359 62.0794C48.3656 62.265 48.0121 62.4823 47.6795 62.729C47.1359 63.2044 47.0641 63.8089 47.5318 64.1962C47.7964 64.4175 48.1861 64.4974 48.5287 64.606C48.711 64.6423 48.8967 64.6595 49.0826 64.6572C49.0652 64.8489 49.0145 65.0362 48.9328 65.2105C48.779 65.4154 48.5738 65.4154 48.3174 65.2699C47.9846 65.125 47.6418 65.0038 47.2918 64.9072C46.7605 64.7126 46.4712 64.0712 46.5471 63.5077C46.623 62.9442 46.6866 62.3847 47.2384 62.0507C47.4846 61.9012 47.7246 61.6778 47.9892 61.6409C48.2538 61.604 48.4938 61.7741 48.7482 61.8458C48.7462 61.9298 48.7421 62.0057 48.7359 62.0794Z" fill="white"/>
<path d="M56.5065 65.0221C56.726 64.807 56.8183 64.7086 56.9168 64.6123C57.327 64.2394 57.7701 63.891 57.6429 63.2148C57.5588 62.7619 57.0009 62.1902 56.5434 62.1329C56.386 62.124 56.2369 62.0593 56.1229 61.9505C56.0757 61.889 56.1598 61.6329 56.2542 61.5694C56.4285 61.4505 56.7219 61.2907 56.847 61.3644C57.2428 61.6048 57.6144 61.8827 57.9568 62.1943C58.0611 62.3134 58.1394 62.453 58.1865 62.6042C58.2604 62.7681 58.3158 62.9402 58.3917 63.1082C58.4081 63.1513 58.4614 63.1943 58.4553 63.2271C58.3568 63.6615 58.3506 64.1615 58.1209 64.5098C57.8911 64.8582 57.4542 65.0385 57.0788 65.2434C56.9865 65.2967 56.7855 65.1389 56.5065 65.0221Z" fill="white"/>
<path d="M67.3038 75.7708C67.3038 76.1519 67.4371 76.5126 67.1499 76.9122C66.9284 77.2195 66.8525 77.6458 66.752 78.029C66.5981 78.6191 66.2904 79.1744 66.3602 79.826C66.3529 79.9254 66.3226 80.0218 66.2717 80.1075C66.2208 80.1932 66.1507 80.2659 66.0668 80.3199C65.9745 80.3773 65.6073 80.2174 65.6094 80.1641C65.6323 79.752 65.6789 79.3415 65.7489 78.9347C65.7489 78.8752 65.8207 78.8199 65.8186 78.7646C65.8186 77.9122 66.315 77.2114 66.5345 76.4245C66.6125 76.1376 66.914 75.9122 67.1151 75.6602L67.3038 75.7708Z" fill="white"/>
<path d="M75.7018 58.4893C75.8618 58.5794 76.0607 58.6265 76.0895 58.7249C76.1041 58.8769 76.0665 59.0294 75.9828 59.1573C75.7723 59.6004 75.5395 60.0327 75.2854 60.4523C75.0088 60.9114 74.6916 61.3448 74.3376 61.7474C73.4186 62.7391 72.4627 63.6981 71.4658 64.7329C71.156 64.1182 71.5745 63.9317 71.7919 63.7084C72.5776 62.8887 73.4043 62.108 74.1879 61.2843C74.9019 60.482 75.4201 59.5253 75.7018 58.4893Z" fill="white"/>
<path d="M51.8905 59.4186C51.8741 59.2444 51.8454 59.0723 51.8433 58.8981C51.8433 57.2588 51.9521 55.5949 51.7818 53.9679C51.6751 52.9618 51.5767 51.9618 51.5664 50.9536C51.5664 50.3942 51.5664 49.8348 51.5664 49.2754H51.7367C51.7674 50.0049 51.7367 50.7446 51.8392 51.4659C52.1736 53.9413 52.0772 56.4289 52.0997 58.9124C52.0925 59.0819 52.0761 59.2509 52.0505 59.4186H51.8905Z" fill="white"/>
<path d="M70.4018 35.4276C70.1088 35.1619 69.8301 34.8807 69.5669 34.5854C68.7956 33.6449 68.0469 32.6879 67.292 31.7351C66.9289 31.2781 66.572 30.815 66.2109 30.356L66.3074 30.1982C66.453 30.2515 66.652 30.2618 66.7361 30.3663C67.454 31.2556 68.1576 32.1613 68.8551 33.067C69.3084 33.6551 69.7577 34.2473 70.1844 34.8539C70.2795 35.0388 70.3485 35.236 70.3895 35.4399L70.4018 35.4276Z" fill="white"/>
<path d="M47.2562 57.2836C47.2562 55.3185 47.2562 53.3555 47.2562 51.3924C47.2562 50.3473 47.2726 49.3002 47.2869 48.2552C47.2869 48.079 47.2479 47.8454 47.5721 47.9068L47.5598 47.8945C47.5454 50.8371 47.5372 53.7796 47.5146 56.7242C47.5146 56.9291 47.6418 57.2365 47.25 57.2693L47.2562 57.2836Z" fill="white"/>
<path d="M59.4592 60.903C59.3751 60.8784 59.2438 60.8784 59.213 60.821C58.6552 59.8681 58.2913 58.8145 58.1423 57.7207C57.9802 56.5568 58.0315 55.4133 57.9699 54.2617C57.9659 54.1351 57.9721 54.0083 57.9884 53.8826C57.9884 53.8458 58.0356 53.8109 58.13 53.6777C58.166 53.8475 58.1921 54.0192 58.2079 54.1921C58.2079 54.5568 58.1792 54.9236 58.2079 55.2843C58.2673 56.3885 58.3837 57.489 58.5566 58.5813C58.6756 59.2063 59.0777 59.7759 59.3341 60.3784C59.3902 60.5549 59.4274 60.737 59.4448 60.9214L59.4592 60.903Z" fill="white"/>
<path d="M35.6523 35.585C36.3108 33.9191 37.0267 32.29 38.6042 31.165C38.7068 31.3843 38.7519 31.5236 38.5016 31.7367C38.0472 32.1103 37.6413 32.5391 37.2934 33.0133C36.9775 33.4621 36.8011 34.0072 36.5488 34.5031C36.3436 34.9129 36.1098 35.3125 35.8882 35.7161L35.6523 35.585Z" fill="white"/>
<path d="M51.1367 40.6022C51.4239 40.5427 51.4219 40.7497 51.467 40.9403C51.6598 41.7804 51.8649 42.6185 52.0639 43.4566C52.0793 43.5183 52.0875 43.5816 52.0885 43.6451C52.0885 44.7831 52.0831 45.921 52.0721 47.059C52.0625 47.1159 52.0431 47.1706 52.0147 47.2209H51.8649C51.8444 46.1082 51.9019 44.9853 51.7829 43.8808C51.6639 42.7763 51.3726 41.6903 51.147 40.6022H51.1367Z" fill="white"/>
<path d="M62.9141 63.7842C63.6341 64.1735 64.3849 64.5157 65.0659 64.9665C65.8659 65.4931 66.7603 65.1202 67.5911 65.3313C67.3162 65.655 65.8516 65.5362 64.9777 65.2657C64.1343 65.0348 63.402 64.509 62.9141 63.7842Z" fill="white"/>
<path d="M58.4325 47.9609V52.633H58.2377C58.1679 51.0777 58.2377 49.5203 58.2479 47.965L58.4325 47.9609Z" fill="white"/>
<path d="M70.3867 35.4381C70.5734 35.5877 70.8216 35.7024 70.9303 35.895C71.2011 36.3745 71.3529 36.9196 71.6585 37.3807C71.7652 37.5345 71.8372 37.7096 71.8694 37.8939C71.9017 38.0783 71.8934 38.2674 71.8452 38.4482C71.6503 38.27 71.4062 38.1511 71.4001 38.0241C71.3693 37.3438 70.9898 36.813 70.7252 36.2311C70.6042 35.9688 70.5077 35.6942 70.4011 35.4258L70.3867 35.4381Z" fill="white"/>
<path d="M55.7092 34.9572C55.9143 36.4244 55.6108 37.8485 55.2333 39.2747C55.2333 38.7276 55.2025 38.1764 55.2456 37.6354C55.2723 37.2768 55.4507 36.9326 55.4815 36.574C55.5246 36.0371 55.4938 35.4941 55.4938 34.9531L55.7092 34.9572Z" fill="white"/>
<path d="M54.1488 59.1575V61.4915H54.0195V59.1514L54.1488 59.1575Z" fill="white"/>
<path d="M54.8916 41.5223C54.8916 40.8502 54.906 40.176 54.9121 39.5039H55.1173C55.1296 39.7232 55.1501 39.9424 55.1501 40.1617C55.1597 40.4913 55.1487 40.8211 55.1173 41.1494C55.1008 41.2784 54.9573 41.3912 54.8711 41.51L54.8916 41.5223Z" fill="white"/>
<path d="M50.5942 37.8061C50.5491 37.7917 50.4711 37.7856 50.465 37.761C50.2802 37.1169 50.1431 36.4601 50.0547 35.7959C50.3809 36.4352 50.7316 37.0684 50.586 37.8204L50.5942 37.8061Z" fill="white"/>
<path d="M43.0008 62.8279C43.0008 62.7808 42.9823 62.7214 43.0008 62.6886C43.2059 62.3751 44.0264 62.123 44.4634 62.3525L42.9844 62.8136L43.0008 62.8279Z" fill="white"/>
<path d="M40.8874 63.096L39.3633 63.0283V62.7988C39.8412 62.8296 40.3192 62.8562 40.7992 62.9013C40.83 62.9013 40.8484 63.0365 40.8731 63.1062L40.8874 63.096Z" fill="white"/>
<path d="M50.8652 39.0583C50.9575 39.1525 51.1237 39.2407 51.1319 39.339C51.1586 39.7488 51.1319 40.1792 51.1319 40.6013V40.591C51.0478 40.2509 50.9555 39.9128 50.8878 39.5665C50.8669 39.3931 50.8593 39.2184 50.8652 39.0439V39.0583Z" fill="white"/>
<path d="M59.4453 60.9166C59.5388 60.9486 59.6237 61.0013 59.6938 61.0708C59.7638 61.1404 59.8172 61.2249 59.8498 61.318C59.8824 61.4112 59.8934 61.5105 59.8819 61.6085C59.8705 61.7065 59.8369 61.8006 59.7838 61.8838L59.4576 60.9043L59.4453 60.9166Z" fill="white"/>
<path d="M50.5781 37.82C50.6704 37.9061 50.8325 37.9839 50.8427 38.0802C50.8671 38.4055 50.8739 38.7317 50.8633 39.0577L50.8756 39.0454C50.7894 38.945 50.6479 38.8528 50.6315 38.7421C50.5904 38.4327 50.6007 38.1274 50.5904 37.8057L50.5781 37.82Z" fill="white"/>
<path d="M40.8711 63.109H42.0301L42.0178 63.0967C41.9255 63.1848 41.8127 63.3569 41.7388 63.3467C41.4455 63.3057 41.0496 63.5659 40.8834 63.0967L40.8711 63.109Z" fill="white"/>
<path d="M47.248 57.2705L47.1926 58.4856C46.889 58.0225 46.969 57.5103 47.2603 57.2849L47.248 57.2705Z" fill="white"/>
<path d="M42.0397 63.1055C42.1772 62.9971 42.3282 62.9069 42.4889 62.8371C42.6585 62.8104 42.831 62.8062 43.0017 62.8248L42.9894 62.8125C42.8889 62.8965 42.7986 63.0297 42.6838 63.0543C42.4665 63.0859 42.2469 63.0989 42.0273 63.0932L42.0397 63.1055Z" fill="white"/>
<path d="M47.5748 47.9024V47.0459L47.7799 47.0643C47.7799 47.3512 48.0076 47.6791 47.5625 47.884L47.5748 47.9024Z" fill="white"/>
<path d="M28.9766 57.3277C29.0586 57.3544 29.192 57.3564 29.2145 57.4097C29.4402 57.9117 29.6248 58.4342 29.8668 58.926C29.9978 59.1283 30.1388 59.324 30.2894 59.5121C30.3866 59.6708 30.4224 59.8596 30.3899 60.0428C29.6022 59.2908 29.0607 58.424 28.9889 57.3154L28.9766 57.3277Z" fill="white"/>
<path d="M28.3086 55.5153C28.403 55.544 28.565 55.5543 28.5794 55.6034C28.725 56.171 28.8501 56.7448 28.9896 57.3186V57.3063C28.9117 57.2591 28.7845 57.2243 28.764 57.1608C28.604 56.6096 28.4645 56.0542 28.3209 55.501L28.3086 55.5153Z" fill="white"/>
<path d="M28.0524 54.5345C27.9459 54.436 27.8577 54.3195 27.7918 54.1903C27.7282 53.9382 27.6816 53.6822 27.6523 53.4239C27.8411 53.2989 28.0298 53.2333 28.0318 53.6493C28.0318 53.9485 28.0318 54.2476 28.0318 54.5468L28.0524 54.5345Z" fill="white"/>
<path d="M28.3223 55.5023C27.8813 55.279 28.1418 54.8569 28.0475 54.5352L28.0352 54.5475C28.1275 54.6376 28.2834 54.7155 28.2998 54.8179C28.3238 55.0494 28.3272 55.2826 28.31 55.5146L28.3223 55.5023Z" fill="white"/>
</svg>
