<svg width="109" height="117" viewBox="0 0 109 117" fill="none" xmlns="http://www.w3.org/2000/svg">
<path d="M91.9291 60.193C91.9291 63.3466 91.9537 66.5002 91.9147 69.6538C91.9152 70.7086 91.8024 71.7603 91.5783 72.791C91.4614 73.2931 91.4183 73.791 91.3178 74.2848C91.1988 74.8586 90.9711 75.4098 90.8131 75.9774C90.6634 76.5081 90.5629 77.0553 90.4029 77.5819C90.2593 78.0368 90.048 78.4692 89.8798 78.9138C89.7506 79.256 89.6562 79.6085 89.5229 79.9384C89.3177 80.4671 89.1003 80.9978 88.8521 81.5101C88.6039 82.0223 88.3249 82.4895 88.0562 82.9772C87.8367 83.3748 87.6213 83.7744 87.3936 84.1678C87.0059 84.8358 86.6366 85.5182 86.2141 86.1636C85.4612 87.3111 84.7186 88.471 83.892 89.5631C82.7617 91.057 81.6211 92.5528 80.3616 93.9339C79.3153 95.0398 78.1888 96.0672 76.9913 97.0076C76.3328 97.5424 75.5184 97.8826 74.7738 98.3129C73.7645 98.8928 72.6773 99.319 71.7276 100.04C71.0855 100.528 70.2178 100.715 69.4711 101.065C68.6013 101.475 67.6577 101.512 66.751 101.721C65.8444 101.93 64.9848 101.755 64.1602 101.991C62.7694 102.389 61.354 102.128 59.9632 102.307C56.5518 102.743 53.1282 102.499 49.7065 102.469C48.4757 102.458 47.2449 102.317 46.0141 102.206C45.2654 102.137 44.4859 102.12 43.7885 101.883C43.1833 101.678 42.5782 101.739 41.9935 101.606C40.8366 101.342 39.6878 101.028 38.5535 100.678C37.8396 100.456 37.1545 100.139 36.4611 99.858C35.6508 99.526 34.7975 99.2658 34.0487 98.8334C33.1078 98.2819 32.2157 97.6512 31.382 96.9482C30.5902 96.2822 29.9461 95.4523 29.1604 94.77C28.6804 94.3479 28.0568 94.0938 27.5317 93.7167C26.6455 93.0876 25.747 92.4668 24.9285 91.7537C24.2282 91.1193 23.5755 90.4344 22.9757 89.7045C22.6987 89.323 22.4609 88.9145 22.2659 88.4853C21.8679 87.7599 21.4638 87.0345 21.0884 86.2968C20.9602 86.0012 20.8479 85.6988 20.752 85.3911C20.5243 84.7907 20.311 84.1842 20.0525 83.5961C19.6956 82.7764 19.2874 81.9855 18.9284 81.1699C18.7725 80.8195 18.7007 80.4322 18.5591 80.0736C18.4176 79.715 18.2432 79.4015 18.0955 79.0593C17.9622 78.7499 17.835 78.4446 17.7284 78.1188C17.4904 77.4159 17.2771 76.7049 17.0309 76.0061C16.8812 75.584 16.676 75.1865 16.5181 74.7602C16.3991 74.4447 16.3129 74.1148 16.2227 73.7869C16.0811 73.2644 15.9642 72.7337 15.8124 72.2132C15.6709 71.7337 15.4924 71.2665 15.3283 70.7931C15.3048 70.7526 15.2848 70.7101 15.2688 70.6661C15.1539 70.0288 15.078 69.3813 14.9262 68.7542C14.5755 67.3199 14.6308 65.8527 14.6206 64.3957C14.5894 63.6195 14.6065 62.8421 14.6719 62.0679C14.7662 61.2893 15.0042 60.527 15.1765 59.7565C15.2955 59.2176 15.3816 58.6725 15.5293 58.1377C15.677 57.6029 15.8596 57.0558 16.0278 56.5148C16.0608 56.4428 16.0876 56.368 16.1078 56.2914C16.2288 55.439 16.3827 54.5886 16.4545 53.7321C16.5858 52.1624 16.6329 50.5846 16.7909 49.0191C16.8627 48.3265 17.1294 47.6564 17.2894 46.97C17.4371 46.3552 17.5376 45.7159 17.6996 45.0991C17.8227 44.6483 18.0196 44.218 18.1817 43.7754C18.2986 43.4496 18.4053 43.1176 18.5284 42.7938C18.8545 41.925 19.1745 41.0541 19.5233 40.1955C19.7469 39.6484 20.0299 39.1238 20.2679 38.5808C20.5346 37.9763 20.7643 37.3513 21.0454 36.753C21.2792 36.251 21.5746 35.7776 21.8228 35.2817C22.071 34.7858 22.2844 34.2695 22.5387 33.7756C22.91 33.0584 23.2977 32.3412 23.6916 31.6404C24.1018 30.9007 24.5121 30.1569 24.9675 29.4376C25.2896 28.9274 25.6916 28.4663 26.0239 27.9602C26.7795 26.8661 27.6183 25.8316 28.5327 24.866C29.5276 23.7595 30.3892 22.5259 31.4292 21.4645C32.1895 20.7299 33.0328 20.0862 33.9421 19.5465C34.898 18.9461 35.936 18.4748 36.9391 17.9522C37.456 17.6818 37.9647 17.3949 38.5001 17.1633C38.9104 16.9912 39.3412 16.9092 39.7576 16.7699C40.2171 16.6142 40.6663 16.4297 41.1238 16.272C41.4602 16.1552 41.7987 16.0425 42.1494 15.9584C42.7525 15.8089 43.3597 15.6839 43.9669 15.5486L46.3895 15.0056C46.4362 14.9958 46.4835 14.9889 46.5311 14.9851C47.7927 14.8806 49.0234 14.7536 50.2871 14.6613C51.7517 14.5589 53.2205 14.4257 54.6892 14.4318C56.1252 14.4318 57.5611 14.5855 58.997 14.7044C59.6475 14.7668 60.294 14.8653 60.9335 14.9995C61.7868 15.1695 62.6443 15.3335 63.4751 15.5835C64.2033 15.8027 64.8946 16.1449 65.6085 16.4195C65.9633 16.5547 66.3367 16.6367 66.6874 16.7822C67.2926 17.0322 67.8936 17.2965 68.4803 17.5834C69.147 17.9092 69.7993 18.2637 70.4537 18.608C70.6691 18.7207 70.8783 18.8395 71.0855 18.9645L73.0732 20.1817C73.7215 20.5772 74.384 20.9522 75.0138 21.3784C75.5843 21.7559 76.1323 22.1665 76.6549 22.6079C77.4558 23.2678 78.2207 23.9703 78.9462 24.7123C79.5021 25.3066 79.9329 26.0176 80.415 26.6815C80.7493 27.1405 81.0837 27.6036 81.4057 28.0708C81.8755 28.7532 82.335 29.4397 82.7965 30.12C83.3484 30.9396 83.892 31.7736 84.4376 32.5953C84.7884 33.1158 85.1535 33.6199 85.5084 34.1445C86.2223 35.1834 86.9587 36.2059 87.6377 37.2673C88.0172 37.8616 88.29 38.5214 88.6305 39.1423C88.8849 39.6074 89.2131 40.0378 89.4346 40.5173C89.7054 41.1033 89.8962 41.7262 90.1259 42.3307C90.2839 42.7406 90.4624 43.1504 90.606 43.5602C90.753 43.9705 90.8776 44.3884 90.9793 44.8122C91.1167 45.4126 91.2378 46.0171 91.3383 46.6257C91.527 47.765 91.6993 48.9084 91.8757 50.0518C91.9028 50.224 91.9165 50.398 91.9168 50.5723C91.9168 53.7717 91.9168 56.9697 91.9168 60.1663L91.9291 60.193ZM51.6368 16.6654L51.6266 16.5486C51.5076 16.6121 51.3907 16.7269 51.2697 16.7289C50.0389 16.7515 48.8286 16.7289 47.6203 17.0178C46.7998 17.2084 45.9341 17.2617 45.089 17.3785C45.0583 17.3862 45.0282 17.3958 44.9987 17.4072C44.3833 17.5875 43.7802 17.7596 43.1731 17.9481C42.8982 18.0322 42.6356 18.1531 42.3628 18.2432C41.6715 18.4645 40.9433 18.6059 40.2909 18.9092C39.3781 19.3313 38.5186 19.8682 37.6406 20.362C36.8816 20.7882 36.0878 21.1673 35.3842 21.6612C34.3954 22.3517 33.4621 23.1222 32.5123 23.8742C32.1076 24.1568 31.7385 24.4871 31.4128 24.8578C30.7358 25.741 30.182 26.7143 29.4763 27.575C28.6558 28.5852 27.7142 29.4991 26.865 30.4868C26.582 30.8622 26.3399 31.2669 26.1429 31.6937C25.9644 32.0216 25.8516 32.3863 25.6567 32.7039C25.4619 33.0215 25.1337 33.3002 24.9634 33.6424C24.506 34.5522 24.1039 35.4866 23.6772 36.4128C23.5582 36.671 23.427 36.9251 23.3039 37.1833C23.0269 37.7612 22.7398 38.3349 22.4833 38.9169C22.1633 39.6218 21.8679 40.3349 21.552 41.0439C21.2587 41.7119 20.9366 42.3717 20.6618 43.0438C20.5202 43.3799 20.4259 43.7364 20.2987 44.0786C20.1346 44.5151 19.9253 44.9393 19.794 45.386C19.6217 45.9679 19.4987 46.5663 19.3653 47.1585C19.1889 47.9474 18.9858 48.7343 18.8648 49.5334C18.7438 50.3326 18.6843 51.1727 18.6309 52.0026C18.5817 52.7751 18.6104 53.5538 18.5407 54.3243C18.4709 55.0947 18.3232 55.7976 18.2084 56.5332C18.2039 56.5482 18.1977 56.5627 18.1899 56.5763C18.0135 57.109 17.8186 57.6357 17.6668 58.1746C17.4473 58.9553 17.2217 59.7381 17.0699 60.5331C16.9181 61.3282 16.7335 62.197 16.7499 63.0269C16.7847 64.7318 16.4791 66.4531 16.994 68.1497C17.1991 68.8403 17.2278 69.5841 17.3386 70.3075C17.348 70.3704 17.3638 70.4322 17.3858 70.4919C17.5519 70.9366 17.7325 71.3751 17.8822 71.8238C18.032 72.2726 18.1468 72.7459 18.2925 73.2049C18.393 73.5369 18.4976 73.8668 18.6289 74.1906C18.793 74.6147 18.9797 75.0307 19.1438 75.4549C19.2874 75.8278 19.4063 76.211 19.554 76.586C19.7284 77.0532 19.9192 77.5143 20.0915 77.9815C20.2187 78.3257 20.2966 78.6843 20.4484 79.0224C20.8218 79.922 21.2279 80.8093 21.5951 81.7129C21.8413 82.3174 22.0054 82.9527 22.2741 83.5571C22.6269 84.3768 23.0126 85.1821 23.4146 85.9813C23.8372 86.8214 24.2147 87.7046 24.7583 88.4648C25.3165 89.1968 25.952 89.8666 26.6537 90.4627C27.1604 90.9197 27.7778 91.2516 28.3399 91.6492C28.9327 92.059 29.5317 92.4688 30.0979 92.9299C30.664 93.3909 31.1974 93.8786 31.7389 94.3643C32.3441 94.9175 32.9103 95.5179 33.5462 96.0343C33.8867 96.313 34.338 96.4585 34.738 96.6695C35.218 96.9216 35.6939 97.188 36.1739 97.4318C36.5247 97.608 36.8878 97.7679 37.2509 97.9174C37.8437 98.1654 38.4345 98.4236 39.0437 98.6305C39.534 98.7986 40.0489 98.8949 40.5535 99.024C41.653 99.3006 42.7464 99.6059 43.8541 99.8436C44.5474 99.9932 45.2593 99.9604 45.9731 100.098C47.2696 100.35 48.6399 100.04 49.9527 100.436C53.2348 100.364 56.517 100.731 59.7991 100.215C61.1407 100.01 62.5109 100.174 63.8853 99.9604C65.3418 99.735 66.8536 99.7903 68.269 99.2924C69.069 99.0096 69.9101 98.7268 70.5891 98.2392C71.5327 97.5547 72.6014 97.1367 73.5902 96.5568C74.2056 96.1921 74.901 95.9421 75.4938 95.5322C76.0866 95.1224 76.6056 94.5917 77.1656 94.1245C78.6323 92.895 79.8324 91.4217 81.0303 89.9586C81.5863 89.2824 82.056 88.5447 82.5853 87.8378C82.8724 87.4464 83.2007 87.0796 83.455 86.6698C83.9227 85.928 84.3412 85.1575 84.8027 84.4157C85.1576 83.8399 85.5905 83.3072 85.9105 82.715C86.4459 81.7252 86.9361 80.7048 87.4161 79.6904C87.5565 79.3857 87.6751 79.0714 87.771 78.7499C87.8982 78.3401 87.9762 77.9302 88.1218 77.5204C88.3844 76.752 88.7126 76.002 88.9423 75.2213C89.1995 74.3295 89.405 73.4237 89.5577 72.5082C89.7294 71.5025 89.8254 70.4854 89.8449 69.4653C89.8839 64.8261 89.8449 60.1848 89.89 55.5456C89.9167 53.0067 89.7054 50.4842 89.5495 47.9638C89.5454 47.8534 89.531 47.7436 89.5064 47.6359C89.3362 46.9515 89.1577 46.2692 88.9854 45.5868C88.8562 45.0725 88.7433 44.5622 88.5998 44.0458C88.5095 43.7255 88.395 43.4124 88.2572 43.1094C88.011 42.5643 87.7382 42.0295 87.4777 41.4906C87.131 40.7775 86.8397 40.0337 86.4295 39.3636C85.8141 38.3595 85.1104 37.4087 84.452 36.4313C83.8133 35.4887 83.1788 34.542 82.5483 33.5912C82.1483 32.9928 81.7627 32.3884 81.3586 31.7921C81.0632 31.3535 80.7432 30.9314 80.4437 30.4929C80.1442 30.0544 79.9083 29.6446 79.6231 29.2266C79.3031 28.7532 78.979 28.2799 78.6385 27.8209C78.1836 27.1538 77.689 26.5147 77.1574 25.907C76.547 25.2619 75.8842 24.6684 75.1759 24.1324C74.3943 23.5341 73.5512 23.0156 72.7266 22.4767C72.1583 22.1058 71.5799 21.7534 71.0014 21.403C70.4229 21.0526 69.8609 20.7124 69.2742 20.3948C68.6342 20.0465 67.9853 19.7159 67.3275 19.403C66.6957 19.1039 66.0563 18.8218 65.4095 18.5567C65.0628 18.4154 64.6915 18.3334 64.3407 18.2002C63.8976 18.0322 63.4771 17.8027 63.0258 17.6715C62.2586 17.4441 61.4791 17.2494 60.6955 17.0875C60.0124 16.9461 59.317 16.8498 58.6237 16.772C57.5508 16.649 56.4739 16.8027 55.3846 16.5424C54.5313 16.3375 53.5877 16.4974 52.683 16.5056C52.564 16.5056 52.4492 16.5916 52.3281 16.608C52.1004 16.6388 51.8686 16.647 51.6368 16.6654Z" fill="white"/>
<path d="M66.7123 1.17773C67.2313 1.29658 67.6457 1.39699 68.06 1.48715C68.2296 1.52302 68.4018 1.54563 68.5749 1.55477C69.5794 1.61298 70.5495 1.94074 71.3832 2.50352C71.7146 2.70635 71.998 2.97871 72.2137 3.30174C72.4294 3.62476 72.5723 3.99075 72.6324 4.37437C72.7576 5.17353 72.177 6.35178 71.4304 6.71653C71.1883 6.83538 70.9237 6.92144 70.6898 7.04644C70.5466 7.12978 70.4278 7.24919 70.3452 7.39274C70.3206 7.43372 70.4703 7.59765 70.5503 7.67552C70.856 7.99314 71.1657 8.30255 71.4775 8.61607C71.4898 8.62632 71.5042 8.63656 71.5083 8.64886C71.615 9.05868 71.8016 9.46851 71.8099 9.87833C71.8366 10.3833 71.7293 10.8863 71.4987 11.3365C71.2682 11.7867 70.9226 12.168 70.497 12.4418C69.5862 13.0319 68.5441 13.2614 67.4487 12.9049C67.2805 12.8582 67.1091 12.8239 66.9359 12.8024C66.2979 12.6877 65.6559 12.5975 65.022 12.4541C64.8685 12.4192 64.7252 12.3488 64.6038 12.2486C64.4825 12.1484 64.3863 12.0211 64.3231 11.8771C64.2598 11.733 64.2313 11.5761 64.2397 11.419C64.2482 11.2619 64.2934 11.109 64.3717 10.9726C64.4422 10.8524 64.4966 10.7236 64.5338 10.5894C64.6712 9.90292 64.7697 9.20622 64.9297 8.52591C65.0651 7.95215 65.2682 7.39479 65.4425 6.82923C65.4425 6.81489 65.4425 6.79849 65.4528 6.78415C65.5718 6.13253 65.6579 5.47476 65.8179 4.83133C65.9779 4.1879 66.1666 3.61415 66.3451 3.00761C66.3574 2.96048 66.3759 2.91744 66.3841 2.87031C66.4867 2.35803 66.5851 1.8437 66.7123 1.17773ZM66.7697 7.13045C66.46 7.37635 66.3882 7.75544 66.3431 8.196C66.2815 8.78 66.1379 9.35581 66.019 9.93571C66.019 9.9644 65.9923 9.99104 65.9861 10.0218C65.902 10.4726 65.8138 10.9234 65.74 11.3762C65.7365 11.4154 65.7431 11.4549 65.7593 11.4908C65.7755 11.5266 65.8006 11.5578 65.8323 11.5812C66.1028 11.7277 66.395 11.8301 66.6979 11.8844C67.4303 11.9377 68.1687 12.0893 68.9052 11.9172C69.044 11.895 69.1783 11.8507 69.3031 11.7861C69.668 11.5457 69.9613 11.2116 70.1524 10.8189C70.3162 10.5508 70.4136 10.2475 70.4364 9.93417C70.4592 9.62089 70.4069 9.30669 70.2837 9.0177C69.8365 8.00953 68.8621 7.56282 67.8221 7.32307C67.4857 7.24725 67.1533 7.20012 66.7697 7.13045ZM71.3688 4.6715C71.2806 4.40101 71.2047 4.12643 71.1042 3.85185C71.0299 3.63231 70.8993 3.43604 70.7255 3.28254C70.5516 3.12904 70.3406 3.02366 70.1134 2.97687C69.4795 2.82318 68.8724 2.56704 68.2385 2.41336C67.8282 2.31705 67.6231 2.53426 67.578 2.98302C67.5164 3.57521 67.3728 4.15717 67.2498 4.74117C67.2354 4.80674 67.1595 4.86002 67.1164 4.92354C66.782 5.42558 67.0097 6.35793 67.5267 6.33949C68.3472 6.29851 69.1042 6.95423 69.9883 6.44399C70.5196 6.14687 71.4529 5.54443 71.3688 4.67969V4.6715Z" fill="white"/>
<path d="M46.5077 11.4979C45.7631 11.6372 45.0533 11.7499 44.3559 11.9077C43.6584 12.0655 42.9405 12.2786 42.2307 12.4486C42.0481 12.4917 41.8471 12.4486 41.6625 12.4794C41.363 12.5368 41.0696 12.6228 40.7743 12.7068C40.4789 12.7909 40.2881 12.8154 40.2368 12.4282C40.1322 11.6433 40.0317 10.8544 39.8737 10.0778C39.7363 9.3934 39.527 8.72333 39.3506 8.04712C39.3452 8.01595 39.3418 7.98447 39.3404 7.95286C39.2193 7.13321 39.1065 6.31356 38.9732 5.4939C38.8768 4.89146 38.8481 4.26443 38.6204 3.70502C38.405 3.18659 38.4152 2.68045 38.3434 2.15792C38.2892 1.98747 38.209 1.82641 38.1055 1.68048C38.1301 1.64974 38.1465 1.60876 38.167 1.60466C39.0286 1.48581 39.8963 1.39975 40.7496 1.24606C41.4409 1.11697 42.1117 0.87312 42.801 0.725583C43.2145 0.658695 43.6317 0.616952 44.0502 0.600586C44.282 1.42024 44.0502 1.74195 43.2502 1.83006C42.3517 1.92022 41.4553 2.03498 40.563 2.18456C40.2895 2.23504 40.03 2.34333 39.8019 2.50218C39.6994 2.5739 39.6706 2.81364 39.685 2.96938C39.7055 3.17429 39.8306 3.36076 39.8655 3.56158C39.9886 4.29312 40.0706 5.03285 40.2245 5.75824C40.2585 5.84558 40.3139 5.92303 40.3855 5.98352C40.4572 6.044 40.5429 6.08561 40.6348 6.10455C41.0128 6.06514 41.3873 5.99663 41.7548 5.89963C41.7856 5.89963 41.8122 5.87504 41.843 5.87094C42.7087 5.748 43.5743 5.62095 44.442 5.51849C44.5032 5.52605 44.5619 5.54729 44.6138 5.58064C44.6656 5.61399 44.7093 5.65859 44.7415 5.71111C44.8293 5.89459 44.9013 6.08515 44.9569 6.28077C44.9446 6.29511 44.9302 6.33815 44.9077 6.34224C44.2225 6.46314 43.5374 6.57584 42.8564 6.70289C42.2779 6.80944 41.6953 6.9078 41.1271 7.06354C40.943 7.14497 40.776 7.26038 40.6348 7.40369C40.6963 7.79712 40.7353 8.12089 40.8009 8.42826C40.9917 9.34627 41.1907 10.2725 41.404 11.1761C41.4322 11.2258 41.4726 11.2675 41.5214 11.2973C41.5702 11.3271 41.6259 11.3439 41.683 11.3462C42.2307 11.252 42.8379 11.4528 43.3241 11.0307C43.3372 11.021 43.3529 11.0153 43.3692 11.0143C44.2287 10.9016 45.0882 10.7766 45.9498 10.6782C46.2 10.6557 46.2041 10.6802 46.5077 11.4979Z" fill="white"/>
<path d="M59.0256 0C59.085 0.522528 59.1056 0.887273 58.802 1.2889C58.0266 2.31347 57.3394 3.40565 56.5968 4.45685C56.2583 4.93635 55.848 5.36667 55.5075 5.84821C55.1424 6.36255 54.8306 6.91581 54.4818 7.44039C54.1577 7.90964 53.8357 8.36454 53.5013 8.81125C53.2552 9.14526 52.9823 9.46288 52.7464 9.80508C52.7198 9.84401 52.8346 10.0571 52.9085 10.0735C53.1136 10.1186 53.3516 10.0858 53.569 10.1145C53.9649 10.1698 54.3567 10.26 54.7526 10.3092C54.9719 10.3225 55.1918 10.3225 55.4111 10.3092C56.4737 10.3092 57.5363 10.3092 58.5989 10.3092C58.9886 10.3092 59.0645 10.4833 59.0707 10.8337C59.0768 11.1841 58.9066 11.2764 58.5825 11.2743C56.2193 11.2559 53.8644 11.2538 51.4951 11.2374C51.3064 11.2374 50.9597 11.1739 50.9536 11.1165C50.9269 10.8153 50.8818 10.4342 51.0315 10.2088C51.7187 9.18419 52.4674 8.2211 53.1936 7.23138C53.7188 6.51213 54.2459 5.79699 54.7588 5.0675C55.4603 4.06957 56.1516 3.0614 56.847 2.05733C56.9763 1.87085 57.1199 1.69053 57.2409 1.49791C57.3619 1.30529 57.1917 1.01842 56.8737 1.00202C56.1783 0.96514 55.4829 0.928255 54.7854 0.91801C53.82 0.905715 52.8531 0.905715 51.8849 0.91801C51.5505 0.91801 51.4869 0.764325 51.5033 0.479496C51.5156 0.23565 51.4746 0 51.8459 0.00204913C54.2234 0 56.6009 0 59.0256 0Z" fill="white"/>
<path d="M107.148 48.7959C107.392 48.9228 107.617 49.0812 107.819 49.2672C108.39 49.9188 108.106 50.6668 107.286 50.8532C106.671 50.9926 106.072 51.2077 105.466 51.3901C105.436 51.3901 105.407 51.4126 105.376 51.4188C104.773 51.5294 104.164 51.6114 103.573 51.761C103.031 51.8962 102.512 52.1155 101.975 52.2774C101.53 52.4106 101.072 52.513 100.621 52.6257C100.123 52.7487 99.5647 52.7671 99.1401 53.0171C98.6416 53.3101 98.1513 53.2036 97.6549 53.2753C97.2016 53.3388 97.0539 52.9823 96.9636 52.7343C96.8562 52.4277 96.8746 52.091 97.0149 51.7979C97.38 51.2016 98.0406 51.0315 98.6888 50.8881C99.337 50.7446 99.9975 50.5274 100.65 50.3409C100.695 50.3286 100.738 50.3041 100.783 50.2959C101.384 50.1791 101.991 50.0909 102.586 49.9434C103.118 49.8164 103.637 49.6319 104.162 49.4701C104.203 49.448 104.245 49.4289 104.289 49.4127C104.99 49.2795 105.692 49.1545 106.392 49.0152C106.615 48.9742 106.831 48.8902 107.148 48.7959Z" fill="white"/>
<path d="M101.109 27.3652C101.815 27.4288 102.398 27.9636 102.262 28.5947C102.191 28.9226 101.852 29.3836 101.569 29.441C100.777 29.6029 100.178 30.0557 99.5607 30.4902C98.894 30.9594 98.2458 31.4553 97.6058 31.9594C96.9207 32.5004 96.3073 33.1479 95.5689 33.5987C94.9924 33.9491 94.5165 34.6233 93.6509 34.3897C93.5055 34.3478 93.3718 34.2731 93.2599 34.1714C93.1481 34.0697 93.0612 33.9437 93.0059 33.8031C92.9505 33.6625 92.9283 33.511 92.9409 33.3605C92.9535 33.2099 93.0006 33.0643 93.0785 32.9348C93.536 32.2606 94.2211 31.8672 94.8468 31.3918C95.8724 30.6233 96.8448 29.8098 97.8622 29.0435C98.2439 28.7845 98.6435 28.5531 99.0582 28.3509C99.5176 28.1009 99.9771 27.855 100.445 27.6214C100.656 27.521 100.888 27.4574 101.109 27.3652Z" fill="white"/>
<path d="M104.823 38.3429C105.521 38.1954 105.888 38.6687 106.216 39.1175C106.544 39.5662 105.916 40.4433 105.313 40.4556C104.551 40.4867 103.805 40.6862 103.129 41.0396C102.829 41.1851 102.485 41.2445 102.181 41.3797C101.596 41.6543 101.032 41.9699 100.45 42.2506C100.156 42.392 99.8343 42.4822 99.5368 42.6174C99.0281 42.849 98.5317 43.1051 98.0209 43.3346C97.6681 43.4944 97.2845 43.7711 96.9501 43.726C96.7572 43.6841 96.5747 43.6036 96.4136 43.4896C96.2525 43.3755 96.1161 43.2301 96.0126 43.0621C95.8834 42.8387 95.9798 42.349 96.1562 42.1133C96.3778 41.8182 96.7716 41.642 97.1122 41.4535C97.6537 41.1543 98.2096 40.8736 98.7717 40.6093C99.3009 40.3613 99.8507 40.1584 100.384 39.9146C100.969 39.6462 101.537 39.3449 102.122 39.0745C102.403 38.943 102.695 38.8374 102.995 38.7589C103.609 38.6032 104.222 38.4802 104.823 38.3429Z" fill="white"/>
<path d="M21.2846 93.9919C21.4179 94.6067 20.8743 94.871 20.581 95.2214C19.8589 96.0923 19.0507 96.8915 18.2794 97.7234C17.5081 98.5554 16.7737 99.3463 16.0373 100.182C15.7029 100.559 15.4219 100.961 14.9378 101.207C14.546 101.412 14.2116 101.432 13.8834 101.1C13.3254 100.539 13.3193 100.145 13.8403 99.5594C14.7983 98.4836 15.7358 97.3894 16.7122 96.33C17.6886 95.2706 18.7122 94.2296 19.7092 93.1764C19.9718 92.8998 20.2959 92.7973 20.5995 92.9961C20.942 93.2194 21.4159 93.4161 21.2846 93.9919Z" fill="white"/>
<path d="M90.0154 25.5953C89.5128 25.6301 89.2544 25.249 89.0554 24.9273C88.9584 24.7793 88.9193 24.6009 88.9454 24.426C88.9715 24.2511 89.061 24.0918 89.1969 23.9785C89.7056 23.542 90.2328 23.1281 90.7293 22.6814C91.4595 22.0277 92.1652 21.3515 92.8914 20.6897C93.7303 19.9253 94.5324 19.1098 95.4371 18.4356C95.8165 18.1508 96.4135 18.1385 96.9202 18.0524C97.035 18.0319 97.193 18.2082 97.3161 18.3127C97.8535 18.7737 97.6176 19.788 96.9817 20.0934C96.3992 20.365 95.859 20.719 95.3776 21.1446C94.2514 22.1691 93.2032 23.2859 92.0811 24.3187C91.5588 24.7553 91.0048 25.1526 90.4236 25.5072C90.294 25.561 90.1557 25.5909 90.0154 25.5953Z" fill="white"/>
<path d="M84.0325 18.7039C83.731 18.499 83.3105 18.3781 83.2489 18.1547C83.1546 17.8064 83.1771 17.2982 83.3782 17.0216C83.9936 16.163 84.7238 15.3823 85.411 14.5626C86.4552 13.3331 87.5239 12.1303 88.5352 10.8742C88.847 10.4869 89.085 10.0873 89.6265 10.0115C90.0778 9.94591 90.5127 10.0607 90.683 10.452C90.8532 10.8434 90.9025 11.2717 90.5578 11.6446C89.8317 12.4479 89.1219 13.2675 88.4285 14.1036C87.6675 15.0114 86.9413 15.9478 86.1721 16.8494C85.7412 17.3516 85.2838 17.8304 84.8018 18.2838C84.6233 18.4641 84.3484 18.54 84.0325 18.7039Z" fill="white"/>
<path d="M99.9385 62.7653C99.3743 62.665 98.8172 62.5281 98.2708 62.3554C97.9118 62.2202 97.7559 61.8411 97.7846 61.4333C97.8092 61.0993 97.7559 60.7817 98.1784 60.5625C98.3644 60.4562 98.5729 60.3955 98.7869 60.3855C99.0009 60.3756 99.2142 60.4165 99.4092 60.5051C99.8934 60.6772 100.494 60.5481 101.05 60.5051C101.305 60.4887 101.551 60.3575 101.807 60.3268C102.909 60.1936 104.014 60.083 105.116 59.9518C105.766 59.8739 106.412 59.7367 107.065 59.6875C107.506 59.6567 107.781 59.9969 107.834 60.4334C107.953 61.4087 107.512 61.7489 106.603 61.7981C105.59 61.8534 104.552 61.8903 103.584 62.1731C102.878 62.378 102.195 62.294 101.512 62.4087C100.989 62.4989 100.482 62.6444 99.9385 62.7653Z" fill="white"/>
<path d="M6.07065 90.801C6.05629 90.0325 6.50553 89.5858 7.28298 89.5161C7.53842 89.4758 7.78082 89.3761 7.99069 89.2252C8.92405 88.633 9.84714 88.0223 10.7702 87.4117C11.6503 86.8297 12.52 86.2314 13.4041 85.6576C13.8144 85.3933 14.6124 85.588 14.8401 85.9752C14.9515 86.2182 14.9783 86.4915 14.9163 86.7514C14.8542 87.0114 14.7068 87.2431 14.4975 87.4096C13.677 87.9629 12.8852 88.5387 12.0646 89.0838C11.2441 89.6288 10.3969 90.1452 9.56611 90.6801C8.96302 91.0673 8.38455 91.4997 7.7671 91.8501C7.02041 92.2661 6.08706 91.6718 6.07065 90.801Z" fill="white"/>
<path d="M30.4663 14.7857C30.6407 15.4517 30.0294 15.5542 29.6971 15.7611C29.3648 15.9681 28.9381 15.7611 28.7063 15.462C28.2407 14.8472 27.8304 14.1976 27.4037 13.5583C27.0283 12.9928 26.655 12.4272 26.298 11.8493C26.0457 11.4395 25.8324 11.0031 25.5821 10.5891C25.3319 10.1752 25.0734 9.83095 24.8416 9.43752C24.6655 9.1572 24.521 8.85825 24.4108 8.54615C24.3 8.206 24.778 7.47651 25.1308 7.3761C25.3817 7.30262 25.6503 7.31748 25.8915 7.4182C26.1328 7.51892 26.3321 7.69938 26.456 7.92936C26.6581 8.32658 26.8841 8.71116 27.1329 9.08097C27.3852 9.47441 27.6683 9.84735 27.9165 10.2428C28.1647 10.6383 28.3719 11.0358 28.6037 11.4293C28.9012 11.9375 29.1945 12.4538 29.5125 12.9477C29.7709 13.3575 30.0827 13.7345 30.333 14.1505C30.4092 14.3544 30.4541 14.5685 30.4663 14.7857Z" fill="white"/>
<path d="M3.07698 81.0725C2.718 80.9311 2.28312 80.8676 2.0185 80.6279C1.75388 80.3881 1.53438 79.927 1.60823 79.6586C1.71695 79.2939 1.93439 78.8103 2.53749 78.839C3.46469 78.8922 4.34266 78.6463 5.20421 78.3226C5.65346 78.1546 6.14167 78.0992 6.59296 77.9394C6.95288 77.7909 7.3024 77.6184 7.63914 77.423C8.21557 77.1197 8.77558 76.7878 9.36431 76.5132C9.79304 76.3083 10.5561 76.8206 10.6115 77.2919C10.646 77.6043 10.5804 77.9197 10.4241 78.1925C10.2678 78.4654 10.0289 78.6817 9.74176 78.8103C8.88225 79.2058 8.03505 79.6299 7.16323 79.9844C6.7058 80.1393 6.23927 80.2659 5.76628 80.3635C5.15088 80.5336 4.53548 80.7242 3.92008 80.8778C3.65644 80.9252 3.38979 80.9539 3.12211 80.9639L3.07698 81.0725Z" fill="white"/>
<path d="M87.6385 105.905C87.0395 106.11 86.8179 105.631 86.58 105.291C86.1184 104.676 85.7184 104.012 85.2979 103.366C84.8527 102.686 84.3953 102.012 83.9748 101.317C83.6014 100.703 83.1542 100.088 83.1707 99.3092C83.1751 99.1977 83.145 99.0875 83.0845 98.9936C82.7194 98.4834 82.8937 98.0449 83.4948 97.5797C83.8312 97.3215 84.463 97.4506 84.822 97.8359C84.8898 97.9021 84.9326 97.9897 84.943 98.0838C84.9163 98.8092 85.3102 99.4096 85.5974 100.012C85.9379 100.727 86.4569 101.356 86.8918 102.028C87.3779 102.78 87.8251 103.561 88.3523 104.282C88.7298 104.799 88.7277 105.246 88.301 105.678C88.1064 105.824 87.8915 105.94 87.6631 106.024L87.6385 105.905Z" fill="white"/>
<path d="M5.90011 32.3318C6.26935 32.4445 6.99347 32.6555 7.70733 32.8953C8.30317 33.0792 8.88689 33.3003 9.45507 33.5571C10.0705 33.8563 10.6571 34.2436 11.2582 34.5817C11.5262 34.7493 11.8083 34.8933 12.1013 35.012C12.39 35.1087 12.6382 35.2989 12.8065 35.5524C12.9748 35.8059 13.0536 36.1083 13.0305 36.4116C13.0221 36.5923 12.9477 36.7638 12.8215 36.8936C12.6953 37.0234 12.526 37.1027 12.3454 37.1165C11.6992 37.2107 11.172 36.9689 10.6387 36.6185C10.0397 36.2272 9.37917 35.93 8.7453 35.594C8.44171 35.43 8.14632 35.2477 7.83246 35.1063C7.50211 34.9518 7.15893 34.8263 6.8068 34.7313C6.24884 34.5879 5.68062 34.4813 5.11445 34.3788C4.89188 34.3464 4.68724 34.2385 4.53486 34.0732C4.38248 33.9079 4.29162 33.6953 4.27751 33.4711C4.26725 32.7252 4.73496 32.2908 5.90011 32.3318Z" fill="white"/>
<path d="M10.0232 22.4561C10.5997 22.706 11.254 22.9069 11.8305 23.2552C12.7235 23.8046 13.58 24.411 14.3946 25.0707C15.1794 25.7211 15.9241 26.4184 16.6244 27.1588C17.0347 27.583 16.5526 28.5133 15.9454 28.6137C15.2746 28.7243 14.8685 28.2817 14.4315 27.9293C13.5331 27.2039 12.7105 26.3781 11.7648 25.7224C11.1104 25.2675 10.4766 24.7244 9.60477 24.6056C9.35576 24.5741 9.12534 24.4575 8.95259 24.2756C8.77985 24.0937 8.67543 23.8577 8.65705 23.6077C8.64064 23.3208 8.8786 22.9581 9.10629 22.7429C9.29297 22.5708 9.63554 22.5667 10.0232 22.4561Z" fill="white"/>
<path d="M22.1591 21.4171C21.9007 21.2655 21.5848 21.1651 21.392 20.954C20.3253 19.7881 19.2873 18.5894 18.235 17.4172C17.7324 16.8599 17.1867 16.3415 16.6657 15.7984C16.3047 15.4214 16.3621 14.5546 16.7641 14.1591C17.0083 13.9194 17.7426 13.985 18.0708 14.319C19.1211 15.3845 20.1625 16.4589 21.195 17.5422C21.8104 18.2 22.4402 18.8639 23.0084 19.5688C23.1951 19.7983 23.3674 20.2205 23.2792 20.4561C22.9612 21.3106 22.8833 21.3208 22.1591 21.4171Z" fill="white"/>
<path d="M81.7904 6.47407C81.5606 6.96381 81.335 7.45765 81.1012 7.94534C80.9842 8.18919 80.8652 8.43099 80.7319 8.66254C80.334 9.36129 79.8827 10.0334 79.538 10.7567C79.1934 11.4801 78.6334 12.0313 78.4796 12.853C78.3852 13.3632 77.5031 13.6542 77.0129 13.1993C76.3605 12.5969 76.381 12.3243 76.7031 11.5313C77.1626 10.4002 77.9913 9.50678 78.5329 8.43713C78.7852 7.93715 78.978 7.41257 79.2262 6.90848C79.4991 6.36546 79.778 5.82245 80.3381 5.49458C80.4625 5.41089 80.6069 5.36154 80.7566 5.35151C80.9062 5.34149 81.0559 5.37116 81.1904 5.43751C81.3249 5.50386 81.4395 5.60454 81.5225 5.72935C81.6056 5.85417 81.6541 5.99868 81.6632 6.14826C81.6735 6.24252 81.6776 6.33678 81.6837 6.43104L81.7904 6.47407Z" fill="white"/>
<path d="M101.952 87.4605C101.452 87.2556 100.947 87.0507 100.451 86.8273C99.9541 86.604 99.4884 86.3847 99.0146 86.1573C98.473 85.8991 97.9376 85.6245 97.3879 85.3786C96.9981 85.2065 96.5674 85.104 96.2002 84.9073C95.9048 84.7536 95.515 84.5528 95.4268 84.2926C95.2914 83.8827 95.1642 83.3725 95.6566 83.0139C95.9027 82.8336 96.8874 82.809 97.1766 82.9565C97.5335 83.1512 97.9233 83.2844 98.2946 83.4483C98.5736 83.5713 98.8505 83.6942 99.1151 83.8254C99.9388 84.182 100.744 84.58 101.527 85.018C101.886 85.2352 102.225 85.2229 102.584 85.2843C102.943 85.3458 103.242 85.5507 103.263 85.9729C103.283 86.4421 103.404 86.9708 102.832 87.2167C102.565 87.3013 102.29 87.3576 102.012 87.3847L101.952 87.4605Z" fill="white"/>
<path d="M37.7134 109.784C37.5452 109.459 37.4036 109.209 37.2908 108.946C37.2246 108.805 37.1923 108.651 37.1964 108.496C37.2805 107.496 37.3811 106.498 37.4775 105.465L38.3698 105.77C38.2779 106.03 38.2092 106.297 38.1647 106.569C38.1072 107.307 37.976 108.065 38.0949 108.778C38.1626 109.174 38.6365 109.534 38.9934 109.832C39.2644 110.009 39.5687 110.13 39.8878 110.186C39.9501 110.185 40.0111 110.168 40.0652 110.137C40.1194 110.107 40.1649 110.063 40.1975 110.01C40.4293 109.442 40.6242 108.856 40.8519 108.286C41.0365 107.817 41.2622 107.362 41.4673 106.887L42.2017 107.297L39.4427 114.7C38.977 114.536 38.4642 114.356 37.9493 114.18C37.619 114.067 37.2847 113.965 36.9564 113.852C36.3144 113.631 35.9308 113.163 35.5985 112.586C35.406 112.306 35.3181 111.967 35.3502 111.629C35.4153 111.165 35.6359 110.736 35.976 110.414C36.3162 110.091 36.7558 109.893 37.2231 109.852C37.3339 109.834 37.4652 109.819 37.7134 109.784ZM39.9145 110.879C39.695 110.799 39.5309 110.747 39.375 110.674C39.016 110.52 38.6734 110.297 38.298 110.217C37.9856 110.141 37.6576 110.165 37.3589 110.283C37.0603 110.402 36.8057 110.61 36.6303 110.879C36.3739 111.288 36.0005 111.795 36.4539 112.487C36.8641 113.12 37.3216 113.461 38.017 113.581C38.1098 113.588 38.2008 113.611 38.2857 113.649C38.7514 113.936 38.8539 113.879 39.0119 113.364C39.1534 112.905 39.375 112.471 39.5432 112.018C39.6806 111.649 39.7955 111.268 39.9145 110.879Z" fill="white"/>
<path d="M3.10373 55.0078C3.97349 55.139 4.83915 55.2824 5.71097 55.391C6.16735 55.4409 6.62626 55.4642 7.08536 55.4607C7.56537 55.4607 7.9941 55.6144 8.2382 56.0221C8.37975 56.2598 8.48847 56.6369 8.40231 56.8623C8.29359 57.1553 8.14795 57.5549 7.66178 57.5364C6.93356 57.5077 6.16226 57.6717 5.48532 57.4831C4.01041 57.0733 2.54166 57.2782 1.07086 57.2987C0.274941 57.3151 -0.108657 56.8479 0.0267305 56.1471C0.0550019 56.017 0.108691 55.8937 0.184723 55.7844C0.260755 55.675 0.357636 55.5817 0.469818 55.5098C1.00487 55.204 1.61919 55.0649 2.23396 55.1103C2.51892 55.1246 2.80441 55.1246 3.08937 55.1103L3.10373 55.0078Z" fill="white"/>
<path d="M71.6016 105.796C71.8944 105.505 72.2032 105.232 72.5267 104.976C73.2016 104.496 73.8355 103.927 74.7155 103.832C74.8529 103.818 74.9842 103.742 75.1258 103.714C75.415 103.654 75.7412 103.509 75.9914 103.574C76.6766 103.779 77.3945 103.894 77.9771 104.394C78.515 104.86 78.9472 105.436 79.2448 106.082C79.5812 106.765 79.8192 107.439 79.7618 108.209C79.7371 108.699 79.6122 109.179 79.3949 109.619C79.1776 110.058 78.8724 110.449 78.4981 110.767C77.9221 111.228 77.304 111.635 76.6519 111.982C76.375 112.138 76.0181 112.152 75.6263 112.246L75.2981 111.566C75.3508 111.534 75.4082 111.51 75.4683 111.496C76.2601 111.496 76.814 110.982 77.4704 110.666C78.2725 110.283 78.5515 109.56 78.8202 108.902C79.0253 108.416 78.8202 107.748 78.7279 107.173C78.6727 106.855 78.5402 106.556 78.3422 106.302C77.9176 105.761 77.5217 105.146 76.9576 104.781C76.6677 104.581 76.3369 104.448 75.9892 104.392C75.6415 104.336 75.2856 104.357 74.9473 104.455C74.1924 104.712 73.3985 104.974 72.8754 105.646C72.8282 105.716 72.7972 105.795 72.7848 105.879C72.7724 105.962 72.7788 106.047 72.8036 106.127C73.0313 106.599 73.3698 107.023 73.5503 107.507C73.7801 108.121 74.0468 108.257 74.5534 107.806C74.6631 107.703 74.7961 107.628 74.9411 107.588C75.1073 107.55 75.3514 107.498 75.4437 107.588C75.5688 107.707 75.6488 107.923 75.3473 108.076C74.8488 108.338 74.3955 108.691 73.9114 108.961C73.5729 109.152 73.3206 108.902 73.1729 108.654C72.8324 108.078 72.5575 107.47 72.2313 106.879C72.0303 106.517 71.8231 106.177 71.6016 105.796Z" fill="white"/>
<path d="M90.0664 91.2128C90.1218 90.721 90.2715 90.3481 90.6941 90.1759C90.9158 90.099 91.1564 90.0951 91.3805 90.1648C91.6046 90.2345 91.8005 90.3741 91.9393 90.5632C92.3188 91.0591 92.6552 91.5878 93.0716 92.0529C93.6234 92.6677 94.247 93.2189 94.8152 93.8193C95.3835 94.4197 95.923 95.0221 96.446 95.6492C96.6799 95.9319 96.2409 96.6983 95.8306 96.8008C95.5835 96.8716 95.3212 96.8707 95.0746 96.7982C94.8279 96.7256 94.607 96.5843 94.4378 96.3909C94.0378 95.9811 93.5639 95.6266 93.1455 95.2229C92.727 94.8193 92.3393 94.4033 91.9577 93.9935C91.5052 93.519 91.0812 93.0181 90.688 92.4935C90.4448 92.085 90.2369 91.6565 90.0664 91.2128Z" fill="white"/>
<path d="M98.9143 71.0227C99.862 71.1108 100.826 71.1211 101.753 71.3055C102.869 71.5289 103.956 71.8936 105.052 72.2133C105.503 72.3465 105.823 73.2706 105.612 73.7563C105.427 74.1804 104.627 74.4366 104.194 74.2276C103.807 74.0031 103.393 73.8256 102.964 73.6989C102.153 73.5268 101.323 73.4448 100.502 73.3321C99.743 73.2276 98.9676 73.1927 98.2332 72.9981C97.9378 72.9202 97.6527 72.537 97.5112 72.2256C97.345 71.8547 97.5542 71.4838 97.903 71.2809C98.2145 71.1223 98.5366 70.9854 98.8671 70.8711L98.9143 71.0227Z" fill="white"/>
<path d="M7.73849 66.9761C7.88413 67.2445 7.97439 67.4207 8.07491 67.5908C8.31902 68.0006 7.77746 68.7424 7.20104 68.7814C5.46972 68.9023 3.73839 69.0252 2.00707 69.14C1.69117 69.1625 1.37116 69.14 1.0532 69.1584C0.497293 69.1871 0.298314 68.7814 0.0911299 68.3838C-0.0278473 68.1543 0.30652 67.4371 0.583449 67.347C0.733447 67.2964 0.889188 67.2647 1.04705 67.2527C2.4399 67.1585 3.83481 67.0847 5.22561 66.972C5.68306 66.9351 6.13435 66.7363 6.58974 66.7363C7.00411 66.7363 7.41848 66.9044 7.73849 66.9761Z" fill="white"/>
<path d="M66.7963 115.57L62.0352 108.577C62.8557 108.267 63.149 108.427 63.5962 109.253C63.7828 109.664 64.0266 110.047 64.3203 110.39C64.4598 110.529 64.8578 110.421 65.1409 110.402C65.2188 110.402 65.2845 110.279 65.3645 110.261C65.8958 110.14 66.427 110.029 66.9604 109.917C67.2886 109.847 67.543 109.179 67.5327 108.767C67.5187 108.194 67.5773 107.621 67.7071 107.062C67.7337 106.943 68.1748 106.919 68.425 106.857L68.5399 106.991C68.4722 107.177 68.3963 107.362 68.3348 107.552C68.2912 107.685 68.2657 107.823 68.2589 107.962C68.2343 109.101 68.2466 110.243 68.1891 111.382C68.1255 112.611 68.0066 113.822 67.8835 115.04C67.8712 115.16 67.6784 115.296 67.5348 115.359C67.2939 115.447 67.0472 115.518 66.7963 115.57ZM67.3214 110.534C67.2323 110.507 67.1394 110.496 67.0465 110.501C66.3614 110.706 65.6783 110.911 64.9952 111.136C64.9621 111.24 64.9687 111.352 65.0137 111.452C65.2557 111.861 65.5115 112.271 65.7809 112.681C66.1522 113.224 66.5358 113.759 66.9235 114.29C66.9953 114.361 67.0785 114.42 67.1696 114.464C67.229 114.364 67.2719 114.255 67.2968 114.142C67.3132 113.542 67.3132 112.941 67.3153 112.341C67.3173 111.74 67.3214 111.136 67.3214 110.527V110.534Z" fill="white"/>
<path d="M5.33229 43.3494C6.28616 43.4396 7.24003 43.5134 8.19185 43.624C8.69957 43.6811 9.20268 43.7736 9.69752 43.9006C9.90265 43.9539 10.196 44.1179 10.2268 44.2736C10.3304 44.6845 10.3304 45.1147 10.2268 45.5256C10.1098 45.8576 9.70162 45.9969 9.2811 45.9457C8.29031 45.8248 7.29336 45.7408 6.30052 45.6281C5.84307 45.5727 5.39178 45.4231 4.93638 45.4231C4.64715 45.4231 4.35586 45.6281 4.06047 45.6465C3.23993 45.6834 2.81736 44.7551 3.1066 44.0646C3.23813 43.8503 3.44769 43.6953 3.69123 43.6322C4.22457 43.4683 4.77843 43.372 5.33229 43.249V43.3494Z" fill="white"/>
<path d="M24.208 105.907C24.7024 105.313 25.1742 104.756 25.644 104.188C26.0029 103.749 25.9455 103.551 25.4942 103.225C24.9937 102.868 24.5485 102.43 24.0398 102.088C23.6501 101.827 23.6562 101.571 23.929 101.159L26.4317 103.208C26.8583 102.68 27.2932 102.129 27.7384 101.586C27.884 101.411 28.1117 101.282 28.1938 101.088C28.2758 100.893 28.2717 100.594 28.163 100.493C27.6317 100.004 27.0532 99.561 26.487 99.1102C26.3701 99.0179 26.206 98.9811 26.1034 98.8786C25.9829 98.7708 25.9002 98.6271 25.8675 98.4688C25.8552 98.3438 25.9558 98.1184 26.0501 98.0917C26.2056 98.0831 26.3582 98.1361 26.4747 98.2393C27.4225 98.9934 28.3599 99.7638 29.3035 100.522C29.5087 100.69 29.5579 100.823 29.3671 101.053C28.5979 101.977 27.8512 102.922 27.0881 103.852C26.7742 104.233 26.4419 104.598 26.1199 104.969C25.6419 105.52 25.1332 106.051 24.6983 106.633C24.4542 106.958 24.3147 106.868 24.0706 106.669C23.2295 105.991 22.3598 105.346 21.5331 104.647C21.3649 104.503 21.3403 104.19 21.25 103.956L21.4428 103.792C21.6847 103.905 21.9173 104.036 22.1382 104.186C22.8295 104.749 23.5085 105.325 24.208 105.907Z" fill="white"/>
<path d="M45.7225 112.819V112.292C46.5431 112.411 47.3636 112.176 48.1472 112.546C48.7031 112.811 48.9677 112.618 49.0518 112.01C49.1359 111.401 49.2836 110.844 49.3554 110.256C49.4313 109.622 49.1872 109.358 48.5472 109.276C47.7267 109.172 46.8938 109.057 46.0138 108.94C46.0138 108.774 45.9995 108.612 45.9871 108.366C47.4546 108.443 48.9129 108.645 50.3462 108.969C50.299 109.583 50.2908 110.081 50.2149 110.573C50.0713 111.505 49.8867 112.434 49.7185 113.362C49.698 113.471 49.6631 113.567 49.6508 113.686C49.5195 114.723 49.3924 115.757 49.2549 116.856C48.8139 116.817 48.3728 117.001 47.9544 116.673C47.8354 116.581 47.6221 116.61 47.4497 116.585C46.74 116.483 46.0261 116.38 45.3184 116.268C45.2628 116.242 45.2147 116.203 45.1788 116.153C45.1429 116.104 45.1203 116.046 45.1133 115.985C45.1317 115.87 45.2856 115.688 45.3656 115.694C45.8271 115.737 46.2805 115.846 46.74 115.899C47.2426 115.956 47.7472 115.987 48.2518 116.016C48.2895 116.011 48.3255 115.997 48.3569 115.976C48.3883 115.954 48.4141 115.926 48.4323 115.893C48.7292 115.116 48.8265 114.278 48.7154 113.454C48.7031 113.354 48.459 113.235 48.3052 113.208C47.458 113.071 46.6066 112.952 45.7225 112.819Z" fill="white"/>
<path d="M57.8469 116.8C57.8469 115.937 57.9515 115.04 57.8223 114.177C57.6172 112.772 57.6172 111.366 57.5823 109.956C57.5823 109.636 57.3772 109.546 57.1125 109.561C56.4007 109.581 55.6869 109.608 54.9751 109.632C54.8007 109.632 54.6263 109.653 54.452 109.647C53.974 109.634 53.9391 109.585 54.0253 108.999C54.532 108.999 55.0509 108.999 55.5699 108.999C56.3802 108.989 57.1884 108.983 57.9967 108.956C58.3228 108.956 58.4295 109.065 58.4336 109.397C58.45 110.663 58.4787 111.929 58.5362 113.194C58.5813 114.2 58.6921 115.204 58.7413 116.21C58.7741 116.939 58.7003 116.98 57.8469 116.8Z" fill="white"/>
<path d="M33.3304 103.258L34.0709 103.668C32.715 106.008 31.359 108.35 29.9867 110.715L29.2852 110.169L33.3304 103.258Z" fill="white"/>
</svg>
