<svg width="57" height="74" viewBox="0 0 57 74" fill="none" xmlns="http://www.w3.org/2000/svg">
<path d="M5.8883 19.1797C5.8883 18.2924 5.84728 17.4031 5.90061 16.5158C5.95426 15.5259 6.0604 14.5396 6.21856 13.561C6.33955 12.7711 6.53742 11.9949 6.80935 11.2434C7.09859 10.4791 7.57039 9.78441 7.8945 9.03034C8.23392 8.28231 8.67276 7.58341 9.19915 6.95252C9.92079 6.0426 10.7739 5.24495 11.7305 4.58578C12.4936 4.05915 13.2792 3.56121 14.0895 3.1104C14.6242 2.85494 15.172 2.62785 15.7306 2.43009C16.4157 2.14526 17.0845 1.81535 17.7819 1.56946C18.2351 1.43207 18.6961 1.32191 19.1625 1.23955L21.4702 0.706776C21.5308 0.689221 21.5925 0.675533 21.6548 0.665794C22.8733 0.536699 24.1041 0.479323 25.3082 0.255968C26.6898 0.026701 28.0926 -0.0488964 29.4909 0.0305626C30.6031 0.0766092 31.7123 0.179198 32.8141 0.337932C33.8397 0.487518 34.8654 0.727267 35.8911 0.964966C36.578 1.11935 37.2543 1.31784 37.9157 1.55921C38.5537 1.79691 39.1465 2.13297 39.7763 2.4137C40.4881 2.73336 41.2286 2.9977 41.9117 3.36654C42.5449 3.71859 43.1492 4.12011 43.7189 4.56733C44.4615 5.13289 45.1877 5.72509 45.8749 6.35622C46.6388 7.06205 47.234 7.93045 47.6165 8.89714C47.9447 9.71679 48.359 10.5016 48.7016 11.3172C48.8719 11.727 48.9601 12.1716 49.0955 12.5958C49.2657 13.1327 49.4462 13.6634 49.6206 14.1982C49.6413 14.2577 49.653 14.3198 49.6555 14.3827C49.7581 16.1613 49.9037 17.9379 49.9427 19.7104C49.9591 20.5136 49.7478 21.321 49.678 22.1304C49.6246 22.6033 49.6308 23.0811 49.6965 23.5525C49.811 24.0547 49.9682 24.5462 50.1663 25.0217C50.2955 25.3824 50.4883 25.7205 50.597 26.0852C50.8022 26.7512 51.0073 26.7983 51.6494 26.6016C52.1643 26.4459 52.7489 26.534 53.2904 26.4684C54.1007 26.3701 54.7961 26.7491 55.3705 27.161C55.9223 27.5729 56.3045 28.1719 56.4454 28.8454C56.5828 29.4601 56.7572 30.0482 56.6669 30.6527C56.5356 31.5236 56.3121 32.3822 56.1172 33.2428C56.0085 33.7203 55.8895 34.1977 55.752 34.667C55.59 35.2141 55.4054 35.7551 55.231 36.3063C55.216 36.3511 55.2044 36.397 55.1961 36.4436C55.0956 37.171 54.913 37.9005 54.913 38.6279C54.9138 39.0822 54.8224 39.532 54.6444 39.95C54.4663 40.3681 54.2053 40.7458 53.8771 41.0603C53.8135 41.1279 53.7253 41.1873 53.6987 41.2652C53.3612 42.2803 53.2629 43.3595 53.4115 44.4188C53.4711 44.9088 53.5608 45.3947 53.6802 45.8737C53.8258 46.431 54.031 46.972 54.1992 47.5253C54.3141 47.9043 54.4269 48.2855 54.511 48.6728C54.6443 49.2875 54.6669 49.9371 54.8925 50.517C55.3869 51.7649 55.192 53.0415 55.1407 54.3017C55.1141 54.9759 54.8105 55.6398 54.63 56.3078C54.6095 56.3836 54.5787 56.4554 54.5643 56.5332C54.4494 57.148 54.4064 57.7627 54.2074 58.3508C53.7171 59.7852 53.9489 61.2401 54.0269 62.6724C54.0617 63.3076 54.2792 63.9736 54.191 64.617C54.0947 65.4663 53.8963 66.3008 53.6002 67.1026C53.1899 68.1088 51.9263 68.6846 50.8965 68.3956C50.3329 68.2164 49.8301 67.8844 49.4442 67.4366C48.9703 66.9223 48.7139 66.3096 48.4698 65.6559C47.9242 64.1806 48.2031 62.6888 48.2503 61.2052C48.2667 60.7319 48.5662 60.2729 48.7057 59.7975C48.8637 59.2627 48.9314 58.6971 49.1385 58.1848C49.4442 57.4307 49.4073 56.6582 49.4175 55.8816C49.4319 54.6521 49.0832 53.4595 48.9026 52.2505C48.7591 51.3059 48.6421 50.3039 49.0278 49.3531C49.0765 49.2364 49.0995 49.1106 49.0955 48.9842C49.0421 47.8634 49.5816 46.8798 49.8093 45.8245C49.9613 45.2311 50.149 44.6474 50.3714 44.0766C50.6278 43.3368 50.9068 42.6073 51.1571 41.8656C51.2084 41.7203 51.201 41.5608 51.1365 41.4209C50.8986 41.0398 50.6176 40.6873 50.357 40.3205C50.1642 40.048 49.8975 40.0275 49.6842 40.2754C49.2555 40.7734 48.8821 41.341 48.3816 41.7529C48.0021 42.0643 47.6698 42.4619 47.1282 42.6073C46.3077 42.8225 46.1026 43.2692 46.0103 44.1155C45.9015 45.0745 45.6739 46.0212 45.4954 46.974C45.4954 47.0048 45.4769 47.0355 45.4708 47.0663C45.3436 47.8326 45.239 48.6031 45.0851 49.3633C44.9415 50.0805 44.7446 50.7854 44.5723 51.4944C44.5538 51.5723 44.5415 51.6502 44.5272 51.728C44.4328 52.2301 44.322 52.7321 44.2461 53.2362C44.1148 54.0558 44.041 54.8755 43.8564 55.6849C43.7187 56.3147 43.4973 56.9232 43.1979 57.4943C42.4881 58.8078 41.3825 59.8057 40.3773 60.8876C39.4838 61.8741 38.6456 62.9091 37.8665 63.988C37.5506 64.4162 37.4049 64.9715 37.1772 65.4674C36.9003 66.0822 36.6111 66.6744 36.3444 67.285C36.1064 67.826 35.9218 68.3956 35.6531 68.9243C35.3659 69.4858 35.0172 70.0165 34.6767 70.5513C34.1227 71.4111 33.4295 72.1728 32.6253 72.8054C32.2356 73.1148 31.7699 73.2152 31.3002 73.3525C30.0509 73.7439 28.7873 73.6189 27.536 73.5697C26.7401 73.541 25.9503 73.2521 25.1647 73.0594C24.859 72.9836 24.5739 72.8381 24.2723 72.7439C22.8015 72.2849 21.7512 71.246 20.7851 70.1292C20.2045 69.4591 19.743 68.6948 19.2302 67.9571C18.7501 67.2768 18.2496 66.6067 17.7942 65.908C17.3388 65.2092 16.9737 64.4982 16.547 63.8117C15.9624 62.8855 15.3019 62.0044 14.7541 61.0577C14.2659 60.2135 13.8762 59.3098 13.4577 58.4266C13.1664 57.8119 12.8772 57.1971 12.6372 56.5722C12.4792 56.1746 12.3972 55.7525 12.27 55.3427C12.0997 54.7956 11.9192 54.2525 11.7407 53.7034C11.7193 53.661 11.7008 53.6172 11.6854 53.5722C11.5684 52.9575 11.4802 52.3223 11.3325 51.7055C11.1848 51.0887 10.9818 50.4453 10.8033 49.8162C10.7945 49.7859 10.7876 49.7551 10.7828 49.724C10.6617 48.9822 10.5592 48.2363 10.4156 47.4986C10.2515 46.6523 10.0463 45.8122 9.86378 44.9679C9.84285 44.8593 9.83323 44.7487 9.83506 44.638C9.79752 43.3489 9.61378 42.0682 9.28736 40.8205C9.18684 40.3984 9.25043 39.9394 9.24223 39.4947C9.22992 38.9681 8.62683 38.1546 8.13656 38.0378C7.93143 37.9907 7.71604 37.964 7.61962 38.2837C7.46475 38.7168 7.14472 39.0711 6.72935 39.2693C6.3437 39.4845 6.06471 39.7529 6.09959 40.2652C6.14472 40.9107 6.06266 41.5725 6.15908 42.2098C6.25549 42.8471 6.51191 43.5172 6.69037 44.1708C6.81345 44.6298 6.90986 45.097 7.0432 45.554C7.17654 46.011 7.34474 46.4802 7.50065 46.9413C7.53524 47.012 7.56606 47.0845 7.59296 47.1585C7.7304 47.763 7.8145 48.3879 8.00322 48.974C8.85863 51.5641 8.54272 54.23 8.5099 56.8713C8.5099 57.6234 8.18989 58.3733 8.01553 59.1254C8.01553 59.1561 8.00117 59.1868 7.99707 59.2176C7.86783 60.1028 7.82681 61.0126 7.5868 61.8651C7.40834 62.4941 7.46988 63.1806 7.08628 63.7666C6.90986 64.0351 6.86884 64.3916 6.74986 64.7031C6.39088 65.6437 6.05446 65.8404 5.12726 65.7543C4.0298 65.6559 3.5744 64.8547 3.13337 64.0412C2.59592 63.0454 2.45437 61.9614 2.45848 60.8364C2.45848 60.3508 2.15488 59.8282 2.25334 59.3836C2.54053 58.1397 2.43591 56.8816 2.53848 55.6337C2.62053 54.6091 2.74361 53.5989 2.85028 52.5825C2.93028 51.7629 3.09234 50.9534 3.04311 50.1502C2.99798 49.4207 2.70464 48.7158 2.54053 47.9863C2.39465 47.4392 2.28772 46.8825 2.22052 46.3204C2.1543 45.6387 2.15842 44.9521 2.23283 44.2712C2.30873 43.6688 2.54463 43.0848 2.72105 42.4967C2.84003 42.1115 2.96721 41.7283 3.1108 41.3512C3.28311 40.8984 3.52107 40.466 3.6462 40.005C3.72659 39.7845 3.75955 39.5495 3.74294 39.3154C3.72632 39.0813 3.66051 38.8534 3.54979 38.6464C3.22157 38.0583 3.02875 37.3944 2.77849 36.7632C2.60412 36.3268 2.42976 35.8883 2.26155 35.4497C2.16955 35.148 2.05855 34.8523 1.92924 34.5645C1.54564 33.8576 1.05742 33.1998 0.745617 32.4662C0.433815 31.7326 0.0399596 31.0892 0.00713836 30.2532C-0.0379909 29.0708 0.122012 27.952 0.741513 26.9541C0.946646 26.618 1.40204 26.4213 1.76718 26.1877C2.38258 25.7779 3.1067 25.868 3.8021 25.8742C4.59801 25.8742 4.63289 25.8598 4.94674 25.1406C5.15909 24.7435 5.34481 24.3328 5.50265 23.9111C5.69063 23.3042 5.81371 22.6792 5.86984 22.0464C5.92933 21.0997 5.88625 20.1469 5.88625 19.1961L5.8883 19.1797ZM45.0851 43.7241C44.4143 44.2118 43.883 44.638 43.3128 45.0048C42.5448 45.5041 41.9205 46.1949 41.5014 47.0089C41.1937 47.5847 41.0563 48.2384 40.7937 48.8531C40.6125 49.2005 40.4069 49.5347 40.1783 49.8531L40.0245 49.8121C39.9844 49.6095 39.9618 49.4038 39.9568 49.1973C40.0132 48.5183 40.2236 47.861 40.5722 47.2753C40.9123 46.6133 41.309 45.9819 41.7579 45.388C42.1476 44.9106 42.6912 44.5684 43.1671 44.1585C43.2738 44.056 43.3891 43.9628 43.5117 43.8799C43.922 43.634 44.3569 43.4024 44.7815 43.1647C45.4626 42.7836 46.1498 42.4065 46.8329 42.0172C47.1096 41.8751 47.3622 41.6905 47.5816 41.4701C48.5047 40.4168 49.4093 39.3485 50.2955 38.2652C50.5479 37.9306 50.7587 37.5667 50.9232 37.1813C51.1529 36.7511 51.3279 36.2941 51.4442 35.8206C51.7011 34.5472 51.6941 33.2348 51.4237 31.9642C51.3007 31.4294 51.0935 30.9109 50.956 30.3782C50.8186 29.8454 50.7509 29.2942 50.5991 28.7634C50.4473 28.2327 50.2422 27.7225 50.0719 27.2C49.836 26.4705 49.6616 25.7123 49.3621 25.0156C49.0319 24.2738 49.0052 23.4849 48.8719 22.7206C48.798 22.3107 49.0503 21.8456 49.077 21.403C49.1556 20.4838 49.1789 19.5607 49.1468 18.6387C49.0668 17.3129 49.2596 15.9748 48.8493 14.6613C48.6544 14.0466 48.6565 13.356 48.439 12.7434C48.1293 11.8417 47.7108 10.975 47.3354 10.0938C46.9657 9.13287 46.4503 8.23441 45.8072 7.42997C44.9096 6.42591 43.8881 5.53975 42.7671 4.79274C42.3343 4.48742 41.8871 4.20054 41.4276 3.9403C40.8595 3.60365 40.2718 3.30121 39.6676 3.03459C39.005 2.7559 38.3075 2.56124 37.6162 2.33173C36.7957 2.0551 35.9752 1.74773 35.1403 1.51208C34.6254 1.36864 34.0838 1.38709 33.5443 1.23545C32.6162 1.01059 31.6645 0.897089 30.7094 0.897345C29.1094 0.842018 27.5052 0.866608 25.9031 0.870706C25.4753 0.86815 25.048 0.89967 24.6252 0.964966C23.7185 1.11455 22.8241 1.31947 21.9174 1.4629C21.4476 1.53667 20.984 1.5797 20.5102 1.7006C19.6773 1.90552 18.826 2.0551 18.0117 2.35018C17.0763 2.68828 16.1121 2.96492 15.2013 3.35015C14.3964 3.68746 13.6285 4.10703 12.91 4.60217C12.1174 5.19954 11.3599 5.84198 10.6412 6.5263C9.45146 7.5898 8.67811 8.94632 7.99091 10.3582C7.84692 10.6459 7.72619 10.9446 7.62988 11.2516C7.49449 11.6963 7.39808 12.1512 7.28115 12.602C7.10269 13.3007 6.8196 13.9913 6.76422 14.7003C6.67396 15.8826 6.72935 17.0752 6.71499 18.2637C6.71499 18.6469 6.93448 18.6899 7.15807 18.5055C7.48394 18.2559 7.76607 17.954 7.99297 17.6121C8.25964 17.1797 8.3499 16.6265 8.65144 16.2289C9.26515 15.3596 10.1212 14.6898 11.113 14.3027C11.5048 14.1593 11.9049 14.0384 12.3069 13.9216C12.9223 13.7433 13.5377 13.4954 14.1531 13.4278C14.9839 13.3396 15.8311 13.4052 16.6721 13.3888C17.224 13.3786 17.6773 13.6265 18.1368 13.8827C18.7522 14.2269 19.3676 14.604 20.0035 14.8929C20.8566 15.2753 21.5336 15.9655 21.8989 16.8252C22.1809 17.4573 22.6091 18.0135 23.1482 18.4481C23.3082 18.5895 23.4887 18.6285 23.5154 18.3641C23.5514 18.0809 23.5312 17.7933 23.4559 17.5178C23.2138 16.7514 22.9 16.0076 22.66 15.2412C22.4209 14.4299 22.1184 13.6386 21.7553 12.8745C21.3697 12.0938 20.7543 11.604 20.0445 11.1901C19.6343 10.9504 19.1727 10.7803 18.7604 10.5323C17.7347 9.91761 16.7973 9.14099 15.5275 9.07746C15.4475 9.07746 15.3224 8.92993 15.3224 8.84182C15.3224 8.7537 15.4126 8.55084 15.4639 8.55084C15.9665 8.55084 16.4896 8.49961 16.9634 8.63895C17.4906 8.79878 17.9665 9.13279 18.4568 9.40737C19.1666 9.80491 19.8599 10.227 20.5738 10.6225C21.6446 11.2065 22.2743 12.188 22.8118 13.2065C23.1957 13.9881 23.5101 14.8021 23.7513 15.6388C23.9974 16.399 24.1739 17.1818 24.3482 17.9625C24.6149 19.1407 24.7154 20.3477 24.9636 21.5362C25.1688 22.5812 25.1523 23.6836 25.2508 24.7594C25.4826 27.2368 25.2508 29.7368 25.5236 32.2326C25.6816 33.6875 25.819 35.21 25.3185 36.6751C25.2118 36.9866 25.099 37.0849 24.7728 37.0009C24.7626 36.796 24.7421 36.6095 24.7421 36.421C24.7421 35.4067 24.7893 34.3924 24.7564 33.3801C24.6764 30.9663 24.8836 28.5524 24.5267 26.1344C24.3216 24.6816 24.4036 23.1857 24.2005 21.7124C24.1021 20.9931 24.0323 20.3661 23.5277 19.7944C22.7872 18.9584 22.6272 18.8743 21.7676 19.0936C21.3574 19.2002 21.3287 19.4461 21.3902 19.7596C21.4169 19.8887 21.5707 19.9993 21.5789 20.1223C21.5974 20.4009 21.6692 20.8231 21.5256 20.9419C21.2097 21.1858 21.0148 20.7821 20.8343 20.5813C20.7502 20.485 20.7892 20.278 20.7728 20.1223C20.7654 20.0026 20.7281 19.8866 20.6644 19.785C20.6006 19.6834 20.5123 19.5994 20.4076 19.5407C20.3029 19.482 20.1852 19.4504 20.0651 19.4489C19.9451 19.4474 19.8265 19.476 19.7204 19.5321C19.5151 19.6288 19.2978 19.6978 19.0743 19.737C18.7932 19.7862 18.6332 19.8866 18.703 20.2042C18.7916 20.5587 18.8601 20.9178 18.9081 21.28C18.9307 21.4849 19.0004 21.8497 18.6435 21.8107C18.4383 21.7882 18.2599 21.5259 18.0999 21.3456C18.0424 21.278 18.0629 21.1304 18.067 21.0218C18.1122 19.8231 17.8763 20.0198 17.0414 20.0301C15.5603 20.0464 15.5542 20.0444 15.5521 21.5075C15.5521 21.8784 15.509 22.198 15.1275 22.3538C14.5121 22.1714 14.707 21.6612 14.6988 21.2534C14.67 19.8395 14.8239 20.0895 13.509 20.0649C12.9592 20.0526 12.6885 20.2698 12.5162 20.7985C12.311 21.4132 12.0936 21.6017 11.5623 21.4603C11.6977 20.9071 11.8351 20.3579 11.9541 19.8743C11.6854 19.7329 11.4843 19.6366 11.2956 19.5239C10.9879 19.3395 10.2084 19.4461 10.0094 19.7452C9.77762 20.0977 9.59916 20.4788 9.39403 20.8436C8.88735 20.6059 8.86068 20.4788 9.0535 20.0239C9.15697 19.7613 9.22258 19.4853 9.24838 19.2043C9.30171 18.7698 8.93042 18.8293 8.67606 18.7453C8.5858 18.7145 8.51811 18.6121 8.4299 18.5403C8.10579 18.7453 7.79399 18.9502 7.50065 19.1551C7.24218 19.3436 6.88525 19.5157 6.78883 19.7698C6.66165 20.0833 6.74986 20.485 6.74576 20.8497C6.74576 21.1673 6.74576 21.4829 6.73345 21.8005C6.73471 21.9102 6.7223 22.0197 6.69652 22.1263C6.5078 22.7964 6.31908 23.4664 6.11805 24.1324C6.01138 24.4828 5.96215 24.8906 5.74676 25.157C5.19906 25.8414 5.117 26.6815 4.99392 27.4581C4.7375 29.0524 4.957 30.6589 5.25034 32.2449C5.25446 32.2764 5.26203 32.3073 5.2729 32.3371C5.54778 32.9764 5.78368 33.6363 6.1119 34.2469C6.43421 34.8437 6.80684 35.412 7.22577 35.9456C8.00322 36.9395 9.00427 37.6874 9.99711 38.462C11.1315 39.3357 12.097 40.4085 12.8464 41.6279C13.39 42.5213 13.8187 43.4926 14.4341 44.3327C14.9326 45.013 14.8977 45.8142 15.1952 46.5294C15.2485 46.6585 15.0372 46.8941 14.949 47.0806C14.7983 47.0293 14.659 46.9493 14.5388 46.8449C14.4567 46.7042 14.4083 46.5464 14.3972 46.3839C14.3603 46.1523 14.3972 45.8942 14.3131 45.6851C14.163 45.3957 13.9972 45.1145 13.8167 44.8429C13.3675 44.0233 12.9962 43.1463 12.4649 42.384C11.8925 41.5479 11.1828 40.8021 10.5243 40.0275C10.4177 39.9371 10.298 39.8632 10.1694 39.8082C10.1134 39.9295 10.0807 40.0602 10.073 40.1935C10.151 40.7283 10.2658 41.257 10.3499 41.7897C10.4546 42.4557 10.5551 43.1217 10.6269 43.7917C10.7212 44.7733 10.6269 45.761 10.9715 46.7322C11.2053 47.3921 11.2156 48.1338 11.3243 48.8387C11.3243 48.8551 11.3243 48.8695 11.3243 48.8859C11.5048 49.5334 11.7059 50.1748 11.8618 50.8285C12.1079 51.8674 12.3233 52.9124 12.5531 53.9554C12.5707 54.0157 12.5926 54.0746 12.6187 54.1316C12.7767 54.5415 12.949 54.9513 13.0926 55.3775C13.2362 55.8037 13.3387 56.2197 13.4721 56.6377C13.5531 56.9054 13.6546 57.1664 13.7757 57.4184C14.1408 58.1459 14.5203 58.8651 14.9018 59.5823C15.2834 60.2995 15.6157 60.9921 16.0342 61.6601C16.545 62.4798 17.1378 63.24 17.6752 64.0453C18.2127 64.8506 18.7009 65.6846 19.2076 66.5145C19.4681 66.9428 19.6938 67.3916 19.9666 67.8116C20.2959 68.3422 20.6548 68.8539 21.0415 69.3444C21.4718 69.9105 21.9599 70.4304 22.4979 70.8956C23.222 71.4714 24.0139 71.9714 24.9595 72.1824C25.6344 72.3341 26.2908 72.6373 26.9678 72.6845C28.234 72.7637 29.5036 72.7733 30.7709 72.7131C31.2165 72.6864 31.6445 72.5297 32.0017 72.2623C32.7771 71.664 33.532 71.0329 34.0038 70.1271C34.3505 69.4694 34.7977 68.8669 35.1444 68.2092C35.4008 67.7256 35.5546 67.1846 35.7762 66.6846C36.0593 66.0289 36.3567 65.3773 36.6624 64.7318C36.8504 64.2565 37.0847 63.8008 37.3619 63.3712C37.8952 62.6437 38.4962 61.9634 39.0891 61.2831C39.6819 60.6028 40.3199 59.9532 40.9107 59.2647C41.4543 58.6783 41.9464 58.0462 42.3815 57.3754C42.7138 56.8119 42.8369 56.1275 43.0851 55.5087C43.3799 54.7528 43.5724 53.961 43.6574 53.1542C43.7476 52.394 43.9015 51.6399 44.0307 50.8838C44.0307 50.853 44.0615 50.8264 44.0677 50.7957C44.2338 50.0559 44.4328 49.3223 44.5559 48.5765C44.6995 47.6871 44.7774 46.7876 44.8861 45.8942C44.901 45.8173 44.9295 45.7438 44.9702 45.6769C45.2841 45.0765 45.1405 44.4557 45.0851 43.7241ZM52.7858 43.552H52.7633C52.7633 43.093 52.7633 42.634 52.7633 42.175C52.7633 41.9701 52.8822 41.6668 52.4904 41.6402C52.1725 41.6197 51.9243 41.7057 51.8278 42.05C51.7068 42.4598 51.594 42.8881 51.4709 43.3041C51.356 43.6831 51.2391 44.0622 51.1078 44.4352C50.954 44.8798 50.7653 45.3142 50.6237 45.761C50.4596 46.2794 50.3263 46.806 50.1888 47.3306C50.0145 48.0007 49.717 48.6687 49.7088 49.3428C49.6924 50.7342 49.4627 52.1378 49.9139 53.5251C50.0965 54.0784 50.0083 54.7177 50.0575 55.3181C50.074 55.523 50.2032 55.7648 50.1499 55.9513C49.875 56.9021 50.1211 57.9225 49.6945 58.859C49.4893 59.3262 49.4668 59.8836 49.3273 60.3794C49.1734 60.9368 48.917 61.4716 48.8185 62.0372C48.6134 63.2195 48.8432 64.3855 49.1303 65.533C49.2173 65.8349 49.3685 66.1144 49.5734 66.3526C49.8939 66.7149 50.2364 67.0571 50.5991 67.3772C50.9212 67.6825 52.0781 67.744 52.3694 67.4489C52.9261 66.9203 53.2728 66.2086 53.3458 65.4449C53.3885 64.3384 53.3748 63.2304 53.3048 62.1253C53.2884 61.6356 53.0648 61.111 53.1817 60.6684C53.4628 59.6192 53.1674 58.5127 53.6351 57.4799C53.8751 56.9492 53.8833 56.3119 54.0002 55.7238C54.0125 55.6644 54.0535 55.6091 54.0679 55.5476C54.2443 54.8079 54.5007 54.0722 54.5664 53.3222C54.6115 52.7792 54.4002 52.2137 54.312 51.6583C54.1848 50.8735 54.0658 50.0887 53.9448 49.3039C53.9448 49.2732 53.9305 49.2424 53.9223 49.2117L53.3622 47.2384C53.3356 47.1482 53.3048 47.0581 53.2802 46.9658C53.112 46.3142 52.9007 45.6687 52.794 45.0069C52.7526 44.5195 52.7498 44.0296 52.7858 43.5417V43.552ZM5.2647 40.7836C5.248 40.5982 5.248 40.4117 5.2647 40.2263C5.27854 40.1575 5.27827 40.0866 5.26389 40.0179C5.24952 39.9493 5.22134 39.8842 5.18106 39.8268C5.14079 39.7693 5.08926 39.7206 5.02959 39.6836C4.96992 39.6466 4.90335 39.6221 4.83392 39.6115C4.69032 39.5828 4.39288 39.8472 4.31903 40.0398C4.06262 40.7037 3.87595 41.3943 3.66056 42.0766C3.64209 42.134 3.61543 42.1914 3.59696 42.2487C3.41029 42.7979 3.20721 43.343 3.04721 43.9003C2.95285 44.2303 2.93644 44.5786 2.8749 44.9249C2.719 45.7692 3.04311 46.5642 3.1867 47.3634C3.28927 47.9494 3.64005 48.515 3.64415 49.0908C3.64415 50.8182 3.84928 52.5477 3.43901 54.2792C3.20106 55.3038 3.2667 56.3713 3.14772 57.4205C2.92208 59.3754 2.87284 61.3589 3.60927 63.2872C3.8872 64.0107 4.38505 64.6291 5.0329 65.0556C5.14956 65.1039 5.27675 65.1214 5.40216 65.1063C5.52757 65.0913 5.64696 65.0441 5.74881 64.9695C6.05223 64.5847 6.283 64.1479 6.42985 63.6806C6.68011 62.8425 6.85037 61.9798 7.02269 61.1212C7.16423 60.402 7.26885 59.6766 7.37551 58.9512C7.42064 58.6397 7.40834 58.318 7.45552 58.0066C7.61552 56.9676 7.80835 55.9349 7.95399 54.8939C8.15912 53.4063 7.72014 51.9575 7.65039 50.4862C7.64651 50.4549 7.63964 50.424 7.62988 50.394L6.78678 47.5253L6.18985 45.4966C5.98471 44.7835 5.71394 44.0827 5.57445 43.3594C5.41649 42.4946 5.36316 41.6135 5.2647 40.7836ZM6.29036 38.546C6.40319 38.4702 6.49549 38.4046 6.60422 38.3411C7.04115 38.0337 7.23808 37.2304 6.9632 36.8657C6.64524 36.4559 6.33344 36.0256 5.99497 35.626C5.33239 34.8453 5.01443 33.8842 4.70674 32.9519C4.44006 32.1506 4.41955 31.2695 4.29647 30.4253C4.25017 30.2265 4.21457 30.0254 4.1898 29.8228C4.16313 29.3556 4.13646 28.8864 4.15493 28.4192C4.16518 28.1077 4.27801 27.8044 4.29852 27.4909C4.3416 26.8577 3.75697 26.3229 3.16003 26.5196C2.37643 26.7778 1.45127 26.8209 1.15588 27.9028C0.987674 28.5175 0.593818 29.0892 0.653306 29.7634C0.699195 30.1112 0.792365 30.451 0.930237 30.7736C1.15588 31.3515 1.3405 31.9724 1.67692 32.4724C2.22645 33.3149 2.68184 34.215 3.0349 35.1567C3.40523 36.0438 3.71032 36.9568 3.94774 37.8882C4.08518 38.4394 4.47494 38.6525 4.87084 38.8902C4.99187 38.962 5.21957 38.8779 5.38573 38.8267C5.4247 38.8165 5.43291 38.6382 5.41855 38.5439C5.35085 38.1054 5.27085 37.671 5.19085 37.2018C6.49755 37.0112 5.83497 38.1546 6.29241 38.546H6.29036ZM53.551 30.0237C53.1693 30.1695 52.7991 30.3434 52.4432 30.5441C52.0904 30.7716 51.9612 31.9642 52.2032 32.4191C52.6258 33.2121 52.4084 34.0584 52.3612 34.878C52.314 35.5153 52.0371 36.1485 51.7971 36.7591C51.4812 37.5665 51.1017 38.3513 50.7365 39.173C50.9068 39.5582 51.1058 40.005 51.3191 40.4824C51.7745 40.13 51.6166 39.3021 52.4248 39.2632V40.7836C52.6299 40.7713 52.835 40.8144 52.9684 40.7406C53.2941 40.5607 53.5759 40.3111 53.7936 40.0096C54.0114 39.7081 54.1597 39.3622 54.2279 38.9968C54.4166 38.0952 54.47 37.1628 54.6033 36.2489C54.6956 35.6198 54.8269 34.9969 54.9418 34.3719C54.9549 34.3261 54.9721 34.2815 54.993 34.2387C55.1654 33.708 55.3377 33.1773 55.5141 32.6465C55.551 32.5124 55.6004 32.3821 55.6618 32.2572C55.9469 31.7429 55.8669 30.8781 55.4566 30.54C55.3213 30.4273 55.0751 30.4335 54.9623 30.3105C54.6587 29.9786 54.3592 30.0933 54.0925 30.1917C54.1397 30.6015 54.2094 30.9745 54.2135 31.3412C54.2456 31.9856 54.2298 32.6315 54.1664 33.2736C54.0474 34.1178 53.8423 34.9539 53.6412 35.7858C53.5389 36.1182 53.4128 36.4428 53.2638 36.7571L53.0484 36.6772C53.1751 36.3264 53.2785 35.9677 53.3581 35.6034C53.4976 34.7325 53.5961 33.8535 53.7151 32.9785C53.7294 32.8699 53.7643 32.7736 53.7807 32.6568C53.8361 32.2756 53.9571 31.8884 53.9243 31.5134C53.8853 31.0687 53.713 30.6261 53.551 30.0237ZM13.6628 18.1387H13.5316C13.5316 17.9994 13.5131 17.86 13.5151 17.7289C13.5151 17.0076 13.5028 16.9605 12.7705 17.0301C12.0382 17.0998 11.3182 17.1428 10.6494 17.3682C10.1776 17.526 9.53762 17.5281 9.27915 18.1633L10.6556 18.5854L11.0084 18.7002C11.5377 18.8702 12.0608 19.0588 12.5982 19.2022C13.0085 19.3129 13.4454 19.3723 13.8741 19.444C14.0107 19.4539 14.1478 19.4539 14.2844 19.444L14.0793 18.9297C14.4338 19.1398 14.8384 19.2507 15.2506 19.2507C15.6628 19.2507 16.0674 19.1398 16.4219 18.9297L16.5655 19.3907L21.3717 18.4891L21.4107 18.2985C21.1153 18.1469 20.8261 17.983 20.5245 17.8457C20.0897 17.6408 19.6466 17.4707 19.2076 17.2801C19.0983 17.2344 18.9926 17.1803 18.8917 17.1182C18.5142 16.8744 17.5173 16.9789 17.306 17.2227C17.1086 17.0389 16.8879 16.8819 16.6496 16.7555C16.4202 16.6858 16.1753 16.6858 15.946 16.7555C15.7123 16.8186 15.5047 16.9543 15.3531 17.1428C15.2854 17.2371 15.4003 17.5301 15.5152 17.6633C15.7195 17.8562 15.9444 18.0259 16.186 18.1694C16.1347 18.2391 16.0711 18.4215 15.948 18.4789C15.8166 18.5282 15.676 18.5483 15.536 18.5376C15.396 18.5269 15.2601 18.4858 15.1377 18.4171C15.0154 18.3483 14.9095 18.2537 14.8277 18.1397C14.7458 18.0258 14.6899 17.8954 14.6639 17.7576C14.6573 17.6158 14.6401 17.4747 14.6126 17.3355C14.6001 17.2696 14.5732 17.2073 14.5338 17.153C14.4944 17.0988 14.4434 17.0539 14.3846 17.0216C14.3258 16.9893 14.2606 16.9703 14.1936 16.9662C14.1267 16.962 14.0596 16.9726 13.9972 16.9973C13.9206 17.0402 13.854 17.099 13.802 17.1696C13.75 17.2403 13.7137 17.3213 13.6957 17.4072C13.6633 17.6462 13.6551 17.8878 13.671 18.1285L13.6628 18.1387ZM21.0805 16.9379C20.4261 15.9441 19.5337 15.3765 18.5758 14.899C18.2161 14.7195 17.8454 14.5628 17.466 14.4298C16.9798 14.2597 16.4875 14.02 15.9911 13.9995C15.3757 13.9769 14.7603 14.1347 14.1449 14.2433C13.4885 14.356 12.8095 14.4236 12.1941 14.6531C11.4084 14.9503 10.6146 15.2843 9.96635 15.8498C9.74052 16.077 9.53463 16.3231 9.35095 16.5855L9.46582 16.7494C10.034 16.6756 10.5756 16.7494 11.1807 16.5219C11.9172 16.2453 12.7623 16.2105 13.5664 16.1777C14.8793 16.1265 16.1983 16.1265 17.5132 16.1777C18.1553 16.2002 18.7932 16.3724 19.4332 16.4789C19.4763 16.4789 19.5112 16.5322 19.5522 16.5486C19.9625 16.7043 20.3727 16.8621 20.783 17.0055C20.8466 17.0117 20.9348 16.9646 21.0887 16.9277L21.0805 16.9379ZM53.0217 27.0442C52.5556 27.128 52.0968 27.2479 51.6494 27.4028C51.3786 27.5155 51.0832 27.7512 51.1878 28.1569C51.2924 28.5626 51.4176 28.9479 51.4935 29.3495C51.5051 29.4497 51.5423 29.5452 51.6014 29.627C51.6605 29.7088 51.7396 29.774 51.8311 29.8166C51.9227 29.8591 52.0236 29.8775 52.1243 29.87C52.225 29.8625 52.3221 29.8293 52.4063 29.7737C52.8095 29.5553 53.2371 29.3854 53.6802 29.2675C53.9738 29.2289 54.2721 29.2484 54.5582 29.3249C54.8597 29.3741 55.151 29.497 55.4525 29.5298C55.7541 29.5626 55.8382 29.3556 55.7623 29.1036C55.6976 28.8362 55.5932 28.5799 55.4525 28.3434C54.8741 27.5114 53.9817 27.2327 53.0217 27.0442Z" fill="white"/>
<path d="M23.5169 40.3619C23.5293 40.1446 23.5395 39.952 23.5477 39.7758C24.0462 39.8065 24.5159 39.7615 24.9385 39.8844C25.3707 40.0321 25.7755 40.2502 26.1365 40.5299C27.3222 41.3762 27.5437 41.1713 28.6268 40.3783C28.9078 40.1733 29.1355 39.8865 29.4309 39.7082C29.5221 39.6581 29.6236 39.6298 29.7275 39.6256C29.8315 39.6213 29.935 39.6412 30.0299 39.6836C30.151 39.7574 30.2022 40.0586 30.1612 40.2307C30.1366 40.3393 29.8986 40.4356 29.7407 40.4725C29.234 40.6098 28.9202 40.9582 28.6248 41.3618C28.2678 41.8413 28.3437 42.37 28.3437 42.8946C28.3437 45.6978 28.3335 48.501 28.3786 51.296C28.393 52.2612 28.5571 53.2242 28.6678 54.1873C28.6801 54.2877 28.7991 54.4558 28.873 54.4537C29.294 54.4633 29.7144 54.4192 30.1243 54.3226C30.5038 54.2037 30.8279 54.1177 31.1766 54.3615C31.2548 54.4145 31.3468 54.4437 31.4412 54.4455C32.2618 54.4312 32.8772 54.9086 33.5439 55.2652C34.2105 55.6217 34.8567 55.9455 35.507 56.2897C35.6229 56.3785 35.7282 56.4802 35.8208 56.593C36.2824 57.0172 36.746 57.4373 37.3039 57.9434C36.9778 58.1114 36.7234 58.2467 36.4649 58.3737C35.9952 58.6032 35.5172 58.8184 35.0557 59.0602C34.268 59.47 33.6998 60.136 33.1459 60.8019C32.9358 61.0942 32.7603 61.4099 32.6228 61.7425C32.1059 62.806 31.7428 64.0109 30.7028 64.6789C30.1181 65.058 29.4453 65.4289 28.6514 65.3735C27.9724 65.3264 27.2873 65.3735 26.6001 65.3612C25.8821 65.3612 25.238 65.0846 24.5713 64.851C23.7793 64.5937 23.0632 64.1446 22.4872 63.5437C22.102 63.0852 21.7523 62.5981 21.441 62.0867C21.1415 61.6523 20.8625 61.2036 20.563 60.7691C20.2635 60.3347 19.9579 59.9495 19.681 59.5274C19.3671 59.0458 18.7825 59.0171 18.3784 58.7077C18.2348 58.595 18.0296 58.4536 18.0153 58.3102C17.9927 58.0643 18.0153 57.7118 18.1671 57.5663C18.7079 57.0798 19.2764 56.6248 19.8697 56.2037C20.2799 55.9045 20.7148 55.6484 21.1415 55.384C21.5272 55.1381 21.9374 54.9291 22.2944 54.6504C22.6566 54.4071 23.0731 54.2563 23.5073 54.2112C23.9415 54.1662 24.3801 54.2284 24.7847 54.3922C25.0062 54.4988 25.3016 54.4537 25.6052 54.4824C25.6278 54.1812 25.6606 53.9496 25.6606 53.716C25.6702 49.7243 25.677 45.7326 25.6811 41.7409C25.6811 41.0053 25.4903 40.8311 24.7395 40.7164C24.3248 40.6247 23.9164 40.5063 23.5169 40.3619V40.3619ZM21.5784 57.9721C21.0533 58.0991 20.52 58.2057 20.001 58.3614C19.7589 58.4331 19.7281 58.5889 19.964 58.7712C20.1954 58.9324 20.4026 59.1255 20.5794 59.345C21.0533 59.9843 21.5128 60.6359 21.9477 61.304C22.2595 61.7814 22.5056 62.2998 22.8092 62.7834C23.094 63.2151 23.5062 63.5474 23.9888 63.7342C24.5467 63.976 25.0657 64.3203 25.6298 64.5129C26.1262 64.6809 26.6739 64.7035 27.1991 64.7813C27.3406 64.8018 27.4843 64.8018 27.6258 64.7813C28.0889 64.7307 28.5486 64.652 29.0022 64.5457C29.4474 64.4411 29.8751 64.2727 30.272 64.0457C31.0925 63.5314 31.3161 62.6011 31.7366 61.808C31.9821 61.2899 32.256 60.7858 32.5572 60.2978C33.0983 59.5554 33.7894 58.9348 34.5859 58.4762C34.6741 58.4229 34.7275 58.3061 34.7911 58.22C34.7076 58.1573 34.6139 58.1095 34.5141 58.0786C33.4167 57.9043 32.2924 58.0384 31.2669 58.4659C30.4981 58.8318 29.6568 59.0202 28.8053 59.0171C28.4566 59.0028 28.1058 59.0007 27.757 59.0171C26.5979 59.0683 25.4375 58.9537 24.3108 58.677C24.2489 58.6647 24.1879 58.6482 24.1282 58.6278C23.3159 58.345 22.5077 57.9905 21.5784 57.9721ZM19.7794 57.3573L19.8594 57.5069C20.0109 57.5213 20.1634 57.5213 20.3148 57.5069C20.6779 57.4352 21.0389 57.2549 21.3959 57.2733C22.0624 57.3074 22.7248 57.3993 23.3754 57.5479C23.9477 57.677 24.4852 57.97 25.0595 58.0745C25.9098 58.2442 26.7733 58.3388 27.6401 58.3573C28.4866 58.3303 29.3299 58.2413 30.1633 58.0909C30.5386 58.0153 30.908 57.9133 31.2689 57.7856C31.312 57.7713 31.3469 57.7323 31.39 57.718C31.8761 57.5561 32.352 57.3082 32.8505 57.2528C33.4905 57.1709 34.1469 57.2385 34.7972 57.2282C34.8992 57.208 34.997 57.1706 35.0865 57.1176C35.0536 57.0397 35.0393 56.927 34.9818 56.8942C34.4444 56.5848 33.9069 56.2795 33.3551 55.9967C32.8033 55.7139 32.2207 55.4598 31.6443 55.2119C31.3287 55.0671 30.9855 54.9921 30.6381 54.9921C30.2908 54.9921 29.9476 55.0671 29.632 55.2119C29.1027 55.4496 28.6063 55.7918 28.0483 55.9229C27.3136 56.071 26.5499 55.9379 25.9088 55.55C25.4309 55.2919 24.9105 55.1219 24.3724 55.048C23.8185 54.9762 23.2462 54.9209 22.7026 55.3041C22.0338 55.7795 21.2666 56.1238 20.5794 56.5684C20.2863 56.8062 20.0182 57.0733 19.7794 57.3655V57.3573ZM26.5652 41.6958C26.5509 41.8495 26.5283 41.9745 26.5263 42.1057C26.518 46.1875 26.5085 50.2694 26.4975 54.3513C26.4975 54.7611 26.6042 55.0254 27.0411 55.2119C27.5806 55.4414 28.0894 55.2467 28.0668 54.6607C28.0483 54.2324 27.8617 53.8144 27.835 53.3861C27.714 51.7673 27.5724 50.1485 27.5335 48.5276C27.4842 46.5195 27.5335 44.5093 27.5335 42.5011C27.5293 41.7778 27.3611 41.6344 26.5652 41.704V41.6958Z" fill="white"/>
<path d="M33.7948 22.1935C33.2101 21.7836 33.2019 21.7201 33.5117 21.2365C33.643 21.0316 33.8522 20.7919 33.8235 20.5992C33.7883 20.4818 33.7263 20.3742 33.6422 20.285C33.5582 20.1957 33.4545 20.1272 33.3394 20.0849C32.8676 19.9579 32.3732 19.9456 32.004 20.3964C31.8908 20.5024 31.7686 20.5984 31.6388 20.6833C31.3804 20.9005 31.1424 21.0931 31.0932 21.5029C30.9516 22.6135 30.6993 23.7119 30.5865 24.8245C30.4778 25.8942 30.5865 26.9884 30.4306 28.0499C30.0203 30.851 30.2583 33.6624 30.1496 36.4677C30.1496 36.6726 29.9444 36.8775 29.8254 37.1091C29.663 37.0163 29.5302 36.8796 29.4424 36.7146C29.3545 36.5496 29.3152 36.3631 29.329 36.1767C29.3577 34.8632 29.1936 33.5231 29.3947 32.2383C29.7147 30.2117 29.407 28.1667 29.6962 26.1708C29.8419 25.1463 29.8439 24.1442 29.9916 23.1381C30.0921 22.4557 30.1496 21.7631 30.2829 21.089C30.4162 20.4148 30.6357 19.7161 30.808 19.0296C30.9311 18.5419 31.0009 18.0358 31.167 17.5645C31.3478 17.0775 31.5681 16.606 31.8255 16.1547C32.1947 15.4764 32.5742 14.8002 32.9947 14.1527C33.7591 12.9805 34.701 11.934 35.7866 11.0503C36.1197 10.7661 36.5109 10.558 36.9329 10.4405C37.3549 10.323 37.7975 10.2989 38.2297 10.37C38.5498 10.4294 38.7487 10.7368 38.6913 11.1896C38.4181 11.2078 38.144 11.2078 37.8708 11.1896C36.8266 11.0462 36.0923 11.6323 35.4748 12.3064C34.7004 13.1568 33.9913 14.0644 33.3537 15.0215C32.7855 15.8678 32.2317 16.7407 31.9609 17.753C31.844 18.1895 31.6163 18.5952 31.4706 19.0255C31.4524 19.1755 31.4614 19.3275 31.4973 19.4743L31.6798 19.5112L32.0901 18.5255C32.3136 17.969 32.665 17.4727 33.1158 17.0768C33.7573 16.551 34.4709 16.1198 35.2348 15.7961C36.0553 15.4272 36.9087 15.3125 37.7702 15.1301C38.4732 14.9825 39.1923 14.9253 39.9098 14.96C40.6083 14.975 41.3027 15.0699 41.9796 15.2428C42.8104 15.461 43.6111 15.7811 44.3632 16.1957C44.8776 16.5347 45.3105 16.9833 45.6309 17.5092C46.322 18.5432 47.1286 19.4953 48.0351 20.3472C48.2689 20.5706 48.6033 20.7775 48.4228 21.3287L47.3971 20.8677C47.071 20.7181 46.0063 21.0009 45.8094 21.298C45.7905 21.3221 45.7766 21.3498 45.7685 21.3793C45.7605 21.4089 45.7583 21.4397 45.7622 21.4701C45.873 21.7918 45.9961 22.1094 46.1151 22.4291C46.2135 22.6996 46.3202 22.9721 46.4125 23.2488C45.8709 23.4188 45.633 23.2672 45.4997 22.8164C45.3889 22.4424 45.2518 22.0768 45.0894 21.7222C45.0484 21.63 44.8555 21.5644 44.7304 21.5603C44.2709 21.548 43.8114 21.5746 43.3519 21.5726C43.077 21.5726 42.9909 21.7242 42.9888 21.9599C42.9888 22.3881 43.0011 22.8164 42.9745 23.2426C42.9745 23.3758 42.8637 23.5951 42.7693 23.6094C42.6927 23.615 42.6159 23.6013 42.546 23.5694C42.476 23.5375 42.4153 23.4886 42.3693 23.427C42.2309 23.1214 42.1462 22.7942 42.1191 22.4598C42.0862 21.589 42.1088 21.5869 41.2226 21.5869C41.0319 21.5869 40.8411 21.5869 40.6524 21.5869C40.1621 21.6197 39.9549 21.839 39.9426 22.3287C39.9426 22.4865 39.9426 22.6463 39.9426 22.8041C39.9426 23.2836 39.9426 23.2836 39.5323 23.5418C39.0728 23.2836 38.9805 22.9578 39.1836 22.3123C39.3375 21.8226 39.161 21.5931 38.6523 21.5398C38.319 21.4955 37.9911 21.4172 37.6738 21.3062C37.2328 21.1566 36.9784 21.341 36.8943 21.8164C36.8048 22.2914 36.6715 22.7572 36.4964 23.2078C36.4718 23.2795 36.162 23.2836 36 23.2488C35.9097 23.2283 35.8543 23.0602 35.8297 23.0275C35.9015 22.7488 35.961 22.5336 36.0102 22.3164C36.0274 22.1596 36.0555 22.0042 36.0943 21.8513C36.1989 21.5787 36.4389 21.3041 36.1641 21.0316C35.8256 20.6915 34.8922 20.4742 34.6215 20.6996C34.4322 20.9062 34.2814 21.1449 34.1763 21.4045C34.0491 21.6504 33.9343 21.9066 33.7948 22.1935ZM41.0319 20.5542C41.2083 20.716 41.3375 20.9394 41.4893 20.9537C42.7284 21.0704 43.9783 20.9677 45.1817 20.6505C45.3613 20.5896 45.5262 20.4919 45.6658 20.3636C45.6929 20.3262 45.7116 20.2834 45.7204 20.2381C45.7293 20.1928 45.7281 20.1461 45.7171 20.1013C45.4984 19.961 45.2678 19.8403 45.0278 19.7407C44.6935 19.6075 44.3345 19.5357 44.0022 19.38C43.4319 19.1239 42.8616 18.587 42.3242 18.6259C41.7867 18.6649 41.6144 18.421 41.2596 18.2837C40.8493 18.1177 40.3221 18.21 39.8482 18.2018C39.7826 18.2018 39.6616 18.2653 39.6616 18.3042C39.6282 18.6455 39.6372 18.9897 39.6882 19.3288C39.7067 19.4169 40.0595 19.4333 40.2606 19.4804C40.3508 19.503 40.4431 19.5214 40.5354 19.5419L40.5662 19.6853C40.3016 19.7939 40.0123 20.0255 39.7805 19.9784C39.4881 19.8816 39.2419 19.6801 39.0893 19.4128C38.8943 19.0125 38.7337 18.5964 38.6092 18.169L37.9385 18.3268C37.7736 18.2701 37.603 18.2316 37.4297 18.212C36.6707 18.1997 35.9117 18.1587 35.1897 18.4968C34.8266 18.669 34.4204 18.7468 34.0512 18.9067C33.9384 18.9579 33.8748 19.1485 33.8255 19.2898C33.8112 19.3267 33.9199 19.4435 33.9917 19.4702C34.5291 19.6648 35.0686 19.8595 35.6143 20.0316C36.3076 20.2529 37.0051 20.466 37.7087 20.6464C37.8441 20.6812 38.119 20.63 38.1559 20.5378C38.3118 20.2324 38.5456 20.3636 38.6728 20.4578C39.4626 21.0685 40.2585 20.8472 41.0319 20.5583V20.5542ZM45.713 19.1628C45.5591 18.7878 45.5222 18.5091 45.3622 18.3432C44.7694 17.7284 44.2873 17.0256 43.4709 16.5809C42.6545 16.1362 41.756 15.9436 40.8821 15.8043C39.9262 15.6506 38.9251 15.7633 37.9426 15.7694C37.7522 15.7624 37.5621 15.788 37.3805 15.8453C36.6502 16.1076 35.9446 16.4416 35.202 16.6649C34.4163 16.8944 33.8645 17.4046 33.3373 17.9682C33.3024 18.0071 33.3825 18.2407 33.4194 18.2448C33.5735 18.2565 33.7284 18.237 33.8748 18.1874C34.3486 18.0276 34.8081 17.8329 35.284 17.6854C35.6353 17.5568 36.0024 17.4768 36.3753 17.4477C37.8297 17.419 39.2862 17.3842 40.7365 17.4477C41.2821 17.4723 41.8093 17.7796 42.3529 17.9374C42.8022 18.0686 43.2617 18.1649 43.7171 18.2796C43.7598 18.2964 43.801 18.317 43.8401 18.3411C44.2053 18.5214 44.5683 18.7099 44.9376 18.88C45.1509 18.9763 45.3725 19.0419 45.713 19.1669V19.1628Z" fill="white"/>
<path d="M49.3577 32.0056C49.3577 32.5588 49.4397 33.1285 49.3331 33.6613C49.215 34.1975 49.0017 34.7083 48.7033 35.1694C48.1966 35.9891 47.7371 36.8415 46.9515 37.446C46.1658 38.0505 45.3453 38.6324 44.3606 38.9931C43.376 39.3537 42.3873 39.2472 41.4211 39.1734C40.8057 39.1263 40.2375 38.6693 39.6364 38.4214C38.8159 38.0833 38.2723 37.4358 37.7574 36.7821C37.4339 36.3343 37.1589 35.8534 36.9369 35.3477C36.7728 35.0055 36.7112 34.6141 36.5615 34.2617C36.1246 33.2186 36.2189 32.106 36.4117 31.0855C36.6238 29.8669 37.2993 28.7773 38.2969 28.0446C39.024 27.5184 39.8043 27.0699 40.6252 26.7065C41.5072 26.311 42.3729 26.0324 43.3227 26.1963C44.0078 26.335 44.685 26.5101 45.3514 26.7209C45.7624 26.8047 46.1595 26.9462 46.531 27.1409C47.1024 27.4752 47.6232 27.8892 48.0777 28.3704C48.5806 28.953 48.9952 29.6061 49.3085 30.3089C49.4931 30.729 49.3844 31.2781 49.4069 31.7679C49.4069 31.8457 49.4069 31.9256 49.4069 32.0056H49.3577ZM48.9084 31.9031C48.7915 31.4564 48.652 31.0138 48.5597 30.563C48.3443 29.5261 47.5812 28.8888 46.8366 28.27C46.4551 27.9503 45.9463 27.77 45.4745 27.5774C44.9737 27.372 44.4597 27.2002 43.936 27.0631C43.5123 26.967 43.0836 26.8945 42.6519 26.8459C42.5609 26.8381 42.4692 26.8499 42.3832 26.8807C41.8662 27.0426 41.3575 27.2106 40.8344 27.3766C40.7732 27.3912 40.7145 27.4147 40.6601 27.4463C39.938 27.9196 39.1995 28.3745 38.498 28.8806C37.8723 29.3294 37.3574 29.981 37.2672 30.6962C37.1748 31.3621 36.8569 32.0281 37.1359 32.7801C37.341 33.3805 37.0989 34.1018 37.4723 34.7227C37.6897 35.0854 37.7451 35.5608 38.0036 35.8805C38.6067 36.6263 39.2057 37.3579 40.1 37.8476C40.7431 38.2032 41.4461 38.4379 42.1739 38.5402C42.8768 38.6082 43.5859 38.5128 44.2458 38.2615C45.1778 37.9316 46.0204 37.3901 46.7074 36.6796C47.2243 36.1321 47.6564 35.5105 47.9894 34.8354C48.4785 33.9248 48.7903 32.9298 48.9084 31.9031V31.9031Z" fill="white"/>
<path d="M11.9587 24.1158C12.9557 24.1978 13.9896 24.1465 14.9393 24.4006C15.924 24.665 16.9209 25.0051 17.7722 25.6526C18.4473 26.1195 18.969 26.7755 19.2717 27.5378C19.5856 28.378 19.8666 29.2202 19.7538 30.1116C19.682 30.6792 19.4399 31.2283 19.2717 31.7836C19.1767 32.1661 19.0547 32.5413 18.9066 32.9066C18.7226 33.3022 18.4919 33.6743 18.2194 34.0151C17.761 34.605 17.2569 35.1579 16.7117 35.6688C16.2522 36.0786 15.727 36.4393 15.0706 36.5089C14.8162 36.5356 14.5578 36.7733 14.3301 36.7343C13.6072 36.6183 12.8935 36.4505 12.1946 36.2323C11.6548 36.0486 11.1302 35.8232 10.6254 35.5581C9.76381 35.1299 9.14021 34.4537 8.59456 33.6627C7.68582 32.3431 7.56889 30.8738 7.74531 29.3718C7.83577 28.53 8.03504 27.7035 8.33814 26.9129C8.67661 26.0481 9.14636 25.2121 9.94023 24.6588C10.5209 24.2309 11.2415 24.0371 11.9587 24.1158V24.1158ZM12.4162 24.8125L12.4018 24.9006C12.0859 24.9006 11.7659 24.876 11.4521 24.9006C10.7197 24.9703 10.0982 25.2613 9.72689 25.9252C9.47121 26.3618 9.24639 26.8158 9.05406 27.2838C8.85364 27.8253 8.68783 28.379 8.55763 28.9415C8.45504 29.3784 8.379 29.8212 8.32993 30.2673C8.29711 30.5316 8.23762 30.839 8.32993 31.0644C8.61097 31.716 8.59045 32.4824 9.12175 33.0418C9.62432 33.5705 10.0428 34.1893 10.5884 34.6647C11.0034 34.9783 11.4689 35.2188 11.9649 35.3758C12.5405 35.5988 13.1323 35.7776 13.7352 35.9106C14.605 36.0971 15.3763 35.7958 16.0347 35.2467C16.5375 34.8592 16.9884 34.4088 17.3763 33.9065C17.7968 33.3184 18.084 32.634 18.4163 31.9845C18.7158 31.3984 18.964 30.7837 18.9476 30.1156C18.9312 29.378 19.044 28.6464 18.6871 27.9108C18.3829 27.2122 17.8926 26.6105 17.2696 26.1711C16.6131 25.7669 15.8975 25.4675 15.1486 25.2838C14.2603 25.0379 13.329 24.96 12.4162 24.8125V24.8125Z" fill="white"/>
<path d="M18.7385 4.79106C19.0872 4.88532 19.3867 4.99597 19.6965 5.0431C20.1068 5.11277 20.5416 5.14351 20.9663 5.18654C22.1068 5.30129 23.2494 5.4058 24.3879 5.53284C24.7407 5.57382 25.1018 5.78078 25.432 5.73775C25.9407 5.66398 26.4269 5.43858 26.9213 5.27465C27.3172 5.14146 27.7172 5.01851 28.1049 4.86483C29.2167 4.42427 30.3757 4.455 31.5245 4.58C32.0373 4.63328 32.5214 4.91811 33.0301 5.05949C33.6494 5.23928 34.278 5.38499 34.9133 5.49596C35.463 5.58202 35.703 5.78283 35.6333 6.31561C35.1964 6.332 34.7471 6.48158 34.343 6.14143C34.3039 6.11416 34.2589 6.0966 34.2117 6.0902C33.6414 5.96521 33.065 5.8607 32.5009 5.71316C31.9368 5.56563 31.3481 5.32588 30.7593 5.19678C30.3874 5.12407 30.0058 5.11576 29.6311 5.1722C29.2811 5.25178 28.9381 5.35936 28.6054 5.49391C27.99 5.68652 27.3377 5.79103 26.7797 6.08201C25.8977 6.53896 24.993 6.332 24.113 6.31355C23.0667 6.31832 22.0231 6.20768 21.0011 5.98365C20.4267 5.85293 19.8431 5.76593 19.2555 5.72341C18.8349 5.69062 18.6442 5.38735 18.7385 4.79106Z" fill="white"/>
<path d="M20.7148 8.15349C20.8129 7.9769 20.9574 7.83047 21.1328 7.73005C21.3081 7.62964 21.5077 7.57907 21.7097 7.58384C22.7087 7.51007 23.6011 7.92809 24.5447 8.09817C25.4349 8.26005 26.3293 8.66987 27.275 8.30308C27.4755 8.25015 27.6835 8.23077 27.8904 8.24571C28.7154 8.22159 29.5258 8.02252 30.2679 7.6617C30.372 7.62634 30.4826 7.61376 30.592 7.62482C31.1623 7.62482 31.7346 7.58179 32.3007 7.62482C32.7761 7.69349 33.2467 7.79135 33.71 7.91784L33.749 8.17398C33.5623 8.27849 33.3777 8.47316 33.191 8.47316C32.7861 8.44706 32.3837 8.39158 31.9869 8.30718C31.9254 8.30718 31.8597 8.2498 31.8043 8.26005C31.1643 8.37616 30.525 8.49775 29.8863 8.62479C29.8125 8.63914 29.7509 8.70881 29.6812 8.7252C28.2453 9.02437 26.8093 9.24568 25.3467 9.06126C24.7908 8.99159 24.2616 8.73135 23.718 8.56332C23.5857 8.51744 23.4476 8.49053 23.3077 8.4834C22.6923 8.4834 22.0769 8.27849 21.4492 8.41373C21.2379 8.45267 20.9856 8.25595 20.7148 8.15349Z" fill="white"/>
<path d="M34.0409 42.2354C34.231 42.3149 34.4065 42.4257 34.5599 42.5632C34.7765 42.8015 34.9326 43.0882 35.0153 43.3993C35.1589 44.3091 35.3066 45.2271 35.4482 46.1348C35.6841 47.643 35.5753 49.1471 35.7066 50.6429C35.7579 51.2085 36.0184 51.7576 36.1887 52.313C36.3159 52.7228 36.4478 53.1326 36.5846 53.5424C36.6236 53.6592 36.7077 53.7617 36.7343 53.8805C36.7908 54.1131 36.8252 54.3505 36.8369 54.5895C36.8369 54.6285 36.5846 54.7412 36.5292 54.7022C36.3348 54.5957 36.1737 54.4375 36.0635 54.2453C35.7435 53.4543 35.4481 52.6654 35.3661 51.7863C35.2984 50.9954 35.0235 50.2249 34.882 49.436C34.8272 49.0286 34.8052 48.6174 34.8163 48.2065C34.8163 47.6041 34.8594 46.9975 34.804 46.4012C34.7296 45.5881 34.6077 44.7801 34.4389 43.9812C34.3486 43.5714 34.0984 43.182 33.9404 42.7763C33.9105 42.6419 33.9002 42.5039 33.9097 42.3665L34.0409 42.2354Z" fill="white"/>
<path d="M18.5627 54.1474C18.013 53.7929 17.9965 53.6188 18.1914 53.1905C18.3863 52.7622 18.5135 52.2684 18.6694 51.8073C18.7699 51.5082 18.8745 51.211 18.9709 50.9098C19.0817 50.5471 19.1145 50.1455 19.2909 49.8197C19.6663 49.1332 19.5822 48.4058 19.5638 47.6927C19.5412 46.8443 19.3586 45.998 19.373 45.1497C19.373 44.58 19.5781 44.0124 19.693 43.4448C19.7258 43.2911 19.8058 43.1498 19.8386 42.9961C19.9289 42.5617 19.9248 42.5596 20.534 42.6887C20.4335 43.1088 20.3289 43.5268 20.2366 43.951C20.1851 44.1825 20.157 44.4187 20.1525 44.6559C20.1525 46.2952 20.1894 47.9529 20.1115 49.5963C20.0807 50.2213 19.775 50.836 19.5863 51.4528C19.4653 51.8504 19.3504 52.2499 19.2007 52.6372C19.0119 53.1331 18.7904 53.6167 18.5627 54.1474Z" fill="white"/>
<path d="M31.5591 68.6431C31.2678 69.1308 31.1488 69.1472 30.6954 68.8172C30.1778 68.4269 29.5719 68.1701 28.9313 68.0693C28.4021 67.9873 27.8544 67.7435 27.3374 67.8746C26.4143 68.1062 25.3948 68.1185 24.6707 68.8992C24.5497 69.0263 24.2707 69.0222 24.0553 69.0365C23.9835 69.0365 23.8399 68.9156 23.8399 68.85C23.8382 68.7181 23.8857 68.5903 23.9732 68.4914C24.4727 68.0562 25.0574 67.7296 25.6902 67.5324C26.6813 67.2037 27.7385 67.1255 28.7672 67.305C29.6668 67.4024 30.5281 67.7214 31.2739 68.2332C31.3902 68.3539 31.4864 68.4922 31.5591 68.6431V68.6431Z" fill="white"/>
<path d="M14.0664 49.9404H14.5977C14.7187 50.5736 14.8192 51.2109 14.9689 51.8359C15.1187 52.4609 15.3054 53.0264 15.4756 53.6207C15.4965 53.6803 15.5136 53.7412 15.5269 53.803C15.65 54.4342 15.7628 55.0673 15.9002 55.6964C15.9597 55.9669 16.0931 56.2231 16.1567 56.4935C16.2346 56.8275 16.0397 57.014 15.652 57.18C15.5351 56.7702 15.4243 56.4013 15.3156 56.0243C15.1283 55.3877 14.9423 54.7511 14.7577 54.1145C14.743 54.0866 14.73 54.0579 14.7187 54.0284C14.6059 53.426 14.5012 52.8236 14.3843 52.2211C14.2859 51.7129 14.1587 51.2088 14.0746 50.6986C14.0512 50.4465 14.0484 50.193 14.0664 49.9404V49.9404Z" fill="white"/>
<path d="M8.01307 23.2564C7.95768 23.6929 7.91871 24.1294 7.84281 24.5617C7.78691 24.8001 7.71844 25.0354 7.63768 25.2666C7.45716 25.8957 7.28075 26.5268 7.10228 27.158C7.08177 27.2338 7.06741 27.3117 7.05305 27.3895C6.93818 28.0268 6.91151 28.6969 6.68586 29.2911C6.44425 29.946 6.38332 30.6537 6.50945 31.3402C6.61201 31.9755 6.62432 32.6496 6.99356 33.2418C7.24793 33.6517 7.33613 34.1598 7.59255 34.5635C8.02333 35.2377 8.53616 35.8586 9.00181 36.5102C9.09082 36.6462 9.1346 36.8068 9.12694 36.9692C8.39596 36.3893 7.79319 35.6644 7.35665 34.8401C7.06536 34.334 6.71868 33.8361 6.53612 33.289C6.33098 32.6619 6.29201 31.9837 6.18944 31.3259C6.00892 30.1784 6.42329 29.0862 6.53817 27.9674C6.61201 27.2481 6.88689 26.5473 7.08587 25.8424C7.33203 24.9736 7.59255 24.1109 7.84691 23.2441L8.01307 23.2564Z" fill="white"/>
<path d="M29.3041 17.6631C29.2836 18.4069 29.3041 19.1549 29.2344 19.8946C29.1482 20.9437 29.1277 22.0195 28.861 23.0277C28.4959 24.4068 28.7256 25.7858 28.6108 27.1608C28.5123 28.3452 28.4754 29.5357 28.4056 30.7242C28.3823 30.8834 28.346 31.0403 28.2969 31.1935H28.1554C28.127 31.0376 28.1078 30.8803 28.0979 30.7222C28.0979 29.7734 27.942 28.7817 28.1554 27.8821C28.5369 26.2797 28.2661 24.6691 28.4672 23.0748C28.5718 22.2367 28.6415 21.3925 28.7379 20.5503C28.8344 19.7081 28.9431 18.8065 29.0621 17.9377C29.0764 17.8434 29.2303 17.7676 29.3185 17.6815L29.3041 17.6631Z" fill="white"/>
<path d="M23.1656 38.2318C22.7953 38.4173 22.4418 38.6346 22.1092 38.8813C21.5656 39.3567 21.4938 39.9612 21.9615 40.3485C22.2261 40.5698 22.6158 40.6498 22.9584 40.7584C23.1407 40.7947 23.3264 40.8118 23.5123 40.8096C23.4949 41.0013 23.4442 41.1885 23.3625 41.3629C23.2087 41.5678 23.0035 41.5678 22.7471 41.4223C22.4142 41.2773 22.0715 41.1561 21.7215 41.0596C21.1902 40.8649 20.9009 40.2235 20.9768 39.66C21.0527 39.0965 21.1163 38.5371 21.6681 38.2031C21.9143 38.0535 22.1543 37.8301 22.4189 37.7933C22.6835 37.7564 22.9235 37.9265 23.1779 37.9982C23.1758 38.0822 23.1717 38.158 23.1656 38.2318Z" fill="white"/>
<path d="M30.9362 41.1745C31.1557 40.9593 31.248 40.8609 31.3464 40.7646C31.7567 40.3917 32.1998 40.0434 32.0726 39.3671C31.9885 38.9143 31.4306 38.3426 30.9731 38.2852C30.8157 38.2763 30.6666 38.2117 30.5526 38.1028C30.5054 38.0414 30.5895 37.7852 30.6839 37.7217C30.8582 37.6028 31.1516 37.443 31.2767 37.5168C31.6724 37.7572 32.0441 38.0351 32.3865 38.3467C32.4908 38.4658 32.5691 38.6054 32.6162 38.7565C32.6901 38.9204 32.7455 39.0926 32.8214 39.2606C32.8378 39.3036 32.8911 39.3467 32.8849 39.3794C32.7865 39.8139 32.7803 40.3138 32.5506 40.6622C32.3208 41.0105 31.8839 41.1909 31.5085 41.3958C31.4162 41.4491 31.2152 41.2913 30.9362 41.1745Z" fill="white"/>
<path d="M41.7335 51.9232C41.7335 52.3043 41.8668 52.6649 41.5796 53.0645C41.3581 53.3719 41.2822 53.7981 41.1817 54.1813C41.0278 54.7714 40.7201 55.3268 40.7899 55.9784C40.7826 56.0778 40.7523 56.1741 40.7014 56.2598C40.6505 56.3455 40.5804 56.4182 40.4965 56.4722C40.4042 56.5296 40.037 56.3698 40.0391 56.3165C40.062 55.9043 40.1085 55.4938 40.1786 55.087C40.1786 55.0276 40.2504 54.9723 40.2483 54.9169C40.2483 54.0645 40.7447 53.3637 40.9642 52.5768C41.0422 52.2899 41.3437 52.0645 41.5448 51.8125L41.7335 51.9232Z" fill="white"/>
<path d="M50.1315 34.6416C50.2915 34.7318 50.4904 34.7789 50.5192 34.8772C50.5338 35.0293 50.4962 35.1818 50.4125 35.3096C50.202 35.7528 49.9692 36.185 49.715 36.6047C49.4385 37.0638 49.1213 37.4972 48.7673 37.8997C47.8483 38.8915 46.8924 39.8505 45.8955 40.8853C45.5857 40.2705 46.0042 40.0841 46.2216 39.8607C47.0073 39.0411 47.834 38.2604 48.6176 37.4366C49.3316 36.6343 49.8498 35.6776 50.1315 34.6416Z" fill="white"/>
<path d="M26.3202 35.5709C26.3038 35.3967 26.2751 35.2246 26.273 35.0504C26.273 33.4111 26.3817 31.7472 26.2115 30.1202C26.1048 29.1141 26.0064 28.1141 25.9961 27.106C25.9961 26.5466 25.9961 25.9871 25.9961 25.4277H26.1664C26.1971 26.1572 26.1664 26.897 26.2689 27.6183C26.6033 30.0936 26.5069 32.5812 26.5294 35.0648C26.5222 35.2343 26.5057 35.4032 26.4802 35.5709H26.3202Z" fill="white"/>
<path d="M44.8315 11.58C44.5384 11.3142 44.2597 11.0331 43.9966 10.7378C43.2253 9.79722 42.4766 8.84028 41.7217 7.88743C41.3586 7.43048 41.0017 6.96737 40.6406 6.50837L40.737 6.35059C40.8827 6.40386 41.0817 6.41411 41.1658 6.51861C41.8837 7.40793 42.5873 8.31365 43.2848 9.21937C43.7381 9.80747 44.1874 10.3997 44.6141 11.0062C44.7092 11.1912 44.7782 11.3884 44.8192 11.5923L44.8315 11.58Z" fill="white"/>
<path d="M21.6858 33.436C21.6858 31.4709 21.6858 29.5078 21.6858 27.5447C21.6858 26.4997 21.7023 25.4526 21.7166 24.4075C21.7166 24.2313 21.6776 23.9977 22.0017 24.0592L21.9894 24.0469C21.9751 26.9894 21.9669 29.932 21.9443 32.8766C21.9443 33.0815 22.0715 33.3888 21.6797 33.4216L21.6858 33.436Z" fill="white"/>
<path d="M33.8889 37.0553C33.8048 37.0307 33.6735 37.0307 33.6427 36.9733C33.0848 36.0204 32.7209 34.9668 32.5719 33.873C32.4099 32.7091 32.4612 31.5657 32.3996 30.4141C32.3956 30.2874 32.4018 30.1607 32.4181 30.035C32.4181 29.9981 32.4653 29.9633 32.5596 29.8301C32.5957 29.9998 32.6218 30.1716 32.6376 30.3444C32.6376 30.7092 32.6089 31.0759 32.6376 31.4366C32.697 32.5409 32.8134 33.6413 32.9863 34.7336C33.1053 35.3586 33.5073 35.9283 33.7638 36.5307C33.8199 36.7073 33.857 36.8893 33.8745 37.0737L33.8889 37.0553Z" fill="white"/>
<path d="M10.082 11.7373C10.7405 10.0714 11.4564 8.44235 13.0339 7.31738C13.1365 7.53664 13.1816 7.67598 12.9313 7.88909C12.4769 8.26261 12.071 8.69148 11.7231 9.16569C11.4072 9.61445 11.2308 10.1595 10.9785 10.6554C10.7733 11.0652 10.5395 11.4648 10.3179 11.8685L10.082 11.7373Z" fill="white"/>
<path d="M25.5664 16.7545C25.8536 16.6951 25.8515 16.9021 25.8967 17.0926C26.0895 17.9328 26.2946 18.7709 26.4936 19.609C26.509 19.6707 26.5172 19.7339 26.5182 19.7975C26.5182 20.9354 26.5127 22.0734 26.5018 23.2113C26.4922 23.2682 26.4728 23.323 26.4444 23.3732H26.2946C26.2741 22.2605 26.3315 21.1376 26.2126 20.0331C26.0936 18.9286 25.8023 17.8426 25.5767 16.7545H25.5664Z" fill="white"/>
<path d="M37.3438 39.9365C38.0638 40.3259 38.8146 40.6681 39.4956 41.1189C40.2956 41.6455 41.19 41.2725 42.0208 41.4836C41.7459 41.8074 40.2813 41.6885 39.4074 41.418C38.564 41.1871 37.8317 40.6614 37.3438 39.9365V39.9365Z" fill="white"/>
<path d="M32.8622 24.1133V28.7853H32.6673C32.5976 27.23 32.6673 25.6727 32.6776 24.1174L32.8622 24.1133Z" fill="white"/>
<path d="M44.8164 11.5904C45.0031 11.74 45.2513 11.8548 45.36 12.0474C45.6308 12.5269 45.7826 13.0719 46.0882 13.533C46.1949 13.6868 46.2669 13.8619 46.2991 14.0463C46.3314 14.2306 46.3231 14.4198 46.2749 14.6006C46.08 14.4223 45.8359 14.3035 45.8298 14.1764C45.799 13.4961 45.4195 12.9654 45.1549 12.3834C45.0338 12.1211 44.9374 11.8466 44.8308 11.5781L44.8164 11.5904Z" fill="white"/>
<path d="M30.1389 11.1096C30.344 12.5767 30.0404 14.0009 29.663 15.4271C29.663 14.88 29.6322 14.3288 29.6753 13.7878C29.702 13.4292 29.8804 13.0849 29.9112 12.7263C29.9543 12.1895 29.9235 11.6464 29.9235 11.1055L30.1389 11.1096Z" fill="white"/>
<path d="M28.5785 35.3099V37.6438H28.4492V35.3037L28.5785 35.3099Z" fill="white"/>
<path d="M29.3213 17.6746C29.3213 17.0025 29.3357 16.3284 29.3418 15.6562H29.5469C29.5593 15.8755 29.5798 16.0948 29.5798 16.314C29.5894 16.6436 29.5784 16.9735 29.5469 17.3017C29.5305 17.4308 29.3869 17.5435 29.3008 17.6623L29.3213 17.6746Z" fill="white"/>
<path d="M25.0239 13.9584C24.9788 13.9441 24.9008 13.9379 24.8946 13.9133C24.7099 13.2692 24.5727 12.6124 24.4844 11.9482C24.8105 12.5876 25.1613 13.2207 25.0157 13.9728L25.0239 13.9584Z" fill="white"/>
<path d="M17.4305 38.9803C17.4305 38.9331 17.412 38.8737 17.4305 38.8409C17.6356 38.5274 18.4561 38.2754 18.8931 38.5049L17.4141 38.9659L17.4305 38.9803Z" fill="white"/>
<path d="M15.3171 39.2483L13.793 39.1807V38.9512C14.2709 38.9819 14.7489 39.0085 15.2289 39.0536C15.2597 39.0536 15.2781 39.1889 15.3027 39.2585L15.3171 39.2483Z" fill="white"/>
<path d="M25.2949 15.2106C25.3872 15.3049 25.5534 15.393 25.5616 15.4914C25.5883 15.9012 25.5616 16.3315 25.5616 16.7536V16.7434C25.4775 16.4032 25.3852 16.0651 25.3175 15.7188C25.2966 15.5455 25.289 15.3708 25.2949 15.1963V15.2106Z" fill="white"/>
<path d="M33.875 37.0689C33.9684 37.1009 34.0534 37.1536 34.1235 37.2232C34.1935 37.2927 34.2469 37.3772 34.2795 37.4704C34.3121 37.5635 34.3231 37.6628 34.3116 37.7608C34.3002 37.8588 34.2666 37.953 34.2135 38.0361L33.8873 37.0566L33.875 37.0689Z" fill="white"/>
<path d="M25.0078 13.9724C25.1001 14.0584 25.2622 14.1363 25.2724 14.2326C25.2967 14.5578 25.3036 14.8841 25.2929 15.21L25.3053 15.1977C25.2191 15.0973 25.0776 15.0051 25.0611 14.8945C25.0201 14.585 25.0304 14.2797 25.0201 13.958L25.0078 13.9724Z" fill="white"/>
<path d="M15.3008 39.2613H16.4598L16.4475 39.249C16.3552 39.3371 16.2423 39.5093 16.1685 39.499C15.8752 39.458 15.4792 39.7183 15.3131 39.249L15.3008 39.2613Z" fill="white"/>
<path d="M21.6777 33.4229L21.6223 34.638C21.3187 34.1749 21.3987 33.6626 21.69 33.4372L21.6777 33.4229Z" fill="white"/>
<path d="M16.4693 39.2579C16.6069 39.1495 16.7579 39.0592 16.9186 38.9894C17.0882 38.9627 17.2607 38.9586 17.4314 38.9771L17.4191 38.9648C17.3186 39.0489 17.2283 39.1821 17.1135 39.2067C16.8962 39.2382 16.6765 39.2513 16.457 39.2456L16.4693 39.2579Z" fill="white"/>
<path d="M22.0045 24.0548V23.1982L22.2096 23.2167C22.2096 23.5036 22.4373 23.8314 21.9922 24.0363L22.0045 24.0548Z" fill="white"/>
<path d="M3.40625 33.4801C3.4883 33.5067 3.62164 33.5088 3.6442 33.562C3.86985 34.0641 4.05447 34.5866 4.29653 35.0784C4.42744 35.2807 4.56848 35.4763 4.7191 35.6644C4.81633 35.8232 4.85208 36.0119 4.81962 36.1952C4.03191 35.4431 3.49036 34.5763 3.41856 33.4678L3.40625 33.4801Z" fill="white"/>
<path d="M2.73828 31.6677C2.83264 31.6964 2.9947 31.7066 3.00906 31.7558C3.1547 32.3234 3.27983 32.8971 3.41932 33.4709V33.4586C3.34137 33.4115 3.21419 33.3766 3.19368 33.3131C3.03367 32.7619 2.89418 32.2066 2.75059 31.6533L2.73828 31.6677Z" fill="white"/>
<path d="M2.48204 30.6869C2.37556 30.5883 2.28736 30.4718 2.22152 30.3426C2.15788 30.0906 2.11128 29.8345 2.08203 29.5762C2.27075 29.4512 2.45947 29.3857 2.46153 29.8016C2.46153 30.1008 2.46153 30.4 2.46153 30.6991L2.48204 30.6869Z" fill="white"/>
<path d="M2.75203 31.6547C2.31099 31.4313 2.57151 31.0092 2.47715 30.6875L2.46484 30.6998C2.55715 30.79 2.71305 30.8678 2.72946 30.9703C2.75345 31.2018 2.75688 31.4349 2.73972 31.667L2.75203 31.6547Z" fill="white"/>
</svg>
