<svg width="18" height="20" viewBox="0 0 18 20" fill="none" xmlns="http://www.w3.org/2000/svg">
<path d="M17.8925 1.46921C17.8925 1.13784 17.6239 0.869207 17.2925 0.869207L11.8925 0.869207C11.5611 0.869208 11.2925 1.13784 11.2925 1.46921C11.2925 1.80058 11.5611 2.06921 11.8925 2.06921L16.6925 2.06921L16.6925 6.86921C16.6925 7.20058 16.9611 7.46921 17.2925 7.46921C17.6239 7.46921 17.8925 7.20058 17.8925 6.86921L17.8925 1.46921ZM10.7407 8.86958L17.7168 1.89347L16.8682 1.04494L9.89214 8.02105L10.7407 8.86958Z" fill="black"/>
<path d="M17.2925 19.0868C17.6239 19.0868 17.8925 18.8182 17.8925 18.4868L17.8925 13.0868C17.8925 12.7555 17.6239 12.4868 17.2925 12.4868C16.9611 12.4868 16.6925 12.7555 16.6925 13.0868L16.6925 17.8868L11.8925 17.8868C11.5611 17.8868 11.2925 18.1555 11.2925 18.4868C11.2925 18.8182 11.5611 19.0868 11.8925 19.0868L17.2925 19.0868ZM9.89214 11.935L16.8682 18.9111L17.7168 18.0626L10.7407 11.0865L9.89214 11.935Z" fill="black"/>
<path d="M0.400457 1.46921C0.400457 1.13784 0.669086 0.869207 1.00046 0.869207L6.40046 0.869207C6.73183 0.869208 7.00046 1.13784 7.00046 1.46921C7.00046 1.80058 6.73183 2.06921 6.40046 2.06921L1.60046 2.06921L1.60046 6.86921C1.60046 7.20058 1.33183 7.46921 1.00046 7.46921C0.669086 7.46921 0.400458 7.20058 0.400457 6.86921L0.400457 1.46921ZM7.5523 8.86958L0.576193 1.89347L1.42472 1.04494L8.40083 8.02105L7.5523 8.86958Z" fill="black"/>
<path d="M1.00046 19.0868C0.669086 19.0868 0.400457 18.8182 0.400457 18.4868L0.400457 13.0868C0.400458 12.7555 0.669086 12.4868 1.00046 12.4868C1.33183 12.4868 1.60046 12.7555 1.60046 13.0868L1.60046 17.8868L6.40046 17.8868C6.73183 17.8868 7.00046 18.1555 7.00046 18.4868C7.00046 18.8182 6.73183 19.0868 6.40046 19.0868L1.00046 19.0868ZM8.40083 11.935L1.42472 18.9111L0.576193 18.0626L7.5523 11.0865L8.40083 11.935Z" fill="black"/>
</svg>
