<svg xmlns="http://www.w3.org/2000/svg" width="147" height="23" viewBox="0 0 147 23" fill="none"><path d="M36.4255 0.327148C30.367 0.327148 25.4355 5.25789 25.4355 11.3216C25.4355 17.3854 30.3642 22.3161 36.4255 22.3161C42.4867 22.3161 47.4154 17.3854 47.4154 11.3216C47.4154 5.25789 42.484 0.327148 36.4255 0.327148ZM36.4255 19.6129C31.8541 19.6129 28.1377 15.8921 28.1377 11.3216C28.1377 6.75114 31.8569 3.0304 36.4255 3.0304C40.9968 3.0304 44.7133 6.75114 44.7133 11.3216C44.7133 15.8921 40.9941 19.6129 36.4255 19.6129Z" fill="#020203"></path><path d="M15.1793 9.52865C13.2881 10.4499 11.199 10.9586 9.06589 10.9586C6.90254 10.9586 4.78592 10.4361 2.87272 9.48739V0.327148H0.17334V22.3161H2.87272V12.4711C4.8299 13.2521 6.93277 13.6619 9.06589 13.6619C11.166 13.6619 13.2442 13.2604 15.1793 12.5014V22.3161H17.8815V0.327148H15.1793V9.52865Z" fill="#020203"></path><path d="M139.295 8.67066C136.321 7.94741 135.917 6.83367 135.917 5.83542C135.917 4.29267 137.289 3.03867 138.977 3.03867H140.326V0.335419H138.977C135.802 0.335419 133.218 2.80217 133.218 5.83267C133.218 8.57992 135.049 10.4169 138.658 11.2914C140.879 11.8304 143.471 13.2494 143.471 15.4742C143.471 17.7594 141.456 19.6184 138.979 19.6184H137.63V22.3272H138.979C142.946 22.3272 146.173 19.2554 146.173 15.4797C146.17 11.6874 142.468 9.44066 139.295 8.67066Z" fill="#020203"></path><path d="M119.798 4.88391C121.819 4.88391 123.809 4.36691 125.557 3.39066L126.736 2.73066L125.42 0.371166L124.24 1.03116C121.599 2.50791 118.179 2.52991 115.507 1.10542V1.10266H115.502C115.439 1.06966 115.375 1.03941 115.312 1.00366L114.136 0.338165L112.805 1.10266V22.3272H125.758V19.6239H115.505V13.2412H124.408V10.5379H115.505V4.07266C116.865 4.60341 118.322 4.88391 119.798 4.88391Z" fill="#020203"></path><path d="M70.569 0.327148L65.7008 16.4064L60.8326 0.327148H58.4823L52.5723 22.3161H55.3679L59.6588 6.36065L64.4941 22.3161H66.9075L71.7428 6.36065L76.0338 22.3161H78.8293L72.9193 0.327148H70.569Z" fill="#020203"></path><path d="M99.9072 17.0609L86.8117 0.338165H84.8022V22.3272H87.5044V5.60441L100.6 22.3272H102.607V0.338165H99.9072V17.0609Z" fill="#020203"></path></svg>