<svg width="76" height="129" fill="none" xmlns="http://www.w3.org/2000/svg"><path d="M75.172 57.631l-54.681 70.56a2 2 0 01-1.58.76 1.842 1.842 0 01-.92-.22 2 2 0 01-1-2.36l14.74-48.72H2.489a2.003 2.003 0 01-1.78-1.1 2 2 0 01.16-2L53.91 1.77a2 2 0 013.6 1.46l-7.019 51.18h23.1a1.999 1.999 0 011.8 1.12 2 2 0 01-.22 2.1h.002z" fill="url(#paint0_linear_689_11055)"/><defs><linearGradient id="paint0_linear_689_11055" x1="38.052" y1=".943" x2="38.052" y2="320.964" gradientUnits="userSpaceOnUse"><stop stop-color="#E4BC6D"/><stop offset="1" stop-color="#E4BC6D" stop-opacity=".22"/></linearGradient></defs></svg>