<svg width="95" height="126" fill="none" xmlns="http://www.w3.org/2000/svg"><path d="M35.09 0C20.776 0 9.133 11.644 9.133 25.956v14.967C4.062 41.219 0 45.393 0 50.534v43.06c0 5.336 4.358 9.695 9.694 9.695h16.057a37.724 37.724 0 01-1.478-10.446c0-20.64 16.784-37.424 37.424-37.424 2.906 0 5.737.326 8.467.977v-5.862c0-5.147-4.046-9.323-9.12-9.613V25.956C61.043 11.646 49.4 0 35.09 0zM14.143 25.956c0-11.55 9.396-20.947 20.947-20.947 11.547 0 20.943 9.396 20.943 20.947v14.907h-41.89V25.956z" fill="url(#paint0_linear_2815_115)"/><path d="M29.284 92.844c0 17.86 14.529 32.413 32.413 32.413 17.86 0 32.413-14.554 32.413-32.413 0-17.886-14.553-32.413-32.413-32.413-17.885 0-32.413 14.528-32.413 32.413zm34.91-17.715v.236c4.391 1.122 7.66 5.078 7.66 9.812a2.505 2.505 0 01-5.01 0 5.16 5.16 0 00-5.154-5.153 5.157 5.157 0 00-5.153 5.153c0 2.407 1.959 4.174 5.822 5.243 6.036 1.679 9.496 5.351 9.496 10.075 0 4.737-3.269 8.692-7.66 9.817v.233a2.505 2.505 0 01-5.01 0v-.233c-4.388-1.125-7.657-5.08-7.657-9.814a2.505 2.505 0 015.01 0 5.16 5.16 0 005.149 5.155h.01a5.163 5.163 0 005.153-5.155c0-2.998-3.17-4.506-5.827-5.248-6.12-1.696-9.49-5.273-9.49-10.073 0-4.735 3.268-8.69 7.657-9.812v-.236a2.505 2.505 0 012.504-2.504 2.5 2.5 0 012.5 2.504z" fill="url(#paint1_linear_2815_115)"/><defs><linearGradient id="paint0_linear_2815_115" x1="35.082" y1="0" x2="35.082" y2="258.223" gradientUnits="userSpaceOnUse"><stop stop-color="#E4BC6D"/><stop offset="1" stop-color="#E4BC6D" stop-opacity=".22"/></linearGradient><linearGradient id="paint1_linear_2815_115" x1="61.697" y1="60.431" x2="61.697" y2="222.497" gradientUnits="userSpaceOnUse"><stop stop-color="#E4BC6D"/><stop offset="1" stop-color="#E4BC6D" stop-opacity=".22"/></linearGradient></defs></svg>