<svg width="95" height="133" fill="none" xmlns="http://www.w3.org/2000/svg"><path d="M47.5 61.75a47.494 47.494 0 00-33.587 13.913A47.496 47.496 0 000 109.249a4.75 4.75 0 004.75 4.75h9.5v-23.75c0-2.519 1-4.935 2.782-6.717a9.504 9.504 0 016.718-2.783h47.5a9.504 9.504 0 019.5 9.5V114h9.5a4.75 4.75 0 004.75-4.75 47.499 47.499 0 00-47.5-47.5v.001z" fill="url(#paint0_linear_689_11075)"/><path d="M76 28.5C76 44.24 63.238 57 47.5 57 31.76 57 19 44.24 19 28.5S31.76 0 47.5 0C63.238 0 76 12.76 76 28.5z" fill="url(#paint1_linear_689_11075)"/><path fill-rule="evenodd" clip-rule="evenodd" d="M71.25 85.5h-19v.068h-9.5V85.5h-19A4.751 4.751 0 0019 90.25v38a4.751 4.751 0 004.75 4.75h47.5a4.75 4.75 0 004.75-4.75v-38a4.751 4.751 0 00-4.75-4.75zm-15.694 19.134a6.364 6.364 0 01-1.09 3.233 6.382 6.382 0 013.405 2.768 6.347 6.347 0 01-1.375 8.11 6.392 6.392 0 01-4.13 1.498h-3.199v1.594a1.593 1.593 0 01-1.599 1.595 1.593 1.593 0 01-1.6-1.595v-1.594H42.77v1.594a1.593 1.593 0 01-1.599 1.595 1.593 1.593 0 01-1.6-1.595v-1.594h-1.599a1.593 1.593 0 110-3.189h1.6v-15.947h-1.6c-.424 0-.831-.168-1.131-.467a1.592 1.592 0 011.131-2.722h1.6v-1.595c0-.423.168-.828.468-1.127a1.602 1.602 0 012.73 1.127v1.595h3.2v-1.595c0-.423.168-.828.468-1.127a1.602 1.602 0 012.73 1.127v1.595a6.388 6.388 0 015.651 3.385 6.36 6.36 0 01.738 3.331zm-6.389-3.527H42.77v6.379h6.398c.849 0 1.663-.336 2.262-.934a3.185 3.185 0 000-4.511 3.204 3.204 0 00-2.262-.934zm-6.398 9.568v6.379h9.597c.849 0 1.663-.336 2.263-.935a3.184 3.184 0 000-4.51 3.204 3.204 0 00-2.263-.934H42.77z" fill="url(#paint2_linear_689_11075)"/><defs><linearGradient id="paint0_linear_689_11075" x1="47.5" y1="61.749" x2="47.5" y2="192.374" gradientUnits="userSpaceOnUse"><stop stop-color="#E4BC6D"/><stop offset="1" stop-color="#E4BC6D" stop-opacity=".22"/></linearGradient><linearGradient id="paint1_linear_689_11075" x1="47.499" y1="0" x2="47.499" y2="142.5" gradientUnits="userSpaceOnUse"><stop stop-color="#E4BC6D"/><stop offset="1" stop-color="#E4BC6D" stop-opacity=".22"/></linearGradient><linearGradient id="paint2_linear_689_11075" x1="47.5" y1="85.5" x2="47.5" y2="204.25" gradientUnits="userSpaceOnUse"><stop stop-color="#E4BC6D"/><stop offset="1" stop-color="#E4BC6D" stop-opacity=".22"/></linearGradient></defs></svg>