<svg width="244" height="241" fill="none" xmlns="http://www.w3.org/2000/svg"><path d="M145.59 202.085c3.817-.779 8.167-3.395 10.376-6.163-4.48.267-7.478 2.979-10.376 6.163zM58.208 68.768c1.115-.907 1.725-2.42 2.63-3.608a126.262 126.262 0 013.853-4.837c1.28-1.525 2.64-2.987 4.12-4.65-3.996 2.293-14.449 12.959-16.523 16.847 2.135-1.322 4.186-2.34 5.92-3.752zm81.954 130.452c-.397.06-.878.127-1.15.378-2.38 2.194-4.725 4.427-6.97 6.971 2.824-.837 5.88-1.248 8.404-2.626 2.55-1.39 4.578-3.737 6.983-5.795-2.569.374-4.92.709-7.267 1.072zm-10.173 5.967c1.662-1.944 3.729-3.54 5.876-5.538-2.437.031-4.607.054-6.772.094-.136-.001-.286.123-.396.225-2.789 2.52-5.573 5.048-8.356 7.572.071.169.141.336.206.501 3.263-.508 6.794.25 9.442-2.854zM46.845 85.007c1.636-1.339 3.25-2.71 4.86-4.083a2.75 2.75 0 00.66-.829c1.146-2.311 2.269-4.632 3.433-7.03-6.147 2.46-12.745 8.715-14.154 16.092 1.848-1.473 3.54-2.795 5.201-4.15zm36.335 100.63c-.27-.148-.885.037-1.178.271-2.544 2.021-5.05 4.087-7.837 6.362 1.895 1.128 3.626 2.185 5.391 3.172.213.122.71-.014.932-.203 2.542-2.159 5.058-4.352 7.703-6.639-1.739-1.045-3.345-2.057-5.011-2.963zm-13.932-11.402c-2.812 2.402-5.567 4.76-8.473 7.246 1.392 1.278 2.708 2.575 4.14 3.725.281.221 1.147.067 1.506-.215 2.514-1.955 4.966-3.991 7.494-6.052a7546.3 7546.3 0 00-4.667-4.704zm34.629 32.042c1.575.52 2.848.277 4.135-1.003 2.403-2.388 5.031-4.548 7.753-6.969-2.236-.539-4.305-1.056-6.387-1.518-.232-.051-.585.153-.806.33-2.992 2.441-5.97 4.894-9.222 7.568 1.717.606 3.116 1.121 4.527 1.592zM90.392 189.75c-.274-.123-.815.027-1.073.244-2.576 2.134-5.119 4.312-7.92 6.688 2.136 1.042 4.111 2.022 6.11 2.95.216.101.642.013.84-.146 2.746-2.248 5.469-4.519 8.19-6.778-2.08-1.013-4.098-2.02-6.147-2.958zm25.462 18.157c.511.058 1.233-.001 1.562-.316 2.707-2.585 5.344-5.243 8.122-7.997-2.488-.311-4.823-.613-7.165-.874-.261-.029-.615.126-.827.313-2.932 2.572-5.851 5.167-8.923 7.892 2.559.356 4.892.712 7.231.982zM40.517 92.928c-.666.565-.886 1.721-1.165 2.65-.637 2.12-1.182 4.268-1.883 6.838 2.205-1.683 3.994-3.246 5.967-4.517 3.126-2.015 5.39-4.465 5.777-8.38.147-1.464.79-2.876 1.277-4.552-3.473 2.742-6.795 5.269-9.973 7.96zm34.836 87.13c-.207-.151-.754-.129-.94.039-2.478 2.231-4.918 4.501-7.486 6.871 1.644 1.227 3.31 2.524 5.045 3.718.295.205 1.033.162 1.321-.068 2.56-2.072 5.068-4.211 7.678-6.403-1.896-1.416-3.736-2.812-5.618-4.157zm-12.002-12.41a7315.8 7315.8 0 00-8.33 7.286l4.62 5.396c2.91-2.414 5.737-4.756 8.628-7.151-1.61-1.814-3.214-3.614-4.918-5.531zm-4.914-7.275c-2.911 2.459-5.77 4.872-8.767 7.407a4546.79 4546.79 0 004.338 5.893c2.848-2.528 5.527-4.913 8.273-7.351l-3.844-5.949zM38.67 142.067c-.315.276-.534.997-.407 1.386.64 1.961 1.41 3.881 2.22 6.047 1.876-1.68 3.615-3.225 5.336-4.79 1.291-1.174 3.201-2.183 3.633-3.628.414-1.374-.722-3.218-1.19-4.854-.167-.591-.366-1.175-.594-1.908-3.074 2.631-6.065 5.159-8.998 7.747zm5.61 16.165c3.006-2.77 5.906-5.436 8.89-8.185-.832-2.151-1.702-4.4-2.648-6.839-3.104 2.736-6.094 5.376-9.247 8.151.982 2.248 1.954 4.472 3.006 6.873zm13.27.514l-3.4-6.904c-2.299 2.06-4.474 4.022-6.663 5.967-2.351 2.086-2.362 2.081-.83 4.787.66 1.168 1.336 2.326 2.127 3.696 3.004-2.584 5.84-5.029 8.766-7.546zm39.373 44.993c.297.118.843.021 1.093-.191 2.868-2.434 5.701-4.912 8.661-7.474-2.648-.914-5.168-1.801-7.702-2.635-.287-.094-.766-.005-.992.189-2.68 2.318-5.329 4.67-8.136 7.152 2.43 1.025 4.739 2.023 7.076 2.959zm-54.955-93.734c3.231-2.046 4.817-4.769 4.762-8.587-.02-1.319.368-2.645.579-4.018-3.322 2.384-6.593 4.72-9.84 7.091-.297.216-.546.638-.618 1.007-.606 3.117-1.167 6.248-1.739 9.379.097.064.2.129.298.196 2.177-1.704 4.237-3.593 6.558-5.068zm5.17 22.257c-.438-3.044-.912-6.308-1.365-9.455-3.22 2.671-6.495 5.373-9.732 8.118-.259.217-.433.742-.379 1.083.46 2.847.982 5.685 1.542 8.849l9.934-8.595zm-1.819-11.81c.175-.153.367-.407.367-.614.025-3.48.02-6.965.021-10.413-3.428 2.584-6.843 5.139-10.223 7.737-.315.242-.582.768-.578 1.16.024 3.505.11 7.007.18 10.512.146.047.292.091.44.137 3.266-2.837 6.535-5.672 9.793-8.519zm159.704-24.1c-3.945-15.48-12.442-28.166-24.53-38.437-18.962-16.112-40.876-23.571-65.791-21.764-2.987.218-5.953.79-8.909 1.336-1.132.206-2.198.795-3.293 1.21-.726.272-1.442.745-2.18.788-4.945.277-9.1 2.717-13.279 4.938-11.068 5.883-20.069 14.135-27.08 24.517-5.78 8.558-9.06 18.098-10.693 28.227-1.738 10.818-2.457 21.683-.951 32.598.88 6.368 2.6 12.596 5.587 18.2 7.404 13.885 17.07 25.972 30.608 34.428 17.318 10.815 36.142 16.08 56.602 13.71 19.066-2.212 34.268-11.71 46.489-26.254 4.423-5.264 8.025-11.069 11.125-17.23 8.446-18.029 11.275-36.736 6.295-56.267zM66.864 191.24c-13.163-9.511-22.623-21.957-28.952-36.943-4.158-9.85-7.369-19.878-7.411-30.623-.054-13.486 2.812-26.4 8.746-38.565a26.379 26.379 0 012.652-4.339c2.47-3.249 5.028-6.428 7.602-9.595 2.206-2.72 4.258-5.627 6.78-8.027 4.419-4.205 9.162-8.06 13.735-12.098 3.948-3.482 8.239-6.493 13.064-8.546 4.234-1.802 8.683-3.093 13.022-4.647 10.607-3.797 21.523-5.093 32.743-4.267 18.149 1.336 34.331 7.872 48.936 18.5 12.204 8.885 21.684 20.045 27.221 34.211 8.757 22.396 6.627 44.371-2.81 66.055-5.013 11.52-13.112 20.858-21.37 29.967-4.26 4.7-9.734 8.33-14.83 12.227-9.296 7.115-19.796 11.572-31.298 13.807-10.522 2.049-21.056 2.542-31.41-.449-7.547-2.18-14.874-5.118-21.456-7.422-5.553-3.402-10.486-6.008-14.964-9.246z" fill="url(#paint0_linear_689_15808)"/><path d="M105.866 47.05c1.215-.364 2.386-.855 3.572-1.314-.199-.468-.27-1.145-.623-1.359-.97-.586-2.896.154-3.529 1.538.118.243.49 1.16.58 1.135zm88.192 95.309c.231-1.02.598-2.33-.61-2.723-1.249-.406-1.457.965-1.756 1.86-.175.537-.353 1.113-.329 1.663.022.495.316.983.489 1.473.418-.226.891-.39 1.24-.697.34-.298.552-.743.73-.996.121-.292.201-.432.236-.58zm-31.741 35.872c-1.132-.32-3.247.679-3.734 1.75-.152.336.065 1.147.358 1.316 1.008.587 3.715-.551 4.379-2.044-.249-.269-.554-.894-1.003-1.022zm-51.813 7.286c.422-.037.868-.735 1.11-1.228.06-.124-.595-.822-.993-.9-1.253-.25-2.54-.375-3.821-.44-.274-.011-.852.589-.812.664.284.558.689 1.057 1.146 1.699 1.16.09 2.28.304 3.37.205zm52.289-128.133c.32.105.89.032 1.068-.188.164-.203.099-.91-.102-1.05-1.399-.944-2.819-1.86-4.316-2.631-.329-.171-.981.288-1.484.458.249.503.383 1.158.779 1.479.591.478 1.369.717 2.069 1.057a.49.49 0 00.024-.048c.652.315 1.282.696 1.962.923zm34.335 49.763c.713-1.318.105-5.353-.983-6.338-.26-.237-.854-.45-1.063-.318-.312.202-.624.743-.58 1.098.11.913.386 1.814.64 2.705.322 1.122.691 2.232 1.124 3.625.436-.384.731-.531.862-.772zm-25.326 64.349c-.268-.218-1.024-.146-1.353.097a45.098 45.098 0 00-3.683 3.036c-.261.237-.422.954-.259 1.179.195.271.926.484 1.19.328 1.513-.907 2.961-1.928 4.436-2.922-.133-.836-.055-1.502-.331-1.718zM142.528 46.79c-.391-.045-.861.535-1.297.828.321.386.582 1.013.979 1.115 1.832.484 3.698.846 5.566 1.184.253.046.775-.221.809-.41.046-.264-.169-.696-.41-.865-.455-.327-1.002-.519-1.515-.768.019-.079.038-.157.054-.234-1.392-.301-2.777-.682-4.186-.85zm-65.61 20.09c.627-.145 1.433-.096 1.842-.474 1.005-.942 1.864-2.053 2.698-3.16.229-.3.159-.832.225-1.257-.428-.02-.96-.212-1.26-.028-1.33.816-2.59 1.74-4.01 2.717.21.924.358 1.564.505 2.201zm98.516.212c.313.067.786.098.955-.078.183-.192.247-.725.107-.96-1.138-1.94-2.854-3.213-4.957-3.938-.298-.106-1.004.117-1.056.313-.094.358.025.955.286 1.199 1.203 1.106 2.482 2.123 3.735 3.174.043-.055.085-.106.13-.158.266.154.516.386.8.447zm-43.439-20.863c.225-.013.609-.513.587-.76-.03-.332-.347-.882-.598-.918a61.8 61.8 0 00-5.483-.499c-.285-.012-.829.588-.839.917-.013.406.407.829.746 1.434 1.904-.047 3.75-.068 5.587-.174zM73.422 70.95c-1.764 1.046-3.267 2.395-3.868 4.422-.163.556.22 1.279.352 1.924.566-.297 1.33-.456 1.66-.92 1.173-1.667 2.201-3.44 3.538-5.573-.895.065-1.373-.034-1.682.148zm108.99 90.504c.005-.871-.624-1.218-1.199-.664-1.456 1.423-2.797 2.968-4.111 4.527-.206.243-.164 1.076.02 1.18.369.204 1.1.305 1.356.078 1.297-1.147 2.49-2.407 3.53-3.444.198-.791.397-1.233.404-1.677zm-28.959 22.651c.403-.89-.139-1.498-.856-1.295-1.899.533-3.746 1.28-5.561 2.068-.192.085-.03.984-.031 1.326 1.885.811 5.801-.661 6.448-2.099zm44.116-55.353c-.016-.379-.61-.731-.94-1.093-.37.368-.981.69-1.069 1.117a36.728 36.728 0 00-.66 4.885c-.033.496.429 1.022.663 1.533.443-.353.889-.7 1.317-1.072.107-.095.14-.272.209-.413l.44.013c.027-1.659.117-3.32.04-4.97zM66.632 145.91c.267-.304.289-1.114.072-1.515-.874-1.638-1.864-3.216-2.857-4.786-.127-.201-.57-.377-.776-.303-.29.099-.615.407-.706.693-.476 1.512 1.238 5.145 3.109 6.106.177-.019.898.098 1.158-.195zm119.052 8.937c-.057.371.144.98.424 1.146.283.163.928.05 1.208-.187 1.601-1.356 2.421-3.171 2.723-5.206.05-.337-.306-.948-.614-1.071-.329-.133-.978.031-1.229.308-.684.748-1.237 1.627-1.811 2.41-.26.917-.568 1.745-.701 2.6zM58.382 103.443c-.037.502.567 1.048.879 1.574.46-.408 1.218-.748 1.322-1.233.413-1.907.66-3.857.862-5.805.03-.292-.634-.954-.723-.913-.544.261-1.017.673-1.586 1.088-.276 1.832-.627 3.55-.754 5.289zM96.13 51.457c.28.315 1.016.627 1.309.47 1.704-.917 3.419-1.858 4.958-3.021.741-.56.322-1.325-.618-1.526-1.436-.307-4.902 1.424-5.752 3.012.011.215-.128.807.103 1.065zm93.958 36.23a104.57 104.57 0 002.825 5.35c.151.266.753.516 1.01.413.281-.106.648-.72.556-.956-.797-2.111-1.604-4.231-2.605-6.251-.342-.69-1.24-.95-2.04.1.066.374.042.918.254 1.345zM65.521 83.45a120.21 120.21 0 00-3.118 5.961c-.19.38-.18.931-.083 1.36.093.402.427.746.655 1.115.356-.236.895-.39 1.035-.714.889-2.08 1.698-4.195 2.512-6.307.231-.596.382-1.22.57-1.833a25.77 25.77 0 01-.394-.336c-.402.247-.977.398-1.177.754zm-5.579 35.541c-.15-2.462-.428-4.922-.739-7.374-.038-.293-.485-.652-.812-.756-.183-.056-.712.336-.742.571-.31 2.555-.678 5.128.325 7.627.129.321.4.582.859 1.234.454-.51 1.13-.927 1.11-1.302zm63.427 68.638c.473.013.965-.704 1.451-1.086-.439-.363-.837-.975-1.32-1.049-2.135-.332-4.291-.53-6.448-.706-.303-.024-.639.358-.958.554.383.527.765 1.058 1.291 1.78 2.028.194 4.002.46 5.984.507zm63.246-107.988c.276-.272.528-.883.403-1.19-.822-2.049-1.965-3.9-3.926-5.049-.357-.207-1.048-.169-1.406.052-.264.16-.464.96-.298 1.203 1.219 1.773 2.542 3.478 3.813 5.177.672-.072 1.195.02 1.414-.193zM61.97 133.104c-.218-1.31-.696-2.587-1.15-3.847a12.889 12.889 0 00-1.138-2.376c-.18-.299-.637-.55-.98-.573-.22-.016-.593.394-.682.683-.515 1.62.956 6.18 2.28 7.205.082.062.176.109.264.163.864.448 1.6-.086 1.407-1.255zm25.085-74.175a118.698 118.698 0 005.32-4c.316-.25.342-.855.505-1.295-.465-.063-.997-.308-1.377-.16-2.174.845-4.374 1.729-5.79 3.718-.357.507-.356 1.27-.631 2.35 1.046-.31 1.595-.343 1.973-.613zM140.6 187.443c.456-.238.678-.915 1.009-1.391-.478-.235-.982-.711-1.43-.66-2.255.242-4.497.59-6.73.988-.34.061-.757.524-.843.877-.06.234.4.6.476.707 2.769.713 5.216.687 7.518-.521zm57.809-72.88c-.029-.344-.773-.831-1.217-.864-.311-.024-.956.616-.956.961-.004 2.356.099 4.717.251 7.069.018.253.564.625.894.656.308.033.656-.315 1.345-.69-.087-2.359-.127-4.753-.317-7.132zM84.864 169.527c-.17-.627-.141-1.475-.547-1.846-1.754-1.6-3.618-3.083-5.49-4.548-.292-.233-.833-.146-1.26-.208-.002.471-.203 1.117.028 1.382 1.634 1.846 3.357 3.614 5.167 5.531l2.102-.311zm26.676-125.67c-.278.141-.556.723-.484 1.008.093.371.558.941.837.923a95.796 95.796 0 006.851-.614c.274-.034.645-.7.643-1.074.003-.366-.41-.737-.61-1.057-2.596-.426-4.987-.335-7.237.813zm-38.241 112.56c.274-.489.273-1.481-.062-1.904-1.341-1.692-2.841-3.262-4.326-4.837-.19-.198-.849-.299-.925-.19-.27.38-.61.942-.508 1.315.663 2.346 1.836 4.371 4.372 5.84.314-.035 1.275.086 1.449-.224zm25.112 23.91c.593.109 1.281-.3 1.93-.479-.277-.596-.395-1.505-.857-1.738-2.192-1.114-4.462-2.089-6.752-2.996-.338-.136-1.07.25-1.344.607-.15.192.153 1.002.47 1.24 1.108.837 2.312 1.548 3.383 2.245 1.132.418 2.123.929 3.17 1.121zm51.13-98.673c-4.945-10.376-15.428-17.368-29.23-13.85-5.134 1.31-9.393 4.07-13.207 7.588-1.098 1.01-1.709 1.05-2.695-.11-2.316-2.722-4.746-5.349-7.165-7.982-.553-.601-1.167-1.292-1.892-1.546-.586-.207-1.535-.035-2.058.342-1.486 1.072-2.743 2.475-4.261 3.498-4.034 2.716-4.333 3.7-1.254 7.373 2.253 2.692 4.76 5.172 7.227 7.68.711.724.794 1.128-.15 1.571-2.864-3.034-5.74-6.011-8.534-9.06-1.442-1.573-2.916-1.481-4.142.294-.39.563-1.062.948-1.654 1.342-1.462.976-3.065 1.774-4.404 2.893-1.718 1.439-1.666 2.675-.278 4.389 2.769 3.408 5.5 6.85 8.36 10.416-2.364 2.124-4.736 4.272-7.137 6.39-2.17 1.919-2.274 2.039-.494 4.417 1.734 2.321 3.645 4.511 5.509 6.736.9 1.077 1.78 1.321 3 .196 1.48-1.362 3.277-2.377 4.774-3.723 1.178-1.052 1.875-.77 2.753.309 2.331 2.846 4.666 5.692 7.114 8.44 5.783 6.502 11.647 12.935 17.449 19.422 4.804 5.372 9.559 10.788 14.363 16.16.649.727.364 1.098-.215 1.639a97.56 97.56 0 00-4.301 4.257c-1.005 1.065-.99 2.192.066 3.304 2.174 2.294 4.27 4.669 6.483 6.925 1.42 1.451 1.599 1.253 3.087-.069 3.322-2.951 6.758-5.769 10.186-8.673 2.324 2.357 4.58 4.625 6.81 6.924 3.258 3.351 3.878 3.429 7.324.354 1.581-1.409 3.019-2.987 4.475-4.527 1.03-1.095.694-2.171-.198-3.183-2.332-2.645-4.661-5.293-6.99-7.94-.301-.345-.601-.695-1.019-1.178.587-.553 1.127-1.057 1.788-1.676.941 1.122 1.73 2.208 2.664 3.15 2.08 2.092 4.292 4.055 6.335 6.18 1.089 1.13 2.081 1.027 3.119.168 1.076-.884 2.091-1.853 3.075-2.846 1.111-1.123 2.311-2.207 3.168-3.51.453-.686.521-1.883.274-2.702-.269-.883-1.031-1.668-1.716-2.355-2.046-2.059-4.073-4.156-6.28-6.031-1.28-1.092-1.061-1.722-.077-2.824 1.928-2.162 4.022-4.277 5.456-6.755 7.564-13.039 4.511-26.477-8.684-33.786-1.356-.747-2.818-1.312-4.264-1.883-3.37-1.332-6.762-1.498-10.122.047-.467.214-.882.536-1.322.809 1.075-6.113 1.378-11.78-1.116-17.004zm38.064 88.194c-12.221 14.544-27.423 24.042-46.489 26.254-20.46 2.371-39.284-2.895-56.601-13.71-13.54-8.456-23.205-20.542-30.609-34.427-2.988-5.605-4.708-11.833-5.587-18.2-1.506-10.915-.787-21.78.951-32.598 1.633-10.13 4.913-19.67 10.693-28.227 7.012-10.382 16.012-18.635 27.08-24.518 4.18-2.22 8.334-4.66 13.279-4.937.739-.043 1.454-.516 2.18-.789 1.095-.414 2.161-1.003 3.293-1.21 2.956-.545 5.922-1.118 8.909-1.335 24.915-1.808 46.829 5.651 65.792 21.763 12.087 10.272 20.584 22.958 24.529 38.437 4.98 19.532 2.151 38.239-6.295 56.268-3.1 6.161-6.702 11.966-11.125 17.229zM35.526 128.971c3.267-2.837 6.536-5.671 9.794-8.518.174-.154.366-.407.367-.615.024-3.479.02-6.965.02-10.413-3.428 2.585-6.843 5.139-10.222 7.737-.315.242-.583.769-.578 1.161.023 3.504.11 7.007.179 10.512l.44.136zm1.676 11.887c3.54-3.062 6.689-5.786 9.934-8.596-.438-3.043-.912-6.307-1.365-9.454-3.22 2.671-6.494 5.373-9.732 8.118-.258.217-.433.742-.379 1.083.46 2.847.982 5.685 1.542 8.849zm-1.789-25.786c2.177-1.704 4.237-3.593 6.558-5.068 3.231-2.046 4.817-4.769 4.762-8.587-.02-1.319.368-2.645.579-4.018-3.322 2.384-6.593 4.72-9.84 7.091-.297.216-.546.638-.618 1.007-.607 3.116-1.167 6.248-1.739 9.378.097.065.199.13.298.197zm54.435 85.707c2.43 1.026 4.74 2.023 7.076 2.959.298.118.843.021 1.093-.191 2.869-2.434 5.701-4.911 8.661-7.474-2.648-.914-5.168-1.801-7.701-2.635-.287-.094-.766-.005-.992.189-2.68 2.318-5.33 4.671-8.137 7.152zm-41.064-34.487c3.004-2.584 5.84-5.029 8.766-7.546l-3.4-6.904c-2.3 2.06-4.474 4.022-6.663 5.967-2.351 2.086-2.362 2.081-.83 4.787.66 1.168 1.336 2.326 2.127 3.696zm-7.507-14.934c.982 2.248 1.954 4.472 3.005 6.873 3.006-2.77 5.906-5.436 8.89-8.185-.832-2.151-1.702-4.4-2.648-6.839-3.104 2.736-6.094 5.376-9.247 8.151zm6.393-17.039c-3.074 2.632-6.066 5.16-9 7.748-.314.276-.533.996-.406 1.385.64 1.961 1.41 3.881 2.22 6.048 1.876-1.681 3.615-3.226 5.336-4.791 1.291-1.174 3.201-2.183 3.634-3.628.413-1.374-.723-3.217-1.19-4.853-.168-.591-.367-1.176-.595-1.909zm14.609 32.003c-1.315-2.037-2.545-3.939-3.844-5.948-2.911 2.458-5.77 4.872-8.767 7.407 1.453 1.976 2.847 3.87 4.338 5.893 2.848-2.528 5.527-4.913 8.273-7.352zm5.99 6.857c-1.611-1.814-3.214-3.614-4.919-5.531-2.744 2.396-5.47 4.782-8.33 7.286l4.62 5.396c2.91-2.413 5.738-4.756 8.629-7.151zm12.704 11.035c-1.897-1.416-3.736-2.812-5.618-4.157-.208-.151-.755-.129-.94.039-2.478 2.231-4.919 4.501-7.487 6.871 1.645 1.227 3.31 2.524 5.045 3.718.296.205 1.034.162 1.322-.068 2.56-2.071 5.068-4.211 7.678-6.403zM50.488 84.968c-3.473 2.741-6.795 5.268-9.974 7.96-.666.566-.885 1.722-1.165 2.65-.637 2.12-1.181 4.269-1.882 6.838 2.205-1.682 3.994-3.245 5.967-4.516 3.125-2.015 5.39-4.466 5.777-8.38.147-1.464.79-2.877 1.277-4.552zm58.132 121.956c2.559.357 4.892.713 7.231.982.511.058 1.233-.001 1.562-.315 2.707-2.585 5.344-5.243 8.122-7.997-2.488-.312-4.823-.614-7.165-.874-.261-.03-.615.126-.827.312-2.932 2.572-5.851 5.167-8.923 7.892zm-12.082-14.217c-2.08-1.012-4.098-2.02-6.147-2.957-.274-.124-.815.027-1.073.243-2.576 2.134-5.118 4.313-7.919 6.689 2.135 1.041 4.11 2.021 6.109 2.95.216.101.642.012.84-.147 2.746-2.248 5.469-4.518 8.19-6.778zm2.812 11.978c1.717.605 3.116 1.121 4.527 1.592 1.574.519 2.847.277 4.134-1.004 2.403-2.387 5.032-4.547 7.754-6.968-2.236-.54-4.305-1.056-6.388-1.519-.232-.05-.584.153-.805.33-2.992 2.442-5.971 4.894-9.223 7.569zm-25.434-25.748c-1.512-1.526-3.06-3.087-4.666-4.704-2.813 2.402-5.568 4.759-8.474 7.245 1.392 1.279 2.709 2.575 4.14 3.726.281.221 1.147.067 1.507-.216 2.513-1.955 4.965-3.99 7.493-6.051zm14.274 9.662c-1.738-1.045-3.345-2.056-5.01-2.963-.27-.148-.885.037-1.179.271-2.543 2.021-5.049 4.087-7.836 6.362 1.895 1.128 3.625 2.185 5.39 3.173.214.121.71-.015.932-.204 2.543-2.159 5.058-4.352 7.703-6.639zM41.647 89.156c1.848-1.473 3.54-2.795 5.2-4.15 1.637-1.339 3.25-2.71 4.86-4.083.264-.227.506-.517.66-.829 1.147-2.312 2.27-4.632 3.433-7.03-6.147 2.46-12.744 8.715-14.153 16.092zm78.902 118.885c3.263-.508 6.794.25 9.441-2.854 1.663-1.945 3.73-3.54 5.876-5.539-2.436.031-4.607.055-6.771.095-.136-.001-.286.123-.397.225-2.789 2.52-5.573 5.048-8.356 7.572.072.169.141.336.207.501zm26.881-9.894c-2.569.375-4.92.71-7.267 1.072-.398.061-.878.127-1.15.379-2.38 2.193-4.725 4.427-6.97 6.971 2.824-.838 5.88-1.249 8.403-2.627 2.551-1.39 4.579-3.737 6.984-5.795zM52.287 72.52c2.135-1.322 4.186-2.34 5.92-3.751 1.115-.907 1.725-2.421 2.63-3.609a126.167 126.167 0 013.853-4.837c1.28-1.525 2.64-2.986 4.12-4.649-3.996 2.292-14.449 12.958-16.523 16.847zm103.68 123.401c-4.48.267-7.478 2.979-10.376 6.163 3.817-.779 8.167-3.395 10.376-6.163z" fill="#0C0B0A"/><path d="M89.67 105.973c.953-.862 1.874-1.127 2.822-.065 3.51 3.95 7.216 7.745 10.469 11.901 7.493 9.567 15.72 18.465 24.037 27.297 2.628 2.794 5.182 5.662 7.706 8.549 1.63 1.867 1.535 2.723-.358 4.451-1.303 1.188-2.651 2.324-4.008 3.45-.762.627-.821 1.176-.13 1.924 1.821 1.975 3.587 3.999 5.384 6.011 3.695-3.51 7.289-6.934 10.893-10.346 1.602-1.51 1.55-1.443 3.056.24 2.621 2.926 5.329 5.779 8.12 8.791l4.566-4.35c-3.053-3.571-6.064-7.092-9.249-10.82 1.981-1.861 3.92-3.77 5.989-5.525.265-.224 1.383.182 1.818.597 2.065 1.961 4.057 3.999 6.017 6.066 1.032 1.084 1.941 2.281 3.083 3.641 1.654-1.647 3.241-3.229 4.963-4.941-.606-.605-1.189-1.159-1.743-1.741-2.428-2.545-4.817-5.121-7.278-7.632-.972-.994-.957-1.646.123-2.626 3.925-3.56 7.046-7.719 8.834-12.773 1.12-3.165 1.671-6.449 1.408-9.789-.518-6.456-4.135-11.081-9.299-14.531-3.365-2.241-6.979-4.339-11.24-3.908-2.497.254-4.926 1.156-7.395 1.717-.517.122-1.081.023-1.621.026.085-.504.17-1.008.25-1.508.415-2.66.905-5.308 1.239-7.978 1.199-9.545-5.208-19.314-14.418-21.977-5.231-1.509-10.206-.633-15.108 1.573-4.546 2.042-8.596 4.749-12.351 7.984-1.718 1.477-1.811 1.422-3.357-.215-2.76-2.925-5.487-5.884-8.32-8.924a3103.5 3103.5 0 01-4.015 3.276l9.886 11.543c-2.164 2.08-4.233 4.075-6.41 6.165a19841.5 19841.5 0 01-10.022-9.996 2337.66 2337.66 0 01-4.785 3.145c2.87 3.043 5.665 6.003 8.46 8.964.248.266.469.556.727.81.933.912.914 1.57-.212 2.456-3.204 2.53-6.292 5.204-9.546 7.921 1.596 2.12 3.198 4.251 4.922 6.54 2.149-1.898 4.14-3.626 6.093-5.393zm62.308-8.124c3.36-1.544 6.752-1.38 10.122-.047 1.446.57 2.908 1.136 4.264 1.883 13.196 7.309 16.248 20.747 8.684 33.786-1.433 2.478-3.528 4.593-5.456 6.755-.984 1.102-1.203 1.732.078 2.824 2.207 1.875 4.233 3.972 6.279 6.031.686.687 1.447 1.472 1.716 2.355.248.819.18 2.016-.274 2.703-.856 1.302-2.057 2.387-3.168 3.509-.983.993-1.999 1.962-3.074 2.846-1.038.859-2.031.962-3.12-.168-2.042-2.125-4.255-4.088-6.334-6.18-.935-.942-1.724-2.028-2.664-3.149-.662.618-1.202 1.122-1.789 1.675.419.484.718.833 1.019 1.178 2.329 2.648 4.658 5.295 6.99 7.941.892 1.011 1.228 2.087.198 3.182-1.456 1.54-2.894 3.118-4.475 4.527-3.446 3.076-4.066 2.998-7.324-.354-2.229-2.299-4.486-4.567-6.809-6.924-3.428 2.904-6.864 5.722-10.186 8.673-1.489 1.322-1.668 1.52-3.088.069-2.212-2.256-4.309-4.631-6.483-6.925-1.055-1.112-1.07-2.239-.065-3.304a98.088 98.088 0 014.3-4.257c.579-.541.864-.912.216-1.639-4.805-5.372-9.559-10.788-14.363-16.16-5.802-6.487-11.666-12.92-17.45-19.422-2.447-2.748-4.782-5.594-7.113-8.44-.879-1.079-1.575-1.361-2.753-.309-1.498 1.346-3.295 2.361-4.775 3.723-1.219 1.125-2.1.881-3-.196-1.863-2.225-3.774-4.414-5.51-6.736-1.778-2.378-1.675-2.498.496-4.416 2.4-2.119 4.772-4.267 7.136-6.391-2.86-3.566-5.591-7.008-8.36-10.416-1.387-1.714-1.44-2.95.278-4.39 1.339-1.118 2.942-1.916 4.405-2.892.591-.394 1.264-.779 1.653-1.342 1.227-1.775 2.7-1.867 4.142-.293 2.794 3.048 5.67 6.025 8.535 9.059.943-.443.86-.847.149-1.57-2.467-2.509-4.974-4.99-7.227-7.68-3.079-3.673-2.78-4.658 1.254-7.374 1.518-1.023 2.776-2.426 4.261-3.498.523-.377 1.473-.549 2.058-.342.726.254 1.339.945 1.893 1.546 2.418 2.633 4.848 5.26 7.164 7.982.986 1.16 1.598 1.12 2.695.11 3.814-3.518 8.073-6.278 13.207-7.588 13.802-3.518 24.285 3.474 29.231 13.85 2.494 5.224 2.191 10.891 1.115 17.004.44-.273.855-.595 1.322-.809z" fill="url(#paint1_linear_689_15808)"/><path d="M95.242 179.205c1.132.418 2.123.929 3.17 1.121.592.109 1.281-.3 1.929-.479-.276-.596-.395-1.504-.856-1.738-2.192-1.114-4.462-2.089-6.752-2.996-.338-.135-1.07.25-1.345.608-.149.191.154 1.001.471 1.239 1.108.837 2.312 1.548 3.383 2.245z" fill="url(#paint2_linear_689_15808)"/><path d="M71.849 156.64c.314-.035 1.275.087 1.45-.224.273-.489.272-1.48-.063-1.904-1.34-1.691-2.841-3.261-4.326-4.836-.19-.198-.849-.299-.925-.191-.27.381-.61.943-.508 1.316.663 2.346 1.836 4.371 4.372 5.839z" fill="url(#paint3_linear_689_15808)"/><path d="M118.774 43.044c-2.595-.426-4.986-.335-7.236.814-.279.142-.556.723-.485 1.009.094.37.558.94.837.922a95.888 95.888 0 006.852-.614c.273-.034.645-.7.643-1.074.002-.366-.411-.736-.611-1.057z" fill="url(#paint4_linear_689_15808)"/><path d="M82.757 169.839l2.102-.311c-.17-.627-.141-1.475-.547-1.846-1.754-1.599-3.618-3.083-5.49-4.547-.293-.234-.833-.147-1.26-.209-.002.471-.204 1.118.028 1.382 1.633 1.846 3.357 3.614 5.167 5.531z" fill="url(#paint5_linear_689_15808)"/><path d="M198.724 121.696c-.088-2.359-.128-4.753-.318-7.132-.029-.344-.773-.832-1.217-.865-.31-.023-.956.616-.956.962-.004 2.355.1 4.716.251 7.068.018.253.564.626.894.657.308.033.657-.315 1.346-.69z" fill="url(#paint6_linear_689_15808)"/><path d="M133.082 187.963c2.769.713 5.216.688 7.518-.521.457-.237.679-.914 1.009-1.391-.478-.235-.982-.711-1.43-.659-2.254.242-4.497.589-6.729.987-.341.061-.758.524-.843.878-.061.234.399.6.475.706z" fill="url(#paint7_linear_689_15808)"/><path d="M85.078 59.543c1.046-.311 1.595-.343 1.973-.613a118.772 118.772 0 005.32-4c.315-.25.342-.855.505-1.295-.465-.063-.997-.308-1.378-.16-2.173.845-4.373 1.728-5.788 3.718-.358.507-.357 1.27-.632 2.35z" fill="url(#paint8_linear_689_15808)"/><path d="M60.562 134.36c.864.448 1.6-.086 1.406-1.256-.218-1.31-.696-2.586-1.15-3.847a12.925 12.925 0 00-1.138-2.376c-.18-.298-.637-.549-.98-.572-.22-.016-.593.394-.682.682-.515 1.621.956 6.181 2.28 7.205.081.062.176.109.264.164z" fill="url(#paint9_linear_689_15808)"/><path d="M185.201 79.834c.672-.073 1.195.02 1.414-.193.276-.272.528-.884.403-1.191-.821-2.048-1.965-3.899-3.926-5.049-.356-.207-1.048-.169-1.406.053-.264.16-.464.96-.298 1.202 1.219 1.773 2.543 3.479 3.813 5.177z" fill="url(#paint10_linear_689_15808)"/><path d="M117.384 187.122c2.029.193 4.002.46 5.984.507.473.013.965-.704 1.451-1.086-.438-.363-.837-.975-1.32-1.049-2.134-.332-4.29-.53-6.448-.706-.303-.024-.639.358-.958.554.383.526.765 1.058 1.291 1.78z" fill="url(#paint11_linear_689_15808)"/><path d="M58.832 120.293c.453-.51 1.13-.927 1.109-1.302-.15-2.461-.428-4.921-.739-7.373-.038-.294-.485-.652-.812-.756-.183-.056-.712.336-.742.571-.31 2.555-.678 5.128.325 7.627.129.32.4.581.859 1.233z" fill="url(#paint12_linear_689_15808)"/><path d="M66.697 82.695c-.402.247-.977.399-1.177.755a120.04 120.04 0 00-3.118 5.96c-.19.381-.18.932-.083 1.36.093.402.427.747.655 1.115.356-.236.895-.389 1.035-.714.888-2.08 1.698-4.194 2.512-6.307.23-.596.382-1.22.57-1.832a26.668 26.668 0 01-.394-.337z" fill="url(#paint13_linear_689_15808)"/><path d="M189.833 86.342c.067.375.043.92.255 1.346a104.57 104.57 0 002.825 5.349c.15.266.753.516 1.009.413.281-.106.648-.72.557-.956-.798-2.111-1.605-4.231-2.605-6.251-.342-.69-1.24-.95-2.041.1z" fill="url(#paint14_linear_689_15808)"/><path d="M96.026 50.392c.011.215-.128.807.103 1.065.28.315 1.016.627 1.309.47 1.704-.917 3.419-1.858 4.958-3.021.741-.56.322-1.325-.618-1.526-1.436-.307-4.903 1.424-5.752 3.012z" fill="url(#paint15_linear_689_15808)"/><path d="M59.136 98.154c-.277 1.833-.627 3.55-.755 5.289-.037.502.568 1.048.88 1.575.46-.409 1.218-.749 1.321-1.233.414-1.908.66-3.858.862-5.806.03-.292-.633-.954-.723-.913-.544.261-1.016.673-1.585 1.088z" fill="url(#paint16_linear_689_15808)"/><path d="M186.383 152.247c-.26.916-.567 1.744-.701 2.6-.057.371.145.98.424 1.145.283.164.928.051 1.208-.186 1.601-1.356 2.421-3.171 2.723-5.207.05-.337-.306-.947-.614-1.07-.329-.133-.978.031-1.229.307-.684.749-1.236 1.628-1.811 2.411z" fill="url(#paint17_linear_689_15808)"/><path d="M65.471 146.106c.177-.019.899.098 1.158-.195.268-.305.29-1.114.072-1.515-.874-1.638-1.864-3.217-2.856-4.786-.128-.201-.572-.377-.777-.304-.289.099-.614.408-.705.693-.477 1.512 1.238 5.146 3.108 6.107z" fill="url(#paint18_linear_689_15808)"/><path d="M197.528 133.72c.027-1.658.117-3.319.04-4.969-.016-.379-.61-.731-.939-1.093-.371.368-.981.69-1.069 1.117a36.574 36.574 0 00-.661 4.884c-.033.497.429 1.023.664 1.534.442-.353.888-.701 1.317-1.072.106-.095.139-.272.208-.414.146.006.291.009.44.013z" fill="url(#paint19_linear_689_15808)"/><path d="M147.001 186.205c1.884.81 5.801-.662 6.448-2.1.403-.89-.139-1.498-.856-1.294-1.899.532-3.746 1.279-5.561 2.068-.192.084-.03.983-.031 1.326z" fill="url(#paint20_linear_689_15808)"/><path d="M182.006 163.131c.198-.791.397-1.233.404-1.677.005-.871-.624-1.218-1.199-.664-1.456 1.423-2.797 2.968-4.111 4.527-.206.243-.165 1.076.02 1.18.369.204 1.1.305 1.356.078 1.297-1.147 2.49-2.407 3.53-3.444z" fill="url(#paint21_linear_689_15808)"/><path d="M75.103 70.802c-.895.065-1.373-.035-1.682.147-1.765 1.045-3.268 2.394-3.868 4.421-.163.557.22 1.28.352 1.924.565-.296 1.33-.456 1.66-.92 1.173-1.666 2.201-3.44 3.538-5.572z" fill="url(#paint22_linear_689_15808)"/><path d="M126.405 46.404c1.905-.048 3.75-.068 5.587-.174.225-.013.61-.513.588-.76-.031-.332-.348-.882-.598-.918a61.906 61.906 0 00-5.483-.5c-.285-.011-.83.589-.839.917-.014.407.407.83.745 1.435z" fill="url(#paint23_linear_689_15808)"/><path d="M174.633 66.643c.266.155.517.386.8.448.314.067.787.099.955-.078.183-.192.247-.725.107-.96-1.138-1.94-2.854-3.212-4.957-3.938-.298-.106-1.004.117-1.056.313-.094.358.025.955.286 1.199 1.203 1.106 2.482 2.123 3.735 3.174.043-.055.085-.106.13-.158z" fill="url(#paint24_linear_689_15808)"/><path d="M76.412 64.678c.21.924.357 1.564.504 2.202.627-.144 1.434-.095 1.842-.474 1.006-.941 1.864-2.053 2.699-3.16.228-.3.158-.831.225-1.257-.429-.02-.961-.212-1.26-.028-1.33.817-2.59 1.74-4.01 2.718z" fill="url(#paint25_linear_689_15808)"/><path d="M146.712 47.64c-1.392-.301-2.777-.682-4.186-.85-.39-.045-.86.535-1.296.828.321.386.581 1.014.978 1.115 1.832.484 3.699.846 5.567 1.184.252.046.774-.221.808-.41.047-.264-.169-.696-.409-.865-.456-.327-1.003-.519-1.515-.768.019-.079.037-.157.053-.234z" fill="url(#paint26_linear_689_15808)"/><path d="M172.132 173.215c-.134-.837-.056-1.502-.331-1.719-.268-.217-1.024-.146-1.354.097a45.462 45.462 0 00-3.682 3.036c-.262.238-.423.955-.259 1.18.194.271.926.484 1.189.328 1.514-.908 2.962-1.928 4.437-2.922z" fill="url(#paint27_linear_689_15808)"/><path d="M196.265 107.919c.436-.383.731-.531.862-.772.713-1.317.105-5.353-.983-6.338-.26-.236-.854-.45-1.063-.318-.312.202-.623.743-.58 1.098.11.914.386 1.815.641 2.705.321 1.123.691 2.232 1.123 3.625z" fill="url(#paint28_linear_689_15808)"/><path d="M160.832 56.46c.652.315 1.281.696 1.962.924.319.105.89.03 1.068-.188.164-.204.098-.91-.103-1.05-1.398-.944-2.818-1.861-4.316-2.632-.328-.171-.98.288-1.483.458.249.503.383 1.159.778 1.48.592.477 1.369.716 2.069 1.056.009-.016.019-.033.025-.048z" fill="url(#paint29_linear_689_15808)"/><path d="M107.13 185.314c1.161.089 2.281.303 3.37.204.422-.037.869-.734 1.111-1.227.059-.125-.595-.822-.994-.9-1.253-.25-2.54-.376-3.821-.44-.273-.012-.851.589-.812.664.284.557.689 1.057 1.146 1.699z" fill="url(#paint30_linear_689_15808)"/><path d="M163.318 179.254c-.249-.27-.553-.894-1.003-1.022-1.132-.32-3.247.679-3.734 1.75-.152.335.065 1.146.358 1.316 1.008.587 3.715-.552 4.379-2.044z" fill="url(#paint31_linear_689_15808)"/><path d="M193.82 142.94c.121-.292.202-.432.236-.58.231-1.021.599-2.33-.609-2.723-1.25-.406-1.458.965-1.757 1.86-.175.537-.353 1.113-.329 1.663.023.495.316.983.49 1.473.418-.226.891-.39 1.24-.697.339-.298.552-.744.729-.996z" fill="url(#paint32_linear_689_15808)"/><path d="M105.283 45.916c.119.244.49 1.16.58 1.135 1.215-.363 2.386-.855 3.572-1.314-.199-.468-.27-1.145-.623-1.359-.97-.586-2.896.154-3.529 1.538z" fill="url(#paint33_linear_689_15808)"/><path d="M138.855 111.09c-2.839.819-5.368 2.141-7.376 4.394-1.135 1.275-2.439 2.396-3.641 3.609-1.494 1.513-1.56 2.585-.18 4.122 6.33 7.063 12.676 14.116 19.026 21.162 1.455 1.615 1.782 1.584 3.398.098 2.021-1.858 4.163-3.591 6.094-5.533 2.321-2.328 4.343-4.958 5.321-8.135 1.898-6.152-.07-11.455-4.146-16.074-1.244-1.413-2.902-2.455-4.37-3.668-4.793-2.026-9.46-1.32-14.126.025zm-4.831-22.614c-2.772-4.448-6.866-6.448-12.014-6.438-5.605.011-10.158 2.568-14.303 6.04-1.429 1.197-2.784 2.483-4.18 3.718-1.799 1.591-1.993 3.079-.416 4.957 2.229 2.65 4.475 5.296 6.882 7.785 3.015 3.12 6.163 6.125 9.336 9.094 1.991 1.861 2.891 1.856 5.249.472 4.259-2.5 7.188-6.184 9.35-10.304 2.418-5.233 3.237-10.273.096-15.323zm-55.372 16.351c3.254-2.717 6.341-5.39 9.545-7.92 1.127-.888 1.146-1.545.213-2.458-.259-.253-.479-.543-.727-.81-2.795-2.96-5.59-5.92-8.46-8.963 1.636-1.072 3.265-2.144 4.785-3.145 3.343 3.336 6.624 6.61 10.023 9.996 2.176-2.09 4.245-4.086 6.408-6.166L90.554 73.82c1.503-1.225 2.845-2.319 4.014-3.276 2.834 3.04 5.561 5.999 8.321 8.924 1.546 1.636 1.639 1.692 3.357.215 3.755-3.235 7.805-5.942 12.351-7.984 4.902-2.206 9.877-3.082 15.108-1.573 9.21 2.663 15.617 12.432 14.418 21.977-.334 2.67-.825 5.317-1.239 7.978-.08.5-.165 1.004-.25 1.508.54-.003 1.104.096 1.62-.026 2.47-.561 4.899-1.464 7.395-1.717 4.262-.43 7.875 1.667 11.24 3.908 5.165 3.45 8.782 8.075 9.3 14.531.263 3.34-.288 6.624-1.408 9.789-1.788 5.054-4.909 9.213-8.834 12.772-1.081.981-1.096 1.633-.123 2.627 2.461 2.511 4.85 5.086 7.278 7.632.554.582 1.137 1.136 1.742 1.741l-4.962 4.94c-1.142-1.359-2.051-2.556-3.083-3.64-1.96-2.067-3.953-4.105-6.017-6.066-.435-.415-1.553-.822-1.818-.597-2.07 1.755-4.008 3.664-5.99 5.525l9.25 10.82-4.566 4.35c-2.791-3.012-5.499-5.865-8.12-8.791-1.506-1.683-1.455-1.751-3.056-.24-3.604 3.412-7.198 6.836-10.893 10.345-1.797-2.011-3.563-4.036-5.384-6.01-.691-.748-.632-1.297.13-1.925 1.357-1.125 2.705-2.261 4.007-3.449 1.893-1.728 1.989-2.584.359-4.451-2.524-2.888-5.078-5.755-7.706-8.549-8.317-8.832-16.545-17.73-24.038-27.297-3.252-4.156-6.958-7.951-10.468-11.902-.948-1.061-1.87-.796-2.823.066-1.953 1.767-3.944 3.495-6.092 5.393l-4.922-6.54z" fill="#0C0B0A"/><path d="M132.818 97.284c1.359-6.912-3.969-12.676-11.009-12.16-3.508.258-6.715 1.43-9.462 3.572-2.152 1.682-4.104 3.628-6.066 5.543-.29.284-.4 1.254-.163 1.5 5.332 5.635 10.723 11.21 16.249 16.946 5.303-4.129 9.18-8.938 10.451-15.401zm-8.241 16.821c-2.358 1.384-3.258 1.388-5.25-.473-3.172-2.968-6.32-5.973-9.335-9.093-2.408-2.489-4.653-5.136-6.882-7.785-1.577-1.879-1.383-3.366.416-4.957 1.396-1.235 2.751-2.52 4.179-3.718 4.146-3.472 8.699-6.03 14.304-6.04 5.148-.01 9.242 1.99 12.013 6.438 3.142 5.05 2.323 10.09-.095 15.324-2.162 4.12-5.091 7.803-9.35 10.304z" fill="url(#paint34_linear_689_15808)"/><path d="M156.799 118.345c-3.32-5.033-7.687-6.771-13.563-5.438-4.678 1.058-8.889 3.042-12.311 6.563-1.14 1.169-1.086 2.006-.097 3.127 3.188 3.613 6.305 7.287 9.516 10.876 2.416 2.706 4.974 5.281 7.374 8 .802.906 1.274.859 2.1.081 3.182-2.991 6.271-6.045 8.438-10.021 2.1-4.618 1.274-9.05-1.457-13.188zm.556-3.613c4.077 4.619 6.045 9.922 4.146 16.074-.978 3.177-3 5.807-5.321 8.135-1.931 1.942-4.073 3.675-6.094 5.533-1.615 1.485-1.943 1.517-3.398-.098-6.35-7.047-12.696-14.099-19.025-21.162-1.38-1.538-1.315-2.609.18-4.122 1.201-1.213 2.505-2.334 3.64-3.61 2.008-2.252 4.538-3.574 7.376-4.393 4.667-1.345 9.334-2.051 14.127-.026 1.467 1.213 3.125 2.256 4.369 3.669z" fill="url(#paint35_linear_689_15808)"/><path d="M122.371 112.684c5.303-4.129 9.18-8.939 10.452-15.401 1.358-6.912-3.97-12.677-11.009-12.16-3.509.258-6.715 1.429-9.463 3.571-2.152 1.683-4.104 3.629-6.065 5.543-.291.285-.401 1.254-.164 1.5 5.332 5.636 10.723 11.21 16.249 16.947zm35.881 18.85c2.1-4.618 1.274-9.05-1.457-13.188-3.319-5.033-7.687-6.771-13.563-5.438-4.678 1.058-8.889 3.042-12.311 6.563-1.14 1.169-1.085 2.006-.096 3.127 3.187 3.613 6.304 7.287 9.515 10.876 2.416 2.706 4.974 5.281 7.375 8 .801.906 1.273.859 2.099.081 3.182-2.991 6.272-6.045 8.438-10.021z" fill="#0C0B0A"/><defs><linearGradient id="paint0_linear_689_15808" x1="58.829" y1="214.49" x2="179.966" y2="271.255" gradientUnits="userSpaceOnUse"><stop stop-color="#E7C177"/><stop offset="1" stop-color="#E9C786" stop-opacity="0"/></linearGradient><linearGradient id="paint1_linear_689_15808" x1="106.945" y1="170.849" x2="184.894" y2="189.926" gradientUnits="userSpaceOnUse"><stop stop-color="#E7C177"/><stop offset="1" stop-color="#E9C786" stop-opacity="0"/></linearGradient><linearGradient id="paint2_linear_689_15808" x1="93.974" y1="181.526" x2="99.288" y2="183.098" gradientUnits="userSpaceOnUse"><stop stop-color="#E7C177"/><stop offset="1" stop-color="#E9C786" stop-opacity="0"/></linearGradient><linearGradient id="paint3_linear_689_15808" x1="69.944" y1="156.262" x2="73.924" y2="156.208" gradientUnits="userSpaceOnUse"><stop stop-color="#E7C177"/><stop offset="1" stop-color="#E9C786" stop-opacity="0"/></linearGradient><linearGradient id="paint4_linear_689_15808" x1="112.164" y1="47.828" x2="115.462" y2="50.223" gradientUnits="userSpaceOnUse"><stop stop-color="#E7C177"/><stop offset="1" stop-color="#E9C786" stop-opacity="0"/></linearGradient><linearGradient id="paint5_linear_689_15808" x1="80.443" y1="169.783" x2="85.052" y2="169.919" gradientUnits="userSpaceOnUse"><stop stop-color="#E7C177"/><stop offset="1" stop-color="#E9C786" stop-opacity="0"/></linearGradient><linearGradient id="paint6_linear_689_15808" x1="195.91" y1="121.444" x2="200.778" y2="122.598" gradientUnits="userSpaceOnUse"><stop stop-color="#E7C177"/><stop offset="1" stop-color="#E9C786" stop-opacity="0"/></linearGradient><linearGradient id="paint7_linear_689_15808" x1="133.692" y1="190.321" x2="136.777" y2="192.806" gradientUnits="userSpaceOnUse"><stop stop-color="#E7C177"/><stop offset="1" stop-color="#E9C786" stop-opacity="0"/></linearGradient><linearGradient id="paint8_linear_689_15808" x1="84.482" y1="59.72" x2="86.234" y2="61.666" gradientUnits="userSpaceOnUse"><stop stop-color="#E7C177"/><stop offset="1" stop-color="#E9C786" stop-opacity="0"/></linearGradient><linearGradient id="paint9_linear_689_15808" x1="59.458" y1="133.545" x2="63.245" y2="133.442" gradientUnits="userSpaceOnUse"><stop stop-color="#E7C177"/><stop offset="1" stop-color="#E9C786" stop-opacity="0"/></linearGradient><linearGradient id="paint10_linear_689_15808" x1="183.858" y1="79.326" x2="187.42" y2="79.266" gradientUnits="userSpaceOnUse"><stop stop-color="#E7C177"/><stop offset="1" stop-color="#E9C786" stop-opacity="0"/></linearGradient><linearGradient id="paint11_linear_689_15808" x1="117.955" y1="189.434" x2="122.017" y2="191.688" gradientUnits="userSpaceOnUse"><stop stop-color="#E7C177"/><stop offset="1" stop-color="#E9C786" stop-opacity="0"/></linearGradient><linearGradient id="paint12_linear_689_15808" x1="57.553" y1="118.959" x2="62.418" y2="119.67" gradientUnits="userSpaceOnUse"><stop stop-color="#E7C177"/><stop offset="1" stop-color="#E9C786" stop-opacity="0"/></linearGradient><linearGradient id="paint13_linear_689_15808" x1="61.84" y1="91.053" x2="66.169" y2="93.662" gradientUnits="userSpaceOnUse"><stop stop-color="#E7C177"/><stop offset="1" stop-color="#E9C786" stop-opacity="0"/></linearGradient><linearGradient id="paint14_linear_689_15808" x1="192.323" y1="92.326" x2="195.294" y2="91.931" gradientUnits="userSpaceOnUse"><stop stop-color="#E7C177"/><stop offset="1" stop-color="#E9C786" stop-opacity="0"/></linearGradient><linearGradient id="paint15_linear_689_15808" x1="95.989" y1="52.158" x2="97.699" y2="53.891" gradientUnits="userSpaceOnUse"><stop stop-color="#E7C177"/><stop offset="1" stop-color="#E9C786" stop-opacity="0"/></linearGradient><linearGradient id="paint16_linear_689_15808" x1="58.212" y1="104.113" x2="62.416" y2="105.76" gradientUnits="userSpaceOnUse"><stop stop-color="#E7C177"/><stop offset="1" stop-color="#E9C786" stop-opacity="0"/></linearGradient><linearGradient id="paint17_linear_689_15808" x1="185.425" y1="155.741" x2="188.779" y2="157.788" gradientUnits="userSpaceOnUse"><stop stop-color="#E7C177"/><stop offset="1" stop-color="#E9C786" stop-opacity="0"/></linearGradient><linearGradient id="paint18_linear_689_15808" x1="64.135" y1="145.529" x2="67.217" y2="145.31" gradientUnits="userSpaceOnUse"><stop stop-color="#E7C177"/><stop offset="1" stop-color="#E9C786" stop-opacity="0"/></linearGradient><linearGradient id="paint19_linear_689_15808" x1="194.657" y1="134.248" x2="198.671" y2="135.642" gradientUnits="userSpaceOnUse"><stop stop-color="#E7C177"/><stop offset="1" stop-color="#E9C786" stop-opacity="0"/></linearGradient><linearGradient id="paint20_linear_689_15808" x1="147.211" y1="187.461" x2="149.138" y2="189.284" gradientUnits="userSpaceOnUse"><stop stop-color="#E7C177"/><stop offset="1" stop-color="#E9C786" stop-opacity="0"/></linearGradient><linearGradient id="paint21_linear_689_15808" x1="176.695" y1="166.709" x2="179.181" y2="168.794" gradientUnits="userSpaceOnUse"><stop stop-color="#E7C177"/><stop offset="1" stop-color="#E9C786" stop-opacity="0"/></linearGradient><linearGradient id="paint22_linear_689_15808" x1="69.144" y1="76.942" x2="71.754" y2="79.143" gradientUnits="userSpaceOnUse"><stop stop-color="#E7C177"/><stop offset="1" stop-color="#E9C786" stop-opacity="0"/></linearGradient><linearGradient id="paint23_linear_689_15808" x1="126.881" y1="48.057" x2="130.186" y2="49.988" gradientUnits="userSpaceOnUse"><stop stop-color="#E7C177"/><stop offset="1" stop-color="#E9C786" stop-opacity="0"/></linearGradient><linearGradient id="paint24_linear_689_15808" x1="172.675" y1="67.457" x2="176.571" y2="67.921" gradientUnits="userSpaceOnUse"><stop stop-color="#E7C177"/><stop offset="1" stop-color="#E9C786" stop-opacity="0"/></linearGradient><linearGradient id="paint25_linear_689_15808" x1="76.505" y1="66.987" x2="78.528" y2="68.778" gradientUnits="userSpaceOnUse"><stop stop-color="#E7C177"/><stop offset="1" stop-color="#E9C786" stop-opacity="0"/></linearGradient><linearGradient id="paint26_linear_689_15808" x1="143.042" y1="51.451" x2="146.904" y2="53.185" gradientUnits="userSpaceOnUse"><stop stop-color="#E7C177"/><stop offset="1" stop-color="#E9C786" stop-opacity="0"/></linearGradient><linearGradient id="paint27_linear_689_15808" x1="166.307" y1="176.31" x2="167.954" y2="177.94" gradientUnits="userSpaceOnUse"><stop stop-color="#E7C177"/><stop offset="1" stop-color="#E9C786" stop-opacity="0"/></linearGradient><linearGradient id="paint28_linear_689_15808" x1="195.329" y1="106.739" x2="199.077" y2="107.056" gradientUnits="userSpaceOnUse"><stop stop-color="#E7C177"/><stop offset="1" stop-color="#E9C786" stop-opacity="0"/></linearGradient><linearGradient id="paint29_linear_689_15808" x1="159.891" y1="58.104" x2="163.559" y2="59.053" gradientUnits="userSpaceOnUse"><stop stop-color="#E7C177"/><stop offset="1" stop-color="#E9C786" stop-opacity="0"/></linearGradient><linearGradient id="paint30_linear_689_15808" x1="107.266" y1="186.417" x2="110.183" y2="187.879" gradientUnits="userSpaceOnUse"><stop stop-color="#E7C177"/><stop offset="1" stop-color="#E9C786" stop-opacity="0"/></linearGradient><linearGradient id="paint31_linear_689_15808" x1="158.826" y1="181.828" x2="160.682" y2="183.283" gradientUnits="userSpaceOnUse"><stop stop-color="#E7C177"/><stop offset="1" stop-color="#E9C786" stop-opacity="0"/></linearGradient><linearGradient id="paint32_linear_689_15808" x1="191.23" y1="144.082" x2="194.003" y2="145.417" gradientUnits="userSpaceOnUse"><stop stop-color="#E7C177"/><stop offset="1" stop-color="#E9C786" stop-opacity="0"/></linearGradient><linearGradient id="paint33_linear_689_15808" x1="105.687" y1="47.304" x2="107.372" y2="48.538" gradientUnits="userSpaceOnUse"><stop stop-color="#E7C177"/><stop offset="1" stop-color="#E9C786" stop-opacity="0"/></linearGradient><linearGradient id="paint34_linear_689_15808" x1="110.886" y1="114.29" x2="132.686" y2="123.869" gradientUnits="userSpaceOnUse"><stop stop-color="#E7C177"/><stop offset="1" stop-color="#E9C786" stop-opacity="0"/></linearGradient><linearGradient id="paint35_linear_689_15808" x1="137.081" y1="143.595" x2="160.937" y2="152.349" gradientUnits="userSpaceOnUse"><stop stop-color="#E7C177"/><stop offset="1" stop-color="#E9C786" stop-opacity="0"/></linearGradient></defs></svg>