<svg width="201" height="171" fill="none" xmlns="http://www.w3.org/2000/svg"><path d="M173.437 143.202c.13.65-.275 1.131-.351 1.667-.329 2.193-1.583 3.73-3.265 5.083-2.377 1.911-4.655 3.952-6.986 5.932a2.14 2.14 0 01-1.04.604 57.448 57.448 0 002.133-6.016 6.191 6.191 0 014.586-4.923 35.52 35.52 0 004.923-2.347zm-12.246 5.764c-.459 1.131-.91 2.37-1.46 3.555-.551 1.184-1.147 2.155-1.736 3.225a8.43 8.43 0 00-.764 1.942 2.472 2.472 0 01-1.651 1.919c-1.33.443-2.638.963-3.96 1.437-.184.069-.413.214-.596.038-.184-.176 0-.397 0-.596.94-3.157 1.895-6.314 2.836-9.471a.97.97 0 01.764-.765c2.018-.481 4.029-1.001 6.001-1.651.306-.092.604-.214.566.367zm-10.151 2.683a1695.366 1695.366 0 00-3.823 8.508 4.396 4.396 0 00-.466 1.093c-.199 1.185-.933 1.628-2.049 1.797-1.261.198-2.507.527-3.761.802-.558.123-.764 0-.596-.634.986-3.455 1.751-6.972 2.423-10.504.061-.344.199-.581.558-.619 2.485-.267 4.969-.573 7.308-1.032.727-.076.558.245.406.589zm-15.022.94c1.529-.092 2.653-.145 3.823-.229.619 0 .909 0 .588.764-1.246 3.058-2.423 6.116-3.623 9.173-.11.218-.189.45-.237.688-.069 1.422-.91 1.827-2.202 1.866-1.292.038-2.798.244-4.196.344-1.071.068-1.063.046-.826-.948.856-3.685 1.72-7.362 2.553-11.054a.693.693 0 01.522-.626.682.682 0 01.288-.008c1.201.03 2.424.03 3.31.03zm-12.139 12.866c-.764-.069-1.529 0-2.293 0v-.092h-2.744c-.513 0-.688-.16-.566-.764.876-4.011 1.73-8.032 2.561-12.063.099-.459.214-.765.764-.658 2.24.291 4.495.444 6.75.52.673 0 .849.214.528.879a88.78 88.78 0 00-3.693 9.938c-.144.34-.205.71-.176 1.078.169.994-.244 1.238-1.131 1.162zm-5.603-13.936c.65.099.726.252.474.849-1.69 3.891-3.112 7.881-4.403 11.917-.268.849-.765.688-1.331.657-2.545-.275-5.091-.573-7.644-.986-.588-.099-.718-.367-.581-.863.222-.765.428-1.59.696-2.362.994-2.852 1.704-5.795 2.882-8.585.09-.227.164-.459.221-.696.383-1.529.375-1.529 1.996-1.223 2.576.459 5.129.895 7.69 1.292zm-14.296-2.821c.688.168.765.352.398.956-1.453 2.622-2.072 5.542-2.875 8.408-.397 1.407-.764 2.829-1.139 4.243-.099.367-.198.765-.611.619a125.86 125.86 0 01-7.943-1.926c-2.163-.604-2.201-.619-1.628-2.767 1.01-3.823 2.095-7.591 3.104-11.398.23-.864.566-1.116 1.468-.803 3.027 1.032 6.115 1.888 9.226 2.668zm-15.066-4.678c.512.191.619.359.45.925-1.33 4.441-2.828 8.837-4.005 13.332-.06.237 0 .581-.42.581-.191-.054-.367-.092-.543-.153a169.072 169.072 0 01-8.99-3.394c-.627-.26-.825-.535-.634-1.223 1.215-4.48 2.393-8.967 3.57-13.462.176-.657.436-.764 1.085-.489 3.12 1.437 6.291 2.706 9.487 3.883zm-14.058-6.054c.718.336.764.626.367 1.291-1.66 2.951-2.53 6.208-3.616 9.38-.398 1.185-.765 2.377-1.147 3.578-.168.565-.382.764-.97.451a156.836 156.836 0 01-8.7-4.495c-.29-.168-.55-.283-.398-.765 1.185-3.822 2.294-7.575 3.486-11.367.283-.902.55-1.812.841-2.714.077-.237.084-.565.49-.565l.542.298c2.974 1.75 5.993 3.417 9.105 4.908zm-12.308-6.857c.604.374.337.764.115 1.139-1.667 3.058-3.157 6.199-4.587 9.372-.489 1.085-.902 2.201-1.353 3.302-.1.237-.107.566-.52.543l-.458-.26a162.432 162.432 0 01-7.721-5.099.816.816 0 01-.352-1.185c1.827-4.586 3.73-9.089 4.885-13.889.13-.52.275-.62.711-.291a129.428 129.428 0 009.28 6.368zM50.41 122.54c.32.252.565.451.282.963-2.293 4.143-4.273 8.408-6.429 12.643-.13.253-.16.612-.573.681a4.256 4.256 0 01-.436-.291 145.513 145.513 0 01-7.568-6.36c-.45-.405-.413-.695-.107-1.154a40.38 40.38 0 003.738-6.811 6.918 6.918 0 011.246-1.674 17.222 17.222 0 002.225-3.349c.298-.573.527-.718 1.063-.221 2.11 1.987 4.303 3.799 6.558 5.573zm-10.42-8.937c-.045.099-.099.245-.16.382-1.911 4.396-4.419 8.485-6.697 12.69-.32.596-.596.55-1.016.107-1.445-1.529-2.913-3.058-4.373-4.587a.853.853 0 01-.237-1.124c1.835-3.684 3.333-7.522 5.229-11.176.367-.703.764-1.376 1.162-2.071.237-.436.466-.482.825-.1 1.644 1.766 3.31 3.509 4.962 5.26a.806.806 0 01.305.619zm-8.828-10.029a.863.863 0 01.099 1.07c-2.133 4.289-4.227 8.592-6.337 12.896-.13.26-.153.596-.474.719-.26-.038-.375-.237-.505-.398a110.67 110.67 0 01-4.838-6.329.865.865 0 01-.054-1.078c2.393-4.021 4.793-8.019 7.377-11.918.36-.542.558-.458.902 0a247.615 247.615 0 003.83 5.038zm-6.874-9.54a1.095 1.095 0 01-.084 1.605 9.09 9.09 0 00-1.597 2.438c-1.651 3.379-3.364 6.72-4.877 10.16a5.252 5.252 0 01-.322.558 2.29 2.29 0 01-.764-.941 90.951 90.951 0 01-4.502-7.873 1.162 1.162 0 01-.092-1.193A128.32 128.32 0 0018.448 84.7c.054-.13.122-.26.184-.398.39.123.435.467.565.726a83.982 83.982 0 005.091 9.005zm-9.569-20.181a79.934 79.934 0 002.813 7.552.925.925 0 010 .94c-2.294 3.708-4.113 7.706-6.46 11.398-.298.467-.458 1.3-1.032 1.254-.573-.046-.543-.872-.764-1.368-.658-1.751-1.27-3.51-1.888-5.26-.092-.26-.153-.527-.16-.55a1.766 1.766 0 01.213-1.116 136.918 136.918 0 016.513-12.912c.107-.198.16-.542.474-.474.314.07.23.33.29.536zM11.775 52.57a57.448 57.448 0 001.3 14.823 3.11 3.11 0 01-.436 2.225 139.484 139.484 0 00-5.94 14.073c-.069.191-.053.428-.367.558a12.71 12.71 0 01-.764-2.966 45.102 45.102 0 01-1.124-8.96c-.046-3.58.7-7.128 2.186-10.388 1.476-3.241 3.058-6.444 4.587-9.662.115-.23.176-.52.459-.665.229.313.107.65.099.963zm128.654 61.14c.252.52.176.765-.39.887-1.507.392-3.04.678-4.586.856-2.882.337-5.703.956-8.547 1.529-.359.069-.718.115-1.085.176-.543.099-.642-.367-.811-.696-.94-1.949-1.781-3.952-2.813-5.848-4.586-8.477-8.943-17.115-13.943-25.371a5.692 5.692 0 01-.313-.558c-.169-.329-.191-.573.305-.573a56.098 56.098 0 008.608-1.048c1.139-.183 2.293-.512 3.386-.764a2.423 2.423 0 012.974 1.315c1.644 2.912 3.257 5.84 4.9 8.76 3.257 5.787 6.116 11.78 10.121 17.146a24.708 24.708 0 012.194 4.189zm11.099-48.228c.765.573.826.986.138 1.72a8.249 8.249 0 01-1.812 1.384 57.385 57.385 0 01-12.001 5.144 158.648 158.648 0 01-21.152 5.168 221.633 221.633 0 01-25.991 3.249c-7.568.489-15.143.764-22.68-.398a19.732 19.732 0 01-5.558-1.483c-1.17-.55-1.23-.91-.29-1.773a22.1 22.1 0 016.115-3.685c6.115-2.805 12.613-4.755 19.11-6.666 1.728-.512 3.456-1.009 5.176-1.528a.962.962 0 011.376.542c1.376 2.622 2.859 5.183 4.005 7.927 1.147 2.745 1.369 2.852 4.358 2.775a78.251 78.251 0 0014.791-1.758 41.583 41.583 0 002.821-.764c1.07-.306 1.284-.803.711-1.728-1.827-2.966-3.402-6.07-5.106-9.104-.558-1.002-.551-1.002.619-1.101 4.357-.367 8.722-.497 12.491-.65 5.482-.184 10.97.072 16.412.765 1.946.215 3.85.718 5.649 1.49.286.134.56.293.818.474z" fill="#000"/><path d="M128.489 42.358c.466.665 0 .88-.489.994-1.628.367-3.257.765-4.9 1.024-3.746.643-7.43 1.53-11.115 2.454-2.362.589-4.732 1.132-7.102 1.682-1.238.283-1.276.673-.642 1.72.765 1.208 1.376 2.492 1.995 3.761a54.292 54.292 0 013.112 6.78c.588 1.774 1.964 3.142 2.836 4.794a428.29 428.29 0 003.164 5.863c.276.504.337.764-.405.863-3.103.451-6.192.971-9.287 1.476-1.025.16-2.042.336-3.181.527-.344.092-.519-.206-.718-.55-2.003-3.516-4.021-7.033-6.17-10.473-1.903-3.058-4.05-5.924-6.115-8.852a4.463 4.463 0 01-1.146-2.125c-.077-.665-.818-.764-1.414-.726a40.652 40.652 0 00-6.116.672c-2.224.375-4.457.666-6.696.948-4.893.62-9.854.68-14.67 1.858-.497.122-.71 0-.91-.405a75.457 75.457 0 00-3.722-7.094c-.81-1.392-1.69-2.737-2.523-4.12-.497-.826-.298-1.162.665-1.33 2.897-.49 5.795-1.025 8.692-1.53 2.186-.374 4.388-.68 6.566-1.07 2.393-.435 4.77-.978 7.155-1.414 2.997-.543 5.978-1.124 9.005-1.452 3.028-.329 6.04-.765 9.059-1.185l8.241-1.116c2.171-.29 4.349-.596 6.528-.841 1.605-.184 3.218-.252 4.823-.436 2.576-.283 5.137-.688 7.729-.764a2.37 2.37 0 001.047-.298c.818-.474 1.139-.092 1.529.634 1.62 3.28 3.058 6.697 5.175 9.731z" fill="#000"/><path d="M186.119 95.257c0 .604.191.764.764.52.811-.352 1.644-.65 2.47-.964.229-.091.527-.145.527-.435 0-.765 0-1.53-.115-2.294 0-.32-.305-.206-.504-.16l-1.881.42c-1.574.367-1.422-.038-1.307 1.72a.352.352 0 000 .092h.038c.016.374.023.741.008 1.1zm1.628 6.543c.256 0 .512.02.765.061.764.191 1.139-.076 1.146-.886 0-.642.092-1.277.153-1.911.061-.635-.183-.704-.703-.558-.843.258-1.708.44-2.584.542a.617.617 0 00-.627.62c-.321 2.063-.336 2.056 1.713 2.132h.137zm-13.859 26.755a40.899 40.899 0 01-2.247-1.72.633.633 0 00-.69-.138.633.633 0 00-.205.138c-1.016.765-2.048 1.438-3.057 2.156-.199.138-.482.314-.215.566.849.764 1.736 1.529 2.607 2.293h.207c.129-.057.254-.124.374-.199l3.257-2.377c.336-.168.374-.382-.031-.673v-.046zm.237-2.217c2.37.956 2.37.956 4.074-.902a1 1 0 01.123-.129c.344-.306.298-.536-.1-.765a40.745 40.745 0 01-2.415-1.529c-.26-.16-.489-.229-.765 0l-2.721 2.584c.68.344 1.246.558 1.804.787v-.046zm-25.226-94.491v1.643h-.061c0 .398 0 .765-.107 1.185a1.08 1.08 0 00.535 1.239c.504.336.986.71 1.467 1.085.337.268.574.321.765-.176.267-.871.55-1.742.856-2.599a.544.544 0 00-.183-.718l-2.661-1.942c-.428-.214-.634-.114-.642.329l.031-.046zm-7.094-5.053c-.436.245-.038 1.238-.069 1.873-.566 1.674.336 2.523 1.659 3.172.411.208.796.465 1.146.765.551.443.765.237.902-.36.765-2.973.765-2.98-1.865-4.586-.611-.321-1.238-1.132-1.804-.818l.031-.046zM114.14 137.622c.099.817.206 1.635.29 2.453a.766.766 0 00.765.765c.848.107 1.689.267 2.538.39 1.131.16 1.131.145 1.246-1.032.053-.612.145-1.216.222-1.881.152-.55-.161-.764-.711-.833a114.912 114.912 0 01-3.616-.535c-.612-.13-.78.13-.734.673zM103.759 10.917c-.596-.145-.589.168-.466.604.252.871.497 1.75.718 2.637a.763.763 0 00.566.635c.711.175 1.414.359 2.117.55.406.107.643 0 .681-.444.076-.764.191-1.567.306-2.469.084-.29-.069-.542-.467-.642l-3.455-.871zm8.279 126.605c.053-.611.237-1.039-.375-1.162a120.249 120.249 0 01-3.57-.764c-.405-.084-.642 0-.627.481v2.737a.57.57 0 00.52.627c.986.199 1.965.39 2.943.611.467.1.681-.068.765-.535.153-.733.275-1.452.359-1.995h-.015zM100.969 11.559c.199-.917-.077-1.414-1.101-1.529a28.112 28.112 0 01-2.966-.55c-1.23-.253-1.284-.222-.978 1.009.198.818 0 1.857.626 2.415.627.558 1.667.451 2.53.62 1.751.351 1.751.344 1.851-1.43.007-.18.024-.358.053-.535h-.015zM24.334 72.423a6.427 6.427 0 012.24-.55c.26-.062.895.374.642-.467-.359-1.162-.764-2.331-1.093-3.493-.092-.306-.237-.558-.627-.55a15.858 15.858 0 01-3.004-.268c-.588-.107-.695.145-.535.665.451 1.399.894 2.79 1.3 4.204.198.65.535.696 1.093.46h-.016zm172.112 24.118c.276 18.224-7.514 32.106-22.803 41.868-6.964 4.434-14.631 7.117-22.68 8.783a97.707 97.707 0 01-28.185 1.453 116.507 116.507 0 01-27.833-5.711c-21.343-7.277-39.995-18.835-55.49-35.294a92.008 92.008 0 01-18.683-28.605c-3.325-8.217-5.236-16.725-4.87-25.639.635-15.357 7.263-27.52 19.647-36.578 7.353-5.35 15.655-8.584 24.461-10.526a93.934 93.934 0 0119.876-2.049 122.64 122.64 0 0142.51 8.21c19.111 7.217 35.928 17.926 49.994 32.795 8.172 8.638 14.845 18.3 19.309 29.384a60.761 60.761 0 014.763 21.909h-.016zm-7.69-8.164c.367-.107.619-.26.558-.703-.191-.925-.374-1.858-.558-2.783-.061-.321-.275-.375-.55-.275-1.002.351-2.293.458-2.928 1.146-.634.688.214 1.766.237 2.707.009.059.022.118.038.175.061.55.352.627.834.459.779-.245 1.574-.474 2.369-.726zm-.481 19.745c.122-.696.588-1.338.336-2.079-.038-.1-.321-.122-.497-.161-.764-.183-1.613-.321-2.4-.542-.497-.13-.765 0-.833.496 0 .237-.13.467-.191.704-.52 1.934-.52 1.934 1.482 1.972.451 0 .91 0 1.361.084.451.084.665-.031.757-.451l-.015-.023zm-.964-27.848c.176-.092.176-.314.115-.497-.321-.979-.65-1.965-.978-2.943-.13-.375-.352-.451-.704-.237-.764.482-1.528.955-2.346 1.414a.643.643 0 00-.291.856c.268.81.528 1.62.765 2.431.076.237.137.49.489.436.994-.459 1.98-.933 2.95-1.437v-.023zm-.856 32.939c.23-.474 0-.657-.428-.764-.894-.168-1.781-.344-2.675-.535a.573.573 0 00-.765.328c-.39.765-.764 1.575-1.192 2.355-.184.351-.168.565.267.657.986.172 1.959.41 2.913.711.374.115.573-.099.718-.397.406-.749.772-1.544 1.162-2.332v-.023zm-1.827-39.895c.291-.215.253-.436.115-.72-.51-1.07-1.019-2.145-1.529-3.225-.199-.436-.382-.528-.764-.145-2.347 2.293-2.355 2.255-1.04 5.236.069.168.138.337.214.505a.403.403 0 00.359.26c.069-.039.153-.07.222-.115.818-.581 1.621-1.185 2.423-1.774v-.023zm-2.125 46.951c.275-.428.199-.627-.221-.833-.765-.39-1.568-.811-2.355-1.223l-.42-.214c-.107.068-.245.107-.306.198-.459.665-1.346 1.246-1.307 1.995 0 .52 1.139.467 1.75.711.228.087.46.161.696.222 1.376.421 1.361.413 2.163-.833v-.023zm-1.383-54.007a.642.642 0 000-.834c-.765-1.276-1.529-2.56-2.294-3.822-.237-.397-.451-.535-.764-.06a33.556 33.556 0 01-1.651 2.078.72.72 0 00-.107.971 168.526 168.526 0 012.247 3.884c.107.165.224.324.352.474a2.55 2.55 0 00.351-.33c.627-.771 1.231-1.566 1.866-2.338v-.023zm-5.351-8.883c.107-.84-1.04-1.613-1.621-2.43a2.113 2.113 0 00-.229-.284 1.554 1.554 0 00-.214-.122c-.299.13-.283.39-.329.62a22.045 22.045 0 01-.619 2.942c-.382 1.086.39 1.636.848 2.332.161.244.359.137.497-.092.566-.963 1.521-1.903 1.644-2.943l.023-.023zm-4.151-4.87c.099-.236.175-.473 0-.687a281.271 281.271 0 00-3.448-3.914c-.222-.253-.428-.214-.466.168a27.488 27.488 0 01-.612 3.76c.02.164.069.322.145.467a182.802 182.802 0 002.707 3.226c.328.39.458 0 .558-.222.344-.91.711-1.842 1.093-2.775l.023-.022zm-5.061 81.459a1.522 1.522 0 00-.183-.26 16.026 16.026 0 01-1.988-2.294c-.244-.328-.512-.214-.764-.068-.91.443-1.804.902-2.729 1.291-.627.268-.551.513-.138.91a8.244 8.244 0 011.667 1.934c.275.512.588.52 1.032.291.894-.459 1.804-.902 2.698-1.361.115-.046.352-.107.382-.421l.023-.022zM163.943 47.9c1.406-3.012 1.414-3.004-1.009-5.282l-.765-.765c-.328-.313-.573-.382-.634.191-.13 1.124-.275 2.24-.405 3.364a.632.632 0 00.198.657c.665.673 1.338 1.338 2.003 2.003.298.39.428.191.589-.145l.023-.023zm-4.961-8.072a.86.86 0 00-.337-1.101c-.925-.765-1.834-1.529-2.752-2.293-.137-.115-.29-.207-.413-.29-.336.045-.336.29-.359.488l-.321 3.096a.864.864 0 00.321.765c.765.65 1.529 1.307 2.294 1.964.397.344.603.26.764-.252.206-.741.474-1.56.78-2.354l.023-.023zm-.902 98.115c.152-.054.382-.069.336-.36-.352-.474-.764-.955-1.07-1.452-1.132-1.659-1.132-1.659-3.058-1.032-.115.038-.222.092-.344.122-.398.107-.428.329-.283.688.336.856.642 1.72.933 2.584.122.367.321.505.68.382.91-.283 1.858-.588 2.783-.909l.023-.023zm-3.823-68.685c1.95-2.515 1.468-5.03-1.276-6.627a17.954 17.954 0 00-6.345-2.01c-7.988-1.3-16.053-1.025-24.041-.406-2.714.206-5.413.497-8.103.894-.444.062-.834.077-1.101-.405-1.59-2.82-3.44-5.488-4.938-8.363-.986-1.903-.979-1.934 1.1-2.362 3.318-.68 6.636-1.33 9.938-1.995 4.671-.94 9.257-2.217 13.897-3.302.39-.092.765-.145.375-.688-2.125-2.882-3.677-6.116-5.611-9.12a14.721 14.721 0 01-2.072-4.265c-.313-1.262-.596-1.53-2.033-1.491a7.6 7.6 0 00-1.017.1 210.592 210.592 0 01-13.912 1.681c-8.684.764-17.307 1.904-25.907 3.241-9.8 1.53-19.562 3.257-29.255 5.351-1.98.428-3.929 1.002-5.894 1.53-.642.16-.764.504-.458 1.077s.58 1.277.948 1.873c2.744 4.51 5.595 8.959 8.026 13.66a.887.887 0 001.109.497 40.268 40.268 0 014.189-.42c2.071-.092 4.143-.298 6.215-.42 2.966-.161 5.825-1.094 8.798-1.17a40.678 40.678 0 007.446-.895c1.529-.313 2.813-.32 3.44 1.445.162.33.368.635.611.91 1.262 1.842 2.378 3.768 3.478 5.71.207.36.428.726-.221.895-1.674.435-3.333.947-5.023 1.314a148.9 148.9 0 00-14.524 3.608 45.53 45.53 0 00-10.954 4.832 9.778 9.778 0 00-3.318 3.225 4.204 4.204 0 00.765 5.352 9.005 9.005 0 003.271 1.964c3.387 1.277 6.95 1.628 10.519 1.85 10.35.642 20.64-.122 30.898-1.452a1.134 1.134 0 011.369.695c.94 1.919 1.903 3.823 2.958 5.688a5361.318 5361.318 0 0013.454 23.544c.864 1.529 1.72 3.058 2.614 4.518a2.294 2.294 0 002.699 1.162c3.058-.894 6.299-1.162 9.471-1.613a40.356 40.356 0 007.545-1.842c1.009-.344 1.284-.925.841-1.812a90.486 90.486 0 00-4.854-8.814 193.54 193.54 0 01-13.408-24.462c-.375-.802-.184-1.024.596-1.192 3.31-.765 6.589-1.613 9.831-2.607 4.67-1.43 9.326-2.905 13.584-5.397a14.346 14.346 0 004.242-3.478l.038-.008zm-3.676 70.871c.252-.077.435-.222.359-.535a9.753 9.753 0 01-.451-2.607c0-.673-.314-.764-.864-.634-1.254.267-2.507.527-3.769.764-.512.099-.711.268-.42.764.504.933.764 2.225 1.529 2.737.764.512 2.033-.222 3.057-.397a4.51 4.51 0 00.52-.069l.039-.023zm-9.12 1.529c1.452-.207 1.445-.207.963-1.529a6.333 6.333 0 01-.382-1.216c-.13-.925-.581-1.307-1.353-1.032h-.329c-1.934.123-1.934.123-1.613 1.973.336 2.148.336 2.148 2.676 1.819l.038-.015zm-2.966-116.446a.586.586 0 00-.118-.636.594.594 0 00-.188-.129c-.803-.435-1.605-.879-2.4-1.33-.467-.26-.681-.107-.765.398l-.229 2.736a.494.494 0 00.275.604l2.156 1.223c.321.176.481.07.573-.298.199-.848.428-1.704.658-2.553l.038-.015zm-4.946 116.958c1.322 0 1.353-.046 1.192-1.323-.099-.764.322-1.842-.321-2.346-.642-.505-1.597-.046-2.293-.115h-1.407c-1.467 0-1.528 0-.902 1.345.352.803.283 1.996 1.025 2.347.741.352 1.758.084 2.668.069l.038.023zm-1.086-120.016c.26-.49.123-.71-.321-.917-2.102-.971-4.204-1.957-6.306-2.936l-.26-.114c-.413-.054-.329.229-.306.466.084.978.191 1.95.26 2.92a.834.834 0 00.558.764c1.529.765 3.058 1.468 4.587 2.225.42.206.649.16.825-.306.261-.718.571-1.418.925-2.094l.038-.008zm-7.644 119.764c1.697.168 1.697.168 1.651-1.491-.061-2.194-.061-2.194-2.018-2.339-1.957-.145-2.056-.153-1.689 1.926.252 1.743.252 1.743 2.003 1.911l.053-.007zm-2.66-124.603a.587.587 0 00-.059-.445.573.573 0 00-.362-.266c-.94-.351-1.872-.718-2.813-1.062-.206-.077-.581-.222-.558.152a15.6 15.6 0 00.375 3.425c0 .115.214.222.344.275.619.26 1.238.497 1.865.765.336.137.581.1.673-.321.114-.872.298-1.705.481-2.553l.054.03zm-6.49-2.477a.465.465 0 00-.168-.5.48.48 0 00-.168-.08l-3.387-1.086c-.336-.115-.405.038-.413.36-.046 3.133.084 3.332 2.936 4.188l.168.061c.428.169.627 0 .68-.435.115-.788.23-1.59.352-2.508zm-12.69 122.898c.26-1.001 1.032-2.056.765-2.943-.253-.764-1.606-.596-2.431-.932l-.176-.054c-.359-.092-.581 0-.65.413-.153.871-.321 1.735-.481 2.599a.445.445 0 00.015.395.451.451 0 00.321.232l2.11.604a.38.38 0 00.345-.025.386.386 0 00.19-.289h-.008zm-4.816-4.082c.283-.512.1-.703-.367-.856-1.444-.482-2.897-.948-4.334-1.468-.497-.176-.719 0-.956.39-.36.637-.77 1.243-1.23 1.812-.543.634-.268.833.352 1.039 1.414.482 2.82.994 4.227 1.529.229.084.466.146.703.222.237.076.413-.176.527-.413.352-.78.68-1.544 1.086-2.255h-.008zM92.178 9.587c.13-.704-.237-.918-.856-.963a53.048 53.048 0 01-2.362-.26c-.543-.062-.765.114-.574.665.237.764.474 1.528.658 2.293a.978.978 0 00.94.818c2.11.36 2.102.374 2.186-1.728a4.25 4.25 0 01.016-.825h-.008zm-3.44 121.98c.558-1.781.55-1.789-1.162-2.499l-2.064-.864c-.336 0-.428.244-.566.435-.374.52-.764 1.048-1.139 1.529-.688.864-.695.864.36 1.33.81.352 1.612.719 2.43 1.048 1.782.734 1.552 1.024 2.149-.979h-.008zM85.09 8.807c.085-.558-.114-.764-.664-.764-1.766-.161-3.532-.161-5.298-.214-.764 0-1.001.152-.688.917.313.764.306 2.033 1.001 2.584.696.55 1.766.107 2.668.214l1.53.099c1.306.1 1.299.1 1.322-1.17.007-.557.05-1.114.13-1.666zm-3.546 118.395c.229-.481.183-.764-.352-.986-.818-.344-1.575-.764-2.385-1.154-.81-.39-1.575-1.231-2.362-1.017-.788.214-1.055 1.338-1.636 1.995 0 .046-.069.1-.115.146-.298.351-.168.588.207.764l5.037 2.584c.077 0 .169.061.214.084.382.076.436-.206.528-.42.306-.65.588-1.338.879-1.996h-.016zM74.266 11.59c.49 0 .703-.184.657-.727a17.449 17.449 0 01-.045-2.293c0-.573-.176-.764-.765-.719-1.062.092-2.125.161-3.187.222-2.064.107-1.965.061-1.17 1.957.58 1.384 1.261 2.179 2.836 1.651.596-.023 1.139-.076 1.69-.091h-.016zm-2.17 111.821c.764-1.529.764-1.529-.681-2.385-2.347-1.376-2.347-1.376-4.067.764a2.139 2.139 0 00-.176.207.313.313 0 00.069.481 743.34 743.34 0 003.753 2.293.717.717 0 00.176.046c.222 0 .321-.145.398-.321l.527-1.085zm-6.391-110.95c.42-.069.481-.283.39-.642a97.622 97.622 0 01-.59-2.492c-.083-.405-.29-.589-.703-.528l-3.508.642c-.49.092-.55.344-.344.765.336.718.627 1.46.894 2.21a.763.763 0 00.979.534c.97-.168 1.926-.336 2.89-.489h-.008zm0 105.652a.487.487 0 00-.184-.764l-2.867-1.934a2.077 2.077 0 00-.397-.184.779.779 0 00-.275.107c-.658.581-1.33 1.155-1.973 1.759-.313.298 0 .481.207.634 1.162.826 2.34 1.636 3.509 2.461.374.268.65.23.879-.191.351-.642.71-1.276 1.1-1.888zm-6.391-4.663a.33.33 0 00-.046-.489l-3.318-2.584a1.874 1.874 0 00-.206-.076c-.206 0-.336.183-.482.328-.443.459-.871.941-1.345 1.369-.474.428-.329.588 0 .871.527.421 1.04.849 1.529 1.277 2.071 1.705 2.17 1.689 3.7-.551a.468.468 0 00.168-.145zm-3.058-98.849c1.758-.58 1.766-.558 1.583-2.346V10.97c0-.428-.184-.68-.666-.55a65.967 65.967 0 00-8.057 2.69c-.397.169-.497.368-.275.765.413.719.764 1.445 1.154 2.186.253.528.543.581 1.086.375 1.682-.68 3.432-1.261 5.145-1.835h.03zm-5.496 95.463c.397 0 2.048-2.072 1.926-2.401a.33.33 0 00-.1-.152c-.764-.643-1.413-1.72-2.369-1.896-.611-.115-1.063 1.039-1.666 1.529l-.07.061c-.389.321-.29.604.047.894.642.566 1.269 1.147 1.903 1.72.093.09.192.171.298.245h.03zm-3.157-6.972c.091-.604-.818-.978-1.223-1.529-.077-.091-.169-.176-.253-.267-1.613-1.713-1.597-1.697-3.57-.306-.481.336-.603.589-.145 1.04.979.963 1.919 1.964 2.875 2.943.163.149.334.289.512.42a1.26 1.26 0 00.305-.206c.467-.696 1.346-1.254 1.468-2.095h.03zm-1.53-84.355c.245-.13.513-.237.46-.642a27.015 27.015 0 01-.719-3.058c-.084-.436-.398-.275-.642-.145l-3.6 1.965c-.39.213-.421.42-.108.764a23.75 23.75 0 011.66 2.056c.305.436.565.436.97.184.657-.39 1.33-.75 2.01-1.124h-.03zm-4.211 77.972a4.151 4.151 0 00-1.185-1.414c-.382-.252-.596.283-.894.45a2.959 2.959 0 00-.428.337c-1.407 1.116-1.384 1.101-.222 2.439.405.466.68.596 1.116.046.397-.458.821-.892 1.269-1.3.16-.183.344-.306.352-.596l-.008.038zm-1.735-74.15c0-.397-.1-.49-.222-.573a9.783 9.783 0 01-2.248-1.988c-.267-.359-.535-.16-.764 0-.596.474-1.192.94-1.773 1.43-1.216 1.024-1.216 1.024.214 1.59.298.069.584.182.848.336 1.529 1.162 2.614.329 3.7-.695a.588.588 0 01.252-.107l-.007.007zm-2.43 69.701a.61.61 0 00.091-.94 230.644 230.644 0 01-2.392-3.463c-.123-.168-.199-.39-.535-.375-.765.398-1.53.834-2.385 1.231-.444.222-.497.466-.222.856 1.02 1.407 2.038 2.816 3.058 4.228.282.39.527.428.864 0 .489-.505 1-1.04 1.52-1.537zm-2.982-65.03c.337-.375.13-.589-.16-.81a12.522 12.522 0 01-2.01-1.858c-.245-.275-.46-.36-.765-.054a43.11 43.11 0 00-3.44 4.029c-.206.283-.199.505.199.596l3.386.719a.627.627 0 00.65-.23c.734-.802 1.43-1.635 2.156-2.4l-.016.008zm-2.882 58.15c1.53-1.116 1.53-1.269.39-2.79a.535.535 0 00-.688-.237l-2.515.765c-.397.13-.558.32-.298.764.451.718.864 1.46 1.3 2.194a.466.466 0 00.527.29c.39-.282.841-.642 1.3-.986h-.015zm-3.776-5.35c2.5-1.201 2.5-1.201 1.109-3.64-.123-.214-.207-.458-.528-.344-.856.214-1.712.451-2.576.627-.71.146-.818.459-.482 1.07.337.612.55 1.162.826 1.736.543 1.093.589 1.093 1.667.558l-.016-.008zm1.223-45.592c.252-.42.176-.634-.244-.848a40.837 40.837 0 01-2.47-1.376c-.382-.237-.603-.176-.764.199l-1.697 3.226c-.153.282-.191.527.206.611l3.104.604c.505.122.658-.138.81-.42.337-.658.68-1.338 1.063-1.988l-.008-.008zm-3.363 7.645a.688.688 0 00-.459-.994c-.81-.344-1.613-.71-2.385-1.131-.466-.253-.71-.222-.856.313-.352 1.284-.719 2.576-1.078 3.86a.475.475 0 00.405.673l2.959.543c.45.107.58-.184.672-.535.29-.902.474-1.82.757-2.714l-.015-.015zM24.31 63.8c.635 0 .765-.237.666-.833-.169-.864-.29-1.735-.42-2.607a.826.826 0 00-.727-.764 25.893 25.893 0 01-2.637-.764c-.68-.23-.956-.1-.818.664.137.765.237 1.69.374 2.53.382 2.294.077 1.881 2.049 1.828.673-.008 1.139-.061 1.529-.038l-.016-.016zm-.068-12.995c0-.367 0-.665-.436-.764a17.733 17.733 0 01-2.844-1.246c-.436-.23-.611-.085-.642.374-.053.765-.13 1.582-.191 2.37h-.015v2.01a.704.704 0 00.642.834c.894.183 1.789.359 2.683.557.55.123.764-.045.764-.634-.03-1.154.016-2.309.054-3.463l-.015-.038z" fill="#000"/><path d="M187.641 101.808c-2.049-.076-2.033-.069-1.712-2.133a.617.617 0 01.626-.62 14.63 14.63 0 002.584-.541c.52-.146.765 0 .703.558-.061.558-.145 1.268-.152 1.911 0 .81-.367 1.077-1.147.886a4.774 4.774 0 00-.765-.061h-.137z" fill="url(#paint0_linear_689_15940)"/><path d="M189.314 87.697c.061.443-.191.596-.558.703-.764.23-1.59.459-2.369.764-.482.168-.765.092-.834-.458a1.508 1.508 0 01-.038-.176c0-.94-.81-2.118-.237-2.706.573-.589 1.927-.765 2.928-1.147.275-.1.489-.046.55.275.184.887.367 1.82.558 2.745z" fill="url(#paint1_linear_689_15940)"/><path d="M186.172 108.535c-2.003 0-2.003 0-1.483-1.972.061-.237.153-.467.191-.704.084-.512.337-.626.834-.496.764.221 1.597.359 2.4.542.176.038.459.061.497.161.252.764-.214 1.383-.337 2.079-.076.42-.359.512-.764.474-.405-.038-.887-.053-1.338-.084z" fill="url(#paint2_linear_689_15940)"/><path d="M187.427 79.8c.061.183.061.405-.115.497-.971.504-1.957.978-2.928 1.46-.351.053-.412-.199-.489-.436-.26-.81-.52-1.62-.764-2.43a.642.642 0 01.29-.856c.765-.46 1.575-.934 2.347-1.415.352-.214.573-.138.703.237.291.978.635 1.964.956 2.943z" fill="url(#paint3_linear_689_15940)"/><path d="M189.36 94.82c-.825.314-1.659.613-2.469.964-.581.252-.764.084-.764-.52v-1.093h-.039a.468.468 0 010-.092c-.114-1.758-.267-1.353 1.308-1.72l1.88-.42c.199-.046.482-.16.505.16.076.765.107 1.53.114 2.294-.007.283-.305.336-.535.428z" fill="url(#paint4_linear_689_15940)"/><path d="M185.317 115.614c-.146.298-.344.512-.719.397a22.6 22.6 0 00-2.912-.711c-.436-.091-.451-.305-.268-.657.405-.765.764-1.567 1.192-2.355a.588.588 0 01.122-.196.573.573 0 01.643-.132c.894.191 1.781.367 2.675.535.459.084.658.267.429.764-.413.765-.78 1.56-1.162 2.355z" fill="url(#paint5_linear_689_15940)"/><path d="M184.629 73.34c-.765.59-1.606 1.193-2.416 1.797-.069.046-.153.076-.222.115a.407.407 0 01-.359-.26c-.076-.169-.145-.337-.214-.505-1.315-2.981-1.307-2.974 1.04-5.236.405-.382.588-.29.764.145l1.529 3.226c.13.283.168.504-.122.719z" fill="url(#paint6_linear_689_15940)"/><path d="M179.927 118.236c.765.412 1.529.833 2.354 1.223.421.206.497.405.222.833-.764 1.246-.764 1.254-2.163.856a6.545 6.545 0 01-.696-.222c-.611-.244-1.72-.191-1.75-.71-.039-.765.848-1.331 1.307-1.996.061-.091.199-.13.306-.198l.42.214z" fill="url(#paint7_linear_689_15940)"/><path d="M181.142 65.444a.643.643 0 010 .833 90.238 90.238 0 00-1.895 2.347 2.58 2.58 0 01-.352.329 4.426 4.426 0 01-.352-.474 168.526 168.526 0 01-2.247-3.883.717.717 0 01.107-.971 33.558 33.558 0 001.651-2.08c.344-.474.558-.336.764.062.773 1.284 1.545 2.568 2.324 3.837z" fill="url(#paint8_linear_689_15940)"/><path d="M175.807 123.09c.765.504 1.598 1.016 2.416 1.529.397.237.443.466.099.764a1 1 0 00-.122.13c-1.705 1.858-1.705 1.858-4.075.902-.558-.229-1.116-.443-1.781-.703l2.722-2.584c.229-.268.481-.199.741-.038z" fill="url(#paint9_linear_689_15940)"/><path d="M174.125 54.971c.581.818 1.728 1.59 1.62 2.431-.122 1.04-1.077 1.98-1.666 2.966-.138.23-.336.337-.497.092-.458-.696-1.231-1.246-.848-2.332.273-.965.48-1.949.619-2.943.046-.229 0-.489.329-.619.074.035.146.076.214.122.084.088.161.182.229.283z" fill="url(#paint10_linear_689_15940)"/><path d="M173.889 128.601c.405.291.366.505 0 .765l-3.257 2.377c-.12.075-.245.142-.374.199h-.207c-.871-.764-1.758-1.529-2.607-2.293-.267-.253 0-.428.214-.566 1.025-.718 2.057-1.422 3.058-2.156a.633.633 0 01.69-.138.633.633 0 01.205.138c.764.543 1.513 1.132 2.278 1.674z" fill="url(#paint11_linear_689_15940)"/><path d="M171.579 51.845c.192.214.115.45 0 .688-.382.932-.764 1.865-1.131 2.798-.099.244-.229.611-.558.221a182.749 182.749 0 01-2.706-3.225 1.366 1.366 0 01-.145-.467 27.49 27.49 0 00.611-3.76c0-.383.245-.421.467-.169a224.472 224.472 0 013.462 3.914z" fill="url(#paint12_linear_689_15940)"/><path d="M166.351 133.731c.07.08.131.167.183.26 0 .313-.267.374-.443.466-.895.459-1.804.902-2.699 1.361-.443.229-.764.221-1.032-.291a8.217 8.217 0 00-1.666-1.934c-.413-.397-.489-.642.138-.909.924-.39 1.819-.849 2.729-1.292.29-.146.558-.26.764.068.602.82 1.28 1.58 2.026 2.271z" fill="url(#paint13_linear_689_15940)"/><path d="M162.911 42.64c2.423 2.294 2.416 2.294 1.009 5.283-.161.336-.29.535-.642.184-.665-.666-1.338-1.33-2.003-2.003a.63.63 0 01-.199-.658c.13-1.123.276-2.24.405-3.363.062-.573.306-.505.635-.191l.795.749z" fill="url(#paint14_linear_689_15940)"/><path d="M158.623 38.75a.855.855 0 01.336 1.1 26.892 26.892 0 00-.81 2.432c-.145.512-.352.596-.764.252-.765-.657-1.529-1.315-2.294-1.965a.866.866 0 01-.321-.764l.321-3.096c0-.199 0-.443.36-.49.122.085.275.177.412.291.925.719 1.85 1.49 2.76 2.24z" fill="url(#paint15_linear_689_15940)"/><path d="M157.323 136.154c.344.497.719.979 1.07 1.453.046.29-.183.305-.336.359-.925.321-1.857.627-2.782.932-.36.123-.558 0-.681-.382a55.11 55.11 0 00-.932-2.584c-.146-.359-.115-.581.282-.688.123 0 .23-.084.344-.122 1.896-.627 1.896-.627 3.035 1.032z" fill="url(#paint16_linear_689_15940)"/><path d="M48.04 41.036c1.965-.505 3.914-1.078 5.894-1.53 9.693-2.109 19.455-3.821 29.255-5.35 8.6-1.338 17.222-2.485 25.906-3.241 4.648-.413 9.296-.964 13.913-1.682.39-.061.765-.077 1.017-.1 1.437-.038 1.72.23 2.033 1.491a14.722 14.722 0 002.072 4.266c1.934 2.996 3.486 6.237 5.611 9.12.397.542 0 .596-.375.687-4.64 1.086-9.227 2.362-13.897 3.303-3.318.665-6.636 1.315-9.938 1.995-2.079.428-2.087.459-1.101 2.362 1.529 2.874 3.349 5.542 4.939 8.363.267.482.657.466 1.1.405 2.691-.398 5.351-.688 8.103-.894 8.027-.62 16.053-.895 24.042.405 2.221.269 4.373.95 6.345 2.01 2.744 1.598 3.225 4.113 1.276 6.628A14.341 14.341 0 01150 72.729c-4.258 2.492-8.913 3.968-13.584 5.397a128.21 128.21 0 01-9.83 2.607c-.765.168-.971.39-.597 1.192a193.667 193.667 0 0013.409 24.462 90.698 90.698 0 014.854 8.814c.443.887.168 1.468-.841 1.812a40.376 40.376 0 01-7.545 1.842c-3.173.451-6.376.719-9.471 1.613a2.293 2.293 0 01-2.806-1.124c-.894-1.49-1.751-3.004-2.614-4.518-4.49-7.843-8.975-15.69-13.454-23.544-1.055-1.858-2.018-3.769-2.959-5.688a1.13 1.13 0 00-1.368-.695c-10.259 1.33-20.548 2.094-30.898 1.452-3.57-.221-7.133-.573-10.519-1.85a9.005 9.005 0 01-3.272-1.964 4.204 4.204 0 01-.764-5.351 9.778 9.778 0 013.318-3.226 45.528 45.528 0 0110.954-4.831 148.901 148.901 0 0114.524-3.609c1.69-.366 3.348-.879 5.022-1.314.65-.169.428-.535.222-.895-1.1-1.941-2.217-3.868-3.478-5.71a4.126 4.126 0 01-.612-.91c-.627-1.766-1.941-1.758-3.44-1.445a40.678 40.678 0 01-7.445.895c-2.974.076-5.833 1.009-8.799 1.17-2.072.122-4.143.328-6.215.42a40.266 40.266 0 00-4.189.42.886.886 0 01-1.108-.497c-2.431-4.7-5.282-9.173-8.027-13.66-.367-.596-.619-1.261-.948-1.873-.328-.611-.122-.925.52-1.085zm4.923 1.062c-.963.168-1.162.505-.665 1.33.833 1.384 1.712 2.73 2.523 4.12a75.457 75.457 0 013.722 7.095c.2.428.413.527.91.405 4.816-1.178 9.777-1.239 14.67-1.858 2.24-.283 4.471-.573 6.696-.948a40.594 40.594 0 016.115-.672c.597 0 1.338.06 1.415.726.18.8.576 1.535 1.146 2.125 2.072 2.928 4.22 5.802 6.116 8.852 2.148 3.44 4.166 6.956 6.169 10.473.198.344.374.642.718.55 1.139-.19 2.156-.367 3.18-.527 3.058-.505 6.185-1.025 9.288-1.476.765-.107.681-.359.405-.863a428.29 428.29 0 01-3.164-5.864c-.872-1.65-2.248-3.057-2.836-4.793a54.444 54.444 0 00-3.112-6.78c-.619-1.27-1.261-2.553-1.995-3.761-.634-1.047-.596-1.437.642-1.72 2.37-.55 4.74-1.093 7.102-1.682 3.684-.91 7.369-1.812 11.115-2.454 1.643-.282 3.272-.657 4.9-1.024.489-.115.955-.329.489-.994-2.14-3.058-3.555-6.452-5.183-9.754-.359-.764-.68-1.108-1.529-.634a2.37 2.37 0 01-1.047.298c-2.591.114-5.152.52-7.728.764-1.606.184-3.219.252-4.824.436-2.179.244-4.357.55-6.528.84l-8.24 1.117c-3.059.397-6.032.856-9.06 1.185-3.026.328-6.008.91-9.004 1.452-2.385.436-4.763.979-7.156 1.414-2.178.39-4.38.696-6.566 1.07-2.89.528-5.787 1.063-8.661 1.552h-.023zm98.704 25.104c.688-.764.649-1.146-.138-1.72a5.43 5.43 0 00-.864-.504 19.872 19.872 0 00-5.649-1.49 102.75 102.75 0 00-16.412-.765c-3.769.153-8.134.282-12.491.65-1.17.099-1.177.099-.619 1.1 1.704 3.058 3.279 6.116 5.106 9.105.573.925.359 1.421-.711 1.727-.94.268-1.873.535-2.821.765a78.26 78.26 0 01-14.791 1.758c-2.99.076-3.196 0-4.358-2.775-1.162-2.775-2.63-5.305-4.005-7.927a.963.963 0 00-1.376-.543c-1.72.535-3.448 1.032-5.175 1.529-6.468 1.911-12.927 3.86-19.111 6.666a22.1 22.1 0 00-6.116 3.684c-.94.864-.879 1.223.29 1.774a19.729 19.729 0 005.558 1.483c7.538 1.139 15.113.887 22.68.397 8.721-.57 17.4-1.654 25.992-3.248a158.596 158.596 0 0021.151-5.168 57.37 57.37 0 0012.002-5.145 8.256 8.256 0 001.858-1.353zm-11.627 47.395c.565-.153.642-.367.389-.887a24.667 24.667 0 00-2.186-4.212c-3.975-5.351-6.88-11.36-10.121-17.146-1.643-2.92-3.256-5.848-4.9-8.76a2.425 2.425 0 00-2.966-1.33c-1.131.244-2.247.573-3.386.764-2.838.57-5.716.92-8.608 1.047-.497 0-.474.245-.306.574.094.191.199.378.314.558 4.999 8.255 9.334 16.894 13.943 25.371 1.032 1.896 1.873 3.899 2.813 5.848.168.329.268.764.81.696.367-.061.765-.107 1.086-.176 2.844-.543 5.664-1.162 8.546-1.529a33.58 33.58 0 004.572-.818z" fill="url(#paint17_linear_689_15940)"/><path d="M150.45 137.01c.032.885.183 1.762.451 2.607.077.313-.107.458-.359.535-.178.047-.36.083-.543.107-1.039.176-2.293.932-3.057.397-.765-.535-1.025-1.804-1.529-2.736-.291-.52-.092-.688.42-.765 1.262-.229 2.515-.489 3.769-.764.535-.138.841-.054.848.619z" fill="url(#paint18_linear_689_15940)"/><path d="M149.442 31.61l2.66 1.942a.543.543 0 01.184.719 61.079 61.079 0 00-.857 2.599c-.153.497-.39.443-.764.175-.482-.374-.963-.764-1.468-1.085a1.075 1.075 0 01-.535-1.238c.077-.39.069-.765.107-1.185h.061v-1.644c0-.55.253-.543.612-.283z" fill="url(#paint19_linear_689_15940)"/><path d="M143.548 27.696c2.622 1.606 2.606 1.613 1.865 4.587-.145.596-.352.803-.902.36-.35-.3-.735-.557-1.147-.765-1.322-.65-2.224-1.529-1.659-3.172 0-.635-.366-1.629.069-1.873.566-.306 1.193.504 1.774.863z" fill="url(#paint20_linear_689_15940)"/><path d="M140.414 153.117c.321-.765 0-.811-.589-.765-1.154.084-2.293.138-3.822.23h-3.325a.687.687 0 00-.811.634c-.833 3.692-1.697 7.369-2.553 11.054-.237.994-.244 1.017.826.948 1.399-.1 2.798-.306 4.196-.344 1.399-.038 2.133-.444 2.202-1.865.048-.239.128-.471.237-.688 1.215-3.081 2.393-6.154 3.639-9.204zm2.331-.405c-.672 3.531-1.437 7.048-2.423 10.503-.183.657 0 .764.596.634 1.254-.275 2.5-.604 3.761-.802 1.116-.168 1.85-.612 2.049-1.797.105-.383.262-.751.466-1.093 1.279-2.833 2.553-5.669 3.822-8.508.153-.344.321-.665-.428-.589-2.339.459-4.823.765-7.308 1.032-.336.039-.474.276-.535.62zm-23.995-.344c.252-.597.176-.765-.474-.849a303.017 303.017 0 01-7.645-1.292c-1.62-.29-1.613-.321-1.995 1.223a5.308 5.308 0 01-.221.696c-1.178 2.79-1.889 5.733-2.882 8.585-.268.764-.474 1.567-.696 2.362-.138.496 0 .764.581.863 2.53.413 5.076.711 7.644.987.566 0 1.063.191 1.33-.658 1.277-4.051 2.668-8.026 4.335-11.917h.023zm2.851-.467c-.543-.069-.657.199-.764.658-.831 4.021-1.685 8.042-2.561 12.062-.123.566.053.765.565.765h2.745v.092c.764 0 1.529-.054 2.293 0 .887.076 1.3-.169 1.131-1.139a2.3 2.3 0 01.176-1.078 88.577 88.577 0 013.692-9.938c.321-.665.146-.856-.527-.879-2.255-.099-4.51-.252-6.75-.543zm-58.938-19.653c.222-.405.49-.765-.114-1.139a128.418 128.418 0 01-9.288-6.368c-.436-.329-.581-.229-.711.291-1.154 4.8-3.058 9.333-4.885 13.889a.818.818 0 00.352 1.185 162.432 162.432 0 007.72 5.099l.46.26c.412 0 .42-.306.519-.543.451-1.101.864-2.217 1.353-3.302 1.437-3.173 2.928-6.315 4.594-9.372zm2.546.512c-.405 0-.413.329-.49.566-.29.902-.557 1.811-.84 2.713a988.625 988.625 0 01-3.486 11.367c-.153.482.107.597.397.765 2.852 1.598 5.756 3.058 8.7 4.495.588.283.802.114.97-.451.36-1.2.765-2.393 1.147-3.578 1.086-3.172 1.957-6.429 3.616-9.379.374-.665.352-.956-.367-1.292a140.745 140.745 0 01-9.105-4.908l-.542-.298zM6.699 83.691a139.481 139.481 0 015.94-14.073 3.11 3.11 0 00.436-2.225 57.447 57.447 0 01-1.3-14.822c0-.313.13-.65-.1-.986-.282.145-.343.435-.458.665-1.529 3.218-3.111 6.421-4.587 9.662a24.3 24.3 0 00-2.186 10.412 45.1 45.1 0 001.124 8.982 12.71 12.71 0 00.764 2.966c.314-.153.298-.39.367-.581zm4.35 10.045c2.347-3.693 4.143-7.69 6.46-11.398a.926.926 0 000-.94 79.916 79.916 0 01-2.814-7.553c-.061-.199-.053-.49-.283-.535-.23-.046-.367.275-.474.474a136.935 136.935 0 00-6.513 12.911c-.192.339-.267.73-.214 1.116 0 0 .069.29.16.55.62 1.751 1.232 3.51 1.889 5.26.191.497.26 1.33.764 1.368.505.038.727-.787 1.025-1.261v.008zm7.407-9.036a128.302 128.302 0 01-6.398 14.088 1.162 1.162 0 00.091 1.193 88.403 88.403 0 004.503 7.874c.166.376.43.701.764.94.119-.179.226-.366.322-.558 1.528-3.44 3.225-6.781 4.877-10.16a9.09 9.09 0 011.597-2.438 1.094 1.094 0 00.084-1.605 84.013 84.013 0 01-5.083-9.005c-.13-.26-.176-.604-.566-.727-.061.138-.137.253-.191.398zm176.148-14.02c3.93 8.967 6.2 18.347 6.039 28.17a50.146 50.146 0 01-7.132 25.379 216.256 216.256 0 01-17.268 24.225 52.75 52.75 0 01-16.237 13.308 64.11 64.11 0 01-16.374 6.009 95.783 95.783 0 01-35.248 1.307c-33.559-4.79-61.863-19.633-84.913-44.528A94.645 94.645 0 014.413 94.217a72.659 72.659 0 01-4.38-17.926 20.8 20.8 0 01.612-6.314c.23-1.254.535-2.484.673-3.753.137-1.27.856-2.385 1.146-3.639 1.284-5.58 3.906-10.633 6.33-15.77a96.774 96.774 0 017.27-13.233c1.146-1.681 1.972-3.585 3.057-5.35 5.565-9.029 13.4-15.511 22.819-20.182a76.81 76.81 0 0123.223-7.025A98.481 98.481 0 0179.779.001c15.782.16 31.396 3.27 46.034 9.173a137.71 137.71 0 0145.751 29.178c9.64 9.357 17.613 19.945 23.04 32.328zm-20.945 67.729c15.289-9.746 23.078-23.644 22.803-41.868a60.753 60.753 0 00-4.747-21.909c-4.465-11.084-11.138-20.746-19.31-29.384-14.073-14.869-30.906-25.578-49.994-32.794a122.635 122.635 0 00-42.51-8.21 93.934 93.934 0 00-19.875 2.048c-8.83 1.942-17.131 5.168-24.462 10.526C23.18 25.862 16.553 38.04 15.918 53.397c-.367 8.913 1.529 17.42 4.87 25.639A92.02 92.02 0 0039.47 107.64c15.495 16.458 34.148 28.016 55.49 35.294a116.567 116.567 0 0027.833 5.71c9.416.883 18.91.393 28.185-1.453 8.05-1.666 15.717-4.349 22.681-8.783zm-.573 6.46c.076-.536.481-1.017.351-1.667a35.52 35.52 0 01-4.923 2.347 6.204 6.204 0 00-4.586 4.923 57.448 57.448 0 01-2.133 6.016 2.133 2.133 0 001.039-.604c2.294-1.98 4.587-4.021 6.987-5.932 1.652-1.353 2.936-2.89 3.265-5.083zm-11.895 4.097c0-.581-.26-.459-.527-.375-1.973.65-3.983 1.17-6.001 1.651a.978.978 0 00-.765.765c-.94 3.157-1.895 6.314-2.836 9.471-.061.199-.214.413 0 .596.214.184.413 0 .596-.038 1.323-.474 2.63-.993 3.96-1.437a2.468 2.468 0 001.651-1.919c.174-.676.43-1.328.765-1.941.589-1.07 1.215-2.125 1.735-3.226s1.002-2.416 1.422-3.547zm-56.813.688c.337-.604.291-.765-.397-.956-3.111-.764-6.2-1.636-9.227-2.69-.902-.314-1.238-.062-1.468.802-1.009 3.822-2.094 7.591-3.103 11.398-.574 2.148-.535 2.163 1.628 2.767a124.99 124.99 0 007.943 1.926c.412.123.512-.252.611-.619.382-1.414.764-2.836 1.139-4.242.803-2.844 1.422-5.764 2.874-8.386zm-14.998-4.709c.168-.566.061-.764-.45-.925-3.212-1.177-6.384-2.446-9.488-3.883-.65-.306-.91-.169-1.085.489a1582.195 1582.195 0 01-3.57 13.462c-.191.688 0 .963.635 1.223a179.738 179.738 0 008.99 3.394c.175.061.35.099.542.153.405 0 .36-.344.42-.581 1.178-4.495 2.676-8.891 4.006-13.332zm-38.688-21.404c.283-.512 0-.711-.283-.963a97.962 97.962 0 01-6.558-5.573c-.535-.497-.765-.352-1.063.222a17.245 17.245 0 01-2.224 3.348 6.915 6.915 0 00-1.246 1.674 40.388 40.388 0 01-3.739 6.811c-.305.459-.344.764.107 1.154a144.107 144.107 0 007.568 6.36c.14.106.285.203.436.291.413-.069.443-.428.573-.68 2.156-4.235 4.136-8.539 6.43-12.644zM39.8 114.008c.061-.137.115-.282.16-.382a.812.812 0 00-.305-.588c-1.651-1.751-3.318-3.494-4.961-5.26-.36-.382-.589-.336-.826.1-.382.695-.764 1.368-1.162 2.071-1.896 3.654-3.394 7.492-5.229 11.176a.858.858 0 00.237 1.124c1.46 1.529 2.928 3.058 4.373 4.587.42.443.696.489 1.017-.107 2.3-4.274 4.785-8.363 6.696-12.759v.038zm-8.539-9.326a.863.863 0 00-.1-1.07 240.823 240.823 0 01-3.821-5.03c-.344-.466-.543-.55-.902 0-2.584 3.899-4.984 7.897-7.377 11.918a.863.863 0 00.053 1.077 107.265 107.265 0 004.84 6.33c.13.161.244.359.504.398.321-.123.344-.459.474-.719a1274.42 1274.42 0 016.33-12.942v.038z" fill="url(#paint21_linear_689_15940)"/><path d="M142.424 140.129c.482 1.338.49 1.338-.963 1.529-2.339.329-2.339.329-2.714-1.797-.321-1.849-.321-1.849 1.613-1.972h.329c.764-.275 1.223.107 1.353 1.032a6.4 6.4 0 00.382 1.208z" fill="url(#paint22_linear_689_15940)"/><path d="M138.151 24.463a.57.57 0 01.312.319.57.57 0 01-.006.445 69.274 69.274 0 00-.657 2.569c-.092.367-.253.474-.574.298l-2.155-1.223a.494.494 0 01-.275-.604l.229-2.737c.046-.504.26-.657.764-.397.757.45 1.56.894 2.362 1.33z" fill="url(#paint23_linear_689_15940)"/><path d="M134.704 140.825c.16 1.276.13 1.292-1.193 1.322-.909 0-1.957.26-2.706-.092-.749-.351-.672-1.528-1.024-2.346-.589-1.346-.566-1.353.902-1.346h1.407c.695.069 1.689-.351 2.293.115.604.466.222 1.552.321 2.347z" fill="url(#paint24_linear_689_15940)"/><path d="M132.104 21.244c.444.207.581.428.321.918a17.062 17.062 0 00-.932 2.094c-.176.466-.406.512-.826.306-1.529-.764-3.058-1.49-4.587-2.225a.838.838 0 01-.558-.764c-.068-.97-.175-1.942-.26-2.92 0-.237-.107-.52.306-.466l.26.114a604.42 604.42 0 006.276 2.943z" fill="url(#paint25_linear_689_15940)"/><path d="M126.417 140.435c.046 1.658.046 1.658-1.652 1.49-1.697-.168-1.75-.168-2.056-1.903-.367-2.079-.367-2.079 1.69-1.927 2.056.153 1.972.146 2.018 2.34z" fill="url(#paint26_linear_689_15940)"/><path d="M121.685 16.59a.575.575 0 01.421.71 139.04 139.04 0 00-.535 2.5c-.092.42-.337.458-.673.32-.627-.244-1.246-.48-1.865-.764-.13-.053-.314-.16-.344-.275a15.593 15.593 0 01-.375-3.425c0-.374.352-.229.558-.152.941.367 1.873.734 2.813 1.085z" fill="url(#paint27_linear_689_15940)"/><path d="M118.49 137.461c.55.077.864.283.711.833-.076.665-.168 1.269-.222 1.881-.114 1.177-.114 1.192-1.246 1.032-.848-.123-1.689-.283-2.538-.39a.765.765 0 01-.764-.765c-.084-.817-.191-1.635-.291-2.453-.061-.543.107-.765.719-.696 1.215.222 2.423.398 3.631.558z" fill="url(#paint28_linear_689_15940)"/><path d="M115.325 17.346c-.054.428-.252.604-.68.436l-.169-.062c-2.851-.856-2.981-1.054-2.935-4.189 0-.32.076-.474.413-.359l3.386 1.086a.463.463 0 01.336.58c-.129.918-.244 1.72-.351 2.508z" fill="url(#paint29_linear_689_15940)"/><path d="M111.679 136.361c.612.122.428.55.375 1.161-.054.612-.222 1.262-.329 2.011-.061.466-.275.634-.764.535-.979-.222-1.957-.413-2.943-.611a.575.575 0 01-.394-.203.553.553 0 01-.126-.424v-2.737c0-.489.221-.566.627-.482 1.177.26 2.362.513 3.554.75z" fill="url(#paint30_linear_689_15940)"/><path d="M107.261 11.789c.397.099.55.351.466.642-.115.902-.23 1.682-.306 2.469-.038.474-.275.55-.68.443a96.912 96.912 0 00-2.118-.55.768.768 0 01-.565-.635 75.497 75.497 0 00-.719-2.637c-.122-.436-.13-.764.466-.604l3.456.872z" fill="url(#paint31_linear_689_15940)"/><path d="M100.472 134.243c.069-.405.29-.505.65-.413l.175.054c.826.336 2.179.168 2.431.932.291.887-.481 1.942-.764 2.943a.408.408 0 01-.061.173.401.401 0 01-.31.176.393.393 0 01-.179-.035l-2.11-.604a.46.46 0 01-.322-.232.448.448 0 01-.015-.395c.184-.887.352-1.751.505-2.599z" fill="url(#paint32_linear_689_15940)"/><path d="M100.947 12.11c-.1 1.773-.1 1.78-1.85 1.43-.864-.169-1.904-.047-2.53-.62-.627-.573-.429-1.598-.627-2.416-.306-1.23-.253-1.261.978-1.009.978.237 1.968.42 2.966.55 1.024.1 1.3.597 1.101 1.53a4.356 4.356 0 00-.038.535z" fill="url(#paint33_linear_689_15940)"/><path d="M97.804 132.798c.466.153.65.344.367.856a21.19 21.19 0 00-1.078 2.217c-.115.237-.222.444-.527.413-.306-.031-.474-.138-.704-.222a353.713 353.713 0 01-4.227-1.529c-.62-.206-.894-.405-.352-1.039a13.25 13.25 0 001.231-1.812c.237-.39.459-.566.956-.39 1.437.558 2.89 1.025 4.334 1.506z" fill="url(#paint34_linear_689_15940)"/><path d="M91.33 8.624c.619.045.986.26.856.963a4.249 4.249 0 000 .825C92.102 12.514 92.11 12.5 90 12.14a.978.978 0 01-.94-.818 36.886 36.886 0 00-.658-2.293c-.168-.55 0-.727.573-.665.78.099 1.568.198 2.355.26z" fill="url(#paint35_linear_689_15940)"/><path d="M87.584 129.068c1.712.711 1.72.718 1.162 2.499-.634 2.003-.367 1.713-2.14.994-.818-.329-1.62-.696-2.431-1.047-1.055-.466-1.047-.466-.36-1.33.398-.497.765-1.025 1.14-1.529.137-.191.229-.436.565-.436l2.064.849z" fill="url(#paint36_linear_689_15940)"/><path d="M84.442 8.012c.55.046.765.237.665.764A13.18 13.18 0 0085 10.412c0 1.27 0 1.27-1.322 1.17l-1.529-.1c-.902-.106-2.003.314-2.668-.213-.665-.528-.642-1.72-1.001-2.584-.36-.864-.069-.933.688-.918 1.743.084 3.509.085 5.274.245z" fill="url(#paint37_linear_689_15940)"/><path d="M81.208 126.216c.535.23.581.505.352.986-.314.658-.573 1.346-.864 2.011-.092.214-.145.497-.527.42-.046 0-.138-.046-.215-.084l-5.037-2.584c-.375-.191-.505-.428-.207-.764.046-.046.077-.099.115-.145.581-.658.864-1.781 1.636-1.995.772-.215 1.529.657 2.362 1.016.833.36 1.567.795 2.385 1.139z" fill="url(#paint38_linear_689_15940)"/><path d="M74.94 10.863c.046.543-.168.711-.657.727-.49.015-1.093.068-1.644.107-1.575.527-2.293-.268-2.836-1.651-.764-1.896-.894-1.85 1.17-1.957 1.062-.062 2.125-.13 3.187-.222.558-.054.765.145.765.718-.045.76-.04 1.52.015 2.278z" fill="url(#paint39_linear_689_15940)"/><path d="M71.424 121.026c1.452.856 1.452.856.68 2.385l-.527 1.062c-.077.176-.176.321-.398.321a.763.763 0 01-.175-.045 576.29 576.29 0 01-3.754-2.294.31.31 0 01-.149-.224.315.315 0 01.08-.257 2.3 2.3 0 01.176-.207c1.72-2.117 1.72-2.117 4.067-.741z" fill="url(#paint40_linear_689_15940)"/><path d="M66.104 11.819c.091.36 0 .573-.39.642-.963.153-1.919.321-2.882.512a.764.764 0 01-.979-.535c-.267-.764-.558-1.529-.894-2.21-.206-.442-.145-.695.344-.764l3.509-.642c.413-.06.619.123.703.528.183.81.382 1.636.589 2.469z" fill="url(#paint41_linear_689_15940)"/><path d="M65.522 117.349a.493.493 0 01.284.336.489.489 0 01-.1.428c-.39.612-.765 1.246-1.101 1.888-.23.421-.505.459-.88.191-1.169-.825-2.346-1.635-3.508-2.461-.222-.153-.52-.336-.207-.634.643-.604 1.315-1.178 1.973-1.759a.779.779 0 01.275-.107c.139.047.272.109.397.184l2.867 1.934z" fill="url(#paint42_linear_689_15940)"/><path d="M59.27 112.961a.328.328 0 01.045.489c0 .046-.076.092-.106.145-1.53 2.24-1.629 2.294-3.7.551a142.11 142.11 0 01-1.53-1.277c-.358-.283-.412-.527 0-.871.414-.344.903-.91 1.346-1.369.145-.145.275-.328.482-.328.07.021.139.047.206.076l3.257 2.584z" fill="url(#paint43_linear_689_15940)"/><path d="M57.81 12.255c.183 1.788.175 1.765-1.583 2.346a111.515 111.515 0 00-5.168 1.835c-.543.207-.833.153-1.085-.374-.36-.765-.765-1.468-1.155-2.187-.221-.397-.122-.596.276-.764a65.966 65.966 0 018.057-2.69c.481-.13.68.075.665.55-.016.473-.008.856-.008 1.284z" fill="url(#paint44_linear_689_15940)"/><path d="M52.657 107.663c.122.329-1.529 2.431-1.926 2.401a2.336 2.336 0 01-.33-.23c-.634-.573-1.26-1.154-1.903-1.72-.336-.29-.435-.573-.046-.894l.07-.061c.603-.505 1.054-1.659 1.666-1.529.955.176 1.567 1.254 2.37 1.896a.336.336 0 01.099.137z" fill="url(#paint45_linear_689_15940)"/><path d="M46.35 101.594c.405.52 1.315.894 1.224 1.529-.123.841-1.002 1.399-1.53 2.125a1.254 1.254 0 01-.305.206 6.28 6.28 0 01-.512-.42c-.956-.979-1.896-1.98-2.875-2.943-.458-.451-.336-.704.146-1.04 1.972-1.391 1.957-1.407 3.57.306a.95.95 0 01.282.237z" fill="url(#paint46_linear_689_15940)"/><path d="M46.542 18.095c.053.405-.215.512-.46.642-.657.375-1.33.765-1.979 1.132-.405.252-.665.252-.97-.184a23.794 23.794 0 00-1.66-2.056c-.313-.352-.282-.558.107-.765l3.6-1.964c.246-.13.559-.29.643.145.18 1.03.42 2.048.719 3.05z" fill="url(#paint47_linear_689_15940)"/><path d="M40.685 95.257c.497.377.901.86 1.185 1.414 0 .29-.19.413-.344.558a15.66 15.66 0 00-1.269 1.3c-.435.55-.71.42-1.116-.046-1.162-1.338-1.184-1.323.222-2.439a2.95 2.95 0 01.428-.336c.298-.168.512-.703.895-.45z" fill="url(#paint48_linear_689_15940)"/><path d="M39.875 22.682c-1.085 1.024-2.194 1.857-3.7.695a3.057 3.057 0 00-.848-.336c-1.43-.566-1.43-.566-.214-1.59.58-.49 1.177-.956 1.773-1.43.245-.19.512-.39.765 0a9.79 9.79 0 002.247 1.988c.122.084.245.176.222.573a.588.588 0 00-.245.1z" fill="url(#paint49_linear_689_15940)"/><path d="M37.803 91.32a.613.613 0 01-.091.94 22.835 22.835 0 00-1.53 1.575c-.336.39-.58.352-.863 0a967.445 967.445 0 00-3.058-4.227c-.275-.39-.221-.635.222-.857.826-.397 1.628-.833 2.385-1.23.336 0 .413.206.535.374.803 1.116 1.59 2.278 2.4 3.425z" fill="url(#paint50_linear_689_15940)"/><path d="M34.57 26.458c.29.222.497.436.16.81-.726.765-1.422 1.59-2.125 2.393a.627.627 0 01-.65.23l-3.386-.72c-.397-.091-.405-.313-.199-.596a43.095 43.095 0 013.44-4.028c.29-.306.505-.222.765.053a12.5 12.5 0 001.995 1.858z" fill="url(#paint51_linear_689_15940)"/><path d="M31.85 85.38c-.46.344-.91.696-1.285.986a.466.466 0 01-.527-.29 59.289 59.289 0 00-1.3-2.194c-.26-.413-.1-.604.298-.764l2.515-.765a.535.535 0 01.688.237c1.131 1.521 1.116 1.674-.39 2.79z" fill="url(#paint52_linear_689_15940)"/><path d="M29.051 33.598c.42.214.497.428.245.848-.39.65-.764 1.33-1.093 1.995-.153.283-.306.543-.81.42l-3.104-.603c-.398-.084-.36-.329-.207-.611l1.698-3.226c.198-.375.42-.436.764-.2.841.49 1.666.941 2.507 1.377z" fill="url(#paint53_linear_689_15940)"/><path d="M26.078 76.681c.864-.176 1.72-.413 2.576-.627.321-.114.405.13.527.344 1.392 2.439 1.392 2.439-1.108 3.639-1.116.535-1.124.535-1.651-.55-.275-.574-.52-1.178-.826-1.736-.305-.558-.229-.925.482-1.07z" fill="url(#paint54_linear_689_15940)"/><path d="M27.232 71.407c.252.84-.382.405-.642.466a6.43 6.43 0 00-2.24.55c-.558.237-.894.191-1.078-.458a133.461 133.461 0 00-1.3-4.205c-.16-.52-.053-.764.536-.665.99.185 1.997.274 3.004.268.39 0 .535.244.627.55.367 1.162.734 2.332 1.093 3.494z" fill="url(#paint55_linear_689_15940)"/><path d="M25.466 41.105a.688.688 0 01.458.993c-.282.895-.504 1.812-.764 2.73-.092.35-.222.641-.673.534l-2.958-.542a.473.473 0 01-.405-.673c.36-1.284.764-2.576 1.078-3.86.145-.535.39-.566.856-.314.802.42 1.643.788 2.408 1.132z" fill="url(#paint56_linear_689_15940)"/><path d="M24.992 62.982c.122.597 0 .864-.665.834-.428 0-.856 0-1.53.06-1.971.054-1.666.482-2.048-1.826-.137-.841-.221-1.69-.374-2.53-.153-.841.137-.895.818-.666.865.302 1.745.557 2.637.765a.826.826 0 01.726.764c.145.864.268 1.736.436 2.6z" fill="url(#paint57_linear_689_15940)"/><path d="M23.822 50.048c.405.13.451.428.436.765-.038 1.154-.084 2.293-.077 3.47 0 .589-.229.765-.764.635-.895-.2-1.789-.375-2.683-.558a.704.704 0 01-.642-.834v-2.01h.06c.062-.764.138-1.582.192-2.37 0-.459.206-.604.642-.374.906.508 1.855.935 2.836 1.276z" fill="url(#paint58_linear_689_15940)"/><defs><linearGradient id="paint0_linear_689_15940" x1="185.768" y1="100.195" x2="189.85" y2="100.195" gradientUnits="userSpaceOnUse"><stop stop-color="#E4BC6C"/><stop offset="1" stop-color="#E9C786" stop-opacity="0"/></linearGradient><linearGradient id="paint1_linear_689_15940" x1="185.072" y1="86.902" x2="189.322" y2="86.902" gradientUnits="userSpaceOnUse"><stop stop-color="#E4BC6C"/><stop offset="1" stop-color="#E9C786" stop-opacity="0"/></linearGradient><linearGradient id="paint2_linear_689_15940" x1="184.399" y1="106.968" x2="188.687" y2="106.968" gradientUnits="userSpaceOnUse"><stop stop-color="#E4BC6C"/><stop offset="1" stop-color="#E9C786" stop-opacity="0"/></linearGradient><linearGradient id="paint3_linear_689_15940" x1="183.047" y1="79.135" x2="187.465" y2="79.135" gradientUnits="userSpaceOnUse"><stop stop-color="#E4BC6C"/><stop offset="1" stop-color="#E9C786" stop-opacity="0"/></linearGradient><linearGradient id="paint4_linear_689_15940" x1="186.012" y1="93.888" x2="189.888" y2="93.888" gradientUnits="userSpaceOnUse"><stop stop-color="#E4BC6C"/><stop offset="1" stop-color="#E9C786" stop-opacity="0"/></linearGradient><linearGradient id="paint5_linear_689_15940" x1="181.303" y1="113.985" x2="186.555" y2="113.985" gradientUnits="userSpaceOnUse"><stop stop-color="#E4BC6C"/><stop offset="1" stop-color="#E9C786" stop-opacity="0"/></linearGradient><linearGradient id="paint6_linear_689_15940" x1="180.539" y1="72.133" x2="184.85" y2="72.133" gradientUnits="userSpaceOnUse"><stop stop-color="#E4BC6C"/><stop offset="1" stop-color="#E9C786" stop-opacity="0"/></linearGradient><linearGradient id="paint7_linear_689_15940" x1="177.894" y1="119.703" x2="182.664" y2="119.703" gradientUnits="userSpaceOnUse"><stop stop-color="#E4BC6C"/><stop offset="1" stop-color="#E9C786" stop-opacity="0"/></linearGradient><linearGradient id="paint8_linear_689_15940" x1="176.135" y1="65.108" x2="181.288" y2="65.108" gradientUnits="userSpaceOnUse"><stop stop-color="#E4BC6C"/><stop offset="1" stop-color="#E9C786" stop-opacity="0"/></linearGradient><linearGradient id="paint9_linear_689_15940" x1="172.344" y1="124.978" x2="178.551" y2="124.978" gradientUnits="userSpaceOnUse"><stop stop-color="#E4BC6C"/><stop offset="1" stop-color="#E9C786" stop-opacity="0"/></linearGradient><linearGradient id="paint10_linear_689_15940" x1="172.634" y1="57.586" x2="175.753" y2="57.586" gradientUnits="userSpaceOnUse"><stop stop-color="#E4BC6C"/><stop offset="1" stop-color="#E9C786" stop-opacity="0"/></linearGradient><linearGradient id="paint11_linear_689_15940" x1="167.353" y1="129.32" x2="174.179" y2="129.32" gradientUnits="userSpaceOnUse"><stop stop-color="#E4BC6C"/><stop offset="1" stop-color="#E9C786" stop-opacity="0"/></linearGradient><linearGradient id="paint12_linear_689_15940" x1="167.054" y1="51.745" x2="171.694" y2="51.745" gradientUnits="userSpaceOnUse"><stop stop-color="#E4BC6C"/><stop offset="1" stop-color="#E9C786" stop-opacity="0"/></linearGradient><linearGradient id="paint13_linear_689_15940" x1="160.373" y1="133.609" x2="166.534" y2="133.609" gradientUnits="userSpaceOnUse"><stop stop-color="#E4BC6C"/><stop offset="1" stop-color="#E9C786" stop-opacity="0"/></linearGradient><linearGradient id="paint14_linear_689_15940" x1="161.046" y1="44.972" x2="164.876" y2="44.972" gradientUnits="userSpaceOnUse"><stop stop-color="#E4BC6C"/><stop offset="1" stop-color="#E9C786" stop-opacity="0"/></linearGradient><linearGradient id="paint15_linear_689_15940" x1="154.77" y1="39.461" x2="159.043" y2="39.461" gradientUnits="userSpaceOnUse"><stop stop-color="#E4BC6C"/><stop offset="1" stop-color="#E9C786" stop-opacity="0"/></linearGradient><linearGradient id="paint16_linear_689_15940" x1="153.585" y1="136.842" x2="158.401" y2="136.842" gradientUnits="userSpaceOnUse"><stop stop-color="#E4BC6C"/><stop offset="1" stop-color="#E9C786" stop-opacity="0"/></linearGradient><linearGradient id="paint17_linear_689_15940" x1="47.421" y1="74.87" x2="155.405" y2="74.87" gradientUnits="userSpaceOnUse"><stop stop-color="#E4BC6C"/><stop offset="1" stop-color="#E9C786" stop-opacity="0"/></linearGradient><linearGradient id="paint18_linear_689_15940" x1="145.26" y1="138.585" x2="150.917" y2="138.585" gradientUnits="userSpaceOnUse"><stop stop-color="#E4BC6C"/><stop offset="1" stop-color="#E9C786" stop-opacity="0"/></linearGradient><linearGradient id="paint19_linear_689_15940" x1="148.67" y1="34.355" x2="152.347" y2="34.355" gradientUnits="userSpaceOnUse"><stop stop-color="#E4BC6C"/><stop offset="1" stop-color="#E9C786" stop-opacity="0"/></linearGradient><linearGradient id="paint20_linear_689_15940" x1="141.537" y1="29.822" x2="145.841" y2="29.822" gradientUnits="userSpaceOnUse"><stop stop-color="#E4BC6C"/><stop offset="1" stop-color="#E9C786" stop-opacity="0"/></linearGradient><linearGradient id="paint21_linear_689_15940" x1="-.066" y1="85.097" x2="200.651" y2="85.097" gradientUnits="userSpaceOnUse"><stop stop-color="#E4BC6C"/><stop offset="1" stop-color="#E9C786" stop-opacity="0"/></linearGradient><linearGradient id="paint22_linear_689_15940" x1="138.549" y1="139.816" x2="142.677" y2="139.816" gradientUnits="userSpaceOnUse"><stop stop-color="#E4BC6C"/><stop offset="1" stop-color="#E9C786" stop-opacity="0"/></linearGradient><linearGradient id="paint23_linear_689_15940" x1="134.773" y1="25.594" x2="138.495" y2="25.594" gradientUnits="userSpaceOnUse"><stop stop-color="#E4BC6C"/><stop offset="1" stop-color="#E9C786" stop-opacity="0"/></linearGradient><linearGradient id="paint24_linear_689_15940" x1="129.422" y1="140.251" x2="134.773" y2="140.251" gradientUnits="userSpaceOnUse"><stop stop-color="#E4BC6C"/><stop offset="1" stop-color="#E9C786" stop-opacity="0"/></linearGradient><linearGradient id="paint25_linear_689_15940" x1="125.209" y1="21.436" x2="132.555" y2="21.436" gradientUnits="userSpaceOnUse"><stop stop-color="#E4BC6C"/><stop offset="1" stop-color="#E9C786" stop-opacity="0"/></linearGradient><linearGradient id="paint26_linear_689_15940" x1="122.526" y1="140.014" x2="126.432" y2="140.014" gradientUnits="userSpaceOnUse"><stop stop-color="#E4BC6C"/><stop offset="1" stop-color="#E9C786" stop-opacity="0"/></linearGradient><linearGradient id="paint27_linear_689_15940" x1="118.314" y1="17.812" x2="122.121" y2="17.812" gradientUnits="userSpaceOnUse"><stop stop-color="#E4BC6C"/><stop offset="1" stop-color="#E9C786" stop-opacity="0"/></linearGradient><linearGradient id="paint28_linear_689_15940" x1="114.14" y1="139.089" x2="119.239" y2="139.089" gradientUnits="userSpaceOnUse"><stop stop-color="#E4BC6C"/><stop offset="1" stop-color="#E9C786" stop-opacity="0"/></linearGradient><linearGradient id="paint29_linear_689_15940" x1="111.533" y1="15.488" x2="115.684" y2="15.488" gradientUnits="userSpaceOnUse"><stop stop-color="#E4BC6C"/><stop offset="1" stop-color="#E9C786" stop-opacity="0"/></linearGradient><linearGradient id="paint30_linear_689_15940" x1="107.482" y1="137.836" x2="112.123" y2="137.836" gradientUnits="userSpaceOnUse"><stop stop-color="#E4BC6C"/><stop offset="1" stop-color="#E9C786" stop-opacity="0"/></linearGradient><linearGradient id="paint31_linear_689_15940" x1="103.24" y1="13.134" x2="107.719" y2="13.134" gradientUnits="userSpaceOnUse"><stop stop-color="#E4BC6C"/><stop offset="1" stop-color="#E9C786" stop-opacity="0"/></linearGradient><linearGradient id="paint32_linear_689_15940" x1="99.96" y1="135.925" x2="103.79" y2="135.925" gradientUnits="userSpaceOnUse"><stop stop-color="#E4BC6C"/><stop offset="1" stop-color="#E9C786" stop-opacity="0"/></linearGradient><linearGradient id="paint33_linear_689_15940" x1="95.787" y1="11.544" x2="101.046" y2="11.544" gradientUnits="userSpaceOnUse"><stop stop-color="#E4BC6C"/><stop offset="1" stop-color="#E9C786" stop-opacity="0"/></linearGradient><linearGradient id="paint34_linear_689_15940" x1="90.993" y1="133.777" x2="98.308" y2="133.777" gradientUnits="userSpaceOnUse"><stop stop-color="#E4BC6C"/><stop offset="1" stop-color="#E9C786" stop-opacity="0"/></linearGradient><linearGradient id="paint35_linear_689_15940" x1="88.333" y1="10.336" x2="92.209" y2="10.336" gradientUnits="userSpaceOnUse"><stop stop-color="#E4BC6C"/><stop offset="1" stop-color="#E9C786" stop-opacity="0"/></linearGradient><linearGradient id="paint36_linear_689_15940" x1="83.334" y1="130.65" x2="89.075" y2="130.65" gradientUnits="userSpaceOnUse"><stop stop-color="#E4BC6C"/><stop offset="1" stop-color="#E9C786" stop-opacity="0"/></linearGradient><linearGradient id="paint37_linear_689_15940" x1="78.327" y1="9.724" x2="85.123" y2="9.724" gradientUnits="userSpaceOnUse"><stop stop-color="#E4BC6C"/><stop offset="1" stop-color="#E9C786" stop-opacity="0"/></linearGradient><linearGradient id="paint38_linear_689_15940" x1="74.542" y1="126.828" x2="81.69" y2="126.828" gradientUnits="userSpaceOnUse"><stop stop-color="#E4BC6C"/><stop offset="1" stop-color="#E9C786" stop-opacity="0"/></linearGradient><linearGradient id="paint39_linear_689_15940" x1="69.276" y1="9.862" x2="74.948" y2="9.862" gradientUnits="userSpaceOnUse"><stop stop-color="#E4BC6C"/><stop offset="1" stop-color="#E9C786" stop-opacity="0"/></linearGradient><linearGradient id="paint40_linear_689_15940" x1="67.097" y1="122.432" x2="72.617" y2="122.432" gradientUnits="userSpaceOnUse"><stop stop-color="#E4BC6C"/><stop offset="1" stop-color="#E9C786" stop-opacity="0"/></linearGradient><linearGradient id="paint41_linear_689_15940" x1="60.844" y1="10.894" x2="66.142" y2="10.894" gradientUnits="userSpaceOnUse"><stop stop-color="#E4BC6C"/><stop offset="1" stop-color="#E9C786" stop-opacity="0"/></linearGradient><linearGradient id="paint42_linear_689_15940" x1="59.873" y1="117.8" x2="65.82" y2="117.8" gradientUnits="userSpaceOnUse"><stop stop-color="#E4BC6C"/><stop offset="1" stop-color="#E9C786" stop-opacity="0"/></linearGradient><linearGradient id="paint43_linear_689_15940" x1="53.659" y1="112.831" x2="59.4" y2="112.831" gradientUnits="userSpaceOnUse"><stop stop-color="#E4BC6C"/><stop offset="1" stop-color="#E9C786" stop-opacity="0"/></linearGradient><linearGradient id="paint44_linear_689_15940" x1="48.705" y1="13.463" x2="57.886" y2="13.463" gradientUnits="userSpaceOnUse"><stop stop-color="#E4BC6C"/><stop offset="1" stop-color="#E9C786" stop-opacity="0"/></linearGradient><linearGradient id="paint45_linear_689_15940" x1="48.2" y1="107.839" x2="52.664" y2="107.839" gradientUnits="userSpaceOnUse"><stop stop-color="#E4BC6C"/><stop offset="1" stop-color="#E9C786" stop-opacity="0"/></linearGradient><linearGradient id="paint46_linear_689_15940" x1="42.092" y1="102.718" x2="47.581" y2="102.718" gradientUnits="userSpaceOnUse"><stop stop-color="#E4BC6C"/><stop offset="1" stop-color="#E9C786" stop-opacity="0"/></linearGradient><linearGradient id="paint47_linear_689_15940" x1="41.259" y1="17.399" x2="46.549" y2="17.399" gradientUnits="userSpaceOnUse"><stop stop-color="#E4BC6C"/><stop offset="1" stop-color="#E9C786" stop-opacity="0"/></linearGradient><linearGradient id="paint48_linear_689_15940" x1="38.285" y1="97.038" x2="41.87" y2="97.038" gradientUnits="userSpaceOnUse"><stop stop-color="#E4BC6C"/><stop offset="1" stop-color="#E9C786" stop-opacity="0"/></linearGradient><linearGradient id="paint49_linear_689_15940" x1="34.226" y1="21.864" x2="40.135" y2="21.864" gradientUnits="userSpaceOnUse"><stop stop-color="#E4BC6C"/><stop offset="1" stop-color="#E9C786" stop-opacity="0"/></linearGradient><linearGradient id="paint50_linear_689_15940" x1="32.101" y1="90.793" x2="37.979" y2="90.793" gradientUnits="userSpaceOnUse"><stop stop-color="#E4BC6C"/><stop offset="1" stop-color="#E9C786" stop-opacity="0"/></linearGradient><linearGradient id="paint51_linear_689_15940" x1="28.233" y1="27.092" x2="34.906" y2="27.092" gradientUnits="userSpaceOnUse"><stop stop-color="#E4BC6C"/><stop offset="1" stop-color="#E9C786" stop-opacity="0"/></linearGradient><linearGradient id="paint52_linear_689_15940" x1="28.608" y1="84.341" x2="33.042" y2="84.341" gradientUnits="userSpaceOnUse"><stop stop-color="#E4BC6C"/><stop offset="1" stop-color="#E9C786" stop-opacity="0"/></linearGradient><linearGradient id="paint53_linear_689_15940" x1="23.976" y1="34.484" x2="29.441" y2="34.484" gradientUnits="userSpaceOnUse"><stop stop-color="#E4BC6C"/><stop offset="1" stop-color="#E9C786" stop-opacity="0"/></linearGradient><linearGradient id="paint54_linear_689_15940" x1="25.413" y1="78.21" x2="30.114" y2="78.21" gradientUnits="userSpaceOnUse"><stop stop-color="#E4BC6C"/><stop offset="1" stop-color="#E9C786" stop-opacity="0"/></linearGradient><linearGradient id="paint55_linear_689_15940" x1="21.904" y1="69.809" x2="27.293" y2="69.809" gradientUnits="userSpaceOnUse"><stop stop-color="#E4BC6C"/><stop offset="1" stop-color="#E9C786" stop-opacity="0"/></linearGradient><linearGradient id="paint56_linear_689_15940" x1="21.124" y1="42.603" x2="26.001" y2="42.603" gradientUnits="userSpaceOnUse"><stop stop-color="#E4BC6C"/><stop offset="1" stop-color="#E9C786" stop-opacity="0"/></linearGradient><linearGradient id="paint57_linear_689_15940" x1="20.352" y1="61.346" x2="25.03" y2="61.346" gradientUnits="userSpaceOnUse"><stop stop-color="#E4BC6C"/><stop offset="1" stop-color="#E9C786" stop-opacity="0"/></linearGradient><linearGradient id="paint58_linear_689_15940" x1="20.076" y1="51.837" x2="24.258" y2="51.837" gradientUnits="userSpaceOnUse"><stop stop-color="#E4BC6C"/><stop offset="1" stop-color="#E9C786" stop-opacity="0"/></linearGradient></defs></svg>