<svg width="317" height="393" fill="none" xmlns="http://www.w3.org/2000/svg"><path d="M75.621 60.12c.24.174.17.472.091.705-.743 2.29-1.178 4.523-3.638 6.067-3.732 2.332-6.515 5.89-9.668 8.955-5.317 5.199-10.69 10.322-16.036 15.476-.183.175-.386.33-.553.473-.725.262-.689-.243-.626-.675a5.29 5.29 0 011.308-2.575 206.853 206.853 0 0112.624-14.189 148.248 148.248 0 0113.186-12.18c.853-.662 1.715-1.301 2.576-1.94.244-.157.5-.277.736-.116zm-4.17 15.858c1.015-.366 1 .308.983.942-.086 2.407-.213 4.815-.282 7.23-.03 1.28.01 2.563.027 3.854a1.681 1.681 0 01-.856 1.675c-3.575 1.934-6.253 4.99-9.288 7.549-6.53 5.623-13.026 11.302-19.217 17.294-.555.542-1.16 1.552-1.987 1.114-.827-.438-.326-1.507-.28-2.288.255-3.74.735-7.46 1.435-11.142a6.24 6.24 0 012.491-4.027c6.374-5.035 12.615-10.17 18.88-15.316 2.535-2.09 4.979-4.284 7.468-6.426.2-.168.4-.295.626-.459zm.883 20.846c.758-.588 1.374-.77 1.63.503.41 3.252.817 6.532 1.225 9.853-.005.41.046.819.152 1.215 1.087 2.516-.21 3.913-2.174 5.319-7.75 5.532-15.39 11.256-23.048 16.931-2.481 1.825-4.87 3.754-7.289 5.638-1.176.903-1.647.732-1.836-.811a116.372 116.372 0 01-.75-12.578 2.772 2.772 0 011.362-2.431c5.742-3.796 10.897-8.349 16.38-12.487 4.856-3.639 9.58-7.422 14.348-11.152zm2.971 22.016c1.27-.909 1.696-.749 2.242.951.936 4.782 2.322 9.675 3.639 14.566.26.984-.265 1.461-.995 1.82-4.233 2.417-8.314 5.066-12.476 7.608-7.006 4.266-13.767 8.907-20.642 13.385-1.986 1.305-2.285 1.236-2.744-1.056-.782-4.279-1.725-8.553-2.348-12.807a2.322 2.322 0 011.18-2.556c8-5.267 15.98-10.567 23.939-15.901 2.795-1.939 5.452-4.032 8.205-6.01zm5.936 21.3c1.09-.763 1.63-.479 2.028.701l1.934 5.35-.314.114 1.938 5.362a2.107 2.107 0 01-.71 2.687 1990.863 1990.863 0 01-32.403 27.467c-1.202.98-1.583.872-2.166-.665-1.715-4.747-3.067-9.584-4.483-14.411a2.361 2.361 0 011.117-2.766c3.44-2.608 6.857-5.208 10.343-7.765 4.684-3.4 9.414-6.747 14.108-10.082 2.87-2.034 5.758-3.979 8.608-5.992zm15.089 34.611c.48.987.244 1.659-.648 2.364-10.092 7.893-20.642 15.201-30.428 23.489l-2.957 2.434c-1.182.96-1.644.854-2.272-.544-1.042-2.354-2.086-4.79-3.13-7.185l-.205.074-2.295-6.353c-.764-2.113-.644-2.498 1.192-3.653 5.421-3.324 10.538-7.112 15.597-10.948 5.885-4.461 11.793-8.931 17.41-13.678.911-.766 1.503-.68 1.978.446 1.851 4.52 3.587 9.136 5.758 13.554zm9.698 19.967c.495.954-.048 1.492-.724 2.077a116.962 116.962 0 01-9.622 6.891c-8.223 5.621-16.275 11.452-24.07 17.655-1.557 1.246-1.756 1.222-2.728-.598-1.817-3.44-3.522-6.838-5.266-10.263-1.743-3.426-1.007-3.091 1.514-4.767 5.294-3.524 10.458-7.26 15.858-10.605 5.131-3.219 10.001-6.823 15.23-9.886a16.72 16.72 0 002.303-1.788c.799-.699 1.465-.707 1.961.288 1.863 3.669 3.711 7.334 5.544 10.996zm10.336 18.509c.449 1.053.218 1.546-.428 2.025-11.218 8.218-21.982 17.01-32.843 25.687-1.557 1.245-1.951 1.251-2.968-.43-2.403-4.006-4.739-8.051-7.09-12.062a1.784 1.784 0 01.59-2.753c3.308-2.179 6.665-4.416 10.019-6.583 7.464-4.814 14.94-9.591 22.392-14.401a24.075 24.075 0 002.081-1.571c1.497-1.223 1.766-1.198 2.768.516 1.188 2.042 2.316 4.106 3.493 6.152.673 1.259 1.431 2.487 1.986 3.42zm9.944 15.768c.569 1.16.026 1.848-.707 2.427l-11.692 9.209c-6.865 5.375-13.542 10.97-20.541 16.162-1.544 1.131-1.686 1.114-2.77-.447-2.141-3.131-4.24-6.292-6.377-9.411-.628-.907-.554-1.534.421-2.16l29.742-19.718a28.962 28.962 0 004.955-4.126c.538-.549 1.059-.847 1.647-.089 1.821 2.81 3.62 5.56 5.322 8.153zm12.123 17.221c.594.851.258 1.546-.487 2.129-2.547 1.985-5.013 4.078-7.66 5.936-7.883 5.579-15.423 11.581-23.118 17.379-.857.651-1.739 1.271-2.329 1.716-1.016.476-1.508.135-1.903-.391-2.657-3.574-5.406-7.1-8.132-10.716-.811-1.073-.119-1.65.654-2.271 2.281-1.848 4.926-3.145 7.321-4.83 6.616-4.59 13.3-9.067 19.937-13.636 2.392-1.657 5.04-2.982 6.923-5.328.618-.784 1.28-.463 1.765.236a2116.95 2116.95 0 017.029 9.776zm11.253 14.327c.691.856.567 1.57-.364 2.166a228.381 228.381 0 00-19.401 13.838c-4.259 3.328-8.462 6.813-12.66 10.31-1.166.967-1.921.994-2.906-.22-2.049-2.496-4.213-4.895-6.326-7.341-.234-.27-.436-.566-.612-.789-.384-1.063.3-1.474.926-1.932 2.708-1.839 5.498-3.68 8.162-5.489 4.618-3.13 9.256-6.24 13.856-9.418 3.882-2.672 7.937-5.093 11.586-8.105a1.289 1.289 0 011.171-.512 1.291 1.291 0 011.033.753c1.823 2.25 3.699 4.494 5.535 6.739zm11.898 13.656c1.191 1.331 1.136 1.747-.361 2.78-6.176 4.334-11.844 9.318-17.693 14.067-3.87 3.119-7.702 6.306-11.6 9.463-.606.478-1.245.9-1.629 1.162a1.424 1.424 0 01-1.806-.276l-9.194-9.308c-.771-.773-.637-1.422.225-2.021 7.274-4.963 14.352-10.238 21.815-14.942 3.427-2.153 6.698-4.551 10.033-6.848a2.6 2.6 0 00.576-.522c1.826-2.504 2.131-1.658 3.788.092 2.054 2.057 3.916 4.224 5.846 6.353z" fill="#000"/><path d="M279.424 218.849a206.59 206.59 0 018.583 29.382c2.882 13.72 4.5 27.568 2.998 41.588-1.036 9.413-3.518 18.339-9.143 26.162a32.678 32.678 0 01-9.395 8.993c-4.077 2.47-7.45 5.833-11.132 8.72a141.76 141.76 0 01-24.409 15.129 71.35 71.35 0 01-15.154 5.298 3.433 3.433 0 01-2.852-.335 4.647 4.647 0 00-2.236-.407c-9.507-.879-18.976-1.841-28.213-4.579-14.668-4.354-27.954-11.459-40.529-19.997a245.7 245.7 0 01-39.081-33.518 305.756 305.756 0 01-25.077-29.759c-4.816-6.452-9.365-13.22-13.692-20.094a296.068 296.068 0 01-15.527-27.625 264.716 264.716 0 01-17.612-44.622 220.323 220.323 0 01-5.332-22.652c-3.025-17.668-3.788-35.307.868-52.843.824-3.124 1.851-6.212 2.913-9.245a16.398 16.398 0 013.453-4.689A189.586 189.586 0 0157.322 65.71c5.693-5.103 11.3-10.296 17.294-15.057a102.74 102.74 0 0114.67-10.149 11.07 11.07 0 016.135-1.916c.362-.004.72-.082 1.05-.23 8.506-3.141 17.132-2.735 25.779-.685 11.778 2.817 22.363 8.305 32.494 14.803 13.81 8.855 26.17 19.518 37.755 31.021 7.392 7.27 14.348 14.956 21.041 22.86 5.873 6.958 11.432 14.18 16.812 21.548a411.432 411.432 0 0117.721 26.368 348.369 348.369 0 0131.351 64.577zm.553 36.408c-2.436-12.297-6.047-24.291-11.777-40.149a337.334 337.334 0 00-14.828-33.175 390.242 390.242 0 00-21.85-37.793c-4.848-7.37-9.887-14.588-15.173-21.622a328.07 328.07 0 00-17.113-20.906 277.028 277.028 0 00-23.953-24.116c-10.995-9.681-22.628-18.559-35.759-25.31-8.653-4.411-17.617-7.904-27.433-8.617a30.692 30.692 0 00-16.485 2.898c-6.241 3.17-10.012 8.493-12.535 14.812a65.662 65.662 0 00-3.989 19.192c-.389 4.893.422 9.857-.875 14.695a5.649 5.649 0 00.094 2.3c.337 1.763.503 3.547.746 5.316a157.8 157.8 0 004.597 21.183 285.11 285.11 0 0016.993 44.873 396.5 396.5 0 0028.157 49.428 416.866 416.866 0 0016.547 23.118c4.695 6.155 9.641 12.096 14.666 17.914a290.292 290.292 0 0033.755 33.217c11.161 9.198 22.966 17.454 36.321 23.238 7.991 3.448 16.229 5.878 25.043 5.67 9.26-.22 16.693-3.834 21.492-12.054a45.293 45.293 0 005.51-17.667c1.576-12.189.199-24.35-2.151-36.445zm-23.197 75.618c-.087-.543-.621-.472-1.006-.442a54.605 54.605 0 01-11.972-.672 1.529 1.529 0 00-1.721.718c-1.757 2.997-4.575 4.834-7.416 6.571a114.507 114.507 0 01-19.948 9.94c-.532.192-1.456.28-1.332 1 .123.72.972.386 1.513.409 5.229.377 10.39.26 13.723-1.928 5.053-2.304 8.77-3.92 12.422-5.677a101.451 101.451 0 0014.956-8.831c.325-.309.839-.55.778-1.06l.003-.028zm-21.789-2.9c-.032-.617-.738-.607-1.186-.787-2.449-.958-4.92-1.827-7.301-2.823a2.029 2.029 0 00-2.894.758 13.305 13.305 0 01-1.953 2.154c-7.145 6.678-15.513 11.218-24.242 15.287-.84.399-2.25.54-2.172 1.549.078 1.01 1.442.967 2.265 1.203 2.52.7 5.018 2.023 7.87.733l.894-.323a142.22 142.22 0 0019.122-10.528c2.978-1.923 5.834-4.034 8.728-6.076.317-.292.887-.607.857-1.143l.012-.004zm-16.908-5.866c.953-.726.98-1.296-.169-1.905a105.328 105.328 0 01-5.76-3.243 1.786 1.786 0 00-2.131-.115 1.762 1.762 0 00-.527.543 24.348 24.348 0 01-2.342 2.211c-5.238 4.624-11.275 8.171-17.111 11.973-3.05 1.99-6.235 3.755-9.344 5.657-1.204.749-1.175 1.093.104 1.724l4.933 2.314c.719.397 1.55.543 2.362.416 2.328-1.115 4.385-1.885 6.253-3.025a216.437 216.437 0 0018.132-12.437l5.6-4.113zm-13.814-7.734c1.173-.874 1.243-1.473.131-2.245-3.373-2.345-6.703-4.72-9.951-7.246a1.279 1.279 0 00-1.501-.247 1.284 1.284 0 00-.418.339c-1.016.968-2.104 1.962-3.215 2.855-8.466 6.801-16.706 13.738-25.595 19.859-.911.616-1.141 1.15-.061 1.797 3.093 1.832 6.166 3.684 9.254 5.504a1.984 1.984 0 002.119.122l.585-.348c2.903-1.827 5.688-3.831 8.499-5.802 6.778-4.784 13.43-9.728 20.153-14.588zm-15.418-11.456c.774-.579 1.463-1.279.354-2.231l-8.948-7.758a1.456 1.456 0 00-1.16-.501 1.45 1.45 0 00-1.112.598 27.916 27.916 0 01-3.98 3.61l-24.303 16.783a25.945 25.945 0 00-2.998 2.135c-.726.672-.822 1.239.035 1.872 3.042 2.26 6.081 4.548 9.104 6.828a1.85 1.85 0 001.966.15c.253-.092.688-.399 1.12-.678a565.238 565.238 0 0023.748-16.242c2.037-1.541 4.112-3.056 6.156-4.614l.018.048zm-15.102-13.263c1.47-1.146 1.455-1.413.105-2.769-1.666-1.664-3.365-3.304-5.032-5.009-1.505-1.518-1.733-1.545-3.451-.255-4.674 3.505-9.313 7.066-14.05 10.471a207.279 207.279 0 01-17.369 11.902c-1.129.654-1.167 1.418-.186 2.28 2.475 2.164 4.926 4.337 7.381 6.522a1.489 1.489 0 001.964.219c.399-.295 1.099-.739 1.715-1.262 7.462-6.178 15.004-12.249 22.974-17.778a163.962 163.962 0 005.931-4.369l.018.048zm-12.463-12.647c1.45-1.015 1.504-1.431.362-2.779-1.93-2.129-3.792-4.297-5.75-6.388-1.644-1.755-1.938-2.605-3.788-.093a2.559 2.559 0 01-.576.523c-3.274 2.275-6.606 4.694-10.033 6.848-7.463 4.704-14.541 9.979-21.814 14.942-.863.598-.997 1.248-.226 2.02l9.194 9.309a1.424 1.424 0 001.807.275c.383-.261 1.022-.683 1.628-1.162 3.85-3.139 7.682-6.326 11.601-9.462 5.734-4.762 11.402-9.746 17.578-14.081l.017.048zm-11.974-14.243c.956-.605 1.056-1.31.364-2.166-1.839-2.257-3.711-4.489-5.511-6.788a1.288 1.288 0 00-1.033-.753 1.282 1.282 0 00-1.171.511c-3.65 3.012-7.704 5.433-11.586 8.106-4.629 3.134-9.219 6.267-13.867 9.312-2.724 1.831-5.502 3.668-8.162 5.489-.635.434-1.334.878-.926 1.933.176.223.378.518.613.789 2.112 2.445 4.276 4.844 6.325 7.34.985 1.215 1.788 1.17 2.906.22 4.198-3.497 8.341-6.96 12.66-10.31a228.221 228.221 0 0119.395-13.74l-.007.057zM75.704 60.882c.092-.238.15-.532-.09-.704-.24-.173-.493-.04-.708.119-.862.639-1.723 1.278-2.576 1.941a148.277 148.277 0 00-13.186 12.18A191.201 191.201 0 0046.52 88.605a5.29 5.29 0 00-1.309 2.575c-.062.433-.115.889.627.675.167-.142.37-.297.553-.473 5.346-5.154 10.718-10.277 16.036-15.476 3.148-3.076 5.931-6.635 9.667-8.955 2.438-1.605 2.874-3.837 3.617-6.127l-.007.057zm62.232 187.52c.745-.583 1.081-1.278.487-2.128a1307.386 1307.386 0 00-7.019-9.753c-.476-.675-1.147-1.019-1.765-.236-1.883 2.346-4.531 3.672-6.923 5.328-6.637 4.57-13.321 9.047-19.938 13.636-2.404 1.661-5.04 2.982-7.321 4.83-.772.621-1.456 1.223-.654 2.271 2.657 3.574 5.394 7.104 8.132 10.716.395.526.887.868 1.903.391.59-.445 1.473-1.064 2.33-1.715 7.695-5.799 15.226-11.825 23.118-17.38 2.645-1.939 5.111-4.032 7.657-6.017l-.007.057zM72.426 76.977c.017-.634.01-1.369-.982-.942-.215.16-.427.291-.626.459-2.49 2.142-4.933 4.336-7.468 6.426-6.326 5.167-12.514 10.298-18.88 15.316a6.24 6.24 0 00-2.491 4.027 93.868 93.868 0 00-1.436 11.142c-.045.781-.497 1.873.28 2.288.78.415 1.45-.524 1.988-1.114 6.191-5.992 12.687-11.671 19.216-17.294 3.023-2.594 5.713-5.615 9.289-7.549a1.682 1.682 0 00.856-1.675c-.029-1.287-.069-2.57-.028-3.854.076-2.472.25-4.828.29-7.287l-.007.057zm53.168 154.502c.733-.579 1.298-1.207.707-2.427-1.702-2.593-3.514-5.38-5.382-8.132-.528-.779-1.109-.459-1.647.09a28.956 28.956 0 01-4.955 4.125l-29.742 19.719c-.951.617-1.049 1.253-.42 2.16 2.137 3.119 4.235 6.279 6.376 9.411 1.084 1.561 1.226 1.578 2.77.446 6.978-5.252 13.676-10.786 20.541-16.161l11.752-9.231zm-9.666-16.17c.646-.479.877-.972.429-2.025-.449-1.053-1.314-2.161-2.01-3.37-1.177-2.047-2.305-4.111-3.493-6.153-1.002-1.713-1.27-1.739-2.767-.515-.665.56-1.36 1.085-2.081 1.571-7.452 4.809-14.929 9.586-22.393 14.4-3.318 2.155-6.674 4.392-10.02 6.584a1.785 1.785 0 00-.588 2.752c2.387 3.999 4.722 8.043 7.09 12.063 1.016 1.68 1.41 1.674 2.967.429 10.89-8.783 21.655-17.575 32.86-25.829l.006.093zM73.957 97.384c-.256-1.273-.86-1.055-1.63-.503-4.769 3.73-9.488 7.525-14.325 11.143-5.482 4.139-10.637 8.691-16.38 12.487a2.772 2.772 0 00-1.36 2.431c.022 4.203.272 8.402.75 12.578.188 1.543.623 1.727 1.835.811 2.419-1.884 4.808-3.813 7.289-5.638 7.657-5.675 15.315-11.351 23.048-16.931 1.94-1.397 3.237-2.794 2.174-5.319a4.457 4.457 0 01-.152-1.215c-.421-3.357-.832-6.649-1.243-9.9l-.006.056zm31.312 99.424c.676-.585 1.219-1.123.724-2.077a7603.223 7603.223 0 00-5.544-10.996c-.496-.995-1.149-.95-1.961-.288a16.72 16.72 0 01-2.303 1.788c-5.229 3.064-10.081 6.715-15.23 9.886-5.41 3.32-10.564 7.081-15.858 10.605-2.521 1.676-3.176 1.148-1.514 4.767 1.663 3.618 3.467 6.872 5.266 10.263.972 1.82 1.171 1.844 2.728.598 7.795-6.203 15.847-12.034 24.07-17.655a116.945 116.945 0 009.622-6.891zm-27.758-77.004c-.606-1.678-.972-1.86-2.242-.951-2.753 1.978-5.362 4.054-8.223 5.962a2369.312 2369.312 0 01-23.939 15.901 2.329 2.329 0 00-1.179 2.556c.58 4.324 1.584 8.577 2.347 12.807.412 2.309.758 2.361 2.745 1.056 6.875-4.478 13.636-9.119 20.642-13.385 4.161-2.542 8.242-5.191 12.476-7.608.713-.408 1.254-.836.994-1.82-1.263-4.856-2.648-9.749-3.567-14.482l-.054-.036zm18.134 57.324c.892-.705 1.127-1.377.648-2.364-2.17-4.419-3.907-9.034-5.772-13.59-.414-1.148-1.066-1.213-1.977-.446-5.637 4.767-11.525 9.217-17.41 13.678-5.059 3.835-10.193 7.575-15.597 10.948-1.84 1.143-1.956 1.54-1.192 3.653l2.295 6.353.278-.101c1.03 2.359 2.074 4.795 3.129 7.185.641 1.435 1.103 1.541 2.272.545l2.958-2.434c9.762-8.239 20.312-15.547 30.404-23.44l-.036.013zm-12.412-36.274c-.436-1.208-.962-1.455-2.028-.701-2.85 2.013-5.739 3.958-8.584 5.983-4.73 3.348-9.46 6.696-14.108 10.082-3.49 2.545-6.88 5.217-10.343 7.766a2.36 2.36 0 00-1.117 2.766c1.416 4.827 2.72 9.681 4.483 14.41.559 1.546.964 1.645 2.166.665a1679.238 1679.238 0 0032.404-27.467 2.109 2.109 0 00.709-2.687l-1.938-5.362.314-.114c-.646-1.787-1.324-3.549-1.921-5.354l-.037.013z" fill="url(#paint0_linear_689_15870)"/><path d="M268.175 215.117c5.731 15.858 9.365 27.844 11.777 40.149 2.399 12.078 3.727 24.256 2.211 36.574a45.286 45.286 0 01-5.509 17.666c-4.799 8.22-12.232 11.835-21.493 12.054-8.813.208-17.052-2.222-25.043-5.67-13.355-5.784-25.159-14.039-36.321-23.237a290.458 290.458 0 01-33.755-33.218c-5.093-5.82-10.039-11.761-14.666-17.913a451.62 451.62 0 01-16.547-23.119 396.648 396.648 0 01-28.165-49.452 285.044 285.044 0 01-16.994-44.873 157.771 157.771 0 01-4.591-21.171c-.244-1.769-.41-3.552-.747-5.315a5.65 5.65 0 01-.094-2.3c1.297-4.839.486-9.803.876-14.695a65.659 65.659 0 013.988-19.193c2.505-6.367 6.294-11.641 12.535-14.811a30.692 30.692 0 0116.485-2.899c9.816.713 18.78 4.206 27.433 8.616 13.114 6.704 24.734 15.545 35.759 25.311a277.093 277.093 0 0123.953 24.116 345.259 345.259 0 0117.113 20.907 431.699 431.699 0 0115.173 21.621 390.362 390.362 0 0121.85 37.793 337.491 337.491 0 0114.772 33.059zm-3.525 12.197c-.577-1.594-.957-1.702-2.483-.823l-.8.467c-4.112 2.264-4.112 2.264-2.724 6.746l.471 1.305.472 1.304c.567 1.57.985 1.706 2.248.553a21.47 21.47 0 013.563-2.912 1.658 1.658 0 00.796-2.104c-.547-1.55-1.015-3.074-1.556-4.572l.013.036zm-4.394-7.888a1.724 1.724 0 00.566-2.212c-1.012-2.461-2.012-4.926-3.028-7.399-.363-1.002-1.034-1.197-1.901-.46a23.138 23.138 0 01-3.718 2.709 1.499 1.499 0 00-.756.907 1.489 1.489 0 00.142 1.172l1.357 3.756.205-.074 1.567 4.336c.284.785.835 1.064 1.544.493 1.349-1.102 2.643-2.17 4.009-3.264l.013.036zm9.066 22.558c-.679-2.144-.863-2.2-2.498-1.132-1.207.778-2.435 1.536-3.651 2.289a1.912 1.912 0 00-.965 2.356c.694 2.412 1.38 4.84 1.872 7.298.193 1.023.79 1.203 1.682.648 1.44-.889 2.906-1.746 4.384-2.567a1.64 1.64 0 00.899-2.045c-.617-2.426-1.245-4.807-1.736-6.883l.013.036zm-15.943-38.302a1.784 1.784 0 00.488-2.429 637.6 637.6 0 01-2.347-4.832c-1.281-2.637-1.281-2.637-3.523-.68-3.368 2.924-3.368 2.924-1.533 7.094.509 1.182 1.06 2.444 1.57 3.666.414.956.999 1.1 1.765.386 1.207-1.118 2.345-2.24 3.567-3.241l.013.036zm19.701 55.692c-.163-1.02-.779-1.289-1.644-.771a21.06 21.06 0 01-4.147 1.976 1.85 1.85 0 00-1.134.844 1.844 1.844 0 00-.199 1.399c.193 1.364.373 2.733.525 4.098.22 1.819.529 1.994 2.257 1.219l1.662-.764 2.162-.782a1.522 1.522 0 001.031-.635 1.519 1.519 0 00.236-1.188c-.237-1.826-.473-3.652-.77-5.456l.021.06zm-27.582-72.248a1.345 1.345 0 00.586-.87 1.371 1.371 0 00-.207-1.028c-1.138-2.169-2.282-4.35-3.445-6.511-.498-.926-1.046-.892-1.775-.15a26.181 26.181 0 01-3.018 2.606c-.973.707-1.19 1.468-.669 2.304l3.112 6.044c.479.946 1.133 1.092 1.969.422l3.447-2.817zm-7.602-14.198a1.578 1.578 0 00.172-1.905c-.044-.121-.226-.437-.397-.758-.836-1.596-1.195-1.644-2.422-.354-.566.587-1.111 1.194-1.71 1.765-2.023 1.96-2.077 2.717-.284 4.882.557.673 1.01.755 1.593.025.962-1.303 1.988-2.507 3.026-3.715l.022.06zm36.521 101.065c-.027-1.055-.533-1.173-1.415-.854l-2.611 1.162c-.864.217-1.506.367-2.147.557a1.454 1.454 0 00-1.13 1.296c-.691 4.51-.105 5.377 4.392 6.373.254.059.498.094.756.164 1.194.32 1.757-.238 1.855-1.366.248-2.457.345-4.928.29-7.397l.01.065zm-43.143-111.835a1.673 1.673 0 00.334-1.909c-.324-.443-.615-1.362-1.435-.683a16.691 16.691 0 00-3.614 4.132 1.787 1.787 0 00.821 2.271c.802.556 1.111-.402 1.501-.871.771-1.002 1.55-2.021 2.371-3l.022.06zm-4.435-7.095a1.603 1.603 0 00.333-2.101c-.82-1.287-1.677-2.561-2.473-3.858-.579-.924-1.125-.959-1.728-.058a119.535 119.535 0 00-2.569 3.81 1.642 1.642 0 00-.192 1.735 15.046 15.046 0 001.846 2.992c.085.16.21.295.362.393a1.081 1.081 0 001.449-.255l2.972-2.658zm-6.977-11.448a.896.896 0 00.221-1.24c-.976-1.491-1.932-3.003-2.98-4.467-.316-.459-.879-.734-1.284-.191a29.01 29.01 0 00-3.062 4.752c-.178.378-.025.801.226 1.42.62.882 1.338 2.002 2.133 3.066.365.483.896.441 1.364-.001a213.453 213.453 0 003.382-3.339zm52.206 147.722c.252-.815-.014-1.361-.899-1.355a8.539 8.539 0 01-3.929-1.311c-.877-.502-1.474-.301-1.763.637a24.517 24.517 0 01-2.71 5.99 1.503 1.503 0 00-.04 1.626c.77.923 1.802 2.08 2.738 3.271.702.921 1.366.872 1.966 0a27.725 27.725 0 004.65-8.822l-.013-.036zM213.12 133.762a.862.862 0 00.316-.597.866.866 0 00-.205-.644c-1.258-1.744-2.4-3.543-3.81-5.178-.652-.747-1.127-.739-1.651.078a99.188 99.188 0 01-2.328 3.572 1.629 1.629 0 00-.033 1.91 38.484 38.484 0 002.744 3.815.96.96 0 001.077.377.976.976 0 00.353-.197 28.973 28.973 0 003.528-3.16l.009.024zm-8.362-9.84a1.595 1.595 0 00.662-1.946 3.288 3.288 0 00-.136-.375c-1.502-1.928-2.997-3.873-4.519-5.781-.613-.789-1.195-.36-1.611.227-.848 1.207-1.637 2.462-2.454 3.713a1.525 1.525 0 00.245 2.001c.902 1.176 1.773 2.377 2.648 3.549 1.372 1.757 1.758 1.768 3.349.237.529-.614 1.199-1.102 1.807-1.65l.009.025zm-8.747-12.87a1.095 1.095 0 00-.292-1.26 622.679 622.679 0 01-3.964-4.699c-.608-.736-1.141-.775-1.706.043-.798 1.19-1.635 2.352-2.434 3.542a1.378 1.378 0 00.075 1.831c1.175 1.363 2.355 2.739 3.458 4.13a.886.886 0 001.231.306c1.035-1.33 2.627-2.328 3.635-3.922l-.003.029zm21.628 62.424c-.235-.653-.436-1.208-.7-1.673a2.142 2.142 0 00-1.875-1.411 1.873 1.873 0 00-1.779 1.462 17.175 17.175 0 00-1.024 3.101c-1.147 5.78-2.604 11.496-2.915 17.439a54.657 54.657 0 01-2.747 15.07 34.367 34.367 0 00-1.647 6.399c-.156 1.08-.641 1.364-1.662 1.146-2.817-.579-5.63-1.147-8.377-1.984-9.48-2.883-18.001-7.682-26.352-12.844a136.805 136.805 0 00-14.118-7.856c-.62-.281-1.378-.868-1.901-.01-.523.859.292 1.261.836 1.747 1.03.924 2.037 1.858 3.104 2.77 13.196 11.617 26.175 23.312 39.565 34.709 7.691 6.547 15.098 13.442 23.247 19.441a139.714 139.714 0 0114.166 11.089c1.136 1.105 2.586 2.548 4.3 1.396 1.714-1.152 1.108-3.132.566-4.67a39.765 39.765 0 01-1.781-9.652 132.712 132.712 0 00-3.675-20.902c-3.461-13.769-7.056-27.422-11.613-40.864-1.586-4.615-2.459-9.338-3.614-13.932l-.004.029zm-31.641-72.939a1.279 1.279 0 00.149-1.665 56.871 56.871 0 00-5.19-5.634c-.49-.451-.975-.016-1.268.458-.813 1.113-1.601 2.258-2.393 3.39a1.387 1.387 0 00.223 1.941c1.27 1.398 2.544 2.808 3.826 4.202a1.286 1.286 0 001.989.101c.906-.969 1.793-1.877 2.668-2.821l-.004.028zm22.75 63.562a6.278 6.278 0 00-1.819-7.112c-3.909-3.79-7.751-7.659-11.964-11.079-12.784-10.401-24.814-21.661-37.984-31.581-8.21-6.209-15.422-13.543-22.577-20.912-2.939-3.034-6.56-5.194-9.834-7.793a1.402 1.402 0 00-1.854-.067c-.574.453-.502 1.068-.344 1.694.236.993.549 1.973.713 2.992a115.903 115.903 0 003.671 15.865c3.166 10.462 6.368 20.911 8.687 31.598 1.751 8.133 3.445 16.26 5.197 24.394 1.42 6.614 2.744 13.263 5.558 19.388.272 2.564 2.179 3.309 4.161 3.958a80.04 80.04 0 0111.526 4.274c6.587 3.34 13.233 6.578 19.642 10.257 6.1 3.28 12.485 6 19.076 8.127a1.467 1.467 0 001.893-.682c.112-.221.165-.467.156-.714.096-.718.047-1.383.121-2.16.816-6.658 1.698-13.326 2.441-19.999.743-6.672 1.217-13.862 3.538-20.477l-.004.029zm49.929 143.082c.632-.406.755-.86.313-1.478-.81-1.182-1.612-2.381-2.309-3.631a1.864 1.864 0 00-2.285-1.031 17.634 17.634 0 01-4.722.422c-1.24-.07-1.715.62-1.915 1.689-.216 1.444-.539 2.817-.837 4.222-.298 1.405-.1 1.838 1.48 1.868 2.647.11 5.292-.241 7.819-1.037a8.833 8.833 0 002.473-1.016l-.017-.008zm-82.543-217.88c.214-.242.161-.578-.016-.992a2.07 2.07 0 00-.283-.403 4781.675 4781.675 0 00-5.569-5.511c-.633-.618-1.113-.322-1.462.337a206.222 206.222 0 00-1.906 3.68 1.624 1.624 0 00-.193 1.114c.07.383.275.727.578.972 1.304 1.304 2.596 2.612 3.912 3.911.475.484 1.085.81 1.629.313 1.167-1.077 2.243-2.258 3.327-3.414l-.017-.008zm-10.717-9.783a.938.938 0 00.211-1.155 2.028 2.028 0 00-.232-.339 52.201 52.201 0 00-5.191-4.542c-.642-.492-1.053-.043-1.329.48a24.4 24.4 0 01-1.832 3.393 1.364 1.364 0 00-.233.484 1.363 1.363 0 00.161 1.04c.095.153.22.286.367.39 1.139 1.036 2.266 2.076 3.401 3.1a1.28 1.28 0 001.57.269c.168-.092.314-.22.426-.376.878-.931 1.794-1.836 2.693-2.748l-.012.004zm75.659 221.693a1.434 1.434 0 00-1.168-1.571c-1.681-.608-3.374-1.212-5.028-1.897a1.573 1.573 0 00-1.326-.118 1.575 1.575 0 00-.944.938 42.733 42.733 0 01-2.532 4.028c-.929 1.21-.516 1.784.695 2.302a60.26 60.26 0 007.628 2.706 8.69 8.69 0 001.167.206 1.284 1.284 0 00.911-1.257c.26-1.774.435-3.558.597-5.337zM154.713 70.565c.64-.723.546-1.208-.17-1.755-1.845-1.327-3.598-2.7-5.411-4.053a1.56 1.56 0 00-1.641-.308 127.222 127.222 0 00-2.931 3.79c-.286.418.135.866.521 1.177 1.88 1.424 3.755 2.835 5.635 4.259.849.649 1.466.467 2.025-.404a23.78 23.78 0 011.972-2.706zm-12.196-8.47c.737-.908.53-1.556-.395-2.15a323.019 323.019 0 00-4.463-2.717 1.207 1.207 0 00-1.176-.23 2.17 2.17 0 00-.313.304c-.787 1.186-1.614 2.372-2.352 3.581-.421.685.021 1.153.55 1.522 1.391.863 2.805 1.717 4.184 2.584a1.358 1.358 0 001.712.063c.165-.124.3-.285.394-.469.637-.844 1.217-1.696 1.859-2.488zm83.046 232.611a1.284 1.284 0 00-.573-1.924 133.25 133.25 0 01-3.679-2.248 1.487 1.487 0 00-1.435-.191c-1.678 1.439-3.414 2.872-5.099 4.368-.576.523-.222 1.009.339 1.353 2.035 1.285 4.077 2.554 6.1 3.844a1.283 1.283 0 001.993-.569l2.354-4.633zM130.43 55.362c.835-.902.772-1.644-.443-2.134s-2.55-1.086-3.807-1.655c-1.258-.57-1.953-.264-2.439 1.072-1.454 3.912-1.499 3.9 2.379 5.49a2.15 2.15 0 001.931.203 23.101 23.101 0 002.379-2.976zm83.142 231.743a1.291 1.291 0 00.4-1.141 1.292 1.292 0 00-.725-.968c-1.308-.974-2.601-1.982-3.913-2.969a1.507 1.507 0 00-1.686-.169 58.543 58.543 0 01-4.698 4.005c-.651.577-.049 1.11.436 1.508 1.645 1.304 3.318 2.57 4.944 3.894 1.066.872 1.847.616 2.581-.414.875-1.244 1.741-2.513 2.661-3.746zm-11.437-10.792a2.586 2.586 0 00-.303-.423l-4.07-3.705c-.64-.56-1.223-.323-1.762.187a31.631 31.631 0 01-3.792 3.336c-.731.51-.735 1.18-.061 1.797 1.6 1.443 3.205 2.938 4.784 4.32a1.094 1.094 0 00.966.391 1.105 1.105 0 00.861-.587c1.035-1.329 2.103-2.644 3.138-3.974a1.286 1.286 0 00.239-1.342zM117.393 52.195c.95-3.075.95-3.075-2.256-3.596-3.573-.593-3.755-.418-3.351 3.082l.028.304c.06.961-.055 2.04 1.332 2.25.941.24 1.906.377 2.878.407.573-.303.788-.654 1.369-2.448zm73.272 215.427a1.708 1.708 0 00.246-1.7 2.836 2.836 0 00-.275-.42c-2.185-2.269-4.375-4.549-6.669-6.779-.667-.674-1.273-.387-1.801.268a207.715 207.715 0 01-3.049 3.655 1.35 1.35 0 00.068 2.038c2.246 2.311 4.494 4.616 6.745 6.916.776.785 1.512.819 2.149-.176l2.586-3.802zM104.009 50.49c-.061-.852-.436-1.208-1.332-.966a14.594 14.594 0 00-6.238 3.483c-.305.288-.578.591-.465 1.056.268 1.118 3.203 2.666 4.253 2.245 4.17-1.684 4.17-1.684 3.823-5.478l-.041-.34zm71.956 201.43a1.766 1.766 0 00.238-1.534c-1.341-1.481-2.65-2.988-4.039-4.412-.479-.496-1.05-.071-1.517.262-1.076.798-2.225 1.664-3.388 2.412-.956.605-1.118 1.251-.377 2.13 1.519 1.786 3.055 3.58 4.554 5.386.691.816 1.293.707 1.846-.107.948-1.38 1.84-2.767 2.719-4.15l-.036.013zm-10.525-12.009a1.362 1.362 0 00.219-1.813c-1.133-1.434-2.491-3.115-3.817-4.779a.78.78 0 00-.278-.215.796.796 0 00-.686-.001.802.802 0 00-.279.214 46.125 46.125 0 01-3.881 3.014 1.03 1.03 0 00-.3 1.474 163.655 163.655 0 004.021 5.006 1.111 1.111 0 00.844.5 1.1 1.1 0 00.91-.37c1.145-.987 2.22-2.017 3.283-3.043l-.036.013zm-9.64-12.998c.25-.404.157-.889-.117-1.61-1.193-1.562-2.579-3.355-3.927-5.121-.402-.51-.968-.224-1.321.122a34.664 34.664 0 01-3.298 2.776 1.102 1.102 0 00-.221 1.732c1.461 2.039 2.853 4.117 4.35 6.143.374.506.887.867 1.461.264a26.787 26.787 0 003.109-4.319l-.036.013zM93.349 66.031c1.863-2.968 1.608-3.94-1.395-5.6-.87-.478-1.415-.362-1.877.474a28.33 28.33 0 00-2.173 5.55c-.307 1.04.219 1.287 1.113 1.155.895-.132 1.9-.373 2.737-.552a2.568 2.568 0 001.631-1.04l-.036.013zm52.653 146.576a.779.779 0 00-.109-.302 25.244 25.244 0 00-2.69-4.23c-1.392-2.228-1.612-2.271-3.775-.848l-1.922 1.254a1.284 1.284 0 00-.423 2.079c1.291 1.95 2.588 3.912 3.904 5.853.295.44.65.817 1.252.708a13.257 13.257 0 003.799-4.527l-.036.013zm-9.393-12.199a1.43 1.43 0 00.258-2.046c-1.087-1.723-2.167-3.464-3.242-5.191-.279-.432-.683-1.023-1.192-.73a12.832 12.832 0 00-3.873 3.188c-.22.298-.104.693.159 1.308 1.2 1.696 2.136 3.871 3.612 5.727.483.617.978.589 1.582.22a23.154 23.154 0 002.696-2.476zM91.717 75.646c.026-.72-.122-1.471-.955-1.47-1.378-.035-2.867-1.095-4.248.032-.18.147-.16.577-.178.87-.116 1.53-.256 3.07-.307 4.59-.135 3.216.014 3.326 3.062 2.43 1.136-.41 2.569-.45 2.514-2.151.013-1.439.07-2.866.124-4.305l-.012.004zm36.054 110.505a1.503 1.503 0 00.241-2.053c-1.296-2.263-2.544-4.434-3.778-6.678-.674-1.258-1.446-1.43-2.553-.525-.559.447-1.155.845-1.782 1.19a1.508 1.508 0 00-.86.953 1.5 1.5 0 00.189 1.27c1.585 2.8 3.158 5.604 4.756 8.4.407.712.915.72 1.408.119.842-.919 1.579-1.827 2.391-2.68l-.012.004zM91.997 88.476c-.086-.993-.546-1.51-1.606-1.345-1.06.164-1.905.32-2.877.425a1.129 1.129 0 00-1.142 1.45c.271 2.074.559 4.154.878 6.21.116.887.594 1.151 1.379.867l1.326-.41c2.498-.835 2.706-1.129 2.462-3.73-.125-1.102-.288-2.272-.347-3.453l-.073-.014zm26.073 80.958c.571-.575.938-1.185.619-2.067-.593-1.151-1.199-2.298-1.768-3.457-1.656-3.335-1.713-3.341-4.629-1.059a1.72 1.72 0 00-.846 1.129 1.702 1.702 0 00.291 1.38 28.903 28.903 0 011.638 3.286c1.552 3.726 1.779 3.713 4.721.82l-.026-.032zm-7.243-14.492a1.681 1.681 0 00.492-2.076 81.223 81.223 0 00-3.385-7.365c-.434-.785-.992-1.007-1.756-.513-.436.267-.863.558-1.313.789a1.594 1.594 0 00-.813 2.397c.482 1.068.799 2.21 1.196 3.309l.109-.04c.488 1.353 1.081 2.654 1.663 3.96.701 1.563 1.003 1.645 2.348.681a11.895 11.895 0 001.484-1.11l-.025-.032zm-18.05-53.011c-.26-.944-.55-1.823-1.872-1.4a1.685 1.685 0 00-1.237 2.359c.278 1.033.544 2.07.78 3.104.238 1.034.606 1.147 1.536.811 1.718-.839 1.882-1.444 1.055-4.109a3.219 3.219 0 00-.201-.746l-.062-.019zm3.124 11.406c-.329-1.138-.97-1.398-2.078-1.066-1.109.333-1.918.776-1.556 2.119.363 1.344.858 2.94 1.293 4.408.192.531.38 1.051.487 1.613.107.562.415 1.147.552 1.753.137.606.388 1.075 1.112.963a2.67 2.67 0 002.186-3.097c-.547-2.192-1.297-4.42-1.97-6.662l-.026-.031zm5.14 25.861a4.203 4.203 0 002.458-4.534c-.642-1.775-1.457-3.502-2.147-5.26-.371-1.026-1.029-1.375-2.04-.887-1.012.489-2.547.511-2.003 2.28.376 1.23.907 2.512 1.361 3.769l1.358 3.756c.147.52.339 1.051 1.038.908l-.025-.032z" fill="#000"/><path d="M262.155 226.455c1.526-.879 1.918-.775 2.482.823.564 1.599 1.01 3.022 1.511 4.52a1.656 1.656 0 01-.797 2.104 21.554 21.554 0 00-3.562 2.912c-1.255 1.177-1.672 1.042-2.248-.553l-.472-1.304-.471-1.304c-1.388-4.483-1.388-4.483 2.723-6.747l.834-.451z" fill="url(#paint1_linear_689_15870)"/><path d="M260.773 217.191a1.72 1.72 0 01-.566 2.212c-1.366 1.094-2.72 2.184-4.099 3.242-.713.558-1.26.292-1.544-.493l-1.567-4.336-.205.074-1.357-3.756a1.47 1.47 0 01-.192-.571 1.48 1.48 0 01.806-1.508 23.138 23.138 0 003.718-2.709c.867-.737 1.485-.537 1.9.46 1.094 2.459 2.094 4.924 3.106 7.385z" fill="url(#paint2_linear_689_15870)"/><path d="M266.813 240.816c1.635-1.069 1.819-1.012 2.498 1.132.679 2.144 1.119 4.456 1.723 6.846a1.643 1.643 0 01-.899 2.046 109.765 109.765 0 00-4.384 2.567c-.892.554-1.49.374-1.682-.649-.492-2.457-1.178-4.885-1.872-7.297a1.91 1.91 0 01.964-2.356c1.216-.754 2.445-1.511 3.652-2.289z" fill="url(#paint3_linear_689_15870)"/><path d="M253.89 201.203a1.785 1.785 0 01-.488 2.43c-1.222 1.001-2.36 2.122-3.531 3.187-.767.714-1.351.57-1.765-.386-.436-1.208-1.048-2.448-1.57-3.665-1.847-4.167-1.847-4.167 1.532-7.095 2.243-1.957 2.243-1.957 3.523.68.728 1.635 1.515 3.248 2.299 4.849z" fill="url(#paint4_linear_689_15870)"/><path d="M271.409 258.599c.871-.574 1.487-.305 1.644.772.297 1.804.534 3.63.742 5.453a1.514 1.514 0 01-.236 1.188 1.522 1.522 0 01-1.031.635l-2.162.781-1.662.765c-1.728.774-2.037.599-2.257-1.219a110.357 110.357 0 00-.525-4.098 1.84 1.84 0 01.682-1.935c.194-.145.416-.249.651-.308a21.016 21.016 0 004.154-2.034z" fill="url(#paint5_linear_689_15870)"/><path d="M245.808 185.185a1.363 1.363 0 01-.379 1.898l-3.387 2.795c-.837.671-1.486.537-1.969-.422l-3.113-6.044c-.52-.836-.304-1.597.67-2.304a26.181 26.181 0 003.018-2.606c.729-.742 1.276-.776 1.775.15a284.675 284.675 0 013.385 6.533z" fill="url(#paint6_linear_689_15870)"/><path d="M238.048 170.962a1.578 1.578 0 01-.172 1.905 119.656 119.656 0 00-3.049 3.655c-.583.73-1.035.648-1.593-.025-1.792-2.165-1.762-2.913.285-4.881.599-.572 1.144-1.179 1.71-1.766 1.227-1.29 1.586-1.242 2.422.354.134.334.329.646.397.758z" fill="url(#paint7_linear_689_15870)"/><path d="M273.02 273.146c.855-.391 1.379-.225 1.414.855a60.209 60.209 0 01-.291 7.355c-.098 1.128-.66 1.687-1.855 1.367-.257-.071-.502-.105-.755-.164-4.461-1.009-5.084-1.863-4.393-6.373a1.455 1.455 0 011.13-1.296c.628-.227 1.247-.328 2.147-.557l2.603-1.187z" fill="url(#paint8_linear_689_15870)"/><path d="M231.587 160.188a1.67 1.67 0 01-.334 1.91 315.94 315.94 0 00-2.441 2.957c-.399.445-.699 1.427-1.501.871a1.783 1.783 0 01-.821-2.271 16.671 16.671 0 013.614-4.132c.868-.696 1.159.223 1.483.665z" fill="url(#paint9_linear_689_15870)"/><path d="M227.152 152.902a1.607 1.607 0 01-.334 2.1l-2.972 2.658a1.078 1.078 0 01-1.811-.137 15.054 15.054 0 01-1.846-2.993 1.644 1.644 0 01.192-1.735c.833-1.284 1.704-2.541 2.57-3.81.607-.888 1.148-.865 1.728.059.796 1.296 1.652 2.57 2.473 3.858z" fill="url(#paint10_linear_689_15870)"/><path d="M220.083 142.375a.9.9 0 01-.221 1.24c-1.109 1.125-2.257 2.181-3.37 3.334-.444.434-.975.475-1.365.002-.798-1.077-1.512-2.185-2.132-3.067-.227-.628-.379-1.051-.226-1.42a29.052 29.052 0 013.062-4.752c.404-.542.968-.268 1.284.191 1.036 1.469 1.992 2.981 2.968 4.472z" fill="url(#paint11_linear_689_15870)"/><path d="M271.183 290.018c.898.03 1.151.54.899 1.354a27.755 27.755 0 01-4.606 8.943c-.622.812-1.265.921-1.967 0-.944-1.215-1.968-2.347-2.738-3.27a1.507 1.507 0 01.04-1.626 24.47 24.47 0 002.71-5.991c.293-.966.877-1.163 1.764-.637a8.522 8.522 0 003.898 1.227z" fill="url(#paint12_linear_689_15870)"/><path d="M213.223 132.496a.864.864 0 01.107.975.854.854 0 01-.218.267 28.873 28.873 0 01-3.52 3.184.957.957 0 01-1.137.098.96.96 0 01-.293-.278 38.413 38.413 0 01-2.744-3.815 1.628 1.628 0 01.034-1.91c.77-1.193 1.548-2.403 2.327-3.572.524-.817 1.06-.847 1.652-.078 1.392 1.586 2.534 3.386 3.792 5.129z" fill="url(#paint13_linear_689_15870)"/><path d="M205.375 121.964a1.59 1.59 0 01-.662 1.947c-.608.547-1.278 1.035-1.865 1.602-1.591 1.531-1.977 1.52-3.349-.237-.898-1.164-1.769-2.365-2.648-3.549a1.528 1.528 0 01-.268-1.951c.818-1.252 1.607-2.506 2.454-3.714.416-.587.998-1.016 1.611-.227 1.522 1.908 3.017 3.853 4.52 5.781.076.112.145.229.207.348z" fill="url(#paint14_linear_689_15870)"/><path d="M195.719 109.751a1.088 1.088 0 01.291 1.26c-.984 1.584-2.6 2.592-3.636 3.881a.896.896 0 01-.68.106.9.9 0 01-.55-.412c-1.152-1.373-2.283-2.767-3.459-4.131a1.375 1.375 0 01-.074-1.83c.799-1.19 1.635-2.352 2.434-3.542.564-.818 1.085-.775 1.705-.043 1.311 1.588 2.638 3.144 3.969 4.711z" fill="url(#paint15_linear_689_15870)"/><path d="M216.943 171.774c.248.498.44 1.029.7 1.673 1.142 4.557 2.004 9.325 3.569 13.881 4.535 13.381 8.152 27.094 11.612 40.864a132.68 132.68 0 013.675 20.901 39.813 39.813 0 001.781 9.652c.567 1.57 1.165 3.526-.566 4.67-1.73 1.144-3.141-.23-4.3-1.396a139.714 139.714 0 00-14.166-11.089c-8.149-5.999-15.58-12.885-23.247-19.441-13.349-11.398-26.386-23.141-39.565-34.709-1.043-.921-2.037-1.859-3.104-2.77-.535-.462-1.306-.894-.836-1.746.471-.853 1.269-.268 1.902.009a136.91 136.91 0 0114.118 7.856c8.355 5.174 16.871 9.962 26.352 12.844 2.746.837 5.559 1.405 8.377 1.984 1.021.218 1.505-.066 1.661-1.146a34.37 34.37 0 011.648-6.399 54.687 54.687 0 002.747-15.07c.31-5.943 1.768-11.658 2.915-17.439a17.094 17.094 0 011.023-3.101 1.871 1.871 0 011.779-1.462 2.141 2.141 0 011.925 1.434zm.279 21.856a6.431 6.431 0 00-1.086-2.475 5.547 5.547 0 00-.395 2.382 60.166 60.166 0 01-2.915 16.005 47.183 47.183 0 00-2.061 8.201 4.126 4.126 0 00.636 3.197c3.873 5.578 7.466 11.366 11.647 16.738 1.77 2.255 3.597 4.476 5.412 6.701.247.307.5.816.946.655.447-.162.285-.8.266-1.23-.019-.43-.096-.607-.136-.906-.901-5.628-2.169-11.178-3.579-16.704-2.785-10.846-5.374-21.789-8.735-32.564zm4.163 50.971a17.465 17.465 0 00-2.483-4.264c-3.756-5.935-8.043-11.527-11.631-17.563a2.47 2.47 0 00-1.869-1.168 77.798 77.798 0 01-16.779-5.735c-3.753-1.77-7.335-3.862-10.972-5.839l-.335.395 43.703 34.634.366-.46z" fill="url(#paint16_linear_689_15870)"/><path d="M186.152 98.844a1.287 1.287 0 01-.149 1.665c-.879.932-1.762 1.852-2.677 2.756a1.284 1.284 0 01-1.989-.1c-1.282-1.394-2.557-2.804-3.826-4.203a1.386 1.386 0 01-.224-1.94c.793-1.133 1.58-2.278 2.394-3.39.305-.439.79-.874 1.268-.459a57.098 57.098 0 015.203 5.67z" fill="url(#paint17_linear_689_15870)"/><path d="M206.934 156.958a6.283 6.283 0 011.819 7.112c-2.309 6.61-2.782 13.54-3.552 20.4-.771 6.86-1.625 13.341-2.441 19.999-.096.717-.047 1.382-.121 2.16a1.456 1.456 0 01-.639 1.264 1.454 1.454 0 01-1.41.132 114.594 114.594 0 01-19.076-8.127c-6.409-3.678-13.055-6.916-19.642-10.257a80.04 80.04 0 00-11.526-4.274c-1.946-.662-3.832-1.346-4.161-3.958-2.814-6.125-4.138-12.774-5.559-19.388-1.751-8.134-3.445-16.26-5.196-24.394-2.295-10.695-5.497-21.144-8.687-31.598a115.9 115.9 0 01-3.671-15.865c-.164-1.02-.477-1.999-.713-2.992-.218-.604-.243-1.278.344-1.694a1.399 1.399 0 011.854.067c3.274 2.6 6.877 4.71 9.834 7.793 7.111 7.398 14.318 14.721 22.577 20.913 13.146 9.928 25.204 21.191 37.984 31.58 4.23 3.469 8.072 7.337 11.982 11.127zm-4.997 7.636c.205-.442.251-.941.131-1.413-.361-.62-1.092-.643-1.679-.868-10.883-3.932-22.487-5.774-32.782-11.366-.783-.428-1.4-.095-1.821.59a34.864 34.864 0 00-2.498 4.425 166.786 166.786 0 01-11.092 20.203c-.669 1.02-.481 1.539.605 1.938a69.13 69.13 0 017.623 3.677 211.374 211.374 0 0021.747 10.111c4.703 1.906 9.502 3.626 13.575 6.81 1.065.831 1.268.184 1.379-.757.737-6.425 1.507-12.834 2.215-19.262a70.047 70.047 0 012.597-14.088zm-12.588-14.731a3.122 3.122 0 00-1.242-1.436c-3.873-3.161-7.725-6.261-11.514-9.494-7.607-6.577-14.565-13.853-22.91-19.604a72.75 72.75 0 01-5.943-4.884c-5.225-4.557-10.144-9.443-15.02-14.358-.304-.314-.604-.915-1.089-.672-.486.244-.213.924-.095 1.4.696 2.834 1.344 5.686 2.17 8.501a387.793 387.793 0 019.839 42.57c1.054 6.05 1.585 12.208 3.508 18.095.161.446.034 1.189.724 1.172.69-.018.568-.656.749-1.063 2.299-5.2 4.54-10.448 6.917-15.622 1.508-3.385 2.955-6.939 5.716-9.575.369-.338.329-.829.378-1.297.246-2.001 1.36-2.622 3.234-1.783 1.356.616 2.657 1.347 4.052 1.881a160.317 160.317 0 0019.595 6.273c.212.06.509.239.931-.104z" fill="url(#paint18_linear_689_15870)"/><path d="M258.989 305.662c.46.667.397 1.099-.312 1.479a8.832 8.832 0 01-2.522.993 22.837 22.837 0 01-7.819 1.036c-1.581-.029-1.787-.337-1.48-1.868.307-1.531.612-2.802.836-4.221.179-1.13.724-1.777 1.916-1.689 1.586.072 3.174-.07 4.722-.423a1.863 1.863 0 012.285 1.032c.763 1.281 1.556 2.455 2.374 3.661z" fill="url(#paint19_linear_689_15870)"/><path d="M216.149 191.191a6.444 6.444 0 011.086 2.476c3.347 10.738 5.936 21.682 8.735 32.563 1.41 5.526 2.642 11.089 3.579 16.704.1.278.12.598.136.907.016.308.358.99-.266 1.229-.623.239-.699-.348-.946-.655-1.815-2.225-3.642-4.446-5.412-6.701-4.163-5.323-7.774-11.16-11.647-16.738a4.124 4.124 0 01-.637-3.197 47.242 47.242 0 012.062-8.2 60.18 60.18 0 002.915-16.005 5.549 5.549 0 01.395-2.383z" fill="#000"/><path d="M176.135 88.317c.153.423.266.737.017.99-1.084 1.157-2.16 2.338-3.311 3.423-.544.497-1.153.17-1.628-.313-1.316-1.3-2.608-2.608-3.913-3.912a1.635 1.635 0 01-.385-2.086c.631-1.239 1.255-2.46 1.907-3.68.349-.658.829-.954 1.462-.337a1071.75 1071.75 0 015.569 5.512c.11.122.205.258.282.403z" fill="url(#paint20_linear_689_15870)"/><path d="M202.071 163.194c.12.472.074.971-.131 1.412a70.095 70.095 0 00-2.614 14.04c-.709 6.428-1.483 12.825-2.216 19.262-.11.941-.313 1.588-1.378.757-4.061-3.189-8.873-4.904-13.576-6.81a211.358 211.358 0 01-21.746-10.111 69.303 69.303 0 00-7.623-3.677c-1.091-.411-1.27-.906-.605-1.938a166.797 166.797 0 0011.133-20.204 34.735 34.735 0 012.497-4.425c.47-.703 1.002-1.005 1.821-.59 10.241 5.666 21.832 7.513 32.782 11.366.564.275 1.296.297 1.656.918z" fill="#000"/><path d="M165.64 78.36a.937.937 0 01-.211 1.154c-.899.912-1.815 1.817-2.677 2.756a1.284 1.284 0 01-1.996.107c-1.135-1.024-2.261-2.064-3.4-3.1a1.342 1.342 0 01-.528-1.43c.044-.175.123-.34.232-.484a24.4 24.4 0 001.832-3.393c.258-.571.67-1.02 1.329-.48a52.102 52.102 0 015.191 4.542c.087.101.163.21.228.327z" fill="url(#paint21_linear_689_15870)"/><path d="M255.761 330.437c.385-.03.919-.1 1.006.442.087.542-.444.775-.815 1.032a101.384 101.384 0 01-14.969 8.795c-3.652 1.757-7.369 3.373-12.422 5.677-3.309 2.179-8.493 2.305-13.723 1.928-.529-.028-1.405.193-1.513-.409-.109-.603.8-.808 1.332-1a114.552 114.552 0 0019.949-9.94c2.84-1.737 5.658-3.574 7.415-6.571a1.53 1.53 0 011.721-.718c3.966.697 7.997.953 12.019.764zm-67.714-181.988a3.12 3.12 0 011.242 1.435c-.361.322-.658.143-.945.068a160.302 160.302 0 01-19.594-6.273c-1.395-.534-2.697-1.265-4.053-1.881-1.873-.839-2.987-.218-3.233 1.783-.05.468-.009.959-.378 1.297-2.798 2.65-4.172 6.177-5.716 9.576-2.377 5.173-4.618 10.421-6.917 15.621-.181.407-.246 1.059-.75 1.063-.503.004-.574-.721-.723-1.172-1.923-5.887-2.455-12.044-3.508-18.095a387.793 387.793 0 00-9.839-42.57c-.826-2.815-1.474-5.666-2.171-8.501-.157-.434-.522-1.067.095-1.4.618-.332.785.359 1.09.672 4.875 4.915 9.795 9.801 15.019 14.358a72.948 72.948 0 005.944 4.885c8.289 5.784 15.303 13.026 22.909 19.604 3.779 3.277 7.679 6.36 11.528 9.53zm30.869 91.924a17.503 17.503 0 012.483 4.264l-.416.437-43.727-34.625.336-.395c3.636 1.977 7.219 4.069 10.972 5.84a77.9 77.9 0 0016.852 5.749 2.457 2.457 0 011.869 1.168c3.588 6.036 7.875 11.628 11.631 17.562z" fill="#000"/><path d="M239.909 299.64a1.437 1.437 0 011.168 1.571 340.73 340.73 0 01-.528 5.339 1.29 1.29 0 01-.911 1.257 8.507 8.507 0 01-1.167-.206 60.205 60.205 0 01-7.628-2.706c-1.211-.518-1.575-1.11-.695-2.302a42.52 42.52 0 002.531-4.028 1.59 1.59 0 01.945-.937 1.573 1.573 0 011.326.117c1.585.683 3.278 1.287 4.959 1.895z" fill="url(#paint22_linear_689_15870)"/><path d="M154.592 68.793c.717.546.823 1.068.17 1.754a23.81 23.81 0 00-1.975 2.735c-.559.871-1.176 1.053-2.025.404-1.88-1.424-3.755-2.835-5.635-4.259-.377-.287-.798-.735-.521-1.177.965-1.373 2.021-2.683 2.932-3.79a1.564 1.564 0 011.64.308c1.72 1.359 3.569 2.698 5.414 4.025z" fill="url(#paint23_linear_689_15870)"/><path d="M142.123 59.944c.916.57 1.132 1.243.395 2.151-.737.909-1.222 1.644-1.83 2.492a1.366 1.366 0 01-1.566.694 1.363 1.363 0 01-.541-.288c-1.378-.867-2.793-1.722-4.183-2.585-.578-.35-1.02-.82-.55-1.522.733-1.22 1.56-2.407 2.352-3.58a2.1 2.1 0 01.313-.305 1.206 1.206 0 011.176.23 564.7 564.7 0 014.434 2.713z" fill="url(#paint24_linear_689_15870)"/><path d="M224.991 292.782a1.291 1.291 0 01.749.824 1.279 1.279 0 01-.176 1.1l-2.415 4.655a1.282 1.282 0 01-1.992.569c-2.023-1.29-4.066-2.559-6.1-3.844-.561-.344-.915-.83-.339-1.353 1.685-1.496 3.42-2.929 5.099-4.368a1.484 1.484 0 011.434.191c1.278.74 2.496 1.502 3.74 2.226z" fill="url(#paint25_linear_689_15870)"/><path d="M233.793 327.193c.447.179 1.154.17 1.186.786.031.617-.54.851-.955 1.137-2.894 2.043-5.75 4.154-8.728 6.076a142.053 142.053 0 01-19.122 10.529l-.893.323c-2.852 1.29-5.351-.033-7.871-.734-.823-.235-2.237-.257-2.264-1.202-.028-.946 1.38-1.168 2.171-1.55 8.729-4.069 17.112-8.682 24.243-15.287a13.339 13.339 0 001.952-2.153 2.034 2.034 0 012.114-1.057c.278.044.544.146.78.298 2.467 1.007 4.938 1.875 7.387 2.834z" fill="#000"/><path d="M129.988 53.228c1.178.503 1.278 1.231.443 2.134a23.094 23.094 0 01-2.379 2.976 2.144 2.144 0 01-1.931-.204c-3.878-1.589-3.833-1.578-2.379-5.49.486-1.336 1.189-1.658 2.439-1.072 1.249.586 2.542 1.103 3.807 1.656z" fill="url(#paint26_linear_689_15870)"/><path d="M213.248 284.996a1.292 1.292 0 01.725.968 1.282 1.282 0 01-.4 1.141c-.92 1.233-1.822 2.515-2.69 3.703-.722 1.025-1.504 1.28-2.582.413-1.625-1.324-3.298-2.59-4.943-3.893-.486-.399-1.101-.968-.436-1.509a58.354 58.354 0 004.697-4.005 1.503 1.503 0 011.686.169c1.342 1.031 2.586 2.056 3.943 3.013z" fill="url(#paint27_linear_689_15870)"/><path d="M217.902 320.209c1.148.609 1.122 1.178.169 1.905l-5.51 4.176a216.585 216.585 0 01-18.131 12.437c-1.869 1.139-3.961 1.923-6.253 3.024a3.7 3.7 0 01-2.363-.416l-4.932-2.314c-1.279-.63-1.308-.975-.104-1.724 3.108-1.902 6.303-3.643 9.344-5.657 5.835-3.802 11.894-7.288 17.111-11.973a24.33 24.33 0 002.341-2.211 1.784 1.784 0 012.658-.428 110.94 110.94 0 005.67 3.181z" fill="#000"/><path d="M201.831 275.89c.116.13.217.272.304.423a1.289 1.289 0 01-.287 1.359c-1.035 1.33-2.103 2.645-3.139 3.975a1.114 1.114 0 01-.861.587 1.114 1.114 0 01-.966-.391c-1.595-1.431-3.205-2.938-4.783-4.321-.674-.617-.67-1.287.06-1.797a31.631 31.631 0 003.792-3.336c.54-.509 1.099-.739 1.763-.186l4.117 3.687z" fill="url(#paint28_linear_689_15870)"/><path d="M115.125 48.563c3.206.52 3.206.52 2.255 3.595-.568 1.83-.734 2.164-1.354 2.415a13.275 13.275 0 01-2.878-.408c-1.426-.167-1.262-1.264-1.331-2.25l-.028-.303c-.42-3.467-.226-3.647 3.336-3.05z" fill="url(#paint29_linear_689_15870)"/><path d="M190.92 265.946a1.709 1.709 0 01-.246 1.7l-2.585 3.802c-.646.971-1.374.961-2.149.176-2.251-2.3-4.5-4.605-6.746-6.916a1.36 1.36 0 01-.499-1.004 1.35 1.35 0 01.432-1.034c1.038-1.208 2.043-2.431 3.049-3.655.528-.655 1.134-.942 1.801-.268 2.185 2.269 4.459 4.519 6.669 6.779.104.132.195.272.274.42z" fill="url(#paint30_linear_689_15870)"/><path d="M204.383 312.081c1.112.773 1.041 1.372-.131 2.246-6.706 4.908-13.37 9.856-20.19 14.601-2.81 1.971-5.596 3.975-8.499 5.802l-.585.348a1.988 1.988 0 01-2.119-.122c-3.088-1.82-6.161-3.672-9.253-5.504-1.081-.648-.85-1.181.06-1.797 8.926-6.134 17.227-13.053 25.595-19.859 1.111-.893 2.163-1.874 3.215-2.855a1.294 1.294 0 01.939-.478 1.29 1.29 0 01.98.385c3.285 2.514 6.614 4.888 9.988 7.233z" fill="#000"/><path d="M102.714 49.51c.855-.24 1.27.115 1.332.967l.028.304c.36 3.83.36 3.83-3.824 5.478-1.063.384-3.985-1.127-4.252-2.246-.162-.447.16-.767.465-1.055a14.59 14.59 0 016.251-3.447z" fill="url(#paint31_linear_689_15870)"/><path d="M176.24 250.373a1.752 1.752 0 01-.238 1.534c-.867 1.378-1.734 2.756-2.683 4.137-.552.814-1.155.922-1.845.107-1.5-1.807-3.036-3.6-4.555-5.386-.741-.879-.554-1.534.378-2.13 1.103-.727 2.263-1.596 3.388-2.413.467-.332 1.086-.774 1.517-.261 1.388 1.424 2.697 2.93 4.038 4.412z" fill="url(#paint32_linear_689_15870)"/><path d="M189.235 300.692c1.112.963.419 1.651-.355 2.231a321.496 321.496 0 01-6.186 4.57 546.665 546.665 0 01-23.748 16.242c-.42.274-.872.534-1.12.678a1.856 1.856 0 01-1.966-.15c-3.023-2.281-6.083-4.629-9.104-6.828-.856-.633-.761-1.2-.034-1.872a25.848 25.848 0 012.997-2.135l24.286-16.791a27.809 27.809 0 003.98-3.61c.129-.177.296-.322.488-.426a1.448 1.448 0 011.785.329l8.977 7.762z" fill="#000"/><path d="M165.695 238.085a1.36 1.36 0 01-.219 1.813 144.335 144.335 0 01-3.238 3.054 1.106 1.106 0 01-1.754-.13 190.06 190.06 0 01-4.021-5.006 1.038 1.038 0 01-.171-.802 1.018 1.018 0 01.471-.672 46.14 46.14 0 003.882-3.014.808.808 0 011.243.002c1.361 1.651 2.674 3.321 3.807 4.755z" fill="url(#paint33_linear_689_15870)"/><path d="M155.72 225.29c.262.725.437 1.208.118 1.61a26.922 26.922 0 01-3.17 4.341c-.513.581-1.026.22-1.461-.265-1.448-2.043-2.853-4.116-4.35-6.143a1.098 1.098 0 01-.314-.92 1.11 1.11 0 01.535-.811 34.664 34.664 0 003.298-2.776c.389-.359.955-.646 1.321-.123a69.173 69.173 0 014.023 5.087z" fill="url(#paint34_linear_689_15870)"/><path d="M91.99 60.418c2.999 1.647 3.26 2.632 1.396 5.6a2.57 2.57 0 01-1.595 1.026c-.837.18-1.782.398-2.737.552-.955.154-1.408-.119-1.113-1.154a28.325 28.325 0 012.172-5.55c.463-.837 1.008-.952 1.877-.474z" fill="url(#paint35_linear_689_15870)"/><path d="M173.846 286.863c1.342 1.332 1.357 1.599-.105 2.769a164.848 164.848 0 01-5.931 4.369c-7.975 5.517-15.512 11.6-22.974 17.779-.629.527-1.317.967-1.716 1.261a1.488 1.488 0 01-1.963-.219 1116.077 1116.077 0 00-7.382-6.522c-.98-.861-.966-1.617.187-2.28a207.203 207.203 0 0017.369-11.902c4.737-3.404 9.376-6.965 14.049-10.47 1.719-1.29 1.947-1.263 3.451.255 1.651 1.657 3.349 3.296 5.015 4.96z" fill="#000"/><path d="M145.977 212.275a.779.779 0 01.109.302 13.265 13.265 0 01-3.714 4.496c-.602.109-.957-.268-1.252-.708-1.316-1.941-2.613-3.903-3.904-5.853a1.283 1.283 0 01.423-2.079l1.922-1.254c2.211-1.441 2.374-1.404 3.775.848a25.256 25.256 0 012.641 4.248z" fill="url(#paint36_linear_689_15870)"/><path d="M136.88 198.358a1.416 1.416 0 01.309 1.078 1.429 1.429 0 01-.567.967 22.985 22.985 0 01-2.729 2.461c-.604.369-1.099.398-1.581-.22-1.477-1.856-2.413-4.03-3.613-5.727-.218-.604-.358-.99-.159-1.308a12.846 12.846 0 013.873-3.188c.509-.293.914.298 1.192.73 1.108 1.743 2.188 3.483 3.275 5.207z" fill="url(#paint37_linear_689_15870)"/><path d="M90.774 74.17c.833 0 .981.752.955 1.472a86.67 86.67 0 00-.112 4.3c-.006 1.723-1.339 1.85-2.514 2.151-3.048.897-3.197.787-3.062-2.43.075-1.529.252-3.08.307-4.59.017-.292-.001-.722.178-.869 1.345-1.114 2.834-.055 4.248-.033z" fill="url(#paint38_linear_689_15870)"/><path d="M127.988 184.106a1.504 1.504 0 01-.241 2.054c-.812.853-1.549 1.761-2.318 2.653-.541.619-1.049.612-1.409-.119-1.597-2.795-3.17-5.6-4.756-8.399a1.513 1.513 0 01-.189-1.27 1.501 1.501 0 01.861-.953 12.593 12.593 0 001.782-1.19c1.107-.905 1.896-.685 2.552.525 1.21 2.253 2.476 4.472 3.718 6.699z" fill="url(#paint39_linear_689_15870)"/><path d="M90.417 87.162c1.048-.16 1.496.361 1.606 1.345.11.985.27 2.334.376 3.497.257 2.638.036 2.895-2.462 3.73l-1.326.41c-.785.284-1.267.008-1.379-.867a260.836 260.836 0 00-.878-6.21 1.13 1.13 0 011.142-1.45c1.016-.135 1.962-.313 2.921-.455z" fill="url(#paint40_linear_689_15870)"/><path d="M118.678 167.412c.404.851-.011 1.479-.618 2.067-2.942 2.892-3.169 2.906-4.705-.703a29.16 29.16 0 00-1.639-3.286 1.72 1.72 0 01-.291-1.38 1.707 1.707 0 01.846-1.128c2.908-2.307 2.965-2.301 4.629 1.058a265.575 265.575 0 011.778 3.372z" fill="url(#paint41_linear_689_15870)"/><path d="M111.345 152.898a1.678 1.678 0 01-.492 2.076c-.469.402-.947.779-1.446 1.137-1.345.964-1.648.882-2.349-.681-.581-1.305-1.114-2.629-1.663-3.959l-.109.039c-.397-1.099-.726-2.236-1.196-3.309a1.602 1.602 0 01-.185-1.4 1.587 1.587 0 01.999-.997c.449-.231.876-.522 1.313-.789.772-.47 1.273-.255 1.755.513a80.794 80.794 0 013.373 7.37z" fill="url(#paint42_linear_689_15870)"/><path d="M90.968 100.55c1.292-.467 1.54.482 1.871 1.4l.258.712c.826 2.665.662 3.27-1.055 4.109-.895.433-1.308.159-1.536-.811a100.8 100.8 0 00-.78-3.104 1.68 1.68 0 011.242-2.306z" fill="url(#paint43_linear_689_15870)"/><path d="M93.849 112.303c1.087-.393 1.748-.072 2.078 1.065.673 2.242 1.423 4.47 2.06 6.725a2.668 2.668 0 01-1.206 2.723 2.679 2.679 0 01-.979.374c-.741.063-.957-.46-1.112-.964-.155-.503-.415-1.147-.552-1.753-.137-.606-.32-1.072-.487-1.612-.435-1.468-.882-2.932-1.292-4.408-.411-1.477.364-1.825 1.49-2.15z" fill="url(#paint44_linear_689_15870)"/><path d="M103.477 134.713a4.2 4.2 0 01-2.458 4.534c-.699.144-.891-.388-1.074-.854l-1.357-3.756-1.362-3.769c-.544-1.769 1.05-1.744 2.003-2.28.953-.535 1.634-.126 2.041.887a120.94 120.94 0 012.207 5.238z" fill="url(#paint45_linear_689_15870)"/><defs><linearGradient id="paint0_linear_689_15870" x1="57.935" y1="232.688" x2="258.278" y2="160.292" gradientUnits="userSpaceOnUse"><stop stop-color="#E4BC6C"/><stop offset="1" stop-color="#E9C786" stop-opacity="0"/></linearGradient><linearGradient id="paint1_linear_689_15870" x1="258.384" y1="233.061" x2="265.763" y2="230.394" gradientUnits="userSpaceOnUse"><stop stop-color="#E4BC6C"/><stop offset="1" stop-color="#E9C786" stop-opacity="0"/></linearGradient><linearGradient id="paint2_linear_689_15870" x1="252.567" y1="217.193" x2="259.826" y2="214.57" gradientUnits="userSpaceOnUse"><stop stop-color="#E4BC6C"/><stop offset="1" stop-color="#E9C786" stop-opacity="0"/></linearGradient><linearGradient id="paint3_linear_689_15870" x1="262.469" y1="248.407" x2="270.61" y2="245.466" gradientUnits="userSpaceOnUse"><stop stop-color="#E4BC6C"/><stop offset="1" stop-color="#E9C786" stop-opacity="0"/></linearGradient><linearGradient id="paint4_linear_689_15870" x1="246.091" y1="202.028" x2="253.277" y2="199.431" gradientUnits="userSpaceOnUse"><stop stop-color="#E4BC6C"/><stop offset="1" stop-color="#E9C786" stop-opacity="0"/></linearGradient><linearGradient id="paint5_linear_689_15870" x1="265.572" y1="264.969" x2="274.039" y2="261.909" gradientUnits="userSpaceOnUse"><stop stop-color="#E4BC6C"/><stop offset="1" stop-color="#E9C786" stop-opacity="0"/></linearGradient><linearGradient id="paint6_linear_689_15870" x1="237.638" y1="185.475" x2="245.029" y2="182.804" gradientUnits="userSpaceOnUse"><stop stop-color="#E4BC6C"/><stop offset="1" stop-color="#E9C786" stop-opacity="0"/></linearGradient><linearGradient id="paint7_linear_689_15870" x1="231.877" y1="174.216" x2="238.387" y2="171.863" gradientUnits="userSpaceOnUse"><stop stop-color="#E4BC6C"/><stop offset="1" stop-color="#E9C786" stop-opacity="0"/></linearGradient><linearGradient id="paint8_linear_689_15870" x1="267.083" y1="280.071" x2="275.634" y2="276.981" gradientUnits="userSpaceOnUse"><stop stop-color="#E4BC6C"/><stop offset="1" stop-color="#E9C786" stop-opacity="0"/></linearGradient><linearGradient id="paint9_linear_689_15870" x1="226.072" y1="163.82" x2="232.111" y2="161.638" gradientUnits="userSpaceOnUse"><stop stop-color="#E4BC6C"/><stop offset="1" stop-color="#E9C786" stop-opacity="0"/></linearGradient><linearGradient id="paint10_linear_689_15870" x1="220.129" y1="154.402" x2="226.832" y2="151.98" gradientUnits="userSpaceOnUse"><stop stop-color="#E4BC6C"/><stop offset="1" stop-color="#E9C786" stop-opacity="0"/></linearGradient><linearGradient id="paint11_linear_689_15870" x1="212.872" y1="143.505" x2="219.648" y2="141.057" gradientUnits="userSpaceOnUse"><stop stop-color="#E4BC6C"/><stop offset="1" stop-color="#E9C786" stop-opacity="0"/></linearGradient><linearGradient id="paint12_linear_689_15870" x1="262.445" y1="296.179" x2="272.807" y2="292.435" gradientUnits="userSpaceOnUse"><stop stop-color="#E4BC6C"/><stop offset="1" stop-color="#E9C786" stop-opacity="0"/></linearGradient><linearGradient id="paint13_linear_689_15870" x1="205.477" y1="133.165" x2="212.591" y2="130.595" gradientUnits="userSpaceOnUse"><stop stop-color="#E4BC6C"/><stop offset="1" stop-color="#E9C786" stop-opacity="0"/></linearGradient><linearGradient id="paint14_linear_689_15870" x1="196.919" y1="122.33" x2="204.516" y2="119.585" gradientUnits="userSpaceOnUse"><stop stop-color="#E4BC6C"/><stop offset="1" stop-color="#E9C786" stop-opacity="0"/></linearGradient><linearGradient id="paint15_linear_689_15870" x1="187.786" y1="111.074" x2="195.358" y2="108.338" gradientUnits="userSpaceOnUse"><stop stop-color="#E4BC6C"/><stop offset="1" stop-color="#E9C786" stop-opacity="0"/></linearGradient><linearGradient id="paint16_linear_689_15870" x1="168.42" y1="237.387" x2="232.394" y2="214.269" gradientUnits="userSpaceOnUse"><stop stop-color="#E4BC6C"/><stop offset="1" stop-color="#E9C786" stop-opacity="0"/></linearGradient><linearGradient id="paint17_linear_689_15870" x1="177.604" y1="99.789" x2="185.491" y2="96.939" gradientUnits="userSpaceOnUse"><stop stop-color="#E4BC6C"/><stop offset="1" stop-color="#E9C786" stop-opacity="0"/></linearGradient><linearGradient id="paint18_linear_689_15870" x1="136.826" y1="155.925" x2="199.303" y2="133.348" gradientUnits="userSpaceOnUse"><stop stop-color="#E4BC6C"/><stop offset="1" stop-color="#E9C786" stop-opacity="0"/></linearGradient><linearGradient id="paint19_linear_689_15870" x1="246.299" y1="307.121" x2="258.05" y2="302.875" gradientUnits="userSpaceOnUse"><stop stop-color="#E4BC6C"/><stop offset="1" stop-color="#E9C786" stop-opacity="0"/></linearGradient><linearGradient id="paint20_linear_689_15870" x1="167.192" y1="88.886" x2="175.284" y2="85.962" gradientUnits="userSpaceOnUse"><stop stop-color="#E4BC6C"/><stop offset="1" stop-color="#E9C786" stop-opacity="0"/></linearGradient><linearGradient id="paint21_linear_689_15870" x1="157.138" y1="79.356" x2="164.977" y2="76.523" gradientUnits="userSpaceOnUse"><stop stop-color="#E4BC6C"/><stop offset="1" stop-color="#E9C786" stop-opacity="0"/></linearGradient><linearGradient id="paint22_linear_689_15870" x1="230.035" y1="305.078" x2="241.183" y2="301.05" gradientUnits="userSpaceOnUse"><stop stop-color="#E4BC6C"/><stop offset="1" stop-color="#E9C786" stop-opacity="0"/></linearGradient><linearGradient id="paint23_linear_689_15870" x1="145.272" y1="70.85" x2="154.403" y2="67.55" gradientUnits="userSpaceOnUse"><stop stop-color="#E4BC6C"/><stop offset="1" stop-color="#E9C786" stop-opacity="0"/></linearGradient><linearGradient id="paint24_linear_689_15870" x1="134.054" y1="62.628" x2="142.472" y2="59.586" gradientUnits="userSpaceOnUse"><stop stop-color="#E4BC6C"/><stop offset="1" stop-color="#E9C786" stop-opacity="0"/></linearGradient><linearGradient id="paint25_linear_689_15870" x1="215.167" y1="297.411" x2="225.747" y2="293.588" gradientUnits="userSpaceOnUse"><stop stop-color="#E4BC6C"/><stop offset="1" stop-color="#E9C786" stop-opacity="0"/></linearGradient><linearGradient id="paint26_linear_689_15870" x1="122.882" y1="56.123" x2="130.672" y2="53.308" gradientUnits="userSpaceOnUse"><stop stop-color="#E4BC6C"/><stop offset="1" stop-color="#E9C786" stop-opacity="0"/></linearGradient><linearGradient id="paint27_linear_689_15870" x1="203.473" y1="288.706" x2="213.619" y2="285.04" gradientUnits="userSpaceOnUse"><stop stop-color="#E4BC6C"/><stop offset="1" stop-color="#E9C786" stop-opacity="0"/></linearGradient><linearGradient id="paint28_linear_689_15870" x1="192.364" y1="278.86" x2="201.82" y2="275.443" gradientUnits="userSpaceOnUse"><stop stop-color="#E4BC6C"/><stop offset="1" stop-color="#E9C786" stop-opacity="0"/></linearGradient><linearGradient id="paint29_linear_689_15870" x1="111.621" y1="52.396" x2="118.071" y2="50.065" gradientUnits="userSpaceOnUse"><stop stop-color="#E4BC6C"/><stop offset="1" stop-color="#E9C786" stop-opacity="0"/></linearGradient><linearGradient id="paint30_linear_689_15870" x1="179.885" y1="267.148" x2="190.03" y2="263.482" gradientUnits="userSpaceOnUse"><stop stop-color="#E4BC6C"/><stop offset="1" stop-color="#E9C786" stop-opacity="0"/></linearGradient><linearGradient id="paint31_linear_689_15870" x1="96.273" y1="54.774" x2="104.594" y2="51.767" gradientUnits="userSpaceOnUse"><stop stop-color="#E4BC6C"/><stop offset="1" stop-color="#E9C786" stop-opacity="0"/></linearGradient><linearGradient id="paint32_linear_689_15870" x1="167.512" y1="252.858" x2="176.026" y2="249.781" gradientUnits="userSpaceOnUse"><stop stop-color="#E4BC6C"/><stop offset="1" stop-color="#E9C786" stop-opacity="0"/></linearGradient><linearGradient id="paint33_linear_689_15870" x1="157.091" y1="239.705" x2="165.231" y2="236.764" gradientUnits="userSpaceOnUse"><stop stop-color="#E4BC6C"/><stop offset="1" stop-color="#E9C786" stop-opacity="0"/></linearGradient><linearGradient id="paint34_linear_689_15870" x1="147.683" y1="227.157" x2="155.389" y2="224.372" gradientUnits="userSpaceOnUse"><stop stop-color="#E4BC6C"/><stop offset="1" stop-color="#E9C786" stop-opacity="0"/></linearGradient><linearGradient id="paint35_linear_689_15870" x1="87.136" y1="65.121" x2="94.431" y2="62.485" gradientUnits="userSpaceOnUse"><stop stop-color="#E4BC6C"/><stop offset="1" stop-color="#E9C786" stop-opacity="0"/></linearGradient><linearGradient id="paint36_linear_689_15870" x1="137.994" y1="213.043" x2="145.301" y2="210.403" gradientUnits="userSpaceOnUse"><stop stop-color="#E4BC6C"/><stop offset="1" stop-color="#E9C786" stop-opacity="0"/></linearGradient><linearGradient id="paint37_linear_689_15870" x1="129.446" y1="199.023" x2="136.282" y2="196.553" gradientUnits="userSpaceOnUse"><stop stop-color="#E4BC6C"/><stop offset="1" stop-color="#E9C786" stop-opacity="0"/></linearGradient><linearGradient id="paint38_linear_689_15870" x1="85.076" y1="79.111" x2="92.263" y2="76.514" gradientUnits="userSpaceOnUse"><stop stop-color="#E4BC6C"/><stop offset="1" stop-color="#E9C786" stop-opacity="0"/></linearGradient><linearGradient id="paint39_linear_689_15870" x1="120.558" y1="183.951" x2="127.153" y2="181.568" gradientUnits="userSpaceOnUse"><stop stop-color="#E4BC6C"/><stop offset="1" stop-color="#E9C786" stop-opacity="0"/></linearGradient><linearGradient id="paint40_linear_689_15870" x1="86.193" y1="92.553" x2="92.727" y2="90.192" gradientUnits="userSpaceOnUse"><stop stop-color="#E4BC6C"/><stop offset="1" stop-color="#E9C786" stop-opacity="0"/></linearGradient><linearGradient id="paint41_linear_689_15870" x1="112.403" y1="167.427" x2="117.97" y2="165.415" gradientUnits="userSpaceOnUse"><stop stop-color="#E4BC6C"/><stop offset="1" stop-color="#E9C786" stop-opacity="0"/></linearGradient><linearGradient id="paint42_linear_689_15870" x1="105.28" y1="151.567" x2="110.219" y2="149.782" gradientUnits="userSpaceOnUse"><stop stop-color="#E4BC6C"/><stop offset="1" stop-color="#E9C786" stop-opacity="0"/></linearGradient><linearGradient id="paint43_linear_689_15870" x1="89.826" y1="104.267" x2="93.22" y2="103.041" gradientUnits="userSpaceOnUse"><stop stop-color="#E4BC6C"/><stop offset="1" stop-color="#E9C786" stop-opacity="0"/></linearGradient><linearGradient id="paint44_linear_689_15870" x1="93.28" y1="118.325" x2="97.217" y2="116.903" gradientUnits="userSpaceOnUse"><stop stop-color="#E4BC6C"/><stop offset="1" stop-color="#E9C786" stop-opacity="0"/></linearGradient><linearGradient id="paint45_linear_689_15870" x1="98.56" y1="134.483" x2="102.835" y2="132.938" gradientUnits="userSpaceOnUse"><stop stop-color="#E4BC6C"/><stop offset="1" stop-color="#E9C786" stop-opacity="0"/></linearGradient></defs></svg>