<svg width="267" height="180" fill="none" xmlns="http://www.w3.org/2000/svg"><path d="M260.546 74.038c.256 4.275-.644 8.264-1.462 12.335-.215 1.105-.215 2.28-1.023 3.181-.44 0-.378-.42-.44-.655-1.82-7.064-3.62-14.142-5.4-21.233-.419-1.657-.696-3.355-1.023-5.042a2.618 2.618 0 01.153-1.667 50.925 50.925 0 004.44-13.706c.077-.255.173-.505.286-.746a148.824 148.824 0 014.469 27.533zm-6.893 22.839a273.6 273.6 0 01-3.293 4.429c-.174.235-.317.665-.716.532-.399-.133-.245-.491-.307-.757a395.615 395.615 0 00-5.114-20.2c-.45-1.616-1.023-3.191-1.534-4.787-.133-.378-.368-.747-.061-1.145a108.543 108.543 0 005.196-7.538l.317.081c.531 2.629 1.125 5.247 1.575 7.896.879 5.114 2.383 10.013 3.334 15.066.348 1.841.153 3.764.9 5.544.174.317-.102.623-.297.88zm-8.541 7.835a3.72 3.72 0 01-1.217 4.091c-1.698 1.524-3.283 3.181-4.889 4.807-.644.634-.91.583-1.166-.337-1.626-5.943-2.639-12.039-4.459-17.93-.675-2.189-1.412-4.347-2.148-6.515-.154-.45-.287-.819.123-1.217 3.007-2.885 5.819-5.953 8.53-9.124.135-.097.283-.176.44-.235.245 1.626.45 3.18.736 4.736 1.319 7.22 2.567 14.503 4.05 21.724zm-11.015 12.826c.061.45-.286.654-.562.879a452.392 452.392 0 01-4.46 3.652c-1.074.859-1.115.828-1.421-.471a340.567 340.567 0 00-4.828-18.737c-.511-1.77-1.023-3.519-1.647-5.258a.91.91 0 01.266-1.166 424.768 424.768 0 006.485-5.625c.726-.644.777-.225.91.43 1.687 8.182 2.843 16.415 4.797 24.547.143.572.307 1.155.46 1.749zm-10.606 8.059c.102.737-.348.962-.706 1.207-1.974 1.381-3.989 2.711-5.932 4.091-.87.634-1.156.338-1.391-.552-1.586-5.963-3.222-11.916-5.278-17.735a45.049 45.049 0 00-2.046-5.247.79.79 0 01-.149-.325.787.787 0 01.17-.677.795.795 0 01.286-.215c3.151-2.128 6.209-4.388 9.206-6.72.48-.379.818-.563.9.307.787 7.834 2.73 15.444 4.367 23.115.235.992.409 1.964.573 2.751zm-12.212 7.927c.153.471.194.859-.307 1.156l-6.311 3.764a2.74 2.74 0 01-.317.143c-.419 0-.47-.286-.542-.562-2.045-7.794-5.114-15.24-7.517-22.931-.184-.583-.184-.962.399-1.32 2.822-1.749 5.604-3.529 8.407-5.288.358-.215.787-.654.879.256.594 5.707 2.322 11.189 3.406 16.794.465 2.7 1.1 5.369 1.903 7.988zm-12.11 7.436c.113.603-.378.757-.757.951a741.35 741.35 0 00-9.051 4.644c-.788.419-1.023.153-1.259-.604a982.767 982.767 0 00-4.213-13.562 77.612 77.612 0 00-3.335-8.561c-.337-.736-.225-1.023.481-1.411 3.692-1.831 7.303-3.815 10.903-5.83.317-.184.859-.839 1.023.194.92 5.83 2.802 11.404 4.449 17.04a95.527 95.527 0 011.759 7.139zm-15.691 7.078c.318.9.052 1.309-.797 1.656-2.639 1.095-5.268 2.22-7.855 3.427-.962.45-1.32.092-1.606-.737-.9-2.587-1.606-5.236-2.301-7.875a111.645 111.645 0 00-4.634-13.808c-.358-.879-.204-1.258.675-1.647 3.069-1.329 6.014-2.741 9.021-4.091l.686-.296c.521.153.429.644.521 1.022 1.644 5.946 3.28 11.889 4.91 17.828.429 1.473.859 3.017 1.38 4.521zm-14.757 6.433c.296.706.112 1.023-.573 1.278-2.721 1.023-5.452 1.985-8.183 3.069-.849.327-1.155.071-1.309-.778-1.023-5.962-2.7-11.772-4.295-17.602-.461-1.687-1.023-3.344-1.545-4.817-.184-.706.194-.839.532-1.023 2.884-1.146 5.779-2.281 8.653-3.447 1.023-.409.849.44.961.9 1.667 6.648 3.294 13.297 4.951 19.965.2.839.471 1.66.808 2.455zm-12.857 5.257c.051.634-.461.624-.819.736-2.557.829-5.114 1.596-7.691 2.465-.951.328-1.309 0-1.565-.869a127.56 127.56 0 00-6.075-16.007c-.737-1.646-1.442-3.293-2.24-4.909-.348-.716-.184-1.023.542-1.207 2.874-.931 5.748-1.851 8.591-2.874.911-.327 1.197 0 1.504.757 2.444 6.362 4.643 12.815 6.832 19.269l.921 2.639zm-15.098 4.173c.113.42.195.849-.368 1.023l-9.727 2.537c-1.104.081-1.022-.553-1.186-.972-1.023-4.03-2.046-8.08-3.068-12.11a388.18 388.18 0 00-2.506-9.205c-.246-.829 0-1.156.777-1.371 2.843-.736 5.677-1.554 8.5-2.352.552-.154 1.022-.307 1.176.511 1.35 6.321 3.692 12.356 5.462 18.554.327 1.115.634 2.24.94 3.385zm-15.167 3.713c.225.614.092.91-.542 1.023-3.375.644-6.74 1.288-10.095 1.963-.92.185-1.023-.439-1.166-1.022a318.143 318.143 0 01-2.802-12.785c-.583-2.925-1.085-5.861-1.616-8.796-.072-.532.184-.737.664-.839 2.557-.542 5.114-1.074 7.661-1.657.665-.153.859.123 1.023.665 2.373 7.129 4.255 14.442 6.873 21.448zm-14.422 2.454c.41.788.369 1.136-.593 1.258-3.805.491-7.609 1.023-11.414 1.555-.716.082-1.023-.194-1.146-.931-1.39-6.996-2.904-13.981-4.797-20.865-.245-.9 0-1.125.87-1.248 2.996-.409 5.983-.859 8.959-1.37.89-.164 1.217 0 1.412.92a131.997 131.997 0 005.318 17.562c.397 1.068.861 2.11 1.391 3.119zm-16.978 2.199c.286.778.061 1.023-.716 1.074-1.187.062-2.363.174-3.55.266-1.022 0-1.963.082-2.935.174-.797.082-1.145-.215-1.35-1.023a10235.99 10235.99 0 00-4.091-15.638c-.41-1.545-.818-3.069-1.33-4.593-.347-1.022 0-1.288.962-1.34a74.917 74.917 0 005.247-.45c.961-.122 1.38.205 1.646 1.115 1.576 5.452 3.202 10.893 4.818 16.365.409 1.34.818 2.71 1.299 4.05zm-12.651-.664c.86 2.373.951 2.342-1.637 2.383H76.23v-.082h-5.267c-.563 0-.849-.164-.962-.818-1.176-6.669-2.843-13.245-4.305-19.863-.328-1.483-.348-1.473 1.196-1.483 2.046 0 4.173 0 6.25-.092 1.022-.061 1.462.337 1.79 1.299a1564.19 1564.19 0 006.617 18.656zm-17.266 1.871c-1.176-.153-2.567 0-3.456-.532-.89-.531-.717-2.147-1.023-3.262-1.667-5.646-3.007-11.374-4.409-17.081-.347-1.411-.347-1.432 1.146-1.33 1.094.072 2.373-.133 3.242.358.87.491.767 1.974 1.105 2.997 1.974 6.055 3.702 12.202 6.208 18.073.287.685.246 1.023-.583.9-.828-.123-1.493-.072-2.23-.123zm-21.131-23.012c-.225-.676.072-.819.747-.676 1.565.236 3.222.512 4.879.727.767.092.838.664 1.023 1.207 1.483 4.796 2.833 9.624 4.592 14.319a45.11 45.11 0 002.516 5.717c.368.685.297 1.023-.552.839-1.892-.307-3.785-.634-5.687-.9-.798-.113-1.023-.624-1.289-1.269a192.691 192.691 0 01-5.84-18.686c-.133-.419-.245-.859-.389-1.278zm3.181 19.351c.232.289.348.653.328 1.023a76.545 76.545 0 01-7.814-2.046c-.44-.133-.594-.511-.747-.91-2.68-6.935-5.186-13.941-8.244-20.722-.112-.235-.368-.522-.082-.777.287-.256.47 0 .696.082 2.045.583 3.989 1.206 5.993 1.749a1.551 1.551 0 011.115 1.155c1.473 3.815 2.925 7.63 4.419 11.435a63.485 63.485 0 004.336 9.011zm-16.508-11.384c1.29 2.813 2.7 5.574 4.194 8.643-3.958-1.494-7.702-2.701-10.024-6.301a40.216 40.216 0 01-2.342-3.876 509.54 509.54 0 01-8.816-18.871 3.444 3.444 0 01-.174-.552 72.74 72.74 0 007.814 4.664 5.942 5.942 0 013.539 4.009c1.35 4.337 3.927 8.152 5.81 12.284zm56.316-50.526c-6.421-.043-12.84.258-19.229.9-.32.016-.64.016-.961 0a5.461 5.461 0 011.227-1.974c4.194-5.431 8.377-10.882 12.601-16.293 1.514-1.933 2.567-4.163 4.091-6.137.624-.828.225-1.647-.828-1.943a7.057 7.057 0 00-3.631.286c-2.741.696-5.666.706-8.182 2.383l-.164-.296c1.575-1.851 3.212-3.652 4.695-5.574a9.113 9.113 0 015.42-3.58c3.846-.9 7.487-2.567 11.374-3.427a15.967 15.967 0 014.09-.47 3.62 3.62 0 002.855-1.688c2.812-3.232 5.778-6.341 8.438-9.716 4.95-6.3 9.972-12.55 14.615-19.075 1.197-1.688 3.069-2.782 4.184-4.45 1.636-2.495 4.019-2.996 6.586-3.303 5.237-.604 10.433-1.422 15.649-2.189 3.549-.521 7.098-1.125 10.647-1.688.318-.05.635-.05.962-.081 0 .583-.358.89-.614 1.227-5.697 7.6-11.793 14.851-18.103 21.939-1.422 1.596-1.759 2.577-1.023 3.641s1.902 1.31 3.876.522c4.224-1.678 8.582-2.936 12.928-4.245.532-.163 1.085-.286 1.637-.42.266.533-.143.747-.338 1.024a83.172 83.172 0 00-5.676 7.691 2.589 2.589 0 01-1.371.941c-3.375 1.401-7.006 1.913-10.473 2.966a85.757 85.757 0 01-8.97 2.506 9.06 9.06 0 01-2.782.256c-.839-.103-1.33.49-1.78 1.094a36.265 36.265 0 00-2.741 4.766 29.041 29.041 0 01-4.919 6.23c-1.77 1.82-3.202 3.906-4.992 5.696a2.047 2.047 0 001.074 3.283c.643.133 1.3.174 1.954.123a143.932 143.932 0 0016.221-1.606c8.019-1.023 16.099-1.657 24.067-3.068 2.7-.491 5.4-.931 8.07-1.545a67.5 67.5 0 0111.557-1.36c.348 0 .808-.194 1.023.153.215.348-.184.675-.409.931-4.091 4.869-7.763 10.116-11.844 15.015a1.732 1.732 0 01-1.493.644c-10.3-.092-20.456 1.442-30.623 2.823-5.38.726-10.657 2.189-16.027 2.997-8.182 1.217-16.365 2.506-24.547 3.927a47.27 47.27 0 01-8.121.164z" fill="#000"/><path d="M234.865 35.05c-.737 0-.808.357-.593.94.565 1.497.91 3.068 1.023 4.664 0 .706.337 1.023 1.022 1.023 1.059.015 2.115.108 3.161.276.879.143 1.268-.061 1.104-.777a35.238 35.238 0 00-.889-5.4 1.138 1.138 0 00-.482-.8 1.122 1.122 0 00-.92-.162 51.949 51.949 0 01-3.426.235zm2.537-2.946c.276-.082.705-.082.582-.686a17.752 17.752 0 00-2.536-3.917c-.184-.204-.46-.143-.696-.061a27.99 27.99 0 01-4.306.92c-.726.133-.685.4-.276.85a20.035 20.035 0 012.608 3.548.73.73 0 00.721.504.73.73 0 00.302-.074c1.176-.379 2.394-.706 3.601-1.084zM127.175 83.826a9.209 9.209 0 01-3.171.348c-.061-.378.164-.542.297-.726 2.455-3.375 5.114-6.607 6.413-10.668.163-.511.572-.624 1.023-.695 1.902-.276 3.794-.583 5.696-.87 3.754-.562 7.549-1.022 11.036-2.649a6.406 6.406 0 013.069-.818c2.178.123 3.488-1.176 4.521-2.813a68.304 68.304 0 015.666-7.691 57.5 57.5 0 004.009-5.42c.716-1.105 1.207-2.292.43-3.55-.777-1.258-2.046-1.35-3.365-1.227a37.397 37.397 0 00-8.571 1.994l-4.091 1.35c0-.695.419-1.023.726-1.33 5.605-6.34 11.384-12.518 16.211-19.504a14.63 14.63 0 002.138-4.644c.317-1.186-.491-2.168-1.524-1.83a45.09 45.09 0 01-5.421.91c-4.296.839-8.612 1.555-12.959 2.046-5.38.593-10.514 2.372-15.812 3.385a46.904 46.904 0 01-5.861 1.197c-1.953.102-2.649 1.186-3.508 2.475a48.073 48.073 0 01-4.214 5.993c-7.518 8.183-14.923 16.488-22.675 24.466a14.923 14.923 0 01-8.07 4.571c-3.703.768-7.231 2.332-10.903 3.273a6.988 6.988 0 00-4.398 3.15c-3.488 5.176-7.16 10.229-10.658 15.404a2.22 2.22 0 00-.48 2.383c.542.962 1.513.573 2.332.47a8.227 8.227 0 001.288-.358c2.772-.828 5.677-1.022 8.592-1.994a4.797 4.797 0 01-1.125 1.77 138.577 138.577 0 01-10.78 11.404c-2.138 2.117-4.409 4.091-5.432 7.098-.48 1.391-.306 2.342 1.023 2.424 1.115.072 2.148.46 3.232.603a111.806 111.806 0 0022.88.338 192.385 192.385 0 0019.178-2.7c5.829-1.023 11.741-1.627 17.592-2.547 5.41-.839 10.708-2.373 16.15-2.976 9.297-1.023 18.563-2.486 27.963-2.455 2.045 0 3.999-.542 4.786-2.854.062-.174.266-.307.399-.46 5.636-7.16 12.509-13.399 15.976-22.123.317-.808.788-1.585.195-2.414-.594-.828-1.596-.624-2.465-.399-1.354.455-2.767.71-4.194.757a63.007 63.007 0 00-8.448.43c-4.736.44-9.307 1.77-13.971 2.639-10.177 1.892-20.548 2.73-30.725 4.837zM245.42 24.781c5.943 7.701 6.873 16.303 4.48 25.467-2.127 8.09-6.311 15.127-11.363 21.683-8.275 10.76-18.411 19.618-29.324 27.514-19.003 13.695-39.776 23.994-61.736 31.992a266.128 266.128 0 01-42.333 11.65 210.174 210.174 0 01-37.752 3.733c-10.78 0-21.918-1.022-32.729-4.091a56.378 56.378 0 01-18.032-8.387C5.728 126.375 1.647 115.196 4.89 102.104a54.667 54.667 0 0111.916-23.003 159.015 159.015 0 0125.059-23.34c21.038-15.577 44.154-27.135 68.803-35.798a259.477 259.477 0 0143.847-11.322c16.651-2.741 33.374-3.928 50.199-1.923 9.921 1.176 19.566 3.426 28.485 8.12a36.825 36.825 0 0112.222 9.943zm-5.339 23.442c.103-.593-.163-.798-.726-.89a43.908 43.908 0 01-3.447-.736c-.695-.184-.951 0-1.023.695a20.4 20.4 0 01-.603 2.486c-.205.644-.061 1.022.603 1.176 1.177.327 2.353.665 3.509 1.023.521.184.756 0 .889-.47.225-1.085.512-2.19.798-3.284zm-3.15 9.266c.235-.5.072-.746-.399-.91a16.068 16.068 0 01-3.406-1.636c-.429-.276-.695-.236-.941.255a122.427 122.427 0 01-2.352 4.419c-.338.583-.133.87.358 1.156 1.023.603 2.045 1.237 3.068 1.85.174.113.358.205.512.287a.834.834 0 00.552-.47 56.292 56.292 0 002.608-4.95zm-5.503-33.159c.645-.173.839-.44.246-.95a35.362 35.362 0 00-4.531-3.356c-.276-.184-.583-.337-.9-.071a20.463 20.463 0 01-4.715 2.782c1.8 1.023 3.201 2.189 4.766 2.894 1.739.778 3.222-.94 4.909-1.217l.225-.082zm-1.278 44.226c.225-.286.706-.726.521-.91-1.196-1.136-2.475-2.189-3.774-3.314-.245.266-.45.46-.623.675-.614.767-1.197 1.555-1.811 2.322-1.278 1.595-1.289 1.626.542 2.485 1.023.45 1.954 1.555 2.936 1.258.982-.297 1.503-1.677 2.209-2.516zm-5.626 6.505a3.582 3.582 0 00-.265-.348l-2.997-2.72c-.358-.328-.624-.246-.931.082a58.83 58.83 0 01-1.688 1.78c-1.493 1.523-1.493 1.523.287 2.76 2.618 1.811 2.618 1.811 4.838-.541a2.34 2.34 0 00.756-1.064v.051zm-3.815-57.481c.614-.358.543-.634-.061-.88-1.135-.45-2.271-.88-3.416-1.309-.225-.092-.501-.194-.696 0a48.24 48.24 0 01-5.113 3.56l3.907 1.288a1.165 1.165 0 001.022-.092c1.46-.907 2.915-1.78 4.368-2.618l-.011.051zm-3.416 64.814c.328-.296.123-.593-.102-.848-.787-.941-1.596-1.862-2.363-2.813-.388-.491-.716-.552-1.186-.092-.767.736-1.575 1.421-2.373 2.117-2.107 1.83-2.107 1.83.317 3.222l2.209 1.288a1.17 1.17 0 00.369-.132c1.053-.962 2.096-1.872 3.129-2.793v.051zm-7.036-68.148c.511-.481.593-.778-.195-.931l-5.891-1.135c-.317-.062-.685-.123-.91.184a53.475 53.475 0 01-3.775 4.214l7.027 1.217c.378.061.604-.174.808-.44a24.795 24.795 0 012.936-3.16v.05zm-1.095 75.011c.46-.347.194-.593-.102-.859-.921-.87-1.841-1.728-2.731-2.628-.337-.338-.614-.47-1.023-.144-1.718 1.3-3.457 2.578-5.196 3.856-.368.277-.45.532 0 .87 1.023.859 2.046 1.749 3.069 2.618.161.115.328.221.501.317.163-.06.321-.136.47-.225l5.012-3.805zm-10.872 7.825c.225-.154.521-.266.511-.644a1.747 1.747 0 00-.153-.307l-2.465-3.192c-.348-.45-.675-.286-1.023 0a299.416 299.416 0 01-4.633 2.967c-.573.368-.624.685 0 1.084 1.084.787 2.168 1.585 3.242 2.393a.941.941 0 001.227-.051c1.044-.828 2.199-1.555 3.294-2.301v.05zm-1.8-85.097c.46-.603.174-.736-.42-.777-1.299-.082-2.598-.194-3.907-.297h-2.321c-.481 0-.768.133-.798.675a103.279 103.279 0 01-.266 3.54c0 .49.123.777.654.797 1.146.051 2.281.123 3.427.194a1.02 1.02 0 00.931-.45 94.899 94.899 0 012.7-3.733v.051zm-7.753 91.09c.46-.266.491-.542.164-1.022-.757-1.023-1.473-2.046-2.21-3.069-.133-.194-.255-.42-.583-.409-.081 0-.204.072-.307.133-1.881 1.07-3.767 2.141-5.656 3.212-.603.337-.306.654 0 .93 1.095.911 2.22 1.811 3.314 2.721a.592.592 0 00.778 0l4.5-2.496zm-3.999-91.427c.235-.665 0-.89-.665-.88h-3.416v.205h-3.549c-.737 0-.911.296-.778 1.022a50.99 50.99 0 01.491 3.263c.072.553.297.788.86.767 1.759-.061 3.508-.112 5.267-.143.542 0 .828-.215.89-.767a16.29 16.29 0 01.9-3.518v.05zm-5.595 96.5a1.394 1.394 0 00-.174-.276 11.826 11.826 0 01-2.547-3.262c-.286-.512-.654-.317-1.022-.133-2.261 1.135-4.521 2.27-6.792 3.385-.726.348-.716.604 0 1.023 1.238.828 2.752 1.258 3.672 2.577.235.338.583.154.88 0l5.554-2.833c.153-.112.409-.184.429-.532v.051zm-7.835-95.58c.103-.961-.337-1.207-1.217-1.022-1.022.143-2.107.214-3.15.327-2.352.235-2.352.245-1.585 2.455.91 2.638.91 2.638 3.713 2.332 2.342-.246 2.342-.246 2.239-2.578 0-.593-.041-1.084 0-1.565v.051zm-3.692 101.595a12.956 12.956 0 01-3.805-3.345c-.368-.481-.726-.378-1.176-.184a185.58 185.58 0 01-6.3 2.71c-.859.358-.798.686-.236 1.289.829.9 1.606 1.851 2.353 2.813a.74.74 0 001.023.276c2.618-1.207 5.236-2.342 8.141-3.611v.052zm-7.067-96.542c.603-.072.869-.266.787-.92a39.793 39.793 0 01-.296-3.294c0-.655-.277-.9-.921-.777-2.455.409-4.899.828-7.364 1.217-.716.123-.808.368-.338.93a15.017 15.017 0 012.046 2.895 1.084 1.084 0 001.371.655c1.565-.328 3.14-.553 4.715-.757v.05zm-7.467 102.709c.573-.215.645-.501.246-1.023a14.034 14.034 0 01-1.821-3.068c-.225-.512-.46-.798-1.104-.553-2.128.839-4.276 1.627-6.424 2.425-.378.143-.664.306-.593.777.368 1.34.737 2.68 1.115 4.019.112.43.43.409.777.277l7.804-2.854zm-3.661-100.878c.439-.092.501-.338.378-.716-.368-1.125-.736-2.25-1.084-3.386-.143-.46-.379-.675-.9-.562-2.107.46-4.234.9-6.352 1.35-.521.112-.705.368-.347.849a28.68 28.68 0 003.17 3.232c.143.133.45.112.665.163l4.47-.93zm-10.995 106.074c.317-.092.654-.184.562-.706a10.507 10.507 0 01-1.023-4.091c-.061-.593-.501-.368-.838-.266l-7.006 2.189c-.512.153-.788.347-.471.951a80.488 80.488 0 011.657 3.406.735.735 0 00.415.446.732.732 0 00.608-.027l6.096-1.902zm-3.498-102.812c1.145-.225 1.35-.675.93-1.728a16.006 16.006 0 01-.623-2.619c-.093-.51-.328-.695-.839-.552l-6.863 1.872c-.512.143-.644.399-.348.89.614 1.023 1.176 2.045 1.77 3.068.143.246.286.501.675.44l.685-.184c1.534-.348 3.058-.87 4.613-1.187zm-9.502 106.709c.521-.133.614-.389.419-.89a99.313 99.313 0 01-1.176-3.478c-.133-.378-.276-.685-.849-.552l-7.016 1.8c-.573.143-.46.604-.358 1.023.317 1.145.654 2.27 1.023 3.416a.632.632 0 00.9.522 279.477 279.477 0 017.057-1.841zm-2.373-103.374c.522-.154.788-.369.532-.951a14.373 14.373 0 01-.921-3.16c-.061-.328-.133-.676-.624-.635-2.321.767-4.643 1.524-6.955 2.322-.603.204-.286.552 0 .808 1.023.91 2.046 1.81 2.997 2.71a.923.923 0 001.023.164 80.102 80.102 0 013.948-1.258zm-10.934 3.64c.696-.255.686-.541.307-1.022a10.26 10.26 0 01-1.473-2.526c-.286-.778-.695-.839-1.411-.563-2.199.88-4.429 1.678-6.638 2.547a11.81 11.81 0 00-2.966 1.36 186.375 186.375 0 013.252 3.069c.358.347.726.245 1.125.092a380.798 380.798 0 017.804-2.956zm-1.084 103.191c.379-.082.716-.225.573-.86a21.51 21.51 0 01-.44-3.743c0-.593-.388-.624-.849-.532-1.8.358-3.59.726-5.39 1.023-.644.123-.777.419-.573 1.023.379 1.115.706 2.25 1.023 3.395.01.116.048.227.111.324a.714.714 0 00.912.259l4.633-.889zm-11.353 2.096c.481-.071.91-.214.685-1.125-.061-.9-.153-2.045-.194-3.262 0-.727-.317-.87-1.023-.757a263.81 263.81 0 01-7.384 1.022c-.655.082-.819.358-.706 1.023.215 1.166.399 2.332.532 3.509.071.634.43.705.93.644l7.16-1.054zm-1.36-99.937c.255-.102.573-.164.552-.522 0-.102-.072-.173-.112-.245a117.904 117.904 0 01-1.831-3.18c-.225-.4-.501-.349-.829-.205l-6.832 3.068c-.501.235-.614.501-.092.86 1.023.756 2.127 1.523 3.18 2.3a1.023 1.023 0 001.136.072c1.606-.736 3.222-1.432 4.828-2.138v-.01zm-11.323 5.114c.553-.276.502-.552.133-.92a15.798 15.798 0 01-2.188-2.629c-.328-.491-.665-.327-1.023-.133l-8.806 4.531c-.604.307-.706.573-.133 1.023.9.706 1.759 1.452 2.638 2.189a.91.91 0 00.696.286c.14-.047.276-.101.41-.164 2.75-1.35 5.502-2.782 8.273-4.163v-.02zm-1.022 93.443c.092-2.046.092-2.046-2.046-1.933h-.726c-2.618.173-2.618.173-2.639 2.822 0 2.486 0 2.486 2.394 2.332h.848c2.046-.133 2.046-.133 2.117-2.25v-.491c.072-.133.062-.296.072-.46l-.02-.02zm-9.748-.512c.174-.705 0-1.023-.746-.951h-3.55v.072h-2.69c-2.045 0-1.963-.42-2.28 1.943a13.315 13.315 0 01-.358 1.923c-.307 1.023.123 1.207 1.023 1.196 2.199 0 4.408-.051 6.597 0 1.115 0 1.503-.358 1.534-1.452.071-.918.236-1.826.49-2.71l-.02-.021zm-4.152-85.086c.511-.297.44-.573.092-.951a20.66 20.66 0 01-1.913-2.22.93.93 0 00-1.503-.307c-2.148 1.34-4.337 2.608-6.485 3.938-2.649 1.647-2.649 1.667.082 3.242a6.688 6.688 0 001.83.972c.155-.054.306-.12.451-.194 2.506-1.473 4.98-2.977 7.466-4.46l-.02-.02zm-9.267 84.749c.195-.532 0-.757-.511-.798-1.023-.082-1.954-.215-2.925-.246-1.217 0-2.65-.828-3.56-.122-.91.705-.685 2.27-1.104 3.416 0 .071 0 .153-.072.235-.255.696-.092 1.023.716 1.125 1.463.123 2.915.327 4.378.501.613-.153 1.442.461 1.8-.532.45-1.176.849-2.372 1.299-3.559l-.02-.02zm-3.15-77.078a2.784 2.784 0 00-.296-.43l-2.741-2.444c-.348-.317-.665-.205-1.023 0-2.046 1.452-4.03 2.915-6.066 4.357-.552.389-.46.685.093.951 1.104.552 2.209 1.074 3.283 1.647a1.022 1.022 0 001.237-.164c1.627-1.166 3.263-2.311 4.89-3.467.245-.092.419-.256.644-.43l-.02-.02zm-8.182 75.758c.255-.501.143-.736-.4-.859l-6.576-1.422a.662.662 0 00-.859.215 708.641 708.641 0 01-2.802 3.069c-.553.603-.072.756.378.889a80.738 80.738 0 007.59 1.944.846.846 0 001.022-.542 145.727 145.727 0 011.616-3.273l.03-.021zm-3.519-66.962c.45-.379.348-.614-.071-.941a64.313 64.313 0 01-2.567-2.046.687.687 0 00-1.023 0l-5.83 5.063c-.45.389-.348.665.184.87 1.308.455 2.653.797 4.02 1.022a1.082 1.082 0 00.92-.225 87.22 87.22 0 014.367-3.743zm-8.724 64.109c.491-.675.42-1.023-.399-1.309a39.51 39.51 0 01-6.812-3.304c-.204-.123-.43-.225-.654-.348a2.353 2.353 0 00-.45.225c-1.023.829-1.985 1.678-2.977 2.526-.5.43-.163.686.205.931a45.83 45.83 0 008.182 4.357.814.814 0 00.998-.102.812.812 0 00.199-.297c.532-.961 1.135-1.861 1.708-2.72v.041zm-.47-55.927c.398-.388.357-.654-.164-.91a13.92 13.92 0 01-2.854-1.882.623.623 0 00-.961.072 92.68 92.68 0 00-7.497 8.397c-.379.48-.266.726.307.828l4.09.696a.797.797 0 00.758-.379 113.032 113.032 0 016.32-6.822zm-10.72 12.611c.318-.47.236-.716-.306-.88a20.265 20.265 0 01-2.803-.879c-.93-.409-1.421-.102-1.861.696-.92 1.687-1.933 3.314-2.833 5.011-.379.696-1.207 1.524-.778 2.169.43.644 1.442 0 2.046 0 .808 0 1.463-.082 2.117-.103a1.144 1.144 0 001.115-.603 53.505 53.505 0 013.304-5.431v.02zm-.93 36.003c.42-.45.307-.737-.092-1.105a21.4 21.4 0 01-2.977-3.396c-.204-.266-.398-.531-.777-.45-1.278.246-2.567.481-3.835.767-.675.154-.379.583-.174.941a26.503 26.503 0 004.623 5.83c.42.409.716.389 1.084-.071a47.393 47.393 0 012.148-2.537v.021zm-6.341-8.459c.644-.174.89-.47.644-1.156a12.874 12.874 0 01-.788-3.446c0-.461-.266-.645-.695-.686l-3.406-.337c-.552-.092-.726.102-.593.675.296 1.309.521 2.639.818 3.958.521 2.23.532 2.23 2.639 1.473.46-.184.91-.379 1.38-.501v.02zm.398-12.478c.44-2.21.44-2.21-1.871-2.475-2.312-.266-2.465-.287-2.946 2.189-.48 2.475-.47 2.383 1.943 2.26 2.414-.123 2.506-.143 2.874-2.035v.061z" fill="#000"/><path d="M239.477 41.964a21.857 21.857 0 00-3.16-.276c-.737 0-1.023-.297-1.023-1.023A16.474 16.474 0 00234.271 36c-.215-.583-.143-.91.593-.941 1.146 0 2.291-.123 3.427-.256a1.122 1.122 0 011.401.962 35.24 35.24 0 01.89 5.4c.163.706-.225.91-1.105.798z" fill="url(#paint0_linear_689_16020)"/><path d="M239.354 47.333c.563.092.829.297.727.89a293.968 293.968 0 00-.849 3.303c-.133.481-.368.655-.89.47a59.81 59.81 0 00-3.508-1.022c-.665-.174-.808-.532-.604-1.176.253-.815.455-1.645.604-2.486.123-.675.378-.88 1.023-.695a76.23 76.23 0 003.497.716z" fill="url(#paint1_linear_689_16020)"/><path d="M235.447 27.5a17.792 17.792 0 012.537 3.918c.123.604-.307.604-.583.685-1.207.379-2.424.706-3.631 1.085a.737.737 0 01-1.023-.43 20.038 20.038 0 00-2.608-3.549c-.409-.45-.45-.716.276-.849a28.052 28.052 0 004.306-.92c.317-.082.542-.144.726.06z" fill="url(#paint2_linear_689_16020)"/><path d="M236.532 56.58c.47.163.634.408.399.91a56.192 56.192 0 01-2.659 4.95.83.83 0 01-.553.47c-.153-.082-.337-.174-.511-.286-1.023-.614-2.046-1.248-3.068-1.851-.491-.287-.696-.573-.358-1.156a122.338 122.338 0 002.352-4.419c.246-.49.511-.532.941-.255a16.078 16.078 0 003.457 1.636z" fill="url(#paint3_linear_689_16020)"/><path d="M227.142 20.025a35.273 35.273 0 014.53 3.354c.594.512.399.778-.245.952l-.225.081c-1.688.277-3.171 2.046-4.909 1.218-1.565-.706-2.967-1.852-4.767-2.895a20.435 20.435 0 004.715-2.782c.318-.266.614-.113.901.072z" fill="url(#paint4_linear_689_16020)"/><path d="M230.671 67.595c.184.184-.297.624-.522.91-.706.89-1.207 2.22-2.209 2.516-1.002.297-1.944-.808-2.936-1.258-1.83-.859-1.82-.89-.542-2.485.614-.767 1.197-1.555 1.811-2.322.174-.215.378-.409.624-.675 1.299 1.125 2.577 2.23 3.774 3.314z" fill="url(#paint5_linear_689_16020)"/><path d="M224.258 74.693c.095.11.184.226.265.347a2.346 2.346 0 01-.756 1.023c-2.22 2.353-2.22 2.353-4.838.542-1.78-1.237-1.78-1.237-.287-2.761a81.546 81.546 0 001.688-1.78c.307-.327.573-.409.931-.082l2.997 2.71z" fill="url(#paint6_linear_689_16020)"/><path d="M220.648 16.65c.603.245.675.52.061.879a239.272 239.272 0 00-4.306 2.547 1.164 1.164 0 01-1.023.092l-3.907-1.29a48.15 48.15 0 005.114-3.558c.194-.174.471-.072.696 0 1.094.45 2.229.88 3.365 1.33z" fill="url(#paint7_linear_689_16020)"/><path d="M217.19 81.495c.225.255.43.552.103.849a120.92 120.92 0 01-3.13 2.74c-.115.065-.239.11-.368.134l-2.21-1.29c-2.424-1.39-2.424-1.39-.317-3.221.798-.695 1.606-1.38 2.373-2.117.471-.46.798-.399 1.187.092.777.951 1.575 1.872 2.362 2.813z" fill="url(#paint8_linear_689_16020)"/><path d="M210.061 13.264c.787.154.706.45.194.93a24.847 24.847 0 00-2.935 3.07c-.205.265-.43.5-.808.439l-7.027-1.217a53.662 53.662 0 003.774-4.214c.225-.307.593-.245.91-.184l5.892 1.176z" fill="url(#paint9_linear_689_16020)"/><path d="M209.059 88.347c.296.266.562.512.102.86l-5.114 3.804c-.15.09-.307.164-.47.225a5.038 5.038 0 01-.502-.317c-1.022-.87-2.045-1.76-3.068-2.618-.409-.338-.327-.594 0-.87a491.727 491.727 0 005.196-3.856c.429-.327.705-.194 1.023.144.992.9 1.912 1.759 2.833 2.628z" fill="url(#paint10_linear_689_16020)"/><path d="M198.8 96.386c0 .379-.286.491-.511.645-1.125.746-2.25 1.472-3.376 2.209a.938.938 0 01-1.227.051c-1.023-.808-2.158-1.606-3.242-2.393-.573-.4-.522-.716 0-1.084a223.455 223.455 0 004.633-2.966c.379-.246.706-.41 1.023 0l2.465 3.19c.092.106.171.223.235.348z" fill="url(#paint11_linear_689_16020)"/><path d="M192.162 10.82c1.309.102 2.608.214 3.907.296.593 0 .88.174.419.777-.91 1.207-1.8 2.424-2.7 3.641a1.024 1.024 0 01-.931.45c-1.145-.071-2.28-.143-3.426-.194-.532 0-.695-.307-.655-.798a98.45 98.45 0 00.266-3.539c0-.542.318-.685.798-.675l2.322.041z" fill="url(#paint12_linear_689_16020)"/><path d="M188.899 102.042c.328.44.297.716-.163 1.023l-4.47 2.557a.59.59 0 01-.777 0c-1.095-.91-2.22-1.81-3.314-2.72-.338-.277-.634-.594 0-.931a642.9 642.9 0 005.656-3.212c.102-.061.225-.092.307-.133.327 0 .45.215.583.41.706.95 1.422 2.004 2.178 3.006z" fill="url(#paint13_linear_689_16020)"/><path d="M186.966 75.562c.593.829.123 1.606-.194 2.414-3.467 8.724-10.341 14.984-15.976 22.123-.133.153-.338.286-.399.46-.788 2.312-2.7 2.864-4.787 2.854-9.399 0-18.666 1.432-27.963 2.454-5.441.604-10.739 2.138-16.15 2.977-5.85.92-11.762 1.514-17.592 2.547a192.359 192.359 0 01-19.177 2.7c-7.619.67-15.285.557-22.88-.338-1.084-.143-2.118-.532-3.232-.603-1.371-.082-1.545-1.023-1.023-2.424 1.023-3.007 3.293-4.981 5.43-7.098a138.545 138.545 0 0010.781-11.405 4.79 4.79 0 001.125-1.77c-2.915.932-5.82 1.167-8.591 1.995-.42.154-.85.274-1.289.358-.818.103-1.79.491-2.332-.47a2.22 2.22 0 01.48-2.383c3.54-5.114 7.16-10.228 10.658-15.404a6.984 6.984 0 014.398-3.15c3.672-.94 7.16-2.506 10.903-3.273a14.923 14.923 0 008.07-4.572c7.753-7.977 15.158-16.272 22.675-24.465a47.968 47.968 0 004.214-5.993c.86-1.29 1.555-2.373 3.509-2.476a46.906 46.906 0 005.86-1.196c5.298-1.023 10.433-2.793 15.813-3.386 4.346-.49 8.663-1.207 12.958-2.045a45.09 45.09 0 005.421-.91c1.023-.338 1.841.644 1.524 1.83a14.628 14.628 0 01-2.137 4.644c-4.828 6.985-10.607 13.163-16.212 19.504-.307.338-.757.635-.726 1.33l4.091-1.35c2.769-1 5.646-1.67 8.571-1.994 1.33-.123 2.588 0 3.365 1.227.778 1.227.287 2.444-.429 3.549a57.51 57.51 0 01-4.01 5.42 68.304 68.304 0 00-5.666 7.692c-1.023 1.637-2.342 2.936-4.521 2.813a6.403 6.403 0 00-3.068.818c-3.488 1.637-7.282 2.046-11.036 2.65-1.902.286-3.795.592-5.697.869-.471.071-.88.184-1.023.695-1.299 4.091-3.958 7.293-6.413 10.668-.133.184-.358.348-.296.726a9.2 9.2 0 003.17-.348c10.228-2.107 20.548-2.945 30.756-4.838 4.664-.869 9.205-2.199 13.971-2.638a63.007 63.007 0 018.448-.43 14.716 14.716 0 004.194-.757c.879-.225 1.82-.47 2.434.4zm-8.182 6.73c.225-.256.644-.542.409-.93-.235-.39-.675-.175-1.023-.154-3.884.12-7.751.575-11.558 1.36-2.669.614-5.369 1.023-8.069 1.545-7.968 1.452-16.048 2.045-24.067 3.068a143.955 143.955 0 01-16.221 1.606 6.971 6.971 0 01-1.954-.123 2.041 2.041 0 01-1.439-1.346 2.046 2.046 0 01.365-1.937c1.79-1.79 3.222-3.877 4.991-5.697a29.014 29.014 0 004.92-6.229 36.258 36.258 0 012.741-4.766c.45-.604.941-1.197 1.78-1.094a9.063 9.063 0 002.782-.256 85.85 85.85 0 008.97-2.506c3.467-1.023 7.098-1.565 10.473-2.966a2.59 2.59 0 001.371-.941 83.173 83.173 0 015.676-7.692c.195-.245.604-.46.338-1.022-.552.133-1.105.255-1.637.419-4.347 1.31-8.704 2.567-12.928 4.245-1.974.787-3.16.583-3.876-.522-.716-1.105-.368-2.046 1.023-3.641 6.31-7.088 12.406-14.32 18.103-21.94.256-.337.634-.643.614-1.226-.328 0-.645 0-.962.081-3.549.563-7.098 1.166-10.647 1.688-5.216.767-10.412 1.585-15.649 2.189-2.567.307-4.95.808-6.587 3.303-1.094 1.667-2.986 2.762-4.183 4.45-4.643 6.525-9.665 12.774-14.616 19.075-2.659 3.375-5.625 6.484-8.438 9.716a3.621 3.621 0 01-2.853 1.688 15.963 15.963 0 00-4.091.47c-3.887.86-7.528 2.527-11.374 3.427a9.113 9.113 0 00-5.42 3.58c-1.484 1.922-3.069 3.722-4.695 5.574l.163.296c2.486-1.677 5.41-1.687 8.183-2.383a7.057 7.057 0 013.63-.286c1.023.296 1.453 1.115.83 1.943-1.484 1.954-2.537 4.183-4.092 6.137-4.224 5.41-8.407 10.862-12.6 16.293a5.462 5.462 0 00-1.228 1.974c.32.016.64.016.961 0a180.247 180.247 0 0119.229-.9 47.31 47.31 0 008.08-.205c8.182-1.421 16.365-2.71 24.547-3.927 5.37-.808 10.647-2.271 16.027-2.997 10.156-1.38 20.323-2.915 30.623-2.823a1.73 1.73 0 001.493-.644c4.111-4.859 7.794-10.106 11.885-14.974z" fill="url(#paint14_linear_689_16020)"/><path d="M184.072 10.717c.665 0 .9.215.665.88a16.363 16.363 0 00-.9 3.426c-.062.553-.348.757-.89.767-1.759 0-3.508.082-5.268.143-.562 0-.787-.214-.859-.767a50.99 50.99 0 00-.491-3.262c-.133-.686 0-1.023.778-1.023h3.549v-.205c1.135.051 2.281.062 3.416.041z" fill="url(#paint15_linear_689_16020)"/><path d="M170.09 11.444c.879-.133 1.319.112 1.217 1.022v1.463c.102 2.332.102 2.332-2.24 2.577-2.803.307-2.803.307-3.713-2.332-.767-2.209-.767-2.22 1.585-2.454 1.044-.062 2.107-.133 3.151-.277z" fill="url(#paint16_linear_689_16020)"/><path d="M168.556 107.811a825.558 825.558 0 006.792-3.386c.378-.184.746-.378 1.023.133a11.809 11.809 0 002.546 3.263c.069.085.127.178.174.276 0 .338-.276.42-.491.522l-5.554 2.833c-.296.143-.644.327-.879 0-.921-1.319-2.435-1.749-3.672-2.577-.614-.43-.624-.716.061-1.064z" fill="url(#paint17_linear_689_16020)"/><path d="M163.81 110.767a12.956 12.956 0 003.805 3.345c-2.905 1.268-5.523 2.403-8.131 3.559a.722.722 0 01-.277.097.724.724 0 01-.556-.15.74.74 0 01-.19-.223 43.683 43.683 0 00-2.353-2.813c-.562-.603-.623-.931.236-1.289 2.117-.859 4.203-1.79 6.3-2.71.44-.194.798-.297 1.166.184z" fill="url(#paint18_linear_689_16020)"/><path d="M161.335 16.65c.082.654-.184.848-.788.92-1.575.204-3.15.43-4.715.706a1.084 1.084 0 01-1.37-.655 14.983 14.983 0 00-2.046-2.894c-.47-.563-.378-.808.338-.931 2.465-.389 4.909-.808 7.364-1.217.644-.123.89.122.92.777.051 1.094.154 2.2.297 3.293z" fill="url(#paint19_linear_689_16020)"/><path d="M153.327 119.287c.399.491.328.777-.245 1.023l-7.804 2.915c-.348.133-.665.153-.777-.277a533.594 533.594 0 01-1.115-4.019c-.072-.471.215-.634.593-.778 2.148-.797 4.296-1.585 6.423-2.424.644-.245.88 0 1.105.553a14.114 14.114 0 001.82 3.007z" fill="url(#paint20_linear_689_16020)"/><path d="M149.798 18.685c.123.378.062.624-.378.716l-4.47.93c-.215-.05-.522 0-.665-.163a28.68 28.68 0 01-3.17-3.232c-.358-.48-.174-.737.347-.85 2.118-.45 4.245-.889 6.352-1.35.522-.112.757.103.9.563.348 1.095.716 2.26 1.084 3.386z" fill="url(#paint21_linear_689_16020)"/><path d="M137.872 120.78c.061 1.419.409 2.81 1.023 4.091.092.522-.246.614-.563.706l-6.137 1.953a.718.718 0 01-.608.027.734.734 0 01-.414-.446c-.532-1.146-1.023-2.291-1.657-3.406-.317-.604 0-.798.47-.951l7.006-2.189c.42-.153.88-.378.88.215z" fill="url(#paint22_linear_689_16020)"/><path d="M135.827 20.986c.419 1.023.215 1.503-.931 1.728-1.554.317-3.068.798-4.612 1.207l-.686.184c-.388.062-.532-.194-.675-.44-.593-1.022-1.155-2.045-1.769-3.068-.297-.49-.164-.747.348-.89l6.862-1.871c.512-.144.747 0 .839.552.135.882.344 1.75.624 2.598z" fill="url(#paint23_linear_689_16020)"/><path d="M125.845 128.533c.194.501.102.757-.42.89a881.22 881.22 0 00-7.108 1.81.644.644 0 01-.586-.026.632.632 0 01-.314-.496 87.276 87.276 0 00-1.023-3.416c-.102-.388-.215-.849.358-1.023l7.016-1.8c.573-.133.716.174.849.553.43 1.196.808 2.362 1.228 3.508z" fill="url(#paint24_linear_689_16020)"/><path d="M123.554 25.098c.256.583 0 .797-.532.95a132.67 132.67 0 00-3.958 1.259.919.919 0 01-1.023-.164c-1.022-.9-2.045-1.8-2.996-2.71-.287-.256-.604-.604 0-.808 2.311-.798 4.633-1.555 6.955-2.322.49 0 .562.307.623.634.188 1.086.5 2.146.931 3.16z" fill="url(#paint25_linear_689_16020)"/><path d="M112.425 28.667c.379.511.389.798-.307 1.023-2.608.94-5.206 1.933-7.804 2.915-.398.153-.767.256-1.125-.092-1.022-1.023-2.137-2.046-3.252-3.069a11.811 11.811 0 012.966-1.36c2.209-.87 4.439-1.667 6.638-2.547.716-.276 1.125-.214 1.412.563.363.922.859 1.787 1.472 2.567z" fill="url(#paint26_linear_689_16020)"/><path d="M111.607 132.031c.143.634-.194.777-.572.859l-4.675.941a.716.716 0 01-1.023-.583 47.955 47.955 0 00-1.022-3.396c-.205-.613-.072-.91.573-1.023 1.8-.337 3.59-.705 5.39-1.022.46-.092.828-.062.849.532.053 1.242.213 2.477.48 3.692z" fill="url(#paint27_linear_689_16020)"/><path d="M100.367 133.861c.225.911-.205 1.023-.686 1.125l-7.16 1.023c-.5.062-.858 0-.93-.644a50.957 50.957 0 00-.532-3.508c-.112-.614 0-.89.706-1.023 2.462-.307 4.923-.648 7.385-1.023.685-.112 1.022 0 1.022.757.041 1.217.133 2.424.195 3.293z" fill="url(#paint28_linear_689_16020)"/><path d="M96.96 31.101c.593 1.023 1.217 2.118 1.83 3.181 0 .072.062.144.113.246 0 .358-.296.42-.552.521-1.606.706-3.222 1.402-4.828 2.118a1.024 1.024 0 01-1.135-.072c-1.023-.777-2.117-1.544-3.18-2.301-.522-.358-.41-.624.091-.86l6.832-3.068c.297-.153.573-.153.829.235z" fill="url(#paint29_linear_689_16020)"/><path d="M87.132 39.253c.368.368.42.644-.133.92-2.772 1.381-5.523 2.793-8.295 4.184-.133.062-.27.117-.41.163a.911.911 0 01-.695-.286c-.88-.736-1.738-1.483-2.639-2.189-.572-.45-.47-.716.134-1.023l8.806-4.53c.378-.195.716-.358 1.022.133.64.953 1.38 1.835 2.21 2.628z" fill="url(#paint30_linear_689_16020)"/><path d="M83.961 131.683c2.127-.133 2.127-.133 2.046 1.933v.982c0 2.117 0 2.117-2.118 2.25h-.848c-2.424.153-2.424.153-2.394-2.332 0-2.649 0-2.649 2.639-2.823l.675-.01z" fill="url(#paint31_linear_689_16020)"/><path d="M75.482 132.154c.737 0 .92.245.747.951a13.591 13.591 0 00-.48 2.761c0 1.095-.42 1.494-1.535 1.453-2.189-.072-4.398-.051-6.597 0-.89 0-1.32-.205-1.023-1.197a13.29 13.29 0 00.358-1.923c.317-2.362.195-1.943 2.281-1.943h2.69v-.072c1.217-.02 2.393.011 3.56-.03z" fill="url(#paint32_linear_689_16020)"/><path d="M72.19 47.077c.347.379.419.655-.093.951-2.485 1.483-4.96 2.987-7.446 4.48a3.51 3.51 0 01-.45.194 6.69 6.69 0 01-1.83-.971c-2.731-1.575-2.731-1.596-.082-3.242 2.147-1.33 4.336-2.598 6.484-3.938a.931.931 0 011.504.307 20.668 20.668 0 001.912 2.22z" fill="url(#paint33_linear_689_16020)"/><path d="M61.551 136.347c-.358 1.023-1.186.378-1.8.532-1.462-.174-2.915-.379-4.377-.501-.808-.072-.972-.43-.716-1.125 0-.082 0-.164.071-.236.42-1.145.226-2.731 1.105-3.416.88-.685 2.342.092 3.56.123 1.022 0 1.953.163 2.925.245.542 0 .705.266.511.798-.45 1.187-.849 2.383-1.279 3.58z" fill="url(#paint34_linear_689_16020)"/><path d="M59.384 55.26c.112.134.211.277.297.43-.225.173-.4.337-.594.47-1.626 1.156-3.262 2.301-4.889 3.467a1.023 1.023 0 01-1.237.164c-1.023-.573-2.179-1.095-3.283-1.647-.553-.266-.645-.562-.092-.951a370.762 370.762 0 006.065-4.357c.327-.225.644-.338 1.023 0l2.71 2.424z" fill="url(#paint35_linear_689_16020)"/><path d="M51.047 130.589c.542.123.655.358.4.859a74.05 74.05 0 00-1.596 3.314.846.846 0 01-1.023.542c-2.557-.532-5.114-1.166-7.59-1.943-.45-.133-.93-.287-.378-.89a764.37 764.37 0 002.803-3.069.666.666 0 01.859-.214l6.525 1.401z" fill="url(#paint36_linear_689_16020)"/><path d="M43.55 68.147a1.085 1.085 0 01-.921.225 24.163 24.163 0 01-4.02-1.023c-.532-.204-.634-.48-.184-.87l5.83-5.062a.685.685 0 011.023 0 34.622 34.622 0 002.567 2.046c.42.327.522.562.072.94a549.945 549.945 0 01-4.367 3.744z" fill="url(#paint37_linear_689_16020)"/><path d="M38.835 127.224c.819.296.89.634.4 1.309a32.9 32.9 0 00-1.709 2.68.83.83 0 01-.504.481.824.824 0 01-.692-.083 45.703 45.703 0 01-8.183-4.357c-.368-.245-.706-.501-.204-.93 1.022-.849 1.984-1.698 2.976-2.527.141-.091.292-.166.45-.225.225.123.45.225.654.348a39.515 39.515 0 006.812 3.304z" fill="url(#paint38_linear_689_16020)"/><path d="M38.6 71.717c.522.255.563.521.164.91a119.88 119.88 0 00-6.33 6.822.797.797 0 01-.757.378l-4.092-.695c-.573-.102-.685-.348-.307-.829a92.68 92.68 0 017.498-8.397.624.624 0 01.96-.071 13.92 13.92 0 002.865 1.882z" fill="url(#paint39_linear_689_16020)"/><path d="M24.046 116.74a21.4 21.4 0 002.976 3.396c.4.368.512.654.092 1.104a41.636 41.636 0 00-2.147 2.516c-.369.461-.665.481-1.084.072a26.504 26.504 0 01-4.624-5.83c-.204-.358-.5-.787.174-.941 1.268-.286 2.557-.521 3.836-.767.378-.082.573.184.777.45z" fill="url(#paint40_linear_689_16020)"/><path d="M23.627 91.283c-.655 0-1.31.061-2.118.102-.603-.05-1.677.532-2.045 0-.369-.532.399-1.473.777-2.168.9-1.698 1.913-3.324 2.833-5.012.44-.798.93-1.104 1.862-.695.911.36 1.848.654 2.802.88.542.163.624.408.307.879a53.523 53.523 0 00-3.304 5.441 1.146 1.146 0 01-1.114.573z" fill="url(#paint41_linear_689_16020)"/><path d="M21.417 111.626c.246.685 0 1.023-.644 1.156-.47.122-.92.317-1.38.48-2.108.757-2.118.757-2.64-1.472-.296-1.32-.521-2.649-.818-3.959-.133-.572 0-.767.593-.675l3.406.338c.43 0 .675.225.696.685.103 1.18.367 2.34.787 3.447z" fill="url(#paint42_linear_689_16020)"/><path d="M19.3 97.828c2.312.266 2.312.266 1.872 2.476-.368 1.851-.368 1.851-2.874 1.974-2.506.122-2.414.122-1.943-2.261.47-2.383.48-2.475 2.945-2.189z" fill="url(#paint43_linear_689_16020)"/><path d="M242.73 76.094c.521 1.596 1.084 3.17 1.534 4.787a427.33 427.33 0 015.114 20.2c.061.266 0 .655.307.757.306.102.542-.297.716-.532a279.631 279.631 0 003.293-4.429c.194-.255.47-.562.337-.88-.746-1.779-.552-3.702-.9-5.543-.951-5.052-2.454-9.992-3.334-15.066-.45-2.649-1.023-5.267-1.575-7.896l-.317-.081a105.828 105.828 0 01-5.196 7.538c-.348.398-.112.767.021 1.145zm-2.404 2.117a1.917 1.917 0 00-.44.236c-2.71 3.17-5.523 6.239-8.53 9.123-.409.399-.276.767-.123 1.217.737 2.168 1.473 4.326 2.148 6.515 1.821 5.892 2.833 11.987 4.46 17.93.255.92.521 1.023 1.166.337 1.605-1.626 3.191-3.283 4.889-4.807a3.724 3.724 0 001.217-4.091c-1.483-7.22-2.731-14.503-4.091-21.765-.246-1.514-.45-3.1-.696-4.695zm-34.356 30.531c-.092-.911-.521-.471-.879-.256-2.803 1.759-5.585 3.539-8.408 5.288-.583.358-.583.736-.398 1.319 2.362 7.692 5.492 15.138 7.517 22.931.072.277.123.583.542.563a2.74 2.74 0 00.317-.143l6.311-3.764c.501-.297.46-.685.307-1.156a64.776 64.776 0 01-1.903-7.988c-1.084-5.605-2.812-11.087-3.406-16.794zm2.189-1.34a45.228 45.228 0 012.046 5.247c2.045 5.82 3.692 11.772 5.277 17.735.236.89.522 1.187 1.391.552 1.944-1.421 3.959-2.751 5.933-4.091.358-.245.808-.47.705-1.207-.102-.736-.337-1.759-.542-2.71-1.636-7.671-3.579-15.281-4.367-23.115-.082-.87-.419-.686-.9-.307-3.007 2.332-6.065 4.592-9.205 6.72a.786.786 0 00-.456.517.81.81 0 00.118.679v-.02zm20.681-16.16c-.133-.655-.184-1.074-.91-.43a425.323 425.323 0 01-6.485 5.626.913.913 0 00-.266 1.165 147.738 147.738 0 011.647 5.258 328.423 328.423 0 014.828 18.737c.307 1.299.347 1.33 1.421.471a440.982 440.982 0 004.46-3.652c.276-.225.624-.429.562-.879-.061-.45-.317-1.176-.46-1.78-1.954-8.1-3.109-16.354-4.797-24.516zm-118.256 80.085c.962-.123 1.023-.471.594-1.258a26.613 26.613 0 01-1.391-3.069 132.09 132.09 0 01-5.319-17.561c-.194-.89-.521-1.084-1.411-.921-2.977.512-5.963.962-8.96 1.371-.849.123-1.115.348-.87 1.248 1.893 6.883 3.407 13.869 4.798 20.865.143.736.43 1.022 1.145.93 3.805-.572 7.61-1.074 11.414-1.605zm3.243-1.749c.153.593.245 1.217 1.166 1.022 3.355-.675 6.72-1.319 10.095-1.963.634-.123.767-.42.542-1.023-2.649-7.037-4.531-14.319-6.863-21.479-.174-.542-.368-.818-1.023-.665-2.547.583-5.114 1.115-7.661 1.657-.48.103-.736.307-.664.839.531 2.935 1.022 5.871 1.616 8.796.838 4.306 1.718 8.581 2.792 12.816zM70 173.035c.113.654.399.818.961.818h5.268v.153h3.682c2.588 0 2.496 0 1.636-2.383a1084.436 1084.436 0 01-6.617-18.707c-.327-.961-.716-1.36-1.79-1.299-2.046.123-4.163.082-6.25.092-1.544 0-1.523 0-1.196 1.483 1.463 6.597 3.13 13.174 4.306 19.843zm-3.508.603c.828.092.87-.215.583-.9-2.506-5.871-4.235-12.018-6.209-18.073-.337-1.023-.194-2.465-1.104-2.996-.91-.532-2.148-.287-3.242-.359-1.494-.102-1.494-.081-1.146 1.33 1.401 5.707 2.741 11.435 4.408 17.081.328 1.115.113 2.659 1.023 3.263.91.603 2.281.378 3.457.531a23.09 23.09 0 012.23.123zM43.52 151.75a192.741 192.741 0 005.84 18.687c.235.644.491 1.155 1.289 1.268 1.902.266 3.794.593 5.687.9.849.143.92-.153.552-.839a45.048 45.048 0 01-2.516-5.717c-1.76-4.705-3.069-9.532-4.593-14.319-.163-.542-.235-1.115-1.022-1.207-1.657-.215-3.314-.491-4.88-.726-.674-.143-.97 0-.746.675.164.409.276.849.389 1.278zm3.14 19.096c.02-.37-.096-.734-.327-1.023a63.435 63.435 0 01-4.337-9.062c-1.493-3.805-2.946-7.62-4.419-11.435a1.556 1.556 0 00-1.114-1.155c-2.046-.543-4-1.166-5.994-1.749-.225-.072-.48-.266-.695-.082-.215.184 0 .542.081.777 3.069 6.781 5.564 13.787 8.244 20.722.153.399.307.777.747.91a76.375 76.375 0 007.814 2.087v.01zM16.702 79.091a54.668 54.668 0 00-11.915 23.003c-3.243 13.091.838 24.271 11.741 32.238a56.378 56.378 0 0018.032 8.387c10.862 3.068 22 4.091 32.73 4.091a210.17 210.17 0 0037.751-3.733 266.206 266.206 0 0042.385-11.65c21.959-7.998 42.732-18.297 61.735-31.993 10.965-7.896 21.05-16.753 29.324-27.513 5.053-6.556 9.205-13.593 11.363-21.683 2.394-9.205 1.463-17.766-4.48-25.468a36.817 36.817 0 00-12.324-9.92c-8.919-4.695-18.564-6.946-28.485-8.122-16.825-2.045-33.548-.818-50.199 1.923a259.478 259.478 0 00-43.847 11.322c-24.65 8.633-47.765 20.19-68.804 35.798a159.02 159.02 0 00-25.007 23.32zm-3.856.49c12.182-17.57 28.915-29.947 46.854-40.83a269.676 269.676 0 0180.218-32.064C158.042 2.525 176.371.223 194.996.97c11.251.44 22.317 2.045 32.924 5.993 7.834 2.936 15.137 6.853 20.456 13.48a60.504 60.504 0 0111.312 21.132 218.463 218.463 0 015.114 21.478c1.022 5.524 2.045 10.985 1.779 16.641a27.442 27.442 0 01-3.068 11.967c-5.043 9.563-11.854 17.705-19.628 25.11-12.028 11.475-25.662 20.752-40.206 28.72a282.756 282.756 0 01-87.285 30.459 217.498 217.498 0 01-35.368 3.365 175.088 175.088 0 01-25.57-1.647A196.253 196.253 0 0135 174.262a45.078 45.078 0 01-5.84-1.861 19.435 19.435 0 01-10.228-8.889 182.074 182.074 0 01-10.954-23.217c-2.128-5.574-4.347-11.097-6.137-16.794-3.682-11.66-1.575-22.502 3.958-32.996a111.308 111.308 0 017.047-10.923zm246.238 6.792c.818-4.09 1.718-8.06 1.463-12.335a148.833 148.833 0 00-4.48-27.533 5.694 5.694 0 00-.286.746 50.958 50.958 0 01-4.439 13.706 2.611 2.611 0 00-.154 1.667c.328 1.688.604 3.385 1.023 5.042a2873.336 2873.336 0 005.4 21.234c.062.235 0 .603.44.654.818-.9.818-2.076 1.033-3.18zm-60.672 55.538c.378-.194.869-.348.757-.951-.501-2.404-1.023-4.777-1.759-7.16-1.647-5.635-3.529-11.25-4.45-17.04-.163-1.022-.705-.378-1.022-.194-3.601 2.046-7.16 3.999-10.903 5.83-.706.348-.819.675-.481 1.412a77.59 77.59 0 013.334 8.56c1.442 4.501 2.833 9.032 4.214 13.563.225.757.471 1.022 1.258.603 3.007-1.555 6.035-3.068 9.052-4.623zm-15.731 7.784c.849-.348 1.115-.757.798-1.657-.522-1.504-.951-3.069-1.381-4.583-1.636-5.945-3.273-11.888-4.909-17.827-.092-.348 0-.839-.522-1.023l-.685.297c-3.007 1.381-5.994 2.792-9.021 4.091-.88.389-1.023.767-.675 1.647a111.64 111.64 0 014.633 13.808c.696 2.638 1.402 5.287 2.302 7.875.286.829.644 1.187 1.605.736a365.653 365.653 0 017.855-3.364zm-14.534 6.085c.686-.245.87-.573.573-1.278a15.66 15.66 0 01-.777-2.455c-1.657-6.648-3.283-13.296-4.95-19.965-.113-.46 0-1.309-.962-.9-2.874 1.166-5.768 2.301-8.653 3.447-.337.143-.716.276-.532 1.022.481 1.473 1.085 3.13 1.545 4.818 1.595 5.83 3.263 11.639 4.296 17.602.153.849.46 1.105 1.309.778 2.7-1.085 5.431-2.077 8.151-3.069zm-13.102 4.685c.358-.113.87-.103.819-.737l-.921-2.639c-2.189-6.454-4.388-12.907-6.832-19.269-.307-.798-.593-1.084-1.504-.757-2.843 1.023-5.717 1.943-8.591 2.874-.726.225-.89.491-.542 1.207.798 1.616 1.503 3.263 2.24 4.909a127.56 127.56 0 016.075 16.007c.256.89.614 1.197 1.565.869 2.547-.869 5.134-1.636 7.691-2.464zm-14.646 4.428c.563-.143.481-.573.368-1.023-.307-1.145-.613-2.291-.93-3.426-1.77-6.198-4.092-12.273-5.462-18.553-.174-.819-.624-.665-1.176-.512-2.823.798-5.657 1.616-8.5 2.353-.828.214-1.023.542-.777 1.37a389.49 389.49 0 012.506 9.205c1.022 4.03 2.045 8.08 3.068 12.11.113.42.082 1.023 1.186.972l9.717-2.496zm-46.916 8.449c.778 0 1.023-.297.716-1.074-.48-1.34-.89-2.711-1.299-4.092-1.616-5.441-3.242-10.882-4.817-16.364-.266-.911-.685-1.238-1.647-1.115a74.917 74.917 0 01-5.247.45c-.971.051-1.309.317-.961 1.34.511 1.503.92 3.068 1.33 4.592a17209.01 17209.01 0 014.09 15.639c.205.797.553 1.094 1.35 1.022 1.024-.092 1.954-.122 2.936-.173 1.187-.052 2.363-.164 3.55-.225zm-59.465-6.27c-1.493-3.069-2.905-5.83-4.193-8.643-1.882-4.091-4.48-7.947-5.81-12.273a5.946 5.946 0 00-3.539-4.01 72.414 72.414 0 01-7.814-4.664c.042.189.1.374.174.553a478.727 478.727 0 008.816 18.87 40.334 40.334 0 002.343 3.877c2.322 3.59 6.065 4.797 10.023 6.29z" fill="url(#paint44_linear_689_16020)"/><defs><linearGradient id="paint0_linear_689_16020" x1="234.169" y1="38.374" x2="240.623" y2="38.374" gradientUnits="userSpaceOnUse"><stop stop-color="#E4BC6C"/><stop offset="1" stop-color="#E9C786" stop-opacity="0"/></linearGradient><linearGradient id="paint1_linear_689_16020" x1="234.148" y1="49.297" x2="240.101" y2="49.297" gradientUnits="userSpaceOnUse"><stop stop-color="#E4BC6C"/><stop offset="1" stop-color="#E9C786" stop-opacity="0"/></linearGradient><linearGradient id="paint2_linear_689_16020" x1="229.873" y1="30.303" x2="238.004" y2="30.303" gradientUnits="userSpaceOnUse"><stop stop-color="#E4BC6C"/><stop offset="1" stop-color="#E9C786" stop-opacity="0"/></linearGradient><linearGradient id="paint3_linear_689_16020" x1="229.669" y1="58.84" x2="237.033" y2="58.84" gradientUnits="userSpaceOnUse"><stop stop-color="#E4BC6C"/><stop offset="1" stop-color="#E9C786" stop-opacity="0"/></linearGradient><linearGradient id="paint4_linear_689_16020" x1="221.526" y1="22.817" x2="232.03" y2="22.817" gradientUnits="userSpaceOnUse"><stop stop-color="#E4BC6C"/><stop offset="1" stop-color="#E9C786" stop-opacity="0"/></linearGradient><linearGradient id="paint5_linear_689_16020" x1="223.562" y1="67.677" x2="230.712" y2="67.677" gradientUnits="userSpaceOnUse"><stop stop-color="#E4BC6C"/><stop offset="1" stop-color="#E9C786" stop-opacity="0"/></linearGradient><linearGradient id="paint6_linear_689_16020" x1="217.558" y1="74.795" x2="224.523" y2="74.795" gradientUnits="userSpaceOnUse"><stop stop-color="#E4BC6C"/><stop offset="1" stop-color="#E9C786" stop-opacity="0"/></linearGradient><linearGradient id="paint7_linear_689_16020" x1="211.442" y1="17.733" x2="221.139" y2="17.733" gradientUnits="userSpaceOnUse"><stop stop-color="#E4BC6C"/><stop offset="1" stop-color="#E9C786" stop-opacity="0"/></linearGradient><linearGradient id="paint8_linear_689_16020" x1="209.724" y1="81.75" x2="217.466" y2="81.75" gradientUnits="userSpaceOnUse"><stop stop-color="#E4BC6C"/><stop offset="1" stop-color="#E9C786" stop-opacity="0"/></linearGradient><linearGradient id="paint9_linear_689_16020" x1="199.485" y1="14.921" x2="210.644" y2="14.921" gradientUnits="userSpaceOnUse"><stop stop-color="#E4BC6C"/><stop offset="1" stop-color="#E9C786" stop-opacity="0"/></linearGradient><linearGradient id="paint10_linear_689_16020" x1="199.772" y1="89.309" x2="209.406" y2="89.309" gradientUnits="userSpaceOnUse"><stop stop-color="#E4BC6C"/><stop offset="1" stop-color="#E9C786" stop-opacity="0"/></linearGradient><linearGradient id="paint11_linear_689_16020" x1="190.035" y1="96.049" x2="198.8" y2="96.049" gradientUnits="userSpaceOnUse"><stop stop-color="#E4BC6C"/><stop offset="1" stop-color="#E9C786" stop-opacity="0"/></linearGradient><linearGradient id="paint12_linear_689_16020" x1="188.766" y1="13.428" x2="196.713" y2="13.428" gradientUnits="userSpaceOnUse"><stop stop-color="#E4BC6C"/><stop offset="1" stop-color="#E9C786" stop-opacity="0"/></linearGradient><linearGradient id="paint13_linear_689_16020" x1="179.797" y1="102.124" x2="189.114" y2="102.124" gradientUnits="userSpaceOnUse"><stop stop-color="#E4BC6C"/><stop offset="1" stop-color="#E9C786" stop-opacity="0"/></linearGradient><linearGradient id="paint14_linear_689_16020" x1="57.347" y1="68.76" x2="187.293" y2="68.76" gradientUnits="userSpaceOnUse"><stop stop-color="#E4BC6C"/><stop offset="1" stop-color="#E9C786" stop-opacity="0"/></linearGradient><linearGradient id="paint15_linear_689_16020" x1="176.288" y1="13.325" x2="184.829" y2="13.325" gradientUnits="userSpaceOnUse"><stop stop-color="#E4BC6C"/><stop offset="1" stop-color="#E9C786" stop-opacity="0"/></linearGradient><linearGradient id="paint16_linear_689_16020" x1="164.894" y1="14.052" x2="171.337" y2="14.052" gradientUnits="userSpaceOnUse"><stop stop-color="#E4BC6C"/><stop offset="1" stop-color="#E9C786" stop-opacity="0"/></linearGradient><linearGradient id="paint17_linear_689_16020" x1="168.045" y1="107.934" x2="179.142" y2="107.934" gradientUnits="userSpaceOnUse"><stop stop-color="#E4BC6C"/><stop offset="1" stop-color="#E9C786" stop-opacity="0"/></linearGradient><linearGradient id="paint18_linear_689_16020" x1="155.679" y1="114.101" x2="167.615" y2="114.101" gradientUnits="userSpaceOnUse"><stop stop-color="#E4BC6C"/><stop offset="1" stop-color="#E9C786" stop-opacity="0"/></linearGradient><linearGradient id="paint19_linear_689_16020" x1="152.13" y1="15.432" x2="161.345" y2="15.432" gradientUnits="userSpaceOnUse"><stop stop-color="#E4BC6C"/><stop offset="1" stop-color="#E9C786" stop-opacity="0"/></linearGradient><linearGradient id="paint20_linear_689_16020" x1="143.376" y1="119.44" x2="153.583" y2="119.44" gradientUnits="userSpaceOnUse"><stop stop-color="#E4BC6C"/><stop offset="1" stop-color="#E9C786" stop-opacity="0"/></linearGradient><linearGradient id="paint21_linear_689_16020" x1="140.931" y1="17.519" x2="149.849" y2="17.519" gradientUnits="userSpaceOnUse"><stop stop-color="#E4BC6C"/><stop offset="1" stop-color="#E9C786" stop-opacity="0"/></linearGradient><linearGradient id="paint22_linear_689_16020" x1="129.465" y1="123.961" x2="139.007" y2="123.961" gradientUnits="userSpaceOnUse"><stop stop-color="#E4BC6C"/><stop offset="1" stop-color="#E9C786" stop-opacity="0"/></linearGradient><linearGradient id="paint23_linear_689_16020" x1="127.031" y1="20.945" x2="136.062" y2="20.945" gradientUnits="userSpaceOnUse"><stop stop-color="#E4BC6C"/><stop offset="1" stop-color="#E9C786" stop-opacity="0"/></linearGradient><linearGradient id="paint24_linear_689_16020" x1="116.363" y1="127.878" x2="125.937" y2="127.878" gradientUnits="userSpaceOnUse"><stop stop-color="#E4BC6C"/><stop offset="1" stop-color="#E9C786" stop-opacity="0"/></linearGradient><linearGradient id="paint25_linear_689_16020" x1="114.738" y1="24.341" x2="123.687" y2="24.341" gradientUnits="userSpaceOnUse"><stop stop-color="#E4BC6C"/><stop offset="1" stop-color="#E9C786" stop-opacity="0"/></linearGradient><linearGradient id="paint26_linear_689_16020" x1="99.937" y1="29.086" x2="112.681" y2="29.086" gradientUnits="userSpaceOnUse"><stop stop-color="#E4BC6C"/><stop offset="1" stop-color="#E9C786" stop-opacity="0"/></linearGradient><linearGradient id="paint27_linear_689_16020" x1="104.264" y1="130.793" x2="111.638" y2="130.793" gradientUnits="userSpaceOnUse"><stop stop-color="#E4BC6C"/><stop offset="1" stop-color="#E9C786" stop-opacity="0"/></linearGradient><linearGradient id="paint28_linear_689_16020" x1="91.049" y1="132.91" x2="100.428" y2="132.91" gradientUnits="userSpaceOnUse"><stop stop-color="#E4BC6C"/><stop offset="1" stop-color="#E9C786" stop-opacity="0"/></linearGradient><linearGradient id="paint29_linear_689_16020" x1="88.839" y1="34.047" x2="98.873" y2="34.047" gradientUnits="userSpaceOnUse"><stop stop-color="#E4BC6C"/><stop offset="1" stop-color="#E9C786" stop-opacity="0"/></linearGradient><linearGradient id="paint30_linear_689_16020" x1="74.582" y1="40.409" x2="87.408" y2="40.409" gradientUnits="userSpaceOnUse"><stop stop-color="#E4BC6C"/><stop offset="1" stop-color="#E9C786" stop-opacity="0"/></linearGradient><linearGradient id="paint31_linear_689_16020" x1="80.586" y1="134.291" x2="86.027" y2="134.291" gradientUnits="userSpaceOnUse"><stop stop-color="#E4BC6C"/><stop offset="1" stop-color="#E9C786" stop-opacity="0"/></linearGradient><linearGradient id="paint32_linear_689_16020" x1="66.523" y1="134.741" x2="76.311" y2="134.741" gradientUnits="userSpaceOnUse"><stop stop-color="#E4BC6C"/><stop offset="1" stop-color="#E9C786" stop-opacity="0"/></linearGradient><linearGradient id="paint33_linear_689_16020" x1="60.315" y1="48.489" x2="72.466" y2="48.489" gradientUnits="userSpaceOnUse"><stop stop-color="#E4BC6C"/><stop offset="1" stop-color="#E9C786" stop-opacity="0"/></linearGradient><linearGradient id="paint34_linear_689_16020" x1="54.545" y1="134.117" x2="62.912" y2="134.117" gradientUnits="userSpaceOnUse"><stop stop-color="#E4BC6C"/><stop offset="1" stop-color="#E9C786" stop-opacity="0"/></linearGradient><linearGradient id="paint35_linear_689_16020" x1="49.218" y1="56.272" x2="59.681" y2="56.272" gradientUnits="userSpaceOnUse"><stop stop-color="#E4BC6C"/><stop offset="1" stop-color="#E9C786" stop-opacity="0"/></linearGradient><linearGradient id="paint36_linear_689_16020" x1="40.564" y1="132.215" x2="51.579" y2="132.215" gradientUnits="userSpaceOnUse"><stop stop-color="#E4BC6C"/><stop offset="1" stop-color="#E9C786" stop-opacity="0"/></linearGradient><linearGradient id="paint37_linear_689_16020" x1="38.139" y1="64.761" x2="48.254" y2="64.761" gradientUnits="userSpaceOnUse"><stop stop-color="#E4BC6C"/><stop offset="1" stop-color="#E9C786" stop-opacity="0"/></linearGradient><linearGradient id="paint38_linear_689_16020" x1="27.687" y1="127.653" x2="39.541" y2="127.653" gradientUnits="userSpaceOnUse"><stop stop-color="#E4BC6C"/><stop offset="1" stop-color="#E9C786" stop-opacity="0"/></linearGradient><linearGradient id="paint39_linear_689_16020" x1="27.064" y1="74.744" x2="39.03" y2="74.744" gradientUnits="userSpaceOnUse"><stop stop-color="#E4BC6C"/><stop offset="1" stop-color="#E9C786" stop-opacity="0"/></linearGradient><linearGradient id="paint40_linear_689_16020" x1="19.014" y1="120.197" x2="27.38" y2="120.197" gradientUnits="userSpaceOnUse"><stop stop-color="#E4BC6C"/><stop offset="1" stop-color="#E9C786" stop-opacity="0"/></linearGradient><linearGradient id="paint41_linear_689_16020" x1="19.341" y1="87.448" x2="28.229" y2="87.448" gradientUnits="userSpaceOnUse"><stop stop-color="#E4BC6C"/><stop offset="1" stop-color="#E9C786" stop-opacity="0"/></linearGradient><linearGradient id="paint42_linear_689_16020" x1="15.894" y1="110.429" x2="21.509" y2="110.429" gradientUnits="userSpaceOnUse"><stop stop-color="#E4BC6C"/><stop offset="1" stop-color="#E9C786" stop-opacity="0"/></linearGradient><linearGradient id="paint43_linear_689_16020" x1="16.109" y1="100.007" x2="21.397" y2="100.007" gradientUnits="userSpaceOnUse"><stop stop-color="#E4BC6C"/><stop offset="1" stop-color="#E9C786" stop-opacity="0"/></linearGradient><linearGradient id="paint44_linear_689_16020" x1=".031" y1="90.086" x2="266.581" y2="90.086" gradientUnits="userSpaceOnUse"><stop stop-color="#E4BC6C"/><stop offset="1" stop-color="#E9C786" stop-opacity="0"/></linearGradient></defs></svg>