<svg width="239" height="49" fill="none" xmlns="http://www.w3.org/2000/svg"><path d="M9.696 34L.228 1.454h6.737l4.233 16.16 1.41 7.1h.092a212.09 212.09 0 011.502-6.919l3.55-16.341h6.373l3.55 16.296 1.503 6.964h.09c.638-2.883 1.169-5.265 1.594-7.146l4.097-16.114h6.509L32.182 34h-6.145l-3.96-17.434-1.138-5.78h-.091c-.334 2.275-.683 4.202-1.047 5.78L15.795 34h-6.1zM49.434 1.454V13.7h.137c.88-1.275 1.836-2.2 2.867-2.777 1.063-.607 2.367-.91 3.915-.91 2.397 0 4.34.819 5.826 2.458 1.487 1.608 2.23 3.702 2.23 6.281V34h-6.19V19.662c0-1.275-.364-2.307-1.092-3.096-.698-.789-1.684-1.183-2.959-1.183-1.365 0-2.503.5-3.414 1.502-.88 1.001-1.32 2.291-1.32 3.869V34h-6.19V1.454h6.19zM82.474 34c-.304-.395-.547-1.26-.73-2.595h-.09a6.92 6.92 0 01-2.55 2.322c-1.031.546-2.472.82-4.324.82-2.458 0-4.43-.623-5.917-1.867s-2.23-3.004-2.23-5.28c0-2.367.819-4.097 2.458-5.19 1.638-1.122 3.945-1.896 6.918-2.32 2.185-.304 3.672-.608 4.461-.911.79-.334 1.184-.91 1.184-1.73 0-.85-.334-1.517-1.002-2.003-.667-.516-1.638-.774-2.913-.774-2.822 0-4.324 1.093-4.506 3.278h-5.508c.091-2.216.986-4.051 2.686-5.508 1.699-1.457 4.157-2.185 7.374-2.185 6.554 0 9.832 2.868 9.832 8.603v11.88c0 1.76.273 2.838.82 3.232V34h-5.964zm-6.192-3.778c1.7 0 3.035-.44 4.006-1.32 1.002-.88 1.502-1.927 1.502-3.14v-3.506c-.667.395-2.109.85-4.324 1.366-1.76.394-3.004.85-3.732 1.365-.729.486-1.093 1.245-1.093 2.276 0 1.973 1.214 2.959 3.641 2.959zm13.005-15.477V10.65h3.232V3.366h6.054v7.283h4.006v4.097h-4.006v12.38c0 1.548.774 2.322 2.321 2.322l1.821-.045v4.552c-.941.06-2.23.09-3.869.09-1.79 0-3.293-.424-4.506-1.274-1.214-.88-1.821-2.322-1.821-4.324V14.746h-3.232zm18.382 19.787V1.986h9.286l4.597 16.341a87.098 87.098 0 011.001 4.051c.365 1.457.638 2.61.82 3.46l.227 1.274h.091a102.413 102.413 0 012.003-8.785l4.598-16.341h9.422v32.546h-6.145V15.869l.273-6.737h-.091c-.485 2.55-.956 4.613-1.411 6.19l-5.599 19.21h-6.327l-5.462-19.21-1.411-6.19h-.091c.182 2.731.273 4.977.273 6.737v18.663h-6.054zm67.853-23.352v3.187h.137c1.608-2.55 3.915-3.824 6.919-3.824 2.397 0 4.339.82 5.826 2.458 1.487 1.609 2.231 3.703 2.231 6.282v15.249h-6.191V20.193c0-1.274-.364-2.306-1.092-3.095-.698-.789-1.685-1.183-2.959-1.183-1.366 0-2.504.5-3.414 1.502-.88 1.001-1.32 2.29-1.32 3.869v13.246h-6.191V11.18h6.054zm29.443 24.035c-3.763 0-6.721-1.154-8.876-3.46-2.154-2.336-3.232-5.31-3.232-8.921 0-3.49 1.078-6.404 3.232-8.74 2.155-2.367 4.916-3.55 8.285-3.55 3.671 0 6.509 1.274 8.512 3.823 2.002 2.549 3.004 5.963 3.004 10.242h-16.933c.243 1.85.865 3.292 1.866 4.324 1.001 1.001 2.367 1.502 4.097 1.502 2.276 0 3.778-.956 4.506-2.868h6.1c-.456 2.185-1.609 4.006-3.46 5.463-1.851 1.456-4.218 2.185-7.101 2.185zm-.5-19.892c-3.005 0-4.81 1.669-5.417 5.007h10.378c-.091-1.487-.592-2.686-1.502-3.596-.91-.94-2.064-1.411-3.459-1.411zm13.669 26.856v-4.87h2.185c2.306 0 3.459-1.063 3.459-3.187 0-1.032-.592-3.14-1.775-6.327l-6.282-16.614h6.509l3.46 10.514 1.502 5.099h.091c.425-1.973.88-3.672 1.366-5.099l3.277-10.514h6.236l-8.148 23.943c-.91 2.67-1.942 4.506-3.095 5.507-1.123 1.032-2.838 1.548-5.144 1.548h-3.641z" fill="#FDFDFD"/><path fill-rule="evenodd" clip-rule="evenodd" d="M143.028 20.897c.414-2.462 1.487-4.582 3.218-6.36 2.276-2.366 5.205-3.55 8.786-3.55 3.58 0 6.509 1.184 8.785 3.55 2.276 2.337 3.414 5.266 3.414 8.786 0 2.702-.671 5.064-2.011 7.086.88 6.047 6.599 11.544 9.478 13.614-3.661-.357-10.498-3.25-16.168-5.965l.001-.073a4.71 4.71 0 00-8.219-3.14 11.184 11.184 0 01-4.066-2.691c-2.275-2.367-3.413-5.311-3.413-8.831 0-.108.001-.215.003-.322a8.968 8.968 0 01.192-2.104zm8.597 11.192c0-1.745.17-2.994.509-3.745.364-.752 1.03-1.528 2-2.328.291-.266.812-.654 1.564-1.163.751-.51 1.284-.982 1.6-1.418.339-.437.509-.994.509-1.673 0-.824-.291-1.479-.873-1.963-.582-.51-1.321-.764-2.218-.764-1.115 0-2.012.34-2.691 1.018-.654.655-.982 1.564-.982 2.727h-5.854c.049-2.618.946-4.715 2.691-6.29 1.745-1.576 4.109-2.364 7.09-2.364 2.715 0 4.897.691 6.546 2.073 1.672 1.357 2.509 3.139 2.509 5.345 0 1.067-.194 2.012-.582 2.836-.388.824-.788 1.43-1.2 1.818-.412.388-.958.8-1.636 1.236a56.7 56.7 0 01-.837.546 9.464 9.464 0 00-.763.473l-.546.363c-.218.146-.4.28-.545.4a5.983 5.983 0 00-.364.4c-.46.582-.691 1.406-.691 2.473h-5.236z" fill="url(#paint0_linear_686_10651)"/><defs><linearGradient id="paint0_linear_686_10651" x1="158.765" y1="10.987" x2="158.765" y2="93.575" gradientUnits="userSpaceOnUse"><stop stop-color="#E4BC6D"/><stop offset="1" stop-color="#E4BC6D" stop-opacity=".22"/></linearGradient></defs></svg>