<svg width="22" height="19" fill="none" xmlns="http://www.w3.org/2000/svg"><path d="M10.61 0C7.794 0 5.096.931 3.106 2.588 1.117 4.245 0 6.493 0 8.837c.003 1.524.479 3.022 1.382 4.348.903 1.326 2.202 2.434 3.772 3.218-.418.936-1.045 1.814-1.855 2.597a11.36 11.36 0 004.309-1.693c.974.241 1.985.365 3.001.366 2.814 0 5.512-.93 7.502-2.588 1.99-1.657 3.107-3.905 3.107-6.248 0-2.344-1.118-4.592-3.107-6.249C16.12.931 13.423 0 10.609 0z" fill="url(#paint0_linear_2815_116)"/><defs><linearGradient id="paint0_linear_2815_116" x1="10.609" y1="0" x2="10.609" y2="47.5" gradientUnits="userSpaceOnUse"><stop stop-color="#E4BC6D"/><stop offset="1" stop-color="#E4BC6D" stop-opacity=".22"/></linearGradient></defs></svg>