<svg width="149" height="54" viewBox="0 0 149 54" fill="none" xmlns="http://www.w3.org/2000/svg">
<path d="M73.8075 27.3101C73.8075 31.0086 71.0634 33.8474 67.4597 33.8474H62.2314V20.7728H67.4597C71.0605 20.7728 73.8075 23.6117 73.8075 27.3101ZM70.9305 27.3101C70.9305 25.068 69.5126 23.6501 67.4568 23.6501H65.2148V30.9702H67.4568C69.5126 30.9702 70.9305 29.5404 70.9305 27.3101Z" fill="black"/>
<path d="M79.0327 20.7728V33.8445H76.0464V20.7728H79.0327Z" fill="black"/>
<path d="M94.7764 27.6824C94.7764 31.6792 91.9939 34.1075 88.3341 34.1075C84.2253 34.1075 81.2744 31.0825 81.2744 27.3279C81.2717 26.4289 81.4473 25.5384 81.7912 24.7078C82.1351 23.8772 82.6404 23.1231 83.2778 22.4892C83.9152 21.8553 84.6721 21.3542 85.5045 21.015C86.337 20.6757 87.2285 20.5051 88.1274 20.5129C89.2546 20.4885 90.3696 20.7495 91.3689 21.2717C92.3682 21.7938 93.2193 22.5602 93.843 23.4995L91.3027 24.9558C90.7622 24.0962 89.5836 23.4256 88.1096 23.4256C85.9061 23.4256 84.2696 25.0503 84.2696 27.3486C84.2696 29.57 85.8381 31.1889 88.3784 31.1889C90.1153 31.1889 91.2555 30.4238 91.7222 29.1712H88.2219V26.5628H94.7764V27.6824Z" fill="black"/>
<path d="M100.002 20.7728V33.8445H97.0156V20.7728H100.002Z" fill="black"/>
<path d="M111.563 23.6501H108.202V33.8474H105.213V23.6501H101.851V20.7728H111.56L111.563 23.6501Z" fill="black"/>
<path d="M121.066 31.7914H116.213L115.56 33.8593H112.29L116.721 20.7876H120.531L124.962 33.8593H121.719L121.066 31.7914ZM120.18 28.991L118.65 24.1907L117.12 28.991H120.18Z" fill="black"/>
<path d="M134.322 30.9702V33.8474H126.669V20.7728H129.655V30.9702H134.322Z" fill="black"/>
<path d="M69.4004 16.3654L65.2178 10.3155V16.3654H62.2285V3.2937H65.2148V8.97138L69.2114 3.2937H72.6112L68.2041 9.66263L72.7973 16.3654H69.4004Z" fill="black"/>
<path d="M78.3236 12.0702H76.9058V16.3654H73.9165V3.29371H79.1448C79.7336 3.29254 80.3168 3.40766 80.861 3.63245C81.4051 3.85724 81.8996 4.18729 82.3159 4.60365C82.7322 5.02 83.0623 5.51448 83.287 6.0587C83.5118 6.60293 83.6269 7.18618 83.6257 7.775C83.6134 8.56631 83.3834 9.33894 82.9608 10.0081C82.5382 10.6772 81.9394 11.2169 81.2302 11.568L84.0127 16.3683H80.7901L78.3236 12.0702ZM76.9058 9.4529H79.1477C79.9689 9.4529 80.6424 8.72325 80.6424 7.77205C80.6424 6.82084 79.9689 6.09119 79.1477 6.09119H76.9058V9.4529Z" fill="black"/>
<path d="M84.6714 9.83105C84.6714 8.02909 85.3872 6.30093 86.6612 5.02675C87.9353 3.75257 89.6634 3.03674 91.4652 3.03674C93.267 3.03674 94.9951 3.75257 96.2691 5.02675C97.5432 6.30093 98.259 8.02909 98.259 9.83105C98.259 11.633 97.5432 13.3612 96.2691 14.6354C94.9951 15.9095 93.267 16.6254 91.4652 16.6254C89.6634 16.6254 87.9353 15.9095 86.6612 14.6354C85.3872 13.3612 84.6714 11.633 84.6714 9.83105ZM95.2786 9.83105C95.2786 7.49735 93.5979 5.94648 91.4682 5.94648C89.3384 5.94648 87.6577 7.49735 87.6577 9.83105C87.6577 12.1647 89.3384 13.7156 91.4682 13.7156C93.5979 13.7156 95.2786 12.1647 95.2786 9.83105Z" fill="black"/>
<path d="M99.3877 9.8311C99.3877 5.99084 102.244 3.03679 106.182 3.03679C107.298 3.01825 108.4 3.28667 109.383 3.81633C110.365 4.34599 111.196 5.11915 111.794 6.06173L109.218 7.55648C108.627 6.54915 107.52 5.94948 106.193 5.94948C103.878 5.94948 102.383 7.50035 102.383 9.83405C102.383 12.1678 103.878 13.7186 106.193 13.7186C107.52 13.7186 108.657 13.1278 109.218 12.1116L111.785 13.5886C111.19 14.5344 110.361 15.3101 109.377 15.8402C108.394 16.3703 107.29 16.6367 106.173 16.6136C102.244 16.6284 99.3877 13.6773 99.3877 9.8311Z" fill="black"/>
<path d="M120.357 16.3654L116.174 10.3155V16.3654H113.185V3.2937H116.174V8.97138L120.171 3.2937H123.571L119.161 9.66263L123.766 16.3654H120.357Z" fill="black"/>
<path d="M61.5757 48.1304L64.1514 46.6356C64.6181 47.7198 65.4216 48.4465 66.8955 48.4465C68.3134 48.4465 68.6678 47.8852 68.6678 47.383C68.6678 46.5795 67.9205 46.2634 65.9592 45.7199C63.9978 45.1763 62.1192 44.2428 62.1192 41.7408C62.1192 39.2387 64.2489 37.7646 66.5086 37.7646C67.5077 37.7308 68.4945 37.9932 69.3449 38.5188C70.1953 39.0444 70.8713 39.8098 71.2879 40.7187L68.7683 42.1957C68.3193 41.2622 67.7049 40.6832 66.5086 40.6832C65.5752 40.6832 65.1085 41.15 65.1085 41.6728C65.1085 42.2636 65.4245 42.6802 67.4715 43.2976C69.4506 43.8884 71.6719 44.5855 71.6719 47.3505C71.6719 49.8733 69.6544 51.3651 66.8158 51.3651C64.0599 51.3621 62.3023 50.0535 61.5757 48.1304Z" fill="black"/>
<path d="M72.5163 44.5647C72.5163 43.2209 72.9148 41.9073 73.6613 40.79C74.4078 39.6727 75.4689 38.8018 76.7103 38.2876C77.9517 37.7733 79.3177 37.6388 80.6356 37.9009C81.9534 38.1631 83.164 38.8102 84.1141 39.7604C85.0642 40.7106 85.7113 41.9212 85.9734 43.2392C86.2356 44.5572 86.101 45.9233 85.5868 47.1648C85.0726 48.4063 84.2018 49.4674 83.0846 50.214C81.9674 50.9605 80.6538 51.359 79.3102 51.359C78.4159 51.3665 77.5291 51.1959 76.7014 50.8571C75.8738 50.5183 75.1219 50.0181 74.4895 49.3857C73.8572 48.7533 73.357 48.0013 73.0183 47.1736C72.6795 46.3459 72.5089 45.459 72.5163 44.5647ZM83.1235 44.5647C83.1235 42.231 81.4428 40.6801 79.3131 40.6801C77.1834 40.6801 75.5027 42.231 75.5027 44.5647C75.5027 46.8984 77.1864 48.4463 79.3131 48.4463C81.4399 48.4463 83.1235 46.8984 83.1235 44.5647Z" fill="black"/>
<path d="M95.4468 48.2248V51.105H87.7905V38.0275H90.7768V48.2248H95.4468Z" fill="black"/>
<path d="M96.4751 46.8807V38.0186H99.4614V46.6089C99.4614 47.5985 99.9281 48.4404 101.529 48.4404C103.13 48.4404 103.597 47.6015 103.597 46.6089V38.0274H106.583V46.8896C106.583 49.69 104.418 51.3708 101.541 51.3708C98.6639 51.3708 96.4751 49.6811 96.4751 46.8807Z" fill="black"/>
<path d="M117.48 40.9047H114.121V51.105H111.132V40.9047H107.771V38.0275H117.48V40.9047Z" fill="black"/>
<path d="M121.775 38.0275V51.105H118.789V38.0275H121.775Z" fill="black"/>
<path d="M123.47 44.5647C123.47 43.2209 123.868 41.9073 124.615 40.79C125.361 39.6727 126.422 38.8018 127.664 38.2876C128.905 37.7733 130.271 37.6388 131.589 37.9009C132.907 38.1631 134.118 38.8102 135.068 39.7604C136.018 40.7106 136.665 41.9212 136.927 43.2392C137.189 44.5572 137.055 45.9233 136.54 47.1648C136.026 48.4063 135.155 49.4674 134.038 50.214C132.921 50.9605 131.607 51.359 130.264 51.359C129.37 51.3665 128.483 51.1959 127.655 50.8571C126.827 50.5183 126.076 50.0181 125.443 49.3857C124.811 48.7533 124.311 48.0013 123.972 47.1736C123.633 46.3459 123.462 45.459 123.47 44.5647ZM134.077 44.5647C134.077 42.231 132.396 40.6801 130.267 40.6801C128.137 40.6801 126.456 42.231 126.456 44.5647C126.456 46.8984 128.125 48.4463 130.264 48.4463C132.402 48.4463 134.062 46.8984 134.062 44.5647H134.077Z" fill="black"/>
<path d="M149 38.0275V51.105H146.758L141.716 44.0153V51.105H138.729V38.0275H140.971L146.014 45.1172V38.0275H149Z" fill="black"/>
<path d="M50.413 0H3.58299C2.63273 0 1.72138 0.377521 1.04943 1.04951C0.377493 1.7215 0 2.63292 0 3.58326L0 47.1377L24.1387 28.2643L19.3476 27.6735C18.8293 27.6099 18.3287 27.4448 17.8742 27.1877C17.4198 26.9306 17.0204 26.5865 16.699 26.175C16.3775 25.7636 16.1402 25.2928 16.0007 24.7896C15.8611 24.2865 15.8221 23.7607 15.8857 23.2425C16.017 22.1979 16.5572 21.248 17.3878 20.6012C18.2184 19.9544 19.2716 19.6634 20.3164 19.7921L34.6336 21.5468C35.1519 21.6104 35.6525 21.7755 36.107 22.0326C36.5614 22.2897 36.9608 22.6338 37.2822 23.0453C37.6037 23.4568 37.841 23.9275 37.9805 24.4307C38.1201 24.9339 38.1592 25.4596 38.0955 25.9779L36.3321 40.2873C36.272 40.8083 36.1095 41.3123 35.8538 41.7703C35.5981 42.2282 35.2543 42.631 34.8423 42.9555C34.4303 43.28 33.9582 43.5198 33.4531 43.661C32.948 43.8023 32.42 43.8422 31.8995 43.7785C31.3789 43.7148 30.8761 43.5487 30.42 43.2898C29.9639 43.0309 29.5635 42.6844 29.2419 42.2701C28.9203 41.8558 28.6838 41.382 28.5461 40.8759C28.4084 40.3698 28.3721 39.8415 28.4395 39.3213L29.0302 34.5299L4.13536 54H50.413C51.3633 54 52.2746 53.6225 52.9466 52.9505C53.6185 52.2785 53.996 51.3671 53.996 50.4167V3.58326C53.996 2.63292 53.6185 1.7215 52.9466 1.04951C52.2746 0.377521 51.3633 0 50.413 0" fill="#EB5B31"/>
</svg>
