<svg width="39" height="38" viewBox="0 0 39 38" fill="none" xmlns="http://www.w3.org/2000/svg">
<path d="M28.6752 17.1813L15.7054 9.86396C15.2819 9.6219 14.8017 9.49635 14.3139 9.50008C13.8261 9.50381 13.3479 9.63668 12.9281 9.88518C12.5191 10.1191 12.1793 10.4571 11.9432 10.8649C11.7072 11.2726 11.5832 11.7356 11.584 12.2068V26.8414C11.5832 27.3125 11.7072 27.7755 11.9432 28.1833C12.1793 28.591 12.5191 28.929 12.9281 29.163C13.348 29.4113 13.8261 29.5441 14.3139 29.5479C14.8017 29.5516 15.2818 29.4261 15.7054 29.1842L28.6752 21.8669C29.0935 21.6352 29.4421 21.2957 29.6848 20.8837C29.9276 20.4717 30.0556 20.0023 30.0556 19.5241C30.0556 19.0459 29.9276 18.5764 29.6848 18.1644C29.4421 17.7524 29.0935 17.413 28.6752 17.1813Z" fill="white"/>
</svg>
