<svg width="48" height="48" viewBox="0 0 48 48" fill="none" xmlns="http://www.w3.org/2000/svg">
<g clip-path="url(#clip0_3236_101953)">
<path d="M41.6713 2.77695C37.9696 -0.924773 31.9455 -0.926367 28.2439 2.77648C27.4688 3.55151 26.8551 4.44101 26.3951 5.40532L26.0051 5.01532C25.387 4.39723 24.3855 4.39723 23.7674 5.01532L14.8154 13.9669C14.1976 14.5847 14.1976 15.5868 14.8154 16.2046L17.2725 18.6617L5.81918 31.9155C4.37 33.4036 4.11378 35.607 5.00928 37.3717C2.82022 40.459 3.09959 44.7722 5.86334 47.5365C6.48143 48.1546 7.48296 48.1546 8.10105 47.5365C8.71915 46.9189 8.71915 45.9169 8.10105 45.2988C6.55437 43.7516 6.31915 41.4003 7.35837 39.5867C9.1833 40.3628 11.1984 39.9288 12.5322 38.6293L25.7871 27.1759L28.2438 29.6325C28.8619 30.2506 29.8634 30.2506 30.4815 29.6325L39.4335 20.6805C40.0513 20.0627 40.0513 19.0606 39.4335 18.4428L39.0434 18.0527C40.0067 17.5928 40.8961 16.9793 41.6712 16.2045C45.373 12.5027 45.373 6.47913 41.6713 2.77695ZM29.3627 26.2758L18.1719 15.0856L24.8862 8.37185L36.0769 19.5616L29.3627 26.2758Z" fill="#CF7C58"/>
</g>
<defs>
<clipPath id="clip0_3236_101953">
<rect width="48" height="48.0001" fill="white"/>
</clipPath>
</defs>
</svg>
