<svg width="48" height="48" viewBox="0 0 48 48" fill="none" xmlns="http://www.w3.org/2000/svg">
<g clip-path="url(#clip0_3236_101943)">
<path d="M26.0904 31.0244H23.1739L22.4004 33.838H25.317L26.0904 31.0244Z" fill="#CF7C58"/>
<path d="M24.0012 48C34.0851 48 42.2896 39.7017 42.2896 29.6177C42.2896 20.7647 38.0748 14.8448 34.1236 12.2525C34.1236 12.2511 34.1209 12.2498 34.1181 12.2484V12.2469C33.4669 11.8252 32.5959 12.001 32.17 12.6536C31.7441 13.3035 31.9255 14.1745 32.574 14.6003C33.3735 15.1238 33.8489 16.0044 33.8489 16.9565C33.8489 18.5075 32.5877 19.7701 31.0353 19.7701C29.4828 19.7701 28.2217 18.5075 28.2217 16.9565C28.2217 16.5746 28.2959 16.0827 28.3756 15.5044C28.8564 12.008 29.7494 5.40491 21.9681 0.217359C21.5343 -0.0717866 20.8357 -0.101236 20.3226 0.305425C20.0086 0.557055 19.7809 0.911664 19.7809 1.38782C19.7809 7.87235 16.5387 11.1726 13.1069 14.5687C9.47169 18.1641 5.71289 21.883 5.71289 29.3168V29.6177C5.7127 39.7017 13.9173 48 24.0012 48ZM17.6348 33.8381H19.4813L20.2548 31.0245H19.1846C18.407 31.0245 17.7777 30.3953 17.7777 29.6177C17.7777 28.8401 18.407 28.2109 19.1846 28.2109H21.0282L21.5173 26.4318C21.7234 25.6817 22.4927 25.2379 23.2483 25.4481C23.9957 25.6542 24.4381 26.4276 24.232 27.1764L23.9476 28.2109H26.8643L27.3534 26.4318C27.5594 25.6817 28.3288 25.2379 29.0844 25.4481C29.8318 25.6542 30.2742 26.4276 30.0681 27.1764L29.7837 28.2109H30.8566C31.6342 28.2109 32.2634 28.8401 32.2634 29.6177C32.2634 30.3953 31.6342 31.0245 30.8566 31.0245H29.0101L28.2367 33.8381H29.3096C30.0872 33.8381 30.7164 34.4673 30.7164 35.2449C30.7164 36.0225 30.0872 36.6517 29.3096 36.6517H27.4631L26.974 38.4309C26.77 39.1675 26.0091 39.6227 25.243 39.4145C24.4956 39.2085 24.0532 38.435 24.2594 37.6862L24.5437 36.6517H21.627L21.1379 38.4309C20.934 39.1675 20.1731 39.6227 19.4069 39.4145C18.6595 39.2085 18.2171 38.435 18.4233 37.6862L18.7076 36.6517H17.6347C16.8571 36.6517 16.2279 36.0225 16.2279 35.2449C16.2279 34.4673 16.8572 33.8381 17.6348 33.8381Z" fill="#CF7C58"/>
<path d="M12.7466 8.51589C13.5242 8.51589 14.1535 7.88667 14.1535 7.10909V4.29548C14.1535 3.51789 13.5242 2.88867 12.7466 2.88867C11.9691 2.88867 11.3398 3.51789 11.3398 4.29548V7.10909C11.3398 7.88667 11.9691 8.51589 12.7466 8.51589Z" fill="#CF7C58"/>
<path d="M33.8488 7.10909V4.29548C33.8488 3.51789 33.2195 2.88867 32.442 2.88867C31.6644 2.88867 31.0352 3.51789 31.0352 4.29548V7.10909C31.0352 7.88667 31.6644 8.51589 32.442 8.51589C33.2195 8.51589 33.8488 7.88667 33.8488 7.10909Z" fill="#CF7C58"/>
</g>
<defs>
<clipPath id="clip0_3236_101943">
<rect width="48" height="48" fill="white"/>
</clipPath>
</defs>
</svg>
