<svg width="48" height="48" viewBox="0 0 48 48" fill="none" xmlns="http://www.w3.org/2000/svg">
<path d="M34.5446 3.01172C30.136 3.01172 26.4774 5.34431 24 9.04987C21.5226 5.34431 17.864 3.01172 13.4554 3.01172C6.03609 3.01172 0 9.04791 0 16.4674C0 32.0822 18.6973 42.6588 23.4049 44.8555C23.782 45.0314 24.218 45.0314 24.5951 44.8555C29.3027 42.6588 48 32.0822 48 16.4674C48 9.04791 41.9639 3.01172 34.5446 3.01172ZM17.8746 25.5052C17.8002 27.3711 15.1357 27.3697 15.0621 25.5052V22.8752L14.4502 23.4871C13.9266 24.0318 12.985 24.0318 12.4614 23.4871L11.8496 22.8753V25.5052C11.7753 27.3711 9.11072 27.3697 9.03713 25.5052V19.4802C9.03713 18.9114 9.37969 18.3986 9.90525 18.181C10.4306 17.9635 11.0357 18.0837 11.4378 18.4859L13.4558 20.504L15.474 18.4858C15.8762 18.0836 16.4813 17.9633 17.0065 18.181C17.532 18.3986 17.8747 18.9114 17.8747 19.4802L17.8746 25.5052ZM23.9995 26.9115C21.5631 26.9115 19.5808 24.9293 19.5808 22.4928C19.8235 16.6307 28.1765 16.6325 28.4183 22.4928C28.4183 24.9293 26.436 26.9115 23.9995 26.9115ZM38.9621 25.5052C38.8878 27.3711 36.2232 27.3697 36.1496 25.5052V22.8752L35.5377 23.4871C35.0141 24.0318 34.0726 24.0318 33.549 23.4871L32.9372 22.8753V25.5052C32.8628 27.3711 30.1983 27.3697 30.1247 25.5052V19.4802C30.1247 18.9114 30.4672 18.3986 30.9928 18.181C31.5182 17.9635 32.1232 18.0837 32.5253 18.4859L34.5434 20.504L36.5616 18.4858C36.9637 18.0836 37.5688 17.9633 38.0941 18.181C38.6196 18.3986 38.9622 18.9114 38.9622 19.4802L38.9621 25.5052Z" fill="#CF7C58"/>
<path d="M23.9988 20.8865C23.1131 20.8865 22.3926 21.607 22.3926 22.4927C22.4808 24.6236 25.5172 24.623 25.6051 22.4927C25.6051 21.607 24.8845 20.8865 23.9988 20.8865Z" fill="#CF7C58"/>
</svg>
