<svg width="48" height="48" viewBox="0 0 48 48" fill="none" xmlns="http://www.w3.org/2000/svg">
<path d="M18.5167 12.7236C16.393 12.7236 14.6621 10.9927 14.6621 8.86909C14.6621 6.74545 16.3785 5 18.5167 5C20.6549 5 22.3712 6.73091 22.3712 8.85455C22.3712 10.9782 20.6403 12.7236 18.5167 12.7236Z" fill="#CF7C58"/>
<path d="M16.2047 43.691C15.2592 43.691 14.4883 42.9201 14.4883 41.9746V31.0801H17.921V41.9746C17.9356 42.9201 17.1647 43.691 16.2047 43.691Z" fill="#CF7C58"/>
<path d="M20.7575 43.691C19.812 43.691 19.0411 42.9201 19.0411 41.9746V31.0801H22.4739V41.9746C22.4739 42.9201 21.703 43.691 20.7575 43.691Z" fill="#CF7C58"/>
<path d="M33.0038 28.0984C34.7631 28.0984 36.1893 26.6723 36.1893 24.913C36.1893 23.1537 34.7631 21.7275 33.0038 21.7275C31.2446 21.7275 29.8184 23.1537 29.8184 24.913C29.8184 26.6723 31.2446 28.0984 33.0038 28.0984Z" fill="#CF7C58"/>
<path d="M27.2 23.6911C26.8364 22.4547 26.56 21.3347 26.1819 19.9674C25.8619 18.8474 25.4837 17.7856 25.1928 16.7965C24.5819 14.7602 22.88 13.4365 20.8582 13.4365H16.131C14.0655 13.4365 12.3637 14.7456 11.7964 16.782C11.4619 17.9893 11.04 19.2838 10.6037 20.6511C10.051 22.382 9.46914 24.1565 9.01823 25.8729C8.82914 26.5856 9.22186 27.3274 9.89095 27.5602C10.051 27.6183 10.211 27.6474 10.371 27.6474C11.0255 27.6474 11.5782 27.2256 11.7528 26.6002L13.9346 19.4293L14.24 18.2656C14.2982 18.0474 14.4873 17.902 14.7055 17.902L14.8219 17.9165L14.851 17.9311C15.0982 18.0038 15.2437 18.2511 15.1855 18.4983C15.0255 19.2256 14.6619 20.8111 14.2255 22.6583C13.5128 25.742 12.611 29.5674 12.2182 31.4147C12.1891 31.5747 12.2182 31.7493 12.32 31.8656C12.4073 31.982 12.5528 32.0402 12.6982 32.0402H24.291C24.4364 32.0402 24.5673 31.982 24.6691 31.8656C24.771 31.7347 24.8146 31.5747 24.771 31.4147C24.3782 29.5674 23.491 25.742 22.7782 22.6729C22.3419 20.8111 21.9782 19.2256 21.8182 18.4983C21.76 18.2511 21.9055 18.0038 22.1528 17.9311L22.2691 17.9165H22.2982C22.5164 17.9165 22.7055 18.062 22.7637 18.2802L23.0691 19.4438L24.8291 24.9274C25.0619 25.6402 25.8328 26.0183 26.5455 25.7711C27.2146 25.5238 27.5637 24.7965 27.3455 24.1274C27.2873 23.9529 27.2437 23.8074 27.2 23.6911Z" fill="#CF7C58"/>
<path d="M38.0226 30.6727C37.659 30.0036 37.0772 29.4945 36.3935 29.2036C35.9572 29.0145 35.4772 28.9563 34.9972 28.9563C34.2117 28.9563 32.5826 28.9563 31.8554 28.8836C31.7972 28.8691 29.4699 28.8836 28.3645 26.7891C28.0881 26.28 27.5354 25.9454 26.9681 26.0763C26.1681 26.2509 25.7754 27.1091 26.1099 27.8218C26.7063 29.0436 27.7535 30.4982 29.8335 31.0218V42.2654C29.8335 42.92 30.2845 43.5309 30.9245 43.6618C31.7972 43.8218 32.5681 43.1672 32.5681 42.3236C32.5826 42.3236 32.5681 36.2582 32.5681 36.2582H33.3681V42.3236C33.3826 43.08 33.9935 43.6909 34.7499 43.6909C35.5063 43.6909 36.1172 43.08 36.1172 42.3236C36.1317 42.3236 36.1172 32.1709 36.1172 32.1709C36.1754 31.9963 36.3354 32.0109 36.4517 32.3163C36.6699 32.9127 36.8445 33.4363 36.9172 35.1818C36.9463 35.7491 37.4117 36.1709 37.979 36.1709H38.0372C38.619 36.1418 39.0699 35.6327 39.0263 35.0509C38.9535 33.4363 38.9535 32.3454 38.0226 30.6727Z" fill="#CF7C58"/>
</svg>
