<svg width="48" height="48" viewBox="0 0 48 48" fill="none" xmlns="http://www.w3.org/2000/svg">
<path d="M21.1531 17.4084C22.4197 15.1361 23.0531 14 23.9999 14C24.9467 14 25.5801 15.1361 26.8467 17.4084L27.1745 17.9962C27.5343 18.6419 27.7143 18.9648 27.9949 19.1778C28.2755 19.3908 28.6251 19.4699 29.3241 19.628L29.9603 19.772C32.4201 20.3286 33.6499 20.6068 33.9425 21.5478C34.2351 22.4886 33.3967 23.469 31.7199 25.43L31.2859 25.9372C30.8095 26.4944 30.5713 26.773 30.4641 27.1178C30.3569 27.4624 30.3929 27.8342 30.4649 28.5776L30.5305 29.2544C30.7841 31.8706 30.9107 33.1788 30.1447 33.7602C29.3787 34.3418 28.2273 33.8116 25.9243 32.7512L25.3285 32.4768C24.6739 32.1756 24.3467 32.0248 23.9999 32.0248C23.6531 32.0248 23.3259 32.1756 22.6713 32.4768L22.0755 32.7512C19.7726 33.8116 18.6211 34.3418 17.855 33.7602C17.089 33.1788 17.2158 31.8706 17.4693 29.2544L17.5349 28.5776C17.6069 27.8342 17.6429 27.4624 17.5357 27.1178C17.4286 26.773 17.1903 26.4944 16.7138 25.9372L16.28 25.43C14.6031 23.469 13.7647 22.4886 14.0573 21.5478C14.3499 20.6068 15.5797 20.3286 18.0394 19.772L18.6758 19.628C19.3747 19.4699 19.7242 19.3908 20.0049 19.1778C20.2855 18.9648 20.4655 18.6419 20.8253 17.9962L21.1531 17.4084Z" fill="#CF7C58"/>
<path fill-rule="evenodd" clip-rule="evenodd" d="M23.9999 2.5C24.8283 2.5 25.4999 3.17158 25.4999 4V8C25.4999 8.82842 24.8283 9.5 23.9999 9.5C23.1715 9.5 22.4999 8.82842 22.4999 8V4C22.4999 3.17158 23.1715 2.5 23.9999 2.5ZM37.0607 10.9391C37.6465 11.5249 37.6465 12.4746 37.0607 13.0604L36.3743 13.747C35.7885 14.3327 34.8387 14.3327 34.2529 13.747C33.6671 13.1612 33.6671 12.2114 34.2529 11.6256L34.9395 10.9391C35.5253 10.3533 36.4751 10.3533 37.0607 10.9391ZM10.9393 10.9393C11.5251 10.3536 12.4748 10.3536 13.0606 10.9393L13.7471 11.6259C14.3329 12.2116 14.3329 13.1614 13.7471 13.7472C13.1613 14.333 12.2116 14.333 11.6258 13.7472L10.9393 13.0607C10.3535 12.4749 10.3535 11.5251 10.9393 10.9393ZM2.49994 24C2.49994 23.1716 3.17152 22.5 3.99994 22.5H7.99994C8.82836 22.5 9.49994 23.1716 9.49994 24C9.49994 24.8284 8.82836 25.5 7.99994 25.5H3.99994C3.17152 25.5 2.49994 24.8284 2.49994 24ZM38.4999 24C38.4999 23.1716 39.1715 22.5 39.9999 22.5H43.9999C44.8283 22.5 45.4999 23.1716 45.4999 24C45.4999 24.8284 44.8283 25.5 43.9999 25.5H39.9999C39.1715 25.5 38.4999 24.8284 38.4999 24ZM13.7469 34.253C14.3327 34.8388 14.3327 35.7886 13.7469 36.3744L13.0608 37.0604C12.475 37.6462 11.5253 37.6462 10.9395 37.0604C10.3537 36.4746 10.3537 35.525 10.9395 34.9392L11.6256 34.253C12.2114 33.6672 13.1611 33.6672 13.7469 34.253ZM34.2529 34.2534C34.8387 33.6678 35.7885 33.6678 36.3743 34.2534L37.0603 34.9396C37.6461 35.5254 37.6461 36.4752 37.0603 37.061C36.4745 37.6466 35.5247 37.6466 34.9389 37.061L34.2529 36.3748C33.6671 35.789 33.6671 34.8392 34.2529 34.2534ZM23.9999 38.5C24.8283 38.5 25.4999 39.1716 25.4999 40V44C25.4999 44.8284 24.8283 45.5 23.9999 45.5C23.1715 45.5 22.4999 44.8284 22.4999 44V40C22.4999 39.1716 23.1715 38.5 23.9999 38.5Z" fill="#CF7C58"/>
</svg>
