<svg width="48" height="48" viewBox="0 0 48 48" fill="none" xmlns="http://www.w3.org/2000/svg">
<path d="M39 7.5H34.5V6C34.4964 4.80762 34.0212 3.6651 33.178 2.82195C32.3349 1.97881 31.1924 1.50356 30 1.5H6C4.80762 1.50356 3.6651 1.97881 2.82195 2.82195C1.97881 3.6651 1.50356 4.80762 1.5 6V40.5C1.5 42.0913 2.13214 43.6174 3.25736 44.7426C4.38258 45.8679 5.9087 46.5 7.5 46.5H37.5C39.0913 46.5 40.6174 45.8679 41.7426 44.7426C42.8679 43.6174 43.5 42.0913 43.5 40.5V12C43.4964 10.8076 43.0212 9.6651 42.178 8.82195C41.3349 7.97881 40.1924 7.50356 39 7.5ZM19.5 40.5H10.5C10.1022 40.5 9.72064 40.342 9.43934 40.0607C9.15804 39.7794 9 39.3978 9 39C9 38.6022 9.15804 38.2206 9.43934 37.9393C9.72064 37.658 10.1022 37.5 10.5 37.5H19.5C19.8978 37.5 20.2794 37.658 20.5607 37.9393C20.842 38.2206 21 38.6022 21 39C21 39.3978 20.842 39.7794 20.5607 40.0607C20.2794 40.342 19.8978 40.5 19.5 40.5ZM25.5 40.5C25.2033 40.5 24.9133 40.412 24.6666 40.2472C24.42 40.0824 24.2277 39.8481 24.1142 39.574C24.0006 39.2999 23.9709 38.9983 24.0288 38.7074C24.0867 38.4164 24.2296 38.1491 24.4393 37.9393C24.6491 37.7296 24.9164 37.5867 25.2074 37.5288C25.4983 37.4709 25.7999 37.5006 26.074 37.6142C26.3481 37.7277 26.5824 37.92 26.7472 38.1666C26.912 38.4133 27 38.7033 27 39C27 39.3978 26.842 39.7794 26.5607 40.0607C26.2794 40.342 25.8978 40.5 25.5 40.5ZM25.5 33H10.5C10.1022 33 9.72064 32.842 9.43934 32.5607C9.15804 32.2794 9 31.8978 9 31.5C9 31.1022 9.15804 30.7206 9.43934 30.4393C9.72064 30.158 10.1022 30 10.5 30H25.5C25.8978 30 26.2794 30.158 26.5607 30.4393C26.842 30.7206 27 31.1022 27 31.5C27 31.8978 26.842 32.2794 26.5607 32.5607C26.2794 32.842 25.8978 33 25.5 33ZM25.5 25.5H10.5C10.1022 25.5 9.72064 25.342 9.43934 25.0607C9.15804 24.7794 9 24.3978 9 24C9 23.6022 9.15804 23.2206 9.43934 22.9393C9.72064 22.658 10.1022 22.5 10.5 22.5H25.5C25.8978 22.5 26.2794 22.658 26.5607 22.9393C26.842 23.2206 27 23.6022 27 24C27 24.3978 26.842 24.7794 26.5607 25.0607C26.2794 25.342 25.8978 25.5 25.5 25.5ZM27 15C26.9976 15.7949 26.6808 16.5566 26.1187 17.1187C25.5566 17.6808 24.7949 17.9976 24 18H12C11.2051 17.9976 10.4434 17.6808 9.8813 17.1187C9.31921 16.5566 9.00237 15.7949 9 15V12C9.00237 11.2051 9.31921 10.4434 9.8813 9.8813C10.4434 9.31921 11.2051 9.00237 12 9H24C24.7949 9.00237 25.5566 9.31921 26.1187 9.8813C26.6808 10.4434 26.9976 11.2051 27 12V15ZM40.5 40.5C40.5 41.2957 40.1839 42.0587 39.6213 42.6213C39.0587 43.1839 38.2957 43.5 37.5 43.5C36.7043 43.5 35.9413 43.1839 35.3787 42.6213C34.8161 42.0587 34.5 41.2957 34.5 40.5V10.5H39C39.3978 10.5 39.7794 10.658 40.0607 10.9393C40.342 11.2206 40.5 11.6022 40.5 12V40.5Z" fill="#CF7C58"/>
</svg>
