<svg width="45" height="55" fill="none" xmlns="http://www.w3.org/2000/svg"><g clip-path="url(#clip0_2082_3067)"><path d="M5.714 0C2.564 0 0 2.551 0 5.682v43.636C0 52.449 2.564 55 5.714 55h33.565c3.15 0 5.714-2.55 5.714-5.682v-35.88s.09-1.052-.37-2.074a5.746 5.746 0 00-1.13-1.625l-.006-.007-8.327-8.12a.901.901 0 00-.014-.014s-.71-.673-1.765-1.123c-1.24-.53-2.52-.473-2.52-.473l.02-.002H5.713z" fill="#FF2116"/><path d="M5.714 1.866H30.9s1.006.01 1.742.324a4.778 4.778 0 011.218.766l8.306 8.101s.5.526.744 1.066c.195.437.207 1.235.207 1.235a.87.87 0 00-.001.04v35.92c0 2.13-1.694 3.815-3.837 3.815H5.714c-2.142 0-3.836-1.685-3.836-3.815V5.682c0-2.13 1.694-3.816 3.836-3.816z" fill="#F5F5F5"/><path d="M11.235 32.746c-1.292-1.284.106-3.049 3.898-4.922l2.387-1.18.93-2.022a79.472 79.472 0 001.696-4.033l.766-2.01-.528-1.488c-.65-1.83-.88-4.58-.469-5.568.558-1.34 2.386-1.202 3.11.234.565 1.12.507 3.151-.163 5.712l-.55 2.099.485.816c.266.45 1.043 1.515 1.726 2.37l1.286 1.588 1.599-.207c5.08-.659 6.82.461 6.82 2.067 0 2.027-3.989 2.194-7.339-.145-.753-.526-1.271-1.049-1.271-1.049s-2.099.425-3.132.702c-1.067.286-1.599.465-3.16.989 0 0-.55.791-.906 1.366-1.33 2.14-2.88 3.915-3.989 4.56-1.24.723-2.541.772-3.196.121zm2.027-.72c.726-.446 2.196-2.174 3.213-3.778l.412-.649-1.876.937c-2.896 1.448-4.221 2.813-3.532 3.638.387.464.85.426 1.783-.148zm18.816-5.25c.71-.495.607-1.491-.196-1.893-.625-.313-1.128-.377-2.752-.353-.997.067-2.601.267-2.873.328 0 0 .881.606 1.272.828.521.296 1.787.845 2.71 1.126.912.277 1.44.248 1.839-.036zm-7.566-3.126c-.43-.45-1.16-1.387-1.624-2.083-.606-.79-.91-1.348-.91-1.348s-.443 1.416-.806 2.269l-1.134 2.786-.33.632s1.749-.57 2.638-.8c.942-.245 2.854-.619 2.854-.619l-.688-.837zm-2.438-9.72c.11-.915.156-1.828-.14-2.288-.82-.891-1.809-.148-1.641 1.97.056.713.234 1.931.472 2.682l.433 1.365.305-1.028c.168-.566.425-1.781.571-2.701z" fill="#FF2116"/><path d="M13.431 38.692h2.097c.67 0 1.214.064 1.632.191.418.124.77.401 1.055.833.286.428.428.944.428 1.548 0 .555-.116 1.032-.347 1.431a2.036 2.036 0 01-.937.864c-.389.177-.989.265-1.8.265h-.725v3.288H13.43v-8.42zm1.403 1.08v2.936h.694c.62 0 1.049-.116 1.285-.346.24-.23.36-.604.36-1.123 0-.386-.079-.699-.236-.937-.157-.243-.331-.39-.521-.444-.186-.058-.482-.087-.888-.087h-.694zm4.883-1.08h1.905c.922 0 1.658.162 2.209.487.554.325.972.808 1.253 1.45.285.641.428 1.353.428 2.134 0 .823-.128 1.557-.385 2.202a3.504 3.504 0 01-1.166 1.555c-.521.394-1.266.592-2.234.592h-2.01v-8.42zm1.402 1.117v6.186h.583c.815 0 1.407-.28 1.775-.839.368-.563.552-1.313.552-2.251 0-2.064-.776-3.096-2.327-3.096h-.583zm5.74-1.117h4.703v1.117H28.26v2.516h2.643v1.117H28.26v3.67h-1.402v-8.42z" fill="#2C2C2C"/></g><defs><clipPath id="clip0_2082_3067"><path fill="#fff" d="M0 0h45v55H0z"/></clipPath></defs></svg>