<svg width="148" height="147" viewBox="0 0 148 147" fill="none" xmlns="http://www.w3.org/2000/svg">
<g filter="url(#filter0_f_4909_14764)">
<path d="M74.0537 121.996C61.1857 121.988 48.8477 116.869 39.7532 107.766C30.6587 98.6621 25.5525 86.3189 25.5575 73.4508C25.5575 46.6718 47.3353 24.9735 74.1522 25C100.969 25.0265 122.599 46.8157 122.55 73.6402C122.508 100.313 100.765 121.996 74.0537 121.996ZM117.662 73.644C117.691 67.9187 116.59 62.244 114.423 56.9446C112.255 51.6453 109.064 46.8254 105.032 42.7607C101 38.6961 96.2055 35.4666 90.9237 33.257C85.6419 31.0474 79.9761 29.9011 74.2507 29.8838C50.0973 29.8156 30.517 49.2065 30.445 73.2538C30.4071 78.9943 31.5039 84.6858 33.6725 90.0012C35.8411 95.3165 39.0388 100.151 43.0816 104.226C47.1245 108.302 51.933 111.539 57.2306 113.75C62.5283 115.961 68.2107 117.104 73.9514 117.113C79.6769 117.134 85.3505 116.026 90.6473 113.852C95.9442 111.679 100.76 108.482 104.82 104.445C108.88 100.408 112.104 95.6096 114.308 90.325C116.512 85.0405 117.652 79.3733 117.662 73.6478V73.644Z" fill="#15F2FD"/>
<path d="M59.5238 73.4281C59.5238 67.8738 59.5427 62.3194 59.5238 56.7575C59.5238 55.1549 59.7549 53.7265 61.3575 52.9195C62.9602 52.1125 64.2446 52.6922 65.582 53.5901C73.8643 59.1369 82.1692 64.6419 90.4553 70.1811C93.4863 72.2043 93.4863 74.7655 90.4932 76.7736C82.1579 82.3507 73.7998 87.8936 65.4683 93.4745C64.1158 94.38 62.7594 94.8308 61.2325 94.0011C59.7056 93.1714 59.5162 91.8036 59.5238 90.273C59.5389 84.6656 59.5238 79.0468 59.5238 73.4281ZM64.4719 58.7239V88.2763L86.6476 73.5001L64.4719 58.7239Z" fill="#15F2FD"/>
</g>
<g filter="url(#filter1_f_4909_14764)">
<path d="M74.0537 121.996C61.1857 121.988 48.8477 116.869 39.7532 107.766C30.6587 98.6621 25.5525 86.3189 25.5575 73.4508C25.5575 46.6718 47.3353 24.9735 74.1522 25C100.969 25.0265 122.599 46.8157 122.55 73.6402C122.508 100.313 100.765 121.996 74.0537 121.996ZM117.662 73.644C117.691 67.9187 116.59 62.244 114.423 56.9446C112.255 51.6453 109.064 46.8254 105.032 42.7607C101 38.6961 96.2055 35.4666 90.9237 33.257C85.6419 31.0474 79.9761 29.9011 74.2507 29.8838C50.0973 29.8156 30.517 49.2065 30.445 73.2538C30.4071 78.9943 31.5039 84.6858 33.6725 90.0012C35.8411 95.3165 39.0388 100.151 43.0816 104.226C47.1245 108.302 51.933 111.539 57.2306 113.75C62.5283 115.961 68.2107 117.104 73.9514 117.113C79.6769 117.134 85.3505 116.026 90.6473 113.852C95.9442 111.679 100.76 108.482 104.82 104.445C108.88 100.408 112.104 95.6096 114.308 90.325C116.512 85.0405 117.652 79.3733 117.662 73.6478V73.644Z" fill="#15F2FD"/>
<path d="M59.5238 73.4281C59.5238 67.8738 59.5427 62.3194 59.5238 56.7575C59.5238 55.1549 59.7549 53.7265 61.3575 52.9195C62.9602 52.1125 64.2446 52.6922 65.582 53.5901C73.8643 59.1369 82.1692 64.6419 90.4553 70.1811C93.4863 72.2043 93.4863 74.7655 90.4932 76.7736C82.1579 82.3507 73.7998 87.8936 65.4683 93.4745C64.1158 94.38 62.7594 94.8308 61.2325 94.0011C59.7056 93.1714 59.5162 91.8036 59.5238 90.273C59.5389 84.6656 59.5238 79.0468 59.5238 73.4281ZM64.4719 58.7239V88.2763L86.6476 73.5001L64.4719 58.7239Z" fill="#15F2FD"/>
</g>
<g filter="url(#filter2_f_4909_14764)">
<path d="M74.0537 121.996C61.1857 121.988 48.8477 116.869 39.7532 107.766C30.6587 98.6621 25.5525 86.3189 25.5575 73.4508C25.5575 46.6718 47.3353 24.9735 74.1522 25C100.969 25.0265 122.599 46.8157 122.55 73.6402C122.508 100.313 100.765 121.996 74.0537 121.996ZM117.662 73.644C117.691 67.9187 116.59 62.244 114.423 56.9446C112.255 51.6453 109.064 46.8254 105.032 42.7607C101 38.6961 96.2055 35.4666 90.9237 33.257C85.6419 31.0474 79.9761 29.9011 74.2507 29.8838C50.0973 29.8156 30.517 49.2065 30.445 73.2538C30.4071 78.9943 31.5039 84.6858 33.6725 90.0012C35.8411 95.3165 39.0388 100.151 43.0816 104.226C47.1245 108.302 51.933 111.539 57.2306 113.75C62.5283 115.961 68.2107 117.104 73.9514 117.113C79.6769 117.134 85.3505 116.026 90.6473 113.852C95.9442 111.679 100.76 108.482 104.82 104.445C108.88 100.408 112.104 95.6096 114.308 90.325C116.512 85.0405 117.652 79.3733 117.662 73.6478V73.644Z" fill="#15F2FD"/>
<path d="M59.5238 73.4281C59.5238 67.8738 59.5427 62.3194 59.5238 56.7575C59.5238 55.1549 59.7549 53.7265 61.3575 52.9195C62.9602 52.1125 64.2446 52.6922 65.582 53.5901C73.8643 59.1369 82.1692 64.6419 90.4553 70.1811C93.4863 72.2043 93.4863 74.7655 90.4932 76.7736C82.1579 82.3507 73.7998 87.8936 65.4683 93.4745C64.1158 94.38 62.7594 94.8308 61.2325 94.0011C59.7056 93.1714 59.5162 91.8036 59.5238 90.273C59.5389 84.6656 59.5238 79.0468 59.5238 73.4281ZM64.4719 58.7239V88.2763L86.6476 73.5001L64.4719 58.7239Z" fill="#15F2FD"/>
</g>
<path d="M74.0537 121.996C61.1857 121.988 48.8477 116.869 39.7532 107.766C30.6587 98.6621 25.5525 86.3189 25.5575 73.4508C25.5575 46.6718 47.3353 24.9735 74.1522 25C100.969 25.0265 122.599 46.8157 122.55 73.6402C122.508 100.313 100.765 121.996 74.0537 121.996ZM117.662 73.644C117.691 67.9187 116.59 62.244 114.423 56.9446C112.255 51.6453 109.064 46.8254 105.032 42.7607C101 38.6961 96.2055 35.4666 90.9237 33.257C85.6419 31.0474 79.9761 29.9011 74.2507 29.8838C50.0973 29.8156 30.517 49.2065 30.445 73.2538C30.4071 78.9943 31.5039 84.6858 33.6725 90.0012C35.8411 95.3165 39.0388 100.151 43.0816 104.226C47.1245 108.302 51.933 111.539 57.2306 113.75C62.5283 115.961 68.2107 117.104 73.9514 117.113C79.6769 117.134 85.3505 116.026 90.6473 113.852C95.9442 111.679 100.76 108.482 104.82 104.445C108.88 100.408 112.104 95.6096 114.308 90.325C116.512 85.0405 117.652 79.3733 117.662 73.6478V73.644Z" fill="white"/>
<path d="M59.5238 73.4281C59.5238 67.8738 59.5427 62.3194 59.5238 56.7575C59.5238 55.1549 59.7549 53.7265 61.3575 52.9195C62.9602 52.1125 64.2446 52.6922 65.582 53.5901C73.8643 59.1369 82.1692 64.6419 90.4553 70.1811C93.4863 72.2043 93.4863 74.7655 90.4932 76.7736C82.1579 82.3507 73.7998 87.8936 65.4683 93.4745C64.1158 94.38 62.7594 94.8308 61.2325 94.0011C59.7056 93.1714 59.5162 91.8036 59.5238 90.273C59.5389 84.6656 59.5238 79.0468 59.5238 73.4281ZM64.4719 58.7239V88.2763L86.6476 73.5001L64.4719 58.7239Z" fill="white"/>
<defs>
<filter id="filter0_f_4909_14764" x="0.557495" y="0" width="146.993" height="146.996" filterUnits="userSpaceOnUse" color-interpolation-filters="sRGB">
<feFlood flood-opacity="0" result="BackgroundImageFix"/>
<feBlend mode="normal" in="SourceGraphic" in2="BackgroundImageFix" result="shape"/>
<feGaussianBlur stdDeviation="12.5" result="effect1_foregroundBlur_4909_14764"/>
</filter>
<filter id="filter1_f_4909_14764" x="10.5575" y="10" width="126.993" height="126.996" filterUnits="userSpaceOnUse" color-interpolation-filters="sRGB">
<feFlood flood-opacity="0" result="BackgroundImageFix"/>
<feBlend mode="normal" in="SourceGraphic" in2="BackgroundImageFix" result="shape"/>
<feGaussianBlur stdDeviation="7.5" result="effect1_foregroundBlur_4909_14764"/>
</filter>
<filter id="filter2_f_4909_14764" x="15.5575" y="15" width="116.993" height="116.996" filterUnits="userSpaceOnUse" color-interpolation-filters="sRGB">
<feFlood flood-opacity="0" result="BackgroundImageFix"/>
<feBlend mode="normal" in="SourceGraphic" in2="BackgroundImageFix" result="shape"/>
<feGaussianBlur stdDeviation="5" result="effect1_foregroundBlur_4909_14764"/>
</filter>
</defs>
</svg>
