<svg width="92" height="92" viewBox="0 0 92 92" fill="none" xmlns="http://www.w3.org/2000/svg">
<path d="M89.779 31.9621L49.057 72.6881C46.731 75.0101 42.949 75.0101 40.62 72.6881C39.459 71.5241 38.879 69.9971 38.879 68.4691C38.879 66.9411 39.459 65.4171 40.62 64.2531L84.304 20.5741C76.066 8.17512 61.982 0.00012207 45.983 0.00012207C20.588 0.00012207 0.00402832 20.5881 0.00402832 45.9801C0.00402832 50.8711 0.774028 55.5801 2.19003 60.0011L42.913 19.2761C45.237 16.9501 49.019 16.9501 51.344 19.2761C52.506 20.4381 53.086 21.9651 53.086 23.4921C53.086 25.0201 52.506 26.5481 51.344 27.7101L7.66603 71.3911C15.901 83.7881 29.986 91.9651 45.983 91.9651C71.377 91.9651 91.961 71.3761 91.961 45.9831C91.961 41.0921 91.191 36.3851 89.779 31.9621ZM23.495 74.4321C21.903 74.4321 20.406 73.8151 19.28 72.6881C16.957 70.3641 16.957 66.5791 19.28 64.2541L64.256 19.2771C66.582 16.9511 70.365 16.9511 72.69 19.2771C73.817 20.4021 74.44 21.9021 74.44 23.4951C74.44 25.0861 73.817 26.5821 72.69 27.7111L27.713 72.6881C26.586 73.8121 25.088 74.4321 23.495 74.4321Z" fill="#696969"/>
</svg>
