<svg width="78" height="78" viewBox="0 0 78 78" fill="none" xmlns="http://www.w3.org/2000/svg">
<path d="M5.19035 39.046C2.083 37.0462 0.019043 33.5596 0.019043 29.5978C0.019043 23.4053 5.05705 18.3671 11.2497 18.3671C13.7413 18.3671 16.0451 19.1839 17.91 20.5621V11.4593C17.9098 5.14066 23.0505 0.00012207 29.369 0.00012207C33.3749 0.00012207 36.905 2.06788 38.9541 5.19047C40.954 2.08312 44.4405 0.019165 48.4024 0.019165C54.5948 0.019165 59.633 5.05717 59.633 11.2498C59.633 13.7414 58.8163 16.0453 57.438 17.9101H66.5409C72.8595 17.91 78 23.0506 78 29.3691C78 33.375 75.9322 36.9051 72.8096 38.9543C75.917 40.9541 77.981 44.4406 77.981 48.4025C77.981 54.5949 72.9429 59.6331 66.7503 59.6331C64.2587 59.6331 61.9549 58.8164 60.09 57.4381V66.541C60.09 72.8594 54.9495 78.0001 48.6309 78.0001C44.625 78.0001 41.0949 75.9324 39.0457 72.8098C37.0459 75.9171 33.5593 77.9811 29.5975 77.9811C23.405 77.9811 18.3669 72.9431 18.3669 66.7505C18.3669 64.2589 19.1836 61.955 20.5618 60.0901H11.459C5.14053 60.0901 -0.000152588 54.9496 -0.000152588 48.631C0 44.6253 2.06776 41.095 5.19035 39.046ZM48.631 73.4298C52.4296 73.4298 55.5199 70.3395 55.5199 66.541V48.6311C55.5199 44.8326 52.4296 41.7423 48.631 41.7423C44.8325 41.7423 41.7422 44.8326 41.7422 48.6311V66.541C41.7422 70.3395 44.8325 73.4298 48.631 73.4298ZM29.369 4.57043C25.5704 4.57043 22.4801 7.66073 22.4801 11.4593V29.3691C22.4801 33.1676 25.5704 36.2579 29.369 36.2579C33.1675 36.2579 36.2578 33.1676 36.2578 29.3691V11.4593C36.2578 7.66073 33.1675 4.57043 29.369 4.57043ZM35.5663 39.0001C36.9405 39.8874 38.1126 41.0597 39 42.4338C39.8872 41.0597 41.0595 39.8875 42.4337 39.0001C41.0595 38.1129 39.8874 36.9406 39 35.5664C38.1128 36.9406 36.9405 38.1129 35.5663 39.0001ZM48.631 22.4803C44.8325 22.4803 41.7422 25.5706 41.7422 29.3691C41.7422 33.1676 44.8325 36.2579 48.631 36.2579H66.5409C70.3394 36.2579 73.4297 33.1676 73.4297 29.3691C73.4297 25.5706 70.3394 22.4803 66.5409 22.4803H48.631ZM29.369 55.52C33.1675 55.52 36.2578 52.4297 36.2578 48.6311C36.2578 44.8326 33.1675 41.7423 29.369 41.7423H11.4591C7.66061 41.7423 4.57031 44.8326 4.57031 48.6311C4.57031 52.4297 7.66061 55.52 11.4591 55.52H29.369ZM11.2497 22.9373C7.57727 22.9373 4.58936 25.9251 4.58936 29.5976C4.58936 33.27 7.57712 36.2579 11.2497 36.2579H17.91V29.5976C17.9098 25.9252 14.9221 22.9373 11.2497 22.9373ZM48.4025 4.58948C44.7301 4.58948 41.7422 7.57724 41.7422 11.2498V17.9101H48.4025C52.0749 17.9101 55.0628 14.9223 55.0628 11.2498C55.0628 7.57724 52.0749 4.58948 48.4025 4.58948ZM66.7503 55.0629C70.4229 55.0629 73.4106 52.0752 73.4106 48.4026C73.4106 44.7301 70.4229 41.7423 66.7503 41.7423H60.09V48.4026C60.0902 52.075 63.0779 55.0629 66.7503 55.0629ZM29.5975 73.4108C33.27 73.4108 36.2578 70.423 36.2578 66.7505V60.0901H29.5975C25.9251 60.0901 22.9372 63.0779 22.9372 66.7505C22.9372 70.423 25.9251 73.4108 29.5975 73.4108Z" fill="#2EC6CF"/>
</svg>
