<svg width="94" height="82" viewBox="0 0 94 82" fill="none" xmlns="http://www.w3.org/2000/svg">
<path d="M79.9379 14.0101C61.7249 -4.30692 32.1079 -4.38992 13.7919 13.8241C-4.52407 32.0381 -4.60807 61.6521 13.6079 79.9701L22.2799 71.3451C15.7559 64.9771 11.7019 56.0901 11.6999 46.2531C11.6999 46.2501 11.6999 46.2481 11.6999 46.2451C11.6979 26.8731 27.4029 11.1641 46.7759 11.1631C66.1489 11.1601 81.8579 26.8651 81.8599 46.2391C81.8599 46.2411 81.8599 46.2441 81.8599 46.2441C81.8619 56.1581 77.7439 65.1061 71.1329 71.4861L79.7519 80.1561C98.0679 61.9421 98.1519 32.3291 79.9379 14.0101Z" fill="#DB6A6A"/>
<path d="M28.8519 81.3261L44.0419 52.5931L15.2079 81.2241L28.8519 81.3261Z" fill="#DB6A6A"/>
<path d="M64.3109 81.3261L77.9539 81.2241L49.1179 52.5931L64.3109 81.3261Z" fill="#DB6A6A"/>
</svg>
