<svg width="84" height="84" viewBox="0 0 84 84" fill="none" xmlns="http://www.w3.org/2000/svg">
<path d="M27.2344 0H12.3047C5.51988 0 0 5.51988 0 12.3047V27.2344C0 34.0192 5.51988 39.5391 12.3047 39.5391H27.2344C34.0192 39.5391 39.5391 34.0192 39.5391 27.2344V12.3047C39.5391 5.51988 34.0192 0 27.2344 0ZM34.6172 27.2344C34.6172 31.3053 31.3053 34.6172 27.2344 34.6172H12.3047C8.2338 34.6172 4.92188 31.3053 4.92188 27.2344V12.3047C4.92188 8.2338 8.2338 4.92188 12.3047 4.92188H27.2344C31.3053 4.92188 34.6172 8.2338 34.6172 12.3047V27.2344Z" fill="#4A33D5"/>
<path d="M71.6953 44.4609H56.7656C49.9808 44.4609 44.4609 49.9808 44.4609 56.7656V71.6953C44.4609 78.4801 49.9808 84 56.7656 84H71.6953C78.4801 84 84 78.4801 84 71.6953V56.7656C84 49.9808 78.4801 44.4609 71.6953 44.4609ZM79.0781 71.6953C79.0781 75.7662 75.7662 79.0781 71.6953 79.0781H56.7656C52.6947 79.0781 49.3828 75.7662 49.3828 71.6953V56.7656C49.3828 52.6947 52.6947 49.3828 56.7656 49.3828H71.6953C75.7662 49.3828 79.0781 52.6947 79.0781 56.7656V71.6953Z" fill="#314CD7"/>
<path d="M71.6953 0H56.7656C49.9808 0 44.4609 5.51988 44.4609 12.3047V27.2344C44.4609 36.7331 36.7331 44.4609 27.2344 44.4609H12.3047C5.51988 44.4609 0 49.9808 0 56.7656V71.6953C0 78.4801 5.51988 84 12.3047 84H27.2344C34.0192 84 39.5391 78.4801 39.5391 71.6953V56.7656C39.5391 47.2669 47.2669 39.5391 56.7656 39.5391H71.6953C78.4801 39.5391 84 34.0192 84 27.2344V12.3047C84 5.51988 78.4801 0 71.6953 0ZM34.6172 56.7656V71.6953C34.6172 75.7662 31.3053 79.0781 27.2344 79.0781H12.3047C8.2338 79.0781 4.92188 75.7662 4.92188 71.6953V56.7656C4.92188 52.6947 8.2338 49.3828 12.3047 49.3828H27.2344C30.6513 49.3828 33.8901 48.605 36.7828 47.2172C35.395 50.1099 34.6172 53.3487 34.6172 56.7656ZM79.0781 27.2344C79.0781 31.3053 75.7662 34.6172 71.6953 34.6172H56.7656C53.3487 34.6172 50.1099 35.395 47.2172 36.7828C48.605 33.8901 49.3828 30.6513 49.3828 27.2344V12.3047C49.3828 8.2338 52.6947 4.92188 56.7656 4.92188H71.6953C75.7662 4.92188 79.0781 8.2338 79.0781 12.3047V27.2344Z" fill="#C5539E"/>
</svg>
