<svg width="86" height="72" viewBox="0 0 86 72" fill="none" xmlns="http://www.w3.org/2000/svg">
<path d="M37.3205 33.051C34.8695 27.9938 31.9108 22.7034 28.8503 16.3867C34.4518 16.3867 37.2277 16.4097 41.4064 16.3812C52.5351 16.305 60.0937 19.1737 64.8534 30.6045C65.3124 31.708 65.7916 33.0363 65.7916 33.0363L85.9991 33.0198C82.2666 15.3421 68.1031 0.609238 52.6223 0.475212L0 0.410034L11.2783 22.2582C18.6286 34.6685 21.2347 33.1336 37.3205 33.051Z" fill="#5070C1"/>
<path d="M64.8534 41.4616C60.0928 52.8915 52.5341 55.762 41.4064 55.6849C37.2277 55.6564 34.4518 55.6803 28.8503 55.6803C31.9108 49.3627 34.8695 44.0714 37.3205 39.0161C21.2356 38.9325 18.6295 37.3967 11.2792 49.8079L0 71.5854L52.6223 71.5909C68.1022 71.4569 82.2666 56.6543 85.9982 38.9766L65.7916 39.0307C65.7925 39.0298 65.3124 40.3582 64.8534 41.4616Z" fill="#498055"/>
</svg>
