<svg width="118" height="32" viewBox="0 0 118 32" fill="none" xmlns="http://www.w3.org/2000/svg">
<path d="M31.2381 0.221191C29.9295 0.221191 28.6233 0.221191 27.3147 0.221191C26.3326 0.223558 26.2404 0.320578 26.2404 1.31444C26.2404 6.11575 26.2404 10.9194 26.2404 15.7207C26.2404 20.612 26.2404 25.5032 26.2404 30.3991C26.2404 31.2108 26.38 31.3457 27.1798 31.3504C28.4624 31.3575 29.7473 31.3504 31.0346 31.3504C32.2438 31.3504 32.355 31.2439 32.355 30.0513C32.355 21.8212 32.355 13.591 32.355 5.36325C32.355 4.00971 32.3574 2.65852 32.355 1.30498C32.3526 0.384469 32.1822 0.223558 31.2381 0.221191Z" fill="#37A3AA"/>
<path d="M5.53487 0.223625C4.33987 0.216526 3.14487 0.211792 1.9475 0.22599C0.693338 0.244921 0 0.959554 0 2.21845C0 6.86358 0 11.5111 0 16.1562C0 20.8723 0 25.5813 0 30.2975C0 31.1233 0.111218 31.2345 0.939438 31.2345C2.15574 31.244 3.3744 31.244 4.5907 31.2345C5.86853 31.2251 6.50981 30.5885 6.50981 29.3178C6.50981 19.9589 6.50981 10.5953 6.50981 1.23878C6.51217 0.417663 6.33943 0.230724 5.53487 0.223625Z" fill="#37A3AA"/>
<path d="M23.0103 30.527C22.6625 27.0627 21.4012 23.9888 18.9757 21.4497C16.3633 18.7189 13.1498 17.2163 9.64521 16.8684C8.5141 16.8472 8.50464 16.8472 8.5354 17.7014C8.54723 18.0161 8.60876 18.3261 8.65608 18.6385C9.28316 22.7914 11.3135 26.0996 14.6926 28.5724C16.9075 30.2004 19.4135 31.0452 22.1419 31.3008C22.9535 31.3789 23.0908 31.3221 23.0103 30.527Z" fill="#37A3AA"/>
<path d="M22.1608 0.299298C21.8508 0.348992 21.529 0.330059 21.2213 0.377385C17.6671 0.942941 14.65 2.51656 12.2505 5.21182C10.0522 7.67755 8.83118 10.5858 8.54248 13.8703C8.46913 14.7269 8.51645 14.7292 9.41803 14.8452C10.6556 14.5399 11.9429 14.353 13.1261 13.9034C19.0348 11.6601 22.2673 7.30603 23.0127 1.05889C23.1073 0.266167 22.9748 0.176249 22.1608 0.299298Z" fill="#37A3AA"/>
<path d="M53.865 14.9659C53.7751 11.5182 51.8134 9.21097 48.4958 8.39458C44.8161 7.48117 41.1696 8.01597 37.542 8.78976C37.1113 8.87968 36.9339 9.18967 36.9433 9.64164C36.9623 10.4486 36.9481 11.2626 36.9481 12.0742C36.9481 13.2314 37.0995 13.2882 38.2448 13.2195C40.5804 13.087 42.9207 12.9876 45.2586 12.9876C46.6548 12.9876 47.5019 13.7756 47.7338 15.0393C47.8072 15.4321 47.7788 15.8486 47.7788 16.2532C47.7835 17.8221 47.7812 17.8363 46.2336 17.8174C44.0707 17.7961 41.915 17.867 39.8208 18.5012C37.658 19.1496 36.1033 20.4298 35.6347 22.7346C35.3342 24.223 35.365 25.7257 35.727 27.2212C36.2287 29.2917 37.4828 30.7021 39.5321 31.3126C41.8085 31.9823 44.0636 31.8852 46.2288 30.837C46.8488 30.5364 47.438 30.1673 48.1314 29.7816C48.1598 29.9969 48.1811 30.1058 48.1858 30.217C48.2379 31.2345 48.3657 31.3623 49.3974 31.3623C50.6137 31.3647 51.83 31.367 53.0486 31.3623C53.7562 31.3576 54.007 31.1328 54.0046 30.4441C53.9739 25.2832 53.9999 20.1198 53.865 14.9659ZM47.1801 26.5894C45.855 27.1029 44.5156 27.3797 43.0934 27.1336C42.2084 26.9822 41.5601 26.4569 41.4843 25.5577C41.4181 24.7365 41.4654 23.8894 41.6263 23.0872C41.7991 22.2306 42.4285 21.6035 43.2875 21.4946C44.6884 21.3219 46.1058 21.284 47.5161 21.2343C47.6416 21.2296 47.8806 21.5349 47.8924 21.71C47.9373 22.4057 47.9113 23.1061 47.9113 23.8042C47.9113 24.3485 47.8687 24.8927 47.9231 25.4299C47.9941 26.0546 47.7504 26.3717 47.1801 26.5894Z" fill="#37A3AA"/>
<path d="M114.985 6.61743V6.7949H115.482V8.24548H115.695V6.7949H116.192V6.61743H114.985Z" fill="#37A3AA"/>
<path d="M117.898 6.61743H117.617L117.326 7.40542C117.257 7.6113 117.195 7.78877 117.155 7.95442H117.153C117.103 7.78404 117.053 7.6042 116.987 7.40542L116.71 6.61743H116.443L116.332 8.24548H116.53L116.578 7.54504C116.592 7.29894 116.604 7.02681 116.609 6.82567H116.613C116.663 7.01734 116.725 7.22795 116.8 7.45748L117.065 8.23601H117.224L117.51 7.44328C117.593 7.21848 117.657 7.01498 117.714 6.82567H117.718C117.718 7.02444 117.733 7.30367 117.749 7.52847L117.787 8.24548H118L117.898 6.61743Z" fill="#37A3AA"/>
<path d="M92.5595 16.5041C92.5453 15.2736 92.4009 14.0289 92.1335 12.8197C91.6011 10.3232 90.1695 8.56501 87.5405 8.10594C84.6701 7.59718 81.9346 8.00419 79.4712 9.67483C79.2299 9.83574 78.9885 9.98245 78.5744 10.2451C78.5555 9.76001 78.5271 9.45949 78.5223 9.15423C78.5034 8.35914 78.3661 8.21006 77.5663 8.20533C76.2956 8.19823 75.0367 8.19586 73.7754 8.20769C73.0324 8.21243 72.81 8.44433 72.81 9.18499C72.8076 16.2201 72.8076 23.2529 72.81 30.288C72.81 31.1139 73.0324 31.341 73.8417 31.3458C75.2402 31.3505 76.6387 31.3316 78.0372 31.3576C78.6619 31.3647 78.9435 31.1186 78.9317 30.4773C78.908 29.0812 78.9246 27.6851 78.9246 26.2842C78.9246 22.5643 78.9175 18.8444 78.9388 15.1245C78.9388 14.8169 79.0193 14.3555 79.2251 14.2277C80.7774 13.2717 82.4434 12.6848 84.2962 12.9924C85.3161 13.1604 86.0307 13.7591 86.2224 14.8122C86.3573 15.541 86.459 16.2817 86.459 17.02C86.4874 21.4426 86.4732 25.8606 86.4732 30.2809C86.4732 31.244 86.5845 31.3505 87.5712 31.3505C88.8348 31.3576 90.1008 31.3576 91.3621 31.3505C92.453 31.3505 92.5784 31.2298 92.5784 30.1626C92.5784 25.6145 92.6092 21.0617 92.5595 16.5041Z" fill="#37A3AA"/>
<path d="M114.095 16.2413C114.093 15.548 114.06 14.8452 113.954 14.1495C113.532 11.4519 112.086 9.52566 109.467 8.65248C108.369 8.2857 107.198 8.0325 106.045 7.95915C103.291 7.7864 100.569 8.11533 97.8742 8.72348C97.2826 8.86072 97.0342 9.18255 97.0365 9.75993C97.0389 10.503 97.0365 11.2484 97.0365 11.9914C97.0365 13.1888 97.2022 13.281 98.3664 13.2195C100.685 13.0894 103.002 12.9853 105.319 12.9711C106.814 12.9663 107.652 13.7354 107.905 15.2144C108.019 15.8769 107.957 16.5655 107.993 17.2352C108.016 17.6801 107.806 17.8268 107.38 17.8126C106.41 17.7984 105.428 17.7156 104.472 17.8315C102.827 18.0256 101.159 18.2149 99.5685 18.6597C97.4601 19.2537 96.0924 20.7279 95.7469 22.9476C95.6073 23.8681 95.6309 24.8241 95.6759 25.7611C95.8557 29.5662 98.7592 32.0651 102.557 31.7574C104.476 31.6084 106.284 31.1517 107.855 29.9803C107.962 29.9046 108.097 29.862 108.244 29.7957C108.312 29.8999 108.355 29.9259 108.359 29.9685C108.383 30.0821 108.395 30.1933 108.4 30.3092C108.452 31.2913 108.516 31.3504 109.524 31.3504C110.697 31.3575 111.866 31.3575 113.04 31.3504C113.984 31.3504 114.1 31.2439 114.1 30.314C114.103 25.6239 114.107 20.9314 114.095 16.2413ZM108.135 25.6452C108.151 26.0759 107.967 26.303 107.59 26.471C106.206 27.0839 104.784 27.3986 103.262 27.1502C102.167 26.9632 101.525 26.2202 101.544 24.843C101.58 22.5027 102.096 21.4449 104.942 21.2296C105.792 21.1633 106.656 21.232 107.51 21.213C107.99 21.1917 108.144 21.4165 108.135 21.8614C108.113 22.5145 108.125 23.1724 108.125 23.8207C108.13 24.4265 108.106 25.0323 108.135 25.6452Z" fill="#37A3AA"/>
<path d="M70.2614 8.76849C70.2638 8.16508 69.994 7.90714 69.3953 7.93081C67.6348 8.00653 66.0446 8.56026 64.62 9.58961C64.426 9.73159 64.232 9.86174 63.9409 10.07C63.9172 9.74579 63.8912 9.55412 63.8912 9.36008C63.8723 8.38988 63.7019 8.21004 62.753 8.21004C61.5296 8.2053 60.318 8.20767 59.0994 8.20767C57.9848 8.21003 57.8002 8.38988 57.8002 9.49969C57.8002 12.6091 57.8002 15.7232 57.8002 18.8325C57.8002 22.6045 57.7979 26.3693 57.8002 30.1295C57.8002 31.128 58.0203 31.3505 58.9692 31.3505C60.2518 31.3576 61.5414 31.3576 62.8264 31.3505C63.8628 31.3505 64.0285 31.1943 64.0285 30.1247C64.0308 25.1246 64.0356 20.1175 64.019 15.1056C64.019 14.611 64.1633 14.3294 64.6177 14.1141C66.1227 13.4065 67.6655 12.8765 69.3575 12.9451C69.9774 12.9711 70.278 12.7368 70.2638 12.0814C70.2377 10.9739 70.2425 9.87357 70.2614 8.76849Z" fill="#37A3AA"/>
</svg>
