<svg width="210" height="210" viewBox="0 0 210 210" fill="none" xmlns="http://www.w3.org/2000/svg">
<path fill-rule="evenodd" clip-rule="evenodd" d="M210 105.257L200 105.233L200 105L200 104.767L210 104.743C210 104.829 210 104.914 210 105C210 105.086 210 105.171 210 105.257ZM209.729 97.4005L199.755 98.1139C199.744 97.9598 199.732 97.8058 199.721 97.6519L209.691 96.8903C209.704 97.0602 209.717 97.2303 209.729 97.4005ZM208.878 89.5976L198.985 91.052C198.962 90.8999 198.94 90.748 198.917 90.5962L208.803 89.0938C208.828 89.2616 208.854 89.4295 208.878 89.5976ZM207.445 81.8742L197.688 84.0672C197.655 83.9167 197.62 83.7663 197.586 83.6161L207.332 81.3753C207.37 81.5415 207.408 81.7078 207.445 81.8742ZM205.436 74.2852C205.387 74.1226 205.337 73.9601 205.286 73.7978L195.737 76.7657C195.782 76.9124 195.828 77.0593 195.872 77.2063L205.436 74.2852ZM202.86 66.865L193.544 70.4983C193.488 70.3546 193.431 70.2112 193.375 70.0679L202.673 66.389C202.736 66.5475 202.798 66.7061 202.86 66.865ZM199.735 59.6632L190.718 63.9864C190.651 63.8473 190.584 63.7084 190.517 63.5697L199.513 59.2025C199.587 59.3559 199.661 59.5094 199.735 59.6632ZM196.076 52.7131L187.408 57.7C187.331 57.5664 187.254 57.4329 187.176 57.2996L195.82 52.2705C195.905 52.4178 195.991 52.5653 196.076 52.7131ZM191.908 46.0585L183.637 51.6789C183.593 51.6139 183.549 51.5489 183.505 51.484C183.462 51.4215 183.419 51.3589 183.376 51.2965L191.62 45.6359C191.716 45.7765 191.813 45.9174 191.908 46.0585ZM187.255 39.7317C187.149 39.5983 187.043 39.4651 186.936 39.3322L179.137 45.591C179.233 45.7113 179.33 45.8318 179.426 45.9526L187.255 39.7317ZM182.145 33.7695L174.799 40.5551C174.695 40.4417 174.59 40.3286 174.484 40.2158L181.797 33.3947C181.913 33.5193 182.029 33.6443 182.145 33.7695ZM176.605 28.2031L169.784 35.5156C169.671 35.4103 169.558 35.3053 169.445 35.2006L176.231 27.8552C176.356 27.9709 176.481 28.0869 176.605 28.2031ZM170.668 23.0638L164.409 30.8631C164.289 30.7665 164.168 30.6702 164.047 30.5743L170.268 22.7448C170.402 22.8508 170.535 22.9572 170.668 23.0638ZM164.364 18.3802L158.704 26.6239C158.576 26.5365 158.449 26.4495 158.321 26.3627L163.942 18.0916C164.083 18.1875 164.223 18.2837 164.364 18.3802ZM157.729 14.1803L152.7 22.8236C152.567 22.7461 152.434 22.6689 152.3 22.592L157.287 13.9242C157.435 14.0092 157.582 14.0946 157.729 14.1803ZM150.797 10.4874L146.43 19.4834C146.292 19.4161 146.153 19.3491 146.014 19.2824L150.337 10.2652C150.491 10.3389 150.644 10.413 150.797 10.4874ZM143.611 7.32666L139.932 16.6254C139.789 16.5687 139.645 16.5123 139.502 16.4563L143.135 7.13968C143.294 7.20163 143.453 7.26396 143.611 7.32666ZM136.202 4.71389L133.234 14.2633C133.088 14.2177 132.941 14.1725 132.794 14.1275L135.715 4.56371C135.877 4.61338 136.04 4.66344 136.202 4.71389ZM128.625 2.66841L126.384 12.4141C126.234 12.3796 126.083 12.3454 125.933 12.3116L128.126 2.55499C128.292 2.5924 128.459 2.63021 128.625 2.66841ZM120.906 1.197L119.404 11.0835C119.252 11.0604 119.1 11.0377 118.948 11.0154L120.402 1.12169C120.57 1.14639 120.738 1.1715 120.906 1.197ZM113.11 0.308534L112.348 10.2795C112.194 10.2677 112.04 10.2563 111.886 10.2453L112.6 0.270803C112.77 0.282975 112.94 0.295552 113.11 0.308534ZM105.257 0.000308086C105.171 0.000102734 105.086 0 105 0C104.914 0 104.829 0.000102722 104.743 0.000308049L104.767 10.0003L105 10L105.233 10.0003L105.257 0.000308086ZM97.4005 0.270802L98.1139 10.2453C97.9598 10.2563 97.8058 10.2677 97.6519 10.2795L96.8903 0.308533C97.0602 0.295551 97.2303 0.282974 97.4005 0.270802ZM89.5976 1.12169L91.052 11.0154C90.8999 11.0377 90.748 11.0604 90.5962 11.0835L89.0938 1.197C89.2616 1.1715 89.4295 1.14639 89.5976 1.12169ZM81.8742 2.55498C81.7078 2.59239 81.5415 2.6302 81.3753 2.6684L83.6161 12.4141C83.7663 12.3796 83.9167 12.3454 84.0672 12.3116L81.8742 2.55498ZM66.865 7.13968C66.7061 7.20163 66.5475 7.26396 66.389 7.32666L70.0679 16.6254C70.2112 16.5687 70.3546 16.5123 70.4983 16.4563L66.865 7.13968ZM52.7131 13.9242L57.7 22.592C57.5664 22.6689 57.4329 22.7461 57.2996 22.8236L52.2705 14.1803C52.4178 14.0946 52.5653 14.0092 52.7131 13.9242ZM46.0585 18.0916L51.6789 26.3627C51.5512 26.4495 51.4237 26.5365 51.2965 26.6239L45.6359 18.3802C45.7765 18.2837 45.9174 18.1875 46.0585 18.0916ZM39.7317 22.7448L45.9526 30.5743C45.8318 30.6702 45.7113 30.7665 45.591 30.8631L39.3322 23.0638C39.4651 22.9572 39.5983 22.8508 39.7317 22.7448ZM33.7695 27.8552L40.5551 35.2006C40.4417 35.3053 40.3286 35.4103 40.2158 35.5156L33.3947 28.2031C33.5193 28.0868 33.6443 27.9709 33.7695 27.8552ZM28.2031 33.3947L35.5156 40.2158C35.4103 40.3286 35.3053 40.4417 35.2006 40.5551L27.8552 33.7695C27.9709 33.6443 28.0869 33.5193 28.2031 33.3947ZM23.0638 39.3322L30.8631 45.591C30.7665 45.7113 30.6702 45.8318 30.5743 45.9526L22.7448 39.7317C22.8508 39.5983 22.9572 39.4651 23.0638 39.3322ZM18.3802 45.6359L26.6239 51.2965C26.5365 51.4237 26.4495 51.5512 26.3627 51.6789L18.0916 46.0585C18.1875 45.9174 18.2837 45.7765 18.3802 45.6359ZM14.1803 52.2705L22.8236 57.2996C22.7461 57.4329 22.6689 57.5664 22.592 57.7L13.9242 52.7131C14.0092 52.5653 14.0946 52.4178 14.1803 52.2705ZM10.4874 59.2025L19.4834 63.5697C19.4161 63.7084 19.3491 63.8473 19.2824 63.9864L10.2652 59.6632C10.3389 59.5095 10.413 59.3559 10.4874 59.2025ZM7.32666 66.389L16.6254 70.0679C16.5687 70.2112 16.5123 70.3546 16.4563 70.4982L7.13968 66.865C7.20163 66.7061 7.26396 66.5475 7.32666 66.389ZM4.71389 73.7978L14.2633 76.7657C14.2177 76.9124 14.1725 77.0593 14.1275 77.2063L4.56371 74.2852C4.61338 74.1226 4.66344 73.9601 4.71389 73.7978ZM2.66841 81.3753L12.4141 83.6161C12.3796 83.7663 12.3454 83.9167 12.3116 84.0672L2.55498 81.8742C2.5924 81.7078 2.63021 81.5415 2.66841 81.3753ZM1.197 89.0938L11.0835 90.5962C11.0604 90.748 11.0377 90.8999 11.0154 91.0519L1.12169 89.5976C1.14639 89.4295 1.1715 89.2616 1.197 89.0938ZM0.308534 96.8903L10.2795 97.6519C10.2677 97.8058 10.2563 97.9598 10.2453 98.1139L0.270803 97.4005C0.282975 97.2303 0.295552 97.0602 0.308534 96.8903ZM0.000308086 104.743C0.000102734 104.829 0 104.914 0 105C0 105.086 0.000102722 105.171 0.000308049 105.257L10.0003 105.233L10 105L10.0003 104.767L0.000308086 104.743ZM0.270802 112.6L10.2453 111.886C10.2563 112.04 10.2677 112.194 10.2795 112.348L0.308533 113.11C0.295551 112.94 0.282974 112.77 0.270802 112.6ZM1.12169 120.402L11.0154 118.948C11.0377 119.1 11.0604 119.252 11.0835 119.404L1.197 120.906C1.1715 120.738 1.14639 120.57 1.12169 120.402ZM2.55498 128.126L12.3116 125.933C12.3454 126.083 12.3796 126.234 12.4141 126.384L2.6684 128.625C2.6302 128.459 2.59239 128.292 2.55498 128.126ZM4.5637 135.715L14.1275 132.794C14.1725 132.941 14.2177 133.088 14.2633 133.234L4.71388 136.202C4.66344 136.04 4.61338 135.877 4.5637 135.715ZM7.13967 143.135L16.4563 139.502C16.5123 139.645 16.5687 139.789 16.6254 139.932L7.32666 143.611C7.26396 143.453 7.20163 143.294 7.13967 143.135ZM10.2652 150.337L19.2824 146.014C19.3491 146.153 19.4161 146.292 19.4834 146.43L10.4874 150.797C10.413 150.644 10.3389 150.491 10.2652 150.337ZM13.9242 157.287L22.592 152.3C22.6689 152.434 22.7461 152.567 22.8236 152.7L14.1803 157.73C14.0946 157.582 14.0092 157.435 13.9242 157.287ZM18.0916 163.942L26.3627 158.321C26.4495 158.449 26.5365 158.576 26.6239 158.704L18.3802 164.364C18.2837 164.223 18.1875 164.083 18.0916 163.942ZM22.7448 170.268L30.5743 164.047C30.627 164.114 30.6798 164.18 30.7327 164.246C30.7761 164.301 30.8196 164.355 30.8631 164.409L23.0638 170.668C22.9572 170.535 22.8508 170.402 22.7448 170.268ZM27.8552 176.231L35.2006 169.445C35.3053 169.558 35.4103 169.671 35.5156 169.784L28.2031 176.605C28.0868 176.481 27.9709 176.356 27.8552 176.231ZM33.3947 181.797L40.2158 174.484C40.3286 174.59 40.4417 174.695 40.5551 174.799L33.7695 182.145C33.6443 182.029 33.5193 181.913 33.3947 181.797ZM39.3322 186.936L45.591 179.137C45.7113 179.233 45.8318 179.33 45.9526 179.426L39.7317 187.255C39.5983 187.149 39.4651 187.043 39.3322 186.936ZM45.6359 191.62L51.2965 183.376C51.4237 183.463 51.5512 183.551 51.6789 183.637L46.0585 191.908C45.9174 191.813 45.7765 191.716 45.6359 191.62ZM52.2705 195.82L57.2996 187.176C57.4329 187.254 57.5664 187.331 57.7 187.408L52.7131 196.076C52.5653 195.991 52.4178 195.905 52.2705 195.82ZM59.2025 199.513C59.3559 199.587 59.5095 199.661 59.6632 199.735L63.9864 190.718C63.9153 190.683 63.8442 190.649 63.7732 190.615C63.7054 190.582 63.6375 190.549 63.5697 190.517L59.2025 199.513ZM66.389 202.673L70.0679 193.375C70.2112 193.431 70.3546 193.488 70.4982 193.544L66.865 202.86C66.7061 202.798 66.5475 202.736 66.389 202.673ZM73.7978 205.286L76.7657 195.737C76.9124 195.782 77.0593 195.828 77.2063 195.872L74.2852 205.436C74.1226 205.387 73.9601 205.337 73.7978 205.286ZM81.3753 207.332L83.6161 197.586C83.7044 197.606 83.7928 197.626 83.8813 197.646C83.9432 197.661 84.0052 197.674 84.0672 197.688L81.8742 207.445C81.7078 207.408 81.5415 207.37 81.3753 207.332ZM89.0938 208.803L90.5962 198.917C90.6743 198.928 90.7526 198.94 90.8308 198.952C90.9045 198.963 90.9782 198.974 91.0519 198.985L89.5976 208.878C89.4295 208.854 89.2616 208.828 89.0938 208.803ZM96.8903 209.691L97.6519 199.721C97.8058 199.732 97.9598 199.744 98.1139 199.755L97.4005 209.729C97.2303 209.717 97.0602 209.704 96.8903 209.691ZM104.743 210L104.767 200L105 200L105.233 200L105.257 210C105.171 210 105.086 210 105 210C104.914 210 104.829 210 104.743 210ZM112.6 209.729L111.886 199.755C112.04 199.744 112.194 199.732 112.348 199.721L113.11 209.691C112.94 209.704 112.77 209.717 112.6 209.729ZM120.402 208.878L118.948 198.985C119.051 198.969 119.155 198.954 119.258 198.939C119.307 198.931 119.355 198.924 119.404 198.917L120.906 208.803C120.738 208.828 120.57 208.854 120.402 208.878ZM128.126 207.445L125.933 197.688C126.012 197.671 126.092 197.653 126.171 197.635C126.242 197.618 126.313 197.602 126.384 197.586L128.625 207.332C128.459 207.37 128.292 207.408 128.126 207.445ZM135.715 205.436C135.877 205.387 136.04 205.337 136.202 205.286L133.234 195.737L133.123 195.771C133.014 195.805 132.904 195.839 132.794 195.872L135.715 205.436ZM143.135 202.86L139.502 193.544C139.645 193.488 139.789 193.431 139.932 193.375L143.611 202.673C143.453 202.736 143.294 202.798 143.135 202.86ZM150.337 199.735L146.014 190.718C146.153 190.651 146.292 190.584 146.43 190.517L150.797 199.513C150.644 199.587 150.491 199.661 150.337 199.735ZM157.287 196.076L152.3 187.408C152.434 187.331 152.567 187.254 152.7 187.176L157.73 195.82C157.582 195.905 157.435 195.991 157.287 196.076ZM163.942 191.908L158.321 183.637C158.449 183.551 158.576 183.463 158.704 183.376L164.364 191.62C164.223 191.716 164.083 191.813 163.942 191.908ZM170.268 187.255C170.402 187.149 170.535 187.043 170.668 186.936L164.409 179.137C164.289 179.233 164.168 179.33 164.047 179.426L170.268 187.255ZM176.231 182.145L169.445 174.799C169.558 174.695 169.671 174.59 169.784 174.484L176.605 181.797C176.481 181.913 176.356 182.029 176.231 182.145ZM181.797 176.605L174.484 169.784C174.59 169.671 174.695 169.558 174.799 169.445L182.145 176.231C182.029 176.356 181.913 176.481 181.797 176.605ZM186.936 170.668C187.043 170.535 187.149 170.402 187.255 170.268L179.426 164.047C179.33 164.168 179.233 164.289 179.137 164.409L186.936 170.668ZM191.62 164.364L183.376 158.704C183.463 158.576 183.551 158.449 183.637 158.321L191.908 163.942C191.813 164.083 191.716 164.223 191.62 164.364ZM195.82 157.729L187.176 152.7C187.254 152.567 187.331 152.434 187.408 152.3L196.076 157.287C195.991 157.435 195.905 157.582 195.82 157.729ZM199.513 150.797L190.517 146.43C190.584 146.292 190.651 146.153 190.718 146.014L199.735 150.337C199.661 150.491 199.587 150.644 199.513 150.797ZM202.673 143.611L193.375 139.932C193.431 139.789 193.488 139.645 193.544 139.502L202.86 143.135C202.798 143.294 202.736 143.453 202.673 143.611ZM205.286 136.202L195.737 133.234C195.762 133.153 195.787 133.072 195.812 132.99C195.832 132.925 195.852 132.859 195.872 132.794L205.436 135.715C205.387 135.877 205.337 136.04 205.286 136.202ZM207.332 128.625L197.586 126.384C197.62 126.234 197.655 126.083 197.688 125.933L207.445 128.126C207.408 128.292 207.37 128.459 207.332 128.625ZM208.803 120.906L198.917 119.404C198.94 119.252 198.962 119.1 198.985 118.948L208.878 120.402C208.854 120.57 208.828 120.738 208.803 120.906ZM209.691 113.11L199.721 112.348C199.732 112.194 199.744 112.04 199.755 111.886L209.729 112.6C209.717 112.77 209.704 112.94 209.691 113.11ZM59.2025 10.4874L63.5697 19.4834C63.7084 19.4161 63.8473 19.3491 63.9864 19.2824L59.6632 10.2652C59.5094 10.3389 59.3559 10.413 59.2025 10.4874ZM73.7978 4.71388L76.7657 14.2633C76.9124 14.2177 77.0593 14.1725 77.2063 14.1275L74.2852 4.5637C74.1226 4.61338 73.9601 4.66344 73.7978 4.71388Z" fill="#5D5B5C"/>
<circle cx="105" cy="105" r="100" stroke="#D8A88B" stroke-width="10" stroke-dasharray="0.5 120"/>
<path opacity="0.4" d="M97.058 31.04C98.522 31.04 99.674 31.628 100.514 32.804C101.366 33.968 101.792 35.522 101.792 37.466C101.792 39.506 101.384 41.138 100.568 42.362C99.752 43.574 98.57 44.18 97.022 44.18C95.774 44.18 94.79 43.868 94.07 43.244C93.35 42.62 92.99 41.984 92.99 41.336C92.99 41.084 93.068 40.886 93.224 40.742C93.38 40.598 93.578 40.526 93.818 40.526C94.034 40.526 94.22 40.628 94.376 40.832C94.532 41.024 94.67 41.264 94.79 41.552C94.91 41.84 95.048 42.128 95.204 42.416C95.372 42.704 95.618 42.95 95.942 43.154C96.266 43.346 96.662 43.442 97.13 43.442C98.186 43.442 98.96 42.914 99.452 41.858C99.944 40.802 100.19 39.392 100.19 37.628C99.554 38.732 98.432 39.284 96.824 39.284C95.624 39.284 94.64 38.9 93.872 38.132C93.116 37.364 92.738 36.332 92.738 35.036C92.738 33.92 93.14 32.978 93.944 32.21C94.76 31.43 95.798 31.04 97.058 31.04ZM97.292 38.546C98.12 38.546 98.786 38.294 99.29 37.79C99.806 37.274 100.064 36.632 100.064 35.864C99.896 34.64 99.536 33.656 98.984 32.912C98.432 32.156 97.718 31.778 96.842 31.778C96.086 31.778 95.474 32.054 95.006 32.606C94.538 33.146 94.304 33.86 94.304 34.748C94.304 35.78 94.58 36.674 95.132 37.43C95.684 38.174 96.404 38.546 97.292 38.546ZM109.71 44.18C108.174 44.18 106.914 43.58 105.93 42.38C104.946 41.168 104.454 39.554 104.454 37.538C104.454 35.522 104.904 33.938 105.804 32.786C106.716 31.622 107.976 31.04 109.584 31.04C111.072 31.04 112.302 31.652 113.274 32.876C114.246 34.1 114.732 35.684 114.732 37.628C114.732 39.644 114.264 41.24 113.328 42.416C112.392 43.592 111.186 44.18 109.71 44.18ZM109.944 43.46C110.88 43.46 111.642 43.004 112.23 42.092C112.83 41.168 113.13 39.92 113.13 38.348C113.13 36.512 112.764 34.958 112.032 33.686C111.312 32.414 110.4 31.778 109.296 31.778C108.336 31.778 107.556 32.24 106.956 33.164C106.356 34.088 106.056 35.348 106.056 36.944C106.056 38.816 106.416 40.37 107.136 41.606C107.868 42.842 108.804 43.46 109.944 43.46Z" fill="#D8A88B"/>
</svg>
