<svg width="547" height="553" viewBox="0 0 547 553" fill="none" xmlns="http://www.w3.org/2000/svg">
<path opacity="0.4" d="M446.361 245.521C455.253 176.812 365.762 100.914 276.764 94.7023C209.006 89.9731 195.054 165.666 141.039 171.837C87.0241 178.008 84.0287 332.153 122.095 375.375C149.875 406.917 225.321 374.445 241.783 432.039C258.244 489.633 386.221 442.185 426.861 381.505C467.5 320.826 436.471 321.941 446.361 245.521Z" stroke="url(#paint0_linear_2912_117)"/>
<path opacity="0.5" d="M426.232 146.586C395.637 73.1139 262.008 55.023 169.681 100.089C99.3899 134.399 122.528 194.958 86.6027 249.094C51.9854 301.259 121.822 441.402 184.611 462.481C230.432 477.863 279.833 402.112 329.329 449.928C378.826 497.744 457.023 369.097 462.703 285.333C468.383 201.569 460.26 228.303 426.232 146.586Z" stroke="url(#paint1_linear_2912_117)"/>
<path opacity="0.2" d="M393.644 174.725C369.898 117.744 267.011 99.0579 195.55 133.925C141.144 160.47 164.097 225.096 125.155 253.928C86.2121 282.76 152.572 403.039 201.21 419.427C236.704 431.387 280.47 372.709 318.835 409.815C357.199 446.921 434.839 353.279 439.174 288.346C443.509 223.413 420.056 238.101 393.644 174.725Z" stroke="url(#paint2_linear_2912_117)"/>
<defs>
<linearGradient id="paint0_linear_2912_117" x1="272.514" y1="94.4897" x2="272.514" y2="458.069" gradientUnits="userSpaceOnUse">
<stop stop-color="#F0C6AC"/>
<stop offset="1" stop-color="#AB836A"/>
</linearGradient>
<linearGradient id="paint1_linear_2912_117" x1="166.108" y1="96.4436" x2="374.928" y2="458.131" gradientUnits="userSpaceOnUse">
<stop stop-color="#F0C6AC"/>
<stop offset="1" stop-color="#AB836A"/>
</linearGradient>
<linearGradient id="paint2_linear_2912_117" x1="192.175" y1="135.655" x2="354.151" y2="416.206" gradientUnits="userSpaceOnUse">
<stop stop-color="#F0C6AC"/>
<stop offset="1" stop-color="#AB836A"/>
</linearGradient>
</defs>
</svg>
