<svg width="120" height="120" viewBox="0 0 120 120" fill="none" xmlns="http://www.w3.org/2000/svg">
<rect x="4.89795" y="4.89795" width="110.204" height="110.204" rx="10" fill="#D8A88B"/>
<rect x="0.5" y="0.5" width="119" height="119" rx="12.5" stroke="#D8A88B"/>
<path d="M45.1544 18.182C45.9741 18.182 46.6386 18.8465 46.6386 19.6662C46.6386 20.486 45.9741 21.1505 45.1544 21.1505C44.3347 21.1505 43.6702 20.486 43.6702 19.6662C43.6702 18.8465 44.3347 18.182 45.1544 18.182Z" fill="black"/>
<path d="M54.0606 18.182C54.8804 18.182 55.5449 18.8465 55.5449 19.6662C55.5449 20.486 54.8804 21.1505 54.0606 21.1505C53.2409 21.1505 52.5764 20.486 52.5764 19.6662C52.5764 18.8465 53.2409 18.182 54.0606 18.182Z" fill="black"/>
<path d="M57.0311 18.182C57.8509 18.182 58.5153 18.8465 58.5153 19.6662C58.5153 20.486 57.8509 21.1505 57.0311 21.1505C56.2114 21.1505 55.5469 20.486 55.5469 19.6662C55.5469 18.8465 56.2114 18.182 57.0311 18.182Z" fill="black"/>
<path d="M59.9967 18.182C60.8164 18.182 61.4809 18.8465 61.4809 19.6662C61.4809 20.486 60.8164 21.1505 59.9967 21.1505C59.177 21.1505 58.5125 20.486 58.5125 19.6662C58.5125 18.8465 59.177 18.182 59.9967 18.182Z" fill="black"/>
<path d="M65.9374 18.182C66.7571 18.182 67.4216 18.8465 67.4216 19.6662C67.4216 20.486 66.7571 21.1505 65.9374 21.1505C65.1176 21.1505 64.4531 20.486 64.4531 19.6662C64.4531 18.8465 65.1176 18.182 65.9374 18.182Z" fill="black"/>
<path d="M68.9029 18.182C69.7227 18.182 70.3872 18.8465 70.3872 19.6662C70.3872 20.486 69.7227 21.1505 68.9029 21.1505C68.0832 21.1505 67.4187 20.486 67.4187 19.6662C67.4187 18.8465 68.0832 18.182 68.9029 18.182Z" fill="black"/>
<path d="M74.8436 18.182C75.6634 18.182 76.3278 18.8465 76.3278 19.6662C76.3278 20.486 75.6634 21.1505 74.8436 21.1505C74.0239 21.1505 73.3594 20.486 73.3594 19.6662C73.3594 18.8465 74.0239 18.182 74.8436 18.182Z" fill="black"/>
<path d="M77.8092 18.182C78.6289 18.182 79.2934 18.8465 79.2934 19.6662C79.2934 20.486 78.6289 21.1505 77.8092 21.1505C76.9895 21.1505 76.325 20.486 76.325 19.6662C76.325 18.8465 76.9895 18.182 77.8092 18.182Z" fill="black"/>
<path d="M42.1888 21.1499C43.0086 21.1499 43.673 21.8144 43.673 22.6341C43.673 23.4539 43.0086 24.1184 42.1888 24.1184C41.3691 24.1184 40.7046 23.4539 40.7046 22.6341C40.7046 21.8144 41.3691 21.1499 42.1888 21.1499Z" fill="black"/>
<path d="M45.1544 21.1499C45.9741 21.1499 46.6386 21.8144 46.6386 22.6341C46.6386 23.4539 45.9741 24.1184 45.1544 24.1184C44.3347 24.1184 43.6702 23.4539 43.6702 22.6341C43.6702 21.8144 44.3347 21.1499 45.1544 21.1499Z" fill="black"/>
<path d="M48.1249 21.1499C48.9446 21.1499 49.6091 21.8144 49.6091 22.6341C49.6091 23.4539 48.9446 24.1184 48.1249 24.1184C47.3051 24.1184 46.6406 23.4539 46.6406 22.6341C46.6406 21.8144 47.3051 21.1499 48.1249 21.1499Z" fill="black"/>
<path d="M51.0951 21.1499C51.9148 21.1499 52.5793 21.8144 52.5793 22.6341C52.5793 23.4539 51.9148 24.1184 51.0951 24.1184C50.2754 24.1184 49.6108 23.4539 49.6108 22.6341C49.6108 21.8144 50.2754 21.1499 51.0951 21.1499Z" fill="black"/>
<path d="M57.0311 21.1499C57.8509 21.1499 58.5153 21.8144 58.5153 22.6341C58.5153 23.4539 57.8509 24.1184 57.0311 24.1184C56.2114 24.1184 55.5469 23.4539 55.5469 22.6341C55.5469 21.8144 56.2114 21.1499 57.0311 21.1499Z" fill="black"/>
<path d="M65.9374 21.1499C66.7571 21.1499 67.4216 21.8144 67.4216 22.6341C67.4216 23.4539 66.7571 24.1184 65.9374 24.1184C65.1176 24.1184 64.4531 23.4539 64.4531 22.6341C64.4531 21.8144 65.1176 21.1499 65.9374 21.1499Z" fill="black"/>
<path d="M77.8092 21.1499C78.6289 21.1499 79.2934 21.8144 79.2934 22.6341C79.2934 23.4539 78.6289 24.1184 77.8092 24.1184C76.9895 24.1184 76.325 23.4539 76.325 22.6341C76.325 21.8144 76.9895 21.1499 77.8092 21.1499Z" fill="black"/>
<path d="M42.1888 24.1191C43.0086 24.1191 43.673 24.7837 43.673 25.6034C43.673 26.4231 43.0086 27.0876 42.1888 27.0876C41.3691 27.0876 40.7046 26.4231 40.7046 25.6034C40.7046 24.7837 41.3691 24.1191 42.1888 24.1191Z" fill="black"/>
<path d="M45.1544 24.1191C45.9741 24.1191 46.6386 24.7837 46.6386 25.6034C46.6386 26.4231 45.9741 27.0876 45.1544 27.0876C44.3347 27.0876 43.6702 26.4231 43.6702 25.6034C43.6702 24.7837 44.3347 24.1191 45.1544 24.1191Z" fill="black"/>
<path d="M48.1251 24.1189C48.9449 24.1189 49.6093 24.7834 49.6093 25.6031C49.6093 26.4229 48.9449 27.0874 48.1251 27.0874C47.3054 27.0874 46.6409 26.4229 46.6409 25.6031C46.6409 24.7834 47.3054 24.1189 48.1251 24.1189Z" fill="black"/>
<path d="M51.0951 24.1191C51.9148 24.1191 52.5793 24.7837 52.5793 25.6034C52.5793 26.4231 51.9148 27.0876 51.0951 27.0876C50.2754 27.0876 49.6108 26.4231 49.6108 25.6034C49.6108 24.7837 50.2754 24.1191 51.0951 24.1191Z" fill="black"/>
<path d="M54.0606 24.1191C54.8804 24.1191 55.5449 24.7837 55.5449 25.6034C55.5449 26.4231 54.8804 27.0876 54.0606 27.0876C53.2409 27.0876 52.5764 26.4231 52.5764 25.6034C52.5764 24.7837 53.2409 24.1191 54.0606 24.1191Z" fill="black"/>
<path d="M57.0311 24.1191C57.8509 24.1191 58.5153 24.7837 58.5153 25.6034C58.5153 26.4231 57.8509 27.0876 57.0311 27.0876C56.2114 27.0876 55.5469 26.4231 55.5469 25.6034C55.5469 24.7837 56.2114 24.1191 57.0311 24.1191Z" fill="black"/>
<path d="M59.9967 24.1191C60.8164 24.1191 61.4809 24.7837 61.4809 25.6034C61.4809 26.4231 60.8164 27.0876 59.9967 27.0876C59.177 27.0876 58.5125 26.4231 58.5125 25.6034C58.5125 24.7837 59.177 24.1191 59.9967 24.1191Z" fill="black"/>
<path d="M62.9669 24.1191C63.7866 24.1191 64.4511 24.7837 64.4511 25.6034C64.4511 26.4231 63.7866 27.0876 62.9669 27.0876C62.1472 27.0876 61.4827 26.4231 61.4827 25.6034C61.4827 24.7837 62.1472 24.1191 62.9669 24.1191Z" fill="black"/>
<path d="M65.9374 24.1191C66.7571 24.1191 67.4216 24.7837 67.4216 25.6034C67.4216 26.4231 66.7571 27.0876 65.9374 27.0876C65.1176 27.0876 64.4531 26.4231 64.4531 25.6034C64.4531 24.7837 65.1176 24.1191 65.9374 24.1191Z" fill="black"/>
<path d="M68.9029 24.1191C69.7227 24.1191 70.3872 24.7837 70.3872 25.6034C70.3872 26.4231 69.7227 27.0876 68.9029 27.0876C68.0832 27.0876 67.4187 26.4231 67.4187 25.6034C67.4187 24.7837 68.0832 24.1191 68.9029 24.1191Z" fill="black"/>
<path d="M71.8731 24.1191C72.6929 24.1191 73.3574 24.7837 73.3574 25.6034C73.3574 26.4231 72.6929 27.0876 71.8731 27.0876C71.0534 27.0876 70.3889 26.4231 70.3889 25.6034C70.3889 24.7837 71.0534 24.1191 71.8731 24.1191Z" fill="black"/>
<path d="M74.8436 24.1191C75.6634 24.1191 76.3278 24.7837 76.3278 25.6034C76.3278 26.4231 75.6634 27.0876 74.8436 27.0876C74.0239 27.0876 73.3594 26.4231 73.3594 25.6034C73.3594 24.7837 74.0239 24.1191 74.8436 24.1191Z" fill="black"/>
<path d="M77.8092 24.1191C78.6289 24.1191 79.2934 24.7837 79.2934 25.6034C79.2934 26.4231 78.6289 27.0876 77.8092 27.0876C76.9895 27.0876 76.325 26.4231 76.325 25.6034C76.325 24.7837 76.9895 24.1191 77.8092 24.1191Z" fill="black"/>
<path d="M42.1888 27.087C43.0086 27.087 43.673 27.7516 43.673 28.5713C43.673 29.391 43.0086 30.0555 42.1888 30.0555C41.3691 30.0555 40.7046 29.391 40.7046 28.5713C40.7046 27.7516 41.3691 27.087 42.1888 27.087Z" fill="black"/>
<path d="M45.1544 27.087C45.9741 27.087 46.6386 27.7516 46.6386 28.5713C46.6386 29.391 45.9741 30.0555 45.1544 30.0555C44.3347 30.0555 43.6702 29.391 43.6702 28.5713C43.6702 27.7516 44.3347 27.087 45.1544 27.087Z" fill="black"/>
<path d="M48.1249 27.087C48.9446 27.087 49.6091 27.7516 49.6091 28.5713C49.6091 29.391 48.9446 30.0555 48.1249 30.0555C47.3051 30.0555 46.6406 29.391 46.6406 28.5713C46.6406 27.7516 47.3051 27.087 48.1249 27.087Z" fill="black"/>
<path d="M51.0951 27.087C51.9148 27.087 52.5793 27.7516 52.5793 28.5713C52.5793 29.391 51.9148 30.0555 51.0951 30.0555C50.2754 30.0555 49.6108 29.391 49.6108 28.5713C49.6108 27.7516 50.2754 27.087 51.0951 27.087Z" fill="black"/>
<path d="M54.0606 27.087C54.8804 27.087 55.5449 27.7516 55.5449 28.5713C55.5449 29.391 54.8804 30.0555 54.0606 30.0555C53.2409 30.0555 52.5764 29.391 52.5764 28.5713C52.5764 27.7516 53.2409 27.087 54.0606 27.087Z" fill="black"/>
<path d="M62.9669 27.087C63.7866 27.087 64.4511 27.7516 64.4511 28.5713C64.4511 29.391 63.7866 30.0555 62.9669 30.0555C62.1472 30.0555 61.4827 29.391 61.4827 28.5713C61.4827 27.7516 62.1472 27.087 62.9669 27.087Z" fill="black"/>
<path d="M68.9029 27.087C69.7227 27.087 70.3872 27.7516 70.3872 28.5713C70.3872 29.391 69.7227 30.0555 68.9029 30.0555C68.0832 30.0555 67.4187 29.391 67.4187 28.5713C67.4187 27.7516 68.0832 27.087 68.9029 27.087Z" fill="black"/>
<path d="M71.8731 27.087C72.6929 27.087 73.3574 27.7516 73.3574 28.5713C73.3574 29.391 72.6929 30.0555 71.8731 30.0555C71.0534 30.0555 70.3889 29.391 70.3889 28.5713C70.3889 27.7516 71.0534 27.087 71.8731 27.087Z" fill="black"/>
<path d="M77.8092 27.087C78.6289 27.087 79.2934 27.7516 79.2934 28.5713C79.2934 29.391 78.6289 30.0555 77.8092 30.0555C76.9895 30.0555 76.325 29.391 76.325 28.5713C76.325 27.7516 76.9895 27.087 77.8092 27.087Z" fill="black"/>
<path d="M42.1888 30.0562C43.0086 30.0562 43.673 30.7207 43.673 31.5404C43.673 32.3601 43.0086 33.0246 42.1888 33.0246C41.3691 33.0246 40.7046 32.3601 40.7046 31.5404C40.7046 30.7207 41.3691 30.0562 42.1888 30.0562Z" fill="black"/>
<path d="M48.1249 30.0562C48.9446 30.0562 49.6091 30.7207 49.6091 31.5404C49.6091 32.3601 48.9446 33.0246 48.1249 33.0246C47.3051 33.0246 46.6406 32.3601 46.6406 31.5404C46.6406 30.7207 47.3051 30.0562 48.1249 30.0562Z" fill="black"/>
<path d="M54.0606 30.0562C54.8804 30.0562 55.5449 30.7207 55.5449 31.5404C55.5449 32.3601 54.8804 33.0246 54.0606 33.0246C53.2409 33.0246 52.5764 32.3601 52.5764 31.5404C52.5764 30.7207 53.2409 30.0562 54.0606 30.0562Z" fill="black"/>
<path d="M57.0311 30.0562C57.8509 30.0562 58.5153 30.7207 58.5153 31.5404C58.5153 32.3601 57.8509 33.0246 57.0311 33.0246C56.2114 33.0246 55.5469 32.3601 55.5469 31.5404C55.5469 30.7207 56.2114 30.0562 57.0311 30.0562Z" fill="black"/>
<path d="M60.0013 30.0562C60.8211 30.0562 61.4855 30.7207 61.4855 31.5404C61.4855 32.3601 60.8211 33.0246 60.0013 33.0246C59.1816 33.0246 58.5171 32.3601 58.5171 31.5404C58.5171 30.7207 59.1816 30.0562 60.0013 30.0562Z" fill="black"/>
<path d="M62.9669 30.0562C63.7866 30.0562 64.4511 30.7207 64.4511 31.5404C64.4511 32.3601 63.7866 33.0246 62.9669 33.0246C62.1472 33.0246 61.4827 32.3601 61.4827 31.5404C61.4827 30.7207 62.1472 30.0562 62.9669 30.0562Z" fill="black"/>
<path d="M65.9374 30.0562C66.7571 30.0562 67.4216 30.7207 67.4216 31.5404C67.4216 32.3601 66.7571 33.0246 65.9374 33.0246C65.1176 33.0246 64.4531 32.3601 64.4531 31.5404C64.4531 30.7207 65.1176 30.0562 65.9374 30.0562Z" fill="black"/>
<path d="M42.1888 33.0242C43.0086 33.0242 43.673 33.6887 43.673 34.5084C43.673 35.3282 43.0086 35.9926 42.1888 35.9926C41.3691 35.9926 40.7046 35.3282 40.7046 34.5084C40.7046 33.6887 41.3691 33.0242 42.1888 33.0242Z" fill="black"/>
<path d="M48.1251 33.0243C48.9449 33.0243 49.6093 33.6888 49.6093 34.5085C49.6093 35.3283 48.9449 35.9928 48.1251 35.9928C47.3054 35.9928 46.6409 35.3283 46.6409 34.5085C46.6409 33.6888 47.3054 33.0243 48.1251 33.0243Z" fill="black"/>
<path d="M51.0951 33.0242C51.9148 33.0242 52.5793 33.6887 52.5793 34.5084C52.5793 35.3282 51.9148 35.9926 51.0951 35.9926C50.2754 35.9926 49.6108 35.3282 49.6108 34.5084C49.6108 33.6887 50.2754 33.0242 51.0951 33.0242Z" fill="black"/>
<path d="M54.0606 33.0242C54.8804 33.0242 55.5449 33.6887 55.5449 34.5084C55.5449 35.3282 54.8804 35.9926 54.0606 35.9926C53.2409 35.9926 52.5764 35.3282 52.5764 34.5084C52.5764 33.6887 53.2409 33.0242 54.0606 33.0242Z" fill="black"/>
<path d="M65.9374 33.0242C66.7571 33.0242 67.4216 33.6887 67.4216 34.5084C67.4216 35.3282 66.7571 35.9926 65.9374 35.9926C65.1176 35.9926 64.4531 35.3282 64.4531 34.5084C64.4531 33.6887 65.1176 33.0242 65.9374 33.0242Z" fill="black"/>
<path d="M68.9029 33.0242C69.7227 33.0242 70.3872 33.6887 70.3872 34.5084C70.3872 35.3282 69.7227 35.9926 68.9029 35.9926C68.0832 35.9926 67.4187 35.3282 67.4187 34.5084C67.4187 33.6887 68.0832 33.0242 68.9029 33.0242Z" fill="black"/>
<path d="M71.8731 33.0242C72.6929 33.0242 73.3574 33.6887 73.3574 34.5084C73.3574 35.3282 72.6929 35.9926 71.8731 35.9926C71.0534 35.9926 70.3889 35.3282 70.3889 34.5084C70.3889 33.6887 71.0534 33.0242 71.8731 33.0242Z" fill="black"/>
<path d="M77.8092 33.0242C78.6289 33.0242 79.2934 33.6887 79.2934 34.5084C79.2934 35.3282 78.6289 35.9926 77.8092 35.9926C76.9895 35.9926 76.325 35.3282 76.325 34.5084C76.325 33.6887 76.9895 33.0242 77.8092 33.0242Z" fill="black"/>
<path d="M42.1888 35.9933C43.0086 35.9933 43.673 36.6578 43.673 37.4775C43.673 38.2973 43.0086 38.9617 42.1888 38.9617C41.3691 38.9617 40.7046 38.2973 40.7046 37.4775C40.7046 36.6578 41.3691 35.9933 42.1888 35.9933Z" fill="black"/>
<path d="M48.1249 35.9933C48.9446 35.9933 49.6091 36.6578 49.6091 37.4775C49.6091 38.2973 48.9446 38.9617 48.1249 38.9617C47.3051 38.9617 46.6406 38.2973 46.6406 37.4775C46.6406 36.6578 47.3051 35.9933 48.1249 35.9933Z" fill="black"/>
<path d="M54.0606 35.9933C54.8804 35.9933 55.5449 36.6578 55.5449 37.4775C55.5449 38.2973 54.8804 38.9617 54.0606 38.9617C53.2409 38.9617 52.5764 38.2973 52.5764 37.4775C52.5764 36.6578 53.2409 35.9933 54.0606 35.9933Z" fill="black"/>
<path d="M60.0013 35.9933C60.8211 35.9933 61.4855 36.6578 61.4855 37.4775C61.4855 38.2973 60.8211 38.9617 60.0013 38.9617C59.1816 38.9617 58.5171 38.2973 58.5171 37.4775C58.5171 36.6578 59.1816 35.9933 60.0013 35.9933Z" fill="black"/>
<path d="M65.9374 35.9933C66.7571 35.9933 67.4216 36.6578 67.4216 37.4775C67.4216 38.2973 66.7571 38.9617 65.9374 38.9617C65.1176 38.9617 64.4531 38.2973 64.4531 37.4775C64.4531 36.6578 65.1176 35.9933 65.9374 35.9933Z" fill="black"/>
<path d="M71.8731 35.9933C72.6929 35.9933 73.3574 36.6578 73.3574 37.4775C73.3574 38.2973 72.6929 38.9617 71.8731 38.9617C71.0534 38.9617 70.3889 38.2973 70.3889 37.4775C70.3889 36.6578 71.0534 35.9933 71.8731 35.9933Z" fill="black"/>
<path d="M77.8092 35.9933C78.6289 35.9933 79.2934 36.6578 79.2934 37.4775C79.2934 38.2973 78.6289 38.9617 77.8092 38.9617C76.9895 38.9617 76.325 38.2973 76.325 37.4775C76.325 36.6578 76.9895 35.9933 77.8092 35.9933Z" fill="black"/>
<path d="M65.9374 38.9613C66.7571 38.9613 67.4216 39.6258 67.4216 40.4455C67.4216 41.2653 66.7571 41.9298 65.9374 41.9298C65.1176 41.9298 64.4531 41.2653 64.4531 40.4455C64.4531 39.6258 65.1176 38.9613 65.9374 38.9613Z" fill="black"/>
<path d="M68.9029 38.9613C69.7227 38.9613 70.3872 39.6258 70.3872 40.4455C70.3872 41.2653 69.7227 41.9298 68.9029 41.9298C68.0832 41.9298 67.4187 41.2653 67.4187 40.4455C67.4187 39.6258 68.0832 38.9613 68.9029 38.9613Z" fill="black"/>
<path d="M77.8092 38.9613C78.6289 38.9613 79.2934 39.6258 79.2934 40.4455C79.2934 41.2653 78.6289 41.9298 77.8092 41.9298C76.9895 41.9298 76.325 41.2653 76.325 40.4455C76.325 39.6258 76.9895 38.9613 77.8092 38.9613Z" fill="black"/>
<path d="M24.3763 41.9292C25.1961 41.9292 25.8605 42.5937 25.8605 43.4134C25.8605 44.2332 25.1961 44.8977 24.3763 44.8977C23.5566 44.8977 22.8921 44.2332 22.8921 43.4134C22.8921 42.5937 23.5566 41.9292 24.3763 41.9292Z" fill="black"/>
<path d="M33.2826 41.9292C34.1023 41.9292 34.7668 42.5937 34.7668 43.4134C34.7668 44.2332 34.1023 44.8977 33.2826 44.8977C32.4629 44.8977 31.7983 44.2332 31.7983 43.4134C31.7983 42.5937 32.4629 41.9292 33.2826 41.9292Z" fill="black"/>
<path d="M36.253 41.9292C37.0728 41.9292 37.7373 42.5937 37.7373 43.4134C37.7373 44.2332 37.0728 44.8977 36.253 44.8977C35.4333 44.8977 34.7688 44.2332 34.7688 43.4134C34.7688 42.5937 35.4333 41.9292 36.253 41.9292Z" fill="black"/>
<path d="M39.2186 41.9292C40.0384 41.9292 40.7028 42.5937 40.7028 43.4134C40.7028 44.2332 40.0384 44.8977 39.2186 44.8977C38.3989 44.8977 37.7344 44.2332 37.7344 43.4134C37.7344 42.5937 38.3989 41.9292 39.2186 41.9292Z" fill="black"/>
<path d="M42.1888 41.9292C43.0086 41.9292 43.673 42.5937 43.673 43.4134C43.673 44.2332 43.0086 44.8977 42.1888 44.8977C41.3691 44.8977 40.7046 44.2332 40.7046 43.4134C40.7046 42.5937 41.3691 41.9292 42.1888 41.9292Z" fill="black"/>
<path d="M45.1544 41.9292C45.9741 41.9292 46.6386 42.5937 46.6386 43.4134C46.6386 44.2332 45.9741 44.8977 45.1544 44.8977C44.3347 44.8977 43.6702 44.2332 43.6702 43.4134C43.6702 42.5937 44.3347 41.9292 45.1544 41.9292Z" fill="black"/>
<path d="M54.0606 41.9292C54.8804 41.9292 55.5449 42.5937 55.5449 43.4134C55.5449 44.2332 54.8804 44.8977 54.0606 44.8977C53.2409 44.8977 52.5764 44.2332 52.5764 43.4134C52.5764 42.5937 53.2409 41.9292 54.0606 41.9292Z" fill="black"/>
<path d="M60.0013 41.9292C60.8211 41.9292 61.4855 42.5937 61.4855 43.4134C61.4855 44.2332 60.8211 44.8977 60.0013 44.8977C59.1816 44.8977 58.5171 44.2332 58.5171 43.4134C58.5171 42.5937 59.1816 41.9292 60.0013 41.9292Z" fill="black"/>
<path d="M65.9374 41.9292C66.7571 41.9292 67.4216 42.5937 67.4216 43.4134C67.4216 44.2332 66.7571 44.8977 65.9374 44.8977C65.1176 44.8977 64.4531 44.2332 64.4531 43.4134C64.4531 42.5937 65.1176 41.9292 65.9374 41.9292Z" fill="black"/>
<path d="M68.9029 41.9292C69.7227 41.9292 70.3872 42.5937 70.3872 43.4134C70.3872 44.2332 69.7227 44.8977 68.9029 44.8977C68.0832 44.8977 67.4187 44.2332 67.4187 43.4134C67.4187 42.5937 68.0832 41.9292 68.9029 41.9292Z" fill="black"/>
<path d="M77.8092 41.9292C78.6289 41.9292 79.2934 42.5937 79.2934 43.4134C79.2934 44.2332 78.6289 44.8977 77.8092 44.8977C76.9895 44.8977 76.325 44.2332 76.325 43.4134C76.325 42.5937 76.9895 41.9292 77.8092 41.9292Z" fill="black"/>
<path d="M80.7794 41.9292C81.5991 41.9292 82.2636 42.5937 82.2636 43.4134C82.2636 44.2332 81.5991 44.8977 80.7794 44.8977C79.9597 44.8977 79.2952 44.2332 79.2952 43.4134C79.2952 42.5937 79.9597 41.9292 80.7794 41.9292Z" fill="black"/>
<path d="M86.7154 41.9292C87.5352 41.9292 88.1997 42.5937 88.1997 43.4134C88.1997 44.2332 87.5352 44.8977 86.7154 44.8977C85.8957 44.8977 85.2312 44.2332 85.2312 43.4134C85.2312 42.5937 85.8957 41.9292 86.7154 41.9292Z" fill="black"/>
<path d="M89.6856 41.9292C90.5054 41.9292 91.1699 42.5937 91.1699 43.4134C91.1699 44.2332 90.5054 44.8977 89.6856 44.8977C88.8659 44.8977 88.2014 44.2332 88.2014 43.4134C88.2014 42.5937 88.8659 41.9292 89.6856 41.9292Z" fill="black"/>
<path d="M92.6512 41.9292C93.471 41.9292 94.1355 42.5937 94.1355 43.4134C94.1355 44.2332 93.471 44.8977 92.6512 44.8977C91.8315 44.8977 91.167 44.2332 91.167 43.4134C91.167 42.5937 91.8315 41.9292 92.6512 41.9292Z" fill="black"/>
<path d="M95.6217 41.9292C96.4414 41.9292 97.1059 42.5937 97.1059 43.4134C97.1059 44.2332 96.4414 44.8977 95.6217 44.8977C94.802 44.8977 94.1375 44.2332 94.1375 43.4134C94.1375 42.5937 94.802 41.9292 95.6217 41.9292Z" fill="black"/>
<path d="M98.5873 41.9292C99.407 41.9292 100.071 42.5937 100.071 43.4134C100.071 44.2332 99.407 44.8977 98.5873 44.8977C97.7675 44.8977 97.103 44.2332 97.103 43.4134C97.103 42.5937 97.7675 41.9292 98.5873 41.9292Z" fill="black"/>
<path d="M18.4405 44.8982C19.2603 44.8982 19.9248 45.5627 19.9248 46.3824C19.9248 47.2022 19.2603 47.8667 18.4405 47.8667C17.6208 47.8667 16.9563 47.2022 16.9563 46.3824C16.9563 45.5627 17.6208 44.8982 18.4405 44.8982Z" fill="black"/>
<path d="M27.3468 44.8983C28.1665 44.8983 28.831 45.5628 28.831 46.3825C28.831 47.2023 28.1665 47.8668 27.3468 47.8668C26.5271 47.8668 25.8625 47.2023 25.8625 46.3825C25.8625 45.5628 26.5271 44.8983 27.3468 44.8983Z" fill="black"/>
<path d="M30.3172 44.8983C31.137 44.8983 31.8015 45.5628 31.8015 46.3825C31.8015 47.2023 31.137 47.8668 30.3172 47.8668C29.4975 47.8668 28.833 47.2023 28.833 46.3825C28.833 45.5628 29.4975 44.8983 30.3172 44.8983Z" fill="black"/>
<path d="M33.2828 44.8982C34.1026 44.8982 34.767 45.5627 34.767 46.3824C34.767 47.2022 34.1026 47.8667 33.2828 47.8667C32.4631 47.8667 31.7986 47.2022 31.7986 46.3824C31.7986 45.5627 32.4631 44.8982 33.2828 44.8982Z" fill="black"/>
<path d="M39.2186 44.8983C40.0384 44.8983 40.7028 45.5628 40.7028 46.3825C40.7028 47.2023 40.0384 47.8668 39.2186 47.8668C38.3989 47.8668 37.7344 47.2023 37.7344 46.3825C37.7344 45.5628 38.3989 44.8983 39.2186 44.8983Z" fill="black"/>
<path d="M45.1544 44.8983C45.9741 44.8983 46.6386 45.5628 46.6386 46.3825C46.6386 47.2023 45.9741 47.8668 45.1544 47.8668C44.3347 47.8668 43.6702 47.2023 43.6702 46.3825C43.6702 45.5628 44.3347 44.8983 45.1544 44.8983Z" fill="black"/>
<path d="M54.0606 44.8983C54.8804 44.8983 55.5449 45.5628 55.5449 46.3825C55.5449 47.2023 54.8804 47.8668 54.0606 47.8668C53.2409 47.8668 52.5764 47.2023 52.5764 46.3825C52.5764 45.5628 53.2409 44.8983 54.0606 44.8983Z" fill="black"/>
<path d="M57.0311 44.8983C57.8509 44.8983 58.5153 45.5628 58.5153 46.3825C58.5153 47.2023 57.8509 47.8668 57.0311 47.8668C56.2114 47.8668 55.5469 47.2023 55.5469 46.3825C55.5469 45.5628 56.2114 44.8983 57.0311 44.8983Z" fill="black"/>
<path d="M65.9374 44.8983C66.7571 44.8983 67.4216 45.5628 67.4216 46.3825C67.4216 47.2023 66.7571 47.8668 65.9374 47.8668C65.1176 47.8668 64.4531 47.2023 64.4531 46.3825C64.4531 45.5628 65.1176 44.8983 65.9374 44.8983Z" fill="black"/>
<path d="M68.9029 44.8983C69.7227 44.8983 70.3872 45.5628 70.3872 46.3825C70.3872 47.2023 69.7227 47.8668 68.9029 47.8668C68.0832 47.8668 67.4187 47.2023 67.4187 46.3825C67.4187 45.5628 68.0832 44.8983 68.9029 44.8983Z" fill="black"/>
<path d="M77.8092 44.8983C78.6289 44.8983 79.2934 45.5628 79.2934 46.3825C79.2934 47.2023 78.6289 47.8668 77.8092 47.8668C76.9895 47.8668 76.325 47.2023 76.325 46.3825C76.325 45.5628 76.9895 44.8983 77.8092 44.8983Z" fill="black"/>
<path d="M83.745 44.8983C84.5647 44.8983 85.2292 45.5628 85.2292 46.3825C85.2292 47.2023 84.5647 47.8668 83.745 47.8668C82.9253 47.8668 82.2607 47.2023 82.2607 46.3825C82.2607 45.5628 82.9253 44.8983 83.745 44.8983Z" fill="black"/>
<path d="M86.7152 44.8982C87.5349 44.8982 88.1994 45.5627 88.1994 46.3824C88.1994 47.2022 87.5349 47.8667 86.7152 47.8667C85.8955 47.8667 85.231 47.2022 85.231 46.3824C85.231 45.5627 85.8955 44.8982 86.7152 44.8982Z" fill="black"/>
<path d="M92.6512 44.8983C93.471 44.8983 94.1355 45.5628 94.1355 46.3825C94.1355 47.2023 93.471 47.8668 92.6512 47.8668C91.8315 47.8668 91.167 47.2023 91.167 46.3825C91.167 45.5628 91.8315 44.8983 92.6512 44.8983Z" fill="black"/>
<path d="M98.5873 44.8983C99.407 44.8983 100.071 45.5628 100.071 46.3825C100.071 47.2023 99.407 47.8668 98.5873 47.8668C97.7675 47.8668 97.103 47.2023 97.103 46.3825C97.103 45.5628 97.7675 44.8983 98.5873 44.8983Z" fill="black"/>
<path d="M101.557 44.8982C102.377 44.8982 103.042 45.5627 103.042 46.3824C103.042 47.2022 102.377 47.8667 101.557 47.8667C100.738 47.8667 100.073 47.2022 100.073 46.3824C100.073 45.5627 100.738 44.8982 101.557 44.8982Z" fill="black"/>
<path d="M18.4405 47.8666C19.2603 47.8666 19.9248 48.5311 19.9248 49.3508C19.9248 50.1706 19.2603 50.835 18.4405 50.835C17.6208 50.835 16.9563 50.1706 16.9563 49.3508C16.9563 48.5311 17.6208 47.8666 18.4405 47.8666Z" fill="black"/>
<path d="M21.411 47.8663C22.2307 47.8663 22.8952 48.5309 22.8952 49.3506C22.8952 50.1703 22.2307 50.8348 21.411 50.8348C20.5913 50.8348 19.9268 50.1703 19.9268 49.3506C19.9268 48.5309 20.5913 47.8663 21.411 47.8663Z" fill="black"/>
<path d="M36.253 47.8663C37.0728 47.8663 37.7373 48.5309 37.7373 49.3506C37.7373 50.1703 37.0728 50.8348 36.253 50.8348C35.4333 50.8348 34.7688 50.1703 34.7688 49.3506C34.7688 48.5309 35.4333 47.8663 36.253 47.8663Z" fill="black"/>
<path d="M77.8092 47.8663C78.6289 47.8663 79.2934 48.5309 79.2934 49.3506C79.2934 50.1703 78.6289 50.8348 77.8092 50.8348C76.9895 50.8348 76.325 50.1703 76.325 49.3506C76.325 48.5309 76.9895 47.8663 77.8092 47.8663Z" fill="black"/>
<path d="M80.7794 47.8663C81.5991 47.8663 82.2636 48.5309 82.2636 49.3506C82.2636 50.1703 81.5991 50.8348 80.7794 50.8348C79.9597 50.8348 79.2952 50.1703 79.2952 49.3506C79.2952 48.5309 79.9597 47.8663 80.7794 47.8663Z" fill="black"/>
<path d="M89.6856 47.8663C90.5054 47.8663 91.1699 48.5309 91.1699 49.3506C91.1699 50.1703 90.5054 50.8348 89.6856 50.8348C88.8659 50.8348 88.2014 50.1703 88.2014 49.3506C88.2014 48.5309 88.8659 47.8663 89.6856 47.8663Z" fill="black"/>
<path d="M92.6512 47.8663C93.471 47.8663 94.1355 48.5309 94.1355 49.3506C94.1355 50.1703 93.471 50.8348 92.6512 50.8348C91.8315 50.8348 91.167 50.1703 91.167 49.3506C91.167 48.5309 91.8315 47.8663 92.6512 47.8663Z" fill="black"/>
<path d="M101.557 47.8666C102.377 47.8666 103.042 48.5311 103.042 49.3508C103.042 50.1706 102.377 50.835 101.557 50.835C100.738 50.835 100.073 50.1706 100.073 49.3508C100.073 48.5311 100.738 47.8666 101.557 47.8666Z" fill="black"/>
<path d="M21.411 50.8354C22.2307 50.8354 22.8952 51.5 22.8952 52.3197C22.8952 53.1394 22.2307 53.8039 21.411 53.8039C20.5913 53.8039 19.9268 53.1394 19.9268 52.3197C19.9268 51.5 20.5913 50.8354 21.411 50.8354Z" fill="black"/>
<path d="M30.3172 50.8354C31.137 50.8354 31.8015 51.5 31.8015 52.3197C31.8015 53.1394 31.137 53.8039 30.3172 53.8039C29.4975 53.8039 28.833 53.1394 28.833 52.3197C28.833 51.5 29.4975 50.8354 30.3172 50.8354Z" fill="black"/>
<path d="M39.2186 50.8354C40.0384 50.8354 40.7028 51.5 40.7028 52.3197C40.7028 53.1394 40.0384 53.8039 39.2186 53.8039C38.3989 53.8039 37.7344 53.1394 37.7344 52.3197C37.7344 51.5 38.3989 50.8354 39.2186 50.8354Z" fill="black"/>
<path d="M42.1888 50.8354C43.0086 50.8354 43.673 51.5 43.673 52.3197C43.673 53.1394 43.0086 53.8039 42.1888 53.8039C41.3691 53.8039 40.7046 53.1394 40.7046 52.3197C40.7046 51.5 41.3691 50.8354 42.1888 50.8354Z" fill="black"/>
<path d="M45.1544 50.8354C45.9741 50.8354 46.6386 51.5 46.6386 52.3197C46.6386 53.1394 45.9741 53.8039 45.1544 53.8039C44.3347 53.8039 43.6702 53.1394 43.6702 52.3197C43.6702 51.5 44.3347 50.8354 45.1544 50.8354Z" fill="black"/>
<path d="M74.8387 50.8354C75.6585 50.8354 76.323 51.5 76.323 52.3197C76.323 53.1394 75.6585 53.8039 74.8387 53.8039C74.019 53.8039 73.3545 53.1394 73.3545 52.3197C73.3545 51.5 74.019 50.8354 74.8387 50.8354Z" fill="black"/>
<path d="M77.8092 50.8354C78.6289 50.8354 79.2934 51.5 79.2934 52.3197C79.2934 53.1394 78.6289 53.8039 77.8092 53.8039C76.9895 53.8039 76.325 53.1394 76.325 52.3197C76.325 51.5 76.9895 50.8354 77.8092 50.8354Z" fill="black"/>
<path d="M83.745 50.8354C84.5647 50.8354 85.2292 51.5 85.2292 52.3197C85.2292 53.1394 84.5647 53.8039 83.745 53.8039C82.9253 53.8039 82.2607 53.1394 82.2607 52.3197C82.2607 51.5 82.9253 50.8354 83.745 50.8354Z" fill="black"/>
<path d="M86.7154 50.8354C87.5352 50.8354 88.1997 51.5 88.1997 52.3197C88.1997 53.1394 87.5352 53.8039 86.7154 53.8039C85.8957 53.8039 85.2312 53.1394 85.2312 52.3197C85.2312 51.5 85.8957 50.8354 86.7154 50.8354Z" fill="black"/>
<path d="M92.6512 50.8354C93.471 50.8354 94.1355 51.5 94.1355 52.3197C94.1355 53.1394 93.471 53.8039 92.6512 53.8039C91.8315 53.8039 91.167 53.1394 91.167 52.3197C91.167 51.5 91.8315 50.8354 92.6512 50.8354Z" fill="black"/>
<path d="M24.3763 53.8035C25.1961 53.8035 25.8605 54.468 25.8605 55.2877C25.8605 56.1074 25.1961 56.7719 24.3763 56.7719C23.5566 56.7719 22.8921 56.1074 22.8921 55.2877C22.8921 54.468 23.5566 53.8035 24.3763 53.8035Z" fill="black"/>
<path d="M30.3172 53.8035C31.137 53.8035 31.8015 54.468 31.8015 55.2877C31.8015 56.1074 31.137 56.7719 30.3172 56.7719C29.4975 56.7719 28.833 56.1074 28.833 55.2877C28.833 54.468 29.4975 53.8035 30.3172 53.8035Z" fill="black"/>
<path d="M36.253 53.8035C37.0728 53.8035 37.7373 54.468 37.7373 55.2877C37.7373 56.1074 37.0728 56.7719 36.253 56.7719C35.4333 56.7719 34.7688 56.1074 34.7688 55.2877C34.7688 54.468 35.4333 53.8035 36.253 53.8035Z" fill="black"/>
<path d="M77.8092 53.8035C78.6289 53.8035 79.2934 54.468 79.2934 55.2877C79.2934 56.1074 78.6289 56.7719 77.8092 56.7719C76.9895 56.7719 76.325 56.1074 76.325 55.2877C76.325 54.468 76.9895 53.8035 77.8092 53.8035Z" fill="black"/>
<path d="M80.7794 53.8035C81.5991 53.8035 82.2636 54.468 82.2636 55.2877C82.2636 56.1074 81.5991 56.7719 80.7794 56.7719C79.9597 56.7719 79.2952 56.1074 79.2952 55.2877C79.2952 54.468 79.9597 53.8035 80.7794 53.8035Z" fill="black"/>
<path d="M83.745 53.8035C84.5647 53.8035 85.2292 54.468 85.2292 55.2877C85.2292 56.1074 84.5647 56.7719 83.745 56.7719C82.9253 56.7719 82.2607 56.1074 82.2607 55.2877C82.2607 54.468 82.9253 53.8035 83.745 53.8035Z" fill="black"/>
<path d="M98.5873 53.8035C99.407 53.8035 100.071 54.468 100.071 55.2877C100.071 56.1074 99.407 56.7719 98.5873 56.7719C97.7675 56.7719 97.103 56.1074 97.103 55.2877C97.103 54.468 97.7675 53.8035 98.5873 53.8035Z" fill="black"/>
<path d="M18.4405 56.7726C19.2603 56.7726 19.9248 57.4371 19.9248 58.2568C19.9248 59.0766 19.2603 59.741 18.4405 59.741C17.6208 59.741 16.9563 59.0766 16.9563 58.2568C16.9563 57.4371 17.6208 56.7726 18.4405 56.7726Z" fill="black"/>
<path d="M27.3468 56.7726C28.1665 56.7726 28.831 57.4371 28.831 58.2568C28.831 59.0766 28.1665 59.741 27.3468 59.741C26.5271 59.741 25.8625 59.0766 25.8625 58.2568C25.8625 57.4371 26.5271 56.7726 27.3468 56.7726Z" fill="black"/>
<path d="M42.1888 56.7726C43.0086 56.7726 43.673 57.4371 43.673 58.2568C43.673 59.0766 43.0086 59.741 42.1888 59.741C41.3691 59.741 40.7046 59.0766 40.7046 58.2568C40.7046 57.4371 41.3691 56.7726 42.1888 56.7726Z" fill="black"/>
<path d="M74.8387 56.7726C75.6585 56.7726 76.323 57.4371 76.323 58.2568C76.323 59.0766 75.6585 59.741 74.8387 59.741C74.019 59.741 73.3545 59.0766 73.3545 58.2568C73.3545 57.4371 74.019 56.7726 74.8387 56.7726Z" fill="black"/>
<path d="M77.8092 56.7726C78.6289 56.7726 79.2934 57.4371 79.2934 58.2568C79.2934 59.0766 78.6289 59.741 77.8092 59.741C76.9895 59.741 76.325 59.0766 76.325 58.2568C76.325 57.4371 76.9895 56.7726 77.8092 56.7726Z" fill="black"/>
<path d="M83.745 56.7726C84.5647 56.7726 85.2292 57.4371 85.2292 58.2568C85.2292 59.0766 84.5647 59.741 83.745 59.741C82.9253 59.741 82.2607 59.0766 82.2607 58.2568C82.2607 57.4371 82.9253 56.7726 83.745 56.7726Z" fill="black"/>
<path d="M92.6512 56.7726C93.471 56.7726 94.1355 57.4371 94.1355 58.2568C94.1355 59.0766 93.471 59.741 92.6512 59.741C91.8315 59.741 91.167 59.0766 91.167 58.2568C91.167 57.4371 91.8315 56.7726 92.6512 56.7726Z" fill="black"/>
<path d="M98.5873 56.7726C99.407 56.7726 100.071 57.4371 100.071 58.2568C100.071 59.0766 99.407 59.741 98.5873 59.741C97.7675 59.741 97.103 59.0766 97.103 58.2568C97.103 57.4371 97.7675 56.7726 98.5873 56.7726Z" fill="black"/>
<path d="M101.557 56.7726C102.377 56.7726 103.042 57.4371 103.042 58.2568C103.042 59.0766 102.377 59.741 101.557 59.741C100.738 59.741 100.073 59.0766 100.073 58.2568C100.073 57.4371 100.738 56.7726 101.557 56.7726Z" fill="black"/>
<path d="M21.411 59.7405C22.2307 59.7405 22.8952 60.405 22.8952 61.2247C22.8952 62.0445 22.2307 62.7089 21.411 62.7089C20.5913 62.7089 19.9268 62.0445 19.9268 61.2247C19.9268 60.405 20.5913 59.7405 21.411 59.7405Z" fill="black"/>
<path d="M24.3763 59.7405C25.1961 59.7405 25.8605 60.405 25.8605 61.2247C25.8605 62.0445 25.1961 62.7089 24.3763 62.7089C23.5566 62.7089 22.8921 62.0445 22.8921 61.2247C22.8921 60.405 23.5566 59.7405 24.3763 59.7405Z" fill="black"/>
<path d="M27.3468 59.7405C28.1665 59.7405 28.831 60.405 28.831 61.2247C28.831 62.0445 28.1665 62.7089 27.3468 62.7089C26.5271 62.7089 25.8625 62.0445 25.8625 61.2247C25.8625 60.405 26.5271 59.7405 27.3468 59.7405Z" fill="black"/>
<path d="M33.2828 59.7405C34.1026 59.7405 34.767 60.405 34.767 61.2247C34.767 62.0445 34.1026 62.7089 33.2828 62.7089C32.4631 62.7089 31.7986 62.0445 31.7986 61.2247C31.7986 60.405 32.4631 59.7405 33.2828 59.7405Z" fill="black"/>
<path d="M36.253 59.7405C37.0728 59.7405 37.7373 60.405 37.7373 61.2247C37.7373 62.0445 37.0728 62.7089 36.253 62.7089C35.4333 62.7089 34.7688 62.0445 34.7688 61.2247C34.7688 60.405 35.4333 59.7405 36.253 59.7405Z" fill="black"/>
<path d="M42.1888 59.7405C43.0086 59.7405 43.673 60.405 43.673 61.2247C43.673 62.0445 43.0086 62.7089 42.1888 62.7089C41.3691 62.7089 40.7046 62.0445 40.7046 61.2247C40.7046 60.405 41.3691 59.7405 42.1888 59.7405Z" fill="black"/>
<path d="M45.1544 59.7405C45.9741 59.7405 46.6386 60.405 46.6386 61.2247C46.6386 62.0445 45.9741 62.7089 45.1544 62.7089C44.3347 62.7089 43.6702 62.0445 43.6702 61.2247C43.6702 60.405 44.3347 59.7405 45.1544 59.7405Z" fill="black"/>
<path d="M74.8436 59.7405C75.6634 59.7405 76.3278 60.405 76.3278 61.2247C76.3278 62.0445 75.6634 62.7089 74.8436 62.7089C74.0239 62.7089 73.3594 62.0445 73.3594 61.2247C73.3594 60.405 74.0239 59.7405 74.8436 59.7405Z" fill="black"/>
<path d="M80.7794 59.7405C81.5991 59.7405 82.2636 60.405 82.2636 61.2247C82.2636 62.0445 81.5991 62.7089 80.7794 62.7089C79.9597 62.7089 79.2952 62.0445 79.2952 61.2247C79.2952 60.405 79.9597 59.7405 80.7794 59.7405Z" fill="black"/>
<path d="M83.745 59.7405C84.5647 59.7405 85.2292 60.405 85.2292 61.2247C85.2292 62.0445 84.5647 62.7089 83.745 62.7089C82.9253 62.7089 82.2607 62.0445 82.2607 61.2247C82.2607 60.405 82.9253 59.7405 83.745 59.7405Z" fill="black"/>
<path d="M92.6512 59.7405C93.471 59.7405 94.1355 60.405 94.1355 61.2247C94.1355 62.0445 93.471 62.7089 92.6512 62.7089C91.8315 62.7089 91.167 62.0445 91.167 61.2247C91.167 60.405 91.8315 59.7405 92.6512 59.7405Z" fill="black"/>
<path d="M95.6217 59.7405C96.4414 59.7405 97.1059 60.405 97.1059 61.2247C97.1059 62.0445 96.4414 62.7089 95.6217 62.7089C94.802 62.7089 94.1375 62.0445 94.1375 61.2247C94.1375 60.405 94.802 59.7405 95.6217 59.7405Z" fill="black"/>
<path d="M101.557 59.7405C102.377 59.7405 103.042 60.405 103.042 61.2247C103.042 62.0445 102.377 62.7089 101.557 62.7089C100.738 62.7089 100.073 62.0445 100.073 61.2247C100.073 60.405 100.738 59.7405 101.557 59.7405Z" fill="black"/>
<path d="M21.411 62.7085C22.2307 62.7085 22.8952 63.373 22.8952 64.1927C22.8952 65.0125 22.2307 65.677 21.411 65.677C20.5913 65.677 19.9268 65.0125 19.9268 64.1927C19.9268 63.373 20.5913 62.7085 21.411 62.7085Z" fill="black"/>
<path d="M24.3763 62.7085C25.1961 62.7085 25.8605 63.373 25.8605 64.1927C25.8605 65.0125 25.1961 65.677 24.3763 65.677C23.5566 65.677 22.8921 65.0125 22.8921 64.1927C22.8921 63.373 23.5566 62.7085 24.3763 62.7085Z" fill="black"/>
<path d="M80.7794 62.7085C81.5991 62.7085 82.2636 63.373 82.2636 64.1927C82.2636 65.0125 81.5991 65.677 80.7794 65.677C79.9597 65.677 79.2952 65.0125 79.2952 64.1927C79.2952 63.373 79.9597 62.7085 80.7794 62.7085Z" fill="black"/>
<path d="M83.745 62.7085C84.5647 62.7085 85.2292 63.373 85.2292 64.1927C85.2292 65.0125 84.5647 65.677 83.745 65.677C82.9253 65.677 82.2607 65.0125 82.2607 64.1927C82.2607 63.373 82.9253 62.7085 83.745 62.7085Z" fill="black"/>
<path d="M92.6512 62.7085C93.471 62.7085 94.1355 63.373 94.1355 64.1927C94.1355 65.0125 93.471 65.677 92.6512 65.677C91.8315 65.677 91.167 65.0125 91.167 64.1927C91.167 63.373 91.8315 62.7085 92.6512 62.7085Z" fill="black"/>
<path d="M98.5873 62.7085C99.407 62.7085 100.071 63.373 100.071 64.1927C100.071 65.0125 99.407 65.677 98.5873 65.677C97.7675 65.677 97.103 65.0125 97.103 64.1927C97.103 63.373 97.7675 62.7085 98.5873 62.7085Z" fill="black"/>
<path d="M101.557 62.7085C102.377 62.7085 103.042 63.373 103.042 64.1927C103.042 65.0125 102.377 65.677 101.557 65.677C100.738 65.677 100.073 65.0125 100.073 64.1927C100.073 63.373 100.738 62.7085 101.557 62.7085Z" fill="black"/>
<path d="M18.4405 65.6774C19.2603 65.6774 19.9248 66.3419 19.9248 67.1616C19.9248 67.9814 19.2603 68.6458 18.4405 68.6458C17.6208 68.6458 16.9563 67.9814 16.9563 67.1616C16.9563 66.3419 17.6208 65.6774 18.4405 65.6774Z" fill="black"/>
<path d="M21.411 65.6776C22.2307 65.6776 22.8952 66.3421 22.8952 67.1618C22.8952 67.9816 22.2307 68.6461 21.411 68.6461C20.5913 68.6461 19.9268 67.9816 19.9268 67.1618C19.9268 66.3421 20.5913 65.6776 21.411 65.6776Z" fill="black"/>
<path d="M36.253 65.6776C37.0728 65.6776 37.7373 66.3421 37.7373 67.1618C37.7373 67.9816 37.0728 68.6461 36.253 68.6461C35.4333 68.6461 34.7688 67.9816 34.7688 67.1618C34.7688 66.3421 35.4333 65.6776 36.253 65.6776Z" fill="black"/>
<path d="M39.2186 65.6776C40.0384 65.6776 40.7028 66.3421 40.7028 67.1618C40.7028 67.9816 40.0384 68.6461 39.2186 68.6461C38.3989 68.6461 37.7344 67.9816 37.7344 67.1618C37.7344 66.3421 38.3989 65.6776 39.2186 65.6776Z" fill="black"/>
<path d="M42.1888 65.6776C43.0086 65.6776 43.673 66.3421 43.673 67.1618C43.673 67.9816 43.0086 68.6461 42.1888 68.6461C41.3691 68.6461 40.7046 67.9816 40.7046 67.1618C40.7046 66.3421 41.3691 65.6776 42.1888 65.6776Z" fill="black"/>
<path d="M45.1544 65.6776C45.9741 65.6776 46.6386 66.3421 46.6386 67.1618C46.6386 67.9816 45.9741 68.6461 45.1544 68.6461C44.3347 68.6461 43.6702 67.9816 43.6702 67.1618C43.6702 66.3421 44.3347 65.6776 45.1544 65.6776Z" fill="black"/>
<path d="M77.8092 65.6776C78.6289 65.6776 79.2934 66.3421 79.2934 67.1618C79.2934 67.9816 78.6289 68.6461 77.8092 68.6461C76.9895 68.6461 76.325 67.9816 76.325 67.1618C76.325 66.3421 76.9895 65.6776 77.8092 65.6776Z" fill="black"/>
<path d="M83.745 65.6776C84.5647 65.6776 85.2292 66.3421 85.2292 67.1618C85.2292 67.9816 84.5647 68.6461 83.745 68.6461C82.9253 68.6461 82.2607 67.9816 82.2607 67.1618C82.2607 66.3421 82.9253 65.6776 83.745 65.6776Z" fill="black"/>
<path d="M86.7152 65.6774C87.5349 65.6774 88.1994 66.3419 88.1994 67.1616C88.1994 67.9814 87.5349 68.6458 86.7152 68.6458C85.8955 68.6458 85.231 67.9814 85.231 67.1616C85.231 66.3419 85.8955 65.6774 86.7152 65.6774Z" fill="black"/>
<path d="M21.411 68.6456C22.2307 68.6456 22.8952 69.3101 22.8952 70.1299C22.8952 70.9496 22.2307 71.6141 21.411 71.6141C20.5913 71.6141 19.9268 70.9496 19.9268 70.1299C19.9268 69.3101 20.5913 68.6456 21.411 68.6456Z" fill="black"/>
<path d="M83.745 68.6456C84.5647 68.6456 85.2292 69.3101 85.2292 70.1299C85.2292 70.9496 84.5647 71.6141 83.745 71.6141C82.9253 71.6141 82.2607 70.9496 82.2607 70.1299C82.2607 69.3101 82.9253 68.6456 83.745 68.6456Z" fill="black"/>
<path d="M86.7152 68.6459C87.5349 68.6459 88.1994 69.3104 88.1994 70.1301C88.1994 70.9499 87.5349 71.6143 86.7152 71.6143C85.8955 71.6143 85.231 70.9499 85.231 70.1301C85.231 69.3104 85.8955 68.6459 86.7152 68.6459Z" fill="black"/>
<path d="M101.557 68.6459C102.377 68.6459 103.042 69.3104 103.042 70.1301C103.042 70.9499 102.377 71.6143 101.557 71.6143C100.738 71.6143 100.073 70.9499 100.073 70.1301C100.073 69.3104 100.738 68.6459 101.557 68.6459Z" fill="black"/>
<path d="M18.4405 71.6147C19.2603 71.6147 19.9248 72.2793 19.9248 73.099C19.9248 73.9187 19.2603 74.5832 18.4405 74.5832C17.6208 74.5832 16.9563 73.9187 16.9563 73.099C16.9563 72.2793 17.6208 71.6147 18.4405 71.6147Z" fill="black"/>
<path d="M21.411 71.6147C22.2307 71.6147 22.8952 72.2793 22.8952 73.099C22.8952 73.9187 22.2307 74.5832 21.411 74.5832C20.5913 74.5832 19.9268 73.9187 19.9268 73.099C19.9268 72.2793 20.5913 71.6147 21.411 71.6147Z" fill="black"/>
<path d="M24.3763 71.6147C25.1961 71.6147 25.8605 72.2793 25.8605 73.099C25.8605 73.9187 25.1961 74.5832 24.3763 74.5832C23.5566 74.5832 22.8921 73.9187 22.8921 73.099C22.8921 72.2793 23.5566 71.6147 24.3763 71.6147Z" fill="black"/>
<path d="M27.3468 71.6147C28.1665 71.6147 28.831 72.2793 28.831 73.099C28.831 73.9187 28.1665 74.5832 27.3468 74.5832C26.5271 74.5832 25.8625 73.9187 25.8625 73.099C25.8625 72.2793 26.5271 71.6147 27.3468 71.6147Z" fill="black"/>
<path d="M36.253 71.6147C37.0728 71.6147 37.7373 72.2793 37.7373 73.099C37.7373 73.9187 37.0728 74.5832 36.253 74.5832C35.4333 74.5832 34.7688 73.9187 34.7688 73.099C34.7688 72.2793 35.4333 71.6147 36.253 71.6147Z" fill="black"/>
<path d="M42.1888 71.6147C43.0086 71.6147 43.673 72.2793 43.673 73.099C43.673 73.9187 43.0086 74.5832 42.1888 74.5832C41.3691 74.5832 40.7046 73.9187 40.7046 73.099C40.7046 72.2793 41.3691 71.6147 42.1888 71.6147Z" fill="black"/>
<path d="M74.8387 71.6147C75.6585 71.6147 76.323 72.2793 76.323 73.099C76.323 73.9187 75.6585 74.5832 74.8387 74.5832C74.019 74.5832 73.3545 73.9187 73.3545 73.099C73.3545 72.2793 74.019 71.6147 74.8387 71.6147Z" fill="black"/>
<path d="M86.7154 71.6147C87.5352 71.6147 88.1997 72.2793 88.1997 73.099C88.1997 73.9187 87.5352 74.5832 86.7154 74.5832C85.8957 74.5832 85.2312 73.9187 85.2312 73.099C85.2312 72.2793 85.8957 71.6147 86.7154 71.6147Z" fill="black"/>
<path d="M89.6856 71.6147C90.5054 71.6147 91.1699 72.2793 91.1699 73.099C91.1699 73.9187 90.5054 74.5832 89.6856 74.5832C88.8659 74.5832 88.2014 73.9187 88.2014 73.099C88.2014 72.2793 88.8659 71.6147 89.6856 71.6147Z" fill="black"/>
<path d="M101.557 71.6147C102.377 71.6147 103.042 72.2793 103.042 73.099C103.042 73.9187 102.377 74.5832 101.557 74.5832C100.738 74.5832 100.073 73.9187 100.073 73.099C100.073 72.2793 100.738 71.6147 101.557 71.6147Z" fill="black"/>
<path d="M30.3172 74.5826C31.137 74.5826 31.8015 75.2472 31.8015 76.0669C31.8015 76.8866 31.137 77.5511 30.3172 77.5511C29.4975 77.5511 28.833 76.8866 28.833 76.0669C28.833 75.2472 29.4975 74.5826 30.3172 74.5826Z" fill="black"/>
<path d="M33.2828 74.5828C34.1026 74.5828 34.767 75.2473 34.767 76.067C34.767 76.8867 34.1026 77.5512 33.2828 77.5512C32.4631 77.5512 31.7986 76.8867 31.7986 76.067C31.7986 75.2473 32.4631 74.5828 33.2828 74.5828Z" fill="black"/>
<path d="M42.1888 74.5826C43.0086 74.5826 43.673 75.2472 43.673 76.0669C43.673 76.8866 43.0086 77.5511 42.1888 77.5511C41.3691 77.5511 40.7046 76.8866 40.7046 76.0669C40.7046 75.2472 41.3691 74.5826 42.1888 74.5826Z" fill="black"/>
<path d="M45.1544 74.5826C45.9741 74.5826 46.6386 75.2472 46.6386 76.0669C46.6386 76.8866 45.9741 77.5511 45.1544 77.5511C44.3347 77.5511 43.6702 76.8866 43.6702 76.0669C43.6702 75.2472 44.3347 74.5826 45.1544 74.5826Z" fill="black"/>
<path d="M54.0606 74.5826C54.8804 74.5826 55.5449 75.2472 55.5449 76.0669C55.5449 76.8866 54.8804 77.5511 54.0606 77.5511C53.2409 77.5511 52.5764 76.8866 52.5764 76.0669C52.5764 75.2472 53.2409 74.5826 54.0606 74.5826Z" fill="black"/>
<path d="M57.0311 74.5826C57.8509 74.5826 58.5153 75.2472 58.5153 76.0669C58.5153 76.8866 57.8509 77.5511 57.0311 77.5511C56.2114 77.5511 55.5469 76.8866 55.5469 76.0669C55.5469 75.2472 56.2114 74.5826 57.0311 74.5826Z" fill="black"/>
<path d="M62.9669 74.5826C63.7866 74.5826 64.4511 75.2472 64.4511 76.0669C64.4511 76.8866 63.7866 77.5511 62.9669 77.5511C62.1472 77.5511 61.4827 76.8866 61.4827 76.0669C61.4827 75.2472 62.1472 74.5826 62.9669 74.5826Z" fill="black"/>
<path d="M74.8436 74.5826C75.6634 74.5826 76.3278 75.2472 76.3278 76.0669C76.3278 76.8866 75.6634 77.5511 74.8436 77.5511C74.0239 77.5511 73.3594 76.8866 73.3594 76.0669C73.3594 75.2472 74.0239 74.5826 74.8436 74.5826Z" fill="black"/>
<path d="M77.8092 74.5826C78.6289 74.5826 79.2934 75.2472 79.2934 76.0669C79.2934 76.8866 78.6289 77.5511 77.8092 77.5511C76.9895 77.5511 76.325 76.8866 76.325 76.0669C76.325 75.2472 76.9895 74.5826 77.8092 74.5826Z" fill="black"/>
<path d="M80.7794 74.5826C81.5991 74.5826 82.2636 75.2472 82.2636 76.0669C82.2636 76.8866 81.5991 77.5511 80.7794 77.5511C79.9597 77.5511 79.2952 76.8866 79.2952 76.0669C79.2952 75.2472 79.9597 74.5826 80.7794 74.5826Z" fill="black"/>
<path d="M83.745 74.5826C84.5647 74.5826 85.2292 75.2472 85.2292 76.0669C85.2292 76.8866 84.5647 77.5511 83.745 77.5511C82.9253 77.5511 82.2607 76.8866 82.2607 76.0669C82.2607 75.2472 82.9253 74.5826 83.745 74.5826Z" fill="black"/>
<path d="M86.7152 74.5828C87.5349 74.5828 88.1994 75.2473 88.1994 76.067C88.1994 76.8867 87.5349 77.5512 86.7152 77.5512C85.8955 77.5512 85.231 76.8867 85.231 76.067C85.231 75.2473 85.8955 74.5828 86.7152 74.5828Z" fill="black"/>
<path d="M98.5873 74.5826C99.407 74.5826 100.071 75.2472 100.071 76.0669C100.071 76.8866 99.407 77.5511 98.5873 77.5511C97.7675 77.5511 97.103 76.8866 97.103 76.0669C97.103 75.2472 97.7675 74.5826 98.5873 74.5826Z" fill="black"/>
<path d="M18.4405 77.5507C19.2603 77.5507 19.9248 78.2152 19.9248 79.0349C19.9248 79.8546 19.2603 80.5191 18.4405 80.5191C17.6208 80.5191 16.9563 79.8546 16.9563 79.0349C16.9563 78.2152 17.6208 77.5507 18.4405 77.5507Z" fill="black"/>
<path d="M21.411 77.5507C22.2307 77.5507 22.8952 78.2152 22.8952 79.0349C22.8952 79.8546 22.2307 80.5191 21.411 80.5191C20.5913 80.5191 19.9268 79.8546 19.9268 79.0349C19.9268 78.2152 20.5913 77.5507 21.411 77.5507Z" fill="black"/>
<path d="M24.3763 77.5507C25.1961 77.5507 25.8605 78.2152 25.8605 79.0349C25.8605 79.8546 25.1961 80.5191 24.3763 80.5191C23.5566 80.5191 22.8921 79.8546 22.8921 79.0349C22.8921 78.2152 23.5566 77.5507 24.3763 77.5507Z" fill="black"/>
<path d="M30.3172 77.5507C31.137 77.5507 31.8015 78.2152 31.8015 79.0349C31.8015 79.8546 31.137 80.5191 30.3172 80.5191C29.4975 80.5191 28.833 79.8546 28.833 79.0349C28.833 78.2152 29.4975 77.5507 30.3172 77.5507Z" fill="black"/>
<path d="M36.253 77.5507C37.0728 77.5507 37.7373 78.2152 37.7373 79.0349C37.7373 79.8546 37.0728 80.5191 36.253 80.5191C35.4333 80.5191 34.7688 79.8546 34.7688 79.0349C34.7688 78.2152 35.4333 77.5507 36.253 77.5507Z" fill="black"/>
<path d="M39.2186 77.5507C40.0384 77.5507 40.7028 78.2152 40.7028 79.0349C40.7028 79.8546 40.0384 80.5191 39.2186 80.5191C38.3989 80.5191 37.7344 79.8546 37.7344 79.0349C37.7344 78.2152 38.3989 77.5507 39.2186 77.5507Z" fill="black"/>
<path d="M42.1888 77.5507C43.0086 77.5507 43.673 78.2152 43.673 79.0349C43.673 79.8546 43.0086 80.5191 42.1888 80.5191C41.3691 80.5191 40.7046 79.8546 40.7046 79.0349C40.7046 78.2152 41.3691 77.5507 42.1888 77.5507Z" fill="black"/>
<path d="M62.9669 77.5507C63.7866 77.5507 64.4511 78.2152 64.4511 79.0349C64.4511 79.8546 63.7866 80.5191 62.9669 80.5191C62.1472 80.5191 61.4827 79.8546 61.4827 79.0349C61.4827 78.2152 62.1472 77.5507 62.9669 77.5507Z" fill="black"/>
<path d="M65.9374 77.5507C66.7571 77.5507 67.4216 78.2152 67.4216 79.0349C67.4216 79.8546 66.7571 80.5191 65.9374 80.5191C65.1176 80.5191 64.4531 79.8546 64.4531 79.0349C64.4531 78.2152 65.1176 77.5507 65.9374 77.5507Z" fill="black"/>
<path d="M71.8731 77.5507C72.6929 77.5507 73.3574 78.2152 73.3574 79.0349C73.3574 79.8546 72.6929 80.5191 71.8731 80.5191C71.0534 80.5191 70.3889 79.8546 70.3889 79.0349C70.3889 78.2152 71.0534 77.5507 71.8731 77.5507Z" fill="black"/>
<path d="M77.8092 77.5507C78.6289 77.5507 79.2934 78.2152 79.2934 79.0349C79.2934 79.8546 78.6289 80.5191 77.8092 80.5191C76.9895 80.5191 76.325 79.8546 76.325 79.0349C76.325 78.2152 76.9895 77.5507 77.8092 77.5507Z" fill="black"/>
<path d="M80.7794 77.5507C81.5991 77.5507 82.2636 78.2152 82.2636 79.0349C82.2636 79.8546 81.5991 80.5191 80.7794 80.5191C79.9597 80.5191 79.2952 79.8546 79.2952 79.0349C79.2952 78.2152 79.9597 77.5507 80.7794 77.5507Z" fill="black"/>
<path d="M83.745 77.5507C84.5647 77.5507 85.2292 78.2152 85.2292 79.0349C85.2292 79.8546 84.5647 80.5191 83.745 80.5191C82.9253 80.5191 82.2607 79.8546 82.2607 79.0349C82.2607 78.2152 82.9253 77.5507 83.745 77.5507Z" fill="black"/>
<path d="M86.7154 77.5507C87.5352 77.5507 88.1997 78.2152 88.1997 79.0349C88.1997 79.8546 87.5352 80.5191 86.7154 80.5191C85.8957 80.5191 85.2312 79.8546 85.2312 79.0349C85.2312 78.2152 85.8957 77.5507 86.7154 77.5507Z" fill="black"/>
<path d="M89.6856 77.5507C90.5054 77.5507 91.1699 78.2152 91.1699 79.0349C91.1699 79.8546 90.5054 80.5191 89.6856 80.5191C88.8659 80.5191 88.2014 79.8546 88.2014 79.0349C88.2014 78.2152 88.8659 77.5507 89.6856 77.5507Z" fill="black"/>
<path d="M92.6512 77.5507C93.471 77.5507 94.1355 78.2152 94.1355 79.0349C94.1355 79.8546 93.471 80.5191 92.6512 80.5191C91.8315 80.5191 91.167 79.8546 91.167 79.0349C91.167 78.2152 91.8315 77.5507 92.6512 77.5507Z" fill="black"/>
<path d="M101.557 77.5507C102.377 77.5507 103.042 78.2152 103.042 79.0349C103.042 79.8546 102.377 80.5191 101.557 80.5191C100.738 80.5191 100.073 79.8546 100.073 79.0349C100.073 78.2152 100.738 77.5507 101.557 77.5507Z" fill="black"/>
<path d="M42.1888 80.5198C43.0086 80.5198 43.673 81.1843 43.673 82.004C43.673 82.8238 43.0086 83.4882 42.1888 83.4882C41.3691 83.4882 40.7046 82.8238 40.7046 82.004C40.7046 81.1843 41.3691 80.5198 42.1888 80.5198Z" fill="black"/>
<path d="M45.1544 80.5198C45.9741 80.5198 46.6386 81.1843 46.6386 82.004C46.6386 82.8238 45.9741 83.4882 45.1544 83.4882C44.3347 83.4882 43.6702 82.8238 43.6702 82.004C43.6702 81.1843 44.3347 80.5198 45.1544 80.5198Z" fill="black"/>
<path d="M51.0951 80.5198C51.9148 80.5198 52.5793 81.1843 52.5793 82.004C52.5793 82.8238 51.9148 83.4882 51.0951 83.4882C50.2754 83.4882 49.6108 82.8238 49.6108 82.004C49.6108 81.1843 50.2754 80.5198 51.0951 80.5198Z" fill="black"/>
<path d="M57.0311 80.5198C57.8509 80.5198 58.5153 81.1843 58.5153 82.004C58.5153 82.8238 57.8509 83.4882 57.0311 83.4882C56.2114 83.4882 55.5469 82.8238 55.5469 82.004C55.5469 81.1843 56.2114 80.5198 57.0311 80.5198Z" fill="black"/>
<path d="M62.9669 80.5198C63.7866 80.5198 64.4511 81.1843 64.4511 82.004C64.4511 82.8238 63.7866 83.4882 62.9669 83.4882C62.1472 83.4882 61.4827 82.8238 61.4827 82.004C61.4827 81.1843 62.1472 80.5198 62.9669 80.5198Z" fill="black"/>
<path d="M65.9374 80.5198C66.7571 80.5198 67.4216 81.1843 67.4216 82.004C67.4216 82.8238 66.7571 83.4882 65.9374 83.4882C65.1176 83.4882 64.4531 82.8238 64.4531 82.004C64.4531 81.1843 65.1176 80.5198 65.9374 80.5198Z" fill="black"/>
<path d="M77.8092 80.5198C78.6289 80.5198 79.2934 81.1843 79.2934 82.004C79.2934 82.8238 78.6289 83.4882 77.8092 83.4882C76.9895 83.4882 76.325 82.8238 76.325 82.004C76.325 81.1843 76.9895 80.5198 77.8092 80.5198Z" fill="black"/>
<path d="M89.6856 80.5198C90.5054 80.5198 91.1699 81.1843 91.1699 82.004C91.1699 82.8238 90.5054 83.4882 89.6856 83.4882C88.8659 83.4882 88.2014 82.8238 88.2014 82.004C88.2014 81.1843 88.8659 80.5198 89.6856 80.5198Z" fill="black"/>
<path d="M92.6512 80.5198C93.471 80.5198 94.1355 81.1843 94.1355 82.004C94.1355 82.8238 93.471 83.4882 92.6512 83.4882C91.8315 83.4882 91.167 82.8238 91.167 82.004C91.167 81.1843 91.8315 80.5198 92.6512 80.5198Z" fill="black"/>
<path d="M101.557 80.5197C102.377 80.5197 103.042 81.1842 103.042 82.0039C103.042 82.8236 102.377 83.4881 101.557 83.4881C100.738 83.4881 100.073 82.8236 100.073 82.0039C100.073 81.1842 100.738 80.5197 101.557 80.5197Z" fill="black"/>
<path d="M42.1888 83.4877C43.0086 83.4877 43.673 84.1522 43.673 84.9719C43.673 85.7917 43.0086 86.4561 42.1888 86.4561C41.3691 86.4561 40.7046 85.7917 40.7046 84.9719C40.7046 84.1522 41.3691 83.4877 42.1888 83.4877Z" fill="black"/>
<path d="M45.1544 83.4877C45.9741 83.4877 46.6386 84.1522 46.6386 84.9719C46.6386 85.7917 45.9741 86.4561 45.1544 86.4561C44.3347 86.4561 43.6702 85.7917 43.6702 84.9719C43.6702 84.1522 44.3347 83.4877 45.1544 83.4877Z" fill="black"/>
<path d="M48.1249 83.4877C48.9446 83.4877 49.6091 84.1522 49.6091 84.9719C49.6091 85.7917 48.9446 86.4561 48.1249 86.4561C47.3051 86.4561 46.6406 85.7917 46.6406 84.9719C46.6406 84.1522 47.3051 83.4877 48.1249 83.4877Z" fill="black"/>
<path d="M51.0951 83.4877C51.9148 83.4877 52.5793 84.1522 52.5793 84.9719C52.5793 85.7917 51.9148 86.4561 51.0951 86.4561C50.2754 86.4561 49.6108 85.7917 49.6108 84.9719C49.6108 84.1522 50.2754 83.4877 51.0951 83.4877Z" fill="black"/>
<path d="M54.0606 83.4877C54.8804 83.4877 55.5449 84.1522 55.5449 84.9719C55.5449 85.7917 54.8804 86.4561 54.0606 86.4561C53.2409 86.4561 52.5764 85.7917 52.5764 84.9719C52.5764 84.1522 53.2409 83.4877 54.0606 83.4877Z" fill="black"/>
<path d="M57.0311 83.4877C57.8509 83.4877 58.5153 84.1522 58.5153 84.9719C58.5153 85.7917 57.8509 86.4561 57.0311 86.4561C56.2114 86.4561 55.5469 85.7917 55.5469 84.9719C55.5469 84.1522 56.2114 83.4877 57.0311 83.4877Z" fill="black"/>
<path d="M68.9029 83.4877C69.7227 83.4877 70.3872 84.1522 70.3872 84.9719C70.3872 85.7917 69.7227 86.4561 68.9029 86.4561C68.0832 86.4561 67.4187 85.7917 67.4187 84.9719C67.4187 84.1522 68.0832 83.4877 68.9029 83.4877Z" fill="black"/>
<path d="M71.8731 83.4877C72.6929 83.4877 73.3574 84.1522 73.3574 84.9719C73.3574 85.7917 72.6929 86.4561 71.8731 86.4561C71.0534 86.4561 70.3889 85.7917 70.3889 84.9719C70.3889 84.1522 71.0534 83.4877 71.8731 83.4877Z" fill="black"/>
<path d="M77.8092 83.4877C78.6289 83.4877 79.2934 84.1522 79.2934 84.9719C79.2934 85.7917 78.6289 86.4561 77.8092 86.4561C76.9895 86.4561 76.325 85.7917 76.325 84.9719C76.325 84.1522 76.9895 83.4877 77.8092 83.4877Z" fill="black"/>
<path d="M83.745 83.4877C84.5647 83.4877 85.2292 84.1522 85.2292 84.9719C85.2292 85.7917 84.5647 86.4561 83.745 86.4561C82.9253 86.4561 82.2607 85.7917 82.2607 84.9719C82.2607 84.1522 82.9253 83.4877 83.745 83.4877Z" fill="black"/>
<path d="M89.6856 83.4877C90.5054 83.4877 91.1699 84.1522 91.1699 84.9719C91.1699 85.7917 90.5054 86.4561 89.6856 86.4561C88.8659 86.4561 88.2014 85.7917 88.2014 84.9719C88.2014 84.1522 88.8659 83.4877 89.6856 83.4877Z" fill="black"/>
<path d="M92.6512 83.4877C93.471 83.4877 94.1355 84.1522 94.1355 84.9719C94.1355 85.7917 93.471 86.4561 92.6512 86.4561C91.8315 86.4561 91.167 85.7917 91.167 84.9719C91.167 84.1522 91.8315 83.4877 92.6512 83.4877Z" fill="black"/>
<path d="M95.6217 83.4877C96.4414 83.4877 97.1059 84.1522 97.1059 84.9719C97.1059 85.7917 96.4414 86.4561 95.6217 86.4561C94.802 86.4561 94.1375 85.7917 94.1375 84.9719C94.1375 84.1522 94.802 83.4877 95.6217 83.4877Z" fill="black"/>
<path d="M101.557 83.4877C102.377 83.4877 103.042 84.1522 103.042 84.9719C103.042 85.7917 102.377 86.4561 101.557 86.4561C100.738 86.4561 100.073 85.7917 100.073 84.9719C100.073 84.1522 100.738 83.4877 101.557 83.4877Z" fill="black"/>
<path d="M42.1888 86.4569C43.0086 86.4569 43.673 87.1214 43.673 87.9411C43.673 88.7609 43.0086 89.4254 42.1888 89.4254C41.3691 89.4254 40.7046 88.7609 40.7046 87.9411C40.7046 87.1214 41.3691 86.4569 42.1888 86.4569Z" fill="black"/>
<path d="M45.1544 86.4569C45.9741 86.4569 46.6386 87.1214 46.6386 87.9411C46.6386 88.7609 45.9741 89.4254 45.1544 89.4254C44.3347 89.4254 43.6702 88.7609 43.6702 87.9411C43.6702 87.1214 44.3347 86.4569 45.1544 86.4569Z" fill="black"/>
<path d="M62.9669 86.4569C63.7866 86.4569 64.4511 87.1214 64.4511 87.9411C64.4511 88.7609 63.7866 89.4254 62.9669 89.4254C62.1472 89.4254 61.4827 88.7609 61.4827 87.9411C61.4827 87.1214 62.1472 86.4569 62.9669 86.4569Z" fill="black"/>
<path d="M65.9374 86.4569C66.7571 86.4569 67.4216 87.1214 67.4216 87.9411C67.4216 88.7609 66.7571 89.4254 65.9374 89.4254C65.1176 89.4254 64.4531 88.7609 64.4531 87.9411C64.4531 87.1214 65.1176 86.4569 65.9374 86.4569Z" fill="black"/>
<path d="M68.9029 86.4569C69.7227 86.4569 70.3872 87.1214 70.3872 87.9411C70.3872 88.7609 69.7227 89.4254 68.9029 89.4254C68.0832 89.4254 67.4187 88.7609 67.4187 87.9411C67.4187 87.1214 68.0832 86.4569 68.9029 86.4569Z" fill="black"/>
<path d="M74.8436 86.4569C75.6634 86.4569 76.3278 87.1214 76.3278 87.9411C76.3278 88.7609 75.6634 89.4254 74.8436 89.4254C74.0239 89.4254 73.3594 88.7609 73.3594 87.9411C73.3594 87.1214 74.0239 86.4569 74.8436 86.4569Z" fill="black"/>
<path d="M77.8092 86.4569C78.6289 86.4569 79.2934 87.1214 79.2934 87.9411C79.2934 88.7609 78.6289 89.4254 77.8092 89.4254C76.9895 89.4254 76.325 88.7609 76.325 87.9411C76.325 87.1214 76.9895 86.4569 77.8092 86.4569Z" fill="black"/>
<path d="M89.6856 86.4569C90.5054 86.4569 91.1699 87.1214 91.1699 87.9411C91.1699 88.7609 90.5054 89.4254 89.6856 89.4254C88.8659 89.4254 88.2014 88.7609 88.2014 87.9411C88.2014 87.1214 88.8659 86.4569 89.6856 86.4569Z" fill="black"/>
<path d="M92.6512 86.4569C93.471 86.4569 94.1355 87.1214 94.1355 87.9411C94.1355 88.7609 93.471 89.4254 92.6512 89.4254C91.8315 89.4254 91.167 88.7609 91.167 87.9411C91.167 87.1214 91.8315 86.4569 92.6512 86.4569Z" fill="black"/>
<path d="M101.557 86.4565C102.377 86.4565 103.042 87.1211 103.042 87.9408C103.042 88.7605 102.377 89.425 101.557 89.425C100.738 89.425 100.073 88.7605 100.073 87.9408C100.073 87.1211 100.738 86.4565 101.557 86.4565Z" fill="black"/>
<path d="M51.0951 89.4248C51.9148 89.4248 52.5793 90.0893 52.5793 90.909C52.5793 91.7288 51.9148 92.3933 51.0951 92.3933C50.2754 92.3933 49.6108 91.7288 49.6108 90.909C49.6108 90.0893 50.2754 89.4248 51.0951 89.4248Z" fill="black"/>
<path d="M68.9029 89.4248C69.7227 89.4248 70.3872 90.0893 70.3872 90.909C70.3872 91.7288 69.7227 92.3933 68.9029 92.3933C68.0832 92.3933 67.4187 91.7288 67.4187 90.909C67.4187 90.0893 68.0832 89.4248 68.9029 89.4248Z" fill="black"/>
<path d="M71.8731 89.4248C72.6929 89.4248 73.3574 90.0893 73.3574 90.909C73.3574 91.7288 72.6929 92.3933 71.8731 92.3933C71.0534 92.3933 70.3889 91.7288 70.3889 90.909C70.3889 90.0893 71.0534 89.4248 71.8731 89.4248Z" fill="black"/>
<path d="M74.8436 89.4248C75.6634 89.4248 76.3278 90.0893 76.3278 90.909C76.3278 91.7288 75.6634 92.3933 74.8436 92.3933C74.0239 92.3933 73.3594 91.7288 73.3594 90.909C73.3594 90.0893 74.0239 89.4248 74.8436 89.4248Z" fill="black"/>
<path d="M77.8092 89.4248C78.6289 89.4248 79.2934 90.0893 79.2934 90.909C79.2934 91.7288 78.6289 92.3933 77.8092 92.3933C76.9895 92.3933 76.325 91.7288 76.325 90.909C76.325 90.0893 76.9895 89.4248 77.8092 89.4248Z" fill="black"/>
<path d="M80.7794 89.4248C81.5991 89.4248 82.2636 90.0893 82.2636 90.909C82.2636 91.7288 81.5991 92.3933 80.7794 92.3933C79.9597 92.3933 79.2952 91.7288 79.2952 90.909C79.2952 90.0893 79.9597 89.4248 80.7794 89.4248Z" fill="black"/>
<path d="M83.745 89.4248C84.5647 89.4248 85.2292 90.0893 85.2292 90.909C85.2292 91.7288 84.5647 92.3933 83.745 92.3933C82.9253 92.3933 82.2607 91.7288 82.2607 90.909C82.2607 90.0893 82.9253 89.4248 83.745 89.4248Z" fill="black"/>
<path d="M86.7152 89.425C87.5349 89.425 88.1994 90.0896 88.1994 90.9093C88.1994 91.729 87.5349 92.3935 86.7152 92.3935C85.8955 92.3935 85.231 91.729 85.231 90.9093C85.231 90.0896 85.8955 89.425 86.7152 89.425Z" fill="black"/>
<path d="M89.6856 89.4248C90.5054 89.4248 91.1699 90.0893 91.1699 90.909C91.1699 91.7288 90.5054 92.3933 89.6856 92.3933C88.8659 92.3933 88.2014 91.7288 88.2014 90.909C88.2014 90.0893 88.8659 89.4248 89.6856 89.4248Z" fill="black"/>
<path d="M98.5873 89.4248C99.407 89.4248 100.071 90.0893 100.071 90.909C100.071 91.7288 99.407 92.3933 98.5873 92.3933C97.7675 92.3933 97.103 91.7288 97.103 90.909C97.103 90.0893 97.7675 89.4248 98.5873 89.4248Z" fill="black"/>
<path d="M101.557 89.425C102.377 89.425 103.042 90.0896 103.042 90.9093C103.042 91.729 102.377 92.3935 101.557 92.3935C100.738 92.3935 100.073 91.729 100.073 90.9093C100.073 90.0896 100.738 89.425 101.557 89.425Z" fill="black"/>
<path d="M54.0606 92.3939C54.8804 92.3939 55.5449 93.0584 55.5449 93.8782C55.5449 94.6979 54.8804 95.3624 54.0606 95.3624C53.2409 95.3624 52.5764 94.6979 52.5764 93.8782C52.5764 93.0584 53.2409 92.3939 54.0606 92.3939Z" fill="black"/>
<path d="M57.0311 92.3939C57.8509 92.3939 58.5153 93.0584 58.5153 93.8782C58.5153 94.6979 57.8509 95.3624 57.0311 95.3624C56.2114 95.3624 55.5469 94.6979 55.5469 93.8782C55.5469 93.0584 56.2114 92.3939 57.0311 92.3939Z" fill="black"/>
<path d="M60.0013 92.3939C60.8211 92.3939 61.4855 93.0584 61.4855 93.8782C61.4855 94.6979 60.8211 95.3624 60.0013 95.3624C59.1816 95.3624 58.5171 94.6979 58.5171 93.8782C58.5171 93.0584 59.1816 92.3939 60.0013 92.3939Z" fill="black"/>
<path d="M65.9374 92.3939C66.7571 92.3939 67.4216 93.0584 67.4216 93.8782C67.4216 94.6979 66.7571 95.3624 65.9374 95.3624C65.1176 95.3624 64.4531 94.6979 64.4531 93.8782C64.4531 93.0584 65.1176 92.3939 65.9374 92.3939Z" fill="black"/>
<path d="M68.9029 92.3939C69.7227 92.3939 70.3872 93.0584 70.3872 93.8782C70.3872 94.6979 69.7227 95.3624 68.9029 95.3624C68.0832 95.3624 67.4187 94.6979 67.4187 93.8782C67.4187 93.0584 68.0832 92.3939 68.9029 92.3939Z" fill="black"/>
<path d="M74.8387 92.3939C75.6585 92.3939 76.323 93.0584 76.323 93.8782C76.323 94.6979 75.6585 95.3624 74.8387 95.3624C74.019 95.3624 73.3545 94.6979 73.3545 93.8782C73.3545 93.0584 74.019 92.3939 74.8387 92.3939Z" fill="black"/>
<path d="M77.8092 92.3939C78.6289 92.3939 79.2934 93.0584 79.2934 93.8782C79.2934 94.6979 78.6289 95.3624 77.8092 95.3624C76.9895 95.3624 76.325 94.6979 76.325 93.8782C76.325 93.0584 76.9895 92.3939 77.8092 92.3939Z" fill="black"/>
<path d="M86.7154 92.3939C87.5352 92.3939 88.1997 93.0584 88.1997 93.8782C88.1997 94.6979 87.5352 95.3624 86.7154 95.3624C85.8957 95.3624 85.2312 94.6979 85.2312 93.8782C85.2312 93.0584 85.8957 92.3939 86.7154 92.3939Z" fill="black"/>
<path d="M89.6856 92.3939C90.5054 92.3939 91.1699 93.0584 91.1699 93.8782C91.1699 94.6979 90.5054 95.3624 89.6856 95.3624C88.8659 95.3624 88.2014 94.6979 88.2014 93.8782C88.2014 93.0584 88.8659 92.3939 89.6856 92.3939Z" fill="black"/>
<path d="M92.6512 92.3939C93.471 92.3939 94.1355 93.0584 94.1355 93.8782C94.1355 94.6979 93.471 95.3624 92.6512 95.3624C91.8315 95.3624 91.167 94.6979 91.167 93.8782C91.167 93.0584 91.8315 92.3939 92.6512 92.3939Z" fill="black"/>
<path d="M95.6217 92.3939C96.4414 92.3939 97.1059 93.0584 97.1059 93.8782C97.1059 94.6979 96.4414 95.3624 95.6217 95.3624C94.802 95.3624 94.1375 94.6979 94.1375 93.8782C94.1375 93.0584 94.802 92.3939 95.6217 92.3939Z" fill="black"/>
<path d="M98.5873 92.3939C99.407 92.3939 100.071 93.0584 100.071 93.8782C100.071 94.6979 99.407 95.3624 98.5873 95.3624C97.7675 95.3624 97.103 94.6979 97.103 93.8782C97.103 93.0584 97.7675 92.3939 98.5873 92.3939Z" fill="black"/>
<path d="M42.1888 95.3619C43.0086 95.3619 43.673 96.0265 43.673 96.8462C43.673 97.6659 43.0086 98.3304 42.1888 98.3304C41.3691 98.3304 40.7046 97.6659 40.7046 96.8462C40.7046 96.0265 41.3691 95.3619 42.1888 95.3619Z" fill="black"/>
<path d="M51.0951 95.3619C51.9148 95.3619 52.5793 96.0265 52.5793 96.8462C52.5793 97.6659 51.9148 98.3304 51.0951 98.3304C50.2754 98.3304 49.6108 97.6659 49.6108 96.8462C49.6108 96.0265 50.2754 95.3619 51.0951 95.3619Z" fill="black"/>
<path d="M54.0606 95.3619C54.8804 95.3619 55.5449 96.0265 55.5449 96.8462C55.5449 97.6659 54.8804 98.3304 54.0606 98.3304C53.2409 98.3304 52.5764 97.6659 52.5764 96.8462C52.5764 96.0265 53.2409 95.3619 54.0606 95.3619Z" fill="black"/>
<path d="M68.9029 95.3619C69.7227 95.3619 70.3872 96.0265 70.3872 96.8462C70.3872 97.6659 69.7227 98.3304 68.9029 98.3304C68.0832 98.3304 67.4187 97.6659 67.4187 96.8462C67.4187 96.0265 68.0832 95.3619 68.9029 95.3619Z" fill="black"/>
<path d="M80.7794 95.3619C81.5991 95.3619 82.2636 96.0265 82.2636 96.8462C82.2636 97.6659 81.5991 98.3304 80.7794 98.3304C79.9597 98.3304 79.2952 97.6659 79.2952 96.8462C79.2952 96.0265 79.9597 95.3619 80.7794 95.3619Z" fill="black"/>
<path d="M89.6856 95.3619C90.5054 95.3619 91.1699 96.0265 91.1699 96.8462C91.1699 97.6659 90.5054 98.3304 89.6856 98.3304C88.8659 98.3304 88.2014 97.6659 88.2014 96.8462C88.2014 96.0265 88.8659 95.3619 89.6856 95.3619Z" fill="black"/>
<path d="M92.6512 95.3619C93.471 95.3619 94.1355 96.0265 94.1355 96.8462C94.1355 97.6659 93.471 98.3304 92.6512 98.3304C91.8315 98.3304 91.167 97.6659 91.167 96.8462C91.167 96.0265 91.8315 95.3619 92.6512 95.3619Z" fill="black"/>
<path d="M98.5873 95.3619C99.407 95.3619 100.071 96.0265 100.071 96.8462C100.071 97.6659 99.407 98.3304 98.5873 98.3304C97.7675 98.3304 97.103 97.6659 97.103 96.8462C97.103 96.0265 97.7675 95.3619 98.5873 95.3619Z" fill="black"/>
<path d="M101.557 95.3619C102.377 95.3619 103.042 96.0265 103.042 96.8462C103.042 97.6659 102.377 98.3304 101.557 98.3304C100.738 98.3304 100.073 97.6659 100.073 96.8462C100.073 96.0265 100.738 95.3619 101.557 95.3619Z" fill="black"/>
<path d="M48.1249 98.3298C48.9446 98.3298 49.6091 98.9944 49.6091 99.8141C49.6091 100.634 48.9446 101.298 48.1249 101.298C47.3051 101.298 46.6406 100.634 46.6406 99.8141C46.6406 98.9944 47.3051 98.3298 48.1249 98.3298Z" fill="black"/>
<path d="M51.0951 98.3298C51.9148 98.3298 52.5793 98.9944 52.5793 99.8141C52.5793 100.634 51.9148 101.298 51.0951 101.298C50.2754 101.298 49.6108 100.634 49.6108 99.8141C49.6108 98.9944 50.2754 98.3298 51.0951 98.3298Z" fill="black"/>
<path d="M57.0311 98.3298C57.8509 98.3298 58.5153 98.9944 58.5153 99.8141C58.5153 100.634 57.8509 101.298 57.0311 101.298C56.2114 101.298 55.5469 100.634 55.5469 99.8141C55.5469 98.9944 56.2114 98.3298 57.0311 98.3298Z" fill="black"/>
<path d="M60.0013 98.3298C60.8211 98.3298 61.4855 98.9944 61.4855 99.8141C61.4855 100.634 60.8211 101.298 60.0013 101.298C59.1816 101.298 58.5171 100.634 58.5171 99.8141C58.5171 98.9944 59.1816 98.3298 60.0013 98.3298Z" fill="black"/>
<path d="M62.9669 98.3298C63.7866 98.3298 64.4511 98.9944 64.4511 99.8141C64.4511 100.634 63.7866 101.298 62.9669 101.298C62.1472 101.298 61.4827 100.634 61.4827 99.8141C61.4827 98.9944 62.1472 98.3298 62.9669 98.3298Z" fill="black"/>
<path d="M65.9374 98.3298C66.7571 98.3298 67.4216 98.9944 67.4216 99.8141C67.4216 100.634 66.7571 101.298 65.9374 101.298C65.1176 101.298 64.4531 100.634 64.4531 99.8141C64.4531 98.9944 65.1176 98.3298 65.9374 98.3298Z" fill="black"/>
<path d="M68.9029 98.3298C69.7227 98.3298 70.3872 98.9944 70.3872 99.8141C70.3872 100.634 69.7227 101.298 68.9029 101.298C68.0832 101.298 67.4187 100.634 67.4187 99.8141C67.4187 98.9944 68.0832 98.3298 68.9029 98.3298Z" fill="black"/>
<path d="M71.8731 98.3298C72.6929 98.3298 73.3574 98.9944 73.3574 99.8141C73.3574 100.634 72.6929 101.298 71.8731 101.298C71.0534 101.298 70.3889 100.634 70.3889 99.8141C70.3889 98.9944 71.0534 98.3298 71.8731 98.3298Z" fill="black"/>
<path d="M77.8092 98.3298C78.6289 98.3298 79.2934 98.9944 79.2934 99.8141C79.2934 100.634 78.6289 101.298 77.8092 101.298C76.9895 101.298 76.325 100.634 76.325 99.8141C76.325 98.9944 76.9895 98.3298 77.8092 98.3298Z" fill="black"/>
<path d="M83.745 98.3298C84.5647 98.3298 85.2292 98.9944 85.2292 99.8141C85.2292 100.634 84.5647 101.298 83.745 101.298C82.9253 101.298 82.2607 100.634 82.2607 99.8141C82.2607 98.9944 82.9253 98.3298 83.745 98.3298Z" fill="black"/>
<path d="M92.6512 98.3298C93.471 98.3298 94.1355 98.9944 94.1355 99.8141C94.1355 100.634 93.471 101.298 92.6512 101.298C91.8315 101.298 91.167 100.634 91.167 99.8141C91.167 98.9944 91.8315 98.3298 92.6512 98.3298Z" fill="black"/>
<path d="M48.1251 101.299C48.9449 101.299 49.6093 101.963 49.6093 102.783C49.6093 103.603 48.9449 104.267 48.1251 104.267C47.3054 104.267 46.6409 103.603 46.6409 102.783C46.6409 101.963 47.3054 101.299 48.1251 101.299Z" fill="black"/>
<path d="M54.0606 101.299C54.8804 101.299 55.5449 101.964 55.5449 102.783C55.5449 103.603 54.8804 104.268 54.0606 104.268C53.2409 104.268 52.5764 103.603 52.5764 102.783C52.5764 101.964 53.2409 101.299 54.0606 101.299Z" fill="black"/>
<path d="M59.9967 101.299C60.8164 101.299 61.4809 101.964 61.4809 102.783C61.4809 103.603 60.8164 104.268 59.9967 104.268C59.177 104.268 58.5125 103.603 58.5125 102.783C58.5125 101.964 59.177 101.299 59.9967 101.299Z" fill="black"/>
<path d="M62.9669 101.299C63.7866 101.299 64.4511 101.964 64.4511 102.783C64.4511 103.603 63.7866 104.268 62.9669 104.268C62.1472 104.268 61.4827 103.603 61.4827 102.783C61.4827 101.964 62.1472 101.299 62.9669 101.299Z" fill="black"/>
<path d="M65.9374 101.299C66.7571 101.299 67.4216 101.964 67.4216 102.783C67.4216 103.603 66.7571 104.268 65.9374 104.268C65.1176 104.268 64.4531 103.603 64.4531 102.783C64.4531 101.964 65.1176 101.299 65.9374 101.299Z" fill="black"/>
<path d="M71.8731 101.299C72.6929 101.299 73.3574 101.964 73.3574 102.783C73.3574 103.603 72.6929 104.268 71.8731 104.268C71.0534 104.268 70.3889 103.603 70.3889 102.783C70.3889 101.964 71.0534 101.299 71.8731 101.299Z" fill="black"/>
<path d="M74.8436 101.299C75.6634 101.299 76.3278 101.964 76.3278 102.783C76.3278 103.603 75.6634 104.268 74.8436 104.268C74.0239 104.268 73.3594 103.603 73.3594 102.783C73.3594 101.964 74.0239 101.299 74.8436 101.299Z" fill="black"/>
<path d="M77.8092 101.299C78.6289 101.299 79.2934 101.964 79.2934 102.783C79.2934 103.603 78.6289 104.268 77.8092 104.268C76.9895 104.268 76.325 103.603 76.325 102.783C76.325 101.964 76.9895 101.299 77.8092 101.299Z" fill="black"/>
<path d="M80.7794 101.299C81.5991 101.299 82.2636 101.964 82.2636 102.783C82.2636 103.603 81.5991 104.268 80.7794 104.268C79.9597 104.268 79.2952 103.603 79.2952 102.783C79.2952 101.964 79.9597 101.299 80.7794 101.299Z" fill="black"/>
<path d="M83.745 101.299C84.5647 101.299 85.2292 101.964 85.2292 102.783C85.2292 103.603 84.5647 104.268 83.745 104.268C82.9253 104.268 82.2607 103.603 82.2607 102.783C82.2607 101.964 82.9253 101.299 83.745 101.299Z" fill="black"/>
<path d="M86.7152 101.299C87.5349 101.299 88.1994 101.963 88.1994 102.783C88.1994 103.603 87.5349 104.267 86.7152 104.267C85.8955 104.267 85.231 103.603 85.231 102.783C85.231 101.963 85.8955 101.299 86.7152 101.299Z" fill="black"/>
<path d="M89.6856 101.299C90.5054 101.299 91.1699 101.964 91.1699 102.783C91.1699 103.603 90.5054 104.268 89.6856 104.268C88.8659 104.268 88.2014 103.603 88.2014 102.783C88.2014 101.964 88.8659 101.299 89.6856 101.299Z" fill="black"/>
<path d="M101.557 101.299C102.377 101.299 103.042 101.963 103.042 102.783C103.042 103.603 102.377 104.267 101.557 104.267C100.738 104.267 100.073 103.603 100.073 102.783C100.073 101.963 100.738 101.299 101.557 101.299Z" fill="black"/>
<path d="M30.6413 18.183H24.0505C20.8385 18.183 18.1172 20.3052 17.2472 23.2057C17.1572 23.5058 17.087 23.8142 17.0382 24.1294C16.9844 24.4772 16.9563 24.8334 16.9563 25.196V31.9432C16.9563 35.8121 20.1397 38.9583 24.0505 38.9583L27.3459 38.9589L30.6413 38.958C34.5519 38.958 37.7355 35.8119 37.7355 31.943V25.196C37.7355 21.329 34.5521 18.183 30.6413 18.183ZM34.6186 31.9432C34.6186 34.0926 32.8345 35.8414 30.6405 35.8414L27.3459 35.842L24.0514 35.8412C21.8573 35.8412 20.0732 34.0924 20.0732 31.9432V25.196C20.0732 24.5246 20.2473 23.8925 20.5538 23.3402C20.8489 22.8089 21.2663 22.3519 21.769 22.0059C22.4152 21.5611 23.2021 21.2999 24.0503 21.2999H30.6413C32.8345 21.2999 34.6186 23.0476 34.6186 25.196V31.9432Z" fill="black"/>
<path d="M95.9457 18.1832H89.355C86.1429 18.1832 83.4217 20.3054 82.5517 23.206C82.4617 23.506 82.3914 23.8144 82.3426 24.1296C82.2888 24.4775 82.2607 24.8336 82.2607 25.1962V31.9434C82.2607 35.8123 85.4441 38.9585 89.355 38.9585L92.6504 38.9591L95.9457 38.9583C99.8564 38.9583 103.04 35.8121 103.04 31.9432V25.1962C103.04 21.3292 99.8566 18.1832 95.9457 18.1832ZM99.9231 31.9434C99.9231 34.0928 98.139 35.8416 95.9449 35.8416L92.6504 35.8422L89.3558 35.8414C87.1617 35.8414 85.3776 34.0926 85.3776 31.9434V25.1962C85.3776 24.5248 85.5518 23.8927 85.8582 23.3404C86.1533 22.8091 86.5708 22.3522 87.0734 22.0062C87.7197 21.5613 88.5066 21.3001 89.3548 21.3001H95.9457C98.139 21.3001 99.9231 23.0479 99.9231 25.1962V31.9434Z" fill="black"/>
<path d="M30.6413 83.4901H24.0505C20.8385 83.4901 18.1172 85.6123 17.2472 88.5129C17.1572 88.8129 17.087 89.1213 17.0382 89.4365C16.9844 89.7843 16.9563 90.1405 16.9563 90.5031V97.2503C16.9563 101.119 20.1397 104.265 24.0505 104.265L27.3459 104.266L30.6413 104.265C34.5519 104.265 37.7355 101.119 37.7355 97.2501V90.5031C37.7355 86.6361 34.5521 83.4901 30.6413 83.4901ZM34.6186 97.2503C34.6186 99.3997 32.8345 101.148 30.6405 101.148L27.3459 101.149L24.0514 101.148C21.8573 101.148 20.0732 99.3995 20.0732 97.2503V90.5031C20.0732 89.8317 20.2473 89.1996 20.5538 88.6473C20.8489 88.116 21.2663 87.659 21.769 87.3131C22.4152 86.8682 23.2021 86.607 24.0503 86.607H30.6413C32.8345 86.607 34.6186 88.3547 34.6186 90.5031V97.2503Z" fill="black"/>
<path d="M25.329 33.0243C23.9852 33.0243 22.8921 31.9528 22.8921 30.6369V26.505C22.8921 26.0939 22.999 25.7071 23.1861 25.3686C23.3667 25.0428 23.6225 24.7628 23.9305 24.5516C24.3262 24.2793 24.8085 24.1189 25.3277 24.1189H29.3643C30.7068 24.1189 31.8 25.1891 31.8 26.5049V30.6368C31.8 31.9526 30.7069 33.0242 29.3643 33.0242H27.346L25.329 33.0243Z" fill="black"/>
<path d="M90.6337 33.0245C89.2899 33.0245 88.1968 31.953 88.1968 30.6372V26.5052C88.1968 26.0942 88.3036 25.7073 88.4907 25.3688C88.6714 25.0431 88.9272 24.7631 89.2352 24.5519C89.6309 24.2795 90.1132 24.1191 90.6324 24.1191H94.6689C96.0115 24.1191 97.1047 25.1894 97.1047 26.5052V30.6371C97.1047 31.9528 96.0116 33.0244 94.6689 33.0244H92.6507L90.6337 33.0245Z" fill="black"/>
<path d="M25.329 98.3304C23.9852 98.3304 22.8921 97.2589 22.8921 95.9431V91.8112C22.8921 91.4001 22.999 91.0132 23.1861 90.6747C23.3667 90.349 23.6225 90.069 23.9305 89.8578C24.3262 89.5854 24.8085 89.425 25.3277 89.425H29.3643C30.7068 89.425 31.8 90.4953 31.8 91.8111V95.943C31.8 97.2588 30.7069 98.3303 29.3643 98.3303H27.346L25.329 98.3304Z" fill="black"/>
<path d="M60.0059 55.6443C60.9392 55.6443 61.5614 55.0461 61.5614 54.1607C61.5614 53.2753 60.9392 52.6531 60.0059 52.6531C59.0248 52.6531 58.4026 53.2753 58.4026 54.1607C58.4026 55.0461 59.0248 55.6443 60.0059 55.6443ZM58.618 69.4041H61.5614C61.8486 69.4041 62.0639 69.2844 62.0639 69.093V68.9973C62.0639 68.5426 61.1067 68.5426 61.1067 67.7051V58.1091C61.1067 57.7741 60.8674 57.5348 60.3649 57.7741L58.5223 58.6834C58.3069 58.8031 58.1633 58.8749 58.1633 59.0424V59.0903C58.1633 59.4492 59.0248 59.6406 59.0248 60.5739V67.7051C59.0248 68.5426 58.1633 68.5426 58.1633 68.9973V69.093C58.1633 69.2844 58.3308 69.4041 58.618 69.4041Z" fill="black"/>
</svg>
