<svg width="113" height="136" viewBox="0 0 113 136" fill="none" xmlns="http://www.w3.org/2000/svg">
<path d="M21.941 120.072C19.625 120.072 17.873 118.5 17.873 115.908C17.873 113.316 19.625 111.684 21.941 111.684C24.257 111.684 26.009 113.268 26.009 115.86C26.009 118.452 24.257 120.072 21.941 120.072ZM21.941 118.8C23.369 118.8 24.521 117.708 24.521 115.884C24.521 114.048 23.369 112.968 21.941 112.968C20.513 112.968 19.361 114.048 19.361 115.884C19.361 117.708 20.513 118.8 21.941 118.8ZM30.6616 111.768C32.4016 111.768 33.5416 112.656 33.5416 114.3C33.5416 115.932 32.4016 116.868 30.6616 116.868H28.8376V120H27.3736V111.768H30.6616ZM30.6616 115.644C31.5736 115.644 32.0536 115.08 32.0536 114.312C32.0536 113.556 31.5736 112.992 30.6616 112.992H28.8376V115.644H30.6616ZM36.1707 118.752H40.4307V120H34.7067V111.768H40.3587V113.016H36.1707V115.164H39.9267V116.388H36.1707V118.752ZM47.1924 111.768H48.6324V120H47.2284L43.2924 114V120H41.8524V111.768H43.2564L47.1924 117.792V111.768ZM54.4444 112.212C54.4444 112.764 54.0244 113.148 53.4844 113.148C52.9444 113.148 52.5244 112.764 52.5244 112.212C52.5244 111.684 52.9444 111.288 53.4844 111.288C54.0244 111.288 54.4444 111.684 54.4444 112.212ZM52.7404 120V114.12H54.2044V120H52.7404ZM59.1358 111.768C60.8758 111.768 62.0158 112.656 62.0158 114.3C62.0158 115.932 60.8758 116.868 59.1358 116.868H57.3118V120H55.8478V111.768H59.1358ZM59.1358 115.644C60.0478 115.644 60.5278 115.08 60.5278 114.312C60.5278 113.556 60.0478 112.992 59.1358 112.992H57.3118V115.644H59.1358ZM68.509 111.768H69.973V120H68.509V116.424H64.645V120H63.181V111.768H64.645V115.14H68.509V111.768ZM75.4146 120.072C73.0986 120.072 71.3466 118.5 71.3466 115.908C71.3466 113.316 73.0986 111.684 75.4146 111.684C77.7306 111.684 79.4826 113.268 79.4826 115.86C79.4826 118.452 77.7306 120.072 75.4146 120.072ZM75.4146 118.8C76.8426 118.8 77.9946 117.708 77.9946 115.884C77.9946 114.048 76.8426 112.968 75.4146 112.968C73.9866 112.968 72.8346 114.048 72.8346 115.884C72.8346 117.708 73.9866 118.8 75.4146 118.8ZM86.1872 111.768H87.6272V120H86.2232L82.2872 114V120H80.8472V111.768H82.2512L86.1872 117.792V111.768ZM90.9334 118.752H95.1934V120H89.4694V111.768H95.1214V113.016H90.9334V115.164H94.6894V116.388H90.9334V118.752ZM5.9792 131.788C7.3952 131.788 7.9952 130.984 8.1392 130H9.5912C9.3992 131.752 8.2832 133.072 5.9432 133.072C3.7232 133.072 2.1392 131.452 2.1392 128.884C2.1392 126.352 3.7472 124.684 5.9432 124.684C8.2472 124.684 9.4112 126.004 9.5912 127.78H8.1392C7.9952 126.784 7.3592 125.968 5.9792 125.968C4.6472 125.968 3.6152 127.084 3.6152 128.884C3.6272 130.72 4.6352 131.788 5.9792 131.788ZM16.0641 133L15.4281 131.128H11.9961L11.3601 133H9.88408L12.8601 124.768H14.5641L17.5401 133H16.0641ZM12.4161 129.928H15.0081L13.7121 126.136L12.4161 129.928ZM24.7919 124.768H26.8559L26.8439 133H25.4279V126.352L23.2199 133H22.1279L19.9199 126.352V133H18.5039L18.4919 124.768H20.5559L22.6799 131.26L24.7919 124.768ZM30.1721 131.752H34.4321V133H28.7081V124.768H34.3601V126.016H30.1721V128.164H33.9281V129.388H30.1721V131.752ZM42.4538 131.776L42.5378 132.952C42.3338 133.012 42.0698 133.06 41.7458 133.06C40.5938 133.06 40.1498 132.52 39.7298 131.728L38.7578 129.892H37.3178V133H35.8538V124.768H39.0458C40.7978 124.768 41.9378 125.68 41.9378 127.348C41.9378 128.524 41.3138 129.316 40.3418 129.676L41.1818 131.296C41.3978 131.728 41.6738 131.836 41.9738 131.836C42.1778 131.836 42.3338 131.812 42.4538 131.776ZM37.3178 125.992V128.728H39.0458C39.9698 128.728 40.4498 128.164 40.4498 127.36C40.4498 126.556 39.9698 125.992 39.0458 125.992H37.3178ZM48.9356 133L48.2996 131.128H44.8676L44.2316 133H42.7556L45.7316 124.768H47.4356L50.4116 133H48.9356ZM45.2876 129.928H47.8796L46.5836 126.136L45.2876 129.928ZM58.4925 133L57.8565 131.128H54.4245L53.7885 133H52.3125L55.2885 124.768H56.9925L59.9685 133H58.4925ZM54.8445 129.928H57.4365L56.1405 126.136L54.8445 129.928ZM66.2724 124.768H67.7124V133H66.3084L62.3724 127V133H60.9324V124.768H62.3364L66.2724 130.792V124.768ZM72.6865 124.768C75.0385 124.768 76.6585 126.292 76.6585 128.884C76.6585 131.476 75.0385 133 72.6865 133H69.5545V124.768H72.6865ZM72.6865 131.776C74.1505 131.776 75.1825 130.768 75.1825 128.884C75.1825 127 74.1505 126.004 72.6865 126.004H71.0185V131.764L72.6865 131.776ZM81.622 126.976C81.622 128.908 86.362 127.372 86.362 130.768C86.362 132.172 85.066 133.072 83.158 133.072C81.154 133.072 79.966 132.172 79.966 130.564L81.43 130.576C81.43 131.38 82.054 131.836 83.23 131.836C84.286 131.836 84.898 131.452 84.898 130.768C84.898 128.752 80.158 130.288 80.158 127.012C80.146 125.62 81.382 124.684 83.218 124.684C85.09 124.684 86.242 125.608 86.242 127.156H84.778C84.778 126.316 84.19 125.92 83.194 125.92C82.114 125.92 81.622 126.304 81.622 126.976ZM91.0939 131.788C92.5099 131.788 93.1099 130.984 93.2539 130H94.7059C94.5139 131.752 93.3979 133.072 91.0579 133.072C88.8379 133.072 87.2539 131.452 87.2539 128.884C87.2539 126.352 88.8619 124.684 91.0579 124.684C93.3619 124.684 94.5259 126.004 94.7059 127.78H93.2539C93.1099 126.784 92.4739 125.968 91.0939 125.968C89.7619 125.968 88.7299 127.084 88.7299 128.884C88.7419 130.72 89.7499 131.788 91.0939 131.788ZM101.179 133L100.543 131.128H97.1108L96.4748 133H94.9988L97.9748 124.768H99.6788L102.655 133H101.179ZM97.5308 129.928H100.123L98.8268 126.136L97.5308 129.928ZM108.959 124.768H110.399V133H108.995L105.059 127V133H103.619V124.768H105.023L108.959 130.792V124.768Z" fill="#625E5C"/>
<path d="M44.8762 14.8484C45.5456 14.8484 46.0883 15.3911 46.0883 16.0605C46.0883 16.73 45.5456 17.2726 44.8762 17.2726C44.2068 17.2726 43.6641 16.73 43.6641 16.0605C43.6641 15.3911 44.2068 14.8484 44.8762 14.8484Z" fill="#C8C4C2"/>
<path d="M52.1496 14.8484C52.8191 14.8484 53.3617 15.3911 53.3617 16.0605C53.3617 16.73 52.8191 17.2726 52.1496 17.2726C51.4802 17.2726 50.9375 16.73 50.9375 16.0605C50.9375 15.3911 51.4802 14.8484 52.1496 14.8484Z" fill="#C8C4C2"/>
<path d="M54.5754 14.8484C55.2449 14.8484 55.7875 15.3911 55.7875 16.0605C55.7875 16.73 55.2449 17.2726 54.5754 17.2726C53.906 17.2726 53.3633 16.73 53.3633 16.0605C53.3633 15.3911 53.906 14.8484 54.5754 14.8484Z" fill="#C8C4C2"/>
<path d="M56.9973 14.8484C57.6667 14.8484 58.2094 15.3911 58.2094 16.0605C58.2094 16.73 57.6667 17.2726 56.9973 17.2726C56.3278 17.2726 55.7852 16.73 55.7852 16.0605C55.7852 15.3911 56.3278 14.8484 56.9973 14.8484Z" fill="#C8C4C2"/>
<path d="M61.8488 14.8484C62.5183 14.8484 63.061 15.3911 63.061 16.0605C63.061 16.73 62.5183 17.2726 61.8488 17.2726C61.1794 17.2726 60.6367 16.73 60.6367 16.0605C60.6367 15.3911 61.1794 14.8484 61.8488 14.8484Z" fill="#C8C4C2"/>
<path d="M64.2707 14.8484C64.9402 14.8484 65.4828 15.3911 65.4828 16.0605C65.4828 16.73 64.9402 17.2726 64.2707 17.2726C63.6013 17.2726 63.0586 16.73 63.0586 16.0605C63.0586 15.3911 63.6013 14.8484 64.2707 14.8484Z" fill="#C8C4C2"/>
<path d="M69.1223 14.8484C69.7917 14.8484 70.3344 15.3911 70.3344 16.0605C70.3344 16.73 69.7917 17.2726 69.1223 17.2726C68.4528 17.2726 67.9102 16.73 67.9102 16.0605C67.9102 15.3911 68.4528 14.8484 69.1223 14.8484Z" fill="#C8C4C2"/>
<path d="M71.5442 14.8484C72.2136 14.8484 72.7563 15.3911 72.7563 16.0605C72.7563 16.73 72.2136 17.2726 71.5442 17.2726C70.8747 17.2726 70.332 16.73 70.332 16.0605C70.332 15.3911 70.8747 14.8484 71.5442 14.8484Z" fill="#C8C4C2"/>
<path d="M42.4543 17.2722C43.1238 17.2722 43.6664 17.8149 43.6664 18.4843C43.6664 19.1538 43.1238 19.6965 42.4543 19.6965C41.7849 19.6965 41.2422 19.1538 41.2422 18.4843C41.2422 17.8149 41.7849 17.2722 42.4543 17.2722Z" fill="#C8C4C2"/>
<path d="M44.8762 17.2722C45.5456 17.2722 46.0883 17.8149 46.0883 18.4843C46.0883 19.1538 45.5456 19.6965 44.8762 19.6965C44.2068 19.6965 43.6641 19.1538 43.6641 18.4843C43.6641 17.8149 44.2068 17.2722 44.8762 17.2722Z" fill="#C8C4C2"/>
<path d="M47.302 17.2722C47.9714 17.2722 48.5141 17.8149 48.5141 18.4843C48.5141 19.1538 47.9714 19.6965 47.302 19.6965C46.6325 19.6965 46.0898 19.1538 46.0898 18.4843C46.0898 17.8149 46.6325 17.2722 47.302 17.2722Z" fill="#C8C4C2"/>
<path d="M49.7277 17.2722C50.3972 17.2722 50.9399 17.8149 50.9399 18.4843C50.9399 19.1538 50.3972 19.6965 49.7277 19.6965C49.0583 19.6965 48.5156 19.1538 48.5156 18.4843C48.5156 17.8149 49.0583 17.2722 49.7277 17.2722Z" fill="#C8C4C2"/>
<path d="M54.5754 17.2722C55.2449 17.2722 55.7875 17.8149 55.7875 18.4843C55.7875 19.1538 55.2449 19.6965 54.5754 19.6965C53.906 19.6965 53.3633 19.1538 53.3633 18.4843C53.3633 17.8149 53.906 17.2722 54.5754 17.2722Z" fill="#C8C4C2"/>
<path d="M61.8488 17.2722C62.5183 17.2722 63.061 17.8149 63.061 18.4843C63.061 19.1538 62.5183 19.6965 61.8488 19.6965C61.1794 19.6965 60.6367 19.1538 60.6367 18.4843C60.6367 17.8149 61.1794 17.2722 61.8488 17.2722Z" fill="#C8C4C2"/>
<path d="M71.5442 17.2722C72.2136 17.2722 72.7563 17.8149 72.7563 18.4843C72.7563 19.1538 72.2136 19.6965 71.5442 19.6965C70.8747 19.6965 70.332 19.1538 70.332 18.4843C70.332 17.8149 70.8747 17.2722 71.5442 17.2722Z" fill="#C8C4C2"/>
<path d="M42.4543 19.697C43.1238 19.697 43.6664 20.2397 43.6664 20.9091C43.6664 21.5786 43.1238 22.1213 42.4543 22.1213C41.7849 22.1213 41.2422 21.5786 41.2422 20.9091C41.2422 20.2397 41.7849 19.697 42.4543 19.697Z" fill="#C8C4C2"/>
<path d="M44.8762 19.6968C45.5456 19.6968 46.0883 20.2395 46.0883 20.9089C46.0883 21.5784 45.5456 22.121 44.8762 22.121C44.2068 22.121 43.6641 21.5784 43.6641 20.9089C43.6641 20.2395 44.2068 19.6968 44.8762 19.6968Z" fill="#C8C4C2"/>
<path d="M47.302 19.6968C47.9714 19.6968 48.5141 20.2395 48.5141 20.9089C48.5141 21.5784 47.9714 22.121 47.302 22.121C46.6325 22.121 46.0898 21.5784 46.0898 20.9089C46.0898 20.2395 46.6325 19.6968 47.302 19.6968Z" fill="#C8C4C2"/>
<path d="M49.7277 19.697C50.3972 19.697 50.9399 20.2397 50.9399 20.9091C50.9399 21.5786 50.3972 22.1213 49.7277 22.1213C49.0583 22.1213 48.5156 21.5786 48.5156 20.9091C48.5156 20.2397 49.0583 19.697 49.7277 19.697Z" fill="#C8C4C2"/>
<path d="M52.1496 19.6968C52.8191 19.6968 53.3617 20.2395 53.3617 20.9089C53.3617 21.5784 52.8191 22.121 52.1496 22.121C51.4802 22.121 50.9375 21.5784 50.9375 20.9089C50.9375 20.2395 51.4802 19.6968 52.1496 19.6968Z" fill="#C8C4C2"/>
<path d="M54.5754 19.697C55.2449 19.697 55.7875 20.2397 55.7875 20.9091C55.7875 21.5786 55.2449 22.1213 54.5754 22.1213C53.906 22.1213 53.3633 21.5786 53.3633 20.9091C53.3633 20.2397 53.906 19.697 54.5754 19.697Z" fill="#C8C4C2"/>
<path d="M56.9973 19.6968C57.6667 19.6968 58.2094 20.2395 58.2094 20.9089C58.2094 21.5784 57.6667 22.121 56.9973 22.121C56.3278 22.121 55.7852 21.5784 55.7852 20.9089C55.7852 20.2395 56.3278 19.6968 56.9973 19.6968Z" fill="#C8C4C2"/>
<path d="M59.4231 19.697C60.0925 19.697 60.6352 20.2397 60.6352 20.9091C60.6352 21.5786 60.0925 22.1213 59.4231 22.1213C58.7536 22.1213 58.2109 21.5786 58.2109 20.9091C58.2109 20.2397 58.7536 19.697 59.4231 19.697Z" fill="#C8C4C2"/>
<path d="M61.8488 19.6968C62.5183 19.6968 63.061 20.2395 63.061 20.9089C63.061 21.5784 62.5183 22.121 61.8488 22.121C61.1794 22.121 60.6367 21.5784 60.6367 20.9089C60.6367 20.2395 61.1794 19.6968 61.8488 19.6968Z" fill="#C8C4C2"/>
<path d="M64.2707 19.6968C64.9402 19.6968 65.4828 20.2395 65.4828 20.9089C65.4828 21.5784 64.9402 22.121 64.2707 22.121C63.6013 22.121 63.0586 21.5784 63.0586 20.9089C63.0586 20.2395 63.6013 19.6968 64.2707 19.6968Z" fill="#C8C4C2"/>
<path d="M66.6965 19.697C67.366 19.697 67.9086 20.2397 67.9086 20.9091C67.9086 21.5786 67.366 22.1213 66.6965 22.1213C66.0271 22.1213 65.4844 21.5786 65.4844 20.9091C65.4844 20.2397 66.0271 19.697 66.6965 19.697Z" fill="#C8C4C2"/>
<path d="M69.1223 19.6968C69.7917 19.6968 70.3344 20.2395 70.3344 20.9089C70.3344 21.5784 69.7917 22.121 69.1223 22.121C68.4528 22.121 67.9102 21.5784 67.9102 20.9089C67.9102 20.2395 68.4528 19.6968 69.1223 19.6968Z" fill="#C8C4C2"/>
<path d="M71.5442 19.697C72.2136 19.697 72.7563 20.2397 72.7563 20.9091C72.7563 21.5786 72.2136 22.1213 71.5442 22.1213C70.8747 22.1213 70.332 21.5786 70.332 20.9091C70.332 20.2397 70.8747 19.697 71.5442 19.697Z" fill="#C8C4C2"/>
<path d="M42.4543 22.1208C43.1238 22.1208 43.6664 22.6635 43.6664 23.333C43.6664 24.0024 43.1238 24.5451 42.4543 24.5451C41.7849 24.5451 41.2422 24.0024 41.2422 23.333C41.2422 22.6635 41.7849 22.1208 42.4543 22.1208Z" fill="#C8C4C2"/>
<path d="M44.8762 22.1208C45.5456 22.1208 46.0883 22.6635 46.0883 23.333C46.0883 24.0024 45.5456 24.5451 44.8762 24.5451C44.2068 24.5451 43.6641 24.0024 43.6641 23.333C43.6641 22.6635 44.2068 22.1208 44.8762 22.1208Z" fill="#C8C4C2"/>
<path d="M47.302 22.1208C47.9714 22.1208 48.5141 22.6635 48.5141 23.333C48.5141 24.0024 47.9714 24.5451 47.302 24.5451C46.6325 24.5451 46.0898 24.0024 46.0898 23.333C46.0898 22.6635 46.6325 22.1208 47.302 22.1208Z" fill="#C8C4C2"/>
<path d="M49.7277 22.1208C50.3972 22.1208 50.9399 22.6635 50.9399 23.333C50.9399 24.0024 50.3972 24.5451 49.7277 24.5451C49.0583 24.5451 48.5156 24.0024 48.5156 23.333C48.5156 22.6635 49.0583 22.1208 49.7277 22.1208Z" fill="#C8C4C2"/>
<path d="M52.1496 22.1208C52.8191 22.1208 53.3617 22.6635 53.3617 23.333C53.3617 24.0024 52.8191 24.5451 52.1496 24.5451C51.4802 24.5451 50.9375 24.0024 50.9375 23.333C50.9375 22.6635 51.4802 22.1208 52.1496 22.1208Z" fill="#C8C4C2"/>
<path d="M59.4231 22.1208C60.0925 22.1208 60.6352 22.6635 60.6352 23.333C60.6352 24.0024 60.0925 24.5451 59.4231 24.5451C58.7536 24.5451 58.2109 24.0024 58.2109 23.333C58.2109 22.6635 58.7536 22.1208 59.4231 22.1208Z" fill="#C8C4C2"/>
<path d="M64.2707 22.1208C64.9402 22.1208 65.4828 22.6635 65.4828 23.333C65.4828 24.0024 64.9402 24.5451 64.2707 24.5451C63.6013 24.5451 63.0586 24.0024 63.0586 23.333C63.0586 22.6635 63.6013 22.1208 64.2707 22.1208Z" fill="#C8C4C2"/>
<path d="M66.6965 22.1208C67.366 22.1208 67.9086 22.6635 67.9086 23.333C67.9086 24.0024 67.366 24.5451 66.6965 24.5451C66.0271 24.5451 65.4844 24.0024 65.4844 23.333C65.4844 22.6635 66.0271 22.1208 66.6965 22.1208Z" fill="#C8C4C2"/>
<path d="M71.5442 22.1208C72.2136 22.1208 72.7563 22.6635 72.7563 23.333C72.7563 24.0024 72.2136 24.5451 71.5442 24.5451C70.8747 24.5451 70.332 24.0024 70.332 23.333C70.332 22.6635 70.8747 22.1208 71.5442 22.1208Z" fill="#C8C4C2"/>
<path d="M42.4543 24.5457C43.1238 24.5457 43.6664 25.0883 43.6664 25.7578C43.6664 26.4272 43.1238 26.9699 42.4543 26.9699C41.7849 26.9699 41.2422 26.4272 41.2422 25.7578C41.2422 25.0883 41.7849 24.5457 42.4543 24.5457Z" fill="#C8C4C2"/>
<path d="M47.302 24.5457C47.9714 24.5457 48.5141 25.0883 48.5141 25.7578C48.5141 26.4272 47.9714 26.9699 47.302 26.9699C46.6325 26.9699 46.0898 26.4272 46.0898 25.7578C46.0898 25.0883 46.6325 24.5457 47.302 24.5457Z" fill="#C8C4C2"/>
<path d="M52.1496 24.5457C52.8191 24.5457 53.3617 25.0883 53.3617 25.7578C53.3617 26.4272 52.8191 26.9699 52.1496 26.9699C51.4802 26.9699 50.9375 26.4272 50.9375 25.7578C50.9375 25.0883 51.4802 24.5457 52.1496 24.5457Z" fill="#C8C4C2"/>
<path d="M54.5754 24.5457C55.2449 24.5457 55.7875 25.0883 55.7875 25.7578C55.7875 26.4272 55.2449 26.9699 54.5754 26.9699C53.906 26.9699 53.3633 26.4272 53.3633 25.7578C53.3633 25.0883 53.906 24.5457 54.5754 24.5457Z" fill="#C8C4C2"/>
<path d="M57.0012 24.5457C57.6706 24.5457 58.2133 25.0883 58.2133 25.7578C58.2133 26.4272 57.6706 26.9699 57.0012 26.9699C56.3318 26.9699 55.7891 26.4272 55.7891 25.7578C55.7891 25.0883 56.3318 24.5457 57.0012 24.5457Z" fill="#C8C4C2"/>
<path d="M59.4231 24.5457C60.0925 24.5457 60.6352 25.0883 60.6352 25.7578C60.6352 26.4272 60.0925 26.9699 59.4231 26.9699C58.7536 26.9699 58.2109 26.4272 58.2109 25.7578C58.2109 25.0883 58.7536 24.5457 59.4231 24.5457Z" fill="#C8C4C2"/>
<path d="M61.8488 24.5457C62.5183 24.5457 63.061 25.0883 63.061 25.7578C63.061 26.4272 62.5183 26.9699 61.8488 26.9699C61.1794 26.9699 60.6367 26.4272 60.6367 25.7578C60.6367 25.0883 61.1794 24.5457 61.8488 24.5457Z" fill="#C8C4C2"/>
<path d="M42.4543 26.9695C43.1238 26.9695 43.6664 27.5122 43.6664 28.1816C43.6664 28.8511 43.1238 29.3937 42.4543 29.3937C41.7849 29.3937 41.2422 28.8511 41.2422 28.1816C41.2422 27.5122 41.7849 26.9695 42.4543 26.9695Z" fill="#C8C4C2"/>
<path d="M47.302 26.9695C47.9714 26.9695 48.5141 27.5122 48.5141 28.1816C48.5141 28.8511 47.9714 29.3937 47.302 29.3937C46.6325 29.3937 46.0898 28.8511 46.0898 28.1816C46.0898 27.5122 46.6325 26.9695 47.302 26.9695Z" fill="#C8C4C2"/>
<path d="M49.7277 26.9695C50.3972 26.9695 50.9399 27.5122 50.9399 28.1816C50.9399 28.8511 50.3972 29.3937 49.7277 29.3937C49.0583 29.3937 48.5156 28.8511 48.5156 28.1816C48.5156 27.5122 49.0583 26.9695 49.7277 26.9695Z" fill="#C8C4C2"/>
<path d="M52.1496 26.9695C52.8191 26.9695 53.3617 27.5122 53.3617 28.1816C53.3617 28.8511 52.8191 29.3937 52.1496 29.3937C51.4802 29.3937 50.9375 28.8511 50.9375 28.1816C50.9375 27.5122 51.4802 26.9695 52.1496 26.9695Z" fill="#C8C4C2"/>
<path d="M61.8488 26.9695C62.5183 26.9695 63.061 27.5122 63.061 28.1816C63.061 28.8511 62.5183 29.3937 61.8488 29.3937C61.1794 29.3937 60.6367 28.8511 60.6367 28.1816C60.6367 27.5122 61.1794 26.9695 61.8488 26.9695Z" fill="#C8C4C2"/>
<path d="M64.2707 26.9695C64.9402 26.9695 65.4828 27.5122 65.4828 28.1816C65.4828 28.8511 64.9402 29.3937 64.2707 29.3937C63.6013 29.3937 63.0586 28.8511 63.0586 28.1816C63.0586 27.5122 63.6013 26.9695 64.2707 26.9695Z" fill="#C8C4C2"/>
<path d="M66.6965 26.9695C67.366 26.9695 67.9086 27.5122 67.9086 28.1816C67.9086 28.8511 67.366 29.3937 66.6965 29.3937C66.0271 29.3937 65.4844 28.8511 65.4844 28.1816C65.4844 27.5122 66.0271 26.9695 66.6965 26.9695Z" fill="#C8C4C2"/>
<path d="M71.5442 26.9695C72.2136 26.9695 72.7563 27.5122 72.7563 28.1816C72.7563 28.8511 72.2136 29.3937 71.5442 29.3937C70.8747 29.3937 70.332 28.8511 70.332 28.1816C70.332 27.5122 70.8747 26.9695 71.5442 26.9695Z" fill="#C8C4C2"/>
<path d="M42.4543 29.3943C43.1238 29.3943 43.6664 29.937 43.6664 30.6064C43.6664 31.2759 43.1238 31.8185 42.4543 31.8185C41.7849 31.8185 41.2422 31.2759 41.2422 30.6064C41.2422 29.937 41.7849 29.3943 42.4543 29.3943Z" fill="#C8C4C2"/>
<path d="M47.302 29.3943C47.9714 29.3943 48.5141 29.937 48.5141 30.6064C48.5141 31.2759 47.9714 31.8185 47.302 31.8185C46.6325 31.8185 46.0898 31.2759 46.0898 30.6064C46.0898 29.937 46.6325 29.3943 47.302 29.3943Z" fill="#C8C4C2"/>
<path d="M52.1496 29.3943C52.8191 29.3943 53.3617 29.937 53.3617 30.6064C53.3617 31.2759 52.8191 31.8185 52.1496 31.8185C51.4802 31.8185 50.9375 31.2759 50.9375 30.6064C50.9375 29.937 51.4802 29.3943 52.1496 29.3943Z" fill="#C8C4C2"/>
<path d="M57.0012 29.3943C57.6706 29.3943 58.2133 29.937 58.2133 30.6064C58.2133 31.2759 57.6706 31.8185 57.0012 31.8185C56.3318 31.8185 55.7891 31.2759 55.7891 30.6064C55.7891 29.937 56.3318 29.3943 57.0012 29.3943Z" fill="#C8C4C2"/>
<path d="M61.8488 29.3943C62.5183 29.3943 63.061 29.937 63.061 30.6064C63.061 31.2759 62.5183 31.8185 61.8488 31.8185C61.1794 31.8185 60.6367 31.2759 60.6367 30.6064C60.6367 29.937 61.1794 29.3943 61.8488 29.3943Z" fill="#C8C4C2"/>
<path d="M66.6965 29.3943C67.366 29.3943 67.9086 29.937 67.9086 30.6064C67.9086 31.2759 67.366 31.8185 66.6965 31.8185C66.0271 31.8185 65.4844 31.2759 65.4844 30.6064C65.4844 29.937 66.0271 29.3943 66.6965 29.3943Z" fill="#C8C4C2"/>
<path d="M71.5442 29.3943C72.2136 29.3943 72.7563 29.937 72.7563 30.6064C72.7563 31.2759 72.2136 31.8185 71.5442 31.8185C70.8747 31.8185 70.332 31.2759 70.332 30.6064C70.332 29.937 70.8747 29.3943 71.5442 29.3943Z" fill="#C8C4C2"/>
<path d="M61.8488 31.8181C62.5183 31.8181 63.061 32.3608 63.061 33.0302C63.061 33.6997 62.5183 34.2424 61.8488 34.2424C61.1794 34.2424 60.6367 33.6997 60.6367 33.0302C60.6367 32.3608 61.1794 31.8181 61.8488 31.8181Z" fill="#C8C4C2"/>
<path d="M64.2707 31.8181C64.9402 31.8181 65.4828 32.3608 65.4828 33.0302C65.4828 33.6997 64.9402 34.2424 64.2707 34.2424C63.6013 34.2424 63.0586 33.6997 63.0586 33.0302C63.0586 32.3608 63.6013 31.8181 64.2707 31.8181Z" fill="#C8C4C2"/>
<path d="M71.5442 31.8181C72.2136 31.8181 72.7563 32.3608 72.7563 33.0302C72.7563 33.6997 72.2136 34.2424 71.5442 34.2424C70.8747 34.2424 70.332 33.6997 70.332 33.0302C70.332 32.3608 70.8747 31.8181 71.5442 31.8181Z" fill="#C8C4C2"/>
<path d="M27.9074 34.2419C28.5769 34.2419 29.1196 34.7846 29.1196 35.4541C29.1196 36.1235 28.5769 36.6662 27.9074 36.6662C27.238 36.6662 26.6953 36.1235 26.6953 35.4541C26.6953 34.7846 27.238 34.2419 27.9074 34.2419Z" fill="#C8C4C2"/>
<path d="M35.1809 34.2419C35.8503 34.2419 36.393 34.7846 36.393 35.4541C36.393 36.1235 35.8503 36.6662 35.1809 36.6662C34.5114 36.6662 33.9688 36.1235 33.9688 35.4541C33.9688 34.7846 34.5114 34.2419 35.1809 34.2419Z" fill="#C8C4C2"/>
<path d="M37.6067 34.2419C38.2761 34.2419 38.8188 34.7846 38.8188 35.4541C38.8188 36.1235 38.2761 36.6662 37.6067 36.6662C36.9372 36.6662 36.3945 36.1235 36.3945 35.4541C36.3945 34.7846 36.9372 34.2419 37.6067 34.2419Z" fill="#C8C4C2"/>
<path d="M40.0285 34.2419C40.698 34.2419 41.2406 34.7846 41.2406 35.4541C41.2406 36.1235 40.698 36.6662 40.0285 36.6662C39.3591 36.6662 38.8164 36.1235 38.8164 35.4541C38.8164 34.7846 39.3591 34.2419 40.0285 34.2419Z" fill="#C8C4C2"/>
<path d="M42.4543 34.2419C43.1238 34.2419 43.6664 34.7846 43.6664 35.4541C43.6664 36.1235 43.1238 36.6662 42.4543 36.6662C41.7849 36.6662 41.2422 36.1235 41.2422 35.4541C41.2422 34.7846 41.7849 34.2419 42.4543 34.2419Z" fill="#C8C4C2"/>
<path d="M44.8762 34.2419C45.5456 34.2419 46.0883 34.7846 46.0883 35.4541C46.0883 36.1235 45.5456 36.6662 44.8762 36.6662C44.2068 36.6662 43.6641 36.1235 43.6641 35.4541C43.6641 34.7846 44.2068 34.2419 44.8762 34.2419Z" fill="#C8C4C2"/>
<path d="M52.1496 34.2419C52.8191 34.2419 53.3617 34.7846 53.3617 35.4541C53.3617 36.1235 52.8191 36.6662 52.1496 36.6662C51.4802 36.6662 50.9375 36.1235 50.9375 35.4541C50.9375 34.7846 51.4802 34.2419 52.1496 34.2419Z" fill="#C8C4C2"/>
<path d="M57.0012 34.2419C57.6706 34.2419 58.2133 34.7846 58.2133 35.4541C58.2133 36.1235 57.6706 36.6662 57.0012 36.6662C56.3318 36.6662 55.7891 36.1235 55.7891 35.4541C55.7891 34.7846 56.3318 34.2419 57.0012 34.2419Z" fill="#C8C4C2"/>
<path d="M61.8488 34.2419C62.5183 34.2419 63.061 34.7846 63.061 35.4541C63.061 36.1235 62.5183 36.6662 61.8488 36.6662C61.1794 36.6662 60.6367 36.1235 60.6367 35.4541C60.6367 34.7846 61.1794 34.2419 61.8488 34.2419Z" fill="#C8C4C2"/>
<path d="M64.2707 34.2419C64.9402 34.2419 65.4828 34.7846 65.4828 35.4541C65.4828 36.1235 64.9402 36.6662 64.2707 36.6662C63.6013 36.6662 63.0586 36.1235 63.0586 35.4541C63.0586 34.7846 63.6013 34.2419 64.2707 34.2419Z" fill="#C8C4C2"/>
<path d="M71.5442 34.2419C72.2136 34.2419 72.7563 34.7846 72.7563 35.4541C72.7563 36.1235 72.2136 36.6662 71.5442 36.6662C70.8747 36.6662 70.332 36.1235 70.332 35.4541C70.332 34.7846 70.8747 34.2419 71.5442 34.2419Z" fill="#C8C4C2"/>
<path d="M73.9699 34.2419C74.6394 34.2419 75.1821 34.7846 75.1821 35.4541C75.1821 36.1235 74.6394 36.6662 73.9699 36.6662C73.3005 36.6662 72.7578 36.1235 72.7578 35.4541C72.7578 34.7846 73.3005 34.2419 73.9699 34.2419Z" fill="#C8C4C2"/>
<path d="M78.8176 34.2419C79.4871 34.2419 80.0297 34.7846 80.0297 35.4541C80.0297 36.1235 79.4871 36.6662 78.8176 36.6662C78.1482 36.6662 77.6055 36.1235 77.6055 35.4541C77.6055 34.7846 78.1482 34.2419 78.8176 34.2419Z" fill="#C8C4C2"/>
<path d="M81.2434 34.2419C81.9128 34.2419 82.4555 34.7846 82.4555 35.4541C82.4555 36.1235 81.9128 36.6662 81.2434 36.6662C80.5739 36.6662 80.0312 36.1235 80.0312 35.4541C80.0312 34.7846 80.5739 34.2419 81.2434 34.2419Z" fill="#C8C4C2"/>
<path d="M83.6652 34.2419C84.3347 34.2419 84.8774 34.7846 84.8774 35.4541C84.8774 36.1235 84.3347 36.6662 83.6652 36.6662C82.9958 36.6662 82.4531 36.1235 82.4531 35.4541C82.4531 34.7846 82.9958 34.2419 83.6652 34.2419Z" fill="#C8C4C2"/>
<path d="M86.091 34.2419C86.7605 34.2419 87.3031 34.7846 87.3031 35.4541C87.3031 36.1235 86.7605 36.6662 86.091 36.6662C85.4216 36.6662 84.8789 36.1235 84.8789 35.4541C84.8789 34.7846 85.4216 34.2419 86.091 34.2419Z" fill="#C8C4C2"/>
<path d="M88.5129 34.2419C89.1824 34.2419 89.725 34.7846 89.725 35.4541C89.725 36.1235 89.1824 36.6662 88.5129 36.6662C87.8435 36.6662 87.3008 36.1235 87.3008 35.4541C87.3008 34.7846 87.8435 34.2419 88.5129 34.2419Z" fill="#C8C4C2"/>
<path d="M23.0598 36.6665C23.7292 36.6665 24.2719 37.2092 24.2719 37.8786C24.2719 38.5481 23.7292 39.0907 23.0598 39.0907C22.3903 39.0907 21.8477 38.5481 21.8477 37.8786C21.8477 37.2092 22.3903 36.6665 23.0598 36.6665Z" fill="#C8C4C2"/>
<path d="M30.3332 36.6667C31.0027 36.6667 31.5453 37.2094 31.5453 37.8789C31.5453 38.5483 31.0027 39.091 30.3332 39.091C29.6638 39.091 29.1211 38.5483 29.1211 37.8789C29.1211 37.2094 29.6638 36.6667 30.3332 36.6667Z" fill="#C8C4C2"/>
<path d="M32.759 36.6667C33.4285 36.6667 33.9711 37.2094 33.9711 37.8789C33.9711 38.5483 33.4285 39.091 32.759 39.091C32.0896 39.091 31.5469 38.5483 31.5469 37.8789C31.5469 37.2094 32.0896 36.6667 32.759 36.6667Z" fill="#C8C4C2"/>
<path d="M35.1809 36.6665C35.8503 36.6665 36.393 37.2092 36.393 37.8786C36.393 38.5481 35.8503 39.0907 35.1809 39.0907C34.5114 39.0907 33.9688 38.5481 33.9688 37.8786C33.9688 37.2092 34.5114 36.6665 35.1809 36.6665Z" fill="#C8C4C2"/>
<path d="M40.0285 36.6665C40.698 36.6665 41.2406 37.2092 41.2406 37.8786C41.2406 38.5481 40.698 39.0907 40.0285 39.0907C39.3591 39.0907 38.8164 38.5481 38.8164 37.8786C38.8164 37.2092 39.3591 36.6665 40.0285 36.6665Z" fill="#C8C4C2"/>
<path d="M44.8762 36.6665C45.5456 36.6665 46.0883 37.2092 46.0883 37.8786C46.0883 38.5481 45.5456 39.0907 44.8762 39.0907C44.2068 39.0907 43.6641 38.5481 43.6641 37.8786C43.6641 37.2092 44.2068 36.6665 44.8762 36.6665Z" fill="#C8C4C2"/>
<path d="M52.1496 36.6665C52.8191 36.6665 53.3617 37.2092 53.3617 37.8786C53.3617 38.5481 52.8191 39.0907 52.1496 39.0907C51.4802 39.0907 50.9375 38.5481 50.9375 37.8786C50.9375 37.2092 51.4802 36.6665 52.1496 36.6665Z" fill="#C8C4C2"/>
<path d="M54.5754 36.6667C55.2449 36.6667 55.7875 37.2094 55.7875 37.8789C55.7875 38.5483 55.2449 39.091 54.5754 39.091C53.906 39.091 53.3633 38.5483 53.3633 37.8789C53.3633 37.2094 53.906 36.6667 54.5754 36.6667Z" fill="#C8C4C2"/>
<path d="M61.8488 36.6665C62.5183 36.6665 63.061 37.2092 63.061 37.8786C63.061 38.5481 62.5183 39.0907 61.8488 39.0907C61.1794 39.0907 60.6367 38.5481 60.6367 37.8786C60.6367 37.2092 61.1794 36.6665 61.8488 36.6665Z" fill="#C8C4C2"/>
<path d="M64.2707 36.6665C64.9402 36.6665 65.4828 37.2092 65.4828 37.8786C65.4828 38.5481 64.9402 39.0907 64.2707 39.0907C63.6013 39.0907 63.0586 38.5481 63.0586 37.8786C63.0586 37.2092 63.6013 36.6665 64.2707 36.6665Z" fill="#C8C4C2"/>
<path d="M71.5442 36.6667C72.2136 36.6667 72.7563 37.2094 72.7563 37.8789C72.7563 38.5483 72.2136 39.091 71.5442 39.091C70.8747 39.091 70.332 38.5483 70.332 37.8789C70.332 37.2094 70.8747 36.6667 71.5442 36.6667Z" fill="#C8C4C2"/>
<path d="M76.3918 36.6667C77.0613 36.6667 77.6039 37.2094 77.6039 37.8789C77.6039 38.5483 77.0613 39.091 76.3918 39.091C75.7224 39.091 75.1797 38.5483 75.1797 37.8789C75.1797 37.2094 75.7224 36.6667 76.3918 36.6667Z" fill="#C8C4C2"/>
<path d="M78.8176 36.6665C79.4871 36.6665 80.0297 37.2092 80.0297 37.8786C80.0297 38.5481 79.4871 39.0907 78.8176 39.0907C78.1482 39.0907 77.6055 38.5481 77.6055 37.8786C77.6055 37.2092 78.1482 36.6665 78.8176 36.6665Z" fill="#C8C4C2"/>
<path d="M83.6652 36.6667C84.3347 36.6667 84.8774 37.2094 84.8774 37.8789C84.8774 38.5483 84.3347 39.091 83.6652 39.091C82.9958 39.091 82.4531 38.5483 82.4531 37.8789C82.4531 37.2094 82.9958 36.6667 83.6652 36.6667Z" fill="#C8C4C2"/>
<path d="M88.5129 36.6667C89.1824 36.6667 89.725 37.2094 89.725 37.8789C89.725 38.5483 89.1824 39.091 88.5129 39.091C87.8435 39.091 87.3008 38.5483 87.3008 37.8789C87.3008 37.2094 87.8435 36.6667 88.5129 36.6667Z" fill="#C8C4C2"/>
<path d="M90.9387 36.6665C91.6081 36.6665 92.1508 37.2092 92.1508 37.8786C92.1508 38.5481 91.6081 39.0907 90.9387 39.0907C90.2693 39.0907 89.7266 38.5481 89.7266 37.8786C89.7266 37.2092 90.2693 36.6665 90.9387 36.6665Z" fill="#C8C4C2"/>
<path d="M23.0598 39.0908C23.7292 39.0908 24.2719 39.6335 24.2719 40.3029C24.2719 40.9724 23.7292 41.5151 23.0598 41.5151C22.3903 41.5151 21.8477 40.9724 21.8477 40.3029C21.8477 39.6335 22.3903 39.0908 23.0598 39.0908Z" fill="#C8C4C2"/>
<path d="M25.4856 39.0906C26.155 39.0906 26.6977 39.6333 26.6977 40.3027C26.6977 40.9722 26.155 41.5148 25.4856 41.5148C24.8161 41.5148 24.2734 40.9722 24.2734 40.3027C24.2734 39.6333 24.8161 39.0906 25.4856 39.0906Z" fill="#C8C4C2"/>
<path d="M37.6067 39.0906C38.2761 39.0906 38.8188 39.6333 38.8188 40.3027C38.8188 40.9722 38.2761 41.5148 37.6067 41.5148C36.9372 41.5148 36.3945 40.9722 36.3945 40.3027C36.3945 39.6333 36.9372 39.0906 37.6067 39.0906Z" fill="#C8C4C2"/>
<path d="M71.5442 39.0906C72.2136 39.0906 72.7563 39.6333 72.7563 40.3027C72.7563 40.9722 72.2136 41.5148 71.5442 41.5148C70.8747 41.5148 70.332 40.9722 70.332 40.3027C70.332 39.6333 70.8747 39.0906 71.5442 39.0906Z" fill="#C8C4C2"/>
<path d="M73.9699 39.0908C74.6394 39.0908 75.1821 39.6335 75.1821 40.3029C75.1821 40.9724 74.6394 41.5151 73.9699 41.5151C73.3005 41.5151 72.7578 40.9724 72.7578 40.3029C72.7578 39.6335 73.3005 39.0908 73.9699 39.0908Z" fill="#C8C4C2"/>
<path d="M81.2434 39.0908C81.9128 39.0908 82.4555 39.6335 82.4555 40.3029C82.4555 40.9724 81.9128 41.5151 81.2434 41.5151C80.5739 41.5151 80.0312 40.9724 80.0312 40.3029C80.0312 39.6335 80.5739 39.0908 81.2434 39.0908Z" fill="#C8C4C2"/>
<path d="M83.6652 39.0906C84.3347 39.0906 84.8774 39.6333 84.8774 40.3027C84.8774 40.9722 84.3347 41.5148 83.6652 41.5148C82.9958 41.5148 82.4531 40.9722 82.4531 40.3027C82.4531 39.6333 82.9958 39.0906 83.6652 39.0906Z" fill="#C8C4C2"/>
<path d="M90.9387 39.0908C91.6081 39.0908 92.1508 39.6335 92.1508 40.3029C92.1508 40.9724 91.6081 41.5151 90.9387 41.5151C90.2693 41.5151 89.7266 40.9724 89.7266 40.3029C89.7266 39.6335 90.2693 39.0908 90.9387 39.0908Z" fill="#C8C4C2"/>
<path d="M25.4856 41.5154C26.155 41.5154 26.6977 42.0581 26.6977 42.7275C26.6977 43.397 26.155 43.9396 25.4856 43.9396C24.8161 43.9396 24.2734 43.397 24.2734 42.7275C24.2734 42.0581 24.8161 41.5154 25.4856 41.5154Z" fill="#C8C4C2"/>
<path d="M32.759 41.5154C33.4285 41.5154 33.9711 42.0581 33.9711 42.7275C33.9711 43.397 33.4285 43.9396 32.759 43.9396C32.0896 43.9396 31.5469 43.397 31.5469 42.7275C31.5469 42.0581 32.0896 41.5154 32.759 41.5154Z" fill="#C8C4C2"/>
<path d="M40.0285 41.5154C40.698 41.5154 41.2406 42.0581 41.2406 42.7275C41.2406 43.397 40.698 43.9396 40.0285 43.9396C39.3591 43.9396 38.8164 43.397 38.8164 42.7275C38.8164 42.0581 39.3591 41.5154 40.0285 41.5154Z" fill="#C8C4C2"/>
<path d="M42.4543 41.5154C43.1238 41.5154 43.6664 42.0581 43.6664 42.7275C43.6664 43.397 43.1238 43.9396 42.4543 43.9396C41.7849 43.9396 41.2422 43.397 41.2422 42.7275C41.2422 42.0581 41.7849 41.5154 42.4543 41.5154Z" fill="#C8C4C2"/>
<path d="M44.8762 41.5154C45.5456 41.5154 46.0883 42.0581 46.0883 42.7275C46.0883 43.397 45.5456 43.9396 44.8762 43.9396C44.2068 43.9396 43.6641 43.397 43.6641 42.7275C43.6641 42.0581 44.2068 41.5154 44.8762 41.5154Z" fill="#C8C4C2"/>
<path d="M69.1184 41.5154C69.7878 41.5154 70.3305 42.0581 70.3305 42.7275C70.3305 43.397 69.7878 43.9396 69.1184 43.9396C68.4489 43.9396 67.9062 43.397 67.9062 42.7275C67.9062 42.0581 68.4489 41.5154 69.1184 41.5154Z" fill="#C8C4C2"/>
<path d="M71.5442 41.5154C72.2136 41.5154 72.7563 42.0581 72.7563 42.7275C72.7563 43.397 72.2136 43.9396 71.5442 43.9396C70.8747 43.9396 70.332 43.397 70.332 42.7275C70.332 42.0581 70.8747 41.5154 71.5442 41.5154Z" fill="#C8C4C2"/>
<path d="M76.3918 41.5154C77.0613 41.5154 77.6039 42.0581 77.6039 42.7275C77.6039 43.397 77.0613 43.9396 76.3918 43.9396C75.7224 43.9396 75.1797 43.397 75.1797 42.7275C75.1797 42.0581 75.7224 41.5154 76.3918 41.5154Z" fill="#C8C4C2"/>
<path d="M78.8176 41.5154C79.4871 41.5154 80.0297 42.0581 80.0297 42.7275C80.0297 43.397 79.4871 43.9396 78.8176 43.9396C78.1482 43.9396 77.6055 43.397 77.6055 42.7275C77.6055 42.0581 78.1482 41.5154 78.8176 41.5154Z" fill="#C8C4C2"/>
<path d="M83.6652 41.5154C84.3347 41.5154 84.8774 42.0581 84.8774 42.7275C84.8774 43.397 84.3347 43.9396 83.6652 43.9396C82.9958 43.9396 82.4531 43.397 82.4531 42.7275C82.4531 42.0581 82.9958 41.5154 83.6652 41.5154Z" fill="#C8C4C2"/>
<path d="M27.9074 43.9392C28.5769 43.9392 29.1196 44.4819 29.1196 45.1513C29.1196 45.8208 28.5769 46.3635 27.9074 46.3635C27.238 46.3635 26.6953 45.8208 26.6953 45.1513C26.6953 44.4819 27.238 43.9392 27.9074 43.9392Z" fill="#C8C4C2"/>
<path d="M32.759 43.9392C33.4285 43.9392 33.9711 44.4819 33.9711 45.1513C33.9711 45.8208 33.4285 46.3635 32.759 46.3635C32.0896 46.3635 31.5469 45.8208 31.5469 45.1513C31.5469 44.4819 32.0896 43.9392 32.759 43.9392Z" fill="#C8C4C2"/>
<path d="M37.6067 43.9392C38.2761 43.9392 38.8188 44.4819 38.8188 45.1513C38.8188 45.8208 38.2761 46.3635 37.6067 46.3635C36.9372 46.3635 36.3945 45.8208 36.3945 45.1513C36.3945 44.4819 36.9372 43.9392 37.6067 43.9392Z" fill="#C8C4C2"/>
<path d="M71.5442 43.9392C72.2136 43.9392 72.7563 44.4819 72.7563 45.1513C72.7563 45.8208 72.2136 46.3635 71.5442 46.3635C70.8747 46.3635 70.332 45.8208 70.332 45.1513C70.332 44.4819 70.8747 43.9392 71.5442 43.9392Z" fill="#C8C4C2"/>
<path d="M73.9699 43.9392C74.6394 43.9392 75.1821 44.4819 75.1821 45.1513C75.1821 45.8208 74.6394 46.3635 73.9699 46.3635C73.3005 46.3635 72.7578 45.8208 72.7578 45.1513C72.7578 44.4819 73.3005 43.9392 73.9699 43.9392Z" fill="#C8C4C2"/>
<path d="M76.3918 43.9392C77.0613 43.9392 77.6039 44.4819 77.6039 45.1513C77.6039 45.8208 77.0613 46.3635 76.3918 46.3635C75.7224 46.3635 75.1797 45.8208 75.1797 45.1513C75.1797 44.4819 75.7224 43.9392 76.3918 43.9392Z" fill="#C8C4C2"/>
<path d="M88.5129 43.9392C89.1824 43.9392 89.725 44.4819 89.725 45.1513C89.725 45.8208 89.1824 46.3635 88.5129 46.3635C87.8435 46.3635 87.3008 45.8208 87.3008 45.1513C87.3008 44.4819 87.8435 43.9392 88.5129 43.9392Z" fill="#C8C4C2"/>
<path d="M23.0598 46.364C23.7292 46.364 24.2719 46.9067 24.2719 47.5761C24.2719 48.2456 23.7292 48.7883 23.0598 48.7883C22.3903 48.7883 21.8477 48.2456 21.8477 47.5761C21.8477 46.9067 22.3903 46.364 23.0598 46.364Z" fill="#C8C4C2"/>
<path d="M30.3332 46.364C31.0027 46.364 31.5453 46.9067 31.5453 47.5761C31.5453 48.2456 31.0027 48.7883 30.3332 48.7883C29.6638 48.7883 29.1211 48.2456 29.1211 47.5761C29.1211 46.9067 29.6638 46.364 30.3332 46.364Z" fill="#C8C4C2"/>
<path d="M42.4543 46.364C43.1238 46.364 43.6664 46.9067 43.6664 47.5761C43.6664 48.2456 43.1238 48.7883 42.4543 48.7883C41.7849 48.7883 41.2422 48.2456 41.2422 47.5761C41.2422 46.9067 41.7849 46.364 42.4543 46.364Z" fill="#C8C4C2"/>
<path d="M69.1184 46.364C69.7878 46.364 70.3305 46.9067 70.3305 47.5761C70.3305 48.2456 69.7878 48.7883 69.1184 48.7883C68.4489 48.7883 67.9062 48.2456 67.9062 47.5761C67.9062 46.9067 68.4489 46.364 69.1184 46.364Z" fill="#C8C4C2"/>
<path d="M71.5442 46.364C72.2136 46.364 72.7563 46.9067 72.7563 47.5761C72.7563 48.2456 72.2136 48.7883 71.5442 48.7883C70.8747 48.7883 70.332 48.2456 70.332 47.5761C70.332 46.9067 70.8747 46.364 71.5442 46.364Z" fill="#C8C4C2"/>
<path d="M76.3918 46.364C77.0613 46.364 77.6039 46.9067 77.6039 47.5761C77.6039 48.2456 77.0613 48.7883 76.3918 48.7883C75.7224 48.7883 75.1797 48.2456 75.1797 47.5761C75.1797 46.9067 75.7224 46.364 76.3918 46.364Z" fill="#C8C4C2"/>
<path d="M83.6652 46.364C84.3347 46.364 84.8774 46.9067 84.8774 47.5761C84.8774 48.2456 84.3347 48.7883 83.6652 48.7883C82.9958 48.7883 82.4531 48.2456 82.4531 47.5761C82.4531 46.9067 82.9958 46.364 83.6652 46.364Z" fill="#C8C4C2"/>
<path d="M88.5129 46.364C89.1824 46.364 89.725 46.9067 89.725 47.5761C89.725 48.2456 89.1824 48.7883 88.5129 48.7883C87.8435 48.7883 87.3008 48.2456 87.3008 47.5761C87.3008 46.9067 87.8435 46.364 88.5129 46.364Z" fill="#C8C4C2"/>
<path d="M90.9387 46.364C91.6081 46.364 92.1508 46.9067 92.1508 47.5761C92.1508 48.2456 91.6081 48.7883 90.9387 48.7883C90.2693 48.7883 89.7266 48.2456 89.7266 47.5761C89.7266 46.9067 90.2693 46.364 90.9387 46.364Z" fill="#C8C4C2"/>
<path d="M25.4856 48.7878C26.155 48.7878 26.6977 49.3305 26.6977 50C26.6977 50.6694 26.155 51.2121 25.4856 51.2121C24.8161 51.2121 24.2734 50.6694 24.2734 50C24.2734 49.3305 24.8161 48.7878 25.4856 48.7878Z" fill="#C8C4C2"/>
<path d="M27.9074 48.7878C28.5769 48.7878 29.1196 49.3305 29.1196 50C29.1196 50.6694 28.5769 51.2121 27.9074 51.2121C27.238 51.2121 26.6953 50.6694 26.6953 50C26.6953 49.3305 27.238 48.7878 27.9074 48.7878Z" fill="#C8C4C2"/>
<path d="M30.3332 48.7878C31.0027 48.7878 31.5453 49.3305 31.5453 50C31.5453 50.6694 31.0027 51.2121 30.3332 51.2121C29.6638 51.2121 29.1211 50.6694 29.1211 50C29.1211 49.3305 29.6638 48.7878 30.3332 48.7878Z" fill="#C8C4C2"/>
<path d="M35.1809 48.7878C35.8503 48.7878 36.393 49.3305 36.393 50C36.393 50.6694 35.8503 51.2121 35.1809 51.2121C34.5114 51.2121 33.9688 50.6694 33.9688 50C33.9688 49.3305 34.5114 48.7878 35.1809 48.7878Z" fill="#C8C4C2"/>
<path d="M37.6067 48.7878C38.2761 48.7878 38.8188 49.3305 38.8188 50C38.8188 50.6694 38.2761 51.2121 37.6067 51.2121C36.9372 51.2121 36.3945 50.6694 36.3945 50C36.3945 49.3305 36.9372 48.7878 37.6067 48.7878Z" fill="#C8C4C2"/>
<path d="M42.4543 48.7878C43.1238 48.7878 43.6664 49.3305 43.6664 50C43.6664 50.6694 43.1238 51.2121 42.4543 51.2121C41.7849 51.2121 41.2422 50.6694 41.2422 50C41.2422 49.3305 41.7849 48.7878 42.4543 48.7878Z" fill="#C8C4C2"/>
<path d="M44.8762 48.7878C45.5456 48.7878 46.0883 49.3305 46.0883 50C46.0883 50.6694 45.5456 51.2121 44.8762 51.2121C44.2068 51.2121 43.6641 50.6694 43.6641 50C43.6641 49.3305 44.2068 48.7878 44.8762 48.7878Z" fill="#C8C4C2"/>
<path d="M69.1223 48.7878C69.7917 48.7878 70.3344 49.3305 70.3344 50C70.3344 50.6694 69.7917 51.2121 69.1223 51.2121C68.4528 51.2121 67.9102 50.6694 67.9102 50C67.9102 49.3305 68.4528 48.7878 69.1223 48.7878Z" fill="#C8C4C2"/>
<path d="M73.9699 48.7878C74.6394 48.7878 75.1821 49.3305 75.1821 50C75.1821 50.6694 74.6394 51.2121 73.9699 51.2121C73.3005 51.2121 72.7578 50.6694 72.7578 50C72.7578 49.3305 73.3005 48.7878 73.9699 48.7878Z" fill="#C8C4C2"/>
<path d="M76.3918 48.7878C77.0613 48.7878 77.6039 49.3305 77.6039 50C77.6039 50.6694 77.0613 51.2121 76.3918 51.2121C75.7224 51.2121 75.1797 50.6694 75.1797 50C75.1797 49.3305 75.7224 48.7878 76.3918 48.7878Z" fill="#C8C4C2"/>
<path d="M83.6652 48.7878C84.3347 48.7878 84.8774 49.3305 84.8774 50C84.8774 50.6694 84.3347 51.2121 83.6652 51.2121C82.9958 51.2121 82.4531 50.6694 82.4531 50C82.4531 49.3305 82.9958 48.7878 83.6652 48.7878Z" fill="#C8C4C2"/>
<path d="M86.091 48.7878C86.7605 48.7878 87.3031 49.3305 87.3031 50C87.3031 50.6694 86.7605 51.2121 86.091 51.2121C85.4216 51.2121 84.8789 50.6694 84.8789 50C84.8789 49.3305 85.4216 48.7878 86.091 48.7878Z" fill="#C8C4C2"/>
<path d="M90.9387 48.7878C91.6081 48.7878 92.1508 49.3305 92.1508 50C92.1508 50.6694 91.6081 51.2121 90.9387 51.2121C90.2693 51.2121 89.7266 50.6694 89.7266 50C89.7266 49.3305 90.2693 48.7878 90.9387 48.7878Z" fill="#C8C4C2"/>
<path d="M25.4856 51.2117C26.155 51.2117 26.6977 51.7544 26.6977 52.4238C26.6977 53.0933 26.155 53.6359 25.4856 53.6359C24.8161 53.6359 24.2734 53.0933 24.2734 52.4238C24.2734 51.7544 24.8161 51.2117 25.4856 51.2117Z" fill="#C8C4C2"/>
<path d="M27.9074 51.2117C28.5769 51.2117 29.1196 51.7544 29.1196 52.4238C29.1196 53.0933 28.5769 53.6359 27.9074 53.6359C27.238 53.6359 26.6953 53.0933 26.6953 52.4238C26.6953 51.7544 27.238 51.2117 27.9074 51.2117Z" fill="#C8C4C2"/>
<path d="M73.9699 51.2117C74.6394 51.2117 75.1821 51.7544 75.1821 52.4238C75.1821 53.0933 74.6394 53.6359 73.9699 53.6359C73.3005 53.6359 72.7578 53.0933 72.7578 52.4238C72.7578 51.7544 73.3005 51.2117 73.9699 51.2117Z" fill="#C8C4C2"/>
<path d="M76.3918 51.2117C77.0613 51.2117 77.6039 51.7544 77.6039 52.4238C77.6039 53.0933 77.0613 53.6359 76.3918 53.6359C75.7224 53.6359 75.1797 53.0933 75.1797 52.4238C75.1797 51.7544 75.7224 51.2117 76.3918 51.2117Z" fill="#C8C4C2"/>
<path d="M83.6652 51.2117C84.3347 51.2117 84.8774 51.7544 84.8774 52.4238C84.8774 53.0933 84.3347 53.6359 83.6652 53.6359C82.9958 53.6359 82.4531 53.0933 82.4531 52.4238C82.4531 51.7544 82.9958 51.2117 83.6652 51.2117Z" fill="#C8C4C2"/>
<path d="M88.5129 51.2117C89.1824 51.2117 89.725 51.7544 89.725 52.4238C89.725 53.0933 89.1824 53.6359 88.5129 53.6359C87.8435 53.6359 87.3008 53.0933 87.3008 52.4238C87.3008 51.7544 87.8435 51.2117 88.5129 51.2117Z" fill="#C8C4C2"/>
<path d="M90.9387 51.2117C91.6081 51.2117 92.1508 51.7544 92.1508 52.4238C92.1508 53.0933 91.6081 53.6359 90.9387 53.6359C90.2693 53.6359 89.7266 53.0933 89.7266 52.4238C89.7266 51.7544 90.2693 51.2117 90.9387 51.2117Z" fill="#C8C4C2"/>
<path d="M23.0598 53.6362C23.7292 53.6362 24.2719 54.1789 24.2719 54.8484C24.2719 55.5178 23.7292 56.0605 23.0598 56.0605C22.3903 56.0605 21.8477 55.5178 21.8477 54.8484C21.8477 54.1789 22.3903 53.6362 23.0598 53.6362Z" fill="#C8C4C2"/>
<path d="M25.4856 53.6365C26.155 53.6365 26.6977 54.1792 26.6977 54.8486C26.6977 55.5181 26.155 56.0607 25.4856 56.0607C24.8161 56.0607 24.2734 55.5181 24.2734 54.8486C24.2734 54.1792 24.8161 53.6365 25.4856 53.6365Z" fill="#C8C4C2"/>
<path d="M37.6067 53.6365C38.2761 53.6365 38.8188 54.1792 38.8188 54.8486C38.8188 55.5181 38.2761 56.0607 37.6067 56.0607C36.9372 56.0607 36.3945 55.5181 36.3945 54.8486C36.3945 54.1792 36.9372 53.6365 37.6067 53.6365Z" fill="#C8C4C2"/>
<path d="M40.0285 53.6362C40.698 53.6362 41.2406 54.1789 41.2406 54.8484C41.2406 55.5178 40.698 56.0605 40.0285 56.0605C39.3591 56.0605 38.8164 55.5178 38.8164 54.8484C38.8164 54.1789 39.3591 53.6362 40.0285 53.6362Z" fill="#C8C4C2"/>
<path d="M42.4543 53.6365C43.1238 53.6365 43.6664 54.1792 43.6664 54.8486C43.6664 55.5181 43.1238 56.0607 42.4543 56.0607C41.7849 56.0607 41.2422 55.5181 41.2422 54.8486C41.2422 54.1792 41.7849 53.6365 42.4543 53.6365Z" fill="#C8C4C2"/>
<path d="M44.8762 53.6362C45.5456 53.6362 46.0883 54.1789 46.0883 54.8484C46.0883 55.5178 45.5456 56.0605 44.8762 56.0605C44.2068 56.0605 43.6641 55.5178 43.6641 54.8484C43.6641 54.1789 44.2068 53.6362 44.8762 53.6362Z" fill="#C8C4C2"/>
<path d="M71.5442 53.6365C72.2136 53.6365 72.7563 54.1792 72.7563 54.8486C72.7563 55.5181 72.2136 56.0607 71.5442 56.0607C70.8747 56.0607 70.332 55.5181 70.332 54.8486C70.332 54.1792 70.8747 53.6365 71.5442 53.6365Z" fill="#C8C4C2"/>
<path d="M76.3918 53.6365C77.0613 53.6365 77.6039 54.1792 77.6039 54.8486C77.6039 55.5181 77.0613 56.0607 76.3918 56.0607C75.7224 56.0607 75.1797 55.5181 75.1797 54.8486C75.1797 54.1792 75.7224 53.6365 76.3918 53.6365Z" fill="#C8C4C2"/>
<path d="M78.8176 53.6362C79.4871 53.6362 80.0297 54.1789 80.0297 54.8484C80.0297 55.5178 79.4871 56.0605 78.8176 56.0605C78.1482 56.0605 77.6055 55.5178 77.6055 54.8484C77.6055 54.1789 78.1482 53.6362 78.8176 53.6362Z" fill="#C8C4C2"/>
<path d="M25.4856 56.0603C26.155 56.0603 26.6977 56.603 26.6977 57.2724C26.6977 57.9419 26.155 58.4845 25.4856 58.4845C24.8161 58.4845 24.2734 57.9419 24.2734 57.2724C24.2734 56.603 24.8161 56.0603 25.4856 56.0603Z" fill="#C8C4C2"/>
<path d="M76.3918 56.0603C77.0613 56.0603 77.6039 56.603 77.6039 57.2724C77.6039 57.9419 77.0613 58.4845 76.3918 58.4845C75.7224 58.4845 75.1797 57.9419 75.1797 57.2724C75.1797 56.603 75.7224 56.0603 76.3918 56.0603Z" fill="#C8C4C2"/>
<path d="M78.8176 56.0605C79.4871 56.0605 80.0297 56.6032 80.0297 57.2727C80.0297 57.9421 79.4871 58.4848 78.8176 58.4848C78.1482 58.4848 77.6055 57.9421 77.6055 57.2727C77.6055 56.6032 78.1482 56.0605 78.8176 56.0605Z" fill="#C8C4C2"/>
<path d="M90.9387 56.0605C91.6081 56.0605 92.1508 56.6032 92.1508 57.2727C92.1508 57.9421 91.6081 58.4848 90.9387 58.4848C90.2693 58.4848 89.7266 57.9421 89.7266 57.2727C89.7266 56.6032 90.2693 56.0605 90.9387 56.0605Z" fill="#C8C4C2"/>
<path d="M23.0598 58.4851C23.7292 58.4851 24.2719 59.0278 24.2719 59.6972C24.2719 60.3667 23.7292 60.9093 23.0598 60.9093C22.3903 60.9093 21.8477 60.3667 21.8477 59.6972C21.8477 59.0278 22.3903 58.4851 23.0598 58.4851Z" fill="#C8C4C2"/>
<path d="M25.4856 58.4851C26.155 58.4851 26.6977 59.0278 26.6977 59.6972C26.6977 60.3667 26.155 60.9093 25.4856 60.9093C24.8161 60.9093 24.2734 60.3667 24.2734 59.6972C24.2734 59.0278 24.8161 58.4851 25.4856 58.4851Z" fill="#C8C4C2"/>
<path d="M27.9074 58.4851C28.5769 58.4851 29.1196 59.0278 29.1196 59.6972C29.1196 60.3667 28.5769 60.9093 27.9074 60.9093C27.238 60.9093 26.6953 60.3667 26.6953 59.6972C26.6953 59.0278 27.238 58.4851 27.9074 58.4851Z" fill="#C8C4C2"/>
<path d="M30.3332 58.4851C31.0027 58.4851 31.5453 59.0278 31.5453 59.6972C31.5453 60.3667 31.0027 60.9093 30.3332 60.9093C29.6638 60.9093 29.1211 60.3667 29.1211 59.6972C29.1211 59.0278 29.6638 58.4851 30.3332 58.4851Z" fill="#C8C4C2"/>
<path d="M37.6067 58.4851C38.2761 58.4851 38.8188 59.0278 38.8188 59.6972C38.8188 60.3667 38.2761 60.9093 37.6067 60.9093C36.9372 60.9093 36.3945 60.3667 36.3945 59.6972C36.3945 59.0278 36.9372 58.4851 37.6067 58.4851Z" fill="#C8C4C2"/>
<path d="M42.4543 58.4851C43.1238 58.4851 43.6664 59.0278 43.6664 59.6972C43.6664 60.3667 43.1238 60.9093 42.4543 60.9093C41.7849 60.9093 41.2422 60.3667 41.2422 59.6972C41.2422 59.0278 41.7849 58.4851 42.4543 58.4851Z" fill="#C8C4C2"/>
<path d="M69.1184 58.4851C69.7878 58.4851 70.3305 59.0278 70.3305 59.6972C70.3305 60.3667 69.7878 60.9093 69.1184 60.9093C68.4489 60.9093 67.9062 60.3667 67.9062 59.6972C67.9062 59.0278 68.4489 58.4851 69.1184 58.4851Z" fill="#C8C4C2"/>
<path d="M78.8176 58.4851C79.4871 58.4851 80.0297 59.0278 80.0297 59.6972C80.0297 60.3667 79.4871 60.9093 78.8176 60.9093C78.1482 60.9093 77.6055 60.3667 77.6055 59.6972C77.6055 59.0278 78.1482 58.4851 78.8176 58.4851Z" fill="#C8C4C2"/>
<path d="M81.2434 58.4851C81.9128 58.4851 82.4555 59.0278 82.4555 59.6972C82.4555 60.3667 81.9128 60.9093 81.2434 60.9093C80.5739 60.9093 80.0312 60.3667 80.0312 59.6972C80.0312 59.0278 80.5739 58.4851 81.2434 58.4851Z" fill="#C8C4C2"/>
<path d="M90.9387 58.4851C91.6081 58.4851 92.1508 59.0278 92.1508 59.6972C92.1508 60.3667 91.6081 60.9093 90.9387 60.9093C90.2693 60.9093 89.7266 60.3667 89.7266 59.6972C89.7266 59.0278 90.2693 58.4851 90.9387 58.4851Z" fill="#C8C4C2"/>
<path d="M32.759 60.9089C33.4285 60.9089 33.9711 61.4516 33.9711 62.1211C33.9711 62.7905 33.4285 63.3332 32.759 63.3332C32.0896 63.3332 31.5469 62.7905 31.5469 62.1211C31.5469 61.4516 32.0896 60.9089 32.759 60.9089Z" fill="#C8C4C2"/>
<path d="M35.1809 60.9089C35.8503 60.9089 36.393 61.4516 36.393 62.1211C36.393 62.7905 35.8503 63.3332 35.1809 63.3332C34.5114 63.3332 33.9688 62.7905 33.9688 62.1211C33.9688 61.4516 34.5114 60.9089 35.1809 60.9089Z" fill="#C8C4C2"/>
<path d="M42.4543 60.9089C43.1238 60.9089 43.6664 61.4516 43.6664 62.1211C43.6664 62.7905 43.1238 63.3332 42.4543 63.3332C41.7849 63.3332 41.2422 62.7905 41.2422 62.1211C41.2422 61.4516 41.7849 60.9089 42.4543 60.9089Z" fill="#C8C4C2"/>
<path d="M44.8762 60.9089C45.5456 60.9089 46.0883 61.4516 46.0883 62.1211C46.0883 62.7905 45.5456 63.3332 44.8762 63.3332C44.2068 63.3332 43.6641 62.7905 43.6641 62.1211C43.6641 61.4516 44.2068 60.9089 44.8762 60.9089Z" fill="#C8C4C2"/>
<path d="M52.1496 60.9089C52.8191 60.9089 53.3617 61.4516 53.3617 62.1211C53.3617 62.7905 52.8191 63.3332 52.1496 63.3332C51.4802 63.3332 50.9375 62.7905 50.9375 62.1211C50.9375 61.4516 51.4802 60.9089 52.1496 60.9089Z" fill="#C8C4C2"/>
<path d="M54.5754 60.9089C55.2449 60.9089 55.7875 61.4516 55.7875 62.1211C55.7875 62.7905 55.2449 63.3332 54.5754 63.3332C53.906 63.3332 53.3633 62.7905 53.3633 62.1211C53.3633 61.4516 53.906 60.9089 54.5754 60.9089Z" fill="#C8C4C2"/>
<path d="M59.4231 60.9089C60.0925 60.9089 60.6352 61.4516 60.6352 62.1211C60.6352 62.7905 60.0925 63.3332 59.4231 63.3332C58.7536 63.3332 58.2109 62.7905 58.2109 62.1211C58.2109 61.4516 58.7536 60.9089 59.4231 60.9089Z" fill="#C8C4C2"/>
<path d="M69.1223 60.9089C69.7917 60.9089 70.3344 61.4516 70.3344 62.1211C70.3344 62.7905 69.7917 63.3332 69.1223 63.3332C68.4528 63.3332 67.9102 62.7905 67.9102 62.1211C67.9102 61.4516 68.4528 60.9089 69.1223 60.9089Z" fill="#C8C4C2"/>
<path d="M71.5442 60.9089C72.2136 60.9089 72.7563 61.4516 72.7563 62.1211C72.7563 62.7905 72.2136 63.3332 71.5442 63.3332C70.8747 63.3332 70.332 62.7905 70.332 62.1211C70.332 61.4516 70.8747 60.9089 71.5442 60.9089Z" fill="#C8C4C2"/>
<path d="M73.9699 60.9089C74.6394 60.9089 75.1821 61.4516 75.1821 62.1211C75.1821 62.7905 74.6394 63.3332 73.9699 63.3332C73.3005 63.3332 72.7578 62.7905 72.7578 62.1211C72.7578 61.4516 73.3005 60.9089 73.9699 60.9089Z" fill="#C8C4C2"/>
<path d="M76.3918 60.9089C77.0613 60.9089 77.6039 61.4516 77.6039 62.1211C77.6039 62.7905 77.0613 63.3332 76.3918 63.3332C75.7224 63.3332 75.1797 62.7905 75.1797 62.1211C75.1797 61.4516 75.7224 60.9089 76.3918 60.9089Z" fill="#C8C4C2"/>
<path d="M78.8176 60.9089C79.4871 60.9089 80.0297 61.4516 80.0297 62.1211C80.0297 62.7905 79.4871 63.3332 78.8176 63.3332C78.1482 63.3332 77.6055 62.7905 77.6055 62.1211C77.6055 61.4516 78.1482 60.9089 78.8176 60.9089Z" fill="#C8C4C2"/>
<path d="M88.5129 60.9089C89.1824 60.9089 89.725 61.4516 89.725 62.1211C89.725 62.7905 89.1824 63.3332 88.5129 63.3332C87.8435 63.3332 87.3008 62.7905 87.3008 62.1211C87.3008 61.4516 87.8435 60.9089 88.5129 60.9089Z" fill="#C8C4C2"/>
<path d="M23.0598 63.3328C23.7292 63.3328 24.2719 63.8755 24.2719 64.5449C24.2719 65.2143 23.7292 65.757 23.0598 65.757C22.3903 65.757 21.8477 65.2143 21.8477 64.5449C21.8477 63.8755 22.3903 63.3328 23.0598 63.3328Z" fill="#C8C4C2"/>
<path d="M25.4856 63.3328C26.155 63.3328 26.6977 63.8755 26.6977 64.5449C26.6977 65.2143 26.155 65.757 25.4856 65.757C24.8161 65.757 24.2734 65.2143 24.2734 64.5449C24.2734 63.8755 24.8161 63.3328 25.4856 63.3328Z" fill="#C8C4C2"/>
<path d="M27.9074 63.3328C28.5769 63.3328 29.1196 63.8755 29.1196 64.5449C29.1196 65.2143 28.5769 65.757 27.9074 65.757C27.238 65.757 26.6953 65.2143 26.6953 64.5449C26.6953 63.8755 27.238 63.3328 27.9074 63.3328Z" fill="#C8C4C2"/>
<path d="M32.759 63.3328C33.4285 63.3328 33.9711 63.8755 33.9711 64.5449C33.9711 65.2143 33.4285 65.757 32.759 65.757C32.0896 65.757 31.5469 65.2143 31.5469 64.5449C31.5469 63.8755 32.0896 63.3328 32.759 63.3328Z" fill="#C8C4C2"/>
<path d="M37.6067 63.3328C38.2761 63.3328 38.8188 63.8755 38.8188 64.5449C38.8188 65.2143 38.2761 65.757 37.6067 65.757C36.9372 65.757 36.3945 65.2143 36.3945 64.5449C36.3945 63.8755 36.9372 63.3328 37.6067 63.3328Z" fill="#C8C4C2"/>
<path d="M40.0285 63.3328C40.698 63.3328 41.2406 63.8755 41.2406 64.5449C41.2406 65.2143 40.698 65.757 40.0285 65.757C39.3591 65.757 38.8164 65.2143 38.8164 64.5449C38.8164 63.8755 39.3591 63.3328 40.0285 63.3328Z" fill="#C8C4C2"/>
<path d="M42.4543 63.3328C43.1238 63.3328 43.6664 63.8755 43.6664 64.5449C43.6664 65.2143 43.1238 65.757 42.4543 65.757C41.7849 65.757 41.2422 65.2143 41.2422 64.5449C41.2422 63.8755 41.7849 63.3328 42.4543 63.3328Z" fill="#C8C4C2"/>
<path d="M59.4231 63.3328C60.0925 63.3328 60.6352 63.8755 60.6352 64.5449C60.6352 65.2143 60.0925 65.757 59.4231 65.757C58.7536 65.757 58.2109 65.2143 58.2109 64.5449C58.2109 63.8755 58.7536 63.3328 59.4231 63.3328Z" fill="#C8C4C2"/>
<path d="M61.8488 63.3328C62.5183 63.3328 63.061 63.8755 63.061 64.5449C63.061 65.2143 62.5183 65.757 61.8488 65.757C61.1794 65.757 60.6367 65.2143 60.6367 64.5449C60.6367 63.8755 61.1794 63.3328 61.8488 63.3328Z" fill="#C8C4C2"/>
<path d="M66.6965 63.3328C67.366 63.3328 67.9086 63.8755 67.9086 64.5449C67.9086 65.2143 67.366 65.757 66.6965 65.757C66.0271 65.757 65.4844 65.2143 65.4844 64.5449C65.4844 63.8755 66.0271 63.3328 66.6965 63.3328Z" fill="#C8C4C2"/>
<path d="M71.5442 63.3328C72.2136 63.3328 72.7563 63.8755 72.7563 64.5449C72.7563 65.2143 72.2136 65.757 71.5442 65.757C70.8747 65.757 70.332 65.2143 70.332 64.5449C70.332 63.8755 70.8747 63.3328 71.5442 63.3328Z" fill="#C8C4C2"/>
<path d="M73.9699 63.3328C74.6394 63.3328 75.1821 63.8755 75.1821 64.5449C75.1821 65.2143 74.6394 65.757 73.9699 65.757C73.3005 65.757 72.7578 65.2143 72.7578 64.5449C72.7578 63.8755 73.3005 63.3328 73.9699 63.3328Z" fill="#C8C4C2"/>
<path d="M76.3918 63.3328C77.0613 63.3328 77.6039 63.8755 77.6039 64.5449C77.6039 65.2143 77.0613 65.757 76.3918 65.757C75.7224 65.757 75.1797 65.2143 75.1797 64.5449C75.1797 63.8755 75.7224 63.3328 76.3918 63.3328Z" fill="#C8C4C2"/>
<path d="M78.8176 63.3328C79.4871 63.3328 80.0297 63.8755 80.0297 64.5449C80.0297 65.2143 79.4871 65.757 78.8176 65.757C78.1482 65.757 77.6055 65.2143 77.6055 64.5449C77.6055 63.8755 78.1482 63.3328 78.8176 63.3328Z" fill="#C8C4C2"/>
<path d="M81.2434 63.3328C81.9128 63.3328 82.4555 63.8755 82.4555 64.5449C82.4555 65.2143 81.9128 65.757 81.2434 65.757C80.5739 65.757 80.0312 65.2143 80.0312 64.5449C80.0312 63.8755 80.5739 63.3328 81.2434 63.3328Z" fill="#C8C4C2"/>
<path d="M83.6652 63.3328C84.3347 63.3328 84.8774 63.8755 84.8774 64.5449C84.8774 65.2143 84.3347 65.757 83.6652 65.757C82.9958 65.757 82.4531 65.2143 82.4531 64.5449C82.4531 63.8755 82.9958 63.3328 83.6652 63.3328Z" fill="#C8C4C2"/>
<path d="M90.9387 63.3328C91.6081 63.3328 92.1508 63.8755 92.1508 64.5449C92.1508 65.2143 91.6081 65.757 90.9387 65.757C90.2693 65.757 89.7266 65.2143 89.7266 64.5449C89.7266 63.8755 90.2693 63.3328 90.9387 63.3328Z" fill="#C8C4C2"/>
<path d="M42.4543 65.7576C43.1238 65.7576 43.6664 66.3003 43.6664 66.9697C43.6664 67.6392 43.1238 68.1818 42.4543 68.1818C41.7849 68.1818 41.2422 67.6392 41.2422 66.9697C41.2422 66.3003 41.7849 65.7576 42.4543 65.7576Z" fill="#C8C4C2"/>
<path d="M44.8762 65.7576C45.5456 65.7576 46.0883 66.3003 46.0883 66.9697C46.0883 67.6392 45.5456 68.1818 44.8762 68.1818C44.2068 68.1818 43.6641 67.6392 43.6641 66.9697C43.6641 66.3003 44.2068 65.7576 44.8762 65.7576Z" fill="#C8C4C2"/>
<path d="M49.7277 65.7576C50.3972 65.7576 50.9399 66.3003 50.9399 66.9697C50.9399 67.6392 50.3972 68.1818 49.7277 68.1818C49.0583 68.1818 48.5156 67.6392 48.5156 66.9697C48.5156 66.3003 49.0583 65.7576 49.7277 65.7576Z" fill="#C8C4C2"/>
<path d="M54.5754 65.7576C55.2449 65.7576 55.7875 66.3003 55.7875 66.9697C55.7875 67.6392 55.2449 68.1818 54.5754 68.1818C53.906 68.1818 53.3633 67.6392 53.3633 66.9697C53.3633 66.3003 53.906 65.7576 54.5754 65.7576Z" fill="#C8C4C2"/>
<path d="M59.4231 65.7576C60.0925 65.7576 60.6352 66.3003 60.6352 66.9697C60.6352 67.6392 60.0925 68.1818 59.4231 68.1818C58.7536 68.1818 58.2109 67.6392 58.2109 66.9697C58.2109 66.3003 58.7536 65.7576 59.4231 65.7576Z" fill="#C8C4C2"/>
<path d="M61.8488 65.7576C62.5183 65.7576 63.061 66.3003 63.061 66.9697C63.061 67.6392 62.5183 68.1818 61.8488 68.1818C61.1794 68.1818 60.6367 67.6392 60.6367 66.9697C60.6367 66.3003 61.1794 65.7576 61.8488 65.7576Z" fill="#C8C4C2"/>
<path d="M71.5442 65.7576C72.2136 65.7576 72.7563 66.3003 72.7563 66.9697C72.7563 67.6392 72.2136 68.1818 71.5442 68.1818C70.8747 68.1818 70.332 67.6392 70.332 66.9697C70.332 66.3003 70.8747 65.7576 71.5442 65.7576Z" fill="#C8C4C2"/>
<path d="M81.2434 65.7576C81.9128 65.7576 82.4555 66.3003 82.4555 66.9697C82.4555 67.6392 81.9128 68.1818 81.2434 68.1818C80.5739 68.1818 80.0312 67.6392 80.0312 66.9697C80.0312 66.3003 80.5739 65.7576 81.2434 65.7576Z" fill="#C8C4C2"/>
<path d="M83.6652 65.7576C84.3347 65.7576 84.8774 66.3003 84.8774 66.9697C84.8774 67.6392 84.3347 68.1818 83.6652 68.1818C82.9958 68.1818 82.4531 67.6392 82.4531 66.9697C82.4531 66.3003 82.9958 65.7576 83.6652 65.7576Z" fill="#C8C4C2"/>
<path d="M90.9387 65.7576C91.6081 65.7576 92.1508 66.3003 92.1508 66.9697C92.1508 67.6392 91.6081 68.1818 90.9387 68.1818C90.2693 68.1818 89.7266 67.6392 89.7266 66.9697C89.7266 66.3003 90.2693 65.7576 90.9387 65.7576Z" fill="#C8C4C2"/>
<path d="M42.4543 68.1814C43.1238 68.1814 43.6664 68.7241 43.6664 69.3935C43.6664 70.063 43.1238 70.6056 42.4543 70.6056C41.7849 70.6056 41.2422 70.063 41.2422 69.3935C41.2422 68.7241 41.7849 68.1814 42.4543 68.1814Z" fill="#C8C4C2"/>
<path d="M44.8762 68.1814C45.5456 68.1814 46.0883 68.7241 46.0883 69.3935C46.0883 70.063 45.5456 70.6056 44.8762 70.6056C44.2068 70.6056 43.6641 70.063 43.6641 69.3935C43.6641 68.7241 44.2068 68.1814 44.8762 68.1814Z" fill="#C8C4C2"/>
<path d="M47.302 68.1814C47.9714 68.1814 48.5141 68.7241 48.5141 69.3935C48.5141 70.063 47.9714 70.6056 47.302 70.6056C46.6325 70.6056 46.0898 70.063 46.0898 69.3935C46.0898 68.7241 46.6325 68.1814 47.302 68.1814Z" fill="#C8C4C2"/>
<path d="M49.7277 68.1814C50.3972 68.1814 50.9399 68.7241 50.9399 69.3935C50.9399 70.063 50.3972 70.6056 49.7277 70.6056C49.0583 70.6056 48.5156 70.063 48.5156 69.3935C48.5156 68.7241 49.0583 68.1814 49.7277 68.1814Z" fill="#C8C4C2"/>
<path d="M52.1496 68.1814C52.8191 68.1814 53.3617 68.7241 53.3617 69.3935C53.3617 70.063 52.8191 70.6056 52.1496 70.6056C51.4802 70.6056 50.9375 70.063 50.9375 69.3935C50.9375 68.7241 51.4802 68.1814 52.1496 68.1814Z" fill="#C8C4C2"/>
<path d="M54.5754 68.1814C55.2449 68.1814 55.7875 68.7241 55.7875 69.3935C55.7875 70.063 55.2449 70.6056 54.5754 70.6056C53.906 70.6056 53.3633 70.063 53.3633 69.3935C53.3633 68.7241 53.906 68.1814 54.5754 68.1814Z" fill="#C8C4C2"/>
<path d="M64.2707 68.1814C64.9402 68.1814 65.4828 68.7241 65.4828 69.3935C65.4828 70.063 64.9402 70.6056 64.2707 70.6056C63.6013 70.6056 63.0586 70.063 63.0586 69.3935C63.0586 68.7241 63.6013 68.1814 64.2707 68.1814Z" fill="#C8C4C2"/>
<path d="M66.6965 68.1814C67.366 68.1814 67.9086 68.7241 67.9086 69.3935C67.9086 70.063 67.366 70.6056 66.6965 70.6056C66.0271 70.6056 65.4844 70.063 65.4844 69.3935C65.4844 68.7241 66.0271 68.1814 66.6965 68.1814Z" fill="#C8C4C2"/>
<path d="M71.5442 68.1814C72.2136 68.1814 72.7563 68.7241 72.7563 69.3935C72.7563 70.063 72.2136 70.6056 71.5442 70.6056C70.8747 70.6056 70.332 70.063 70.332 69.3935C70.332 68.7241 70.8747 68.1814 71.5442 68.1814Z" fill="#C8C4C2"/>
<path d="M76.3918 68.1814C77.0613 68.1814 77.6039 68.7241 77.6039 69.3935C77.6039 70.063 77.0613 70.6056 76.3918 70.6056C75.7224 70.6056 75.1797 70.063 75.1797 69.3935C75.1797 68.7241 75.7224 68.1814 76.3918 68.1814Z" fill="#C8C4C2"/>
<path d="M81.2434 68.1814C81.9128 68.1814 82.4555 68.7241 82.4555 69.3935C82.4555 70.063 81.9128 70.6056 81.2434 70.6056C80.5739 70.6056 80.0312 70.063 80.0312 69.3935C80.0312 68.7241 80.5739 68.1814 81.2434 68.1814Z" fill="#C8C4C2"/>
<path d="M83.6652 68.1814C84.3347 68.1814 84.8774 68.7241 84.8774 69.3935C84.8774 70.063 84.3347 70.6056 83.6652 70.6056C82.9958 70.6056 82.4531 70.063 82.4531 69.3935C82.4531 68.7241 82.9958 68.1814 83.6652 68.1814Z" fill="#C8C4C2"/>
<path d="M86.091 68.1814C86.7605 68.1814 87.3031 68.7241 87.3031 69.3935C87.3031 70.063 86.7605 70.6056 86.091 70.6056C85.4216 70.6056 84.8789 70.063 84.8789 69.3935C84.8789 68.7241 85.4216 68.1814 86.091 68.1814Z" fill="#C8C4C2"/>
<path d="M90.9387 68.1814C91.6081 68.1814 92.1508 68.7241 92.1508 69.3935C92.1508 70.063 91.6081 70.6056 90.9387 70.6056C90.2693 70.6056 89.7266 70.063 89.7266 69.3935C89.7266 68.7241 90.2693 68.1814 90.9387 68.1814Z" fill="#C8C4C2"/>
<path d="M42.4543 70.6062C43.1238 70.6062 43.6664 71.1489 43.6664 71.8183C43.6664 72.4878 43.1238 73.0304 42.4543 73.0304C41.7849 73.0304 41.2422 72.4878 41.2422 71.8183C41.2422 71.1489 41.7849 70.6062 42.4543 70.6062Z" fill="#C8C4C2"/>
<path d="M44.8762 70.606C45.5456 70.606 46.0883 71.1486 46.0883 71.8181C46.0883 72.4875 45.5456 73.0302 44.8762 73.0302C44.2068 73.0302 43.6641 72.4875 43.6641 71.8181C43.6641 71.1486 44.2068 70.606 44.8762 70.606Z" fill="#C8C4C2"/>
<path d="M59.4231 70.6062C60.0925 70.6062 60.6352 71.1489 60.6352 71.8183C60.6352 72.4878 60.0925 73.0304 59.4231 73.0304C58.7536 73.0304 58.2109 72.4878 58.2109 71.8183C58.2109 71.1489 58.7536 70.6062 59.4231 70.6062Z" fill="#C8C4C2"/>
<path d="M61.8488 70.606C62.5183 70.606 63.061 71.1486 63.061 71.8181C63.061 72.4875 62.5183 73.0302 61.8488 73.0302C61.1794 73.0302 60.6367 72.4875 60.6367 71.8181C60.6367 71.1486 61.1794 70.606 61.8488 70.606Z" fill="#C8C4C2"/>
<path d="M64.2707 70.606C64.9402 70.606 65.4828 71.1486 65.4828 71.8181C65.4828 72.4875 64.9402 73.0302 64.2707 73.0302C63.6013 73.0302 63.0586 72.4875 63.0586 71.8181C63.0586 71.1486 63.6013 70.606 64.2707 70.606Z" fill="#C8C4C2"/>
<path d="M69.1223 70.606C69.7917 70.606 70.3344 71.1486 70.3344 71.8181C70.3344 72.4875 69.7917 73.0302 69.1223 73.0302C68.4528 73.0302 67.9102 72.4875 67.9102 71.8181C67.9102 71.1486 68.4528 70.606 69.1223 70.606Z" fill="#C8C4C2"/>
<path d="M71.5442 70.6062C72.2136 70.6062 72.7563 71.1489 72.7563 71.8183C72.7563 72.4878 72.2136 73.0304 71.5442 73.0304C70.8747 73.0304 70.332 72.4878 70.332 71.8183C70.332 71.1489 70.8747 70.6062 71.5442 70.6062Z" fill="#C8C4C2"/>
<path d="M81.2434 70.606C81.9128 70.606 82.4555 71.1486 82.4555 71.8181C82.4555 72.4875 81.9128 73.0302 81.2434 73.0302C80.5739 73.0302 80.0312 72.4875 80.0312 71.8181C80.0312 71.1486 80.5739 70.606 81.2434 70.606Z" fill="#C8C4C2"/>
<path d="M83.6652 70.6062C84.3347 70.6062 84.8774 71.1489 84.8774 71.8183C84.8774 72.4878 84.3347 73.0304 83.6652 73.0304C82.9958 73.0304 82.4531 72.4878 82.4531 71.8183C82.4531 71.1489 82.9958 70.6062 83.6652 70.6062Z" fill="#C8C4C2"/>
<path d="M90.9387 70.606C91.6081 70.606 92.1508 71.1486 92.1508 71.8181C92.1508 72.4875 91.6081 73.0302 90.9387 73.0302C90.2693 73.0302 89.7266 72.4875 89.7266 71.8181C89.7266 71.1486 90.2693 70.606 90.9387 70.606Z" fill="#C8C4C2"/>
<path d="M49.7277 73.03C50.3972 73.03 50.9399 73.5727 50.9399 74.2422C50.9399 74.9116 50.3972 75.4543 49.7277 75.4543C49.0583 75.4543 48.5156 74.9116 48.5156 74.2422C48.5156 73.5727 49.0583 73.03 49.7277 73.03Z" fill="#C8C4C2"/>
<path d="M64.2707 73.0303C64.9402 73.0303 65.4828 73.573 65.4828 74.2424C65.4828 74.9119 64.9402 75.4545 64.2707 75.4545C63.6013 75.4545 63.0586 74.9119 63.0586 74.2424C63.0586 73.573 63.6013 73.0303 64.2707 73.0303Z" fill="#C8C4C2"/>
<path d="M66.6965 73.03C67.366 73.03 67.9086 73.5727 67.9086 74.2422C67.9086 74.9116 67.366 75.4543 66.6965 75.4543C66.0271 75.4543 65.4844 74.9116 65.4844 74.2422C65.4844 73.5727 66.0271 73.03 66.6965 73.03Z" fill="#C8C4C2"/>
<path d="M69.1223 73.0303C69.7917 73.0303 70.3344 73.573 70.3344 74.2424C70.3344 74.9119 69.7917 75.4545 69.1223 75.4545C68.4528 75.4545 67.9102 74.9119 67.9102 74.2424C67.9102 73.573 68.4528 73.0303 69.1223 73.0303Z" fill="#C8C4C2"/>
<path d="M71.5442 73.03C72.2136 73.03 72.7563 73.5727 72.7563 74.2422C72.7563 74.9116 72.2136 75.4543 71.5442 75.4543C70.8747 75.4543 70.332 74.9116 70.332 74.2422C70.332 73.5727 70.8747 73.03 71.5442 73.03Z" fill="#C8C4C2"/>
<path d="M73.9699 73.0303C74.6394 73.0303 75.1821 73.573 75.1821 74.2424C75.1821 74.9119 74.6394 75.4545 73.9699 75.4545C73.3005 75.4545 72.7578 74.9119 72.7578 74.2424C72.7578 73.573 73.3005 73.0303 73.9699 73.0303Z" fill="#C8C4C2"/>
<path d="M76.3918 73.03C77.0613 73.03 77.6039 73.5727 77.6039 74.2422C77.6039 74.9116 77.0613 75.4543 76.3918 75.4543C75.7224 75.4543 75.1797 74.9116 75.1797 74.2422C75.1797 73.5727 75.7224 73.03 76.3918 73.03Z" fill="#C8C4C2"/>
<path d="M78.8176 73.0303C79.4871 73.0303 80.0297 73.573 80.0297 74.2424C80.0297 74.9119 79.4871 75.4545 78.8176 75.4545C78.1482 75.4545 77.6055 74.9119 77.6055 74.2424C77.6055 73.573 78.1482 73.0303 78.8176 73.0303Z" fill="#C8C4C2"/>
<path d="M81.2434 73.0303C81.9128 73.0303 82.4555 73.573 82.4555 74.2424C82.4555 74.9119 81.9128 75.4545 81.2434 75.4545C80.5739 75.4545 80.0312 74.9119 80.0312 74.2424C80.0312 73.573 80.5739 73.0303 81.2434 73.0303Z" fill="#C8C4C2"/>
<path d="M88.5129 73.03C89.1824 73.03 89.725 73.5727 89.725 74.2422C89.725 74.9116 89.1824 75.4543 88.5129 75.4543C87.8435 75.4543 87.3008 74.9116 87.3008 74.2422C87.3008 73.5727 87.8435 73.03 88.5129 73.03Z" fill="#C8C4C2"/>
<path d="M90.9387 73.0303C91.6081 73.0303 92.1508 73.573 92.1508 74.2424C92.1508 74.9119 91.6081 75.4545 90.9387 75.4545C90.2693 75.4545 89.7266 74.9119 89.7266 74.2424C89.7266 73.573 90.2693 73.0303 90.9387 73.0303Z" fill="#C8C4C2"/>
<path d="M52.1496 75.4548C52.8191 75.4548 53.3617 75.9975 53.3617 76.667C53.3617 77.3364 52.8191 77.8791 52.1496 77.8791C51.4802 77.8791 50.9375 77.3364 50.9375 76.667C50.9375 75.9975 51.4802 75.4548 52.1496 75.4548Z" fill="#C8C4C2"/>
<path d="M54.5754 75.4548C55.2449 75.4548 55.7875 75.9975 55.7875 76.667C55.7875 77.3364 55.2449 77.8791 54.5754 77.8791C53.906 77.8791 53.3633 77.3364 53.3633 76.667C53.3633 75.9975 53.906 75.4548 54.5754 75.4548Z" fill="#C8C4C2"/>
<path d="M57.0012 75.4548C57.6706 75.4548 58.2133 75.9975 58.2133 76.667C58.2133 77.3364 57.6706 77.8791 57.0012 77.8791C56.3318 77.8791 55.7891 77.3364 55.7891 76.667C55.7891 75.9975 56.3318 75.4548 57.0012 75.4548Z" fill="#C8C4C2"/>
<path d="M61.8488 75.4548C62.5183 75.4548 63.061 75.9975 63.061 76.667C63.061 77.3364 62.5183 77.8791 61.8488 77.8791C61.1794 77.8791 60.6367 77.3364 60.6367 76.667C60.6367 75.9975 61.1794 75.4548 61.8488 75.4548Z" fill="#C8C4C2"/>
<path d="M64.2707 75.4548C64.9402 75.4548 65.4828 75.9975 65.4828 76.667C65.4828 77.3364 64.9402 77.8791 64.2707 77.8791C63.6013 77.8791 63.0586 77.3364 63.0586 76.667C63.0586 75.9975 63.6013 75.4548 64.2707 75.4548Z" fill="#C8C4C2"/>
<path d="M69.1184 75.4548C69.7878 75.4548 70.3305 75.9975 70.3305 76.667C70.3305 77.3364 69.7878 77.8791 69.1184 77.8791C68.4489 77.8791 67.9062 77.3364 67.9062 76.667C67.9062 75.9975 68.4489 75.4548 69.1184 75.4548Z" fill="#C8C4C2"/>
<path d="M71.5442 75.4548C72.2136 75.4548 72.7563 75.9975 72.7563 76.667C72.7563 77.3364 72.2136 77.8791 71.5442 77.8791C70.8747 77.8791 70.332 77.3364 70.332 76.667C70.332 75.9975 70.8747 75.4548 71.5442 75.4548Z" fill="#C8C4C2"/>
<path d="M78.8176 75.4548C79.4871 75.4548 80.0297 75.9975 80.0297 76.667C80.0297 77.3364 79.4871 77.8791 78.8176 77.8791C78.1482 77.8791 77.6055 77.3364 77.6055 76.667C77.6055 75.9975 78.1482 75.4548 78.8176 75.4548Z" fill="#C8C4C2"/>
<path d="M81.2434 75.4548C81.9128 75.4548 82.4555 75.9975 82.4555 76.667C82.4555 77.3364 81.9128 77.8791 81.2434 77.8791C80.5739 77.8791 80.0312 77.3364 80.0312 76.667C80.0312 75.9975 80.5739 75.4548 81.2434 75.4548Z" fill="#C8C4C2"/>
<path d="M83.6652 75.4548C84.3347 75.4548 84.8774 75.9975 84.8774 76.667C84.8774 77.3364 84.3347 77.8791 83.6652 77.8791C82.9958 77.8791 82.4531 77.3364 82.4531 76.667C82.4531 75.9975 82.9958 75.4548 83.6652 75.4548Z" fill="#C8C4C2"/>
<path d="M86.091 75.4548C86.7605 75.4548 87.3031 75.9975 87.3031 76.667C87.3031 77.3364 86.7605 77.8791 86.091 77.8791C85.4216 77.8791 84.8789 77.3364 84.8789 76.667C84.8789 75.9975 85.4216 75.4548 86.091 75.4548Z" fill="#C8C4C2"/>
<path d="M88.5129 75.4548C89.1824 75.4548 89.725 75.9975 89.725 76.667C89.725 77.3364 89.1824 77.8791 88.5129 77.8791C87.8435 77.8791 87.3008 77.3364 87.3008 76.667C87.3008 75.9975 87.8435 75.4548 88.5129 75.4548Z" fill="#C8C4C2"/>
<path d="M42.4543 77.8787C43.1238 77.8787 43.6664 78.4214 43.6664 79.0908C43.6664 79.7602 43.1238 80.3029 42.4543 80.3029C41.7849 80.3029 41.2422 79.7602 41.2422 79.0908C41.2422 78.4214 41.7849 77.8787 42.4543 77.8787Z" fill="#C8C4C2"/>
<path d="M49.7277 77.8787C50.3972 77.8787 50.9399 78.4214 50.9399 79.0908C50.9399 79.7602 50.3972 80.3029 49.7277 80.3029C49.0583 80.3029 48.5156 79.7602 48.5156 79.0908C48.5156 78.4214 49.0583 77.8787 49.7277 77.8787Z" fill="#C8C4C2"/>
<path d="M52.1496 77.8787C52.8191 77.8787 53.3617 78.4214 53.3617 79.0908C53.3617 79.7602 52.8191 80.3029 52.1496 80.3029C51.4802 80.3029 50.9375 79.7602 50.9375 79.0908C50.9375 78.4214 51.4802 77.8787 52.1496 77.8787Z" fill="#C8C4C2"/>
<path d="M64.2707 77.8787C64.9402 77.8787 65.4828 78.4214 65.4828 79.0908C65.4828 79.7602 64.9402 80.3029 64.2707 80.3029C63.6013 80.3029 63.0586 79.7602 63.0586 79.0908C63.0586 78.4214 63.6013 77.8787 64.2707 77.8787Z" fill="#C8C4C2"/>
<path d="M73.9699 77.8787C74.6394 77.8787 75.1821 78.4214 75.1821 79.0908C75.1821 79.7602 74.6394 80.3029 73.9699 80.3029C73.3005 80.3029 72.7578 79.7602 72.7578 79.0908C72.7578 78.4214 73.3005 77.8787 73.9699 77.8787Z" fill="#C8C4C2"/>
<path d="M81.2434 77.8787C81.9128 77.8787 82.4555 78.4214 82.4555 79.0908C82.4555 79.7602 81.9128 80.3029 81.2434 80.3029C80.5739 80.3029 80.0312 79.7602 80.0312 79.0908C80.0312 78.4214 80.5739 77.8787 81.2434 77.8787Z" fill="#C8C4C2"/>
<path d="M83.6652 77.8787C84.3347 77.8787 84.8774 78.4214 84.8774 79.0908C84.8774 79.7602 84.3347 80.3029 83.6652 80.3029C82.9958 80.3029 82.4531 79.7602 82.4531 79.0908C82.4531 78.4214 82.9958 77.8787 83.6652 77.8787Z" fill="#C8C4C2"/>
<path d="M88.5129 77.8787C89.1824 77.8787 89.725 78.4214 89.725 79.0908C89.725 79.7602 89.1824 80.3029 88.5129 80.3029C87.8435 80.3029 87.3008 79.7602 87.3008 79.0908C87.3008 78.4214 87.8435 77.8787 88.5129 77.8787Z" fill="#C8C4C2"/>
<path d="M90.9387 77.8787C91.6081 77.8787 92.1508 78.4214 92.1508 79.0908C92.1508 79.7602 91.6081 80.3029 90.9387 80.3029C90.2693 80.3029 89.7266 79.7602 89.7266 79.0908C89.7266 78.4214 90.2693 77.8787 90.9387 77.8787Z" fill="#C8C4C2"/>
<path d="M47.302 80.3025C47.9714 80.3025 48.5141 80.8452 48.5141 81.5146C48.5141 82.1841 47.9714 82.7267 47.302 82.7267C46.6325 82.7267 46.0898 82.1841 46.0898 81.5146C46.0898 80.8452 46.6325 80.3025 47.302 80.3025Z" fill="#C8C4C2"/>
<path d="M49.7277 80.3025C50.3972 80.3025 50.9399 80.8452 50.9399 81.5146C50.9399 82.1841 50.3972 82.7267 49.7277 82.7267C49.0583 82.7267 48.5156 82.1841 48.5156 81.5146C48.5156 80.8452 49.0583 80.3025 49.7277 80.3025Z" fill="#C8C4C2"/>
<path d="M54.5754 80.3025C55.2449 80.3025 55.7875 80.8452 55.7875 81.5146C55.7875 82.1841 55.2449 82.7267 54.5754 82.7267C53.906 82.7267 53.3633 82.1841 53.3633 81.5146C53.3633 80.8452 53.906 80.3025 54.5754 80.3025Z" fill="#C8C4C2"/>
<path d="M57.0012 80.3025C57.6706 80.3025 58.2133 80.8452 58.2133 81.5146C58.2133 82.1841 57.6706 82.7267 57.0012 82.7267C56.3318 82.7267 55.7891 82.1841 55.7891 81.5146C55.7891 80.8452 56.3318 80.3025 57.0012 80.3025Z" fill="#C8C4C2"/>
<path d="M59.4231 80.3025C60.0925 80.3025 60.6352 80.8452 60.6352 81.5146C60.6352 82.1841 60.0925 82.7267 59.4231 82.7267C58.7536 82.7267 58.2109 82.1841 58.2109 81.5146C58.2109 80.8452 58.7536 80.3025 59.4231 80.3025Z" fill="#C8C4C2"/>
<path d="M61.8488 80.3025C62.5183 80.3025 63.061 80.8452 63.061 81.5146C63.061 82.1841 62.5183 82.7267 61.8488 82.7267C61.1794 82.7267 60.6367 82.1841 60.6367 81.5146C60.6367 80.8452 61.1794 80.3025 61.8488 80.3025Z" fill="#C8C4C2"/>
<path d="M64.2707 80.3025C64.9402 80.3025 65.4828 80.8452 65.4828 81.5146C65.4828 82.1841 64.9402 82.7267 64.2707 82.7267C63.6013 82.7267 63.0586 82.1841 63.0586 81.5146C63.0586 80.8452 63.6013 80.3025 64.2707 80.3025Z" fill="#C8C4C2"/>
<path d="M66.6965 80.3025C67.366 80.3025 67.9086 80.8452 67.9086 81.5146C67.9086 82.1841 67.366 82.7267 66.6965 82.7267C66.0271 82.7267 65.4844 82.1841 65.4844 81.5146C65.4844 80.8452 66.0271 80.3025 66.6965 80.3025Z" fill="#C8C4C2"/>
<path d="M71.5442 80.3025C72.2136 80.3025 72.7563 80.8452 72.7563 81.5146C72.7563 82.1841 72.2136 82.7267 71.5442 82.7267C70.8747 82.7267 70.332 82.1841 70.332 81.5146C70.332 80.8452 70.8747 80.3025 71.5442 80.3025Z" fill="#C8C4C2"/>
<path d="M76.3918 80.3025C77.0613 80.3025 77.6039 80.8452 77.6039 81.5146C77.6039 82.1841 77.0613 82.7267 76.3918 82.7267C75.7224 82.7267 75.1797 82.1841 75.1797 81.5146C75.1797 80.8452 75.7224 80.3025 76.3918 80.3025Z" fill="#C8C4C2"/>
<path d="M83.6652 80.3025C84.3347 80.3025 84.8774 80.8452 84.8774 81.5146C84.8774 82.1841 84.3347 82.7267 83.6652 82.7267C82.9958 82.7267 82.4531 82.1841 82.4531 81.5146C82.4531 80.8452 82.9958 80.3025 83.6652 80.3025Z" fill="#C8C4C2"/>
<path d="M47.302 82.7271C47.9714 82.7271 48.5141 83.2697 48.5141 83.9392C48.5141 84.6086 47.9714 85.1513 47.302 85.1513C46.6325 85.1513 46.0898 84.6086 46.0898 83.9392C46.0898 83.2697 46.6325 82.7271 47.302 82.7271Z" fill="#C8C4C2"/>
<path d="M52.1496 82.7273C52.8191 82.7273 53.3617 83.27 53.3617 83.9394C53.3617 84.6089 52.8191 85.1515 52.1496 85.1515C51.4802 85.1515 50.9375 84.6089 50.9375 83.9394C50.9375 83.27 51.4802 82.7273 52.1496 82.7273Z" fill="#C8C4C2"/>
<path d="M56.9973 82.7273C57.6667 82.7273 58.2094 83.27 58.2094 83.9394C58.2094 84.6089 57.6667 85.1515 56.9973 85.1515C56.3278 85.1515 55.7852 84.6089 55.7852 83.9394C55.7852 83.27 56.3278 82.7273 56.9973 82.7273Z" fill="#C8C4C2"/>
<path d="M59.4231 82.7273C60.0925 82.7273 60.6352 83.27 60.6352 83.9394C60.6352 84.6089 60.0925 85.1515 59.4231 85.1515C58.7536 85.1515 58.2109 84.6089 58.2109 83.9394C58.2109 83.27 58.7536 82.7273 59.4231 82.7273Z" fill="#C8C4C2"/>
<path d="M61.8488 82.7273C62.5183 82.7273 63.061 83.27 63.061 83.9394C63.061 84.6089 62.5183 85.1515 61.8488 85.1515C61.1794 85.1515 60.6367 84.6089 60.6367 83.9394C60.6367 83.27 61.1794 82.7273 61.8488 82.7273Z" fill="#C8C4C2"/>
<path d="M66.6965 82.7273C67.366 82.7273 67.9086 83.27 67.9086 83.9394C67.9086 84.6089 67.366 85.1515 66.6965 85.1515C66.0271 85.1515 65.4844 84.6089 65.4844 83.9394C65.4844 83.27 66.0271 82.7273 66.6965 82.7273Z" fill="#C8C4C2"/>
<path d="M69.1223 82.7273C69.7917 82.7273 70.3344 83.27 70.3344 83.9394C70.3344 84.6089 69.7917 85.1515 69.1223 85.1515C68.4528 85.1515 67.9102 84.6089 67.9102 83.9394C67.9102 83.27 68.4528 82.7273 69.1223 82.7273Z" fill="#C8C4C2"/>
<path d="M71.5442 82.7273C72.2136 82.7273 72.7563 83.27 72.7563 83.9394C72.7563 84.6089 72.2136 85.1515 71.5442 85.1515C70.8747 85.1515 70.332 84.6089 70.332 83.9394C70.332 83.27 70.8747 82.7273 71.5442 82.7273Z" fill="#C8C4C2"/>
<path d="M73.9699 82.7273C74.6394 82.7273 75.1821 83.27 75.1821 83.9394C75.1821 84.6089 74.6394 85.1515 73.9699 85.1515C73.3005 85.1515 72.7578 84.6089 72.7578 83.9394C72.7578 83.27 73.3005 82.7273 73.9699 82.7273Z" fill="#C8C4C2"/>
<path d="M76.3918 82.7273C77.0613 82.7273 77.6039 83.27 77.6039 83.9394C77.6039 84.6089 77.0613 85.1515 76.3918 85.1515C75.7224 85.1515 75.1797 84.6089 75.1797 83.9394C75.1797 83.27 75.7224 82.7273 76.3918 82.7273Z" fill="#C8C4C2"/>
<path d="M78.8176 82.7271C79.4871 82.7271 80.0297 83.2697 80.0297 83.9392C80.0297 84.6086 79.4871 85.1513 78.8176 85.1513C78.1482 85.1513 77.6055 84.6086 77.6055 83.9392C77.6055 83.2697 78.1482 82.7271 78.8176 82.7271Z" fill="#C8C4C2"/>
<path d="M81.2434 82.7273C81.9128 82.7273 82.4555 83.27 82.4555 83.9394C82.4555 84.6089 81.9128 85.1515 81.2434 85.1515C80.5739 85.1515 80.0312 84.6089 80.0312 83.9394C80.0312 83.27 80.5739 82.7273 81.2434 82.7273Z" fill="#C8C4C2"/>
<path d="M90.9387 82.7271C91.6081 82.7271 92.1508 83.2697 92.1508 83.9392C92.1508 84.6086 91.6081 85.1513 90.9387 85.1513C90.2693 85.1513 89.7266 84.6086 89.7266 83.9392C89.7266 83.2697 90.2693 82.7271 90.9387 82.7271Z" fill="#C8C4C2"/>
<path d="M33.0237 14.8494H27.6413C25.0181 14.8494 22.7958 16.5825 22.0852 18.9513C22.0118 19.1963 21.9544 19.4482 21.9145 19.7056C21.8706 19.9897 21.8477 20.2805 21.8477 20.5766V26.0869C21.8477 29.2465 24.4474 31.8158 27.6413 31.8158L30.3325 31.8163L33.0237 31.8157C36.2174 31.8157 38.8174 29.2463 38.8174 26.0867V20.5766C38.8174 17.4186 36.2176 14.8494 33.0237 14.8494ZM36.2719 26.0869C36.2719 27.8422 34.8149 29.2704 33.0231 29.2704L30.3325 29.2709L27.642 29.2702C25.8501 29.2702 24.3931 27.842 24.3931 26.0869V20.5766C24.3931 20.0283 24.5353 19.5121 24.7856 19.0611C25.0266 18.6272 25.3675 18.254 25.778 17.9714C26.3058 17.6081 26.9484 17.3948 27.6411 17.3948H33.0237C34.8149 17.3948 36.2719 18.8221 36.2719 20.5766V26.0869Z" fill="#C8C4C2"/>
<path d="M86.3558 14.8494H80.9733C78.3501 14.8494 76.1278 16.5825 75.4173 18.9513C75.3438 19.1963 75.2864 19.4482 75.2465 19.7056C75.2026 19.9897 75.1797 20.2805 75.1797 20.5766V26.0869C75.1797 29.2465 77.7794 31.8158 80.9733 31.8158L83.6645 31.8163L86.3558 31.8157C89.5495 31.8157 92.1494 29.2463 92.1494 26.0867V20.5766C92.1494 17.4186 89.5496 14.8494 86.3558 14.8494ZM89.6039 26.0869C89.6039 27.8422 88.1469 29.2704 86.3551 29.2704L83.6645 29.2709L80.974 29.2702C79.1822 29.2702 77.7251 27.842 77.7251 26.0869V20.5766C77.7251 20.0283 77.8673 19.5121 78.1177 19.0611C78.3586 18.6272 78.6995 18.254 79.11 17.9714C79.6378 17.6081 80.2804 17.3948 80.9731 17.3948H86.3558C88.1469 17.3948 89.6039 18.8221 89.6039 20.5766V26.0869Z" fill="#C8C4C2"/>
<path d="M33.0237 68.1833H27.6413C25.0181 68.1833 22.7958 69.9165 22.0852 72.2853C22.0118 72.5303 21.9544 72.7821 21.9145 73.0396C21.8706 73.3236 21.8477 73.6145 21.8477 73.9106V79.4209C21.8477 82.5804 24.4474 85.1498 27.6413 85.1498L30.3325 85.1503L33.0237 85.1497C36.2174 85.1497 38.8174 82.5803 38.8174 79.4207V73.9106C38.8174 70.7526 36.2176 68.1833 33.0237 68.1833ZM36.2719 79.4209C36.2719 81.1762 34.8149 82.6044 33.0231 82.6044L30.3325 82.6049L27.642 82.6042C25.8501 82.6042 24.3931 81.176 24.3931 79.4209V73.9106C24.3931 73.3623 24.5353 72.8461 24.7856 72.3951C25.0266 71.9611 25.3675 71.588 25.778 71.3054C26.3058 70.9421 26.9484 70.7288 27.6411 70.7288H33.0237C34.8149 70.7288 36.2719 72.1561 36.2719 73.9106V79.4209Z" fill="#C8C4C2"/>
<path d="M28.6855 26.9695C27.588 26.9695 26.6953 26.0945 26.6953 25.0198V21.6454C26.6953 21.3097 26.7826 20.9938 26.9354 20.7174C27.0829 20.4513 27.2918 20.2227 27.5434 20.0502C27.8665 19.8278 28.2604 19.6968 28.6844 19.6968H31.9809C33.0773 19.6968 33.9701 20.5708 33.9701 21.6454V25.0198C33.9701 26.0943 33.0774 26.9694 31.9809 26.9694H30.3327L28.6855 26.9695Z" fill="#C8C4C2"/>
<path d="M82.0175 26.9695C80.9201 26.9695 80.0273 26.0945 80.0273 25.0198V21.6454C80.0273 21.3097 80.1146 20.9938 80.2674 20.7174C80.415 20.4513 80.6239 20.2227 80.8754 20.0502C81.1985 19.8278 81.5924 19.6968 82.0164 19.6968H85.3129C86.4094 19.6968 87.3021 20.5708 87.3021 21.6454V25.0198C87.3021 26.0943 86.4095 26.9694 85.3129 26.9694H83.6647L82.0175 26.9695Z" fill="#C8C4C2"/>
<path d="M28.6855 80.303C27.588 80.303 26.6953 79.4279 26.6953 78.3533V74.9789C26.6953 74.6432 26.7826 74.3273 26.9354 74.0509C27.0829 73.7848 27.2918 73.5562 27.5434 73.3837C27.8665 73.1613 28.2604 73.0303 28.6844 73.0303H31.9809C33.0773 73.0303 33.9701 73.9043 33.9701 74.9789V78.3533C33.9701 79.4278 33.0774 80.3029 31.9809 80.3029H30.3327L28.6855 80.303Z" fill="#C8C4C2"/>
<path d="M57.0048 45.4429C57.767 45.4429 58.2751 44.9543 58.2751 44.2312C58.2751 43.5081 57.767 43 57.0048 43C56.2035 43 55.6954 43.5081 55.6954 44.2312C55.6954 44.9543 56.2035 45.4429 57.0048 45.4429ZM55.8713 56.68H58.2751C58.5096 56.68 58.6855 56.5823 58.6855 56.4259V56.3478C58.6855 55.9765 57.9038 55.9765 57.9038 55.2925V47.4558C57.9038 47.1822 57.7083 46.9867 57.2979 47.1822L55.7931 47.9248C55.6173 48.0225 55.5 48.0811 55.5 48.2179V48.257C55.5 48.5502 56.2035 48.7065 56.2035 49.4687V55.2925C56.2035 55.9765 55.5 55.9765 55.5 56.3478V56.4259C55.5 56.5823 55.6368 56.68 55.8713 56.68Z" fill="#C8C4C2"/>
<rect x="12.5" y="4.5" width="89" height="89" rx="9.5" stroke="#625E5C"/>
<rect x="8.5" y="0.5" width="97" height="97" rx="12.5" stroke="#625E5C"/>
</svg>
