<svg width="113" height="136" viewBox="0 0 113 136" fill="none" xmlns="http://www.w3.org/2000/svg">
<path d="M21.941 120.072C19.625 120.072 17.873 118.5 17.873 115.908C17.873 113.316 19.625 111.684 21.941 111.684C24.257 111.684 26.009 113.268 26.009 115.86C26.009 118.452 24.257 120.072 21.941 120.072ZM21.941 118.8C23.369 118.8 24.521 117.708 24.521 115.884C24.521 114.048 23.369 112.968 21.941 112.968C20.513 112.968 19.361 114.048 19.361 115.884C19.361 117.708 20.513 118.8 21.941 118.8ZM30.6616 111.768C32.4016 111.768 33.5416 112.656 33.5416 114.3C33.5416 115.932 32.4016 116.868 30.6616 116.868H28.8376V120H27.3736V111.768H30.6616ZM30.6616 115.644C31.5736 115.644 32.0536 115.08 32.0536 114.312C32.0536 113.556 31.5736 112.992 30.6616 112.992H28.8376V115.644H30.6616ZM36.1707 118.752H40.4307V120H34.7067V111.768H40.3587V113.016H36.1707V115.164H39.9267V116.388H36.1707V118.752ZM47.1924 111.768H48.6324V120H47.2284L43.2924 114V120H41.8524V111.768H43.2564L47.1924 117.792V111.768ZM54.4444 112.212C54.4444 112.764 54.0244 113.148 53.4844 113.148C52.9444 113.148 52.5244 112.764 52.5244 112.212C52.5244 111.684 52.9444 111.288 53.4844 111.288C54.0244 111.288 54.4444 111.684 54.4444 112.212ZM52.7404 120V114.12H54.2044V120H52.7404ZM59.1358 111.768C60.8758 111.768 62.0158 112.656 62.0158 114.3C62.0158 115.932 60.8758 116.868 59.1358 116.868H57.3118V120H55.8478V111.768H59.1358ZM59.1358 115.644C60.0478 115.644 60.5278 115.08 60.5278 114.312C60.5278 113.556 60.0478 112.992 59.1358 112.992H57.3118V115.644H59.1358ZM68.509 111.768H69.973V120H68.509V116.424H64.645V120H63.181V111.768H64.645V115.14H68.509V111.768ZM75.4146 120.072C73.0986 120.072 71.3466 118.5 71.3466 115.908C71.3466 113.316 73.0986 111.684 75.4146 111.684C77.7306 111.684 79.4826 113.268 79.4826 115.86C79.4826 118.452 77.7306 120.072 75.4146 120.072ZM75.4146 118.8C76.8426 118.8 77.9946 117.708 77.9946 115.884C77.9946 114.048 76.8426 112.968 75.4146 112.968C73.9866 112.968 72.8346 114.048 72.8346 115.884C72.8346 117.708 73.9866 118.8 75.4146 118.8ZM86.1872 111.768H87.6272V120H86.2232L82.2872 114V120H80.8472V111.768H82.2512L86.1872 117.792V111.768ZM90.9334 118.752H95.1934V120H89.4694V111.768H95.1214V113.016H90.9334V115.164H94.6894V116.388H90.9334V118.752ZM5.9792 131.788C7.3952 131.788 7.9952 130.984 8.1392 130H9.5912C9.3992 131.752 8.2832 133.072 5.9432 133.072C3.7232 133.072 2.1392 131.452 2.1392 128.884C2.1392 126.352 3.7472 124.684 5.9432 124.684C8.2472 124.684 9.4112 126.004 9.5912 127.78H8.1392C7.9952 126.784 7.3592 125.968 5.9792 125.968C4.6472 125.968 3.6152 127.084 3.6152 128.884C3.6272 130.72 4.6352 131.788 5.9792 131.788ZM16.0641 133L15.4281 131.128H11.9961L11.3601 133H9.88408L12.8601 124.768H14.5641L17.5401 133H16.0641ZM12.4161 129.928H15.0081L13.7121 126.136L12.4161 129.928ZM24.7919 124.768H26.8559L26.8439 133H25.4279V126.352L23.2199 133H22.1279L19.9199 126.352V133H18.5039L18.4919 124.768H20.5559L22.6799 131.26L24.7919 124.768ZM30.1721 131.752H34.4321V133H28.7081V124.768H34.3601V126.016H30.1721V128.164H33.9281V129.388H30.1721V131.752ZM42.4538 131.776L42.5378 132.952C42.3338 133.012 42.0698 133.06 41.7458 133.06C40.5938 133.06 40.1498 132.52 39.7298 131.728L38.7578 129.892H37.3178V133H35.8538V124.768H39.0458C40.7978 124.768 41.9378 125.68 41.9378 127.348C41.9378 128.524 41.3138 129.316 40.3418 129.676L41.1818 131.296C41.3978 131.728 41.6738 131.836 41.9738 131.836C42.1778 131.836 42.3338 131.812 42.4538 131.776ZM37.3178 125.992V128.728H39.0458C39.9698 128.728 40.4498 128.164 40.4498 127.36C40.4498 126.556 39.9698 125.992 39.0458 125.992H37.3178ZM48.9356 133L48.2996 131.128H44.8676L44.2316 133H42.7556L45.7316 124.768H47.4356L50.4116 133H48.9356ZM45.2876 129.928H47.8796L46.5836 126.136L45.2876 129.928ZM58.4925 133L57.8565 131.128H54.4245L53.7885 133H52.3125L55.2885 124.768H56.9925L59.9685 133H58.4925ZM54.8445 129.928H57.4365L56.1405 126.136L54.8445 129.928ZM66.2724 124.768H67.7124V133H66.3084L62.3724 127V133H60.9324V124.768H62.3364L66.2724 130.792V124.768ZM72.6865 124.768C75.0385 124.768 76.6585 126.292 76.6585 128.884C76.6585 131.476 75.0385 133 72.6865 133H69.5545V124.768H72.6865ZM72.6865 131.776C74.1505 131.776 75.1825 130.768 75.1825 128.884C75.1825 127 74.1505 126.004 72.6865 126.004H71.0185V131.764L72.6865 131.776ZM81.622 126.976C81.622 128.908 86.362 127.372 86.362 130.768C86.362 132.172 85.066 133.072 83.158 133.072C81.154 133.072 79.966 132.172 79.966 130.564L81.43 130.576C81.43 131.38 82.054 131.836 83.23 131.836C84.286 131.836 84.898 131.452 84.898 130.768C84.898 128.752 80.158 130.288 80.158 127.012C80.146 125.62 81.382 124.684 83.218 124.684C85.09 124.684 86.242 125.608 86.242 127.156H84.778C84.778 126.316 84.19 125.92 83.194 125.92C82.114 125.92 81.622 126.304 81.622 126.976ZM91.0939 131.788C92.5099 131.788 93.1099 130.984 93.2539 130H94.7059C94.5139 131.752 93.3979 133.072 91.0579 133.072C88.8379 133.072 87.2539 131.452 87.2539 128.884C87.2539 126.352 88.8619 124.684 91.0579 124.684C93.3619 124.684 94.5259 126.004 94.7059 127.78H93.2539C93.1099 126.784 92.4739 125.968 91.0939 125.968C89.7619 125.968 88.7299 127.084 88.7299 128.884C88.7419 130.72 89.7499 131.788 91.0939 131.788ZM101.179 133L100.543 131.128H97.1108L96.4748 133H94.9988L97.9748 124.768H99.6788L102.655 133H101.179ZM97.5308 129.928H100.123L98.8268 126.136L97.5308 129.928ZM108.959 124.768H110.399V133H108.995L105.059 127V133H103.619V124.768H105.023L108.959 130.792V124.768Z" fill="#C8C4C2"/>
<rect x="12" y="4" width="90" height="90" rx="10" fill="#D8A88B"/>
<rect x="8.5" y="0.5" width="97" height="97" rx="12.5" stroke="#D8A88B"/>
<path d="M44.8762 14.8486C45.5456 14.8486 46.0883 15.3913 46.0883 16.0608C46.0883 16.7302 45.5456 17.2729 44.8762 17.2729C44.2068 17.2729 43.6641 16.7302 43.6641 16.0608C43.6641 15.3913 44.2068 14.8486 44.8762 14.8486Z" fill="black"/>
<path d="M52.1496 14.8486C52.8191 14.8486 53.3617 15.3913 53.3617 16.0608C53.3617 16.7302 52.8191 17.2729 52.1496 17.2729C51.4802 17.2729 50.9375 16.7302 50.9375 16.0608C50.9375 15.3913 51.4802 14.8486 52.1496 14.8486Z" fill="black"/>
<path d="M54.5754 14.8486C55.2449 14.8486 55.7875 15.3913 55.7875 16.0608C55.7875 16.7302 55.2449 17.2729 54.5754 17.2729C53.906 17.2729 53.3633 16.7302 53.3633 16.0608C53.3633 15.3913 53.906 14.8486 54.5754 14.8486Z" fill="black"/>
<path d="M56.9973 14.8486C57.6667 14.8486 58.2094 15.3913 58.2094 16.0608C58.2094 16.7302 57.6667 17.2729 56.9973 17.2729C56.3278 17.2729 55.7852 16.7302 55.7852 16.0608C55.7852 15.3913 56.3278 14.8486 56.9973 14.8486Z" fill="black"/>
<path d="M61.8488 14.8486C62.5183 14.8486 63.061 15.3913 63.061 16.0608C63.061 16.7302 62.5183 17.2729 61.8488 17.2729C61.1794 17.2729 60.6367 16.7302 60.6367 16.0608C60.6367 15.3913 61.1794 14.8486 61.8488 14.8486Z" fill="black"/>
<path d="M64.2707 14.8486C64.9402 14.8486 65.4828 15.3913 65.4828 16.0608C65.4828 16.7302 64.9402 17.2729 64.2707 17.2729C63.6013 17.2729 63.0586 16.7302 63.0586 16.0608C63.0586 15.3913 63.6013 14.8486 64.2707 14.8486Z" fill="black"/>
<path d="M69.1223 14.8486C69.7917 14.8486 70.3344 15.3913 70.3344 16.0608C70.3344 16.7302 69.7917 17.2729 69.1223 17.2729C68.4528 17.2729 67.9102 16.7302 67.9102 16.0608C67.9102 15.3913 68.4528 14.8486 69.1223 14.8486Z" fill="black"/>
<path d="M71.5442 14.8486C72.2136 14.8486 72.7563 15.3913 72.7563 16.0608C72.7563 16.7302 72.2136 17.2729 71.5442 17.2729C70.8747 17.2729 70.332 16.7302 70.332 16.0608C70.332 15.3913 70.8747 14.8486 71.5442 14.8486Z" fill="black"/>
<path d="M42.4543 17.2725C43.1238 17.2725 43.6664 17.8152 43.6664 18.4846C43.6664 19.154 43.1238 19.6967 42.4543 19.6967C41.7849 19.6967 41.2422 19.154 41.2422 18.4846C41.2422 17.8152 41.7849 17.2725 42.4543 17.2725Z" fill="black"/>
<path d="M44.8762 17.2725C45.5456 17.2725 46.0883 17.8152 46.0883 18.4846C46.0883 19.154 45.5456 19.6967 44.8762 19.6967C44.2068 19.6967 43.6641 19.154 43.6641 18.4846C43.6641 17.8152 44.2068 17.2725 44.8762 17.2725Z" fill="black"/>
<path d="M47.302 17.2725C47.9714 17.2725 48.5141 17.8152 48.5141 18.4846C48.5141 19.154 47.9714 19.6967 47.302 19.6967C46.6325 19.6967 46.0898 19.154 46.0898 18.4846C46.0898 17.8152 46.6325 17.2725 47.302 17.2725Z" fill="black"/>
<path d="M49.7277 17.2725C50.3972 17.2725 50.9399 17.8152 50.9399 18.4846C50.9399 19.154 50.3972 19.6967 49.7277 19.6967C49.0583 19.6967 48.5156 19.154 48.5156 18.4846C48.5156 17.8152 49.0583 17.2725 49.7277 17.2725Z" fill="black"/>
<path d="M54.5754 17.2725C55.2449 17.2725 55.7875 17.8152 55.7875 18.4846C55.7875 19.154 55.2449 19.6967 54.5754 19.6967C53.906 19.6967 53.3633 19.154 53.3633 18.4846C53.3633 17.8152 53.906 17.2725 54.5754 17.2725Z" fill="black"/>
<path d="M61.8488 17.2725C62.5183 17.2725 63.061 17.8152 63.061 18.4846C63.061 19.154 62.5183 19.6967 61.8488 19.6967C61.1794 19.6967 60.6367 19.154 60.6367 18.4846C60.6367 17.8152 61.1794 17.2725 61.8488 17.2725Z" fill="black"/>
<path d="M71.5442 17.2725C72.2136 17.2725 72.7563 17.8152 72.7563 18.4846C72.7563 19.154 72.2136 19.6967 71.5442 19.6967C70.8747 19.6967 70.332 19.154 70.332 18.4846C70.332 17.8152 70.8747 17.2725 71.5442 17.2725Z" fill="black"/>
<path d="M42.4543 19.6973C43.1238 19.6973 43.6664 20.24 43.6664 20.9094C43.6664 21.5789 43.1238 22.1215 42.4543 22.1215C41.7849 22.1215 41.2422 21.5789 41.2422 20.9094C41.2422 20.24 41.7849 19.6973 42.4543 19.6973Z" fill="black"/>
<path d="M44.8762 19.6973C45.5456 19.6973 46.0883 20.24 46.0883 20.9094C46.0883 21.5789 45.5456 22.1215 44.8762 22.1215C44.2068 22.1215 43.6641 21.5789 43.6641 20.9094C43.6641 20.24 44.2068 19.6973 44.8762 19.6973Z" fill="black"/>
<path d="M47.302 19.6971C47.9714 19.6971 48.5141 20.2398 48.5141 20.9092C48.5141 21.5787 47.9714 22.1214 47.302 22.1214C46.6325 22.1214 46.0898 21.5787 46.0898 20.9092C46.0898 20.2398 46.6325 19.6971 47.302 19.6971Z" fill="black"/>
<path d="M49.7277 19.6973C50.3972 19.6973 50.9399 20.24 50.9399 20.9094C50.9399 21.5789 50.3972 22.1215 49.7277 22.1215C49.0583 22.1215 48.5156 21.5789 48.5156 20.9094C48.5156 20.24 49.0583 19.6973 49.7277 19.6973Z" fill="black"/>
<path d="M52.1496 19.6973C52.8191 19.6973 53.3617 20.24 53.3617 20.9094C53.3617 21.5789 52.8191 22.1215 52.1496 22.1215C51.4802 22.1215 50.9375 21.5789 50.9375 20.9094C50.9375 20.24 51.4802 19.6973 52.1496 19.6973Z" fill="black"/>
<path d="M54.5754 19.6973C55.2449 19.6973 55.7875 20.24 55.7875 20.9094C55.7875 21.5789 55.2449 22.1215 54.5754 22.1215C53.906 22.1215 53.3633 21.5789 53.3633 20.9094C53.3633 20.24 53.906 19.6973 54.5754 19.6973Z" fill="black"/>
<path d="M56.9973 19.6973C57.6667 19.6973 58.2094 20.24 58.2094 20.9094C58.2094 21.5789 57.6667 22.1215 56.9973 22.1215C56.3278 22.1215 55.7852 21.5789 55.7852 20.9094C55.7852 20.24 56.3278 19.6973 56.9973 19.6973Z" fill="black"/>
<path d="M59.4231 19.6973C60.0925 19.6973 60.6352 20.24 60.6352 20.9094C60.6352 21.5789 60.0925 22.1215 59.4231 22.1215C58.7536 22.1215 58.2109 21.5789 58.2109 20.9094C58.2109 20.24 58.7536 19.6973 59.4231 19.6973Z" fill="black"/>
<path d="M61.8488 19.6973C62.5183 19.6973 63.061 20.24 63.061 20.9094C63.061 21.5789 62.5183 22.1215 61.8488 22.1215C61.1794 22.1215 60.6367 21.5789 60.6367 20.9094C60.6367 20.24 61.1794 19.6973 61.8488 19.6973Z" fill="black"/>
<path d="M64.2707 19.6973C64.9402 19.6973 65.4828 20.24 65.4828 20.9094C65.4828 21.5789 64.9402 22.1215 64.2707 22.1215C63.6013 22.1215 63.0586 21.5789 63.0586 20.9094C63.0586 20.24 63.6013 19.6973 64.2707 19.6973Z" fill="black"/>
<path d="M66.6965 19.6973C67.366 19.6973 67.9086 20.24 67.9086 20.9094C67.9086 21.5789 67.366 22.1215 66.6965 22.1215C66.0271 22.1215 65.4844 21.5789 65.4844 20.9094C65.4844 20.24 66.0271 19.6973 66.6965 19.6973Z" fill="black"/>
<path d="M69.1223 19.6973C69.7917 19.6973 70.3344 20.24 70.3344 20.9094C70.3344 21.5789 69.7917 22.1215 69.1223 22.1215C68.4528 22.1215 67.9102 21.5789 67.9102 20.9094C67.9102 20.24 68.4528 19.6973 69.1223 19.6973Z" fill="black"/>
<path d="M71.5442 19.6973C72.2136 19.6973 72.7563 20.24 72.7563 20.9094C72.7563 21.5789 72.2136 22.1215 71.5442 22.1215C70.8747 22.1215 70.332 21.5789 70.332 20.9094C70.332 20.24 70.8747 19.6973 71.5442 19.6973Z" fill="black"/>
<path d="M42.4543 22.1211C43.1238 22.1211 43.6664 22.6638 43.6664 23.3332C43.6664 24.0027 43.1238 24.5453 42.4543 24.5453C41.7849 24.5453 41.2422 24.0027 41.2422 23.3332C41.2422 22.6638 41.7849 22.1211 42.4543 22.1211Z" fill="black"/>
<path d="M44.8762 22.1211C45.5456 22.1211 46.0883 22.6638 46.0883 23.3332C46.0883 24.0027 45.5456 24.5453 44.8762 24.5453C44.2068 24.5453 43.6641 24.0027 43.6641 23.3332C43.6641 22.6638 44.2068 22.1211 44.8762 22.1211Z" fill="black"/>
<path d="M47.302 22.1211C47.9714 22.1211 48.5141 22.6638 48.5141 23.3332C48.5141 24.0027 47.9714 24.5453 47.302 24.5453C46.6325 24.5453 46.0898 24.0027 46.0898 23.3332C46.0898 22.6638 46.6325 22.1211 47.302 22.1211Z" fill="black"/>
<path d="M49.7277 22.1211C50.3972 22.1211 50.9399 22.6638 50.9399 23.3332C50.9399 24.0027 50.3972 24.5453 49.7277 24.5453C49.0583 24.5453 48.5156 24.0027 48.5156 23.3332C48.5156 22.6638 49.0583 22.1211 49.7277 22.1211Z" fill="black"/>
<path d="M52.1496 22.1211C52.8191 22.1211 53.3617 22.6638 53.3617 23.3332C53.3617 24.0027 52.8191 24.5453 52.1496 24.5453C51.4802 24.5453 50.9375 24.0027 50.9375 23.3332C50.9375 22.6638 51.4802 22.1211 52.1496 22.1211Z" fill="black"/>
<path d="M59.4231 22.1211C60.0925 22.1211 60.6352 22.6638 60.6352 23.3332C60.6352 24.0027 60.0925 24.5453 59.4231 24.5453C58.7536 24.5453 58.2109 24.0027 58.2109 23.3332C58.2109 22.6638 58.7536 22.1211 59.4231 22.1211Z" fill="black"/>
<path d="M64.2707 22.1211C64.9402 22.1211 65.4828 22.6638 65.4828 23.3332C65.4828 24.0027 64.9402 24.5453 64.2707 24.5453C63.6013 24.5453 63.0586 24.0027 63.0586 23.3332C63.0586 22.6638 63.6013 22.1211 64.2707 22.1211Z" fill="black"/>
<path d="M66.6965 22.1211C67.366 22.1211 67.9086 22.6638 67.9086 23.3332C67.9086 24.0027 67.366 24.5453 66.6965 24.5453C66.0271 24.5453 65.4844 24.0027 65.4844 23.3332C65.4844 22.6638 66.0271 22.1211 66.6965 22.1211Z" fill="black"/>
<path d="M71.5442 22.1211C72.2136 22.1211 72.7563 22.6638 72.7563 23.3332C72.7563 24.0027 72.2136 24.5453 71.5442 24.5453C70.8747 24.5453 70.332 24.0027 70.332 23.3332C70.332 22.6638 70.8747 22.1211 71.5442 22.1211Z" fill="black"/>
<path d="M42.4543 24.5459C43.1238 24.5459 43.6664 25.0886 43.6664 25.758C43.6664 26.4275 43.1238 26.9701 42.4543 26.9701C41.7849 26.9701 41.2422 26.4275 41.2422 25.758C41.2422 25.0886 41.7849 24.5459 42.4543 24.5459Z" fill="black"/>
<path d="M47.302 24.5459C47.9714 24.5459 48.5141 25.0886 48.5141 25.758C48.5141 26.4275 47.9714 26.9701 47.302 26.9701C46.6325 26.9701 46.0898 26.4275 46.0898 25.758C46.0898 25.0886 46.6325 24.5459 47.302 24.5459Z" fill="black"/>
<path d="M52.1496 24.5459C52.8191 24.5459 53.3617 25.0886 53.3617 25.758C53.3617 26.4275 52.8191 26.9701 52.1496 26.9701C51.4802 26.9701 50.9375 26.4275 50.9375 25.758C50.9375 25.0886 51.4802 24.5459 52.1496 24.5459Z" fill="black"/>
<path d="M54.5754 24.5459C55.2449 24.5459 55.7875 25.0886 55.7875 25.758C55.7875 26.4275 55.2449 26.9701 54.5754 26.9701C53.906 26.9701 53.3633 26.4275 53.3633 25.758C53.3633 25.0886 53.906 24.5459 54.5754 24.5459Z" fill="black"/>
<path d="M57.0012 24.5459C57.6706 24.5459 58.2133 25.0886 58.2133 25.758C58.2133 26.4275 57.6706 26.9701 57.0012 26.9701C56.3318 26.9701 55.7891 26.4275 55.7891 25.758C55.7891 25.0886 56.3318 24.5459 57.0012 24.5459Z" fill="black"/>
<path d="M59.4231 24.5459C60.0925 24.5459 60.6352 25.0886 60.6352 25.758C60.6352 26.4275 60.0925 26.9701 59.4231 26.9701C58.7536 26.9701 58.2109 26.4275 58.2109 25.758C58.2109 25.0886 58.7536 24.5459 59.4231 24.5459Z" fill="black"/>
<path d="M61.8488 24.5459C62.5183 24.5459 63.061 25.0886 63.061 25.758C63.061 26.4275 62.5183 26.9701 61.8488 26.9701C61.1794 26.9701 60.6367 26.4275 60.6367 25.758C60.6367 25.0886 61.1794 24.5459 61.8488 24.5459Z" fill="black"/>
<path d="M42.4543 26.9697C43.1238 26.9697 43.6664 27.5124 43.6664 28.1818C43.6664 28.8513 43.1238 29.394 42.4543 29.394C41.7849 29.394 41.2422 28.8513 41.2422 28.1818C41.2422 27.5124 41.7849 26.9697 42.4543 26.9697Z" fill="black"/>
<path d="M47.302 26.9698C47.9714 26.9698 48.5141 27.5125 48.5141 28.182C48.5141 28.8514 47.9714 29.3941 47.302 29.3941C46.6325 29.3941 46.0898 28.8514 46.0898 28.182C46.0898 27.5125 46.6325 26.9698 47.302 26.9698Z" fill="black"/>
<path d="M49.7277 26.9697C50.3972 26.9697 50.9399 27.5124 50.9399 28.1818C50.9399 28.8513 50.3972 29.394 49.7277 29.394C49.0583 29.394 48.5156 28.8513 48.5156 28.1818C48.5156 27.5124 49.0583 26.9697 49.7277 26.9697Z" fill="black"/>
<path d="M52.1496 26.9697C52.8191 26.9697 53.3617 27.5124 53.3617 28.1818C53.3617 28.8513 52.8191 29.394 52.1496 29.394C51.4802 29.394 50.9375 28.8513 50.9375 28.1818C50.9375 27.5124 51.4802 26.9697 52.1496 26.9697Z" fill="black"/>
<path d="M61.8488 26.9697C62.5183 26.9697 63.061 27.5124 63.061 28.1818C63.061 28.8513 62.5183 29.394 61.8488 29.394C61.1794 29.394 60.6367 28.8513 60.6367 28.1818C60.6367 27.5124 61.1794 26.9697 61.8488 26.9697Z" fill="black"/>
<path d="M64.2707 26.9697C64.9402 26.9697 65.4828 27.5124 65.4828 28.1818C65.4828 28.8513 64.9402 29.394 64.2707 29.394C63.6013 29.394 63.0586 28.8513 63.0586 28.1818C63.0586 27.5124 63.6013 26.9697 64.2707 26.9697Z" fill="black"/>
<path d="M66.6965 26.9697C67.366 26.9697 67.9086 27.5124 67.9086 28.1818C67.9086 28.8513 67.366 29.394 66.6965 29.394C66.0271 29.394 65.4844 28.8513 65.4844 28.1818C65.4844 27.5124 66.0271 26.9697 66.6965 26.9697Z" fill="black"/>
<path d="M71.5442 26.9697C72.2136 26.9697 72.7563 27.5124 72.7563 28.1818C72.7563 28.8513 72.2136 29.394 71.5442 29.394C70.8747 29.394 70.332 28.8513 70.332 28.1818C70.332 27.5124 70.8747 26.9697 71.5442 26.9697Z" fill="black"/>
<path d="M42.4543 29.3945C43.1238 29.3945 43.6664 29.9372 43.6664 30.6067C43.6664 31.2761 43.1238 31.8188 42.4543 31.8188C41.7849 31.8188 41.2422 31.2761 41.2422 30.6067C41.2422 29.9372 41.7849 29.3945 42.4543 29.3945Z" fill="black"/>
<path d="M47.302 29.3945C47.9714 29.3945 48.5141 29.9372 48.5141 30.6067C48.5141 31.2761 47.9714 31.8188 47.302 31.8188C46.6325 31.8188 46.0898 31.2761 46.0898 30.6067C46.0898 29.9372 46.6325 29.3945 47.302 29.3945Z" fill="black"/>
<path d="M52.1496 29.3945C52.8191 29.3945 53.3617 29.9372 53.3617 30.6067C53.3617 31.2761 52.8191 31.8188 52.1496 31.8188C51.4802 31.8188 50.9375 31.2761 50.9375 30.6067C50.9375 29.9372 51.4802 29.3945 52.1496 29.3945Z" fill="black"/>
<path d="M57.0012 29.3945C57.6706 29.3945 58.2133 29.9372 58.2133 30.6067C58.2133 31.2761 57.6706 31.8188 57.0012 31.8188C56.3318 31.8188 55.7891 31.2761 55.7891 30.6067C55.7891 29.9372 56.3318 29.3945 57.0012 29.3945Z" fill="black"/>
<path d="M61.8488 29.3945C62.5183 29.3945 63.061 29.9372 63.061 30.6067C63.061 31.2761 62.5183 31.8188 61.8488 31.8188C61.1794 31.8188 60.6367 31.2761 60.6367 30.6067C60.6367 29.9372 61.1794 29.3945 61.8488 29.3945Z" fill="black"/>
<path d="M66.6965 29.3945C67.366 29.3945 67.9086 29.9372 67.9086 30.6067C67.9086 31.2761 67.366 31.8188 66.6965 31.8188C66.0271 31.8188 65.4844 31.2761 65.4844 30.6067C65.4844 29.9372 66.0271 29.3945 66.6965 29.3945Z" fill="black"/>
<path d="M71.5442 29.3945C72.2136 29.3945 72.7563 29.9372 72.7563 30.6067C72.7563 31.2761 72.2136 31.8188 71.5442 31.8188C70.8747 31.8188 70.332 31.2761 70.332 30.6067C70.332 29.9372 70.8747 29.3945 71.5442 29.3945Z" fill="black"/>
<path d="M61.8488 31.8184C62.5183 31.8184 63.061 32.3611 63.061 33.0305C63.061 33.6999 62.5183 34.2426 61.8488 34.2426C61.1794 34.2426 60.6367 33.6999 60.6367 33.0305C60.6367 32.3611 61.1794 31.8184 61.8488 31.8184Z" fill="black"/>
<path d="M64.2707 31.8184C64.9402 31.8184 65.4828 32.3611 65.4828 33.0305C65.4828 33.6999 64.9402 34.2426 64.2707 34.2426C63.6013 34.2426 63.0586 33.6999 63.0586 33.0305C63.0586 32.3611 63.6013 31.8184 64.2707 31.8184Z" fill="black"/>
<path d="M71.5442 31.8184C72.2136 31.8184 72.7563 32.3611 72.7563 33.0305C72.7563 33.6999 72.2136 34.2426 71.5442 34.2426C70.8747 34.2426 70.332 33.6999 70.332 33.0305C70.332 32.3611 70.8747 31.8184 71.5442 31.8184Z" fill="black"/>
<path d="M27.9074 34.2422C28.5769 34.2422 29.1196 34.7849 29.1196 35.4543C29.1196 36.1238 28.5769 36.6664 27.9074 36.6664C27.238 36.6664 26.6953 36.1238 26.6953 35.4543C26.6953 34.7849 27.238 34.2422 27.9074 34.2422Z" fill="black"/>
<path d="M35.1809 34.2422C35.8503 34.2422 36.393 34.7849 36.393 35.4543C36.393 36.1238 35.8503 36.6664 35.1809 36.6664C34.5114 36.6664 33.9688 36.1238 33.9688 35.4543C33.9688 34.7849 34.5114 34.2422 35.1809 34.2422Z" fill="black"/>
<path d="M37.6067 34.2422C38.2761 34.2422 38.8188 34.7849 38.8188 35.4543C38.8188 36.1238 38.2761 36.6664 37.6067 36.6664C36.9372 36.6664 36.3945 36.1238 36.3945 35.4543C36.3945 34.7849 36.9372 34.2422 37.6067 34.2422Z" fill="black"/>
<path d="M40.0285 34.2422C40.698 34.2422 41.2406 34.7849 41.2406 35.4543C41.2406 36.1238 40.698 36.6664 40.0285 36.6664C39.3591 36.6664 38.8164 36.1238 38.8164 35.4543C38.8164 34.7849 39.3591 34.2422 40.0285 34.2422Z" fill="black"/>
<path d="M42.4543 34.2422C43.1238 34.2422 43.6664 34.7849 43.6664 35.4543C43.6664 36.1238 43.1238 36.6664 42.4543 36.6664C41.7849 36.6664 41.2422 36.1238 41.2422 35.4543C41.2422 34.7849 41.7849 34.2422 42.4543 34.2422Z" fill="black"/>
<path d="M44.8762 34.2422C45.5456 34.2422 46.0883 34.7849 46.0883 35.4543C46.0883 36.1238 45.5456 36.6664 44.8762 36.6664C44.2068 36.6664 43.6641 36.1238 43.6641 35.4543C43.6641 34.7849 44.2068 34.2422 44.8762 34.2422Z" fill="black"/>
<path d="M52.1496 34.2422C52.8191 34.2422 53.3617 34.7849 53.3617 35.4543C53.3617 36.1238 52.8191 36.6664 52.1496 36.6664C51.4802 36.6664 50.9375 36.1238 50.9375 35.4543C50.9375 34.7849 51.4802 34.2422 52.1496 34.2422Z" fill="black"/>
<path d="M57.0012 34.2422C57.6706 34.2422 58.2133 34.7849 58.2133 35.4543C58.2133 36.1238 57.6706 36.6664 57.0012 36.6664C56.3318 36.6664 55.7891 36.1238 55.7891 35.4543C55.7891 34.7849 56.3318 34.2422 57.0012 34.2422Z" fill="black"/>
<path d="M61.8488 34.2422C62.5183 34.2422 63.061 34.7849 63.061 35.4543C63.061 36.1238 62.5183 36.6664 61.8488 36.6664C61.1794 36.6664 60.6367 36.1238 60.6367 35.4543C60.6367 34.7849 61.1794 34.2422 61.8488 34.2422Z" fill="black"/>
<path d="M64.2707 34.2422C64.9402 34.2422 65.4828 34.7849 65.4828 35.4543C65.4828 36.1238 64.9402 36.6664 64.2707 36.6664C63.6013 36.6664 63.0586 36.1238 63.0586 35.4543C63.0586 34.7849 63.6013 34.2422 64.2707 34.2422Z" fill="black"/>
<path d="M71.5442 34.2422C72.2136 34.2422 72.7563 34.7849 72.7563 35.4543C72.7563 36.1238 72.2136 36.6664 71.5442 36.6664C70.8747 36.6664 70.332 36.1238 70.332 35.4543C70.332 34.7849 70.8747 34.2422 71.5442 34.2422Z" fill="black"/>
<path d="M73.9699 34.2422C74.6394 34.2422 75.1821 34.7849 75.1821 35.4543C75.1821 36.1238 74.6394 36.6664 73.9699 36.6664C73.3005 36.6664 72.7578 36.1238 72.7578 35.4543C72.7578 34.7849 73.3005 34.2422 73.9699 34.2422Z" fill="black"/>
<path d="M78.8176 34.2422C79.4871 34.2422 80.0297 34.7849 80.0297 35.4543C80.0297 36.1238 79.4871 36.6664 78.8176 36.6664C78.1482 36.6664 77.6055 36.1238 77.6055 35.4543C77.6055 34.7849 78.1482 34.2422 78.8176 34.2422Z" fill="black"/>
<path d="M81.2434 34.2422C81.9128 34.2422 82.4555 34.7849 82.4555 35.4543C82.4555 36.1238 81.9128 36.6664 81.2434 36.6664C80.5739 36.6664 80.0312 36.1238 80.0312 35.4543C80.0312 34.7849 80.5739 34.2422 81.2434 34.2422Z" fill="black"/>
<path d="M83.6652 34.2422C84.3347 34.2422 84.8774 34.7849 84.8774 35.4543C84.8774 36.1238 84.3347 36.6664 83.6652 36.6664C82.9958 36.6664 82.4531 36.1238 82.4531 35.4543C82.4531 34.7849 82.9958 34.2422 83.6652 34.2422Z" fill="black"/>
<path d="M86.091 34.2422C86.7605 34.2422 87.3031 34.7849 87.3031 35.4543C87.3031 36.1238 86.7605 36.6664 86.091 36.6664C85.4216 36.6664 84.8789 36.1238 84.8789 35.4543C84.8789 34.7849 85.4216 34.2422 86.091 34.2422Z" fill="black"/>
<path d="M88.5129 34.2422C89.1824 34.2422 89.725 34.7849 89.725 35.4543C89.725 36.1238 89.1824 36.6664 88.5129 36.6664C87.8435 36.6664 87.3008 36.1238 87.3008 35.4543C87.3008 34.7849 87.8435 34.2422 88.5129 34.2422Z" fill="black"/>
<path d="M23.0598 36.6668C23.7292 36.6668 24.2719 37.2095 24.2719 37.8789C24.2719 38.5484 23.7292 39.0911 23.0598 39.0911C22.3903 39.0911 21.8477 38.5484 21.8477 37.8789C21.8477 37.2095 22.3903 36.6668 23.0598 36.6668Z" fill="black"/>
<path d="M30.3332 36.667C31.0027 36.667 31.5453 37.2097 31.5453 37.8791C31.5453 38.5486 31.0027 39.0912 30.3332 39.0912C29.6638 39.0912 29.1211 38.5486 29.1211 37.8791C29.1211 37.2097 29.6638 36.667 30.3332 36.667Z" fill="black"/>
<path d="M32.759 36.667C33.4285 36.667 33.9711 37.2097 33.9711 37.8791C33.9711 38.5486 33.4285 39.0912 32.759 39.0912C32.0896 39.0912 31.5469 38.5486 31.5469 37.8791C31.5469 37.2097 32.0896 36.667 32.759 36.667Z" fill="black"/>
<path d="M35.1809 36.6668C35.8503 36.6668 36.393 37.2095 36.393 37.8789C36.393 38.5484 35.8503 39.0911 35.1809 39.0911C34.5114 39.0911 33.9688 38.5484 33.9688 37.8789C33.9688 37.2095 34.5114 36.6668 35.1809 36.6668Z" fill="black"/>
<path d="M40.0285 36.667C40.698 36.667 41.2406 37.2097 41.2406 37.8791C41.2406 38.5486 40.698 39.0912 40.0285 39.0912C39.3591 39.0912 38.8164 38.5486 38.8164 37.8791C38.8164 37.2097 39.3591 36.667 40.0285 36.667Z" fill="black"/>
<path d="M44.8762 36.667C45.5456 36.667 46.0883 37.2097 46.0883 37.8791C46.0883 38.5486 45.5456 39.0912 44.8762 39.0912C44.2068 39.0912 43.6641 38.5486 43.6641 37.8791C43.6641 37.2097 44.2068 36.667 44.8762 36.667Z" fill="black"/>
<path d="M52.1496 36.667C52.8191 36.667 53.3617 37.2097 53.3617 37.8791C53.3617 38.5486 52.8191 39.0912 52.1496 39.0912C51.4802 39.0912 50.9375 38.5486 50.9375 37.8791C50.9375 37.2097 51.4802 36.667 52.1496 36.667Z" fill="black"/>
<path d="M54.5754 36.667C55.2449 36.667 55.7875 37.2097 55.7875 37.8791C55.7875 38.5486 55.2449 39.0912 54.5754 39.0912C53.906 39.0912 53.3633 38.5486 53.3633 37.8791C53.3633 37.2097 53.906 36.667 54.5754 36.667Z" fill="black"/>
<path d="M61.8488 36.667C62.5183 36.667 63.061 37.2097 63.061 37.8791C63.061 38.5486 62.5183 39.0912 61.8488 39.0912C61.1794 39.0912 60.6367 38.5486 60.6367 37.8791C60.6367 37.2097 61.1794 36.667 61.8488 36.667Z" fill="black"/>
<path d="M64.2707 36.667C64.9402 36.667 65.4828 37.2097 65.4828 37.8791C65.4828 38.5486 64.9402 39.0912 64.2707 39.0912C63.6013 39.0912 63.0586 38.5486 63.0586 37.8791C63.0586 37.2097 63.6013 36.667 64.2707 36.667Z" fill="black"/>
<path d="M71.5442 36.667C72.2136 36.667 72.7563 37.2097 72.7563 37.8791C72.7563 38.5486 72.2136 39.0912 71.5442 39.0912C70.8747 39.0912 70.332 38.5486 70.332 37.8791C70.332 37.2097 70.8747 36.667 71.5442 36.667Z" fill="black"/>
<path d="M76.3918 36.667C77.0613 36.667 77.6039 37.2097 77.6039 37.8791C77.6039 38.5486 77.0613 39.0912 76.3918 39.0912C75.7224 39.0912 75.1797 38.5486 75.1797 37.8791C75.1797 37.2097 75.7224 36.667 76.3918 36.667Z" fill="black"/>
<path d="M78.8176 36.6668C79.4871 36.6668 80.0297 37.2095 80.0297 37.8789C80.0297 38.5484 79.4871 39.0911 78.8176 39.0911C78.1482 39.0911 77.6055 38.5484 77.6055 37.8789C77.6055 37.2095 78.1482 36.6668 78.8176 36.6668Z" fill="black"/>
<path d="M83.6652 36.667C84.3347 36.667 84.8774 37.2097 84.8774 37.8791C84.8774 38.5486 84.3347 39.0912 83.6652 39.0912C82.9958 39.0912 82.4531 38.5486 82.4531 37.8791C82.4531 37.2097 82.9958 36.667 83.6652 36.667Z" fill="black"/>
<path d="M88.5129 36.667C89.1824 36.667 89.725 37.2097 89.725 37.8791C89.725 38.5486 89.1824 39.0912 88.5129 39.0912C87.8435 39.0912 87.3008 38.5486 87.3008 37.8791C87.3008 37.2097 87.8435 36.667 88.5129 36.667Z" fill="black"/>
<path d="M90.9387 36.6668C91.6081 36.6668 92.1508 37.2095 92.1508 37.8789C92.1508 38.5484 91.6081 39.0911 90.9387 39.0911C90.2693 39.0911 89.7266 38.5484 89.7266 37.8789C89.7266 37.2095 90.2693 36.6668 90.9387 36.6668Z" fill="black"/>
<path d="M23.0598 39.0911C23.7292 39.0911 24.2719 39.6338 24.2719 40.3032C24.2719 40.9726 23.7292 41.5153 23.0598 41.5153C22.3903 41.5153 21.8477 40.9726 21.8477 40.3032C21.8477 39.6338 22.3903 39.0911 23.0598 39.0911Z" fill="black"/>
<path d="M25.4856 39.0908C26.155 39.0908 26.6977 39.6335 26.6977 40.3029C26.6977 40.9724 26.155 41.5151 25.4856 41.5151C24.8161 41.5151 24.2734 40.9724 24.2734 40.3029C24.2734 39.6335 24.8161 39.0908 25.4856 39.0908Z" fill="black"/>
<path d="M37.6067 39.0908C38.2761 39.0908 38.8188 39.6335 38.8188 40.3029C38.8188 40.9724 38.2761 41.5151 37.6067 41.5151C36.9372 41.5151 36.3945 40.9724 36.3945 40.3029C36.3945 39.6335 36.9372 39.0908 37.6067 39.0908Z" fill="black"/>
<path d="M71.5442 39.0908C72.2136 39.0908 72.7563 39.6335 72.7563 40.3029C72.7563 40.9724 72.2136 41.5151 71.5442 41.5151C70.8747 41.5151 70.332 40.9724 70.332 40.3029C70.332 39.6335 70.8747 39.0908 71.5442 39.0908Z" fill="black"/>
<path d="M73.9699 39.0908C74.6394 39.0908 75.1821 39.6335 75.1821 40.3029C75.1821 40.9724 74.6394 41.5151 73.9699 41.5151C73.3005 41.5151 72.7578 40.9724 72.7578 40.3029C72.7578 39.6335 73.3005 39.0908 73.9699 39.0908Z" fill="black"/>
<path d="M81.2434 39.0908C81.9128 39.0908 82.4555 39.6335 82.4555 40.3029C82.4555 40.9724 81.9128 41.5151 81.2434 41.5151C80.5739 41.5151 80.0312 40.9724 80.0312 40.3029C80.0312 39.6335 80.5739 39.0908 81.2434 39.0908Z" fill="black"/>
<path d="M83.6652 39.0908C84.3347 39.0908 84.8774 39.6335 84.8774 40.3029C84.8774 40.9724 84.3347 41.5151 83.6652 41.5151C82.9958 41.5151 82.4531 40.9724 82.4531 40.3029C82.4531 39.6335 82.9958 39.0908 83.6652 39.0908Z" fill="black"/>
<path d="M90.9387 39.0911C91.6081 39.0911 92.1508 39.6338 92.1508 40.3032C92.1508 40.9726 91.6081 41.5153 90.9387 41.5153C90.2693 41.5153 89.7266 40.9726 89.7266 40.3032C89.7266 39.6338 90.2693 39.0911 90.9387 39.0911Z" fill="black"/>
<path d="M25.4856 41.5156C26.155 41.5156 26.6977 42.0583 26.6977 42.7277C26.6977 43.3972 26.155 43.9399 25.4856 43.9399C24.8161 43.9399 24.2734 43.3972 24.2734 42.7277C24.2734 42.0583 24.8161 41.5156 25.4856 41.5156Z" fill="black"/>
<path d="M32.759 41.5156C33.4285 41.5156 33.9711 42.0583 33.9711 42.7277C33.9711 43.3972 33.4285 43.9399 32.759 43.9399C32.0896 43.9399 31.5469 43.3972 31.5469 42.7277C31.5469 42.0583 32.0896 41.5156 32.759 41.5156Z" fill="black"/>
<path d="M40.0285 41.5156C40.698 41.5156 41.2406 42.0583 41.2406 42.7277C41.2406 43.3972 40.698 43.9399 40.0285 43.9399C39.3591 43.9399 38.8164 43.3972 38.8164 42.7277C38.8164 42.0583 39.3591 41.5156 40.0285 41.5156Z" fill="black"/>
<path d="M42.4543 41.5156C43.1238 41.5156 43.6664 42.0583 43.6664 42.7277C43.6664 43.3972 43.1238 43.9399 42.4543 43.9399C41.7849 43.9399 41.2422 43.3972 41.2422 42.7277C41.2422 42.0583 41.7849 41.5156 42.4543 41.5156Z" fill="black"/>
<path d="M44.8762 41.5156C45.5456 41.5156 46.0883 42.0583 46.0883 42.7277C46.0883 43.3972 45.5456 43.9399 44.8762 43.9399C44.2068 43.9399 43.6641 43.3972 43.6641 42.7277C43.6641 42.0583 44.2068 41.5156 44.8762 41.5156Z" fill="black"/>
<path d="M69.1184 41.5156C69.7878 41.5156 70.3305 42.0583 70.3305 42.7277C70.3305 43.3972 69.7878 43.9399 69.1184 43.9399C68.4489 43.9399 67.9062 43.3972 67.9062 42.7277C67.9062 42.0583 68.4489 41.5156 69.1184 41.5156Z" fill="black"/>
<path d="M71.5442 41.5156C72.2136 41.5156 72.7563 42.0583 72.7563 42.7277C72.7563 43.3972 72.2136 43.9399 71.5442 43.9399C70.8747 43.9399 70.332 43.3972 70.332 42.7277C70.332 42.0583 70.8747 41.5156 71.5442 41.5156Z" fill="black"/>
<path d="M76.3918 41.5156C77.0613 41.5156 77.6039 42.0583 77.6039 42.7277C77.6039 43.3972 77.0613 43.9399 76.3918 43.9399C75.7224 43.9399 75.1797 43.3972 75.1797 42.7277C75.1797 42.0583 75.7224 41.5156 76.3918 41.5156Z" fill="black"/>
<path d="M78.8176 41.5156C79.4871 41.5156 80.0297 42.0583 80.0297 42.7277C80.0297 43.3972 79.4871 43.9399 78.8176 43.9399C78.1482 43.9399 77.6055 43.3972 77.6055 42.7277C77.6055 42.0583 78.1482 41.5156 78.8176 41.5156Z" fill="black"/>
<path d="M83.6652 41.5156C84.3347 41.5156 84.8774 42.0583 84.8774 42.7277C84.8774 43.3972 84.3347 43.9399 83.6652 43.9399C82.9958 43.9399 82.4531 43.3972 82.4531 42.7277C82.4531 42.0583 82.9958 41.5156 83.6652 41.5156Z" fill="black"/>
<path d="M27.9074 43.9395C28.5769 43.9395 29.1196 44.4821 29.1196 45.1516C29.1196 45.821 28.5769 46.3637 27.9074 46.3637C27.238 46.3637 26.6953 45.821 26.6953 45.1516C26.6953 44.4821 27.238 43.9395 27.9074 43.9395Z" fill="black"/>
<path d="M32.759 43.9395C33.4285 43.9395 33.9711 44.4821 33.9711 45.1516C33.9711 45.821 33.4285 46.3637 32.759 46.3637C32.0896 46.3637 31.5469 45.821 31.5469 45.1516C31.5469 44.4821 32.0896 43.9395 32.759 43.9395Z" fill="black"/>
<path d="M37.6067 43.9395C38.2761 43.9395 38.8188 44.4821 38.8188 45.1516C38.8188 45.821 38.2761 46.3637 37.6067 46.3637C36.9372 46.3637 36.3945 45.821 36.3945 45.1516C36.3945 44.4821 36.9372 43.9395 37.6067 43.9395Z" fill="black"/>
<path d="M71.5442 43.9395C72.2136 43.9395 72.7563 44.4821 72.7563 45.1516C72.7563 45.821 72.2136 46.3637 71.5442 46.3637C70.8747 46.3637 70.332 45.821 70.332 45.1516C70.332 44.4821 70.8747 43.9395 71.5442 43.9395Z" fill="black"/>
<path d="M73.9699 43.9395C74.6394 43.9395 75.1821 44.4821 75.1821 45.1516C75.1821 45.821 74.6394 46.3637 73.9699 46.3637C73.3005 46.3637 72.7578 45.821 72.7578 45.1516C72.7578 44.4821 73.3005 43.9395 73.9699 43.9395Z" fill="black"/>
<path d="M76.3918 43.9395C77.0613 43.9395 77.6039 44.4821 77.6039 45.1516C77.6039 45.821 77.0613 46.3637 76.3918 46.3637C75.7224 46.3637 75.1797 45.821 75.1797 45.1516C75.1797 44.4821 75.7224 43.9395 76.3918 43.9395Z" fill="black"/>
<path d="M88.5129 43.9395C89.1824 43.9395 89.725 44.4821 89.725 45.1516C89.725 45.821 89.1824 46.3637 88.5129 46.3637C87.8435 46.3637 87.3008 45.821 87.3008 45.1516C87.3008 44.4821 87.8435 43.9395 88.5129 43.9395Z" fill="black"/>
<path d="M23.0598 46.3643C23.7292 46.3643 24.2719 46.9069 24.2719 47.5764C24.2719 48.2458 23.7292 48.7885 23.0598 48.7885C22.3903 48.7885 21.8477 48.2458 21.8477 47.5764C21.8477 46.9069 22.3903 46.3643 23.0598 46.3643Z" fill="black"/>
<path d="M30.3332 46.3643C31.0027 46.3643 31.5453 46.9069 31.5453 47.5764C31.5453 48.2458 31.0027 48.7885 30.3332 48.7885C29.6638 48.7885 29.1211 48.2458 29.1211 47.5764C29.1211 46.9069 29.6638 46.3643 30.3332 46.3643Z" fill="black"/>
<path d="M42.4543 46.3643C43.1238 46.3643 43.6664 46.9069 43.6664 47.5764C43.6664 48.2458 43.1238 48.7885 42.4543 48.7885C41.7849 48.7885 41.2422 48.2458 41.2422 47.5764C41.2422 46.9069 41.7849 46.3643 42.4543 46.3643Z" fill="black"/>
<path d="M69.1184 46.3643C69.7878 46.3643 70.3305 46.9069 70.3305 47.5764C70.3305 48.2458 69.7878 48.7885 69.1184 48.7885C68.4489 48.7885 67.9062 48.2458 67.9062 47.5764C67.9062 46.9069 68.4489 46.3643 69.1184 46.3643Z" fill="black"/>
<path d="M71.5442 46.3643C72.2136 46.3643 72.7563 46.9069 72.7563 47.5764C72.7563 48.2458 72.2136 48.7885 71.5442 48.7885C70.8747 48.7885 70.332 48.2458 70.332 47.5764C70.332 46.9069 70.8747 46.3643 71.5442 46.3643Z" fill="black"/>
<path d="M76.3918 46.3643C77.0613 46.3643 77.6039 46.9069 77.6039 47.5764C77.6039 48.2458 77.0613 48.7885 76.3918 48.7885C75.7224 48.7885 75.1797 48.2458 75.1797 47.5764C75.1797 46.9069 75.7224 46.3643 76.3918 46.3643Z" fill="black"/>
<path d="M83.6652 46.3643C84.3347 46.3643 84.8774 46.9069 84.8774 47.5764C84.8774 48.2458 84.3347 48.7885 83.6652 48.7885C82.9958 48.7885 82.4531 48.2458 82.4531 47.5764C82.4531 46.9069 82.9958 46.3643 83.6652 46.3643Z" fill="black"/>
<path d="M88.5129 46.3643C89.1824 46.3643 89.725 46.9069 89.725 47.5764C89.725 48.2458 89.1824 48.7885 88.5129 48.7885C87.8435 48.7885 87.3008 48.2458 87.3008 47.5764C87.3008 46.9069 87.8435 46.3643 88.5129 46.3643Z" fill="black"/>
<path d="M90.9387 46.3643C91.6081 46.3643 92.1508 46.9069 92.1508 47.5764C92.1508 48.2458 91.6081 48.7885 90.9387 48.7885C90.2693 48.7885 89.7266 48.2458 89.7266 47.5764C89.7266 46.9069 90.2693 46.3643 90.9387 46.3643Z" fill="black"/>
<path d="M25.4856 48.7881C26.155 48.7881 26.6977 49.3308 26.6977 50.0002C26.6977 50.6697 26.155 51.2123 25.4856 51.2123C24.8161 51.2123 24.2734 50.6697 24.2734 50.0002C24.2734 49.3308 24.8161 48.7881 25.4856 48.7881Z" fill="black"/>
<path d="M27.9074 48.7881C28.5769 48.7881 29.1196 49.3308 29.1196 50.0002C29.1196 50.6697 28.5769 51.2123 27.9074 51.2123C27.238 51.2123 26.6953 50.6697 26.6953 50.0002C26.6953 49.3308 27.238 48.7881 27.9074 48.7881Z" fill="black"/>
<path d="M30.3332 48.7881C31.0027 48.7881 31.5453 49.3308 31.5453 50.0002C31.5453 50.6697 31.0027 51.2123 30.3332 51.2123C29.6638 51.2123 29.1211 50.6697 29.1211 50.0002C29.1211 49.3308 29.6638 48.7881 30.3332 48.7881Z" fill="black"/>
<path d="M35.1809 48.788C35.8503 48.788 36.393 49.3307 36.393 50.0001C36.393 50.6696 35.8503 51.2123 35.1809 51.2123C34.5114 51.2123 33.9688 50.6696 33.9688 50.0001C33.9688 49.3307 34.5114 48.788 35.1809 48.788Z" fill="black"/>
<path d="M37.6067 48.7881C38.2761 48.7881 38.8188 49.3308 38.8188 50.0002C38.8188 50.6697 38.2761 51.2123 37.6067 51.2123C36.9372 51.2123 36.3945 50.6697 36.3945 50.0002C36.3945 49.3308 36.9372 48.7881 37.6067 48.7881Z" fill="black"/>
<path d="M42.4543 48.7881C43.1238 48.7881 43.6664 49.3308 43.6664 50.0002C43.6664 50.6697 43.1238 51.2123 42.4543 51.2123C41.7849 51.2123 41.2422 50.6697 41.2422 50.0002C41.2422 49.3308 41.7849 48.7881 42.4543 48.7881Z" fill="black"/>
<path d="M44.8762 48.7881C45.5456 48.7881 46.0883 49.3308 46.0883 50.0002C46.0883 50.6697 45.5456 51.2123 44.8762 51.2123C44.2068 51.2123 43.6641 50.6697 43.6641 50.0002C43.6641 49.3308 44.2068 48.7881 44.8762 48.7881Z" fill="black"/>
<path d="M69.1223 48.7881C69.7917 48.7881 70.3344 49.3308 70.3344 50.0002C70.3344 50.6697 69.7917 51.2123 69.1223 51.2123C68.4528 51.2123 67.9102 50.6697 67.9102 50.0002C67.9102 49.3308 68.4528 48.7881 69.1223 48.7881Z" fill="black"/>
<path d="M73.9699 48.7881C74.6394 48.7881 75.1821 49.3308 75.1821 50.0002C75.1821 50.6697 74.6394 51.2123 73.9699 51.2123C73.3005 51.2123 72.7578 50.6697 72.7578 50.0002C72.7578 49.3308 73.3005 48.7881 73.9699 48.7881Z" fill="black"/>
<path d="M76.3918 48.7881C77.0613 48.7881 77.6039 49.3308 77.6039 50.0002C77.6039 50.6697 77.0613 51.2123 76.3918 51.2123C75.7224 51.2123 75.1797 50.6697 75.1797 50.0002C75.1797 49.3308 75.7224 48.7881 76.3918 48.7881Z" fill="black"/>
<path d="M83.6652 48.7881C84.3347 48.7881 84.8774 49.3308 84.8774 50.0002C84.8774 50.6697 84.3347 51.2123 83.6652 51.2123C82.9958 51.2123 82.4531 50.6697 82.4531 50.0002C82.4531 49.3308 82.9958 48.7881 83.6652 48.7881Z" fill="black"/>
<path d="M86.091 48.7881C86.7605 48.7881 87.3031 49.3308 87.3031 50.0002C87.3031 50.6697 86.7605 51.2123 86.091 51.2123C85.4216 51.2123 84.8789 50.6697 84.8789 50.0002C84.8789 49.3308 85.4216 48.7881 86.091 48.7881Z" fill="black"/>
<path d="M90.9387 48.788C91.6081 48.788 92.1508 49.3307 92.1508 50.0001C92.1508 50.6696 91.6081 51.2123 90.9387 51.2123C90.2693 51.2123 89.7266 50.6696 89.7266 50.0001C89.7266 49.3307 90.2693 48.788 90.9387 48.788Z" fill="black"/>
<path d="M25.4856 51.2119C26.155 51.2119 26.6977 51.7546 26.6977 52.424C26.6977 53.0935 26.155 53.6362 25.4856 53.6362C24.8161 53.6362 24.2734 53.0935 24.2734 52.424C24.2734 51.7546 24.8161 51.2119 25.4856 51.2119Z" fill="black"/>
<path d="M27.9074 51.2119C28.5769 51.2119 29.1196 51.7546 29.1196 52.424C29.1196 53.0935 28.5769 53.6362 27.9074 53.6362C27.238 53.6362 26.6953 53.0935 26.6953 52.424C26.6953 51.7546 27.238 51.2119 27.9074 51.2119Z" fill="black"/>
<path d="M73.9699 51.2119C74.6394 51.2119 75.1821 51.7546 75.1821 52.424C75.1821 53.0935 74.6394 53.6362 73.9699 53.6362C73.3005 53.6362 72.7578 53.0935 72.7578 52.424C72.7578 51.7546 73.3005 51.2119 73.9699 51.2119Z" fill="black"/>
<path d="M76.3918 51.2119C77.0613 51.2119 77.6039 51.7546 77.6039 52.424C77.6039 53.0935 77.0613 53.6362 76.3918 53.6362C75.7224 53.6362 75.1797 53.0935 75.1797 52.424C75.1797 51.7546 75.7224 51.2119 76.3918 51.2119Z" fill="black"/>
<path d="M83.6652 51.2119C84.3347 51.2119 84.8774 51.7546 84.8774 52.424C84.8774 53.0935 84.3347 53.6362 83.6652 53.6362C82.9958 53.6362 82.4531 53.0935 82.4531 52.424C82.4531 51.7546 82.9958 51.2119 83.6652 51.2119Z" fill="black"/>
<path d="M88.5129 51.2119C89.1824 51.2119 89.725 51.7546 89.725 52.424C89.725 53.0935 89.1824 53.6362 88.5129 53.6362C87.8435 53.6362 87.3008 53.0935 87.3008 52.424C87.3008 51.7546 87.8435 51.2119 88.5129 51.2119Z" fill="black"/>
<path d="M90.9387 51.2119C91.6081 51.2119 92.1508 51.7546 92.1508 52.424C92.1508 53.0935 91.6081 53.6362 90.9387 53.6362C90.2693 53.6362 89.7266 53.0935 89.7266 52.424C89.7266 51.7546 90.2693 51.2119 90.9387 51.2119Z" fill="black"/>
<path d="M23.0598 53.6365C23.7292 53.6365 24.2719 54.1792 24.2719 54.8486C24.2719 55.5181 23.7292 56.0607 23.0598 56.0607C22.3903 56.0607 21.8477 55.5181 21.8477 54.8486C21.8477 54.1792 22.3903 53.6365 23.0598 53.6365Z" fill="black"/>
<path d="M25.4856 53.6367C26.155 53.6367 26.6977 54.1794 26.6977 54.8488C26.6977 55.5183 26.155 56.061 25.4856 56.061C24.8161 56.061 24.2734 55.5183 24.2734 54.8488C24.2734 54.1794 24.8161 53.6367 25.4856 53.6367Z" fill="black"/>
<path d="M37.6067 53.6367C38.2761 53.6367 38.8188 54.1794 38.8188 54.8488C38.8188 55.5183 38.2761 56.061 37.6067 56.061C36.9372 56.061 36.3945 55.5183 36.3945 54.8488C36.3945 54.1794 36.9372 53.6367 37.6067 53.6367Z" fill="black"/>
<path d="M40.0285 53.6367C40.698 53.6367 41.2406 54.1794 41.2406 54.8488C41.2406 55.5183 40.698 56.061 40.0285 56.061C39.3591 56.061 38.8164 55.5183 38.8164 54.8488C38.8164 54.1794 39.3591 53.6367 40.0285 53.6367Z" fill="black"/>
<path d="M42.4543 53.6367C43.1238 53.6367 43.6664 54.1794 43.6664 54.8488C43.6664 55.5183 43.1238 56.061 42.4543 56.061C41.7849 56.061 41.2422 55.5183 41.2422 54.8488C41.2422 54.1794 41.7849 53.6367 42.4543 53.6367Z" fill="black"/>
<path d="M44.8762 53.6367C45.5456 53.6367 46.0883 54.1794 46.0883 54.8488C46.0883 55.5183 45.5456 56.061 44.8762 56.061C44.2068 56.061 43.6641 55.5183 43.6641 54.8488C43.6641 54.1794 44.2068 53.6367 44.8762 53.6367Z" fill="black"/>
<path d="M71.5442 53.6367C72.2136 53.6367 72.7563 54.1794 72.7563 54.8488C72.7563 55.5183 72.2136 56.061 71.5442 56.061C70.8747 56.061 70.332 55.5183 70.332 54.8488C70.332 54.1794 70.8747 53.6367 71.5442 53.6367Z" fill="black"/>
<path d="M76.3918 53.6367C77.0613 53.6367 77.6039 54.1794 77.6039 54.8488C77.6039 55.5183 77.0613 56.061 76.3918 56.061C75.7224 56.061 75.1797 55.5183 75.1797 54.8488C75.1797 54.1794 75.7224 53.6367 76.3918 53.6367Z" fill="black"/>
<path d="M78.8176 53.6365C79.4871 53.6365 80.0297 54.1792 80.0297 54.8486C80.0297 55.5181 79.4871 56.0607 78.8176 56.0607C78.1482 56.0607 77.6055 55.5181 77.6055 54.8486C77.6055 54.1792 78.1482 53.6365 78.8176 53.6365Z" fill="black"/>
<path d="M25.4856 56.0605C26.155 56.0605 26.6977 56.6032 26.6977 57.2727C26.6977 57.9421 26.155 58.4848 25.4856 58.4848C24.8161 58.4848 24.2734 57.9421 24.2734 57.2727C24.2734 56.6032 24.8161 56.0605 25.4856 56.0605Z" fill="black"/>
<path d="M76.3918 56.0605C77.0613 56.0605 77.6039 56.6032 77.6039 57.2727C77.6039 57.9421 77.0613 58.4848 76.3918 58.4848C75.7224 58.4848 75.1797 57.9421 75.1797 57.2727C75.1797 56.6032 75.7224 56.0605 76.3918 56.0605Z" fill="black"/>
<path d="M78.8176 56.0608C79.4871 56.0608 80.0297 56.6035 80.0297 57.2729C80.0297 57.9423 79.4871 58.485 78.8176 58.485C78.1482 58.485 77.6055 57.9423 77.6055 57.2729C77.6055 56.6035 78.1482 56.0608 78.8176 56.0608Z" fill="black"/>
<path d="M90.9387 56.0608C91.6081 56.0608 92.1508 56.6035 92.1508 57.2729C92.1508 57.9423 91.6081 58.485 90.9387 58.485C90.2693 58.485 89.7266 57.9423 89.7266 57.2729C89.7266 56.6035 90.2693 56.0608 90.9387 56.0608Z" fill="black"/>
<path d="M23.0598 58.4854C23.7292 58.4854 24.2719 59.028 24.2719 59.6975C24.2719 60.3669 23.7292 60.9096 23.0598 60.9096C22.3903 60.9096 21.8477 60.3669 21.8477 59.6975C21.8477 59.028 22.3903 58.4854 23.0598 58.4854Z" fill="black"/>
<path d="M25.4856 58.4854C26.155 58.4854 26.6977 59.028 26.6977 59.6975C26.6977 60.3669 26.155 60.9096 25.4856 60.9096C24.8161 60.9096 24.2734 60.3669 24.2734 59.6975C24.2734 59.028 24.8161 58.4854 25.4856 58.4854Z" fill="black"/>
<path d="M27.9074 58.4854C28.5769 58.4854 29.1196 59.028 29.1196 59.6975C29.1196 60.3669 28.5769 60.9096 27.9074 60.9096C27.238 60.9096 26.6953 60.3669 26.6953 59.6975C26.6953 59.028 27.238 58.4854 27.9074 58.4854Z" fill="black"/>
<path d="M30.3332 58.4854C31.0027 58.4854 31.5453 59.028 31.5453 59.6975C31.5453 60.3669 31.0027 60.9096 30.3332 60.9096C29.6638 60.9096 29.1211 60.3669 29.1211 59.6975C29.1211 59.028 29.6638 58.4854 30.3332 58.4854Z" fill="black"/>
<path d="M37.6067 58.4854C38.2761 58.4854 38.8188 59.028 38.8188 59.6975C38.8188 60.3669 38.2761 60.9096 37.6067 60.9096C36.9372 60.9096 36.3945 60.3669 36.3945 59.6975C36.3945 59.028 36.9372 58.4854 37.6067 58.4854Z" fill="black"/>
<path d="M42.4543 58.4854C43.1238 58.4854 43.6664 59.028 43.6664 59.6975C43.6664 60.3669 43.1238 60.9096 42.4543 60.9096C41.7849 60.9096 41.2422 60.3669 41.2422 59.6975C41.2422 59.028 41.7849 58.4854 42.4543 58.4854Z" fill="black"/>
<path d="M69.1184 58.4854C69.7878 58.4854 70.3305 59.028 70.3305 59.6975C70.3305 60.3669 69.7878 60.9096 69.1184 60.9096C68.4489 60.9096 67.9062 60.3669 67.9062 59.6975C67.9062 59.028 68.4489 58.4854 69.1184 58.4854Z" fill="black"/>
<path d="M78.8176 58.4854C79.4871 58.4854 80.0297 59.028 80.0297 59.6975C80.0297 60.3669 79.4871 60.9096 78.8176 60.9096C78.1482 60.9096 77.6055 60.3669 77.6055 59.6975C77.6055 59.028 78.1482 58.4854 78.8176 58.4854Z" fill="black"/>
<path d="M81.2434 58.4854C81.9128 58.4854 82.4555 59.028 82.4555 59.6975C82.4555 60.3669 81.9128 60.9096 81.2434 60.9096C80.5739 60.9096 80.0312 60.3669 80.0312 59.6975C80.0312 59.028 80.5739 58.4854 81.2434 58.4854Z" fill="black"/>
<path d="M90.9387 58.4854C91.6081 58.4854 92.1508 59.028 92.1508 59.6975C92.1508 60.3669 91.6081 60.9096 90.9387 60.9096C90.2693 60.9096 89.7266 60.3669 89.7266 59.6975C89.7266 59.028 90.2693 58.4854 90.9387 58.4854Z" fill="black"/>
<path d="M32.759 60.9092C33.4285 60.9092 33.9711 61.4519 33.9711 62.1213C33.9711 62.7908 33.4285 63.3334 32.759 63.3334C32.0896 63.3334 31.5469 62.7908 31.5469 62.1213C31.5469 61.4519 32.0896 60.9092 32.759 60.9092Z" fill="black"/>
<path d="M35.1809 60.9092C35.8503 60.9092 36.393 61.4519 36.393 62.1214C36.393 62.7908 35.8503 63.3335 35.1809 63.3335C34.5114 63.3335 33.9688 62.7908 33.9688 62.1214C33.9688 61.4519 34.5114 60.9092 35.1809 60.9092Z" fill="black"/>
<path d="M42.4543 60.9092C43.1238 60.9092 43.6664 61.4519 43.6664 62.1213C43.6664 62.7908 43.1238 63.3334 42.4543 63.3334C41.7849 63.3334 41.2422 62.7908 41.2422 62.1213C41.2422 61.4519 41.7849 60.9092 42.4543 60.9092Z" fill="black"/>
<path d="M44.8762 60.9092C45.5456 60.9092 46.0883 61.4519 46.0883 62.1213C46.0883 62.7908 45.5456 63.3334 44.8762 63.3334C44.2068 63.3334 43.6641 62.7908 43.6641 62.1213C43.6641 61.4519 44.2068 60.9092 44.8762 60.9092Z" fill="black"/>
<path d="M52.1496 60.9092C52.8191 60.9092 53.3617 61.4519 53.3617 62.1213C53.3617 62.7908 52.8191 63.3334 52.1496 63.3334C51.4802 63.3334 50.9375 62.7908 50.9375 62.1213C50.9375 61.4519 51.4802 60.9092 52.1496 60.9092Z" fill="black"/>
<path d="M54.5754 60.9092C55.2449 60.9092 55.7875 61.4519 55.7875 62.1213C55.7875 62.7908 55.2449 63.3334 54.5754 63.3334C53.906 63.3334 53.3633 62.7908 53.3633 62.1213C53.3633 61.4519 53.906 60.9092 54.5754 60.9092Z" fill="black"/>
<path d="M59.4231 60.9092C60.0925 60.9092 60.6352 61.4519 60.6352 62.1213C60.6352 62.7908 60.0925 63.3334 59.4231 63.3334C58.7536 63.3334 58.2109 62.7908 58.2109 62.1213C58.2109 61.4519 58.7536 60.9092 59.4231 60.9092Z" fill="black"/>
<path d="M69.1223 60.9092C69.7917 60.9092 70.3344 61.4519 70.3344 62.1213C70.3344 62.7908 69.7917 63.3334 69.1223 63.3334C68.4528 63.3334 67.9102 62.7908 67.9102 62.1213C67.9102 61.4519 68.4528 60.9092 69.1223 60.9092Z" fill="black"/>
<path d="M71.5442 60.9092C72.2136 60.9092 72.7563 61.4519 72.7563 62.1213C72.7563 62.7908 72.2136 63.3334 71.5442 63.3334C70.8747 63.3334 70.332 62.7908 70.332 62.1213C70.332 61.4519 70.8747 60.9092 71.5442 60.9092Z" fill="black"/>
<path d="M73.9699 60.9092C74.6394 60.9092 75.1821 61.4519 75.1821 62.1213C75.1821 62.7908 74.6394 63.3334 73.9699 63.3334C73.3005 63.3334 72.7578 62.7908 72.7578 62.1213C72.7578 61.4519 73.3005 60.9092 73.9699 60.9092Z" fill="black"/>
<path d="M76.3918 60.9092C77.0613 60.9092 77.6039 61.4519 77.6039 62.1213C77.6039 62.7908 77.0613 63.3334 76.3918 63.3334C75.7224 63.3334 75.1797 62.7908 75.1797 62.1213C75.1797 61.4519 75.7224 60.9092 76.3918 60.9092Z" fill="black"/>
<path d="M78.8176 60.9092C79.4871 60.9092 80.0297 61.4519 80.0297 62.1214C80.0297 62.7908 79.4871 63.3335 78.8176 63.3335C78.1482 63.3335 77.6055 62.7908 77.6055 62.1214C77.6055 61.4519 78.1482 60.9092 78.8176 60.9092Z" fill="black"/>
<path d="M88.5129 60.9092C89.1824 60.9092 89.725 61.4519 89.725 62.1213C89.725 62.7908 89.1824 63.3334 88.5129 63.3334C87.8435 63.3334 87.3008 62.7908 87.3008 62.1213C87.3008 61.4519 87.8435 60.9092 88.5129 60.9092Z" fill="black"/>
<path d="M23.0598 63.333C23.7292 63.333 24.2719 63.8757 24.2719 64.5451C24.2719 65.2146 23.7292 65.7573 23.0598 65.7573C22.3903 65.7573 21.8477 65.2146 21.8477 64.5451C21.8477 63.8757 22.3903 63.333 23.0598 63.333Z" fill="black"/>
<path d="M25.4856 63.333C26.155 63.333 26.6977 63.8757 26.6977 64.5451C26.6977 65.2146 26.155 65.7573 25.4856 65.7573C24.8161 65.7573 24.2734 65.2146 24.2734 64.5451C24.2734 63.8757 24.8161 63.333 25.4856 63.333Z" fill="black"/>
<path d="M27.9074 63.333C28.5769 63.333 29.1196 63.8757 29.1196 64.5451C29.1196 65.2146 28.5769 65.7573 27.9074 65.7573C27.238 65.7573 26.6953 65.2146 26.6953 64.5451C26.6953 63.8757 27.238 63.333 27.9074 63.333Z" fill="black"/>
<path d="M32.759 63.333C33.4285 63.333 33.9711 63.8757 33.9711 64.5451C33.9711 65.2146 33.4285 65.7573 32.759 65.7573C32.0896 65.7573 31.5469 65.2146 31.5469 64.5451C31.5469 63.8757 32.0896 63.333 32.759 63.333Z" fill="black"/>
<path d="M37.6067 63.333C38.2761 63.333 38.8188 63.8757 38.8188 64.5451C38.8188 65.2146 38.2761 65.7573 37.6067 65.7573C36.9372 65.7573 36.3945 65.2146 36.3945 64.5451C36.3945 63.8757 36.9372 63.333 37.6067 63.333Z" fill="black"/>
<path d="M40.0285 63.333C40.698 63.333 41.2406 63.8757 41.2406 64.5451C41.2406 65.2146 40.698 65.7573 40.0285 65.7573C39.3591 65.7573 38.8164 65.2146 38.8164 64.5451C38.8164 63.8757 39.3591 63.333 40.0285 63.333Z" fill="black"/>
<path d="M42.4543 63.333C43.1238 63.333 43.6664 63.8757 43.6664 64.5451C43.6664 65.2146 43.1238 65.7573 42.4543 65.7573C41.7849 65.7573 41.2422 65.2146 41.2422 64.5451C41.2422 63.8757 41.7849 63.333 42.4543 63.333Z" fill="black"/>
<path d="M59.4231 63.333C60.0925 63.333 60.6352 63.8757 60.6352 64.5451C60.6352 65.2146 60.0925 65.7573 59.4231 65.7573C58.7536 65.7573 58.2109 65.2146 58.2109 64.5451C58.2109 63.8757 58.7536 63.333 59.4231 63.333Z" fill="black"/>
<path d="M61.8488 63.333C62.5183 63.333 63.061 63.8757 63.061 64.5451C63.061 65.2146 62.5183 65.7573 61.8488 65.7573C61.1794 65.7573 60.6367 65.2146 60.6367 64.5451C60.6367 63.8757 61.1794 63.333 61.8488 63.333Z" fill="black"/>
<path d="M66.6965 63.333C67.366 63.333 67.9086 63.8757 67.9086 64.5451C67.9086 65.2146 67.366 65.7573 66.6965 65.7573C66.0271 65.7573 65.4844 65.2146 65.4844 64.5451C65.4844 63.8757 66.0271 63.333 66.6965 63.333Z" fill="black"/>
<path d="M71.5442 63.333C72.2136 63.333 72.7563 63.8757 72.7563 64.5451C72.7563 65.2146 72.2136 65.7573 71.5442 65.7573C70.8747 65.7573 70.332 65.2146 70.332 64.5451C70.332 63.8757 70.8747 63.333 71.5442 63.333Z" fill="black"/>
<path d="M73.9699 63.333C74.6394 63.333 75.1821 63.8757 75.1821 64.5451C75.1821 65.2146 74.6394 65.7573 73.9699 65.7573C73.3005 65.7573 72.7578 65.2146 72.7578 64.5451C72.7578 63.8757 73.3005 63.333 73.9699 63.333Z" fill="black"/>
<path d="M76.3918 63.333C77.0613 63.333 77.6039 63.8757 77.6039 64.5451C77.6039 65.2146 77.0613 65.7573 76.3918 65.7573C75.7224 65.7573 75.1797 65.2146 75.1797 64.5451C75.1797 63.8757 75.7224 63.333 76.3918 63.333Z" fill="black"/>
<path d="M78.8176 63.333C79.4871 63.333 80.0297 63.8757 80.0297 64.5451C80.0297 65.2146 79.4871 65.7573 78.8176 65.7573C78.1482 65.7573 77.6055 65.2146 77.6055 64.5451C77.6055 63.8757 78.1482 63.333 78.8176 63.333Z" fill="black"/>
<path d="M81.2434 63.333C81.9128 63.333 82.4555 63.8757 82.4555 64.5451C82.4555 65.2146 81.9128 65.7573 81.2434 65.7573C80.5739 65.7573 80.0312 65.2146 80.0312 64.5451C80.0312 63.8757 80.5739 63.333 81.2434 63.333Z" fill="black"/>
<path d="M83.6652 63.333C84.3347 63.333 84.8774 63.8757 84.8774 64.5451C84.8774 65.2146 84.3347 65.7573 83.6652 65.7573C82.9958 65.7573 82.4531 65.2146 82.4531 64.5451C82.4531 63.8757 82.9958 63.333 83.6652 63.333Z" fill="black"/>
<path d="M90.9387 63.333C91.6081 63.333 92.1508 63.8757 92.1508 64.5451C92.1508 65.2146 91.6081 65.7573 90.9387 65.7573C90.2693 65.7573 89.7266 65.2146 89.7266 64.5451C89.7266 63.8757 90.2693 63.333 90.9387 63.333Z" fill="black"/>
<path d="M42.4543 65.7578C43.1238 65.7578 43.6664 66.3005 43.6664 66.9699C43.6664 67.6394 43.1238 68.1821 42.4543 68.1821C41.7849 68.1821 41.2422 67.6394 41.2422 66.9699C41.2422 66.3005 41.7849 65.7578 42.4543 65.7578Z" fill="black"/>
<path d="M44.8762 65.7578C45.5456 65.7578 46.0883 66.3005 46.0883 66.9699C46.0883 67.6394 45.5456 68.1821 44.8762 68.1821C44.2068 68.1821 43.6641 67.6394 43.6641 66.9699C43.6641 66.3005 44.2068 65.7578 44.8762 65.7578Z" fill="black"/>
<path d="M49.7277 65.7578C50.3972 65.7578 50.9399 66.3005 50.9399 66.9699C50.9399 67.6394 50.3972 68.1821 49.7277 68.1821C49.0583 68.1821 48.5156 67.6394 48.5156 66.9699C48.5156 66.3005 49.0583 65.7578 49.7277 65.7578Z" fill="black"/>
<path d="M54.5754 65.7578C55.2449 65.7578 55.7875 66.3005 55.7875 66.9699C55.7875 67.6394 55.2449 68.1821 54.5754 68.1821C53.906 68.1821 53.3633 67.6394 53.3633 66.9699C53.3633 66.3005 53.906 65.7578 54.5754 65.7578Z" fill="black"/>
<path d="M59.4231 65.7578C60.0925 65.7578 60.6352 66.3005 60.6352 66.9699C60.6352 67.6394 60.0925 68.1821 59.4231 68.1821C58.7536 68.1821 58.2109 67.6394 58.2109 66.9699C58.2109 66.3005 58.7536 65.7578 59.4231 65.7578Z" fill="black"/>
<path d="M61.8488 65.7578C62.5183 65.7578 63.061 66.3005 63.061 66.9699C63.061 67.6394 62.5183 68.1821 61.8488 68.1821C61.1794 68.1821 60.6367 67.6394 60.6367 66.9699C60.6367 66.3005 61.1794 65.7578 61.8488 65.7578Z" fill="black"/>
<path d="M71.5442 65.7578C72.2136 65.7578 72.7563 66.3005 72.7563 66.9699C72.7563 67.6394 72.2136 68.1821 71.5442 68.1821C70.8747 68.1821 70.332 67.6394 70.332 66.9699C70.332 66.3005 70.8747 65.7578 71.5442 65.7578Z" fill="black"/>
<path d="M81.2434 65.7578C81.9128 65.7578 82.4555 66.3005 82.4555 66.9699C82.4555 67.6394 81.9128 68.1821 81.2434 68.1821C80.5739 68.1821 80.0312 67.6394 80.0312 66.9699C80.0312 66.3005 80.5739 65.7578 81.2434 65.7578Z" fill="black"/>
<path d="M83.6652 65.7578C84.3347 65.7578 84.8774 66.3005 84.8774 66.9699C84.8774 67.6394 84.3347 68.1821 83.6652 68.1821C82.9958 68.1821 82.4531 67.6394 82.4531 66.9699C82.4531 66.3005 82.9958 65.7578 83.6652 65.7578Z" fill="black"/>
<path d="M90.9387 65.7577C91.6081 65.7577 92.1508 66.3004 92.1508 66.9698C92.1508 67.6393 91.6081 68.182 90.9387 68.182C90.2693 68.182 89.7266 67.6393 89.7266 66.9698C89.7266 66.3004 90.2693 65.7577 90.9387 65.7577Z" fill="black"/>
<path d="M42.4543 68.1816C43.1238 68.1816 43.6664 68.7243 43.6664 69.3938C43.6664 70.0632 43.1238 70.6059 42.4543 70.6059C41.7849 70.6059 41.2422 70.0632 41.2422 69.3938C41.2422 68.7243 41.7849 68.1816 42.4543 68.1816Z" fill="black"/>
<path d="M44.8762 68.1816C45.5456 68.1816 46.0883 68.7243 46.0883 69.3938C46.0883 70.0632 45.5456 70.6059 44.8762 70.6059C44.2068 70.6059 43.6641 70.0632 43.6641 69.3938C43.6641 68.7243 44.2068 68.1816 44.8762 68.1816Z" fill="black"/>
<path d="M47.302 68.1816C47.9714 68.1816 48.5141 68.7243 48.5141 69.3938C48.5141 70.0632 47.9714 70.6059 47.302 70.6059C46.6325 70.6059 46.0898 70.0632 46.0898 69.3938C46.0898 68.7243 46.6325 68.1816 47.302 68.1816Z" fill="black"/>
<path d="M49.7277 68.1816C50.3972 68.1816 50.9399 68.7243 50.9399 69.3938C50.9399 70.0632 50.3972 70.6059 49.7277 70.6059C49.0583 70.6059 48.5156 70.0632 48.5156 69.3938C48.5156 68.7243 49.0583 68.1816 49.7277 68.1816Z" fill="black"/>
<path d="M52.1496 68.1816C52.8191 68.1816 53.3617 68.7243 53.3617 69.3938C53.3617 70.0632 52.8191 70.6059 52.1496 70.6059C51.4802 70.6059 50.9375 70.0632 50.9375 69.3938C50.9375 68.7243 51.4802 68.1816 52.1496 68.1816Z" fill="black"/>
<path d="M54.5754 68.1816C55.2449 68.1816 55.7875 68.7243 55.7875 69.3938C55.7875 70.0632 55.2449 70.6059 54.5754 70.6059C53.906 70.6059 53.3633 70.0632 53.3633 69.3938C53.3633 68.7243 53.906 68.1816 54.5754 68.1816Z" fill="black"/>
<path d="M64.2707 68.1816C64.9402 68.1816 65.4828 68.7243 65.4828 69.3938C65.4828 70.0632 64.9402 70.6059 64.2707 70.6059C63.6013 70.6059 63.0586 70.0632 63.0586 69.3938C63.0586 68.7243 63.6013 68.1816 64.2707 68.1816Z" fill="black"/>
<path d="M66.6965 68.1816C67.366 68.1816 67.9086 68.7243 67.9086 69.3938C67.9086 70.0632 67.366 70.6059 66.6965 70.6059C66.0271 70.6059 65.4844 70.0632 65.4844 69.3938C65.4844 68.7243 66.0271 68.1816 66.6965 68.1816Z" fill="black"/>
<path d="M71.5442 68.1816C72.2136 68.1816 72.7563 68.7243 72.7563 69.3938C72.7563 70.0632 72.2136 70.6059 71.5442 70.6059C70.8747 70.6059 70.332 70.0632 70.332 69.3938C70.332 68.7243 70.8747 68.1816 71.5442 68.1816Z" fill="black"/>
<path d="M76.3918 68.1816C77.0613 68.1816 77.6039 68.7243 77.6039 69.3938C77.6039 70.0632 77.0613 70.6059 76.3918 70.6059C75.7224 70.6059 75.1797 70.0632 75.1797 69.3938C75.1797 68.7243 75.7224 68.1816 76.3918 68.1816Z" fill="black"/>
<path d="M81.2434 68.1816C81.9128 68.1816 82.4555 68.7243 82.4555 69.3938C82.4555 70.0632 81.9128 70.6059 81.2434 70.6059C80.5739 70.6059 80.0312 70.0632 80.0312 69.3938C80.0312 68.7243 80.5739 68.1816 81.2434 68.1816Z" fill="black"/>
<path d="M83.6652 68.1816C84.3347 68.1816 84.8774 68.7243 84.8774 69.3938C84.8774 70.0632 84.3347 70.6059 83.6652 70.6059C82.9958 70.6059 82.4531 70.0632 82.4531 69.3938C82.4531 68.7243 82.9958 68.1816 83.6652 68.1816Z" fill="black"/>
<path d="M86.091 68.1816C86.7605 68.1816 87.3031 68.7243 87.3031 69.3938C87.3031 70.0632 86.7605 70.6059 86.091 70.6059C85.4216 70.6059 84.8789 70.0632 84.8789 69.3938C84.8789 68.7243 85.4216 68.1816 86.091 68.1816Z" fill="black"/>
<path d="M90.9387 68.1816C91.6081 68.1816 92.1508 68.7243 92.1508 69.3938C92.1508 70.0632 91.6081 70.6059 90.9387 70.6059C90.2693 70.6059 89.7266 70.0632 89.7266 69.3938C89.7266 68.7243 90.2693 68.1816 90.9387 68.1816Z" fill="black"/>
<path d="M42.4543 70.6064C43.1238 70.6064 43.6664 71.1491 43.6664 71.8186C43.6664 72.488 43.1238 73.0307 42.4543 73.0307C41.7849 73.0307 41.2422 72.488 41.2422 71.8186C41.2422 71.1491 41.7849 70.6064 42.4543 70.6064Z" fill="black"/>
<path d="M44.8762 70.6064C45.5456 70.6064 46.0883 71.1491 46.0883 71.8186C46.0883 72.488 45.5456 73.0307 44.8762 73.0307C44.2068 73.0307 43.6641 72.488 43.6641 71.8186C43.6641 71.1491 44.2068 70.6064 44.8762 70.6064Z" fill="black"/>
<path d="M59.4231 70.6064C60.0925 70.6064 60.6352 71.1491 60.6352 71.8186C60.6352 72.488 60.0925 73.0307 59.4231 73.0307C58.7536 73.0307 58.2109 72.488 58.2109 71.8186C58.2109 71.1491 58.7536 70.6064 59.4231 70.6064Z" fill="black"/>
<path d="M61.8488 70.6064C62.5183 70.6064 63.061 71.1491 63.061 71.8186C63.061 72.488 62.5183 73.0307 61.8488 73.0307C61.1794 73.0307 60.6367 72.488 60.6367 71.8186C60.6367 71.1491 61.1794 70.6064 61.8488 70.6064Z" fill="black"/>
<path d="M64.2707 70.6064C64.9402 70.6064 65.4828 71.1491 65.4828 71.8186C65.4828 72.488 64.9402 73.0307 64.2707 73.0307C63.6013 73.0307 63.0586 72.488 63.0586 71.8186C63.0586 71.1491 63.6013 70.6064 64.2707 70.6064Z" fill="black"/>
<path d="M69.1223 70.6064C69.7917 70.6064 70.3344 71.1491 70.3344 71.8186C70.3344 72.488 69.7917 73.0307 69.1223 73.0307C68.4528 73.0307 67.9102 72.488 67.9102 71.8186C67.9102 71.1491 68.4528 70.6064 69.1223 70.6064Z" fill="black"/>
<path d="M71.5442 70.6064C72.2136 70.6064 72.7563 71.1491 72.7563 71.8186C72.7563 72.488 72.2136 73.0307 71.5442 73.0307C70.8747 73.0307 70.332 72.488 70.332 71.8186C70.332 71.1491 70.8747 70.6064 71.5442 70.6064Z" fill="black"/>
<path d="M81.2434 70.6064C81.9128 70.6064 82.4555 71.1491 82.4555 71.8186C82.4555 72.488 81.9128 73.0307 81.2434 73.0307C80.5739 73.0307 80.0312 72.488 80.0312 71.8186C80.0312 71.1491 80.5739 70.6064 81.2434 70.6064Z" fill="black"/>
<path d="M83.6652 70.6064C84.3347 70.6064 84.8774 71.1491 84.8774 71.8186C84.8774 72.488 84.3347 73.0307 83.6652 73.0307C82.9958 73.0307 82.4531 72.488 82.4531 71.8186C82.4531 71.1491 82.9958 70.6064 83.6652 70.6064Z" fill="black"/>
<path d="M90.9387 70.6062C91.6081 70.6062 92.1508 71.1489 92.1508 71.8183C92.1508 72.4878 91.6081 73.0304 90.9387 73.0304C90.2693 73.0304 89.7266 72.4878 89.7266 71.8183C89.7266 71.1489 90.2693 70.6062 90.9387 70.6062Z" fill="black"/>
<path d="M49.7277 73.0303C50.3972 73.0303 50.9399 73.573 50.9399 74.2424C50.9399 74.9119 50.3972 75.4545 49.7277 75.4545C49.0583 75.4545 48.5156 74.9119 48.5156 74.2424C48.5156 73.573 49.0583 73.0303 49.7277 73.0303Z" fill="black"/>
<path d="M64.2707 73.0303C64.9402 73.0303 65.4828 73.573 65.4828 74.2424C65.4828 74.9119 64.9402 75.4545 64.2707 75.4545C63.6013 75.4545 63.0586 74.9119 63.0586 74.2424C63.0586 73.573 63.6013 73.0303 64.2707 73.0303Z" fill="black"/>
<path d="M66.6965 73.0303C67.366 73.0303 67.9086 73.573 67.9086 74.2424C67.9086 74.9119 67.366 75.4545 66.6965 75.4545C66.0271 75.4545 65.4844 74.9119 65.4844 74.2424C65.4844 73.573 66.0271 73.0303 66.6965 73.0303Z" fill="black"/>
<path d="M69.1223 73.0303C69.7917 73.0303 70.3344 73.573 70.3344 74.2424C70.3344 74.9119 69.7917 75.4545 69.1223 75.4545C68.4528 75.4545 67.9102 74.9119 67.9102 74.2424C67.9102 73.573 68.4528 73.0303 69.1223 73.0303Z" fill="black"/>
<path d="M71.5442 73.0303C72.2136 73.0303 72.7563 73.573 72.7563 74.2424C72.7563 74.9119 72.2136 75.4545 71.5442 75.4545C70.8747 75.4545 70.332 74.9119 70.332 74.2424C70.332 73.573 70.8747 73.0303 71.5442 73.0303Z" fill="black"/>
<path d="M73.9699 73.0303C74.6394 73.0303 75.1821 73.573 75.1821 74.2424C75.1821 74.9119 74.6394 75.4545 73.9699 75.4545C73.3005 75.4545 72.7578 74.9119 72.7578 74.2424C72.7578 73.573 73.3005 73.0303 73.9699 73.0303Z" fill="black"/>
<path d="M76.3918 73.0303C77.0613 73.0303 77.6039 73.573 77.6039 74.2424C77.6039 74.9119 77.0613 75.4545 76.3918 75.4545C75.7224 75.4545 75.1797 74.9119 75.1797 74.2424C75.1797 73.573 75.7224 73.0303 76.3918 73.0303Z" fill="black"/>
<path d="M78.8176 73.0305C79.4871 73.0305 80.0297 73.5731 80.0297 74.2426C80.0297 74.912 79.4871 75.4547 78.8176 75.4547C78.1482 75.4547 77.6055 74.912 77.6055 74.2426C77.6055 73.5731 78.1482 73.0305 78.8176 73.0305Z" fill="black"/>
<path d="M81.2434 73.0303C81.9128 73.0303 82.4555 73.573 82.4555 74.2424C82.4555 74.9119 81.9128 75.4545 81.2434 75.4545C80.5739 75.4545 80.0312 74.9119 80.0312 74.2424C80.0312 73.573 80.5739 73.0303 81.2434 73.0303Z" fill="black"/>
<path d="M88.5129 73.0303C89.1824 73.0303 89.725 73.573 89.725 74.2424C89.725 74.9119 89.1824 75.4545 88.5129 75.4545C87.8435 75.4545 87.3008 74.9119 87.3008 74.2424C87.3008 73.573 87.8435 73.0303 88.5129 73.0303Z" fill="black"/>
<path d="M90.9387 73.0305C91.6081 73.0305 92.1508 73.5731 92.1508 74.2426C92.1508 74.912 91.6081 75.4547 90.9387 75.4547C90.2693 75.4547 89.7266 74.912 89.7266 74.2426C89.7266 73.5731 90.2693 73.0305 90.9387 73.0305Z" fill="black"/>
<path d="M52.1496 75.4551C52.8191 75.4551 53.3617 75.9978 53.3617 76.6672C53.3617 77.3367 52.8191 77.8793 52.1496 77.8793C51.4802 77.8793 50.9375 77.3367 50.9375 76.6672C50.9375 75.9978 51.4802 75.4551 52.1496 75.4551Z" fill="black"/>
<path d="M54.5754 75.4551C55.2449 75.4551 55.7875 75.9978 55.7875 76.6672C55.7875 77.3367 55.2449 77.8793 54.5754 77.8793C53.906 77.8793 53.3633 77.3367 53.3633 76.6672C53.3633 75.9978 53.906 75.4551 54.5754 75.4551Z" fill="black"/>
<path d="M57.0012 75.4551C57.6706 75.4551 58.2133 75.9978 58.2133 76.6672C58.2133 77.3367 57.6706 77.8793 57.0012 77.8793C56.3318 77.8793 55.7891 77.3367 55.7891 76.6672C55.7891 75.9978 56.3318 75.4551 57.0012 75.4551Z" fill="black"/>
<path d="M61.8488 75.4551C62.5183 75.4551 63.061 75.9978 63.061 76.6672C63.061 77.3367 62.5183 77.8793 61.8488 77.8793C61.1794 77.8793 60.6367 77.3367 60.6367 76.6672C60.6367 75.9978 61.1794 75.4551 61.8488 75.4551Z" fill="black"/>
<path d="M64.2707 75.4551C64.9402 75.4551 65.4828 75.9978 65.4828 76.6672C65.4828 77.3367 64.9402 77.8793 64.2707 77.8793C63.6013 77.8793 63.0586 77.3367 63.0586 76.6672C63.0586 75.9978 63.6013 75.4551 64.2707 75.4551Z" fill="black"/>
<path d="M69.1184 75.4551C69.7878 75.4551 70.3305 75.9978 70.3305 76.6672C70.3305 77.3367 69.7878 77.8793 69.1184 77.8793C68.4489 77.8793 67.9062 77.3367 67.9062 76.6672C67.9062 75.9978 68.4489 75.4551 69.1184 75.4551Z" fill="black"/>
<path d="M71.5442 75.4551C72.2136 75.4551 72.7563 75.9978 72.7563 76.6672C72.7563 77.3367 72.2136 77.8793 71.5442 77.8793C70.8747 77.8793 70.332 77.3367 70.332 76.6672C70.332 75.9978 70.8747 75.4551 71.5442 75.4551Z" fill="black"/>
<path d="M78.8176 75.4551C79.4871 75.4551 80.0297 75.9978 80.0297 76.6672C80.0297 77.3367 79.4871 77.8793 78.8176 77.8793C78.1482 77.8793 77.6055 77.3367 77.6055 76.6672C77.6055 75.9978 78.1482 75.4551 78.8176 75.4551Z" fill="black"/>
<path d="M81.2434 75.4551C81.9128 75.4551 82.4555 75.9978 82.4555 76.6672C82.4555 77.3367 81.9128 77.8793 81.2434 77.8793C80.5739 77.8793 80.0312 77.3367 80.0312 76.6672C80.0312 75.9978 80.5739 75.4551 81.2434 75.4551Z" fill="black"/>
<path d="M83.6652 75.4551C84.3347 75.4551 84.8774 75.9978 84.8774 76.6672C84.8774 77.3367 84.3347 77.8793 83.6652 77.8793C82.9958 77.8793 82.4531 77.3367 82.4531 76.6672C82.4531 75.9978 82.9958 75.4551 83.6652 75.4551Z" fill="black"/>
<path d="M86.091 75.4551C86.7605 75.4551 87.3031 75.9978 87.3031 76.6672C87.3031 77.3367 86.7605 77.8793 86.091 77.8793C85.4216 77.8793 84.8789 77.3367 84.8789 76.6672C84.8789 75.9978 85.4216 75.4551 86.091 75.4551Z" fill="black"/>
<path d="M88.5129 75.4551C89.1824 75.4551 89.725 75.9978 89.725 76.6672C89.725 77.3367 89.1824 77.8793 88.5129 77.8793C87.8435 77.8793 87.3008 77.3367 87.3008 76.6672C87.3008 75.9978 87.8435 75.4551 88.5129 75.4551Z" fill="black"/>
<path d="M42.4543 77.8789C43.1238 77.8789 43.6664 78.4216 43.6664 79.091C43.6664 79.7605 43.1238 80.3031 42.4543 80.3031C41.7849 80.3031 41.2422 79.7605 41.2422 79.091C41.2422 78.4216 41.7849 77.8789 42.4543 77.8789Z" fill="black"/>
<path d="M49.7277 77.8789C50.3972 77.8789 50.9399 78.4216 50.9399 79.091C50.9399 79.7605 50.3972 80.3031 49.7277 80.3031C49.0583 80.3031 48.5156 79.7605 48.5156 79.091C48.5156 78.4216 49.0583 77.8789 49.7277 77.8789Z" fill="black"/>
<path d="M52.1496 77.8789C52.8191 77.8789 53.3617 78.4216 53.3617 79.091C53.3617 79.7605 52.8191 80.3031 52.1496 80.3031C51.4802 80.3031 50.9375 79.7605 50.9375 79.091C50.9375 78.4216 51.4802 77.8789 52.1496 77.8789Z" fill="black"/>
<path d="M64.2707 77.8789C64.9402 77.8789 65.4828 78.4216 65.4828 79.091C65.4828 79.7605 64.9402 80.3031 64.2707 80.3031C63.6013 80.3031 63.0586 79.7605 63.0586 79.091C63.0586 78.4216 63.6013 77.8789 64.2707 77.8789Z" fill="black"/>
<path d="M73.9699 77.8789C74.6394 77.8789 75.1821 78.4216 75.1821 79.091C75.1821 79.7605 74.6394 80.3031 73.9699 80.3031C73.3005 80.3031 72.7578 79.7605 72.7578 79.091C72.7578 78.4216 73.3005 77.8789 73.9699 77.8789Z" fill="black"/>
<path d="M81.2434 77.8789C81.9128 77.8789 82.4555 78.4216 82.4555 79.091C82.4555 79.7605 81.9128 80.3031 81.2434 80.3031C80.5739 80.3031 80.0312 79.7605 80.0312 79.091C80.0312 78.4216 80.5739 77.8789 81.2434 77.8789Z" fill="black"/>
<path d="M83.6652 77.8789C84.3347 77.8789 84.8774 78.4216 84.8774 79.091C84.8774 79.7605 84.3347 80.3031 83.6652 80.3031C82.9958 80.3031 82.4531 79.7605 82.4531 79.091C82.4531 78.4216 82.9958 77.8789 83.6652 77.8789Z" fill="black"/>
<path d="M88.5129 77.8789C89.1824 77.8789 89.725 78.4216 89.725 79.091C89.725 79.7605 89.1824 80.3031 88.5129 80.3031C87.8435 80.3031 87.3008 79.7605 87.3008 79.091C87.3008 78.4216 87.8435 77.8789 88.5129 77.8789Z" fill="black"/>
<path d="M90.9387 77.8789C91.6081 77.8789 92.1508 78.4216 92.1508 79.0911C92.1508 79.7605 91.6081 80.3032 90.9387 80.3032C90.2693 80.3032 89.7266 79.7605 89.7266 79.0911C89.7266 78.4216 90.2693 77.8789 90.9387 77.8789Z" fill="black"/>
<path d="M47.302 80.3027C47.9714 80.3027 48.5141 80.8454 48.5141 81.5149C48.5141 82.1843 47.9714 82.727 47.302 82.727C46.6325 82.727 46.0898 82.1843 46.0898 81.5149C46.0898 80.8454 46.6325 80.3027 47.302 80.3027Z" fill="black"/>
<path d="M49.7277 80.3027C50.3972 80.3027 50.9399 80.8454 50.9399 81.5149C50.9399 82.1843 50.3972 82.727 49.7277 82.727C49.0583 82.727 48.5156 82.1843 48.5156 81.5149C48.5156 80.8454 49.0583 80.3027 49.7277 80.3027Z" fill="black"/>
<path d="M54.5754 80.3027C55.2449 80.3027 55.7875 80.8454 55.7875 81.5149C55.7875 82.1843 55.2449 82.727 54.5754 82.727C53.906 82.727 53.3633 82.1843 53.3633 81.5149C53.3633 80.8454 53.906 80.3027 54.5754 80.3027Z" fill="black"/>
<path d="M57.0012 80.3027C57.6706 80.3027 58.2133 80.8454 58.2133 81.5149C58.2133 82.1843 57.6706 82.727 57.0012 82.727C56.3318 82.727 55.7891 82.1843 55.7891 81.5149C55.7891 80.8454 56.3318 80.3027 57.0012 80.3027Z" fill="black"/>
<path d="M59.4231 80.3027C60.0925 80.3027 60.6352 80.8454 60.6352 81.5149C60.6352 82.1843 60.0925 82.727 59.4231 82.727C58.7536 82.727 58.2109 82.1843 58.2109 81.5149C58.2109 80.8454 58.7536 80.3027 59.4231 80.3027Z" fill="black"/>
<path d="M61.8488 80.3027C62.5183 80.3027 63.061 80.8454 63.061 81.5149C63.061 82.1843 62.5183 82.727 61.8488 82.727C61.1794 82.727 60.6367 82.1843 60.6367 81.5149C60.6367 80.8454 61.1794 80.3027 61.8488 80.3027Z" fill="black"/>
<path d="M64.2707 80.3027C64.9402 80.3027 65.4828 80.8454 65.4828 81.5149C65.4828 82.1843 64.9402 82.727 64.2707 82.727C63.6013 82.727 63.0586 82.1843 63.0586 81.5149C63.0586 80.8454 63.6013 80.3027 64.2707 80.3027Z" fill="black"/>
<path d="M66.6965 80.3027C67.366 80.3027 67.9086 80.8454 67.9086 81.5149C67.9086 82.1843 67.366 82.727 66.6965 82.727C66.0271 82.727 65.4844 82.1843 65.4844 81.5149C65.4844 80.8454 66.0271 80.3027 66.6965 80.3027Z" fill="black"/>
<path d="M71.5442 80.3027C72.2136 80.3027 72.7563 80.8454 72.7563 81.5149C72.7563 82.1843 72.2136 82.727 71.5442 82.727C70.8747 82.727 70.332 82.1843 70.332 81.5149C70.332 80.8454 70.8747 80.3027 71.5442 80.3027Z" fill="black"/>
<path d="M76.3918 80.3027C77.0613 80.3027 77.6039 80.8454 77.6039 81.5149C77.6039 82.1843 77.0613 82.727 76.3918 82.727C75.7224 82.727 75.1797 82.1843 75.1797 81.5149C75.1797 80.8454 75.7224 80.3027 76.3918 80.3027Z" fill="black"/>
<path d="M83.6652 80.3027C84.3347 80.3027 84.8774 80.8454 84.8774 81.5149C84.8774 82.1843 84.3347 82.727 83.6652 82.727C82.9958 82.727 82.4531 82.1843 82.4531 81.5149C82.4531 80.8454 82.9958 80.3027 83.6652 80.3027Z" fill="black"/>
<path d="M47.302 82.7274C47.9714 82.7274 48.5141 83.2701 48.5141 83.9395C48.5141 84.609 47.9714 85.1517 47.302 85.1517C46.6325 85.1517 46.0898 84.609 46.0898 83.9395C46.0898 83.2701 46.6325 82.7274 47.302 82.7274Z" fill="black"/>
<path d="M52.1496 82.7275C52.8191 82.7275 53.3617 83.2702 53.3617 83.9397C53.3617 84.6091 52.8191 85.1518 52.1496 85.1518C51.4802 85.1518 50.9375 84.6091 50.9375 83.9397C50.9375 83.2702 51.4802 82.7275 52.1496 82.7275Z" fill="black"/>
<path d="M56.9973 82.7275C57.6667 82.7275 58.2094 83.2702 58.2094 83.9397C58.2094 84.6091 57.6667 85.1518 56.9973 85.1518C56.3278 85.1518 55.7852 84.6091 55.7852 83.9397C55.7852 83.2702 56.3278 82.7275 56.9973 82.7275Z" fill="black"/>
<path d="M59.4231 82.7275C60.0925 82.7275 60.6352 83.2702 60.6352 83.9397C60.6352 84.6091 60.0925 85.1518 59.4231 85.1518C58.7536 85.1518 58.2109 84.6091 58.2109 83.9397C58.2109 83.2702 58.7536 82.7275 59.4231 82.7275Z" fill="black"/>
<path d="M61.8488 82.7275C62.5183 82.7275 63.061 83.2702 63.061 83.9397C63.061 84.6091 62.5183 85.1518 61.8488 85.1518C61.1794 85.1518 60.6367 84.6091 60.6367 83.9397C60.6367 83.2702 61.1794 82.7275 61.8488 82.7275Z" fill="black"/>
<path d="M66.6965 82.7275C67.366 82.7275 67.9086 83.2702 67.9086 83.9397C67.9086 84.6091 67.366 85.1518 66.6965 85.1518C66.0271 85.1518 65.4844 84.6091 65.4844 83.9397C65.4844 83.2702 66.0271 82.7275 66.6965 82.7275Z" fill="black"/>
<path d="M69.1223 82.7275C69.7917 82.7275 70.3344 83.2702 70.3344 83.9397C70.3344 84.6091 69.7917 85.1518 69.1223 85.1518C68.4528 85.1518 67.9102 84.6091 67.9102 83.9397C67.9102 83.2702 68.4528 82.7275 69.1223 82.7275Z" fill="black"/>
<path d="M71.5442 82.7275C72.2136 82.7275 72.7563 83.2702 72.7563 83.9397C72.7563 84.6091 72.2136 85.1518 71.5442 85.1518C70.8747 85.1518 70.332 84.6091 70.332 83.9397C70.332 83.2702 70.8747 82.7275 71.5442 82.7275Z" fill="black"/>
<path d="M73.9699 82.7275C74.6394 82.7275 75.1821 83.2702 75.1821 83.9397C75.1821 84.6091 74.6394 85.1518 73.9699 85.1518C73.3005 85.1518 72.7578 84.6091 72.7578 83.9397C72.7578 83.2702 73.3005 82.7275 73.9699 82.7275Z" fill="black"/>
<path d="M76.3918 82.7275C77.0613 82.7275 77.6039 83.2702 77.6039 83.9397C77.6039 84.6091 77.0613 85.1518 76.3918 85.1518C75.7224 85.1518 75.1797 84.6091 75.1797 83.9397C75.1797 83.2702 75.7224 82.7275 76.3918 82.7275Z" fill="black"/>
<path d="M78.8176 82.7274C79.4871 82.7274 80.0297 83.2701 80.0297 83.9395C80.0297 84.609 79.4871 85.1517 78.8176 85.1517C78.1482 85.1517 77.6055 84.609 77.6055 83.9395C77.6055 83.2701 78.1482 82.7274 78.8176 82.7274Z" fill="black"/>
<path d="M81.2434 82.7275C81.9128 82.7275 82.4555 83.2702 82.4555 83.9397C82.4555 84.6091 81.9128 85.1518 81.2434 85.1518C80.5739 85.1518 80.0312 84.6091 80.0312 83.9397C80.0312 83.2702 80.5739 82.7275 81.2434 82.7275Z" fill="black"/>
<path d="M90.9387 82.7274C91.6081 82.7274 92.1508 83.2701 92.1508 83.9395C92.1508 84.609 91.6081 85.1517 90.9387 85.1517C90.2693 85.1517 89.7266 84.609 89.7266 83.9395C89.7266 83.2701 90.2693 82.7274 90.9387 82.7274Z" fill="black"/>
<path d="M33.0237 14.8496H27.6413C25.0181 14.8496 22.7958 16.5827 22.0852 18.9515C22.0118 19.1966 21.9544 19.4484 21.9145 19.7058C21.8706 19.9899 21.8477 20.2808 21.8477 20.5769V26.0871C21.8477 29.2467 24.4474 31.8161 27.6413 31.8161L30.3325 31.8166L33.0237 31.8159C36.2174 31.8159 38.8174 29.2465 38.8174 26.0869V20.5769C38.8174 17.4188 36.2176 14.8496 33.0237 14.8496ZM36.2719 26.0871C36.2719 27.8425 34.8149 29.2706 33.0231 29.2706L30.3325 29.2711L27.642 29.2705C25.8501 29.2705 24.3931 27.8423 24.3931 26.0871V20.5769C24.3931 20.0286 24.5353 19.5124 24.7856 19.0613C25.0266 18.6274 25.3675 18.2542 25.778 17.9717C26.3058 17.6084 26.9484 17.3951 27.6411 17.3951H33.0237C34.8149 17.3951 36.2719 18.8224 36.2719 20.5769V26.0871Z" fill="black"/>
<path d="M86.3558 14.8496H80.9733C78.3501 14.8496 76.1278 16.5827 75.4173 18.9515C75.3438 19.1966 75.2864 19.4484 75.2465 19.7058C75.2026 19.9899 75.1797 20.2808 75.1797 20.5769V26.0871C75.1797 29.2467 77.7794 31.8161 80.9733 31.8161L83.6645 31.8166L86.3558 31.8159C89.5495 31.8159 92.1494 29.2465 92.1494 26.0869V20.5769C92.1494 17.4188 89.5496 14.8496 86.3558 14.8496ZM89.6039 26.0871C89.6039 27.8425 88.1469 29.2706 86.3551 29.2706L83.6645 29.2711L80.974 29.2705C79.1822 29.2705 77.7251 27.8423 77.7251 26.0871V20.5769C77.7251 20.0286 77.8673 19.5124 78.1177 19.0613C78.3586 18.6274 78.6995 18.2542 79.11 17.9717C79.6378 17.6084 80.2804 17.3951 80.9731 17.3951H86.3558C88.1469 17.3951 89.6039 18.8224 89.6039 20.5769V26.0871Z" fill="black"/>
<path d="M33.0237 68.1836H27.6413C25.0181 68.1836 22.7958 69.9167 22.0852 72.2855C22.0118 72.5306 21.9544 72.7824 21.9145 73.0398C21.8706 73.3239 21.8477 73.6147 21.8477 73.9109V79.4211C21.8477 82.5807 24.4474 85.1501 27.6413 85.1501L30.3325 85.1506L33.0237 85.1499C36.2174 85.1499 38.8174 82.5805 38.8174 79.4209V73.9109C38.8174 70.7528 36.2176 68.1836 33.0237 68.1836ZM36.2719 79.4211C36.2719 81.1764 34.8149 82.6046 33.0231 82.6046L30.3325 82.6051L27.642 82.6044C25.8501 82.6044 24.3931 81.1763 24.3931 79.4211V73.9109C24.3931 73.3626 24.5353 72.8464 24.7856 72.3953C25.0266 71.9614 25.3675 71.5882 25.778 71.3057C26.3058 70.9424 26.9484 70.729 27.6411 70.729H33.0237C34.8149 70.729 36.2719 72.1564 36.2719 73.9109V79.4211Z" fill="black"/>
<path d="M28.6855 26.9698C27.588 26.9698 26.6953 26.0948 26.6953 25.0202V21.6458C26.6953 21.3101 26.7826 20.9941 26.9354 20.7177C27.0829 20.4517 27.2918 20.223 27.5434 20.0505C27.8665 19.8281 28.2604 19.6971 28.6844 19.6971H31.9809C33.0773 19.6971 33.9701 20.5711 33.9701 21.6457V25.0201C33.9701 26.0946 33.0774 26.9698 31.9809 26.9698H30.3327L28.6855 26.9698Z" fill="black"/>
<path d="M82.0175 26.97C80.9201 26.97 80.0273 26.0949 80.0273 25.0203V21.6459C80.0273 21.3102 80.1146 20.9943 80.2674 20.7178C80.415 20.4518 80.6239 20.2232 80.8754 20.0506C81.1985 19.8282 81.5924 19.6973 82.0164 19.6973H85.3129C86.4094 19.6973 87.3021 20.5713 87.3021 21.6458V25.0202C87.3021 26.0948 86.4095 26.9699 85.3129 26.9699H83.6647L82.0175 26.97Z" fill="black"/>
<path d="M28.6855 80.3032C27.588 80.3032 26.6953 79.4281 26.6953 78.3535V74.9791C26.6953 74.6434 26.7826 74.3275 26.9354 74.051C27.0829 73.785 27.2918 73.5563 27.5434 73.3838C27.8665 73.1614 28.2604 73.0305 28.6844 73.0305H31.9809C33.0773 73.0305 33.9701 73.9045 33.9701 74.979V78.3534C33.9701 79.428 33.0774 80.3031 31.9809 80.3031H30.3327L28.6855 80.3032Z" fill="black"/>
<path d="M57.0048 45.4429C57.767 45.4429 58.2751 44.9543 58.2751 44.2312C58.2751 43.5081 57.767 43 57.0048 43C56.2035 43 55.6954 43.5081 55.6954 44.2312C55.6954 44.9543 56.2035 45.4429 57.0048 45.4429ZM55.8713 56.68H58.2751C58.5096 56.68 58.6855 56.5823 58.6855 56.4259V56.3478C58.6855 55.9765 57.9038 55.9765 57.9038 55.2925V47.4558C57.9038 47.1822 57.7083 46.9867 57.2979 47.1822L55.7931 47.9248C55.6173 48.0225 55.5 48.0811 55.5 48.2179V48.257C55.5 48.5502 56.2035 48.7065 56.2035 49.4687V55.2925C56.2035 55.9765 55.5 55.9765 55.5 56.3478V56.4259C55.5 56.5823 55.6368 56.68 55.8713 56.68Z" fill="black"/>
</svg>
