<svg width="98" height="98" viewBox="0 0 98 98" fill="none" xmlns="http://www.w3.org/2000/svg">
<path d="M36.8762 14.8485C37.5456 14.8485 38.0883 15.3912 38.0883 16.0606C38.0883 16.7301 37.5456 17.2728 36.8762 17.2728C36.2068 17.2728 35.6641 16.7301 35.6641 16.0606C35.6641 15.3912 36.2068 14.8485 36.8762 14.8485Z" fill="#C8C4C2"/>
<path d="M44.1496 14.8485C44.8191 14.8485 45.3617 15.3912 45.3617 16.0606C45.3617 16.7301 44.8191 17.2728 44.1496 17.2728C43.4802 17.2728 42.9375 16.7301 42.9375 16.0606C42.9375 15.3912 43.4802 14.8485 44.1496 14.8485Z" fill="#C8C4C2"/>
<path d="M46.5754 14.8485C47.2449 14.8485 47.7875 15.3912 47.7875 16.0606C47.7875 16.7301 47.2449 17.2728 46.5754 17.2728C45.906 17.2728 45.3633 16.7301 45.3633 16.0606C45.3633 15.3912 45.906 14.8485 46.5754 14.8485Z" fill="#C8C4C2"/>
<path d="M48.9973 14.8485C49.6667 14.8485 50.2094 15.3912 50.2094 16.0606C50.2094 16.7301 49.6667 17.2728 48.9973 17.2728C48.3278 17.2728 47.7852 16.7301 47.7852 16.0606C47.7852 15.3912 48.3278 14.8485 48.9973 14.8485Z" fill="#C8C4C2"/>
<path d="M53.8488 14.8485C54.5183 14.8485 55.061 15.3912 55.061 16.0606C55.061 16.7301 54.5183 17.2728 53.8488 17.2728C53.1794 17.2728 52.6367 16.7301 52.6367 16.0606C52.6367 15.3912 53.1794 14.8485 53.8488 14.8485Z" fill="#C8C4C2"/>
<path d="M56.2707 14.8485C56.9402 14.8485 57.4828 15.3912 57.4828 16.0606C57.4828 16.7301 56.9402 17.2728 56.2707 17.2728C55.6013 17.2728 55.0586 16.7301 55.0586 16.0606C55.0586 15.3912 55.6013 14.8485 56.2707 14.8485Z" fill="#C8C4C2"/>
<path d="M61.1223 14.8485C61.7917 14.8485 62.3344 15.3912 62.3344 16.0606C62.3344 16.7301 61.7917 17.2728 61.1223 17.2728C60.4528 17.2728 59.9102 16.7301 59.9102 16.0606C59.9102 15.3912 60.4528 14.8485 61.1223 14.8485Z" fill="#C8C4C2"/>
<path d="M63.5442 14.8485C64.2136 14.8485 64.7563 15.3912 64.7563 16.0606C64.7563 16.7301 64.2136 17.2728 63.5442 17.2728C62.8747 17.2728 62.332 16.7301 62.332 16.0606C62.332 15.3912 62.8747 14.8485 63.5442 14.8485Z" fill="#C8C4C2"/>
<path d="M34.4543 17.2723C35.1238 17.2723 35.6664 17.815 35.6664 18.4845C35.6664 19.1539 35.1238 19.6966 34.4543 19.6966C33.7849 19.6966 33.2422 19.1539 33.2422 18.4845C33.2422 17.815 33.7849 17.2723 34.4543 17.2723Z" fill="#C8C4C2"/>
<path d="M36.8762 17.2723C37.5456 17.2723 38.0883 17.815 38.0883 18.4845C38.0883 19.1539 37.5456 19.6966 36.8762 19.6966C36.2068 19.6966 35.6641 19.1539 35.6641 18.4845C35.6641 17.815 36.2068 17.2723 36.8762 17.2723Z" fill="#C8C4C2"/>
<path d="M39.302 17.2723C39.9714 17.2723 40.5141 17.815 40.5141 18.4845C40.5141 19.1539 39.9714 19.6966 39.302 19.6966C38.6325 19.6966 38.0898 19.1539 38.0898 18.4845C38.0898 17.815 38.6325 17.2723 39.302 17.2723Z" fill="#C8C4C2"/>
<path d="M41.7277 17.2723C42.3972 17.2723 42.9399 17.815 42.9399 18.4845C42.9399 19.1539 42.3972 19.6966 41.7277 19.6966C41.0583 19.6966 40.5156 19.1539 40.5156 18.4845C40.5156 17.815 41.0583 17.2723 41.7277 17.2723Z" fill="#C8C4C2"/>
<path d="M46.5754 17.2723C47.2449 17.2723 47.7875 17.815 47.7875 18.4845C47.7875 19.1539 47.2449 19.6966 46.5754 19.6966C45.906 19.6966 45.3633 19.1539 45.3633 18.4845C45.3633 17.815 45.906 17.2723 46.5754 17.2723Z" fill="#C8C4C2"/>
<path d="M53.8488 17.2723C54.5183 17.2723 55.061 17.815 55.061 18.4845C55.061 19.1539 54.5183 19.6966 53.8488 19.6966C53.1794 19.6966 52.6367 19.1539 52.6367 18.4845C52.6367 17.815 53.1794 17.2723 53.8488 17.2723Z" fill="#C8C4C2"/>
<path d="M63.5442 17.2723C64.2136 17.2723 64.7563 17.815 64.7563 18.4845C64.7563 19.1539 64.2136 19.6966 63.5442 19.6966C62.8747 19.6966 62.332 19.1539 62.332 18.4845C62.332 17.815 62.8747 17.2723 63.5442 17.2723Z" fill="#C8C4C2"/>
<path d="M34.4543 19.6971C35.1238 19.6971 35.6664 20.2398 35.6664 20.9093C35.6664 21.5787 35.1238 22.1214 34.4543 22.1214C33.7849 22.1214 33.2422 21.5787 33.2422 20.9093C33.2422 20.2398 33.7849 19.6971 34.4543 19.6971Z" fill="#C8C4C2"/>
<path d="M36.8762 19.697C37.5456 19.697 38.0883 20.2397 38.0883 20.9091C38.0883 21.5786 37.5456 22.1213 36.8762 22.1213C36.2068 22.1213 35.6641 21.5786 35.6641 20.9091C35.6641 20.2397 36.2068 19.697 36.8762 19.697Z" fill="#C8C4C2"/>
<path d="M39.3022 19.697C39.9717 19.697 40.5143 20.2397 40.5143 20.9091C40.5143 21.5786 39.9717 22.1213 39.3022 22.1213C38.6328 22.1213 38.0901 21.5786 38.0901 20.9091C38.0901 20.2397 38.6328 19.697 39.3022 19.697Z" fill="#C8C4C2"/>
<path d="M41.7277 19.6971C42.3972 19.6971 42.9399 20.2398 42.9399 20.9093C42.9399 21.5787 42.3972 22.1214 41.7277 22.1214C41.0583 22.1214 40.5156 21.5787 40.5156 20.9093C40.5156 20.2398 41.0583 19.6971 41.7277 19.6971Z" fill="#C8C4C2"/>
<path d="M44.1496 19.697C44.8191 19.697 45.3617 20.2397 45.3617 20.9091C45.3617 21.5786 44.8191 22.1213 44.1496 22.1213C43.4802 22.1213 42.9375 21.5786 42.9375 20.9091C42.9375 20.2397 43.4802 19.697 44.1496 19.697Z" fill="#C8C4C2"/>
<path d="M46.5754 19.6971C47.2449 19.6971 47.7875 20.2398 47.7875 20.9093C47.7875 21.5787 47.2449 22.1214 46.5754 22.1214C45.906 22.1214 45.3633 21.5787 45.3633 20.9093C45.3633 20.2398 45.906 19.6971 46.5754 19.6971Z" fill="#C8C4C2"/>
<path d="M48.9973 19.697C49.6667 19.697 50.2094 20.2397 50.2094 20.9091C50.2094 21.5786 49.6667 22.1213 48.9973 22.1213C48.3278 22.1213 47.7852 21.5786 47.7852 20.9091C47.7852 20.2397 48.3278 19.697 48.9973 19.697Z" fill="#C8C4C2"/>
<path d="M51.4231 19.6971C52.0925 19.6971 52.6352 20.2398 52.6352 20.9093C52.6352 21.5787 52.0925 22.1214 51.4231 22.1214C50.7536 22.1214 50.2109 21.5787 50.2109 20.9093C50.2109 20.2398 50.7536 19.6971 51.4231 19.6971Z" fill="#C8C4C2"/>
<path d="M53.8488 19.697C54.5183 19.697 55.061 20.2397 55.061 20.9091C55.061 21.5786 54.5183 22.1213 53.8488 22.1213C53.1794 22.1213 52.6367 21.5786 52.6367 20.9091C52.6367 20.2397 53.1794 19.697 53.8488 19.697Z" fill="#C8C4C2"/>
<path d="M56.2707 19.697C56.9402 19.697 57.4828 20.2397 57.4828 20.9091C57.4828 21.5786 56.9402 22.1213 56.2707 22.1213C55.6013 22.1213 55.0586 21.5786 55.0586 20.9091C55.0586 20.2397 55.6013 19.697 56.2707 19.697Z" fill="#C8C4C2"/>
<path d="M58.6965 19.6971C59.366 19.6971 59.9086 20.2398 59.9086 20.9093C59.9086 21.5787 59.366 22.1214 58.6965 22.1214C58.0271 22.1214 57.4844 21.5787 57.4844 20.9093C57.4844 20.2398 58.0271 19.6971 58.6965 19.6971Z" fill="#C8C4C2"/>
<path d="M61.1223 19.697C61.7917 19.697 62.3344 20.2397 62.3344 20.9091C62.3344 21.5786 61.7917 22.1213 61.1223 22.1213C60.4528 22.1213 59.9102 21.5786 59.9102 20.9091C59.9102 20.2397 60.4528 19.697 61.1223 19.697Z" fill="#C8C4C2"/>
<path d="M63.5442 19.6971C64.2136 19.6971 64.7563 20.2398 64.7563 20.9093C64.7563 21.5787 64.2136 22.1214 63.5442 22.1214C62.8747 22.1214 62.332 21.5787 62.332 20.9093C62.332 20.2398 62.8747 19.6971 63.5442 19.6971Z" fill="#C8C4C2"/>
<path d="M34.4543 22.121C35.1238 22.121 35.6664 22.6637 35.6664 23.3331C35.6664 24.0026 35.1238 24.5452 34.4543 24.5452C33.7849 24.5452 33.2422 24.0026 33.2422 23.3331C33.2422 22.6637 33.7849 22.121 34.4543 22.121Z" fill="#C8C4C2"/>
<path d="M36.8762 22.121C37.5456 22.121 38.0883 22.6637 38.0883 23.3331C38.0883 24.0026 37.5456 24.5452 36.8762 24.5452C36.2068 24.5452 35.6641 24.0026 35.6641 23.3331C35.6641 22.6637 36.2068 22.121 36.8762 22.121Z" fill="#C8C4C2"/>
<path d="M39.302 22.121C39.9714 22.121 40.5141 22.6637 40.5141 23.3331C40.5141 24.0026 39.9714 24.5452 39.302 24.5452C38.6325 24.5452 38.0898 24.0026 38.0898 23.3331C38.0898 22.6637 38.6325 22.121 39.302 22.121Z" fill="#C8C4C2"/>
<path d="M41.7277 22.121C42.3972 22.121 42.9399 22.6637 42.9399 23.3331C42.9399 24.0026 42.3972 24.5452 41.7277 24.5452C41.0583 24.5452 40.5156 24.0026 40.5156 23.3331C40.5156 22.6637 41.0583 22.121 41.7277 22.121Z" fill="#C8C4C2"/>
<path d="M44.1496 22.121C44.8191 22.121 45.3617 22.6637 45.3617 23.3331C45.3617 24.0026 44.8191 24.5452 44.1496 24.5452C43.4802 24.5452 42.9375 24.0026 42.9375 23.3331C42.9375 22.6637 43.4802 22.121 44.1496 22.121Z" fill="#C8C4C2"/>
<path d="M51.4231 22.121C52.0925 22.121 52.6352 22.6637 52.6352 23.3331C52.6352 24.0026 52.0925 24.5452 51.4231 24.5452C50.7536 24.5452 50.2109 24.0026 50.2109 23.3331C50.2109 22.6637 50.7536 22.121 51.4231 22.121Z" fill="#C8C4C2"/>
<path d="M56.2707 22.121C56.9402 22.121 57.4828 22.6637 57.4828 23.3331C57.4828 24.0026 56.9402 24.5452 56.2707 24.5452C55.6013 24.5452 55.0586 24.0026 55.0586 23.3331C55.0586 22.6637 55.6013 22.121 56.2707 22.121Z" fill="#C8C4C2"/>
<path d="M58.6965 22.121C59.366 22.121 59.9086 22.6637 59.9086 23.3331C59.9086 24.0026 59.366 24.5452 58.6965 24.5452C58.0271 24.5452 57.4844 24.0026 57.4844 23.3331C57.4844 22.6637 58.0271 22.121 58.6965 22.121Z" fill="#C8C4C2"/>
<path d="M63.5442 22.121C64.2136 22.121 64.7563 22.6637 64.7563 23.3331C64.7563 24.0026 64.2136 24.5452 63.5442 24.5452C62.8747 24.5452 62.332 24.0026 62.332 23.3331C62.332 22.6637 62.8747 22.121 63.5442 22.121Z" fill="#C8C4C2"/>
<path d="M34.4543 24.5458C35.1238 24.5458 35.6664 25.0885 35.6664 25.7579C35.6664 26.4274 35.1238 26.97 34.4543 26.97C33.7849 26.97 33.2422 26.4274 33.2422 25.7579C33.2422 25.0885 33.7849 24.5458 34.4543 24.5458Z" fill="#C8C4C2"/>
<path d="M39.302 24.5458C39.9714 24.5458 40.5141 25.0885 40.5141 25.7579C40.5141 26.4274 39.9714 26.97 39.302 26.97C38.6325 26.97 38.0898 26.4274 38.0898 25.7579C38.0898 25.0885 38.6325 24.5458 39.302 24.5458Z" fill="#C8C4C2"/>
<path d="M44.1496 24.5458C44.8191 24.5458 45.3617 25.0885 45.3617 25.7579C45.3617 26.4274 44.8191 26.97 44.1496 26.97C43.4802 26.97 42.9375 26.4274 42.9375 25.7579C42.9375 25.0885 43.4802 24.5458 44.1496 24.5458Z" fill="#C8C4C2"/>
<path d="M46.5754 24.5458C47.2449 24.5458 47.7875 25.0885 47.7875 25.7579C47.7875 26.4274 47.2449 26.97 46.5754 26.97C45.906 26.97 45.3633 26.4274 45.3633 25.7579C45.3633 25.0885 45.906 24.5458 46.5754 24.5458Z" fill="#C8C4C2"/>
<path d="M49.0012 24.5458C49.6706 24.5458 50.2133 25.0885 50.2133 25.7579C50.2133 26.4274 49.6706 26.97 49.0012 26.97C48.3318 26.97 47.7891 26.4274 47.7891 25.7579C47.7891 25.0885 48.3318 24.5458 49.0012 24.5458Z" fill="#C8C4C2"/>
<path d="M51.4231 24.5458C52.0925 24.5458 52.6352 25.0885 52.6352 25.7579C52.6352 26.4274 52.0925 26.97 51.4231 26.97C50.7536 26.97 50.2109 26.4274 50.2109 25.7579C50.2109 25.0885 50.7536 24.5458 51.4231 24.5458Z" fill="#C8C4C2"/>
<path d="M53.8488 24.5458C54.5183 24.5458 55.061 25.0885 55.061 25.7579C55.061 26.4274 54.5183 26.97 53.8488 26.97C53.1794 26.97 52.6367 26.4274 52.6367 25.7579C52.6367 25.0885 53.1794 24.5458 53.8488 24.5458Z" fill="#C8C4C2"/>
<path d="M34.4543 26.9696C35.1238 26.9696 35.6664 27.5123 35.6664 28.1817C35.6664 28.8512 35.1238 29.3938 34.4543 29.3938C33.7849 29.3938 33.2422 28.8512 33.2422 28.1817C33.2422 27.5123 33.7849 26.9696 34.4543 26.9696Z" fill="#C8C4C2"/>
<path d="M39.3022 26.9697C39.9717 26.9697 40.5143 27.5124 40.5143 28.1818C40.5143 28.8513 39.9717 29.394 39.3022 29.394C38.6328 29.394 38.0901 28.8513 38.0901 28.1818C38.0901 27.5124 38.6328 26.9697 39.3022 26.9697Z" fill="#C8C4C2"/>
<path d="M41.7277 26.9696C42.3972 26.9696 42.9399 27.5123 42.9399 28.1817C42.9399 28.8512 42.3972 29.3938 41.7277 29.3938C41.0583 29.3938 40.5156 28.8512 40.5156 28.1817C40.5156 27.5123 41.0583 26.9696 41.7277 26.9696Z" fill="#C8C4C2"/>
<path d="M44.1496 26.9697C44.8191 26.9697 45.3617 27.5124 45.3617 28.1818C45.3617 28.8513 44.8191 29.394 44.1496 29.394C43.4802 29.394 42.9375 28.8513 42.9375 28.1818C42.9375 27.5124 43.4802 26.9697 44.1496 26.9697Z" fill="#C8C4C2"/>
<path d="M53.8488 26.9697C54.5183 26.9697 55.061 27.5124 55.061 28.1818C55.061 28.8513 54.5183 29.394 53.8488 29.394C53.1794 29.394 52.6367 28.8513 52.6367 28.1818C52.6367 27.5124 53.1794 26.9697 53.8488 26.9697Z" fill="#C8C4C2"/>
<path d="M56.2707 26.9697C56.9402 26.9697 57.4828 27.5124 57.4828 28.1818C57.4828 28.8513 56.9402 29.394 56.2707 29.394C55.6013 29.394 55.0586 28.8513 55.0586 28.1818C55.0586 27.5124 55.6013 26.9697 56.2707 26.9697Z" fill="#C8C4C2"/>
<path d="M58.6965 26.9696C59.366 26.9696 59.9086 27.5123 59.9086 28.1817C59.9086 28.8512 59.366 29.3938 58.6965 29.3938C58.0271 29.3938 57.4844 28.8512 57.4844 28.1817C57.4844 27.5123 58.0271 26.9696 58.6965 26.9696Z" fill="#C8C4C2"/>
<path d="M63.5442 26.9696C64.2136 26.9696 64.7563 27.5123 64.7563 28.1817C64.7563 28.8512 64.2136 29.3938 63.5442 29.3938C62.8747 29.3938 62.332 28.8512 62.332 28.1817C62.332 27.5123 62.8747 26.9696 63.5442 26.9696Z" fill="#C8C4C2"/>
<path d="M34.4543 29.3944C35.1238 29.3944 35.6664 29.9371 35.6664 30.6065C35.6664 31.276 35.1238 31.8187 34.4543 31.8187C33.7849 31.8187 33.2422 31.276 33.2422 30.6065C33.2422 29.9371 33.7849 29.3944 34.4543 29.3944Z" fill="#C8C4C2"/>
<path d="M39.302 29.3944C39.9714 29.3944 40.5141 29.9371 40.5141 30.6065C40.5141 31.276 39.9714 31.8187 39.302 31.8187C38.6325 31.8187 38.0898 31.276 38.0898 30.6065C38.0898 29.9371 38.6325 29.3944 39.302 29.3944Z" fill="#C8C4C2"/>
<path d="M44.1496 29.3944C44.8191 29.3944 45.3617 29.9371 45.3617 30.6065C45.3617 31.276 44.8191 31.8187 44.1496 31.8187C43.4802 31.8187 42.9375 31.276 42.9375 30.6065C42.9375 29.9371 43.4802 29.3944 44.1496 29.3944Z" fill="#C8C4C2"/>
<path d="M49.0012 29.3944C49.6706 29.3944 50.2133 29.9371 50.2133 30.6065C50.2133 31.276 49.6706 31.8187 49.0012 31.8187C48.3318 31.8187 47.7891 31.276 47.7891 30.6065C47.7891 29.9371 48.3318 29.3944 49.0012 29.3944Z" fill="#C8C4C2"/>
<path d="M53.8488 29.3944C54.5183 29.3944 55.061 29.9371 55.061 30.6065C55.061 31.276 54.5183 31.8187 53.8488 31.8187C53.1794 31.8187 52.6367 31.276 52.6367 30.6065C52.6367 29.9371 53.1794 29.3944 53.8488 29.3944Z" fill="#C8C4C2"/>
<path d="M58.6965 29.3944C59.366 29.3944 59.9086 29.9371 59.9086 30.6065C59.9086 31.276 59.366 31.8187 58.6965 31.8187C58.0271 31.8187 57.4844 31.276 57.4844 30.6065C57.4844 29.9371 58.0271 29.3944 58.6965 29.3944Z" fill="#C8C4C2"/>
<path d="M63.5442 29.3944C64.2136 29.3944 64.7563 29.9371 64.7563 30.6065C64.7563 31.276 64.2136 31.8187 63.5442 31.8187C62.8747 31.8187 62.332 31.276 62.332 30.6065C62.332 29.9371 62.8747 29.3944 63.5442 29.3944Z" fill="#C8C4C2"/>
<path d="M53.8488 31.8182C54.5183 31.8182 55.061 32.3609 55.061 33.0304C55.061 33.6998 54.5183 34.2425 53.8488 34.2425C53.1794 34.2425 52.6367 33.6998 52.6367 33.0304C52.6367 32.3609 53.1794 31.8182 53.8488 31.8182Z" fill="#C8C4C2"/>
<path d="M56.2707 31.8182C56.9402 31.8182 57.4828 32.3609 57.4828 33.0304C57.4828 33.6998 56.9402 34.2425 56.2707 34.2425C55.6013 34.2425 55.0586 33.6998 55.0586 33.0304C55.0586 32.3609 55.6013 31.8182 56.2707 31.8182Z" fill="#C8C4C2"/>
<path d="M63.5442 31.8182C64.2136 31.8182 64.7563 32.3609 64.7563 33.0304C64.7563 33.6998 64.2136 34.2425 63.5442 34.2425C62.8747 34.2425 62.332 33.6998 62.332 33.0304C62.332 32.3609 62.8747 31.8182 63.5442 31.8182Z" fill="#C8C4C2"/>
<path d="M19.9074 34.2421C20.5769 34.2421 21.1196 34.7848 21.1196 35.4542C21.1196 36.1237 20.5769 36.6663 19.9074 36.6663C19.238 36.6663 18.6953 36.1237 18.6953 35.4542C18.6953 34.7848 19.238 34.2421 19.9074 34.2421Z" fill="#C8C4C2"/>
<path d="M27.1809 34.2421C27.8503 34.2421 28.393 34.7848 28.393 35.4542C28.393 36.1237 27.8503 36.6663 27.1809 36.6663C26.5114 36.6663 25.9688 36.1237 25.9688 35.4542C25.9688 34.7848 26.5114 34.2421 27.1809 34.2421Z" fill="#C8C4C2"/>
<path d="M29.6067 34.2421C30.2761 34.2421 30.8188 34.7848 30.8188 35.4542C30.8188 36.1237 30.2761 36.6663 29.6067 36.6663C28.9372 36.6663 28.3945 36.1237 28.3945 35.4542C28.3945 34.7848 28.9372 34.2421 29.6067 34.2421Z" fill="#C8C4C2"/>
<path d="M32.0285 34.2421C32.698 34.2421 33.2406 34.7848 33.2406 35.4542C33.2406 36.1237 32.698 36.6663 32.0285 36.6663C31.3591 36.6663 30.8164 36.1237 30.8164 35.4542C30.8164 34.7848 31.3591 34.2421 32.0285 34.2421Z" fill="#C8C4C2"/>
<path d="M34.4543 34.2421C35.1238 34.2421 35.6664 34.7848 35.6664 35.4542C35.6664 36.1237 35.1238 36.6663 34.4543 36.6663C33.7849 36.6663 33.2422 36.1237 33.2422 35.4542C33.2422 34.7848 33.7849 34.2421 34.4543 34.2421Z" fill="#C8C4C2"/>
<path d="M36.8762 34.2421C37.5456 34.2421 38.0883 34.7848 38.0883 35.4542C38.0883 36.1237 37.5456 36.6663 36.8762 36.6663C36.2068 36.6663 35.6641 36.1237 35.6641 35.4542C35.6641 34.7848 36.2068 34.2421 36.8762 34.2421Z" fill="#C8C4C2"/>
<path d="M44.1496 34.2421C44.8191 34.2421 45.3617 34.7848 45.3617 35.4542C45.3617 36.1237 44.8191 36.6663 44.1496 36.6663C43.4802 36.6663 42.9375 36.1237 42.9375 35.4542C42.9375 34.7848 43.4802 34.2421 44.1496 34.2421Z" fill="#C8C4C2"/>
<path d="M49.0012 34.2421C49.6706 34.2421 50.2133 34.7848 50.2133 35.4542C50.2133 36.1237 49.6706 36.6663 49.0012 36.6663C48.3318 36.6663 47.7891 36.1237 47.7891 35.4542C47.7891 34.7848 48.3318 34.2421 49.0012 34.2421Z" fill="#C8C4C2"/>
<path d="M53.8488 34.2421C54.5183 34.2421 55.061 34.7848 55.061 35.4542C55.061 36.1237 54.5183 36.6663 53.8488 36.6663C53.1794 36.6663 52.6367 36.1237 52.6367 35.4542C52.6367 34.7848 53.1794 34.2421 53.8488 34.2421Z" fill="#C8C4C2"/>
<path d="M56.2707 34.2421C56.9402 34.2421 57.4828 34.7848 57.4828 35.4542C57.4828 36.1237 56.9402 36.6663 56.2707 36.6663C55.6013 36.6663 55.0586 36.1237 55.0586 35.4542C55.0586 34.7848 55.6013 34.2421 56.2707 34.2421Z" fill="#C8C4C2"/>
<path d="M63.5442 34.2421C64.2136 34.2421 64.7563 34.7848 64.7563 35.4542C64.7563 36.1237 64.2136 36.6663 63.5442 36.6663C62.8747 36.6663 62.332 36.1237 62.332 35.4542C62.332 34.7848 62.8747 34.2421 63.5442 34.2421Z" fill="#C8C4C2"/>
<path d="M65.9699 34.2421C66.6394 34.2421 67.1821 34.7848 67.1821 35.4542C67.1821 36.1237 66.6394 36.6663 65.9699 36.6663C65.3005 36.6663 64.7578 36.1237 64.7578 35.4542C64.7578 34.7848 65.3005 34.2421 65.9699 34.2421Z" fill="#C8C4C2"/>
<path d="M70.8176 34.2421C71.4871 34.2421 72.0297 34.7848 72.0297 35.4542C72.0297 36.1237 71.4871 36.6663 70.8176 36.6663C70.1482 36.6663 69.6055 36.1237 69.6055 35.4542C69.6055 34.7848 70.1482 34.2421 70.8176 34.2421Z" fill="#C8C4C2"/>
<path d="M73.2434 34.2421C73.9128 34.2421 74.4555 34.7848 74.4555 35.4542C74.4555 36.1237 73.9128 36.6663 73.2434 36.6663C72.5739 36.6663 72.0312 36.1237 72.0312 35.4542C72.0312 34.7848 72.5739 34.2421 73.2434 34.2421Z" fill="#C8C4C2"/>
<path d="M75.6652 34.2421C76.3347 34.2421 76.8774 34.7848 76.8774 35.4542C76.8774 36.1237 76.3347 36.6663 75.6652 36.6663C74.9958 36.6663 74.4531 36.1237 74.4531 35.4542C74.4531 34.7848 74.9958 34.2421 75.6652 34.2421Z" fill="#C8C4C2"/>
<path d="M78.091 34.2421C78.7605 34.2421 79.3031 34.7848 79.3031 35.4542C79.3031 36.1237 78.7605 36.6663 78.091 36.6663C77.4216 36.6663 76.8789 36.1237 76.8789 35.4542C76.8789 34.7848 77.4216 34.2421 78.091 34.2421Z" fill="#C8C4C2"/>
<path d="M80.5129 34.2421C81.1824 34.2421 81.725 34.7848 81.725 35.4542C81.725 36.1237 81.1824 36.6663 80.5129 36.6663C79.8435 36.6663 79.3008 36.1237 79.3008 35.4542C79.3008 34.7848 79.8435 34.2421 80.5129 34.2421Z" fill="#C8C4C2"/>
<path d="M15.0598 36.6667C15.7292 36.6667 16.2719 37.2094 16.2719 37.8788C16.2719 38.5483 15.7292 39.0909 15.0598 39.0909C14.3903 39.0909 13.8477 38.5483 13.8477 37.8788C13.8477 37.2094 14.3903 36.6667 15.0598 36.6667Z" fill="#C8C4C2"/>
<path d="M22.3332 36.6669C23.0027 36.6669 23.5453 37.2096 23.5453 37.879C23.5453 38.5485 23.0027 39.0911 22.3332 39.0911C21.6638 39.0911 21.1211 38.5485 21.1211 37.879C21.1211 37.2096 21.6638 36.6669 22.3332 36.6669Z" fill="#C8C4C2"/>
<path d="M24.759 36.6669C25.4285 36.6669 25.9711 37.2096 25.9711 37.879C25.9711 38.5485 25.4285 39.0911 24.759 39.0911C24.0896 39.0911 23.5469 38.5485 23.5469 37.879C23.5469 37.2096 24.0896 36.6669 24.759 36.6669Z" fill="#C8C4C2"/>
<path d="M27.1809 36.6667C27.8503 36.6667 28.393 37.2094 28.393 37.8788C28.393 38.5483 27.8503 39.0909 27.1809 39.0909C26.5114 39.0909 25.9688 38.5483 25.9688 37.8788C25.9688 37.2094 26.5114 36.6667 27.1809 36.6667Z" fill="#C8C4C2"/>
<path d="M32.0285 36.6667C32.698 36.6667 33.2406 37.2094 33.2406 37.8789C33.2406 38.5483 32.698 39.091 32.0285 39.091C31.3591 39.091 30.8164 38.5483 30.8164 37.8789C30.8164 37.2094 31.3591 36.6667 32.0285 36.6667Z" fill="#C8C4C2"/>
<path d="M36.8762 36.6667C37.5456 36.6667 38.0883 37.2094 38.0883 37.8789C38.0883 38.5483 37.5456 39.091 36.8762 39.091C36.2068 39.091 35.6641 38.5483 35.6641 37.8789C35.6641 37.2094 36.2068 36.6667 36.8762 36.6667Z" fill="#C8C4C2"/>
<path d="M44.1496 36.6667C44.8191 36.6667 45.3617 37.2094 45.3617 37.8789C45.3617 38.5483 44.8191 39.091 44.1496 39.091C43.4802 39.091 42.9375 38.5483 42.9375 37.8789C42.9375 37.2094 43.4802 36.6667 44.1496 36.6667Z" fill="#C8C4C2"/>
<path d="M46.5754 36.6669C47.2449 36.6669 47.7875 37.2096 47.7875 37.879C47.7875 38.5485 47.2449 39.0911 46.5754 39.0911C45.906 39.0911 45.3633 38.5485 45.3633 37.879C45.3633 37.2096 45.906 36.6669 46.5754 36.6669Z" fill="#C8C4C2"/>
<path d="M53.8488 36.6667C54.5183 36.6667 55.061 37.2094 55.061 37.8789C55.061 38.5483 54.5183 39.091 53.8488 39.091C53.1794 39.091 52.6367 38.5483 52.6367 37.8789C52.6367 37.2094 53.1794 36.6667 53.8488 36.6667Z" fill="#C8C4C2"/>
<path d="M56.2707 36.6667C56.9402 36.6667 57.4828 37.2094 57.4828 37.8789C57.4828 38.5483 56.9402 39.091 56.2707 39.091C55.6013 39.091 55.0586 38.5483 55.0586 37.8789C55.0586 37.2094 55.6013 36.6667 56.2707 36.6667Z" fill="#C8C4C2"/>
<path d="M63.5442 36.6669C64.2136 36.6669 64.7563 37.2096 64.7563 37.879C64.7563 38.5485 64.2136 39.0911 63.5442 39.0911C62.8747 39.0911 62.332 38.5485 62.332 37.879C62.332 37.2096 62.8747 36.6669 63.5442 36.6669Z" fill="#C8C4C2"/>
<path d="M68.3918 36.6669C69.0613 36.6669 69.6039 37.2096 69.6039 37.879C69.6039 38.5485 69.0613 39.0911 68.3918 39.0911C67.7224 39.0911 67.1797 38.5485 67.1797 37.879C67.1797 37.2096 67.7224 36.6669 68.3918 36.6669Z" fill="#C8C4C2"/>
<path d="M70.8173 36.6667C71.4868 36.6667 72.0295 37.2094 72.0295 37.8788C72.0295 38.5483 71.4868 39.0909 70.8173 39.0909C70.1479 39.0909 69.6052 38.5483 69.6052 37.8788C69.6052 37.2094 70.1479 36.6667 70.8173 36.6667Z" fill="#C8C4C2"/>
<path d="M75.6652 36.6669C76.3347 36.6669 76.8774 37.2096 76.8774 37.879C76.8774 38.5485 76.3347 39.0911 75.6652 39.0911C74.9958 39.0911 74.4531 38.5485 74.4531 37.879C74.4531 37.2096 74.9958 36.6669 75.6652 36.6669Z" fill="#C8C4C2"/>
<path d="M80.5129 36.6669C81.1824 36.6669 81.725 37.2096 81.725 37.879C81.725 38.5485 81.1824 39.0911 80.5129 39.0911C79.8435 39.0911 79.3008 38.5485 79.3008 37.879C79.3008 37.2096 79.8435 36.6669 80.5129 36.6669Z" fill="#C8C4C2"/>
<path d="M82.9387 36.6667C83.6081 36.6667 84.1508 37.2094 84.1508 37.8788C84.1508 38.5483 83.6081 39.0909 82.9387 39.0909C82.2693 39.0909 81.7266 38.5483 81.7266 37.8788C81.7266 37.2094 82.2693 36.6667 82.9387 36.6667Z" fill="#C8C4C2"/>
<path d="M15.0598 39.0909C15.7292 39.0909 16.2719 39.6336 16.2719 40.3031C16.2719 40.9725 15.7292 41.5152 15.0598 41.5152C14.3903 41.5152 13.8477 40.9725 13.8477 40.3031C13.8477 39.6336 14.3903 39.0909 15.0598 39.0909Z" fill="#C8C4C2"/>
<path d="M17.4856 39.0907C18.155 39.0907 18.6977 39.6334 18.6977 40.3028C18.6977 40.9723 18.155 41.5149 17.4856 41.5149C16.8161 41.5149 16.2734 40.9723 16.2734 40.3028C16.2734 39.6334 16.8161 39.0907 17.4856 39.0907Z" fill="#C8C4C2"/>
<path d="M29.6067 39.0907C30.2761 39.0907 30.8188 39.6334 30.8188 40.3028C30.8188 40.9723 30.2761 41.5149 29.6067 41.5149C28.9372 41.5149 28.3945 40.9723 28.3945 40.3028C28.3945 39.6334 28.9372 39.0907 29.6067 39.0907Z" fill="#C8C4C2"/>
<path d="M63.5442 39.0907C64.2136 39.0907 64.7563 39.6334 64.7563 40.3028C64.7563 40.9723 64.2136 41.5149 63.5442 41.5149C62.8747 41.5149 62.332 40.9723 62.332 40.3028C62.332 39.6334 62.8747 39.0907 63.5442 39.0907Z" fill="#C8C4C2"/>
<path d="M65.9699 39.0909C66.6394 39.0909 67.1821 39.6336 67.1821 40.3031C67.1821 40.9725 66.6394 41.5152 65.9699 41.5152C65.3005 41.5152 64.7578 40.9725 64.7578 40.3031C64.7578 39.6336 65.3005 39.0909 65.9699 39.0909Z" fill="#C8C4C2"/>
<path d="M73.2434 39.0909C73.9128 39.0909 74.4555 39.6336 74.4555 40.3031C74.4555 40.9725 73.9128 41.5152 73.2434 41.5152C72.5739 41.5152 72.0312 40.9725 72.0312 40.3031C72.0312 39.6336 72.5739 39.0909 73.2434 39.0909Z" fill="#C8C4C2"/>
<path d="M75.6652 39.0907C76.3347 39.0907 76.8774 39.6334 76.8774 40.3028C76.8774 40.9723 76.3347 41.5149 75.6652 41.5149C74.9958 41.5149 74.4531 40.9723 74.4531 40.3028C74.4531 39.6334 74.9958 39.0907 75.6652 39.0907Z" fill="#C8C4C2"/>
<path d="M82.9387 39.0909C83.6081 39.0909 84.1508 39.6336 84.1508 40.3031C84.1508 40.9725 83.6081 41.5152 82.9387 41.5152C82.2693 41.5152 81.7266 40.9725 81.7266 40.3031C81.7266 39.6336 82.2693 39.0909 82.9387 39.0909Z" fill="#C8C4C2"/>
<path d="M17.4856 41.5155C18.155 41.5155 18.6977 42.0582 18.6977 42.7276C18.6977 43.3971 18.155 43.9397 17.4856 43.9397C16.8161 43.9397 16.2734 43.3971 16.2734 42.7276C16.2734 42.0582 16.8161 41.5155 17.4856 41.5155Z" fill="#C8C4C2"/>
<path d="M24.759 41.5155C25.4285 41.5155 25.9711 42.0582 25.9711 42.7276C25.9711 43.3971 25.4285 43.9397 24.759 43.9397C24.0896 43.9397 23.5469 43.3971 23.5469 42.7276C23.5469 42.0582 24.0896 41.5155 24.759 41.5155Z" fill="#C8C4C2"/>
<path d="M32.0285 41.5155C32.698 41.5155 33.2406 42.0582 33.2406 42.7276C33.2406 43.3971 32.698 43.9397 32.0285 43.9397C31.3591 43.9397 30.8164 43.3971 30.8164 42.7276C30.8164 42.0582 31.3591 41.5155 32.0285 41.5155Z" fill="#C8C4C2"/>
<path d="M34.4543 41.5155C35.1238 41.5155 35.6664 42.0582 35.6664 42.7276C35.6664 43.3971 35.1238 43.9397 34.4543 43.9397C33.7849 43.9397 33.2422 43.3971 33.2422 42.7276C33.2422 42.0582 33.7849 41.5155 34.4543 41.5155Z" fill="#C8C4C2"/>
<path d="M36.8762 41.5155C37.5456 41.5155 38.0883 42.0582 38.0883 42.7276C38.0883 43.3971 37.5456 43.9397 36.8762 43.9397C36.2068 43.9397 35.6641 43.3971 35.6641 42.7276C35.6641 42.0582 36.2068 41.5155 36.8762 41.5155Z" fill="#C8C4C2"/>
<path d="M61.1184 41.5155C61.7878 41.5155 62.3305 42.0582 62.3305 42.7276C62.3305 43.3971 61.7878 43.9397 61.1184 43.9397C60.4489 43.9397 59.9062 43.3971 59.9062 42.7276C59.9062 42.0582 60.4489 41.5155 61.1184 41.5155Z" fill="#C8C4C2"/>
<path d="M63.5442 41.5155C64.2136 41.5155 64.7563 42.0582 64.7563 42.7276C64.7563 43.3971 64.2136 43.9397 63.5442 43.9397C62.8747 43.9397 62.332 43.3971 62.332 42.7276C62.332 42.0582 62.8747 41.5155 63.5442 41.5155Z" fill="#C8C4C2"/>
<path d="M68.3918 41.5155C69.0613 41.5155 69.6039 42.0582 69.6039 42.7276C69.6039 43.3971 69.0613 43.9397 68.3918 43.9397C67.7224 43.9397 67.1797 43.3971 67.1797 42.7276C67.1797 42.0582 67.7224 41.5155 68.3918 41.5155Z" fill="#C8C4C2"/>
<path d="M70.8176 41.5155C71.4871 41.5155 72.0297 42.0582 72.0297 42.7276C72.0297 43.3971 71.4871 43.9397 70.8176 43.9397C70.1482 43.9397 69.6055 43.3971 69.6055 42.7276C69.6055 42.0582 70.1482 41.5155 70.8176 41.5155Z" fill="#C8C4C2"/>
<path d="M75.6652 41.5155C76.3347 41.5155 76.8774 42.0582 76.8774 42.7276C76.8774 43.3971 76.3347 43.9397 75.6652 43.9397C74.9958 43.9397 74.4531 43.3971 74.4531 42.7276C74.4531 42.0582 74.9958 41.5155 75.6652 41.5155Z" fill="#C8C4C2"/>
<path d="M19.9074 43.9395C20.5769 43.9395 21.1196 44.4821 21.1196 45.1516C21.1196 45.821 20.5769 46.3637 19.9074 46.3637C19.238 46.3637 18.6953 45.821 18.6953 45.1516C18.6953 44.4821 19.238 43.9395 19.9074 43.9395Z" fill="#C8C4C2"/>
<path d="M24.759 43.9393C25.4285 43.9393 25.9711 44.482 25.9711 45.1515C25.9711 45.8209 25.4285 46.3636 24.759 46.3636C24.0896 46.3636 23.5469 45.8209 23.5469 45.1515C23.5469 44.482 24.0896 43.9393 24.759 43.9393Z" fill="#C8C4C2"/>
<path d="M29.6067 43.9393C30.2761 43.9393 30.8188 44.482 30.8188 45.1515C30.8188 45.8209 30.2761 46.3636 29.6067 46.3636C28.9372 46.3636 28.3945 45.8209 28.3945 45.1515C28.3945 44.482 28.9372 43.9393 29.6067 43.9393Z" fill="#C8C4C2"/>
<path d="M63.5442 43.9393C64.2136 43.9393 64.7563 44.482 64.7563 45.1515C64.7563 45.8209 64.2136 46.3636 63.5442 46.3636C62.8747 46.3636 62.332 45.8209 62.332 45.1515C62.332 44.482 62.8747 43.9393 63.5442 43.9393Z" fill="#C8C4C2"/>
<path d="M65.9699 43.9395C66.6394 43.9395 67.1821 44.4821 67.1821 45.1516C67.1821 45.821 66.6394 46.3637 65.9699 46.3637C65.3005 46.3637 64.7578 45.821 64.7578 45.1516C64.7578 44.4821 65.3005 43.9395 65.9699 43.9395Z" fill="#C8C4C2"/>
<path d="M68.3918 43.9393C69.0613 43.9393 69.6039 44.482 69.6039 45.1515C69.6039 45.8209 69.0613 46.3636 68.3918 46.3636C67.7224 46.3636 67.1797 45.8209 67.1797 45.1515C67.1797 44.482 67.7224 43.9393 68.3918 43.9393Z" fill="#C8C4C2"/>
<path d="M80.5129 43.9393C81.1824 43.9393 81.725 44.482 81.725 45.1515C81.725 45.8209 81.1824 46.3636 80.5129 46.3636C79.8435 46.3636 79.3008 45.8209 79.3008 45.1515C79.3008 44.482 79.8435 43.9393 80.5129 43.9393Z" fill="#C8C4C2"/>
<path d="M15.0598 46.3641C15.7292 46.3641 16.2719 46.9068 16.2719 47.5763C16.2719 48.2457 15.7292 48.7884 15.0598 48.7884C14.3903 48.7884 13.8477 48.2457 13.8477 47.5763C13.8477 46.9068 14.3903 46.3641 15.0598 46.3641Z" fill="#C8C4C2"/>
<path d="M22.3332 46.3641C23.0027 46.3641 23.5453 46.9068 23.5453 47.5763C23.5453 48.2457 23.0027 48.7884 22.3332 48.7884C21.6638 48.7884 21.1211 48.2457 21.1211 47.5763C21.1211 46.9068 21.6638 46.3641 22.3332 46.3641Z" fill="#C8C4C2"/>
<path d="M34.4543 46.3641C35.1238 46.3641 35.6664 46.9068 35.6664 47.5763C35.6664 48.2457 35.1238 48.7884 34.4543 48.7884C33.7849 48.7884 33.2422 48.2457 33.2422 47.5763C33.2422 46.9068 33.7849 46.3641 34.4543 46.3641Z" fill="#C8C4C2"/>
<path d="M61.1184 46.3641C61.7878 46.3641 62.3305 46.9068 62.3305 47.5763C62.3305 48.2457 61.7878 48.7884 61.1184 48.7884C60.4489 48.7884 59.9062 48.2457 59.9062 47.5763C59.9062 46.9068 60.4489 46.3641 61.1184 46.3641Z" fill="#C8C4C2"/>
<path d="M63.5442 46.3641C64.2136 46.3641 64.7563 46.9068 64.7563 47.5763C64.7563 48.2457 64.2136 48.7884 63.5442 48.7884C62.8747 48.7884 62.332 48.2457 62.332 47.5763C62.332 46.9068 62.8747 46.3641 63.5442 46.3641Z" fill="#C8C4C2"/>
<path d="M68.3918 46.3641C69.0613 46.3641 69.6039 46.9068 69.6039 47.5763C69.6039 48.2457 69.0613 48.7884 68.3918 48.7884C67.7224 48.7884 67.1797 48.2457 67.1797 47.5763C67.1797 46.9068 67.7224 46.3641 68.3918 46.3641Z" fill="#C8C4C2"/>
<path d="M75.6652 46.3641C76.3347 46.3641 76.8774 46.9068 76.8774 47.5763C76.8774 48.2457 76.3347 48.7884 75.6652 48.7884C74.9958 48.7884 74.4531 48.2457 74.4531 47.5763C74.4531 46.9068 74.9958 46.3641 75.6652 46.3641Z" fill="#C8C4C2"/>
<path d="M80.5129 46.3641C81.1824 46.3641 81.725 46.9068 81.725 47.5763C81.725 48.2457 81.1824 48.7884 80.5129 48.7884C79.8435 48.7884 79.3008 48.2457 79.3008 47.5763C79.3008 46.9068 79.8435 46.3641 80.5129 46.3641Z" fill="#C8C4C2"/>
<path d="M82.9387 46.3641C83.6081 46.3641 84.1508 46.9068 84.1508 47.5763C84.1508 48.2457 83.6081 48.7884 82.9387 48.7884C82.2693 48.7884 81.7266 48.2457 81.7266 47.5763C81.7266 46.9068 82.2693 46.3641 82.9387 46.3641Z" fill="#C8C4C2"/>
<path d="M17.4856 48.788C18.155 48.788 18.6977 49.3307 18.6977 50.0001C18.6977 50.6695 18.155 51.2122 17.4856 51.2122C16.8161 51.2122 16.2734 50.6695 16.2734 50.0001C16.2734 49.3307 16.8161 48.788 17.4856 48.788Z" fill="#C8C4C2"/>
<path d="M19.9074 48.7878C20.5769 48.7878 21.1196 49.3305 21.1196 50C21.1196 50.6694 20.5769 51.2121 19.9074 51.2121C19.238 51.2121 18.6953 50.6694 18.6953 50C18.6953 49.3305 19.238 48.7878 19.9074 48.7878Z" fill="#C8C4C2"/>
<path d="M22.3332 48.788C23.0027 48.788 23.5453 49.3307 23.5453 50.0001C23.5453 50.6695 23.0027 51.2122 22.3332 51.2122C21.6638 51.2122 21.1211 50.6695 21.1211 50.0001C21.1211 49.3307 21.6638 48.788 22.3332 48.788Z" fill="#C8C4C2"/>
<path d="M27.1809 48.7879C27.8503 48.7879 28.393 49.3306 28.393 50C28.393 50.6695 27.8503 51.2121 27.1809 51.2121C26.5114 51.2121 25.9688 50.6695 25.9688 50C25.9688 49.3306 26.5114 48.7879 27.1809 48.7879Z" fill="#C8C4C2"/>
<path d="M29.6067 48.788C30.2761 48.788 30.8188 49.3307 30.8188 50.0001C30.8188 50.6695 30.2761 51.2122 29.6067 51.2122C28.9372 51.2122 28.3945 50.6695 28.3945 50.0001C28.3945 49.3307 28.9372 48.788 29.6067 48.788Z" fill="#C8C4C2"/>
<path d="M34.4543 48.788C35.1238 48.788 35.6664 49.3307 35.6664 50.0001C35.6664 50.6695 35.1238 51.2122 34.4543 51.2122C33.7849 51.2122 33.2422 50.6695 33.2422 50.0001C33.2422 49.3307 33.7849 48.788 34.4543 48.788Z" fill="#C8C4C2"/>
<path d="M36.8762 48.7878C37.5456 48.7878 38.0883 49.3305 38.0883 50C38.0883 50.6694 37.5456 51.2121 36.8762 51.2121C36.2068 51.2121 35.6641 50.6694 35.6641 50C35.6641 49.3305 36.2068 48.7878 36.8762 48.7878Z" fill="#C8C4C2"/>
<path d="M61.1223 48.7878C61.7917 48.7878 62.3344 49.3305 62.3344 50C62.3344 50.6694 61.7917 51.2121 61.1223 51.2121C60.4528 51.2121 59.9102 50.6694 59.9102 50C59.9102 49.3305 60.4528 48.7878 61.1223 48.7878Z" fill="#C8C4C2"/>
<path d="M65.9699 48.7878C66.6394 48.7878 67.1821 49.3305 67.1821 50C67.1821 50.6694 66.6394 51.2121 65.9699 51.2121C65.3005 51.2121 64.7578 50.6694 64.7578 50C64.7578 49.3305 65.3005 48.7878 65.9699 48.7878Z" fill="#C8C4C2"/>
<path d="M68.3918 48.788C69.0613 48.788 69.6039 49.3307 69.6039 50.0001C69.6039 50.6695 69.0613 51.2122 68.3918 51.2122C67.7224 51.2122 67.1797 50.6695 67.1797 50.0001C67.1797 49.3307 67.7224 48.788 68.3918 48.788Z" fill="#C8C4C2"/>
<path d="M75.6652 48.788C76.3347 48.788 76.8774 49.3307 76.8774 50.0001C76.8774 50.6695 76.3347 51.2122 75.6652 51.2122C74.9958 51.2122 74.4531 50.6695 74.4531 50.0001C74.4531 49.3307 74.9958 48.788 75.6652 48.788Z" fill="#C8C4C2"/>
<path d="M78.091 48.7878C78.7605 48.7878 79.3031 49.3305 79.3031 50C79.3031 50.6694 78.7605 51.2121 78.091 51.2121C77.4216 51.2121 76.8789 50.6694 76.8789 50C76.8789 49.3305 77.4216 48.7878 78.091 48.7878Z" fill="#C8C4C2"/>
<path d="M82.9387 48.7879C83.6081 48.7879 84.1508 49.3306 84.1508 50C84.1508 50.6695 83.6081 51.2121 82.9387 51.2121C82.2693 51.2121 81.7266 50.6695 81.7266 50C81.7266 49.3306 82.2693 48.7879 82.9387 48.7879Z" fill="#C8C4C2"/>
<path d="M17.4856 51.2118C18.155 51.2118 18.6977 51.7545 18.6977 52.4239C18.6977 53.0934 18.155 53.636 17.4856 53.636C16.8161 53.636 16.2734 53.0934 16.2734 52.4239C16.2734 51.7545 16.8161 51.2118 17.4856 51.2118Z" fill="#C8C4C2"/>
<path d="M19.9074 51.2118C20.5769 51.2118 21.1196 51.7545 21.1196 52.4239C21.1196 53.0934 20.5769 53.636 19.9074 53.636C19.238 53.636 18.6953 53.0934 18.6953 52.4239C18.6953 51.7545 19.238 51.2118 19.9074 51.2118Z" fill="#C8C4C2"/>
<path d="M65.9699 51.2118C66.6394 51.2118 67.1821 51.7545 67.1821 52.4239C67.1821 53.0934 66.6394 53.636 65.9699 53.636C65.3005 53.636 64.7578 53.0934 64.7578 52.4239C64.7578 51.7545 65.3005 51.2118 65.9699 51.2118Z" fill="#C8C4C2"/>
<path d="M68.3918 51.2118C69.0613 51.2118 69.6039 51.7545 69.6039 52.4239C69.6039 53.0934 69.0613 53.636 68.3918 53.636C67.7224 53.636 67.1797 53.0934 67.1797 52.4239C67.1797 51.7545 67.7224 51.2118 68.3918 51.2118Z" fill="#C8C4C2"/>
<path d="M75.6652 51.2118C76.3347 51.2118 76.8774 51.7545 76.8774 52.4239C76.8774 53.0934 76.3347 53.636 75.6652 53.636C74.9958 53.636 74.4531 53.0934 74.4531 52.4239C74.4531 51.7545 74.9958 51.2118 75.6652 51.2118Z" fill="#C8C4C2"/>
<path d="M80.5129 51.2118C81.1824 51.2118 81.725 51.7545 81.725 52.4239C81.725 53.0934 81.1824 53.636 80.5129 53.636C79.8435 53.636 79.3008 53.0934 79.3008 52.4239C79.3008 51.7545 79.8435 51.2118 80.5129 51.2118Z" fill="#C8C4C2"/>
<path d="M82.9387 51.2118C83.6081 51.2118 84.1508 51.7545 84.1508 52.4239C84.1508 53.0934 83.6081 53.636 82.9387 53.636C82.2693 53.636 81.7266 53.0934 81.7266 52.4239C81.7266 51.7545 82.2693 51.2118 82.9387 51.2118Z" fill="#C8C4C2"/>
<path d="M15.0598 53.6364C15.7292 53.6364 16.2719 54.1791 16.2719 54.8485C16.2719 55.518 15.7292 56.0607 15.0598 56.0607C14.3903 56.0607 13.8477 55.518 13.8477 54.8485C13.8477 54.1791 14.3903 53.6364 15.0598 53.6364Z" fill="#C8C4C2"/>
<path d="M17.4856 53.6366C18.155 53.6366 18.6977 54.1793 18.6977 54.8487C18.6977 55.5182 18.155 56.0608 17.4856 56.0608C16.8161 56.0608 16.2734 55.5182 16.2734 54.8487C16.2734 54.1793 16.8161 53.6366 17.4856 53.6366Z" fill="#C8C4C2"/>
<path d="M29.6067 53.6366C30.2761 53.6366 30.8188 54.1793 30.8188 54.8487C30.8188 55.5182 30.2761 56.0608 29.6067 56.0608C28.9372 56.0608 28.3945 55.5182 28.3945 54.8487C28.3945 54.1793 28.9372 53.6366 29.6067 53.6366Z" fill="#C8C4C2"/>
<path d="M32.0285 53.6364C32.698 53.6364 33.2406 54.179 33.2406 54.8485C33.2406 55.5179 32.698 56.0606 32.0285 56.0606C31.3591 56.0606 30.8164 55.5179 30.8164 54.8485C30.8164 54.179 31.3591 53.6364 32.0285 53.6364Z" fill="#C8C4C2"/>
<path d="M34.4543 53.6366C35.1238 53.6366 35.6664 54.1793 35.6664 54.8487C35.6664 55.5182 35.1238 56.0608 34.4543 56.0608C33.7849 56.0608 33.2422 55.5182 33.2422 54.8487C33.2422 54.1793 33.7849 53.6366 34.4543 53.6366Z" fill="#C8C4C2"/>
<path d="M36.8762 53.6364C37.5456 53.6364 38.0883 54.179 38.0883 54.8485C38.0883 55.5179 37.5456 56.0606 36.8762 56.0606C36.2068 56.0606 35.6641 55.5179 35.6641 54.8485C35.6641 54.179 36.2068 53.6364 36.8762 53.6364Z" fill="#C8C4C2"/>
<path d="M63.5442 53.6366C64.2136 53.6366 64.7563 54.1793 64.7563 54.8487C64.7563 55.5182 64.2136 56.0608 63.5442 56.0608C62.8747 56.0608 62.332 55.5182 62.332 54.8487C62.332 54.1793 62.8747 53.6366 63.5442 53.6366Z" fill="#C8C4C2"/>
<path d="M68.3918 53.6366C69.0613 53.6366 69.6039 54.1793 69.6039 54.8487C69.6039 55.5182 69.0613 56.0608 68.3918 56.0608C67.7224 56.0608 67.1797 55.5182 67.1797 54.8487C67.1797 54.1793 67.7224 53.6366 68.3918 53.6366Z" fill="#C8C4C2"/>
<path d="M70.8173 53.6364C71.4868 53.6364 72.0295 54.1791 72.0295 54.8485C72.0295 55.518 71.4868 56.0607 70.8173 56.0607C70.1479 56.0607 69.6052 55.518 69.6052 54.8485C69.6052 54.1791 70.1479 53.6364 70.8173 53.6364Z" fill="#C8C4C2"/>
<path d="M17.4856 56.0604C18.155 56.0604 18.6977 56.6031 18.6977 57.2725C18.6977 57.942 18.155 58.4847 17.4856 58.4847C16.8161 58.4847 16.2734 57.942 16.2734 57.2725C16.2734 56.6031 16.8161 56.0604 17.4856 56.0604Z" fill="#C8C4C2"/>
<path d="M68.3918 56.0604C69.0613 56.0604 69.6039 56.6031 69.6039 57.2725C69.6039 57.942 69.0613 58.4847 68.3918 58.4847C67.7224 58.4847 67.1797 57.942 67.1797 57.2725C67.1797 56.6031 67.7224 56.0604 68.3918 56.0604Z" fill="#C8C4C2"/>
<path d="M70.8173 56.0606C71.4868 56.0606 72.0295 56.6033 72.0295 57.2727C72.0295 57.9422 71.4868 58.4849 70.8173 58.4849C70.1479 58.4849 69.6052 57.9422 69.6052 57.2727C69.6052 56.6033 70.1479 56.0606 70.8173 56.0606Z" fill="#C8C4C2"/>
<path d="M82.9387 56.0606C83.6081 56.0606 84.1508 56.6033 84.1508 57.2727C84.1508 57.9422 83.6081 58.4849 82.9387 58.4849C82.2693 58.4849 81.7266 57.9422 81.7266 57.2727C81.7266 56.6033 82.2693 56.0606 82.9387 56.0606Z" fill="#C8C4C2"/>
<path d="M15.0598 58.4852C15.7292 58.4852 16.2719 59.0279 16.2719 59.6974C16.2719 60.3668 15.7292 60.9095 15.0598 60.9095C14.3903 60.9095 13.8477 60.3668 13.8477 59.6974C13.8477 59.0279 14.3903 58.4852 15.0598 58.4852Z" fill="#C8C4C2"/>
<path d="M17.4856 58.4852C18.155 58.4852 18.6977 59.0279 18.6977 59.6974C18.6977 60.3668 18.155 60.9095 17.4856 60.9095C16.8161 60.9095 16.2734 60.3668 16.2734 59.6974C16.2734 59.0279 16.8161 58.4852 17.4856 58.4852Z" fill="#C8C4C2"/>
<path d="M19.9074 58.4852C20.5769 58.4852 21.1196 59.0279 21.1196 59.6974C21.1196 60.3668 20.5769 60.9095 19.9074 60.9095C19.238 60.9095 18.6953 60.3668 18.6953 59.6974C18.6953 59.0279 19.238 58.4852 19.9074 58.4852Z" fill="#C8C4C2"/>
<path d="M22.3332 58.4852C23.0027 58.4852 23.5453 59.0279 23.5453 59.6974C23.5453 60.3668 23.0027 60.9095 22.3332 60.9095C21.6638 60.9095 21.1211 60.3668 21.1211 59.6974C21.1211 59.0279 21.6638 58.4852 22.3332 58.4852Z" fill="#C8C4C2"/>
<path d="M29.6067 58.4852C30.2761 58.4852 30.8188 59.0279 30.8188 59.6974C30.8188 60.3668 30.2761 60.9095 29.6067 60.9095C28.9372 60.9095 28.3945 60.3668 28.3945 59.6974C28.3945 59.0279 28.9372 58.4852 29.6067 58.4852Z" fill="#C8C4C2"/>
<path d="M34.4543 58.4852C35.1238 58.4852 35.6664 59.0279 35.6664 59.6974C35.6664 60.3668 35.1238 60.9095 34.4543 60.9095C33.7849 60.9095 33.2422 60.3668 33.2422 59.6974C33.2422 59.0279 33.7849 58.4852 34.4543 58.4852Z" fill="#C8C4C2"/>
<path d="M61.1184 58.4852C61.7878 58.4852 62.3305 59.0279 62.3305 59.6974C62.3305 60.3668 61.7878 60.9095 61.1184 60.9095C60.4489 60.9095 59.9062 60.3668 59.9062 59.6974C59.9062 59.0279 60.4489 58.4852 61.1184 58.4852Z" fill="#C8C4C2"/>
<path d="M70.8176 58.4852C71.4871 58.4852 72.0297 59.0279 72.0297 59.6974C72.0297 60.3668 71.4871 60.9095 70.8176 60.9095C70.1482 60.9095 69.6055 60.3668 69.6055 59.6974C69.6055 59.0279 70.1482 58.4852 70.8176 58.4852Z" fill="#C8C4C2"/>
<path d="M73.2434 58.4852C73.9128 58.4852 74.4555 59.0279 74.4555 59.6974C74.4555 60.3668 73.9128 60.9095 73.2434 60.9095C72.5739 60.9095 72.0312 60.3668 72.0312 59.6974C72.0312 59.0279 72.5739 58.4852 73.2434 58.4852Z" fill="#C8C4C2"/>
<path d="M82.9387 58.4852C83.6081 58.4852 84.1508 59.0279 84.1508 59.6974C84.1508 60.3668 83.6081 60.9095 82.9387 60.9095C82.2693 60.9095 81.7266 60.3668 81.7266 59.6974C81.7266 59.0279 82.2693 58.4852 82.9387 58.4852Z" fill="#C8C4C2"/>
<path d="M24.759 60.9091C25.4285 60.9091 25.9711 61.4517 25.9711 62.1212C25.9711 62.7906 25.4285 63.3333 24.759 63.3333C24.0896 63.3333 23.5469 62.7906 23.5469 62.1212C23.5469 61.4517 24.0896 60.9091 24.759 60.9091Z" fill="#C8C4C2"/>
<path d="M27.1809 60.9091C27.8503 60.9091 28.393 61.4518 28.393 62.1212C28.393 62.7907 27.8503 63.3334 27.1809 63.3334C26.5114 63.3334 25.9688 62.7907 25.9688 62.1212C25.9688 61.4518 26.5114 60.9091 27.1809 60.9091Z" fill="#C8C4C2"/>
<path d="M34.4543 60.9091C35.1238 60.9091 35.6664 61.4517 35.6664 62.1212C35.6664 62.7906 35.1238 63.3333 34.4543 63.3333C33.7849 63.3333 33.2422 62.7906 33.2422 62.1212C33.2422 61.4517 33.7849 60.9091 34.4543 60.9091Z" fill="#C8C4C2"/>
<path d="M36.8762 60.9091C37.5456 60.9091 38.0883 61.4517 38.0883 62.1212C38.0883 62.7906 37.5456 63.3333 36.8762 63.3333C36.2068 63.3333 35.6641 62.7906 35.6641 62.1212C35.6641 61.4517 36.2068 60.9091 36.8762 60.9091Z" fill="#C8C4C2"/>
<path d="M44.1496 60.9091C44.8191 60.9091 45.3617 61.4517 45.3617 62.1212C45.3617 62.7906 44.8191 63.3333 44.1496 63.3333C43.4802 63.3333 42.9375 62.7906 42.9375 62.1212C42.9375 61.4517 43.4802 60.9091 44.1496 60.9091Z" fill="#C8C4C2"/>
<path d="M46.5754 60.9091C47.2449 60.9091 47.7875 61.4517 47.7875 62.1212C47.7875 62.7906 47.2449 63.3333 46.5754 63.3333C45.906 63.3333 45.3633 62.7906 45.3633 62.1212C45.3633 61.4517 45.906 60.9091 46.5754 60.9091Z" fill="#C8C4C2"/>
<path d="M51.4231 60.9091C52.0925 60.9091 52.6352 61.4517 52.6352 62.1212C52.6352 62.7906 52.0925 63.3333 51.4231 63.3333C50.7536 63.3333 50.2109 62.7906 50.2109 62.1212C50.2109 61.4517 50.7536 60.9091 51.4231 60.9091Z" fill="#C8C4C2"/>
<path d="M61.1223 60.9091C61.7917 60.9091 62.3344 61.4517 62.3344 62.1212C62.3344 62.7906 61.7917 63.3333 61.1223 63.3333C60.4528 63.3333 59.9102 62.7906 59.9102 62.1212C59.9102 61.4517 60.4528 60.9091 61.1223 60.9091Z" fill="#C8C4C2"/>
<path d="M63.5442 60.9091C64.2136 60.9091 64.7563 61.4517 64.7563 62.1212C64.7563 62.7906 64.2136 63.3333 63.5442 63.3333C62.8747 63.3333 62.332 62.7906 62.332 62.1212C62.332 61.4517 62.8747 60.9091 63.5442 60.9091Z" fill="#C8C4C2"/>
<path d="M65.9699 60.9091C66.6394 60.9091 67.1821 61.4517 67.1821 62.1212C67.1821 62.7906 66.6394 63.3333 65.9699 63.3333C65.3005 63.3333 64.7578 62.7906 64.7578 62.1212C64.7578 61.4517 65.3005 60.9091 65.9699 60.9091Z" fill="#C8C4C2"/>
<path d="M68.3918 60.9091C69.0613 60.9091 69.6039 61.4517 69.6039 62.1212C69.6039 62.7906 69.0613 63.3333 68.3918 63.3333C67.7224 63.3333 67.1797 62.7906 67.1797 62.1212C67.1797 61.4517 67.7224 60.9091 68.3918 60.9091Z" fill="#C8C4C2"/>
<path d="M70.8173 60.9091C71.4868 60.9091 72.0295 61.4518 72.0295 62.1212C72.0295 62.7907 71.4868 63.3334 70.8173 63.3334C70.1479 63.3334 69.6052 62.7907 69.6052 62.1212C69.6052 61.4518 70.1479 60.9091 70.8173 60.9091Z" fill="#C8C4C2"/>
<path d="M80.5129 60.9091C81.1824 60.9091 81.725 61.4517 81.725 62.1212C81.725 62.7906 81.1824 63.3333 80.5129 63.3333C79.8435 63.3333 79.3008 62.7906 79.3008 62.1212C79.3008 61.4517 79.8435 60.9091 80.5129 60.9091Z" fill="#C8C4C2"/>
<path d="M15.0598 63.3329C15.7292 63.3329 16.2719 63.8756 16.2719 64.545C16.2719 65.2145 15.7292 65.7571 15.0598 65.7571C14.3903 65.7571 13.8477 65.2145 13.8477 64.545C13.8477 63.8756 14.3903 63.3329 15.0598 63.3329Z" fill="#C8C4C2"/>
<path d="M17.4856 63.3329C18.155 63.3329 18.6977 63.8756 18.6977 64.545C18.6977 65.2145 18.155 65.7571 17.4856 65.7571C16.8161 65.7571 16.2734 65.2145 16.2734 64.545C16.2734 63.8756 16.8161 63.3329 17.4856 63.3329Z" fill="#C8C4C2"/>
<path d="M19.9074 63.3329C20.5769 63.3329 21.1196 63.8756 21.1196 64.545C21.1196 65.2145 20.5769 65.7571 19.9074 65.7571C19.238 65.7571 18.6953 65.2145 18.6953 64.545C18.6953 63.8756 19.238 63.3329 19.9074 63.3329Z" fill="#C8C4C2"/>
<path d="M24.759 63.3329C25.4285 63.3329 25.9711 63.8756 25.9711 64.545C25.9711 65.2145 25.4285 65.7571 24.759 65.7571C24.0896 65.7571 23.5469 65.2145 23.5469 64.545C23.5469 63.8756 24.0896 63.3329 24.759 63.3329Z" fill="#C8C4C2"/>
<path d="M29.6067 63.3329C30.2761 63.3329 30.8188 63.8756 30.8188 64.545C30.8188 65.2145 30.2761 65.7571 29.6067 65.7571C28.9372 65.7571 28.3945 65.2145 28.3945 64.545C28.3945 63.8756 28.9372 63.3329 29.6067 63.3329Z" fill="#C8C4C2"/>
<path d="M32.0285 63.3329C32.698 63.3329 33.2406 63.8756 33.2406 64.545C33.2406 65.2145 32.698 65.7571 32.0285 65.7571C31.3591 65.7571 30.8164 65.2145 30.8164 64.545C30.8164 63.8756 31.3591 63.3329 32.0285 63.3329Z" fill="#C8C4C2"/>
<path d="M34.4543 63.3329C35.1238 63.3329 35.6664 63.8756 35.6664 64.545C35.6664 65.2145 35.1238 65.7571 34.4543 65.7571C33.7849 65.7571 33.2422 65.2145 33.2422 64.545C33.2422 63.8756 33.7849 63.3329 34.4543 63.3329Z" fill="#C8C4C2"/>
<path d="M51.4231 63.3329C52.0925 63.3329 52.6352 63.8756 52.6352 64.545C52.6352 65.2145 52.0925 65.7571 51.4231 65.7571C50.7536 65.7571 50.2109 65.2145 50.2109 64.545C50.2109 63.8756 50.7536 63.3329 51.4231 63.3329Z" fill="#C8C4C2"/>
<path d="M53.8488 63.3329C54.5183 63.3329 55.061 63.8756 55.061 64.545C55.061 65.2145 54.5183 65.7571 53.8488 65.7571C53.1794 65.7571 52.6367 65.2145 52.6367 64.545C52.6367 63.8756 53.1794 63.3329 53.8488 63.3329Z" fill="#C8C4C2"/>
<path d="M58.6965 63.3329C59.366 63.3329 59.9086 63.8756 59.9086 64.545C59.9086 65.2145 59.366 65.7571 58.6965 65.7571C58.0271 65.7571 57.4844 65.2145 57.4844 64.545C57.4844 63.8756 58.0271 63.3329 58.6965 63.3329Z" fill="#C8C4C2"/>
<path d="M63.5442 63.3329C64.2136 63.3329 64.7563 63.8756 64.7563 64.545C64.7563 65.2145 64.2136 65.7571 63.5442 65.7571C62.8747 65.7571 62.332 65.2145 62.332 64.545C62.332 63.8756 62.8747 63.3329 63.5442 63.3329Z" fill="#C8C4C2"/>
<path d="M65.9699 63.3329C66.6394 63.3329 67.1821 63.8756 67.1821 64.545C67.1821 65.2145 66.6394 65.7571 65.9699 65.7571C65.3005 65.7571 64.7578 65.2145 64.7578 64.545C64.7578 63.8756 65.3005 63.3329 65.9699 63.3329Z" fill="#C8C4C2"/>
<path d="M68.3918 63.3329C69.0613 63.3329 69.6039 63.8756 69.6039 64.545C69.6039 65.2145 69.0613 65.7571 68.3918 65.7571C67.7224 65.7571 67.1797 65.2145 67.1797 64.545C67.1797 63.8756 67.7224 63.3329 68.3918 63.3329Z" fill="#C8C4C2"/>
<path d="M70.8176 63.3329C71.4871 63.3329 72.0297 63.8756 72.0297 64.545C72.0297 65.2145 71.4871 65.7571 70.8176 65.7571C70.1482 65.7571 69.6055 65.2145 69.6055 64.545C69.6055 63.8756 70.1482 63.3329 70.8176 63.3329Z" fill="#C8C4C2"/>
<path d="M73.2434 63.3329C73.9128 63.3329 74.4555 63.8756 74.4555 64.545C74.4555 65.2145 73.9128 65.7571 73.2434 65.7571C72.5739 65.7571 72.0312 65.2145 72.0312 64.545C72.0312 63.8756 72.5739 63.3329 73.2434 63.3329Z" fill="#C8C4C2"/>
<path d="M75.6652 63.3329C76.3347 63.3329 76.8774 63.8756 76.8774 64.545C76.8774 65.2145 76.3347 65.7571 75.6652 65.7571C74.9958 65.7571 74.4531 65.2145 74.4531 64.545C74.4531 63.8756 74.9958 63.3329 75.6652 63.3329Z" fill="#C8C4C2"/>
<path d="M82.9387 63.3329C83.6081 63.3329 84.1508 63.8756 84.1508 64.545C84.1508 65.2145 83.6081 65.7571 82.9387 65.7571C82.2693 65.7571 81.7266 65.2145 81.7266 64.545C81.7266 63.8756 82.2693 63.3329 82.9387 63.3329Z" fill="#C8C4C2"/>
<path d="M34.4543 65.7577C35.1238 65.7577 35.6664 66.3004 35.6664 66.9698C35.6664 67.6393 35.1238 68.1819 34.4543 68.1819C33.7849 68.1819 33.2422 67.6393 33.2422 66.9698C33.2422 66.3004 33.7849 65.7577 34.4543 65.7577Z" fill="#C8C4C2"/>
<path d="M36.8762 65.7576C37.5456 65.7576 38.0883 66.3003 38.0883 66.9697C38.0883 67.6392 37.5456 68.1818 36.8762 68.1818C36.2068 68.1818 35.6641 67.6392 35.6641 66.9697C35.6641 66.3003 36.2068 65.7576 36.8762 65.7576Z" fill="#C8C4C2"/>
<path d="M41.7277 65.7577C42.3972 65.7577 42.9399 66.3004 42.9399 66.9698C42.9399 67.6393 42.3972 68.1819 41.7277 68.1819C41.0583 68.1819 40.5156 67.6393 40.5156 66.9698C40.5156 66.3004 41.0583 65.7577 41.7277 65.7577Z" fill="#C8C4C2"/>
<path d="M46.5754 65.7577C47.2449 65.7577 47.7875 66.3004 47.7875 66.9698C47.7875 67.6393 47.2449 68.1819 46.5754 68.1819C45.906 68.1819 45.3633 67.6393 45.3633 66.9698C45.3633 66.3004 45.906 65.7577 46.5754 65.7577Z" fill="#C8C4C2"/>
<path d="M51.4231 65.7577C52.0925 65.7577 52.6352 66.3004 52.6352 66.9698C52.6352 67.6393 52.0925 68.1819 51.4231 68.1819C50.7536 68.1819 50.2109 67.6393 50.2109 66.9698C50.2109 66.3004 50.7536 65.7577 51.4231 65.7577Z" fill="#C8C4C2"/>
<path d="M53.8488 65.7576C54.5183 65.7576 55.061 66.3003 55.061 66.9697C55.061 67.6392 54.5183 68.1818 53.8488 68.1818C53.1794 68.1818 52.6367 67.6392 52.6367 66.9697C52.6367 66.3003 53.1794 65.7576 53.8488 65.7576Z" fill="#C8C4C2"/>
<path d="M63.5442 65.7577C64.2136 65.7577 64.7563 66.3004 64.7563 66.9698C64.7563 67.6393 64.2136 68.1819 63.5442 68.1819C62.8747 68.1819 62.332 67.6393 62.332 66.9698C62.332 66.3004 62.8747 65.7577 63.5442 65.7577Z" fill="#C8C4C2"/>
<path d="M73.2434 65.7576C73.9128 65.7576 74.4555 66.3003 74.4555 66.9697C74.4555 67.6392 73.9128 68.1818 73.2434 68.1818C72.5739 68.1818 72.0312 67.6392 72.0312 66.9697C72.0312 66.3003 72.5739 65.7576 73.2434 65.7576Z" fill="#C8C4C2"/>
<path d="M75.6652 65.7577C76.3347 65.7577 76.8774 66.3004 76.8774 66.9698C76.8774 67.6393 76.3347 68.1819 75.6652 68.1819C74.9958 68.1819 74.4531 67.6393 74.4531 66.9698C74.4531 66.3004 74.9958 65.7577 75.6652 65.7577Z" fill="#C8C4C2"/>
<path d="M82.9387 65.7576C83.6081 65.7576 84.1508 66.3003 84.1508 66.9698C84.1508 67.6392 83.6081 68.1819 82.9387 68.1819C82.2693 68.1819 81.7266 67.6392 81.7266 66.9698C81.7266 66.3003 82.2693 65.7576 82.9387 65.7576Z" fill="#C8C4C2"/>
<path d="M34.4543 68.1815C35.1238 68.1815 35.6664 68.7242 35.6664 69.3936C35.6664 70.0631 35.1238 70.6058 34.4543 70.6058C33.7849 70.6058 33.2422 70.0631 33.2422 69.3936C33.2422 68.7242 33.7849 68.1815 34.4543 68.1815Z" fill="#C8C4C2"/>
<path d="M36.8762 68.1815C37.5456 68.1815 38.0883 68.7242 38.0883 69.3936C38.0883 70.0631 37.5456 70.6058 36.8762 70.6058C36.2068 70.6058 35.6641 70.0631 35.6641 69.3936C35.6641 68.7242 36.2068 68.1815 36.8762 68.1815Z" fill="#C8C4C2"/>
<path d="M39.302 68.1815C39.9714 68.1815 40.5141 68.7242 40.5141 69.3936C40.5141 70.0631 39.9714 70.6058 39.302 70.6058C38.6325 70.6058 38.0898 70.0631 38.0898 69.3936C38.0898 68.7242 38.6325 68.1815 39.302 68.1815Z" fill="#C8C4C2"/>
<path d="M41.7277 68.1815C42.3972 68.1815 42.9399 68.7242 42.9399 69.3936C42.9399 70.0631 42.3972 70.6058 41.7277 70.6058C41.0583 70.6058 40.5156 70.0631 40.5156 69.3936C40.5156 68.7242 41.0583 68.1815 41.7277 68.1815Z" fill="#C8C4C2"/>
<path d="M44.1496 68.1815C44.8191 68.1815 45.3617 68.7242 45.3617 69.3936C45.3617 70.0631 44.8191 70.6058 44.1496 70.6058C43.4802 70.6058 42.9375 70.0631 42.9375 69.3936C42.9375 68.7242 43.4802 68.1815 44.1496 68.1815Z" fill="#C8C4C2"/>
<path d="M46.5754 68.1815C47.2449 68.1815 47.7875 68.7242 47.7875 69.3936C47.7875 70.0631 47.2449 70.6058 46.5754 70.6058C45.906 70.6058 45.3633 70.0631 45.3633 69.3936C45.3633 68.7242 45.906 68.1815 46.5754 68.1815Z" fill="#C8C4C2"/>
<path d="M56.2707 68.1815C56.9402 68.1815 57.4828 68.7242 57.4828 69.3936C57.4828 70.0631 56.9402 70.6058 56.2707 70.6058C55.6013 70.6058 55.0586 70.0631 55.0586 69.3936C55.0586 68.7242 55.6013 68.1815 56.2707 68.1815Z" fill="#C8C4C2"/>
<path d="M58.6965 68.1815C59.366 68.1815 59.9086 68.7242 59.9086 69.3936C59.9086 70.0631 59.366 70.6058 58.6965 70.6058C58.0271 70.6058 57.4844 70.0631 57.4844 69.3936C57.4844 68.7242 58.0271 68.1815 58.6965 68.1815Z" fill="#C8C4C2"/>
<path d="M63.5442 68.1815C64.2136 68.1815 64.7563 68.7242 64.7563 69.3936C64.7563 70.0631 64.2136 70.6058 63.5442 70.6058C62.8747 70.6058 62.332 70.0631 62.332 69.3936C62.332 68.7242 62.8747 68.1815 63.5442 68.1815Z" fill="#C8C4C2"/>
<path d="M68.3918 68.1815C69.0613 68.1815 69.6039 68.7242 69.6039 69.3936C69.6039 70.0631 69.0613 70.6058 68.3918 70.6058C67.7224 70.6058 67.1797 70.0631 67.1797 69.3936C67.1797 68.7242 67.7224 68.1815 68.3918 68.1815Z" fill="#C8C4C2"/>
<path d="M73.2434 68.1815C73.9128 68.1815 74.4555 68.7242 74.4555 69.3936C74.4555 70.0631 73.9128 70.6058 73.2434 70.6058C72.5739 70.6058 72.0312 70.0631 72.0312 69.3936C72.0312 68.7242 72.5739 68.1815 73.2434 68.1815Z" fill="#C8C4C2"/>
<path d="M75.6652 68.1815C76.3347 68.1815 76.8774 68.7242 76.8774 69.3936C76.8774 70.0631 76.3347 70.6058 75.6652 70.6058C74.9958 70.6058 74.4531 70.0631 74.4531 69.3936C74.4531 68.7242 74.9958 68.1815 75.6652 68.1815Z" fill="#C8C4C2"/>
<path d="M78.091 68.1815C78.7605 68.1815 79.3031 68.7242 79.3031 69.3936C79.3031 70.0631 78.7605 70.6058 78.091 70.6058C77.4216 70.6058 76.8789 70.0631 76.8789 69.3936C76.8789 68.7242 77.4216 68.1815 78.091 68.1815Z" fill="#C8C4C2"/>
<path d="M82.9387 68.1815C83.6081 68.1815 84.1508 68.7242 84.1508 69.3936C84.1508 70.0631 83.6081 70.6058 82.9387 70.6058C82.2693 70.6058 81.7266 70.0631 81.7266 69.3936C81.7266 68.7242 82.2693 68.1815 82.9387 68.1815Z" fill="#C8C4C2"/>
<path d="M34.4543 70.6063C35.1238 70.6063 35.6664 71.149 35.6664 71.8184C35.6664 72.4879 35.1238 73.0306 34.4543 73.0306C33.7849 73.0306 33.2422 72.4879 33.2422 71.8184C33.2422 71.149 33.7849 70.6063 34.4543 70.6063Z" fill="#C8C4C2"/>
<path d="M36.8762 70.6061C37.5456 70.6061 38.0883 71.1488 38.0883 71.8182C38.0883 72.4877 37.5456 73.0303 36.8762 73.0303C36.2068 73.0303 35.6641 72.4877 35.6641 71.8182C35.6641 71.1488 36.2068 70.6061 36.8762 70.6061Z" fill="#C8C4C2"/>
<path d="M51.4231 70.6063C52.0925 70.6063 52.6352 71.149 52.6352 71.8184C52.6352 72.4879 52.0925 73.0306 51.4231 73.0306C50.7536 73.0306 50.2109 72.4879 50.2109 71.8184C50.2109 71.149 50.7536 70.6063 51.4231 70.6063Z" fill="#C8C4C2"/>
<path d="M53.8488 70.6061C54.5183 70.6061 55.061 71.1488 55.061 71.8182C55.061 72.4877 54.5183 73.0303 53.8488 73.0303C53.1794 73.0303 52.6367 72.4877 52.6367 71.8182C52.6367 71.1488 53.1794 70.6061 53.8488 70.6061Z" fill="#C8C4C2"/>
<path d="M56.2707 70.6061C56.9402 70.6061 57.4828 71.1488 57.4828 71.8182C57.4828 72.4877 56.9402 73.0303 56.2707 73.0303C55.6013 73.0303 55.0586 72.4877 55.0586 71.8182C55.0586 71.1488 55.6013 70.6061 56.2707 70.6061Z" fill="#C8C4C2"/>
<path d="M61.1223 70.6061C61.7917 70.6061 62.3344 71.1488 62.3344 71.8182C62.3344 72.4877 61.7917 73.0303 61.1223 73.0303C60.4528 73.0303 59.9102 72.4877 59.9102 71.8182C59.9102 71.1488 60.4528 70.6061 61.1223 70.6061Z" fill="#C8C4C2"/>
<path d="M63.5442 70.6063C64.2136 70.6063 64.7563 71.149 64.7563 71.8184C64.7563 72.4879 64.2136 73.0306 63.5442 73.0306C62.8747 73.0306 62.332 72.4879 62.332 71.8184C62.332 71.149 62.8747 70.6063 63.5442 70.6063Z" fill="#C8C4C2"/>
<path d="M73.2434 70.6061C73.9128 70.6061 74.4555 71.1488 74.4555 71.8182C74.4555 72.4877 73.9128 73.0303 73.2434 73.0303C72.5739 73.0303 72.0312 72.4877 72.0312 71.8182C72.0312 71.1488 72.5739 70.6061 73.2434 70.6061Z" fill="#C8C4C2"/>
<path d="M75.6652 70.6063C76.3347 70.6063 76.8774 71.149 76.8774 71.8184C76.8774 72.4879 76.3347 73.0306 75.6652 73.0306C74.9958 73.0306 74.4531 72.4879 74.4531 71.8184C74.4531 71.149 74.9958 70.6063 75.6652 70.6063Z" fill="#C8C4C2"/>
<path d="M82.9387 70.6061C83.6081 70.6061 84.1508 71.1488 84.1508 71.8182C84.1508 72.4877 83.6081 73.0303 82.9387 73.0303C82.2693 73.0303 81.7266 72.4877 81.7266 71.8182C81.7266 71.1488 82.2693 70.6061 82.9387 70.6061Z" fill="#C8C4C2"/>
<path d="M41.7277 73.0302C42.3972 73.0302 42.9399 73.5728 42.9399 74.2423C42.9399 74.9117 42.3972 75.4544 41.7277 75.4544C41.0583 75.4544 40.5156 74.9117 40.5156 74.2423C40.5156 73.5728 41.0583 73.0302 41.7277 73.0302Z" fill="#C8C4C2"/>
<path d="M56.2707 73.0303C56.9402 73.0303 57.4828 73.573 57.4828 74.2424C57.4828 74.9119 56.9402 75.4545 56.2707 75.4545C55.6013 75.4545 55.0586 74.9119 55.0586 74.2424C55.0586 73.573 55.6013 73.0303 56.2707 73.0303Z" fill="#C8C4C2"/>
<path d="M58.6965 73.0302C59.366 73.0302 59.9086 73.5728 59.9086 74.2423C59.9086 74.9117 59.366 75.4544 58.6965 75.4544C58.0271 75.4544 57.4844 74.9117 57.4844 74.2423C57.4844 73.5728 58.0271 73.0302 58.6965 73.0302Z" fill="#C8C4C2"/>
<path d="M61.1223 73.0303C61.7917 73.0303 62.3344 73.573 62.3344 74.2424C62.3344 74.9119 61.7917 75.4545 61.1223 75.4545C60.4528 75.4545 59.9102 74.9119 59.9102 74.2424C59.9102 73.573 60.4528 73.0303 61.1223 73.0303Z" fill="#C8C4C2"/>
<path d="M63.5442 73.0302C64.2136 73.0302 64.7563 73.5728 64.7563 74.2423C64.7563 74.9117 64.2136 75.4544 63.5442 75.4544C62.8747 75.4544 62.332 74.9117 62.332 74.2423C62.332 73.5728 62.8747 73.0302 63.5442 73.0302Z" fill="#C8C4C2"/>
<path d="M65.9699 73.0303C66.6394 73.0303 67.1821 73.573 67.1821 74.2424C67.1821 74.9119 66.6394 75.4545 65.9699 75.4545C65.3005 75.4545 64.7578 74.9119 64.7578 74.2424C64.7578 73.573 65.3005 73.0303 65.9699 73.0303Z" fill="#C8C4C2"/>
<path d="M68.3918 73.0302C69.0613 73.0302 69.6039 73.5728 69.6039 74.2423C69.6039 74.9117 69.0613 75.4544 68.3918 75.4544C67.7224 75.4544 67.1797 74.9117 67.1797 74.2423C67.1797 73.5728 67.7224 73.0302 68.3918 73.0302Z" fill="#C8C4C2"/>
<path d="M70.8173 73.0303C71.4868 73.0303 72.0295 73.573 72.0295 74.2425C72.0295 74.9119 71.4868 75.4546 70.8173 75.4546C70.1479 75.4546 69.6052 74.9119 69.6052 74.2425C69.6052 73.573 70.1479 73.0303 70.8173 73.0303Z" fill="#C8C4C2"/>
<path d="M73.2434 73.0303C73.9128 73.0303 74.4555 73.573 74.4555 74.2424C74.4555 74.9119 73.9128 75.4545 73.2434 75.4545C72.5739 75.4545 72.0312 74.9119 72.0312 74.2424C72.0312 73.573 72.5739 73.0303 73.2434 73.0303Z" fill="#C8C4C2"/>
<path d="M80.5129 73.0302C81.1824 73.0302 81.725 73.5728 81.725 74.2423C81.725 74.9117 81.1824 75.4544 80.5129 75.4544C79.8435 75.4544 79.3008 74.9117 79.3008 74.2423C79.3008 73.5728 79.8435 73.0302 80.5129 73.0302Z" fill="#C8C4C2"/>
<path d="M82.9387 73.0303C83.6081 73.0303 84.1508 73.573 84.1508 74.2425C84.1508 74.9119 83.6081 75.4546 82.9387 75.4546C82.2693 75.4546 81.7266 74.9119 81.7266 74.2425C81.7266 73.573 82.2693 73.0303 82.9387 73.0303Z" fill="#C8C4C2"/>
<path d="M44.1496 75.455C44.8191 75.455 45.3617 75.9976 45.3617 76.6671C45.3617 77.3365 44.8191 77.8792 44.1496 77.8792C43.4802 77.8792 42.9375 77.3365 42.9375 76.6671C42.9375 75.9976 43.4802 75.455 44.1496 75.455Z" fill="#C8C4C2"/>
<path d="M46.5754 75.455C47.2449 75.455 47.7875 75.9976 47.7875 76.6671C47.7875 77.3365 47.2449 77.8792 46.5754 77.8792C45.906 77.8792 45.3633 77.3365 45.3633 76.6671C45.3633 75.9976 45.906 75.455 46.5754 75.455Z" fill="#C8C4C2"/>
<path d="M49.0012 75.455C49.6706 75.455 50.2133 75.9976 50.2133 76.6671C50.2133 77.3365 49.6706 77.8792 49.0012 77.8792C48.3318 77.8792 47.7891 77.3365 47.7891 76.6671C47.7891 75.9976 48.3318 75.455 49.0012 75.455Z" fill="#C8C4C2"/>
<path d="M53.8488 75.455C54.5183 75.455 55.061 75.9976 55.061 76.6671C55.061 77.3365 54.5183 77.8792 53.8488 77.8792C53.1794 77.8792 52.6367 77.3365 52.6367 76.6671C52.6367 75.9976 53.1794 75.455 53.8488 75.455Z" fill="#C8C4C2"/>
<path d="M56.2707 75.455C56.9402 75.455 57.4828 75.9976 57.4828 76.6671C57.4828 77.3365 56.9402 77.8792 56.2707 77.8792C55.6013 77.8792 55.0586 77.3365 55.0586 76.6671C55.0586 75.9976 55.6013 75.455 56.2707 75.455Z" fill="#C8C4C2"/>
<path d="M61.1184 75.455C61.7878 75.455 62.3305 75.9976 62.3305 76.6671C62.3305 77.3365 61.7878 77.8792 61.1184 77.8792C60.4489 77.8792 59.9062 77.3365 59.9062 76.6671C59.9062 75.9976 60.4489 75.455 61.1184 75.455Z" fill="#C8C4C2"/>
<path d="M63.5442 75.455C64.2136 75.455 64.7563 75.9976 64.7563 76.6671C64.7563 77.3365 64.2136 77.8792 63.5442 77.8792C62.8747 77.8792 62.332 77.3365 62.332 76.6671C62.332 75.9976 62.8747 75.455 63.5442 75.455Z" fill="#C8C4C2"/>
<path d="M70.8176 75.455C71.4871 75.455 72.0297 75.9976 72.0297 76.6671C72.0297 77.3365 71.4871 77.8792 70.8176 77.8792C70.1482 77.8792 69.6055 77.3365 69.6055 76.6671C69.6055 75.9976 70.1482 75.455 70.8176 75.455Z" fill="#C8C4C2"/>
<path d="M73.2434 75.455C73.9128 75.455 74.4555 75.9976 74.4555 76.6671C74.4555 77.3365 73.9128 77.8792 73.2434 77.8792C72.5739 77.8792 72.0312 77.3365 72.0312 76.6671C72.0312 75.9976 72.5739 75.455 73.2434 75.455Z" fill="#C8C4C2"/>
<path d="M75.6652 75.455C76.3347 75.455 76.8774 75.9976 76.8774 76.6671C76.8774 77.3365 76.3347 77.8792 75.6652 77.8792C74.9958 77.8792 74.4531 77.3365 74.4531 76.6671C74.4531 75.9976 74.9958 75.455 75.6652 75.455Z" fill="#C8C4C2"/>
<path d="M78.091 75.455C78.7605 75.455 79.3031 75.9976 79.3031 76.6671C79.3031 77.3365 78.7605 77.8792 78.091 77.8792C77.4216 77.8792 76.8789 77.3365 76.8789 76.6671C76.8789 75.9976 77.4216 75.455 78.091 75.455Z" fill="#C8C4C2"/>
<path d="M80.5129 75.455C81.1824 75.455 81.725 75.9976 81.725 76.6671C81.725 77.3365 81.1824 77.8792 80.5129 77.8792C79.8435 77.8792 79.3008 77.3365 79.3008 76.6671C79.3008 75.9976 79.8435 75.455 80.5129 75.455Z" fill="#C8C4C2"/>
<path d="M34.4543 77.8788C35.1238 77.8788 35.6664 78.4215 35.6664 79.0909C35.6664 79.7604 35.1238 80.303 34.4543 80.303C33.7849 80.303 33.2422 79.7604 33.2422 79.0909C33.2422 78.4215 33.7849 77.8788 34.4543 77.8788Z" fill="#C8C4C2"/>
<path d="M41.7277 77.8788C42.3972 77.8788 42.9399 78.4215 42.9399 79.0909C42.9399 79.7604 42.3972 80.303 41.7277 80.303C41.0583 80.303 40.5156 79.7604 40.5156 79.0909C40.5156 78.4215 41.0583 77.8788 41.7277 77.8788Z" fill="#C8C4C2"/>
<path d="M44.1496 77.8788C44.8191 77.8788 45.3617 78.4215 45.3617 79.0909C45.3617 79.7604 44.8191 80.303 44.1496 80.303C43.4802 80.303 42.9375 79.7604 42.9375 79.0909C42.9375 78.4215 43.4802 77.8788 44.1496 77.8788Z" fill="#C8C4C2"/>
<path d="M56.2707 77.8788C56.9402 77.8788 57.4828 78.4215 57.4828 79.0909C57.4828 79.7604 56.9402 80.303 56.2707 80.303C55.6013 80.303 55.0586 79.7604 55.0586 79.0909C55.0586 78.4215 55.6013 77.8788 56.2707 77.8788Z" fill="#C8C4C2"/>
<path d="M65.9699 77.8788C66.6394 77.8788 67.1821 78.4215 67.1821 79.0909C67.1821 79.7604 66.6394 80.303 65.9699 80.303C65.3005 80.303 64.7578 79.7604 64.7578 79.0909C64.7578 78.4215 65.3005 77.8788 65.9699 77.8788Z" fill="#C8C4C2"/>
<path d="M73.2434 77.8788C73.9128 77.8788 74.4555 78.4215 74.4555 79.0909C74.4555 79.7604 73.9128 80.303 73.2434 80.303C72.5739 80.303 72.0312 79.7604 72.0312 79.0909C72.0312 78.4215 72.5739 77.8788 73.2434 77.8788Z" fill="#C8C4C2"/>
<path d="M75.6652 77.8788C76.3347 77.8788 76.8774 78.4215 76.8774 79.0909C76.8774 79.7604 76.3347 80.303 75.6652 80.303C74.9958 80.303 74.4531 79.7604 74.4531 79.0909C74.4531 78.4215 74.9958 77.8788 75.6652 77.8788Z" fill="#C8C4C2"/>
<path d="M80.5129 77.8788C81.1824 77.8788 81.725 78.4215 81.725 79.0909C81.725 79.7604 81.1824 80.303 80.5129 80.303C79.8435 80.303 79.3008 79.7604 79.3008 79.0909C79.3008 78.4215 79.8435 77.8788 80.5129 77.8788Z" fill="#C8C4C2"/>
<path d="M82.9387 77.8788C83.6081 77.8788 84.1508 78.4215 84.1508 79.0909C84.1508 79.7604 83.6081 80.303 82.9387 80.303C82.2693 80.303 81.7266 79.7604 81.7266 79.0909C81.7266 78.4215 82.2693 77.8788 82.9387 77.8788Z" fill="#C8C4C2"/>
<path d="M39.302 80.3026C39.9714 80.3026 40.5141 80.8453 40.5141 81.5147C40.5141 82.1842 39.9714 82.7269 39.302 82.7269C38.6325 82.7269 38.0898 82.1842 38.0898 81.5147C38.0898 80.8453 38.6325 80.3026 39.302 80.3026Z" fill="#C8C4C2"/>
<path d="M41.7277 80.3026C42.3972 80.3026 42.9399 80.8453 42.9399 81.5147C42.9399 82.1842 42.3972 82.7269 41.7277 82.7269C41.0583 82.7269 40.5156 82.1842 40.5156 81.5147C40.5156 80.8453 41.0583 80.3026 41.7277 80.3026Z" fill="#C8C4C2"/>
<path d="M46.5754 80.3026C47.2449 80.3026 47.7875 80.8453 47.7875 81.5147C47.7875 82.1842 47.2449 82.7269 46.5754 82.7269C45.906 82.7269 45.3633 82.1842 45.3633 81.5147C45.3633 80.8453 45.906 80.3026 46.5754 80.3026Z" fill="#C8C4C2"/>
<path d="M49.0012 80.3026C49.6706 80.3026 50.2133 80.8453 50.2133 81.5147C50.2133 82.1842 49.6706 82.7269 49.0012 82.7269C48.3318 82.7269 47.7891 82.1842 47.7891 81.5147C47.7891 80.8453 48.3318 80.3026 49.0012 80.3026Z" fill="#C8C4C2"/>
<path d="M51.4231 80.3026C52.0925 80.3026 52.6352 80.8453 52.6352 81.5147C52.6352 82.1842 52.0925 82.7269 51.4231 82.7269C50.7536 82.7269 50.2109 82.1842 50.2109 81.5147C50.2109 80.8453 50.7536 80.3026 51.4231 80.3026Z" fill="#C8C4C2"/>
<path d="M53.8488 80.3026C54.5183 80.3026 55.061 80.8453 55.061 81.5147C55.061 82.1842 54.5183 82.7269 53.8488 82.7269C53.1794 82.7269 52.6367 82.1842 52.6367 81.5147C52.6367 80.8453 53.1794 80.3026 53.8488 80.3026Z" fill="#C8C4C2"/>
<path d="M56.2707 80.3026C56.9402 80.3026 57.4828 80.8453 57.4828 81.5147C57.4828 82.1842 56.9402 82.7269 56.2707 82.7269C55.6013 82.7269 55.0586 82.1842 55.0586 81.5147C55.0586 80.8453 55.6013 80.3026 56.2707 80.3026Z" fill="#C8C4C2"/>
<path d="M58.6965 80.3026C59.366 80.3026 59.9086 80.8453 59.9086 81.5147C59.9086 82.1842 59.366 82.7269 58.6965 82.7269C58.0271 82.7269 57.4844 82.1842 57.4844 81.5147C57.4844 80.8453 58.0271 80.3026 58.6965 80.3026Z" fill="#C8C4C2"/>
<path d="M63.5442 80.3026C64.2136 80.3026 64.7563 80.8453 64.7563 81.5147C64.7563 82.1842 64.2136 82.7269 63.5442 82.7269C62.8747 82.7269 62.332 82.1842 62.332 81.5147C62.332 80.8453 62.8747 80.3026 63.5442 80.3026Z" fill="#C8C4C2"/>
<path d="M68.3918 80.3026C69.0613 80.3026 69.6039 80.8453 69.6039 81.5147C69.6039 82.1842 69.0613 82.7269 68.3918 82.7269C67.7224 82.7269 67.1797 82.1842 67.1797 81.5147C67.1797 80.8453 67.7224 80.3026 68.3918 80.3026Z" fill="#C8C4C2"/>
<path d="M75.6652 80.3026C76.3347 80.3026 76.8774 80.8453 76.8774 81.5147C76.8774 82.1842 76.3347 82.7269 75.6652 82.7269C74.9958 82.7269 74.4531 82.1842 74.4531 81.5147C74.4531 80.8453 74.9958 80.3026 75.6652 80.3026Z" fill="#C8C4C2"/>
<path d="M39.3022 82.7273C39.9717 82.7273 40.5143 83.27 40.5143 83.9394C40.5143 84.6089 39.9717 85.1515 39.3022 85.1515C38.6328 85.1515 38.0901 84.6089 38.0901 83.9394C38.0901 83.27 38.6328 82.7273 39.3022 82.7273Z" fill="#C8C4C2"/>
<path d="M44.1496 82.7273C44.8191 82.7273 45.3617 83.27 45.3617 83.9394C45.3617 84.6089 44.8191 85.1515 44.1496 85.1515C43.4802 85.1515 42.9375 84.6089 42.9375 83.9394C42.9375 83.27 43.4802 82.7273 44.1496 82.7273Z" fill="#C8C4C2"/>
<path d="M48.9973 82.7273C49.6667 82.7273 50.2094 83.27 50.2094 83.9394C50.2094 84.6089 49.6667 85.1515 48.9973 85.1515C48.3278 85.1515 47.7852 84.6089 47.7852 83.9394C47.7852 83.27 48.3278 82.7273 48.9973 82.7273Z" fill="#C8C4C2"/>
<path d="M51.4231 82.7274C52.0925 82.7274 52.6352 83.2701 52.6352 83.9395C52.6352 84.609 52.0925 85.1517 51.4231 85.1517C50.7536 85.1517 50.2109 84.609 50.2109 83.9395C50.2109 83.2701 50.7536 82.7274 51.4231 82.7274Z" fill="#C8C4C2"/>
<path d="M53.8488 82.7273C54.5183 82.7273 55.061 83.27 55.061 83.9394C55.061 84.6089 54.5183 85.1515 53.8488 85.1515C53.1794 85.1515 52.6367 84.6089 52.6367 83.9394C52.6367 83.27 53.1794 82.7273 53.8488 82.7273Z" fill="#C8C4C2"/>
<path d="M58.6965 82.7274C59.366 82.7274 59.9086 83.2701 59.9086 83.9395C59.9086 84.609 59.366 85.1517 58.6965 85.1517C58.0271 85.1517 57.4844 84.609 57.4844 83.9395C57.4844 83.2701 58.0271 82.7274 58.6965 82.7274Z" fill="#C8C4C2"/>
<path d="M61.1223 82.7273C61.7917 82.7273 62.3344 83.27 62.3344 83.9394C62.3344 84.6089 61.7917 85.1515 61.1223 85.1515C60.4528 85.1515 59.9102 84.6089 59.9102 83.9394C59.9102 83.27 60.4528 82.7273 61.1223 82.7273Z" fill="#C8C4C2"/>
<path d="M63.5442 82.7274C64.2136 82.7274 64.7563 83.2701 64.7563 83.9395C64.7563 84.609 64.2136 85.1517 63.5442 85.1517C62.8747 85.1517 62.332 84.609 62.332 83.9395C62.332 83.2701 62.8747 82.7274 63.5442 82.7274Z" fill="#C8C4C2"/>
<path d="M65.9699 82.7273C66.6394 82.7273 67.1821 83.27 67.1821 83.9394C67.1821 84.6089 66.6394 85.1515 65.9699 85.1515C65.3005 85.1515 64.7578 84.6089 64.7578 83.9394C64.7578 83.27 65.3005 82.7273 65.9699 82.7273Z" fill="#C8C4C2"/>
<path d="M68.3918 82.7274C69.0613 82.7274 69.6039 83.2701 69.6039 83.9395C69.6039 84.609 69.0613 85.1517 68.3918 85.1517C67.7224 85.1517 67.1797 84.609 67.1797 83.9395C67.1797 83.2701 67.7224 82.7274 68.3918 82.7274Z" fill="#C8C4C2"/>
<path d="M70.8173 82.7273C71.4868 82.7273 72.0295 83.27 72.0295 83.9394C72.0295 84.6089 71.4868 85.1515 70.8173 85.1515C70.1479 85.1515 69.6052 84.6089 69.6052 83.9394C69.6052 83.27 70.1479 82.7273 70.8173 82.7273Z" fill="#C8C4C2"/>
<path d="M73.2434 82.7273C73.9128 82.7273 74.4555 83.27 74.4555 83.9394C74.4555 84.6089 73.9128 85.1515 73.2434 85.1515C72.5739 85.1515 72.0312 84.6089 72.0312 83.9394C72.0312 83.27 72.5739 82.7273 73.2434 82.7273Z" fill="#C8C4C2"/>
<path d="M82.9387 82.7273C83.6081 82.7273 84.1508 83.27 84.1508 83.9394C84.1508 84.6089 83.6081 85.1515 82.9387 85.1515C82.2693 85.1515 81.7266 84.6089 81.7266 83.9394C81.7266 83.27 82.2693 82.7273 82.9387 82.7273Z" fill="#C8C4C2"/>
<path d="M25.0237 14.8495H19.6413C17.0181 14.8495 14.7958 16.5826 14.0852 18.9514C14.0118 19.1964 13.9544 19.4483 13.9145 19.7057C13.8706 19.9898 13.8477 20.2806 13.8477 20.5768V26.087C13.8477 29.2466 16.4474 31.816 19.6413 31.816L22.3325 31.8165L25.0237 31.8158C28.2174 31.8158 30.8174 29.2464 30.8174 26.0868V20.5768C30.8174 17.4187 28.2176 14.8495 25.0237 14.8495ZM28.2719 26.087C28.2719 27.8423 26.8149 29.2705 25.0231 29.2705L22.3325 29.271L19.642 29.2703C17.8501 29.2703 16.3931 27.8422 16.3931 26.087V20.5768C16.3931 20.0285 16.5353 19.5123 16.7856 19.0612C17.0266 18.6273 17.3675 18.2541 17.778 17.9716C18.3058 17.6083 18.9484 17.3949 19.6411 17.3949H25.0237C26.8149 17.3949 28.2719 18.8223 28.2719 20.5768V26.087Z" fill="#C8C4C2"/>
<path d="M78.3558 14.8495H72.9733C70.3501 14.8495 68.1278 16.5826 67.4173 18.9514C67.3438 19.1964 67.2864 19.4483 67.2465 19.7057C67.2026 19.9898 67.1797 20.2806 67.1797 20.5768V26.087C67.1797 29.2466 69.7794 31.816 72.9733 31.816L75.6645 31.8165L78.3558 31.8158C81.5495 31.8158 84.1494 29.2464 84.1494 26.0868V20.5768C84.1494 17.4187 81.5496 14.8495 78.3558 14.8495ZM81.6039 26.087C81.6039 27.8423 80.1469 29.2705 78.3551 29.2705L75.6645 29.271L72.974 29.2703C71.1822 29.2703 69.7251 27.8422 69.7251 26.087V20.5768C69.7251 20.0285 69.8673 19.5123 70.1177 19.0612C70.3586 18.6273 70.6995 18.2541 71.11 17.9716C71.6378 17.6083 72.2804 17.3949 72.9731 17.3949H78.3558C80.1469 17.3949 81.6039 18.8223 81.6039 20.5768V26.087Z" fill="#C8C4C2"/>
<path d="M25.0237 68.1835H19.6413C17.0181 68.1835 14.7958 69.9166 14.0852 72.2854C14.0118 72.5304 13.9544 72.7823 13.9145 73.0397C13.8706 73.3238 13.8477 73.6146 13.8477 73.9107V79.421C13.8477 82.5806 16.4474 85.1499 19.6413 85.1499L22.3325 85.1505L25.0237 85.1498C28.2174 85.1498 30.8174 82.5804 30.8174 79.4208V73.9107C30.8174 70.7527 28.2176 68.1835 25.0237 68.1835ZM28.2719 79.421C28.2719 81.1763 26.8149 82.6045 25.0231 82.6045L22.3325 82.605L19.642 82.6043C17.8501 82.6043 16.3931 81.1761 16.3931 79.421V73.9107C16.3931 73.3625 16.5353 72.8462 16.7856 72.3952C17.0266 71.9613 17.3675 71.5881 17.778 71.3056C18.3058 70.9422 18.9484 70.7289 19.6411 70.7289H25.0237C26.8149 70.7289 28.2719 72.1562 28.2719 73.9107V79.421Z" fill="#C8C4C2"/>
<path d="M20.6853 26.9697C19.5878 26.9697 18.6951 26.0947 18.6951 25.0201V21.6457C18.6951 21.31 18.7823 20.994 18.9351 20.7176C19.0827 20.4516 19.2916 20.2229 19.5431 20.0504C19.8663 19.828 20.2602 19.697 20.6842 19.697H23.9807C25.0771 19.697 25.9698 20.5711 25.9698 21.6456V25.02C25.9698 26.0945 25.0772 26.9697 23.9807 26.9697H22.3325L20.6853 26.9697Z" fill="#C8C4C2"/>
<path d="M74.0175 26.9697C72.9201 26.9697 72.0273 26.0947 72.0273 25.0201V21.6457C72.0273 21.31 72.1146 20.994 72.2674 20.7176C72.415 20.4516 72.6239 20.2229 72.8754 20.0504C73.1985 19.828 73.5924 19.697 74.0164 19.697H77.3129C78.4094 19.697 79.3021 20.5711 79.3021 21.6456V25.02C79.3021 26.0945 78.4095 26.9697 77.3129 26.9697H75.6647L74.0175 26.9697Z" fill="#C8C4C2"/>
<path d="M20.6853 80.3031C19.5878 80.3031 18.6951 79.428 18.6951 78.3534V74.979C18.6951 74.6433 18.7823 74.3274 18.9351 74.0509C19.0827 73.7849 19.2916 73.5562 19.5431 73.3837C19.8663 73.1613 20.2602 73.0303 20.6842 73.0303H23.9807C25.0771 73.0303 25.9698 73.9044 25.9698 74.9789V78.3533C25.9698 79.4279 25.0772 80.303 23.9807 80.303H22.3325L20.6853 80.3031Z" fill="#C8C4C2"/>
<path d="M49.0048 45.4429C49.767 45.4429 50.2751 44.9543 50.2751 44.2312C50.2751 43.5081 49.767 43 49.0048 43C48.2035 43 47.6954 43.5081 47.6954 44.2312C47.6954 44.9543 48.2035 45.4429 49.0048 45.4429ZM47.8713 56.68H50.2751C50.5096 56.68 50.6855 56.5823 50.6855 56.4259V56.3478C50.6855 55.9765 49.9038 55.9765 49.9038 55.2925V47.4558C49.9038 47.1822 49.7083 46.9867 49.2979 47.1822L47.7931 47.9248C47.6173 48.0225 47.5 48.0811 47.5 48.2179V48.257C47.5 48.5502 48.2035 48.7065 48.2035 49.4687V55.2925C48.2035 55.9765 47.5 55.9765 47.5 56.3478V56.4259C47.5 56.5823 47.6368 56.68 47.8713 56.68Z" fill="#C8C4C2"/>
<rect x="4.5" y="4.5" width="89" height="89" rx="9.5" stroke="#625E5C"/>
<rect x="0.5" y="0.5" width="97" height="97" rx="12.5" stroke="#625E5C"/>
</svg>
