<svg width="134" height="45" viewBox="0 0 134 45" fill="none" xmlns="http://www.w3.org/2000/svg">
<g clip-path="url(#clip0_450_24975)">
<path d="M123.329 0.00014625H10.6769C10.2663 0.00014625 9.86061 0.00014625 9.45107 0.00239625C9.10824 0.00464625 8.76815 0.0111825 8.42203 0.0166837C7.67009 0.0255733 6.91993 0.092032 6.17806 0.215483C5.43722 0.34162 4.7196 0.579426 4.04945 0.920857C3.38012 1.26518 2.76854 1.71258 2.23688 2.24685C1.70244 2.77961 1.25694 3.39541 0.917509 4.07058C0.577146 4.74439 0.341137 5.46645 0.217633 6.21181C0.0929558 6.95623 0.0258656 7.70923 0.016965 8.46406C0.00657323 8.80899 0.00547583 9.15506 0 9.50003V35.5036C0.00547583 35.8529 0.00657323 36.1913 0.016965 36.5407C0.0258683 37.2955 0.0929585 38.0485 0.217633 38.7928C0.340796 39.5386 0.576819 40.2611 0.917509 40.9352C1.25678 41.6082 1.70235 42.2215 2.23688 42.7513C2.76652 43.2879 3.3785 43.7356 4.04945 44.0773C4.71959 44.4197 5.43714 44.6589 6.17806 44.787C6.92006 44.9094 7.67014 44.9759 8.42203 44.9859C8.76815 44.9935 9.10824 44.9979 9.45107 44.9979C9.8606 45.0001 10.2663 45.0001 10.6769 45.0001H123.329C123.732 45.0001 124.14 45.0001 124.543 44.9979C124.884 44.9979 125.234 44.9935 125.575 44.9859C126.326 44.9764 127.074 44.9099 127.815 44.787C128.558 44.658 129.278 44.4188 129.952 44.0773C130.622 43.7354 131.233 43.2877 131.763 42.7513C132.296 42.2194 132.742 41.6065 133.086 40.9352C133.424 40.2606 133.658 39.5382 133.779 38.7928C133.904 38.0484 133.973 37.2956 133.987 36.5407C133.991 36.1913 133.991 35.8529 133.991 35.5036C134 35.0949 134 34.6884 134 34.273V10.7283C134 10.3163 134 9.90762 133.991 9.50003C133.991 9.15506 133.991 8.80899 133.987 8.46402C133.973 7.70912 133.904 6.95629 133.779 6.21177C133.657 5.46684 133.424 4.74484 133.086 4.07053C132.395 2.71724 131.298 1.61567 129.952 0.920756C129.278 0.58016 128.558 0.342417 127.815 0.215381C127.075 0.0913869 126.326 0.024905 125.575 0.0165263C125.234 0.0110362 124.884 0.00444375 124.543 0.00225C124.14 0 123.732 0.00014625 123.329 0.00014625Z" fill="#A6A6A6"/>
<path d="M9.45647 44.0156C9.11529 44.0156 8.78235 44.0112 8.44385 44.0036C7.74261 43.9944 7.04301 43.9331 6.35078 43.8201C5.70532 43.7084 5.08004 43.5007 4.49556 43.2037C3.91645 42.9092 3.38825 42.5231 2.9312 42.06C2.46754 41.6025 2.08151 41.0718 1.78843 40.489C1.49212 39.9024 1.28706 39.2736 1.18038 38.6246C1.06518 37.9273 1.00285 37.2221 0.993933 36.5153C0.986833 36.278 0.977539 35.488 0.977539 35.488V9.49988C0.977539 9.49988 0.987438 8.72205 0.993989 8.49353C1.00253 7.78779 1.06449 7.08373 1.17935 6.38745C1.28622 5.73666 1.49145 5.10609 1.78792 4.51758C2.07992 3.93519 2.4638 3.40409 2.92467 2.94489C3.38503 2.48132 3.91491 2.09318 4.49501 1.79461C5.07815 1.49861 5.70224 1.29232 6.3464 1.18268C7.0409 1.06857 7.74293 1.00687 8.4466 0.998111L9.45702 0.984375H124.537L125.56 0.998663C126.257 1.00699 126.953 1.06813 127.641 1.18158C128.292 1.2926 128.922 1.50032 129.512 1.79791C130.674 2.39961 131.62 3.35156 132.216 4.52033C132.508 5.10477 132.71 5.7302 132.816 6.37536C132.932 7.07736 132.997 7.78696 133.01 8.49848C133.014 8.81708 133.014 9.1593 133.014 9.49988C133.022 9.92176 133.022 10.3233 133.022 10.7281V34.2729C133.022 34.6816 133.022 35.0804 133.014 35.4825C133.014 35.8484 133.014 36.1835 133.009 36.5284C132.996 37.2272 132.932 37.9242 132.818 38.6136C132.713 39.2673 132.509 39.901 132.213 40.4923C131.918 41.0688 131.534 41.5949 131.076 42.0513C130.618 42.5168 130.089 42.9052 129.509 43.2016C128.921 43.5008 128.291 43.7093 127.641 43.8201C126.949 43.9337 126.249 43.995 125.548 44.0036C125.22 44.0112 124.876 44.0156 124.543 44.0156L123.329 44.0179L9.45647 44.0156Z" fill="black"/>
<path d="M27.7362 22.8382C27.7482 21.8992 27.9965 20.9786 28.4579 20.1619C28.9193 19.3452 29.5788 18.659 30.3751 18.1672C29.8692 17.4414 29.2019 16.8441 28.426 16.4227C27.6502 16.0013 26.7873 15.7675 25.9058 15.7398C24.0253 15.5415 22.2024 16.8702 21.2441 16.8702C20.2674 16.8702 18.792 15.7595 17.2033 15.7923C16.1757 15.8257 15.1742 16.1259 14.2964 16.6637C13.4187 17.2015 12.6945 17.9586 12.1946 18.8612C10.0289 22.6281 11.6443 28.1643 13.7188 31.2092C14.7568 32.7003 15.9698 34.3658 17.5571 34.3067C19.1103 34.242 19.6904 33.3117 21.5653 33.3117C23.4228 33.3117 23.967 34.3067 25.5865 34.2692C27.2532 34.242 28.3033 32.7715 29.3048 31.2664C30.0506 30.204 30.6245 29.0298 31.0052 27.7873C30.0369 27.3759 29.2105 26.6872 28.6292 25.8071C28.0479 24.927 27.7373 23.8945 27.7362 22.8382Z" fill="white"/>
<path d="M24.6772 13.7372C25.586 12.6413 26.0337 11.2326 25.9253 9.8103C24.5369 9.9568 23.2545 10.6234 22.3334 11.6774C21.8831 12.1922 21.5382 12.7912 21.3185 13.4401C21.0987 14.089 21.0084 14.775 21.0527 15.4589C21.7471 15.4661 22.4341 15.3149 23.062 15.0167C23.6898 14.7185 24.2421 14.281 24.6772 13.7372Z" fill="white"/>
<path d="M47.3701 30.5321H42.0696L40.7967 34.3081H38.5516L43.5722 20.3379H45.9047L50.9252 34.3081H48.6419L47.3701 30.5321ZM42.6186 28.7897H46.8201L44.7489 22.6615H44.6909L42.6186 28.7897Z" fill="white"/>
<path d="M61.7678 29.2159C61.7678 32.3811 60.0816 34.4147 57.5369 34.4147C56.8922 34.4485 56.2512 34.2994 55.687 33.9842C55.1229 33.6691 54.6585 33.2007 54.347 32.6327H54.2988V37.6776H52.2178V24.1227H54.2321V25.8168H54.2704C54.5962 25.2515 55.0685 24.7855 55.6369 24.4684C56.2054 24.1514 56.8487 23.995 57.4986 24.0161C60.0717 24.0161 61.7678 26.0596 61.7678 29.2159ZM59.6288 29.2159C59.6288 27.1538 58.5681 25.7981 56.9496 25.7981C55.3596 25.7981 54.2901 27.1824 54.2901 29.2159C54.2901 31.2682 55.3596 32.6426 56.9496 32.6426C58.5681 32.6426 59.6288 31.2967 59.6288 29.2159Z" fill="white"/>
<path d="M72.9265 29.2159C72.9265 32.3811 71.2403 34.4147 68.6956 34.4147C68.0509 34.4485 67.4099 34.2994 66.8457 33.9842C66.2816 33.669 65.8171 33.2007 65.5057 32.6327H65.4575V37.6776H63.3765V24.1227H65.3908V25.8168H65.4291C65.7549 25.2515 66.2271 24.7855 66.7956 24.4684C67.364 24.1514 68.0074 23.995 68.6572 24.0161C71.2304 24.0161 72.9265 26.0595 72.9265 29.2159ZM70.7875 29.2159C70.7875 27.1538 69.7268 25.7981 68.1083 25.7981C66.5183 25.7981 65.4488 27.1824 65.4488 29.2159C65.4488 31.2682 66.5183 32.6426 68.1083 32.6426C69.7268 32.6426 70.7875 31.2967 70.7875 29.2159Z" fill="white"/>
<path d="M80.3014 30.4156C80.4556 31.801 81.7952 32.7106 83.6258 32.7106C85.3799 32.7106 86.6419 31.801 86.6419 30.5518C86.6419 29.4675 85.8807 28.8182 84.0786 28.3732L82.2764 27.9371C79.7229 27.3175 78.5375 26.1177 78.5375 24.171C78.5375 21.7606 80.6284 20.1049 83.5974 20.1049C86.5358 20.1049 88.5501 21.7606 88.6179 24.171H86.5172C86.3914 22.7768 85.2443 21.9352 83.5679 21.9352C81.8914 21.9352 80.7443 22.7867 80.7443 24.0259C80.7443 25.0136 81.477 25.5948 83.2693 26.0397L84.8014 26.4176C87.6545 27.0955 88.8399 28.2469 88.8399 30.2903C88.8399 32.904 86.7676 34.5409 83.4716 34.5409C80.3878 34.5409 78.3057 32.9424 78.1711 30.4155L80.3014 30.4156Z" fill="white"/>
<path d="M93.3311 21.7123V24.1227H95.259V25.7783H93.3311V31.3934C93.3311 32.2657 93.7171 32.6722 94.5646 32.6722C94.7935 32.6682 95.022 32.6521 95.2492 32.6239V34.2696C94.8682 34.3411 94.4809 34.3735 94.0933 34.3663C92.0407 34.3663 91.2402 33.5918 91.2402 31.6164V25.7783H89.7661V24.1227H91.2402V21.7123H93.3311Z" fill="white"/>
<path d="M96.3756 29.2159C96.3756 26.0112 98.2543 23.9974 101.184 23.9974C104.123 23.9974 105.993 26.0112 105.993 29.2159C105.993 32.4294 104.133 34.4344 101.184 34.4344C98.2357 34.4344 96.3756 32.4294 96.3756 29.2159ZM103.873 29.2159C103.873 27.0176 102.87 25.7201 101.184 25.7201C99.4977 25.7201 98.496 27.0275 98.496 29.2159C98.496 31.4231 99.4977 32.7107 101.184 32.7107C102.87 32.7107 103.873 31.4231 103.873 29.2159Z" fill="white"/>
<path d="M107.709 24.1227H109.694V25.8563H109.742C109.876 25.3149 110.192 24.8364 110.636 24.5013C111.08 24.1661 111.626 23.9948 112.181 24.0161C112.421 24.0153 112.66 24.0414 112.894 24.0941V26.0497C112.591 25.9567 112.275 25.9141 111.959 25.9233C111.656 25.911 111.355 25.9646 111.075 26.0803C110.796 26.1961 110.544 26.3713 110.338 26.5939C110.132 26.8165 109.976 27.0813 109.882 27.3701C109.787 27.6588 109.756 27.9647 109.79 28.2667V34.3081H107.709L107.709 24.1227Z" fill="white"/>
<path d="M122.489 31.3165C122.209 33.1655 120.416 34.4344 118.123 34.4344C115.174 34.4344 113.343 32.4492 113.343 29.2643C113.343 26.0695 115.184 23.9974 118.036 23.9974C120.841 23.9974 122.605 25.9332 122.605 29.0215V29.7378H115.444V29.8641C115.411 30.239 115.458 30.6166 115.581 30.9719C115.704 31.3272 115.902 31.6521 116.16 31.925C116.418 32.1979 116.73 32.4125 117.077 32.5546C117.424 32.6967 117.797 32.763 118.171 32.7491C118.663 32.7954 119.157 32.681 119.578 32.4229C120 32.1648 120.328 31.7767 120.513 31.3165L122.489 31.3165ZM115.454 28.2766H120.522C120.541 27.9396 120.49 27.6023 120.373 27.2859C120.256 26.9696 120.075 26.681 119.841 26.4382C119.608 26.1955 119.327 26.0038 119.016 25.8754C118.705 25.7469 118.372 25.6843 118.036 25.6915C117.697 25.6895 117.361 25.7549 117.047 25.884C116.734 26.0131 116.449 26.2033 116.209 26.4436C115.969 26.684 115.778 26.9697 115.649 27.2843C115.519 27.5989 115.453 27.9361 115.454 28.2766Z" fill="white"/>
<path d="M42.3578 9.82238C42.7941 9.79092 43.2319 9.85714 43.6396 10.0163C44.0474 10.1754 44.4149 10.4234 44.7156 10.7425C45.0164 11.0616 45.2429 11.4437 45.3789 11.8614C45.5148 12.2791 45.5568 12.7219 45.5018 13.1578C45.5018 15.3024 44.3481 16.5351 42.3578 16.5351H39.9443V9.82238H42.3578ZM40.9821 15.5858H42.2419C42.5536 15.6045 42.8656 15.5531 43.1551 15.4354C43.4447 15.3177 43.7044 15.1367 43.9155 14.9054C44.1266 14.6741 44.2836 14.3985 44.3753 14.0986C44.467 13.7986 44.4909 13.4819 44.4454 13.1715C44.4876 12.8623 44.4613 12.5476 44.3682 12.2498C44.2751 11.9521 44.1176 11.6787 43.907 11.4493C43.6964 11.2199 43.4379 11.0401 43.1501 10.9228C42.8622 10.8055 42.5521 10.7537 42.2419 10.771H40.9821V15.5858Z" fill="white"/>
<path d="M46.6741 13.9999C46.6424 13.667 46.6803 13.3311 46.7854 13.0138C46.8905 12.6964 47.0604 12.4047 47.2843 12.1572C47.5082 11.9097 47.7811 11.712 48.0855 11.5767C48.3899 11.4414 48.7191 11.3715 49.052 11.3715C49.3849 11.3715 49.7141 11.4414 50.0185 11.5767C50.323 11.712 50.5959 11.9097 50.8198 12.1572C51.0437 12.4047 51.2136 12.6964 51.3187 13.0138C51.4238 13.3311 51.4617 13.667 51.43 13.9999C51.4623 14.3331 51.4248 14.6695 51.32 14.9873C51.2152 15.3052 51.0454 15.5975 50.8214 15.8454C50.5975 16.0934 50.3243 16.2915 50.0196 16.4272C49.7149 16.5628 49.3853 16.6328 49.052 16.6328C48.7187 16.6328 48.3892 16.5628 48.0844 16.4272C47.7797 16.2915 47.5066 16.0934 47.2826 15.8454C47.0587 15.5975 46.8889 15.3052 46.784 14.9873C46.6792 14.6695 46.6418 14.3331 46.6741 13.9999ZM50.4064 13.9999C50.4064 12.9018 49.9154 12.2597 49.0537 12.2597C48.1887 12.2597 47.7021 12.9018 47.7021 13.9999C47.7021 15.1068 48.1887 15.744 49.0537 15.744C49.9154 15.744 50.4064 15.1024 50.4064 13.9999Z" fill="white"/>
<path d="M57.7518 16.535H56.7195L55.6773 12.804H55.5986L54.5608 16.535H53.5383L52.1484 11.4692H53.1578L54.0611 15.3347H54.1354L55.1721 11.4692H56.1268L57.1635 15.3347H57.2422L58.1411 11.4692H59.1363L57.7518 16.535Z" fill="white"/>
<path d="M60.3053 11.4692H61.2633V12.2739H61.3376C61.4638 11.9849 61.6765 11.7426 61.9463 11.5808C62.216 11.419 62.5292 11.3458 62.8424 11.3714C63.0877 11.3528 63.3341 11.39 63.5632 11.4801C63.7923 11.5702 63.9983 11.711 64.1659 11.8919C64.3335 12.0729 64.4584 12.2894 64.5315 12.5254C64.6045 12.7615 64.6237 13.011 64.5877 13.2555V16.5349H63.5925V13.5066C63.5925 12.6925 63.2404 12.2876 62.5044 12.2876C62.3379 12.2799 62.1716 12.3083 62.017 12.3711C61.8624 12.434 61.7231 12.5296 61.6088 12.6515C61.4944 12.7735 61.4076 12.9188 61.3544 13.0776C61.3012 13.2363 61.2828 13.4048 61.3004 13.5714V16.535H60.3053L60.3053 11.4692Z" fill="white"/>
<path d="M66.1732 9.49164H67.1684V16.535H66.1732V9.49164Z" fill="white"/>
<path d="M68.5517 13.9999C68.5201 13.667 68.558 13.3311 68.6631 13.0137C68.7682 12.6964 68.9382 12.4046 69.1621 12.1571C69.386 11.9097 69.659 11.7119 69.9634 11.5766C70.2678 11.4413 70.5971 11.3714 70.93 11.3714C71.2629 11.3714 71.5921 11.4413 71.8965 11.5766C72.201 11.7119 72.4739 11.9097 72.6978 12.1571C72.9217 12.4046 73.0917 12.6964 73.1968 13.0137C73.3019 13.3311 73.3398 13.667 73.3082 13.9999C73.3404 14.3332 73.3029 14.6695 73.1981 14.9874C73.0933 15.3052 72.9234 15.5975 72.6994 15.8455C72.4755 16.0934 72.2023 16.2916 71.8976 16.4272C71.5928 16.5628 71.2633 16.6328 70.93 16.6328C70.5967 16.6328 70.2671 16.5628 69.9623 16.4272C69.6576 16.2916 69.3845 16.0934 69.1605 15.8455C68.9365 15.5975 68.7667 15.3052 68.6618 14.9874C68.557 14.6695 68.5195 14.3332 68.5517 13.9999ZM72.284 13.9999C72.284 12.9018 71.793 12.2597 70.9313 12.2597C70.0663 12.2597 69.5797 12.9018 69.5797 13.9999C69.5797 15.1068 70.0664 15.744 70.9313 15.744C71.793 15.744 72.284 15.1024 72.284 13.9999Z" fill="white"/>
<path d="M74.3558 15.1023C74.3558 14.1905 75.0317 13.6648 76.2313 13.5901L77.5971 13.511V13.0737C77.5971 12.5387 77.245 12.2366 76.5648 12.2366C76.0093 12.2366 75.6244 12.4415 75.5139 12.7996H74.5505C74.6522 11.9295 75.4669 11.3714 76.6107 11.3714C77.8749 11.3714 78.5879 12.0036 78.5879 13.0737V16.535H77.6299V15.8231H77.5512C77.3914 16.0784 77.167 16.2866 76.9009 16.4263C76.6348 16.5661 76.3366 16.6324 76.0366 16.6184C75.825 16.6406 75.611 16.6179 75.4086 16.5518C75.2062 16.4858 75.0198 16.3779 74.8614 16.235C74.7031 16.0922 74.5763 15.9176 74.4892 15.7225C74.4021 15.5274 74.3567 15.3162 74.3558 15.1023ZM77.5971 14.6695V14.246L76.3658 14.3251C75.6714 14.3718 75.3564 14.6091 75.3564 15.0557C75.3564 15.5116 75.7501 15.7769 76.2915 15.7769C76.4501 15.793 76.6103 15.7769 76.7626 15.7296C76.9149 15.6822 77.0562 15.6046 77.178 15.5013C77.2998 15.3979 77.3997 15.2711 77.4717 15.1282C77.5437 14.9853 77.5864 14.8293 77.5971 14.6695Z" fill="white"/>
<path d="M79.8958 13.9999C79.8958 12.3992 80.7148 11.3851 81.9888 11.3851C82.3039 11.3706 82.6167 11.4464 82.8905 11.6038C83.1643 11.7612 83.3879 11.9936 83.5351 12.2739H83.6095V9.49164H84.6046V16.535H83.651V15.7346H83.5723C83.4137 16.013 83.1824 16.2426 82.9032 16.3984C82.6241 16.5542 82.3079 16.6303 81.9888 16.6185C80.7061 16.6185 79.8958 15.6044 79.8958 13.9999ZM80.9237 13.9999C80.9237 15.0744 81.4279 15.7209 82.271 15.7209C83.1097 15.7209 83.6281 15.065 83.6281 14.0043C83.6281 12.9485 83.1043 12.2833 82.271 12.2833C81.4333 12.2833 80.9237 12.9342 80.9237 13.9999Z" fill="white"/>
<path d="M88.7218 13.9999C88.6901 13.667 88.728 13.3311 88.8331 13.0138C88.9382 12.6964 89.1081 12.4047 89.332 12.1572C89.5559 11.9097 89.8288 11.712 90.1332 11.5767C90.4377 11.4414 90.7669 11.3715 91.0998 11.3715C91.4326 11.3715 91.7618 11.4414 92.0663 11.5767C92.3707 11.712 92.6436 11.9097 92.8675 12.1572C93.0914 12.4047 93.2613 12.6964 93.3664 13.0138C93.4715 13.3311 93.5094 13.667 93.4777 13.9999C93.51 14.3331 93.4725 14.6695 93.3677 14.9873C93.2629 15.3052 93.0931 15.5975 92.8691 15.8454C92.6452 16.0934 92.3721 16.2915 92.0674 16.4272C91.7626 16.5628 91.433 16.6328 91.0998 16.6328C90.7665 16.6328 90.4369 16.5628 90.1322 16.4272C89.8274 16.2915 89.5543 16.0934 89.3304 15.8454C89.1064 15.5975 88.9366 15.3052 88.8318 14.9873C88.727 14.6695 88.6895 14.3331 88.7218 13.9999ZM92.4541 13.9999C92.4541 12.9018 91.9631 12.2597 91.1014 12.2597C90.2364 12.2597 89.7498 12.9018 89.7498 13.9999C89.7498 15.1068 90.2364 15.744 91.1014 15.744C91.9631 15.744 92.4541 15.1024 92.4541 13.9999Z" fill="white"/>
<path d="M94.813 11.4692H95.7709V12.2739H95.8453C95.9715 11.9849 96.1842 11.7426 96.454 11.5808C96.7237 11.419 97.0369 11.3458 97.35 11.3714C97.5954 11.3528 97.8417 11.39 98.0709 11.4801C98.3 11.5702 98.506 11.711 98.6736 11.8919C98.8412 12.0729 98.9661 12.2894 99.0391 12.5254C99.1122 12.7615 99.1314 13.011 99.0954 13.2555V16.5349H98.1002V13.5066C98.1002 12.6925 97.7481 12.2876 97.0121 12.2876C96.8456 12.2799 96.6793 12.3083 96.5247 12.3711C96.3701 12.434 96.2308 12.5296 96.1165 12.6515C96.0021 12.7735 95.9153 12.9188 95.8621 13.0776C95.8089 13.2363 95.7905 13.4048 95.8081 13.5714V16.535H94.813V11.4692Z" fill="white"/>
<path d="M104.718 10.2079V11.4922H105.811V12.3344H104.718V14.9392C104.718 15.4699 104.936 15.7022 105.431 15.7022C105.558 15.7018 105.685 15.6941 105.811 15.6791V16.5119C105.632 16.544 105.451 16.5611 105.269 16.563C104.163 16.563 103.722 16.1719 103.722 15.1952V12.3343H102.922V11.4922H103.722V10.2079H104.718Z" fill="white"/>
<path d="M107.17 9.49164H108.157V12.2833H108.235C108.368 11.9915 108.586 11.7479 108.861 11.5855C109.136 11.4231 109.455 11.3499 109.773 11.3758C110.017 11.3625 110.261 11.4034 110.487 11.4957C110.714 11.588 110.917 11.7294 111.083 11.9098C111.249 12.0901 111.373 12.3051 111.447 12.5392C111.521 12.7734 111.542 13.021 111.509 13.2643V16.535H110.513V13.511C110.513 12.7018 110.138 12.292 109.435 12.292C109.264 12.278 109.092 12.3016 108.931 12.3613C108.77 12.4209 108.624 12.5153 108.503 12.6376C108.382 12.7599 108.289 12.9073 108.231 13.0695C108.172 13.2316 108.15 13.4046 108.165 13.5763V16.535H107.17L107.17 9.49164Z" fill="white"/>
<path d="M117.312 15.1672C117.177 15.6302 116.884 16.0307 116.484 16.2986C116.085 16.5665 115.604 16.6848 115.127 16.6328C114.795 16.6416 114.465 16.5777 114.159 16.4454C113.854 16.3132 113.581 16.1159 113.36 15.8671C113.138 15.6183 112.973 15.3241 112.876 15.0048C112.779 14.6855 112.752 14.3488 112.798 14.018C112.753 13.6863 112.781 13.3489 112.877 13.0286C112.974 12.7083 113.139 12.4127 113.359 12.1618C113.579 11.9108 113.851 11.7104 114.155 11.574C114.459 11.4377 114.789 11.3686 115.123 11.3714C116.526 11.3714 117.372 12.3344 117.372 13.9252V14.274H113.811V14.33C113.796 14.5159 113.819 14.7031 113.88 14.8794C113.94 15.0558 114.037 15.2174 114.163 15.3541C114.29 15.4907 114.443 15.5993 114.614 15.6729C114.784 15.7464 114.969 15.7834 115.154 15.7813C115.392 15.81 115.633 15.7669 115.847 15.6576C116.061 15.5482 116.237 15.3775 116.354 15.1672L117.312 15.1672ZM113.811 13.5346H116.358C116.371 13.3646 116.348 13.1938 116.291 13.0333C116.234 12.8727 116.144 12.7259 116.027 12.6023C115.91 12.4788 115.769 12.3811 115.612 12.3156C115.455 12.2502 115.287 12.2184 115.117 12.2223C114.945 12.2201 114.774 12.2526 114.615 12.3178C114.455 12.383 114.31 12.4796 114.189 12.6019C114.067 12.7242 113.971 12.8697 113.906 13.0299C113.841 13.1901 113.809 13.3617 113.811 13.5346Z" fill="white"/>
</g>
<defs>
<clipPath id="clip0_450_24975">
<rect width="134" height="45" fill="white"/>
</clipPath>
</defs>
</svg>
