<svg width="172" height="50" viewBox="0 0 172 50" fill="none" xmlns="http://www.w3.org/2000/svg">
<path d="M171.044 43.9131C171.044 46.5583 168.855 48.701 166.147 48.701H5.85989C3.15287 48.701 0.955566 46.5583 0.955566 43.9131V5.73072C0.955566 3.08672 3.15287 0.936523 5.85989 0.936523H166.145C168.855 0.936523 171.043 3.08672 171.043 5.73072L171.044 43.9131Z" fill="#0E0E0E"/>
<path d="M165.63 0.994167C168.579 0.994167 170.979 3.33179 170.979 6.20456V43.4328C170.979 46.3055 168.579 48.6431 165.63 48.6431H6.37037C3.42089 48.6431 1.02085 46.3055 1.02085 43.4328V6.20456C1.02085 3.33179 3.42089 0.994167 6.37037 0.994167H165.63ZM165.63 -0.000133514H6.37037C2.86826 -0.000133514 0 2.79353 0 6.20456V43.4328C0 46.8438 2.86826 49.6375 6.37037 49.6375H165.63C169.132 49.6375 172 46.8438 172 43.4328V6.20456C172 2.79353 169.132 -0.000133514 165.63 -0.000133514Z" fill="#AEAEAE"/>
<path d="M38.3853 24.5507C38.3484 20.5511 41.7476 18.6053 41.903 18.5147C39.9779 15.7809 36.994 15.4074 35.9455 15.3776C33.4394 15.1208 31.0084 16.8382 29.7318 16.8382C28.4297 16.8382 26.4638 15.4025 24.345 15.4447C21.6185 15.4856 19.0678 17.0231 17.6689 19.4107C14.7818 24.2789 16.935 31.4329 19.701 35.3679C21.0847 37.2951 22.7015 39.4469 24.8177 39.3712C26.8881 39.2881 27.6614 38.0856 30.1599 38.0856C32.6354 38.0856 33.3616 39.3712 35.5199 39.3228C37.7419 39.2881 39.1408 37.3869 40.4761 35.4424C42.075 33.2335 42.7172 31.0582 42.7427 30.9465C42.6904 30.9291 38.4274 29.3444 38.3853 24.5507Z" fill="white"/>
<path d="M34.3083 12.789C35.4218 11.4327 36.1837 9.58742 35.9722 7.71484C34.3605 7.78434 32.3449 8.80067 31.1843 10.1272C30.1574 11.2962 29.24 13.2122 29.477 15.0141C31.2875 15.1456 33.1463 14.1243 34.3083 12.789Z" fill="white"/>
<path d="M62.4934 12.4207C62.4934 13.8813 62.0436 14.9808 61.1454 15.7191C60.3134 16.4004 59.1311 16.7417 57.5996 16.7417C56.8403 16.7417 56.1905 16.7094 55.6465 16.6449V8.66437C56.3561 8.55269 57.1206 8.49561 57.9462 8.49561C59.405 8.49561 60.5045 8.8046 61.246 9.42259C62.0767 10.1212 62.4934 11.1202 62.4934 12.4207ZM61.0855 12.4567C61.0855 11.5098 60.8282 10.7839 60.3134 10.2776C59.7987 9.77253 59.047 9.51938 58.057 9.51938C57.6366 9.51938 57.2786 9.54668 56.9817 9.60376V15.6707C57.1461 15.6955 57.4468 15.7067 57.8838 15.7067C58.9056 15.7067 59.6942 15.43 60.2497 14.8765C60.8052 14.3231 61.0855 13.5164 61.0855 12.4567Z" fill="white"/>
<path d="M69.9582 13.6963C69.9582 14.596 69.6945 15.3331 69.167 15.9114C68.6141 16.5058 67.8815 16.8024 66.9667 16.8024C66.085 16.8024 65.383 16.5182 64.8594 15.9474C64.337 15.3778 64.0758 14.6593 64.0758 13.7931C64.0758 12.8872 64.3446 12.1439 64.8848 11.5669C65.425 10.9898 66.1513 10.7007 67.0661 10.7007C67.9477 10.7007 68.6561 10.9849 69.1925 11.5544C69.7021 12.1079 69.9582 12.8227 69.9582 13.6963ZM68.5733 13.7385C68.5733 13.1987 68.4535 12.7358 68.2153 12.3499C67.935 11.8833 67.5362 11.65 67.0176 11.65C66.4813 11.65 66.0736 11.8833 65.7933 12.3499C65.5537 12.7358 65.4352 13.2061 65.4352 13.7621C65.4352 14.3019 65.555 14.7648 65.7933 15.1507C66.0825 15.6173 66.4851 15.8506 67.0049 15.8506C67.5145 15.8506 67.9146 15.6136 68.2025 15.1383C68.4497 14.7449 68.5733 14.2783 68.5733 13.7385Z" fill="white"/>
<path d="M79.9673 10.8198L78.088 16.6696H76.8649L76.0865 14.1294C75.889 13.4953 75.7285 12.8649 75.6036 12.2395H75.5794C75.4634 12.8823 75.3029 13.5114 75.0965 14.1294L74.2696 16.6696H73.0325L71.2654 10.8198H72.6376L73.3166 13.6008C73.481 14.2585 73.616 14.8851 73.7243 15.4783H73.7485C73.8479 14.9894 74.0123 14.3664 74.2442 13.6132L75.0965 10.8211H76.1846L77.0013 13.5536C77.1987 14.22 77.3593 14.8616 77.4829 15.4796H77.5198C77.6103 14.8777 77.7466 14.2361 77.9275 13.5536L78.6563 10.8211H79.9673V10.8198Z" fill="white"/>
<path d="M86.8893 16.6694H85.5541V13.3189C85.5541 12.2864 85.1515 11.7702 84.3437 11.7702C83.9475 11.7702 83.6277 11.9117 83.3793 12.1958C83.1334 12.48 83.0085 12.8151 83.0085 13.1985V16.6682H81.6733V12.4912C81.6733 11.9774 81.6567 11.4202 81.6249 10.8171H82.7983L82.8607 11.7317H82.8977C83.0531 11.4475 83.285 11.213 83.5895 11.0256C83.9513 10.8072 84.3565 10.6968 84.7999 10.6968C85.3605 10.6968 85.8268 10.873 86.1975 11.2267C86.6587 11.6597 86.8893 12.3063 86.8893 13.165V16.6694Z" fill="white"/>
<path d="M90.5715 16.6694H89.2375V8.1355H90.5715V16.6694Z" fill="white"/>
<path d="M98.4325 13.6963C98.4325 14.596 98.1687 15.3331 97.6413 15.9114C97.0883 16.5058 96.3544 16.8024 95.4409 16.8024C94.558 16.8024 93.856 16.5182 93.3336 15.9474C92.8112 15.3778 92.55 14.6593 92.55 13.7931C92.55 12.8872 92.8189 12.1439 93.3591 11.5669C93.8993 10.9898 94.6255 10.7007 95.539 10.7007C96.422 10.7007 97.1291 10.9849 97.6667 11.5544C98.1764 12.1079 98.4325 12.8227 98.4325 13.6963ZM97.0463 13.7385C97.0463 13.1987 96.9265 12.7358 96.6882 12.3499C96.4092 11.8833 96.0092 11.65 95.4919 11.65C94.9542 11.65 94.5465 11.8833 94.2675 12.3499C94.028 12.7358 93.9095 13.2061 93.9095 13.7621C93.9095 14.3019 94.0292 14.7648 94.2675 15.1507C94.5567 15.6173 94.9593 15.8506 95.4792 15.8506C95.9888 15.8506 96.3876 15.6136 96.6755 15.1383C96.9239 14.7449 97.0463 14.2783 97.0463 13.7385Z" fill="white"/>
<path d="M104.895 16.6696H103.696L103.596 15.9958H103.559C103.149 16.5331 102.564 16.8024 101.805 16.8024C101.238 16.8024 100.779 16.6249 100.434 16.2725C100.121 15.9523 99.9639 15.554 99.9639 15.0812C99.9639 14.3664 100.27 13.8216 100.885 13.4444C101.499 13.0672 102.363 12.8823 103.475 12.8909V12.7817C103.475 12.0111 103.06 11.6264 102.228 11.6264C101.635 11.6264 101.113 11.7716 100.662 12.0595L100.391 11.2057C100.949 10.8695 101.638 10.7007 102.451 10.7007C104.021 10.7007 104.808 11.5073 104.808 13.1205V15.2748C104.808 15.8593 104.837 16.3246 104.895 16.6696ZM103.508 14.6593V13.7571C102.036 13.7323 101.299 14.1257 101.299 14.936C101.299 15.2413 101.383 15.4696 101.555 15.6222C101.727 15.7749 101.946 15.8506 102.208 15.8506C102.501 15.8506 102.774 15.76 103.024 15.5801C103.275 15.3989 103.429 15.1693 103.487 14.8876C103.501 14.8243 103.508 14.7474 103.508 14.6593Z" fill="white"/>
<path d="M112.482 16.6694H111.297L111.234 15.73H111.197C110.819 16.4448 110.174 16.8022 109.268 16.8022C108.545 16.8022 107.942 16.5255 107.464 15.972C106.987 15.4186 106.748 14.7001 106.748 13.8178C106.748 12.8709 107.007 12.104 107.527 11.5183C108.03 10.9723 108.647 10.6993 109.381 10.6993C110.187 10.6993 110.751 10.9636 111.072 11.4935H111.098V8.1355H112.434V15.0934C112.434 15.663 112.45 16.188 112.482 16.6694ZM111.098 14.2025V13.2271C111.098 13.0583 111.085 12.9218 111.061 12.8176C110.986 12.5048 110.824 12.2418 110.578 12.0296C110.33 11.8174 110.03 11.7106 109.685 11.7106C109.187 11.7106 108.797 11.903 108.51 12.2889C108.226 12.6749 108.082 13.1675 108.082 13.7694C108.082 14.3476 108.219 14.8167 108.492 15.1778C108.782 15.5625 109.172 15.7549 109.66 15.7549C110.098 15.7549 110.448 15.5948 110.714 15.2734C110.972 14.9768 111.098 14.6194 111.098 14.2025Z" fill="white"/>
<path d="M123.901 13.6963C123.901 14.596 123.637 15.3331 123.11 15.9114C122.557 16.5058 121.826 16.8024 120.91 16.8024C120.029 16.8024 119.327 16.5182 118.802 15.9474C118.28 15.3778 118.019 14.6593 118.019 13.7931C118.019 12.8872 118.288 12.1439 118.828 11.5669C119.368 10.9898 120.094 10.7007 121.01 10.7007C121.891 10.7007 122.6 10.9849 123.135 11.5544C123.645 12.1079 123.901 12.8227 123.901 13.6963ZM122.518 13.7385C122.518 13.1987 122.398 12.7358 122.16 12.3499C121.878 11.8833 121.48 11.65 120.961 11.65C120.426 11.65 120.018 11.8833 119.736 12.3499C119.497 12.7358 119.378 13.2061 119.378 13.7621C119.378 14.3019 119.498 14.7648 119.736 15.1507C120.025 15.6173 120.428 15.8506 120.948 15.8506C121.458 15.8506 121.859 15.6136 122.147 15.1383C122.393 14.7449 122.518 14.2783 122.518 13.7385Z" fill="white"/>
<path d="M131.081 16.6694H129.747V13.3189C129.747 12.2864 129.344 11.7702 128.535 11.7702C128.139 11.7702 127.819 11.9117 127.572 12.1958C127.325 12.48 127.201 12.8151 127.201 13.1985V16.6682H125.865V12.4912C125.865 11.9774 125.849 11.4202 125.817 10.8171H126.99L127.052 11.7317H127.089C127.246 11.4475 127.477 11.213 127.781 11.0256C128.144 10.8072 128.548 10.6968 128.992 10.6968C129.552 10.6968 130.018 10.873 130.389 11.2267C130.851 11.6597 131.081 12.3063 131.081 13.165V16.6694Z" fill="white"/>
<path d="M140.067 11.7938H138.596V14.6355C138.596 15.3578 138.858 15.7189 139.375 15.7189C139.614 15.7189 139.813 15.699 139.97 15.6581L140.004 16.6446C139.741 16.7414 139.394 16.7898 138.967 16.7898C138.44 16.7898 138.029 16.6335 137.733 16.3207C137.434 16.008 137.287 15.4819 137.287 14.7435V11.7938H136.409V10.8197H137.287V9.74748L138.595 9.36279V10.8184H140.065V11.7938H140.067Z" fill="white"/>
<path d="M147.135 16.6694H145.799V13.3437C145.799 12.2951 145.396 11.7702 144.59 11.7702C143.97 11.7702 143.547 12.0742 143.316 12.6823C143.276 12.8101 143.253 12.9665 143.253 13.1501V16.6682H141.919V8.1355H143.253V11.661H143.279C143.699 11.0194 144.302 10.6993 145.083 10.6993C145.636 10.6993 146.093 10.8755 146.456 11.2292C146.908 11.6697 147.135 12.3249 147.135 13.1911V16.6694Z" fill="white"/>
<path d="M154.427 13.4679C154.427 13.7012 154.409 13.8973 154.377 14.0574H150.373C150.39 14.6356 150.582 15.0762 150.952 15.3814C151.291 15.6545 151.728 15.791 152.263 15.791C152.856 15.791 153.396 15.6991 153.883 15.5142L154.092 16.4176C153.522 16.6584 152.852 16.7787 152.076 16.7787C151.146 16.7787 150.413 16.5119 149.883 15.9783C149.351 15.4447 149.087 14.7287 149.087 13.8303C149.087 12.948 149.333 12.2133 149.829 11.6276C150.346 11.0022 151.045 10.6895 151.928 10.6895C152.792 10.6895 153.448 11.0022 153.892 11.6276C154.25 12.124 154.427 12.7382 154.427 13.4679ZM153.153 13.1316C153.163 12.7457 153.075 12.4131 152.894 12.1327C152.662 11.7716 152.309 11.5904 151.831 11.5904C151.396 11.5904 151.04 11.7666 150.769 12.1203C150.547 12.4019 150.416 12.7382 150.373 13.1316H153.153Z" fill="white"/>
<path d="M68.3477 39.0945H65.4542L63.8693 34.2437H58.3602L56.8504 39.0945H54.0334L59.4916 22.5801H62.8628L68.3477 39.0945ZM63.3915 32.2085L61.9582 27.8963C61.8066 27.4557 61.5225 26.4183 61.1033 24.7852H61.0523C60.8854 25.4876 60.6166 26.525 60.2471 27.8963L58.8393 32.2085H63.3915Z" fill="white"/>
<path d="M82.3842 32.9942C82.3842 35.0194 81.8223 36.6202 80.6986 37.7954C79.6921 38.8415 78.4422 39.3639 76.9503 39.3639C75.3398 39.3639 74.183 38.8006 73.4784 37.6738H73.4274V43.9467H70.7111V31.1067C70.7111 29.8335 70.6767 28.5268 70.6105 27.1866H72.9994L73.151 29.0741H73.2019C74.1078 27.652 75.4825 26.9421 77.3274 26.9421C78.7696 26.9421 79.9736 27.4968 80.9368 28.6075C81.9026 29.7194 82.3842 31.1812 82.3842 32.9942ZM79.6169 33.091C79.6169 31.932 79.3493 30.9764 78.8117 30.2244C78.2243 29.4402 77.4357 29.048 76.447 29.048C75.7768 29.048 75.1678 29.2664 74.6238 29.697C74.0785 30.1314 73.7218 30.6985 73.5549 31.4008C73.4708 31.7284 73.4287 31.9965 73.4287 32.2074V34.1929C73.4287 35.0591 73.7014 35.79 74.2467 36.3869C74.792 36.9838 75.5004 37.2816 76.3718 37.2816C77.3949 37.2816 78.1912 36.897 78.7607 36.1301C79.3315 35.3619 79.6169 34.3493 79.6169 33.091Z" fill="white"/>
<path d="M96.4461 32.9942C96.4461 35.0194 95.8843 36.6202 94.7593 37.7954C93.754 38.8415 92.5042 39.3639 91.0122 39.3639C89.4018 39.3639 88.2449 38.8006 87.5416 37.6738H87.4907V43.9467H84.7744V31.1067C84.7744 29.8335 84.74 28.5268 84.6737 27.1866H87.0626L87.2142 29.0741H87.2652C88.1698 27.652 89.5445 26.9421 91.3906 26.9421C92.8316 26.9421 94.0356 27.4968 95.0014 28.6075C95.9633 29.7194 96.4461 31.1812 96.4461 32.9942ZM93.6789 33.091C93.6789 31.932 93.41 30.9764 92.8724 30.2244C92.285 29.4402 91.4989 29.048 90.509 29.048C89.8375 29.048 89.2298 29.2664 88.6845 29.697C88.1392 30.1314 87.7837 30.6985 87.6168 31.4008C87.534 31.7284 87.4907 31.9965 87.4907 32.2074V34.1929C87.4907 35.0591 87.7633 35.79 88.3061 36.3869C88.8514 36.9826 89.5598 37.2816 90.4338 37.2816C91.4569 37.2816 92.2532 36.897 92.8227 36.1301C93.3935 35.3619 93.6789 34.3493 93.6789 33.091Z" fill="white"/>
<path d="M112.168 34.4634C112.168 35.8681 111.668 37.011 110.662 37.8933C109.558 38.8575 108.02 39.339 106.044 39.339C104.219 39.339 102.757 38.9965 101.65 38.3103L102.279 36.1051C103.471 36.8075 104.78 37.1599 106.206 37.1599C107.229 37.1599 108.025 36.9341 108.597 36.4848C109.167 36.0356 109.451 35.4325 109.451 34.6805C109.451 34.0104 109.216 33.4458 108.746 32.9879C108.279 32.53 107.498 32.1043 106.407 31.711C103.438 30.6326 101.955 29.0529 101.955 26.9755C101.955 25.6179 102.475 24.5048 103.516 23.6386C104.553 22.7712 105.937 22.3381 107.667 22.3381C109.21 22.3381 110.492 22.6 111.515 23.1224L110.836 25.2792C109.88 24.7729 108.8 24.5197 107.591 24.5197C106.635 24.5197 105.888 24.7493 105.353 25.2059C104.901 25.6142 104.674 26.1118 104.674 26.7013C104.674 27.354 104.933 27.8938 105.453 28.3182C105.905 28.7104 106.727 29.1348 107.919 29.5927C109.378 30.1647 110.45 30.8336 111.139 31.6005C111.826 32.3649 112.168 33.3217 112.168 34.4634Z" fill="white"/>
<path d="M121.149 29.1721H118.155V34.9536C118.155 36.4241 118.683 37.1588 119.74 37.1588C120.225 37.1588 120.628 37.1178 120.947 37.0359L121.022 39.045C120.487 39.2398 119.782 39.3379 118.909 39.3379C117.837 39.3379 116.998 39.0189 116.393 38.3823C115.79 37.7445 115.487 36.6748 115.487 35.172V29.1696H113.703V27.1841H115.487V25.0038L118.155 24.2195V27.1841H121.149V29.1721Z" fill="white"/>
<path d="M134.658 33.0426C134.658 34.873 134.12 36.3757 133.048 37.5509C131.923 38.7608 130.429 39.3639 128.568 39.3639C126.774 39.3639 125.346 38.7844 124.281 37.6254C123.216 36.4663 122.683 35.0033 122.683 33.2399C122.683 31.3946 123.231 29.8831 124.33 28.708C125.427 27.5316 126.908 26.9434 128.769 26.9434C130.563 26.9434 132.007 27.5229 133.096 28.6832C134.138 29.8087 134.658 31.2618 134.658 33.0426ZM131.84 33.1282C131.84 32.03 131.599 31.0881 131.111 30.3026C130.542 29.352 129.727 28.878 128.673 28.878C127.581 28.878 126.751 29.3533 126.182 30.3026C125.694 31.0893 125.453 32.0461 125.453 33.1778C125.453 34.2761 125.694 35.2179 126.182 36.0022C126.769 36.9528 127.59 37.4268 128.648 37.4268C129.685 37.4268 130.5 36.9429 131.087 35.9774C131.588 35.177 131.84 34.2252 131.84 33.1282Z" fill="white"/>
<path d="M143.488 29.5134C143.219 29.465 142.932 29.4402 142.631 29.4402C141.676 29.4402 140.937 29.7913 140.417 30.4949C139.965 31.1154 139.738 31.8997 139.738 32.8465V39.0947H137.023L137.048 30.9367C137.048 29.5642 137.014 28.3146 136.946 27.1878H139.312L139.412 29.4662H139.487C139.774 28.6832 140.226 28.0528 140.845 27.58C141.45 27.1543 142.104 26.9421 142.808 26.9421C143.059 26.9421 143.286 26.9595 143.488 26.9905V29.5134Z" fill="white"/>
<path d="M155.636 32.5771C155.636 33.0512 155.604 33.4507 155.536 33.7771H147.387C147.419 34.9535 147.813 35.8532 148.57 36.4737C149.257 37.0284 150.145 37.3063 151.235 37.3063C152.442 37.3063 153.543 37.119 154.532 36.743L154.958 38.5795C153.801 39.071 152.435 39.3154 150.859 39.3154C148.963 39.3154 147.475 38.7719 146.392 37.6861C145.312 36.6002 144.771 35.1421 144.771 33.313C144.771 31.5174 145.274 30.022 146.282 28.8295C147.336 27.5563 148.762 26.9197 150.556 26.9197C152.318 26.9197 153.652 27.5563 154.558 28.8295C155.275 29.8408 155.636 31.0917 155.636 32.5771ZM153.046 31.8909C153.063 31.1066 152.886 30.4291 152.518 29.857C152.048 29.1211 151.326 28.7538 150.354 28.7538C149.465 28.7538 148.743 29.1124 148.191 29.8322C147.739 30.4042 147.47 31.0905 147.387 31.8896H153.046V31.8909Z" fill="white"/>
</svg>
