<svg width="172" height="51" viewBox="0 0 172 51" fill="none" xmlns="http://www.w3.org/2000/svg">
<path d="M165.63 50.2751H6.37037C2.86826 50.2751 0 47.4815 0 44.0704V6.84226C0 3.43123 2.86826 0.637562 6.37037 0.637562H165.63C169.132 0.637562 172 3.43123 172 6.84226V44.0704C172 47.4815 169.132 50.2751 165.63 50.2751Z" fill="black"/>
<path d="M165.63 1.63186C168.579 1.63186 170.979 3.96949 170.979 6.84226V44.0704C170.979 46.9432 168.579 49.2808 165.63 49.2808H6.37037C3.42089 49.2808 1.02085 46.9432 1.02085 44.0704V6.84226C1.02085 3.96949 3.42089 1.63186 6.37037 1.63186H165.63ZM165.63 0.637562H6.37037C2.86826 0.637562 0 3.43123 0 6.84226V44.0704C0 47.4815 2.86826 50.2751 6.37037 50.2751H165.63C169.132 50.2751 172 47.4815 172 44.0704V6.84226C172 3.43123 169.132 0.637562 165.63 0.637562Z" fill="#A6A6A6"/>
<path d="M12.3394 9.99296C11.9651 10.3746 11.7485 10.9686 11.7485 11.738V39.1814C11.7485 39.9508 11.9651 40.5449 12.3394 40.9265L12.4318 41.0103L28.2207 25.6381V25.2751L12.4318 9.903L12.3394 9.99296Z" fill="white"/>
<path d="M35.389 30.7646L30.1318 25.638V25.275L35.3954 20.1484L35.5132 20.2151L41.7466 23.6696C43.5255 24.6499 43.5255 26.2631 41.7466 27.2497L35.5132 30.6979L35.389 30.7646Z" fill="white"/>
<path d="M34.5576 31.6525L29.1763 26.4111L13.2949 41.881C13.8858 42.4859 14.8493 42.5589 15.945 41.9539L34.5576 31.6525Z" fill="white"/>
<path d="M34.5576 19.2605L15.945 8.95918C14.8493 8.36043 13.8858 8.43333 13.2949 9.03829L29.1763 24.502L34.5576 19.2605Z" fill="white"/>
<path d="M60.4134 13.3493C60.4134 14.3855 60.0949 15.2154 59.4674 15.8343C58.746 16.568 57.8063 16.9372 56.6549 16.9372C55.5544 16.9372 54.6148 16.5618 53.844 15.8219C53.0716 15.0711 52.6862 14.1497 52.6862 13.0468C52.6862 11.944 53.0716 11.0226 53.844 10.278C54.6148 9.53188 55.5544 9.15649 56.6549 9.15649C57.2028 9.15649 57.7251 9.26663 58.2236 9.47138C58.7205 9.67769 59.125 9.9569 59.418 10.3013L58.7523 10.9559C58.2411 10.368 57.5452 10.0779 56.6549 10.0779C55.8522 10.0779 55.1563 10.3509 54.5654 10.9016C53.9809 11.4538 53.6879 12.1689 53.6879 13.0468C53.6879 13.9248 53.9809 14.6461 54.5654 15.1983C55.1563 15.7428 55.8522 16.022 56.6549 16.022C57.5069 16.022 58.2236 15.7428 58.789 15.1921C59.1616 14.8276 59.3735 14.325 59.4292 13.6828H56.6549V12.7862H60.3561C60.4007 12.9801 60.4134 13.1678 60.4134 13.3493Z" fill="white" stroke="white" stroke-width="0.050963" stroke-miterlimit="10"/>
<path d="M66.2853 10.2408H62.8087V12.5986H65.9429V13.4952H62.8087V15.8529H66.2853V16.7666H61.8245V9.32715H66.2853V10.2408Z" fill="white" stroke="white" stroke-width="0.050963" stroke-miterlimit="10"/>
<path d="M70.4292 16.7666H69.445V10.2408H67.3125V9.32715H72.5633V10.2408H70.4292V16.7666Z" fill="white" stroke="white" stroke-width="0.050963" stroke-miterlimit="10"/>
<path d="M76.3633 16.7666V9.32715H77.3459V16.7666H76.3633Z" fill="white" stroke="white" stroke-width="0.050963" stroke-miterlimit="10"/>
<path d="M81.7015 16.7666H80.7253V10.2408H78.5848V9.32715H83.842V10.2408H81.7015V16.7666Z" fill="white" stroke="white" stroke-width="0.050963" stroke-miterlimit="10"/>
<path d="M93.783 15.8095C93.0297 16.5618 92.0965 16.9372 90.9833 16.9372C89.8637 16.9372 88.9304 16.5618 88.1771 15.8095C87.4254 15.0587 87.0511 14.1373 87.0511 13.0468C87.0511 11.9564 87.4254 11.035 88.1771 10.2842C88.9304 9.53188 89.8637 9.15649 90.9833 9.15649C92.0901 9.15649 93.0234 9.53188 93.7767 10.2904C94.5348 11.0474 94.909 11.9626 94.909 13.0468C94.909 14.1373 94.5347 15.0587 93.783 15.8095ZM88.9049 15.1859C89.4719 15.7428 90.1615 16.022 90.9833 16.022C91.7987 16.022 92.4946 15.7428 93.0552 15.1859C93.6206 14.629 93.9073 13.9139 93.9073 13.0468C93.9073 12.1797 93.6206 11.4646 93.0552 10.9078C92.4946 10.3509 91.7987 10.0717 90.9833 10.0717C90.1615 10.0717 89.4719 10.3509 88.9049 10.9078C88.3396 11.4646 88.0529 12.1797 88.0529 13.0468C88.0529 13.9139 88.3396 14.629 88.9049 15.1859Z" fill="white" stroke="white" stroke-width="0.050963" stroke-miterlimit="10"/>
<path d="M96.2897 16.7666V9.32715H97.4841L101.198 15.113H101.241L101.198 13.6828V9.32715H102.181V16.7666H101.155L97.2659 10.6953H97.2229L97.2659 12.1317V16.7666H96.2897Z" fill="white" stroke="white" stroke-width="0.050963" stroke-miterlimit="10"/>
<path d="M86.809 27.6312C83.8165 27.6312 81.3719 29.8494 81.3719 32.9099C81.3719 35.9455 83.8165 38.1869 86.809 38.1869C89.8078 38.1869 92.2525 35.9455 92.2525 32.9099C92.2525 29.8494 89.8078 27.6312 86.809 27.6312ZM86.809 36.1084C85.167 36.1084 83.7544 34.7883 83.7544 32.9099C83.7544 31.0066 85.167 29.7098 86.809 29.7098C88.451 29.7098 89.87 31.0066 89.87 32.9099C89.87 34.7883 88.451 36.1084 86.809 36.1084ZM74.9458 27.6312C71.9469 27.6312 69.5087 29.8494 69.5087 32.9099C69.5087 35.9455 71.9469 38.1869 74.9458 38.1869C77.943 38.1869 80.3829 35.9455 80.3829 32.9099C80.3829 29.8494 77.943 27.6312 74.9458 27.6312ZM74.9458 36.1084C73.3022 36.1084 71.8848 34.7883 71.8848 32.9099C71.8848 31.0066 73.3022 29.7098 74.9458 29.7098C76.5877 29.7098 78.0004 31.0066 78.0004 32.9099C78.0004 34.7883 76.5877 36.1084 74.9458 36.1084ZM60.829 29.2491V31.4921H66.3283C66.1674 32.7454 65.7374 33.6668 65.0781 34.309C64.2754 35.0846 63.0252 35.9455 60.829 35.9455C57.4448 35.9455 54.7947 33.2852 54.7947 29.989C54.7947 26.6927 57.4448 24.0325 60.829 24.0325C62.6589 24.0325 63.9903 24.729 64.973 25.6317L66.5958 24.0511C65.2214 22.7729 63.3931 21.791 60.829 21.791C56.1882 21.791 52.288 25.4689 52.288 29.989C52.288 34.5091 56.1882 38.1869 60.829 38.1869C63.3374 38.1869 65.2214 37.3865 66.7025 35.885C68.2203 34.4067 68.6933 32.3282 68.6933 30.6498C68.6933 30.1286 68.6487 29.6493 68.569 29.2491H60.829ZM118.554 30.9879C118.107 29.8075 116.726 27.6312 113.913 27.6312C111.126 27.6312 108.806 29.7703 108.806 32.9099C108.806 35.8664 111.102 38.1869 114.181 38.1869C116.67 38.1869 118.107 36.7087 118.697 35.8478L116.85 34.6487C116.234 35.5267 115.394 36.1084 114.181 36.1084C112.975 36.1084 112.11 35.5701 111.556 34.5091L118.804 31.5882L118.554 30.9879ZM111.165 32.7454C111.102 30.7103 112.787 29.6679 113.995 29.6679C114.941 29.6679 115.743 30.1286 116.011 30.7878L111.165 32.7454ZM105.273 37.8659H107.656V22.3541H105.273V37.8659ZM101.372 28.807H101.292C100.757 28.1896 99.7361 27.6312 98.4429 27.6312C95.7291 27.6312 93.2478 29.9518 93.2478 32.9269C93.2478 35.885 95.7291 38.1869 98.4429 38.1869C99.7361 38.1869 100.757 37.6239 101.292 36.9879H101.372V37.7449C101.372 39.7629 100.265 40.8472 98.4795 40.8472C97.0239 40.8472 96.1209 39.8234 95.7482 38.9625L93.6762 39.8048C94.2735 41.204 95.8549 42.9258 98.4795 42.9258C101.273 42.9258 103.63 41.325 103.63 37.43V27.9523H101.372V28.807ZM98.6467 36.1084C97.0048 36.1084 95.6304 34.7697 95.6304 32.9269C95.6304 31.0671 97.0048 29.7098 98.6467 29.7098C100.265 29.7098 101.54 31.0671 101.54 32.9269C101.54 34.7697 100.265 36.1084 98.6467 36.1084ZM129.709 22.3541H124.01V37.8659H126.386V31.9885H129.709C132.348 31.9885 134.936 30.1286 134.936 27.1705C134.936 24.214 132.341 22.3541 129.709 22.3541ZM129.771 29.8308H126.386V24.5118H129.771C131.545 24.5118 132.558 25.9466 132.558 27.1705C132.558 28.3711 131.545 29.8308 129.771 29.8308ZM144.459 27.6017C142.742 27.6017 140.957 28.3401 140.223 29.9766L142.332 30.8375C142.785 29.9766 143.62 29.6974 144.502 29.6974C145.735 29.6974 146.985 30.4187 147.004 31.6922V31.8551C146.574 31.6131 145.654 31.2547 144.521 31.2547C142.25 31.2547 139.936 32.4724 139.936 34.7449C139.936 36.8235 141.796 38.1621 143.887 38.1621C145.486 38.1621 146.369 37.4594 146.923 36.642H147.004V37.841H149.299V31.8907C149.299 29.1405 147.191 27.6017 144.459 27.6017ZM144.173 36.1022C143.395 36.1022 142.312 35.7268 142.312 34.7883C142.312 33.5877 143.663 33.127 144.832 33.127C145.878 33.127 146.369 33.3519 147.004 33.6482C146.818 35.0846 145.549 36.1022 144.173 36.1022ZM157.66 27.9414L154.929 34.6658H154.848L152.024 27.9414H149.462L153.704 37.3385L151.283 42.5675H153.766L160.304 27.9414H157.66ZM136.241 37.8659H138.624V22.3541H136.241V37.8659Z" fill="white"/>
</svg>
