<svg width="36" height="36" viewBox="0 0 36 36" fill="none" xmlns="http://www.w3.org/2000/svg">
<path d="M5.24997 30.7499C6.49497 31.9949 8.50497 31.9949 9.74997 30.7499L29.25 11.2499C30.495 10.0049 30.495 7.99491 29.25 6.74991C28.005 5.50491 25.995 5.50491 24.75 6.74991L5.24997 26.2499C4.00497 27.4949 4.00497 29.5049 5.24997 30.7499Z" stroke="#D9FF55" stroke-width="2" stroke-linecap="round" stroke-linejoin="round"/>
<path d="M27.015 13.4851L22.515 8.98511" stroke="#D9FF55" stroke-width="2" stroke-linecap="round" stroke-linejoin="round"/>
<path d="M12.75 3.66L15 3L14.34 5.25L15 7.5L12.75 6.84L10.5 7.5L11.16 5.25L10.5 3L12.75 3.66Z" stroke="#D9FF55" stroke-width="1.5" stroke-linecap="round" stroke-linejoin="round"/>
<path d="M6.75 12.66L9 12L8.34 14.25L9 16.5L6.75 15.84L4.5 16.5L5.16 14.25L4.5 12L6.75 12.66Z" stroke="#D9FF55" stroke-width="1.5" stroke-linecap="round" stroke-linejoin="round"/>
<path d="M29.25 20.16L31.5 19.5L30.84 21.75L31.5 24L29.25 23.34L27 24L27.66 21.75L27 19.5L29.25 20.16Z" stroke="#D9FF55" stroke-width="1.5" stroke-linecap="round" stroke-linejoin="round"/>
</svg>
