<svg width="36" height="36" viewBox="0 0 36 36" fill="none" xmlns="http://www.w3.org/2000/svg">
<path d="M13.5 33H22.5C30 33 33 30 33 22.5V13.5C33 6 30 3 22.5 3H13.5C6 3 3 6 3 13.5V22.5C3 30 6 33 13.5 33Z" stroke="#D9FF55" stroke-width="2" stroke-linecap="round" stroke-linejoin="round"/>
<path d="M23.3555 27.7523V21.9023" stroke="#D9FF55" stroke-width="2" stroke-miterlimit="10" stroke-linecap="round" stroke-linejoin="round"/>
<path d="M23.3555 11.175V8.25" stroke="#D9FF55" stroke-width="2" stroke-miterlimit="10" stroke-linecap="round" stroke-linejoin="round"/>
<path d="M23.3531 18.9738C25.507 18.9738 27.2531 17.2277 27.2531 15.0738C27.2531 12.9199 25.507 11.1738 23.3531 11.1738C21.1992 11.1738 19.4531 12.9199 19.4531 15.0738C19.4531 17.2277 21.1992 18.9738 23.3531 18.9738Z" stroke="#D9FF55" stroke-width="2" stroke-miterlimit="10" stroke-linecap="round" stroke-linejoin="round"/>
<path d="M12.6445 27.7512V24.8262" stroke="#D9FF55" stroke-width="2" stroke-miterlimit="10" stroke-linecap="round" stroke-linejoin="round"/>
<path d="M12.6445 14.1V8.25" stroke="#D9FF55" stroke-width="2" stroke-miterlimit="10" stroke-linecap="round" stroke-linejoin="round"/>
<path d="M12.6422 24.8273C14.7961 24.8273 16.5422 23.0813 16.5422 20.9273C16.5422 18.7734 14.7961 17.0273 12.6422 17.0273C10.4883 17.0273 8.74219 18.7734 8.74219 20.9273C8.74219 23.0813 10.4883 24.8273 12.6422 24.8273Z" stroke="#D9FF55" stroke-width="2" stroke-miterlimit="10" stroke-linecap="round" stroke-linejoin="round"/>
</svg>
