<svg width="60" height="48" viewBox="0 0 60 48" fill="none" xmlns="http://www.w3.org/2000/svg">
<path d="M29.4425 25.3292L29.4403 25.327C29.0372 22.6392 28.3941 23.9523 28.2223 25.327C28.0505 26.6996 27.6706 29.0265 24.6885 30.9395C22.7306 32.1953 19.6372 33.4512 18.2068 34.0035C17.763 34.1742 17.4788 34.2791 17.4414 34.292H23.2459C23.3406 34.292 23.4221 34.3645 23.4673 34.4725C23.4871 34.519 23.5003 34.573 23.5025 34.6303C23.5113 34.7978 23.4981 34.9989 23.421 35.1469C23.2602 35.4593 22.6689 37.0448 23.421 38.0358C24.1258 38.9642 25.107 38.4303 25.4296 38.0358C25.7523 37.6414 26.0243 36.3855 25.3911 35.1372C25.2964 34.9492 25.2832 34.7579 25.2975 34.6033C25.3019 34.5568 25.3118 34.5136 25.3272 34.4747C25.3724 34.3666 25.455 34.2942 25.5508 34.2942C25.5508 34.2942 26.1256 34.3926 26.7214 34.4747C27.1487 34.5341 27.5858 34.5849 27.8314 34.5849C27.9702 34.5849 28.1012 34.6833 28.1761 34.8476C28.6815 35.9521 28.4569 37.9148 28.4569 40.406C28.4569 43.1166 27.8193 43.7823 27.8193 45.9774C27.8193 48.6642 29.7707 48.6879 29.7707 45.9774C29.7707 43.7823 29.133 43.1166 29.133 40.406C29.133 38.7135 29.0295 37.1334 29.122 35.9489C29.1441 35.817 29.2663 35.5079 29.9358 35.5079C30.7871 35.5079 32.0359 35.6192 32.8188 35.1469C33.6007 34.6746 34.3055 34.8508 34.6942 34.7038C35.0818 34.5568 38.6773 34.7406 39.0682 34.5179C39.0958 34.5028 39.1266 34.4877 39.1574 34.4736C39.5814 34.2953 40.3578 34.2931 40.3578 34.2931C40.3578 34.2931 33.6602 31.7998 32.3618 31.1794C31.0635 30.5558 29.8444 28.0149 29.4414 25.3292H29.4425Z" fill="#D9FF55"/>
<path d="M22.5245 42.3138C22.5245 43.9512 23.6687 43.8853 23.6687 42.3138C23.6687 40.9985 23.0961 39.7578 23.0961 39.7578C23.0961 39.7578 22.5234 40.9964 22.5234 42.3138H22.5245Z" fill="#D9FF55"/>
<path d="M16.1328 11.3008V29.447L21.5894 11.3008H16.1328Z" fill="#D9FF55"/>
<path d="M39.0714 19.6047L39.0703 19.6016L39.0714 19.6047Z" fill="#D9FF55"/>
<path d="M47.7337 15.2205C50.8292 14.2089 51.3226 13.4512 51.3226 12.2721V12.1889C51.3226 10.8833 50.7742 9.70312 47.6247 9.70312C43.9532 9.70312 43.7616 12.3575 43.6801 13.7063H37.2578L39.0726 19.6052C40.3963 18.3882 42.232 17.2793 44.7747 16.3164L47.7337 15.2205Z" fill="#D9FF55"/>
<path d="M28.869 10.8828L25.7734 21.5846H32.0195L28.869 10.8828Z" fill="#D9FF55"/>
<path d="M1.36551 3.84215H23.4593L24.8369 0H0V34.1751H8.7635V11.3016H1.36551V3.84215Z" fill="#D9FF55"/>
<path d="M32.9922 0L36.3102 10.6413C36.8013 7.43572 38.4047 3.86593 43.1388 2.66411L43.3899 2.61007C46.372 2.07941 49.4356 2.10535 52.4122 2.66411H52.4034C57.5152 3.87133 59.0437 7.56001 59.0437 12.2279V12.5651C59.0437 18.3785 56.1949 20.6957 49.538 22.1699C48.4698 22.3796 47.3455 22.6757 46.4425 22.9697C42.4979 23.9813 41.8955 24.9486 41.8955 25.6241H58.6352V32.8306H42.6785L43.0001 34.2281L59.9996 34.1751V0H32.9922Z" fill="#D9FF55"/>
</svg>
