<svg width="20" height="21" viewBox="0 0 20 21" fill="none" xmlns="http://www.w3.org/2000/svg">
<path d="M11.4417 3.42495L12.9084 6.35828C13.1084 6.76662 13.6417 7.15828 14.0917 7.23328L16.75 7.67495C18.45 7.95828 18.85 9.19162 17.625 10.4083L15.5584 12.475C15.2084 12.825 15.0167 13.5 15.125 13.9833L15.7167 16.5416C16.1834 18.5666 15.1084 19.35 13.3167 18.2916L10.825 16.8166C10.375 16.55 9.63338 16.55 9.17505 16.8166L6.68338 18.2916C4.90005 19.35 3.81671 18.5583 4.28338 16.5416L4.87505 13.9833C4.98338 13.5 4.79171 12.825 4.44171 12.475L2.37505 10.4083C1.15838 9.19162 1.55005 7.95828 3.25005 7.67495L5.90838 7.23328C6.35005 7.15828 6.88338 6.76662 7.08338 6.35828L8.55005 3.42495C9.35005 1.83328 10.65 1.83328 11.4417 3.42495Z" fill="#D9FF55"/>
</svg>
