<svg width="25" height="24" fill="none" xmlns="http://www.w3.org/2000/svg"><path d="M12.227.206c.078-.275.468-.275.546 0L14.55 6.47c.05.176.25.26.41.17l5.687-3.172c.25-.14.525.136.385.385L17.86 9.54a.283.283 0 00.17.411l6.264 1.777c.275.078.275.468 0 .546L18.03 14.05a.283.283 0 00-.17.41l3.172 5.687c.14.25-.136.525-.385.385L14.96 17.36a.283.283 0 00-.411.17l-1.777 6.264c-.078.275-.468.275-.546 0L10.45 17.53a.283.283 0 00-.41-.17l-5.687 3.172c-.25.14-.525-.136-.385-.385L7.14 14.46a.283.283 0 00-.17-.411L.706 12.273c-.275-.078-.275-.468 0-.546L6.97 9.95a.283.283 0 00.17-.41L3.968 3.852c-.14-.25.136-.525.385-.385L10.04 6.64c.16.09.361.006.411-.17L12.227.206z" fill="#000"/></svg>